<?xml version="1.0" encoding="UTF-8"?>
<!-- Generator: visioncortex VTracer 0.6.0 -->
<svg version="1.1" xmlns="http://www.w3.org/2000/svg" width="847" height="847">
<path d="M0 0 C0.66 0 1.32 0 2 0 C1.01 2.97 0.02 5.94 -1 9 C-1.66 9 -2.32 9 -3 9 C-2.502 5.265 -2.125 3.188 0 0 Z " fill="#000000" transform="translate(576,34)"/>
<path d="M0 0 C0.495 0.99 0.495 0.99 1 2 C0.084 4.671 -0.901 7.247 -1.973 9.855 C-2.631 11.501 -3.287 13.147 -3.942 14.794 C-4.284 15.652 -4.626 16.51 -4.978 17.394 C-6.615 21.568 -8.153 25.775 -9.684 29.988 C-9.989 30.827 -10.294 31.665 -10.609 32.529 C-11.234 34.247 -11.858 35.965 -12.482 37.683 C-14.115 42.179 -15.757 46.671 -17.398 51.164 C-17.716 52.032 -18.033 52.9 -18.359 53.794 C-21.812 63.233 -25.3 72.655 -29 82 C-29.415 83.051 -29.415 83.051 -29.837 84.124 C-30.628 86.11 -31.434 88.087 -32.25 90.062 C-32.688 91.126 -33.127 92.189 -33.578 93.285 C-35.051 96.096 -36.642 97.899 -39 100 C-40.263 96.212 -39.532 95.038 -38.148 91.34 C-37.716 90.171 -37.283 89.002 -36.837 87.798 C-36.35 86.511 -35.863 85.224 -35.375 83.938 C-34.875 82.598 -34.376 81.259 -33.877 79.919 C-29.57 68.38 -25.145 56.884 -20.721 45.389 C-16.935 35.539 -13.29 25.647 -9.802 15.686 C-5.25 2.786 -5.25 2.786 -1.812 0.625 C-1.214 0.419 -0.616 0.212 0 0 Z " fill="#000000" transform="translate(569,59)"/>
<path d="M0 0 C0.99 0 1.98 0 3 0 C3 3.3 3 6.6 3 10 C7.455 11.98 7.455 11.98 12 14 C12 14.99 12 15.98 12 17 C10.496 18.184 10.496 18.184 8.438 19.438 C3.489 22.879 1.301 27.279 -1.359 32.586 C-1.901 33.383 -2.442 34.179 -3 35 C-4.32 35 -5.64 35 -7 35 C-6.938 33.763 -6.876 32.525 -6.812 31.25 C-6.822 28.459 -6.943 27.116 -8.188 24.562 C-10.414 22.643 -12.111 22.312 -15 22 C-14.487 17.751 -13.255 15.753 -10.312 12.688 C-6.971 9.118 -4.073 5.474 -1.324 1.434 C-0.887 0.961 -0.45 0.487 0 0 Z M-3 12 C-4.382 13.626 -5.719 15.293 -7 17 C-6.34 18.65 -5.68 20.3 -5 22 C-3.68 22 -2.36 22 -1 22 C1.282 19.077 1.282 19.077 3 16 C2.01 15.67 1.02 15.34 0 15 C-0.33 14.01 -0.66 13.02 -1 12 C-1.66 12 -2.32 12 -3 12 Z " fill="#000000" transform="translate(291,70)"/>
<path d="M0 0 C0.66 0.33 1.32 0.66 2 1 C-1.169 24.995 -1.169 24.995 -3 34 C-4.485 34.495 -4.485 34.495 -6 35 C-5.056 26.123 -3.976 17.296 -2.438 8.5 C-2.311 7.765 -2.184 7.029 -2.053 6.272 C-1.126 1.126 -1.126 1.126 0 0 Z " fill="#000000" transform="translate(524,87)"/>
<path d="M0 0 C3.267 0.218 4.095 1.107 6.305 3.605 C7.175 4.79 8.03 5.985 8.875 7.188 C9.351 7.85 9.826 8.513 10.316 9.196 C14.886 15.659 19.104 22.343 23.318 29.04 C28.067 36.576 32.933 44.028 37.875 51.438 C38.252 52.002 38.628 52.567 39.016 53.149 C45.157 62.345 51.421 71.45 57.787 80.492 C60.563 84.444 63.319 88.406 65.949 92.457 C66.348 93.072 66.748 93.686 67.159 94.32 C68 96 68 96 68 99 C63.54 97.638 61.77 95.862 59.16 92.047 C58.472 91.056 57.784 90.066 57.075 89.045 C56.048 87.538 56.048 87.538 55 86 C53.751 84.233 52.499 82.467 51.246 80.703 C40.55 65.43 30.26 49.919 20.301 34.156 C19.699 33.204 19.097 32.252 18.478 31.271 C17.3 29.407 16.123 27.542 14.948 25.676 C11.144 19.676 7.177 13.84 2.843 8.209 C0.484 5.065 0 4.118 0 0 Z " fill="#000000" transform="translate(196,89)"/>
<path d="M0 0 C1.834 0.149 1.834 0.149 4 1 C5.4 3.417 5.4 3.417 6.656 6.617 C7.122 7.782 7.587 8.948 8.066 10.148 C8.539 11.378 9.013 12.608 9.5 13.875 C9.973 15.066 10.446 16.257 10.934 17.484 C12.314 20.98 13.663 24.487 15 28 C15.407 29.055 15.815 30.11 16.234 31.196 C16.6 32.165 16.967 33.134 17.344 34.133 C17.665 34.98 17.987 35.827 18.318 36.7 C19 39 19 39 19 43 C17.108 42.701 17.108 42.701 15 42 C13.651 39.482 12.596 37.143 11.582 34.492 C11.279 33.733 10.977 32.974 10.665 32.193 C10.026 30.583 9.396 28.971 8.772 27.355 C7.822 24.899 6.848 22.453 5.869 20.008 C5.251 18.441 4.635 16.873 4.02 15.305 C3.731 14.578 3.442 13.852 3.145 13.104 C1.461 8.711 0.489 4.683 0 0 Z " fill="#000000" transform="translate(271,114)"/>
<path d="M0 0 C-1.057 2.196 -2.085 4.113 -3.562 6.062 C-8.262 15.665 -5.497 26.837 -2.312 36.5 C1.506 46.364 7.414 56.382 17.285 61.09 C19.161 61.808 21.078 62.417 23 63 C19.533 58.926 16.049 55.015 12.125 51.375 C3.387 42.739 -3.809 31.26 -4.438 18.812 C-4.257 14.146 -3.298 11.463 0 8 C3.164 5.867 6.151 3.853 10.066 4.164 C15.599 6.556 18.399 14.558 20.688 19.75 C25.091 31.006 26.476 42.312 27.871 54.234 C29.154 65.949 29.154 65.949 33 77 C33.135 40.57 33.135 40.57 21.07 6.809 C19.781 4.629 18.846 2.384 18 0 C21.253 0.241 22.174 1.178 24.5 3.562 C36.18 18.671 37.517 38.635 37 57 C37.866 56.897 38.733 56.794 39.625 56.688 C44.238 57.115 45.693 58.85 49 62 C49.07 61.436 49.14 60.872 49.212 60.291 C49.543 57.692 49.896 55.096 50.25 52.5 C50.414 51.17 50.414 51.17 50.582 49.812 C51.52 43.096 53.085 36.915 58 32 C60.625 31.875 60.625 31.875 63 32 C62.402 32.949 61.804 33.898 61.188 34.875 C55.012 45.715 52.675 61.254 55.887 73.336 C56.713 76.129 56.713 76.129 59 77 C59.037 76.138 59.075 75.275 59.113 74.387 C59.523 66.772 60.277 59.289 61.438 51.75 C61.56 50.928 61.682 50.107 61.808 49.26 C61.932 48.489 62.056 47.717 62.184 46.922 C62.292 46.237 62.401 45.552 62.513 44.847 C63 43 63 43 65 40 C65.66 40 66.32 40 67 40 C67.322 48.681 66.329 56.932 65 65.5 C64.623 67.989 64.248 70.479 63.875 72.969 C63.707 74.056 63.54 75.143 63.367 76.264 C62.934 79.035 62.934 79.035 63 82 C63.628 82.19 64.255 82.38 64.902 82.576 C96.508 92.277 123.665 106.853 140.164 136.859 C150.586 156.546 155.239 177.941 157 200 C157.085 201.051 157.171 202.103 157.259 203.186 C157.916 212.038 158.154 220.856 158.29 229.729 C158.685 255.462 161.491 279.035 168 304 C167.584 302.082 167.584 302.082 167.16 300.125 C166.794 298.417 166.428 296.708 166.062 295 C165.88 294.161 165.698 293.322 165.51 292.457 C164.038 285.552 162.884 278.706 162.75 271.625 C162.724 270.792 162.698 269.96 162.672 269.102 C162.78 268.408 162.888 267.715 163 267 C163.99 266.34 164.98 265.68 166 265 C166.906 268.924 167.158 272.668 167.312 276.688 C168.238 292.413 173.146 307.339 177.826 322.28 C182.437 337.176 185.968 352.057 179.438 366.938 C173.781 377.451 164.717 385.019 153.375 388.504 C148.209 389.583 143.014 389.671 138 388 C138 388.99 138 389.98 138 391 C137.01 391 136.02 391 135 391 C135 389.68 135 388.36 135 387 C133.35 386.67 131.7 386.34 130 386 C129.587 386.531 129.175 387.062 128.75 387.609 C121.299 396.724 112.654 399.766 101 401 C88.503 401.755 76.107 401.103 63.715 399.438 C59.63 398.883 59.63 398.883 54 399 C54.99 416.82 55.98 434.64 57 453 C61.228 453.866 65.456 454.733 69.812 455.625 C105.551 463.204 136.258 476.828 163 502 C163.901 502.822 163.901 502.822 164.82 503.66 C173.155 511.549 180.871 521.721 186 532 C186 532.66 186 533.32 186 534 C186.66 534 187.32 534 188 534 C187.988 533.294 187.977 532.587 187.965 531.859 C187.933 528.239 187.951 524.62 188 521 C188.011 520.17 188.022 519.341 188.034 518.486 C188.082 515.802 188.163 513.12 188.25 510.438 C188.271 509.135 188.271 509.135 188.293 507.806 C188.44 504.038 188.552 501.68 190.656 498.488 C193.548 496.652 195.861 496.192 199.25 495.75 C200.328 495.6 201.405 495.451 202.516 495.297 C203.745 495.15 203.745 495.15 205 495 C205.176 491.813 205.281 488.628 205.375 485.438 C205.425 484.542 205.476 483.647 205.527 482.725 C205.634 477.858 205.431 474.89 202.133 471.164 C201.587 470.616 201.041 470.069 200.479 469.505 C198.538 467.53 197.563 465.479 196.5 462.938 C196.089 461.991 195.678 461.045 195.254 460.07 C194.397 457.973 193.573 455.863 192.777 453.742 C189.592 445.587 185.583 439.243 180.138 432.417 C176.511 427.86 173.956 424.484 174.062 418.438 C175 415 175 415 177.062 412.562 C180.911 410.515 183.815 409.936 188 411 C192.874 413.477 197.355 416.332 201.203 420.234 C202.818 422.234 202.818 422.234 205 422 C205.485 420.961 205.969 419.922 206.469 418.852 C210.521 410.357 214.649 403.026 221 396 C220.019 394.009 219.046 392.074 217.875 390.188 C216.64 387.1 216.874 384.288 217 381 C221.327 378.771 224.284 379.075 229 380 C229 379.34 229 378.68 229 378 C228.45 377.734 227.899 377.469 227.332 377.195 C219.262 373.059 209.665 367.843 206.195 358.934 C206 357 206 357 208 354.25 C211.714 351.465 213.451 351.431 218 352 C219.679 352.635 221.349 353.296 223 354 C222.821 353.299 222.642 352.598 222.457 351.875 C220.951 345.155 220.663 341.118 224 335 C226.343 333.048 227.359 332.946 230.371 333.199 C233.725 334.221 234.953 335.705 237.188 338.375 C237.862 339.166 238.536 339.958 239.23 340.773 C241 343 241 343 243 346 C243.037 344.998 243.075 343.997 243.113 342.965 C243.842 327.158 243.842 327.158 249 322 C251.312 321.875 251.312 321.875 254 323 C258.268 328.209 260.297 334.165 262.062 340.562 C262.436 341.859 262.436 341.859 262.817 343.183 C263.561 345.784 264.284 348.391 265 351 C265.216 351.787 265.432 352.574 265.655 353.384 C266.8 357.582 267.915 361.786 269 366 C269.329 365.345 269.657 364.69 269.996 364.016 C275.653 353.161 283.354 338.738 295.75 334.812 C299 335 299 335 301.438 336.375 C303.846 340.42 303.971 343.518 303 348 C300.797 353.577 297.894 358.756 295 364 C294.067 365.701 294.067 365.701 293.115 367.436 C290.302 372.563 287.484 377.687 284.637 382.796 C284.129 383.708 284.129 383.708 283.611 384.639 C282.638 386.387 281.664 388.135 280.689 389.883 C279.273 392.497 277.965 395.122 276.703 397.812 C275 401 275 401 272 402 C272.058 402.571 272.116 403.142 272.176 403.73 C272.467 408.965 271.847 413.029 269.895 417.906 C269.213 419.611 269.213 419.611 268.517 421.35 C265.876 427.703 263.142 434.014 260.375 440.312 C258.698 444.134 257.025 447.956 255.385 451.793 C254.602 453.605 253.801 455.41 252.941 457.187 C250.017 463.632 250.675 470.562 250.812 477.5 C250.833 479.449 250.833 479.449 250.854 481.438 C250.889 484.625 250.938 487.812 251 491 C254.3 491 257.6 491 261 491 C261.11 491.846 261.219 492.691 261.332 493.563 C262.773 504.538 264.366 515.489 266 526.438 C266.147 527.425 266.295 528.412 266.446 529.43 C269.218 547.983 272.054 566.526 274.938 585.062 C275.096 586.08 275.096 586.08 275.257 587.119 C278.48 607.82 281.884 628.485 285.576 649.108 C285.733 649.991 285.891 650.874 286.053 651.784 C286.34 653.39 286.629 654.996 286.922 656.601 C287.838 661.719 288.469 666.827 289 672 C287.125 673.063 287.125 673.063 285 674 C284.34 673.67 283.68 673.34 283 673 C278.079 657.907 276.356 641.513 273.76 625.877 C273.372 623.543 272.982 621.208 272.591 618.874 C267.159 586.319 262.653 553.65 258.445 520.916 C257.411 512.925 256.265 504.959 255 497 C253.786 497.086 252.573 497.171 251.323 497.26 C246.736 497.583 242.149 497.905 237.562 498.227 C235.593 498.365 233.623 498.504 231.654 498.643 C219.44 499.505 207.225 500.315 195 501 C197.97 501.66 200.94 502.32 204 503 C203.984 503.897 203.967 504.794 203.95 505.719 C203.805 514.361 203.728 523.001 203.718 531.645 C203.71 536.084 203.681 540.52 203.592 544.959 C203.112 570.111 206.681 590.128 216.473 613.307 C218.429 618.038 220.072 622.826 221.605 627.707 C221.834 628.419 222.063 629.131 222.299 629.865 C222.935 631.846 223.561 633.829 224.188 635.812 C224.641 637.227 225.094 638.642 225.549 640.057 C231.301 658.031 231.301 658.031 231 663 C230.01 663 229.02 663 228 663 C225.319 657.16 223.502 651.219 221.688 645.062 C212.209 613.75 200.831 583.087 188 553 C187.548 551.939 187.095 550.878 186.629 549.784 C181.914 538.897 176.409 529.274 169 520 C168.33 519.153 168.33 519.153 167.647 518.29 C141.148 485.058 98.623 465.502 56.752 460.745 C55.678 460.633 55.678 460.633 54.582 460.52 C51 460 51 460 49 458 C48.789 455.991 48.789 455.991 48.84 453.52 C48.851 452.609 48.863 451.698 48.875 450.76 C48.906 449.301 48.906 449.301 48.938 447.812 C49.043 438.811 48.782 429.968 48 421 C46.991 421.583 45.981 422.165 44.941 422.766 C26.63 433.205 7.635 442.33 -12 450 C-11.977 450.915 -11.954 451.83 -11.93 452.773 C-11.912 453.962 -11.894 455.15 -11.875 456.375 C-11.852 457.558 -11.829 458.742 -11.805 459.961 C-12 463 -12 463 -14 465 C-15.134 464.823 -16.269 464.647 -17.438 464.465 C-22.96 463.628 -27.695 465.074 -33 466.562 C-34.522 466.977 -34.522 466.977 -36.074 467.401 C-68.957 476.574 -96.425 492.804 -114 523 C-124.133 541.512 -130.969 561.129 -136.062 581.562 C-136.279 582.413 -136.495 583.263 -136.718 584.139 C-136.905 584.94 -137.092 585.741 -137.285 586.566 C-137.531 587.602 -137.531 587.602 -137.781 588.658 C-138.289 594.101 -136.721 599.498 -135.441 604.754 C-135.138 606.022 -134.834 607.289 -134.521 608.596 C-133.89 611.214 -133.253 613.831 -132.615 616.447 C-129.715 628.595 -127.54 640.475 -128 653 C-129.32 652.67 -130.64 652.34 -132 652 C-132.085 651.318 -132.169 650.636 -132.256 649.934 C-134.336 633.608 -137.58 618.087 -142.085 602.271 C-143.612 596.81 -145.001 591.315 -146.375 585.812 C-146.655 584.692 -146.936 583.571 -147.225 582.417 C-148.998 575.252 -150.687 568.07 -152.336 560.875 C-152.536 560.002 -152.736 559.129 -152.943 558.229 C-153.934 553.9 -154.918 549.569 -155.892 545.236 C-157.601 537.685 -159.322 530.28 -162 523 C-169.461 523.642 -176.531 525.156 -183.805 526.906 C-185.006 527.191 -186.207 527.476 -187.444 527.769 C-189.967 528.369 -192.49 528.97 -195.013 529.575 C-198.882 530.502 -202.753 531.421 -206.625 532.34 C-209.081 532.924 -211.537 533.509 -213.992 534.094 C-215.152 534.37 -216.311 534.646 -217.505 534.93 C-218.577 535.187 -219.649 535.444 -220.753 535.709 C-221.697 535.935 -222.64 536.16 -223.612 536.393 C-225.428 536.855 -227.222 537.407 -229 538 C-225.7 538 -222.4 538 -219 538 C-215.921 564.485 -213.307 591.005 -210.853 617.554 C-210.345 623.044 -209.83 628.532 -209.313 634.02 C-208.91 638.312 -208.511 642.604 -208.114 646.896 C-207.926 648.922 -207.736 650.948 -207.545 652.973 C-205.654 673.019 -205.654 673.019 -206 682 C-222.945 674.07 -222.945 674.07 -229 668 C-230.008 664.977 -230.252 662.599 -230.449 659.429 C-230.559 657.695 -230.559 657.695 -230.672 655.926 C-230.786 654.027 -230.786 654.027 -230.902 652.09 C-230.985 650.749 -231.068 649.409 -231.151 648.068 C-231.421 643.692 -231.68 639.315 -231.938 634.938 C-232.027 633.436 -232.116 631.934 -232.205 630.432 C-233.493 608.651 -234.573 586.867 -235.375 565.062 C-235.424 563.811 -235.474 562.559 -235.525 561.27 C-235.661 557.754 -235.782 554.239 -235.898 550.723 C-235.94 549.687 -235.981 548.652 -236.024 547.585 C-236.051 546.638 -236.079 545.691 -236.107 544.715 C-236.135 543.896 -236.163 543.076 -236.191 542.232 C-235.973 539.689 -235.361 538.15 -234 536 C-227.616 532.087 -220.194 529.919 -213 528 C-213.012 527.38 -213.023 526.76 -213.035 526.121 C-213.118 518.037 -212.609 510.057 -212 502 C-212.612 501.714 -213.225 501.428 -213.855 501.133 C-216.838 499.557 -218.694 497.467 -221 495 C-221.538 494.468 -222.075 493.935 -222.629 493.387 C-231.686 483.925 -236.835 471.642 -237.312 458.625 C-236.889 442.499 -227.935 427.244 -218 415 C-217.34 414.176 -216.68 413.353 -216 412.504 C-210.542 406.012 -205.423 401.223 -196.812 399.938 C-186.97 399.505 -178.187 403.705 -169.5 407.875 C-168.829 408.19 -168.159 408.505 -167.468 408.83 C-162.274 411.444 -158.22 414.586 -156.188 420.273 C-155.752 425.15 -156.198 428.689 -158.211 433.176 C-159.582 436.346 -160.15 438.339 -159.375 441.75 C-159 445 -159 445 -160.625 448.375 C-162.755 453.323 -161.39 457.979 -160.219 463.013 C-157.817 473.443 -158.863 483.681 -163.84 493.219 C-165 495 -165 495 -167.875 497.75 C-170.83 502.269 -169.847 505.167 -168.809 510.293 C-168.089 513.184 -168.089 513.184 -166 516 C-164.023 516.363 -164.023 516.363 -161.875 516.188 C-159.957 516.095 -159.957 516.095 -158 516 C-153.228 525.835 -150.796 536.03 -148.35 546.63 C-147.682 549.524 -146.997 552.415 -146.311 555.305 C-145.877 557.151 -145.444 558.997 -145.012 560.844 C-144.809 561.704 -144.606 562.565 -144.396 563.451 C-144.212 564.253 -144.028 565.055 -143.839 565.881 C-143.595 566.932 -143.595 566.932 -143.346 568.005 C-143 570 -143 570 -143 574 C-142.34 574 -141.68 574 -141 574 C-140.794 572.721 -140.587 571.442 -140.375 570.125 C-133.578 536.475 -114.687 499.786 -85.889 480.222 C-68.15 468.743 -40.579 455 -19 455 C-19 439.82 -19 424.64 -19 409 C-21.97 408.67 -24.94 408.34 -28 408 C-30.926 407.248 -33.712 406.461 -36.562 405.5 C-37.329 405.244 -38.096 404.987 -38.885 404.723 C-47.806 401.583 -56.823 397.138 -64.238 391.211 C-66.719 389.506 -68.554 390.188 -71.406 390.656 C-82.196 392.086 -93.161 391.865 -102.301 385.363 C-102.862 384.913 -103.422 384.464 -104 384 C-106.952 385.311 -108.759 386.643 -110.875 389.062 C-119.412 397.838 -132.625 405.924 -145 407 C-146.176 407.103 -147.351 407.206 -148.562 407.312 C-158.831 407.116 -167.622 402.909 -175 396 C-175.741 395.33 -176.482 394.659 -177.246 393.969 C-179 392 -179 392 -179 389 C-175.923 390.346 -174.165 391.77 -172 394.312 C-167.553 398.924 -162.061 401.145 -156 403 C-154.68 403 -153.36 403 -152 403 C-152.713 402.587 -153.426 402.175 -154.16 401.75 C-166.956 394.035 -175.705 382.845 -179.578 368.203 C-180.109 365.431 -180.222 362.812 -180 360 C-180.66 360 -181.32 360 -182 360 C-181.67 365.94 -181.34 371.88 -181 378 C-181.99 377.67 -182.98 377.34 -184 377 C-184 373.04 -184 369.08 -184 365 C-184.66 365 -185.32 365 -186 365 C-186.33 365.99 -186.66 366.98 -187 368 C-189.625 368.812 -189.625 368.812 -193 369 C-197.978 366.072 -200.005 363.029 -201.531 357.496 C-205.338 337.225 -195.763 313.85 -185 297 C-181.593 292.067 -177.998 287.278 -174.367 282.508 C-171.047 278.132 -167.992 273.605 -165 269 C-165.361 269.423 -165.723 269.847 -166.095 270.283 C-168.727 273.361 -171.369 276.43 -174.043 279.473 C-202.205 310.899 -202.205 310.899 -212.328 350.516 C-211.857 355.517 -210.276 359.564 -208 364 C-207.662 364.728 -207.325 365.457 -206.977 366.207 C-205.679 368.589 -204.487 368.964 -202 370 C-200.639 370.743 -200.639 370.743 -199.25 371.5 C-195.51 373.226 -192.014 374.1 -188 375 C-188.33 375.99 -188.66 376.98 -189 378 C-198.33 375.71 -205.675 373.247 -211.301 365.121 C-216.714 355.377 -216.851 344.908 -214.023 334.355 C-208.116 314.879 -195.688 299.773 -182.491 284.704 C-163.982 263.546 -147.378 239.661 -144 211 C-143.875 210.024 -143.75 209.048 -143.621 208.043 C-143.237 202.072 -143.651 198.72 -147.625 194.125 C-148.716 192.926 -148.716 192.926 -149.828 191.703 C-159.989 179.057 -161.188 162.489 -160 147 C-157.394 130.586 -148.642 117.379 -137 106 C-136.22 105.199 -135.44 104.399 -134.637 103.574 C-117.395 86.796 -92.988 80.25 -70 76 C-99.605 78.47 -127.967 85.992 -148.531 108.809 C-164.153 128.523 -169.683 151.185 -168 176 C-167.118 182.214 -165.712 188.618 -162.867 194.238 C-162 196 -162 196 -162 199 C-165 198 -165 198 -166.098 195.848 C-174.311 172.139 -173.608 147.691 -162.812 124.875 C-151.005 102.438 -131.947 86.496 -107.945 78.629 C-97.029 75.33 -86.166 74.062 -74.783 73.515 C-65.93 72.865 -62.103 70.218 -56 64 C-38.589 52.768 -17.868 53.241 2 55 C1.203 53.801 1.203 53.801 0.391 52.578 C-8.045 39.462 -13.891 24.569 -10.504 8.672 C-8.614 3.761 -5.426 0 0 0 Z M-62.766 116.508 C-64.424 118.512 -65.337 120.494 -66 123 C-65.34 123 -64.68 123 -64 123 C-63.337 121.859 -63.337 121.859 -62.66 120.695 C-58.558 114.036 -50.206 111.411 -42.934 109.641 C-41.976 109.324 -41.976 109.324 -41 109 C-40.67 108.34 -40.34 107.68 -40 107 C-48.211 107 -56.826 110.833 -62.766 116.508 Z M-98 108 C-105.117 112.197 -112.341 117.98 -115 126 C-114.34 126 -113.68 126 -113 126 C-111.693 124.442 -111.693 124.442 -110.375 122.438 C-106.84 117.544 -102.471 112.735 -97 110 C-97.33 109.34 -97.66 108.68 -98 108 Z M-70 112 C-77.224 116.841 -83.333 122.465 -86 131 C-82.39 129.797 -81.892 128.756 -79.875 125.625 C-79.098 124.438 -79.098 124.438 -78.305 123.227 C-76.87 120.953 -76.87 120.953 -76 118 C-74.125 116.938 -74.125 116.938 -72 116 C-71.01 115.34 -70.02 114.68 -69 114 C-69.33 113.34 -69.66 112.68 -70 112 Z M59 120 C58.67 120.66 58.34 121.32 58 122 C58.75 122.086 59.5 122.173 60.273 122.262 C72.711 123.969 81.473 128.714 90 138 C93.925 143.32 97.24 148.994 100 155 C101.211 151.368 100.764 150.774 99.125 147.438 C93.289 136.377 82.198 124.95 70 121 C66.336 120.427 62.705 120.136 59 120 Z M95 121 C96.414 125.043 98.364 128.088 100.938 131.5 C103.5 134.91 105.865 138.306 108 142 C108.66 141.67 109.32 141.34 110 141 C108.609 138.788 107.213 136.581 105.812 134.375 C105.231 133.449 105.231 133.449 104.639 132.504 C102.023 128.396 99.242 124.64 96 121 C95.67 121 95.34 121 95 121 Z M3 107 C5.881 130.123 23.072 154.01 41 168 C48.285 173.183 55.945 177.639 63.812 181.875 C64.493 182.244 65.174 182.614 65.875 182.994 C70.762 185.561 75.722 187.395 81 189 C81 189.66 81 190.32 81 191 C58.474 188.139 35.179 171.418 21.355 154.188 C15.753 146.607 11.013 138.528 7 130 C3.437 132.878 0.116 135.726 -2.75 139.312 C-24.09 164.932 -58.501 175.647 -90.336 178.668 C-92.15 178.832 -92.15 178.832 -94 179 C-93.67 178.34 -93.34 177.68 -93 177 C-91.26 176.669 -91.26 176.669 -88.977 176.543 C-88.13 176.485 -87.283 176.428 -86.41 176.368 C-85.491 176.309 -84.572 176.249 -83.625 176.188 C-56.106 173.959 -32.779 162.89 -12 145 C-10.722 144.004 -10.722 144.004 -9.418 142.988 C-7.17 141.14 -5.367 139.286 -3.5 137.062 C-1.442 134.626 0.605 132.415 3 130.312 C5.341 128.153 5.341 128.153 4.812 125.188 C4.41 124.105 4.41 124.105 4 123 C0.231 124.544 -1.93 126.856 -4.688 129.812 C-26.6 152.394 -57.301 169.517 -89 171 C-86.743 166.905 -83.983 163.53 -80.812 160.125 C-80.326 159.599 -79.84 159.073 -79.339 158.531 C-75.466 154.391 -71.403 150.576 -67 147 C-66.01 146.196 -65.02 145.391 -64 144.562 C-63.34 144.047 -62.68 143.531 -62 143 C-62.33 142.01 -62.66 141.02 -63 140 C-70.45 142.249 -75.938 146.186 -82 151 C-82.838 151.659 -83.676 152.317 -84.539 152.996 C-105.97 170.991 -117.727 200.733 -121 228 C-121.506 234.949 -121.436 241.913 -121.375 248.875 C-121.37 249.819 -121.366 250.763 -121.361 251.735 C-121.087 299.165 -110.331 342.442 -75.808 376.61 C-52.301 399.182 -24.107 407.763 8.043 407.316 C16.719 407.036 24.743 405.631 33 403 C34.14 402.638 35.279 402.276 36.453 401.902 C66.36 391.247 88.426 369.816 102.025 341.264 C104.692 335.071 106.374 328.53 108 322 C109.572 322.501 109.572 322.501 111.176 323.012 C114.575 323.89 116.759 324.189 120.188 323.812 C121.415 323.698 121.415 323.698 122.668 323.582 C125.419 322.895 126.929 321.924 129 320 C130.527 315.418 130.774 311.584 128.625 307.188 C127.04 304.943 127.04 304.943 125 303 C122.312 302.73 119.709 302.913 117 303 C118.646 300.055 120.307 297.656 122.562 295.125 C125.315 291.597 126.055 289.297 127 285 C126.34 284.34 125.68 283.68 125 283 C120.591 283.294 117.637 284.54 114 287 C116.608 280.25 120.287 274.195 124 268 C124 271.701 122.639 273.722 121 277 C121 277.99 121 278.98 121 280 C123.64 280.33 126.28 280.66 129 281 C129.204 286.738 129.271 291.605 127 297 C127.615 297.147 128.23 297.294 128.863 297.445 C135.491 299.285 135.491 299.285 138 302.812 C138.964 305.886 139.619 308.803 140 312 C147.5 305.823 152.044 295.589 153 286 C153.783 274.034 152.779 262.614 145 253 C140.798 248.755 137.158 246.212 131.188 245.625 C126.699 245.767 123.394 247.046 120 250 C117.488 253.281 115.658 256.887 115 261 C109.768 259.615 106.902 256.359 104 252 C93.626 233.41 88.282 211.503 87.309 190.32 C87.137 187.729 87.137 187.729 85 185 C83.241 209.573 89.871 239.947 103 261 C102.01 261 101.02 261 100 261 C99.738 260.34 99.477 259.68 99.207 259 C98.306 256.761 97.385 254.536 96.449 252.312 C90.6 238.166 86.41 223.998 85.332 208.68 C85.108 193.265 85.108 193.265 78.977 180.086 C75.927 177.838 72.598 176.377 69.1 174.961 C65.356 173.247 62.235 170.705 59 168.188 C58.338 167.686 57.676 167.185 56.994 166.669 C37.355 151.707 20.36 135.113 8.222 113.472 C6.277 109.6 6.277 109.6 3 107 Z M-131 284 C-137.277 292.07 -137.844 300.079 -137 310 C-135.361 317.862 -132.339 324.042 -127 330 C-126.487 330.616 -125.974 331.232 -125.445 331.867 C-120.846 336.995 -115.44 339.683 -109 342 C-108.34 342 -107.68 342 -107 342 C-107.666 339.078 -108.581 336.389 -109.707 333.613 C-116.623 316.254 -120.327 299.45 -123 281 C-126.721 281 -128.011 281.813 -131 284 Z M129 301 C129.289 301.568 129.577 302.137 129.875 302.723 C132.31 307.786 133.478 311.386 133 317 C133.66 317 134.32 317 135 317 C136.238 313.287 136.556 309.859 136 306 C134.363 302.971 134.363 302.971 132 301 C131.01 301 130.02 301 129 301 Z M169 307 C170 310 170 310 170 310 Z M-158.332 309.18 C-162.56 314.022 -165.398 319.137 -168 325 C-168.397 325.843 -168.794 326.686 -169.203 327.555 C-170.073 330.223 -169.96 331.409 -169 334 C-168.709 333.25 -168.417 332.5 -168.117 331.727 C-164.678 323.139 -160.644 315.348 -155 308 C-157.047 307.779 -157.047 307.779 -158.332 309.18 Z M170 311 C171 313 171 313 171 313 Z M171 314 C172 316 172 316 172 316 Z M172 317 C173 319 173 319 173 319 Z M173 319 C174 322 174 322 174 322 Z M174 322 C174.247 323.887 174.247 323.887 174.5 325.812 C176.237 344.062 175.587 359.857 164 375 C161.785 377.483 159.458 379.761 157 382 C155.995 382.995 154.994 383.994 154 385 C162.402 383.776 168.432 378.201 173.438 371.625 C180.326 361.34 181.869 350.581 179.496 338.417 C178.211 332.881 176.654 327.436 175 322 C174.67 322 174.34 322 174 322 Z M249 327 C246.483 334.897 244.631 343.842 247 352 C250.312 357.117 256.319 361.969 262.202 363.617 C262.795 363.743 263.389 363.87 264 364 C262.927 359.872 261.84 355.748 260.75 351.625 C260.45 350.469 260.149 349.312 259.84 348.121 C257.38 337.681 257.38 337.681 253 328 C250.951 327.178 250.951 327.178 249 327 Z M227 338 C225.099 341.801 225.425 346.071 226.613 350.059 C230.512 358.869 238.477 363.408 246.371 368.305 C255.751 374.353 255.751 374.353 257 380 C256.313 379.465 256.313 379.465 255.613 378.918 C250.17 374.748 244.517 371.042 238.688 367.438 C237.814 366.886 236.941 366.335 236.041 365.768 C224.342 358.234 224.342 358.234 211 356 C211.49 360.298 212.592 362.038 215.875 364.812 C216.679 365.496 217.484 366.179 218.312 366.883 C221.971 369.765 225.761 372.434 229.617 375.043 C232 377 232 377 233.438 379.598 C235.562 382.864 237.423 383.168 241.125 384.25 C247.14 386.219 252.602 388.651 258.188 391.625 C258.918 392.009 259.648 392.394 260.401 392.79 C265.619 395.61 265.619 395.61 267.595 397.63 C268.912 399.233 268.912 399.233 271 399 C273.641 394.396 273.13 391.061 272 386 C268.66 374.263 261.816 368.678 252.438 361.5 C244.463 355.379 238.325 348.496 232.824 340.09 C232.222 339.4 231.62 338.711 231 338 C229.68 338 228.36 338 227 338 Z M287 345 C279.813 352.707 272.497 362.62 270 373 C270.519 375.162 270.519 375.162 271.75 377 C273.606 380.26 274.917 383.389 276 387 C276.66 387 277.32 387 278 387 C278.327 386.366 278.654 385.732 278.99 385.079 C280.511 382.134 282.036 379.192 283.562 376.25 C284.11 375.193 284.658 374.137 285.222 373.048 C288.03 367.663 290.895 362.369 294.062 357.188 C296.866 352.488 299.424 347.517 300 342 C299.34 341.01 298.68 340.02 298 339 C293.204 339 290.477 341.885 287 345 Z M161 341 C160.89 342.002 160.781 343.003 160.668 344.035 C159.137 357.155 159.137 357.155 156 363 C156.66 363.33 157.32 363.66 158 364 C161.77 355.952 163.174 349.875 163 341 C162.34 341 161.68 341 161 341 Z M-130 343 C-133.51 347.388 -134.188 352.506 -134 358 C-133.097 360.251 -133.097 360.251 -132 362 C-130.68 361.34 -129.36 360.68 -128 360 C-127.01 364.29 -126.02 368.58 -125 373 C-124.67 373 -124.34 373 -124 373 C-124.33 366.4 -124.66 359.8 -125 353 C-125.99 353.99 -126.98 354.98 -128 356 C-129 357 -130 358 -131 359 C-131.24 353.367 -130.385 348.455 -129 343 C-129.33 343 -129.66 343 -130 343 Z M144 345 C143.34 350.94 142.68 356.88 142 363 C142.66 362.67 143.32 362.34 144 362 C145.523 356.483 146.309 350.719 146 345 C145.34 345 144.68 345 144 345 Z M133 355 C131.68 359.29 130.36 363.58 129 368 C129.66 368 130.32 368 131 368 C131.534 366.588 132.052 365.17 132.562 363.75 C132.853 362.961 133.143 362.172 133.441 361.359 C134.256 358.723 134.256 358.723 133 355 Z M-102 359 C-102.66 361.97 -103.32 364.94 -104 368 C-105.32 368 -106.64 368 -108 368 C-109.75 365.5 -109.75 365.5 -111 363 C-114.303 364.101 -114.785 364.69 -116.688 367.438 C-117.124 368.055 -117.561 368.672 -118.012 369.309 C-119.168 370.961 -119.168 370.961 -119 373 C-120.65 373 -122.3 373 -124 373 C-123.67 373.99 -123.34 374.98 -123 376 C-119.875 375.665 -119.023 375.026 -116.875 372.625 C-115.552 370.772 -114.263 368.894 -113 367 C-112.34 367 -111.68 367 -111 367 C-109.375 369.5 -109.375 369.5 -108 372 C-104.377 371.67 -104.377 371.67 -101.688 369.438 C-100.688 365.893 -100.877 362.678 -101 359 C-101.33 359 -101.66 359 -102 359 Z M120 365 C119.01 365.99 118.02 366.98 117 368 C117.33 368.66 117.66 369.32 118 370 C118.99 369.01 119.98 368.02 121 367 C120.67 366.34 120.34 365.68 120 365 Z M99 371 C98.766 375.79 98.766 375.79 101 380 C105.248 379.528 107.2 377.033 110 374 C107.015 373.654 107.015 373.654 105.5 375.438 C105.005 375.953 104.51 376.469 104 377 C103.01 377.33 102.02 377.66 101 378 C101 375.69 101 373.38 101 371 C100.34 371 99.68 371 99 371 Z M221 383 C221.096 386.953 221.989 389.46 224.562 392.375 C230.279 397.766 237.946 400.74 245 404 C245.59 410.372 243.993 413.372 240.5 418.375 C236.702 424.112 233.396 429.881 230.5 436.125 C230.175 436.823 229.849 437.521 229.514 438.24 C226.836 444.115 224.715 449.307 224.875 455.875 C224.893 456.842 224.911 457.809 224.93 458.805 C224.953 459.529 224.976 460.254 225 461 C222.491 458.785 222.036 458.236 221.5 454.75 C222.201 439.356 232.099 422.779 241.004 410.664 C242.257 408.894 242.257 408.894 242 406 C239.377 404.662 236.752 403.329 234.125 402 C233.379 401.618 232.632 401.237 231.863 400.844 C231.148 400.483 230.432 400.122 229.695 399.75 C229.035 399.415 228.376 399.08 227.696 398.734 C226.002 397.868 226.002 397.868 224 398 C222.129 400.401 220.392 402.796 218.688 405.312 C218.193 406.043 217.698 406.773 217.188 407.526 C211.727 415.733 207.207 422.849 207.922 433.004 C208 435 208 435 207 437 C206.608 436.134 206.216 435.267 205.812 434.375 C201.28 425.935 193.845 419.757 185 416 C181.833 415.833 181.833 415.833 179 416 C179.365 423.114 183.712 428.094 187.965 433.496 C192.792 439.732 195.823 445.963 198.57 453.277 C201.871 461.873 205.623 469.32 212 476 C211.34 476 210.68 476 210 476 C209.879 482.433 210.176 488.618 211 495 C222.406 494.458 233.675 493.46 245 492 C244.998 490.755 244.998 490.755 244.997 489.484 C245.007 486.324 245.044 483.166 245.098 480.007 C245.124 477.999 245.121 475.99 245.117 473.982 C245.315 463.98 247.782 456.054 252 447 C252.593 445.678 253.184 444.355 253.772 443.031 C255.876 438.32 258.034 433.633 260.197 428.949 C261.12 426.947 262.037 424.942 262.953 422.938 C263.491 421.771 264.029 420.604 264.583 419.402 C266.937 413.751 268.833 409.021 267 403 C263.894 398.218 260.385 396.321 255.375 394 C253.933 393.31 252.492 392.62 251.051 391.93 C250.006 391.436 250.006 391.436 248.94 390.933 C246.443 389.732 244.007 388.426 241.562 387.125 C234.878 383.794 228.417 382.684 221 383 Z M41.863 402.496 C36.115 404.617 32.984 406.758 29.23 411.527 C24.428 416.851 18.492 421.081 12.878 425.514 C10.486 427.406 8.12 429.33 5.75 431.25 C0.265 435.631 -5.364 439.817 -11 444 C-10.01 444.33 -9.02 444.66 -8 445 C-5.776 443.516 -3.797 442.016 -1.75 440.312 C-1.135 439.815 -0.52 439.318 0.113 438.805 C1.419 437.747 2.722 436.686 4.021 435.62 C7.181 433.033 10.373 430.487 13.562 427.938 C14.187 427.437 14.812 426.936 15.455 426.42 C25.473 418.399 35.714 410.673 46 403 C44.036 401.752 44.036 401.752 41.863 402.496 Z M48 406 C47.406 406.545 46.811 407.091 46.199 407.652 C36.244 416.71 25.82 425.012 15 433 C15.33 433.66 15.66 434.32 16 435 C27.934 427.19 38.42 417.517 49 408 C48.505 407.01 48.505 407.01 48 406 Z M-208 413 C-208.656 413.642 -209.312 414.284 -209.988 414.945 C-221.258 426.805 -231.718 444.194 -231.305 460.98 C-229.955 474.352 -223.111 485.345 -213.738 494.695 C-211.619 496.404 -211.619 496.404 -207 498 C-207 507.24 -207 516.48 -207 526 C-201.935 527.688 -197.042 525.537 -191.976 524.25 C-190.01 523.753 -188.041 523.276 -186.07 522.801 C-184.83 522.49 -183.59 522.179 -182.312 521.859 C-181.174 521.575 -180.036 521.292 -178.863 520.999 C-176.059 520.021 -174.681 519.426 -173 517 C-173.146 513.834 -173.146 513.834 -174.062 510.438 C-174.322 509.281 -174.581 508.125 -174.848 506.934 C-175.701 503.901 -175.701 503.901 -178.059 502.723 C-178.699 502.484 -179.34 502.246 -180 502 C-180.33 501.34 -180.66 500.68 -181 500 C-179.67 499.629 -179.67 499.629 -178.312 499.25 C-171.612 496.721 -168.156 492.223 -165 486 C-162.882 480.935 -162.696 476.459 -162.75 471.062 C-162.742 470.29 -162.735 469.517 -162.727 468.721 C-162.743 463.777 -163.427 459.688 -165 455 C-169.704 457.091 -171.097 459.621 -173.008 464.16 C-174 466 -174 466 -177 468 C-177.433 470.032 -177.433 470.032 -177.438 472.312 C-177.716 475.566 -178.05 477.095 -179.625 480.062 C-182 482 -182 482 -185.562 482.562 C-189 482 -189 482 -190.875 480.25 C-191.93 478.14 -192.472 476.284 -193 474 C-194.438 474.31 -195.875 474.623 -197.312 474.938 C-198.513 475.199 -198.513 475.199 -199.738 475.465 C-202.145 475.999 -202.145 475.999 -205 477 C-205 476.01 -205 475.02 -205 474 C-200.38 473.01 -195.76 472.02 -191 471 C-190.67 472.65 -190.34 474.3 -190 476 C-188.532 478.265 -188.532 478.265 -187 480 C-183.937 478.979 -183.119 478.236 -181.641 475.301 C-180.659 471.952 -180.659 471.952 -182.414 468.895 C-183.144 467.877 -183.873 466.86 -184.625 465.812 C-185.696 464.275 -185.696 464.275 -186.789 462.707 C-189.489 459.343 -189.489 459.343 -193 457 C-197.964 457.218 -202.344 459.17 -206.875 461.062 C-207.563 461.344 -208.252 461.626 -208.961 461.916 C-210.643 462.605 -212.322 463.302 -214 464 C-213.91 462.203 -213.91 462.203 -213 460 C-206.509 456.16 -198.584 452.403 -191 454 C-186.916 456.58 -183.644 459.957 -181 464 C-177.839 462.63 -177.007 462.011 -175 459 C-175.188 453.901 -176.879 451.414 -180.312 447.75 C-181.092 446.899 -181.872 446.048 -182.676 445.172 C-187.079 441.057 -190.383 440.634 -196.25 440.73 C-200.702 441.167 -204.803 442.5 -209 444 C-208 441 -208 441 -205.125 439.375 C-198.359 436.801 -191.634 435.838 -184.875 438.812 C-179.12 442.059 -175.096 446.904 -171 452 C-167.476 449.454 -167.476 449.454 -165 446 C-164.619 442.446 -164.559 440.64 -166.617 437.656 C-174.934 429.713 -183.104 423.46 -195 423 C-197.871 423.39 -200.239 424.062 -203 425 C-201.297 422.704 -199.837 421.239 -197.047 420.441 C-186.926 419.008 -179.187 422.146 -171 428 C-169.228 429.594 -167.635 431.263 -166 433 C-165.34 433 -164.68 433 -164 433 C-162.591 428.529 -161.833 424.985 -162.625 420.312 C-165.409 415.014 -171.764 413.137 -177 411 C-178.013 410.584 -179.026 410.167 -180.07 409.738 C-190.799 405.747 -199.483 404.536 -208 413 Z M16.438 408.938 C15.281 409.112 14.125 409.286 12.934 409.465 C10.078 409.845 10.078 409.845 8 411 C7.456 412.464 6.965 413.947 6.5 415.438 C3.751 422.603 -1.578 428.409 -8.207 432.293 C-10.125 433.125 -10.125 433.125 -13 434 C-12.67 435.32 -12.34 436.64 -12 438 C-11.198 437.357 -10.396 436.714 -9.57 436.051 C-2.667 430.551 4.341 425.226 11.5 420.062 C12.253 419.52 13.005 418.977 13.781 418.417 C16.989 416.116 20.197 413.861 23.531 411.746 C24.346 411.17 25.161 410.594 26 410 C26 409.34 26 408.68 26 408 C22.717 408 19.683 408.441 16.438 408.938 Z M-14 410 C-13.67 411.65 -13.34 413.3 -13 415 C-9.354 413.719 -7.833 412.833 -5 410 C-7.97 410 -10.94 410 -14 410 Z M1 411 C-0.714 412.959 -2.384 414.959 -4 417 C-0.633 415.607 0.986 414.021 3 411 C2.34 411 1.68 411 1 411 Z M-13 423 C-13 423.66 -13 424.32 -13 425 C-9.205 423.509 -7.39 421.243 -5 418 C-8.529 418 -10.511 420.727 -13 423 Z " fill="#000000" transform="translate(416,115)"/>
<path d="M0 0 C0.66 0.33 1.32 0.66 2 1 C2.686 3.101 2.686 3.101 3.289 5.84 C3.618 7.31 3.618 7.31 3.953 8.811 C4.175 9.842 4.397 10.874 4.625 11.938 C4.854 12.966 5.084 13.994 5.32 15.053 C7 22.666 7 22.666 7 25 C5.68 24.67 4.36 24.34 3 24 C2.325 21.294 1.66 18.585 1 15.875 C0.809 15.114 0.618 14.354 0.422 13.57 C-0.608 9.303 -1.331 5.426 -1 1 C-0.67 0.67 -0.34 0.34 0 0 Z " fill="#000000" transform="translate(302,120)"/>
<path d="M0 0 C0.66 0 1.32 0 2 0 C3.841 4.301 5.674 8.607 7.499 12.915 C8.121 14.379 8.744 15.841 9.37 17.303 C10.273 19.41 11.166 21.521 12.059 23.633 C12.338 24.28 12.617 24.927 12.905 25.594 C14.495 29.384 15.492 32.922 16 37 C13 36 13 36 12.004 34.333 C11.717 33.618 11.429 32.904 11.133 32.168 C10.644 30.978 10.644 30.978 10.145 29.764 C9.808 28.914 9.472 28.064 9.125 27.188 C8.419 25.449 7.714 23.711 7.008 21.973 C6.667 21.122 6.325 20.271 5.974 19.395 C5.134 17.33 4.266 15.285 3.367 13.246 C2.916 12.216 2.465 11.186 2 10.125 C1.608 9.241 1.216 8.356 0.812 7.445 C-0.059 4.822 -0.157 2.746 0 0 Z " fill="#000000" transform="translate(247,125)"/>
<path d="M0 0 C1.485 0.495 1.485 0.495 3 1 C-0.855 8.985 -5.027 16.646 -9.688 24.188 C-10.292 25.171 -10.896 26.154 -11.519 27.167 C-13.338 30.116 -15.167 33.059 -17 36 C-17.826 37.331 -17.826 37.331 -18.668 38.689 C-20.163 41.091 -21.672 43.485 -23.188 45.875 C-23.632 46.588 -24.077 47.301 -24.536 48.036 C-27.651 52.884 -27.651 52.884 -31 54 C-29.298 44.396 -21.189 34.615 -16.016 26.421 C-10.526 17.706 -5.273 8.847 0 0 Z " fill="#000000" transform="translate(596,135)"/>
<path d="M0 0 C0.99 0.495 0.99 0.495 2 1 C1.482 5.179 0.333 7.167 -2.562 10.188 C-7.875 15.914 -12.653 21.993 -17.457 28.148 C-18.346 29.287 -19.235 30.425 -20.125 31.562 C-20.81 32.439 -20.81 32.439 -21.509 33.333 C-25.868 38.882 -30.367 44.311 -34.871 49.743 C-38.4 54.014 -41.842 58.334 -45.188 62.75 C-50.22 69.373 -55.574 75.697 -61 82 C-61.99 81.67 -62.98 81.34 -64 81 C-62.444 75.964 -59.393 72.524 -56.062 68.562 C-54.875 67.127 -53.689 65.691 -52.504 64.254 C-51.911 63.537 -51.318 62.821 -50.708 62.083 C-48.256 59.093 -45.875 56.051 -43.5 53 C-38.42 46.493 -33.22 40.089 -28.004 33.691 C-25.569 30.704 -23.153 27.702 -20.75 24.688 C-14.031 16.275 -7.231 7.98 0 0 Z " fill="#000000" transform="translate(646,138)"/>
<path d="M0 0 C4.361 2.401 7.908 5.36 11.625 8.625 C12.878 9.713 14.132 10.8 15.387 11.887 C16.002 12.42 16.617 12.952 17.251 13.501 C19.612 15.524 22.02 17.484 24.438 19.438 C28.896 23.054 33.237 26.789 37.562 30.562 C44.234 36.38 51.071 41.94 58.055 47.379 C59.068 48.182 60.081 48.985 61.125 49.812 C62.056 50.541 62.986 51.269 63.945 52.02 C64.623 52.673 65.301 53.327 66 54 C66 54.99 66 55.98 66 57 C61.131 56.546 58.151 54.131 54.5 51.125 C53.888 50.632 53.275 50.139 52.644 49.63 C50.753 48.099 48.874 46.553 47 45 C46.447 44.542 45.894 44.085 45.325 43.613 C38.276 37.752 31.37 31.724 24.457 25.705 C19.908 21.755 15.268 17.934 10.586 14.145 C6.27 10.565 2.131 6.791 -2 3 C-1.34 2.01 -0.68 1.02 0 0 Z " fill="#000000" transform="translate(157,168)"/>
<path d="M0 0 C-0.344 2.811 -0.89 3.892 -2.941 5.902 C-4.239 6.91 -4.239 6.91 -5.562 7.938 C-6.556 8.723 -7.55 9.508 -8.574 10.316 C-9.123 10.745 -9.671 11.173 -10.236 11.614 C-13.48 14.163 -16.674 16.772 -19.875 19.375 C-20.902 20.207 -20.902 20.207 -21.949 21.056 C-26.221 24.526 -30.441 28.05 -34.625 31.625 C-46.341 41.608 -58.656 50.814 -71 60 C-71.495 58.515 -71.495 58.515 -72 57 C-68.267 50.534 -61.516 46.144 -55.66 41.766 C-51.694 38.795 -47.842 35.692 -44 32.562 C-43.323 32.011 -42.646 31.46 -41.948 30.892 C-37.716 27.434 -33.532 23.923 -29.375 20.375 C-24.843 16.51 -20.24 12.749 -15.562 9.062 C-14.995 8.614 -14.428 8.165 -13.843 7.703 C-3.999 0 -3.999 0 0 0 Z " fill="#000000" transform="translate(673,178)"/>
<path d="M0 0 C4.41 0.431 6.83 3.422 9.75 6.438 C10.257 6.941 10.763 7.444 11.285 7.963 C15 11.733 15 11.733 15 14 C10.59 13.569 8.17 10.578 5.25 7.562 C4.743 7.059 4.237 6.556 3.715 6.037 C0 2.267 0 2.267 0 0 Z " fill="#000000" transform="translate(225,179)"/>
<path d="M0 0 C5.302 0.496 9.221 3.305 13.625 6.062 C14.369 6.516 15.113 6.969 15.879 7.436 C21.173 10.707 26.181 14.289 31.192 17.976 C35.709 21.232 40.382 24.237 45.062 27.25 C47.075 28.555 49.086 29.861 51.098 31.168 C52.088 31.81 53.078 32.453 54.098 33.115 C58.409 35.915 62.711 38.729 67 41.562 C67.71 42.026 68.421 42.49 69.153 42.968 C73.661 45.956 78.261 49.061 82 53 C82 53.66 82 54.32 82 55 C77.344 54.488 74.439 53.32 70.586 50.684 C69.577 50.001 68.567 49.318 67.527 48.615 C66.487 47.897 65.447 47.178 64.375 46.438 C63.358 45.746 62.341 45.054 61.293 44.342 C59.219 42.932 57.147 41.518 55.078 40.101 C49.454 36.263 43.777 32.507 38.104 28.742 C37.44 28.301 36.777 27.861 36.093 27.407 C35.408 26.952 34.722 26.497 34.016 26.028 C31.155 24.129 28.295 22.228 25.435 20.327 C23.972 19.354 22.508 18.383 21.043 17.413 C5.983 7.429 5.983 7.429 -1 2 C-0.67 1.34 -0.34 0.68 0 0 Z " fill="#000000" transform="translate(124,189)"/>
<path d="M0 0 C19.628 0 37.522 15.113 51 28 C51.673 28.61 52.346 29.219 53.039 29.848 C66.385 42.37 81.318 65.03 82.125 83.926 C82.084 84.61 82.043 85.295 82 86 C81.01 86 80.02 86 79 86 C78.598 84.438 78.598 84.438 78.188 82.844 C75.315 72.16 71.383 62.654 66 53 C65.468 52.025 64.935 51.051 64.387 50.047 C50.685 26.792 25.849 9.026 0 2 C0 1.34 0 0.68 0 0 Z " fill="#000000" transform="translate(497,195)"/>
<path d="M0 0 C-1.532 4.198 -4.233 5.822 -7.875 8.25 C-8.454 8.64 -9.034 9.03 -9.631 9.431 C-11.415 10.629 -13.207 11.815 -15 13 C-16.025 13.687 -17.05 14.374 -18.105 15.082 C-20.065 16.395 -22.029 17.702 -23.996 19.004 C-26.122 20.417 -28.239 21.839 -30.348 23.277 C-31.429 24.011 -32.511 24.744 -33.625 25.5 C-34.607 26.17 -35.59 26.841 -36.602 27.531 C-39 29 -39 29 -41 29 C-39.57 25.521 -37.935 23.941 -34.852 21.828 C-34.016 21.25 -33.181 20.671 -32.321 20.075 C-31.431 19.473 -30.541 18.871 -29.625 18.25 C-28.722 17.629 -27.819 17.008 -26.888 16.368 C-24.266 14.568 -21.635 12.782 -19 11 C-18.328 10.544 -17.656 10.088 -16.964 9.618 C-2.781 0 -2.781 0 0 0 Z " fill="#000000" transform="translate(654,237)"/>
<path d="M0 0 C6.469 0.768 10.796 2.837 16.062 6.5 C16.647 6.904 17.231 7.308 17.833 7.724 C19.266 8.757 20.639 9.873 22 11 C22 11.66 22 12.32 22 13 C17.784 12.437 15.125 11.002 11.625 8.625 C7.501 5.907 3.612 3.742 -1 2 C-0.67 1.34 -0.34 0.68 0 0 Z " fill="#000000" transform="translate(149,241)"/>
<path d="M0 0 C-1 3 -1 3 -4.199 4.84 C-5.689 5.553 -7.186 6.251 -8.688 6.938 C-9.52 7.324 -10.352 7.711 -11.21 8.11 C-21.962 13.017 -32.978 17.3 -43.975 21.619 C-48.817 23.523 -53.639 25.47 -58.457 27.434 C-60.515 28.269 -62.572 29.104 -64.63 29.939 C-65.952 30.476 -67.272 31.016 -68.592 31.558 C-70.426 32.31 -72.264 33.054 -74.102 33.797 C-75.147 34.223 -76.191 34.65 -77.268 35.089 C-80 36 -80 36 -84 36 C-83.798 34.152 -83.798 34.152 -83 32 C-80.944 30.691 -80.944 30.691 -78.234 29.562 C-76.733 28.928 -76.733 28.928 -75.201 28.281 C-73.617 27.647 -73.617 27.647 -72 27 C-71 26.598 -70.001 26.196 -68.971 25.781 C-65.738 24.502 -62.495 23.249 -59.25 22 C-48.54 17.836 -37.905 13.517 -27.312 9.062 C-26.658 8.788 -26.004 8.513 -25.329 8.23 C-23.444 7.437 -21.56 6.643 -19.676 5.848 C-18.523 5.362 -17.37 4.876 -16.182 4.375 C-12.692 2.867 -9.26 1.257 -5.856 -0.436 C-3.565 -1.132 -2.237 -0.76 0 0 Z " fill="#000000" transform="translate(704,265)"/>
<path d="M0 0 C8.321 0.99 16.643 1.982 24.964 2.974 C28.83 3.435 32.697 3.896 36.564 4.356 C54.716 6.516 72.865 8.7 91 11 C91 12.32 91 13.64 91 15 C83.853 15.164 76.943 14.69 69.852 13.828 C68.808 13.706 67.765 13.583 66.69 13.457 C63.334 13.061 59.979 12.656 56.625 12.25 C54.322 11.975 52.018 11.7 49.715 11.425 C5.256 6.085 5.256 6.085 -1 4 C-0.67 2.68 -0.34 1.36 0 0 Z " fill="#000000" transform="translate(107,297)"/>
<path d="M0 0 C0.99 0 1.98 0 3 0 C4.414 20.035 5.326 39.903 5 60 C4.01 60 3.02 60 2 60 C1.975 58.897 1.95 57.794 1.924 56.658 C1.829 52.492 1.729 48.327 1.628 44.161 C1.585 42.372 1.543 40.583 1.503 38.794 C1.755 21.102 1.755 21.102 -0.595 3.72 C-1 2 -1 2 0 0 Z " fill="#000000" transform="translate(579,297)"/>
<path d="M0 0 C2.7 2.784 2.968 3.613 3.25 7.562 C3.168 8.717 3.085 9.873 3 11.062 C-0.707 13.534 -3.393 13.246 -7.66 13.074 C-8.779 13.04 -8.779 13.04 -9.92 13.006 C-11.494 12.956 -13.069 12.901 -14.643 12.841 C-17.057 12.75 -19.47 12.676 -21.885 12.604 C-23.414 12.553 -24.943 12.502 -26.473 12.449 C-27.559 12.415 -27.559 12.415 -28.667 12.38 C-33.767 12.179 -33.767 12.179 -36 11.062 C-36.5 8.375 -36.5 8.375 -36 5.062 C-28.906 -3.122 -8.805 -5.687 0 0 Z " fill="#000000" transform="translate(458,302.9375)"/>
<path d="M0 0 C-6.902 5.029 -14.186 8.594 -22 12 C-22 11.01 -22 10.02 -22 9 C-19.095 7.292 -16.174 5.613 -13.25 3.938 C-12.425 3.452 -11.6 2.967 -10.75 2.467 C-9.951 2.012 -9.152 1.558 -8.328 1.09 C-7.595 0.666 -6.862 0.241 -6.106 -0.196 C-3.62 -1.145 -2.462 -0.898 0 0 Z " fill="#000000" transform="translate(665,306)"/>
<path d="M0 0 C-0.059 2.309 -0.059 2.309 -1 5 C-3.426 6.327 -5.47 7.207 -8.062 8.062 C-8.77 8.311 -9.477 8.559 -10.206 8.815 C-15.366 10.577 -20.594 12.079 -25.875 13.438 C-26.9 13.702 -26.9 13.702 -27.946 13.971 C-32.746 15.127 -32.746 15.127 -35 14 C-34.63 7.831 -33.242 5.242 -29 1 C-21.453 -4.283 -8.276 -2.942 0 0 Z " fill="#000000" transform="translate(361,320)"/>
<path d="M0 0 C-0.33 0.99 -0.66 1.98 -1 3 C-5.083 3.672 -9.166 4.337 -13.25 5 C-14.988 5.286 -14.988 5.286 -16.762 5.578 C-17.877 5.759 -18.992 5.939 -20.141 6.125 C-21.68 6.376 -21.68 6.376 -23.251 6.633 C-26 7 -26 7 -30 7 C-30 6.01 -30 5.02 -30 4 C-25.751 3.328 -21.5 2.664 -17.25 2 C-16.043 1.809 -14.837 1.618 -13.594 1.422 C-12.434 1.241 -11.273 1.061 -10.078 0.875 C-9.01 0.707 -7.942 0.54 -6.841 0.367 C-4 0 -4 0 0 0 Z " fill="#000000" transform="translate(176,325)"/>
<path d="M0 0 C0.66 0 1.32 0 2 0 C17.105 28.831 17.105 28.831 17.312 43.875 C17.342 44.57 17.371 45.265 17.4 45.98 C17.464 51.179 16.257 54.004 13 58 C10.25 60.375 10.25 60.375 8 62 C8.33 63.98 8.66 65.96 9 68 C15.831 70.442 21.752 71.416 29 71 C28.688 72.875 28.688 72.875 28 75 C23.516 77.99 19.258 77.595 14 77 C9.623 75.55 6.037 73.503 3 70 C1.875 66.875 1.875 66.875 2 63 C3.434 60.93 3.434 60.93 5.312 58.75 C9.543 53.678 11.072 49.634 11 43 C9.568 31.736 5.904 21.353 1.555 10.905 C1.211 10.062 0.866 9.22 0.512 8.352 C0.197 7.607 -0.118 6.863 -0.443 6.096 C-1.085 3.681 -0.804 2.336 0 0 Z " fill="#000000" transform="translate(382,336)"/>
<path d="M0 0 C2.956 2.072 5.762 4.15 8 7 C8 8.32 8 9.64 8 11 C3.13 9.59 -1.164 7.467 -5.633 5.121 C-11.719 2.239 -19.608 1.616 -26.059 3.648 C-30.301 5.941 -33.797 9.333 -37.301 12.609 C-39 14 -39 14 -41 14 C-40.245 7.8 -36.587 4.901 -32 1 C-22.137 -5.932 -10.409 -5.882 0 0 Z " fill="#000000" transform="translate(466,351)"/>
<path d="M0 0 C0 0.99 0 1.98 0 3 C-9.067 4.923 -18.134 6.844 -27.202 8.764 C-31.413 9.655 -35.625 10.547 -39.836 11.44 C-43.907 12.304 -47.979 13.166 -52.051 14.028 C-53.597 14.355 -55.143 14.682 -56.688 15.011 C-81.769 20.337 -81.769 20.337 -88 20 C-88 19.01 -88 18.02 -88 17 C-84.542 15.01 -81.192 14.307 -77.289 13.555 C-76.62 13.424 -75.952 13.293 -75.263 13.158 C-73.812 12.874 -72.36 12.593 -70.908 12.314 C-66.986 11.56 -63.067 10.787 -59.148 10.016 C-57.918 9.774 -57.918 9.774 -56.663 9.527 C-46.344 7.491 -36.058 5.295 -25.773 3.095 C-23.438 2.596 -21.102 2.099 -18.766 1.602 C-18.082 1.454 -17.398 1.306 -16.693 1.154 C-4.178 -1.504 -4.178 -1.504 0 0 Z " fill="#000000" transform="translate(205,352)"/>
<path d="M0 0 C2.622 0.262 3.808 0.822 5.75 2.625 C7.438 5.831 7.206 8.433 7 12 C5.02 12.99 5.02 12.99 3 14 C1 12.562 1 12.562 -1 10 C-1.408 6.969 -1.375 4.034 -1 1 C-0.67 0.67 -0.34 0.34 0 0 Z " fill="#000000" transform="translate(440,355)"/>
<path d="M0 0 C1.817 1.489 3.421 2.84 4.859 4.699 C4.859 5.689 4.859 6.679 4.859 7.699 C4.256 7.494 3.653 7.289 3.031 7.078 C2.232 6.809 1.433 6.539 0.609 6.262 C-0.18 5.995 -0.968 5.728 -1.781 5.453 C-7.696 3.563 -12.661 2.497 -18.5 5.328 C-22.365 7.64 -25.152 10.565 -28.078 13.949 C-28.571 14.504 -29.064 15.058 -29.572 15.629 C-30.77 16.978 -31.957 18.338 -33.141 19.699 C-33.801 19.369 -34.461 19.039 -35.141 18.699 C-35.008 13.375 -32.932 10.433 -29.445 6.664 C-21.836 0.177 -9.543 -5.799 0 0 Z " fill="#000000" transform="translate(363.140625,361.30078125)"/>
<path d="M0 0 C1.32 0.33 2.64 0.66 4 1 C3.732 1.99 3.464 2.98 3.188 4 C2.58 8.28 4.063 10.766 6.488 14.215 C10.775 19.277 17.024 21.503 23 24 C22.852 25.832 22.852 25.832 22 28 C19.523 29.387 19.523 29.387 16.375 30.688 C6.133 35.542 1.993 44.215 -3 54 C-4.485 53.505 -4.485 53.505 -6 53 C-6.738 50.34 -6.738 50.34 -7.312 46.938 C-9.185 38.159 -12.485 33.508 -19.875 28.5 C-21.241 27.652 -22.613 26.814 -24 26 C-23.77 24.164 -23.77 24.164 -23 22 C-21.074 20.586 -21.074 20.586 -18.688 19.375 C-17.908 18.97 -17.128 18.565 -16.324 18.148 C-14.849 17.419 -13.352 16.732 -11.832 16.102 C-9.493 14.695 -9.116 13.473 -8 11 C-6.653 9.063 -5.276 7.148 -3.875 5.25 C-3.151 4.265 -2.426 3.28 -1.68 2.266 C-1.125 1.518 -0.571 0.77 0 0 Z M-2 12 C-3.085 13.231 -4.142 14.486 -5.188 15.75 C-7.439 18.383 -9.494 20.539 -12.438 22.375 C-13.283 22.911 -14.129 23.447 -15 24 C-15 24.66 -15 25.32 -15 26 C-14.113 26.66 -13.226 27.32 -12.312 28 C-8.004 31.388 -6.158 36.082 -4 41 C-0.58 39.86 -0.201 39.189 1.75 36.312 C4.698 32.201 8.027 29.103 12 26 C11.34 25.361 10.68 24.721 10 24.062 C6.715 20.796 3.707 17.29 0.672 13.793 C0.12 13.201 -0.432 12.61 -1 12 C-1.33 12 -1.66 12 -2 12 Z " fill="#000000" transform="translate(639,362)"/>
<path d="M0 0 C2.979 0.319 4.067 1.062 6.312 3.125 C8.498 6.849 7.968 8.886 7 13 C5.25 13.75 5.25 13.75 3 14 C0.75 12.562 0.75 12.562 -1 10 C-1.5 6.529 -1.599 3.199 0 0 Z " fill="#000000" transform="translate(353,366)"/>
<path d="M0 0 C2.632 2.457 4.781 4.566 6 8 C5.67 8.99 5.34 9.98 5 11 C4.158 9.735 3.327 8.462 2.5 7.188 C1.804 6.126 1.804 6.126 1.094 5.043 C0 3 0 3 0 0 Z " fill="#000000" transform="translate(481,379)"/>
<path d="M0 0 C0.66 0 1.32 0 2 0 C2.837 2.123 3.67 4.249 4.5 6.375 C4.964 7.558 5.428 8.742 5.906 9.961 C7 13 7 13 7 15 C6.34 15 5.68 15 5 15 C2.629 10.037 0.568 5.541 0 0 Z " fill="#000000" transform="translate(467,382)"/>
<path d="M0 0 C2.617 2.368 4.329 4.896 6 8 C6 8.66 6 9.32 6 10 C5.34 10 4.68 10 4 10 C1.161 6.325 0 4.731 0 0 Z " fill="#000000" transform="translate(453,383)"/>
<path d="M0 0 C4.174 3.928 7.894 8.165 11 13 C11 13.66 11 14.32 11 15 C7.19 13.508 5.542 11.397 3.25 8.062 C2.636 7.187 2.023 6.312 1.391 5.41 C0 3 0 3 0 0 Z " fill="#000000" transform="translate(332,397)"/>
<path d="M0 0 C0.99 0 1.98 0 3 0 C4.859 2.336 4.859 2.336 6.75 5.375 C7.384 6.373 8.018 7.37 8.672 8.398 C9.11 9.257 9.548 10.115 10 11 C9.67 11.66 9.34 12.32 9 13 C7.682 11.4 6.371 9.795 5.062 8.188 C4.332 7.294 3.601 6.401 2.848 5.48 C1 3 1 3 0 0 Z " fill="#000000" transform="translate(350,397)"/>
<path d="M0 0 C0.66 0 1.32 0 2 0 C2.99 3.3 3.98 6.6 5 10 C1.651 6.651 1.105 4.506 0 0 Z " fill="#000000" transform="translate(317,399)"/>
<path d="M0 0 C2.86 3.905 2.299 7.621 1.656 12.262 C-1.137 23.383 -8.369 32.858 -17.973 38.953 C-24.507 42.559 -30.189 42.815 -37.344 41.262 C-50.407 37.21 -62.815 28.638 -70.406 17.137 C-71.557 13.607 -71.564 11.771 -70.344 8.262 C-66.331 4.14 -62.288 3.369 -56.781 2.699 C-55.498 2.527 -55.498 2.527 -54.189 2.35 C-51.243 1.965 -48.294 1.611 -45.344 1.262 C-44.211 1.123 -43.079 0.985 -41.912 0.843 C-4.889 -3.626 -4.889 -3.626 0 0 Z M-23.359 2.32 C-24.412 2.429 -25.464 2.538 -26.548 2.649 C-28.763 2.879 -30.979 3.11 -33.194 3.343 C-36.595 3.699 -39.997 4.048 -43.398 4.396 C-45.552 4.621 -47.706 4.845 -49.859 5.07 C-50.88 5.175 -51.901 5.279 -52.953 5.386 C-53.894 5.486 -54.836 5.586 -55.806 5.689 C-57.051 5.819 -57.051 5.819 -58.321 5.952 C-60.407 6.166 -60.407 6.166 -62.344 7.262 C-62.025 11.623 -61.095 15.368 -58.422 18.84 C-50.555 24.222 -35.275 21.208 -26.354 19.642 C-15.826 18.257 -15.826 18.257 -7.473 12.891 C-5.893 9.212 -5.61 6.253 -5.344 2.262 C-6.389 0.994 -6.389 0.994 -8.718 1.133 C-13.625 1.307 -18.477 1.808 -23.359 2.32 Z " fill="#000000" transform="translate(449.34375,431.73828125)"/>
<path d="M0 0 C0.66 0 1.32 0 2 0 C1.938 1.75 1.938 1.75 1 4 C-2.216 6.447 -4.924 8 -9 8 C-9 7.34 -9 6.68 -9 6 C-7.285 4.746 -7.285 4.746 -5.062 3.438 C-2.373 1.925 -2.373 1.925 0 0 Z " fill="#000000" transform="translate(546,507)"/>
<path d="M0 0 C0.646 0.217 1.292 0.433 1.957 0.656 C14.032 4.224 26.631 3.751 39 2 C38.67 2.99 38.34 3.98 38 5 C25.859 7.264 12.362 8.908 1 3 C0.67 2.01 0.34 1.02 0 0 Z " fill="#000000" transform="translate(316,512)"/>
<path d="M0 0 C0.99 0 1.98 0 3 0 C4.184 1.539 4.184 1.539 5.438 3.625 C11.177 11.612 21.142 14.67 30.461 16.527 C43.915 18.324 57.939 17.536 70.27 11.363 C73 10 73 10 76 10 C75.77 11.84 75.77 11.84 75 14 C62.326 23.379 44.513 23.442 29.539 21.566 C18.88 19.266 8.062 14.388 1.039 5.895 C0 4 0 4 0 0 Z " fill="#000000" transform="translate(386,583)"/>
<path d="M0 0 C2.782 0.376 4.588 0.673 6.812 2.438 C8 4 8 4 8 6 C5.218 5.624 3.412 5.327 1.188 3.562 C0 2 0 2 0 0 Z " fill="#000000" transform="translate(480,586)"/>
<path d="M0 0 C-0.33 0.99 -0.66 1.98 -1 3 C-4.062 4.188 -4.062 4.188 -7 5 C-7.33 4.01 -7.66 3.02 -8 2 C-5.094 0.743 -3.204 0 0 0 Z " fill="#000000" transform="translate(377,590)"/>
<path d="M0 0 C2.5 2.312 2.5 2.312 5 5 C5 5.99 5 6.98 5 8 C3.125 7.875 3.125 7.875 1 7 C-0.25 3.938 -0.25 3.938 -1 1 C-0.67 0.67 -0.34 0.34 0 0 Z " fill="#000000" transform="translate(472,596)"/>
<path d="M0 0 C-1.204 2.494 -2.454 4.681 -4 7 C-5.32 7 -6.64 7 -8 7 C-6.139 2.849 -4.831 0 0 0 Z " fill="#000000" transform="translate(388,601)"/>
<path d="M0 0 C2.523 1.974 2.993 2.967 3.688 6.188 C3.791 7.116 3.894 8.044 4 9 C3.01 8.67 2.02 8.34 1 8 C-0.354 5.291 -0.065 2.991 0 0 Z " fill="#000000" transform="translate(458,606)"/>
<path d="M0 0 C0.66 0 1.32 0 2 0 C1.67 1.98 1.34 3.96 1 6 C-0.32 6.33 -1.64 6.66 -3 7 C-2.25 2.25 -2.25 2.25 0 0 Z " fill="#000000" transform="translate(402,610)"/>
<path d="M0 0 C0.99 0 1.98 0 3 0 C3.33 2.31 3.66 4.62 4 7 C3.01 7.33 2.02 7.66 1 8 C-0.354 5.291 -0.065 2.991 0 0 Z " fill="#000000" transform="translate(439,613)"/>
<path d="M0 0 C0.596 0.21 1.191 0.42 1.805 0.637 C0.185 1.976 -1.442 3.308 -3.07 4.637 C-4.428 5.75 -4.428 5.75 -5.812 6.887 C-8.195 8.637 -8.195 8.637 -10.195 8.637 C-8.679 4.542 -4.767 -0.789 0 0 Z " fill="#000000" transform="translate(697.1953125,626.36328125)"/>
<path d="M0 0 C0 0.66 0 1.32 0 2 C-1.765 2.866 -3.537 3.717 -5.312 4.562 C-6.792 5.276 -6.792 5.276 -8.301 6.004 C-11 7 -11 7 -14 6 C-10.293 2.756 -5.025 0 0 0 Z " fill="#000000" transform="translate(703,638)"/>
<path d="M0 0 C2.872 2.389 3.441 4.032 3.812 7.713 C3.916 8.682 4.02 9.652 4.127 10.65 C4.227 11.713 4.327 12.776 4.43 13.871 C4.545 14.992 4.661 16.114 4.78 17.269 C5.159 20.991 5.517 24.714 5.875 28.438 C6.132 31.025 6.39 33.613 6.649 36.201 C8.561 55.493 10.255 74.806 11.875 94.125 C11.984 95.423 12.093 96.722 12.206 98.06 C12.514 101.75 12.817 105.441 13.117 109.133 C13.208 110.22 13.298 111.307 13.391 112.427 C13.833 117.973 14.094 123.436 14 129 C12.68 129 11.36 129 10 129 C8.484 119.197 7.425 109.43 6.633 99.543 C6.512 98.081 6.391 96.62 6.27 95.158 C5.95 91.295 5.634 87.432 5.319 83.568 C4.733 76.387 4.138 69.207 3.539 62.027 C3.474 61.243 3.409 60.459 3.341 59.652 C2.524 49.865 1.651 40.087 0.648 30.316 C0.548 29.337 0.448 28.357 0.345 27.348 C-0.105 22.976 -0.571 18.607 -1.058 14.239 C-1.216 12.748 -1.374 11.257 -1.531 9.766 C-1.671 8.516 -1.811 7.265 -1.955 5.978 C-2 3 -2 3 0 0 Z " fill="#000000" transform="translate(533,666)"/>
<path d="M0 0 C0.99 0.33 1.98 0.66 3 1 C1.963 7.648 0.779 14.255 -0.586 20.844 C-0.729 21.535 -0.872 22.225 -1.019 22.937 C-1.318 24.38 -1.616 25.823 -1.915 27.266 C-6.992 51.912 -10.766 76.504 -11.562 101.688 C-11.627 103.616 -11.627 103.616 -11.693 105.584 C-11.798 108.723 -11.901 111.861 -12 115 C-12.99 115 -13.98 115 -15 115 C-17.343 111.331 -17.346 107.782 -17.312 103.562 C-17.307 102.784 -17.301 102.006 -17.295 101.205 C-16.73 71.971 -11.236 42.455 -4.75 14 C-4.504 12.92 -4.258 11.84 -4.005 10.728 C-2.261 3.391 -2.261 3.391 0 0 Z " fill="#000000" transform="translate(334,686)"/>
</svg>
