<?xml version="1.0" encoding="UTF-8"?>
<!-- Generator: visioncortex VTracer 0.6.0 -->
<svg version="1.1" xmlns="http://www.w3.org/2000/svg" width="847" height="847">
<path d="M0 0 C0.495 2.475 0.495 2.475 1 5 C0.045 5.473 -0.91 5.946 -1.895 6.434 C-10.469 10.781 -17.787 15.568 -25 22 C-25.81 22.701 -26.619 23.403 -27.453 24.125 C-29.313 25.738 -31.162 27.362 -33 29 C-36.746 27.55 -36.746 27.55 -37.879 25.098 C-38.08 21.614 -36.383 19.994 -34.27 17.355 C-25.344 8.092 -13.392 -2.274 0 0 Z " fill="#000000" transform="translate(384,80)"/>
<path d="M0 0 C2.61 2.153 3.813 3.609 4.27 7.004 C4.335 10.242 4.025 12.925 3 16 C3.86 16.271 4.72 16.542 5.606 16.821 C11.528 18.879 17.11 21.718 22.75 24.438 C23.393 24.746 24.037 25.055 24.699 25.373 C34.462 30.074 43.779 35.198 52.887 41.086 C55.675 43.175 55.675 43.175 58 43 C59.688 41.355 61.354 39.687 63 38 C66.229 36.386 69.51 36.404 73 37 C76.025 38.736 78.418 40.836 80 44 C80.602 49.298 79.232 51.845 76 56 C73.9 58.436 73.153 58.949 70 60 C62.339 60.418 62.339 60.418 59 58 C58.515 57.283 58.031 56.567 57.531 55.828 C53.852 51.717 49.395 49.253 44.688 46.438 C43.763 45.874 42.838 45.31 41.885 44.729 C39.265 43.137 36.635 41.566 34 40 C33.302 39.575 32.605 39.15 31.886 38.712 C28.947 36.955 27.234 36.009 23.75 35.875 C10.122 39.963 -1.161 50.161 -12 59 C-12.862 59.699 -13.725 60.397 -14.613 61.117 C-19.622 65.191 -24.579 69.321 -29.5 73.5 C-34.413 77.672 -39.356 81.801 -44.367 85.855 C-46.161 87.316 -47.936 88.799 -49.695 90.301 C-50.559 91.027 -51.423 91.752 -52.312 92.5 C-53.451 93.475 -53.451 93.475 -54.613 94.469 C-57.467 96.3 -59.627 96.814 -63 97 C-63.66 96.34 -64.32 95.68 -65 95 C-64.98 93.188 -64.98 93.188 -64 91 C-62.144 89.2 -60.325 87.605 -58.312 86 C-57.121 85.022 -55.929 84.042 -54.738 83.062 C-54.12 82.558 -53.502 82.054 -52.866 81.535 C-49.87 79.07 -46.937 76.534 -44 74 C-42.823 72.99 -41.646 71.981 -40.469 70.973 C-38.76 69.508 -37.051 68.044 -35.344 66.578 C-24.561 57.327 -13.483 48.514 -2.062 40.062 C-1.46 39.614 -0.858 39.165 -0.237 38.703 C10.274 31 10.274 31 14 31 C11.713 26.426 4.569 24.654 0 23 C-3.175 22.553 -6.256 22.384 -9.457 22.27 C-12.936 21.901 -14.717 20.598 -17 18 C-18.633 14.734 -18.678 11.516 -18 8 C-13.728 0.833 -8.189 -2.551 0 0 Z " fill="#000000" transform="translate(299,93)"/>
<path d="M0 0 C2.824 0.449 2.824 0.449 4.824 2.449 C5.364 6.303 5.065 8.051 3.031 11.406 C2.241 12.349 1.451 13.291 0.637 14.262 C-0.141 15.217 -0.918 16.172 -1.719 17.156 C-4.343 19.605 -5.621 20.337 -9.176 20.449 C-11.551 18.824 -11.551 18.824 -13.176 16.449 C-12.901 11.863 -10.802 9.157 -7.988 5.637 C-7.232 4.661 -6.475 3.685 -5.695 2.68 C-3.176 0.449 -3.176 0.449 0 0 Z " fill="#000000" transform="translate(491.17578125,117.55078125)"/>
<path d="M0 0 C6.211 3.434 11.281 9.229 13.438 16.035 C14.635 22.609 15.406 30.449 12.25 36.562 C9.682 39.671 7.45 41.575 3.875 43.438 C2.555 43.438 1.235 43.438 -0.125 43.438 C4.52 58.133 9.871 72.514 15.43 86.882 C15.708 87.601 15.986 88.32 16.272 89.061 C16.795 90.411 17.319 91.761 17.845 93.11 C19.297 96.854 20.636 100.618 21.875 104.438 C31.273 102.484 31.273 102.484 39.875 98.438 C40.205 97.447 40.535 96.457 40.875 95.438 C39.64 93.64 39.64 93.64 37.812 91.875 C34.418 88.199 32.005 84.447 29.531 80.117 C27.708 77.168 25.651 74.531 23.5 71.812 C19.922 67.133 17.07 62.393 14.438 57.125 C14.108 56.467 13.778 55.81 13.438 55.132 C11.43 50.977 10.026 46.907 8.875 42.438 C10.875 40.438 10.875 40.438 13.168 40.309 C17.438 42.089 18.939 45.599 21.188 49.5 C21.869 50.638 21.869 50.638 22.564 51.799 C23.683 53.67 24.785 55.549 25.875 57.438 C30.106 56.781 34.215 55.881 38.375 54.875 C55.558 51.24 73.96 53.788 88.875 63.438 C101.283 72.753 109.104 85.147 111.875 100.438 C113.367 117.137 111.68 131.462 101.875 145.438 C101.459 146.05 101.042 146.662 100.613 147.293 C93.574 156.53 81.737 162.97 70.875 166.438 C70.173 166.515 69.471 166.592 68.747 166.671 C64.067 167.231 64.067 167.231 60.539 170.088 C59.48 172.339 58.684 174.573 57.934 176.945 C57.636 177.786 57.338 178.627 57.031 179.493 C56.09 182.172 55.201 184.865 54.312 187.562 C53.682 189.385 53.049 191.207 52.412 193.027 C50.861 197.485 49.356 201.956 47.875 206.438 C48.414 206.609 48.954 206.781 49.51 206.958 C55.246 208.823 60.81 210.967 66.375 213.289 C67.272 213.66 68.169 214.032 69.093 214.414 C72.022 215.628 74.948 216.845 77.875 218.062 C79.929 218.914 81.984 219.766 84.038 220.617 C89.299 222.798 94.559 224.982 99.817 227.167 C107.208 230.238 114.599 233.304 121.991 236.37 C124.545 237.43 127.1 238.491 129.654 239.552 C137.166 242.67 144.682 245.777 152.219 248.836 C153.175 249.224 153.175 249.224 154.152 249.621 C157.045 250.794 159.94 251.964 162.837 253.129 C176.174 258.517 176.174 258.517 178.875 262.062 C181.458 270.78 175.768 280.725 171.875 288.438 C167.17 294.992 167.17 294.992 162.965 295.809 C158.556 295.945 155.391 295.437 151.492 293.332 C145.475 290.199 139.317 287.412 133.136 284.623 C129.485 282.976 125.836 281.322 122.188 279.668 C121.425 279.322 120.662 278.977 119.876 278.621 C114.492 276.178 109.118 273.715 103.75 271.238 C102.994 270.89 102.238 270.541 101.459 270.182 C99.927 269.475 98.395 268.768 96.863 268.061 C81.656 261.046 66.391 254.174 51.057 247.438 C50.327 247.116 49.597 246.794 48.845 246.462 C47.484 245.862 46.122 245.264 44.759 244.67 C41.938 243.424 39.451 242.155 36.875 240.438 C36.483 241.64 36.091 242.843 35.688 244.082 C33.554 250.479 31.208 256.798 28.875 263.125 C28.386 264.453 27.898 265.782 27.41 267.11 C26.399 269.861 25.387 272.612 24.375 275.362 C20.196 286.716 16.032 298.076 11.875 309.438 C11.631 310.105 11.387 310.772 11.135 311.459 C3.952 331.092 -3.102 350.765 -10 370.5 C-20.657 400.985 -31.824 431.273 -43.353 461.438 C-48.148 474.031 -52.648 486.729 -57.125 499.438 C-56.408 499.56 -55.691 499.683 -54.952 499.81 C-49.998 500.91 -45.464 503.068 -40.812 505.062 C-39.805 505.476 -38.798 505.89 -37.76 506.316 C-31.156 509.147 -23.503 512.681 -20.125 519.438 C-19.463 526.992 -21.614 533.492 -23.75 540.688 C-27.029 552.073 -29.782 563.433 -32.045 575.073 C-33.411 581.889 -35.281 588.09 -38.125 594.438 C-31.623 596.463 -25.077 598.3 -18.5 600.062 C-17.302 600.39 -17.302 600.39 -16.079 600.723 C-8.62 602.702 -1.429 603.589 6.312 603.688 C8.136 603.726 8.136 603.726 9.996 603.766 C18.338 603.06 24.52 599.823 31.188 594.938 C31.922 594.409 32.656 593.88 33.412 593.334 C40.035 588.48 46.008 583.178 51.875 577.438 C52.781 576.582 53.687 575.726 54.621 574.844 C63.62 566.757 63.62 566.757 68.117 556.016 C67.789 551.654 67.041 548.591 63.875 545.438 C60.534 544.04 57.215 542.904 53.768 541.814 C49.12 540.234 46.554 538.78 43.875 534.438 C42.588 529.804 42.689 526.612 44.699 522.213 C47.011 518.722 50.569 516.938 54.125 514.875 C54.961 514.369 55.798 513.863 56.659 513.341 C58.458 512.254 60.262 511.176 62.07 510.104 C64.873 508.439 67.657 506.746 70.438 505.043 C77.222 500.888 84.027 496.768 90.832 492.646 C105.065 484.022 119.24 475.316 133.215 466.277 C146.897 457.438 146.897 457.438 152.562 457.438 C156.383 458.591 158.237 459.423 160.875 462.438 C162.859 468.42 163.295 474.747 163.691 480.996 C163.783 482.302 163.783 482.302 163.877 483.634 C164.071 486.38 164.255 489.128 164.438 491.875 C164.625 494.647 164.814 497.42 165.008 500.191 C165.128 501.908 165.244 503.626 165.356 505.343 C165.555 509.524 165.555 509.524 166.875 513.438 C167.019 515.538 167.102 517.642 167.156 519.746 C167.193 521.041 167.23 522.336 167.268 523.671 C167.285 524.357 167.303 525.043 167.321 525.751 C167.412 529.308 167.516 532.865 167.621 536.422 C167.652 537.473 167.652 537.473 167.683 538.546 C167.845 543.913 168.112 549.266 168.438 554.625 C168.598 557.562 168.741 560.499 168.875 563.438 C168.936 564.739 168.936 564.739 168.999 566.067 C169.112 568.795 169.186 571.521 169.25 574.25 C169.288 575.081 169.326 575.912 169.365 576.768 C169.424 580.977 169.176 583.612 166.477 586.949 C162.996 590.278 160.7 591.004 155.832 590.996 C151.791 590.233 148.55 588.479 144.938 586.562 C135.311 581.266 135.311 581.266 124.598 580.898 C121.754 581.855 119.405 582.903 117.277 585.051 C115.875 586.438 115.875 586.438 113.875 586.438 C113.603 587.009 113.332 587.58 113.052 588.168 C106.25 601.281 96.219 613 85.875 623.438 C85.278 624.083 84.681 624.729 84.066 625.395 C62.461 648.401 31.322 664.425 0.875 671.438 C9.74 673.492 18.391 673.712 27.438 673.625 C28.888 673.619 30.338 673.613 31.788 673.608 C42.216 673.549 52.626 673.241 63.041 672.706 C64.036 672.657 65.03 672.609 66.055 672.559 C66.918 672.511 67.782 672.464 68.671 672.416 C70.875 672.438 70.875 672.438 73.875 673.438 C74.562 675.5 74.562 675.5 74.875 677.438 C66.389 682.713 55.257 681.637 45.562 682 C43.914 682.063 43.914 682.063 42.233 682.126 C34.442 682.409 26.672 682.654 18.875 682.438 C17.769 682.409 16.663 682.381 15.523 682.352 C8.805 682.033 2.414 681.069 -4.125 679.562 C-4.831 679.401 -5.537 679.24 -6.265 679.073 C-9.373 678.31 -12.03 677.492 -14.811 675.89 C-19.026 674.043 -22.42 674.022 -26.966 674.065 C-27.835 674.062 -28.704 674.058 -29.6 674.054 C-32.468 674.046 -35.335 674.06 -38.203 674.074 C-40.214 674.075 -42.225 674.074 -44.236 674.073 C-48.456 674.073 -52.676 674.083 -56.896 674.101 C-62.254 674.124 -67.613 674.125 -72.972 674.118 C-77.131 674.114 -81.291 674.121 -85.45 674.131 C-87.422 674.135 -89.395 674.136 -91.367 674.134 C-119.644 673.144 -119.644 673.144 -145.125 682.438 C-143.879 682.443 -142.633 682.449 -141.349 682.455 C-129.621 682.512 -117.893 682.585 -106.165 682.673 C-100.136 682.718 -94.106 682.757 -88.076 682.784 C-82.26 682.81 -76.444 682.85 -70.628 682.901 C-68.406 682.917 -66.184 682.929 -63.962 682.935 C-60.856 682.945 -57.751 682.973 -54.645 683.005 C-53.721 683.004 -52.797 683.002 -51.844 683.001 C-50.999 683.013 -50.153 683.026 -49.282 683.039 C-48.18 683.046 -48.18 683.046 -47.056 683.053 C-44.572 683.548 -43.647 684.446 -42.125 686.438 C-42.312 688.563 -42.312 688.563 -43.125 690.438 C-46.55 692.15 -50.48 691.585 -54.25 691.583 C-55.669 691.588 -55.669 691.588 -57.118 691.593 C-60.264 691.602 -63.409 691.604 -66.555 691.605 C-68.743 691.609 -70.931 691.612 -73.119 691.616 C-77.717 691.622 -82.316 691.623 -86.914 691.623 C-92.782 691.623 -98.651 691.636 -104.519 691.654 C-109.045 691.665 -113.572 691.667 -118.098 691.666 C-120.26 691.667 -122.421 691.672 -124.583 691.68 C-157.912 691.788 -157.912 691.788 -170.852 679.82 C-174.144 676.37 -176.875 672.59 -179.668 668.73 C-189.834 654.293 -189.834 654.293 -203.125 643.438 C-203.125 642.778 -203.125 642.117 -203.125 641.438 C-203.72 641.17 -204.314 640.902 -204.927 640.626 C-207.147 639.425 -208.549 638.23 -210.297 636.426 C-210.88 635.832 -211.462 635.239 -212.062 634.627 C-212.661 634.008 -213.259 633.388 -213.875 632.75 C-217.363 629.158 -220.839 625.634 -224.66 622.395 C-231.399 616.585 -237.546 610.12 -243.812 603.812 C-245.131 602.489 -246.449 601.166 -247.768 599.844 C-250.187 597.416 -252.606 594.987 -255.022 592.556 C-257.718 589.845 -260.42 587.14 -263.125 584.438 C-263.549 585.018 -263.973 585.598 -264.41 586.195 C-271.449 595.571 -277.829 600.705 -289.125 604.438 C-290.115 604.438 -291.105 604.438 -292.125 604.438 C-291.148 610.337 -289.946 613.754 -286.125 618.438 C-284.797 623.129 -284.92 626.76 -286.879 631.277 C-293.817 643.304 -308.791 654.479 -322.125 658.438 C-326.486 658.799 -327.679 658.746 -331.375 656.188 C-334.125 653.438 -334.125 653.438 -335.188 651.25 C-336.545 648.625 -338.419 648.427 -341.125 647.438 C-343.565 645.433 -344.096 644.524 -345.125 641.438 C-346.579 640.478 -346.579 640.478 -348.062 639.5 C-351.135 637.431 -351.906 636.77 -353.125 633.438 C-353.137 631.184 -353.137 631.184 -352.812 628.875 C-352.664 627.728 -352.664 627.728 -352.512 626.559 C-352.125 624.438 -352.125 624.438 -351.125 621.438 C-351.888 621.19 -352.651 620.942 -353.438 620.688 C-356.469 619.277 -357.633 618.421 -359.125 615.438 C-359.266 612.268 -358.856 610.326 -356.816 607.845 C-352.109 603.164 -347.063 599.198 -341.688 595.312 C-340.88 594.718 -340.072 594.124 -339.24 593.512 C-323.037 581.682 -323.037 581.682 -314.125 582.438 C-310.688 584.312 -310.688 584.312 -308.125 586.438 C-308.125 587.097 -308.125 587.758 -308.125 588.438 C-307.042 588.283 -307.042 588.283 -305.938 588.125 C-301.973 588.565 -300.66 590.48 -298.125 593.438 C-297.795 594.097 -297.465 594.758 -297.125 595.438 C-288.792 594.894 -281.727 591.631 -276.125 585.375 C-272.261 580.78 -272.261 580.78 -271.219 575.086 C-272.411 571.601 -274.415 568.957 -276.625 566.062 C-281.494 559.463 -285.732 552.641 -289.865 545.565 C-291.255 543.218 -292.679 540.894 -294.109 538.57 C-309.182 514.016 -317.713 489.167 -320.547 460.309 C-320.869 457.413 -320.869 457.413 -322.719 455.73 C-323.348 455.366 -323.977 455.001 -324.625 454.625 C-328.064 452.56 -328.064 452.56 -329.125 450.438 C-329.703 443.387 -329.703 443.387 -327.375 439.562 C-325.125 437.438 -325.125 437.438 -323.043 436.582 C-320.943 435.61 -320.943 435.61 -320.443 433.441 C-320.357 432.636 -320.272 431.83 -320.184 431 C-320.075 430.104 -319.966 429.208 -319.854 428.285 C-319.757 427.345 -319.661 426.406 -319.562 425.438 C-318.847 418.925 -317.865 412.924 -315.737 406.708 C-314.686 402.809 -314.806 399.249 -316.125 395.438 C-323.002 387.26 -335.034 384.951 -345.094 383.309 C-348.573 382.309 -349.954 381.307 -352.125 378.438 C-353.493 374.326 -353.432 370.513 -352.25 366.375 C-347.132 359.3 -339.91 354.459 -332.836 349.494 C-325.834 344.572 -319.08 339.336 -312.303 334.111 C-310.151 332.457 -307.991 330.815 -305.828 329.176 C-288.192 316.146 -288.192 316.146 -272.125 301.312 C-268.548 297.627 -265.337 295.066 -260.125 294.438 C-255.712 294.659 -252.865 295.866 -249.375 298.562 C-243.202 306.451 -240.251 316.584 -236.748 325.854 C-236.325 326.942 -235.901 328.031 -235.465 329.152 C-235.087 330.144 -234.709 331.135 -234.32 332.156 C-233.288 334.769 -233.288 334.769 -230.125 335.438 C-225.508 333.934 -224.084 330.435 -221.785 326.434 C-220.125 324.438 -220.125 324.438 -217.578 323.57 C-215.125 323.438 -215.125 323.438 -212.812 324.875 C-212.256 325.391 -211.699 325.906 -211.125 326.438 C-211.484 332.269 -213.2 335.484 -217.062 339.688 C-222.17 344.933 -222.17 344.933 -224.398 351.626 C-224.098 355.819 -223.102 359.472 -221.754 363.418 C-221.512 364.153 -221.27 364.889 -221.021 365.646 C-220.253 367.976 -219.471 370.3 -218.688 372.625 C-217.911 374.961 -217.137 377.299 -216.364 379.636 C-215.884 381.085 -215.401 382.533 -214.915 383.98 C-212.708 390.575 -211.14 396.438 -212.125 403.438 C-214.56 407.053 -216.151 408.151 -220.312 409.375 C-223.662 409.43 -225.981 409.078 -229.188 408.312 C-232.822 407.489 -233.907 407.362 -237.562 408.625 C-242.341 412.005 -243.639 414.306 -245.188 420.062 C-245.524 421.305 -245.86 422.548 -246.207 423.828 C-247.272 428.017 -248.249 432.205 -249.125 436.438 C-225.924 427.568 -205.503 414.87 -186.125 399.438 C-184.723 398.328 -184.723 398.328 -183.293 397.195 C-167.798 384.738 -152.545 370.781 -140.242 355.113 C-138.324 352.689 -136.332 350.347 -134.304 348.015 C-122.777 334.707 -112.653 320.224 -103.125 305.438 C-102.654 304.711 -102.182 303.984 -101.696 303.236 C-72.926 262.652 -72.926 262.652 -58.125 217.438 C-58.575 218.006 -59.025 218.574 -59.488 219.16 C-67.994 229.37 -78.309 235.883 -91.562 237.25 C-102.568 237.847 -111.424 234.859 -119.75 227.5 C-125.372 221.55 -129.935 212.521 -131.125 204.438 C-131.888 204.52 -132.651 204.602 -133.438 204.688 C-136.125 204.438 -136.125 204.438 -138.062 202.812 C-139.125 200.438 -139.125 200.438 -138.5 197.5 C-137.125 194.438 -137.125 194.438 -135.613 192.266 C-133.672 188.577 -133.337 185.231 -132.938 181.125 C-132.815 180.014 -132.815 180.014 -132.689 178.881 C-132.491 177.068 -132.306 175.253 -132.125 173.438 C-133.075 172.998 -134.025 172.558 -135.004 172.105 C-138.909 170.018 -139.781 168.628 -141.125 164.438 C-140.976 155.493 -137.589 147.484 -131.688 140.812 C-127.694 137.298 -124.349 137.172 -119.125 137.438 C-117.908 137.644 -116.691 137.85 -115.438 138.062 C-112.265 138.727 -112.265 138.727 -110.199 137.473 C-107.812 136.281 -106.274 136.2 -103.625 136.25 C-102.872 136.256 -102.119 136.263 -101.344 136.27 C-99.165 136.434 -97.223 136.841 -95.125 137.438 C-94.857 136.674 -94.589 135.911 -94.312 135.125 C-92.432 130.87 -92.432 130.87 -90.125 129.438 C-83.681 129.882 -83.681 129.882 -82.125 131.438 C-81.708 135.137 -81.803 136.936 -83.84 140.105 C-84.573 140.937 -85.307 141.768 -86.062 142.625 C-89.204 146.174 -89.204 146.174 -91.125 150.438 C-90.404 150.559 -89.684 150.681 -88.941 150.806 C-86.104 151.442 -83.724 152.36 -81.07 153.539 C-80.125 153.946 -79.181 154.354 -78.207 154.773 C-76.239 155.631 -74.276 156.498 -72.316 157.375 C-66.722 159.765 -63.061 161.139 -57.125 159.438 C-56.465 159.087 -55.805 158.736 -55.125 158.375 C-51.946 156.885 -49.585 157.02 -46.125 157.438 C-42.482 159.569 -40.702 160.787 -39.309 164.773 C-38.808 166.993 -38.447 169.187 -38.125 171.438 C-37.275 171.663 -37.275 171.663 -36.408 171.894 C-27.669 174.352 -19.524 178.024 -11.23 181.674 C-9.558 182.398 -9.558 182.398 -7.852 183.137 C-6.847 183.578 -5.842 184.02 -4.807 184.475 C-1.972 185.663 -1.972 185.663 1.875 185.438 C3.655 181.796 5.422 178.149 7.188 174.5 C7.687 173.478 8.187 172.457 8.701 171.404 C11.549 165.501 13.959 159.708 15.875 153.438 C15.194 152.984 14.514 152.53 13.812 152.062 C3.586 142.924 -1.012 130.281 -2.383 116.926 C-2.775 108.188 -1.06 97.032 3.699 89.582 C5.545 84.644 3.636 81.241 1.875 76.438 C1.452 75.162 1.034 73.885 0.62 72.606 C-0.555 68.989 -1.785 65.394 -3.039 61.804 C-3.557 60.303 -4.064 58.798 -4.559 57.289 C-7.056 48.633 -7.056 48.633 -12.268 41.647 C-14.654 40.467 -14.654 40.467 -18.125 39.438 C-18.455 38.447 -18.785 37.458 -19.125 36.438 C-19.723 36.169 -20.321 35.901 -20.938 35.625 C-24.907 33.47 -26.735 29.606 -28.125 25.438 C-28.271 23.17 -28.346 20.897 -28.375 18.625 C-28.401 17.422 -28.427 16.22 -28.453 14.98 C-27.864 8.614 -24.945 4.491 -20.125 0.438 C-13.223 -3.544 -7.144 -3.095 0 0 Z M-18.125 8.438 C-20.739 12.358 -21.084 15.775 -21.125 20.438 C-20.336 23.384 -20.336 23.384 -19.125 25.438 C-16.619 23.488 -14.321 21.666 -12.25 19.25 C-9.359 16.784 -6.842 16.723 -3.125 16.438 C-0.708 20.667 0.223 23.561 -0.125 28.438 C-1.053 28.108 -1.981 27.778 -2.938 27.438 C-6.045 26.288 -6.045 26.288 -9.125 26.438 C-10.445 28.748 -11.765 31.058 -13.125 33.438 C-8.817 36.669 -5.322 37.153 -0.125 36.438 C2.875 35.771 2.875 35.771 4.875 33.438 C7.234 27.593 7.329 22.378 4.992 16.547 C2.624 12.076 -0.217 8.534 -4.625 6 C-10.084 4.772 -13.582 5.03 -18.125 8.438 Z M84.875 71.438 C84.996 72.095 85.117 72.753 85.242 73.431 C92.85 115.488 92.85 115.488 84.125 132.938 C72.994 145.305 58.641 147.7 42.931 150.944 C40.828 151.367 40.828 151.367 38.875 152.438 C39.072 155.881 39.903 157.474 42 160.25 C47.316 164.279 54.628 163.098 60.875 162.438 C75.441 159.541 88.326 151.552 96.688 139.188 C104.28 126.522 106.662 112.888 103.25 98.562 C100.654 88.398 96.062 78.356 87.875 71.438 C86.885 71.438 85.895 71.438 84.875 71.438 Z M45.875 85.438 C45.598 88.472 45.598 88.472 47.375 90.688 C49.328 94.267 49.45 96.412 48.875 100.438 C43.387 107.813 34.374 110.139 25.875 112.438 C29.554 120.678 33.552 127.483 42.25 130.938 C51.516 133.769 58.246 132.775 66.875 128.438 C72.327 125.287 74.794 120.219 76.875 114.438 C78.163 107.799 76.361 102.113 72.875 96.438 C68.261 90.081 62.451 87.181 54.875 85.438 C51.78 85.165 48.989 85.233 45.875 85.438 Z M39.875 166.438 C38.674 169.349 37.489 172.266 36.312 175.188 C35.97 176.012 35.628 176.838 35.275 177.688 C34.956 178.487 34.637 179.286 34.309 180.109 C34.01 180.843 33.712 181.576 33.404 182.331 C32.785 184.795 32.967 186.081 33.875 188.438 C34.535 189.097 35.195 189.757 35.875 190.438 C40.163 190.438 43.073 188.35 46.16 185.594 C49.674 181.175 52.875 174.169 52.875 168.438 C48.585 167.778 44.295 167.118 39.875 166.438 Z M-120.609 180.652 C-124.273 185.639 -124.978 189.345 -124.125 195.438 C-122.295 206.4 -118.321 216.973 -109.391 224.062 C-103.272 227.776 -96.363 229.197 -89.305 228.004 C-76.679 224.723 -67.751 216.474 -61.125 205.438 C-60.76 204.113 -60.42 202.78 -60.125 201.438 C-69.658 196.888 -79.463 193.108 -89.312 189.312 C-90.929 188.686 -92.546 188.06 -94.162 187.434 C-99.629 185.315 -99.629 185.315 -105.104 183.215 C-106.499 182.678 -107.89 182.13 -109.277 181.573 C-115.039 178.938 -115.039 178.938 -120.609 180.652 Z M-34.125 195.438 C-34.166 197.104 -34.168 198.771 -34.125 200.438 C-31.549 201.807 -28.965 203.158 -26.375 204.5 C-25.645 204.89 -24.916 205.28 -24.164 205.682 C-23.455 206.046 -22.746 206.41 -22.016 206.785 C-21.366 207.126 -20.717 207.466 -20.048 207.817 C-17.705 208.573 -16.42 208.226 -14.125 207.438 C-13.795 206.118 -13.465 204.798 -13.125 203.438 C-17.915 199.127 -24.303 194.72 -30.875 194.234 C-33.094 194.192 -33.094 194.192 -34.125 195.438 Z M-44.125 208.438 C-44.32 208.969 -44.515 209.5 -44.717 210.048 C-49.338 222.564 -54.321 234.825 -59.954 246.919 C-61.135 249.458 -62.298 252.004 -63.461 254.551 C-81.853 294.412 -106.805 331.778 -136.722 363.917 C-138.112 365.424 -139.483 366.947 -140.848 368.477 C-147.226 375.6 -153.99 382.079 -161.125 388.438 C-161.981 389.22 -162.837 390.002 -163.719 390.809 C-184.221 409.526 -206.655 425.389 -231.125 438.438 C-231.747 438.774 -232.368 439.11 -233.009 439.456 C-242.645 444.648 -242.645 444.648 -248.125 444.438 C-250.573 446.885 -249.437 453.935 -249.44 457.379 C-249.178 474.891 -241.651 490.444 -230.125 503.438 C-227.252 500.765 -225.322 498.327 -223.566 494.824 C-222.873 493.463 -222.873 493.463 -222.167 492.075 C-221.678 491.101 -221.19 490.128 -220.688 489.125 C-216.366 480.678 -211.917 472.324 -207.25 464.062 C-206.727 463.131 -206.205 462.2 -205.666 461.241 C-194.731 441.973 -194.731 441.973 -187.125 439.438 C-179.607 438.71 -174.272 440.536 -167.393 443.473 C-164.587 444.666 -161.77 445.831 -158.953 446.996 C-153.004 449.461 -147.062 451.944 -141.125 454.438 C-140.307 452.544 -139.496 450.648 -138.688 448.75 C-138.235 447.694 -137.783 446.639 -137.316 445.551 C-136.271 442.818 -135.59 440.317 -135.125 437.438 C-132.815 437.107 -130.505 436.778 -128.125 436.438 C-128.881 442.245 -130.921 447.138 -133.164 452.512 C-134.452 455.451 -134.452 455.451 -133.125 458.438 C-130.714 459.875 -130.714 459.875 -127.812 461.062 C-126.847 461.488 -125.881 461.913 -124.887 462.352 C-122.617 463.244 -120.488 463.879 -118.125 464.438 C-113.008 454.473 -108.259 444.43 -103.913 434.106 C-102.302 430.28 -100.673 426.461 -99.047 422.641 C-98.717 421.865 -98.387 421.088 -98.048 420.289 C-94.834 412.732 -91.551 405.207 -88.25 397.688 C-87.677 396.38 -87.103 395.073 -86.53 393.766 C-85.65 391.759 -84.77 389.752 -83.889 387.746 C-80.183 379.295 -76.498 370.835 -72.812 362.375 C-72.097 360.733 -71.382 359.091 -70.666 357.45 C-67.366 349.878 -64.068 342.306 -60.77 334.734 C-53.588 318.245 -46.402 301.758 -39.148 285.301 C-35.433 276.871 -31.727 268.437 -28.022 260.003 C-27.228 258.196 -26.434 256.39 -25.64 254.583 C-23.799 250.397 -21.962 246.21 -20.134 242.018 C-18.85 239.077 -17.544 236.148 -16.213 233.228 C-15.925 232.585 -15.637 231.942 -15.34 231.279 C-14.579 229.581 -13.807 227.887 -13.034 226.194 C-12.021 223.573 -12.021 223.573 -12.077 221.237 C-13.801 218.278 -16.348 217.798 -19.496 216.641 C-20.134 216.402 -20.771 216.164 -21.428 215.918 C-23.468 215.159 -25.515 214.424 -27.562 213.688 C-28.939 213.177 -30.314 212.665 -31.689 212.152 C-37.762 209.557 -37.762 209.557 -44.125 208.438 Z M2.875 211.438 C0.603 213.252 0.603 213.252 0.805 215.863 C1.697 218.764 1.697 218.764 5.008 220.168 C6.331 220.674 7.662 221.159 9 221.625 C9.652 221.872 10.305 222.119 10.977 222.373 C19.741 225.945 19.741 225.945 28.875 225.438 C29.205 224.118 29.535 222.798 29.875 221.438 C27.095 219.182 24.591 217.788 21.215 216.613 C19.901 216.154 19.901 216.154 18.561 215.686 C17.654 215.377 16.747 215.068 15.812 214.75 C14.902 214.43 13.991 214.109 13.053 213.779 C8.079 211.997 8.079 211.997 2.875 211.438 Z M1.875 256.438 C-9.449 271.13 -14.119 291.921 -20.15 309.224 C-23.424 318.614 -26.745 327.982 -30.188 337.312 C-31.077 339.725 -31.966 342.138 -32.855 344.551 C-33.097 345.205 -33.338 345.86 -33.587 346.534 C-45.185 378.025 -56.623 409.573 -67.669 441.262 C-69.859 447.544 -72.057 453.822 -74.265 460.097 C-74.752 461.483 -75.239 462.868 -75.725 464.254 C-78.747 472.859 -81.851 481.43 -85.035 489.977 C-85.711 491.796 -86.386 493.615 -87.061 495.435 C-88.349 498.905 -89.652 502.369 -90.962 505.831 C-94.111 514.24 -96.869 522.64 -99.066 531.352 C-99.278 532.188 -99.489 533.024 -99.707 533.886 C-100.651 537.806 -101.396 541.373 -101.125 545.438 C-98.715 543.028 -98.207 541.182 -97.129 537.953 C-96.547 536.232 -96.547 536.232 -95.953 534.477 C-95.536 533.226 -95.118 531.976 -94.688 530.688 C-93.786 528.024 -92.878 525.364 -91.969 522.703 C-91.618 521.676 -91.618 521.676 -91.26 520.627 C-88.829 513.53 -86.276 506.479 -83.688 499.438 C-83.46 498.819 -83.233 498.2 -82.998 497.562 C-79.135 487.066 -75.162 476.614 -71.169 466.167 C-68.555 459.303 -66.038 452.415 -63.612 445.482 C-54.532 419.538 -44.015 394.124 -33.307 368.817 C-29.716 360.328 -26.273 351.805 -23.062 343.165 C-21.384 338.669 -19.633 334.222 -17.758 329.805 C-11.36 314.685 -5.853 299.352 -0.562 283.812 C-0.029 282.253 -0.029 282.253 0.514 280.662 C1.538 277.659 2.554 274.655 3.566 271.648 C3.871 270.752 4.176 269.857 4.49 268.933 C6.31 263.48 7.718 258.07 8.875 252.438 C5.52 252.438 4.279 254.143 1.875 256.438 Z M15.875 253.438 C15.548 254.418 15.221 255.399 14.885 256.409 C14.667 257.063 14.449 257.716 14.224 258.39 C13.732 259.868 13.239 261.345 12.747 262.823 C11.379 266.929 10.009 271.034 8.637 275.138 C5.21 285.385 5.21 285.385 1.871 295.66 C-1.284 305.486 -4.914 314.986 -8.957 324.482 C-12.731 333.374 -16.222 342.36 -19.688 351.375 C-24.853 364.799 -30.262 378.106 -35.812 391.375 C-45.719 415.092 -54.684 439.099 -63.36 463.289 C-66.501 472.031 -69.739 480.724 -73.125 489.375 C-77.917 501.63 -82.263 514.032 -86.572 526.463 C-86.834 527.217 -87.096 527.971 -87.366 528.748 C-87.88 530.228 -88.393 531.707 -88.904 533.188 C-90.083 536.576 -91.302 539.933 -92.658 543.255 C-93.359 544.976 -93.359 544.976 -94.074 546.73 C-94.494 547.719 -94.914 548.708 -95.346 549.727 C-96.211 552.739 -95.997 554.463 -95.125 557.438 C-92.108 557.714 -90.494 557.652 -87.844 556.109 C-87.112 555.475 -86.379 554.841 -85.625 554.188 C-84.893 553.584 -84.161 552.981 -83.406 552.359 C-77.098 544.279 -74.854 533.534 -72.188 523.812 C-62.882 490.747 -51.21 458.429 -38.949 426.362 C-32.119 408.497 -25.512 390.566 -19.067 372.558 C-16.918 366.556 -14.759 360.557 -12.598 354.559 C-12.362 353.903 -12.125 353.248 -11.882 352.572 C-7.618 340.742 -3.251 328.953 1.188 317.188 C1.792 315.582 2.396 313.977 3 312.372 C5.103 306.785 7.207 301.198 9.324 295.615 C18.078 276.029 18.078 276.029 18.926 255.516 C18.579 254.83 18.232 254.144 17.875 253.438 C17.215 253.438 16.555 253.438 15.875 253.438 Z M155 268.062 C152.294 272.361 151.884 275.482 152.875 280.438 C154.136 283.139 155.754 285.317 157.875 287.438 C159.541 287.478 161.209 287.48 162.875 287.438 C164.198 284.901 165.508 282.359 166.812 279.812 C167.186 279.1 167.559 278.387 167.943 277.652 C170.023 273.568 171.415 270.067 171.875 265.438 C165.672 260.121 160.464 263.074 155 268.062 Z M-265.125 308.438 C-265.346 310.724 -265.346 310.724 -264.938 313.188 C-264.821 314.067 -264.705 314.946 -264.586 315.852 C-263.997 319.154 -263.165 322.249 -262.125 325.438 C-262.672 325.666 -263.218 325.894 -263.781 326.129 C-266.826 327.829 -269.08 329.99 -271.625 332.375 C-272.699 333.374 -273.773 334.372 -274.848 335.371 C-275.94 336.393 -277.033 337.415 -278.125 338.438 C-281.596 341.67 -285.084 344.883 -288.604 348.062 C-289.614 348.976 -290.622 349.893 -291.626 350.812 C-300.669 359.045 -310.551 365.33 -321.125 371.438 C-316.063 364.989 -310.359 359.593 -304.16 354.254 C-302.066 352.385 -300.094 350.437 -298.125 348.438 C-295.626 345.899 -293.087 343.496 -290.375 341.188 C-275.746 329.423 -275.746 329.423 -268.125 313.438 C-272.728 314.926 -276.03 317.573 -279.688 320.625 C-285.604 325.459 -291.623 330.123 -297.75 334.688 C-304.93 340.039 -312.074 345.435 -319.188 350.875 C-325.449 355.663 -331.727 360.405 -338.164 364.957 C-341.974 367.723 -341.974 367.723 -343.562 371.938 C-343.36 374.493 -343.36 374.493 -341.598 375.98 C-333.752 380.604 -321.645 381.341 -312.941 379.34 C-291.477 372.463 -276.997 353.437 -263.523 336.414 C-262.432 335.054 -261.286 333.739 -260.125 332.438 C-259.465 332.438 -258.805 332.438 -258.125 332.438 C-254.449 342.833 -251.6 352.609 -250.672 363.656 C-250.591 364.614 -250.51 365.572 -250.427 366.558 C-250.271 368.47 -250.127 370.382 -249.997 372.295 C-249.349 380.669 -248.024 390.085 -242.125 396.438 C-237.182 399.16 -231.832 401.412 -226.125 400.438 C-224.086 399.566 -224.086 399.566 -223.125 397.438 C-222.659 391.023 -223.874 386.263 -226.133 380.297 C-226.45 379.428 -226.768 378.56 -227.095 377.664 C-228.133 374.834 -229.191 372.011 -230.25 369.188 C-230.976 367.227 -231.702 365.267 -232.427 363.307 C-234.279 358.313 -236.15 353.328 -238.029 348.345 C-239.087 345.538 -240.14 342.729 -241.192 339.92 C-242.774 335.702 -244.37 331.49 -245.979 327.283 C-246.573 325.728 -247.164 324.172 -247.752 322.614 C-248.569 320.457 -249.399 318.306 -250.234 316.156 C-250.698 314.949 -251.162 313.742 -251.64 312.498 C-253.134 309.419 -254.48 307.585 -257.125 305.438 C-261.011 304.774 -262.757 305.301 -265.125 308.438 Z M-56.125 363.438 C-59.378 367.168 -60.904 371.455 -62.688 376 C-63.29 377.523 -63.895 379.046 -64.504 380.566 C-64.768 381.237 -65.031 381.908 -65.303 382.6 C-66.125 384.438 -66.125 384.438 -68.125 387.438 C-67.817 389.59 -67.817 389.59 -67.125 391.438 C-65.805 391.767 -64.485 392.098 -63.125 392.438 C-57.016 384.313 -51.594 374.863 -52.125 364.438 C-53.445 364.108 -54.765 363.777 -56.125 363.438 Z M-269.125 367.438 C-271.194 372.09 -272.916 376.684 -274.395 381.566 C-274.596 382.23 -274.798 382.893 -275.006 383.576 C-275.654 385.716 -276.297 387.858 -276.938 390 C-277.158 390.733 -277.378 391.466 -277.605 392.221 C-288.037 419.132 -288.037 419.132 -289.125 446.438 C-287.11 447.171 -287.11 447.171 -285.125 447.438 C-283.09 444.384 -282.682 442.296 -282.136 438.738 C-279.812 423.775 -275.111 409.452 -270.669 395.016 C-269.482 391.158 -268.301 387.298 -267.125 383.438 C-266.771 382.278 -266.416 381.118 -266.051 379.923 C-265.768 378.951 -265.484 377.978 -265.191 376.977 C-264.837 375.777 -264.837 375.777 -264.475 374.553 C-264.086 372.203 -264.384 370.682 -265.125 368.438 C-266.445 368.108 -267.765 367.777 -269.125 367.438 Z M-76.125 414.438 C-76.51 415.371 -76.51 415.371 -76.902 416.324 C-79.833 423.399 -82.814 430.453 -85.812 437.5 C-86.401 438.893 -86.401 438.893 -87.002 440.313 C-87.376 441.191 -87.751 442.068 -88.137 442.973 C-88.471 443.76 -88.806 444.548 -89.151 445.36 C-90.125 447.438 -90.125 447.438 -92.125 450.438 C-91.817 452.59 -91.817 452.59 -91.125 454.438 C-89.805 454.767 -88.485 455.097 -87.125 455.438 C-82.844 450.789 -80.599 445.392 -78.062 439.688 C-77.629 438.736 -77.195 437.785 -76.748 436.805 C-71.33 426.463 -71.33 426.463 -71.125 415.438 C-72.775 415.108 -74.425 414.777 -76.125 414.438 Z M-189.617 448.023 C-192.288 450.528 -193.609 453.103 -195.125 456.438 C-195.125 457.428 -195.125 458.418 -195.125 459.438 C-193.423 459.314 -193.423 459.314 -191.688 459.188 C-186.438 459.224 -182.737 461.076 -178.125 463.438 C-175.481 464.774 -172.834 466.106 -170.188 467.438 C-169.494 467.787 -168.801 468.136 -168.087 468.496 C-158.542 473.571 -158.542 473.571 -148.125 475.438 C-147.424 473.693 -146.74 471.941 -146.062 470.188 C-145.68 469.213 -145.297 468.238 -144.902 467.234 C-144.063 464.213 -143.815 463.241 -145.125 460.438 C-147.929 458.695 -147.929 458.695 -151.469 457.273 C-152.433 456.856 -152.433 456.856 -153.418 456.431 C-154.783 455.844 -156.152 455.264 -157.523 454.691 C-159.596 453.824 -161.658 452.934 -163.719 452.039 C-176.625 445.6 -176.625 445.6 -189.617 448.023 Z M-265.125 451.438 C-269.585 464.988 -263.201 482.759 -257.523 494.848 C-253.813 502.091 -249.411 508.274 -244.125 514.438 C-243.166 515.646 -242.208 516.854 -241.25 518.062 C-240.549 518.846 -239.847 519.63 -239.125 520.438 C-238.465 520.438 -237.805 520.438 -237.125 520.438 C-236.444 519.386 -235.764 518.334 -235.062 517.25 C-234.68 516.658 -234.297 516.067 -233.902 515.457 C-232.838 512.693 -233.187 511.227 -234.125 508.438 C-235.685 506.401 -235.685 506.401 -237.688 504.5 C-252.352 488.601 -255.902 469.331 -257.125 448.438 C-260.957 448.438 -262.255 448.869 -265.125 451.438 Z M-280.812 455 C-285.362 459.796 -285.521 464.993 -285.367 471.332 C-283.465 495.721 -268.95 519.278 -250.949 535.402 C-249.551 536.41 -249.551 536.41 -248.125 537.438 C-245.009 536.771 -245.009 536.771 -243.957 534.371 C-243.621 533.547 -243.284 532.724 -242.938 531.875 C-242.593 531.049 -242.249 530.222 -241.895 529.371 C-241.641 528.733 -241.387 528.095 -241.125 527.438 C-241.67 526.939 -242.216 526.44 -242.777 525.926 C-263.395 506.295 -271.173 482.152 -273.125 454.438 C-277.099 453.333 -277.099 453.333 -280.812 455 Z M-199.125 464.438 C-204.541 473.954 -209.862 483.523 -215.125 493.125 C-215.701 494.164 -216.277 495.203 -216.87 496.273 C-217.408 497.26 -217.946 498.246 -218.5 499.262 C-218.982 500.139 -219.464 501.017 -219.961 501.921 C-221.128 504.445 -221.702 506.698 -222.125 509.438 C-220.475 510.097 -218.825 510.758 -217.125 511.438 C-210.058 495.92 -203.019 480.448 -197.125 464.438 C-197.785 464.438 -198.445 464.438 -199.125 464.438 Z M-137.125 464.438 C-137.992 466.85 -138.844 469.267 -139.688 471.688 C-139.934 472.369 -140.181 473.051 -140.436 473.754 C-141.729 477.506 -142.196 479.676 -141.125 483.438 C-140.434 490.075 -141.711 495.045 -144.441 501.051 C-144.944 502.216 -144.944 502.216 -145.458 503.405 C-146.519 505.86 -147.601 508.306 -148.688 510.75 C-149.776 513.213 -150.859 515.678 -151.928 518.149 C-152.591 519.68 -153.265 521.206 -153.951 522.726 C-155.567 526.445 -156.442 528.584 -155.125 532.438 C-153.843 535.186 -153.843 535.186 -152.125 537.438 C-151.135 537.438 -150.145 537.438 -149.125 537.438 C-142.476 522.734 -135.882 508.009 -129.5 493.188 C-129.004 492.042 -128.508 490.896 -127.997 489.716 C-125.416 483.691 -123.091 477.691 -121.125 471.438 C-122.664 470.641 -124.206 469.85 -125.75 469.062 C-127.038 468.401 -127.038 468.401 -128.352 467.727 C-131.224 466.391 -134.105 465.385 -137.125 464.438 Z M-298.125 479.438 C-300.473 481.36 -300.473 481.36 -300.438 484.75 C-300.107 488.647 -299.65 490.477 -297.125 493.438 C-294.534 494.324 -294.534 494.324 -292.125 494.438 C-290.416 492.859 -290.416 492.859 -289.125 490.438 C-289.196 486.468 -289.554 484.205 -291.938 481 C-294.219 479.05 -294.219 479.05 -298.125 479.438 Z M137.875 488.438 C134.916 496.75 131.875 505.553 131.875 514.438 C133.855 514.768 135.835 515.097 137.875 515.438 C140.39 506.771 142.498 498.513 142.875 489.438 C141.225 489.108 139.575 488.777 137.875 488.438 Z M-60.125 505.438 C-62.579 512.247 -65.033 519.056 -67.486 525.866 C-68.318 528.175 -69.15 530.484 -69.982 532.793 C-71.972 538.313 -73.959 543.835 -75.938 549.359 C-77.303 553.164 -78.684 556.963 -80.085 560.754 C-80.374 561.545 -80.663 562.336 -80.96 563.151 C-81.485 564.589 -82.017 566.024 -82.557 567.456 C-84.002 571.382 -84.002 571.382 -83.125 575.438 C-80.651 576.637 -78.251 577.654 -75.688 578.625 C-74.142 579.23 -72.598 579.838 -71.055 580.449 C-69.846 580.928 -69.846 580.928 -68.612 581.416 C-66.088 582.453 -63.61 583.563 -61.133 584.707 C-60.326 585.079 -59.52 585.45 -58.689 585.833 C-57.127 586.559 -55.569 587.293 -54.016 588.036 C-50.178 589.887 -50.178 589.887 -46.017 590.303 C-43.972 589.583 -43.972 589.583 -43 587.562 C-39.987 578.713 -38.045 569.696 -36.125 560.562 C-34.09 550.925 -32.019 541.445 -28.92 532.083 C-27.734 528.137 -27.395 525.523 -28.125 521.438 C-33.325 515.965 -40.089 513.531 -46.938 510.625 C-48.094 510.123 -49.251 509.621 -50.443 509.104 C-55.128 506.662 -55.128 506.662 -60.125 505.438 Z M-283.125 513.438 C-284.415 515.704 -284.415 515.704 -285.125 518.438 C-283.861 520.763 -283.861 520.763 -282.125 522.438 C-278.834 522.058 -278.834 522.058 -276.125 520.438 C-276.084 518.438 -276.082 516.437 -276.125 514.438 C-278.435 514.107 -280.745 513.778 -283.125 513.438 Z M-227.125 515.438 C-228.775 519.067 -230.425 522.697 -232.125 526.438 C-221.801 533.011 -211.367 538.219 -200.062 542.875 C-196.985 544.16 -193.91 545.453 -190.836 546.746 C-190.086 547.06 -189.337 547.374 -188.565 547.698 C-181.118 550.83 -173.789 554.203 -166.521 557.732 C-165.721 558.109 -164.922 558.486 -164.098 558.875 C-163.42 559.204 -162.742 559.532 -162.043 559.871 C-159.718 560.558 -158.39 560.21 -156.125 559.438 C-155.465 557.128 -154.805 554.817 -154.125 552.438 C-167.381 545.162 -180.956 538.663 -194.677 532.324 C-205.77 527.182 -216.634 521.732 -227.125 515.438 Z M128.875 521.438 C128.462 522.263 128.05 523.087 127.625 523.938 C126.724 525.74 125.823 527.542 124.919 529.343 C123.254 532.664 121.602 535.99 119.98 539.332 C116.022 547.438 111.776 555.233 106.936 562.855 C104.486 566.483 104.486 566.483 104.262 570.659 C104.464 571.246 104.667 571.833 104.875 572.438 C106.195 572.768 107.515 573.097 108.875 573.438 C117.226 561.828 123.81 548.949 129.938 536.062 C130.319 535.26 130.701 534.458 131.095 533.631 C132.678 530.243 134.055 527.1 134.875 523.438 C132.895 522.778 130.915 522.117 128.875 521.438 Z M-277.062 529.562 C-278.723 532.492 -277.996 534.229 -277.125 537.438 C-275.581 539.916 -273.74 542.063 -271.812 544.25 C-271.326 544.835 -270.839 545.419 -270.338 546.021 C-267.756 549.02 -266.068 550.855 -262.125 551.438 C-259.875 550.938 -259.875 550.938 -258.125 549.438 C-257.142 547.163 -257.142 547.163 -257.125 544.438 C-258.603 541.613 -258.603 541.613 -260.812 538.938 C-261.518 538.02 -262.223 537.102 -262.949 536.156 C-263.667 535.259 -264.385 534.362 -265.125 533.438 C-265.811 532.509 -266.497 531.581 -267.203 530.625 C-268.987 528.127 -268.987 528.127 -272.188 527.938 C-275.064 528.251 -275.064 528.251 -277.062 529.562 Z M-235.125 532.438 C-235.967 533.703 -236.798 534.975 -237.625 536.25 C-238.089 536.958 -238.553 537.665 -239.031 538.395 C-240.361 540.492 -240.361 540.492 -240.125 543.438 C-230.781 548.569 -221.352 553.278 -211.605 557.594 C-188.716 567.75 -166.363 578.886 -144.469 591.047 C-143.021 591.844 -141.573 592.641 -140.125 593.438 C-139.104 594 -138.083 594.562 -137.031 595.141 C-134.056 596.575 -134.056 596.575 -130.39 597.333 C-126.386 598.307 -122.751 599.74 -118.977 601.414 C-118.326 601.701 -117.675 601.988 -117.004 602.283 C-115.625 602.891 -114.247 603.503 -112.871 604.117 C-110.728 605.072 -108.582 606.019 -106.434 606.963 C-100.333 609.652 -94.246 612.365 -88.199 615.176 C-86.961 615.746 -86.961 615.746 -85.699 616.328 C-84.24 617.003 -82.787 617.69 -81.34 618.391 C-77.542 620.149 -75.151 620.8 -71.125 619.438 C-70.265 617.145 -70.265 617.145 -70.125 614.438 C-72.74 611.304 -75.452 609.539 -79.098 607.773 C-80.069 607.297 -81.041 606.82 -82.042 606.329 C-83.599 605.578 -83.599 605.578 -85.188 604.812 C-87.385 603.735 -89.582 602.655 -91.777 601.574 C-93.405 600.774 -93.405 600.774 -95.066 599.958 C-99.167 597.919 -103.211 595.784 -107.25 593.625 C-136.401 578.15 -166.216 564.14 -196.586 551.227 C-223.199 539.901 -223.199 539.901 -233.125 533.438 C-233.785 533.107 -234.445 532.778 -235.125 532.438 Z M-148.125 556.438 C-149.115 560.398 -149.115 560.398 -150.125 564.438 C-148.047 565.615 -145.963 566.779 -143.875 567.938 C-143.288 568.271 -142.702 568.605 -142.098 568.949 C-138.739 570.798 -137.059 571.438 -133.125 571.438 C-132.795 569.457 -132.465 567.477 -132.125 565.438 C-139.535 559.8 -139.535 559.8 -148.125 556.438 Z M83.199 587.688 C82.659 588.265 82.119 588.842 81.562 589.438 C80.962 590.074 80.361 590.711 79.742 591.367 C79.126 592.05 78.51 592.734 77.875 593.438 C77.259 594.121 76.643 594.804 76.008 595.508 C74.811 596.859 73.625 598.221 72.453 599.594 C71.151 601.115 69.8 602.595 68.438 604.062 C66.457 607.073 66.404 608.902 66.875 612.438 C68.741 614.683 68.741 614.683 71.625 614.938 C76.123 614.245 78.066 611.758 80.875 608.438 C81.395 607.844 81.916 607.25 82.452 606.639 C83.945 604.92 85.412 603.182 86.875 601.438 C87.583 600.623 88.29 599.808 89.02 598.969 C92.147 595.23 92.147 595.23 92.938 590.562 C91.936 588.12 91.936 588.12 88.875 586.438 C85.061 586.039 85.061 586.039 83.199 587.688 Z M-324.031 590.746 C-325.139 591.49 -325.139 591.49 -326.269 592.248 C-327.047 592.785 -327.824 593.322 -328.625 593.875 C-329.424 594.418 -330.222 594.96 -331.045 595.519 C-342.891 603.061 -342.891 603.061 -353.125 612.438 C-352.897 614.6 -352.897 614.6 -352.125 616.438 C-348.202 616.213 -347.164 615.478 -344.375 612.562 C-342.02 609.619 -342.02 609.619 -341.125 606.438 C-340.795 607.097 -340.465 607.758 -340.125 608.438 C-336.8 607.816 -334.664 606.616 -331.938 604.637 C-331.156 604.071 -330.375 603.506 -329.57 602.924 C-328.763 602.33 -327.956 601.737 -327.125 601.125 C-325.915 600.252 -325.915 600.252 -324.68 599.361 C-320.896 596.604 -317.288 593.919 -314.125 590.438 C-314.785 589.778 -315.445 589.117 -316.125 588.438 C-320.206 588.438 -320.874 588.605 -324.031 590.746 Z M-308.125 594.438 C-310.252 595.682 -312.143 596.985 -314.125 598.438 C-315.729 599.542 -317.333 600.646 -318.938 601.75 C-334.779 612.229 -334.779 612.229 -345.125 627.438 C-345.378 630.189 -345.378 630.189 -345.125 632.438 C-344.465 632.768 -343.805 633.097 -343.125 633.438 C-342.038 632.607 -340.951 631.776 -339.863 630.945 C-338.812 630.142 -338.812 630.142 -337.74 629.323 C-336.194 628.141 -334.649 626.958 -333.104 625.775 C-329.528 623.035 -325.949 620.3 -322.348 617.594 C-311.557 610.001 -311.557 610.001 -304.125 599.438 C-304.191 597.254 -304.191 597.254 -305.125 595.438 C-306.115 595.107 -307.105 594.778 -308.125 594.438 Z M-305.875 611.5 C-306.588 612.145 -307.301 612.789 -308.035 613.453 C-309.85 615.176 -311.585 616.941 -313.312 618.75 C-320.329 625.895 -328.935 631.723 -337.125 637.438 C-336.465 638.758 -335.805 640.077 -335.125 641.438 C-330.985 641.438 -330.393 641.275 -327.254 639.016 C-326.52 638.49 -325.787 637.965 -325.031 637.424 C-324.258 636.851 -323.484 636.278 -322.688 635.688 C-321.494 634.811 -321.494 634.811 -320.277 633.918 C-315.216 630.142 -310.316 626.228 -305.625 622 C-305.092 621.529 -304.559 621.058 -304.01 620.573 C-300.717 617.496 -299.069 614.853 -298.125 610.438 C-298.62 609.447 -298.62 609.447 -299.125 608.438 C-302.763 608.438 -303.256 609.116 -305.875 611.5 Z M-294.125 620.438 C-295.448 621.823 -296.758 623.222 -298.062 624.625 C-306.909 633.599 -317.637 640.524 -328.125 647.438 C-327.795 648.428 -327.465 649.418 -327.125 650.438 C-315.779 649.944 -305.301 640.795 -297.125 633.438 C-294.108 629.486 -292.494 625.487 -293.125 620.438 C-293.455 620.438 -293.785 620.438 -294.125 620.438 Z M-42.125 626.438 C-42.792 629.395 -42.792 629.395 -42.125 632.438 C-38.052 635.594 -33.483 636.605 -28.562 637.75 C-27.808 637.944 -27.053 638.138 -26.275 638.338 C-23.155 639.077 -20.773 639.634 -17.66 638.691 C-15.921 637.47 -15.921 637.47 -15.125 635.062 C-14.861 632.363 -14.861 632.363 -16.66 630.414 C-19.738 627.946 -22.801 627.085 -26.562 626.188 C-27.218 626.015 -27.873 625.842 -28.549 625.664 C-35.661 623.813 -35.661 623.813 -42.125 626.438 Z M33.188 627.625 C32.029 628.031 30.87 628.437 29.676 628.855 C26.695 630.168 26.695 630.168 25.793 632.926 C25.659 635.446 25.659 635.446 27.051 637.25 C29.954 639.14 32.13 638.578 35.445 638.078 C39.46 637.02 42.856 635.312 45.875 632.438 C46.71 629.805 46.71 629.805 45.875 627.438 C45.215 626.778 44.555 626.117 43.875 625.438 C39.694 625.438 37.091 626.204 33.188 627.625 Z M0 634.875 C-0.371 635.391 -0.743 635.906 -1.125 636.438 C-0.5 638.961 -0.5 638.961 0.875 641.438 C3.423 642.331 3.423 642.331 5.875 642.438 C7.523 640.685 7.523 640.685 8.875 638.438 C8.658 636.229 8.658 636.229 7.875 634.438 C3.698 633.2 3.698 633.2 0 634.875 Z M-138.125 613.438 C-139.839 616.081 -139.839 616.081 -141.188 619.375 C-141.603 620.309 -141.603 620.309 -142.026 621.261 C-143.078 623.646 -144.101 626.041 -145.125 628.438 C-145.871 630.164 -146.618 631.89 -147.365 633.616 C-156.243 650.937 -156.243 650.937 -159.125 669.438 C-157.255 671.869 -155.844 673.078 -153.125 674.438 C-147.64 674.7 -143.314 674.157 -138 672.625 C-121.039 668.032 -103.744 666.997 -86.254 666.996 C-84.348 666.984 -82.443 666.971 -80.537 666.956 C-75.59 666.92 -70.643 666.9 -65.695 666.885 C-57.758 666.859 -49.821 666.819 -41.884 666.763 C-39.148 666.747 -36.413 666.743 -33.677 666.74 C-20.621 666.685 -7.804 665.916 4.812 662.25 C5.558 662.037 6.303 661.824 7.071 661.605 C22.157 657.114 37.288 650.235 48.875 639.438 C48.608 637.453 48.608 637.453 47.875 635.438 C44.858 634.067 44.858 634.067 41.934 635.66 C40.724 636.268 39.517 636.882 38.312 637.5 C9.469 651.505 -21.011 653.281 -52.586 651.965 C-53.709 651.918 -54.832 651.872 -55.989 651.823 C-60.667 651.627 -65.345 651.427 -70.022 651.217 C-94.243 650.137 -115.718 650.083 -138.125 660.438 C-137.106 657.499 -136.085 654.562 -135.062 651.625 C-134.752 650.73 -134.441 649.834 -134.121 648.911 C-132.508 644.291 -130.858 639.693 -129.102 635.125 C-128.781 634.284 -128.46 633.444 -128.129 632.577 C-127.516 630.98 -126.893 629.386 -126.26 627.796 C-124.497 623.186 -123.698 619.456 -124.125 614.438 C-125.734 611.756 -126.995 611.477 -130 610.562 C-133.849 610.409 -135.072 611.139 -138.125 613.438 Z " fill="#000000" transform="translate(519.125,74.5625)"/>
<path d="M0 0 C2.562 0.375 2.562 0.375 4.438 2.062 C5.921 5.112 5.576 6.145 4.562 9.375 C3.022 11.744 1.486 13.914 -0.25 16.125 C-0.689 16.714 -1.128 17.303 -1.58 17.91 C-4.837 22.121 -4.837 22.121 -7.625 23.301 C-10.224 23.407 -11.391 22.998 -13.438 21.375 C-14.352 18.707 -14.352 18.707 -14.438 15.375 C-12.914 12.841 -11.511 10.846 -9.625 8.625 C-9.16 8.049 -8.696 7.473 -8.217 6.879 C-3.004 0.462 -3.004 0.462 0 0 Z " fill="#000000" transform="translate(472.4375,144.625)"/>
<path d="M0 0 C3.625 0.375 3.625 0.375 7 1 C7.766 3.613 7.766 3.613 8 7 C6.234 10.105 6.234 10.105 3.75 13.188 C2.94 14.212 2.131 15.237 1.297 16.293 C-2.579 20.861 -2.579 20.861 -4 22 C-9.435 21.565 -9.435 21.565 -11 20 C-11.443 15.781 -11.387 13.615 -9.102 9.98 C-8.284 9.059 -7.467 8.137 -6.625 7.188 C-5.813 6.253 -5.001 5.318 -4.164 4.355 C-2.805 2.876 -1.42 1.42 0 0 Z " fill="#000000" transform="translate(450,174)"/>
<path d="M0 0 C2.312 -0.25 2.312 -0.25 5 0 C6.812 2 6.812 2 8 4 C7.34 5.32 6.68 6.64 6 8 C4.334 8.043 2.666 8.041 1 8 C0 7 0 7 -0.062 3.438 C-0.042 2.303 -0.021 1.169 0 0 Z " fill="#000000" transform="translate(208,203)"/>
<path d="M0 0 C0.495 2.475 0.495 2.475 1 5 C0.537 5.352 0.075 5.704 -0.402 6.066 C-9.01 12.619 -17.604 19.176 -26 26 C-27.199 26.973 -28.398 27.945 -29.598 28.918 C-35.231 33.49 -40.86 38.069 -46.48 42.656 C-47.206 43.248 -47.932 43.839 -48.679 44.448 C-50.074 45.585 -51.467 46.723 -52.86 47.862 C-53.805 48.632 -53.805 48.632 -54.77 49.418 C-55.322 49.869 -55.875 50.321 -56.445 50.786 C-57.91 51.929 -59.454 52.969 -61 54 C-63.688 53.625 -63.688 53.625 -66 53 C-66.258 50.758 -66.258 50.758 -66 48 C-64.305 45.93 -64.305 45.93 -61.875 43.875 C-60.504 42.707 -60.504 42.707 -59.105 41.516 C-55.229 38.376 -51.322 35.28 -47.38 32.224 C-43.389 29.125 -39.515 25.922 -35.688 22.625 C-30.607 18.266 -25.379 14.129 -20.062 10.062 C-19.352 9.519 -18.642 8.975 -17.911 8.415 C-6.07 -0.578 -6.07 -0.578 0 0 Z " fill="#000000" transform="translate(199,214)"/>
<path d="M0 0 C1.207 0.031 1.207 0.031 2.438 0.062 C2.166 7.098 -1.084 11.862 -4.812 17.688 C-5.386 18.616 -5.96 19.544 -6.551 20.5 C-9.498 25.185 -12.292 29.499 -16.562 33.062 C-18.812 33.062 -18.812 33.062 -20.562 32.062 C-20.893 31.072 -21.222 30.083 -21.562 29.062 C-20.171 26.469 -18.736 24.077 -17.125 21.625 C-16.671 20.917 -16.216 20.209 -15.748 19.48 C-14.365 17.333 -12.966 15.197 -11.562 13.062 C-11.151 12.433 -10.739 11.804 -10.315 11.156 C-3.055 0.075 -3.055 0.075 0 0 Z " fill="#000000" transform="translate(692.5625,215.9375)"/>
<path d="M0 0 C2 3 2 3 1.867 5.305 C0.78 8.683 -0.872 11.198 -2.875 14.125 C-3.923 15.676 -3.923 15.676 -4.992 17.258 C-8.02 21.394 -8.02 21.394 -10 23 C-13 23.438 -13 23.438 -16 23 C-17.938 21.312 -17.938 21.312 -19 19 C-18.713 13.977 -15.948 10.652 -13.062 6.75 C-12.607 6.113 -12.151 5.476 -11.682 4.82 C-7.838 -0.47 -6.461 -1.615 0 0 Z " fill="#000000" transform="translate(380,285)"/>
<path d="M0 0 C0.738 1.57 0.738 1.57 1 4 C-0.171 6.449 -1.365 8.598 -2.812 10.875 C-3.218 11.529 -3.623 12.183 -4.04 12.857 C-6.977 17.537 -10.063 22.112 -13.25 26.625 C-13.849 27.476 -13.849 27.476 -14.46 28.343 C-17.026 31.893 -19.726 35.085 -23 38 C-25.312 37.812 -25.312 37.812 -27 37 C-27.801 35.418 -27.801 35.418 -28 33 C-26.481 30.614 -24.949 28.508 -23.188 26.312 C-18.275 19.951 -14.104 13.381 -10.175 6.372 C-7.133 0.996 -6.134 -0.161 0 0 Z " fill="#000000" transform="translate(244,289)"/>
<path d="M0 0 C3.188 0.875 3.188 0.875 6 2 C7.122 6.321 7.328 9.061 5.156 12.93 C4.291 14.258 3.405 15.574 2.5 16.875 C2.077 17.55 1.654 18.226 1.219 18.922 C-1.247 22.577 -2.321 23.816 -6.723 25.012 C-10 25 -10 25 -11.938 23.938 C-13.512 21.066 -13.359 19.26 -13 16 C-11.671 13.37 -9.97 11.09 -8.188 8.75 C-7.736 8.126 -7.284 7.502 -6.818 6.859 C-4.714 4.008 -2.971 1.981 0 0 Z " fill="#000000" transform="translate(356,312)"/>
<path d="M0 0 C3.438 0.25 3.438 0.25 7 1 C9 4 9 4 8.906 6.234 C7.675 9.991 5.69 12.982 3.5 16.25 C3.084 16.887 2.667 17.524 2.238 18.18 C-0.798 22.798 -0.798 22.798 -2 24 C-5.375 24.375 -5.375 24.375 -9 24 C-11.125 21.938 -11.125 21.938 -12 19 C-10.197 12.066 -5.03 5.03 0 0 Z " fill="#000000" transform="translate(336,341)"/>
<path d="M0 0 C0.858 2.417 1.098 3.682 0.335 6.167 C-0.028 6.929 -0.391 7.691 -0.766 8.477 C-1.161 9.312 -1.557 10.147 -1.965 11.008 C-2.389 11.871 -2.813 12.735 -3.25 13.625 C-3.659 14.496 -4.067 15.368 -4.488 16.266 C-7.603 22.735 -7.603 22.735 -11 25 C-13.688 24.625 -13.688 24.625 -16 24 C-15.314 19.272 -13.536 15.21 -11.625 10.875 C-11.321 10.16 -11.017 9.444 -10.703 8.707 C-10.401 8.017 -10.1 7.328 -9.789 6.617 C-9.518 5.994 -9.247 5.372 -8.967 4.73 C-6.627 0.544 -4.765 -0.386 0 0 Z " fill="#000000" transform="translate(401,351)"/>
<path d="M0 0 C2 2 2 2 2.414 4.637 C1.852 9.204 -0.071 12.061 -2.625 15.812 C-3.265 16.832 -3.265 16.832 -3.918 17.873 C-6.158 21.226 -7.257 22.756 -11.184 24.047 C-14 24 -14 24 -16.438 22.438 C-18 20 -18 20 -17.906 17.305 C-16.741 13.056 -14.68 10.179 -12.062 6.688 C-11.607 6.055 -11.151 5.423 -10.682 4.771 C-7.142 -0.064 -5.906 -1.624 0 0 Z " fill="#000000" transform="translate(324,370)"/>
<path d="M0 0 C2.475 0.495 2.475 0.495 5 1 C5.686 2.676 5.686 2.676 6 5 C4.835 7.448 4.835 7.448 3.02 10.191 C2.024 11.718 2.024 11.718 1.009 13.275 C0.284 14.36 -0.441 15.445 -1.188 16.562 C-1.93 17.694 -2.671 18.826 -3.411 19.959 C-4.902 22.241 -6.398 24.519 -7.898 26.794 C-10.735 31.122 -13.499 35.493 -16.25 39.875 C-16.723 40.623 -17.195 41.37 -17.682 42.141 C-20.233 46.176 -22.76 50.226 -25.266 54.289 C-25.807 55.161 -26.348 56.032 -26.905 56.93 C-27.941 58.599 -28.971 60.272 -29.993 61.949 C-30.693 63.072 -30.693 63.072 -31.406 64.219 C-31.812 64.878 -32.217 65.537 -32.635 66.217 C-34.192 68.25 -35.898 69.555 -38 71 C-39.32 70.34 -40.64 69.68 -42 69 C-41.442 64.033 -39.163 60.438 -36.625 56.25 C-36.179 55.504 -35.734 54.758 -35.275 53.99 C-31.287 47.364 -27.099 40.875 -22.863 34.406 C-20.312 30.502 -17.832 26.556 -15.36 22.6 C-10.51 14.842 -5.559 7.276 0 0 Z " fill="#000000" transform="translate(588,402)"/>
<path d="M0 0 C3.5 0.188 3.5 0.188 7 1 C9 4 9 4 8.934 6.672 C7.7 11.071 5.546 14.447 3.062 18.25 C2.607 18.969 2.151 19.689 1.682 20.43 C-0.085 23.192 -1.674 25.674 -4 28 C-6.938 28.375 -6.938 28.375 -10 28 C-11.938 26.375 -11.938 26.375 -13 24 C-12.728 18.277 -10.102 14.405 -7.062 9.75 C-6.379 8.671 -6.379 8.671 -5.682 7.57 C-3.915 4.808 -2.326 2.326 0 0 Z " fill="#000000" transform="translate(183,607)"/>
<path d="M0 0 C0.33 1.65 0.66 3.3 1 5 C-2.316 7.21 -3.391 7.256 -7.254 7.266 C-8.782 7.269 -8.782 7.269 -10.342 7.273 C-11.405 7.266 -12.467 7.258 -13.562 7.25 C-14.629 7.258 -15.696 7.265 -16.795 7.273 C-18.321 7.27 -18.321 7.27 -19.879 7.266 C-20.813 7.263 -21.747 7.261 -22.709 7.259 C-25 7 -25 7 -27 5 C-26.464 1.464 -26.464 1.464 -25 0 C-16.61 -0.974 -8.37 -1.28 0 0 Z " fill="#000000" transform="translate(694,706)"/>
<path d="M0 0 C13.302 7.215 26.856 6.964 41.607 7.081 C43.876 7.103 46.145 7.142 48.414 7.184 C49.11 7.184 49.806 7.184 50.522 7.184 C52.467 7.224 52.467 7.224 55.625 7.625 C57.625 10.625 57.625 10.625 57.375 12.75 C56.625 14.625 56.625 14.625 54.625 15.625 C33.069 17.189 10.102 15.603 -8.926 4.578 C-14.987 2.219 -20.209 3.996 -25.938 6.375 C-27.358 6.928 -28.78 7.477 -30.203 8.023 C-30.908 8.295 -31.612 8.567 -32.338 8.847 C-46.945 14.428 -61.215 15.534 -76.375 11.625 C-76.87 9.15 -76.87 9.15 -77.375 6.625 C-74.844 5.359 -73.18 5.558 -70.352 5.633 C-54.604 6.105 -54.604 6.105 -39.375 2.625 C-38.725 2.389 -38.076 2.153 -37.406 1.91 C-33.869 0.622 -30.35 -0.701 -26.844 -2.07 C-16.884 -5.816 -9.289 -5.081 0 0 Z " fill="#000000" transform="translate(284.375,738.375)"/>
<path d="M0 0 C3.408 1.28 3.905 2.81 5.434 6.062 C11.161 17.271 18.505 23.056 30.496 27.125 C33.467 28.055 36.443 28.923 39.445 29.742 C40.349 29.992 41.253 30.242 42.184 30.5 C43.396 30.811 43.396 30.811 44.633 31.129 C45.248 31.396 45.863 31.663 46.496 31.938 C46.826 32.928 47.156 33.918 47.496 34.938 C45.906 36.87 45.076 37.863 42.543 38.188 C26.677 36.461 12.998 30.131 2.496 17.938 C-0.504 13.679 -0.504 13.679 -0.504 9.938 C-1.494 9.938 -2.484 9.938 -3.504 9.938 C-3.731 10.742 -3.958 11.546 -4.191 12.375 C-7.664 21.8 -12.615 28.906 -21.504 33.938 C-34.01 38.667 -50.403 40.082 -63.504 36.938 C-65.004 34.875 -65.004 34.875 -65.504 32.938 C-63.682 30.541 -62.785 29.977 -59.752 29.553 C-58.111 29.542 -58.111 29.542 -56.438 29.531 C-54.625 29.498 -54.625 29.498 -52.775 29.465 C-51.51 29.456 -50.245 29.447 -48.941 29.438 C-32.624 29.359 -32.624 29.359 -18.504 21.938 C-16.058 18.696 -14.153 15.195 -12.293 11.594 C-6.145 -0.153 -6.145 -0.153 0 0 Z " fill="#000000" transform="translate(659.50390625,740.0625)"/>
<path d="M0 0 C1.607 -0.018 1.607 -0.018 3.246 -0.037 C4.268 -0.039 5.291 -0.041 6.344 -0.043 C7.284 -0.047 8.224 -0.051 9.193 -0.055 C11.5 0.188 11.5 0.188 13.5 2.188 C12.944 6.743 12.944 6.743 11.5 8.188 C-7.706 9.084 -7.706 9.084 -13.5 6.188 C-13.5 4.538 -13.5 2.888 -13.5 1.188 C-9.497 -0.814 -4.401 0.003 0 0 Z " fill="#000000" transform="translate(117.5,742.8125)"/>
<path d="M0 0 C4.536 2.746 8.233 6.174 11.875 10 C21.773 20.11 33.329 22.935 46.996 24.375 C50.085 25.018 51.129 25.532 53 28 C52.67 28.99 52.34 29.98 52 31 C44.576 34.712 33.42 31.331 26 29 C17.384 25.777 11.169 20.92 4.691 14.586 C0.313 9.804 0.313 9.804 -5.5 7.926 C-8.871 9.374 -10.573 11.446 -13 14.188 C-22.413 24.209 -36.44 28.885 -50 30 C-54.647 30.117 -59.29 30.094 -63.938 30.062 C-65.194 30.058 -66.45 30.053 -67.744 30.049 C-70.829 30.037 -73.915 30.021 -77 30 C-77.625 27.625 -77.625 27.625 -78 25 C-74.729 21.729 -71.36 21.881 -66.887 21.824 C-48.989 21.447 -30.967 20.464 -17.812 6.875 C-16.989 6.01 -16.165 5.145 -15.316 4.254 C-10.778 -0.162 -6.26 -2.172 0 0 Z " fill="#000000" transform="translate(302,756)"/>
<path d="M0 0 C0.625 2.375 0.625 2.375 1 5 C-1.365 7.365 -1.827 7.254 -5.035 7.275 C-5.866 7.284 -6.697 7.294 -7.553 7.304 C-8.452 7.303 -9.351 7.302 -10.277 7.301 C-11.2 7.305 -12.122 7.309 -13.072 7.314 C-15.025 7.32 -16.978 7.32 -18.93 7.316 C-21.922 7.313 -24.913 7.336 -27.904 7.361 C-29.799 7.364 -31.695 7.364 -33.59 7.363 C-34.487 7.372 -35.384 7.382 -36.308 7.391 C-37.142 7.385 -37.976 7.379 -38.836 7.372 C-39.569 7.373 -40.303 7.374 -41.058 7.374 C-43.516 6.9 -44.417 5.885 -46 4 C-45.34 2.68 -44.68 1.36 -44 0 C-39.02 -0.169 -34.039 -0.329 -29.059 -0.482 C-27.367 -0.535 -25.676 -0.591 -23.984 -0.648 C-21.542 -0.731 -19.099 -0.806 -16.656 -0.879 C-15.537 -0.919 -15.537 -0.919 -14.395 -0.961 C-9.485 -1.098 -4.862 -0.713 0 0 Z " fill="#000000" transform="translate(197,769)"/>
<path d="M0 0 C2.354 1.193 4.704 2.392 7.039 3.623 C11.698 5.786 16.093 5.667 21.16 5.59 C22.783 5.577 24.406 5.565 26.029 5.553 C28.568 5.528 31.106 5.5 33.644 5.467 C50.379 5.259 50.379 5.259 58.771 7.097 C63.446 8.047 68.216 7.917 72.973 8.023 C76.062 8.562 76.062 8.562 77.496 10.602 C77.776 11.572 77.776 11.572 78.062 12.562 C77.09 14.047 77.09 14.047 75.062 15.562 C72.168 15.808 69.51 15.89 66.625 15.812 C65.479 15.805 65.479 15.805 64.311 15.797 C58.59 15.717 58.59 15.717 56.312 15.049 C52.913 14.314 49.528 14.503 46.07 14.57 C44.461 14.588 42.852 14.605 41.242 14.621 C38.73 14.652 36.219 14.687 33.707 14.734 C20.139 14.974 6.999 14.845 -4.875 7.375 C-9.628 4.428 -13.217 2.674 -18.938 3.562 C-21.503 4.912 -23.69 6.616 -25.938 8.438 C-27.097 9.361 -28.263 10.275 -29.438 11.18 C-29.943 11.588 -30.448 11.997 -30.969 12.417 C-36.082 15.392 -41.387 15.808 -47.184 15.758 C-47.84 15.755 -48.496 15.752 -49.171 15.749 C-51.239 15.738 -53.307 15.713 -55.375 15.688 C-56.788 15.677 -58.202 15.668 -59.615 15.66 C-63.056 15.638 -66.497 15.604 -69.938 15.562 C-70.433 13.087 -70.433 13.087 -70.938 10.562 C-67.375 8.188 -65.6 8.253 -61.363 8.105 C-60.056 8.044 -58.748 7.983 -57.4 7.92 C-55.332 7.832 -53.263 7.75 -51.194 7.684 C-42.897 7.403 -36.389 7.112 -29.938 1.562 C-29.379 1.102 -28.821 0.641 -28.246 0.166 C-26.809 -1.034 -25.373 -2.236 -23.938 -3.438 C-14.923 -6.442 -8.211 -4.042 0 0 Z " fill="#000000" transform="translate(512.9375,774.4375)"/>
</svg>
