<?xml version="1.0" encoding="UTF-8"?>
<!-- Generator: visioncortex VTracer 0.6.0 -->
<svg version="1.1" xmlns="http://www.w3.org/2000/svg" width="847" height="847">
<path d="M0 0 C4.825 3.309 7.286 7.187 10.188 12.125 C10.662 12.919 11.136 13.713 11.624 14.531 C13.097 17.013 14.551 19.505 16 22 C16.446 22.763 16.892 23.526 17.352 24.312 C22.209 32.662 26.672 41.119 30.625 49.938 C30.968 50.701 31.311 51.465 31.665 52.252 C32.999 55.316 34 57.623 34 61 C31 60 31 60 29.23 56.59 C28.544 55.042 27.863 53.491 27.188 51.938 C19.799 35.663 10.5 20.231 0.379 5.512 C-0.076 4.683 -0.531 3.854 -1 3 C-0.67 2.01 -0.34 1.02 0 0 Z " fill="#000000" transform="translate(241,124)"/>
<path d="M0 0 C0.33 0 0.66 0 1 0 C1.926 25.797 1.926 25.797 -4 36 C-4.33 36 -4.66 36 -5 36 C-4.439 27.65 -3.377 19.491 -1.938 11.25 C-1.751 10.159 -1.565 9.069 -1.373 7.945 C-0.92 5.296 -0.462 2.648 0 0 Z " fill="#000000" transform="translate(428,130)"/>
<path d="M0 0 C1.875 0.25 1.875 0.25 4 1 C5.312 2.812 5.312 2.812 6 5 C5.543 7.137 5.543 7.137 5 9 C4.161 7.879 3.329 6.753 2.5 5.625 C2.036 4.999 1.572 4.372 1.094 3.727 C0 2 0 2 0 0 Z " fill="#000000" transform="translate(282,133)"/>
<path d="M0 0 C2.312 1.312 2.312 1.312 4.312 3.312 C4.865 8.511 4.865 8.511 3.062 11.125 C1 12.525 -0.182 13.165 -2.688 13.312 C-4.931 12.165 -6.897 11.103 -8.688 9.312 C-8.562 5.938 -8.562 5.938 -7.688 2.312 C-4.884 -0.257 -3.728 -0.954 0 0 Z " fill="#000000" transform="translate(362.6875,143.6875)"/>
<path d="M0 0 C0.66 0 1.32 0 2 0 C1.404 4.501 0.232 8.303 -1.504 12.492 C-1.997 13.691 -2.49 14.89 -2.998 16.125 C-3.519 17.375 -4.041 18.625 -4.562 19.875 C-5.088 21.148 -5.614 22.422 -6.139 23.695 C-7.42 26.799 -8.707 29.901 -10 33 C-10.99 33 -11.98 33 -13 33 C-12.484 26.543 -10.231 21.263 -7.625 15.375 C-7.026 13.983 -7.026 13.983 -6.414 12.562 C-2.378 3.296 -2.378 3.296 0 0 Z " fill="#000000" transform="translate(546,144)"/>
<path d="M0 0 C0.66 0 1.32 0 2 0 C2.249 7.934 1.71 15.244 0 23 C-0.99 23.33 -1.98 23.66 -3 24 C-1.631 1.631 -1.631 1.631 0 0 Z " fill="#000000" transform="translate(444,160)"/>
<path d="M0 0 C3 1 3 1 4.188 3.312 C5 6 5 6 5 10 C4.34 10 3.68 10 3 10 C0.966 6.27 0 4.331 0 0 Z " fill="#000000" transform="translate(299,164)"/>
<path d="M0 0 C2.329 2.866 3.758 5.529 5.043 8.984 C5.394 9.919 5.746 10.854 6.107 11.816 C6.464 12.784 6.82 13.753 7.188 14.75 C7.556 15.734 7.924 16.717 8.303 17.73 C9.208 20.152 10.107 22.575 11 25 C15.525 25 18.149 23.587 22 21.5 C25.851 19.413 28.475 18 33 18 C31.652 21.253 30.537 22.605 27.375 24.141 C26.669 24.489 25.962 24.837 25.234 25.195 C24.497 25.543 23.76 25.891 23 26.25 C22.263 26.614 21.525 26.977 20.766 27.352 C15.309 30 15.309 30 13 30 C13.246 31.058 13.246 31.058 13.496 32.137 C14.017 35.097 14.099 37.811 14.062 40.812 C14.053 41.788 14.044 42.764 14.035 43.77 C14.024 44.506 14.012 45.242 14 46 C13.01 46.495 13.01 46.495 12 47 C10.68 42.71 9.36 38.42 8 34 C6.845 34.144 5.69 34.289 4.5 34.438 C0.333 34.958 -3.833 35.479 -8 36 C-7.67 35.01 -7.34 34.02 -7 33 C-4.312 31.867 -4.312 31.867 -1 30.875 C2.796 29.978 2.796 29.978 6 28 C5.661 26.334 5.239 24.685 4.785 23.047 C4.511 22.035 4.237 21.023 3.955 19.98 C3.364 17.842 2.773 15.704 2.182 13.566 C1.906 12.549 1.631 11.532 1.348 10.484 C0.961 9.088 0.961 9.088 0.567 7.663 C0.005 5.023 -0.105 2.69 0 0 Z " fill="#000000" transform="translate(476,180)"/>
<path d="M0 0 C7.051 -0.513 7.051 -0.513 10.074 1.973 C14.032 6.754 17.39 11.603 20.418 17.02 C20.882 17.835 21.345 18.651 21.823 19.492 C27.557 29.674 32.919 40.05 38.23 50.457 C38.743 51.456 39.256 52.454 39.785 53.483 C48.821 71.109 57.088 89.039 65.179 107.111 C66.291 109.593 67.405 112.074 68.52 114.555 C70.864 119.771 73.204 124.989 75.543 130.207 C76.102 131.454 76.102 131.454 76.672 132.726 C77.731 135.089 78.787 137.453 79.844 139.816 C80.315 140.867 80.315 140.867 80.795 141.939 C82.347 145.418 83.847 148.907 85.23 152.457 C86.2 151.611 87.169 150.766 88.168 149.895 C89.52 148.747 90.875 147.601 92.23 146.457 C92.883 145.892 93.535 145.328 94.207 144.746 C102.785 137.646 115.134 129.868 126.668 130.707 C127.514 130.955 128.359 131.202 129.23 131.457 C131.977 136.951 129.923 143.94 128.23 149.52 C128.01 150.252 127.789 150.984 127.562 151.739 C123.51 164.455 116.542 175.126 108.23 185.457 C109.681 185.37 109.681 185.37 111.16 185.281 C120.401 184.961 127.57 185.592 134.844 191.844 C140.359 197.782 141.765 204.746 141.516 212.605 C140.391 223.848 135.777 235.523 129.148 244.641 C127.958 246.996 128.074 248.855 128.23 251.457 C128.692 251.033 129.153 250.609 129.629 250.172 C147.434 234.162 147.434 234.162 157.105 234.582 C159.23 235.457 159.23 235.457 161.23 238.457 C162.248 253.201 154.173 267.28 144.969 278.121 C142.907 280.351 142.907 280.351 143.48 283.27 C143.852 284.352 143.852 284.352 144.23 285.457 C145.55 285.457 146.87 285.457 148.23 285.457 C149.084 285.527 149.937 285.596 150.816 285.668 C156.244 286.137 156.244 286.137 161.105 284.156 C162.617 282.566 162.617 282.566 163.816 280.867 C165.844 278.845 167.406 278.712 170.23 278.457 C186.058 280.475 198.241 289.766 207.793 302.082 C222.067 321.976 232.919 344.4 243.543 366.395 C243.873 367.078 244.204 367.762 244.544 368.467 C250.017 379.817 250.017 379.817 251.23 383.457 C254.923 381.793 258.017 379.513 261.293 377.145 C278.752 364.879 298.379 361.93 319.309 365.148 C336.08 368.194 356.708 374.046 367.23 388.457 C370.116 394.139 370.866 399.137 371.304 405.455 C371.381 406.438 371.458 407.422 371.538 408.436 C371.789 411.7 372.021 414.965 372.25 418.23 C372.334 419.368 372.417 420.505 372.503 421.677 C374.479 448.545 375.663 475.446 376.765 502.361 C377.075 509.901 377.398 517.44 377.72 524.979 C377.969 530.827 378.216 536.675 378.457 542.523 C378.524 544.116 378.524 544.116 378.591 545.741 C378.677 547.791 378.761 549.841 378.844 551.891 C379.039 556.57 379.27 561.242 379.588 565.915 C379.672 567.177 379.672 567.177 379.757 568.465 C379.863 570.023 379.978 571.581 380.104 573.137 C380.225 574.907 380.238 576.683 380.23 578.457 C377.807 580.881 377.092 580.746 373.76 580.896 C372.823 580.943 371.886 580.99 370.92 581.039 C369.892 581.082 368.864 581.124 367.805 581.168 C365.583 581.277 363.362 581.386 361.14 581.496 C359.963 581.55 358.787 581.604 357.574 581.661 C338.56 582.552 319.567 583.643 300.605 585.332 C299.695 585.413 298.785 585.494 297.847 585.577 C283.281 586.894 268.803 588.709 254.353 590.97 C253.299 591.13 253.299 591.13 252.223 591.294 C250.353 591.579 248.484 591.877 246.616 592.175 C242.943 592.481 239.83 592.232 236.23 591.457 C235.105 589.52 235.105 589.52 234.23 587.457 C233.554 587.207 232.877 586.957 232.18 586.699 C228.007 584.942 224.729 582.285 221.168 579.52 C220.417 578.939 219.666 578.359 218.893 577.76 C203.059 565.385 187.73 551.634 184.477 530.707 C183.315 520.091 185.198 509.401 191.23 500.457 C189.974 500.356 188.717 500.256 187.422 500.152 C181.795 499.521 176.562 498.011 171.168 496.332 C170.159 496.02 169.151 495.708 168.112 495.386 C151.006 489.966 134.784 482.584 121.055 470.859 C117.949 468.218 114.761 465.709 111.543 463.207 C106.423 459.212 101.377 455.137 96.355 451.02 C90.972 446.613 85.503 442.355 79.918 438.207 C73.535 433.466 67.319 428.575 61.23 423.457 C60.703 423.015 60.176 422.572 59.633 422.117 C53.668 417.109 47.73 412.075 41.914 406.895 C40.079 405.328 38.174 403.886 36.23 402.457 C36.013 403.126 35.795 403.795 35.57 404.484 C33.801 408.41 31.391 411.602 28.793 415.02 C28.263 415.722 27.733 416.424 27.187 417.148 C22.974 422.654 18.475 427.784 13.703 432.809 C11.98 434.654 10.326 436.566 8.73 438.523 C4.769 443.172 0.024 446.703 -4.77 450.457 C-5.7 451.203 -6.631 451.95 -7.59 452.719 C-13.228 457.12 -18.995 460.924 -25.207 464.457 C-25.881 464.843 -26.556 465.229 -27.251 465.627 C-30.726 467.549 -33.81 468.969 -37.77 469.457 C-37.189 470.586 -37.189 470.586 -36.598 471.738 C-23.717 498.01 -26.24 524.171 -35.082 551.332 C-43.574 576.125 -43.574 576.125 -53.77 581.457 C-54.841 582.027 -55.912 582.597 -57.016 583.184 C-79.516 594.618 -105.879 598.501 -130.898 598.695 C-131.949 598.705 -133 598.715 -134.083 598.725 C-160.898 598.923 -187.184 598.012 -213.77 594.457 C-214.587 594.348 -215.405 594.239 -216.248 594.127 C-244.352 590.347 -272.302 585.27 -299.895 578.707 C-301.112 578.428 -301.112 578.428 -302.354 578.142 C-304.527 577.598 -304.527 577.598 -307.77 576.457 C-308.77 573.457 -308.77 573.457 -307.956 571.273 C-305.036 565.71 -301.976 560.307 -298.582 555.02 C-298.076 554.226 -297.571 553.432 -297.05 552.615 C-274.904 518.051 -252.315 482.836 -225.77 451.457 C-225.284 450.881 -224.798 450.305 -224.297 449.711 C-206.285 428.417 -184.607 405.556 -155.77 400.457 C-152.305 400.213 -148.866 400.221 -145.395 400.27 C-144.493 400.27 -143.592 400.271 -142.664 400.271 C-136.051 400.316 -136.051 400.316 -133.77 401.457 C-133.928 400.27 -134.087 399.083 -134.25 397.859 C-135.985 384.551 -137.441 371.224 -138.828 357.876 C-140.495 341.855 -142.264 325.861 -144.395 309.895 C-144.552 308.713 -144.552 308.713 -144.712 307.507 C-145.666 300.363 -146.644 293.225 -147.715 286.098 C-153.113 249.89 -148.829 217.622 -138.687 182.61 C-138.45 181.782 -138.213 180.954 -137.969 180.102 C-137.657 179.04 -137.657 179.04 -137.339 177.956 C-135.755 171.002 -135.44 166.987 -138.223 160.301 C-138.789 158.893 -139.353 157.484 -139.916 156.074 C-140.219 155.328 -140.522 154.582 -140.834 153.813 C-142.492 149.638 -143.992 145.406 -145.504 141.176 C-145.827 140.276 -146.15 139.376 -146.483 138.449 C-147.498 135.62 -148.51 132.789 -149.52 129.957 C-150.042 128.494 -150.042 128.494 -150.574 127.002 C-171.346 68.671 -171.346 68.671 -167.52 57.957 C-145.569 25.032 -75.444 13.262 -40.27 6.145 C-26.888 3.528 -13.524 1.64 0 0 Z M-93.77 23.457 C-94.783 23.773 -95.796 24.089 -96.84 24.415 C-114.199 29.885 -130.961 36.375 -146.77 45.457 C-142.377 46.921 -139.567 44.708 -135.582 42.832 C-96.538 25.355 -48.549 10.439 -5.832 6.879 C-2.603 6.661 -2.603 6.661 0.23 4.457 C-31.817 2.908 -63.531 14.016 -93.77 23.457 Z M-23.77 27.457 C-23.44 28.777 -23.11 30.097 -22.77 31.457 C-19.305 30.962 -19.305 30.962 -15.77 30.457 C-15.44 29.137 -15.11 27.817 -14.77 26.457 C-18.549 25.407 -20.419 25.347 -23.77 27.457 Z M-37.52 28.582 C-39.102 30.527 -39.102 30.527 -38.457 33.645 C-38.23 34.573 -38.003 35.501 -37.77 36.457 C-35.372 37.137 -35.372 37.137 -32.77 37.457 C-30.454 35.572 -30.454 35.572 -30.52 32.457 C-30.454 29.342 -30.454 29.342 -32.77 27.457 C-35.696 27.187 -35.696 27.187 -37.52 28.582 Z M-57.902 37.172 C-58.873 37.528 -59.844 37.885 -60.844 38.252 C-61.851 38.629 -62.857 39.006 -63.895 39.395 C-64.909 39.768 -65.924 40.141 -66.969 40.525 C-71.945 42.313 -71.945 42.313 -76.77 44.457 C-76.44 46.107 -76.11 47.757 -75.77 49.457 C-70.21 48.795 -65.287 46.975 -60.082 45.02 C-59.228 44.707 -58.374 44.394 -57.494 44.072 C-53.936 42.75 -50.947 41.576 -47.77 39.457 C-48.1 38.137 -48.43 36.817 -48.77 35.457 C-52.541 35.457 -54.452 35.894 -57.902 37.172 Z M8.432 38.85 C7.448 39.182 6.464 39.515 5.45 39.858 C4.377 40.231 3.305 40.604 2.199 40.988 C1.078 41.371 -0.044 41.753 -1.199 42.147 C-4.256 43.19 -7.309 44.242 -10.361 45.298 C-13.561 46.403 -16.764 47.497 -19.967 48.593 C-36.64 54.305 -53.287 60.096 -69.919 65.928 C-90.819 73.252 -111.795 80.35 -132.77 87.457 C-132.221 94.257 -129.798 100.137 -127.316 106.449 C-126.639 108.198 -126.639 108.198 -125.948 109.982 C-124.731 113.119 -123.507 116.254 -122.28 119.387 C-121.004 122.65 -119.737 125.916 -118.468 129.182 C-115.58 136.611 -112.677 144.035 -109.77 151.457 C-109.411 152.373 -109.052 153.29 -108.682 154.234 C-106.018 161.032 -103.343 167.827 -100.656 174.617 C-96.643 184.76 -92.672 194.92 -88.707 205.082 C-88.365 205.958 -88.024 206.833 -87.672 207.736 C-83.314 218.908 -78.97 230.085 -74.645 241.27 C-73.933 243.109 -73.933 243.109 -73.207 244.987 C-72.969 245.602 -72.731 246.217 -72.486 246.851 C-54.521 293.311 -54.521 293.311 -35.77 339.457 C-30.292 338.845 -25.739 336.96 -20.727 334.809 C-19.853 334.44 -18.979 334.071 -18.078 333.691 C-15.243 332.494 -12.413 331.288 -9.582 330.082 C-5.696 328.435 -1.809 326.791 2.078 325.148 C3.037 324.743 3.995 324.337 4.982 323.919 C10.645 321.527 16.325 319.188 22.039 316.922 C22.681 316.666 23.323 316.41 23.985 316.147 C26.893 314.991 29.804 313.846 32.723 312.719 C33.718 312.325 34.713 311.93 35.738 311.523 C37.017 311.028 37.017 311.028 38.321 310.522 C40.576 309.546 40.576 309.546 41.23 306.457 C40.748 304.556 40.262 302.655 39.747 300.762 C38.833 296.682 38.797 292.561 38.668 288.395 C38.466 282.675 38.158 277.109 37.23 271.457 C28.047 275.092 18.879 278.759 9.762 282.555 C8.805 282.953 8.805 282.953 7.828 283.359 C4.658 284.679 1.488 286.002 -1.678 287.331 C-21.936 295.778 -21.936 295.778 -27.77 294.457 C-33.151 288.835 -36.315 281.356 -37.207 273.707 C-36.661 269.649 -35.92 269.018 -32.77 266.457 C-29.901 264.869 -26.913 263.606 -23.895 262.332 C-22.947 261.925 -21.998 261.519 -21.022 261.1 C-5.356 254.481 10.541 248.401 26.391 242.238 C27.744 241.711 27.744 241.711 29.125 241.173 C43.88 235.454 43.88 235.454 50.23 237.457 C54.74 240.79 56.285 243.975 57.23 249.457 C56.982 254.262 56.091 257.567 53.23 261.457 C52.57 261.787 51.91 262.117 51.23 262.457 C52.516 266.314 54.121 267.056 57.418 269.395 C62.372 272.985 67.093 276.777 71.73 280.77 C72.317 281.273 72.904 281.776 73.509 282.295 C74.066 282.778 74.624 283.26 75.199 283.758 C75.728 284.215 76.256 284.672 76.801 285.143 C78.23 286.457 78.23 286.457 80.324 288.875 C81.268 289.658 81.268 289.658 82.23 290.457 C86.504 290.014 90.326 288.322 94.246 286.656 C94.903 286.379 95.559 286.101 96.235 285.815 C97.615 285.228 98.993 284.639 100.37 284.047 C102.482 283.144 104.602 282.262 106.723 281.381 C108.064 280.807 109.406 280.232 110.746 279.656 C111.699 279.265 111.699 279.265 112.671 278.867 C116.014 277.402 116.014 277.402 118.292 274.66 C118.201 271.399 117.05 268.992 115.738 266.012 C115.34 265.095 115.34 265.095 114.934 264.16 C114.085 262.212 113.221 260.272 112.355 258.332 C111.78 257.019 111.206 255.705 110.633 254.391 C108.033 248.377 108.033 248.377 105.23 242.457 C101.584 243.746 99.032 245.26 96.105 247.77 C89.156 253.355 80.738 257.584 71.73 257.645 C70.771 257.659 69.812 257.673 68.824 257.688 C66.23 257.457 66.23 257.457 63.23 255.457 C59.966 245.665 63.82 234.299 68.23 225.457 C72.933 216.959 78.521 209.488 85.23 202.457 C81.737 192.882 78.043 183.462 73.883 174.151 C67.714 160.329 61.79 146.407 55.918 132.457 C55.317 131.029 55.317 131.029 54.703 129.572 C53.079 125.713 51.454 121.853 49.829 117.993 C47.13 111.583 44.418 105.178 41.695 98.777 C41.331 97.922 40.968 97.067 40.593 96.185 C38.815 92.009 37.036 87.833 35.254 83.658 C31.916 75.828 28.612 67.986 25.387 60.109 C24.783 58.641 24.178 57.173 23.574 55.705 C22.454 52.984 21.348 50.259 20.25 47.53 C19.762 46.342 19.273 45.154 18.77 43.93 C18.349 42.891 17.928 41.852 17.495 40.781 C15.164 36.495 12.436 37.476 8.432 38.85 Z M31.23 46.457 C30.24 46.952 30.24 46.952 29.23 47.457 C40.371 82.118 57.156 115.17 72.63 148.051 C75.51 154.18 78.369 160.319 81.23 166.457 C81.89 166.127 82.55 165.797 83.23 165.457 C77.618 148.99 71.176 133 64.151 117.094 C60.272 108.305 56.472 99.482 52.666 90.661 C51.456 87.856 50.243 85.053 49.03 82.249 C48.645 81.357 48.259 80.466 47.862 79.547 C47.101 77.785 46.338 76.024 45.575 74.263 C43.662 69.839 41.791 65.403 39.983 60.935 C39.443 59.612 39.443 59.612 38.891 58.262 C38.208 56.583 37.534 54.902 36.871 53.216 C36.073 51.261 35.161 49.353 34.23 47.457 C33.24 47.127 32.25 46.797 31.23 46.457 Z M-147.77 67.457 C-148.76 67.952 -148.76 67.952 -149.77 68.457 C-149.167 74.522 -147.43 79.814 -145.332 85.52 C-144.949 86.569 -144.567 87.618 -144.172 88.7 C-133.309 118.165 -121.71 147.359 -109.086 176.115 C-106.891 181.126 -104.833 186.187 -102.823 191.275 C-101.969 193.612 -101.969 193.612 -99.77 194.457 C-101.883 186.167 -104.513 178.135 -107.395 170.082 C-107.623 169.439 -107.852 168.796 -108.088 168.134 C-113.719 152.332 -119.691 136.657 -125.647 120.976 C-126.181 119.568 -126.181 119.568 -126.727 118.133 C-127.078 117.208 -127.429 116.283 -127.791 115.33 C-131.134 106.517 -134.411 97.68 -137.639 88.823 C-139.486 83.786 -141.403 78.781 -143.41 73.805 C-143.813 72.806 -144.215 71.807 -144.63 70.778 C-145.548 68.315 -145.548 68.315 -147.77 67.457 Z M89.117 151.832 C86.878 154.36 86.878 154.36 87.442 157.709 C88.233 161.469 89.366 164.555 90.953 168.047 C91.491 169.242 92.029 170.438 92.584 171.67 C93.153 172.912 93.723 174.153 94.293 175.395 C94.867 176.663 95.441 177.932 96.014 179.201 C97.411 182.29 98.817 185.375 100.23 188.457 C110.677 183.684 118.739 167.013 122.805 156.586 C125.274 149.788 127.446 142.763 127.23 135.457 C126.735 134.467 126.735 134.467 126.23 133.457 C111.979 133.457 99.483 143.042 89.117 151.832 Z M87.23 168.457 C86.57 169.117 85.91 169.777 85.23 170.457 C86.586 172.994 86.586 172.994 88.23 175.457 C88.89 175.457 89.55 175.457 90.23 175.457 C89.888 172.486 89.888 172.486 89.23 169.457 C88.57 169.127 87.91 168.797 87.23 168.457 Z M-133.77 172.457 C-134.914 176.816 -136.053 181.176 -137.188 185.537 C-137.574 187.02 -137.962 188.503 -138.352 189.986 C-138.911 192.117 -139.466 194.25 -140.02 196.383 C-140.195 197.045 -140.37 197.708 -140.55 198.391 C-141.269 201.175 -141.77 203.566 -141.77 206.457 C-133.661 204.728 -133.661 204.728 -127.77 199.457 C-125.603 194.045 -123.633 188.241 -124.77 182.457 C-127.153 178.861 -129.795 175.582 -132.77 172.457 C-133.1 172.457 -133.43 172.457 -133.77 172.457 Z M-123.77 186.457 C-123.891 187.349 -124.012 188.241 -124.137 189.16 C-124.304 190.331 -124.472 191.501 -124.645 192.707 C-124.807 193.867 -124.969 195.027 -125.137 196.223 C-126.364 202.498 -126.364 202.498 -129.469 204.617 C-130.125 204.915 -130.781 205.213 -131.457 205.52 C-132.163 205.852 -132.87 206.185 -133.598 206.527 C-134.988 207.123 -136.394 207.684 -137.816 208.199 C-139.946 208.94 -139.946 208.94 -142.77 210.457 C-143.821 213.034 -143.821 213.034 -143.77 215.457 C-141.79 215.787 -139.81 216.117 -137.77 216.457 C-138.883 216.643 -139.997 216.828 -141.145 217.02 C-143.19 217.775 -143.19 217.775 -144.77 219.457 C-147.6 229.977 -147.205 241.695 -147.207 252.52 C-147.209 253.352 -147.212 254.184 -147.214 255.042 C-147.215 272.012 -145.175 288.467 -142.656 305.22 C-141.761 311.264 -141.192 317.3 -140.77 323.395 C-140.04 333.376 -138.411 343.139 -136.724 352.999 C-134.985 363.347 -133.853 373.704 -132.832 384.145 C-131.286 399.905 -128.551 415.067 -124.77 430.457 C-126.436 428.79 -128.103 427.124 -129.77 425.457 C-127.233 442.365 -114.613 455.172 -101.652 465.363 C-91.314 472.872 -79.843 480.717 -66.77 481.457 C-66.77 480.137 -66.77 478.817 -66.77 477.457 C-65.12 477.127 -63.47 476.797 -61.77 476.457 C-61.77 475.797 -61.77 475.137 -61.77 474.457 C-60.47 474.251 -59.171 474.045 -57.832 473.832 C-39.609 470.11 -21.635 461.912 -7.77 449.457 C-6.493 448.341 -6.493 448.341 -5.191 447.203 C8.456 435.128 26.866 418.471 34.23 401.457 C33.773 398.022 32.52 396.388 30.07 394.004 C29.128 393.076 29.128 393.076 28.166 392.129 C27.177 391.178 27.177 391.178 26.168 390.207 C25.505 389.557 24.842 388.908 24.158 388.238 C22.522 386.638 20.88 385.044 19.23 383.457 C18.201 383.844 17.171 384.23 16.109 384.629 C8.549 387.414 1.02 389.935 -6.832 391.77 C-7.847 392.008 -7.847 392.008 -8.883 392.251 C-18.891 394.492 -31.884 396.954 -41.77 393.457 C-63.534 378.947 -71.43 339.084 -79.735 315.537 C-81.394 310.836 -83.071 306.143 -84.77 301.457 C-85.216 300.224 -85.216 300.224 -85.672 298.966 C-86.571 296.506 -87.488 294.053 -88.41 291.602 C-88.815 290.489 -88.815 290.489 -89.229 289.355 C-91.35 283.804 -94.335 280.128 -98.559 275.934 C-109.115 264.109 -111.041 248.061 -111.707 232.895 C-112.648 216.272 -114.079 200.97 -122.77 186.457 C-123.1 186.457 -123.43 186.457 -123.77 186.457 Z M84.98 205.344 C79.02 211.888 73.328 219.621 69.23 227.457 C69.56 228.117 69.89 228.777 70.23 229.457 C70.808 228.797 71.385 228.137 71.98 227.457 C74.23 225.457 74.23 225.457 78.23 225.457 C80.115 228.652 80.469 230.972 80.426 234.66 C80.419 235.64 80.413 236.62 80.406 237.629 C80.389 238.645 80.373 239.66 80.355 240.707 C80.346 241.738 80.337 242.77 80.328 243.832 C80.305 246.374 80.272 248.915 80.23 251.457 C84.87 252.582 86.639 252.171 90.793 249.707 C101.916 242.813 110.587 233.226 119.32 223.621 C121.878 220.813 124.523 218.12 127.23 215.457 C125.178 219.335 123.648 222.067 120.418 225.082 C119.696 225.866 118.974 226.65 118.23 227.457 C118.542 231.596 120.272 234.7 122.293 238.27 C122.841 239.245 123.389 240.221 123.953 241.227 C124.585 242.331 124.585 242.331 125.23 243.457 C133.648 236.003 136.863 222.203 138.23 211.457 C138.631 204.649 137.038 199.837 132.953 194.371 C128.19 189.078 123.081 187.741 116.059 187.367 C103.022 187.781 93.658 196.433 84.98 205.344 Z M-95.77 208.457 C-95.17 211.813 -93.923 213.835 -91.77 216.457 C-90.419 214.328 -90.419 214.328 -91.707 211.332 C-92.058 210.383 -92.408 209.435 -92.77 208.457 C-93.76 208.457 -94.75 208.457 -95.77 208.457 Z M76.23 227.457 C70.507 232.675 65.679 239.041 63.23 246.457 C63.449 251.508 63.449 251.508 66.23 255.457 C69.129 255.7 69.129 255.7 72.355 255.582 C73.999 255.555 73.999 255.555 75.676 255.527 C76.519 255.504 77.362 255.481 78.23 255.457 C78.219 254.672 78.207 253.887 78.195 253.078 C78.147 247.406 78.367 242.071 79.23 236.457 C79.311 233.783 79.277 231.133 79.23 228.457 C78.24 228.127 77.25 227.797 76.23 227.457 Z M-108.77 234.457 C-110.038 249.115 -104.824 264.958 -95.77 276.457 C-94.78 275.962 -94.78 275.962 -93.77 275.457 C-94.123 274.428 -94.476 273.399 -94.839 272.339 C-96.155 268.504 -97.471 264.669 -98.787 260.833 C-99.355 259.176 -99.923 257.52 -100.492 255.863 C-101.311 253.475 -102.13 251.087 -102.949 248.699 C-103.201 247.965 -103.454 247.23 -103.713 246.473 C-105.085 242.474 -106.439 238.47 -107.77 234.457 C-108.1 234.457 -108.43 234.457 -108.77 234.457 Z M37.652 239.533 C36.506 239.988 35.36 240.443 34.179 240.911 C32.922 241.416 31.666 241.921 30.41 242.426 C29.11 242.945 27.81 243.464 26.51 243.983 C23.773 245.075 21.037 246.172 18.303 247.271 C14.851 248.659 11.396 250.037 7.939 251.413 C-9.715 258.417 -9.715 258.417 -27.074 266.113 C-27.75 266.43 -28.425 266.747 -29.122 267.073 C-31.724 268.329 -33.71 269.398 -35.77 271.457 C-35.506 276.855 -33.9 280.663 -31.27 285.332 C-30.64 286.464 -30.011 287.596 -29.363 288.762 C-28.019 291.291 -28.019 291.291 -26.77 292.457 C-12.533 292.203 1.518 284.644 14.188 278.75 C17.566 277.185 20.965 275.744 24.43 274.383 C25.258 274.047 26.086 273.712 26.94 273.367 C28.507 272.736 30.085 272.128 31.672 271.547 C35.74 269.913 35.74 269.913 38.159 266.43 C38.827 263.977 38.827 263.977 39.23 260.457 C40.335 260.67 40.335 260.67 41.461 260.887 C47.835 261.942 47.835 261.942 53.418 259.145 C56.119 254.926 56.099 250.268 55.23 245.457 C52.978 241.537 50.278 239.429 46.23 237.457 C42.817 237.457 40.818 238.27 37.652 239.533 Z M152.797 238.137 C143.887 241.682 136.998 246.689 130.23 253.457 C130.604 257.004 131.756 259.91 133.297 263.102 C133.7 263.943 134.103 264.784 134.518 265.65 C134.938 266.515 135.359 267.379 135.793 268.27 C136.218 269.153 136.642 270.037 137.08 270.947 C138.125 273.12 139.175 275.289 140.23 277.457 C140.89 277.457 141.55 277.457 142.23 277.457 C151.786 266.326 157.843 253.149 157.23 238.457 C155.213 237.168 155.213 237.168 152.797 238.137 Z M41.23 263.457 C39.565 265.122 40.066 267.147 40.041 269.373 C40.042 270.061 40.042 270.748 40.043 271.457 C40.042 272.16 40.042 272.863 40.041 273.588 C40.119 281.618 41.129 289.513 42.23 297.457 C44.879 297.099 46.802 296.753 49.02 295.223 C52.6 290.002 50.33 281.313 49.249 275.401 C48.077 269.104 48.077 269.104 45.23 263.457 C43.91 263.457 42.59 263.457 41.23 263.457 Z M50.23 267.457 C50.352 268.016 50.473 268.576 50.598 269.152 C51.175 271.915 51.708 274.683 52.23 277.457 C52.456 278.635 52.682 279.813 52.914 281.027 C53.122 282.242 53.329 283.456 53.543 284.707 C53.745 285.847 53.948 286.986 54.156 288.16 C54.246 292.153 53.442 294.155 51.23 297.457 C48.623 299.042 46.196 299.582 43.23 300.457 C43.23 302.107 43.23 303.757 43.23 305.457 C45.54 305.127 47.85 304.797 50.23 304.457 C49.9 305.447 49.57 306.437 49.23 307.457 C46.668 308.645 46.668 308.645 44.23 309.457 C45.598 316.899 48.081 323.377 51.168 330.27 C51.898 331.909 51.898 331.909 52.642 333.582 C66.703 364.67 86.382 390.391 109.23 415.457 C110.454 416.82 110.454 416.82 111.703 418.211 C117.725 424.871 123.96 431.267 130.368 437.557 C130.985 438.166 131.602 438.775 132.238 439.402 C132.791 439.944 133.345 440.485 133.915 441.043 C135.23 442.457 135.23 442.457 136.23 444.457 C131.085 439.987 125.983 435.472 120.93 430.898 C119.064 429.211 117.191 427.532 115.312 425.859 C101.015 413.062 88.473 398.596 78.324 382.277 C73.64 374.799 69.012 370.647 61.23 366.457 C59.993 365.673 58.763 364.876 57.539 364.07 C42 353.861 26.025 346.394 7.23 345.457 C8.313 346.509 8.313 346.509 9.418 347.582 C15.148 353.345 19.22 358.046 19.605 366.457 C19.55 370.195 19.321 371.315 17.23 374.582 C16.57 375.201 15.91 375.82 15.23 376.457 C16.959 378.603 16.959 378.603 19.23 380.457 C22.847 380.336 26.071 378.109 29.23 376.457 C27.296 380.035 25.539 382.126 22.23 384.457 C27.367 389.716 32.652 394.673 38.23 399.457 C39.347 400.425 40.463 401.394 41.578 402.363 C44.81 405.172 48.047 407.974 51.286 410.774 C53.133 412.373 54.977 413.975 56.82 415.578 C63.013 420.945 69.296 426.147 75.77 431.172 C80.495 434.849 85.12 438.637 89.73 442.457 C96.534 448.086 103.4 453.617 110.382 459.022 C112.401 460.59 114.411 462.168 116.422 463.746 C139.221 481.544 163.649 491.543 191.668 498.457 C192.973 498.787 192.973 498.787 194.304 499.124 C198.889 500.2 202.625 500.934 207.23 499.457 C229.272 484.389 241.253 454.808 250.043 430.645 C250.416 429.619 250.79 428.593 251.174 427.537 C255.629 415.277 255.629 415.277 257.23 402.457 C256.57 402.127 255.91 401.797 255.23 401.457 C254.244 399.474 254.244 399.474 253.199 396.848 C252.806 395.876 252.413 394.904 252.008 393.903 C251.586 392.848 251.165 391.794 250.73 390.707 C243.26 372.418 234.607 354.837 225.23 337.457 C224.775 336.607 224.319 335.756 223.85 334.88 C216.205 320.626 208.652 307.101 197.23 295.457 C196.607 294.809 195.983 294.16 195.34 293.492 C188.501 286.927 178.764 281.738 169.176 281.137 C165.553 281.733 163.707 283.854 161.23 286.457 C161.974 289.635 161.974 289.635 164.73 291.332 C168.418 294.828 168.048 299.474 168.25 304.273 C168.228 307.808 167.953 311.004 167.23 314.457 C166.24 314.787 165.25 315.117 164.23 315.457 C164.388 314.601 164.545 313.745 164.707 312.863 C166.188 303.485 166.188 303.485 164.324 294.387 C161.638 290.961 158.301 288.841 154.23 287.457 C143.418 287.245 132.759 296.593 124.23 302.457 C124.412 303.356 124.412 303.356 124.598 304.273 C125.948 311.576 126.71 318.874 127.355 326.27 C127.443 327.26 127.53 328.25 127.621 329.27 C128.047 334.352 128.33 339.357 128.23 344.457 C127.24 344.457 126.25 344.457 125.23 344.457 C125.074 343.542 125.074 343.542 124.914 342.609 C123.949 339.572 121.783 338.415 119.375 336.469 C116.738 333.995 114.629 331.223 112.48 328.332 C108.224 322.623 103.639 317.381 98.777 312.184 C94.641 307.756 90.618 303.257 86.918 298.457 C86.361 297.797 85.804 297.137 85.23 296.457 C84.57 296.457 83.91 296.457 83.23 296.457 C83.016 295.909 82.803 295.361 82.582 294.797 C80.763 291.648 78.278 289.43 75.605 287.02 C75.044 286.507 74.482 285.995 73.903 285.468 C69.224 281.252 64.413 277.2 59.543 273.207 C58.848 272.634 58.153 272.061 57.437 271.471 C56.787 270.946 56.138 270.42 55.469 269.879 C54.892 269.411 54.315 268.942 53.72 268.46 C52.253 267.271 52.253 267.271 50.23 267.457 Z M119.23 306.457 C115.57 311.062 113.875 315.851 112.23 321.457 C111.57 321.457 110.91 321.457 110.23 321.457 C111.599 324.554 113.152 326.575 115.605 328.895 C117.791 331.002 119.654 332.995 121.543 335.395 C122.1 336.075 122.657 336.756 123.23 337.457 C123.89 337.457 124.55 337.457 125.23 337.457 C125.223 321.51 125.223 321.51 121.23 306.457 C120.57 306.457 119.91 306.457 119.23 306.457 Z M-54.77 308.457 C-54.168 314.515 -52.437 319.824 -50.332 325.52 C-49.981 326.473 -49.631 327.427 -49.27 328.41 C-41.121 353.433 -41.121 353.433 -25.77 373.457 C-24.78 372.962 -24.78 372.962 -23.77 372.457 C-24.369 368.575 -25.542 365.638 -27.402 362.188 C-27.955 361.148 -28.507 360.109 -29.076 359.038 C-29.676 357.918 -30.276 356.798 -30.895 355.645 C-36.612 344.82 -41.982 333.869 -47.145 322.77 C-47.479 322.052 -47.813 321.334 -48.157 320.594 C-50.035 316.552 -51.906 312.506 -53.77 308.457 C-54.1 308.457 -54.43 308.457 -54.77 308.457 Z M-8.77 345.457 C-7.047 349.452 -4.392 352.702 -1.707 356.082 C-1.223 356.696 -0.738 357.31 -0.239 357.942 C4.039 363.314 8.545 368.436 13.23 373.457 C13.89 373.127 14.55 372.797 15.23 372.457 C15.941 364.156 14.799 358.457 10.23 351.457 C9.831 350.811 9.431 350.165 9.02 349.5 C7.505 347.54 6.47 346.546 4.23 345.457 C-0.15 344.976 -4.383 345.106 -8.77 345.457 Z M260.23 406.457 C259.98 407.245 259.729 408.034 259.471 408.846 C250.137 438.02 239.693 466.336 220.23 490.457 C219.75 491.09 219.269 491.723 218.773 492.375 C215.555 496.513 212.136 499.89 206.848 500.922 C204.639 501.175 202.451 501.358 200.23 501.457 C201.692 504.381 203.538 504.406 206.605 505.457 C212.711 507.722 218.412 510.476 224.168 513.52 C224.972 513.943 225.776 514.366 226.605 514.803 C230.057 516.65 233.331 518.487 236.469 520.832 C239.086 522.717 239.086 522.717 241.934 522.297 C243.194 521.85 243.194 521.85 244.48 521.395 C245.331 521.115 246.182 520.835 247.059 520.547 C249.543 519.524 249.543 519.524 251.23 516.457 C245.17 512.312 238.998 508.694 232.355 505.582 C231.411 505.135 231.411 505.135 230.447 504.679 C227.069 503.133 223.91 502.003 220.23 501.457 C221.22 500.467 221.22 500.467 222.23 499.457 C231.686 503.186 241.095 507.09 249.105 513.457 C250.137 514.117 251.168 514.777 252.23 515.457 C256.797 514.399 259.057 511.808 262.043 508.332 C262.833 507.422 263.623 506.512 264.438 505.574 C265.029 504.876 265.621 504.177 266.23 503.457 C262.79 499.845 259.278 496.904 255.168 494.082 C254.61 493.698 254.052 493.315 253.478 492.92 C248.63 489.631 243.622 486.705 238.496 483.867 C236.23 482.457 236.23 482.457 235.23 480.457 C242.07 483.348 248.064 487.255 254.105 491.52 C254.843 492.038 255.58 492.557 256.34 493.091 C259.948 495.673 263.099 498.303 266.23 501.457 C266.89 501.457 267.55 501.457 268.23 501.457 C273.399 494.319 277.29 486.749 280.23 478.457 C263.41 469.005 263.41 469.005 245.23 464.457 C245.23 463.797 245.23 463.137 245.23 462.457 C256.53 465.719 267.36 469.398 277.391 475.637 C279.393 476.778 279.393 476.778 282.23 475.457 C283.268 473.105 284.095 470.898 284.855 468.457 C285.074 467.78 285.293 467.103 285.518 466.406 C287.073 461.418 287.955 456.689 288.23 451.457 C282.299 448.107 276.277 445.665 269.793 443.645 C269.095 443.426 268.397 443.207 267.678 442.982 C264.757 442.098 262.299 441.457 259.23 441.457 C259.23 440.467 259.23 439.477 259.23 438.457 C269.23 441.79 279.23 445.124 289.23 448.457 C291.227 446.461 290.64 442.64 290.793 439.895 C290.858 438.828 290.858 438.828 290.924 437.74 C291.03 435.979 291.131 434.218 291.23 432.457 C285.421 429.375 279.7 427.129 273.418 425.207 C272.573 424.939 271.728 424.671 270.857 424.395 C266.135 422.903 266.135 422.903 261.23 422.457 C261.56 421.797 261.89 421.137 262.23 420.457 C269.963 422.171 277.128 424.457 284.418 427.566 C287.288 428.475 288.478 428.542 291.23 427.457 C291.116 426.019 290.988 424.581 290.855 423.145 C290.751 421.944 290.751 421.944 290.645 420.719 C290.335 418.185 290.335 418.185 288.23 415.457 C286.454 414.656 286.454 414.656 284.379 414.211 C283.609 414.013 282.84 413.815 282.047 413.611 C281.241 413.416 280.436 413.221 279.605 413.02 C273.302 411.477 267.993 409.453 262.23 406.457 C261.57 406.457 260.91 406.457 260.23 406.457 Z M-134.77 428.457 C-136.277 430.37 -136.277 430.37 -137.832 432.832 C-144.914 443.191 -153.327 451.495 -163.77 458.457 C-164.844 465.217 -163.482 471.926 -161.77 478.457 C-157.529 477.043 -156.419 473.948 -154.27 470.27 C-150.747 464.439 -147.032 458.885 -142.832 453.52 C-142.372 452.923 -141.912 452.327 -141.438 451.712 C-139.276 448.999 -138.128 447.577 -134.77 446.457 C-135.116 446.904 -135.463 447.351 -135.82 447.811 C-143.072 457.178 -150.241 466.565 -156.77 476.457 C-157.365 477.304 -157.961 478.151 -158.574 479.023 C-159.977 481.355 -159.977 481.355 -159.582 483.781 C-156.514 494.532 -156.514 494.532 -149.77 502.457 C-149.449 501.87 -149.129 501.284 -148.798 500.679 C-142.603 489.392 -136.227 478.299 -129.082 467.582 C-128.482 466.679 -127.883 465.777 -127.265 464.847 C-123.035 458.59 -123.035 458.59 -120.77 457.457 C-125.042 464.725 -129.565 471.796 -134.207 478.832 C-140.323 488.153 -140.323 488.153 -146.27 497.582 C-146.795 498.43 -147.321 499.278 -147.863 500.152 C-149.059 503.192 -148.933 504.396 -147.77 507.457 C-146.145 509.82 -144.299 511.943 -142.395 514.082 C-141.652 514.941 -141.652 514.941 -140.895 515.816 C-137.484 519.784 -137.484 519.784 -133.77 523.457 C-133.11 523.457 -132.45 523.457 -131.77 523.457 C-131.51 522.911 -131.25 522.365 -130.982 521.802 C-125.578 510.531 -119.848 499.567 -113.332 488.895 C-112.741 487.926 -112.151 486.958 -111.542 485.961 C-108.835 481.586 -106.135 477.368 -102.77 473.457 C-103.411 476.86 -104.721 479.213 -106.613 482.098 C-107.488 483.445 -107.488 483.445 -108.379 484.819 C-109.003 485.772 -109.627 486.725 -110.27 487.707 C-122.057 505.784 -122.057 505.784 -130.77 525.457 C-122.337 530.252 -113.479 532.569 -103.77 532.457 C-103.428 531.789 -103.087 531.12 -102.735 530.432 C-91.186 507.882 -91.186 507.882 -85.082 497.457 C-84.673 496.753 -84.264 496.048 -83.842 495.323 C-81.023 490.584 -81.023 490.584 -78.77 489.457 C-83.409 499.499 -89.078 508.898 -94.746 518.383 C-95.524 519.689 -95.524 519.689 -96.317 521.022 C-97.225 522.543 -98.137 524.062 -99.058 525.576 C-101.265 529.25 -101.265 529.25 -101.77 533.457 C-95.731 533.553 -89.733 533.535 -83.77 532.457 C-82.086 530.774 -82.604 528.516 -82.52 526.207 C-81.44 512.573 -74.132 501.018 -67.027 489.676 C-65.605 487.592 -65.605 487.592 -65.77 485.457 C-66.45 485.261 -67.131 485.065 -67.832 484.863 C-91.733 477.49 -115.389 462.707 -127.488 440.27 C-129.469 436.383 -131.389 432.598 -132.77 428.457 C-133.43 428.457 -134.09 428.457 -134.77 428.457 Z M291.23 452.457 C292.23 454.457 292.23 454.457 292.23 454.457 Z M328.23 453.457 C326.865 454.594 326.865 454.594 327.133 457.617 C327.144 458.905 327.156 460.193 327.168 461.52 C327.177 462.81 327.186 464.1 327.195 465.43 C327.207 466.429 327.219 467.428 327.23 468.457 C329.705 468.952 329.705 468.952 332.23 469.457 C333.593 466.732 333.4 464.496 333.418 461.457 C333.432 460.385 333.446 459.312 333.461 458.207 C333.516 455.313 333.516 455.313 331.23 453.457 C330.24 453.457 329.25 453.457 328.23 453.457 Z M356.23 487.457 C355.04 491.028 355.391 493.182 355.918 496.895 C356.066 498.028 356.214 499.161 356.367 500.328 C357.327 503.809 358.486 505.182 361.23 507.457 C362.93 506.452 362.93 506.452 364.23 504.457 C364.174 501.797 363.968 499.494 363.543 496.895 C363.451 496.209 363.359 495.524 363.264 494.818 C362.691 490.702 362.691 490.702 360.23 487.457 C358.91 487.457 357.59 487.457 356.23 487.457 Z M326.23 497.457 C323.708 501.232 324.243 504.203 324.855 508.582 C325.013 509.822 325.17 511.062 325.332 512.34 C325.901 515.556 325.901 515.556 328.316 516.887 C328.948 517.075 329.58 517.263 330.23 517.457 C332.626 515.499 332.626 515.499 332.48 511.832 C332.352 507.42 331.673 503.639 330.23 499.457 C328.26 497.882 328.26 497.882 326.23 497.457 Z M-216.77 507.457 C-218.132 510.182 -217.939 512.418 -217.957 515.457 C-217.971 516.53 -217.985 517.602 -218 518.707 C-218.055 521.602 -218.055 521.602 -215.77 523.457 C-214.45 523.127 -213.13 522.797 -211.77 522.457 C-211.77 517.837 -211.77 513.217 -211.77 508.457 C-213.42 508.127 -215.07 507.797 -216.77 507.457 Z M264.23 509.457 C262.91 511.107 261.59 512.757 260.23 514.457 C261.55 513.797 262.87 513.137 264.23 512.457 C264.23 511.467 264.23 510.477 264.23 509.457 Z M-191.77 534.457 C-193.068 540.218 -194.027 545.544 -193.77 551.457 C-192.12 551.787 -190.47 552.117 -188.77 552.457 C-186.758 546.673 -186.549 541.555 -186.77 535.457 C-188.42 535.127 -190.07 534.797 -191.77 534.457 Z M-107.77 534.457 C-103.77 535.457 -103.77 535.457 -103.77 535.457 Z M-98.77 535.457 C-98.77 535.787 -98.77 536.117 -98.77 536.457 C-97.12 536.457 -95.47 536.457 -93.77 536.457 C-93.77 536.127 -93.77 535.797 -93.77 535.457 C-95.42 535.457 -97.07 535.457 -98.77 535.457 Z M-259.77 543.457 C-262.095 547.091 -261.932 550.228 -261.77 554.457 C-259.79 555.447 -259.79 555.447 -257.77 556.457 C-255.282 553.173 -254.738 551.845 -255.082 547.645 C-255.422 546.067 -255.422 546.067 -255.77 544.457 C-257.09 544.127 -258.41 543.797 -259.77 543.457 Z M314.23 552.457 C312.095 555.661 311.999 556.476 312.105 560.145 C312.124 560.953 312.142 561.761 312.16 562.594 C312.183 563.209 312.207 563.824 312.23 564.457 C314.705 564.952 314.705 564.952 317.23 565.457 C318.637 561.676 319.681 558.51 319.23 554.457 C318.57 553.797 317.91 553.137 317.23 552.457 C316.24 552.457 315.25 552.457 314.23 552.457 Z M262.23 558.457 C259.964 562.589 260.17 565.933 260.551 570.469 C261.069 572.628 261.069 572.628 263.16 573.789 C265.261 574.734 265.261 574.734 267.23 573.457 C267.284 571.332 267.323 569.207 267.355 567.082 C267.39 565.307 267.39 565.307 267.426 563.496 C267.559 560.345 267.559 560.345 265.23 558.457 C264.24 558.457 263.25 558.457 262.23 558.457 Z M-157.77 563.457 C-158.135 565.038 -158.486 566.622 -158.832 568.207 C-159.029 569.089 -159.226 569.97 -159.43 570.879 C-159.768 573.444 -159.581 575.028 -158.77 577.457 C-156.79 577.952 -156.79 577.952 -154.77 578.457 C-152.408 574.915 -151.988 572.688 -151.77 568.457 C-152.852 565.51 -152.852 565.51 -154.77 563.457 C-155.76 563.457 -156.75 563.457 -157.77 563.457 Z M230.23 563.457 C228.919 564.555 228.919 564.555 228.98 567.27 C229.252 570.734 229.917 571.951 232.23 574.457 C233.55 573.797 234.87 573.137 236.23 572.457 C235.9 569.817 235.57 567.177 235.23 564.457 C233.574 564.075 231.906 563.743 230.23 563.457 Z M-223.77 564.457 C-223.77 567.757 -223.77 571.057 -223.77 574.457 C-222.113 574.839 -220.445 575.171 -218.77 575.457 C-216.875 573.562 -217.589 570.886 -217.539 568.367 C-217.599 566.216 -217.599 566.216 -219.77 564.457 C-221.09 564.457 -222.41 564.457 -223.77 564.457 Z M-104.77 575.457 C-106.668 577.356 -105.893 580.03 -105.902 582.547 C-105.886 584.543 -105.886 584.543 -104.77 586.457 C-103.45 586.457 -102.13 586.457 -100.77 586.457 C-100.398 585.199 -100.027 583.941 -99.645 582.645 C-99.436 581.937 -99.227 581.229 -99.012 580.5 C-98.509 578.146 -98.509 578.146 -100.77 575.457 C-102.09 575.457 -103.41 575.457 -104.77 575.457 Z " fill="#000000" transform="translate(387.76953125,186.54296875)"/>
<path d="M0 0 C3.413 3.137 5.76 6.498 8.188 10.438 C9.23 12.106 9.23 12.106 10.293 13.809 C11.826 16.675 12.6 18.806 13 22 C9.787 18.124 6.978 14.096 4.25 9.875 C3.839 9.255 3.428 8.635 3.004 7.996 C0 3.356 0 3.356 0 0 Z " fill="#000000" transform="translate(195,192)"/>
<path d="M0 0 C5.79 3.446 10.229 7.967 14.938 12.75 C16.097 13.91 16.097 13.91 17.279 15.094 C56.182 54.292 56.182 54.292 58.407 75.787 C57.46 80.939 52.609 84.401 48.938 87.812 C48.02 88.694 47.102 89.575 46.156 90.484 C39.129 97.15 31.941 103.45 24 109 C23.421 109.408 22.841 109.816 22.244 110.236 C12.556 116.968 0.418 125.042 -11.879 124.613 C-21.436 121.85 -28.59 103.053 -33.187 95.121 C-44.868 74.912 -44.868 74.912 -58.047 55.672 C-59.863 53.187 -61.463 50.665 -63 48 C-59.083 44.439 -55.117 41.339 -50.688 38.438 C-37.118 29.527 -24.253 19.795 -11.754 9.445 C-7.875 6.249 -3.933 3.13 0 0 Z M0 3 C-1.553 4.588 -3.105 6.176 -4.656 7.766 C-18.185 20.663 -34.576 31.753 -50.281 41.805 C-53.563 43.927 -56.35 46.122 -59 49 C-58.238 49.909 -58.238 49.909 -57.461 50.836 C-52.717 56.611 -48.659 62.485 -45 69 C-41.024 68.422 -38.319 67.212 -34.93 65.078 C-33.96 64.471 -32.991 63.865 -31.992 63.24 C-30.964 62.583 -29.935 61.926 -28.875 61.25 C-27.808 60.575 -26.74 59.9 -25.641 59.204 C-11.391 50.137 2.443 40.601 15.875 30.363 C17.874 28.851 19.914 27.39 22 26 C20.712 23.159 19.376 21.141 17.137 18.977 C16.579 18.43 16.022 17.883 15.447 17.32 C14.867 16.761 14.286 16.201 13.688 15.625 C10.355 12.395 7.11 9.214 4.207 5.586 C3.479 4.733 2.75 3.879 2 3 C1.34 3 0.68 3 0 3 Z M17.273 32.391 C10.287 37.874 3.03 42.853 -4.375 47.75 C-5.016 48.176 -5.657 48.602 -6.317 49.041 C-18.343 57.033 -30.572 64.645 -43 72 C-37.078 82.539 -30.914 92.932 -24.725 103.316 C-21.05 109.492 -17.435 115.687 -14 122 C1.929 123.911 16.633 110.577 28.336 101.41 C38.273 93.398 47.086 84.11 56 75 C49.094 60.703 41.345 47.968 31.323 35.63 C30.414 34.51 29.514 33.382 28.622 32.249 C27.46 30.795 26.235 29.393 25 28 C21.757 28 19.712 30.436 17.273 32.391 Z " fill="#000000" transform="translate(571,192)"/>
<path d="M0 0 C0.66 0.66 1.32 1.32 2 2 C-0.97 4.475 -0.97 4.475 -4 7 C-4.66 6.34 -5.32 5.68 -6 5 C-4.02 3.35 -2.04 1.7 0 0 Z " fill="#000000" transform="translate(574,204)"/>
<path d="M0 0 C-1.39 4.171 -4.278 5.182 -7.938 7.188 C-8.584 7.556 -9.23 7.924 -9.896 8.303 C-14.716 11 -14.716 11 -17 11 C-15.493 6.77 -12.873 5.411 -9.062 3.25 C-8.002 2.636 -6.941 2.023 -5.848 1.391 C-3 0 -3 0 0 0 Z " fill="#000000" transform="translate(566,212)"/>
<path d="M0 0 C3.752 2.812 6.642 5.776 9.562 9.438 C10.306 10.364 11.05 11.291 11.816 12.246 C12.537 13.155 13.258 14.064 14 15 C15.333 16.667 16.666 18.334 18 20 C15 20 15 20 12.949 18.094 C0 3.244 0 3.244 0 0 Z " fill="#000000" transform="translate(183,216)"/>
<path d="M0 0 C2.438 0.938 2.438 0.938 3.875 3.25 C4.438 5.938 4.438 5.938 3.875 8.188 C2.438 9.938 2.438 9.938 0.062 10.938 C-2.562 10.938 -2.562 10.938 -4.938 9.312 C-6.562 6.938 -6.562 6.938 -6.5 4.312 C-5.165 0.931 -3.634 -0.089 0 0 Z " fill="#000000" transform="translate(659.5625,233.0625)"/>
<path d="M0 0 C4.065 4.153 8.16 9.48 10 15 C9.155 19.603 7.134 22.581 4 26 C0.274 28.484 -1.587 28.38 -6 28 C-10.732 25.872 -12.484 23.084 -14.875 18.562 C-15.491 17.429 -16.107 16.296 -16.742 15.129 C-18 12 -18 12 -17.824 9.746 C-15.418 4.649 -10.755 2.087 -5.965 -0.398 C-3.473 -1.161 -2.388 -1.043 0 0 Z M-4 2 C-6.806 3.431 -6.806 3.431 -9.688 5.438 C-10.681 6.096 -11.675 6.755 -12.699 7.434 C-13.458 7.951 -14.218 8.467 -15 9 C-13.656 15.449 -10.676 20.324 -6 25 C-2.723 24.937 -0.091 24.81 2.609 22.805 C4.883 20.365 5.965 18.521 6.188 15.188 C4.507 10.676 2.114 6.68 -1 3 C-1.99 2.67 -2.98 2.34 -4 2 Z " fill="#000000" transform="translate(604,246)"/>
<path d="M0 0 C2.625 0.375 2.625 0.375 5 1 C5.625 3.375 5.625 3.375 6 6 C4 8 4 8 1.375 8.125 C0.591 8.084 -0.192 8.043 -1 8 C-1.625 5.125 -1.625 5.125 -2 2 C-1.34 1.34 -0.68 0.68 0 0 Z " fill="#000000" transform="translate(599,256)"/>
<path d="M0 0 C5.118 4.57 8.583 10.094 12.312 15.812 C13.28 17.281 13.28 17.281 14.268 18.779 C15.85 21.183 17.428 23.59 19 26 C18.01 26 17.02 26 16 26 C14.406 24.212 14.406 24.212 12.715 21.73 C12.102 20.842 11.489 19.953 10.857 19.037 C10.224 18.097 9.59 17.156 8.938 16.188 C8.3 15.259 7.663 14.33 7.006 13.373 C0 3.148 0 3.148 0 0 Z " fill="#000000" transform="translate(132,257)"/>
<path d="M0 0 C-3.787 2.34 -7.581 4.671 -11.375 7 C-12.455 7.668 -13.535 8.335 -14.648 9.023 C-16.195 9.971 -16.195 9.971 -17.773 10.938 C-18.727 11.524 -19.68 12.111 -20.662 12.715 C-23 14 -23 14 -25 14 C-23.559 10.355 -21.935 9.045 -18.535 7.168 C-17.653 6.68 -16.77 6.192 -15.861 5.689 C-14.938 5.194 -14.014 4.698 -13.062 4.188 C-12.143 3.673 -11.223 3.158 -10.275 2.627 C-3.384 -1.128 -3.384 -1.128 0 0 Z " fill="#000000" transform="translate(567,263)"/>
<path d="M0 0 C-1.271 3.812 -2.373 4.012 -5.875 5.812 C-6.862 6.327 -7.85 6.841 -8.867 7.371 C-9.901 7.909 -10.935 8.446 -12 9 C-14.899 10.627 -17.795 12.259 -20.688 13.898 C-23 15 -23 15 -26 15 C-26 14.34 -26 13.68 -26 13 C-22.375 11.02 -18.75 9.041 -15.125 7.062 C-14.092 6.499 -13.06 5.935 -11.996 5.354 C-11.01 4.815 -10.024 4.277 -9.008 3.723 C-8.097 3.225 -7.185 2.728 -6.247 2.215 C-2.151 0 -2.151 0 0 0 Z " fill="#000000" transform="translate(574,267)"/>
<path d="M0 0 C1.65 0.33 3.3 0.66 5 1 C5.625 2.875 5.625 2.875 6 5 C5.34 5.66 4.68 6.32 4 7 C1.375 6.625 1.375 6.625 -1 6 C-1.33 5.01 -1.66 4.02 -2 3 C-1.34 2.01 -0.68 1.02 0 0 Z " fill="#000000" transform="translate(486,268)"/>
<path d="M0 0 C2.062 0.438 2.062 0.438 4 1 C-1.623 5.146 -7.393 8.94 -13.438 12.438 C-14.04 12.791 -14.643 13.145 -15.264 13.51 C-18.067 15.106 -19.718 16 -23 16 C-21.556 12.317 -19.927 11.066 -16.465 9.238 C-15.573 8.759 -14.682 8.281 -13.764 7.787 C-12.831 7.3 -11.898 6.814 -10.938 6.312 C-9.092 5.331 -7.247 4.348 -5.402 3.363 C-4.172 2.718 -4.172 2.718 -2.918 2.06 C-1.052 1.144 -1.052 1.144 0 0 Z " fill="#000000" transform="translate(578,273)"/>
<path d="M0 0 C1.828 1.586 1.828 1.586 3.25 3.375 C3.73 3.96 4.209 4.545 4.703 5.148 C7.468 9.095 8.798 12.113 8 17 C3.05 21.975 -2.885 24.623 -9.188 27.562 C-10.285 28.081 -11.382 28.599 -12.512 29.133 C-32.8 38.658 -53.316 47.612 -74.153 55.868 C-76.628 56.852 -79.094 57.857 -81.559 58.867 C-83.386 59.583 -83.386 59.583 -85.25 60.312 C-86.225 60.701 -87.199 61.089 -88.203 61.488 C-91.985 62.18 -94.452 61.391 -98 60 C-101.655 55.48 -103.147 51.756 -103.25 46 C-103.276 45.134 -103.302 44.267 -103.328 43.375 C-102.921 40.428 -102.262 39.876 -100 38 C-97.673 36.856 -97.673 36.856 -94.891 35.758 C-93.841 35.338 -92.792 34.918 -91.711 34.486 C-90.569 34.037 -89.427 33.588 -88.25 33.125 C-85.795 32.142 -83.341 31.158 -80.887 30.172 C-80.247 29.916 -79.607 29.66 -78.948 29.396 C-71.624 26.459 -64.34 23.427 -57.062 20.375 C-56.406 20.1 -55.749 19.825 -55.073 19.541 C-47.026 16.164 -39.013 12.722 -31.062 9.125 C-30.279 8.772 -29.496 8.419 -28.689 8.055 C-24.921 6.349 -21.173 4.609 -17.441 2.824 C-16.003 2.154 -14.564 1.483 -13.125 0.812 C-12.488 0.496 -11.852 0.18 -11.196 -0.146 C-6.777 -2.18 -4.34 -2.182 0 0 Z M-12.699 3.457 C-13.811 3.987 -14.924 4.516 -16.07 5.062 C-16.658 5.347 -17.246 5.631 -17.852 5.925 C-21.012 7.453 -24.19 8.944 -27.367 10.438 C-28.015 10.742 -28.662 11.047 -29.329 11.362 C-43.084 17.816 -57.208 23.452 -71.266 29.207 C-72.156 29.572 -73.046 29.936 -73.963 30.312 C-78.429 32.14 -82.896 33.965 -87.366 35.782 C-89.006 36.451 -90.646 37.12 -92.285 37.789 C-93.051 38.099 -93.816 38.409 -94.604 38.728 C-98.055 39.949 -98.055 39.949 -101 42 C-101.444 48.553 -100.52 52.4 -96.688 57.875 C-94.125 59.583 -92.032 59.174 -89 59 C-86.259 58.279 -86.259 58.279 -83.52 57.156 C-82.456 56.743 -81.393 56.329 -80.297 55.903 C-79.147 55.44 -77.997 54.977 -76.812 54.5 C-75.593 54.014 -74.373 53.529 -73.117 53.029 C-58.651 47.21 -44.523 40.632 -30.396 34.043 C-26.722 32.331 -23.038 30.642 -19.35 28.96 C-16.541 27.679 -13.736 26.391 -10.932 25.102 C-9.612 24.497 -8.291 23.894 -6.969 23.295 C-5.152 22.469 -3.339 21.631 -1.527 20.793 C-0.504 20.324 0.52 19.855 1.574 19.372 C4.265 18.091 4.265 18.091 6 15 C5.706 10.921 4.2 8.399 1.75 5.188 C1.167 4.397 0.585 3.607 -0.016 2.793 C-1.84 0.797 -1.84 0.797 -4.268 0.734 C-7.53 1.051 -9.749 2.03 -12.699 3.457 Z " fill="#000000" transform="translate(407,282)"/>
<path d="M0 0 C0 0.66 0 1.32 0 2 C-3.788 4.174 -7.581 6.338 -11.375 8.5 C-12.455 9.12 -13.535 9.74 -14.648 10.379 C-15.68 10.965 -16.711 11.552 -17.773 12.156 C-18.727 12.701 -19.68 13.246 -20.662 13.807 C-23 15 -23 15 -25 15 C-23.559 11.353 -21.947 10.06 -18.535 8.203 C-17.653 7.72 -16.77 7.236 -15.861 6.738 C-14.476 6.002 -14.476 6.002 -13.062 5.25 C-12.143 4.743 -11.223 4.237 -10.275 3.715 C-3.411 0 -3.411 0 0 0 Z " fill="#000000" transform="translate(585,281)"/>
<path d="M0 0 C2.64 0 5.28 0 8 0 C8.845 3.378 9.108 5.675 8 9 C6.02 9.33 4.04 9.66 2 10 C1.67 9.01 1.34 8.02 1 7 C0.01 6.67 -0.98 6.34 -2 6 C-1.67 5.381 -1.34 4.762 -1 4.125 C0.142 2.09 0.142 2.09 0 0 Z M3 3 C3 4.32 3 5.64 3 7 C3.99 6.67 4.98 6.34 6 6 C5.67 5.01 5.34 4.02 5 3 C4.34 3 3.68 3 3 3 Z " fill="#000000" transform="translate(322,285)"/>
<path d="M0 0 C0.66 0 1.32 0 2 0 C3.34 1.363 3.34 1.363 4.938 3.312 C9.64 8.861 14.819 13.904 20 19 C15.058 19 12.414 15.323 9 12 C1.335 4.004 1.335 4.004 0 0 Z " fill="#000000" transform="translate(122,288)"/>
<path d="M0 0 C0 0.66 0 1.32 0 2 C-1.697 3.237 -1.697 3.237 -4.051 4.602 C-4.894 5.091 -5.738 5.581 -6.607 6.086 C-7.5 6.594 -8.393 7.102 -9.312 7.625 C-10.194 8.141 -11.075 8.656 -11.982 9.188 C-18.614 13 -18.614 13 -22 13 C-20.823 9.468 -20.21 9.254 -17.07 7.52 C-16.275 7.078 -15.48 6.637 -14.66 6.182 C-13.405 5.504 -13.405 5.504 -12.125 4.812 C-10.882 4.117 -10.882 4.117 -9.613 3.408 C-3.399 0 -3.399 0 0 0 Z " fill="#000000" transform="translate(587,290)"/>
<path d="M0 0 C0.66 0.33 1.32 0.66 2 1 C1.01 3.97 0.02 6.94 -1 10 C-3.64 10 -6.28 10 -9 10 C-9 9.01 -9 8.02 -9 7 C-6.69 7.33 -4.38 7.66 -2 8 C-1.856 6.866 -1.711 5.731 -1.562 4.562 C-1 1 -1 1 0 0 Z " fill="#000000" transform="translate(401,291)"/>
<path d="M0 0 C-5.188 12.358 -21.151 24.863 -31.207 33.426 C-33.671 35.589 -35.937 37.927 -38.234 40.266 C-40.012 42.012 -41.855 43.632 -43.75 45.25 C-47.158 48.183 -50.343 51.302 -53.5 54.5 C-67.727 68.835 -67.727 68.835 -75.242 69.07 C-76.844 69.065 -78.446 69.035 -80.047 68.973 C-84.393 69.013 -88.682 69.524 -93 70 C-89.134 71.39 -85.257 72.743 -81.367 74.065 C-80.046 74.519 -78.729 74.983 -77.416 75.457 C-75.523 76.137 -73.617 76.78 -71.711 77.422 C-69.998 78.019 -69.998 78.019 -68.251 78.628 C-64.856 79.332 -64.856 79.332 -61.698 77.201 C-55.447 72.101 -50.239 66.11 -45 60 C-44.093 58.957 -43.185 57.914 -42.277 56.871 C-37.173 50.986 -32.198 45.042 -27.438 38.875 C-23.767 34.136 -19.966 29.564 -15.938 25.125 C-15.472 24.607 -15.007 24.088 -14.527 23.554 C-13.395 22.328 -12.202 21.158 -11 20 C-10.34 20 -9.68 20 -9 20 C-10.074 22.915 -10.778 24.778 -13 27 C-12.837 29.133 -12.837 29.133 -12.206 31.599 C-10.676 39.148 -10.221 46.742 -9.711 54.41 C-9.602 55.988 -9.493 57.566 -9.383 59.144 C-9.156 62.439 -8.933 65.734 -8.713 69.03 C-8.434 73.2 -8.145 77.369 -7.852 81.538 C-7.625 84.795 -7.403 88.053 -7.183 91.311 C-7.079 92.846 -6.973 94.38 -6.865 95.914 C-6.092 106.958 -5.88 117.93 -6 129 C-6.99 128.67 -7.98 128.34 -9 128 C-10.371 125.257 -10.228 122.949 -10.341 119.88 C-10.392 118.59 -10.442 117.299 -10.494 115.97 C-10.519 115.276 -10.544 114.582 -10.57 113.868 C-10.649 111.677 -10.736 109.487 -10.824 107.296 C-11.075 101.065 -11.317 94.834 -11.547 88.603 C-12.178 71.584 -12.881 54.739 -15.75 37.914 C-16 36 -16 36 -16 32 C-19.97 35.867 -23.635 39.927 -27.25 44.125 C-27.824 44.79 -28.399 45.454 -28.99 46.139 C-32.215 49.883 -35.388 53.661 -38.5 57.5 C-42.179 62.022 -45.908 66.499 -49.688 70.938 C-50.49 71.897 -50.49 71.897 -51.309 72.875 C-55.248 77.467 -58.873 81.467 -65.094 82.527 C-70.888 81.745 -76.062 79.658 -81.5 77.562 C-91.011 73.821 -91.011 73.821 -101 72 C-98.36 73.65 -95.72 75.3 -93 77 C-96 78 -96 78 -99.031 76.566 C-100.193 75.908 -101.349 75.24 -102.5 74.562 C-106.939 71.839 -106.939 71.839 -112 71 C-111.185 76.822 -110.352 82.641 -109.509 88.459 C-109.053 91.632 -108.605 94.806 -108.159 97.981 C-105.956 113.569 -103.625 128.905 -99 144 C-78.607 141.908 -58.391 139.201 -38.203 135.633 C-37.222 135.46 -37.222 135.46 -36.221 135.284 C-33.042 134.724 -29.866 134.157 -26.692 133.575 C-20.696 132.504 -15.092 131.729 -9 132 C-9 132.99 -9 133.98 -9 135 C-17.11 136.818 -25.25 137.801 -33.5 138.75 C-46.784 140.312 -59.909 142.435 -73.039 144.981 C-82.701 146.816 -92.183 147.627 -102 148 C-108.883 125.787 -112.328 102.75 -113.798 79.567 C-113.943 77.72 -114.144 75.876 -114.38 74.039 C-114.501 73.06 -114.621 72.082 -114.746 71.074 C-114.869 70.187 -114.992 69.3 -115.119 68.385 C-115 66 -115 66 -113.563 64.037 C-111.474 62.203 -109.256 60.624 -107 59 C-96.945 50.356 -87.981 40.733 -79 31 C-78.395 30.345 -77.789 29.69 -77.166 29.016 C-73.937 25.523 -73.937 25.523 -70.717 22.022 C-69.482 20.677 -68.242 19.338 -67 18 C-66.568 17.46 -66.136 16.919 -65.691 16.363 C-62.036 13.417 -56.432 14.66 -52 15 C-47.784 15.619 -43.654 16.49 -39.5 17.438 C-38.443 17.668 -37.386 17.898 -36.297 18.135 C-28.743 19.788 -28.743 19.788 -25.777 20.633 C-23.953 21.214 -23.953 21.214 -22.352 20.059 C-21.497 19.256 -21.497 19.256 -20.625 18.438 C-19.944 17.806 -19.264 17.174 -18.562 16.523 C-16.507 14.499 -14.468 12.463 -12.438 10.414 C-11.497 9.466 -11.497 9.466 -10.537 8.498 C-9.268 7.213 -8.005 5.922 -6.749 4.625 C-5.871 3.73 -5.871 3.73 -4.977 2.816 C-4.451 2.274 -3.926 1.732 -3.385 1.174 C-2 0 -2 0 0 0 Z M-65.5 21.785 C-66.377 22.603 -67.254 23.421 -68.157 24.264 C-72.692 28.629 -77.182 33.034 -81.624 37.493 C-83.193 39.068 -84.767 40.637 -86.342 42.205 C-91.263 47.124 -96.099 52.074 -100.597 57.389 C-101.975 58.972 -103.423 60.423 -104.938 61.875 C-107.232 63.746 -107.232 63.746 -107 66 C-97.768 66.813 -97.768 66.813 -89.242 63.87 C-85.882 60.891 -83.162 57.384 -80.441 53.828 C-78.048 50.792 -75.391 48.007 -72.75 45.188 C-71.827 44.182 -70.905 43.176 -69.984 42.168 C-69.33 41.453 -68.675 40.737 -68 40 C-68 44.926 -71.678 47.603 -75 51 C-76.991 52.792 -79.021 54.528 -81.066 56.258 C-84.03 58.928 -86.48 61.912 -89 65 C-86.229 65.081 -83.46 65.14 -80.688 65.188 C-79.902 65.213 -79.116 65.238 -78.307 65.264 C-77.549 65.273 -76.792 65.283 -76.012 65.293 C-75.315 65.309 -74.619 65.324 -73.901 65.341 C-71.414 64.895 -70.562 63.944 -69 62 C-68.602 60.921 -68.602 60.921 -68.195 59.82 C-66.432 55.659 -63.659 52.409 -60.875 48.875 C-59.701 47.364 -58.528 45.852 -57.355 44.34 C-56.784 43.604 -56.212 42.867 -55.623 42.109 C-52.316 37.812 -49.153 33.411 -46 29 C-45.505 29.99 -45.505 29.99 -45 31 C-49.756 38.195 -55.036 44.846 -60.555 51.465 C-61.1 52.124 -61.645 52.782 -62.207 53.461 C-62.697 54.047 -63.186 54.632 -63.691 55.236 C-65.055 57.075 -66.038 58.926 -67 61 C-65.395 59.639 -63.792 58.275 -62.199 56.898 C-60.648 55.56 -59.088 54.233 -57.52 52.914 C-49.144 45.692 -44.166 37.669 -39 28 C-38.34 28 -37.68 28 -37 28 C-38.074 29.758 -39.148 31.516 -40.223 33.273 C-40.479 33.843 -40.736 34.413 -41 35 C-40.505 35.99 -40.505 35.99 -40 37 C-33.565 31.06 -33.565 31.06 -27 25 C-29.883 22.117 -33.327 21.796 -37.188 20.938 C-37.931 20.764 -38.674 20.591 -39.439 20.412 C-43.941 19.382 -48.418 18.601 -53 18 C-54.258 17.794 -55.516 17.587 -56.812 17.375 C-60.839 17.447 -62.611 19.085 -65.5 21.785 Z " fill="#000000" transform="translate(705,276)"/>
<path d="M0 0 C0.866 0.278 0.866 0.278 1.75 0.562 C4.207 1.04 5.644 0.757 8 0 C8 2.667 8 5.333 8 8 C6.02 8.66 4.04 9.32 2 10 C0.68 8.68 -0.64 7.36 -2 6 C-1.34 6 -0.68 6 0 6 C0 4.02 0 2.04 0 0 Z M3 3 C3 4.32 3 5.64 3 7 C3.66 6.67 4.32 6.34 5 6 C5 5.01 5 4.02 5 3 C4.34 3 3.68 3 3 3 Z " fill="#000000" transform="translate(302,293)"/>
<path d="M0 0 C1.319 0.928 2.63 1.868 3.938 2.812 C4.668 3.335 5.399 3.857 6.152 4.395 C8 6 8 6 9 9 C5.181 7.444 2.74 5.044 0 2 C0 1.34 0 0.68 0 0 Z " fill="#000000" transform="translate(160,298)"/>
<path d="M0 0 C0.99 0.33 1.98 0.66 3 1 C-0.79 9.33 -6.705 15.775 -12.751 22.517 C-14.208 24.191 -14.208 24.191 -16 27 C-16.66 27 -17.32 27 -18 27 C-16.692 23.379 -15.12 20.536 -12.812 17.461 C-11.888 16.22 -11.888 16.22 -10.945 14.953 C-10.303 14.102 -9.661 13.252 -9 12.375 C-7.729 10.675 -6.458 8.974 -5.188 7.273 C-4.343 6.151 -4.343 6.151 -3.48 5.005 C-2.273 3.37 -1.127 1.691 0 0 Z " fill="#000000" transform="translate(646,310)"/>
<path d="M0 0 C0.99 0.33 1.98 0.66 3 1 C2.674 1.539 2.348 2.078 2.012 2.634 C0.77 5.537 0.773 7.706 0.805 10.859 C0.814 12.532 0.814 12.532 0.824 14.238 C0.841 15.397 0.858 16.556 0.875 17.75 C0.884 18.924 0.893 20.099 0.902 21.309 C0.926 24.206 0.959 27.103 1 30 C0.01 29.67 -0.98 29.34 -2 29 C-2.061 27.94 -2.121 26.881 -2.184 25.789 C-2.268 24.401 -2.353 23.013 -2.438 21.625 C-2.477 20.926 -2.516 20.228 -2.557 19.508 C-2.743 15.626 -2.743 15.626 -4 12 C-4.655 12.727 -5.31 13.454 -5.984 14.203 C-11.508 20.3 -17.137 26.243 -23.026 31.989 C-25.095 34.021 -27.001 36.002 -28.719 38.344 C-29.142 38.89 -29.564 39.437 -30 40 C-30.66 40 -31.32 40 -32 40 C-30.5 34.595 -26.81 31.333 -23 27.438 C-14.7 18.771 -6.775 9.936 0 0 Z " fill="#000000" transform="translate(684,318)"/>
<path d="M0 0 C0.99 0.33 1.98 0.66 3 1 C-0.625 7.75 -0.625 7.75 -4 10 C-4.99 10 -5.98 10 -7 10 C-7 8 -7 8 -4.625 5.562 C-3.759 4.717 -2.893 3.871 -2 3 C-1.34 2.01 -0.68 1.02 0 0 Z " fill="#000000" transform="translate(754,318)"/>
<path d="M0 0 C2.125 0.375 2.125 0.375 4 1 C4.382 2.656 4.714 4.325 5 6 C4 7 4 7 1.438 7.062 C0.231 7.032 0.231 7.032 -1 7 C-1.625 4.625 -1.625 4.625 -2 2 C-1.34 1.34 -0.68 0.68 0 0 Z " fill="#000000" transform="translate(203,321)"/>
<path d="M0 0 C1.32 0 2.64 0 4 0 C6.543 6.936 7.949 13.694 9 21 C10.109 20.555 11.217 20.111 12.359 19.652 C13.823 19.08 15.286 18.509 16.75 17.938 C17.48 17.643 18.209 17.348 18.961 17.045 C20.024 16.634 20.024 16.634 21.109 16.215 C21.759 15.958 22.408 15.702 23.077 15.437 C25.366 14.917 26.793 15.276 29 16 C29 16.99 29 17.98 29 19 C23.068 22.185 17.61 24.653 11 26 C11.156 26.664 11.312 27.328 11.473 28.012 C11.765 29.336 11.765 29.336 12.062 30.688 C12.358 31.993 12.358 31.993 12.66 33.324 C13.02 36.16 12.709 38.248 12 41 C11.34 41 10.68 41 10 41 C8.68 37.37 7.36 33.74 6 30 C0.275 31.2 -5.265 32.628 -10.836 34.414 C-13 35 -13 35 -16 35 C-16 34.01 -16 33.02 -16 32 C-14.105 31.039 -12.209 30.081 -10.312 29.125 C-8.729 28.324 -8.729 28.324 -7.113 27.508 C0.13 24 0.13 24 4 24 C3.711 22.77 3.423 21.54 3.125 20.273 C2.75 18.641 2.375 17.008 2 15.375 C1.809 14.567 1.618 13.759 1.422 12.926 C0.421 8.528 -0.235 4.544 0 0 Z " fill="#000000" transform="translate(158,333)"/>
<path d="M0 0 C5.317 4.258 7.415 9.298 8.25 16.008 C8.47 19.629 8.008 21.982 6.438 25.25 C0.687 31.737 -8.279 34.313 -16.125 37.5 C-17.42 38.03 -18.715 38.561 -20.01 39.093 C-22.689 40.192 -25.37 41.289 -28.051 42.384 C-34.063 44.842 -40.062 47.328 -46.062 49.812 C-47.803 50.532 -47.803 50.532 -49.579 51.265 C-56.589 54.163 -63.589 57.083 -70.582 60.02 C-73.04 61.05 -75.499 62.08 -77.957 63.11 C-79.554 63.781 -81.15 64.452 -82.746 65.125 C-84.983 66.069 -87.222 67.007 -89.461 67.945 C-90.12 68.225 -90.779 68.505 -91.459 68.793 C-98.316 71.654 -104.527 73.735 -112 73 C-117.357 68.769 -119.167 62.361 -121 56 C-121.404 52.159 -120.422 49.709 -118.438 46.375 C-112.78 40.862 -105.842 37.89 -98.551 35.109 C-97.657 34.76 -96.764 34.412 -95.844 34.052 C-93.003 32.944 -90.158 31.846 -87.312 30.75 C-72.747 25.111 -58.311 19.26 -44 13 C-43.34 12.711 -42.68 12.423 -41.999 12.125 C-37.239 10.04 -32.489 7.933 -27.74 5.822 C-24.832 4.536 -21.918 3.264 -19 2 C-18.078 1.596 -17.157 1.193 -16.208 0.777 C-15.333 0.407 -14.459 0.037 -13.559 -0.344 C-12.792 -0.672 -12.026 -1 -11.236 -1.338 C-7.18 -2.539 -3.733 -1.87 0 0 Z M-19.188 4.625 C-20.863 5.471 -22.542 6.312 -24.223 7.148 C-25.141 7.608 -26.059 8.068 -27.004 8.542 C-32.635 11.282 -38.378 13.766 -44.125 16.25 C-45.065 16.657 -45.065 16.657 -46.025 17.073 C-58.993 22.679 -72.11 27.9 -85.273 33.027 C-85.903 33.273 -86.533 33.52 -87.182 33.773 C-90.545 35.079 -93.919 36.335 -97.321 37.536 C-98.395 37.92 -98.395 37.92 -99.49 38.313 C-100.849 38.798 -102.212 39.273 -103.579 39.736 C-108.858 41.631 -112.956 44.306 -116.375 48.812 C-118.684 56.892 -115.811 62.891 -112 70 C-110.861 71.36 -110.861 71.36 -107.832 71.188 C-96.431 70.629 -84.685 63.805 -74.332 59.214 C-70.066 57.323 -65.793 55.45 -61.52 53.578 C-60.648 53.196 -59.776 52.814 -58.878 52.421 C-48.385 47.839 -37.812 43.452 -27.228 39.086 C-23.832 37.685 -20.441 36.272 -17.053 34.853 C-15.636 34.264 -14.216 33.681 -12.795 33.104 C-10.596 32.209 -8.405 31.298 -6.215 30.383 C-5.549 30.117 -4.883 29.852 -4.197 29.578 C0.056 27.776 2.474 25.865 5 22 C6.859 16.547 5.375 12.038 3 7 C0.942 4.094 -0.476 2.421 -3.962 1.458 C-10.14 0.59 -13.777 1.695 -19.188 4.625 Z " fill="#000000" transform="translate(449,356)"/>
<path d="M0 0 C0.66 0 1.32 0 2 0 C0.971 8.011 -5.098 14.854 -11.312 19.688 C-13.95 21.587 -14.649 22 -18 22 C-16.519 18.514 -14.552 16.401 -11.812 13.812 C-7.905 10.019 -4.598 6.061 -1.41 1.652 C-0.945 1.107 -0.479 0.562 0 0 Z " fill="#000000" transform="translate(764,354)"/>
<path d="M0 0 C0.66 0.66 1.32 1.32 2 2 C1.625 5.125 1.625 5.125 1 8 C-0.48 7.886 -1.959 7.759 -3.438 7.625 C-4.261 7.555 -5.085 7.486 -5.934 7.414 C-6.616 7.277 -7.297 7.141 -8 7 C-8.33 6.34 -8.66 5.68 -9 5 C-6.36 5 -3.72 5 -1 5 C-0.67 3.35 -0.34 1.7 0 0 Z " fill="#000000" transform="translate(444,370)"/>
<path d="M0 0 C0.99 0.33 1.98 0.66 3 1 C4.153 7.342 4.095 13.567 4 20 C3.34 20 2.68 20 2 20 C0.388 13.235 -0.266 6.95 0 0 Z " fill="#000000" transform="translate(663,372)"/>
<path d="M0 0 C0.66 0 1.32 0 2 0 C4.72 9.615 6.16 17.993 6 28 C5.01 27.67 4.02 27.34 3 27 C2.299 23.252 1.617 19.502 0.938 15.75 C0.738 14.687 0.539 13.623 0.334 12.527 C0.15 11.503 -0.033 10.478 -0.223 9.422 C-0.395 8.479 -0.568 7.537 -0.746 6.565 C-0.995 4.048 -0.787 2.382 0 0 Z " fill="#000000" transform="translate(604,375)"/>
<path d="M0 0 C0.99 0 1.98 0 3 0 C3.33 4.62 3.66 9.24 4 14 C3.34 14 2.68 14 2 14 C0.409 9.127 -0.212 5.192 0 0 Z " fill="#000000" transform="translate(646,376)"/>
<path d="M0 0 C0.66 0.33 1.32 0.66 2 1 C2.312 3.549 2.513 6.004 2.625 8.562 C2.664 9.273 2.702 9.984 2.742 10.717 C2.837 12.477 2.919 14.239 3 16 C2.34 16.33 1.68 16.66 1 17 C0.498 14.709 -0.002 12.417 -0.5 10.125 C-0.918 8.211 -0.918 8.211 -1.344 6.258 C-2 3 -2 3 -2 1 C-1.34 0.67 -0.68 0.34 0 0 Z " fill="#000000" transform="translate(656,375)"/>
<path d="M0 0 C1.732 0.155 1.732 0.155 3.5 0.312 C5.816 3.786 6.096 5.226 5.5 9.312 C3.312 11.312 3.312 11.312 0.5 12.312 C-3.353 11.416 -4.268 10.661 -6.5 7.312 C-6.021 2.405 -5.185 0.463 0 0 Z " fill="#000000" transform="translate(566.5,377.6875)"/>
<path d="M0 0 C2.5 0.25 2.5 0.25 4.5 2.25 C4.17 5.547 3.877 6.873 1.5 9.25 C-3.056 8.694 -3.056 8.694 -4.5 7.25 C-4.688 4.812 -4.688 4.812 -4.5 2.25 C-2.5 0.25 -2.5 0.25 0 0 Z " fill="#000000" transform="translate(102.5,387.75)"/>
<path d="M0 0 C3.593 1.333 5.956 2.516 7.847 5.95 C8.209 6.907 8.572 7.863 8.945 8.848 C9.572 10.456 9.572 10.456 10.211 12.097 C10.644 13.236 11.077 14.374 11.523 15.547 C12.449 17.849 13.378 20.15 14.312 22.449 C15.743 25.997 17.172 29.544 18.594 33.096 C19.29 34.818 19.29 34.818 20 36.574 C20.413 37.603 20.827 38.631 21.252 39.691 C22.487 42.465 23.963 44.949 25.523 47.547 C26.023 50.109 26.023 50.109 25.523 52.547 C21.209 56.642 15.948 59.149 10.711 61.859 C9.787 62.346 8.863 62.832 7.911 63.333 C3.557 65.595 -0.779 67.736 -5.344 69.539 C-6.077 69.831 -6.811 70.123 -7.567 70.425 C-8.926 70.949 -10.296 71.448 -11.677 71.913 C-13.793 72.652 -13.793 72.652 -16.477 74.547 C-18.378 79.673 -18.786 84.586 -19.102 90.047 C-19.176 91.274 -19.251 92.501 -19.328 93.766 C-19.377 94.683 -19.426 95.601 -19.477 96.547 C-23.477 96.547 -23.477 96.547 -25.781 94.371 C-26.652 93.337 -27.508 92.29 -28.352 91.234 C-28.823 90.66 -29.294 90.086 -29.78 89.495 C-36.323 81.418 -42.409 72.983 -48.477 64.547 C-49.047 63.755 -49.617 62.964 -50.205 62.148 C-51.843 59.869 -53.474 57.584 -55.102 55.297 C-55.586 54.619 -56.071 53.94 -56.57 53.241 C-63.952 42.781 -63.952 42.781 -65.105 37.871 C-64.303 34.905 -62.83 33.984 -60.265 32.418 C-59.349 31.894 -59.349 31.894 -58.414 31.359 C-57.105 30.565 -55.796 29.77 -54.488 28.973 C-53.815 28.569 -53.141 28.165 -52.447 27.749 C-49.478 25.938 -46.606 23.994 -43.727 22.047 C-42.493 21.226 -41.258 20.406 -40.023 19.586 C-36.907 17.512 -33.809 15.413 -30.716 13.304 C-28.394 11.726 -26.063 10.163 -23.73 8.602 C-22.569 7.821 -21.412 7.034 -20.259 6.241 C-18.623 5.117 -16.972 4.015 -15.32 2.914 C-14.363 2.266 -13.406 1.617 -12.42 0.949 C-8.196 -1.063 -4.532 -0.829 0 0 Z M-7.775 2.616 C-8.677 3.177 -9.579 3.738 -10.508 4.316 C-12.047 5.266 -12.047 5.266 -13.617 6.235 C-14.726 6.936 -15.834 7.637 -16.977 8.359 C-18.127 9.079 -19.278 9.799 -20.43 10.519 C-24.127 12.839 -27.804 15.188 -31.477 17.547 C-32.109 17.953 -32.74 18.358 -33.392 18.776 C-37.166 21.203 -40.929 23.648 -44.678 26.115 C-45.873 26.9 -47.07 27.683 -48.269 28.464 C-49.949 29.56 -51.619 30.67 -53.289 31.781 C-54.244 32.413 -55.199 33.044 -56.184 33.694 C-58.474 35.545 -59.436 36.829 -60.477 39.547 C-57.04 38.292 -54.333 36.865 -51.414 34.672 C-35.242 23.124 -17.307 13.29 0.523 4.547 C-3.411 1.685 -3.411 1.685 -7.775 2.616 Z M-4.727 10.047 C-5.44 10.411 -6.153 10.775 -6.887 11.149 C-8.369 11.908 -9.849 12.67 -11.328 13.436 C-13.28 14.445 -15.239 15.442 -17.199 16.438 C-30.886 23.476 -43.71 31.979 -56.477 40.547 C-55.306 44.06 -54.371 44.655 -51.477 46.859 C-47.311 50.096 -43.212 53.393 -39.149 56.759 C-36.935 58.592 -34.712 60.416 -32.488 62.238 C-30.15 64.157 -27.845 66.094 -25.559 68.074 C-24.789 68.725 -24.019 69.376 -23.227 70.047 C-22.603 70.593 -21.979 71.14 -21.336 71.703 C-19.443 72.818 -19.443 72.818 -17.254 71.792 C-14.191 70.419 -11.183 68.965 -8.18 67.465 C-7.587 67.169 -6.994 66.873 -6.383 66.568 C-5.131 65.943 -3.881 65.316 -2.631 64.689 C-0.748 63.745 1.138 62.805 3.023 61.865 C9.609 58.574 16.134 55.208 22.523 51.547 C20.949 46.512 18.932 41.753 16.836 36.922 C12.569 26.962 8.984 16.81 5.523 6.547 C1.531 6.547 -1.26 8.258 -4.727 10.047 Z M-54.477 48.547 C-52.892 53.492 -49.983 57.121 -46.852 61.172 C-45.758 62.606 -44.666 64.041 -43.574 65.477 C-43.042 66.174 -42.51 66.871 -41.961 67.589 C-40.033 70.132 -38.156 72.709 -36.289 75.297 C-33.394 79.292 -30.482 83.274 -27.539 87.234 C-26.788 88.249 -26.036 89.263 -25.262 90.309 C-24.673 91.047 -24.084 91.786 -23.477 92.547 C-23.147 92.547 -22.817 92.547 -22.477 92.547 C-22.139 90.318 -21.807 88.089 -21.477 85.859 C-21.198 83.997 -21.198 83.997 -20.914 82.098 C-20.324 77.82 -20.324 77.82 -20.477 73.547 C-21.887 72.084 -21.887 72.084 -23.977 71.047 C-28.852 68.075 -33.197 64.661 -37.602 61.047 C-38.27 60.501 -38.938 59.955 -39.627 59.393 C-43.499 56.215 -47.298 52.976 -51.027 49.631 C-52.442 48.347 -52.442 48.347 -54.477 48.547 Z " fill="#000000" transform="translate(173.4765625,389.453125)"/>
<path d="M0 0 C0.66 0 1.32 0 2 0 C1.67 1.98 1.34 3.96 1 6 C0.01 6 -0.98 6 -2 6 C-1.34 4.02 -0.68 2.04 0 0 Z " fill="#000000" transform="translate(396,391)"/>
<path d="M0 0 C0.66 0 1.32 0 2 0 C2 2.64 2 5.28 2 8 C-0.64 8.33 -3.28 8.66 -6 9 C-6.33 8.01 -6.66 7.02 -7 6 C-5.02 5.67 -3.04 5.34 -1 5 C-0.67 3.35 -0.34 1.7 0 0 Z " fill="#000000" transform="translate(683,393)"/>
<path d="M0 0 C0.66 0.33 1.32 0.66 2 1 C1.67 2.65 1.34 4.3 1 6 C0.01 6 -0.98 6 -2 6 C-1.34 4.02 -0.68 2.04 0 0 Z " fill="#000000" transform="translate(383,396)"/>
<path d="M0 0 C0 0.66 0 1.32 0 2 C-3.465 3.485 -3.465 3.485 -7 5 C-7 4.01 -7 3.02 -7 2 C-4.353 0.539 -3.106 0 0 0 Z " fill="#000000" transform="translate(356,409)"/>
<path d="M0 0 C0.99 0.33 1.98 0.66 3 1 C1.612 4.354 0.114 6.113 -3 8 C-3.99 8 -4.98 8 -6 8 C-6 7.34 -6 6.68 -6 6 C-4.35 4.646 -2.683 3.313 -1 2 C-0.67 1.34 -0.34 0.68 0 0 Z " fill="#000000" transform="translate(752,411)"/>
<path d="M0 0 C-2.127 4.929 -5.832 7.464 -9.938 10.75 C-10.666 11.352 -11.395 11.954 -12.146 12.574 C-12.85 13.143 -13.553 13.711 -14.277 14.297 C-14.919 14.816 -15.561 15.335 -16.222 15.87 C-18 17 -18 17 -21 17 C-18.209 10.176 -7.737 0 0 0 Z " fill="#000000" transform="translate(161,414)"/>
<path d="M0 0 C2.475 0.99 2.475 0.99 5 2 C4.34 3.65 3.68 5.3 3 7 C1.35 7 -0.3 7 -2 7 C-2.33 6.01 -2.66 5.02 -3 4 C-2.34 3.67 -1.68 3.34 -1 3 C-0.67 2.01 -0.34 1.02 0 0 Z " fill="#000000" transform="translate(181,424)"/>
<path d="M0 0 C0.99 0.99 0.99 0.99 2 2 C-28.1 10.657 -59.49 17.681 -91 17 C-91 16.34 -91 15.68 -91 15 C-89.698 14.85 -88.396 14.699 -87.054 14.544 C-61.113 11.528 -35.616 8.186 -10.196 2.087 C-8.928 1.794 -7.659 1.501 -6.352 1.199 C-4.605 0.785 -4.605 0.785 -2.823 0.362 C-1.891 0.243 -0.96 0.123 0 0 Z " fill="#000000" transform="translate(691,423)"/>
<path d="M0 0 C-6.374 5.178 -13.007 9.7 -20 14 C-20 10 -20 10 -18.595 8.52 C-17.95 8.074 -17.305 7.628 -16.641 7.168 C-15.585 6.436 -15.585 6.436 -14.508 5.689 C-13.763 5.194 -13.018 4.698 -12.25 4.188 C-11.156 3.415 -11.156 3.415 -10.039 2.627 C-4.026 -1.456 -4.026 -1.456 0 0 Z " fill="#000000" transform="translate(166,426)"/>
<path d="M0 0 C-1.255 3.764 -2.526 4.25 -5.875 6.25 C-6.759 6.791 -7.644 7.333 -8.555 7.891 C-11 9 -11 9 -14 8 C-12.73 7.041 -11.459 6.083 -10.188 5.125 C-9.48 4.591 -8.772 4.058 -8.043 3.508 C-3.29 0 -3.29 0 0 0 Z " fill="#000000" transform="translate(166,438)"/>
<path d="M0 0 C0.66 0.33 1.32 0.66 2 1 C1.688 3.375 1.688 3.375 1 6 C0.01 6.66 -0.98 7.32 -2 8 C-1.125 1.125 -1.125 1.125 0 0 Z " fill="#000000" transform="translate(418,442)"/>
<path d="M0 0 C6.181 5.104 11.798 10.683 17.438 16.375 C18.36 17.302 19.282 18.229 20.232 19.184 C22.491 21.453 24.746 23.726 27 26 C26.34 26.66 25.68 27.32 25 28 C21.767 24.796 18.539 21.586 15.312 18.375 C14.4 17.471 13.488 16.568 12.549 15.637 C3.35 6.471 3.35 6.471 0 2 C0 1.34 0 0.68 0 0 Z " fill="#000000" transform="translate(50,451)"/>
<path d="M0 0 C3 0.25 3 0.25 5 2.25 C5.363 5.084 5.357 6.655 3.875 9.125 C2 10.25 2 10.25 -1.125 10 C-4 9.25 -4 9.25 -5 8.25 C-5.188 5.312 -5.188 5.312 -5 2.25 C-3 0.25 -3 0.25 0 0 Z " fill="#000000" transform="translate(716,450.75)"/>
<path d="M0 0 C7.828 3.594 13.437 10.402 19.02 16.766 C20.908 18.96 20.908 18.96 22.762 20.672 C24 22 24 22 24 24 C19.957 23.461 18.068 21.455 15.234 18.633 C13.9 17.304 13.9 17.304 12.539 15.949 C11.619 15.017 10.698 14.085 9.75 13.125 C8.346 11.739 8.346 11.739 6.914 10.324 C6.03 9.436 5.145 8.548 4.234 7.633 C3.422 6.817 2.61 6.001 1.772 5.161 C0 3 0 3 0 0 Z " fill="#000000" transform="translate(79,454)"/>
<path d="M0 0 C0 0.66 0 1.32 0 2 C-5.176 5.223 -5.176 5.223 -7 6 C-7.99 5.67 -8.98 5.34 -10 5 C-4.032 0 -4.032 0 0 0 Z " fill="#000000" transform="translate(377,460)"/>
<path d="M0 0 C-0.973 2.654 -1.658 3.799 -4.125 5.25 C-7.877 6.229 -11.126 6.131 -15 6 C-15.33 5.34 -15.66 4.68 -16 4 C-13.9 3.134 -11.795 2.283 -9.688 1.438 C-8.516 0.962 -7.344 0.486 -6.137 -0.004 C-3 -1 -3 -1 0 0 Z " fill="#000000" transform="translate(633,463)"/>
<path d="M0 0 C0.99 0.99 1.98 1.98 3 3 C-7.662 15.257 -21.296 30.322 -38.25 32.875 C-39.611 32.937 -39.611 32.937 -41 33 C-41 32.34 -41 31.68 -41 31 C-40.285 30.671 -39.569 30.343 -38.832 30.004 C-24.02 22.933 -10.052 13.151 0 0 Z " fill="#000000" transform="translate(683,464)"/>
<path d="M0 0 C2.751 2.751 2.687 5.028 3.039 8.801 C3 11 3 11 1.688 13.562 C0 15 0 15 -2 15 C-1.67 14.01 -1.34 13.02 -1 12 C-0.777 9.941 -0.593 7.878 -0.438 5.812 C-0.354 4.726 -0.27 3.639 -0.184 2.52 C-0.093 1.272 -0.093 1.272 0 0 Z " fill="#000000" transform="translate(263,486)"/>
<path d="M0 0 C2.952 2.573 3.856 4.218 4.562 8.062 C4 11 4 11 1.875 13.375 C-1.497 15.281 -3.19 15.649 -7 15 C-9.375 13.438 -9.375 13.438 -11 11 C-11.563 7.06 -11.604 4.942 -9.438 1.562 C-6.033 -0.62 -3.966 -0.637 0 0 Z " fill="#000000" transform="translate(187,487)"/>
<path d="M0 0 C0.99 0.33 1.98 0.66 3 1 C3.315 6.99 2.682 10.636 0 16 C-0.99 16 -1.98 16 -3 16 C-2.783 15.013 -2.567 14.025 -2.344 13.008 C-2.065 11.726 -1.787 10.445 -1.5 9.125 C-1.222 7.849 -0.943 6.573 -0.656 5.258 C0.066 2.227 0.066 2.227 0 0 Z " fill="#000000" transform="translate(272,491)"/>
<path d="M0 0 C0.66 0 1.32 0 2 0 C1.783 0.592 1.567 1.183 1.344 1.793 C-0.778 7.737 -0.778 7.737 -1 14 C-1.99 13.67 -2.98 13.34 -4 13 C-4.454 7.328 -3.651 4.402 0 0 Z " fill="#000000" transform="translate(280,505)"/>
<path d="M0 0 C3.073 2.235 5.596 4.61 8.031 7.5 C12.579 12.755 17.503 17.611 22.438 22.5 C23.821 23.877 23.821 23.877 25.232 25.281 C27.486 27.523 29.742 29.763 32 32 C31.67 32.99 31.34 33.98 31 35 C30.408 34.397 29.817 33.793 29.207 33.172 C24.481 28.345 24.481 28.345 19.375 23.938 C15.793 21.015 12.972 17.528 10 14 C9.11 12.961 8.219 11.922 7.328 10.883 C6.406 9.797 5.484 8.711 4.562 7.625 C4.113 7.101 3.664 6.577 3.2 6.037 C0 2.229 0 2.229 0 0 Z " fill="#000000" transform="translate(117,512)"/>
<path d="M0 0 C1.971 3.943 0.911 8.813 0 13 C-1.476 15.289 -2.782 16.351 -5 18 C-4.716 16.103 -4.422 14.207 -4.125 12.312 C-3.963 11.257 -3.8 10.201 -3.633 9.113 C-2.235 2.235 -2.235 2.235 0 0 Z " fill="#000000" transform="translate(289,512)"/>
<path d="M0 0 C0.66 0 1.32 0 2 0 C1.67 4.62 1.34 9.24 1 14 C0.01 14 -0.98 14 -2 14 C-2.212 8.808 -1.591 4.873 0 0 Z " fill="#000000" transform="translate(265,513)"/>
<path d="M0 0 C1.863 0.266 1.863 0.266 4 1 C5.23 2.672 5.23 2.672 6.188 4.75 C6.511 5.425 6.835 6.101 7.168 6.797 C10.495 15.606 9.311 25.515 8 34.625 C5.931 48.004 5.931 48.004 11 60 C11.33 60.66 11.66 61.32 12 62 C8.648 60.822 6.113 59.918 4 57 C0.121 48.273 2.644 38.028 4.125 28.938 C5.666 18.522 5.172 9.309 0 0 Z " fill="#000000" transform="translate(564,513)"/>
<path d="M0 0 C0.99 0.33 1.98 0.66 3 1 C3.33 2.65 3.66 4.3 4 6 C3.01 5.67 2.02 5.34 1 5 C0.505 2.525 0.505 2.525 0 0 Z " fill="#000000" transform="translate(598,514)"/>
<path d="M0 0 C0.66 0 1.32 0 2 0 C3.656 5.067 4.352 9.651 4.312 15 C4.311 15.74 4.31 16.48 4.309 17.242 C4.224 22.176 3.581 26.731 2.5 31.562 C-0.315 44.237 -0.686 56.819 6.379 68.227 C7.523 69.863 8.752 71.44 10 73 C4.963 71.135 2.245 67.313 -0.207 62.758 C-4.615 52.509 -4.194 41.035 -1.5 30.375 C0.983 20.444 0.256 10.164 0 0 Z " fill="#000000" transform="translate(296,515)"/>
<path d="M0 0 C3 1 3 1 4.352 3.512 C4.982 5.084 4.982 5.084 5.625 6.688 C6.05 7.723 6.476 8.758 6.914 9.824 C10.459 20.191 9.028 30.501 7.125 41.062 C6.951 42.106 6.777 43.149 6.598 44.225 C6.424 45.214 6.25 46.203 6.07 47.223 C5.913 48.117 5.756 49.012 5.594 49.934 C5.398 50.616 5.202 51.298 5 52 C4.01 52.495 4.01 52.495 3 53 C2.76 45.466 3.142 38.332 4.125 30.875 C5.418 20.566 3.778 12.617 0 3 C0 2.01 0 1.02 0 0 Z " fill="#000000" transform="translate(590,515)"/>
<path d="M0 0 C3.299 1.024 4.013 2.024 5.723 5.105 C7.272 9.182 7.495 12.985 7.438 17.312 C7.434 18.081 7.43 18.85 7.426 19.643 C7.212 28.445 5.979 39.043 2 47 C1.34 47 0.68 47 0 47 C0.394 40.579 0.881 34.266 2.062 27.938 C3.787 18.02 3.521 9.473 0 0 Z " fill="#000000" transform="translate(540,522)"/>
<path d="M0 0 C4.743 2.934 8.502 6.253 12.375 10.25 C12.92 10.804 13.466 11.359 14.027 11.93 C15.356 13.282 16.679 14.64 18 16 C17.67 16.66 17.34 17.32 17 18 C13.957 16.642 11.877 15.115 9.547 12.742 C8.928 12.117 8.309 11.492 7.672 10.848 C7.038 10.197 6.403 9.546 5.75 8.875 C5.1 8.216 4.451 7.558 3.781 6.879 C2.183 5.257 0.589 3.631 -1 2 C-0.67 1.34 -0.34 0.68 0 0 Z " fill="#000000" transform="translate(161,525)"/>
<path d="M0 0 C0.99 0.33 1.98 0.66 3 1 C3 2.65 3 4.3 3 6 C2.01 6 1.02 6 0 6 C0 4.02 0 2.04 0 0 Z " fill="#000000" transform="translate(601,526)"/>
<path d="M0 0 C0.33 0 0.66 0 1 0 C0.67 4.95 0.34 9.9 0 15 C-0.66 14.67 -1.32 14.34 -2 14 C-2.054 12.417 -2.093 10.834 -2.125 9.25 C-2.148 8.368 -2.171 7.487 -2.195 6.578 C-1.991 3.886 -1.366 2.301 0 0 Z " fill="#000000" transform="translate(274,534)"/>
<path d="M0 0 C0.66 0.33 1.32 0.66 2 1 C1.389 7.476 1.389 7.476 -0.438 9.938 C-2 11 -2 11 -4 11 C-3.711 10.299 -3.423 9.597 -3.125 8.875 C-1.979 5.945 -0.974 2.991 0 0 Z " fill="#000000" transform="translate(288,537)"/>
<path d="M0 0 C0.99 0.33 1.98 0.66 3 1 C1.557 4.366 -0.333 6.51 -3 9 C-3.33 8.34 -3.66 7.68 -4 7 C-2.886 4.525 -1.418 2.321 0 0 Z " fill="#000000" transform="translate(470,547)"/>
<path d="M0 0 C0.99 0.33 1.98 0.66 3 1 C2.602 1.519 2.203 2.039 1.793 2.574 C-0.549 5.657 -2.797 8.652 -4.75 12 C-5.163 12.66 -5.575 13.32 -6 14 C-6.66 14 -7.32 14 -8 14 C-7.6 8.534 -5.558 5.024 -2 1 C-1.34 0.67 -0.68 0.34 0 0 Z " fill="#000000" transform="translate(481,553)"/>
<path d="M0 0 C0.66 0 1.32 0 2 0 C2 2.64 2 5.28 2 8 C1.01 8 0.02 8 -1 8 C-0.67 5.36 -0.34 2.72 0 0 Z " fill="#000000" transform="translate(281,558)"/>
<path d="M0 0 C0.99 0.33 1.98 0.66 3 1 C1.719 2.707 0.382 4.374 -1 6 C-1.66 6 -2.32 6 -3 6 C-3.66 7.32 -4.32 8.64 -5 10 C-5.99 10 -6.98 10 -8 10 C-6.569 4.99 -4.17 2.894 0 0 Z " fill="#000000" transform="translate(488,561)"/>
<path d="M0 0 C2.168 0.367 2.168 0.367 4 1 C3.092 2.132 2.173 3.255 1.25 4.375 C0.74 5.001 0.229 5.628 -0.297 6.273 C-2.082 8.083 -3.679 9.001 -6 10 C-5.694 6.431 -4.976 4.97 -2.688 2.125 C-1.801 1.424 -0.914 0.722 0 0 Z " fill="#000000" transform="translate(492,569)"/>
<path d="M0 0 C0.99 0 1.98 0 3 0 C1.951 2.622 1.351 3.794 -1.125 5.25 C-1.744 5.497 -2.363 5.745 -3 6 C-2.427 3.133 -2.139 2.139 0 0 Z " fill="#000000" transform="translate(498,578)"/>
<path d="M0 0 C2.99 0.462 5.986 0.75 9 1 C8.67 1.66 8.34 2.32 8 3 C-0.087 3.323 -0.087 3.323 -4 1.938 C-8.174 0.633 -11.77 1.005 -16 2 C-17.683 2.972 -19.354 3.966 -21 5 C-23.137 4.586 -23.137 4.586 -25 4 C-23.732 3.184 -22.46 2.372 -21.188 1.562 C-20.48 1.11 -19.772 0.658 -19.043 0.191 C-12.907 -3.387 -6.296 -2.676 0 0 Z " fill="#000000" transform="translate(389,590)"/>
<path d="M0 0 C0 0.66 0 1.32 0 2 C-2.31 2.66 -4.62 3.32 -7 4 C-7 3.01 -7 2.02 -7 1 C-4 0 -4 0 0 0 Z " fill="#000000" transform="translate(361,599)"/>
<path d="M0 0 C1.756 0.014 1.756 0.014 3.547 0.027 C4.439 0.039 5.331 0.051 6.25 0.062 C3.091 3.221 -1.339 3.129 -5.633 3.742 C-10.554 4.547 -13.659 6.06 -17.75 9.062 C-20.501 9.979 -22.109 10.171 -24.938 10.125 C-26.825 10.094 -26.825 10.094 -28.75 10.062 C-29.08 9.403 -29.41 8.742 -29.75 8.062 C-27.832 8.001 -27.832 8.001 -25.875 7.938 C-20.729 7.401 -17.256 5.281 -13.012 2.438 C-8.717 -0.174 -4.974 -0.05 0 0 Z " fill="#000000" transform="translate(372.75,605.9375)"/>
</svg>
