<?xml version="1.0" encoding="UTF-8"?>
<!-- Generator: visioncortex VTracer 0.6.0 -->
<svg version="1.1" xmlns="http://www.w3.org/2000/svg" width="847" height="847">
<path d="M0 0 C0.33 0 0.66 0 1 0 C1.212 5.889 0.553 10.833 -1 16.5 C-1.191 17.227 -1.382 17.954 -1.578 18.703 C-2.043 20.471 -2.52 22.236 -3 24 C-4.32 24 -5.64 24 -7 24 C-6.469 18.028 -5.154 13.054 -2.938 7.5 C-2.656 6.773 -2.374 6.046 -2.084 5.297 C-1.397 3.528 -0.7 1.764 0 0 Z " fill="#000000" transform="translate(521,61)"/>
<path d="M0 0 C-2.444 3.667 -3.816 3.933 -8 5 C-10.875 5.125 -10.875 5.125 -13 5 C-13 3.68 -13 2.36 -13 1 C-11.591 0.44 -10.172 -0.097 -8.75 -0.625 C-7.961 -0.927 -7.172 -1.228 -6.359 -1.539 C-3.501 -2.098 -2.41 -1.537 0 0 Z " fill="#000000" transform="translate(308,93)"/>
<path d="M0 0 C-0.33 0.66 -0.66 1.32 -1 2 C-3.746 2.746 -3.746 2.746 -7.438 3.438 C-8.097 3.562 -8.756 3.686 -9.436 3.814 C-11.622 4.22 -13.811 4.611 -16 5 C-17.16 5.212 -17.16 5.212 -18.344 5.428 C-20.707 5.857 -23.072 6.275 -25.438 6.688 C-26.17 6.819 -26.902 6.95 -27.656 7.086 C-32.502 7.904 -37.086 8.116 -42 8 C-41.67 6.68 -41.34 5.36 -41 4 C-27.465 -0.088 -14.011 -0.271 0 0 Z " fill="#000000" transform="translate(379,117)"/>
<path d="M0 0 C0.99 0.33 1.98 0.66 3 1 C-9.931 19.524 -9.931 19.524 -14 23 C-14.99 23 -15.98 23 -17 23 C-16.397 19.29 -14.804 17.188 -12.438 14.312 C-11.725 13.445 -11.012 12.577 -10.277 11.684 C-6.92 7.727 -3.489 3.841 0 0 Z " fill="#000000" transform="translate(573,119)"/>
<path d="M0 0 C-0.625 1.938 -0.625 1.938 -2 4 C-5.125 4.75 -5.125 4.75 -8 5 C-7.75 3.125 -7.75 3.125 -7 1 C-4.093 -1.035 -3.471 -1.157 0 0 Z " fill="#000000" transform="translate(308,130)"/>
<path d="M0 0 C0.66 0.33 1.32 0.66 2 1 C-2.564 8.113 -7.199 14.837 -13 21 C-13.99 20.67 -14.98 20.34 -16 20 C-15.411 16.576 -14.261 14.858 -11.875 12.363 C-11.251 11.704 -10.627 11.045 -9.984 10.365 C-9.002 9.349 -9.002 9.349 -8 8.312 C-7.345 7.623 -6.69 6.934 -6.016 6.225 C-1.887 1.887 -1.887 1.887 0 0 Z " fill="#000000" transform="translate(609,130)"/>
<path d="M0 0 C0.66 0.33 1.32 0.66 2 1 C1.688 2.875 1.688 2.875 1 5 C-2 7 -2 7 -6 7 C-4.607 3.633 -3.021 2.014 0 0 Z " fill="#000000" transform="translate(183,139)"/>
<path d="M0 0 C0.961 0.465 0.961 0.465 1.941 0.94 C12.736 6.189 22.401 12.824 32 20 C33.446 21.075 33.446 21.075 34.922 22.172 C67.005 47.255 88.387 82.329 100 121 C100.306 121.972 100.611 122.944 100.926 123.945 C102.33 128.884 103.114 133.762 103.668 138.859 C103.786 139.927 103.905 140.995 104.027 142.095 C104.255 144.244 104.463 146.396 104.647 148.549 C105.322 155.085 106.218 158.438 111 163 C111.779 163.802 112.557 164.604 113.359 165.43 C114.231 166.278 115.102 167.126 116 168 C124.515 176.329 132.645 184.613 140 194 C143.486 198.607 143.486 198.607 148 202 C147.836 201.071 147.673 200.141 147.504 199.184 C146.785 194.153 146.892 189.134 146.938 184.062 C146.942 183.092 146.947 182.122 146.951 181.123 C146.963 178.749 146.979 176.374 147 174 C148.32 174 149.64 174 151 174 C151.863 178.424 152.013 182.477 151.816 186.984 C150.613 200.728 150.613 200.728 155.25 213.125 C156.813 214.769 158.399 216.392 160 218 C162.156 220.717 164.197 223.517 166.25 226.312 C167.255 227.642 168.26 228.972 169.266 230.301 C169.73 230.933 170.194 231.564 170.672 232.215 C171.87 233.825 173.127 235.39 174.391 236.949 C176.58 241.1 176.185 243.964 175.5 248.5 C175.341 249.683 175.341 249.683 175.179 250.89 C173.183 264.658 169.726 277.071 158.562 286.184 C142.673 297.447 125.133 303.153 106 306 C104.817 306.184 103.633 306.369 102.414 306.559 C81.613 309.054 57.056 308.345 37 302 C36.974 301.189 36.948 300.378 36.922 299.543 C36.463 290.587 35.043 282.564 30 275 C30.379 266.704 33.523 258.357 36 250.5 C36.196 249.875 36.392 249.251 36.594 248.607 C62.316 166.84 62.316 166.84 86.812 151.688 C89.788 150.224 90.554 149.903 93.875 150.625 C94.927 151.306 94.927 151.306 96 152 C96.99 152.33 97.98 152.66 99 153 C92.349 103.825 70.324 58.11 30.75 26.875 C28.527 25.21 26.272 23.597 24 22 C23.387 21.565 22.775 21.13 22.144 20.681 C-7.679 -0.258 -42.04 -11.214 -78.375 -11.25 C-79.439 -11.252 -79.439 -11.252 -80.525 -11.253 C-91.915 -11.242 -102.873 -10.559 -114 -8 C-114.977 -7.783 -114.977 -7.783 -115.974 -7.562 C-146.213 -0.691 -172.544 14.865 -195 36 C-195.589 36.536 -196.178 37.072 -196.785 37.625 C-226.965 66.163 -243.901 110.144 -245.203 151.113 C-245.985 202.923 -225.75 249.166 -190.125 286.188 C-176.787 299.185 -160.924 310.247 -144 318 C-143.755 317.348 -143.51 316.695 -143.258 316.023 C-140.549 309.69 -137.747 306.302 -131.648 303.051 C-127.696 301.483 -124.24 301.137 -120 301 C-120 300.34 -120 299.68 -120 299 C-120.555 298.831 -121.109 298.661 -121.681 298.487 C-127.14 296.753 -132.145 294.645 -137.188 291.938 C-137.919 291.545 -138.651 291.153 -139.406 290.749 C-156.359 281.457 -171.549 268.759 -184 254 C-184.771 253.153 -185.542 252.306 -186.336 251.434 C-188 249 -188 249 -187.788 247.064 C-186.883 244.694 -185.806 243.379 -184.059 241.547 C-183.475 240.928 -182.892 240.309 -182.291 239.672 C-181.679 239.038 -181.068 238.403 -180.438 237.75 C-179.514 236.775 -179.514 236.775 -178.572 235.781 C-177.055 234.181 -175.53 232.588 -174 231 C-170.714 234.194 -167.761 237.456 -164.938 241.062 C-143.836 266.962 -114.565 284.467 -81 288 C-58.946 289.4 -35.486 288.389 -15.562 277.75 C-11.47 275.74 -8.506 275.322 -4 275 C-3.853 274.397 -3.706 273.793 -3.555 273.172 C-2.406 269.078 -1.529 266.516 1.562 263.5 C8.395 260.519 14.036 260.389 21 263 C21.135 262.149 21.271 261.298 21.41 260.422 C26.42 232.225 39.784 205.484 51.938 179.75 C52.484 178.59 52.484 178.59 53.042 177.407 C65.075 151.963 65.075 151.963 73 148 C74.874 147.93 76.75 147.916 78.625 147.938 C79.628 147.947 80.631 147.956 81.664 147.965 C82.82 147.982 82.82 147.982 84 148 C83.361 148.474 82.721 148.949 82.062 149.438 C49.252 176.891 35.662 230.137 26 270 C25.359 269.639 24.719 269.278 24.059 268.906 C18.898 266.137 15.001 264.077 9 265 C5.019 266.577 3.393 267.41 1 271 C0.606 273.324 0.265 275.658 0 278 C-0.808 278.098 -1.616 278.196 -2.449 278.297 C-10.587 279.262 -10.587 279.262 -17 284 C-19.668 287.557 -19.541 291.732 -19 296 C-18.301 298.12 -17.499 300.117 -16.559 302.141 C-15.828 304.574 -16.037 305.648 -17 308 C-27.503 321.639 -44.662 330.004 -60 337 C-61.118 337.521 -62.235 338.042 -63.387 338.578 C-73.82 343.099 -84.732 345.664 -95.742 348.387 C-100.295 349.519 -104.703 350.83 -109.102 352.46 C-111 353 -111 353 -115 353 C-114.653 343.461 -110.058 337.727 -103.312 331.25 C-91.274 320.921 -76.39 318.66 -61 318 C-61 317.01 -61 316.02 -61 315 C-81.625 316.563 -98.019 319.776 -113 335 C-117.933 340.797 -119.144 346.519 -119 354 C-119.33 354.66 -119.66 355.32 -120 356 C-120.523 362.388 -120.523 362.388 -118 368 C-115.624 369.184 -115.624 369.184 -113 370 C-112.361 370.351 -111.721 370.701 -111.062 371.062 C-101.168 375.56 -87.874 373.43 -78 370 C-64.878 364.724 -53.79 355.861 -46 344 C-45.197 342 -44.446 339.978 -43.75 337.938 C-41.055 330.719 -35.712 327.399 -29.647 323.192 C-23.599 318.814 -18.187 313.36 -13 308 C-12.492 308.482 -11.984 308.964 -11.461 309.461 C-7.498 313.097 -4.388 315.788 1 317 C0.441 327.607 -1.688 337.968 -3.688 348.375 C-3.867 349.314 -4.047 350.253 -4.233 351.221 C-10.025 381.282 -17.273 408.3 -39 431 C-40.046 432.158 -40.046 432.158 -41.113 433.34 C-50.394 443.265 -62.198 450.729 -76 451.438 C-82.25 451.202 -88.117 449.514 -92.891 445.352 C-97.695 440.011 -99.163 435.11 -100 428 C-100.33 429.98 -100.66 431.96 -101 434 C-102.79 431.314 -103.785 428.926 -104.851 425.911 C-107.827 417.656 -111.772 412.25 -118 406 C-133.387 388.892 -146.507 363.398 -146 340 C-146.557 339.829 -147.114 339.658 -147.688 339.482 C-153.067 337.77 -158.025 335.723 -163 333.062 C-163.724 332.676 -164.448 332.289 -165.195 331.89 C-209.219 307.733 -241.33 266.318 -256.061 218.655 C-264.403 189.963 -265.785 159.3 -260 130 C-259.861 129.271 -259.722 128.542 -259.578 127.791 C-256.071 109.913 -249.732 92.962 -241 77 C-240.153 75.434 -240.153 75.434 -239.289 73.836 C-232.671 62.06 -224.839 51.495 -215.543 41.719 C-213.743 39.794 -212.052 37.884 -210.387 35.852 C-207.241 32.094 -203.764 29.122 -200 26 C-199.214 25.338 -199.214 25.338 -198.413 24.662 C-189.444 17.128 -180.288 10.607 -170 5 C-169.055 4.482 -169.055 4.482 -168.091 3.954 C-150.974 -5.302 -133.036 -11.149 -114 -15 C-113.211 -15.165 -112.422 -15.33 -111.609 -15.5 C-74.085 -23.111 -34.098 -17.028 0 0 Z M-252 157 C-253.938 158.938 -253.24 162.492 -253.25 165.125 C-253.185 191.306 -246.798 216.667 -235 240 C-234.625 240.744 -234.25 241.489 -233.864 242.256 C-226.352 256.936 -217.035 270.065 -205.742 282.082 C-204 284 -204 284 -202 287 C-201.34 287 -200.68 287 -200 287 C-200 287.66 -200 288.32 -200 289 C-198.553 290.503 -198.553 290.503 -196.625 292.062 C-194.303 294.025 -192.015 295.986 -189.805 298.074 C-179.74 307.576 -168.221 314.933 -156.188 321.688 C-155.031 322.339 -155.031 322.339 -153.852 323.004 C-153.131 323.398 -152.41 323.793 -151.668 324.199 C-151.031 324.548 -150.395 324.897 -149.739 325.257 C-147.855 326.197 -147.855 326.197 -145 326 C-145.25 324.057 -145.25 324.057 -146 322 C-148.551 320.459 -151.01 319.154 -153.688 317.875 C-162.095 313.644 -169.548 308.725 -177 303 C-177.896 302.328 -178.792 301.657 -179.715 300.965 C-193.08 290.534 -205.398 277.975 -215 264 C-215.445 263.356 -215.891 262.712 -216.35 262.048 C-226.49 247.24 -234.146 231.948 -240 215 C-240.369 213.97 -240.737 212.94 -241.117 211.879 C-246.663 195.348 -248.592 178.157 -248.858 160.806 C-248.894 158.898 -248.894 158.898 -250 157 C-250.66 157 -251.32 157 -252 157 Z M86 195 C85.415 195.472 84.83 195.944 84.227 196.43 C75.569 204.275 69.574 215.436 64.375 225.75 C64.032 226.429 63.689 227.109 63.336 227.808 C61.917 230.723 61 232.716 61 236 C61.99 236 62.98 236 64 236 C64.485 235.045 64.969 234.09 65.469 233.105 C73.357 217.793 83.712 200.09 100 192.625 C100.66 192.419 101.32 192.212 102 192 C101.202 214.734 84.394 235.255 69.652 251.004 C67.787 252.825 67.787 252.825 68 255 C67.361 255.268 66.721 255.536 66.062 255.812 C63.669 256.887 63.669 256.887 63 260 C61.669 260.67 60.335 261.336 59 262 C56.971 263.758 55.008 265.529 53.062 267.375 C52.034 268.343 51.004 269.309 49.973 270.273 C49.478 270.737 48.983 271.201 48.473 271.679 C47.08 272.928 45.602 274.082 44.121 275.227 C43.071 276.104 43.071 276.104 42 277 C42 277.66 42 278.32 42 279 C47.443 278.678 50.41 275.43 54.25 271.938 C54.909 271.351 55.568 270.764 56.246 270.159 C57.562 268.986 58.874 267.81 60.182 266.63 C63.264 263.867 66.42 261.187 69.559 258.488 C71.232 257.106 71.232 257.106 71 255 C71.66 255 72.32 255 73 255 C74.503 253.553 74.503 253.553 76.062 251.625 C78.035 249.289 80.008 246.991 82.109 244.77 C94.085 232.093 105.952 215.427 106.25 197.375 C106.276 196.434 106.302 195.493 106.328 194.523 C106.199 191.979 106.199 191.979 104.711 190.199 C102.328 188.529 100.105 188.408 97.246 188.523 C92.784 189.47 89.484 192.175 86 195 Z M111 205 C110.758 206.195 110.515 207.39 110.266 208.621 C106.812 225.197 106.812 225.197 103 232 C102.319 233.241 102.319 233.241 101.625 234.508 C92.086 251.151 77.656 258.606 61 267 C61 267.66 61 268.32 61 269 C66.591 268.486 70.782 267.009 75.75 264.438 C76.447 264.081 77.143 263.725 77.861 263.357 C93.889 254.953 104.939 243.297 111.395 226.336 C113.511 219.471 114.595 213.176 114 206 C113.01 205.67 112.02 205.34 111 205 Z M-131 313 C-133.492 315.301 -133.492 315.301 -135 318 C-135 319.32 -135 320.64 -135 322 C-134.01 322 -133.02 322 -132 322 C-130.748 320.32 -129.504 318.632 -128.34 316.891 C-126.483 314.271 -124.332 312.199 -122 310 C-125.32 310 -128.155 311.403 -131 313 Z " fill="#000000" transform="translate(449,166)"/>
<path d="M0 0 C13.181 2.652 21.61 6.087 31 16 C32.289 18.281 32.289 18.281 33 20 C27.353 18.428 22.642 15.693 17.625 12.75 C16.813 12.285 16.001 11.819 15.164 11.34 C9.86 8.254 4.674 4.999 0 1 C0 0.67 0 0.34 0 0 Z " fill="#000000" transform="translate(471,150)"/>
<path d="M0 0 C-4.026 3.68 -7.81 7.082 -13 9 C-15.875 8.688 -15.875 8.688 -18 8 C-17.93 6.176 -17.93 6.176 -17 4 C-14.66 2.836 -12.585 1.985 -10.125 1.188 C-9.487 0.959 -8.849 0.73 -8.191 0.494 C-4.887 -0.634 -3.391 -1.13 0 0 Z " fill="#000000" transform="translate(629,155)"/>
<path d="M0 0 C0.66 0.66 1.32 1.32 2 2 C-17.507 21.753 -17.507 21.753 -22 24 C-18.398 14.143 -11.754 6.139 -2.562 1.125 C-1.717 0.754 -0.871 0.382 0 0 Z " fill="#000000" transform="translate(243,166)"/>
<path d="M0 0 C5.533 0.692 10.943 2.591 14.625 6.902 C17.072 10.636 18 12.401 18 17 C14.911 15.742 12.861 14.036 10.57 11.637 C7.711 8.656 4.735 5.789 1.793 2.891 C0 1 0 1 0 0 Z " fill="#000000" transform="translate(514,173)"/>
<path d="M0 0 C-1.87 2.447 -2.825 2.969 -5.918 3.512 C-7.536 3.599 -7.536 3.599 -9.188 3.688 C-10.274 3.753 -11.361 3.819 -12.48 3.887 C-13.728 3.943 -13.728 3.943 -15 4 C-15.33 2.68 -15.66 1.36 -16 0 C-10.313 -0.914 -5.687 -0.914 0 0 Z " fill="#000000" transform="translate(634,175)"/>
<path d="M0 0 C-1.613 5.108 -4.725 8.931 -7.938 13.125 C-8.476 13.84 -9.014 14.556 -9.568 15.293 C-14.61 21.944 -14.61 21.944 -17 24 C-19.461 23.926 -19.461 23.926 -22.375 23.312 C-23.457 23.105 -24.538 22.897 -25.652 22.684 C-26.757 22.458 -27.862 22.232 -29 22 C-59.795 15.825 -92.202 21.983 -118.441 39.242 C-146.932 58.526 -165.132 86.638 -172.094 120.266 C-173.312 127.021 -173.51 133.827 -173.285 140.68 C-173.263 145.645 -173.716 148.294 -177.277 151.898 C-178.498 152.956 -179.738 153.992 -181 155 C-181.757 155.684 -182.513 156.369 -183.293 157.074 C-184.231 157.873 -184.231 157.873 -185.188 158.688 C-187.355 160.549 -189.378 162.388 -191.375 164.438 C-193 166 -193 166 -195 166 C-196.998 156.439 -197.363 147.093 -197.312 137.375 C-197.31 136.622 -197.308 135.87 -197.306 135.094 C-197.254 123.831 -196.861 112.943 -194 102 C-193.694 100.808 -193.694 100.808 -193.382 99.592 C-184.754 66.862 -167.112 37.685 -140 17 C-139.185 16.346 -138.371 15.693 -137.531 15.02 C-118.835 0.564 -96.224 -7.62 -73 -11 C-72.212 -11.13 -71.425 -11.26 -70.613 -11.395 C-47.241 -14.733 -21.124 -10.37 0 0 Z " fill="#000000" transform="translate(430,189)"/>
<path d="M0 0 C1.32 0.66 2.64 1.32 4 2 C1.732 7.103 -2.138 10.68 -5.938 14.688 C-6.666 15.472 -7.395 16.256 -8.146 17.064 C-8.85 17.81 -9.553 18.556 -10.277 19.324 C-10.919 20.006 -11.561 20.687 -12.222 21.389 C-14 23 -14 23 -17 24 C-15.555 20.891 -13.817 18.241 -11.777 15.488 C-10.846 14.229 -10.846 14.229 -9.896 12.943 C-9.25 12.075 -8.604 11.207 -7.938 10.312 C-6.962 8.993 -6.962 8.993 -5.967 7.646 C-1.163 1.163 -1.163 1.163 0 0 Z " fill="#000000" transform="translate(434,191)"/>
<path d="M0 0 C2.252 1.51 4.018 3.11 6 5 C6 5.66 6 6.32 6 7 C1.153 6.409 -2.607 5.021 -7 3 C-7 2.01 -7 1.02 -7 0 C-4.185 -1.407 -2.992 -0.952 0 0 Z " fill="#000000" transform="translate(158,194)"/>
<path d="M0 0 C9.99 2.258 18.406 10.515 26 17 C26.733 17.61 27.467 18.219 28.223 18.848 C32.873 22.781 37.506 26.977 41 32 C41 35 41 35 39.461 36.762 C38.773 37.397 38.084 38.033 37.375 38.688 C33.413 42.487 30.149 46.514 27 51 C23.174 50.447 21.675 48.885 19.125 46.062 C8.223 34.877 -5.159 27.905 -19 21 C-14.825 16.07 -10.538 11.28 -6.125 6.562 C-5.532 5.926 -4.939 5.29 -4.328 4.635 C-2.887 3.089 -1.444 1.544 0 0 Z " fill="#000000" transform="translate(441,196)"/>
<path d="M0 0 C0.66 0.33 1.32 0.66 2 1 C0.741 2.2 -0.533 3.384 -1.812 4.562 C-2.874 5.554 -2.874 5.554 -3.957 6.566 C-4.631 7.039 -5.305 7.513 -6 8 C-6.99 7.67 -7.98 7.34 -9 7 C-6.03 4.69 -3.06 2.38 0 0 Z " fill="#000000" transform="translate(275,204)"/>
<path d="M0 0 C0 0.99 0 1.98 0 3 C-3 5.188 -3 5.188 -6 7 C-4.607 3.633 -3.021 2.014 0 0 Z " fill="#000000" transform="translate(252,222)"/>
<path d="M0 0 C0.66 0.33 1.32 0.66 2 1 C1.851 8.024 -1.499 11.817 -6 17 C-6.99 16.67 -7.98 16.34 -9 16 C-7.635 12.334 -5.972 9.089 -3.938 5.75 C-3.41 4.879 -2.883 4.007 -2.34 3.109 C-1 1 -1 1 0 0 Z " fill="#000000" transform="translate(716,229)"/>
<path d="M0 0 C9.746 7.558 14.964 17.258 19.938 28.375 C20.705 30.062 20.705 30.062 21.487 31.783 C25.972 41.733 30.09 51.812 34 62 C46.274 58.645 46.274 58.645 55.03 50.147 C57.753 44.224 59.12 38.474 60.188 32.062 C60.512 30.199 60.839 28.335 61.168 26.473 C61.305 25.661 61.442 24.849 61.583 24.012 C62 22 62 22 63 20 C63.66 20 64.32 20 65 20 C65.508 21.027 66.016 22.055 66.539 23.113 C68.329 26.726 70.139 30.328 71.957 33.926 C72.867 35.736 73.763 37.553 74.656 39.371 C77.351 44.652 79.346 48.546 85 51 C94.045 53.428 103.708 53.976 113 55 C113 55.66 113 56.32 113 57 C109.094 58.953 105.188 60.906 101.281 62.859 C100.577 63.212 99.873 63.564 99.147 63.928 C97.699 64.651 96.249 65.371 94.798 66.088 C94.096 66.435 93.395 66.783 92.672 67.141 C92.044 67.45 91.416 67.76 90.769 68.079 C85.261 70.947 82.927 73.402 80.812 79.188 C78.391 87.284 77.224 95.655 76 104 C71.37 99.92 69.012 95.525 66.25 90.062 C62.609 83.261 59.601 77.735 52 75 C44.622 72.785 44.622 72.785 37 72 C36.67 72.66 36.34 73.32 36 74 C35.01 74 34.02 74 33 74 C32.34 73.01 31.68 72.02 31 71 C27.946 69.787 27.946 69.787 25 69 C25.495 67.515 25.495 67.515 26 66 C26.99 65.505 26.99 65.505 28 65 C27.406 59.239 25.246 54.429 22.938 49.188 C22.533 48.258 22.128 47.329 21.711 46.372 C15.999 33.337 9.924 20.584 3.149 8.066 C2.739 7.303 2.329 6.54 1.906 5.754 C1.538 5.077 1.17 4.399 0.791 3.701 C0 2 0 2 0 0 Z " fill="#000000" transform="translate(556,218)"/>
<path d="M0 0 C1.582 0.007 3.164 0.019 4.746 0.035 C5.552 0.04 6.359 0.044 7.189 0.049 C9.188 0.061 11.186 0.079 13.184 0.098 C10.182 3.398 7.565 4.148 3.184 5.098 C0.851 5.172 -1.485 5.193 -3.816 5.098 C-4.379 3.16 -4.379 3.16 -4.816 1.098 C-3.816 0.098 -3.816 0.098 0 0 Z " fill="#000000" transform="translate(45.81640625,245.90234375)"/>
<path d="M0 0 C0.66 0 1.32 0 2 0 C3.843 3.432 5.673 6.872 7.5 10.312 C8.025 11.289 8.549 12.265 9.09 13.271 C9.586 14.209 10.082 15.147 10.594 16.113 C11.055 16.977 11.515 17.841 11.99 18.732 C13 21 13 21 13 24 C11.531 25.324 11.531 25.324 9.5 26.688 C5.423 29.568 2.078 32.83 -1.336 36.461 C-3 38 -3 38 -5 38 C-6.54 34.926 -8.054 31.84 -9.562 28.75 C-10 27.877 -10.438 27.005 -10.889 26.105 C-11.298 25.261 -11.707 24.417 -12.129 23.547 C-12.702 22.384 -12.702 22.384 -13.287 21.198 C-14.114 18.649 -13.959 17.473 -13 15 C-11.582 13.359 -11.582 13.359 -9.812 11.75 C-6.493 8.601 -3.863 5.26 -1.262 1.504 C-0.637 0.759 -0.637 0.759 0 0 Z " fill="#000000" transform="translate(496,250)"/>
<path d="M0 0 C0.66 0 1.32 0 2 0 C2.339 8.162 1.299 15.951 0 24 C-0.99 24 -1.98 24 -3 24 C-4.406 20.081 -3.747 16.623 -3.188 12.562 C-3.016 11.264 -2.845 9.966 -2.668 8.629 C-2.088 5.479 -1.324 2.899 0 0 Z " fill="#000000" transform="translate(177,263)"/>
<path d="M0 0 C2.475 0.99 2.475 0.99 5 2 C4.625 3.938 4.625 3.938 4 6 C3.01 6.495 3.01 6.495 2 7 C1.01 6.34 0.02 5.68 -1 5 C-0.67 3.35 -0.34 1.7 0 0 Z " fill="#000000" transform="translate(220,263)"/>
<path d="M0 0 C3.931 3.78 7.379 7.779 10.75 12.062 C11.244 12.674 11.737 13.286 12.246 13.916 C12.717 14.512 13.187 15.108 13.672 15.723 C14.096 16.256 14.519 16.79 14.956 17.34 C16.126 19.2 16.576 20.855 17 23 C13.236 22.458 11.891 21.115 9.625 18.125 C0 5.174 0 5.174 0 0 Z " fill="#000000" transform="translate(551,267)"/>
<path d="M0 0 C0.66 0 1.32 0 2 0 C2 5.28 2 10.56 2 16 C0.68 16 -0.64 16 -2 16 C-3.437 9.861 -2.326 5.796 0 0 Z " fill="#000000" transform="translate(133,272)"/>
<path d="M0 0 C4.07 3.487 5.838 7.186 6.312 12.5 C6.057 25.227 -2.44 34.584 -10 44 C5.411 43.556 15.426 40.019 26.184 28.703 C27.832 26.832 29.439 24.944 31 23 C32.938 23.312 32.938 23.312 35 24 C36 27 36 27 35.031 29.016 C27.319 40.27 18.393 48.305 4.797 51.531 C-3.214 52.874 -9.605 52.348 -17 49 C-17.525 49.51 -18.049 50.021 -18.59 50.547 C-29.133 60.441 -45.757 76.001 -60.938 76.5 C-64.276 76.346 -66.942 75.319 -70 74 C-71.342 75.394 -71.342 75.394 -72.711 76.816 C-92.23 96.866 -92.23 96.866 -102.715 97.047 C-108.899 97.203 -112.328 97.668 -116.938 102 C-117.941 103.083 -117.941 103.083 -118.965 104.188 C-121.317 106.282 -122.911 106.656 -126 107 C-126.746 105.266 -126.746 105.266 -127 103 C-125.348 100.859 -125.348 100.859 -123.062 98.75 C-121.935 97.69 -121.935 97.69 -120.785 96.609 C-119.902 95.813 -119.902 95.813 -119 95 C-119.307 94.243 -119.614 93.487 -119.93 92.707 C-124.412 81.37 -123.419 71.87 -119.086 60.629 C-116.519 55.11 -113.091 51.394 -108 48 C-100.981 47.22 -100.981 47.22 -97.562 49.938 C-94.06 56.802 -94.705 63.22 -96.699 70.516 C-99.381 77.699 -103.235 84.338 -107 91 C-99.073 88.93 -93.318 86.247 -87.156 80.805 C-85 79 -85 79 -82.781 77.945 C-80.641 77.072 -80.641 77.072 -80 74 C-78 72.333 -76 70.667 -74 69 C-72.835 65.504 -73.075 62.987 -73.25 59.312 C-73.285 53.713 -72.919 49.974 -69.477 45.492 C-66.504 42.488 -64.001 41.045 -59.723 40.949 C-53.769 41.383 -53.769 41.383 -51.266 43.391 C-50 45 -50 45 -49.438 47.625 C-50.677 55.065 -56.231 60.593 -61.582 65.59 C-63.115 66.965 -63.115 66.965 -64 69 C-51.254 67.462 -40.602 58.094 -30.863 50.246 C-28 48 -28 48 -25.668 46.598 C-23.466 45.194 -22.318 44.269 -21 42 C-20.528 38.804 -20.336 35.749 -20.27 32.527 C-20.01 20.637 -17.273 8.9 -9.125 -0.062 C-5.694 -1.576 -3.547 -1.058 0 0 Z M-5 6 C-8.045 9.446 -8.99 12.834 -10.125 17.25 C-10.297 17.916 -10.469 18.582 -10.646 19.268 C-11.795 23.844 -12.616 28.302 -13 33 C-8.973 31.515 -7.76 29.359 -5.812 25.625 C-5.303 24.669 -4.794 23.712 -4.27 22.727 C-2.097 18.061 -1.624 14.172 -2 9 C-3.354 7.056 -3.354 7.056 -5 6 Z M-65 50 C-67.38 53.776 -68.394 56.538 -68 61 C-67.34 61 -66.68 61 -66 61 C-64.368 59.293 -62.817 57.508 -61.312 55.688 C-60.484 54.701 -59.655 53.715 -58.801 52.699 C-57.909 51.363 -57.909 51.363 -57 50 C-57.33 49.01 -57.66 48.02 -58 47 C-61.053 47 -62.557 48.212 -65 50 Z M-105 53 C-111.095 57.11 -113.767 62.042 -116 69 C-117.292 75.739 -117.484 81.57 -115 88 C-111.551 86.964 -110.842 85.739 -108.93 82.586 C-108.232 81.188 -107.548 79.784 -106.875 78.375 C-106.528 77.688 -106.181 77.001 -105.824 76.293 C-102.438 69.377 -99.988 62.738 -102 55 C-102.99 54.34 -103.98 53.68 -105 53 Z " fill="#000000" transform="translate(439,274)"/>
<path d="M0 0 C3.126 2.926 5.452 5.954 7.75 9.562 C8.67 10.988 8.67 10.988 9.609 12.441 C11 15 11 15 11 18 C7.677 16.941 6.921 15.869 5.078 12.812 C4.456 11.548 3.847 10.277 3.25 9 C2.934 8.358 2.618 7.716 2.293 7.055 C0 2.31 0 2.31 0 0 Z " fill="#000000" transform="translate(550,283)"/>
<path d="M0 0 C0.99 0.33 1.98 0.66 3 1 C3 3.97 3 6.94 3 10 C1.68 10.33 0.36 10.66 -1 11 C-2.231 4.6 -2.231 4.6 -1.062 1.562 C-0.712 1.047 -0.361 0.531 0 0 Z " fill="#000000" transform="translate(216,288)"/>
<path d="M0 0 C3.113 3.113 3.709 6.339 4.395 10.621 C3.577 17.619 -2.75 21.841 -8 26 C-10.294 27.808 -12.534 29.431 -15 31 C-17.589 28.411 -17.153 22.946 -17.379 19.512 C-17 16 -17 16 -15.34 13.832 C-13.062 12.188 -13.062 12.188 -10.57 10.664 C-6.274 7.882 -3.251 3.906 0 0 Z " fill="#000000" transform="translate(516,295)"/>
<path d="M0 0 C-0.33 1.65 -0.66 3.3 -1 5 C-3.97 4.01 -6.94 3.02 -10 2 C-10 1.67 -10 1.34 -10 1 C-6.594 0.222 -3.492 -0.1 0 0 Z " fill="#000000" transform="translate(566,312)"/>
<path d="M0 0 C0.99 0.33 1.98 0.66 3 1 C4.005 4.015 4.103 6.042 4.062 9.188 C4.053 10.089 4.044 10.99 4.035 11.918 C4.024 12.605 4.012 13.292 4 14 C2.68 14 1.36 14 0 14 C-0.854 11.039 -1.135 8.391 -1.125 5.312 C-1.129 4.131 -1.129 4.131 -1.133 2.926 C-1 1 -1 1 0 0 Z " fill="#000000" transform="translate(216,316)"/>
<path d="M0 0 C1.32 0.66 2.64 1.32 4 2 C4 3.65 4 5.3 4 7 C2.68 6.67 1.36 6.34 0 6 C-0.382 4.344 -0.714 2.675 -1 1 C-0.67 0.67 -0.34 0.34 0 0 Z " fill="#000000" transform="translate(613,329)"/>
<path d="M0 0 C0.99 0 1.98 0 3 0 C3.33 1.98 3.66 3.96 4 6 C2.68 6 1.36 6 0 6 C0 4.02 0 2.04 0 0 Z " fill="#000000" transform="translate(66,331)"/>
<path d="M0 0 C-3.207 1.295 -6.416 2.585 -9.625 3.875 C-10.529 4.24 -11.432 4.605 -12.363 4.98 C-26.022 10.464 -26.022 10.464 -31 9 C-30.67 7.35 -30.34 5.7 -30 4 C-26.813 3.351 -23.625 2.706 -20.438 2.062 C-19.542 1.88 -18.647 1.698 -17.725 1.51 C-3.854 -1.285 -3.854 -1.285 0 0 Z " fill="#000000" transform="translate(96,344)"/>
<path d="M0 0 C0.99 0.33 1.98 0.66 3 1 C3.949 3.109 3.949 3.109 4.688 5.75 C4.939 6.611 5.19 7.472 5.449 8.359 C5.998 10.988 6.101 13.324 6 16 C4.113 15.797 4.113 15.797 2 15 C0.918 12.891 0.918 12.891 0.188 10.25 C-0.193 8.958 -0.193 8.958 -0.582 7.641 C-1.034 4.788 -0.733 2.774 0 0 Z " fill="#000000" transform="translate(220,347)"/>
<path d="M0 0 C0.506 2.228 1.005 4.457 1.5 6.688 C1.778 7.929 2.057 9.17 2.344 10.449 C3.454 16.459 3.454 16.459 3 19 C0.84 21.062 0.84 21.062 -2.062 23 C-3.559 24.021 -3.559 24.021 -5.086 25.062 C-6.048 25.702 -7.009 26.341 -8 27 C-9.4 27.994 -10.797 28.993 -12.188 30 C-13.116 30.66 -14.044 31.32 -15 32 C-15.704 30.445 -16.387 28.88 -17.062 27.312 C-17.445 26.442 -17.828 25.572 -18.223 24.676 C-19.133 21.541 -19.086 20.069 -18 17 C-5.51 0 -5.51 0 0 0 Z " fill="#000000" transform="translate(257,346)"/>
<path d="M0 0 C3.003 2.788 5.027 5.467 6.98 9.062 C7.504 10.024 8.028 10.986 8.568 11.977 C9.103 12.974 9.637 13.972 10.188 15 C10.733 15.998 11.279 16.995 11.842 18.023 C16.219 26.116 16.219 26.116 17 30 C16.01 30 15.02 30 14 30 C12.203 27.578 12.203 27.578 10.25 24.25 C9.907 23.667 9.563 23.083 9.209 22.482 C8.493 21.265 7.781 20.045 7.073 18.822 C6.044 17.075 4.966 15.357 3.887 13.641 C2.922 12.086 2.922 12.086 1.938 10.5 C1.348 9.562 0.759 8.623 0.152 7.656 C-1.183 4.579 -0.998 3.149 0 0 Z " fill="#000000" transform="translate(628,353)"/>
<path d="M0 0 C5.669 5.371 5.669 5.371 7 9 C7 9.99 7 10.98 7 12 C6.01 12.33 5.02 12.66 4 13 C3.327 11.399 2.662 9.794 2 8.188 C1.629 7.294 1.258 6.401 0.875 5.48 C0 3 0 3 0 0 Z " fill="#000000" transform="translate(671,358)"/>
<path d="M0 0 C1.228 2.408 2.432 4.824 3.625 7.25 C3.976 7.932 4.326 8.614 4.688 9.316 C5.664 11.328 5.664 11.328 7 15 C5.913 18.132 4.344 19.81 1.742 21.797 C0.804 22.522 0.804 22.522 -0.152 23.262 C-0.803 23.753 -1.454 24.244 -2.125 24.75 C-2.784 25.257 -3.442 25.763 -4.121 26.285 C-5.742 27.53 -7.37 28.766 -9 30 C-11.558 27.546 -13.129 25.233 -14.75 22.062 C-15.199 21.208 -15.647 20.353 -16.109 19.473 C-17.12 16.666 -17.216 15.694 -16 13 C-5.171 0 -5.171 0 0 0 Z " fill="#000000" transform="translate(263,371)"/>
<path d="M0 0 C-8.625 5.847 -17.622 10.502 -27 15 C-27.963 15.472 -28.926 15.944 -29.918 16.43 C-35.619 19.127 -35.619 19.127 -39 18 C-39.688 15.938 -39.688 15.938 -40 14 C-32.254 9.872 -24.289 6.663 -16.062 3.625 C-14.845 3.162 -13.627 2.699 -12.373 2.223 C-11.21 1.791 -10.046 1.359 -8.848 0.914 C-7.796 0.522 -6.744 0.129 -5.66 -0.275 C-3 -1 -3 -1 0 0 Z " fill="#000000" transform="translate(132,398)"/>
<path d="M0 0 C0.382 1.656 0.714 3.325 1 5 C-0.57 6.57 -2.143 6.17 -4.312 6.188 C-5.092 6.202 -5.872 6.216 -6.676 6.23 C-9.203 5.98 -10.817 5.264 -13 4 C-12.67 3.01 -12.34 2.02 -12 1 C-7.936 0.226 -4.136 -0.098 0 0 Z " fill="#000000" transform="translate(729,401)"/>
<path d="M0 0 C1.98 0.495 1.98 0.495 4 1 C4.625 2.812 4.625 2.812 5 5 C4.01 6.485 4.01 6.485 3 8 C2.01 7.67 1.02 7.34 0 7 C-1.125 2.25 -1.125 2.25 0 0 Z " fill="#000000" transform="translate(699,403)"/>
<path d="M0 0 C1.809 0.201 1.809 0.201 4 1 C5.568 3.066 5.568 3.066 7.059 5.777 C7.61 6.767 8.161 7.756 8.729 8.775 C9.574 10.341 9.574 10.341 10.438 11.938 C10.998 12.946 11.558 13.955 12.135 14.994 C14.773 19.774 17.343 24.59 19.848 29.441 C20.241 30.203 20.634 30.964 21.039 31.748 C22.066 34.154 22.575 36.425 23 39 C22.01 39.66 21.02 40.32 20 41 C19.109 39.273 19.109 39.273 18.199 37.512 C17.363 35.903 16.526 34.295 15.688 32.688 C15.247 31.842 14.806 30.996 14.352 30.125 C10.581 22.957 6.546 15.965 2.317 9.057 C1.868 8.306 1.419 7.555 0.957 6.781 C0.555 6.122 0.152 5.463 -0.262 4.783 C-1 3 -1 3 0 0 Z " fill="#000000" transform="translate(656,405)"/>
<path d="M0 0 C5.767 4.943 8.411 11.158 9.11 18.616 C8.913 22.889 6.895 25.974 4.625 29.5 C3.937 30.61 3.937 30.61 3.234 31.742 C-9.177 51.169 -30.153 60.135 -51.938 65 C-77.579 70.285 -105.056 69.455 -130.5 63.562 C-131.391 63.357 -132.282 63.152 -133.2 62.941 C-137.384 61.904 -140.791 61.058 -144 58 C-138.844 58.528 -133.774 59.182 -128.675 60.105 C-92.943 66.416 -52.316 64.339 -21.523 43.309 C-8.163 33.321 -3.299 21.12 -0.666 4.946 C-0.429 3.299 -0.212 1.65 0 0 Z " fill="#000000" transform="translate(629,414)"/>
<path d="M0 0 C2.644 1.054 3.127 2.139 4.332 4.68 C4.852 5.728 4.852 5.728 5.383 6.797 C6.02 8.805 6.02 8.805 5.02 11.805 C2.559 11.416 1.298 11.09 -0.465 9.281 C-0.883 8.67 -1.3 8.059 -1.73 7.43 C-2.158 6.824 -2.586 6.218 -3.027 5.594 C-3.98 3.805 -3.98 3.805 -3.98 0.805 C-1.98 -0.195 -1.98 -0.195 0 0 Z " fill="#000000" transform="translate(711.98046875,418.1953125)"/>
<path d="M0 0 C6.792 3.465 11.213 9.313 13.875 16.375 C15.75 22.751 15.713 29.578 14 36 C3.436 33.091 -5.725 28.229 -12 19 C-14.231 14.962 -15.015 11.882 -14.938 7.25 C-13.903 3.665 -12.938 2.247 -10 0 C-6.172 -1.276 -3.932 -0.866 0 0 Z " fill="#000000" transform="translate(466,435)"/>
<path d="M0 0 C0.66 0.33 1.32 0.66 2 1 C-4.827 10.562 -13.368 20.449 -25 24 C-27.289 23.617 -27.289 23.617 -29 23 C-10.426 5.213 -10.426 5.213 0 0 Z " fill="#000000" transform="translate(147,441)"/>
<path d="M0 0 C4.095 1.532 5.387 5.935 7.312 9.625 C12.382 18.432 21.454 23.097 30.141 27.801 C27.646 33.159 24.193 35.58 18.703 37.613 C14.869 38.806 12.072 38.91 8.141 37.801 C8.141 37.141 8.141 36.481 8.141 35.801 C8.779 35.558 9.417 35.316 10.074 35.066 C10.901 34.731 11.727 34.396 12.578 34.051 C13.814 33.564 13.814 33.564 15.074 33.066 C17.326 31.981 17.326 31.981 17.926 29.66 C17.997 29.047 18.068 28.433 18.141 27.801 C17.656 28.09 17.171 28.378 16.672 28.676 C11.941 31.296 7.603 33.135 2.141 31.801 C-4.515 28.741 -8.722 24.369 -11.859 17.801 C-13.097 14.086 -13.55 10.654 -12.859 6.801 C-9.214 2.292 -5.973 -0.032 0 0 Z " fill="#000000" transform="translate(446.859375,447.19921875)"/>
<path d="M0 0 C0.33 0.66 0.66 1.32 1 2 C-11.075 21.604 -28.148 33.423 -50.445 38.796 C-57.161 40.338 -63.515 41.158 -70.406 41.168 C-71.208 41.171 -72.01 41.175 -72.836 41.178 C-74.53 41.183 -76.225 41.185 -77.919 41.185 C-80.464 41.187 -83.009 41.206 -85.555 41.225 C-109.387 41.306 -109.387 41.306 -116 38 C-114.547 42.215 -113.094 46.43 -111.641 50.645 C-111.417 51.294 -111.193 51.943 -110.962 52.612 C-108.036 61.098 -105.108 69.584 -102.176 78.069 C-85.434 126.53 -85.434 126.53 -78.341 147.905 C-77.508 150.413 -76.673 152.919 -75.836 155.425 C-73.336 162.923 -70.857 170.426 -68.438 177.951 C-67.307 181.451 -66.158 184.945 -65.005 188.438 C-64.471 190.069 -63.946 191.703 -63.431 193.341 C-60.205 203.582 -56.618 211.154 -49 219 C-48.541 219.481 -48.082 219.963 -47.609 220.459 C-44.624 223.589 -41.584 226.659 -38.507 229.699 C-36.93 231.257 -35.362 232.823 -33.795 234.391 C-28.917 239.252 -23.989 244.012 -18.754 248.493 C-15.495 251.293 -12.371 254.241 -9.227 257.168 C-6.586 259.608 -3.927 261.909 -1 264 C-2.39 267.923 -4.231 270.9 -6.688 274.25 C-11.364 280.811 -15.536 287.661 -19.688 294.562 C-20.317 295.602 -20.946 296.642 -21.594 297.714 C-25.743 304.653 -29.488 311.719 -33 319 C-39.125 315.387 -43.867 310.475 -48.887 305.484 C-49.835 304.545 -50.783 303.606 -51.732 302.667 C-53.711 300.704 -55.687 298.736 -57.659 296.766 C-60.176 294.255 -62.708 291.76 -65.245 289.269 C-67.207 287.337 -69.158 285.394 -71.105 283.447 C-72.482 282.077 -73.87 280.718 -75.258 279.36 C-83.072 271.49 -84.959 265.241 -86.652 254.562 C-88.883 241.878 -93.155 230.065 -97.562 218 C-98.384 215.718 -99.204 213.436 -100.023 211.154 C-102.325 204.76 -104.656 198.378 -107 192 C-107.284 191.226 -107.568 190.451 -107.861 189.653 C-110.87 181.453 -113.983 173.295 -117.159 165.158 C-118.124 162.681 -119.086 160.202 -120.047 157.723 C-132.621 125.198 -132.621 125.198 -146 93 C-146.428 92.004 -146.856 91.008 -147.297 89.982 C-154.423 73.448 -161.921 57.092 -170 41 C-169.276 40.648 -168.551 40.296 -167.805 39.934 C-161.456 36.692 -157.246 33.738 -153 28 C-151.424 28.507 -151.424 28.507 -149.816 29.023 C-149.14 29.238 -148.464 29.453 -147.767 29.675 C-146.292 30.143 -144.819 30.616 -143.347 31.093 C-139.457 32.329 -135.819 33.229 -131.75 33.688 C-128 35 -128 35 -126.909 36.865 C-126.475 38.061 -126.475 38.061 -126.033 39.281 C-125.699 40.189 -125.366 41.096 -125.023 42.03 C-124.685 43.01 -124.348 43.99 -124 45 C-123.662 45.977 -123.325 46.955 -122.977 47.961 C-121.87 51.236 -120.795 54.521 -119.727 57.809 C-119.326 59.032 -118.926 60.255 -118.513 61.516 C-117.436 64.807 -116.363 68.1 -115.291 71.393 C-114.169 74.838 -113.042 78.282 -111.916 81.726 C-107.331 95.754 -102.766 109.787 -98.204 123.822 C-97.636 125.569 -97.068 127.316 -96.5 129.062 C-96.221 129.921 -95.942 130.78 -95.654 131.664 C-89.04 152.016 -89.04 152.016 -82.247 172.308 C-81.758 173.748 -81.27 175.188 -80.781 176.629 C-80.425 177.679 -80.425 177.679 -80.061 178.751 C-78.68 182.862 -77.391 186.988 -76.178 191.15 C-71.64 206.705 -67.209 217.373 -54.132 227.315 C-50.361 230.295 -46.961 233.671 -43.5 237 C-39.037 241.225 -34.5 245.34 -29.861 249.371 C-27.365 251.556 -24.934 253.808 -22.5 256.062 C-15.278 262.752 -15.278 262.752 -7 268 C-9.049 264.243 -11.205 261.667 -14.438 258.875 C-15.326 258.096 -16.214 257.318 -17.129 256.516 C-18.076 255.685 -19.024 254.855 -20 254 C-21.964 252.214 -23.922 250.423 -25.875 248.625 C-26.894 247.689 -27.914 246.753 -28.934 245.816 C-29.441 245.35 -29.949 244.883 -30.472 244.403 C-32.465 242.573 -34.46 240.747 -36.455 238.921 C-38.449 237.094 -40.442 235.265 -42.435 233.436 C-43.51 232.449 -44.586 231.464 -45.663 230.479 C-47.36 228.925 -49.055 227.369 -50.75 225.812 C-51.257 225.35 -51.763 224.887 -52.285 224.41 C-53.311 223.466 -54.328 222.512 -55.336 221.548 C-56.511 220.455 -57.728 219.408 -58.972 218.395 C-64.576 213.511 -66.936 208.205 -69.171 201.221 C-69.407 200.485 -69.643 199.749 -69.887 198.991 C-70.252 197.851 -70.252 197.851 -70.625 196.688 C-71.103 195.208 -71.582 193.729 -72.061 192.25 C-72.307 191.49 -72.553 190.73 -72.807 189.947 C-73.922 186.505 -75.036 183.063 -76.151 179.621 C-76.953 177.145 -77.755 174.668 -78.556 172.192 C-85.399 151.053 -92.324 129.944 -99.367 108.871 C-99.717 107.826 -100.066 106.78 -100.426 105.703 C-103.646 96.069 -106.87 86.436 -110.097 76.804 C-111.892 71.445 -113.685 66.085 -115.475 60.725 C-116.15 58.708 -116.825 56.692 -117.502 54.676 C-118.432 51.904 -119.359 49.131 -120.285 46.357 C-120.562 45.534 -120.839 44.711 -121.125 43.863 C-123 38.228 -123 38.228 -123 36 C-122.332 36.069 -121.663 36.139 -120.975 36.21 C-111.961 37.06 -102.983 37.242 -93.938 37.25 C-92.778 37.252 -92.778 37.252 -91.595 37.253 C-79.82 37.243 -68.505 36.706 -57 34 C-56.348 33.855 -55.695 33.711 -55.023 33.562 C-35.76 29.231 -13.946 21.06 -2.5 4.062 C-1.655 2.716 -0.817 1.364 0 0 Z " fill="#000000" transform="translate(635,449)"/>
<path d="M0 0 C0.66 0 1.32 0 2 0 C2.332 0.645 2.664 1.291 3.006 1.956 C4.53 4.896 6.077 7.823 7.625 10.75 C8.408 12.274 8.408 12.274 9.207 13.828 C13.123 21.363 13.123 21.363 20 26 C23.388 26.651 26.747 26.921 30.188 27.125 C31.973 27.245 33.758 27.372 35.543 27.508 C36.327 27.556 37.111 27.604 37.919 27.653 C40 28 40 28 43 30 C36.972 33.979 30.739 37.083 24.172 40.059 C19.431 42.961 17.557 46.126 15.988 51.402 C15.654 53.152 15.654 53.152 15.312 54.938 C15.082 56.102 14.851 57.266 14.613 58.465 C14.186 60.925 13.835 63.399 13.543 65.879 C13.364 66.909 13.185 67.939 13 69 C12.01 69.495 12.01 69.495 11 70 C10.734 69.516 10.467 69.033 10.193 68.535 C8.955 66.307 7.697 64.091 6.438 61.875 C6.019 61.114 5.601 60.354 5.17 59.57 C1.767 53.634 -2.076 48.932 -8.309 45.863 C-9.011 45.682 -9.714 45.5 -10.438 45.312 C-11.269 45.096 -12.1 44.879 -12.957 44.656 C-19.279 43.293 -25.63 42.114 -32 41 C-28.3 36.633 -23.886 35.203 -18.664 33.377 C-13.254 31.375 -8.854 28.891 -5.645 23.887 C-2.709 16.127 -1.336 8.159 0 0 Z " fill="#000000" transform="translate(626,479)"/>
<path d="M0 0 C1.782 0.143 1.782 0.143 4 1 C5.755 3.469 5.755 3.469 7.488 6.715 C8.112 7.876 8.735 9.036 9.377 10.232 C9.694 10.84 10.011 11.448 10.338 12.074 C11.311 13.935 12.307 15.783 13.307 17.631 C16.856 24.317 16.856 24.317 18 27 C17.67 27.66 17.34 28.32 17 29 C12.463 22.886 8.436 16.549 4.562 10 C4.113 9.246 3.664 8.492 3.202 7.715 C2.578 6.65 2.578 6.65 1.941 5.562 C1.567 4.924 1.193 4.286 0.807 3.629 C0 2 0 2 0 0 Z " fill="#000000" transform="translate(660,488)"/>
<path d="M0 0 C2.791 0.556 4.525 1.336 6.202 3.68 C7.515 6.084 8.707 8.522 9.875 11 C10.341 11.963 10.808 12.927 11.288 13.92 C33.933 61.276 52.398 110.557 70.368 159.833 C72.117 164.62 73.897 169.394 75.702 174.16 C82.132 191.159 87.854 207.5 90.407 225.595 C92.042 232.224 95.852 236.274 100.574 240.902 C101.217 241.543 101.86 242.184 102.522 242.844 C103.879 244.195 105.24 245.542 106.604 246.885 C108.67 248.921 110.726 250.966 112.779 253.014 C114.106 254.331 115.434 255.648 116.762 256.965 C117.367 257.566 117.973 258.167 118.597 258.787 C122.328 262.457 126.169 265.951 130.144 269.356 C132.072 271.064 133.884 272.85 135.688 274.688 C138.305 277.353 141.017 279.74 144 282 C143.67 283.65 143.34 285.3 143 287 C138.722 287 138.308 286.843 135.242 284.289 C134.539 283.708 133.836 283.128 133.111 282.53 C132.373 281.901 131.635 281.273 130.875 280.625 C130.115 279.988 129.354 279.351 128.571 278.695 C123.492 274.396 118.721 269.93 114.102 265.141 C112.241 263.245 110.342 261.522 108.312 259.812 C104.133 256.224 100.225 252.375 96.312 248.5 C95.67 247.871 95.028 247.241 94.366 246.593 C87.731 239.971 83.561 234.633 81.812 225.312 C81.661 224.586 81.51 223.86 81.354 223.111 C80.7 219.913 80.084 216.743 79.715 213.497 C78.353 202.658 74.102 192.71 70.25 182.562 C69.487 180.53 68.726 178.497 67.965 176.464 C66.032 171.306 64.086 166.154 62.135 161.003 C60.688 157.175 59.248 153.345 57.808 149.515 C55.07 142.23 52.325 134.948 49.562 127.672 C49.315 127.019 49.068 126.366 48.814 125.693 C47.947 123.416 47.09 121.18 46 119 C46.012 119.716 46.023 120.432 46.035 121.17 C46.201 139.873 43.676 156.232 38.397 174.192 C37.058 178.764 35.786 183.354 34.521 187.947 C33.325 192.283 32.117 196.614 30.906 200.945 C30.312 203.07 29.721 205.196 29.132 207.322 C25.458 220.52 21.235 233.243 15.9 245.865 C14.628 248.881 13.405 251.917 12.172 254.949 C11.367 256.863 10.56 258.776 9.75 260.688 C9.343 261.686 8.935 262.684 8.516 263.713 C8.113 264.657 7.711 265.601 7.297 266.574 C6.95 267.405 6.603 268.236 6.245 269.093 C5 271 5 271 3.033 271.879 C-0.363 272.081 -2.556 269.854 -5.125 267.875 C-5.728 267.429 -6.332 266.982 -6.953 266.522 C-8.272 265.546 -9.588 264.564 -10.899 263.578 C-21.042 255.958 -31.13 248.577 -42.277 242.488 C-45 241 -45 241 -48 239 C-46.575 235.056 -44.679 231.492 -42.676 227.824 C-35.194 214.042 -28.914 199.76 -22.74 185.359 C-21.008 181.32 -19.246 177.297 -17.443 173.29 C-16.146 170.392 -14.889 167.476 -13.625 164.562 C-13.167 163.566 -12.708 162.569 -12.236 161.542 C-8.595 152.94 -8.221 144.768 -8.048 135.562 C-8 132.982 -7.924 130.404 -7.842 127.825 C-7.681 122.655 -7.557 117.484 -7.438 112.312 C-7.394 110.52 -7.351 108.728 -7.307 106.936 C-7.202 102.624 -7.1 98.312 -7 94 C-8.98 94.495 -8.98 94.495 -11 95 C-9.623 90.614 -7.951 86.411 -6.182 82.174 C-2.202 72.576 0.931 63.179 3 53 C3.224 51.929 3.449 50.858 3.68 49.754 C6.193 35.967 5.831 22.894 1.973 9.453 C1.085 6.302 0.472 3.236 0 0 Z M34 88 C34.027 88.581 34.053 89.162 34.081 89.761 C35.481 121.863 34.022 149.924 23.56 180.404 C22.12 184.601 20.807 188.826 19.551 193.082 C13.279 214.202 6.408 235.359 -2.02 255.725 C-3.399 259.114 -4 261.269 -4 265 C-2.057 264.827 -2.057 264.827 0 264 C1.316 262.13 1.316 262.13 2.227 259.707 C2.806 258.324 2.806 258.324 3.397 256.913 C3.802 255.89 4.207 254.867 4.625 253.812 C5.063 252.724 5.501 251.636 5.953 250.515 C18.358 219.177 27.035 186.454 36.142 154.041 C36.712 152.021 37.292 150.002 37.882 147.987 C39.309 143.015 40.376 138.544 40.328 133.328 C40.324 132.176 40.32 131.024 40.315 129.837 C40.294 128.653 40.272 127.47 40.25 126.25 C40.236 125.017 40.222 123.783 40.208 122.512 C40.159 119.008 40.084 115.504 40 112 C39.985 111.14 39.969 110.281 39.953 109.395 C39.787 101.468 39.038 94.93 35 88 C34.67 88 34.34 88 34 88 Z " fill="#000000" transform="translate(455,490)"/>
<path d="M0 0 C2.475 0.495 2.475 0.495 5 1 C5 2.65 5 4.3 5 6 C2.525 5.01 2.525 5.01 0 4 C0 2.68 0 1.36 0 0 Z " fill="#000000" transform="translate(536,494)"/>
<path d="M0 0 C0.99 0.495 0.99 0.495 2 1 C-0.631 4.693 -3.304 8.354 -6 12 C-6.465 12.651 -6.931 13.302 -7.41 13.973 C-14.986 23.772 -27.846 31.081 -40 33 C-49.374 33.551 -58.669 33.998 -66.5 28.125 C-68.194 25.726 -68.678 23.9 -69 21 C-66.086 20.029 -63.981 19.837 -60.938 19.688 C-41.81 18.186 -23.901 11.766 -6.88 3.214 C-6.016 2.785 -5.152 2.356 -4.262 1.914 C-3.488 1.522 -2.714 1.129 -1.917 0.725 C-1.284 0.486 -0.652 0.247 0 0 Z " fill="#000000" transform="translate(400,502)"/>
<path d="M0 0 C0.33 0 0.66 0 1 0 C6.445 29.266 -4.595 59.717 -20.699 83.738 C-24.211 88.717 -28.046 93.37 -32 98 C-32.855 99.083 -33.709 100.166 -34.562 101.25 C-44.508 112.471 -58.939 124.211 -74 127 C-81.988 126.873 -87.048 123.755 -92.812 118.375 C-93.534 117.591 -94.256 116.808 -95 116 C-95.598 115.443 -96.196 114.886 -96.812 114.312 C-98 113 -98 113 -98 111 C-97.299 111.289 -96.598 111.577 -95.875 111.875 C-84.962 116.145 -73.8 117.01 -62.75 112.625 C-36.667 99.898 -20.692 74.846 -11.371 48.238 C-7.035 35.206 -4.441 21.786 -2.255 8.25 C-2.104 7.318 -1.953 6.386 -1.797 5.426 C-1.666 4.595 -1.536 3.764 -1.401 2.907 C-1 1 -1 1 0 0 Z " fill="#000000" transform="translate(453,504)"/>
<path d="M0 0 C2.203 0.008 2.203 0.008 5 1 C6.957 3.421 8.325 6.116 9.75 8.875 C10.148 9.608 10.547 10.342 10.957 11.098 C12.545 14.053 13.936 16.809 15 20 C8.083 17.097 2.544 9.472 -1 3 C-0.67 2.01 -0.34 1.02 0 0 Z " fill="#000000" transform="translate(575,516)"/>
<path d="M0 0 C1.98 0.99 3.96 1.98 6 3 C5.34 4.32 4.68 5.64 4 7 C1 7 1 7 -2 5 C-1.34 3.35 -0.68 1.7 0 0 Z " fill="#000000" transform="translate(210,527)"/>
<path d="M0 0 C2.691 0.176 5.329 0.618 8 1 C8.33 1.99 8.66 2.98 9 4 C7.562 6.188 7.562 6.188 6 8 C0.25 7.25 0.25 7.25 -2 5 C-1.464 1.464 -1.464 1.464 0 0 Z " fill="#000000" transform="translate(235,538)"/>
<path d="M0 0 C3 1 3 1 4.691 3.895 C5.325 5.196 5.948 6.502 6.562 7.812 C7.26 9.26 7.958 10.706 8.656 12.152 C9.215 13.318 9.215 13.318 9.785 14.507 C11.083 17.17 12.426 19.807 13.781 22.441 C14.243 23.345 14.705 24.248 15.181 25.178 C16.095 26.962 17.014 28.744 17.938 30.523 C18.351 31.338 18.765 32.153 19.191 32.992 C19.565 33.718 19.938 34.443 20.323 35.191 C20.546 35.788 20.77 36.385 21 37 C20.67 37.66 20.34 38.32 20 39 C0 6.979 0 6.979 0 0 Z " fill="#000000" transform="translate(689,539)"/>
<path d="M0 0 C-1.473 5.009 -4.275 7.518 -8 11 C-8.99 10.67 -9.98 10.34 -11 10 C-10.622 7.325 -10.202 6.194 -8.223 4.297 C-7.51 3.786 -6.797 3.276 -6.062 2.75 C-5.352 2.229 -4.642 1.708 -3.91 1.172 C-2 0 -2 0 0 0 Z " fill="#000000" transform="translate(747,542)"/>
<path d="M0 0 C0.66 0 1.32 0 2 0 C2 2.64 2 5.28 2 8 C0.68 8 -0.64 8 -2 8 C-1.125 1.125 -1.125 1.125 0 0 Z " fill="#000000" transform="translate(125,547)"/>
<path d="M0 0 C3.293 2.926 4.784 5.337 6.176 9.5 C6.528 10.552 6.881 11.604 7.244 12.688 C7.597 13.781 7.949 14.874 8.312 16 C8.87 17.64 8.87 17.64 9.439 19.312 C12.364 28.2 12.364 28.2 11 32 C-1.452 7.639 -1.452 7.639 -1 1 C-0.67 0.67 -0.34 0.34 0 0 Z " fill="#000000" transform="translate(559,548)"/>
<path d="M0 0 C2.062 0.438 2.062 0.438 4 1 C3.67 3.31 3.34 5.62 3 8 C-0.75 9.125 -0.75 9.125 -3 8 C-1.125 1.125 -1.125 1.125 0 0 Z " fill="#000000" transform="translate(262,549)"/>
<path d="M0 0 C1.811 0.21 1.811 0.21 4 1 C5.549 2.999 5.549 2.999 7.031 5.645 C7.589 6.623 8.147 7.601 8.721 8.608 C9.308 9.666 9.895 10.723 10.5 11.812 C11.745 14.003 12.991 16.193 14.238 18.383 C15.177 20.042 15.177 20.042 16.135 21.735 C18.912 26.597 21.792 31.395 24.688 36.188 C25.18 37.005 25.672 37.823 26.18 38.665 C26.87 39.811 26.87 39.811 27.574 40.98 C27.996 41.683 28.417 42.385 28.852 43.108 C29.83 44.721 30.838 46.315 31.852 47.906 C33 50 33 50 32.688 52.312 C32.461 52.869 32.234 53.426 32 54 C31.34 54 30.68 54 30 54 C28.894 52.653 28.894 52.653 27.672 50.723 C27.208 49.993 26.745 49.264 26.268 48.513 C25.767 47.704 25.266 46.896 24.75 46.062 C24.229 45.229 23.707 44.395 23.17 43.536 C0 6.049 0 6.049 0 0 Z " fill="#000000" transform="translate(592,553)"/>
<path d="M0 0 C0.66 0 1.32 0 2 0 C3.585 2.999 5.168 6 6.75 9 C7.193 9.839 7.637 10.678 8.094 11.543 C8.975 13.216 9.854 14.89 10.729 16.566 C11.562 18.162 12.404 19.753 13.256 21.34 C14.231 23.196 15.124 25.095 16 27 C15.67 27.66 15.34 28.32 15 29 C10.584 23.093 6.671 16.951 3 10.562 C2.59 9.864 2.18 9.166 1.758 8.447 C0.757 6.675 -0.131 4.84 -1 3 C-0.67 2.01 -0.34 1.02 0 0 Z " fill="#000000" transform="translate(660,553)"/>
<path d="M0 0 C2.062 0.438 2.062 0.438 4 1 C4 2.65 4 4.3 4 6 C2.062 6.562 2.062 6.562 0 7 C-1 6 -1 6 -1.125 3.5 C-1 1 -1 1 0 0 Z " fill="#000000" transform="translate(284,555)"/>
<path d="M0 0 C4.699 4.231 7.776 9.067 11.062 14.438 C12.094 16.103 13.127 17.769 14.16 19.434 C14.644 20.22 15.127 21.006 15.625 21.816 C16.825 23.722 18.078 25.567 19.371 27.41 C21 30 21 30 21 33 C19.193 32.789 19.193 32.789 17 32 C15.416 29.994 15.416 29.994 13.906 27.371 C13.351 26.418 12.795 25.465 12.223 24.482 C11.654 23.478 11.086 22.473 10.5 21.438 C9.932 20.46 9.363 19.482 8.777 18.475 C0 3.272 0 3.272 0 0 Z " fill="#000000" transform="translate(614,560)"/>
<path d="M0 0 C0.99 0.33 1.98 0.66 3 1 C3.33 1.99 3.66 2.98 4 4 C2.68 4 1.36 4 0 4 C0 2.68 0 1.36 0 0 Z " fill="#000000" transform="translate(648,566)"/>
<path d="M0 0 C2.215 2.047 3.63 3.905 4.938 6.617 C5.275 7.307 5.613 7.996 5.961 8.707 C6.304 9.422 6.647 10.138 7 10.875 C8.016 12.972 9.037 15.066 10.078 17.151 C10.84 18.679 11.579 20.217 12.312 21.758 C15.33 25.767 18.8 27.583 23.628 28.498 C26.565 28.836 29.488 29.066 32.438 29.25 C33.964 29.366 33.964 29.366 35.521 29.484 C38.014 29.672 40.506 29.843 43 30 C43 30.99 43 31.98 43 33 C41.938 33.508 40.876 34.016 39.781 34.539 C25.711 40.547 25.711 40.547 16.625 52 C14.866 57.608 14.118 63.298 13.492 69.129 C13 72 13 72 11 74 C8.281 70.055 5.604 66.165 3.395 61.906 C2.852 60.865 2.309 59.823 1.75 58.75 C1.27 57.775 0.791 56.801 0.297 55.797 C-5.615 48.598 -14.838 47.043 -23.625 45.688 C-24.629 45.519 -25.633 45.351 -26.668 45.178 C-29.11 44.771 -31.553 44.378 -34 44 C-33 41 -33 41 -31.054 39.944 C-30.218 39.628 -29.381 39.311 -28.52 38.984 C-27.602 38.62 -26.685 38.255 -25.74 37.879 C-23.811 37.135 -21.878 36.398 -19.943 35.668 C-13.85 33.227 -9.338 30.82 -6 25 C-4.889 22.209 -4.244 19.447 -3.688 16.5 C-3.532 15.779 -3.377 15.059 -3.217 14.316 C-2.497 10.901 -1.913 7.492 -1.457 4.031 C-1 1 -1 1 0 0 Z " fill="#000000" transform="translate(228,577)"/>
<path d="M0 0 C0.33 0 0.66 0 1 0 C1.109 7.927 1.129 15.847 1.038 23.774 C0.993 28.117 1.063 32.443 1.188 36.785 C1.282 58.888 -8.486 77.14 -17.872 96.636 C-19.557 100.167 -21.182 103.723 -22.801 107.285 C-28.281 119.316 -33.957 131.242 -40 143 C-41.98 142.67 -43.96 142.34 -46 142 C-43.821 134.725 -40.779 128.1 -37.419 121.298 C-35.838 118.097 -34.274 114.886 -32.711 111.676 C-32.396 111.029 -32.08 110.382 -31.755 109.715 C-28.769 103.568 -25.937 97.354 -23.125 91.125 C-12.859 68.479 -12.859 68.479 -8.344 62.984 C-4.857 57.835 -5.763 50.173 -5.605 44.16 C-5.537 42.024 -5.467 39.888 -5.396 37.752 C-5.289 34.404 -5.187 31.055 -5.101 27.706 C-5.016 24.461 -4.906 21.217 -4.793 17.973 C-4.773 16.978 -4.753 15.983 -4.732 14.958 C-4.495 8.828 -3.509 5.063 0 0 Z " fill="#000000" transform="translate(443,585)"/>
<path d="M0 0 C3.422 3.137 5.856 6.622 8.25 10.562 C8.614 11.139 8.977 11.716 9.352 12.311 C11.063 15.1 12 16.667 12 20 C8.747 18.652 7.395 17.537 5.859 14.375 C5.511 13.669 5.163 12.962 4.805 12.234 C4.457 11.497 4.109 10.76 3.75 10 C3.205 8.894 3.205 8.894 2.648 7.766 C0 2.309 0 2.309 0 0 Z " fill="#000000" transform="translate(661,588)"/>
<path d="M0 0 C0 1.65 0 3.3 0 5 C-1.875 5.625 -1.875 5.625 -4 6 C-4.66 5.34 -5.32 4.68 -6 4 C-6 2.68 -6 1.36 -6 0 C-3.509 -1.245 -2.589 -0.777 0 0 Z " fill="#000000" transform="translate(579,593)"/>
<path d="M0 0 C0.99 0 1.98 0 3 0 C3.7 1.264 4.384 2.537 5.062 3.812 C5.637 4.874 5.637 4.874 6.223 5.957 C7 8 7 8 6 11 C4.188 10.875 4.188 10.875 2 10 C-1.147 5.117 -1.147 5.117 -0.688 1.625 C-0.461 1.089 -0.234 0.553 0 0 Z " fill="#000000" transform="translate(582,609)"/>
<path d="M0 0 C0.99 0 1.98 0 3 0 C4.704 2.307 6.208 4.556 7.688 7 C8.103 7.668 8.519 8.335 8.947 9.023 C9.974 10.676 10.988 12.337 12 14 C11.34 14.66 10.68 15.32 10 16 C8.533 14.446 7.077 12.881 5.625 11.312 C4.813 10.442 4.001 9.572 3.164 8.676 C1.11 6.136 0.01 4.08 -1 1 C-0.67 0.67 -0.34 0.34 0 0 Z " fill="#000000" transform="translate(645,611)"/>
<path d="M0 0 C3.996 1.332 4.303 2.958 6.25 6.625 C8.901 11.369 11.548 15.012 15.617 18.598 C17 20 17 20 18 23 C15.742 23.742 15.742 23.742 13 24 C11.008 22.445 11.008 22.445 9.125 20.125 C8.448 19.297 7.771 18.47 7.074 17.617 C6.047 16.322 6.047 16.322 5 15 C4.305 14.198 3.61 13.396 2.895 12.57 C2.249 11.805 1.603 11.039 0.938 10.25 C0.348 9.554 -0.241 8.858 -0.848 8.141 C-2 6 -2 6 -1.746 3.297 C-1 1 -1 1 0 0 Z " fill="#000000" transform="translate(600,633)"/>
<path d="M0 0 C4.75 0.75 4.75 0.75 7 3 C6.625 5.625 6.625 5.625 6 8 C4.125 7.688 4.125 7.688 2 7 C0 4 0 4 0 0 Z " fill="#000000" transform="translate(738,651)"/>
</svg>
