<?xml version="1.0" encoding="UTF-8"?>
<!-- Generator: visioncortex VTracer 0.6.0 -->
<svg version="1.1" xmlns="http://www.w3.org/2000/svg" width="854" height="447">
<path d="M0 0 C4.62 0 9.24 0 14 0 C15.898 3.77 17.794 7.541 19.688 11.312 C20.483 12.891 20.483 12.891 21.295 14.502 C24.345 20.583 27.25 26.689 29.933 32.942 C30.826 35.158 30.826 35.158 33 36 C33.57 34.121 33.57 34.121 34.152 32.203 C36.075 26.435 38.781 21.144 41.562 15.75 C42.545 13.829 43.525 11.907 44.504 9.984 C44.935 9.146 45.366 8.308 45.811 7.444 C46.992 5.017 47.997 2.506 49 0 C53.62 0 58.24 0 63 0 C63 22.77 63 45.54 63 69 C58.71 69 54.42 69 50 69 C49.833 64.874 49.671 60.748 49.518 56.622 C49.465 55.222 49.41 53.821 49.352 52.421 C48.765 38.102 48.765 38.102 50 31 C49.34 31 48.68 31 48 31 C47.765 31.797 47.531 32.593 47.289 33.414 C45.665 37.931 43.555 42.104 41.375 46.375 C40.955 47.206 40.535 48.038 40.102 48.895 C39.071 50.932 38.036 52.966 37 55 C33.7 55 30.4 55 27 55 C25.374 51.917 23.75 48.834 22.125 45.75 C21.665 44.877 21.205 44.005 20.73 43.105 C20.286 42.261 19.841 41.417 19.383 40.547 C18.974 39.772 18.566 38.997 18.145 38.198 C17.075 36.143 16.036 34.072 15 32 C14.67 44.21 14.34 56.42 14 69 C9.38 69 4.76 69 0 69 C0 46.23 0 23.46 0 0 Z " fill="#000000" transform="translate(224,139)"/>
<path d="M0 0 C3.63 0 7.26 0 11 0 C16.845 15.188 22.571 30.408 28 45.75 C28.231 46.402 28.462 47.053 28.699 47.725 C31.2 54.795 33.656 61.876 36 69 C31.38 69 26.76 69 22 69 C18 59.25 18 59.25 18 57 C9.75 57 1.5 57 -7 57 C-7.66 59.97 -8.32 62.94 -9 66 C-9.66 66.99 -10.32 67.98 -11 69 C-14.258 69.293 -14.258 69.293 -18.125 69.188 C-20.047 69.147 -20.047 69.147 -22.008 69.105 C-22.995 69.071 -23.983 69.036 -25 69 C-17.471 45.718 -9.029 22.742 0 0 Z M5 22 C2.36 29.59 -0.28 37.18 -3 45 C-1.837 46.392 -1.837 46.392 1.379 46.098 C2.773 46.091 4.168 46.079 5.562 46.062 C6.273 46.058 6.984 46.053 7.717 46.049 C9.478 46.037 11.239 46.019 13 46 C14.158 42.527 13.812 41.723 12.637 38.367 C12.327 37.479 12.017 36.591 11.697 35.676 C11.364 34.752 11.031 33.827 10.688 32.875 C10.205 31.477 10.205 31.477 9.713 30.051 C8.392 25.19 8.392 25.19 5 22 Z " fill="#000000" transform="translate(320,139)"/>
<path d="M0 0 C33 0 33 0 42 4 C47.308 9.421 49.293 13.258 49.375 20.812 C49.267 26.912 48.902 30.297 45 35 C43.809 35.929 42.59 36.824 41.348 37.684 C40.72 38.121 40.092 38.559 39.446 39.01 C38.969 39.336 38.491 39.663 38 40 C42.161 48.417 46.33 56.794 50.969 64.961 C52 67 52 67 52 69 C46.72 69 41.44 69 36 69 C34.183 65.252 32.371 61.502 30.562 57.75 C30.046 56.687 29.53 55.623 28.998 54.527 C28.505 53.503 28.012 52.478 27.504 51.422 C27.048 50.479 26.593 49.537 26.123 48.565 C25 46 25 46 24 42 C20.7 42 17.4 42 14 42 C14.005 42.782 14.01 43.565 14.016 44.371 C14.037 47.893 14.05 51.415 14.062 54.938 C14.071 56.169 14.079 57.401 14.088 58.67 C14.091 59.84 14.094 61.01 14.098 62.215 C14.103 63.299 14.108 64.383 14.114 65.5 C14 68 14 68 13 69 C8.71 69 4.42 69 0 69 C0 46.23 0 23.46 0 0 Z M14 12 C12.475 15.05 12.856 18.221 12.875 21.562 C12.871 22.261 12.867 22.959 12.863 23.678 C12.561 27.127 12.561 27.127 14 30 C16.767 30.208 19.479 30.325 22.25 30.375 C23.014 30.412 23.779 30.45 24.566 30.488 C28.835 30.555 30.506 30.378 34.012 27.695 C36.262 25.076 36.262 25.076 36.562 21.5 C35.919 17.495 34.841 15.841 32 13 C28.812 11.406 25.371 11.898 21.875 11.938 C20.744 11.944 20.744 11.944 19.59 11.951 C17.727 11.963 15.863 11.981 14 12 Z " fill="#000000" transform="translate(364,139)"/>
<path d="M0 0 C4.29 0 8.58 0 13 0 C13 22.77 13 45.54 13 69 C8.38 69 3.76 69 -1 69 C-1.023 60.151 -1.041 51.302 -1.052 42.454 C-1.057 38.345 -1.064 34.237 -1.075 30.128 C-1.086 26.167 -1.092 22.205 -1.095 18.243 C-1.097 16.729 -1.1 15.214 -1.106 13.699 C-1.113 11.585 -1.114 9.47 -1.114 7.356 C-1.116 6.15 -1.118 4.944 -1.12 3.702 C-1 1 -1 1 0 0 Z " fill="#000000" transform="translate(426,139)"/>
<path d="M0 0 C3.63 0 7.26 0 11 0 C15.805 13.213 15.805 13.213 20.609 26.426 C20.957 27.382 21.305 28.338 21.663 29.323 C22.368 31.262 23.072 33.202 23.776 35.141 C25.608 40.188 27.452 45.23 29.316 50.265 C29.688 51.273 30.06 52.281 30.443 53.32 C31.154 55.249 31.869 57.177 32.588 59.103 C32.905 59.965 33.222 60.828 33.549 61.716 C33.83 62.474 34.111 63.231 34.401 64.011 C35 66 35 66 35 69 C30.38 69 25.76 69 21 69 C19.68 65.37 18.36 61.74 17 58 C9.08 57.67 1.16 57.34 -7 57 C-7.99 60.3 -8.98 63.6 -10 67 C-10.495 67.99 -10.495 67.99 -11 69 C-15.62 69 -20.24 69 -25 69 C-22.876 61.703 -20.488 54.55 -17.91 47.402 C-17.524 46.328 -17.139 45.254 -16.741 44.147 C-15.93 41.89 -15.117 39.634 -14.303 37.378 C-13.065 33.945 -11.834 30.511 -10.604 27.076 C-9.81 24.872 -9.017 22.668 -8.223 20.465 C-7.859 19.449 -7.495 18.433 -7.121 17.386 C-4.978 11.467 -2.625 5.722 0 0 Z M5 22 C1.808 29.522 -0.691 37.165 -3 45 C-1.837 46.392 -1.837 46.392 1.379 46.098 C2.773 46.091 4.168 46.079 5.562 46.062 C6.273 46.058 6.984 46.053 7.717 46.049 C9.478 46.037 11.239 46.019 13 46 C14.38 43.241 13.595 42.141 12.637 39.246 C12.172 37.841 12.172 37.841 11.697 36.408 C11.364 35.428 11.031 34.448 10.688 33.438 C10.366 32.453 10.044 31.469 9.713 30.455 C9.399 29.52 9.085 28.585 8.762 27.621 C8.473 26.759 8.183 25.897 7.885 25.01 C7.177 22.823 7.177 22.823 5 22 Z " fill="#000000" transform="translate(472,139)"/>
<path d="M0 0 C3.694 1.231 5.351 3.208 8 6 C8.763 5.67 9.526 5.34 10.312 5 C13 4 13 4 16 4 C16.253 10.069 15.698 15.162 14 21 C13.67 20.34 13.34 19.68 13 19 C10.97 18.685 10.97 18.685 8.625 18.625 C4.268 18.236 4.268 18.236 1.875 16.125 C1 14 1 14 2 11 C2.66 11 3.32 11 4 11 C4.33 12.32 4.66 13.64 5 15 C7.64 15.66 10.28 16.32 13 17 C13 16.34 13 15.68 13 15 C11.35 14.67 9.7 14.34 8 14 C7.752 12.721 7.505 11.442 7.25 10.125 C6.545 6.808 6.545 6.808 4 4.75 C3.34 4.502 2.68 4.255 2 4 C0.75 1.875 0.75 1.875 0 0 Z M9 8 C9 9.65 9 11.3 9 13 C10.666 13.043 12.334 13.041 14 13 C15.356 11.875 15.356 11.875 15.062 8.938 C15.042 7.968 15.021 6.999 15 6 C12.537 6 11.148 6.855 9 8 Z " fill="#000000" transform="translate(118,151)"/>
<path d="M0 0 C48.51 0 97.02 0 147 0 C147 48.51 147 97.02 147 147 C144.328 148.336 142.293 148.126 139.299 148.127 C138.086 148.13 136.874 148.133 135.624 148.136 C134.273 148.134 132.921 148.132 131.57 148.129 C130.153 148.131 128.735 148.133 127.318 148.135 C123.463 148.139 119.608 148.137 115.752 148.134 C111.725 148.132 107.697 148.134 103.67 148.136 C96.907 148.138 90.144 148.135 83.381 148.13 C75.551 148.125 67.721 148.127 59.891 148.132 C53.179 148.137 46.466 148.137 39.753 148.135 C35.74 148.133 31.726 148.133 27.713 148.136 C23.941 148.139 20.17 148.137 16.398 148.131 C15.01 148.13 13.622 148.13 12.234 148.133 C10.347 148.135 8.461 148.131 6.574 148.127 C4.986 148.126 4.986 148.126 3.366 148.126 C1 148 1 148 0 147 C-0.097 145.102 -0.122 143.2 -0.12 141.299 C-0.122 140.063 -0.123 138.828 -0.124 137.555 C-0.121 136.167 -0.117 134.78 -0.114 133.392 C-0.113 131.92 -0.113 130.448 -0.114 128.977 C-0.114 125.021 -0.108 121.066 -0.101 117.111 C-0.096 113.405 -0.095 109.699 -0.095 105.992 C-0.089 95.141 -0.075 84.289 -0.062 73.438 C-0.042 49.203 -0.021 24.969 0 0 Z M6 6 C6 50.88 6 95.76 6 142 C6.99 142 7.98 142 9 142 C9.255 140.043 9.255 140.043 9.516 138.047 C10.693 129.423 11.956 121.373 15.031 113.195 C16.318 108.952 16.887 104.696 17.5 100.312 C18.449 93.694 19.448 87.789 23 82 C23.393 81.348 23.786 80.695 24.191 80.023 C26.69 76.216 28.973 74.215 33 72 C34.706 70.373 36.378 68.71 38 67 C40.36 64.64 41.779 64.509 45 64 C45 63.34 45 62.68 45 62 C44.34 62 43.68 62 43 62 C42.875 56.25 42.875 56.25 44 54 C44 51.982 43.998 49.963 43.969 47.945 C44.003 45.823 44.487 44.054 45 42 C45.207 37.794 45.239 34.776 44 30.75 C42.597 25.49 42.84 20.412 43 15 C44.361 15.928 44.361 15.928 45.75 16.875 C48.149 18.444 50.41 19.804 53 21 C53.763 20.031 54.526 19.061 55.312 18.062 C57.267 15.579 57.857 15.048 61 14 C61 15.32 61 16.64 61 18 C59.35 18.66 57.7 19.32 56 20 C56.414 24.833 58.464 26.827 62 30 C61.301 29.977 60.603 29.954 59.883 29.93 C58.973 29.912 58.063 29.894 57.125 29.875 C56.22 29.852 55.315 29.829 54.383 29.805 C51.812 29.757 51.812 29.757 50 32 C50.495 33.485 50.495 33.485 51 35 C53.64 35.33 56.28 35.66 59 36 C57.35 36.99 55.7 37.98 54 39 C54.106 41.452 54.106 41.452 55 44 C57.476 45.375 57.476 45.375 60 46 C60.144 47.217 60.289 48.434 60.438 49.688 C60.827 52.828 61.362 55.899 62 59 C62 59.66 62 60.32 62 61 C61.01 61.495 61.01 61.495 60 62 C60.33 62.99 60.66 63.98 61 65 C64.336 64.073 65.884 63.132 68.188 60.5 C70.467 56.098 71.269 51.87 72 47 C69.36 47.33 66.72 47.66 64 48 C63.67 47.34 63.34 46.68 63 46 C65.64 46 68.28 46 71 46 C70.568 41.248 69.672 39.08 66 36 C69.976 37.325 72.112 39.012 75 42 C75.66 42 76.32 42 77 42 C76.893 43.207 76.786 44.413 76.676 45.656 C76.554 47.271 76.433 48.885 76.312 50.5 C76.203 51.687 76.203 51.687 76.092 52.898 C75.618 59.706 76.895 64.632 80.562 70.5 C81.037 70.995 81.511 71.49 82 72 C82.66 72 83.32 72 84 72 C84.326 71.374 84.652 70.747 84.988 70.102 C85.425 69.284 85.862 68.467 86.312 67.625 C86.742 66.813 87.171 66.001 87.613 65.164 C89 63 89 63 92 61 C92.99 61 93.98 61 95 61 C93.02 61.99 93.02 61.99 91 63 C91.113 64.959 91.113 64.959 92 67 C96.313 69.696 101.097 69.192 106 69 C106 69.66 106 70.32 106 71 C103.03 71 100.06 71 97 71 C97 74.88 97.408 76.367 99 79.75 C99.371 80.549 99.743 81.348 100.125 82.172 C100.414 82.775 100.702 83.378 101 84 C100.01 84.99 99.02 85.98 98 87 C98.33 87.99 98.66 88.98 99 90 C102.826 88.549 104.223 86.642 106 83 C106 82.01 106 81.02 106 80 C104.02 79.01 104.02 79.01 102 78 C103.667 78 105.333 78 107 78 C107.33 76.35 107.66 74.7 108 73 C108.66 73.33 109.32 73.66 110 74 C109.691 74.681 109.381 75.361 109.062 76.062 C107.828 79.009 107.828 79.009 107.875 82.375 C106.748 87.046 104.639 88.488 100.91 91.324 C98.901 93.087 98.018 94.553 97 97 C96.546 96.34 96.093 95.68 95.625 95 C95.089 94.34 94.553 93.68 94 93 C93.34 93 92.68 93 92 93 C92.592 95.92 93.198 98.835 93.812 101.75 C93.978 102.575 94.144 103.4 94.314 104.25 C95.485 110.203 95.485 110.203 99 115 C99.99 115 100.98 115 102 115 C102.561 112.276 103.069 109.561 103.5 106.812 C104 104 104 104 105 102 C107.222 104.222 107.926 106.085 109 109 C110.65 109 112.3 109 114 109 C113.67 109.66 113.34 110.32 113 111 C111.02 110.67 109.04 110.34 107 110 C107.403 112.517 107.403 112.517 109 115 C113.205 116.966 117.577 117.561 122 116 C124.281 114.135 124.281 114.135 124.312 111.188 C123.966 107.658 122.942 105.912 121 103 C121 102.34 121 101.68 121 101 C121.708 102.197 122.39 103.408 123.062 104.625 C123.445 105.298 123.828 105.971 124.223 106.664 C126.191 112.58 122.661 119.261 120.742 124.879 C119.8 128.84 120.197 131.394 122 135 C119.333 132.51 117.443 130.366 116 127 C117.485 127.495 117.485 127.495 119 128 C119 126.35 119 124.7 119 123 C117.855 123.309 117.855 123.309 116.688 123.625 C114 124 114 124 111 122 C106.043 121.68 102.52 121.74 98 124 C97.897 123.381 97.794 122.762 97.688 122.125 C97.125 119.635 97.125 119.635 94 118 C92.3 117.699 90.589 117.455 88.875 117.25 C82.842 116.182 78.357 114.4 74 110 C69.948 103.847 67.458 97.219 65.836 90.059 C64.268 86.197 60.624 84.683 57 83 C57.599 80.648 58.269 78.314 59 76 C59.66 75.67 60.32 75.34 61 75 C60.505 76.485 60.505 76.485 60 78 C61.508 80.144 61.508 80.144 63.625 82.375 C67.747 87.266 69.823 91.973 71.797 98.02 C73.128 101.316 74.488 103.484 77 106 C79.635 106.879 79.635 106.879 82 107 C81.674 106.371 81.348 105.742 81.012 105.094 C76.062 95.4 72.935 88.947 76 78 C73.062 75.497 70.821 74.531 67 74 C67 70.7 67 67.4 67 64 C63.967 65.975 61.227 67.79 58.562 70.25 C55.235 72.522 52.943 72.309 49 72 C48.34 70.35 47.68 68.7 47 67 C43.744 66.057 43.744 66.057 40 66 C36.978 68.105 36.978 68.105 35 71 C35 71.99 35 72.98 35 74 C32.525 74.495 32.525 74.495 30 75 C30 75.66 30 76.32 30 77 C31.454 77.557 31.454 77.557 32.938 78.125 C36 80 36 80 37.125 82.688 C36.832 90.462 31.353 96.39 26.5 102.062 C19.269 110.049 19.269 110.049 15.688 119.875 C15.781 121.98 15.781 121.98 17 123 C16.606 127.179 15.858 130.284 14 134 C14.33 134.99 14.66 135.98 15 137 C16.32 135.02 17.64 133.04 19 131 C19.99 131.33 20.98 131.66 22 132 C22.95 135.695 22.95 138.305 22 142 C24.31 142 26.62 142 29 142 C30.32 138.7 31.64 135.4 33 132 C33.33 132.908 33.66 133.815 34 134.75 C36.565 138.918 39.445 140.551 44 142 C48.184 142.458 52.298 142.381 56.5 142.25 C57.609 142.232 58.717 142.214 59.859 142.195 C62.574 142.149 65.286 142.083 68 142 C68.102 141.403 68.205 140.806 68.31 140.192 C69.24 135.36 70.082 132.046 73.625 128.438 C74.257 127.776 74.888 127.115 75.539 126.434 C76.021 125.961 76.503 125.487 77 125 C77.66 125.33 78.32 125.66 79 126 C78.361 126.804 77.721 127.609 77.062 128.438 C74.401 132.359 74.206 136.366 74 141 C75.65 141.33 77.3 141.66 79 142 C79.505 140.231 80.004 138.459 80.5 136.688 C80.778 135.701 81.057 134.715 81.344 133.699 C82.118 130.977 82.118 130.977 82 128 C84 129 84 129 85.375 131.312 C87.004 134.006 88.632 135.937 91 138 C91.66 138 92.32 138 93 138 C93.495 135.03 93.495 135.03 94 132 C96.683 133.341 97.221 134.939 98.625 137.562 C99.071 138.389 99.517 139.215 99.977 140.066 C100.483 141.024 100.483 141.024 101 142 C102.98 142 104.96 142 107 142 C107.66 140.35 108.32 138.7 109 137 C110.65 137.33 112.3 137.66 114 138 C113.578 137.518 113.157 137.036 112.723 136.539 C112.175 135.907 111.627 135.276 111.062 134.625 C110.517 133.999 109.972 133.372 109.41 132.727 C108 131 108 131 107 129 C113.851 132.105 117.651 135.218 121 142 C121.99 141.67 122.98 141.34 124 141 C124.66 141.33 125.32 141.66 126 142 C130.95 142 135.9 142 141 142 C141 97.12 141 52.24 141 6 C96.45 6 51.9 6 6 6 Z M45 18 C46.793 22.29 46.793 22.29 50.062 25.438 C52.057 26.254 52.057 26.254 54 25 C54 24.34 54 23.68 54 23 C53.216 22.917 52.433 22.835 51.625 22.75 C49 22 49 22 47.688 19.938 C47.461 19.298 47.234 18.659 47 18 C46.34 18 45.68 18 45 18 Z M54 50 C54.33 51.98 54.66 53.96 55 56 C55.99 55.67 56.98 55.34 58 55 C57.505 52.525 57.505 52.525 57 50 C56.01 50 55.02 50 54 50 Z M74 55 C72.699 57.732 72.699 57.732 72 61 C73.245 63.855 73.245 63.855 75 66 C74 67 74 67 72 68 C72.99 69.485 72.99 69.485 74 71 C75.32 71 76.64 71 78 71 C78 71.99 78 72.98 78 74 C75.525 73.01 75.525 73.01 73 72 C73.98 74.451 74.651 75.768 76.875 77.25 C79.253 78.222 79.253 78.222 83 78 C83.289 78.763 83.577 79.526 83.875 80.312 C84.963 83.15 84.963 83.15 87 86 C87.66 86 88.32 86 89 86 C88.67 84.35 88.34 82.7 88 81 C87.34 81 86.68 81 86 81 C85.794 80.154 85.588 79.309 85.375 78.438 C84.114 75.284 83.227 73.963 81 71.562 C77.316 67.492 76.109 63.553 75.875 58.062 C75.916 57.382 75.957 56.701 76 56 C75.34 55.67 74.68 55.34 74 55 Z M87 70 C87 70.66 87 71.32 87 72 C87.66 71.67 88.32 71.34 89 71 C88.34 70.67 87.68 70.34 87 70 Z M26 79 C23.545 84.123 22.497 88.339 22 94 C25.524 91.454 25.524 91.454 28 88 C28.07 86.46 28.085 84.917 28.062 83.375 C28.053 82.558 28.044 81.74 28.035 80.898 C28.024 80.272 28.012 79.645 28 79 C27.34 79 26.68 79 26 79 Z M97 80 C97 81.32 97 82.64 97 84 C97.33 82.68 97.66 81.36 98 80 C97.67 80 97.34 80 97 80 Z M32 140 C33 142 33 142 33 142 Z M85 140 C85.66 140.66 86.32 141.32 87 142 C87 141.34 87 140.68 87 140 C86.34 140 85.68 140 85 140 Z " fill="#000000" transform="translate(56,139)"/>
<path d="M0 0 C2 2 2 2 2 5 C2.99 5.33 3.98 5.66 5 6 C2 7 2 7 -1 6 C-0.67 4.02 -0.34 2.04 0 0 Z " fill="#000000" transform="translate(98,208)"/>
<path d="M0 0 C2.389 0.956 3.735 1.575 5.117 3.789 C6.09 6.226 6.267 8.01 6.25 10.625 C6.258 11.789 6.258 11.789 6.266 12.977 C6 15 6 15 4 17 C3.879 16.192 3.758 15.384 3.633 14.551 C3.465 13.482 3.298 12.414 3.125 11.312 C2.963 10.257 2.8 9.201 2.633 8.113 C2.041 5.202 1.197 2.71 0 0 Z " fill="#000000" transform="translate(99,216)"/>
<path d="M0 0 C-0.576 3.353 -1.593 4.938 -4.062 7.25 C-4.61 7.771 -5.158 8.292 -5.723 8.828 C-6.144 9.215 -6.566 9.602 -7 10 C-7.773 9.567 -7.773 9.567 -8.562 9.125 C-14.878 6.21 -21.002 4.934 -27.812 6.75 C-30.463 8.264 -31.184 9.063 -32 12 C-32.164 15.096 -32.164 15.096 -31 18 C-25.938 21.148 -20.703 21.919 -14.922 22.729 C-8.788 23.718 -4.83 25.973 -0.688 30.562 C3.149 36.104 2.424 42.516 2 49 C0.105 55.131 -4.38 59.044 -9.93 62.043 C-19.699 65.969 -31.175 65.15 -40.746 61.156 C-43.484 59.751 -45.785 58.139 -48 56 C-46.44 52.172 -44.164 49.636 -41 47 C-38.126 47.401 -35.519 48.542 -32.812 49.562 C-26.706 51.601 -21.511 52.031 -15.5 49.562 C-13.148 48.223 -13.148 48.223 -12 47 C-11.661 41.673 -11.661 41.673 -14 37 C-15.911 36.271 -15.911 36.271 -18.141 35.938 C-19.376 35.702 -19.376 35.702 -20.637 35.461 C-21.499 35.309 -22.361 35.157 -23.25 35 C-37.448 32.45 -37.448 32.45 -42.312 26.562 C-42.804 25.986 -43.295 25.41 -43.801 24.816 C-46.675 20.463 -46.674 15.031 -46 10 C-43.963 3.584 -41.113 -0.943 -35.086 -4.102 C-23.023 -9.297 -10.742 -7.161 0 0 Z " fill="#000000" transform="translate(789,223)"/>
<path d="M0 0 C1.792 0.017 1.792 0.017 3.621 0.035 C5.417 0.049 5.417 0.049 7.25 0.062 C8.177 0.074 9.104 0.086 10.059 0.098 C16.059 12.098 22.059 24.098 28.059 36.098 C28.77 34.622 28.77 34.622 29.496 33.116 C31.256 29.464 33.02 25.813 34.785 22.163 C35.548 20.584 36.31 19.004 37.072 17.423 C38.167 15.151 39.265 12.88 40.363 10.609 C40.703 9.903 41.043 9.197 41.393 8.469 C42.812 5.54 44.25 2.811 46.059 0.098 C50.349 0.098 54.639 0.098 59.059 0.098 C59.059 22.868 59.059 45.638 59.059 69.098 C56.059 70.098 56.059 70.098 46.059 69.098 C46.059 56.558 46.059 44.018 46.059 31.098 C45.399 31.098 44.739 31.098 44.059 31.098 C43.824 31.894 43.589 32.691 43.348 33.512 C41.724 38.029 39.613 42.202 37.434 46.473 C37.013 47.304 36.593 48.136 36.16 48.992 C35.13 51.029 34.095 53.064 33.059 55.098 C29.759 55.098 26.459 55.098 23.059 55.098 C21.433 52.015 19.808 48.931 18.184 45.848 C17.723 44.975 17.263 44.102 16.789 43.203 C16.344 42.359 15.9 41.514 15.441 40.645 C15.033 39.869 14.624 39.094 14.204 38.296 C13.133 36.241 12.095 34.17 11.059 32.098 C10.729 44.308 10.399 56.518 10.059 69.098 C6.842 69.902 4.603 70.233 1.371 70.223 C0.583 70.225 -0.204 70.228 -1.016 70.23 C-2.941 70.098 -2.941 70.098 -3.941 69.098 C-4.041 66.986 -4.069 64.872 -4.071 62.758 C-4.073 61.765 -4.073 61.765 -4.076 60.752 C-4.081 58.555 -4.078 56.358 -4.074 54.16 C-4.075 52.639 -4.076 51.119 -4.077 49.598 C-4.079 46.407 -4.076 43.216 -4.072 40.024 C-4.066 35.925 -4.069 31.826 -4.075 27.726 C-4.079 24.585 -4.078 21.443 -4.075 18.302 C-4.075 16.79 -4.075 15.278 -4.078 13.766 C-4.08 11.657 -4.076 9.547 -4.071 7.438 C-4.07 6.235 -4.069 5.032 -4.068 3.793 C-3.891 0.025 -3.804 0.126 0 0 Z " fill="#000000" transform="translate(227.94140625,216.90234375)"/>
<path d="M0 0 C4.29 0 8.58 0 13 0 C13 22.77 13 45.54 13 69 C7.852 70.03 5.056 69.771 0 69 C-1.066 65.521 -1.127 62.314 -1.129 58.687 C-1.133 57.409 -1.136 56.131 -1.139 54.815 C-1.137 53.425 -1.135 52.035 -1.133 50.645 C-1.133 49.218 -1.134 47.791 -1.136 46.364 C-1.137 43.379 -1.135 40.394 -1.13 37.409 C-1.125 33.576 -1.128 29.742 -1.134 25.909 C-1.138 22.965 -1.136 20.022 -1.134 17.079 C-1.133 15.665 -1.134 14.25 -1.136 12.836 C-1.139 10.866 -1.134 8.895 -1.129 6.925 C-1.129 5.802 -1.128 4.68 -1.127 3.523 C-1 1 -1 1 0 0 Z " fill="#000000" transform="translate(301,217)"/>
<path d="M0 0 C2.066 -0.01 4.13 -0.041 6.195 -0.072 C14.766 -0.142 22.569 -0.076 29.414 5.553 C36.87 14.713 37.977 22.494 37.914 33.99 C37.906 35.588 37.906 35.588 37.897 37.219 C37.758 46.186 37.561 54.779 31.977 62.24 C24.338 69.575 15.373 69.894 5.306 70.024 C3.078 70.053 0.852 70.108 -1.375 70.168 C-8.977 70.34 -8.977 70.34 -12.398 70.24 C-14.246 68.392 -13.526 65.372 -13.528 62.9 C-13.53 61.908 -13.53 61.908 -13.533 60.895 C-13.538 58.698 -13.535 56.5 -13.531 54.303 C-13.532 52.782 -13.533 51.261 -13.534 49.74 C-13.536 46.549 -13.533 43.358 -13.529 40.167 C-13.523 36.068 -13.526 31.968 -13.532 27.869 C-13.536 24.727 -13.535 21.586 -13.532 18.445 C-13.532 16.933 -13.532 15.421 -13.535 13.909 C-13.537 11.799 -13.533 9.69 -13.528 7.58 C-13.527 6.377 -13.526 5.175 -13.525 3.935 C-13.227 -2.393 -4.923 0.014 0 0 Z M0.602 12.24 C0.602 27.09 0.602 41.94 0.602 57.24 C14.43 58.526 14.43 58.526 20.602 54.24 C24.409 48.064 24.051 41.768 23.977 34.678 C23.988 33.567 24 32.457 24.012 31.312 C23.988 24.581 23.533 19.782 19.102 14.428 C13.811 10.239 7.206 12.24 0.602 12.24 Z " fill="#000000" transform="translate(340.3984375,216.759765625)"/>
<path d="M0 0 C4.232 -0.1 8.463 -0.172 12.695 -0.22 C14.131 -0.24 15.566 -0.267 17.001 -0.302 C35.582 -0.742 35.582 -0.742 42.9 5.663 C50.307 13.307 50.484 22.328 50.391 32.409 C50.375 34.496 50.391 36.581 50.41 38.668 C50.421 45.728 50.109 51.587 47 58 C46.608 58.887 46.216 59.774 45.812 60.688 C42.559 64.839 37.959 67.347 33 69 C30.583 69.164 28.163 69.273 25.742 69.352 C24.687 69.386 24.687 69.386 23.61 69.422 C22.126 69.469 20.641 69.515 19.157 69.558 C16.876 69.625 14.596 69.703 12.316 69.781 C10.875 69.826 9.434 69.87 7.992 69.914 C6.676 69.955 5.36 69.996 4.003 70.038 C1 70 1 70 0 69 C-0.094 66.853 -0.117 64.702 -0.114 62.552 C-0.114 61.879 -0.114 61.206 -0.114 60.513 C-0.113 58.278 -0.105 56.043 -0.098 53.809 C-0.096 52.263 -0.094 50.717 -0.093 49.172 C-0.09 45.096 -0.08 41.021 -0.069 36.946 C-0.058 32.79 -0.054 28.634 -0.049 24.479 C-0.038 16.319 -0.021 8.16 0 0 Z M13 13 C12.902 14.345 12.872 15.696 12.871 17.045 C12.867 17.903 12.864 18.76 12.861 19.644 C12.863 20.576 12.865 21.508 12.867 22.469 C12.866 23.419 12.865 24.37 12.864 25.349 C12.864 27.364 12.865 29.378 12.87 31.392 C12.875 34.487 12.87 37.581 12.863 40.676 C12.864 42.628 12.865 44.579 12.867 46.531 C12.865 47.464 12.863 48.396 12.861 49.356 C12.864 50.214 12.867 51.072 12.871 51.955 C12.871 52.714 12.872 53.472 12.873 54.254 C12.811 56.029 12.811 56.029 14 57 C23.836 58.102 23.836 58.102 32.812 55.125 C39.095 46.151 38.131 32.246 36.312 21.875 C35.249 17.847 33.306 15.581 30 13 C26.606 11.869 23.947 11.867 20.375 11.875 C18.623 11.871 18.623 11.871 16.836 11.867 C14.099 11.676 14.099 11.676 13 13 Z " fill="#000000" transform="translate(389,217)"/>
<path d="M0 0 C0.797 0.002 1.594 0.004 2.416 0.007 C3.317 0.007 4.217 0.007 5.146 0.007 C6.125 0.012 7.104 0.017 8.113 0.023 C9.11 0.024 10.108 0.025 11.135 0.027 C14.335 0.033 17.534 0.045 20.734 0.058 C22.897 0.063 25.061 0.067 27.224 0.071 C32.54 0.082 37.856 0.1 43.171 0.12 C43.171 4.08 43.171 8.04 43.171 12.12 C32.611 12.12 22.051 12.12 11.171 12.12 C11.171 17.4 11.171 22.68 11.171 28.12 C20.081 28.12 28.991 28.12 38.171 28.12 C38.171 32.08 38.171 36.04 38.171 40.12 C34.774 40.97 32.402 41.238 28.968 41.218 C27.989 41.215 27.009 41.211 25.999 41.208 C24.984 41.2 23.968 41.191 22.921 41.183 C21.374 41.176 21.374 41.176 19.796 41.169 C17.255 41.157 14.713 41.139 12.171 41.12 C11.841 46.4 11.511 51.68 11.171 57.12 C21.731 57.12 32.291 57.12 43.171 57.12 C43.171 61.08 43.171 65.04 43.171 69.12 C40.109 69.886 38.117 70.246 35.077 70.25 C34.283 70.253 33.489 70.256 32.671 70.259 C31.823 70.257 30.975 70.255 30.101 70.253 C28.785 70.255 28.785 70.255 27.442 70.256 C25.591 70.257 23.74 70.255 21.89 70.251 C19.05 70.245 16.21 70.251 13.371 70.257 C11.572 70.256 9.774 70.255 7.976 70.253 C6.698 70.256 6.698 70.256 5.394 70.259 C-0.599 70.235 -0.599 70.235 -2.829 69.12 C-2.852 60.271 -2.87 51.423 -2.88 42.574 C-2.886 38.465 -2.893 34.357 -2.904 30.248 C-2.915 26.287 -2.921 22.325 -2.924 18.364 C-2.925 16.849 -2.929 15.334 -2.934 13.819 C-2.942 11.705 -2.943 9.59 -2.942 7.476 C-2.944 6.27 -2.947 5.064 -2.949 3.822 C-2.787 0.183 -2.787 0.183 0 0 Z " fill="#000000" transform="translate(452.82862854003906,216.87974548339844)"/>
<path d="M0 0 C4.29 0 8.58 0 13 0 C13 18.81 13 37.62 13 57 C23.157 56.96 23.157 56.96 33.314 56.91 C34.57 56.907 35.827 56.905 37.121 56.902 C39.061 56.894 39.061 56.894 41.041 56.886 C44 57 44 57 45 58 C45.072 59.853 45.084 61.708 45.062 63.562 C45.053 64.574 45.044 65.586 45.035 66.629 C45.024 67.411 45.012 68.194 45 69 C42.282 69.906 40.704 70.126 37.912 70.129 C37.094 70.133 36.277 70.136 35.435 70.139 C34.556 70.137 33.678 70.135 32.773 70.133 C31.87 70.134 30.967 70.135 30.036 70.136 C28.128 70.136 26.22 70.135 24.312 70.13 C21.38 70.125 18.448 70.13 15.516 70.137 C13.664 70.136 11.812 70.135 9.961 70.133 C9.079 70.135 8.196 70.137 7.287 70.139 C1.115 70.115 1.115 70.115 0 69 C-0.094 66.853 -0.117 64.702 -0.114 62.552 C-0.114 61.879 -0.114 61.206 -0.114 60.513 C-0.113 58.278 -0.105 56.043 -0.098 53.809 C-0.096 52.263 -0.094 50.717 -0.093 49.172 C-0.09 45.096 -0.08 41.021 -0.069 36.946 C-0.058 32.79 -0.054 28.634 -0.049 24.479 C-0.038 16.319 -0.02 8.16 0 0 Z " fill="#000000" transform="translate(507,217)"/>
<path d="M0 0 C3.63 0 7.26 0 11 0 C15.424 10.27 19.201 20.715 22.938 31.25 C23.836 33.778 24.736 36.306 25.638 38.833 C26.227 40.486 26.815 42.139 27.402 43.793 C28.822 47.781 30.276 51.749 31.813 55.693 C32.098 56.429 32.383 57.165 32.676 57.923 C33.214 59.302 33.759 60.679 34.314 62.053 C36.11 66.669 36.11 66.669 35 70 C33.23 70.054 31.459 70.093 29.688 70.125 C28.701 70.148 27.715 70.171 26.699 70.195 C24 70 24 70 21 68 C20.01 64.7 19.02 61.4 18 58 C10.08 58 2.16 58 -6 58 C-7.32 61.63 -8.64 65.26 -10 69 C-14.971 69.913 -19.029 69.913 -24 69 C-22.536 61.457 -20.156 54.467 -17.5 47.266 C-17.064 46.069 -16.627 44.873 -16.178 43.641 C-15.025 40.485 -13.868 37.331 -12.708 34.178 C-11.763 31.605 -10.823 29.032 -9.884 26.458 C-7.938 21.128 -5.988 15.799 -4.031 10.474 C-3.686 9.535 -3.342 8.596 -2.986 7.629 C-2.027 5.072 -1.014 2.535 0 0 Z M5 22 C3.826 25.435 2.662 28.873 1.5 32.312 C1.166 33.289 0.832 34.265 0.488 35.271 C0.015 36.678 0.015 36.678 -0.469 38.113 C-0.762 38.977 -1.055 39.841 -1.357 40.732 C-2.136 43.088 -2.136 43.088 -2 46 C3.28 46 8.56 46 14 46 C12.406 37.738 9.74 29.937 7 22 C6.34 22 5.68 22 5 22 Z " fill="#000000" transform="translate(582,217)"/>
<path d="M0 0 C4.571 -0.075 9.143 -0.129 13.715 -0.165 C15.267 -0.18 16.82 -0.2 18.373 -0.226 C20.615 -0.263 22.856 -0.28 25.098 -0.293 C25.783 -0.308 26.469 -0.324 27.176 -0.34 C34.948 -0.343 40.454 2.58 46 8 C49.395 13.736 50.451 18.345 50 25 C48.131 30.42 45.845 35.341 40.75 38.312 C39.884 38.653 39.884 38.653 39 39 C39.603 42.949 40.834 45.939 42.723 49.449 C43.53 50.968 43.53 50.968 44.354 52.518 C44.917 53.564 45.481 54.61 46.062 55.688 C47.182 57.773 48.298 59.86 49.41 61.949 C49.907 62.87 50.403 63.792 50.914 64.741 C52 67 52 67 52 69 C46.613 70.453 42.188 71.621 37 69 C33.067 64.017 30.561 58.024 28.008 52.252 C27.139 50.311 26.186 48.406 25.219 46.512 C24 44 24 44 24 42 C20.7 42 17.4 42 14 42 C14 50.91 14 59.82 14 69 C9.298 69.94 5.733 70.158 1 70 C0 69 0 69 -0.12 66.26 C-0.118 65.037 -0.116 63.813 -0.114 62.552 C-0.114 61.879 -0.114 61.206 -0.114 60.513 C-0.113 58.278 -0.105 56.043 -0.098 53.809 C-0.096 52.263 -0.094 50.717 -0.093 49.172 C-0.09 45.096 -0.08 41.021 -0.069 36.946 C-0.058 32.79 -0.054 28.634 -0.049 24.479 C-0.038 16.319 -0.021 8.16 0 0 Z M14 12 C14 17.94 14 23.88 14 30 C18.053 30.155 18.053 30.155 22.188 30.312 C23.45 30.381 23.45 30.381 24.739 30.45 C28.914 30.527 30.56 30.331 34.016 27.734 C36.989 23.638 36.708 21.959 36 17 C33.793 14.031 32.514 13.171 29 12 C26.425 11.93 23.886 11.907 21.312 11.938 C18.899 11.958 16.486 11.979 14 12 Z " fill="#000000" transform="translate(626,217)"/>
<path d="M0 0 C14.85 0 29.7 0 45 0 C45 3.96 45 7.92 45 12 C29.655 12.495 29.655 12.495 14 13 C13.67 17.95 13.34 22.9 13 28 C14.937 27.988 16.875 27.977 18.871 27.965 C21.393 27.955 23.915 27.946 26.438 27.938 C27.717 27.929 28.996 27.921 30.314 27.912 C32.137 27.907 32.137 27.907 33.996 27.902 C35.122 27.897 36.248 27.892 37.408 27.886 C40 28 40 28 41 29 C41.072 30.853 41.084 32.708 41.062 34.562 C41.053 35.574 41.044 36.586 41.035 37.629 C41.024 38.411 41.012 39.194 41 40 C38.338 41.331 36.313 41.113 33.336 41.098 C32.214 41.094 31.093 41.091 29.938 41.088 C28.762 41.08 27.586 41.071 26.375 41.062 C25.192 41.058 24.008 41.053 22.789 41.049 C19.859 41.037 16.93 41.019 14 41 C13.67 46.28 13.34 51.56 13 57 C23.56 57 34.12 57 45 57 C45 60.96 45 64.92 45 69 C42.722 70.139 41.463 70.127 38.933 70.129 C38.096 70.133 37.258 70.136 36.395 70.139 C35.49 70.137 34.585 70.135 33.652 70.133 C32.725 70.134 31.798 70.135 30.843 70.136 C28.882 70.136 26.921 70.135 24.96 70.13 C21.946 70.125 18.933 70.13 15.92 70.137 C14.018 70.136 12.117 70.135 10.215 70.133 C9.308 70.135 8.4 70.137 7.466 70.139 C1.115 70.115 1.115 70.115 0 69 C-0.094 66.853 -0.117 64.702 -0.114 62.552 C-0.114 61.879 -0.114 61.206 -0.114 60.513 C-0.113 58.278 -0.105 56.043 -0.098 53.809 C-0.096 52.263 -0.094 50.717 -0.093 49.172 C-0.09 45.096 -0.08 41.021 -0.069 36.946 C-0.057 32.06 -0.052 27.174 -0.046 22.288 C-0.037 14.859 -0.017 7.429 0 0 Z " fill="#000000" transform="translate(688,217)"/>
<path d="M0 0 C3.55 1.437 5.071 3.113 7.125 6.312 C7.623 7.072 8.12 7.831 8.633 8.613 C10.933 12.63 12 15.317 12 20 C16.161 20.082 19.947 19.982 24 19 C24.495 19.99 24.495 19.99 25 21 C17.553 23.612 10.647 25.517 2.938 23 C2.298 22.67 1.659 22.34 1 22 C1.549 26.571 2.417 30.674 4 35 C3.402 34.691 2.804 34.381 2.188 34.062 C-0.09 32.898 -0.09 32.898 -3 32 C-3.33 33.98 -3.66 35.96 -4 38 C-4.66 38 -5.32 38 -6 38 C-6.33 35.69 -6.66 33.38 -7 31 C-7.99 33.475 -7.99 33.475 -9 36 C-11.205 32.692 -11.211 32.414 -10.539 28.77 C-10.397 27.967 -10.255 27.165 -10.109 26.338 C-9.95 25.505 -9.79 24.671 -9.625 23.812 C-9.473 22.968 -9.321 22.123 -9.164 21.252 C-8.787 19.166 -8.395 17.083 -8 15 C-8.928 15.99 -8.928 15.99 -9.875 17 C-12 19 -12 19 -14 19 C-13.34 20.98 -12.68 22.96 -12 25 C-12.66 25.33 -13.32 25.66 -14 26 C-14.99 25.01 -15.98 24.02 -17 23 C-17.99 23.33 -18.98 23.66 -20 24 C-18.617 20.772 -17.113 19.046 -14.375 16.875 C-8.648 12.047 -4.143 6.215 0 0 Z " fill="#000000" transform="translate(102,236)"/>
<path d="M0 0 C0.66 0 1.32 0 2 0 C3.755 2.685 4.006 3.92 3.75 7.188 C3.502 8.116 3.255 9.044 3 10 C2.01 10.495 2.01 10.495 1 11 C0.67 7.37 0.34 3.74 0 0 Z " fill="#000000" transform="translate(120,262)"/>
</svg>
