<?xml version="1.0" encoding="UTF-8"?>
<!-- Generator: visioncortex VTracer 0.6.0 -->
<svg version="1.1" xmlns="http://www.w3.org/2000/svg" width="847" height="847">
<path d="M0 0 C3.21 1.382 5.049 2.924 7.25 5.625 C8.031 6.572 8.031 6.572 8.828 7.539 C9.408 8.262 9.408 8.262 10 9 C7.274 8.627 6.192 8.208 4.297 6.152 C3.531 5.056 3.531 5.056 2.75 3.938 C2.229 3.204 1.708 2.471 1.172 1.715 C0.785 1.149 0.398 0.583 0 0 Z " fill="#000000" transform="translate(370,111)"/>
<path d="M0 0 C2 0 2 0 4.5 2.438 C5.738 3.706 5.738 3.706 7 5 C7.66 5.33 8.32 5.66 9 6 C9.99 5.01 10.98 4.02 12 3 C12.99 4.485 12.99 4.485 14 6 C13.783 6.902 13.567 7.805 13.344 8.734 C12.853 13.395 14.834 15.581 17.5 19.25 C19.074 21.471 20.554 23.689 22 26 C21.67 26.66 21.34 27.32 21 28 C17.143 26.487 15.346 24.202 12.875 20.938 C10.391 17.429 10.391 17.429 7 15 C6.546 15.825 6.092 16.65 5.625 17.5 C5.089 18.325 4.553 19.15 4 20 C3.34 20 2.68 20 2 20 C2 20.66 2 21.32 2 22 C0.172 23.691 0.172 23.691 -2.25 25.562 C-3.039 26.183 -3.828 26.803 -4.641 27.441 C-6.851 28.902 -8.415 29.567 -11 30 C-11.66 28.68 -12.32 27.36 -13 26 C-11.714 24.827 -10.421 23.662 -9.125 22.5 C-8.406 21.85 -7.686 21.201 -6.945 20.531 C-5 19 -5 19 -3 19 C-2.773 18.423 -2.546 17.845 -2.312 17.25 C-0.67 14.434 1.395 12.919 4 11 C2.787 7.276 1.491 3.622 0 0 Z " fill="#000000" transform="translate(486,113)"/>
<path d="M0 0 C1.32 0.33 2.64 0.66 4 1 C3.387 3.962 2.746 5.381 1 8 C0.01 8 -0.98 8 -2 8 C-1.505 9.485 -1.505 9.485 -1 11 C-1.619 11.062 -2.238 11.124 -2.875 11.188 C-3.576 11.456 -4.278 11.724 -5 12 C-5.309 12.804 -5.619 13.609 -5.938 14.438 C-7 17 -7 17 -9.625 18.312 C-10.409 18.539 -11.192 18.766 -12 19 C-12 19.99 -12 20.98 -12 22 C-13.822 23.925 -15.892 25.375 -18 27 C-18.66 26.67 -19.32 26.34 -20 26 C-19.567 26.857 -19.134 27.714 -18.688 28.598 C-18.131 29.741 -17.574 30.884 -17 32.062 C-16.443 33.188 -15.886 34.313 -15.312 35.473 C-13.912 39.235 -13.757 42.021 -14 46 C-19.235 43.607 -21.299 39.839 -24 35 C-24.825 36.011 -25.65 37.021 -26.5 38.062 C-29.977 42.138 -33.895 45.572 -38 49 C-39.32 48.34 -40.64 47.68 -42 47 C-39.86 42.253 -36.48 38.808 -33 35 C-32.257 34.175 -31.515 33.35 -30.75 32.5 C-29 31 -29 31 -26 31 C-28.31 24.07 -30.62 17.14 -33 10 C-28.604 12.198 -27.724 13.534 -25.25 17.625 C-24.636 18.628 -24.023 19.631 -23.391 20.664 C-22.932 21.435 -22.473 22.206 -22 23 C-19.352 20.422 -17.056 18.084 -15 15 C-14.34 15 -13.68 15 -13 15 C-13 14.34 -13 13.68 -13 13 C-12.34 13 -11.68 13 -11 13 C-10.34 11.35 -9.68 9.7 -9 8 C-8.01 8 -7.02 8 -6 8 C-6 7.34 -6 6.68 -6 6 C-5.34 6 -4.68 6 -4 6 C-4 5.34 -4 4.68 -4 4 C-3.34 4 -2.68 4 -2 4 C-1.34 2.68 -0.68 1.36 0 0 Z " fill="#000000" transform="translate(278,126)"/>
<path d="M0 0 C-2.895 1.93 -5.724 3.288 -8.875 4.75 C-13.91 7.225 -16.902 9.353 -20 14 C-19.67 14.66 -19.34 15.32 -19 16 C-18.236 15.432 -17.471 14.863 -16.684 14.277 C-5.999 6.507 6.015 -1.652 19.766 -0.836 C26.876 0.483 33.569 2.645 40 6 C40.33 6.66 40.66 7.32 41 8 C33.344 7.687 26.555 6.177 19.262 3.84 C15.976 2.994 13.374 2.699 10 3 C7.151 4.878 7.151 4.878 5 7 C5.982 6.805 5.982 6.805 6.984 6.605 C14.035 5.54 18.298 6.581 24.68 9.605 C28.507 11.213 32.272 12.108 36.312 13 C44.429 14.835 44.429 14.835 47.938 17.625 C50.909 19.929 51.596 20.272 55.039 20.793 C60.815 21.971 65.413 24.694 70.438 27.688 C71.368 28.232 72.299 28.777 73.258 29.338 C79.389 32.956 85.303 36.729 91 41 C92.247 41.899 93.496 42.796 94.746 43.691 C96.102 44.669 97.457 45.647 98.812 46.625 C99.448 47.081 100.083 47.537 100.738 48.006 C104.493 50.746 107.759 53.648 111 57 C112.28 58.117 113.571 59.223 114.875 60.312 C118.218 63.214 121.109 66.273 123.961 69.652 C125.535 71.465 127.132 73.208 128.789 74.941 C140.733 87.46 150.785 101.296 156 118 C154.907 118.681 153.814 119.361 152.688 120.062 C147.438 123.342 142.219 126.671 137 130 C138.013 129.457 139.026 128.915 140.07 128.355 C141.422 127.633 142.773 126.91 144.125 126.188 C144.79 125.831 145.455 125.475 146.141 125.107 C150.065 123.011 154.01 120.97 158 119 C157.67 117.02 157.34 115.04 157 113 C158.273 113.934 159.543 114.873 160.812 115.812 C161.52 116.335 162.228 116.857 162.957 117.395 C166.556 120.223 166.556 120.223 168 122 C167.688 125.188 167.688 125.188 167 128 C166.01 128.33 165.02 128.66 164 129 C163.67 127.02 163.34 125.04 163 123 C156.262 123.308 152.034 126.11 146.562 129.875 C145.736 130.418 144.909 130.96 144.057 131.52 C140.907 133.607 140.907 133.607 138 136 C138 136.99 138 137.98 138 139 C142.269 138.526 146.137 137.689 150.25 136.438 C160.205 133.69 168.738 134.356 178 139 C200.143 152.005 211.033 174.337 220.312 197.375 C220.801 198.587 220.801 198.587 221.299 199.823 C223.518 205.463 225.34 211.172 227 217 C221.476 216.504 215.966 215.943 210.458 215.286 C208.315 215.037 206.168 214.826 204.02 214.621 C200.629 214.126 198.032 213.602 195 212 C193.095 209.255 192.17 206.696 191.152 203.516 C182.87 178.247 161.925 158.746 140 145 C139.187 144.613 138.373 144.227 137.535 143.828 C133.955 141.246 132.445 138.052 130.438 134.188 C126.602 126.854 126.602 126.854 122 120 C120 119.958 118 119.958 116 120 C113.562 117.688 113.562 117.688 112 115 C112.33 114.01 112.66 113.02 113 112 C112.34 111.01 111.68 110.02 111 109 C108.416 108.75 108.416 108.75 106 109 C106 108.34 106 107.68 106 107 C106.66 106.67 107.32 106.34 108 106 C107.331 102.887 107.331 102.887 104.938 101.812 C104.298 101.544 103.659 101.276 103 101 C103.66 100.67 104.32 100.34 105 100 C104.664 99.483 104.328 98.966 103.981 98.434 C102.966 96.873 101.952 95.313 100.937 93.752 C99.758 91.94 98.579 90.129 97.399 88.318 C94.6 84.02 91.811 79.717 89.074 75.379 C83.589 66.712 77.78 58.518 71.285 50.577 C70.062 49.076 68.86 47.558 67.66 46.039 C61.888 38.796 55.76 31.173 48 26 C47.319 24.824 47.319 24.824 46.625 23.625 C43.99 19.368 40.953 17.127 36.188 15.75 C35.136 15.502 34.084 15.255 33 15 C33 15.66 33 16.32 33 17 C34.102 17.389 34.102 17.389 35.227 17.785 C47.561 23.188 53.738 36.379 58.507 48.184 C65.284 65.79 70.174 86.044 69 105 C70.196 104.67 71.392 104.34 72.625 104 C76.146 103.029 79.351 102.916 83 103 C83.654 105.31 84.299 107.623 84.938 109.938 C85.12 110.578 85.302 111.218 85.49 111.877 C91.113 132.425 89.682 159.954 83 180 C82.319 179.869 81.639 179.739 80.938 179.604 C66.711 176.904 52.487 174.524 38.125 172.688 C36.827 172.516 35.529 172.345 34.191 172.169 C23.091 170.8 12.083 170.227 1 172 C0.818 170.924 0.636 169.847 0.449 168.738 C-0.931 160.677 -2.435 152.69 -4.352 144.734 C-4.961 142.165 -5.499 139.592 -6 137 C0.336 133.188 6.97 130.139 13.688 127.062 C14.795 126.55 15.903 126.038 17.045 125.51 C24.298 122.174 31.609 119.017 39 116 C26.678 120.116 14.642 124.683 2.697 129.798 C1.722 130.214 0.747 130.63 -0.258 131.059 C-1.126 131.433 -1.993 131.807 -2.887 132.193 C-5 133 -5 133 -7 133 C-6.819 131.15 -6.819 131.15 -6 129 C-3.798 127.707 -3.798 127.707 -0.891 126.598 C0.175 126.182 1.241 125.766 2.34 125.338 C4.028 124.707 4.028 124.707 5.75 124.062 C6.829 123.645 7.908 123.228 9.02 122.799 C12.341 121.518 15.67 120.259 19 119 C21.443 118.063 23.886 117.124 26.328 116.184 C27.415 115.765 28.502 115.347 29.622 114.916 C30.407 114.614 31.192 114.311 32 114 C32.652 109.584 33.295 105.167 33.938 100.75 C34.12 99.515 34.302 98.28 34.49 97.008 C38.036 72.513 41.897 38.178 26.465 16.77 C24.046 13.848 22.67 12.223 19 11 C7.041 10.117 7.041 10.117 -4 14 C-7.206 17.309 -9.936 20.872 -12 25 C-12.66 25 -13.32 25 -14 25 C-14.125 25.873 -14.25 26.745 -14.379 27.645 C-14.969 30.835 -15.857 33.635 -16.938 36.688 C-29.842 77.842 -15.931 128.138 -4.375 168.188 C-4.139 169.01 -3.904 169.832 -3.661 170.679 C-0.013 184.258 -0.013 184.258 6.164 196.792 C8.322 200.118 9.289 202.403 8.938 206.312 C8 210 8 210 5 212 C3.106 212.411 3.106 212.411 0.973 212.633 C-0.207 212.759 -0.207 212.759 -1.411 212.888 C-2.245 212.966 -3.079 213.044 -3.938 213.125 C-4.79 213.208 -5.642 213.29 -6.52 213.376 C-26.222 215.189 -26.222 215.189 -32 211 C-36.205 207.25 -36.588 203.666 -37.02 198.305 C-37 196 -37 196 -36 193 C-36.548 193.198 -37.096 193.397 -37.661 193.601 C-42.997 195.465 -48.171 196.719 -53.75 197.578 C-55.415 197.85 -57.08 198.123 -58.744 198.396 C-59.602 198.535 -60.461 198.674 -61.345 198.817 C-77.911 201.521 -94.046 204.676 -110 210 C-110.998 210.332 -111.997 210.665 -113.025 211.007 C-150.099 223.462 -150.099 223.462 -178 249 C-179.328 249.354 -180.662 249.685 -182 250 C-183.485 250.99 -183.485 250.99 -185 252 C-190.26 253.113 -195.451 253.105 -200.812 252.938 C-202.098 252.905 -203.383 252.873 -204.707 252.84 C-208 252 -208 252 -209.984 249.078 C-211 246 -211 246 -210.438 243.812 C-207.684 240.341 -205.788 239.163 -201.375 238.25 C-198 238 -198 238 -196 239 C-196 241.64 -196 244.28 -196 247 C-194.68 246.01 -193.36 245.02 -192 244 C-193.485 239.545 -193.485 239.545 -195 235 C-193.824 234.546 -192.649 234.092 -191.438 233.625 C-186.904 231.614 -182.906 229.082 -178.812 226.312 C-178.163 225.874 -177.514 225.435 -176.845 224.982 C-174.895 223.658 -172.947 222.33 -171 221 C-154.318 209.619 -136.447 199.689 -117 194 C-116.209 193.761 -115.418 193.522 -114.603 193.276 C-89.446 185.796 -62.993 182.231 -37 179 C-36.074 183.027 -36.15 185.937 -37 190 C-35.68 190.33 -34.36 190.66 -33 191 C-32.67 192.98 -32.34 194.96 -32 197 C-32.734 191.761 -33.541 186.537 -34.375 181.312 C-34.644 179.608 -34.912 177.904 -35.18 176.199 C-35.697 172.909 -36.224 169.62 -36.758 166.332 C-39.87 146.818 -41.679 127.133 -43.188 107.438 C-43.313 105.826 -43.313 105.826 -43.442 104.181 C-43.954 97.109 -44.11 90.09 -44 83 C-43.984 81.928 -43.984 81.928 -43.968 80.835 C-43.546 63.134 -42.256 39.472 -31 25 C-31.33 24.67 -31.66 24.34 -32 24 C-36.355 31.113 -39.018 37.787 -40.848 45.934 C-42.24 49.638 -43.88 50.654 -47 53 C-58.341 69.228 -64.944 89.191 -72.316 107.387 C-78.999 123.867 -86.065 139.85 -94.668 155.436 C-95.863 157.735 -96.829 160.002 -97.746 162.422 C-99.434 166.432 -101.172 169.737 -105 172 C-114.366 174.904 -124.271 175.367 -134 176 C-136.306 176.187 -138.612 176.378 -140.918 176.574 C-141.899 176.656 -142.88 176.738 -143.891 176.823 C-144.935 176.911 -144.935 176.911 -146 177 C-145.004 176.122 -145.004 176.122 -143.988 175.227 C-139.638 170.872 -136.528 165.509 -133.188 160.375 C-128.606 153.369 -123.939 146.482 -118.98 139.738 C-115.582 135.04 -112.389 130.208 -109.188 125.375 C-108.146 123.808 -108.146 123.808 -107.083 122.209 C-102.611 115.467 -98.19 108.694 -93.808 101.894 C-90.838 97.285 -87.843 92.694 -84.812 88.125 C-84.401 87.502 -83.99 86.879 -83.566 86.238 C-81.106 82.548 -78.491 79.052 -75.75 75.562 C-72.267 70.842 -70.271 65.956 -68.354 60.474 C-60.87 39.2 -48.936 15.597 -28.438 4.312 C-19.367 0.04 -9.876 -1.873 0 0 Z M-45 37 C-53.971 46.019 -60.878 56.516 -68 67 C-68.626 67.918 -68.626 67.918 -69.264 68.855 C-73.901 75.684 -78.371 82.623 -82.809 89.582 C-84.239 91.823 -85.692 94.044 -87.16 96.262 C-87.809 97.248 -88.457 98.234 -89.125 99.25 C-89.995 100.557 -89.995 100.557 -90.883 101.891 C-91.251 102.587 -91.62 103.283 -92 104 C-91.67 104.66 -91.34 105.32 -91 106 C-85.568 98.588 -80.239 91.112 -75 83.562 C-73.945 82.044 -73.945 82.044 -72.868 80.496 C-68.846 74.698 -64.888 68.868 -61.004 62.977 C-55.54 54.86 -49.936 46.78 -44 39 C-44.495 38.01 -44.495 38.01 -45 37 Z M57 72 C57.33 73.32 57.66 74.64 58 76 C59.65 76.33 61.3 76.66 63 77 C62.67 75.68 62.34 74.36 62 73 C60.35 72.67 58.7 72.34 57 72 Z M60 81 C59.67 81.99 59.34 82.98 59 84 C59.99 85.485 59.99 85.485 61 87 C62.32 86.67 63.64 86.34 65 86 C64.209 84 64.209 84 63 82 C62.01 81.67 61.02 81.34 60 81 Z M59 91 C59.33 92.65 59.66 94.3 60 96 C61.98 96.495 61.98 96.495 64 97 C63.505 94.525 63.505 94.525 63 92 C61.68 91.67 60.36 91.34 59 91 Z M-93 106 C-93 109 -93 109 -93 109 Z M-81 107 C-80.67 108.32 -80.34 109.64 -80 111 C-78.02 111.495 -78.02 111.495 -76 112 C-76.66 110.35 -77.32 108.7 -78 107 C-78.99 107 -79.98 107 -81 107 Z M75 112 C75.33 112.99 75.66 113.98 76 115 C77.65 114.67 79.3 114.34 81 114 C80.34 112.68 79.68 111.36 79 110 C77.538 109.908 77.538 109.908 75 112 Z M57 113 C57.33 114.32 57.66 115.64 58 117 C59.98 117.495 59.98 117.495 62 118 C62.591 116.054 62.591 116.054 63 114 C61.934 112.704 61.934 112.704 59.438 112.938 C58.633 112.958 57.829 112.979 57 113 Z M-85 115 C-84.344 118.61 -84.344 118.61 -83 122 C-82.01 121.67 -81.02 121.34 -80 121 C-80.195 119.05 -80.195 119.05 -81 117 C-82.984 115.716 -82.984 115.716 -85 115 Z M77 117 C76.505 118.98 76.505 118.98 76 121 C79 122.333 79 122.333 82 121 C81.67 119.68 81.34 118.36 81 117 C79.68 117 78.36 117 77 117 Z M67 121 C66.67 121.66 66.34 122.32 66 123 C66.99 124.485 66.99 124.485 68 126 C68.99 126 69.98 126 71 126 C70.505 123.525 70.505 123.525 70 121 C69.01 121 68.02 121 67 121 Z M-89 124 C-88.67 125.98 -88.34 127.96 -88 130 C-87.01 130.33 -86.02 130.66 -85 131 C-84.308 129.153 -84.308 129.153 -84 127 C-84.66 126.01 -85.32 125.02 -86 124 C-86.99 124 -87.98 124 -89 124 Z M77 125 C76.67 125.99 76.34 126.98 76 128 C78.475 128.99 78.475 128.99 81 130 C81.33 128.68 81.66 127.36 82 126 C80.35 125.67 78.7 125.34 77 125 Z M64 127 C63.505 128.98 63.505 128.98 63 131 C64.485 131.99 64.485 131.99 66 133 C66.66 132.67 67.32 132.34 68 132 C67.733 130.015 67.733 130.015 67 128 C66.01 127.67 65.02 127.34 64 127 Z M-93 133 C-94.002 136.583 -94.002 136.583 -93 140 C-92.01 140 -91.02 140 -90 140 C-89.75 137.584 -89.75 137.584 -90 135 C-90.99 134.34 -91.98 133.68 -93 133 Z M78 133 C78 134.32 78 135.64 78 137 C79.98 137.495 79.98 137.495 82 138 C82 136.68 82 135.36 82 134 C80.68 133.67 79.36 133.34 78 133 Z M160.375 140.5 C159.921 140.995 159.467 141.49 159 142 C159.66 142.66 160.32 143.32 161 144 C163.108 143.681 163.108 143.681 165 143 C164.67 141.68 164.34 140.36 164 139 C161.876 138.774 161.876 138.774 160.375 140.5 Z M79 140 C78.01 140.495 78.01 140.495 77 141 C77.33 142.32 77.66 143.64 78 145 C79.65 144.67 81.3 144.34 83 144 C82.67 143.01 82.34 142.02 82 141 C81.01 140.67 80.02 140.34 79 140 Z M-99 142 C-100.356 143.125 -100.356 143.125 -100.062 146.062 C-100.042 147.032 -100.021 148.001 -100 149 C-98.68 148.67 -97.36 148.34 -96 148 C-96 146.35 -96 144.7 -96 143 C-96.99 142.67 -97.98 142.34 -99 142 Z M166 146 C166.33 147.32 166.66 148.64 167 150 C168.65 150 170.3 150 172 150 C172.33 148.68 172.66 147.36 173 146 C169.99 145.066 169.133 144.956 166 146 Z M17 148 C17 149.32 17 150.64 17 152 C18.32 152 19.64 152 21 152 C21 150.68 21 149.36 21 148 C19.68 148 18.36 148 17 148 Z M76 149 C76.33 150.32 76.66 151.64 77 153 C78.65 153 80.3 153 82 153 C82 151.68 82 150.36 82 149 C78.951 147.989 78.951 147.989 76 149 Z M46 151 C46 152.98 46 154.96 46 157 C45.01 157.33 44.02 157.66 43 158 C43.113 159.959 43.113 159.959 44 162 C46.49 163.297 46.49 163.297 49 164 C49.66 163.34 50.32 162.68 51 162 C50.68 159.397 50.68 159.397 50 157 C50.99 157 51.98 157 53 157 C52.812 154.555 52.812 154.555 52 152 C49.155 149.932 49.155 149.932 46 151 Z M172 153 C172.33 154.32 172.66 155.64 173 157 C174.65 157 176.3 157 178 157 C178 155.68 178 154.36 178 153 C174.951 151.989 174.951 151.989 172 153 Z M-109 155 C-110.356 156.125 -110.356 156.125 -110.062 159.062 C-110.042 160.032 -110.021 161.001 -110 162 C-109.01 161.67 -108.02 161.34 -107 161 C-106.67 159.35 -106.34 157.7 -106 156 C-106.99 155.67 -107.98 155.34 -109 155 Z M76 158 C76.33 159.32 76.66 160.64 77 162 C78.98 162.495 78.98 162.495 81 163 C81.591 161.054 81.591 161.054 82 159 C80.934 157.704 80.934 157.704 78.438 157.938 C77.633 157.958 76.829 157.979 76 158 Z M179.312 160.5 C178.879 160.995 178.446 161.49 178 162 C178.99 162.99 179.98 163.98 181 165 C182.32 164.34 183.64 163.68 185 163 C184.67 161.68 184.34 160.36 184 159 C180.997 158.668 180.997 158.668 179.312 160.5 Z M-23 162 C-18.664 167.233 -13.296 169.618 -7 172 C-6.34 172 -5.68 172 -5 172 C-5 171.01 -5 170.02 -5 169 C-10.932 165.815 -16.39 163.347 -23 162 Z M76 166 C76 167.32 76 168.64 76 170 C77.65 170.33 79.3 170.66 81 171 C81 169.68 81 168.36 81 167 C79.35 166.67 77.7 166.34 76 166 Z M186 168 C186.33 169.32 186.66 170.64 187 172 C188.892 172.681 188.892 172.681 191 173 C191.66 172.34 192.32 171.68 193 171 C193 170.01 193 169.02 193 168 C189.417 166.998 189.417 166.998 186 168 Z M-26 169 C-22.49 171.901 -18.592 173.819 -14.5 175.75 C-13.836 176.079 -13.172 176.407 -12.488 176.746 C-8.674 178.575 -8.674 178.575 -4.531 178.703 C-4.026 178.471 -3.521 178.239 -3 178 C-6.09 174.599 -9.701 173.349 -13.938 171.812 C-14.654 171.54 -15.37 171.267 -16.107 170.986 C-19.633 169.683 -22.2 169 -26 169 Z M-22 179 C-19.598 180.601 -17.848 181.536 -15.207 182.508 C-14.495 182.772 -13.783 183.036 -13.049 183.309 C-12.311 183.578 -11.573 183.847 -10.812 184.125 C-10.063 184.402 -9.313 184.679 -8.541 184.965 C-6.695 185.647 -4.848 186.324 -3 187 C-2.67 186.01 -2.34 185.02 -2 184 C-3.415 183.35 -4.832 182.705 -6.25 182.062 C-7.039 181.703 -7.828 181.343 -8.641 180.973 C-13.221 179.084 -17.034 178.904 -22 179 Z M194 180 C194.33 180.99 194.66 181.98 195 183 C195.66 182.67 196.32 182.34 197 182 C197 181.34 197 180.68 197 180 C196.01 180 195.02 180 194 180 Z M-46.625 185.25 C-47.079 185.827 -47.533 186.405 -48 187 C-47.772 189.163 -47.772 189.163 -47 191 C-45.68 190.34 -44.36 189.68 -43 189 C-43.495 186.525 -43.495 186.525 -44 184 C-45.21 183.898 -45.21 183.898 -46.625 185.25 Z M-55 185 C-56.666 186.165 -56.666 186.165 -58 188 C-57.77 190.655 -57.77 190.655 -57 193 C-56.01 192.67 -55.02 192.34 -54 192 C-52.775 188.992 -52.775 188.992 -52 186 C-52.99 185.67 -53.98 185.34 -55 185 Z M-67 187 C-69.37 189.954 -69.37 189.954 -69 194 C-66.244 193.502 -66.244 193.502 -64 192 C-63.959 190.334 -63.957 188.666 -64 187 C-64.99 187 -65.98 187 -67 187 Z M-79 190 C-80.296 191.066 -80.296 191.066 -80.062 193.562 C-80.042 194.367 -80.021 195.171 -80 196 C-78.68 195.67 -77.36 195.34 -76 195 C-75.67 193.35 -75.34 191.7 -75 190 C-76.32 190 -77.64 190 -79 190 Z M-89 191 C-91.287 192.839 -91.287 192.839 -91.125 195.625 C-91.084 196.409 -91.043 197.192 -91 198 C-88.968 197.36 -88.968 197.36 -87 196 C-86.188 193.445 -86.188 193.445 -86 191 C-86.99 191 -87.98 191 -89 191 Z M-100 193 C-102.588 196.056 -102.588 196.056 -103 200 C-101.35 199.67 -99.7 199.34 -98 199 C-97.67 197.35 -97.34 195.7 -97 194 C-97.99 193.67 -98.98 193.34 -100 193 Z M-114 198 C-114 199.98 -114 201.96 -114 204 C-111.244 203.502 -111.244 203.502 -109 202 C-108.959 200.334 -108.957 198.666 -109 197 C-111.925 196.776 -111.925 196.776 -114 198 Z M-12.188 199.5 C-18.264 201.63 -24.635 202.23 -31 203 C-30.225 205.992 -30.225 205.992 -29 209 C-21.51 211.497 -13.07 209.784 -5.438 208.562 C-4.087 208.36 -4.087 208.36 -2.709 208.154 C1.482 207.832 1.482 207.832 5 206 C4.911 204.475 4.755 202.953 4.562 201.438 C4.41 200.198 4.41 200.198 4.254 198.934 C4.17 198.296 4.086 197.657 4 197 C-1.429 195.19 -6.962 197.585 -12.188 199.5 Z M-124 200 C-124.99 200.66 -125.98 201.32 -127 202 C-127.25 205.084 -127.25 205.084 -127 208 C-124.244 207.502 -124.244 207.502 -122 206 C-121.959 204.334 -121.957 202.666 -122 201 C-122.66 200.67 -123.32 200.34 -124 200 Z M-135 204 C-136.625 205.121 -136.625 205.121 -138 207 C-138.25 210.125 -138.25 210.125 -138 213 C-135.409 211.862 -135.409 211.862 -133 210 C-132.582 207.373 -132.582 207.373 -133 205 C-133.66 204.67 -134.32 204.34 -135 204 Z M-147 210 C-149.35 211.898 -149.35 211.898 -149.125 215.125 C-149.084 216.074 -149.042 217.023 -149 218 C-146.244 217.502 -146.244 217.502 -144 216 C-143.959 214 -143.957 212 -144 210 C-144.99 210 -145.98 210 -147 210 Z M-158.625 217.188 C-160.421 219.556 -160.235 221.099 -160 224 C-158.68 223.67 -157.36 223.34 -156 223 C-155.67 220.69 -155.34 218.38 -155 216 C-157.066 215.803 -157.066 215.803 -158.625 217.188 Z M-168 222 C-170.307 224.715 -170.307 224.715 -169.625 227.188 C-169.419 227.786 -169.213 228.384 -169 229 C-167.68 228.67 -166.36 228.34 -165 228 C-165 226.02 -165 224.04 -165 222 C-165.99 222 -166.98 222 -168 222 Z M-176 227 C-178.532 230.31 -178.532 230.31 -178.688 234.312 C-178.461 234.869 -178.234 235.426 -178 236 C-177.01 235.67 -176.02 235.34 -175 235 C-173.646 232.291 -173.935 229.991 -174 227 C-174.66 227 -175.32 227 -176 227 Z M-185 232 C-186.805 233.655 -186.805 233.655 -188 236 C-187.778 238.698 -187.778 238.698 -187 241 C-184.354 238.771 -184.354 238.771 -182 236 C-182.045 233.725 -182.045 233.725 -183 232 C-183.66 232 -184.32 232 -185 232 Z M-205.125 244.5 C-206.074 245.325 -207.023 246.15 -208 247 C-205.009 248.378 -205.009 248.378 -202.312 246.75 C-201.549 246.173 -200.786 245.595 -200 245 C-200 244.01 -200 243.02 -200 242 C-202.589 242 -203.201 242.827 -205.125 244.5 Z " fill="#000000" transform="translate(404,172)"/>
<path d="M0 0 C1.938 0.75 1.938 0.75 4 2 C4.75 4.125 4.75 4.125 5 6 C1.25 9 1.25 9 -1 9 C-1.66 10.32 -2.32 11.64 -3 13 C-3.99 13 -4.98 13 -6 13 C-6.33 13.99 -6.66 14.98 -7 16 C-7.959 16.217 -7.959 16.217 -8.938 16.438 C-9.958 16.716 -9.958 16.716 -11 17 C-11.464 17.959 -11.464 17.959 -11.938 18.938 C-13.389 21.755 -15.129 21.852 -18 23 C-18.309 23.619 -18.619 24.238 -18.938 24.875 C-20.501 28.001 -23.105 29.152 -26 31 C-26.33 31.66 -26.66 32.32 -27 33 C-28.485 33.495 -28.485 33.495 -30 34 C-30.66 34.99 -31.32 35.98 -32 37 C-32.99 37 -33.98 37 -35 37 C-35.33 37.99 -35.66 38.98 -36 40 C-36.99 40 -37.98 40 -39 40 C-39 40.99 -39 41.98 -39 43 C-43.343 47 -43.343 47 -46 47 C-46 47.66 -46 48.32 -46 49 C-46.99 49.33 -47.98 49.66 -49 50 C-49.804 50.99 -50.609 51.98 -51.438 53 C-54.056 56.066 -54.405 56.256 -58 57 C-58.278 57.597 -58.557 58.194 -58.844 58.809 C-60.263 61.499 -61.863 62.655 -64.312 64.438 C-67.839 67.079 -70.922 69.839 -74 73 C-76 74.667 -78 76.333 -80 78 C-82.708 80.576 -85.135 83.165 -87.5 86.062 C-89.836 88.807 -92.156 90.812 -95 93 C-96.351 94.315 -97.691 95.643 -99 97 C-99 94 -99 94 -96.625 91.5 C-95.759 90.675 -94.893 89.85 -94 89 C-93.34 88.01 -92.68 87.02 -92 86 C-91.34 86 -90.68 86 -90 86 C-89.728 85.411 -89.456 84.822 -89.176 84.215 C-86.263 78.729 -81.405 74.297 -77 70 C-75.832 68.835 -74.665 67.668 -73.5 66.5 C-72.902 65.903 -72.304 65.306 -71.688 64.691 C-70.282 63.283 -68.889 61.862 -67.5 60.438 C-65.546 58.532 -63.579 56.761 -61.5 55 C-57.624 51.713 -54.041 48.356 -50.938 44.312 C-48.953 41.944 -47.709 41.313 -45 40 C-43.288 38.38 -41.628 36.704 -40 35 C-35.202 30.073 -30.225 25.47 -25 21 C-23.887 20.046 -22.773 19.091 -21.66 18.137 C-19.827 16.565 -17.994 14.995 -16.159 13.426 C-12.257 10.088 -8.384 6.721 -4.551 3.305 C-3 2 -3 2 0 0 Z " fill="#000000" transform="translate(273,192)"/>
<path d="M0 0 C0.866 0.268 1.732 0.536 2.625 0.812 C1.451 5.801 -1.558 7.799 -5.5 10.676 C-7.375 11.812 -7.375 11.812 -9.375 11.812 C-9.746 12.772 -9.746 12.772 -10.125 13.75 C-11.375 15.812 -11.375 15.812 -13.5 16.562 C-14.428 16.686 -14.428 16.686 -15.375 16.812 C-15.375 17.472 -15.375 18.132 -15.375 18.812 C-16.076 18.998 -16.778 19.184 -17.5 19.375 C-20.99 21.12 -22.625 23.279 -24.945 26.352 C-25.417 26.834 -25.889 27.316 -26.375 27.812 C-27.365 27.812 -28.355 27.812 -29.375 27.812 C-29.468 28.648 -29.468 28.648 -29.562 29.5 C-30.716 32.782 -32.881 34.398 -35.375 36.812 C-36.767 38.221 -38.159 39.629 -39.549 41.038 C-41.661 43.177 -43.779 45.31 -45.896 47.444 C-47.014 48.572 -48.13 49.702 -49.245 50.833 C-50.86 52.473 -52.482 54.106 -54.105 55.738 C-54.604 56.248 -55.103 56.757 -55.617 57.282 C-56.833 58.497 -58.1 59.66 -59.375 60.812 C-60.035 60.812 -60.695 60.812 -61.375 60.812 C-61.375 61.472 -61.375 62.132 -61.375 62.812 C-62.035 62.812 -62.695 62.812 -63.375 62.812 C-63.705 63.803 -64.035 64.793 -64.375 65.812 C-65.365 65.812 -66.355 65.812 -67.375 65.812 C-67.746 66.679 -67.746 66.679 -68.125 67.562 C-69.558 70.142 -71.159 71.874 -73.375 73.812 C-74.035 73.812 -74.695 73.812 -75.375 73.812 C-75.375 74.472 -75.375 75.132 -75.375 75.812 C-76.035 75.812 -76.695 75.812 -77.375 75.812 C-77.87 77.298 -77.87 77.298 -78.375 78.812 C-79.365 78.812 -80.355 78.812 -81.375 78.812 C-81.643 79.411 -81.911 80.009 -82.188 80.625 C-83.374 82.811 -84.471 84.226 -86.375 85.812 C-87.035 85.812 -87.695 85.812 -88.375 85.812 C-88.65 86.403 -88.924 86.993 -89.207 87.602 C-92.186 93.241 -96.938 97.507 -101.859 101.453 C-103.634 102.931 -103.634 102.931 -105.375 105.812 C-106.035 105.812 -106.695 105.812 -107.375 105.812 C-107.643 106.452 -107.911 107.091 -108.188 107.75 C-109.375 109.812 -109.375 109.812 -112.375 110.812 C-113.425 112.662 -113.425 112.662 -114.375 114.812 C-115.875 117.062 -115.875 117.062 -117.375 118.812 C-118.035 118.812 -118.695 118.812 -119.375 118.812 C-119.684 119.431 -119.994 120.05 -120.312 120.688 C-121 122.062 -121.688 123.438 -122.375 124.812 C-123.035 124.812 -123.695 124.812 -124.375 124.812 C-124.76 125.65 -124.76 125.65 -125.152 126.504 C-126.538 129.121 -128.169 131.374 -129.938 133.75 C-134.551 140.014 -138.971 146.401 -143.375 152.812 C-143.705 151.822 -144.035 150.832 -144.375 149.812 C-143.256 147.657 -142.104 145.752 -140.75 143.75 C-140.352 143.147 -139.954 142.543 -139.544 141.921 C-134.068 133.714 -128.232 125.75 -122.375 117.812 C-121.571 116.718 -121.571 116.718 -120.751 115.601 C-120.229 114.895 -119.706 114.188 -119.168 113.461 C-118.703 112.831 -118.238 112.201 -117.759 111.552 C-116.396 109.839 -114.935 108.345 -113.375 106.812 C-111.946 105.073 -110.53 103.322 -109.125 101.562 C-105.944 97.645 -102.69 93.997 -99.062 90.496 C-97.196 88.633 -95.474 86.683 -93.75 84.688 C-91.074 81.591 -88.306 78.674 -85.375 75.812 C-84.371 74.793 -84.371 74.793 -83.348 73.754 C-79.851 70.209 -76.354 66.731 -72.562 63.5 C-65.598 57.511 -58.948 50.94 -53 43.938 C-49.661 40.025 -46.067 36.391 -42.438 32.75 C-41.864 32.172 -41.291 31.594 -40.7 30.999 C-33.662 23.985 -26.127 17.732 -18.25 11.688 C-16.705 10.498 -15.161 9.308 -13.617 8.117 C-12.891 7.559 -12.164 7.001 -11.416 6.426 C-9.563 4.961 -7.798 3.436 -6.031 1.871 C-3.375 -0.188 -3.375 -0.188 0 0 Z " fill="#000000" transform="translate(297.375,206.1875)"/>
<path d="M0 0 C0.99 0.33 1.98 0.66 3 1 C-1.2 10.1 -1.2 10.1 -5 12 C-4.67 13.217 -4.34 14.434 -4 15.688 C-3.197 18.872 -2.794 21.697 -3 25 C-5.889 21.61 -7.258 18.112 -8.75 13.938 C-9.199 12.709 -9.647 11.481 -10.109 10.215 C-11 7 -11 7 -10 4 C-9.01 5.98 -8.02 7.96 -7 10 C-4.351 6.803 -2.06 3.605 0 0 Z " fill="#000000" transform="translate(657,214)"/>
<path d="M0 0 C-0.021 1.072 -0.041 2.145 -0.062 3.25 C0.569 7.041 0.569 7.041 3.07 8.355 C5.356 9.348 7.631 10.229 10 11 C10 12.98 10 14.96 10 17 C5.089 18.607 1.197 19.209 -4.027 18.977 C-5.313 18.925 -6.599 18.873 -7.924 18.82 C-9.262 18.755 -10.6 18.69 -11.938 18.625 C-13.303 18.567 -14.668 18.509 -16.033 18.453 C-19.356 18.312 -22.678 18.161 -26 18 C-22.804 21.665 -19.288 23.577 -14.887 25.461 C-14.187 25.763 -13.488 26.065 -12.767 26.376 C-4.685 29.73 3.678 31.689 12.188 33.625 C34.94 38.87 51.824 45.416 65 66 C79.649 90.805 88.662 119.279 91 148 C88.594 147.332 88.594 147.332 86 146 C85.031 143.699 85.031 143.699 84.5 140.688 C84.268 139.517 84.036 138.347 83.797 137.141 C83.672 136.484 83.548 135.827 83.42 135.15 C77.748 106.106 67.973 70.509 43.77 51.223 C33.767 44.638 21.415 42.307 9.938 39.5 C-7.904 35.134 -24.715 30.594 -36 15 C-36 14.01 -36 13.02 -36 12 C-35.319 11.732 -34.639 11.464 -33.938 11.188 C-26.889 8.338 -20.111 5.141 -13.346 1.68 C-5.291 -2.431 -5.291 -2.431 0 0 Z M-15.312 5.75 C-15.964 6.003 -16.616 6.255 -17.287 6.516 C-21.592 8.239 -25.224 10.307 -29 13 C-25.275 15.484 -23.572 15.163 -19.145 14.977 C-18.483 14.952 -17.821 14.927 -17.14 14.901 C-15.03 14.819 -12.921 14.722 -10.812 14.625 C-9.381 14.567 -7.949 14.509 -6.518 14.453 C-3.011 14.313 0.494 14.16 4 14 C4 13.34 4 12.68 4 12 C-1.38 10.809 -6.453 9.708 -12 10 C-10.546 9.381 -10.546 9.381 -9.062 8.75 C-5.877 7.351 -5.877 7.351 -5.125 4.812 C-5.084 4.214 -5.043 3.616 -5 3 C-8.829 3 -11.821 4.338 -15.312 5.75 Z " fill="#000000" transform="translate(590,254)"/>
<path d="M0 0 C6.763 3.339 13.528 6.697 18 13 C18 13.99 18 14.98 18 16 C18.66 16 19.32 16 20 16 C20.193 16.566 20.387 17.132 20.586 17.715 C20.977 18.815 20.977 18.815 21.375 19.938 C21.758 21.034 21.758 21.034 22.148 22.152 C22.853 24.187 22.853 24.187 25 25 C25 26.32 25 27.64 25 29 C25.66 29 26.32 29 27 29 C27.333 30.333 27.667 31.667 28 33 C28.165 33.612 28.33 34.225 28.5 34.855 C31.044 45.768 30.627 57.186 28 68 C27.34 68 26.68 68 26 68 C26 69.65 26 71.3 26 73 C24.35 73 22.7 73 21 73 C21 73.66 21 74.32 21 75 C22.32 75 23.64 75 25 75 C24.67 76.32 24.34 77.64 24 79 C22.35 79 20.7 79 19 79 C19 79.66 19 80.32 19 81 C20.32 81 21.64 81 23 81 C20.829 90.746 16.937 99.559 12.875 108.625 C12.194 110.161 11.513 111.698 10.832 113.234 C7.512 120.677 4.114 128.012 0.125 135.125 C-4.96 144.227 -8.291 153.974 -11.823 163.757 C-17.44 179.234 -23.152 194.503 -31 209 C-31.69 210.311 -31.69 210.311 -32.395 211.648 C-34.905 216.32 -37.739 220.701 -40.766 225.055 C-42.161 227.081 -42.161 227.081 -43 230 C-43.66 230 -44.32 230 -45 230 C-45.309 230.99 -45.309 230.99 -45.625 232 C-47.512 236.116 -50.206 239.459 -53 243 C-52.34 243 -51.68 243 -51 243 C-46.393 257.086 -43.647 271.374 -41 285.938 C-40.584 288.194 -40.168 290.449 -39.75 292.705 C-39.126 296.075 -38.504 299.445 -37.886 302.816 C-36.813 308.665 -35.714 314.508 -34.574 320.344 C-34.342 321.534 -34.11 322.724 -33.871 323.95 C-33.425 326.227 -32.976 328.504 -32.523 330.781 C-32.324 331.801 -32.124 332.822 -31.918 333.873 C-31.74 334.769 -31.563 335.665 -31.38 336.589 C-31 339 -31 339 -31 343 C0.534 334.064 27.384 316.536 54.375 298.422 C70.377 287.701 86.753 277.603 103.375 267.875 C104.178 267.401 104.981 266.928 105.808 266.439 C106.56 266.003 107.311 265.567 108.086 265.117 C108.746 264.732 109.407 264.346 110.087 263.949 C112.045 262.978 113.866 262.447 116 262 C113.22 264.958 110.442 267.154 106.992 269.285 C106.015 269.892 105.038 270.499 104.032 271.125 C102.99 271.764 101.948 272.404 100.875 273.062 C99.793 273.733 98.712 274.403 97.597 275.094 C92.151 278.465 86.685 281.802 81.205 285.116 C73.109 290.017 65.16 295.118 57.25 300.312 C27.913 319.571 -0.622 337.232 -33.484 349.781 C-56.787 358.685 -79.02 369.439 -100.625 381.938 C-111.866 388.404 -124.756 394.679 -138 394 C-138.062 394.866 -138.124 395.733 -138.188 396.625 C-139.242 401.006 -140.908 402.757 -144 406 C-144.66 406.33 -145.32 406.66 -146 407 C-122.216 414.005 -92.998 399.291 -72.41 389.121 C-66.079 386.004 -59.657 383.13 -53.188 380.312 C-52.147 379.857 -51.106 379.402 -50.033 378.932 C-46.127 377.226 -42.219 375.523 -38.301 373.842 C-8.729 361.141 17.858 343.082 44.276 324.872 C48.007 322.308 51.753 319.767 55.498 317.224 C72.668 305.56 89.534 293.494 106.335 281.306 C108.66 279.62 110.986 277.934 113.312 276.25 C114.063 275.706 114.813 275.163 115.586 274.603 C119.994 271.419 124.443 268.31 128.938 265.25 C139.796 257.762 149.41 249.01 159 240 C157.996 240.508 156.992 241.016 155.957 241.539 C149.21 244.941 142.448 248.315 135.625 251.562 C134.586 252.059 133.547 252.555 132.477 253.066 C131.659 253.374 130.842 253.683 130 254 C129.34 253.67 128.68 253.34 128 253 C129.121 252.161 130.247 251.329 131.375 250.5 C132.001 250.036 132.628 249.572 133.273 249.094 C135 248 135 248 137 248 C134.008 219.428 129.341 191.457 123.312 163.375 C123.168 162.695 123.024 162.015 122.875 161.314 C121.436 154.573 120.023 148.212 117 142 C116.309 140.008 115.641 138.008 115 136 C114.629 134.886 114.257 133.773 113.875 132.625 C113.586 131.759 113.298 130.893 113 130 C111.877 129.9 110.753 129.8 109.596 129.698 C104.632 129.072 100.158 127.533 95.469 125.84 C94.592 125.531 93.716 125.221 92.813 124.902 C90.039 123.922 87.27 122.93 84.5 121.938 C82.61 121.267 80.719 120.597 78.828 119.928 C74.216 118.294 69.607 116.65 65 115 C66.485 112.03 66.485 112.03 68 109 C67.34 109 66.68 109 66 109 C65.34 110.32 64.68 111.64 64 113 C60.04 112.505 60.04 112.505 56 112 C56 108.887 56.174 106.892 57 104 C56.01 104 55.02 104 54 104 C53.34 105.65 52.68 107.3 52 109 C50.02 108.67 48.04 108.34 46 108 C47.875 103.25 47.875 103.25 49 101 C47.05 101.195 47.05 101.195 45 102 C43.716 103.984 43.716 103.984 43 106 C41.35 105.67 39.7 105.34 38 105 C38.33 103.02 38.66 101.04 39 99 C38.464 99.516 37.928 100.031 37.375 100.562 C35 102 35 102 32.188 101.875 C28.58 100.885 25.397 99.563 22 98 C22.66 95.03 23.32 92.06 24 89 C31.412 89.612 38.216 91.65 45.312 93.812 C45.957 94.006 46.602 94.2 47.266 94.399 C55.119 96.759 62.902 99.271 70.629 102.02 C71.347 102.275 72.065 102.53 72.804 102.793 C73.525 103.049 74.245 103.305 74.987 103.569 C91.596 109.468 108.013 113.813 125.293 117.249 C139.468 120.122 153.547 123.559 167.562 127.125 C168.484 127.355 169.406 127.584 170.356 127.821 C178.89 130.035 186.603 132.763 193 139 C194.037 142.111 194.2 144.495 194.316 147.762 C194.358 148.88 194.4 149.998 194.443 151.15 C194.502 152.901 194.502 152.901 194.562 154.688 C194.606 155.866 194.649 157.045 194.693 158.26 C194.8 161.173 194.902 164.086 195 167 C194.34 167.33 193.68 167.66 193 168 C192.01 167.67 191.02 167.34 190 167 C189.853 168.284 189.706 169.568 189.555 170.891 C187.336 188.876 183.713 211.46 172 226 C171.34 226 170.68 226 170 226 C171.326 221.788 172.95 217.875 174.812 213.875 C181.627 198.425 183.946 181.631 186 165 C185.112 164.765 184.224 164.531 183.309 164.289 C179.595 162.842 177.836 161.206 175.062 158.375 C170.791 154.348 166.632 151.35 161.438 148.625 C160.849 148.316 160.261 148.007 159.655 147.689 C154.574 145.125 149.301 143.058 144 141 C145.635 146.868 147.271 152.735 148.907 158.603 C149.462 160.592 150.017 162.582 150.571 164.572 C151.11 166.505 151.649 168.437 152.188 170.37 C152.718 172.273 153.248 174.177 153.777 176.08 C154.896 180.102 156.023 184.118 157.239 188.112 C159.42 195.339 160.749 202.156 161.25 209.688 C161.327 210.629 161.405 211.571 161.484 212.541 C161.984 219.034 162.085 225.49 162 232 C162.575 231.607 163.15 231.214 163.743 230.809 C169.442 226.914 169.442 226.914 172.266 227.348 C172.838 227.563 173.41 227.778 174 228 C173.299 228.66 172.597 229.32 171.875 230 C167.669 234.194 164.286 239.07 161 244 C160.34 244 159.68 244 159 244 C158.79 244.544 158.58 245.088 158.363 245.648 C156.496 248.87 153.922 251.153 151.188 253.625 C150.61 254.151 150.033 254.678 149.438 255.22 C140.155 263.57 130.089 270.725 119.792 277.767 C116.447 280.068 113.13 282.409 109.812 284.75 C108.747 285.501 108.747 285.501 107.66 286.268 C102.306 290.055 96.994 293.897 91.688 297.75 C85.886 301.958 80.035 306.05 74.043 309.984 C70.392 312.402 66.79 314.886 63.188 317.375 C56.117 322.253 48.987 327.037 41.828 331.784 C40.048 332.968 38.273 334.16 36.5 335.355 C6.367 355.64 -24.325 373.658 -57.682 388.134 C-62.724 390.35 -67.545 392.856 -72.375 395.5 C-96.05 408.295 -125.203 418.859 -152 411 C-152.888 410.598 -153.776 410.196 -154.691 409.781 C-155.834 409.395 -155.834 409.395 -157 409 C-158.732 409.948 -160.461 410.907 -162.129 411.965 C-168.589 415.539 -176.259 413.823 -183 412 C-187.803 410.42 -192.507 408.582 -197.204 406.711 C-198.69 406.123 -200.186 405.558 -201.684 405 C-209.021 402.228 -215.963 398.644 -222.929 395.06 C-224.938 394.032 -226.956 393.025 -228.977 392.02 C-236.315 388.308 -242.534 384.346 -248.73 378.883 C-251.6 376.434 -251.6 376.434 -255 375 C-258.15 375.756 -258.15 375.756 -261.5 377.188 C-267.024 379.329 -272.505 381.002 -278.281 382.324 C-281.022 382.965 -281.022 382.965 -283.715 383.922 C-295.718 387.861 -308.352 390.8 -321 391 C-321.886 391.024 -322.772 391.049 -323.686 391.074 C-346.578 391.67 -346.578 391.67 -357 388 C-358.195 387.745 -358.195 387.745 -359.414 387.484 C-361.625 386.938 -361.625 386.938 -365 385 C-365.591 383.201 -365.591 383.201 -365.898 380.906 C-366.696 376.214 -367.9 371.73 -369.312 367.191 C-369.528 366.494 -369.744 365.796 -369.966 365.078 C-370.866 362.176 -371.775 359.278 -372.687 356.38 C-378.362 338.28 -381.221 324.884 -373 307 C-371.791 304.731 -370.648 302.988 -369 301 C-368.34 301 -367.68 301 -367 301 C-366.66 300.196 -366.66 300.196 -366.312 299.375 C-363.137 293.629 -358.641 289.612 -353.5 285.688 C-352.888 285.215 -352.277 284.742 -351.646 284.254 C-343.171 277.758 -334.329 271.813 -325.375 266 C-324.783 265.614 -324.19 265.228 -323.58 264.83 C-321.062 263.213 -318.854 261.951 -316 261 C-315.301 259.684 -314.633 258.35 -314 257 C-313.34 256.67 -312.68 256.34 -312 256 C-311.236 254.051 -311.236 254.051 -310.625 251.75 C-309.359 247.699 -307.667 245.313 -305 242 C-304.389 240.364 -303.809 238.717 -303.25 237.062 C-301.788 233.088 -300.661 231.47 -297 229.375 C-291.88 226.089 -291.283 221.335 -290.016 215.736 C-289.332 212.405 -289 209.412 -289 206 C-288.34 206 -287.68 206 -287 206 C-287.062 204.969 -287.124 203.938 -287.188 202.875 C-286.986 198.706 -286.202 196.506 -284 193 C-279.868 190.245 -276.751 190.075 -272 191 C-259.528 195.976 -243.058 203.885 -236.812 216.375 C-237.082 220.149 -238.635 222.341 -240.973 225.262 C-244.914 228.641 -249.953 229 -255 229 C-258.341 234.28 -259.274 238.232 -259.562 244.5 C-260.05 254.976 -262.783 261.289 -270 269 C-271.871 270.499 -273.804 271.85 -275.773 273.215 C-278.621 275.498 -280.967 278.149 -283.375 280.875 C-289.739 288.042 -296.894 293.881 -305 299 C-302.737 313.487 -290.651 324.964 -280 334 C-281.25 335.562 -281.25 335.562 -283 337 C-288.518 336.85 -292.973 331.269 -296.576 327.593 C-301.886 321.652 -311 310.013 -311 302 C-330.51 311.406 -330.51 311.406 -348 324 C-348.699 324.614 -349.397 325.227 -350.117 325.859 C-356.6 331.938 -359.481 338.585 -362 347 C-365.958 346.435 -368.666 345.191 -372 343 C-371.76 346.058 -371.617 347.469 -370 350 C-359.314 356.568 -345.188 358.848 -333 355.977 C-331.33 355.538 -329.663 355.088 -328 354.625 C-326.334 354.177 -324.667 353.732 -323 353.289 C-322.181 353.071 -321.362 352.852 -320.518 352.627 C-317.929 351.982 -315.337 351.448 -312.719 350.941 C-300.722 348.616 -289.307 343.538 -278 339 C-277.157 338.662 -276.314 338.325 -275.445 337.977 C-258.757 330.899 -242.794 321.186 -228.211 310.473 C-225.582 308.721 -222.828 307.407 -220 306 C-217.697 304.62 -215.408 303.225 -213.125 301.812 C-205.314 297.048 -197.226 292.991 -189 289 C-186.998 288.003 -184.998 287.003 -183 286 C-179.939 284.468 -176.877 282.939 -173.809 281.422 C-166.735 277.914 -159.756 274.292 -152.84 270.48 C-150.268 269.14 -147.713 268.02 -145 267 C-145 266.34 -145 265.68 -145 265 C-142.699 263.309 -142.699 263.309 -139.688 261.438 C-138.701 260.817 -137.715 260.197 -136.699 259.559 C-134 258 -134 258 -131 257 C-131 256.34 -131 255.68 -131 255 C-129.32 253.273 -129.32 253.273 -127.125 251.375 C-126.406 250.743 -125.686 250.112 -124.945 249.461 C-123 248 -123 248 -121 248 C-120.644 247.14 -120.644 247.14 -120.281 246.262 C-118.721 243.507 -116.89 241.888 -114.5 239.812 C-113.611 239.031 -112.721 238.25 -111.805 237.445 C-110.416 236.235 -110.416 236.235 -109 235 C-107.205 233.399 -105.413 231.795 -103.625 230.188 C-102.834 229.48 -102.042 228.772 -101.227 228.043 C-99.716 226.657 -98.253 225.219 -96.836 223.738 C-95 222 -95 222 -93 222 C-92.67 221.01 -92.34 220.02 -92 219 C-90.258 217.211 -90.258 217.211 -88.125 215.375 C-87.077 214.458 -87.077 214.458 -86.008 213.523 C-84 212 -84 212 -81 211 C-81 210.34 -81 209.68 -81 209 C-79.41 207.541 -77.75 206.158 -76.062 204.812 C-75.065 204.016 -74.067 203.219 -73.039 202.398 C-72.036 201.607 -71.033 200.815 -70 200 C-69.121 199.291 -68.242 198.582 -67.336 197.852 C-61.257 193 -61.257 193 -59 193 C-59 192.34 -59 191.68 -59 191 C-57.427 189.767 -57.427 189.767 -55.238 188.391 C-54.449 187.883 -53.659 187.375 -52.846 186.852 C-51.178 185.797 -49.509 184.745 -47.838 183.695 C-41.725 179.755 -36.222 175.923 -34.5 168.438 C-34.148 166.991 -34.148 166.991 -33.789 165.516 C-33.398 163.775 -33.398 163.775 -33 162 C-27.323 136.746 -20.66 112.218 -9 89 C-20.718 85.748 -31.11 84.801 -43.179 85.593 C-47.756 85.892 -52.284 86.049 -56.875 86 C-65.932 85.915 -74.961 86.491 -84 87 C-84.503 85.209 -85.002 83.417 -85.5 81.625 C-85.918 80.128 -85.918 80.128 -86.344 78.602 C-87 76 -87 76 -87 74 C-62.732 68.453 -37.622 74.969 -13.886 80.383 C-10.935 81.014 -7.98 81.526 -5 82 C0.134 74.213 4.681 66.257 9 58 C10.65 59.65 12.3 61.3 14 63 C13.67 61.02 13.34 59.04 13 57 C14.485 56.505 14.485 56.505 16 56 C15.34 54.02 14.68 52.04 14 50 C15.485 49.505 15.485 49.505 17 49 C16.649 48.092 16.299 47.185 15.938 46.25 C15.006 43.02 15.02 42.049 16 39 C15.67 38.34 15.34 37.68 15 37 C15.257 36.109 15.257 36.109 15.52 35.199 C16.142 32.348 15.551 30.582 14.688 27.812 C14.423 26.932 14.159 26.052 13.887 25.145 C13.204 22.829 13.204 22.829 11 22 C9.81 19.786 8.698 17.582 7.625 15.312 C5.864 11.606 4.108 8.052 1.773 4.668 C0 2 0 2 0 0 Z M9 63 C7.704 64.066 7.704 64.066 7.938 66.562 C7.958 67.367 7.979 68.171 8 69 C9.32 69 10.64 69 12 69 C11.656 66.527 11.656 66.527 11 64 C10.34 63.67 9.68 63.34 9 63 Z M7 71 C6.34 72.32 5.68 73.64 5 75 C6.32 75.33 7.64 75.66 9 76 C8.505 73.525 8.505 73.525 8 71 C7.67 71 7.34 71 7 71 Z M-80 77 C-80.66 77.66 -81.32 78.32 -82 79 C-81.681 81.108 -81.681 81.108 -81 83 C-79 82.209 -79 82.209 -77 81 C-76.67 80.01 -76.34 79.02 -76 78 C-77.892 77.319 -77.892 77.319 -80 77 Z M-70 77 C-70.33 78.65 -70.66 80.3 -71 82 C-69.35 81.67 -67.7 81.34 -66 81 C-66 79.68 -66 78.36 -66 77 C-67.32 77 -68.64 77 -70 77 Z M-59 77 C-59.495 78.98 -59.495 78.98 -60 81 C-59.01 80.67 -58.02 80.34 -57 80 C-57.33 79.01 -57.66 78.02 -58 77 C-58.33 77 -58.66 77 -59 77 Z M2 80 C1.505 81.98 1.505 81.98 1 84 C2.32 84.33 3.64 84.66 5 85 C4.505 82.525 4.505 82.525 4 80 C3.34 80 2.68 80 2 80 Z M17 84 C16.67 84.66 16.34 85.32 16 86 C17.32 86 18.64 86 20 86 C20 85.34 20 84.68 20 84 C19.01 84 18.02 84 17 84 Z M-1 89 C-1.495 90.98 -1.495 90.98 -2 93 C-0.68 93.33 0.64 93.66 2 94 C2 92.68 2 91.36 2 90 C1.01 89.67 0.02 89.34 -1 89 Z M31 97 C30.67 97.99 30.34 98.98 30 100 C31.32 99.67 32.64 99.34 34 99 C34 98.34 34 97.68 34 97 C33.01 97 32.02 97 31 97 Z M-5 100 C-5.772 101.837 -5.772 101.837 -6 104 C-4.833 105.833 -4.833 105.833 -3 107 C-2.01 107 -1.02 107 0 107 C-0.188 104.555 -0.188 104.555 -1 102 C-2.968 100.64 -2.968 100.64 -5 100 Z M-9 111 C-8.805 112.95 -8.805 112.95 -8 115 C-6.016 116.284 -6.016 116.284 -4 117 C-3.319 115.108 -3.319 115.108 -3 113 C-3.66 112.34 -4.32 111.68 -5 111 C-6.32 111 -7.64 111 -9 111 Z M-11 121 C-11.77 123.345 -11.77 123.345 -12 126 C-10.854 127.897 -10.854 127.897 -9 129 C-8.01 129 -7.02 129 -6 129 C-5.672 125.327 -5.672 125.327 -7.375 122.188 C-8.934 120.803 -8.934 120.803 -11 121 Z M130 125 C126.975 128.056 126.975 128.056 126 132 C128.867 131.427 129.861 131.139 132 129 C132 127.68 132 126.36 132 125 C131.34 125 130.68 125 130 125 Z M138 126 C135.525 129.465 135.525 129.465 133 133 C133.66 133.66 134.32 134.32 135 135 C138.78 131.523 138.78 131.523 141 127 C140.01 126.67 139.02 126.34 138 126 Z M148 129 C145.525 132.465 145.525 132.465 143 136 C143.33 136.66 143.66 137.32 144 138 C147.291 136.865 147.996 136.007 149.75 132.875 C150.163 131.926 150.575 130.977 151 130 C150.01 129.67 149.02 129.34 148 129 Z M-13 131 C-13.794 132.747 -13.794 132.747 -14 135 C-12.863 137.785 -12.863 137.785 -11 140 C-10.01 140 -9.02 140 -8 140 C-8.181 136.562 -8.181 136.562 -9 133 C-10.936 131.487 -10.936 131.487 -13 131 Z M157 134 C154.788 136.942 154.788 136.942 153 140 C153.33 140.66 153.66 141.32 154 142 C155.999 141.421 155.999 141.421 158 140 C159.292 136.958 159.292 136.958 160 134 C159.01 134 158.02 134 157 134 Z M167 138 C164.872 140.817 164.872 140.817 163 144 C163.33 144.99 163.66 145.98 164 147 C165.999 146.421 165.999 146.421 168 145 C169.292 141.958 169.292 141.958 170 139 C169.01 138.67 168.02 138.34 167 138 Z M177 141 C172.737 145.234 172.737 145.234 172 151 C173.32 151 174.64 151 176 151 C177.604 147.492 178.22 144.856 178 141 C177.67 141 177.34 141 177 141 Z M-16 144 C-16.783 145.792 -16.783 145.792 -17 148 C-15.648 150.248 -15.648 150.248 -14 152 C-13.01 151.67 -12.02 151.34 -11 151 C-11.33 148.69 -11.66 146.38 -12 144 C-13.32 144 -14.64 144 -16 144 Z M184 148 C180.808 151.741 180.808 151.741 180.25 156.375 C180.497 156.911 180.745 157.447 181 158 C182.95 157.805 182.95 157.805 185 157 C186.874 154.502 187.05 153.367 186.625 150.25 C186.419 149.507 186.212 148.765 186 148 C185.34 148 184.68 148 184 148 Z M-21 157 C-22.296 158.066 -22.296 158.066 -22.062 160.562 C-22.042 161.367 -22.021 162.171 -22 163 C-20.02 163.99 -20.02 163.99 -18 165 C-16.704 163.934 -16.704 163.934 -16.938 161.438 C-16.958 160.633 -16.979 159.829 -17 159 C-18.32 158.34 -19.64 157.68 -21 157 Z M-26 173 C-26.33 174.65 -26.66 176.3 -27 178 C-25.515 178.99 -25.515 178.99 -24 180 C-23.34 178.68 -22.68 177.36 -22 176 C-22.66 175.01 -23.32 174.02 -24 173 C-24.66 173 -25.32 173 -26 173 Z M-33 182 C-33.66 182.66 -34.32 183.32 -35 184 C-34.909 186.54 -34.909 186.54 -34 189 C-32.515 189.99 -32.515 189.99 -31 191 C-30.34 190.34 -29.68 189.68 -29 189 C-29.091 186.46 -29.091 186.46 -30 184 C-30.99 183.34 -31.98 182.68 -33 182 Z M-38 194 C-39.336 195.111 -39.336 195.111 -39.125 197.938 C-39.213 200.915 -39.213 200.915 -38 203 C-37.01 203 -36.02 203 -35 203 C-34.315 200.142 -34.315 200.142 -34 197 C-34.66 196.01 -35.32 195.02 -36 194 C-36.66 194 -37.32 194 -38 194 Z M-278 197 C-278.495 198.98 -278.495 198.98 -279 201 C-278.403 201.306 -277.806 201.611 -277.191 201.926 C-270.958 205.214 -264.99 208.817 -259.062 212.625 C-258.329 213.092 -257.596 213.559 -256.84 214.04 C-253.178 216.416 -249.942 218.728 -247 222 C-245.528 219.341 -245.528 219.341 -245 216 C-248.663 210.487 -253.361 207.555 -259 204.25 C-260.191 203.529 -260.191 203.529 -261.406 202.793 C-269.16 198.075 -269.16 198.075 -278 197 Z M-46 208 C-46.33 208.33 -46.66 208.66 -47 209 C-46.898 210.914 -46.898 210.914 -46.562 213.062 C-46.377 214.362 -46.191 215.661 -46 217 C-42.872 215.8 -42.872 215.8 -41.125 213.062 C-40.773 210.687 -40.773 210.687 -43 208 C-43.99 208 -44.98 208 -46 208 Z M-53 221 C-54.416 222.184 -54.416 222.184 -54.062 225.562 C-54.042 226.697 -54.021 227.831 -54 229 C-52.68 229 -51.36 229 -50 229 C-49.312 226.646 -49.312 226.646 -49 224 C-49.66 223.01 -50.32 222.02 -51 221 C-51.66 221 -52.32 221 -53 221 Z M-284 224 C-283.785 227.761 -283.028 228.971 -280.375 231.75 C-277.121 234.269 -274.105 234.754 -270 235 C-270.66 235.66 -271.32 236.32 -272 237 C-272.458 238.972 -272.458 238.972 -272.625 241.125 C-272.749 242.404 -272.873 243.683 -273 245 C-276.092 242.47 -276.909 239.775 -278 236 C-282.238 239.767 -285.115 243.598 -287 249 C-287.116 253.891 -284.097 256.516 -281 260 C-280.67 260.66 -280.34 261.32 -280 262 C-280.908 261.691 -281.815 261.381 -282.75 261.062 C-285.166 260.273 -287.528 259.571 -290 259 C-290.062 260.258 -290.124 261.516 -290.188 262.812 C-290.222 263.52 -290.257 264.228 -290.293 264.957 C-290.147 267.075 -290.147 267.075 -288.758 268.762 C-285.901 270.774 -283.611 270.138 -280.285 269.641 C-275.802 268.384 -273.305 265.623 -270.414 262.027 C-268.278 257.454 -268.195 252.799 -267.75 247.812 C-266.802 238.869 -265.681 232.461 -259 226 C-259.33 225.34 -259.66 224.68 -260 224 C-260.671 224.632 -260.671 224.632 -261.355 225.277 C-267.787 231.105 -267.787 231.105 -272 231 C-276.725 229.397 -280.261 227.286 -284 224 Z M-66 238 C-67.416 239.184 -67.416 239.184 -67.062 242.562 C-67.042 243.697 -67.021 244.831 -67 246 C-65.68 245.34 -64.36 244.68 -63 244 C-63 242.35 -63 240.7 -63 239 C-63.99 238.67 -64.98 238.34 -66 238 Z M-55 243 C-54.67 243.66 -54.34 244.32 -54 245 C-53.67 244.34 -53.34 243.68 -53 243 C-53.66 243 -54.32 243 -55 243 Z M-57 245 C-57 245.66 -57 246.32 -57 247 C-56.34 247 -55.68 247 -55 247 C-55 246.34 -55 245.68 -55 245 C-55.66 245 -56.32 245 -57 245 Z M-58 247 C-59.709 248.623 -61.374 250.293 -63 252 C-63 252.66 -63 253.32 -63 254 C-62.34 254 -61.68 254 -61 254 C-59.618 252.374 -58.281 250.707 -57 249 C-57.33 248.34 -57.66 247.68 -58 247 Z M-75 249 C-75.33 251.31 -75.66 253.62 -76 256 C-74.68 255.01 -73.36 254.02 -72 253 C-72.33 251.68 -72.66 250.36 -73 249 C-73.66 249 -74.32 249 -75 249 Z M-65 254 C-65 254.99 -65 255.98 -65 257 C-64.34 256.01 -63.68 255.02 -63 254 C-63.66 254 -64.32 254 -65 254 Z M-86 258 C-87.296 259.066 -87.296 259.066 -87.062 261.562 C-87.042 262.367 -87.021 263.171 -87 264 C-85.68 263.01 -84.36 262.02 -83 261 C-83.33 260.01 -83.66 259.02 -84 258 C-84.66 258 -85.32 258 -86 258 Z M-70 258 C-70.33 258.66 -70.66 259.32 -71 260 C-70.01 259.67 -69.02 259.34 -68 259 C-68.66 258.67 -69.32 258.34 -70 258 Z M-96 267 C-97.296 268.066 -97.296 268.066 -97.062 270.562 C-97.042 271.367 -97.021 272.171 -97 273 C-95.68 272.01 -94.36 271.02 -93 270 C-93.33 269.01 -93.66 268.02 -94 267 C-94.66 267 -95.32 267 -96 267 Z M-80 267 C-80.33 267.66 -80.66 268.32 -81 269 C-80.01 268.67 -79.02 268.34 -78 268 C-78.66 267.67 -79.32 267.34 -80 267 Z M-83 270 C-83.598 270.639 -84.196 271.279 -84.812 271.938 C-87 274 -87 274 -90 275 C-90.33 275.66 -90.66 276.32 -91 277 C-91.99 277.33 -92.98 277.66 -94 278 C-95.028 278.971 -96.027 279.974 -97 281 C-102.05 284.939 -107.074 287.595 -113 290 C-113 290.66 -113 291.32 -113 292 C-113.959 292.34 -113.959 292.34 -114.938 292.688 C-122.942 296.118 -129.969 300.907 -137 306 C-136.444 309.473 -135.824 312.894 -135 316.312 C-133.98 320.865 -133.342 325.349 -133 330 C-132.934 330.723 -132.869 331.446 -132.801 332.191 C-132.104 346.398 -137.949 360.211 -143.243 373.091 C-144.274 375.692 -145.152 378.335 -146 381 C-146.437 374.093 -144.892 368.798 -142.625 362.312 C-136.746 344.607 -134.243 327.887 -141 310 C-145.08 311.557 -148.481 313.381 -152 316 C-152 316.66 -152 317.32 -152 318 C-152.713 318.246 -153.426 318.492 -154.16 318.746 C-157.348 320.154 -159.699 321.909 -162.438 324.062 C-167.631 328.055 -172.966 331.645 -178.543 335.08 C-181.819 337.002 -181.819 337.002 -184 340 C-185.321 340.378 -186.658 340.702 -188 341 C-189.674 341.647 -191.343 342.31 -193 343 C-193 343.66 -193 344.32 -193 345 C-195.475 345.495 -195.475 345.495 -198 346 C-198 346.66 -198 347.32 -198 348 C-199.32 348 -200.64 348 -202 348 C-202 348.66 -202 349.32 -202 350 C-203.32 350 -204.64 350 -206 350 C-206.33 350.66 -206.66 351.32 -207 352 C-208.894 353.007 -210.832 353.933 -212.785 354.82 C-214.54 355.623 -214.54 355.623 -216.33 356.441 C-217.574 357.003 -218.818 357.564 -220.062 358.125 C-221.311 358.693 -222.559 359.262 -223.807 359.832 C-226.869 361.227 -229.933 362.616 -233 364 C-229.079 367.921 -224.437 368.806 -219 369 C-214.489 368.018 -210.212 366.401 -205.891 364.799 C-198.579 362.093 -191.801 360.642 -184 360 C-184.669 360.135 -185.338 360.271 -186.027 360.41 C-195.494 362.532 -204.129 366.164 -213 370 C-212.03 371.728 -212.03 371.728 -210 373 C-203.979 372.786 -198.757 371.083 -193.125 369.062 C-186.784 366.86 -180.646 365.072 -174 364 C-175.039 364.375 -176.078 364.75 -177.148 365.137 C-185.009 368.009 -192.628 370.995 -200 375 C-197.217 377.303 -197.217 377.303 -194.258 376.777 C-190.691 375.926 -187.327 374.798 -183.875 373.562 C-177.388 371.313 -170.885 369.515 -164 369 C-163.67 369.33 -163.34 369.66 -163 370 C-164.136 370.094 -165.271 370.188 -166.441 370.285 C-171.294 370.894 -175.465 372.523 -179.938 374.438 C-180.704 374.75 -181.47 375.063 -182.26 375.385 C-186.347 376.836 -186.347 376.836 -189 380 C-184.275 381.52 -180.742 380.224 -176.25 378.625 C-170.365 376.549 -165.391 375.71 -159 375 C-169.395 378.465 -169.395 378.465 -180 382 C-177.876 384.124 -176.957 384.473 -174.148 385.254 C-173.379 385.469 -172.609 385.683 -171.816 385.904 C-171.011 386.122 -170.205 386.339 -169.375 386.562 C-168.593 386.784 -167.81 387.005 -167.004 387.232 C-143.081 393.798 -118.278 390.377 -96.828 378.199 C-92.848 375.72 -89.064 373.08 -85.375 370.188 C-78.767 365.071 -71.23 361.157 -64 357 C-66.559 310.665 -66.559 310.665 -83 270 Z M-106 275 C-106 276.65 -106 278.3 -106 280 C-105.01 279.34 -104.02 278.68 -103 278 C-103 277.01 -103 276.02 -103 275 C-103.99 275 -104.98 275 -106 275 Z M-115 283 C-115 283.99 -115 284.98 -115 286 C-114.34 286 -113.68 286 -113 286 C-113.33 285.01 -113.66 284.02 -114 283 C-114.33 283 -114.66 283 -115 283 Z M-285 356 C-289.504 361.344 -293.372 366.977 -297 372.938 C-297.41 373.6 -297.82 374.263 -298.242 374.946 C-299.227 376.593 -300.122 378.293 -301 380 C-300.67 380.66 -300.34 381.32 -300 382 C-295.878 376.248 -291.885 370.413 -288 364.5 C-287.59 363.889 -287.18 363.278 -286.758 362.648 C-285.776 361.138 -284.879 359.572 -284 358 C-284.33 357.34 -284.66 356.68 -285 356 Z M-303 364 C-304.504 365.851 -305.949 367.716 -307.375 369.625 C-308.166 370.669 -308.958 371.713 -309.773 372.789 C-313.556 377.959 -313.556 377.959 -315 384 C-310.879 382.626 -309.911 379.868 -307.938 376.25 C-307.586 375.629 -307.235 375.007 -306.873 374.367 C-304.989 370.992 -303.336 367.628 -302 364 C-302.33 364 -302.66 364 -303 364 Z M-323 366 C-327.375 372.037 -330.506 377.973 -333 385 C-332.01 385.33 -331.02 385.66 -330 386 C-329.674 385.192 -329.348 384.384 -329.012 383.551 C-328.356 381.948 -328.356 381.948 -327.688 380.312 C-327.258 379.257 -326.829 378.201 -326.387 377.113 C-325 374 -325 374 -323.27 371.293 C-322.851 370.536 -322.432 369.78 -322 369 C-322.33 368.01 -322.66 367.02 -323 366 Z M-348 367 C-351.089 372.665 -353.577 377.509 -354 384 C-353.34 384 -352.68 384 -352 384 C-350.996 381.543 -349.996 379.085 -349 376.625 C-348.714 375.926 -348.428 375.228 -348.133 374.508 C-346.555 370.871 -346.555 370.871 -346 367 C-346.66 367 -347.32 367 -348 367 Z M-244.188 369 C-245.539 369.557 -245.539 369.557 -246.918 370.125 C-247.949 370.558 -247.949 370.558 -249 371 C-243.908 377.983 -237.4 381.83 -230 386 C-228.911 386.626 -227.821 387.253 -226.699 387.898 C-218.789 392.288 -210.638 396.07 -202.375 399.75 C-200.838 400.44 -200.838 400.44 -199.271 401.144 C-185.053 407.436 -185.053 407.436 -169.812 409.375 C-168.746 409.362 -167.68 409.349 -166.582 409.336 C-163.839 409.246 -163.839 409.246 -162 407 C-162.664 406.734 -163.328 406.469 -164.012 406.195 C-168.341 404.464 -172.671 402.732 -177 401 C-173.139 401.394 -169.779 401.967 -166.25 403.562 C-163.135 405.202 -163.135 405.202 -160 405 C-163.415 397.959 -166.722 392.058 -174.355 389.109 C-178.869 387.572 -183.448 386.255 -188.023 384.917 C-193.098 383.354 -198.041 381.456 -203 379.562 C-203.993 379.187 -204.986 378.812 -206.009 378.426 C-211.041 376.521 -216.064 374.591 -221.082 372.648 C-222.047 372.276 -223.012 371.904 -224.006 371.521 C-225.836 370.815 -227.664 370.103 -229.49 369.387 C-230.304 369.072 -231.118 368.758 -231.957 368.434 C-232.668 368.156 -233.38 367.878 -234.113 367.592 C-238.006 366.371 -240.573 367.498 -244.188 369 Z M-336 368 C-337.53 370.076 -337.53 370.076 -339 372.688 C-339.516 373.558 -340.031 374.428 -340.562 375.324 C-342.521 378.969 -344 381.826 -344 386 C-343.34 386 -342.68 386 -342 386 C-340.662 383.377 -339.329 380.752 -338 378.125 C-337.618 377.379 -337.237 376.632 -336.844 375.863 C-336.483 375.148 -336.122 374.432 -335.75 373.695 C-335.415 373.035 -335.08 372.376 -334.734 371.696 C-333.868 370.002 -333.868 370.002 -334 368 C-334.66 368 -335.32 368 -336 368 Z M-316 373 C-316.983 374.435 -317.962 375.873 -318.938 377.312 C-319.483 378.113 -320.028 378.914 -320.59 379.738 C-322.138 382.026 -322.138 382.026 -323 385 C-319.346 383.782 -319.042 382.856 -317.25 379.562 C-316.801 378.759 -316.353 377.956 -315.891 377.129 C-315.597 376.426 -315.303 375.724 -315 375 C-315.33 374.34 -315.66 373.68 -316 373 Z M-165 393 C-163.02 395.31 -161.04 397.62 -159 400 C-155.327 399.082 -153.067 398.13 -150 396 C-150 395.34 -150 394.68 -150 394 C-154.95 393.67 -159.9 393.34 -165 393 Z M-147.562 397.875 C-149.678 399.826 -151.583 401.389 -154 403 C-154 403.66 -154 404.32 -154 405 C-151.525 405.495 -151.525 405.495 -149 406 C-147.873 404.731 -146.748 403.46 -145.625 402.188 C-144.685 401.126 -144.685 401.126 -143.727 400.043 C-141.859 397.912 -141.859 397.912 -140 395 C-144.325 395 -144.632 395.134 -147.562 397.875 Z " fill="#000000" transform="translate(493,273)"/>
<path d="M0 0 C11.633 2.888 19.406 10.164 26 20 C26.717 21.645 27.401 23.308 28 25 C26.935 24.107 25.873 23.21 24.812 22.312 C24.221 21.814 23.629 21.315 23.02 20.801 C21.519 19.463 20.079 18.056 18.676 16.617 C15.739 13.744 12.649 11.283 9.375 8.812 C8.803 8.375 8.23 7.937 7.641 7.486 C5.136 5.579 2.62 3.747 0 2 C0 1.34 0 0.68 0 0 Z " fill="#000000" transform="translate(577,294)"/>
<path d="M0 0 C0.66 0.33 1.32 0.66 2 1 C-12.55 12.165 -30.746 24.292 -49.812 24.062 C-50.788 24.053 -51.764 24.044 -52.77 24.035 C-53.506 24.024 -54.242 24.012 -55 24 C-55.33 23.34 -55.66 22.68 -56 22 C-54.385 21.762 -54.385 21.762 -52.738 21.52 C-33.705 18.558 -16.051 10.701 0 0 Z " fill="#000000" transform="translate(360,319)"/>
<path d="M0 0 C0.505 3.249 1.003 6.5 1.5 9.75 C1.643 10.67 1.786 11.591 1.934 12.539 C2.069 13.429 2.204 14.318 2.344 15.234 C2.532 16.46 2.532 16.46 2.725 17.71 C3 20 3 20 3 24 C1.502 24.344 0.002 24.674 -1.5 25 C-2.335 25.186 -3.171 25.371 -4.031 25.562 C-6.983 25.998 -9.791 25.992 -12.769 25.955 C-17.009 26.041 -21.182 26.709 -25.375 27.312 C-26.338 27.446 -27.301 27.58 -28.294 27.718 C-34.323 28.571 -40.317 29.561 -46.312 30.625 C-52.73 31.763 -58.992 32.273 -65.499 32.514 C-74.18 32.943 -82.566 35.01 -91 37 C-86.333 31.436 -77.896 30.323 -71.039 29.559 C-66.128 29.222 -61.21 29.082 -56.29 28.937 C-32.567 28.168 -18.737 18.007 -2.617 1.57 C-1 0 -1 0 0 0 Z M-2 11 C-2.495 12.98 -2.495 12.98 -3 15 C-2.01 15 -1.02 15 0 15 C-0.33 13.68 -0.66 12.36 -1 11 C-1.33 11 -1.66 11 -2 11 Z " fill="#000000" transform="translate(363,322)"/>
<path d="M0 0 C1.32 0.33 2.64 0.66 4 1 C4.186 2.114 4.371 3.228 4.562 4.375 C5.037 5.571 5.511 6.767 6 8 C9.422 9.252 9.422 9.252 13 10 C16.405 13.379 17.47 17.852 18.875 22.312 C19.401 23.936 19.927 25.56 20.453 27.184 C20.713 27.994 20.973 28.805 21.24 29.64 C22.342 33.061 23.483 36.467 24.625 39.875 C26.75 46.25 28.875 52.625 31 59 C30.01 59.33 29.02 59.66 28 60 C22.482 49.069 18.025 38.002 14.147 26.381 C13.794 25.352 13.441 24.322 13.078 23.262 C12.773 22.344 12.468 21.425 12.153 20.479 C10.379 16.664 8.032 14.565 4.375 12.562 C1.526 10.688 0.955 9.213 0 6 C-1.65 6.66 -3.3 7.32 -5 8 C-4.165 8.822 -4.165 8.822 -3.312 9.66 C6.011 19.346 11.251 30.473 15.938 42.938 C16.232 43.718 16.527 44.498 16.831 45.302 C18.599 50.226 19.532 54.788 20 60 C17.484 57.759 16.289 55.762 15.055 52.641 C14.705 51.78 14.355 50.918 13.994 50.031 C13.625 49.113 13.255 48.196 12.875 47.25 C9.276 38.581 5.183 30.638 0.117 22.75 C-1.447 20.301 -2.959 17.821 -4.474 15.342 C-5.974 12.889 -7.487 10.445 -9 8 C-8.34 7.67 -7.68 7.34 -7 7 C-7.33 5.02 -7.66 3.04 -8 1 C-5.614 1.576 -3.333 2.222 -1 3 C-0.67 2.01 -0.34 1.02 0 0 Z " fill="#000000" transform="translate(628,331)"/>
<path d="M0 0 C0 0.66 0 1.32 0 2 C0.817 2.081 1.635 2.162 2.477 2.246 C6.875 3.187 10.412 4.988 14.375 7.062 C15.479 7.628 15.479 7.628 16.605 8.205 C18.407 9.129 20.204 10.064 22 11 C18.744 14.743 15.049 16.638 10.625 18.688 C4.235 21.73 -1.652 25.151 -7.394 29.294 C-9.811 30.962 -11.422 32.015 -14.406 31.938 C-17.907 30.672 -21.372 29.357 -24.812 27.938 C-25.505 27.656 -26.198 27.374 -26.912 27.084 C-28.61 26.393 -30.305 25.697 -32 25 C-34.31 27.64 -36.62 30.28 -39 33 C-39 28.826 -36.737 26.882 -34.125 23.875 C-33.625 23.296 -33.126 22.717 -32.611 22.121 C-24.767 13.177 -12.818 0 0 0 Z " fill="#000000" transform="translate(240,355)"/>
<path d="M0 0 C6.536 4.479 12.172 9.755 17.886 15.222 C19.742 16.967 21.676 18.61 23.625 20.25 C39.919 34.503 50.673 55.318 60.5 74.312 C61.099 75.438 61.099 75.438 61.709 76.587 C63.291 79.721 64.317 81.859 64.293 85.406 C63.082 88.07 61.97 88.884 59.438 90.312 C58.739 90.72 58.04 91.127 57.32 91.547 C55.312 92.562 55.312 92.562 52.312 93.562 C52.312 94.222 52.312 94.882 52.312 95.562 C50.379 97.219 50.379 97.219 47.875 99.062 C44.564 101.362 44.564 101.362 42.312 104.562 C40.827 105.058 40.827 105.058 39.312 105.562 C37.645 107.062 37.645 107.062 36.312 108.562 C32.609 101.244 28.916 93.931 25.499 86.474 C13.91 61.266 0.294 35.076 -23.688 19.562 C-24.32 18.922 -24.953 18.281 -25.605 17.621 C-28.445 14.814 -31.657 12.788 -35 10.625 C-39.978 7.375 -44.869 4.047 -49.688 0.562 C-46.543 -1.534 -44.977 -1.859 -41.312 -2.375 C-36.78 -3.061 -32.386 -3.958 -27.938 -5.062 C-16.906 -7.64 -9.556 -6.04 0 0 Z M-20.688 -1.438 C-21.183 0.543 -21.183 0.543 -21.688 2.562 C-18.638 3.574 -18.638 3.574 -15.688 2.562 C-16.017 1.243 -16.347 -0.077 -16.688 -1.438 C-18.007 -1.438 -19.327 -1.438 -20.688 -1.438 Z M-13.688 5.562 C-13.688 6.882 -13.688 8.202 -13.688 9.562 C-12.038 9.892 -10.387 10.223 -8.688 10.562 C-8.097 8.616 -8.097 8.616 -7.688 6.562 C-8.754 5.266 -8.754 5.266 -11.25 5.5 C-12.054 5.521 -12.859 5.541 -13.688 5.562 Z M-4.688 14.562 C-4.688 15.882 -4.688 17.202 -4.688 18.562 C-2.212 19.058 -2.212 19.058 0.312 19.562 C0.972 18.243 1.632 16.923 2.312 15.562 C1.187 14.206 1.187 14.206 -1.75 14.5 C-2.719 14.521 -3.689 14.541 -4.688 14.562 Z M5.312 29.562 C5.972 30.222 6.632 30.882 7.312 31.562 C7.642 30.903 7.972 30.243 8.312 29.562 C7.322 29.562 6.332 29.562 5.312 29.562 Z " fill="#000000" transform="translate(358.6875,382.4375)"/>
<path d="M0 0 C-0.33 1.65 -0.66 3.3 -1 5 C0.141 4.87 0.141 4.87 1.305 4.737 C4 5 4 5 5.666 6.753 C6.146 7.563 6.626 8.373 7.121 9.207 C7.662 10.099 8.202 10.992 8.759 11.911 C9.313 12.868 9.867 13.826 10.438 14.812 C11.295 16.252 11.295 16.252 12.17 17.72 C13.8 20.469 15.404 23.232 17 26 C17.396 26.674 17.791 27.348 18.199 28.042 C21.971 34.47 21.971 34.47 23 37 C22.505 37.99 22.505 37.99 22 39 C20.801 38.528 20.801 38.528 19.578 38.047 C12.118 35.14 4.62 32.458 -3 30 C-1.313 31.23 0.375 32.459 2.062 33.688 C3.06 34.416 4.058 35.144 5.086 35.895 C7.432 37.59 9.8 39.239 12.188 40.875 C13.58 41.927 13.58 41.927 15 43 C15 43.66 15 44.32 15 45 C5.614 44.098 -4.617 39.092 -11 32 C-11.144 30.928 -11.289 29.855 -11.438 28.75 C-12.146 24.029 -14.092 22.006 -17.082 18.406 C-20.936 13.571 -24.79 8.149 -26 2 C-18.81 -1.595 -7.867 -0.126 0 0 Z M-2 9 C-2.495 10.98 -2.495 10.98 -3 13 C-0.525 13.495 -0.525 13.495 2 14 C2 12.68 2 11.36 2 10 C0.68 9.67 -0.64 9.34 -2 9 Z M-1 18 C-1 19.32 -1 20.64 -1 22 C0.98 22.495 0.98 22.495 3 23 C3 21.68 3 20.36 3 19 C1.68 18.67 0.36 18.34 -1 18 Z " fill="#000000" transform="translate(412,387)"/>
<path d="M0 0 C0.66 0.33 1.32 0.66 2 1 C-2.409 5.034 -6.636 8.052 -11.918 10.832 C-14.51 12.286 -16.705 14.122 -19 16 C-19.66 16 -20.32 16 -21 16 C-21.66 16.66 -22.32 17.32 -23 18 C-23.66 18 -24.32 18 -25 18 C-28.567 24.064 -29.631 29.136 -30.215 36.145 C-31 39 -31 39 -33.566 40.887 C-34.369 41.254 -35.173 41.621 -36 42 C-35.673 32.64 -34.728 23.493 -28.562 16.062 C-27.717 15.382 -26.871 14.701 -26 14 C-25 13.091 -25 13.091 -23.98 12.164 C-19.86 9.173 -15.411 7.322 -10.75 5.312 C-8.931 4.519 -7.114 3.723 -5.297 2.926 C-4.496 2.579 -3.695 2.233 -2.87 1.876 C-1.03 1.143 -1.03 1.143 0 0 Z " fill="#000000" transform="translate(196,390)"/>
<path d="M0 0 C0 3.396 -0.522 4.066 -2.5 6.688 C-2.964 7.31 -3.428 7.933 -3.906 8.574 C-4.267 9.045 -4.628 9.515 -5 10 C-5 6.604 -4.478 5.934 -2.5 3.312 C-2.036 2.69 -1.572 2.067 -1.094 1.426 C-0.733 0.955 -0.372 0.485 0 0 Z " fill="#000000" transform="translate(554,392)"/>
<path d="M0 0 C5.315 0.543 9.8 1.872 14.688 4.062 C15.386 4.374 16.084 4.686 16.804 5.007 C32.697 12.318 46.705 23.895 57 38 C57.424 38.573 57.849 39.145 58.286 39.735 C65.759 49.918 70.032 59.386 72 72 C66.683 68.554 64.608 64.032 61.812 58.562 C47.547 31.827 26.682 14.517 0 1 C0 0.67 0 0.34 0 0 Z " fill="#000000" transform="translate(288,402)"/>
<path d="M0 0 C22.771 6.894 43.484 29.669 56.312 48.688 C56.721 49.293 57.13 49.899 57.551 50.522 C61.872 57.081 65.261 63.091 66.25 71 C66.4 72.134 66.549 73.269 66.703 74.438 C66.801 75.283 66.899 76.129 67 77 C62.775 73.149 60.098 69.153 57.312 64.188 C56.434 62.665 55.554 61.142 54.672 59.621 C54.228 58.851 53.784 58.082 53.326 57.289 C46.768 45.972 39.842 35.665 31 26 C30.261 25.19 29.523 24.381 28.762 23.547 C20.745 15.163 11.287 8.254 1.512 2.059 C1.013 1.709 0.514 1.36 0 1 C0 0.67 0 0.34 0 0 Z " fill="#000000" transform="translate(309,405)"/>
<path d="M0 0 C0 3.606 -0.817 4.413 -3 7.188 C-3.557 7.903 -4.114 8.618 -4.688 9.355 C-5.121 9.898 -5.554 10.441 -6 11 C-6 7.394 -5.183 6.587 -3 3.812 C-2.443 3.097 -1.886 2.382 -1.312 1.645 C-0.879 1.102 -0.446 0.559 0 0 Z " fill="#000000" transform="translate(544,406)"/>
<path d="M0 0 C1 2 1 2 0.142 5.065 C-0.315 6.401 -0.781 7.735 -1.254 9.066 C-1.632 10.161 -1.632 10.161 -2.018 11.278 C-2.859 13.709 -3.711 16.136 -4.562 18.562 C-5.15 20.254 -5.736 21.945 -6.322 23.637 C-7.563 27.221 -8.807 30.805 -10.054 34.387 C-12.991 42.842 -15.875 51.315 -18.763 59.787 C-19.675 62.465 -20.59 65.142 -21.504 67.819 C-22.069 69.473 -22.634 71.127 -23.199 72.781 C-23.454 73.527 -23.709 74.272 -23.971 75.04 C-25.33 79.021 -26.675 83.007 -28 87 C-29.564 83.022 -28.373 80.287 -27.035 76.352 C-26.811 75.682 -26.586 75.013 -26.355 74.324 C-25.601 72.087 -24.832 69.856 -24.062 67.625 C-23.529 66.055 -22.996 64.484 -22.464 62.913 C-20.986 58.564 -19.492 54.22 -17.993 49.878 C-16.951 46.857 -15.912 43.836 -14.873 40.814 C-12.694 34.478 -10.505 28.144 -8.312 21.812 C-7.955 20.78 -7.598 19.747 -7.23 18.684 C-6.216 15.753 -5.196 12.823 -4.176 9.895 C-3.869 9.008 -3.562 8.121 -3.246 7.207 C-2.823 5.998 -2.823 5.998 -2.392 4.765 C-2.023 3.705 -2.023 3.705 -1.647 2.624 C-1 1 -1 1 0 0 Z " fill="#000000" transform="translate(573,406)"/>
<path d="M0 0 C3.962 1.673 7.028 4.344 10.25 7.125 C10.85 7.641 11.449 8.158 12.067 8.689 C17.134 13.119 21.974 17.76 26.75 22.5 C27.441 23.182 28.133 23.864 28.845 24.567 C29.489 25.215 30.133 25.863 30.797 26.531 C31.368 27.104 31.938 27.677 32.526 28.268 C34.067 30.078 35.03 31.838 36 34 C33.734 34.734 33.734 34.734 31 35 C29.078 33.516 29.078 33.516 27.25 31.25 C26.556 30.413 25.863 29.577 25.148 28.715 C23.758 26.957 22.367 25.199 20.977 23.441 C15.852 17.031 10.397 11.234 4.521 5.507 C2.999 4.02 1.497 2.512 0 1 C0 0.67 0 0.34 0 0 Z " fill="#000000" transform="translate(333,410)"/>
<path d="M0 0 C0.99 0.33 1.98 0.66 3 1 C5.679 35.59 5.679 35.59 0.938 41.625 C-0.022 42.306 -0.022 42.306 -1 43 C-3.225 38.578 -3.213 34.54 -3.047 29.707 C-3.027 28.92 -3.006 28.133 -2.985 27.321 C-2.94 25.665 -2.889 24.008 -2.833 22.352 C-2.75 19.811 -2.688 17.27 -2.629 14.729 C-2.582 13.117 -2.534 11.506 -2.484 9.895 C-2.467 9.133 -2.449 8.372 -2.43 7.587 C-2.23 2.23 -2.23 2.23 0 0 Z " fill="#000000" transform="translate(691,410)"/>
<path d="M0 0 C0 3.606 -0.817 4.413 -3 7.188 C-3.557 7.903 -4.114 8.618 -4.688 9.355 C-5.121 9.898 -5.554 10.441 -6 11 C-6 7.394 -5.183 6.587 -3 3.812 C-2.443 3.097 -1.886 2.382 -1.312 1.645 C-0.879 1.102 -0.446 0.559 0 0 Z " fill="#000000" transform="translate(533,421)"/>
<path d="M0 0 C20.879 0.514 42.177 13.758 58.875 25.312 C59.704 25.881 59.704 25.881 60.55 26.461 C70.758 33.578 79.271 42.384 87.875 51.312 C87.38 52.303 87.38 52.303 86.875 53.312 C86.073 52.646 85.271 51.98 84.445 51.293 C75.115 43.682 65.253 37.396 54.875 31.312 C55.591 31.921 55.591 31.921 56.321 32.542 C56.948 33.077 57.576 33.612 58.223 34.164 C58.844 34.693 59.465 35.223 60.106 35.768 C62.123 37.529 64.019 39.382 65.875 41.312 C65.38 42.303 65.38 42.303 64.875 43.312 C64.18 42.707 63.485 42.101 62.77 41.477 C49.076 30.196 33.178 23.023 15.875 19.312 C14.228 18.902 12.581 18.486 10.938 18.062 C9.927 17.815 8.916 17.567 7.875 17.312 C7.875 16.652 7.875 15.993 7.875 15.312 C17.121 16.299 25.972 17.483 34.875 20.312 C24.965 15.697 15.179 11.426 4.627 8.48 C1.03 7.398 -0.842 6.691 -3.129 3.637 C-3.458 2.87 -3.786 2.103 -4.125 1.312 C-3.125 0.312 -3.125 0.312 0 0 Z M35.875 21.312 C37.855 22.303 37.855 22.303 39.875 23.312 C39.545 22.652 39.215 21.993 38.875 21.312 C37.885 21.312 36.895 21.312 35.875 21.312 Z " fill="#000000" transform="translate(200.125,426.6875)"/>
<path d="M0 0 C1 3 1 3 -0.266 6.117 C-0.911 7.378 -1.574 8.63 -2.25 9.875 C-2.605 10.533 -2.96 11.191 -3.325 11.87 C-6.054 16.73 -9.172 21.105 -12.75 25.375 C-13.209 25.928 -13.668 26.481 -14.142 27.05 C-16.535 29.788 -18.271 31.669 -22 32 C-19.707 28.273 -17.244 25.132 -14.25 21.938 C-8.374 15.467 -3.774 7.873 0 0 Z " fill="#000000" transform="translate(722,431)"/>
<path d="M0 0 C1.507 2.733 2.29 4.928 2.578 8.031 C2.655 8.812 2.732 9.593 2.811 10.398 C2.885 11.233 2.959 12.069 3.035 12.93 C3.161 14.232 3.161 14.232 3.288 15.56 C3.554 18.331 3.809 21.103 4.062 23.875 C4.322 26.64 4.584 29.404 4.847 32.169 C5.01 33.887 5.171 35.605 5.328 37.324 C5.726 41.588 6.229 45.783 7 50 C7.784 49.794 8.567 49.587 9.375 49.375 C10.241 49.251 11.108 49.127 12 49 C14 51 14 51 14 54 C10.597 56.094 7.962 56.66 4 56 C1.625 53 1.625 53 0 50 C-1.052 50.588 -1.052 50.588 -2.125 51.188 C-5 52 -5 52 -8.188 50.812 C-11 49 -11 49 -13 46 C-13.402 37.804 -11.097 29.937 -8.84 22.152 C-7.871 19.061 -7.871 19.061 -8 16 C-8.797 16.736 -9.593 17.472 -10.414 18.23 C-11.484 19.216 -12.555 20.202 -13.625 21.188 C-14.147 21.67 -14.669 22.153 -15.207 22.65 C-15.729 23.131 -16.251 23.611 -16.789 24.105 C-17.26 24.54 -17.732 24.975 -18.217 25.423 C-20 27 -20 27 -23.203 28.994 C-25.274 30.731 -25.927 31.595 -26.414 34.283 C-26.422 37.212 -26.229 40.067 -25.965 42.984 C-25.892 44.072 -25.819 45.16 -25.745 46.281 C-25.505 49.773 -25.223 53.261 -24.938 56.75 C-24.771 59.021 -24.608 61.291 -24.447 63.562 C-24.207 66.962 -23.965 70.362 -23.713 73.76 C-23.127 81.779 -22.663 89.796 -22.316 97.828 C-22.244 99.383 -22.244 99.383 -22.169 100.97 C-21.978 105.799 -21.927 110.247 -23 115 C-23.66 115 -24.32 115 -25 115 C-27 89 -29 63 -31 37 C-31.619 37.495 -32.238 37.99 -32.875 38.5 C-35 40 -35 40 -37 40 C-37 40.66 -37 41.32 -37 42 C-37.619 42.289 -38.238 42.577 -38.875 42.875 C-41.133 43.937 -41.133 43.937 -43 46 C-45.277 46.555 -45.277 46.555 -47.938 46.875 C-48.813 46.996 -49.688 47.117 -50.59 47.242 C-53 47 -53 47 -54.82 45.23 C-56 43 -56 43 -55.938 39.438 C-55.597 35.935 -55.597 35.935 -58 34.062 C-58.99 33.537 -58.99 33.537 -60 33 C-58.268 32.505 -58.268 32.505 -56.5 32 C-43.454 27.57 -31.906 20.259 -20.45 12.749 C-19.555 12.164 -18.66 11.579 -17.738 10.977 C-16.945 10.451 -16.151 9.926 -15.333 9.385 C-12.954 7.973 -10.592 6.957 -8 6 C-10.764 8.898 -13.603 11.26 -16.875 13.562 C-20.112 15.87 -23.294 18.208 -26.375 20.719 C-33.883 26.83 -41.277 31.755 -50 36 C-50 37.32 -50 38.64 -50 40 C-44.22 38.504 -39.943 35.504 -35.125 32.125 C-34.297 31.551 -33.47 30.978 -32.617 30.387 C-22.848 23.574 -13.265 16.486 -4 9 C-3.316 20.784 -5.332 32.369 -7 44 C-4.41 42.904 -4.41 42.904 -2 41 C-1.425 38.425 -1.425 38.425 -1.75 35.375 C-2.017 28.14 -1.857 20.984 -1.562 13.75 C-1.523 12.63 -1.483 11.511 -1.442 10.357 C-1.401 9.306 -1.359 8.255 -1.316 7.172 C-1.28 6.224 -1.243 5.276 -1.205 4.3 C-1 2 -1 2 0 0 Z " fill="#000000" transform="translate(190,423)"/>
<path d="M0 0 C11.059 -0.725 19.708 2.777 28 10 C33.915 15.398 38.439 21.148 42.75 27.875 C43.966 29.734 45.182 31.594 46.398 33.453 C47 34.381 47.602 35.308 48.222 36.264 C50.912 40.403 53.639 44.516 56.375 48.625 C56.871 49.371 57.367 50.117 57.877 50.885 C61.134 55.764 64.528 60.52 68.008 65.242 C92 98.455 92 98.455 92 109 C90.515 109.495 90.515 109.495 89 110 C87.825 108.235 86.66 106.463 85.5 104.688 C84.525 103.208 84.525 103.208 83.531 101.699 C82 99 82 99 82 96 C81.203 96.307 80.407 96.614 79.586 96.93 C75.268 98.218 71.096 98.69 66.625 99.125 C65.794 99.211 64.962 99.298 64.105 99.387 C62.071 99.597 60.036 99.799 58 100 C58.495 98.515 58.495 98.515 59 97 C64.985 94.263 71.454 92.595 78 92 C74.176 86.114 70.172 80.359 66.125 74.625 C65.597 73.877 65.07 73.13 64.526 72.359 C61.732 68.41 58.895 64.501 56 60.625 C51.897 55.024 48.258 49.15 44.571 43.272 C27.878 16.019 27.878 16.019 0 2 C0 1.34 0 0.68 0 0 Z " fill="#000000" transform="translate(246,432)"/>
<path d="M0 0 C0 4.299 -2.427 6.787 -4.875 10.125 C-5.335 10.771 -5.795 11.417 -6.27 12.082 C-9.728 16.864 -9.728 16.864 -12 18 C-10.469 13.328 -7.892 9.978 -4.875 6.188 C-4.407 5.59 -3.939 4.993 -3.457 4.377 C-2.31 2.914 -1.156 1.456 0 0 Z " fill="#000000" transform="translate(525,432)"/>
<path d="M0 0 C16.978 2.411 34.375 17.243 44.754 30.188 C48.43 35.188 51.486 40.489 54.438 45.938 C54.792 46.589 55.146 47.24 55.512 47.91 C57.038 50.806 58 52.679 58 56 C57.34 56 56.68 56 56 56 C56 56.66 56 57.32 56 58 C52.549 56.598 51.215 55.218 49.449 51.965 C49.002 51.16 48.555 50.355 48.094 49.526 C47.63 48.672 47.166 47.817 46.688 46.938 C42.895 40.202 39.24 33.733 34 28 C33.153 27.073 32.306 26.146 31.434 25.191 C22.238 15.452 11.713 7.479 0 1 C0 0.67 0 0.34 0 0 Z " fill="#000000" transform="translate(288,434)"/>
<path d="M0 0 C11.969 3.653 22.324 10.023 31 19 C31.645 19.659 32.289 20.317 32.953 20.996 C38.575 27.07 44.55 34.449 45 43 C40.285 41.615 38.52 39.481 35.75 35.5 C32.123 30.419 28.232 25.768 23.988 21.18 C22.379 19.416 20.897 17.635 19.438 15.75 C14.449 10.122 7.973 6.245 1.688 2.199 C1.131 1.803 0.574 1.408 0 1 C0 0.67 0 0.34 0 0 Z " fill="#000000" transform="translate(304,435)"/>
<path d="M0 0 C0.33 0 0.66 0 1 0 C1.11 0.746 1.219 1.493 1.332 2.262 C3.81 18.82 6.959 34.931 11.496 51.057 C11.835 52.287 12.174 53.518 12.523 54.785 C12.832 55.867 13.141 56.948 13.458 58.063 C14.017 61.094 13.826 63.056 13 66 C10.589 65.048 9.275 64.512 8.026 62.188 C6.346 56.506 5.005 50.828 3.938 45 C3.768 44.086 3.599 43.171 3.425 42.229 C0.867 28.061 -0.324 14.397 0 0 Z " fill="#000000" transform="translate(592,437)"/>
<path d="M0 0 C0 3.357 -0.485 4.08 -2.336 6.758 C-2.823 7.466 -3.31 8.173 -3.812 8.902 C-4.586 10.003 -4.586 10.003 -5.375 11.125 C-6.137 12.237 -6.137 12.237 -6.914 13.371 C-10.731 18.866 -10.731 18.866 -13 20 C-11.4 15.037 -8.475 11.298 -5.375 7.188 C-4.602 6.148 -4.602 6.148 -3.812 5.088 C-2.547 3.388 -1.274 1.694 0 0 Z " fill="#000000" transform="translate(512,450)"/>
<path d="M0 0 C2.931 2.931 3.129 6.471 3.91 10.41 C4.083 11.252 4.255 12.093 4.432 12.96 C4.797 14.746 5.157 16.532 5.514 18.319 C6.056 21.029 6.61 23.736 7.166 26.443 C7.519 28.182 7.871 29.921 8.223 31.66 C8.468 32.861 8.468 32.861 8.718 34.085 C9.497 38.007 10.19 41.935 10.736 45.896 C10.836 46.612 10.936 47.329 11.039 48.067 C11 50 11 50 9 53 C6 51 6 51 5.156 47.266 C4.922 45.596 4.705 43.924 4.5 42.25 C4.38 41.35 4.261 40.45 4.137 39.523 C2.45 26.386 1.241 13.185 0 0 Z " fill="#000000" transform="translate(583,452)"/>
<path d="M0 0 C0.33 0.66 0.66 1.32 1 2 C-0.732 4.233 -2.467 6.465 -4.207 8.691 C-5.472 10.32 -6.713 11.966 -7.938 13.625 C-11.999 18.302 -16.894 22.49 -22 26 C-22.66 26 -23.32 26 -24 26 C-22.647 22.893 -21.248 21.125 -18.625 19 C-14.779 15.748 -11.185 12.307 -7.625 8.75 C-7.101 8.231 -6.577 7.711 -6.038 7.176 C-3.746 4.876 -1.807 2.711 0 0 Z " fill="#000000" transform="translate(718,453)"/>
<path d="M0 0 C0 4.355 -2.631 6.501 -5.375 9.625 C-5.915 10.247 -6.455 10.868 -7.011 11.509 C-18.883 24.961 -18.883 24.961 -25 27 C-23.63 23.835 -22.162 22.046 -19.5 19.875 C-12.403 13.864 -5.767 7.305 0 0 Z " fill="#000000" transform="translate(718,463)"/>
<path d="M0 0 C2.923 4.385 3.531 9.078 4.625 14.188 C4.854 15.204 5.084 16.22 5.32 17.268 C6.558 22.976 7.266 28.161 7 34 C5.68 34 4.36 34 3 34 C2.495 29.459 1.997 24.917 1.5 20.375 C1.285 18.447 1.285 18.447 1.066 16.48 C0.931 15.237 0.796 13.993 0.656 12.711 C0.531 11.569 0.405 10.428 0.275 9.251 C0.013 6.149 -0.049 3.112 0 0 Z " fill="#000000" transform="translate(576,478)"/>
<path d="M0 0 C0 3 0 3 -1.695 5.094 C-9.945 13.264 -18.864 21.238 -29 27 C-27.438 22.821 -24.356 20.485 -21 17.75 C-20.421 17.269 -19.843 16.788 -19.246 16.293 C-14.924 12.714 -10.544 9.207 -6.121 5.754 C-3.941 3.952 -1.967 2.03 0 0 Z " fill="#000000" transform="translate(716,478)"/>
<path d="M0 0 C2.243 6.728 -3.036 16.122 -6.023 22.348 C-14.683 39.575 -26.913 53.617 -41 66.688 C-41.825 67.454 -42.65 68.221 -43.5 69.012 C-45.954 70.963 -48.044 72.013 -51 73 C-51 73.66 -51 74.32 -51 75 C-52.844 76.286 -54.755 77.477 -56.688 78.625 C-57.903 79.35 -59.118 80.075 -60.332 80.801 C-60.952 81.169 -61.571 81.537 -62.209 81.917 C-63.809 82.885 -65.382 83.898 -66.949 84.918 C-77.413 91.694 -88.685 96.819 -100 102 C-100.713 102.328 -101.427 102.655 -102.162 102.993 C-111.411 107.196 -111.411 107.196 -115 106 C-114.063 105.552 -113.126 105.104 -112.161 104.642 C-108.625 102.95 -105.092 101.25 -101.56 99.549 C-100.042 98.819 -98.524 98.09 -97.004 97.364 C-75.28 86.975 -53.041 74.778 -36.246 57.16 C-35 56 -35 56 -33 56 C-32.765 55.442 -32.531 54.884 -32.289 54.309 C-30.686 51.438 -28.666 49.421 -26.375 47.062 C-16.017 35.853 -9.481 22.216 -4.054 8.088 C-2.909 5.129 -1.771 2.656 0 0 Z " fill="#000000" transform="translate(768,484)"/>
<path d="M0 0 C-0.33 0.99 -0.66 1.98 -1 3 C-3.801 4.168 -3.801 4.168 -7.312 5.188 C-9.039 5.704 -9.039 5.704 -10.801 6.23 C-14 7 -14 7 -18 7 C-18 6.34 -18 5.68 -18 5 C-15.942 4.156 -13.878 3.325 -11.812 2.5 C-10.664 2.036 -9.515 1.572 -8.332 1.094 C-5.28 0.092 -3.169 -0.239 0 0 Z " fill="#000000" transform="translate(296,489)"/>
<path d="M0 0 C4.575 6.862 4.313 15.989 4 24 C3.01 23.67 2.02 23.34 1 23 C0.67 15.41 0.34 7.82 0 0 Z " fill="#000000" transform="translate(570,490)"/>
<path d="M0 0 C1.056 3.206 0.946 5.03 -0.152 8.203 C-0.43 9.011 -0.708 9.818 -0.994 10.651 C-1.306 11.508 -1.617 12.366 -1.938 13.25 C-2.255 14.138 -2.572 15.026 -2.898 15.941 C-5.741 23.691 -9.177 31.018 -13.079 38.284 C-13.92 39.852 -14.741 41.431 -15.559 43.012 C-21.013 53.373 -27.648 62.902 -35 72 C-35.66 71.67 -36.32 71.34 -37 71 C-36.466 70.28 -36.466 70.28 -35.921 69.545 C-20.027 47.93 -8.365 25.465 0 0 Z " fill="#000000" transform="translate(513,493)"/>
<path d="M0 0 C1.503 3.92 0.456 6.694 -0.73 10.617 C-1.124 11.95 -1.517 13.283 -1.91 14.617 C-2.119 15.312 -2.328 16.008 -2.543 16.725 C-6.002 28.266 -9.033 39.693 -10.858 51.625 C-11.823 57.823 -11.823 57.823 -14 60 C-12.445 39.566 -6.523 19.357 0 0 Z " fill="#000000" transform="translate(543,493)"/>
<path d="M0 0 C0.33 0.66 0.66 1.32 1 2 C0.01 3.485 0.01 3.485 -1 5 C-3.922 5.545 -6.678 5.927 -9.625 6.188 C-10.427 6.269 -11.229 6.351 -12.055 6.436 C-14.035 6.636 -16.018 6.82 -18 7 C-17.67 6.01 -17.34 5.02 -17 4 C-14.453 2.832 -14.453 2.832 -11.25 1.812 C-10.203 1.468 -9.157 1.124 -8.078 0.77 C-5.229 0.057 -2.917 -0.157 0 0 Z " fill="#000000" transform="translate(302,496)"/>
<path d="M0 0 C0.99 0.66 1.98 1.32 3 2 C3 2.66 3 3.32 3 4 C2.34 4 1.68 4 1 4 C1 4.66 1 5.32 1 6 C0.34 6 -0.32 6 -1 6 C-1 6.66 -1 7.32 -1 8 C-3.02 9.48 -3.02 9.48 -5.812 11.188 C-6.814 11.805 -7.816 12.422 -8.848 13.059 C-10.408 14.02 -10.408 14.02 -12 15 C-13.918 16.249 -15.834 17.499 -17.75 18.75 C-28.189 25.362 -28.189 25.362 -32.191 24.562 C-32.788 24.377 -33.385 24.191 -34 24 C-22.836 15.739 -11.57 7.685 0 0 Z " fill="#000000" transform="translate(710,496)"/>
<path d="M0 0 C2 1 2 1 2.621 2.641 C3.113 5.703 3.094 8.65 3.062 11.75 C3.053 12.92 3.044 14.091 3.035 15.297 C3.024 16.189 3.012 17.081 3 18 C2.01 18.33 1.02 18.66 0 19 C0 12.73 0 6.46 0 0 Z " fill="#000000" transform="translate(563,499)"/>
<path d="M0 0 C-0.33 1.32 -0.66 2.64 -1 4 C-6.61 4.99 -12.22 5.98 -18 7 C-17 4 -17 4 -14.961 2.832 C-9.717 0.765 -5.641 -0.491 0 0 Z " fill="#000000" transform="translate(309,505)"/>
<path d="M0 0 C2 2 2 2 2.125 5.625 C2.084 6.739 2.043 7.852 2 9 C1.01 9.495 1.01 9.495 0 10 C0 6.7 0 3.4 0 0 Z " fill="#000000" transform="translate(556,508)"/>
<path d="M0 0 C0.66 0 1.32 0 2 0 C2.108 2.082 2.186 4.166 2.25 6.25 C2.296 7.41 2.343 8.57 2.391 9.766 C1.93 13.577 0.949 14.655 -2 17 C-2.33 16.67 -2.66 16.34 -3 16 C-2.864 10.432 -2.051 5.196 0 0 Z " fill="#000000" transform="translate(618,509)"/>
<path d="M0 0 C-0.566 7.812 -2.545 14.879 -4.75 22.375 C-8.022 33.767 -10.539 45.07 -12.452 56.783 C-12.63 57.85 -12.809 58.916 -12.992 60.016 C-13.14 60.957 -13.288 61.898 -13.441 62.868 C-13.625 63.572 -13.81 64.275 -14 65 C-14.99 65.495 -14.99 65.495 -16 66 C-14.218 43.666 -7.787 22.259 -1 1 C-16.15 6.314 -31.25 11.637 -46 18 C-46 17.01 -46 16.02 -46 15 C-22.024 5.182 -22.024 5.182 -10.625 1.312 C-9.89 1.057 -9.155 0.802 -8.397 0.539 C-3.367 -1.122 -3.367 -1.122 0 0 Z " fill="#000000" transform="translate(282,512)"/>
<path d="M0 0 C0.33 1.32 0.66 2.64 1 4 C-2.984 5.846 -6.444 6.36 -10.812 6.625 C-12.555 6.737 -12.555 6.737 -14.332 6.852 C-15.653 6.925 -15.653 6.925 -17 7 C-17 6.01 -17 5.02 -17 4 C-11.196 1.383 -6.451 -0.184 0 0 Z " fill="#000000" transform="translate(316,513)"/>
<path d="M0 0 C0.66 0.33 1.32 0.66 2 1 C1.384 11.939 1.384 11.939 -2 16 C-2.66 16 -3.32 16 -4 16 C-3.476 10.132 -2.239 5.451 0 0 Z " fill="#000000" transform="translate(612,513)"/>
<path d="M0 0 C0.66 0.33 1.32 0.66 2 1 C1.579 6.605 1.084 11.721 -1 17 C-1.99 17 -2.98 17 -4 17 C-2.68 11.39 -1.36 5.78 0 0 Z " fill="#000000" transform="translate(605,517)"/>
<path d="M0 0 C0.66 0.33 1.32 0.66 2 1 C1.717 2.918 1.423 4.834 1.125 6.75 C0.963 7.817 0.8 8.885 0.633 9.984 C0.068 12.677 -0.634 14.636 -2 17 C-2.66 16.67 -3.32 16.34 -4 16 C-2.984 10.531 -1.929 5.236 0 0 Z " fill="#000000" transform="translate(598,522)"/>
<path d="M0 0 C0.33 0 0.66 0 1 0 C1.21 5.768 1.116 11.547 -1 17 C-1.99 17.66 -2.98 18.32 -4 19 C-3.591 12.238 -2.43 6.328 0 0 Z " fill="#000000" transform="translate(590,525)"/>
<path d="M0 0 C0.33 0 0.66 0 1 0 C1.208 5.715 1.2 11.623 -1 17 C-1.99 17.33 -2.98 17.66 -4 18 C-3.312 11.808 -1.72 5.98 0 0 Z " fill="#000000" transform="translate(582,530)"/>
<path d="M0 0 C-0.33 1.32 -0.66 2.64 -1 4 C-5.156 5.009 -9.044 5.102 -13.312 5.062 C-14.567 5.053 -15.821 5.044 -17.113 5.035 C-18.066 5.024 -19.019 5.012 -20 5 C-20 4.34 -20 3.68 -20 3 C-12.723 0.163 -7.882 -1.391 0 0 Z " fill="#000000" transform="translate(329,535)"/>
<path d="M0 0 C0.33 0 0.66 0 1 0 C1.31 6.5 0.888 12.066 -2 18 C-2.66 18.33 -3.32 18.66 -4 19 C-3.46 12.31 -2.113 6.365 0 0 Z " fill="#000000" transform="translate(574,535)"/>
<path d="M0 0 C0.66 0 1.32 0 2 0 C1.717 2.418 1.424 4.834 1.125 7.25 C1.046 7.932 0.968 8.614 0.887 9.316 C0.434 12.907 -0.094 15.893 -2 19 C-2.66 19 -3.32 19 -4 19 C-3.38 12.425 -1.851 6.333 0 0 Z " fill="#000000" transform="translate(565,540)"/>
<path d="M0 0 C0.66 0.33 1.32 0.66 2 1 C1.743 3.21 1.469 5.418 1.188 7.625 C1.037 8.855 0.886 10.085 0.73 11.352 C-0.004 15.02 -1.176 17.752 -3 21 C-3.66 21 -4.32 21 -5 21 C-4.39 16.012 -3.365 11.398 -1.938 6.562 C-1.575 5.326 -1.213 4.09 -0.84 2.816 C-0.563 1.887 -0.286 0.958 0 0 Z " fill="#000000" transform="translate(557,544)"/>
<path d="M0 0 C0.33 0 0.66 0 1 0 C1.393 6.977 0.631 12.517 -2 19 C-2.99 19 -3.98 19 -5 19 C-4.484 12.16 -2.514 6.361 0 0 Z " fill="#000000" transform="translate(547,552)"/>
<path d="M0 0 C0 3 0 3 -1.617 4.797 C-7.172 9.602 -12.859 13.97 -19 18 C-20.093 18.719 -21.186 19.439 -22.312 20.18 C-23.457 20.913 -24.603 21.645 -25.75 22.375 C-26.797 23.043 -27.843 23.71 -28.922 24.398 C-32.041 26.021 -34.524 26.636 -38 27 C-36.659 22.976 -34.173 22.185 -30.625 20.312 C-25.021 17.239 -19.872 13.876 -14.754 10.031 C-9.964 6.498 -4.975 3.265 0 0 Z " fill="#000000" transform="translate(241,555)"/>
<path d="M0 0 C0.33 0 0.66 0 1 0 C1.428 6.415 -0.143 11.886 -2 18 C-3.32 18 -4.64 18 -6 18 C-5.413 13.51 -4.236 9.775 -2.438 5.625 C-1.982 4.565 -1.527 3.506 -1.059 2.414 C-0.709 1.617 -0.36 0.821 0 0 Z " fill="#000000" transform="translate(534,561)"/>
<path d="M0 0 C0.33 0 0.66 0 1 0 C0.221 14.781 0.221 14.781 -2 21 C-2.99 21 -3.98 21 -5 21 C-3.571 3.571 -3.571 3.571 0 0 Z " fill="#000000" transform="translate(523,566)"/>
<path d="M0 0 C0.33 0 0.66 0 1 0 C1.205 8 1.135 15.261 -1 23 C-2.32 23 -3.64 23 -5 23 C-4.355 15.093 -2.13 7.609 0 0 Z " fill="#000000" transform="translate(513,569)"/>
<path d="M0 0 C-3.752 1.96 -7.506 3.917 -11.261 5.872 C-12.537 6.536 -13.812 7.201 -15.087 7.868 C-16.925 8.828 -18.765 9.785 -20.605 10.742 C-21.71 11.318 -22.815 11.894 -23.954 12.488 C-28.505 14.747 -31.869 16.293 -37 16 C-34.653 12.48 -33.1 11.877 -29.293 10.152 C-28.149 9.63 -27.005 9.107 -25.826 8.568 C-24.625 8.03 -23.425 7.492 -22.188 6.938 C-20.998 6.395 -19.809 5.853 -18.584 5.295 C-15.396 3.847 -12.207 2.406 -9 1 C-8.132 0.593 -7.263 0.187 -6.368 -0.232 C-3.752 -1.08 -2.543 -0.942 0 0 Z " fill="#000000" transform="translate(240,573)"/>
<path d="M0 0 C0.66 0 1.32 0 2 0 C1.64 8.502 1.238 17.022 -2 25 C-2.66 25.33 -3.32 25.66 -4 26 C-4.66 25.67 -5.32 25.34 -6 25 C-5.414 19.071 -4.196 13.684 -2.438 8 C-2.204 7.225 -1.97 6.451 -1.729 5.652 C-1.158 3.766 -0.58 1.883 0 0 Z " fill="#000000" transform="translate(504,573)"/>
<path d="M0 0 C0.33 0 0.66 0 1 0 C2.991 9.126 0.359 17.18 -2 26 C-3.32 26 -4.64 26 -6 26 C-7.2 22.4 -6.688 21.238 -5.566 17.676 C-5.247 16.648 -4.928 15.62 -4.6 14.561 C-4.257 13.489 -3.915 12.417 -3.562 11.312 C-3.224 10.229 -2.886 9.146 -2.537 8.029 C-1.699 5.35 -0.853 2.674 0 0 Z " fill="#000000" transform="translate(492,579)"/>
<path d="M0 0 C-6.57 3.482 -12.669 6.59 -20 8 C-20 7.34 -20 6.68 -20 6 C-17.047 4.8 -14.087 3.617 -11.125 2.438 C-10.283 2.095 -9.441 1.753 -8.574 1.4 C-7.769 1.081 -6.963 0.762 -6.133 0.434 C-5.389 0.135 -4.646 -0.163 -3.879 -0.471 C-2 -1 -2 -1 0 0 Z " fill="#000000" transform="translate(237,583)"/>
<path d="M0 0 C-3.408 1.143 -6.821 2.266 -10.242 3.367 C-11.786 3.87 -13.331 4.372 -14.875 4.875 C-15.639 5.119 -16.404 5.362 -17.191 5.613 C-21.126 6.903 -24.775 8.331 -28.445 10.258 C-29.618 10.833 -30.791 11.408 -32 12 C-32.66 11.67 -33.32 11.34 -34 11 C-6.914 -3.457 -6.914 -3.457 0 0 Z " fill="#000000" transform="translate(417,591)"/>
<path d="M0 0 C-1.599 0.699 -3.205 1.384 -4.812 2.062 C-5.706 2.445 -6.599 2.828 -7.52 3.223 C-10 4 -10 4 -13 3 C-11.401 2.301 -9.795 1.616 -8.188 0.938 C-7.294 0.555 -6.401 0.172 -5.48 -0.223 C-3 -1 -3 -1 0 0 Z " fill="#000000" transform="translate(653,592)"/>
<path d="M0 0 C1.938 0.375 1.938 0.375 4 1 C8.831 10.661 3.988 28.111 0.863 37.965 C-0.254 40.6 -1.728 42.277 -4 44 C-4.66 43.67 -5.32 43.34 -6 43 C-5.834 42.112 -5.834 42.112 -5.665 41.206 C-3.127 27.501 -1.156 13.891 0 0 Z " fill="#000000" transform="translate(381,612)"/>
<path d="M0 0 C0.66 0 1.32 0 2 0 C6.012 8.024 2.238 20.892 0 29 C-1.142 31.629 -2.34 33.653 -4 36 C-4.66 35.67 -5.32 35.34 -6 35 C-5.475 30.818 -4.942 26.637 -4.401 22.457 C-4.218 21.037 -4.038 19.616 -3.86 18.195 C-3.603 16.146 -3.337 14.098 -3.07 12.051 C-2.835 10.205 -2.835 10.205 -2.594 8.322 C-2.052 5.29 -1.267 2.795 0 0 Z " fill="#000000" transform="translate(392,613)"/>
<path d="M0 0 C-0.988 0.489 -1.976 0.978 -2.994 1.481 C-6.694 3.313 -10.391 5.15 -14.087 6.989 C-15.681 7.78 -17.275 8.571 -18.87 9.36 C-21.176 10.5 -23.479 11.646 -25.781 12.793 C-26.484 13.139 -27.186 13.485 -27.91 13.842 C-32.259 16.016 -36.318 18.42 -40.344 21.152 C-41.164 21.572 -41.164 21.572 -42 22 C-42.66 21.67 -43.32 21.34 -44 21 C-35.614 15.658 -27.12 10.793 -18.221 6.36 C-16.335 5.418 -14.459 4.458 -12.582 3.498 C-11.376 2.892 -10.169 2.287 -8.961 1.684 C-7.886 1.143 -6.812 0.602 -5.705 0.045 C-3 -1 -3 -1 0 0 Z " fill="#000000" transform="translate(548,616)"/>
<path d="M0 0 C0.99 0 1.98 0 3 0 C3.497 9.942 1.279 19.034 -3 28 C-3.99 27.67 -4.98 27.34 -6 27 C-5.438 20.542 -4.263 14.649 -2.438 8.438 C-2.204 7.62 -1.97 6.802 -1.729 5.959 C-1.159 3.971 -0.58 1.985 0 0 Z " fill="#000000" transform="translate(401,616)"/>
<path d="M0 0 C0.99 0 1.98 0 3 0 C3.585 6.578 1.715 12.025 -1 18 C-1.66 18.66 -2.32 19.32 -3 20 C-3.99 20 -4.98 20 -6 20 C-5.501 12.848 -2.684 6.587 0 0 Z " fill="#000000" transform="translate(411,619)"/>
<path d="M0 0 C0.66 0 1.32 0 2 0 C1.34 1.65 0.68 3.3 0 5 C-0.66 5 -1.32 5 -2 5 C-2.329 5.801 -2.329 5.801 -2.664 6.617 C-4.474 9.846 -6.87 12.43 -9.375 15.125 C-9.9 15.692 -10.425 16.259 -10.966 16.843 C-16.201 22.384 -21.81 27.534 -28 32 C-28.66 32 -29.32 32 -30 32 C-30 32.66 -30 33.32 -30 34 C-30.959 34.433 -30.959 34.433 -31.938 34.875 C-34.152 35.828 -34.152 35.828 -35 38 C-36.302 38.802 -37.643 39.543 -39 40.25 C-42.378 42.06 -45.54 44.002 -48.688 46.188 C-52.016 48.459 -55.057 49.989 -59 51 C-59 51.66 -59 52.32 -59 53 C-114.305 79.095 -172.674 89.933 -232.688 99.375 C-233.738 99.543 -234.789 99.711 -235.872 99.884 C-240.979 100.666 -245.833 101.188 -251 101 C-247.445 97.445 -242.121 97.296 -237.312 96.312 C-236.06 96.053 -234.808 95.794 -233.518 95.527 C-220.213 92.846 -206.787 90.986 -193.357 89.058 C-178.045 86.851 -162.965 84.263 -147.905 80.686 C-145.839 80.198 -143.769 79.727 -141.696 79.268 C-135.305 77.844 -129.172 76.171 -123 74 C-120.874 73.3 -118.748 72.602 -116.621 71.906 C-100.57 66.565 -85.185 60.518 -70 53 C-69.196 52.604 -68.392 52.209 -67.564 51.801 C-53.672 44.895 -41.069 36.364 -28.566 27.223 C-25.805 25.217 -23.12 23.397 -20 22 C-20 21.34 -20 20.68 -20 20 C-18.299 18.766 -16.594 17.537 -14.863 16.344 C-9.421 12.419 -3.036 6.073 0 0 Z " fill="#000000" transform="translate(724,627)"/>
<path d="M0 0 C-0.688 1.938 -0.688 1.938 -2 4 C-4.625 4.75 -4.625 4.75 -7 5 C-5.227 1.074 -4.52 0 0 0 Z " fill="#000000" transform="translate(348,628)"/>
<path d="M0 0 C-2.766 2.766 -6.076 3.645 -9.688 4.938 C-11.088 5.445 -12.488 5.954 -13.887 6.465 C-14.918 6.84 -14.918 6.84 -15.97 7.222 C-17.941 7.977 -19.849 8.818 -21.77 9.691 C-25 11 -25 11 -29 11 C-28.014 8.403 -27.433 7.23 -24.94 5.903 C-24.109 5.631 -23.278 5.359 -22.422 5.078 C-21.508 4.775 -20.594 4.472 -19.652 4.16 C-18.216 3.71 -18.216 3.71 -16.75 3.25 C-15.808 2.934 -14.865 2.618 -13.895 2.293 C-9.152 0.757 -5.049 -0.441 0 0 Z " fill="#000000" transform="translate(298,629)"/>
<path d="M0 0 C-0.216 1.863 -0.216 1.863 -1 4 C-2.948 5.198 -2.948 5.198 -5.547 6.191 C-6.523 6.573 -7.499 6.955 -8.504 7.348 C-9.575 7.749 -10.646 8.15 -11.75 8.562 C-12.856 8.991 -13.962 9.419 -15.101 9.861 C-18.727 11.259 -22.362 12.634 -26 14 C-27.261 14.474 -28.523 14.949 -29.784 15.423 C-30.411 15.659 -31.039 15.894 -31.685 16.137 C-34.208 17.085 -36.73 18.034 -39.253 18.984 C-41.116 19.684 -42.98 20.381 -44.844 21.077 C-52.568 23.989 -60.021 27.155 -67.348 30.953 C-70.163 32.064 -71.245 32.136 -74 31 C-57.678 20.301 -39 13.305 -21 6 C-19.628 5.437 -19.628 5.437 -18.229 4.863 C-15.719 3.835 -13.205 2.821 -10.688 1.812 C-9.947 1.509 -9.206 1.205 -8.443 0.892 C-3.347 -1.116 -3.347 -1.116 0 0 Z " fill="#000000" transform="translate(543,629)"/>
<path d="M0 0 C1.729 0.142 3.459 0.289 5.188 0.438 C6.632 0.559 6.632 0.559 8.105 0.684 C10.786 0.977 13.366 1.427 16 2 C16 2.33 16 2.66 16 3 C14.083 2.885 12.166 2.758 10.25 2.625 C9.183 2.555 8.115 2.486 7.016 2.414 C4.198 2.027 2.417 1.443 0 0 Z " fill="#000000" transform="translate(88,649)"/>
<path d="M0 0 C8.52 1.505 16.804 3.788 25.125 6.125 C26.476 6.502 27.828 6.878 29.18 7.254 C32.454 8.166 35.727 9.081 39 10 C35.082 11.488 32.177 10.494 28.223 9.418 C27.574 9.244 26.926 9.069 26.258 8.89 C24.889 8.52 23.522 8.146 22.156 7.767 C20.076 7.191 17.992 6.629 15.908 6.068 C4.926 3.087 4.926 3.087 0 1 C0 0.67 0 0.34 0 0 Z " fill="#000000" transform="translate(74,654)"/>
<path d="M0 0 C7.92 0 15.84 0 24 0 C24 0.33 24 0.66 24 1 C16.08 1 8.16 1 0 1 C0 0.67 0 0.34 0 0 Z " fill="#000000" transform="translate(119,674)"/>
<path d="M0 0 C7.92 0 15.84 0 24 0 C24 0.33 24 0.66 24 1 C16.08 1 8.16 1 0 1 C0 0.67 0 0.34 0 0 Z " fill="#000000" transform="translate(154,674)"/>
<path d="M0 0 C0 0.99 0 1.98 0 3 C-1.645 4.387 -1.645 4.387 -3.812 5.688 C-4.874 6.343 -4.874 6.343 -5.957 7.012 C-8 8 -8 8 -11 8 C-11.33 8.66 -11.66 9.32 -12 10 C-13.648 10.513 -15.301 11.015 -16.971 11.451 C-18.99 11.997 -20.944 12.641 -22.918 13.332 C-31.076 16.168 -39.245 18.709 -47.625 20.812 C-48.441 21.019 -49.257 21.226 -50.098 21.439 C-53.799 22.343 -57.422 23.098 -61.211 23.512 C-64.758 23.969 -67.638 24.834 -71 26 C-83.271 28.642 -95.716 30.701 -108.227 31.723 C-111.137 32.014 -113.99 32.459 -116.875 32.938 C-125.263 34.273 -133.699 34.996 -142.156 35.746 C-145.002 36 -147.847 36.267 -150.691 36.535 C-176.814 38.964 -202.787 39.129 -229 39 C-229 38.67 -229 38.34 -229 38 C-228.305 37.985 -227.61 37.971 -226.893 37.956 C-195.383 37.232 -164.222 34.21 -133 30 C-131.537 29.807 -131.537 29.807 -130.044 29.61 C-106.463 26.488 -83.119 22.323 -60 16.719 C-57.119 16.029 -54.234 15.368 -51.344 14.719 C-40.689 12.304 -30.382 9.357 -20.079 5.725 C-17.066 4.674 -14.037 3.673 -11.008 2.671 C-9.208 2.069 -7.416 1.443 -5.625 0.812 C-3 0 -3 0 0 0 Z " fill="#000000" transform="translate(417,680)"/>
<path d="M0 0 C5.28 0 10.56 0 16 0 C16 0.33 16 0.66 16 1 C10.72 1 5.44 1 0 1 C0 0.67 0 0.34 0 0 Z " fill="#000000" transform="translate(205,691)"/>
<path d="M0 0 C0.655 -0 1.309 -0 1.983 -0 C4.121 0 6.258 0.008 8.395 0.016 C9.887 0.018 11.379 0.019 12.871 0.02 C16.779 0.024 20.687 0.034 24.594 0.045 C28.59 0.055 32.585 0.06 36.58 0.065 C44.405 0.075 52.23 0.092 60.055 0.114 C60.055 0.444 60.055 0.774 60.055 1.114 C52.891 1.259 45.728 1.401 38.564 1.541 C36.137 1.589 33.71 1.637 31.283 1.686 C16.205 1.992 1.137 2.187 -13.945 2.114 C-13.945 1.784 -13.945 1.454 -13.945 1.114 C-9.248 0.358 -4.755 -0.009 0 0 Z " fill="#000000" transform="translate(140.945068359375,691.886474609375)"/>
<path d="M0 0 C2.784 0.879 5.522 1.793 8.203 2.953 C14.727 5.773 20.958 7.137 28 8 C28.865 8.112 29.73 8.224 30.621 8.34 C52.473 10.655 75.04 8.739 96.968 8.073 C103.357 7.879 109.747 7.692 116.137 7.504 C118.34 7.439 120.542 7.372 122.745 7.305 C141.987 6.725 141.987 6.725 147 8 C148.754 7.911 150.505 7.756 152.25 7.562 C162.805 6.617 173.413 6.916 184 7 C184 7.33 184 7.66 184 8 C176.417 8.51 168.834 9.014 161.251 9.513 C157.726 9.745 154.202 9.978 150.677 10.216 C123.82 12.023 96.993 13.187 70.066 13.185 C66.838 13.188 63.611 13.206 60.383 13.225 C14.364 13.35 14.364 13.35 0 1 C0 0.67 0 0.34 0 0 Z " fill="#000000" transform="translate(80,687)"/>
<path d="M0 0 C0 0.33 0 0.66 0 1 C-5.899 2.089 -11.799 3.173 -17.7 4.253 C-19.698 4.62 -21.695 4.987 -23.692 5.356 C-34.094 7.275 -44.5 9.144 -54.953 10.762 C-55.75 10.889 -56.547 11.016 -57.368 11.146 C-62.301 11.888 -67.012 12.112 -72 12 C-69.174 10.445 -66.764 9.643 -63.577 9.178 C-62.708 9.048 -61.839 8.917 -60.944 8.783 C-60.008 8.65 -59.073 8.516 -58.109 8.379 C-56.643 8.161 -56.643 8.161 -55.148 7.938 C-52.016 7.473 -48.883 7.017 -45.75 6.562 C-41.661 5.964 -37.572 5.36 -33.484 4.754 C-32.493 4.608 -31.502 4.462 -30.481 4.311 C-23.361 3.245 -16.304 1.977 -9.251 0.531 C-6.101 0.017 -3.185 -0.099 0 0 Z " fill="#000000" transform="translate(534,703)"/>
<path d="M0 0 C-39.563 10.457 -83.086 18.806 -124 14 C-124 13.67 -124 13.34 -124 13 C-123.338 13.01 -122.676 13.021 -121.994 13.032 C-84.216 13.545 -42.363 10.361 -5.879 -0.64 C-3.64 -1.069 -2.15 -0.691 0 0 Z " fill="#000000" transform="translate(558,707)"/>
<path d="M0 0 C0 0.33 0 0.66 0 1 C-8.415 1.495 -8.415 1.495 -17 2 C-17 1.67 -17 1.34 -17 1 C-11.334 -0.225 -5.763 -0.092 0 0 Z " fill="#000000" transform="translate(207,707)"/>
<path d="M0 0 C-23.139 12.616 -49.978 19.444 -75.598 25.012 C-78.229 25.586 -80.774 26.223 -83.367 26.969 C-101.33 32.068 -119.456 33.934 -138.053 34.782 C-141.018 34.954 -141.018 34.954 -143.986 35.512 C-149.593 36.42 -155.269 36.191 -160.938 36.188 C-161.952 36.187 -161.952 36.187 -162.987 36.187 C-182.657 36.151 -202.301 35.057 -221.812 32.5 C-222.726 32.382 -223.639 32.263 -224.58 32.141 C-230.746 31.254 -230.746 31.254 -233 29 C-231.802 29.091 -231.802 29.091 -230.579 29.184 C-210.78 30.68 -210.78 30.68 -190.938 31.25 C-189.675 31.264 -189.675 31.264 -188.386 31.277 C-187.608 31.273 -186.829 31.27 -186.027 31.266 C-185.033 31.262 -185.033 31.262 -184.019 31.259 C-181.901 31.076 -181.901 31.076 -179.687 30.051 C-177.099 29.039 -174.72 28.436 -171.996 27.918 C-170.534 27.638 -170.534 27.638 -169.043 27.351 C-167.995 27.155 -166.947 26.96 -165.867 26.758 C-164.77 26.549 -163.672 26.341 -162.541 26.126 C-158.987 25.453 -155.431 24.788 -151.875 24.125 C-150.674 23.9 -149.473 23.674 -148.236 23.442 C-101.194 14.626 -101.194 14.626 -91 15 C-91 15.33 -91 15.66 -91 16 C-91.62 16.104 -92.239 16.208 -92.878 16.315 C-99.434 17.415 -105.99 18.519 -112.545 19.625 C-114.979 20.036 -117.413 20.445 -119.847 20.853 C-138.866 24.039 -138.866 24.039 -157.774 27.819 C-161.93 28.696 -165.722 29.185 -170 29 C-170 29.66 -170 30.32 -170 31 C-169.459 30.939 -168.917 30.879 -168.36 30.816 C-159.716 29.897 -151.048 29.4 -142.374 28.875 C-134.894 28.419 -127.436 27.95 -120 27 C-119.116 26.893 -118.232 26.786 -117.321 26.675 C-79.406 21.968 -39.004 15.027 -3.855 -0.398 C-2 -1 -2 -1 0 0 Z " fill="#000000" transform="translate(666,710)"/>
<path d="M0 0 C0 0.33 0 0.66 0 1 C-5.38 2.191 -10.453 3.292 -16 3 C-16 2.67 -16 2.34 -16 2 C-10.62 0.809 -5.547 -0.292 0 0 Z " fill="#000000" transform="translate(597,721)"/>
<path d="M0 0 C0 0.33 0 0.66 0 1 C-1.943 1.34 -1.943 1.34 -3.925 1.687 C-8.788 2.539 -13.65 3.395 -18.512 4.253 C-20.605 4.622 -22.699 4.989 -24.793 5.356 C-40.223 8.025 -40.223 8.025 -55.488 11.491 C-58.059 12.012 -60.384 12.094 -63 12 C-59.763 10.183 -56.702 9.379 -53.074 8.633 C-51.306 8.267 -51.306 8.267 -49.502 7.893 C-48.244 7.64 -46.985 7.386 -45.688 7.125 C-44.398 6.863 -43.108 6.6 -41.779 6.33 C-33.578 4.671 -25.363 3.091 -17.125 1.625 C-16.2 1.458 -15.276 1.29 -14.323 1.118 C-9.47 0.28 -4.924 -0.174 0 0 Z " fill="#000000" transform="translate(547,722)"/>
</svg>
