<?xml version="1.0" encoding="UTF-8"?>
<!-- Generator: visioncortex VTracer 0.6.0 -->
<svg version="1.1" xmlns="http://www.w3.org/2000/svg" width="350" height="350">
<path d="M0 0 C0.66 0.33 1.32 0.66 2 1 C-0.519 6.255 -3.046 11.506 -5.581 16.753 C-6.442 18.54 -7.302 20.328 -8.159 22.116 C-9.389 24.683 -10.627 27.246 -11.867 29.809 C-12.251 30.613 -12.634 31.417 -13.029 32.245 C-15.772 37.886 -15.772 37.886 -18 39 C-17.371 34.18 -15.365 30.345 -13.184 26.074 C-12.808 25.327 -12.432 24.579 -12.044 23.809 C-10.848 21.432 -9.643 19.06 -8.438 16.688 C-7.622 15.073 -6.808 13.457 -5.994 11.842 C-4.002 7.891 -2.003 3.945 0 0 Z " fill="#000000" transform="translate(291,82)"/>
<path d="M0 0 C1.182 3.547 0.771 4.264 -0.582 7.633 C-0.937 8.521 -1.292 9.409 -1.658 10.324 C-2.23 11.711 -2.23 11.711 -2.812 13.125 C-3.182 14.057 -3.551 14.989 -3.932 15.949 C-6.737 22.868 -6.737 22.868 -9 24 C-8.383 18.627 -6.593 14.117 -4.5 9.188 C-4.179 8.412 -3.858 7.637 -3.527 6.838 C-1.148 1.148 -1.148 1.148 0 0 Z " fill="#000000" transform="translate(270,86)"/>
<path d="M0 0 C-1.369 2.95 -2.878 5.525 -5 8 C-5.66 8 -6.32 8 -7 8 C-6.444 4.109 -4.341 0 0 0 Z " fill="#000000" transform="translate(103,91)"/>
<path d="M0 0 C0 3.535 -0.721 4.322 -2.75 7.125 C-8.544 15.521 -11.017 23.125 -11.562 33.25 C-11.606 33.995 -11.649 34.74 -11.693 35.508 C-11.799 37.338 -11.9 39.169 -12 41 C-12.66 41 -13.32 41 -14 41 C-14.799 26.201 -11.671 14.172 -3 2 C-2.01 1.34 -1.02 0.68 0 0 Z " fill="#000000" transform="translate(72,96)"/>
<path d="M0 0 C0.66 0.33 1.32 0.66 2 1 C-0.392 4.857 -2.789 8.71 -5.188 12.562 C-5.861 13.649 -6.535 14.735 -7.229 15.854 C-10.663 21.365 -14.14 26.776 -18 32 C-18 28.581 -17.331 27.523 -15.586 24.648 C-14.814 23.37 -14.814 23.37 -14.027 22.066 C-13.482 21.178 -12.937 20.29 -12.375 19.375 C-11.853 18.51 -11.331 17.645 -10.793 16.754 C-7.341 11.069 -3.734 5.504 0 0 Z " fill="#000000" transform="translate(301,101)"/>
<path d="M0 0 C0.66 0 1.32 0 2 0 C1.43 3.646 0.458 6.282 -1.438 9.438 C-5.024 15.421 -6.302 20.941 -6.625 27.875 C-6.664 28.563 -6.702 29.252 -6.742 29.961 C-6.835 31.64 -6.919 33.32 -7 35 C-9.42 32.58 -9.296 31.945 -9.312 28.625 C-9.049 17.866 -5.54 9.107 0 0 Z " fill="#000000" transform="translate(81,102)"/>
<path d="M0 0 C-0.433 0.494 -0.866 0.987 -1.312 1.496 C-1.869 2.137 -2.426 2.777 -3 3.438 C-3.557 4.076 -4.114 4.714 -4.688 5.371 C-6.105 6.781 -6.105 6.781 -6 8 C-5.613 7.555 -5.227 7.111 -4.828 6.652 C-4.307 6.086 -3.787 5.521 -3.25 4.938 C-2.484 4.085 -2.484 4.085 -1.703 3.215 C0 2 0 2 2.094 2.219 C4.283 3.116 5.458 4.227 7 6 C6.67 6.66 6.34 7.32 6 8 C7.32 8 8.64 8 10 8 C10.99 8.66 11.98 9.32 13 10 C11.464 13.681 9.218 15.988 6.375 18.75 C5.558 19.549 4.74 20.348 3.898 21.172 C3.272 21.775 2.645 22.378 2 23 C2.654 22.437 2.654 22.437 3.32 21.863 C7.186 18.541 11.077 15.254 15 12 C19.693 16.693 21.322 22.734 23 29 C23 29.99 23 30.98 23 32 C23.33 32 23.66 32 24 32 C24.195 33.457 24.381 34.916 24.562 36.375 C24.719 37.593 24.719 37.593 24.879 38.836 C25 41 25 41 24 43 C24.66 43 25.32 43 26 43 C27.851 54.157 21.129 62.668 15 71.375 C14.34 72.241 13.68 73.108 13 74 C10.242 72.621 9.776 70.593 8.541 67.885 C4.282 58.593 -0.971 51.361 -8 44 C-8.588 43.382 -9.175 42.764 -9.781 42.127 C-18.725 32.801 -28.086 24.481 -38.387 16.672 C-39.158 16.086 -39.929 15.5 -40.723 14.897 C-42.258 13.735 -43.796 12.578 -45.339 11.427 C-46.043 10.897 -46.747 10.367 -47.473 9.82 C-48.104 9.349 -48.736 8.877 -49.387 8.391 C-51 7 -51 7 -53 4 C-52.67 3.67 -52.34 3.34 -52 3 C-51.86 -1.271 -51.833 -4.88 -53 -9 C-33.557 -14.555 -17.164 -9.17 0 0 Z M-11 10 C-11.99 11.485 -11.99 11.485 -13 13 C-11.68 12.34 -10.36 11.68 -9 11 C-9.66 10.67 -10.32 10.34 -11 10 Z M0.273 11.531 C-0.666 12.506 -0.666 12.506 -1.625 13.5 C-2.257 14.15 -2.888 14.799 -3.539 15.469 C-4.021 15.974 -4.503 16.479 -5 17 C-1.992 17.345 -1.992 17.345 -0.395 15.469 C0.128 14.819 0.65 14.169 1.188 13.5 C1.717 12.85 2.247 12.201 2.793 11.531 C3.191 11.026 3.59 10.521 4 10 C1.865 9.779 1.865 9.779 0.273 11.531 Z M17 18 C14.36 20.64 11.72 23.28 9 26 C11.959 26.316 11.959 26.316 13.605 24.688 C14.128 24.131 14.65 23.574 15.188 23 C15.717 22.443 16.247 21.886 16.793 21.312 C17.191 20.879 17.59 20.446 18 20 C17.67 19.34 17.34 18.68 17 18 Z M-9 20 C-9 20.99 -9 21.98 -9 23 C-8.34 22.01 -7.68 21.02 -7 20 C-7.66 20 -8.32 20 -9 20 Z M-2 25 C-3.637 26.96 -3.637 26.96 -5 29 C-1.878 27.691 -1.878 27.691 0 25 C-0.66 25 -1.32 25 -2 25 Z M4 30 C3.67 30.66 3.34 31.32 3 32 C3.99 31.67 4.98 31.34 6 31 C5.34 30.67 4.68 30.34 4 30 Z M20 34 C20 37 20 37 20 37 Z M18 37 C16.02 39.31 14.04 41.62 12 44 C12.33 44.66 12.66 45.32 13 46 C14.98 43.69 16.96 41.38 19 39 C18.67 38.34 18.34 37.68 18 37 Z M23 43 C23 46 23 46 23 46 Z M11 46 C10.34 47.32 9.68 48.64 9 50 C9.99 49.34 10.98 48.68 12 48 C11.67 47.34 11.34 46.68 11 46 Z M21 46 C21 49 21 49 21 49 Z M19 49 C14.05 55.435 14.05 55.435 9 62 C9.99 62 10.98 62 12 62 C14.149 59.548 14.149 59.548 16.188 56.5 C16.903 55.479 17.618 54.458 18.355 53.406 C18.898 52.612 19.441 51.818 20 51 C19.67 50.34 19.34 49.68 19 49 Z " fill="#000000" transform="translate(248,119)"/>
<path d="M0 0 C0.93 2.551 1.086 3.74 0.223 6.359 C-0.16 7.148 -0.543 7.937 -0.938 8.75 C-1.508 9.949 -1.508 9.949 -2.09 11.172 C-2.39 11.775 -2.691 12.378 -3 13 C-3.93 10.449 -4.086 9.26 -3.223 6.641 C-2.84 5.852 -2.457 5.063 -2.062 4.25 C-1.682 3.451 -1.302 2.652 -0.91 1.828 C-0.61 1.225 -0.309 0.622 0 0 Z " fill="#000000" transform="translate(87,110)"/>
<path d="M0 0 C16.87 13.873 28.061 35.546 30.675 57.253 C30.783 58.876 30.866 60.502 30.925 62.128 C30.965 63.025 31.005 63.922 31.046 64.846 C31.648 91.193 23.121 116.146 5.925 136.128 C5.116 137.075 4.306 138.023 3.472 138.999 C-12.354 156.112 -34.769 165.288 -57.821 166.413 C-82.729 167.121 -103.462 159.614 -121.739 142.491 C-139.605 124.415 -151.305 98.091 -151.387 72.44 C-151.197 46.423 -139.882 22.852 -122.387 3.94 C-88.511 -28.265 -35.724 -28.234 0 0 Z M-107.075 -4.872 C-104.413 -3.098 -102.155 -2.022 -99.2 -0.872 C-98.357 -0.542 -97.514 -0.212 -96.645 0.128 C-95.797 0.458 -94.949 0.788 -94.075 1.128 C-92.407 1.793 -90.741 2.459 -89.075 3.128 C-91.653 0.48 -93.991 -1.817 -97.075 -3.872 C-86.745 -11.251 -74.533 -14.318 -62.075 -15.872 C-62.57 -14.841 -63.065 -13.81 -63.575 -12.747 C-65.049 -9.348 -65.348 -6.602 -65.075 -2.872 C-64.415 -3.202 -63.755 -3.532 -63.075 -3.872 C-62.572 -5.795 -62.572 -5.795 -62.262 -8.06 C-61.305 -12.932 -59.508 -15.348 -56.075 -18.872 C-73.922 -19.755 -91.95 -14.368 -107.075 -4.872 Z M-59.075 -14.872 C-62.016 -10.602 -62.991 -7.003 -62.075 -1.872 C-60.082 0.718 -57.932 2.543 -55.075 4.128 C-52.557 4.275 -52.557 4.275 -50.075 3.128 C-33.542 -1.891 -17.515 2.35 -2.614 10.048 C1.868 12.45 6.171 15.057 10.324 17.999 C11.938 19.196 11.938 19.196 13.925 20.128 C9.454 6.361 -6.762 -3.942 -18.95 -10.185 C-30.333 -15.765 -47.917 -23.938 -59.075 -14.872 Z M-128.848 14.401 C-130.661 16.935 -132.374 19.517 -134.075 22.128 C-135.084 23.595 -135.084 23.595 -136.114 25.093 C-145.092 38.695 -149.7 54.808 -149.075 71.128 C-146.763 68.816 -146.171 67.051 -145.012 64.003 C-136.086 42.361 -122.92 26.732 -101.075 17.128 C-98.492 16.19 -95.915 15.26 -93.301 14.413 C-90.196 12.62 -88.884 10.164 -87.075 7.128 C-88.944 5.827 -90.82 4.538 -92.7 3.253 C-93.744 2.533 -94.788 1.814 -95.864 1.073 C-110.237 -7.635 -119.907 2.939 -128.848 14.401 Z M-87.008 9.432 C-88.493 11.793 -89.223 13.311 -89.075 16.128 C-87.072 20.134 -84.599 21.571 -80.512 23.003 C-72.382 25.098 -64.979 24.179 -57.633 20.163 C-55.903 19.087 -55.903 19.087 -54.075 17.128 C-53.462 10.998 -54.071 8.046 -58.075 3.128 C-60.944 -0.201 -63.22 -0.782 -67.637 -1.247 C-75.5 -1.117 -82.345 3.294 -87.008 9.432 Z M-54.075 5.128 C-53.914 5.715 -53.752 6.303 -53.586 6.909 C-52.709 10.712 -52.476 14.516 -53.848 18.21 C-56.356 22.131 -61.263 23.584 -65.575 24.878 C-74.024 25.723 -80.946 24.966 -88.075 20.065 C-90.075 18.128 -90.075 18.128 -91.075 16.128 C-102.407 17.252 -112.721 23.6 -121.075 31.128 C-121.969 31.929 -122.864 32.731 -123.786 33.557 C-130.585 39.984 -135.735 46.817 -140.075 55.128 C-140.481 55.894 -140.886 56.659 -141.305 57.448 C-146.658 67.746 -151.098 76.389 -148.075 88.128 C-147.932 88.751 -147.789 89.375 -147.642 90.018 C-141.985 114.453 -128.948 137.505 -107.684 151.538 C-93.231 160.344 -77.815 164.332 -60.887 164.315 C-60.057 164.314 -59.226 164.314 -58.37 164.313 C-51.899 164.249 -45.302 164.046 -39.075 162.128 C-38.745 161.468 -38.415 160.808 -38.075 160.128 C-39.065 159.138 -40.055 158.148 -41.075 157.128 C-41.075 157.788 -41.075 158.448 -41.075 159.128 C-64.632 164.378 -88.99 157.621 -109.075 145.128 C-127.597 132.212 -137.902 113.793 -143.075 92.128 C-143.075 90.808 -143.075 89.488 -143.075 88.128 C-143.425 87.385 -143.776 86.643 -144.137 85.878 C-146.995 77.495 -141.741 67.626 -138.075 60.128 C-127.586 40.699 -113.088 27.335 -93.075 18.128 C-92.502 18.905 -91.93 19.682 -91.34 20.483 C-89.177 23.008 -87.797 24.103 -84.825 25.44 C-84.118 25.766 -83.412 26.092 -82.684 26.428 C-81.887 26.775 -81.887 26.775 -81.075 27.128 C-81.147 27.915 -81.219 28.703 -81.293 29.514 C-83.18 51.652 -81.787 74.072 -74.075 95.128 C-73.415 95.788 -72.755 96.448 -72.075 97.128 C-73.035 92.248 -74.017 87.376 -75.063 82.514 C-75.239 81.691 -75.416 80.868 -75.597 80.02 C-75.95 78.373 -76.306 76.727 -76.666 75.082 C-78.468 66.66 -79.234 58.75 -79.075 50.128 C-78.988 51.316 -78.902 52.505 -78.813 53.729 C-75.91 89.49 -63.13 132.827 -37.075 159.128 C-34.271 160.025 -32.659 160.321 -29.842 159.387 C-29.104 158.988 -28.366 158.589 -27.606 158.178 C-26.787 157.742 -25.969 157.306 -25.125 156.856 C-24.284 156.389 -23.442 155.922 -22.575 155.44 C-21.733 154.992 -20.891 154.544 -20.024 154.083 C-15.745 151.768 -11.642 149.483 -8.075 146.128 C-8.075 145.468 -8.075 144.808 -8.075 144.128 C-7 143.78 -7 143.78 -5.903 143.425 C3.885 138.936 12.577 126.772 16.925 117.128 C17.346 113.315 16.324 110.65 14.925 107.128 C14.618 106.045 14.312 104.962 13.996 103.846 C4.442 71.21 -18.989 48.041 -45.43 28.186 C-47.495 26.579 -49.26 24.992 -51.075 23.128 C-17.043 48.16 6.182 72.691 17.925 114.128 C29.76 100.194 30.081 74.294 28.925 57.128 C27.783 45.39 24.382 30.833 15.156 22.768 C-5.726 7.409 -28.001 -2.895 -54.075 5.128 Z M-88.075 4.128 C-87.085 5.613 -87.085 5.613 -86.075 7.128 C-86.075 6.138 -86.075 5.148 -86.075 4.128 C-86.735 4.128 -87.395 4.128 -88.075 4.128 Z M-98.075 23.128 C-98.735 24.448 -99.395 25.768 -100.075 27.128 C-99.085 26.798 -98.095 26.468 -97.075 26.128 C-97.735 28.108 -98.395 30.088 -99.075 32.128 C-97.899 31.354 -97.899 31.354 -96.7 30.565 C-95.833 30.091 -94.967 29.616 -94.075 29.128 C-93.415 29.458 -92.755 29.788 -92.075 30.128 C-92.57 31.025 -92.57 31.025 -93.075 31.94 C-94.283 34.182 -94.283 34.182 -94.075 37.128 C-92.699 35.838 -91.367 34.501 -90.075 33.128 C-90.075 32.468 -90.075 31.808 -90.075 31.128 C-88.425 31.458 -86.775 31.788 -85.075 32.128 C-85.075 31.468 -85.075 30.808 -85.075 30.128 C-85.735 29.798 -86.395 29.468 -87.075 29.128 C-87.405 28.468 -87.735 27.808 -88.075 27.128 C-89.395 27.128 -90.715 27.128 -92.075 27.128 C-93.448 25.835 -94.785 24.503 -96.075 23.128 C-96.735 23.128 -97.395 23.128 -98.075 23.128 Z M-101.075 27.128 C-100.075 29.128 -100.075 29.128 -100.075 29.128 Z M-89.075 38.128 C-88.075 40.128 -88.075 40.128 -88.075 40.128 Z M-118.075 61.128 C-116.596 65.761 -113.911 69.023 -110.762 72.628 C-110.288 73.183 -109.815 73.739 -109.327 74.311 C-106.38 77.738 -103.308 80.971 -100.075 84.128 C-99.415 83.798 -98.755 83.468 -98.075 83.128 C-98.875 82.379 -98.875 82.379 -99.692 81.616 C-104.977 76.523 -109.528 71.176 -113.887 65.295 C-114.93 63.891 -116 62.507 -117.075 61.128 C-117.405 61.128 -117.735 61.128 -118.075 61.128 Z M-115.075 82.128 C-116.08 84.084 -117.078 86.042 -118.075 88.003 C-118.632 89.093 -119.188 90.184 -119.762 91.307 C-121.215 93.911 -121.215 93.911 -121.075 96.128 C-122.065 96.623 -122.065 96.623 -123.075 97.128 C-123.727 99.152 -123.727 99.152 -124.075 101.128 C-122.755 100.798 -121.435 100.468 -120.075 100.128 C-119.703 101.334 -119.703 101.334 -119.325 102.565 C-118.352 105.299 -118.352 105.299 -115.95 105.94 C-115.022 106.033 -115.022 106.033 -114.075 106.128 C-114.075 108.108 -114.075 110.088 -114.075 112.128 C-113.085 111.138 -112.095 110.148 -111.075 109.128 C-108.765 111.438 -106.455 113.748 -104.075 116.128 C-103.085 115.633 -103.085 115.633 -102.075 115.128 C-102.611 114.612 -103.147 114.096 -103.7 113.565 C-105.075 111.128 -105.075 111.128 -104.262 107.378 C-103.87 106.305 -103.478 105.233 -103.075 104.128 C-101.755 105.448 -100.435 106.768 -99.075 108.128 C-99.601 109.025 -99.601 109.025 -100.137 109.94 C-101.408 112.236 -101.408 112.236 -100.075 115.128 C-96.966 110.731 -96.966 110.731 -96.325 105.69 C-96.572 105.175 -96.82 104.659 -97.075 104.128 C-97.735 104.128 -98.395 104.128 -99.075 104.128 C-99.735 103.138 -100.395 102.148 -101.075 101.128 C-100.2 98.44 -100.2 98.44 -99.075 96.128 C-103.848 91.22 -108.729 86.417 -114.075 82.128 C-114.405 82.128 -114.735 82.128 -115.075 82.128 Z M-142.075 91.128 C-140.766 94.25 -140.766 94.25 -138.075 96.128 C-139.384 93.006 -139.384 93.006 -142.075 91.128 Z M-127.075 92.128 C-126.085 93.118 -125.095 94.108 -124.075 95.128 C-124.405 94.138 -124.735 93.148 -125.075 92.128 C-125.735 92.128 -126.395 92.128 -127.075 92.128 Z M-72.075 97.128 C-71.075 100.128 -71.075 100.128 -71.075 100.128 Z M-136.075 98.128 C-134.52 101.945 -132.039 104.32 -129.075 107.128 C-128.415 106.798 -127.755 106.468 -127.075 106.128 C-128.384 104.791 -129.697 103.459 -131.012 102.128 C-131.743 101.385 -132.474 100.643 -133.227 99.878 C-134.772 98.013 -134.772 98.013 -136.075 98.128 Z M-96.075 99.128 C-96.075 100.448 -96.075 101.768 -96.075 103.128 C-95.415 102.798 -94.755 102.468 -94.075 102.128 C-94.075 101.138 -94.075 100.148 -94.075 99.128 C-94.735 99.128 -95.395 99.128 -96.075 99.128 Z M-71.075 100.128 C-70.075 103.128 -70.075 103.128 -70.075 103.128 Z M-70.075 103.128 C-69.075 105.128 -69.075 105.128 -69.075 105.128 Z M-119.075 105.128 C-118.075 107.128 -118.075 107.128 -118.075 107.128 Z M-69.075 106.128 C-68.075 108.128 -68.075 108.128 -68.075 108.128 Z M-120.075 107.128 C-119.075 109.128 -119.075 109.128 -119.075 109.128 Z M-96.075 108.128 C-95.085 109.613 -95.085 109.613 -94.075 111.128 C-93.95 114.315 -93.95 114.315 -94.075 117.128 C-93.642 116.169 -93.642 116.169 -93.2 115.19 C-92.075 113.128 -92.075 113.128 -90.075 112.128 C-90.405 111.138 -90.735 110.148 -91.075 109.128 C-92.725 108.798 -94.375 108.468 -96.075 108.128 Z M-124.075 110.128 C-122.425 112.108 -120.775 114.088 -119.075 116.128 C-118.415 115.798 -117.755 115.468 -117.075 115.128 C-118.698 113.419 -120.368 111.753 -122.075 110.128 C-122.735 110.128 -123.395 110.128 -124.075 110.128 Z M-85.075 112.128 C-86.7 114.961 -86.7 114.961 -88.075 118.128 C-87.745 119.118 -87.415 120.108 -87.075 121.128 C-85.45 118.295 -85.45 118.295 -84.075 115.128 C-84.405 114.138 -84.735 113.148 -85.075 112.128 Z M-130.075 115.128 C-128.766 118.25 -128.766 118.25 -126.075 120.128 C-127.384 117.006 -127.384 117.006 -130.075 115.128 Z M-116.075 117.128 C-114.425 119.108 -112.775 121.088 -111.075 123.128 C-110.415 122.798 -109.755 122.468 -109.075 122.128 C-110.698 120.419 -112.368 118.753 -114.075 117.128 C-114.735 117.128 -115.395 117.128 -116.075 117.128 Z M-101.075 117.128 C-100.085 118.613 -100.085 118.613 -99.075 120.128 C-98.415 119.798 -97.755 119.468 -97.075 119.128 C-98.395 118.468 -99.715 117.808 -101.075 117.128 Z M-95.075 117.128 C-94.075 119.128 -94.075 119.128 -94.075 119.128 Z M-125.075 121.128 C-123.488 125.031 -120.941 127.463 -117.95 130.378 C-117.04 131.27 -116.13 132.162 -115.192 133.081 C-114.493 133.756 -113.795 134.432 -113.075 135.128 C-112.745 131.905 -112.745 131.905 -115.446 129.428 C-116.46 128.425 -117.483 127.429 -118.512 126.44 C-119.287 125.674 -119.287 125.674 -120.077 124.891 C-122.223 122.291 -122.223 122.291 -125.075 121.128 Z M-109.075 123.128 C-107.755 124.778 -106.435 126.428 -105.075 128.128 C-104.415 127.798 -103.755 127.468 -103.075 127.128 C-104.364 125.752 -105.702 124.42 -107.075 123.128 C-107.735 123.128 -108.395 123.128 -109.075 123.128 Z M-103.075 128.128 C-102.085 129.448 -101.095 130.768 -100.075 132.128 C-99.415 131.798 -98.755 131.468 -98.075 131.128 C-99.45 129.586 -99.45 129.586 -101.075 128.128 C-101.735 128.128 -102.395 128.128 -103.075 128.128 Z M-97.075 133.128 C-96.085 134.448 -95.095 135.768 -94.075 137.128 C-93.415 136.798 -92.755 136.468 -92.075 136.128 C-93.45 134.586 -93.45 134.586 -95.075 133.128 C-95.735 133.128 -96.395 133.128 -97.075 133.128 Z M-56.075 133.128 C-55.075 135.128 -55.075 135.128 -55.075 135.128 Z M-112.075 135.128 C-111.148 136.303 -110.208 137.468 -109.262 138.628 C-108.74 139.277 -108.218 139.927 -107.68 140.596 C-106.083 142.473 -106.083 142.473 -103.075 142.128 C-104.193 140.955 -105.32 139.79 -106.45 138.628 C-107.076 137.978 -107.703 137.328 -108.348 136.659 C-109.939 134.907 -109.939 134.907 -112.075 135.128 Z M-55.075 135.128 C-54.075 137.128 -54.075 137.128 -54.075 137.128 Z M-92.075 137.128 C-91.085 138.613 -91.085 138.613 -90.075 140.128 C-89.415 139.798 -88.755 139.468 -88.075 139.128 C-89.395 138.468 -90.715 137.808 -92.075 137.128 Z M-54.075 137.128 C-53.415 138.778 -52.755 140.428 -52.075 142.128 C-51.745 141.468 -51.415 140.808 -51.075 140.128 C-52.065 139.138 -53.055 138.148 -54.075 137.128 Z M-88.075 140.128 C-87.085 141.448 -86.095 142.768 -85.075 144.128 C-84.415 143.798 -83.755 143.468 -83.075 143.128 C-84.45 141.586 -84.45 141.586 -86.075 140.128 C-86.735 140.128 -87.395 140.128 -88.075 140.128 Z M-51.075 142.128 C-49.687 146.018 -47.859 149.093 -45.45 152.44 C-44.818 153.323 -44.186 154.206 -43.536 155.116 C-43.054 155.78 -42.571 156.444 -42.075 157.128 C-42.075 153.057 -43.74 151.283 -46.012 147.94 C-46.743 146.854 -47.474 145.767 -48.227 144.647 C-48.837 143.816 -49.447 142.984 -50.075 142.128 C-50.405 142.128 -50.735 142.128 -51.075 142.128 Z M-102.075 144.128 C-101.745 144.788 -101.415 145.448 -101.075 146.128 C-100.415 145.798 -99.755 145.468 -99.075 145.128 C-100.065 144.798 -101.055 144.468 -102.075 144.128 Z M-83.075 144.128 C-82.085 145.613 -82.085 145.613 -81.075 147.128 C-80.415 146.798 -79.755 146.468 -79.075 146.128 C-80.395 145.468 -81.715 144.808 -83.075 144.128 Z M-85.075 150.128 C-84.075 152.128 -84.075 152.128 -84.075 152.128 Z " fill="#000000" transform="translate(247.07470703125,103.872314453125)"/>
<path d="M0 0 C0.701 0.371 1.403 0.743 2.125 1.125 C2.084 10.283 -0.728 18.373 -6.805 25.336 C-11.4 29.573 -16.428 33.125 -22.875 33.125 C-22.904 28.688 -22.922 24.25 -22.938 19.812 C-22.946 18.55 -22.954 17.287 -22.963 15.986 C-22.966 14.778 -22.969 13.569 -22.973 12.324 C-22.978 11.209 -22.983 10.093 -22.989 8.944 C-22.875 6.125 -22.875 6.125 -21.875 3.125 C-20.572 2.943 -20.572 2.943 -19.242 2.758 C-18.09 2.59 -16.937 2.423 -15.75 2.25 C-14.045 2.006 -14.045 2.006 -12.305 1.758 C-8.861 1.211 -8.861 1.211 -5.625 0 C-2.875 -0.875 -2.875 -0.875 0 0 Z " fill="#000000" transform="translate(192.875,127.875)"/>
<path d="M0 0 C0.66 0 1.32 0 2 0 C0.383 6.033 -1.167 9.951 -6 14 C-5.714 13.448 -5.428 12.897 -5.133 12.328 C-3.923 9.841 -2.89 7.323 -1.875 4.75 C-1.522 3.858 -1.169 2.966 -0.805 2.047 C-0.539 1.371 -0.274 0.696 0 0 Z " fill="#000000" transform="translate(196,143)"/>
<path d="M0 0 C0.66 0.33 1.32 0.66 2 1 C-4.615 6.846 -4.615 6.846 -9 8 C-10.344 7.712 -11.68 7.384 -13 7 C-12.145 6.578 -11.291 6.157 -10.41 5.723 C-9.305 5.175 -8.201 4.627 -7.062 4.062 C-5.96 3.517 -4.858 2.972 -3.723 2.41 C-1.152 1.253 -1.152 1.253 0 0 Z " fill="#000000" transform="translate(187,158)"/>
<path d="M0 0 C0.33 0 0.66 0 1 0 C1.324 6.634 1.384 12.119 -2 18 C-2.58 19.021 -3.16 20.042 -3.758 21.094 C-5.48 24.078 -7.229 27.044 -9 30 C-11.426 27.574 -11.803 25.595 -12.147 22.229 C-11.872 18.064 -9.529 15.084 -7.188 11.75 C-6.263 10.371 -5.34 8.99 -4.418 7.609 C-4.003 7.011 -3.588 6.412 -3.161 5.796 C-1.95 3.923 -0.962 2.01 0 0 Z " fill="#000000" transform="translate(273,174)"/>
<path d="M0 0 C3.972 1.345 6.378 3.03 9.375 5.938 C15.795 11.91 22.871 16.915 30 22 C29.34 22.33 28.68 22.66 28 23 C20.426 17.797 13.103 12.426 6.125 6.438 C5.513 5.913 4.9 5.389 4.269 4.849 C2.823 3.591 1.408 2.299 0 1 C0 0.67 0 0.34 0 0 Z " fill="#000000" transform="translate(204,182)"/>
<path d="M0 0 C0.99 0.66 1.98 1.32 3 2 C2.67 3.65 2.34 5.3 2 7 C1.01 7 0.02 7 -1 7 C-1.625 5.188 -1.625 5.188 -2 3 C-1.34 2.01 -0.68 1.02 0 0 Z " fill="#000000" transform="translate(133,188)"/>
<path d="M0 0 C1.32 0.66 2.64 1.32 4 2 C3.34 3.65 2.68 5.3 2 7 C0.68 5.68 -0.64 4.36 -2 3 C-1.34 2.01 -0.68 1.02 0 0 Z " fill="#000000" transform="translate(137,193)"/>
<path d="M0 0 C1 2 1 2 0.563 3.788 C0.306 4.489 0.05 5.191 -0.215 5.914 C-0.489 6.675 -0.763 7.435 -1.045 8.219 C-1.339 9.013 -1.634 9.807 -1.938 10.625 C-2.228 11.427 -2.519 12.229 -2.818 13.055 C-3.539 15.039 -4.269 17.02 -5 19 C-5.66 18.34 -6.32 17.68 -7 17 C-7 10.238 -3.632 5.52 0 0 Z " fill="#000000" transform="translate(271,193)"/>
<path d="M0 0 C0.99 0.66 1.98 1.32 3 2 C2.385 7.538 2.385 7.538 0.438 9.875 C-0.274 10.432 -0.274 10.432 -1 11 C-1.99 10.01 -2.98 9.02 -4 8 C-2.875 5.028 -1.777 2.666 0 0 Z " fill="#000000" transform="translate(130,194)"/>
<path d="M0 0 C2.806 1.32 5.218 2.799 7.68 4.68 C8.362 5.197 9.044 5.714 9.746 6.246 C10.449 6.784 11.151 7.321 11.875 7.875 C16.498 11.4 21.122 14.835 26 18 C25.34 18.33 24.68 18.66 24 19 C5.049 6.282 5.049 6.282 0 1 C0 0.67 0 0.34 0 0 Z " fill="#000000" transform="translate(206,195)"/>
<path d="M0 0 C1.65 0.99 3.3 1.98 5 3 C4.34 4.65 3.68 6.3 3 8 C1.062 7.188 1.062 7.188 -1 6 C-1.33 5.01 -1.66 4.02 -2 3 C-1.34 2.01 -0.68 1.02 0 0 Z " fill="#000000" transform="translate(142,197)"/>
<path d="M0 0 C1.32 0.99 2.64 1.98 4 3 C3.01 5.97 2.02 8.94 1 12 C-0.32 11.01 -1.64 10.02 -3 9 C-2.01 6.03 -1.02 3.06 0 0 Z " fill="#000000" transform="translate(134,198)"/>
<path d="M0 0 C1.456 4.368 -0.6 7.193 -2.5 11.125 C-2.862 11.887 -3.224 12.649 -3.598 13.433 C-6.415 19.187 -9.669 24.249 -14 29 C-14 25.043 -12.532 23.429 -10.375 20.125 C-6.25 13.673 -3.04 7.036 0 0 Z " fill="#000000" transform="translate(293,202)"/>
<path d="M0 0 C1.65 0.99 3.3 1.98 5 3 C4.01 5.64 3.02 8.28 2 11 C0.062 10.188 0.062 10.188 -2 9 C-3 6 -3 6 -1.562 2.812 C-1.047 1.884 -0.531 0.956 0 0 Z " fill="#000000" transform="translate(139,203)"/>
<path d="M0 0 C0.33 0 0.66 0 1 0 C1.159 0.871 1.317 1.743 1.48 2.641 C3.549 13.2 6.16 22.504 13 31 C13 31.66 13 32.32 13 33 C7.809 31.116 6.626 26.959 4.395 22.23 C1.11 14.622 -0.402 8.298 0 0 Z " fill="#000000" transform="translate(70,205)"/>
<path d="M0 0 C0.66 0.66 1.32 1.32 2 2 C1.966 3.82 1.93 5.641 1.891 7.461 C2.282 16.554 5.255 24.373 10 32 C10.68 33.326 11.351 34.658 12 36 C6.885 34.1 5.624 30.199 3.398 25.5 C0.081 17.197 -1.943 8.832 0 0 Z " fill="#000000" transform="translate(54,209)"/>
<path d="M0 0 C0.66 0 1.32 0 2 0 C2.147 0.799 2.294 1.598 2.445 2.422 C4.138 10.709 6.892 17.621 11 25 C10.01 25 9.02 25 8 25 C3.696 17.31 0 8.967 0 0 Z " fill="#000000" transform="translate(62,212)"/>
<path d="M0 0 C5.03 1.693 9.217 4.553 13.625 7.438 C14.388 7.928 15.151 8.418 15.938 8.924 C19.263 11.086 22.266 13.102 25 16 C19.122 14.481 14.641 11.368 9.688 8 C8.864 7.453 8.041 6.907 7.193 6.344 C1.134 2.267 1.134 2.267 0 0 Z " fill="#000000" transform="translate(217,225)"/>
<path d="M0 0 C0.33 0.66 0.66 1.32 1 2 C-11.423 21.266 -11.423 21.266 -19.262 23.703 C-20.122 23.85 -20.122 23.85 -21 24 C-18.463 21.389 -16.036 19.028 -13.156 16.781 C-9.633 13.871 -7.185 10.443 -4.625 6.688 C-4.175 6.042 -3.725 5.397 -3.262 4.732 C-2.167 3.16 -1.082 1.581 0 0 Z " fill="#000000" transform="translate(291,227)"/>
<path d="M0 0 C3.517 1.319 6.653 2.873 9.863 4.82 C11.193 5.623 11.193 5.623 12.549 6.441 C13.917 7.275 13.917 7.275 15.312 8.125 C16.244 8.688 17.175 9.252 18.135 9.832 C20.425 11.218 22.714 12.607 25 14 C24.01 14.495 24.01 14.495 23 15 C20.36 13.702 17.852 12.35 15.312 10.875 C14.617 10.483 13.922 10.091 13.205 9.688 C8.59 7.051 4.238 4.21 0 1 C0 0.67 0 0.34 0 0 Z " fill="#000000" transform="translate(208,230)"/>
<path d="M0 0 C3.94 1.389 6.921 3.239 10.25 5.75 C15.067 9.332 19.972 12.722 25 16 C24.34 16.33 23.68 16.66 23 17 C20.351 15.557 17.847 14.062 15.312 12.438 C14.617 12.006 13.922 11.575 13.205 11.131 C8.484 8.147 3.992 4.928 0 1 C0 0.67 0 0.34 0 0 Z " fill="#000000" transform="translate(198,233)"/>
<path d="M0 0 C0 3.769 -1.38 5.285 -3.836 8.031 C-11.74 15.222 -23.189 21.891 -34 23 C-32.485 19.97 -30.146 19.629 -27.062 18.375 C-25.981 17.929 -24.899 17.483 -23.785 17.023 C-21 16 -21 16 -19 16 C-19.33 15.01 -19.66 14.02 -20 13 C-19.072 12.897 -18.144 12.794 -17.188 12.688 C-13.967 11.993 -12.974 11.523 -11 9 C-11.33 8.34 -11.66 7.68 -12 7 C-10.979 7.217 -10.979 7.217 -9.938 7.438 C-5.308 6.748 -3.008 3.398 0 0 Z " fill="#000000" transform="translate(245,238)"/>
<path d="M0 0 C2.333 2.333 4.667 4.667 7 7 C6.67 7.99 6.34 8.98 6 10 C3.69 7.36 1.38 4.72 -1 2 C-0.67 1.34 -0.34 0.68 0 0 Z " fill="#000000" transform="translate(87,242)"/>
<path d="M0 0 C0 3 0 3 -1.906 5.305 C-6.95 10.303 -11.642 14.765 -18 18 C-18.99 17.67 -19.98 17.34 -21 17 C-19.983 16.416 -19.983 16.416 -18.945 15.82 C-11.594 11.401 -5.823 6.277 0 0 Z " fill="#000000" transform="translate(289,244)"/>
<path d="M0 0 C2.299 2.213 4.248 4.343 6.125 6.938 C12.031 14.049 21.255 15.886 30 17 C30 17.99 30 18.98 30 20 C18.703 18.561 10.6 15.15 2.496 7.062 C0.782 4.7 0.364 2.871 0 0 Z " fill="#000000" transform="translate(118,264)"/>
<path d="M0 0 C0.66 0 1.32 0 2 0 C2.208 0.629 2.415 1.258 2.629 1.906 C6.531 12.748 12.718 18.901 23 24 C29.469 26.685 36.11 26.186 43 26 C43 26.66 43 27.32 43 28 C32.096 30.01 22.805 27.835 13.562 21.688 C6.626 16.395 2.518 11.393 0 3 C0 2.01 0 1.02 0 0 Z " fill="#000000" transform="translate(106,268)"/>
<path d="M0 0 C0.66 0.33 1.32 0.66 2 1 C-1.364 3.961 -4.692 4.923 -9 6 C-6.454 3.029 -3.578 1.522 0 0 Z " fill="#000000" transform="translate(248,268)"/>
</svg>
