<?xml version="1.0" encoding="UTF-8"?>
<!-- Generator: visioncortex VTracer 0.6.0 -->
<svg version="1.1" xmlns="http://www.w3.org/2000/svg" width="847" height="847">
<path d="M0 0 C2.72 1.209 4.402 2.173 6.149 4.587 C7.415 8.177 7.056 11.62 6.801 15.355 C6.724 16.605 6.724 16.605 6.646 17.881 C6.02 27.118 4.844 36.282 3.581 45.451 C3.189 48.299 2.812 51.148 2.436 53.998 C0.682 67.075 -1.527 80.04 -4 93 C-3.41 92.835 -2.819 92.671 -2.211 92.501 C21.452 85.932 21.452 85.932 31 88 C35.428 91.577 36.922 94.262 37.785 99.719 C38.068 104.042 37.994 108.299 37.812 112.625 C37.783 113.424 37.753 114.224 37.722 115.047 C37.417 120.201 36.848 127.152 33 131 C30.177 131.297 28.6 131.428 26.25 129.75 C23.967 126.553 23.856 123.072 23.684 119.234 C23.642 118.345 23.6 117.455 23.557 116.539 C23.517 115.619 23.478 114.698 23.438 113.75 C23.373 112.346 23.373 112.346 23.307 110.914 C23.201 108.61 23.099 106.305 23 104 C14.511 106.142 6.859 109.707 -1 113.5 C-25.554 125.351 -25.554 125.351 -35.375 122.25 C-37.43 120.669 -38.051 119.412 -39 117 C-39.036 114.572 -39.036 114.572 -38.73 111.906 C-38.62 110.933 -38.51 109.96 -38.396 108.957 C-37.793 104.453 -37.105 99.975 -36.312 95.5 C-36.138 94.515 -35.964 93.53 -35.784 92.515 C-30.865 65.389 -24.127 38.442 -15.688 12.188 C-15.47 11.489 -15.252 10.791 -15.027 10.072 C-12.316 2.013 -8.308 -0.563 0 0 Z " fill="#000000" transform="translate(389,117)"/>
<path d="M0 0 C0.66 0.66 1.32 1.32 2 2 C1.939 4.506 1.752 6.869 1.461 9.352 C1.292 10.974 1.124 12.597 0.956 14.22 C0.862 15.097 0.767 15.973 0.67 16.877 C-1.791 39.829 -3.221 62.826 -4.568 85.863 C-4.69 87.938 -4.812 90.013 -4.936 92.088 C-5.087 94.65 -5.235 97.212 -5.379 99.774 C-5.446 100.918 -5.513 102.062 -5.583 103.24 C-5.64 104.236 -5.696 105.232 -5.755 106.258 C-5.991 108.901 -6.427 111.412 -7 114 C-8.98 114 -10.96 114 -13 114 C-12.502 85.058 -9.251 56.225 -5.375 27.562 C-5.271 26.791 -5.167 26.019 -5.06 25.224 C-1.888 1.888 -1.888 1.888 0 0 Z " fill="#000000" transform="translate(450,132)"/>
<path d="M0 0 C3.77 3.197 5.825 5.222 6.312 10.172 C5.945 14.67 4.397 17.556 2 21.25 C1.382 22.238 1.382 22.238 0.751 23.245 C-2.911 29.024 -6.894 34.53 -11 40 C-12.042 41.433 -13.083 42.868 -14.121 44.305 C-22.031 55.21 -30.317 65.703 -39 76 C-40.085 77.293 -41.169 78.586 -42.254 79.879 C-49.531 88.531 -49.531 88.531 -52 91 C-51.41 91.312 -50.82 91.625 -50.212 91.946 C-47.532 93.371 -44.86 94.81 -42.188 96.25 C-40.794 96.987 -40.794 96.987 -39.373 97.738 C-38.034 98.463 -38.034 98.463 -36.668 99.203 C-35.846 99.643 -35.024 100.083 -34.177 100.536 C-31.793 102.139 -30.483 103.548 -29 106 C-28.058 112.178 -29.299 115.546 -32.941 120.551 C-42.974 132.487 -42.974 132.487 -48 135 C-50 135.04 -52 135.043 -54 135 C-55.188 133.438 -55.188 133.438 -56 131 C-54.361 126.084 -51.899 122.298 -49 118 C-49 117.34 -49 116.68 -49 116 C-49.694 115.814 -50.389 115.628 -51.104 115.437 C-87.957 105.514 -87.957 105.514 -94.5 97.062 C-95.233 94.04 -94.767 92.021 -94 89 C-92.464 86.672 -90.962 84.626 -89.188 82.5 C-88.698 81.896 -88.208 81.292 -87.703 80.67 C-86.15 78.768 -84.578 76.882 -83 75 C-82.257 74.108 -82.257 74.108 -81.499 73.199 C-75.239 65.71 -68.746 58.459 -62.082 51.328 C-59.63 48.703 -57.245 46.025 -54.859 43.34 C-50.053 37.989 -45.028 32.876 -39.934 27.803 C-38.432 26.307 -36.935 24.805 -35.439 23.303 C-28.479 16.336 -21.323 9.769 -13.625 3.625 C-12.376 2.623 -12.376 2.623 -11.102 1.602 C-7.103 -1.446 -4.908 -1.165 0 0 Z " fill="#000000" transform="translate(611,175)"/>
<path d="M0 0 C2.625 0.312 2.625 0.312 4.216 1.75 C6.315 5.567 6.44 9.321 6.793 13.617 C6.878 14.533 6.962 15.448 7.049 16.392 C7.226 18.333 7.396 20.275 7.56 22.217 C7.809 25.143 8.077 28.068 8.35 30.992 C10.922 59.318 10.922 59.318 7.804 64.113 C5.625 66.312 5.625 66.312 2.402 67.434 C-2.762 67.268 -5.641 65.249 -9.812 62.375 C-10.544 61.894 -11.276 61.412 -12.029 60.916 C-13.823 59.732 -15.601 58.525 -17.375 57.312 C-16.913 58.856 -16.913 58.856 -16.441 60.43 C-15.297 64.262 -14.17 68.098 -13.048 71.937 C-12.56 73.594 -12.068 75.251 -11.572 76.906 C-10.858 79.291 -10.16 81.68 -9.465 84.07 C-9.241 84.805 -9.017 85.54 -8.786 86.296 C-7.546 90.635 -7.012 93.963 -8.375 98.312 C-11.596 100.46 -12.635 100.874 -16.375 100.312 C-19.99 96.737 -21.029 91.795 -22.484 87.07 C-22.774 86.152 -23.064 85.233 -23.363 84.286 C-24.291 81.339 -25.208 78.388 -26.125 75.438 C-26.726 73.522 -27.327 71.607 -27.93 69.691 C-28.834 66.815 -29.737 63.938 -30.634 61.06 C-32.18 56.099 -33.747 51.147 -35.354 46.206 C-35.674 45.216 -35.995 44.226 -36.325 43.206 C-36.934 41.327 -37.548 39.45 -38.167 37.574 C-42.205 25.091 -42.205 25.091 -40.062 20.5 C-38.375 18.312 -38.375 18.312 -36.375 16.312 C-29.885 15.661 -25.883 17.026 -20.25 20.125 C-19.573 20.481 -18.896 20.838 -18.199 21.205 C-16.877 21.902 -15.557 22.605 -14.241 23.315 C-11.646 24.702 -9.013 26.01 -6.375 27.312 C-6.391 26.703 -6.406 26.093 -6.423 25.464 C-6.485 22.685 -6.524 19.905 -6.562 17.125 C-6.588 16.165 -6.613 15.206 -6.639 14.217 C-6.73 5.395 -6.73 5.395 -3.375 1.312 C-2.375 0.312 -2.375 0.312 0 0 Z M-25.375 32.312 C-24.635 37.011 -24.635 37.011 -21.884 40.702 C-19.988 41.951 -18.065 43.054 -16.062 44.125 C-15.398 44.506 -14.733 44.887 -14.049 45.279 C-10.581 47.238 -7.124 48.942 -3.375 50.312 C-2.619 47.571 -2.619 47.571 -3.375 44.312 C-6.054 41.789 -9.175 40.1 -12.375 38.312 C-13.357 37.748 -14.34 37.183 -15.352 36.602 C-20.093 33.567 -20.093 33.567 -25.375 32.312 Z " fill="#000000" transform="translate(265.375,177.6875)"/>
<path d="M0 0 C-1.44 4.321 -4.747 5.858 -8.375 8.312 C-9.935 9.39 -11.493 10.47 -13.051 11.551 C-13.865 12.115 -14.679 12.679 -15.518 13.26 C-19.581 16.108 -23.574 19.05 -27.562 22 C-28.356 22.587 -29.149 23.173 -29.967 23.778 C-49.663 38.094 -49.663 38.094 -68.676 53.281 C-71 55 -71 55 -74 55 C-75.688 52.5 -75.688 52.5 -77 50 C-64.868 39.881 -52.048 30.892 -39 22 C-37.924 21.261 -37.924 21.261 -36.827 20.507 C-29.136 15.224 -21.274 10.239 -13.312 5.375 C-12.45 4.841 -11.587 4.307 -10.698 3.757 C-9.887 3.267 -9.075 2.778 -8.238 2.273 C-7.517 1.834 -6.795 1.395 -6.052 0.943 C-4 0 -4 0 0 0 Z " fill="#000000" transform="translate(656,266)"/>
<path d="M0 0 C0.812 0.553 0.812 0.553 1.641 1.117 C-1.768 5.415 -6.105 7.032 -11.359 8.117 C-12.019 7.787 -12.679 7.457 -13.359 7.117 C-13.359 5.797 -13.359 4.477 -13.359 3.117 C-11.617 2.39 -9.865 1.686 -8.109 0.992 C-7.135 0.598 -6.16 0.203 -5.156 -0.203 C-2.359 -0.883 -2.359 -0.883 0 0 Z " fill="#000000" transform="translate(413.359375,302.8828125)"/>
<path d="M0 0 C0 1.32 0 2.64 0 4 C-1.556 4.846 -3.12 5.676 -4.688 6.5 C-5.993 7.196 -5.993 7.196 -7.324 7.906 C-10.118 9.048 -12.016 9.215 -15 9 C-15 7.68 -15 6.36 -15 5 C-13.069 3.967 -11.13 2.949 -9.188 1.938 C-8.109 1.369 -7.03 0.801 -5.918 0.215 C-3 -1 -3 -1 0 0 Z " fill="#000000" transform="translate(421,315)"/>
<path d="M0 0 C-1.499 4.256 -4.578 6.046 -8.25 8.312 C-8.87 8.701 -9.489 9.09 -10.128 9.491 C-33.931 24.168 -33.931 24.168 -42.273 22.562 C-42.843 22.377 -43.413 22.191 -44 22 C-43.67 21.01 -43.34 20.02 -43 19 C-40.644 17.972 -38.369 17.12 -35.938 16.312 C-24.598 12.312 -13.965 6.895 -3.602 0.812 C-2 0 -2 0 0 0 Z " fill="#000000" transform="translate(375,315)"/>
<path d="M0 0 C6.629 6.04 10.168 13.976 11.188 22.812 C10.544 29.248 8.751 36.061 4.062 40.75 C2.949 41.647 2.949 41.647 1.812 42.562 C2.349 42.649 2.885 42.735 3.438 42.824 C22.028 46.157 39.607 52.897 53.812 65.562 C54.591 66.199 55.37 66.836 56.172 67.492 C68.609 77.885 74.918 91.58 76.812 107.562 C77.063 112.92 77.051 118.264 77 123.625 C76.993 125.113 76.987 126.6 76.98 128.088 C76.937 135.403 76.806 142.7 76.312 150 C74.387 178.694 74.34 210.978 93.285 234.652 C100.144 242.495 107.985 249.454 115.809 256.312 C126.881 266.541 134.193 281.141 134.906 296.168 C134.488 311.296 128.004 323.663 117.812 334.562 C88.254 362.273 46.735 370.562 7.461 369.651 C-41.829 367.997 -93.383 355.301 -135.188 328.562 C-136.212 327.911 -136.212 327.911 -137.257 327.247 C-149.244 319.541 -160.316 311.137 -168.625 299.438 C-171.083 296.315 -172.392 294.803 -176.219 293.645 C-178.558 293.374 -180.905 293.156 -183.254 292.984 C-212.544 289.843 -240.064 266.396 -258.188 244.562 C-265.765 235.134 -272.268 225.098 -278.188 214.562 C-278.588 213.857 -278.989 213.151 -279.402 212.424 C-302.531 171.35 -315.815 118.904 -303.086 72.309 C-299.237 59.452 -292.565 44.745 -280.188 38.062 C-278.872 37.518 -277.537 37.017 -276.188 36.562 C-275.194 36.213 -275.194 36.213 -274.18 35.855 C-255.968 30.647 -234.984 39.994 -219.188 48.562 C-217.446 49.669 -215.715 50.791 -214 51.938 C-203.044 58.718 -187.933 57.203 -175.73 54.914 C-158.328 50.498 -142.457 40.645 -126.87 32.042 C-87.724 10.446 -87.724 10.446 -68.422 15.492 C-63.755 17.037 -59.453 19.187 -55.098 21.453 C-51.09 22.981 -48.636 22.163 -44.74 20.547 C-43.905 20.14 -43.071 19.732 -42.211 19.312 C-41.293 18.869 -40.375 18.426 -39.43 17.969 C-38.01 17.273 -38.01 17.273 -36.562 16.562 C-34.675 15.644 -32.787 14.728 -30.898 13.812 C-30.066 13.405 -29.234 12.998 -28.376 12.578 C-26.188 11.562 -26.188 11.562 -23.188 10.562 C-22.2 8.593 -22.2 8.593 -21.438 6.25 C-19.72 2.187 -18.208 -0.029 -14.18 -1.914 C-9.092 -3.251 -4.692 -2.116 0 0 Z M-17.188 9.562 C-17.501 12.655 -17.501 12.655 -15.375 14.812 C-13.188 17.562 -13.188 17.562 -11.875 21.188 C-10.482 24.882 -10.482 24.882 -6.688 26.062 C-2.993 27.646 -2.681 27.821 -1.25 31.25 C-0.899 32.343 -0.549 33.436 -0.188 34.562 C3.061 31.596 3.721 29.432 4.188 25 C4.102 18.4 0.654 12.131 -3.938 7.5 C-4.68 6.861 -5.423 6.221 -6.188 5.562 C-6.517 5.233 -6.848 4.902 -7.188 4.562 C-12.209 3.726 -14.103 5.773 -17.188 9.562 Z M-25.812 20.312 C-27.252 21.048 -28.692 21.783 -30.133 22.516 C-30.828 22.869 -31.523 23.223 -32.239 23.588 C-35.831 25.385 -39.497 26.981 -43.188 28.562 C-42.801 28.998 -42.414 29.434 -42.016 29.883 C-38.748 33.62 -35.846 37.37 -33.188 41.562 C-29.867 41.053 -27.101 40.261 -24.188 38.562 C-22.346 35.844 -21.005 33.073 -19.605 30.105 C-17.637 26.576 -15.965 25.732 -12.188 24.562 C-12.815 21.634 -13.774 19.202 -15.188 16.562 C-19.307 16.562 -22.242 18.454 -25.812 20.312 Z M-124.688 41.688 C-143.986 56.017 -168.605 63.207 -192.188 65.562 C-188.866 68.92 -185.489 72.192 -182 75.375 C-181.14 76.165 -180.28 76.955 -179.395 77.77 C-177.403 79.773 -177.403 79.773 -175.188 79.562 C-174.528 80.882 -173.868 82.202 -173.188 83.562 C-172.528 83.562 -171.868 83.562 -171.188 83.562 C-170.94 84.134 -170.692 84.705 -170.438 85.293 C-168.992 87.918 -167.271 89.721 -165.188 91.875 C-139.935 119.559 -126.309 161.556 -125.188 198.562 C-117.259 197.55 -112.561 195.591 -107.188 189.562 C-106.641 188.97 -106.094 188.377 -105.531 187.766 C-96.554 177.293 -93.218 163.198 -90.062 150.062 C-89.718 148.662 -89.373 147.262 -89.028 145.862 C-86.794 136.669 -85 127.453 -83.477 118.115 C-80.058 97.315 -71.556 72.838 -55.188 58.562 C-51.635 56.295 -48.002 54.351 -44.188 52.562 C-47.211 41.838 -55.66 33.901 -65.188 28.562 C-88.037 17.812 -106.084 27.532 -124.688 41.688 Z M-11.188 31.562 C-13.651 33.39 -15.022 34.792 -15.676 37.832 C-15.912 40.07 -16.055 42.316 -16.188 44.562 C-11.733 44.067 -11.733 44.067 -7.188 43.562 C-7.188 40.262 -7.188 36.962 -7.188 33.562 C-8.507 32.903 -9.827 32.243 -11.188 31.562 Z M-289.188 55.25 C-295.638 65.4 -299.046 78.7 -300.188 90.562 C-300.253 91.212 -300.319 91.861 -300.386 92.53 C-305.207 143.34 -286.223 195.88 -254.688 235.312 C-253.201 237.074 -251.701 238.824 -250.188 240.562 C-249.324 241.56 -248.46 242.558 -247.57 243.586 C-241.636 250.317 -235.324 256.09 -228.188 261.562 C-227.265 262.301 -226.342 263.04 -225.391 263.801 C-213.094 273.422 -193.353 287.513 -177.188 286.562 C-177.621 285.408 -178.054 284.253 -178.5 283.062 C-184.014 266.204 -185.236 249.24 -178.188 232.562 C-172.575 221.939 -164.354 215.611 -154.188 209.562 C-155.178 204.118 -155.178 204.118 -156.188 198.562 C-173.806 208.899 -188.344 222.743 -194.121 242.805 C-196.417 252.316 -196.867 261.825 -197.188 271.562 C-205.993 265.015 -214.248 258.136 -222.188 250.562 C-222.917 249.874 -223.647 249.186 -224.398 248.477 C-263.149 210.952 -288.547 153.969 -291.355 100.355 C-291.443 88.665 -290.902 75.1 -283.559 65.414 C-281.989 63.679 -281.989 63.679 -282.188 61.562 C-272.896 56.559 -264.944 56.617 -255.004 59.59 C-216.437 72.909 -186.706 107.828 -169.188 143.562 C-159.512 164.253 -154.65 185.946 -152.188 208.562 C-147.142 206.897 -142.113 205.206 -137.125 203.375 C-136.185 203.031 -135.246 202.687 -134.277 202.332 C-133.588 202.078 -132.898 201.824 -132.188 201.562 C-133.271 159.725 -149.409 118.925 -178.804 88.981 C-180.08 87.673 -181.325 86.336 -182.566 84.996 C-200.758 65.819 -231.248 43.68 -258.625 42.227 C-260.146 42.203 -261.667 42.19 -263.188 42.188 C-263.943 42.163 -264.698 42.139 -265.477 42.113 C-275.41 42.062 -283.315 47.461 -289.188 55.25 Z M-55.148 69.488 C-66.836 83.447 -69.895 102.124 -73.062 119.5 C-77.421 142.711 -81.667 164.753 -95.188 184.562 C-96.262 186.17 -97.335 187.778 -98.406 189.387 C-98.932 190.175 -99.457 190.964 -99.998 191.776 C-100.587 192.66 -100.587 192.66 -101.188 193.562 C-100.085 193.426 -100.085 193.426 -98.961 193.287 C-37.06 185.881 18.12 194.294 72.812 225.562 C71.83 220.391 70.3 215.429 68.717 210.416 C64.983 198.138 64.52 186.27 64.607 173.537 C64.625 170.766 64.627 167.996 64.627 165.225 C64.645 156.061 64.889 146.985 65.579 137.845 C66.86 119.85 67.65 98.588 55.427 83.897 C39.934 66.625 19.292 54.966 -4.152 53.359 C-21.322 53.089 -42.449 57.016 -55.148 69.488 Z M-270.188 89.562 C-269.86 90.737 -269.533 91.911 -269.195 93.121 C-267.688 99.904 -267.974 106.713 -268.062 113.625 C-268.073 114.981 -268.082 116.337 -268.09 117.693 C-268.113 120.983 -268.146 124.273 -268.188 127.562 C-266.207 126.903 -264.227 126.243 -262.188 125.562 C-262.595 107.949 -262.595 107.949 -265.188 90.562 C-266.837 90.233 -268.488 89.903 -270.188 89.562 Z M-258.188 136.562 C-262.366 143.905 -260.129 152.568 -258.172 160.359 C-256.749 164.988 -255.125 169.668 -252.188 173.562 C-250.115 174.383 -250.115 174.383 -248.188 174.562 C-246.884 172.915 -246.884 172.915 -246.188 170.562 C-247.169 167.592 -247.169 167.592 -248.875 164.5 C-253.358 155.349 -255.549 146.714 -256.188 136.562 C-256.847 136.562 -257.507 136.562 -258.188 136.562 Z M-188 138.562 C-192.089 141.128 -193.543 140.569 -198.188 139.562 C-205.952 138.208 -212.079 138.445 -218.941 142.633 C-223.72 146.25 -226.316 150.948 -228.188 156.562 C-228.858 163.985 -228.85 170.485 -224.188 176.562 C-219.083 182.164 -213.513 186.286 -205.777 186.688 C-198.524 186.329 -192.319 183.938 -187.328 178.559 C-183.593 173.73 -182.18 170.33 -182.062 164.188 C-181.68 159.119 -181.68 159.119 -179.566 156.73 C-177.625 155.375 -177.625 155.375 -174.188 153.562 C-174.798 149.529 -176.082 146.405 -178 142.812 C-178.501 141.848 -179.003 140.884 -179.52 139.891 C-180.973 137.463 -180.973 137.463 -183.211 136.609 C-185.494 136.358 -185.494 136.358 -188 138.562 Z M-168.141 228.613 C-175.135 236.887 -178.621 247.279 -178.395 258.117 C-176.904 275.724 -169.068 289.093 -157.188 301.562 C-156.103 302.711 -156.103 302.711 -154.996 303.883 C-111.922 345.647 -40.843 361.413 17.434 360.715 C50.661 359.975 89.204 352.961 113.812 328.562 C122.955 318.867 128.248 308.221 128.086 294.848 C126.75 278.793 115.715 265.09 103.896 254.912 C95.058 247.643 85.735 241.278 75.771 235.666 C73.71 234.505 71.662 233.323 69.613 232.141 C44.336 217.683 17.573 205.901 -11.188 200.562 C-12.055 200.4 -12.922 200.238 -13.815 200.071 C-59.062 192.073 -133.935 192.697 -168.141 228.613 Z " fill="#000000" transform="translate(486.1875,265.4375)"/>
<path d="M0 0 C-0.062 2.27 -0.062 2.27 -1 5 C-3.378 6.514 -5.436 7.605 -8 8.688 C-9.028 9.139 -9.028 9.139 -10.077 9.6 C-19.227 13.515 -30.1 16.451 -39.859 12.984 C-40.566 12.66 -41.272 12.335 -42 12 C-42 11.34 -42 10.68 -42 10 C-40.511 9.979 -40.511 9.979 -38.992 9.957 C-27.331 9.615 -17.842 7.095 -7.375 1.688 C-4 0 -4 0 0 0 Z " fill="#000000" transform="translate(373,333)"/>
<path d="M0 0 C0.99 0.66 1.98 1.32 3 2 C3.879 11.083 2.002 20.321 -3 28 C-4.32 27.67 -5.64 27.34 -7 27 C-6.353 20.042 -4.106 13.635 -2 7 C-1.313 4.672 -0.653 2.338 0 0 Z " fill="#000000" transform="translate(484,342)"/>
<path d="M0 0 C0.351 0.516 0.701 1.031 1.062 1.562 C-0.9 3.61 -2.365 4.512 -5.207 4.762 C-7.457 4.751 -9.691 4.692 -11.938 4.562 C-12.267 3.572 -12.598 2.582 -12.938 1.562 C-9.065 -0.761 -3.917 -2.906 0 0 Z " fill="#000000" transform="translate(355.9375,353.4375)"/>
<path d="M0 0 C2.125 0.375 2.125 0.375 4 1 C3.136 15.007 3.136 15.007 0 21 C-2.105 21.777 -2.105 21.777 -4 22 C-5.109 20.508 -5.109 20.508 -6 18 C-5.549 15.174 -5.005 12.615 -4.25 9.875 C-4.067 9.147 -3.884 8.418 -3.695 7.668 C-2.281 2.281 -2.281 2.281 0 0 Z " fill="#000000" transform="translate(495,353)"/>
<path d="M0 0 C0.99 0.33 1.98 0.66 3 1 C1.519 8.351 -1.432 14.741 -4.625 21.5 C-5.162 22.645 -5.699 23.791 -6.252 24.971 C-7.826 28.318 -9.413 31.659 -11 35 C-11.422 35.902 -11.845 36.805 -12.28 37.734 C-13.34 39.996 -14.416 42.25 -15.5 44.5 C-15.801 45.145 -16.102 45.79 -16.413 46.455 C-17.729 49.128 -18.671 50.792 -21.219 52.406 C-22.1 52.7 -22.1 52.7 -23 53 C-23.99 52.01 -24.98 51.02 -26 50 C-23.723 44.537 -21.211 39.23 -18.562 33.938 C-18.137 33.086 -17.711 32.234 -17.272 31.356 C-13.784 24.441 -10.145 17.613 -6.438 10.812 C-5.913 9.85 -5.388 8.888 -4.848 7.896 C-1.135 1.135 -1.135 1.135 0 0 Z " fill="#000000" transform="translate(622,389)"/>
<path d="M0 0 C0.66 0 1.32 0 2 0 C1.995 1.191 1.99 2.382 1.984 3.608 C1.966 8.029 1.955 12.45 1.945 16.87 C1.94 18.783 1.933 20.696 1.925 22.608 C1.912 25.359 1.907 28.109 1.902 30.859 C1.897 31.714 1.892 32.568 1.887 33.448 C1.887 34.249 1.887 35.049 1.886 35.874 C1.884 36.576 1.882 37.277 1.88 38 C2.007 40.11 2.486 41.955 3 44 C3.039 46.333 3.045 48.667 3 51 C1.02 51.495 1.02 51.495 -1 52 C-7.502 37.262 -5.163 16.208 -1 1 C-0.67 0.67 -0.34 0.34 0 0 Z " fill="#000000" transform="translate(513,400)"/>
<path d="M0 0 C0.66 0 1.32 0 2 0 C3.033 3.098 3.075 5.075 2.992 8.312 C2.964 9.914 2.964 9.914 2.936 11.547 C2.916 12.686 2.896 13.826 2.875 15 C2.765 24.356 3.248 33.21 5.109 42.387 C5.476 44.245 5.748 46.122 6 48 C5.34 48.66 4.68 49.32 4 50 C3.01 50 2.02 50 1 50 C-2.135 41.431 -2.186 33.064 -2.185 24.039 C-2.187 22.005 -2.206 19.971 -2.225 17.938 C-2.227 16.638 -2.228 15.339 -2.23 14 C-2.235 12.824 -2.239 11.649 -2.243 10.438 C-1.975 6.648 -1.16 3.604 0 0 Z " fill="#000000" transform="translate(525,409)"/>
<path d="M0 0 C3.988 2.607 6.009 5.939 7.25 10.5 C7.769 15.706 6.745 19.381 3.438 23.438 C0.074 27.095 -2.657 28.394 -7.625 28.875 C-13.103 28.722 -16.189 25.976 -20.062 22.312 C-22.409 18.402 -23.053 15.043 -22.75 10.5 C-21.53 5.94 -19.479 2.601 -15.5 0 C-10.261 -2.507 -5.239 -2.507 0 0 Z " fill="#000000" transform="translate(288.75,414.5)"/>
<path d="M0 0 C1.508 1.215 1.508 1.215 3 3 C3.556 9.585 1.44 16.929 -1 23 C-1.66 23.66 -2.32 24.32 -3 25 C-5.125 24.625 -5.125 24.625 -7 24 C-6.251 19.925 -5.2 15.983 -4.062 12 C-3.723 10.804 -3.384 9.608 -3.035 8.375 C-2.155 5.504 -1.167 2.764 0 0 Z " fill="#000000" transform="translate(442,416)"/>
<path d="M0 0 C0.99 0.33 1.98 0.66 3 1 C3.211 6.249 2.505 10.797 1.062 15.812 C0.88 16.48 0.698 17.147 0.51 17.834 C-0.181 20.322 -0.843 22.685 -2 25 C-3.65 24.67 -5.3 24.34 -7 24 C-6.403 16.534 -5.411 5.411 0 0 Z " fill="#000000" transform="translate(458,420)"/>
<path d="M0 0 C0.495 1.98 0.495 1.98 1 4 C-0.344 4.791 -0.344 4.791 -1.715 5.598 C-5.214 7.943 -7.348 10.904 -9.562 14.438 C-10.187 15.401 -10.187 15.401 -10.824 16.385 C-15.044 22.943 -19.082 29.618 -23.158 36.267 C-34.258 54.258 -34.258 54.258 -40 60 C-42.625 59.625 -42.625 59.625 -45 59 C-45.627 57.208 -45.627 57.208 -46 55 C-44.407 52.389 -42.782 50.05 -40.938 47.625 C-35.915 40.793 -31.252 33.811 -26.75 26.625 C-8.348 -2.591 -8.348 -2.591 0 0 Z " fill="#000000" transform="translate(640,429)"/>
<path d="M0 0 C1.32 0.33 2.64 0.66 4 1 C2.685 4.523 1.13 7.615 -0.863 10.801 C-1.421 11.696 -1.978 12.591 -2.553 13.514 C-3.133 14.437 -3.714 15.361 -4.312 16.312 C-4.882 17.225 -5.451 18.137 -6.037 19.076 C-7.159 20.872 -8.285 22.666 -9.417 24.456 C-10.435 26.092 -11.429 27.745 -12.392 29.416 C-12.813 30.138 -13.234 30.861 -13.668 31.605 C-14.025 32.24 -14.383 32.874 -14.751 33.528 C-16.378 35.446 -17.515 35.796 -20 36 C-20.66 35.34 -21.32 34.68 -22 34 C-21.801 29.183 -19.086 25.654 -16.438 21.812 C-15.767 20.824 -15.767 20.824 -15.084 19.815 C-11.823 15.058 -8.369 10.496 -4.691 6.051 C-3.063 4.077 -1.52 2.059 0 0 Z " fill="#000000" transform="translate(632,479)"/>
<path d="M0 0 C53.966 -1.358 113.908 9.585 154.461 47.895 C161.503 55.104 167.122 64.18 167.238 74.516 C166.672 84.049 162.881 90.334 156.008 96.848 C135.073 113.573 105.767 116.313 80.023 116.333 C78.821 116.334 78.821 116.334 77.594 116.335 C64.586 116.317 51.999 115.627 39.211 113.083 C38.308 112.906 37.405 112.729 36.474 112.546 C23.447 109.929 10.756 106.453 -1.789 102.083 C-2.601 101.801 -3.414 101.519 -4.25 101.229 C-32.773 91.185 -72.534 76.163 -86.789 47.083 C-88.609 42.382 -88.538 37.319 -86.953 32.586 C-81.455 20.464 -70.68 14.86 -58.789 10.083 C-39.871 3.252 -20.024 0.592 0 0 Z M46.211 11.083 C46.116 11.753 46.021 12.424 45.923 13.115 C45.478 16.17 45.001 19.22 44.523 22.27 C44.375 23.325 44.226 24.38 44.072 25.467 C43.092 31.562 42.308 35.141 37.211 39.083 C31.842 44.699 28.158 49.927 27.773 57.958 C28.035 65.144 30.628 70.682 35.461 75.958 C41.053 81.075 47.1 82.759 54.625 82.493 C61.889 81.341 67.485 77.559 72.055 71.926 C76.138 65.415 76.031 58.552 75.211 51.083 C73.651 46.67 71.599 43.265 68.027 40.223 C66.211 38.083 66.211 38.083 66.004 35.2 C66.199 33.595 66.199 33.595 66.398 31.958 C66.588 30.246 66.588 30.246 66.781 28.5 C66.923 27.373 67.065 26.245 67.211 25.083 C67.403 23.145 67.591 21.208 67.773 19.27 C67.918 17.874 68.063 16.478 68.211 15.083 C66.233 14.597 64.254 14.119 62.273 13.645 C60.62 13.245 60.62 13.245 58.934 12.836 C54.705 11.98 50.502 11.491 46.211 11.083 Z M-54.789 44.083 C-55.119 45.073 -55.449 46.063 -55.789 47.083 C-54.941 47.472 -54.093 47.861 -53.219 48.262 C-43.979 52.669 -35.952 57.93 -27.789 64.083 C-26.913 64.733 -26.036 65.384 -25.133 66.055 C-23.344 67.387 -21.565 68.733 -19.789 70.083 C-17.584 68.338 -17.584 68.338 -17.746 66.25 C-19.379 62.856 -22.378 61.333 -25.477 59.395 C-26.146 58.966 -26.815 58.537 -27.504 58.094 C-28.9 57.199 -30.299 56.308 -31.701 55.421 C-33.708 54.134 -35.683 52.809 -37.652 51.465 C-38.865 50.65 -40.077 49.835 -41.289 49.02 C-42.913 47.92 -42.913 47.92 -44.57 46.797 C-48.065 44.936 -50.867 44.404 -54.789 44.083 Z M-10.789 64.083 C-10.138 69.781 -7.383 72.81 -2.977 76.329 C9.581 85.761 9.581 85.761 24.211 89.083 C24.541 87.433 24.871 85.783 25.211 84.083 C24.077 83.608 22.942 83.134 21.773 82.645 C0.226 73 0.226 73 -7.441 65.297 C-8.734 63.859 -8.734 63.859 -10.789 64.083 Z " fill="#000000" transform="translate(419.7890625,488.91748046875)"/>
<path d="M0 0 C4.224 2.03 6.565 4.812 8.41 9.094 C9.68 13.941 9.309 18.723 7.094 23.238 C4.041 27.423 0.016 29.567 -4.992 30.375 C-9.261 30.332 -12.602 29.59 -15.859 26.742 C-20.194 21.785 -21.355 18.496 -21.27 11.914 C-20.716 6.845 -17.981 4.249 -14.305 1 C-9.44 -1.386 -5.188 -1.628 0 0 Z " fill="#000000" transform="translate(477.9921875,532.625)"/>
<path d="M0 0 C4.848 4.032 7.811 9.159 11.062 14.5 C15.65 22.016 15.65 22.016 21 29 C21.252 28.385 21.503 27.77 21.763 27.136 C22.915 24.336 24.082 21.543 25.25 18.75 C25.646 17.782 26.041 16.814 26.449 15.816 C26.842 14.882 27.236 13.947 27.641 12.984 C28.175 11.696 28.175 11.696 28.72 10.382 C30.162 7.698 31.667 5.955 34 4 C37.125 3.562 37.125 3.562 40 4 C42 7 42 7 41.791 10.226 C40.976 14.116 39.798 17.701 38.34 21.383 C37.941 22.416 37.941 22.416 37.535 23.47 C36.676 25.691 35.807 27.908 34.938 30.125 C34.044 32.421 33.152 34.717 32.26 37.014 C31.669 38.535 31.077 40.056 30.484 41.576 C28.783 45.944 27.132 50.324 25.535 54.73 C25.184 55.691 24.833 56.652 24.471 57.642 C23.845 59.364 23.229 61.089 22.625 62.819 C20.878 67.571 19.067 70.753 15 74 C11.5 74.625 11.5 74.625 8 74 C2.394 69.712 0.114 63.541 -2.75 57.25 C-3.722 55.15 -4.696 53.051 -5.672 50.953 C-6.096 50.027 -6.519 49.1 -6.956 48.146 C-7.822 46.069 -7.822 46.069 -9 45 C-9.191 45.701 -9.382 46.402 -9.579 47.124 C-10.457 50.315 -11.353 53.501 -12.25 56.688 C-12.55 57.79 -12.851 58.893 -13.16 60.029 C-13.463 61.096 -13.766 62.163 -14.078 63.262 C-14.35 64.241 -14.623 65.22 -14.903 66.229 C-16.167 69.421 -17.589 71.558 -20 74 C-23.688 73.938 -23.688 73.938 -27 73 C-29.963 67.073 -26.326 57.62 -24.637 51.547 C-24.403 50.684 -24.17 49.822 -23.93 48.933 C-23.19 46.203 -22.439 43.477 -21.688 40.75 C-21.195 38.939 -20.704 37.128 -20.213 35.316 C-19.262 31.814 -18.301 28.315 -17.33 24.818 C-16.493 21.805 -15.679 18.787 -14.893 15.76 C-14.564 14.524 -14.234 13.289 -13.895 12.016 C-13.621 10.961 -13.347 9.907 -13.066 8.821 C-10.55 2.161 -7.128 -0.839 0 0 Z M-2 18 C-3.865 20.957 -4.737 23.504 -5 27 C-3.249 32.354 -0.562 37.103 2.188 42 C2.91 43.346 3.629 44.694 4.346 46.043 C7.212 52.443 7.212 52.443 12 57 C12.516 55.824 13.031 54.649 13.562 53.438 C13.853 52.776 14.143 52.115 14.441 51.434 C16.104 44.191 12.725 39.282 9.033 33.258 C8.383 32.224 7.733 31.19 7.062 30.125 C6.093 28.539 6.093 28.539 5.104 26.922 C2.303 21.7 2.303 21.7 -2 18 Z " fill="#000000" transform="translate(281,628)"/>
<path d="M0 0 C0.66 0.33 1.32 0.66 2 1 C3.57 15.307 -1.959 29.502 -8.125 42.188 C-8.449 42.865 -8.773 43.542 -9.107 44.239 C-11.414 48.709 -11.414 48.709 -14.117 50.051 C-16 50 -16 50 -18 48 C-17.694 43.316 -16.122 40.003 -13.875 35.938 C-10.204 29.016 -7.76 21.828 -5.398 14.373 C-3.836 9.442 -2.13 4.716 0 0 Z " fill="#000000" transform="translate(488,659)"/>
<path d="M0 0 C2.062 0.438 2.062 0.438 4 1 C3.556 7.21 2.085 11.605 -1 17 C-2.65 16.67 -4.3 16.34 -6 16 C-5.531 10.374 -4.156 4.156 0 0 Z " fill="#000000" transform="translate(502,675)"/>
</svg>
