<?xml version="1.0" encoding="UTF-8"?>
<!-- Generator: visioncortex VTracer 0.6.0 -->
<svg version="1.1" xmlns="http://www.w3.org/2000/svg" width="847" height="847">
<path d="M0 0 C11.294 7.049 18.024 17.903 21.715 30.527 C28.415 60.979 15.404 90.646 -0.488 116.18 C-5.127 123.272 -10.25 130.013 -15.391 136.746 C-16.391 138.079 -17.392 139.412 -18.391 140.746 C0.604 137.559 0.604 137.559 14.754 125.551 C15.366 124.625 15.979 123.7 16.609 122.746 C17.604 121.409 18.602 120.074 19.609 118.746 C21.259 119.076 22.909 119.406 24.609 119.746 C24.072 123.613 23.024 125.717 20.609 128.746 C21.103 128.468 21.597 128.19 22.106 127.904 C24.351 126.651 26.605 125.417 28.859 124.184 C29.637 123.746 30.414 123.308 31.215 122.857 C32.346 122.244 32.346 122.244 33.5 121.617 C34.191 121.235 34.883 120.853 35.595 120.459 C38.01 119.604 39.23 119.904 41.609 120.746 C41.609 122.066 41.609 123.386 41.609 124.746 C21.803 136.502 -3.643 149.962 -27.391 145.746 C-28.876 147.726 -28.876 147.726 -30.391 149.746 C-20.593 157.142 -20.593 157.142 -9.297 161.207 C-6.19 160.668 -3.383 159.749 -0.391 158.746 C2.378 158.054 5.156 157.419 7.94 156.793 C9.891 156.353 11.839 155.898 13.782 155.426 C27.348 152.192 27.348 152.192 33.609 155.746 C38.219 160.356 39.602 165.264 39.621 171.719 C39.526 173.083 39.417 174.446 39.297 175.809 C39.224 176.83 39.224 176.83 39.15 177.873 C38.922 180.886 38.592 183.847 38.094 186.828 C37.211 192.149 36.884 197.389 37.609 202.746 C41.972 207.556 48.625 208.356 54.883 208.969 C57.493 209.068 60.004 208.945 62.609 208.746 C63.791 208.674 64.974 208.602 66.191 208.527 C74.65 207.499 78.751 205.638 84.047 199.059 C85.636 196.99 87.132 194.899 88.609 192.746 C90.259 193.076 91.909 193.406 93.609 193.746 C93.279 195.396 92.949 197.046 92.609 198.746 C91.949 198.746 91.289 198.746 90.609 198.746 C90.609 199.406 90.609 200.066 90.609 200.746 C91.517 200.23 92.424 199.715 93.359 199.184 C96.609 197.746 96.609 197.746 98.984 198.059 C99.789 198.399 99.789 198.399 100.609 198.746 C100.469 201.055 100.469 201.055 99.609 203.746 C89.677 210.383 75.089 214.911 63.09 214.844 C62.068 214.841 61.047 214.837 59.994 214.834 C58.939 214.826 57.884 214.817 56.797 214.809 C55.722 214.804 54.648 214.8 53.541 214.795 C50.897 214.783 48.253 214.767 45.609 214.746 C45.986 215.193 46.363 215.64 46.752 216.1 C54.531 225.353 62.018 234.597 68.609 244.746 C69.621 246.295 69.621 246.295 70.652 247.875 C92.448 282.234 103.488 323.557 95.137 364.037 C86.255 402.556 57.57 446.538 23.867 467.625 C-1.501 483.042 -31.953 489.226 -61.126 482.324 C-76.25 478.466 -89.743 472.482 -103.342 464.872 C-105.335 463.777 -107.35 462.749 -109.391 461.746 C-109.174 462.427 -108.957 463.107 -108.734 463.809 C-102.545 485.357 -108.219 509.988 -115.391 530.746 C-116.051 531.406 -116.711 532.066 -117.391 532.746 C-119.453 532.496 -119.453 532.496 -121.391 531.746 C-122.962 528.603 -121.508 526.381 -120.453 523.121 C-120.073 521.933 -119.693 520.744 -119.301 519.52 C-119 518.604 -118.7 517.689 -118.391 516.746 C-118.922 517.24 -119.453 517.734 -120 518.242 C-120.706 518.883 -121.413 519.524 -122.141 520.184 C-122.837 520.822 -123.533 521.46 -124.25 522.117 C-126.379 523.737 -127.781 524.329 -130.391 524.746 C-131.051 523.426 -131.711 522.106 -132.391 520.746 C-131.432 519.787 -131.432 519.787 -130.453 518.809 C-130.003 518.355 -129.553 517.901 -129.09 517.434 C-127.795 516.148 -126.482 514.88 -125.16 513.621 C-124.37 512.858 -123.58 512.095 -122.766 511.309 C-122.01 510.588 -121.255 509.867 -120.477 509.125 C-113.529 501.202 -112.872 489.432 -113.141 479.25 C-113.912 471.527 -115.451 463.198 -121.391 457.746 C-127.963 453.478 -133.732 452.604 -141.48 452.754 C-143.085 452.771 -144.69 452.788 -146.295 452.805 C-148.814 452.836 -151.333 452.871 -153.852 452.917 C-156.291 452.96 -158.729 452.983 -161.168 453.004 C-162.292 453.032 -162.292 453.032 -163.438 453.06 C-167.947 453.082 -170.816 452.554 -174.391 449.746 C-176.315 445.898 -175.889 441.542 -174.766 437.493 C-173.877 435.064 -172.906 432.688 -171.891 430.309 C-171.536 429.445 -171.182 428.582 -170.817 427.693 C-168.061 421.074 -165.044 414.58 -161.742 408.215 C-159.712 404.146 -159.142 402.082 -160.391 397.746 C-161.329 395.584 -162.331 393.449 -163.375 391.336 C-163.672 390.728 -163.97 390.12 -164.276 389.493 C-165.226 387.554 -166.182 385.618 -167.141 383.684 C-171.521 374.81 -175.716 365.944 -179.391 356.746 C-181.105 361.247 -182.728 365.748 -184.228 370.326 C-189.5 386.109 -196.614 402.227 -206.391 415.746 C-207.435 417.212 -207.435 417.212 -208.5 418.707 C-213.412 425.431 -218.682 431.689 -224.391 437.746 C-225.036 438.456 -225.682 439.167 -226.348 439.898 C-237.56 451.796 -253.806 459.787 -270.133 461.031 C-281.17 461.287 -290.566 460.005 -298.945 452.32 C-306.286 444.67 -308.051 435.446 -307.925 425.12 C-306.512 391.567 -288.2 358.627 -270.702 330.832 C-269.111 328.3 -267.538 325.758 -265.965 323.215 C-259.505 312.801 -252.95 302.456 -246.244 292.198 C-241.561 285.03 -236.96 277.811 -232.37 270.583 C-227.737 263.286 -223.076 256.009 -218.391 248.746 C-218.88 249.12 -219.37 249.493 -219.875 249.878 C-264.638 283.779 -264.638 283.779 -280.391 281.746 C-280.886 279.766 -280.886 279.766 -281.391 277.746 C-277.885 275.561 -274.35 273.74 -270.578 272.059 C-269.602 271.622 -268.626 271.185 -267.621 270.734 C-266.885 270.408 -266.149 270.082 -265.391 269.746 C-269.351 268.261 -269.351 268.261 -273.391 266.746 C-273.391 265.426 -273.391 264.106 -273.391 262.746 C-269.847 261.697 -266.92 261.946 -263.248 262.27 C-249.872 263.175 -241.728 257.629 -231.391 249.746 C-230.284 248.941 -229.178 248.136 -228.07 247.332 C-218.815 240.242 -210.997 232.563 -209.391 220.746 C-208.87 218.553 -208.328 216.366 -207.766 214.184 C-207.505 213.151 -207.245 212.119 -206.977 211.055 C-206.687 209.912 -206.687 209.912 -206.391 208.746 C-207 208.479 -207.61 208.212 -208.238 207.938 C-215.099 204.14 -216.759 194.899 -218.779 187.914 C-220.559 181.508 -221.521 175.552 -221.453 168.871 C-221.444 167.719 -221.435 166.566 -221.426 165.379 C-221.414 164.51 -221.403 163.641 -221.391 162.746 C-222.236 162.986 -223.082 163.226 -223.953 163.473 C-235.802 166.57 -235.802 166.57 -242.391 163.746 C-245.485 161.19 -248.24 158.657 -249.391 154.746 C-249.314 150.557 -248.856 148.367 -246.328 144.996 C-239.401 139.69 -231.969 139.166 -223.574 138.662 C-220.975 138.487 -220.975 138.487 -217.391 137.746 C-215.753 135.832 -215.753 135.832 -215.391 133.746 C-216.141 133.793 -216.891 133.839 -217.664 133.887 C-226.587 134.201 -232.923 132.573 -240.453 127.809 C-242.752 125.362 -243.475 124.114 -243.391 120.746 C-241.329 117.653 -239.766 116.857 -236.203 115.809 C-227.507 115.666 -221.249 119.802 -214.391 124.746 C-212.906 125.736 -212.906 125.736 -211.391 126.746 C-206.626 122.367 -204.392 117.459 -203.191 111.113 C-202.895 101.484 -209.848 91.84 -214.391 83.746 C-214.838 82.931 -215.285 82.115 -215.745 81.275 C-223.042 68.013 -231.24 55.381 -241.988 44.651 C-244.88 41.686 -245.391 41.112 -245.391 36.746 C-244.731 36.416 -244.071 36.086 -243.391 35.746 C-225.91 46.879 -215.647 68.102 -206.328 85.871 C-205.78 86.914 -205.232 87.956 -204.667 89.03 C-201.681 94.837 -199.27 100.491 -197.391 106.746 C-195.411 107.076 -193.431 107.406 -191.391 107.746 C-202.775 64.787 -202.775 64.787 -221.23 24.758 C-221.613 24.094 -221.996 23.43 -222.391 22.746 C-221.578 20.434 -221.578 20.434 -220.391 18.746 C-216.695 19.97 -215.385 21.994 -213.653 25.388 C-213.183 26.37 -213.183 26.37 -212.703 27.371 C-212.362 28.071 -212.021 28.771 -211.67 29.493 C-200.251 53.614 -192.099 79.959 -185.391 105.746 C-184.51 105.397 -183.63 105.047 -182.723 104.688 C-181.561 104.232 -180.4 103.777 -179.203 103.309 C-178.055 102.856 -176.906 102.404 -175.723 101.938 C-172.919 100.935 -170.319 100.226 -167.391 99.746 C-168.943 95.736 -170.694 91.836 -172.488 87.93 C-174.759 82.434 -175.316 77.23 -173.203 71.559 C-171.176 68.413 -169.619 66.653 -166.391 64.746 C-162.931 64.105 -160.679 64.016 -157.562 65.781 C-152.72 69.561 -150.028 74.277 -147.391 79.746 C-147.097 79.229 -146.803 78.712 -146.5 78.18 C-144.952 75.907 -143.63 74.359 -141.391 72.746 C-131.789 71.394 -122.25 75.432 -114.641 80.996 C-110.569 84.352 -106.964 88.104 -104.391 92.746 C-104.391 93.736 -104.391 94.726 -104.391 95.746 C-103.731 95.746 -103.071 95.746 -102.391 95.746 C-102.035 94.53 -102.035 94.53 -101.672 93.289 C-96.8 79.817 -88.178 67.597 -80.266 55.746 C-79.893 55.186 -79.52 54.627 -79.136 54.05 C-71.177 42.138 -62.674 30.663 -53.391 19.746 C-52.965 19.245 -52.54 18.745 -52.102 18.229 C-38.394 2.252 -21.121 -11.078 0 0 Z M-21.016 18.988 C-21.799 19.568 -22.583 20.148 -23.391 20.746 C-24.112 21.161 -24.834 21.576 -25.578 22.004 C-32.79 26.784 -33.399 34.374 -35.125 42.277 C-39.632 62.653 -48.701 81.586 -60.391 98.746 C-61.727 100.744 -63.059 102.745 -64.391 104.746 C-60.926 108.211 -60.926 108.211 -57.391 111.746 C-32.253 92.301 -17.62 50.689 -10.391 20.746 C-10.232 17.967 -10.232 17.967 -10.391 15.746 C-15.11 13.96 -17.223 16.206 -21.016 18.988 Z M-5.391 22.746 C-5.631 23.513 -5.871 24.281 -6.118 25.072 C-16.143 56.823 -27.817 92.068 -52.391 115.746 C-51.019 118.7 -49.402 121.186 -47.391 123.746 C-24.804 114.022 -10.21 76.511 -1.648 55.578 C2.818 43.806 1.793 36.607 -2.391 24.746 C-2.886 23.756 -2.886 23.756 -3.391 22.746 C-4.051 22.746 -4.711 22.746 -5.391 22.746 Z M-41.391 38.746 C-48.743 47.243 -54.877 56.26 -60.953 65.684 C-61.856 67.074 -62.759 68.464 -63.662 69.854 C-64.986 71.89 -66.31 73.927 -67.631 75.965 C-71.497 81.929 -75.43 87.846 -79.391 93.746 C-76.297 97.001 -73.495 98.88 -69.391 100.746 C-57.165 86.304 -48.591 68.31 -42.828 50.371 C-42.564 49.556 -42.301 48.741 -42.029 47.902 C-40.565 43.35 -40.565 43.35 -41.391 38.746 Z M0.609 63.746 C0.22 64.692 -0.169 65.638 -0.57 66.613 C-8.597 85.743 -18.612 103.955 -32.992 119.074 C-34.604 120.639 -34.604 120.639 -34.391 122.746 C-35.051 122.746 -35.711 122.746 -36.391 122.746 C-36.391 123.406 -36.391 124.066 -36.391 124.746 C-37.009 125.035 -37.628 125.324 -38.266 125.621 C-40.524 126.683 -40.524 126.683 -42.391 128.746 C-42.109 133.53 -39.604 137.598 -37.391 141.746 C-19.373 128.008 -7.278 103.21 -1.391 81.746 C-0.917 80.075 -0.917 80.075 -0.434 78.371 C0.918 73.336 1.756 68.985 1.609 63.746 C1.279 63.746 0.949 63.746 0.609 63.746 Z M-140.391 75.746 C-142.918 78.886 -144.328 80.931 -144.641 84.996 C-141.241 95.195 -132.564 102.068 -123.258 106.84 C-117.928 109.097 -112.406 109.952 -106.891 107.746 C-106.396 107.416 -105.901 107.086 -105.391 106.746 C-104.58 99.288 -107.465 93.699 -111.859 87.762 C-118.024 80.932 -126.517 76.718 -135.641 75.871 C-137.223 75.804 -138.807 75.752 -140.391 75.746 Z M-146.391 103.746 C-146.561 104.338 -146.731 104.929 -146.906 105.539 C-148.902 112.048 -150.911 116.504 -157.078 119.871 C-160.649 121.404 -160.649 121.404 -161.391 124.746 C-161.061 125.406 -160.731 126.066 -160.391 126.746 C-154.405 126.447 -150.551 123.847 -146.391 119.746 C-142.881 115.01 -140.616 110.787 -141.391 104.746 C-143.041 104.416 -144.691 104.086 -146.391 103.746 Z M-200.391 109.746 C-203.958 117.237 -203.645 127.357 -200.891 135.121 C-196.895 143.563 -190.975 149.254 -182.391 152.746 C-175.485 155.048 -168.839 153.815 -162.391 150.746 C-159.657 149.07 -157.101 147.491 -155.391 144.746 C-155.562 136.817 -161.844 132.222 -167.156 127.016 C-175.521 119.443 -188.882 109.746 -200.391 109.746 Z M-97.391 129.746 C-97.628 131.27 -97.628 131.27 -97.871 132.824 C-102.267 159.399 -118.887 181.013 -140.166 197.087 C-158.017 209.816 -177.396 216.774 -199.391 213.746 C-200.927 221.053 -201.749 228.031 -201.703 235.496 C-201.697 236.486 -201.692 237.475 -201.686 238.495 C-201.051 278.281 -186.933 316.606 -171.391 352.746 C-170.881 353.936 -170.372 355.126 -169.847 356.353 C-151.154 404.37 -151.154 404.37 -117.391 440.746 C-118.848 436.659 -120.856 433.347 -123.266 429.746 C-163.825 367.579 -186.522 294.285 -199.391 221.746 C-197.741 222.076 -196.091 222.406 -194.391 222.746 C-194.19 223.674 -193.99 224.603 -193.783 225.559 C-181.547 282.065 -166.527 338.309 -139.435 389.748 C-138.229 392.055 -137.057 394.376 -135.883 396.699 C-126.696 414.744 -116.013 431.517 -103.881 447.723 C-102.875 449.088 -101.899 450.474 -100.949 451.879 C-97.459 456.917 -94.067 459.695 -88.578 462.371 C-87.848 462.742 -87.119 463.112 -86.367 463.494 C-81.042 466.121 -75.599 468.357 -70.016 470.371 C-69.297 470.631 -68.578 470.891 -67.837 471.159 C-63.659 472.604 -63.659 472.604 -59.391 471.746 C-60.103 470.973 -60.816 470.199 -61.551 469.402 C-66.449 464.079 -71.325 458.747 -76.051 453.27 C-77.12 452.054 -78.246 450.89 -79.391 449.746 C-80.016 447.621 -80.016 447.621 -80.391 445.746 C-75.603 446.198 -73.375 447.132 -70.078 450.621 C-69.311 451.432 -68.544 452.243 -67.754 453.078 C-63.821 457.518 -60.104 462.123 -56.391 466.746 C-55.132 468.298 -53.862 469.841 -52.578 471.371 C-52.056 472.003 -51.534 472.634 -50.996 473.285 C-47.95 476.057 -44.596 475.867 -40.641 475.809 C-39.442 475.795 -39.442 475.795 -38.219 475.781 C-37.615 475.77 -37.012 475.758 -36.391 475.746 C-38.297 472.382 -40.296 469.61 -42.953 466.809 C-46.561 462.831 -49.765 458.666 -52.891 454.309 C-53.336 453.693 -53.782 453.078 -54.24 452.444 C-57.391 447.996 -57.391 447.996 -57.391 445.746 C-56.071 445.416 -54.751 445.086 -53.391 444.746 C-49.282 449.27 -45.262 453.839 -41.453 458.621 C-40.455 459.849 -40.455 459.849 -39.438 461.102 C-37.391 463.746 -37.391 463.746 -35.344 466.859 C-33.192 469.949 -31.346 472.406 -28.391 474.746 C-22.479 475.643 -17.094 474.238 -11.391 472.746 C-11.923 468.637 -14.077 466.664 -16.891 463.746 C-20.651 459.709 -24.221 455.625 -27.578 451.246 C-28.713 449.777 -28.713 449.777 -29.871 448.277 C-30.373 447.442 -30.874 446.607 -31.391 445.746 C-31.061 444.756 -30.731 443.766 -30.391 442.746 C-26.158 443.23 -24.435 445.515 -21.703 448.621 C-20.832 449.61 -19.96 450.599 -19.062 451.617 C-13.995 457.516 -9.018 463.494 -4.391 469.746 C19.233 466.378 39.325 444.463 52.891 426.441 C53.8 425.212 54.706 423.98 55.609 422.746 C56.102 422.077 56.594 421.407 57.102 420.718 C62.638 413.147 67.938 405.459 72.797 397.434 C73.172 396.818 73.546 396.201 73.932 395.567 C76.512 391.407 76.512 391.407 77.609 386.746 C76.651 384.7 76.651 384.7 75.109 382.621 C72.023 377.779 69.862 372.829 67.797 367.496 C67.344 366.343 67.344 366.343 66.883 365.167 C65.312 361.038 64.151 357.16 63.609 352.746 C65.259 352.746 66.909 352.746 68.609 352.746 C69.001 353.984 69.393 355.221 69.797 356.496 C72.457 364.477 75.681 372.303 79.609 379.746 C80.269 379.746 80.929 379.746 81.609 379.746 C83.446 374.925 84.735 370.75 82.855 365.735 C81.822 363.502 80.734 361.309 79.609 359.121 C78.852 357.632 78.102 356.14 77.359 354.645 C77.024 353.991 76.689 353.338 76.344 352.666 C75.609 350.746 75.609 350.746 75.609 346.746 C77.406 346.867 77.406 346.867 79.609 347.746 C81.312 350.469 81.312 350.469 82.859 353.809 C83.38 354.913 83.901 356.018 84.438 357.156 C85.018 358.438 85.018 358.438 85.609 359.746 C93.69 346.817 89.186 321.269 86.153 307.092 C77.155 268.248 54.989 238.408 28.316 209.676 C26.504 207.714 24.71 205.747 22.934 203.754 C11.68 191.167 -0.641 180.535 -14.391 170.746 C-14.975 170.327 -15.559 169.907 -16.161 169.475 C-35.797 155.486 -72.188 129.746 -97.391 129.746 Z M5.984 162.746 C4.885 163.032 3.785 163.318 2.652 163.613 C-0.032 164.313 -2.712 165.025 -5.391 165.746 C-1.878 169.355 1.792 172.658 5.672 175.871 C10.248 179.706 14.756 183.602 19.172 187.621 C20.122 188.485 21.072 189.348 22.051 190.238 C24.609 192.746 24.609 192.746 26.824 195.566 C27.708 196.645 27.708 196.645 28.609 197.746 C29.269 197.746 29.929 197.746 30.609 197.746 C31.118 194.081 31.615 190.414 32.109 186.746 C32.252 185.716 32.396 184.686 32.543 183.625 C34.42 171.76 34.42 171.76 30.609 160.746 C23.326 157.105 13.296 160.774 5.984 162.746 Z M-206.391 184.746 C-205.199 193.446 -198.052 200.395 -192.391 206.746 C-191.401 205.756 -190.411 204.766 -189.391 203.746 C-189.744 203.277 -190.097 202.808 -190.46 202.325 C-192.063 200.195 -193.664 198.064 -195.266 195.934 C-195.821 195.196 -196.377 194.458 -196.949 193.697 C-197.752 192.629 -197.752 192.629 -198.57 191.539 C-199.063 190.884 -199.555 190.23 -200.062 189.555 C-201.216 187.984 -202.309 186.368 -203.391 184.746 C-204.381 184.746 -205.371 184.746 -206.391 184.746 Z M-212.391 268.746 C-213.602 270.322 -213.602 270.322 -214.762 272.434 C-215.244 273.262 -215.727 274.09 -216.224 274.943 C-217.018 276.33 -217.018 276.33 -217.828 277.746 C-218.998 279.76 -220.168 281.773 -221.34 283.785 C-221.982 284.893 -222.625 286 -223.287 287.142 C-225.552 291.033 -227.854 294.902 -230.16 298.77 C-230.571 299.459 -230.982 300.149 -231.406 300.859 C-233.047 303.612 -234.688 306.364 -236.332 309.115 C-274.643 368.793 -274.643 368.793 -287.391 435.746 C-286.205 438.515 -286.205 438.515 -283.391 439.746 C-279.935 439.926 -276.751 439.549 -273.391 438.746 C-271.575 438.328 -271.575 438.328 -269.723 437.902 C-265.926 435.445 -265.797 434.947 -264.859 430.75 C-264.509 428.607 -264.188 426.459 -263.891 424.309 C-263.495 421.929 -263.092 419.55 -262.684 417.172 C-262.477 415.942 -262.269 414.711 -262.056 413.444 C-256.595 383.102 -246.006 353.778 -233.391 325.746 C-232.772 324.357 -232.772 324.357 -232.142 322.94 C-227.972 313.63 -223.499 304.801 -218.059 296.164 C-212.179 286.803 -208.12 280.119 -210.391 268.746 C-211.051 268.746 -211.711 268.746 -212.391 268.746 Z M-209.391 291.746 C-232.739 329.012 -260.406 387.605 -259.391 432.746 C-252.374 429.221 -246.251 424.974 -240.391 419.746 C-239.657 419.199 -238.924 418.652 -238.169 418.088 C-231.288 412.358 -229.992 406.624 -229.128 398.12 C-229.059 397.335 -228.99 396.55 -228.919 395.741 C-228.55 391.585 -228.043 387.444 -227.555 383.301 C-227.461 382.477 -227.367 381.653 -227.27 380.804 C-224.647 358.293 -218.129 335.405 -208.266 314.996 C-205.434 309.066 -204.939 304.633 -206.512 298.199 C-207.323 295.936 -208.25 293.86 -209.391 291.746 Z M-203.391 316.746 C-214.407 343.233 -222.553 370.978 -224.391 399.746 C-220.949 398.599 -220.669 398.06 -218.859 395.082 C-218.384 394.301 -217.908 393.52 -217.418 392.715 C-216.914 391.859 -216.41 391.003 -215.891 390.121 C-215.103 388.794 -215.103 388.794 -214.299 387.439 C-208.331 377.197 -203.222 366.564 -198.391 355.746 C-198.069 355.026 -197.747 354.307 -197.416 353.565 C-193.673 345.04 -192.849 340.565 -196.238 331.785 C-196.97 329.978 -197.709 328.173 -198.453 326.371 C-198.83 325.444 -199.207 324.517 -199.596 323.562 C-200.522 321.288 -201.454 319.016 -202.391 316.746 C-202.721 316.746 -203.051 316.746 -203.391 316.746 Z M-155.391 407.746 C-157.168 411.722 -158.936 415.703 -160.703 419.684 C-161.203 420.801 -161.702 421.918 -162.217 423.068 C-168.039 434.504 -168.039 434.504 -168.391 446.746 C-167.347 446.736 -166.304 446.725 -165.229 446.714 C-161.321 446.678 -157.412 446.655 -153.504 446.636 C-151.82 446.626 -150.135 446.613 -148.45 446.595 C-146.015 446.571 -143.58 446.56 -141.145 446.551 C-140.404 446.54 -139.663 446.53 -138.899 446.52 C-133.51 446.518 -128.602 447.395 -123.391 448.746 C-124.252 447.756 -125.113 446.766 -126 445.746 C-129.343 441.842 -132.518 437.828 -135.641 433.746 C-136.199 433.016 -136.758 432.287 -137.333 431.535 C-149.569 415.389 -149.569 415.389 -153.391 407.746 C-154.051 407.746 -154.711 407.746 -155.391 407.746 Z " fill="#000000" transform="translate(560.390625,188.25390625)"/>
<path d="M0 0 C3.325 1.713 3.834 4.684 5.062 8.062 C5.51 7.69 5.957 7.317 6.418 6.934 C11.418 3.021 11.418 3.021 15 3.25 C16.021 3.652 16.021 3.652 17.062 4.062 C16.758 7.308 16.5 8.682 13.996 10.863 C13.172 11.362 12.349 11.861 11.5 12.375 C10.674 12.887 9.847 13.399 8.996 13.926 C8.358 14.301 7.72 14.676 7.062 15.062 C8.523 17.566 9.9 19.877 11.812 22.062 C13.062 24.062 13.062 24.062 12.75 26.812 C12.523 27.555 12.296 28.298 12.062 29.062 C9.875 29 9.875 29 7.062 28.062 C5.131 25.891 3.58 23.536 2.062 21.062 C-0.909 22.187 -3.272 23.285 -5.938 25.062 C-8.125 24.688 -8.125 24.688 -9.938 24.062 C-10.625 22.25 -10.625 22.25 -10.938 20.062 C-9.625 18.312 -9.625 18.312 -7.938 17.062 C-7.277 17.062 -6.618 17.062 -5.938 17.062 C-7.842 14.841 -9.296 13.894 -12 12.625 C-15.048 11.004 -15.839 10.247 -16.938 7.062 C-16.277 6.402 -15.618 5.743 -14.938 5.062 C-10.529 5.356 -7.574 6.602 -3.938 9.062 C-3.979 7.949 -4.02 6.835 -4.062 5.688 C-3.871 0.125 -3.871 0.125 0 0 Z " fill="#000000" transform="translate(272.9375,265.9375)"/>
<path d="M0 0 C4.6 2.2 4.6 2.2 6 5 C6.375 7.875 6.375 7.875 6 11 C3.938 13.438 3.938 13.438 1 15 C-3.365 15.078 -5.434 14.401 -9 11.875 C-11 9 -11 9 -11 5.312 C-9.2 -0.65 -5.597 -0.483 0 0 Z " fill="#000000" transform="translate(433,268)"/>
<path d="M0 0 C4.165 2.678 6.32 5.333 8 10 C8 13.188 8 13.188 7 16 C4.875 18 4.875 18 2 19 C-2.499 18.438 -4.555 17.416 -7.875 14.312 C-10.237 10.631 -11 8.362 -11 4 C-8.415 -0.912 -5.116 -1.583 0 0 Z " fill="#000000" transform="translate(375,307)"/>
<path d="M0 0 C10.371 2.93 20.784 12.088 28 20 C28.77 22.262 28.77 22.262 29 24 C26.875 24.805 26.875 24.805 24 25 C21.761 23.448 19.961 21.976 18 20.125 C11.692 14.46 5.065 9.683 -2 5 C-1.125 1.125 -1.125 1.125 0 0 Z " fill="#000000" transform="translate(472,325)"/>
<path d="M0 0 C4.576 3.64 8.573 7.613 12.5 11.938 C17.175 17.079 21.966 22.081 26.875 27 C27.493 27.623 28.111 28.245 28.748 28.886 C32.348 32.475 36.045 35.807 40 39 C39.67 40.32 39.34 41.64 39 43 C37.352 43.801 37.352 43.801 35 44 C32.901 42.471 31.207 41 29.375 39.188 C28.824 38.659 28.273 38.131 27.705 37.587 C25.789 35.739 23.894 33.87 22 32 C21.257 31.276 20.514 30.552 19.748 29.806 C17.365 27.483 14.993 25.15 12.625 22.812 C11.502 21.71 11.502 21.71 10.357 20.585 C-0.244 9.996 -0.244 9.996 -3 5 C-2.806 2.8 -2.806 2.8 -2 1 C-1.34 0.67 -0.68 0.34 0 0 Z " fill="#000000" transform="translate(473,333)"/>
<path d="M0 0 C10.809 6.316 19.678 17.289 23.383 29.262 C24.427 37.485 23.795 45.3 18.883 52.199 C16.214 55.292 13.582 56.984 9.633 58.199 C0.421 58.199 -6.626 54.618 -13.117 48.199 C-22.125 37.589 -26.101 26.01 -25.117 12.199 C-23.401 6.747 -19.721 3.411 -15.117 0.199 C-10.198 -1.441 -4.928 -1.864 0 0 Z M-10.117 28.199 C-9.677 32.963 -7.882 34.877 -4.367 38.012 C-3.506 38.802 -2.645 39.592 -1.758 40.406 C1.136 42.371 2.467 42.611 5.883 42.199 C5.883 41.209 5.883 40.219 5.883 39.199 C4.024 37.421 4.024 37.421 1.633 35.762 C-0.87 33.934 -3.089 32.229 -5.227 29.977 C-7.049 27.857 -7.049 27.857 -10.117 28.199 Z " fill="#000000" transform="translate(245.1171875,344.80078125)"/>
<path d="M0 0 C3.408 0.277 4.786 0.794 7.289 3.195 C8.06 4.162 8.831 5.129 9.625 6.125 C10.262 6.92 10.262 6.92 10.912 7.731 C12.294 9.473 13.65 11.233 15 13 C15.463 13.603 15.926 14.206 16.402 14.827 C21.442 21.435 26.277 28.181 30.75 35.188 C31.405 36.212 32.06 37.237 32.734 38.293 C34 41 34 41 33.703 43.363 C33.471 43.903 33.239 44.444 33 45 C31.02 45.495 31.02 45.495 29 46 C28.126 44.654 28.126 44.654 27.234 43.281 C22.641 36.267 17.912 29.391 12.875 22.688 C12.372 22.017 11.87 21.347 11.352 20.657 C7.819 15.989 4.124 11.488 0.23 7.113 C-1 5 -1 5 -0.699 2.23 C-0.468 1.494 -0.238 0.758 0 0 Z " fill="#000000" transform="translate(466,346)"/>
<path d="M0 0 C3.84 0.526 5.872 1.358 8.672 4.027 C9.332 4.65 9.993 5.273 10.673 5.915 C11.358 6.582 12.044 7.25 12.75 7.938 C13.458 8.615 14.166 9.293 14.895 9.992 C29.216 23.822 29.216 23.822 33 31 C32.688 33.312 32.688 33.312 32 35 C29.746 35.289 29.746 35.289 27 35 C24.973 33.023 24.973 33.023 23.062 30.375 C20.687 27.193 18.38 24.237 15.5 21.5 C14.263 20.262 14.263 20.262 13 19 C13 18.34 13 17.68 13 17 C12.459 16.786 11.917 16.572 11.359 16.352 C8.161 14.519 5.79 12.002 3.25 9.375 C2.743 8.859 2.237 8.344 1.715 7.812 C0.472 6.546 -0.765 5.274 -2 4 C-1.34 2.68 -0.68 1.36 0 0 Z " fill="#000000" transform="translate(517,356)"/>
<path d="M0 0 C3.318 0.32 4.84 1.49 6.938 4 C10.126 7.945 13.225 12.222 15 17 C14.629 19.27 14.629 19.27 14 21 C11.723 20.82 11.723 20.82 9 20 C7.121 17.742 7.121 17.742 5.438 14.875 C4.847 13.886 4.257 12.898 3.648 11.879 C3.104 10.929 2.56 9.979 2 9 C1.559 8.246 1.118 7.492 0.664 6.715 C-0.241 5.153 -1.123 3.578 -2 2 C-1.34 1.34 -0.68 0.68 0 0 Z " fill="#000000" transform="translate(446,375)"/>
<path d="M0 0 C2.328 0.16 2.328 0.16 5 1 C6.484 3.371 6.484 3.371 7.75 6.438 C13.662 19.154 23.394 27.052 36.25 32.141 C38 33 38 33 39 35 C38.34 35.99 37.68 36.98 37 38 C25.831 37.579 17.731 31.566 10.227 23.656 C6.92 19.712 4.393 15.542 2 11 C1.361 9.907 0.721 8.814 0.062 7.688 C-1.151 4.619 -1.003 3.101 0 0 Z " fill="#000000" transform="translate(191,379)"/>
<path d="M0 0 C4.717 0.846 6.585 3.727 9.375 7.375 C9.895 8.041 10.414 8.706 10.95 9.392 C17.471 17.8 23.778 26.369 30 35 C30.517 35.716 31.033 36.431 31.565 37.168 C40.376 49.434 48.739 62.006 57.125 74.562 C57.672 75.38 58.219 76.198 58.783 77.041 C62 81.855 65.196 86.683 68.371 91.525 C69.495 93.233 70.626 94.936 71.762 96.635 C73.5 99.235 75.217 101.848 76.93 104.465 C77.469 105.262 78.008 106.06 78.564 106.882 C79.046 107.626 79.527 108.37 80.023 109.136 C80.454 109.788 80.885 110.439 81.33 111.11 C82 113 82 113 81.124 115.241 C80.753 115.822 80.382 116.402 80 117 C77.465 116.639 76.265 116.286 74.5 114.383 C74.005 113.638 73.51 112.893 73 112.125 C72.389 111.211 71.778 110.297 71.148 109.355 C68.101 104.596 65.106 99.804 62.107 95.013 C51.358 77.943 39.745 61.397 28 45 C27.48 44.273 26.96 43.545 26.424 42.796 C20.066 33.916 13.633 25.099 7.045 16.388 C3.96 12.306 0.958 8.175 -2 4 C-1.34 2.68 -0.68 1.36 0 0 Z " fill="#000000" transform="translate(551,379)"/>
<path d="M0 0 C2.141 0.016 2.141 0.016 5 1 C7.245 3.362 8.971 6.027 10.75 8.75 C11.244 9.467 11.737 10.183 12.246 10.922 C14.679 14.547 16.614 17.539 17 22 C14.525 22.495 14.525 22.495 12 23 C11.492 22.299 10.984 21.598 10.461 20.875 C6.354 15.214 2.219 9.578 -2 4 C-1.34 2.68 -0.68 1.36 0 0 Z " fill="#000000" transform="translate(435,383)"/>
<path d="M0 0 C2.383 0.117 2.383 0.117 5 1 C6.555 3.258 6.555 3.258 7.875 6.125 C12.538 15.261 18.41 20.318 28 24 C31.969 25.167 35.953 26.145 40 27 C40 28.65 40 30.3 40 32 C32.234 34.051 24.474 31.121 17.688 27.25 C8.954 21.549 1.771 13.728 -0.938 3.438 C-0.958 2.633 -0.979 1.829 -1 1 C-0.67 0.67 -0.34 0.34 0 0 Z " fill="#000000" transform="translate(173,403)"/>
<path d="M0 0 C2.318 1.616 3.651 3.084 5.129 5.484 C6.201 12.183 3.262 16.816 0.129 22.484 C-0.544 23.815 -1.213 25.147 -1.871 26.484 C2.022 30.984 5.976 35.417 10.004 39.797 C14.101 44.289 17.99 48.903 21.805 53.637 C23.802 56.083 25.844 58.48 27.912 60.866 C40.618 75.592 51.923 91.602 63.129 107.484 C63.747 108.359 63.747 108.359 64.377 109.251 C67.129 113.24 67.129 113.24 67.129 115.484 C71.34 113.201 74.593 110.293 78.004 106.984 C82.792 102.454 87.748 98.318 93.066 94.422 C93.68 93.969 94.295 93.517 94.927 93.051 C103.931 86.572 103.931 86.572 109.254 86.359 C112.553 87.65 113.609 89.113 115.27 92.207 C122.979 112.636 118.682 136.972 110.129 156.484 C108.032 160.354 105.681 163.907 103.129 167.484 C102.139 169.134 101.149 170.784 100.129 172.484 C104.089 179.414 108.049 186.344 112.129 193.484 C111.469 194.474 110.809 195.464 110.129 196.484 C107.487 196.126 106.395 195.805 104.665 193.719 C104.225 192.97 103.785 192.221 103.332 191.449 C102.849 190.64 102.365 189.831 101.867 188.998 C101.376 188.148 100.885 187.298 100.379 186.422 C99.872 185.568 99.366 184.714 98.844 183.834 C97.594 181.724 96.357 179.607 95.129 177.484 C94.56 177.803 93.991 178.122 93.404 178.451 C63.488 195.151 63.488 195.151 49.184 191.793 C39.155 188.728 30.055 183.355 22.129 176.484 C20.723 173.672 20.899 171.606 21.129 168.484 C25.046 159.657 32.337 152.266 38.694 145.107 C40.013 143.615 41.312 142.105 42.609 140.594 C43.317 139.774 44.025 138.954 44.754 138.109 C45.365 137.4 45.976 136.691 46.605 135.961 C48.129 134.484 48.129 134.484 50.129 134.484 C50.5 133.607 50.5 133.607 50.879 132.711 C52.313 130.156 53.886 128.731 56.129 126.859 C58.206 125.111 60.209 123.405 62.129 121.484 C61.98 116.576 59.068 113.277 56.191 109.547 C55.181 108.206 54.172 106.865 53.164 105.523 C52.654 104.848 52.143 104.173 51.618 103.478 C49.394 100.501 47.266 97.461 45.129 94.422 C40.038 87.247 34.636 80.342 29.129 73.484 C28.614 72.842 28.1 72.2 27.569 71.538 C16.528 57.782 5.144 44.399 -6.871 31.484 C-8.834 32.448 -10.767 33.424 -12.66 34.52 C-17.899 37.451 -22.84 38.737 -28.871 38.484 C-32.502 37.296 -34.238 36.202 -36.746 33.359 C-39.495 26.335 -37.844 19.953 -35.141 13.133 C-31.857 6.284 -27.307 1.019 -20.684 -2.766 C-12.933 -4.832 -7.04 -3.661 0 0 Z M-32.871 28.484 C-32.541 29.804 -32.211 31.124 -31.871 32.484 C-30.221 32.154 -28.571 31.824 -26.871 31.484 C-27.201 30.494 -27.531 29.504 -27.871 28.484 C-29.521 28.484 -31.171 28.484 -32.871 28.484 Z M101.129 99.484 C101.129 100.804 101.129 102.124 101.129 103.484 C102.449 103.154 103.769 102.824 105.129 102.484 C104.799 101.494 104.469 100.504 104.129 99.484 C103.139 99.484 102.149 99.484 101.129 99.484 Z M39.129 174.484 C39.129 175.804 39.129 177.124 39.129 178.484 C41.223 180.334 41.223 180.334 43.941 181.797 C44.835 182.329 45.728 182.862 46.648 183.41 C49.185 184.836 49.185 184.836 52.129 183.484 C52.089 181.561 52.089 181.561 51.129 179.484 C48.262 177.801 48.262 177.801 45.129 176.484 C44.139 175.824 43.149 175.164 42.129 174.484 C41.139 174.484 40.149 174.484 39.129 174.484 Z " fill="#000000" transform="translate(494.87109375,410.515625)"/>
<path d="M0 0 C1.65 0.33 3.3 0.66 5 1 C5.375 2.183 5.75 3.367 6.137 4.586 C9.823 16.105 9.823 16.105 15.117 26.957 C16.182 29.422 16.158 31.342 16 34 C14.02 34.495 14.02 34.495 12 35 C6.337 26.587 -2.193 12.736 -0.57 2.215 C-0.382 1.484 -0.194 0.753 0 0 Z " fill="#000000" transform="translate(388,412)"/>
<path d="M0 0 C2.34 0.156 2.34 0.156 5 1 C6.441 3.406 6.441 3.406 7.562 6.5 C7.97 7.584 8.377 8.668 8.797 9.785 C9.194 10.846 9.591 11.907 10 13 C10.758 14.652 11.527 16.298 12.312 17.938 C13.737 21.085 14.453 23.487 14 27 C12.35 27.33 10.7 27.66 9 28 C7.702 24.982 6.412 21.96 5.125 18.938 C4.76 18.09 4.395 17.242 4.02 16.369 C2.011 11.639 0.136 7.02 -1 2 C-0.67 1.34 -0.34 0.68 0 0 Z " fill="#000000" transform="translate(374,414)"/>
<path d="M0 0 C3.126 0.183 3.996 0.996 6.105 3.363 C7.136 4.823 7.136 4.823 8.188 6.312 C9.23 7.761 9.23 7.761 10.293 9.238 C12.79 13.278 12.79 13.278 13 16 C12.34 16.66 11.68 17.32 11 18 C9.105 17.953 9.105 17.953 7 17 C5.113 14.672 5.113 14.672 3.312 11.75 C2.711 10.796 2.109 9.842 1.488 8.859 C0.074 6.143 -0.683 4.033 -1 1 C-0.67 0.67 -0.34 0.34 0 0 Z " fill="#000000" transform="translate(594,416)"/>
<path d="M0 0 C11.911 5.956 19.895 13.108 26 25 C27.976 30.928 28.039 37.617 25.312 43.312 C20.999 50.64 16.003 55.766 8 59 C-2.229 60.638 -10.355 58.072 -18.625 52.188 C-20.427 50.805 -22.22 49.41 -24 48 C-25.011 47.238 -25.011 47.238 -26.043 46.461 C-31.467 42.175 -35.802 36.594 -38 30 C-39.07 20.595 -36.564 12.224 -31.062 4.562 C-22.079 -6.508 -12.13 -5.542 0 0 Z M-14 3 C-14.33 3.99 -14.66 4.98 -15 6 C-13.749 6.619 -13.749 6.619 -12.473 7.25 C-1.435 12.914 6.585 19.132 13 30 C13.99 29.67 14.98 29.34 16 29 C15.038 20.421 6.284 13.795 -0.02 8.473 C-4.537 5.114 -8.326 3 -14 3 Z M-29 31 C-29.437 35.019 -29.437 35.019 -26.945 37.367 C-17.899 45.411 -8.673 53.497 4 53 C4 52.01 4 51.02 4 50 C2.961 49.587 1.922 49.175 0.852 48.75 C-8.783 44.806 -16.882 40.512 -24.078 32.762 C-25.934 30.662 -25.934 30.662 -29 31 Z " fill="#000000" transform="translate(556,427)"/>
<path d="M0 0 C1.32 0 2.64 0 4 0 C5.704 3.43 7.385 6.87 9.062 10.312 C9.79 11.777 9.79 11.777 10.533 13.271 C10.988 14.209 11.442 15.147 11.91 16.113 C12.334 16.977 12.759 17.841 13.196 18.732 C14 21 14 21 13 24 C10.656 23.757 10.656 23.757 8 23 C6.59 21.206 6.59 21.206 5.508 18.887 C5.113 18.051 4.719 17.215 4.312 16.354 C3.921 15.474 3.529 14.594 3.125 13.688 C2.71 12.819 2.295 11.951 1.867 11.057 C-1.398 3.965 -1.398 3.965 0 0 Z " fill="#000000" transform="translate(425,434)"/>
<path d="M0 0 C4.618 1.376 6.418 3.39 9.125 7.312 C9.788 8.257 10.45 9.202 11.133 10.176 C11.749 11.108 12.365 12.04 13 13 C13.862 14.29 13.862 14.29 14.742 15.605 C16 18 16 18 16 22 C14.68 22.33 13.36 22.66 12 23 C10.032 20.445 8.078 17.879 6.125 15.312 C5.292 14.231 5.292 14.231 4.441 13.127 C1.729 9.549 -0.646 6.345 -2 2 C-1.34 1.34 -0.68 0.68 0 0 Z " fill="#000000" transform="translate(616,454)"/>
<path d="M0 0 C2.973 0.314 3.954 0.952 6.043 3.16 C10.389 9.042 14.361 15.026 18 21.375 C18.386 22.04 18.771 22.705 19.169 23.391 C21.32 27.26 22.556 30.52 23 35 C21.02 35.495 21.02 35.495 19 36 C15.93 32.368 13.592 28.668 11.312 24.5 C7.327 17.334 2.777 10.657 -2 4 C-1.34 2.68 -0.68 1.36 0 0 Z " fill="#000000" transform="translate(415,469)"/>
<path d="M0 0 C3.92 1.307 5.086 3.655 7.188 7 C7.575 7.613 7.963 8.226 8.363 8.857 C11.403 13.785 14.098 18.854 16.625 24.062 C16.98 24.776 17.334 25.489 17.7 26.225 C19.554 30.187 20.495 32.787 19 37 C16.742 36.957 16.742 36.957 14 36 C12.457 33.54 11.286 31.319 10.125 28.688 C9.441 27.228 8.753 25.769 8.062 24.312 C7.55 23.222 7.55 23.222 7.027 22.109 C4.134 16.169 0.662 10.493 -3 5 C-2.75 2.875 -2.75 2.875 -2 1 C-1.34 0.67 -0.68 0.34 0 0 Z " fill="#000000" transform="translate(404,478)"/>
<path d="M0 0 C5.281 3.982 8.78 8.43 10 15 C11.059 25.206 9.648 34.625 3.312 42.938 C-1.796 48.277 -8.789 50.703 -16.07 51.156 C-30.443 50.39 -42.454 44.471 -52.344 34.055 C-57.884 27.182 -59.909 19.726 -59 11 C-56.948 4.077 -51.999 -1.533 -45.91 -5.289 C-30.766 -13.129 -13.894 -8.444 0 0 Z M-50 21 C-50 26.096 -48.592 27.232 -45.262 30.832 C-39.425 36.427 -33.415 42 -25 42 C-25 41.01 -25 40.02 -25 39 C-27.221 37.278 -27.221 37.278 -30.062 35.688 C-35.927 32.107 -40.997 28.559 -45.25 23.125 C-45.827 22.424 -46.405 21.723 -47 21 C-47.99 21 -48.98 21 -50 21 Z " fill="#000000" transform="translate(524,490)"/>
<path d="M0 0 C2.25 0.062 2.25 0.062 5 1 C6.861 3.249 7.781 5.28 9 8 C8.67 8.99 8.34 9.98 8 11 C5.75 10.938 5.75 10.938 3 10 C1.139 7.751 0.219 5.72 -1 3 C-0.67 2.01 -0.34 1.02 0 0 Z " fill="#000000" transform="translate(632,509)"/>
<path d="M0 0 C3.393 1.594 4.052 4.748 5.324 8.066 C7.836 14.22 10.651 20.045 13.949 25.816 C14.334 26.491 14.719 27.166 15.116 27.862 C16.715 30.635 18.361 33.34 20.137 36.004 C19.762 38.191 19.762 38.191 19.137 40.004 C17.817 40.004 16.497 40.004 15.137 40.004 C9.025 33.742 5.346 24.936 1.637 17.129 C1.088 16.015 0.538 14.901 -0.027 13.754 C-0.54 12.684 -1.053 11.614 -1.582 10.512 C-2.045 9.549 -2.509 8.586 -2.986 7.594 C-3.925 4.822 -3.959 3.675 -2.863 1.004 C-1.863 0.004 -1.863 0.004 0 0 Z " fill="#000000" transform="translate(445.86328125,544.99609375)"/>
<path d="M0 0 C1.871 0.162 1.871 0.162 4 1 C5.568 2.914 5.568 2.914 7.059 5.41 C7.61 6.318 8.161 7.226 8.729 8.162 C9.574 9.598 9.574 9.598 10.438 11.062 C11.561 12.928 12.685 14.794 13.809 16.66 C14.343 17.565 14.878 18.47 15.429 19.403 C17.257 22.425 19.215 25.347 21.235 28.244 C22.226 30.518 21.808 31.708 21 34 C17.86 33.697 16.366 33.37 14.113 31.094 C10.023 25.202 6.161 19.193 2.438 13.062 C1.757 11.962 1.757 11.962 1.062 10.84 C0.441 9.792 0.441 9.792 -0.191 8.723 C-0.565 8.101 -0.938 7.48 -1.323 6.84 C-2.181 4.508 -1.849 3.3 -1 1 C-0.67 0.67 -0.34 0.34 0 0 Z " fill="#000000" transform="translate(432,551)"/>
<path d="M0 0 C2.793 0.348 3.83 0.812 5.746 2.934 C16.323 18.592 16.323 18.592 15.625 23.793 C15.316 24.885 15.316 24.885 15 26 C13.68 26 12.36 26 11 26 C10.469 24.987 9.938 23.974 9.391 22.93 C8.677 21.578 7.964 20.226 7.25 18.875 C6.902 18.21 6.554 17.545 6.195 16.859 C4.51 13.677 2.793 10.634 0.719 7.688 C-1 5 -1 5 -0.75 2.125 C-0.502 1.424 -0.255 0.722 0 0 Z " fill="#000000" transform="translate(462,552)"/>
<path d="M0 0 C2.945 0.323 4.54 0.504 6.593 2.718 C7.255 3.813 7.255 3.813 7.93 4.93 C8.414 5.725 8.899 6.52 9.398 7.34 C9.886 8.176 10.373 9.013 10.875 9.875 C11.385 10.704 11.896 11.533 12.422 12.387 C15.161 16.969 15.161 16.969 16 19 C15.67 19.99 15.34 20.98 15 22 C12.055 21.677 10.46 21.496 8.407 19.282 C7.966 18.552 7.525 17.822 7.07 17.07 C6.586 16.275 6.101 15.48 5.602 14.66 C5.114 13.824 4.627 12.987 4.125 12.125 C3.615 11.296 3.104 10.467 2.578 9.613 C-0.161 5.031 -0.161 5.031 -1 3 C-0.67 2.01 -0.34 1.02 0 0 Z " fill="#000000" transform="translate(493,594)"/>
<path d="M0 0 C2.439 0.392 3.732 0.737 5.52 2.488 C5.946 3.09 6.373 3.692 6.812 4.312 C7.252 4.907 7.692 5.501 8.145 6.113 C9.219 8.482 8.863 9.601 8 12 C5 12 5 12 3.359 10.391 C2.563 9.331 2.563 9.331 1.75 8.25 C1.209 7.554 0.667 6.858 0.109 6.141 C-1 4 -1 4 -0.672 1.734 C-0.45 1.162 -0.228 0.59 0 0 Z " fill="#000000" transform="translate(591,598)"/>
</svg>
