<?xml version="1.0" encoding="UTF-8"?>
<!-- Generator: visioncortex VTracer 0.6.0 -->
<svg version="1.1" xmlns="http://www.w3.org/2000/svg" width="847" height="847">
<path d="M0 0 C4.999 0.476 7.978 2.032 12 5 C11.67 6.65 11.34 8.3 11 10 C9.266 10.684 9.266 10.684 7 11 C4.859 9.785 4.859 9.785 2.75 8.062 C2.044 7.497 1.337 6.931 0.609 6.348 C0.078 5.903 -0.453 5.458 -1 5 C-0.67 3.35 -0.34 1.7 0 0 Z " fill="#000000" transform="translate(589,97)"/>
<path d="M0 0 C3.68 3.382 5.979 6.425 8 11 C7.01 11.33 6.02 11.66 5 12 C4.162 10.378 3.33 8.752 2.5 7.125 C2.036 6.22 1.572 5.315 1.094 4.383 C0 2 0 2 0 0 Z " fill="#000000" transform="translate(329,100)"/>
<path d="M0 0 C1.922 0.207 1.922 0.207 4 1 C7.258 5.213 8.53 9.704 8 15 C6.188 15.688 6.188 15.688 4 16 C1.53 14.004 0.358 12.009 -0.75 9.062 C-1.013 8.393 -1.276 7.724 -1.547 7.035 C-2.076 4.66 -1.806 3.276 -1 1 C-0.67 0.67 -0.34 0.34 0 0 Z " fill="#000000" transform="translate(672,113)"/>
<path d="M0 0 C1.812 0.625 1.812 0.625 4 2 C4.433 3.011 4.866 4.021 5.312 5.062 C5.869 6.032 6.426 7.001 7 8 C10.594 8.979 10.594 8.979 14 9 C14 9.66 14 10.32 14 11 C12.35 11.66 10.7 12.32 9 13 C9.33 13.763 9.66 14.526 10 15.312 C11 18 11 18 11 21 C10.01 20.67 9.02 20.34 8 20 C7.546 18.866 7.092 17.731 6.625 16.562 C5.365 12.846 5.365 12.846 2.312 11.562 C1.168 11.284 1.168 11.284 0 11 C0 10.34 0 9.68 0 9 C0.99 9 1.98 9 3 9 C2.505 8.072 2.01 7.144 1.5 6.188 C0 3 0 3 0 0 Z " fill="#000000" transform="translate(313,115)"/>
<path d="M0 0 C2.648 2.578 4.944 4.916 7 8 C7 8.99 7 9.98 7 11 C6.01 11 5.02 11 4 11 C3.326 9.733 2.661 8.461 2 7.188 C1.629 6.48 1.257 5.772 0.875 5.043 C0 3 0 3 0 0 Z " fill="#000000" transform="translate(341,117)"/>
<path d="M0 0 C4.024 1.916 6.356 4.284 8.938 7.875 C9.879 9.14 9.879 9.14 10.84 10.43 C12 13 12 13 11.191 15.82 C10.798 16.54 10.405 17.259 10 18 C6.737 17.737 5.884 16.875 3.605 14.418 C2.789 13.349 1.983 12.272 1.188 11.188 C0.768 10.653 0.348 10.119 -0.084 9.568 C-3.03 5.622 -3.03 5.622 -2.887 2.676 C-2 1 -2 1 0 0 Z " fill="#000000" transform="translate(622,126)"/>
<path d="M0 0 C4.749 1.583 6.749 5.577 8.988 9.914 C10.266 12.761 11 14.854 11 18 C10.01 18 9.02 18 8 18 C7.629 17.051 7.257 16.102 6.875 15.125 C5.26 11.744 5.26 11.744 1.812 10.625 C0.884 10.419 -0.044 10.213 -1 10 C-1 9.34 -1 8.68 -1 8 C-0.01 7.67 0.98 7.34 2 7 C1.67 6.402 1.34 5.804 1 5.188 C0 3 0 3 0 0 Z " fill="#000000" transform="translate(295,142)"/>
<path d="M0 0 C1.65 0.33 3.3 0.66 5 1 C5 3.31 5 5.62 5 8 C8.3 8 11.6 8 15 8 C15.33 8.99 15.66 9.98 16 11 C15.67 11.66 15.34 12.32 15 13 C12.351 13.594 9.708 13.742 7 14 C6.67 19.28 6.34 24.56 6 30 C3.525 30.495 3.525 30.495 1 31 C0 30 0 30 -0.098 26.402 C-0.091 24.914 -0.079 23.426 -0.062 21.938 C-0.058 21.179 -0.053 20.42 -0.049 19.639 C-0.037 17.759 -0.019 15.88 0 14 C-0.687 14.107 -1.374 14.214 -2.082 14.324 C-2.983 14.444 -3.884 14.564 -4.812 14.688 C-5.706 14.815 -6.599 14.943 -7.52 15.074 C-10 15 -10 15 -11.824 13.52 C-12.212 13.018 -12.6 12.517 -13 12 C-12 10 -12 10 -9 9 C-7.439 8.933 -5.875 8.915 -4.312 8.938 C-2.178 8.968 -2.178 8.968 0 9 C0 6.03 0 3.06 0 0 Z " fill="#000000" transform="translate(709,151)"/>
<path d="M0 0 C1.874 0.257 1.874 0.257 4 1 C5.136 2.686 5.136 2.686 6.02 4.887 C6.349 5.701 6.679 6.514 7.018 7.353 C8.671 11.81 10.215 16.293 11.688 20.812 C11.995 21.74 12.302 22.667 12.619 23.623 C13.862 27.396 15.079 31.134 16 35 C16.574 35.147 17.147 35.294 17.738 35.445 C20.836 36.263 23.918 37.126 27 38 C27.782 38.22 28.564 38.44 29.37 38.667 C31.961 39.404 34.543 40.168 37.125 40.938 C38.406 41.298 38.406 41.298 39.712 41.667 C40.511 41.909 41.31 42.152 42.133 42.402 C42.854 42.614 43.574 42.825 44.317 43.043 C46 44 46 44 46.742 46.1 C46.87 47.04 46.87 47.04 47 48 C42.561 50.974 38.272 53.4 33.328 55.438 C22.422 59.537 22.422 59.537 13.824 66.902 C12.838 70.278 12.431 73.509 12 77 C11.07 80.577 9.969 84.096 8.875 87.625 C8.62 88.503 8.364 89.381 8.101 90.285 C7.859 91.111 7.617 91.938 7.367 92.789 C7.152 93.529 6.936 94.268 6.714 95.03 C6 97 6 97 4 100 C1.75 100 1.75 100 -1 99 C-6.635 90.547 -9.402 78.677 -10.812 68.688 C-11.646 64.701 -11.646 64.701 -15.406 62.992 C-20.355 60.709 -25.496 59.07 -30.688 57.438 C-41.718 53.966 -41.718 53.966 -46 51 C-46.062 48.75 -46.062 48.75 -45 46 C-38.954 42.377 -31.725 40.432 -25.062 38.25 C-23.646 37.776 -23.646 37.776 -22.201 37.293 C-15.268 35 -15.268 35 -13 35 C-12.781 34.019 -12.562 33.038 -12.336 32.027 C-6.803 8.156 -6.803 8.156 0 0 Z M1 5 C-1.912 10.176 -3.836 15.345 -5.562 21 C-5.782 21.702 -6.001 22.403 -6.227 23.126 C-7.106 25.96 -7.95 28.775 -8.598 31.672 C-9.125 33.75 -9.125 33.75 -11 37 C-14.461 38.991 -18.173 39.922 -22 41 C-24.392 41.736 -26.775 42.492 -29.156 43.263 C-30.789 43.792 -32.427 44.307 -34.069 44.807 C-36.077 45.448 -38.044 46.215 -40 47 C-40.33 47.99 -40.66 48.98 -41 50 C-40.345 50.221 -39.69 50.443 -39.016 50.671 C-36.008 51.691 -33.004 52.721 -30 53.75 C-28.455 54.272 -28.455 54.272 -26.879 54.805 C-23.902 55.828 -20.95 56.901 -18 58 C-17.198 58.278 -16.396 58.556 -15.57 58.842 C-12.557 60.059 -10.572 60.979 -8.953 63.871 C-8.132 66.228 -7.549 68.565 -7 71 C-6.506 72.791 -6.006 74.58 -5.5 76.367 C-4.74 79.146 -3.987 81.926 -3.25 84.711 C-3.002 85.608 -2.755 86.505 -2.5 87.43 C-2.283 88.236 -2.067 89.043 -1.844 89.875 C-0.924 92.192 0.128 93.384 2 95 C5.382 87.795 7.268 80.215 9.307 72.541 C9.596 71.503 9.885 70.464 10.184 69.395 C10.437 68.455 10.69 67.515 10.951 66.546 C13.102 61.325 16.913 59.306 21.859 56.984 C22.974 56.456 24.089 55.927 25.238 55.383 C26.397 54.844 27.556 54.305 28.75 53.75 C29.924 53.196 31.099 52.641 32.309 52.07 C35.202 50.706 38.099 49.349 41 48 C41 47.34 41 46.68 41 46 C39.888 45.66 39.888 45.66 38.753 45.313 C35.395 44.281 32.041 43.234 28.688 42.188 C27.52 41.831 26.353 41.475 25.15 41.107 C24.032 40.756 22.914 40.405 21.762 40.043 C20.73 39.724 19.698 39.404 18.635 39.075 C14.651 37.45 13.461 36.083 11.773 32.121 C11.383 30.976 10.992 29.832 10.59 28.652 C10.157 27.408 9.725 26.163 9.279 24.881 C8.831 23.567 8.384 22.252 7.938 20.938 C7.058 18.361 6.17 15.787 5.277 13.215 C4.888 12.071 4.499 10.928 4.097 9.75 C3.174 6.911 3.174 6.911 1 5 Z " fill="#000000" transform="translate(143,161)"/>
<path d="M0 0 C1.904 0.006 1.904 0.006 3.847 0.012 C23.978 0.086 43.776 0.86 63.75 3.375 C65.032 3.53 66.313 3.685 67.634 3.845 C121.611 10.466 121.611 10.466 134.75 21.375 C136.141 23.621 136.141 23.621 137.375 26 C139.635 29.76 141.602 31.013 145.857 32.12 C148.696 32.742 151.543 33.311 154.395 33.87 C172.939 37.849 192.911 44.815 208.75 55.375 C208.42 56.365 208.09 57.355 207.75 58.375 C204.724 57.241 201.833 55.943 198.949 54.492 C122.133 16.054 11.275 15.154 -127.25 27.375 C-128.267 27.585 -129.283 27.795 -130.331 28.011 C-154.969 33.257 -169.182 40.77 -185.004 60.625 C-187.328 63.471 -189.76 66.174 -192.25 68.875 C-195.543 72.453 -198.697 76.09 -201.75 79.875 C-205.588 84.632 -209.646 89.133 -213.785 93.629 C-216.177 96.294 -218.443 99.023 -220.688 101.812 C-224.346 106.349 -228.199 110.634 -232.166 114.896 C-235.137 118.108 -237.95 121.401 -240.688 124.812 C-244.531 129.591 -248.62 134.067 -252.808 138.539 C-255.926 141.886 -258.886 145.305 -261.75 148.875 C-266.089 154.279 -270.754 159.325 -275.477 164.391 C-279.886 169.121 -284.109 173.994 -288.234 178.973 C-289.04 179.935 -289.04 179.935 -289.861 180.916 C-290.94 182.206 -292.012 183.502 -293.076 184.804 C-294.403 186.385 -295.821 187.887 -297.25 189.375 C-298.24 189.375 -299.23 189.375 -300.25 189.375 C-298.842 185.081 -296.791 182.505 -293.688 179.25 C-290.284 175.626 -287.04 171.953 -283.938 168.062 C-279.863 163.007 -275.498 158.293 -271.05 153.569 C-267.008 149.253 -263.254 144.77 -259.559 140.152 C-256.897 136.951 -254.095 133.913 -251.25 130.875 C-246.791 126.114 -242.612 121.21 -238.527 116.121 C-236.032 113.112 -233.412 110.236 -230.75 107.375 C-227.276 103.642 -223.949 99.851 -220.75 95.875 C-217.551 91.899 -214.224 88.108 -210.75 84.375 C-206.44 79.743 -202.399 74.954 -198.43 70.023 C-195.568 66.547 -192.539 63.239 -189.504 59.914 C-187.144 57.256 -184.913 54.521 -182.688 51.75 C-176.311 43.925 -170.465 37.702 -161.25 33.375 C-160.425 32.966 -159.6 32.558 -158.75 32.137 C-149.028 27.676 -138.665 25.561 -128.25 23.375 C-127.418 23.196 -126.585 23.017 -125.728 22.832 C-115.486 20.678 -105.266 19.321 -94.84 18.484 C-93.913 18.407 -92.986 18.33 -92.031 18.251 C-87.35 17.863 -82.671 17.508 -77.984 17.209 C-67.552 16.443 -60.7 14.954 -52.25 8.375 C-35.827 -0.867 -18.268 -0.115 0 0 Z M-48.25 10.375 C-49.083 10.776 -49.915 11.177 -50.773 11.59 C-52.61 12.495 -54.432 13.431 -56.25 14.375 C-56.25 15.035 -56.25 15.695 -56.25 16.375 C-55.685 16.371 -55.12 16.366 -54.538 16.362 C-25.457 16.144 3.519 16.184 32.539 18.22 C34.719 18.373 36.899 18.52 39.079 18.667 C62.611 20.285 85.926 23.352 109.28 26.613 C115.22 27.443 121.163 28.254 127.105 29.062 C128.071 29.194 129.037 29.325 130.031 29.461 C132.271 29.766 134.51 30.071 136.75 30.375 C131.292 21.06 123.305 17.746 113.131 14.984 C96.396 10.705 79.38 8.579 62.25 6.625 C61.319 6.518 60.388 6.411 59.429 6.301 C40.572 4.159 21.912 3.188 2.935 3.19 C-0.011 3.187 -2.956 3.169 -5.902 3.15 C-21.005 3.104 -34.4 3.689 -48.25 10.375 Z " fill="#000000" transform="translate(481.25,165.625)"/>
<path d="M0 0 C0.66 0 1.32 0 2 0 C1.67 2.97 1.34 5.94 1 9 C3.31 9 5.62 9 8 9 C8.33 9.66 8.66 10.32 9 11 C6.043 12.478 3.258 12.06 0 12 C-0.33 14.31 -0.66 16.62 -1 19 C-1.66 19 -2.32 19 -3 19 C-3 16.69 -3 14.38 -3 12 C-4.65 11.67 -6.3 11.34 -8 11 C-8 10.34 -8 9.68 -8 9 C-6.02 9 -4.04 9 -2 9 C-1.34 6.03 -0.68 3.06 0 0 Z " fill="#000000" transform="translate(255,184)"/>
<path d="M0 0 C3 1 3 1 4.188 2.875 C5 5 5 5 5 8 C5.865 7.818 6.73 7.636 7.621 7.449 C16.19 5.739 24.763 4.432 33.438 3.375 C34.917 3.191 34.917 3.191 36.426 3.003 C55.783 0.723 75.166 0.797 94.625 0.812 C95.724 0.813 95.724 0.813 96.846 0.813 C120.612 0.824 144.298 1.112 168 3 C169.211 3.095 169.211 3.095 170.446 3.191 C299.165 13.355 299.165 13.355 334 44 C334.33 42.35 334.66 40.7 335 39 C335.99 39.33 336.98 39.66 338 40 C338.33 41.98 338.66 43.96 339 46 C339.831 45.511 340.663 45.022 341.519 44.519 C344.644 42.682 347.77 40.847 350.896 39.011 C352.241 38.221 353.586 37.431 354.931 36.64 C359.281 34.083 363.638 31.538 368 29 C368.915 28.462 369.831 27.923 370.774 27.369 C371.551 26.921 372.328 26.473 373.129 26.012 C373.77 25.639 374.412 25.266 375.073 24.882 C379.027 23.073 381.383 22.805 385.562 24.125 C389.16 26.087 390.858 27.54 393 31 C393.75 33.812 393.75 33.812 394 36 C394.908 36.083 395.815 36.165 396.75 36.25 C400.5 37.115 401.665 37.997 404 41 C406.116 45.336 406.69 49.793 407.289 54.527 C407.397 55.353 407.505 56.178 407.617 57.028 C407.844 58.775 408.067 60.523 408.287 62.271 C408.62 64.899 408.969 67.525 409.32 70.15 C412.852 97.253 412.852 97.253 408 104 C404.967 106.359 401.736 106.365 397.961 106.246 C394.964 105.87 393.286 104.959 391 103 C388.567 98.799 387.487 95.184 386.867 90.387 C386.701 89.138 386.535 87.89 386.363 86.604 C386.202 85.311 386.041 84.019 385.875 82.688 C385.706 81.407 385.537 80.126 385.363 78.807 C384.893 75.206 384.441 71.604 384 68 C383.839 66.705 383.839 66.705 383.674 65.384 C383.075 60.341 382.726 55.328 382.625 50.25 C382.588 49.522 382.55 48.793 382.512 48.043 C382.445 43.988 382.775 42.271 385.398 39.109 C386.257 38.413 387.115 37.717 388 37 C388.66 36.34 389.32 35.68 390 35 C389.34 33.02 388.68 31.04 388 29 C380.243 27.22 376.531 28.718 369.907 32.84 C366.642 34.826 363.304 36.686 359.979 38.57 C357.214 40.137 354.453 41.712 351.695 43.293 C350.912 43.742 350.128 44.191 349.321 44.653 C346.866 46.078 344.431 47.534 342 49 C343.146 55.089 344.482 61.111 345.953 67.129 C358.467 118.404 365.873 170.493 371 223 C371.66 223 372.32 223 373 223 C374.416 220.964 375.717 218.93 377 216.812 C395.031 188.02 395.031 188.02 409 184 C414.227 183.283 418.471 183.308 423.312 185.5 C436.914 198.153 438.807 216.989 441.57 234.512 C441.939 236.914 441.939 236.914 442.535 238.867 C445.456 252.267 442.031 266.209 434.777 277.598 C432.796 280.275 430.639 282.683 428.375 285.125 C417.038 297.452 416.627 313.531 416.519 329.565 C416.412 342.575 416.164 355.317 413 368 C412.835 368.662 412.67 369.325 412.5 370.007 C407.355 389.968 397.516 408.323 380 420 C379.164 422.826 379.164 422.826 380 426 C381.636 427.653 383.409 429.014 385.238 430.449 C388.116 432.982 389.021 435.328 390 439 C390.353 448.389 387.01 454.869 381.062 461.875 C374.127 469.33 364.339 478.744 354.02 479.852 C352.856 479.98 351.693 480.109 350.494 480.242 C348.672 480.432 348.672 480.432 346.812 480.625 C345.586 480.759 344.359 480.893 343.096 481.031 C340.065 481.361 337.033 481.684 334 482 C333.841 483.004 333.683 484.008 333.52 485.043 C331.003 500.132 326.925 514.61 314.809 524.809 C308.647 528.868 302.141 528.784 295 528 C283.253 524.523 275.107 515.013 268.984 504.895 C265.883 499.157 263.515 493.013 261 487 C251.124 487.357 241.249 487.736 231.375 488.125 C230.213 488.171 230.213 488.171 229.028 488.217 C192.002 489.682 155.009 491.725 118.014 493.814 C113.313 494.079 108.612 494.342 103.911 494.605 C100.658 494.788 97.405 494.975 94.152 495.162 C92.164 495.274 90.176 495.385 88.188 495.497 C87.313 495.548 86.439 495.6 85.538 495.653 C77.418 496.101 69.184 496.518 61.113 495.344 C60.156 495.208 59.199 495.073 58.213 494.934 C57.256 494.791 56.299 494.647 55.312 494.5 C54.313 494.357 53.313 494.214 52.283 494.066 C49.854 493.718 47.427 493.362 45 493 C45.023 494.164 45.046 495.328 45.07 496.527 C45.048 513.757 38.779 531.387 27 544 C23.85 546.739 20.639 548.963 17 551 C16.367 551.358 15.734 551.717 15.082 552.086 C6.749 555.959 -3.321 554.946 -11.75 552 C-32.536 543.009 -44.894 521.167 -53 501 C-56.783 490.901 -60.145 480.637 -62.395 470.082 C-62.876 467.803 -62.876 467.803 -65 466 C-70.605 449.002 -69.538 427.094 -62 411 C-58.662 404.631 -54.848 399.688 -48 397 C-42.839 395.875 -38.483 397.065 -33.941 399.625 C-22.723 407.571 -18.517 421.555 -14.845 434.156 C-11.575 445.323 -7.979 456.305 -3.688 467.125 C-3.291 468.142 -2.895 469.16 -2.487 470.208 C-0.301 475.589 1.754 479.979 6 484 C7.981 484.722 9.98 485.397 12 486 C11.875 485.392 11.751 484.785 11.622 484.159 C7.835 465.516 4.915 446.816 2.215 427.993 C1.632 423.933 1.041 419.874 0.45 415.816 C-0.916 406.408 -2.273 397 -3.627 387.591 C-4.245 383.299 -4.863 379.007 -5.482 374.715 C-5.604 373.872 -5.725 373.028 -5.85 372.159 C-11.846 330.145 -11.846 330.145 -18.135 288.175 C-18.372 286.638 -18.608 285.1 -18.84 283.562 C-20.219 270.798 -20.219 270.798 -26.062 259.875 C-34.938 257.231 -46.074 261.271 -55 263.062 C-57.123 263.485 -59.247 263.907 -61.37 264.326 C-63.276 264.703 -65.181 265.084 -67.086 265.465 C-70 266 -70 266 -72 266 C-71.934 266.784 -71.868 267.568 -71.8 268.376 C-71.153 276.353 -70.73 284.314 -70.473 292.312 C-70.431 293.558 -70.39 294.804 -70.347 296.087 C-69.906 310.023 -69.666 323.963 -69.468 337.904 C-69.437 340.035 -69.405 342.165 -69.373 344.296 C-69.002 369.198 -68.872 394.095 -69 419 C-69.99 419 -70.98 419 -72 419 C-72.767 391.966 -73.189 364.929 -73.529 337.887 C-73.562 335.286 -73.596 332.685 -73.63 330.084 C-73.845 313.467 -74.041 296.849 -74.084 280.23 C-74.09 278.22 -74.1 276.21 -74.11 274.2 C-74.111 273.011 -74.112 271.822 -74.113 270.597 C-74.115 269.558 -74.118 268.52 -74.12 267.45 C-74 265 -74 265 -73 263 C-70.745 262.243 -70.745 262.243 -67.77 261.543 C-66.137 261.159 -66.137 261.159 -64.471 260.767 C-58.891 259.534 -53.299 258.393 -47.688 257.312 C-46.56 257.088 -45.433 256.863 -44.271 256.631 C-30.072 253.884 -30.072 253.884 -24.75 256.75 C-19.794 260.805 -18.344 264.457 -17.125 270.652 C-16.959 271.47 -16.793 272.288 -16.623 273.131 C-14.038 286.389 -12.259 299.8 -10.344 313.167 C-9.757 317.252 -9.163 321.336 -8.57 325.421 C-7.562 332.356 -6.559 339.292 -5.557 346.229 C-3.334 361.62 -1.092 377.008 1.157 392.395 C1.909 397.545 2.659 402.696 3.407 407.847 C5.807 424.375 8.256 440.896 10.837 457.397 C11.096 459.056 11.354 460.714 11.611 462.373 C11.967 464.671 12.329 466.969 12.692 469.266 C12.897 470.57 13.102 471.874 13.312 473.217 C14.038 477.21 14.975 481.075 16 485 C19.63 485 23.26 485 27 485 C25.928 484.175 24.855 483.35 23.75 482.5 C19.38 478.724 16.702 474.72 15.621 468.992 C15.232 462.587 17.626 457.719 21.777 452.965 C30.136 444.886 41.281 439.322 52.843 438.307 C53.54 438.245 54.237 438.183 54.955 438.119 C57.279 437.913 59.604 437.712 61.93 437.512 C63.573 437.367 65.217 437.223 66.861 437.078 C71.28 436.69 75.7 436.306 80.12 435.925 C82.878 435.687 85.637 435.448 88.396 435.209 C100.929 434.124 113.464 433.056 126 432 C126.712 431.94 127.423 431.88 128.156 431.818 C155.789 429.489 183.428 427.661 211.125 426.312 C212.372 426.251 213.619 426.19 214.903 426.128 C249.417 424.463 283.923 423.801 318.472 423.442 C323.832 423.387 329.192 423.323 334.552 423.257 C338.731 423.207 342.91 423.162 347.088 423.118 C349.068 423.097 351.048 423.074 353.027 423.049 C355.766 423.015 358.506 422.988 361.245 422.962 C362.048 422.951 362.85 422.94 363.677 422.928 C367.906 422.896 371.832 423.154 376 424 C374.918 356.467 374.918 356.467 372 289 C371.939 287.98 371.878 286.961 371.815 285.911 C368.814 236.028 363.774 186.372 356 137 C355.883 136.256 355.767 135.513 355.646 134.746 C352.86 117.08 349.382 99.618 345.375 82.188 C345.187 81.367 344.999 80.546 344.805 79.7 C343.595 74.451 342.331 69.219 341 64 C340.677 62.729 340.354 61.458 340.021 60.148 C337.376 50.615 333.523 46.87 325 42 C324.39 41.651 323.781 41.302 323.153 40.942 C307.845 32.401 291.254 27.493 274.312 23.375 C273.526 23.182 272.739 22.988 271.928 22.789 C259.354 19.705 246.812 16.914 234 15 C232.76 14.81 231.52 14.62 230.242 14.424 C211.12 11.516 191.958 9.396 172.688 7.75 C171.25 7.626 171.25 7.626 169.784 7.499 C146.419 5.501 123.113 4.813 99.666 4.815 C95.768 4.813 91.87 4.794 87.973 4.775 C65.878 4.725 43.767 5.471 21.938 9.125 C19.697 9.483 17.456 9.84 15.215 10.195 C13.809 10.428 13.809 10.428 12.375 10.665 C10 11 10 11 7 11 C6.67 15.95 6.34 20.9 6 26 C7.163 25.662 8.325 25.325 9.523 24.977 C11.14 24.525 12.758 24.075 14.375 23.625 C15.508 23.292 15.508 23.292 16.664 22.953 C34.283 18.122 52.699 18.632 70.808 18.682 C72.902 18.688 74.997 18.69 77.091 18.693 C101.49 18.737 125.703 19.684 150 22 C150.973 22.092 151.947 22.184 152.95 22.279 C165.053 23.428 177.136 24.695 189.208 26.13 C194.565 26.756 199.899 27.231 205.281 27.578 C221.37 28.835 221.37 28.835 226.945 34.445 C229.973 38.134 232.29 42.109 234.533 46.31 C236.065 49.119 237.731 51.798 239.457 54.492 C273.537 107.968 294.38 172.618 303.398 235.328 C303.565 236.478 303.565 236.478 303.735 237.651 C304.265 241.354 304.768 245.058 305.228 248.77 C305.406 250.096 305.584 251.421 305.762 252.746 C305.978 254.489 305.978 254.489 306.198 256.267 C306.711 259.117 306.711 259.117 308.968 260.268 C309.974 260.63 309.974 260.63 311 261 C316.163 266.799 319.239 273.387 321.859 280.629 C322.236 281.411 322.612 282.194 323 283 C323.99 283.33 324.98 283.66 326 284 C326 284.99 326 285.98 326 287 C320.72 287 315.44 287 310 287 C309.67 286.01 309.34 285.02 309 284 C311.97 284 314.94 284 318 284 C315.788 276.772 312.978 271.019 308.391 264.996 C307 263 307 263 307 261 C306.134 260.598 306.134 260.598 305.25 260.188 C300.134 257.488 298.301 255.046 296.125 249.742 C295.123 247.799 295.123 247.799 292.875 247.258 C291.947 247.13 291.947 247.13 291 247 C290.34 247.99 289.68 248.98 289 250 C288.033 249.893 287.066 249.786 286.07 249.676 C277.207 248.86 269.124 248.161 261.648 253.762 C260.232 254.996 258.844 256.265 257.496 257.574 C256 259 256 259 255 259 C254.805 257.85 254.61 256.701 254.408 255.516 C240.685 175.227 214.934 83.226 154 25 C153.67 25.33 153.34 25.66 153 26 C153.5 26.544 154 27.088 154.515 27.648 C159.282 32.91 163.629 38.301 167.688 44.125 C168.578 45.401 168.578 45.401 169.487 46.702 C176.36 56.732 182.228 67.31 188 78 C188.95 79.734 188.95 79.734 189.919 81.503 C194.67 90.222 198.925 99.08 202.875 108.188 C203.173 108.872 203.472 109.557 203.779 110.262 C209.868 124.278 215.197 138.489 220 153 C220.385 154.16 220.77 155.321 221.167 156.516 C231.25 187.231 238.191 218.223 243.661 250.038 C243.981 251.891 244.309 253.744 244.638 255.596 C244.914 257.18 244.914 257.18 245.195 258.797 C245.353 259.692 245.51 260.588 245.672 261.511 C246.005 264.037 246.059 266.455 246 269 C243.775 266.951 242.398 265.123 241.133 262.383 C240.804 261.693 240.475 261.004 240.137 260.293 C239.467 258.857 238.8 257.42 238.137 255.98 C235.321 250.096 232.006 245.597 225.938 242.75 C225.287 242.435 224.636 242.121 223.965 241.797 C215.544 238.382 202.91 238.442 194.375 241.562 C180.591 248.336 174.832 261.919 168.588 275.117 C160.554 291.67 160.554 291.67 153 296 C139.547 297.686 125.237 295.08 111.867 293.606 C105.421 292.897 98.972 292.219 92.523 291.535 C91.261 291.401 89.999 291.266 88.699 291.127 C79.226 290.12 69.751 289.16 60.262 288.311 C58.27 288.132 56.279 287.948 54.287 287.762 C43.681 286.833 33.2 286.481 22.625 287.875 C21.339 288.037 20.052 288.2 18.727 288.367 C14.968 288.934 14.968 288.934 11.273 290.07 C8 291 8 291 4 291 C4.454 292.418 4.914 293.834 5.375 295.25 C5.63 296.039 5.885 296.828 6.148 297.641 C7.545 302.191 7.545 302.191 11.096 304.992 C26.214 310.24 42.298 311.303 58.125 312.625 C59.977 312.783 59.977 312.783 61.867 312.945 C130.352 318.759 199.312 318.149 268 318 C267.741 317.457 267.483 316.915 267.217 316.356 C258.67 298.373 258.67 298.373 259 289 C262.205 292.694 263.733 296.885 265.5 301.375 C267.125 305.463 268.739 309.482 270.719 313.414 C272 316 272 316 272 318 C273.32 318 274.64 318 276 318 C276.33 317.34 276.66 316.68 277 316 C277.33 316.33 277.66 316.66 278 317 C279.755 317.101 281.515 317.131 283.273 317.133 C284.395 317.135 285.516 317.137 286.672 317.139 C287.894 317.135 289.116 317.13 290.375 317.125 C291.631 317.121 292.886 317.117 294.18 317.113 C317.206 316.979 339.506 316.194 362 311 C362.349 305.424 361.688 300.964 359 296 C352.874 289.524 344.495 288.505 336 288 C336 286.68 336 285.36 336 284 C344.315 284.286 352.957 284.806 359.625 290.352 C365.702 297.116 366.544 304.301 367 313 C361.255 315.766 355.701 317.037 349.438 318.125 C348.537 318.294 347.637 318.463 346.709 318.637 C333.353 321.024 319.783 321.249 306.25 321.562 C304.911 321.594 304.911 321.594 303.546 321.626 C257.239 322.659 210.881 322.123 164.571 321.652 C161.87 321.626 159.17 321.602 156.47 321.579 C124.535 321.299 92.633 320.25 60.821 317.305 C58.106 317.055 55.39 316.821 52.674 316.588 C44.134 315.833 35.643 314.913 27.176 313.559 C26.466 313.449 25.756 313.339 25.024 313.226 C18.708 312.151 12.089 310.517 7.188 306.188 C6.645 305.727 6.102 305.267 5.543 304.793 C1.171 299.713 0.124 293.772 -1.004 287.383 C-1.257 285.997 -1.257 285.997 -1.516 284.583 C-3.229 275.047 -4.632 265.474 -5.938 255.875 C-6.064 254.958 -6.19 254.04 -6.319 253.095 C-12.7 206.556 -17.241 159.802 -21.199 113 C-21.336 111.396 -21.336 111.396 -21.476 109.759 C-21.899 104.802 -22.313 99.845 -22.707 94.885 C-22.851 93.166 -22.996 91.446 -23.141 89.727 C-23.228 88.558 -23.228 88.558 -23.317 87.366 C-23.473 85.57 -23.726 83.782 -24 82 C-24.99 81.505 -24.99 81.505 -26 81 C-27.661 72.814 -27.337 63.969 -27.613 55.62 C-27.663 54.163 -27.718 52.706 -27.779 51.249 C-28.686 29.447 -28.686 29.447 -22.043 20.082 C-18.804 16.781 -14.839 14.976 -10.781 12.832 C-7.12 10.421 -5.664 7.884 -3.965 3.918 C-3 2 -3 2 0 0 Z M-1 6 C-1.495 7.98 -1.495 7.98 -2 10 C-1.01 9.67 -0.02 9.34 1 9 C0.67 8.01 0.34 7.02 0 6 C-0.33 6 -0.66 6 -1 6 Z M-18 21 C-22.886 26.718 -24.154 31.172 -24.062 38.688 C-24.058 39.389 -24.053 40.091 -24.049 40.814 C-24.037 42.543 -24.019 44.272 -24 46 C-21.162 43.532 -19.851 40.93 -18.301 37.527 C-17.814 36.463 -17.328 35.399 -16.826 34.303 C-16.327 33.192 -15.827 32.082 -15.312 30.938 C-14.801 29.823 -14.29 28.709 -13.764 27.561 C-11.114 22.473 -11.114 22.473 -10 17 C-13.286 17 -15.576 18.956 -18 21 Z M25.812 32.188 C24.932 32.594 24.052 33 23.145 33.418 C20.804 34.84 20.804 34.84 20.109 37.438 C19.996 40.098 20.279 41.449 21.438 43.812 C22.211 45.39 22.211 45.39 23 47 C28.986 45.498 34.613 44.058 40 41 C39.549 39.539 39.089 38.082 38.625 36.625 C38.37 35.813 38.115 35.001 37.852 34.164 C37.101 31.835 37.101 31.835 35 30 C30.989 30 29.335 30.496 25.812 32.188 Z M87.562 44.5 C86.326 44.593 85.09 44.686 83.816 44.781 C82.422 44.89 82.422 44.89 81 45 C81 46.32 81 47.64 81 49 C88.402 49.129 95.64 48.797 103 48 C102.67 46.68 102.34 45.36 102 44 C97.157 43.95 92.391 44.132 87.562 44.5 Z M31.375 47.5 C30.669 47.738 29.962 47.977 29.234 48.223 C27.489 48.812 25.744 49.406 24 50 C24.66 52.97 25.32 55.94 26 59 C32.182 58.462 37.327 56.454 43 54 C42.34 51.03 41.68 48.06 41 45 C37.632 45 34.536 46.421 31.375 47.5 Z M46 47 C46 47.99 46 48.98 46 50 C47.75 50.054 49.5 50.093 51.25 50.125 C52.225 50.148 53.199 50.171 54.203 50.195 C57.02 49.999 58.609 49.446 61 48 C60.67 47.34 60.34 46.68 60 46 C58.229 45.973 56.458 45.954 54.688 45.938 C53.701 45.926 52.715 45.914 51.699 45.902 C48.9 45.877 48.9 45.877 46 47 Z M60 56 C60 56.99 60 57.98 60 59 C67.59 59 75.18 59 83 59 C83 57.68 83 56.36 83 55 C79.542 54.971 76.083 54.953 72.625 54.938 C71.64 54.929 70.655 54.921 69.641 54.912 C68.7 54.909 67.759 54.906 66.789 54.902 C65.92 54.897 65.05 54.892 64.155 54.886 C61.95 54.859 61.95 54.859 60 56 Z M34.312 59.875 C32.574 60.397 32.574 60.397 30.801 60.93 C27.875 61.686 27.875 61.686 27 64 C27.546 66.209 28.185 68.395 28.875 70.562 C29.244 71.739 29.612 72.916 29.992 74.129 C30.719 76.864 30.719 76.864 32 78 C37.328 78.65 41.711 77.13 46 74 C47.451 72.287 47.451 72.287 48 70 C47.593 66.92 47.593 66.92 46.625 63.75 C46.329 62.672 46.032 61.595 45.727 60.484 C45.487 59.665 45.247 58.845 45 58 C40.955 58 38.157 58.695 34.312 59.875 Z M131 80 C131.62 84.233 133.105 87.523 135.062 91.312 C135.61 92.381 136.158 93.45 136.723 94.551 C137.355 95.763 137.355 95.763 138 97 C136.219 96.848 136.219 96.848 134 96 C132.03 93.23 130.443 90.335 128.781 87.371 C128.193 86.589 127.606 85.806 127 85 C125.68 85 124.36 85 123 85 C124.895 91.518 127.518 97.178 131 103 C127.785 101.622 126.028 100.114 123.875 97.375 C122.438 95.495 122.438 95.495 121 94 C120.34 94 119.68 94 119 94 C119.547 99.006 121.241 102.972 123.562 107.375 C124.057 108.336 124.057 108.336 124.561 109.316 C125.366 110.881 126.182 112.441 127 114 C124.03 113.34 121.06 112.68 118 112 C118.078 114.374 118.078 114.374 119 117 C121.426 119.106 121.426 119.106 124.5 120.875 C125.584 121.563 126.668 122.252 127.785 122.961 C129.377 123.97 129.377 123.97 131 125 C139.756 130.977 144.136 137.238 148 147 C150.794 145.718 152.884 144.345 155.125 142.25 C159.355 138.508 164.103 135.778 169 133 C168.414 129.144 166.581 127.085 164.125 124.125 C160.02 118.661 158.782 113.923 157.621 107.27 C156.76 102.737 155.133 99.063 153 95 C152.683 94.394 152.365 93.788 152.039 93.163 C149.726 88.757 147.374 84.373 145 80 C143.68 80.33 142.36 80.66 141 81 C141.342 81.814 141.342 81.814 141.691 82.645 C141.979 83.36 142.266 84.075 142.562 84.812 C142.853 85.52 143.143 86.228 143.441 86.957 C144 89 144 89 143 92 C142.385 91.134 141.77 90.267 141.137 89.375 C140.321 88.25 139.504 87.125 138.688 86 C138.081 85.141 138.081 85.141 137.463 84.266 C136.381 82.788 135.195 81.387 134 80 C133.01 80 132.02 80 131 80 Z M52 92 C51.113 92.557 50.226 93.114 49.312 93.688 C43.898 99.102 40.629 104.539 40.438 112.312 C40.526 116.713 41.28 119.495 44 123 C46.317 124.405 46.317 124.405 48.938 125.25 C50.219 125.722 50.219 125.722 51.527 126.203 C62.031 129.588 72.719 128.338 83.375 126.25 C84.194 126.093 85.013 125.936 85.857 125.775 C92.308 124.416 99.148 122.705 104.035 118.07 C106.706 112.34 105.462 105.457 103.438 99.688 C100.577 93.365 96.325 89.752 89.938 87.188 C76.544 82.834 63.779 84.508 52 92 Z M187 111 C186.876 111.969 186.753 112.939 186.625 113.938 C186.419 114.948 186.212 115.959 186 117 C185.01 117.495 185.01 117.495 184 118 C184 118.66 184 119.32 184 120 C185.65 120 187.3 120 189 120 C189.33 121.65 189.66 123.3 190 125 C190.553 122.924 191 121.156 191 119 C191.99 118.67 192.98 118.34 194 118 C194 117.34 194 116.68 194 116 C192.68 116 191.36 116 190 116 C189.34 114.35 188.68 112.7 188 111 C187.67 111 187.34 111 187 111 Z M20.75 123.375 C16.481 129.779 15.963 136.265 15.811 143.775 C15.625 151.312 15.203 157.041 11.277 163.641 C7.34 170.912 6.723 179.431 6.562 187.562 C6.54 188.241 6.518 188.92 6.495 189.62 C6.51 192.878 6.783 194.705 8.73 197.355 C14.708 201.687 21.817 202.399 29 202 C28.801 201.182 28.801 201.182 28.598 200.348 C27.322 194.901 26.53 189.569 26 184 C26.99 184 27.98 184 29 184 C29.037 184.701 29.075 185.403 29.113 186.125 C29.538 192.256 30.068 197.54 33 203 C35.638 204.208 35.638 204.208 39 204 C40.294 204.017 40.294 204.017 41.613 204.035 C44.077 204.06 46.536 204.044 49 204 C48.674 203.359 48.348 202.719 48.012 202.059 C47.575 201.194 47.138 200.329 46.688 199.438 C46.225 198.527 45.762 197.617 45.285 196.68 C44.231 194.482 43.409 192.361 42.625 190.062 C40.461 185.984 38.235 185.606 34 184 C30.278 181.249 28.72 179.126 28 174.625 C27.733 169.92 28.576 167.04 31 163 C34.697 159.919 38.281 159.463 43 159 C43 156.03 43 153.06 43 150 C44.98 150 46.96 150 49 150 C50.478 147.043 50.06 144.258 50 141 C49.301 140.781 48.603 140.562 47.883 140.336 C40.468 137.752 40.468 137.752 38.25 134.188 C37.952 130.383 38.957 127.65 40 124 C39.248 120.652 39.248 120.652 38 118 C30.9 117.574 25.913 117.925 20.75 123.375 Z M94.375 125.812 C78.933 130.661 64.741 132.869 49.102 127.875 C45.895 126.819 45.895 126.819 42 127 C41.67 129.31 41.34 131.62 41 134 C42.174 134.398 42.174 134.398 43.371 134.805 C44.889 135.334 44.889 135.334 46.438 135.875 C47.447 136.223 48.456 136.571 49.496 136.93 C52 138 52 138 53 140 C53.253 144.475 53.255 148.053 51 152 C50.319 152.268 49.639 152.536 48.938 152.812 C46.815 153.803 46.815 153.803 46.52 155.895 C46.274 157.922 46.132 159.962 46 162 C45.408 162.026 44.817 162.052 44.207 162.078 C38.95 162.455 35.823 163.058 32 167 C30.468 170.064 30.771 172.617 31 176 C32.325 179.238 33.565 180.679 36.375 182.75 C40.097 184.033 42.426 183.987 46.312 183.938 C50.725 184.154 52.419 184.437 55.633 187.551 C57.86 190.642 59.933 193.801 62 197 C66.081 201.691 71.154 203.402 77 205 C77.33 206.98 77.66 208.96 78 211 C75.03 211.495 75.03 211.495 72 212 C72.031 214.867 72.031 214.867 73 218 C77.5 221.792 80.745 222.526 86.562 222.438 C87.843 222.436 89.123 222.435 90.441 222.434 C95.135 221.862 97.7 220.3 101 217 C102.251 212.285 101.758 208.81 100.562 204.125 C100.275 202.973 99.988 201.82 99.691 200.633 C99.463 199.764 99.235 198.895 99 198 C99.732 197.742 100.464 197.484 101.219 197.219 C108.557 194.003 114.007 187.884 117.188 180.617 C121.413 167.007 114.155 151.528 109 139 C108.67 139.66 108.34 140.32 108 141 C107.361 140.649 106.721 140.299 106.062 139.938 C101.857 138.65 98.285 139.309 94 140 C94 139.01 94 138.02 94 137 C95.583 136.973 97.167 136.954 98.75 136.938 C100.073 136.92 100.073 136.92 101.422 136.902 C103.782 136.992 105.745 137.331 108 138 C107.346 132.93 105.145 128.58 103 124 C99.685 124 97.511 124.753 94.375 125.812 Z M-6 16 C-7.717 18.729 -7.717 18.729 -9.008 21.953 C-9.52 23.13 -10.031 24.307 -10.559 25.52 C-11.081 26.763 -11.603 28.006 -12.125 29.25 C-12.654 30.478 -13.183 31.706 -13.715 32.934 C-14.724 35.276 -15.722 37.622 -16.709 39.974 C-17.698 42.291 -18.746 44.543 -19.844 46.809 C-21.34 50.937 -21.448 54.454 -21.375 58.812 C-21.365 59.752 -21.355 60.692 -21.344 61.661 C-20.183 119.718 -12.8 178.643 -5.312 236.188 C-5.204 237.028 -5.095 237.869 -4.983 238.735 C-4.677 241.088 -4.365 243.441 -4.051 245.793 C-3.959 246.496 -3.868 247.199 -3.774 247.924 C-3.295 251.578 -3.295 251.578 -2 255 C-1.143 254.783 -1.143 254.783 -0.27 254.562 C14.729 251.129 29.337 252.978 43 260 C43.66 260 44.32 260 45 260 C45 257.03 45 254.06 45 251 C45.112 251.776 45.224 252.552 45.34 253.352 C46.906 261.93 49.907 267.74 54.844 274.809 C57 278 57 278 58.594 281.348 C59.772 284.307 59.772 284.307 63 285 C65.366 285.318 67.737 285.593 70.111 285.848 C70.832 285.926 71.552 286.004 72.295 286.085 C74.683 286.343 77.072 286.595 79.461 286.848 C81.129 287.025 82.798 287.203 84.466 287.381 C87.972 287.755 91.477 288.125 94.983 288.493 C99.443 288.963 103.902 289.441 108.36 289.923 C111.812 290.294 115.265 290.658 118.718 291.021 C120.359 291.195 122.001 291.371 123.642 291.549 C139.844 294.464 139.844 294.464 154.673 291.148 C157.165 288.788 158.664 287.182 160 284 C159.82 276.549 157.825 269.333 156.099 262.108 C155.628 260.137 155.165 258.164 154.703 256.191 C152.946 248.752 151.076 241.357 149 234 C151.933 240.926 154.255 247.876 156.25 255.125 C156.652 256.56 156.652 256.56 157.062 258.023 C157.713 260.348 158.359 262.673 159 265 C164.476 261.096 169.364 256.931 174.062 252.125 C174.674 251.505 175.285 250.885 175.915 250.246 C180.113 245.965 184.212 241.652 188 237 C188.604 236.266 188.604 236.266 189.221 235.518 C201.002 221.156 214.516 204.532 213 185 C209.927 172.504 196.918 155.317 187 147 C186.072 146.814 185.144 146.629 184.188 146.438 C179.188 144.183 177.461 139.731 175 135 C173.786 138.642 174.333 139.332 175.938 142.688 C176.318 143.496 176.698 144.304 177.09 145.137 C177.39 145.752 177.691 146.366 178 147 C175.235 143.543 173.151 139.857 171 136 C167.274 137.119 167.274 137.119 165 140 C166.224 142.937 166.224 142.937 167.938 146.125 C168.503 147.221 169.069 148.316 169.652 149.445 C170.319 150.71 170.319 150.71 171 152 C170.34 152 169.68 152 169 152 C168.732 151.299 168.464 150.597 168.188 149.875 C166.932 146.835 165.498 143.927 164 141 C161.038 141.613 159.619 142.254 157 144 C157.607 147.153 158.642 149.189 160.562 151.75 C161.018 152.364 161.473 152.977 161.941 153.609 C162.291 154.068 162.64 154.527 163 155 C160.352 152.422 158.056 150.084 156 147 C155.381 147.309 154.763 147.619 154.125 147.938 C152.75 148.625 151.375 149.312 150 150 C150.557 155.014 152.218 159.06 154.5 163.5 C154.853 164.195 155.206 164.89 155.57 165.606 C161.008 176.097 167.489 185.871 175 195 C171.329 193.522 169.589 191.524 167.25 188.375 C166.636 187.558 166.023 186.74 165.391 185.898 C164.932 185.272 164.473 184.645 164 184 C150.544 185.89 137.564 198.121 127 206 C126.35 206.483 125.701 206.966 125.031 207.464 C121.676 209.961 118.332 212.472 115 215 C115.309 215.619 115.619 216.238 115.938 216.875 C117.97 220.941 118.39 223.34 118 228 C116.923 230.652 115.465 232.94 113.875 235.312 C113.496 235.932 113.117 236.551 112.727 237.189 C109.998 241.378 107.841 242.913 103 244 C101.886 244.371 100.772 244.743 99.625 245.125 C91.314 247.143 77.784 247.892 70 244 C64.549 239.375 60.808 232.978 57 227 C56.34 226.01 55.68 225.02 55 224 C54.772 220.421 55.071 217.44 56 214 C52.349 215.28 49.101 216.664 46 219 C44.567 222.305 44.153 225.418 44 229 C44 226.03 44 223.06 44 220 C32.909 222.697 21.887 225.621 10.875 228.625 C9.261 229.064 9.261 229.064 7.613 229.512 C6.171 229.906 6.171 229.906 4.7 230.307 C2.145 230.963 -0.408 231.509 -3 232 C-3.495 231.01 -3.495 231.01 -4 230 C-2.68 229.67 -1.36 229.34 0 229 C0.119 223.244 -0.308 217.826 -1.137 212.137 C-1.386 210.318 -1.634 208.499 -1.88 206.68 C-2.012 205.709 -2.144 204.738 -2.279 203.738 C-5.448 180.068 -7.286 156.383 -8.812 132.562 C-8.865 131.744 -8.918 130.925 -8.972 130.081 C-9.679 119.056 -10.351 108.029 -11 97 C-11.062 95.965 -11.123 94.929 -11.186 93.862 C-14.04 45.609 -14.04 45.609 -3.438 32.938 C-1 31 -1 31 2 29 C2.221 26.211 2.281 23.653 2.188 20.875 C2.174 20.121 2.16 19.367 2.146 18.59 C2.111 16.726 2.057 14.863 2 13 C-1.711 13 -3.044 13.787 -6 16 Z M269 180 C269.062 180.949 269.124 181.898 269.188 182.875 C269.126 183.906 269.064 184.938 269 186 C268.01 186.66 267.02 187.32 266 188 C266 188.66 266 189.32 266 190 C267.65 189.67 269.3 189.34 271 189 C271 190.65 271 192.3 271 194 C271.99 194 272.98 194 274 194 C273.67 192.02 273.34 190.04 273 188 C274.32 188 275.64 188 277 188 C277 187.34 277 186.68 277 186 C276.216 185.938 275.433 185.876 274.625 185.812 C273.759 185.544 272.892 185.276 272 185 C270.688 182.438 270.688 182.438 270 180 C269.67 180 269.34 180 269 180 Z M45 188 C46.564 193.614 48.164 198.868 51 204 C55.343 204.167 58.21 204.13 62 202 C60.541 199.767 59.069 197.545 57.574 195.336 C56.375 193.556 55.21 191.752 54.062 189.938 C52.013 187.61 52.013 187.61 48.25 187.688 C47.178 187.791 46.105 187.894 45 188 Z M60 214 C57.347 217.976 57.347 217.976 57.5 222.562 C59.308 225.5 61.47 227.669 64 230 C64.99 228.68 65.98 227.36 67 226 C66 230 66 230 65.289 231.906 C64.769 234.067 64.769 234.067 66.145 235.922 C66.695 236.525 67.245 237.128 67.812 237.75 C68.355 238.364 68.898 238.977 69.457 239.609 C70.901 241.223 70.901 241.223 73 241 C73.33 238.03 73.66 235.06 74 232 C74.66 232.66 75.32 233.32 76 234 C75.967 236.729 75.436 239.297 75 242 C78.3 242.66 81.6 243.32 85 244 C85 241.03 85 238.06 85 235 C85.66 235 86.32 235 87 235 C87.33 237.64 87.66 240.28 88 243 C90.31 243 92.62 243 95 243 C96.255 239.234 95.371 237.628 94 234 C96 235 96 235 97.125 238.062 C97.414 239.032 97.702 240.001 98 241 C100.97 240.67 103.94 240.34 107 240 C106.01 237.03 105.02 234.06 104 231 C107 234 107 234 108 236 C108.66 236 109.32 236 110 236 C112.042 233.095 113 231.599 113 228 C110.525 227.01 110.525 227.01 108 226 C108 225.34 108 224.68 108 224 C108.763 224.33 109.526 224.66 110.312 225 C112.991 226.174 112.991 226.174 116 226 C115.492 221.602 114.031 219.424 111.062 216.188 C110.352 215.397 109.642 214.607 108.91 213.793 C107.194 211.772 107.194 211.772 105 212 C104.818 212.543 104.636 213.085 104.449 213.645 C104.072 214.718 104.072 214.718 103.688 215.812 C103.444 216.52 103.2 217.228 102.949 217.957 C101.869 220.282 101.06 221.463 99 223 C91.119 225.295 82.796 225.818 75 223 C72 220.562 72 220.562 70 218 C69.402 217.402 68.804 216.804 68.188 216.188 C67.796 215.796 67.404 215.404 67 215 C64.525 216.485 64.525 216.485 62 218 C61.67 217.67 61.34 217.34 61 217 C63.31 215.35 65.62 213.7 68 212 C67.67 211.34 67.34 210.68 67 210 C63.747 210 62.326 211.844 60 214 Z M413 213 C408.342 223.556 404.632 234.412 400.875 245.312 C399.943 248.014 399.009 250.714 398.073 253.414 C397.495 255.081 396.919 256.748 396.346 258.416 C394.744 263.038 392.982 267.527 391 272 C390.662 270.929 390.325 269.858 389.977 268.754 C389.526 267.357 389.076 265.96 388.625 264.562 C388.403 263.855 388.182 263.148 387.953 262.42 C387.359 260.594 386.685 258.794 386 257 C385.34 256.67 384.68 256.34 384 256 C384.539 260.945 385.309 265.628 386.598 270.434 C388.042 279.648 385.793 285.895 381.938 294.312 C380.978 296.429 380.028 298.55 379.09 300.676 C378.666 301.603 378.241 302.53 377.804 303.486 C376.94 306.186 377.012 307.387 378 310 C378.865 308.308 379.729 306.615 380.587 304.919 C381.327 303.461 382.074 302.007 382.829 300.558 C385.079 296.157 386.543 292.044 387.812 287.25 C388.906 284.375 388.906 284.375 391 282 C396.969 279.427 403.582 278.681 410 278 C410 277.34 410 276.68 410 276 C407.374 276.308 404.75 276.621 402.125 276.938 C401.379 277.025 400.632 277.112 399.863 277.201 C395.805 277.633 395.805 277.633 392 279 C392.438 277.951 392.877 276.901 393.328 275.82 C397.684 265.235 401.684 254.536 405.513 243.751 C406.04 242.266 406.57 240.782 407.1 239.298 C410.201 230.621 412.99 222.01 415 213 C414.34 213 413.68 213 413 213 Z M-1 259 C-0.593 269.019 0.609 278.24 3 288 C3.918 287.795 4.836 287.59 5.781 287.379 C7.008 287.109 8.236 286.84 9.5 286.562 C10.707 286.296 11.913 286.029 13.156 285.754 C22.486 283.924 31.537 283.881 41 283.938 C42.457 283.943 43.914 283.947 45.371 283.951 C48.914 283.962 52.457 283.979 56 284 C54.556 275.626 48.695 267.37 41.969 262.172 C27.966 253.837 13.922 253.974 -1 259 Z M166 267 C164.422 268.557 164.422 268.557 162.875 270.5 C162.336 271.15 161.797 271.799 161.242 272.469 C160.832 272.974 160.422 273.479 160 274 C160.99 274.495 160.99 274.495 162 275 C163.98 272.36 165.96 269.72 168 267 C167.34 267 166.68 267 166 267 Z M387.312 331.812 C386.528 332.074 385.744 332.335 384.936 332.604 C384.19 332.865 383.444 333.126 382.676 333.395 C381.654 333.748 381.654 333.748 380.611 334.109 C378.636 334.964 378.636 334.964 378 338 C385.146 336.207 392.4 334.354 399 331 C399.33 330.34 399.66 329.68 400 329 C395.242 329 391.751 330.247 387.312 331.812 Z M-34 426 C-43.366 437.135 -44.57 450.815 -43.785 464.836 C-42.102 480.125 -37.187 496.283 -25.711 507.172 C-21.096 510.696 -17.941 512.466 -12 512 C-8.247 510.66 -6.568 508.739 -4.75 505.312 C-0.345 494.371 -1.163 481.647 -5.625 470.938 C-6.079 469.968 -6.533 468.999 -7 468 C-7.971 470.698 -7.957 472.299 -7.543 475.188 C-6.251 484.256 -5.624 493.733 -10 502 C-13 504 -13 504 -16.188 504.188 C-23.149 502.019 -26.453 496.72 -29.957 490.559 C-37.504 475.814 -41.143 457.775 -36.875 441.438 C-34.548 435.124 -31.434 429.488 -25.625 425.938 C-24.759 425.628 -23.892 425.319 -23 425 C-23.33 424.01 -23.66 423.02 -24 422 C-28.561 422 -30.736 423.01 -34 426 Z M262 443 C259.991 447.1 257.994 451.205 256 455.312 C255.428 456.48 254.855 457.647 254.266 458.85 C253.724 459.968 253.183 461.086 252.625 462.238 C252.122 463.27 251.62 464.302 251.102 465.365 C249.807 467.985 249.807 467.985 250 471 C258.375 472.015 258.375 472.015 266.242 469.746 C271.667 463.959 275.394 455.44 278 448 C277.759 445.7 277.621 444.621 276 443 C273.647 442.927 271.292 442.916 268.938 442.938 C267.647 442.947 266.357 442.956 265.027 442.965 C264.028 442.976 263.029 442.988 262 443 Z M222.824 443.73 C220.003 443.612 218.492 443.647 216 445 C212.865 449.359 210.91 454.006 209 459 C208.566 460.091 208.131 461.181 207.684 462.305 C205.734 467.025 205.734 467.025 205 472 C208.729 472.058 212.458 472.094 216.188 472.125 C217.243 472.142 218.298 472.159 219.385 472.176 C220.406 472.182 221.428 472.189 222.48 472.195 C223.887 472.211 223.887 472.211 225.321 472.227 C228.28 471.976 230.361 471.354 233 470 C234.589 467.783 235.863 465.762 237.125 463.375 C237.47 462.744 237.816 462.113 238.172 461.463 C241.266 455.716 244 450.626 244 444 C239.547 443.956 235.098 443.938 230.645 443.988 C227.994 444.016 225.471 443.955 222.824 443.73 Z M255 444 C252.846 447.746 250.703 451.497 248.562 455.25 C247.645 456.845 247.645 456.845 246.709 458.473 C245.834 460.01 245.834 460.01 244.941 461.578 C244.402 462.521 243.863 463.463 243.307 464.435 C242.168 466.67 241.466 468.55 241 471 C244.965 469.526 246.05 467.6 247.832 463.844 C248.564 462.31 248.564 462.31 249.311 460.746 C249.806 459.675 250.302 458.604 250.812 457.5 C251.585 455.893 251.585 455.893 252.373 454.254 C254.317 450.181 254.317 450.181 256 446 C255.67 445.34 255.34 444.68 255 444 Z M199 445 C194.153 454.076 190.461 463.329 187 473 C190.96 473 194.92 473 199 473 C199.701 471.309 200.402 469.618 201.125 467.875 C202.614 464.291 204.118 460.715 205.668 457.156 C205.942 456.526 206.215 455.896 206.498 455.247 C207.283 453.442 208.073 451.639 208.863 449.836 C210.124 447.2 210.124 447.2 210 445 C206.37 445 202.74 445 199 445 Z M31 506 C29.992 508.58 28.993 511.164 28 513.75 C27.714 514.48 27.428 515.209 27.133 515.961 C26.862 516.67 26.591 517.379 26.312 518.109 C26.061 518.759 25.81 519.408 25.551 520.077 C24.816 522.308 24.816 522.308 25 526 C26.93 525.891 26.93 525.891 29 525 C32.51 519.532 34.569 513.461 35 507 C33.68 506.67 32.36 506.34 31 506 Z M19 508 C17.304 510.649 15.644 513.319 14 516 C13.511 516.79 13.023 517.58 12.52 518.395 C11.829 519.56 11.829 519.56 11.125 520.75 C10.694 521.467 10.264 522.183 9.82 522.922 C8.844 525.396 9.103 526.542 10 529 C14.138 527.621 15.133 524.817 17.125 521.188 C17.485 520.558 17.844 519.928 18.215 519.279 C19.912 516.251 21.427 513.448 22 510 C21.01 509.34 20.02 508.68 19 508 Z " fill="#000000" transform="translate(361,198)"/>
<path d="M0 0 C0.66 0 1.32 0 2 0 C2.868 3.907 3.294 7.742 3.613 11.73 C3.667 12.394 3.722 13.059 3.777 13.743 C3.896 15.194 4.012 16.646 4.128 18.097 C4.452 22.143 4.787 26.189 5.12 30.234 C5.191 31.097 5.262 31.961 5.335 32.85 C8.088 66.421 11.201 99.941 14.75 133.438 C14.846 134.341 14.941 135.245 15.04 136.176 C16.63 151.204 18.225 166.231 19.932 181.247 C20.073 182.5 20.215 183.753 20.361 185.044 C20.621 187.326 20.884 189.607 21.15 191.889 C22.319 202.14 22.319 202.14 22 206 C15.555 213.613 4.059 220.823 -6 222 C-10.466 220.668 -13.796 219.192 -16.164 215.012 C-19.429 207.155 -20.243 198.69 -21.02 190.297 C-21.105 189.38 -21.191 188.462 -21.279 187.517 C-22.14 177.96 -22.649 168.398 -23.062 158.812 C-23.124 157.435 -23.124 157.435 -23.186 156.03 C-24.545 125.23 -25.09 94.451 -25.122 63.622 C-25.125 61.58 -25.129 59.539 -25.133 57.497 C-25.139 53.645 -25.137 49.793 -25.133 45.941 C-25.135 44.797 -25.137 43.653 -25.139 42.474 C-25.076 20.54 -25.076 20.54 -20 13 C-16.279 9.611 -12.126 7.232 -7.75 4.812 C-3.628 2.737 -3.628 2.737 0 0 Z M-12 41 C-11.869 41.946 -11.737 42.892 -11.602 43.867 C-10.209 54.232 -9.426 64.56 -8.875 75 C-8.788 76.565 -8.701 78.13 -8.613 79.695 C-8.403 83.463 -8.2 87.231 -8 91 C-6.02 90.505 -6.02 90.505 -4 90 C-4.07 85.699 -4.158 81.398 -4.262 77.097 C-4.295 75.641 -4.323 74.184 -4.346 72.728 C-4.318 56.123 -4.318 56.123 -10 41 C-10.66 41 -11.32 41 -12 41 Z M-8 109 C-8.103 115.417 -7.745 121.627 -7 128 C-5.68 128 -4.36 128 -3 128 C-3.33 122.06 -3.66 116.12 -4 110 C-5.32 109.67 -6.64 109.34 -8 109 Z M-11 163 C-10.67 165.31 -10.34 167.62 -10 170 C-11.32 170.33 -12.64 170.66 -14 171 C-14 171.66 -14 172.32 -14 173 C-12.35 173 -10.7 173 -9 173 C-8.67 174.98 -8.34 176.96 -8 179 C-7.34 179 -6.68 179 -6 179 C-6.33 176.69 -6.66 174.38 -7 172 C-5.68 171.67 -4.36 171.34 -3 171 C-3 170.34 -3 169.68 -3 169 C-4.65 169.33 -6.3 169.66 -8 170 C-8.33 167.69 -8.66 165.38 -9 163 C-9.66 163 -10.32 163 -11 163 Z " fill="#000000" transform="translate(319,228)"/>
<path d="M0 0 C2.918 0.45 5.834 0.91 8.75 1.375 C9.575 1.501 10.4 1.628 11.25 1.758 C12.049 1.887 12.848 2.016 13.672 2.148 C14.405 2.264 15.138 2.379 15.894 2.498 C21.81 3.909 23.683 7.167 26.828 12.102 C28.728 14.636 30.543 16.438 32.863 18.555 C37.867 23.471 40.267 29.095 42.938 35.5 C43.704 37.285 43.704 37.285 44.486 39.105 C49.368 50.601 53.832 62.228 58 74 C58.367 75.019 58.734 76.038 59.112 77.088 C71.779 112.47 79.327 149.334 84.875 186.438 C85.04 187.529 85.04 187.529 85.208 188.642 C85.873 193.087 86.47 197.536 87 202 C87.169 203.288 87.169 203.288 87.341 204.602 C87.508 206.723 87.508 206.723 87 210 C83.968 212.205 83.968 212.205 81 214 C79.593 206.539 78.19 199.078 76.843 191.606 C64.682 124.229 44.401 58.201 1.203 3.734 C0 2 0 2 0 0 Z " fill="#000000" transform="translate(595,231)"/>
<path d="M0 0 C4.354 0.564 8.677 1.235 13 2 C14.187 2.205 14.187 2.205 15.398 2.414 C20.358 3.727 22.077 6.242 24.75 10.562 C25.281 11.533 25.812 12.504 26.359 13.504 C27.964 16.4 27.964 16.4 32 18 C29.03 12.06 29.03 12.06 26 6 C36.011 7.472 46.457 10.891 53.367 18.703 C68.309 39.722 73.022 68.225 78 93 C78.221 94.084 78.443 95.168 78.671 96.284 C86.492 134.748 91.233 173.855 94 213 C91.148 210.239 89.401 207.394 87.477 203.938 C85.571 201.437 83.819 200.399 81 199 C77.876 198.64 77.876 198.64 74.688 198.812 C73.619 198.84 72.55 198.867 71.449 198.895 C70.641 198.929 69.833 198.964 69 199 C68.85 197.915 68.699 196.83 68.544 195.712 C60.312 136.611 50.297 64.808 13.215 15.785 C12 14 12 14 12 12 C11.01 11.67 10.02 11.34 9 11 C9 10.34 9 9.68 9 9 C8.443 8.814 7.886 8.629 7.312 8.438 C3.932 6.336 2.149 3.293 0 0 Z M38 34 C39.604 40.353 41.863 46.363 44.438 52.375 C44.87 53.409 44.87 53.409 45.311 54.465 C47.018 58.37 48.754 61.218 52 64 C53.908 59.089 51.345 55.36 49.373 50.811 C48.858 49.656 48.343 48.502 47.812 47.312 C47.317 46.147 46.821 44.981 46.311 43.779 C45.823 42.673 45.335 41.566 44.832 40.426 C44.163 38.901 44.163 38.901 43.48 37.345 C42.224 34.837 42.224 34.837 39.823 34.161 C39.221 34.108 38.62 34.055 38 34 Z M62 101 C60.802 104.483 61.215 106.695 62.215 110.203 C62.626 111.673 62.626 111.673 63.045 113.172 C63.339 114.188 63.634 115.203 63.938 116.25 C64.228 117.281 64.519 118.312 64.818 119.375 C65.537 121.919 66.264 124.461 67 127 C67.99 127 68.98 127 70 127 C70.279 121.302 69.334 116.628 67.688 111.188 C67.367 110.044 67.367 110.044 67.041 108.877 C65.682 104.149 65.682 104.149 62 101 Z " fill="#000000" transform="translate(623,237)"/>
<path d="M0 0 C3.542 3.099 4.844 4.887 5.5 9.562 C4.869 13.899 3.807 16.645 0.25 19.312 C-3.031 20.315 -5.582 20.354 -9 20 C-14.538 16.923 -14.538 16.923 -16 14 C-16.344 8.752 -16.568 5.183 -13 1 C-8.909 -1.572 -4.507 -1.545 0 0 Z M-11.5 5.125 C-13.209 7.923 -13.209 7.923 -13.188 11.125 C-12.193 14.315 -12.193 14.315 -8.75 16.062 C-5.124 17.336 -5.124 17.336 -2.188 16 C0.334 13.695 1.359 12.365 2 9 C0.882 6.658 -0.163 4.837 -2 3 C-6.215 2.523 -8.2 2.32 -11.5 5.125 Z " fill="#000000" transform="translate(215,252)"/>
<path d="M0 0 C0.99 0.495 0.99 0.495 2 1 C1.857 11.521 1.711 22.042 1.562 32.562 C1.551 33.354 1.54 34.146 1.529 34.961 C1.269 53.295 0.997 71.627 0.561 89.958 C-1.28 167.949 -1.407 245.992 -2 324 C-6.335 324.939 -10.468 325.145 -14.891 325.133 C-15.636 325.134 -16.381 325.135 -17.149 325.136 C-18.715 325.136 -20.282 325.135 -21.849 325.13 C-24.256 325.125 -26.663 325.13 -29.07 325.137 C-30.594 325.136 -32.117 325.135 -33.641 325.133 C-34.363 325.135 -35.086 325.137 -35.831 325.139 C-40.885 325.115 -40.885 325.115 -42 324 C-42.388 321.477 -42.716 318.973 -43 316.438 C-43.087 315.675 -43.174 314.913 -43.263 314.128 C-45.347 295.183 -45.114 276.934 -43 258 C-43.66 258 -44.32 258 -45 258 C-44.535 245.502 -42.322 233.872 -35.328 223.363 C-33.148 219.484 -32.54 215.374 -32 211 C-29.403 213.597 -29.488 215.183 -29 218.801 C-28.836 219.996 -28.672 221.191 -28.504 222.423 C-28.337 223.706 -28.171 224.99 -28 226.312 C-27.824 227.619 -27.648 228.925 -27.467 230.271 C-26.324 238.866 -25.361 247.472 -24.771 256.124 C-24.209 263.324 -22.679 270.697 -19 277 C-16.97 277.951 -16.97 277.951 -14.625 278.312 C-13.854 278.474 -13.083 278.635 -12.289 278.801 C-9.687 279.152 -9.687 279.152 -6 278 C-5.67 275.03 -5.34 272.06 -5 269 C-7.64 269 -10.28 269 -13 269 C-16.455 261.723 -16.894 254.224 -17.508 246.31 C-17.687 244.005 -17.882 241.702 -18.08 239.398 C-18.204 237.912 -18.327 236.425 -18.449 234.938 C-18.505 234.26 -18.562 233.583 -18.62 232.885 C-18.977 228.24 -19.046 223.655 -19 219 C-14.097 218.019 -10.191 218 -5 218 C-5 208.1 -5 198.2 -5 188 C-10.193 186.516 -12.899 185.751 -17.938 185.875 C-18.895 185.893 -19.853 185.911 -20.84 185.93 C-21.553 185.953 -22.266 185.976 -23 186 C-23.677 182.314 -24.339 178.626 -25 174.938 C-25.191 173.899 -25.382 172.861 -25.578 171.791 C-26.529 166.445 -27.246 161.43 -27 156 C-25.026 159.764 -23.626 163.664 -22.195 167.66 C-20.28 171.41 -17.922 172.693 -14 174 C-11.307 174.178 -8.706 174.087 -6 174 C-4.022 172.022 -4.745 168.177 -4.684 165.465 C-4.663 164.712 -4.642 163.958 -4.621 163.182 C-4.555 160.767 -4.496 158.353 -4.438 155.938 C-4.394 154.304 -4.351 152.671 -4.307 151.037 C-4.199 147.025 -4.098 143.012 -4 139 C-4.531 139.214 -5.062 139.429 -5.609 139.65 C-6.316 139.926 -7.022 140.203 -7.75 140.488 C-8.446 140.765 -9.142 141.041 -9.859 141.325 C-13.02 142.322 -15.709 142.206 -19 142 C-16.058 140.039 -13.148 138.642 -9.938 137.195 C-7.407 135.634 -6.394 134.671 -5 132 C-4.498 128.756 -4.397 125.528 -4.312 122.25 C-4.278 121.362 -4.244 120.474 -4.209 119.559 C-4.127 117.373 -4.057 115.187 -4 113 C-9.774 113.375 -14.214 114.183 -19.375 117 C-24.886 119.962 -24.886 119.962 -28 121 C-28 128.26 -28 135.52 -28 143 C-28.66 143 -29.32 143 -30 143 C-31.679 132.951 -33.356 122.902 -35.033 112.853 C-35.812 108.186 -36.591 103.52 -37.37 98.853 C-38.123 94.347 -38.875 89.841 -39.627 85.334 C-39.913 83.618 -40.2 81.902 -40.487 80.185 C-40.89 77.775 -41.291 75.365 -41.693 72.955 C-41.811 72.251 -41.929 71.546 -42.051 70.821 C-42.76 66.554 -43.403 62.284 -44 58 C-46.679 59.586 -48.224 60.525 -50 63 C-50.233 65.157 -50.233 65.157 -49.843 67.576 C-49.724 68.56 -49.605 69.543 -49.483 70.556 C-49.323 71.692 -49.164 72.829 -49 74 C-48.824 75.302 -48.649 76.604 -48.468 77.946 C-47.825 82.623 -47.139 87.294 -46.453 91.965 C-46.197 93.724 -45.942 95.483 -45.686 97.242 C-45.013 101.872 -44.337 106.502 -43.66 111.133 C-43.123 114.805 -42.587 118.478 -42.052 122.151 C-41.788 123.964 -41.524 125.776 -41.259 127.589 C-40.602 132.092 -39.952 136.596 -39.314 141.102 C-38.185 149.051 -37.028 156.985 -35.657 164.897 C-35.083 168.225 -34.542 171.559 -34.004 174.894 C-33.744 176.45 -33.468 178.003 -33.175 179.552 C-30.94 191.42 -30.94 191.42 -33.636 195.439 C-35.668 197.21 -37.72 198.578 -40 200 C-42.077 203.475 -42.255 206.763 -42.53 210.774 C-43.104 218.885 -44.686 226.39 -47.188 234.125 C-47.588 235.421 -47.588 235.421 -47.997 236.742 C-50.306 243.507 -53.995 247.995 -59 253 C-59.368 255.328 -59.702 257.662 -60 260 C-55.71 260 -51.42 260 -47 260 C-47.01 261.223 -47.021 262.446 -47.032 263.706 C-47.069 268.352 -47.091 272.999 -47.11 277.645 C-47.12 279.636 -47.133 281.626 -47.151 283.617 C-47.271 297.543 -46.588 311.163 -45 325 C-45.71 325.061 -46.421 325.121 -47.152 325.184 C-48.531 325.309 -48.531 325.309 -49.938 325.438 C-50.854 325.519 -51.771 325.6 -52.715 325.684 C-54.962 325.76 -54.962 325.76 -56 327 C-29.27 326.505 -29.27 326.505 -2 326 C-0.822 343.666 -0.822 343.666 -0.75 349.188 C-0.724 350.398 -0.698 351.608 -0.672 352.855 C-1.029 356.275 -1.566 357.617 -4 360 C-9.314 361.771 -15.002 361.191 -20.562 361.188 C-21.224 361.188 -21.886 361.188 -22.568 361.188 C-32.301 361.175 -41.978 360.847 -51.688 360.125 C-52.785 360.047 -53.882 359.968 -55.012 359.887 C-56.023 359.803 -57.033 359.719 -58.074 359.633 C-59.398 359.523 -59.398 359.523 -60.749 359.411 C-63 359 -63 359 -66 357 C-67.077 353.77 -67.126 351.441 -67.125 348.044 C-67.126 346.82 -67.127 345.596 -67.128 344.334 C-67.123 342.99 -67.117 341.645 -67.111 340.301 C-67.109 339.268 -67.109 339.268 -67.106 338.215 C-67.069 323.255 -66.73 308.305 -66.287 293.352 C-66.221 291.13 -66.157 288.907 -66.093 286.684 C-64.978 248.005 -63.391 209.344 -61.795 170.683 C-61.472 162.849 -61.153 155.014 -60.836 147.18 C-60.45 137.631 -60.06 128.083 -59.67 118.535 C-59.56 115.841 -59.45 113.148 -59.341 110.455 C-59.17 106.238 -58.996 102.022 -58.821 97.805 C-58.758 96.276 -58.696 94.747 -58.634 93.218 C-58.495 89.786 -58.346 86.355 -58.18 82.923 C-58.056 80.225 -57.961 77.537 -57.895 74.838 C-57.845 73.496 -57.795 72.153 -57.744 70.811 C-57.711 69.631 -57.679 68.45 -57.645 67.234 C-56.42 61.09 -51.608 57.852 -47 54 C-45.802 52.716 -44.632 51.405 -43.5 50.062 C-40.773 46.874 -37.967 43.774 -35.125 40.688 C-31.082 36.255 -27.257 31.697 -23.492 27.027 C-20.501 23.394 -17.411 19.854 -14.312 16.312 C-10.839 12.342 -7.433 8.384 -4.312 4.125 C-2 1 -2 1 0 0 Z M-23.688 31.188 C-26.255 34.431 -26.291 36.93 -26.062 41 C-24.401 54.488 -20.769 68.159 -9.68 76.883 C-7.558 78.294 -5.437 79.261 -3 80 C-2.71 76.621 -2.571 73.371 -3 70 C-5.209 67.898 -5.209 67.898 -8 66 C-12.878 58.651 -14.584 50.393 -16.312 41.875 C-16.576 40.632 -16.84 39.39 -17.111 38.109 C-17.753 35.075 -18.382 32.039 -19 29 C-21.319 28.79 -21.319 28.79 -23.688 31.188 Z " fill="#000000" transform="translate(280,281)"/>
<path d="M0 0 C0.66 0.33 1.32 0.66 2 1 C1.67 5.95 1.34 10.9 1 16 C0.34 16 -0.32 16 -1 16 C-1.027 13.521 -1.047 11.042 -1.062 8.562 C-1.075 7.502 -1.075 7.502 -1.088 6.42 C-1.097 4.613 -1.052 2.806 -1 1 C-0.67 0.67 -0.34 0.34 0 0 Z " fill="#000000" transform="translate(244,297)"/>
<path d="M0 0 C1.32 0 2.64 0 4 0 C4 2.31 4 4.62 4 7 C6.64 7 9.28 7 12 7 C12 8.32 12 9.64 12 11 C9.69 11.66 7.38 12.32 5 13 C4.67 16.96 4.34 20.92 4 25 C3.01 25.33 2.02 25.66 1 26 C0.34 25.67 -0.32 25.34 -1 25 C-1 21.04 -1 17.08 -1 13 C-4.3 13 -7.6 13 -11 13 C-11.33 11.68 -11.66 10.36 -12 9 C-10.417 7.417 -8.62 7.653 -6.438 7.438 C-5.198 7.312 -5.198 7.312 -3.934 7.184 C-2.976 7.093 -2.976 7.093 -2 7 C-1.34 4.69 -0.68 2.38 0 0 Z " fill="#000000" transform="translate(141,308)"/>
<path d="M0 0 C1.887 0.031 1.887 0.031 3.812 0.062 C3.483 1.382 3.152 2.702 2.812 4.062 C1.799 4.227 1.799 4.227 0.766 4.395 C-0.572 4.632 -0.572 4.632 -1.938 4.875 C-3.26 5.101 -3.26 5.101 -4.609 5.332 C-7.379 6.117 -9.013 7.208 -11.188 9.062 C-11.517 7.743 -11.848 6.423 -12.188 5.062 C-8.089 1.629 -5.385 -0.088 0 0 Z " fill="#000000" transform="translate(434.1875,338.9375)"/>
<path d="M0 0 C2.302 3.452 2.345 4.947 2 9 C1.34 9.66 0.68 10.32 0 11 C-2.125 10.625 -2.125 10.625 -4 10 C-3.67 8.02 -3.34 6.04 -3 4 C-5.31 4 -7.62 4 -10 4 C-9.625 2.062 -9.625 2.062 -9 0 C-5.851 -1.574 -3.355 -0.719 0 0 Z " fill="#000000" transform="translate(469,344)"/>
<path d="M0 0 C0.99 0 1.98 0 3 0 C3.315 0.675 3.629 1.351 3.953 2.047 C6.562 7.619 6.562 7.619 10.375 12.375 C10.911 12.911 11.447 13.447 12 14 C11.938 16.125 11.938 16.125 11 18 C10.01 18.66 9.02 19.32 8 20 C7.67 20.99 7.34 21.98 7 23 C6.34 23 5.68 23 5 23 C4.19 20.085 3.782 18.539 4.938 15.688 C5.288 15.131 5.639 14.574 6 14 C5.381 13.278 4.762 12.556 4.125 11.812 C1.041 7.73 0 5.133 0 0 Z " fill="#000000" transform="translate(448,345)"/>
<path d="M0 0 C2 3 2 3 1.625 6.188 C1.419 7.116 1.212 8.044 1 9 C-0.65 9.33 -2.3 9.66 -4 10 C-4 8.02 -4 6.04 -4 4 C-5.98 4.33 -7.96 4.66 -10 5 C-9.625 3.062 -9.625 3.062 -9 1 C-5.957 -0.522 -3.346 -0.239 0 0 Z " fill="#000000" transform="translate(439,348)"/>
<path d="M0 0 C1.465 4.504 -0.136 7.58 -1.938 11.75 C-2.228 12.447 -2.519 13.145 -2.818 13.863 C-3.536 15.58 -4.266 17.29 -5 19 C-5.33 19 -5.66 19 -6 19 C-5.597 12.645 -4.782 4.782 0 0 Z " fill="#000000" transform="translate(190,359)"/>
<path d="M0 0 C0.688 1.688 0.688 1.688 1 4 C-0.438 6.75 -0.438 6.75 -2 9 C-2.688 7.312 -2.688 7.312 -3 5 C-1.562 2.25 -1.562 2.25 0 0 Z " fill="#000000" transform="translate(196,361)"/>
<path d="M0 0 C1.239 3.718 0.57 5.439 -0.438 9.188 C-0.725 10.274 -1.012 11.361 -1.309 12.48 C-1.537 13.312 -1.765 14.143 -2 15 C-2.33 15 -2.66 15 -3 15 C-2.221 4.442 -2.221 4.442 0 0 Z " fill="#000000" transform="translate(174,365)"/>
<path d="M0 0 C4.552 1.339 8.431 3.962 11 8 C10.664 10.195 10.664 10.195 10 12 C4.128 13.318 1.092 12.953 -4 10 C-4.938 7.812 -4.938 7.812 -5 6 C-1.39 6 1.558 6.961 5 8 C4.175 7.237 3.35 6.474 2.5 5.688 C0 3 0 3 0 0 Z " fill="#000000" transform="translate(401,365)"/>
<path d="M0 0 C2.438 1.062 2.438 1.062 4.188 4.125 C9.509 19.037 6.057 37.475 4.893 52.872 C4.628 56.394 4.375 59.918 4.123 63.441 C3.295 74.749 2.322 86.029 0.988 97.289 C0.879 98.26 0.769 99.231 0.657 100.232 C-0.249 107.462 -1.675 115.064 -6.719 120.676 C-11.848 124.533 -19.135 127.214 -25.562 127.625 C-29.443 126.897 -30.945 126.044 -33.562 123.062 C-36.972 116.036 -37.138 108.8 -37.125 101.125 C-37.126 99.833 -37.127 98.542 -37.129 97.211 C-36.91 76.536 -33.715 55.849 -30.872 35.401 C-30.597 33.322 -30.386 31.235 -30.184 29.148 C-29.493 25.716 -28.729 24.525 -26.211 22.16 C-25.524 21.497 -24.837 20.834 -24.129 20.15 C-23.406 19.482 -22.683 18.814 -21.938 18.125 C-20.526 16.785 -19.117 15.443 -17.711 14.098 C-17.017 13.439 -16.323 12.781 -15.608 12.102 C-12.953 9.455 -10.56 6.628 -8.19 3.724 C-5.676 1.157 -3.593 0.088 0 0 Z " fill="#000000" transform="translate(208.5625,365.9375)"/>
<path d="M0 0 C2.494 1.204 4.681 2.454 7 4 C11.992 4.499 17.142 4.295 22 3 C21.069 5.328 20.346 6.744 18.312 8.25 C13.738 9.734 9.612 9.439 5.188 7.688 C2 6 2 6 0 3 C0 2.01 0 1.02 0 0 Z " fill="#000000" transform="translate(437,372)"/>
<path d="M0 0 C2.27 3.404 2.365 5.165 2.625 9.188 C2.7 10.274 2.775 11.361 2.852 12.48 C2.925 13.728 2.925 13.728 3 15 C0.73 11.596 0.635 9.835 0.375 5.812 C0.3 4.726 0.225 3.639 0.148 2.52 C0.099 1.688 0.05 0.857 0 0 Z " fill="#000000" transform="translate(351,373)"/>
<path d="M0 0 C0.99 0.33 1.98 0.66 3 1 C4.203 3.871 4.203 3.871 5.25 7.438 C5.606 8.612 5.962 9.786 6.328 10.996 C7 14 7 14 6 16 C5.34 16 4.68 16 4 16 C3.67 14.02 3.34 12.04 3 10 C1.35 10 -0.3 10 -2 10 C-2.33 9.01 -2.66 8.02 -3 7 C-1.68 7 -0.36 7 1 7 C0.67 4.69 0.34 2.38 0 0 Z " fill="#000000" transform="translate(128,387)"/>
<path d="M0 0 C0.33 0 0.66 0 1 0 C1.388 2.957 1.761 5.915 2.125 8.875 C2.237 9.717 2.349 10.559 2.465 11.426 C2.562 12.231 2.658 13.037 2.758 13.867 C2.852 14.611 2.946 15.354 3.043 16.121 C3 18 3 18 1 20 C-1.283 13.722 -1.451 7.647 -1 1 C-0.67 0.67 -0.34 0.34 0 0 Z " fill="#000000" transform="translate(292,419)"/>
<path d="M0 0 C0.66 0 1.32 0 2 0 C2.199 14.43 1.646 28.653 0.504 43.035 C0.349 45.058 0.194 47.081 0.04 49.104 C-0.28 53.294 -0.606 57.483 -0.936 61.671 C-1.358 67.038 -1.771 72.406 -2.18 77.774 C-2.497 81.928 -2.818 86.083 -3.14 90.237 C-3.293 92.219 -3.446 94.2 -3.598 96.181 C-3.81 98.932 -4.026 101.683 -4.244 104.434 C-4.306 105.247 -4.368 106.06 -4.431 106.897 C-4.71 110.366 -5.092 113.642 -6 117 C-4.02 117 -2.04 117 0 117 C-0.495 118.485 -0.495 118.485 -1 120 C-3.562 121.188 -3.562 121.188 -6 122 C-6.766 132.415 -7.531 142.83 -8.295 153.245 C-8.65 158.083 -9.005 162.921 -9.361 167.759 C-9.705 172.44 -10.049 177.122 -10.392 181.803 C-10.522 183.576 -10.652 185.349 -10.783 187.122 C-12.539 209.692 -12.539 209.692 -13.125 232.312 C-13.129 233.312 -13.133 234.312 -13.137 235.342 C-13.135 236.298 -13.134 237.253 -13.133 238.238 C-13.131 239.507 -13.131 239.507 -13.129 240.802 C-13.085 243.178 -13.085 243.178 -12 246 C-10.039 247.389 -8.038 248.726 -6 250 C-5.67 250.33 -5.34 250.66 -5 251 C-5.143 249.291 -5.289 247.583 -5.438 245.875 C-5.519 244.924 -5.6 243.972 -5.684 242.992 C-5.958 240.023 -5.958 240.023 -6.52 237.211 C-8.333 225.09 -8.481 211.507 -1.562 201 C2.11 196.701 2.11 196.701 5 196 C10.011 196 12.874 197.915 16.398 201.23 C25.53 211.319 25.174 227.963 26.233 240.833 C27.187 251.981 28.877 262.548 33 273 C49.466 275.106 65.965 276.684 82.5 278.125 C83.477 278.211 84.455 278.297 85.461 278.386 C97.966 279.483 110.462 280.391 123 281 C122.67 281.99 122.34 282.98 122 284 C108.253 284.49 94.762 283.415 81.096 282.067 C73.381 281.316 65.762 280.776 58 281 C57.841 281.75 57.683 282.5 57.52 283.273 C55.279 293.104 51.957 304.149 43.258 310.215 C36.391 314.089 29.336 314.886 21.75 312.812 C12.964 309.733 5.928 303.752 1.672 295.391 C-1.388 287.49 -2.576 279.283 -3.422 270.895 C-3.536 269.833 -3.536 269.833 -3.652 268.751 C-3.865 266.723 -4.054 264.694 -4.242 262.664 C-5.351 257.302 -7.442 254.263 -11.676 250.832 C-15.725 248.601 -19.818 247.158 -24.188 245.688 C-43.855 238.695 -61.485 223.832 -71 205 C-76.156 193.314 -77.233 181.51 -77.776 168.898 C-78.564 151.333 -81.008 134.813 -85.323 117.752 C-90.165 98.492 -95.82 74.434 -85.422 56.023 C-82.193 51.429 -78.331 48.79 -73 47 C-60.882 45.663 -51.053 48.361 -41.496 55.844 C-26.167 69.086 -17.652 90.042 -10.875 108.727 C-10.202 110.933 -10.202 110.933 -9 112 C-8.902 110.7 -8.804 109.4 -8.703 108.061 C-7.779 95.804 -6.852 83.548 -5.923 71.292 C-5.445 64.991 -4.968 58.69 -4.493 52.389 C-4.035 46.307 -3.574 40.225 -3.112 34.143 C-2.936 31.824 -2.761 29.505 -2.587 27.186 C-2.343 23.935 -2.096 20.684 -1.848 17.433 C-1.777 16.477 -1.705 15.52 -1.632 14.534 C-1.257 9.652 -0.759 4.838 0 0 Z M-55 78 C-54.446 85.158 -53.294 92.03 -51.742 99.035 C-51.518 100.064 -51.295 101.093 -51.064 102.153 C-50.342 105.458 -49.61 108.76 -48.875 112.062 C-48.626 113.187 -48.377 114.311 -48.12 115.469 C-42.104 142.571 -36.018 168.777 -22 193 C-21.511 193.851 -21.023 194.702 -20.52 195.578 C-19.416 197.429 -18.219 199.223 -17 201 C-16.34 201 -15.68 201 -15 201 C-16.645 195.353 -19.319 190.651 -22.342 185.654 C-24.964 181.023 -25.374 178.327 -24 173 C-23.06 169.886 -22.021 166.817 -20.938 163.75 C-20.38 162.163 -19.826 160.574 -19.277 158.984 C-19.032 158.291 -18.787 157.597 -18.535 156.882 C-17.863 154.845 -17.863 154.845 -18 152 C-21.108 152.644 -21.108 152.644 -21.983 154.949 C-22.399 156.198 -22.399 156.198 -22.824 157.473 C-23.283 158.821 -23.283 158.821 -23.752 160.197 C-24.061 161.143 -24.369 162.088 -24.688 163.062 C-25.008 164.012 -25.328 164.961 -25.658 165.939 C-26.449 168.29 -27.229 170.643 -28 173 C-29.82 168.437 -31.547 163.852 -33.191 159.223 C-33.699 157.826 -34.229 156.436 -34.79 155.059 C-40.007 142.185 -36.172 132.234 -31.803 119.57 C-30.801 116.362 -30.314 113.339 -30 110 C-30.66 109.67 -31.32 109.34 -32 109 C-33.176 112.58 -34.339 116.165 -35.5 119.75 C-35.834 120.766 -36.168 121.782 -36.512 122.828 C-36.828 123.808 -37.143 124.788 -37.469 125.797 C-37.762 126.698 -38.055 127.598 -38.357 128.526 C-39.168 131.219 -39.168 131.219 -39 135 C-39.66 135 -40.32 135 -41 135 C-41.074 134.082 -41.074 134.082 -41.149 133.146 C-41.682 127.14 -42.638 121.39 -43.996 115.52 C-44.19 114.662 -44.383 113.805 -44.583 112.922 C-44.989 111.128 -45.399 109.334 -45.811 107.54 C-46.438 104.81 -47.057 102.078 -47.674 99.346 C-48.072 97.591 -48.471 95.836 -48.871 94.082 C-49.054 93.275 -49.238 92.467 -49.427 91.635 C-50.484 87.044 -51.664 82.518 -53 78 C-53.66 78 -54.32 78 -55 78 Z M-26 118 C-26 121.63 -26 125.26 -26 129 C-25.01 128.67 -24.02 128.34 -23 128 C-23 124.7 -23 121.4 -23 118 C-23.99 118 -24.98 118 -26 118 Z M-64.562 145.438 C-65.037 145.953 -65.511 146.469 -66 147 C-65.67 148.65 -65.34 150.3 -65 152 C-60.903 153.042 -57.385 152.944 -53.188 152.562 C-52.026 152.461 -50.865 152.359 -49.668 152.254 C-48.788 152.17 -47.907 152.086 -47 152 C-47 150.68 -47 149.36 -47 148 C-52.289 144.881 -58.848 142.232 -64.562 145.438 Z M-47 195 C-47.333 197.542 -47.333 197.542 -47 200 C-46.67 200.33 -46.34 200.66 -46 201 C-38.157 200.86 -30.587 199.962 -23 198 C-26.831 193.602 -31.887 193.24 -37.484 192.809 C-42.533 192.656 -42.533 192.656 -47 195 Z M14 233 C7.996 242.469 6.684 252.155 8.531 263.168 C10.233 270.464 12.473 279.524 19 284 C22.457 284.75 22.457 284.75 26 284 C28.94 281.646 28.94 281.646 31 279 C30.67 278.01 30.34 277.02 30 276 C29.278 276.825 28.556 277.65 27.812 278.5 C25 281 25 281 22.438 281.625 C18.715 280.67 17.982 279.325 16 276 C11.325 265.191 8.815 252.366 13 241 C15.455 236.489 18.278 232.544 22 229 C18.619 229 16.346 230.74 14 233 Z " fill="#000000" transform="translate(170,386)"/>
<path d="M0 0 C1.44 0.257 2.877 0.531 4.312 0.812 C5.113 0.963 5.914 1.114 6.738 1.27 C9.234 2.076 10.324 3.021 12 5 C11.67 5.33 11.34 5.66 11 6 C2.713 5.321 2.713 5.321 -1 3 C-0.67 2.01 -0.34 1.02 0 0 Z " fill="#000000" transform="translate(561,445)"/>
<path d="M0 0 C5.94 1.485 5.94 1.485 12 3 C11.01 3.99 10.02 4.98 9 6 C7.027 5.891 7.027 5.891 4.938 5.25 C3.899 4.948 3.899 4.948 2.84 4.641 C1 4 1 4 -1 3 C-0.67 2.01 -0.34 1.02 0 0 Z " fill="#000000" transform="translate(566,455)"/>
<path d="M0 0 C5.579 0.496 10.183 2.11 15.352 4.258 C18.368 5.103 20.032 4.922 23 4 C24.356 3.031 25.694 2.036 27 1 C27.66 1 28.32 1 29 1 C28.67 3.973 27.738 5.357 25.938 7.812 C23 10 23 10 19.5 10.125 C13.505 8.919 7.405 6.84 2 4 C0.617 1.832 0.617 1.832 0 0 Z " fill="#000000" transform="translate(444,460)"/>
<path d="M0 0 C0 0.99 0 1.98 0 3 C-12.21 3 -24.42 3 -37 3 C-36.67 2.01 -36.34 1.02 -36 0 C-31.677 -0.168 -27.354 -0.329 -23.03 -0.482 C-21.561 -0.535 -20.091 -0.591 -18.622 -0.648 C-16.505 -0.731 -14.387 -0.805 -12.27 -0.879 C-10.361 -0.95 -10.361 -0.95 -8.413 -1.022 C-5.426 -1.003 -2.888 -0.717 0 0 Z " fill="#000000" transform="translate(657,483)"/>
<path d="M0 0 C2.97 0 5.94 0 9 0 C9.33 0.66 9.66 1.32 10 2 C6.306 3.231 3.794 2.644 0 2 C0 1.34 0 0.68 0 0 Z " fill="#000000" transform="translate(319,495)"/>
<path d="M0 0 C4.106 4.23 3.254 8.461 3.25 14.086 C3.249 15.76 3.249 15.76 3.248 17.468 C3.115 37.435 2.065 57.393 1.208 77.339 C0.963 83.079 0.724 88.819 0.484 94.559 C0.016 105.748 -0.458 116.936 -0.938 128.125 C-1.928 128.125 -2.917 128.125 -3.938 128.125 C-4.132 114.013 -3.9 99.945 -3.281 85.848 C-3.248 85.094 -3.215 84.34 -3.181 83.563 C-2.906 77.318 -2.618 71.074 -2.328 64.83 C-1.193 40.453 -1.193 40.453 -0.656 16.059 C-0.637 14.982 -0.617 13.906 -0.597 12.797 C-0.595 11.332 -0.595 11.332 -0.592 9.838 C-0.586 8.994 -0.579 8.15 -0.573 7.28 C-1.022 4.625 -1.814 3.732 -3.938 2.125 C-6.021 1.905 -6.021 1.905 -8.312 2.312 C-9.184 2.429 -10.055 2.545 -10.953 2.664 C-11.938 2.816 -12.923 2.968 -13.938 3.125 C-15.108 3.298 -16.278 3.47 -17.484 3.648 C-20.638 4.124 -23.789 4.617 -26.938 5.125 C-26.938 4.135 -26.938 3.145 -26.938 2.125 C-24.44 1.446 -21.941 0.782 -19.438 0.125 C-18.741 -0.066 -18.045 -0.257 -17.328 -0.453 C-11.423 -1.984 -5.399 -3.446 0 0 Z " fill="#000000" transform="translate(204.9375,498.875)"/>
<path d="M0 0 C2.31 0.33 4.62 0.66 7 1 C7 1.66 7 2.32 7 3 C4.36 3 1.72 3 -1 3 C-0.67 2.01 -0.34 1.02 0 0 Z " fill="#000000" transform="translate(326,502)"/>
<path d="M0 0 C4.835 2.611 8.871 5.375 13 9 C12.01 9.33 11.02 9.66 10 10 C7.773 8.672 7.773 8.672 5.375 6.75 C4.578 6.126 3.782 5.502 2.961 4.859 C1 3 1 3 0 0 Z " fill="#000000" transform="translate(178,509)"/>
<path d="M0 0 C1 1 1 1 1.062 3.562 C1.042 4.367 1.021 5.171 1 6 C-3.803 7.847 -8.823 9.124 -14 9 C-16 7 -16 7 -16.125 4.375 C-16.084 3.591 -16.043 2.808 -16 2 C-10.566 0.62 -5.618 -0.351 0 0 Z " fill="#000000" transform="translate(308,510)"/>
<path d="M0 0 C5.261 -0.316 8.446 0.334 13 3 C13 3.66 13 4.32 13 5 C7.06 4.01 7.06 4.01 1 3 C0.67 2.01 0.34 1.02 0 0 Z " fill="#000000" transform="translate(415,521)"/>
<path d="M0 0 C4.714 0.479 8.666 0.968 13 3 C12.67 3.66 12.34 4.32 12 5 C10.562 4.885 9.124 4.758 7.688 4.625 C6.887 4.555 6.086 4.486 5.262 4.414 C3 4 3 4 0 2 C0 1.34 0 0.68 0 0 Z " fill="#000000" transform="translate(417,531)"/>
<path d="M0 0 C-0.606 4.474 -2.329 7.817 -4.5 11.75 C-5.129 12.9 -5.758 14.05 -6.406 15.234 C-8 18 -8 18 -9 19 C-9.026 20.359 -8.988 21.72 -8.922 23.078 C-8.896 23.91 -8.87 24.741 -8.844 25.598 C-8.782 27.351 -8.704 29.104 -8.609 30.855 C-8.502 35.217 -8.562 37.357 -11.078 41.047 C-14 43 -14 43 -17.191 43.215 C-23.378 44.49 -26.708 49.082 -30.938 53.562 C-31.812 54.464 -32.687 55.366 -33.588 56.295 C-35.739 58.517 -37.876 60.752 -40 63 C-42.31 62.34 -44.62 61.68 -47 61 C-46.188 58.396 -45.375 55.792 -44.562 53.188 C-44.332 52.45 -44.102 51.712 -43.865 50.951 C-42.931 47.96 -41.991 44.973 -41 42 C-42.279 41.732 -43.558 41.464 -44.875 41.188 C-48.437 40.385 -51.978 39.527 -55.5 38.562 C-56.753 38.224 -56.753 38.224 -58.031 37.879 C-58.681 37.589 -59.331 37.299 -60 37 C-61 34 -61 34 -60.109 31.992 C-59.661 31.294 -59.212 30.595 -58.75 29.875 C-58.312 29.171 -57.873 28.467 -57.422 27.742 C-56 26 -56 26 -53 25 C-50.915 25.108 -48.833 25.294 -46.758 25.523 C-45.527 25.658 -44.296 25.792 -43.027 25.93 C-41.74 26.077 -40.452 26.224 -39.125 26.375 C-37.205 26.584 -37.205 26.584 -35.246 26.797 C-24.921 27.941 -24.921 27.941 -20 29 C-20 28.34 -20 27.68 -20 27 C-20.784 26.711 -21.567 26.423 -22.375 26.125 C-25 25 -25 25 -27 23 C-26.812 20.5 -26.812 20.5 -26 18 C-25.01 17.34 -24.02 16.68 -23 16 C-25.475 15.01 -25.475 15.01 -28 14 C-28.062 11.75 -28.062 11.75 -27 9 C-24.207 7.187 -21.109 6.157 -18 5 C-16.36 4.327 -16.36 4.327 -14.688 3.641 C-4.883 -0.326 -4.883 -0.326 0 0 Z M-9 6 C-8.67 7.32 -8.34 8.64 -8 10 C-7.67 8.68 -7.34 7.36 -7 6 C-7.66 6 -8.32 6 -9 6 Z M-16 8 C-16.99 8.33 -17.98 8.66 -19 9 C-18.67 9.66 -18.34 10.32 -18 11 C-17.01 10.67 -16.02 10.34 -15 10 C-15.33 9.34 -15.66 8.68 -16 8 Z M-10 10 C-9 12 -9 12 -9 12 Z M-14 14 C-14.33 14.66 -14.66 15.32 -15 16 C-14.01 15.67 -13.02 15.34 -12 15 C-12.66 14.67 -13.32 14.34 -14 14 Z M-19 19 C-19.99 20.485 -19.99 20.485 -21 22 C-20.01 22.33 -19.02 22.66 -18 23 C-18.33 21.68 -18.66 20.36 -19 19 Z M-45 32 C-45 32.66 -45 33.32 -45 34 C-38.73 34.33 -32.46 34.66 -26 35 C-27 42 -27 42 -28.672 44.004 C-29.358 44.518 -30.043 45.033 -30.75 45.562 C-34.375 48.445 -37.154 51.354 -40 55 C-36.903 53.631 -34.882 52.079 -32.562 49.625 C-30.416 47.363 -28.748 45.845 -26.062 44.188 C-22.857 41.288 -22.857 41.288 -24 32 C-30.93 32 -37.86 32 -45 32 Z " fill="#000000" transform="translate(614,533)"/>
<path d="M0 0 C0.33 0.99 0.66 1.98 1 3 C-2.3 3 -5.6 3 -9 3 C-9 2.34 -9 1.68 -9 1 C-6.043 -0.478 -3.258 -0.06 0 0 Z " fill="#000000" transform="translate(691,535)"/>
<path d="M0 0 C0 2.31 0 4.62 0 7 C-4.412 8.471 -7.483 9.369 -12 8 C-12 5.69 -12 3.38 -12 1 C-3.964 -1.277 -3.964 -1.277 0 0 Z " fill="#000000" transform="translate(202,539)"/>
<path d="M0 0 C4.972 1.492 9.418 3.605 14 6 C14 6.66 14 7.32 14 8 C3.909 4.9 3.909 4.9 0 2 C0 1.34 0 0.68 0 0 Z " fill="#000000" transform="translate(327,540)"/>
<path d="M0 0 C0.99 0 1.98 0 3 0 C3.961 2.883 4.117 4.677 4.098 7.668 C4.094 8.561 4.091 9.453 4.088 10.373 C4.08 11.302 4.071 12.231 4.062 13.188 C4.058 14.128 4.053 15.068 4.049 16.037 C4.037 18.358 4.021 20.679 4 23 C3.01 23 2.02 23 1 23 C-0.226 20.547 -0.114 18.949 -0.098 16.211 C-0.093 14.799 -0.093 14.799 -0.088 13.359 C-0.08 12.375 -0.071 11.39 -0.062 10.375 C-0.058 9.382 -0.053 8.39 -0.049 7.367 C-0.037 4.911 -0.021 2.456 0 0 Z " fill="#000000" transform="translate(730,542)"/>
<path d="M0 0 C1.109 -0.006 1.109 -0.006 2.239 -0.012 C6.14 -0.033 10.041 -0.047 13.942 -0.057 C17.943 -0.068 21.943 -0.103 25.944 -0.142 C29.05 -0.168 32.157 -0.177 35.264 -0.18 C36.738 -0.185 38.213 -0.197 39.687 -0.215 C47.888 -0.313 54.854 -0.097 62.051 4.238 C62.849 4.707 63.647 5.177 64.469 5.66 C71.879 11.222 76.579 17.227 78.707 26.371 C79.602 33.834 77.679 40.479 73.395 46.594 C68.904 52.089 61.99 55.825 55.051 57.238 C52.814 57.388 50.573 57.487 48.332 57.555 C47.658 57.576 46.984 57.597 46.289 57.618 C44.043 57.685 41.797 57.744 39.551 57.801 C38.776 57.821 38.001 57.84 37.202 57.861 C31.152 58.011 25.102 58.13 19.051 58.238 C17.622 58.265 17.622 58.265 16.165 58.292 C10.24 58.4 4.316 58.479 -1.61 58.524 C-3.529 58.542 -5.448 58.566 -7.366 58.597 C-31.936 58.979 -31.936 58.979 -41.453 49.941 C-48.098 42.377 -50.507 34.576 -50.324 24.562 C-49.568 17.856 -46.637 12.496 -41.762 7.863 C-29.709 -1.306 -14.377 0.068 0 0 Z M-41.734 13.145 C-46.794 19.555 -47.762 25.144 -46.949 33.238 C-44.787 42.006 -40.003 48.026 -32.324 52.676 C-26.192 55.432 -18.974 55.285 -12.547 53.613 C-7.158 51.296 -3.898 47.208 -0.949 42.238 C1.171 35.878 1.268 27.864 -1.637 21.738 C-3.626 18.404 -6.026 15.805 -8.949 13.238 C-9.754 12.516 -10.558 11.795 -11.387 11.051 C-20.353 4.709 -34.045 4.933 -41.734 13.145 Z M32.051 9.238 C31.632 11.569 31.632 11.569 32.051 14.238 C34.139 16.742 34.139 16.742 37.051 18.238 C39.802 18.107 39.802 18.107 42.051 17.238 C42.381 16.248 42.711 15.258 43.051 14.238 C38.402 8.748 38.402 8.748 32.051 9.238 Z M16.051 18.238 C16.185 21.938 16.31 24.361 18.738 27.238 C21.912 28.611 23.78 28.234 27.051 27.238 C29.312 24.491 29.312 24.491 28.926 21.738 C27.837 18.629 26.973 17.739 24.051 16.238 C19.534 15.681 19.534 15.681 16.051 18.238 Z M32.051 28.238 C32.289 33.273 32.289 33.273 35.051 37.238 C39.703 37.58 39.703 37.58 44.051 36.238 C44.995 34.467 44.995 34.467 45.051 32.238 C43.282 28.541 43.282 28.541 40.051 26.238 C35.547 25.769 35.547 25.769 32.051 28.238 Z M22.051 38.238 C20.746 40.456 20.746 40.456 20.051 43.238 C20.825 46.113 20.825 46.113 23.051 48.238 C26.511 49.316 26.511 49.316 30.051 49.238 C31.041 48.578 32.031 47.918 33.051 47.238 C33.443 44.168 33.523 42.125 32.051 39.363 C28.798 37.533 25.737 38.057 22.051 38.238 Z " fill="#000000" transform="translate(437.94921875,542.76171875)"/>
<path d="M0 0 C0.902 -0.006 1.805 -0.011 2.735 -0.017 C4.638 -0.027 6.542 -0.033 8.446 -0.037 C11.336 -0.047 14.225 -0.078 17.115 -0.109 C18.973 -0.116 20.83 -0.121 22.688 -0.125 C23.968 -0.144 23.968 -0.144 25.274 -0.162 C35.353 -0.126 42.179 2.828 49.434 9.812 C54.196 15.21 55.091 20.673 54.82 27.754 C54.051 34.548 51.518 39.072 46.469 43.672 C35.616 52.301 19.873 52.82 6.543 53.203 C5.693 53.23 4.842 53.258 3.966 53.286 C1.179 53.364 -1.607 53.413 -4.395 53.453 C-5.271 53.475 -6.147 53.496 -7.049 53.518 C-15.03 53.559 -21.812 51.742 -27.781 46.184 C-33.558 39.357 -36.43 31.89 -35.906 22.957 C-34.676 15.413 -30.446 9.83 -24.457 5.203 C-16.585 0.677 -8.908 0.044 0 0 Z M-1.457 9.203 C-2.117 9.863 -2.777 10.523 -3.457 11.203 C-3.137 13.806 -3.137 13.806 -2.457 16.203 C-0.807 16.533 0.843 16.863 2.543 17.203 C3.313 14.858 3.313 14.858 3.543 12.203 C2.334 10.327 2.334 10.327 0.543 9.203 C-0.117 9.203 -0.777 9.203 -1.457 9.203 Z M25.23 16.766 C21.655 21.129 21.201 24.052 21.258 29.66 C21.764 34.175 24.07 36.876 27.352 39.832 C31.429 42.383 35.916 41.897 40.543 41.203 C44.547 39.515 46.888 37.069 49.48 33.641 C51.087 28.444 51.456 23.58 50.543 18.203 C48.573 14.661 46.181 12.022 42.543 10.203 C34.977 9.699 30.376 10.899 25.23 16.766 Z M-20.457 19.203 C-20.127 20.853 -19.797 22.503 -19.457 24.203 C-18.199 24.079 -16.941 23.956 -15.645 23.828 C-14.583 23.724 -14.583 23.724 -13.5 23.617 C-11.157 23.276 -11.157 23.276 -8.457 21.203 C-8.787 19.883 -9.117 18.563 -9.457 17.203 C-11.344 17.141 -11.344 17.141 -13.27 17.078 C-13.977 17.055 -14.685 17.032 -15.414 17.008 C-17.771 17.071 -17.771 17.071 -20.457 19.203 Z M-2.645 18.766 C-4.665 20.108 -4.665 20.108 -5.332 22.641 C-5.723 25.448 -5.723 25.448 -3.457 28.203 C-0.567 28.648 0.931 28.591 3.418 27.016 C4.777 25.196 4.777 25.196 4.48 22.641 C3.746 20.114 3.746 20.114 1.73 18.766 C-0.457 18.016 -0.457 18.016 -2.645 18.766 Z M-14.457 28.203 C-14.533 31.25 -14.533 31.25 -13.457 34.203 C-11.165 35.853 -11.165 35.853 -8.457 36.203 C-7.467 35.543 -6.477 34.883 -5.457 34.203 C-5.04 31.203 -5.04 31.203 -5.457 28.203 C-7.284 25.954 -7.284 25.954 -9.957 25.953 C-12.63 25.954 -12.63 25.954 -14.457 28.203 Z " fill="#000000" transform="translate(670.45703125,542.796875)"/>
<path d="M0 0 C2.502 1.849 2.995 2.979 3.688 6.062 C4.057 10.722 4.085 15.329 4 20 C3.01 20 2.02 20 1 20 C-0.715 13.661 -1.561 7.577 -1 1 C-0.67 0.67 -0.34 0.34 0 0 Z " fill="#000000" transform="translate(370,555)"/>
<path d="M0 0 C5.92 0.467 10.975 2.962 16 6 C16.33 6.66 16.66 7.32 17 8 C10.271 7.707 5.447 4.858 0 1 C0 0.67 0 0.34 0 0 Z " fill="#000000" transform="translate(325,559)"/>
<path d="M0 0 C0.99 0.495 0.99 0.495 2 1 C2.414 3.941 2.414 3.941 2.625 7.562 C2.7 8.76 2.775 9.958 2.852 11.191 C2.901 12.118 2.95 13.045 3 14 C2.34 14 1.68 14 1 14 C-0.382 11.235 -0.095 8.954 -0.062 5.875 C-0.053 4.779 -0.044 3.684 -0.035 2.555 C-0.024 1.712 -0.012 0.869 0 0 Z " fill="#000000" transform="translate(165,560)"/>
<path d="M0 0 C0.66 0 1.32 0 2 0 C2.33 1.98 2.66 3.96 3 6 C2.01 6 1.02 6 0 6 C0 4.02 0 2.04 0 0 Z " fill="#000000" transform="translate(172,568)"/>
<path d="M0 0 C3.588 1.333 6.836 2.831 10 5 C10 5.66 10 6.32 10 7 C5.615 6.499 3.2 5.017 0 2 C0 1.34 0 0.68 0 0 Z " fill="#000000" transform="translate(330,571)"/>
<path d="M0 0 C6.625 0.75 6.625 0.75 10 3 C10 3.66 10 4.32 10 5 C8.541 4.859 7.083 4.712 5.625 4.562 C4.407 4.441 4.407 4.441 3.164 4.316 C1 4 1 4 -1 3 C-0.67 2.01 -0.34 1.02 0 0 Z " fill="#000000" transform="translate(462,606)"/>
<path d="M0 0 C0 0.66 0 1.32 0 2 C-3.215 3.607 -6.436 3.057 -10 3 C-10 2.34 -10 1.68 -10 1 C-8.711 0.637 -7.418 0.285 -6.125 -0.062 C-5.406 -0.26 -4.686 -0.457 -3.945 -0.66 C-2 -1 -2 -1 0 0 Z " fill="#000000" transform="translate(694,607)"/>
<path d="M0 0 C7.429 -0.143 7.429 -0.143 11 1 C10.67 1.99 10.34 2.98 10 4 C3.375 4.25 3.375 4.25 0 2 C0 1.34 0 0.68 0 0 Z " fill="#000000" transform="translate(465,617)"/>
<path d="M0 0 C24.408 1.408 24.408 1.408 27 4 C23.185 6.544 21.398 6.097 16.875 5.75 C16.207 5.699 15.539 5.648 14.851 5.596 C9.748 5.166 4.945 4.301 0 3 C0 2.01 0 1.02 0 0 Z " fill="#000000" transform="translate(234,650)"/>
<path d="M0 0 C1.226 0.153 1.226 0.153 2.477 0.309 C3.416 0.434 3.416 0.434 4.375 0.562 C4.375 1.883 4.375 3.202 4.375 4.562 C0.415 4.232 -3.545 3.903 -7.625 3.562 C-7.295 2.572 -6.965 1.582 -6.625 0.562 C-4.104 -0.698 -2.771 -0.356 0 0 Z " fill="#000000" transform="translate(154.625,700.4375)"/>
<path d="M0 0 C0.695 0.143 1.39 0.286 2.105 0.434 C5.563 1.11 8.792 1.095 12.312 1.062 C13.567 1.053 14.821 1.044 16.113 1.035 C17.066 1.024 18.019 1.012 19 1 C19.33 1.99 19.66 2.98 20 4 C14.138 5.812 9.016 6.69 3 5 C0.438 2.938 0.438 2.938 -1 1 C-0.67 0.67 -0.34 0.34 0 0 Z " fill="#000000" transform="translate(418,701)"/>
<path d="M0 0 C0 0.99 0 1.98 0 3 C-2.64 3.33 -5.28 3.66 -8 4 C-8.66 3.01 -9.32 2.02 -10 1 C-6.15 -1.567 -4.414 -0.833 0 0 Z " fill="#000000" transform="translate(460,703)"/>
<path d="M0 0 C2.97 0 5.94 0 9 0 C9 0.99 9 1.98 9 3 C1.25 4.125 1.25 4.125 -1 3 C-0.67 2.01 -0.34 1.02 0 0 Z " fill="#000000" transform="translate(119,703)"/>
<path d="M0 0 C0.33 0.99 0.66 1.98 1 3 C-1.995 3.872 -4.636 4.108 -7.75 4.062 C-8.549 4.053 -9.348 4.044 -10.172 4.035 C-10.775 4.024 -11.378 4.012 -12 4 C-12 3.01 -12 2.02 -12 1 C-8.019 -0.327 -4.15 -0.069 0 0 Z " fill="#000000" transform="translate(613,708)"/>
<path d="M0 0 C1.226 0.014 1.226 0.014 2.477 0.027 C3.416 0.045 3.416 0.045 4.375 0.062 C4.375 1.053 4.375 2.043 4.375 3.062 C-0.08 3.558 -0.08 3.558 -4.625 4.062 C-5.285 3.072 -5.945 2.082 -6.625 1.062 C-4.22 -0.14 -2.675 -0.038 0 0 Z " fill="#000000" transform="translate(560.625,708.9375)"/>
<path d="M0 0 C-0.33 0.99 -0.66 1.98 -1 3 C-3.437 4.043 -3.437 4.043 -6.645 4.973 C-7.796 5.315 -8.948 5.657 -10.135 6.01 C-11.348 6.357 -12.562 6.705 -13.812 7.062 C-16.195 7.759 -18.576 8.458 -20.957 9.16 C-22.019 9.466 -23.081 9.771 -24.175 10.086 C-26.615 10.875 -28.755 11.775 -31 13 C-30.783 14.961 -30.783 14.961 -30 17 C-28.362 18.101 -28.362 18.101 -26.312 18.688 C-25.649 18.918 -24.985 19.149 -24.301 19.387 C-19.642 20.628 -15.162 21.123 -10.349 21.066 C-9.265 21.056 -8.18 21.046 -7.063 21.036 C-5.906 21.022 -4.75 21.007 -3.559 20.992 C-1.094 20.975 1.37 20.958 3.834 20.941 C7.707 20.91 11.581 20.875 15.454 20.829 C19.2 20.786 22.945 20.763 26.691 20.742 C27.85 20.724 29.008 20.705 30.202 20.686 C31.824 20.681 31.824 20.681 33.479 20.675 C34.427 20.666 35.374 20.656 36.351 20.646 C39.497 21.066 41.405 22.218 44 24 C42.544 27.84 40.718 29.31 37 31 C33.688 31.188 33.688 31.188 31 31 C31 30.34 31 29.68 31 29 C33.31 28.34 35.62 27.68 38 27 C38 26.34 38 25.68 38 25 C36.999 25.045 36.999 25.045 35.978 25.092 C-7.069 27.005 -7.069 27.005 -20.562 24.75 C-21.235 24.641 -21.907 24.532 -22.6 24.419 C-27.15 23.53 -30.362 21.842 -34 19 C-36 16 -36 16 -36 13.562 C-34.377 9.403 -30.852 7.926 -27 6 C-32.61 6 -38.22 6 -44 6 C-44 5.01 -44 4.02 -44 3 C-43.362 2.95 -42.724 2.9 -42.067 2.848 C-39.065 2.61 -36.064 2.369 -33.062 2.125 C-31.977 2.037 -30.891 1.949 -29.773 1.858 C-22.52 1.253 -15.301 0.521 -8.092 -0.478 C-4.942 -0.891 -3.067 -1.022 0 0 Z " fill="#000000" transform="translate(538,725)"/>
<path d="M0 0 C7.878 -0.15 15.751 0.047 23.625 0.312 C25.102 0.346 25.102 0.346 26.608 0.381 C27.534 0.416 28.46 0.452 29.414 0.488 C30.249 0.514 31.084 0.541 31.944 0.568 C34 1 34 1 36 4 C33.158 5.895 31.821 6.396 28.586 7 C27.743 7.165 26.9 7.33 26.031 7.5 C24.253 7.835 22.474 8.168 20.695 8.5 C19.855 8.665 19.014 8.83 18.148 9 C17.377 9.144 16.605 9.289 15.81 9.438 C15.213 9.623 14.615 9.809 14 10 C13.67 10.66 13.34 11.32 13 12 C21.039 13.351 29.01 14.217 37.141 14.711 C38.04 14.766 38.939 14.822 39.866 14.879 C43.59 15.105 47.314 15.324 51.04 15.526 C63.732 16.227 75.682 17.825 88 21 C88 22.32 88 23.64 88 25 C79.329 27.334 70.895 27.199 62 27 C61.505 25.515 61.505 25.515 61 24 C65.29 23.67 69.58 23.34 74 23 C72.063 21.063 68.584 21.352 65.938 21.062 C65.17 20.976 64.403 20.89 63.613 20.801 C58.118 20.223 52.621 19.837 47.105 19.531 C46.411 19.492 45.716 19.453 45.001 19.412 C41.509 19.216 38.017 19.034 34.523 18.873 C13.763 17.763 13.763 17.763 9 13 C8.938 10.562 8.938 10.562 10 8 C12.31 7.01 14.62 6.02 17 5 C11.39 4.34 5.78 3.68 0 3 C0 2.01 0 1.02 0 0 Z " fill="#000000" transform="translate(161,738)"/>
</svg>
