<?xml version="1.0" encoding="UTF-8"?>
<!-- Generator: visioncortex VTracer 0.6.0 -->
<svg version="1.1" xmlns="http://www.w3.org/2000/svg" width="847" height="847">
<path d="M0 0 C0.99 0 1.98 0 3 0 C2.458 3.796 0.799 5.472 -2 8 C-2.99 7.67 -3.98 7.34 -5 7 C-3.478 4.371 -2.156 2.156 0 0 Z " fill="#000000" transform="translate(496,77)"/>
<path d="M0 0 C1.32 0.33 2.64 0.66 4 1 C4 2.32 4 3.64 4 5 C2.68 4.67 1.36 4.34 0 4 C0 2.68 0 1.36 0 0 Z " fill="#000000" transform="translate(480,86)"/>
<path d="M0 0 C0.799 0.018 1.598 0.036 2.422 0.055 C3.025 0.078 3.628 0.101 4.25 0.125 C4.25 1.115 4.25 2.105 4.25 3.125 C2.835 3.464 1.418 3.796 0 4.125 C-0.789 4.311 -1.578 4.496 -2.391 4.688 C-4.75 5.125 -4.75 5.125 -8.75 5.125 C-8.75 4.135 -8.75 3.145 -8.75 2.125 C-5.688 0.341 -3.529 -0.104 0 0 Z " fill="#000000" transform="translate(511.75,88.875)"/>
<path d="M0 0 C3.831 0.313 5.45 2.335 7.858 5.153 C8.317 5.701 8.777 6.248 9.25 6.812 C13.429 11.61 16.941 14.714 23 17 C23.078 14.269 23.008 12.032 22.312 9.375 C22 7 22 7 23.125 5.125 C25 4 25 4 27.562 4.125 C30 5 30 5 32 8 C33.898 8.67 33.898 8.67 36.098 8.914 C36.899 9.035 37.7 9.156 38.525 9.281 C39.363 9.395 40.2 9.508 41.062 9.625 C42.721 9.864 44.378 10.106 46.035 10.352 C47.139 10.504 47.139 10.504 48.266 10.659 C50 11 50 11 51 12 C51.707 17.765 49.588 21.672 47.055 26.66 C46.647 27.486 46.24 28.313 45.82 29.164 C44.516 31.803 43.196 34.433 41.875 37.062 C41.009 38.803 40.145 40.545 39.281 42.287 C38.86 43.138 38.438 43.988 38.003 44.864 C36.371 48.16 34.739 51.455 33.111 54.752 C32.399 56.193 31.684 57.633 30.967 59.072 C30.073 60.874 29.196 62.685 28.32 64.496 C27.601 65.966 27.601 65.966 26.868 67.467 C25.912 70.258 25.806 71.332 27 74 C28.255 75.592 28.255 75.592 29.879 76.988 C30.466 77.526 31.054 78.064 31.659 78.618 C32.287 79.177 32.915 79.736 33.562 80.312 C34.203 80.894 34.843 81.476 35.503 82.075 C39.304 85.518 43.139 88.922 47.023 92.27 C49.492 94.43 51.898 96.654 54.312 98.875 C57.85 102.107 61.441 105.201 65.188 108.188 C70.755 112.672 75.897 117.551 81.077 122.473 C85.777 126.917 90.606 131.042 95.664 135.074 C99.011 137.833 102.006 140.869 105 144 C105.744 144.601 106.488 145.201 107.254 145.82 C109 148 109 148 108.875 150.91 C108.442 152.471 108.442 152.471 108 154.062 C107.732 155.105 107.464 156.148 107.188 157.223 C105.849 160.354 105.074 161.543 102 163 C98.675 163.19 96.742 162.563 94.088 160.551 C91.908 158.594 89.824 156.568 87.75 154.5 C86.231 153.027 84.712 151.554 83.191 150.082 C82.466 149.373 81.74 148.663 80.993 147.932 C78.611 145.622 76.167 143.393 73.688 141.188 C70.053 137.949 66.457 134.672 62.875 131.375 C59.638 128.398 56.389 125.44 53.062 122.562 C48.932 118.981 44.932 115.263 40.923 111.548 C36.804 107.734 32.649 103.965 28.469 100.219 C25.759 97.784 23.067 95.33 20.375 92.875 C12.522 85.519 12.522 85.519 4 79 C3.969 115.416 3.949 151.831 3.938 188.247 C3.938 189.664 3.937 191.081 3.937 192.497 C3.911 274.625 4.045 356.749 4.5 438.875 C4.506 439.943 4.512 441.01 4.518 442.11 C4.53 444.263 4.542 446.417 4.554 448.57 C4.56 449.632 4.565 450.695 4.571 451.79 C4.577 452.85 4.583 453.909 4.589 455.001 C4.653 466.569 4.716 478.136 4.777 489.703 C4.785 491.228 4.785 491.228 4.794 492.785 C5.034 538.065 5.086 583.344 5.062 628.625 C5.062 629.472 5.062 630.319 5.061 631.192 C5.051 651.795 5.031 672.397 5 693 C7.369 691.581 9.737 690.161 12.106 688.741 C12.768 688.344 13.431 687.947 14.114 687.538 C20.248 683.859 26.349 680.128 32.438 676.375 C33.547 675.692 34.656 675.009 35.798 674.305 C46.22 667.881 56.601 661.394 66.975 654.894 C70.132 652.918 73.29 650.945 76.449 648.973 C78.047 647.975 78.047 647.975 79.677 646.957 C81.692 645.7 83.706 644.442 85.721 643.185 C87.514 642.065 89.3 640.933 91.075 639.784 C94 638 94 638 96.894 636.65 C101.265 634.442 104.399 632.782 106.014 627.995 C106.415 624.076 106.445 620.235 106.363 616.305 C106.371 614.752 106.384 613.2 106.4 611.647 C106.431 607.313 106.391 602.981 106.339 598.647 C106.303 594.899 106.308 591.152 106.314 587.404 C106.332 573.944 106.196 560.487 106.045 547.028 C105.997 542.808 105.954 538.588 105.912 534.367 C105.422 486.077 104.708 437.79 103.927 389.504 C103.903 388.002 103.879 386.501 103.854 385 C103.842 384.26 103.83 383.52 103.818 382.758 C103.724 376.918 103.63 371.078 103.537 365.237 C103.463 360.574 103.386 355.911 103.309 351.248 C102.653 310.784 103.006 270.36 103.934 229.903 C103.995 227.225 104.054 224.547 104.113 221.869 C104.452 206.764 104.986 191.673 105.813 176.587 C105.895 175.094 105.974 173.6 106.051 172.107 C106.16 170.046 106.279 167.986 106.402 165.926 C106.469 164.754 106.536 163.583 106.605 162.376 C107.035 158.702 107.894 155.523 109 152 C109.66 152 110.32 152 111 152 C111.33 205.13 111.66 258.26 112 313 C116.29 305.41 120.58 297.82 125 290 C127.617 285.412 130.238 280.827 132.875 276.25 C133.473 275.206 134.071 274.162 134.688 273.086 C137.646 267.95 140.654 262.846 143.758 257.797 C144.308 256.898 144.859 255.999 145.426 255.073 C147 253 147 253 150 252 C153.184 254.935 155.274 257.872 157.398 261.637 C158.354 263.319 158.354 263.319 159.329 265.036 C160.011 266.253 160.693 267.47 161.375 268.688 C162.089 269.952 162.804 271.216 163.519 272.48 C165.34 275.703 167.154 278.93 168.965 282.158 C170.528 284.941 172.101 287.718 173.672 290.496 C181.47 304.318 189.094 318.234 196.502 332.269 C197.444 333.987 198.437 335.679 199.498 337.326 C203.447 343.554 203.624 348.669 203.375 355.938 C203.344 357.742 203.344 357.742 203.312 359.582 C203.264 362.386 203.198 365.189 203.124 367.992 C202.972 373.838 202.885 379.684 202.793 385.531 C202.149 424.201 202.149 424.201 201 437 C201.937 437.299 202.874 437.599 203.84 437.907 C212.107 440.765 219.787 447.105 223.992 454.82 C230.869 469.949 227.681 489.993 222.236 505.122 C217.739 516.917 211.855 526.689 202.602 535.406 C199.39 538.602 199.816 541.533 199.703 545.928 C199.683 546.641 199.664 547.353 199.643 548.087 C199.579 550.446 199.522 552.805 199.465 555.164 C199.422 556.798 199.378 558.432 199.335 560.066 C199.22 564.369 199.112 568.673 199.004 572.977 C198.894 577.368 198.778 581.758 198.662 586.148 C198.436 594.765 198.216 603.383 198 612 C197.01 612.33 196.02 612.66 195 613 C194.211 610.233 193.894 607.852 193.978 604.979 C193.998 604.196 194.018 603.412 194.039 602.604 C194.066 601.76 194.093 600.916 194.121 600.047 C194.145 599.162 194.168 598.277 194.193 597.365 C194.244 595.472 194.297 593.579 194.352 591.686 C194.494 586.8 194.619 581.914 194.742 577.027 C194.767 576.07 194.791 575.112 194.816 574.125 C195.079 563.416 195.101 552.712 195 542 C193.546 542.87 193.546 542.87 192.062 543.758 C180.221 550.712 168.515 555.577 155.225 559.087 C154.529 559.271 153.834 559.456 153.117 559.646 C151.412 560.098 149.706 560.549 148 561 C147.99 561.755 147.979 562.51 147.969 563.288 C147.837 572.9 147.701 582.513 147.562 592.125 C147.551 592.888 147.54 593.651 147.529 594.438 C147.183 618.297 146.747 642.15 146 666 C147.085 665.995 148.171 665.99 149.289 665.984 C153.301 665.966 157.314 665.955 161.326 665.945 C163.065 665.94 164.804 665.933 166.544 665.925 C169.038 665.912 171.533 665.907 174.027 665.902 C174.81 665.897 175.592 665.892 176.398 665.887 C178.266 665.887 180.133 665.938 182 666 C183 667 183 667 183.098 670.16 C183.08 672.092 183.08 672.092 183.062 674.062 C183.053 675.353 183.044 676.643 183.035 677.973 C183.018 679.471 183.018 679.471 183 681 C180.351 682.325 178.355 682.127 175.389 682.129 C173.627 682.134 173.627 682.134 171.829 682.139 C170.555 682.137 169.281 682.135 167.969 682.133 C166.016 682.134 166.016 682.134 164.023 682.136 C161.266 682.137 158.509 682.135 155.751 682.13 C152.214 682.125 148.676 682.128 145.139 682.134 C141.769 682.138 138.4 682.135 135.031 682.133 C133.12 682.136 133.12 682.136 131.171 682.139 C129.996 682.136 128.822 682.133 127.611 682.129 C126.574 682.129 125.536 682.128 124.467 682.127 C122 682 122 682 120 681 C119.973 678.688 119.954 676.375 119.938 674.062 C119.92 672.131 119.92 672.131 119.902 670.16 C120 667 120 667 121 666 C122.343 665.914 123.69 665.893 125.035 665.902 C125.844 665.906 126.653 665.909 127.486 665.912 C128.336 665.92 129.187 665.929 130.062 665.938 C130.917 665.942 131.771 665.947 132.65 665.951 C134.767 665.963 136.883 665.981 139 666 C139.02 664.949 139.04 663.898 139.06 662.814 C139.482 640.929 140.084 619.058 141 597.188 C141.063 595.669 141.063 595.669 141.127 594.121 C141.587 583.066 142.113 572.03 143 561 C141.723 561.164 140.445 561.327 139.129 561.496 C134.05 562.06 129.042 562.114 123.938 562.062 C123.072 562.058 122.206 562.053 121.314 562.049 C119.21 562.037 117.105 562.019 115 562 C114.998 563.396 114.998 563.396 114.996 564.82 C114.979 573.59 114.936 582.36 114.868 591.129 C114.834 595.638 114.809 600.146 114.804 604.655 C114.8 609.006 114.772 613.356 114.727 617.707 C114.714 619.367 114.709 621.027 114.714 622.687 C114.719 625.013 114.693 627.336 114.659 629.661 C114.668 630.348 114.677 631.035 114.686 631.743 C114.597 635.434 114.248 636.756 111.571 639.388 C110.723 639.92 109.874 640.452 109 641 C108.407 641.375 107.813 641.751 107.202 642.137 C106.653 642.436 106.104 642.735 105.539 643.043 C104.582 643.572 104.582 643.572 103.605 644.111 C102.952 644.466 102.298 644.822 101.625 645.188 C94.971 648.821 88.472 652.694 81.979 656.607 C78.17 658.901 74.347 661.173 70.52 663.438 C69.254 664.187 67.989 664.936 66.724 665.685 C65.767 666.251 65.767 666.251 64.791 666.829 C52.273 674.24 39.801 681.722 27.386 689.305 C26.325 689.952 25.265 690.599 24.172 691.266 C22.645 692.201 22.645 692.201 21.088 693.154 C18.961 694.425 16.813 695.659 14.646 696.861 C13.572 697.459 12.498 698.056 11.391 698.672 C9.945 699.454 9.945 699.454 8.47 700.253 C5.833 701.869 5.833 701.869 4.39 704.685 C3.931 705.449 3.472 706.213 3 707 C-0.625 707.375 -0.625 707.375 -4 707 C-5 706 -5 706 -5.062 703.438 C-5.042 702.633 -5.021 701.829 -5 701 C-5.777 700.902 -6.554 700.804 -7.354 700.702 C-18.052 699.269 -28.573 697.176 -39.145 695.023 C-41.116 694.625 -43.088 694.227 -45.061 693.83 C-49.232 692.988 -53.403 692.145 -57.573 691.3 C-68.258 689.137 -78.948 686.996 -89.637 684.852 C-92.881 684.201 -96.125 683.55 -99.37 682.899 C-101.538 682.464 -103.706 682.029 -105.874 681.594 C-111.379 680.49 -116.884 679.385 -122.389 678.277 C-127.868 677.175 -133.347 676.075 -138.826 674.978 C-140.869 674.568 -142.911 674.158 -144.953 673.746 C-147.798 673.172 -150.644 672.602 -153.491 672.034 C-154.381 671.856 -155.27 671.678 -156.187 671.495 C-162.947 670.163 -169.729 669.008 -176.548 668.021 C-181.785 667.215 -181.785 667.215 -184 665 C-184.319 662.587 -184.319 662.587 -184.414 659.516 C-184.453 658.367 -184.491 657.219 -184.531 656.036 C-184.562 654.787 -184.593 653.537 -184.625 652.25 C-184.664 650.963 -184.702 649.675 -184.742 648.349 C-185.044 637.695 -185.034 627.047 -184.981 616.389 C-184.952 607.549 -185.212 598.807 -186 590 C-186.883 590.471 -187.766 590.941 -188.676 591.426 C-189.888 592.055 -191.1 592.684 -192.312 593.312 C-193.176 593.776 -193.176 593.776 -194.057 594.248 C-199.748 597.171 -204.47 598.219 -211 600 C-211.33 624.42 -211.66 648.84 -212 674 C-204.74 674 -197.48 674 -190 674 C-190 677.63 -190 681.26 -190 685 C-206.17 685 -222.34 685 -239 685 C-239 681.37 -239 677.74 -239 674 C-231.41 674 -223.82 674 -216 674 C-216.005 672.327 -216.01 670.654 -216.016 668.93 C-216.032 663.334 -216.044 657.738 -216.052 652.142 C-216.057 648.757 -216.064 645.372 -216.075 641.987 C-216.166 613.166 -216.166 613.166 -215 600 C-215.604 600.021 -216.207 600.042 -216.829 600.063 C-244.052 600.883 -244.052 600.883 -255.379 591.582 C-260.011 587.062 -262.137 582.361 -262.312 575.875 C-262.195 566.975 -258.642 561.2 -252.781 554.727 C-247.905 550 -247.905 550 -245 550 C-245.784 548.948 -246.567 547.896 -247.375 546.812 C-252.405 540.061 -253.695 532.438 -252.637 524.156 C-250.798 516.124 -246.86 509.831 -240.188 504.938 C-238 504 -238 504 -236 504 C-235.918 502.845 -235.835 501.69 -235.75 500.5 C-234.585 491.678 -229.828 485.511 -223 480 C-216.263 475.458 -208.934 474.887 -201 476 C-195.706 477.691 -192.776 480.766 -190 485.5 C-187.014 492.293 -186.732 499.482 -188.734 506.617 C-190.717 511.445 -193.476 515.182 -197 519 C-193.37 520.32 -189.74 521.64 -186 523 C-186.618 456.93 -186.618 456.93 -187.471 390.864 C-187.5 388.893 -187.527 386.922 -187.554 384.951 C-187.661 377.3 -187.799 369.65 -188 362 C-188.028 360.79 -188.028 360.79 -188.057 359.555 C-188.27 351.701 -188.775 345.292 -192.875 338.5 C-193.274 337.796 -193.672 337.091 -194.083 336.365 C-198.063 329.513 -202.752 323.212 -207.554 316.924 C-210.075 313.569 -212.469 310.126 -214.875 306.688 C-219.023 300.783 -223.209 294.909 -227.438 289.062 C-227.968 288.328 -228.499 287.593 -229.045 286.837 C-231.921 282.859 -234.81 278.892 -237.711 274.934 C-238.314 274.108 -238.916 273.282 -239.537 272.431 C-240.701 270.838 -241.868 269.248 -243.039 267.66 C-243.558 266.947 -244.078 266.235 -244.613 265.5 C-245.075 264.871 -245.537 264.242 -246.013 263.594 C-247 262 -247 262 -247 260 C-247.66 260 -248.32 260 -249 260 C-249.264 260.714 -249.528 261.429 -249.8 262.165 C-251.044 265.104 -252.517 267.659 -254.203 270.367 C-254.847 271.406 -255.49 272.445 -256.153 273.515 C-256.845 274.624 -257.537 275.733 -258.25 276.875 C-259.34 278.631 -260.429 280.388 -261.517 282.146 C-262.258 283.342 -263 284.538 -263.742 285.734 C-267.284 291.445 -270.769 297.189 -274.25 302.938 C-278.932 310.658 -283.68 318.329 -288.567 325.922 C-289.463 327.323 -290.342 328.736 -291.206 330.158 C-292.572 332.322 -293.981 334.381 -295.467 336.46 C-303.45 348.12 -304.271 357.429 -303.688 371.273 C-303.639 373.36 -303.595 375.447 -303.556 377.534 C-303.465 382.011 -303.345 386.486 -303.204 390.961 C-302.984 398.127 -302.869 405.293 -302.773 412.462 C-302.634 422.625 -302.476 432.787 -302.289 442.949 C-302.265 444.24 -302.242 445.53 -302.218 446.86 C-302.122 452.085 -302.025 457.31 -301.927 462.535 C-301.388 491.51 -300.906 520.48 -300.875 549.461 C-300.872 550.555 -300.87 551.65 -300.867 552.777 C-300.846 563.886 -300.958 574.973 -301.441 586.073 C-301.499 587.413 -301.499 587.413 -301.557 588.779 C-301.876 595.296 -302.612 601.614 -304 608 C-304.99 607.67 -305.98 607.34 -307 607 C-307.018 606.097 -307.037 605.194 -307.056 604.264 C-307.285 593.033 -307.516 581.803 -307.748 570.572 C-307.812 567.441 -307.877 564.309 -307.941 561.178 C-308.498 534.186 -309.08 507.194 -309.697 480.203 C-309.801 475.658 -309.904 471.112 -310.007 466.567 C-310.076 463.538 -310.145 460.508 -310.214 457.479 C-310.231 456.73 -310.248 455.981 -310.265 455.21 C-310.468 446.266 -310.674 437.322 -310.883 428.378 C-311.016 422.675 -311.147 416.972 -311.276 411.268 C-311.35 407.964 -311.427 404.66 -311.505 401.356 C-311.677 394.153 -311.821 386.95 -311.933 379.745 C-311.98 377.114 -312.036 374.485 -312.105 371.855 C-312.197 368.314 -312.263 364.773 -312.313 361.232 C-312.348 359.234 -312.408 357.237 -312.469 355.24 C-312.55 347.637 -311.841 342.926 -307 337 C-306.043 335.368 -305.097 333.73 -304.168 332.082 C-303.684 331.228 -303.2 330.373 -302.702 329.493 C-302.202 328.608 -301.702 327.724 -301.188 326.812 C-297 319.45 -292.749 312.15 -288.241 304.978 C-286.71 302.538 -285.189 300.093 -283.668 297.648 C-277.316 287.45 -270.932 277.273 -264.5 267.125 C-263.949 266.253 -263.399 265.381 -262.832 264.483 C-259.051 258.536 -255.084 252.742 -251 247 C-246.883 247.821 -245.785 249.148 -243.375 252.625 C-242.675 253.628 -241.975 254.631 -241.254 255.664 C-240.5 256.774 -239.749 257.887 -239 259 C-238.626 259.555 -238.252 260.111 -237.867 260.683 C-236.258 263.079 -234.657 265.48 -233.064 267.887 C-229.596 273.129 -226.058 278.319 -222.5 283.5 C-214.946 294.515 -207.527 305.612 -200.25 316.812 C-199.814 317.482 -199.378 318.151 -198.929 318.84 C-195.493 324.152 -192.23 329.561 -189 335 C-188.882 320.704 -188.927 306.415 -189.223 292.121 C-189.81 263.643 -190.134 235.173 -190.177 206.689 C-190.183 202.924 -190.193 199.158 -190.208 195.393 C-190.282 175.319 -190.043 155.306 -189.051 135.254 C-189.008 134.375 -188.964 133.496 -188.92 132.591 C-188.795 130.108 -188.664 127.625 -188.529 125.143 C-188.491 124.419 -188.453 123.694 -188.413 122.948 C-188.162 118.578 -187.674 114.319 -187 110 C-186.381 109.918 -185.762 109.835 -185.125 109.75 C-184.424 109.502 -183.722 109.255 -183 109 C-182.728 108.363 -182.457 107.726 -182.177 107.07 C-180.563 104.232 -179.14 104.03 -176.042 103.125 C-175.012 102.816 -173.981 102.507 -172.919 102.189 C-171.797 101.87 -170.675 101.551 -169.52 101.223 C-168.354 100.878 -167.188 100.534 -165.987 100.179 C-162.329 99.104 -158.665 98.05 -155 97 C-152.822 96.366 -150.644 95.732 -148.466 95.097 C-141.881 93.185 -135.285 91.31 -128.688 89.438 C-126.261 88.747 -123.834 88.056 -121.407 87.365 C-115.17 85.589 -108.932 83.818 -102.693 82.048 C-99.075 81.021 -95.458 79.994 -91.84 78.966 C-79.579 75.484 -67.315 72.01 -55.046 68.552 C-49.241 66.916 -43.437 65.273 -37.636 63.623 C-34.279 62.67 -30.921 61.723 -27.562 60.778 C-26.05 60.351 -24.538 59.921 -23.026 59.489 C-15.691 57.394 -8.628 55.602 -1 55 C0.35 54.596 0.35 54.596 1.727 54.184 C4 54 4 54 6.648 55.66 C7.548 56.453 8.448 57.246 9.375 58.062 C10.328 58.887 11.28 59.713 12.262 60.562 C13.165 61.367 14.069 62.171 15 63 C16.394 64.19 17.789 65.378 19.188 66.562 C20.116 67.367 21.044 68.171 22 69 C22.258 68.162 22.516 67.323 22.782 66.459 C24.1 62.716 25.732 59.204 27.484 55.652 C27.822 54.959 28.161 54.266 28.509 53.552 C29.586 51.345 30.668 49.141 31.75 46.938 C33.163 44.052 34.575 41.165 35.984 38.277 C36.326 37.578 36.667 36.879 37.019 36.159 C40.109 29.816 43.079 23.422 46 17 C43.563 16.496 41.126 15.997 38.688 15.5 C37.652 15.285 37.652 15.285 36.596 15.066 C33.675 14.474 30.989 14 28 14 C27.67 15.32 27.34 16.64 27 18 C28.65 18.33 30.3 18.66 32 19 C31.267 35.116 31.267 35.116 28 42 C24.156 44.563 22.216 44.226 17.762 43.66 C10.133 41.837 4.6 37.345 0.156 31.027 C-2.665 26.081 -3.355 21.845 -3.312 16.188 C-3.311 15.125 -3.311 15.125 -3.309 14.041 C-3.21 8.7 -2.373 4.745 0 0 Z M-11.887 78.922 C-12.621 79.133 -13.356 79.345 -14.113 79.563 C-15.754 80.035 -17.395 80.509 -19.036 80.984 C-23.76 82.349 -28.487 83.704 -33.215 85.059 C-34.274 85.362 -35.333 85.666 -36.425 85.979 C-54.579 91.177 -72.758 96.288 -90.938 101.394 C-91.696 101.607 -92.454 101.82 -93.235 102.039 C-96.286 102.896 -99.337 103.753 -102.388 104.609 C-111.068 107.045 -119.745 109.491 -128.415 111.962 C-134.12 113.588 -139.828 115.203 -145.538 116.814 C-147.87 117.475 -150.2 118.139 -152.529 118.809 C-155.715 119.724 -158.906 120.623 -162.098 121.52 C-163.485 121.924 -163.485 121.924 -164.9 122.337 C-169.565 123.629 -173.228 124.523 -178 123 C-178.33 122.34 -178.66 121.68 -179 121 C-179.66 121 -180.32 121 -181 121 C-181.376 192.809 -181.015 264.577 -179.688 336.375 C-179.671 337.264 -179.655 338.153 -179.638 339.069 C-179.571 342.682 -179.504 346.295 -179.437 349.908 C-179.264 359.28 -179.091 368.653 -178.92 378.025 C-178.885 379.961 -178.849 381.897 -178.814 383.833 C-177.779 440.42 -177.079 497.013 -176.363 553.605 C-176.296 558.888 -176.228 564.171 -176.161 569.455 C-175.769 600.303 -175.381 631.151 -175 662 C-171.471 663.192 -168.023 664.297 -164.375 665.053 C-163.514 665.233 -162.653 665.413 -161.766 665.599 C-160.853 665.785 -159.94 665.972 -159 666.164 C-158.046 666.361 -157.092 666.558 -156.109 666.761 C-154.099 667.174 -152.089 667.586 -150.078 667.996 C-147.009 668.623 -143.942 669.26 -140.875 669.898 C-138.917 670.3 -136.958 670.701 -135 671.102 C-133.631 671.387 -133.631 671.387 -132.234 671.679 C-131.373 671.853 -130.512 672.027 -129.625 672.206 C-128.875 672.359 -128.125 672.513 -127.352 672.672 C-124.548 673.063 -121.827 673.052 -119 673 C-119.108 656.908 -119.221 640.815 -119.339 624.723 C-119.394 617.248 -119.448 609.772 -119.497 602.297 C-119.541 595.767 -119.587 589.237 -119.637 582.708 C-119.663 579.263 -119.688 575.819 -119.709 572.375 C-119.822 554.566 -120.226 536.793 -121 519 C-115.293 518.976 -109.586 518.957 -103.88 518.945 C-101.945 518.94 -100.01 518.933 -98.076 518.925 C-95.268 518.912 -92.46 518.907 -89.652 518.902 C-88.811 518.897 -87.97 518.892 -87.103 518.887 C-79.373 518.886 -71.705 519.429 -64 520 C-64.019 521.047 -64.019 521.047 -64.038 522.114 C-64.204 531.493 -64.357 540.871 -64.5 550.25 C-64.518 551.415 -64.518 551.415 -64.536 552.603 C-64.989 582.569 -65.087 612.531 -65.062 642.5 C-65.062 643.538 -65.061 644.577 -65.06 645.647 C-65.049 658.431 -65.029 671.216 -65 684 C-60.223 684.821 -55.445 685.641 -50.668 686.46 C-49.048 686.739 -47.427 687.017 -45.807 687.295 C-36.771 688.847 -27.735 690.394 -18.688 691.875 C-17.972 691.994 -17.257 692.113 -16.52 692.236 C-12.634 692.852 -8.929 693.039 -5 693 C-5 691.845 -5.001 690.69 -5.001 689.5 C-5.018 638.52 -5.033 587.541 -5.042 536.562 C-5.043 535.402 -5.043 535.402 -5.043 534.218 C-5.046 517.402 -5.049 500.587 -5.051 483.772 C-5.052 475.524 -5.054 467.276 -5.055 459.028 C-5.055 458.207 -5.055 457.386 -5.055 456.541 C-5.06 430.005 -5.067 403.47 -5.076 376.935 C-5.086 349.635 -5.092 322.335 -5.094 295.035 C-5.094 291.167 -5.095 287.298 -5.095 283.43 C-5.095 282.288 -5.095 282.288 -5.095 281.124 C-5.096 268.938 -5.101 256.753 -5.107 244.568 C-5.113 232.276 -5.115 219.985 -5.114 207.693 C-5.113 201.05 -5.114 194.407 -5.119 187.764 C-5.168 124.189 -5.168 124.189 -3.308 94.558 C-2.946 88.702 -2.896 82.866 -3 77 C-6.093 77 -8.937 78.063 -11.887 78.922 Z M150 267 C149.624 267.651 149.248 268.303 148.861 268.974 C148.328 269.898 147.795 270.822 147.246 271.773 C146.646 272.813 146.046 273.853 145.428 274.925 C144.086 277.252 142.743 279.579 141.4 281.906 C137.923 287.931 134.448 293.958 130.98 299.988 C130.333 301.113 129.686 302.237 129.02 303.395 C127.8 305.514 126.582 307.633 125.365 309.753 C124.793 310.746 124.222 311.739 123.633 312.762 C123.063 313.777 122.494 314.793 121.907 315.839 C120.525 318.129 119.169 320.139 117.556 322.245 C109.154 333.686 110.134 344.733 110.938 358.438 C111.031 360.633 111.12 362.829 111.205 365.025 C111.42 370.353 111.688 375.677 112 381 C114.251 378.79 116.183 376.538 118.062 374 C118.569 373.319 119.076 372.639 119.598 371.938 C121.943 368.697 123.246 366.692 123.502 362.712 C123.562 361.851 123.622 360.991 123.684 360.104 C123.739 359.179 123.795 358.254 123.852 357.301 C123.915 356.351 123.979 355.4 124.045 354.421 C124.247 351.386 124.436 348.349 124.625 345.312 C124.76 343.255 124.895 341.197 125.031 339.139 C125.364 334.093 125.685 329.047 126 324 C126.66 324 127.32 324 128 324 C127.955 324.919 127.955 324.919 127.908 325.857 C127.306 338.248 126.838 350.593 127 363 C127.701 362.541 128.402 362.082 129.125 361.609 C136.207 357.029 143.139 353.093 151 350 C151.023 349.425 151.046 348.851 151.069 348.258 C151.31 342.223 151.554 336.187 151.8 330.151 C151.891 327.905 151.981 325.659 152.07 323.413 C152.199 320.166 152.332 316.919 152.465 313.672 C152.523 312.19 152.523 312.19 152.582 310.678 C152.869 303.766 153.378 296.889 154 290 C154.66 290 155.32 290 156 290 C155.97 291.006 155.939 292.011 155.908 293.047 C155.351 311.7 154.813 330.336 155 349 C159.29 349 163.58 349 168 349 C168.66 338.77 169.32 328.54 170 318 C170.66 318 171.32 318 172 318 C172 328.56 172 339.12 172 350 C175.3 351.65 178.6 353.3 182 355 C182.66 355.33 183.32 355.66 184 356 C184.495 350.06 184.495 350.06 185 344 C185.66 344 186.32 344 187 344 C187.026 345.123 187.052 346.246 187.078 347.402 C187.355 358.206 187.355 358.206 191.062 368.238 C195.716 376.984 193.99 392.044 191.375 401.125 C187.294 412.345 181.199 419.863 171.574 426.766 C170.795 427.377 170.795 427.377 170 428 C170 428.33 170 428.66 170 429 C174.103 430.006 178.207 431.003 182.312 432 C183.48 432.286 184.647 432.572 185.85 432.867 C186.968 433.138 188.086 433.409 189.238 433.688 C190.27 433.939 191.302 434.19 192.365 434.449 C195.041 435.102 195.041 435.102 198 435 C198.146 428.585 198.288 422.17 198.427 415.756 C198.475 413.585 198.523 411.414 198.573 409.243 C198.897 394.992 199.082 380.751 199.011 366.497 C199.004 364.812 199.001 363.127 199.003 361.442 C198.99 345.891 192.159 335.306 184.042 322.324 C180.835 317.103 177.893 311.742 174.938 306.375 C170.132 297.738 165.232 289.161 160.25 280.625 C159.653 279.602 159.056 278.579 158.441 277.525 C155.323 272.199 155.323 272.199 152 267 C151.34 267 150.68 267 150 267 Z M146 419 C143.699 420.773 143.048 421.751 142.49 424.645 C142.433 425.764 142.376 426.882 142.316 428.035 C142.283 428.676 142.25 429.316 142.216 429.977 C141.723 441.117 141.896 452.289 141.938 463.438 C141.943 465.826 141.947 468.215 141.951 470.604 C141.962 476.402 141.979 482.201 142 488 C139.324 485.334 136.658 482.666 134.062 479.922 C133.042 478.864 132.021 477.807 131 476.75 C130.492 476.209 129.984 475.667 129.461 475.109 C127.174 472.764 125.358 471.128 122.25 470.016 C121.507 470.01 120.765 470.005 120 470 C119.34 470.66 118.68 471.32 118 472 C118.045 477.103 121.321 479.947 124.688 483.375 C125.788 484.521 126.887 485.668 127.984 486.816 C128.772 487.636 128.772 487.636 129.576 488.473 C131.312 490.334 132.877 492.304 134.438 494.312 C135.283 495.199 136.129 496.086 137 497 C138.65 497 140.3 497 142 497 C141.67 508.22 141.34 519.44 141 531 C138.896 529.164 136.793 527.329 134.625 525.438 C125.15 516.85 125.15 516.85 114 511 C113.347 516.148 113.347 516.148 115.135 520.828 C116.78 522.642 118.497 524.294 120.312 525.938 C120.945 526.538 121.577 527.138 122.228 527.757 C127.585 532.786 133.172 537.525 139 542 C139.657 542.574 140.315 543.147 140.992 543.738 C143.583 545.367 144.992 545.513 148 545 C156.152 538.338 161.263 526.425 166.513 517.502 C168.702 513.82 170.968 510.188 173.25 506.562 C173.653 505.919 174.056 505.276 174.472 504.614 C176.041 502.113 177.612 499.614 179.19 497.119 C180.319 495.332 181.441 493.541 182.562 491.75 C183.203 490.734 183.844 489.718 184.504 488.672 C185.804 486.35 186.669 484.624 187 482 C186.67 481.34 186.34 480.68 186 480 C183.079 480.328 181.408 480.63 179.201 482.63 C172.547 491.343 166.535 500.477 160.5 509.625 C159.381 511.314 158.261 513.003 157.141 514.691 C154.422 518.791 151.709 522.894 149 527 C149.131 518.29 149.266 509.579 149.404 500.869 C149.437 498.759 149.47 496.65 149.503 494.54 C149.936 467.015 149.936 467.015 150.324 454.25 C150.35 453.409 150.375 452.569 150.401 451.703 C150.517 447.968 150.643 444.233 150.783 440.499 C151.178 430.694 151.178 430.694 150 421 C148.023 419.734 148.023 419.734 146 419 Z M-215 513 C-217.62 516.929 -217.259 520.26 -217.188 524.812 C-217.181 525.655 -217.175 526.498 -217.168 527.366 C-217.08 534.604 -216.659 541.791 -216 549 C-216.722 548.258 -217.444 547.515 -218.188 546.75 C-221.874 543.101 -221.874 543.101 -226 540 C-228.751 540.131 -228.751 540.131 -231 541 C-230.502 545.645 -228.662 548.091 -225.688 551.625 C-224.908 552.566 -224.128 553.507 -223.324 554.477 C-221.199 556.998 -221.199 556.998 -218.893 558.352 C-217 560 -217 560 -216.454 562.268 C-216.433 563.132 -216.412 563.996 -216.391 564.887 C-216.358 565.825 -216.326 566.762 -216.293 567.729 C-216.279 568.705 -216.265 569.681 -216.25 570.688 C-216.22 571.676 -216.191 572.664 -216.16 573.682 C-216.089 576.121 -216.037 578.56 -216 581 C-216.568 580.553 -217.137 580.105 -217.723 579.645 C-220.14 577.752 -222.569 575.875 -225 574 C-225.677 573.468 -226.354 572.935 -227.051 572.387 C-228.642 571.177 -230.316 570.078 -232 569 C-233.485 569.495 -233.485 569.495 -235 570 C-234.151 574.691 -231.243 576.944 -227.812 580 C-227.247 580.521 -226.682 581.042 -226.1 581.578 C-219.942 587.312 -219.942 587.312 -212.371 590.625 C-209.752 590.185 -209.752 590.185 -208.035 587.562 C-207.358 586.386 -206.703 585.197 -206.062 584 C-205.296 582.639 -204.529 581.278 -203.762 579.918 C-203.336 579.15 -202.909 578.382 -202.47 577.591 C-200.789 574.628 -199.034 571.715 -197.27 568.801 C-195.971 566.638 -194.673 564.475 -193.375 562.312 C-192.734 561.261 -192.094 560.21 -191.434 559.127 C-190.845 558.132 -190.255 557.138 -189.648 556.113 C-189.114 555.224 -188.579 554.335 -188.029 553.419 C-186.881 550.72 -186.938 549.681 -188 547 C-191.708 547.424 -191.708 547.424 -194.59 549.639 C-195.035 550.337 -195.479 551.035 -195.938 551.754 C-196.44 552.527 -196.943 553.299 -197.461 554.096 C-198.223 555.317 -198.223 555.317 -199 556.562 C-199.762 557.743 -199.762 557.743 -200.539 558.947 C-202.044 561.288 -203.526 563.64 -205 566 C-206.65 568.64 -208.3 571.28 -210 574 C-210.33 554.53 -210.66 535.06 -211 515 C-212.32 514.34 -213.64 513.68 -215 513 Z M-115 524 C-115.023 543.097 -115.041 562.195 -115.052 581.292 C-115.057 590.159 -115.064 599.026 -115.075 607.893 C-115.085 615.621 -115.092 623.348 -115.094 631.076 C-115.095 635.168 -115.098 639.261 -115.106 643.353 C-115.113 647.204 -115.115 651.055 -115.113 654.907 C-115.113 656.321 -115.115 657.735 -115.119 659.149 C-115.124 661.079 -115.122 663.009 -115.12 664.938 C-115.121 666.019 -115.122 667.099 -115.123 668.212 C-115.015 670.649 -114.706 672.676 -114 675 C-109.824 675.821 -105.647 676.639 -101.469 677.454 C-100.055 677.73 -98.64 678.007 -97.225 678.286 C-95.168 678.69 -93.109 679.092 -91.051 679.492 C-89.82 679.733 -88.589 679.974 -87.322 680.222 C-81.566 681.258 -75.78 682.111 -70 683 C-70 630.53 -70 578.06 -70 524 C-84.85 524 -99.7 524 -115 524 Z M125 671 C125 672.98 125 674.96 125 677 C142.49 677 159.98 677 178 677 C178 675.02 178 673.04 178 671 C170.118 669.873 162.287 669.847 154.344 669.87 C152.071 669.875 149.798 669.87 147.525 669.863 C139.958 669.86 132.52 670.059 125 671 Z M-235 677 C-235.591 678.946 -235.591 678.946 -236 681 C-234.778 682.45 -234.778 682.45 -231.123 682.114 C-229.393 682.113 -227.663 682.108 -225.934 682.098 C-225.025 682.096 -224.116 682.095 -223.18 682.093 C-220.266 682.088 -217.352 682.075 -214.438 682.062 C-212.467 682.057 -210.496 682.053 -208.525 682.049 C-203.684 682.038 -198.842 682.021 -194 682 C-193.409 680.054 -193.409 680.054 -193 678 C-194.222 676.55 -194.222 676.55 -197.877 676.886 C-199.607 676.887 -201.337 676.892 -203.066 676.902 C-203.975 676.904 -204.884 676.905 -205.82 676.907 C-208.734 676.912 -211.648 676.925 -214.562 676.938 C-216.533 676.943 -218.504 676.947 -220.475 676.951 C-225.316 676.962 -230.158 676.979 -235 677 Z " fill="#000000" transform="translate(487,99)"/>
<path d="M0 0 C0.743 0.248 1.485 0.495 2.25 0.75 C1.25 3.75 1.25 3.75 -1.75 5.75 C-2.821 8.051 -3.83 10.384 -4.75 12.75 C-5.74 12.09 -6.73 11.43 -7.75 10.75 C-7.458 6.959 -7.205 4.399 -5 1.25 C-2.75 -0.25 -2.75 -0.25 0 0 Z " fill="#000000" transform="translate(375.75,109.25)"/>
<path d="M0 0 C0.66 0.33 1.32 0.66 2 1 C1.533 3.918 0.63 5.608 -0.938 8.188 C-3.358 12.236 -4.206 16.391 -5 21 C-6.32 21.33 -7.64 21.66 -9 22 C-10.42 15.933 -9.595 11.655 -7 6 C-3.857 1.286 -3.857 1.286 0 0 Z " fill="#000000" transform="translate(357,109)"/>
<path d="M0 0 C0.99 0 1.98 0 3 0 C4.044 3.219 3.924 5.354 3.125 8.625 C2.942 9.401 2.759 10.177 2.57 10.977 C2 13 2 13 1 15 C0.01 14.67 -0.98 14.34 -2 14 C-2.212 8.808 -1.591 4.873 0 0 Z " fill="#000000" transform="translate(389,111)"/>
<path d="M0 0 C0.99 0 1.98 0 3 0 C2.67 2.97 2.34 5.94 2 9 C0.68 9.33 -0.64 9.66 -2 10 C-2.25 3.375 -2.25 3.375 0 0 Z " fill="#000000" transform="translate(401,119)"/>
<path d="M0 0 C0.66 1.32 1.32 2.64 2 4 C1.216 4.186 0.433 4.371 -0.375 4.562 C-3.394 5.84 -3.394 5.84 -4.312 9.625 C-4.539 10.739 -4.766 11.852 -5 13 C-5.99 13 -6.98 13 -8 13 C-9.39 10.22 -9.185 8.081 -9 5 C-7.133 0.065 -5.036 -0.133 0 0 Z " fill="#000000" transform="translate(335,132)"/>
<path d="M0 0 C0.99 0.33 1.98 0.66 3 1 C0.69 7.93 -1.62 14.86 -4 22 C-5.32 22 -6.64 22 -8 22 C-7.808 13.81 -5.97 5.97 0 0 Z " fill="#000000" transform="translate(360,142)"/>
<path d="M0 0 C0.99 0.33 1.98 0.66 3 1 C2.521 5.714 2.032 9.666 0 14 C-0.99 13.67 -1.98 13.34 -3 13 C-3.274 7.606 -3.361 4.481 0 0 Z " fill="#000000" transform="translate(375,155)"/>
<path d="M0 0 C0.536 0.248 1.072 0.495 1.625 0.75 C1.625 1.74 1.625 2.73 1.625 3.75 C0.738 4.266 -0.149 4.781 -1.062 5.312 C-6.96 8.91 -8.959 16.611 -11.375 22.75 C-12.695 22.42 -14.015 22.09 -15.375 21.75 C-15.09 14.065 -12.352 7.648 -6.785 2.191 C-4.444 0.47 -2.921 -0.307 0 0 Z " fill="#000000" transform="translate(600.375,161.25)"/>
<path d="M0 0 C-0.55 4.475 -1.671 7.85 -3.812 11.812 C-4.314 12.768 -4.815 13.723 -5.332 14.707 C-7 17 -7 17 -9.199 17.824 C-9.793 17.882 -10.388 17.94 -11 18 C-10.743 10.944 -8.491 6.444 -4 1 C-2 0 -2 0 0 0 Z " fill="#000000" transform="translate(608,182)"/>
<path d="M0 0 C0.99 0 1.98 0 3 0 C2.143 8.571 2.143 8.571 0 12 C-1.32 11.67 -2.64 11.34 -4 11 C-2.25 3.375 -2.25 3.375 0 0 Z " fill="#000000" transform="translate(620,182)"/>
<path d="M0 0 C2.625 0.375 2.625 0.375 5 1 C5.25 7.625 5.25 7.625 3 11 C1.68 11 0.36 11 -1 11 C-2.507 7.987 -2.178 5.317 -2 2 C-1.34 1.34 -0.68 0.68 0 0 Z " fill="#000000" transform="translate(465,200)"/>
<path d="M0 0 C0.66 0.33 1.32 0.66 2 1 C2 3.64 2 6.28 2 9 C0.68 9 -0.64 9 -2 9 C-2.971 5.979 -3.136 3.995 -2 1 C-1.34 0.67 -0.68 0.34 0 0 Z " fill="#000000" transform="translate(456,200)"/>
<path d="M0 0 C0.66 0.33 1.32 0.66 2 1 C2.125 8.75 2.125 8.75 1 11 C-0.32 10.67 -1.64 10.34 -3 10 C-2.886 8.52 -2.759 7.041 -2.625 5.562 C-2.555 4.739 -2.486 3.915 -2.414 3.066 C-2.277 2.384 -2.141 1.703 -2 1 C-1.34 0.67 -0.68 0.34 0 0 Z " fill="#000000" transform="translate(438,210)"/>
<path d="M0 0 C0.99 0.33 1.98 0.66 3 1 C2.67 2.32 2.34 3.64 2 5 C0.68 4.67 -0.64 4.34 -2 4 C-1.34 2.68 -0.68 1.36 0 0 Z " fill="#000000" transform="translate(506,214)"/>
<path d="M0 0 C1.65 0.33 3.3 0.66 5 1 C4.67 2.32 4.34 3.64 4 5 C2.68 5 1.36 5 0 5 C-0.33 4.01 -0.66 3.02 -1 2 C-0.67 1.34 -0.34 0.68 0 0 Z " fill="#000000" transform="translate(388,216)"/>
<path d="M0 0 C0.99 0 1.98 0 3 0 C3.125 5.75 3.125 5.75 2 8 C0.68 7.67 -0.64 7.34 -2 7 C-1.125 1.125 -1.125 1.125 0 0 Z " fill="#000000" transform="translate(514,218)"/>
<path d="M0 0 C3.862 1.598 6.582 4.222 9.562 7.062 C13.458 10.709 17.402 14.215 21.562 17.562 C26.362 21.429 30.922 25.504 35.461 29.672 C41.626 35.325 48.01 40.728 54.363 46.167 C57.554 48.9 60.742 51.637 63.922 54.383 C64.568 54.94 65.213 55.497 65.878 56.072 C67.161 57.184 68.439 58.303 69.711 59.427 C72.394 61.79 75.033 64.023 77.945 66.105 C81.583 68.779 83.705 70.459 84.574 75 C84.629 78.719 84.357 82.298 84 86 C83.906 87.561 83.821 89.122 83.742 90.684 C83.534 94.792 83.278 98.895 83 103 C78.256 103 77.663 102.261 74.188 99.25 C73.227 98.437 72.267 97.623 71.277 96.785 C70.755 96.339 70.233 95.893 69.695 95.434 C66.586 92.803 63.42 90.245 60.25 87.688 C59.637 87.184 59.023 86.681 58.391 86.163 C54.449 82.98 50.461 80.408 46 78 C46 77.34 46 76.68 46 76 C45.258 75.711 44.515 75.423 43.75 75.125 C41.433 74.177 39.221 73.152 37 72 C37 71.34 37 70.68 37 70 C36.031 69.711 35.061 69.423 34.062 69.125 C31 68 31 68 30 66 C29.34 65.01 28.68 64.02 28 63 C27.67 62.34 27.34 61.68 27 61 C26.34 60.67 25.68 60.34 25 60 C22.55 58.419 21.146 57.259 19.699 54.699 C17.733 51.576 15.513 49.505 12.75 47.062 C11.778 46.185 10.806 45.307 9.805 44.402 C7.16 42.055 7.16 42.055 4.758 40.441 C1.977 38.497 0.317 37.094 -0.645 33.777 C-0.999 30.493 -1.016 27.306 -1 24 C-1.023 22.047 -1.048 20.094 -1.074 18.141 C-1.113 13.996 -1.143 9.852 -1.133 5.707 C-1.132 4.825 -1.131 3.943 -1.129 3.034 C-1 1 -1 1 0 0 Z M2 7 C2.33 14.26 2.66 21.52 3 29 C4.65 27.35 6.3 25.7 8 24 C7.691 24.577 7.381 25.155 7.062 25.75 C6.074 27.843 5.483 29.745 5 32 C4.34 32 3.68 32 3 32 C4.602 36.427 7.984 38.844 11.5 41.75 C12.094 42.257 12.689 42.763 13.301 43.285 C16.252 46.071 16.252 46.071 20 47 C21.5 30.65 21.5 30.65 16.438 15.828 C12.215 11.585 7.53 9.212 2 7 Z M23 24 C23 28.62 23 33.24 23 38 C23.99 38.495 23.99 38.495 25 39 C24.01 39.495 24.01 39.495 23 40 C23 42.31 23 44.62 23 47 C23.99 47 24.98 47 26 47 C26 48.84 24.828 50.396 24 52 C27.425 51.368 29.712 50.035 32.562 48.062 C33.327 47.538 34.091 47.013 34.879 46.473 C35.929 45.744 35.929 45.744 37 45 C37.99 44.34 38.98 43.68 40 43 C39.67 41.35 39.34 39.7 39 38 C38.34 38 37.68 38 37 38 C36.785 37.448 36.569 36.897 36.348 36.328 C34.555 33.231 32.092 31.089 29.438 28.75 C28.93 28.291 28.423 27.832 27.9 27.359 C25.755 25.02 25.755 25.02 23 24 Z M43 43 C43.33 47.95 43.66 52.9 44 58 C47.488 56.256 50.034 54.472 53 52 C51.411 47.711 48.569 45.677 45 43 C44.34 43 43.68 43 43 43 Z M33.5 48.375 C32.706 49.001 31.912 49.628 31.094 50.273 C28.956 51.98 28.956 51.98 27 54 C28.953 55.839 30.912 57.672 32.875 59.5 C33.431 60.025 33.986 60.549 34.559 61.09 C37.322 64.029 37.322 64.029 41 65 C40.67 58.4 40.34 51.8 40 45 C37.045 45 35.784 46.558 33.5 48.375 Z M48.875 56.562 C47.944 57.409 47.014 58.256 46.055 59.129 C43.597 61.933 43.597 61.933 44.195 65.84 C44.461 66.883 44.726 67.926 45 69 C49.233 68.38 52.523 66.895 56.312 64.938 C57.915 64.116 57.915 64.116 59.551 63.277 C60.359 62.856 61.167 62.434 62 62 C61.535 58.404 61.535 58.404 59.625 55.418 C53.947 51.119 54.048 51.728 48.875 56.562 Z M66 62 C65.535 66.793 65.535 66.793 67.5 70.938 C67.995 71.288 68.49 71.639 69 72 C68.01 72.33 67.02 72.66 66 73 C66 74.98 66 76.96 66 79 C66.723 78.368 66.723 78.368 67.461 77.723 C68.093 77.175 68.724 76.627 69.375 76.062 C70.001 75.517 70.628 74.972 71.273 74.41 C73 73 73 73 75 72 C75 71.01 75 70.02 75 69 C74.34 69 73.68 69 73 69 C72.67 68.01 72.34 67.02 72 66 C71.34 66 70.68 66 70 66 C69.34 64.68 68.68 63.36 68 62 C67.34 62 66.68 62 66 62 Z M54.438 67.5 C53.822 67.834 53.206 68.168 52.572 68.512 C51.047 69.339 49.523 70.169 48 71 C51.014 74.056 54.065 77.005 57.312 79.812 C58.01 80.417 58.707 81.022 59.426 81.645 C59.945 82.092 60.465 82.539 61 83 C61.66 82.67 62.32 82.34 63 82 C62.67 76.06 62.34 70.12 62 64 C59.49 64 56.657 66.289 54.438 67.5 Z M76 71 C74.624 72.29 73.292 73.627 72 75 C72 75.66 72 76.32 72 77 C74.64 76.34 77.28 75.68 80 75 C79.67 74.01 79.34 73.02 79 72 C78.01 71.67 77.02 71.34 76 71 Z M71.875 80 C70.779 80.557 69.684 81.114 68.555 81.688 C67.712 82.121 66.869 82.554 66 83 C66.307 87.255 67.796 89.186 70.949 91.994 C71.461 92.429 71.973 92.864 72.5 93.312 C73.012 93.767 73.524 94.221 74.051 94.689 C76.227 96.999 76.227 96.999 79 98 C79.33 91.07 79.66 84.14 80 77 C76.879 77 74.63 78.593 71.875 80 Z " fill="#000000" transform="translate(504,230)"/>
<path d="M0 0 C-0.069 0.585 -0.139 1.17 -0.21 1.772 C-0.728 6.468 -1.068 11.108 -1.141 15.832 C-1.16 16.815 -1.179 17.798 -1.199 18.811 C-1.233 20.831 -1.251 22.852 -1.254 24.873 C-1.278 25.85 -1.303 26.826 -1.328 27.832 C-1.342 29.143 -1.342 29.143 -1.356 30.48 C-2.285 34.118 -4.179 35.571 -7 38 C-9.962 39.121 -9.962 39.121 -13.301 39.83 C-14.567 40.109 -15.834 40.387 -17.138 40.674 C-18.53 40.96 -19.921 41.246 -21.312 41.531 C-22.777 41.846 -24.241 42.162 -25.705 42.48 C-29.648 43.332 -33.595 44.161 -37.543 44.985 C-41.65 45.846 -45.753 46.728 -49.856 47.607 C-56.585 49.047 -63.316 50.475 -70.049 51.895 C-78.723 53.724 -87.389 55.588 -96.052 57.465 C-101.622 58.671 -107.192 59.871 -112.763 61.071 C-114.747 61.499 -116.732 61.928 -118.716 62.358 C-122.388 63.15 -126.061 63.935 -129.734 64.719 C-130.811 64.952 -131.888 65.186 -132.997 65.427 C-133.985 65.636 -134.973 65.845 -135.991 66.061 C-136.844 66.243 -137.696 66.426 -138.574 66.614 C-141.09 67.014 -143.457 67.068 -146 67 C-147.53 60.934 -148.375 55.121 -148.625 48.875 C-148.663 48.062 -148.701 47.249 -148.74 46.411 C-149.062 38.939 -149.101 31.478 -149 24 C-150.32 23.34 -151.64 22.68 -153 22 C-152.523 20.104 -152.523 20.104 -151 18 C-148.138 17.225 -145.551 16.72 -142.633 16.332 C-141.802 16.207 -140.971 16.082 -140.114 15.953 C-137.453 15.556 -134.79 15.184 -132.125 14.812 C-129.469 14.425 -126.813 14.033 -124.157 13.64 C-122.504 13.397 -120.85 13.159 -119.196 12.925 C-115.089 12.363 -115.089 12.363 -111.043 11.487 C-108.81 10.955 -106.697 10.767 -104.407 10.605 C-96.049 9.892 -87.78 8.56 -79.488 7.312 C-77.707 7.047 -75.926 6.782 -74.145 6.517 C-69.484 5.823 -64.823 5.125 -60.162 4.427 C-52.695 3.308 -45.226 2.195 -37.757 1.082 C-35.163 0.695 -32.568 0.306 -29.974 -0.083 C-28.372 -0.322 -26.771 -0.561 -25.169 -0.801 C-24.458 -0.908 -23.746 -1.015 -23.014 -1.125 C-5.586 -3.724 -5.586 -3.724 0 0 Z M-17.977 3.996 C-18.662 4.108 -19.347 4.221 -20.053 4.337 C-22.245 4.698 -24.435 5.067 -26.625 5.438 C-28.109 5.684 -29.594 5.929 -31.078 6.174 C-34.72 6.776 -38.36 7.386 -42 8 C-43.11 11.512 -43.034 14.633 -42.879 18.297 C-42.831 19.502 -42.782 20.707 -42.732 21.949 C-42.676 23.203 -42.62 24.458 -42.562 25.75 C-42.51 27.02 -42.458 28.289 -42.404 29.598 C-42.275 32.732 -42.14 35.866 -42 39 C-34.785 38.475 -27.954 37.233 -20.938 35.5 C-19.989 35.274 -19.041 35.049 -18.064 34.816 C-13.694 34.082 -13.694 34.082 -10 32 C-9.842 29.929 -9.749 27.853 -9.684 25.777 C-9.621 23.887 -9.621 23.887 -9.557 21.959 C-9.517 20.618 -9.477 19.278 -9.438 17.938 C-9.394 16.593 -9.351 15.249 -9.307 13.904 C-9.2 10.603 -9.098 7.302 -9 4 C-12.094 2.453 -14.601 3.434 -17.977 3.996 Z M-66 11.5 C-66.775 11.643 -67.549 11.786 -68.348 11.934 C-70.233 12.283 -72.117 12.64 -74 13 C-74.11 19.737 -73.701 26.3 -73 33 C-68.968 30.068 -65.911 26.711 -62.746 22.902 C-60.976 20.974 -59.138 19.502 -57 18 C-58.719 20.279 -60.449 22.548 -62.188 24.812 C-62.67 25.455 -63.153 26.098 -63.65 26.76 C-65.931 29.714 -67.546 31.745 -70.844 33.594 C-71.555 34.058 -72.267 34.522 -73 35 C-73.604 37.734 -73.604 37.734 -73.312 40.688 C-73.267 41.681 -73.222 42.675 -73.176 43.699 C-73.089 44.838 -73.089 44.838 -73 46 C-60.656 45.484 -60.656 45.484 -50 41 C-49.841 38.71 -49.749 36.416 -49.684 34.121 C-49.663 33.434 -49.642 32.748 -49.621 32.04 C-49.555 29.839 -49.496 27.639 -49.438 25.438 C-49.394 23.949 -49.351 22.46 -49.307 20.971 C-49.199 17.314 -49.098 13.657 -49 10 C-54.879 9.84 -60.234 10.391 -66 11.5 Z M-89.887 14.656 C-90.825 14.792 -91.762 14.927 -92.729 15.066 C-93.705 15.209 -94.681 15.353 -95.688 15.5 C-96.676 15.643 -97.664 15.786 -98.682 15.934 C-101.121 16.287 -103.561 16.643 -106 17 C-107.289 20.803 -106.943 24.456 -106.66 28.391 C-106.614 29.095 -106.569 29.8 -106.521 30.526 C-106.374 32.768 -106.219 35.009 -106.062 37.25 C-105.961 38.773 -105.86 40.297 -105.76 41.82 C-105.513 45.547 -105.259 49.274 -105 53 C-102.942 52.69 -100.885 52.379 -98.828 52.066 C-97.682 51.893 -96.537 51.72 -95.356 51.541 C-88.168 50.838 -88.168 50.838 -82 48 C-81.912 45.479 -81.885 42.986 -81.902 40.465 C-81.904 39.712 -81.905 38.958 -81.907 38.182 C-81.912 35.767 -81.925 33.352 -81.938 30.938 C-81.943 29.304 -81.947 27.671 -81.951 26.037 C-81.962 22.025 -81.979 18.012 -82 14 C-84.734 14 -87.187 14.264 -89.887 14.656 Z M-128.625 20.375 C-129.579 20.501 -130.533 20.628 -131.516 20.758 C-132.431 20.887 -133.346 21.016 -134.289 21.148 C-135.121 21.264 -135.954 21.379 -136.811 21.498 C-139.274 21.927 -139.274 21.927 -142 24 C-141.856 25.027 -141.711 26.055 -141.562 27.113 C-140.588 34.296 -139.831 41.252 -139.996 48.516 C-140.002 52.395 -139.504 56.157 -139 60 C-129.882 59.337 -122.224 57.17 -113 55 C-113 43.12 -113 31.24 -113 19 C-118.343 19 -123.349 19.627 -128.625 20.375 Z " fill="#000000" transform="translate(467,234)"/>
<path d="M0 0 C0.66 0.33 1.32 0.66 2 1 C1.182 1.874 1.182 1.874 0.348 2.766 C-4.891 8.461 -9.531 14.3 -13.957 20.629 C-16.037 23.043 -16.888 23.713 -20 24 C-18.455 18.828 -15.193 15.394 -11.688 11.438 C-11.118 10.778 -10.549 10.119 -9.963 9.439 C-6.873 5.91 -3.796 2.799 0 0 Z " fill="#000000" transform="translate(451,246)"/>
<path d="M0 0 C-0.54 4.124 -1.779 6.462 -4.375 9.688 C-4.981 10.454 -5.587 11.221 -6.211 12.012 C-8 14 -8 14 -11 16 C-11.33 15.01 -11.66 14.02 -12 13 C-9.835 8.726 -5.271 0 0 0 Z " fill="#000000" transform="translate(378,261)"/>
<path d="M0 0 C1.32 0 2.64 0 4 0 C3.67 1.98 3.34 3.96 3 6 C1.68 5.34 0.36 4.68 -1 4 C-0.67 2.68 -0.34 1.36 0 0 Z " fill="#000000" transform="translate(565,266)"/>
<path d="M0 0 C0.66 0.33 1.32 0.66 2 1 C3.368 7.043 3.368 7.043 2.062 10.438 C1.712 10.953 1.361 11.469 1 12 C0.01 11.67 -0.98 11.34 -2 11 C-3.157 6.95 -2.882 4.763 -1 1 C-0.67 0.67 -0.34 0.34 0 0 Z " fill="#000000" transform="translate(576,266)"/>
<path d="M0 0 C0.33 0.99 0.66 1.98 1 3 C0.336 3.724 -0.328 4.449 -1.012 5.195 C-5.445 10.049 -9.859 14.893 -14 20 C-14.66 19.34 -15.32 18.68 -16 18 C-11.908 11.239 -6.6 4.4 0 0 Z " fill="#000000" transform="translate(348,271)"/>
<path d="M0 0 C-0.287 3.831 -1.109 6.386 -3.25 9.5 C-6.502 14.308 -8.007 19.624 -9.691 25.121 C-11 28 -11 28 -13.152 28.91 C-14.067 28.955 -14.067 28.955 -15 29 C-15.693 18.251 -12.27 11.018 -5.586 2.715 C-3.717 0.695 -2.77 0 0 0 Z " fill="#000000" transform="translate(253,280)"/>
<path d="M0 0 C0.66 0.33 1.32 0.66 2 1 C1.885 2.438 1.758 3.876 1.625 5.312 C1.555 6.113 1.486 6.914 1.414 7.738 C1 10 1 10 -1 13 C-1.99 13 -2.98 13 -4 13 C-4.457 7.283 -3.523 4.514 0 0 Z " fill="#000000" transform="translate(281,285)"/>
<path d="M0 0 C1.98 0.495 1.98 0.495 4 1 C3.625 2.938 3.625 2.938 3 5 C2.01 5.495 2.01 5.495 1 6 C0.34 5.67 -0.32 5.34 -1 5 C-0.67 3.35 -0.34 1.7 0 0 Z " fill="#000000" transform="translate(453,287)"/>
<path d="M0 0 C1.32 0 2.64 0 4 0 C3.519 5.774 1.815 9.959 -1 15 C-1.99 14.34 -2.98 13.68 -4 13 C-3.717 11.394 -3.423 9.79 -3.125 8.188 C-2.963 7.294 -2.8 6.401 -2.633 5.48 C-2 3 -2 3 0 0 Z " fill="#000000" transform="translate(263,295)"/>
<path d="M0 0 C1.32 0 2.64 0 4 0 C3.67 1.65 3.34 3.3 3 5 C2.01 4.67 1.02 4.34 0 4 C0 2.68 0 1.36 0 0 Z " fill="#000000" transform="translate(358,305)"/>
<path d="M0 0 C0.66 0.33 1.32 0.66 2 1 C0.781 5.033 -0.56 8.543 -3 12 C-3.66 12 -4.32 12 -5 12 C-4.524 7.001 -2.968 4.022 0 0 Z " fill="#000000" transform="translate(531,307)"/>
<path d="M0 0 C0.99 0.33 1.98 0.66 3 1 C3 2.65 3 4.3 3 6 C2.01 6 1.02 6 0 6 C0 4.02 0 2.04 0 0 Z " fill="#000000" transform="translate(538,310)"/>
<path d="M0 0 C6.328 0.597 6.328 0.597 8.701 2.021 C10.793 5.207 10.461 8.666 10.477 12.359 C10.5 13.593 10.5 13.593 10.524 14.852 C10.571 17.485 10.599 20.117 10.625 22.75 C10.662 25.368 10.702 27.987 10.748 30.605 C10.775 32.233 10.796 33.862 10.811 35.49 C10.86 39.096 11.049 42.243 11.763 45.806 C12 49 12 49 10.485 51.369 C7.318 53.448 5.016 53.733 1.246 54.09 C0.571 54.159 -0.103 54.229 -0.798 54.3 C-3.052 54.529 -5.307 54.733 -7.562 54.938 C-10.026 55.182 -12.488 55.432 -14.951 55.682 C-16.679 55.857 -18.406 56.029 -20.134 56.2 C-26.01 56.783 -31.873 57.438 -37.734 58.152 C-59.408 60.787 -81.109 63.071 -102.841 65.166 C-104.996 65.375 -107.151 65.586 -109.306 65.797 C-113.349 66.193 -117.393 66.578 -121.438 66.961 C-123.277 67.142 -123.277 67.142 -125.153 67.326 C-126.277 67.43 -127.401 67.535 -128.559 67.642 C-129.541 67.736 -130.524 67.83 -131.537 67.926 C-134 68 -134 68 -137 67 C-138.562 62.901 -137.919 58.592 -137.66 54.297 C-137.614 53.459 -137.569 52.621 -137.521 51.758 C-137.374 49.088 -137.218 46.419 -137.062 43.75 C-136.961 41.938 -136.86 40.125 -136.76 38.312 C-136.513 33.875 -136.258 29.437 -136 25 C-136.66 24.67 -137.32 24.34 -138 24 C-138 22.68 -138 21.36 -138 20 C-130.985 18.004 -123.992 17.201 -116.75 16.438 C-114.432 16.189 -112.114 15.937 -109.797 15.684 C-108.779 15.576 -107.762 15.468 -106.714 15.357 C-104.114 15.07 -104.114 15.07 -102.076 14.506 C-98.534 13.643 -94.896 13.434 -91.273 13.098 C-90.412 13.015 -89.55 12.932 -88.662 12.847 C-85.9 12.583 -83.138 12.322 -80.375 12.062 C-76.778 11.722 -73.182 11.379 -69.586 11.035 C-68.702 10.951 -67.818 10.867 -66.907 10.78 C-60.18 10.133 -53.463 9.405 -46.752 8.606 C-43.147 8.188 -39.63 7.901 -36 8 C-35.67 7.01 -35.34 6.02 -35 5 C-33.784 5.184 -32.569 5.369 -31.316 5.559 C-25.13 6.246 -19.114 5.636 -12.938 5.062 C-11.786 4.963 -10.634 4.863 -9.447 4.76 C-6.631 4.514 -3.815 4.261 -1 4 C-0.67 2.68 -0.34 1.36 0 0 Z M-7.848 10.523 C-9.591 10.725 -9.591 10.725 -11.369 10.93 C-13.197 11.15 -13.197 11.15 -15.062 11.375 C-16.285 11.514 -17.508 11.653 -18.768 11.797 C-24.274 11.945 -24.274 11.945 -29 14 C-29.089 16.594 -29.115 19.16 -29.098 21.754 C-29.096 22.529 -29.095 23.305 -29.093 24.104 C-29.088 26.59 -29.075 29.076 -29.062 31.562 C-29.057 33.244 -29.053 34.926 -29.049 36.607 C-29.038 40.738 -29.021 44.869 -29 49 C-26.3 50.35 -24.647 49.858 -21.66 49.477 C-20.597 49.342 -19.534 49.208 -18.439 49.07 C-17.325 48.923 -16.211 48.776 -15.062 48.625 C-13.952 48.486 -12.841 48.347 -11.697 48.203 C-5.765 47.486 -5.765 47.486 0 46 C0 34.45 0 22.9 0 11 C-2.804 9.598 -4.742 10.163 -7.848 10.523 Z M-48.375 14.938 C-49.239 15.025 -50.102 15.112 -50.992 15.201 C-52.245 15.332 -52.245 15.332 -53.523 15.465 C-54.667 15.583 -54.667 15.583 -55.833 15.703 C-57.945 15.992 -59.944 16.442 -62 17 C-62.163 25.718 -61.657 34.312 -61 43 C-57.49 41.83 -56.895 40.859 -54.75 37.938 C-51.365 33.433 -47.76 29.194 -44 25 C-45.278 27.725 -46.67 30.014 -48.566 32.348 C-49.052 32.953 -49.537 33.558 -50.037 34.182 C-51.057 35.44 -52.078 36.698 -53.1 37.955 C-53.584 38.559 -54.068 39.163 -54.566 39.785 C-55.009 40.331 -55.452 40.876 -55.908 41.438 C-57.201 43.131 -57.201 43.131 -58 46 C-59.485 46.495 -59.485 46.495 -61 47 C-61 48.98 -61 50.96 -61 53 C-58.36 54.32 -56.903 53.86 -53.992 53.441 C-53.104 53.317 -52.216 53.193 -51.3 53.065 C-50.17 52.899 -49.04 52.733 -47.875 52.562 C-42.492 51.789 -42.492 51.789 -37 51 C-37 38.79 -37 26.58 -37 14 C-40.805 14 -44.593 14.543 -48.375 14.938 Z M-93 20 C-93 32.21 -93 44.42 -93 57 C-82.117 57.259 -82.117 57.259 -69 54 C-68.911 51.334 -68.885 48.694 -68.902 46.027 C-68.904 45.23 -68.905 44.432 -68.907 43.61 C-68.912 41.053 -68.925 38.495 -68.938 35.938 C-68.943 34.208 -68.947 32.478 -68.951 30.748 C-68.962 26.499 -68.979 22.249 -69 18 C-78.364 17.835 -78.364 17.835 -93 20 Z M-109.543 21.559 C-110.994 21.745 -110.994 21.745 -112.473 21.935 C-113.699 22.101 -114.925 22.267 -116.188 22.438 C-122.035 23.211 -122.035 23.211 -128 24 C-128 36.21 -128 48.42 -128 61 C-112.612 60.313 -112.612 60.313 -100 58 C-100.33 46.12 -100.66 34.24 -101 22 C-104.346 20.885 -106.079 21.1 -109.543 21.559 Z " fill="#000000" transform="translate(456,313)"/>
<path d="M0 0 C3.305 1.221 6.035 2.556 8.863 4.652 C9.577 5.176 10.29 5.699 11.025 6.238 C11.78 6.799 12.535 7.36 13.312 7.938 C19.126 12.201 24.969 16.393 30.938 20.438 C38.491 25.578 45.83 30.988 53.168 36.43 C58.696 40.526 64.275 44.549 69.863 48.562 C71.238 49.551 72.603 50.552 73.958 51.568 C75.985 53.055 75.985 53.055 78.295 54.202 C80.766 55.618 82.305 56.699 84 59 C84.837 63.856 84.436 68.488 84 73.375 C83.874 75.338 83.874 75.338 83.746 77.34 C83.534 80.564 83.284 83.781 83 87 C80 88 80 88 77.346 86.775 C76.287 86.147 75.228 85.518 74.137 84.871 C73.557 84.53 72.977 84.19 72.38 83.839 C70.476 82.715 68.582 81.577 66.688 80.438 C65.37 79.654 64.053 78.872 62.735 78.089 C51.338 71.298 40.126 64.226 29 57 C27.418 55.977 25.836 54.955 24.254 53.934 C21.413 52.098 18.574 50.258 15.738 48.414 C13.353 46.867 10.956 45.34 8.543 43.836 C7.539 43.209 6.535 42.583 5.5 41.938 C4.644 41.41 3.788 40.883 2.906 40.34 C1 39 1 39 0 37 C-0.087 34.228 -0.116 31.482 -0.098 28.711 C-0.096 27.893 -0.095 27.074 -0.093 26.231 C-0.088 23.612 -0.075 20.994 -0.062 18.375 C-0.057 16.602 -0.053 14.828 -0.049 13.055 C-0.038 8.703 -0.021 4.352 0 0 Z M3 6 C3 11.61 3 17.22 3 23 C4.32 22.67 5.64 22.34 7 22 C6.526 22.563 6.051 23.127 5.562 23.707 C3.336 26.975 2.979 29.408 3.043 33.32 C5.108 39.102 11.841 42.179 17 45 C17.99 45.33 18.98 45.66 20 46 C23.746 38.507 22.161 24.817 20 17 C16.146 11.362 10.173 8.525 4 6 C3.67 6 3.34 6 3 6 Z M25 21 C25 26.94 25 32.88 25 39 C29.79 34.214 29.79 34.214 34 29 C34 28.34 34 27.68 34 27 C31.982 25.41 31.982 25.41 29.5 23.875 C28.015 22.926 26.53 21.978 25 21 Z M35 29 C30.564 34.383 26.641 39.508 24 46 C24.116 48.104 24.116 48.104 25 50 C27.293 51.751 29.487 53.259 31.938 54.75 C32.584 55.161 33.23 55.572 33.896 55.996 C37.197 58.244 37.197 58.244 41 59 C40.505 45.14 40.505 45.14 40 31 C37.525 30.01 37.525 30.01 35 29 Z M44 35 C44 39.95 44 44.9 44 50 C47.61 46.39 49.698 44.24 52 40 C49.36 38.35 46.72 36.7 44 35 Z M52 42 C47.143 47.768 44.142 53.449 44 61 C44.99 61.33 45.98 61.66 47 62 C48.98 58.37 50.96 54.74 53 51 C51.991 53.507 50.982 56.013 49.973 58.52 C49.264 60.327 48.614 62.158 48 64 C48.615 64.41 49.23 64.82 49.863 65.242 C53.242 67.495 56.621 69.747 60 72 C60.99 71.67 61.98 71.34 63 71 C63.035 67.29 62.993 63.585 62.938 59.875 C62.948 58.828 62.959 57.782 62.971 56.703 C62.917 50.958 62.917 50.958 60.485 45.919 C57.557 43.299 56.009 42 52 42 Z M66 51 C66 53.64 66 56.28 66 59 C68.784 57.608 68.979 55.844 70 53 C68.68 52.34 67.36 51.68 66 51 Z M71 55 C70.01 57.64 69.02 60.28 68 63 C71.125 63.337 71.125 63.337 73.188 61 C73.786 60.34 74.384 59.68 75 59 C74.67 58.01 74.34 57.02 74 56 C73.01 55.67 72.02 55.34 71 55 Z M76 59 C74.263 60.755 74.263 60.755 72.5 62.938 C69.202 66.899 69.202 66.899 67 68 C65.977 70.276 65.977 70.276 66 73 C68.721 77.649 72.313 79.657 77 82 C77.66 82 78.32 82 79 82 C79 80.35 79 78.7 79 77 C78.67 77.66 78.34 78.32 78 79 C77.34 79 76.68 79 76 79 C76.99 75.37 77.98 71.74 79 68 C75.457 69.404 75.457 69.404 72 71 C72.517 70.385 73.034 69.77 73.566 69.137 C74.225 68.328 74.884 67.52 75.562 66.688 C76.224 65.887 76.885 65.086 77.566 64.262 C78.039 63.515 78.513 62.769 79 62 C78.67 61.01 78.34 60.02 78 59 C77.34 59 76.68 59 76 59 Z " fill="#000000" transform="translate(504,319)"/>
<path d="M0 0 C0.33 0.99 0.66 1.98 1 3 C-0.477 5.27 -0.477 5.27 -2.625 7.812 C-3.36 8.693 -4.095 9.573 -4.852 10.48 C-5.561 11.312 -6.27 12.143 -7 13 C-8.001 14.207 -9.001 15.416 -10 16.625 C-10.66 17.409 -11.32 18.192 -12 19 C-12.33 18.34 -12.66 17.68 -13 17 C-8.948 11.041 -4.796 5.381 0 0 Z " fill="#000000" transform="translate(448,332)"/>
<path d="M0 0 C0.99 0.33 1.98 0.66 3 1 C3 2.65 3 4.3 3 6 C1.35 5.67 -0.3 5.34 -2 5 C-1.125 1.125 -1.125 1.125 0 0 Z " fill="#000000" transform="translate(567,342)"/>
<path d="M0 0 C-1.477 4.32 -3.69 7.556 -6.438 11.188 C-7.22 12.233 -8.002 13.278 -8.809 14.355 C-11 17 -11 17 -14 19 C-15 16 -15 16 -13.996 13.984 C-4.241 0 -4.241 0 0 0 Z " fill="#000000" transform="translate(382,343)"/>
<path d="M0 0 C1.32 0.33 2.64 0.66 4 1 C4.688 2.812 4.688 2.812 5 5 C3.562 6.75 3.562 6.75 2 8 C0 6 0 6 -0.125 2.875 C-0.084 1.926 -0.043 0.978 0 0 Z " fill="#000000" transform="translate(574,345)"/>
<path d="M0 0 C2.062 0.438 2.062 0.438 4 1 C4 2.65 4 4.3 4 6 C2.062 6.562 2.062 6.562 0 7 C-1 6 -1 6 -1.125 3.5 C-1 1 -1 1 0 0 Z " fill="#000000" transform="translate(495,373)"/>
<path d="M0 0 C1.675 0.286 3.344 0.618 5 1 C5.125 6.75 5.125 6.75 4 9 C0.125 8.125 0.125 8.125 -1 7 C-1.125 4 -1.125 4 -1 1 C-0.67 0.67 -0.34 0.34 0 0 Z " fill="#000000" transform="translate(514,374)"/>
<path d="M0 0 C1.938 0.375 1.938 0.375 4 1 C5.42 3.841 5.315 5.855 5 9 C3 11.375 3 11.375 1 13 C0.34 12.67 -0.32 12.34 -1 12 C-2.082 7.311 -2.22 4.309 0 0 Z " fill="#000000" transform="translate(420,377)"/>
<path d="M0 0 C1.32 0.66 2.64 1.32 4 2 C4.125 8.75 4.125 8.75 3 11 C1.35 10.67 -0.3 10.34 -2 10 C-2.195 3.945 -2.195 3.945 -2 2 C-1.34 1.34 -0.68 0.68 0 0 Z " fill="#000000" transform="translate(362,381)"/>
<path d="M0 0 C0.99 0.33 1.98 0.66 3 1 C3.375 12.765 3.749 24.529 4.122 36.294 C4.295 41.761 4.469 47.229 4.643 52.696 C7.184 132.467 7.184 132.467 7.062 150.25 C7.057 151.628 7.053 153.005 7.049 154.383 C7.038 157.589 7.021 160.794 7 164 C6.01 164 5.02 164 4 164 C3.067 160.799 2.826 157.839 2.728 154.511 C2.693 153.394 2.658 152.277 2.622 151.127 C2.588 149.906 2.554 148.685 2.519 147.427 C2.48 146.136 2.441 144.846 2.401 143.517 C2.293 139.975 2.192 136.432 2.091 132.889 C1.984 129.161 1.873 125.432 1.763 121.703 C1.577 115.421 1.395 109.139 1.216 102.856 C1.009 95.653 0.798 88.449 0.583 81.246 C0.376 74.272 0.172 67.297 -0.03 60.323 C-0.116 57.381 -0.202 54.438 -0.29 51.496 C-0.695 37.856 -1.073 24.218 -1.115 10.572 C-1.12 9.605 -1.125 8.638 -1.131 7.643 C-1.13 6.773 -1.128 5.904 -1.127 5.009 C-1.127 4.253 -1.127 3.498 -1.127 2.719 C-1 1 -1 1 0 0 Z " fill="#000000" transform="translate(243,382)"/>
<path d="M0 0 C0.99 0.33 1.98 0.66 3 1 C2.67 2.65 2.34 4.3 2 6 C1.01 5.67 0.02 5.34 -1 5 C-0.67 3.35 -0.34 1.7 0 0 Z " fill="#000000" transform="translate(502,385)"/>
<path d="M0 0 C0.99 0 1.98 0 3 0 C4.014 3.041 4.151 5.164 4.196 8.349 C4.214 9.46 4.233 10.571 4.251 11.715 C4.266 12.935 4.282 14.155 4.297 15.412 C4.317 16.698 4.336 17.983 4.357 19.307 C4.411 22.841 4.458 26.376 4.505 29.91 C4.555 33.632 4.611 37.355 4.665 41.077 C4.757 47.352 4.845 53.628 4.93 59.904 C5.028 67.091 5.13 74.277 5.235 81.464 C5.348 89.176 5.458 96.887 5.566 104.598 C5.597 106.784 5.629 108.97 5.66 111.156 C5.918 129.105 6.061 147.049 6 165 C4.68 165 3.36 165 2 165 C0.017 110.02 -0.175 55.008 0 0 Z " fill="#000000" transform="translate(224,389)"/>
<path d="M0 0 C1.32 0 2.64 0 4 0 C3.67 1.65 3.34 3.3 3 5 C2.01 5 1.02 5 0 5 C-0.562 3.062 -0.562 3.062 -1 1 C-0.67 0.67 -0.34 0.34 0 0 Z " fill="#000000" transform="translate(515,402)"/>
<path d="M0 0 C0.99 0.33 1.98 0.66 3 1 C3.708 16.039 4.25 31.072 4.562 46.125 C4.594 47.599 4.594 47.599 4.627 49.103 C5.099 71.402 5.105 93.697 5 116 C4.01 116 3.02 116 2 116 C0.821 105.855 0.684 95.691 0.465 85.492 C0.422 83.598 0.378 81.704 0.335 79.81 C0.244 75.851 0.156 71.892 0.07 67.934 C-0.039 62.908 -0.153 57.882 -0.27 52.856 C-0.359 48.946 -0.447 45.035 -0.535 41.124 C-0.576 39.274 -0.618 37.424 -0.66 35.573 C-0.867 26.481 -1.041 17.388 -1.088 8.293 C-1.095 7.569 -1.101 6.845 -1.108 6.098 C-1.111 4.398 -1.061 2.699 -1 1 C-0.67 0.67 -0.34 0.34 0 0 Z " fill="#000000" transform="translate(261,403)"/>
<path d="M0 0 C3.584 0.498 6.668 1.63 10 3 C10.025 3.976 10.05 4.953 10.076 5.959 C10.172 9.664 10.272 13.37 10.372 17.075 C10.415 18.663 10.457 20.251 10.497 21.839 C10.745 31.497 11.136 41.122 11.801 50.76 C12.225 57.663 12.225 57.663 10 61 C6.957 61.631 4.068 62.063 0.988 62.395 C0.029 62.507 -0.93 62.62 -1.918 62.736 C-5.173 63.112 -8.43 63.463 -11.688 63.812 C-13.379 64 -13.379 64 -15.105 64.191 C-37.421 66.651 -59.789 68.463 -82.173 70.173 C-84.798 70.374 -87.423 70.576 -90.047 70.778 C-94.246 71.101 -98.445 71.415 -102.645 71.723 C-104.194 71.838 -105.743 71.954 -107.292 72.071 C-117.548 72.848 -127.715 73.137 -138 73 C-138.33 71.68 -138.66 70.36 -139 69 C-137.515 68.505 -137.515 68.505 -136 68 C-136.162 66.852 -136.325 65.704 -136.492 64.521 C-137.027 60.22 -137.145 55.998 -137.133 51.668 C-137.134 50.91 -137.135 50.151 -137.136 49.37 C-137.136 47.782 -137.135 46.195 -137.13 44.608 C-137.125 42.177 -137.13 39.746 -137.137 37.314 C-137.136 35.766 -137.135 34.217 -137.133 32.668 C-137.135 31.943 -137.137 31.218 -137.139 30.471 C-137.124 27.373 -136.988 24.963 -136 22 C-136.66 22 -137.32 22 -138 22 C-137.67 20.35 -137.34 18.7 -137 17 C-108.352 12.555 -79.732 8.38 -50.884 5.46 C-49.505 5.32 -49.505 5.32 -48.097 5.177 C-46.39 5.004 -44.682 4.836 -42.974 4.671 C-39.824 4.358 -37.015 4.005 -34 3 C-32.375 2.98 -30.749 3.008 -29.125 3.062 C-22.974 3.123 -16.929 2.641 -10.812 2.062 C-9.867 1.976 -8.922 1.889 -7.948 1.799 C-7.064 1.712 -6.18 1.625 -5.27 1.535 C-4.471 1.457 -3.673 1.378 -2.851 1.297 C-0.988 1.184 -0.988 1.184 0 0 Z M-13.562 9.402 C-14.663 9.531 -14.663 9.531 -15.785 9.662 C-16.516 9.753 -17.247 9.844 -18 9.938 C-18.762 10.025 -19.524 10.112 -20.309 10.201 C-23.962 10.35 -23.962 10.35 -27 12 C-27.088 14.219 -27.107 16.44 -27.098 18.66 C-27.096 19.325 -27.095 19.989 -27.093 20.674 C-27.088 22.803 -27.075 24.933 -27.062 27.062 C-27.057 28.503 -27.053 29.944 -27.049 31.385 C-27.038 34.923 -27.021 38.462 -27 42 C-21.249 37.201 -16.013 32.065 -10.811 26.684 C-10.217 26.079 -9.623 25.474 -9.012 24.852 C-8.48 24.303 -7.949 23.755 -7.401 23.19 C-6 22 -6 22 -4 22 C-5.558 23.733 -7.122 25.461 -8.688 27.188 C-9.171 27.726 -9.654 28.264 -10.152 28.818 C-12.86 31.798 -15.625 34.617 -18.625 37.305 C-25.148 42.839 -25.148 42.839 -28.82 50.266 C-28.813 52.976 -28.618 55.366 -28 58 C-18.261 57.366 -8.707 56.213 1 55 C0.67 39.82 0.34 24.64 0 9 C-6.852 8.932 -6.852 8.932 -13.562 9.402 Z M-45.859 12.656 C-47.367 12.839 -47.367 12.839 -48.905 13.025 C-50.174 13.182 -51.443 13.339 -52.75 13.5 C-58.814 14.243 -58.814 14.243 -65 15 C-64.67 25.89 -64.34 36.78 -64 48 C-60.853 44.853 -58.324 42.277 -55.75 38.812 C-51.793 33.647 -47.663 28.549 -43 24 C-42.34 24 -41.68 24 -41 24 C-41.45 24.487 -41.9 24.975 -42.363 25.477 C-47.223 30.833 -51.74 36.392 -56.142 42.125 C-58.103 44.664 -59.923 46.93 -62.312 49.09 C-64.517 51.585 -64.422 52.976 -64.25 56.25 C-64.214 57.142 -64.178 58.034 -64.141 58.953 C-64.094 59.629 -64.048 60.304 -64 61 C-54.346 61.311 -45.894 60.099 -36 59 C-36 43.49 -36 27.98 -36 12 C-39.393 12 -42.502 12.245 -45.859 12.656 Z M-94 18 C-94.33 27.24 -94.66 36.48 -95 46 C-94.34 46 -93.68 46 -93 46 C-91.001 43.675 -89.201 41.227 -87.363 38.773 C-84.531 35.45 -81.378 32.751 -78 30 C-80.082 32.73 -82.166 35.459 -84.25 38.188 C-84.837 38.956 -85.423 39.725 -86.027 40.518 C-86.601 41.268 -87.175 42.019 -87.766 42.793 C-88.323 43.527 -88.88 44.262 -89.454 45.018 C-90.699 46.614 -92.026 48.147 -93.375 49.656 C-95.433 52.624 -95.593 54.732 -95.75 58.312 C-95.807 59.381 -95.863 60.45 -95.922 61.551 C-95.948 62.359 -95.973 63.167 -96 64 C-83.686 64.747 -83.686 64.747 -72 62 C-72 46.82 -72 31.64 -72 16 C-81.71 15.772 -81.71 15.772 -94 18 Z M-112.863 19.656 C-114.193 19.859 -114.193 19.859 -115.549 20.066 C-116.461 20.209 -117.373 20.353 -118.312 20.5 C-119.244 20.643 -120.175 20.786 -121.135 20.934 C-123.424 21.286 -125.712 21.641 -128 22 C-129.104 25.312 -128.918 26.99 -128.562 30.438 C-127.559 42.591 -127.918 54.816 -128 67 C-124.604 66.86 -121.208 66.712 -117.812 66.562 C-116.853 66.523 -115.893 66.484 -114.904 66.443 C-113.973 66.401 -113.042 66.36 -112.082 66.316 C-111.228 66.28 -110.375 66.243 -109.495 66.205 C-106.935 65.995 -104.507 65.552 -102 65 C-101.86 49.634 -102.193 34.345 -103 19 C-106.369 18.937 -109.535 19.141 -112.863 19.656 Z " fill="#000000" transform="translate(458,403)"/>
<path d="M0 0 C0.99 0 1.98 0 3 0 C3 1.65 3 3.3 3 5 C1.68 5 0.36 5 -1 5 C-0.67 3.35 -0.34 1.7 0 0 Z " fill="#000000" transform="translate(545,412)"/>
<path d="M0 0 C0.66 0 1.32 0 2 0 C2.027 1.625 2.046 3.25 2.062 4.875 C2.074 5.78 2.086 6.685 2.098 7.617 C2 10 2 10 1 12 C-2 11 -2 11 -2.875 9.375 C-3.067 5.735 -1.57 3.266 0 0 Z " fill="#000000" transform="translate(572,418)"/>
<path d="M0 0 C7.875 1.125 7.875 1.125 11.238 2.667 C12.373 3.18 12.373 3.18 13.532 3.704 C14.333 4.076 15.133 4.448 15.957 4.832 C16.81 5.22 17.663 5.608 18.541 6.008 C21.302 7.268 24.057 8.54 26.812 9.812 C28.711 10.682 30.61 11.55 32.509 12.418 C37.168 14.549 41.821 16.691 46.473 18.836 C49.439 20.202 52.407 21.563 55.376 22.922 C60.257 25.157 65.136 27.398 70.008 29.652 C70.788 30.013 71.568 30.374 72.372 30.746 C75.938 32.448 79.465 34.233 83 36 C83 47.88 83 59.76 83 72 C77.843 71.14 74.109 69.876 69.523 67.641 C68.808 67.3 68.093 66.959 67.357 66.608 C65.026 65.495 62.701 64.373 60.375 63.25 C57.941 62.086 55.507 60.924 53.072 59.763 C51.43 58.979 49.788 58.195 48.147 57.409 C40.645 53.821 33.11 50.305 25.562 46.812 C24.477 46.309 23.391 45.806 22.273 45.288 C14.852 41.851 7.425 38.427 0 35 C0 23.45 0 11.9 0 0 Z M3 5 C3 9.62 3 14.24 3 19 C7.513 15.446 7.513 15.446 10.812 11.25 C11.534 10.178 12.256 9.105 13 8 C9.27 5.966 7.331 5 3 5 Z M13 9 C11.325 10.948 9.847 12.846 8.375 14.938 C7.571 16.051 6.766 17.164 5.961 18.277 C5.314 19.176 4.667 20.074 4 21 C3.67 21.33 3.34 21.66 3 22 C2.928 23.686 2.916 25.375 2.938 27.062 C2.947 27.982 2.956 28.901 2.965 29.848 C2.976 30.558 2.988 31.268 3 32 C5.456 33.171 7.915 34.337 10.375 35.5 C11.074 35.834 11.772 36.168 12.492 36.512 C16.088 38.352 16.088 38.352 20 39 C20 29.76 20 20.52 20 11 C16.298 8.776 16.298 8.776 13 9 Z M24 14 C24 20.93 24 27.86 24 35 C27.412 31.588 30.363 28.436 33.312 24.688 C34.01 23.804 34.707 22.921 35.426 22.012 C35.945 21.348 36.465 20.684 37 20 C34.074 16.816 31.051 15.519 27 14 C26.01 14 25.02 14 24 14 Z M38 20 C32.73 25.389 28.947 31.612 25 38 C24.34 38.99 23.68 39.98 23 41 C30.92 44.96 30.92 44.96 39 49 C41.281 47.15 41.281 47.15 41.227 44.294 C41.217 43.174 41.206 42.053 41.195 40.898 C41.189 39.687 41.182 38.475 41.176 37.227 C41.159 35.956 41.142 34.685 41.125 33.375 C41.116 32.096 41.107 30.817 41.098 29.5 C41.074 26.333 41.041 23.167 41 20 C40.01 20 39.02 20 38 20 Z M45 23 C45 28.28 45 33.56 45 39 C46.32 37.35 47.64 35.7 49 34 C49.742 33.134 50.485 32.267 51.25 31.375 C53.297 29.089 53.297 29.089 53 26 C49.196 23.799 49.196 23.799 45 23 Z M55 27 C51.916 31.483 48.903 36.008 46.125 40.688 C45.715 41.372 45.305 42.056 44.883 42.762 C43.765 45.597 43.853 47.981 44 51 C46.62 52.364 49.246 53.716 51.875 55.062 C52.621 55.452 53.368 55.842 54.137 56.244 C54.852 56.608 55.568 56.972 56.305 57.348 C57.294 57.858 57.294 57.858 58.304 58.379 C59.144 58.686 59.144 58.686 60 59 C60.66 58.67 61.32 58.34 62 58 C61.814 57.031 61.629 56.061 61.438 55.062 C61.293 54.052 61.149 53.041 61 52 C61.33 51.67 61.66 51.34 62 51 C62.087 49.438 62.107 47.873 62.098 46.309 C62.093 44.892 62.093 44.892 62.088 43.447 C62.08 42.454 62.071 41.461 62.062 40.438 C62.058 39.44 62.053 38.443 62.049 37.416 C62.037 34.944 62.021 32.472 62 30 C59.69 29.01 57.38 28.02 55 27 Z M66 33 C66 35.97 66 38.94 66 42 C68.562 39.688 68.562 39.688 71 37 C71 36.01 71 35.02 71 34 C69.35 33.67 67.7 33.34 66 33 Z M73 36 C68.686 39.863 65.878 43.493 65.535 49.383 C65.486 53.602 65.696 57.792 66 62 C67.79 62.838 69.582 63.67 71.375 64.5 C72.872 65.196 72.872 65.196 74.398 65.906 C76.837 67.129 76.837 67.129 79 67 C79 57.43 79 47.86 79 38 C77.02 37.34 75.04 36.68 73 36 Z " fill="#000000" transform="translate(504,421)"/>
<path d="M0 0 C0.99 0.33 1.98 0.66 3 1 C4.113 20.339 4.108 39.638 4 59 C3.01 59 2.02 59 1 59 C0.071 55.821 -0.156 52.911 -0.221 49.605 C-0.244 48.527 -0.268 47.45 -0.291 46.339 C-0.311 45.182 -0.331 44.025 -0.352 42.832 C-0.375 41.641 -0.398 40.451 -0.422 39.224 C-0.469 36.71 -0.515 34.196 -0.558 31.682 C-0.625 27.817 -0.703 23.953 -0.781 20.088 C-0.826 17.648 -0.87 15.209 -0.914 12.77 C-0.938 11.606 -0.962 10.443 -0.986 9.244 C-1.003 8.176 -1.02 7.108 -1.038 6.007 C-1.063 4.59 -1.063 4.59 -1.089 3.143 C-1 1 -1 1 0 0 Z " fill="#000000" transform="translate(280,423)"/>
<path d="M0 0 C0.99 0 1.98 0 3 0 C3.175 10.896 3.341 21.792 3.5 32.688 C3.512 33.502 3.524 34.317 3.536 35.157 C3.888 59.459 4.094 83.757 4.062 108.062 C4.062 108.729 4.061 109.396 4.06 110.084 C4.049 118.056 4.029 126.028 4 134 C2.68 133.67 1.36 133.34 0 133 C-0.133 122.121 -0.264 111.242 -0.391 100.364 C-0.45 95.307 -0.51 90.25 -0.573 85.193 C-0.828 64.459 -1.05 43.726 -1.088 22.99 C-1.092 21.128 -1.097 19.265 -1.104 17.403 C-1.113 14.844 -1.115 12.285 -1.115 9.726 C-1.119 8.967 -1.122 8.209 -1.126 7.427 C-1.115 2.229 -1.115 2.229 0 0 Z " fill="#000000" transform="translate(203,426)"/>
<path d="M0 0 C0.66 0 1.32 0 2 0 C3.286 7.429 3.286 7.429 2 11 C1.01 11 0.02 11 -1 11 C-2.231 4.6 -2.231 4.6 -1.062 1.562 C-0.712 1.047 -0.361 0.531 0 0 Z " fill="#000000" transform="translate(501,475)"/>
<path d="M0 0 C1.32 0 2.64 0 4 0 C5.509 3.019 5.175 5.673 5 9 C4.01 10.485 4.01 10.485 3 12 C1.062 11.625 1.062 11.625 -1 11 C-2.386 8.229 -2.188 6.067 -2 3 C-1.34 2.01 -0.68 1.02 0 0 Z " fill="#000000" transform="translate(362,485)"/>
<path d="M0 0 C0.99 0.99 1.98 1.98 3 3 C2.01 4.485 2.01 4.485 1 6 C0.01 6 -0.98 6 -2 6 C-2 4.35 -2 2.7 -2 1 C-1.34 0.67 -0.68 0.34 0 0 Z " fill="#000000" transform="translate(412,484)"/>
<path d="M0 0 C0.66 0.33 1.32 0.66 2 1 C2 2.98 2 4.96 2 7 C0.68 7 -0.64 7 -2 7 C-2.125 4.625 -2.125 4.625 -2 2 C-1.34 1.34 -0.68 0.68 0 0 Z " fill="#000000" transform="translate(510,488)"/>
<path d="M0 0 C0.99 0.66 1.98 1.32 3 2 C2.67 3.65 2.34 5.3 2 7 C0.35 6.67 -1.3 6.34 -3 6 C-2.625 3.562 -2.625 3.562 -2 1 C-1.34 0.67 -0.68 0.34 0 0 Z " fill="#000000" transform="translate(350,492)"/>
<path d="M0 0 C0.99 0 1.98 0 3 0 C1.425 4.462 -0.594 9.797 -5 12 C-4.527 7.028 -3.149 3.89 0 0 Z " fill="#000000" transform="translate(548,495)"/>
<path d="M0 0 C0.66 0 1.32 0 2 0 C2.8 3.287 3.097 4.71 2 8 C1.01 7.67 0.02 7.34 -1 7 C-1.625 4.625 -1.625 4.625 -2 2 C-1.34 1.34 -0.68 0.68 0 0 Z " fill="#000000" transform="translate(556,495)"/>
<path d="M0 0 C1.32 0 2.64 0 4 0 C3.67 1.65 3.34 3.3 3 5 C2.01 5 1.02 5 0 5 C0 3.35 0 1.7 0 0 Z " fill="#000000" transform="translate(523,497)"/>
<path d="M0 0 C3.673 0.408 6.893 0.929 10 3 C11.076 6.229 11.121 8.545 11.114 11.94 C11.113 13.161 11.113 14.382 11.113 15.64 C11.108 16.959 11.103 18.278 11.098 19.637 C11.096 21 11.094 22.363 11.093 23.727 C11.09 27.312 11.08 30.898 11.069 34.483 C11.058 38.143 11.054 41.803 11.049 45.463 C11.038 52.642 11.021 59.821 11 67 C11.66 67.33 12.32 67.66 13 68 C13 72 13 72 11.326 73.741 C8.525 75.257 6.946 75.299 3.777 75.145 C2.704 75.1 1.63 75.056 0.524 75.01 C-1.251 74.912 -1.251 74.912 -3.062 74.812 C-4.317 74.756 -5.572 74.7 -6.865 74.643 C-9.682 74.517 -12.498 74.38 -15.313 74.237 C-20.352 73.98 -25.39 73.745 -30.43 73.512 C-35.969 73.255 -41.508 72.997 -47.047 72.732 C-57.572 72.23 -68.092 71.808 -78.625 71.5 C-89.388 71.178 -100.128 70.649 -110.875 70 C-111.581 69.958 -112.287 69.916 -113.014 69.873 C-133.348 68.652 -133.348 68.652 -135 67 C-135.146 65.458 -135.227 63.911 -135.281 62.363 C-135.318 61.4 -135.355 60.437 -135.393 59.445 C-135.446 57.894 -135.446 57.894 -135.5 56.312 C-135.754 49.634 -136.03 42.975 -136.562 36.312 C-137.039 30.199 -137.101 24.129 -137 18 C-137.66 18 -138.32 18 -139 18 C-139.33 17.01 -139.66 16.02 -140 15 C-139.01 14.67 -138.02 14.34 -137 14 C-136.267 11.985 -136.267 11.985 -136 10 C-134.742 10.192 -133.484 10.384 -132.188 10.582 C-124.618 11.334 -117.125 10.538 -109.572 9.904 C-107.034 9.69 -104.496 9.489 -101.957 9.291 C-93.646 8.629 -85.35 7.865 -77.062 6.957 C-75.953 6.836 -75.953 6.836 -74.822 6.713 C-71.996 6.394 -69.221 6.048 -66.442 5.438 C-63.214 4.859 -60.145 4.963 -56.867 5.027 C-47.566 5.122 -38.384 4.372 -29.125 3.562 C-27.5 3.426 -25.875 3.29 -24.25 3.154 C-20.48 2.838 -16.712 2.51 -12.944 2.173 C-11.189 2.017 -9.434 1.865 -7.679 1.714 C-3.501 1.718 -3.501 1.718 0 0 Z M-17 9.438 C-18.279 9.519 -19.558 9.6 -20.875 9.684 C-23.903 9.803 -23.903 9.803 -26 11 C-26.33 21.89 -26.66 32.78 -27 44 C-23.403 42.201 -22.402 41.586 -20.062 38.688 C-14.774 32.413 -8.837 26.758 -3 21 C-6.339 26.481 -10.494 30.891 -14.938 35.5 C-17.019 37.672 -19.096 39.847 -21.155 42.041 C-22.281 43.236 -23.422 44.418 -24.589 45.573 C-28.445 49.63 -28.769 53.044 -28.812 58.375 C-28.838 59.111 -28.863 59.847 -28.889 60.605 C-28.947 62.403 -28.977 64.202 -29 66 C-23.722 67.529 -18.269 67.409 -12.812 67.625 C-11.694 67.677 -10.576 67.728 -9.424 67.781 C-8.362 67.825 -7.301 67.869 -6.207 67.914 C-5.232 67.955 -4.257 67.996 -3.253 68.038 C-1.03 68.262 -1.03 68.262 0 67 C1.623 54.831 1.115 42.369 1.062 30.125 C1.057 28.069 1.053 26.013 1.049 23.957 C1.038 18.971 1.021 13.986 1 9 C-0.579 8.995 -2.159 8.991 -3.738 8.989 C-4.618 8.986 -5.497 8.984 -6.404 8.982 C-9.952 9.007 -13.459 9.202 -17 9.438 Z M-42.543 11.438 C-43.51 11.519 -44.477 11.6 -45.473 11.684 C-47.312 11.84 -47.312 11.84 -49.188 12 C-55.035 12.495 -55.035 12.495 -61 13 C-61.33 23.56 -61.66 34.12 -62 45 C-57.444 42.722 -55.949 40.522 -53.074 36.484 C-50.371 33.246 -47.258 30.663 -44 28 C-46.06 30.71 -48.124 33.418 -50.188 36.125 C-51.055 37.266 -51.055 37.266 -51.939 38.43 C-54.518 41.809 -57.102 45.153 -59.875 48.375 C-63.845 53.279 -63.104 58.976 -63 65 C-60.959 65.174 -58.917 65.338 -56.875 65.5 C-55.17 65.639 -55.17 65.639 -53.43 65.781 C-47.296 66.172 -41.142 66.039 -35 66 C-34.855 60.739 -34.713 55.478 -34.573 50.216 C-34.525 48.434 -34.477 46.652 -34.427 44.87 C-34.115 33.576 -33.929 22.298 -34 11 C-36.883 11 -39.671 11.194 -42.543 11.438 Z M-85.438 14.438 C-86.632 14.519 -87.827 14.6 -89.059 14.684 C-91.93 14.819 -91.93 14.819 -94 16 C-94.139 27.375 -93.736 38.649 -93 50 C-92.34 50 -91.68 50 -91 50 C-89.381 47.885 -87.868 45.764 -86.375 43.562 C-82.285 37.667 -77.942 32.218 -73 27 C-76.034 32.65 -79.607 37.588 -83.562 42.625 C-89.955 49.728 -89.955 49.728 -93.074 58.238 C-92.947 58.923 -92.819 59.607 -92.688 60.312 C-92.461 61.529 -92.234 62.746 -92 64 C-90.042 64.172 -88.084 64.337 -86.125 64.5 C-84.489 64.639 -84.489 64.639 -82.82 64.781 C-78.22 65.045 -73.607 65 -69 65 C-69 48.17 -69 31.34 -69 14 C-74.571 14 -79.912 14.044 -85.438 14.438 Z M-110.422 16.438 C-111.346 16.519 -112.27 16.6 -113.222 16.684 C-114.968 16.84 -114.968 16.84 -116.75 17 C-120.462 17.33 -124.175 17.66 -128 18 C-127.67 29.22 -127.34 40.44 -127 52 C-123.842 48.842 -120.897 45.796 -118 42.438 C-115.209 39.266 -112.447 36.478 -109 34 C-110.567 37.549 -112.716 40.272 -115.188 43.25 C-116.382 44.702 -116.382 44.702 -117.602 46.184 C-120.216 49.254 -122.947 52.187 -125.785 55.051 C-127.455 57.729 -127.082 59.9 -127 63 C-122.855 63.196 -118.709 63.38 -114.562 63.562 C-112.786 63.647 -112.786 63.647 -110.975 63.732 C-109.85 63.781 -108.725 63.829 -107.566 63.879 C-106.524 63.926 -105.482 63.973 -104.408 64.022 C-102.048 64.282 -102.048 64.282 -101 63 C-100.907 61.526 -100.883 60.048 -100.886 58.572 C-100.887 57.161 -100.887 57.161 -100.887 55.721 C-100.892 54.698 -100.897 53.675 -100.902 52.621 C-100.904 51.058 -100.904 51.058 -100.907 49.464 C-100.912 46.122 -100.925 42.78 -100.938 39.438 C-100.943 37.178 -100.947 34.918 -100.951 32.658 C-100.962 27.105 -100.979 21.553 -101 16 C-104.2 16 -107.242 16.155 -110.422 16.438 Z " fill="#000000" transform="translate(456,504)"/>
<path d="M0 0 C0.99 0.33 1.98 0.66 3 1 C2.859 2.625 2.712 4.25 2.562 5.875 C2.481 6.78 2.4 7.685 2.316 8.617 C2 11 2 11 1 13 C0.01 12.67 -0.98 12.34 -2 12 C-2.178 7.452 -1.998 4.121 0 0 Z " fill="#000000" transform="translate(578,510)"/>
<path d="M0 0 C4.661 0.528 8.52 1.411 12.805 3.309 C13.926 3.8 15.048 4.291 16.204 4.797 C17.428 5.344 18.651 5.89 19.875 6.438 C21.162 7.007 22.45 7.575 23.738 8.142 C25.83 9.065 27.922 9.989 30.012 10.916 C35.04 13.145 40.083 15.338 45.135 17.513 C48.877 19.124 52.615 20.744 56.353 22.364 C58.196 23.161 60.04 23.955 61.886 24.746 C64.493 25.865 67.095 26.995 69.695 28.129 C70.476 28.461 71.257 28.793 72.062 29.135 C79.679 32.483 79.679 32.483 82 36 C82.28 38.834 82.332 41.236 82.172 44.047 C82.144 44.818 82.116 45.589 82.087 46.384 C81.994 48.84 81.873 51.295 81.75 53.75 C81.682 55.418 81.615 57.086 81.551 58.754 C81.389 62.837 81.201 66.919 81 71 C73.568 70.074 73.568 70.074 70.164 68.496 C69.45 68.175 68.736 67.855 68 67.524 C67.216 67.166 66.432 66.807 65.625 66.438 C52.783 60.74 39.671 55.741 26.571 50.674 C21.71 48.792 16.852 46.903 12 45 C11.336 44.74 10.671 44.479 9.987 44.211 C8.26 43.529 6.538 42.835 4.816 42.141 C3.433 41.584 3.433 41.584 2.022 41.017 C0 40 0 40 -1 38 C-1.017 35.153 -0.973 32.336 -0.879 29.492 C-0.855 28.652 -0.832 27.811 -0.807 26.945 C-0.731 24.255 -0.647 21.565 -0.562 18.875 C-0.509 17.053 -0.457 15.232 -0.404 13.41 C-0.275 8.94 -0.139 4.47 0 0 Z M4 4 C2.649 5.124 2.649 5.124 2.886 8.051 C2.887 9.4 2.892 10.749 2.902 12.098 C2.904 12.807 2.905 13.515 2.907 14.246 C2.912 16.518 2.925 18.79 2.938 21.062 C2.943 22.6 2.947 24.137 2.951 25.674 C2.962 29.449 2.979 33.225 3 37 C4.746 37.843 6.497 38.674 8.25 39.5 C9.225 39.964 10.199 40.428 11.203 40.906 C14.12 42.243 14.12 42.243 18 42 C18 31.44 18 20.88 18 10 C13.38 8.02 8.76 6.04 4 4 Z M22 12 C22 15.96 22 19.92 22 24 C23.32 22.35 24.64 20.7 26 19 C25 22 25 22 23.449 24.633 C21.614 28.898 21.663 32.305 21.812 36.875 C21.874 39.556 21.936 42.237 22 45 C27.28 46.98 32.56 48.96 38 51 C38.708 40.296 39.141 29.726 39 19 C36.355 17.831 33.709 16.665 31.062 15.5 C30.308 15.166 29.553 14.832 28.775 14.488 C25.501 12.769 25.501 12.769 22 12 Z M43 21 C42.083 26.385 41.889 31.542 42 37 C42.639 36.361 43.279 35.721 43.938 35.062 C44.958 34.042 45.979 33.021 47 32 C46.639 32.606 46.278 33.212 45.906 33.836 C42.423 40.126 41.315 44.844 42 52 C43.561 52.794 45.124 53.585 46.688 54.375 C47.558 54.816 48.428 55.257 49.324 55.711 C54.441 58.239 54.441 58.239 60 59 C60.33 49.1 60.66 39.2 61 29 C50.179 23.236 50.179 23.236 43 21 Z M64 31 C64 38.59 64 46.18 64 54 C65.32 52.35 66.64 50.7 68 49 C67.7 49.603 67.399 50.207 67.09 50.828 C66.71 51.627 66.329 52.427 65.938 53.25 C65.555 54.039 65.172 54.828 64.777 55.641 C63.889 58.338 63.769 59.445 65 62 C66.927 63.391 66.927 63.391 69.312 64.312 C70.482 64.833 70.482 64.833 71.676 65.363 C74.273 66.279 74.273 66.279 78 65 C77.67 55.43 77.34 45.86 77 36 C68.416 30.776 68.416 30.776 64 31 Z " fill="#000000" transform="translate(506,520)"/>
<path d="M0 0 C0.66 0.33 1.32 0.66 2 1 C1.67 3.64 1.34 6.28 1 9 C0.01 9.33 -0.98 9.66 -2 10 C-2.195 3.945 -2.195 3.945 -2 2 C-1.34 1.34 -0.68 0.68 0 0 Z " fill="#000000" transform="translate(500,574)"/>
<path d="M0 0 C1.32 0 2.64 0 4 0 C3.125 5.75 3.125 5.75 2 8 C1.01 8 0.02 8 -1 8 C-1.125 2.25 -1.125 2.25 0 0 Z " fill="#000000" transform="translate(386,587)"/>
<path d="M0 0 C0.99 0.33 1.98 0.66 3 1 C1.02 5.62 -0.96 10.24 -3 15 C-3.66 14.67 -4.32 14.34 -5 14 C-4.534 8.293 -3.062 4.841 0 0 Z " fill="#000000" transform="translate(534,589)"/>
<path d="M0 0 C0.99 0.33 1.98 0.66 3 1 C2.67 2.65 2.34 4.3 2 6 C1.34 6 0.68 6 0 6 C-1.125 2.25 -1.125 2.25 0 0 Z " fill="#000000" transform="translate(542,592)"/>
<path d="M0 0 C2.125 0.938 2.125 0.938 4 2 C4.167 6.921 4.248 10.503 2 15 C0.35 14.67 -1.3 14.34 -3 14 C-3.999 9.004 -4.12 5.687 -2 1 C-1.34 0.67 -0.68 0.34 0 0 Z " fill="#000000" transform="translate(329,599)"/>
<path d="M0 0 C2.125 0.375 2.125 0.375 4 1 C3.67 2.98 3.34 4.96 3 7 C1.68 6.67 0.36 6.34 -1 6 C-1.625 4.125 -1.625 4.125 -2 2 C-1.34 1.34 -0.68 0.68 0 0 Z " fill="#000000" transform="translate(344,602)"/>
<path d="M0 0 C0.99 0 1.98 0 3 0 C4.244 2.488 4.133 4.227 4.125 7 C4.128 7.887 4.13 8.774 4.133 9.688 C4 12 4 12 3 14 C1.68 13.67 0.36 13.34 -1 13 C-1.027 11.583 -1.047 10.167 -1.062 8.75 C-1.074 7.961 -1.086 7.172 -1.098 6.359 C-1.004 4.093 -0.632 2.171 0 0 Z " fill="#000000" transform="translate(497,607)"/>
<path d="M0 0 C1.32 0 2.64 0 4 0 C3.493 3.719 2.884 6.735 1 10 C0.01 9.67 -0.98 9.34 -2 9 C-1.125 2.25 -1.125 2.25 0 0 Z " fill="#000000" transform="translate(570,614)"/>
<path d="M0 0 C2.062 0.438 2.062 0.438 4 1 C3.625 3.938 3.625 3.938 3 7 C2.01 7.495 2.01 7.495 1 8 C0.34 7.67 -0.32 7.34 -1 7 C-1.043 5 -1.041 3 -1 1 C-0.67 0.67 -0.34 0.34 0 0 Z " fill="#000000" transform="translate(556,615)"/>
<path d="M0 0 C1.485 0.99 1.485 0.99 3 2 C2.67 3.32 2.34 4.64 2 6 C1.01 5.67 0.02 5.34 -1 5 C-0.67 3.35 -0.34 1.7 0 0 Z " fill="#000000" transform="translate(581,618)"/>
<path d="M0 0 C0.71 0.002 1.421 0.004 2.153 0.006 C2.879 0.005 3.605 0.004 4.354 0.003 C5.893 0.003 7.432 0.004 8.971 0.009 C11.331 0.014 13.69 0.009 16.049 0.002 C17.542 0.003 19.035 0.004 20.528 0.006 C21.59 0.003 21.59 0.003 22.674 0 C27.677 0.024 27.677 0.024 29.907 1.139 C29.932 8.669 29.949 16.198 29.962 23.728 C29.967 26.292 29.973 28.856 29.982 31.419 C29.994 35.095 30 38.771 30.004 42.448 C30.009 43.602 30.015 44.756 30.02 45.945 C30.02 47.006 30.02 48.067 30.02 49.16 C30.022 50.1 30.025 51.039 30.027 52.007 C29.907 54.139 29.907 54.139 28.907 55.139 C26.554 55.24 24.232 55.279 21.879 55.272 C21.175 55.273 20.471 55.274 19.746 55.275 C18.253 55.275 16.761 55.273 15.269 55.269 C12.982 55.264 10.696 55.269 8.409 55.276 C6.961 55.275 5.514 55.274 4.067 55.272 C3.38 55.274 2.694 55.276 1.986 55.278 C-2.863 55.254 -2.863 55.254 -5.093 54.139 C-6.343 48.279 -6.239 42.398 -6.226 36.428 C-6.227 35.419 -6.228 34.411 -6.229 33.371 C-6.23 31.252 -6.228 29.132 -6.224 27.012 C-6.218 23.754 -6.224 20.495 -6.23 17.237 C-6.229 15.175 -6.228 13.114 -6.226 11.053 C-6.228 10.074 -6.23 9.095 -6.232 8.086 C-6.229 7.188 -6.226 6.29 -6.223 5.364 C-6.222 4.173 -6.222 4.173 -6.22 2.958 C-5.95 -0.916 -3.256 0.016 0 0 Z M-0.093 5.139 C0.026 11.529 0.149 17.92 0.279 24.31 C0.322 26.486 0.364 28.662 0.404 30.837 C0.461 33.958 0.525 37.078 0.59 40.198 C0.607 41.177 0.624 42.156 0.641 43.165 C0.661 44.066 0.681 44.966 0.701 45.895 C0.717 46.692 0.732 47.489 0.748 48.31 C0.711 50.157 0.711 50.157 1.907 51.139 C3.529 51.238 5.156 51.27 6.782 51.272 C7.766 51.273 8.751 51.274 9.766 51.276 C11.321 51.27 11.321 51.27 12.907 51.264 C13.943 51.268 14.979 51.272 16.047 51.276 C17.032 51.274 18.017 51.273 19.032 51.272 C19.942 51.271 20.852 51.27 21.789 51.268 C23.892 51.375 23.892 51.375 24.907 50.139 C25 48.727 25.024 47.31 25.02 45.895 C25.02 44.543 25.02 44.543 25.02 43.165 C25.015 42.186 25.01 41.206 25.004 40.198 C25.003 39.2 25.001 38.203 25 37.175 C24.994 33.976 24.982 30.776 24.969 27.576 C24.964 25.413 24.96 23.25 24.955 21.086 C24.945 15.77 24.926 10.455 24.907 5.139 C16.657 5.139 8.407 5.139 -0.093 5.139 Z " fill="#000000" transform="translate(330.09336853027344,621.8610534667969)"/>
<path d="M0 0 C3.396 -0.03 6.792 -0.047 10.188 -0.062 C11.128 -0.071 12.068 -0.079 13.037 -0.088 C20.399 -0.113 27.668 0.346 35 1 C35.076 8.226 35.129 15.453 35.165 22.68 C35.18 25.14 35.2 27.6 35.226 30.06 C35.263 33.589 35.28 37.119 35.293 40.648 C35.308 41.754 35.324 42.859 35.34 43.998 C35.34 45.019 35.34 46.039 35.341 47.091 C35.347 47.993 35.354 48.894 35.361 49.823 C35.242 50.542 35.123 51.26 35 52 C31.289 54.474 29.388 54.245 24.961 54.23 C24.279 54.23 23.598 54.23 22.896 54.229 C21.459 54.226 20.021 54.218 18.584 54.206 C16.376 54.188 14.169 54.185 11.961 54.186 C1.147 54.147 1.147 54.147 0 53 C-0.127 51.559 -0.188 50.113 -0.221 48.667 C-0.244 47.746 -0.268 46.824 -0.291 45.875 C-0.311 44.871 -0.331 43.867 -0.352 42.832 C-0.386 41.291 -0.386 41.291 -0.422 39.718 C-0.469 37.537 -0.515 35.355 -0.558 33.174 C-0.624 29.844 -0.702 26.515 -0.781 23.186 C-0.826 21.068 -0.87 18.95 -0.914 16.832 C-0.938 15.838 -0.962 14.844 -0.986 13.82 C-1.072 9.079 -1.015 4.664 0 0 Z M5 5 C5 19.52 5 34.04 5 49 C12.59 49 20.18 49 28 49 C27.988 47.164 27.977 45.329 27.965 43.438 C27.909 30.571 27.974 17.828 29 5 C21.08 5 13.16 5 5 5 Z " fill="#000000" transform="translate(430,624)"/>
<path d="M0 0 C5.924 0.658 10.566 1.25 16.125 2.826 C16.774 3.008 17.424 3.19 18.094 3.378 C20.208 3.973 22.319 4.578 24.43 5.184 C25.912 5.604 27.394 6.024 28.876 6.443 C31.965 7.318 35.053 8.199 38.14 9.083 C42.095 10.216 46.053 11.338 50.013 12.456 C53.066 13.319 56.118 14.188 59.17 15.058 C60.629 15.473 62.089 15.888 63.55 16.3 C65.585 16.877 67.619 17.46 69.652 18.045 C70.808 18.375 71.965 18.705 73.156 19.045 C76 20 76 20 79 22 C79.361 24.291 79.361 24.291 79.341 27.184 C79.34 28.265 79.34 29.346 79.34 30.46 C79.324 31.631 79.309 32.801 79.293 34.008 C79.289 35.204 79.284 36.399 79.28 37.631 C79.263 41.463 79.226 45.294 79.188 49.125 C79.172 51.717 79.159 54.31 79.146 56.902 C79.113 63.268 79.063 69.634 79 76 C71.055 78.79 62.969 80.934 54.824 83.047 C53.752 83.326 53.752 83.326 52.658 83.611 C48.887 84.592 45.115 85.57 41.343 86.544 C37.452 87.55 33.565 88.568 29.678 89.588 C26.678 90.373 23.676 91.15 20.673 91.925 C19.238 92.296 17.804 92.671 16.371 93.049 C14.373 93.575 12.372 94.089 10.37 94.601 C9.233 94.896 8.097 95.191 6.926 95.495 C4 96 4 96 0 95 C0 63.65 0 32.3 0 0 Z M4 4 C2.212 5.788 2.872 8.44 2.871 10.855 C2.867 12.111 2.864 13.368 2.861 14.663 C2.863 16.053 2.865 17.442 2.867 18.832 C2.867 20.262 2.866 21.693 2.864 23.123 C2.863 26.141 2.865 29.158 2.87 32.175 C2.875 35.982 2.872 39.788 2.866 43.595 C2.846 59.421 2.933 75.202 4 91 C10.066 90.324 10.066 90.324 16.027 89.062 C16.674 88.89 17.32 88.717 17.986 88.539 C18.63 88.361 19.274 88.183 19.938 88 C20.944 87.733 20.944 87.733 21.971 87.461 C25.257 86.759 25.257 86.759 28 85 C28.094 82.699 28.117 80.396 28.114 78.094 C28.114 77.372 28.114 76.65 28.114 75.906 C28.113 73.509 28.105 71.112 28.098 68.715 C28.096 67.057 28.094 65.4 28.093 63.742 C28.09 59.37 28.08 54.999 28.069 50.628 C28.058 46.17 28.054 41.713 28.049 37.256 C28.038 28.504 28.021 19.752 28 11 C22.553 8.922 17.221 7.142 11.562 5.75 C10.844 5.564 10.125 5.379 9.385 5.188 C7.601 4.743 5.801 4.365 4 4 Z M32 12 C32 35.76 32 59.52 32 84 C43.247 82.358 43.247 82.358 51 80 C51 59.21 51 38.42 51 17 C41.649 13.523 41.649 13.523 32 12 Z M55 19 C55 38.47 55 57.94 55 78 C60.023 77.372 64.191 76.831 68.938 75.5 C69.875 75.242 70.812 74.984 71.777 74.719 C73.949 74.203 73.949 74.203 75 73 C75.093 71.465 75.117 69.926 75.114 68.388 C75.113 66.917 75.113 66.917 75.113 65.416 C75.108 64.349 75.103 63.283 75.098 62.184 C75.096 61.097 75.095 60.011 75.093 58.892 C75.088 55.407 75.075 51.922 75.062 48.438 C75.057 46.081 75.053 43.725 75.049 41.369 C75.038 35.579 75.021 29.79 75 24 C72.607 23.157 70.211 22.326 67.812 21.5 C67.139 21.262 66.465 21.023 65.771 20.777 C61.865 19.443 59.219 19 55 19 Z " fill="#000000" transform="translate(506,628)"/>
<path d="M0 0 C0.99 0.33 1.98 0.66 3 1 C3.027 2.604 3.046 4.208 3.062 5.812 C3.074 6.706 3.086 7.599 3.098 8.52 C3 11 3 11 2 14 C1.01 13.67 0.02 13.34 -1 13 C-2.514 8.155 -1.366 4.741 0 0 Z " fill="#000000" transform="translate(403,640)"/>
<path d="M0 0 C0.66 0.33 1.32 0.66 2 1 C2.027 2.458 2.046 3.917 2.062 5.375 C2.074 6.187 2.086 6.999 2.098 7.836 C2 10 2 10 1 12 C-0.32 11.67 -1.64 11.34 -3 11 C-3.125 4.375 -3.125 4.375 -2 1 C-1.34 0.67 -0.68 0.34 0 0 Z " fill="#000000" transform="translate(392,648)"/>
<path d="M0 0 C3 0.125 3 0.125 4 1.125 C4.101 3.844 4.139 6.532 4.125 9.25 C4.129 9.998 4.133 10.745 4.137 11.516 C4.129 16.154 3.765 20.55 3 25.125 C0.69 25.125 -1.62 25.125 -4 25.125 C-4.029 21.146 -4.047 17.167 -4.062 13.188 C-4.071 12.051 -4.079 10.915 -4.088 9.744 C-4.091 8.665 -4.094 7.585 -4.098 6.473 C-4.103 5.472 -4.108 4.472 -4.114 3.442 C-3.941 -0.075 -3.585 0.149 0 0 Z " fill="#000000" transform="translate(380,679.875)"/>
<path d="M0 0 C0.99 0.33 1.98 0.66 3 1 C3.125 6.75 3.125 6.75 2 9 C1.01 8.67 0.02 8.34 -1 8 C-1.125 2.25 -1.125 2.25 0 0 Z " fill="#000000" transform="translate(344,691)"/>
<path d="M0 0 C0.66 0 1.32 0 2 0 C1.688 3.375 1.688 3.375 1 7 C0.01 7.66 -0.98 8.32 -2 9 C-2.688 7.312 -2.688 7.312 -3 5 C-1.688 2.25 -1.688 2.25 0 0 Z " fill="#000000" transform="translate(453,703)"/>
<path d="M0 0 C2.125 0.375 2.125 0.375 4 1 C3.67 2.65 3.34 4.3 3 6 C1.68 6 0.36 6 -1 6 C-1.625 4.125 -1.625 4.125 -2 2 C-1.34 1.34 -0.68 0.68 0 0 Z " fill="#000000" transform="translate(575,717)"/>
<path d="M0 0 C0.66 0.33 1.32 0.66 2 1 C2 3.31 2 5.62 2 8 C0.68 8.33 -0.64 8.66 -2 9 C-2.125 5.625 -2.125 5.625 -2 2 C-1.34 1.34 -0.68 0.68 0 0 Z " fill="#000000" transform="translate(349,720)"/>
<path d="M0 0 C3.536 0.536 3.536 0.536 5 2 C5.072 3.853 5.084 5.708 5.062 7.562 C5.053 8.574 5.044 9.586 5.035 10.629 C5.024 11.411 5.012 12.194 5 13 C2.625 13.625 2.625 13.625 0 14 C-2 12 -2 12 -2.266 9.688 C-2.26 8.801 -2.255 7.914 -2.25 7 C-2.255 6.113 -2.26 5.226 -2.266 4.312 C-2 2 -2 2 0 0 Z " fill="#000000" transform="translate(337,722)"/>
<path d="M0 0 C0.66 0.33 1.32 0.66 2 1 C2.027 2.625 2.046 4.25 2.062 5.875 C2.074 6.78 2.086 7.685 2.098 8.617 C2 11 2 11 1 13 C-0.32 12.67 -1.64 12.34 -3 12 C-3.081 10.563 -3.139 9.126 -3.188 7.688 C-3.222 6.887 -3.257 6.086 -3.293 5.262 C-2.938 2.521 -2.106 1.708 0 0 Z " fill="#000000" transform="translate(565,725)"/>
<path d="M0 0 C0.99 0 1.98 0 3 0 C4.158 4.054 3.837 6.218 2 10 C1.01 9.67 0.02 9.34 -1 9 C-1.098 2.848 -1.098 2.848 -1 1 C-0.67 0.67 -0.34 0.34 0 0 Z " fill="#000000" transform="translate(527,743)"/>
<path d="M0 0 C3.536 0.536 3.536 0.536 5 2 C5.473 8.389 5.473 8.389 3.5 10.938 C3.005 11.288 2.51 11.639 2 12 C0.68 11.34 -0.64 10.68 -2 10 C-2.195 3.945 -2.195 3.945 -2 2 C-1.34 1.34 -0.68 0.68 0 0 Z " fill="#000000" transform="translate(436,749)"/>
<path d="M0 0 C0.99 0.33 1.98 0.66 3 1 C4.231 7.4 4.231 7.4 3.062 10.438 C2.712 10.953 2.361 11.469 2 12 C-1.875 11.125 -1.875 11.125 -3 10 C-3.473 3.611 -3.473 3.611 -1.5 1.062 C-1.005 0.712 -0.51 0.361 0 0 Z " fill="#000000" transform="translate(447,757)"/>
<path d="M0 0 C1.65 0.33 3.3 0.66 5 1 C4.67 2.32 4.34 3.64 4 5 C2.68 5.33 1.36 5.66 0 6 C-1.125 2.25 -1.125 2.25 0 0 Z " fill="#000000" transform="translate(473,765)"/>
</svg>
