<?xml version="1.0" encoding="UTF-8"?>
<!-- Generator: visioncortex VTracer 0.6.0 -->
<svg version="1.1" xmlns="http://www.w3.org/2000/svg" width="847" height="847">
<path d="M0 0 C3.519 0.162 4.137 0.572 7.062 2.938 C11.129 8.113 10.812 13.152 10.125 19.562 C8.005 25.877 4.404 30.572 0.125 35.562 C1.176 35.153 2.226 34.743 3.309 34.32 C19.457 28.087 33.335 24.429 50.125 31.562 C57.981 36.121 63.697 42.73 66.125 51.562 C67.357 62.809 65.801 71.575 59.312 80.812 C54.481 86.821 49.442 91.03 42.125 93.562 C41.135 93.562 40.145 93.562 39.125 93.562 C46.146 118.665 52.412 140.033 73.211 157.094 C88.508 169.737 101.502 183.489 103.469 204.18 C103.849 218.659 99.385 231.906 89.445 242.582 C80.136 250.528 68.886 251.248 57.224 250.737 C50.394 250.168 44.965 247.979 40.438 242.812 C39.674 241.74 38.911 240.668 38.125 239.562 C35.755 241.933 34.923 244.126 33.562 247.188 C30.16 254.125 25.649 259.395 18.598 262.773 C16.125 263.562 16.125 263.562 12.125 263.562 C11.795 261.582 11.465 259.603 11.125 257.562 C10.251 257.87 10.251 257.87 9.359 258.184 C-5.173 262.959 -20.881 262.594 -35.055 256.66 C-36.875 255.562 -36.875 255.562 -38.875 252.562 C-38.5 250.375 -38.5 250.375 -37.875 248.562 C-37.064 248.779 -36.253 248.996 -35.418 249.219 C-17.792 253.651 -1.325 251.021 15.125 243.562 C16.194 243.082 17.262 242.601 18.363 242.105 C33.609 234.601 46.724 221.416 53.125 205.562 C58.231 189.552 52.573 175.728 45.578 161.292 C35.487 140.282 29.543 116.919 29.125 93.562 C28.389 93.468 27.653 93.374 26.895 93.277 C23.717 92.457 22.228 91.313 19.812 89.125 C18.766 88.199 18.766 88.199 17.699 87.254 C16.125 85.562 16.125 85.562 16.125 83.562 C15.465 83.562 14.805 83.562 14.125 83.562 C13.919 84.367 13.712 85.171 13.5 86 C9.572 96.176 3.118 102.368 -6.766 106.883 C-16.718 110.608 -26.397 111.081 -36.328 107.02 C-43.57 102.877 -47.682 96.43 -49.875 88.562 C-50.957 83.843 -50.958 79.378 -50.875 74.562 C-53.547 77.235 -54.744 81.032 -55.059 84.711 C-54.605 93.048 -49.702 98.959 -43.875 104.562 C-43.875 105.222 -43.875 105.882 -43.875 106.562 C-47.208 105.142 -49.111 103.446 -51.438 100.688 C-52.016 100.009 -52.595 99.331 -53.191 98.633 C-54.807 96.646 -56.355 94.623 -57.875 92.562 C-58.619 93.74 -58.619 93.74 -59.379 94.941 C-69.042 109.885 -69.042 109.885 -75.945 112.906 C-79.53 114.5 -82.08 115.789 -84.875 118.562 C-86.462 123.627 -85.937 129.107 -85.833 134.349 C-85.937 139.797 -87.433 145.678 -89.875 150.562 C-92.979 149.951 -95.039 148.925 -97.625 147.125 C-101.56 144.649 -105.112 142.484 -109.875 142.562 C-115.754 144.3 -120.747 147.252 -123.973 152.555 C-127.31 159.981 -127.377 166.874 -124.875 174.562 C-121.161 183.893 -113.453 188.051 -104.867 192.301 C-102.193 193.428 -99.956 193.943 -97.125 194.438 C-93.51 195.514 -92.824 196.645 -90.789 199.949 C-89.016 203.452 -87.423 207.034 -85.807 210.611 C-81.656 219.302 -74.333 228.366 -66.711 234.227 C-63.805 237.924 -63.712 241.981 -63.188 246.562 C-63.007 247.988 -63.007 247.988 -62.823 249.443 C-62.488 252.147 -62.177 254.854 -61.875 257.562 C-61.741 258.69 -61.607 259.818 -61.469 260.98 C-60.572 269.811 -60.786 278.698 -60.875 287.562 C-52.583 288.712 -44.29 289.72 -35.938 290.312 C-35.265 290.369 -34.593 290.426 -33.901 290.484 C-25.009 291.044 -17.557 288.225 -9.562 284.625 C-2.412 281.498 4.435 279.036 12.125 277.562 C11.465 276.902 10.805 276.243 10.125 275.562 C10.5 272.937 10.5 272.937 11.125 270.562 C21.401 266.648 31.713 267.693 41.647 272.012 C43.481 272.846 45.303 273.704 47.125 274.562 C48.201 275.03 49.278 275.498 50.387 275.98 C57.821 279.379 63.406 283.756 69.125 289.562 C69.777 290.216 70.43 290.87 71.102 291.543 C97.912 320.064 114.887 359.677 131.297 394.638 C134.34 401.081 137.655 407.34 141.125 413.562 C152.071 399.672 157.17 380.352 162.508 363.697 C162.838 362.667 162.838 362.667 163.176 361.616 C163.772 359.747 164.361 357.877 164.949 356.006 C166.173 352.422 167.592 349.023 169.125 345.562 C164.505 345.562 159.885 345.562 155.125 345.562 C155.125 344.902 155.125 344.243 155.125 343.562 C156.805 341.906 156.805 341.906 159 340.062 C161.115 338.273 163.165 336.522 165.125 334.562 C168.718 334.882 170.887 336.715 173.625 338.938 C174.378 339.543 175.131 340.149 175.906 340.773 C177.327 341.919 178.744 343.07 180.156 344.227 C182.193 345.609 183.749 346.035 186.125 346.562 C185.932 345.491 185.932 345.491 185.734 344.397 C182.504 326.372 179.716 308.339 177.33 290.179 C176.891 286.847 176.445 283.517 175.995 280.186 C175.558 276.941 175.129 273.695 174.699 270.449 C174.54 269.269 174.381 268.089 174.216 266.873 C173.458 261.047 172.944 255.438 173.125 249.562 C177.359 247.706 181.595 245.855 185.833 244.008 C187.274 243.379 188.716 242.749 190.157 242.117 C192.225 241.21 194.296 240.308 196.367 239.406 C197.336 238.98 197.336 238.98 198.324 238.545 C202.897 236.562 202.897 236.562 205.125 236.562 C205.829 239.621 206.51 242.685 207.188 245.75 C207.387 246.614 207.586 247.479 207.791 248.369 C208.754 252.779 209.42 256.132 208.125 260.562 C208.494 262.794 208.494 262.794 209.125 264.562 C213.841 265.487 216.798 265.792 221.125 263.562 C221.979 260.257 221.979 260.257 222.125 256.562 C221.214 255.702 221.214 255.702 220.285 254.824 C217.396 251.799 216.719 248.587 215.812 244.625 C215.631 243.922 215.45 243.219 215.264 242.494 C214.305 238.514 213.731 235.443 215.125 231.562 C217.4 230.096 217.4 230.096 220.426 228.914 C221.54 228.469 222.653 228.024 223.801 227.566 C225.001 227.111 226.201 226.656 227.438 226.188 C228.652 225.711 229.866 225.235 231.117 224.745 C259.883 213.562 259.883 213.562 265.125 213.562 C265.968 216.789 266.798 220.019 267.625 223.25 C267.863 224.162 268.102 225.074 268.348 226.014 C268.573 226.9 268.799 227.786 269.031 228.699 C269.241 229.511 269.45 230.323 269.666 231.159 C270.156 233.724 270.342 235.959 270.125 238.562 C269.465 239.222 268.805 239.882 268.125 240.562 C268.336 243.311 268.766 245.06 270.375 247.312 C272.68 248.959 274.298 249.361 277.125 249.562 C280.222 248.626 281.829 247.858 284.125 245.562 C284.542 242.605 284.542 242.605 284.125 239.562 C283.657 239.121 283.19 238.679 282.708 238.225 C280.553 235.962 280.208 233.932 279.484 230.906 C279.219 229.802 278.953 228.697 278.68 227.559 C278.414 226.405 278.149 225.251 277.875 224.062 C277.594 222.909 277.313 221.755 277.023 220.566 C274.994 211.956 274.994 211.956 276.125 208.562 C278.777 207.304 278.777 207.304 282.277 206.082 C282.893 205.864 283.508 205.647 284.142 205.422 C285.444 204.964 286.748 204.511 288.053 204.064 C290.055 203.378 292.05 202.676 294.045 201.971 C303.775 198.562 303.775 198.562 306.125 198.562 C309.855 209.069 313.058 219.698 316.071 230.429 C320.136 244.907 324.458 259.289 329 273.625 C329.277 274.503 329.553 275.38 329.838 276.284 C333.74 288.713 333.74 288.713 338.465 300.845 C339.125 302.562 339.125 302.562 339.125 304.562 C327.289 309.973 315.422 315.023 303.062 319.125 C302.059 319.459 301.055 319.793 300.021 320.137 C295.41 321.631 290.956 322.968 286.125 323.562 C285.919 324.862 285.712 326.161 285.5 327.5 C283.896 334.575 280.554 340.085 274.523 344.176 C270.006 346.874 265.486 347.944 260.375 349 C250.329 351.301 240.313 353.667 234.125 362.562 C229.933 369.411 226.635 376.702 223.312 384 C222.81 385.087 222.308 386.175 221.791 387.295 C221.317 388.331 220.844 389.366 220.355 390.434 C219.926 391.371 219.497 392.309 219.055 393.275 C217.999 395.46 217.999 395.46 218.125 397.562 C220.765 398.882 223.405 400.202 226.125 401.562 C224.579 416.221 221.994 430.123 218.03 444.313 C217.731 445.386 217.433 446.458 217.125 447.562 C216.859 448.51 216.859 448.51 216.589 449.477 C212.562 463.952 209.532 478.591 206.562 493.312 C200.119 525.207 192.657 557.659 171.711 583.59 C170.452 585.156 169.273 586.788 168.125 588.438 C165.344 591.393 163.016 592.414 159.125 593.562 C142.297 593.83 125.348 582.268 111.125 574.562 C111.177 575.593 111.177 575.593 111.23 576.645 C111.258 577.546 111.285 578.447 111.312 579.375 C111.347 580.268 111.382 581.162 111.418 582.082 C111.125 584.562 111.125 584.562 109.782 586.286 C107.471 588.066 105.013 589.386 102.438 590.75 C101.444 591.28 100.45 591.81 99.426 592.355 C98.667 592.754 97.907 593.152 97.125 593.562 C97.24 594.128 97.356 594.693 97.475 595.275 C106.191 638.375 106.191 638.375 106.141 655.82 C106.139 656.897 106.137 657.973 106.134 659.083 C106.131 659.901 106.128 660.719 106.125 661.562 C106.868 661.56 107.612 661.558 108.378 661.556 C115.452 661.536 122.525 661.52 129.599 661.511 C133.234 661.506 136.869 661.499 140.504 661.487 C144.025 661.476 147.546 661.47 151.067 661.468 C153.035 661.465 155.004 661.457 156.973 661.449 C165.736 661.449 174.392 661.879 183.125 662.562 C183.125 663.553 183.125 664.543 183.125 665.562 C139.798 665.586 96.471 665.603 53.143 665.614 C47.96 665.615 42.776 665.616 37.593 665.617 C36.046 665.618 36.046 665.618 34.467 665.618 C20.06 665.622 5.653 665.628 -8.754 665.636 C-33.596 665.65 -58.439 665.659 -83.281 665.66 C-84.248 665.66 -85.214 665.66 -86.21 665.66 C-149.104 665.662 -211.987 665.433 -274.875 664.562 C-274.875 663.572 -274.875 662.582 -274.875 661.562 C-256.725 661.562 -238.575 661.562 -219.875 661.562 C-218.225 652.982 -216.575 644.403 -214.875 635.562 C-212.273 626.422 -212.273 626.422 -210.875 622.562 C-211.487 622.703 -212.099 622.844 -212.73 622.989 C-220.328 624.568 -227.774 624.903 -235.51 624.878 C-237.57 624.875 -239.629 624.899 -241.689 624.924 C-250.195 624.965 -257.25 624.951 -263.75 618.875 C-268.527 611.429 -268.132 603.69 -268.025 595.101 C-267.999 592.975 -267.987 590.849 -267.977 588.722 C-267.951 583.42 -267.903 578.118 -267.854 572.816 C-267.7 555.824 -267.705 538.906 -268.777 521.941 C-268.859 520.633 -268.942 519.324 -269.026 517.975 C-269.652 508.965 -270.907 500.367 -272.875 491.562 C-273.227 489.232 -273.566 486.899 -273.875 484.562 C-271.565 483.572 -269.255 482.582 -266.875 481.562 C-266.983 480.147 -266.983 480.147 -267.094 478.703 C-267.187 477.419 -267.279 476.135 -267.375 474.812 C-267.468 473.56 -267.561 472.307 -267.656 471.016 C-267.989 465.535 -267.916 460.05 -267.875 454.562 C-272.567 456.57 -277.258 458.578 -281.95 460.587 C-283.538 461.267 -285.126 461.946 -286.714 462.626 C-289.029 463.616 -291.342 464.607 -293.656 465.598 C-294.803 466.088 -294.803 466.088 -295.973 466.588 C-299.826 468.239 -303.669 469.91 -307.496 471.621 C-308.229 471.947 -308.961 472.273 -309.716 472.609 C-311.1 473.227 -312.483 473.849 -313.863 474.477 C-316.724 475.752 -318.704 476.562 -321.875 476.562 C-328.732 451.191 -335.298 425.805 -340.625 400.062 C-340.837 399.046 -341.049 398.029 -341.267 396.981 C-341.868 394.083 -342.46 391.183 -343.047 388.281 C-343.305 387.022 -343.305 387.022 -343.569 385.737 C-344.699 380.034 -345.39 374.355 -345.875 368.562 C-315.65 352.562 -315.65 352.562 -312.875 352.562 C-310.253 359.376 -308.364 365.158 -309.027 372.504 C-309.055 374.643 -309.055 374.643 -307.59 376.277 C-304.73 378.421 -302.396 378.562 -298.875 378.562 C-295.749 376.603 -295.749 376.603 -293.875 373.562 C-293.631 370.949 -293.631 370.949 -294.875 368.562 C-295.509 367.995 -296.143 367.428 -296.797 366.844 C-299.444 363.938 -300.144 361.399 -301.188 357.625 C-301.708 355.817 -301.708 355.817 -302.238 353.973 C-302.877 350.552 -302.936 348.827 -301.875 345.562 C-300.111 344.133 -300.111 344.133 -297.786 342.991 C-296.484 342.336 -296.484 342.336 -295.156 341.667 C-294.211 341.215 -293.266 340.763 -292.293 340.297 C-291.327 339.818 -290.362 339.339 -289.367 338.846 C-286.273 337.318 -283.168 335.815 -280.062 334.312 C-277.98 333.285 -275.899 332.257 -273.818 331.227 C-271.831 330.249 -269.844 329.272 -267.855 328.297 C-266.917 327.836 -265.978 327.376 -265.011 326.902 C-264.134 326.478 -263.256 326.053 -262.352 325.616 C-261.583 325.243 -260.813 324.869 -260.02 324.484 C-257.98 323.608 -256.041 323.03 -253.875 322.562 C-246.023 335.055 -246.023 335.055 -247.648 343.527 C-248.106 345.775 -248.106 345.775 -246.312 348.188 C-242.585 350.29 -239.591 349.924 -235.5 349.062 C-234.964 348.897 -234.428 348.733 -233.875 348.562 C-232.492 343.404 -232.492 343.404 -233.969 338.484 C-235.026 337.027 -236.093 335.577 -237.168 334.133 C-240.367 329.317 -243.954 322.524 -243.836 316.61 C-242.314 313.367 -239.38 312.366 -236.285 310.891 C-235.625 310.563 -234.966 310.236 -234.286 309.899 C-232.891 309.21 -231.493 308.528 -230.092 307.852 C-227.943 306.815 -225.804 305.759 -223.666 304.699 C-222.31 304.033 -220.954 303.367 -219.598 302.703 C-218.955 302.388 -218.312 302.072 -217.65 301.747 C-213.111 299.562 -213.111 299.562 -210.875 299.562 C-206.153 308.882 -201.566 318.26 -197.062 327.688 C-187.174 352.552 -187.174 352.552 -172.875 374.562 C-172.735 373.976 -172.595 373.389 -172.451 372.784 C-166.294 347.29 -157.728 312.599 -134.875 296.562 C-131.227 294.598 -127.498 292.826 -123.75 291.062 C-122.768 290.589 -121.785 290.116 -120.773 289.629 C-103.792 281.562 -103.792 281.562 -98.875 281.562 C-98.813 280.779 -98.751 279.995 -98.688 279.188 C-97.875 276.563 -97.875 276.563 -95.75 275.25 C-92.123 274.383 -89.605 274.057 -85.875 274.562 C-83.87 275.846 -82.105 277.308 -80.273 278.828 C-75.582 282.221 -70.157 284.251 -64.875 286.562 C-65.205 280.623 -65.535 274.683 -65.875 268.562 C-68.185 269.223 -70.495 269.882 -72.875 270.562 C-81.332 271.74 -89.916 269.085 -98.047 267.008 C-101.952 266.057 -104.992 265.572 -108.875 266.562 C-111.79 268.501 -114.443 270.56 -117.144 272.774 C-125.622 279.717 -133.942 280.952 -144.82 280.418 C-158.05 278.813 -168.761 271.98 -177.875 262.562 C-178.459 261.976 -179.043 261.389 -179.645 260.785 C-190.766 248.819 -193.357 232.346 -193.082 216.613 C-192.239 194.417 -177.688 174.198 -163.25 158.5 C-155.167 149.58 -150.823 141.675 -148.91 129.782 C-146.103 112.35 -140.095 96.631 -130.875 81.562 C-131.886 82.058 -132.896 82.553 -133.938 83.062 C-141.833 85.994 -151.411 85.833 -159.312 83 C-165.299 80.166 -170.933 76.151 -173.875 70.062 C-175.793 63.348 -175.113 57.692 -171.875 51.562 C-170.52 49.766 -170.52 49.766 -168.875 48.562 C-165.001 48.936 -161.477 51.073 -157.996 52.723 C-155.79 53.747 -155.79 53.747 -152.875 53.562 C-152.545 52.572 -152.215 51.583 -151.875 50.562 C-152.7 50.501 -153.525 50.439 -154.375 50.375 C-160.036 49.061 -164.634 46.424 -167.875 41.562 C-169.087 33.182 -167.647 26.515 -162.875 19.562 C-158.164 13.605 -152.629 9.989 -145.375 7.812 C-137.486 7.024 -129.223 7.219 -122.676 12.254 C-120.384 15.192 -119.963 17.599 -119.312 21.25 C-118.763 24.669 -118.763 24.669 -117.875 27.562 C-116.885 27.892 -115.895 28.222 -114.875 28.562 C-115.092 27.442 -115.308 26.322 -115.531 25.168 C-115.813 23.695 -116.094 22.223 -116.375 20.75 C-116.518 20.012 -116.661 19.274 -116.809 18.514 C-117.384 15.485 -117.875 12.653 -117.875 9.562 C-115.214 8.27 -113.355 7.538 -110.375 7.688 C-106.53 9.033 -103.971 10.658 -101.895 14.266 C-98.416 22.824 -98.48 34.35 -101.375 43.062 C-102.118 44.795 -102.118 44.795 -102.875 46.562 C-103.66 46.528 -104.445 46.493 -105.254 46.457 C-113.255 46.251 -117.775 46.988 -124.562 51.25 C-129.289 55.976 -131.115 60.562 -131.25 67.25 C-131.194 71.14 -130.473 74.015 -128.875 77.562 C-125.77 76.848 -125.77 76.848 -124.312 74.438 C-120.126 69.5 -114.478 64.759 -107.938 63.688 C-104.811 62.935 -104.811 62.935 -103.992 60.805 C-103.524 59.259 -103.087 57.703 -102.676 56.141 C-100.551 49.299 -96.21 43.263 -90.875 38.562 C-90.278 37.998 -89.681 37.433 -89.066 36.852 C-84.667 32.787 -80.46 29.752 -74.875 27.562 C-74.134 27.263 -73.393 26.964 -72.629 26.656 C-57.527 21.567 -37.642 23.455 -23.121 29.758 C-20.473 30.707 -19.415 30.758 -16.875 29.562 C-11.399 23.402 -9.589 15.695 -7.832 7.883 C-6.333 2.682 -5.49 0.797 0 0 Z M-142.875 29.562 C-143.567 31.41 -143.567 31.41 -143.875 33.562 C-142.885 35.048 -142.885 35.048 -141.875 36.562 C-140.885 36.562 -139.895 36.562 -138.875 36.562 C-139.145 34.125 -139.145 34.125 -139.875 31.562 C-140.865 30.903 -141.855 30.243 -142.875 29.562 Z M-73.875 39.562 C-74.205 40.222 -74.535 40.882 -74.875 41.562 C-73.676 41.891 -73.676 41.891 -72.453 42.227 C-65.348 44.278 -58.953 46.799 -52.434 50.293 C-50.207 51.398 -48.301 52.089 -45.875 52.562 C-45.878 50.663 -45.878 50.663 -46.875 48.562 C-49.054 47.144 -51.041 46.03 -53.375 44.938 C-54.008 44.632 -54.641 44.326 -55.292 44.011 C-61.497 41.107 -66.99 39.562 -73.875 39.562 Z M25.125 39.562 C25.125 40.882 25.125 42.202 25.125 43.562 C27.045 45.337 27.045 45.337 29.125 46.562 C29.455 45.572 29.785 44.582 30.125 43.562 C28.813 42.208 27.479 40.875 26.125 39.562 C25.795 39.562 25.465 39.562 25.125 39.562 Z M9.125 44.562 C9.414 45.268 9.702 45.973 10 46.699 C12.928 54.152 15.325 61.762 17.125 69.562 C17.785 69.562 18.445 69.562 19.125 69.562 C19.648 60.154 17.121 52.488 12.125 44.562 C11.135 44.562 10.145 44.562 9.125 44.562 Z M-3.875 52.562 C-3.875 56.523 -3.875 60.483 -3.875 64.562 C-2.885 64.562 -1.895 64.562 -0.875 64.562 C-0.794 63.126 -0.736 61.688 -0.688 60.25 C-0.653 59.449 -0.618 58.649 -0.582 57.824 C-0.697 55.13 -0.697 55.13 -3.875 52.562 Z M-72.875 62.562 C-73.408 68.821 -71.693 73.014 -68.875 78.562 C-67.885 78.562 -66.895 78.562 -65.875 78.562 C-66.891 73.094 -67.946 67.799 -69.875 62.562 C-70.865 62.562 -71.855 62.562 -72.875 62.562 Z M-62.875 63.562 C-64.342 67.377 -63.308 69.853 -61.875 73.562 C-60.885 73.233 -59.895 72.903 -58.875 72.562 C-59.139 69.13 -59.139 69.13 -59.875 65.562 C-60.865 64.903 -61.855 64.243 -62.875 63.562 Z M-82.875 67.562 C-84.18 72.201 -83.794 75.891 -82.875 80.562 C-81.39 81.553 -81.39 81.553 -79.875 82.562 C-78.668 81.574 -78.668 81.574 -78.742 79.672 C-78.756 75.508 -78.827 71.623 -79.875 67.562 C-80.865 67.562 -81.855 67.562 -82.875 67.562 Z M-96.875 77.562 C-98.541 82.647 -99.122 86.903 -99.062 92.312 C-99.056 93.607 -99.05 94.901 -99.043 96.234 C-99.024 99.562 -99.024 99.562 -97.875 102.562 C-96.885 102.233 -95.895 101.903 -94.875 101.562 C-94.875 93.642 -94.875 85.722 -94.875 77.562 C-95.535 77.562 -96.195 77.562 -96.875 77.562 Z M-121.875 101.562 C-124.01 109.301 -124.08 116.563 -123.875 124.562 C-122.885 124.892 -121.895 125.222 -120.875 125.562 C-120.875 117.642 -120.875 109.722 -120.875 101.562 C-121.205 101.562 -121.535 101.562 -121.875 101.562 Z M-107.875 113.562 C-109.712 117.344 -110.033 119.508 -108.875 123.562 C-108.215 123.562 -107.555 123.562 -106.875 123.562 C-106.215 120.923 -105.555 118.282 -104.875 115.562 C-105.865 114.903 -106.855 114.243 -107.875 113.562 Z M82.125 194.562 C81.795 195.222 81.465 195.882 81.125 196.562 C83.105 199.533 83.105 199.533 85.125 202.562 C86.115 202.232 87.105 201.903 88.125 201.562 C86.957 197.748 86.957 197.748 84 195.25 C83.381 195.023 82.763 194.796 82.125 194.562 Z M-159.875 200.562 C-161.797 203.062 -163.301 205.834 -164.875 208.562 C-165.494 209.614 -166.113 210.666 -166.75 211.75 C-168.011 214.903 -167.906 216.376 -166.875 219.562 C-163.254 218.356 -162.75 216.985 -161.074 213.693 C-160.761 213.052 -160.448 212.411 -160.125 211.75 C-159.632 210.805 -159.632 210.805 -159.129 209.842 C-157.285 206.151 -157.285 206.151 -157.172 202.113 C-157.404 201.602 -157.636 201.09 -157.875 200.562 C-158.535 200.562 -159.195 200.562 -159.875 200.562 Z M68.125 200.562 C68.435 202.479 68.748 204.396 69.062 206.312 C69.237 207.38 69.411 208.447 69.59 209.547 C69.766 210.542 69.943 211.537 70.125 212.562 C70.25 213.331 70.375 214.099 70.504 214.891 C70.709 215.442 70.914 215.994 71.125 216.562 C72.115 216.892 73.105 217.222 74.125 217.562 C75.46 216.443 75.46 216.443 75.375 213.562 C75.336 208.93 73.758 204.848 72.125 200.562 C70.805 200.562 69.485 200.562 68.125 200.562 Z M-135.875 207.562 C-141.235 214.43 -142.187 221.092 -142 229.5 C-141.991 230.279 -141.982 231.058 -141.973 231.861 C-141.949 233.762 -141.913 235.662 -141.875 237.562 C-140.885 237.562 -139.895 237.562 -138.875 237.562 C-138.777 236.619 -138.679 235.675 -138.578 234.703 C-137.684 227.023 -136.391 220.219 -133.582 212.953 C-132.594 210.451 -132.594 210.451 -133.875 207.562 C-134.535 207.562 -135.195 207.562 -135.875 207.562 Z M-124.875 219.562 C-125.865 220.058 -125.865 220.058 -126.875 220.562 C-126.545 223.202 -126.215 225.842 -125.875 228.562 C-124.555 228.562 -123.235 228.562 -121.875 228.562 C-121.999 227.263 -122.123 225.964 -122.25 224.625 C-122.32 223.894 -122.389 223.163 -122.461 222.41 C-122.598 221.8 -122.734 221.191 -122.875 220.562 C-123.535 220.232 -124.195 219.903 -124.875 219.562 Z M313.125 264.562 C310.248 273.266 309.481 281.464 309.125 290.562 C310.445 290.562 311.765 290.562 313.125 290.562 C313.629 286.98 314.128 283.396 314.625 279.812 C314.768 278.797 314.911 277.781 315.059 276.734 C315.194 275.755 315.329 274.775 315.469 273.766 C315.594 272.865 315.72 271.964 315.85 271.036 C316.199 268.315 316.199 268.315 316.125 264.562 C315.135 264.562 314.145 264.562 313.125 264.562 Z M303.125 268.562 C300.829 270.858 300.802 271.571 300.5 274.688 C300.376 275.966 300.253 277.245 300.125 278.562 C301.115 278.892 302.105 279.223 303.125 279.562 C304.318 275.686 305.125 272.646 305.125 268.562 C304.465 268.562 303.805 268.562 303.125 268.562 Z M257.125 271.562 C253.055 276.225 251.915 281.241 250.625 287.188 C250.312 288.56 250.312 288.56 249.993 289.96 C248.55 296.368 247.262 302.805 246 309.25 C242.371 327.692 242.371 327.692 236.125 334.562 C235.63 335.656 235.135 336.749 234.625 337.875 C234.13 338.762 233.635 339.649 233.125 340.562 C230.531 341.23 230.531 341.23 228.125 341.562 C228.322 340.788 228.519 340.013 228.722 339.215 C230.73 330.983 231.985 322.866 232.812 314.438 C233.002 312.554 233.002 312.554 233.196 310.632 C235.632 294.328 235.632 294.328 233.125 278.562 C231.145 278.562 229.165 278.562 227.125 278.562 C224.19 283.618 223.338 288.12 222.625 293.812 C222.502 294.712 222.38 295.612 222.254 296.538 C221.552 301.808 220.956 307.083 220.41 312.371 C220.228 314.087 220.228 314.087 220.043 315.837 C219.812 318.058 219.594 320.28 219.391 322.503 C218.55 330.631 216.694 337.709 212.125 344.562 C210.805 344.562 209.485 344.562 208.125 344.562 C207.795 343.903 207.465 343.243 207.125 342.562 C202.157 343.103 198.152 344.248 193.562 346.188 C185.961 349.037 180.098 348.786 172.125 347.562 C168.767 355.489 165.707 363.432 163.25 371.688 C163.035 372.397 162.82 373.107 162.599 373.838 C161.53 377.535 161.032 380.731 161.125 384.562 C161.892 384.737 162.658 384.912 163.448 385.091 C169.462 386.469 175.465 387.88 181.457 389.352 C182.687 389.653 183.918 389.955 185.186 390.266 C187.707 390.885 190.228 391.508 192.748 392.133 C198.873 393.629 204.843 394.979 211.125 395.562 C211.457 394.767 211.789 393.971 212.131 393.151 C213.389 390.148 214.653 387.147 215.922 384.149 C216.466 382.86 217.007 381.571 217.545 380.28 C223.309 366.468 228.593 353.84 243.188 347.812 C248.055 346.075 252.86 344.946 257.938 344 C267.1 342.423 267.1 342.423 274.421 337.088 C278.699 330.683 280.108 323.754 281.75 316.312 C282.325 313.807 282.901 311.302 283.477 308.797 C283.749 307.586 284.022 306.374 284.303 305.126 C285.312 300.754 286.423 296.412 287.563 292.072 C288.447 288.126 288.986 284.284 287.125 280.562 C285.375 279.457 285.375 279.457 283.125 279.562 C278.792 283.146 277.174 286.275 275.625 291.625 C275.424 292.307 275.223 292.99 275.016 293.693 C272.881 301.094 271.051 308.581 269.238 316.066 C268.298 319.931 267.247 323.747 266.125 327.562 C265.403 327.562 264.681 327.562 263.938 327.562 C260.07 328.938 259.263 331.205 257.434 334.75 C255.808 337.001 254.768 337.03 252.125 337.562 C252.318 337.036 252.511 336.51 252.709 335.967 C254.8 330.023 256.106 324.141 257.168 317.938 C257.341 316.951 257.515 315.964 257.693 314.947 C258.055 312.873 258.414 310.799 258.769 308.725 C259.311 305.57 259.869 302.418 260.428 299.266 C260.78 297.24 261.131 295.214 261.48 293.188 C261.646 292.256 261.812 291.324 261.982 290.365 C262.941 284.684 263.456 279.326 263.125 273.562 C262.135 272.572 262.135 272.572 261.125 271.562 C259.805 271.562 258.485 271.562 257.125 271.562 Z M14.125 275.562 C14.125 276.223 14.125 276.882 14.125 277.562 C14.956 277.961 15.788 278.359 16.645 278.77 C17.731 279.299 18.818 279.829 19.938 280.375 C21.016 280.897 22.095 281.419 23.207 281.957 C25.691 283.324 27.305 284.436 29.125 286.562 C32.172 285.891 32.172 285.891 33.293 283.785 C33.629 283.072 33.966 282.359 34.312 281.625 C34.657 280.915 35.001 280.204 35.355 279.473 C36.25 277.597 36.25 277.597 36.125 275.562 C28.903 273.423 20.978 271.602 14.125 275.562 Z M40.125 277.562 C39.617 278.625 39.109 279.687 38.586 280.781 C31.365 295.686 31.365 295.686 26.125 301.562 C25.606 302.162 25.086 302.761 24.551 303.379 C13.136 315.698 -1.133 318.717 -17.289 319.789 C-43.933 320.475 -69.979 311.568 -89.422 293.238 C-91.963 290.467 -93.884 287.74 -95.875 284.562 C-101.184 285.144 -101.184 285.144 -105.875 287.562 C-104.604 291.616 -103.075 295.324 -101.188 299.125 C-94.636 313.191 -89.886 328.163 -87.875 343.562 C-87.773 344.329 -87.672 345.096 -87.567 345.886 C-82.297 387.661 -87.308 431.745 -100.875 471.562 C-101.193 472.508 -101.511 473.454 -101.839 474.429 C-110.728 500.641 -122.021 525.72 -135.82 549.719 C-136.283 550.528 -136.746 551.338 -137.222 552.172 C-138.082 553.666 -138.955 555.153 -139.842 556.631 C-142.513 561.248 -143.533 565.237 -143.875 570.562 C-144.088 572.896 -144.304 575.229 -144.523 577.562 C-144.64 578.855 -144.757 580.147 -144.878 581.479 C-145.893 592.655 -146.909 603.703 -149.422 614.664 C-149.887 617.639 -149.668 619.679 -148.875 622.562 C-143.703 624.014 -139.302 624.895 -133.875 624.562 C-131.808 622.496 -132.177 618.412 -131.875 615.562 C-131.788 614.765 -131.701 613.968 -131.612 613.147 C-130.754 604.967 -130.27 596.776 -129.875 588.562 C-129.545 588.562 -129.215 588.562 -128.875 588.562 C-128.875 600.773 -128.875 612.983 -128.875 625.562 C-125.905 625.892 -122.935 626.223 -119.875 626.562 C-118.318 625.006 -118.712 623.484 -118.67 621.318 C-118.65 620.417 -118.63 619.516 -118.609 618.588 C-118.593 617.609 -118.576 616.63 -118.559 615.621 C-118.538 614.624 -118.517 613.626 -118.496 612.599 C-118.43 609.399 -118.371 606.2 -118.312 603 C-118.269 600.837 -118.226 598.673 -118.182 596.51 C-118.074 591.194 -117.973 585.878 -117.875 580.562 C-117.215 580.892 -116.555 581.223 -115.875 581.562 C-115.545 596.413 -115.215 611.263 -114.875 626.562 C-111.59 627.658 -109.138 627.662 -105.688 627.625 C-104.057 627.611 -104.057 627.611 -102.395 627.598 C-101.563 627.586 -100.732 627.574 -99.875 627.562 C-97.824 613.268 -97.284 598.987 -96.875 584.562 C-96.545 584.562 -96.215 584.562 -95.875 584.562 C-94.727 593.594 -94.793 602.543 -94.875 611.625 C-94.902 614.616 -94.921 617.607 -94.938 620.598 C-94.949 621.911 -94.961 623.225 -94.973 624.578 C-95.219 627.446 -95.219 627.446 -93.875 628.562 C-91.522 628.635 -89.167 628.646 -86.812 628.625 C-84.877 628.611 -84.877 628.611 -82.902 628.598 C-81.903 628.586 -80.904 628.574 -79.875 628.562 C-78.851 618.686 -78.343 608.787 -77.812 598.875 C-77.721 597.191 -77.629 595.507 -77.537 593.822 C-77.314 589.736 -77.094 585.649 -76.875 581.562 C-76.215 581.233 -75.555 580.902 -74.875 580.562 C-74.875 596.402 -74.875 612.243 -74.875 628.562 C-70.255 628.562 -65.635 628.562 -60.875 628.562 C-60.545 612.723 -60.215 596.882 -59.875 580.562 C-59.215 580.562 -58.555 580.562 -57.875 580.562 C-57.887 581.404 -57.898 582.246 -57.91 583.113 C-57.977 592.335 -57.762 601.534 -57.438 610.75 C-57.398 611.932 -57.359 613.114 -57.319 614.331 C-57.277 615.453 -57.235 616.575 -57.191 617.73 C-57.155 618.734 -57.118 619.737 -57.08 620.77 C-56.904 623.952 -56.904 623.952 -55.875 628.562 C-49.275 628.562 -42.675 628.562 -35.875 628.562 C-34.594 626 -34.864 624.421 -35.037 621.562 C-35.097 620.521 -35.157 619.48 -35.219 618.408 C-35.29 617.281 -35.361 616.153 -35.434 614.992 C-35.502 613.841 -35.57 612.689 -35.64 611.503 C-35.859 607.814 -36.086 604.126 -36.312 600.438 C-36.462 597.941 -36.611 595.445 -36.76 592.949 C-37.126 586.82 -37.498 580.691 -37.875 574.562 C-37.215 574.562 -36.555 574.562 -35.875 574.562 C-35.83 575.138 -35.785 575.713 -35.739 576.305 C-34.39 593.423 -32.699 610.49 -30.875 627.562 C-28.562 627.422 -26.25 627.275 -23.938 627.125 C-22.65 627.044 -21.362 626.963 -20.035 626.879 C-17.015 626.913 -17.015 626.913 -15.875 625.562 C-15.357 614.064 -16.161 602.535 -16.875 591.062 C-16.972 589.449 -17.068 587.836 -17.164 586.223 C-17.396 582.336 -17.634 578.449 -17.875 574.562 C-17.215 574.562 -16.555 574.562 -15.875 574.562 C-15.8 575.526 -15.8 575.526 -15.723 576.508 C-14.8 588.301 -13.857 600.092 -12.812 611.875 C-12.733 612.792 -12.654 613.71 -12.573 614.655 C-12.496 615.507 -12.419 616.36 -12.34 617.238 C-12.241 618.351 -12.241 618.351 -12.14 619.486 C-11.874 621.572 -11.427 623.535 -10.875 625.562 C-9.02 625.276 -7.166 624.983 -5.312 624.688 C-4.28 624.525 -3.247 624.363 -2.184 624.195 C1.346 623.52 4.685 622.595 8.125 621.562 C8.357 607.923 8.089 594.557 6.562 580.996 C6.14 577.156 6.042 573.423 6.125 569.562 C7.833 574.245 8.854 578.902 9.625 583.812 C9.752 584.611 9.878 585.409 10.009 586.232 C11.705 597.604 12.377 609.096 13.125 620.562 C20.748 619.147 20.748 619.147 28.188 617 C28.921 616.751 29.654 616.502 30.41 616.246 C32.126 615.693 32.126 615.693 33.125 614.562 C33.141 611.918 33.073 609.326 32.938 606.688 C32.896 605.864 32.854 605.041 32.811 604.192 C32.124 593.162 30.301 582.27 28.566 571.365 C28.052 568.102 27.579 564.835 27.125 561.562 C30.053 567.615 31.407 573.669 32.688 580.25 C32.904 581.341 33.12 582.432 33.343 583.556 C35.246 593.511 36.369 603.462 37.125 613.562 C38.542 613.251 39.958 612.938 41.375 612.625 C42.164 612.451 42.953 612.277 43.766 612.098 C45.894 611.615 48.01 611.101 50.125 610.562 C50.211 611.145 50.298 611.728 50.387 612.328 C51.625 619.553 54.124 625.896 57.125 632.562 C58.115 632.562 59.105 632.562 60.125 632.562 C59.437 627.179 57.818 622.294 56.062 617.188 C55.781 616.356 55.499 615.525 55.209 614.668 C54.518 612.631 53.822 610.597 53.125 608.562 C53.785 608.562 54.445 608.562 55.125 608.562 C55.334 595.766 54.724 583.184 53.625 570.438 C53.48 568.689 53.335 566.94 53.191 565.191 C52.844 560.981 52.487 556.772 52.125 552.562 C52.785 552.562 53.445 552.562 54.125 552.562 C58.488 590.633 58.488 590.633 60.125 605.562 C63.683 604.953 66.808 603.984 70.125 602.562 C70.392 587.916 70.03 573.369 69.188 558.75 C69.144 557.974 69.1 557.199 69.055 556.399 C68.929 554.176 68.796 551.953 68.66 549.73 C68.582 548.444 68.503 547.158 68.422 545.833 C68.189 543.267 67.863 541.018 67.125 538.562 C68.115 538.562 69.105 538.562 70.125 538.562 C73.196 572.091 73.196 572.091 73.783 587.142 C73.959 591.361 74.321 595.404 75.125 599.562 C76.566 599.137 78.003 598.696 79.438 598.25 C80.238 598.006 81.039 597.763 81.863 597.512 C84.346 596.47 85.459 595.662 87.125 593.562 C87.57 591.299 87.57 591.299 87.488 588.758 C87.489 587.792 87.49 586.826 87.491 585.83 C87.473 584.793 87.456 583.756 87.438 582.688 C87.428 581.622 87.418 580.557 87.408 579.459 C87.2 566.388 86.579 553.217 83.125 540.562 C85.125 541.562 85.125 541.562 85.919 543.594 C87.932 551.024 88.99 558.348 89.75 566 C89.871 567.138 89.992 568.275 90.117 569.447 C90.89 576.811 91.54 584.182 92.125 591.562 C96.623 589.876 100.854 587.746 105.125 585.562 C105.416 565.779 104.747 546.345 103 526.625 C102.831 524.653 102.661 522.681 102.493 520.708 C95.56 427.493 95.56 427.493 66.125 339.562 C105.088 396.047 102.601 485.558 108.54 551.916 C108.642 553.023 108.744 554.131 108.848 555.272 C109.037 557.512 109.193 559.754 109.321 561.998 C109.419 563.615 109.419 563.615 109.519 565.265 C109.567 566.223 109.614 567.181 109.664 568.168 C109.947 570.936 109.947 570.936 113.055 573.203 C114.947 574.089 114.947 574.089 117 574.812 C117.707 575.115 118.413 575.417 119.142 575.729 C120.66 576.373 122.188 576.997 123.724 577.601 C126.182 578.585 128.584 579.657 130.992 580.758 C143.567 586.72 143.567 586.72 157.125 588.562 C168.339 583.88 173.977 572.043 179.188 561.688 C179.486 561.1 179.784 560.512 180.092 559.907 C191.435 537.524 197.367 514.778 202.698 490.376 C203.627 486.124 204.563 481.875 205.5 477.625 C205.781 476.347 205.781 476.347 206.067 475.043 C208.868 462.348 212.252 449.988 216.152 437.589 C219.483 426.838 222.125 415.879 222.125 404.562 C220.689 404.057 219.251 403.558 217.812 403.062 C217.012 402.784 216.211 402.506 215.387 402.219 C213.037 401.423 213.037 401.423 210.125 401.562 C209.62 403.978 209.121 406.395 208.625 408.812 C208.482 409.494 208.339 410.176 208.191 410.879 C207.512 414.209 207.125 417.146 207.125 420.562 C206.135 420.562 205.145 420.562 204.125 420.562 C204.785 413.632 205.445 406.702 206.125 399.562 C202.825 398.903 199.525 398.243 196.125 397.562 C195.455 400.02 194.789 402.478 194.125 404.938 C193.934 405.636 193.743 406.335 193.547 407.055 C192.496 410.756 192.496 410.756 192.125 414.562 C191.135 414.562 190.145 414.562 189.125 414.562 C189.45 413.008 189.45 413.008 189.781 411.422 C190.063 410.052 190.344 408.682 190.625 407.312 C190.768 406.631 190.911 405.949 191.059 405.246 C191.738 401.916 192.125 398.979 192.125 395.562 C188.825 395.233 185.525 394.903 182.125 394.562 C181.288 397.353 180.456 400.145 179.625 402.938 C179.387 403.732 179.148 404.526 178.902 405.344 C178.677 406.104 178.451 406.865 178.219 407.648 C178.009 408.35 177.8 409.052 177.584 409.775 C177.042 411.578 177.042 411.578 177.125 413.562 C176.465 413.562 175.805 413.562 175.125 413.562 C175.602 410.812 176.082 408.062 176.562 405.312 C176.765 404.147 176.765 404.147 176.971 402.957 C177.103 402.203 177.235 401.449 177.371 400.672 C177.492 399.981 177.612 399.289 177.736 398.577 C178.127 396.55 178.606 394.561 179.125 392.562 C177.71 392.224 176.293 391.892 174.875 391.562 C174.086 391.377 173.297 391.191 172.484 391 C169.869 390.441 169.869 390.441 166.125 390.562 C164.64 400.957 164.64 400.957 163.125 411.562 C162.465 411.232 161.805 410.903 161.125 410.562 C162.445 403.632 163.765 396.702 165.125 389.562 C163.145 389.233 161.165 388.903 159.125 388.562 C147.847 408.597 138.022 429.618 131.125 451.562 C130.867 452.355 130.608 453.147 130.342 453.963 C127.096 463.921 124.45 473.946 122.25 484.188 C122.035 485.171 121.819 486.154 121.597 487.167 C120.323 493.378 119.86 499.228 120.125 505.562 C119.465 505.562 118.805 505.562 118.125 505.562 C119.848 477.575 126.245 447.972 139.383 423.015 C140.387 419.697 139.744 418.608 138.125 415.562 C136.667 413.017 135.146 410.515 133.617 408.012 C128.375 399.258 123.895 390.219 119.509 381.013 C117.353 376.494 115.168 371.989 112.98 367.484 C112.556 366.61 112.132 365.736 111.694 364.836 C106.846 354.885 101.684 345.136 96.125 335.562 C95.679 334.791 95.234 334.019 94.774 333.224 C75.388 299.175 75.388 299.175 44.125 277.562 C42.805 277.562 41.485 277.562 40.125 277.562 Z M-94.875 279.562 C-94.545 280.553 -94.215 281.543 -93.875 282.562 C-91.565 281.902 -89.255 281.243 -86.875 280.562 C-86.875 279.902 -86.875 279.243 -86.875 278.562 C-91.016 278.353 -91.016 278.353 -94.875 279.562 Z M5.125 283.562 C5.668 284.576 6.21 285.589 6.77 286.633 C7.492 287.984 8.215 289.336 8.938 290.688 C9.294 291.353 9.65 292.018 10.018 292.703 C12.114 296.628 14.155 300.572 16.125 304.562 C19.455 303.13 21.524 301.38 23.938 298.688 C24.875 297.67 24.875 297.67 25.832 296.633 C27.316 294.682 27.316 294.682 27.066 292.531 C25.864 290.016 24.389 288.716 22.25 286.938 C21.551 286.347 20.853 285.757 20.133 285.148 C14.855 280.98 11.09 280.316 5.125 283.562 Z M-90.875 285.562 C-88.895 288.202 -86.915 290.842 -84.875 293.562 C-80.971 291.61 -78.837 289.689 -75.875 286.562 C-81.766 282.278 -84.678 281.431 -90.875 285.562 Z M-6 288.062 C-7.365 288.759 -7.365 288.759 -8.758 289.469 C-9.456 289.83 -10.155 290.191 -10.875 290.562 C-9.919 294.242 -8.911 297.905 -7.875 301.562 C-7.562 302.674 -7.249 303.785 -6.926 304.93 C-6.6 306.005 -6.274 307.08 -5.938 308.188 C-5.64 309.19 -5.342 310.193 -5.035 311.227 C-4.101 313.643 -4.101 313.643 -2.137 314.582 C1.217 314.553 3.437 313.19 6.375 311.625 C7.991 310.776 7.991 310.776 9.641 309.91 C10.46 309.465 11.28 309.021 12.125 308.562 C10.568 303.209 8.143 298.561 5.5 293.688 C4.87 292.512 4.87 292.512 4.227 291.312 C3.197 289.394 2.162 287.478 1.125 285.562 C-1.699 285.562 -3.498 286.779 -6 288.062 Z M-76.062 292.375 C-77.136 293.158 -77.136 293.158 -78.23 293.957 C-78.773 294.487 -79.316 295.017 -79.875 295.562 C-79.875 296.553 -79.875 297.543 -79.875 298.562 C-77.895 299.553 -75.915 300.543 -73.875 301.562 C-71.235 298.262 -68.595 294.962 -65.875 291.562 C-70.333 288.59 -72.036 289.361 -76.062 292.375 Z M-63.43 294.75 C-64.195 295.678 -64.961 296.606 -65.75 297.562 C-66.922 298.955 -66.922 298.955 -68.117 300.375 C-68.697 301.097 -69.277 301.819 -69.875 302.562 C-69.545 303.553 -69.215 304.543 -68.875 305.562 C-65.867 306.788 -65.867 306.788 -62.875 307.562 C-61.341 305.634 -59.823 303.696 -58.312 301.75 C-57.875 301.203 -57.437 300.656 -56.986 300.092 C-55.869 298.64 -54.864 297.104 -53.875 295.562 C-54.205 294.572 -54.535 293.582 -54.875 292.562 C-58.835 292.103 -60.338 292.102 -63.43 294.75 Z M-21.875 294.562 C-21.545 301.822 -21.215 309.082 -20.875 316.562 C-11.661 317.487 -11.661 317.487 -7.875 314.562 C-10.845 303.673 -10.845 303.673 -13.875 292.562 C-16.613 292.457 -16.613 292.457 -21.875 294.562 Z M-56.477 304.426 C-58.079 307.447 -58.079 307.447 -57.875 310.562 C-56.631 311.097 -55.379 311.615 -54.125 312.125 C-53.429 312.415 -52.733 312.705 -52.016 313.004 C-49.481 313.665 -48.307 313.494 -45.875 312.562 C-44.584 309.888 -43.571 307.417 -42.625 304.625 C-42.357 303.883 -42.089 303.141 -41.812 302.377 C-40.378 298.564 -40.378 298.564 -39.875 294.562 C-49.277 292.308 -52.364 296.759 -56.477 304.426 Z M-138.219 303.848 C-155.86 324.439 -166.369 354.077 -170.328 380.598 C-169.607 385.313 -167.297 389.114 -165 393.25 C-164.54 394.104 -164.08 394.958 -163.605 395.838 C-161.797 399.174 -159.981 402.403 -157.875 405.562 C-165.022 409.633 -172.225 413.326 -179.777 416.59 C-180.986 417.112 -182.195 417.635 -183.44 418.173 C-185.876 419.221 -188.319 420.245 -190.769 421.261 C-191.902 421.746 -193.035 422.231 -194.203 422.73 C-195.223 423.156 -196.243 423.582 -197.294 424.02 C-203.238 427.572 -205.33 435.829 -208 441.938 C-208.455 442.953 -208.91 443.969 -209.379 445.016 C-211.668 450.245 -213.473 454.849 -213.875 460.562 C-210.41 459.572 -210.41 459.572 -206.875 458.562 C-206.706 459.108 -206.536 459.654 -206.362 460.217 C-204.554 465.858 -202.326 471.143 -199.812 476.5 C-186.226 506.233 -179.449 534.288 -175.875 566.562 C-175.766 567.536 -175.657 568.51 -175.545 569.514 C-175.32 571.53 -175.097 573.546 -174.875 575.562 C-176.195 575.562 -177.515 575.562 -178.875 575.562 C-178.912 574.614 -178.95 573.665 -178.988 572.688 C-180.648 536.294 -189.612 504.576 -204.929 471.628 C-206.302 468.63 -207.592 465.6 -208.875 462.562 C-211.185 463.553 -213.495 464.543 -215.875 465.562 C-214.444 473.732 -212.234 481.616 -209.875 489.562 C-210.535 489.893 -211.195 490.222 -211.875 490.562 C-212.045 489.991 -212.215 489.42 -212.391 488.832 C-214.513 481.73 -216.688 474.645 -218.875 467.562 C-222.007 468.12 -224.787 468.817 -227.688 470.125 C-228.739 470.599 -229.791 471.074 -230.875 471.562 C-230.156 477.438 -228.088 482.471 -225.871 487.904 C-223.77 493.248 -223.77 493.248 -224.875 496.562 C-226.189 493.292 -227.501 490.021 -228.812 486.75 C-229.186 485.821 -229.559 484.892 -229.943 483.936 C-230.301 483.043 -230.659 482.15 -231.027 481.23 C-231.522 479.997 -231.522 479.997 -232.027 478.739 C-232.692 477.032 -233.296 475.301 -233.875 473.562 C-238.264 474.227 -241.856 475.75 -245.875 477.562 C-244.421 482.005 -242.935 486.424 -241.305 490.805 C-241.029 491.556 -240.753 492.307 -240.469 493.08 C-239.911 494.597 -239.345 496.111 -238.769 497.621 C-237.308 501.622 -236.813 503.315 -237.875 507.562 C-243.32 493.702 -243.32 493.702 -248.875 479.562 C-254.932 480.858 -254.932 480.858 -260.875 482.562 C-260.441 488.778 -258.243 493.954 -255.836 499.672 C-254.875 502.562 -254.875 502.562 -255.875 505.562 C-258.515 498.962 -261.155 492.362 -263.875 485.562 C-265.855 485.893 -267.835 486.222 -269.875 486.562 C-269.754 487.266 -269.633 487.97 -269.508 488.695 C-265.127 514.508 -263.704 540.115 -263.883 566.289 C-263.891 567.513 -263.898 568.738 -263.907 569.999 C-263.943 575.011 -263.986 580.023 -264.046 585.034 C-264.089 588.765 -264.112 592.496 -264.133 596.227 C-264.161 597.912 -264.161 597.912 -264.189 599.632 C-264.21 606.001 -263.709 610.815 -260.875 616.562 C-250.202 625.419 -230.762 621.623 -217.875 620.562 C-202.537 618.841 -183.642 615.623 -170.875 606.562 C-163.839 596.346 -160.141 583.27 -155.707 571.805 C-153.167 565.258 -150.486 558.779 -147.75 552.312 C-142.789 540.517 -138.199 528.606 -133.875 516.562 C-133.532 515.61 -133.19 514.657 -132.836 513.675 C-117.119 469.503 -109.831 425.336 -112.75 378.5 C-112.828 377.229 -112.907 375.957 -112.987 374.647 C-113.841 362.105 -115.591 349.916 -118.5 337.688 C-118.729 336.701 -118.959 335.715 -119.195 334.699 C-119.75 332.319 -120.31 329.94 -120.875 327.562 C-118.85 329.495 -117.454 331.194 -115.875 333.562 C-116.356 325.288 -117.864 317.529 -119.875 309.5 C-120.285 307.811 -120.285 307.811 -120.703 306.088 C-121.901 300.689 -121.901 300.689 -123.875 295.562 C-129.236 295.562 -134.573 300.293 -138.219 303.848 Z M-35.875 295.562 C-36.883 298.143 -37.882 300.726 -38.875 303.312 C-39.161 304.042 -39.447 304.772 -39.742 305.523 C-40.013 306.232 -40.284 306.941 -40.562 307.672 C-40.814 308.321 -41.065 308.971 -41.324 309.64 C-42.059 311.87 -42.059 311.87 -41.875 315.562 C-36.333 316.506 -31.653 316.562 -25.875 316.562 C-25.875 309.632 -25.875 302.702 -25.875 295.562 C-29.175 295.562 -32.475 295.562 -35.875 295.562 Z M319.125 299.562 C317.763 301.013 317.763 301.013 316.5 302.875 C315.831 303.797 315.831 303.797 315.148 304.738 C313.88 306.65 313.88 306.65 314.125 309.562 C316.004 309.515 316.004 309.515 318.125 308.562 C320.516 305.767 320.516 305.767 322.125 302.562 C321.795 301.572 321.465 300.582 321.125 299.562 C320.465 299.562 319.805 299.562 319.125 299.562 Z M-230.875 350.562 C-232.592 353.616 -233.077 355.764 -232.212 359.179 C-231.07 362.3 -229.842 365.37 -228.562 368.438 C-221.43 385.869 -221.43 385.869 -224.312 393.812 C-225.491 397.131 -225.875 398.922 -225.875 402.562 C-226.865 402.067 -226.865 402.067 -227.875 401.562 C-227.627 400.779 -227.38 399.995 -227.125 399.188 C-226.181 385.498 -240.455 366.747 -248.875 356.562 C-250.833 354.28 -250.833 354.28 -252.875 352.562 C-256.207 352.754 -256.207 352.754 -258.875 354.562 C-259.933 361.734 -256.554 366.697 -253.125 372.812 C-242.174 392.592 -242.174 392.592 -242.562 401.5 C-242.599 402.813 -242.599 402.813 -242.637 404.152 C-242.857 406.384 -243.261 408.41 -243.875 410.562 C-244.215 409.593 -244.556 408.624 -244.906 407.625 C-248.267 398.252 -252.2 389.387 -256.825 380.572 C-257.908 378.499 -258.967 376.415 -260.023 374.328 C-260.723 372.968 -261.423 371.609 -262.125 370.25 C-262.442 369.622 -262.759 368.993 -263.085 368.345 C-264.877 364.934 -266.442 362.428 -269.875 360.562 C-272.632 360.899 -272.632 360.899 -274.875 362.562 C-275.992 366.133 -275.972 368.279 -274.5 371.688 C-274.133 372.545 -273.765 373.402 -273.387 374.285 C-272.178 376.906 -270.95 379.516 -269.707 382.121 C-269.315 382.943 -268.923 383.764 -268.519 384.611 C-267.732 386.251 -266.938 387.888 -266.137 389.522 C-262.695 396.633 -259.382 403.571 -259.688 411.625 C-259.715 412.565 -259.742 413.504 -259.77 414.473 C-259.804 415.162 -259.839 415.852 -259.875 416.562 C-260.348 415.593 -260.821 414.624 -261.309 413.625 C-264.912 406.295 -268.615 399.027 -272.562 391.875 C-272.918 391.217 -273.274 390.559 -273.64 389.881 C-275.905 385.834 -278.324 382.633 -281.875 379.562 C-284.098 379.306 -284.098 379.306 -285.875 380.562 C-287.54 382.783 -287.936 383.996 -287.637 386.762 C-286.673 390.306 -285.073 393.392 -283.375 396.625 C-280.159 402.912 -277.104 409.256 -274.188 415.688 C-273.832 416.461 -273.476 417.235 -273.109 418.031 C-271.987 420.525 -270.926 423.038 -269.875 425.562 C-269.44 426.552 -269.005 427.542 -268.557 428.562 C-264.324 439.038 -263.692 449.259 -263.062 460.438 C-262.943 462.301 -262.821 464.164 -262.697 466.027 C-262.402 470.538 -262.131 475.049 -261.875 479.562 C-253.801 477.392 -246.096 474.393 -238.358 471.264 C-236.287 470.427 -234.213 469.598 -232.139 468.77 C-226.076 466.821 -226.076 466.821 -220.875 463.562 C-220.773 460.098 -220.676 456.638 -220.709 453.172 C-220.553 447.741 -219.245 445.228 -215.504 441.35 C-212.658 438.227 -210.771 434.563 -208.75 430.875 C-208.334 430.149 -207.917 429.422 -207.488 428.674 C-201.657 418.154 -199.254 407.653 -198.125 395.75 C-198 394.575 -197.875 393.4 -197.746 392.189 C-196.036 380.825 -196.036 380.825 -199.875 370.562 C-202.327 370.669 -202.327 370.669 -204.875 371.562 C-206.475 373.771 -206.475 373.771 -206.875 376.562 C-206.586 377.284 -206.298 378.006 -206 378.75 C-203.659 384.603 -204.599 391.503 -205.875 397.562 C-206.535 397.562 -207.195 397.562 -207.875 397.562 C-207.961 396.714 -208.048 395.866 -208.137 394.992 C-209.876 380.473 -215.157 361.281 -225.875 350.562 C-228.459 350.396 -228.459 350.396 -230.875 350.562 Z M-303.875 384.562 C-305.641 389.272 -306.361 393.593 -306.875 398.562 C-305.885 398.562 -304.895 398.562 -303.875 398.562 C-301.476 393.914 -301.675 389.652 -301.875 384.562 C-302.535 384.562 -303.195 384.562 -303.875 384.562 Z M-314.875 389.562 C-316.229 392.271 -315.94 394.572 -315.875 397.562 C-314.885 397.892 -313.895 398.223 -312.875 398.562 C-312.545 395.592 -312.215 392.622 -311.875 389.562 C-312.865 389.562 -313.855 389.562 -314.875 389.562 Z M-143.875 625.562 C-146.142 630.537 -147.773 635.381 -149.062 640.688 C-149.24 641.377 -149.417 642.067 -149.6 642.777 C-150.507 646.442 -151.088 649.785 -150.875 653.562 C-149.885 653.562 -148.895 653.562 -147.875 653.562 C-146.867 649.648 -145.87 645.73 -144.875 641.812 C-144.446 640.146 -144.446 640.146 -144.008 638.445 C-143.737 637.375 -143.466 636.305 -143.188 635.203 C-142.936 634.219 -142.685 633.234 -142.426 632.22 C-141.74 629.362 -141.74 629.362 -141.875 625.562 C-142.535 625.562 -143.195 625.562 -143.875 625.562 Z M-3.875 625.562 C-2.714 634.249 0.51 641.673 4.125 649.562 C5.115 649.562 6.105 649.562 7.125 649.562 C5.523 643.792 3.68 638.126 1.625 632.5 C1.223 631.395 0.821 630.291 0.406 629.152 C-0.017 628.298 -0.439 627.443 -0.875 626.562 C-1.865 626.232 -2.855 625.903 -3.875 625.562 Z M-72.875 631.562 C-72.737 635.188 -72.588 638.813 -72.438 642.438 C-72.398 643.47 -72.359 644.503 -72.318 645.566 C-72.276 646.553 -72.235 647.539 -72.191 648.555 C-72.155 649.466 -72.118 650.377 -72.08 651.316 C-72.009 653.597 -72.009 653.597 -70.875 655.562 C-69.885 655.562 -68.895 655.562 -67.875 655.562 C-68.017 652.875 -68.164 650.187 -68.312 647.5 C-68.352 646.748 -68.391 645.996 -68.432 645.221 C-68.691 640.616 -69.155 636.119 -69.875 631.562 C-70.865 631.562 -71.855 631.562 -72.875 631.562 Z " fill="#000000" transform="translate(438.875,128.4375)"/>
<path d="M0 0 C1.207 0.031 1.207 0.031 2.438 0.062 C3.062 2.438 3.062 2.438 3.438 5.062 C2.778 5.722 2.117 6.382 1.438 7.062 C-0.688 6.688 -0.688 6.688 -2.562 6.062 C-2.945 4.406 -3.276 2.738 -3.562 1.062 C-2.562 0.062 -2.562 0.062 0 0 Z " fill="#000000" transform="translate(549.5625,160.9375)"/>
<path d="M0 0 C0.99 0.66 1.98 1.32 3 2 C2.529 2.788 2.059 3.575 1.574 4.387 C-2.842 12.113 -5.476 19.135 -7 28 C-7.99 28 -8.98 28 -10 28 C-10.59 17.374 -7.404 9.417 -1 1 C-0.67 0.67 -0.34 0.34 0 0 Z " fill="#000000" transform="translate(222,166)"/>
<path d="M0 0 C0.66 0 1.32 0 2 0 C1.34 2.97 0.68 5.94 0 9 C5.445 8.505 5.445 8.505 11 8 C11 9.32 11 10.64 11 12 C9.679 12.207 9.679 12.207 8.332 12.418 C4.515 13.253 1.443 14.13 -2 16 C-4.015 19.328 -5.052 22.356 -6.07 26.102 C-7 29 -7 29 -10 31 C-12.18 25.133 -9.142 18.572 -7 13 C-4.944 8.515 -2.511 4.246 0 0 Z " fill="#000000" transform="translate(668,181)"/>
<path d="M0 0 C0.495 6.435 0.495 6.435 1 13 C2.949 12.722 2.949 12.722 4.938 12.438 C7.152 12.121 7.152 12.121 9 12 C10 13 10 13 10.114 15.133 C10.108 16.049 10.103 16.966 10.098 17.91 C10.094 18.9 10.091 19.889 10.088 20.908 C10.075 22.47 10.075 22.47 10.062 24.062 C10.058 25.107 10.053 26.152 10.049 27.229 C10.037 29.819 10.021 32.41 10 35 C10.661 34.995 11.322 34.99 12.004 34.984 C14.982 34.963 17.96 34.95 20.938 34.938 C22.499 34.925 22.499 34.925 24.092 34.912 C25.081 34.909 26.071 34.906 27.09 34.902 C28.006 34.897 28.923 34.892 29.867 34.886 C32 35 32 35 33 36 C33.474 41.92 32.772 47.685 31.75 53.504 C31.616 54.293 31.483 55.082 31.345 55.895 C30.907 58.453 30.455 61.008 30 63.562 C29.846 64.439 29.692 65.315 29.534 66.217 C27.353 78.564 24.829 90.783 21.75 102.938 C21.584 103.594 21.418 104.251 21.247 104.928 C19.428 112.056 17.371 119.038 15 126 C8.949 126.049 2.899 126.086 -3.152 126.11 C-5.21 126.12 -7.268 126.134 -9.327 126.151 C-12.286 126.175 -15.244 126.186 -18.203 126.195 C-19.123 126.206 -20.043 126.216 -20.991 126.227 C-21.851 126.227 -22.712 126.227 -23.599 126.227 C-24.354 126.231 -25.109 126.236 -25.887 126.241 C-28.288 125.967 -29.914 125.192 -32 124 C-31.421 114.929 -29.291 106.396 -27.062 97.625 C-23.914 85.171 -21.278 72.871 -20.062 60.062 C-19.292 52.627 -18.407 45.113 -16 38 C-9.806 34.903 -0.791 35.889 6 36 C5.988 35.047 5.977 34.095 5.965 33.113 C5.956 31.859 5.947 30.605 5.938 29.312 C5.926 28.071 5.914 26.83 5.902 25.551 C5.985 22.538 6.292 19.917 7 17 C-3.135 19.996 -13.05 23.441 -23 27 C-23.33 34.59 -23.66 42.18 -24 50 C-24.66 49.67 -25.32 49.34 -26 49 C-26.33 41.08 -26.66 33.16 -27 25 C-15.75 19.375 -15.75 19.375 -9.875 17.188 C-8.759 16.769 -7.642 16.35 -6.492 15.918 C-5.67 15.615 -4.847 15.312 -4 15 C-3.67 12.03 -3.34 9.06 -3 6 C-4.097 6.484 -4.097 6.484 -5.216 6.978 C-8.539 8.445 -11.863 9.91 -15.188 11.375 C-16.338 11.883 -17.488 12.391 -18.674 12.914 C-19.786 13.404 -20.897 13.894 -22.043 14.398 C-23.064 14.849 -24.085 15.299 -25.137 15.763 C-27.739 16.887 -30.368 17.947 -33 19 C-32.67 36.82 -32.34 54.64 -32 73 C-33.485 73.495 -33.485 73.495 -35 74 C-35.752 67.735 -36.248 61.516 -36.535 55.215 C-36.578 54.314 -36.621 53.414 -36.665 52.486 C-36.755 50.596 -36.843 48.706 -36.93 46.816 C-37.062 43.942 -37.2 41.068 -37.338 38.193 C-37.425 36.346 -37.511 34.499 -37.598 32.652 C-37.638 31.803 -37.679 30.954 -37.721 30.079 C-37.949 25.047 -38.037 20.038 -38 15 C-29.869 10.837 -21.703 6.757 -13.375 3 C-12.725 2.698 -12.076 2.395 -11.406 2.084 C-7.102 0.178 -4.973 0 0 0 Z M2.5 38.875 C1.348 38.954 0.195 39.032 -0.992 39.113 C-2.651 39.239 -2.651 39.239 -4.344 39.367 C-5.336 39.441 -6.328 39.514 -7.35 39.589 C-10.04 40.006 -11.784 40.416 -14 42 C-14.792 43.899 -14.792 43.899 -14.977 46.156 C-15.09 47.016 -15.203 47.876 -15.32 48.762 C-15.421 49.665 -15.521 50.569 -15.625 51.5 C-15.733 52.342 -15.842 53.184 -15.953 54.051 C-16.499 58.386 -16.98 62.723 -17.368 67.075 C-18.416 78.304 -20.702 88.871 -23.625 99.75 C-24.259 102.134 -24.889 104.518 -25.511 106.906 C-25.892 108.37 -26.282 109.833 -26.679 111.293 C-27.728 115.29 -28.195 118.871 -28 123 C-14.974 123.17 -2.009 122.643 11 122 C16.486 103.051 21.257 84.164 24.438 64.688 C24.563 63.923 24.688 63.159 24.817 62.372 C26.133 54.269 27.297 46.183 28 38 C19.456 37.878 11.018 38.219 2.5 38.875 Z " fill="#000000" transform="translate(590,185)"/>
<path d="M0 0 C5.212 4.264 5.846 8.786 6.738 15.293 C7 18 7 18 7 21 C7.543 20.301 8.085 19.603 8.645 18.883 C9.718 17.518 9.718 17.518 10.812 16.125 C11.52 15.22 12.228 14.315 12.957 13.383 C15.12 10.861 16.76 9.196 20.121 8.664 C26.315 8.56 26.315 8.56 29.625 10.688 C31 13 31 13 30.785 15.434 C29.041 21.134 23.519 24.241 18.496 26.969 C13.756 29.423 9.2 31.7 4 33 C3.34 35.97 2.68 38.94 2 42 C6.022 40.528 9.507 38.554 13.188 36.375 C18.903 33.258 23.525 31.653 30 33 C32.23 33.84 32.23 33.84 34 35 C34.75 38.125 34.75 38.125 35 41 C24.991 49.789 11.735 50.706 -1 50 C-1.182 50.701 -1.364 51.403 -1.551 52.125 C-3.08 57.897 -4.801 63.449 -7 69 C-6.383 68.602 -5.765 68.203 -5.129 67.793 C2.364 63.105 12.18 57.433 21.363 59.543 C27.458 61.458 27.458 61.458 30 64 C30.438 66.375 30.438 66.375 30 69 C25.839 74.053 19.182 75.071 13 76 C5.63 76.513 -1.732 76.395 -9 75 C-9.292 75.626 -9.585 76.251 -9.886 76.896 C-11.211 79.724 -12.543 82.55 -13.875 85.375 C-14.335 86.36 -14.795 87.345 -15.27 88.359 C-15.714 89.3 -16.159 90.241 -16.617 91.211 C-17.026 92.08 -17.434 92.95 -17.855 93.845 C-19 96 -19 96 -21 98 C-23.125 97.625 -23.125 97.625 -25 97 C-23.195 91.025 -20.488 85.597 -17.746 80.014 C-17.394 79.283 -17.042 78.553 -16.68 77.801 C-16.357 77.142 -16.035 76.484 -15.703 75.806 C-14.819 73.857 -14.819 73.857 -15 71 C-16.6 69.334 -16.6 69.334 -18.688 67.75 C-23.765 63.456 -27.828 59.5 -29 52.75 C-29 49 -29 49 -27.938 47 C-24.928 45.447 -23.35 45.343 -20 46 C-15.02 49.969 -12.872 55.073 -11 61 C-10.104 59.114 -9.234 57.216 -8.375 55.312 C-7.888 54.257 -7.4 53.201 -6.898 52.113 C-5.749 49.094 -5.749 49.094 -6.633 46.387 C-8.072 43.874 -9.65 41.727 -11.5 39.5 C-14.665 35.692 -16.667 32.329 -17.375 27.375 C-17 25 -17 25 -15.375 23.062 C-13 22 -13 22 -10.062 22.188 C-5.424 24.933 -4.024 29.146 -2 34 C-0.666 32.342 -0.666 32.342 0 30 C-1.207 27.173 -1.207 27.173 -3.188 24.312 C-7.116 17.943 -10.116 12.66 -9.875 5.062 C-8.368 -0.211 -5.011 -0.802 0 0 Z " fill="#000000" transform="translate(737,214)"/>
<path d="M0 0 C2.475 0.99 2.475 0.99 5 2 C4.67 3.65 4.34 5.3 4 7 C2.125 7.625 2.125 7.625 0 8 C-0.66 7.34 -1.32 6.68 -2 6 C-1.444 1.444 -1.444 1.444 0 0 Z " fill="#000000" transform="translate(682,224)"/>
<path d="M0 0 C-0.586 6.152 -0.586 6.152 -1 8 C-4.109 9.554 -7.455 9.383 -10.875 9.562 C-11.634 9.605 -12.392 9.647 -13.174 9.691 C-19.452 10.02 -25.714 10.109 -32 10 C-32.042 7.667 -32.041 5.333 -32 3 C-30.366 1.366 -28.407 1.66 -26.152 1.465 C-25.154 1.378 -24.156 1.291 -23.127 1.201 C-22.074 1.114 -21.022 1.027 -19.938 0.938 C-18.912 0.847 -17.887 0.756 -16.83 0.662 C-11.197 0.183 -5.653 -0.102 0 0 Z M-30 3 C-30.33 4.65 -30.66 6.3 -31 8 C-27.571 9.094 -24.71 8.97 -21.141 8.66 C-19.468 8.52 -19.468 8.52 -17.762 8.377 C-16.023 8.221 -16.023 8.221 -14.25 8.062 C-13.076 7.963 -11.901 7.863 -10.691 7.76 C-7.794 7.512 -4.897 7.259 -2 7 C-2 5.35 -2 3.7 -2 2 C-11.396 1.893 -20.641 2.007 -30 3 Z " fill="#000000" transform="translate(611,229)"/>
<path d="M0 0 C1.32 0.66 2.64 1.32 4 2 C3.593 4.36 3.102 5.859 1.688 7.812 C0 9 0 9 -2.188 8.688 C-2.786 8.461 -3.384 8.234 -4 8 C-4 4 -4 4 -2 1.75 C-1.01 0.884 -1.01 0.884 0 0 Z " fill="#000000" transform="translate(534,234)"/>
<path d="M0 0 C3.617 2.098 4.683 3.049 6 7 C5.875 9.062 5.875 9.062 5 11 C1.194 12.907 -2.345 13.418 -6.562 13.75 C-8.235 13.897 -8.235 13.897 -9.941 14.047 C-13.007 14 -14.511 13.74 -17 12 C-18 9.688 -18 9.688 -18 7 C-13.266 -0.27 -8.181 -0.993 0 0 Z " fill="#000000" transform="translate(461,237)"/>
<path d="M0 0 C2.473 2.109 3.877 3.802 5.125 6.812 C4.302 9.239 3.712 10.482 1.453 11.754 C-17.32 17.365 -17.32 17.365 -25.875 16.812 C-28.25 15.312 -28.25 15.312 -29.875 13.812 C-29.758 7.833 -29.758 7.833 -27.602 5.34 C-20.172 -0.363 -8.928 -3.688 0 0 Z " fill="#000000" transform="translate(403.875,244.1875)"/>
<path d="M0 0 C1.675 0.286 3.344 0.618 5 1 C4.389 7.932 2.038 14.19 -0.188 20.75 C-4.803 34.661 -8.117 48.624 -11 63 C-11.99 63 -12.98 63 -14 63 C-13.554 46.83 -11.538 11.538 0 0 Z " fill="#000000" transform="translate(204,246)"/>
<path d="M0 0 C-0.33 1.65 -0.66 3.3 -1 5 C-5.228 5.673 -9.458 6.337 -13.688 7 C-14.886 7.191 -16.084 7.382 -17.318 7.578 C-18.475 7.759 -19.632 7.939 -20.824 8.125 C-22.419 8.376 -22.419 8.376 -24.046 8.633 C-26.738 8.967 -29.292 9.07 -32 9 C-32 8.01 -32 7.02 -32 6 C-26.361 3.885 -20.777 2.441 -14.875 1.312 C-14.207 1.181 -13.538 1.05 -12.85 0.915 C-8.517 0.119 -4.399 -0.12 0 0 Z " fill="#000000" transform="translate(607,252)"/>
<path d="M0 0 C-0.33 0.99 -0.66 1.98 -1 3 C-2.64 2.907 -2.64 2.907 -4.312 2.812 C-7.921 2.644 -7.921 2.644 -9.938 4.5 C-10.288 4.995 -10.639 5.49 -11 6 C-11.99 5.67 -12.98 5.34 -14 5 C-12.99 2.336 -11.996 0.996 -9.812 -0.875 C-5.965 -2.414 -3.791 -1.412 0 0 Z " fill="#000000" transform="translate(464,263)"/>
<path d="M0 0 C2.487 1.524 4.693 3.2 7 5 C7.866 4.34 8.732 3.68 9.625 3 C15.324 -0.239 21.672 0.201 28 1 C35.299 3.148 39.513 9.727 43.043 16.108 C46.419 22.78 48.707 29.901 51 37 C51.282 37.86 51.564 38.72 51.854 39.606 C56.715 54.654 60.106 69.986 63.336 85.447 C63.499 86.225 63.661 87.003 63.829 87.804 C64.133 89.262 64.434 90.72 64.732 92.179 C65.634 96.525 66.735 100.75 68 105 C66.25 107.062 66.25 107.062 64 109 C61.812 108.938 61.812 108.938 60 108 C59.67 107.01 59.34 106.02 59 105 C59.66 104.34 60.32 103.68 61 103 C60.714 100.486 60.714 100.486 59.875 97.594 C59.438 95.909 59.438 95.909 58.992 94.189 C58.665 92.972 58.337 91.754 58 90.5 C57.332 87.939 56.667 85.378 56.004 82.816 C55.834 82.164 55.664 81.511 55.489 80.839 C53.822 74.404 52.379 67.926 50.938 61.438 C49.184 53.68 47.263 46.026 44.875 38.438 C44.645 37.707 44.416 36.976 44.179 36.222 C41.842 29.075 38.892 22.168 35.062 15.688 C34.6 14.887 34.137 14.086 33.66 13.262 C31.745 10.653 29.592 8.917 27 7 C27.216 7.617 27.432 8.234 27.655 8.87 C31.539 20.034 35.266 31.179 38 42.688 C38.311 43.985 38.311 43.985 38.628 45.309 C39.532 49.269 40.267 52.91 40 57 C38.515 57.495 38.515 57.495 37 58 C36.709 56.944 36.417 55.889 36.117 54.801 C35.247 51.651 34.369 48.503 33.488 45.355 C32.483 41.76 31.505 38.158 30.543 34.551 C27.002 19.194 27.002 19.194 19 6 C13.975 6.285 13.975 6.285 10 9 C10.408 12.965 11.886 16.49 13.312 20.188 C18.689 35.121 20.749 50.234 22 66 C20.68 66 19.36 66 18 66 C17.812 64.77 17.812 64.77 17.62 63.516 C15.182 37.702 15.182 37.702 5 15 C-8.055 40.779 -5.296 84.111 3.048 110.991 C3.698 112.967 4.402 114.926 5.109 116.883 C5.968 119.886 6.158 121.161 5 124 C1.25 125.125 1.25 125.125 -1 124 C-0.938 123.196 -0.876 122.391 -0.812 121.562 C-0.973 118.51 -1.294 116.89 -2.312 114.125 C-11.649 87.84 -12.903 46.119 -3 20 C-1.68 17.356 -0.321 14.784 1.207 12.254 C2.279 9.922 2.279 9.922 1.137 7.215 C0.762 6.484 0.386 5.753 0 5 C-3.965 4.048 -6.266 3.686 -10.062 5.312 C-24.333 18.368 -26.815 42.391 -27.688 60.688 C-28.015 68.791 -28.123 76.89 -28 85 C-29.98 85.495 -29.98 85.495 -32 86 C-32.076 81.327 -32.129 76.654 -32.165 71.98 C-32.18 70.399 -32.2 68.817 -32.226 67.236 C-32.565 46.393 -30.045 20.441 -15.395 4.223 C-10.544 -0.079 -6.296 -1.889 0 0 Z " fill="#000000" transform="translate(652,265)"/>
<path d="M0 0 C1.145 0.34 1.145 0.34 2.312 0.688 C3 3 3 3 3.312 5.688 C2.188 7.562 2.188 7.562 0.312 8.688 C-2.375 8.375 -2.375 8.375 -4.688 7.688 C-5.375 5.375 -5.375 5.375 -5.688 2.688 C-4.001 -0.123 -3.278 -0.381 0 0 Z " fill="#000000" transform="translate(185.6875,268.3125)"/>
<path d="M0 0 C0.66 0.33 1.32 0.66 2 1 C2 1.99 2 2.98 2 4 C0.144 3.938 0.144 3.938 -1.75 3.875 C-5.014 3.881 -7.287 4.017 -10 6 C-10.99 7.485 -10.99 7.485 -12 9 C-12.99 8.67 -13.98 8.34 -15 8 C-14.091 4.943 -13.325 3.277 -10.875 1.188 C-6.978 -0.422 -4.207 -0.276 0 0 Z " fill="#000000" transform="translate(405,268)"/>
<path d="M0 0 C0.495 0.495 0.495 0.495 1 1 C0.984 3.188 0.984 3.188 0.75 6 C0.683 6.908 0.616 7.815 0.547 8.75 C-0.17 13.009 -1.546 16.942 -3 21 C-7.583 21.226 -12.166 21.428 -16.75 21.625 C-18.052 21.689 -19.354 21.754 -20.695 21.82 C-22.571 21.898 -22.571 21.898 -24.484 21.977 C-26.213 22.055 -26.213 22.055 -27.976 22.135 C-30.948 22.002 -32.512 21.564 -35 20 C-26.692 15.291 -15.216 16.879 -6 17 C-5.909 16.078 -5.909 16.078 -5.816 15.137 C-5.733 14.328 -5.649 13.52 -5.562 12.688 C-5.481 11.887 -5.4 11.086 -5.316 10.262 C-5 8 -5 8 -4 5 C-5.279 5.144 -6.558 5.289 -7.875 5.438 C-9.583 5.625 -11.292 5.813 -13 6 C-14.259 6.143 -14.259 6.143 -15.543 6.289 C-20.731 6.852 -25.781 7.097 -31 7 C-31 6.01 -31 5.02 -31 4 C-9.987 -0.35 -9.987 -0.35 0 0 Z " fill="#000000" transform="translate(603,269)"/>
<path d="M0 0 C1 3 1 3 -0.25 6.438 C-5.283 15.805 -13.987 23.048 -21.75 30.125 C-34.632 41.964 -41.715 55.169 -42.918 72.938 C-43.473 86.965 -41.261 99.973 -36 113 C-37.32 113 -38.64 113 -40 113 C-49.673 94.954 -49.96 74.542 -45 55 C-40.065 39.129 -28.98 29.54 -16.312 19.438 C-9.582 13.988 -3.335 8.128 0 0 Z " fill="#000000" transform="translate(278,270)"/>
<path d="M0 0 C2.375 0.25 2.375 0.25 5 1 C6.743 3.755 7.376 6.285 7.75 9.5 C7.848 10.253 7.946 11.006 8.047 11.781 C7.992 14.385 7.39 15.815 6 18 C4.125 19 4.125 19 2 19 C-0.188 17.75 -0.188 17.75 -2 15 C-2.825 11.322 -3.304 7.763 -3 4 C-1.504 1.656 -1.504 1.656 0 0 Z " fill="#000000" transform="translate(461,270)"/>
<path d="M0 0 C0.99 0 1.98 0 3 0 C3.254 1.097 3.508 2.194 3.77 3.324 C4.117 4.779 4.464 6.233 4.812 7.688 C4.978 8.409 5.144 9.13 5.314 9.873 C6.309 13.983 7.212 17.712 10 21 C12.871 21.96 12.871 21.96 16.062 22.188 C21.823 22.823 21.823 22.823 24 25 C24 28.83 23.017 29.982 20.312 32.75 C17.348 35.04 14.766 35.731 11 36 C11 34.68 11 33.36 11 32 C14 29.75 14 29.75 17 28 C16.325 27.769 15.649 27.539 14.953 27.301 C14.061 26.975 13.169 26.649 12.25 26.312 C11.368 25.999 10.487 25.686 9.578 25.363 C5.345 23.125 3.463 20.38 1.953 15.879 C1.721 14.784 1.489 13.69 1.25 12.562 C1.008 11.471 0.765 10.379 0.516 9.254 C0.017 6.106 -0.096 3.181 0 0 Z " fill="#000000" transform="translate(434,275)"/>
<path d="M0 0 C2.562 0.375 2.562 0.375 4.312 2.188 C6.767 6.483 6.943 10.537 6.562 15.375 C5.812 17.812 5.812 17.812 4.562 19.375 C2.688 20.312 2.688 20.312 0.562 20.375 C-2.513 18.618 -3.297 17.796 -4.438 14.375 C-4.557 12.357 -4.613 10.334 -4.625 8.312 C-4.639 7.249 -4.653 6.186 -4.668 5.09 C-4.364 1.508 -3.572 0.55 0 0 Z " fill="#000000" transform="translate(406.4375,277.625)"/>
<path d="M0 0 C2.562 0.188 2.562 0.188 4.562 2.188 C4.188 5.312 4.188 5.312 3.562 8.188 C1.812 8.875 1.812 8.875 -0.438 9.188 C-2.688 7.75 -2.688 7.75 -4.438 6.188 C-3.374 0.26 -3.374 0.26 0 0 Z " fill="#000000" transform="translate(218.4375,280.8125)"/>
<path d="M0 0 C4.937 1.678 6.938 4.925 9.359 9.285 C11.076 12.808 12.198 15.168 11.875 19.125 C11.627 19.764 11.38 20.404 11.125 21.062 C7.519 22.264 4.915 22.389 1.125 22.062 C-3.231 19.687 -4.937 16.725 -6.438 12.156 C-7.288 8.085 -6.804 4.628 -4.688 1.062 C-2.875 0.062 -2.875 0.062 0 0 Z M-0.875 4.062 C-3.287 6.043 -3.287 6.043 -3.188 9.875 C-3.091 13.673 -2.331 16.061 0.125 19.062 C1.115 19.392 2.105 19.723 3.125 20.062 C3.041 19.399 2.957 18.735 2.871 18.051 C1.86 9.28 1.86 9.28 3.125 5.062 C1.233 4.381 1.233 4.381 -0.875 4.062 Z " fill="#000000" transform="translate(332.875,283.9375)"/>
<path d="M0 0 C2.062 0.438 2.062 0.438 4 1 C4.337 2.916 4.67 4.833 5 6.75 C5.186 7.817 5.371 8.885 5.562 9.984 C6 13 6 13 6 17 C6.953 16.639 7.905 16.278 8.887 15.906 C10.153 15.437 11.42 14.968 12.688 14.5 C13.313 14.262 13.939 14.023 14.584 13.777 C18.182 12.459 21.165 11.707 25 12 C25 13.32 25 14.64 25 16 C22.564 16.839 20.127 17.671 17.688 18.5 C16.997 18.738 16.307 18.977 15.596 19.223 C12.611 20.232 10.173 21 7 21 C7.091 21.593 7.182 22.186 7.275 22.797 C9.006 34.264 10.536 45.378 10 57 C9.01 57.495 9.01 57.495 8 58 C5.197 47.107 3.564 36.126 2 25 C-2.414 25.567 -6.592 26.361 -10.875 27.562 C-16.11 28.921 -20.612 29.269 -26 29 C-26 28.34 -26 27.68 -26 27 C-21.877 25.662 -17.751 24.33 -13.625 23 C-12.449 22.618 -11.274 22.237 -10.062 21.844 C-8.941 21.483 -7.82 21.122 -6.664 20.75 C-5.109 20.247 -5.109 20.247 -3.522 19.734 C-1 19 -1 19 1 19 C0.844 17.712 0.688 16.424 0.527 15.098 C0.33 13.419 0.134 11.741 -0.062 10.062 C-0.166 9.212 -0.27 8.362 -0.377 7.486 C-0.47 6.677 -0.564 5.869 -0.66 5.035 C-0.749 4.286 -0.838 3.537 -0.93 2.766 C-0.953 2.183 -0.976 1.6 -1 1 C-0.67 0.67 -0.34 0.34 0 0 Z " fill="#000000" transform="translate(98,293)"/>
<path d="M0 0 C2.886 2.325 4.599 4.59 6 8 C6.213 12.105 5.903 15.819 3.375 19.125 C-0.213 20.447 -2.349 20.089 -6 19 C-9.383 16.024 -11.847 12.721 -12.25 8.188 C-11.968 4.59 -11.19 2.839 -9 0 C-5.416 -1.195 -3.631 -0.963 0 0 Z " fill="#000000" transform="translate(481,301)"/>
<path d="M0 0 C3.441 2.196 4.921 4.467 6.25 8.375 C6.917 12.458 6.63 13.828 4.25 17.25 C1.1 19.481 -0.833 20.056 -4.691 19.801 C-9.134 18.882 -12.514 16.693 -15.625 13.375 C-17.609 9.848 -17.609 9.848 -17.75 7.375 C-15.717 1.169 -15.717 1.169 -13 -1.062 C-8.281 -2.242 -4.354 -2.209 0 0 Z " fill="#000000" transform="translate(390.75,307.625)"/>
<path d="M0 0 C-1.531 4.672 -4.108 8.022 -7.125 11.812 C-7.827 12.709 -7.827 12.709 -8.543 13.623 C-9.69 15.086 -10.844 16.544 -12 18 C-14.398 15.602 -14.343 14.667 -14.625 11.375 C-14.7 10.558 -14.775 9.74 -14.852 8.898 C-14.901 8.272 -14.95 7.645 -15 7 C-12.878 5.828 -10.752 4.662 -8.625 3.5 C-7.72 2.999 -7.72 2.999 -6.797 2.488 C-2.227 0 -2.227 0 0 0 Z " fill="#000000" transform="translate(725,311)"/>
<path d="M0 0 C2 2 2 2 2.938 4.375 C3.99 6.976 5.237 8.836 7 11 C1.108 13.744 -4.795 16.064 -11 18 C-9.481 13.568 -7.074 9.97 -4.375 6.188 C-3.955 5.59 -3.535 4.993 -3.102 4.377 C-2.072 2.915 -1.037 1.457 0 0 Z " fill="#000000" transform="translate(730,313)"/>
<path d="M0 0 C1.812 0.125 1.812 0.125 4 1 C5.344 2.658 6.676 4.326 8 6 C14.365 10.843 21.047 12.935 29 13 C32.067 12.54 35.02 11.852 38 11 C38 12.32 38 13.64 38 15 C31.451 18.657 24.134 18.559 17.02 16.652 C10.568 14.568 5.648 10.872 1 6 C-0.5 3.062 -0.5 3.062 -1 1 C-0.67 0.67 -0.34 0.34 0 0 Z " fill="#000000" transform="translate(413,318)"/>
<path d="M0 0 C1.65 0.33 3.3 0.66 5 1 C4.67 2.98 4.34 4.96 4 7 C2.35 6.67 0.7 6.34 -1 6 C-1.33 5.01 -1.66 4.02 -2 3 C-1.34 2.01 -0.68 1.02 0 0 Z " fill="#000000" transform="translate(773,322)"/>
<path d="M0 0 C0.99 4.62 1.98 9.24 3 14 C-6.114 17.875 -15.304 21.322 -24.645 24.605 C-31.062 26.883 -37.311 29.366 -43.521 32.162 C-46 33 -46 33 -49 32 C-49.33 28.37 -49.66 24.74 -50 21 C-41.481 16.544 -32.727 12.941 -23.812 9.375 C-21.669 8.513 -19.526 7.65 -17.382 6.787 C-16.061 6.254 -14.738 5.723 -13.415 5.194 C-10.293 3.941 -7.19 2.656 -4.104 1.315 C-1 0 -1 0 0 0 Z " fill="#000000" transform="translate(700,322)"/>
<path d="M0 0 C6.35 6.025 10.968 14.861 14 23 C14.164 21.372 14.164 21.372 14.332 19.711 C14.492 18.266 14.652 16.82 14.812 15.375 C14.883 14.662 14.953 13.949 15.025 13.215 C15.555 8.599 16.534 5.038 19 1 C21.763 -0.381 23.947 -0.191 27 0 C29.485 2.485 29.352 3.368 29.438 6.812 C29.309 14.96 26.027 22.092 22.324 29.23 C20.751 32.521 20.811 33.604 22 37 C22.954 39.022 23.945 41.028 25 43 C25.33 43 25.66 43 26 43 C26.196 42.13 26.196 42.13 26.396 41.243 C27 38.596 27.625 35.955 28.25 33.312 C28.455 32.4 28.66 31.488 28.871 30.549 C30.082 25.503 31.156 21.723 35 18 C37.5 16.938 37.5 16.938 40 17 C42.312 18.438 42.312 18.438 44 21 C45.309 29.143 41.784 36.65 37.438 43.441 C35.137 46.564 32.75 49.25 30 52 C32.475 57.94 32.475 57.94 35 64 C35.485 62.889 35.969 61.778 36.469 60.633 C45.621 40.122 45.621 40.122 52.918 35.887 C55.661 34.933 57.613 34.878 60.375 35.75 C62.628 37.483 62.95 38.712 63.438 41.5 C62.407 49.744 55.918 57.416 50 63 C46.204 65.909 42.553 68.482 38 70 C38.608 74.345 39.262 78.676 40 83 C40.66 83 41.32 83 42 83 C42.133 81.935 42.133 81.935 42.27 80.848 C43.865 74.629 48.932 68.084 54.188 64.375 C56.931 63.034 58.952 62.16 62 62 C64.312 62.938 64.312 62.938 66 64 C65.858 68.679 63.666 70.972 60.43 74.027 C57.388 76.496 54.218 78.676 50.938 80.812 C50.348 81.198 49.759 81.583 49.152 81.979 C45.548 84.251 42.09 85.823 38 87 C36.996 84.376 35.997 81.751 35 79.125 C34.714 78.379 34.428 77.632 34.133 76.863 C32 71.227 32 71.227 32 69 C30.928 68.959 29.855 68.918 28.75 68.875 C25 68 25 68 22.562 65.062 C21 62 21 62 21 60 C26.75 60.875 26.75 60.875 29 62 C28.711 61.374 28.423 60.747 28.125 60.102 C27.754 59.284 27.382 58.467 27 57.625 C26.629 56.813 26.257 56.001 25.875 55.164 C25 53 25 53 25 51 C24.261 51.046 23.523 51.093 22.762 51.141 C13.745 51.461 5.686 50.123 -1.625 44.5 C-4 42 -4 42 -5.062 39.875 C-5 38 -5 38 -4 36.25 C-0.886 34.304 1.381 34.644 5 35 C9.927 36.398 14.474 38.624 19 41 C17.57 37.484 16.693 35.422 13.398 33.418 C12.401 33.012 11.403 32.606 10.375 32.188 C1.242 27.936 -5.049 21.656 -9.188 12.43 C-10.467 8.603 -10.633 6.006 -10 2 C-7.078 -1.708 -4.268 -1.481 0 0 Z " fill="#000000" transform="translate(148,331)"/>
<path d="M0 0 C1.65 0.33 3.3 0.66 5 1 C5 2.65 5 4.3 5 6 C3.125 6.625 3.125 6.625 1 7 C0.34 6.34 -0.32 5.68 -1 5 C-0.625 2.375 -0.625 2.375 0 0 Z " fill="#000000" transform="translate(569,337)"/>
<path d="M0 0 C0.495 6.435 0.495 6.435 1 13 C-10.728 18.992 -15.957 20.135 -29 18.688 C-30.284 18.557 -31.568 18.426 -32.891 18.291 C-34.123 18.158 -35.355 18.024 -36.625 17.887 C-37.752 17.765 -38.878 17.644 -40.039 17.518 C-42.763 17.041 -44.637 16.394 -47 15 C-38.996 11.847 -30.777 9.414 -22.554 6.907 C-13.818 4.267 -13.818 4.267 -5.219 1.219 C-2 0 -2 0 0 0 Z " fill="#000000" transform="translate(642,346)"/>
<path d="M0 0 C0 0.99 0 1.98 0 3 C-8.653 7.616 -8.653 7.616 -13 8 C-13.66 7.67 -14.32 7.34 -15 7 C-14 4 -14 4 -12.363 2.832 C-8.06 0.693 -4.926 -0.493 0 0 Z " fill="#000000" transform="translate(74,361)"/>
<path d="M0 0 C1.565 -0.01 3.13 -0.017 4.695 -0.023 C5.567 -0.027 6.438 -0.031 7.336 -0.036 C11.441 0.019 15.486 0.418 19.562 0.875 C20.368 0.954 21.173 1.032 22.002 1.113 C24.011 1.334 26.008 1.658 28 2 C28.33 2.66 28.66 3.32 29 4 C22.07 7.3 15.14 10.6 8 14 C8.433 17.053 8.866 20.105 9.312 23.25 C10.638 33.136 11.634 43.042 12.487 52.978 C12.618 54.507 12.752 56.036 12.889 57.565 C13.345 62.706 13.71 67.847 14 73 C14.049 73.795 14.099 74.59 14.149 75.409 C15.018 90.867 15.018 90.867 11.445 95.383 C9.832 96.848 9.832 96.848 8.125 98.125 C7.292 98.862 7.292 98.862 6.441 99.613 C2.504 103 2.504 103 0 103 C-1.899 87.312 -2.312 71.784 -2.261 55.99 C-2.25 52.072 -2.261 48.154 -2.273 44.236 C-2.28 29.378 -1.685 14.765 0 0 Z " fill="#000000" transform="translate(588,367)"/>
<path d="M0 0 C2.594 1.509 4.876 2.876 7 5 C8.519 5.107 10.041 5.185 11.562 5.25 C17.877 5.854 22.085 8.017 26.512 12.547 C28.18 14.613 29.587 16.75 31 19 C31.632 19.996 32.263 20.993 32.914 22.02 C40.45 34.446 45.811 47.995 51.452 61.35 C52.87 64.694 54.31 68.029 55.762 71.359 C56.176 72.311 56.589 73.263 57.016 74.243 C57.77 75.977 58.526 77.71 59.285 79.442 C61.21 83.901 62.959 88.247 64 93 C62.625 95.438 62.625 95.438 61 97 C59.35 96.67 57.7 96.34 56 96 C56.305 94.907 56.305 94.907 56.616 93.793 C57.065 90.528 56.575 89.249 55.148 86.316 C54.716 85.404 54.283 84.491 53.837 83.551 C53.355 82.565 52.872 81.579 52.375 80.562 C51.351 78.409 50.33 76.254 49.312 74.098 C48.771 72.952 48.23 71.806 47.672 70.625 C45.056 64.953 42.64 59.199 40.203 53.448 C31.637 31.234 31.637 31.234 17 13 C14.889 12.282 14.889 12.282 13 12 C13.783 13.315 13.783 13.315 14.582 14.656 C19.552 23.164 23.944 31.861 28.062 40.812 C28.551 41.868 29.04 42.924 29.544 44.012 C29.995 45.004 30.446 45.997 30.91 47.02 C31.314 47.907 31.717 48.795 32.133 49.71 C33 52 33 52 33 55 C31.68 55 30.36 55 29 55 C28.325 53.416 28.325 53.416 27.637 51.801 C22.654 40.273 17.048 29.16 11.11 18.096 C10.042 16.079 9.012 14.046 8 12 C0.602 18.37 -1.518 26.774 -3.125 36.125 C-3.29 37.046 -3.454 37.967 -3.624 38.916 C-4.098 41.608 -4.552 44.303 -5 47 C-5.121 47.7 -5.243 48.4 -5.368 49.121 C-8.957 70.078 -9.107 98.076 0.75 117.438 C2.227 120.466 2.02 121.848 1 125 C-1.475 125.495 -1.475 125.495 -4 126 C-4.104 125.375 -4.209 124.75 -4.316 124.105 C-4.885 121.523 -5.562 119.074 -6.34 116.551 C-9.876 105.037 -12.346 94.037 -13 82 C-13.071 80.747 -13.142 79.494 -13.215 78.203 C-13.79 56.033 -11.178 30.481 0 11 C0.676 9.671 1.346 8.34 2 7 C-1.458 4.629 -3.778 3.261 -8 4 C-12.28 6.862 -14.667 10.19 -17 14.688 C-17.514 15.675 -17.514 15.675 -18.038 16.683 C-28.562 37.749 -29.421 61.892 -30 85 C-31.485 85.495 -31.485 85.495 -33 86 C-37.064 60.674 -32.485 27.69 -17.883 6.293 C-12.974 0.314 -7.603 -2.649 0 0 Z " fill="#000000" transform="translate(139,377)"/>
<path d="M0 0 C2.081 12.795 3.725 25.652 5.438 38.5 C7.551 54.344 9.706 70.181 12 86 C5.457 81.703 5.457 81.703 3 80 C2.141 79.442 1.281 78.885 0.396 78.31 C-2.752 75.274 -2.669 73.652 -2.785 69.332 C-2.812 68.672 -2.838 68.012 -2.865 67.332 C-2.921 65.905 -2.967 64.477 -3.004 63.049 C-3.104 59.23 -3.284 55.414 -3.465 51.598 C-3.501 50.81 -3.537 50.023 -3.574 49.212 C-4.073 39.259 -5.377 29.411 -6.68 19.538 C-6.85 18.242 -7.02 16.945 -7.195 15.609 C-7.428 13.907 -7.428 13.907 -7.665 12.171 C-7.991 9.086 -8.06 6.099 -8 3 C-2.25 0 -2.25 0 0 0 Z " fill="#000000" transform="translate(608,381)"/>
<path d="M0 0 C0.99 0.33 1.98 0.66 3 1 C4.061 6.212 4.161 11.234 4.168 16.527 C4.171 17.434 4.175 18.342 4.178 19.276 C4.183 21.188 4.185 23.1 4.185 25.012 C4.187 27.924 4.206 30.836 4.225 33.748 C4.228 35.612 4.23 37.476 4.23 39.34 C4.238 40.204 4.245 41.067 4.252 41.957 C4.233 47.025 3.635 51.196 2 56 C1.34 55.67 0.68 55.34 0 55 C-0.336 47.489 -0.656 39.978 -0.964 32.466 C-1.071 29.909 -1.182 27.352 -1.296 24.795 C-1.46 21.127 -1.61 17.458 -1.758 13.789 C-1.812 12.64 -1.866 11.491 -1.922 10.307 C-1.962 9.246 -2.002 8.185 -2.043 7.092 C-2.083 6.155 -2.123 5.218 -2.165 4.253 C-2 2 -2 2 0 0 Z " fill="#000000" transform="translate(81,383)"/>
<path d="M0 0 C0.99 0 1.98 0 3 0 C5.953 9.874 3.665 21.082 2 31 C1.01 31 0.02 31 -1 31 C-1.025 26.746 -1.043 22.492 -1.055 18.238 C-1.06 16.789 -1.067 15.341 -1.075 13.893 C-1.088 11.815 -1.093 9.738 -1.098 7.66 C-1.106 5.783 -1.106 5.783 -1.114 3.867 C-1 1 -1 1 0 0 Z " fill="#000000" transform="translate(550,394)"/>
<path d="M0 0 C2.475 0.99 2.475 0.99 5 2 C5.125 4.375 5.125 4.375 5 7 C4.34 7.66 3.68 8.32 3 9 C0.375 8.625 0.375 8.625 -2 8 C-2.688 5.688 -2.688 5.688 -3 3 C-1.562 1.188 -1.562 1.188 0 0 Z " fill="#000000" transform="translate(248,410)"/>
<path d="M0 0 C2.625 0.938 2.625 0.938 5 2 C4.67 3.65 4.34 5.3 4 7 C2.35 7.33 0.7 7.66 -1 8 C-2.062 6.188 -2.062 6.188 -3 4 C-2.67 3.01 -2.34 2.02 -2 1 C-1.34 0.67 -0.68 0.34 0 0 Z " fill="#000000" transform="translate(67,415)"/>
<path d="M0 0 C-1.654 3.566 -3.749 6.739 -5.938 10 C-6.972 11.547 -6.972 11.547 -8.027 13.125 C-8.678 14.074 -9.329 15.022 -10 16 C-10.538 16.784 -11.075 17.567 -11.629 18.375 C-12.081 18.911 -12.534 19.447 -13 20 C-13.66 20 -14.32 20 -15 20 C-16.32 16.37 -17.64 12.74 -19 9 C-16.211 7.495 -13.419 5.996 -10.625 4.5 C-9.831 4.071 -9.037 3.641 -8.219 3.199 C-7.458 2.793 -6.698 2.387 -5.914 1.969 C-4.861 1.403 -4.861 1.403 -3.788 0.826 C-2 0 -2 0 0 0 Z " fill="#000000" transform="translate(206,417)"/>
<path d="M0 0 C2 0 2 0 4.625 2.375 C7 5 7 5 7 7 C2.05 9.31 -2.9 11.62 -8 14 C-6.497 10.243 -5.187 7.484 -3 4.188 C-2.484 3.397 -1.969 2.607 -1.438 1.793 C-0.726 0.905 -0.726 0.905 0 0 Z " fill="#000000" transform="translate(211,420)"/>
<path d="M0 0 C0.673 1.601 1.338 3.206 2 4.812 C2.371 5.706 2.743 6.599 3.125 7.52 C4 10 4 10 4 13 C3.342 13.341 2.684 13.683 2.007 14.035 C-1.1 15.648 -4.206 17.261 -7.312 18.875 C-8.44 19.461 -9.567 20.046 -10.729 20.649 C-16.089 23.436 -21.446 26.229 -26.785 29.055 C-27.65 29.512 -28.516 29.97 -29.407 30.442 C-31.021 31.298 -32.635 32.155 -34.247 33.015 C-34.967 33.397 -35.688 33.779 -36.43 34.172 C-37.051 34.503 -37.672 34.834 -38.312 35.175 C-40 36 -40 36 -43 37 C-44.996 35.004 -44.41 31.183 -44.562 28.438 C-44.606 27.727 -44.649 27.016 -44.693 26.283 C-44.8 24.522 -44.9 22.761 -45 21 C-34.604 15.408 -24.133 10.004 -13.5 4.875 C-12.503 4.39 -11.507 3.905 -10.48 3.405 C-9.548 2.959 -8.616 2.514 -7.656 2.055 C-6.829 1.657 -6.002 1.26 -5.15 0.851 C-3 0 -3 0 0 0 Z " fill="#000000" transform="translate(178,433)"/>
<path d="M0 0 C3.832 0.414 6.08 1.513 9 4 C8.67 4.99 8.34 5.98 8 7 C5.03 6.01 2.06 5.02 -1 4 C-1 1 -1 1 0 0 Z " fill="#000000" transform="translate(486,436)"/>
<path d="M0 0 C3.735 0.498 5.812 0.875 9 3 C9 4.32 9 5.64 9 7 C2.375 6.25 2.375 6.25 -1 4 C-0.67 2.68 -0.34 1.36 0 0 Z " fill="#000000" transform="translate(443,457)"/>
<path d="M0 0 C0.495 8.415 0.495 8.415 1 17 C-9.146 24.234 -14.734 26.92 -27.21 24.844 C-32.844 23.701 -38.438 22.455 -44 21 C-41.85 18.629 -39.929 17.325 -37 16.055 C-35.806 15.529 -35.806 15.529 -34.587 14.992 C-33.734 14.623 -32.88 14.255 -32 13.875 C-30.2 13.084 -28.4 12.291 -26.602 11.496 C-25.679 11.089 -24.756 10.681 -23.806 10.261 C-18.461 7.859 -13.188 5.304 -7.918 2.744 C-7.169 2.384 -6.42 2.023 -5.648 1.652 C-4.661 1.173 -4.661 1.173 -3.654 0.683 C-2 0 -2 0 0 0 Z " fill="#000000" transform="translate(124,459)"/>
<path d="M0 0 C4.145 0.471 6.992 0.992 10 4 C10 4.99 10 5.98 10 7 C3.375 6.25 3.375 6.25 0 4 C0 2.68 0 1.36 0 0 Z " fill="#000000" transform="translate(379,459)"/>
<path d="M0 0 C8.496 0.58 16.689 2.238 25 4 C25 4.66 25 5.32 25 6 C21.04 7.98 17.08 9.96 13 12 C13.557 19.159 14.439 26.036 15.934 33.055 C16.224 34.447 16.224 34.447 16.52 35.867 C17.151 38.872 17.793 41.874 18.438 44.875 C18.766 46.419 18.766 46.419 19.102 47.993 C23.931 70.591 29.508 93.054 36.504 115.089 C37 117 37 117 37 120 C29.454 117.983 22.51 115.167 15.438 111.875 C14.442 111.42 13.446 110.965 12.42 110.496 C5.153 107.153 5.153 107.153 4 106 C3.857 104.668 3.779 103.329 3.728 101.99 C3.693 101.126 3.658 100.262 3.622 99.372 C3.588 98.418 3.554 97.463 3.519 96.479 C3.48 95.479 3.441 94.479 3.401 93.449 C3.272 90.125 3.149 86.801 3.027 83.477 C2.939 81.176 2.851 78.875 2.763 76.575 C2.53 70.503 2.303 64.431 2.077 58.359 C1.892 53.4 1.702 48.442 1.513 43.483 C1.121 33.249 0.733 23.014 0.351 12.78 C0.315 11.829 0.28 10.878 0.243 9.899 C0.211 9.029 0.178 8.16 0.145 7.264 C0.117 6.509 0.089 5.753 0.06 4.975 C0.01 3.317 0 1.658 0 0 Z " fill="#000000" transform="translate(76,483)"/>
<path d="M0 0 C0.66 0 1.32 0 2 0 C1.867 0.652 1.734 1.305 1.598 1.977 C0.655 6.641 -0.258 11.299 -1 16 C-0.305 16.112 0.39 16.224 1.105 16.34 C4.37 17.084 7.236 18.244 10.312 19.562 C11.381 20.018 12.45 20.473 13.551 20.941 C14.359 21.291 15.167 21.64 16 22 C16 23.32 16 24.64 16 26 C9.73 24.02 3.46 22.04 -3 20 C-3.268 22.434 -3.536 24.867 -3.812 27.375 C-4.558 33.885 -5.48 40.35 -6.562 46.812 C-6.689 47.57 -6.816 48.328 -6.947 49.109 C-7.517 52.443 -8.153 55.726 -9 59 C-9.99 59 -10.98 59 -12 59 C-11.616 54.768 -11.225 50.536 -10.828 46.305 C-10.694 44.87 -10.563 43.434 -10.433 41.999 C-9.699 33.906 -8.861 25.929 -7 18 C-7.609 17.954 -8.218 17.908 -8.846 17.86 C-14.388 17.416 -18.876 16.143 -24 14 C-24 13.34 -24 12.68 -24 12 C-17.634 12.491 -11.307 12.997 -5 14 C-4.876 12.763 -4.876 12.763 -4.75 11.5 C-3.836 7.232 -2.078 3.808 0 0 Z " fill="#000000" transform="translate(749,505)"/>
<path d="M0 0 C2.475 0.495 2.475 0.495 5 1 C5 1.99 5 2.98 5 4 C3.68 4.33 2.36 4.66 1 5 C0.505 2.525 0.505 2.525 0 0 Z " fill="#000000" transform="translate(545,524)"/>
<path d="M0 0 C0.99 0.33 1.98 0.66 3 1 C2.505 6.548 1.651 11.91 0.562 17.375 C-1.244 26.518 -2.143 35.727 -3 45 C-4.32 45 -5.64 45 -7 45 C-7.316 35.849 -7.108 26.998 -5.688 17.938 C-5.57 17.166 -5.452 16.394 -5.331 15.598 C-3.243 3.243 -3.243 3.243 0 0 Z " fill="#000000" transform="translate(302,529)"/>
<path d="M0 0 C0.66 0 1.32 0 2 0 C1.859 2.25 1.712 4.5 1.562 6.75 C1.481 8.003 1.4 9.256 1.316 10.547 C1.075 13.183 0.757 15.48 0 18 C-0.99 18 -1.98 18 -3 18 C-2.221 5.33 -2.221 5.33 0 0 Z " fill="#000000" transform="translate(209,542)"/>
<path d="M0 0 C0.66 0 1.32 0 2 0 C6.423 8.847 2.155 23.483 -0.25 32.25 C-0.603 33.591 -0.954 34.933 -1.304 36.275 C-2.286 40.018 -3.297 43.754 -4.315 47.487 C-5.045 50.164 -5.769 52.843 -6.492 55.522 C-9.296 65.899 -12.118 76.271 -14.984 86.631 C-16.08 90.603 -17.157 94.578 -18.178 98.57 C-18.358 99.269 -18.538 99.968 -18.724 100.689 C-19.199 102.544 -19.666 104.402 -20.132 106.26 C-21 109 -21 109 -23 111 C-23.99 111 -24.98 111 -26 111 C-25.551 103.197 -23.848 96.097 -21.648 88.617 C-21.311 87.445 -20.974 86.273 -20.627 85.066 C-19.551 81.333 -18.463 77.604 -17.375 73.875 C-16.667 71.426 -15.96 68.977 -15.254 66.527 C-12.524 57.076 -9.782 47.628 -6.985 38.196 C-6.667 37.12 -6.349 36.043 -6.022 34.934 C-5.431 32.936 -4.837 30.939 -4.239 28.943 C-1.914 21.07 0.337 13.145 0.125 4.875 C0.098 3.479 0.098 3.479 0.07 2.055 C0.047 1.377 0.024 0.699 0 0 Z " fill="#000000" transform="translate(502,547)"/>
<path d="M0 0 C0.562 0.362 1.123 0.724 1.702 1.097 C1.19 13.572 -0.386 25.766 -2.298 38.097 C-3.783 38.592 -3.783 38.592 -5.298 39.097 C-5.323 35.022 -5.341 30.947 -5.353 26.872 C-5.358 25.486 -5.365 24.1 -5.373 22.714 C-5.385 20.72 -5.391 18.727 -5.396 16.734 C-5.401 15.535 -5.406 14.335 -5.411 13.1 C-5.298 10.097 -5.298 10.097 -4.298 7.097 C-4.927 7.314 -5.556 7.53 -6.204 7.753 C-11.812 9.578 -16.408 10.424 -22.298 10.097 C-22.298 9.107 -22.298 8.117 -22.298 7.097 C-19.058 5.697 -15.805 4.332 -12.548 2.972 C-11.627 2.574 -10.707 2.176 -9.759 1.765 C-8.869 1.398 -7.98 1.03 -7.063 0.652 C-6.247 0.306 -5.43 -0.039 -4.588 -0.396 C-2.298 -0.903 -2.298 -0.903 0 0 Z " fill="#000000" transform="translate(718.2978515625,549.90283203125)"/>
<path d="M0 0 C0.99 0 1.98 0 3 0 C3 2.97 3 5.94 3 9 C2.01 8.67 1.02 8.34 0 8 C0 5.36 0 2.72 0 0 Z " fill="#000000" transform="translate(199,552)"/>
<path d="M0 0 C3.388 2.785 5.229 4.705 6 9 C6.561 15.972 5.457 22.766 4.312 29.625 C4.137 30.701 3.961 31.777 3.78 32.885 C-1.158 62.315 -1.158 62.315 -4 68 C-4.66 68 -5.32 68 -6 68 C-5.685 57.865 -4.468 48.02 -2.938 38 C-0.603 23.062 -0.603 23.062 -1 8 C-2.898 5.659 -2.898 5.659 -6.125 5.812 C-12.522 6.965 -16.438 13.848 -20.016 18.779 C-22.05 21.745 -24.033 24.739 -26 27.75 C-26.698 28.803 -27.395 29.856 -28.114 30.941 C-31.052 35.396 -33.958 39.858 -36.672 44.453 C-37.035 45.068 -37.399 45.684 -37.773 46.317 C-38.674 47.868 -39.549 49.434 -40.422 51 C-40.943 51.66 -41.463 52.32 -42 53 C-43.32 53 -44.64 53 -46 53 C-44.585 48.244 -42.57 44.045 -40.125 39.75 C-39.738 39.066 -39.351 38.382 -38.952 37.678 C-18.861 2.783 -18.861 2.783 -7.973 -0.637 C-4.997 -1.185 -2.909 -0.831 0 0 Z " fill="#000000" transform="translate(438,556)"/>
<path d="M0 0 C0.66 0 1.32 0 2 0 C5.217 15.19 7.257 30.37 8.865 45.808 C9.255 49.551 9.658 53.293 10.062 57.035 C10.318 59.43 10.574 61.824 10.828 64.219 C10.947 65.33 11.066 66.441 11.188 67.587 C11.295 68.62 11.402 69.653 11.513 70.717 C11.607 71.619 11.702 72.522 11.799 73.452 C11.998 75.98 12.036 78.466 12 81 C10.35 80.67 8.7 80.34 7 80 C4.465 53.348 2.084 26.691 0 0 Z " fill="#000000" transform="translate(262,566)"/>
<path d="M0 0 C0.66 0.33 1.32 0.66 2 1 C2.109 6.645 1.832 12.019 1.062 17.625 C-0.664 31.323 -0.677 45.213 -1 59 C-2.32 58.67 -3.64 58.34 -5 58 C-7.461 42.926 -8.785 13.178 0 0 Z " fill="#000000" transform="translate(603,588)"/>
<path d="M0 0 C2.062 0.438 2.062 0.438 4 1 C4.33 2.32 4.66 3.64 5 5 C3.02 5.99 3.02 5.99 1 7 C0.01 6.34 -0.98 5.68 -2 5 C-1.125 1.125 -1.125 1.125 0 0 Z " fill="#000000" transform="translate(663,601)"/>
<path d="M0 0 C0.66 0.33 1.32 0.66 2 1 C1.945 1.803 1.889 2.606 1.832 3.433 C0.59 21.618 -0.422 39.78 -1 58 C-2.485 58.495 -2.485 58.495 -4 59 C-5.848 53.455 -5.243 47.43 -5.25 41.625 C-5.252 40.931 -5.253 40.237 -5.255 39.522 C-5.259 9.758 -5.259 9.758 0 0 Z " fill="#000000" transform="translate(705,628)"/>
<path d="M0 0 C0.33 0 0.66 0 1 0 C0.896 0.846 0.791 1.691 0.684 2.562 C0.039 9.479 0.039 9.479 2.969 15.469 C5.389 17.519 5.389 17.519 7.934 19.219 C10.445 21.383 10.695 22.762 11 26 C7 26 7 26 5.402 24.504 C4.919 23.863 4.436 23.223 3.938 22.562 C1.608 19.487 1.608 19.487 -2 18 C-2.107 18.701 -2.214 19.403 -2.324 20.125 C-3.089 23.38 -4.309 26.016 -5.812 29 C-6.314 30.011 -6.815 31.021 -7.332 32.062 C-8.986 34.976 -10.837 37.448 -13 40 C-14.32 39.67 -15.64 39.34 -17 39 C-16.625 38.345 -16.25 37.69 -15.863 37.016 C-8.954 25.622 -8.954 25.622 -6 13 C-8.689 10.918 -8.689 10.918 -12 8.938 C-14.032 7.675 -16.041 6.373 -18 5 C-18 4.34 -18 3.68 -18 3 C-13.938 3.578 -11.152 4.891 -7.688 7.062 C-6.804 7.61 -5.921 8.158 -5.012 8.723 C-4.348 9.144 -3.684 9.566 -3 10 C-2.867 9.362 -2.734 8.724 -2.598 8.066 C-2.421 7.24 -2.244 6.414 -2.062 5.562 C-1.801 4.327 -1.801 4.327 -1.535 3.066 C-1 1 -1 1 0 0 Z " fill="#000000" transform="translate(126,644)"/>
<path d="M0 0 C0.33 0 0.66 0 1 0 C1.161 0.816 1.322 1.631 1.487 2.472 C2.1 5.559 2.72 8.646 3.344 11.731 C3.74 13.698 4.128 15.668 4.516 17.637 C6.143 25.653 8.2 33.312 11 41 C9.68 41 8.36 41 7 41 C1.199 28.751 -0.919 14.499 -1 1 C-0.67 0.67 -0.34 0.34 0 0 Z " fill="#000000" transform="translate(208,671)"/>
<path d="M0 0 C1.32 0.66 2.64 1.32 4 2 C3.25 8.75 3.25 8.75 1 11 C-1.625 10.625 -1.625 10.625 -4 10 C-3.512 3.945 -3.512 3.945 -3 2 C-2.01 1.34 -1.02 0.68 0 0 Z " fill="#000000" transform="translate(656,670)"/>
</svg>
