<?xml version="1.0" encoding="UTF-8"?>
<!-- Generator: visioncortex VTracer 0.6.0 -->
<svg version="1.1" xmlns="http://www.w3.org/2000/svg" width="847" height="847">
<path d="M0 0 C0.99 0.33 1.98 0.66 3 1 C3.33 6.61 3.66 12.22 4 18 C2.68 18 1.36 18 0 18 C-0.195 15.751 -0.381 13.5 -0.562 11.25 C-0.667 9.997 -0.771 8.744 -0.879 7.453 C-0.979 4.605 -0.906 2.657 0 0 Z " fill="#000000" transform="translate(358,32)"/>
<path d="M0 0 C4.146 3.515 8.248 7.077 12.312 10.688 C13.154 11.434 13.996 12.18 14.863 12.949 C17 15 17 15 19 18 C14.163 18 13.349 17.075 9.949 13.992 C0 3.824 0 3.824 0 0 Z " fill="#000000" transform="translate(298,45)"/>
<path d="M0 0 C0.66 0.33 1.32 0.66 2 1 C-11.778 17.259 -11.778 17.259 -17 19 C-17 14.986 -15.663 13.95 -13 11 C-11.164 9.392 -9.287 7.83 -7.375 6.312 C-3.565 3.293 -3.565 3.293 0 0 Z " fill="#000000" transform="translate(411,61)"/>
<path d="M0 0 C16.067 13.356 29.206 30.899 32 52.25 C32.01 53.917 32.011 55.583 32 57.25 C1.4 59.291 -29.2 61.329 -59.8 63.365 C-63.412 63.605 -67.024 63.846 -70.637 64.086 C-71.356 64.134 -72.075 64.182 -72.816 64.231 C-84.461 65.006 -96.107 65.782 -107.752 66.559 C-119.701 67.356 -131.65 68.151 -143.599 68.945 C-150.31 69.392 -157.022 69.838 -163.733 70.287 C-170.048 70.709 -176.363 71.129 -182.679 71.548 C-184.998 71.702 -187.318 71.856 -189.637 72.012 C-192.801 72.224 -195.965 72.434 -199.129 72.643 C-200.049 72.705 -200.97 72.767 -201.918 72.831 C-206.288 73.117 -210.617 73.32 -215 73.25 C-214.507 60.06 -209.864 50.75 -200.438 41.562 C-191.013 33.81 -179.871 31.885 -168.031 32.972 C-157.447 34.42 -150.263 39.784 -143 47.25 C-142.43 47.808 -141.86 48.366 -141.273 48.941 C-140.166 50.028 -139.079 51.135 -138 52.25 C-137.897 51.263 -137.794 50.275 -137.688 49.258 C-134.859 29.701 -120.268 11.307 -105.25 -0.5 C-73.366 -23.35 -31.271 -24.17 0 0 Z " fill="#000000" transform="translate(742,95.75)"/>
<path d="M0 0 C0.764 -0.008 1.529 -0.015 2.316 -0.023 C4.953 0.472 5.838 1.251 7.438 3.375 C7.973 6.969 7.886 8.694 5.875 11.75 C2.565 13.957 0.347 13.724 -3.562 13.375 C-4.901 13.062 -6.236 12.733 -7.562 12.375 C-8.215 13.437 -8.867 14.499 -9.539 15.594 C-13.954 22.744 -18.339 29.777 -23.562 36.375 C-23.249 36.973 -22.936 37.571 -22.613 38.188 C-21.272 40.98 -20.756 43.28 -20.562 46.375 C-21.5 48.688 -21.5 48.688 -23.562 50.375 C-28.278 51.535 -30.453 51.799 -35 50.062 C-37.562 48.375 -37.562 48.375 -38.562 46.375 C-39.095 42.381 -38.916 40.858 -36.5 37.562 C-33.562 35.375 -33.562 35.375 -30.293 35.305 C-24.618 33.891 -22.93 30.098 -19.938 25.312 C-19.391 24.478 -18.844 23.643 -18.281 22.783 C-16.682 20.329 -15.117 17.857 -13.562 15.375 C-13.064 14.581 -12.565 13.787 -12.052 12.969 C-10.885 11.107 -9.723 9.241 -8.562 7.375 C-9.533 7.482 -9.533 7.482 -10.523 7.592 C-17.787 8.331 -24.952 8.496 -32.25 8.438 C-33.893 8.431 -33.893 8.431 -35.568 8.424 C-38.233 8.412 -40.898 8.396 -43.562 8.375 C-43.562 7.715 -43.562 7.055 -43.562 6.375 C-40.07 5.211 -37.091 5.114 -33.41 4.945 C-31.98 4.872 -30.549 4.797 -29.119 4.723 C-26.87 4.609 -24.621 4.5 -22.371 4.401 C-20.196 4.303 -18.022 4.188 -15.848 4.07 C-14.547 4.009 -13.246 3.947 -11.906 3.883 C-7.107 3.154 -4.947 -0.05 0 0 Z " fill="#000000" transform="translate(367.5625,98.625)"/>
<path d="M0 0 C1.037 0.01 2.074 0.021 3.142 0.032 C4.264 0.038 5.385 0.045 6.541 0.051 C7.716 0.068 8.892 0.085 10.103 0.102 C11.878 0.116 11.878 0.116 13.689 0.129 C16.619 0.153 19.548 0.186 22.478 0.227 C22.478 1.217 22.478 2.207 22.478 3.227 C16.237 4.26 10.738 4.064 4.478 3.29 C3.608 3.19 2.738 3.09 1.841 2.987 C-0.281 2.742 -2.402 2.486 -4.522 2.227 C-2.522 0.227 -2.522 0.227 0 0 Z " fill="#000000" transform="translate(265.52197265625,103.77294921875)"/>
<path d="M0 0 C0.927 0.005 1.854 0.009 2.809 0.014 C5.081 0.025 7.353 0.042 9.625 0.062 C9.625 1.052 9.625 2.043 9.625 3.062 C8.625 4.062 8.625 4.062 6.647 4.116 C3.868 4.003 1.09 3.884 -1.688 3.75 C-2.651 3.715 -3.615 3.679 -4.607 3.643 C-6.003 3.578 -6.003 3.578 -7.426 3.512 C-8.278 3.474 -9.131 3.436 -10.009 3.397 C-12.501 3.045 -14.205 2.31 -16.375 1.062 C-10.892 -0.094 -5.572 -0.052 0 0 Z " fill="#000000" transform="translate(430.375,122.9375)"/>
<path d="M0 0 C8.524 7.4 12.673 17.814 14.062 28.875 C14.908 41.269 14.322 53.488 12.52 65.758 C11.854 70.969 11.795 76.19 11.75 81.438 C11.724 82.831 11.724 82.831 11.697 84.253 C11.702 90.702 12.289 96.102 17.062 100.875 C20.466 100.601 23.651 100.257 26.943 99.366 C42.252 95.821 60.047 99.92 73.57 107.25 C80.969 112.075 84.783 119.363 86.75 127.836 C89.501 143.006 87.652 157.738 79.062 170.875 C75.719 175.189 71.941 179.045 68.062 182.875 C67.284 183.652 66.505 184.43 65.703 185.23 C57.166 193.299 48.1 196.437 36.838 199.001 C31.881 200.176 28.036 201.505 24.062 204.875 C22.227 208.518 21.846 211.362 21.973 215.41 C21.993 216.468 22.013 217.526 22.033 218.615 C22.094 220.803 22.159 222.99 22.229 225.178 C22.468 238.845 19.131 250.492 10.062 260.875 C-0.507 269.114 -12.08 273.069 -25.375 273 C-26.113 273.004 -26.851 273.008 -27.611 273.012 C-31.83 273.004 -35.783 272.705 -39.938 271.875 C-40.155 272.535 -40.373 273.195 -40.598 273.875 C-42.395 277.899 -44.82 281.297 -47.375 284.875 C-47.909 285.627 -48.443 286.379 -48.994 287.153 C-52.33 291.791 -55.783 296.287 -59.5 300.625 C-60.331 301.61 -61.162 302.594 -62.018 303.609 C-63.903 305.788 -65.746 307.593 -67.921 309.525 C-71.895 313.179 -75.425 316.831 -76.349 322.32 C-76.609 329.189 -75.581 335.964 -74.625 342.75 C-74.128 346.766 -73.663 350.785 -73.199 354.805 C-73.02 356.283 -73.02 356.283 -72.838 357.79 C-71.627 368.33 -71.039 379.28 -71.938 389.875 C-72.938 390.875 -72.938 390.875 -76 390.938 C-76.969 390.917 -77.939 390.896 -78.938 390.875 C-80.94 379.442 -82.31 367.979 -83.306 356.418 C-83.502 354.17 -83.708 351.923 -83.915 349.676 C-84.593 342.019 -85.004 334.462 -84.938 326.773 C-84.243 311.279 -84.243 311.279 -90.75 298.02 C-94.485 294.878 -98.522 292.424 -102.803 290.1 C-110.551 285.654 -116.121 277.792 -119.938 269.875 C-119.938 269.215 -119.938 268.555 -119.938 267.875 C-121.622 268.291 -121.622 268.291 -123.34 268.715 C-139.288 272.601 -139.288 272.601 -145.938 272.875 C-147.465 272.952 -147.465 272.952 -149.023 273.031 C-162.131 273.385 -177.388 272.167 -187.77 263.312 C-194.248 256.503 -195.471 248.005 -195.375 238.938 C-195.378 238.031 -195.38 237.124 -195.383 236.19 C-195.285 229.834 -194.17 224.276 -192.438 218.188 C-190.872 212.542 -190.872 212.542 -192.242 206.957 C-194.281 204.461 -194.281 204.461 -196.629 202.211 C-204.785 193.958 -207.901 181.033 -208.066 169.734 C-207.807 153.167 -202.376 139.657 -191 127.5 C-187.255 123.894 -182.385 119.875 -176.938 119.875 C-177.226 118.796 -177.515 117.717 -177.812 116.605 C-182.022 99.996 -183.977 82.672 -175.395 67.07 C-168.992 57.196 -159.571 51.004 -148.172 48.285 C-144.245 47.564 -140.359 47.493 -136.375 47.5 C-135.069 47.501 -135.069 47.501 -133.737 47.503 C-122.834 47.7 -112.999 50.768 -102.938 54.875 C-102.846 54.054 -102.754 53.233 -102.66 52.387 C-101.786 48.14 -100.235 44.584 -98.375 40.688 C-98.017 39.937 -97.659 39.187 -97.291 38.414 C-87.05 17.531 -69.697 3.469 -47.938 -4.125 C-32.206 -8.855 -14.01 -9.877 0 0 Z M-42.938 63.875 C-43.928 64.865 -44.917 65.855 -45.938 66.875 C-45.278 68.195 -44.618 69.515 -43.938 70.875 C-42.287 70.545 -40.637 70.215 -38.938 69.875 C-39.433 67.4 -39.433 67.4 -39.938 64.875 C-40.928 64.545 -41.917 64.215 -42.938 63.875 Z M-70.66 114.969 C-77.184 124.705 -79.211 136.472 -77.473 147.941 C-74.787 161.402 -68.656 171.461 -57.559 179.625 C-46.268 186.874 -33.043 190.643 -19.75 187.812 C-8.218 184.445 -1.08 177.085 4.824 166.809 C11.826 153.262 12.983 141.363 8.328 126.715 C5.308 119.938 0.628 117.086 -5.562 113.5 C-10.731 110.441 -15.785 107.381 -20.625 103.812 C-36.163 92.748 -59.531 100.911 -70.66 114.969 Z M-117.75 103 C-119.313 105.467 -119.305 107.005 -118.938 109.875 C-117.11 112.084 -117.11 112.084 -114.5 112.312 C-111.732 112.12 -111.732 112.12 -110 109.625 C-108.692 106.996 -108.692 106.996 -109.438 104.625 C-110.862 102.682 -110.862 102.682 -113.375 101.938 C-115.93 101.641 -115.93 101.641 -117.75 103 Z M26.062 167.875 C25.29 169.712 25.29 169.712 25.062 171.875 C26.417 173.647 26.417 173.647 28.062 174.875 C29.382 174.215 30.702 173.555 32.062 172.875 C31.567 170.4 31.567 170.4 31.062 167.875 C29.413 167.875 27.762 167.875 26.062 167.875 Z M-119.938 178.875 C-120.511 182.818 -120.504 184.969 -118.375 188.375 C-115.909 190.178 -115.909 190.178 -112.375 189.938 C-108.87 189.163 -108.87 189.163 -106.875 186.688 C-105.644 182.996 -106.249 181.328 -107.938 177.875 C-112.356 174.929 -116.261 174.654 -119.938 178.875 Z M-63.125 216.875 C-63.723 217.535 -64.321 218.195 -64.938 218.875 C-63.85 222.125 -63.85 222.125 -61.938 224.875 C-59.479 225.125 -59.479 225.125 -56.938 224.875 C-54.631 222.988 -54.631 222.988 -54.625 219.875 C-54.728 218.885 -54.831 217.895 -54.938 216.875 C-58.583 214.444 -59.806 213.841 -63.125 216.875 Z M-16.938 228.875 C-16.938 230.525 -16.938 232.175 -16.938 233.875 C-14.463 234.37 -14.463 234.37 -11.938 234.875 C-11.278 233.555 -10.618 232.235 -9.938 230.875 C-10.597 229.885 -11.257 228.895 -11.938 227.875 C-14.863 227.651 -14.863 227.651 -16.938 228.875 Z M-122.938 240.875 C-124.583 242.103 -124.583 242.103 -125.938 243.875 C-125.71 246.038 -125.71 246.038 -124.938 247.875 C-123.287 247.875 -121.638 247.875 -119.938 247.875 C-119.608 246.225 -119.278 244.575 -118.938 242.875 C-120.257 242.215 -121.578 241.555 -122.938 240.875 Z M-80.938 246.875 C-81.257 268.141 -81.349 289.821 -77.938 310.875 C-74.393 308.205 -71.659 305.497 -68.938 302 C-65.238 297.379 -61.362 293.004 -57.312 288.688 C-49.124 280.191 -49.124 280.191 -41.938 270.875 C-42.881 270.462 -43.825 270.05 -44.797 269.625 C-57.082 264.145 -67.589 257.258 -77.855 248.562 C-79.62 246.77 -79.62 246.77 -80.938 246.875 Z M-89.305 250.289 C-90.186 250.8 -91.066 251.312 -91.974 251.839 C-93.379 252.661 -93.379 252.661 -94.812 253.5 C-102.406 257.898 -109.998 262.127 -117.938 265.875 C-114.044 277.894 -97.122 287.253 -86.938 293.875 C-86.608 293.875 -86.278 293.875 -85.938 293.875 C-85.882 293.014 -85.827 292.154 -85.77 291.267 C-85.559 287.996 -85.349 284.725 -85.138 281.454 C-85.048 280.053 -84.958 278.652 -84.867 277.251 C-84.238 267.458 -83.594 257.666 -82.938 247.875 C-85.636 247.875 -86.977 248.925 -89.305 250.289 Z " fill="#000000" transform="translate(234.9375,139.125)"/>
<path d="M0 0 C0.66 0 1.32 0 2 0 C1.782 4.706 -0.316 6.691 -3.611 9.705 C-4.214 10.236 -4.817 10.766 -5.438 11.312 C-6.036 11.862 -6.635 12.412 -7.252 12.979 C-11.713 17 -11.713 17 -14 17 C-14.33 17.99 -14.66 18.98 -15 20 C-15.66 20 -16.32 20 -17 20 C-15.509 16.486 -13.494 14.315 -10.75 11.688 C-7.858 8.874 -5.127 6.053 -2.562 2.938 C-1.294 1.483 -1.294 1.483 0 0 Z " fill="#000000" transform="translate(306,153)"/>
<path d="M0 0 C3.152 1.393 5.262 3.025 7.672 5.477 C8.336 6.147 9 6.817 9.684 7.508 C10.366 8.206 11.047 8.905 11.75 9.625 C12.447 10.331 13.145 11.038 13.863 11.766 C15.58 13.506 17.292 15.251 19 17 C18.67 17.66 18.34 18.32 18 19 C3.812 6.44 3.812 6.44 0 2 C0 1.34 0 0.68 0 0 Z " fill="#000000" transform="translate(391,158)"/>
<path d="M0 0 C0.66 0.33 1.32 0.66 2 1 C3.273 6.075 3.116 11.181 3.062 16.375 C3.058 17.206 3.053 18.038 3.049 18.895 C3.037 20.93 3.019 22.965 3 25 C2.34 24.67 1.68 24.34 1 24 C0.573 21.791 0.573 21.791 0.332 18.906 C0.244 17.876 0.155 16.846 0.064 15.785 C-0.06 14.159 -0.06 14.159 -0.188 12.5 C-0.282 11.416 -0.377 10.332 -0.475 9.215 C-0.96 3.291 -0.96 3.291 -1 1 C-0.67 0.67 -0.34 0.34 0 0 Z " fill="#000000" transform="translate(356,179)"/>
<path d="M0 0 C6.27 0 12.54 0 19 0 C19 0.33 19 0.66 19 1 C12.73 1 6.46 1 0 1 C0 0.67 0 0.34 0 0 Z " fill="#000000" transform="translate(634,230)"/>
<path d="M0 0 C8.25 0 16.5 0 25 0 C25 0.33 25 0.66 25 1 C16.75 1 8.5 1 0 1 C0 0.67 0 0.34 0 0 Z " fill="#000000" transform="translate(602,231)"/>
<path d="M0 0 C2.662 -0.077 5.322 -0.128 7.985 -0.168 C8.75 -0.19 9.516 -0.212 10.304 -0.235 C14.668 -0.261 17.219 0.195 20.431 3.221 C21.341 4.489 22.218 5.78 23.056 7.096 C24.052 8.079 25.052 9.059 26.056 10.033 C29.137 14.75 27.487 18.972 26.418 24.243 C25.581 28.171 24.709 32.091 23.83 36.01 C23.491 37.533 23.152 39.055 22.814 40.578 C21.887 44.747 20.955 48.915 20.022 53.083 C19.224 56.647 18.43 60.211 17.635 63.776 C11.247 92.42 4.8 121.052 -1.654 149.681 C-2.381 152.908 -3.108 156.135 -3.835 159.362 C-8.841 181.585 -13.867 203.803 -18.968 226.005 C-20.322 231.903 -21.671 237.803 -23.02 243.703 C-24.283 249.224 -25.556 254.744 -26.837 260.262 C-27.617 263.628 -28.387 266.997 -29.154 270.366 C-29.509 271.915 -29.867 273.462 -30.23 275.009 C-30.723 277.111 -31.202 279.216 -31.678 281.323 C-31.948 282.494 -32.219 283.665 -32.497 284.872 C-33.231 290.169 -32.147 294.222 -29.713 298.905 C-29.013 300.256 -29.013 300.256 -28.299 301.635 C-27.79 302.591 -27.281 303.548 -26.756 304.533 C-26.229 305.534 -25.701 306.534 -25.158 307.565 C-17.522 321.858 -9.025 335.678 0.056 349.096 C-21.185 351.207 -21.185 351.207 -27.037 346.729 C-28.721 343.907 -30.045 341.17 -31.166 338.082 C-32.578 334.475 -34.567 331.164 -36.444 327.783 C-37.622 325.56 -38.783 323.328 -39.944 321.096 C-41.737 324.325 -42.625 327.44 -43.465 331.031 C-43.75 332.238 -44.035 333.446 -44.329 334.69 C-44.637 336.018 -44.944 337.346 -45.252 338.674 C-45.578 340.064 -45.904 341.453 -46.231 342.842 C-47.106 346.571 -47.975 350.301 -48.842 354.031 C-49.56 357.113 -50.281 360.194 -51.002 363.275 C-57.069 389.195 -63.046 415.137 -68.944 441.096 C-73.942 442.705 -77.996 441.381 -82.904 440.104 C-83.79 439.883 -84.676 439.662 -85.589 439.434 C-87.501 438.955 -89.413 438.472 -91.323 437.985 C-96.418 436.686 -101.521 435.421 -106.623 434.151 C-108.178 433.762 -108.178 433.762 -109.765 433.366 C-119.631 430.906 -129.53 428.606 -139.444 426.346 C-142.661 425.61 -145.879 424.873 -149.096 424.135 C-149.861 423.96 -150.625 423.784 -151.413 423.604 C-159.439 421.759 -167.444 419.83 -175.446 417.884 C-182.612 416.142 -189.781 414.416 -196.955 412.709 C-241.651 402.074 -286.259 391.102 -330.774 379.737 C-342.124 376.84 -353.474 373.947 -364.85 371.155 C-366.16 370.832 -366.16 370.832 -367.497 370.503 C-371.388 369.545 -375.28 368.595 -379.175 367.657 C-380.48 367.338 -381.784 367.018 -383.088 366.698 C-384.185 366.433 -385.282 366.168 -386.412 365.895 C-388.944 365.096 -388.944 365.096 -390.944 363.096 C-390.772 362.571 -390.6 362.046 -390.424 361.505 C-386.362 349.077 -382.304 336.648 -378.248 324.218 C-376.147 317.779 -374.042 311.34 -371.935 304.903 C-370.721 301.194 -369.509 297.484 -368.298 293.774 C-367.729 292.032 -367.159 290.29 -366.587 288.548 C-365.797 286.139 -365.01 283.729 -364.225 281.319 C-363.874 280.255 -363.874 280.255 -363.517 279.17 C-362.341 275.704 -362.341 275.704 -361.944 272.096 C-368.214 270.116 -374.484 268.136 -380.944 266.096 C-379.444 263.096 -378.472 261.345 -376.362 258.951 C-375.591 258.071 -375.591 258.071 -374.806 257.173 C-374.253 256.55 -373.7 255.926 -373.131 255.283 C-371.953 253.938 -370.774 252.593 -369.596 251.248 C-368.991 250.561 -368.386 249.874 -367.763 249.166 C-364.895 245.903 -362.043 242.626 -359.194 239.346 C-358.7 238.782 -358.207 238.217 -357.698 237.636 C-356.711 236.501 -355.731 235.36 -354.759 234.212 C-353.47 232.709 -352.154 231.23 -350.82 229.767 C-344.883 223.002 -341.829 216.838 -339.279 208.264 C-338.68 206.365 -338.08 204.467 -337.479 202.568 C-336.845 200.546 -336.224 198.519 -335.606 196.492 C-334.293 192.188 -332.946 187.896 -331.593 183.606 C-330.164 179.074 -328.737 174.542 -327.321 170.007 C-323.999 159.377 -320.584 148.781 -317.096 138.205 C-316.854 137.473 -316.613 136.741 -316.364 135.987 C-315.148 132.302 -313.93 128.618 -312.711 124.934 C-310.299 117.641 -307.897 110.343 -305.498 103.045 C-305.148 101.98 -305.148 101.98 -304.79 100.893 C-299.008 83.298 -293.34 65.668 -287.701 48.027 C-284.669 38.545 -281.632 29.065 -278.51 19.612 C-278.139 18.478 -278.139 18.478 -277.76 17.322 C-276.061 12.214 -276.061 12.214 -274.944 11.096 C-265.969 9.718 -256.756 9.776 -247.694 9.533 C-246.942 9.512 -246.191 9.491 -245.417 9.469 C-229.591 9.028 -213.774 8.986 -197.944 9.096 C-197.944 9.426 -197.944 9.756 -197.944 10.096 C-222.364 11.086 -246.784 12.076 -271.944 13.096 C-272.934 16.726 -273.924 20.356 -274.944 24.096 C-275.559 26.091 -276.193 28.081 -276.856 30.06 C-277.379 31.629 -277.379 31.629 -277.912 33.229 C-278.471 34.889 -278.471 34.889 -279.041 36.584 C-279.656 38.424 -280.271 40.265 -280.886 42.106 C-281.542 44.067 -282.2 46.027 -282.857 47.988 C-284.246 52.127 -285.63 56.268 -287.014 60.409 C-290.213 69.982 -293.418 79.553 -296.623 89.124 C-300.243 99.932 -303.86 110.742 -307.471 121.553 C-307.704 122.252 -307.938 122.951 -308.178 123.671 C-314.586 142.855 -320.902 162.063 -326.9 181.38 C-331.196 195.216 -335.84 208.937 -340.457 222.668 C-342.657 229.217 -344.839 235.773 -347.021 242.328 C-347.76 244.545 -348.499 246.762 -349.239 248.979 C-351.697 256.346 -354.15 263.715 -356.591 271.089 C-364.175 294 -371.924 316.843 -379.925 339.612 C-380.213 340.433 -380.502 341.254 -380.799 342.1 C-381.077 342.891 -381.355 343.682 -381.642 344.497 C-383.808 350.676 -385.907 356.874 -387.944 363.096 C-387.02 363.215 -387.02 363.215 -386.079 363.336 C-376.338 364.766 -366.945 367.35 -357.446 369.887 C-335.974 375.611 -314.422 380.96 -292.819 386.158 C-292.114 386.328 -291.41 386.497 -290.685 386.672 C-289.261 387.015 -287.836 387.357 -286.412 387.7 C-282.895 388.546 -279.378 389.393 -275.862 390.241 C-275.175 390.406 -274.488 390.571 -273.78 390.742 C-261.839 393.619 -249.926 396.597 -238.02 399.615 C-198.716 409.565 -159.088 418.131 -119.466 426.709 C-116.317 427.392 -113.17 428.081 -110.022 428.771 C-105.957 429.662 -101.888 430.528 -97.814 431.378 C-95.866 431.795 -93.919 432.213 -91.971 432.631 C-91.104 432.806 -90.236 432.982 -89.343 433.162 C-83.003 434.545 -77.622 436.979 -71.944 440.096 C-71.71 438.849 -71.477 437.603 -71.237 436.319 C-69.695 428.625 -67.793 421.016 -65.947 413.391 C-63.894 404.896 -61.874 396.393 -59.849 387.892 C-59.221 385.261 -58.593 382.63 -57.964 380 C-56.042 371.959 -54.131 363.916 -52.243 355.867 C-51.387 352.22 -50.526 348.575 -49.652 344.933 C-48.821 341.469 -48.005 338.001 -47.198 334.531 C-46.754 332.635 -46.295 330.743 -45.836 328.851 C-44.307 322.199 -43.707 316.805 -44.944 310.096 C-45.5 302.595 -44.243 296.2 -42.069 289.033 C-41.664 287.611 -41.664 287.611 -41.252 286.16 C-39.748 281.044 -39.748 281.044 -38.944 279.096 C-38.284 278.766 -37.624 278.436 -36.944 278.096 C-36.614 280.076 -36.284 282.056 -35.944 284.096 C-26.703 243.581 -17.546 203.047 -8.445 162.501 C-7.807 159.659 -7.169 156.817 -6.531 153.975 C-6.109 152.092 -5.686 150.209 -5.264 148.326 C-2.326 135.241 0.619 122.158 3.572 109.076 C3.75 108.288 3.928 107.5 4.112 106.687 C4.466 105.117 4.821 103.546 5.175 101.976 C8.477 87.351 11.771 72.725 15.056 58.096 C15.318 56.933 15.579 55.771 15.848 54.573 C17.229 48.423 18.604 42.272 19.969 36.118 C20.353 34.385 20.74 32.653 21.128 30.921 C21.641 28.634 22.146 26.346 22.65 24.057 C23.063 22.198 23.063 22.198 23.484 20.301 C24.522 14.912 24.522 14.912 22.84 9.88 C19.822 6.495 17.452 4.398 12.946 3.423 C8.893 3.22 4.92 3.307 0.869 3.471 C-0.738 3.506 -2.345 3.537 -3.953 3.565 C-8.782 3.662 -13.608 3.819 -18.435 3.982 C-22.299 4.108 -26.164 4.219 -30.029 4.327 C-31.092 4.357 -31.092 4.357 -32.176 4.387 C-33.642 4.428 -35.108 4.469 -36.575 4.51 C-46.34 4.782 -56.106 5.06 -65.87 5.383 C-83.571 5.96 -101.231 6.234 -118.944 6.096 C-118.944 5.766 -118.944 5.436 -118.944 5.096 C-104.147 4.439 -89.351 3.787 -74.554 3.14 C-67.682 2.84 -60.81 2.538 -53.937 2.232 C-47.292 1.937 -40.646 1.645 -33.999 1.357 C-31.478 1.247 -28.956 1.135 -26.435 1.022 C-17.625 0.627 -8.814 0.287 0 0 Z " fill="#000000" transform="translate(798.9435386657715,222.90402221679688)"/>
<path d="M0 0 C3.159 2.476 5.514 5.216 7.312 8.812 C7.914 14.826 6.59 18.881 3.312 23.812 C-0.316 27.642 -4.441 29.493 -9.688 29.812 C-14.94 28.324 -17.672 26.335 -20.688 21.812 C-22.666 17.856 -22.108 13.125 -21.688 8.812 C-19.525 3.857 -16.582 1.64 -11.773 -0.496 C-7.482 -1.919 -4.111 -1.817 0 0 Z " fill="#000000" transform="translate(697.6875,249.1875)"/>
<path d="M0 0 C0.99 0 1.98 0 3 0 C2.125 4.75 2.125 4.75 1 7 C0.01 7 -0.98 7 -2 7 C-2 6.01 -2 5.02 -2 4 C-3.98 4 -5.96 4 -8 4 C-8 3.34 -8 2.68 -8 2 C-6.866 1.856 -5.731 1.711 -4.562 1.562 C-1.192 1.388 -1.192 1.388 0 0 Z " fill="#000000" transform="translate(601,271)"/>
<path d="M0 0 C9.9 0 19.8 0 30 0 C30 0.33 30 0.66 30 1 C19.662 2.156 9.384 2.098 -1 2 C-0.67 1.34 -0.34 0.68 0 0 Z " fill="#000000" transform="translate(541,281)"/>
<path d="M0 0 C0.495 0.99 0.495 0.99 1 2 C-3.521 3.137 -7.953 3.128 -12.582 3.098 C-13.803 3.096 -13.803 3.096 -15.049 3.093 C-17.637 3.088 -20.225 3.075 -22.812 3.062 C-24.572 3.057 -26.332 3.053 -28.092 3.049 C-32.395 3.038 -36.697 3.021 -41 3 C-41 2.34 -41 1.68 -41 1 C-27.318 0.231 -13.704 -0.132 0 0 Z " fill="#000000" transform="translate(576,284)"/>
<path d="M0 0 C0 0.33 0 0.66 0 1 C-3.786 1.863 -7.391 2.186 -11.27 2.316 C-12.482 2.358 -13.694 2.4 -14.943 2.444 C-16.858 2.502 -16.858 2.502 -18.812 2.562 C-20.111 2.605 -21.409 2.647 -22.747 2.691 C-31.835 2.973 -40.908 3.129 -50 3 C-49.67 2.34 -49.34 1.68 -49 1 C-44.272 0.855 -39.544 0.713 -34.815 0.573 C-33.214 0.525 -31.612 0.477 -30.01 0.427 C-20.002 0.12 -10.014 -0.073 0 0 Z " fill="#000000" transform="translate(580,288)"/>
<path d="M0 0 C-3.208 0.954 -6.082 1.116 -9.422 1.098 C-10.447 1.094 -11.471 1.091 -12.527 1.088 C-13.591 1.08 -14.654 1.071 -15.75 1.062 C-16.829 1.058 -17.908 1.053 -19.02 1.049 C-21.68 1.037 -24.34 1.021 -27 1 C-27 0.67 -27 0.34 -27 0 C-22.876 -0.392 -18.751 -0.761 -14.625 -1.125 C-12.862 -1.293 -12.862 -1.293 -11.062 -1.465 C-9.38 -1.61 -9.38 -1.61 -7.664 -1.758 C-6.627 -1.852 -5.59 -1.946 -4.522 -2.043 C-2 -2 -2 -2 0 0 Z " fill="#000000" transform="translate(583,292)"/>
<path d="M0 0 C11.074 -0.153 22.1 0.198 33.165 0.642 C41.117 0.953 49.041 1.132 57 1 C57 1.66 57 2.32 57 3 C52.414 4.149 47.886 4.191 43.188 4.188 C41.866 4.188 41.866 4.188 40.517 4.189 C26.659 4.087 12.818 2.974 -1 2 C-0.67 1.34 -0.34 0.68 0 0 Z " fill="#000000" transform="translate(528,293)"/>
<path d="M0 0 C1.32 0 2.64 0 4 0 C3.497 4.401 1.912 6.712 -1 10 C-1.99 9.67 -2.98 9.34 -4 9 C-3.477 5.233 -2.726 2.726 0 0 Z M-1 5 C-1.33 5.66 -1.66 6.32 -2 7 C-1.34 7 -0.68 7 0 7 C-0.33 6.34 -0.66 5.68 -1 5 Z " fill="#000000" transform="translate(601,295)"/>
<path d="M0 0 C12.494 -0.14 24.937 0.145 37.419 0.732 C45.713 1.076 53.735 0.755 62 0 C62 1.32 62 2.64 62 4 C56.187 5.665 51.033 6.319 45 6.25 C44.152 6.245 43.304 6.241 42.43 6.236 C28.577 6.047 14.755 4.572 1 3 C0.67 2.01 0.34 1.02 0 0 Z " fill="#000000" transform="translate(525,297)"/>
<path d="M0 0 C0.747 0.059 1.494 0.118 2.264 0.179 C10.628 0.833 18.994 1.445 27.366 1.985 C28.789 2.078 30.212 2.175 31.634 2.276 C42.935 3.072 53.8 2.961 65 1 C65 1.99 65 2.98 65 4 C56.679 7.238 48.774 7.437 39.938 7.312 C38.551 7.302 37.164 7.293 35.777 7.283 C23.183 7.149 11.208 6.189 -1 3 C-0.67 2.01 -0.34 1.02 0 0 Z " fill="#000000" transform="translate(524,301)"/>
<path d="M0 0 C1.646 0.145 3.292 0.291 4.938 0.438 C6.312 0.559 6.312 0.559 7.715 0.684 C9.45 0.851 11.185 1.024 12.915 1.243 C20.923 2.242 28.96 2.337 37.021 2.518 C38.147 2.552 39.273 2.586 40.434 2.621 C41.455 2.646 42.477 2.671 43.529 2.697 C46 3 46 3 48 5 C35.328 12.107 13.571 7.662 0 4 C0 2.68 0 1.36 0 0 Z " fill="#000000" transform="translate(522,306)"/>
<path d="M0 0 C0 0.99 0 1.98 0 3 C-3.31 4.655 -6.991 4.101 -10.625 4.062 C-11.427 4.058 -12.229 4.053 -13.055 4.049 C-15.036 4.037 -17.018 4.019 -19 4 C-19 3.67 -19 3.34 -19 3 C-17.88 2.867 -16.76 2.734 -15.605 2.598 C-14.133 2.419 -12.66 2.241 -11.188 2.062 C-10.45 1.975 -9.712 1.888 -8.951 1.799 C-5.833 1.418 -2.989 0.996 0 0 Z " fill="#000000" transform="translate(589,306)"/>
<path d="M0 0 C4.257 3.429 6.817 6.759 7.594 12.238 C8.295 25.201 1.265 34.738 -6.111 44.689 C-11.755 52.379 -15.638 60.822 -18.75 69.812 C-17.781 69.256 -16.811 68.699 -15.812 68.125 C-15.172 67.764 -14.531 67.403 -13.871 67.031 C-12.431 66.204 -11.007 65.348 -9.598 64.469 C-3.771 60.946 1.451 58.94 8.312 60.188 C15.86 62.546 21.742 68.501 26.25 74.812 C28.027 78.367 27.849 81.939 27.25 85.812 C22.441 97.766 4.788 104.878 -6.052 110.15 C-12.838 113.54 -18.898 117.403 -22.59 124.199 C-23.133 125.833 -23.133 125.833 -23.688 127.5 C-24.068 128.597 -24.448 129.694 -24.84 130.824 C-25.547 133.146 -26.204 135.449 -26.75 137.812 C-25.739 137.482 -24.729 137.153 -23.688 136.812 C-18.703 135.423 -14.606 134.844 -9.875 137.312 C-7.613 139.974 -6.694 141.888 -6.516 145.398 C-7.755 158.169 -16.971 170.341 -23.223 181.149 C-26.181 186.308 -28.974 191.554 -31.75 196.812 C-32.08 196.812 -32.41 196.812 -32.75 196.812 C-33.084 189.961 -32.186 184.919 -29.688 178.562 C-29.377 177.744 -29.066 176.926 -28.746 176.083 C-25.979 168.99 -22.62 162.365 -18.75 155.812 C-19.41 155.812 -20.07 155.812 -20.75 155.812 C-20.998 156.326 -21.245 156.839 -21.5 157.367 C-23.158 160.61 -24.949 163.773 -26.75 166.938 C-27.106 167.57 -27.462 168.203 -27.828 168.855 C-29.304 171.45 -30.629 173.692 -32.75 175.812 C-32.776 169.164 -32.793 162.515 -32.805 155.866 C-32.81 153.613 -32.817 151.359 -32.825 149.105 C-32.866 138.266 -32.902 127.425 -32.434 116.594 C-32.411 115.885 -32.389 115.177 -32.366 114.447 C-31.884 105.418 -26.8 99.556 -20.562 93.5 C-15.498 89.25 -9.756 86.495 -3.75 83.812 C-15.212 86.593 -23.535 91.4 -30.75 100.812 C-31.599 97.932 -31.817 95.622 -31.551 92.637 C-31.478 91.82 -31.405 91.004 -31.331 90.163 C-31.198 88.845 -31.198 88.845 -31.062 87.5 C-30.971 86.58 -30.88 85.66 -30.787 84.712 C-28.277 60.972 -24.427 35.926 -10.75 15.812 C-37.552 46.104 -35.446 97.468 -36.312 135.375 C-36.356 137.176 -36.399 138.978 -36.443 140.779 C-36.549 145.124 -36.65 149.468 -36.75 153.812 C-39.475 151.088 -40.789 147.807 -42.438 144.375 C-47.755 133.599 -53.707 124.546 -61.969 115.797 C-68.357 109.01 -74.043 101.859 -78.75 93.812 C-78.75 100.659 -72.434 106.86 -68.316 111.758 C-56.537 125.779 -47.048 139.5 -40.75 156.812 C-40.486 157.51 -40.222 158.207 -39.95 158.925 C-37.428 166.279 -37.362 173.196 -37.457 180.914 C-37.461 182.232 -37.466 183.549 -37.47 184.907 C-37.481 188.376 -37.511 191.844 -37.544 195.313 C-37.575 198.866 -37.588 202.419 -37.604 205.973 C-37.635 212.919 -37.687 219.866 -37.75 226.812 C-38.08 226.812 -38.41 226.812 -38.75 226.812 C-38.815 226.054 -38.879 225.296 -38.946 224.515 C-42.176 187.749 -47.971 154.104 -75.098 127.531 C-92.764 110.197 -92.764 110.197 -94.125 98.625 C-93.241 89.642 -89.797 81.641 -82.75 75.812 C-79.66 74.498 -78.12 74.349 -74.949 75.422 C-69.975 77.695 -65.674 80.924 -61.34 84.227 C-58.251 86.118 -55.251 86.947 -51.75 87.812 C-51.698 86.895 -51.698 86.895 -51.646 85.958 C-49.959 57.875 -45.55 25.948 -23.992 5.621 C-17.285 0.211 -8.362 -3.611 0 0 Z " fill="#000000" transform="translate(398.75,310.1875)"/>
<path d="M0 0 C-1 3 -1 3 -2.875 4.188 C-5 5 -5 5 -8 5 C-8 4.34 -8 3.68 -8 3 C-2.25 0 -2.25 0 0 0 Z " fill="#000000" transform="translate(591,310)"/>
<path d="M0 0 C0.583 0.086 1.165 0.171 1.766 0.26 C12.908 1.881 23.916 3.316 35.176 3.691 C36.108 3.793 37.04 3.895 38 4 C38.495 4.99 38.495 4.99 39 6 C32.565 9.218 22.683 6.876 15.688 6.125 C14.559 6.007 14.559 6.007 13.408 5.887 C8.752 5.351 4.472 4.406 0 3 C0 2.01 0 1.02 0 0 Z " fill="#000000" transform="translate(522,311)"/>
<path d="M0 0 C4.847 4.293 4.847 4.293 5.168 7.875 C5.174 8.576 5.181 9.277 5.188 10 C5.202 10.701 5.216 11.402 5.23 12.125 C5 14 5 14 3 16 C6.96 15.505 6.96 15.505 11 15 C9 18 9 18 6.793 18.512 C5.933 18.57 5.073 18.628 4.188 18.688 C3.335 18.753 2.483 18.819 1.605 18.887 C0.746 18.924 -0.114 18.961 -1 19 C-2.296 19.104 -2.296 19.104 -3.617 19.211 C-6.613 18.946 -7.388 18.201 -9.312 15.938 C-11.454 13.191 -12.016 11.918 -12.688 8.375 C-11.824 4.137 -10.356 2.653 -7 0 C-3.804 -1.065 -3.03 -1.194 0 0 Z " fill="#000000" transform="translate(577,312)"/>
<path d="M0 0 C1.475 0.199 1.475 0.199 2.98 0.402 C14.638 1.908 26.258 2.564 38 3 C37.67 3.99 37.34 4.98 37 6 C24.876 6.542 11.602 5.867 0 2 C0 1.34 0 0.68 0 0 Z " fill="#000000" transform="translate(522,316)"/>
<path d="M0 0 C1.235 0.133 2.47 0.266 3.742 0.402 C5.453 0.582 7.164 0.76 8.875 0.938 C9.769 1.03 10.664 1.123 11.585 1.219 C18.529 1.913 25.462 2.359 32.437 2.57 C37.786 2.786 37.786 2.786 40 5 C5.764 5.575 5.764 5.575 1.341 1.454 C0.898 0.974 0.456 0.494 0 0 Z " fill="#000000" transform="translate(523,323)"/>
<path d="M0 0 C1.116 0.144 2.233 0.289 3.383 0.438 C13.599 1.675 23.581 2.191 33.875 1.926 C34.762 1.909 35.649 1.892 36.562 1.875 C37.348 1.852 38.133 1.829 38.941 1.805 C41 2 41 2 44 4 C41.205 6.795 33.124 6.119 29.188 6.25 C19.728 6.183 9 5 0 2 C0 1.34 0 0.68 0 0 Z " fill="#000000" transform="translate(525,327)"/>
<path d="M0 0 C-5.143 5.571 -5.143 5.571 -9 6 C-9.33 4.68 -9.66 3.36 -10 2 C-6.275 -0.661 -4.421 -1.39 0 0 Z M-4 0 C-3.67 0.66 -3.34 1.32 -3 2 C-2.67 1.34 -2.34 0.68 -2 0 C-2.66 0 -3.32 0 -4 0 Z " fill="#000000" transform="translate(617,328)"/>
<path d="M0 0 C0.833 0.144 0.833 0.144 1.683 0.291 C20.484 3.427 39.104 3.663 58 1 C51.798 7.202 36.791 6.361 28.5 6.438 C18.99 6.412 9.94 5.431 1 2 C0.67 1.34 0.34 0.68 0 0 Z " fill="#000000" transform="translate(527,331)"/>
<path d="M0 0 C0.548 0.091 1.097 0.182 1.661 0.275 C4.21 0.693 6.761 1.096 9.312 1.5 C10.174 1.643 11.036 1.786 11.924 1.934 C22.419 3.572 32.215 3.066 42.688 1.5 C43.687 1.357 44.687 1.214 45.717 1.066 C48.146 0.718 50.573 0.362 53 0 C50.448 3.119 47.854 4.002 44 5 C40.971 5.259 40.971 5.259 37.781 5.266 C36.02 5.272 36.02 5.272 34.224 5.278 C32.381 5.264 32.381 5.264 30.5 5.25 C29.247 5.244 27.993 5.238 26.702 5.232 C8.333 5.035 8.333 5.035 2 3 C1.34 2.01 0.68 1.02 0 0 Z " fill="#000000" transform="translate(530,335)"/>
<path d="M0 0 C1.65 0.33 3.3 0.66 5 1 C4.893 1.713 4.786 2.426 4.676 3.16 C3.89 9.439 3.566 13.573 7 19 C10.16 21.555 12.949 23.377 17 24 C17.268 23.031 17.536 22.061 17.812 21.062 C18.204 20.052 18.596 19.041 19 18 C19.99 17.67 20.98 17.34 22 17 C24.915 19.535 24.915 19.535 25.375 22.062 C25.684 23.022 25.684 23.022 26 24 C28.49 25.297 28.49 25.297 31 26 C30.801 28.328 30.801 28.328 30 31 C27.855 32.547 27.855 32.547 25.188 33.75 C24.315 34.157 23.442 34.565 22.543 34.984 C17.861 36.854 14.064 37.097 9 37 C8.375 34.625 8.375 34.625 8 32 C8.66 31.34 9.32 30.68 10 30 C9.469 29.709 8.938 29.417 8.391 29.117 C2.632 25.775 -0.833 22.5 -3 16 C-3.544 9.924 -3.345 5.296 0 0 Z " fill="#000000" transform="translate(714,337)"/>
<path d="M0 0 C19.005 0.964 19.005 0.964 27 2 C27 2.33 27 2.66 27 3 C24 3.054 21.001 3.094 18 3.125 C17.161 3.142 16.322 3.159 15.457 3.176 C9.947 3.218 5.29 2.555 0 1 C0 0.67 0 0.34 0 0 Z " fill="#000000" transform="translate(536,341)"/>
<path d="M0 0 C8.25 0 16.5 0 25 0 C25.33 0.66 25.66 1.32 26 2 C17.461 4.476 8.507 2.843 0 1 C0 0.67 0 0.34 0 0 Z " fill="#000000" transform="translate(543,345)"/>
<path d="M0 0 C-1.319 4.026 -2.728 7.999 -4.23 11.96 C-11.121 30.308 -17.176 48.822 -22.879 67.57 C-24.05 71.412 -25.231 75.252 -26.412 79.091 C-26.65 79.867 -26.889 80.642 -27.134 81.441 C-27.617 83.012 -28.101 84.583 -28.584 86.154 C-29.307 88.506 -30.029 90.858 -30.751 93.21 C-35.459 108.542 -40.279 123.837 -45.125 139.125 C-45.5 140.31 -45.876 141.494 -46.263 142.715 C-46.809 144.437 -46.809 144.437 -47.365 146.195 C-48.059 148.382 -48.752 150.57 -49.445 152.758 C-49.766 153.769 -50.087 154.781 -50.417 155.823 C-52.649 162.871 -54.846 169.928 -57 177 C-127.997 163.413 -127.997 163.413 -163.188 155.438 C-164.128 155.226 -165.068 155.014 -166.037 154.796 C-168.665 154.203 -171.292 153.601 -173.918 152.996 C-175.069 152.736 -175.069 152.736 -176.243 152.47 C-179.725 151.656 -182.899 150.816 -186 149 C-186 148.01 -186 147.02 -186 146 C-182.978 146.622 -179.958 147.247 -176.938 147.875 C-176.09 148.049 -175.242 148.223 -174.369 148.402 C-169.509 149.416 -164.754 150.568 -160 152 C-159.836 151.419 -159.673 150.838 -159.504 150.239 C-157.495 143.306 -155.051 136.601 -152.438 129.875 C-152.006 128.759 -151.574 127.642 -151.129 126.492 C-148.01 118.478 -144.794 110.506 -141.5 102.562 C-141.079 101.545 -140.658 100.527 -140.224 99.478 C-139.634 98.068 -139.634 98.068 -139.031 96.629 C-138.686 95.805 -138.342 94.98 -137.986 94.131 C-137 92 -137 92 -135 89 C-134.01 89.495 -134.01 89.495 -133 90 C-140.937 111.024 -148.896 132.039 -157 153 C-155.87 153.18 -155.87 153.18 -154.718 153.363 C-148.176 154.424 -141.709 155.642 -135.25 157.125 C-134.446 157.307 -133.641 157.489 -132.812 157.676 C-130.874 158.114 -128.937 158.557 -127 159 C-126.885 158.134 -126.771 157.268 -126.653 156.375 C-125.99 152.949 -124.963 150.181 -123.559 146.992 C-123.061 145.85 -122.564 144.708 -122.051 143.531 C-121.519 142.325 -120.986 141.118 -120.438 139.875 C-119.336 137.353 -118.24 134.829 -117.145 132.305 C-116.873 131.679 -116.601 131.054 -116.321 130.41 C-113.972 124.984 -111.776 119.506 -109.625 114 C-106.793 106.778 -103.672 99.843 -100 93 C-98.856 96.431 -99.116 97.02 -100.344 100.277 C-100.843 101.611 -100.843 101.611 -101.352 102.972 C-101.731 103.95 -102.11 104.929 -102.5 105.938 C-102.889 106.961 -103.277 107.985 -103.677 109.04 C-106.315 115.896 -109.099 122.684 -111.941 129.457 C-112.281 130.266 -112.62 131.075 -112.969 131.908 C-114.674 135.965 -116.389 140.017 -118.121 144.062 C-118.759 145.568 -119.397 147.073 -120.035 148.578 C-120.335 149.269 -120.634 149.96 -120.943 150.671 C-122.38 154.077 -123 156.234 -123 160 C-119.897 160.672 -116.792 161.336 -113.688 162 C-112.806 162.191 -111.925 162.382 -111.018 162.578 C-110.17 162.759 -109.322 162.939 -108.449 163.125 C-107.279 163.376 -107.279 163.376 -106.085 163.633 C-103.86 164.087 -103.86 164.087 -101 164 C-102.299 162.793 -102.299 162.793 -103.625 161.562 C-105.005 159.862 -105.005 159.862 -106 158 C-104.948 149.257 -100.973 141.231 -97.562 133.188 C-96.281 130.152 -95.003 127.114 -93.73 124.074 C-93.411 123.313 -93.092 122.551 -92.763 121.767 C-90.721 116.854 -88.832 111.907 -87.051 106.895 C-78.561 83.214 -78.561 83.214 -67 77 C-66.34 77.33 -65.68 77.66 -65 78 C-65.27 78.72 -65.541 79.441 -65.819 80.183 C-71.846 96.291 -77.563 112.47 -82.947 128.804 C-87.065 141.296 -91.42 153.668 -96 166 C-81.15 168.475 -81.15 168.475 -66 171 C-66.66 170.01 -67.32 169.02 -68 168 C-68.609 161.917 -66.996 157.022 -65.062 151.355 C-64.751 150.414 -64.44 149.473 -64.119 148.503 C-63.443 146.465 -62.762 144.428 -62.078 142.392 C-60.604 138.009 -59.153 133.618 -57.701 129.227 C-56.942 126.932 -56.181 124.637 -55.42 122.342 C-51.834 111.534 -48.334 100.699 -44.867 89.852 C-43.875 86.751 -42.879 83.651 -41.883 80.552 C-38.534 70.107 -35.271 59.642 -32.129 49.133 C-31.196 46.038 -30.261 42.943 -29.327 39.848 C-28.462 36.956 -27.62 34.058 -26.779 31.159 C-21.905 14.762 -21.905 14.762 -15 9 C-14.255 8.26 -13.51 7.52 -12.742 6.758 C-5.014 0 -5.014 0 0 0 Z " fill="#000000" transform="translate(638,366)"/>
<path d="M0 0 C-1.287 3.262 -2.64 6.481 -4.066 9.684 C-12.018 27.874 -17.533 46.578 -22.859 65.656 C-26.565 78.813 -30.561 91.838 -34.84 104.82 C-35.059 105.485 -35.278 106.149 -35.503 106.834 C-37.738 113.616 -39.983 120.395 -42.25 127.167 C-47.098 141.657 -51.634 156.087 -55 171 C-53.02 171.33 -51.04 171.66 -49 172 C-46.45 162.354 -43.92 152.704 -41.423 143.044 C-12.496 31.153 -12.496 31.153 -3 13 C-2.01 13.495 -2.01 13.495 -1 14 C-1.259 14.769 -1.518 15.538 -1.784 16.33 C-9.652 39.954 -16.433 63.864 -23 87.875 C-23.216 88.664 -23.431 89.452 -23.654 90.265 C-31.163 117.747 -38.292 145.31 -45 173 C-39.39 173.66 -33.78 174.32 -28 175 C-29.98 172.525 -29.98 172.525 -32 170 C-32.262 167.696 -32.262 167.696 -31.91 165.348 C-31.781 164.475 -31.653 163.603 -31.52 162.704 C-30.66 158.23 -29.622 153.836 -28.438 149.438 C-28.175 148.444 -27.913 147.45 -27.642 146.426 C-25.417 138.172 -22.784 130.079 -20.101 121.966 C-17.562 114.131 -15.485 106.228 -13.555 98.227 C-10.809 86.851 -7.878 75.563 -4.438 64.375 C-3.928 62.633 -3.928 62.633 -3.408 60.856 C-1.252 54.058 0.942 49.887 7 46 C7.6 45.593 8.199 45.185 8.817 44.766 C12.291 42.574 14.887 41.501 19 42 C17.284 47.238 15.493 52.439 13.625 57.625 C8.304 72.498 3.67 87.525 -0.75 102.688 C-1.055 103.734 -1.361 104.781 -1.676 105.859 C-5.742 119.828 -9.653 133.824 -13.188 147.938 C-13.366 148.642 -13.544 149.347 -13.727 150.073 C-16.3 160.31 -18.276 170.59 -20 181 C-20.92 180.709 -21.839 180.417 -22.786 180.117 C-27.916 178.656 -33.152 177.926 -38.418 177.125 C-39.512 176.955 -40.605 176.785 -41.732 176.61 C-45.217 176.069 -48.702 175.534 -52.188 175 C-55.655 174.464 -59.122 173.927 -62.589 173.39 C-64.741 173.057 -66.892 172.725 -69.044 172.395 C-76.039 171.318 -83.022 170.179 -90 169 C-88.638 161.188 -86.524 153.725 -84.168 146.16 C-83.784 144.913 -83.399 143.665 -83.003 142.38 C-81.956 138.98 -80.902 135.583 -79.847 132.186 C-78.96 129.33 -78.077 126.474 -77.195 123.617 C-74.142 113.741 -71.073 103.87 -68 94 C-67.76 93.23 -67.521 92.46 -67.274 91.667 C-63.958 81.02 -60.635 70.376 -57.305 59.734 C-56.632 57.585 -55.96 55.435 -55.287 53.286 C-52.544 44.518 -49.784 35.755 -47 27 C-46.682 25.997 -46.365 24.995 -46.037 23.962 C-45.208 21.356 -44.369 18.753 -43.523 16.152 C-43.291 15.419 -43.058 14.685 -42.819 13.93 C-42.27 12.266 -41.643 10.629 -41 9 C-40.34 8.67 -39.68 8.34 -39 8 C-39.702 14.828 -41.638 21.24 -43.562 27.812 C-43.753 28.466 -43.943 29.119 -44.139 29.792 C-48.353 44.233 -52.97 58.545 -57.586 72.862 C-63.751 91.986 -69.719 111.165 -75.596 130.38 C-76.223 132.429 -76.85 134.478 -77.477 136.527 C-77.774 137.501 -78.072 138.474 -78.379 139.477 C-81.195 148.67 -84.085 157.838 -87 167 C-79.342 167.803 -71.679 168.434 -64 169 C-64.959 167.855 -64.959 167.855 -65.938 166.688 C-68 164 -68 164 -69 161 C-68.581 159.161 -68.581 159.161 -67.81 157.079 C-67.527 156.296 -67.244 155.513 -66.952 154.706 C-66.636 153.86 -66.321 153.013 -65.996 152.141 C-65.338 150.319 -64.681 148.497 -64.027 146.674 C-63.688 145.734 -63.35 144.794 -63.001 143.825 C-61.435 139.403 -59.979 134.947 -58.535 130.484 C-58.249 129.604 -57.964 128.723 -57.669 127.816 C-56.798 125.128 -55.93 122.439 -55.062 119.75 C-53.909 116.182 -52.754 112.614 -51.598 109.047 C-51.307 108.149 -51.016 107.251 -50.717 106.325 C-48.881 100.666 -47.004 95.022 -45.105 89.384 C-39.788 73.583 -34.914 57.654 -30.05 41.708 C-28.947 38.095 -27.839 34.483 -26.73 30.871 C-26.234 29.234 -26.234 29.234 -25.727 27.563 C-22.082 15.7 -18.684 9.124 -7.637 2.605 C-2.601 0 -2.601 0 0 0 Z " fill="#000000" transform="translate(675,374)"/>
<path d="M0 0 C5.146 1.944 7.715 6.967 10.188 11.688 C10.94 14.547 10.949 17.118 10.812 20.062 C8.337 20.558 8.337 20.558 5.812 21.062 C5.153 20.072 4.492 19.082 3.812 18.062 C0.597 19.545 -2.096 21.396 -4.938 23.5 C-9.967 27.048 -14.784 30.417 -21.188 29.75 C-21.848 29.523 -22.507 29.296 -23.188 29.062 C-21.771 25.498 -20.349 24.302 -16.938 22.625 C-13.914 21.057 -11.316 19.493 -8.75 17.25 C-6.188 15.062 -6.188 15.062 -4.188 15.062 C-4.188 14.402 -4.188 13.743 -4.188 13.062 C-5.178 12.733 -6.168 12.402 -7.188 12.062 C-6.875 10.188 -6.875 10.188 -6.188 8.062 C-5.197 7.402 -4.207 6.743 -3.188 6.062 C-3.021 3.521 -3.021 3.521 -3.188 1.062 C-2.188 0.062 -2.188 0.062 0 0 Z " fill="#000000" transform="translate(533.1875,376.9375)"/>
<path d="M0 0 C0.33 0 0.66 0 1 0 C0.367 9.509 -1.765 18.618 -3.867 27.883 C-4.262 29.642 -4.656 31.402 -5.05 33.162 C-6.101 37.848 -7.158 42.533 -8.218 47.218 C-9.099 51.118 -9.977 55.019 -10.854 58.921 C-13.196 69.333 -15.547 79.744 -17.903 90.153 C-18.843 94.306 -19.781 98.459 -20.717 102.613 C-28.809 138.488 -37.411 174.242 -46 210 C-46.33 210 -46.66 210 -47 210 C-46.448 202.334 -45.06 195.018 -43.359 187.531 C-42.948 185.689 -42.948 185.689 -42.528 183.81 C-41.77 180.419 -41.003 177.03 -40.235 173.641 C-39.746 171.483 -39.26 169.324 -38.774 167.165 C-30.665 131.134 -22.229 95.178 -13.798 59.222 C-9.172 39.487 -4.585 19.744 0 0 Z " fill="#000000" transform="translate(772,406)"/>
<path d="M0 0 C-0.24 0.581 -0.48 1.162 -0.728 1.761 C-13.462 33.025 -21.414 66.124 -29.464 98.832 C-31.027 105.158 -32.692 111.455 -34.375 117.75 C-36.453 125.522 -38.097 133.266 -39.359 141.211 C-39.571 142.131 -39.782 143.052 -40 144 C-43.408 145.704 -47.183 144.39 -50.84 143.82 C-51.718 143.688 -52.596 143.556 -53.5 143.42 C-55.359 143.138 -57.218 142.854 -59.076 142.567 C-61.921 142.127 -64.768 141.698 -67.615 141.27 C-69.419 140.995 -71.223 140.721 -73.027 140.445 C-73.881 140.316 -74.734 140.187 -75.613 140.054 C-76.407 139.93 -77.201 139.807 -78.019 139.68 C-78.717 139.573 -79.415 139.465 -80.134 139.355 C-82 139 -82 139 -85 138 C-84.824 137.361 -84.648 136.721 -84.467 136.062 C-82.426 128.611 -80.447 121.145 -78.488 113.672 C-78.159 112.417 -77.83 111.161 -77.49 109.868 C-76.791 107.202 -76.091 104.536 -75.393 101.87 C-74.486 98.41 -73.578 94.951 -72.669 91.491 C-68.008 73.761 -68.008 73.761 -63.449 56.004 C-63.276 55.319 -63.102 54.633 -62.923 53.927 C-62.759 53.279 -62.594 52.63 -62.425 51.961 C-53.923 18.426 -53.923 18.426 -48 4 C-46.657 7.727 -47.349 10.302 -48.344 14.078 C-48.676 15.356 -49.008 16.633 -49.35 17.949 C-49.733 19.383 -50.116 20.816 -50.5 22.25 C-50.9 23.772 -51.299 25.294 -51.697 26.816 C-53.115 32.215 -54.557 37.608 -56 43 C-56.284 44.062 -56.568 45.123 -56.86 46.217 C-59.719 56.906 -62.583 67.594 -65.458 78.279 C-69.567 93.569 -73.598 108.876 -77.475 124.227 C-77.643 124.89 -77.811 125.553 -77.984 126.236 C-78.424 127.973 -78.861 129.711 -79.298 131.449 C-80 134 -80 134 -81 136 C-80.183 136.086 -79.366 136.171 -78.525 136.26 C-74.808 136.65 -71.092 137.044 -67.375 137.438 C-65.447 137.64 -65.447 137.64 -63.48 137.846 C-62.237 137.978 -60.993 138.11 -59.711 138.246 C-58.569 138.367 -57.428 138.487 -56.251 138.611 C-53.147 138.982 -50.079 139.46 -47 140 C-47.99 138.793 -47.99 138.793 -49 137.562 C-51.625 133.531 -51.534 129.666 -51 125 C-49.927 120.34 -48.501 115.81 -47.055 111.254 C-46.642 109.917 -46.23 108.58 -45.82 107.242 C-44.519 103.011 -43.198 98.787 -41.875 94.562 C-40.152 89.047 -38.438 83.528 -36.742 78.004 C-36.534 77.327 -36.327 76.65 -36.112 75.952 C-30.109 56.297 -25.779 36.344 -22.499 16.061 C-21.208 10.728 -18.505 8.577 -14.125 5.375 C-13.076 4.599 -12.026 3.823 -10.945 3.023 C-4.614 -1.327 -4.614 -1.327 0 0 Z " fill="#000000" transform="translate(743,416)"/>
<path d="M0 0 C1.477 3.909 0.514 6.811 -0.533 10.766 C-0.708 11.437 -0.882 12.109 -1.063 12.801 C-1.645 15.027 -2.24 17.25 -2.836 19.473 C-3.25 21.046 -3.663 22.619 -4.076 24.193 C-5.159 28.315 -6.253 32.434 -7.349 36.552 C-8.378 40.423 -9.396 44.297 -10.415 48.171 C-13.212 58.801 -16.029 69.425 -18.849 80.049 C-19.861 83.864 -20.872 87.681 -21.881 91.497 C-22.276 92.987 -22.671 94.477 -23.066 95.966 C-25.137 103.765 -27.16 111.57 -29.038 119.418 C-29.198 120.081 -29.358 120.744 -29.523 121.427 C-30.273 124.537 -31.01 127.648 -31.725 130.767 C-31.982 131.843 -32.24 132.919 -32.505 134.028 C-32.832 135.44 -32.832 135.44 -33.166 136.881 C-33.441 137.58 -33.716 138.279 -34 139 C-34.99 139.33 -35.98 139.66 -37 140 C-34.332 126.708 -30.984 113.584 -27.688 100.438 C-27.384 99.227 -27.081 98.016 -26.769 96.768 C-22.104 78.149 -17.326 59.562 -12.438 41 C-12.149 39.899 -11.86 38.797 -11.562 37.663 C-2.26 2.26 -2.26 2.26 0 0 Z " fill="#000000" transform="translate(743,421)"/>
<path d="M0 0 C0.66 0.33 1.32 0.66 2 1 C1.597 1.795 1.193 2.591 0.777 3.41 C-10.111 24.98 -20.805 46.647 -30 69 C-34.934 68.246 -37.337 66.419 -41 63 C-43 60 -43 60 -42.832 57.246 C-41.891 53.573 -40.438 50.399 -38.688 47.062 C-37.958 45.656 -37.229 44.25 -36.5 42.844 C-36.1 42.078 -35.701 41.312 -35.289 40.523 C-33.875 37.756 -32.531 34.959 -31.188 32.156 C-21.504 12.283 -21.504 12.283 -11 6 C-10.221 5.477 -9.443 4.953 -8.641 4.414 C-5.764 2.514 -3.284 1.095 0 0 Z " fill="#000000" transform="translate(502,446)"/>
<path d="M0 0 C0.495 0.99 0.495 0.99 1 2 C0.174 4.346 0.174 4.346 -1.184 7.352 C-1.946 9.066 -1.946 9.066 -2.724 10.816 C-3.142 11.744 -3.142 11.744 -3.568 12.691 C-9.675 26.276 -15.311 40.036 -20.812 53.875 C-21.172 54.779 -21.532 55.682 -21.902 56.614 C-23.941 61.74 -25.973 66.869 -28 72 C-31.917 69.762 -34.327 68.329 -36 64 C-35.538 61.382 -34.968 59.434 -34 57 C-33.735 56.294 -33.471 55.589 -33.198 54.862 C-30.186 47.073 -26.767 39.442 -23.375 31.812 C-23.092 31.174 -22.809 30.536 -22.518 29.878 C-21.693 28.026 -20.86 26.179 -20.023 24.332 C-19.538 23.257 -19.052 22.181 -18.552 21.073 C-15.88 15.783 -12.722 11.455 -8.5 7.312 C-7.747 6.566 -6.994 5.82 -6.219 5.051 C-4.227 3.21 -2.203 1.577 0 0 Z " fill="#000000" transform="translate(536,450)"/>
<path d="M0 0 C0.66 0.33 1.32 0.66 2 1 C1.438 6.841 0.236 11.972 -1.66 17.512 C-2.209 19.161 -2.757 20.809 -3.305 22.458 C-3.593 23.312 -3.88 24.167 -4.176 25.047 C-9.111 39.741 -13.72 54.455 -17.639 69.454 C-17.927 70.548 -18.215 71.642 -18.512 72.77 C-18.754 73.714 -18.996 74.659 -19.245 75.632 C-20 78 -20 78 -22 81 C-23.32 81 -24.64 81 -26 81 C-21.989 60.047 -15.082 39.839 -8.188 19.688 C-7.827 18.627 -7.466 17.567 -7.095 16.475 C-5.099 10.734 -2.854 5.368 0 0 Z " fill="#000000" transform="translate(575,450)"/>
<path d="M0 0 C-0.563 0.422 -1.127 0.843 -1.707 1.277 C-2.464 1.846 -3.22 2.414 -4 3 C-4.746 3.558 -5.493 4.116 -6.262 4.691 C-20.666 15.802 -30.455 29.625 -36 47 C-36.246 47.771 -36.492 48.542 -36.746 49.336 C-38.256 55.271 -38.232 61.348 -38.312 67.438 C-38.33 68.327 -38.348 69.217 -38.366 70.133 C-38.365 70.975 -38.364 71.816 -38.363 72.684 C-38.366 73.442 -38.369 74.201 -38.372 74.982 C-37.908 77.499 -36.934 78.389 -35 80 C-35.33 79.01 -35.66 78.02 -36 77 C-37.281 54.802 -31.479 33.658 -16.562 16.688 C-5.469 4.953 -5.469 4.953 2 2 C2.99 2 3.98 2 5 2 C4.785 3.828 4.785 3.828 4 6 C1.996 7.422 1.996 7.422 -0.562 8.75 C-14.538 16.761 -23.366 31.914 -27.934 47.105 C-32.192 62.67 -32.192 62.67 -30 78 C-30.046 77.114 -30.093 76.229 -30.141 75.316 C-30.543 61.505 -28.276 46.035 -21 34 C-18.844 32.684 -18.844 32.684 -17 32 C-15.719 35.842 -16.556 36.716 -18.25 40.312 C-24.364 54.516 -27.004 71.531 -21.656 86.41 C-21.44 86.935 -21.223 87.459 -21 88 C-21 84.766 -21.517 81.876 -22.062 78.688 C-23.537 68.575 -22.938 58.792 -20 49 C-18.68 49.33 -17.36 49.66 -16 50 C-16.165 50.99 -16.33 51.98 -16.5 53 C-17.085 57.027 -17.071 60.935 -17 65 C-16.01 65 -15.02 65 -14 65 C-12.984 68.411 -12.836 71.641 -12.688 75.188 C-12.164 82.572 -10.575 88.871 -5 94 C-5.632 92.84 -5.632 92.84 -6.277 91.656 C-9.434 85.656 -11.738 80.807 -12 74 C-10.68 74 -9.36 74 -8 74 C-7.72 74.846 -7.441 75.691 -7.152 76.562 C-4.521 84.008 -1.736 89.529 4 95 C4 94.34 4 93.68 4 93 C3.01 92.01 3.01 92.01 2 91 C2 90.01 2 89.02 2 88 C4.191 88.982 5.775 89.744 7.375 91.562 C9.704 93.623 11.975 93.664 15 94 C8.474 98.351 -0.429 97.563 -8 97 C-18.614 94.875 -29.869 90.427 -37 82 C-37.626 81.29 -38.253 80.579 -38.898 79.848 C-41.434 76.412 -43.03 72.915 -44.688 69 C-44.995 68.301 -45.302 67.603 -45.619 66.883 C-49.17 58.646 -51.271 48.882 -48.372 40.096 C-41.156 23.166 -28.523 9.003 -11.918 1.055 C-7.698 -0.471 -4.439 -0.444 0 0 Z M-25.562 14.125 C-36.831 25.67 -46.073 41.045 -46.188 57.562 C-46.202 58.492 -46.216 59.421 -46.23 60.379 C-45.993 63.075 -45.373 64.694 -44 67 C-43.67 67 -43.34 67 -43 67 C-42.914 65.851 -42.827 64.703 -42.738 63.52 C-41.883 53.588 -40.236 45.131 -36 36 C-35.653 35.166 -35.306 34.332 -34.949 33.473 C-31.831 26.475 -27.134 20.801 -22.328 14.906 C-20.045 12.264 -20.045 12.264 -19 10 C-22.159 10 -23.342 11.964 -25.562 14.125 Z M-16 86 C-15 88 -15 88 -15 88 Z " fill="#000000" transform="translate(254,513)"/>
<path d="M0 0 C2.576 1.885 3.597 3.193 5 6 C6.058 14.051 3.821 20.805 -0.66 27.469 C-6.506 35.055 -13.88 43.831 -22 49 C-22.99 49 -23.98 49 -25 49 C-25.199 43.574 -25.343 38.151 -25.439 32.722 C-25.48 30.878 -25.534 29.034 -25.604 27.191 C-26.166 11.881 -26.166 11.881 -23.302 7.26 C-21.266 5.452 -19.433 4.203 -17 3 C-15.886 2.361 -14.772 1.721 -13.625 1.062 C-8.996 -0.294 -4.784 -0.775 0 0 Z " fill="#000000" transform="translate(391,532)"/>
<path d="M0 0 C2.758 1.641 4.879 3.604 7 6 C7.52 6.525 8.04 7.049 8.576 7.59 C10.623 11.054 10.372 14.361 10.293 18.266 C10.289 19.059 10.284 19.852 10.28 20.67 C10.263 23.197 10.226 25.723 10.188 28.25 C10.172 29.966 10.159 31.682 10.146 33.398 C10.113 37.599 10.062 41.799 10 46 C0.116 37.931 -11.215 24.833 -13.566 11.879 C-13.735 7.782 -13.506 4.946 -11.562 1.312 C-7.656 -0.689 -4.284 -0.968 0 0 Z " fill="#000000" transform="translate(351,534)"/>
<path d="M0 0 C0.66 1.32 1.32 2.64 2 4 C1.34 4 0.68 4 0 4 C-0.33 4.66 -0.66 5.32 -1 6 C-1 5.34 -1 4.68 -1 4 C-3.64 4 -6.28 4 -9 4 C-9 3.67 -9 3.34 -9 3 C-6.03 3 -3.06 3 0 3 C0 2.01 0 1.02 0 0 Z " fill="#000000" transform="translate(86,537)"/>
<path d="M0 0 C6.238 0.613 12.279 1.557 18.41 2.848 C19.263 3.024 20.116 3.2 20.995 3.381 C23.685 3.938 26.374 4.5 29.062 5.062 C30.9 5.444 32.738 5.825 34.576 6.205 C39.052 7.132 43.526 8.065 48 9 C48 10.32 48 11.64 48 13 C31.909 9.366 15.962 5.157 0 1 C0 0.67 0 0.34 0 0 Z " fill="#000000" transform="translate(447,540)"/>
<path d="M0 0 C0 3.53 -0.775 4.475 -2.688 7.375 C-8.329 16.515 -11.443 26.627 -14 37 C-14.33 37 -14.66 37 -15 37 C-14.699 24.884 -9.699 10.197 -1.32 1.195 C-0.885 0.801 -0.449 0.406 0 0 Z " fill="#000000" transform="translate(261,544)"/>
<path d="M0 0 C0.33 0 0.66 0 1 0 C1 5.28 1 10.56 1 16 C0.67 16 0.34 16 0 16 C0 10.72 0 5.44 0 0 Z " fill="#000000" transform="translate(300,553)"/>
<path d="M0 0 C8.269 0.585 16.195 2.199 24.261 4.011 C26.456 4.504 28.653 4.989 30.85 5.473 C41.482 7.827 41.482 7.827 45 9 C45 9.99 45 10.98 45 12 C39.179 11.397 33.758 10.281 28.125 8.715 C27.315 8.494 26.505 8.274 25.671 8.047 C23.112 7.349 20.556 6.643 18 5.938 C16.254 5.46 14.508 4.983 12.762 4.506 C8.506 3.343 4.253 2.173 0 1 C0 0.67 0 0.34 0 0 Z " fill="#000000" transform="translate(446,553)"/>
<path d="M0 0 C8.445 0.547 16.562 1.965 24.84 3.688 C26.124 3.95 27.409 4.213 28.732 4.483 C32.113 5.174 35.493 5.873 38.872 6.573 C41.635 7.144 44.399 7.71 47.163 8.276 C52.878 9.445 58.592 10.619 64.304 11.801 C65.311 12.009 66.317 12.217 67.353 12.431 C69.583 12.91 71.792 13.429 74 14 C74 14.99 74 15.98 74 17 C66.222 16.474 58.873 14.967 51.309 13.129 C50.123 12.847 48.938 12.564 47.717 12.273 C43.956 11.376 40.196 10.469 36.438 9.562 C32.674 8.661 28.911 7.762 25.147 6.863 C22.814 6.304 20.481 5.745 18.149 5.183 C12.111 3.731 6.067 2.326 0 1 C0 0.67 0 0.34 0 0 Z " fill="#000000" transform="translate(533,558)"/>
<path d="M0 0 C6.013 0.588 11.795 1.477 17.684 2.812 C18.465 2.986 19.247 3.16 20.052 3.339 C21.685 3.703 23.318 4.07 24.95 4.438 C27.454 5.004 29.96 5.561 32.467 6.117 C34.06 6.473 35.653 6.83 37.246 7.188 C37.995 7.354 38.744 7.521 39.515 7.693 C44.768 8.884 44.768 8.884 47 10 C46.67 10.99 46.34 11.98 46 13 C30.508 9.592 15.268 5.282 0 1 C0 0.67 0 0.34 0 0 Z " fill="#000000" transform="translate(439,564)"/>
<path d="M0 0 C0.33 0.66 0.66 1.32 1 2 C0.003 4.327 -1.05 6.555 -2.188 8.812 C-5.559 15.724 -7.982 22.566 -10 30 C-10.33 30 -10.66 30 -11 30 C-10.442 18.847 -5.626 9.48 0 0 Z " fill="#000000" transform="translate(265,565)"/>
<path d="M0 0 C8.639 0.579 17.005 2.306 25.457 4.09 C26.933 4.398 28.409 4.705 29.885 5.013 C32.959 5.654 36.032 6.299 39.105 6.947 C43.036 7.775 46.968 8.595 50.9 9.411 C53.941 10.044 56.98 10.681 60.019 11.319 C61.469 11.623 62.919 11.925 64.369 12.226 C66.394 12.648 68.417 13.075 70.441 13.504 C71.59 13.745 72.739 13.986 73.922 14.235 C76.757 14.94 79.324 15.839 82 17 C81.505 18.485 81.505 18.485 81 20 C64.542 16.721 48.255 12.747 31.955 8.772 C28.341 7.891 24.726 7.014 21.111 6.137 C14.073 4.428 7.036 2.715 0 1 C0 0.67 0 0.34 0 0 Z " fill="#000000" transform="translate(520,569)"/>
<path d="M0 0 C1.98 0.495 1.98 0.495 4 1 C3.67 2.98 3.34 4.96 3 7 C2.34 5.68 1.68 4.36 1 3 C0.34 4.32 -0.32 5.64 -1 7 C-0.67 4.69 -0.34 2.38 0 0 Z " fill="#000000" transform="translate(99,573)"/>
<path d="M0 0 C3.09 2.583 4.216 5.49 5.688 9.188 C6.343 10.818 6.343 10.818 7.012 12.48 C7.338 13.312 7.664 14.143 8 15 C7.34 15 6.68 15 6 15 C6 16.65 6 18.3 6 20 C5.67 20 5.34 20 5 20 C4.879 19.371 4.758 18.742 4.633 18.094 C4.104 15.393 3.555 12.696 3 10 C2.844 9.205 2.688 8.409 2.527 7.59 C2.044 5.202 2.044 5.202 1 2 C0.01 1.67 -0.98 1.34 -2 1 C-1.34 0.67 -0.68 0.34 0 0 Z " fill="#000000" transform="translate(116,575)"/>
<path d="M0 0 C8.037 0.579 15.863 1.743 23.781 3.215 C25.545 3.539 25.545 3.539 27.345 3.869 C29.809 4.323 32.273 4.779 34.736 5.238 C38.515 5.94 42.297 6.63 46.078 7.318 C48.479 7.762 50.88 8.207 53.281 8.652 C54.412 8.858 55.544 9.063 56.709 9.274 C57.754 9.471 58.8 9.668 59.877 9.871 C60.796 10.041 61.716 10.211 62.663 10.387 C65 11 65 11 68 13 C67.67 13.66 67.34 14.32 67 15 C59.64 14.26 52.526 12.671 45.312 11.059 C44.001 10.768 42.69 10.478 41.378 10.188 C37.952 9.431 34.526 8.668 31.101 7.905 C27.595 7.125 24.088 6.349 20.582 5.572 C13.72 4.052 6.86 2.528 0 1 C0 0.67 0 0.34 0 0 Z " fill="#000000" transform="translate(635,579)"/>
<path d="M0 0 C1.98 1.65 3.96 3.3 6 5 C5.01 5.33 4.02 5.66 3 6 C3.33 7.98 3.66 9.96 4 12 C3.34 11.67 2.68 11.34 2 11 C1.367 8.496 1.367 8.496 0.875 5.438 C0.707 4.426 0.54 3.414 0.367 2.371 C0.246 1.589 0.125 0.806 0 0 Z " fill="#000000" transform="translate(81,581)"/>
<path d="M0 0 C7.451 0.572 14.632 1.814 21.938 3.363 C23.057 3.597 24.177 3.83 25.33 4.07 C28.888 4.813 32.444 5.563 36 6.312 C38.355 6.804 40.711 7.296 43.066 7.787 C55.732 10.434 68.379 13.149 81 16 C80.505 17.485 80.505 17.485 80 19 C71.315 18.346 63.024 16.237 54.59 14.184 C53.011 13.803 51.432 13.424 49.853 13.044 C45.724 12.051 41.596 11.052 37.469 10.051 C33.247 9.028 29.023 8.011 24.799 6.994 C16.531 5.002 8.265 3.003 0 1 C0 0.67 0 0.34 0 0 Z " fill="#000000" transform="translate(516,582)"/>
<path d="M0 0 C0.33 0.66 0.66 1.32 1 2 C2.207 2.433 2.207 2.433 3.438 2.875 C6 4 6 4 7.312 6.125 C7.653 7.053 7.653 7.053 8 8 C4.675 7.427 3.26 6.457 1 4 C0.01 3.34 -0.98 2.68 -2 2 C-1.34 2 -0.68 2 0 2 C0 1.34 0 0.68 0 0 Z " fill="#000000" transform="translate(155,589)"/>
<path d="M0 0 C0.33 0 0.66 0 1 0 C1.339 3.979 1.67 7.958 2 11.938 C2.143 13.613 2.143 13.613 2.289 15.322 C2.802 21.574 3.106 27.727 3 34 C2.67 34 2.34 34 2 34 C0.718 22.619 -0.342 11.468 0 0 Z " fill="#000000" transform="translate(103,590)"/>
<path d="M0 0 C2.429 3.644 2.539 6.712 2.852 10.949 C2.915 11.722 2.979 12.494 3.045 13.29 C3.246 15.756 3.436 18.221 3.625 20.688 C3.76 22.36 3.895 24.033 4.031 25.705 C4.363 29.803 4.684 33.901 5 38 C2.086 35.086 2.428 31.857 2.148 27.93 C2.085 27.133 2.021 26.337 1.955 25.517 C1.753 22.97 1.564 20.423 1.375 17.875 C1.24 16.15 1.105 14.424 0.969 12.699 C0.636 8.467 0.315 4.234 0 0 Z " fill="#000000" transform="translate(141,590)"/>
<path d="M0 0 C8.69 0.565 17.104 2.032 25.637 3.723 C27.011 3.991 28.385 4.258 29.76 4.525 C33.339 5.223 36.918 5.926 40.496 6.631 C44.163 7.353 47.83 8.068 51.498 8.783 C58.667 10.183 65.834 11.589 73 13 C73 14.32 73 15.64 73 17 C64.76 15.715 56.643 14.114 48.516 12.25 C47.375 11.991 46.235 11.732 45.06 11.466 C41.456 10.647 37.853 9.824 34.25 9 C31.819 8.448 29.388 7.896 26.957 7.344 C24.622 6.813 22.288 6.282 19.953 5.75 C18.873 5.504 17.792 5.258 16.679 5.005 C11.103 3.73 5.543 2.411 0 1 C0 0.67 0 0.34 0 0 Z " fill="#000000" transform="translate(625,591)"/>
<path d="M0 0 C7.11 0.565 13.975 1.671 20.949 3.145 C22.473 3.461 22.473 3.461 24.027 3.784 C26.165 4.23 28.302 4.678 30.438 5.128 C33.66 5.807 36.883 6.475 40.107 7.143 C51.168 9.449 62.133 11.898 73 15 C72.67 15.99 72.34 16.98 72 18 C64.217 17.304 56.771 15.32 49.219 13.402 C47.795 13.045 46.372 12.687 44.948 12.33 C41.225 11.396 37.504 10.456 33.783 9.514 C29.976 8.552 26.168 7.596 22.359 6.639 C14.905 4.764 7.452 2.884 0 1 C0 0.67 0 0.34 0 0 Z " fill="#000000" transform="translate(622,605)"/>
<path d="M0 0 C-0.432 9.725 -2.082 18.931 -4.312 28.375 C-4.612 29.682 -4.911 30.989 -5.209 32.297 C-7.269 41.255 -9.581 50.133 -12 59 C-12.944 55.972 -13 53.936 -12.319 50.849 C-12.145 50.041 -11.971 49.233 -11.792 48.4 C-11.499 47.1 -11.499 47.1 -11.199 45.773 C-11.003 44.871 -10.806 43.968 -10.604 43.038 C-9.973 40.148 -9.331 37.262 -8.688 34.375 C-8.058 31.509 -7.43 28.643 -6.803 25.777 C-6.412 23.995 -6.02 22.214 -5.624 20.434 C-4.34 14.637 -3.144 8.826 -2 3 C-10.625 3.533 -19.057 4.472 -27.562 6 C-28.745 6.211 -29.928 6.422 -31.146 6.639 C-42.034 8.666 -52.728 11.345 -63.452 14.097 C-79.532 18.22 -95.681 21.42 -112.047 24.199 C-125.949 26.579 -139.436 29.479 -152.976 33.436 C-155.298 34.083 -157.625 34.59 -160 35 C-159.842 35.713 -159.683 36.426 -159.52 37.161 C-158.577 42.311 -158.597 47.526 -158.438 52.75 C-158.417 53.419 -158.396 54.088 -158.374 54.777 C-157.881 71.343 -157.889 87.918 -157.877 104.49 C-157.875 106.674 -157.871 108.858 -157.867 111.042 C-157.861 114.554 -157.861 118.066 -157.866 121.578 C-157.867 123.501 -157.864 125.424 -157.861 127.347 C-157.923 151.137 -157.923 151.137 -162 160 C-166.091 158.636 -167.007 155.951 -169 152.375 C-178.314 136.267 -190.208 120.112 -203.762 107.34 C-205 106 -205 106 -205 104 C-205.577 103.773 -206.155 103.546 -206.75 103.312 C-209.597 101.652 -211.121 99.685 -213 97 C-213 96.34 -213 95.68 -213 95 C-213.66 95 -214.32 95 -215 95 C-215 96.65 -215 98.3 -215 100 C-215.99 100 -216.98 100 -218 100 C-219.894 73.349 -219.894 73.349 -217 67 C-216.34 67.33 -215.68 67.66 -215 68 C-214.367 70.941 -214.367 70.941 -213.875 74.562 C-213.707 75.76 -213.54 76.958 -213.367 78.191 C-213.246 79.118 -213.125 80.045 -213 81 C-212.094 80.215 -211.188 79.43 -210.254 78.621 C-199.192 69.07 -199.192 69.07 -194.125 65.188 C-185.005 58.171 -177.986 50.473 -170.957 41.348 C-157.656 25.392 -127.4 23.866 -108.426 20.742 C-105.7 20.29 -102.975 19.834 -100.25 19.375 C-99.553 19.258 -98.856 19.141 -98.138 19.02 C-85.032 16.789 -72.198 13.692 -59.312 10.438 C-45.96 7.067 -32.675 3.937 -19.062 1.812 C-17.808 1.616 -16.554 1.42 -15.261 1.219 C-10.113 0.461 -5.212 -0.087 0 0 Z M-163 36 C-171.492 44.201 -171.492 44.201 -179.125 53.188 C-185.184 61.012 -192.886 67.052 -200.676 73.078 C-203.286 75.237 -205.638 77.575 -208 80 C-207.363 79.869 -206.726 79.739 -206.07 79.604 C-190.754 76.476 -175.416 73.588 -160 71 C-159.872 59.62 -160.204 48.353 -161 37 C-161.66 36.67 -162.32 36.34 -163 36 Z M-178.707 75.344 C-180.898 75.743 -183.09 76.13 -185.283 76.516 C-198.933 78.759 -198.933 78.759 -212 83 C-213.424 85.003 -213.424 85.003 -214 87 C-195.939 85.03 -177.971 82.662 -160 80 C-160 77.69 -160 75.38 -160 73 C-166.345 72.773 -172.496 74.208 -178.707 75.344 Z M-164 82 C-162.68 83.32 -161.36 84.64 -160 86 C-160.33 84.68 -160.66 83.36 -161 82 C-161.99 82 -162.98 82 -164 82 Z M-170 83 C-170.229 85.303 -170.229 85.303 -167.75 87.375 C-166.843 88.241 -165.935 89.107 -165 90 C-163.917 91.145 -163.917 91.145 -162.812 92.312 C-161.169 94.227 -161.169 94.227 -159 94 C-159.113 91.591 -159.113 91.591 -160 89 C-162.411 87.337 -162.411 87.337 -165 86 C-165.66 85.01 -166.32 84.02 -167 83 C-167.99 83 -168.98 83 -170 83 Z M-181 84 C-181 84.99 -181 85.98 -181 87 C-180.34 87.33 -179.68 87.66 -179 88 C-179.33 86.68 -179.66 85.36 -180 84 C-180.33 84 -180.66 84 -181 84 Z M-176 84 C-175.05 85.339 -174.089 86.671 -173.125 88 C-172.591 88.743 -172.058 89.485 -171.508 90.25 C-171.01 90.827 -170.513 91.405 -170 92 C-169.34 92 -168.68 92 -168 92 C-167.66 92.773 -167.66 92.773 -167.312 93.562 C-165.518 96.895 -163.5 100.147 -161 103 C-160.34 103 -159.68 103 -159 103 C-159.438 98.562 -162.494 95.986 -165.438 92.938 C-170.799 87.301 -170.799 87.301 -173 84 C-173.99 84 -174.98 84 -176 84 Z M-189 85 C-187.505 88.458 -185.498 90.755 -182.902 93.465 C-177.756 99.08 -173.671 105.167 -169.562 111.562 C-168.172 113.712 -166.778 115.86 -165.379 118.004 C-164.776 118.94 -164.174 119.877 -163.553 120.842 C-162.179 123.104 -162.179 123.104 -160 124 C-160.482 118.887 -163.045 115.561 -165.938 111.5 C-166.429 110.801 -166.92 110.102 -167.427 109.382 C-168.939 107.245 -170.467 105.121 -172 103 C-172.686 102.044 -172.686 102.044 -173.385 101.069 C-177.946 94.753 -182.185 89 -189 85 Z M-196 86 C-194.02 88.31 -192.04 90.62 -190 93 C-189.675 89.899 -189.675 89.899 -191.875 87.812 C-193.788 85.784 -193.788 85.784 -196 86 Z M-206 88 C-206 88.66 -206 89.32 -206 90 C-204.876 91.124 -203.748 92.243 -202.605 93.348 C-193.081 103.151 -185.291 115.231 -178.062 126.785 C-175.177 131.282 -172.19 135.706 -169.188 140.125 C-168.612 140.98 -168.036 141.835 -167.442 142.716 C-166.898 143.513 -166.354 144.311 -165.793 145.133 C-165.303 145.854 -164.814 146.574 -164.309 147.317 C-163.089 149.135 -163.089 149.135 -161 150 C-161.492 144.839 -164.124 141.312 -166.938 137.125 C-167.432 136.378 -167.926 135.63 -168.436 134.86 C-169.458 133.317 -170.483 131.776 -171.511 130.237 C-172.879 128.182 -174.227 126.116 -175.566 124.043 C-180.858 115.899 -186.551 108.195 -192.668 100.653 C-193.993 99.009 -195.294 97.347 -196.59 95.68 C-197.385 94.672 -198.181 93.664 -199 92.625 C-199.701 91.73 -200.403 90.836 -201.125 89.914 C-201.744 89.282 -202.363 88.651 -203 88 C-203.99 88 -204.98 88 -206 88 Z M-199 88 C-199 88.66 -199 89.32 -199 90 C-198.34 89.67 -197.68 89.34 -197 89 C-197.66 88.67 -198.32 88.34 -199 88 Z M-212 89 C-210.867 92.399 -209.875 93.053 -207 95 C-206.34 94.67 -205.68 94.34 -205 94 C-206.623 92.291 -208.293 90.626 -210 89 C-210.66 89 -211.32 89 -212 89 Z M-178 89 C-176.33 92.832 -173.826 95.936 -171.25 99.188 C-167.62 103.822 -164.213 108.511 -161.059 113.488 C-160.709 113.987 -160.36 114.486 -160 115 C-159.67 115 -159.34 115 -159 115 C-158.45 111.855 -158.465 109.773 -160.312 107.102 C-162.159 105.016 -164.066 103.005 -166 101 C-167.258 99.591 -168.509 98.174 -169.75 96.75 C-170.302 96.126 -170.853 95.502 -171.422 94.859 C-173 93 -173 93 -174.578 90.766 C-175.047 90.183 -175.517 89.6 -176 89 C-176.66 89 -177.32 89 -178 89 Z M-197 90 C-196 92 -196 92 -196 92 Z M-213 91 C-211.577 95.689 -208.843 98.516 -205.375 101.812 C-204.859 102.315 -204.344 102.817 -203.812 103.334 C-202.548 104.563 -201.275 105.782 -200 107 C-200 102.684 -202.133 101.072 -205 98 C-205.66 98 -206.32 98 -207 98 C-207.248 97.402 -207.495 96.804 -207.75 96.188 C-209.164 93.714 -210.651 92.566 -213 91 Z M-194 94 C-192.691 97.122 -192.691 97.122 -190 99 C-191.309 95.878 -191.309 95.878 -194 94 Z M-188 101 C-186.691 104.122 -186.691 104.122 -184 106 C-185.309 102.878 -185.309 102.878 -188 101 Z M-184 106 C-183.34 107.32 -182.68 108.64 -182 110 C-182 109.01 -182 108.02 -182 107 C-182.66 106.67 -183.32 106.34 -184 106 Z M-199 107 C-195.028 112.336 -195.028 112.336 -190.938 117.582 C-181.657 129.293 -172.732 141.799 -165.41 154.83 C-164.945 155.546 -164.479 156.262 -164 157 C-163.34 157 -162.68 157 -162 157 C-162.483 152.495 -163.321 150.075 -166.312 146.688 C-170.173 142.105 -173.642 137.35 -177.062 132.438 C-186.242 119.075 -186.242 119.075 -197 107 C-197.66 107 -198.32 107 -199 107 Z M-180 111 C-178.71 114.551 -177.185 117.346 -174.938 120.375 C-171.317 125.411 -168.145 130.646 -165.021 135.998 C-163.499 138.587 -162.134 140.866 -160 143 C-159.101 136.679 -162.103 133.064 -165.562 128.125 C-166.076 127.361 -166.59 126.596 -167.119 125.809 C-170.702 120.566 -174.545 115.539 -179 111 C-179.33 111 -179.66 111 -180 111 Z M-163 128 C-162.34 129.32 -161.68 130.64 -161 132 C-160.67 131.34 -160.34 130.68 -160 130 C-160.33 129.34 -160.66 128.68 -161 128 C-161.66 128 -162.32 128 -163 128 Z " fill="#000000" transform="translate(337,607)"/>
<path d="M0 0 C8.274 0.428 15.333 3.044 23 6 C23 6.66 23 7.32 23 8 C14.897 7.504 7.595 4.68 0 2 C0 1.34 0 0.68 0 0 Z " fill="#000000" transform="translate(181,610)"/>
<path d="M0 0 C8.571 0.714 8.571 0.714 12 4 C3.429 3.143 3.429 3.143 0 1 C0 0.67 0 0.34 0 0 Z " fill="#000000" transform="translate(198,611)"/>
<path d="M0 0 C20.655 3.017 20.655 3.017 25 8 C16.554 5.958 8.193 3.926 0 1 C0 0.67 0 0.34 0 0 Z " fill="#000000" transform="translate(446,611)"/>
<path d="M0 0 C5.963 0.613 11.542 1.769 17.312 3.375 C18.11 3.584 18.907 3.793 19.729 4.008 C20.495 4.219 21.261 4.431 22.051 4.648 C22.738 4.836 23.426 5.023 24.134 5.216 C26.285 6.12 27.465 7.266 29 9 C22.594 8.437 16.729 7.297 10.562 5.5 C9.761 5.274 8.96 5.049 8.135 4.816 C2.323 3.161 2.323 3.161 0 2 C0 1.34 0 0.68 0 0 Z " fill="#000000" transform="translate(167,612)"/>
<path d="M0 0 C6.034 -0.35 10.951 0.884 16.688 2.688 C18.003 3.091 18.003 3.091 19.345 3.502 C26.082 5.61 32.581 8.051 39 11 C35.39 12.203 34.4 11.692 30.879 10.453 C29.86 10.102 28.841 9.752 27.791 9.391 C26.193 8.826 26.193 8.826 24.562 8.25 C16.449 5.408 8.378 2.945 0 1 C0 0.67 0 0.34 0 0 Z " fill="#000000" transform="translate(429,612)"/>
<path d="M0 0 C7.624 1.562 15.002 3.711 22.438 6 C23.62 6.356 24.803 6.712 26.021 7.078 C27.71 7.596 27.71 7.596 29.434 8.125 C30.455 8.437 31.477 8.749 32.529 9.07 C35 10 35 10 37 12 C30.151 11.395 23.928 9.663 17.375 7.625 C16.364 7.321 15.354 7.017 14.312 6.703 C9.289 5.161 4.597 3.557 0 1 C0 0.67 0 0.34 0 0 Z " fill="#000000" transform="translate(419,613)"/>
<path d="M0 0 C0.33 0.99 0.66 1.98 1 3 C1.969 3.082 2.939 3.165 3.938 3.25 C8.671 3.9 12.74 5.923 17 8 C16.67 8.66 16.34 9.32 16 10 C15.203 9.723 14.407 9.446 13.586 9.16 C12.526 8.798 11.467 8.436 10.375 8.062 C9.331 7.703 8.287 7.343 7.211 6.973 C4.14 6.042 1.173 5.453 -2 5 C-1.34 3.35 -0.68 1.7 0 0 Z " fill="#000000" transform="translate(163,614)"/>
<path d="M0 0 C6.501 1.304 12.502 3.129 18.688 5.5 C20.316 6.115 21.945 6.73 23.574 7.344 C24.71 7.773 24.71 7.773 25.869 8.211 C28.558 9.207 31.271 10.118 34 11 C34 11.33 34 11.66 34 12 C26.889 11.453 20.692 9.393 14 7 C12.706 6.541 11.412 6.083 10.117 5.625 C6.741 4.427 3.37 3.216 0 2 C0 1.34 0 0.68 0 0 Z " fill="#000000" transform="translate(408,615)"/>
<path d="M0 0 C9.347 -0.183 18.421 0.193 27.688 1.438 C29.532 1.685 29.532 1.685 31.413 1.937 C44.848 3.955 57.315 8.206 70 13 C70 13.33 70 13.66 70 14 C64.123 13.459 59.201 12.166 53.688 10.125 C44.232 6.825 34.913 5.221 25 4 C23.379 3.797 23.379 3.797 21.726 3.59 C14.488 2.689 7.246 1.828 0 1 C0 0.67 0 0.34 0 0 Z " fill="#000000" transform="translate(363,617)"/>
<path d="M0 0 C13.463 -0.583 26.644 2.024 39.812 4.5 C40.964 4.714 42.116 4.927 43.303 5.147 C44.385 5.356 45.467 5.566 46.582 5.781 C47.554 5.968 48.525 6.154 49.527 6.346 C52 7 52 7 55 9 C46.685 8.338 38.527 6.982 30.312 5.562 C20.228 3.824 10.151 2.286 0 1 C0 0.67 0 0.34 0 0 Z " fill="#000000" transform="translate(350,621)"/>
<path d="M0 0 C4.95 1.98 4.95 1.98 10 4 C10 4.33 10 4.66 10 5 C3.07 4.505 3.07 4.505 -4 4 C-2.68 2.68 -1.36 1.36 0 0 Z " fill="#000000" transform="translate(158,622)"/>
<path d="M0 0 C18.76 -0.7 18.76 -0.7 27.062 2.844 C46.17 10.365 69.314 10.351 89.059 5.559 C91.873 5.024 93.352 5.018 96 6 C76.767 11.464 59.062 11.796 39.505 8.428 C35.426 7.731 31.338 7.083 27.25 6.438 C26.077 6.251 26.077 6.251 24.881 6.06 C18.57 5.064 12.246 4.215 5.906 3.43 C3 3 3 3 0 2 C0 1.34 0 0.68 0 0 Z " fill="#000000" transform="translate(49,625)"/>
<path d="M0 0 C11.493 -0.331 21.834 -0.06 33 3 C29.291 4.256 26.123 3.864 22.266 3.441 C20.97 3.303 19.675 3.164 18.34 3.021 C16.977 2.869 15.613 2.716 14.25 2.562 C12.871 2.413 11.492 2.264 10.113 2.115 C6.741 1.75 3.37 1.378 0 1 C0 0.67 0 0.34 0 0 Z " fill="#000000" transform="translate(344,626)"/>
<path d="M0 0 C6.641 -0.205 12.888 0.558 19.438 1.625 C20.513 1.798 21.589 1.971 22.698 2.15 C35.525 4.302 48.641 6.88 61 11 C61 11.66 61 12.32 61 13 C53.823 12.373 47.056 10.949 40.062 9.25 C26.781 6.096 13.423 3.473 0 1 C0 0.67 0 0.34 0 0 Z " fill="#000000" transform="translate(27,628)"/>
<path d="M0 0 C5.94 0.99 5.94 0.99 12 2 C12 2.33 12 2.66 12 3 C3.429 3.286 3.429 3.286 0 1 C0 0.67 0 0.34 0 0 Z " fill="#000000" transform="translate(345,630)"/>
<path d="M0 0 C16.644 0.666 32.777 3.269 49 7 C48.34 7.66 47.68 8.32 47 9 C44.975 8.937 44.975 8.937 42.458 8.493 C41.518 8.332 40.577 8.172 39.608 8.007 C38.59 7.822 37.572 7.636 36.523 7.445 C34.963 7.175 34.963 7.175 33.371 6.899 C30.037 6.318 26.706 5.722 23.375 5.125 C21.12 4.729 18.865 4.335 16.609 3.941 C11.071 2.973 5.535 1.991 0 1 C0 0.67 0 0.34 0 0 Z " fill="#000000" transform="translate(17,633)"/>
<path d="M0 0 C15.066 1.646 30.057 3.461 45 6 C45 6.33 45 6.66 45 7 C35.554 6.641 26.238 5.892 16.875 4.562 C15.999 4.44 15.124 4.318 14.222 4.192 C9.335 3.47 4.716 2.476 0 1 C0 0.67 0 0.34 0 0 Z " fill="#000000" transform="translate(8,638)"/>
<path d="M0 0 C-10.925 7.283 -28.273 8.128 -40.909 10.519 C-44.455 11.191 -48 11.871 -51.545 12.553 C-53.82 12.987 -56.096 13.422 -58.371 13.855 C-59.42 14.056 -60.469 14.258 -61.55 14.465 C-67.024 15.498 -72.464 16.381 -78 17 C-61.947 6.298 -35.776 5.317 -17 2 C-15.212 1.68 -15.212 1.68 -13.387 1.354 C-11.805 1.078 -11.805 1.078 -10.191 0.797 C-9.298 0.641 -8.404 0.484 -7.483 0.323 C-4.959 -0.005 -2.542 -0.058 0 0 Z " fill="#000000" transform="translate(293,638)"/>
<path d="M0 0 C7.788 0.516 15.349 1.449 23 3 C23 3.33 23 3.66 23 4 C15.103 4.484 7.665 2.677 0 1 C0 0.67 0 0.34 0 0 Z " fill="#000000" transform="translate(4,645)"/>
<path d="M0 0 C-0.33 0.99 -0.66 1.98 -1 3 C-3.815 3.932 -3.815 3.932 -7.637 4.727 C-8.332 4.876 -9.027 5.024 -9.743 5.178 C-11.258 5.501 -12.775 5.819 -14.293 6.132 C-18.379 6.974 -22.456 7.86 -26.535 8.738 C-27.386 8.92 -28.238 9.102 -29.115 9.29 C-37.819 11.157 -46.487 13.171 -55.149 15.226 C-57.576 15.801 -60.004 16.372 -62.432 16.942 C-63.947 17.3 -65.462 17.659 -66.977 18.02 C-67.69 18.189 -68.404 18.359 -69.139 18.534 C-73.849 19.672 -78.457 20.996 -83.033 22.589 C-85.334 23.07 -86.788 22.729 -89 22 C-68.909 14.239 -48.689 8.805 -27.688 4.125 C-26.777 3.92 -25.866 3.714 -24.927 3.503 C-22.291 2.912 -19.652 2.333 -17.012 1.758 C-15.828 1.491 -15.828 1.491 -14.621 1.219 C-9.642 0.154 -5.092 -0.163 0 0 Z " fill="#000000" transform="translate(307,659)"/>
<path d="M0 0 C0.99 0 1.98 0 3 0 C7.304 15.73 8.562 31.761 9.839 47.956 C9.997 49.957 10.159 51.958 10.321 53.959 C10.62 57.68 10.907 61.402 11.188 65.125 C11.313 66.765 11.313 66.765 11.442 68.439 C12.993 90.356 12.993 90.356 10.5 98.875 C10.222 99.862 9.943 100.85 9.656 101.867 C9.44 102.571 9.223 103.275 9 104 C12.75 101.273 13.264 97.313 14 93 C14.572 88.637 15.048 84.266 15.517 79.891 C16.805 68.059 18.46 56.399 20.938 44.75 C21.28 43.104 21.28 43.104 21.63 41.425 C26.164 21.047 26.164 21.047 33 15 C34.174 18.523 33.757 19.542 32.672 23.016 C32.368 24.012 32.064 25.008 31.751 26.034 C31.42 27.095 31.09 28.157 30.75 29.25 C23.426 53.654 19.367 79.541 23 105 C23.33 105 23.66 105 24 105 C24.004 104.444 24.008 103.887 24.012 103.314 C24.263 83.675 27.398 66.003 35.929 48.252 C37.655 44.623 39.302 40.958 40.96 37.297 C41.844 35.345 42.732 33.396 43.624 31.448 C44.033 30.553 44.442 29.659 44.863 28.738 C45.227 27.945 45.591 27.151 45.966 26.333 C47.039 23.911 48.031 21.465 49 19 C49.99 19.33 50.98 19.66 52 20 C50.556 26.641 48.693 32.988 46.436 39.391 C39.834 58.235 37.867 76.214 39.477 96.074 C40.073 103.523 40.372 110.97 40.625 118.438 C40.677 119.773 40.729 121.108 40.781 122.443 C40.825 123.719 40.869 124.994 40.914 126.309 C40.975 128.023 40.975 128.023 41.038 129.771 C41.001 132.956 40.611 135.879 40 139 C40.853 139.073 40.853 139.073 41.723 139.148 C46.711 139.631 51.226 140.476 56 142 C51.134 143.772 46.336 142.117 41.41 141.18 C37.53 140.975 36.051 141.696 33 144 C35.31 144.99 37.62 145.98 40 147 C36.588 148.137 35.333 147.799 31.875 147.062 C25.39 145.873 19.316 145.955 12.762 146.223 C0.102 146.077 -12.536 141.537 -24.523 137.831 C-40.15 133.024 -55.436 131.645 -71.688 130.938 C-75.087 130.783 -78.487 130.625 -81.887 130.465 C-82.689 130.427 -83.491 130.39 -84.318 130.351 C-90.229 130.065 -96.115 129.633 -102 129 C-102 128.67 -102 128.34 -102 128 C-88.631 127.862 -75.349 128.256 -62 129 C-61.925 125.108 -61.871 121.216 -61.835 117.324 C-61.813 115.366 -61.775 113.409 -61.736 111.451 C-61.649 99.957 -63.12 89.329 -68.625 79.125 C-69.141 78.128 -69.141 78.128 -69.668 77.112 C-72.467 71.789 -75.559 66.654 -78.694 61.524 C-81.3 57.236 -83.761 52.898 -86.062 48.438 C-86.631 47.343 -87.199 46.249 -87.785 45.121 C-89.065 41.834 -89.247 39.493 -89 36 C-78.536 36.761 -71.391 40.64 -64 48 C-63.403 48.574 -62.806 49.147 -62.191 49.738 C-49.347 63.098 -44 83.851 -44 102 C-43.34 102 -42.68 102 -42 102 C-43.448 76.864 -49.549 55.062 -60.284 32.377 C-62.609 27.348 -64.002 22.447 -65 17 C-59.409 17 -57.671 19.405 -53.715 23.129 C-40.028 37.604 -26.496 59.091 -26.688 79.438 C-26.766 81.626 -26.86 83.814 -27 86 C-26.01 86 -25.02 86 -24 86 C-23.427 68.28 -26.326 51.328 -29.967 34.055 C-30.228 32.811 -30.489 31.567 -30.758 30.285 C-30.996 29.17 -31.235 28.055 -31.481 26.906 C-32 24 -32 24 -32 20 C-29 21 -29 21 -27.605 23.457 C-24.564 30.655 -21.935 37.908 -19.625 45.375 C-19.362 46.206 -19.1 47.037 -18.829 47.894 C-17.274 53.114 -16.737 57.555 -17 63 C-16.01 63 -15.02 63 -14 63 C-14.184 53.21 -15.887 44.263 -18.36 34.818 C-19.789 29.1 -20.128 24.802 -19 19 C-18.34 19 -17.68 19 -17 19 C-15.726 23.103 -14.456 27.208 -13.188 31.312 C-12.831 32.46 -12.475 33.608 -12.107 34.791 C-4.851 58.291 -4.851 58.291 -4.902 67.836 C-4.907 69.431 -4.907 69.431 -4.912 71.059 C-4.925 72.7 -4.925 72.7 -4.938 74.375 C-4.942 75.493 -4.947 76.61 -4.951 77.762 C-4.963 80.508 -4.979 83.254 -5 86 C-0.497 78.795 -1.889 68.895 -1.955 60.744 C-1.973 58.516 -1.983 56.287 -1.991 54.058 C-2.016 47.727 -2.051 41.397 -2.096 35.066 C-2.123 31.179 -2.14 27.293 -2.151 23.406 C-2.157 21.932 -2.167 20.457 -2.181 18.983 C-2.2 16.921 -2.207 14.859 -2.211 12.796 C-2.219 11.626 -2.226 10.455 -2.234 9.249 C-1.99 5.867 -1.209 3.156 0 0 Z " fill="#000000" transform="translate(501,659)"/>
<path d="M0 0 C6.93 0 13.86 0 21 0 C21 0.33 21 0.66 21 1 C20.01 1.227 19.02 1.454 18 1.688 C15.146 2.498 13.013 3.545 10.574 5.223 C4.991 8.799 -1.099 11.171 -7.188 13.75 C-24.031 20.679 -24.031 20.679 -37 33 C-35.02 34.32 -33.04 35.64 -31 37 C-32.98 37.495 -32.98 37.495 -35 38 C-29 48.43 -22.64 57.554 -13 65 C-13.638 63.915 -14.276 62.829 -14.934 61.711 C-15.769 60.266 -16.603 58.821 -17.438 57.375 C-17.858 56.662 -18.279 55.949 -18.713 55.215 C-21.055 51.13 -22.585 47.784 -23 43 C-20.749 45.856 -18.993 48.745 -17.309 51.965 C-13.864 58.367 -10.004 64.458 -6.062 70.562 C-5.046 72.151 -5.046 72.151 -4.01 73.771 C-2.668 75.86 -1.313 77.941 0.054 80.013 C1.328 81.969 2.562 83.953 3.749 85.964 C6.604 90.83 6.604 90.83 11.14 93.87 C13.47 94.205 15.588 94.238 17.938 94.125 C18.717 94.128 19.496 94.13 20.299 94.133 C22.2 94.133 24.1 94.073 26 94 C26.495 92.515 26.495 92.515 27 91 C27.33 91.99 27.66 92.98 28 94 C29.98 94 31.96 94 34 94 C34 94.66 34 95.32 34 96 C34.949 96.289 35.898 96.577 36.875 96.875 C40 98 40 98 42 100 C39.16 99.594 37.324 99.247 35.016 97.488 C30.438 95.229 25.977 95.554 20.938 95.5 C12.866 95.293 4.982 94.804 -3 93.562 C-3.793 93.44 -4.586 93.318 -5.403 93.191 C-10.345 92.38 -15.156 91.272 -20 90 C-18.02 89.01 -18.02 89.01 -16 88 C-16.367 87.523 -16.734 87.045 -17.113 86.553 C-20.861 81.625 -24.313 76.564 -27.688 71.375 C-33.437 62.641 -39.585 54.266 -46.426 46.35 C-50 42.197 -50 42.197 -50 40 C-50.66 40 -51.32 40 -52 40 C-50.7 46.062 -48.22 49.829 -44.375 54.625 C-26 78.341 -26 78.341 -26 87 C-25.34 87.33 -24.68 87.66 -24 88 C-26.64 87.67 -29.28 87.34 -32 87 C-30.515 86.01 -30.515 86.01 -29 85 C-34.722 74.418 -40.39 65.501 -50 58 C-50.33 59.65 -50.66 61.3 -51 63 C-51.33 63 -51.66 63 -52 63 C-54.676 49.207 -53.053 36.279 -49 23 C-48.67 23 -48.34 23 -48 23 C-47.841 23.616 -47.681 24.232 -47.517 24.867 C-45.775 31.168 -43.403 36.52 -40.062 42.125 C-39.582 42.942 -39.102 43.759 -38.607 44.601 C-34.077 52.153 -28.911 59.122 -23.504 66.061 C-20.959 69.342 -18.474 72.666 -16 76 C-15.555 76.587 -15.111 77.174 -14.652 77.778 C-12.361 80.866 -10.567 83.833 -8.984 87.344 C-7.532 90.427 -7.532 90.427 -4.641 92.219 C-3.852 92.312 -3.063 92.404 -2.25 92.5 C-1.051 92.67 -1.051 92.67 0.172 92.844 C1.077 92.921 1.077 92.921 2 93 C2 92.34 2 91.68 2 91 C1.01 90.67 0.02 90.34 -1 90 C-2.587 87.925 -4.052 85.856 -5.5 83.688 C-8.865 78.8 -12.35 74.367 -16.438 70.062 C-25.567 60.384 -32.787 49.807 -39.25 38.188 C-39.986 36.87 -39.986 36.87 -40.736 35.525 C-41.179 34.706 -41.622 33.887 -42.078 33.043 C-42.474 32.311 -42.87 31.579 -43.278 30.825 C-43.516 30.223 -43.755 29.62 -44 29 C-43 27 -43 27 -41.176 26.09 C-38.745 24.872 -37.187 23.402 -35.188 21.562 C-27.347 15.133 -17.812 11.42 -8.655 7.232 C-5.063 5.565 -1.531 3.795 2 2 C1.34 1.34 0.68 0.68 0 0 Z " fill="#000000" transform="translate(642,675)"/>
<path d="M0 0 C5.207 0.316 8.577 3.301 12 7 C13.208 10.623 12.543 11.641 11 15 C10.333 12.333 9.667 9.667 9 7 C8.113 7.887 7.226 8.774 6.312 9.688 C-1.709 16.494 -12.929 18.69 -22.907 21.301 C-27.24 22.438 -27.24 22.438 -31.34 24.207 C-33 25 -33 25 -36 24 C-33.958 22.979 -31.917 21.958 -29.875 20.938 C-29.25 20.623 -28.625 20.309 -27.981 19.985 C-24.711 18.343 -21.434 16.723 -18.129 15.152 C-17.51 14.854 -16.89 14.556 -16.252 14.248 C-14.524 13.417 -12.792 12.595 -11.059 11.773 C-5.981 8.83 -2.78 5.121 0 0 Z " fill="#000000" transform="translate(664,676)"/>
<path d="M0 0 C0 0.33 0 0.66 0 1 C-0.883 1.159 -1.766 1.317 -2.676 1.48 C-9.959 2.897 -16.284 4.708 -22.891 8.109 C-23.587 8.403 -24.283 8.697 -25 9 C-25.66 8.67 -26.32 8.34 -27 8 C-17.864 3.23 -10.426 -0.366 0 0 Z " fill="#000000" transform="translate(635,677)"/>
<path d="M0 0 C3.738 0.721 5.36 1.558 7.562 4.688 C12.543 14.648 11.652 30.042 9.562 40.688 C10.553 40.192 10.553 40.192 11.562 39.688 C12.082 37.077 12.501 34.507 12.875 31.875 C14.543 21.498 16.879 11.381 25.562 4.688 C28.125 3.625 28.125 3.625 30.562 3.688 C35.16 5.882 35.16 5.882 36.562 8.688 C37.613 20.328 34.602 30.367 27.562 39.688 C22.754 44.682 17.278 50.35 10.125 51 C4.498 48.927 3.033 44.952 0.562 39.688 C-7.547 21.498 -7.547 21.498 -7.75 12.25 C-7.787 11.138 -7.825 10.025 -7.863 8.879 C-7.17 3.682 -5.158 1.032 0 0 Z " fill="#000000" transform="translate(305.4375,673.3125)"/>
<path d="M0 0 C1.218 0.035 1.218 0.035 2.461 0.07 C3.687 0.097 3.687 0.097 4.938 0.125 C5.877 0.16 5.877 0.16 6.836 0.195 C7.496 1.515 8.156 2.835 8.836 4.195 C5.918 6.14 4.211 6.648 0.836 7.195 C1.428 7.282 2.019 7.368 2.629 7.457 C6.749 8.19 9.444 8.915 12.898 11.383 C15.404 15.02 15.61 16.862 14.836 21.195 C12.836 24.133 12.836 24.133 9.836 26.195 C6.345 26.776 3.065 26.81 -0.164 25.195 C0.148 23.258 0.148 23.258 0.836 21.195 C3.764 20.219 5.792 20.113 8.836 20.195 C8.836 18.545 8.836 16.895 8.836 15.195 C6.555 13.982 6.555 13.982 3.836 13.195 C1.702 14.012 1.702 14.012 -0.164 15.195 C-1.154 15.195 -2.144 15.195 -3.164 15.195 C-4 12.267 -4.326 9.614 -4.352 6.57 C-4.366 5.794 -4.38 5.018 -4.395 4.219 C-4.052 1.21 -2.99 0.27 0 0 Z " fill="#000000" transform="translate(92.1640625,678.8046875)"/>
<path d="M0 0 C-3.027 3.027 -6.877 3.334 -10.938 4.25 C-12.32 4.571 -12.32 4.571 -13.73 4.898 C-19.056 6.127 -24.392 7.31 -29.73 8.484 C-30.865 8.734 -32.001 8.984 -33.17 9.241 C-35.472 9.747 -37.774 10.251 -40.076 10.753 C-47.875 12.473 -55.597 14.383 -63.266 16.615 C-66.943 17.647 -69.354 18.128 -73 17 C-24.432 -0.421 -24.432 -0.421 0 0 Z " fill="#000000" transform="translate(290,687)"/>
<path d="M0 0 C0.66 0.33 1.32 0.66 2 1 C1.434 1.387 0.868 1.773 0.285 2.172 C-0.448 2.693 -1.182 3.213 -1.938 3.75 C-3.034 4.516 -3.034 4.516 -4.152 5.297 C-6.243 7.224 -6.559 8.25 -7 11 C-7.33 11.66 -7.66 12.32 -8 13 C-8.66 11.68 -9.32 10.36 -10 9 C-9.092 7.868 -8.173 6.745 -7.25 5.625 C-6.74 4.999 -6.229 4.372 -5.703 3.727 C-3.891 1.89 -2.415 0.893 0 0 Z " fill="#000000" transform="translate(604,687)"/>
<path d="M0 0 C3.312 1.062 3.312 1.062 5.188 2.688 C10.219 13.309 4.942 26.045 1.312 36.375 C0.603 38.433 -0.105 40.492 -0.812 42.551 C-1.14 43.5 -1.467 44.45 -1.805 45.428 C-2.873 48.616 -3.809 51.818 -4.688 55.062 C-4.18 54.035 -3.672 53.008 -3.148 51.949 C-1.356 48.332 0.458 44.726 2.278 41.123 C3.166 39.355 4.034 37.577 4.898 35.797 C7.985 29.691 11.351 24.668 17.312 21.062 C20.625 20.438 20.625 20.438 23.312 21.062 C25.349 22.608 26.173 23.784 27.312 26.062 C27.312 34.397 24.144 39.431 19.312 46.062 C18.672 46.946 18.672 46.946 18.02 47.848 C15.256 51.384 11.973 54.305 8.551 57.18 C6.954 58.523 5.392 59.908 3.855 61.32 C-2.576 66.991 -2.576 66.991 -7.562 67.312 C-9.461 66.832 -9.461 66.832 -11.688 66.062 C-12.732 65.736 -13.776 65.41 -14.852 65.074 C-17.817 64.119 -20.755 63.113 -23.688 62.062 C-23.358 61.072 -23.027 60.082 -22.688 59.062 C-17.738 60.548 -17.738 60.548 -12.688 62.062 C-13.017 61.403 -13.348 60.742 -13.688 60.062 C-16.286 43.251 -17.457 20.601 -9.688 5.062 C-6.901 1.52 -4.637 0.079 0 0 Z " fill="#000000" transform="translate(363.6875,695.9375)"/>
<path d="M0 0 C0.66 0.33 1.32 0.66 2 1 C-1.91 3.688 -5.128 4.572 -9.812 5.188 C-11.555 5.425 -11.555 5.425 -13.332 5.668 C-14.212 5.778 -15.093 5.887 -16 6 C-13.447 3.447 -11.498 3.241 -8 2.438 C-3.885 1.539 -3.885 1.539 0 0 Z " fill="#000000" transform="translate(662,701)"/>
<path d="M0 0 C-0.33 0.99 -0.66 1.98 -1 3 C-12.527 5.323 -24.067 7.339 -35.697 9.069 C-49.479 11.124 -62.926 13.865 -76.429 17.353 C-80.269 18.319 -84.13 19.163 -88 20 C-74.336 6.336 -40.125 4.69 -21.75 1.562 C-20.953 1.425 -20.156 1.287 -19.334 1.145 C-17.053 0.754 -14.769 0.377 -12.484 0.004 C-11.461 -0.172 -11.461 -0.172 -10.417 -0.352 C-6.676 -0.942 -3.661 -1.014 0 0 Z " fill="#000000" transform="translate(296,711)"/>
<path d="M0 0 C2.475 0.99 2.475 0.99 5 2 C5 2.66 5 3.32 5 4 C3.35 4 1.7 4 0 4 C-0.33 3.01 -0.66 2.02 -1 1 C-0.67 0.67 -0.34 0.34 0 0 Z " fill="#000000" transform="translate(342,715)"/>
<path d="M0 0 C4.824 -0.193 8.496 0.243 13 2 C13 2.66 13 3.32 13 4 C11.02 4.33 9.04 4.66 7 5 C7 5.66 7 6.32 7 7 C2.38 6.34 -2.24 5.68 -7 5 C-6.67 4.01 -6.34 3.02 -6 2 C-3.69 2.33 -1.38 2.66 1 3 C0.67 2.01 0.34 1.02 0 0 Z " fill="#000000" transform="translate(292,721)"/>
<path d="M0 0 C0.99 0 1.98 0 3 0 C3.33 1.98 3.66 3.96 4 6 C3.01 5.67 2.02 5.34 1 5 C0.505 2.525 0.505 2.525 0 0 Z " fill="#000000" transform="translate(684,721)"/>
<path d="M0 0 C0.99 0 1.98 0 3 0 C4.203 2.405 4.101 3.95 4.062 6.625 C4.053 7.442 4.044 8.26 4.035 9.102 C4.024 9.728 4.012 10.355 4 11 C1 9 1 9 0.488 6.836 C0.43 6.024 0.372 5.212 0.312 4.375 C0.247 3.558 0.181 2.74 0.113 1.898 C0.076 1.272 0.039 0.645 0 0 Z " fill="#000000" transform="translate(665,726)"/>
<path d="M0 0 C8.439 9.059 11.721 23.592 11.355 35.656 C12.345 35.656 13.335 35.656 14.355 35.656 C14.309 34.557 14.263 33.457 14.215 32.324 C13.956 23.562 13.843 15.506 18.355 7.656 C21.015 4.996 23.5 2.706 27.379 2.602 C33.7 3.085 33.7 3.085 36.793 5.781 C40.814 13.179 41.547 21.041 39.809 29.234 C36.935 37.854 30.157 44.413 22.668 49.344 C18.477 51.004 16.645 51.086 12.355 49.656 C9.412 47.591 6.909 45.18 4.355 42.656 C3.694 42.044 3.033 41.432 2.352 40.801 C-5.796 33.068 -15.794 21.786 -16.883 10.098 C-17.083 2.315 -17.083 2.315 -14.895 -0.969 C-9.769 -4.101 -4.922 -4.022 0 0 Z " fill="#000000" transform="translate(270.64453125,729.34375)"/>
<path d="M0 0 C3.461 0.906 6.918 1.827 10.375 2.75 C11.823 3.129 11.823 3.129 13.301 3.516 C19.743 5.245 25.867 7.377 32 10 C32 10.66 32 11.32 32 12 C24.775 10.728 17.896 8.875 10.938 6.562 C9.989 6.263 9.041 5.963 8.064 5.654 C7.165 5.357 6.266 5.06 5.34 4.754 C4.529 4.489 3.718 4.224 2.883 3.951 C1 3 1 3 0 0 Z " fill="#000000" transform="translate(804,731)"/>
<path d="M0 0 C12.712 2.047 24.995 6.447 37 11 C33.032 12.541 30.126 11.421 26.152 10.234 C25.499 10.04 24.846 9.846 24.173 9.646 C22.796 9.234 21.42 8.817 20.046 8.395 C17.945 7.752 15.84 7.131 13.732 6.512 C12.393 6.108 11.054 5.703 9.715 5.297 C8.499 4.929 7.284 4.561 6.031 4.183 C3.226 3.088 1.846 2.317 0 0 Z " fill="#000000" transform="translate(755,732)"/>
<path d="M0 0 C6.776 0.631 12.949 2.774 19.375 4.938 C20.48 5.298 21.584 5.658 22.723 6.029 C24.295 6.554 24.295 6.554 25.898 7.09 C26.854 7.408 27.81 7.726 28.794 8.054 C31 9 31 9 32 11 C25.365 10.423 19.482 8.757 13.188 6.625 C11.777 6.169 11.777 6.169 10.338 5.703 C9.436 5.401 8.534 5.1 7.605 4.789 C6.792 4.518 5.979 4.247 5.141 3.967 C2.888 2.949 1.615 1.849 0 0 Z " fill="#000000" transform="translate(782,732)"/>
<path d="M0 0 C1.913 3.266 2.357 5.994 2.625 9.75 C2.7 10.735 2.775 11.72 2.852 12.734 C2.925 13.856 2.925 13.856 3 15 C3.695 15.317 4.39 15.634 5.105 15.961 C10.411 18.395 15.701 20.844 20.941 23.414 C31.765 28.7 42.532 33.303 54 37 C49.84 38.786 46.297 37.04 42.312 35.562 C41.567 35.292 40.822 35.022 40.054 34.744 C28.384 30.406 17.269 24.744 6.223 19.031 C4.106 17.86 4.106 17.86 2 18 C1.34 18.66 0.68 19.32 0 20 C0.33 15.71 0.66 11.42 1 7 C-0.32 6.67 -1.64 6.34 -3 6 C-3 4.35 -3 2.7 -3 1 C-2.01 0.67 -1.02 0.34 0 0 Z " fill="#000000" transform="translate(697,734)"/>
<path d="M0 0 C7.616 0.516 14.926 2.057 22 5 C22.99 6.485 22.99 6.485 24 8 C15.46 7.551 7.985 4.851 0 2 C0 1.34 0 0.68 0 0 Z " fill="#000000" transform="translate(729,735)"/>
<path d="M0 0 C0.99 0.33 1.98 0.66 3 1 C3.33 2.65 3.66 4.3 4 6 C3.01 6.33 2.02 6.66 1 7 C0.67 4.69 0.34 2.38 0 0 Z " fill="#000000" transform="translate(659,736)"/>
<path d="M0 0 C4.318 0.508 8.033 1.197 12 3 C11.67 3.66 11.34 4.32 11 5 C7.37 3.68 3.74 2.36 0 1 C0 0.67 0 0.34 0 0 Z " fill="#000000" transform="translate(748,736)"/>
<path d="M0 0 C18.141 1.141 18.141 1.141 23 6 C6.817 6.544 6.817 6.544 0 2 C0 1.34 0 0.68 0 0 Z " fill="#000000" transform="translate(712,738)"/>
<path d="M0 0 C1.459 0.141 2.917 0.288 4.375 0.438 C5.593 0.559 5.593 0.559 6.836 0.684 C9 1 9 1 11 2 C11 2.66 11 3.32 11 4 C9.742 4.041 8.484 4.082 7.188 4.125 C6.48 4.148 5.772 4.171 5.043 4.195 C3 4 3 4 0 2 C0 1.34 0 0.68 0 0 Z " fill="#000000" transform="translate(400,740)"/>
<path d="M0 0 C1.506 2.854 2.632 5.681 3.625 8.75 C4.016 9.949 4.016 9.949 4.414 11.172 C4.607 11.775 4.801 12.378 5 13 C3.185 11.35 2.093 10.261 1.258 7.922 C0.052 5.64 0.052 5.64 -3.258 4.953 C-4.534 4.721 -5.81 4.489 -7.125 4.25 C-8.406 4.008 -9.688 3.765 -11.008 3.516 C-11.995 3.345 -12.983 3.175 -14 3 C-14 2.67 -14 2.34 -14 2 C-7.07 2.495 -7.07 2.495 0 3 C0 2.01 0 1.02 0 0 Z " fill="#000000" transform="translate(591,738)"/>
<path d="M0 0 C0 1.32 0 2.64 0 4 C-0.577 4.065 -1.155 4.129 -1.75 4.196 C-12.726 5.463 -23.302 6.934 -33.806 10.462 C-38.726 12.091 -38.726 12.091 -42 11 C-32.901 7.171 -23.912 3.688 -14.25 1.562 C-13.513 1.399 -12.776 1.236 -12.016 1.067 C-7.954 0.229 -4.144 -0.163 0 0 Z " fill="#000000" transform="translate(248,742)"/>
<path d="M0 0 C4.29 0.99 8.58 1.98 13 3 C13 3.66 13 4.32 13 5 C8.429 4.451 4.326 3.583 0 2 C0 1.34 0 0.68 0 0 Z " fill="#000000" transform="translate(704,742)"/>
<path d="M0 0 C5.239 0.551 9.974 1.429 15 3 C14.67 3.66 14.34 4.32 14 5 C12.227 4.744 10.457 4.47 8.688 4.188 C7.208 3.961 7.208 3.961 5.699 3.73 C2.873 2.966 1.804 2.247 0 0 Z " fill="#000000" transform="translate(395,743)"/>
<path d="M0 0 C6.327 0.602 12.376 1.622 18.562 3.062 C19.38 3.249 20.198 3.435 21.041 3.627 C23.028 4.08 25.014 4.539 27 5 C27 5.99 27 6.98 27 8 C22.872 7.053 18.748 6.091 14.625 5.125 C13.449 4.856 12.274 4.586 11.062 4.309 C9.941 4.044 8.82 3.78 7.664 3.508 C6.109 3.146 6.109 3.146 4.522 2.778 C2 2 2 2 0 0 Z " fill="#000000" transform="translate(564,744)"/>
<path d="M0 0 C2.584 0.478 5.167 0.957 7.75 1.438 C8.48 1.572 9.209 1.707 9.961 1.846 C13.335 2.475 16.676 3.143 20 4 C20 4.66 20 5.32 20 6 C12.919 6.409 6.801 4.904 0 3 C0 2.01 0 1.02 0 0 Z " fill="#000000" transform="translate(384,745)"/>
<path d="M0 0 C0.681 0.436 1.361 0.871 2.062 1.32 C8.798 5.458 15.365 8.492 22.83 11.045 C27.904 12.808 27.904 12.808 29 15 C6.348 8.711 6.348 8.711 0 2 C0 1.34 0 0.68 0 0 Z " fill="#000000" transform="translate(739,749)"/>
<path d="M0 0 C5.28 0.66 10.56 1.32 16 2 C16 2.66 16 3.32 16 4 C14.27 3.885 12.541 3.757 10.812 3.625 C9.85 3.555 8.887 3.486 7.895 3.414 C4.985 2.998 2.671 2.201 0 1 C0 0.67 0 0.34 0 0 Z " fill="#000000" transform="translate(379,750)"/>
<path d="M0 0 C8.088 0.526 15.757 2.172 23.625 4.062 C25.417 4.485 25.417 4.485 27.246 4.916 C30.165 5.605 33.083 6.3 36 7 C35.01 5.68 34.02 4.36 33 3 C33.33 2.34 33.66 1.68 34 1 C34.66 1.928 35.32 2.856 36 3.812 C39.107 7.601 42.383 8.591 47 10 C43.124 11.439 40.163 10.571 36.215 9.637 C35.559 9.485 34.902 9.333 34.226 9.176 C32.128 8.688 30.033 8.189 27.938 7.688 C25.198 7.042 22.456 6.401 19.715 5.762 C18.722 5.527 18.722 5.527 17.71 5.288 C12.816 4.146 7.913 3.245 2.944 2.503 C2.302 2.337 1.661 2.171 1 2 C0.67 1.34 0.34 0.68 0 0 Z " fill="#000000" transform="translate(563,750)"/>
<path d="M0 0 C5.252 1.669 10.332 3.687 15.438 5.75 C17.216 6.468 18.995 7.185 20.773 7.902 C21.652 8.257 22.531 8.611 23.437 8.976 C25.798 9.919 28.166 10.842 30.539 11.754 C31.223 12.019 31.907 12.284 32.612 12.558 C34.449 13.269 36.289 13.972 38.129 14.676 C40.801 15.908 42.046 16.903 44 19 C36.987 16.704 30.046 14.247 23.125 11.688 C22.113 11.322 21.101 10.957 20.059 10.58 C13.003 7.965 6.509 4.773 0 1 C0 0.67 0 0.34 0 0 Z " fill="#000000" transform="translate(722,752)"/>
<path d="M0 0 C9.351 0.396 18.014 2.576 27 5 C23.743 6.047 21.431 5.926 18.086 5.293 C17.16 5.118 16.235 4.944 15.281 4.764 C14.322 4.574 13.363 4.383 12.375 4.188 C11.408 4.009 10.441 3.83 9.445 3.646 C2.256 2.256 2.256 2.256 0 0 Z " fill="#000000" transform="translate(563,756)"/>
<path d="M0 0 C0.33 0.66 0.66 1.32 1 2 C3.012 2.416 5.025 2.83 7.039 3.234 C10.817 4.211 14.377 5.561 18 7 C18.671 7.261 19.342 7.523 20.034 7.792 C24.876 9.752 24.876 9.752 26 12 C24.237 11.412 24.237 11.412 22.438 10.812 C21.628 10.544 20.818 10.276 19.984 10 C17.719 9.241 15.46 8.469 13.203 7.688 C11.865 7.229 10.526 6.771 9.188 6.312 C8.542 6.086 7.896 5.86 7.23 5.626 C3.918 4.499 1.553 4 -2 4 C-1.34 2.68 -0.68 1.36 0 0 Z " fill="#000000" transform="translate(695,756)"/>
<path d="M0 0 C1.98 0.99 3.96 1.98 6 3 C6 3.66 6 4.32 6 5 C6.927 5.338 7.854 5.675 8.809 6.023 C10.006 6.469 11.204 6.915 12.438 7.375 C13.632 7.816 14.827 8.257 16.059 8.711 C19 10 19 10 20 12 C10.428 9.285 10.428 9.285 6.125 7.25 C3.176 5.777 3.176 5.777 0.562 6.312 C0.047 6.539 -0.469 6.766 -1 7 C-0.67 4.69 -0.34 2.38 0 0 Z " fill="#000000" transform="translate(685,759)"/>
<path d="M0 0 C5.584 -0.222 10.458 0.558 15.875 1.875 C16.646 2.049 17.417 2.223 18.211 2.402 C20.159 2.865 22.082 3.425 24 4 C24.33 4.66 24.66 5.32 25 6 C18.975 6.219 13.825 5.494 8 4 C7.225 3.809 6.451 3.618 5.652 3.422 C3.766 2.956 1.883 2.479 0 2 C0 1.34 0 0.68 0 0 Z " fill="#000000" transform="translate(328,760)"/>
<path d="M0 0 C1.939 0.451 3.876 0.911 5.812 1.375 C6.891 1.63 7.97 1.885 9.082 2.148 C12 3 12 3 15 5 C9.336 4.635 4.993 3.945 0 1 C0 0.67 0 0.34 0 0 Z " fill="#000000" transform="translate(564,761)"/>
<path d="M0 0 C2.042 0.115 4.084 0.243 6.125 0.375 C7.262 0.445 8.399 0.514 9.57 0.586 C12.954 0.994 15.816 1.81 19 3 C19 3.33 19 3.66 19 4 C12.422 3.59 6.259 3.134 0 1 C0 0.67 0 0.34 0 0 Z " fill="#000000" transform="translate(320,764)"/>
<path d="M0 0 C4.272 0.277 8.542 0.574 12.812 0.875 C14.027 0.954 15.242 1.032 16.494 1.113 C17.658 1.197 18.821 1.281 20.02 1.367 C21.093 1.441 22.167 1.514 23.273 1.589 C26 2 26 2 29 4 C22.407 4.213 15.989 3.807 9.438 3.125 C8.222 3.007 8.222 3.007 6.983 2.887 C4.979 2.665 2.987 2.341 1 2 C0.67 1.34 0.34 0.68 0 0 Z " fill="#000000" transform="translate(245,776)"/>
<path d="M0 0 C1.772 0.283 3.543 0.577 5.312 0.875 C6.299 1.037 7.285 1.2 8.301 1.367 C11 2 11 2 14 4 C9.031 3.486 4.71 2.766 0 1 C0 0.67 0 0.34 0 0 Z " fill="#000000" transform="translate(617,778)"/>
<path d="M0 0 C5.363 -0.219 10.554 0.205 15.875 0.875 C17.172 1.037 18.469 1.2 19.805 1.367 C23 2 23 2 25 4 C19.121 4.16 13.766 3.609 8 2.5 C7.225 2.357 6.451 2.214 5.652 2.066 C3.767 1.717 1.883 1.36 0 1 C0 0.67 0 0.34 0 0 Z " fill="#000000" transform="translate(243,781)"/>
<path d="M0 0 C8.004 1.357 14.738 4.431 22 8 C18.455 9.182 17.86 8.791 14.551 7.348 C13.703 6.983 12.856 6.619 11.982 6.244 C11.101 5.854 10.22 5.464 9.312 5.062 C8.42 4.676 7.527 4.29 6.607 3.893 C4.401 2.937 2.199 1.972 0 1 C0 0.67 0 0.34 0 0 Z " fill="#000000" transform="translate(614,782)"/>
<path d="M0 0 C10.247 1.55 20.702 4.598 29 11 C28.01 11.495 28.01 11.495 27 12 C25.18 11.18 25.18 11.18 22.875 9.875 C17.524 7.054 12.067 5.338 6.271 3.701 C4.498 3.186 2.746 2.599 1 2 C0.67 1.34 0.34 0.68 0 0 Z " fill="#000000" transform="translate(594,783)"/>
<path d="M0 0 C10.558 0.964 10.558 0.964 15 2 C15 2.33 15 2.66 15 3 C9.561 3.218 5.129 3.104 0 1 C0 0.67 0 0.34 0 0 Z " fill="#000000" transform="translate(237,784)"/>
<path d="M0 0 C13.095 0.445 24.303 1.6 36 8 C35.34 8.33 34.68 8.66 34 9 C32.541 8.474 31.107 7.875 29.688 7.25 C22.988 4.653 16.178 3.873 9.087 3.04 C8.201 2.931 7.315 2.823 6.402 2.711 C5.203 2.576 5.203 2.576 3.98 2.439 C2 2 2 2 0 0 Z " fill="#000000" transform="translate(570,786)"/>
<path d="M0 0 C8.722 1.507 17.198 3.494 25.688 6 C26.979 6.373 26.979 6.373 28.296 6.754 C32.375 7.988 35.803 9.04 39 12 C31.591 10.44 24.287 8.538 16.986 6.541 C15.649 6.177 14.31 5.816 12.971 5.459 C11.02 4.939 9.073 4.407 7.125 3.875 C5.973 3.563 4.82 3.251 3.633 2.93 C1 2 1 2 0 0 Z " fill="#000000" transform="translate(553,788)"/>
<path d="M0 0 C6.535 -0.117 12.807 0.298 19.289 1.102 C20.259 1.219 21.229 1.335 22.228 1.456 C25.361 1.838 28.493 2.23 31.625 2.625 C32.691 2.758 33.758 2.891 34.856 3.028 C76.233 8.225 76.233 8.225 95 14 C95 14.33 95 14.66 95 15 C87.638 14.428 80.547 13.195 73.32 11.707 C58.257 8.712 43.098 6.678 27.875 4.688 C25.151 4.326 22.427 3.963 19.703 3.6 C13.136 2.725 6.569 1.859 0 1 C0 0.67 0 0.34 0 0 Z " fill="#000000" transform="translate(384,791)"/>
<path d="M0 0 C7.035 0.515 13.672 1.685 20.5 3.438 C21.838 3.763 21.838 3.763 23.203 4.096 C24.054 4.31 24.905 4.525 25.781 4.746 C26.545 4.939 27.309 5.131 28.096 5.33 C30 6 30 6 32 8 C28.328 7.36 24.664 6.683 21 6 C20.186 5.85 19.371 5.7 18.532 5.545 C15.811 5.039 13.093 4.521 10.375 4 C9.474 3.834 8.572 3.668 7.644 3.497 C6.8 3.333 5.956 3.169 5.086 3 C4.323 2.856 3.561 2.711 2.775 2.562 C2.189 2.377 1.603 2.191 1 2 C0.67 1.34 0.34 0.68 0 0 Z " fill="#000000" transform="translate(544,793)"/>
<path d="M0 0 C22.316 1.794 43.521 4.413 65 11 C61.497 12.196 59.139 11.789 55.574 10.926 C54.482 10.672 53.389 10.419 52.263 10.157 C51.083 9.878 49.903 9.6 48.688 9.312 C36.442 6.524 24.256 4.677 11.78 3.294 C10.53 3.151 9.28 3.007 7.992 2.859 C6.882 2.74 5.772 2.622 4.628 2.499 C2 2 2 2 0 0 Z " fill="#000000" transform="translate(373,796)"/>
<path d="M0 0 C8.059 -0.348 15.824 0.819 23.766 2.026 C26.06 2.375 28.355 2.711 30.65 3.047 C32.133 3.268 33.615 3.489 35.098 3.711 C35.772 3.81 36.446 3.909 37.141 4.011 C41.854 4.735 46.393 5.792 51 7 C48.033 7.9 45.829 8.027 42.77 7.579 C41.533 7.403 41.533 7.403 40.271 7.224 C39.389 7.091 38.507 6.958 37.598 6.82 C36.683 6.688 35.768 6.556 34.826 6.42 C31.904 5.995 28.983 5.56 26.062 5.125 C24.1 4.839 22.137 4.554 20.174 4.27 C4.717 2.015 4.717 2.015 0 1 C0 0.67 0 0.34 0 0 Z " fill="#000000" transform="translate(367,802)"/>
<path d="M0 0 C7.487 0.378 14.803 1.174 22.188 2.438 C23.301 2.621 23.301 2.621 24.437 2.808 C29.757 3.757 29.757 3.757 32 6 C21.229 4.783 10.63 3.12 0 1 C0 0.67 0 0.34 0 0 Z " fill="#000000" transform="translate(359,807)"/>
</svg>
