<?xml version="1.0" encoding="UTF-8"?>
<!-- Generator: visioncortex VTracer 0.6.0 -->
<svg version="1.1" xmlns="http://www.w3.org/2000/svg" width="847" height="847">
<path d="M0 0 C2.442 -0.398 2.442 -0.398 5 0 C6.588 1.396 6.588 1.396 7.934 3.371 C8.691 4.473 8.691 4.473 9.464 5.597 C12.088 9.703 14.613 13.85 17.062 18.062 C17.623 19.019 18.183 19.975 18.76 20.96 C24.957 31.573 30.993 42.278 37 53 C37.563 54.004 38.127 55.009 38.707 56.043 C43.402 64.414 48.086 72.79 52.771 81.166 C60.237 94.515 67.725 107.852 75.258 121.164 C75.726 121.996 76.194 122.828 76.677 123.685 C77.516 125.153 78.373 126.613 79.253 128.058 C81.297 131.435 82 132.926 82 137 C77.433 136.478 77.433 136.478 75.537 134.384 C75.143 133.685 74.749 132.986 74.344 132.266 C73.886 131.475 73.428 130.685 72.956 129.871 C72.476 129.006 71.995 128.141 71.5 127.25 C70.434 125.403 69.366 123.556 68.297 121.711 C67.751 120.759 67.205 119.808 66.643 118.827 C64.101 114.454 61.429 110.165 58.75 105.875 C57.66 104.12 56.57 102.365 55.48 100.609 C54.919 99.705 54.357 98.801 53.779 97.869 C44.189 82.401 34.689 66.877 25.238 51.324 C22.741 47.216 20.235 43.113 17.723 39.014 C15.951 36.119 14.184 33.22 12.418 30.321 C11.408 28.668 10.395 27.016 9.379 25.366 C7.704 22.644 6.039 19.916 4.375 17.188 C3.593 15.924 3.593 15.924 2.794 14.634 C2.313 13.841 1.832 13.048 1.336 12.23 C0.908 11.533 0.481 10.836 0.041 10.118 C-1.15 7.695 -1.746 5.69 -2 3 C-1.34 2.01 -0.68 1.02 0 0 Z " fill="#000000" transform="translate(231,105)"/>
<path d="M0 0 C3.514 2.24 4.061 5.002 5.102 8.836 C5.34 9.65 5.579 10.463 5.825 11.301 C6.391 13.238 6.947 15.178 7.496 17.12 C8.614 21.062 9.764 24.994 10.918 28.925 C13.549 37.906 16.145 46.897 18.737 55.89 C19.964 60.142 21.193 64.394 22.422 68.645 C23.843 73.562 25.263 78.479 26.678 83.398 C27.124 84.949 27.57 86.499 28.016 88.05 C28.336 89.163 28.336 89.163 28.662 90.299 C29.924 94.68 31.204 99.056 32.5 103.427 C32.932 104.896 32.932 104.896 33.372 106.394 C33.876 108.107 34.386 109.818 34.904 111.527 C36.111 115.655 36.728 119.275 36.477 123.579 C34.002 124.074 34.002 124.074 31.477 124.579 C28.515 118.939 26.214 113.369 24.227 107.325 C23.932 106.443 23.637 105.561 23.333 104.653 C22.374 101.776 21.425 98.896 20.477 96.016 C20.148 95.025 19.82 94.034 19.482 93.013 C13.073 73.655 6.935 54.219 1.104 34.679 C0.496 32.643 -0.116 30.607 -0.729 28.572 C-1.781 25.058 -2.813 21.539 -3.836 18.016 C-4.132 17.023 -4.429 16.03 -4.734 15.007 C-7.181 6.369 -7.181 6.369 -5.523 1.579 C-2.523 -0.421 -2.523 -0.421 0 0 Z " fill="#000000" transform="translate(319.5234375,116.42138671875)"/>
<path d="M0 0 C0.67 1.779 0.67 1.779 1 4 C-0.031 5.736 -0.031 5.736 -1.723 7.531 C-2.371 8.226 -3.02 8.921 -3.688 9.637 C-4.832 10.807 -4.832 10.807 -6 12 C-6.873 12.893 -7.745 13.787 -8.644 14.707 C-11.553 17.661 -14.494 20.581 -17.438 23.5 C-18.466 24.523 -19.494 25.547 -20.521 26.57 C-23.012 29.05 -25.505 31.526 -28 34 C-24.37 34 -20.74 34 -17 34 C-15.958 36.82 -15.546 38.086 -16 41 C-17.911 43.717 -20.088 45.968 -22.41 48.344 C-24.881 50.878 -27.1 53.489 -29.312 56.25 C-34.266 62.368 -39.377 68.344 -44.536 74.289 C-45.572 75.5 -46.592 76.726 -47.599 77.961 C-48.123 78.598 -48.647 79.235 -49.188 79.891 C-49.659 80.474 -50.131 81.057 -50.617 81.657 C-52 83 -52 83 -54.812 83.5 C-57 83 -57 83 -58 82 C-58.489 79.399 -58.361 77.639 -57.048 75.317 C-55.651 73.348 -54.189 71.453 -52.688 69.562 C-52.151 68.867 -51.614 68.172 -51.061 67.456 C-49.386 65.294 -47.695 63.146 -46 61 C-44.941 59.649 -43.882 58.297 -42.824 56.945 C-41.381 55.103 -39.935 53.263 -38.479 51.43 C-36.551 49.001 -34.722 46.583 -33 44 C-34.64 44.062 -34.64 44.062 -36.312 44.125 C-40 44 -40 44 -43 42 C-42.655 36.637 -39.577 33.783 -36.125 30 C-32.677 26.167 -29.473 22.566 -27 18 C-27.808 18.361 -28.616 18.722 -29.449 19.094 C-30.518 19.558 -31.586 20.022 -32.688 20.5 C-34.271 21.196 -34.271 21.196 -35.887 21.906 C-38.856 22.95 -40.892 23.231 -44 23 C-42.594 19.574 -41.146 18.131 -37.992 16.23 C-36.77 15.49 -36.77 15.49 -35.524 14.735 C-34.65 14.225 -33.776 13.714 -32.875 13.188 C-31.982 12.66 -31.088 12.132 -30.167 11.589 C-24.609 8.364 -18.995 5.368 -13.125 2.75 C-12.491 2.463 -11.856 2.176 -11.203 1.88 C-7.334 0.242 -4.186 -0.282 0 0 Z " fill="#000000" transform="translate(716,129)"/>
<path d="M0 0 C-3.315 1.105 -4.121 0.865 -7.375 0 C-21.115 -2.931 -36.248 0.688 -48 8 C-49.326 8.68 -50.658 9.351 -52 10 C-50.47 5.868 -47.661 3.287 -44 1 C-30.513 -4.933 -13.373 -7.527 0 0 Z " fill="#000000" transform="translate(395,134)"/>
<path d="M0 0 C36.88 -1.517 74.276 11.843 101.707 36.785 C102.134 37.186 102.56 37.587 103 38 C105.494 36.796 107.681 35.546 110 34 C112.562 33.75 112.562 33.75 115 34 C117 36 117 36 117.375 38.812 C116.915 42.72 115.754 44.246 113 47 C111.515 47.495 111.515 47.495 110 48 C109.317 49.325 108.654 50.66 108 52 C106.481 53.788 104.913 55.535 103.312 57.25 C100.355 60.445 97.409 63.642 94.562 66.938 C91.132 70.887 87.59 74.73 84.047 78.578 C81.495 81.355 78.97 84.15 76.5 87 C73.142 90.872 69.686 94.653 66.201 98.411 C63.899 100.898 61.658 103.404 59.469 105.992 C58.309 107.357 58.309 107.357 57.125 108.75 C56.447 109.57 55.769 110.39 55.07 111.234 C53 113 53 113 50.305 113.328 C48 113 48 113 47 112 C47.191 105.617 49.349 102.694 53.5 98.25 C54.604 97.018 55.707 95.785 56.809 94.551 C57.626 93.647 57.626 93.647 58.46 92.725 C60.573 90.358 62.571 87.907 64.562 85.438 C68.288 80.85 72.09 76.336 75.917 71.833 C79.532 67.573 83.069 63.252 86.586 58.91 C88.437 56.678 90.313 54.487 92.227 52.309 C92.779 51.677 93.331 51.045 93.901 50.394 C94.991 49.151 96.088 47.914 97.191 46.682 C100.293 43.349 100.293 43.349 101 39 C99.022 37.179 97.107 35.63 94.938 34.062 C94.278 33.585 93.619 33.108 92.94 32.616 C65.006 13.066 33.466 4.479 0 1 C0 0.67 0 0.34 0 0 Z " fill="#000000" transform="translate(540,138)"/>
<path d="M0 0 C6.95 6.876 13.499 14.067 19.625 21.688 C23.463 26.449 27.571 30.788 32 35 C31.01 35.495 31.01 35.495 30 36 C19.893 28.784 12.592 20.055 5.438 10 C4.9 9.245 4.363 8.491 3.809 7.713 C3.066 6.649 3.066 6.649 2.309 5.562 C1.863 4.924 1.418 4.286 0.959 3.629 C0 2 0 2 0 0 Z " fill="#000000" transform="translate(430,146)"/>
<path d="M0 0 C3.555 0.209 5.494 0.571 8.238 2.898 C8.923 3.716 9.607 4.533 10.312 5.375 C11.083 6.281 11.854 7.187 12.648 8.121 C13.812 9.546 13.812 9.546 15 11 C16.102 12.348 16.102 12.348 17.227 13.723 C18.715 15.551 20.201 17.382 21.684 19.215 C24.046 22.055 26.498 24.782 29 27.5 C33.026 31.879 36.822 36.386 40.555 41.016 C43.993 45.212 47.542 49.312 51.103 53.406 C54.894 57.788 54.894 57.788 56 60 C55.856 58.5 55.709 57 55.562 55.5 C55.476 54.591 55.39 53.682 55.301 52.746 C55.036 50.327 54.656 47.961 54.25 45.562 C54 42 54 42 55.438 40 C56.211 39.505 56.211 39.505 57 39 C61.937 40.4 64.486 43.41 67.625 47.25 C68.144 47.87 68.664 48.491 69.198 49.13 C73.714 54.56 78.076 60.112 82.41 65.688 C86.182 70.533 90.095 75.262 94 80 C96.241 82.736 98.479 85.474 100.715 88.215 C102.322 90.174 103.94 92.123 105.566 94.066 C106.39 95.055 107.214 96.044 108.062 97.062 C108.817 97.961 109.571 98.859 110.348 99.785 C112 102 112 102 112 104 C113.155 103.685 114.31 103.371 115.5 103.047 C119.643 102.017 123.741 101.49 128 101.25 C128.726 101.209 129.452 101.168 130.201 101.126 C139.869 100.721 151.646 100.805 160 106 C161.423 108.899 161.926 111.828 162.438 115 C162.597 115.82 162.756 116.64 162.92 117.484 C163.531 120.72 164 123.699 164 127 C164.66 127 165.32 127 166 127 C166 120.73 166 114.46 166 108 C171.014 109.671 175.205 111.487 179.812 113.938 C180.492 114.285 181.172 114.632 181.873 114.99 C186.88 117.641 186.88 117.641 188 121 C187.223 124.137 187.223 124.137 186.062 127.688 C185.492 129.457 185.492 129.457 184.91 131.262 C184.61 132.165 184.309 133.069 184 134 C182.984 134.159 181.968 134.317 180.922 134.48 C164.669 137.165 151.217 142.224 141.083 155.979 C137.831 160.579 135.35 164.26 135 170 C136.311 172.363 136.311 172.363 138 174 C138.266 173.446 138.531 172.891 138.805 172.32 C139.158 171.596 139.511 170.871 139.875 170.125 C140.223 169.406 140.571 168.686 140.93 167.945 C142 166 142 166 144 164 C146.812 163.562 146.812 163.562 150 164 C152.875 166.375 152.875 166.375 155 169 C155 169.66 155 170.32 155 171 C155.66 171 156.32 171 157 171 C157.186 169.824 157.186 169.824 157.375 168.625 C158 166 158 166 160 164 C163.375 163.56 165.241 163.459 168.055 165.465 C170.796 169.037 171.395 172.576 172.25 176.938 C172.423 177.736 172.595 178.535 172.773 179.357 C173.594 183.289 174.228 186.961 174 191 C174.66 191 175.32 191 176 191 C176.206 190.175 176.413 189.35 176.625 188.5 C178.804 182.954 182.02 178.32 187 175 C190.001 175.15 191.48 175.485 193.633 177.617 C195.493 180.859 195.398 183.277 195.375 187 C195.374 187.661 195.374 188.321 195.373 189.002 C195.263 194.488 194.003 199.155 191.973 204.219 C191.715 206.975 191.715 206.975 193.26 208.584 C194.484 209.77 195.729 210.934 196.989 212.081 C200.381 215.318 202.965 219.136 205.688 222.938 C206.913 224.627 208.14 226.316 209.367 228.004 C210.279 229.263 210.279 229.263 211.21 230.547 C213.868 234.189 216.591 237.781 219.312 241.375 C224.404 248.121 229.257 255.005 234 262 C233.67 262.66 233.34 263.32 233 264 C223.619 253.889 215.152 243.249 206.807 232.273 C203.065 227.359 199.243 222.534 195.293 217.785 C194 216 194 216 194 214 C193.34 214 192.68 214 192 214 C191.907 214.721 191.814 215.441 191.719 216.184 C190.223 222.043 185.691 227.311 180.609 230.5 C172.161 234.304 163.673 235.56 154.75 232.5 C149.497 230.178 146.933 226.81 144 222 C141.112 217.466 141.112 217.466 137 214 C136.194 228.693 140.86 235.206 149.667 246.308 C151.749 248.95 153.776 251.635 155.812 254.312 C160.076 259.883 164.499 265.315 168.943 270.741 C175.148 278.352 181.078 286.169 187 294 C186.67 294.66 186.34 295.32 186 296 C180.412 290.526 175.076 284.95 170 279 C169.096 277.959 168.191 276.919 167.285 275.879 C166.273 274.711 165.261 273.543 164.25 272.375 C163.737 271.786 163.224 271.196 162.695 270.589 C160.003 267.462 157.444 264.295 155.027 260.949 C154.549 260.298 154.072 259.648 153.579 258.977 C152.67 257.727 151.782 256.461 150.917 255.179 C149.568 253.223 149.568 253.223 147 251 C144.129 250.91 142.667 251.167 140 252 C139.164 252.235 138.328 252.469 137.467 252.711 C115.034 259.275 92.972 267.721 80.906 288.922 C78.054 295.102 78.214 302.36 79 309 C82.325 316.829 87.31 320.835 95 324 C97.381 324.843 97.381 324.843 100 325 C100.637 325.075 101.274 325.15 101.93 325.227 C114.796 326.05 127.685 320.056 139.023 314.592 C142.83 312.789 145.676 311.498 150 312 C149.155 316.656 146.304 318.809 142.875 321.812 C141.683 322.889 140.492 323.965 139.301 325.043 C138.201 326.029 137.101 327.015 136 328 C128.786 334.499 121.471 343.247 120.77 353.305 C120.86 362.2 120.86 362.2 122 371 C110.089 362.001 97.822 346.028 95 331 C94.01 331 93.02 331 92 331 C101.04 358.492 120.851 380.148 146.441 393.25 C150.374 395.116 153.546 396.575 158 396 C156.647 393.294 155.19 393.038 152.438 391.875 C151.611 391.522 150.785 391.169 149.934 390.805 C149.296 390.539 148.657 390.274 148 390 C148 389.67 148 389.34 148 389 C148.981 388.974 149.962 388.948 150.973 388.922 C173.173 388.103 191.273 379.147 210.254 368.262 C244.914 348.398 244.914 348.398 260 351 C263 353 263 353 264 355.5 C264 364.113 257.995 370.686 252.352 376.66 C242.965 386 242.965 386 240 386 C239.594 386.874 239.594 386.874 239.18 387.766 C238.006 389.989 236.69 391.787 235.125 393.75 C232.171 397.627 229.955 401.544 228 406 C227.587 406.908 227.175 407.815 226.75 408.75 C225.284 415.104 224.989 421.557 227.5 427.625 C227.995 428.409 228.49 429.192 229 430 C229 430.66 229 431.32 229 432 C229.784 432.309 230.567 432.619 231.375 432.938 C234 434 234 434 236 435 C256.609 436.563 273.1 430.154 289 417 C290.746 415.558 292.496 414.12 294.25 412.688 C295.039 412.031 295.828 411.375 296.641 410.699 C300.872 407.652 304.78 406.239 310 407 C313.575 409.823 316.071 413.362 318.875 416.938 C325.35 425.077 334.325 433.227 345 435 C353.652 435.614 361.507 435.873 369 431 C369.634 430.587 370.268 430.175 370.922 429.75 C376.122 425.839 378.424 420.847 381 415 C381.659 413.663 382.324 412.328 383 411 C383.99 411 384.98 411 386 411 C387.395 412.574 387.395 412.574 388.812 414.688 C394.238 422.191 399.941 425.926 409 428 C421.417 429.312 431.736 427.043 441.883 419.73 C449.742 413.307 453.922 405.805 458.141 396.77 C461.605 389.495 465.158 384.869 472.844 381.902 C477.881 380.163 482.719 378.778 488 378 C491 382.625 491 382.625 491 386 C488.69 386.66 486.38 387.32 484 388 C484.65 388.331 485.299 388.663 485.969 389.004 C488.854 390.78 490.86 392.359 493 395 C495.86 407.56 490.987 423.929 485 435 C484.423 436.072 483.845 437.145 483.25 438.25 C480.295 441.862 477.06 443.786 473 446 C472.416 446.349 471.832 446.699 471.23 447.059 C453.858 456.785 430.944 456.218 412 452 C412.747 446.276 413.829 440.651 415 435 C413.022 435.482 413.022 435.482 411 437 C409.873 439.499 408.971 441.847 408.125 444.438 C403.284 458.122 395.632 469.417 387 481 C385.838 482.564 385.838 482.564 384.652 484.16 C381.329 487.718 377.758 490.093 373.625 492.625 C372.797 493.136 371.969 493.648 371.116 494.175 C352.324 505.608 333.013 515.323 311.371 520.023 C310.259 520.346 309.146 520.668 308 521 C307.67 521.99 307.34 522.98 307 524 C331.69 520.072 354.177 509.603 375 496 C375 501.371 370.357 505.049 367 509 C365.919 510.286 365.919 510.286 364.816 511.598 C351.954 526.432 335.604 536.167 317 542 C315.965 542.34 314.93 542.681 313.863 543.031 C292.01 548.954 268.016 546.081 248.086 535.879 C242.498 532.477 238.55 528.892 235.125 523.312 C234.529 522.36 233.934 521.407 233.32 520.426 C232 518 232 518 232 516 C232.497 515.749 232.994 515.499 233.506 515.241 C261.118 501.236 289.891 482.998 302 453 C302 452.34 302 451.68 302 451 C301.34 450.67 300.68 450.34 300 450 C299.743 450.871 299.487 451.743 299.223 452.641 C295.644 462.474 288.139 470.552 281 478 C280.326 478.737 279.652 479.475 278.957 480.234 C266.314 493.612 248.888 504.738 232 512 C231.34 512 230.68 512 230 512 C226.508 501.246 227.103 490.197 230.344 479.453 C231.172 476.779 231.172 476.779 231 473 C221.542 485.849 221.182 499.474 223 515 C214.652 518.412 206.384 521.373 197.562 523.312 C196.843 523.471 196.123 523.63 195.381 523.794 C177.269 527.577 150.844 529.884 134.34 520.129 C131.446 518.224 128.72 516.143 126 514 C124.795 513.092 123.59 512.186 122.383 511.281 C118.853 508.602 115.42 505.817 112 503 C111.081 502.26 110.162 501.52 109.215 500.758 C92.667 486.793 82.7 464.998 80.473 443.629 C80.114 439.199 79.924 434.779 80.113 430.336 C79.987 427.723 79.221 426.279 78 424 C81.352 423.013 84.707 422.037 88.062 421.062 C89.005 420.785 89.948 420.507 90.92 420.221 C95.95 418.766 100.793 417.571 106 417 C106.147 417.557 106.294 418.114 106.445 418.688 C108.488 425.636 111.191 431.575 117.473 435.574 C129.252 441.629 143.505 442.003 156.125 438.062 C168.969 433.712 180.876 427.001 191 418 C191.835 417.318 192.671 416.636 193.531 415.934 C199.411 411.064 199.411 411.064 202 404 C200.158 403.243 200.158 403.243 198 403 C196.427 404.076 196.427 404.076 195.062 405.812 C183.225 418.373 165.335 430.367 148 433 C146.967 433.161 145.935 433.322 144.871 433.488 C136.361 434.483 127.895 434.23 120.543 429.379 C115.364 425.04 113.102 421.41 111.875 414.75 C111.707 413.858 111.54 412.966 111.367 412.047 C111.246 411.371 111.125 410.696 111 410 C107.519 408.793 105.462 409.221 102 410.363 C101.036 410.673 100.072 410.982 99.078 411.301 C98.063 411.634 97.047 411.968 96 412.312 C85.276 415.705 75.342 418.436 64 418 C64.573 406.914 68.765 396.695 74 387 C65.012 394.93 61.112 406.065 57 417 C45.09 416.71 35.655 412.615 27.117 404.309 C14.378 390.417 12.302 371.325 12.688 353.27 C13.27 339.87 17.495 324.843 27 315 C29.148 314.695 29.148 314.695 31.375 315.125 C32.165 315.26 32.955 315.396 33.77 315.535 C34.506 315.689 35.242 315.842 36 316 C40.787 316.879 45.145 317.084 50 317 C50.33 316.34 50.66 315.68 51 315 C49.679 314.71 49.679 314.71 48.332 314.414 C46.59 314.023 46.59 314.023 44.812 313.625 C43.09 313.242 43.09 313.242 41.332 312.852 C38.412 312.105 35.76 311.196 33 310 C38.627 303.706 47.947 298.974 56.375 298.062 C58.169 298.032 58.169 298.032 60 298 C60 297.34 60 296.68 60 296 C46.506 293.571 36.093 298.605 25 306 C12.104 305.031 0.425 294.002 -8.188 285.129 C-20.111 271.124 -23.287 254.845 -22 237 C-20.306 225.936 -13.674 215.908 -5 209 C13.304 196.463 34.772 192.79 56.625 192.688 C57.62 192.682 58.615 192.676 59.641 192.671 C65.711 192.73 71.121 193.479 77 195 C76.492 194.357 75.984 193.714 75.461 193.051 C65.319 179.737 59.094 165.535 61.312 148.617 C62.303 143.4 64.149 139.467 67 135 C71.423 137.536 75.494 140.463 79.625 143.438 C88.839 150.018 98.371 156.05 108 162 C103.365 156.519 98.512 151.442 93.25 146.562 C92.558 145.914 91.865 145.266 91.152 144.598 C86.272 140.069 81.256 135.847 75.941 131.832 C73.857 129.865 73.342 128.804 73 126 C81.878 117.163 91.7 110.11 104 107 C99.819 101.39 95.36 96.07 90.75 90.812 C85.009 84.253 79.58 77.5 74.249 70.606 C71.212 66.701 68.1 62.855 65 59 C65.144 60.354 65.291 61.708 65.438 63.062 C65.525 63.881 65.613 64.7 65.703 65.543 C65.959 67.664 66.314 69.772 66.688 71.875 C67 75 67 75 65 78 C60.2 77.855 58.047 75.497 54.93 72.199 C52.045 68.912 49.326 65.498 46.586 62.09 C43.707 58.586 40.609 55.299 37.5 52 C32.853 47.065 28.481 42.005 24.242 36.711 C21.761 33.711 19.151 30.849 16.5 28 C11.414 22.531 6.658 16.839 2 11 C1.252 10.127 0.505 9.255 -0.266 8.355 C-2 6 -2 6 -1.812 3.25 C-1 1 -1 1 0 0 Z M161.512 168.176 C159.604 170.478 159.307 172.257 158.812 175.188 C158.575 176.539 158.575 176.539 158.332 177.918 C158.222 178.605 158.113 179.292 158 180 C157.34 180 156.68 180 156 180 C155.662 179.301 155.325 178.603 154.977 177.883 C154.531 176.973 154.085 176.063 153.625 175.125 C153.184 174.22 152.743 173.315 152.289 172.383 C151.095 169.905 151.095 169.905 149 168 C146.425 168.165 146.425 168.165 144 169 C142.649 171.702 142.661 174.118 142.438 177.125 C142.354 178.221 142.27 179.316 142.184 180.445 C142.093 181.71 142.093 181.71 142 183 C138.358 181.786 137.963 180.757 136 177.562 C134.09 174.464 133.093 173.062 130 171 C127.898 171.005 127.898 171.005 126 172 C123.886 175.195 123.836 177.28 124.5 181 C126.835 192.098 132.805 200.493 140 209 C143.113 212.951 145.993 216.924 148.562 221.25 C151.233 225.62 154.071 228.357 159 230 C168.375 230.744 177.423 230.71 184.91 224.387 C188.168 220.914 190 217.919 190 213 C189.34 212.34 188.68 211.68 188 211 C187.567 211.639 187.134 212.279 186.688 212.938 C185 215 185 215 182 216 C182.566 214.819 183.132 213.638 183.715 212.422 C184.456 210.865 185.197 209.307 185.938 207.75 C186.497 206.584 186.497 206.584 187.068 205.395 C187.426 204.64 187.784 203.886 188.152 203.109 C188.482 202.418 188.812 201.727 189.152 201.015 C191.038 196.534 191.107 192.603 191.062 187.75 C191.053 186.487 191.044 185.223 191.035 183.922 C191.024 182.958 191.012 181.993 191 181 C189.68 180.34 188.36 179.68 187 179 C180.239 186.768 180.239 186.768 177 196 C175.68 196 174.36 196 173 196 C171.922 191.809 170.902 187.626 170.035 183.387 C169.875 182.614 169.714 181.841 169.549 181.045 C169.221 179.455 168.901 177.864 168.588 176.271 C168.426 175.505 168.264 174.739 168.098 173.949 C167.959 173.262 167.819 172.574 167.676 171.866 C166.866 169.63 165.809 168.517 164 167 C162.815 166.897 162.815 166.897 161.512 168.176 Z M94 214 C93.372 214.605 92.744 215.209 92.098 215.832 C84.1 224.156 79.266 235.085 75.938 246 C75.721 246.693 75.505 247.387 75.283 248.101 C73.947 252.861 74.019 256.262 75 261 C75.99 261 76.98 261 78 261 C80.254 256.145 82.274 251.296 84.072 246.252 C89.694 230.583 97.087 217.2 112.555 209.773 C117.37 207.739 121.794 206.453 127 206 C127.495 210.455 127.495 210.455 128 215 C126.742 215.021 125.484 215.041 124.188 215.062 C114.709 216.122 107.109 223.112 101 230 C100.175 230.866 99.35 231.733 98.5 232.625 C96.707 234.932 96.707 234.932 97.25 237.812 C97.498 238.534 97.745 239.256 98 240 C101.23 240 103.323 239.661 105.676 237.363 C106.842 235.956 108.003 234.544 109.16 233.129 C114.604 226.83 121.253 223.699 129 221 C129.124 221.949 129.248 222.898 129.375 223.875 C129.717 227.087 129.717 227.087 132 229 C131.948 227.749 131.948 227.749 131.895 226.473 C131.647 216.174 131.647 216.174 133.938 211.312 C134.887 209.243 134.887 209.243 135 207 C133.26 203.151 131.034 199.942 128 197 C114.459 197 103.179 204.852 94 214 Z M79.934 210.914 C70.916 220.708 58.472 234.941 57.879 248.84 C57.919 249.553 57.959 250.266 58 251 C60.181 248.819 61.21 246.612 62.512 243.846 C67.255 233.784 73.236 225.238 79.969 216.422 C80.515 215.705 81.062 214.988 81.625 214.25 C82.092 213.657 82.558 213.064 83.039 212.453 C84.184 211.012 84.184 211.012 84 209 C81.775 208.773 81.775 208.773 79.934 210.914 Z M-4 260 C-4 261.32 -4 262.64 -4 264 C-2.68 264 -1.36 264 0 264 C0 262.68 0 261.36 0 260 C-1.32 260 -2.64 260 -4 260 Z M25 360 C25 361.32 25 362.64 25 364 C26.32 364 27.64 364 29 364 C29 362.68 29 361.36 29 360 C27.68 360 26.36 360 25 360 Z M99 368 C98.67 369.65 98.34 371.3 98 373 C99.65 372.67 101.3 372.34 103 372 C102.67 370.68 102.34 369.36 102 368 C101.01 368 100.02 368 99 368 Z M222 401 C221.515 401.75 221.031 402.5 220.531 403.273 C207.804 422.708 193.999 436.045 173 446 C177.866 447.622 181.534 445.152 186 443 C201.692 434.374 215.699 420.542 223 404 C222.505 402.515 222.505 402.515 222 401 Z M241 440 C240.01 440.495 240.01 440.495 239 441 C239.33 442.32 239.66 443.64 240 445 C240.99 445 241.98 445 243 445 C243.33 443.68 243.66 442.36 244 441 C243.01 440.67 242.02 440.34 241 440 Z M313 451 C309.968 453.792 308.09 456.387 306.25 460.062 C298.991 473.744 288.786 484.876 277.09 494.871 C274.65 496.86 274.65 496.86 275 500 C286.04 499.448 295.034 487.694 302 480 C304.892 476.463 307.503 472.824 310 469 C310.588 468.111 311.176 467.221 311.781 466.305 C314.556 461.921 316.72 458.316 317 453 C315.68 452.34 314.36 451.68 313 451 Z M201 456 C200.01 456.495 200.01 456.495 199 457 C199.33 458.32 199.66 459.64 200 461 C201.32 460.67 202.64 460.34 204 460 C204 459.01 204 458.02 204 457 C203.01 456.67 202.02 456.34 201 456 Z M137 461 C136.505 462.98 136.505 462.98 136 465 C137.32 465.33 138.64 465.66 140 466 C140.33 464.68 140.66 463.36 141 462 C139.68 461.67 138.36 461.34 137 461 Z " fill="#000000" transform="translate(176,179)"/>
<path d="M0 0 C0.99 0.495 0.99 0.495 2 1 C-0.708 2.959 -3.416 4.917 -6.125 6.875 C-7.354 7.764 -7.354 7.764 -8.608 8.671 C-12.335 11.364 -16.063 14.053 -19.82 16.703 C-32.14 25.393 -43.88 34.719 -55.31 44.548 C-57.064 46.055 -58.825 47.555 -60.586 49.055 C-75.376 61.704 -89.331 75.155 -103 89 C-103 84.915 -100.93 83.364 -98.25 80.562 C-97.732 80.012 -97.214 79.461 -96.681 78.894 C-91.456 73.388 -86.104 68.004 -80.75 62.625 C-79.911 61.781 -79.072 60.938 -78.208 60.069 C-73.298 55.172 -68.265 50.51 -63 46 C-61.843 44.979 -60.688 43.955 -59.535 42.93 C-44.891 30.003 -29.419 18.569 -13 8 C-12.333 7.567 -11.666 7.134 -10.979 6.688 C-9.159 5.51 -7.332 4.346 -5.5 3.188 C-3.969 2.219 -3.969 2.219 -2.406 1.23 C-1.612 0.824 -0.818 0.418 0 0 Z " fill="#000000" transform="translate(763,186)"/>
<path d="M0 0 C1.32 0.33 2.64 0.66 4 1 C4 1.66 4 2.32 4 3 C6.31 3.33 8.62 3.66 11 4 C11 4.99 11 5.98 11 7 C10.381 7.454 9.763 7.907 9.125 8.375 C6.572 10.327 5.977 11.989 5 15 C4.01 15 3.02 15 2 15 C0.986 13.677 -0.013 12.343 -1 11 C-3.083 9.748 -3.083 9.748 -5 9 C-4.429 5.689 -3.454 4.249 -1 2 C-0.67 1.34 -0.34 0.68 0 0 Z " fill="#000000" transform="translate(520,211)"/>
<path d="M0 0 C-0.906 0.557 -1.812 1.114 -2.746 1.688 C-13.671 8.49 -22.209 15.526 -30.055 25.875 C-30.697 26.576 -31.339 27.278 -32 28 C-32.99 28 -33.98 28 -35 28 C-30.724 18.584 -12.436 -5.282 0 0 Z " fill="#000000" transform="translate(706,217)"/>
<path d="M0 0 C12.642 11.712 20.855 30.848 21.671 47.982 C22.391 73.115 22.391 73.115 20.496 79.312 C21.188 79.096 21.881 78.879 22.594 78.656 C31.879 76.014 43.042 73.812 52.184 78 C56.665 80.78 58.967 83.832 60.746 88.812 C61.392 91.828 61.559 94.262 61.496 97.312 C62.582 96.769 62.582 96.769 63.689 96.214 C100.605 77.823 100.605 77.823 121.371 76.75 C122.155 76.707 122.939 76.664 123.746 76.619 C125.663 76.514 127.579 76.413 129.496 76.312 C129.764 75.178 130.032 74.044 130.309 72.875 C130.7 71.699 131.092 70.524 131.496 69.312 C134.378 68.352 136.195 68.207 139.184 68.25 C139.992 68.259 140.8 68.268 141.633 68.277 C142.248 68.289 142.863 68.301 143.496 68.312 C142.5 72 141.838 73.106 138.496 75.125 C135.496 76.312 135.496 76.312 133.496 76.312 C133.496 76.972 133.496 77.632 133.496 78.312 C134.28 78.457 135.064 78.601 135.871 78.75 C138.496 79.312 138.496 79.312 140.496 80.312 C141.121 82.375 141.121 82.375 141.496 84.312 C142.445 83.962 143.394 83.611 144.371 83.25 C147.496 82.312 147.496 82.312 149.496 83.312 C151.594 82.913 151.594 82.913 153.496 82.312 C153.496 82.972 153.496 83.632 153.496 84.312 C154.239 84.539 154.981 84.766 155.746 85 C159.039 86.571 160.471 88.312 162.496 91.312 C162.496 91.972 162.496 92.632 162.496 93.312 C163.816 93.642 165.136 93.972 166.496 94.312 C166.31 94.808 166.125 95.303 165.934 95.812 C165.262 98.532 165.262 98.532 166.621 101.938 C166.914 104.051 166.914 104.051 166.496 106.312 C163.348 110.243 159.446 113.233 155.496 116.312 C154.399 117.187 153.303 118.062 152.207 118.938 C149.899 120.77 147.577 122.583 145.246 124.387 C141.219 127.512 137.26 130.718 133.309 133.938 C132.634 134.486 131.96 135.035 131.265 135.601 C128.278 138.036 125.295 140.476 122.32 142.926 C117.139 147.19 111.915 151.353 106.496 155.312 C105.496 153.312 105.496 153.312 106.121 149.75 C106.809 144.769 105.723 140.784 103.496 136.312 C99.932 132.017 96.943 129.632 91.387 128.906 C77.634 128.552 66.72 133.508 54.535 139.527 C53.526 139.916 53.526 139.916 52.496 140.312 C51.836 139.982 51.176 139.653 50.496 139.312 C50.826 138.364 51.156 137.415 51.496 136.438 C53.622 128.781 53.038 121.78 49.84 114.516 C47.154 110.112 43.36 107.934 38.496 106.312 C35.715 106.215 32.964 106.173 30.184 106.188 C29.437 106.184 28.69 106.18 27.92 106.176 C23.668 106.183 19.683 106.474 15.496 107.312 C13.846 104.389 13.21 102.126 13.004 98.785 C12.941 97.917 12.878 97.048 12.813 96.154 C12.75 95.237 12.687 94.32 12.621 93.375 C11.127 75.549 5.627 61.905 -7.504 49.312 C-17.131 41.604 -29.439 39.459 -41.504 40.312 C-56.332 42.106 -69.081 47.389 -78.504 59.312 C-85.353 68.71 -88.615 78.975 -91.891 90.045 C-92.204 91.099 -92.517 92.153 -92.84 93.238 C-93.114 94.191 -93.387 95.144 -93.669 96.126 C-94.504 98.312 -94.504 98.312 -96.504 99.312 C-96.893 98.816 -97.283 98.32 -97.684 97.809 C-105.312 88.545 -114.754 83.355 -125.504 78.312 C-124.844 75.342 -124.184 72.373 -123.504 69.312 C-119.851 70.226 -118.552 70.786 -115.719 72.965 C-115.023 73.494 -114.328 74.023 -113.611 74.568 C-112.895 75.123 -112.179 75.678 -111.441 76.25 C-110.013 77.343 -108.585 78.435 -107.156 79.527 C-106.527 80.013 -105.898 80.499 -105.25 81 C-103.708 82.159 -102.109 83.242 -100.504 84.312 C-100.406 83.066 -100.308 81.819 -100.207 80.535 C-97.887 53.266 -91.032 29.61 -69.504 11.312 C-54.894 -0.158 -38.824 -4.173 -20.504 -2.688 C-11.048 -0.839 -3.408 4.043 4.496 9.312 C0.092 3.766 -4.136 -0.503 -10.504 -3.688 C-11.123 -4.007 -11.741 -4.327 -12.379 -4.656 C-23.183 -9.214 -36.97 -7.562 -47.707 -3.855 C-49.753 -3.001 -51.76 -2.052 -53.738 -1.051 C-56.504 0.312 -56.504 0.312 -58.504 0.312 C-57.504 -2.688 -57.504 -2.688 -55.098 -4.004 C-36.343 -11.558 -16.808 -13.271 0 0 Z M-32.504 10.312 C-32.174 11.303 -31.844 12.292 -31.504 13.312 C-30.56 13.387 -29.617 13.462 -28.645 13.539 C-17.248 14.706 -7.013 17.531 1.027 26.301 C3.741 30.018 5.66 34.107 7.496 38.312 C8.51 35.686 8.626 34.624 7.527 31.98 C0.93 21.294 -6.214 14.575 -18.504 11 C-23.129 9.986 -27.795 10.139 -32.504 10.312 Z M73.496 100.312 C67.002 105.741 62.706 112.498 59.496 120.312 C59.826 121.303 60.156 122.293 60.496 123.312 C66.485 116.292 71.735 109.227 76.496 101.312 C75.506 100.983 74.516 100.653 73.496 100.312 Z " fill="#000000" transform="translate(497.50390625,236.6875)"/>
<path d="M0 0 C0 5.352 -4.979 8.936 -8.585 12.608 C-12.451 16.412 -16.691 19.721 -21 23 C-21.709 23.541 -22.419 24.083 -23.15 24.641 C-38.39 36.236 -53.895 47.463 -69.575 58.455 C-73.402 61.143 -77.196 63.868 -80.961 66.641 C-81.781 67.243 -82.602 67.845 -83.447 68.465 C-85.036 69.633 -86.621 70.808 -88.201 71.988 C-88.916 72.513 -89.631 73.038 -90.367 73.578 C-90.997 74.046 -91.628 74.515 -92.277 74.997 C-94 76 -94 76 -97 76 C-88.205 67.538 -78.874 60.159 -69 53 C-68.28 52.476 -67.56 51.953 -66.818 51.414 C-60.803 47.043 -54.769 42.7 -48.725 38.371 C-23.17 20.635 -23.17 20.635 0 0 Z " fill="#000000" transform="translate(776,258)"/>
<path d="M0 0 C0.66 0 1.32 0 2 0 C2.387 1.039 2.773 2.078 3.172 3.148 C6.027 10.802 8.91 18.437 12 26 C11.34 26 10.68 26 10 26 C4.518 18.78 -0.431 9.228 0 0 Z " fill="#000000" transform="translate(108,261)"/>
<path d="M0 0 C2 2 2 2 2.125 4.625 C2.084 5.409 2.043 6.192 2 7 C3.98 6.67 5.96 6.34 8 6 C8.144 6.722 8.289 7.444 8.438 8.188 C10.814 12.465 14.696 13.919 19 16 C18.67 16.66 18.34 17.32 18 18 C16.392 17.237 14.789 16.464 13.188 15.688 C12.294 15.258 11.401 14.829 10.48 14.387 C8.19 13.106 6.808 11.85 5 10 C2.394 9.278 2.394 9.278 0 9 C-0.33 7.68 -0.66 6.36 -1 5 C-3.64 5.33 -6.28 5.66 -9 6 C-9.33 5.34 -9.66 4.68 -10 4 C-9.362 3.795 -8.724 3.59 -8.066 3.379 C-7.24 3.109 -6.414 2.84 -5.562 2.562 C-4.739 2.296 -3.915 2.029 -3.066 1.754 C-1.038 1.178 -1.038 1.178 0 0 Z " fill="#000000" transform="translate(350,263)"/>
<path d="M0 0 C0.99 0 1.98 0 3 0 C3.124 1.609 3.124 1.609 3.25 3.25 C4.055 7.274 4.877 8.482 8 11 C7.67 11.99 7.34 12.98 7 14 C5.329 14.464 5.329 14.464 3.625 14.938 C-0.302 16.089 -0.843 16.764 -3 20 C-3.99 20 -4.98 20 -6 20 C-6.026 19.385 -6.052 18.77 -6.078 18.137 C-6.234 13.048 -6.234 13.048 -9.062 9.125 C-9.702 8.754 -10.341 8.382 -11 8 C-11 7.01 -11 6.02 -11 5 C-9.391 4.876 -9.391 4.876 -7.75 4.75 C-3.635 3.927 -2.715 3.006 0 0 Z " fill="#000000" transform="translate(604,274)"/>
<path d="M0 0 C11.35 3.068 21.389 9.704 27.703 19.695 C28.99 22.121 30.177 24.38 31 27 C30.67 27.99 30.34 28.98 30 30 C29.66 29.299 29.319 28.598 28.969 27.875 C23.332 16.841 16.456 10.888 5.855 4.762 C3.507 3.313 1.802 2.055 0 0 Z " fill="#000000" transform="translate(154,277)"/>
<path d="M0 0 C0.33 0.99 0.66 1.98 1 3 C-0.286 4.173 -1.579 5.338 -2.875 6.5 C-3.954 7.475 -3.954 7.475 -5.055 8.469 C-7 10 -7 10 -9 10 C-9.33 10.99 -9.66 11.98 -10 13 C-10.66 13 -11.32 13 -12 13 C-11.484 8.971 -9.583 7.389 -6.562 4.812 C-5.759 4.118 -4.956 3.423 -4.129 2.707 C-2 1 -2 1 0 0 Z " fill="#000000" transform="translate(244,279)"/>
<path d="M0 0 C7.136 -0.46 12.66 0.553 19 4 C19.33 4.66 19.66 5.32 20 6 C17.156 5.483 14.458 4.836 11.688 4 C7.748 2.932 4.053 2.427 0 2 C0 1.34 0 0.68 0 0 Z " fill="#000000" transform="translate(532,281)"/>
<path d="M0 0 C1.942 0.976 3.832 1.993 5.699 3.105 C4.709 3.6 4.709 3.6 3.699 4.105 C2.709 3.775 1.719 3.445 0.699 3.105 C-1.696 3.036 -4.092 3.021 -6.488 3.043 C-7.761 3.052 -9.033 3.061 -10.344 3.07 C-11.32 3.082 -12.295 3.094 -13.301 3.105 C-13.301 2.115 -13.301 1.125 -13.301 0.105 C-8.729 -1.418 -4.504 -1.751 0 0 Z " fill="#000000" transform="translate(543.30078125,295.89453125)"/>
<path d="M0 0 C0.66 0 1.32 0 2 0 C1.385 3.995 -0.706 6.745 -3 10 C-3.75 8.375 -3.75 8.375 -4 6 C-2.188 2.75 -2.188 2.75 0 0 Z " fill="#000000" transform="translate(223,297)"/>
<path d="M0 0 C2.238 0.48 3.994 0.996 6 2.125 C8.439 3.192 9.541 2.878 12 2 C11.01 3.32 10.02 4.64 9 6 C10.98 9.3 12.96 12.6 15 16 C16.98 15.67 18.96 15.34 21 15 C19.625 16.5 19.625 16.5 18 18 C17.34 18 16.68 18 16 18 C16.247 18.773 16.247 18.773 16.5 19.562 C17.15 22.734 17.062 25.772 17 29 C16.34 29 15.68 29 15 29 C14.67 26.36 14.34 23.72 14 21 C12.68 21.33 11.36 21.66 10 22 C10.33 21.34 10.66 20.68 11 20 C11.66 20 12.32 20 13 20 C10.918 14.413 8.618 9.809 3 7 C3 6.01 3 5.02 3 4 C2.01 3.34 1.02 2.68 0 2 C0 1.34 0 0.68 0 0 Z " fill="#000000" transform="translate(654,308)"/>
<path d="M0 0 C1 3 1 3 0.145 5.207 C-0.295 6.067 -0.735 6.927 -1.188 7.812 C-4.328 14.357 -6.17 20.996 -8 28 C-8.33 28 -8.66 28 -9 28 C-9.704 17.263 -6.097 8.721 0 0 Z " fill="#000000" transform="translate(216,310)"/>
<path d="M0 0 C0.959 -0.026 1.918 -0.052 2.906 -0.078 C5.5 0.25 5.5 0.25 8.5 3.25 C2.56 3.25 -3.38 3.25 -9.5 3.25 C-7.62 -0.51 -3.765 0.061 0 0 Z " fill="#000000" transform="translate(346.5,322.75)"/>
<path d="M0 0 C0.66 0.66 1.32 1.32 2 2 C-3.94 2.495 -3.94 2.495 -10 3 C-8.041 -0.919 -3.886 -0.248 0 0 Z " fill="#000000" transform="translate(348,330)"/>
<path d="M0 0 C0.66 0.33 1.32 0.66 2 1 C-5.637 6.411 -13.391 11.636 -21.188 16.812 C-23.577 18.399 -25.966 19.987 -28.355 21.574 C-28.934 21.959 -29.513 22.343 -30.109 22.739 C-33.416 24.938 -36.709 27.155 -39.988 29.395 C-40.683 29.867 -41.379 30.34 -42.095 30.827 C-43.325 31.665 -44.552 32.509 -45.774 33.359 C-48.448 35.174 -49.685 36 -53 36 C-46.14 30.376 -39.105 25.111 -31.812 20.062 C-30.812 19.368 -29.812 18.674 -28.782 17.958 C-21.037 12.623 -13.155 7.68 -5 3 C-4.085 2.408 -3.17 1.817 -2.227 1.207 C-1.124 0.61 -1.124 0.61 0 0 Z " fill="#000000" transform="translate(711,340)"/>
<path d="M0 0 C0.66 0 1.32 0 2 0 C1.67 2.31 1.34 4.62 1 7 C2.156 6.225 2.156 6.225 3.336 5.434 C4.339 4.775 5.342 4.116 6.375 3.438 C7.373 2.776 8.37 2.115 9.398 1.434 C10.257 0.961 11.115 0.487 12 0 C12.99 0.495 12.99 0.495 14 1 C12.998 1.617 11.997 2.235 10.965 2.871 C-2.715 11.498 -11.45 22.361 -16.984 37.734 C-18.205 40.457 -19.608 41.661 -21.938 43.5 C-25.038 46.072 -27.215 48.318 -29 52 C-28.278 52.206 -27.556 52.413 -26.812 52.625 C-22.44 54.763 -20.058 58.135 -17.688 62.312 C-14.795 73.619 -19.506 84.968 -25.064 94.742 C-30.663 104.123 -37.098 113.424 -45 121 C-43.68 121.33 -42.36 121.66 -41 122 C-46.117 126.952 -51.659 127.883 -58.562 128.125 C-59.367 128.084 -60.171 128.043 -61 128 C-61.33 126.68 -61.66 125.36 -62 124 C-61.261 123.946 -60.523 123.892 -59.762 123.836 C-52.318 122.72 -48.51 120.27 -44.062 114.438 C-35.112 102.224 -30.329 90.37 -32 75 C-33.554 69.903 -35.689 65.554 -40.125 62.438 C-43.948 60.526 -46.883 59.854 -51.105 59.684 C-52.58 59.621 -52.58 59.621 -54.084 59.557 C-55.62 59.498 -55.62 59.498 -57.188 59.438 C-58.223 59.394 -59.259 59.351 -60.326 59.307 C-62.884 59.201 -65.442 59.098 -68 59 C-64.17 54.95 -60.066 51.706 -55.562 48.438 C-48.33 43.1 -41.488 37.431 -34.731 31.509 C-32.965 29.97 -31.186 28.447 -29.402 26.93 C-22.519 21.096 -22.519 21.096 -15.816 15.059 C-15.318 14.595 -14.82 14.132 -14.307 13.655 C-12.966 12.398 -11.635 11.131 -10.305 9.863 C-8.085 8.069 -6.789 7.379 -4 7 C-4.66 8.65 -5.32 10.3 -6 12 C-5.34 12 -4.68 12 -4 12 C-1.786 8.205 -0.99 4.244 0 0 Z " fill="#000000" transform="translate(669,343)"/>
<path d="M0 0 C2.5 0.125 2.5 0.125 3.5 1.125 C3.789 3.054 4.007 4.995 4.188 6.938 C4.294 7.996 4.401 9.054 4.512 10.145 C4.5 13.161 4.089 14.611 2.5 17.125 C0.834 17.168 -0.834 17.166 -2.5 17.125 C-4.256 15.369 -3.632 13.089 -3.637 10.754 C-3.633 10.051 -3.629 9.349 -3.625 8.625 C-3.629 7.922 -3.633 7.22 -3.637 6.496 C-3.625 0.181 -3.625 0.181 0 0 Z " fill="#000000" transform="translate(482.5,347.875)"/>
<path d="M0 0 C0.66 0.33 1.32 0.66 2 1 C-2.95 3.97 -2.95 3.97 -8 7 C-6.884 3.653 -6.487 3.379 -3.562 1.75 C-2.387 1.173 -1.211 0.595 0 0 Z " fill="#000000" transform="translate(721,357)"/>
<path d="M0 0 C0.66 0.66 1.32 1.32 2 2 C1.926 4.477 1.926 4.477 1 7 C-1.02 8.336 -1.02 8.336 -3.812 9.375 C-4.884 9.778 -5.955 10.182 -7.059 10.598 C-7.672 10.816 -8.285 11.034 -8.917 11.258 C-11.299 12.106 -13.666 12.99 -16.035 13.871 C-17.814 14.52 -19.594 15.167 -21.375 15.812 C-22.231 16.127 -23.086 16.441 -23.968 16.765 C-28.43 18.339 -32.197 19.521 -37 19 C-38.938 17.812 -38.938 17.812 -40 16 C-39.773 13.141 -39.629 11.545 -37.418 9.629 C-9.635 -3.655 -9.635 -3.655 0 0 Z " fill="#000000" transform="translate(453,362)"/>
<path d="M0 0 C0.99 0 1.98 0 3 0 C2.33 3.24 1.148 5.882 -0.375 8.812 C-2.423 12.82 -4.282 16.841 -6 21 C-6.66 20.34 -7.32 19.68 -8 19 C-3.942 4.45 -3.942 4.45 0 0 Z " fill="#000000" transform="translate(130,363)"/>
<path d="M0 0 C0.66 0.66 1.32 1.32 2 2 C-2.284 4.874 -6.574 7.737 -10.874 10.588 C-12.268 11.514 -13.661 12.442 -15.052 13.373 C-16.967 14.652 -18.889 15.921 -20.812 17.188 C-21.404 17.586 -21.996 17.984 -22.606 18.394 C-24.032 19.325 -25.512 20.172 -27 21 C-27.66 20.67 -28.32 20.34 -29 20 C-19.479 13.105 -9.819 6.464 0 0 Z " fill="#000000" transform="translate(708,364)"/>
<path d="M0 0 C0.99 2.475 0.99 2.475 2 5 C-1.307 8.876 -5.082 10.591 -9.688 12.5 C-20.989 17.366 -32.056 22.679 -43.11 28.078 C-45.118 29.057 -47.127 30.033 -49.136 31.008 C-65.964 39.19 -82.561 47.35 -98 58 C-98.739 58.509 -99.479 59.017 -100.24 59.541 C-104.556 62.512 -104.556 62.512 -108.842 65.525 C-112.118 67.835 -115.194 69.712 -119 71 C-114.497 66.042 -109.191 62.464 -103.688 58.688 C-102.756 58.042 -101.825 57.397 -100.865 56.732 C-98.58 55.15 -96.292 53.573 -94 52 C-94.33 50.02 -94.66 48.04 -95 46 C-88.452 40.548 -81.591 36.268 -74.125 32.188 C-73.024 31.579 -71.924 30.971 -70.79 30.344 C-61.261 25.098 -51.679 19.964 -42 15 C-40.644 14.301 -40.644 14.301 -39.26 13.589 C-8.057 -2.436 -8.057 -2.436 0 0 Z " fill="#000000" transform="translate(773,376)"/>
<path d="M0 0 C0.66 0.33 1.32 0.66 2 1 C1.492 1.499 0.984 1.998 0.461 2.512 C-11.626 15.12 -14.842 31.028 -16 48 C-16.99 48 -17.98 48 -19 48 C-19.989 31.958 -16.41 18.252 -6.375 5.562 C-4.355 3.383 -2.464 1.643 0 0 Z " fill="#000000" transform="translate(158,381)"/>
<path d="M0 0 C0.99 0 1.98 0 3 0 C8.338 8.866 7.083 17.218 5 27 C5.987 26.339 6.975 25.677 7.992 24.996 C9.286 24.143 10.58 23.29 11.875 22.438 C12.851 21.781 12.851 21.781 13.848 21.111 C15.526 20.012 17.26 18.999 19 18 C19.66 18.33 20.32 18.66 21 19 C20.47 19.337 19.941 19.675 19.395 20.022 C16.985 21.566 14.586 23.127 12.188 24.688 C11.354 25.218 10.521 25.748 9.662 26.295 C3.766 30.135 3.766 30.135 0 36 C-1.188 34.312 -1.188 34.312 -2 32 C-1.036 30.312 -0.027 28.65 1 27 C2.617 21.773 4.556 15.113 2 10 C1.653 8.002 1.32 6.002 1 4 C0.683 2.663 0.357 1.327 0 0 Z " fill="#000000" transform="translate(667,381)"/>
<path d="M0 0 C4.091 0.537 4.529 0.76 7.062 3.688 C8.003 4.941 8.922 6.211 9.812 7.5 C10.452 8.366 11.091 9.233 11.75 10.125 C13.048 13.027 12.751 14.513 11.812 17.5 C9.625 17.438 9.625 17.438 6.812 16.5 C4.426 13.933 1.812 11.111 1.812 7.5 C0.822 7.995 0.822 7.995 -0.188 8.5 C-0.877 10.849 -0.877 10.849 -1.312 13.562 C-1.48 14.482 -1.648 15.401 -1.82 16.348 C-1.941 17.058 -2.063 17.768 -2.188 18.5 C-1.101 18.738 -1.101 18.738 0.008 18.98 C6.219 20.479 10.328 21.898 14.812 26.5 C16.451 29.777 16.614 32.986 15.812 36.5 C13.133 40.025 10.099 42.117 5.875 43.375 C5.194 43.416 4.514 43.457 3.812 43.5 C3.483 42.18 3.152 40.86 2.812 39.5 C3.782 38.923 4.751 38.345 5.75 37.75 C8.81 35.826 8.81 35.826 9.938 33.5 C9.985 31.362 9.985 31.362 8.359 29.531 C4.831 26.718 1.277 26.017 -3.062 25 C-9.855 23.393 -14.799 21.655 -20 16.812 C-21.841 13.227 -21.941 9.48 -22.188 5.5 C-20.868 4.84 -19.548 4.18 -18.188 3.5 C-17.841 4.531 -17.841 4.531 -17.488 5.582 C-15.517 11.322 -15.517 11.322 -11.438 15.625 C-10.324 16.058 -10.324 16.058 -9.188 16.5 C-9.078 15.836 -8.968 15.172 -8.855 14.488 C-6.435 1.009 -6.435 1.009 0 0 Z " fill="#000000" transform="translate(502.1875,384.5)"/>
<path d="M0 0 C6.663 2.832 10.411 9.806 13.5 16.062 C14.297 18.75 14.297 18.75 14.5 21.062 C13.84 21.723 13.18 22.382 12.5 23.062 C10.07 22.996 10.07 22.996 7.5 22.062 C5.805 19.848 5.805 19.848 4.375 17.125 C2.172 12.979 2.172 12.979 -1.5 10.062 C-1.682 10.824 -1.864 11.586 -2.051 12.371 C-6.312 29.874 -6.312 29.874 -9.5 33.062 C-13.036 32.527 -13.036 32.527 -14.5 31.062 C-14.069 24.61 -12.791 18.869 -10.75 12.75 C-10.39 11.573 -10.39 11.573 -10.023 10.373 C-8.321 5.208 -6.202 0.155 0 0 Z " fill="#000000" transform="translate(449.5,402.9375)"/>
<path d="M0 0 C3.714 1.238 4.638 2.705 7.062 5.75 C7.85 6.739 8.638 7.727 9.449 8.746 C10.3 9.831 11.15 10.915 12 12 C12.444 12.56 12.888 13.119 13.346 13.696 C22.08 24.698 22.08 24.698 25 31 C21.474 29.825 20.846 28.843 18.625 25.938 C16.005 22.553 13.359 19.208 10.621 15.918 C9.741 14.856 9.741 14.856 8.843 13.772 C7.669 12.356 6.489 10.943 5.305 9.535 C4.762 8.876 4.219 8.218 3.66 7.539 C3.172 6.953 2.683 6.368 2.18 5.764 C0.899 3.849 0.422 2.25 0 0 Z " fill="#000000" transform="translate(324,412)"/>
<path d="M0 0 C5.688 0.464 9.302 1.684 14 5 C15.438 7.75 15.438 7.75 16 10 C15.515 9.674 15.031 9.348 14.531 9.012 C9.821 5.941 5.325 3.807 0 2 C0 1.34 0 0.68 0 0 Z " fill="#000000" transform="translate(608,414)"/>
<path d="M0 0 C6.4 0.492 6.4 0.492 9.438 3.062 C10.211 4.022 10.211 4.022 11 5 C10.67 5.66 10.34 6.32 10 7 C9.092 6.381 8.185 5.762 7.25 5.125 C4.851 3.556 2.59 2.196 0 1 C0 0.67 0 0.34 0 0 Z " fill="#000000" transform="translate(611,423)"/>
<path d="M0 0 C-1.64 0.839 -1.64 0.839 -3.312 1.695 C-14.035 7.236 -24.512 13.119 -34.9 19.264 C-45.45 25.496 -45.45 25.496 -49 27 C-49.66 26.67 -50.32 26.34 -51 26 C-39.41 18.492 -27.605 11.527 -15.375 5.125 C-14.481 4.651 -14.481 4.651 -13.57 4.167 C-11.873 3.27 -10.167 2.388 -8.461 1.508 C-6.988 0.744 -6.988 0.744 -5.486 -0.035 C-3 -1 -3 -1 0 0 Z " fill="#000000" transform="translate(734,425)"/>
<path d="M0 0 C8.169 3.029 13.655 15.907 18.062 23.125 C18.457 23.764 18.851 24.403 19.257 25.061 C22 29.641 22 29.641 22 33 C17.248 27.959 13.399 22.714 9.773 16.816 C7.469 13.156 4.943 9.676 2.383 6.191 C1.048 4.076 0.434 2.445 0 0 Z " fill="#000000" transform="translate(383,426)"/>
<path d="M0 0 C5.216 3.593 7.39 9.036 9 15 C9.274 19.46 8.997 23.855 8.75 28.312 C8.467 38.198 8.703 44.217 14.832 52.18 C23.333 63.239 26.181 78.089 26.375 91.75 C26.389 92.442 26.403 93.134 26.417 93.847 C26.398 95.797 26.398 95.797 26 99 C25.01 99.66 24.02 100.32 23 101 C20.14 98.14 20.751 95.267 20.688 91.438 C20.035 75.443 14.729 57.416 3 46 C3 45.34 3 44.68 3 44 C-3.648 40.277 -9.653 39.359 -17 41 C-27.689 44.188 -36.828 50.554 -45 58 C-46.32 57.34 -47.64 56.68 -49 56 C-48.465 50.459 -47.435 45.529 -45.438 40.312 C-45.174 39.623 -44.911 38.934 -44.64 38.224 C-38.728 23.366 -28.195 7.999 -13.625 0.562 C-8.906 -1.354 -4.86 -1.592 0 0 Z M-20 13 C-21.763 15.126 -21.763 15.126 -23 17 C-22.67 17.66 -22.34 18.32 -22 19 C-21.429 18.807 -20.858 18.613 -20.27 18.414 C-13.265 16.165 -6.284 14.97 1 14 C-0.639 8.486 -0.639 8.486 -5 5 C-10.409 5 -16.194 9.52 -20 13 Z " fill="#000000" transform="translate(518,438)"/>
<path d="M0 0 C0.66 0.33 1.32 0.66 2 1 C-8.329 10.86 -20.071 15.036 -34.25 15.125 C-36.106 15.063 -36.106 15.063 -38 15 C-38 14.34 -38 13.68 -38 13 C-39.32 12.67 -40.64 12.34 -42 12 C-38.061 10.851 -34.064 10.474 -30 10 C-30 10.66 -30 11.32 -30 12 C-13.75 8.757 -13.75 8.757 0 0 Z " fill="#000000" transform="translate(713,442)"/>
<path d="M0 0 C4.318 1.488 5.876 4.632 8.062 8.375 C11.966 14.774 16.43 20.083 21.617 25.477 C23.596 27.572 25.336 29.653 27 32 C22.245 29.839 18.816 26.5 15 23 C14.408 22.486 13.817 21.971 13.207 21.441 C7.562 16.261 3.519 9.764 0 3 C0 2.01 0 1.02 0 0 Z " fill="#000000" transform="translate(144,448)"/>
<path d="M0 0 C4.139 3.3 7.587 6.173 10 11 C8.68 11 7.36 11 6 11 C4.297 9.102 4.297 9.102 2.75 6.625 C2.229 5.813 1.708 5.001 1.172 4.164 C0 2 0 2 0 0 Z " fill="#000000" transform="translate(418,453)"/>
<path d="M0 0 C-0.572 0.281 -1.144 0.562 -1.734 0.851 C-14.693 7.228 -27.447 13.856 -40 21 C-39.594 21.467 -39.189 21.934 -38.771 22.415 C-37.968 23.344 -37.968 23.344 -37.148 24.293 C-36.619 24.904 -36.09 25.515 -35.544 26.145 C-30 32.804 -30 32.804 -30 36 C-28.35 35.67 -26.7 35.34 -25 35 C-25.99 35.99 -26.98 36.98 -28 38 C-27.783 38.771 -27.567 39.542 -27.344 40.336 C-27.065 41.339 -26.787 42.342 -26.5 43.375 C-26.222 44.373 -25.943 45.37 -25.656 46.398 C-25 49 -25 49 -25 51 C-23.515 51.495 -23.515 51.495 -22 52 C-22.99 52.495 -22.99 52.495 -24 53 C-24.47 56.276 -24.47 56.276 -24.625 60.062 C-24.7 61.353 -24.775 62.643 -24.852 63.973 C-24.925 65.471 -24.925 65.471 -25 67 C-25.66 67 -26.32 67 -27 67 C-27.168 68.062 -27.168 68.062 -27.34 69.145 C-30.558 83.065 -42.281 97.083 -54 105 C-54.66 105 -55.32 105 -56 105 C-55.518 105.713 -55.036 106.426 -54.539 107.16 C-51.107 112.365 -48.229 116.857 -47 123 C-47.771 122.506 -48.542 122.013 -49.336 121.504 C-50.339 120.863 -51.342 120.223 -52.375 119.562 C-53.373 118.924 -54.37 118.286 -55.398 117.629 C-57.858 116.031 -57.858 116.031 -60 115 C-61.105 112.602 -61.105 112.602 -62.188 109.625 C-62.552 108.648 -62.917 107.671 -63.293 106.664 C-64 104 -64 104 -63 101 C-60.777 99.238 -60.777 99.238 -57.938 97.312 C-48.961 90.925 -42.109 83.883 -37 74 C-37 73.01 -37 72.02 -37 71 C-36.294 70.074 -36.294 70.074 -35.574 69.129 C-33.768 66.686 -33.337 64.91 -32.812 61.938 C-32.575 60.652 -32.575 60.652 -32.332 59.34 C-31.432 52.998 -32.599 46.205 -34 40 C-34.928 40.516 -35.856 41.031 -36.812 41.562 C-40 43 -40 43 -43 42 C-37.25 39 -37.25 39 -35 39 C-36.078 37.413 -37.163 35.831 -38.25 34.25 C-38.853 33.368 -39.457 32.487 -40.078 31.578 C-43.438 26.975 -43.438 26.975 -48.25 24.25 C-48.827 24.168 -49.405 24.085 -50 24 C-50 23.34 -50 22.68 -50 22 C-65.719 13.539 -79.809 12.306 -97.266 15.562 C-99.898 15.984 -102.34 16.078 -105 16 C-100.874 10.942 -97.348 9.955 -91 9 C-75.418 7.601 -59.073 8.498 -46.016 17.926 C-44.104 19.202 -44.104 19.202 -42.166 18.722 C-39.694 17.898 -37.596 16.801 -35.324 15.523 C-34.42 15.02 -33.516 14.517 -32.585 13.999 C-31.629 13.463 -30.673 12.927 -29.688 12.375 C-22.966 8.664 -16.247 4.986 -9.312 1.688 C-8.154 1.134 -6.995 0.581 -5.801 0.012 C-3 -1 -3 -1 0 0 Z " fill="#000000" transform="translate(731,452)"/>
<path d="M0 0 C3 1 3 1 4.387 3.285 C4.816 4.202 5.245 5.118 5.688 6.062 C6.343 7.441 6.343 7.441 7.012 8.848 C7.338 9.558 7.664 10.268 8 11 C3.858 9.181 2.252 6.941 0 3 C0 2.01 0 1.02 0 0 Z " fill="#000000" transform="translate(138,466)"/>
<path d="M0 0 C5.277 0.539 9.256 1.773 14 4 C14 4.66 14 5.32 14 6 C12.226 5.575 10.456 5.135 8.688 4.688 C7.701 4.444 6.715 4.2 5.699 3.949 C2.999 3 1.79 2.182 0 0 Z " fill="#000000" transform="translate(569,467)"/>
<path d="M0 0 C5.571 5.143 5.571 5.143 6 9 C3 8 3 8 1.312 5.062 C0 2 0 2 0 0 Z " fill="#000000" transform="translate(415,469)"/>
<path d="M0 0 C1.938 0.812 1.938 0.812 4 2 C4.33 2.99 4.66 3.98 5 5 C3.188 6.562 3.188 6.562 1 8 C0.01 7.67 -0.98 7.34 -2 7 C-2.125 4.625 -2.125 4.625 -2 2 C-1.34 1.34 -0.68 0.68 0 0 Z " fill="#000000" transform="translate(728,470)"/>
<path d="M0 0 C3.513 1.171 3.496 1.561 5.062 4.688 C8.841 11.027 15.219 14.464 22.25 16.312 C27.116 17.209 27.116 17.209 32 18 C32 18.33 32 18.66 32 19 C22.601 19.9 15.869 18.296 8 13 C3.717 9.289 1.357 5.565 0 0 Z " fill="#000000" transform="translate(263,474)"/>
<path d="M0 0 C5.785 4.431 5.785 4.431 6.875 7.312 C6.916 7.869 6.957 8.426 7 9 C3.175 7.549 1.809 5.618 0 2 C0 1.34 0 0.68 0 0 Z " fill="#000000" transform="translate(370,483)"/>
<path d="M0 0 C3.375 1.186 5.647 2.276 8 5 C7.67 5.66 7.34 6.32 7 7 C5.83 6.024 4.664 5.044 3.5 4.062 C2.85 3.517 2.201 2.972 1.531 2.41 C1.026 1.945 0.521 1.479 0 1 C0 0.67 0 0.34 0 0 Z " fill="#000000" transform="translate(571,484)"/>
<path d="M0 0 C0.99 0.33 1.98 0.66 3 1 C-0.619 2.867 -4.246 4.716 -7.875 6.562 C-8.908 7.096 -9.94 7.629 -11.004 8.178 C-11.99 8.677 -12.976 9.177 -13.992 9.691 C-14.903 10.157 -15.815 10.624 -16.753 11.104 C-17.865 11.547 -17.865 11.547 -19 12 C-19.66 11.67 -20.32 11.34 -21 11 C-17.875 9.354 -14.75 7.708 -11.625 6.062 C-10.291 5.36 -10.291 5.36 -8.93 4.643 C-8.079 4.195 -7.228 3.747 -6.352 3.285 C-5.566 2.871 -4.781 2.458 -3.971 2.031 C-2.654 1.342 -1.33 0.665 0 0 Z " fill="#000000" transform="translate(685,495)"/>
<path d="M0 0 C4.311 1.547 6.537 4.842 9.188 8.375 C9.638 8.952 10.089 9.53 10.553 10.125 C12.724 12.977 14.546 15.383 15 19 C11.661 17.887 11.119 17.201 9.082 14.473 C8.55 13.763 8.019 13.053 7.471 12.322 C6.923 11.577 6.376 10.831 5.812 10.062 C5.254 9.321 4.695 8.579 4.119 7.814 C0 2.267 0 2.267 0 0 Z " fill="#000000" transform="translate(568,499)"/>
<path d="M0 0 C2.475 0.495 2.475 0.495 5 1 C4.625 2.938 4.625 2.938 4 5 C3.01 5.495 3.01 5.495 2 6 C1.34 5.67 0.68 5.34 0 5 C0 3.35 0 1.7 0 0 Z " fill="#000000" transform="translate(347,502)"/>
<path d="M0 0 C11.381 0.204 20.054 5.729 27.879 13.484 C34.311 20.355 39.67 28.525 39.688 38.312 C38.223 40.105 38.223 40.105 36.688 41.312 C34.898 40.793 34.898 40.793 32.688 39.312 C31.415 36.747 30.339 34.285 29.312 31.625 C26.864 25.712 24.68 20.529 19.688 16.312 C19.066 15.785 18.445 15.258 17.805 14.715 C11.436 9.932 4.313 8.157 -3.312 6.312 C-3.695 4.656 -4.026 2.988 -4.312 1.312 C-3.312 0.312 -3.312 0.312 0 0 Z " fill="#000000" transform="translate(601.3125,501.6875)"/>
<path d="M0 0 C-0.579 0.266 -1.157 0.533 -1.753 0.807 C-16.274 7.438 -16.274 7.438 -29.941 15.625 C-31.903 16.935 -33.869 17.995 -36 19 C-36 18.34 -36 17.68 -36 17 C-34.094 15.529 -32.215 14.225 -30.188 12.938 C-29.577 12.548 -28.966 12.158 -28.337 11.756 C-22.999 8.447 -17.47 5.597 -11.812 2.875 C-10.987 2.473 -10.162 2.07 -9.311 1.656 C-8.534 1.293 -7.757 0.929 -6.957 0.555 C-6.266 0.23 -5.575 -0.095 -4.863 -0.43 C-3 -1 -3 -1 0 0 Z " fill="#000000" transform="translate(693,511)"/>
<path d="M0 0 C2.034 1.415 2.904 2.55 3.422 4.98 C3.663 6.982 3.835 8.991 4 11 C2 10 2 10 0.875 7.188 C0 4 0 4 0 0 Z " fill="#000000" transform="translate(558,511)"/>
<path d="M0 0 C0.66 0.33 1.32 0.66 2 1 C2 1.66 2 2.32 2 3 C0.355 4.289 0.355 4.289 -1.812 5.625 C-2.52 6.071 -3.228 6.517 -3.957 6.977 C-6 8 -6 8 -9 8 C-9 7.01 -9 6.02 -9 5 C-7.547 4.136 -6.088 3.284 -4.625 2.438 C-3.407 1.724 -3.407 1.724 -2.164 0.996 C-1.45 0.667 -0.736 0.339 0 0 Z " fill="#000000" transform="translate(418,518)"/>
<path d="M0 0 C-0.121 2.285 -0.121 2.285 -1 5 C-3.535 6.746 -3.535 6.746 -7.062 8.438 C-8.439 9.124 -9.812 9.816 -11.184 10.512 C-11.948 10.899 -12.712 11.286 -13.5 11.685 C-18.301 14.21 -22.952 16.997 -27.625 19.75 C-29.696 20.964 -31.768 22.177 -33.84 23.391 C-34.866 23.992 -35.892 24.593 -36.949 25.213 C-71.224 45.288 -71.224 45.288 -80 46 C-80.99 45.34 -81.98 44.68 -83 44 C-83.375 41.562 -83.375 41.562 -83 39 C-80.892 36.437 -78.647 35.174 -75.66 33.793 C-74.777 33.379 -73.893 32.964 -72.983 32.537 C-72.019 32.092 -71.055 31.646 -70.062 31.188 C-60.99 26.929 -52.008 22.519 -43.062 18 C-33.951 13.422 -24.807 8.929 -15.562 4.625 C-14.071 3.919 -14.071 3.919 -12.549 3.199 C-11.627 2.775 -10.704 2.351 -9.754 1.914 C-8.552 1.356 -8.552 1.356 -7.326 0.788 C-4.756 -0.083 -2.695 -0.146 0 0 Z " fill="#000000" transform="translate(156,523)"/>
<path d="M0 0 C-0.795 0.341 -1.589 0.683 -2.408 1.035 C-24.474 10.569 -24.474 10.569 -45 23 C-46.258 23.872 -47.516 24.745 -48.773 25.617 C-51.038 27.188 -53.284 28.777 -55.523 30.383 C-58 32 -58 32 -60 32 C-56.945 24.346 -47.153 20.193 -40 17 C-39.34 17 -38.68 17 -38 17 C-37.67 16.01 -37.34 15.02 -37 14 C-35.273 12.928 -35.273 12.928 -33.02 11.949 C-32.191 11.583 -31.363 11.217 -30.51 10.839 C-29.62 10.459 -28.729 10.079 -27.812 9.688 C-26.912 9.294 -26.011 8.901 -25.082 8.497 C-23.256 7.701 -21.427 6.91 -19.597 6.124 C-17.275 5.119 -14.967 4.089 -12.664 3.043 C-11.422 2.487 -10.18 1.931 -8.938 1.375 C-7.853 0.888 -6.769 0.4 -5.652 -0.102 C-3 -1 -3 -1 0 0 Z " fill="#000000" transform="translate(694,524)"/>
<path d="M0 0 C1.164 3.491 1 6.332 1 10 C1.285 11.676 1.6 13.348 2 15 C0.292 13.366 -0.935 12.131 -2 10 C-1.914 7.871 -1.914 7.871 -1.625 5.438 C-1.535 4.632 -1.445 3.826 -1.352 2.996 C-1 1 -1 1 0 0 Z " fill="#000000" transform="translate(305,525)"/>
<path d="M0 0 C0 0.66 0 1.32 0 2 C-2.181 3.5 -4.343 4.858 -6.625 6.188 C-7.634 6.783 -7.634 6.783 -8.664 7.391 C-17.079 12.297 -25.67 17.096 -35 20 C-35.33 19.01 -35.66 18.02 -36 17 C-35.467 16.769 -34.935 16.539 -34.386 16.301 C-24.118 11.828 -14.151 7.225 -4.555 1.434 C-2 0 -2 0 0 0 Z " fill="#000000" transform="translate(393,532)"/>
<path d="M0 0 C3.27 0.924 4.683 1.477 6.477 4.434 C10.844 15.857 14.176 26.747 14.188 39.062 C14.2 39.757 14.212 40.451 14.225 41.166 C14.236 45.199 13.983 48.445 12 52 C9.438 52.875 9.438 52.875 7 53 C5.462 51.462 5.855 50.013 5.824 47.871 C5.493 34.334 3.752 22.624 -0.812 9.812 C-1.941 6.188 -2.315 4.508 -1 1 C-0.67 0.67 -0.34 0.34 0 0 Z " fill="#000000" transform="translate(588,537)"/>
<path d="M0 0 C0.33 0 0.66 0 1 0 C1.037 1.125 1.075 2.251 1.113 3.41 C1.852 21.99 4.117 38.835 17.605 52.816 C24.934 59.499 33.111 62.253 42.461 64.922 C45.205 65.758 47.518 66.6 50 68 C37.739 68.817 25.136 63.419 15.688 55.812 C6.743 47.352 0.378 34.532 -0.114 22.137 C-0.108 21.116 -0.103 20.095 -0.098 19.043 C-0.093 17.375 -0.093 17.375 -0.088 15.674 C-0.08 14.523 -0.071 13.373 -0.062 12.188 C-0.058 11.018 -0.053 9.848 -0.049 8.643 C-0.037 5.762 -0.021 2.881 0 0 Z " fill="#000000" transform="translate(181,538)"/>
<path d="M0 0 C1.179 3.536 0.521 4.641 -1.045 7.887 C-1.36 8.502 -1.675 9.117 -2 9.75 C-2.32 10.378 -2.639 11.006 -2.969 11.654 C-6.801 18.891 -11.3 23.807 -19 27 C-19.33 26.01 -19.66 25.02 -20 24 C-19.175 23.526 -18.35 23.051 -17.5 22.562 C-9.244 16.994 -4.321 8.757 0 0 Z " fill="#000000" transform="translate(706,538)"/>
<path d="M0 0 C2.624 0.97 3.769 1.54 5.047 4.082 C6.866 11.148 7.28 17.845 7.312 25.125 C7.318 26.062 7.323 26.999 7.329 27.964 C7.257 34.743 7.257 34.743 5 37 C2.438 36.75 2.438 36.75 0 36 C-1.159 33.683 -1.183 32.18 -1.281 29.598 C-1.318 28.712 -1.355 27.826 -1.393 26.913 C-1.428 25.972 -1.464 25.032 -1.5 24.062 C-1.81 16.685 -2.192 9.343 -3 2 C-2.01 1.34 -1.02 0.68 0 0 Z " fill="#000000" transform="translate(558,538)"/>
<path d="M0 0 C5 2 5 2 7.312 3 C10.148 4.055 12.832 4.622 15.812 5.125 C16.788 5.293 17.764 5.46 18.77 5.633 C19.506 5.754 20.242 5.875 21 6 C20.67 6.66 20.34 7.32 20 8 C13.425 8.359 6.499 7.941 1.238 3.52 C0 2 0 2 0 0 Z " fill="#000000" transform="translate(316,549)"/>
<path d="M0 0 C1 3 1 3 -0.074 5.156 C-0.607 5.93 -1.139 6.703 -1.688 7.5 C-2.207 8.273 -2.726 9.047 -3.262 9.844 C-5.027 12.033 -6.608 13.528 -9 15 C-9.99 15 -10.98 15 -12 15 C-10.861 11.583 -9.866 10.844 -7.125 8.625 C-4.024 6.007 -1.797 3.706 0 0 Z " fill="#000000" transform="translate(708,555)"/>
<path d="M0 0 C3.118 1.559 3.453 4.687 4.562 7.812 C7.127 14.689 10.523 19.942 15.145 25.609 C17 28 17 28 18 31 C12.901 30.114 10.949 27.012 8 23 C4.061 17.211 0.213 11.003 -1 4 C-0.566 1.742 -0.566 1.742 0 0 Z " fill="#000000" transform="translate(168,572)"/>
<path d="M0 0 C3.103 2.567 4.01 5.308 5.312 9.062 C11.486 25.599 21.851 34.303 36 44 C35.01 44.495 35.01 44.495 34 45 C20.088 39.325 9.345 29.702 3 16 C0.904 10.665 -0.457 5.788 0 0 Z " fill="#000000" transform="translate(153,578)"/>
<path d="M0 0 C0.66 0.33 1.32 0.66 2 1 C1.503 5.973 0.447 9.638 -2 14 C-2.66 13.34 -3.32 12.68 -4 12 C-3.828 9.941 -3.828 9.941 -3.25 7.562 C-3.07 6.78 -2.889 5.998 -2.703 5.191 C-2 3 -2 3 0 0 Z " fill="#000000" transform="translate(698,578)"/>
<path d="M0 0 C0.66 0 1.32 0 2 0 C3.438 1.574 3.438 1.574 5 3.688 C5.773 4.714 5.773 4.714 6.562 5.762 C8.149 8.232 9.322 10.128 10 13 C6.142 21.743 -1.447 29.178 -8 36 C-8.66 35.67 -9.32 35.34 -10 35 C-9.423 33.969 -8.845 32.938 -8.25 31.875 C-3.307 21.937 -1.379 10.922 0 0 Z " fill="#000000" transform="translate(673,579)"/>
<path d="M0 0 C0.853 0.615 0.853 0.615 1.723 1.242 C11.464 8.04 18.249 8.203 29.625 6.438 C30.409 6.293 31.192 6.149 32 6 C31 8 31 8 28.848 8.887 C19.77 11.497 12.084 11.833 3.629 7.188 C1.323 5.507 0.147 3.581 -1 1 C-0.67 0.67 -0.34 0.34 0 0 Z " fill="#000000" transform="translate(410,592)"/>
<path d="M0 0 C0.66 0.33 1.32 0.66 2 1 C1.469 4.821 0.503 7.062 -2 10 C-2.99 9.67 -3.98 9.34 -5 9 C-3.751 5.541 -2.325 2.853 0 0 Z " fill="#000000" transform="translate(688,601)"/>
<path d="M0 0 C0.66 0.66 1.32 1.32 2 2 C-6.669 11.054 -20.334 19.257 -33 21 C-35.266 20.559 -35.266 20.559 -37 20 C-35.973 19.636 -34.945 19.273 -33.887 18.898 C-21.094 14.293 -10.423 8.908 0 0 Z " fill="#000000" transform="translate(671,622)"/>
<path d="M0 0 C0.33 0 0.66 0 1 0 C1.086 1.039 1.173 2.078 1.262 3.148 C2.48 15.934 6.559 24.371 14.053 34.712 C17 38.8 17 38.8 17 41 C9.992 38.388 4.771 29.439 1.461 23.012 C-1.626 15.161 -1.683 8.204 0 0 Z " fill="#000000" transform="translate(203,660)"/>
<path d="M0 0 C5.176 2.51 8.118 6.412 11.625 10.812 C12.24 11.574 12.856 12.335 13.49 13.119 C15.334 15.407 17.168 17.703 19 20 C19.979 21.213 20.958 22.425 21.938 23.637 C27.023 29.972 31.882 36.467 36.625 43.062 C37.147 43.777 37.668 44.492 38.206 45.229 C42.917 51.873 42.917 51.873 43 56 C41.062 58.312 41.062 58.312 39 60 C34.608 58.652 32.993 57.11 30.594 53.234 C29.908 52.156 29.222 51.078 28.516 49.967 C28.125 49.346 27.734 48.726 27.332 48.087 C24.655 43.893 21.862 39.775 19.094 35.641 C17.843 33.766 16.593 31.891 15.344 30.016 C14.713 29.07 14.083 28.125 13.434 27.15 C8.289 19.434 3.145 11.717 -2 4 C-1.34 2.68 -0.68 1.36 0 0 Z " fill="#000000" transform="translate(635,662)"/>
<path d="M0 0 C2.827 0.336 3.849 0.834 5.789 2.977 C6.698 4.288 6.698 4.288 7.625 5.625 C8.675 7.133 8.675 7.133 9.746 8.672 C10.498 9.781 11.249 10.89 12 12 C12.374 12.545 12.748 13.089 13.133 13.65 C41.965 55.645 41.965 55.645 41 66 C39 68 39 68 36.223 68.258 C30.992 66.216 29.747 61.77 27.438 56.875 C26.392 54.764 25.342 52.654 24.289 50.547 C23.751 49.461 23.212 48.375 22.657 47.256 C20.042 42.117 17.183 37.125 14.312 32.125 C6.179 17.829 6.179 17.829 2.625 11.312 C2.237 10.624 1.85 9.935 1.45 9.225 C-1.062 4.56 -1.062 4.56 -0.727 1.543 C-0.487 1.034 -0.247 0.525 0 0 Z " fill="#000000" transform="translate(590,664)"/>
<path d="M0 0 C3.975 3.491 6.277 7.561 8.812 12.125 C9.232 12.853 9.652 13.582 10.084 14.332 C11.124 16.185 12.07 18.09 13 20 C12.67 20.66 12.34 21.32 12 22 C6.708 16.321 2.243 10.086 -1 3 C-0.67 2.01 -0.34 1.02 0 0 Z " fill="#000000" transform="translate(240,680)"/>
<path d="M0 0 C1.454 0.031 1.454 0.031 2.938 0.062 C3.268 1.383 3.597 2.702 3.938 4.062 C0.938 6.062 0.938 6.062 -1.75 5.688 C-2.513 5.481 -3.276 5.275 -4.062 5.062 C-4.062 0.083 -4.062 0.083 0 0 Z " fill="#000000" transform="translate(580.0625,695.9375)"/>
<path d="M0 0 C-16.388 11.498 -34.374 16.81 -54.49 13.603 C-59.385 12.614 -64.197 11.362 -69 10 C-69 9.67 -69 9.34 -69 9 C-67.933 9.023 -66.865 9.046 -65.766 9.07 C-45.08 9.381 -24.383 7.666 -5.102 -0.363 C-3 -1 -3 -1 0 0 Z " fill="#000000" transform="translate(400,700)"/>
<path d="M0 0 C0.33 0.99 0.66 1.98 1 3 C-0.312 5.188 -0.312 5.188 -2 7 C-2.66 7 -3.32 7 -4 7 C-3.436 3.73 -2.5 2.174 0 0 Z " fill="#000000" transform="translate(546,702)"/>
<path d="M0 0 C5.02 0.863 9.774 2.482 14.59 4.096 C35.017 10.7 57.845 10.222 78 3 C78.764 2.595 79.529 2.19 80.316 1.773 C82 1 82 1 85 2 C61.308 14.514 34.877 14.795 9.46 7.196 C6.522 6.276 3.758 5.385 1 4 C0.098 1.84 0.098 1.84 0 0 Z " fill="#000000" transform="translate(422,724)"/>
<path d="M0 0 C3.83 1.436 7.421 3.199 11.062 5.047 C13.329 6.162 15.636 7.113 18 8 C18 8.33 18 8.66 18 9 C11.338 8.83 6.096 7.498 1 3 C0.67 2.01 0.34 1.02 0 0 Z " fill="#000000" transform="translate(406,728)"/>
</svg>
