<?xml version="1.0" encoding="UTF-8"?>
<!-- Generator: visioncortex VTracer 0.6.0 -->
<svg version="1.1" xmlns="http://www.w3.org/2000/svg" width="847" height="847">
<path d="M0 0 C5.019 -0.202 5.019 -0.202 7.508 1.664 C7.838 2.159 8.168 2.654 8.508 3.164 C5.441 5.209 4.249 5.502 0.711 5.875 C-0.24 5.983 -1.192 6.091 -2.172 6.202 C-3.692 6.369 -3.692 6.369 -5.242 6.539 C-51.708 12.167 -92.337 40.486 -121.342 76.458 C-124.73 80.791 -128.039 85.181 -131.294 89.615 C-132.492 91.164 -132.492 91.164 -134.492 93.164 C-137.117 92.789 -137.117 92.789 -139.492 92.164 C-140.492 89.164 -140.492 89.164 -139.242 85.852 C-133.205 74.563 -123.702 64.828 -114.905 55.64 C-113.596 54.273 -112.3 52.895 -111.004 51.516 C-104.391 44.654 -97.128 38.832 -89.492 33.164 C-88.952 32.763 -88.412 32.362 -87.855 31.949 C-61.238 12.415 -32.866 2.164 0 0 Z " fill="#000000" transform="translate(385.4921875,98.8359375)"/>
<path d="M0 0 C0.99 0.33 1.98 0.66 3 1 C3 2.65 3 4.3 3 6 C5.64 6 8.28 6 11 6 C11 6.99 11 7.98 11 9 C9.577 9.217 9.577 9.217 8.125 9.438 C4.871 10.63 4.871 10.63 4.156 13.137 C3.668 15.422 3.277 17.68 3 20 C2.34 20 1.68 20 1 20 C-0.354 17.291 -0.065 14.991 0 12 C-2.97 12 -5.94 12 -9 12 C-6.637 9.474 -5.335 8.112 -2 7 C-0.77 3.488 -0.77 3.488 0 0 Z " fill="#000000" transform="translate(601,103)"/>
<path d="M0 0 C0.988 -0 0.988 -0 1.997 -0 C29.209 0.035 29.209 0.035 35.438 4.188 C35.438 5.177 35.438 6.168 35.438 7.188 C34.6 7.174 34.6 7.174 33.745 7.161 C-2.691 5.958 -2.691 5.958 -38.562 11.188 C-39.775 11.499 -40.987 11.81 -42.235 12.131 C-86.133 23.619 -126.56 41.991 -154.707 79.008 C-156.562 81.188 -156.562 81.188 -159.188 81.625 C-161.562 81.188 -161.562 81.188 -163.562 79.188 C-162.682 66.366 -142.705 51.531 -133.715 43.547 C-98.361 13.627 -45.53 -0.029 0 0 Z " fill="#000000" transform="translate(430.5625,121.8125)"/>
<path d="M0 0 C3.58 -0.119 4.8 0.067 7.887 2.125 C7.557 3.115 7.227 4.105 6.887 5.125 C6.199 5.22 5.51 5.315 4.802 5.413 C-36.035 11.138 -68.409 23.158 -95.113 56.125 C-96.988 55.875 -96.988 55.875 -99.113 55.125 C-100.246 53.078 -100.246 53.078 -101.113 51.125 C-84.106 25.715 -58.686 9.799 -28.802 3.649 C-19.26 1.817 -9.7 0.574 0 0 Z " fill="#000000" transform="translate(411.11328125,152.875)"/>
<path d="M0 0 C0.66 0 1.32 0 2 0 C1.689 1.896 1.376 3.792 1.062 5.688 C0.888 6.743 0.714 7.799 0.535 8.887 C0.221 10.716 -0.126 12.54 -0.547 14.348 C-4.755 38.98 5.237 60.537 16.698 81.586 C19.477 86.781 21.805 92.072 23.938 97.562 C24.22 98.288 24.502 99.014 24.793 99.762 C30.765 115.634 31.903 132.885 26 149 C24.68 148.67 23.36 148.34 22 148 C22.217 147.068 22.433 146.136 22.656 145.176 C28.461 118.597 20.144 97.21 7.638 73.959 C-3.989 52.176 -9.227 29.168 -2 5 C-1.359 3.323 -0.7 1.653 0 0 Z " fill="#000000" transform="translate(542,156)"/>
<path d="M0 0 C6.221 0.039 11.931 0.786 17.969 2.266 C18.874 2.486 19.779 2.706 20.711 2.932 C39.06 7.663 56.626 16.939 70.969 29.266 C71.63 29.783 72.291 30.299 72.973 30.832 C89.956 44.521 101.666 66.723 104.488 88.223 C104.734 91.243 104.911 94.237 104.969 97.266 C103.649 97.596 102.329 97.926 100.969 98.266 C99.202 93.803 97.699 89.357 96.377 84.741 C88.637 58.249 70.513 37.195 46.488 23.892 C31.431 15.933 16.183 10.736 -0.723 8.625 C-3.031 8.266 -3.031 8.266 -4.031 7.266 C-4.219 4.828 -4.219 4.828 -4.031 2.266 C-2.031 0.266 -2.031 0.266 0 0 Z " fill="#000000" transform="translate(610.03125,170.734375)"/>
<path d="M0 0 C0.99 0 1.98 0 3 0 C3.33 1.65 3.66 3.3 4 5 C8.455 4.505 8.455 4.505 13 4 C13.33 4.66 13.66 5.32 14 6 C10.04 7.98 10.04 7.98 6 10 C6 12.31 6 14.62 6 17 C5.34 17 4.68 17 4 17 C3.34 14.69 2.68 12.38 2 10 C-2.455 10.495 -2.455 10.495 -7 11 C-6.67 10.01 -6.34 9.02 -6 8 C-2.938 6.812 -2.938 6.812 0 6 C0 4.02 0 2.04 0 0 Z " fill="#000000" transform="translate(442,173)"/>
<path d="M0 0 C1.32 0 2.64 0 4 0 C15.476 41.186 13.887 83.897 -7.062 121.777 C-14.222 133.686 -23.883 145.55 -35 154 C-37.375 153.812 -37.375 153.812 -39 153 C-37.455 149.355 -35.229 146.966 -32.5 144.125 C-23.848 134.748 -16.664 124.447 -11 113 C-10.572 112.166 -10.144 111.332 -9.703 110.473 C-1.75 94.148 2.34 75.046 3 57 C3.027 56.347 3.054 55.694 3.083 55.021 C3.591 41.214 2.036 27.735 0.368 14.046 C0.014 11.117 -0.336 8.187 -0.66 5.254 C-0.796 4.054 -0.796 4.054 -0.934 2.83 C-0.967 1.924 -0.967 1.924 -1 1 C-0.67 0.67 -0.34 0.34 0 0 Z " fill="#000000" transform="translate(526,198)"/>
<path d="M0 0 C0.33 1.65 0.66 3.3 1 5 C-2.874 6.001 -5.679 5.907 -9.586 5.109 C-10.669 4.896 -11.752 4.682 -12.868 4.462 C-14.026 4.227 -15.183 3.992 -16.375 3.75 C-105.091 -13.366 -209.054 -6.366 -305 47 C-327.447 62.214 -346.795 83.98 -353.727 110.812 C-355.404 122.986 -351.396 135.357 -344.562 145.312 C-330.611 163.522 -312.184 175.604 -292 186 C-291.212 186.41 -290.424 186.819 -289.612 187.241 C-258.63 203.174 -225.099 211.759 -191 218 C-190.214 218.149 -189.428 218.298 -188.618 218.452 C-154.363 224.892 -118.141 226.221 -83.438 224.188 C-82.676 224.143 -81.914 224.098 -81.129 224.053 C-30.412 221.038 22.93 212.804 68 188 C69.206 187.359 70.411 186.718 71.617 186.078 C96.575 172.581 118.268 151.806 128.156 124.848 C132.508 109.839 130.357 93.993 123.25 80.188 C109.473 56.929 86.823 41.613 62.738 30.551 C61.874 30.153 61.009 29.756 60.118 29.346 C58.454 28.592 56.783 27.852 55.104 27.13 C50.664 25.141 47.935 23.739 46 19 C46 18.34 46 17.68 46 17 C70.619 22.807 93.89 38.936 112 56 C112.761 56.684 113.521 57.369 114.305 58.074 C133.25 75.807 139.33 101.085 140.238 126.266 C140.916 162.197 134.174 197.172 126 232 C126.552 232.17 127.105 232.34 127.674 232.516 C152.412 240.222 179.375 251.42 193 275 C202.062 293.21 199.421 312.074 193.438 330.812 C188.287 346.055 180.442 359.796 170 372 C169.16 373.003 168.319 374.006 167.453 375.039 C150.992 394.16 128.769 407.21 104.5 413.75 C103.765 413.949 103.031 414.148 102.274 414.353 C99.859 414.966 97.44 415.496 95 416 C94.038 416.206 93.076 416.412 92.084 416.624 C84.632 417.965 77.801 417.971 70.273 417.492 C48.228 415.12 48.228 415.12 28.145 421.988 C23.858 426.053 20.376 430.652 16.965 435.461 C13.891 439.432 10.175 442.266 6.125 445.188 C5.424 445.704 4.723 446.22 4 446.752 C2.016 448.193 0.015 449.602 -2 451 C-2.589 451.413 -3.178 451.825 -3.785 452.25 C-25.499 467.287 -49.151 476.889 -75 482 C-75.811 482.165 -76.622 482.33 -77.458 482.5 C-128.219 492.385 -185.744 482.438 -229 454 C-238.419 447.554 -246.8 439.908 -255 432 C-255.558 431.464 -256.115 430.929 -256.689 430.377 C-267.332 420.101 -276.429 409.074 -285 397 C-285.597 397.401 -286.194 397.802 -286.809 398.215 C-291.861 401.526 -296.915 404.518 -302.296 407.254 C-309.321 410.827 -315.357 414.561 -321.348 419.75 C-346.082 440.732 -373.12 448.907 -405 450 C-405.66 448.68 -406.32 447.36 -407 446 C-404.805 443.355 -403.536 442.122 -400.138 441.35 C-399.046 441.277 -397.953 441.204 -396.828 441.129 C-395.614 441.033 -394.4 440.937 -393.15 440.837 C-391.863 440.747 -390.576 440.656 -389.25 440.562 C-367.745 438.731 -349.088 431.804 -331 420 C-332.217 420.433 -333.434 420.866 -334.688 421.312 C-355.456 428.203 -355.456 428.203 -362.441 424.816 C-370.2 420.214 -376.547 414.221 -383 408 C-383.848 407.227 -384.696 406.453 -385.57 405.656 C-386.31 404.965 -387.05 404.274 -387.812 403.562 C-388.458 402.966 -389.104 402.369 -389.77 401.754 C-391 400 -391 400 -390.699 397.777 C-390.468 397.191 -390.238 396.604 -390 396 C-374.25 391.392 -353.608 397.897 -339 404 C-336.638 405.343 -334.365 406.754 -332.113 408.273 C-329.252 410.023 -327.119 411.117 -323.719 410.762 C-321.068 409.992 -318.56 409.031 -316 408 C-314.998 407.655 -313.997 407.309 -312.965 406.953 C-306.025 404.491 -299.779 401.379 -293.493 397.591 C-289.181 395 -289.181 395 -287 395 C-287.505 394.301 -288.011 393.603 -288.531 392.883 C-289.181 391.973 -289.831 391.063 -290.5 390.125 C-291.475 388.768 -291.475 388.768 -292.469 387.383 C-294 385 -294 385 -294 383 C-294.802 383.387 -295.604 383.773 -296.43 384.172 C-313.607 392.04 -334.447 397.078 -353 391 C-356.23 389.143 -356.807 388.579 -358 385 C-358.99 384.34 -359.98 383.68 -361 383 C-362.007 381.338 -363.005 379.67 -364 378 C-365.794 375.669 -367.627 373.373 -369.477 371.086 C-371 369 -371 369 -372 366 C-371.67 365.34 -371.34 364.68 -371 364 C-357.907 362.512 -344.517 372.843 -334.648 380.531 C-331.983 383.016 -331.609 383.64 -331 387 C-327.124 386.383 -323.249 385.755 -319.375 385.125 C-318.281 384.951 -317.186 384.777 -316.059 384.598 C-310.842 383.744 -305.999 382.751 -301 381 C-299.68 381 -298.36 381 -297 381 C-300.147 375.159 -303.358 369.364 -306.688 363.625 C-335.984 312.461 -355.242 255.277 -362.312 196.688 C-362.394 196.016 -362.475 195.344 -362.559 194.651 C-364.249 180.459 -365.179 166.294 -365.188 152 C-365.2 150.966 -365.212 149.932 -365.225 148.867 C-365.251 134.499 -362.986 121.229 -358.875 107.5 C-358.677 106.828 -358.479 106.156 -358.274 105.464 C-353.648 89.875 -348.029 77.218 -337 65 C-336.353 64.223 -335.706 63.445 -335.039 62.645 C-329.963 56.625 -324.24 51.779 -318 47 C-317.019 46.23 -316.038 45.461 -315.027 44.668 C-266.63 7.751 -199.395 -5.244 -140 -10 C-138.879 -10.094 -137.759 -10.189 -136.604 -10.286 C-91.054 -13.765 -44.492 -10.46 0 0 Z M134 128 C133.648 128.883 133.296 129.766 132.934 130.676 C118.242 166.389 86.914 189.067 52.384 204.009 C20.919 217.084 -13.26 224.958 -47 229 C-48.236 229.151 -49.472 229.302 -50.746 229.458 C-111.34 236.535 -174.027 232.772 -233 217 C-233.962 216.752 -234.923 216.504 -235.914 216.249 C-264.986 208.704 -294.597 196.744 -319 179 C-320.002 178.282 -321.003 177.564 -322.035 176.824 C-335.384 167.053 -346.957 156.594 -355 142 C-355.99 142.495 -355.99 142.495 -357 143 C-358.746 237.299 -325.81 339.081 -254.546 420.387 C-253.513 421.465 -252.485 422.548 -251.462 423.637 C-227.22 449.392 -196.096 464.767 -161.938 472.75 C-160.682 473.048 -160.682 473.048 -159.402 473.352 C-144.645 476.634 -129.876 477.38 -114.812 477.312 C-113.96 477.311 -113.108 477.309 -112.23 477.307 C-98.967 477.259 -86.022 476.731 -73 474 C-72.15 473.823 -71.3 473.646 -70.424 473.464 C-36.974 466.254 -7.58 449.877 17.289 426.523 C19.543 424.426 21.833 422.419 24.188 420.438 C28.891 416.344 32.924 411.706 37 407 C37.844 406.044 38.689 405.087 39.559 404.102 C64.947 375.037 82.661 340.691 99 306 C96.837 303.837 95.652 303.4 92.789 302.492 C91.956 302.228 91.124 301.964 90.266 301.691 C88.959 301.287 88.959 301.287 87.625 300.875 C86.761 300.598 85.898 300.321 85.008 300.035 C81.081 298.805 78.171 298 74 298 C74.483 278.5 78.087 260 90 244 C90.763 242.948 91.526 241.896 92.312 240.812 C97.098 235.804 102.999 231.125 110.137 230.902 C111.308 230.914 112.48 230.926 113.688 230.938 C114.867 230.947 116.046 230.956 117.262 230.965 C118.617 230.982 118.617 230.982 120 231 C123.247 223.371 124.799 215.404 126.438 207.312 C126.666 206.199 126.666 206.199 126.898 205.062 C131.48 182.597 135.304 159.672 135.062 136.688 C135.056 135.416 135.056 135.416 135.049 134.119 C135.037 132.079 135.019 130.04 135 128 C134.67 128 134.34 128 134 128 Z M98.961 243.629 C86.523 255.13 82.227 270.734 80 287 C83.199 289.133 85.673 289.835 89.375 290.812 C103.835 294.868 117.948 300.723 130.379 309.277 C132.756 311.183 132.756 311.183 135 311 C129.655 328.815 118.774 349.389 101.93 358.625 C98.354 360.303 94.745 361.823 91.062 363.25 C90.115 363.62 90.115 363.62 89.148 363.997 C86.162 365.092 83.498 365.953 80.312 366.253 C76.045 366.665 73.067 366.991 69.879 370.007 C67.889 372.695 66.147 375.439 64.438 378.312 C63.161 380.322 61.881 382.33 60.598 384.336 C59.681 385.797 59.681 385.797 58.747 387.288 C56.47 390.824 53.989 394.147 51.375 397.438 C48.133 401.555 44.999 405.702 42 410 C46.199 411.006 50.293 411.191 54.59 411.238 C55.322 411.248 56.055 411.258 56.81 411.268 C95.372 411.679 129.189 403.927 157.791 376.61 C164.889 369.645 170.867 362.558 176 354 C176.384 353.364 176.768 352.727 177.163 352.072 C187.868 334.035 194.121 312.594 190.387 291.543 C184.349 271.25 165.515 260.44 148.03 250.928 C134.009 243.584 112.817 232.56 98.961 243.629 Z M103 308 C102.646 308.781 102.291 309.562 101.926 310.367 C97.855 319.218 93.587 327.965 89.25 336.688 C88.683 337.834 88.116 338.98 87.532 340.162 C86.991 341.247 86.449 342.331 85.891 343.449 C85.406 344.422 84.922 345.395 84.423 346.397 C83 349 83 349 81.319 351.222 C79.801 352.899 79.801 352.899 80 355 C90.193 353.902 102.369 346.838 109 339 C112.58 334.166 115.876 329.139 119 324 C119.446 323.272 119.892 322.543 120.352 321.793 C121.104 320.007 121.104 320.007 121.055 318.016 C119.346 314.75 116.26 313.44 113.125 311.75 C112.487 311.386 111.849 311.023 111.191 310.648 C108.275 309.029 106.385 308 103 308 Z M-360 375 C-356.497 381.423 -356.497 381.423 -350.688 385.5 C-346.462 386.073 -342.249 386.634 -338 387 C-341.369 383.174 -345.11 381.069 -349.562 378.75 C-350.235 378.386 -350.907 378.023 -351.6 377.648 C-355.581 375.538 -355.581 375.538 -360 375 Z M-379 402 C-379 402.66 -379 403.32 -379 404 C-377.555 405.35 -377.555 405.35 -375.625 406.688 C-374.902 407.212 -374.179 407.737 -373.434 408.277 C-372.229 409.13 -372.229 409.13 -371 410 C-370.125 410.62 -369.249 411.24 -368.348 411.879 C-359.673 417.981 -355.727 419.559 -345 418 C-341.872 417.187 -339.018 416.177 -336 415 C-336.495 413.515 -336.495 413.515 -337 412 C-339.394 410.97 -339.394 410.97 -342.363 410.281 C-343.479 409.989 -344.595 409.696 -345.744 409.395 C-347.51 408.952 -347.51 408.952 -349.312 408.5 C-350.448 408.205 -351.583 407.91 -352.752 407.605 C-355.034 407.014 -357.318 406.431 -359.604 405.855 C-361.869 405.285 -364.132 404.704 -366.392 404.113 C-367.453 403.839 -368.513 403.564 -369.605 403.281 C-370.549 403.034 -371.493 402.788 -372.466 402.533 C-375.221 401.863 -375.221 401.863 -379 402 Z " fill="#000000" transform="translate(516,221)"/>
<path d="M0 0 C15.698 -0.662 31.91 8.604 43.441 18.578 C55.641 30.126 65.196 46.849 66.168 63.957 C66.184 66.316 66.141 68.646 66 71 C64.35 71.33 62.7 71.66 61 72 C58.404 68.138 57.318 64.713 56.312 60.188 C51.607 41.006 40.259 24.736 23.375 14.312 C17.887 11.214 12.178 9.062 6.167 7.216 C4.176 6.555 4.176 6.555 1 5 C0.043 2.32 0.043 2.32 0 0 Z " fill="#000000" transform="translate(620,210)"/>
<path d="M0 0 C16.571 1.666 33.646 9.752 45 22 C51.129 30.327 55.235 39.672 56 50 C54.02 50.495 54.02 50.495 52 51 C51.564 50.022 51.129 49.043 50.68 48.035 C46.34 38.426 42.062 29.102 34 22 C33.484 21.542 32.969 21.085 32.438 20.613 C23.803 13.524 12.634 9.268 2.074 5.922 C0 5 0 5 -2 2 C-1.34 1.34 -0.68 0.68 0 0 Z " fill="#000000" transform="translate(598,229)"/>
<path d="M0 0 C2.405 0.153 2.405 0.153 5 1 C6.426 2.978 6.426 2.978 7.527 5.551 C7.926 6.477 8.325 7.403 8.736 8.357 C9.133 9.333 9.529 10.308 9.938 11.312 C10.361 12.276 10.784 13.24 11.221 14.232 C14.23 21.41 14.23 21.41 13.1 24.309 C12.555 25.146 12.555 25.146 12 26 C9.578 25.625 8.32 25.357 6.656 23.504 C-2.018 8.94 -2.018 8.94 -1 1 C-0.67 0.67 -0.34 0.34 0 0 Z " fill="#000000" transform="translate(296,246)"/>
<path d="M0 0 C2.386 0.153 2.386 0.153 5 1 C6.546 2.978 6.546 2.978 7.824 5.551 C8.295 6.477 8.767 7.403 9.252 8.357 C9.726 9.333 10.199 10.308 10.688 11.312 C11.415 12.758 11.415 12.758 12.158 14.232 C13.455 16.814 14.73 19.405 16 22 C16.665 23.334 17.331 24.668 18 26 C17.01 26.99 16.02 27.98 15 29 C6.901 25.472 3.638 16.622 0.102 9.051 C-0.967 6.092 -1.325 4.108 -1 1 C-0.67 0.67 -0.34 0.34 0 0 Z " fill="#000000" transform="translate(274,250)"/>
<path d="M0 0 C1.675 0.286 3.344 0.618 5 1 C10.478 17.433 3.163 41.914 -4 57 C-8.581 65.225 -14.412 72.309 -21 79 C-21.491 79.5 -21.982 80.001 -22.488 80.517 C-24.056 82.095 -25.647 83.645 -27.25 85.188 C-27.745 85.682 -28.241 86.176 -28.751 86.686 C-30.203 88.043 -30.203 88.043 -33 90 C-35.859 89.801 -35.859 89.801 -38 89 C-36.711 86.139 -35.402 84.192 -33.094 82.074 C-32.232 81.262 -32.232 81.262 -31.354 80.434 C-30.742 79.858 -30.13 79.281 -29.5 78.688 C-9.436 59.093 -3.57 36.247 -1.646 8.859 C-1.539 7.355 -1.539 7.355 -1.43 5.82 C-1.37 4.916 -1.311 4.011 -1.25 3.079 C-1 1 -1 1 0 0 Z " fill="#000000" transform="translate(545,254)"/>
<path d="M0 0 C1.65 0 3.3 0 5 0 C7.157 3.723 9.299 7.454 11.438 11.188 C12.049 12.243 12.661 13.298 13.291 14.385 C13.874 15.406 14.458 16.428 15.059 17.48 C15.598 18.418 16.137 19.355 16.693 20.321 C17.964 22.926 18.581 25.146 19 28 C16.525 28.495 16.525 28.495 14 29 C9.484 23.793 5.812 18.274 2.5 12.25 C2.138 11.612 1.776 10.975 1.402 10.318 C-0.188 7.341 -1.043 5.45 -0.719 2.047 C-0.363 1.034 -0.363 1.034 0 0 Z " fill="#000000" transform="translate(254,256)"/>
<path d="M0 0 C1.65 0 3.3 0 5 0 C5.473 0.86 5.946 1.72 6.434 2.605 C7.1 3.8 7.768 4.994 8.438 6.188 C8.789 6.815 9.141 7.443 9.504 8.09 C12.743 13.761 16.468 18.959 20.41 24.16 C22 27 22 27 21.746 29.871 C21.5 30.574 21.254 31.276 21 32 C17.764 31.694 16.261 31.237 13.824 29.023 C9.474 23.631 5.718 18.189 2.375 12.125 C1.843 11.18 1.843 11.18 1.3 10.216 C-0.249 7.27 -1.04 5.406 -0.711 2.055 C-0.476 1.377 -0.242 0.699 0 0 Z " fill="#000000" transform="translate(236,263)"/>
<path d="M0 0 C-1.161 6.918 -2.957 13.206 -5.625 19.688 C-6.158 20.993 -6.158 20.993 -6.702 22.324 C-13.729 39.198 -23.58 54.178 -33.883 69.223 C-44.288 84.313 -44.288 84.313 -47 102 C-45.679 107.664 -43.79 111.536 -40 116 C-40.251 115.094 -40.503 114.188 -40.762 113.254 C-42.649 105.727 -44.109 99.897 -40 93 C-30.317 78.919 -12.408 73.204 2.75 66.938 C24.333 57.957 37.388 46.582 49 26 C62.569 34.213 74.166 46.873 83.223 59.762 C83.809 60.5 84.396 61.239 85 62 C85.66 62 86.32 62 87 62 C93.131 49.987 97.45 38.004 101 25 C102.32 25 103.64 25 105 25 C106.241 39.653 100.596 52.834 93 65 C91.254 66.922 91.254 66.922 90 68 C91.199 71.083 92.477 74.063 94 77 C100.155 74.948 103.482 65.829 106.492 60.219 C110.098 52.784 112.069 44.996 114 37 C115.32 37.33 116.64 37.66 118 38 C118.613 58.031 107.498 74.636 94.441 88.77 C49.701 135.198 -24.938 150.824 -86.745 152.109 C-156.892 153.302 -230.687 143.525 -291 105 C-291.727 104.538 -292.453 104.076 -293.202 103.6 C-304.093 96.49 -304.093 96.49 -305.844 91.684 C-305.728 88.822 -304.997 86.692 -304 84 C-303.603 82.673 -303.211 81.345 -302.824 80.016 C-298.539 66.036 -291.076 55.524 -281 45 C-280.399 44.336 -279.799 43.672 -279.18 42.988 C-242.674 4.033 -181.584 -8.02 -131 -13 C-130.279 -13.072 -129.558 -13.144 -128.815 -13.218 C-87.447 -17.127 -39.677 -13.226 0 0 Z M-113.266 45.879 C-116.516 49.854 -117.227 51.904 -117 57 C-114.525 57.99 -114.525 57.99 -112 59 C-111.408 58.252 -110.817 57.505 -110.207 56.734 C-109.022 55.257 -109.022 55.257 -107.812 53.75 C-106.647 52.288 -106.647 52.288 -105.457 50.797 C-99.078 43.536 -92.341 40.564 -82.844 39.938 C-76.909 40.068 -71.392 41.642 -66.625 45.25 C-64.467 47.511 -63.3 49.075 -61.875 51.75 C-60.363 55.049 -60.363 55.049 -57.938 56.062 C-55.668 56.16 -55.668 56.16 -53 54 C-53.27 47.523 -55.496 43.635 -60 39 C-77.413 24.684 -99.305 29.836 -113.266 45.879 Z M-93.875 63.875 C-95.337 66.637 -94.894 68.075 -94 71 C-91.707 71.86 -91.707 71.86 -89 72 C-86.665 70.166 -86.665 70.166 -85 68 C-81.086 69.269 -79.209 70.512 -77 74 C-75.35 73.67 -73.7 73.34 -72 73 C-70.949 70.859 -70.949 70.859 -71 68 C-73.191 64.353 -75.858 61.64 -79.562 59.562 C-85.759 58.133 -89.351 59.351 -93.875 63.875 Z " fill="#000000" transform="translate(513,281)"/>
<path d="M0 0 C2.561 0.992 3.082 1.934 4.39 4.319 C4.798 5.042 5.207 5.766 5.627 6.511 C6.047 7.282 6.466 8.052 6.898 8.846 C9.592 13.653 12.189 18.269 15.71 22.533 C18.023 25.783 18.023 25.783 17.898 28.783 C17.465 29.773 17.465 29.773 17.023 30.783 C14.796 31.104 14.796 31.104 12.023 30.783 C4.9 23.912 -0.327 13.89 -3.977 4.783 C-3.977 3.463 -3.977 2.143 -3.977 0.783 C-1.977 -0.217 -1.977 -0.217 0 0 Z " fill="#000000" transform="translate(224.97705078125,276.216552734375)"/>
<path d="M0 0 C3.187 0.275 4.023 1.026 6.184 3.477 C6.927 4.516 7.671 5.555 8.438 6.625 C8.829 7.166 9.221 7.707 9.625 8.265 C10.76 9.836 11.88 11.418 13 13 C13.839 14.164 13.839 14.164 14.695 15.352 C15.806 16.894 16.905 18.446 18 20 C17.34 21.32 16.68 22.64 16 24 C12.39 23.758 11.199 23.213 8.684 20.523 C7.942 19.484 7.201 18.445 6.438 17.375 C6.049 16.831 5.661 16.287 5.26 15.727 C4.156 14.163 3.077 12.582 2 11 C1.492 10.27 0.984 9.541 0.461 8.789 C-0.688 7 -0.688 7 -2 4 C-1.25 1.562 -1.25 1.562 0 0 Z " fill="#000000" transform="translate(212,297)"/>
<path d="M0 0 C2.475 0.495 2.475 0.495 5 1 C4.541 13.165 -2.862 21.59 -11 30 C-11.748 30.876 -11.748 30.876 -12.512 31.77 C-13.75 33.188 -13.75 33.188 -16 35 C-18.812 34.812 -18.812 34.812 -21 34 C-20.435 30.364 -19.166 28.96 -16.438 26.562 C-8.818 19.23 -3.95 9.709 0 0 Z " fill="#000000" transform="translate(551,300)"/>
<path d="M0 0 C2.475 0.495 2.475 0.495 5 1 C5.143 8.429 5.143 8.429 4 12 C5.98 12.99 7.96 13.98 10 15 C10 16.32 10 17.64 10 19 C6.7 19 3.4 19 0 19 C-0.268 20.402 -0.536 21.805 -0.812 23.25 C-1.601 26.776 -2.257 29.476 -5 32 C-5.99 32 -6.98 32 -8 32 C-9.457 29.085 -8.596 26.884 -8.125 23.688 C-7.511 19.063 -7.511 19.063 -9.488 15.137 C-11.397 13.841 -11.397 13.841 -13.434 12.93 C-13.951 12.623 -14.467 12.316 -15 12 C-15 11.01 -15 10.02 -15 9 C-14.004 9.031 -14.004 9.031 -12.988 9.062 C-7.553 9.044 -7.553 9.044 -3.223 6.152 C-1.999 4.142 -0.934 2.159 0 0 Z " fill="#000000" transform="translate(694,320)"/>
<path d="M0 0 C0.99 0 1.98 0 3 0 C4.369 2.744 5.72 5.494 7.062 8.25 C7.452 9.027 7.842 9.805 8.244 10.605 C8.608 11.36 8.972 12.114 9.348 12.891 C9.858 13.928 9.858 13.928 10.379 14.985 C11.116 17.378 10.808 18.666 10 21 C9.01 21 8.02 21 7 21 C3.089 13.932 0.271 8.137 0 0 Z " fill="#000000" transform="translate(203,328)"/>
<path d="M0 0 C3.601 2.4 3.7 3.479 5 7.5 C7.525 14.519 11.179 20.47 15.342 26.643 C18.433 31.391 19.622 34.318 19 40 C8.502 32.073 2.031 20.068 -0.562 7.211 C-0.875 4.75 -0.875 4.75 -1 1 C-0.67 0.67 -0.34 0.34 0 0 Z " fill="#000000" transform="translate(188,330)"/>
<path d="M0 0 C1.738 0.039 1.738 0.039 4 1 C5.867 3.088 7.528 5.133 9.188 7.375 C10.171 8.663 11.155 9.951 12.141 11.238 C12.869 12.199 12.869 12.199 13.611 13.178 C23.799 26.544 35.408 38.495 47.25 50.375 C47.722 50.849 48.193 51.324 48.679 51.812 C54.276 57.433 59.949 62.871 66 68 C67.117 68.962 68.235 69.924 69.352 70.887 C70.442 71.821 71.533 72.754 72.625 73.688 C73.842 74.729 75.06 75.771 76.277 76.812 C76.892 77.338 77.507 77.864 78.14 78.406 C79.972 79.976 81.801 81.55 83.629 83.125 C89.877 88.504 96.158 93.815 102.598 98.965 C105.213 101.18 107.608 103.548 110 106 C109.01 107.98 109.01 107.98 108 110 C103.171 108.655 99.486 106.519 95.5 103.562 C94.896 103.122 94.292 102.682 93.67 102.228 C79.658 91.936 66.26 80.876 53.398 69.18 C51.766 67.696 50.125 66.223 48.477 64.758 C40.111 57.319 32.193 49.585 25 41 C24.546 40.466 24.093 39.931 23.625 39.38 C17.092 31.656 10.928 23.752 5.25 15.375 C4.737 14.629 4.223 13.884 3.695 13.116 C1.045 9.12 -0.788 5.932 -1 1 C-0.67 0.67 -0.34 0.34 0 0 Z " fill="#000000" transform="translate(169,391)"/>
<path d="M0 0 C2.922 0.141 3.981 0.982 6.113 3.004 C6.839 3.848 7.565 4.693 8.312 5.562 C9.498 6.926 9.498 6.926 10.707 8.316 C11.842 9.645 11.842 9.645 13 11 C14.165 12.335 15.332 13.668 16.5 15 C17.03 15.606 17.559 16.212 18.105 16.837 C24.852 24.539 31.812 31.973 39.066 39.197 C40.568 40.693 42.065 42.195 43.561 43.697 C48.303 48.443 53.097 53.076 58.197 57.442 C61.153 59.996 63.971 62.695 66.812 65.375 C70.891 69.197 75 72.891 79.375 76.375 C84.311 80.329 88.945 84.558 93.562 88.875 C94.266 89.53 94.97 90.186 95.695 90.861 C96.354 91.482 97.013 92.103 97.691 92.742 C98.281 93.298 98.871 93.853 99.479 94.425 C101 96 101 96 103 99 C102.34 99.99 101.68 100.98 101 102 C86.027 99.428 69.185 80.846 58 71 C57.095 70.209 56.19 69.417 55.258 68.602 C40.347 55.247 24.994 41.021 13.269 24.739 C11.799 22.724 10.281 20.749 8.758 18.773 C7.651 17.329 6.544 15.883 5.438 14.438 C4.924 13.77 4.41 13.102 3.88 12.414 C1.351 9.06 -0.687 6.047 -2 2 C-1.34 1.34 -0.68 0.68 0 0 Z " fill="#000000" transform="translate(168,415)"/>
<path d="M0 0 C4.018 0.515 5.918 1.434 8.707 4.352 C9.712 5.382 9.712 5.382 10.736 6.434 C11.421 7.157 12.107 7.88 12.812 8.625 C18.01 14.026 23.307 19.124 29 24 C30.122 24.997 31.242 25.997 32.359 27 C41.737 35.33 51.607 42.878 61.707 50.308 C65.154 52.851 68.578 55.424 72 58 C71.34 59.65 70.68 61.3 70 63 C64.377 62.57 60.694 61.008 56.062 57.75 C55.422 57.31 54.782 56.871 54.122 56.418 C41.98 47.935 30.673 38.256 20 28 C19.457 27.479 18.914 26.958 18.355 26.421 C2.068 10.695 2.068 10.695 -1 5 C-0.695 2.219 -0.695 2.219 0 0 Z " fill="#000000" transform="translate(208,416)"/>
<path d="M0 0 C4.762 0.348 7.987 2.813 11.75 5.5 C18.105 9.925 24.645 13.608 31.628 16.955 C36.818 19.539 36.818 19.539 37.795 22.016 C37.863 22.671 37.93 23.325 38 24 C36.562 25.75 36.562 25.75 35 27 C22.972 22.953 8.64 15.446 0 6 C-0.82 3.328 -0.82 3.328 -1 1 C-0.67 0.67 -0.34 0.34 0 0 Z " fill="#000000" transform="translate(241,432)"/>
<path d="M0 0 C4.308 0.103 6.783 3.421 9.578 6.32 C10.108 6.857 10.639 7.394 11.185 7.947 C12.881 9.666 14.566 11.395 16.25 13.125 C18.46 15.381 20.674 17.634 22.891 19.883 C23.692 20.697 23.692 20.697 24.51 21.527 C28.506 25.559 32.647 29.355 37 33 C38.01 33.876 39.019 34.754 40.027 35.633 C46.01 40.756 52.101 45.675 58.375 50.438 C64.114 54.795 69.84 59.165 75.5 63.625 C76.141 64.122 76.782 64.619 77.443 65.131 C81.884 68.653 81.884 68.653 83 72 C82.67 72.66 82.34 73.32 82 74 C76.555 73.535 72.708 72.113 68.062 69.188 C67.424 68.794 66.785 68.401 66.126 67.996 C59.025 63.536 52.354 58.501 45.741 53.354 C44.255 52.198 42.759 51.055 41.262 49.914 C30.969 41.929 21.257 33.121 13.234 22.836 C11.556 20.706 9.854 18.648 8.078 16.602 C7.578 16.023 7.077 15.445 6.561 14.85 C5.588 13.73 4.611 12.614 3.628 11.502 C1.027 8.488 -0.774 5.798 -2 2 C-1.34 1.34 -0.68 0.68 0 0 Z " fill="#000000" transform="translate(175,455)"/>
<path d="M0 0 C14.291 0.503 28.828 11.374 38.746 20.801 C48.727 31.58 53.526 44.267 53.41 58.805 C52.953 66.258 52.255 74.632 47.188 80.438 C45.538 79.778 43.888 79.118 42.188 78.438 C43.062 70.065 43.062 70.065 43.75 66.625 C45.58 53.294 43.121 42.336 35.188 31.438 C26.46 20.841 14.627 14.731 2.188 9.438 C-3.559 6.961 -3.559 6.961 -4.812 4.375 C-4.812 0.94 -3.122 0.486 0 0 Z " fill="#000000" transform="translate(642.8125,470.5625)"/>
<path d="M0 0 C3.449 0.907 5.816 2.189 8.789 4.145 C9.709 4.739 10.63 5.333 11.578 5.945 C14.053 7.751 16.153 9.523 18.164 11.832 C18.102 14.02 18.102 14.02 17.164 15.832 C13.651 17.003 13.069 16.652 9.785 15.25 C8.947 14.895 8.108 14.54 7.244 14.174 C6.372 13.793 5.5 13.412 4.602 13.02 C3.726 12.65 2.85 12.281 1.947 11.9 C-4.556 9.112 -4.556 9.112 -6.836 6.832 C-6.648 4.332 -6.648 4.332 -5.836 1.832 C-2.836 -0.168 -2.836 -0.168 0 0 Z " fill="#000000" transform="translate(327.8359375,474.16796875)"/>
<path d="M0 0 C4.926 1.673 8.414 4.75 12.312 8.125 C12.869 8.598 13.426 9.071 14 9.559 C15.375 10.812 15.375 10.812 17.312 13.125 C17.312 14.445 17.312 15.765 17.312 17.125 C14.312 18.125 14.312 18.125 12.152 17.292 C9.489 15.854 6.831 14.411 4.188 12.938 C3.256 12.442 2.324 11.946 1.363 11.436 C0.478 10.948 -0.408 10.46 -1.32 9.957 C-2.134 9.511 -2.947 9.065 -3.786 8.605 C-5.688 7.125 -5.688 7.125 -6.46 4.948 C-6.535 4.346 -6.61 3.745 -6.688 3.125 C-4.418 0.942 -3.184 0.148 0 0 Z " fill="#000000" transform="translate(423.6875,485.875)"/>
<path d="M0 0 C4.395 0.409 6.431 3.353 9.125 6.5 C21.949 20.893 37.617 31.447 53.496 42.195 C55.562 43.684 57.286 45.13 59 47 C58.34 48.65 57.68 50.3 57 52 C36.112 48.849 16.146 29.101 4.059 12.945 C-1.068 5.611 -1.068 5.611 -0.688 2.188 C-0.347 1.105 -0.347 1.105 0 0 Z " fill="#000000" transform="translate(183,489)"/>
<path d="M0 0 C3.956 0.314 7.245 0.748 11 2 C18.223 2.399 25.087 2.281 32.098 0.453 C34.793 -0.189 37.25 -0.268 40 0 C42 2 42 2 42.125 5.125 C42.084 6.074 42.043 7.023 42 8 C39.814 8.652 37.626 9.296 35.438 9.938 C34.219 10.297 33.001 10.657 31.746 11.027 C21.779 13.615 11.935 13.825 2 11 C-1.188 8.875 -1.188 8.875 -3 7 C-2.25 2.25 -2.25 2.25 0 0 Z " fill="#000000" transform="translate(312,514)"/>
<path d="M0 0 C2.052 1.501 2.768 2.909 3.703 5.246 C0.42 9.196 -3.176 10.614 -7.984 11.996 C-9.097 12.318 -9.097 12.318 -10.232 12.646 C-15.643 14.082 -20.829 14.719 -26.422 14.746 C-27.45 14.755 -27.45 14.755 -28.499 14.765 C-33.458 14.641 -36.961 13.489 -41.297 11.246 C-42.662 8.757 -42.443 7.759 -41.672 5.059 C-40.297 3.246 -40.297 3.246 -38.172 2.371 C-35.297 2.246 -35.297 2.246 -31.734 3.246 C-22.608 5.741 -13.728 3.049 -5.109 -0.109 C-2.297 -0.754 -2.297 -0.754 0 0 Z " fill="#000000" transform="translate(449.296875,526.75390625)"/>
<path d="M0 0 C4.87 0.478 8.075 2.898 11.875 5.75 C12.462 6.181 13.048 6.611 13.652 7.055 C14.834 7.922 16.013 8.793 17.19 9.666 C20.102 11.812 23.052 13.904 26 16 C25.67 17.65 25.34 19.3 25 21 C22 22 22 22 18.5 20.625 C11.339 16.832 4.339 11.094 -1 5 C-0.75 2.25 -0.75 2.25 0 0 Z " fill="#000000" transform="translate(198,530)"/>
<path d="M0 0 C1.32 0.66 2.64 1.32 4 2 C3.457 6.565 2.205 9.973 0 14 C-1.65 13.67 -3.3 13.34 -5 13 C-4.445 8.339 -3.45 3.45 0 0 Z " fill="#000000" transform="translate(684,553)"/>
<path d="M0 0 C2.277 2.344 3.798 4.602 5.273 7.512 C8.464 12.11 13.885 13.209 19 15 C19.917 15.324 20.833 15.647 21.777 15.98 C32.923 19.466 42.739 18.575 53.711 14.875 C57.311 13.917 60.291 13.711 64 14 C66 16 66 16 66.438 18.438 C66 21 66 21 63.953 22.527 C60.501 24.249 57.045 25.243 53.312 26.125 C52.599 26.295 51.886 26.466 51.151 26.641 C34.782 30.436 19.203 28.244 4 21 C-1.176 17.728 -5.029 13.912 -7 8 C-7.188 4.125 -7.188 4.125 -7 1 C-4.379 -0.311 -2.908 -0.415 0 0 Z " fill="#000000" transform="translate(352,559)"/>
<path d="M0 0 C1.32 0.66 2.64 1.32 4 2 C-0.377 17.267 -6.268 31.165 -14 45 C-15.65 44.67 -17.3 44.34 -19 44 C-18.475 38.065 -15.982 33.377 -13.375 28.125 C-12.465 26.259 -11.558 24.392 -10.652 22.523 C-10.204 21.598 -9.755 20.672 -9.292 19.718 C-7.097 15.101 -5.072 10.414 -3.07 5.711 C-1.094 1.094 -1.094 1.094 0 0 Z " fill="#000000" transform="translate(531,666)"/>
<path d="M0 0 C1.65 0.33 3.3 0.66 5 1 C5.225 7.601 4.549 13.25 2.875 19.625 C2.654 20.487 2.433 21.348 2.206 22.236 C-3.069 42.069 -3.069 42.069 -8 47 C-12.556 46.444 -12.556 46.444 -14 45 C-13.686 37.633 -11.181 30.885 -8.817 23.964 C-8.126 21.941 -7.447 19.915 -6.77 17.889 C-4.724 11.817 -2.579 5.866 0 0 Z " fill="#000000" transform="translate(545,668)"/>
<path d="M0 0 C1.32 0.33 2.64 0.66 4 1 C3.411 5.708 1.376 9.439 -0.938 13.5 C-1.331 14.197 -1.725 14.894 -2.131 15.612 C-6.557 23.248 -11.741 30.741 -18 37 C-20.625 36.625 -20.625 36.625 -23 36 C-23.495 34.515 -23.495 34.515 -24 33 C-22.805 30.934 -22.805 30.934 -20.875 28.438 C-20.147 27.476 -19.418 26.514 -18.668 25.523 C-18.251 24.977 -17.834 24.43 -17.404 23.866 C-14.603 20.143 -11.906 16.345 -9.188 12.562 C-8.077 11.022 -6.967 9.481 -5.855 7.941 C-5.377 7.278 -4.899 6.615 -4.407 5.932 C-2.957 3.94 -1.483 1.968 0 0 Z " fill="#000000" transform="translate(509,678)"/>
</svg>
