<?xml version="1.0" encoding="UTF-8"?>
<!-- Generator: visioncortex VTracer 0.6.0 -->
<svg version="1.1" xmlns="http://www.w3.org/2000/svg" width="847" height="847">
<path d="M0 0 C2.938 -0.438 2.938 -0.438 6 0 C7.938 1.688 7.938 1.688 9 4 C6.575 20.591 -2.01 36.828 -9.098 51.797 C-11.701 57.304 -14.115 62.869 -16.438 68.5 C-23.776 86.184 -23.776 86.184 -28 89 C-31.322 88.676 -32.608 88.392 -35 86 C-34.915 77.756 -31.83 70.856 -28.625 63.375 C-28.082 62.084 -27.539 60.793 -26.997 59.502 C-23.247 50.637 -19.196 41.939 -14.956 33.297 C-11.223 25.639 -7.949 17.835 -4.816 9.914 C-4.473 9.051 -4.13 8.187 -3.777 7.297 C-3.481 6.537 -3.184 5.778 -2.879 4.995 C-2 3 -2 3 0 0 Z " fill="#000000" transform="translate(578,205)"/>
<path d="M0 0 C4.115 2.367 7.84 5.452 11 9 C11 9.66 11 10.32 11 11 C12.017 11.112 12.017 11.112 13.055 11.227 C24.137 12.792 33.089 18.086 40 27 C40.715 29.242 40.715 29.242 41 31 C36.913 30.429 34.531 28.231 31.375 25.688 C26.256 21.671 21.206 18.963 15 17 C14.914 17.603 14.827 18.207 14.738 18.828 C14.042 22.791 13.521 25.387 10.875 28.5 C7.168 30.434 4.149 30.559 0 31 C0.439 31.378 0.877 31.756 1.329 32.146 C3.325 33.867 5.319 35.59 7.312 37.312 C8.003 37.907 8.693 38.502 9.404 39.115 C10.071 39.692 10.738 40.269 11.426 40.863 C12.038 41.392 12.651 41.921 13.282 42.466 C14.916 43.925 16.468 45.435 18 47 C17.67 47.99 17.34 48.98 17 50 C12.382 47.483 8.617 44.263 4.688 40.812 C4.023 40.23 3.358 39.647 2.672 39.046 C-14.98 23.478 -14.98 23.478 -16.441 14.195 C-16.625 9.823 -16.531 6.163 -14.188 2.375 C-10.137 -2.022 -5.422 -1.445 0 0 Z M-11.625 4.875 C-13.535 9.216 -13.256 12.475 -12 17 C-9.553 21.727 -9.553 21.727 -5 24 C-4.505 23.113 -4.01 22.226 -3.5 21.312 C-0.866 17.295 2.863 15.27 7 13 C6.299 9.266 4.936 7.426 1.883 5.059 C-2.696 2.484 -7.282 1.773 -11.625 4.875 Z M2.312 21 C1.504 21.743 0.696 22.485 -0.137 23.25 C-1.059 24.116 -1.059 24.116 -2 25 C-1.67 25.66 -1.34 26.32 -1 27 C3.395 27.431 5.368 27.461 9 24.812 C11.311 22.191 11.311 22.191 10.812 19.188 C10.544 18.466 10.276 17.744 10 17 C6.039 17 5.171 18.349 2.312 21 Z " fill="#000000" transform="translate(433,211)"/>
<path d="M0 0 C2.312 0.188 2.312 0.188 4 1 C5.821 6.258 3.297 10.229 1 15 C-1.142 18.917 -3.454 22.711 -5.812 26.5 C-6.699 27.952 -6.699 27.952 -7.604 29.434 C-11.021 34.987 -14.605 40.38 -18.377 45.699 C-20.705 48.999 -22.93 52.36 -25.125 55.75 C-25.581 56.452 -26.037 57.155 -26.507 57.879 C-31.02 64.905 -35.244 72.099 -39.409 79.337 C-46.314 91.231 -46.314 91.231 -50 95 C-53.25 95.625 -53.25 95.625 -56 95 C-56.66 94.34 -57.32 93.68 -58 93 C-57.732 87.572 -55.996 83.299 -53.5 78.562 C-52.97 77.534 -52.97 77.534 -52.43 76.484 C-51.303 74.314 -50.156 72.155 -49 70 C-48.622 69.295 -48.244 68.59 -47.855 67.864 C-46.728 65.777 -45.587 63.699 -44.438 61.625 C-43.929 60.7 -43.929 60.7 -43.41 59.756 C-40.834 55.19 -37.914 50.925 -34.881 46.651 C-32.977 43.967 -31.104 41.264 -29.238 38.555 C-23.041 29.58 -16.834 20.618 -10.312 11.875 C-9.61 10.927 -9.61 10.927 -8.894 9.96 C-6.177 6.359 -3.384 3.012 0 0 Z " fill="#000000" transform="translate(612,228)"/>
<path d="M0 0 C1.321 5.283 1.321 5.283 -0.062 8.375 C-2 10 -2 10 -5.062 10.375 C-8 10 -8 10 -10 8 C-10.375 5.062 -10.375 5.062 -10 2 C-6.927 -1.664 -4.389 -1.097 0 0 Z " fill="#000000" transform="translate(360,259)"/>
<path d="M0 0 C2 2 2 2 2.333 4.382 C1.918 7.647 0.999 8.608 -1.332 10.891 C-2.042 11.595 -2.753 12.3 -3.484 13.026 C-4.637 14.127 -4.637 14.127 -5.812 15.25 C-6.595 16.013 -7.377 16.776 -8.184 17.562 C-13.872 23.055 -19.772 28.129 -26 33 C-28.866 35.319 -31.715 37.658 -34.562 40 C-35.298 40.603 -36.033 41.207 -36.791 41.829 C-40.823 45.153 -44.768 48.536 -48.625 52.062 C-58.259 60.8 -58.259 60.8 -63.812 61.438 C-67 61 -67 61 -69 59 C-69.488 56.27 -69.488 56.27 -69 53 C-67.118 50.615 -65.39 48.727 -63.188 46.688 C-62.594 46.118 -62 45.548 -61.388 44.961 C-56.162 40.006 -50.652 35.459 -45 31 C-43.077 29.439 -41.159 27.871 -39.241 26.303 C-32.806 21.045 -26.31 15.872 -19.754 10.765 C-15.864 7.72 -12.109 4.564 -8.453 1.242 C-5.433 -1.339 -3.729 -1.025 0 0 Z " fill="#000000" transform="translate(641,271)"/>
<path d="M0 0 C4.114 3.946 7.69 8.178 11.25 12.625 C12.406 14.057 13.562 15.49 14.719 16.922 C15.813 18.281 16.906 19.64 18 21 C23.141 27.384 28.381 33.627 33.902 39.688 C35.695 41.664 37.448 43.665 39.188 45.688 C42.706 49.725 46.35 53.644 50 57.562 C50.582 58.188 51.163 58.813 51.762 59.458 C56.906 64.96 62.076 70.481 67.812 75.375 C70.802 77.947 73.722 80.58 76.625 83.25 C87.75 93.273 99.946 102.138 112 111 C113.421 112.052 113.421 112.052 114.871 113.125 C115.656 113.682 116.441 114.239 117.25 114.812 C117.895 115.273 118.539 115.733 119.203 116.207 C121.584 117.258 122.547 116.793 125 116 C126.394 115.28 127.761 114.508 129.105 113.699 C129.911 113.223 130.717 112.746 131.547 112.255 C132.418 111.737 133.29 111.22 134.188 110.688 C151.662 100.541 169.652 91.781 188.934 85.661 C190.714 85.092 192.482 84.483 194.246 83.867 C238.96 68.785 289.105 67.872 333 85 C334.109 85.431 334.109 85.431 335.241 85.871 C357.789 94.807 378.979 108.038 398 123 C398.875 123.682 399.751 124.364 400.652 125.066 C441.579 157.699 474.631 201.771 480.819 254.825 C482.832 279.031 479.816 301.426 463.867 320.559 C438.344 349.772 397.384 365.238 359.258 367.887 C309.806 369.606 265.612 349.844 224 325 C222.723 324.243 222.723 324.243 221.419 323.47 C216.404 320.495 211.408 317.489 206.421 314.466 C198.964 309.95 191.482 305.475 184 301 C182.975 300.386 181.95 299.772 180.894 299.14 C164.747 289.481 148.485 280.073 132 271 C131.274 270.598 130.549 270.197 129.801 269.783 C118.772 263.697 107.405 258.339 96 253 C96 252.01 96 251.02 96 250 C102.507 250.492 107.692 252.811 113.562 255.562 C114.596 256.042 115.63 256.522 116.695 257.016 C146.511 271.071 174.87 287.991 202.972 305.151 C215.006 312.499 227.165 319.596 239.438 326.538 C241.794 327.882 244.131 329.254 246.465 330.637 C289.014 355.557 342.103 369.602 390.703 357.211 C399.664 354.779 408.407 351.497 417 348 C415.93 348.242 414.86 348.485 413.758 348.734 C340.672 364.932 283.978 341.017 221 304 C220.162 303.509 219.324 303.017 218.46 302.511 C211.054 298.145 203.867 293.813 197.188 288.375 C190.69 283.357 183.542 280.582 176.004 277.5 C169.386 274.786 162.915 271.782 156.438 268.75 C155.259 268.199 154.08 267.649 152.866 267.081 C151.058 266.236 149.25 265.391 147.443 264.545 C143.256 262.584 139.064 260.638 134.867 258.699 C66.419 227.07 66.419 227.07 58 205 C55.017 194.07 58.571 182.914 63.941 173.325 C73.328 157.523 86.453 144.149 100.785 132.777 C103.033 131.04 103.033 131.04 105 129 C104.007 128.334 103.015 127.667 101.992 126.98 C84.903 115.423 68.449 102.777 54 88 C53.01 87.505 53.01 87.505 52 87 C52 86.34 52 85.68 52 85 C51.443 84.78 50.886 84.559 50.312 84.332 C47.252 82.569 45.348 80.325 43 77.688 C42.024 76.599 41.047 75.51 40.07 74.422 C39.567 73.858 39.063 73.294 38.544 72.713 C36.524 70.472 34.462 68.272 32.4 66.07 C26.656 59.922 21.253 53.576 16 47 C15.079 45.882 14.157 44.765 13.234 43.648 C7.429 36.582 1.969 29.324 -3.25 21.812 C-3.823 20.998 -4.397 20.184 -4.987 19.346 C-5.512 18.578 -6.037 17.81 -6.578 17.02 C-7.046 16.34 -7.515 15.66 -7.997 14.96 C-9 13 -9 13 -9 9 C-7.031 6.641 -7.031 6.641 -4.5 4.25 C-3.665 3.451 -2.829 2.652 -1.969 1.828 C-0.994 0.923 -0.994 0.923 0 0 Z M6 20 C5.67 20.66 5.34 21.32 5 22 C6.895 25.69 9.36 28.814 12 32 C12.99 31.67 13.98 31.34 15 31 C13.511 26.399 11.254 23.498 8 20 C7.34 20 6.68 20 6 20 Z M21 39 C20.67 39.66 20.34 40.32 20 41 C23.027 46.106 23.027 46.106 28 49 C28.33 48.34 28.66 47.68 29 47 C28.05 45.661 27.089 44.329 26.125 43 C25.591 42.257 25.058 41.515 24.508 40.75 C24.01 40.173 23.513 39.595 23 39 C22.34 39 21.68 39 21 39 Z M34 56 C34.5 60.378 35.882 62.882 39 66 C40.32 66 41.64 66 43 66 C41.634 62.015 39.899 59.075 37 56 C36.01 56 35.02 56 34 56 Z M51 71 C50.01 72.485 50.01 72.485 49 74 C50.236 75.512 51.489 77.009 52.75 78.5 C53.446 79.335 54.142 80.171 54.859 81.031 C57.006 83.451 57.006 83.451 61 83 C59.56 79.787 57.77 77.379 55.438 74.75 C54.817 74.044 54.197 73.337 53.559 72.609 C53.044 72.078 52.53 71.547 52 71 C51.67 71 51.34 71 51 71 Z M136 114 C136 114.33 136 114.66 136 115 C139.353 115.176 142.706 115.281 146.062 115.375 C147.005 115.425 147.948 115.476 148.92 115.527 C153.948 115.632 157.1 115.473 160.984 112.094 C161.498 111.562 162.012 111.03 162.542 110.482 C166.532 106.426 171.384 105.778 176.812 105.562 C185.333 105.807 192.362 108.58 198.594 114.43 C202.488 118.778 203.134 122.342 203 128 C204.148 128.161 205.295 128.322 206.478 128.487 C210.829 129.099 215.179 129.72 219.528 130.344 C221.394 130.61 223.259 130.874 225.125 131.135 C235.649 132.609 246.034 134.237 256.348 136.831 C261.062 137.976 263.818 138.318 267.973 135.809 C268.662 135.356 269.352 134.904 270.062 134.438 C275.308 131.419 280.074 131.32 286 132 C286.99 132.33 287.98 132.66 289 133 C291.289 132.115 291.289 132.115 293.727 130.684 C294.667 130.169 295.608 129.655 296.577 129.125 C298.086 128.29 298.086 128.29 299.625 127.438 C321.927 115.486 343.885 110.899 369 109 C304.717 53.846 202.123 75.796 136 114 Z M71 92 C71.519 96.002 73.353 97.525 76.375 100.062 C79.013 102.301 81.596 104.51 84 107 C84.66 106.67 85.32 106.34 86 106 C85.566 101.572 82.807 99.606 79.625 96.75 C79.13 96.291 78.635 95.832 78.125 95.359 C75.057 92.525 75.057 92.525 71 92 Z M163 113 C163 113.66 163 114.32 163 115 C168.305 115.719 173.27 115.992 178.625 115.812 C184.484 115.785 187.437 116.293 192 120 C193.888 122.255 195.417 124.505 197 127 C197.99 126.67 198.98 126.34 200 126 C199.543 121.083 198.552 118.463 195 115 C184.477 108.245 174.075 106.185 163 113 Z M94 110 C93.67 110.66 93.34 111.32 93 112 C95.342 114.529 97.822 116.734 100.562 118.812 C101.141 119.252 101.72 119.692 102.316 120.145 C102.872 120.427 103.428 120.709 104 121 C104.99 120.67 105.98 120.34 107 120 C105.59 116.638 103.985 114.905 101.062 112.75 C100.373 112.229 99.683 111.708 98.973 111.172 C96.953 109.745 96.953 109.745 94 110 Z M293 135 C293 136.65 293 138.3 293 140 C290.825 141.379 288.639 142.727 286.438 144.062 C285.828 144.452 285.219 144.842 284.592 145.244 C279.894 148.053 277.482 147.864 272 147 C268.984 148.264 268.984 148.264 266.25 150.375 C264.69 151.498 264.69 151.498 263.098 152.645 C262.075 153.422 261.053 154.199 260 155 C259.112 155.664 258.224 156.328 257.309 157.012 C236.42 173.355 218.87 194.782 210 220 C210.492 220.251 210.984 220.501 211.49 220.759 C234.407 232.489 255.362 246.299 275 263 C275.534 263.451 276.068 263.901 276.618 264.365 C284.358 270.897 291.919 277.588 299.339 284.482 C300.552 285.591 301.78 286.685 303.015 287.77 C310.659 294.515 317.846 301.694 325.042 308.911 C327.19 311.065 329.344 313.213 331.498 315.361 C332.888 316.752 334.278 318.144 335.668 319.535 C336.3 320.166 336.933 320.796 337.585 321.446 C341.349 325.23 344.931 329.126 348.414 333.172 C351.452 336.673 354.644 340.035 357.812 343.418 C359.903 345.665 361.872 347.801 363.531 350.391 C364.904 352.241 364.904 352.241 367.328 352.312 C370.896 351.931 374.45 351.52 378 351 C379.248 350.821 379.248 350.821 380.521 350.639 C394.694 348.545 408.368 345.401 422 341 C422.733 340.766 423.467 340.531 424.222 340.29 C444.719 333.593 460.957 322.706 471 303 C482.87 275.887 477.349 243.908 467.883 216.801 C459.602 195.871 446.827 177.765 432 161 C430.913 159.747 430.913 159.747 429.805 158.469 C420.066 147.4 409.672 137.024 398 128 C396.903 127.136 395.807 126.271 394.711 125.406 C392.484 123.655 390.238 121.937 387.969 120.242 C386.281 118.968 384.615 117.659 383.031 116.258 C361.703 99.098 312.457 123.295 293 135 Z M128.375 118.938 C127.558 119.483 126.74 120.028 125.898 120.59 C125.272 121.055 124.645 121.521 124 122 C124 122.33 124 122.66 124 123 C132.593 123.881 141.37 124.701 150 124 C150.66 123.34 151.32 122.68 152 122 C152 121.01 152 120.02 152 119 C146.39 119 140.78 119 135 119 C135 118.01 135 117.02 135 116 C132.139 116 130.727 117.351 128.375 118.938 Z M157 119 C153.915 124.395 152.444 128.79 152 135 C153.98 135.99 153.98 135.99 156 137 C156.182 136.336 156.364 135.672 156.551 134.988 C159.158 125.831 159.158 125.831 162 122 C162.66 121.67 163.32 121.34 164 121 C164 120.34 164 119.68 164 119 C161.69 119 159.38 119 157 119 Z M84 154 C83.438 154.516 82.876 155.031 82.297 155.562 C71.43 165.661 62.222 180.034 61 195 C60.742 205.096 65.088 212.676 71.816 219.969 C80.243 227.808 90.296 232.972 100.6 237.857 C103.214 239.102 105.816 240.37 108.418 241.641 C123.871 249.159 139.492 256.286 155.154 263.354 C159.336 265.243 163.509 267.149 167.676 269.07 C169.17 269.757 169.17 269.757 170.695 270.458 C172.486 271.283 174.277 272.112 176.065 272.944 C181.277 275.336 186.522 277.302 192 279 C192.09 278.226 192.18 277.452 192.272 276.655 C194.097 261.31 196.34 246.75 201.337 232.068 C202.4 228.752 203.196 225.387 204 222 C195.453 218.524 186.962 215.688 178 213.5 C176.787 213.204 175.574 212.908 174.324 212.602 C146.784 206.039 119.147 203.318 91 201 C89.546 200.879 88.091 200.758 86.637 200.636 C79.76 200.065 72.882 199.516 66 199 C65.67 198.01 65.34 197.02 65 196 C125.408 200.084 125.408 200.084 149 204 C150.094 204.176 151.189 204.352 152.316 204.534 C168.113 207.127 183.167 211.161 198.345 216.231 C201.212 217.061 204.049 217.562 207 218 C207.473 217.019 207.946 216.038 208.434 215.027 C220.837 189.578 236.315 168.019 259.515 151.325 C260.225 150.806 260.936 150.286 261.668 149.75 C262.31 149.291 262.952 148.832 263.614 148.359 C264.071 147.911 264.529 147.462 265 147 C265.342 143.893 265.342 143.893 263.062 141.938 C259.107 139.435 255.572 138.764 251 138 C250.102 137.84 249.204 137.681 248.28 137.517 C240.188 136.119 232.065 134.916 223.938 133.75 C222.738 133.575 221.539 133.399 220.303 133.219 C207.102 130.89 207.102 130.89 194.562 133.863 C193.717 134.672 192.871 135.48 192 136.312 C191.134 137.113 190.268 137.914 189.375 138.738 C188.591 139.485 187.808 140.231 187 141 C184.709 143.096 183.615 143.976 180.47 144.097 C179.536 143.968 178.603 143.84 177.641 143.707 C176.607 143.571 175.573 143.435 174.508 143.295 C173.433 143.136 172.358 142.977 171.25 142.812 C169.661 142.603 169.661 142.603 168.039 142.389 C152.066 140.199 152.066 140.199 149.5 137.312 C148.821 134.174 148.877 131.199 149 128 C143.519 126.357 137.793 126.816 132.125 126.812 C130.367 126.794 130.367 126.794 128.574 126.775 C127.439 126.773 126.303 126.772 125.133 126.77 C124.1 126.765 123.068 126.761 122.004 126.757 C107.23 127.952 93.886 144.098 84 154 Z M162 132 C162 132.99 162 133.98 162 135 C163.582 135.338 165.166 135.67 166.75 136 C167.632 136.186 168.513 136.371 169.422 136.562 C172.221 137.112 172.221 137.112 176 137 C175.733 135.015 175.733 135.015 175 133 C171.985 131.995 169.958 131.897 166.812 131.938 C165.911 131.947 165.01 131.956 164.082 131.965 C163.051 131.982 163.051 131.982 162 132 Z M273 137 C276.217 138.072 277.053 137.936 280.188 137.062 C281.446 136.712 282.704 136.361 284 136 C279.912 132.893 277.219 134.891 273 137 Z M271 138 C270.01 138.66 269.02 139.32 268 140 C268 140.66 268 141.32 268 142 C269.32 141.34 270.64 140.68 272 140 C271.67 139.34 271.34 138.68 271 138 Z M208 224 C202.553 237.328 198.839 250.698 197 265 C196.901 265.683 196.801 266.367 196.698 267.071 C195.998 272.409 195.562 277.752 197 283 C200.152 287.094 204.025 289.28 208.509 291.66 C211.325 293.175 214.06 294.799 216.805 296.441 C223.475 300.405 230.225 304.218 237 308 C238.619 308.906 238.619 308.906 240.271 309.831 C269.102 325.893 299.695 341.339 332 349 C333.835 349.443 333.835 349.443 335.707 349.895 C343.912 351.715 351.606 352.382 360 352 C355.909 345.975 351.108 340.961 345.879 335.906 C343.746 333.808 341.782 331.617 339.837 329.344 C335.974 324.91 331.885 320.741 327.723 316.59 C326.952 315.819 326.182 315.048 325.389 314.253 C323.771 312.634 322.151 311.017 320.531 309.4 C318.069 306.944 315.614 304.483 313.158 302.021 C311.576 300.44 309.993 298.858 308.41 297.277 C307.324 296.188 307.324 296.188 306.216 295.077 C302.178 291.057 298.048 287.205 293.728 283.49 C291.33 281.423 289.013 279.273 286.688 277.125 C282.226 273.061 277.669 269.167 272.965 265.387 C270.895 263.721 268.85 262.041 266.816 260.332 C252.891 248.755 237.667 238.587 221.938 229.625 C221.326 229.274 220.714 228.923 220.084 228.562 C216.127 226.383 212.349 225.097 208 224 Z " fill="#000000" transform="translate(197,276)"/>
<path d="M0 0 C0.99 0.33 1.98 0.66 3 1 C3.86 2.747 3.86 2.747 4.535 5.008 C4.787 5.83 5.039 6.653 5.299 7.5 C5.551 8.366 5.803 9.233 6.062 10.125 C6.318 10.968 6.574 11.811 6.838 12.68 C7.574 15.116 8.288 17.557 9 20 C9.206 20.679 9.412 21.358 9.624 22.058 C10.755 25.838 11.193 29.046 11 33 C10.01 32.67 9.02 32.34 8 32 C4.376 24.342 -2.691 8.073 0 0 Z " fill="#000000" transform="translate(367,290)"/>
<path d="M0 0 C2.874 1.992 3.052 3.273 3.73 6.793 C3.896 8.256 4.048 9.721 4.188 11.188 C4.269 11.937 4.351 12.687 4.436 13.459 C4.635 15.305 4.819 17.152 5 19 C4.01 19.33 3.02 19.66 2 20 C-1.024 15.83 -1.357 12.85 -1.25 7.75 C-1.235 6.507 -1.219 5.265 -1.203 3.984 C-1 1 -1 1 0 0 Z " fill="#000000" transform="translate(434,291)"/>
<path d="M0 0 C0.66 0 1.32 0 2 0 C3.226 3.678 2.703 5.882 2.062 9.688 C1.868 10.867 1.673 12.046 1.473 13.262 C1.317 14.165 1.161 15.069 1 16 C0.01 16 -0.98 16 -2 16 C-2.959 12.245 -2.951 9.528 -2.125 5.75 C-1.942 4.879 -1.759 4.007 -1.57 3.109 C-1 1 -1 1 0 0 Z " fill="#000000" transform="translate(494,298)"/>
<path d="M0 0 C7.565 0.842 12.779 7.044 17.384 12.7 C29.5 28.697 37.163 49.768 37 70 C36.512 72.324 36.512 72.324 36 74 C35.34 74 34.68 74 34 74 C33.841 73.305 33.683 72.61 33.52 71.895 C33.01 69.673 32.495 67.453 31.977 65.234 C31.257 62.146 30.573 59.051 29.898 55.953 C25.31 35.267 17.726 18.794 2.09 4.145 C0 2 0 2 0 0 Z " fill="#000000" transform="translate(295,300)"/>
<path d="M0 0 C5.823 1.142 9.356 4.795 12.832 9.457 C20.409 20.996 26.798 33.909 26 48 C25.01 48 24.02 48 23 48 C22.789 47.331 22.578 46.661 22.361 45.971 C21.377 42.873 20.376 39.78 19.375 36.688 C19.044 35.635 18.712 34.582 18.371 33.498 C15.261 23.961 11.27 15.169 4.688 7.5 C1.095 3.285 1.095 3.285 0 0 Z " fill="#000000" transform="translate(291,313)"/>
<path d="M0 0 C3.96 0 7.92 0 12 0 C11.67 1.32 11.34 2.64 11 4 C9.742 4.041 8.484 4.082 7.188 4.125 C6.48 4.148 5.772 4.171 5.043 4.195 C3 4 3 4 0 2 C0 1.34 0 0.68 0 0 Z " fill="#000000" transform="translate(452,361)"/>
<path d="M0 0 C0.66 0.33 1.32 0.66 2 1 C2.21 3.076 2.315 5.164 2.375 7.25 C3.222 21.355 7.725 32.28 18 42 C19.028 43.312 20.041 44.637 21 46 C15.617 45.78 12.632 44.633 8.699 40.922 C-0.084 30.987 -2.344 20.006 -2.301 7.066 C-2.016 4.159 -1.516 2.458 0 0 Z " fill="#000000" transform="translate(222,363)"/>
<path d="M0 0 C1.938 1.688 1.938 1.688 3 4 C3 7.062 3 7.062 2 10 C-0.188 12 -0.188 12 -3 13 C-6.188 12.562 -6.188 12.562 -9 11 C-10.562 8.188 -10.562 8.188 -11 5 C-8.404 -0.841 -6.075 -1.612 0 0 Z " fill="#000000" transform="translate(172,370)"/>
<path d="M0 0 C0.99 0 1.98 0 3 0 C3.219 0.762 3.438 1.524 3.664 2.309 C7.116 13.549 12.471 23.468 23.242 29.191 C23.822 29.458 24.402 29.725 25 30 C25 30.99 25 31.98 25 33 C17.646 32.694 13.296 29.471 8.301 24.211 C2.673 17.321 -0.796 8.95 0 0 Z " fill="#000000" transform="translate(233,373)"/>
<path d="M0 0 C-0.607 3.573 -0.965 3.971 -3.984 6.473 C-5.232 7.347 -6.487 8.21 -7.75 9.062 C-8.371 9.496 -8.993 9.93 -9.633 10.377 C-19.322 17.092 -19.322 17.092 -22.312 16.688 C-22.869 16.461 -23.426 16.234 -24 16 C-22.611 12.658 -21.205 11.156 -18.156 9.238 C-17.405 8.759 -16.653 8.281 -15.879 7.787 C-15.094 7.3 -14.309 6.814 -13.5 6.312 C-12.715 5.814 -11.93 5.316 -11.121 4.803 C-3.523 0 -3.523 0 0 0 Z " fill="#000000" transform="translate(697,394)"/>
<path d="M0 0 C0.831 0.088 1.661 0.175 2.517 0.266 C9.409 1.07 16.16 2.341 22.938 3.812 C23.884 4.018 24.83 4.223 25.805 4.434 C31.607 5.744 37.211 7.376 42.812 9.375 C42.483 10.365 42.153 11.355 41.812 12.375 C40.902 12.204 39.991 12.032 39.053 11.856 C16.911 7.608 16.911 7.608 -5.434 4.699 C-8.188 4.375 -8.188 4.375 -10.188 3.375 C-10.188 2.385 -10.188 1.395 -10.188 0.375 C-6.941 -1.248 -3.514 -0.371 0 0 Z " fill="#000000" transform="translate(421.1875,396.625)"/>
<path d="M0 0 C0.66 0.33 1.32 0.66 2 1 C1.319 6.045 -2.074 7.895 -5.91 10.84 C-13.594 16.211 -21.949 21.389 -31 24 C-31.66 23.67 -32.32 23.34 -33 23 C-31.969 19.672 -30.942 18.968 -27.832 17.246 C-26.496 16.636 -25.155 16.033 -23.812 15.438 C-15.044 11.334 -7.603 5.943 0 0 Z " fill="#000000" transform="translate(502,410)"/>
<path d="M0 0 C1.98 0 3.96 0 6 0 C6 1.32 6 2.64 6 4 C3.03 3.505 3.03 3.505 0 3 C0 2.01 0 1.02 0 0 Z " fill="#000000" transform="translate(304,442)"/>
<path d="M0 0 C0 0.66 0 1.32 0 2 C-8.699 5.109 -17.78 6.362 -27 6 C-27.33 5.01 -27.66 4.02 -28 3 C-18.536 0.79 -9.731 -0.144 0 0 Z " fill="#000000" transform="translate(205,457)"/>
<path d="M0 0 C2.475 0.99 2.475 0.99 5 2 C4.01 2.99 3.02 3.98 2 5 C1.01 4.34 0.02 3.68 -1 3 C-0.67 2.01 -0.34 1.02 0 0 Z " fill="#000000" transform="translate(372,466)"/>
<path d="M0 0 C1.65 0.33 3.3 0.66 5 1 C4.67 2.65 4.34 4.3 4 6 C2.35 5.67 0.7 5.34 -1 5 C-0.67 3.35 -0.34 1.7 0 0 Z " fill="#000000" transform="translate(505,467)"/>
<path d="M0 0 C1.418 0.115 2.834 0.243 4.25 0.375 C5.039 0.445 5.828 0.514 6.641 0.586 C9.086 1.015 10.848 1.786 13 3 C12.67 3.99 12.34 4.98 12 6 C10.562 5.858 9.125 5.711 7.688 5.562 C6.887 5.481 6.086 5.4 5.262 5.316 C3 5 3 5 0 4 C0 2.68 0 1.36 0 0 Z " fill="#000000" transform="translate(307,485)"/>
<path d="M0 0 C0.99 0.33 1.98 0.66 3 1 C2.398 3.02 1.727 5.021 1 7 C0.01 7.495 0.01 7.495 -1 8 C-1.66 7.67 -2.32 7.34 -3 7 C-1.125 1.125 -1.125 1.125 0 0 Z " fill="#000000" transform="translate(479,486)"/>
<path d="M0 0 C0.66 0 1.32 0 2 0 C1.424 4.491 0.231 8.512 -1.281 12.754 C-5.922 27.256 -2.596 42.937 2.75 56.75 C4 60 4 60 4 64 C1 63 1 63 -0.5 60.262 C-7.751 42.983 -10.774 27.303 -5.266 9.051 C-3.866 5.678 -2.211 2.904 0 0 Z " fill="#000000" transform="translate(530,498)"/>
<path d="M0 0 C1.32 0 2.64 0 4 0 C3.67 1.65 3.34 3.3 3 5 C1.68 4.34 0.36 3.68 -1 3 C-0.67 2.01 -0.34 1.02 0 0 Z " fill="#000000" transform="translate(614,500)"/>
<path d="M0 0 C0.66 0 1.32 0 2 0 C1.611 3.79 0.705 6.793 -0.938 10.188 C-6.669 22.609 -5.423 35.082 -2.754 48.07 C-1.954 52.028 -1.46 55.989 -1 60 C-4 59 -4 59 -5.098 57.172 C-10.982 42.401 -11.623 27.193 -7 12 C-2.844 2.844 -2.844 2.844 0 0 Z " fill="#000000" transform="translate(508,501)"/>
<path d="M0 0 C0.99 0 1.98 0 3 0 C2.567 6.82 1.092 11.916 -2 18 C-2.99 18 -3.98 18 -5 18 C-6 16 -6 16 -5.293 13.32 C-4.928 12.266 -4.563 11.211 -4.188 10.125 C-3.83 9.076 -3.473 8.026 -3.105 6.945 C-2.197 4.524 -1.216 2.277 0 0 Z " fill="#000000" transform="translate(476,508)"/>
<path d="M0 0 C0.99 0 1.98 0 3 0 C4.283 3.85 4.066 6.947 4 11 C3.01 11 2.02 11 1 11 C-0.283 7.15 -0.066 4.053 0 0 Z " fill="#000000" transform="translate(654,508)"/>
<path d="M0 0 C5.232 -0.383 8.378 0.781 13 3 C13 3.99 13 4.98 13 6 C11.582 5.885 10.166 5.757 8.75 5.625 C7.961 5.555 7.172 5.486 6.359 5.414 C3.914 4.985 2.152 4.214 0 3 C0 2.01 0 1.02 0 0 Z " fill="#000000" transform="translate(341,515)"/>
<path d="M0 0 C8.656 6.373 13.249 15.399 17.75 24.938 C18.306 26.104 18.862 27.27 19.434 28.471 C33.375 58.107 33.375 58.107 33.375 68.438 C30.707 69.297 30.707 69.297 27.375 69.438 C25.222 67.539 23.755 65.944 22.062 63.688 C21.587 63.089 21.111 62.491 20.621 61.874 C19.648 60.649 18.683 59.418 17.727 58.18 C15.869 55.786 13.934 53.458 12 51.125 C10.458 49.23 8.916 47.334 7.375 45.438 C6.249 44.058 5.123 42.68 3.996 41.301 C2.81 39.846 1.624 38.392 0.438 36.938 C-0.131 36.242 -0.699 35.547 -1.285 34.831 C-1.819 34.175 -2.352 33.519 -2.902 32.844 C-3.379 32.259 -3.856 31.675 -4.347 31.072 C-5.513 29.581 -6.575 28.012 -7.625 26.438 C-7.42 27.185 -7.215 27.933 -7.004 28.703 C-6.734 29.688 -6.465 30.673 -6.188 31.688 C-5.921 32.662 -5.654 33.637 -5.379 34.641 C-5.13 35.564 -4.881 36.487 -4.625 37.438 C-4.335 38.447 -4.335 38.447 -4.039 39.477 C-3.534 41.868 -3.456 44.119 -3.438 46.562 C-3.423 47.431 -3.409 48.3 -3.395 49.195 C-3.625 51.438 -3.625 51.438 -5.625 53.438 C-10.628 54.021 -12.653 54.032 -17 51.375 C-19.981 48.039 -20.983 45.848 -21.625 41.438 C-20.75 39 -20.75 39 -19.625 37.438 C-11.875 37.312 -11.875 37.312 -9.625 38.438 C-11.508 30.458 -14.226 22.878 -17.199 15.253 C-21.392 4.275 -21.392 4.275 -20 -0.875 C-14.649 -7.442 -6.034 -3.697 0 0 Z M-16.625 1.438 C-15.995 13.194 -8.357 20.302 -0.989 28.844 C0.939 31.097 2.816 33.389 4.688 35.688 C5.4 36.561 6.113 37.435 6.848 38.336 C8.247 40.054 9.647 41.771 11.046 43.489 C12.903 45.766 14.764 48.039 16.625 50.312 C17.216 51.039 17.807 51.765 18.415 52.513 C21.57 56.361 24.782 59.993 28.375 63.438 C27.008 56.231 24.731 49.808 21.875 43.062 C21.437 42.021 20.999 40.98 20.548 39.907 C17.617 33.052 14.463 26.352 11 19.75 C10.596 18.979 10.192 18.209 9.775 17.415 C5.189 8.911 -0.393 2.319 -9.938 -0.562 C-12.79 -0.562 -14.257 -0.111 -16.625 1.438 Z " fill="#000000" transform="translate(205.625,522.5625)"/>
<path d="M0 0 C3.587 1.332 6.916 2.709 10 5 C10 6.32 10 7.64 10 9 C6.054 8.436 3.205 7.404 0 5 C-0.875 2.875 -0.875 2.875 -1 1 C-0.67 0.67 -0.34 0.34 0 0 Z " fill="#000000" transform="translate(421,519)"/>
<path d="M0 0 C3.336 1.112 3.584 1.463 5.188 4.375 C5.704 5.284 5.704 5.284 6.23 6.211 C7 8 7 8 7 11 C5.68 11 4.36 11 3 11 C-1.062 4.6 -1.062 4.6 -0.75 1.562 C-0.502 1.047 -0.255 0.531 0 0 Z " fill="#000000" transform="translate(416,548)"/>
<path d="M0 0 C2.468 1.152 4.048 2.048 6 4 C5.625 6.125 5.625 6.125 5 8 C3.062 7.375 3.062 7.375 1 6 C0.25 2.875 0.25 2.875 0 0 Z " fill="#000000" transform="translate(465,551)"/>
<path d="M0 0 C0.66 0 1.32 0 2 0 C1.391 7.955 -0.497 15.37 -2.562 23.062 C-3.057 24.933 -3.057 24.933 -3.561 26.842 C-4.368 29.896 -5.181 32.949 -6 36 C-7.32 35.67 -8.64 35.34 -10 35 C-8.476 27.181 -6.676 19.517 -4.438 11.875 C-4.228 11.153 -4.018 10.431 -3.802 9.688 C-2.789 6.297 -1.738 3.092 0 0 Z " fill="#000000" transform="translate(362,593)"/>
<path d="M0 0 C0.66 0 1.32 0 2 0 C-1.183 10.361 -1.183 10.361 -4 14 C-4.99 14 -5.98 14 -7 14 C-6.435 10.069 -5.286 7.466 -3.062 4.188 C-2.538 3.397 -2.013 2.607 -1.473 1.793 C-0.987 1.201 -0.501 0.61 0 0 Z " fill="#000000" transform="translate(319,596)"/>
</svg>
