<?xml version="1.0" encoding="UTF-8"?>
<!-- Generator: visioncortex VTracer 0.6.0 -->
<svg version="1.1" xmlns="http://www.w3.org/2000/svg" width="847" height="847">
<path d="M0 0 C-1.426 3.519 -2.991 4.95 -6.211 6.91 C-7.044 7.425 -7.876 7.94 -8.734 8.471 C-10.041 9.259 -10.041 9.259 -11.375 10.062 C-13.092 11.114 -14.808 12.168 -16.523 13.223 C-17.286 13.684 -18.048 14.146 -18.833 14.621 C-20.976 15.984 -22.99 17.45 -25 19 C-23.42 18.511 -23.42 18.511 -21.809 18.012 C1.627 10.857 25.995 7.274 50.5 9.812 C51.29 9.883 52.08 9.953 52.895 10.025 C58.58 10.607 63.655 11.991 69 14 C68.67 14.99 68.34 15.98 68 17 C66.208 16.855 64.417 16.709 62.625 16.562 C61.627 16.481 60.63 16.4 59.602 16.316 C57.671 16.147 55.741 15.97 53.816 15.748 C46.828 14.96 39.904 14.809 32.875 14.812 C31.693 14.812 30.511 14.811 29.294 14.811 C20.385 14.864 11.781 15.494 3 17 C3.593 17.095 4.186 17.19 4.797 17.288 C26.248 20.785 45.401 26.111 62 41 C62.906 41.812 63.812 42.624 64.746 43.461 C79.208 57.141 88.037 74.122 89.184 94.219 C89.536 111.611 84.682 128.125 74 142 C72.691 143.276 71.359 144.528 70 145.75 C67.449 148.197 67.048 148.637 66.562 152.312 C69.626 160.172 76.108 166.26 81.75 172.406 C83 174 83 174 83 176 C83.66 176 84.32 176 85 176 C86.708 177.624 88.368 179.299 90 181 C91.732 182.678 93.467 184.354 95.203 186.027 C116.229 206.442 116.229 206.442 122 218 C122.438 218.826 122.877 219.653 123.328 220.504 C128.746 232.085 128.434 245.595 127 258 C127.883 258.401 128.766 258.802 129.676 259.215 C144.264 266.037 156.526 275.251 162.438 290.812 C166.036 301.478 165.763 312.98 164 324 C164.571 324.25 165.142 324.5 165.73 324.758 C177.17 331.019 183.675 344.307 187.289 356.277 C188.228 359.872 188.849 363.298 189 367 C189.052 368.1 189.103 369.199 189.156 370.332 C189.52 385.051 186.853 402.102 177.125 413.875 C176.424 414.576 175.722 415.277 175 416 C173.68 415.34 172.36 414.68 171 414 C171.767 410.61 173.021 407.628 174.476 404.469 C181.64 388.86 184.264 371.501 178.262 354.926 C174.924 347.186 171.18 340.659 165.32 334.559 C164 333 164 333 164 331 C163.041 330.536 163.041 330.536 162.062 330.062 C160 329 160 329 159 328 C158.127 322.041 157.958 316.057 158.086 310.043 C158.305 298.583 157.233 289.568 149.426 280.742 C148 279 148 279 148 277 C147.41 276.724 146.819 276.448 146.211 276.164 C144.109 275.058 142.465 273.865 140.625 272.375 C137.99 270.33 135.33 268.588 132.402 267.004 C131.771 266.661 131.139 266.318 130.488 265.965 C129.22 265.289 127.944 264.626 126.661 263.98 C123.814 262.458 122.222 261.57 121.027 258.504 C121 256 121 256 121.483 254.085 C124.411 242.267 122.039 228.579 116.422 218.039 C113.202 212.745 109.541 208.057 105.285 203.559 C104 202 104 202 104 200 C103.34 200 102.68 200 102 200 C100.853 198.916 99.716 197.819 98.624 196.681 C96.669 194.657 94.654 192.703 92.637 190.742 C76.231 174.654 76.231 174.654 70 165 C70.448 168.564 70.91 172.126 71.375 175.688 C71.564 177.199 71.564 177.199 71.758 178.74 C71.887 179.717 72.016 180.693 72.148 181.699 C72.264 182.595 72.379 183.49 72.498 184.413 C73.559 189.878 75.78 193.175 79.438 197.312 C85.597 204.433 90.779 212.179 96 220 C92.657 208.88 85.89 199.391 78.59 190.523 C77 188 77 188 77.254 185.664 C77.5 185.115 77.746 184.566 78 184 C96.251 200.54 106.835 226.824 109 251 C109.182 255.018 109.213 258.984 109 263 C109.739 263.267 110.477 263.534 111.238 263.809 C119.36 267.312 126.888 274.735 133 281 C133 281.66 133 282.32 133 283 C133.99 283.33 134.98 283.66 136 284 C137.754 286.328 137.754 286.328 139.562 289.25 C140.162 290.204 140.761 291.158 141.379 292.141 C144.735 298.06 146.263 303.421 145.746 310.242 C144.81 318.923 144.81 318.923 148.012 326.602 C150.605 328.534 150.605 328.534 153.383 330.207 C160.096 334.806 163.649 344.149 165.125 351.938 C168.014 370.633 167.267 389.718 157 406 C161.301 411.3 165.623 416.575 170.059 421.763 C174.158 426.557 178.132 431.406 181.938 436.438 C185.416 441.032 189.039 445.457 192.812 449.812 C215.768 476.37 240.583 506.766 238 544 C236.344 555.97 232.311 567.038 222.832 574.891 C221 576 221 576 218 576 C219.305 573.142 220.733 571.037 222.875 568.75 C231.198 559.172 233.609 547.024 233.281 534.566 C231.051 506.287 214.025 482.779 196.176 461.944 C192.842 458.043 189.648 454.052 186.5 450 C182.428 444.76 178.225 439.658 173.914 434.613 C171.217 431.453 168.579 428.257 166 425 C158.322 415.341 150.268 406.085 141.848 397.07 C139.283 394.321 136.795 391.511 134.312 388.688 C126.951 380.535 115.809 368.586 104.099 367.886 C103.054 367.894 103.054 367.894 101.988 367.902 C100.852 367.907 100.852 367.907 99.693 367.912 C98.908 367.92 98.122 367.929 97.312 367.938 C96.117 367.944 96.117 367.944 94.896 367.951 C92.931 367.963 90.965 367.981 89 368 C89.33 368.614 89.66 369.227 90 369.859 C91 372 91 372 91 374.25 C86.796 385.811 74.122 395.337 65.057 403.19 C60.875 406.87 56.865 410.737 52.824 414.57 C49.856 417.372 46.898 420.123 43.715 422.68 C41.197 424.831 39.488 426.744 37.688 429.5 C37.196 430.232 36.705 430.964 36.199 431.719 C34.865 434.257 34.23 436.139 34 439 C36.12 445.655 39.978 450.329 45 455 C45 455.66 45 456.32 45 457 C45.99 457.33 46.98 457.66 48 458 C48 458.66 48 459.32 48 460 C48.802 460.323 48.802 460.323 49.621 460.652 C52.87 462.493 55.384 464.999 58.062 467.562 C63.841 472.984 69.779 478.087 76 483 C76.646 483.513 77.291 484.026 77.957 484.554 C86.145 491.048 94.407 497.362 103 503.312 C120.057 515.17 120.057 515.17 121.75 520.25 C121.874 521.116 121.874 521.116 122 522 C119.356 520.734 116.951 519.363 114.559 517.672 C113.901 517.208 113.244 516.745 112.567 516.267 C111.864 515.766 111.161 515.266 110.438 514.75 C109.704 514.23 108.97 513.71 108.214 513.174 C101.472 508.376 94.806 503.475 88.158 498.546 C87.397 497.982 86.636 497.417 85.852 496.836 C85.179 496.336 84.507 495.837 83.815 495.322 C82.239 494.174 80.622 493.082 79 492 C79.592 493.111 80.183 494.222 80.793 495.367 C81.591 496.87 82.389 498.372 83.188 499.875 C83.604 500.658 84.02 501.441 84.449 502.247 C86.542 506.195 88.58 510.152 90.5 514.188 C92.937 519.173 95.973 523.751 99.055 528.356 C102 532.797 102 532.797 102 535 C87.956 529.11 79.069 504.128 73 491 C72.292 489.163 72.292 489.163 71.57 487.289 C69.857 483.7 68.419 482.276 65.25 479.938 C57.722 474.096 50.883 467.581 44 461 C42.606 459.67 42.606 459.67 41.184 458.312 C35.031 452.312 31.284 447.406 29 439 C27.654 438.923 27.654 438.923 26.281 438.844 C11.32 437.484 -0.964 431.194 -12 421 C-12.891 420.189 -13.781 419.378 -14.699 418.543 C-21.89 411.693 -27.526 404.244 -33 396 C-33.723 394.938 -34.446 393.876 -35.191 392.781 C-39.852 385.635 -42.994 378.447 -45.773 370.434 C-46.714 367.8 -47.723 365.469 -49 363 C-50.921 367.123 -52.836 371.249 -54.75 375.375 C-55.289 376.531 -55.828 377.688 -56.383 378.879 C-59.152 384.856 -61.807 390.818 -64.088 396.999 C-65.689 400.513 -67.721 402.057 -71 404 C-76.897 406.17 -81.926 406.545 -87.785 404.156 C-96.884 399.406 -102.266 392.255 -108 384 C-108.545 385.251 -108.545 385.251 -109.102 386.527 C-113.689 396.796 -117.903 406.201 -128 412 C-128.66 412 -129.32 412 -130 412 C-130.33 411.34 -130.66 410.68 -131 410 C-131.99 410.33 -132.98 410.66 -134 411 C-133.325 411.822 -133.325 411.822 -132.637 412.66 C-114.838 434.597 -99.809 457.866 -92.691 485.508 C-92.242 487.922 -92.242 487.922 -91 489 C-89.076 488.764 -87.16 488.459 -85.25 488.125 C-64.838 484.873 -43.406 484.548 -23 488 C-23.159 487.501 -23.318 487.002 -23.482 486.488 C-24.194 483.067 -24.216 479.671 -24.281 476.191 C-24.309 475.048 -24.309 475.048 -24.337 473.881 C-24.396 471.441 -24.448 469.002 -24.5 466.562 C-24.728 456.007 -25.034 445.519 -26 435 C-24.68 435 -23.36 435 -22 435 C-21.223 439.197 -20.824 443.251 -20.684 447.516 C-20.642 448.759 -20.6 450.003 -20.556 451.285 C-20.517 452.593 -20.478 453.902 -20.438 455.25 C-20.395 456.599 -20.352 457.948 -20.309 459.297 C-20.005 469.201 -19.879 479.093 -20 489 C-19.035 489.13 -19.035 489.13 -18.051 489.262 C-2.263 491.717 10.584 498.263 21.137 510.359 C22.968 512.955 24.252 515.598 25.586 518.473 C27.854 523.194 29.494 526.412 34.641 528.422 C38.081 529.124 41.553 529.458 45.047 529.772 C60.196 531.538 73.917 541.06 84 552 C89.58 559.106 94.402 567.275 93.75 576.562 C93 579 93 579 92 580 C98.677 579.879 105.355 579.754 112.032 579.628 C114.287 579.585 116.541 579.544 118.796 579.503 C130.758 579.285 142.714 579.022 154.67 578.61 C171.62 578.027 188.55 577.839 205.51 577.871 C207.668 577.875 209.827 577.877 211.985 577.878 C232.426 577.89 252.856 578.085 273.29 578.644 C274.134 578.667 274.979 578.69 275.85 578.713 C277.482 578.758 279.114 578.804 280.745 578.851 C285.026 578.964 289.297 579.004 293.579 578.961 C294.497 578.953 295.415 578.945 296.36 578.936 C298.123 578.917 299.885 578.888 301.647 578.85 C307.671 578.781 307.671 578.781 311 581 C307.885 584.115 299.109 583.066 294.897 583.1 C293.062 583.094 291.227 583.082 289.392 583.066 C288.373 583.061 287.355 583.057 286.306 583.052 C284.094 583.042 281.881 583.029 279.669 583.014 C273.554 582.975 267.439 582.957 261.324 582.935 C260.03 582.93 258.735 582.924 257.402 582.919 C196.887 582.679 136.475 583.623 76 586 C75.156 586.033 74.312 586.066 73.443 586.1 C62.689 586.52 51.938 586.984 41.188 587.5 C40.015 587.554 38.842 587.607 37.633 587.663 C34.435 587.813 31.239 587.981 28.043 588.156 C26.709 588.217 26.709 588.217 25.348 588.279 C19.237 588.648 13.787 590.023 8 592 C8.983 593.208 8.983 593.208 10.854 593.083 C11.67 593.064 12.486 593.044 13.326 593.024 C14.726 592.994 14.726 592.994 16.154 592.964 C17.184 592.937 18.215 592.911 19.277 592.883 C21.505 592.835 23.734 592.787 25.962 592.738 C27.15 592.711 28.339 592.683 29.563 592.655 C57.458 592.018 85.342 591.838 113.243 591.871 C116.764 591.875 120.284 591.877 123.805 591.879 C159.845 591.898 195.883 592.083 231.922 592.406 C235.4 592.437 238.877 592.467 242.355 592.497 C288.106 592.895 288.106 592.895 309 594 C308.416 600.793 307.49 607.448 306.258 614.152 C306.004 615.562 306.004 615.562 305.746 617 C305.209 619.98 304.667 622.959 304.125 625.938 C303.417 629.842 302.711 633.747 302.008 637.652 C301.749 639.085 301.749 639.085 301.486 640.546 C300.232 647.558 299.081 654.582 298.033 661.627 C297.352 666.11 296.489 670.516 295.469 674.935 C294.422 679.545 293.58 684.199 292.684 688.84 C292 692 292 692 291 694 C289.713 693.998 288.426 693.996 287.099 693.993 C270.379 693.965 253.658 693.948 236.938 693.938 C235.913 693.937 235.913 693.937 234.868 693.936 C197.098 693.913 159.336 694.026 121.569 694.464 C83.438 694.907 45.31 695.113 7.177 695.123 C3.338 695.125 -0.501 695.128 -4.34 695.133 C-46.86 695.173 -89.383 694.801 -131.875 693.125 C-132.936 693.085 -133.998 693.044 -135.091 693.003 C-155.311 692.227 -175.486 690.966 -195.666 689.502 C-201.34 689.097 -207.014 688.779 -212.695 688.5 C-220.83 688.096 -228.932 687.474 -237.044 686.757 C-249.272 685.678 -261.496 684.738 -273.75 684 C-297.754 682.52 -321.651 679.963 -345.562 677.438 C-346.569 677.332 -347.575 677.226 -348.612 677.117 C-354.243 676.522 -359.87 675.906 -365.497 675.27 C-367.871 675.014 -370.245 674.796 -372.624 674.587 C-373.985 674.451 -375.346 674.314 -376.707 674.176 C-377.861 674.073 -379.014 673.97 -380.202 673.865 C-383 673 -383 673 -384.894 670.508 C-386.287 667.387 -387.146 664.308 -388 661 C-388.775 658.848 -389.567 656.702 -390.375 654.562 C-392.739 647.853 -394.963 641.099 -397.187 634.343 C-399.787 626.503 -402.605 618.75 -405.511 611.02 C-405.836 610.144 -406.161 609.269 -406.496 608.367 C-406.787 607.595 -407.077 606.823 -407.377 606.027 C-408 604 -408 604 -408 601 C-390.132 600.108 -372.304 599.861 -354.416 599.899 C-350.868 599.905 -347.319 599.905 -343.77 599.907 C-337.095 599.91 -330.42 599.918 -323.745 599.928 C-316.127 599.939 -308.509 599.945 -300.89 599.95 C-285.26 599.96 -269.63 599.978 -254 600 C-254.454 599.263 -254.907 598.525 -255.374 597.766 C-257 595 -257 595 -258.005 592.796 C-259.132 590.498 -260.182 588.811 -262 587 C-265.612 585.842 -269.088 585.951 -272.855 586.035 C-273.912 586.027 -274.969 586.018 -276.058 586.009 C-279.436 585.99 -282.81 586.025 -286.188 586.062 C-289.546 586.063 -292.905 586.053 -296.264 586.041 C-298.35 586.037 -300.438 586.043 -302.524 586.061 C-308.75 586.099 -314.82 585.754 -321 585 C-321 584.01 -321 583.02 -321 582 C-320.296 582.148 -319.592 582.296 -318.867 582.449 C-314.927 582.763 -312.702 582.508 -309 581 C-302.825 575.03 -298.313 567.289 -293.777 560.048 C-292.898 558.668 -291.956 557.328 -291 556 C-290.34 556 -289.68 556 -289 556 C-288.602 555.12 -288.602 555.12 -288.195 554.223 C-286.616 551.287 -284.502 549.111 -282.242 546.684 C-280.703 544.946 -280.703 544.946 -281 542 C-281.338 542.505 -281.675 543.011 -282.023 543.531 C-282.469 544.181 -282.915 544.831 -283.375 545.5 C-283.816 546.15 -284.257 546.799 -284.711 547.469 C-285.136 547.974 -285.562 548.479 -286 549 C-286.66 549 -287.32 549 -288 549 C-288.236 549.719 -288.472 550.439 -288.715 551.18 C-290.216 554.475 -292.066 556.507 -294.562 559.125 C-299.041 563.902 -303.147 568.822 -307.188 573.98 C-307.786 574.647 -308.384 575.313 -309 576 C-309.66 576 -310.32 576 -311 576 C-311.73 573.805 -311.73 573.805 -312 571 C-310.551 568.633 -310.551 568.633 -308.312 566.125 C-307.489 565.174 -306.665 564.222 -305.816 563.242 C-305.364 562.726 -304.912 562.21 -304.446 561.679 C-301.797 558.604 -299.281 555.422 -296.75 552.25 C-296.255 551.637 -295.761 551.023 -295.251 550.391 C-292.016 546.359 -288.972 542.23 -286 538 C-290.741 542.052 -295.214 546.144 -299.359 550.812 C-301 552 -301 552 -303.203 551.688 C-303.796 551.461 -304.389 551.234 -305 551 C-305 546.049 -303.196 544.576 -299.938 541.25 C-298.926 540.186 -297.916 539.12 -296.906 538.055 C-296.162 537.277 -296.162 537.277 -295.402 536.483 C-292.964 533.904 -290.658 531.211 -288.34 528.523 C-287.271 527.308 -286.144 526.144 -285 525 C-284.6 522.677 -284.26 520.343 -284 518 C-284.763 518.763 -285.526 519.526 -286.312 520.312 C-287.199 521.199 -288.086 522.086 -289 523 C-289.557 523.598 -290.114 524.196 -290.688 524.812 C-292 526 -292 526 -294 526 C-294.495 524.515 -294.495 524.515 -295 523 C-293.08 519.677 -291.004 517.004 -288.34 514.239 C-285.474 510.273 -285.592 508.777 -286.18 503.996 C-286.324 502.573 -286.461 501.15 -286.593 499.726 C-286.703 498.585 -286.703 498.585 -286.815 497.42 C-287.148 493.066 -287.133 488.712 -287.133 484.348 C-287.135 482.968 -287.135 482.968 -287.136 481.561 C-287.137 479.68 -287.135 477.798 -287.13 475.916 C-287.125 473.042 -287.13 470.169 -287.137 467.295 C-287.136 465.437 -287.135 463.58 -287.133 461.723 C-287.135 460.879 -287.137 460.035 -287.139 459.165 C-287.118 453.706 -286.684 448.418 -286 443 C-285.01 443 -284.02 443 -283 443 C-282.985 443.893 -282.971 444.785 -282.956 445.705 C-282.656 462.308 -282.155 478.84 -280.562 495.375 C-280.379 497.294 -280.379 497.294 -280.192 499.252 C-279.484 506.24 -278.576 513.169 -277.45 520.103 C-277 523.001 -276.649 525.9 -276.312 528.812 C-273.701 545.496 -268.192 561.291 -260 576 C-259.52 576.966 -259.041 577.931 -258.547 578.926 C-247.005 601.843 -226.322 620.762 -202 629 C-197.66 630.171 -193.482 630.695 -189 631 C-188.285 631.049 -187.571 631.098 -186.834 631.149 C-164.806 632.428 -141.085 628.81 -119.891 622.797 C-116.317 622.065 -113.021 621.764 -109.387 621.547 C-102.29 621.098 -95.512 619.974 -88.562 618.5 C-87.334 618.243 -86.106 617.986 -84.84 617.721 C-69.079 614.304 -53.664 609.644 -38.277 604.837 C-37.103 604.47 -35.929 604.104 -34.719 603.727 C-33.666 603.395 -32.614 603.063 -31.529 602.721 C-29 602 -29 602 -27 602 C-27.307 597.77 -27.622 593.541 -27.938 589.312 C-28.025 588.114 -28.112 586.916 -28.201 585.682 C-28.288 584.525 -28.375 583.368 -28.465 582.176 C-28.583 580.581 -28.583 580.581 -28.703 578.954 C-28.948 576.038 -28.948 576.038 -29.53 573.352 C-30.157 570.217 -30.063 567.188 -30 564 C-29.34 564 -28.68 564 -28 564 C-27.515 565.832 -27.037 567.665 -26.562 569.5 C-26.296 570.521 -26.029 571.542 -25.754 572.594 C-24.236 579.45 -23.859 586.011 -23.938 593 C-23.944 594.162 -23.944 594.162 -23.951 595.348 C-23.963 597.232 -23.981 599.116 -24 601 C-21.03 599.515 -21.03 599.515 -18 598 C-17.719 579.967 -17.719 579.967 -19 562 C-18.01 562 -17.02 562 -16 562 C-15.488 565.29 -14.993 568.582 -14.5 571.875 C-14.357 572.793 -14.214 573.711 -14.066 574.656 C-12.971 582.063 -11.911 589.692 -14 597 C-11.03 595.515 -11.03 595.515 -8 594 C-7.793 583.102 -7.843 572.729 -10 562 C-9.01 562 -8.02 562 -7 562 C-4.944 568.827 -3.689 575.462 -3.25 582.562 C-3.206 583.253 -3.161 583.943 -3.115 584.654 C-2.958 587.774 -3.002 590.007 -4 593 C-1.333 592.282 -1.333 592.282 1 590 C1.761 586.402 1.609 582.85 1.5 579.188 C1.478 577.641 1.478 577.641 1.455 576.064 C1.25 568.089 0.236 560.681 -2 553 C-0.68 553 0.64 553 2 553 C4.869 564.712 6.092 575.918 6 588 C7.65 587.34 9.3 586.68 11 586 C11.437 570.864 11.437 570.864 9 556 C8.658 554.335 8.322 552.669 8 551 C8.99 551 9.98 551 11 551 C13.296 556.581 14.597 561.572 15.188 567.562 C15.269 568.279 15.351 568.995 15.436 569.732 C15.917 574.179 16.076 578.528 16 583 C17.98 582.67 19.96 582.34 22 582 C22 582.66 22 583.32 22 584 C22.645 583.962 23.291 583.925 23.956 583.886 C30.738 583.492 37.52 583.104 44.302 582.718 C46.826 582.574 49.349 582.429 51.873 582.282 C78.787 580.716 78.787 580.716 90 581 C88.315 566.088 82.398 556.759 71 547 C60.195 538.939 46.84 535.446 34 532 C34.422 533.097 34.843 534.194 35.277 535.324 C35.831 536.779 36.384 538.233 36.938 539.688 C37.215 540.409 37.493 541.13 37.779 541.873 C41.681 552.169 42.474 561.677 38 572 C35.475 576.132 33.044 579.304 29 582 C28.01 582 27.02 582 26 582 C26.951 579.879 27.764 578.231 29.438 576.598 C34.316 571.609 35.313 565.45 35.5 558.688 C34.873 540.564 24.39 521.007 11.605 508.312 C-9.247 489.805 -40.249 490.356 -66.562 490.75 C-68.954 490.77 -71.345 490.788 -73.736 490.805 C-79.491 490.848 -85.246 490.914 -91 491 C-89.474 497.806 -87.908 503.901 -84.5 510 C-78.53 521.325 -77.537 531.44 -78 544 C-78.99 544.33 -79.98 544.66 -81 545 C-81.026 544.152 -81.052 543.304 -81.078 542.43 C-81.533 533.023 -82.723 523.553 -87 515 C-87.049 516.281 -87.098 517.563 -87.148 518.883 C-88.214 544.386 -88.214 544.386 -92 555 C-92.66 555 -93.32 555 -94 555 C-93.931 554.155 -93.861 553.309 -93.79 552.438 C-92.288 533.016 -91.307 513.048 -96 494 C-96.204 493.166 -96.408 492.331 -96.618 491.472 C-99.64 479.458 -103.544 468.119 -109 457 C-109.296 456.385 -109.592 455.77 -109.897 455.136 C-116.351 441.862 -124.665 429.036 -134.891 418.348 C-136 417 -136 417 -136 415 C-136.99 414.67 -137.98 414.34 -139 414 C-140.621 412.137 -140.621 412.137 -142.438 409.688 C-146.307 404.675 -150.569 400.298 -155.138 395.936 C-156.46 394.659 -157.734 393.333 -159 392 C-159 391.34 -159 390.68 -159 390 C-155.213 390.558 -153.581 392.123 -151 394.875 C-148.985 397.008 -147.128 398.907 -144.75 400.633 C-143.884 401.31 -143.884 401.31 -143 402 C-143 402.66 -143 403.32 -143 404 C-142.34 404 -141.68 404 -141 404 C-139.293 405.626 -137.623 407.291 -136 409 C-146.365 385.114 -146.365 385.114 -160 363 C-160.722 361.992 -161.444 360.984 -162.188 359.945 C-166.462 354.113 -170.967 348.625 -175.875 343.316 C-177.858 341.155 -179.742 338.936 -181.625 336.688 C-187.191 330.34 -192.807 326.558 -201.43 325.781 C-217.627 325.218 -231.983 331.477 -244.125 341.875 C-251.608 348.916 -257.321 357.498 -263 366 C-263.511 366.764 -264.021 367.528 -264.547 368.314 C-272.798 380.779 -280.116 393.737 -287 407 C-287.393 407.756 -287.785 408.512 -288.189 409.292 C-293.691 420.05 -298.188 431.21 -302.625 442.438 C-303.024 443.446 -303.024 443.446 -303.432 444.475 C-306.931 453.345 -310.178 462.284 -313.298 471.295 C-315.37 477.26 -317.533 483.185 -319.762 489.094 C-320.079 489.935 -320.396 490.776 -320.723 491.642 C-321.375 493.371 -322.028 495.1 -322.681 496.828 C-333.506 525.554 -343.19 554.595 -352 584 C-353.32 584 -354.64 584 -356 584 C-355.421 578.195 -354.27 572.948 -352.523 567.391 C-352.275 566.584 -352.027 565.777 -351.771 564.945 C-351.244 563.24 -350.715 561.536 -350.182 559.833 C-349.391 557.301 -348.611 554.766 -347.832 552.23 C-341.203 530.766 -333.388 509.723 -325.688 488.625 C-324.328 484.898 -322.969 481.171 -321.611 477.444 C-320.773 475.146 -319.935 472.849 -319.096 470.552 C-318.719 469.516 -318.341 468.48 -317.952 467.413 C-317.622 466.509 -317.292 465.606 -316.953 464.675 C-315.927 461.796 -314.957 458.902 -314 456 C-314.837 455.974 -315.673 455.948 -316.535 455.922 C-336.591 454.945 -352.51 448.797 -366.59 434.371 C-373.174 427.026 -375.301 419.179 -375.145 409.535 C-374.54 398.936 -369.56 389.283 -362.062 381.938 C-358.88 378.705 -358.88 378.705 -357.719 374.496 C-357.955 372.693 -358.243 370.897 -358.574 369.109 C-360.527 354.848 -354.52 340.66 -347.332 328.73 C-346.673 327.874 -346.673 327.874 -346 327 C-345.34 327 -344.68 327 -344 327 C-343.894 326.426 -343.789 325.853 -343.68 325.262 C-341.304 317.357 -333.677 311.795 -327.453 306.945 C-325.042 305.132 -325.042 305.132 -323.359 303.242 C-322 302 -322 302 -319 302 C-318.67 301.01 -318.34 300.02 -318 299 C-315.927 297.378 -313.888 295.93 -311.688 294.5 C-311.035 294.069 -310.383 293.639 -309.711 293.195 C-303.271 289.024 -296.569 285.348 -289.792 281.756 C-287.507 280.537 -285.25 279.281 -283 278 C-281.986 277.426 -280.971 276.853 -279.926 276.262 C-276.881 272.686 -277.554 269.209 -277.812 264.688 C-277.863 262.878 -277.906 261.068 -277.941 259.258 C-277.96 258.365 -277.978 257.472 -277.997 256.552 C-278.021 238.133 -271.99 220.65 -259.277 207.281 C-258.526 206.528 -257.774 205.776 -257 205 C-256.362 204.35 -255.724 203.701 -255.066 203.031 C-249.097 197.372 -241.781 193.594 -234 191 C-230.11 183.323 -229.333 174.152 -228.125 165.75 C-222.55 127.399 -210.248 75.693 -179 49 C-178.34 49 -177.68 49 -177 49 C-176.66 48.134 -176.66 48.134 -176.312 47.25 C-174.6 44.315 -172.766 43.017 -170 41 C-169.332 40.484 -168.665 39.969 -167.977 39.438 C-147.792 24.417 -123.403 19.911 -98.75 19.75 C-97.661 19.741 -96.571 19.731 -95.449 19.721 C-88.431 19.75 -81.856 20.499 -75 22 C-74.67 23.32 -74.34 24.64 -74 26 C-67.361 27.748 -63.816 25.945 -58 22.625 C-57.171 22.17 -56.343 21.714 -55.489 21.245 C-52.978 19.854 -50.486 18.434 -48 17 C-47.275 16.583 -46.55 16.165 -45.804 15.735 C-38.366 11.42 -31.076 6.89 -24 2 C-23.01 2.66 -22.02 3.32 -21 4 C-25.271 14.277 -41.605 19.978 -51 25 C-52.088 25.593 -53.176 26.186 -54.297 26.797 C-57 28 -57 28 -61 28 C-61 28.66 -61 29.32 -61 30 C-53.982 29.709 -49.129 26.5 -43.25 22.875 C-42.264 22.28 -41.279 21.684 -40.263 21.071 C-34.723 17.713 -29.237 14.275 -23.789 10.77 C-19.905 8.305 -15.996 5.885 -12.062 3.5 C-11.327 3.041 -10.592 2.583 -9.835 2.111 C-9.138 1.693 -8.441 1.274 -7.723 0.844 C-7.101 0.464 -6.48 0.084 -5.84 -0.307 C-3.528 -1.178 -2.294 -0.799 0 0 Z M-170 47 C-170.815 47.625 -171.629 48.25 -172.469 48.895 C-199.436 71.326 -217.359 117.038 -221 151 C-218.907 148.372 -217.407 145.94 -216.16 142.824 C-215.826 142.008 -215.492 141.192 -215.147 140.351 C-214.61 139.033 -214.61 139.033 -214.062 137.688 C-195.797 94.128 -168.882 51.741 -123.712 33.006 C-115.384 29.916 -106.654 27.951 -98 26 C-98 25.67 -98 25.34 -98 25 C-123.068 23.896 -150.8 30.059 -170 47 Z M-35 60 C-34.567 61.887 -34.567 61.887 -34.125 63.812 C-29.902 82.954 -28.504 99.951 -39.145 117.375 C-40.79 119.704 -42.387 121.484 -44.5 123.375 C-45.325 124.241 -46.15 125.108 -47 126 C-46.678 129.099 -46.678 129.099 -46 132 C-48.716 135.233 -52.01 137.566 -55.438 140 C-58.27 142.017 -61.019 144.016 -63.676 146.262 C-66 148 -66 148 -68.75 147.812 C-71 147 -71 147 -72 146 C-72.294 142.278 -72.148 141.222 -70 138 C-73.63 138.33 -77.26 138.66 -81 139 C-81 138.34 -81 137.68 -81 137 C-80.368 136.865 -79.737 136.729 -79.086 136.59 C-64.417 133.06 -51.543 126.048 -42.625 113.625 C-41.713 112.105 -40.837 110.562 -40 109 C-39.587 108.261 -39.175 107.523 -38.75 106.762 C-35.785 100.307 -35.617 93.923 -35.562 86.938 C-35.552 86.016 -35.542 85.094 -35.532 84.144 C-35.614 77.668 -36.834 72.093 -39 66 C-39.33 66 -39.66 66 -40 66 C-40.147 67.415 -40.147 67.415 -40.297 68.859 C-42.859 90.857 -52.26 111.996 -69.125 126.812 C-77.082 132.941 -86.332 137.957 -96.148 140.168 C-100.135 141.318 -101.855 142.508 -104.066 146.027 C-104.928 147.649 -105.759 149.287 -106.562 150.938 C-107.481 152.663 -108.406 154.386 -109.336 156.105 C-109.783 156.944 -110.23 157.782 -110.69 158.646 C-115.413 167.134 -122.105 176.552 -131 181 C-130.67 182.98 -130.34 184.96 -130 187 C-130.66 186.587 -131.32 186.175 -132 185.75 C-132.99 185.173 -133.98 184.595 -135 184 C-135.57 183.652 -136.14 183.304 -136.727 182.945 C-142.804 179.519 -149.335 178.093 -156.27 179.441 C-163.686 181.923 -167.666 185.937 -171.25 192.75 C-176.719 204.489 -178.036 217.503 -174 230 C-170.44 238.605 -165.108 245.995 -156.578 250.191 C-148.785 252.636 -141.331 251.329 -134.156 247.777 C-131.535 246.832 -130.556 246.935 -128 248 C-120.071 253.305 -115.772 260.175 -113.395 269.332 C-111.69 280.857 -112.936 291.136 -117 302 C-117.6 303.713 -118.196 305.428 -118.789 307.145 C-120.276 311.446 -121.784 315.74 -123.307 320.03 C-125 324.844 -125.793 328.907 -125 334 C-122.976 336.756 -122.976 336.756 -121.371 338.371 C-114.297 346.775 -113.655 360.38 -114.062 370.812 C-114.839 379.191 -117.365 387.05 -120 395 C-120.383 396.155 -120.766 397.31 -121.16 398.5 C-121.437 399.325 -121.714 400.15 -122 401 C-113.949 393.815 -111.48 380.638 -110.832 370.321 C-110.048 352.43 -110.048 352.43 -115.266 335.559 C-117.246 331.655 -118.258 329.246 -117.352 324.863 C-116.273 321.852 -115.101 318.91 -113.831 315.974 C-112.349 312.452 -111.084 308.852 -109.812 305.25 C-109.556 304.523 -109.299 303.797 -109.035 303.048 C-103.608 287.417 -103.275 272.911 -110.602 257.668 C-112.009 255.07 -113.457 252.52 -115 250 C-109.819 251.891 -108.612 255.997 -106.395 260.734 C-99.923 275.89 -100.315 291.606 -106 307 C-107.521 310.735 -109.086 314.453 -110.801 318.104 C-112.906 322.799 -113.27 325.843 -112 331 C-111.257 332.68 -110.513 334.361 -109.766 336.039 C-104.553 349.391 -106.171 367.055 -108 381 C-107.01 381.33 -106.02 381.66 -105 382 C-103.711 383.492 -102.49 385.044 -101.312 386.625 C-94.142 395.841 -94.142 395.841 -84 401 C-78.365 401.447 -74.851 401.197 -70 398 C-67.141 395.219 -66.092 393.745 -65.602 389.758 C-64.956 385.726 -63.593 382.669 -61.688 379.125 C-60.955 377.712 -60.224 376.298 -59.496 374.883 C-59.096 374.108 -58.697 373.334 -58.285 372.536 C-55.852 367.733 -53.563 362.861 -51.25 358 C-45.778 346.543 -40.137 335.177 -34.427 323.837 C-31.942 318.896 -29.471 313.948 -27 309 C-37.364 308.195 -47.606 307.877 -58 308 C-58 307.34 -58 306.68 -58 306 C-56.846 306.004 -56.846 306.004 -55.668 306.009 C-27.553 306.068 -0.443 304.674 27 298 C27.863 294.066 27.935 290.774 27.688 286.75 C27.694 281.141 28.325 277.637 31.773 273.184 C36.637 268.414 42.341 264.751 48 261 C58.777 253.668 67.994 246.286 71 233 C74.14 204.962 65.769 174.543 60.411 147.109 C60.024 145.125 59.642 143.14 59.26 141.155 C58.629 137.912 57.977 134.674 57.312 131.438 C57.135 130.529 56.957 129.62 56.774 128.684 C55.741 123.861 54.789 120.395 51 117 C44.054 112.811 36.355 110.091 28.812 107.188 C4.126 97.468 -16.508 84.823 -32 62.812 C-32.99 61.42 -32.99 61.42 -34 60 C-34.33 60 -34.66 60 -35 60 Z M74 238 C71.109 246.503 73.236 252.117 76.379 260.117 C76.71 260.974 77.042 261.831 77.384 262.715 C78.438 265.437 79.5 268.156 80.562 270.875 C81.281 272.726 81.999 274.578 82.717 276.43 C84.472 280.955 86.234 285.478 88 290 C89.034 286.383 88.794 284.312 87.777 280.66 C87.489 279.606 87.2 278.552 86.903 277.467 C86.584 276.343 86.266 275.22 85.938 274.062 C85.618 272.913 85.299 271.763 84.97 270.578 C84.311 268.21 83.647 265.843 82.979 263.478 C82.058 260.205 81.158 256.928 80.266 253.648 C79.74 251.745 79.214 249.841 78.688 247.938 C78.446 247.046 78.204 246.155 77.955 245.237 C77.364 243.14 76.69 241.066 76 239 C75.34 238.67 74.68 238.34 74 238 Z M68 251 C66.286 252.959 64.616 254.959 63 257 C63.439 258.049 63.877 259.097 64.329 260.178 C65.969 264.098 67.607 268.02 69.244 271.941 C69.95 273.633 70.657 275.324 71.365 277.016 C72.387 279.458 73.406 281.901 74.426 284.344 C74.738 285.09 75.051 285.836 75.373 286.605 C81 300.108 81 300.108 81 304 C80.34 304 79.68 304 79 304 C78.703 303.241 78.407 302.482 78.101 301.699 C72.518 287.417 66.921 273.146 61 259 C57.559 260.312 54.865 261.666 52 264 C52.622 267.668 53.644 270.831 55.109 274.246 C55.532 275.243 55.955 276.239 56.391 277.266 C56.84 278.312 57.288 279.359 57.75 280.438 C61.461 289.206 64.979 297.969 68 307 C65 306 65 306 63.745 303.507 C63.338 302.415 62.931 301.324 62.512 300.199 C62.052 298.993 61.593 297.787 61.119 296.545 C60.641 295.259 60.164 293.974 59.688 292.688 C56.245 283.495 52.534 274.713 48 266 C44.7 267.98 41.4 269.96 38 272 C38.797 275.986 39.71 279.068 41.215 282.781 C41.654 283.871 42.093 284.96 42.545 286.082 C43.004 287.21 43.464 288.338 43.938 289.5 C44.393 290.628 44.849 291.756 45.318 292.918 C46.167 295.018 47.018 297.118 47.871 299.217 C48.922 301.808 49.964 304.403 51 307 C48 306 48 306 46.558 303.224 C46.071 302.015 45.584 300.805 45.082 299.559 C44.82 298.916 44.558 298.274 44.288 297.612 C43.452 295.558 42.632 293.498 41.812 291.438 C41.249 290.045 40.685 288.652 40.119 287.26 C38.734 283.844 37.364 280.424 36 277 C35.01 277 34.02 277 33 277 C27.838 287.324 31.89 297.469 35 308 C34.01 308 33.02 308 32 308 C31.505 305.03 31.505 305.03 31 302 C24.928 302.542 19.117 303.589 13.155 304.856 C8.483 305.759 3.928 306.143 -0.828 306.324 C-2.63 306.404 -2.63 306.404 -4.469 306.485 C-6.873 306.577 -9.278 306.633 -11.683 306.65 C-17.931 306.784 -17.931 306.784 -23.05 309.941 C-24.599 312.238 -25.825 314.494 -27 317 C-27.805 318.441 -28.617 319.88 -29.438 321.312 C-30.606 323.498 -31.046 324.561 -30.785 327.039 C-29.863 329.343 -28.835 330.402 -27 332.062 C-12.323 346.14 -1.31 364.238 10 381 C12.932 379.308 15.59 377.657 18.051 375.328 C18.585 374.828 19.119 374.328 19.67 373.812 C20.212 373.297 20.754 372.781 21.312 372.25 C22.391 371.233 23.47 370.218 24.551 369.203 C25.108 368.68 25.665 368.157 26.239 367.618 C28.071 365.935 29.943 364.308 31.828 362.684 C36.547 358.576 41 354.221 45.438 349.812 C46.252 349.019 47.066 348.226 47.904 347.408 C48.677 346.641 49.45 345.873 50.246 345.082 C50.944 344.393 51.642 343.705 52.361 342.995 C54.092 340.888 54.767 339.703 55 337 C53.848 334.454 52.674 332.195 51.25 329.812 C50.889 329.171 50.528 328.53 50.156 327.869 C47.948 323.943 47.948 323.943 44 322 C40.81 322.552 37.688 323.237 34.537 323.973 C31.065 324.737 28.378 325.313 25 324 C36.17 320.739 47.351 318.949 58.886 317.483 C75.339 315.65 75.339 315.65 88.312 306.332 C90.747 302.503 91.437 299.481 91 295 C89.68 296.32 88.36 297.64 87 299 C86.771 298.18 86.771 298.18 86.537 297.344 C84.236 289.383 81.379 281.64 78.5 273.875 C78.009 272.543 77.518 271.211 77.027 269.879 C74.705 263.578 72.367 257.284 70 251 C69.34 251 68.68 251 68 251 Z M89 291 C90 293 90 293 90 293 Z M151 335 C151.413 336.196 151.825 337.392 152.25 338.625 C155.563 348.61 158.386 358.594 160 369 C160.33 369 160.66 369 161 369 C161.56 357.495 160.795 345.158 153 336 C152.34 335.67 151.68 335.34 151 335 Z M57.012 341.977 C55.861 343.288 55.861 343.288 54.688 344.625 C53.485 345.988 53.485 345.988 52.258 347.379 C50.499 349.421 48.767 351.475 47.062 353.562 C45 356 45 356 43 357 C43 357.66 43 358.32 43 359 C42.424 359.246 41.848 359.492 41.254 359.746 C38.638 361.202 36.991 362.886 34.938 365.062 C29.964 370.159 24.56 374.564 19 379 C16.992 380.657 14.996 382.328 13 384 C16.102 389.831 19.856 394.866 24 400 C27.664 397.937 30.705 395.641 33.812 392.812 C34.998 391.739 34.998 391.739 36.207 390.645 C37.095 389.83 37.095 389.83 38 389 C38 389.99 38 390.98 38 392 C36.354 393.358 34.687 394.693 33 396 C33 396.66 33 397.32 33 398 C32.381 398.248 31.762 398.495 31.125 398.75 C28.649 400.206 28.049 401.378 27 404 C27.66 404.99 28.32 405.98 29 407 C32.309 405.591 34.115 403.962 36.375 401.188 C39.338 397.674 42.381 394.824 46 392 C43.545 396.575 40.351 400.073 36.812 403.812 C36.254 404.41 35.695 405.007 35.119 405.623 C33.75 407.086 32.376 408.543 31 410 C33.31 413.96 35.62 417.92 38 422 C48.568 416.716 57.07 406.086 65.352 397.778 C67.389 395.736 69.43 393.7 71.473 391.664 C72.782 390.354 74.09 389.045 75.398 387.734 C76.003 387.132 76.607 386.53 77.229 385.91 C81.96 381.242 81.96 381.242 86 376 C85.88 372.672 84.145 370.523 82.191 367.91 C81.614 367.131 81.036 366.352 80.44 365.55 C79.511 364.319 79.511 364.319 78.562 363.062 C77.619 361.801 77.619 361.801 76.657 360.514 C75.382 358.813 74.104 357.113 72.823 355.416 C71.179 353.237 69.547 351.05 67.918 348.859 C67.029 347.676 66.14 346.494 65.25 345.312 C64.082 343.76 64.082 343.76 62.891 342.176 C62.267 341.458 61.643 340.74 61 340 C58.769 339.765 58.769 339.765 57.012 341.977 Z M-283 533 C-283 536 -283 536 -283 536 Z M-291.643 566.571 C-296.32 571.334 -300.733 576.138 -304 582 C-301.669 582.419 -301.669 582.419 -299 582 C-295.895 579.002 -295.895 579.002 -295 575 C-294.319 574.794 -293.639 574.587 -292.938 574.375 C-286.26 571.249 -280.068 565.108 -276 559 C-276 557.68 -276 556.36 -276 555 C-280.525 555 -288.457 563.525 -291.643 566.571 Z M-273 564 C-274.65 565.65 -276.3 567.3 -278 569 C-277.67 569.66 -277.34 570.32 -277 571 C-275.35 569.68 -273.7 568.36 -272 567 C-272.33 566.01 -272.66 565.02 -273 564 Z M-279 571 C-281.97 574.3 -284.94 577.6 -288 581 C-287.01 581.33 -286.02 581.66 -285 582 C-282.69 579.03 -280.38 576.06 -278 573 C-278.33 572.34 -278.66 571.68 -279 571 Z M-269 577 C-269.66 578.32 -270.32 579.64 -271 581 C-269.68 580.67 -268.36 580.34 -267 580 C-267 579.01 -267 578.02 -267 577 C-267.66 577 -268.32 577 -269 577 Z " fill="#000000" transform="translate(479,92)"/>
<path d="M0 0 C0.66 0 1.32 0 2 0 C1.325 3.235 0.158 5.898 -1.336 8.84 C-9.354 24.914 -15.853 41.125 -22 58 C-22.746 60.02 -23.493 62.04 -24.242 64.059 C-25.839 68.368 -27.425 72.682 -29 77 C-30.32 77 -31.64 77 -33 77 C-32.465 70.756 -30.988 65.561 -28.688 59.75 C-28.34 58.859 -27.992 57.968 -27.634 57.05 C-8.476 8.476 -8.476 8.476 0 0 Z " fill="#000000" transform="translate(617,158)"/>
<path d="M0 0 C2.312 0.188 2.312 0.188 4 1 C2.521 4.388 0.592 6.695 -1.938 9.375 C-7.12 15.037 -11.827 20.989 -16.507 27.065 C-18.041 29.053 -19.586 31.03 -21.133 33.008 C-33.028 48.295 -45.582 64.458 -54 82 C-55.65 81.67 -57.3 81.34 -59 81 C-58.44 76.323 -56.369 72.808 -53.938 68.875 C-53.532 68.211 -53.126 67.547 -52.708 66.864 C-47.218 57.985 -40.892 49.785 -34.416 41.613 C-31.293 37.669 -28.234 33.682 -25.202 29.667 C-20.455 23.391 -15.623 17.225 -10.5 11.25 C-10.02 10.69 -9.54 10.13 -9.045 9.553 C-6.16 6.23 -3.254 2.966 0 0 Z " fill="#000000" transform="translate(645,167)"/>
<path d="M0 0 C0 1.32 0 2.64 0 4 C-2.069 5.601 -4.005 6.883 -6.25 8.188 C-7.549 8.982 -8.846 9.78 -10.141 10.582 C-10.794 10.985 -11.446 11.388 -12.119 11.803 C-16.968 14.889 -21.464 18.479 -26 22 C-26.819 22.63 -26.819 22.63 -27.655 23.273 C-41.92 34.246 -56.261 45.781 -68.695 58.828 C-69.836 59.903 -69.836 59.903 -71 61 C-73.312 60.812 -73.312 60.812 -75 60 C-74.739 54.467 -71.331 51.798 -67.562 48.188 C-66.612 47.258 -66.612 47.258 -65.642 46.31 C-60.685 41.523 -55.51 37.14 -50 33 C-48.582 31.898 -47.165 30.794 -45.75 29.688 C-45.011 29.116 -44.273 28.545 -43.512 27.957 C-41.651 26.507 -39.801 25.044 -37.957 23.574 C-31.211 18.2 -24.359 13 -17.375 7.938 C-16.605 7.377 -15.835 6.817 -15.041 6.24 C-14.314 5.716 -13.586 5.192 -12.836 4.652 C-12.192 4.188 -11.548 3.724 -10.884 3.246 C-7.095 0.74 -4.591 -0.255 0 0 Z " fill="#000000" transform="translate(666,193)"/>
<path d="M0 0 C1.32 0.33 2.64 0.66 4 1 C4.046 10.623 4.082 20.247 4.104 29.87 C4.114 34.339 4.128 38.808 4.151 43.278 C4.173 47.596 4.185 51.914 4.19 56.232 C4.193 57.875 4.201 59.517 4.211 61.159 C4.263 69.333 4.29 77.073 2 85 C0.062 85.562 0.062 85.562 -2 86 C-2.33 85.67 -2.66 85.34 -3 85 C-2.909 83.213 -2.751 81.428 -2.566 79.648 C-2.012 73.617 -1.886 67.681 -1.938 61.629 C-1.943 60.064 -1.943 60.064 -1.949 58.468 C-1.965 54.075 -1.993 49.681 -2.021 45.287 C-2.086 33.856 -2.084 22.449 -1.562 11.027 C-1.504 9.698 -1.504 9.698 -1.444 8.342 C-1.128 2.256 -1.128 2.256 0 0 Z " fill="#000000" transform="translate(177,196)"/>
<path d="M0 0 C7.378 0.118 17.75 3.75 23 9 C23.25 11.875 23.25 11.875 23 15 C21.484 16.695 21.484 16.695 20 18 C11.822 15.603 4.533 11.911 -3 8 C-2.25 2.25 -2.25 2.25 0 0 Z " fill="#000000" transform="translate(502,208)"/>
<path d="M0 0 C1.32 0 2.64 0 4 0 C31.488 58.126 31.488 58.126 31 83 C28.525 83.495 28.525 83.495 26 84 C25.732 82.774 25.464 81.548 25.188 80.285 C20.275 58.426 13.02 37.501 4.949 16.635 C4.695 15.973 4.441 15.311 4.179 14.628 C3.486 12.824 2.787 11.023 2.088 9.222 C1.046 6.135 0.434 3.223 0 0 Z " fill="#000000" transform="translate(142,209)"/>
<path d="M0 0 C0.66 0 1.32 0 2 0 C2.231 0.533 2.461 1.065 2.699 1.614 C11.816 22.546 22.394 42.439 38.258 59.117 C41.204 62.302 42 63.547 42 68 C38.749 67.699 37.288 67.275 34.895 64.988 C30.219 58.979 30.219 58.979 28 56 C27.386 55.184 27.386 55.184 26.759 54.351 C14.647 38.161 3.996 20.792 -1 1 C-0.67 0.67 -0.34 0.34 0 0 Z " fill="#000000" transform="translate(124,232)"/>
<path d="M0 0 C-1.321 2.758 -2.803 5.272 -4.5 7.812 C-8.141 13.613 -9.602 19.136 -9 26 C-7.039 33.062 -3.94 36.544 1.562 41.25 C2.923 42.437 4.278 43.63 5.629 44.828 C6.228 45.343 6.827 45.857 7.444 46.388 C10.337 49.385 11.303 52.262 11.375 56.375 C11.235 62.062 8.828 65.117 4.938 69.125 C-1.475 73.218 -8.373 75.678 -16 75 C-16.33 74.01 -16.66 73.02 -17 72 C-16.227 71.841 -15.453 71.683 -14.656 71.52 C-6.824 69.765 -0.314 67.816 5.062 61.625 C6.363 57.982 5.996 55.717 5 52 C2.375 47.799 -1.379 44.892 -5.102 41.695 C-9.793 37.506 -12.633 33.291 -13.336 26.984 C-13.465 16.293 -10.708 9.929 -4.465 1.434 C-3 0 -3 0 0 0 Z " fill="#000000" transform="translate(493,236)"/>
<path d="M0 0 C3.125 0.438 3.125 0.438 5.438 2.75 C8.772 8.061 8.652 13.332 8.125 19.438 C6.953 21.986 6.062 23.5 4.125 25.438 C0.875 25.812 0.875 25.812 -2.875 25.438 C-6.57 22.465 -8.556 20.184 -9.113 15.387 C-9.295 9.843 -8.539 6.856 -4.875 2.438 C-2.875 0.438 -2.875 0.438 0 0 Z " fill="#000000" transform="translate(516.875,242.5625)"/>
<path d="M0 0 C3.625 0.438 3.625 0.438 5.938 2.312 C9.119 8.205 10.448 13.849 8.5 20.375 C7.156 23.71 6.042 25.93 2.625 27.438 C0.188 28 0.188 28 -2.375 27.438 C-7.337 22.362 -8.669 18.661 -8.602 11.793 C-8.059 6.152 -6.065 0.786 0 0 Z " fill="#000000" transform="translate(424.375,256.5625)"/>
<path d="M0 0 C0.99 0.33 1.98 0.66 3 1 C2.679 3.923 2.186 4.846 -0.117 6.754 C-1.027 7.351 -1.937 7.948 -2.875 8.562 C-22.893 22.65 -34.51 42.561 -38.805 66.425 C-39.845 72.589 -40.707 78.75 -41 85 C-42.32 85 -43.64 85 -45 85 C-42.665 55.02 -34.569 28.517 -11 8 C-3.753 2.151 -3.753 2.151 0 0 Z " fill="#000000" transform="translate(236,276)"/>
<path d="M0 0 C2.228 1.462 3.716 2.779 4.914 5.176 C4.984 6.716 4.999 8.259 4.977 9.801 C4.968 10.618 4.959 11.435 4.949 12.277 C4.938 12.904 4.926 13.53 4.914 14.176 C6.894 15.166 8.874 16.156 10.914 17.176 C10.914 17.836 10.914 18.496 10.914 19.176 C6.357 18.738 3.338 18.325 -0.086 15.176 C0.141 13.918 0.368 12.66 0.602 11.363 C1.081 8.109 1.081 8.109 -0.336 5.238 C-4.227 2.876 -7.636 2.811 -12.086 3.176 C-17.902 5.075 -21.164 7.682 -24.086 13.176 C-24.416 14.166 -24.746 15.156 -25.086 16.176 C-25.746 16.176 -26.406 16.176 -27.086 16.176 C-27.592 10.862 -26.47 8.273 -23.086 4.176 C-16.491 -0.804 -8.067 -3.188 0 0 Z " fill="#000000" transform="translate(341.0859375,293.82421875)"/>
<path d="M0 0 C2.062 0.438 2.062 0.438 4 1 C4 2.32 4 3.64 4 5 C2.68 5.33 1.36 5.66 0 6 C-0.382 4.344 -0.714 2.675 -1 1 C-0.67 0.67 -0.34 0.34 0 0 Z " fill="#000000" transform="translate(532,293)"/>
<path d="M0 0 C1.65 0.33 3.3 0.66 5 1 C4.67 2.32 4.34 3.64 4 5 C2.35 4.67 0.7 4.34 -1 4 C-0.67 2.68 -0.34 1.36 0 0 Z " fill="#000000" transform="translate(405,315)"/>
<path d="M0 0 C0.66 0.33 1.32 0.66 2 1 C0.801 4.597 -0.694 5.387 -3.953 7.145 C-7.325 8.554 -10.354 8.815 -14 9 C-14.66 8.67 -15.32 8.34 -16 8 C-15.67 7.01 -15.34 6.02 -15 5 C-13.145 4.375 -13.145 4.375 -10.812 4 C-6.781 3.249 -3.658 1.874 0 0 Z " fill="#000000" transform="translate(344,328)"/>
<path d="M0 0 C0.99 0.33 1.98 0.66 3 1 C2.522 5.306 0.208 7.27 -3 10 C-15.85 17.99 -32.951 18.611 -47.445 15.695 C-51.972 14.463 -55.827 12.836 -58.438 8.75 C-58.716 7.884 -58.716 7.884 -59 7 C-55.493 7 -53.739 8.203 -50.816 10.027 C-41.384 15.078 -25.927 12.371 -15.996 9.914 C-9.292 7.869 -4.656 5.238 0 0 Z " fill="#000000" transform="translate(506,331)"/>
<path d="M0 0 C-0.231 1.843 -0.231 1.843 -1 4 C-2.867 5.337 -2.867 5.337 -5.305 6.516 C-6.193 6.958 -7.081 7.4 -7.996 7.856 C-8.946 8.316 -9.896 8.776 -10.875 9.25 C-18.888 13.285 -25.956 17.432 -33 23 C-33.956 23.683 -34.913 24.366 -35.898 25.07 C-51.939 36.575 -65.524 51.057 -72 70 C-72.392 71.134 -72.784 72.269 -73.188 73.438 C-74.435 78.909 -75.215 84.446 -76 90 C-76.66 90 -77.32 90 -78 90 C-81.184 77.447 -74.73 63.691 -68.812 52.875 C-65.545 47.469 -61.626 42.966 -57.281 38.398 C-55.535 36.563 -53.933 34.74 -52.375 32.75 C-49.263 29.147 -45.897 25.756 -42 23 C-41.01 23 -40.02 23 -39 23 C-38.796 22.426 -38.593 21.853 -38.383 21.262 C-36.495 18.174 -33.893 16.661 -30.875 14.812 C-30.266 14.43 -29.657 14.048 -29.03 13.654 C-6.748 -0.178 -6.748 -0.178 0 0 Z " fill="#000000" transform="translate(185,362)"/>
<path d="M0 0 C0.99 0.33 1.98 0.66 3 1 C2.522 5.299 -0.037 7.037 -3 10 C-11.257 21.052 -15.44 31.129 -15 45 C-16.98 45.495 -16.98 45.495 -19 46 C-21.708 37.877 -18.897 29.706 -16 22 C-11.801 13.722 -6.453 6.642 0 0 Z " fill="#000000" transform="translate(115,461)"/>
<path d="M0 0 C0.99 0.495 0.99 0.495 2 1 C0.085 15.518 -5.337 28.044 -16.742 37.52 C-23.3 41.819 -30.67 42.599 -38.309 41.566 C-49.457 39.22 -57.657 33.1 -65.004 24.578 C-66 23 -66 23 -66 20 C-64.312 20.125 -64.312 20.125 -62 21 C-60.891 22.412 -59.782 23.825 -58.68 25.242 C-52.966 31.221 -44.846 35.517 -36.633 36.336 C-29.486 36.416 -23.832 36.394 -18 32 C-17.41 31.56 -16.819 31.121 -16.211 30.668 C-8.342 23.822 -4.053 12.667 -1.508 2.793 C-1 1 -1 1 0 0 Z " fill="#000000" transform="translate(429,474)"/>
<path d="M0 0 C-0.141 2.246 -0.141 2.246 -1 5 C-8.257 11.127 -17.683 15.336 -27 17 C-29.371 16.59 -29.371 16.59 -31 16 C-31 15.34 -31 14.68 -31 14 C-29.805 13.492 -28.61 12.984 -27.379 12.461 C-16.049 7.66 -16.049 7.66 -5.727 1.031 C-4 0 -4 0 0 0 Z " fill="#000000" transform="translate(421,515)"/>
<path d="M0 0 C0.99 0.33 1.98 0.66 3 1 C4.133 3.73 4.133 3.73 5.125 7.188 C5.458 8.315 5.79 9.443 6.133 10.605 C7.358 15.402 8.138 19.921 8.062 24.875 C8.053 25.656 8.044 26.437 8.035 27.242 C8.024 27.822 8.012 28.402 8 29 C6.68 29.33 5.36 29.66 4 30 C3.879 28.698 3.758 27.396 3.633 26.055 C3.464 24.328 3.295 22.602 3.125 20.875 C3.046 20.019 2.968 19.163 2.887 18.281 C2.416 13.571 1.636 9.473 0 5 C-0.125 2.125 -0.125 2.125 0 0 Z " fill="#000000" transform="translate(497,641)"/>
<path d="M0 0 C2.172 0.355 2.172 0.355 4 1 C2.405 4.818 -0.053 7.385 -2.875 10.375 C-6.372 14.081 -9.283 17.715 -12 22 C-13.32 21.67 -14.64 21.34 -16 21 C-13.911 15.02 -10.066 10.764 -6 6 C-5.433 5.335 -4.866 4.67 -4.281 3.984 C-2.75 2.312 -2.75 2.312 0 0 Z " fill="#000000" transform="translate(168,650)"/>
<path d="M0 0 C4.17 3.667 4.464 7.631 5 13 C5.755 31.49 5.755 31.49 4 35 C3.01 35 2.02 35 1 35 C1.035 33.078 1.035 33.078 1.07 31.117 C1.186 21.698 0.996 12.753 -0.66 3.457 C-0.772 2.646 -0.884 1.835 -1 1 C-0.67 0.67 -0.34 0.34 0 0 Z " fill="#000000" transform="translate(445,659)"/>
<path d="M0 0 C0.99 0 1.98 0 3 0 C7.606 23.633 7.606 23.633 4 34 C3.34 34 2.68 34 2 34 C2.023 33.054 2.046 32.108 2.07 31.133 C2.242 20.617 1.351 10.423 0 0 Z " fill="#000000" transform="translate(434,663)"/>
<path d="M0 0 C3.529 2.68 4.204 6.33 5.188 10.438 C5.362 11.145 5.536 11.852 5.716 12.58 C7.138 18.751 7.431 24.676 7 31 C6.01 31.33 5.02 31.66 4 32 C3.89 30.768 3.781 29.535 3.668 28.266 C2.857 19.652 1.926 11.394 -0.512 3.055 C-0.673 2.377 -0.834 1.699 -1 1 C-0.67 0.67 -0.34 0.34 0 0 Z " fill="#000000" transform="translate(422,668)"/>
</svg>
