<?xml version="1.0" encoding="UTF-8"?>
<!-- Generator: visioncortex VTracer 0.6.0 -->
<svg version="1.1" xmlns="http://www.w3.org/2000/svg" width="847" height="847">
<path d="M0 0 C5.946 2.904 10.208 7.05 12.414 13.406 C13.902 18.883 13.902 18.883 12.688 21.312 C11.368 21.312 10.048 21.312 8.688 21.312 C8.316 20.137 7.945 18.961 7.562 17.75 C5.487 12.203 2.064 8.064 -2.688 4.562 C-3.224 4.15 -3.76 3.737 -4.312 3.312 C-4.312 2.323 -4.312 1.332 -4.312 0.312 C-2.312 -0.688 -2.312 -0.688 0 0 Z " fill="#000000" transform="translate(269.3125,72.6875)"/>
<path d="M0 0 C5.375 0.629 7.179 2.907 10.484 6.945 C13.707 11.314 14.25 14.621 14 20 C12.68 20 11.36 20 10 20 C9.625 19.18 9.25 18.36 8.863 17.516 C8.352 16.438 7.84 15.36 7.312 14.25 C6.814 13.183 6.315 12.115 5.801 11.016 C3.898 7.83 2.015 6.116 -1 4 C-0.67 2.68 -0.34 1.36 0 0 Z " fill="#000000" transform="translate(253,77)"/>
<path d="M0 0 C0.835 0.371 0.835 0.371 1.688 0.75 C2.26 6.05 0.645 10.062 -1.223 14.914 C-2.722 18.815 -4.018 22.777 -5.312 26.75 C-7.75 26.375 -7.75 26.375 -10.312 25.75 C-12.541 21.294 -11.823 15.696 -10.594 11.008 C-6.293 -0.68 -6.293 -0.68 0 0 Z " fill="#000000" transform="translate(512.3125,84.25)"/>
<path d="M0 0 C3.625 0.375 3.625 0.375 7 1 C7.125 3.875 7.125 3.875 7 7 C6.34 7.66 5.68 8.32 5 9 C1.875 8.625 1.875 8.625 -1 8 C-1.625 5.125 -1.625 5.125 -2 2 C-1.34 1.34 -0.68 0.68 0 0 Z " fill="#000000" transform="translate(345,85)"/>
<path d="M0 0 C7.515 0 12.497 4.208 18 9 C24 15.483 24 15.483 24 20 C13.779 18.408 6.213 10.906 -1 4 C-0.67 2.68 -0.34 1.36 0 0 Z " fill="#000000" transform="translate(475,92)"/>
<path d="M0 0 C5.514 5.48 8.852 13.027 12.324 19.865 C13.255 21.698 14.197 23.526 15.141 25.354 C22.842 40.367 22.842 40.367 22 47 C19.672 52.723 16.863 58.059 13.062 62.938 C10.752 65.7 10.752 65.7 11.133 68.27 C12.232 71.732 13.913 74.682 15.812 77.75 C16.156 78.339 16.5 78.928 16.854 79.535 C18.756 82.8 18.756 82.8 21.891 84.669 C25.413 85.222 28.947 85.057 32.5 84.992 C34.21 84.975 35.919 84.958 37.629 84.941 C40.303 84.911 42.978 84.875 45.652 84.829 C61.794 84.561 73.594 86.925 88.25 94.062 C90.74 95.252 93.235 96.432 95.73 97.609 C96.351 97.903 96.972 98.196 97.611 98.499 C103.19 101.122 108.851 103.498 114.562 105.812 C121.397 108.583 128.136 111.493 134.801 114.648 C152.874 123.18 171.016 130.557 189.964 136.952 C213.645 145.002 213.645 145.002 220 156 C221.957 161.872 222 169.202 220.422 175.195 C215.58 184.66 205.671 189.845 196 193 C176.583 198.846 155.687 194.471 137 188 C137.519 188.955 138.039 189.91 138.574 190.895 C150 212.027 150 212.027 150 216 C150.767 215.841 151.534 215.683 152.324 215.52 C174.048 212.449 193.144 216.232 212 227 C213.021 227.58 214.042 228.16 215.094 228.758 C220.863 232.242 225.805 236.276 230.723 240.875 C232.661 242.684 234.638 244.383 236.688 246.062 C240.55 249.368 243.785 253.071 247 257 C248.127 258.371 248.127 258.371 249.277 259.77 C265.255 279.836 280.476 305.496 285.203 330.996 C287.57 343.911 287.57 343.911 295.928 353.561 C299.069 355.676 302.279 357.632 305.557 359.527 C308.788 361.475 311.765 363.694 314.779 365.958 C321.542 371.035 328.518 375.767 335.688 380.25 C336.418 380.716 337.148 381.182 337.9 381.663 C342.371 384.395 345.762 385.279 351 386 C352.693 387.3 354.355 388.641 356 390 C359.555 391.899 363.217 393.561 366.875 395.25 C368.968 396.237 371.061 397.227 373.152 398.219 C374.164 398.698 375.176 399.178 376.218 399.672 C400.517 411.273 422.724 426.981 445 442 C436.668 496.363 409.509 544.489 372.938 584.75 C372.472 585.264 372.007 585.778 371.527 586.308 C368.243 589.879 368.243 589.879 366 591 C364.087 590.035 364.087 590.035 361.73 588.492 C360.413 587.64 360.413 587.64 359.07 586.771 C358.118 586.145 357.167 585.52 356.188 584.875 C354.175 583.573 352.162 582.272 350.148 580.973 C349.122 580.308 348.096 579.643 347.038 578.958 C342.492 576.028 337.91 573.161 333.312 570.312 C332.462 569.785 331.611 569.257 330.734 568.713 C323.803 564.44 316.776 560.342 309.687 556.337 C307.776 555.251 305.886 554.129 304 553 C304 552.67 304 552.34 304 552 C305.013 551.758 306.026 551.515 307.07 551.266 C308.422 550.928 309.774 550.589 311.125 550.25 C311.79 550.093 312.455 549.935 313.141 549.773 C318.389 548.436 323.166 546.644 326.379 542.012 C328.064 536.553 326.357 531.167 323.812 526.25 C320.658 521.026 316.684 517.386 311 515 C305.104 514.251 299.979 514.526 295 518 C289.932 522.947 286.479 529.284 285.754 536.422 C285.751 538.283 285.863 540.144 286 542 C283.525 540.515 283.525 540.515 281 539 C285.551 515.328 295.062 491.367 306 470 C306.445 469.131 306.445 469.131 306.898 468.245 C315.33 451.812 324.202 435.664 334 420 C334.83 418.673 334.83 418.673 335.676 417.32 C339.094 411.865 342.535 406.425 346 401 C357.768 406.811 369.429 412.805 381 419 C381.729 419.389 382.458 419.778 383.209 420.178 C398.428 428.331 413.047 437.492 427.5 446.926 C428.147 447.347 428.794 447.769 429.46 448.203 C431.108 449.282 432.75 450.371 434.391 451.461 C436.683 452.813 438.399 453.566 441 454 C439.63 449.24 437 446.998 433.125 444.188 C432.251 443.536 432.251 443.536 431.358 442.871 C426.75 439.469 422.041 436.227 417.238 433.105 C414.942 431.612 412.676 430.099 410.418 428.551 C398.53 420.501 385.907 414.028 373.099 407.576 C370.378 406.192 367.681 404.775 364.992 403.332 C364.271 402.951 363.55 402.571 362.807 402.178 C360.978 401.212 359.155 400.236 357.332 399.258 C353.192 397.695 350.416 397.852 346 398 C343.993 397.713 341.988 397.398 340 397 C315.147 435.918 291.146 475.458 278.433 520.187 C275.088 531.749 270.835 539.526 260.438 545.961 C258 547 258 547 255.875 546.977 C253.095 545.529 252.3 543.816 251 541 C248.957 530.343 252.994 520.052 256.336 510.084 C256.978 508.07 257.511 506.055 258 504 C257.007 503.394 256.015 502.788 254.992 502.164 C242.396 494.421 230.29 486.379 219.261 476.49 C216.543 474.096 214.597 472.53 211 472 C208.956 472.277 208.956 472.277 206.867 472.926 C206.072 473.145 205.276 473.364 204.457 473.589 C203.605 473.828 202.753 474.067 201.875 474.312 C176.572 480.9 147.775 481.469 122 477 C121.867 477.799 121.734 478.598 121.598 479.422 C121 482 121 482 119.438 483.25 C61.902 500.953 -44.339 484.425 -96.188 457.16 C-101.157 454.429 -105.749 451.218 -110.328 447.883 C-114.292 444.86 -114.292 444.86 -119.004 444.197 C-120.058 444.513 -120.058 444.513 -121.133 444.836 C-121.931 445.072 -122.729 445.309 -123.551 445.552 C-124.4 445.824 -125.25 446.095 -126.125 446.375 C-127.004 446.644 -127.882 446.914 -128.787 447.192 C-135.839 449.436 -142.546 452.261 -149.174 455.546 C-152.332 457.066 -154.466 458.049 -158.004 457.723 C-158.992 457.365 -158.992 457.365 -160 457 C-160.09 457.623 -160.18 458.247 -160.272 458.889 C-161 461 -161 461 -162.591 462.033 C-163.27 462.28 -163.949 462.527 -164.648 462.781 C-165.402 463.064 -166.155 463.347 -166.931 463.639 C-168.141 464.065 -168.141 464.065 -169.375 464.5 C-170.19 464.8 -171.005 465.099 -171.844 465.408 C-173.474 466.006 -175.107 466.598 -176.742 467.184 C-178.683 467.886 -180.611 468.627 -182.535 469.375 C-183.493 469.746 -184.451 470.118 -185.438 470.5 C-186.261 470.82 -187.085 471.139 -187.934 471.469 C-190 472 -190 472 -193 471 C-193.688 468.938 -193.688 468.938 -194 467 C-193.426 466.773 -192.851 466.547 -192.259 466.313 C-189.63 465.274 -187.003 464.231 -184.375 463.188 C-183.471 462.831 -182.568 462.475 -181.637 462.107 C-176.977 460.254 -172.438 458.337 -168 456 C-167.755 449.868 -168.567 444.761 -170.188 438.863 C-170.409 438.021 -170.631 437.178 -170.86 436.31 C-171.564 433.642 -172.281 430.977 -173 428.312 C-173.718 425.637 -174.432 422.961 -175.14 420.283 C-175.579 418.622 -176.024 416.964 -176.475 415.307 C-178.462 407.82 -178.462 407.82 -178 404 C-176.187 402.188 -176.187 402.188 -174 401 C-173.01 401 -172.02 401 -171 401 C-169.448 407.156 -167.901 413.312 -166.355 419.469 C-165.829 421.563 -165.303 423.656 -164.775 425.749 C-164.016 428.761 -163.26 431.775 -162.504 434.789 C-162.268 435.721 -162.033 436.652 -161.79 437.612 C-160.678 442.059 -159.661 446.458 -159 451 C-155.063 450.362 -151.752 449.152 -148.113 447.531 C-147.01 447.043 -145.908 446.554 -144.771 446.051 C-143.63 445.539 -142.489 445.027 -141.312 444.5 C-140.159 443.988 -139.006 443.476 -137.818 442.949 C-130.996 440.53 -130.996 440.53 -125.812 436.062 C-123.77 428.363 -126.59 420.017 -128.672 412.551 C-130.968 404.04 -133.101 395.509 -135.078 386.918 C-135.463 385.253 -135.463 385.253 -135.855 383.554 C-136.382 381.27 -136.909 378.985 -137.436 376.701 C-144.631 345.635 -152.311 315.335 -165 286 C-172.695 287.182 -180.216 288.667 -187.75 290.625 C-188.65 290.854 -189.55 291.084 -190.477 291.32 C-192.652 291.876 -194.827 292.436 -197 293 C-196.82 293.718 -196.641 294.437 -196.456 295.177 C-193.637 306.451 -190.819 317.726 -188 329 C-190.64 328.67 -193.28 328.34 -196 328 C-198.321 321.248 -200.323 314.454 -202.188 307.562 C-202.46 306.571 -202.733 305.579 -203.014 304.557 C-203.271 303.611 -203.528 302.666 -203.793 301.691 C-204.025 300.837 -204.258 299.984 -204.497 299.104 C-205 297 -205 297 -205 295 C-205.747 295.182 -206.494 295.364 -207.263 295.551 C-210.633 296.37 -214.004 297.185 -217.375 298 C-218.551 298.286 -219.726 298.572 -220.938 298.867 C-222.059 299.138 -223.18 299.409 -224.336 299.688 C-225.373 299.939 -226.41 300.19 -227.478 300.449 C-230 301 -230 301 -232 301 C-231.67 297.7 -231.34 294.4 -231 291 C-215.638 286.786 -200.246 282.721 -184.747 279.035 C-183.256 278.68 -181.765 278.323 -180.274 277.963 C-178.174 277.458 -176.072 276.962 -173.969 276.469 C-172.166 276.042 -172.166 276.042 -170.326 275.607 C-167.109 275.02 -164.261 274.778 -161 275 C-159.461 276.434 -159.461 276.434 -158.375 278.438 C-157.977 279.162 -157.578 279.886 -157.168 280.633 C-156.783 281.414 -156.397 282.195 -156 283 C-155.604 283.802 -155.209 284.604 -154.801 285.43 C-152 291.424 -152 291.424 -152 295 C-148.163 294.325 -145.191 293.265 -142 291 C-140.031 287.387 -138.75 283.768 -137.418 279.891 C-129.696 257.566 -107.865 240.016 -87.363 229.996 C-85 229 -85 229 -83 229 C-83.436 227.956 -83.871 226.912 -84.32 225.836 C-90.539 210.615 -95.606 195.406 -96.969 178.949 C-97.852 168.311 -98.87 158.824 -105.98 150.41 C-110.543 146.769 -114.102 147.093 -119.73 147.703 C-124.495 148.136 -127.357 147.019 -131 144 C-140.784 134.285 -147.522 119.99 -154 107.938 C-154.361 107.272 -154.723 106.607 -155.095 105.922 C-158.462 99.524 -162.001 92.381 -161 85 C-157.433 77.465 -151.713 70.054 -146 64 C-145.34 64 -144.68 64 -144 64 C-143.505 62.515 -143.505 62.515 -143 61 C-142.34 61 -141.68 61 -141 61 C-141 60.34 -141 59.68 -141 59 C-129.934 48.683 -117.081 40.484 -104 33 C-103.396 32.649 -102.792 32.297 -102.169 31.935 C-77.963 17.972 -28.008 -8.984 0 0 Z M-11 8 C-11.485 8.969 -11.969 9.939 -12.469 10.938 C-18.646 23.292 -24.823 35.646 -31 48 C-26.417 47.461 -23.602 45.861 -20 43 C-18.307 40.535 -17.124 37.926 -15.938 35.188 C-15.602 34.444 -15.267 33.7 -14.922 32.933 C-8.779 20.669 -8.779 20.669 -8 8 C-8.99 8 -9.98 8 -11 8 Z M-38 24 C-39.282 25.39 -39.282 25.39 -40.355 27.312 C-40.806 28.047 -41.256 28.782 -41.719 29.539 C-42.204 30.351 -42.688 31.163 -43.188 32 C-44.247 33.73 -45.31 35.458 -46.375 37.184 C-46.95 38.115 -47.525 39.047 -48.117 40.007 C-52.212 46.516 -56.542 52.87 -60.831 59.252 C-61.489 60.232 -62.146 61.213 -62.824 62.223 C-63.413 63.097 -64.002 63.971 -64.608 64.871 C-66.014 66.933 -66.014 66.933 -67 69 C-51.987 63.419 -45.081 49.117 -37.812 35.812 C-37.214 34.735 -37.214 34.735 -36.604 33.635 C-34.493 29.908 -34.493 29.908 -34.405 25.776 C-34.601 25.19 -34.798 24.604 -35 24 C-35.99 24 -36.98 24 -38 24 Z M0 24 C-2.395 28.582 -4.508 33.028 -6 38 C-0.96 37.806 -0.96 37.806 2.938 34.938 C4.336 31.072 4.208 28.098 4 24 C2.68 24 1.36 24 0 24 Z M-5 49 C-3.606 53.435 -1.394 55.874 2 59 C2.983 57.565 3.962 56.127 4.938 54.688 C5.483 53.887 6.028 53.086 6.59 52.262 C8.138 49.974 8.138 49.974 9 47 C3.808 46.788 -0.127 47.409 -5 49 Z M-74 87 C-74.583 87.433 -75.166 87.865 -75.766 88.311 C-88.756 97.986 -100.737 108.372 -112 120 C-110.393 125.965 -107.304 130.916 -104.188 136.188 C-100.391 142.612 -97.045 148.897 -94.365 155.876 C-93.153 158.266 -93.153 158.266 -90.348 158.805 C-89.186 158.902 -89.186 158.902 -88 159 C-87.836 160.077 -87.836 160.077 -87.668 161.176 C-87.323 163.425 -86.974 165.674 -86.621 167.922 C-86.183 170.741 -85.787 173.563 -85.41 176.391 C-83.123 192.94 -78.364 208.568 -72 224 C-70.333 223.856 -68.667 223.71 -67 223.562 C-66.072 223.481 -65.144 223.4 -64.188 223.316 C-61.877 223.087 -59.573 222.801 -57.273 222.48 C-27.045 218.664 5.349 226.37 29.609 245.074 C30.398 245.71 31.187 246.345 32 247 C32.727 247.563 33.454 248.127 34.203 248.707 C43.752 256.488 50.893 267.777 52.375 280.125 C51.764 286.436 49.415 291.544 44.945 296.09 C33.659 305.326 20.044 306.201 5.972 304.798 C-4.845 303.381 -14.854 299.88 -25 296 C-23.755 299.358 -22.356 302.193 -20.305 305.125 C-19.762 305.903 -19.219 306.682 -18.66 307.483 C-18.071 308.314 -17.482 309.144 -16.875 310 C-16.259 310.874 -15.643 311.749 -15.008 312.649 C-8.528 321.779 -1.724 330.655 5.104 339.525 C8.507 343.968 11.852 348.453 15.196 352.94 C17.737 356.345 20.324 359.699 23 363 C26.44 361.487 29.254 359.392 32.219 357.121 C34.137 355.914 35.787 355.432 38 355 C38.66 356.32 39.32 357.64 40 359 C39.34 359.186 38.68 359.371 38 359.562 C33.687 361.629 30.485 364.765 27 368 C37.046 384.023 49.804 399.452 63.512 412.484 C65 414 65 414 67 417 C67.66 416.67 68.32 416.34 69 416 C68.361 414.866 67.721 413.731 67.062 412.562 C64.925 408.264 63.499 403.845 64 399 C65.078 396.75 65.078 396.75 67 395 C70.137 394.609 70.137 394.609 73.688 394.75 C74.867 394.786 76.046 394.822 77.262 394.859 C78.165 394.906 79.069 394.952 80 395 C79.67 395.66 79.34 396.32 79 397 C77.004 397.379 77.004 397.379 74.562 397.562 C71.154 397.806 71.154 397.806 68 399 C68.335 409.214 72.905 417.718 80 425 C82.669 427.117 84.707 427.112 88 426.875 C90.826 426.416 92.061 425.959 94.5 424.312 C96.465 421.283 96.312 419.573 96 416 C94.831 413.358 94.831 413.358 93.062 410.875 C92.088 409.425 92.088 409.425 91.094 407.945 C88.396 404.15 85.591 400.445 82.773 396.738 C71.748 382.025 61.608 366.667 52 351 C51.403 350.029 50.807 349.057 50.192 348.057 C46.592 342.187 42.994 336.316 39.449 330.412 C38.545 328.907 37.633 327.408 36.707 325.916 C34.672 322.556 34 321.051 34 317 C38.844 317.412 41.257 319.713 44.492 323.066 C45.001 323.579 45.51 324.091 46.035 324.619 C47.658 326.258 49.266 327.91 50.875 329.562 C51.948 330.647 53.023 331.731 54.098 332.814 C59.597 338.378 64.911 344.058 70 350 C71.799 352.013 73.618 354.006 75.438 356 C76.302 356.949 77.167 357.897 78.059 358.875 C78.699 359.576 79.34 360.277 80 361 C82.927 359.662 85.168 358.143 87.562 356 C91.234 352.729 94.075 350.799 99 350 C97.538 353.595 95.666 355.284 92.562 357.562 C89.844 359.574 87.326 361.54 85 364 C86.408 368.294 88.459 370.87 91.562 374.125 C94.966 377.749 98.21 381.422 101.312 385.312 C105.435 390.423 109.834 395.218 114.328 399.999 C117.271 403.131 120.152 406.289 122.938 409.562 C125.701 412.775 128.661 415.394 132 418 C132.062 416.763 132.124 415.525 132.188 414.25 C132.604 411.103 132.852 410.171 135 407.688 C138.847 405.523 142.769 404.217 147 403 C146.413 398.852 144.039 395.911 141.625 392.625 C141.18 392.012 140.735 391.399 140.277 390.768 C132.793 380.531 124.843 370.704 116.602 361.07 C114.257 358.323 112.001 355.512 109.75 352.688 C105.256 347.156 100.401 341.993 95.491 336.833 C80.113 320.658 80.113 320.658 79.812 316.25 C79.874 315.507 79.936 314.765 80 314 C85.416 314.37 88.159 316.423 91.875 320.125 C92.932 321.137 93.989 322.149 95.047 323.16 C95.554 323.651 96.061 324.143 96.584 324.649 C98.374 326.357 100.238 327.963 102.125 329.562 C107.002 333.781 111.485 338.402 116 343 C120.303 341.018 123.94 338.237 127.758 335.461 C130 334 130 334 132 334 C130.688 337.937 128.804 338.827 125.438 341.188 C124.426 341.903 123.414 342.618 122.371 343.355 C121.589 343.898 120.806 344.441 120 345 C121.396 349.232 123.361 351.743 126.438 354.938 C132.4 361.296 137.736 368.058 143 375 C143.536 375.707 144.073 376.413 144.625 377.141 C152.83 387.999 160.557 399.122 168.039 410.488 C168.81 411.656 168.81 411.656 169.596 412.847 C170.469 414.186 171.328 415.534 172.166 416.896 C174.127 420.042 174.706 420.902 178.375 422.125 C182.832 421.971 184.647 420.886 188 418 C190.766 413.482 190.687 409.146 190 404 C188.699 399.808 186.934 395.935 185 392 C184.566 391.104 184.131 390.208 183.684 389.285 C177.106 376.524 167.792 365.276 159 354 C157.916 352.606 156.833 351.211 155.75 349.816 C152.774 345.986 149.795 342.158 146.814 338.331 C145.037 336.048 143.261 333.764 141.484 331.48 C140.908 330.74 140.332 329.999 139.739 329.237 C138.582 327.749 137.426 326.261 136.271 324.773 C133.253 320.889 130.226 317.013 127.184 313.148 C126.556 312.349 125.929 311.55 125.283 310.727 C124.094 309.211 122.901 307.698 121.705 306.188 C112.216 294.076 112.216 294.076 111.688 289 C111.842 288.01 111.842 288.01 112 287 C115.731 287.173 117.557 288.276 120.078 290.871 C121.147 292.05 122.204 293.239 123.25 294.438 C123.791 295.036 124.333 295.635 124.891 296.252 C128.818 300.636 128.818 300.636 130 303 C130.66 303 131.32 303 132 303 C132.371 301.824 132.371 301.824 132.75 300.625 C134.222 297.533 134.951 297.307 138 296 C139.671 294.672 141.337 293.338 143 292 C145.975 290.041 148.486 288.651 152 288 C150.818 291.545 150.094 291.813 147 293.688 C141.856 296.965 137.454 300.851 133 305 C136.456 309.857 140.113 314.271 144.188 318.625 C148.727 323.481 152.89 328.538 156.951 333.799 C159.817 337.51 162.767 341.12 165.812 344.688 C172.639 352.793 178.783 361.425 185 370 C186.222 368.109 186.222 368.109 185.562 366.375 C184.367 361.325 184.361 357.444 186.438 352.75 C189.83 349.109 193.419 347.727 198 346 C194.779 340.054 191.353 334.306 187.688 328.625 C183.975 322.832 180.374 316.986 176.906 311.043 C176.557 310.445 176.207 309.848 175.847 309.232 C174.118 306.275 172.4 303.312 170.696 300.34 C164.94 289.164 164.94 289.164 155.257 282.095 C152.004 281.491 148.794 281.119 145.5 280.812 C143.165 280.524 140.832 280.226 138.5 279.918 C137.38 279.771 136.26 279.625 135.105 279.474 C124.055 277.787 111.787 273.533 104.062 265.125 C100.268 259.376 98.142 253.988 99 247 C101.067 239.268 105.23 235.03 112 231 C120.701 226.401 129.784 222.442 139 219 C132.658 200.556 120.91 184.228 109 169 C107.545 167.118 106.105 165.224 104.688 163.312 C103.858 162.224 103.858 162.224 103.012 161.113 C101.7 158.374 102.146 156.853 103 154 C108.616 154.223 111.357 157.87 115 161.688 C115.603 162.3 116.207 162.913 116.828 163.545 C119.595 166.381 121.949 168.92 124.086 172.285 C128.797 176.674 134.405 176.854 140.625 177.75 C141.846 177.945 143.066 178.139 144.324 178.34 C146.743 178.725 149.163 179.1 151.584 179.464 C154.678 179.949 157.74 180.518 160.812 181.121 C165.697 182.023 170.413 182.348 175.375 182.312 C176.189 182.308 177.004 182.304 177.843 182.3 C187.541 182.12 196.954 180.721 205 175 C207.006 171.992 207.337 171.123 207.438 167.688 C207.477 166.949 207.517 166.21 207.559 165.449 C206.739 161.857 204.615 159.485 202 157 C198.799 155.214 198.799 155.214 195.195 153.988 C194.544 153.745 193.893 153.501 193.222 153.25 C191.154 152.482 189.078 151.74 187 151 C185.652 150.506 184.304 150.01 182.956 149.513 C179.611 148.287 176.258 147.088 172.898 145.903 C170.839 145.175 168.783 144.44 166.727 143.705 C165.399 143.234 164.07 142.763 162.742 142.293 C161.565 141.876 160.388 141.458 159.175 141.028 C156.446 140.144 153.823 139.484 151 139 C150.745 139.905 150.745 139.905 150.484 140.828 C147.927 149.263 147.927 149.263 144 152 C142.68 152 141.36 152 140 152 C139.67 151.34 139.34 150.68 139 150 C141.475 149.505 141.475 149.505 144 149 C144.534 147.588 145.052 146.17 145.562 144.75 C145.998 143.567 145.998 143.567 146.441 142.359 C147.084 139.646 147.268 138.496 146 136 C143.243 134.196 143.243 134.196 139.938 132.75 C138.833 132.229 137.728 131.708 136.59 131.172 C135.735 130.785 134.881 130.398 134 130 C131.353 132.647 130.401 135.562 129 139 C128.34 139 127.68 139 127 139 C127.61 135.442 128.578 132.317 130 129 C123.507 124.548 116.613 121.582 109.346 118.637 C99.178 114.514 89.156 110.235 79.312 105.375 C66.799 99.307 55.966 97.627 42.148 97.211 C37.071 97.046 32.047 96.569 27 96 C26.34 96.99 25.68 97.98 25 99 C23.07 99.812 23.07 99.812 21 100 C6.623 90.799 -4.082 67.407 -10 52 C-30.773 52 -57.978 75.008 -74 87 Z M-122 63 C-127.898 69.485 -131.995 77.89 -136.309 85.498 C-137.388 87.397 -138.477 89.291 -139.566 91.184 C-140.261 92.401 -140.955 93.618 -141.648 94.836 C-142.269 95.924 -142.889 97.013 -143.529 98.134 C-145.25 101.431 -145.25 101.431 -146 105 C-144.148 107.753 -144.148 107.753 -142 110 C-137.291 103.252 -133.262 96.247 -129.375 89 C-128.536 87.457 -128.536 87.457 -127.68 85.883 C-121.024 75.064 -121.024 75.064 -119 63 C-119.99 63 -120.98 63 -122 63 Z M-104.585 72.434 C-105.138 73.095 -105.692 73.756 -106.262 74.438 C-106.876 75.171 -107.49 75.904 -108.123 76.66 C-111.106 80.379 -113.992 84.156 -116.812 88 C-117.414 88.818 -118.016 89.636 -118.636 90.479 C-130.24 104.563 -130.24 104.563 -135.688 120.625 C-135.081 122.989 -135.081 122.989 -134 125 C-129.892 123.631 -129.567 121.794 -127.562 118 C-124.458 112.317 -121.029 107.007 -117.25 101.75 C-116.23 100.324 -115.211 98.899 -114.191 97.473 C-113.673 96.748 -113.155 96.024 -112.622 95.278 C-109.771 91.274 -106.963 87.244 -104.188 83.188 C-103.654 82.429 -103.12 81.67 -102.569 80.888 C-101.845 79.82 -101.845 79.82 -101.105 78.73 C-100.674 78.106 -100.242 77.481 -99.798 76.837 C-98.787 74.509 -99.162 73.344 -100 71 C-102.985 70.665 -102.985 70.665 -104.585 72.434 Z M-86 78 C-87.765 79.77 -87.765 79.77 -89 82 C-88.67 82.99 -88.34 83.98 -88 85 C-86.35 83.68 -84.7 82.36 -83 81 C-83.33 80.01 -83.66 79.02 -84 78 C-84.66 78 -85.32 78 -86 78 Z M-120 130 C-121.393 131.761 -122.74 133.56 -124.062 135.375 C-124.796 136.373 -125.529 137.37 -126.285 138.398 C-128.183 140.759 -128.183 140.759 -128 143 C-122.561 143.218 -118.129 143.104 -113 141 C-114.45 136.892 -116.454 133.531 -119 130 C-119.33 130 -119.66 130 -120 130 Z M141 227 C139.986 227.263 138.971 227.526 137.926 227.797 C132.995 229.056 132.995 229.056 129 232 C129.143 238.312 132.62 241.538 136.812 245.875 C137.4 246.432 137.4 246.432 138 247 C134.36 247.347 132.224 247.103 128.875 245.562 C125.119 242.215 123.694 238.662 122 234 C120.059 234.93 118.122 235.869 116.188 236.812 C115.109 237.335 114.03 237.857 112.918 238.395 C110.398 239.781 108.737 240.75 107 243 C105.541 248.196 105.746 251.208 108 256.125 C112.688 264.454 118.107 267.46 127.133 270.238 C132.879 271.765 138.148 272.172 144.07 272.246 C145.872 272.279 147.674 272.312 149.477 272.346 C152.294 272.393 155.111 272.437 157.928 272.477 C182.544 272.838 182.544 272.838 187 275 C188.333 277.455 188.333 277.455 189 280 C188.67 280.66 188.34 281.32 188 282 C186.109 282.414 186.109 282.414 183.75 282.625 C182.942 282.698 182.134 282.772 181.301 282.848 C178.86 283.009 176.445 283.079 174 283 C175.458 286.934 177.307 290.438 179.422 294.059 C179.758 294.636 180.095 295.213 180.442 295.807 C181.54 297.686 182.645 299.562 183.75 301.438 C184.317 302.404 184.317 302.404 184.896 303.391 C189.912 311.933 195.064 320.364 200.438 328.688 C224.81 366.522 224.81 366.522 223 386 C221.771 390.016 219.779 392.425 216.375 394.938 C210.63 396.746 204.79 396.654 199 395 C199.157 395.848 199.315 396.696 199.477 397.57 C200.568 404.724 201.699 413.003 198.062 419.562 C194.318 424.464 189.335 427.301 183.336 428.559 C179.278 429.043 175.944 429.173 172 428 C171.162 429.622 170.33 431.248 169.5 432.875 C169.036 433.78 168.572 434.685 168.094 435.617 C166.861 437.866 166.861 437.866 167 440 C160.005 443.767 154.045 445.079 146.25 443 C130.125 436.302 115.628 419.687 104.508 406.73 C102.761 404.725 100.918 402.842 99 401 C99.986 403.495 100.989 405.974 102.07 408.43 C104.456 413.96 106.589 418.912 104.27 424.879 C102.211 428.904 100.17 431.294 96 433 C89.13 434.63 84.632 433.303 78 431 C77.34 436.28 76.68 441.56 76 447 C75.01 447 74.02 447 73 447 C73.33 441.39 73.66 435.78 74 430 C70.984 429.675 70.984 429.675 69.194 431.545 C68.536 432.251 67.877 432.956 67.199 433.684 C66.469 434.446 65.739 435.209 64.986 435.994 C63.461 437.615 61.94 439.24 60.424 440.869 C59.69 441.633 58.956 442.397 58.199 443.184 C57.538 443.891 56.876 444.598 56.194 445.326 C53.49 447.389 51.346 447.68 48 448 C48.426 439.484 55.198 433.621 60.68 427.664 C62.207 426.093 62.207 426.093 62 424 C62.66 424 63.32 424 64 424 C63.421 420.452 62.173 418.816 59.621 416.328 C58.948 415.664 58.274 415 57.58 414.316 C56.873 413.634 56.166 412.953 55.438 412.25 C54.727 411.553 54.016 410.855 53.283 410.137 C51.529 408.418 49.768 406.706 48 405 C44.717 406.248 41.693 407.62 38.688 409.438 C37.99 409.849 37.293 410.26 36.574 410.684 C35.795 411.335 35.795 411.335 35 412 C34.654 414.985 34.654 414.985 36.438 416.5 C37.211 417.243 37.211 417.243 38 418 C39.198 421.593 39.331 424.227 39 428 C37.188 430.438 37.188 430.438 35 432 C34.01 432 33.02 432 32 432 C31.89 431.408 31.781 430.817 31.668 430.207 C30.741 425.587 29.776 421.912 27 418 C22.389 419.317 18.697 420.905 15 424 C13.623 427.646 13.9 429.613 14.875 433.375 C18.736 441.202 26.487 445.925 34.391 448.914 C45.645 452.3 57.344 453.938 68.948 455.645 C76.391 456.796 83.723 458.416 91.076 460.026 C112.626 464.72 133.046 467.261 155.125 467.375 C156.05 467.383 156.975 467.391 157.928 467.4 C174.925 467.511 191.975 466.334 208.312 461.312 C214.079 459.57 218.947 458.644 225 459 C225.33 459.33 225.66 459.66 226 460 C225.925 461.092 225.85 462.184 225.773 463.309 C225.628 467.005 225.628 467.005 227.852 469.16 C228.767 469.788 229.682 470.416 230.625 471.062 C231.143 471.423 231.661 471.784 232.194 472.156 C234.109 473.47 236.052 474.735 238 476 C238.82 476.541 239.641 477.083 240.486 477.641 C257.583 490.786 257.583 490.786 277 498 C277.294 497.135 277.588 496.27 277.891 495.379 C289.871 461.313 309.134 428.96 330.228 399.799 C330.741 399.075 331.253 398.351 331.781 397.605 C332.236 396.978 332.69 396.35 333.158 395.704 C334.334 393.828 334.334 393.828 333 391 C331.061 389.536 331.061 389.536 328.562 388.125 C323.217 384.851 318.177 381.271 313.125 377.562 C305.065 371.704 305.065 371.704 296.812 366.125 C295.85 365.488 294.887 364.851 293.895 364.195 C290.226 362.681 287.86 363.41 284 364 C280.968 361.843 280.394 359.517 279.641 355.977 C279.416 354.967 279.192 353.957 278.96 352.916 C278.609 351.287 278.609 351.287 278.25 349.625 C269.813 312.981 253.931 280.439 228 253 C227.332 252.291 226.665 251.582 225.977 250.852 C221.361 246.09 216.438 241.808 211 238 C210.67 238 210.34 238 210 238 C209.939 238.915 209.879 239.83 209.816 240.773 C209.733 241.962 209.649 243.15 209.562 244.375 C209.441 246.15 209.441 246.15 209.316 247.961 C209 251 209 251 208 253 C207.01 253.33 206.02 253.66 205 254 C205.023 253.143 205.046 252.286 205.07 251.402 C205.6 240.822 205.6 240.822 201 231.75 C196.823 229.313 192.672 228.246 188 227 C188 230.63 188 234.26 188 238 C187.01 237.505 187.01 237.505 186 237 C185.367 234.496 185.367 234.496 184.875 231.438 C184.707 230.426 184.54 229.414 184.367 228.371 C184.246 227.589 184.125 226.806 184 226 C178.024 224.278 172.646 223.647 166.438 223.688 C165.566 223.691 164.694 223.694 163.795 223.698 C155.918 223.829 148.637 225.007 141 227 Z M-45 240 C-45.568 240.521 -46.137 241.042 -46.723 241.578 C-48.223 242.929 -48.223 242.929 -48 245 C-49.32 245 -50.64 245 -52 245 C-51.463 241.623 -50.889 238.303 -50 235 C-56.022 234.781 -61.188 235.445 -67 237 C-67.823 237.22 -68.646 237.44 -69.494 237.667 C-92.991 244.335 -112.496 260.03 -124.885 280.968 C-127.53 285.788 -129.656 290.841 -131.723 295.93 C-133 299 -133 299 -134 300 C-136.783 300.073 -139.553 299.996 -142.336 299.938 C-145.106 299.872 -145.106 299.872 -148 301 C-147.34 307.501 -145.431 313.463 -143.5 319.688 C-140.254 330.414 -137.325 341.187 -134.625 352.062 C-134.441 352.802 -134.258 353.541 -134.068 354.302 C-131.775 363.556 -129.562 372.828 -127.383 382.109 C-127.163 383.044 -126.943 383.978 -126.716 384.941 C-125.647 389.484 -124.585 394.028 -123.538 398.576 C-121.754 406.256 -119.884 413.895 -117.516 421.418 C-116.971 423.153 -116.971 423.153 -116.415 424.923 C-109.992 438.891 -88.951 448.413 -75.125 453.625 C-19.289 473.713 42.407 474.522 101 474 C98.184 471.184 94.951 470.897 91.176 470.09 C90.006 469.831 90.006 469.831 88.813 469.568 C87.161 469.204 85.507 468.843 83.853 468.486 C81.338 467.943 78.826 467.39 76.314 466.834 C74.706 466.481 73.097 466.129 71.488 465.777 C70.743 465.614 69.998 465.45 69.231 465.282 C63.211 463.986 57.244 462.842 51.062 462.938 C50.29 462.947 49.518 462.956 48.723 462.965 C48.154 462.976 47.586 462.988 47 463 C47.33 465.64 47.66 468.28 48 471 C47.01 470.67 46.02 470.34 45 470 C45 467.36 45 464.72 45 462 C44.452 461.855 43.903 461.71 43.339 461.56 C16.038 454.207 16.038 454.207 8 442 C4.959 436.443 4.363 431.214 4 425 C2.866 424.794 1.731 424.587 0.562 424.375 C-5.797 422.768 -11.288 419.515 -15 414.062 C-17.079 407.695 -17.027 402.506 -16 396 C-16.58 395.83 -17.16 395.66 -17.758 395.484 C-22.831 393.911 -26.678 392.057 -31 389 C-31.66 389 -32.32 389 -33 389 C-33.686 387.677 -34.348 386.341 -35 385 C-35.371 384.257 -35.743 383.515 -36.125 382.75 C-37.968 376.958 -37.531 372.537 -35.125 367.062 C-29.052 356.013 -17.334 349.6 -7 343 C-7.604 339.909 -8.563 337.921 -10.449 335.41 C-10.961 334.719 -11.472 334.028 -11.999 333.316 C-12.556 332.572 -13.113 331.829 -13.688 331.062 C-18.699 324.247 -23.554 317.35 -28.25 310.312 C-28.839 309.434 -29.428 308.555 -30.034 307.649 C-32.69 303.646 -35.256 299.635 -37.602 295.441 C-37.992 294.749 -38.382 294.057 -38.784 293.344 C-39.482 292.085 -40.159 290.813 -40.81 289.529 C-43.164 285.255 -45.611 283.916 -50.059 282.469 C-55.929 281.051 -60.369 282.335 -65.844 284.332 C-68.615 285.19 -71.122 285.221 -74 285 C-75.084 282.34 -75.085 281.226 -74.062 278.5 C-70.527 274.215 -65.413 272.045 -60 271 C-57.984 270.831 -55.96 270.734 -53.938 270.688 C-52.895 270.65 -51.852 270.613 -50.777 270.574 C-40.156 271.771 -30.831 277.548 -21.605 282.578 C-12.354 287.535 -3.28 291.179 7.125 292.75 C7.858 292.875 8.592 293 9.348 293.129 C17.788 294.479 26.228 295.097 34 291 C36.653 288.974 38.498 286.992 40 284 C40.45 277.14 37.337 271.265 33 266 C32.01 266 31.02 266 30 266 C29.423 266.908 28.845 267.815 28.25 268.75 C25.644 272.514 23.343 274.658 19 276 C10.931 277.009 4.895 276.326 -2 272 C-2.188 269.125 -2.188 269.125 -2 266 C1 264 1 264 3.5 264.25 C6 265 6 265 9 267 C14.525 267.585 14.525 267.585 19.438 265.5 C21.636 261.982 21.725 259.125 22 255 C13.64 248.967 5.627 244.695 -4 241 C-4.906 240.647 -5.812 240.294 -6.746 239.93 C-11.823 237.976 -11.823 237.976 -17 239 C-19.482 240.937 -19.482 240.937 -21.938 243.312 C-31.643 252.388 -31.643 252.388 -37 253 C-36.583 248.143 -34.2 245.549 -30.938 242.188 C-30.465 241.685 -29.993 241.183 -29.506 240.666 C-28.346 239.436 -27.174 238.217 -26 237 C-26.495 236.01 -26.495 236.01 -27 235 C-34.788 232.571 -39.357 234.527 -45 240 Z M194 351.25 C193.299 351.668 192.598 352.085 191.875 352.516 C189.645 354.281 188.828 355.271 188 358 C188.249 363.737 190.164 368.067 192.75 373.062 C193.085 373.744 193.42 374.425 193.766 375.127 C196.334 380.191 199.231 385.096 204 388.375 C206.516 389.161 208.38 389.336 211 389 C213.429 387.439 213.942 386.17 214.875 383.438 C215.299 371.778 207.306 357.768 200 349 C197.401 349 196.21 349.901 194 351.25 Z M-9.625 355.625 C-10.343 356.083 -11.06 356.541 -11.8 357.012 C-13.225 357.924 -14.648 358.838 -16.069 359.756 C-17.676 360.791 -19.294 361.81 -20.914 362.824 C-26.783 366.56 -26.783 366.56 -31 372 C-31.75 375.5 -31.75 375.5 -31 379 C-27.54 383.449 -23.992 385.522 -18.457 386.406 C-5.126 386.879 3.589 377.29 13 369 C12.081 364.315 9.536 361.422 6.625 357.75 C6.13 357.1 5.635 356.451 5.125 355.781 C3.825 354.126 2.418 352.555 1 351 C-3.319 351 -6.106 353.353 -9.625 355.625 Z M13.625 382.562 C7.872 386.844 2.152 390.185 -4.355 393.234 C-7.633 395.423 -8.614 397.349 -10 401 C-10.131 404.68 -9.947 406.922 -7.469 409.742 C-3.756 413.03 -0.976 414.758 4.062 415.375 C14.836 414.349 23.752 406.153 32.219 399.961 C32.899 399.464 33.579 398.967 34.279 398.455 C36.251 396.925 36.251 396.925 38 394 C37.34 394 36.68 394 36 394 C35.763 393.434 35.526 392.868 35.281 392.285 C33.719 389.499 31.803 387.647 29.5 385.438 C26.972 383.004 24.953 380.93 23 378 C18.883 378 16.771 380.171 13.625 382.562 Z M136 412 C136 418.928 139.278 423.133 144 428 C147.661 431.097 150.451 432.971 155.312 433.062 C158.502 431.802 159.595 431.14 161 428 C161.302 420.751 156.856 414.868 153 409 C151.025 406.603 151.025 406.603 147.25 406.625 C142.537 406.719 139.334 408.666 136 412 Z M350.312 466.25 C349.168 467.611 349.168 467.611 348 469 C347.496 469.588 346.992 470.176 346.473 470.781 C341.802 476.537 339.415 482.126 338.625 489.5 C339.38 496.55 341.372 503.308 347 508 C354.213 513.096 361.31 514.293 370 513 C378.064 510.623 382.937 505.492 388 499 C387.67 498.01 387.34 497.02 387 496 C386.381 497.052 385.763 498.104 385.125 499.188 C381.694 503.916 377.531 506.269 372 508 C366.439 508.807 361.081 508.967 356 506.312 C352.498 503.613 349.98 500.961 348 497 C347.276 489.694 347.109 483.543 351.648 477.52 C354.456 474.363 356.171 473.219 360.312 472.125 C365.038 471.965 367.012 472.448 371 475 C371.938 478.688 371.938 478.688 372 482 C371.01 482.33 370.02 482.66 369 483 C368.856 482.196 368.711 481.391 368.562 480.562 C368.259 478.079 368.259 478.079 367 477 C363.578 476.463 361.117 476.204 358.203 478.281 C355.387 481.231 353.596 483.877 353.25 488 C353.594 492.119 355.393 494.61 358.227 497.523 C361.988 500.655 365.66 501.805 370.438 502.5 C376.04 501.714 380.153 499.414 383.617 494.887 C384.83 492.958 385.955 491.024 387 489 C387.99 490.32 388.98 491.64 390 493 C391.721 484.376 390.32 477.765 385.934 470.148 C382.032 464.847 375.395 461.274 369 460 C361.665 459.281 355.891 461.58 350.312 466.25 Z M388 494 C389 496 389 496 389 496 Z M263 507 C258.794 516.363 255.153 526.622 256 537 C259.905 536.271 261.863 534.672 264.402 531.574 C266.544 528.123 267.998 524.539 269.438 520.75 C269.709 520.04 269.98 519.331 270.259 518.599 C271.834 514.357 271.834 514.357 271 510 C267.231 507.726 267.231 507.726 263 507 Z " fill="#000000" transform="translate(304,99)"/>
<path d="M0 0 C3.125 0.375 3.125 0.375 6 1 C6.33 2.98 6.66 4.96 7 7 C4.75 8.625 4.75 8.625 2 10 C-0.312 9.188 -0.312 9.188 -2 8 C-2.125 5.125 -2.125 5.125 -2 2 C-1.34 1.34 -0.68 0.68 0 0 Z " fill="#000000" transform="translate(417,111)"/>
<path d="M0 0 C0.902 0.001 1.803 0.001 2.732 0.002 C9.39 0.047 9.39 0.047 12.812 1.188 C12.483 2.838 12.152 4.487 11.812 6.188 C5.501 8.793 -0.431 9.489 -7.188 9.5 C-7.942 9.505 -8.696 9.51 -9.472 9.516 C-14.929 9.446 -14.929 9.446 -17.188 7.188 C-16.812 4.562 -16.812 4.562 -16.188 2.188 C-10.732 -0.094 -5.804 -0.08 0 0 Z " fill="#000000" transform="translate(486.1875,114.8125)"/>
<path d="M0 0 C5.133 -0.415 7.898 0.696 12.25 3.375 C13.286 4.001 14.323 4.628 15.391 5.273 C18 7 18 7 20 9 C20 10.32 20 11.64 20 13 C16.063 14.181 13.638 14.124 10 12.375 C6.225 10.262 3.029 8.105 0 5 C-0.375 2.188 -0.375 2.188 0 0 Z " fill="#000000" transform="translate(507,115)"/>
<path d="M0 0 C1.938 1.062 1.938 1.062 3 3 C2.935 6.635 2.806 9.033 0.438 11.875 C-2.994 13.459 -6.212 14.158 -10 14 C-13 12.562 -13 12.562 -15 11 C-14.848 8.343 -14.527 6.558 -12.668 4.59 C-8.246 0.899 -5.772 -0.471 0 0 Z " fill="#000000" transform="translate(383,116)"/>
<path d="M0 0 C0.99 0.99 1.98 1.98 3 3 C1.423 9.284 -0.413 15.45 -2.562 21.562 C-2.976 22.739 -3.39 23.916 -3.816 25.129 C-5 28 -5 28 -7 30 C-9.125 29.625 -9.125 29.625 -11 29 C-12.99 22.198 -10.298 15.444 -8 9 C-5.937 5.342 -3.827 1.914 0 0 Z " fill="#000000" transform="translate(503,121)"/>
<path d="M0 0 C2.875 -0.188 2.875 -0.188 6 0 C8 3 8 3 7.625 5.688 C7.419 6.451 7.212 7.214 7 8 C5.02 8.33 3.04 8.66 1 9 C-0.625 6.75 -0.625 6.75 -2 4 C-1.188 1.688 -1.188 1.688 0 0 Z " fill="#000000" transform="translate(605,124)"/>
<path d="M0 0 C2.562 0.188 2.562 0.188 4.562 2.188 C4.812 4.688 4.812 4.688 4.562 7.188 C2.562 9.188 2.562 9.188 0.062 9.438 C-2.438 9.188 -2.438 9.188 -4.438 7.188 C-3.733 0.287 -3.733 0.287 0 0 Z " fill="#000000" transform="translate(644.4375,137.8125)"/>
<path d="M0 0 C3.125 0.375 3.125 0.375 6 1 C6.625 3.875 6.625 3.875 7 7 C5 9 5 9 1.938 9.188 C-1 9 -1 9 -2 8 C-2.188 5.062 -2.188 5.062 -2 2 C-1.34 1.34 -0.68 0.68 0 0 Z " fill="#000000" transform="translate(691,181)"/>
<path d="M0 0 C2.5 0.25 2.5 0.25 4.5 2.25 C3.932 7.818 3.932 7.818 2.5 9.25 C0.062 9.438 0.062 9.438 -2.5 9.25 C-4.5 7.25 -4.5 7.25 -4.75 4.75 C-4.401 1.256 -3.494 0.349 0 0 Z " fill="#000000" transform="translate(720.5,214.75)"/>
<path d="M0 0 C1.65 0.33 3.3 0.66 5 1 C5.17 1.808 5.34 2.616 5.516 3.449 C7.232 11.471 7.232 11.471 12 18 C11.67 18.66 11.34 19.32 11 20 C8.812 20.375 8.812 20.375 6 20 C1.637 15.941 -0.387 11.941 -1 6 C-0.625 2.5 -0.625 2.5 0 0 Z " fill="#000000" transform="translate(265,217)"/>
<path d="M0 0 C2.474 0.896 2.474 0.896 3.924 2.775 C6.872 9.208 9.196 15.681 11.224 22.459 C11.82 24.419 12.419 26.379 13.021 28.338 C13.405 29.617 13.405 29.617 13.797 30.922 C14.304 32.873 14.304 32.873 15.474 33.896 C15.843 33.021 15.843 33.021 16.22 32.127 C17.364 29.424 18.513 26.723 19.661 24.021 C20.048 23.103 20.436 22.186 20.835 21.24 C23.492 15.004 26.372 8.923 29.474 2.896 C30.794 3.226 32.114 3.556 33.474 3.896 C34.631 7.306 34.304 9.403 33.286 12.826 C33.003 13.78 32.719 14.734 32.427 15.717 C32.113 16.725 31.798 17.733 31.474 18.771 C31.157 19.8 30.84 20.829 30.514 21.89 C27.704 30.726 24.161 38.829 19.339 46.764 C18.251 49.445 18.541 50.853 19.153 53.662 C19.434 54.996 19.434 54.996 19.72 56.357 C19.927 57.278 20.135 58.198 20.349 59.146 C20.648 60.55 20.648 60.55 20.954 61.982 C21.449 64.29 21.955 66.594 22.474 68.896 C23.134 68.896 23.794 68.896 24.474 68.896 C31.543 60.604 36.95 50.32 41.583 40.478 C41.931 39.746 42.279 39.014 42.638 38.26 C43.308 36.835 43.961 35.403 44.596 33.962 C45.517 32.002 45.517 32.002 47.474 28.896 C50.212 27.947 50.212 27.947 52.474 27.896 C55.274 36.869 47.233 48.717 43.099 56.646 C34.153 73.366 34.153 73.366 27.37 78.031 C24.568 80.352 24.492 80.78 23.884 84.677 C23.927 86.133 24.003 87.588 24.106 89.041 C24.137 89.811 24.168 90.58 24.199 91.373 C24.304 93.821 24.45 96.264 24.599 98.709 C24.677 100.372 24.753 102.035 24.825 103.699 C25.009 107.767 25.231 111.831 25.474 115.896 C30.735 110.311 35.566 104.948 39.161 98.146 C39.53 97.469 39.899 96.793 40.279 96.095 C44.645 87.938 48.438 79.52 51.099 70.646 C52.474 66.896 52.474 66.896 54.56 65.662 C55.191 65.409 55.823 65.157 56.474 64.896 C57.474 65.896 57.474 65.896 57.673 68.978 C57.462 73.12 56.587 76.684 55.286 80.584 C55.058 81.281 54.831 81.979 54.596 82.698 C49.418 98.283 42.491 113.232 28.599 122.896 C26.474 123.896 26.474 123.896 24.474 123.896 C24.373 124.616 24.273 125.335 24.17 126.077 C19.325 160.39 19.325 160.39 13.474 166.896 C10.974 167.334 10.974 167.334 8.474 166.896 C6.782 165.67 6.782 165.67 5.474 163.896 C5.478 161.752 5.478 161.752 6.036 159.084 C6.241 158.034 6.446 156.985 6.657 155.904 C6.783 155.291 6.91 154.678 7.04 154.046 C7.752 150.516 8.401 146.976 9.052 143.435 C9.412 141.472 9.779 139.511 10.152 137.551 C10.322 136.635 10.493 135.719 10.669 134.775 C10.824 133.956 10.979 133.137 11.138 132.293 C11.495 129.745 11.715 127.462 11.474 124.896 C8.757 122.772 8.757 122.772 5.474 120.896 C-1.542 114.907 -7.173 108.018 -12.589 100.584 C-13.149 99.819 -13.709 99.055 -14.286 98.267 C-17.107 94.299 -19.465 90.733 -20.526 85.896 C-20.031 84.906 -20.031 84.906 -19.526 83.896 C-15.747 84.086 -14.64 84.773 -12.019 87.599 C-11.134 88.773 -10.262 89.956 -9.401 91.146 C-8.438 92.421 -7.474 93.695 -6.507 94.967 C-6.016 95.618 -5.526 96.269 -5.02 96.94 C-2.66 100.031 -0.205 103.036 2.286 106.021 C2.717 106.553 3.149 107.084 3.593 107.632 C6.701 111.343 9.227 113.065 13.474 115.896 C12.979 100.551 12.979 100.551 12.474 84.896 C10.164 84.566 7.854 84.236 5.474 83.896 C-7.55 79.5 -15.933 67.143 -22.339 55.642 C-23.691 52.515 -23.56 51.09 -22.526 47.896 C-18.925 48.137 -17.749 48.651 -15.28 51.373 C-14.557 52.412 -13.834 53.451 -13.089 54.521 C-12.297 55.622 -11.504 56.723 -10.71 57.822 C-9.989 58.837 -9.269 59.851 -8.526 60.896 C-3.514 67.806 3.298 73.171 11.474 75.896 C10.894 72.278 10.224 68.683 9.536 65.084 C9.373 64.06 9.21 63.035 9.042 61.98 C8.451 59.025 7.864 56.573 6.474 53.896 C4.217 52.525 2.267 51.986 -0.304 51.421 C-6.235 50.02 -10.975 44.068 -14.386 39.295 C-15.866 36.869 -17.22 34.419 -18.526 31.896 C-19.166 30.782 -19.805 29.669 -20.464 28.521 C-21.596 25.725 -21.687 24.638 -20.526 21.896 C-19.206 21.566 -17.886 21.236 -16.526 20.896 C-15.462 22.249 -14.4 23.603 -13.339 24.959 C-12.372 26.19 -12.372 26.19 -11.386 27.447 C-9.849 29.471 -8.464 31.513 -7.089 33.646 C-4.368 37.564 -0.667 39.667 3.474 41.896 C1.198 32.192 -1.406 22.702 -4.683 13.282 C-7.161 5.86 -7.161 5.86 -5.526 1.896 C-2.526 -0.104 -2.526 -0.104 0 0 Z " fill="#000000" transform="translate(646.5263671875,227.103759765625)"/>
<path d="M0 0 C3.987 2.99 6.369 6.289 8 11 C8.3 14.935 8.221 18.499 5.656 21.652 C1.016 25.576 -1.992 26.401 -8 26 C-13.337 24.012 -16.453 21.093 -19 16 C-18.958 10.192 -18.308 4.9 -15 0 C-10.211 -3.231 -5.198 -1.63 0 0 Z M-8 7 C-8.66 7.66 -9.32 8.32 -10 9 C-9.71 12.307 -9.71 12.307 -8 15 C-6.334 15.041 -4.666 15.043 -3 15 C-2.34 13.35 -1.68 11.7 -1 10 C-2.249 8.417 -2.249 8.417 -4 7 C-5.32 7 -6.64 7 -8 7 Z " fill="#000000" transform="translate(114,271)"/>
<path d="M0 0 C2.97 0.495 2.97 0.495 6 1 C6.75 3.125 6.75 3.125 7 6 C5.221 9.558 4.189 11.575 0.375 12.938 C-2 13 -2 13 -4 12 C-4.333 7.755 -4.439 5.645 -2 2.062 C-1.34 1.382 -0.68 0.701 0 0 Z " fill="#000000" transform="translate(97,323)"/>
<path d="M0 0 C1.438 1.812 1.438 1.812 2 4 C1.125 6.25 1.125 6.25 0 8 C-2.875 8.188 -2.875 8.188 -6 8 C-8 5 -8 5 -7.75 2.375 C-7.502 1.591 -7.255 0.808 -7 0 C-4.255 -1.372 -2.879 -0.936 0 0 Z " fill="#000000" transform="translate(129,331)"/>
<path d="M0 0 C3.658 2.04 5.669 3.504 8 7 C8.335 11.159 8.407 13.922 6.938 17.812 C3.886 21.258 0.554 22.792 -4.059 23.168 C-8.181 22.958 -9.812 22.157 -13.062 19.438 C-15.213 15.622 -15.434 14.044 -14.578 9.891 C-13.387 5.997 -11.89 3.697 -8.688 1.188 C-5.424 -0.254 -3.537 -0.505 0 0 Z M-2 6 C-2 7.65 -2 9.3 -2 11 C-3.98 11.99 -3.98 11.99 -6 13 C-6 13.99 -6 14.98 -6 16 C-3.029 15.658 -3.029 15.658 0 15 C1.354 12.291 1.065 9.991 1 7 C0.01 6.67 -0.98 6.34 -2 6 Z " fill="#000000" transform="translate(740,367)"/>
<path d="M0 0 C0 0.99 0 1.98 0 3 C-2.043 4.457 -4.014 5.706 -6.188 6.938 C-9.558 8.887 -12.752 10.79 -15.738 13.316 C-16.485 13.872 -17.231 14.428 -18 15 C-18.99 14.67 -19.98 14.34 -21 14 C-20.138 8.935 -17.014 6.881 -13 4 C-8.763 1.389 -5.116 -0.639 0 0 Z " fill="#000000" transform="translate(472,402)"/>
<path d="M0 0 C2.64 0.33 5.28 0.66 8 1 C10.917 11.488 13.431 22.024 15.72 32.665 C16.257 35.158 16.804 37.649 17.352 40.141 C17.698 41.742 18.045 43.344 18.391 44.945 C18.634 46.05 18.634 46.05 18.883 47.177 C19.663 50.842 20.189 54.25 20 58 C17.353 59.461 16.106 60 13 60 C11.3 52.769 9.604 45.537 7.915 38.303 C7.13 34.944 6.344 31.585 5.554 28.228 C4.646 24.366 3.745 20.504 2.844 16.641 C2.559 15.436 2.275 14.232 1.982 12.991 C1.722 11.87 1.462 10.75 1.193 9.595 C0.962 8.609 0.731 7.623 0.494 6.607 C0 4 0 4 0 0 Z " fill="#000000" transform="translate(110,435)"/>
<path d="M0 0 C-0.491 4.202 -2.75 6.006 -5.812 8.75 C-6.685 9.549 -7.558 10.348 -8.457 11.172 C-11 13 -11 13 -15 13 C-14.484 8.971 -12.583 7.389 -9.562 4.812 C-8.759 4.118 -7.956 3.423 -7.129 2.707 C-4.403 0.521 -3.543 0 0 0 Z " fill="#000000" transform="translate(452,443)"/>
<path d="M0 0 C-0.681 0.66 -1.361 1.32 -2.062 2 C-5.051 4.955 -7.694 8.173 -10.352 11.426 C-12 13 -12 13 -15 13 C-14.506 8.649 -13.216 6.738 -10.062 3.75 C-9.352 3.064 -8.642 2.378 -7.91 1.672 C-4.893 -0.969 -3.757 -1.127 0 0 Z " fill="#000000" transform="translate(419,461)"/>
<path d="M0 0 C3.044 0.101 3.992 0.991 6.125 3.188 C9.667 8.501 10.373 12.659 9.48 18.875 C8.836 21.723 7.877 23.762 6 26 C5.01 26 4.02 26 3 26 C3.107 25.131 3.214 24.262 3.324 23.367 C4.38 14.747 4.38 14.747 1 7 C0.443 6.051 -0.114 5.103 -0.688 4.125 C-1.121 3.424 -1.554 2.723 -2 2 C-1.34 1.34 -0.68 0.68 0 0 Z " fill="#000000" transform="translate(679,460)"/>
<path d="M0 0 C0.701 0.248 1.402 0.495 2.125 0.75 C-2.208 5.083 -6.542 9.417 -10.875 13.75 C-11.865 13.42 -12.855 13.09 -13.875 12.75 C-13.103 7.539 -9.903 4.581 -5.938 1.375 C-2.875 -0.25 -2.875 -0.25 0 0 Z " fill="#000000" transform="translate(357.875,463.25)"/>
<path d="M0 0 C3.119 1.477 4.724 2.486 6.375 5.562 C7.787 13.328 6.426 20.439 2 27 C0.062 29.062 0.062 29.062 -2 30 C-4.75 29.688 -4.75 29.688 -7 29 C-5.971 26.783 -4.918 24.891 -3.438 22.938 C-0.138 18.49 -0.638 13.292 -1 8 C-1.851 5.02 -1.851 5.02 -3 3 C-2.01 2.01 -1.02 1.02 0 0 Z " fill="#000000" transform="translate(702,463)"/>
<path d="M0 0 C0.48 5.4 0.48 5.4 -1.5 7.875 C-5.123 9.505 -8.045 9.198 -12 9 C-12.66 7.68 -13.32 6.36 -14 5 C-6.286 -3.143 -6.286 -3.143 0 0 Z " fill="#000000" transform="translate(736,470)"/>
<path d="M0 0 C1.32 0 2.64 0 4 0 C3.528 3.115 2.794 5.436 1.438 8.312 C-0.463 13.187 -0.836 17.189 0.688 22.312 C2.446 24.573 4.488 25.678 7 27 C6.34 28.32 5.68 29.64 5 31 C0.046 29.761 -2.186 28.272 -5 24 C-7.584 16.248 -5.444 10.077 -2 3 C-1.34 2.01 -0.68 1.02 0 0 Z " fill="#000000" transform="translate(200,575)"/>
<path d="M0 0 C2.062 0.438 2.062 0.438 4 1 C3.67 1.66 3.34 2.32 3 3 C1.741 6.778 1.211 10.063 2 14 C4.576 17.292 7.126 19.422 11 21 C10.67 22.32 10.34 23.64 10 25 C5.748 24.75 3.524 24.431 0.188 21.688 C-3.349 17.343 -4.395 14.805 -4.266 9.035 C-3.823 5.641 -2.441 2.441 0 0 Z " fill="#000000" transform="translate(213,577)"/>
<path d="M0 0 C5.973 3.047 10.652 7.915 12.773 14.344 C13.193 16.72 13.351 18.612 13 21 C10.202 24.868 7.459 26.524 3 28 C-3.435 28.667 -9.546 28.875 -15 25 C-17.99 20.516 -17.595 16.258 -17 11 C-15.551 6.624 -13.503 3.036 -10 0 C-6.172 -1.276 -3.932 -0.866 0 0 Z M-10 11 C-10.501 14.374 -10.501 14.374 -10 18 C-8.069 20.678 -8.069 20.678 -5 22 C-1.263 21.86 -1.263 21.86 2 21 C2.66 19.35 3.32 17.7 4 16 C1.454 12.476 1.454 12.476 -2 10 C-6.315 9.461 -6.315 9.461 -10 11 Z " fill="#000000" transform="translate(613,616)"/>
<path d="M0 0 C1.011 0.082 2.021 0.165 3.062 0.25 C5.062 3.25 5.062 3.25 4.812 5.312 C4.062 7.25 4.062 7.25 2.062 9.25 C-1.235 8.92 -2.56 8.627 -4.938 6.25 C-4.219 0.359 -4.219 0.359 0 0 Z " fill="#000000" transform="translate(165.9375,630.75)"/>
<path d="M0 0 C3.68 1.128 6.483 2.91 9.559 5.184 C15.183 9.204 21.057 12.647 27.062 16.062 C28.185 16.706 29.308 17.349 30.464 18.012 C39.382 23.117 48.355 28.125 57.331 33.126 C65.324 37.59 73.193 42.221 81 47 C81.954 47.532 82.908 48.065 83.891 48.613 C84.587 49.071 85.283 49.529 86 50 C86 50.66 86 51.32 86 52 C83.403 52.992 82.266 53.097 79.616 52.126 C78.736 51.659 77.856 51.192 76.949 50.711 C75.953 50.188 74.956 49.666 73.929 49.127 C72.86 48.549 71.79 47.971 70.688 47.375 C69.573 46.783 68.459 46.191 67.311 45.582 C49.781 36.219 32.613 26.231 15.465 16.191 C9.004 12.412 2.511 8.691 -4 5 C-4 3 -4 3 -2.312 1.25 C-1.549 0.837 -0.786 0.425 0 0 Z " fill="#000000" transform="translate(579,644)"/>
<path d="M0 0 C2 0.688 2 0.688 4 2.688 C3.832 5.88 3.153 7.48 1.25 10.062 C-1 11.688 -1 11.688 -3.75 11.438 C-4.493 11.19 -5.235 10.942 -6 10.688 C-7 7.688 -7 7.688 -5.688 4.062 C-3.391 -0.53 -3.391 -0.53 0 0 Z " fill="#000000" transform="translate(185,657.3125)"/>
<path d="M0 0 C1.65 0.33 3.3 0.66 5 1 C4.979 1.654 4.958 2.307 4.937 2.981 C4.378 19.917 4.378 19.917 8.125 36.293 C9.011 39.034 9.167 41.141 9 44 C8.01 44 7.02 44 6 44 C-1.217 36.727 -3.077 26.121 -3.312 16.25 C-3.151 10.728 -2.496 4.992 0 0 Z " fill="#000000" transform="translate(443,659)"/>
<path d="M0 0 C1.65 0.33 3.3 0.66 5 1 C6.128 3.796 6.003 4.991 5.075 7.917 C2.182 14.536 2.182 14.536 1.168 16.782 C0.314 18.683 -0.511 20.595 -1.334 22.51 C-1.867 23.707 -2.4 24.904 -2.949 26.137 C-3.681 27.787 -3.681 27.787 -4.428 29.471 C-6 32 -6 32 -8.128 32.929 C-8.746 32.952 -9.364 32.976 -10 33 C-11 32 -11 32 -11.266 28.473 C-11.201 23.63 -9.692 19.818 -7.75 15.438 C-7.45 14.721 -7.149 14.005 -6.84 13.268 C-4.862 8.642 -2.569 4.325 0 0 Z " fill="#000000" transform="translate(482,678)"/>
<path d="M0 0 C2.355 0.121 2.355 0.121 5 1 C6.738 3.223 6.738 3.223 8.312 6.062 C11.118 10.783 14.099 14.324 18.062 18.086 C21.056 21.044 24.021 24.265 26 28 C25.67 28.99 25.34 29.98 25 31 C14.414 25.912 4.183 17.796 -1 7 C-1.242 3.762 -1.242 3.762 -1 1 C-0.67 0.67 -0.34 0.34 0 0 Z " fill="#000000" transform="translate(408,683)"/>
<path d="M0 0 C2.938 0.562 2.938 0.562 4.875 2.25 C5.938 4.562 5.938 4.562 6.062 6.938 C4.367 10.893 1.623 13.378 -2.062 15.562 C-4.729 15.505 -6.155 15.47 -8.062 13.562 C-7.842 9.149 -7.547 6.424 -5.375 2.562 C-3.062 0.562 -3.062 0.562 0 0 Z " fill="#000000" transform="translate(610.0625,701.4375)"/>
<path d="M0 0 C1 1 1 1 1.188 3.438 C1 6 1 6 -1 8 C-3.5 8.25 -3.5 8.25 -6 8 C-6.66 7.34 -7.32 6.68 -8 6 C-7.75 2.938 -7.75 2.938 -7 0 C-4.316 -1.342 -2.847 -0.73 0 0 Z " fill="#000000" transform="translate(574,721)"/>
<path d="M0 0 C2.562 2.062 2.562 2.062 4 5 C4.431 9.446 3.563 12.254 0.875 15.812 C-2.381 18.29 -5.071 19.828 -9 21 C-12.481 20.398 -14.3 19.653 -16.875 17.25 C-18.408 14.185 -18.467 12.404 -18 9 C-16.493 4.998 -14.721 2.525 -11.25 0 C-7.166 -1.257 -4.06 -1.388 0 0 Z M-11 8 C-11.041 9.666 -11.043 11.334 -11 13 C-9.02 13.99 -9.02 13.99 -7 15 C-5.68 13.68 -4.36 12.36 -3 11 C-3.66 9.68 -4.32 8.36 -5 7 C-8.289 6.633 -8.289 6.633 -11 8 Z " fill="#000000" transform="translate(458,728)"/>
<path d="M0 0 C1.375 2.062 1.375 2.062 2 4 C-0.937 6.937 -4.57 7.255 -8.5 8.188 C-16.365 10.126 -23.77 12.653 -31.211 15.852 C-34.955 17.417 -37.122 18.267 -41 17 C-41.688 15.188 -41.688 15.188 -42 13 C-39.889 10.337 -37.67 9.258 -34.535 8.062 C-33.658 7.726 -32.781 7.389 -31.877 7.043 C-30.948 6.699 -30.019 6.355 -29.062 6 C-27.643 5.469 -27.643 5.469 -26.195 4.928 C-7.644 -1.897 -7.644 -1.897 0 0 Z " fill="#000000" transform="translate(419,731)"/>
<path d="M0 0 C39.974 2.974 39.974 2.974 42 5 C42.041 6.666 42.043 8.334 42 10 C37.286 11.013 33.08 10.91 28.336 10.328 C27.621 10.245 26.907 10.162 26.171 10.076 C24.669 9.899 23.168 9.717 21.668 9.531 C19.377 9.25 17.083 8.992 14.789 8.734 C13.325 8.559 11.862 8.382 10.398 8.203 C9.716 8.128 9.034 8.053 8.331 7.975 C4.422 7.469 1.912 6.699 -1 4 C-0.67 2.68 -0.34 1.36 0 0 Z " fill="#000000" transform="translate(491,731)"/>
<path d="M0 0 C0.99 0.33 1.98 0.66 3 1 C3.182 2.074 3.364 3.148 3.551 4.254 C3.804 5.69 4.058 7.126 4.312 8.562 C4.489 9.619 4.489 9.619 4.67 10.697 C5.317 14.3 6.121 17.527 7.613 20.879 C9 24 9 24 8.875 26.375 C8 28 8 28 5 29 C-0.58 24.053 -2.464 17.374 -3.355 10.098 C-3.554 3.645 -3.554 3.645 -1.473 1.223 C-0.987 0.819 -0.501 0.416 0 0 Z " fill="#000000" transform="translate(481,751)"/>
<path d="M0 0 C3 1 3 1 3.867 2.727 C4.058 5.993 2.833 7.605 1.125 10.375 C0.482 11.42 -0.161 12.466 -0.824 13.543 C-1.175 14.099 -1.526 14.655 -1.888 15.228 C-3.059 17.093 -4.196 18.977 -5.332 20.863 C-6.116 22.139 -6.901 23.414 -7.688 24.688 C-8.055 25.3 -8.423 25.912 -8.802 26.542 C-11.458 30.753 -11.458 30.753 -14.16 31.984 C-16 32 -16 32 -17.75 30.562 C-18.163 30.047 -18.575 29.531 -19 29 C-17.442 23.132 -14.412 18.444 -11.188 13.375 C-10.405 12.107 -10.405 12.107 -9.607 10.812 C-4.416 2.594 -4.416 2.594 0 0 Z " fill="#000000" transform="translate(430,763)"/>
<path d="M0 0 C1.32 0.66 2.64 1.32 4 2 C4 7.94 4 13.88 4 20 C2.35 20.33 0.7 20.66 -1 21 C-3.844 18.156 -3.3 16.15 -3.312 12.188 C-3.329 10.964 -3.346 9.741 -3.363 8.48 C-2.982 4.826 -2.127 2.947 0 0 Z " fill="#000000" transform="translate(456,774)"/>
</svg>
