<?xml version="1.0" encoding="UTF-8"?>
<!-- Generator: visioncortex VTracer 0.6.0 -->
<svg version="1.1" xmlns="http://www.w3.org/2000/svg" width="847" height="847">
<path d="M0 0 C9.115 6.403 15.359 14.744 17.785 25.68 C18.579 38.812 18.169 50.27 9.473 60.902 C2.882 67.844 -5.694 72.358 -15.215 73.68 C-19.174 73.733 -23.133 73.607 -27.09 73.465 C-32.664 73.368 -36.211 74.244 -41.215 76.68 C-44.527 76.992 -44.527 76.992 -47.215 76.68 C-49.215 74.68 -49.215 74.68 -49.465 71.867 C-49.218 68.717 -48.552 66.521 -47.215 63.68 C-47.662 63.23 -48.109 62.78 -48.57 62.316 C-57.055 53.289 -60.547 43.535 -60.363 31.258 C-59.745 20.527 -55.375 11.922 -47.59 4.535 C-33.617 -6.381 -15.509 -9.245 0 0 Z M-45.215 10.68 C-51.678 18.749 -54.289 26.333 -54.215 36.68 C-53.011 46.145 -49.411 54.011 -42.277 60.43 C-40.215 62.68 -40.215 62.68 -40.277 65.305 C-41.215 67.68 -41.215 67.68 -43.215 70.68 C-42.574 70.452 -41.934 70.223 -41.273 69.988 C-35.708 68.139 -32.057 67.552 -26.215 68.68 C-16.151 69.412 -7.012 68.089 0.969 61.527 C8.01 54.365 11.454 44.835 11.914 34.895 C11.441 24.934 7.573 15.576 0.676 8.363 C-6.45 2.018 -13.793 -0.849 -23.348 -0.629 C-31.905 0.292 -39.137 4.742 -45.215 10.68 Z " fill="#000000" transform="translate(468.21484375,92.3203125)"/>
<path d="M0 0 C1.32 0 2.64 0 4 0 C5.148 2.297 5.116 3.583 5.098 6.133 C5.094 6.938 5.091 7.744 5.088 8.574 C5.08 9.416 5.071 10.258 5.062 11.125 C5.058 11.974 5.053 12.824 5.049 13.699 C5.037 15.8 5.019 17.9 5 20 C8.3 20 11.6 20 15 20 C15.66 21.32 16.32 22.64 17 24 C12.577 26.577 9.031 26.148 4 26 C4 28.97 4 31.94 4 35 C2.68 35.66 1.36 36.32 0 37 C-2 35 -2 35 -2.195 32.836 C-2.161 31.618 -2.161 31.618 -2.125 30.375 C-2.107 29.558 -2.089 28.74 -2.07 27.898 C-2.047 27.272 -2.024 26.645 -2 26 C-3.052 26.041 -4.104 26.083 -5.188 26.125 C-8.74 26.009 -10.849 25.528 -14 24 C-14 21 -14 21 -13 20 C-11.147 19.928 -9.292 19.916 -7.438 19.938 C-6.426 19.947 -5.414 19.956 -4.371 19.965 C-3.197 19.982 -3.197 19.982 -2 20 C-2.012 19.383 -2.023 18.765 -2.035 18.129 C-2.097 12.326 -1.821 6.748 -1 1 C-0.67 0.67 -0.34 0.34 0 0 Z " fill="#000000" transform="translate(444,113)"/>
<path d="M0 0 C2.261 2.998 4.494 6.014 6.688 9.062 C7.31 9.92 7.933 10.777 8.574 11.66 C10 14 10 14 10 17 C0 6.033 0 6.033 0 0 Z " fill="#000000" transform="translate(395,145)"/>
<path d="M0 0 C10.936 0.465 18.422 8.881 26 16 C21.684 16 19.537 13.399 16.375 10.75 C11.153 6.491 6.394 3.315 0 1 C0 0.67 0 0.34 0 0 Z " fill="#000000" transform="translate(622,171)"/>
<path d="M0 0 C0.66 0 1.32 0 2 0 C0.219 3.634 -1.702 7.189 -3.625 10.75 C-4.112 11.653 -4.112 11.653 -4.609 12.574 C-5.406 14.05 -6.203 15.525 -7 17 C-7.66 16.67 -8.32 16.34 -9 16 C-8.068 14.081 -7.129 12.165 -6.188 10.25 C-5.665 9.183 -5.143 8.115 -4.605 7.016 C-3.231 4.433 -1.937 2.187 0 0 Z " fill="#000000" transform="translate(181,173)"/>
<path d="M0 0 C9.127 6.591 17.784 17.303 19.824 28.758 C21.078 44.747 18.833 57.791 8.926 70.703 C1.023 79.916 -8.708 87.161 -21.199 88.179 C-27.535 88.443 -34.017 88.68 -40.223 87.266 C-43.975 86.907 -45.185 88.098 -48.062 90.438 C-52.398 93.938 -52.398 93.938 -55.746 94.285 C-58 94 -58 94 -59 93 C-59.331 87.283 -59.213 81.61 -58 76 C-59.129 75.625 -59.129 75.625 -60.281 75.242 C-67.746 71.832 -71.273 63.034 -74.066 55.781 C-75.18 52.464 -75.806 49.498 -76 46 C-76.05 45.278 -76.101 44.556 -76.152 43.812 C-76.736 29.247 -71.477 16.359 -62.227 5.324 C-45.388 -12.253 -19.709 -13.14 0 0 Z M-61.434 12.828 C-69.033 23.365 -70.846 34.221 -70 47 C-68.483 56.281 -63.755 64.316 -57.188 70.938 C-53.012 75.417 -52.924 80.078 -53 86 C-50.733 84.925 -49.038 84.035 -47.188 82.312 C-43.93 80.358 -41.61 81.212 -38 82 C-37.01 82.33 -36.02 82.66 -35 83 C-22.786 83.991 -12.579 82.794 -2.688 74.812 C7.197 65.297 13.559 53.022 14.137 39.238 C13.556 25.491 7.702 15.372 -2 6 C-10.303 -1.13 -21.301 -4.873 -32.246 -4.379 C-44.608 -2.678 -53.549 3.388 -61.434 12.828 Z " fill="#000000" transform="translate(267,184)"/>
<path d="M0 0 C0.66 0.33 1.32 0.66 2 1 C-0.64 3.64 -3.28 6.28 -6 9 C-6 6 -6 6 -4.688 4.395 C-4.131 3.872 -3.574 3.35 -3 2.812 C-2.443 2.283 -1.886 1.753 -1.312 1.207 C-0.663 0.61 -0.663 0.61 0 0 Z " fill="#000000" transform="translate(485,178)"/>
<path d="M0 0 C10.492 3.256 18.744 3.587 28.958 -0.509 C39.816 -4.454 49.751 -5.341 60.637 -0.755 C67.36 2.586 72.675 6.879 78.145 11.991 C86.755 19.991 94.765 24.434 105.788 28.426 C116.695 32.501 124.764 39.225 129.895 49.741 C136.347 64.906 134.964 80.475 129.395 95.741 C123.961 108.297 114.411 118.473 102.145 124.491 C101.485 124.491 100.825 124.491 100.145 124.491 C100.266 125.288 100.387 126.085 100.512 126.906 C101.06 130.518 101.602 134.13 102.145 137.741 C102.431 139.623 102.431 139.623 102.723 141.542 C102.904 142.748 103.084 143.953 103.27 145.195 C103.438 146.305 103.605 147.415 103.778 148.559 C104.145 151.491 104.145 151.491 104.145 155.491 C105.135 155.161 106.125 154.831 107.145 154.491 C120.015 153.448 130.061 155.011 140.395 163.429 C148.546 171.398 152.923 180.874 156.039 191.638 C156.295 192.505 156.55 193.373 156.813 194.267 C159.658 204.06 162.141 213.94 164.586 223.839 C165.081 225.831 165.576 227.823 166.072 229.815 C167.101 233.959 168.127 238.105 169.15 242.251 C170.184 246.442 171.225 250.631 172.271 254.819 C191.69 332.563 191.69 332.563 188.67 355.022 C188.071 359.774 187.808 364.522 187.573 369.304 C187.524 370.251 187.475 371.198 187.424 372.174 C187.265 375.28 187.109 378.386 186.954 381.491 C186.843 383.655 186.733 385.818 186.622 387.981 C186.331 393.656 186.045 399.331 185.759 405.006 C185.466 410.805 185.169 416.603 184.874 422.402 C184.294 433.765 183.718 445.128 183.145 456.491 C183.933 456.78 184.72 457.069 185.532 457.366 C188.145 458.491 188.145 458.491 189.958 460.491 C192.802 467.678 191.341 474.66 188.524 481.648 C180.19 498.835 163.068 518.706 147.145 529.491 C146.155 529.491 145.165 529.491 144.145 529.491 C143.815 528.501 143.485 527.511 143.145 526.491 C145.701 522.756 148.82 519.554 152.145 516.491 C152.805 516.491 153.465 516.491 154.145 516.491 C154.405 515.898 154.666 515.306 154.934 514.695 C156.228 512.341 157.534 511.035 159.52 509.241 C169.951 499.019 182.024 484.238 184.208 469.366 C184.149 465.708 183.939 464.481 182.145 461.491 C178.675 458.921 175.333 459.011 171.145 459.491 C158.318 464.05 149.216 477.382 141.344 487.891 C140.301 489.284 139.242 490.664 138.18 492.042 C134.049 497.616 130.96 503.54 127.984 509.784 C126.002 513.925 123.927 517.811 121.145 521.491 C120.155 521.821 119.165 522.151 118.145 522.491 C117.485 522.161 116.825 521.831 116.145 521.491 C116.631 515.347 118.66 510.786 121.442 505.331 C121.873 504.464 122.303 503.597 122.747 502.704 C124.12 499.941 125.506 497.184 126.895 494.429 C139.017 473.876 139.017 473.876 141.145 451.491 C139.419 448.192 139.419 448.192 135.958 447.616 C128.87 447.384 124.177 450.626 119.129 455.292 C102.988 473.181 102.658 500.786 101.145 523.491 C98.505 524.481 95.865 525.471 93.145 526.491 C90.145 523.491 90.145 523.491 90.049 520.884 C90.171 519.848 90.293 518.813 90.418 517.745 C95.459 469.841 95.459 469.841 81.458 425.116 C75.015 417.349 66.231 413.187 56.278 412.21 C49.339 411.985 45.08 413.07 39.645 417.554 C32.219 426.279 28.599 435.066 28.899 446.531 C30.506 465.869 37.082 484.038 43.895 502.054 C44.139 502.701 44.383 503.348 44.635 504.014 C47.348 511.523 47.348 511.523 51.145 518.491 C50.77 521.179 50.77 521.179 50.145 523.491 C47.023 523.195 45.575 523.008 43.527 520.549 C43.066 519.709 42.605 518.869 42.129 518.003 C41.343 516.61 41.343 516.61 40.54 515.189 C39.997 514.196 39.454 513.203 38.895 512.179 C34.123 503.78 29.301 495.959 23.145 488.491 C22.504 487.677 21.864 486.862 21.204 486.023 C15.105 478.63 7.484 473.014 -1.855 470.491 C-5.622 470.79 -5.622 470.79 -8.855 471.491 C-9.86 474.662 -10.003 476.125 -8.738 479.253 C-4.427 486.428 0.383 492.442 6.145 498.491 C7.32 499.818 8.487 501.151 9.645 502.491 C12.301 505.542 14.996 508.553 17.708 511.554 C18.46 512.392 19.213 513.23 19.989 514.093 C21.337 515.593 22.691 517.088 24.051 518.577 C28.145 523.154 28.145 523.154 28.145 526.491 C24.298 525.91 22.337 524.157 19.458 521.616 C3.891 508.613 -19.47 492.934 -40.48 491.991 C-44.155 492.536 -46.135 492.936 -48.855 495.491 C-50.048 499.444 -50.157 501.668 -48.73 505.554 C-40.176 518.955 -24.934 526.464 -9.735 529.982 C-6.453 530.655 -3.178 531.236 0.133 531.753 C3.176 532.499 4.409 532.916 6.145 535.491 C6.145 536.481 6.145 537.471 6.145 538.491 C5.155 538.821 4.165 539.151 3.145 539.491 C2.485 538.831 1.825 538.171 1.145 537.491 C-1.131 536.962 -3.427 536.517 -5.73 536.116 C-23.717 532.737 -42.455 525.265 -53.48 509.866 C-56.277 505.226 -57.484 501.198 -56.23 495.804 C-54.179 492.354 -51.42 490.274 -47.855 488.491 C-32.863 487.166 -19.362 491.25 -5.855 497.491 C-6.314 496.813 -6.773 496.135 -7.246 495.437 C-16.855 480.861 -16.855 480.861 -16.855 472.554 C-15.855 469.491 -15.855 469.491 -14.355 467.616 C-8.032 464.771 -3.031 465.201 3.458 467.488 C4.526 467.859 5.595 468.231 6.696 468.614 C7.504 468.904 8.312 469.193 9.145 469.491 C9.184 468.854 9.224 468.216 9.264 467.559 C10.483 448.368 12.57 429.356 14.933 410.278 C15.666 404.345 16.389 398.41 17.111 392.475 C17.359 390.441 17.611 388.407 17.863 386.374 C18.308 382.748 18.734 379.121 19.145 375.491 C19.276 374.353 19.408 373.214 19.543 372.041 C19.652 370.975 19.761 369.91 19.873 368.812 C20.021 367.412 20.021 367.412 20.172 365.984 C20.128 361.917 18.464 359.766 16.145 356.491 C14.659 352.652 15.077 348.554 15.145 344.491 C11.347 343.437 8.068 342.943 4.145 343.491 C0.233 346.358 -2.695 349.842 -5.855 353.491 C-8.855 355.491 -8.855 355.491 -11.738 355.355 C-15.292 354.37 -16.982 353.115 -19.73 350.679 C-20.676 349.88 -21.622 349.081 -22.597 348.257 C-23.114 347.818 -23.63 347.379 -24.163 346.927 C-34.804 336.839 -34.804 336.839 -48.167 332.866 C-49.009 332.998 -49.851 333.129 -50.718 333.265 C-52.855 333.491 -52.855 333.491 -55.855 331.491 C-58.125 330.936 -60.396 330.547 -62.699 330.152 C-65.221 329.379 -66.161 328.482 -67.855 326.491 C-68.313 325.994 -68.77 325.496 -69.242 324.984 C-72.9 320.435 -72.9 320.435 -72.753 317.386 C-72.643 316.658 -72.532 315.929 -72.417 315.179 C-72.153 311.448 -72.799 310.557 -75.296 307.624 C-76.339 306.664 -77.401 305.724 -78.48 304.804 C-79.262 304.116 -79.262 304.116 -80.06 303.414 C-81.821 301.949 -81.821 301.949 -84.855 300.491 C-88.002 301.082 -88.002 301.082 -90.855 302.491 C-99.797 304.222 -107.505 300.277 -114.855 295.491 C-116.233 293.862 -117.577 292.201 -118.855 290.491 C-119.721 290.079 -120.587 289.666 -121.48 289.241 C-124.733 286.844 -124.802 284.619 -125.398 280.745 C-125.743 278.452 -125.743 278.452 -126.976 276.499 C-128.141 273.839 -127.502 272.559 -126.73 269.804 C-126.204 267.16 -126.204 267.16 -126.855 264.491 C-130.461 260.81 -134.466 258.16 -138.855 255.491 C-139.573 256.215 -140.291 256.938 -141.031 257.683 C-156.643 273.209 -174.223 284.701 -196.936 284.96 C-198.474 284.944 -198.474 284.944 -200.042 284.929 C-201.672 284.918 -201.672 284.918 -203.335 284.906 C-225.748 284.452 -245.974 276.016 -262.23 260.554 C-279.813 241.736 -286.938 220.2 -286.23 194.753 C-285.207 173.387 -274.808 153.449 -259.464 138.687 C-241.03 123.178 -219.388 116.924 -195.54 118.26 C-171.886 120.303 -151.327 131.586 -136.105 149.679 C-121.948 169.132 -117.752 192.407 -121.233 216.059 C-122.1 220.332 -123.396 224.381 -124.855 228.491 C-125.55 230.818 -126.203 233.153 -126.855 235.491 C-124.755 237.31 -122.651 239.121 -120.542 240.929 C-119.65 241.703 -119.65 241.703 -118.74 242.493 C-118.163 242.986 -117.586 243.48 -116.992 243.988 C-116.463 244.443 -115.934 244.899 -115.389 245.368 C-113.73 246.703 -113.73 246.703 -110.855 247.491 C-109.52 247.165 -108.187 246.83 -106.855 246.491 C-104.641 246.421 -102.425 246.407 -100.21 246.429 C-98.892 246.437 -97.574 246.444 -96.216 246.452 C-94.148 246.471 -92.08 246.491 -90.011 246.512 C-82.828 246.578 -75.727 246.54 -68.558 245.988 C-62.828 245.559 -57.162 245.425 -51.421 245.464 C-50.606 245.47 -49.79 245.475 -48.949 245.481 C-45.599 245.508 -42.25 245.543 -38.901 245.587 C-12.283 246.207 -12.283 246.207 11.258 235.347 C17.683 229.028 21.846 221.338 26.083 213.491 C32.519 201.64 40.597 190.818 52.145 183.491 C56.012 182.718 56.012 182.718 59.145 182.491 C59.145 183.151 59.145 183.811 59.145 184.491 C57.521 185.736 55.843 186.912 54.145 188.054 C42.705 196.227 36.218 207.122 29.512 219.234 C21.45 233.706 14.556 243.172 -1.742 248.421 C-16.997 252.523 -33.058 251.613 -48.667 250.753 C-53.336 250.501 -57.992 250.375 -62.667 250.366 C-63.85 250.364 -65.032 250.361 -66.25 250.359 C-68.783 250.196 -68.783 250.196 -69.855 251.491 C-69.112 252.007 -68.37 252.523 -67.605 253.054 C-61.941 258.074 -59.764 264.145 -58.855 271.491 C-58.87 272.604 -58.886 273.716 -58.902 274.863 C-58.94 282.042 -58.94 282.042 -55.804 288.32 C-48.931 294.486 -42.794 295.74 -33.855 296.491 C-30.078 296.994 -26.311 297.558 -22.542 298.116 C-20.692 298.381 -18.842 298.644 -16.992 298.906 C-16.195 299.018 -15.398 299.131 -14.576 299.248 C-14.008 299.328 -13.44 299.409 -12.855 299.491 C-12.669 298.625 -12.484 297.759 -12.292 296.866 C-9.118 289.413 -2.191 286.333 4.958 283.366 C5.701 283.045 6.444 282.725 7.209 282.394 C8.332 281.912 8.332 281.912 9.477 281.421 C10.188 281.113 10.899 280.804 11.632 280.486 C14.145 279.491 14.145 279.491 16.703 278.806 C19.504 277.978 21.712 277.12 24.145 275.491 C25.937 272.037 26.223 268.582 26.583 264.741 C26.719 263.691 26.855 262.641 26.996 261.559 C27.423 258.207 27.786 254.851 28.145 251.491 C28.546 248.134 28.961 244.779 29.38 241.424 C29.636 239.338 29.879 237.25 30.108 235.16 C30.215 234.213 30.323 233.265 30.434 232.288 C30.524 231.457 30.614 230.625 30.706 229.768 C31.166 227.384 31.96 225.6 33.145 223.491 C34.135 223.821 35.125 224.151 36.145 224.491 C35.854 227.575 35.562 230.658 35.27 233.741 C35.181 234.681 35.092 235.621 35.001 236.59 C34.542 241.426 34.07 246.261 33.567 251.093 C33.429 252.423 33.429 252.423 33.289 253.78 C33.114 255.463 32.936 257.146 32.755 258.828 C32.28 263.413 32.059 267.882 32.145 272.491 C43.633 267.082 51.581 262.585 56.356 250.402 C59.682 240.478 61.721 230.321 63.84 220.083 C66.025 209.678 68.78 199.573 72.145 189.491 C72.481 188.447 72.818 187.403 73.165 186.327 C75.314 180.272 78.63 176.031 83.145 171.491 C83.145 174.827 82.753 175.318 80.891 177.909 C77.483 183.192 75.889 188.786 74.208 194.804 C73.695 196.601 73.695 196.601 73.173 198.435 C70.043 209.92 68.032 221.551 66.311 233.323 C64.236 247.125 60.806 260.527 49.52 269.616 C38.72 277.034 26.222 281.329 14.038 285.89 C11.864 286.706 9.696 287.537 7.528 288.37 C6.875 288.61 6.221 288.85 5.548 289.097 C0.363 291.103 -3.91 293.806 -7.21 298.363 C-9.791 306.886 -8.455 318.468 -4.855 326.491 C-0.736 333.264 4.6 336.427 12.145 338.491 C39.908 343.763 69.66 338.082 93.145 322.491 C116.291 306.009 128.479 284.302 133.68 256.648 C134.14 253.524 134.303 250.55 134.35 247.394 C134.37 246.214 134.39 245.033 134.411 243.816 C134.427 242.557 134.444 241.297 134.461 239.999 C134.493 238.048 134.493 238.048 134.524 236.057 C134.579 232.614 134.629 229.172 134.677 225.729 C134.728 222.21 134.783 218.691 134.838 215.171 C134.946 208.278 135.047 201.385 135.145 194.491 C136.465 194.491 137.785 194.491 139.145 194.491 C140.833 196.179 140.298 198.298 140.322 200.612 C140.335 201.708 140.348 202.805 140.361 203.935 C140.372 205.736 140.372 205.736 140.383 207.573 C140.391 208.812 140.399 210.051 140.408 211.327 C140.422 213.967 140.433 216.608 140.44 219.249 C140.453 223.221 140.501 227.193 140.545 231.165 C140.753 264.921 133.597 292.069 109.895 317.116 C85.122 341.119 54.225 345.973 21.145 345.491 C21.788 347.951 22.434 350.409 23.083 352.866 C23.265 353.565 23.447 354.264 23.635 354.984 C24.63 358.831 24.63 358.831 26.145 362.491 C28.825 363.519 31.475 364.438 34.208 365.304 C35.017 365.565 35.827 365.827 36.662 366.096 C38.339 366.636 40.018 367.173 41.698 367.707 C43.942 368.426 46.175 369.17 48.407 369.925 C82.751 381.398 118.257 374.38 152.2 365.024 C155.429 364.139 158.664 363.277 161.899 362.413 C167.985 360.787 174.067 359.146 180.145 357.491 C179.624 338.781 176.599 320.376 172.497 302.136 C172.24 300.988 171.983 299.841 171.718 298.658 C168.61 284.918 165.173 271.26 161.724 257.602 C160.694 253.518 159.669 249.433 158.644 245.348 C157.801 241.991 156.956 238.634 156.107 235.279 C154.461 228.763 152.836 222.243 151.258 215.71 C150.954 214.462 150.649 213.213 150.336 211.927 C149.771 209.606 149.213 207.283 148.663 204.958 C144.83 189.277 139.616 174.289 126.145 164.491 C119.64 160.684 111.588 159.489 104.145 160.491 C100.833 162.254 100.833 162.254 98.145 164.491 C96.826 165.186 95.499 165.867 94.145 166.491 C94.145 165.171 94.145 163.851 94.145 162.491 C94.643 162.017 95.14 161.543 95.653 161.054 C97.376 159.578 97.376 159.578 97.325 157.241 C97.224 156.334 97.124 155.426 97.02 154.491 C96.905 153.445 96.791 152.398 96.672 151.32 C95.621 143.69 94.409 136.088 93.145 128.491 C92.372 128.466 91.598 128.44 90.801 128.413 C83.078 127.993 76.57 127.279 71.188 121.327 C68.777 117.98 66.859 114.52 64.958 110.866 C64.602 110.199 64.247 109.531 63.881 108.843 C62.429 106.088 61.132 103.451 60.145 100.491 C58.832 99.785 57.492 99.13 56.145 98.491 C54.445 97.262 52.778 95.998 51.122 94.71 C44.792 90.808 37.351 90.266 30.145 91.491 C25.566 92.755 21.099 94.325 16.656 96.001 C11.199 98.02 6.97 98.87 1.145 98.491 C1.475 101.131 1.805 103.771 2.145 106.491 C3.238 106.45 4.331 106.409 5.458 106.366 C9.145 106.491 9.145 106.491 12.145 108.491 C11.815 109.811 11.485 111.131 11.145 112.491 C8.175 112.491 5.205 112.491 2.145 112.491 C2.108 113.675 2.07 114.858 2.032 116.077 C1.432 131.446 1.432 131.446 -1.234 138.448 C-1.976 140.891 -2.023 142.953 -1.855 145.491 C-0.833 146.705 -0.833 146.705 1.27 146.866 C4.911 146.392 6.581 144.855 9.301 142.488 C11.145 141.491 11.145 141.491 13.665 141.546 C16.908 142.782 17.604 144.206 19.333 147.179 C23.698 153.812 29.433 157.5 36.958 159.929 C46.504 161.769 55.405 159.458 64.172 155.745 C67.125 154.5 70.095 153.469 73.145 152.491 C70.393 155.447 67.725 157.607 64.145 159.491 C63.485 159.491 62.825 159.491 62.145 159.491 C62.289 160.097 62.434 160.703 62.583 161.327 C63.913 167.335 64.913 173.334 64.145 179.491 C63.485 180.481 62.825 181.471 62.145 182.491 C61.155 182.161 60.165 181.831 59.145 181.491 C57.916 175.423 56.869 169.693 57.145 163.491 C56.406 163.72 55.668 163.948 54.907 164.183 C43.919 167.296 34.313 167.09 24.145 161.491 C19.063 157.876 15.288 153.86 12.145 148.491 C11.058 149.05 11.058 149.05 9.95 149.62 C2.073 153.475 2.073 153.475 -2.355 153.554 C-5.476 152.228 -6.453 151.607 -7.855 148.491 C-8.555 143.728 -8.025 139.677 -6.343 135.195 C-4.116 128.04 -4.532 120.769 -4.667 113.366 C-4.683 111.919 -4.696 110.471 -4.708 109.023 C-4.741 105.512 -4.793 102.002 -4.855 98.491 C-5.479 98.45 -6.103 98.408 -6.746 98.365 C-12.602 97.89 -17.782 96.888 -23.292 94.866 C-24.025 94.601 -24.757 94.335 -25.511 94.061 C-39.511 88.766 -52.456 79.31 -58.855 65.491 C-65.377 50.594 -64.57 33.524 -58.855 18.491 C-53.969 7.751 -46.7 1.478 -35.745 -2.704 C-23.038 -7.074 -12.412 -3.952 0 0 Z M38.145 2.866 C37.444 3.122 36.743 3.377 36.02 3.64 C33.959 4.444 33.959 4.444 32.145 6.491 C32.465 9.094 32.465 9.094 33.145 11.491 C38.587 11.151 42.082 7.788 46.145 4.491 C45.485 3.501 44.825 2.511 44.145 1.491 C41.837 1.491 40.306 2.064 38.145 2.866 Z M-44.832 8.257 C-48.912 12.667 -51.305 16.679 -52.855 22.491 C-52.473 24.667 -52.473 24.667 -51.855 26.491 C-50.205 26.491 -48.555 26.491 -46.855 26.491 C-46.442 25.634 -46.03 24.777 -45.605 23.894 C-41.996 16.748 -38.483 11.225 -31.855 6.491 C-32.185 5.171 -32.515 3.851 -32.855 2.491 C-37.388 2.491 -41.55 5.326 -44.832 8.257 Z M85.145 27.491 C85.475 28.811 85.805 30.131 86.145 31.491 C88.125 31.491 90.105 31.491 92.145 31.491 C92.145 30.501 92.145 29.511 92.145 28.491 C89.835 28.161 87.525 27.831 85.145 27.491 Z M-247.855 144.491 C-248.605 145.136 -249.355 145.781 -250.128 146.445 C-262.456 157.805 -270.394 175.458 -271.191 192.218 C-271.569 212.533 -266.273 230.561 -252.059 245.483 C-239.829 257.709 -222.917 265.698 -205.522 266.01 C-204.58 266.004 -203.638 265.998 -202.667 265.991 C-201.671 265.987 -200.674 265.983 -199.647 265.979 C-190.668 265.774 -183.101 263.937 -174.855 260.491 C-173.927 260.119 -172.999 259.746 -172.042 259.363 C-153.812 251.187 -142.655 234.605 -135.726 216.55 C-129.99 197.956 -133.378 178.069 -141.917 160.929 C-151.196 144.633 -164.88 134.806 -182.578 129.366 C-205.583 123.224 -229.966 128.749 -247.855 144.491 Z M-277.855 177.491 C-284.354 197.438 -283.377 218.032 -274.574 237.214 C-265.372 254.761 -250.602 266.976 -232.292 274.054 C-231.614 274.318 -230.935 274.582 -230.235 274.854 C-226.801 276.096 -224.318 276.963 -220.855 275.491 C-221.81 275.14 -222.765 274.788 -223.75 274.425 C-244.582 266.556 -260.645 253.622 -270.121 233.173 C-277.873 215.49 -279.362 196.522 -276.855 177.491 C-277.185 177.491 -277.515 177.491 -277.855 177.491 Z M-106.855 251.491 C-106.055 256.122 -103.544 257.706 -99.855 260.491 C-97.09 261.874 -94.809 261.587 -91.73 261.554 C-90.634 261.545 -89.539 261.536 -88.41 261.527 C-87.567 261.515 -86.724 261.503 -85.855 261.491 C-85.655 262.038 -85.455 262.585 -85.25 263.148 C-83.285 266.449 -80.483 268.596 -77.542 270.991 C-76.973 271.465 -76.404 271.938 -75.818 272.425 C-74.698 273.353 -73.574 274.277 -72.446 275.195 C-70.974 276.395 -69.517 277.614 -68.062 278.835 C-66.048 280.692 -66.048 280.692 -63.855 280.491 C-64.498 267.431 -64.498 267.431 -70.855 256.491 C-76.197 252.431 -81.146 251.36 -87.714 251.394 C-88.829 251.397 -89.944 251.4 -91.093 251.404 C-92.832 251.416 -92.832 251.416 -94.605 251.429 C-95.779 251.433 -96.954 251.438 -98.164 251.443 C-101.061 251.454 -103.958 251.471 -106.855 251.491 Z M-116.105 266.429 C-117.412 266.69 -117.412 266.69 -118.746 266.956 C-120.827 267.293 -120.827 267.293 -121.855 268.491 C-122.022 271.491 -122.022 271.491 -121.855 274.491 C-120.863 275.703 -120.863 275.703 -118.929 275.624 C-118.142 275.622 -117.354 275.619 -116.542 275.616 C-115.763 275.619 -114.983 275.622 -114.179 275.624 C-111.942 275.496 -110.002 275.111 -107.855 274.491 C-108.185 275.481 -108.515 276.471 -108.855 277.491 C-111.359 278.659 -111.359 278.659 -114.417 279.679 C-115.429 280.023 -116.441 280.367 -117.484 280.722 C-118.266 280.976 -119.049 281.23 -119.855 281.491 C-119.855 282.481 -119.855 283.471 -119.855 284.491 C-114.905 284.491 -109.955 284.491 -104.855 284.491 C-105.185 285.481 -105.515 286.471 -105.855 287.491 C-109.417 288.679 -109.417 288.679 -112.855 289.491 C-111.096 291.671 -110.161 292.428 -107.375 293.003 C-106.481 293.061 -105.588 293.119 -104.667 293.179 C-103.766 293.245 -102.865 293.31 -101.937 293.378 C-101.25 293.416 -100.563 293.453 -99.855 293.491 C-99.855 294.811 -99.855 296.131 -99.855 297.491 C-93.467 298.024 -88.068 297.542 -82.855 293.491 C-80.539 289.717 -80.275 286.911 -80.855 282.491 C-84.038 275.544 -88.975 270.744 -95.855 267.491 C-102.709 265.38 -109.081 264.988 -116.105 266.429 Z M-220.855 276.491 C-216.855 277.491 -216.855 277.491 -216.855 277.491 Z M-69.855 284.491 C-68.239 286.533 -66.569 288.532 -64.855 290.491 C-64.195 290.491 -63.535 290.491 -62.855 290.491 C-64.007 288.023 -64.903 286.444 -66.855 284.491 C-67.845 284.491 -68.835 284.491 -69.855 284.491 Z M-61.855 307.491 C-62.505 307.921 -63.154 308.35 -63.824 308.792 C-66.763 310.921 -67.795 312.264 -68.73 315.804 C-68.771 316.691 -68.812 317.578 -68.855 318.491 C-67.535 318.491 -66.215 318.491 -64.855 318.491 C-64.525 317.501 -64.195 316.511 -63.855 315.491 C-62.109 314.503 -62.109 314.503 -59.855 313.491 C-57.29 311.891 -54.739 310.27 -52.195 308.636 C-49.855 307.491 -49.855 307.491 -46.855 308.491 C-47.519 308.939 -48.183 309.386 -48.867 309.847 C-57.178 315.03 -57.178 315.03 -62.73 322.741 C-62.771 323.319 -62.812 323.896 -62.855 324.491 C-61.695 325.854 -61.695 325.854 -58.542 325.929 C-56.717 325.712 -56.717 325.712 -54.855 325.491 C-52.637 322.748 -52.637 322.748 -50.855 319.491 C-47.882 316.742 -45.773 315.33 -41.855 314.491 C-42.349 315.083 -42.842 315.675 -43.351 316.284 C-44.312 317.47 -44.312 317.47 -45.292 318.679 C-45.931 319.456 -46.569 320.234 -47.226 321.034 C-48.927 323.6 -49.473 325.465 -49.855 328.491 C-45.307 328.67 -41.976 328.489 -37.855 326.491 C-37.525 327.481 -37.195 328.471 -36.855 329.491 C-28.601 329.942 -21.764 328.172 -14.855 323.491 C-14.855 324.151 -14.855 324.811 -14.855 325.491 C-13.865 325.491 -12.875 325.491 -11.855 325.491 C-12.515 318.891 -13.175 312.291 -13.855 305.491 C-29.09 300.413 -48.233 297.672 -61.855 307.491 Z M-3.582 341.023 C-4.521 341.997 -4.521 341.997 -5.48 342.991 C-6.112 343.641 -6.743 344.291 -7.394 344.96 C-7.876 345.466 -8.358 345.971 -8.855 346.491 C-4.539 346.491 -2.927 344.359 0.145 341.491 C0.145 340.831 0.145 340.171 0.145 339.491 C-1.99 339.27 -1.99 339.27 -3.582 341.023 Z M163.145 380.491 C163.145 382.801 163.145 385.111 163.145 387.491 C163.475 387.491 163.805 387.491 164.145 387.491 C164.145 385.181 164.145 382.871 164.145 380.491 C163.815 380.491 163.485 380.491 163.145 380.491 Z M164.145 388.491 C163.42 397.851 163.002 407.098 163.145 416.491 C163.475 416.491 163.805 416.491 164.145 416.491 C165.275 407.149 165.244 397.883 165.145 388.491 C164.815 388.491 164.485 388.491 164.145 388.491 Z M71.145 402.491 C72.554 405.653 72.554 405.653 75.208 407.804 C78.056 410.285 77.741 412.856 78.145 416.491 C78.805 416.821 79.465 417.151 80.145 417.491 C80.714 414.332 80.925 411.626 80.145 408.491 C77.452 405.893 74.472 404.175 71.145 402.491 Z M160.145 438.491 C161.145 440.491 161.145 440.491 161.145 440.491 Z " fill="#000000" transform="translate(541.85498046875,186.508544921875)"/>
<path d="M0 0 C-1.23 0.597 -1.23 0.597 -2.484 1.207 C-4.101 2.002 -4.101 2.002 -5.75 2.812 C-6.817 3.335 -7.885 3.857 -8.984 4.395 C-11.552 5.762 -13.745 7.177 -16 9 C-14.528 5.203 -12.581 3.754 -9.125 1.688 C-8.261 1.155 -7.398 0.623 -6.508 0.074 C-3.748 -1.108 -2.739 -1.089 0 0 Z " fill="#000000" transform="translate(368,184)"/>
<path d="M0 0 C3.931 4.165 3.905 8.502 4 14 C3.794 18.348 3.441 22.67 3 27 C3.75 27.329 4.5 27.657 5.273 27.996 C14.899 32.469 23.763 37.866 28 48 C28.519 50.906 28.296 52.992 28 56 C27.021 57.02 26.021 58.021 25 59 C25 60.114 25 61.228 25 62.375 C25 66.479 24.713 67.948 22 71 C12.223 76.64 -0.471 73.602 -10.927 70.929 C-22.129 67.744 -35.076 62.499 -41.141 52.031 C-42.819 48.333 -43.03 46.231 -42.5 42.125 C-41 39 -41 39 -38.375 37.562 C-37.591 37.377 -36.808 37.191 -36 37 C-35.34 38.32 -34.68 39.64 -34 41 C-34.66 41.66 -35.32 42.32 -36 43 C-36.546 45.933 -36.501 47.999 -35.148 50.703 C-27.973 60.475 -13.52 64.637 -2.042 66.711 C4.46 67.63 12.422 68.719 18 65 C17.4 61.317 16.752 57.655 16 54 C19 53 19 53 22 54 C20.614 47.206 17.685 42.475 11.839 38.549 C9.483 37.218 7.104 35.967 4.688 34.75 C3.062 33.92 1.441 33.082 -0.176 32.234 C-1.242 31.696 -1.242 31.696 -2.329 31.147 C-4 30 -4 30 -5 27 C-4.526 25.989 -4.051 24.979 -3.562 23.938 C-1.068 18.595 -1.154 12.537 -3 7 C-3.291 7.762 -3.583 8.524 -3.883 9.309 C-8.506 20.955 -15.399 34.013 -27 40 C-29.812 40.188 -29.812 40.188 -32 40 C-32 37.875 -32 37.875 -31 35 C-29.398 33.648 -29.398 33.648 -27.375 32.25 C-19.76 26.887 -15.772 20.417 -12.902 11.66 C-10.396 4.273 -8.646 -0.882 0 0 Z " fill="#000000" transform="translate(378,198)"/>
<path d="M0 0 C5.986 2.098 10.232 5.923 15 10 C15.934 10.787 15.934 10.787 16.887 11.59 C31.034 24.55 37.604 43.527 39.285 62.16 C39.583 71.794 37.863 82.148 34 91 C32.815 87.445 33.294 86.658 34.438 83.188 C39.439 64.109 35.983 44.39 26.207 27.516 C20.182 17.641 12.4 9.769 3 3.125 C2.01 2.424 1.02 1.722 0 1 C0 0.67 0 0.34 0 0 Z " fill="#000000" transform="translate(666,198)"/>
<path d="M0 0 C0.33 0 0.66 0 1 0 C1.33 5.61 1.66 11.22 2 17 C1.34 17 0.68 17 0 17 C-1.333 5.478 -1.333 5.478 0 0 Z " fill="#000000" transform="translate(168,204)"/>
<path d="M0 0 C2.442 0.326 3.667 0.62 5.312 2.5 C7.066 4.344 7.066 4.344 10.5 4.438 C14 5 14 5 15.664 6.672 C18.415 11.465 18.63 17.832 17.562 23.199 C15.731 27.995 12.495 30.752 8 33 C0.096 34 -5.195 31.759 -11.5 27.188 C-13.659 24.039 -13.328 21.742 -13 18 C-12.814 17.113 -12.629 16.226 -12.438 15.312 C-11.809 13.016 -11.809 13.016 -12.688 10.938 C-13 9 -13 9 -11.438 6.75 C-8.415 4.58 -6.641 4.669 -3 5 C-2.691 4.361 -2.381 3.721 -2.062 3.062 C-1 1 -1 1 0 0 Z M-3.688 9 C-5.327 9.99 -5.327 9.99 -7 11 C-3.861 13.656 -1.053 15.189 3 16 C6.335 14.958 6.335 14.958 9 13 C9.33 12.01 9.66 11.02 10 10 C3.088 6.698 3.088 6.698 -3.688 9 Z M-7 16 C-8.399 18.799 -8.253 20.905 -8 24 C-6.749 25.92 -6.749 25.92 -5 27 C-4.34 27 -3.68 27 -3 27 C-3 24.03 -3 21.06 -3 18 C-4.32 17.34 -5.64 16.68 -7 16 Z M9 17 C7.584 18.184 7.584 18.184 7.938 21.562 C7.958 22.697 7.979 23.831 8 25 C8.99 24.67 9.98 24.34 11 24 C11.33 21.69 11.66 19.38 12 17 C11.01 17 10.02 17 9 17 Z M1 19 C1 20.32 1 21.64 1 23 C1.99 23 2.98 23 4 23 C3.67 21.68 3.34 20.36 3 19 C2.34 19 1.68 19 1 19 Z M1 26 C1 26.66 1 27.32 1 28 C1.99 28 2.98 28 4 28 C4 27.34 4 26.68 4 26 C3.01 26 2.02 26 1 26 Z " fill="#000000" transform="translate(237,208)"/>
<path d="M0 0 C1 2 1 2 0.441 4.164 C0.151 4.976 -0.139 5.788 -0.438 6.625 C-0.869 7.851 -0.869 7.851 -1.309 9.102 C-1.537 9.728 -1.765 10.355 -2 11 C-3.533 6.412 -2.029 4.221 0 0 Z " fill="#000000" transform="translate(458,218)"/>
<path d="M0 0 C0.66 0 1.32 0 2 0 C2.505 1.603 3.004 3.207 3.5 4.812 C3.778 5.706 4.057 6.599 4.344 7.52 C5 10 5 10 5 13 C4.34 13 3.68 13 3 13 C2.495 11.397 1.996 9.793 1.5 8.188 C1.082 6.848 1.082 6.848 0.656 5.48 C0 3 0 3 0 0 Z " fill="#000000" transform="translate(154,249)"/>
<path d="M0 0 C0.33 0 0.66 0 1 0 C1.159 0.69 1.317 1.379 1.48 2.09 C4.944 16.039 12.321 24.64 23 34 C23.66 34.33 24.32 34.66 25 35 C24.67 35.66 24.34 36.32 24 37 C6.907 22.515 6.907 22.515 2 12 C1.567 11.134 1.134 10.267 0.688 9.375 C-0.23 6.206 -0.129 3.279 0 0 Z " fill="#000000" transform="translate(176,255)"/>
<path d="M0 0 C0.66 0.33 1.32 0.66 2 1 C-1.96 4.465 -1.96 4.465 -6 8 C-6 5 -6 5 -4.688 3.613 C-3.125 2.409 -1.562 1.204 0 0 Z " fill="#000000" transform="translate(460,266)"/>
<path d="M0 0 C0 3.654 -0.662 4.075 -3.105 6.652 C-3.76 7.347 -4.414 8.041 -5.088 8.756 C-5.781 9.476 -6.474 10.196 -7.188 10.938 C-7.861 11.654 -8.535 12.37 -9.229 13.107 C-12.634 16.692 -16.02 20.04 -20 23 C-18.569 19.767 -16.809 17.514 -14.375 14.961 C-13.315 13.843 -13.315 13.843 -12.234 12.703 C-11.497 11.935 -10.76 11.167 -10 10.375 C-9.263 9.599 -8.525 8.823 -7.766 8.023 C-5.199 5.326 -2.633 2.633 0 0 Z " fill="#000000" transform="translate(446,279)"/>
<path d="M0 0 C2 2 2 2 2 5 C0.987 4.965 0.987 4.965 -0.047 4.93 C-0.939 4.912 -1.831 4.894 -2.75 4.875 C-3.632 4.852 -4.513 4.829 -5.422 4.805 C-8.129 5.01 -9.626 5.772 -12 7 C-12.66 6.67 -13.32 6.34 -14 6 C-13.875 4.188 -13.875 4.188 -13 2 C-8.435 -1.152 -5.327 -1.332 0 0 Z " fill="#000000" transform="translate(585,286)"/>
<path d="M0 0 C0.66 0 1.32 0 2 0 C3.252 1.477 4.502 2.958 5.684 4.492 C7.118 6.268 7.118 6.268 10 8 C9.67 8.66 9.34 9.32 9 10 C7.494 8.715 5.995 7.422 4.5 6.125 C3.247 5.046 3.247 5.046 1.969 3.945 C1.319 3.303 0.669 2.661 0 2 C0 1.34 0 0.68 0 0 Z " fill="#000000" transform="translate(174,298)"/>
<path d="M0 0 C12.913 6.899 12.913 6.899 18 11 C18 11.66 18 12.32 18 13 C13.609 11.479 9.971 9.141 6.188 6.5 C5.59 6.097 4.993 5.693 4.377 5.277 C2.879 4.24 1.434 3.125 0 2 C0 1.34 0 0.68 0 0 Z " fill="#000000" transform="translate(210,298)"/>
<path d="M0 0 C1.675 0.286 3.344 0.618 5 1 C6.125 7.75 6.125 7.75 5 10 C3.35 10 1.7 10 0 10 C-1.585 7.482 -2.037 6.321 -1.688 3.312 C-1 1 -1 1 0 0 Z " fill="#000000" transform="translate(574,298)"/>
<path d="M0 0 C3.536 0.536 3.536 0.536 5 2 C5.041 4.333 5.042 6.667 5 9 C3.35 9.33 1.7 9.66 0 10 C-2.149 6.776 -2.383 5.733 -2 2 C-1.34 1.34 -0.68 0.68 0 0 Z " fill="#000000" transform="translate(547,304)"/>
<path d="M0 0 C1.65 0 3.3 0 5 0 C5 1.32 5 2.64 5 4 C2.69 4 0.38 4 -2 4 C-1.34 2.68 -0.68 1.36 0 0 Z " fill="#000000" transform="translate(598,312)"/>
<path d="M0 0 C13.734 3.615 23.843 13.346 30.941 25.258 C36.79 36.174 41.45 49.631 38.496 62.133 C37.408 65.205 36.522 66.746 33.562 68.188 C31 68 31 68 28.996 66.32 C23.802 60.282 21.903 51.947 20 44.375 C16.19 29.427 10.004 21.837 -3 14 C-5.874 12.165 -8.577 10.423 -11 8 C-11.351 5.26 -11.344 3.624 -10 1.188 C-6.734 -0.751 -3.63 -0.537 0 0 Z M-7 2 C-7.66 3.32 -8.32 4.64 -9 6 C-5.579 8.928 -2.361 10.877 1.75 12.688 C13.155 18.327 19.704 27.11 24 39 C25.501 43.864 26.821 48.771 28.048 53.712 C28.276 54.627 28.503 55.542 28.738 56.484 C28.935 57.306 29.131 58.129 29.333 58.976 C29.896 61.197 29.896 61.197 32 63 C35.24 49.403 34.74 37.39 27.938 24.875 C21.062 13.918 12.242 6.254 0 2 C-3.785 1.759 -3.785 1.759 -7 2 Z " fill="#000000" transform="translate(364,320)"/>
<path d="M0 0 C0.66 0 1.32 0 2 0 C1.875 2.25 1.875 2.25 1 5 C-1.75 7.375 -1.75 7.375 -5 9 C-7.875 8.75 -7.875 8.75 -10 8 C-7.626 5.376 -5.034 3.789 -2 2 C-1.34 1.34 -0.68 0.68 0 0 Z " fill="#000000" transform="translate(578,328)"/>
<path d="M0 0 C0.66 0.33 1.32 0.66 2 1 C0.236 2.033 -1.536 3.051 -3.312 4.062 C-4.792 4.915 -4.792 4.915 -6.301 5.785 C-9 7 -9 7 -12 6 C-10.047 4.97 -8.087 3.951 -6.125 2.938 C-5.034 2.369 -3.944 1.801 -2.82 1.215 C-1.424 0.613 -1.424 0.613 0 0 Z " fill="#000000" transform="translate(449,338)"/>
<path d="M0 0 C12.986 0.322 23.332 6.056 34.328 12.328 C43.75 17.649 53.241 21.373 64 23 C64 23.66 64 24.32 64 25 C49.589 24.485 37.216 17.185 24.965 10.267 C18.882 6.881 13.236 4.338 6.461 2.648 C4.088 2.023 2.144 1.178 0 0 Z " fill="#000000" transform="translate(173,350)"/>
<path d="M0 0 C5.953 4.23 7.278 12.407 8.625 19.188 C8.798 20.01 8.97 20.832 9.148 21.68 C9.567 23.68 9.973 25.684 10.375 27.688 C11.035 27.688 11.695 27.688 12.375 27.688 C12.653 26.697 12.653 26.697 12.938 25.688 C15.024 21.333 17.729 17.863 21.375 14.688 C25.062 13.438 25.062 13.438 28.375 13.688 C32.928 16.723 34.719 21.907 35.942 27.09 C36.695 31.605 36.643 36.119 36.688 40.688 C36.731 42.165 36.731 42.165 36.775 43.672 C36.813 47.988 36.701 50.99 34.855 54.938 C31.776 57.11 30.16 56.633 26.552 56.086 C23.187 55.47 19.874 54.685 16.562 53.832 C15.839 53.65 15.116 53.468 14.37 53.28 C12.037 52.691 9.706 52.096 7.375 51.5 C5.762 51.091 4.148 50.682 2.535 50.273 C0.111 49.659 -2.313 49.045 -4.737 48.429 C-9.524 47.213 -14.316 46.024 -19.117 44.863 C-20.21 44.597 -21.303 44.331 -22.43 44.057 C-24.415 43.576 -26.402 43.099 -28.391 42.628 C-41.058 39.53 -41.058 39.53 -44.625 34.688 C-46.831 26.952 -45.089 20.369 -41.449 13.453 C-37.206 6.254 -37.206 6.254 -33.625 4.688 C-29.465 5.846 -27.708 7.379 -25.438 11 C-24.949 11.759 -24.46 12.519 -23.957 13.301 C-22.615 15.706 -21.588 18.11 -20.625 20.688 C-19.944 19.574 -19.264 18.46 -18.562 17.312 C-17.588 15.768 -16.608 14.227 -15.625 12.688 C-15.071 11.812 -14.516 10.937 -13.945 10.035 C-6.781 -0.807 -6.781 -0.807 0 0 Z M-3.625 6.688 C-11.023 15.961 -11.023 15.961 -14.625 26.688 C-19.002 28.754 -19.002 28.754 -21.649 28.471 C-24.184 27.466 -24.709 26.471 -25.984 24.09 C-26.574 23.012 -26.574 23.012 -27.176 21.912 C-27.572 21.157 -27.967 20.403 -28.375 19.625 C-28.786 18.866 -29.197 18.108 -29.621 17.326 C-30.634 15.453 -31.631 13.571 -32.625 11.688 C-33.615 11.688 -34.605 11.688 -35.625 11.688 C-39.762 21.366 -39.762 21.366 -39.625 31.688 C-37.294 34.623 -35.134 35.331 -31.543 36.195 C-30.483 36.456 -29.423 36.716 -28.331 36.984 C-26.589 37.394 -26.589 37.394 -24.812 37.812 C-23.007 38.251 -23.007 38.251 -21.165 38.698 C-17.756 39.521 -14.344 40.334 -10.93 41.142 C-8.481 41.722 -6.031 42.305 -3.583 42.889 C7.399 45.508 18.385 48.106 29.375 50.688 C31.428 41.133 30.28 31.987 27.375 22.688 C25.909 20.804 25.909 20.804 24.375 19.688 C24 20.268 23.625 20.848 23.238 21.445 C21.644 23.879 20.014 26.284 18.375 28.688 C17.957 29.337 17.54 29.987 17.109 30.656 C15.938 32.312 15.938 32.312 13.375 34.688 C9.562 34.562 9.562 34.562 6.375 33.688 C3.004 24.798 0.157 15.774 -2.625 6.688 C-2.955 6.688 -3.285 6.688 -3.625 6.688 Z " fill="#000000" transform="translate(339.625,368.3125)"/>
<path d="M0 0 C-2.907 1.938 -3.82 2.298 -7.105 2.633 C-8.323 2.759 -8.323 2.759 -9.565 2.887 C-10.431 2.966 -11.296 3.044 -12.188 3.125 C-13.072 3.21 -13.957 3.295 -14.868 3.382 C-22.93 4.101 -30.911 4.203 -39 4 C-38.67 3.34 -38.34 2.68 -38 2 C-37.071 1.962 -37.071 1.962 -36.123 1.924 C-33.27 1.807 -30.416 1.685 -27.562 1.562 C-26.589 1.523 -25.615 1.484 -24.611 1.443 C-19.361 1.215 -14.173 0.868 -8.959 0.205 C-5.961 -0.109 -3.012 -0.064 0 0 Z " fill="#000000" transform="translate(490,380)"/>
<path d="M0 0 C3.531 0.648 6.884 1.53 10.301 2.629 C11.765 3.098 11.765 3.098 13.26 3.576 C14.267 3.902 15.275 4.227 16.312 4.562 C17.853 5.057 17.853 5.057 19.424 5.561 C21.95 6.371 24.475 7.185 27 8 C27 8.33 27 8.66 27 9 C20.567 8.766 15.031 7.177 9 5.062 C8.234 4.797 7.467 4.532 6.678 4.259 C1.127 2.255 1.127 2.255 0 0 Z " fill="#000000" transform="translate(195,397)"/>
<path d="M0 0 C0.33 0 0.66 0 1 0 C0.86 3.5 0.712 7 0.562 10.5 C0.523 11.482 0.484 12.465 0.443 13.477 C-0.036 24.534 -0.036 24.534 -1 30 C-1.66 30.33 -2.32 30.66 -3 31 C-2.739 26.906 -2.472 22.813 -2.2 18.72 C-2.109 17.327 -2.019 15.934 -1.93 14.541 C-1.802 12.54 -1.669 10.54 -1.535 8.539 C-1.457 7.335 -1.378 6.13 -1.297 4.889 C-1 2 -1 2 0 0 Z " fill="#000000" transform="translate(615,399)"/>
<path d="M0 0 C3.323 0.486 5.441 1.402 7.746 3.867 C25.079 27.416 29.58 64.18 25.426 92.586 C24.059 99.487 22.354 105.156 17 110 C17.375 110.438 17.75 110.877 18.137 111.328 C29.491 125.399 31.613 142.524 31 160 C29.68 160.33 28.36 160.66 27 161 C24.307 155.17 22.524 149.244 20.812 143.062 C19.884 139.742 18.956 136.421 18 133 C18 141.58 18 150.16 18 159 C16.35 159.33 14.7 159.66 13 160 C10.787 160.473 8.935 161.03 6.871 161.973 C-3.368 166.558 -16.464 166.949 -27.125 163.375 C-35.173 159.826 -42.948 155.103 -47 147 C-47.345 143.991 -47.58 141.904 -47 139 C-42.719 134.196 -38.029 132.351 -31.644 131.795 C-29.009 131.695 -26.387 131.671 -23.75 131.688 C-22.814 131.693 -21.878 131.699 -20.914 131.705 C-8.913 131.916 0.35 135.768 11 141 C10.809 137.414 10.566 133.833 10.312 130.25 C10.232 128.726 10.232 128.726 10.15 127.172 C9.806 121.231 9.806 121.231 6.629 116.41 C5.761 115.945 4.894 115.479 4 115 C2.886 114.402 1.773 113.804 0.625 113.188 C-3.501 111.836 -5.816 111.974 -10 113 C-10.722 113.371 -11.444 113.743 -12.188 114.125 C-14 115 -14 115 -16.25 114.625 C-16.828 114.419 -17.405 114.212 -18 114 C-17.5 112.188 -17.5 112.188 -16 110 C-8.923 106.189 -1.878 106.701 6 107 C5.299 106.361 4.597 105.721 3.875 105.062 C-9.802 91.269 -13.503 72.558 -13.426 53.834 C-12.423 13.162 -12.423 13.162 -2.371 2.109 C-1.589 1.413 -0.806 0.717 0 0 Z M-2 12 C-3.882 16.104 -4.609 20.115 -5.125 24.562 C-5.208 25.275 -5.292 25.988 -5.378 26.722 C-6.053 32.854 -6.325 38.831 -6 45 C-5.97 45.674 -5.939 46.348 -5.908 47.042 C-5.351 57.866 -3.48 68.092 -0.688 78.562 C-0.404 79.632 -0.12 80.701 0.172 81.803 C2.152 88.873 4.773 95.409 8 102 C8.33 102 8.66 102 9 102 C8.95 101.223 8.9 100.447 8.848 99.646 C8.696 97.281 8.543 94.916 8.391 92.55 C8.212 89.78 8.032 87.009 7.852 84.239 C7.426 77.689 7.004 71.139 6.616 64.587 C6.493 62.513 6.368 60.44 6.242 58.367 C6.085 55.777 5.933 53.186 5.786 50.595 C5.119 39.743 3.814 29.17 0.875 18.688 C0.693 18.031 0.511 17.374 0.324 16.697 C-0.111 15.13 -0.554 13.565 -1 12 C-1.33 12 -1.66 12 -2 12 Z M6 13 C5.887 19.051 6.198 24.722 7.188 30.688 C7.382 31.896 7.382 31.896 7.58 33.13 C8.658 39.564 10.071 45.9 11.562 52.25 C14.964 66.784 16.352 81.109 17 96 C19.331 95.12 19.331 95.12 20.07 92.105 C27.957 64.295 20.154 37.84 7 13 C6.67 13 6.34 13 6 13 Z M-39 140 C-38.67 140.66 -38.34 141.32 -38 142 C-35.596 142.549 -35.596 142.549 -32.68 142.816 C-31.04 143.003 -31.04 143.003 -29.367 143.193 C-27.639 143.376 -27.639 143.376 -25.875 143.562 C-23.622 143.813 -21.37 144.065 -19.117 144.316 C-18.052 144.433 -16.986 144.549 -15.888 144.669 C-13.573 144.934 -11.276 145.236 -8.973 145.586 C-5.255 146.104 -1.748 146.066 2 146 C-2.853 140.559 -8.684 137.429 -15.995 136.839 C-18.268 136.793 -20.54 136.765 -22.812 136.75 C-23.594 136.729 -24.376 136.709 -25.182 136.688 C-30.551 136.652 -34.206 137.568 -39 140 Z M-40 149 C-36.577 154.867 -31.215 156.263 -25 158 C-16.459 159.781 -4.928 161.06 3.062 157 C4.032 156.34 5.001 155.68 6 155 C6 154.01 6 153.02 6 152 C4.549 152.024 4.549 152.024 3.069 152.048 C-0.576 152.103 -4.221 152.137 -7.867 152.165 C-9.434 152.18 -11.001 152.2 -12.568 152.226 C-22.17 152.383 -30.754 152.002 -40 149 Z " fill="#000000" transform="translate(137,416)"/>
<path d="M0 0 C0.66 0 1.32 0 2 0 C-1.173 18.027 -1.173 18.027 -5 25 C-5.66 25.33 -6.32 25.66 -7 26 C-6.587 24.866 -6.175 23.731 -5.75 22.562 C-3.275 15.198 -1.712 7.57 0 0 Z " fill="#000000" transform="translate(665,433)"/>
<path d="M0 0 C3.306 1.452 4.299 3.4 5.711 6.648 C12.224 25.59 7.269 47.162 -0.742 64.875 C-3.451 70.067 -6.742 74.597 -10.438 79.125 C-11.077 79.928 -11.716 80.731 -12.375 81.559 C-18.143 88.454 -24.468 94.331 -33.438 96.125 C-33.107 102.065 -32.778 108.005 -32.438 114.125 C-26.81 108.612 -21.623 102.843 -16.5 96.863 C-2.723 81.014 15.162 69.665 34.188 61.062 C34.863 60.751 35.538 60.439 36.234 60.118 C38.942 58.938 40.984 58.064 43.961 58.379 C45.562 59.125 45.562 59.125 46.562 60.125 C47.842 71.749 45.135 81.837 38 91.125 C36.865 92.467 35.719 93.801 34.562 95.125 C33.932 95.945 33.302 96.765 32.652 97.609 C19.62 113.297 -6.319 127.621 -26.438 131.125 C-32.73 131.677 -32.73 131.677 -35.551 129.477 C-45.255 117.381 -43.189 89.124 -41.722 74.48 C-38.725 49.681 -24.851 29.604 -10.875 9.562 C-10.375 8.842 -9.874 8.121 -9.358 7.379 C-8.888 6.716 -8.418 6.054 -7.934 5.371 C-7.523 4.79 -7.112 4.209 -6.689 3.611 C-4.702 1.252 -3.09 0.158 0 0 Z M-5.715 11.372 C-6.192 11.953 -6.669 12.534 -7.16 13.133 C-7.694 13.783 -8.229 14.433 -8.779 15.103 C-9.631 16.166 -9.631 16.166 -10.5 17.25 C-11.082 17.973 -11.664 18.697 -12.264 19.442 C-26.124 36.919 -35.702 55.201 -35.5 78.062 C-35.495 78.746 -35.491 79.43 -35.486 80.135 C-35.475 81.798 -35.457 83.462 -35.438 85.125 C-32.977 82.664 -32.324 80.501 -31.062 77.25 C-28.461 70.866 -25.159 65.061 -21.562 59.188 C-11.61 42.925 -4.58 29.255 -2.438 10.125 C-4.496 9.892 -4.496 9.892 -5.715 11.372 Z M0.562 22.125 C-2.496 28.613 -5.251 35.136 -7.723 41.868 C-13.591 57.824 -20.833 72.939 -28.438 88.125 C-24.156 88.125 -22.627 86.11 -19.555 83.297 C-5.656 69.039 1.641 47.027 1.688 27.375 C1.656 25.625 1.618 23.875 1.562 22.125 C1.233 22.125 0.903 22.125 0.562 22.125 Z M23.062 71.625 C22.011 72.226 20.959 72.826 19.875 73.445 C12.932 77.484 6.684 81.932 0.562 87.125 C-0.426 87.942 -1.415 88.76 -2.434 89.602 C-10.385 96.598 -19.145 105.279 -23.438 115.125 C-8.097 110.52 5.106 99.816 17.562 90.125 C18.125 89.694 18.687 89.264 19.266 88.82 C23.054 85.816 25.888 82.473 28.75 78.625 C29.175 78.069 29.599 77.514 30.037 76.941 C34.591 71.553 34.591 71.553 36.562 65.125 C31.877 65.125 27.012 69.321 23.062 71.625 Z M36.562 76.125 C36.085 76.618 35.608 77.111 35.116 77.619 C15.621 97.668 -4.34 110.905 -29.438 123.125 C-29.438 123.785 -29.438 124.445 -29.438 125.125 C-6.554 121.592 16.459 109.747 30.562 91.125 C33.234 86.984 35.67 82.677 37.562 78.125 C37.067 77.135 37.067 77.135 36.562 76.125 Z " fill="#000000" transform="translate(208.4375,435.875)"/>
<path d="M0 0 C2 1 2 1 3.125 4.312 C4 8 4 8 4 12 C3.34 12 2.68 12 2 12 C1.34 8.04 0.68 4.08 0 0 Z " fill="#000000" transform="translate(704,477)"/>
<path d="M0 0 C2.031 3.047 2.247 3.601 2.195 7.012 C2.189 7.769 2.182 8.526 2.176 9.307 C2.159 10.092 2.142 10.878 2.125 11.688 C2.116 12.485 2.107 13.282 2.098 14.104 C2.074 16.069 2.038 18.035 2 20 C1.67 20 1.34 20 1 20 C0.67 13.4 0.34 6.8 0 0 Z " fill="#000000" transform="translate(708,498)"/>
<path d="M0 0 C1.32 0 2.64 0 4 0 C5.188 2.376 5.129 3.851 5.133 6.5 C5.134 7.387 5.135 8.274 5.137 9.188 C5.133 10.116 5.129 11.044 5.125 12 C5.129 12.928 5.133 13.856 5.137 14.812 C5.135 15.699 5.134 16.586 5.133 17.5 C5.132 18.315 5.131 19.129 5.129 19.969 C5 22 5 22 4 24 C2.35 23.67 0.7 23.34 -1 23 C-1.029 19.354 -1.047 15.708 -1.062 12.062 C-1.071 11.022 -1.079 9.981 -1.088 8.908 C-1.093 7.424 -1.093 7.424 -1.098 5.91 C-1.103 4.994 -1.108 4.077 -1.114 3.133 C-1 1 -1 1 0 0 Z " fill="#000000" transform="translate(328,510)"/>
<path d="M0 0 C-6.573 2.434 -13.083 3.901 -20 5 C-17.272 2.272 -14.191 1.758 -10.562 0.812 C-9.541 0.527 -9.541 0.527 -8.498 0.236 C-5.138 -0.655 -3.365 -1.122 0 0 Z " fill="#000000" transform="translate(314,539)"/>
<path d="M0 0 C6.001 6.032 7.442 11.456 7.436 19.846 C7.053 33.479 0.792 46.748 -8.899 56.22 C-12.733 59.468 -17.068 61.734 -21.5 64.062 C-22.478 64.582 -23.455 65.101 -24.462 65.637 C-56.236 82.284 -91.555 85.133 -126 75 C-136.993 71.447 -151.599 66.398 -159 57 C-160.925 52.188 -159.815 48.859 -158.062 44.188 C-155.244 37.961 -151.579 33.037 -147 28 C-145.998 26.877 -145.998 26.877 -144.977 25.73 C-124.6 4.104 -93.963 -8.029 -65 -12 C-64.178 -12.129 -63.355 -12.258 -62.508 -12.391 C-41.954 -15.093 -16.174 -14.517 0 0 Z M-140.688 33.812 C-149.171 42.727 -149.171 42.727 -152.887 53.645 C-149.823 61.783 -140.385 66.458 -133 70 C-105.742 81.571 -72.391 82.95 -44.434 72.906 C-38.163 70.317 -32.112 67.249 -26.062 64.188 C-24.9 63.607 -23.738 63.027 -22.541 62.428 C-14.009 57.986 -6.219 52.93 -2.125 43.875 C-1.742 43.029 -1.359 42.184 -0.965 41.312 C-0.646 40.549 -0.328 39.786 0 39 C0.433 37.969 0.866 36.938 1.312 35.875 C3.202 27.975 1.651 22.099 -2 15 C-9.024 3.584 -17.89 -1.048 -30.582 -4.754 C-68.251 -13.237 -115.134 6.461 -140.688 33.812 Z " fill="#000000" transform="translate(395,552)"/>
<path d="M0 0 C1.32 0.66 2.64 1.32 4 2 C4.081 4.124 4.139 6.25 4.188 8.375 C4.222 9.558 4.257 10.742 4.293 11.961 C4.196 12.964 4.1 13.967 4 15 C3.01 15.66 2.02 16.32 1 17 C-2.13 13.87 -2.152 10.673 -2.188 6.375 C-2.202 5.599 -2.216 4.823 -2.23 4.023 C-2 2 -2 2 0 0 Z " fill="#000000" transform="translate(328,557)"/>
<path d="M0 0 C0.66 0.33 1.32 0.66 2 1 C0.381 2.03 -1.245 3.049 -2.875 4.062 C-3.78 4.631 -4.685 5.199 -5.617 5.785 C-6.404 6.186 -7.19 6.587 -8 7 C-8.66 6.67 -9.32 6.34 -10 6 C-8.381 4.97 -6.755 3.951 -5.125 2.938 C-4.22 2.369 -3.315 1.801 -2.383 1.215 C-1.203 0.613 -1.203 0.613 0 0 Z " fill="#000000" transform="translate(259,558)"/>
<path d="M0 0 C2.83 1.115 5.493 2.261 8.188 3.688 C12.708 5.655 17.284 5.096 22 4 C22.99 3.34 23.98 2.68 25 2 C27.688 1.875 27.688 1.875 30 2 C29.684 4.926 29.498 6.536 27.305 8.582 C22.269 11.68 15.93 12.415 10.133 11.594 C5.662 10.373 1.541 9.113 -1 5 C-0.75 2.25 -0.75 2.25 0 0 Z " fill="#000000" transform="translate(313,574)"/>
<path d="M0 0 C0.66 0.33 1.32 0.66 2 1 C0.52 7.292 -1.341 11.164 -6.875 14.984 C-8.422 15.858 -8.422 15.858 -10 16.75 C-11.031 17.343 -12.062 17.936 -13.125 18.547 C-15.491 19.743 -17.415 20.528 -20 21 C-20 20.34 -20 19.68 -20 19 C-19.215 18.66 -18.43 18.319 -17.621 17.969 C-10.761 14.804 -4.959 11.65 -1 5 C-0.301 2.352 -0.301 2.352 0 0 Z " fill="#000000" transform="translate(364,579)"/>
<path d="M0 0 C0.33 0 0.66 0 1 0 C1.268 1.258 1.536 2.516 1.812 3.812 C2.595 6.994 3.253 9.002 6 11 C4.188 10.812 4.188 10.812 2 10 C0.188 7.75 0.188 7.75 -1 5 C-0.688 2.188 -0.688 2.188 0 0 Z " fill="#000000" transform="translate(296,582)"/>
<path d="M0 0 C0.33 0 0.66 0 1 0 C0.608 5.955 -0.371 10.628 -3 16 C-3.66 15.67 -4.32 15.34 -5 15 C-4.546 14.01 -4.092 13.02 -3.625 12 C-1.933 8.079 -0.949 4.159 0 0 Z " fill="#000000" transform="translate(416,587)"/>
<path d="M0 0 C0.33 0 0.66 0 1 0 C1.133 0.675 1.266 1.351 1.402 2.047 C1.579 2.939 1.756 3.831 1.938 4.75 C2.199 6.073 2.199 6.073 2.465 7.422 C2.924 9.632 3.433 11.815 4 14 C1 12 1 12 0 9 C-0.067 7.439 -0.085 5.875 -0.062 4.312 C-0.053 3.504 -0.044 2.696 -0.035 1.863 C-0.024 1.248 -0.012 0.634 0 0 Z " fill="#000000" transform="translate(277,594)"/>
<path d="M0 0 C0.66 0 1.32 0 2 0 C0.528 3.7 -0.975 7.385 -2.5 11.062 C-2.923 12.085 -3.346 13.107 -3.781 14.16 C-4.781 16.49 -5.835 18.75 -7 21 C-7.66 21 -8.32 21 -9 21 C-8.661 13.543 -5.303 5.303 0 0 Z " fill="#000000" transform="translate(530,596)"/>
<path d="M0 0 C0.33 0.66 0.66 1.32 1 2 C0.536 2.804 0.536 2.804 0.062 3.625 C-1.92 8.057 -1.525 13.426 0 18 C-3 16 -3 16 -3.875 12.875 C-4.031 8.051 -2.964 5.38 -1 1 C-0.67 0.67 -0.34 0.34 0 0 Z " fill="#000000" transform="translate(211,602)"/>
<path d="M0 0 C1 3 1 3 -0.555 6.406 C-1.314 7.779 -2.088 9.143 -2.875 10.5 C-3.283 11.213 -3.692 11.927 -4.113 12.661 C-9.131 21.211 -14.983 29.039 -23 35 C-21.609 31.857 -19.97 29.808 -17.562 27.375 C-10.353 19.478 -4.689 9.593 0 0 Z " fill="#000000" transform="translate(437,605)"/>
<path d="M0 0 C0.66 0.33 1.32 0.66 2 1 C-4.535 4.324 -10.754 5.971 -18 7 C-18 6.34 -18 5.68 -18 5 C-16.868 4.723 -15.736 4.446 -14.57 4.16 C-13.089 3.794 -11.607 3.429 -10.125 3.062 C-9.379 2.88 -8.632 2.698 -7.863 2.51 C-3.83 1.548 -3.83 1.548 0 0 Z " fill="#000000" transform="translate(351,609)"/>
<path d="M0 0 C-1.202 10.384 -9.319 18.422 -17 25 C-20.541 27.577 -24.194 29.836 -28 32 C-28.779 32.451 -29.557 32.902 -30.359 33.367 C-59.678 49.207 -96.522 46.53 -127.478 37.402 C-161.303 26.996 -161.303 26.996 -170.312 13.562 C-170.824 12.821 -171.336 12.08 -171.863 11.316 C-173.159 8.676 -173.22 6.904 -173 4 C-172.34 4 -171.68 4 -171 4 C-167 8.471 -167 8.471 -167 11 C-166.406 11.271 -165.812 11.543 -165.199 11.823 C-163.045 12.976 -161.578 14.172 -159.809 15.84 C-155.905 19.26 -151.761 21.414 -147.062 23.562 C-146.229 23.948 -145.396 24.334 -144.537 24.731 C-114.223 38.437 -76.404 43.91 -44.625 32.25 C-28.52 25.915 -16.902 15.857 -5.742 2.898 C-3.792 0.774 -2.897 0 0 0 Z " fill="#000000" transform="translate(397,611)"/>
<path d="M0 0 C4.27 0.669 7.905 2.126 11.875 3.812 C37.8 14.451 65.538 15.406 92.872 10.389 C95.99 9.819 99.12 9.32 102.25 8.812 C103.834 8.543 105.417 8.273 107 8 C103.419 11.15 99.331 12.53 94.875 14 C94.087 14.261 93.298 14.521 92.486 14.79 C62.648 24.249 34.283 18.602 6.796 4.665 C4.201 3.302 2.084 2.084 0 0 Z " fill="#000000" transform="translate(250,622)"/>
<path d="M0 0 C1.879 0.629 1.879 0.629 4 2 C11.346 19.035 12.568 40.577 15.312 58.75 C15.484 59.874 15.655 60.997 15.832 62.155 C16.613 67.493 17.208 72.605 17 78 C14.525 78.495 14.525 78.495 12 79 C9.719 68.264 7.879 57.469 6.061 46.646 C4.929 40.018 3.709 33.428 2.309 26.852 C2.168 26.19 2.027 25.528 1.883 24.846 C1.201 21.653 0.505 18.464 -0.208 15.279 C-0.457 14.135 -0.705 12.991 -0.961 11.812 C-1.186 10.808 -1.41 9.804 -1.642 8.77 C-2.017 5.867 -1.799 3.802 -1 1 C-0.67 0.67 -0.34 0.34 0 0 Z " fill="#000000" transform="translate(598,625)"/>
<path d="M0 0 C0.66 0 1.32 0 2 0 C2 4.62 2 9.24 2 14 C1.34 14 0.68 14 0 14 C-1.244 11.512 -1.133 9.773 -1.125 7 C-1.128 6.113 -1.13 5.226 -1.133 4.312 C-1 2 -1 2 0 0 Z " fill="#000000" transform="translate(519,634)"/>
<path d="M0 0 C4.502 2.528 8.115 4.673 11 9 C11.36 11.879 11.458 13.359 9.75 15.75 C4.61 19.422 -2.517 18.386 -8.418 17.469 C-16.458 15.883 -23.224 14.223 -29.562 8.812 C-31.602 4.823 -31.329 1.249 -30 -3 C-22.783 -12.005 -8.314 -3.883 0 0 Z M-24.062 -0.812 C-25.188 0.952 -25.188 0.952 -24.781 2.949 C-23.311 6.81 -19.55 8.244 -16 10 C-9.836 12.443 -3.538 12.216 3 12 C3 11.01 3 10.02 3 9 C-2.944 3.738 -15.83 -5.553 -24.062 -0.812 Z " fill="#000000" transform="translate(216,651)"/>
<path d="M0 0 C-6.497 3.16 -12.991 5.271 -20 7 C-20 6.34 -20 5.68 -20 5 C-19.192 4.734 -18.384 4.469 -17.551 4.195 C-16.482 3.842 -15.414 3.489 -14.312 3.125 C-12.729 2.603 -12.729 2.603 -11.113 2.07 C-8.036 1.061 -8.036 1.061 -5.293 -0.195 C-3 -1 -3 -1 0 0 Z " fill="#000000" transform="translate(358,669)"/>
<path d="M0 0 C1.106 0.21 1.106 0.21 2.233 0.424 C7.874 1.712 11.367 4.323 15.438 8.375 C15.312 10.688 15.312 10.688 14.438 13.375 C7.001 18.394 -2.308 18.719 -11 18.688 C-11.877 18.704 -12.754 18.72 -13.658 18.736 C-21.233 18.742 -28.09 17.389 -34.688 13.562 C-36.562 11.375 -36.562 11.375 -37.188 8.438 C-36.349 4.328 -34.84 2.94 -31.562 0.375 C-21.662 -3.682 -10.234 -2.099 0 0 Z M-30.562 6.375 C-30.06 8.389 -30.06 8.389 -28.562 10.375 C-22.597 12.671 -16.898 12.676 -10.562 12.625 C-9.603 12.633 -8.644 12.64 -7.656 12.648 C-2.232 12.634 2.312 12.169 7.438 10.375 C2.774 4.865 -5.385 4.546 -12.18 3.859 C-13.786 3.731 -15.393 3.611 -17 3.5 C-17.769 3.439 -18.538 3.377 -19.33 3.314 C-23.986 3.066 -26.715 3.423 -30.562 6.375 Z " fill="#000000" transform="translate(294.5625,675.625)"/>
<path d="M0 0 C1.038 0.485 2.076 0.97 3.145 1.47 C11.425 5.491 21.088 10.206 26.188 18.188 C26.688 20.688 26.688 20.688 26.188 23.188 C19.86 29.307 11.361 29.255 2.973 29.223 C-16.573 28.713 -41.418 25.124 -56.5 11.684 C-59.493 8.427 -60.719 5.586 -60.812 1.188 C-59.732 -3.735 -56.826 -5.957 -52.812 -8.812 C-35.01 -16.234 -16.082 -7.549 0 0 Z M-52.875 -2.062 C-54.359 1.499 -53.951 3.52 -52.812 7.188 C-44.301 18.463 -24.763 21.347 -11.812 23.438 C-1.08 24.787 9.08 25.443 19.188 21.188 C19.535 18.164 19.535 18.164 17.59 16.531 C4.754 6.929 -10.465 0.151 -25.75 -4.5 C-26.547 -4.744 -27.344 -4.988 -28.166 -5.239 C-36.759 -7.661 -45.694 -8.155 -52.875 -2.062 Z " fill="#000000" transform="translate(210.8125,691.8125)"/>
<path d="M0 0 C0.928 0.742 0.928 0.742 1.875 1.5 C1.664 5.197 1.023 6.36 -1.711 8.953 C-5.095 11.648 -8.651 13.397 -12.625 15.062 C-13.67 15.506 -13.67 15.506 -14.735 15.959 C-37.815 25.531 -37.815 25.531 -48.363 21.684 C-50.125 20.5 -50.125 20.5 -51.188 17.188 C-51.125 13.5 -51.125 13.5 -49.188 10.812 C-42.851 6.028 -36.148 3.7 -28.5 1.812 C-27.68 1.6 -26.86 1.388 -26.016 1.17 C-7.43 -3.566 -7.43 -3.566 0 0 Z M-41.125 12.5 C-42.587 14.597 -42.587 14.597 -43.125 16.5 C-37.647 16.743 -33.167 15.97 -27.938 14.375 C-27.202 14.156 -26.466 13.936 -25.707 13.71 C-19.122 11.663 -13.146 8.876 -7.125 5.5 C-7.125 5.17 -7.125 4.84 -7.125 4.5 C-20.25 3.406 -30.144 4.824 -41.125 12.5 Z " fill="#000000" transform="translate(380.125,716.5)"/>
<path d="M0 0 C6.994 3.804 12.015 8.904 17 15 C18.316 16.35 19.64 17.694 21 19 C21.278 17.917 21.278 17.917 21.562 16.812 C23.952 12.138 28.092 9.636 33 8 C38.267 7.496 42.632 7.328 47.438 9.688 C52.594 14.341 55.747 18.458 56.25 25.5 C56.014 28.81 55.436 31.038 54 34 C53.34 34 52.68 34 52 34 C51.625 32.975 51.25 31.95 50.863 30.895 C50.347 29.534 49.83 28.173 49.312 26.812 C48.946 25.802 48.946 25.802 48.572 24.771 C46.81 20.198 44.805 17.251 41 14 C37.829 12.613 35.258 12.885 32 14 C30.98 15.746 30.98 15.746 30 18 C28.92 20.075 27.814 22.137 26.688 24.188 C25.827 25.787 25.827 25.787 24.949 27.418 C23 30 23 30 20.27 30.863 C19.521 30.908 18.772 30.954 18 31 C15.107 27.567 12.914 24.147 10.812 20.188 C7.529 14.488 3.795 9.334 -2 6 C-5.186 5.728 -5.186 5.728 -8 6 C-11.165 12.889 -9.834 20.203 -7.938 27.312 C-7.069 30.729 -6.825 33.499 -7 37 C-8.485 37.495 -8.485 37.495 -10 38 C-14.711 33.724 -15.789 28.603 -16.293 22.391 C-16.592 8.227 -16.592 8.227 -13 2 C-9.14 -1.75 -4.909 -1.668 0 0 Z " fill="#000000" transform="translate(255,740)"/>
<path d="M0 0 C-0.315 2.957 -0.52 4.547 -2.723 6.625 C-16.301 14.604 -34.204 19.732 -50 18 C-54.971 16.029 -54.971 16.029 -57 14 C-57.562 11.25 -57.562 11.25 -57 8 C-50.279 2.119 -41.517 0.786 -33 -1 C-31.964 -1.228 -30.927 -1.456 -29.859 -1.691 C-20.721 -3.477 -7.859 -5.739 0 0 Z M-50 10 C-50 10.66 -50 11.32 -50 12 C-35.773 12.877 -23.12 9.226 -10 4 C-10 3.34 -10 2.68 -10 2 C-24.309 1.201 -37.684 1.79 -50 10 Z " fill="#000000" transform="translate(437,742)"/>
</svg>
