<?xml version="1.0" encoding="UTF-8"?>
<!-- Generator: visioncortex VTracer 0.6.3 -->
<svg version="1.1" xmlns="http://www.w3.org/2000/svg" width="985" height="985">
<path d="M0 0 C1.44 0.19 1.44 0.19 2.91 0.38 C11.52 1.63 19.65 4.13 27.88 6.88 C28.59 7.11 29.31 7.35 30.05 7.6 C46.03 12.95 60.87 19.85 74.06 30.48 C76.13 32.16 76.13 32.16 79.12 33.94 C82.39 36.28 84.72 38.88 87.29 41.96 C88.92 43.96 88.92 43.96 90.5 45.51 C92.17 47.24 93.57 49.05 95 51 C95.71 51.95 96.42 52.89 97.15 53.87 C110.39 73.95 102.64 107.96 100.55 130.75 C100.05 136.29 99.67 141.84 99.36 147.39 C99 150 99 150 97 154 C92.38 153.67 87.76 153.34 83 153 C83 153.99 83 154.98 83 156 C83.61 156.2 84.23 156.41 84.86 156.62 C89.93 158.31 89.93 158.31 95 160 C100.33 160.34 100.33 160.34 105 158 C106.39 154.07 106.34 149.88 106.56 145.75 C106.61 145 106.65 144.26 106.69 143.49 C106.8 141.66 106.9 139.83 107 138 C112.23 139.57 115.85 142.91 119.94 146.38 C121.05 147.31 121.05 147.31 122.19 148.26 C124.47 150.16 126.73 152.08 129 154 C129.69 154.58 130.37 155.16 131.08 155.75 C132.97 157.35 134.86 158.96 136.75 160.56 C137.31 161.04 137.87 161.51 138.45 162 C143.67 166.49 148.32 171.23 152.69 176.56 C153.45 177.49 154.22 178.42 155.01 179.38 C159.01 184.65 160.07 189.4 160 196 C158.74 199.37 157.87 200.52 154.75 202.25 C148.55 203.94 142.44 204.16 136.06 204.12 C135.22 204.12 134.38 204.12 133.52 204.11 C115.48 203.94 96.49 202.7 79 198 C78.91 199.07 78.83 200.13 78.74 201.23 C77 220.49 72.36 238.13 63.28 255.24 C60.93 260.31 62.87 264.71 64.69 269.69 C64.98 270.41 65.27 271.14 65.57 271.89 C66 274 66 274 65.21 276.21 C64 278 64 278 62 279 C59.96 279.07 57.92 279.08 55.88 279.06 C54.78 279.05 53.68 279.04 52.55 279.04 C51.71 279.02 50.87 279.01 50 279 C49.65 279.69 49.3 280.38 48.93 281.09 C45.5 287.62 41.71 293.33 37 299 C36.56 299.58 36.13 300.16 35.68 300.76 C23.12 316.9 2.78 325.3 -16.84 328.46 C-25.2 329.45 -33.7 329.48 -42 328 C-42 328.66 -42 329.32 -42 330 C-41.43 330.26 -40.86 330.53 -40.27 330.8 C-32.06 335.15 -25.31 342.45 -18.61 348.78 C-13.28 353.8 -7.75 358.46 -2 363 C4.15 367.88 10.2 372.84 16.17 377.92 C19.51 380.76 22.88 383.53 26.31 386.25 C29.98 389.16 33.54 392.15 37.04 395.27 C38.44 396.5 39.85 397.72 41.27 398.92 C42.01 399.55 42.74 400.17 43.5 400.81 C44.17 401.38 44.84 401.94 45.53 402.52 C47 404 47 404 47 406 C44.66 407.84 42.3 409.58 39.88 411.31 C34.08 415.57 28.5 419.97 23.19 424.81 C22.32 425.58 22.32 425.58 21.43 426.37 C17.63 429.91 15.61 433.04 14 438 C14.33 438.66 14.66 439.32 15 440 C17.26 440.46 17.26 440.46 20 440 C22.1 438.21 23.86 436.53 25.69 434.5 C27.42 432.62 29.18 430.8 31 429 C31.66 429 32.32 429 33 429 C33.33 428.01 33.66 427.02 34 426 C36.08 424.09 36.08 424.09 38.81 421.94 C39.81 421.14 40.81 420.35 41.83 419.53 C42.35 419.11 42.88 418.7 43.42 418.27 C45.98 416.22 48.49 414.11 51 412 C72.59 394 72.59 394 76 394 C76.31 393.16 76.31 393.16 76.62 392.31 C78.97 388.38 82.52 385.87 86.41 383.58 C89.04 381.98 91.32 380.21 93.69 378.25 C97.98 374.75 102.41 371.63 107.07 368.64 C109.28 366.76 109.51 365.78 110 363 C112.03 361.69 114.06 360.98 116.33 360.17 C120.15 358.49 123.2 355.99 126.5 353.46 C129.28 351.83 130.83 351.69 134 352 C134.11 351.46 134.22 350.92 134.34 350.36 C137.56 335.19 143.34 320.79 149.25 306.5 C149.51 305.86 149.77 305.23 150.04 304.57 C156.42 289.15 156.42 289.15 159.77 286.71 C162.76 285.76 165.46 285.69 168.6 285.62 C169.9 285.59 171.19 285.55 172.53 285.52 C173.89 285.49 175.26 285.46 176.62 285.44 C185.12 285.25 193.56 285.04 202 284 C202.12 283.26 202.25 282.52 202.38 281.76 C203.81 273.27 203.81 273.27 207 271 C209.69 270.31 209.69 270.31 212 270 C212.27 268.87 212.53 267.73 212.8 266.56 C213.16 265.04 213.52 263.52 213.88 262 C214.05 261.26 214.22 260.51 214.4 259.75 C215.56 254.82 216.76 249.91 218 245 C217.16 244.66 217.16 244.66 216.31 244.31 C206.16 238.55 199.73 225.75 196.19 215.06 C192.19 199.06 194.65 181.69 202.05 167.23 C204.12 163.8 206.38 161.03 209 158 C209.66 157.01 210.32 156.02 211 155 C211.78 154.69 212.57 154.38 213.38 154.06 C216.07 153.18 216.07 153.18 217.75 151.12 C226.02 143.32 238.96 142.6 249.74 142.63 C266.85 143.12 283.66 150.11 296 162 C306.75 173.7 310.62 185.16 310.25 201.12 C308.72 218.71 301.81 229.9 289.12 241.75 C274.95 253.64 258.89 256.79 241 257 C240.13 259.75 239.28 262.5 238.44 265.25 C238.07 266.42 238.07 266.42 237.69 267.61 C237.46 268.36 237.23 269.11 237 269.89 C236.78 270.58 236.57 271.27 236.35 271.99 C235.95 274.32 236.3 275.76 237 278 C237.16 278.82 237.33 279.65 237.5 280.5 C239.27 283.44 240.2 283.69 243.31 284.94 C248.1 286.87 250.24 288.6 253 293 C254.68 298.34 253.77 301.44 251.3 306.2 C250 308 250 308 247.86 309.34 C245.67 310.91 245.67 310.91 245.71 313.93 C245.83 315.6 245.83 315.6 245.94 317.31 C246.28 322.66 245.37 325.27 243 330 C242.71 332.64 242.54 335.11 242.5 337.75 C241.85 353.12 236.18 364.9 225 375.55 C220.37 379.33 215.49 381.73 210 384 C209.11 384.39 208.22 384.78 207.3 385.18 C202.27 387.29 197.32 388.79 192 390 C191.01 390.33 190.02 390.66 189 391 C186.43 391.23 183.88 391.42 181.31 391.56 C180.61 391.61 179.91 391.65 179.19 391.69 C177.46 391.8 175.73 391.9 174 392 C174.5 392.56 174.99 393.11 175.5 393.69 C177.32 396.5 177.63 397.71 177 401 C174.95 403.35 174.95 403.35 172.25 405.62 C171.37 406.38 170.49 407.14 169.58 407.91 C163.29 413 163.29 413 161 413 C161 413.66 161 414.32 161 415 C161.58 414.71 162.15 414.42 162.75 414.12 C164.83 413.08 166.92 412.04 169 411 C170.56 412.06 170.56 412.06 172 414 C171.83 418.68 171.12 421.54 168 425 C165.62 426.49 165.62 426.49 162.88 427.88 C158.45 430.19 154.35 432.7 150.23 435.51 C147.12 437.59 143.91 439.49 140.69 441.39 C137.86 443.09 135.05 444.82 132.25 446.56 C128.07 449.15 123.87 451.67 119.63 454.16 C118.67 454.72 117.71 455.28 116.73 455.86 C114.83 456.96 112.94 458.07 111.04 459.17 C105.6 462.35 100.38 465.73 95.25 469.41 C85.94 476 85.94 476 83 476 C83 476.66 83 477.32 83 478 C74.51 482.5 65.7 483.05 56.31 483.79 C54.11 483.99 51.93 484.27 49.73 484.56 C34.5 486.27 17.93 485.73 4 479 C-1.65 476.34 -7.16 474.94 -13.25 473.62 C-20.99 471.87 -28 469.83 -35 466 C-35.78 465.6 -36.56 465.2 -37.37 464.79 C-41.3 462.71 -44.62 460.51 -48 457.62 C-51.02 455.28 -52.74 454.64 -56.56 455.06 C-58.05 455.36 -59.52 455.67 -61 456 C-65.65 456.76 -70.1 457.12 -74.81 457.1 C-76.05 457.09 -77.29 457.09 -78.57 457.09 C-80.48 457.08 -80.48 457.08 -82.44 457.06 C-84.39 457.06 -84.39 457.06 -86.39 457.05 C-89.59 457.04 -92.8 457.02 -96 457 C-96.25 458.06 -96.51 459.12 -96.77 460.21 C-97.12 461.6 -97.46 462.99 -97.81 464.38 C-97.98 465.07 -98.14 465.77 -98.31 466.49 C-99.66 471.77 -99.66 471.77 -103 474 C-105.33 474.08 -107.67 474.09 -110 474 C-110.14 474.64 -110.29 475.28 -110.44 475.94 C-111 478 -111 478 -112 479 C-114.62 478.96 -117.21 478.84 -119.82 478.68 C-121.07 478.61 -121.07 478.61 -122.35 478.54 C-128.57 478.18 -134.77 477.74 -140.98 477.29 C-145.73 476.95 -150.48 476.63 -155.23 476.31 C-157.69 476.14 -160.14 475.96 -162.6 475.77 C-166.18 475.5 -169.77 475.26 -173.37 475.04 C-174.46 474.94 -175.56 474.85 -176.69 474.75 C-182.01 474.25 -182.01 474.25 -186.67 476.31 C-187.85 477.82 -188.93 479.41 -190 481 C-192.13 481.8 -192.13 481.8 -194.45 481.87 C-195.41 481.9 -196.37 481.94 -197.36 481.98 C-198.56 481.99 -199.76 481.99 -201 482 C-202.6 482.02 -204.2 482.05 -205.8 482.08 C-210.51 482.13 -215.21 482.14 -219.91 482.13 C-222.86 482.13 -225.81 482.13 -228.75 482.14 C-237.31 482.14 -245.77 482.04 -254.29 481.28 C-275.3 479.67 -296.38 479.9 -317.44 480 C-322.48 480.02 -327.53 480.04 -332.58 480.06 C-334.55 480.06 -336.53 480.07 -338.51 480.09 C-345.73 480.11 -352.82 479.82 -360 479 C-360.88 475.78 -360.99 473.4 -360.61 470.07 C-360.19 465.97 -359.85 461.89 -359.61 457.78 C-358.05 432.02 -355.44 406.4 -350.39 381.08 C-350.02 379.09 -349.73 377.09 -349.45 375.09 C-349 372 -349 372 -348.06 369.25 C-346.77 365.31 -346.13 361.38 -345.46 357.29 C-345 355 -345 355 -344 354 C-343.52 351.89 -343.05 349.78 -342.6 347.66 C-341.04 340.73 -339.06 333.92 -336.75 327.2 C-336.22 325.66 -335.71 324.1 -335.21 322.55 C-334.96 321.75 -334.7 320.95 -334.44 320.12 C-334.21 319.41 -333.98 318.69 -333.75 317.95 C-333 316 -333 316 -331 313 C-329.95 309.73 -329.03 306.44 -328.1 303.13 C-327.06 300.16 -325.92 298.43 -324 296 C-323.36 293.96 -322.71 291.93 -322.08 289.89 C-320.4 285.4 -318.17 281.22 -315.98 276.96 C-314.02 273.12 -312.26 269.3 -310.75 265.25 C-309.36 261.59 -307.82 259.74 -305 257 C-304.19 255.5 -303.42 253.98 -302.69 252.44 C-299.9 246.64 -296.51 241.38 -293 236 C-292.24 234.8 -291.48 233.6 -290.73 232.4 C-290.34 231.79 -289.95 231.17 -289.54 230.53 C-288.79 229.34 -288.03 228.14 -287.28 226.95 C-284.11 221.96 -280.96 217.31 -276 214 C-275.08 212.32 -274.15 210.64 -273.24 208.96 C-270.94 205.32 -267.82 202.47 -264.75 199.5 C-263.74 198.51 -263.74 198.51 -262.71 197.5 C-260.82 195.66 -258.91 193.83 -257 192 C-256.22 191.25 -255.43 190.49 -254.62 189.72 C-250.34 185.79 -245.65 182.72 -240.7 179.68 C-238.36 178.23 -236.12 176.7 -233.88 175.12 C-224.85 169.09 -214.75 163.18 -204.16 160.54 C-201.99 160 -200.02 159.25 -197.94 158.44 C-192.71 156.61 -187.26 156.27 -181.76 155.91 C-179.34 155.74 -179.34 155.74 -176 155 C-174.49 153.16 -174.49 153.16 -174 151 C-170.65 146.58 -166.28 145.1 -161 144 C-155.56 144 -152.58 145.63 -148.48 148.94 C-147.03 150.19 -147.03 150.19 -145 150 C-144.77 149.25 -144.54 148.5 -144.3 147.73 C-140.77 136.66 -136.64 128.26 -128.99 119.45 C-127.25 117.31 -126.17 115.46 -125 113 C-125.62 112.63 -126.25 112.27 -126.89 111.89 C-139.21 104.61 -151.11 97.31 -162 88 C-162.99 87.17 -163.98 86.35 -165 85.5 C-170.03 81.16 -173.4 78.18 -174.38 71.38 C-174 69 -174 69 -172.53 67.37 C-168.77 65.33 -165.34 65.61 -161.12 65.67 C-160.25 65.67 -159.37 65.68 -158.46 65.68 C-156.59 65.68 -154.72 65.7 -152.85 65.72 C-150.07 65.75 -147.28 65.76 -144.49 65.77 C-135.3 65.81 -126.12 66.02 -116.94 66.45 C-116.11 66.49 -115.28 66.53 -114.43 66.57 C-110.53 66.77 -106.81 67.09 -103 68 C-103.03 69.66 -103.03 69.66 -103.07 71.36 C-103.09 72.82 -103.11 74.29 -103.12 75.75 C-103.14 76.48 -103.16 77.21 -103.18 77.96 C-103.35 83.38 -103.35 83.38 -101 88 C-98.71 89.4 -96.54 90.56 -94.12 91.69 C-93.43 92.02 -92.74 92.36 -92.02 92.7 C-89.69 93.82 -87.35 94.91 -85 96 C-83.7 96.61 -83.7 96.61 -82.37 97.23 C-79.69 98.48 -77 99.71 -74.31 100.94 C-73.04 101.52 -73.04 101.52 -71.74 102.12 C-67.86 103.86 -64.27 105.45 -60 106 C-59.67 104.35 -59.34 102.7 -59 101 C-59.95 100.51 -59.95 100.51 -60.92 100.01 C-81.41 89.43 -81.41 89.43 -89.38 85 C-90.27 84.5 -91.16 84.01 -92.09 83.5 C-94.41 81.68 -94.5 80.85 -95 78 C-95.05 75.93 -95.05 75.93 -94.95 73.73 C-94.91 72.91 -94.87 72.09 -94.83 71.25 C-94.79 70.38 -94.74 69.52 -94.69 68.62 C-94.64 67.73 -94.59 66.83 -94.54 65.91 C-94.11 58.53 -93.17 51.3 -92 44 C-91.8 42.4 -91.8 42.4 -91.6 40.77 C-90.69 33.4 -89.3 26.18 -87.69 18.94 C-87.4 17.58 -87.4 17.58 -87.12 16.2 C-85.86 10.79 -84.66 7.4 -80 4 C-74.74 1.36 -69.15 0.29 -63.38 -0.62 C-62.65 -0.75 -61.93 -0.87 -61.18 -0.99 C-59.76 -1.23 -58.34 -1.46 -56.92 -1.69 C-55.3 -1.95 -53.69 -2.26 -52.08 -2.57 C-34.93 -4.96 -17.01 -2.34 0 0 Z M-53 14 C-53.68 16.4 -53.68 16.4 -54 19 C-51.62 21.38 -51.11 21.26 -47.88 21.31 C-46.61 21.34 -46.61 21.34 -45.32 21.38 C-44.41 21.4 -43.5 21.42 -42.56 21.44 C-15.96 22.38 16.15 27.77 36 47 C38.25 49.84 40.34 52.74 42.37 55.74 C43.8 58.09 43.8 58.09 46 59 C46.66 58.67 47.32 58.34 48 58 C47.44 54.17 46.39 51.67 44.19 48.5 C43.69 47.77 43.18 47.04 42.67 46.28 C27.88 26.06 3.14 19.39 -20.44 15.39 C-28.19 14.2 -35.8 13.86 -43.62 13.94 C-44.99 13.94 -44.99 13.94 -46.38 13.95 C-48.59 13.96 -50.79 13.98 -53 14 Z M-44 37 C-44 37.99 -44 38.98 -44 40 C-38.55 41.39 -33.63 42.24 -28 42 C-28.33 41.01 -28.66 40.02 -29 39 C-34.16 37.31 -38.6 36.77 -44 37 Z M-11 44 C-10.67 44.99 -10.34 45.98 -10 47 C-5.56 48.41 -1.68 49.29 3 49 C2.67 48.01 2.34 47.02 2 46 C-2.43 44.35 -6.29 43.77 -11 44 Z M-46 52 C-46.33 53.32 -46.66 54.64 -47 56 C-43.57 58.17 -40.24 59.79 -36.44 61.19 C-35.39 61.58 -34.35 61.97 -33.27 62.37 C-31.65 62.96 -31.65 62.96 -30 63.56 C-27.85 64.36 -25.71 65.15 -23.56 65.94 C-22.14 66.46 -22.14 66.46 -20.69 66.99 C-18.91 67.66 -17.15 68.37 -15.4 69.13 C-12.8 70.23 -12.8 70.23 -9 70 C-9.11 68.07 -9.11 68.07 -10 66 C-12.23 64.48 -12.23 64.48 -15.07 63.31 C-16.11 62.84 -17.15 62.37 -18.23 61.88 C-19.33 61.41 -20.43 60.93 -21.56 60.44 C-22.64 59.96 -23.71 59.47 -24.81 58.98 C-35.04 53.99 -35.04 53.99 -46 52 Z M-52 66 C-52.33 67.32 -52.66 68.64 -53 70 C-51.23 70.67 -49.46 71.34 -47.69 72 C-46.7 72.37 -45.72 72.74 -44.7 73.12 C-42 74.15 -42 74.15 -39 74 C-39 73.01 -39 72.02 -39 71 C-40.79 70.16 -42.58 69.33 -44.38 68.5 C-45.37 68.04 -46.37 67.57 -47.4 67.09 C-49.84 65.87 -49.84 65.87 -52 66 Z M-109 156 C-114.07 163.35 -113.94 172.42 -113 181 C-111.18 187.62 -107.82 193.18 -102 196.94 C-99.13 198.29 -99.13 198.29 -96.69 197.31 C-94.87 196.09 -94.87 196.09 -94 194 C-93.01 194.33 -92.02 194.66 -91 195 C-90.39 202.36 -92.64 207.2 -97.38 212.81 C-102.78 217.32 -107.15 218.61 -114.11 218.43 C-119.52 217.63 -124.78 215.24 -128.66 211.33 C-129.92 209.77 -129.92 209.77 -132 210 C-128.46 235.06 -119.11 260.58 -104 281 C-103.4 281.82 -103.4 281.82 -102.79 282.65 C-87.91 302.86 -67.44 319.57 -41.94 323.75 C-16.93 325.85 4.72 320.59 24.61 304.95 C32.86 297.94 40.65 288.99 45 279 C45 278.01 45 277.02 45 276 C42.77 274.37 42.77 274.37 40 272.94 C38.3 272.01 36.63 271.04 35 270 C35 269.34 35 268.68 35 268 C35.75 268.2 36.5 268.41 37.27 268.62 C38.25 268.89 39.24 269.16 40.25 269.44 C41.22 269.7 42.2 269.97 43.2 270.25 C44.13 270.49 45.05 270.74 46 271 C46.7 271.2 47.4 271.39 48.12 271.59 C51.07 272.23 54 272.06 57 272 C58.16 268.52 57.78 267.68 56.62 264.31 C52.69 251.88 52.25 235.97 56.88 223.65 C58 222 58 222 61 221 C61.33 227.51 60.47 232.92 58.75 239.2 C57.09 245.09 57.09 245.09 58 251 C58.66 251 59.32 251 60 251 C66.75 239.37 70.52 225.98 72.88 212.81 C73 212.14 73.12 211.47 73.24 210.78 C73.99 206.13 74.09 201.69 74 197 C73.21 196.82 72.43 196.63 71.62 196.44 C39.99 188.94 7.56 180.73 -21.46 165.71 C-24.79 163.78 -24.79 163.78 -28 164 C-28.22 164.85 -28.44 165.69 -28.66 166.56 C-31.27 175.87 -33.92 182.83 -42.44 187.94 C-48.46 190.92 -53.63 191.61 -60.08 189.72 C-65.91 187.53 -68.9 184.26 -72 179 C-73.46 175.28 -74.56 171.46 -75.71 167.63 C-77.92 160.59 -80.78 155.3 -87 151 C-95.43 148.19 -102.71 149.63 -109 156 Z M223 156 C221.28 158.52 221.28 158.52 220 161 C219.2 161.27 218.39 161.54 217.56 161.81 C214.09 163.42 213.46 165.51 211.99 168.93 C211 171 211 171 209.48 172.88 C207.64 175.52 207.09 177.87 206.38 181 C206.14 182.03 205.9 183.06 205.65 184.12 C205.43 185.07 205.22 186.02 205 187 C204.81 187.64 204.61 188.28 204.41 188.94 C201.8 201.97 208.01 218.21 215 229 C218.05 232.72 221.31 235.92 225 239 C225.62 239.52 226.25 240.04 226.89 240.58 C235.43 246.73 247.27 248.94 257.54 247.67 C271.5 244.96 286.03 240.88 295 229 C302.35 216.54 305.15 203.79 302.31 189.54 C300.28 182.93 297.15 177.5 293 172 C292.4 171.13 291.8 170.27 291.19 169.38 C285.24 162.92 278.07 158.37 270 155 C269.24 154.68 268.48 154.36 267.7 154.03 C254.9 149.63 235.14 149.59 223 156 Z M-149 156 C-153.46 159.87 -154.71 163.6 -155.41 169.41 C-155.64 173.27 -155.84 177.13 -156 181 C-156.05 182 -156.11 183 -156.16 184.02 C-156.63 199.99 -153.76 216.54 -150 232 C-149.59 233.78 -149.18 235.56 -148.77 237.34 C-148.33 239.24 -147.88 241.15 -147.44 243.06 C-147.23 243.97 -147.02 244.87 -146.8 245.81 C-145.8 250.04 -144.69 253.99 -143 258 C-142.65 259.43 -142.34 260.87 -142.06 262.31 C-140.47 269.76 -137.42 276.41 -134.18 283.29 C-133 286 -133 286 -132.1 288.84 C-130.5 293.44 -128.2 297.62 -125.92 301.9 C-123.52 306.56 -122.18 310.89 -121 316 C-120.12 318.32 -120.12 318.32 -119.12 320.31 C-116.75 325.42 -114.87 330.69 -113 336 C-108.85 332.07 -105.67 327.58 -102.32 322.97 C-100.06 320.07 -97.65 317.54 -95 315 C-94.67 314.67 -94.34 314.34 -94 314 C-91.98 313.93 -89.96 313.92 -87.94 313.94 C-86.83 313.95 -85.73 313.96 -84.59 313.96 C-83.31 313.98 -83.31 313.98 -82 314 C-83.62 309.8 -86.75 307.15 -89.94 304.12 C-119.13 275.59 -134.69 235.68 -139.44 195.62 C-140.02 191.9 -140.94 188.43 -142 184.81 C-144.6 175.69 -145.27 166.43 -146 157 C-146.99 156.67 -147.98 156.34 -149 156 Z M-178.25 168.94 C-179.16 169.62 -180.06 170.3 -181 171 C-180.67 171.66 -180.34 172.32 -180 173 C-177.03 171.35 -174.06 169.7 -171 168 C-175.02 166.5 -175.02 166.5 -178.25 168.94 Z M-179.51 182.49 C-181.34 184.05 -181.34 184.05 -181.44 187.31 C-181.29 188.2 -181.15 189.09 -181 190 C-179.66 189.35 -178.33 188.68 -177 188 C-176.09 187.59 -175.19 187.18 -174.25 186.75 C-173.14 185.88 -173.14 185.88 -172 185 C-171.58 181.87 -171.58 181.87 -172 179 C-175.13 179 -177.03 180.7 -179.51 182.49 Z M-177.69 195.81 C-181.12 200.54 -180.64 204.33 -180 210 C-178.62 218.99 -178.62 218.99 -175.94 227.64 C-174.94 230.14 -174.62 232.27 -174.31 234.94 C-170.59 258.12 -158.68 292.49 -140 308 C-139.34 308 -138.68 308 -138 308 C-138.46 301.98 -141.19 297.59 -144.06 292.44 C-153.03 275.81 -159.07 258.2 -164 240 C-164.27 239.02 -164.53 238.04 -164.81 237.03 C-168.62 222.72 -171.1 208.79 -172 194 C-175.13 193.72 -175.13 193.72 -177.69 195.81 Z M224 251 C223.16 253.6 222.33 256.21 221.5 258.81 C221.26 259.55 221.02 260.29 220.78 261.05 C219.8 264.13 219 266.74 219 270 C222.3 270.99 225.6 271.98 229 273 C229.66 272.34 230.32 271.68 231 271 C231 269.68 231 268.36 231 267 C228.36 266.01 225.72 265.02 223 264 C223.66 262.35 224.32 260.7 225 259 C227.64 259.33 230.28 259.66 233 260 C235.28 257.18 235.28 257.18 235 254 C233.73 253.49 232.46 253 231.19 252.5 C230.48 252.22 229.77 251.94 229.04 251.66 C226.88 250.85 226.88 250.85 224 251 Z M210 277 C210 277.66 210 278.32 210 279 C210.58 279.05 211.16 279.1 211.76 279.15 C215.54 279.51 218.77 279.92 222.38 281.19 C223.67 281.59 223.67 281.59 225 282 C225.99 281.34 226.98 280.68 228 280 C221.87 277.18 216.79 275.2 210 277 Z M218 293.19 C215.24 297.06 215 299.23 215 304 C216 306.99 216.94 308.35 219.63 310 C225.08 312.46 230.26 312.5 236 311 C240.32 309.03 244.92 306.42 247 302 C247.63 297.69 247.55 295.77 245 292.19 C236.53 286.01 226.21 287.2 218 293.19 Z M197.25 289.31 C188.66 291.24 180.13 291.45 171.34 291.53 C169.79 291.56 169.79 291.56 168.2 291.59 C167.27 291.6 166.34 291.61 165.38 291.62 C162.47 292.09 161.73 292.64 160 295 C157.91 299.09 156.24 303.37 154.5 307.62 C154.11 308.57 154.11 308.57 153.72 309.53 C149.33 320.22 145.39 331.05 141.69 342 C141.44 342.72 141.19 343.43 140.94 344.17 C140.24 346.21 139.56 348.26 138.89 350.31 C138.3 352.07 138.3 352.07 137.71 353.86 C136.79 357.92 137.11 360.51 139.24 364.07 C149.67 377.74 149.67 377.74 164.12 385.69 C169.09 386.09 174.02 386.08 179 386 C178.34 385.01 177.68 384.02 177 383 C176.34 383 175.68 383 175 383 C171.09 371.69 171.09 371.69 173.81 365.75 C174.51 364.48 175.23 363.22 176 362 C173.03 362.5 173.03 362.5 170 363 C170.62 361.85 171.24 360.69 171.88 359.5 C173.54 356.16 174.63 352.98 175.44 349.32 C176.15 346.39 177.08 343.56 178 340.69 C180.53 332.53 182.38 324.57 182 316 C181.34 315.67 180.68 315.34 180 315 C179.71 315.77 179.42 316.55 179.12 317.34 C176.57 323.81 173.99 330.02 169 335 C167.51 335.5 167.51 335.5 166 336 C166.41 335.19 166.41 335.19 166.83 334.37 C168.07 331.9 169.28 329.42 170.5 326.94 C170.93 326.09 171.36 325.24 171.8 324.37 C174.23 319.37 175.87 315.59 175 310 C174.01 309.34 173.02 308.68 172 308 C172.5 306.51 172.5 306.51 173 305 C179.88 305.88 179.88 305.88 181 307 C183.23 307.15 185.46 307.22 187.69 307.25 C188.91 307.28 190.13 307.3 191.39 307.33 C197.94 306.73 202.14 303.51 206.59 298.92 C208.77 295.95 208.93 293.64 209 290 C204.58 287.7 202.02 288.15 197.25 289.31 Z M-149 306 C-152.69 308.63 -156.35 311.3 -160 314 C-160.76 314.55 -161.51 315.09 -162.29 315.66 C-162.92 316.14 -163.54 316.63 -164.19 317.12 C-164.74 317.54 -165.29 317.96 -165.86 318.38 C-167.68 320.96 -167.28 322.9 -167 326 C-165.89 328.57 -164.75 330.88 -163.39 333.3 C-163.02 333.99 -162.65 334.67 -162.26 335.37 C-161.08 337.55 -159.89 339.71 -158.69 341.88 C-157.5 344.03 -156.32 346.19 -155.14 348.35 C-154.41 349.7 -153.68 351.03 -152.93 352.37 C-150.51 356.79 -148.69 361.24 -147 366 C-149.63 368.71 -152.25 371.25 -155.19 373.62 C-158.12 375.88 -158.12 375.88 -160 379 C-160 379.99 -160 380.98 -160 382 C-154.34 381.57 -151.08 379.36 -146.69 376.06 C-146.06 375.61 -145.42 375.15 -144.77 374.68 C-141.37 372.31 -141.37 372.31 -139 369 C-138.28 362.51 -140.31 358.71 -143.5 353.31 C-143.95 352.53 -144.4 351.74 -144.87 350.93 C-149.29 343.31 -154.17 336.06 -159.21 328.84 C-161.13 325.8 -161.47 324.51 -161 321 C-160 318 -160 318 -158.23 317.07 C-157.13 316.54 -157.13 316.54 -156 316 C-154.38 314.67 -152.8 313.29 -151.25 311.88 C-150.45 311.15 -149.65 310.43 -148.83 309.68 C-148.22 309.13 -147.62 308.57 -147 308 C-147.66 307.34 -148.32 306.68 -149 306 Z M-76 316 C-75.67 317.65 -75.34 319.3 -75 321 C-74.39 321.11 -73.77 321.22 -73.14 321.33 C-71.92 321.57 -71.92 321.57 -70.69 321.81 C-69.89 321.96 -69.09 322.11 -68.26 322.27 C-65.68 323.1 -64.59 323.8 -63 326 C-62.15 330.88 -62.72 335.59 -65 340 C-61.17 338.48 -59.27 336.21 -56.75 333 C-56.04 332.11 -55.34 331.23 -54.61 330.31 C-52.81 328.2 -52.81 328.2 -53 326 C-55.9 324.71 -58.79 323.42 -61.69 322.12 C-62.5 321.76 -63.32 321.4 -64.16 321.02 C-68.08 319.27 -72 317.55 -76 316 Z M234 316 C231.68 316.12 229.35 316.18 227.02 316.21 C225.62 316.24 224.21 316.27 222.8 316.3 C220.6 316.34 218.39 316.37 216.19 316.4 C202.96 316.07 202.96 316.07 191.4 321.42 C187.93 325.35 186.86 328.56 186.94 333.69 C186.95 334.5 186.96 335.3 186.96 336.14 C186.98 336.75 186.99 337.37 187 338 C187.66 338.33 188.32 338.66 189 339 C189.89 338.55 189.89 338.55 190.79 338.09 C193.42 336.79 195.37 336.67 198.3 336.54 C199.33 336.49 200.37 336.43 201.43 336.37 C203.07 336.28 203.07 336.28 204.75 336.19 C223.7 335.06 223.7 335.06 239 325 C241.29 321.56 241.18 320.01 241 316 C237.99 315.07 237.13 314.96 234 316 Z M-93.56 320 C-94.37 320.99 -95.17 321.98 -96 323 C-96.44 323.47 -96.87 323.95 -97.32 324.44 C-98.96 326.23 -100.48 328.1 -102 330 C-102.81 330.97 -103.62 331.95 -104.45 332.95 C-109.33 338.95 -109.33 338.95 -111.13 346.29 C-110.62 348.99 -109.99 351.44 -109 354 C-107.37 352.65 -105.75 351.28 -104.16 349.88 C-102 348 -102 348 -99.5 346.12 C-96.77 343.87 -94.84 342.04 -93 339 C-92.54 333.81 -93.08 329.11 -94 324 C-90.8 321.86 -89.98 321.77 -86.31 321.88 C-85.1 321.9 -85.1 321.9 -83.86 321.93 C-82.94 321.96 -82.94 321.96 -82 322 C-83.74 318.69 -83.74 318.69 -87.31 318 C-91.06 317.62 -91.06 317.62 -93.56 320 Z M-74 326 C-74 326.66 -74 327.32 -74 328 C-73.01 328.66 -72.02 329.32 -71 330 C-70.31 332.31 -70.31 332.31 -71 335 C-72.97 336.45 -74.97 337.58 -77.15 338.69 C-79.19 339.86 -79.19 339.86 -79.75 342.15 C-79.84 342.76 -79.92 343.37 -80 344 C-78.68 344 -77.36 344 -76 344 C-76 343.34 -76 342.68 -76 342 C-75.26 341.75 -74.51 341.5 -73.75 341.25 C-70.64 339.84 -69.02 338.77 -67 336 C-66.25 332.46 -66.25 332.46 -67 329 C-69.4 327.04 -70.88 326 -74 326 Z M228.69 336.44 C224.54 337.95 221.39 338.18 217 338 C216.67 338.33 216.34 338.66 216 339 C214.61 339.19 213.21 339.32 211.81 339.43 C210.51 339.54 210.51 339.54 209.19 339.65 C207.38 339.8 205.57 339.94 203.76 340.07 C196.86 340.68 190.32 341.39 185.5 346.81 C183.84 350.34 183.35 352.17 184 356 C188.12 362.3 194 364 201 366 C203.8 366.31 206.18 366.21 209 366 C209.99 366.33 210.98 366.66 212 367 C212.33 368.65 212.66 370.3 213 372 C212.13 371.84 211.27 371.67 210.38 371.5 C206.99 371.65 206.99 371.65 205.27 373.78 C203.76 375.81 202.35 377.86 201 380 C201.33 380.66 201.66 381.32 202 382 C215.2 378.27 226.36 367.81 233 356 C235.97 349.32 237.56 343.3 237 336 C233.66 334.86 231.93 335.14 228.69 336.44 Z M-84 349 C-86.43 353.97 -87.35 357.35 -87 363 C-85.29 361.37 -84.07 360.13 -83 358 C-82.01 357.67 -81.02 357.34 -80 357 C-79.67 356.01 -79.34 355.02 -79 354 C-80.65 352.35 -82.3 350.7 -84 349 Z M-287 351 C-290.33 354.81 -292.52 358.76 -294.5 363.38 C-294.8 364.07 -295.1 364.77 -295.41 365.49 C-298.35 372.5 -300.33 379.59 -302 387 C-302.21 387.88 -302.43 388.77 -302.65 389.68 C-307.35 411.57 -306.46 438.72 -295.12 458.56 C-294.12 460.06 -293.07 461.54 -292 463 C-291.51 463.7 -291.02 464.41 -290.52 465.13 C-285.09 472.18 -276.92 477.02 -268.22 478.75 C-265.11 479.27 -265.11 479.27 -263 478 C-263 477.34 -263 476.68 -263 476 C-263.96 475.58 -263.96 475.58 -264.94 475.15 C-275.79 470.13 -280.87 463.68 -286 453 C-286.38 452.23 -286.76 451.46 -287.16 450.67 C-299.29 423.7 -293.32 389.82 -284 363 C-283.61 362.06 -283.22 361.11 -282.82 360.14 C-281.75 357.36 -281.86 354.95 -282 352 C-283.65 351.67 -285.3 351.34 -287 351 Z M122.25 361.19 C119.69 364.37 119.69 364.37 118 368 C118.55 369.92 118.55 369.92 119.82 371.71 C120.25 372.4 120.69 373.09 121.13 373.79 C121.84 374.86 121.84 374.86 122.56 375.94 C123.01 376.64 123.45 377.34 123.91 378.07 C126.59 382.22 129.43 385.59 133 389 C133.67 390.33 134.33 391.67 135 393 C138.7 397.01 142.83 400.5 147 404 C147.76 403.37 148.52 402.75 149.3 402.1 C150.29 401.28 151.29 400.47 152.31 399.62 C153.3 398.81 154.28 398 155.3 397.16 C158 395 158 395 161 393 C161 392.34 161 391.68 161 391 C159.21 389.56 157.37 388.2 155.5 386.88 C148.9 382.04 143.15 377.21 138.5 370.42 C138.06 369.79 137.63 369.15 137.18 368.5 C136.33 367.23 135.49 365.95 134.68 364.66 C132.63 361.59 131.41 360.14 127.87 358.95 C124.79 358.71 124.79 358.71 122.25 361.19 Z M-190 356 C-194.24 361.62 -198.25 367.32 -202.04 373.25 C-203.44 375.45 -204.87 377.63 -206.3 379.82 C-207.98 382.38 -209.57 384.97 -211.11 387.62 C-214.81 393.47 -217.73 396.4 -224.4 398.09 C-226.6 398.54 -228.79 398.91 -231.01 399.25 C-234.76 399.85 -237.73 401.01 -241 403 C-242.05 405.02 -242.05 405.02 -242 407 C-241.67 407.33 -241.34 407.66 -241 408 C-234.2 407.46 -227.48 406.31 -220.74 405.24 C-206.06 402.9 -191.46 401.08 -176.61 400.16 C-174.23 400.01 -171.85 399.84 -169.47 399.66 C-162.91 399.18 -156.39 398.96 -149.81 399 C-136.83 399.95 -136.83 399.95 -125.38 395.38 C-124.2 394.2 -124.2 394.2 -123 393 C-120 394 -120 394 -119 396 C-114.6 397.27 -110.54 397.65 -106 397 C-103.48 394.86 -101.97 392.58 -100.13 389.84 C-90.88 377.51 -73.08 372.01 -58.57 369.47 C-50.45 368.4 -41.33 367.58 -34 372 C-32.38 374.84 -32.08 377.03 -31.82 380.25 C-31.64 385.09 -31.64 385.09 -29.06 388.94 C-26.18 391.82 -26.13 394.62 -25.59 398.56 C-24.92 401.35 -23.72 402.74 -22 405 C-18.36 416.67 -18.11 432.76 -23.69 443.88 C-28.61 450.53 -33.93 452.77 -42 454 C-42 454.66 -42 455.32 -42 456 C-35.21 455.83 -30.17 454.55 -25 450 C-17.2 441.37 -15.77 430.98 -15.69 419.75 C-15.68 419.01 -15.68 418.26 -15.67 417.49 C-15.77 410.11 -17.52 403.68 -20.44 396.88 C-21.1 395.33 -21.1 395.33 -21.77 393.75 C-22.65 391.78 -23.61 389.84 -24.62 387.94 C-25.96 385.09 -26.64 382.54 -27.38 379.5 C-29.05 373.11 -31.21 369.68 -37 366.19 C-51.24 360.55 -69.53 366.02 -83.25 371.19 C-91.97 375.06 -99.31 380.59 -105.06 388.19 C-106.85 390.3 -106.85 390.3 -109 392 C-111.31 391.94 -111.31 391.94 -113.89 391.25 C-120.56 389.77 -126.94 389.7 -133.75 389.75 C-135.69 389.76 -135.69 389.76 -137.67 389.77 C-158.84 389.93 -179.97 391.65 -201 394 C-200.56 393.21 -200.11 392.42 -199.65 391.6 C-198 388.65 -196.35 385.69 -194.7 382.74 C-193.99 381.46 -193.27 380.19 -192.56 378.91 C-191.53 377.07 -190.5 375.23 -189.48 373.39 C-188.86 372.29 -188.24 371.18 -187.6 370.05 C-185.22 365.52 -183.7 362.16 -184 357 C-185.98 356.67 -187.96 356.34 -190 356 Z M-97.94 393.89 C-100.75 396.73 -100.75 396.73 -103 400 C-102.7 403.76 -101.28 407.2 -100.06 410.75 C-96.19 423.2 -95.63 436.03 -96 449 C-92.32 450.68 -89.43 451.26 -85.39 451.27 C-83.79 451.27 -83.79 451.27 -82.16 451.27 C-81.06 451.27 -79.95 451.26 -78.81 451.25 C-77.73 451.26 -76.64 451.27 -75.52 451.27 C-62.54 451.24 -51.57 448.8 -41 441 C-40.46 440.44 -39.93 439.89 -39.38 439.31 C-37.68 437.69 -36.28 437.39 -34 437 C-35.44 442.04 -37.98 443.9 -42 447 C-42.66 447.66 -43.32 448.32 -44 449 C-37.29 448.46 -33.37 446.51 -28.75 441.62 C-24.64 435.47 -24.69 429.47 -24.75 422.31 C-24.74 421.36 -24.73 420.41 -24.73 419.44 C-24.73 418.07 -24.73 418.07 -24.73 416.68 C-24.74 415.44 -24.74 415.44 -24.74 414.17 C-24.87 411.71 -24.87 411.71 -27 409 C-29.58 408.75 -29.58 408.75 -32 409 C-31.65 408.01 -31.3 407.02 -30.94 406 C-29.69 401.74 -30.24 398.34 -31 394 C-32.98 393.34 -34.96 392.68 -37 392 C-36.89 391.26 -36.79 390.53 -36.68 389.77 C-35.85 383.74 -35.85 383.74 -37.25 377.94 C-40.31 374.55 -43.03 373.48 -47.52 373.04 C-66.37 372.74 -84.37 381.34 -97.94 393.89 Z M117 381 C121.27 387.93 126.11 394.35 132 400 C132.66 400 133.32 400 134 400 C134.33 400.99 134.66 401.98 135 403 C136.38 404.48 136.38 404.48 138.19 405.94 C141.01 408.31 143.8 410.7 146.54 413.16 C147.8 414.27 149.05 415.39 150.31 416.5 C150.92 417.05 151.53 417.61 152.16 418.18 C153.71 419.53 155.35 420.78 157 422 C157.99 421.67 158.98 421.34 160 421 C158.98 420.18 158.98 420.18 157.95 419.35 C144.38 408.36 131 396.82 120.52 382.77 C120.02 382.18 119.52 381.6 119 381 C118.34 381 117.68 381 117 381 Z M118 390 C119.38 393.06 121 395.33 123.25 397.81 C125.49 400.3 127.66 402.82 129.75 405.44 C133.89 410.29 139.03 414.04 144 418 C150.8 423.6 150.8 423.6 152 426 C152.99 425.67 153.98 425.34 155 425 C150.98 420.92 146.82 417.02 142.62 413.12 C136.14 407.08 129.82 400.9 123.61 394.57 C122.09 393.03 120.55 391.51 119 390 C118.67 390 118.34 390 118 390 Z M164 395 C162.2 396.41 160.41 397.83 158.62 399.25 C157.63 400.04 156.63 400.83 155.6 401.64 C153.27 403.76 152.1 405.11 151 408 C152.32 409.32 153.64 410.64 155 412 C155.99 411.67 156.98 411.34 158 411 C158 410.34 158 409.68 158 409 C158.77 408.66 158.77 408.66 159.56 408.31 C162.92 406.5 165.93 404.26 169 402 C168.6 399.11 168.21 398.18 165.94 396.25 C165.3 395.84 164.66 395.42 164 395 Z M-119 402 C-119.52 415.99 -118.73 429.62 -117.12 443.5 C-117.04 444.27 -116.95 445.03 -116.86 445.82 C-116.42 457.69 -116.42 457.69 -112 468 C-109.67 468.04 -107.33 468.04 -105 468 C-102.11 462.97 -101.07 458.34 -100.25 452.69 C-100.12 451.81 -99.99 450.93 -99.86 450.03 C-97.83 434.55 -98.99 417.7 -107 404 C-108.81 401.76 -108.81 401.76 -111.38 401.8 C-112.29 401.83 -113.19 401.85 -114.12 401.88 C-115.04 401.89 -115.95 401.91 -116.88 401.93 C-117.58 401.95 -118.28 401.98 -119 402 Z M-128 410 C-128.99 411.49 -128.99 411.49 -130 413 C-128.35 415.97 -126.7 418.94 -125 422 C-124.34 421.67 -123.68 421.34 -123 421 C-124.32 417.37 -125.64 413.74 -127 410 C-127.33 410 -127.66 410 -128 410 Z M127 410 C127.55 413.69 128.85 415.09 131.71 417.42 C132.46 418.03 133.21 418.65 133.98 419.28 C134.77 419.91 135.56 420.54 136.38 421.19 C137.16 421.83 137.94 422.47 138.74 423.13 C143.02 426.68 143.02 426.68 148 429 C148 428.34 148 427.68 148 427 C146.59 425.75 145.12 424.58 143.62 423.44 C138.85 419.73 134.37 415.79 129.93 411.69 C128.3 409.89 128.3 409.89 127 410 Z M-134 416 C-133.43 421.14 -130.95 425.17 -128.5 429.62 C-127.68 431.14 -126.85 432.65 -126.03 434.16 C-125.67 434.83 -125.3 435.49 -124.92 436.18 C-124 438 -124 438 -123 441 C-122.34 441 -121.68 441 -121 441 C-123.54 432.12 -127.78 424.17 -132 416 C-132.66 416 -133.32 416 -134 416 Z M-139 422 C-137.5 425.54 -135.98 429.05 -134.39 432.55 C-128.74 444.99 -124.19 457.71 -121 471 C-120.67 471 -120.34 471 -120 471 C-120.48 464.28 -121.5 458.02 -123.44 451.56 C-123.69 450.72 -123.94 449.87 -124.2 449 C-127.25 439.38 -132.01 430.73 -137 422 C-137.66 422 -138.32 422 -139 422 Z M131 428 C132.17 431.34 133.19 433.77 136 436 C136.66 436 137.32 436 138 436 C136.51 432.2 134.24 430.39 131 428 Z M-144 430 C-143.63 430.75 -143.63 430.75 -143.25 431.51 C-136.88 444.44 -131.93 457.13 -128 471 C-127.67 471 -127.34 471 -127 471 C-127.51 463.83 -129.18 457.78 -131.69 451.06 C-132.01 450.14 -132.34 449.21 -132.68 448.26 C-135.04 441.81 -137.84 435.52 -142 430 C-142.66 430 -143.32 430 -144 430 Z M-147 440 C-145.43 444.31 -143.32 448.06 -141 452 C-140.67 451.01 -140.34 450.02 -140 449 C-141.16 446.65 -141.16 446.65 -142.88 444.31 C-143.43 443.5 -143.98 442.7 -144.55 441.86 C-145.03 441.25 -145.51 440.63 -146 440 C-146.33 440 -146.66 440 -147 440 Z M125 440 C124.67 440.66 124.34 441.32 124 442 C124.66 442 125.32 442 126 442 C125.67 441.34 125.34 440.68 125 440 Z M-140 452 C-138.16 461.2 -138.16 461.2 -135 470 C-134.34 470.33 -133.68 470.66 -133 471 C-134.68 464.51 -136.53 458.23 -139 452 C-139.33 452 -139.66 452 -140 452 Z M-155 454 C-153.35 458.95 -151.7 463.9 -150 469 C-149.01 468.67 -148.02 468.34 -147 468 C-147.76 465.85 -148.53 463.7 -149.31 461.56 C-149.74 460.37 -150.17 459.17 -150.61 457.94 C-151.07 456.97 -151.53 456 -152 455 C-152.99 454.67 -153.98 454.34 -155 454 Z M-165 462 C-164.34 464.31 -163.68 466.62 -163 469 C-162.34 469 -161.68 469 -161 469 C-161.27 466.56 -161.27 466.56 -162 464 C-162.99 463.34 -163.98 462.68 -165 462 Z M-143 463 C-142 465 -142 465 -142 465 Z M-157 466 C-156.67 467.32 -156.34 468.64 -156 470 C-155.67 469.34 -155.34 468.68 -155 468 C-155.66 467.34 -156.32 466.68 -157 466 Z M-142 467 C-141 469 -141 469 -141 469 Z " fill="#000000" transform="translate(485,209)"/>
<path d="M0 0 C0.99 0.33 1.98 0.66 3 1 C1.2 4.26 0.17 5.89 -3 8 C-3.33 7.34 -3.66 6.68 -4 6 C-1.68 1.68 -1.68 1.68 0 0 Z " fill="#000000" transform="translate(291,351)"/>
<path d="M0 0 C0.66 0 1.32 0 2 0 C3.48 2.96 3.06 5.74 3 9 C2.01 9 1.02 9 0 9 C-1.12 2.25 -1.12 2.25 0 0 Z " fill="#000000" transform="translate(278,352)"/>
<path d="M0 0 C11.5 8.82 18.85 19.77 20.88 34.19 C21.7 46.77 17.57 57.63 9.38 67 C7.29 68.76 5.51 69.98 3 71 C4.33 67.41 5.95 64.3 8 61.06 C13.81 51.45 15.11 41.68 12.71 30.69 C9.69 19.26 4.11 10.88 -6.12 4.56 C-14.51 -0.04 -21.55 -2.2 -31.19 -2.19 C-31.94 -2.19 -32.69 -2.19 -33.46 -2.19 C-39.15 -2.14 -44.5 -1.51 -50 0 C-49 -3 -49 -3 -46.06 -4.56 C-31.09 -10.37 -13.28 -9.5 0 0 Z " fill="#000000" transform="translate(763,372)"/>
<path d="M0 0 C4.84 0.25 6.93 2.07 10.19 5.56 C12.26 9.24 12.55 12.37 12.19 16.56 C11.53 17.55 10.87 18.54 10.19 19.56 C7.88 19.79 7.88 19.79 5.19 19.62 C2.56 19.43 2.56 19.43 0.19 19.56 C-2.11 21.43 -2.11 21.43 -2.01 24.38 C-1.98 25.47 -1.96 26.56 -1.94 27.69 C-1.92 28.78 -1.9 29.88 -1.88 31.01 C-1.86 31.85 -1.84 32.69 -1.81 33.56 C-3.69 33.31 -3.69 33.31 -5.81 32.56 C-8.75 28.36 -8.42 23.47 -7.81 18.56 C-6.38 15.5 -6.38 15.5 -3.81 13.56 C-0.81 12.88 2.11 12.63 5.19 12.56 C3.44 8.36 3.44 8.36 0.31 5.19 C-2.15 4.46 -4.26 4.42 -6.81 4.56 C-5 0.95 -4.1 0.6 0 0 Z " fill="#000000" transform="translate(391.8125,364.4375)"/>
<path d="M0 0 C4.44 0.25 7.95 0.59 11 4 C11.75 7.19 11.75 7.19 12 10 C9.56 12.35 8.45 13 5 13 C1.23 11.74 0.01 10.4 -2 7 C-2.38 4.31 -2.38 4.31 -2 2 C-1.34 1.34 -0.68 0.68 0 0 Z " fill="#000000" transform="translate(735,380)"/>
<path d="M0 0 C1.94 0.69 1.94 0.69 4 2 C4.75 4.62 4.75 4.62 5 7 C3.68 6.67 2.36 6.34 1 6 C0.67 4.02 0.34 2.04 0 0 Z " fill="#000000" transform="translate(724,382)"/>
<path d="M0 0 C4.77 1.73 6.28 4.81 8.4 9.16 C9 11 9 11 8 13 C4.29 12.68 3.19 12.21 0.62 9.38 C-1.84 6.62 -1.84 6.62 -5.5 6.94 C-9.19 8.06 -11.05 9.61 -14 12 C-16.31 11.75 -16.31 11.75 -18 11 C-17.67 7.96 -17.4 6.4 -15.21 4.2 C-9.83 0.63 -6.48 -0.97 0 0 Z " fill="#000000" transform="translate(501,395)"/>
<path d="M0 0 C2.69 1.5 2.69 1.5 4.06 4.12 C4.27 4.91 4.48 5.69 4.69 6.5 C2.75 7.06 2.75 7.06 0.69 7.5 C0.36 7.17 0.03 6.84 -0.31 6.5 C-2 6.43 -3.69 6.42 -5.38 6.44 C-6.29 6.45 -7.21 6.46 -8.16 6.46 C-8.87 6.48 -9.58 6.49 -10.31 6.5 C-10.31 5.18 -10.31 3.86 -10.31 2.5 C-4.27 -0.64 -4.27 -0.64 0 0 Z " fill="#000000" transform="translate(549.3125,415.5)"/>
<path d="M0 0 C3.69 0.69 3.69 0.69 5 2 C5.61 8.62 5.63 16.18 2 22 C-0.11 22.74 -0.11 22.74 -2 23 C-4.95 17.87 -4.87 12.26 -3.36 6.61 C-1.47 1.47 -1.47 1.47 0 0 Z " fill="#000000" transform="translate(500,419)"/>
<path d="M0 0 C1.13 0.14 2.27 0.29 3.44 0.44 C5.44 3.44 5.44 3.44 5.12 5.88 C4.72 7.37 4.29 8.86 3.79 10.32 C3.04 14.83 6.11 18.75 8.44 22.44 C16.25 33.05 24.86 41.39 36.51 47.6 C40.04 49.5 42.76 51.45 45.44 54.44 C44.78 55.1 44.12 55.76 43.44 56.44 C30.77 56.22 20.59 45.58 12.28 37.28 C5.2 29.75 0.18 20.85 -3.77 11.34 C-4.44 9.73 -5.21 8.17 -6 6.62 C-6.56 4.44 -6.56 4.44 -5.62 2.12 C-3.56 0.44 -3.56 0.44 0 0 Z " fill="#000000" transform="translate(442.5625,435.5625)"/>
<path d="M0 0 C-0.25 2.38 -0.25 2.38 -1 5 C-4.08 7.07 -6.6 7.22 -10.25 7.12 C-11.14 7.11 -12.03 7.09 -12.95 7.07 C-13.97 7.04 -13.97 7.04 -15 7 C-15 5.68 -15 4.36 -15 3 C-14.37 2.87 -13.75 2.73 -13.1 2.6 C-12.28 2.42 -11.47 2.24 -10.62 2.06 C-9.81 1.89 -9 1.71 -8.16 1.54 C-1.96 0 -1.96 0 0 0 Z " fill="#000000" transform="translate(689,503)"/>
<path d="M0 0 C2.44 0.69 2.44 0.69 5 2 C5.81 4.62 5.81 4.62 6 7 C2 7 2 7 0.19 5.75 C-1 4 -1 4 -0.69 1.81 C-0.46 1.21 -0.23 0.62 0 0 Z " fill="#000000" transform="translate(757,578)"/>
<path d="M0 0 C-0.31 1.88 -0.31 1.88 -1 4 C-4 6 -4 6 -6.19 5.62 C-6.79 5.42 -7.38 5.21 -8 5 C-7 2 -7 2 -5.12 0.81 C-3 0 -3 0 0 0 Z " fill="#000000" transform="translate(442,592)"/>
<path d="M0 0 C1.32 0 2.64 0 4 0 C4.33 0.99 4.66 1.98 5 3 C3.68 3.33 2.36 3.66 1 4 C0.67 2.68 0.34 1.36 0 0 Z " fill="#000000" transform="translate(772,592)"/>
<path d="M0 0 C2 0.25 2 0.25 4 1 C4.33 1.99 4.66 2.98 5 4 C3.68 4.33 2.36 4.66 1 5 C0.34 3.68 -0.32 2.36 -1 1 C-0.67 0.67 -0.34 0.34 0 0 Z " fill="#000000" transform="translate(787,603)"/>
<path d="M0 0 C-0.12 1.88 -0.12 1.88 -1 4 C-4.06 5.25 -4.06 5.25 -7 6 C-7 4.68 -7 3.36 -7 2 C-4 0 -4 0 0 0 Z " fill="#000000" transform="translate(448,611)"/>
<path d="M0 0 C1.32 0.33 2.64 0.66 4 1 C4 2.32 4 3.64 4 5 C2.68 4.34 1.36 3.68 0 3 C0 2.01 0 1.02 0 0 Z " fill="#000000" transform="translate(799,613)"/>
<path d="M0 0 C2 1 4 2 6 3 C6 3.99 6 4.98 6 6 C5.01 6.33 4.02 6.66 3 7 C0.81 5.56 0.81 5.56 -1 4 C-0.67 2.68 -0.34 1.36 0 0 Z " fill="#000000" transform="translate(811,622)"/>
<path d="M0 0 C-0.31 2.38 -0.31 2.38 -1 5 C-4 7 -4 7 -6.19 6.62 C-6.79 6.42 -7.38 6.21 -8 6 C-6.99 3.46 -6.35 2.22 -4 0.75 C-2 0 -2 0 0 0 Z " fill="#000000" transform="translate(455,631)"/>
<path d="M0 0 C3.88 0.55 5.6 2.28 8.25 5.06 C8.96 5.8 9.66 6.53 10.39 7.29 C10.92 7.85 11.45 8.42 12 9 C11.67 9.66 11.34 10.32 11 11 C7.73 10.4 5.78 9.33 3.25 7.19 C2.64 6.69 2.02 6.18 1.39 5.67 C0 4 0 4 0 0 Z " fill="#000000" transform="translate(830,640)"/>
</svg>
