<?xml version="1.0" encoding="UTF-8"?>
<!-- Generator: visioncortex VTracer 0.6.0 -->
<svg version="1.1" xmlns="http://www.w3.org/2000/svg" width="847" height="847">
<path d="M0 0 C4.375 3.507 5.992 6.228 6.792 11.768 C6.934 13.077 6.934 13.077 7.079 14.412 C7.27 15.816 7.27 15.816 7.463 17.249 C7.875 20.341 8.243 23.436 8.611 26.533 C8.889 28.697 9.171 30.86 9.454 33.022 C10.052 37.603 10.632 42.186 11.201 46.77 C12.121 54.131 13.126 61.478 14.142 68.826 C14.638 72.447 15.134 76.068 15.628 79.689 C15.949 82.038 16.272 84.387 16.595 86.736 C17.046 90.027 17.486 93.319 17.923 96.611 C18.059 97.589 18.195 98.567 18.335 99.575 C18.453 100.479 18.571 101.384 18.693 102.315 C18.798 103.098 18.904 103.881 19.012 104.687 C19.25 110.203 17.018 114.703 14.708 119.584 C14.359 120.334 14.01 121.083 13.65 121.856 C12.893 123.481 12.134 125.105 11.372 126.728 C9.312 131.119 7.27 135.518 5.228 139.916 C4.804 140.827 4.381 141.738 3.945 142.677 C-0.521 152.3 -4.866 161.976 -9.202 171.658 C-15.791 186.355 -22.486 200.995 -29.31 215.585 C-31.014 219.239 -32.709 222.897 -34.401 226.557 C-34.99 227.83 -35.58 229.104 -36.169 230.378 C-37.277 232.772 -38.384 235.168 -39.49 237.563 C-42.514 244.091 -45.638 250.552 -48.889 256.971 C-59.779 257.466 -59.779 257.466 -70.889 257.971 C-64.951 254.012 -58.808 253.723 -51.889 253.971 C-51.889 253.311 -51.889 252.651 -51.889 251.971 C-52.694 251.599 -52.694 251.599 -53.514 251.221 C-56.453 249.674 -59.137 247.825 -61.889 245.971 C-57.246 236.008 -52.503 226.11 -47.506 216.318 C-35.58 192.913 -24.421 169.455 -14.889 144.971 C-14.467 143.886 -14.044 142.801 -13.609 141.683 C-8.242 130.373 -8.242 130.373 -7.687 118.688 C-8.118 117.91 -8.55 117.132 -8.995 116.33 C-9.478 115.437 -9.961 114.544 -10.458 113.624 C-10.992 112.666 -11.526 111.708 -12.077 110.721 C-13.196 108.65 -14.312 106.577 -15.424 104.502 C-16.001 103.428 -16.577 102.354 -17.171 101.248 C-19.935 95.976 -22.474 90.603 -25.014 85.221 C-29.37 76.033 -33.931 66.991 -38.733 58.029 C-44.889 46.492 -44.889 46.492 -44.889 43.971 C-42.968 42.303 -41.038 40.756 -39.014 39.221 C-38.392 38.74 -37.77 38.26 -37.129 37.765 C-35.771 36.717 -34.411 35.672 -33.05 34.628 C-29.338 31.78 -25.646 28.905 -21.952 26.033 C-21.201 25.45 -20.449 24.867 -19.675 24.266 C-12.354 18.575 -5.112 12.787 2.111 6.971 C-1.103 3.953 -1.103 3.953 -5.186 2.658 C-36.194 6.608 -65.649 19.568 -92.389 35.346 C-97.242 38.178 -101.346 40.084 -106.889 40.971 C-100.171 33.094 -89.765 29.345 -80.636 24.862 C-77.541 23.336 -74.539 21.767 -71.553 20.029 C-57.133 11.693 -16.674 -9.085 0 0 Z M-13.889 41.971 C-13.435 43.701 -12.975 45.43 -12.514 47.158 C-12.259 48.121 -12.004 49.084 -11.741 50.076 C-10.942 52.793 -9.986 55.362 -8.889 57.971 C-7.697 54.508 -8.082 52.317 -9.139 48.846 C-9.392 47.977 -9.645 47.108 -9.905 46.213 C-10.791 43.647 -10.791 43.647 -13.889 41.971 Z M-25.889 46.971 C-24.257 56.719 -22.073 66.335 -19.889 75.971 C-19.559 75.971 -19.229 75.971 -18.889 75.971 C-19.155 65.616 -20.282 56.768 -23.889 46.971 C-24.549 46.971 -25.209 46.971 -25.889 46.971 Z M-13.889 64.971 C-13.559 67.611 -13.229 70.251 -12.889 72.971 C-12.559 72.971 -12.229 72.971 -11.889 72.971 C-11.722 70.054 -11.722 70.054 -11.889 66.971 C-12.549 66.311 -13.209 65.651 -13.889 64.971 Z M-11.889 72.971 C-11.889 75.611 -11.889 78.251 -11.889 80.971 C-11.559 80.971 -11.229 80.971 -10.889 80.971 C-10.889 78.331 -10.889 75.691 -10.889 72.971 C-11.219 72.971 -11.549 72.971 -11.889 72.971 Z M-8.889 147.971 C-10.209 150.281 -11.529 152.591 -12.889 154.971 C-9.591 154.248 -9.591 154.248 -8.202 150.908 C-7.552 149.454 -7.552 149.454 -6.889 147.971 C-7.549 147.971 -8.209 147.971 -8.889 147.971 Z M-17.889 173.971 C-19.415 176.01 -20.882 178.062 -22.327 180.158 C-22.735 180.736 -23.143 181.314 -23.563 181.91 C-27.746 187.604 -27.746 187.604 -28.514 194.283 C-28.308 194.84 -28.102 195.397 -27.889 195.971 C-25.466 195.9 -25.466 195.9 -22.889 194.971 C-18.813 188.63 -17.261 181.399 -16.889 173.971 C-17.219 173.971 -17.549 173.971 -17.889 173.971 Z M-34.889 203.971 C-40.206 209.659 -40.206 209.659 -41.889 216.971 C-41.229 216.971 -40.569 216.971 -39.889 216.971 C-36.373 213.212 -33.22 209.258 -32.889 203.971 C-33.549 203.971 -34.209 203.971 -34.889 203.971 Z " fill="#000000" transform="translate(390.8892822265625,68.02940368652344)"/>
<path d="M0 0 C5.176 0.882 8.469 4.306 12 8 C13.5 10.938 13.5 10.938 14 13 C12.34 11.578 10.681 10.155 9.023 8.73 C7.68 7.581 6.331 6.438 4.977 5.301 C4.345 4.768 3.713 4.236 3.062 3.688 C2.476 3.196 1.889 2.705 1.285 2.199 C0.861 1.803 0.437 1.408 0 1 C0 0.67 0 0.34 0 0 Z " fill="#000000" transform="translate(527,100)"/>
<path d="M0 0 C1.315 3.945 0.02 6.139 -1.508 9.789 C-1.784 10.471 -2.061 11.154 -2.346 11.857 C-2.948 13.338 -3.554 14.817 -4.163 16.294 C-5.137 18.655 -6.101 21.02 -7.061 23.387 C-8.055 25.839 -9.051 28.29 -10.049 30.74 C-13.26 38.616 -16.392 46.521 -19.5 54.438 C-19.893 55.438 -19.893 55.438 -20.293 56.458 C-21.365 59.188 -22.436 61.919 -23.506 64.649 C-25.234 69.056 -26.973 73.458 -28.719 77.858 C-34.783 93.153 -40.774 108.384 -45.517 124.152 C-47.279 129.991 -49.377 135.492 -52 141 C-52.66 141 -53.32 141 -54 141 C-53.45 133.457 -51.155 126.673 -48.688 119.562 C-48.456 118.891 -48.225 118.219 -47.987 117.527 C-41.021 97.385 -32.679 77.762 -24.517 58.083 C-22.112 52.279 -19.733 46.464 -17.363 40.645 C-16.638 38.867 -15.913 37.089 -15.188 35.311 C-14.174 32.823 -13.159 30.335 -12.147 27.846 C-8.323 18.449 -4.352 9.168 0 0 Z " fill="#000000" transform="translate(662,110)"/>
<path d="M0 0 C2.772 2.429 4.083 4.923 5.609 8.258 C6.109 9.342 6.609 10.427 7.125 11.544 C7.661 12.726 8.197 13.908 8.75 15.125 C9.319 16.365 9.888 17.605 10.458 18.844 C12.315 22.892 14.158 26.946 16 31 C16.654 32.437 17.308 33.873 17.962 35.31 C20.549 40.993 23.136 46.677 25.71 52.366 C26.006 53.019 26.302 53.673 26.608 54.346 C27.193 55.639 27.776 56.932 28.357 58.227 C29.857 61.551 31.405 64.841 33.036 68.103 C33.366 68.774 33.696 69.445 34.036 70.137 C34.665 71.411 35.306 72.678 35.962 73.938 C37.987 78.074 38.257 80.587 37 85 C36.247 87.055 35.425 89.086 34.551 91.094 C34.039 92.274 33.528 93.455 33.001 94.671 C32.438 95.948 31.876 97.224 31.312 98.5 C30.731 99.83 30.149 101.159 29.568 102.489 C21.779 120.228 13.708 137.88 4.912 155.143 C1.894 161.108 -0.899 167.175 -3.688 173.25 C-4.14 174.233 -4.592 175.215 -5.057 176.228 C-7.835 182.315 -10.408 188.441 -12.8 194.69 C-14 197 -14 197 -17 198 C-14.277 187.586 -11.12 177.3 -8 167 C-8.66 167 -9.32 167 -10 167 C-11.398 171.999 -12.769 177 -13.984 182.047 C-14.153 182.742 -14.321 183.438 -14.495 184.154 C-14.824 185.519 -15.148 186.885 -15.466 188.252 C-16.558 192.772 -18.079 196.788 -20 201 C-21.331 196.64 -20.366 193.071 -19.348 188.734 C-19.169 187.941 -18.99 187.148 -18.805 186.33 C-18.233 183.801 -17.648 181.276 -17.062 178.75 C-16.672 177.034 -16.282 175.318 -15.893 173.602 C-14.938 169.399 -13.972 165.199 -13 161 C-16.488 172.994 -16.488 172.994 -19.234 185.176 C-19.437 186.206 -19.639 187.236 -19.847 188.297 C-20.235 190.321 -20.603 192.349 -20.948 194.381 C-22.46 202.187 -22.46 202.187 -25.973 204.727 C-29 206 -29 206 -32 205 C-33.325 200.477 -32.574 196.74 -31.551 192.258 C-31.383 191.484 -31.214 190.71 -31.041 189.913 C-30.671 188.217 -30.296 186.521 -29.917 184.827 C-29.297 182.055 -28.69 179.28 -28.085 176.504 C-26.276 168.219 -24.435 159.942 -22.585 151.666 C-21.111 145.071 -19.645 138.474 -18.188 131.875 C-17.94 130.754 -17.692 129.633 -17.436 128.478 C-12.371 105.486 -7.996 82.38 -3.745 59.226 C-3.621 58.554 -3.498 57.882 -3.37 57.189 C-2.789 54.025 -2.21 50.859 -1.637 47.693 C-1.435 46.588 -1.233 45.482 -1.025 44.343 C-0.763 42.896 -0.763 42.896 -0.495 41.42 C0 39 0 39 1 36 C0.34 36 -0.32 36 -1 36 C-1.147 36.787 -1.147 36.787 -1.297 37.59 C-2.31 42.837 -3.484 48.024 -4.754 53.215 C-7.633 65.269 -9.868 77.454 -12.188 89.625 C-12.672 92.153 -13.156 94.681 -13.641 97.209 C-14.625 102.337 -15.606 107.465 -16.585 112.594 C-17.888 119.417 -19.197 126.238 -20.508 133.059 C-24.729 155.029 -28.906 177.006 -33 199 C-36.112 195.983 -38.269 193.218 -40.312 189.375 C-41.111 187.933 -41.111 187.933 -41.926 186.461 C-44.522 178.097 -41.202 167.986 -39.664 159.574 C-39.426 158.253 -39.188 156.931 -38.951 155.61 C-38.444 152.781 -37.935 149.953 -37.424 147.125 C-31.943 116.719 -26.894 86.258 -22.103 55.736 C-21.688 53.096 -21.27 50.456 -20.852 47.817 C-19.88 41.682 -18.927 35.547 -18.038 29.399 C-17.616 26.499 -17.181 23.6 -16.743 20.702 C-16.538 19.321 -16.34 17.938 -16.149 16.555 C-15.884 14.649 -15.596 12.747 -15.306 10.845 C-15.15 9.762 -14.994 8.678 -14.833 7.562 C-14 5 -14 5 -12.106 3.635 C-10 3 -10 3 -7 3 C-7.993 8.815 -9.117 14.591 -10.369 20.355 C-13.003 32.501 -15.04 44.729 -17 57 C-16.34 57 -15.68 57 -15 57 C-14.906 55.723 -14.812 54.445 -14.715 53.129 C-13.898 44.973 -12.158 36.969 -10.562 28.938 C-10.246 27.325 -9.931 25.712 -9.615 24.1 C-8.882 20.36 -8.134 16.624 -7.377 12.889 C-7.048 11.238 -6.734 9.585 -6.424 7.93 C-6.032 5.936 -5.531 3.962 -5 2 C-2.375 0.438 -2.375 0.438 0 0 Z M20 57 C19.331 59.791 18.664 62.583 18 65.375 C17.809 66.169 17.618 66.963 17.422 67.781 C17.151 68.922 17.151 68.922 16.875 70.086 C16.707 70.788 16.54 71.489 16.367 72.212 C15.933 74.022 15.933 74.022 16 76 C16.66 76 17.32 76 18 76 C19.32 69.73 20.64 63.46 22 57 C21.34 57 20.68 57 20 57 Z M26 73 C22.351 83.55 19.2 94.158 16.312 104.938 C15.919 106.391 15.525 107.845 15.131 109.299 C13.359 115.851 11.633 122.411 10 129 C12.389 126.859 13.549 125.127 14.578 122.098 C14.849 121.303 15.12 120.508 15.398 119.689 C15.679 118.822 15.96 117.956 16.25 117.062 C16.546 116.159 16.843 115.255 17.148 114.324 C19.721 106.272 21.912 98.128 24 89.938 C24.315 88.719 24.63 87.5 24.954 86.244 C25.237 85.1 25.521 83.956 25.812 82.777 C26.193 81.25 26.193 81.25 26.582 79.691 C26.993 77.044 26.876 75.5 26 73 Z " fill="#000000" transform="translate(339,118)"/>
<path d="M0 0 C-0.497 9.207 -2.257 18.102 -4.019 27.129 C-7.458 44.835 -10.454 62.592 -13.176 80.422 C-13.432 82.097 -13.432 82.097 -13.693 83.805 C-14.733 90.632 -15.764 97.46 -16.791 104.289 C-18.183 113.535 -19.586 122.78 -20.992 132.024 C-21.473 135.198 -21.95 138.372 -22.426 141.547 C-24.018 152.096 -25.761 162.567 -28 173 C-33.069 166.353 -38.549 158.453 -37.958 149.738 C-37.351 145.246 -36.255 140.885 -35.125 136.5 C-34.777 135.01 -34.433 133.519 -34.094 132.027 C-33.424 129.105 -32.73 126.19 -32.017 123.277 C-30.471 116.894 -29.237 110.449 -28 104 C-28.66 104 -29.32 104 -30 104 C-30.157 105.779 -30.157 105.779 -30.316 107.594 C-31.065 114.316 -32.535 120.89 -33.938 127.5 C-34.202 128.767 -34.467 130.034 -34.74 131.34 C-36.116 137.903 -37.528 144.457 -39 151 C-41.688 147.691 -43.572 144.121 -45.438 140.312 C-45.774 139.633 -46.11 138.953 -46.457 138.252 C-56.126 118.624 -56.126 118.624 -60.418 109.196 C-61.932 105.959 -61.932 105.959 -64 103.037 C-71.929 90.076 -68.684 74.848 -67.221 60.421 C-66.853 56.701 -66.532 52.976 -66.207 49.252 C-65.619 42.599 -64.996 35.951 -64.324 29.306 C-64.116 27.185 -63.926 25.063 -63.758 22.938 C-63.685 22.037 -63.611 21.136 -63.535 20.208 C-63.45 19.049 -63.45 19.049 -63.364 17.867 C-63 16 -63 16 -61 14 C-58.951 13.297 -58.951 13.297 -56.398 12.656 C-54.967 12.291 -54.967 12.291 -53.506 11.918 C-52.473 11.663 -51.44 11.408 -50.375 11.145 C-49.317 10.879 -48.259 10.613 -47.169 10.339 C-44.931 9.778 -42.691 9.221 -40.451 8.667 C-37.012 7.815 -33.576 6.949 -30.141 6.08 C-27.969 5.538 -25.797 4.997 -23.625 4.457 C-22.592 4.196 -21.558 3.934 -20.494 3.665 C-19.539 3.431 -18.585 3.197 -17.602 2.956 C-16.338 2.642 -16.338 2.642 -15.049 2.322 C-13 2 -13 2 -11 3 C-11.17 4.04 -11.34 5.081 -11.516 6.152 C-14.556 25.662 -16.169 45.348 -18 65 C-17.037 58.742 -16.077 52.484 -15.119 46.226 C-14.794 44.104 -14.468 41.982 -14.142 39.86 C-12.399 28.54 -10.699 17.233 -9.408 5.852 C-9 3 -9 3 -8 1 C-5.148 0.017 -3.104 0 0 0 Z M-55 23 C-57.658 28.556 -58.939 33.813 -59.938 39.875 C-60.184 41.33 -60.184 41.33 -60.435 42.815 C-61.929 51.972 -63.115 61.167 -64.25 70.375 C-64.383 71.441 -64.383 71.441 -64.519 72.529 C-67.08 86.746 -67.08 86.746 -63.5 100.062 C-63.036 100.817 -62.572 101.571 -62.094 102.348 C-61.733 102.893 -61.372 103.438 -61 104 C-60.67 104 -60.34 104 -60 104 C-58.131 88.305 -56.696 72.667 -55.82 56.889 C-55.191 45.553 -54.288 34.281 -53 23 C-53.66 23 -54.32 23 -55 23 Z M-45 60 C-47.528 68.939 -49.71 77.923 -51.688 87 C-51.902 87.978 -52.116 88.957 -52.337 89.965 C-56.149 106.796 -56.149 106.796 -52 123 C-51.67 123 -51.34 123 -51 123 C-50.925 121.804 -50.85 120.608 -50.773 119.375 C-49.35 99.429 -46.098 79.74 -43 60 C-43.66 60 -44.32 60 -45 60 Z " fill="#000000" transform="translate(323,123)"/>
<path d="M0 0 C0.99 0.33 1.98 0.66 3 1 C-0.757 7.021 -4.978 12.641 -9.312 18.25 C-13.911 24.207 -18.312 30.218 -22.516 36.461 C-24.49 39.338 -26.596 42.094 -28.734 44.852 C-29.712 46.127 -29.712 46.127 -30.709 47.428 C-32.01 49.119 -33.325 50.799 -34.656 52.466 C-35.248 53.241 -35.84 54.015 -36.449 54.812 C-36.989 55.5 -37.529 56.187 -38.085 56.895 C-39.278 59.036 -39.278 59.036 -38.295 61.553 C-36.567 64.818 -34.516 67.812 -32.375 70.812 C-31.955 71.41 -31.535 72.007 -31.102 72.623 C-30.072 74.085 -29.037 75.543 -28 77 C-24.051 75.684 -23.15 73.844 -20.688 70.5 C-15.997 64.214 -11.061 58.168 -5.999 52.178 C-1.958 47.341 1.601 42.306 5 37 C7.769 39.769 7.401 41.617 7.625 45.5 C7.682 46.474 7.682 46.474 7.74 47.467 C8.165 55.639 8.084 63.821 8 72 C8.66 72 9.32 72 10 72 C9.867 70.952 9.734 69.905 9.598 68.826 C9.11 64.875 8.686 60.92 8.279 56.961 C8.095 55.26 7.896 53.561 7.678 51.864 C6.065 39.153 7.236 31.357 15 21 C15.33 21 15.66 21 16 21 C17.068 29.669 17.305 38.349 17.535 47.07 C17.578 48.603 17.622 50.136 17.665 51.668 C17.779 55.67 17.888 59.671 17.996 63.672 C18.107 67.769 18.223 71.865 18.338 75.961 C18.563 83.974 18.783 91.987 19 100 C19.346 57.457 19.346 57.457 17 15 C19.64 14.67 22.28 14.34 25 14 C27.64 28.52 30.28 43.04 33 58 C32.37 51.696 31.687 45.579 30.59 39.367 C30.458 38.604 30.326 37.842 30.191 37.056 C29.776 34.662 29.357 32.268 28.938 29.875 C28.653 28.234 28.368 26.594 28.084 24.953 C27.393 20.968 26.698 16.984 26 13 C29.265 11.664 32.357 10.597 35.812 9.875 C36.603 9.707 37.393 9.54 38.207 9.367 C38.799 9.246 39.39 9.125 40 9 C36.582 6.721 33.52 6.138 29.562 5.438 C28.855 5.308 28.148 5.179 27.42 5.046 C21.307 3.969 15.198 3.34 9 3 C9 2.67 9 2.34 9 2 C20.694 -0.58 35.673 0.595 46 7 C47.207 8.945 47.207 8.945 47.812 11.125 C48.025 11.829 48.238 12.533 48.457 13.258 C51.107 26.64 50.166 40.631 50.036 54.211 C49.995 58.865 50.043 63.507 50.16 68.16 C50.348 81.963 50.348 81.963 47.082 86.898 C44.757 88.847 42.431 90.382 39.798 91.877 C36.182 94.135 33.05 97.052 29.812 99.812 C24.008 104.619 18.123 109.312 12.125 113.875 C11.453 114.393 10.781 114.911 10.089 115.445 C5.356 119 5.356 119 2 119 C-4.653 113.361 -10.352 106.599 -15.766 99.793 C-18.055 96.932 -20.429 94.158 -22.812 91.375 C-28.543 84.523 -33.677 77.257 -38.702 69.876 C-39.532 68.676 -40.388 67.493 -41.274 66.335 C-43.071 63.922 -44.013 62.493 -43.934 59.438 C-40.669 50.914 -34.306 43.633 -28.734 36.516 C-25.784 32.742 -22.924 28.904 -20.062 25.062 C-16.076 19.727 -12.044 14.431 -7.938 9.188 C-7.258 8.317 -7.258 8.317 -6.565 7.428 C-4.501 4.807 -2.44 2.28 0 0 Z M36 39 C36.66 43.29 37.32 47.58 38 52 C38.33 52 38.66 52 39 52 C38.887 50.02 38.759 48.041 38.625 46.062 C38.555 44.96 38.486 43.858 38.414 42.723 C38.277 41.824 38.141 40.926 38 40 C37.34 39.67 36.68 39.34 36 39 Z M-11 61 C-11.574 64.895 -12.144 68.792 -12.709 72.688 C-12.996 74.662 -13.287 76.635 -13.578 78.607 C-13.849 80.478 -13.849 80.478 -14.125 82.387 C-14.293 83.534 -14.46 84.68 -14.633 85.862 C-14.955 88.616 -15.073 91.232 -15 94 C-14.34 94 -13.68 94 -13 94 C-12.323 90.002 -11.66 86.001 -11 82 C-10.809 80.875 -10.618 79.749 -10.422 78.59 C-9.448 72.643 -8.764 67.026 -9 61 C-9.66 61 -10.32 61 -11 61 Z M24 62 C24.237 66.485 24.485 70.969 24.745 75.452 C24.831 76.977 24.914 78.501 24.995 80.026 C25.111 82.221 25.238 84.415 25.367 86.609 C25.401 87.289 25.434 87.968 25.468 88.668 C25.69 92.223 26.098 94.954 28 98 C28.372 85.9 27.228 74.024 26 62 C25.34 62 24.68 62 24 62 Z M-16 69 C-18.589 78.878 -18.589 78.878 -19 89 C-15.676 82.938 -14.639 75.861 -15 69 C-15.33 69 -15.66 69 -16 69 Z " fill="#000000" transform="translate(524,98)"/>
<path d="M0 0 C0.99 0.33 1.98 0.66 3 1 C2.67 2.65 2.34 4.3 2 6 C0.68 6.33 -0.64 6.66 -2 7 C-2.688 5.188 -2.688 5.188 -3 3 C-1.562 1.25 -1.562 1.25 0 0 Z " fill="#000000" transform="translate(142,137)"/>
<path d="M0 0 C0.66 0.66 1.32 1.32 2 2 C1.819 4.767 1.536 7.392 1.125 10.125 C1.021 10.879 0.916 11.633 0.809 12.41 C0.549 14.275 0.276 16.138 0 18 C-0.66 18 -1.32 18 -2 18 C-2.912 12.328 -3.074 7.661 -2 2 C-1.34 1.34 -0.68 0.68 0 0 Z " fill="#000000" transform="translate(430,166)"/>
<path d="M0 0 C1.32 0.66 2.64 1.32 4 2 C3.484 7.936 2.106 13.852 -1 19 C-3.137 19.789 -3.137 19.789 -5 20 C-5.422 13.676 -4.153 7.956 -2 2 C-1.34 1.34 -0.68 0.68 0 0 Z " fill="#000000" transform="translate(646,204)"/>
<path d="M0 0 C0.33 0 0.66 0 1 0 C0.377 7.341 -1.14 14.238 -2.938 21.375 C-4.898 29.216 -6.66 37.027 -8 45 C-8.33 45 -8.66 45 -9 45 C-9.195 38.185 -8.52 31.94 -7.25 25.25 C-7.072 24.29 -6.893 23.33 -6.71 22.341 C-2.99 2.99 -2.99 2.99 0 0 Z " fill="#000000" transform="translate(149,217)"/>
<path d="M0 0 C4.759 0.566 8.403 2.701 12.438 5.125 C13.539 5.782 13.539 5.782 14.663 6.453 C32.268 17.114 48.82 29.307 65 42 C65.922 42.719 66.845 43.439 67.795 44.18 C68.703 44.895 69.611 45.611 70.547 46.348 C71.375 46.999 72.204 47.65 73.058 48.321 C75 50 75 50 76 52 C66.432 48.54 58.105 41.43 49.897 35.502 C47.278 33.612 44.646 31.766 41.949 29.988 C38.904 27.935 36.061 25.724 33.188 23.438 C26.069 17.864 18.514 13.036 10.885 8.198 C8.389 6.611 5.908 5.001 3.438 3.375 C2.756 2.929 2.074 2.483 1.371 2.023 C0.919 1.686 0.466 1.348 0 1 C0 0.67 0 0.34 0 0 Z " fill="#000000" transform="translate(152,219)"/>
<path d="M0 0 C3.368 3.368 3.48 8.056 4.375 12.625 C4.593 13.727 4.81 14.83 5.035 15.965 C8.209 32.675 10.003 49.609 11.809 66.512 C11.935 67.695 12.062 68.877 12.192 70.096 C12.435 72.37 12.677 74.645 12.917 76.919 C13.715 84.19 14.866 91.258 16.547 98.375 C17 101 17 101 16 104 C7.899 86.377 7.408 65.437 5.509 46.39 C4.366 35 2.937 23.695 1.219 12.376 C1.059 11.321 0.899 10.267 0.734 9.18 C0.592 8.269 0.45 7.359 0.304 6.421 C0 4 0 4 0 0 Z " fill="#000000" transform="translate(502,233)"/>
<path d="M0 0 C7.784 0.413 14.255 3.295 21.375 6.312 C23.716 7.288 26.057 8.263 28.398 9.238 C29.513 9.71 30.628 10.181 31.776 10.667 C35.545 12.225 39.356 13.653 43.194 15.032 C45 16 45 16 46 19 C44.02 18.887 42.041 18.759 40.062 18.625 C38.96 18.555 37.858 18.486 36.723 18.414 C35.824 18.277 34.926 18.141 34 18 C33.505 17.01 33.505 17.01 33 16 C31.68 16.33 30.36 16.66 29 17 C28.67 16.34 28.34 15.68 28 15 C26.001 13.941 26.001 13.941 23.555 12.977 C22.642 12.595 21.729 12.213 20.789 11.82 C19.827 11.426 18.866 11.031 17.875 10.625 C11.675 8.07 5.74 5.482 0 2 C0 1.34 0 0.68 0 0 Z " fill="#000000" transform="translate(152,235)"/>
<path d="M0 0 C0.965 0.407 0.965 0.407 1.949 0.823 C16.933 7.175 16.933 7.175 32.125 13 C43.699 17.24 55 22.441 66 28 C64 29 64 29 61.729 28.335 C60.797 27.972 59.866 27.609 58.906 27.234 C57.875 26.839 56.844 26.443 55.781 26.035 C54.698 25.611 53.616 25.187 52.5 24.75 C45.764 22.133 39.075 19.645 32.131 17.635 C27.253 16.181 22.648 14.055 18 12 C17.282 11.688 16.563 11.377 15.823 11.056 C13.478 10.033 11.145 8.988 8.812 7.938 C8.057 7.609 7.302 7.281 6.523 6.943 C4.395 5.965 4.395 5.965 1 4 C0.288 1.877 0.288 1.877 0 0 Z " fill="#000000" transform="translate(150,241)"/>
<path d="M0 0 C5.61 1.98 11.22 3.96 17 6 C17.33 5.34 17.66 4.68 18 4 C18.33 4.99 18.66 5.98 19 7 C21.599 8.064 21.599 8.064 25 9 C26.585 9.565 28.165 10.141 29.742 10.727 C30.58 11.036 31.418 11.345 32.281 11.664 C33.137 11.981 33.993 12.298 34.875 12.625 C35.754 12.95 36.633 13.275 37.539 13.609 C39.693 14.405 41.847 15.202 44 16 C39.772 17.274 36.388 16.467 32.188 15.438 C31.44 15.257 30.692 15.076 29.922 14.89 C19.374 12.219 8.827 8.485 0 2 C0 1.34 0 0.68 0 0 Z " fill="#000000" transform="translate(150,250)"/>
<path d="M0 0 C4.989 4.615 9.156 10.618 10.043 17.418 C9.506 37.393 -9.138 60.427 -19.393 76.495 C-22.571 81.491 -25.699 86.518 -28.832 91.543 C-30.081 93.541 -31.329 95.538 -32.578 97.535 C-35.094 101.56 -37.606 105.586 -40.117 109.613 C-46.716 120.193 -53.354 130.744 -60.063 141.254 C-64.359 147.993 -68.604 154.762 -72.832 161.543 C-77.821 169.543 -82.836 177.525 -87.895 185.48 C-88.734 186.802 -88.734 186.802 -89.59 188.15 C-93.101 193.662 -96.685 199.12 -100.332 204.543 C-100.662 203.883 -100.992 203.223 -101.332 202.543 C-100.398 200.585 -100.398 200.585 -98.895 198.16 C-98.337 197.253 -97.78 196.346 -97.206 195.411 C-96.587 194.423 -95.969 193.436 -95.332 192.418 C-94.379 190.876 -94.379 190.876 -93.408 189.302 C-91.392 186.043 -89.363 182.792 -87.332 179.543 C-86.711 178.547 -86.09 177.552 -85.45 176.526 C-83 172.598 -80.548 168.673 -78.089 164.751 C-73.399 157.269 -68.763 149.756 -64.145 142.23 C-57.154 130.846 -50.052 119.536 -42.882 108.263 C-35.623 96.847 -28.52 85.345 -21.512 73.773 C-19.725 70.825 -17.931 67.884 -16.09 64.969 C-0.464 42.222 -0.464 42.222 6.668 16.543 C5.668 13.542 4.331 11.218 2.668 8.543 C2.46 9.209 2.253 9.876 2.039 10.562 C-2.849 25.185 -12.546 36.567 -22.823 47.798 C-24.442 49.57 -26.056 51.347 -27.662 53.13 C-34.733 60.94 -42.079 68.444 -49.54 75.881 C-51.531 77.867 -53.517 79.858 -55.502 81.85 C-66.627 92.98 -66.627 92.98 -72.54 98.001 C-76.087 101.054 -79.441 104.319 -82.832 107.543 C-88.227 112.673 -93.696 117.679 -99.332 122.543 C-100.511 123.566 -101.689 124.59 -102.867 125.613 C-104.043 126.632 -105.219 127.65 -106.395 128.668 C-107.706 129.803 -109.017 130.939 -110.328 132.074 C-111.322 132.935 -111.322 132.935 -112.335 133.812 C-114.285 135.502 -116.233 137.194 -118.18 138.887 C-125.648 145.377 -133.158 151.813 -140.726 158.187 C-142.381 159.584 -144.031 160.987 -145.68 162.391 C-151.216 167.101 -156.79 171.747 -162.488 176.262 C-166.219 179.254 -169.898 182.307 -173.582 185.355 C-179.382 190.148 -185.228 194.869 -191.161 199.497 C-195.435 202.831 -199.67 206.21 -203.895 209.605 C-209.996 214.499 -216.157 219.308 -222.378 224.05 C-224.661 225.795 -226.938 227.548 -229.215 229.301 C-239.412 237.134 -249.708 244.766 -260.267 252.103 C-263.105 254.082 -265.927 256.084 -268.749 258.085 C-287.828 271.604 -307.096 284.801 -327.332 296.543 C-328.003 296.933 -328.673 297.323 -329.364 297.725 C-370.563 321.543 -370.563 321.543 -386.332 321.543 C-384.106 327.007 -379.66 331.133 -374.332 333.543 C-370.623 333.794 -370.623 333.794 -367.332 333.543 C-371.156 336.092 -372.786 336.139 -377.332 335.543 C-384.772 331.765 -389.765 325.07 -392.457 317.293 C-391.613 291.962 -369.66 264.898 -356.145 244.543 C-355.773 243.982 -355.401 243.421 -355.018 242.843 C-349.715 234.86 -344.123 227.175 -338.332 219.543 C-336.183 216.621 -334.075 213.67 -331.961 210.723 C-330.332 208.543 -330.332 208.543 -328.332 206.543 C-330.923 228.54 -346.208 250.602 -358.332 268.543 C-358.662 267.883 -358.992 267.223 -359.332 266.543 C-358.372 264.28 -357.344 262.155 -356.207 259.98 C-355.86 259.302 -355.514 258.624 -355.156 257.926 C-353.891 255.46 -352.612 253.001 -351.332 250.543 C-350.189 248.336 -349.045 246.129 -347.902 243.922 C-344.722 237.79 -341.531 231.665 -338.332 225.543 C-341.974 230.33 -345.515 235.15 -348.832 240.168 C-349.249 240.798 -349.665 241.428 -350.095 242.077 C-351.512 244.229 -352.923 246.385 -354.332 248.543 C-354.859 249.345 -355.385 250.148 -355.928 250.975 C-379.069 281.984 -379.069 281.984 -388.332 317.543 C-387.202 318.893 -387.202 318.893 -384.238 318.746 C-380.123 318.532 -376.669 317.683 -372.832 316.293 C-372.106 316.031 -371.381 315.769 -370.633 315.5 C-353.107 308.867 -336.847 298.791 -320.969 288.969 C-317.732 286.968 -314.516 285.076 -311.102 283.398 C-299.805 277.443 -295.561 267.522 -289.894 256.51 C-287.542 252.042 -284.956 247.73 -282.332 243.418 C-281.849 242.62 -281.366 241.821 -280.869 240.999 C-279.361 238.511 -277.846 236.027 -276.332 233.543 C-275.764 232.605 -275.195 231.667 -274.609 230.7 C-272.857 227.81 -271.096 224.926 -269.332 222.043 C-268.792 221.152 -268.252 220.261 -267.695 219.343 C-265.221 215.325 -262.939 211.665 -259.332 208.543 C-259.851 214.24 -262.093 218.478 -264.77 223.418 C-265.219 224.257 -265.669 225.097 -266.132 225.961 C-274.526 241.446 -284.508 255.945 -294.332 270.543 C-292.581 270.543 -291.319 269.288 -289.895 268.34 C-289.173 267.86 -288.452 267.381 -287.709 266.887 C-286.925 266.361 -286.14 265.835 -285.332 265.293 C-284.521 264.75 -283.71 264.207 -282.875 263.648 C-266.681 252.762 -250.933 241.259 -235.332 229.543 C-236.838 226.044 -238.896 223.721 -241.52 220.98 C-245.628 216.527 -248.835 211.898 -251.922 206.695 C-253.153 204.423 -253.153 204.423 -255.332 203.543 C-255.662 204.863 -255.992 206.183 -256.332 207.543 C-256.992 206.883 -257.652 206.223 -258.332 205.543 C-259.31 206.002 -260.289 206.461 -261.297 206.934 C-262.621 207.553 -263.945 208.173 -265.27 208.793 C-265.91 209.093 -266.55 209.394 -267.209 209.703 C-267.857 210.006 -268.504 210.309 -269.172 210.621 C-269.839 210.942 -270.507 211.263 -271.194 211.594 C-273.332 212.543 -273.332 212.543 -275.745 213.334 C-280.344 214.897 -280.344 214.897 -283.412 218.451 C-284.179 220.989 -284.682 223.494 -285.145 226.105 C-287.37 236.332 -290.35 246.14 -293.756 256.023 C-294.307 257.62 -294.854 259.219 -295.396 260.819 C-296.163 263.082 -296.941 265.34 -297.723 267.598 C-297.956 268.285 -298.189 268.973 -298.429 269.681 C-300.101 274.428 -300.101 274.428 -302.332 275.543 C-298.223 256.988 -293.125 238.642 -287.332 220.543 C-287.794 221.452 -288.255 222.361 -288.73 223.297 C-293.342 232.234 -298.488 240.606 -304.193 248.883 C-305.933 251.419 -307.632 253.981 -309.332 256.543 C-309.662 255.883 -309.992 255.223 -310.332 254.543 C-309.24 252.072 -309.24 252.072 -307.543 248.977 C-306.931 247.851 -306.318 246.725 -305.688 245.564 C-305.028 244.37 -304.367 243.175 -303.707 241.98 C-303.077 240.825 -302.446 239.669 -301.797 238.479 C-298.34 232.15 -294.845 225.841 -291.332 219.543 C-294.758 220.363 -298.076 221.176 -301.332 222.543 C-302.812 224.91 -302.812 224.91 -303.332 227.543 C-305.332 229.855 -305.332 229.855 -307.332 231.543 C-307.992 231.543 -308.652 231.543 -309.332 231.543 C-308.03 228.638 -306.623 226.734 -304.332 224.543 C-306.27 225.021 -308.207 225.5 -310.145 225.98 C-311.223 226.247 -312.302 226.514 -313.414 226.789 C-315.406 227.304 -317.38 227.892 -319.332 228.543 C-319.332 227.883 -319.332 227.223 -319.332 226.543 C-320.322 226.543 -321.312 226.543 -322.332 226.543 C-322.662 227.533 -322.992 228.523 -323.332 229.543 C-323.662 228.883 -323.992 228.223 -324.332 227.543 C-326.642 227.543 -328.952 227.543 -331.332 227.543 C-331.332 227.213 -331.332 226.883 -331.332 226.543 C-328.362 226.213 -325.392 225.883 -322.332 225.543 C-322.002 220.263 -321.672 214.983 -321.332 209.543 C-318.981 213.07 -319.118 214.572 -319.207 218.73 C-319.225 219.817 -319.243 220.904 -319.262 222.023 C-319.285 222.855 -319.308 223.686 -319.332 224.543 C-305.646 219.596 -291.979 214.599 -278.332 209.543 C-277.308 209.165 -277.308 209.165 -276.263 208.78 C-264.512 204.438 -254.419 200.46 -245.332 191.543 C-243.733 190.052 -242.124 188.573 -240.514 187.094 C-239.399 186.065 -238.287 185.033 -237.179 183.996 C-232.868 179.972 -228.356 176.256 -223.758 172.562 C-220.986 170.255 -218.483 167.784 -215.977 165.195 C-214.324 163.535 -212.61 162.007 -210.832 160.48 C-200.582 151.626 -190.829 142.195 -181.332 132.543 C-176.761 127.944 -176.761 127.944 -174.699 126.016 C-168.505 120.162 -163.481 113.301 -158.332 106.543 C-157.472 105.418 -157.472 105.418 -156.595 104.27 C-144.697 88.662 -133.469 72.62 -122.387 56.427 C-118.482 50.73 -114.497 45.092 -110.478 39.476 C-107.249 34.936 -104.233 30.299 -101.332 25.543 C-113.81 31.399 -125.527 38.451 -137.332 45.543 C-138.586 46.291 -139.839 47.038 -141.094 47.785 C-144.042 49.545 -146.984 51.315 -149.923 53.09 C-152.396 54.581 -154.871 56.067 -157.347 57.553 C-159.857 59.062 -162.365 60.574 -164.872 62.087 C-166.121 62.84 -167.37 63.591 -168.621 64.34 C-177.894 69.901 -186.49 75.833 -194.707 82.855 C-195.262 83.327 -195.816 83.798 -196.387 84.284 C-200.681 87.95 -204.891 91.701 -209.07 95.496 C-211.139 97.368 -213.228 99.212 -215.332 101.043 C-218.238 103.573 -221.104 106.142 -223.957 108.73 C-227.346 111.793 -230.781 114.789 -234.265 117.743 C-240.725 123.219 -246.977 128.873 -253.143 134.678 C-256.78 138.101 -260.459 141.449 -264.246 144.707 C-267.156 147.268 -269.99 149.907 -272.832 152.543 C-276.961 156.371 -281.117 160.152 -285.375 163.836 C-287.718 165.879 -290.025 167.96 -292.332 170.043 C-295.313 172.733 -298.304 175.406 -301.332 178.043 C-310.064 185.577 -310.064 185.577 -318.332 193.605 C-320.332 195.543 -320.332 195.543 -322.332 195.543 C-322.332 196.863 -322.332 198.183 -322.332 199.543 C-323.322 199.873 -324.312 200.203 -325.332 200.543 C-324.889 195.643 -323.851 193.453 -320.27 190.105 C-319.446 189.327 -318.622 188.548 -317.773 187.746 C-315.127 185.358 -312.459 183.001 -309.754 180.68 C-306.425 177.743 -303.195 174.705 -299.957 171.668 C-294.967 166.991 -289.942 162.364 -284.844 157.805 C-279.624 153.105 -274.486 148.315 -269.332 143.543 C-262.571 137.283 -255.797 131.043 -248.934 124.895 C-245.835 122.094 -242.771 119.257 -239.707 116.418 C-235.643 112.653 -231.546 108.941 -227.355 105.316 C-224.817 103.092 -222.326 100.818 -219.832 98.543 C-215.379 94.486 -210.888 90.484 -206.332 86.543 C-205.247 85.592 -204.163 84.642 -203.078 83.691 C-201.871 82.642 -200.664 81.592 -199.457 80.543 C-198.904 80.057 -198.351 79.57 -197.782 79.069 C-188.876 71.367 -179.009 65.479 -168.77 59.73 C-166.261 58.312 -163.753 56.89 -161.246 55.469 C-160.637 55.124 -160.028 54.78 -159.401 54.425 C-154.783 51.809 -150.204 49.134 -145.645 46.418 C-135.59 40.448 -125.363 34.774 -115.134 29.11 C-113.305 28.087 -111.486 27.047 -109.679 25.988 C-108.478 25.29 -108.478 25.29 -107.254 24.578 C-106.559 24.166 -105.864 23.753 -105.147 23.328 C-103.332 22.543 -103.332 22.543 -100.582 23.293 C-99.468 23.912 -99.468 23.912 -98.332 24.543 C-94.045 24.024 -90.058 22.48 -86.016 21.023 C-84.531 20.496 -83.046 19.968 -81.561 19.44 C-80.389 19.022 -80.389 19.022 -79.195 18.596 C-64.956 13.516 -50.672 8.58 -36.332 3.793 C-35.557 3.533 -34.783 3.273 -33.985 3.006 C-31.789 2.27 -29.592 1.538 -27.395 0.809 C-25.525 0.186 -25.525 0.186 -23.617 -0.448 C-16.064 -2.768 -7.043 -4.634 0 0 Z M-17.27 2.73 C-18.312 3.277 -19.355 3.824 -20.43 4.387 C-26.395 7.649 -32.286 11.048 -38.177 14.441 C-43.211 17.315 -48.257 20.041 -53.5 22.516 C-54.49 22.985 -55.479 23.455 -56.499 23.939 C-58.372 24.815 -60.256 25.67 -62.15 26.501 C-68.804 29.617 -71.775 33.208 -75.332 39.543 C-76.313 41.117 -77.298 42.687 -78.289 44.254 C-79.243 45.807 -80.195 47.362 -81.145 48.918 C-81.634 49.711 -82.123 50.504 -82.627 51.32 C-83.093 52.082 -83.559 52.844 -84.039 53.629 C-84.456 54.31 -84.874 54.991 -85.304 55.693 C-86.476 57.669 -86.476 57.669 -87.332 60.543 C-75.582 57.845 -63.915 54.909 -52.27 51.793 C-50.709 51.377 -49.148 50.962 -47.588 50.547 C-43.835 49.548 -40.083 48.546 -36.332 47.543 C-70.904 60.425 -70.904 60.425 -87.234 63.453 C-90.119 64.079 -91.118 64.34 -93.305 66.418 C-93.664 67.119 -94.024 67.82 -94.395 68.543 C-94.777 69.244 -95.16 69.945 -95.555 70.668 C-96.46 72.513 -96.46 72.513 -96.332 74.543 C-92.875 75.38 -89.416 76.212 -85.957 77.043 C-84.972 77.281 -83.987 77.52 -82.973 77.766 C-82.032 77.991 -81.091 78.217 -80.121 78.449 C-79.252 78.659 -78.382 78.868 -77.487 79.084 C-75.373 79.612 -75.373 79.612 -73.332 79.543 C-73.332 78.883 -73.332 78.223 -73.332 77.543 C-74.891 76.186 -74.891 76.186 -76.832 74.918 C-77.807 74.249 -77.807 74.249 -78.801 73.566 C-79.306 73.229 -79.811 72.891 -80.332 72.543 C-78.849 73.496 -77.371 74.455 -75.895 75.418 C-75.071 75.952 -74.247 76.485 -73.398 77.035 C-71.332 78.543 -71.332 78.543 -70.332 80.543 C-70.957 80.452 -71.581 80.361 -72.225 80.268 C-75.093 79.854 -77.962 79.448 -80.832 79.043 C-81.814 78.9 -82.797 78.757 -83.809 78.609 C-92.051 77.383 -92.051 77.383 -100.332 77.543 C-102.621 79.439 -102.621 79.439 -104.145 82.23 C-107.092 86.711 -110.114 90.901 -113.582 94.98 C-114.038 95.518 -114.494 96.056 -114.964 96.609 C-120.102 102.569 -125.691 108.065 -131.332 113.543 C-132.322 114.533 -132.322 114.533 -133.332 115.543 C-131.916 117.752 -130.499 119.96 -129.082 122.168 C-128.686 122.785 -128.291 123.403 -127.883 124.039 C-125.404 127.9 -122.888 131.733 -120.332 135.543 C-116.356 133.861 -113.282 131.698 -110.332 128.543 C-110.111 122.018 -112.732 116.443 -115.332 110.543 C-115.002 110.213 -114.672 109.883 -114.332 109.543 C-111.878 115.216 -109.87 120.361 -109.332 126.543 C-103.597 122.439 -98.416 117.986 -93.332 113.105 C-88.725 108.71 -84.071 104.405 -79.262 100.23 C-67.061 89.565 -55.67 77.985 -44.207 66.543 C-43.184 65.524 -43.184 65.524 -42.14 64.484 C-31.905 54.321 -31.905 54.321 -22.332 43.543 C-21.527 42.598 -21.527 42.598 -20.707 41.635 C-8.605 28.9 -8.605 28.9 -2.332 13.543 C-6.319 14.214 -9.87 15.411 -13.637 16.871 C-14.854 17.339 -16.07 17.807 -17.324 18.29 C-17.959 18.536 -18.595 18.782 -19.249 19.035 C-22.52 20.301 -25.797 21.549 -29.074 22.797 C-29.711 23.039 -30.348 23.282 -31.005 23.532 C-35.757 25.335 -40.518 27.098 -45.332 28.73 C-46.405 29.095 -47.477 29.46 -48.582 29.836 C-51.305 30.536 -53.538 30.596 -56.332 30.543 C-51.393 28.799 -46.453 27.058 -41.513 25.318 C-39.841 24.729 -38.169 24.14 -36.498 23.55 C-24.815 19.426 -13.098 15.423 -1.332 11.543 C-1.821 6.523 -1.821 6.523 -4.02 2.105 C-8.482 -0.91 -12.771 0.367 -17.27 2.73 Z M-27.578 3.695 C-28.434 3.973 -29.29 4.251 -30.172 4.537 C-31.564 5.004 -31.564 5.004 -32.984 5.48 C-33.954 5.798 -34.923 6.116 -35.922 6.443 C-39.04 7.468 -42.155 8.506 -45.27 9.543 C-47.302 10.212 -49.336 10.88 -51.369 11.547 C-57.366 13.52 -63.35 15.526 -69.332 17.543 C-70.319 17.874 -71.305 18.205 -72.322 18.546 C-75.142 19.495 -77.958 20.454 -80.773 21.418 C-81.626 21.704 -82.479 21.99 -83.357 22.285 C-87.604 23.436 -87.604 23.436 -90.332 26.543 C-70.928 30.958 -56.989 22.677 -40.408 13.719 C-33.801 10.162 -27.058 6.868 -20.332 3.543 C-23.682 2.426 -24.354 2.631 -27.578 3.695 Z M-100.992 30.535 C-101.455 31.486 -101.918 32.438 -102.395 33.418 C-105.401 39.06 -108.791 44.146 -112.582 49.293 C-116.755 54.986 -120.863 60.706 -124.832 66.543 C-137.519 85.129 -150.897 103.273 -165.332 120.543 C-162.753 121.833 -162.033 121.333 -159.332 120.469 C-158.132 120.089 -158.132 120.089 -156.907 119.701 C-156.057 119.422 -155.207 119.143 -154.332 118.855 C-153.471 118.577 -152.61 118.298 -151.722 118.01 C-140.304 114.273 -132.246 111.148 -124.332 101.852 C-122.166 99.351 -119.908 96.955 -117.645 94.543 C-105.914 81.611 -96.534 67.01 -87.132 52.348 C-84.888 48.852 -82.629 45.366 -80.369 41.881 C-78.353 38.77 -76.342 35.657 -74.332 32.543 C-77.263 29.612 -80.631 29.823 -84.582 29.418 C-85.334 29.332 -86.085 29.245 -86.859 29.156 C-89.015 28.919 -91.171 28.727 -93.332 28.543 C-94.439 28.424 -95.547 28.306 -96.688 28.184 C-99.476 28.259 -99.476 28.259 -100.992 30.535 Z M-142.238 117.531 C-142.983 117.743 -143.728 117.955 -144.496 118.174 C-145.652 118.511 -145.652 118.511 -146.832 118.855 C-153.962 120.911 -161.125 122.776 -168.332 124.543 C-168.907 131.09 -169.476 137.637 -170.041 144.184 C-170.234 146.409 -170.428 148.634 -170.623 150.859 C-170.904 154.066 -171.181 157.273 -171.457 160.48 C-171.545 161.467 -171.632 162.454 -171.722 163.471 C-172.18 168.852 -172.421 174.142 -172.332 179.543 C-163 173.742 -154.84 166.153 -146.536 158.995 C-142.907 155.872 -139.238 152.809 -135.52 149.793 C-130.661 145.85 -125.969 141.744 -121.332 137.543 C-121.768 136.865 -122.203 136.187 -122.652 135.488 C-123.248 134.558 -123.843 133.627 -124.457 132.668 C-125.095 131.674 -125.733 130.68 -126.391 129.656 C-128.695 125.962 -130.807 122.175 -132.875 118.344 C-133.356 117.749 -133.837 117.155 -134.332 116.543 C-137.514 116.543 -139.316 116.684 -142.238 117.531 Z M-172.332 127.543 C-173.941 129.274 -175.515 131.025 -177.082 132.793 C-182.623 138.94 -188.555 144.534 -194.7 150.068 C-196.849 152.011 -198.978 153.975 -201.107 155.939 C-207.256 161.605 -213.511 167.13 -219.863 172.566 C-220.495 173.107 -221.127 173.648 -221.778 174.205 C-223.046 175.29 -224.315 176.374 -225.585 177.457 C-227.898 179.432 -230.181 181.392 -232.332 183.543 C-232.517 186.329 -232.517 186.329 -232.309 189.59 C-232.257 190.829 -232.205 192.067 -232.152 193.344 C-232.056 195.299 -232.056 195.299 -231.957 197.293 C-231.516 207.058 -231.247 216.769 -231.332 226.543 C-227.196 223.841 -223.242 221.007 -219.332 217.98 C-218.499 217.336 -218.499 217.336 -217.649 216.678 C-215.874 215.303 -214.103 213.923 -212.332 212.543 C-211.448 211.855 -211.448 211.855 -210.546 211.152 C-207.594 208.852 -204.653 206.54 -201.727 204.207 C-199.515 202.45 -197.27 200.767 -194.969 199.129 C-193.954 198.379 -192.94 197.628 -191.895 196.855 C-190.988 196.212 -190.082 195.569 -189.148 194.906 C-186.95 192.553 -186.95 192.553 -187.391 188.863 C-187.668 187.416 -187.984 185.975 -188.332 184.543 C-188.515 183.791 -188.697 183.038 -188.885 182.263 C-189.71 179.06 -190.612 175.88 -191.516 172.697 C-193 167.299 -193.84 162.123 -194.332 156.543 C-190.897 167.792 -187.903 179.065 -185.332 190.543 C-184.778 190.121 -184.223 189.7 -183.652 189.266 C-182.928 188.718 -182.203 188.17 -181.457 187.605 C-180.738 187.06 -180.018 186.515 -179.277 185.953 C-177.332 184.543 -177.332 184.543 -175.332 183.543 C-175.282 182.557 -175.232 181.571 -175.18 180.556 C-173.331 144.472 -173.331 144.472 -171.332 127.543 C-171.662 127.543 -171.992 127.543 -172.332 127.543 Z M-241.582 191.293 C-245.071 194.518 -248.587 197.618 -252.332 200.543 C-250.196 205.031 -247.38 208.93 -244.52 212.98 C-243.998 213.731 -243.477 214.482 -242.939 215.256 C-242.423 215.989 -241.907 216.722 -241.375 217.477 C-240.911 218.137 -240.447 218.798 -239.969 219.478 C-237.962 222.01 -235.617 224.258 -233.332 226.543 C-233.992 213.343 -234.652 200.143 -235.332 186.543 C-237.545 186.543 -240.12 189.94 -241.582 191.293 Z M-337.332 221.543 C-336.332 223.543 -336.332 223.543 -336.332 223.543 Z " fill="#000000" transform="translate(741.33203125,253.45703125)"/>
<path d="M0 0 C2.688 -0.375 2.688 -0.375 6 0 C10.733 4.772 13.58 10.436 16.625 16.375 C17.102 17.283 17.579 18.19 18.07 19.125 C23.709 29.995 27.041 37.794 23.355 49.953 C22.647 52.057 21.924 54.156 21.188 56.25 C20.831 57.312 20.475 58.374 20.107 59.469 C18.443 64.33 16.765 68.645 14 73 C13.34 72.67 12.68 72.34 12 72 C12.594 70.866 13.189 69.731 13.801 68.562 C16.002 64.155 17.652 59.675 19.188 55 C19.447 54.245 19.707 53.489 19.975 52.711 C23.217 42.958 23.507 37.436 19 28 C18.602 27.146 18.203 26.292 17.793 25.412 C16.56 22.82 15.287 20.252 14 17.688 C13.575 16.821 13.149 15.954 12.711 15.061 C8.936 7.058 8.936 7.058 2.25 1.688 C1.507 1.461 0.765 1.234 0 1 C0 0.67 0 0.34 0 0 Z " fill="#000000" transform="translate(449,252)"/>
<path d="M0 0 C4.373 1.041 6.29 4.024 8.625 7.625 C11.193 12.206 13.458 16.933 15.695 21.682 C16.524 23.414 17.399 25.123 18.281 26.828 C18.745 27.751 19.209 28.674 19.688 29.625 C20.091 30.409 20.494 31.192 20.91 32 C22.869 39.194 19.484 47.094 17.312 53.938 C17.017 54.926 16.721 55.914 16.416 56.932 C15.968 58.352 15.968 58.352 15.512 59.801 C15.246 60.656 14.98 61.511 14.706 62.392 C13.369 65.155 12.291 66.105 9.625 67.625 C6.468 68.636 6.468 68.636 2.77 69.527 C2.108 69.691 1.447 69.855 0.766 70.024 C-1.341 70.546 -3.451 71.055 -5.562 71.562 C-8.329 72.228 -11.094 72.903 -13.855 73.59 C-14.518 73.754 -15.181 73.917 -15.864 74.086 C-20.408 75.255 -24.471 76.818 -28.572 79.088 C-30.375 79.625 -30.375 79.625 -32.492 78.882 C-35.16 77.101 -36.396 74.91 -38.062 72.188 C-38.664 71.219 -39.266 70.251 -39.887 69.254 C-43.011 63.735 -43.225 58.791 -41.609 52.773 C-35.792 36.264 -18.186 4.786 0 0 Z M-9.375 8.625 C-30.551 33.534 -30.551 33.534 -39.375 63.625 C-18.409 46.698 -18.409 46.698 -7.143 23.569 C-7.082 21.433 -7.111 19.323 -7.188 17.188 C-7.201 16.456 -7.215 15.724 -7.229 14.971 C-7.263 13.188 -7.317 11.407 -7.375 9.625 C-8.035 9.295 -8.695 8.965 -9.375 8.625 Z M-12.375 45.625 C-13.365 47.11 -13.365 47.11 -14.375 48.625 C-13.385 48.295 -12.395 47.965 -11.375 47.625 C-11.705 46.965 -12.035 46.305 -12.375 45.625 Z M-16.375 48.625 C-16.375 49.285 -16.375 49.945 -16.375 50.625 C-15.715 50.625 -15.055 50.625 -14.375 50.625 C-14.375 49.965 -14.375 49.305 -14.375 48.625 C-15.035 48.625 -15.695 48.625 -16.375 48.625 Z M-20 52.125 C-20.454 52.62 -20.908 53.115 -21.375 53.625 C-21.045 54.285 -20.715 54.945 -20.375 55.625 C-19.055 53.975 -17.735 52.325 -16.375 50.625 C-18.499 50.399 -18.499 50.399 -20 52.125 Z M-2.375 52.625 C-2.705 53.285 -3.035 53.945 -3.375 54.625 C-2.715 54.625 -2.055 54.625 -1.375 54.625 C-1.705 53.965 -2.035 53.305 -2.375 52.625 Z M-7.375 56.625 C-7.705 57.285 -8.035 57.945 -8.375 58.625 C-7.385 58.295 -6.395 57.965 -5.375 57.625 C-6.035 57.295 -6.695 56.965 -7.375 56.625 Z M-25.375 57.625 C-25.375 58.615 -25.375 59.605 -25.375 60.625 C-24.715 59.635 -24.055 58.645 -23.375 57.625 C-24.035 57.625 -24.695 57.625 -25.375 57.625 Z M-16.375 63.625 C-16.375 64.285 -16.375 64.945 -16.375 65.625 C-13.879 64.844 -13.879 64.844 -11.375 63.625 C-11.045 62.635 -10.715 61.645 -10.375 60.625 C-9.715 60.625 -9.055 60.625 -8.375 60.625 C-8.375 59.965 -8.375 59.305 -8.375 58.625 C-11.904 58.625 -13.886 61.352 -16.375 63.625 Z M-18.375 65.625 C-21.433 67.413 -21.433 67.413 -24.375 69.625 C-24.375 70.615 -24.375 71.605 -24.375 72.625 C-20.461 71.356 -18.584 70.113 -16.375 66.625 C-17.035 66.295 -17.695 65.965 -18.375 65.625 Z " fill="#000000" transform="translate(447.375,255.375)"/>
<path d="M0 0 C4.971 0.555 9.171 1.644 13.809 3.504 C14.42 3.747 15.032 3.989 15.662 4.239 C17.59 5.007 19.514 5.784 21.438 6.562 C22.754 7.089 24.071 7.614 25.389 8.139 C28.596 9.418 31.799 10.706 35 12 C35 12.33 35 12.66 35 13 C32.03 12.67 29.06 12.34 26 12 C25.67 12.66 25.34 13.32 25 14 C24.67 13.34 24.34 12.68 24 12 C21.651 11.156 19.326 10.403 16.938 9.688 C10.996 7.815 6.056 5.742 1 2 C0.67 1.34 0.34 0.68 0 0 Z " fill="#000000" transform="translate(145,259)"/>
<path d="M0 0 C-3.698 2.465 -6.957 2.63 -11.262 3.035 C-12.085 3.119 -12.909 3.202 -13.757 3.288 C-15.508 3.465 -17.259 3.637 -19.01 3.805 C-21.633 4.057 -24.255 4.321 -26.877 4.588 C-41.668 6.071 -56.439 7.175 -71.312 7.312 C-72.408 7.342 -73.503 7.371 -74.631 7.4 C-76.2 7.413 -76.2 7.413 -77.801 7.426 C-78.731 7.44 -79.66 7.455 -80.618 7.47 C-83.735 6.855 -84.255 5.545 -86 3 C-85.402 3.008 -84.804 3.016 -84.188 3.024 C-68.512 3.2 -53.008 2.609 -37.375 1.5 C-33.258 1.213 -29.141 0.931 -25.023 0.656 C-24.057 0.592 -23.09 0.527 -22.094 0.461 C-14.717 -0.008 -7.393 -0.174 0 0 Z " fill="#000000" transform="translate(228,272)"/>
<path d="M0 0 C1.32 0 2.64 0 4 0 C3.369 9.983 3.369 9.983 0 14 C-0.99 14 -1.98 14 -3 14 C-2.885 12.416 -2.758 10.833 -2.625 9.25 C-2.555 8.368 -2.486 7.487 -2.414 6.578 C-2.001 4.009 -1.288 2.242 0 0 Z " fill="#000000" transform="translate(566,272)"/>
<path d="M0 0 C10.488 -0.649 20.695 1.292 31 3 C29 5 29 5 25.219 5.047 C23.645 4.961 22.072 4.861 20.5 4.75 C19.689 4.698 18.877 4.645 18.041 4.592 C5.751 3.719 5.751 3.719 1 2 C0.67 1.34 0.34 0.68 0 0 Z " fill="#000000" transform="translate(685,294)"/>
<path d="M0 0 C4.013 1.506 7.702 3.38 11.469 5.422 C12.761 6.118 14.053 6.814 15.345 7.51 C16.022 7.875 16.698 8.24 17.396 8.616 C36.794 19.066 56.473 28.83 76.625 37.75 C85.389 41.629 93.818 46.013 102.262 50.54 C118.313 59.1 134.475 67.392 151 75 C147.027 76.324 145.808 75.309 142.031 73.605 C140.829 73.067 139.628 72.528 138.389 71.973 C137.093 71.379 135.796 70.783 134.5 70.188 C133.176 69.586 131.851 68.985 130.527 68.384 C120.846 63.965 111.407 59.177 102.054 54.103 C86.756 45.891 70.904 38.638 55.188 31.273 C36.225 22.357 17.335 12.846 0 1 C0 0.67 0 0.34 0 0 Z " fill="#000000" transform="translate(152,318)"/>
<path d="M0 0 C3.797 2.853 6.802 5.893 9.812 9.562 C10.603 10.513 11.393 11.463 12.207 12.441 C14 15 14 15 14 18 C12.227 16.085 10.456 14.168 8.688 12.25 C8.188 11.711 7.688 11.172 7.174 10.617 C0 2.826 0 2.826 0 0 Z " fill="#000000" transform="translate(270,327)"/>
<path d="M0 0 C0 3.629 -0.929 4.836 -2.859 7.875 C-3.782 9.338 -3.782 9.338 -4.723 10.831 C-5.392 11.877 -6.061 12.922 -6.75 14 C-7.433 15.08 -8.116 16.16 -8.82 17.273 C-10.874 20.519 -12.937 23.76 -15 27 C-17.045 30.227 -19.085 33.457 -21.125 36.688 C-21.846 37.827 -21.846 37.827 -22.581 38.989 C-27.904 47.408 -33.136 55.884 -38.368 64.36 C-39.968 66.949 -41.575 69.534 -43.184 72.117 C-51.237 85.06 -59.118 98.102 -66.924 111.196 C-68.057 113.095 -69.191 114.995 -70.325 116.894 C-72.782 121.011 -75.236 125.13 -77.688 129.25 C-78.093 129.93 -78.498 130.61 -78.915 131.311 C-84.504 140.703 -90.017 150.131 -95.26 159.722 C-95.688 160.488 -96.115 161.254 -96.555 162.043 C-97.088 163.018 -97.088 163.018 -97.632 164.012 C-101.251 169.271 -104.804 171.679 -110.852 173.586 C-111.525 173.804 -112.198 174.022 -112.892 174.246 C-114.358 174.719 -115.826 175.185 -117.296 175.645 C-120.53 176.659 -123.752 177.71 -126.974 178.759 C-128.693 179.318 -130.413 179.876 -132.133 180.433 C-141.528 183.477 -150.863 186.685 -160.188 189.938 C-161.488 190.391 -161.488 190.391 -162.816 190.853 C-181.869 197.503 -200.798 204.49 -219.719 211.504 C-222.014 212.354 -224.308 213.204 -226.602 214.055 C-228.272 214.674 -228.272 214.674 -229.977 215.307 C-238.827 218.582 -247.701 221.79 -256.593 224.953 C-263.666 227.48 -270.667 230.158 -277.598 233.054 C-282.677 235.108 -282.677 235.108 -286 234 C-284.65 233.306 -284.65 233.306 -283.272 232.598 C-279.077 230.442 -274.882 228.284 -270.688 226.125 C-269.928 225.734 -269.169 225.344 -268.386 224.941 C-259.206 220.216 -250.036 215.478 -240.931 210.61 C-236.476 208.246 -231.975 206.009 -227.43 203.824 C-226.273 203.263 -225.117 202.702 -223.926 202.124 C-221.675 201.036 -219.419 199.961 -217.155 198.903 C-209.606 195.241 -203.949 190.881 -198 185 C-197.034 184.068 -196.067 183.137 -195.099 182.207 C-192.554 179.75 -190.036 177.266 -187.529 174.769 C-185.981 173.231 -184.422 171.703 -182.863 170.176 C-181.867 169.186 -180.87 168.195 -179.875 167.203 C-178.986 166.323 -178.096 165.443 -177.18 164.536 C-175.034 162.039 -174.159 160.031 -173 157 C-172.113 156.567 -171.226 156.134 -170.312 155.688 C-167.146 154.075 -166.088 153.16 -163.913 150.525 C-159.547 145.404 -154.832 140.67 -150.078 135.91 C-149.128 134.957 -148.178 134.003 -147.228 133.05 C-145.246 131.062 -143.262 129.076 -141.277 127.092 C-138.763 124.578 -136.257 122.058 -133.751 119.535 C-131.793 117.566 -129.831 115.602 -127.867 113.638 C-126.5 112.27 -125.138 110.896 -123.775 109.523 C-117.825 103.594 -111.58 98.216 -105 93 C-103.688 91.939 -102.376 90.877 -101.066 89.812 C-99.899 88.874 -98.731 87.936 -97.562 87 C-96.929 86.492 -96.296 85.984 -95.643 85.461 C-91.775 82.375 -87.856 79.377 -83.875 76.438 C-71.702 67.386 -60.86 57.654 -51.324 45.836 C-47.701 41.415 -43.887 37.19 -40 33 C-39.424 32.358 -38.848 31.716 -38.254 31.055 C-32.631 25.069 -26.041 20.33 -19.5 15.41 C-15.081 12.082 -10.749 8.654 -6.438 5.188 C-5.464 4.405 -5.464 4.405 -4.47 3.606 C-2.979 2.406 -1.489 1.203 0 0 Z " fill="#000000" transform="translate(715,328)"/>
<path d="M0 0 C4.626 1.426 8.927 3.28 13.25 5.438 C13.874 5.737 14.498 6.037 15.141 6.346 C18.394 7.962 19.941 8.912 22 12 C21.01 12.99 20.02 13.98 19 15 C11.642 11.463 5.74 6.8 0 1 C0 0.67 0 0.34 0 0 Z " fill="#000000" transform="translate(443,357)"/>
<path d="M0 0 C6.255 1.971 12.244 4.312 18.25 6.938 C24.995 9.854 31.602 12.274 38.727 14.113 C39.852 14.552 39.852 14.552 41 15 C41.495 16.485 41.495 16.485 42 18 C29.915 17.576 19.145 11.759 8.625 6.25 C7.881 5.861 7.137 5.473 6.371 5.072 C1.127 2.253 1.127 2.253 0 0 Z " fill="#000000" transform="translate(368,376)"/>
<path d="M0 0 C1.675 0.286 3.344 0.618 5 1 C5 1.99 5 2.98 5 4 C3.35 4.33 1.7 4.66 0 5 C-0.562 3.062 -0.562 3.062 -1 1 C-0.67 0.67 -0.34 0.34 0 0 Z " fill="#000000" transform="translate(437,381)"/>
<path d="M0 0 C7.925 0.093 14.257 0.842 21.499 3.967 C28.231 6.789 35.112 7.936 42.287 9.147 C43.512 9.363 44.737 9.579 45.999 9.801 C53.193 11.055 53.193 11.055 60.447 11.839 C72.409 13.143 78.875 22.702 86.1 31.46 C86.562 32.014 87.025 32.567 87.502 33.138 C89.348 35.351 91.162 37.586 92.955 39.843 C96.31 43.937 99.923 47.784 103.521 51.663 C106.233 54.605 108.868 57.602 111.467 60.643 C113.179 62.634 113.179 62.634 115.795 64.714 C118.1 67.46 118.1 67.46 118.475 70.991 C118.351 72.301 118.227 73.61 118.1 74.96 C118.033 75.66 117.967 76.361 117.899 77.083 C115.905 96.147 115.905 96.147 109.756 102.221 C104.784 105.939 99.742 105.596 93.909 104.955 C88.902 104.073 84.309 102.206 79.6 100.335 C78.651 99.969 77.702 99.603 76.725 99.225 C72.139 97.451 67.566 95.647 63.003 93.815 C51.914 89.394 40.695 85.657 29.287 82.147 C26.748 81.361 24.21 80.572 21.673 79.782 C20.115 79.298 18.557 78.816 16.998 78.336 C11.088 76.506 6.227 74.764 1.287 71.022 C-2.099 68.497 -5.5 66.031 -8.998 63.663 C-9.705 63.184 -10.413 62.705 -11.141 62.211 C-12.535 61.272 -13.93 60.336 -15.329 59.405 C-25.301 52.66 -25.301 52.66 -26.543 48.099 C-27.132 43.752 -26.622 39.56 -26.213 35.21 C-26.123 34.239 -26.032 33.269 -25.939 32.269 C-25.303 26.052 -24.381 19.983 -22.963 13.897 C-22.805 13.214 -22.648 12.531 -22.486 11.828 C-19.052 -1.797 -12.474 0.071 0 0 Z M4.1 1.46 C4.1 2.12 4.1 2.78 4.1 3.46 C15.513 9.946 26.153 13.45 39.1 15.46 C40.043 15.608 40.987 15.756 41.959 15.908 C55.468 17.986 55.468 17.986 69.1 18.46 C69.256 19.57 69.256 19.57 69.416 20.702 C71.351 28.509 79.398 35.088 84.689 40.835 C86.713 43.039 88.7 45.264 90.662 47.522 C91.204 48.142 91.745 48.762 92.303 49.401 C93.69 50.991 95.075 52.582 96.459 54.175 C97.269 55.094 98.078 56.013 98.912 56.96 C99.661 57.816 100.41 58.672 101.182 59.553 C102.885 61.695 102.885 61.695 105.1 61.46 C105.43 62.45 105.76 63.44 106.1 64.46 C109.579 68.1 109.579 68.1 114.1 69.46 C113.918 70.175 113.736 70.891 113.549 71.628 C111.871 78.28 110.3 84.943 108.846 91.647 C107.259 97.63 107.259 97.63 104.365 99.702 C101.437 100.681 98.931 100.652 95.85 100.585 C94.772 100.567 93.694 100.549 92.584 100.53 C91.764 100.507 90.944 100.484 90.1 100.46 C94.792 103.588 99.612 103.142 105.1 102.46 C108.205 101.22 108.894 100.23 111.1 97.46 C114.826 88.743 117.482 77.969 117.1 68.46 C115.29 64.764 112.554 63.524 109.1 61.46 C107.241 59.759 105.431 58.004 103.662 56.21 C103.193 55.739 102.723 55.268 102.24 54.783 C98.342 50.832 94.867 46.616 91.416 42.276 C88.465 38.688 85.313 35.316 82.102 31.96 C79.004 28.66 76.763 25.283 74.475 21.397 C71.674 17.48 69.515 15.832 64.75 14.843 C61.761 14.384 58.77 14.043 55.762 13.744 C50.621 13.195 45.519 12.382 40.412 11.585 C39.336 11.419 38.26 11.252 37.151 11.081 C29.009 9.76 21.686 7.763 14.1 4.46 C13.346 4.135 12.591 3.81 11.814 3.475 C11.187 3.202 10.559 2.929 9.912 2.647 C7.148 1.265 7.148 1.265 4.1 1.46 Z M3.1 3.46 C3.1 5.11 3.1 6.76 3.1 8.46 C2.242 8.448 1.385 8.437 0.502 8.425 C-5.409 8.378 -11.082 8.377 -16.9 9.46 C-18.61 14.588 -19.263 19.412 -19.686 24.796 C-20.427 33.986 -20.427 33.986 -21.9 35.46 C-22.722 40.284 -22.862 44.651 -21.9 49.46 C-18.807 53.345 -15.043 55.778 -10.9 58.46 C-9.284 59.693 -7.678 60.942 -6.088 62.21 C-5.371 62.763 -4.654 63.316 -3.916 63.885 C-1.189 66.015 1.459 68.225 4.1 70.46 C5.09 69.965 5.09 69.965 6.1 69.46 C5.939 68.597 5.778 67.735 5.612 66.847 C5.122 63.605 4.943 60.546 4.894 57.271 C4.874 56.07 4.854 54.869 4.834 53.632 C4.817 52.351 4.8 51.069 4.783 49.749 C4.763 48.412 4.742 47.075 4.72 45.739 C4.665 42.237 4.616 38.736 4.567 35.234 C4.517 31.654 4.461 28.075 4.406 24.495 C4.299 17.483 4.197 10.472 4.1 3.46 C3.77 3.46 3.44 3.46 3.1 3.46 Z M44.1 19.46 C45.512 23.697 48.54 24.61 52.287 26.585 C59.081 30.272 65.572 34.245 72.014 38.514 C74.968 40.376 77.951 41.956 81.1 43.46 C81.1 42.8 81.1 42.14 81.1 41.46 C79.071 39.896 77.053 38.482 74.912 37.085 C73.935 36.44 73.935 36.44 72.939 35.782 C59.177 25.393 59.177 25.393 44.1 19.46 Z M26.1 27.46 C26.1 28.12 26.1 28.78 26.1 29.46 C26.76 29.13 27.42 28.8 28.1 28.46 C27.44 28.13 26.78 27.8 26.1 27.46 Z M28.1 29.46 C32.082 33.811 36.364 36.81 41.412 39.835 C42.671 40.591 42.671 40.591 43.956 41.362 C52.369 46.265 61.101 50.456 69.912 54.585 C70.613 54.914 71.313 55.244 72.035 55.583 C78.626 58.67 85.047 61.597 92.1 63.46 C89.473 60.355 86.197 58.864 82.6 57.147 C81.161 56.443 79.724 55.738 78.287 55.03 C77.476 54.631 76.665 54.231 75.83 53.82 C70.391 51.11 64.996 48.316 59.6 45.522 C58.435 44.92 57.27 44.317 56.071 43.696 C48.824 39.928 41.645 36.069 34.592 31.948 C31.548 30.054 31.548 30.054 28.1 29.46 Z M50.1 30.46 C54.935 34.674 60.423 37.753 65.912 41.022 C75.566 46.827 84.921 52.932 94.1 59.46 C94.76 59.13 95.42 58.8 96.1 58.46 C85.162 49.045 73.573 41.141 60.85 34.335 C60.122 33.944 59.395 33.554 58.646 33.151 C54.59 31.018 54.59 31.018 50.1 30.46 Z M29.1 40.46 C43.976 56.29 69.479 62.942 89.287 70.522 C90.044 70.812 90.8 71.102 91.58 71.4 C93.745 72.227 95.912 73.049 98.08 73.87 C98.73 74.117 99.38 74.365 100.05 74.62 C103.037 75.743 105.977 76.784 109.1 77.46 C106.602 74.568 103.949 73.291 100.482 71.745 C99.332 71.23 98.182 70.714 96.997 70.183 C95.74 69.629 94.482 69.076 93.225 68.522 C91.925 67.944 90.626 67.366 89.327 66.787 C79.034 62.223 68.628 57.962 58.197 53.727 C49.836 50.29 41.865 46.443 33.994 42.007 C31.353 40.303 31.353 40.303 29.1 40.46 Z M96.1 59.46 C97.42 60.78 98.74 62.1 100.1 63.46 C99.44 62.14 98.78 60.82 98.1 59.46 C97.44 59.46 96.78 59.46 96.1 59.46 Z M35.1 63.46 C35.1 64.45 35.1 65.44 35.1 66.46 C50.962 74.492 65.981 80.778 84.1 80.46 C83.605 79.47 83.605 79.47 83.1 78.46 C80.573 77.962 78.085 77.565 75.537 77.21 C62.683 75.173 51.233 70.202 39.576 64.561 C37.247 63.324 37.247 63.324 35.1 63.46 Z M7.1 68.46 C7.43 70.11 7.76 71.76 8.1 73.46 C11.178 74.497 14.263 75.512 17.35 76.522 C18.222 76.817 19.095 77.111 19.994 77.415 C20.838 77.689 21.683 77.963 22.553 78.245 C23.328 78.501 24.103 78.758 24.901 79.022 C27.326 79.505 28.778 79.239 31.1 78.46 C30.266 78.157 29.432 77.854 28.572 77.542 C22.351 75.226 16.497 72.809 10.807 69.378 C9.129 68.302 9.129 68.302 7.1 68.46 Z M80.1 96.46 C80.76 97.12 81.42 97.78 82.1 98.46 C83.09 98.13 84.08 97.8 85.1 97.46 C83.45 97.13 81.8 96.8 80.1 96.46 Z M85.1 98.46 C85.76 99.12 86.42 99.78 87.1 100.46 C88.09 100.13 89.08 99.8 90.1 99.46 C88.45 99.13 86.8 98.8 85.1 98.46 Z " fill="#000000" transform="translate(162.900390625,388.540283203125)"/>
<path d="M0 0 C5.012 1.378 10.128 3.442 14 7 C14 8.32 14 9.64 14 11 C10.685 10.383 8.562 9.205 5.875 7.188 C5.192 6.686 4.509 6.185 3.805 5.668 C1.897 3.905 1 2.377 0 0 Z " fill="#000000" transform="translate(269,396)"/>
<path d="M0 0 C16.552 1.182 32.862 16.604 43.501 28.25 C51.896 38.053 58.984 49.19 66 60 C65.505 60.99 65.505 60.99 65 62 C60.389 56.504 55.927 50.949 51.686 45.163 C38.193 26.807 21.619 9.557 0 1 C0 0.67 0 0.34 0 0 Z " fill="#000000" transform="translate(731,410)"/>
<path d="M0 0 C0.66 0 1.32 0 2 0 C2.642 7.951 0.272 14.952 -2 22.5 C-2.386 23.812 -2.772 25.125 -3.156 26.438 C-4.095 29.628 -5.043 32.815 -6 36 C-6.33 36 -6.66 36 -7 36 C-6.428 28.355 -5.106 20.99 -3.5 13.5 C-3.162 11.876 -3.162 11.876 -2.816 10.219 C-1.139 2.278 -1.139 2.278 0 0 Z " fill="#000000" transform="translate(535,419)"/>
<path d="M0 0 C-3.162 2.108 -4.507 2.338 -8.188 2.625 C-9.539 2.737 -9.539 2.737 -10.918 2.852 C-11.949 2.925 -11.949 2.925 -13 3 C-12.67 2.34 -12.34 1.68 -12 1 C-7.973 0.226 -4.096 -0.124 0 0 Z " fill="#000000" transform="translate(413,423)"/>
<path d="M0 0 C0.66 0.33 1.32 0.66 2 1 C-6.524 8.229 -15.125 15.287 -24.25 21.75 C-24.952 22.25 -25.654 22.751 -26.377 23.267 C-29.809 25.661 -32.993 27.664 -37 29 C-33.743 20.802 -23.331 15.379 -16.297 10.574 C-14.164 9.112 -12.081 7.597 -10 6.062 C-7 4 -7 4 -5 4 C-5 3.34 -5 2.68 -5 2 C-2.625 0.938 -2.625 0.938 0 0 Z " fill="#000000" transform="translate(472,424)"/>
<path d="M0 0 C-0.33 0.99 -0.66 1.98 -1 3 C-3.389 4.101 -5.723 5.035 -8.188 5.938 C-33.549 15.869 -57.737 31.739 -80.204 47.041 C-81.766 48.085 -83.378 49.053 -85 50 C-85.66 49.67 -86.32 49.34 -87 49 C-76.327 40.228 -64.816 33.116 -53 26 C-51.603 25.151 -50.205 24.303 -48.809 23.453 C-45.788 21.621 -42.755 19.813 -39.713 18.018 C-38.014 17.008 -36.325 15.981 -34.637 14.953 C-9.512 0 -9.512 0 0 0 Z " fill="#000000" transform="translate(398,425)"/>
<path d="M0 0 C3.405 1.135 3.62 1.553 5.297 4.527 C5.698 5.237 6.099 5.947 6.512 6.678 C6.92 7.423 7.329 8.169 7.75 8.938 C8.174 9.679 8.598 10.421 9.035 11.186 C11.331 15.309 11.331 15.309 12 17 C11.67 17.66 11.34 18.32 11 19 C0 7.104 0 7.104 0 0 Z " fill="#000000" transform="translate(513,436)"/>
<path d="M0 0 C0.33 1.32 0.66 2.64 1 4 C-1.312 6.062 -1.312 6.062 -4 8 C-4.99 7.67 -5.98 7.34 -7 7 C-4.69 4.69 -2.38 2.38 0 0 Z " fill="#000000" transform="translate(696,437)"/>
<path d="M0 0 C4.417 3.161 6.376 8.049 8.715 12.805 C9.231 13.826 9.746 14.848 10.278 15.901 C11.9 19.131 13.496 22.373 15.09 25.617 C15.583 26.605 16.076 27.593 16.584 28.611 C22.989 41.45 28.878 54.494 34.527 67.68 C34.821 68.358 35.114 69.037 35.416 69.737 C48.402 99.875 48.402 99.875 46.465 111.305 C44.881 115.121 43.204 116.927 40.09 119.617 C39.221 120.407 38.352 121.198 37.457 122.012 C33.798 125.043 29.807 126.818 25.465 128.68 C24.599 129.06 23.734 129.44 22.842 129.832 C19.93 131.105 17.011 132.363 14.09 133.617 C13.065 134.059 12.041 134.502 10.985 134.958 C4.667 137.684 -1.658 140.391 -7.988 143.089 C-12.958 145.208 -17.923 147.339 -22.887 149.473 C-25.202 150.467 -27.517 151.462 -29.832 152.456 C-31.311 153.092 -32.79 153.728 -34.27 154.364 C-37.743 155.859 -41.219 157.347 -44.701 158.823 C-47.656 160.075 -50.595 161.359 -53.53 162.658 C-55.048 163.315 -56.567 163.972 -58.086 164.629 C-58.782 164.943 -59.477 165.258 -60.194 165.582 C-64.505 167.421 -67.39 167.98 -71.91 166.617 C-74.367 164.406 -74.866 163.176 -75.125 159.88 C-74.882 156.193 -73.969 153.533 -72.594 150.105 C-72.346 149.478 -72.099 148.85 -71.844 148.203 C-71.305 146.833 -70.761 145.466 -70.214 144.099 C-68.692 140.289 -67.21 136.463 -65.73 132.637 C-65.259 131.418 -65.259 131.418 -64.778 130.174 C-61.213 120.896 -57.963 111.512 -54.723 102.117 C-49.044 85.68 -43.244 69.29 -37.348 52.93 C-36.968 51.875 -36.589 50.821 -36.198 49.734 C-31.852 37.663 -27.457 25.614 -22.91 13.617 C-21.59 13.947 -20.27 14.277 -18.91 14.617 C-18.91 15.277 -18.91 15.937 -18.91 16.617 C-18.683 16.019 -18.456 15.421 -18.223 14.805 C-16.572 12.054 -14.713 11.092 -11.91 9.617 C-10.482 12.688 -9.897 14.281 -9.91 17.617 C-11.821 22.544 -14.509 26.979 -17.223 31.492 C-17.948 32.738 -18.672 33.986 -19.393 35.234 C-20.711 37.511 -22.043 39.777 -23.388 42.039 C-24.274 43.539 -25.131 45.059 -25.91 46.617 C-20.511 37.655 -15.154 28.672 -9.91 19.617 C-7.153 23.754 -7.153 23.754 -6.91 26.617 C-8.107 29.34 -8.107 29.34 -9.961 32.465 C-10.456 33.313 -10.456 33.313 -10.961 34.177 C-11.67 35.389 -12.384 36.598 -13.104 37.804 C-14.976 40.943 -16.81 44.103 -18.648 47.262 C-19.198 48.202 -19.198 48.202 -19.759 49.161 C-22.959 54.652 -25.98 60.227 -28.91 65.867 C-29.531 67.062 -29.531 67.062 -30.165 68.281 C-31.085 70.058 -31.998 71.837 -32.91 73.617 C-29.137 67.04 -25.379 60.456 -21.66 53.848 C-21.093 52.841 -20.526 51.834 -19.942 50.797 C-18.816 48.796 -17.691 46.794 -16.568 44.791 C-13.48 39.307 -10.292 33.925 -6.91 28.617 C-4.328 32.49 -2.384 35.924 -1.91 40.617 C-3.15 44.31 -5.292 47.21 -7.574 50.34 C-8.196 51.244 -8.818 52.147 -9.459 53.078 C-11.456 55.967 -13.494 58.823 -15.535 61.68 C-16.856 63.573 -18.173 65.468 -19.488 67.365 C-22.062 71.07 -24.653 74.762 -27.26 78.444 C-30.544 83.086 -33.775 87.762 -36.984 92.457 C-40.603 97.742 -44.274 102.977 -48.098 108.117 C-48.573 108.76 -49.048 109.404 -49.537 110.066 C-50.659 111.585 -51.784 113.101 -52.91 114.617 C-49.269 111.208 -46.37 107.421 -43.41 103.43 C-42.885 102.725 -42.361 102.02 -41.82 101.294 C-27.727 82.279 -14.599 62.591 -1.91 42.617 C1.019 45.546 2.647 48.453 3.09 52.617 C1.751 55.998 -0.423 58.578 -2.723 61.367 C-3.96 62.964 -5.196 64.561 -6.43 66.16 C-7.035 66.928 -7.64 67.695 -8.264 68.486 C-10.302 71.124 -12.118 73.87 -13.91 76.68 C-18.712 83.999 -24.113 90.864 -29.48 97.773 C-30.632 99.258 -31.775 100.751 -32.914 102.246 C-36.748 107.263 -40.811 112.063 -44.91 116.863 C-48.422 120.993 -51.725 125.227 -54.91 129.617 C-48.055 122.36 -41.302 115.098 -35.066 107.293 C-33.617 105.495 -32.137 103.721 -30.629 101.973 C-21.391 91.251 -13.584 79.502 -5.641 67.809 C-4.884 66.697 -4.884 66.697 -4.111 65.563 C-3.165 64.171 -2.222 62.776 -1.285 61.378 C1.869 56.728 1.869 56.728 4.09 55.617 C6.162 58.581 7.037 60.984 7.09 64.617 C4.767 69.393 1.739 73.485 -1.468 77.702 C-2.801 79.472 -4.071 81.268 -5.32 83.098 C-11.399 91.961 -18.19 100.194 -25.083 108.431 C-28.102 112.043 -31.102 115.672 -34.098 119.305 C-34.672 120.001 -35.247 120.698 -35.839 121.415 C-41.308 128.062 -46.631 134.819 -51.91 141.617 C-48.188 137.99 -44.764 134.209 -41.41 130.242 C-40.349 128.994 -39.288 127.747 -38.227 126.5 C-37.681 125.86 -37.136 125.219 -36.575 124.56 C-34.937 122.648 -33.284 120.752 -31.625 118.859 C-24.432 110.655 -17.512 102.305 -10.91 93.617 C-10.438 92.998 -9.966 92.379 -9.479 91.741 C-3.845 84.318 1.322 76.933 5.75 68.715 C6.192 68.023 6.634 67.33 7.09 66.617 C7.75 66.617 8.41 66.617 9.09 66.617 C10.967 70.482 11.429 72.522 10.09 76.617 C8.323 79.398 6.312 81.967 4.277 84.555 C3.207 85.938 2.138 87.322 1.07 88.707 C0.562 89.366 0.053 90.024 -0.471 90.703 C-2.402 93.271 -4.166 95.919 -5.91 98.617 C-3.822 96.079 -1.741 93.536 0.34 90.992 C0.926 90.279 1.513 89.566 2.117 88.832 C4.701 85.668 7.198 82.547 9.387 79.094 C9.949 78.276 10.511 77.459 11.09 76.617 C11.75 76.617 12.41 76.617 13.09 76.617 C14.375 79.223 14.375 79.223 15.09 82.617 C13.666 85.094 12.395 86.832 10.527 88.93 C9.497 90.159 8.468 91.389 7.441 92.621 C6.894 93.267 6.346 93.913 5.782 94.579 C2.872 98.085 0.149 101.732 -2.598 105.367 C-9.671 114.635 -16.788 123.661 -24.787 132.153 C-27.342 134.871 -29.705 137.612 -31.91 140.617 C-19.809 129.111 -9.033 117.502 0.526 103.81 C3.442 99.722 6.586 95.815 9.717 91.891 C11.611 89.513 13.401 87.15 15.09 84.617 C15.75 84.617 16.41 84.617 17.09 84.617 C18.544 86.927 19.122 88.218 18.898 90.973 C17.9 94.237 16.452 95.79 14.09 98.242 C10.854 101.697 7.75 105.183 4.777 108.867 C2.207 112.05 -0.394 115.195 -3.074 118.285 C-3.617 118.911 -4.159 119.536 -4.718 120.181 C-5.783 121.406 -6.852 122.628 -7.925 123.847 C-10.339 126.624 -12.505 129.191 -13.91 132.617 C-12.837 131.362 -12.837 131.362 -11.742 130.082 C-10.736 128.906 -9.729 127.73 -8.723 126.555 C-8.186 125.928 -7.649 125.301 -7.096 124.655 C-3.704 120.697 -0.294 116.754 3.129 112.823 C8.908 106.184 14.572 99.476 20.09 92.617 C22.597 95.56 23.747 97.747 24.09 101.617 C23.01 103.654 23.01 103.654 21.344 105.605 C20.754 106.311 20.164 107.017 19.557 107.744 C18.928 108.465 18.3 109.187 17.652 109.93 C17.028 110.67 16.403 111.411 15.76 112.174 C14.216 114 12.66 115.813 11.09 117.617 C14.455 114.346 17.501 110.993 20.402 107.305 C21.1 106.422 21.797 105.539 22.516 104.629 C23.035 103.965 23.555 103.301 24.09 102.617 C26.769 104.936 27.752 106.935 28.777 110.305 C29.029 111.113 29.28 111.921 29.539 112.754 C29.721 113.369 29.903 113.984 30.09 114.617 C22.037 118.692 13.968 122.702 5.777 126.492 C-0.149 129.239 -5.916 132.198 -11.66 135.305 C-20.382 140.004 -29.369 144.027 -38.43 148.013 C-46.832 151.712 -55.072 155.574 -63.077 160.078 C-67.628 162.617 -67.628 162.617 -70.91 162.617 C-70.91 163.277 -70.91 163.937 -70.91 164.617 C-62.803 163.246 -56.036 160.111 -48.66 156.555 C-46.144 155.361 -43.625 154.174 -41.105 152.988 C-40.172 152.548 -40.172 152.548 -39.22 152.098 C-34.038 149.658 -28.81 147.349 -23.535 145.117 C-22.722 144.773 -21.909 144.429 -21.072 144.074 C-19.335 143.34 -17.599 142.605 -15.862 141.872 C-10.462 139.577 -5.08 137.243 0.303 134.91 C2.257 134.063 4.212 133.218 6.167 132.372 C11.76 129.95 17.346 127.515 22.902 125.008 C23.741 124.63 24.58 124.251 25.445 123.862 C26.949 123.18 28.452 122.493 29.952 121.801 C32.855 120.483 34.86 119.617 38.09 119.617 C31.017 88.906 15.414 59.548 2.562 30.903 C1.558 28.663 0.559 26.422 -0.437 24.179 C-1.919 20.842 -3.413 17.51 -4.91 14.18 C-5.577 12.669 -5.577 12.669 -6.258 11.127 C-6.68 10.197 -7.101 9.267 -7.535 8.309 C-7.899 7.496 -8.262 6.683 -8.637 5.846 C-10.076 3.327 -11.785 1.576 -13.91 -0.383 C-8.815 -2.081 -4.812 -2.286 0 0 Z M12.09 34.617 C12.399 36.076 12.712 37.534 13.027 38.992 C13.288 40.21 13.288 40.21 13.555 41.453 C14.013 43.647 14.013 43.647 15.09 45.617 C15.75 45.617 16.41 45.617 17.09 45.617 C16.636 40.744 15.381 38.227 12.09 34.617 Z M-28.91 49.617 C-30.519 51.993 -30.519 51.993 -31.91 54.617 C-31.58 55.277 -31.25 55.937 -30.91 56.617 C-29.301 54.241 -29.301 54.241 -27.91 51.617 C-28.24 50.957 -28.57 50.297 -28.91 49.617 Z M21.09 58.617 C21.718 62.408 22.825 65.625 24.375 69.137 C25.047 70.669 25.047 70.669 25.732 72.232 C26.435 73.815 26.435 73.815 27.152 75.43 C27.625 76.504 28.097 77.579 28.584 78.686 C29.748 81.331 30.917 83.975 32.09 86.617 C32.75 86.617 33.41 86.617 34.09 86.617 C32.149 76.287 27.158 67.681 22.09 58.617 C21.76 58.617 21.43 58.617 21.09 58.617 Z M-34.91 75.617 C-35.24 76.277 -35.57 76.937 -35.91 77.617 C-35.25 77.617 -34.59 77.617 -33.91 77.617 C-34.24 76.957 -34.57 76.297 -34.91 75.617 Z M-7.91 99.617 C-8.9 100.607 -9.89 101.597 -10.91 102.617 C-10.58 103.277 -10.25 103.937 -9.91 104.617 C-8.92 103.627 -7.93 102.637 -6.91 101.617 C-7.24 100.957 -7.57 100.297 -7.91 99.617 Z M-54.91 116.617 C-55.57 117.937 -56.23 119.257 -56.91 120.617 C-55.92 119.957 -54.93 119.297 -53.91 118.617 C-54.24 117.957 -54.57 117.297 -54.91 116.617 Z M-57.91 131.617 C-56.91 133.617 -56.91 133.617 -56.91 133.617 Z " fill="#000000" transform="translate(710.91015625,433.3828125)"/>
<path d="M0 0 C0.66 0.33 1.32 0.66 2 1 C0.234 2.484 -1.538 3.962 -3.312 5.438 C-4.299 6.261 -5.285 7.085 -6.301 7.934 C-9 10 -9 10 -12 11 C-10.688 7.063 -8.804 6.173 -5.438 3.812 C-4.426 3.097 -3.414 2.382 -2.371 1.645 C-1.589 1.102 -0.806 0.559 0 0 Z " fill="#000000" transform="translate(451,448)"/>
<path d="M0 0 C0.33 1.32 0.66 2.64 1 4 C-1.712 6.603 -2.891 6.995 -6.75 7.188 C-7.822 7.126 -8.895 7.064 -10 7 C-10 6.01 -10 5.02 -10 4 C-6.35 1.097 -4.741 0 0 0 Z " fill="#000000" transform="translate(385,459)"/>
<path d="M0 0 C5.827 3.804 11.482 7.76 17 12 C14 13 14 13 11.914 11.961 C7.548 8.936 3.477 6.038 0 2 C0 1.34 0 0.68 0 0 Z " fill="#000000" transform="translate(159,470)"/>
<path d="M0 0 C0.66 0 1.32 0 2 0 C1.75 1.875 1.75 1.875 1 4 C-1.062 5.25 -1.062 5.25 -3 6 C-2.427 3.133 -2.139 2.139 0 0 Z " fill="#000000" transform="translate(364,480)"/>
<path d="M0 0 C1.217 2.868 0.977 4.07 -0.012 7.082 C-0.556 8.332 -1.116 9.575 -1.688 10.812 C-1.994 11.494 -2.301 12.175 -2.617 12.877 C-8.938 26.644 -16.071 40.096 -24 53 C-24.33 52.34 -24.66 51.68 -25 51 C-24.294 49.074 -24.294 49.074 -23.113 46.688 C-22.675 45.789 -22.237 44.89 -21.785 43.964 C-21.299 42.986 -20.813 42.008 -20.312 41 C-19.298 38.924 -18.285 36.847 -17.273 34.77 C-16.739 33.673 -16.205 32.577 -15.655 31.448 C-13.953 27.903 -12.298 24.338 -10.664 20.762 C-9.855 18.992 -9.855 18.992 -9.03 17.186 C-7.979 14.877 -6.931 12.567 -5.886 10.256 C-5.167 8.681 -5.167 8.681 -4.434 7.074 C-4.011 6.142 -3.589 5.209 -3.154 4.249 C-2 2 -2 2 0 0 Z " fill="#000000" transform="translate(414,502)"/>
<path d="M0 0 C0 9.22 -13.011 21.073 -18.711 27.988 C-22.32 32.369 -25.824 36.829 -29.31 41.308 C-32.138 44.934 -35.041 48.481 -38 52 C-38 48.339 -37.168 47.556 -34.957 44.711 C-34.302 43.86 -33.646 43.009 -32.971 42.132 C-32.259 41.222 -31.546 40.312 -30.812 39.375 C-29.339 37.469 -27.865 35.563 -26.391 33.656 C-25.65 32.704 -24.909 31.751 -24.146 30.77 C-21.636 27.53 -19.156 24.269 -16.679 21.004 C-11.267 13.876 -5.741 6.868 0 0 Z " fill="#000000" transform="translate(400,505)"/>
<path d="M0 0 C0.66 0 1.32 0 2 0 C-0.221 7.544 -3.507 14.073 -7.312 20.938 C-7.869 21.958 -8.425 22.978 -8.998 24.029 C-12.516 30.446 -16.185 36.756 -20 43 C-20.33 42.34 -20.66 41.68 -21 41 C-20.354 39.362 -20.354 39.362 -19.262 37.387 C-18.858 36.643 -18.455 35.899 -18.039 35.132 C-17.37 33.922 -17.37 33.922 -16.688 32.688 C-12.226 24.444 -8.105 16.084 -4.137 7.593 C-3.74 6.745 -3.343 5.897 -2.934 5.023 C-2.584 4.27 -2.233 3.516 -1.873 2.74 C-1 1 -1 1 0 0 Z " fill="#000000" transform="translate(406,507)"/>
<path d="M0 0 C-26.159 10.499 -52.474 20.467 -79 30 C-79.854 30.307 -80.708 30.614 -81.588 30.93 C-91.966 34.66 -102.352 38.365 -112.744 42.055 C-118.621 44.146 -124.489 46.258 -130.354 48.381 C-134.533 49.893 -138.714 51.398 -142.895 52.903 C-144.913 53.631 -146.93 54.362 -148.946 55.096 C-151.741 56.114 -154.54 57.121 -157.34 58.125 C-158.175 58.432 -159.011 58.74 -159.871 59.057 C-165.658 61.114 -165.658 61.114 -169 60 C-149.715 52.81 -130.411 45.671 -111.078 38.609 C-99.699 34.453 -88.325 30.283 -76.96 26.088 C-74.694 25.252 -72.427 24.418 -70.16 23.584 C-68.593 23.008 -67.027 22.432 -65.461 21.855 C-64.662 21.562 -63.864 21.268 -63.041 20.965 C-56.949 18.722 -50.863 16.465 -44.777 14.204 C-39.979 12.424 -35.178 10.651 -30.376 8.88 C-28.008 8.004 -25.641 7.126 -23.275 6.244 C-19.964 5.009 -16.649 3.787 -13.332 2.566 C-12.331 2.19 -11.329 1.814 -10.298 1.426 C-9.378 1.09 -8.459 0.754 -7.511 0.408 C-6.708 0.111 -5.906 -0.187 -5.079 -0.493 C-3 -1 -3 -1 0 0 Z " fill="#000000" transform="translate(594,508)"/>
<path d="M0 0 C3 1.409 5.905 2.971 8.812 4.562 C9.601 4.987 10.389 5.412 11.201 5.85 C13.137 6.894 15.07 7.944 17 9 C17 10.32 17 11.64 17 13 C14 15.25 14 15.25 11 17 C5.897 12.619 1.126 8.324 -3 3 C-16.411 12.327 -28.812 22.985 -41.091 33.737 C-44.334 36.576 -47.63 39.312 -51 42 C-53.602 44.475 -55.906 46.875 -58.062 49.75 C-60.173 52.201 -60.957 52.418 -64 53 C-62.587 51.346 -61.173 49.692 -59.754 48.043 C-58.652 46.759 -57.554 45.471 -56.465 44.176 C-48.711 35.088 -40.278 26.778 -30.922 19.355 C-28.122 17.098 -25.409 14.768 -22.7 12.403 C-6.147 -2.02 -6.147 -2.02 0 0 Z " fill="#000000" transform="translate(172,510)"/>
<path d="M0 0 C-0.33 1.65 -0.66 3.3 -1 5 C-4.422 6.141 -7.087 6.098 -10.688 6.062 C-12.457 6.049 -12.457 6.049 -14.262 6.035 C-15.165 6.024 -16.069 6.012 -17 6 C-16.67 5.01 -16.34 4.02 -16 3 C-13.418 1.797 -13.418 1.797 -10.188 0.75 C-9.129 0.394 -8.071 0.038 -6.98 -0.328 C-4.096 -0.978 -2.718 -1.027 0 0 Z " fill="#000000" transform="translate(627,525)"/>
<path d="M0 0 C3.125 1.438 3.125 1.438 4.125 3.438 C2.805 3.768 1.485 4.097 0.125 4.438 C0.125 5.097 0.125 5.758 0.125 6.438 C-1.836 7.827 -3.837 9.164 -5.875 10.438 C-7.582 9.157 -9.249 7.82 -10.875 6.438 C-10.875 4.438 -10.875 4.438 -9.59 3.078 C-5.978 0.252 -4.742 -0.688 0 0 Z " fill="#000000" transform="translate(200.875,526.5625)"/>
<path d="M0 0 C0.66 0 1.32 0 2 0 C1.28 3.818 -0.39 6.947 -2.168 10.383 C-2.485 10.997 -2.803 11.611 -3.129 12.244 C-3.802 13.545 -4.478 14.844 -5.155 16.143 C-6.172 18.095 -7.181 20.051 -8.189 22.008 C-11.889 29.154 -15.74 36.168 -20 43 C-20.33 42.34 -20.66 41.68 -21 41 C-19.981 38.285 -18.891 35.695 -17.688 33.062 C-17.331 32.272 -16.974 31.482 -16.607 30.667 C-13.809 24.561 -10.806 18.573 -7.688 12.625 C-7.268 11.823 -6.848 11.022 -6.415 10.196 C-2.364 2.593 -2.364 2.593 0 0 Z " fill="#000000" transform="translate(538,534)"/>
<path d="M0 0 C2.457 1.191 2.457 1.191 4.812 2.562 C5.603 3.018 6.393 3.473 7.207 3.941 C7.799 4.291 8.39 4.64 9 5 C9 5.33 9 5.66 9 6 C7.175 6.402 7.175 6.402 5.312 6.812 C1.763 7.686 -0.918 9.006 -4 11 C-4.66 11 -5.32 11 -6 11 C-6 11.66 -6 12.32 -6 13 C-7.98 13.99 -7.98 13.99 -10 15 C-12.97 12.36 -15.94 9.72 -19 7 C-16.251 5.167 -13.487 3.463 -10.625 1.812 C-9.689 1.262 -8.753 0.712 -7.789 0.145 C-4.535 -1.191 -3.29 -1.123 0 0 Z " fill="#000000" transform="translate(225,540)"/>
<path d="M0 0 C1.688 2.062 1.688 2.062 3 4 C3.66 4 4.32 4 5 4 C5.66 3.01 6.32 2.02 7 1 C7.99 1 8.98 1 10 1 C10 3 10 3 8.5 4.625 C8.005 5.079 7.51 5.533 7 6 C7.598 6.082 8.196 6.165 8.812 6.25 C11.602 7.206 12.345 8.629 14 11 C12.259 12.036 10.507 13.053 8.75 14.062 C7.775 14.631 6.801 15.199 5.797 15.785 C3 17 3 17 0.875 16.75 C0.256 16.503 -0.363 16.255 -1 16 C-2.856 15.474 -2.856 15.474 -4.75 14.938 C-5.822 14.628 -6.895 14.319 -8 14 C-6.625 12.5 -6.625 12.5 -5 11 C-4.34 11 -3.68 11 -3 11 C-2.67 11.33 -2.34 11.66 -2 12 C-2 11.01 -2 10.02 -2 9 C-1.01 8.34 -0.02 7.68 1 7 C-2.035 8.071 -4.223 9.168 -6.812 11.125 C-11.038 13.61 -13.16 13.555 -18 13 C-20 11.625 -20 11.625 -21 10 C-21 9.34 -21 8.68 -21 8 C-18.883 6.492 -18.883 6.492 -16.125 4.875 C-15.22 4.336 -14.315 3.797 -13.383 3.242 C-11 2 -11 2 -9 2 C-8.67 1.34 -8.34 0.68 -8 0 C-4.641 -1.12 -3.323 -1.08 0 0 Z " fill="#000000" transform="translate(239,547)"/>
<path d="M0 0 C0.761 0.45 1.521 0.9 2.305 1.363 C29.237 16.39 63.037 23.61 93 30 C93.168 30.951 93.168 30.951 93.34 31.922 C95.602 42.625 100.369 52.154 105 62 C105.716 63.54 106.431 65.08 107.145 66.621 C108.752 70.086 110.372 73.545 112 77 C111.257 72.518 109.818 68.336 108.312 64.066 C107.773 62.515 107.234 60.964 106.695 59.412 C105.848 56.985 104.998 54.558 104.147 52.132 C103.323 49.778 102.505 47.422 101.688 45.066 C101.433 44.347 101.179 43.629 100.917 42.888 C99.551 38.942 98.551 35.141 98 31 C98.99 30.505 98.99 30.505 100 30 C100.203 30.651 100.407 31.302 100.616 31.973 C115.455 79.208 131.143 126.607 150.865 172.061 C159.243 191.52 159.243 191.52 155.875 201.25 C153.474 204.771 151.913 206.215 148 208 C138.509 209.071 129.422 206.905 120.25 204.75 C118.686 204.391 117.122 204.032 115.557 203.674 C110.365 202.477 105.182 201.241 100 200 C98.631 199.673 98.631 199.673 97.234 199.34 C43.398 186.475 -9.783 171.397 -61.625 151.938 C-62.609 151.57 -63.593 151.202 -64.608 150.823 C-67.401 149.776 -70.189 148.716 -72.977 147.652 C-73.803 147.342 -74.629 147.033 -75.48 146.713 C-90.83 140.784 -106.626 125.733 -113.688 110.875 C-117.927 99.858 -121.712 85.838 -121 74 C-120.67 74 -120.34 74 -120 74 C-119.812 74.988 -119.812 74.988 -119.62 75.997 C-115.106 99.444 -109.675 115.316 -92 132 C-91.227 132.754 -90.453 133.508 -89.656 134.285 C-88.965 134.934 -88.274 135.582 -87.562 136.25 C-86.966 136.812 -86.369 137.374 -85.754 137.953 C-84.058 139.171 -84.058 139.171 -82.027 138.984 C-78.343 137.195 -76.532 134.142 -74.84 130.512 C-71.254 119.288 -70.163 107.682 -69 96 C-68.927 95.269 -68.853 94.538 -68.777 93.785 C-67.497 80.247 -67.903 66.581 -68 53 C-67.325 53.022 -66.649 53.045 -65.953 53.068 C-65.061 53.086 -64.169 53.103 -63.25 53.121 C-61.927 53.155 -61.927 53.155 -60.578 53.189 C-52.322 52.583 -45.692 44.291 -40 39 C-38.44 37.602 -36.877 36.206 -35.312 34.812 C-30.992 30.927 -26.742 26.971 -22.5 23 C-6.44 7.971 -6.44 7.971 -2.793 5.512 C-0.702 3.749 -0.367 2.664 0 0 Z M28 29 C29.595 34.214 32.893 37.945 36.25 42.125 C41.391 48.625 46.417 55.189 51.312 61.875 C51.899 62.675 52.486 63.475 53.09 64.3 C54.217 65.838 55.343 67.376 56.469 68.914 C61.809 76.19 67.271 83.373 72.783 90.52 C76.83 95.771 80.855 101.04 84.875 106.312 C85.564 107.215 86.252 108.118 86.962 109.048 C90.632 113.867 94.277 118.703 97.89 123.565 C103.36 130.923 109.037 138.034 115 145 C115.495 143.515 115.495 143.515 116 142 C114.447 139.652 114.447 139.652 112.188 137.188 C108.678 133.057 105.372 128.872 102.25 124.438 C101.842 123.86 101.433 123.282 101.012 122.686 C100.142 121.454 99.273 120.221 98.404 118.988 C91.597 109.349 84.726 99.773 77.375 90.539 C73.171 85.252 69.084 79.88 65 74.5 C59.175 66.833 53.294 59.217 47.316 51.668 C45.903 49.877 44.498 48.08 43.094 46.281 C36.254 37.469 36.254 37.469 29 29 C28.67 29 28.34 29 28 29 Z M50 40 C52.68 45.915 57.059 50.882 61 56 C61.436 56.566 61.871 57.132 62.32 57.715 C71.115 69.109 80.305 80.112 89.984 90.766 C92.716 93.794 95.362 96.889 98 100 C98 96.566 97.586 96.129 95.473 93.594 C94.932 92.938 94.392 92.282 93.835 91.607 C93.25 90.911 92.665 90.216 92.062 89.5 C91.467 88.781 90.872 88.062 90.258 87.321 C89.06 85.874 87.858 84.429 86.654 82.986 C84.539 80.446 82.457 77.88 80.375 75.312 C76.666 70.782 72.889 66.312 69.099 61.851 C64.105 55.964 59.226 49.983 54.367 43.984 C53.266 42.638 52.137 41.315 51 40 C50.67 40 50.34 40 50 40 Z M19 48 C21.614 52.097 24.347 55.632 27.688 59.188 C31.855 63.703 35.792 68.338 39.652 73.117 C42.685 76.842 45.795 80.498 48.909 84.155 C51.873 87.642 54.762 91.179 57.625 94.75 C61.141 99.076 64.896 103.003 68.887 106.891 C70.839 108.839 72.647 110.841 74.438 112.938 C77.874 116.949 81.592 120.629 85.375 124.312 C87.425 126.412 89.34 128.528 91.25 130.75 C95.277 135.396 99.617 139.691 104 144 C108.969 148.886 113.778 153.808 118.321 159.094 C121.057 162.199 123.99 165.097 126.938 168 C127.526 168.584 128.114 169.168 128.721 169.77 C130.145 171.182 131.572 172.591 133 174 C133.325 170.994 133.325 170.994 131.496 169.238 C130.817 168.603 130.137 167.967 129.438 167.312 C124.349 162.402 119.801 157.137 115.246 151.734 C109.874 145.385 104.458 139.244 98.449 133.477 C95.793 130.791 93.34 127.977 90.867 125.124 C87.791 121.625 84.581 118.255 81.375 114.875 C79.965 113.38 78.554 111.886 77.145 110.391 C75.144 108.271 73.143 106.152 71.142 104.033 C64.925 97.441 58.919 90.799 53.25 83.723 C49.842 79.599 46.201 75.702 42.562 71.781 C40.453 69.492 38.4 67.175 36.375 64.812 C33.112 61.037 29.593 57.555 26.016 54.078 C24 52 24 52 22.359 49.734 C21.911 49.162 21.462 48.59 21 48 C20.34 48 19.68 48 19 48 Z M86 66 C86.617 69.279 87.756 71.352 89.738 74.02 C90.306 74.788 90.874 75.557 91.458 76.348 C92.07 77.162 92.682 77.975 93.312 78.812 C93.935 79.648 94.557 80.484 95.198 81.345 C100.957 89.038 106.924 96.556 113 104 C113 99.913 110.982 97.569 108.75 94.312 C108.086 93.333 108.086 93.333 107.409 92.335 C103.933 87.256 100.346 82.261 96.688 77.312 C96.197 76.642 95.706 75.971 95.2 75.281 C92.452 71.617 89.756 68.703 86 66 Z M24 72 C26.908 76.566 30.122 80.621 33.688 84.688 C37.385 88.946 41.028 93.229 44.562 97.625 C48.179 102.085 52.003 106.316 55.912 110.518 C59.713 114.627 63.241 118.92 66.75 123.281 C69.105 126.127 71.56 128.846 74.062 131.562 C78.626 136.532 82.835 141.696 87 147 C89.162 149.712 91.331 152.418 93.5 155.125 C94.552 156.44 95.604 157.755 96.656 159.07 C97.43 160.037 98.203 161.004 99 162 C99.495 160.515 99.495 160.515 100 159 C98.558 156.838 97.097 154.923 95.438 152.938 C94.417 151.68 93.398 150.423 92.379 149.164 C91.831 148.493 91.284 147.822 90.719 147.13 C87.712 143.404 84.801 139.602 81.875 135.812 C74.399 126.188 66.831 116.76 58.555 107.801 C56.558 105.612 54.602 103.401 52.66 101.164 C49.059 97.035 45.329 93.041 41.562 89.062 C36.725 83.94 31.967 78.789 27.418 73.406 C26.096 71.765 26.096 71.765 24 72 Z M-11 74 C-9.872 75.128 -8.743 76.256 -7.613 77.383 C-6.46 78.539 -5.312 79.701 -4.168 80.867 C-0.251 84.839 3.77 88.584 8 92.219 C10.708 94.631 13.232 97.204 15.75 99.812 C17.669 101.678 19.627 103.414 21.656 105.156 C27.38 110.127 32.619 115.573 37.934 120.973 C42.234 125.315 46.583 129.504 51.242 133.461 C53.078 135.069 54.792 136.758 56.5 138.5 C58.758 140.793 61.06 142.964 63.5 145.062 C67.605 148.598 71.55 152.293 75.5 156 C80.046 160.266 84.62 164.47 89.348 168.535 C92.021 170.905 94.505 173.443 97 176 C97.66 175.67 98.32 175.34 99 175 C93.596 169.57 88.188 164.145 82.777 158.722 C80.939 156.879 79.102 155.035 77.266 153.191 C74.617 150.53 71.965 147.872 69.312 145.215 C68.501 144.398 67.689 143.581 66.853 142.739 C62.599 138.485 58.264 134.404 53.704 130.48 C51.716 128.754 49.843 126.942 48 125.062 C47.34 124.395 46.68 123.727 46 123.039 C44.667 121.68 43.333 120.32 42 118.961 C38.07 114.985 34.035 111.229 29.799 107.581 C27.476 105.539 25.331 103.354 23.188 101.125 C18.916 96.801 14.415 92.954 9.668 89.164 C7.12 87.097 4.68 84.953 2.25 82.75 C-3.686 76.823 -3.686 76.823 -11 74 Z M-10 87 C-6.015 95.945 2.111 103.328 8.664 110.445 C10.652 112.619 12.585 114.824 14.5 117.062 C18.002 121.101 21.798 124.814 25.602 128.566 C27.633 130.628 29.517 132.722 31.375 134.938 C39.489 144.357 49.341 152.029 59.156 159.577 C62.413 162.091 65.642 164.642 68.875 167.188 C70.06 168.119 71.245 169.05 72.43 169.98 C73.702 170.98 73.702 170.98 75 172 C75.66 171.67 76.32 171.34 77 171 C71.886 166.307 66.721 161.728 61.312 157.375 C57.566 154.344 54.093 151.229 50.757 147.756 C49.123 146.123 47.44 144.645 45.672 143.16 C39.782 138.04 34.325 132.474 28.818 126.948 C26.942 125.067 25.06 123.19 23.178 121.314 C17.811 115.951 12.484 110.604 7.564 104.822 C4.526 101.283 1.313 97.903 -1.875 94.5 C-2.55 93.773 -3.226 93.046 -3.922 92.297 C-4.564 91.611 -5.206 90.925 -5.867 90.219 C-6.446 89.599 -7.024 88.98 -7.621 88.342 C-8.799 86.884 -8.799 86.884 -10 87 Z M130 127 C131 129 131 129 131 129 Z M131 130 C132 132 132 132 132 132 Z M7 132 C15.637 147.392 31.445 157.535 45.359 167.769 C46.7 168.775 48 169.837 49.285 170.914 C49.851 171.272 50.417 171.631 51 172 C51.99 171.67 52.98 171.34 54 171 C47.813 165.738 41.626 160.485 35.312 155.375 C30.87 151.759 26.593 147.997 22.359 144.141 C19.507 141.553 16.605 139.026 13.691 136.508 C12 135 12 135 10.402 133.305 C9.075 131.773 9.075 131.773 7 132 Z M-30 130 C-29.44 134.172 -28.487 137.585 -26.715 141.398 C-26.267 142.372 -25.819 143.345 -25.357 144.348 C-24.889 145.347 -24.42 146.346 -23.938 147.375 C-23.229 148.908 -23.229 148.908 -22.506 150.473 C-21.344 152.985 -20.175 155.494 -19 158 C-31.487 153.972 -43.735 149.506 -55.938 144.688 C-58.353 143.738 -60.769 142.791 -63.186 141.843 C-64.669 141.262 -66.151 140.678 -67.633 140.094 C-70.407 139.002 -73.171 137.943 -76 137 C-77.32 138.32 -78.64 139.64 -80 141 C-63.432 148.575 -46.143 154.379 -28.875 160.125 C-28.15 160.367 -27.424 160.608 -26.677 160.857 C-7.621 167.189 11.494 173.328 30.812 178.812 C31.734 179.074 32.655 179.336 33.604 179.606 C53.31 185.18 73.163 190.162 93.041 195.079 C95.484 195.684 97.926 196.291 100.369 196.898 C104.269 197.868 108.17 198.828 112.074 199.783 C113.517 200.137 114.959 200.493 116.401 200.851 C134.485 206.394 134.485 206.394 152 203 C155.147 199.558 155.212 196.669 155.143 192.108 C154.353 180.475 147.804 168.755 143.105 158.329 C139.236 149.7 135.93 140.987 133 132 C131.861 135.359 132.137 137.257 133.301 140.578 C133.614 141.481 133.927 142.383 134.25 143.313 C134.776 144.767 134.776 144.767 135.312 146.25 C135.668 147.254 136.023 148.258 136.389 149.292 C139.541 158.053 143.073 166.645 146.761 175.192 C147.169 176.142 147.576 177.092 147.996 178.07 C148.359 178.903 148.722 179.736 149.095 180.594 C150.643 184.711 151.185 188.745 151.312 193.125 C151.369 194.397 151.369 194.397 151.426 195.695 C151 198 151 198 149.48 199.805 C142.095 203.364 133.124 199.749 125.715 197.773 C124.397 197.43 123.079 197.087 121.761 196.745 C118.22 195.824 114.682 194.891 111.144 193.957 C107.434 192.979 103.722 192.011 100.01 191.043 C98.502 190.649 96.994 190.256 95.486 189.863 C94.362 189.57 94.362 189.57 93.216 189.27 C90.929 188.674 88.643 188.075 86.357 187.477 C76.771 184.969 67.174 182.513 57.562 180.105 C33.98 174.193 10.528 168.166 -12.616 160.696 C-14.906 159.907 -14.906 159.907 -17 160 C-17.084 159.219 -17.168 158.438 -17.254 157.633 C-18.249 152.79 -20.062 148.437 -21.938 143.875 C-22.298 142.982 -22.658 142.088 -23.029 141.168 C-24.569 137.373 -26.129 133.645 -28 130 C-28.66 130 -29.32 130 -30 130 Z M135 175 C135 175.66 135 176.32 135 177 C135.66 176.67 136.32 176.34 137 176 C136.34 175.67 135.68 175.34 135 175 Z " fill="#000000" transform="translate(229,563)"/>
<path d="M0 0 C0 0.66 0 1.32 0 2 C-2.5 3.625 -2.5 3.625 -5 5 C-5.66 4.01 -6.32 3.02 -7 2 C-4 0 -4 0 0 0 Z " fill="#000000" transform="translate(260,562)"/>
<path d="M0 0 C0.33 0 0.66 0 1 0 C1.104 14.037 1.184 28.003 0 42 C-0.33 42 -0.66 42 -1 42 C-1.025 36.983 -1.043 31.966 -1.055 26.949 C-1.06 25.244 -1.067 23.539 -1.075 21.833 C-1.088 19.376 -1.093 16.918 -1.098 14.461 C-1.103 13.704 -1.108 12.948 -1.113 12.169 C-1.114 8.003 -0.817 4.086 0 0 Z " fill="#000000" transform="translate(568,564)"/>
<path d="M0 0 C0.835 0.34 0.835 0.34 1.688 0.688 C1.358 1.678 1.027 2.668 0.688 3.688 C-1.952 4.018 -4.592 4.347 -7.312 4.688 C-7.312 4.028 -7.312 3.367 -7.312 2.688 C-3.16 -0.427 -3.16 -0.427 0 0 Z " fill="#000000" transform="translate(266.3125,566.3125)"/>
<path d="M0 0 C3.908 0.811 5.808 2.337 8.75 5.062 C9.549 5.796 10.348 6.529 11.172 7.285 C11.775 7.851 12.378 8.417 13 9 C11.02 11.97 11.02 11.97 9 15 C10.65 13.68 12.3 12.36 14 11 C17 13 17 13 17.624 15.031 C17.741 15.868 17.859 16.706 17.98 17.569 C18.121 18.524 18.261 19.48 18.406 20.464 C18.547 21.509 18.687 22.553 18.832 23.629 C18.989 24.714 19.146 25.799 19.308 26.916 C19.645 29.25 19.976 31.584 20.303 33.919 C21.154 40.001 22.049 46.076 22.941 52.152 C23.117 53.353 23.292 54.554 23.473 55.792 C26.543 76.662 30.435 97.405 35 118 C31.133 114.75 27.31 111.527 23.875 107.812 C23.254 107.159 22.632 106.505 21.992 105.832 C16.42 97.911 14.029 89.21 12.25 79.812 C12.014 78.613 11.778 77.413 11.535 76.177 C10.992 73.412 10.461 70.645 9.935 67.876 C9.06 63.286 8.152 58.703 7.242 54.12 C6.4 49.857 5.572 45.591 4.746 41.325 C4.336 39.213 3.922 37.103 3.504 34.993 C1.173 23.206 -0.708 12.045 0 0 Z " fill="#000000" transform="translate(103,572)"/>
<path d="M0 0 C5.203 0.575 9.24 2.294 13.875 4.562 C14.563 4.892 15.252 5.221 15.961 5.561 C17.644 6.367 19.322 7.183 21 8 C17.575 9.142 16.683 8.831 13.332 7.785 C12.439 7.511 11.547 7.237 10.627 6.955 C9.698 6.661 8.769 6.366 7.812 6.062 C6.872 5.772 5.932 5.481 4.963 5.182 C2.639 4.462 0.319 3.735 -2 3 C-1.34 2.01 -0.68 1.02 0 0 Z " fill="#000000" transform="translate(291,578)"/>
<path d="M0 0 C1.671 0.992 3.337 1.994 5 3 C6.069 3.638 6.069 3.638 7.159 4.288 C10.779 6.889 12.684 8.917 13.951 13.26 C14.446 16.551 14.827 19.799 15.084 23.115 C15.366 26.744 15.763 30.361 16.141 33.98 C16.211 34.69 16.281 35.399 16.354 36.13 C16.886 41.383 17.763 46.436 19 51.562 C20.962 59.966 22.134 68.452 23.25 77 C23.339 77.664 23.428 78.327 23.52 79.011 C24.589 87.049 25.266 94.89 25 103 C25.66 103 26.32 103 27 103 C26.505 102.01 26.505 102.01 26 101 C25.704 98.781 25.46 96.556 25.238 94.328 C25.09 92.885 24.942 91.443 24.794 90 C24.716 89.228 24.638 88.456 24.557 87.66 C22.7 69.366 20.389 51.145 17.931 32.923 C17.803 31.966 17.675 31.008 17.543 30.022 C17.303 28.226 17.059 26.43 16.813 24.635 C16.29 20.727 15.849 16.954 16 13 C19.162 14.604 21.641 16.336 24 19 C25.395 23.299 25.662 27.568 25.938 32.062 C26.133 34.387 26.33 36.711 26.527 39.035 C26.597 40.06 26.666 41.085 26.738 42.141 C26.984 44.825 27.446 47.366 28 50 C28.117 52.677 28.045 55.318 28 58 C28.66 58 29.32 58 30 58 C29.801 56.364 29.801 56.364 29.598 54.695 C28.31 43.805 27.492 32.954 27 22 C31.875 24.875 31.875 24.875 33 26 C33.267 30.513 33.194 35.042 33.188 39.562 C33.188 40.59 33.188 40.59 33.188 41.638 C33.174 52.448 32.801 63.212 32.125 74 C32.047 75.278 31.968 76.556 31.887 77.873 C30.166 103.236 30.166 103.236 26 111 C23 111 23 111 21.43 109.891 C18.101 106.378 16.687 103.817 16.516 98.949 C15.959 90.051 14.366 81.342 12.875 72.562 C12.722 71.653 12.57 70.744 12.413 69.808 C9.908 54.89 7.198 40.016 4.31 25.168 C2.687 16.804 1.216 8.435 0 0 Z M22 24 C23 27 23 27 23 27 Z " fill="#000000" transform="translate(121,586)"/>
<path d="M0 0 C3.536 3.173 5.586 5.167 6 10 C4.68 10 3.36 10 2 10 C-0.094 6.598 -0.179 3.947 0 0 Z " fill="#000000" transform="translate(585,587)"/>
<path d="M0 0 C9.209 3.178 17.543 9.8 25.586 15.219 C31.77 19.38 38.037 23.415 44.311 27.44 C45.833 28.417 47.353 29.396 48.873 30.376 C58.278 36.442 67.749 42.263 77.597 47.586 C89.87 54.233 89.87 54.233 91.996 59.508 C92.325 60.284 92.654 61.06 92.992 61.859 C93.559 63.883 93.559 63.883 92.559 65.883 C91.682 65.482 90.805 65.081 89.902 64.668 C68.05 54.815 45.318 47.317 22.559 39.883 C26.383 41.932 30.416 43.428 34.461 44.973 C35.634 45.423 35.634 45.423 36.831 45.882 C38.512 46.527 40.194 47.171 41.876 47.814 C44.512 48.826 47.145 49.849 49.777 50.873 C57.937 54.038 66.091 57.115 74.414 59.828 C75.75 60.279 77.085 60.73 78.42 61.184 C80.86 62.002 83.315 62.777 85.785 63.502 C90.854 65.238 93.723 66.395 96.409 71.179 C98.824 77.211 100.617 83.414 99.559 89.883 C96.725 94.12 93.232 96.74 88.996 99.445 C88.343 99.871 87.691 100.297 87.018 100.735 C84.872 102.129 82.716 103.507 80.559 104.883 C79.826 105.351 79.094 105.82 78.339 106.303 C67.488 113.235 56.538 120.009 45.582 126.773 C41.713 129.164 37.857 131.573 34.007 133.994 C10.222 148.941 10.222 148.941 -0.441 147.883 C-5.24 146.747 -9.885 145.195 -14.551 143.613 C-15.889 143.171 -17.228 142.73 -18.568 142.29 C-21.358 141.37 -24.144 140.44 -26.928 139.503 C-30.483 138.306 -34.044 137.126 -37.607 135.952 C-41.027 134.824 -44.445 133.688 -47.863 132.551 C-48.83 132.231 -48.83 132.231 -49.816 131.904 C-51.652 131.294 -53.486 130.677 -55.319 130.059 C-56.36 129.711 -57.4 129.362 -58.471 129.003 C-66.869 125.836 -66.869 125.836 -68.781 122.653 C-69.592 119.252 -69.846 116.051 -70.012 112.555 C-70.048 111.824 -70.083 111.093 -70.12 110.34 C-70.237 107.855 -70.34 105.369 -70.441 102.883 C-70.502 101.519 -70.502 101.519 -70.564 100.127 C-70.828 94.16 -71.043 88.192 -71.219 82.222 C-71.285 80.141 -71.361 78.06 -71.446 75.979 C-71.571 72.932 -71.662 69.885 -71.746 66.836 C-71.791 65.909 -71.835 64.982 -71.881 64.027 C-71.971 59.488 -71.984 57.573 -69.095 53.899 C-68.22 53.234 -67.344 52.568 -66.441 51.883 C-65.527 51.151 -64.614 50.418 -63.672 49.664 C-62.668 48.911 -61.664 48.158 -60.629 47.383 C-53.366 41.883 -46.31 36.142 -39.262 30.371 C-37.669 29.069 -36.071 27.772 -34.473 26.477 C-29.995 22.842 -25.571 19.153 -21.201 15.39 C-18.836 13.353 -16.463 11.326 -14.09 9.299 C-12.552 7.978 -11.027 6.642 -9.504 5.305 C-8.205 4.199 -8.205 4.199 -6.879 3.07 C-6.135 2.424 -5.391 1.779 -4.625 1.113 C-2.441 -0.117 -2.441 -0.117 0 0 Z M-6.629 6.57 C-17.231 16.287 -28.107 25.594 -39.496 34.376 C-41.674 36.063 -43.839 37.765 -46.004 39.469 C-47.587 40.711 -49.17 41.953 -50.754 43.195 C-51.483 43.77 -52.211 44.345 -52.962 44.937 C-57.963 48.845 -63.115 52.433 -68.441 55.883 C-65.05 62.969 -58.794 67.668 -52.754 72.508 C-43.118 80.318 -43.118 80.318 -41.094 86.797 C-39.203 92.668 -37.102 98.458 -35.004 104.258 C-34.431 105.847 -34.431 105.847 -33.846 107.469 C-31.388 114.277 -28.918 121.081 -26.441 127.883 C-27.431 128.378 -27.431 128.378 -28.441 128.883 C-27.637 129.337 -26.833 129.79 -26.004 130.258 C-23.441 131.883 -23.441 131.883 -22.441 133.883 C-23.923 133.341 -23.923 133.341 -25.434 132.789 C-26.728 132.32 -28.022 131.851 -29.316 131.383 C-29.967 131.144 -30.618 130.906 -31.289 130.66 C-34.776 129.334 -34.776 129.334 -38.441 128.883 C-38.661 127.839 -38.88 126.795 -39.105 125.719 C-41.032 116.711 -43.178 107.78 -45.566 98.883 C-45.82 97.922 -46.073 96.96 -46.334 95.97 C-46.579 95.075 -46.823 94.18 -47.074 93.258 C-47.29 92.461 -47.505 91.665 -47.727 90.844 C-48.357 88.686 -48.357 88.686 -50.441 86.883 C-49.281 96.945 -46.903 106.656 -44.474 116.474 C-44.213 117.531 -43.952 118.587 -43.684 119.676 C-43.445 120.63 -43.206 121.584 -42.96 122.567 C-42.441 124.883 -42.441 124.883 -42.441 126.883 C-43.761 126.553 -45.081 126.223 -46.441 125.883 C-46.467 125.251 -46.493 124.62 -46.52 123.969 C-47.031 115.902 -49.027 108.575 -51.441 100.883 C-52.485 104.12 -52.364 106.338 -51.664 109.648 C-51.48 110.538 -51.297 111.427 -51.107 112.344 C-50.908 113.264 -50.709 114.185 -50.504 115.133 C-50.309 116.069 -50.113 117.005 -49.912 117.969 C-49.43 120.275 -48.939 122.58 -48.441 124.883 C-51.301 124.324 -51.301 124.324 -54.441 122.883 C-55.832 119.66 -55.832 119.66 -56.691 115.82 C-57.229 113.497 -57.802 111.181 -58.441 108.883 C-59.101 108.553 -59.761 108.223 -60.441 107.883 C-58.956 114.813 -58.956 114.813 -57.441 121.883 C-63.423 117.396 -63.786 111.899 -64.955 104.737 C-65.39 101.56 -65.772 98.382 -66.129 95.195 C-66.323 93.553 -66.323 93.553 -66.521 91.877 C-66.836 89.213 -67.142 86.548 -67.441 83.883 C-67.771 83.883 -68.101 83.883 -68.441 83.883 C-68.491 88.009 -68.527 92.135 -68.551 96.261 C-68.561 97.661 -68.575 99.062 -68.592 100.462 C-68.976 111.402 -68.976 111.402 -66.441 121.883 C-61.397 126.016 -55.713 127.689 -49.559 129.633 C-48.508 129.973 -47.457 130.313 -46.375 130.663 C-43.025 131.745 -39.671 132.814 -36.316 133.883 C-34.084 134.601 -31.853 135.319 -29.621 136.039 C-26.454 137.06 -23.287 138.08 -20.118 139.093 C-14.082 141.022 -8.071 143.01 -2.077 145.066 C5.075 147.282 9.376 146.265 16.059 142.883 C25.314 137.762 34.136 131.854 43.008 126.105 C49.228 122.079 55.51 118.16 61.809 114.258 C72.89 107.375 83.757 100.195 94.559 92.883 C93.899 92.553 93.239 92.223 92.559 91.883 C90.454 92.669 90.454 92.669 88.105 93.953 C87.187 94.431 86.269 94.908 85.323 95.4 C83.831 96.196 83.831 96.196 82.309 97.008 C81.28 97.551 80.252 98.094 79.192 98.654 C61.032 108.342 43.633 119.252 26.298 130.327 C24.138 131.705 21.974 133.075 19.809 134.445 C19.177 134.851 18.546 135.257 17.895 135.675 C13.91 138.19 9.934 140.127 5.559 141.883 C5.468 140.929 5.378 139.975 5.285 138.992 C4.579 134.096 2.786 129.696 0.934 125.133 C0.58 124.253 0.227 123.374 -0.137 122.468 C-2.912 115.751 -6.129 109.758 -10.441 103.883 C-9.08 103.295 -9.08 103.295 -7.691 102.695 C-1.941 99.488 0.029 95.389 1.809 89.195 C2.144 88.057 2.479 86.919 2.824 85.746 C3.641 83.053 3.641 83.053 3.559 80.883 C14.596 84.179 25.079 88.536 35.632 93.136 C36.714 93.604 37.796 94.072 38.91 94.555 C39.878 94.978 40.845 95.402 41.842 95.839 C44.421 96.83 46.838 97.434 49.559 97.883 C49.889 97.223 50.219 96.563 50.559 95.883 C49.578 95.459 48.597 95.035 47.586 94.598 C46.223 94.005 44.859 93.413 43.496 92.82 C42.409 92.35 42.409 92.35 41.301 91.87 C37.736 90.316 34.201 88.732 30.719 87 C21.87 82.619 13.217 79.926 3.559 77.883 C4.054 71.943 4.054 71.943 4.559 65.883 C6.354 66.437 8.15 66.991 10 67.562 C12.374 68.294 14.747 69.026 17.121 69.758 C18.303 70.123 19.484 70.487 20.701 70.863 C31.42 74.68 31.42 74.68 42.559 75.883 C39.884 73.209 37.361 72.688 33.758 71.535 C33.084 71.318 32.411 71.102 31.717 70.878 C30.292 70.421 28.865 69.966 27.438 69.514 C25.263 68.826 23.091 68.128 20.92 67.428 C19.533 66.984 18.145 66.54 16.758 66.098 C16.112 65.89 15.466 65.683 14.8 65.469 C11.41 64.4 8.061 63.5 4.559 62.883 C3.436 49.223 2.334 35.568 1.559 21.883 C6.017 23.278 10.167 25.009 14.391 27 C15.027 27.298 15.663 27.597 16.318 27.904 C18.337 28.852 20.354 29.805 22.371 30.758 C35.14 38.081 35.14 38.081 48.559 41.883 C48.559 41.223 48.559 40.563 48.559 39.883 C47.946 39.591 47.333 39.3 46.701 39 C43.82 37.629 40.939 36.256 38.059 34.883 C37.014 34.385 35.969 33.886 34.892 33.373 C28.145 30.146 21.429 26.869 14.785 23.434 C10.47 21.233 6.108 19.521 1.559 17.883 C0.899 12.933 0.239 7.983 -0.441 2.883 C-3.452 2.883 -4.449 4.537 -6.629 6.57 Z M-60.441 74.883 C-59.714 80.41 -58.107 85.582 -56.441 90.883 C-55.781 90.553 -55.121 90.223 -54.441 89.883 C-54.894 88.131 -55.354 86.382 -55.816 84.633 C-56.199 83.171 -56.199 83.171 -56.59 81.68 C-57.337 79.224 -58.213 77.127 -59.441 74.883 C-59.771 74.883 -60.101 74.883 -60.441 74.883 Z M21.559 75.883 C21.559 76.543 21.559 77.203 21.559 77.883 C37.845 83.022 37.845 83.022 54.559 84.883 C51.346 82.741 48.943 82.078 45.211 81.156 C43.344 80.692 43.344 80.692 41.439 80.219 C40.793 80.061 40.146 79.904 39.479 79.741 C37.498 79.258 35.52 78.767 33.541 78.273 C27.619 76.595 27.619 76.595 21.559 75.883 Z M52.559 97.883 C52.889 98.543 53.219 99.203 53.559 99.883 C54.219 99.553 54.879 99.223 55.559 98.883 C54.569 98.553 53.579 98.223 52.559 97.883 Z M26.559 108.883 C25.226 111.501 25.226 111.501 24.559 113.883 C25.219 113.883 25.879 113.883 26.559 113.883 C26.641 113.264 26.724 112.645 26.809 112.008 C27.559 109.883 27.559 109.883 29.496 108.82 C30.177 108.511 30.857 108.202 31.559 107.883 C32.219 106.893 32.879 105.903 33.559 104.883 C30.322 104.883 28.868 106.747 26.559 108.883 Z M-2.441 108.883 C-0.802 114.116 0.948 119.035 3.559 123.883 C4.928 120.87 4.928 120.87 3.344 117.965 C2.491 116.346 2.491 116.346 1.621 114.695 C1.055 113.609 0.489 112.522 -0.094 111.402 C-0.538 110.571 -0.983 109.739 -1.441 108.883 C-1.771 108.883 -2.101 108.883 -2.441 108.883 Z M14.559 112.883 C13.239 114.203 11.919 115.523 10.559 116.883 C10.889 117.873 11.219 118.863 11.559 119.883 C11.229 120.873 10.899 121.863 10.559 122.883 C11.219 122.883 11.879 122.883 12.559 122.883 C12.559 122.223 12.559 121.563 12.559 120.883 C13.879 121.213 15.199 121.543 16.559 121.883 C16.559 120.563 16.559 119.243 16.559 117.883 C17.879 117.553 19.199 117.223 20.559 116.883 C20.559 116.223 20.559 115.563 20.559 114.883 C18.579 114.223 16.599 113.563 14.559 112.883 Z M19.559 124.883 C20.868 128.005 20.868 128.005 23.559 129.883 C22.25 126.761 22.25 126.761 19.559 124.883 Z " fill="#000000" transform="translate(528.44140625,599.1171875)"/>
<path d="M0 0 C0 3.676 -0.918 4.602 -3.07 7.523 C-21.218 32.697 -34.79 60.046 -48 88 C-49.223 84.332 -48.349 83.071 -46.727 79.709 C-46.375 79.006 -46.023 78.302 -45.66 77.578 C-45.12 76.473 -45.12 76.473 -44.57 75.345 C-43.41 72.975 -42.236 70.613 -41.062 68.25 C-40.306 66.705 -39.55 65.159 -38.795 63.613 C-32.422 50.613 -25.96 37.631 -18.125 25.438 C-17.622 24.647 -17.119 23.857 -16.6 23.043 C-5.03 5.03 -5.03 5.03 0 0 Z " fill="#000000" transform="translate(448,607)"/>
<path d="M0 0 C4.708 3.84 8.855 7.841 12.75 12.5 C13.265 13.11 13.781 13.719 14.312 14.347 C19.707 20.771 24.886 27.352 30 34 C30.913 35.182 30.913 35.182 31.845 36.389 C40.339 47.395 48.621 58.51 56.556 69.926 C59.062 73.525 61.595 77.106 64.125 80.688 C64.617 81.384 65.109 82.081 65.615 82.8 C70.383 89.553 75.186 96.28 80 103 C79.67 103.66 79.34 104.32 79 105 C71.062 94.858 63.503 84.466 56 74 C48.006 62.852 39.905 51.796 31.645 40.844 C29.313 37.752 26.997 34.649 24.699 31.531 C19.135 23.995 13.409 16.85 7 10 C5.638 8.507 4.283 7.007 2.938 5.5 C2.369 4.871 1.801 4.242 1.215 3.594 C0 2 0 2 0 0 Z " fill="#000000" transform="translate(673,656)"/>
<path d="M0 0 C3.696 1.649 6.722 3.934 9.938 6.375 C10.957 7.146 11.977 7.917 13.027 8.711 C14.499 9.844 14.499 9.844 16 11 C16.883 11.661 17.766 12.323 18.676 13.004 C30.141 22.85 36.954 42.823 41 57 C33.064 55.525 33.064 55.525 30.512 51.867 C28 46.186 28 46.186 28 43 C27.34 43 26.68 43 26 43 C26.3 43.626 26.601 44.253 26.91 44.898 C27.29 45.716 27.671 46.533 28.062 47.375 C28.445 48.187 28.828 48.999 29.223 49.836 C29.479 50.55 29.736 51.264 30 52 C29.67 52.66 29.34 53.32 29 54 C20.724 52.022 20.724 52.022 17.875 48 C17 45 17 45 18 42 C21.062 40.812 21.062 40.812 24 40 C20.377 38.792 19.359 39.457 16 41 C15.693 40.174 15.386 39.348 15.07 38.497 C13.909 35.382 12.744 32.27 11.575 29.159 C11.074 27.822 10.574 26.484 10.077 25.145 C7.366 17.851 4.572 10.726 0.889 3.851 C0 2 0 2 0 0 Z M25 36 C25 36.66 25 37.32 25 38 C25.66 37.67 26.32 37.34 27 37 C26.34 36.67 25.68 36.34 25 36 Z " fill="#000000" transform="translate(488,683)"/>
<path d="M0 0 C0.33 0.66 0.66 1.32 1 2 C-0.243 4.45 -1.529 6.773 -2.938 9.125 C-3.324 9.784 -3.71 10.442 -4.107 11.121 C-5.064 12.752 -6.031 14.376 -7 16 C-7.33 15.34 -7.66 14.68 -8 14 C-6.757 11.55 -5.471 9.227 -4.062 6.875 C-3.483 5.887 -3.483 5.887 -2.893 4.879 C-1.936 3.248 -0.969 1.624 0 0 Z " fill="#000000" transform="translate(422,695)"/>
</svg>
