<?xml version="1.0" encoding="UTF-8"?>
<svg version="1.1" xmlns="http://www.w3.org/2000/svg" width="649" height="649">
<path d="M0 0 C-1.43 3.52 -2.99 4.95 -6.21 6.91 C-7.04 7.43 -7.88 7.94 -8.73 8.47 C-10.04 9.26 -10.04 9.26 -11.38 10.06 C-13.09 11.11 -14.81 12.17 -16.52 13.22 C-17.29 13.68 -18.05 14.15 -18.83 14.62 C-20.98 15.98 -22.99 17.45 -25 19 C-23.42 18.51 -23.42 18.51 -21.81 18.01 C1.63 10.86 26 7.27 50.5 9.81 C51.29 9.88 52.08 9.95 52.89 10.03 C58.58 10.61 63.66 11.99 69 14 C68.67 14.99 68.34 15.98 68 17 C66.21 16.86 64.42 16.71 62.62 16.56 C61.63 16.48 60.63 16.4 59.6 16.32 C57.67 16.15 55.74 15.97 53.82 15.75 C46.83 14.96 39.9 14.81 32.88 14.81 C31.69 14.81 30.51 14.81 29.29 14.81 C20.39 14.86 11.78 15.49 3 17 C3.59 17.09 4.19 17.19 4.8 17.29 C26.25 20.79 45.4 26.11 62 41 C62.91 41.81 63.81 42.62 64.75 43.46 C79.21 57.14 88.04 74.12 89.18 94.22 C89.54 111.61 84.68 128.12 74 142 C72.69 143.28 71.36 144.53 70 145.75 C67.45 148.2 67.05 148.64 66.56 152.31 C69.63 160.17 76.11 166.26 81.75 172.41 C83 174 83 174 83 176 C83.66 176 84.32 176 85 176 C86.71 177.62 88.37 179.3 90 181 C91.73 182.68 93.47 184.35 95.2 186.03 C116.23 206.44 116.23 206.44 122 218 C122.66 219.24 122.66 219.24 123.33 220.5 C128.75 232.08 128.43 245.6 127 258 C127.88 258.4 128.77 258.8 129.68 259.21 C144.26 266.04 156.53 275.25 162.44 290.81 C166.04 301.48 165.76 312.98 164 324 C164.57 324.25 165.14 324.5 165.73 324.76 C177.17 331.02 183.67 344.31 187.29 356.28 C188.23 359.87 188.85 363.3 189 367 C189.05 368.1 189.1 369.2 189.16 370.33 C189.52 385.05 186.85 402.1 177.12 413.88 C176.42 414.58 175.72 415.28 175 416 C173.68 415.34 172.36 414.68 171 414 C171.77 410.61 173.02 407.63 174.48 404.47 C181.64 388.86 184.26 371.5 178.26 354.93 C174.92 347.19 171.18 340.66 165.32 334.56 C164 333 164 333 164 331 C163.04 330.54 163.04 330.54 162.06 330.06 C160 329 160 329 159 328 C158.13 322.04 157.96 316.06 158.09 310.04 C158.31 298.58 157.23 289.57 149.43 280.74 C148 279 148 279 148 277 C147.41 276.72 146.82 276.45 146.21 276.16 C144.11 275.06 142.47 273.87 140.62 272.38 C137.99 270.33 135.33 268.59 132.4 267 C131.77 266.66 131.14 266.32 130.49 265.97 C129.22 265.29 127.94 264.63 126.66 263.98 C123.81 262.46 122.22 261.57 121.03 258.5 C121 256 121 256 121.48 254.09 C124.41 242.27 122.04 228.58 116.42 218.04 C113.2 212.74 109.54 208.06 105.29 203.56 C104 202 104 202 104 200 C103.34 200 102.68 200 102 200 C100.85 198.92 99.72 197.82 98.62 196.68 C96.67 194.66 94.65 192.7 92.64 190.74 C76.23 174.65 76.23 174.65 70 165 C70.45 168.56 70.91 172.13 71.38 175.69 C71.56 177.2 71.56 177.2 71.76 178.74 C71.89 179.72 72.02 180.69 72.15 181.7 C72.26 182.59 72.38 183.49 72.5 184.41 C73.56 189.88 75.78 193.18 79.44 197.31 C85.6 204.43 90.78 212.18 96 220 C92.66 208.88 85.89 199.39 78.59 190.52 C77 188 77 188 77.25 185.66 C77.5 185.11 77.75 184.57 78 184 C96.25 200.54 106.84 226.82 109 251 C109.18 255.02 109.21 258.98 109 263 C109.74 263.27 110.48 263.53 111.24 263.81 C119.36 267.31 126.89 274.73 133 281 C133 281.66 133 282.32 133 283 C133.99 283.33 134.98 283.66 136 284 C137.75 286.33 137.75 286.33 139.56 289.25 C140.16 290.2 140.76 291.16 141.38 292.14 C144.73 298.06 146.26 303.42 145.75 310.24 C144.81 318.92 144.81 318.92 148.01 326.6 C150.6 328.53 150.6 328.53 153.38 330.21 C160.1 334.81 163.65 344.15 165.12 351.94 C168.01 370.63 167.27 389.72 157 406 C161.3 411.3 165.62 416.58 170.06 421.76 C174.16 426.56 178.13 431.41 181.94 436.44 C185.42 441.03 189.04 445.46 192.81 449.81 C215.77 476.37 240.58 506.77 238 544 C236.34 555.97 232.31 567.04 222.83 574.89 C221 576 221 576 218 576 C219.3 573.14 220.73 571.04 222.88 568.75 C231.2 559.17 233.61 547.02 233.28 534.57 C231.05 506.29 214.03 482.78 196.18 461.94 C192.84 458.04 189.65 454.05 186.5 450 C182.43 444.76 178.22 439.66 173.91 434.61 C171.22 431.45 168.58 428.26 166 425 C158.32 415.34 150.27 406.08 141.85 397.07 C139.28 394.32 136.79 391.51 134.31 388.69 C126.95 380.53 115.81 368.59 104.1 367.89 C103.05 367.89 103.05 367.89 101.99 367.9 C100.85 367.91 100.85 367.91 99.69 367.91 C98.91 367.92 98.12 367.93 97.31 367.94 C96.12 367.94 96.12 367.94 94.9 367.95 C92.93 367.96 90.97 367.98 89 368 C89.33 368.61 89.66 369.23 90 369.86 C91 372 91 372 91 374.25 C86.8 385.81 74.12 395.34 65.06 403.19 C60.87 406.87 56.87 410.74 52.82 414.57 C49.86 417.37 46.9 420.12 43.71 422.68 C41.2 424.83 39.49 426.74 37.69 429.5 C37.2 430.23 36.71 430.96 36.2 431.72 C34.87 434.26 34.23 436.14 34 439 C36.12 445.66 39.98 450.33 45 455 C45 455.66 45 456.32 45 457 C45.99 457.33 46.98 457.66 48 458 C48 458.66 48 459.32 48 460 C48.8 460.32 48.8 460.32 49.62 460.65 C52.87 462.49 55.38 465 58.06 467.56 C63.84 472.98 69.78 478.09 76 483 C76.65 483.51 77.29 484.03 77.96 484.55 C86.15 491.05 94.41 497.36 103 503.31 C120.06 515.17 120.06 515.17 121.75 520.25 C121.83 520.83 121.91 521.4 122 522 C119.36 520.73 116.95 519.36 114.56 517.67 C113.9 517.21 113.24 516.74 112.57 516.27 C111.51 515.52 111.51 515.52 110.44 514.75 C109.7 514.23 108.97 513.71 108.21 513.17 C101.47 508.38 94.81 503.47 88.16 498.55 C87.4 497.98 86.64 497.42 85.85 496.84 C85.18 496.34 84.51 495.84 83.81 495.32 C82.24 494.17 80.62 493.08 79 492 C79.59 493.11 80.18 494.22 80.79 495.37 C81.59 496.87 82.39 498.37 83.19 499.88 C83.6 500.66 84.02 501.44 84.45 502.25 C86.54 506.2 88.58 510.15 90.5 514.19 C92.94 519.17 95.97 523.75 99.05 528.36 C102 532.8 102 532.8 102 535 C87.96 529.11 79.07 504.13 73 491 C72.29 489.16 72.29 489.16 71.57 487.29 C69.86 483.7 68.42 482.28 65.25 479.94 C57.72 474.1 50.88 467.58 44 461 C42.61 459.67 42.61 459.67 41.18 458.31 C35.03 452.31 31.28 447.41 29 439 C27.65 438.92 27.65 438.92 26.28 438.84 C11.32 437.48 -0.96 431.19 -12 421 C-12.89 420.19 -13.78 419.38 -14.7 418.54 C-21.89 411.69 -27.53 404.24 -33 396 C-33.72 394.94 -34.45 393.88 -35.19 392.78 C-39.85 385.63 -42.99 378.45 -45.77 370.43 C-46.71 367.8 -47.72 365.47 -49 363 C-50.92 367.12 -52.84 371.25 -54.75 375.38 C-55.29 376.53 -55.83 377.69 -56.38 378.88 C-59.15 384.86 -61.81 390.82 -64.09 397 C-65.69 400.51 -67.72 402.06 -71 404 C-76.9 406.17 -81.93 406.55 -87.79 404.16 C-96.88 399.41 -102.27 392.26 -108 384 C-108.55 385.25 -108.55 385.25 -109.1 386.53 C-113.69 396.8 -117.9 406.2 -128 412 C-128.66 412 -129.32 412 -130 412 C-130.33 411.34 -130.66 410.68 -131 410 C-131.99 410.33 -132.98 410.66 -134 411 C-133.33 411.82 -133.33 411.82 -132.64 412.66 C-114.84 434.6 -99.81 457.87 -92.69 485.51 C-92.24 487.92 -92.24 487.92 -91 489 C-89.08 488.76 -87.16 488.46 -85.25 488.12 C-64.84 484.87 -43.41 484.55 -23 488 C-23.16 487.5 -23.32 487 -23.48 486.49 C-24.19 483.07 -24.22 479.67 -24.28 476.19 C-24.31 475.05 -24.31 475.05 -24.34 473.88 C-24.4 471.44 -24.45 469 -24.5 466.56 C-24.73 456.01 -25.03 445.52 -26 435 C-24.68 435 -23.36 435 -22 435 C-21.22 439.2 -20.82 443.25 -20.68 447.52 C-20.64 448.76 -20.6 450 -20.56 451.28 C-20.52 452.59 -20.48 453.9 -20.44 455.25 C-20.39 456.6 -20.35 457.95 -20.31 459.3 C-20 469.2 -19.88 479.09 -20 489 C-19.04 489.13 -19.04 489.13 -18.05 489.26 C-2.26 491.72 10.58 498.26 21.14 510.36 C22.97 512.96 24.25 515.6 25.59 518.47 C27.85 523.19 29.49 526.41 34.64 528.42 C38.08 529.12 41.55 529.46 45.05 529.77 C60.2 531.54 73.92 541.06 84 552 C89.58 559.1 94.49 567.33 93.69 576.62 C93.46 577.41 93.23 578.19 93 579 C92.01 579 91.02 579 90 579 C89.85 578.25 89.71 577.5 89.55 576.73 C86.59 563.18 79.77 553.5 68.59 545.21 C58.06 538.52 45.94 535.2 34 532 C34.42 533.1 34.84 534.19 35.28 535.32 C35.83 536.78 36.38 538.23 36.94 539.69 C37.22 540.41 37.49 541.13 37.78 541.87 C41.69 552.2 42.44 561.64 38 572 C35.48 576.45 33.36 579.4 28.62 581.5 C27.76 581.66 26.89 581.83 26 582 C26.95 579.88 27.76 578.23 29.44 576.6 C34.32 571.61 35.31 565.45 35.5 558.69 C34.87 540.56 24.39 521.01 11.61 508.31 C-9.25 489.81 -40.25 490.36 -66.56 490.75 C-68.95 490.77 -71.35 490.79 -73.74 490.8 C-79.49 490.85 -85.25 490.91 -91 491 C-89.47 497.81 -87.91 503.9 -84.5 510 C-78.53 521.32 -77.54 531.44 -78 544 C-78.99 544.33 -79.98 544.66 -81 545 C-81.03 544.15 -81.05 543.3 -81.08 542.43 C-81.53 533.02 -82.72 523.55 -87 515 C-87.05 516.28 -87.1 517.56 -87.15 518.88 C-88.21 544.39 -88.21 544.39 -92 555 C-92.66 555 -93.32 555 -94 555 C-93.93 554.15 -93.86 553.31 -93.79 552.44 C-92.29 533.02 -91.31 513.05 -96 494 C-96.2 493.17 -96.41 492.33 -96.62 491.47 C-99.64 479.46 -103.54 468.12 -109 457 C-109.3 456.38 -109.59 455.77 -109.9 455.14 C-116.35 441.86 -124.67 429.04 -134.89 418.35 C-136 417 -136 417 -136 415 C-136.99 414.67 -137.98 414.34 -139 414 C-140.62 412.14 -140.62 412.14 -142.44 409.69 C-146.31 404.68 -150.57 400.3 -155.14 395.94 C-156.46 394.66 -157.73 393.33 -159 392 C-159 391.34 -159 390.68 -159 390 C-155.21 390.56 -153.58 392.12 -151 394.88 C-148.98 397.01 -147.13 398.91 -144.75 400.63 C-144.17 401.08 -143.6 401.54 -143 402 C-143 402.66 -143 403.32 -143 404 C-142.34 404 -141.68 404 -141 404 C-139.29 405.63 -137.62 407.29 -136 409 C-146.37 385.11 -146.37 385.11 -160 363 C-160.72 361.99 -161.44 360.98 -162.19 359.95 C-166.46 354.11 -170.97 348.63 -175.88 343.32 C-177.86 341.15 -179.74 338.94 -181.62 336.69 C-187.19 330.34 -192.81 326.56 -201.43 325.78 C-217.63 325.22 -231.98 331.48 -244.12 341.88 C-251.61 348.92 -257.32 357.5 -263 366 C-263.51 366.76 -264.02 367.53 -264.55 368.31 C-272.8 380.78 -280.12 393.74 -287 407 C-287.39 407.76 -287.79 408.51 -288.19 409.29 C-293.69 420.05 -298.19 431.21 -302.62 442.44 C-303.02 443.45 -303.02 443.45 -303.43 444.47 C-306.93 453.34 -310.18 462.28 -313.3 471.29 C-315.37 477.26 -317.53 483.19 -319.76 489.09 C-320.08 489.93 -320.4 490.78 -320.72 491.64 C-321.38 493.37 -322.03 495.1 -322.68 496.83 C-333.51 525.55 -343.19 554.6 -352 584 C-353.32 584 -354.64 584 -356 584 C-355.42 578.19 -354.27 572.95 -352.52 567.39 C-352.28 566.58 -352.03 565.78 -351.77 564.95 C-351.24 563.24 -350.71 561.54 -350.18 559.83 C-349.39 557.3 -348.61 554.77 -347.83 552.23 C-341.2 530.77 -333.39 509.72 -325.69 488.62 C-324.33 484.9 -322.97 481.17 -321.61 477.44 C-320.77 475.15 -319.94 472.85 -319.1 470.55 C-318.72 469.52 -318.34 468.48 -317.95 467.41 C-317.62 466.51 -317.29 465.61 -316.95 464.67 C-315.93 461.8 -314.96 458.9 -314 456 C-314.84 455.97 -315.67 455.95 -316.54 455.92 C-336.59 454.94 -352.51 448.8 -366.59 434.37 C-373.17 427.03 -375.3 419.18 -375.14 409.54 C-374.54 398.94 -369.56 389.28 -362.06 381.94 C-358.88 378.7 -358.88 378.7 -357.72 374.5 C-357.96 372.69 -358.24 370.9 -358.57 369.11 C-360.53 354.85 -354.52 340.66 -347.33 328.73 C-346.89 328.16 -346.45 327.59 -346 327 C-345.34 327 -344.68 327 -344 327 C-343.89 326.43 -343.79 325.85 -343.68 325.26 C-341.3 317.36 -333.68 311.8 -327.45 306.95 C-325.04 305.13 -325.04 305.13 -323.36 303.24 C-322 302 -322 302 -319 302 C-318.67 301.01 -318.34 300.02 -318 299 C-315.93 297.38 -313.89 295.93 -311.69 294.5 C-311.04 294.07 -310.38 293.64 -309.71 293.19 C-303.27 289.02 -296.57 285.35 -289.79 281.76 C-287.51 280.54 -285.25 279.28 -283 278 C-281.99 277.43 -280.97 276.85 -279.93 276.26 C-276.88 272.69 -277.55 269.21 -277.81 264.69 C-277.86 262.88 -277.91 261.07 -277.94 259.26 C-277.96 258.36 -277.98 257.47 -278 256.55 C-278.02 238.13 -271.99 220.65 -259.28 207.28 C-258.53 206.53 -257.77 205.78 -257 205 C-256.36 204.35 -255.72 203.7 -255.07 203.03 C-249.1 197.37 -241.78 193.59 -234 191 C-230.11 183.32 -229.33 174.15 -228.12 165.75 C-222.55 127.4 -210.25 75.69 -179 49 C-178.34 49 -177.68 49 -177 49 C-176.66 48.13 -176.66 48.13 -176.31 47.25 C-174.6 44.32 -172.77 43.02 -170 41 C-169.33 40.48 -168.66 39.97 -167.98 39.44 C-147.79 24.42 -123.4 19.91 -98.75 19.75 C-97.66 19.74 -96.57 19.73 -95.45 19.72 C-88.43 19.75 -81.86 20.5 -75 22 C-74.67 23.32 -74.34 24.64 -74 26 C-67.36 27.75 -63.82 25.94 -58 22.62 C-57.17 22.17 -56.34 21.71 -55.49 21.25 C-52.98 19.85 -50.49 18.43 -48 17 C-47.28 16.58 -46.55 16.17 -45.8 15.74 C-38.37 11.42 -31.08 6.89 -24 2 C-23.01 2.66 -22.02 3.32 -21 4 C-25.27 14.28 -41.61 19.98 -51 25 C-52.09 25.59 -53.18 26.19 -54.3 26.8 C-57 28 -57 28 -61 28 C-61 28.66 -61 29.32 -61 30 C-53.98 29.71 -49.13 26.5 -43.25 22.88 C-42.26 22.28 -41.28 21.68 -40.26 21.07 C-34.72 17.71 -29.24 14.27 -23.79 10.77 C-19.9 8.3 -16 5.88 -12.06 3.5 C-11.33 3.04 -10.59 2.58 -9.83 2.11 C-9.14 1.69 -8.44 1.27 -7.72 0.84 C-7.1 0.46 -6.48 0.08 -5.84 -0.31 C-3.53 -1.18 -2.29 -0.8 0 0 Z M-170 47 C-170.81 47.63 -171.63 48.25 -172.47 48.89 C-199.44 71.33 -217.36 117.04 -221 151 C-218.91 148.37 -217.41 145.94 -216.16 142.82 C-215.83 142.01 -215.49 141.19 -215.15 140.35 C-214.61 139.03 -214.61 139.03 -214.06 137.69 C-195.8 94.13 -168.88 51.74 -123.71 33.01 C-115.38 29.92 -106.65 27.95 -98 26 C-98 25.67 -98 25.34 -98 25 C-123.07 23.9 -150.8 30.06 -170 47 Z M-35 60 C-34.57 61.89 -34.57 61.89 -34.12 63.81 C-29.9 82.95 -28.5 99.95 -39.14 117.38 C-40.79 119.7 -42.39 121.48 -44.5 123.38 C-45.32 124.24 -46.15 125.11 -47 126 C-46.68 129.1 -46.68 129.1 -46 132 C-48.72 135.23 -52.01 137.57 -55.44 140 C-58.27 142.02 -61.02 144.02 -63.68 146.26 C-66 148 -66 148 -68.75 147.81 C-71 147 -71 147 -72 146 C-72.29 142.28 -72.15 141.22 -70 138 C-73.63 138.33 -77.26 138.66 -81 139 C-81 138.34 -81 137.68 -81 137 C-80.37 136.86 -79.74 136.73 -79.09 136.59 C-64.42 133.06 -51.54 126.05 -42.62 113.62 C-41.71 112.1 -40.84 110.56 -40 109 C-39.59 108.26 -39.18 107.52 -38.75 106.76 C-35.79 100.31 -35.62 93.92 -35.56 86.94 C-35.55 86.02 -35.54 85.09 -35.53 84.14 C-35.61 77.67 -36.83 72.09 -39 66 C-39.33 66 -39.66 66 -40 66 C-40.15 67.42 -40.15 67.42 -40.3 68.86 C-42.86 90.86 -52.26 112 -69.12 126.81 C-77.08 132.94 -86.33 137.96 -96.15 140.17 C-100.14 141.32 -101.86 142.51 -104.07 146.03 C-104.93 147.65 -105.76 149.29 -106.56 150.94 C-107.48 152.66 -108.41 154.39 -109.34 156.11 C-109.78 156.94 -110.23 157.78 -110.69 158.65 C-115.41 167.13 -122.1 176.55 -131 181 C-130.67 182.98 -130.34 184.96 -130 187 C-130.66 186.59 -131.32 186.18 -132 185.75 C-132.99 185.17 -133.98 184.59 -135 184 C-135.57 183.65 -136.14 183.3 -136.73 182.95 C-142.8 179.52 -149.34 178.09 -156.27 179.44 C-163.69 181.92 -167.67 185.94 -171.25 192.75 C-176.72 204.49 -178.04 217.5 -174 230 C-170.44 238.61 -165.11 246 -156.58 250.19 C-148.78 252.64 -141.33 251.33 -134.16 247.78 C-131.54 246.83 -130.56 246.93 -128 248 C-120.07 253.31 -115.77 260.18 -113.39 269.33 C-111.69 280.86 -112.94 291.14 -117 302 C-117.6 303.71 -118.2 305.43 -118.79 307.14 C-120.28 311.45 -121.78 315.74 -123.31 320.03 C-125 324.84 -125.79 328.91 -125 334 C-122.98 336.76 -122.98 336.76 -121.37 338.37 C-114.3 346.78 -113.66 360.38 -114.06 370.81 C-114.84 379.19 -117.36 387.05 -120 395 C-120.38 396.15 -120.77 397.31 -121.16 398.5 C-121.44 399.32 -121.71 400.15 -122 401 C-113.95 393.81 -111.48 380.64 -110.83 370.32 C-110.05 352.43 -110.05 352.43 -115.27 335.56 C-117.25 331.66 -118.26 329.25 -117.35 324.86 C-116.27 321.85 -115.1 318.91 -113.83 315.97 C-112.35 312.45 -111.08 308.85 -109.81 305.25 C-109.56 304.52 -109.3 303.8 -109.04 303.05 C-103.61 287.42 -103.27 272.91 -110.6 257.67 C-112.01 255.07 -113.46 252.52 -115 250 C-109.82 251.89 -108.61 256 -106.39 260.73 C-99.92 275.89 -100.31 291.61 -106 307 C-107.52 310.74 -109.09 314.45 -110.8 318.1 C-112.91 322.8 -113.27 325.84 -112 331 C-111.26 332.68 -110.51 334.36 -109.77 336.04 C-104.55 349.39 -106.17 367.06 -108 381 C-107.01 381.33 -106.02 381.66 -105 382 C-103.71 383.49 -102.49 385.04 -101.31 386.62 C-94.14 395.84 -94.14 395.84 -84 401 C-78.37 401.45 -74.85 401.2 -70 398 C-67.14 395.22 -66.09 393.74 -65.6 389.76 C-64.96 385.73 -63.59 382.67 -61.69 379.12 C-60.95 377.71 -60.22 376.3 -59.5 374.88 C-59.1 374.11 -58.7 373.33 -58.28 372.54 C-55.85 367.73 -53.56 362.86 -51.25 358 C-45.78 346.54 -40.14 335.18 -34.43 323.84 C-31.94 318.9 -29.47 313.95 -27 309 C-37.36 308.19 -47.61 307.88 -58 308 C-58 307.34 -58 306.68 -58 306 C-56.85 306 -56.85 306 -55.67 306.01 C-27.55 306.07 -0.44 304.67 27 298 C27.86 294.07 27.94 290.77 27.69 286.75 C27.69 281.14 28.33 277.64 31.77 273.18 C36.64 268.41 42.34 264.75 48 261 C58.78 253.67 67.99 246.29 71 233 C74.14 204.96 65.77 174.54 60.41 147.11 C60.02 145.13 59.64 143.14 59.26 141.16 C58.63 137.91 57.98 134.67 57.31 131.44 C57.13 130.53 56.96 129.62 56.77 128.68 C55.74 123.86 54.79 120.4 51 117 C44.05 112.81 36.35 110.09 28.81 107.19 C4.13 97.47 -16.51 84.82 -32 62.81 C-32.99 61.42 -32.99 61.42 -34 60 C-34.33 60 -34.66 60 -35 60 Z M74 238 C71.11 246.5 73.24 252.12 76.38 260.12 C76.71 260.97 77.04 261.83 77.38 262.71 C78.44 265.44 79.5 268.16 80.56 270.88 C81.28 272.73 82 274.58 82.72 276.43 C84.47 280.96 86.23 285.48 88 290 C89.03 286.38 88.79 284.31 87.78 280.66 C87.49 279.61 87.2 278.55 86.9 277.47 C86.58 276.34 86.27 275.22 85.94 274.06 C85.62 272.91 85.3 271.76 84.97 270.58 C84.31 268.21 83.65 265.84 82.98 263.48 C82.06 260.21 81.16 256.93 80.27 253.65 C79.74 251.74 79.21 249.84 78.69 247.94 C78.45 247.05 78.2 246.15 77.95 245.24 C77.36 243.14 76.69 241.07 76 239 C75.34 238.67 74.68 238.34 74 238 Z M68 251 C66.29 252.96 64.62 254.96 63 257 C63.44 258.05 63.88 259.1 64.33 260.18 C65.97 264.1 67.61 268.02 69.24 271.94 C69.95 273.63 70.66 275.32 71.36 277.02 C72.39 279.46 73.41 281.9 74.43 284.34 C74.74 285.09 75.05 285.84 75.37 286.6 C81 300.11 81 300.11 81 304 C80.34 304 79.68 304 79 304 C78.7 303.24 78.41 302.48 78.1 301.7 C72.52 287.42 66.92 273.15 61 259 C57.56 260.31 54.86 261.67 52 264 C52.62 267.67 53.64 270.83 55.11 274.25 C55.53 275.24 55.96 276.24 56.39 277.27 C56.84 278.31 57.29 279.36 57.75 280.44 C61.46 289.21 64.98 297.97 68 307 C65 306 65 306 63.74 303.51 C63.34 302.42 62.93 301.32 62.51 300.2 C62.05 298.99 61.59 297.79 61.12 296.54 C60.64 295.26 60.16 293.97 59.69 292.69 C56.24 283.5 52.53 274.71 48 266 C44.7 267.98 41.4 269.96 38 272 C38.8 275.99 39.71 279.07 41.21 282.78 C41.65 283.87 42.09 284.96 42.54 286.08 C43 287.21 43.46 288.34 43.94 289.5 C44.39 290.63 44.85 291.76 45.32 292.92 C46.17 295.02 47.02 297.12 47.87 299.22 C48.92 301.81 49.96 304.4 51 307 C48 306 48 306 46.56 303.22 C46.07 302.01 45.58 300.8 45.08 299.56 C44.82 298.92 44.56 298.27 44.29 297.61 C43.45 295.56 42.63 293.5 41.81 291.44 C41.25 290.04 40.68 288.65 40.12 287.26 C38.73 283.84 37.36 280.42 36 277 C35.01 277 34.02 277 33 277 C27.84 287.32 31.89 297.47 35 308 C34.01 308 33.02 308 32 308 C31.5 305.03 31.5 305.03 31 302 C24.93 302.54 19.12 303.59 13.15 304.86 C8.48 305.76 3.93 306.14 -0.83 306.32 C-2.63 306.4 -2.63 306.4 -4.47 306.48 C-6.87 306.58 -9.28 306.63 -11.68 306.65 C-17.93 306.78 -17.93 306.78 -23.05 309.94 C-24.6 312.24 -25.83 314.49 -27 317 C-27.81 318.44 -28.62 319.88 -29.44 321.31 C-30.61 323.5 -31.05 324.56 -30.79 327.04 C-29.86 329.34 -28.84 330.4 -27 332.06 C-12.32 346.14 -1.31 364.24 10 381 C12.93 379.31 15.59 377.66 18.05 375.33 C18.59 374.83 19.12 374.33 19.67 373.81 C20.21 373.3 20.75 372.78 21.31 372.25 C22.39 371.23 23.47 370.22 24.55 369.2 C25.11 368.68 25.66 368.16 26.24 367.62 C28.07 365.93 29.94 364.31 31.83 362.68 C36.55 358.58 41 354.22 45.44 349.81 C46.25 349.02 47.07 348.23 47.9 347.41 C48.68 346.64 49.45 345.87 50.25 345.08 C50.94 344.39 51.64 343.7 52.36 343 C54.09 340.89 54.77 339.7 55 337 C53.85 334.45 52.67 332.2 51.25 329.81 C50.89 329.17 50.53 328.53 50.16 327.87 C47.95 323.94 47.95 323.94 44 322 C40.81 322.55 37.69 323.24 34.54 323.97 C31.07 324.74 28.38 325.31 25 324 C36.17 320.74 47.35 318.95 58.89 317.48 C75.34 315.65 75.34 315.65 88.31 306.33 C90.75 302.5 91.44 299.48 91 295 C89.68 296.32 88.36 297.64 87 299 C86.77 298.18 86.77 298.18 86.54 297.34 C84.24 289.38 81.38 281.64 78.5 273.88 C78.01 272.54 77.52 271.21 77.03 269.88 C74.7 263.58 72.37 257.28 70 251 C69.34 251 68.68 251 68 251 Z M89 291 C90 293 90 293 90 293 Z M151 335 C151.41 336.2 151.83 337.39 152.25 338.62 C155.56 348.61 158.39 358.59 160 369 C160.33 369 160.66 369 161 369 C161.56 357.49 160.79 345.16 153 336 C152.34 335.67 151.68 335.34 151 335 Z M57.01 341.98 C55.86 343.29 55.86 343.29 54.69 344.62 C53.48 345.99 53.48 345.99 52.26 347.38 C50.5 349.42 48.77 351.48 47.06 353.56 C45 356 45 356 43 357 C43 357.66 43 358.32 43 359 C42.42 359.25 41.85 359.49 41.25 359.75 C38.64 361.2 36.99 362.89 34.94 365.06 C29.96 370.16 24.56 374.56 19 379 C16.99 380.66 15 382.33 13 384 C16.1 389.83 19.86 394.87 24 400 C27.66 397.94 30.71 395.64 33.81 392.81 C35 391.74 35 391.74 36.21 390.64 C37.09 389.83 37.09 389.83 38 389 C38 389.99 38 390.98 38 392 C36.35 393.36 34.69 394.69 33 396 C33 396.66 33 397.32 33 398 C32.38 398.25 31.76 398.5 31.12 398.75 C28.65 400.21 28.05 401.38 27 404 C27.66 404.99 28.32 405.98 29 407 C32.31 405.59 34.11 403.96 36.38 401.19 C39.34 397.67 42.38 394.82 46 392 C43.54 396.57 40.35 400.07 36.81 403.81 C36.25 404.41 35.69 405.01 35.12 405.62 C33.75 407.09 32.38 408.54 31 410 C33.31 413.96 35.62 417.92 38 422 C48.57 416.72 57.07 406.09 65.35 397.78 C67.39 395.74 69.43 393.7 71.47 391.66 C72.78 390.35 74.09 389.04 75.4 387.73 C76 387.13 76.61 386.53 77.23 385.91 C81.96 381.24 81.96 381.24 86 376 C85.88 372.67 84.15 370.52 82.19 367.91 C81.61 367.13 81.04 366.35 80.44 365.55 C79.51 364.32 79.51 364.32 78.56 363.06 C77.62 361.8 77.62 361.8 76.66 360.51 C75.38 358.81 74.1 357.11 72.82 355.42 C71.18 353.24 69.55 351.05 67.92 348.86 C67.03 347.68 66.14 346.49 65.25 345.31 C64.08 343.76 64.08 343.76 62.89 342.18 C62.27 341.46 61.64 340.74 61 340 C58.77 339.76 58.77 339.76 57.01 341.98 Z " fill="#000000" transform="translate(404,8)"/>
<path d="M0 0 C0.66 0 1.32 0 2 0 C1.33 3.23 0.16 5.9 -1.34 8.84 C-9.35 24.91 -15.85 41.12 -22 58 C-22.75 60.02 -23.49 62.04 -24.24 64.06 C-25.84 68.37 -27.42 72.68 -29 77 C-30.32 77 -31.64 77 -33 77 C-32.47 70.76 -30.99 65.56 -28.69 59.75 C-28.34 58.86 -27.99 57.97 -27.63 57.05 C-8.48 8.48 -8.48 8.48 0 0 Z " fill="#000000" transform="translate(542,74)"/>
<path d="M0 0 C2.31 0.19 2.31 0.19 4 1 C2.52 4.39 0.59 6.69 -1.94 9.38 C-7.12 15.04 -11.83 20.99 -16.51 27.07 C-18.04 29.05 -19.59 31.03 -21.13 33.01 C-33.03 48.29 -45.58 64.46 -54 82 C-55.65 81.67 -57.3 81.34 -59 81 C-58.44 76.32 -56.37 72.81 -53.94 68.88 C-53.53 68.21 -53.13 67.55 -52.71 66.86 C-47.22 57.98 -40.89 49.78 -34.42 41.61 C-31.29 37.67 -28.23 33.68 -25.2 29.67 C-20.45 23.39 -15.62 17.23 -10.5 11.25 C-10.02 10.69 -9.54 10.13 -9.05 9.55 C-6.16 6.23 -3.25 2.97 0 0 Z " fill="#000000" transform="translate(570,83)"/>
<path d="M0 0 C0 1.32 0 2.64 0 4 C-2.07 5.6 -4 6.88 -6.25 8.19 C-7.55 8.98 -8.85 9.78 -10.14 10.58 C-10.79 10.99 -11.45 11.39 -12.12 11.8 C-16.97 14.89 -21.46 18.48 -26 22 C-26.82 22.63 -26.82 22.63 -27.66 23.27 C-41.92 34.25 -56.26 45.78 -68.7 58.83 C-69.84 59.9 -69.84 59.9 -71 61 C-73.31 60.81 -73.31 60.81 -75 60 C-74.74 54.47 -71.33 51.8 -67.56 48.19 C-66.61 47.26 -66.61 47.26 -65.64 46.31 C-60.69 41.52 -55.51 37.14 -50 33 C-48.58 31.9 -47.17 30.79 -45.75 29.69 C-45.01 29.12 -44.27 28.55 -43.51 27.96 C-41.65 26.51 -39.8 25.04 -37.96 23.57 C-31.21 18.2 -24.36 13 -17.38 7.94 C-16.6 7.38 -15.83 6.82 -15.04 6.24 C-14.31 5.72 -13.59 5.19 -12.84 4.65 C-12.19 4.19 -11.55 3.72 -10.88 3.25 C-7.1 0.74 -4.59 -0.26 0 0 Z " fill="#000000" transform="translate(591,109)"/>
<path d="M0 0 C1.32 0.33 2.64 0.66 4 1 C4.05 10.62 4.08 20.25 4.1 29.87 C4.11 34.34 4.13 38.81 4.15 43.28 C4.17 47.6 4.18 51.91 4.19 56.23 C4.19 57.87 4.2 59.52 4.21 61.16 C4.26 69.33 4.29 77.07 2 85 C0.06 85.56 0.06 85.56 -2 86 C-2.33 85.67 -2.66 85.34 -3 85 C-2.91 83.21 -2.75 81.43 -2.57 79.65 C-2.01 73.62 -1.89 67.68 -1.94 61.63 C-1.94 60.59 -1.95 59.54 -1.95 58.47 C-1.97 54.07 -1.99 49.68 -2.02 45.29 C-2.09 33.86 -2.08 22.45 -1.56 11.03 C-1.52 10.14 -1.48 9.25 -1.44 8.34 C-1.13 2.26 -1.13 2.26 0 0 Z " fill="#000000" transform="translate(102,112)"/>
<path d="M0 0 C7.38 0.12 17.75 3.75 23 9 C23.25 11.88 23.25 11.88 23 15 C21.48 16.7 21.48 16.7 20 18 C11.82 15.6 4.53 11.91 -3 8 C-2.25 2.25 -2.25 2.25 0 0 Z " fill="#000000" transform="translate(427,124)"/>
<path d="M0 0 C1.32 0 2.64 0 4 0 C31.49 58.13 31.49 58.13 31 83 C28.53 83.5 28.53 83.5 26 84 C25.73 82.77 25.46 81.55 25.19 80.29 C20.27 58.43 13.02 37.5 4.95 16.64 C4.69 15.97 4.44 15.31 4.18 14.63 C3.49 12.82 2.79 11.02 2.09 9.22 C1.05 6.14 0.43 3.22 0 0 Z " fill="#000000" transform="translate(67,125)"/>
<path d="M0 0 C0.66 0 1.32 0 2 0 C2.23 0.53 2.46 1.07 2.7 1.61 C11.82 22.55 22.39 42.44 38.26 59.12 C41.2 62.3 42 63.55 42 68 C38.75 67.7 37.29 67.27 34.89 64.99 C30.22 58.98 30.22 58.98 28 56 C27.39 55.18 27.39 55.18 26.76 54.35 C14.65 38.16 4 20.79 -1 1 C-0.67 0.67 -0.34 0.34 0 0 Z " fill="#000000" transform="translate(49,148)"/>
<path d="M0 0 C-1.32 2.76 -2.8 5.27 -4.5 7.81 C-8.14 13.61 -9.6 19.14 -9 26 C-7.04 33.06 -3.94 36.54 1.56 41.25 C2.92 42.44 4.28 43.63 5.63 44.83 C6.23 45.34 6.83 45.86 7.44 46.39 C10.34 49.38 11.3 52.26 11.38 56.38 C11.23 62.06 8.83 65.12 4.94 69.12 C-1.48 73.22 -8.37 75.68 -16 75 C-16.33 74.01 -16.66 73.02 -17 72 C-16.23 71.84 -15.45 71.68 -14.66 71.52 C-6.82 69.77 -0.31 67.82 5.06 61.62 C6.36 57.98 6 55.72 5 52 C2.37 47.8 -1.38 44.89 -5.1 41.7 C-9.79 37.51 -12.63 33.29 -13.34 26.98 C-13.47 16.29 -10.71 9.93 -4.46 1.43 C-3 0 -3 0 0 0 Z " fill="#000000" transform="translate(418,152)"/>
<path d="M0 0 C3.12 0.44 3.12 0.44 5.44 2.75 C8.77 8.06 8.65 13.33 8.12 19.44 C6.95 21.99 6.06 23.5 4.12 25.44 C0.88 25.81 0.88 25.81 -2.88 25.44 C-6.57 22.47 -8.56 20.18 -9.11 15.39 C-9.3 9.84 -8.54 6.86 -4.88 2.44 C-2.88 0.44 -2.88 0.44 0 0 Z " fill="#000000" transform="translate(441.875,158.5625)"/>
<path d="M0 0 C3.62 0.44 3.62 0.44 5.94 2.31 C9.12 8.2 10.45 13.85 8.5 20.38 C7.16 23.71 6.04 25.93 2.62 27.44 C0.19 28 0.19 28 -2.38 27.44 C-7.34 22.36 -8.67 18.66 -8.6 11.79 C-8.06 6.15 -6.07 0.79 0 0 Z " fill="#000000" transform="translate(349.375,172.5625)"/>
<path d="M0 0 C0.99 0.33 1.98 0.66 3 1 C2.68 3.92 2.19 4.85 -0.12 6.75 C-1.03 7.35 -1.94 7.95 -2.88 8.56 C-22.89 22.65 -34.51 42.56 -38.81 66.43 C-39.84 72.59 -40.71 78.75 -41 85 C-42.32 85 -43.64 85 -45 85 C-42.67 55.02 -34.57 28.52 -11 8 C-3.75 2.15 -3.75 2.15 0 0 Z " fill="#000000" transform="translate(161,192)"/>
<path d="M0 0 C2.23 1.46 3.72 2.78 4.91 5.18 C4.98 6.72 5 8.26 4.98 9.8 C4.97 10.62 4.96 11.44 4.95 12.28 C4.94 12.9 4.93 13.53 4.91 14.18 C6.89 15.17 8.87 16.16 10.91 17.18 C10.91 17.84 10.91 18.5 10.91 19.18 C6.36 18.74 3.34 18.33 -0.09 15.18 C0.14 13.92 0.37 12.66 0.6 11.36 C1.08 8.11 1.08 8.11 -0.34 5.24 C-4.23 2.88 -7.64 2.81 -12.09 3.18 C-17.9 5.07 -21.16 7.68 -24.09 13.18 C-24.42 14.17 -24.75 15.16 -25.09 16.18 C-25.75 16.18 -26.41 16.18 -27.09 16.18 C-27.59 10.86 -26.47 8.27 -23.09 4.18 C-16.49 -0.8 -8.07 -3.19 0 0 Z " fill="#000000" transform="translate(266.0859375,209.82421875)"/>
<path d="M0 0 C2.06 0.44 2.06 0.44 4 1 C4 2.32 4 3.64 4 5 C2.68 5.33 1.36 5.66 0 6 C-0.38 4.34 -0.71 2.68 -1 1 C-0.67 0.67 -0.34 0.34 0 0 Z " fill="#000000" transform="translate(457,209)"/>
<path d="M0 0 C1.65 0.33 3.3 0.66 5 1 C4.67 2.32 4.34 3.64 4 5 C2.35 4.67 0.7 4.34 -1 4 C-0.67 2.68 -0.34 1.36 0 0 Z " fill="#000000" transform="translate(330,231)"/>
<path d="M0 0 C0.66 0.33 1.32 0.66 2 1 C0.8 4.6 -0.69 5.39 -3.95 7.14 C-7.32 8.55 -10.35 8.81 -14 9 C-14.66 8.67 -15.32 8.34 -16 8 C-15.67 7.01 -15.34 6.02 -15 5 C-13.14 4.38 -13.14 4.38 -10.81 4 C-6.78 3.25 -3.66 1.87 0 0 Z " fill="#000000" transform="translate(269,244)"/>
<path d="M0 0 C0.99 0.33 1.98 0.66 3 1 C2.52 5.31 0.21 7.27 -3 10 C-15.85 17.99 -32.95 18.61 -47.45 15.7 C-51.97 14.46 -55.83 12.84 -58.44 8.75 C-58.72 7.88 -58.72 7.88 -59 7 C-55.49 7 -53.74 8.2 -50.82 10.03 C-41.38 15.08 -25.93 12.37 -16 9.91 C-9.29 7.87 -4.66 5.24 0 0 Z " fill="#000000" transform="translate(431,247)"/>
<path d="M0 0 C-0.23 1.84 -0.23 1.84 -1 4 C-2.87 5.34 -2.87 5.34 -5.3 6.52 C-6.19 6.96 -7.08 7.4 -8 7.86 C-8.95 8.32 -9.9 8.78 -10.88 9.25 C-18.89 13.29 -25.96 17.43 -33 23 C-33.96 23.68 -34.91 24.37 -35.9 25.07 C-51.94 36.57 -65.52 51.06 -72 70 C-72.39 71.13 -72.78 72.27 -73.19 73.44 C-74.44 78.91 -75.21 84.45 -76 90 C-76.66 90 -77.32 90 -78 90 C-81.18 77.45 -74.73 63.69 -68.81 52.88 C-65.54 47.47 -61.63 42.97 -57.28 38.4 C-55.54 36.56 -53.93 34.74 -52.38 32.75 C-49.26 29.15 -45.9 25.76 -42 23 C-41.01 23 -40.02 23 -39 23 C-38.8 22.43 -38.59 21.85 -38.38 21.26 C-36.49 18.17 -33.89 16.66 -30.88 14.81 C-30.27 14.43 -29.66 14.05 -29.03 13.65 C-6.75 -0.18 -6.75 -0.18 0 0 Z " fill="#000000" transform="translate(110,278)"/>
<path d="M0 0 C0.99 0.33 1.98 0.66 3 1 C2.52 5.3 -0.04 7.04 -3 10 C-11.26 21.05 -15.44 31.13 -15 45 C-16.98 45.5 -16.98 45.5 -19 46 C-21.71 37.88 -18.9 29.71 -16 22 C-11.8 13.72 -6.45 6.64 0 0 Z " fill="#000000" transform="translate(40,377)"/>
<path d="M0 0 C0.99 0.5 0.99 0.5 2 1 C0.09 15.52 -5.34 28.04 -16.74 37.52 C-23.3 41.82 -30.67 42.6 -38.31 41.57 C-49.46 39.22 -57.66 33.1 -65 24.58 C-66 23 -66 23 -66 20 C-64.31 20.12 -64.31 20.12 -62 21 C-60.89 22.41 -59.78 23.82 -58.68 25.24 C-52.97 31.22 -44.85 35.52 -36.63 36.34 C-29.49 36.42 -23.83 36.39 -18 32 C-17.41 31.56 -16.82 31.12 -16.21 30.67 C-8.34 23.82 -4.05 12.67 -1.51 2.79 C-1 1 -1 1 0 0 Z " fill="#000000" transform="translate(354,390)"/>
<path d="M0 0 C-0.14 2.25 -0.14 2.25 -1 5 C-8.26 11.13 -17.68 15.34 -27 17 C-29.37 16.59 -29.37 16.59 -31 16 C-31 15.34 -31 14.68 -31 14 C-29.81 13.49 -28.61 12.98 -27.38 12.46 C-16.05 7.66 -16.05 7.66 -5.73 1.03 C-4 0 -4 0 0 0 Z " fill="#000000" transform="translate(346,431)"/>
<path d="M0 0 C0.66 0.33 1.32 0.66 2 1 C2.01 1.89 2.03 2.79 2.04 3.71 C2.34 20.31 2.84 36.84 4.44 53.38 C4.56 54.65 4.68 55.93 4.81 57.25 C5.52 64.24 6.42 71.17 7.55 78.1 C8 81 8.35 83.9 8.69 86.81 C11.3 103.5 16.81 119.29 25 134 C25.48 134.97 25.96 135.93 26.45 136.93 C37.99 159.84 58.68 178.76 83 187 C87.34 188.17 91.52 188.69 96 189 C96.71 189.05 97.43 189.1 98.17 189.15 C120.19 190.43 143.91 186.81 165.11 180.8 C168.68 180.06 171.98 179.76 175.61 179.55 C182.71 179.1 189.49 177.97 196.44 176.5 C197.67 176.24 198.89 175.99 200.16 175.72 C215.92 172.3 231.34 167.64 246.72 162.84 C247.9 162.47 249.07 162.1 250.28 161.73 C251.33 161.39 252.39 161.06 253.47 160.72 C256 160 256 160 258 160 C257.69 155.77 257.38 151.54 257.06 147.31 C256.98 146.11 256.89 144.92 256.8 143.68 C256.71 142.52 256.62 141.37 256.54 140.18 C256.46 139.11 256.38 138.05 256.3 136.95 C256.05 134.04 256.05 134.04 255.47 131.35 C254.84 128.22 254.94 125.19 255 122 C255.66 122 256.32 122 257 122 C257.49 123.83 257.96 125.67 258.44 127.5 C258.84 129.03 258.84 129.03 259.25 130.59 C260.76 137.45 261.14 144.01 261.06 151 C261.06 151.77 261.05 152.55 261.05 153.35 C261.04 155.23 261.02 157.12 261 159 C262.98 158.01 264.96 157.02 267 156 C267.28 137.97 267.28 137.97 266 120 C266.99 120 267.98 120 269 120 C269.51 123.29 270.01 126.58 270.5 129.88 C270.64 130.79 270.79 131.71 270.93 132.66 C272.03 140.06 273.09 147.69 271 155 C272.98 154.01 274.96 153.02 277 152 C277.21 141.1 277.16 130.73 275 120 C275.99 120 276.98 120 278 120 C280.06 126.83 281.31 133.46 281.75 140.56 C281.79 141.25 281.84 141.94 281.88 142.65 C282.04 145.77 282 148.01 281 151 C283.67 150.28 283.67 150.28 286 148 C286.76 144.4 286.61 140.85 286.5 137.19 C286.48 135.64 286.48 135.64 286.46 134.06 C286.25 126.09 285.24 118.68 283 111 C284.32 111 285.64 111 287 111 C289.87 122.71 291.09 133.92 291 146 C292.65 145.34 294.3 144.68 296 144 C296.44 128.86 296.44 128.86 294 114 C293.66 112.34 293.32 110.67 293 109 C293.99 109 294.98 109 296 109 C298.3 114.58 299.6 119.57 300.19 125.56 C300.27 126.28 300.35 126.99 300.44 127.73 C300.92 132.18 301.08 136.53 301 141 C302.98 140.67 304.96 140.34 307 140 C306.43 143.32 305.56 144.83 303 147 C300.87 148 300.87 148 298.44 148.88 C293.11 150.92 288.05 153.35 282.94 155.88 C276.27 159.1 269.61 162.09 262.62 164.56 C261.95 164.8 261.28 165.04 260.59 165.29 C257.62 166.3 254.83 167.02 251.71 167.42 C246.57 168.22 241.89 170.01 237 171.75 C225.92 175.57 214.84 178.21 203.36 180.5 C200.42 181.12 197.53 181.89 194.62 182.69 C189.16 184.12 183.69 184.65 178.09 185.23 C173.47 185.73 169.34 186.54 165.05 188.32 C162.09 189.3 159.09 189.57 156 190 C152.88 190.61 149.79 191.3 146.69 192 C145.88 192.18 145.07 192.36 144.23 192.54 C140 193.43 140 193.43 136 195 C127.62 196.29 119.08 196.19 110.62 196.19 C108.44 196.19 106.26 196.21 104.07 196.22 C93.71 196.27 84.48 195.11 74.69 191.62 C73.54 191.23 72.39 190.83 71.2 190.41 C67.92 188.96 65.72 187.31 63 185 C62.07 184.38 61.13 183.77 60.17 183.13 C48.34 175.18 32.96 164.38 27.14 151.02 C25.96 148.65 24.86 146.89 23 145 C19.39 143.83 15.91 143.95 12.14 144.04 C11.09 144.03 10.03 144.02 8.94 144.01 C5.56 143.99 2.19 144.02 -1.19 144.06 C-4.55 144.06 -7.9 144.05 -11.26 144.04 C-13.35 144.04 -15.44 144.04 -17.52 144.06 C-23.75 144.1 -29.82 143.75 -36 143 C-36 142.01 -36 141.02 -36 140 C-35.3 140.15 -34.59 140.3 -33.87 140.45 C-29.93 140.76 -27.7 140.51 -24 139 C-17.82 133.03 -13.31 125.29 -8.78 118.05 C-7.9 116.67 -6.96 115.33 -6 114 C-5.34 114 -4.68 114 -4 114 C-3.73 113.41 -3.47 112.83 -3.2 112.22 C-1.62 109.29 0.5 107.11 2.76 104.68 C4.3 102.95 4.3 102.95 4 100 C3.66 100.51 3.32 101.01 2.98 101.53 C2.31 102.51 2.31 102.51 1.62 103.5 C1.18 104.15 0.74 104.8 0.29 105.47 C-0.14 105.97 -0.56 106.48 -1 107 C-1.66 107 -2.32 107 -3 107 C-3.24 107.72 -3.47 108.44 -3.71 109.18 C-5.22 112.48 -7.07 114.51 -9.56 117.12 C-14.04 121.9 -18.15 126.82 -22.19 131.98 C-22.79 132.65 -23.38 133.31 -24 134 C-24.66 134 -25.32 134 -26 134 C-26.73 131.8 -26.73 131.8 -27 129 C-25.55 126.63 -25.55 126.63 -23.31 124.12 C-22.49 123.17 -21.67 122.22 -20.82 121.24 C-20.36 120.73 -19.91 120.21 -19.45 119.68 C-16.8 116.6 -14.28 113.42 -11.75 110.25 C-11.26 109.64 -10.76 109.02 -10.25 108.39 C-7.02 104.36 -3.97 100.23 -1 96 C-5.74 100.05 -10.21 104.14 -14.36 108.81 C-16 110 -16 110 -18.2 109.69 C-18.8 109.46 -19.39 109.23 -20 109 C-20 104.05 -18.2 102.58 -14.94 99.25 C-13.93 98.19 -12.92 97.12 -11.91 96.05 C-11.41 95.54 -10.91 95.02 -10.4 94.48 C-7.96 91.9 -5.66 89.21 -3.34 86.52 C-2.27 85.31 -1.14 84.14 0 83 C0.4 80.68 0.74 78.34 1 76 C-0.14 77.14 -0.14 77.14 -1.31 78.31 C-2.64 79.64 -2.64 79.64 -4 81 C-4.56 81.6 -5.11 82.2 -5.69 82.81 C-7 84 -7 84 -9 84 C-9.33 83.01 -9.66 82.02 -10 81 C-8.08 77.68 -6 75 -3.34 72.24 C-0.47 68.27 -0.59 66.78 -1.18 62 C-1.32 60.57 -1.46 59.15 -1.59 57.73 C-1.67 56.97 -1.74 56.2 -1.81 55.42 C-2.15 51.07 -2.13 46.71 -2.13 42.35 C-2.13 40.97 -2.13 40.97 -2.14 39.56 C-2.14 37.68 -2.13 35.8 -2.13 33.92 C-2.12 31.04 -2.13 28.17 -2.14 25.29 C-2.14 23.44 -2.13 21.58 -2.13 19.72 C-2.13 18.88 -2.14 18.03 -2.14 17.17 C-2.08 2.08 -2.08 2.08 0 0 Z M2 91 C2 94 2 94 2 94 Z M-6.64 124.57 C-11.32 129.33 -15.73 134.14 -19 140 C-16.67 140.42 -16.67 140.42 -14 140 C-10.89 137 -10.89 137 -10 133 C-9.32 132.79 -8.64 132.59 -7.94 132.38 C-1.26 129.25 4.93 123.11 9 117 C9 115.68 9 114.36 9 113 C4.48 113 -3.46 121.52 -6.64 124.57 Z M12 122 C10.35 123.65 8.7 125.3 7 127 C7.33 127.66 7.66 128.32 8 129 C9.65 127.68 11.3 126.36 13 125 C12.67 124.01 12.34 123.02 12 122 Z M6 129 C3.03 132.3 0.06 135.6 -3 139 C-2.01 139.33 -1.02 139.66 0 140 C2.31 137.03 4.62 134.06 7 131 C6.67 130.34 6.34 129.68 6 129 Z M16 135 C15.34 136.32 14.68 137.64 14 139 C15.32 138.67 16.64 138.34 18 138 C18 137.01 18 136.02 18 135 C17.34 135 16.68 135 16 135 Z " fill="#000000" transform="translate(119,450)"/>
<path d="M0 0 C0.99 0.33 1.98 0.66 3 1 C4.13 3.73 4.13 3.73 5.12 7.19 C5.46 8.32 5.79 9.44 6.13 10.61 C7.36 15.4 8.14 19.92 8.06 24.88 C8.05 25.66 8.04 26.44 8.04 27.24 C8.02 27.82 8.01 28.4 8 29 C6.68 29.33 5.36 29.66 4 30 C3.88 28.7 3.76 27.4 3.63 26.05 C3.46 24.33 3.29 22.6 3.12 20.88 C3.05 20.02 2.97 19.16 2.89 18.28 C2.42 13.57 1.64 9.47 0 5 C-0.12 2.12 -0.12 2.12 0 0 Z " fill="#000000" transform="translate(422,557)"/>
<path d="M0 0 C2.17 0.36 2.17 0.36 4 1 C2.4 4.82 -0.05 7.39 -2.88 10.38 C-6.37 14.08 -9.28 17.72 -12 22 C-13.32 21.67 -14.64 21.34 -16 21 C-13.91 15.02 -10.07 10.76 -6 6 C-5.43 5.33 -4.87 4.67 -4.28 3.98 C-2.75 2.31 -2.75 2.31 0 0 Z " fill="#000000" transform="translate(93,566)"/>
<path d="M0 0 C4.17 3.67 4.46 7.63 5 13 C5.76 31.49 5.76 31.49 4 35 C3.01 35 2.02 35 1 35 C1.03 33.08 1.03 33.08 1.07 31.12 C1.19 21.7 1 12.75 -0.66 3.46 C-0.77 2.65 -0.88 1.84 -1 1 C-0.67 0.67 -0.34 0.34 0 0 Z " fill="#000000" transform="translate(370,575)"/>
<path d="M0 0 C0.99 0 1.98 0 3 0 C7.61 23.63 7.61 23.63 4 34 C3.34 34 2.68 34 2 34 C2.02 33.05 2.05 32.11 2.07 31.13 C2.24 20.62 1.35 10.42 0 0 Z " fill="#000000" transform="translate(359,579)"/>
<path d="M0 0 C3.53 2.68 4.2 6.33 5.19 10.44 C5.36 11.14 5.54 11.85 5.72 12.58 C7.14 18.75 7.43 24.68 7 31 C6.01 31.33 5.02 31.66 4 32 C3.89 30.77 3.78 29.54 3.67 28.27 C2.86 19.65 1.93 11.39 -0.51 3.05 C-0.67 2.38 -0.83 1.7 -1 1 C-0.67 0.67 -0.34 0.34 0 0 Z " fill="#000000" transform="translate(347,584)"/>
</svg>
