<?xml version="1.0" encoding="UTF-8"?>
<!-- Generator: visioncortex VTracer 0.6.0 -->
<svg version="1.1" xmlns="http://www.w3.org/2000/svg" width="847" height="847">
<path d="M0 0 C0.99 0.33 1.98 0.66 3 1 C3.297 11.274 2.492 21.336 1.518 31.553 C1.243 34.449 0.977 37.346 0.712 40.243 C-0.148 49.557 -1.072 58.858 -2.156 68.148 C-4.813 91.184 -5.482 113.818 -5 137 C-6.32 137 -7.64 137 -9 137 C-11.099 105.344 -7.778 74.131 -4.765 42.64 C-4.55 40.368 -4.335 38.096 -4.121 35.824 C-4.018 34.73 -3.914 33.636 -3.808 32.509 C-3.093 24.685 -2.613 16.87 -2.407 9.016 C-2.275 5.187 -2.173 3.26 0 0 Z " fill="#000000" transform="translate(517,46)"/>
<path d="M0 0 C1.819 0.119 1.819 0.119 4 1 C5.485 3.584 5.485 3.584 6.891 7.094 C7.152 7.735 7.414 8.377 7.683 9.038 C8.554 11.186 9.402 13.343 10.25 15.5 C10.861 17.021 11.474 18.542 12.087 20.062 C17.583 33.738 22.889 47.491 28.216 61.233 C36.24 83.068 36.24 83.068 46.127 104.04 C47 106 47 106 47 110 C45.115 109.696 45.115 109.696 43 109 C41.504 106.438 40.337 104.032 39.188 101.312 C38.813 100.455 38.438 99.597 38.052 98.713 C33.354 87.779 29.076 76.664 24.737 65.584 C20.762 55.437 16.73 45.32 12.562 35.25 C12.078 34.079 11.594 32.908 11.096 31.702 C8.951 26.551 6.765 21.429 4.445 16.355 C3.868 15.091 3.868 15.091 3.279 13.802 C2.579 12.286 1.869 10.776 1.145 9.272 C-1.064 4.527 -1.064 4.527 -0.699 1.535 C-0.468 1.029 -0.238 0.522 0 0 Z " fill="#000000" transform="translate(443,73)"/>
<path d="M0 0 C2.475 0.495 2.475 0.495 5 1 C4.446 5.297 3.429 8.638 1.48 12.5 C0.698 14.062 0.698 14.062 -0.101 15.655 C-0.948 17.311 -0.948 17.311 -1.812 19 C-2.684 20.721 -2.684 20.721 -3.573 22.478 C-11.595 38.227 -20.09 53.735 -29 69 C-29.51 69.889 -30.021 70.779 -30.547 71.695 C-32.345 74.547 -34.559 76.691 -37 79 C-37.99 78.67 -38.98 78.34 -40 78 C-39.634 72.14 -38.019 67.414 -34 63 C-33.203 62.742 -32.406 62.484 -31.585 62.218 C-28.221 60.633 -27.638 59.157 -26.09 55.812 C-25.581 54.733 -25.071 53.654 -24.547 52.542 C-24.016 51.373 -23.485 50.204 -22.938 49 C-22.373 47.789 -21.808 46.579 -21.24 45.37 C-19.768 42.22 -18.316 39.061 -16.87 35.899 C-15.464 32.831 -14.044 29.769 -12.625 26.707 C-11.064 23.334 -9.505 19.96 -7.959 16.58 C-5.405 10.998 -2.784 5.471 0 0 Z " fill="#000000" transform="translate(674,80)"/>
<path d="M0 0 C3.345 1.46 5.293 3.987 7.246 6.98 C10.515 17.283 10.782 28.402 11.047 39.129 C11.091 40.603 11.137 42.078 11.183 43.552 C11.276 46.602 11.36 49.653 11.437 52.703 C11.536 56.615 11.657 60.527 11.783 64.438 C11.879 67.464 11.965 70.491 12.048 73.518 C12.089 74.962 12.132 76.406 12.179 77.85 C12.242 79.852 12.29 81.854 12.337 83.857 C12.368 84.994 12.399 86.132 12.431 87.304 C12.246 89.98 12.246 89.98 10.246 91.98 C8.251 91.798 8.251 91.798 6.246 90.98 C4.619 88.571 3.299 86.309 1.996 83.73 C1.609 82.979 1.222 82.228 0.823 81.453 C-9.521 60.816 -21.301 32.147 -14.629 8.793 C-11.759 1.87 -7.45 -0.704 0 0 Z M-7.883 8.41 C-10.503 12.612 -10.398 16.772 -10.316 21.605 C-10.307 22.524 -10.297 23.443 -10.288 24.389 C-9.771 41.848 -3.629 58.557 4.246 73.98 C4.576 73.98 4.906 73.98 5.246 73.98 C7.389 40.306 7.389 40.306 1.246 7.98 C-0.579 5.792 -0.579 5.792 -3.129 5.48 C-5.989 5.746 -5.989 5.746 -7.883 8.41 Z " fill="#000000" transform="translate(246.75390625,94.01953125)"/>
<path d="M0 0 C3.527 3.145 4.696 6.141 5.02 10.859 C4.836 31.015 -13.141 51.942 -26.568 65.543 C-27.589 66.582 -28.594 67.637 -29.588 68.703 C-31.002 70.191 -32.496 71.602 -34 73 C-36.875 72.875 -36.875 72.875 -39 72 C-36.994 54.229 -31.174 36.326 -24 20 C-23.581 19.01 -23.162 18.02 -22.73 17 C-19.677 10.302 -15.228 3.072 -8.441 -0.254 C-5.172 -1.253 -3.252 -1.038 0 0 Z M-9.375 6.875 C-19.578 18.198 -23.64 34.164 -28 48.438 C-28.22 49.141 -28.44 49.844 -28.666 50.569 C-29.677 54.015 -30.394 56.592 -29 60 C-9.528 38.397 -9.528 38.397 -0.812 11.438 C-0.714 7.877 -0.714 7.877 -3 5 C-6.981 4.587 -6.981 4.587 -9.375 6.875 Z " fill="#000000" transform="translate(312,110)"/>
<path d="M0 0 C2.312 0.188 2.312 0.188 4 1 C2.548 4.336 0.721 6.525 -1.852 9.082 C-3.006 10.233 -3.006 10.233 -4.184 11.408 C-4.989 12.202 -5.795 12.995 -6.625 13.812 C-7.407 14.594 -8.19 15.376 -8.996 16.182 C-13.281 20.435 -17.658 24.516 -22.231 28.456 C-28.332 33.781 -33.902 39.719 -39.152 45.875 C-41.395 48.454 -43.732 50.937 -46.062 53.438 C-49.818 57.53 -52.979 61.663 -55.844 66.418 C-56.225 66.94 -56.607 67.462 -57 68 C-57.66 68 -58.32 68 -59 68 C-59.247 68.639 -59.495 69.279 -59.75 69.938 C-61 72 -61 72 -63.125 72.75 C-63.744 72.832 -64.362 72.915 -65 73 C-64.538 67.458 -63.393 62.532 -60 58 C-58.005 57.32 -56.004 56.655 -54 56 C-51.076 53.219 -48.564 50.111 -46 47 C-44.901 45.725 -43.797 44.454 -42.688 43.188 C-42.114 42.533 -41.54 41.878 -40.949 41.203 C-30.18 29.031 -19.063 16.805 -6.57 6.367 C-5.001 5.001 -3.643 3.543 -2.25 2 C-1.508 1.34 -0.765 0.68 0 0 Z " fill="#000000" transform="translate(715,111)"/>
<path d="M0 0 C0.99 0.33 1.98 0.66 3 1 C2.348 5.198 0.046 8.504 -2.125 12.062 C-9.395 24.199 -16.171 36.612 -23 49 C-23.576 50.045 -24.152 51.09 -24.746 52.167 C-27.836 57.775 -30.921 63.386 -34 69 C-35.32 68.67 -36.64 68.34 -38 68 C-37.415 64.205 -36.328 61.43 -34.41 58.113 C-33.613 56.72 -33.613 56.72 -32.799 55.298 C-31.939 53.82 -31.939 53.82 -31.062 52.312 C-29.865 50.228 -28.669 48.144 -27.473 46.059 C-26.88 45.028 -26.287 43.998 -25.676 42.937 C-23.801 39.651 -21.98 36.34 -20.169 33.018 C-4.737 4.737 -4.737 4.737 0 0 Z " fill="#000000" transform="translate(561,120)"/>
<path d="M0 0 C2.062 0.438 2.062 0.438 4 1 C6.258 9.678 7.575 18.042 8 27 C6.35 27.33 4.7 27.66 3 28 C1.441 23.696 0.506 19.594 -0.125 15.062 C-0.293 13.898 -0.46 12.734 -0.633 11.535 C-1.001 7.986 -1.134 4.566 -1 1 C-0.67 0.67 -0.34 0.34 0 0 Z " fill="#000000" transform="translate(491,131)"/>
<path d="M0 0 C2.062 0.438 2.062 0.438 4 1 C3.418 7.117 2.111 12.61 0.188 18.438 C-0.061 19.252 -0.309 20.066 -0.564 20.904 C-0.818 21.677 -1.071 22.45 -1.332 23.246 C-1.556 23.944 -1.78 24.642 -2.011 25.361 C-3 27 -3 27 -5.042 27.797 C-5.688 27.864 -6.334 27.931 -7 28 C-7.33 27.67 -7.66 27.34 -8 27 C-7.869 19.675 -5.4 5.4 0 0 Z " fill="#000000" transform="translate(531,131)"/>
<path d="M0 0 C7.881 3.46 13.522 11.576 19 18 C19.898 19.011 20.796 20.021 21.695 21.031 C22.631 22.104 23.566 23.177 24.5 24.25 C24.958 24.758 25.416 25.265 25.888 25.788 C27.156 27.266 27.156 27.266 29 30 C28.781 32.359 28.781 32.359 28 34 C24.861 33.731 24.027 33.032 21.949 30.586 C21.203 29.526 20.456 28.467 19.688 27.375 C15.01 20.935 9.657 15.435 3.915 9.939 C3.292 9.338 2.669 8.737 2.027 8.117 C1.188 7.322 1.188 7.322 0.332 6.511 C-1 5 -1 5 -2 2 C-1.34 1.34 -0.68 0.68 0 0 Z " fill="#000000" transform="translate(425,148)"/>
<path d="M0 0 C0.495 1.98 0.495 1.98 1 4 C-5.179 7.971 -11.518 11.489 -18 14.938 C-27.906 20.248 -37.651 25.795 -47.332 31.506 C-48.279 32.065 -49.227 32.623 -50.203 33.199 C-51.451 33.939 -51.451 33.939 -52.724 34.694 C-57.11 37.211 -57.11 37.211 -59 38 C-59.66 37.67 -60.32 37.34 -61 37 C-60.398 33.401 -60.09 33.069 -56.957 30.66 C-55.584 29.781 -54.202 28.916 -52.812 28.062 C-52.064 27.591 -51.315 27.119 -50.543 26.633 C-41.674 21.091 -32.665 15.775 -23.621 10.525 C-21.147 9.086 -18.683 7.632 -16.219 6.176 C-14.792 5.345 -13.365 4.516 -11.938 3.688 C-11.301 3.308 -10.665 2.929 -10.01 2.539 C-6.53 0.548 -4.026 -0.449 0 0 Z " fill="#000000" transform="translate(734,154)"/>
<path d="M0 0 C3.405 0.284 4.763 0.769 7.25 3.188 C9.139 6.223 9.671 8.467 10 12 C6 12 6 12 3.312 9.375 C0.989 6.381 0.272 3.813 0 0 Z " fill="#000000" transform="translate(457,159)"/>
<path d="M0 0 C-0.386 2.798 -0.801 3.821 -2.938 5.75 C-5 7 -5 7 -7 7 C-3.862 0 -3.862 0 0 0 Z " fill="#000000" transform="translate(603,165)"/>
<path d="M0 0 C-3.622 8.3 -12.737 13.394 -19.875 18.5 C-20.625 19.041 -21.374 19.582 -22.147 20.139 C-22.859 20.639 -23.571 21.14 -24.305 21.656 C-25.264 22.334 -25.264 22.334 -26.242 23.025 C-28 24 -28 24 -31 24 C-31.33 23.01 -31.66 22.02 -32 21 C-26.12 15.549 -19.869 10.981 -13.188 6.562 C-12.247 5.926 -11.307 5.29 -10.338 4.635 C-9.436 4.035 -8.534 3.435 -7.605 2.816 C-6.792 2.274 -5.979 1.732 -5.141 1.174 C-3 0 -3 0 0 0 Z " fill="#000000" transform="translate(592,175)"/>
<path d="M0 0 C0.99 0.33 1.98 0.66 3 1 C2.683 4.489 2.337 6.559 0.188 9.375 C-2 11 -2 11 -6 11 C-5.756 6.767 -5.598 4.63 -2.625 1.5 C-1.759 1.005 -0.893 0.51 0 0 Z " fill="#000000" transform="translate(553,177)"/>
<path d="M0 0 C1.426 1.211 1.426 1.211 2.426 4.211 C0.684 6.398 -0.281 7.149 -3.057 7.735 C-4.042 7.803 -5.028 7.871 -6.043 7.941 C-7.159 8.022 -8.275 8.104 -9.425 8.187 C-10.629 8.257 -11.833 8.327 -13.074 8.398 C-14.312 8.476 -15.55 8.553 -16.825 8.633 C-25.653 9.142 -34.482 9.471 -43.324 9.586 C-44.99 9.625 -44.99 9.625 -46.689 9.665 C-53.443 9.68 -57.841 8.866 -63.574 5.211 C-65.019 2.322 -64.951 0.414 -64.574 -2.789 C-60.355 -8.459 -54.912 -10.096 -48.262 -11.477 C-30.866 -12.951 -14.888 -9.185 0 0 Z M-59.574 -0.789 C-59.244 0.201 -58.914 1.191 -58.574 2.211 C-48.972 6.265 -37.188 4.187 -27.074 3.336 C-26.017 3.257 -24.96 3.179 -23.871 3.098 C-22.855 3.014 -21.84 2.93 -20.793 2.844 C-19.431 2.734 -19.431 2.734 -18.041 2.622 C-15.535 2.204 -13.767 1.469 -11.574 0.211 C-13.759 -0.61 -15.947 -1.42 -18.137 -2.227 C-19.355 -2.679 -20.573 -3.131 -21.828 -3.598 C-32.301 -6.928 -50.781 -9.2 -59.574 -0.789 Z " fill="#000000" transform="translate(238.57421875,197.7890625)"/>
<path d="M0 0 C0.601 0.488 1.201 0.975 1.82 1.478 C15.335 12.517 26.417 24.264 35.062 39.5 C35.445 40.17 35.827 40.84 36.22 41.531 C38.12 44.989 39.509 48.069 40 52 C41.52 51.476 41.52 51.476 43.07 50.941 C44.422 50.482 45.773 50.022 47.125 49.562 C47.79 49.332 48.455 49.102 49.141 48.865 C63.44 44.029 78.345 45.168 92.066 51.391 C97.061 54.219 100.877 57.164 104 62 C104.812 65.375 104.812 65.375 105 68 C101.382 66.631 98.079 64.977 94.688 63.125 C79.35 55.437 63.459 53.749 47 59 C46.34 59.33 45.68 59.66 45 60 C45.724 67.246 46.838 74.385 48.062 81.562 C48.342 83.219 48.342 83.219 48.627 84.908 C49.082 87.606 49.54 90.303 50 93 C50.8 92.383 50.8 92.383 51.616 91.753 C52.678 90.943 52.678 90.943 53.762 90.117 C54.46 89.582 55.158 89.047 55.878 88.496 C62.293 83.975 69.267 82.924 77 84 C81.005 86.002 83.659 88.18 86 92 C87.867 97.6 87.666 102.185 85.125 107.438 C83.33 110.835 83.33 110.835 81 112 C81.035 110.662 81.035 110.662 81.07 109.297 C81.088 108.126 81.106 106.956 81.125 105.75 C81.16 104.01 81.16 104.01 81.195 102.234 C81.008 99.133 80.725 97.535 79 95 C73.987 91.491 68.912 91.048 63 92 C58.307 93.792 54.169 96.221 50 99 C49.554 101.61 49.554 101.61 49.629 104.703 C49.614 105.897 49.599 107.09 49.584 108.32 C49.573 110.266 49.573 110.266 49.562 112.25 C49.332 126.887 47.706 141.041 45.524 155.516 C44.648 161.339 43.828 167.17 43 173 C50.213 167.283 57.023 161.297 63.696 154.962 C66.485 152.32 69.278 149.73 72.25 147.293 C75.973 144.189 78.92 140.73 82 137 C82.838 136 83.676 134.999 84.539 133.969 C99.118 116.231 109.278 98.452 108 75 C108.66 75 109.32 75 110 75 C114.705 85.25 114.837 91.85 111.324 102.5 C107.341 113.028 101.933 122.173 95 131 C94.095 132.193 94.095 132.193 93.172 133.41 C85.139 143.788 76.14 153.655 66 162 C65.025 162.839 64.051 163.678 63.047 164.543 C53.756 172.528 53.756 172.528 50.17 174.768 C41.46 180.456 38.637 186.02 36.461 196.156 C36.128 197.535 35.792 198.912 35.451 200.289 C34.741 203.188 34.06 206.091 33.401 209.002 C32.373 213.539 31.281 218.059 30.176 222.577 C29.808 224.079 29.442 225.582 29.075 227.084 C28.895 227.822 28.714 228.559 28.529 229.319 C27.991 231.532 27.459 233.747 26.929 235.962 C24.443 246.341 21.749 256.625 18.562 266.812 C17.981 268.673 17.981 268.673 17.387 270.572 C16.278 274.055 15.144 277.528 14 281 C13.614 282.194 13.227 283.389 12.829 284.62 C-2.341 331.3 -22.881 381.38 -55 419 C-55.696 419.819 -56.392 420.637 -57.109 421.48 C-70.432 436.716 -84.996 446.906 -103.246 455.257 C-108.595 457.74 -113.494 460.418 -118.312 463.812 C-172.247 501.546 -245.842 519.498 -311 518 C-310.578 517.446 -310.157 516.891 -309.723 516.32 C-309.175 515.596 -308.627 514.871 -308.062 514.125 C-307.517 513.406 -306.972 512.686 -306.41 511.945 C-304.96 510.056 -304.96 510.056 -304 508 C-307.529 509.764 -309.416 511.515 -311.625 514.688 C-313.458 516.885 -314.386 517.903 -317.255 518.356 C-318.113 518.326 -318.971 518.297 -319.855 518.266 C-320.831 518.236 -321.807 518.206 -322.812 518.175 C-328.444 517.866 -334.065 517.503 -339.688 517.062 C-340.859 516.975 -342.03 516.888 -343.236 516.799 C-349.183 516.346 -355.091 515.809 -361 515 C-361 514.01 -361 513.02 -361 512 C-358.86 510.346 -358.86 510.346 -355.891 508.566 C-354.293 507.593 -354.293 507.593 -352.664 506.6 C-351.537 505.927 -350.411 505.255 -349.25 504.562 C-347.044 503.235 -344.841 501.904 -342.641 500.566 C-341.656 499.978 -340.672 499.39 -339.657 498.783 C-337.097 497.065 -335.091 495.255 -333 493 C-340.782 496.62 -347.865 500.996 -355 505.75 C-357.041 507.1 -359.083 508.449 -361.125 509.797 C-362.014 510.388 -362.904 510.98 -363.82 511.589 C-367.768 514.145 -369.355 513.939 -374.012 513.145 C-375.239 512.936 -376.466 512.727 -377.73 512.512 C-379.049 512.28 -380.368 512.046 -381.688 511.812 C-382.674 511.641 -382.674 511.641 -383.68 511.466 C-393.268 509.793 -402.694 507.877 -412 505 C-407.64 501.273 -402.917 498.415 -398 495.5 C-396.705 494.726 -396.705 494.726 -395.384 493.936 C-390.635 491.111 -385.859 488.339 -381.051 485.617 C-380.091 485.074 -379.131 484.531 -378.143 483.971 C-376.278 482.92 -374.411 481.874 -372.541 480.834 C-371.277 480.123 -371.277 480.123 -369.988 479.398 C-368.867 478.775 -368.867 478.775 -367.724 478.138 C-365.843 477.103 -365.843 477.103 -365 475 C-379.746 482.201 -393.848 490.096 -407.605 499.052 C-408.377 499.549 -409.15 500.046 -409.945 500.559 C-410.974 501.228 -410.974 501.228 -412.024 501.912 C-415.474 503.812 -417.348 504.152 -421.223 503.25 C-422.506 502.845 -423.786 502.428 -425.062 502 C-425.75 501.777 -426.437 501.553 -427.146 501.323 C-432.878 499.432 -438.572 497.424 -444.25 495.375 C-445.06 495.086 -445.869 494.798 -446.703 494.5 C-447.848 494.078 -447.848 494.078 -449.016 493.648 C-449.689 493.403 -450.362 493.157 -451.056 492.904 C-453.289 491.865 -455.079 490.533 -457 489 C-456.438 488.619 -455.877 488.238 -455.298 487.845 C-445.006 480.858 -434.736 473.846 -424.562 466.688 C-416.463 460.989 -408.275 455.441 -400 450 C-404.155 450 -406.733 452.077 -410.125 454.25 C-410.831 454.697 -411.537 455.143 -412.264 455.604 C-419.637 460.321 -426.747 465.396 -433.867 470.484 C-437.409 473.001 -440.983 475.473 -444.562 477.938 C-445.193 478.374 -445.823 478.81 -446.473 479.26 C-447.688 480.095 -448.91 480.923 -450.137 481.742 C-451.455 482.632 -452.751 483.553 -454.031 484.497 C-459.182 488.111 -459.182 488.111 -463.027 487.59 C-466.611 485.673 -470.125 483.731 -473.562 481.562 C-474.258 481.125 -474.953 480.688 -475.669 480.237 C-485.092 474.169 -494.267 467.041 -501 458 C-501 457.34 -501 456.68 -501 456 C-500.459 455.72 -499.918 455.441 -499.361 455.152 C-484.984 447.657 -471.498 439.263 -458.12 430.117 C-454.861 427.905 -451.579 425.728 -448.289 423.562 C-447.194 422.84 -446.1 422.118 -444.972 421.374 C-442.871 419.989 -440.769 418.607 -438.665 417.228 C-437.718 416.601 -436.772 415.974 -435.797 415.328 C-434.965 414.781 -434.133 414.233 -433.276 413.669 C-430.943 411.958 -428.989 410.097 -427 408 C-428.464 408.676 -429.921 409.367 -431.375 410.062 C-432.187 410.445 -432.999 410.828 -433.836 411.223 C-437.402 413.226 -440.655 415.513 -443.988 417.879 C-459.693 428.939 -475.697 439.834 -492.375 449.375 C-493.647 450.105 -493.647 450.105 -494.945 450.85 C-500.595 454 -500.595 454 -504 454 C-509.974 441.793 -513.334 430.707 -512 417 C-509.506 414.506 -506.663 413.161 -503.562 411.562 C-485.532 402.08 -468.215 391.339 -450.836 380.727 C-449.9 380.157 -448.964 379.587 -448 379 C-447.094 378.43 -446.187 377.86 -445.253 377.273 C-443 376 -443 376 -441 376 C-441 375.01 -441 374.02 -441 373 C-448.306 376.928 -455.5 381.005 -462.625 385.25 C-464.561 386.399 -466.497 387.547 -468.434 388.695 C-469.378 389.256 -470.323 389.817 -471.296 390.396 C-475.089 392.646 -478.887 394.888 -482.688 397.125 C-483.351 397.516 -484.015 397.906 -484.699 398.309 C-493.108 403.249 -501.554 408.125 -510 413 C-511.958 409.083 -508.979 403.457 -507.641 399.438 C-496.872 369.159 -469.61 344.136 -442 329 C-442.581 323.368 -444.692 318.84 -447 313.75 C-452.421 301.412 -456.803 288.799 -461 276 C-461.613 274.137 -461.613 274.137 -462.239 272.236 C-475.719 231.109 -485.037 189.017 -490 146 C-490.117 144.993 -490.234 143.986 -490.355 142.949 C-493.541 114.354 -495.261 83.734 -483 57 C-482.711 56.366 -482.422 55.732 -482.125 55.079 C-477.938 46.003 -473.254 37.844 -467 30 C-466.336 29.134 -465.672 28.267 -464.988 27.375 C-454.903 14.549 -443.14 3.616 -430 -6 C-428.953 -6.768 -427.907 -7.537 -426.828 -8.328 C-378.717 -42.557 -320.863 -55.975 -263 -62 C-262.049 -62.103 -261.098 -62.206 -260.119 -62.312 C-174.665 -70.284 -68.114 -55.665 0 0 Z M-446 16 C-446.825 16.771 -447.65 17.542 -448.5 18.336 C-469.207 38.331 -484.316 65.184 -485.375 94.438 C-484.635 115.828 -476.725 134.719 -463 151 C-462.301 151.92 -461.603 152.841 -460.883 153.789 C-460.261 154.519 -459.64 155.248 -459 156 C-458.34 156 -457.68 156 -457 156 C-457 156.66 -457 157.32 -457 158 C-453.558 161.26 -449.752 164.106 -446 167 C-444.962 167.802 -443.925 168.604 -442.855 169.43 C-368.106 225.639 -257.5 230.95 -168.274 218.571 C-150.692 216.082 -133.303 213.025 -116 209 C-114.828 208.731 -113.657 208.461 -112.45 208.184 C-71.041 198.569 -28.852 183.981 2.598 154.227 C5 152 5 152 7.609 149.922 C24.564 136.292 36.983 112.333 39.527 90.961 C40.346 82.447 39.85 74.368 38 66 C37.827 65.187 37.655 64.373 37.477 63.535 C28.886 30.008 -1.567 7.194 -29.696 -9.645 C-108.301 -55.878 -210.699 -63.206 -446 16 Z M43 104 C42.72 104.715 42.441 105.431 42.152 106.168 C35.217 123.406 25.728 137.51 13 151 C12.35 151.714 11.701 152.428 11.031 153.164 C0.381 164.429 -12.727 173.454 -26.21 180.996 C-27.925 181.958 -29.623 182.949 -31.32 183.941 C-71.947 206.846 -119.333 215.639 -165 222 C-166.837 222.258 -168.674 222.516 -170.512 222.774 C-176.506 223.614 -182.503 224.434 -188.5 225.25 C-189.455 225.381 -190.409 225.512 -191.393 225.647 C-243.159 232.721 -295.339 228.23 -346 216 C-347.085 215.74 -348.171 215.48 -349.289 215.212 C-371.63 209.767 -393.418 202.303 -414 192 C-415.125 191.473 -416.251 190.946 -417.41 190.402 C-430.964 183.939 -443.572 175.742 -455 166 C-455.657 165.487 -456.315 164.974 -456.992 164.445 C-467.072 156.309 -474.251 145.242 -480.344 133.961 C-481.752 131.444 -483.248 129.277 -485 127 C-485.292 135.467 -484.413 143.732 -483.375 152.125 C-483.288 152.84 -483.2 153.555 -483.11 154.292 C-481.129 170.339 -478.284 186.173 -475 202 C-474.733 203.291 -474.466 204.583 -474.191 205.914 C-458.881 278.957 -431.915 358.723 -384 417 C-383.502 417.608 -383.004 418.216 -382.49 418.842 C-380.962 420.696 -379.422 422.537 -377.875 424.375 C-377.421 424.922 -376.967 425.468 -376.499 426.031 C-369.901 433.754 -362.396 439.888 -353.562 444.875 C-352.219 445.635 -352.219 445.635 -350.849 446.411 C-319.568 463.534 -280.581 474.253 -245 476 C-243.876 476.058 -243.876 476.058 -242.73 476.117 C-196.401 478.124 -135.201 466.566 -95 443 C-94.393 442.646 -93.786 442.292 -93.161 441.927 C-85 437.103 -77.809 431.623 -71 425 C-70.277 424.339 -69.554 423.677 -68.809 422.996 C-49.142 404.456 -36.302 378.64 -24 355 C-23.468 353.982 -22.937 352.964 -22.389 351.916 C-10.489 329.008 -0.725 305.28 8 281 C8.304 280.169 8.607 279.337 8.92 278.48 C14.377 263.433 18.262 247.984 22.128 232.472 C23.427 227.267 24.75 222.069 26.09 216.875 C35.806 179.189 42.932 142.999 44 104 C43.67 104 43.34 104 43 104 Z " fill="#000000" transform="translate(646,251)"/>
<path d="M0 0 C-3.749 8.336 -13.061 13.215 -21 17 C-22.32 17 -23.64 17 -25 17 C-24.709 13.877 -23.965 12.967 -21.629 10.781 C-7.137 0 -7.137 0 0 0 Z " fill="#000000" transform="translate(658,201)"/>
<path d="M0 0 C0 0.66 0 1.32 0 2 C-4.455 2.495 -4.455 2.495 -9 3 C-8.67 2.01 -8.34 1.02 -8 0 C-4.71 -1.097 -3.287 -0.8 0 0 Z " fill="#000000" transform="translate(371,240)"/>
<path d="M0 0 C2.64 0 5.28 0 8 0 C7.67 0.99 7.34 1.98 7 3 C4.104 4.448 2.258 5 -1 5 C-0.67 3.35 -0.34 1.7 0 0 Z " fill="#000000" transform="translate(342,244)"/>
<path d="M0 0 C0.755 0.013 1.51 0.026 2.289 0.04 C80.836 1.424 166.03 16.351 224 74 C224.488 74.484 224.977 74.969 225.48 75.468 C239.044 89.109 250.096 105.542 250.33 125.343 C250.201 143.919 244.429 159.918 232 174 C231.358 174.784 230.716 175.567 230.055 176.375 C220.613 187.524 208.651 195.85 196 203 C195.34 203.38 194.68 203.76 194 204.151 C142.697 233.421 80.671 241.031 23 248 C21.344 248.204 21.344 248.204 19.655 248.411 C-56.607 257.476 -149.339 241.929 -211 194 C-214.471 191.126 -217.766 188.136 -221 185 C-221.619 184.443 -222.238 183.886 -222.875 183.312 C-234.568 172.455 -240.854 158.041 -242.238 142.289 C-242.671 126.747 -237.564 113.313 -230 100 C-229.466 99.037 -228.933 98.074 -228.383 97.082 C-219.288 81.766 -205.824 68.987 -192 58 C-191.045 57.216 -190.09 56.433 -189.105 55.625 C-153.23 26.887 -107.921 10.457 -63 3 C-61.561 2.754 -61.561 2.754 -60.093 2.504 C-40.148 -0.771 -20.138 -0.371 0 0 Z M-56 8 C-57.01 8.156 -58.021 8.312 -59.062 8.473 C-104.73 15.758 -150.995 32.214 -187 62 C-187.531 62.431 -188.063 62.863 -188.61 63.307 C-210.253 80.877 -232.754 103.859 -236 133 C-236.197 137.681 -236.189 142.32 -236 147 C-232.136 145.712 -231.726 144.315 -229.625 140.875 C-219.398 125.084 -205.727 111.579 -191 100 C-190.037 99.22 -189.074 98.44 -188.082 97.637 C-119.248 42.936 -27.497 29.127 57.707 38.848 C111.505 45.409 166.448 61.717 208 98 C208.517 98.45 209.033 98.899 209.565 99.362 C221.194 109.555 230.486 120.792 238.871 133.75 C240.507 136.247 242.17 138.646 244 141 C247.775 129.674 243.13 115.276 238.441 104.836 C226.02 80.397 204.991 62.988 182 49 C181.42 48.641 180.84 48.282 180.243 47.912 C115.283 8.004 18.763 -3.708 -56 8 Z M-22 80 C-22 80.99 -22 81.98 -22 83 C-17.006 81.907 -12.289 79.932 -7.508 78.156 C0.491 75.52 8.538 75.757 16.875 75.75 C17.574 75.749 18.272 75.749 18.992 75.748 C29.299 75.764 38.995 76.2 49 79 C50.266 79.34 51.532 79.681 52.836 80.031 C92.994 91.414 125.858 113.812 147 150 C152.645 160.74 155.397 170.897 156 183 C156.99 183.33 157.98 183.66 159 184 C164.285 169.467 159.981 153.315 153.83 139.716 C139.435 109.29 112.37 87.278 81 76 C64.167 70.483 47.575 67.626 29.869 67.629 C27.633 67.625 25.4 67.589 23.164 67.551 C6.665 67.424 -7.811 71.547 -22 80 Z M-63.25 76.438 C-64.133 76.797 -65.016 77.157 -65.926 77.528 C-106.865 94.557 -130.889 124.129 -154.387 160.511 C-155.578 162.349 -156.785 164.177 -158 166 C-158 166.99 -158 167.98 -158 169 C-157.01 169 -156.02 169 -155 169 C-153.343 167.087 -153.343 167.087 -151.812 164.531 C-151.202 163.575 -150.591 162.619 -149.962 161.634 C-149.314 160.6 -148.667 159.566 -148 158.5 C-146.642 156.377 -145.283 154.254 -143.922 152.133 C-143.253 151.085 -142.585 150.037 -141.896 148.958 C-134.647 137.651 -127.002 126.98 -118 117 C-117.236 116.14 -116.471 115.28 -115.684 114.395 C-100.908 98.669 -80.804 87.986 -61 80 C-58.708 79.044 -56.416 78.085 -54.125 77.125 C-52.417 76.416 -50.709 75.707 -49 75 C-49 74.34 -49 73.68 -49 73 C-54.237 72.415 -58.508 74.492 -63.25 76.438 Z M-117.695 77.027 C-118.572 77.486 -119.448 77.945 -120.351 78.418 C-121.266 78.919 -122.182 79.421 -123.125 79.938 C-124.061 80.441 -124.997 80.944 -125.962 81.463 C-137.632 87.033 -137.632 87.033 -145.828 96.098 C-146.176 98.086 -146.176 98.086 -145 100 C-138.18 99.654 -133.414 96.757 -127.625 93.312 C-126.73 92.795 -125.836 92.277 -124.914 91.744 C-122.256 90.193 -119.627 88.602 -117 87 C-115.679 86.229 -115.679 86.229 -114.331 85.443 C-113.096 84.688 -113.096 84.688 -111.836 83.918 C-111.096 83.476 -110.357 83.034 -109.595 82.579 C-107.714 81.057 -107.714 81.057 -107.76 78.318 C-107.879 77.17 -107.879 77.17 -108 76 C-112.044 74.851 -113.998 75.068 -117.695 77.027 Z M7 84 C7 84.99 7 85.98 7 87 C7.567 86.979 8.134 86.958 8.718 86.937 C28.944 86.293 45.845 88.962 64 98 C64.995 98.485 65.99 98.969 67.016 99.469 C96.322 114.541 120.752 143.732 130.875 175 C134.43 186.728 135.417 198.774 135 211 C135.99 210.67 136.98 210.34 138 210 C145.921 190.975 141.472 169.318 134 151 C129.896 141.74 124.682 133.632 118 126 C117.448 125.317 116.897 124.634 116.328 123.93 C100.032 104.141 68.944 84.713 43 82 C31.007 81.381 18.734 81.118 7 84 Z M-109 120 C-109.924 120.874 -110.849 121.748 -111.801 122.648 C-122.276 132.753 -142.979 153.004 -144.25 167.938 C-144.168 168.618 -144.085 169.299 -144 170 C-141.622 169.614 -140.301 169.3 -138.571 167.576 C-138.14 166.975 -137.71 166.374 -137.266 165.754 C-136.778 165.087 -136.291 164.419 -135.789 163.732 C-135.281 163.016 -134.773 162.3 -134.25 161.562 C-133.173 160.086 -132.095 158.611 -131.016 157.137 C-130.235 156.062 -130.235 156.062 -129.439 154.966 C-108.474 126.328 -84.093 104.437 -50.848 91.192 C-47.42 89.798 -46.118 89.177 -44 86 C-67.378 84.865 -93.2 104.527 -109 120 Z M161 96 C159.783 97.765 159.783 97.765 159 100 C159.349 102.282 159.349 102.282 161 104 C164.059 104.816 164.059 104.816 167 105 C167.86 102.707 167.86 102.707 168 100 C166.354 97.604 166.354 97.604 164 96 C163.01 96 162.02 96 161 96 Z M9 114 C8.34 114.66 7.68 115.32 7 116 C7.341 119.94 8.803 122.826 10.812 126.188 C11.565 127.477 11.565 127.477 12.332 128.793 C14.091 131.121 15.245 132.089 18 133 C18.66 132.67 19.32 132.34 20 132 C20.763 126.052 18.408 121.709 15 117 C12.358 114.58 12.358 114.58 9 114 Z M-174 121 C-175.832 125.256 -176.448 128.628 -175 133.062 C-173.101 135.243 -173.101 135.243 -170.125 135.625 C-165.395 134.679 -163.319 131.947 -160.688 128.062 C-159.422 124.265 -159.389 121.221 -161.188 117.625 C-162.901 115.831 -162.901 115.831 -165.312 115.438 C-169.149 116.241 -171.643 117.944 -174 121 Z M-74 128 C-74.876 128.851 -75.752 129.703 -76.654 130.58 C-79.354 133.22 -82.024 135.887 -84.688 138.562 C-85.585 139.456 -86.483 140.35 -87.408 141.271 C-91.935 145.805 -96.328 150.393 -100.5 155.255 C-102.568 157.661 -104.723 159.983 -106.875 162.312 C-115.92 170.849 -115.92 170.849 -121 181 C-120.036 181.318 -119.072 181.635 -118.078 181.962 C-114.509 183.141 -110.945 184.336 -107.383 185.535 C-105.839 186.052 -104.294 186.565 -102.747 187.074 C-100.527 187.805 -98.312 188.551 -96.098 189.301 C-95.403 189.526 -94.708 189.751 -93.992 189.983 C-92.051 190.65 -92.051 190.65 -89 192 C-88.67 192.99 -88.34 193.98 -88 195 C-95.804 193.242 -103.204 190.905 -110.707 188.141 C-114.776 186.731 -118.774 185.802 -123 185 C-123.054 187.083 -123.093 189.166 -123.125 191.25 C-123.148 192.41 -123.171 193.57 -123.195 194.766 C-123.002 197.969 -122.714 199.363 -121 202 C-119.168 203.116 -119.168 203.116 -116.949 203.781 C-115.699 204.206 -115.699 204.206 -114.423 204.638 C-113.069 205.065 -113.069 205.065 -111.688 205.5 C-110.758 205.8 -109.828 206.101 -108.87 206.41 C-102.237 208.479 -95.571 210.118 -88.75 211.438 C-87.485 211.683 -87.485 211.683 -86.194 211.934 C-80.725 212.906 -75.553 213.139 -70 213 C-70.517 212.047 -71.034 211.095 -71.566 210.113 C-72.233 208.847 -72.898 207.58 -73.562 206.312 C-74.076 205.374 -74.076 205.374 -74.6 204.416 C-76.017 201.682 -77.049 199.641 -76.811 196.526 C-75.856 193.552 -74.689 192.214 -72.465 190.039 C-71.373 188.96 -71.373 188.96 -70.26 187.859 C-69.493 187.122 -68.727 186.385 -67.938 185.625 C-67.198 184.895 -66.459 184.166 -65.697 183.414 C-61.522 179.323 -57.235 175.401 -52.811 171.582 C-50.285 169.376 -47.87 167.058 -45.438 164.75 C-40.88 160.516 -36.119 156.645 -31.125 152.938 C-30.507 152.472 -29.889 152.007 -29.252 151.528 C-25.63 148.895 -22.382 147.186 -18 146 C-19.242 149.725 -20.477 150.258 -23.688 152.438 C-35.373 160.72 -45.754 170.527 -56.137 180.359 C-60.64 184.62 -65.233 188.778 -69.84 192.926 C-72.046 194.812 -72.046 194.812 -73 197 C-71.757 199.45 -70.471 201.773 -69.062 204.125 C-68.676 204.784 -68.29 205.442 -67.893 206.121 C-66.936 207.752 -65.969 209.376 -65 211 C-61.255 209.416 -58.707 207.076 -55.75 204.312 C-55.239 203.837 -54.728 203.361 -54.202 202.872 C-53.076 201.823 -51.953 200.771 -50.832 199.718 C-48.884 197.891 -46.929 196.072 -44.973 194.254 C-39.237 188.912 -33.509 183.576 -28 178 C-14.655 164.502 -14.655 164.502 -5 163 C-2.668 161.083 -2.668 161.083 -2.625 157.75 C-3.065 153.35 -4.182 151.366 -7 148 C-8.317 147.303 -9.649 146.63 -11 146 C-11.267 145.421 -11.534 144.842 -11.809 144.246 C-18.22 132.159 -34.789 124.391 -47 120 C-50.348 118.988 -53.636 118.602 -57.125 118.375 C-58.707 118.232 -58.707 118.232 -60.32 118.086 C-66.266 119.563 -69.74 123.759 -74 128 Z M68 119 C68 123.197 70.25 125.686 72.5 129.062 C89.594 155.706 97.298 187.898 102.262 218.828 C103.053 222.228 104.323 224.95 106 228 C107.95 227.805 107.95 227.805 110 227 C115.58 218.378 112.876 200.867 110.972 191.186 C104.987 165.864 92.271 143.37 75 124.188 C74.296 123.404 74.296 123.404 73.579 122.604 C72.429 121.361 71.219 120.175 70 119 C69.34 119 68.68 119 68 119 Z M-10 122 C-10 123.32 -10 124.64 -10 126 C-7.969 128.074 -7.969 128.074 -5.312 129.938 C-2.369 132.159 0.402 134.261 2.875 137 C4.999 139.457 4.999 139.457 9 139 C7.612 134.587 5.602 132.377 2.125 129.375 C0.829 128.242 0.829 128.242 -0.492 127.086 C-4.697 123.169 -4.697 123.169 -10 122 Z M179 131 C177.58 133.841 177.685 135.855 178 139 C180.255 142.476 181.819 142.956 185.875 143.938 C189.999 144.238 192.668 143.601 196 141 C197.347 136.958 197.47 134.984 195.625 131.125 C190.496 126.973 184.159 126.647 179 131 Z M15.898 168.98 C9.177 176.13 2.254 187.375 1.871 197.355 C1.914 198.228 1.956 199.101 2 200 C3.32 200.33 4.64 200.66 6 201 C9.452 197.042 11.603 193.015 13.812 188.312 C16.638 182.421 19.709 177.212 23.848 172.113 C25.268 169.991 25.268 169.991 24.684 167.23 C24.458 166.494 24.232 165.758 24 165 C20.179 165 18.666 166.487 15.898 168.98 Z M34.273 187.582 C28.601 193.615 25.639 199.382 25.707 207.707 C26.154 211.205 27.755 213.359 30 216 C33.761 217.881 37.904 217.511 42 217 C50.378 213.977 56.645 207.859 60.938 200.188 C63.269 195.123 64.057 190.509 63 185 C61.154 181.718 59.807 180.424 56.5 178.688 C47.235 176.14 40.614 181.602 34.273 187.582 Z M-194 182 C-193.67 183.32 -193.34 184.64 -193 186 C-192.01 185.67 -191.02 185.34 -190 185 C-190.33 183.68 -190.66 182.36 -191 181 C-192.224 180.925 -192.224 180.925 -194 182 Z " fill="#000000" transform="translate(418,210)"/>
<path d="M0 0 C0.66 0.66 1.32 1.32 2 2 C-4.625 5 -4.625 5 -8 5 C-8 4.34 -8 3.68 -8 3 C-5.36 2.01 -2.72 1.02 0 0 Z " fill="#000000" transform="translate(336,248)"/>
<path d="M0 0 C1.98 0 3.96 0 6 0 C6 0.99 6 1.98 6 3 C4.02 3 2.04 3 0 3 C0 2.01 0 1.02 0 0 Z " fill="#000000" transform="translate(700,319)"/>
<path d="M0 0 C-0.33 0.99 -0.66 1.98 -1 3 C-1.99 3.474 -2.98 3.949 -4 4.438 C-5.485 5.211 -5.485 5.211 -7 6 C-7.125 6.636 -7.25 7.271 -7.379 7.926 C-8 10 -8 10 -10.215 11.484 C-11.563 12.111 -11.563 12.111 -12.938 12.75 C-13.833 13.178 -14.729 13.606 -15.652 14.047 C-18 15 -18 15 -20 15 C-16.528 7.276 -8.701 0 0 0 Z " fill="#000000" transform="translate(355,347)"/>
<path d="M0 0 C2.344 0.215 2.344 0.215 5 1 C15.184 14.608 17.672 43.534 17 60 C5.354 63.389 -14.2 51.167 -24.474 45.679 C-31.3 41.874 -38.005 38.047 -44 33 C-43.67 31.68 -43.34 30.36 -43 29 C-32.82 28.382 -24.646 30.082 -15 33 C-13.669 33.344 -12.337 33.683 -11 34 C-12.186 32.493 -13.372 30.985 -14.558 29.478 C-15.564 28.197 -16.568 26.916 -17.571 25.634 C-19.797 22.79 -22.031 19.962 -24.324 17.172 C-24.96 16.393 -25.595 15.615 -26.25 14.812 C-27.093 13.801 -27.093 13.801 -27.953 12.77 C-28.299 12.186 -28.644 11.602 -29 11 C-28.67 10.01 -28.34 9.02 -28 8 C-17.963 8.515 -9.747 17.306 -3 24 C-2.505 24.99 -2.505 24.99 -2 26 C-2.016 25.032 -2.016 25.032 -2.032 24.044 C-2.073 21.113 -2.099 18.181 -2.125 15.25 C-2.142 14.234 -2.159 13.218 -2.176 12.172 C-2.185 10.702 -2.185 10.702 -2.195 9.203 C-2.211 7.852 -2.211 7.852 -2.227 6.474 C-1.987 3.861 -1.323 2.243 0 0 Z " fill="#000000" transform="translate(114,378)"/>
<path d="M0 0 C8.282 -0.587 15.414 0.5 23 4 C24.844 5.637 24.844 5.637 26 7 C19.557 10.221 7.724 7.017 1 5 C0.34 4.01 -0.32 3.02 -1 2 C-0.67 1.34 -0.34 0.68 0 0 Z " fill="#000000" transform="translate(104,445)"/>
<path d="M0 0 C5.967 1.57 10.829 4.75 16 8 C15.34 8.66 14.68 9.32 14 10 C11.664 8.525 9.331 7.045 7 5.562 C6.332 5.142 5.665 4.721 4.977 4.287 C3.3 3.218 1.648 2.112 0 1 C0 0.67 0 0.34 0 0 Z " fill="#000000" transform="translate(229,455)"/>
<path d="M0 0 C10.558 -0.554 10.558 -0.554 15 3 C14.67 3.99 14.34 4.98 14 6 C11.896 6.054 9.792 6.093 7.688 6.125 C5.93 6.16 5.93 6.16 4.137 6.195 C1 6 1 6 -2 4 C-1.34 2.68 -0.68 1.36 0 0 Z " fill="#000000" transform="translate(116,459)"/>
<path d="M0 0 C-0.008 2.23 -0.008 2.23 -1 5 C-3.429 6.841 -6.113 8.047 -8.875 9.312 C-9.608 9.672 -10.342 10.031 -11.098 10.4 C-16.535 13 -16.535 13 -20 13 C-20.33 11.68 -20.66 10.36 -21 9 C-5.409 -1.827 -5.409 -1.827 0 0 Z " fill="#000000" transform="translate(700,468)"/>
<path d="M0 0 C3.562 0.562 3.562 0.562 6 2.938 C8.329 8.341 8.677 13.291 6.762 18.914 C5.042 22.566 4.002 24.27 0.562 26.562 C-2.375 26.938 -2.375 26.938 -5.438 26.562 C-8.285 24.33 -9.287 23.013 -10.438 19.562 C-11.035 12.511 -9.615 7.352 -5.016 1.867 C-3.438 0.562 -3.438 0.562 0 0 Z " fill="#000000" transform="translate(593.4375,477.4375)"/>
<path d="M0 0 C0.33 1.32 0.66 2.64 1 4 C-3.437 6.095 -7.683 6.618 -12.5 7.125 C-13.246 7.211 -13.993 7.298 -14.762 7.387 C-18.527 7.807 -22.205 8.105 -26 8 C-26.66 6.68 -27.32 5.36 -28 4 C-20.673 -0.885 -8.598 -0.364 0 0 Z " fill="#000000" transform="translate(705,490)"/>
<path d="M0 0 C2.023 1.521 2.862 2.557 3.617 4.98 C4.466 12.25 3.232 17.165 -1.312 22.938 C-4.421 25.323 -6.081 26.082 -10 26 C-13.641 24.058 -14.762 22.759 -16 18.812 C-16 11.86 -13.889 6.046 -9 1 C-5.95 -0.525 -3.358 -0.236 0 0 Z " fill="#000000" transform="translate(436,496)"/>
<path d="M0 0 C4.169 0.452 7.087 2.011 10.641 4.168 C12.247 5.138 12.247 5.138 13.887 6.127 C14.997 6.807 16.106 7.487 17.25 8.188 C18.344 8.848 19.439 9.509 20.566 10.189 C26.814 13.979 32.965 17.88 39 22 C38.625 23.937 38.625 23.937 38 26 C37.34 26.33 36.68 26.66 36 27 C33.55 25.757 31.227 24.471 28.875 23.062 C28.216 22.676 27.558 22.29 26.879 21.893 C25.248 20.936 23.624 19.969 22 19 C21.629 20.33 21.629 20.33 21.25 21.688 C17.384 31.933 7.79 37.86 -1.703 42.25 C-14.902 47.443 -29.968 46.167 -43 41 C-47.248 39.089 -51.44 37.068 -55.568 34.91 C-59.858 32.687 -59.858 32.687 -64.551 31.914 C-69.105 33.933 -73.119 36.843 -77.205 39.67 C-77.892 40.123 -78.578 40.576 -79.285 41.043 C-79.903 41.466 -80.52 41.889 -81.156 42.325 C-83 43 -83 43 -85.232 42.122 C-85.816 41.752 -86.399 41.382 -87 41 C-85.653 37.818 -84.432 36.307 -81.492 34.512 C-80.764 34.059 -80.036 33.607 -79.286 33.141 C-78.092 32.422 -78.092 32.422 -76.875 31.688 C-75.161 30.636 -73.448 29.584 -71.734 28.531 C-70.815 27.969 -69.895 27.407 -68.947 26.828 C-65.797 24.874 -62.686 22.865 -59.578 20.844 C-58.506 20.153 -57.433 19.463 -56.329 18.751 C-54.216 17.39 -52.11 16.019 -50.011 14.637 C-49.041 14.018 -48.07 13.399 -47.07 12.762 C-46.212 12.204 -45.354 11.647 -44.469 11.073 C-41.51 9.787 -40.035 10.065 -37 11 C-38 15 -38 15 -49 22 C-31.51 17.71 -14.02 13.42 4 9 C2.35 7.68 0.7 6.36 -1 5 C-1 1 -1 1 0 0 Z M3.555 14.68 C-5.799 17.648 -15.335 19.843 -24.875 22.125 C-27.64 22.79 -30.406 23.455 -33.17 24.123 C-34.876 24.534 -36.583 24.944 -38.289 25.351 C-42.896 26.459 -47.454 27.664 -52 29 C-49.238 32.575 -45.222 33.656 -41.125 35.125 C-40.417 35.389 -39.71 35.654 -38.98 35.926 C-27.405 40.172 -13.476 41.153 -2 36 C6.053 32.147 13.54 26.605 17.219 18.223 C17.477 17.489 17.734 16.756 18 16 C12.695 12.463 9.46 12.705 3.555 14.68 Z " fill="#000000" transform="translate(531,496)"/>
<path d="M0 0 C0.33 1.32 0.66 2.64 1 4 C-3.069 5.852 -6.891 6.546 -11.312 7.125 C-12.567 7.293 -13.821 7.46 -15.113 7.633 C-16.066 7.754 -17.019 7.875 -18 8 C-18.495 5.525 -18.495 5.525 -19 3 C-6.515 -0.444 -6.515 -0.444 0 0 Z " fill="#000000" transform="translate(694,509)"/>
<path d="M0 0 C17.414 -0.293 17.414 -0.293 22 2 C21.67 3.65 21.34 5.3 21 7 C17.708 6.861 14.416 6.713 11.125 6.562 C10.188 6.523 9.251 6.484 8.285 6.443 C7.389 6.401 6.493 6.36 5.57 6.316 C4.743 6.28 3.915 6.243 3.063 6.205 C1 6 1 6 -1 5 C-0.67 3.35 -0.34 1.7 0 0 Z " fill="#000000" transform="translate(674,530)"/>
<path d="M0 0 C0.66 0 1.32 0 2 0 C2 1.65 2 3.3 2 5 C1.01 5.33 0.02 5.66 -1 6 C-1.043 4.334 -1.041 2.666 -1 1 C-0.67 0.67 -0.34 0.34 0 0 Z " fill="#000000" transform="translate(613,533)"/>
<path d="M0 0 C0.66 0 1.32 0 2 0 C3 3 3 3 1.348 6.574 C0.596 7.951 -0.166 9.322 -0.938 10.688 C-1.517 11.74 -1.517 11.74 -2.107 12.814 C-3.063 14.548 -4.03 16.275 -5 18 C-5.66 18 -6.32 18 -7 18 C-6.344 13.976 -5.088 10.499 -3.5 6.75 C-3.057 5.693 -2.613 4.636 -2.156 3.547 C-1 1 -1 1 0 0 Z " fill="#000000" transform="translate(608,547)"/>
<path d="M0 0 C0.99 0 1.98 0 3 0 C4.837 3.782 5.158 5.946 4 10 C2.062 9.438 2.062 9.438 0 8 C-0.812 4.438 -0.812 4.438 -1 1 C-0.67 0.67 -0.34 0.34 0 0 Z " fill="#000000" transform="translate(225,562)"/>
<path d="M0 0 C4.111 3.709 6.171 8.649 8.688 13.5 C9.199 14.463 9.71 15.426 10.236 16.418 C10.719 17.342 11.202 18.266 11.699 19.219 C12.141 20.064 12.583 20.909 13.038 21.779 C14 24 14 24 14 27 C10.357 25.575 9.235 24.153 7.676 20.605 C7.287 19.732 6.898 18.859 6.498 17.959 C6.107 17.044 5.716 16.13 5.312 15.188 C4.91 14.285 4.507 13.382 4.092 12.451 C2.268 8.293 0.775 4.493 0 0 Z " fill="#000000" transform="translate(215,568)"/>
<path d="M0 0 C1.32 0.33 2.64 0.66 4 1 C3.401 4.301 2.303 6.214 0.125 8.75 C-0.388 9.364 -0.901 9.977 -1.43 10.609 C-3 12 -3 12 -6 12 C-5.543 6.973 -3.008 3.851 0 0 Z " fill="#000000" transform="translate(599,573)"/>
<path d="M0 0 C-1.389 3.356 -2.917 5.073 -6 7 C-6.66 7 -7.32 7 -8 7 C-7.812 5.188 -7.812 5.188 -7 3 C-2.821 0 -2.821 0 0 0 Z " fill="#000000" transform="translate(250,598)"/>
<path d="M0 0 C3.375 0.25 3.375 0.25 7 1 C8.438 3.062 8.438 3.062 9 5 C4.824 6.392 2.865 4.823 -1 3 C-0.67 2.01 -0.34 1.02 0 0 Z " fill="#000000" transform="translate(245,614)"/>
<path d="M0 0 C1.32 0.33 2.64 0.66 4 1 C-12.33 31.925 -31.719 48.368 -64.75 59.375 C-65.553 59.646 -66.356 59.918 -67.184 60.197 C-79.732 64.432 -92.376 68.293 -105.125 71.875 C-105.903 72.096 -106.681 72.317 -107.483 72.545 C-109.676 73.164 -111.872 73.769 -114.07 74.367 C-115.316 74.709 -116.561 75.05 -117.844 75.402 C-120.769 75.956 -122.267 76.05 -125 75 C-124.67 73.68 -124.34 72.36 -124 71 C-123.098 70.76 -122.196 70.52 -121.267 70.272 C-103.646 65.563 -86.136 60.59 -68.812 54.875 C-68.088 54.64 -67.363 54.405 -66.617 54.162 C-58.448 51.502 -50.556 48.498 -42.77 44.855 C-42.066 44.527 -41.363 44.198 -40.639 43.859 C-32.46 39.923 -22.192 33.384 -18 25 C-18.66 25 -19.32 25 -20 25 C-20 24.34 -20 23.68 -20 23 C-18.68 22.67 -17.36 22.34 -16 22 C-16.99 20.68 -17.98 19.36 -19 18 C-16.69 18.33 -14.38 18.66 -12 19 C-10.557 16.962 -9.121 14.92 -7.688 12.875 C-7.283 12.305 -6.879 11.735 -6.463 11.148 C-3.958 7.564 -1.865 3.972 0 0 Z " fill="#000000" transform="translate(593,634)"/>
<path d="M0 0 C4.008 0.628 6.757 2.672 10.062 4.938 C11.105 5.648 12.148 6.358 13.223 7.09 C14.139 7.72 15.056 8.351 16 9 C16.99 9.66 17.98 10.32 19 11 C19 11.99 19 12.98 19 14 C15.94 13.404 14.019 12.496 11.582 10.566 C10.968 10.082 10.354 9.598 9.721 9.1 C9.091 8.592 8.461 8.085 7.812 7.562 C7.171 7.059 6.53 6.556 5.869 6.037 C1.137 2.275 1.137 2.275 0 0 Z " fill="#000000" transform="translate(294,680)"/>
<path d="M0 0 C0.99 0.33 1.98 0.66 3 1 C3 2.98 3 4.96 3 7 C2.01 7 1.02 7 0 7 C-0.381 5.009 -0.713 3.007 -1 1 C-0.67 0.67 -0.34 0.34 0 0 Z " fill="#000000" transform="translate(331,696)"/>
</svg>
