<?xml version="1.0" encoding="UTF-8"?>
<!-- Generator: visioncortex VTracer 0.6.0 -->
<svg version="1.1" xmlns="http://www.w3.org/2000/svg" width="847" height="847">
<path d="M0 0 C0.33 0.99 0.66 1.98 1 3 C-3.95 5.475 -3.95 5.475 -9 8 C-9.66 6.68 -10.32 5.36 -11 4 C-7.203 1.174 -4.814 -0.566 0 0 Z " fill="#000000" transform="translate(233,155)"/>
<path d="M0 0 C1.32 0 2.64 0 4 0 C4.33 0.99 4.66 1.98 5 3 C4.67 3.66 4.34 4.32 4 5 C2.68 5 1.36 5 0 5 C-0.33 4.01 -0.66 3.02 -1 2 C-0.67 1.34 -0.34 0.68 0 0 Z " fill="#000000" transform="translate(213,163)"/>
<path d="M0 0 C1.32 0 2.64 0 4 0 C3.25 4.75 3.25 4.75 1 7 C-0.32 7 -1.64 7 -3 7 C-2.25 2.25 -2.25 2.25 0 0 Z " fill="#000000" transform="translate(204,170)"/>
<path d="M0 0 C0.66 0.66 1.32 1.32 2 2 C1.888 5.709 1.437 7.505 -1.039 10.309 C-1.892 11.011 -2.746 11.714 -3.625 12.438 C-4.535 13.216 -5.445 13.995 -6.383 14.797 C-7.678 15.887 -7.678 15.887 -9 17 C-30.28 35.698 -42.909 66.446 -46 94 C-46.285 99.15 -46.325 104.281 -46.312 109.438 C-46.329 110.74 -46.345 112.043 -46.361 113.385 C-46.371 133.468 -40.055 150.418 -29 167 C-28.562 169.5 -28.562 169.5 -29 172 C-31.5 173.812 -31.5 173.812 -34 175 C-43.592 170.64 -48.525 159.459 -52.189 150.172 C-61.051 126.435 -61.094 97.262 -54 73 C-53.764 72.158 -53.528 71.315 -53.285 70.447 C-46.832 47.865 -35.37 25.247 -18 9 C-17.34 9 -16.68 9 -16 9 C-16 8.34 -16 7.68 -16 7 C-14.102 5.309 -14.102 5.309 -11.625 3.438 C-10.813 2.817 -10.001 2.197 -9.164 1.559 C-5.614 -0.998 -4.224 -1.162 0 0 Z " fill="#000000" transform="translate(263,194)"/>
<path d="M0 0 C1.32 0 2.64 0 4 0 C4.33 1.32 4.66 2.64 5 4 C3.02 4.99 3.02 4.99 1 6 C0.34 5.34 -0.32 4.68 -1 4 C-0.625 1.875 -0.625 1.875 0 0 Z " fill="#000000" transform="translate(321,218)"/>
<path d="M0 0 C1.65 0.33 3.3 0.66 5 1 C4.67 2.32 4.34 3.64 4 5 C2.35 4.67 0.7 4.34 -1 4 C-0.67 2.68 -0.34 1.36 0 0 Z " fill="#000000" transform="translate(306,220)"/>
<path d="M0 0 C0.495 1.98 0.495 1.98 1 4 C-3.32 6.771 -7.624 9.339 -12.188 11.688 C-19.05 15.381 -24.957 20.122 -31 25 C-31.681 25.525 -32.361 26.049 -33.062 26.59 C-37.658 30.26 -41.165 34.705 -44.789 39.316 C-47.058 42.071 -49.354 44.603 -52 47 C-54.312 46.812 -54.312 46.812 -56 46 C-56.879 43.599 -57.195 42.456 -56.172 40.062 C-47.123 26.936 -18.41 -6.137 0 0 Z " fill="#000000" transform="translate(293,225)"/>
<path d="M0 0 C2 2 2 2 2.375 4.438 C2 7 2 7 0.461 8.602 C-2.846 10.481 -6.036 10.651 -9.75 10.938 C-34.793 13.464 -56.046 23.482 -75 40 C-75.955 40.828 -75.955 40.828 -76.93 41.672 C-89.956 53.798 -98.698 71.346 -99.405 89.139 C-99.69 108.102 -92.343 123.797 -80 138 C-81.875 142.875 -81.875 142.875 -83 144 C-87.186 143.854 -89.395 143.514 -92.625 140.77 C-106.244 123.813 -112.18 105.846 -111 84 C-108.299 64.05 -98.818 48.14 -85 34 C-84.343 33.281 -83.685 32.561 -83.008 31.82 C-66.754 14.45 -41.502 2.765 -18 0 C-16.97 -0.121 -15.94 -0.242 -14.879 -0.367 C-4.773 -1.382 -4.773 -1.382 0 0 Z " fill="#000000" transform="translate(357,227)"/>
<path d="M0 0 C1.891 0.539 1.891 0.539 4 2 C4.797 4.539 5.331 6.775 5.75 9.375 C5.875 10.048 6 10.721 6.129 11.414 C6.714 14.68 7 17.67 7 21 C8.097 20.639 9.194 20.278 10.324 19.906 C11.779 19.437 13.233 18.968 14.688 18.5 C15.409 18.262 16.13 18.023 16.873 17.777 C24.074 15.476 24.074 15.476 28 16 C30 18 30 18 30.062 19.938 C27.959 24.021 22.763 24.756 18.645 26.074 C15.436 27.071 12.222 28.046 9 29 C9.144 30.146 9.289 31.292 9.438 32.473 C9.625 34.003 9.813 35.533 10 37.062 C10.095 37.815 10.191 38.567 10.289 39.342 C10.843 43.913 11.282 48.388 11 53 C10.34 53.66 9.68 54.32 9 55 C6.375 54.625 6.375 54.625 4 54 C3.495 51.272 2.996 48.543 2.5 45.812 C2.357 45.044 2.214 44.275 2.066 43.482 C1.368 39.606 0.81 35.959 1 32 C-0.085 32.433 -1.171 32.866 -2.289 33.312 C-3.734 33.876 -5.179 34.438 -6.625 35 C-7.338 35.286 -8.051 35.572 -8.785 35.867 C-13.02 37.499 -16.383 38.35 -21 38 C-21.495 35.525 -21.495 35.525 -22 33 C-18.367 29.833 -14.337 28.429 -9.875 26.812 C-9.147 26.54 -8.418 26.267 -7.668 25.986 C-2.281 24 -2.281 24 0 24 C-0.217 22.915 -0.433 21.829 -0.656 20.711 C-0.938 19.266 -1.219 17.82 -1.5 16.375 C-1.643 15.662 -1.786 14.949 -1.934 14.215 C-2.723 10.118 -3.452 6.184 -3 2 C-2.01 1.34 -1.02 0.68 0 0 Z " fill="#000000" transform="translate(409,256)"/>
<path d="M0 0 C0.99 0.33 1.98 0.66 3 1 C3.284 9.921 2.424 18.596 1.312 27.438 C1.224 28.154 1.135 28.871 1.044 29.609 C-2.096 54.846 -5.572 81.235 -15 105 C-15.99 105 -16.98 105 -18 105 C-17.396 97.102 -15.597 89.566 -13.791 81.878 C-8.358 58.604 -4.351 35.035 -2.631 11.174 C-2.321 7.097 -1.793 3.698 0 0 Z " fill="#000000" transform="translate(547,268)"/>
<path d="M0 0 C0.99 0.33 1.98 0.66 3 1 C1.65 24.701 1.65 24.701 -1 30 C-2.32 30 -3.64 30 -5 30 C-1.569 1.569 -1.569 1.569 0 0 Z " fill="#000000" transform="translate(569,273)"/>
<path d="M0 0 C7.594 6.768 8.175 16.906 8.875 26.562 C9.209 38.428 8.614 50.225 7.875 62.062 C6.012 77.187 6.012 77.187 8.125 91.75 C15.587 99.382 27.434 102.413 37.312 105.812 C38.662 106.284 40.011 106.756 41.361 107.229 C48.204 109.622 55.063 111.972 61.922 114.32 C62.569 114.542 63.216 114.764 63.883 114.993 C66.947 116.044 70.013 117.09 73.082 118.126 C96.291 126.035 96.291 126.035 99.875 132.562 C101.051 139.621 98.747 144.687 94.875 150.562 C82.564 166.88 63.819 176.958 47.049 188.085 C17.634 205.886 17.634 205.886 -2.125 232.562 C-3.301 235.567 -4.496 238.564 -5.688 241.562 C-6.021 242.41 -6.355 243.258 -6.699 244.131 C-34.359 313.695 -34.359 313.695 -54.125 323.562 C-59.248 324.141 -62.854 323.973 -67.305 321.039 C-82.139 309.006 -92.211 289.61 -102.531 273.873 C-109.084 262.241 -109.084 262.241 -119.125 254.562 C-122.024 255.176 -122.024 255.176 -125.129 256.492 C-126.33 256.954 -127.532 257.416 -128.77 257.892 C-129.408 258.144 -130.045 258.396 -130.702 258.656 C-134.087 259.989 -137.495 261.261 -140.902 262.535 C-141.596 262.795 -142.289 263.055 -143.003 263.322 C-202.554 285.468 -202.554 285.468 -219.062 279.5 C-222.792 277.14 -224.351 275.628 -226.125 271.562 C-227.663 257.404 -216.319 240.296 -210.375 227.875 C-209.565 226.176 -208.756 224.478 -207.947 222.779 C-200.104 206.343 -192.105 190.065 -183.233 174.154 C-171.599 153.176 -173.026 136.72 -177.82 113.891 C-187.342 68.374 -187.342 68.374 -187.562 49.938 C-187.573 49.209 -187.583 48.481 -187.594 47.73 C-187.479 40.997 -185.975 34.782 -181.625 29.562 C-177.62 26.359 -174.067 26.155 -169.113 26.227 C-147.408 28.667 -123.453 45.679 -106.525 58.441 C-102.074 61.769 -98.932 63.622 -93.312 63.438 C-82.718 61.668 -76.545 54.615 -69.875 46.75 C-65.087 41.205 -59.603 36.406 -54.125 31.562 C-53.314 30.843 -53.314 30.843 -52.487 30.108 C-12.124 -5.577 -12.124 -5.577 0 0 Z M-16.938 22.875 C-17.511 23.321 -18.085 23.768 -18.677 24.228 C-24.974 29.165 -31.067 34.336 -37.125 39.562 C-37.865 40.201 -38.605 40.839 -39.367 41.496 C-41.297 43.174 -43.214 44.864 -45.125 46.562 C-46.343 47.641 -46.343 47.641 -47.586 48.742 C-53.905 54.378 -60.032 59.982 -65.375 66.562 C-73.084 75.425 -83.179 79.726 -94.688 80.938 C-104.318 79.887 -111.234 75.982 -119.125 70.562 C-142.996 53.403 -142.996 53.403 -170.125 43.562 C-174.823 52.959 -169.219 70.114 -167.5 80.125 C-167.372 80.873 -167.243 81.621 -167.111 82.391 C-165.657 90.769 -164.057 99.098 -162.172 107.391 C-161.93 108.456 -161.93 108.456 -161.683 109.543 C-161.524 110.247 -161.364 110.95 -161.199 111.675 C-156.376 132.959 -153.522 152.844 -163.754 172.957 C-164.107 173.657 -164.46 174.356 -164.823 175.077 C-167.844 181.049 -170.923 186.991 -174.011 192.928 C-180.618 205.632 -187.096 218.396 -193.378 231.264 C-194.118 232.781 -194.86 234.296 -195.604 235.81 C-199.258 243.257 -202.789 250.574 -205.125 258.562 C-198.373 257.396 -192.04 254.777 -185.625 252.438 C-184.553 252.048 -184.553 252.048 -183.46 251.651 C-169.095 246.423 -154.933 240.727 -140.801 234.903 C-137.954 233.734 -135.102 232.576 -132.248 231.423 C-130.806 230.839 -129.366 230.249 -127.928 229.655 C-125.782 228.772 -123.629 227.911 -121.473 227.055 C-120.835 226.788 -120.198 226.52 -119.541 226.245 C-115.032 224.49 -111.803 224.391 -107.125 225.562 C-101.732 228.61 -98.247 233.772 -95.062 238.938 C-94.603 239.665 -94.144 240.393 -93.671 241.143 C-85.804 253.734 -78.379 266.613 -71.227 279.621 C-70.275 281.346 -70.275 281.346 -69.304 283.105 C-68.079 285.334 -66.862 287.567 -65.655 289.805 C-65.105 290.806 -64.555 291.808 -63.988 292.84 C-63.507 293.729 -63.025 294.619 -62.529 295.535 C-61.215 297.866 -61.215 297.866 -58.125 298.562 C-57.553 296.899 -57.553 296.899 -56.97 295.202 C-50.319 275.876 -43.63 256.561 -36.448 237.424 C-35.865 235.868 -35.284 234.312 -34.706 232.754 C-29.271 218.136 -23.221 206.598 -12.125 195.562 C-11.269 194.707 -10.413 193.851 -9.531 192.969 C3.816 180.265 19.877 171.451 35.875 162.562 C38.147 161.292 40.419 160.021 42.691 158.75 C54.355 152.234 66.042 145.767 77.875 139.562 C77.081 137.453 77.081 137.453 75.259 136.82 C74.208 136.472 74.208 136.472 73.135 136.117 C72.337 135.849 71.539 135.581 70.717 135.304 C69.843 135.018 68.968 134.732 68.066 134.438 C67.161 134.134 66.255 133.831 65.322 133.519 C63.374 132.867 61.426 132.218 59.476 131.572 C54.421 129.893 49.376 128.183 44.332 126.473 C43.338 126.136 42.343 125.798 41.319 125.451 C33.375 122.75 25.473 119.967 17.625 117 C16.624 116.632 15.623 116.264 14.592 115.885 C4.907 112.156 -3.228 106.72 -7.746 97.117 C-9.709 91.67 -9.489 86.286 -9.375 80.562 C-9.359 78.887 -9.359 78.887 -9.342 77.177 C-9.248 70.117 -8.877 63.126 -8.352 56.086 C-7.965 49.69 -8.01 43.28 -8 36.875 C-7.995 35.644 -7.991 34.412 -7.986 33.143 C-7.988 31.978 -7.99 30.813 -7.992 29.613 C-7.994 28.046 -7.994 28.046 -7.996 26.447 C-8.118 23.712 -8.508 21.225 -9.125 18.562 C-12.375 18.562 -14.473 20.939 -16.938 22.875 Z M49.266 173.527 C48.125 174.158 46.984 174.789 45.809 175.439 C44.58 176.125 43.353 176.812 42.125 177.5 C41.51 177.844 40.894 178.187 40.26 178.541 C26.974 185.97 14.449 193.58 2.875 203.562 C2.072 204.22 1.269 204.877 0.441 205.555 C-9.243 213.688 -14.16 223.029 -18.375 234.812 C-18.834 236.067 -19.295 237.322 -19.757 238.576 C-20.723 241.204 -21.68 243.836 -22.633 246.47 C-24.156 250.668 -25.733 254.846 -27.312 259.023 C-28.085 261.078 -28.855 263.134 -29.625 265.189 C-30.123 266.517 -30.624 267.844 -31.128 269.17 C-31.829 271.019 -32.516 272.873 -33.203 274.727 C-33.797 276.311 -33.797 276.311 -34.403 277.928 C-35.408 280.639 -35.408 280.639 -34.125 283.562 C-27.918 272.437 -22.465 261.074 -17.438 249.375 C-17.156 248.723 -16.874 248.071 -16.584 247.399 C-14.024 241.468 -11.47 235.54 -9.164 229.504 C-5.309 219.56 -0.204 213.287 7.875 206.562 C8.438 206.089 9.001 205.615 9.582 205.127 C20.937 195.73 33.367 187.698 45.626 179.545 C46.294 179.099 46.963 178.652 47.651 178.192 C48.921 177.344 50.194 176.499 51.47 175.659 C54.696 173.607 54.696 173.607 56.875 170.562 C53.847 170.562 51.903 172.067 49.266 173.527 Z M-114.125 241.562 C-117.095 242.882 -120.065 244.202 -123.125 245.562 C-123.125 245.893 -123.125 246.222 -123.125 246.562 C-121.949 246.48 -120.774 246.398 -119.562 246.312 C-114.76 246.278 -112.069 247.933 -108.125 250.562 C-109.437 246.626 -111.044 244.335 -114.125 241.562 Z M-36.125 283.562 C-35.125 285.562 -35.125 285.562 -35.125 285.562 Z " fill="#000000" transform="translate(478.125,306.4375)"/>
<path d="M0 0 C0.99 0.33 1.98 0.66 3 1 C2.25 8.625 2.25 8.625 0 12 C-0.99 11.67 -1.98 11.34 -3 11 C-2.692 9.353 -2.379 7.708 -2.062 6.062 C-1.888 5.146 -1.714 4.229 -1.535 3.285 C-1 1 -1 1 0 0 Z " fill="#000000" transform="translate(563,311)"/>
<path d="M0 0 C1.238 0.155 1.238 0.155 2.5 0.312 C7.544 7.879 5.699 19.791 5.688 28.562 C5.688 29.261 5.688 29.96 5.688 30.68 C5.676 39.818 5.445 48.893 4.625 58 C4.547 58.883 4.468 59.765 4.387 60.675 C3.959 64.815 3.528 68.601 1.5 72.312 C-0.938 73.312 -0.938 73.312 -3.5 73.312 C-5.169 72.094 -5.169 72.094 -6.5 70.312 C-6.657 68.252 -6.657 68.252 -6.355 65.809 C-6.256 64.86 -6.156 63.911 -6.053 62.934 C-5.932 61.883 -5.812 60.832 -5.688 59.75 C-4.247 45.192 -4.381 30.719 -4.575 16.107 C-4.583 15.21 -4.592 14.312 -4.6 13.388 C-4.616 11.684 -4.641 9.981 -4.675 8.278 C-4.693 6.289 -4.606 4.299 -4.5 2.312 C-2.5 0.312 -2.5 0.312 0 0 Z " fill="#000000" transform="translate(500.5,311.6875)"/>
<path d="M0 0 C1.98 0.495 1.98 0.495 4 1 C3.625 2.938 3.625 2.938 3 5 C2.01 5.495 2.01 5.495 1 6 C0.34 5.67 -0.32 5.34 -1 5 C-0.67 3.35 -0.34 1.7 0 0 Z " fill="#000000" transform="translate(558,332)"/>
<path d="M0 0 C1.207 0.031 1.207 0.031 2.438 0.062 C4.054 2.954 4.758 5.291 5.07 8.582 C5.154 9.44 5.238 10.298 5.324 11.182 C5.403 12.07 5.481 12.959 5.562 13.875 C5.649 14.752 5.735 15.629 5.824 16.533 C6.283 21.399 6.531 26.176 6.438 31.062 C7.368 30.956 7.368 30.956 8.318 30.847 C11.127 30.532 13.938 30.235 16.75 29.938 C18.215 29.769 18.215 29.769 19.709 29.598 C20.647 29.501 21.585 29.404 22.551 29.305 C23.415 29.21 24.279 29.116 25.169 29.019 C27.438 29.062 27.438 29.062 30.438 31.062 C30.625 33.688 30.625 33.688 30.438 36.062 C25.787 38.317 21.195 38.699 16.125 39.188 C15.289 39.274 14.453 39.36 13.592 39.449 C11.541 39.66 9.489 39.862 7.438 40.062 C7.461 41.255 7.484 42.447 7.508 43.676 C7.527 45.242 7.545 46.809 7.562 48.375 C7.579 49.161 7.596 49.946 7.613 50.756 C7.623 51.892 7.623 51.892 7.633 53.051 C7.649 54.096 7.649 54.096 7.665 55.161 C7.438 57.062 7.438 57.062 5.438 60.062 C3.062 59.812 3.062 59.812 0.438 59.062 C-2.112 55.548 -1.765 52.021 -1.688 47.812 C-1.669 46.549 -1.651 45.286 -1.633 43.984 C-1.61 43.02 -1.586 42.056 -1.562 41.062 C-3.498 41.405 -3.498 41.405 -5.473 41.754 C-7.19 42.045 -8.907 42.335 -10.625 42.625 C-11.896 42.852 -11.896 42.852 -13.193 43.084 C-18.311 43.934 -22.472 44.105 -27.562 43.062 C-27.562 41.413 -27.562 39.762 -27.562 38.062 C-22.124 35.456 -17.073 34.252 -11.125 33.375 C-10.298 33.245 -9.471 33.116 -8.619 32.982 C-6.602 32.668 -4.582 32.364 -2.562 32.062 C-2.635 30.998 -2.707 29.933 -2.781 28.836 C-4.017 9.835 -4.017 9.835 -3.562 1.062 C-2.562 0.062 -2.562 0.062 0 0 Z " fill="#000000" transform="translate(602.5625,341.9375)"/>
<path d="M0 0 C0.99 0.66 1.98 1.32 3 2 C0.911 10.103 -1.571 18.054 -4.224 25.988 C-4.872 27.93 -5.513 29.874 -6.152 31.818 C-11.624 48.323 -11.624 48.323 -15 55 C-15.99 55.495 -15.99 55.495 -17 56 C-17.66 55.67 -18.32 55.34 -19 55 C-18.264 50.608 -16.885 46.502 -15.418 42.312 C-15.163 41.574 -14.907 40.835 -14.644 40.073 C-13.828 37.714 -13.008 35.357 -12.188 33 C-11.116 29.918 -10.047 26.834 -8.98 23.75 C-8.722 23.003 -8.463 22.257 -8.196 21.488 C-6.251 15.837 -4.497 10.152 -2.853 4.406 C-2 2 -2 2 0 0 Z " fill="#000000" transform="translate(555,344)"/>
<path d="M0 0 C1.454 0.031 1.454 0.031 2.938 0.062 C4.988 3.6 5.676 7.087 6.453 11.082 C6.735 12.501 7.017 13.92 7.299 15.339 C7.444 16.08 7.589 16.821 7.739 17.585 C10.154 29.905 12.75 42.1 16.247 54.169 C18.473 62.093 18.473 62.093 16.938 66.062 C15.947 67.053 15.947 67.053 14.938 68.062 C12.445 67.991 12.445 67.991 9.938 67.062 C8.68 64.958 8.68 64.958 7.812 62.211 C7.492 61.212 7.171 60.212 6.84 59.183 C5.448 54.369 4.125 49.556 2.938 44.688 C2.684 43.657 2.431 42.626 2.169 41.564 C0.494 34.633 -1.055 27.683 -2.438 20.688 C-2.605 19.863 -2.773 19.039 -2.945 18.19 C-4.02 12.498 -4.523 6.856 -4.062 1.062 C-3.062 0.062 -3.062 0.062 0 0 Z " fill="#000000" transform="translate(322.0625,371.9375)"/>
<path d="M0 0 C0.99 0.33 1.98 0.66 3 1 C2.577 7.491 0.089 12.335 -3 18 C-3.99 18 -4.98 18 -6 18 C-5.413 13.51 -4.236 9.775 -2.438 5.625 C-1.982 4.565 -1.527 3.506 -1.059 2.414 C-0.709 1.617 -0.36 0.821 0 0 Z " fill="#000000" transform="translate(526,381)"/>
<path d="M0 0 C2.438 0.75 2.438 0.75 5 2 C5.863 3.809 5.863 3.809 6 6 C4.672 8.113 4.672 8.113 2.75 10.312 C-0.408 14.117 -2.224 17.42 -4 22 C-4.66 22.66 -5.32 23.32 -6 24 C-8.935 23.633 -9.864 23.136 -12 21 C-12 13.93 -9.439 9.405 -5 4 C-2.125 1.438 -2.125 1.438 0 0 Z " fill="#000000" transform="translate(425,404)"/>
<path d="M0 0 C3 -0.312 3 -0.312 6 0 C8.826 2.826 8.6 5.115 9.062 9.062 C9.145 9.761 9.227 10.46 9.312 11.18 C10.2 19.098 10.626 27.044 11 35 C11.704 34.856 12.408 34.711 13.133 34.562 C20.899 33.103 29.13 31.763 37 33 C38.906 34.859 38.906 34.859 40 37 C39.938 39.625 39.938 39.625 39 42 C35.931 43.979 33.179 44.353 29.578 44.633 C28.553 44.717 27.529 44.8 26.473 44.887 C25.409 44.965 24.346 45.044 23.25 45.125 C22.171 45.211 21.092 45.298 19.98 45.387 C17.321 45.599 14.661 45.803 12 46 C11.98 46.868 11.96 47.736 11.94 48.63 C11.862 51.847 11.775 55.064 11.683 58.28 C11.644 59.673 11.609 61.066 11.578 62.459 C11.533 64.46 11.473 66.46 11.414 68.461 C11.383 69.665 11.351 70.87 11.319 72.111 C11 75 11 75 9 77 C6 77.312 6 77.312 3 77 C0.671 73.507 0.764 72.14 0.805 68.02 C0.811 66.856 0.818 65.693 0.824 64.494 C0.841 63.279 0.858 62.064 0.875 60.812 C0.884 59.586 0.893 58.359 0.902 57.096 C0.926 54.064 0.959 51.032 1 48 C0.324 48.101 -0.352 48.203 -1.048 48.307 C-4.113 48.759 -7.182 49.192 -10.25 49.625 C-11.313 49.785 -12.377 49.945 -13.473 50.109 C-14.497 50.251 -15.522 50.393 -16.578 50.539 C-17.521 50.675 -18.463 50.811 -19.435 50.952 C-22.284 51.005 -23.66 50.598 -26 49 C-27 46.625 -27 46.625 -27 44 C-24.234 40.556 -22.113 39.437 -17.797 38.734 C-16.327 38.483 -16.327 38.483 -14.828 38.227 C-13.812 38.069 -12.797 37.912 -11.75 37.75 C-10.719 37.577 -9.688 37.405 -8.625 37.227 C-6.085 36.803 -3.544 36.395 -1 36 C-0.923 29.911 -0.924 23.869 -1.293 17.789 C-1.373 16.448 -1.373 16.448 -1.455 15.079 C-1.567 13.291 -1.689 11.504 -1.82 9.718 C-1.872 8.891 -1.923 8.063 -1.977 7.211 C-2.055 6.102 -2.055 6.102 -2.135 4.97 C-2 3 -2 3 0 0 Z " fill="#000000" transform="translate(226,412)"/>
<path d="M0 0 C2.409 1.6 3.759 3.005 5.234 5.484 C4.824 9.895 4.824 9.895 3.234 11.484 C-1.496 11.127 -4.105 10.413 -7.766 7.484 C-10.174 6.486 -10.174 6.486 -12.766 6.484 C-15.603 7.87 -17.536 9.254 -19.766 11.484 C-22.891 11.109 -22.891 11.109 -25.766 10.484 C-26.578 8.359 -26.578 8.359 -26.766 5.484 C-20.054 -5.002 -10.365 -5.215 0 0 Z " fill="#000000" transform="translate(381.765625,425.515625)"/>
<path d="M0 0 C4.934 2.524 6.315 6.431 8.203 11.367 C12.153 24.419 10.849 37.879 4.492 49.836 C-6.052 67.345 -24.06 83.5 -44.352 88.59 C-55.488 90.314 -64.66 89.662 -74 83 C-81.57 76.377 -88.121 66.152 -89.221 55.949 C-89.34 53.65 -89.371 51.365 -89.375 49.062 C-89.399 48.29 -89.424 47.517 -89.449 46.721 C-89.478 41.001 -88.314 37.683 -85 33 C-81.092 30.394 -79.658 30.261 -75 31 C-72.29 32.848 -69.846 34.891 -67.352 37.02 C-63.621 40.161 -60.581 41.787 -55.75 42.438 C-43.447 41.002 -35.512 33.502 -27.938 24.188 C-25.837 21.474 -23.8 18.724 -21.785 15.945 C-8.819 -1.83 -8.819 -1.83 0 0 Z M-5 10 C-9.762 15.028 -13.95 20.249 -17.875 25.938 C-26.584 38.351 -36.834 48.553 -52.312 51.438 C-53.872 51.649 -55.434 51.846 -57 52 C-55.848 54.468 -54.952 56.048 -53 58 C-43.842 59.511 -37.173 56.633 -29.809 51.461 C-21.882 45.113 -17.786 36.219 -14 27 C-12.35 27.33 -10.7 27.66 -9 28 C-9.33 37.886 -13.396 47.132 -20.176 54.41 C-29.846 62.838 -39.055 66.603 -51.773 66.371 C-56.013 65.884 -57.86 64.791 -61 62 C-61.66 62 -62.32 62 -63 62 C-63.193 61.408 -63.387 60.817 -63.586 60.207 C-63.846 59.417 -64.107 58.627 -64.375 57.812 C-64.63 57.035 -64.885 56.258 -65.148 55.457 C-65.429 54.646 -65.71 53.835 -66 53 C-66.272 52.156 -66.544 51.311 -66.824 50.441 C-68.248 47.485 -69.842 46.111 -72.438 44.125 C-73.22 43.509 -74.002 42.893 -74.809 42.258 C-75.893 41.635 -75.893 41.635 -77 41 C-77.99 41.33 -78.98 41.66 -80 42 C-80.668 53.667 -79.452 62.339 -71.75 71.438 C-66.469 76.857 -61.924 80.084 -54.25 80.5 C-37.354 79.698 -22.327 67.957 -11.188 56.062 C-3.704 47.431 1.678 37.363 1.293 25.703 C0.752 20.712 -0.13 15.672 -2 11 C-2.99 10.67 -3.98 10.34 -5 10 Z " fill="#000000" transform="translate(451,424)"/>
<path d="M0 0 C1.207 0.031 1.207 0.031 2.438 0.062 C3.734 2.023 3.734 2.023 4.438 5.062 C3.273 8.181 1.467 10.887 -0.312 13.688 C-1.347 15.393 -2.378 17.1 -3.406 18.809 C-3.935 19.68 -4.463 20.551 -5.008 21.449 C-7.406 25.481 -9.628 29.598 -11.812 33.75 C-12.224 34.527 -12.636 35.305 -13.06 36.105 C-15.057 39.939 -16.91 43.784 -18.566 47.777 C-18.875 48.521 -19.183 49.264 -19.501 50.031 C-20.068 51.43 -20.617 52.837 -21.144 54.253 C-21.895 56.133 -21.895 56.133 -23.562 59.062 C-26.141 60.051 -26.141 60.051 -28.562 60.062 C-30.5 59.125 -30.5 59.125 -31.562 57.062 C-30.369 50.875 -28.177 45.4 -25.562 39.688 C-25.169 38.823 -24.776 37.959 -24.372 37.069 C-7.308 0.178 -7.308 0.178 0 0 Z " fill="#000000" transform="translate(328.5625,479.9375)"/>
<path d="M0 0 C3.72 1.267 5.277 3.402 7.434 6.594 C8.076 7.532 8.718 8.471 9.379 9.438 C10.059 10.449 10.738 11.459 11.438 12.5 C12.88 14.612 14.324 16.722 15.77 18.832 C16.486 19.881 17.202 20.93 17.94 22.01 C20.77 26.117 23.686 30.158 26.625 34.188 C31.869 41.396 37.006 48.674 42.089 55.997 C44.569 59.565 47.054 63.115 49.695 66.566 C50.435 67.534 51.175 68.503 51.938 69.5 C52.565 70.294 53.193 71.088 53.84 71.906 C55 74 55 74 54.926 75.984 C53.714 78.623 52.134 80.536 50.25 82.75 C49.442 83.713 48.634 84.676 47.801 85.668 C47.354 86.197 46.908 86.726 46.448 87.271 C43.74 90.504 41.093 93.787 38.438 97.062 C37.874 97.756 37.31 98.45 36.729 99.165 C33.18 103.536 29.654 107.925 26.145 112.328 C22.784 116.515 19.383 120.67 15.99 124.832 C12.419 129.223 8.911 133.656 5.438 138.125 C1.201 143.567 -3.221 148.821 -7.733 154.036 C-11.176 158.02 -14.512 162.071 -17.777 166.203 C-20.822 170.034 -23.912 173.829 -27 177.625 C-27.589 178.349 -28.178 179.074 -28.785 179.82 C-30.19 181.547 -31.595 183.274 -33 185 C-38.233 184.556 -41.54 181.767 -45.625 178.75 C-47.154 177.646 -48.684 176.543 -50.215 175.441 C-51.005 174.871 -51.795 174.3 -52.609 173.711 C-56.428 170.978 -60.305 168.331 -64.188 165.688 C-64.968 165.155 -65.748 164.622 -66.552 164.074 C-69.034 162.381 -71.517 160.691 -74 159 C-75.844 157.744 -77.688 156.487 -79.531 155.23 C-80.464 154.595 -81.397 153.959 -82.359 153.303 C-84.233 152.026 -86.107 150.747 -87.981 149.468 C-92.238 146.562 -96.498 143.661 -100.773 140.781 C-102.203 139.813 -103.633 138.844 -105.062 137.875 C-105.699 137.45 -106.335 137.025 -106.991 136.587 C-110.768 134.018 -113.886 131.308 -117 128 C-113.928 123.199 -110.505 118.828 -106.875 114.438 C-102.378 108.952 -97.963 103.422 -93.661 97.784 C-90.722 93.934 -87.748 90.116 -84.75 86.312 C-75.636 74.741 -66.607 63.105 -57.637 51.422 C-52.696 44.999 -47.708 38.614 -42.729 32.221 C-39.818 28.482 -36.909 24.741 -34 21 C-29.38 21.771 -26.557 23.384 -22.688 26.062 C-21.619 26.796 -20.55 27.529 -19.449 28.285 C-18.237 29.134 -18.237 29.134 -17 30 C-16.731 29.293 -16.462 28.585 -16.186 27.856 C-14.015 22.628 -11.192 17.724 -8.5 12.75 C-7.906 11.636 -7.311 10.522 -6.699 9.375 C-6.128 8.318 -5.557 7.261 -4.969 6.172 C-4.187 4.719 -4.187 4.719 -3.389 3.237 C-2 1 -2 1 0 0 Z M0 16 C-1.541 18.739 -3.054 21.493 -4.562 24.25 C-5 25.027 -5.438 25.805 -5.889 26.605 C-6.298 27.36 -6.707 28.114 -7.129 28.891 C-7.702 29.928 -7.702 29.928 -8.287 30.985 C-9.175 33.496 -9.07 34.571 -8 37 C-6.409 38.539 -6.409 38.539 -4.344 39.812 C-3.576 40.325 -2.808 40.837 -2.017 41.365 C-1.186 41.905 -0.356 42.444 0.5 43 C2.227 44.154 3.954 45.309 5.68 46.465 C7.002 47.342 7.002 47.342 8.351 48.238 C12.468 50.976 16.556 53.753 20.625 56.562 C21.353 57.05 22.08 57.538 22.83 58.041 C23.497 58.503 24.164 58.965 24.852 59.441 C25.438 59.84 26.024 60.239 26.627 60.651 C28.415 62.408 28.816 63.505 29 66 C28.079 67.884 28.079 67.884 26.605 69.836 C26.067 70.563 25.529 71.29 24.974 72.039 C24.385 72.81 23.795 73.581 23.188 74.375 C21.974 76.006 20.76 77.638 19.547 79.27 C18.942 80.075 18.336 80.88 17.713 81.709 C15.406 84.794 13.166 87.922 10.938 91.062 C10.541 91.618 10.145 92.174 9.737 92.746 C6.519 97.259 3.321 101.785 0.125 106.312 C-0.631 107.384 -0.631 107.384 -1.403 108.477 C-3.92 112.045 -6.432 115.615 -8.938 119.191 C-15.425 128.438 -22.055 137.569 -28.785 146.641 C-30.739 149.277 -32.669 151.926 -34.559 154.609 C-35.261 155.605 -35.964 156.6 -36.688 157.625 C-37.269 158.463 -37.85 159.301 -38.449 160.164 C-40 162 -40 162 -43 163 C-44.869 162.363 -44.869 162.363 -46.941 161.312 C-47.69 160.944 -48.438 160.575 -49.209 160.195 C-49.986 159.801 -50.762 159.406 -51.562 159 C-53.102 158.222 -54.645 157.451 -56.191 156.688 C-56.874 156.341 -57.557 155.994 -58.26 155.637 C-59.121 155.322 -59.121 155.322 -60 155 C-60.66 155.33 -61.32 155.66 -62 156 C-58.257 158.656 -54.504 161.298 -50.75 163.938 C-49.687 164.692 -48.623 165.447 -47.527 166.225 C-46.503 166.943 -45.478 167.662 -44.422 168.402 C-43.008 169.4 -43.008 169.4 -41.565 170.418 C-39.277 171.829 -37.624 172.565 -35 173 C-29.363 166.437 -23.808 159.833 -18.5 153 C-14.499 147.851 -10.366 142.846 -6.125 137.895 C-2.812 134.008 0.366 130.033 3.5 126 C7.574 120.758 11.78 115.656 16.09 110.607 C19.392 106.735 22.597 102.802 25.754 98.812 C27.579 96.527 29.421 94.26 31.277 92 C32.151 90.934 32.151 90.934 33.042 89.847 C34.199 88.436 35.359 87.027 36.521 85.62 C39.313 82.21 41.864 78.876 44 75 C37.772 65.839 31.435 56.771 24.925 47.808 C20.605 41.855 16.35 35.859 12.133 29.832 C10.764 27.882 9.385 25.939 8 24 C7.469 23.251 6.937 22.503 6.39 21.731 C5.858 20.998 5.326 20.264 4.777 19.508 C4.294 18.836 3.81 18.165 3.312 17.473 C2.879 16.987 2.446 16.501 2 16 C1.34 16 0.68 16 0 16 Z M-32 32 C-33.348 33.398 -33.348 33.398 -34.688 35.262 C-35.216 35.962 -35.745 36.662 -36.29 37.384 C-36.854 38.144 -37.419 38.904 -38 39.688 C-39.183 41.259 -40.367 42.831 -41.551 44.402 C-42.137 45.185 -42.723 45.967 -43.327 46.773 C-45.589 49.784 -47.885 52.769 -50.188 55.75 C-52.612 58.898 -55.036 62.046 -57.453 65.199 C-64.032 73.778 -70.704 82.28 -77.396 90.771 C-83.207 98.146 -88.98 105.549 -94.695 113 C-97.779 117.014 -100.886 121.01 -104 125 C-100.575 127.829 -96.806 129.654 -92.805 131.512 C-91.753 132.006 -91.753 132.006 -90.68 132.511 C-88.414 133.575 -86.145 134.631 -83.875 135.688 C-82.325 136.412 -80.776 137.137 -79.227 137.861 C-71.173 141.622 -63.112 145.367 -55 149 C-54.291 149.319 -53.582 149.639 -52.851 149.968 C-49.551 151.501 -49.551 151.501 -46 152 C-45.823 151.052 -45.647 150.103 -45.465 149.126 C-44.808 145.6 -44.15 142.074 -43.491 138.548 C-43.207 137.023 -42.923 135.498 -42.639 133.974 C-42.23 131.779 -41.82 129.585 -41.41 127.391 C-41.284 126.711 -41.158 126.032 -41.028 125.332 C-40.44 122.195 -39.826 119.084 -39 116 C-33.596 117.216 -30.67 119.86 -26.832 123.637 C-26.227 124.087 -25.623 124.536 -25 125 C-21.568 123.856 -21.202 123.227 -19.285 120.309 C-18.77 119.537 -18.255 118.766 -17.725 117.971 C-16.902 116.717 -16.902 116.717 -16.062 115.438 C-11.864 109.161 -7.59 102.996 -3 97 C2.189 90.205 7.04 83.21 11.812 76.117 C12.331 75.349 12.849 74.581 13.383 73.789 C13.841 73.105 14.298 72.422 14.77 71.717 C16 70 16 70 18 68 C18.095 66.031 18.095 66.031 17 64 C14.61 61.843 14.61 61.843 11.438 59.75 C10.84 59.335 10.242 58.92 9.626 58.493 C7.428 56.979 5.216 55.488 3 54 C2.053 53.363 1.106 52.726 0.131 52.07 C-5.978 47.969 -12.101 43.889 -18.241 39.834 C-20.055 38.628 -21.863 37.411 -23.662 36.182 C-24.871 35.357 -24.871 35.357 -26.105 34.516 C-27.165 33.785 -27.165 33.785 -28.247 33.04 C-29.947 31.83 -29.947 31.83 -32 32 Z M-34 129 C-34.366 130.414 -34.717 131.831 -35.062 133.25 C-35.26 134.039 -35.457 134.828 -35.66 135.641 C-36.015 138.104 -35.769 139.656 -35 142 C-31.096 137.592 -31.096 137.592 -30.188 132.062 C-30.456 131.382 -30.724 130.701 -31 130 C-31.99 129.67 -32.98 129.34 -34 129 Z " fill="#000000" transform="translate(607,501)"/>
<path d="M0 0 C4.63 1.572 5.966 4.37 8.387 8.461 C9.077 9.584 9.077 9.584 9.782 10.729 C10.761 12.332 11.731 13.941 12.691 15.556 C14.232 18.142 15.81 20.704 17.391 23.266 C18.412 24.954 19.432 26.644 20.449 28.336 C20.939 29.133 21.429 29.93 21.934 30.751 C25.246 36.392 25.246 36.392 24.996 40.133 C24.733 40.777 24.47 41.422 24.199 42.086 C21.949 42.836 21.949 42.836 19.199 43.086 C14.717 39.647 12.238 34.387 9.449 29.586 C5.392 22.676 1.231 15.988 -3.473 9.496 C-4.99 6.742 -5.241 5.183 -4.801 2.086 C-2.801 0.086 -2.801 0.086 0 0 Z " fill="#000000" transform="translate(393.80078125,533.9140625)"/>
<path d="M0 0 C5.247 1.073 8.821 3.824 13 7 C12.67 8.65 12.34 10.3 12 12 C8.997 12.905 7.507 13.218 4.578 11.961 C3.81 11.438 3.042 10.914 2.25 10.375 C1.082 9.613 1.082 9.613 -0.109 8.836 C-2.396 6.615 -2.681 5.12 -3 2 C-2.01 1.34 -1.02 0.68 0 0 Z " fill="#000000" transform="translate(580,563)"/>
<path d="M0 0 C4.966 0.226 8.172 1.884 12 5 C13 7.062 13 7.062 13 9 C12.01 10.485 12.01 10.485 11 12 C6.02 11.526 2.85 10.224 -1 7 C-2 4.375 -2 4.375 -2 2 C-1.34 1.34 -0.68 0.68 0 0 Z " fill="#000000" transform="translate(559,586)"/>
<path d="M0 0 C0.495 1.98 0.495 1.98 1 4 C-19.49 19.659 -51.724 25.468 -77 24 C-77.625 22.125 -77.625 22.125 -78 20 C-75.514 17.514 -74.415 17.624 -70.969 17.289 C-69.425 17.127 -69.425 17.127 -67.849 16.961 C-66.744 16.85 -65.639 16.739 -64.5 16.625 C-44.612 14.421 -25.107 10.78 -7.805 0.258 C-4.628 -1.167 -3.257 -1.062 0 0 Z " fill="#000000" transform="translate(348,588)"/>
<path d="M0 0 C1.605 0.114 3.209 0.242 4.812 0.375 C5.706 0.445 6.599 0.514 7.52 0.586 C10 1 10 1 13 3 C12.67 4.32 12.34 5.64 12 7 C10.582 6.885 9.166 6.757 7.75 6.625 C6.961 6.555 6.172 6.486 5.359 6.414 C2.914 5.985 1.152 5.214 -1 4 C-0.67 2.68 -0.34 1.36 0 0 Z " fill="#000000" transform="translate(224,602)"/>
<path d="M0 0 C3.63 0.33 7.26 0.66 11 1 C11.33 2.32 11.66 3.64 12 5 C11 6 11 6 9.039 6.133 C8.242 6.13 7.446 6.128 6.625 6.125 C5.834 6.128 5.042 6.13 4.227 6.133 C2 6 2 6 -1 5 C-0.67 3.35 -0.34 1.7 0 0 Z " fill="#000000" transform="translate(249,605)"/>
<path d="M0 0 C5.107 0.31 8.883 3.231 13 6 C12.125 10.875 12.125 10.875 11 12 C7.983 12.329 6.406 12.238 3.762 10.688 C3.077 10.131 2.393 9.574 1.688 9 C0.99 8.443 0.293 7.886 -0.426 7.312 C-1.205 6.663 -1.205 6.663 -2 6 C-1.125 1.125 -1.125 1.125 0 0 Z " fill="#000000" transform="translate(542,608)"/>
<path d="M0 0 C0 1.32 0 2.64 0 4 C-2.047 5.852 -2.047 5.852 -4.75 7.625 C-5.632 8.215 -6.513 8.806 -7.422 9.414 C-13.387 13.084 -13.387 13.084 -16.75 12.625 C-17.864 12.316 -17.864 12.316 -19 12 C-18.891 9.773 -18.891 9.773 -18 7 C-15.905 5.278 -14.06 3.975 -11.75 2.625 C-11.176 2.258 -10.603 1.89 -10.012 1.512 C-6.317 -0.719 -4.122 -1.441 0 0 Z " fill="#000000" transform="translate(364,619)"/>
<path d="M0 0 C0 1.32 0 2.64 0 4 C-8.262 7.629 -8.262 7.629 -13 6 C-13 4.68 -13 3.36 -13 2 C-4.738 -1.629 -4.738 -1.629 0 0 Z " fill="#000000" transform="translate(332,635)"/>
<path d="M0 0 C0.66 1.32 1.32 2.64 2 4 C-1.791 7.791 -8.305 7.865 -13.504 8.125 C-15.336 8.125 -17.169 8.069 -19 8 C-19.495 5.525 -19.495 5.525 -20 3 C-17.772 2.5 -15.543 2.003 -13.312 1.512 C-11.644 1.142 -9.977 0.762 -8.312 0.375 C-5.517 -0.078 -2.826 -0.066 0 0 Z " fill="#000000" transform="translate(305,641)"/>
</svg>
