<?xml version="1.0" encoding="UTF-8"?>
<!-- Generator: visioncortex VTracer 0.6.0 -->
<svg version="1.1" xmlns="http://www.w3.org/2000/svg" width="847" height="847">
<path d="M0 0 C38.142 5.074 73.575 26.29 103 50 C103.915 50.723 104.83 51.446 105.773 52.191 C121.903 65.109 137.309 79.677 150 96 C150.775 96.935 151.549 97.869 152.348 98.832 C184.757 138.843 212.618 218.12 209 270 C207.086 281.863 207.086 281.863 202 286 C193.651 288.344 187.078 285.246 179.723 281.195 C173.12 277.235 166.897 272.948 161 268 C160.181 267.316 159.363 266.631 158.52 265.926 C150.268 258.829 150.268 258.829 149.637 252.167 C149.573 250.604 149.519 249.04 149.473 247.477 C149.404 245.73 149.335 243.984 149.266 242.238 C149.217 240.865 149.217 240.865 149.167 239.463 C147.293 188.484 140.691 136.486 116 91 C115.437 89.957 114.873 88.914 114.293 87.84 C107.142 75.129 98.564 63.927 88.429 53.476 C87.109 52.113 85.808 50.733 84.508 49.352 C77.898 42.481 70.656 36.646 63 31 C62.432 30.577 61.864 30.154 61.279 29.719 C42.84 16.17 21.815 8.328 0 2 C0 1.34 0 0.68 0 0 Z M154 113 C154.572 118.192 157.098 122.31 159.562 126.812 C159.987 127.601 160.412 128.389 160.85 129.201 C161.894 131.137 162.944 133.07 164 135 C165.308 132.138 165.308 132.138 164.196 129.915 C163.771 129.135 163.347 128.355 162.91 127.551 C162.456 126.703 162.001 125.856 161.533 124.982 C161.048 124.101 160.563 123.22 160.062 122.312 C159.581 121.42 159.1 120.527 158.604 119.607 C157.411 117.4 156.21 115.198 155 113 C154.67 113 154.34 113 154 113 Z M154 126 C155.412 134.075 158.36 141.43 161.365 149.011 C166.688 162.477 171.595 175.903 175 190 C175.167 190.69 175.334 191.38 175.505 192.09 C177.698 201.355 179.144 210.418 179.203 219.945 C179.209 220.678 179.215 221.41 179.22 222.165 C179.23 223.706 179.236 225.247 179.24 226.788 C179.25 229.099 179.281 231.408 179.312 233.719 C179.371 242.238 178.746 249.879 176.647 258.175 C175.851 261.167 175.851 261.167 176 265 C176.99 264.67 177.98 264.34 179 264 C180.227 261.189 180.227 261.189 181.125 257.812 C181.458 256.685 181.79 255.557 182.133 254.395 C192.427 214.097 174.238 161.622 156 126 C155.34 126 154.68 126 154 126 Z M150 134 C149.67 134.66 149.34 135.32 149 136 C150.108 138.42 151.279 140.762 152.5 143.125 C170.765 180.393 170.447 223.453 170 264 C172.958 261.271 173.57 259.512 174.188 255.5 C174.425 254.061 174.425 254.061 174.668 252.594 C175.711 241.308 174.591 229.957 173.75 218.688 C173.651 217.353 173.651 217.353 173.549 215.992 C171.36 187.184 166.001 159.158 151 134 C150.67 134 150.34 134 150 134 Z M165 135 C166 137 166 137 166 137 Z M166 137 C167 139 167 139 167 139 Z M167 139 C168 141 168 141 168 141 Z M184 192 C185 194 185 194 185 194 Z M185 194 C186 197 186 197 186 197 Z M154 197 C152.639 199.722 153.296 201.183 153.938 204.125 C154.132 205.035 154.327 205.945 154.527 206.883 C154.683 207.581 154.839 208.28 155 209 C155.33 209 155.66 209 156 209 C156.082 204.839 155.982 201.053 155 197 C154.67 197 154.34 197 154 197 Z M186 197 C186.33 198.65 186.66 200.3 187 202 C187.33 201.01 187.66 200.02 188 199 C187.34 198.34 186.68 197.68 186 197 Z M163 200 C161.516 205.013 162.35 209.717 162.938 214.812 C164.33 228.18 164.68 240.736 162 254 C161.661 255.999 161.326 257.999 161 260 C163.75 259.006 164.82 258.323 166.266 255.734 C171.448 240.024 171.611 216.853 164.898 201.477 C164.454 200.746 164.454 200.746 164 200 C163.67 200 163.34 200 163 200 Z M188 202 C189 204 189 204 189 204 Z M157 219 C155.662 223.014 155.801 226.814 156 231 C156.99 232.485 156.99 232.485 158 234 C158.981 231.058 159.165 229.009 159.188 225.938 C159.202 225.06 159.216 224.182 159.23 223.277 C159.222 220.801 159.222 220.801 157 219 Z M189 219 C189.01 219.572 189.021 220.144 189.032 220.734 C189.236 233.677 188.684 246.172 187 259 C186.783 261.041 186.572 263.082 186.375 265.125 C186.251 266.404 186.128 267.683 186 269 C189.768 266.488 189.703 265.268 190.625 260.938 C190.865 259.853 191.105 258.769 191.352 257.652 C192.705 250.028 193.182 242.55 193.188 234.812 C193.2 233.949 193.212 233.086 193.225 232.197 C193.236 227.388 192.871 223.517 191 219 C190.34 219 189.68 219 189 219 Z M198 244 C197.305 247.859 196.611 251.719 195.919 255.578 C195.568 257.53 195.217 259.481 194.865 261.432 C194.643 262.672 194.421 263.913 194.191 265.191 C193.885 266.896 193.885 266.896 193.573 268.635 C192.986 272.083 192.479 275.536 192 279 C195.175 275.488 196.156 271.631 197.188 267.125 C197.362 266.381 197.536 265.636 197.716 264.869 C199.242 257.852 199.409 251.177 199 244 C198.67 244 198.34 244 198 244 Z M201 270 C199.125 273.868 199.125 273.868 200 278 C201.429 275.646 202.087 274.52 201.625 271.75 C201.419 271.173 201.212 270.595 201 270 Z M198 278 C199 280 199 280 199 280 Z " fill="#000000" transform="translate(531,123)"/>
<path d="M0 0 C0 0.99 0 1.98 0 3 C-1.402 4.163 -1.402 4.163 -3.367 5.27 C-4.083 5.68 -4.799 6.091 -5.537 6.514 C-6.694 7.157 -6.694 7.157 -7.875 7.812 C-8.655 8.26 -9.435 8.707 -10.239 9.168 C-13.481 11.026 -16.739 12.855 -20.004 14.672 C-25.668 17.909 -30.256 21.724 -34.969 26.242 C-37 28 -37 28 -39 28 C-38.637 20.736 -34.071 15.764 -29 10.938 C-20.74 4.181 -10.618 -0.204 0 0 Z " fill="#000000" transform="translate(726,123)"/>
<path d="M0 0 C1.769 0.816 1.769 0.816 3.574 1.648 C37.383 17.777 59.316 44.143 75.102 77.426 C76 80 76 80 75 83 C70.623 81.538 67.625 79.277 64.062 76.375 C46.98 62.939 28.442 56.637 7 54 C6.272 53.906 5.545 53.813 4.795 53.717 C-49.12 47.494 -97.968 64.706 -140 98 C-143.641 100.998 -147.201 104.087 -150.754 107.188 C-153.699 109.756 -156.71 112.232 -159.75 114.688 C-163.259 117.535 -166.659 120.458 -170 123.5 C-175.177 128.204 -180.542 132.627 -186 137 C-187.102 137.917 -188.204 138.835 -189.305 139.754 C-190.432 140.67 -191.559 141.586 -192.688 142.5 C-193.702 143.335 -194.716 144.171 -195.762 145.031 C-200.423 147.865 -204.338 148.505 -209.801 147.469 C-226.342 141.089 -238.357 129.306 -250.188 116.438 C-251.047 115.508 -251.907 114.579 -252.793 113.621 C-255.377 110.552 -256.775 108.527 -257.359 104.562 C-255.554 91.686 -232.674 74.512 -223.571 65.441 C-221.734 63.609 -219.902 61.771 -218.07 59.934 C-212.218 54.078 -206.359 48.31 -200 43 C-199.37 42.463 -198.739 41.926 -198.09 41.373 C-139.036 -8.767 -74.493 -35.443 0 0 Z M-38 4 C-37.67 5.65 -37.34 7.3 -37 9 C-33.39 8.344 -33.39 8.344 -30 7 C-30 6.34 -30 5.68 -30 5 C-32.709 3.646 -35.009 3.935 -38 4 Z M-117 39 C-112.928 39 -110.868 36.92 -107.75 34.562 C-100.443 29.194 -92.874 24.488 -85 20 C-83.658 19.225 -83.658 19.225 -82.289 18.434 C-76.57 15.334 -70.986 13.923 -64.59 12.773 C-63.735 12.518 -62.881 12.263 -62 12 C-61.67 11.01 -61.34 10.02 -61 9 C-80.976 8.081 -102.593 26.826 -117 39 Z M-62.438 32.562 C-63.155 32.771 -63.872 32.979 -64.611 33.193 C-68.689 34.411 -68.689 34.411 -72 37 C-70.717 36.713 -69.435 36.425 -68.113 36.129 C-42.179 30.374 -42.179 30.374 -31 30 C-30.125 29.96 -29.249 29.92 -28.348 29.879 C-20.641 29.695 -13.039 30.483 -5.385 31.288 C-0.898 31.757 3.48 32.119 8 32 C8 31.01 8 30.02 8 29 C0.126 26.754 -7.579 26.661 -15.699 26.684 C-17.968 26.687 -20.235 26.664 -22.504 26.639 C-36.179 26.579 -49.346 28.506 -62.438 32.562 Z M-150.79 36.893 C-151.768 37.597 -151.768 37.597 -152.766 38.316 C-153.491 38.834 -154.217 39.352 -154.965 39.885 C-155.719 40.438 -156.473 40.992 -157.25 41.562 C-157.989 42.089 -158.727 42.616 -159.488 43.158 C-166.583 48.177 -166.583 48.177 -173 54 C-173 54.66 -173 55.32 -173 56 C-168.276 54.47 -164.977 51.837 -161.188 48.75 C-159.95 47.758 -158.711 46.768 -157.473 45.777 C-156.879 45.3 -156.284 44.823 -155.672 44.332 C-152.506 41.81 -149.254 39.408 -146 37 C-148.845 35.659 -148.845 35.659 -150.79 36.893 Z M-75 37 C-75.66 37.66 -76.32 38.32 -77 39 C-75.35 38.67 -73.7 38.34 -72 38 C-72.99 37.67 -73.98 37.34 -75 37 Z M-119 40 C-120.637 41.96 -120.637 41.96 -122 44 C-118.878 42.691 -118.878 42.691 -117 40 C-117.66 40 -118.32 40 -119 40 Z M28 43 C28 43.99 28 44.98 28 46 C28.99 46.33 29.98 46.66 31 47 C31 45.68 31 44.36 31 43 C30.01 43 29.02 43 28 43 Z M-124 44 C-125.637 45.96 -125.637 45.96 -127 48 C-123.878 46.691 -123.878 46.691 -122 44 C-122.66 44 -123.32 44 -124 44 Z M-130 49 C-131.382 50.626 -132.719 52.293 -134 54 C-130.839 52.63 -130.007 52.011 -128 49 C-128.66 49 -129.32 49 -130 49 Z M-138 56 C-139.578 57.557 -139.578 57.557 -141.125 59.5 C-141.664 60.15 -142.203 60.799 -142.758 61.469 C-143.168 61.974 -143.578 62.479 -144 63 C-140.26 61.318 -138.439 59.31 -136 56 C-136.66 56 -137.32 56 -138 56 Z M-200 68 C-200.495 69.98 -200.495 69.98 -201 72 C-199.68 72.33 -198.36 72.66 -197 73 C-196.34 71.68 -195.68 70.36 -195 69 C-196.65 68.67 -198.3 68.34 -200 68 Z M-178 75 C-178 75.99 -178 76.98 -178 78 C-175.527 77.656 -175.527 77.656 -173 77 C-172.67 76.34 -172.34 75.68 -172 75 C-173.98 75 -175.96 75 -178 75 Z M-164 91 C-164 91.99 -164 92.98 -164 94 C-161.03 94 -158.06 94 -155 94 C-155.33 92.68 -155.66 91.36 -156 90 C-160.178 88.811 -160.178 88.811 -164 91 Z M-203 92 C-203.33 92.99 -203.66 93.98 -204 95 C-203.01 95.99 -202.02 96.98 -201 98 C-199.35 97.01 -197.7 96.02 -196 95 C-197.249 93.417 -197.249 93.417 -199 92 C-200.32 92 -201.64 92 -203 92 Z M-197 124 C-196.67 124.99 -196.34 125.98 -196 127 C-194.68 125.68 -193.36 124.36 -192 123 C-194.925 122.776 -194.925 122.776 -197 124 Z " fill="#000000" transform="translate(558,142)"/>
<path d="M0 0 C8.296 1.262 13.951 6.993 18.902 13.5 C22.328 18.86 23.99 23.737 25 30 C21.236 28.493 19.415 26.351 16.938 23.188 C14.343 19.915 11.744 16.675 9.004 13.523 C8.255 12.659 8.255 12.659 7.49 11.777 C6.513 10.652 5.53 9.532 4.543 8.417 C2.216 5.723 0.418 3.61 0 0 Z " fill="#000000" transform="translate(209,135)"/>
<path d="M0 0 C0 0.99 0 1.98 0 3 C-5.913 6.212 -11.977 8.898 -18.25 11.312 C-18.923 11.579 -19.596 11.845 -20.289 12.12 C-24.338 13.643 -27.682 14.288 -32 14 C-29.843 8.175 -24.813 5.223 -19.438 2.75 C-12.834 0.03 -7.082 -0.124 0 0 Z " fill="#000000" transform="translate(722,147)"/>
<path d="M0 0 C7.318 1.464 11.735 6.751 15.844 12.645 C20 19.34 20 19.34 20 23 C14.072 22.149 10.932 19.385 7 15 C0 4.764 0 4.764 0 0 Z " fill="#000000" transform="translate(203,149)"/>
<path d="M0 0 C0.66 0.99 1.32 1.98 2 3 C-5.981 6.36 -11.763 6.69 -20 4 C-19.67 3.01 -19.34 2.02 -19 1 C-12.787 -1.301 -6.468 -1.622 0 0 Z " fill="#000000" transform="translate(716,165)"/>
<path d="M0 0 C42.457 39.804 50.656 113.147 54.801 167.992 C54.866 168.852 54.931 169.712 54.998 170.599 C55.315 174.848 55.61 179.097 55.874 183.35 C55.98 184.908 56.086 186.465 56.191 188.023 C56.229 188.726 56.266 189.429 56.305 190.154 C56.653 195.088 57.731 198.667 60 203 C60.99 203.66 61.98 204.32 63 205 C63 205.66 63 206.32 63 207 C57.483 205.651 57.483 205.651 55.363 202.793 C53.866 199.726 53.391 197.388 53 194 C52.923 193.364 52.846 192.729 52.767 192.074 C52.253 187.702 51.837 183.32 51.422 178.938 C47.147 134.349 42.201 84.332 24 43 C23.731 42.373 23.463 41.746 23.186 41.1 C17.612 28.175 10.489 16.472 2.168 5.133 C0 2 0 2 0 0 Z " fill="#000000" transform="translate(617,184)"/>
<path d="M0 0 C0.66 0.33 1.32 0.66 2 1 C1.576 1.413 1.152 1.825 0.715 2.25 C-2.418 5.334 -5.42 8.448 -8.25 11.812 C-11.197 15.213 -14.339 18.367 -17.625 21.438 C-18.525 22.282 -19.425 23.126 -20.352 23.996 C-23.045 26.034 -24.682 26.671 -28 27 C-26.786 18.788 -20.737 14.404 -14.389 9.661 C-3.98 2.048 -3.98 2.048 0 0 Z " fill="#000000" transform="translate(303,261)"/>
<path d="M0 0 C0.928 -0.025 0.928 -0.025 1.875 -0.051 C7.397 0.893 11.244 4.179 15.188 7.938 C24.84 16.917 35.258 24.908 45.668 32.98 C46.385 33.538 47.102 34.095 47.841 34.67 C49.285 35.768 50.747 36.843 52.225 37.895 C56.141 40.691 58.951 42.885 61 47.375 C61.392 48.191 61.784 49.007 62.188 49.848 C63.056 52.481 63.157 54.559 63 57.312 C62.34 57.312 61.68 57.312 61 57.312 C60.816 56.683 60.631 56.054 60.441 55.406 C56.651 44.219 48.047 39.2 38.585 33.021 C31.901 28.647 25.794 23.724 19.746 18.512 C19.177 18.024 18.608 17.536 18.022 17.033 C16.919 16.084 15.82 15.129 14.728 14.168 C10.04 10.121 5.528 6.353 -0.875 6.25 C-14.171 8.884 -23.559 20.431 -31.66 30.426 C-34.674 34.144 -37.822 37.734 -41 41.312 C-41.66 40.983 -42.32 40.653 -43 40.312 C-41.699 29.465 -29.488 16.601 -21.387 9.998 C-8.371 0.052 -8.371 0.052 0 0 Z " fill="#000000" transform="translate(259,284.6875)"/>
<path d="M0 0 C0 5.661 -5.447 9.867 -9 14 C-9.801 14.96 -10.601 15.921 -11.426 16.91 C-12.193 17.806 -12.96 18.702 -13.75 19.625 C-14.446 20.442 -15.142 21.26 -15.859 22.102 C-18.275 24.244 -19.827 24.678 -23 25 C-21.098 14.798 -8.516 7.297 -1 1 C-0.67 0.67 -0.34 0.34 0 0 Z " fill="#000000" transform="translate(336,292)"/>
<path d="M0 0 C7.842 3.44 13.518 9.118 19.312 15.25 C26.465 22.609 33.587 29.121 42 35 C42.96 35.674 43.921 36.348 44.91 37.043 C46.591 38.216 48.279 39.379 49.977 40.527 C53.144 42.833 54.744 44.231 56 48 C56.814 57.285 53.481 64.926 47.695 72.121 C41.756 78.704 35.323 84.174 26.375 85.562 C3.01 84.105 -25.183 60.488 -40 44 C-42.924 40.162 -43.385 37.789 -43 33 C-37.953 23.075 -29.162 15.993 -20.66 9.152 C-18.38 7.308 -16.149 5.425 -13.938 3.5 C-9.306 -0.442 -5.943 -0.849 0 0 Z M39 38 C37.153 40.004 35.411 42.019 33.688 44.125 C33.214 44.695 32.74 45.265 32.252 45.852 C30.361 48.128 28.479 50.411 26.611 52.707 C24.258 55.579 21.975 57.796 19 60 C19 60.66 19 61.32 19 62 C18.443 62.206 17.886 62.413 17.312 62.625 C14.075 64.55 12.318 67.039 10 70 C14.077 68.342 17.024 65.466 20.188 62.5 C20.76 61.965 21.333 61.431 21.924 60.88 C29.312 53.909 35.923 46.844 41 38 C40.34 38 39.68 38 39 38 Z M41 45 C39.478 46.666 37.958 48.333 36.438 50 C35.978 50.504 35.518 51.008 35.045 51.527 C32.508 54.317 30.011 57.133 27.562 60 C22.994 65.272 17.97 70.111 13 75 C17.356 75 19.269 72.301 22.25 69.438 C22.833 68.886 23.417 68.335 24.018 67.767 C25.686 66.185 27.343 64.593 29 63 C29.726 62.316 30.451 61.631 31.199 60.926 C35.183 57.085 39.359 52.898 42 48 C41.67 47.01 41.34 46.02 41 45 Z M47 49 C46.261 49.871 45.523 50.743 44.762 51.641 C29.065 70.093 29.065 70.093 21 78 C21.33 78.66 21.66 79.32 22 80 C31.995 71.276 40.736 62.177 48 51 C47.67 50.34 47.34 49.68 47 49 Z M44 62 C43.34 63.32 42.68 64.64 42 66 C42.99 65.34 43.98 64.68 45 64 C44.67 63.34 44.34 62.68 44 62 Z M41 66 C39.02 68.31 37.04 70.62 35 73 C35.33 73.66 35.66 74.32 36 75 C37.98 72.69 39.96 70.38 42 68 C41.67 67.34 41.34 66.68 41 66 Z M34 75 C33.34 76.32 32.68 77.64 32 79 C32.99 78.34 33.98 77.68 35 77 C34.67 76.34 34.34 75.68 34 75 Z " fill="#000000" transform="translate(263,297)"/>
<path d="M0 0 C9.5 0.211 17.162 6.94 24 13 C34.792 24.781 45.679 41.157 49 57 C48.67 57.99 48.34 58.98 48 60 C44.364 54.966 41.371 49.854 38.688 44.25 C30.388 27.022 18.586 14.183 2.055 4.543 C1.377 4.034 0.699 3.525 0 3 C0 2.01 0 1.02 0 0 Z " fill="#000000" transform="translate(100,313)"/>
<path d="M0 0 C12.952 -1.177 24.457 6.354 34.125 14.188 C39.133 18.749 43.389 24.282 47 30 C47 30.99 47 31.98 47 33 C41.942 31.535 39.345 28.542 35.875 24.812 C27.824 16.496 19.467 11.315 8.684 7.066 C5.681 5.873 2.855 4.507 0 3 C0 2.01 0 1.02 0 0 Z " fill="#000000" transform="translate(84,341)"/>
<path d="M0 0 C0.99 0.33 1.98 0.66 3 1 C2.562 1.392 2.123 1.784 1.672 2.188 C-8.604 11.879 -16.489 23.995 -24.258 35.719 C-24.833 36.472 -25.408 37.224 -26 38 C-26.66 38 -27.32 38 -28 38 C-27.526 25.207 -18.415 16.06 -9.527 7.664 C-6.445 4.888 -3.455 2.303 0 0 Z " fill="#000000" transform="translate(229,353)"/>
<path d="M0 0 C2.469 2.469 2.649 4.041 3.312 7.438 C3.515 8.406 3.717 9.374 3.926 10.371 C4 13 4 13 2.543 14.848 C1.779 15.418 1.779 15.418 1 16 C-1.358 11.432 -1.425 7.029 -1 2 C-0.67 1.34 -0.34 0.68 0 0 Z " fill="#000000" transform="translate(247,365)"/>
<path d="M0 0 C0.99 0.33 1.98 0.66 3 1 C3.33 2.65 3.66 4.3 4 6 C5.65 5.67 7.3 5.34 9 5 C-0.708 23.903 -0.708 23.903 -7 26 C-7.33 26.99 -7.66 27.98 -8 29 C-8.99 28.67 -9.98 28.34 -11 28 C-11.883 23.482 -12.106 19.225 -12.062 14.625 C-12.053 13.38 -12.044 12.135 -12.035 10.852 C-12.018 9.44 -12.018 9.44 -12 8 C-11.34 8 -10.68 8 -10 8 C-9.01 11.96 -8.02 15.92 -7 20 C-5.329 17.865 -5.329 17.865 -3.625 15.688 C-2.999 14.887 -2.372 14.086 -1.727 13.262 C-0.422 11.553 0.808 9.788 2 8 C1.34 7.01 0.68 6.02 0 5 C-0.125 2.312 -0.125 2.312 0 0 Z " fill="#000000" transform="translate(253,368)"/>
<path d="M0 0 C0.33 0 0.66 0 1 0 C1.66 2.97 2.32 5.94 3 9 C4.32 9.33 5.64 9.66 7 10 C7 10.66 7 11.32 7 12 C5.68 12.33 4.36 12.66 3 13 C2.67 15.64 2.34 18.28 2 21 C0.68 21 -0.64 21 -2 21 C-2 19.02 -2 17.04 -2 15 C-4.64 15 -7.28 15 -10 15 C-10 14.01 -10 13.02 -10 12 C-7.36 11.34 -4.72 10.68 -2 10 C-1.939 9.362 -1.879 8.724 -1.816 8.066 C-1.733 7.24 -1.649 6.414 -1.562 5.562 C-1.481 4.739 -1.4 3.915 -1.316 3.066 C-1 1 -1 1 0 0 Z " fill="#000000" transform="translate(486,369)"/>
<path d="M0 0 C8.245 2.927 17.435 8.136 22.312 15.562 C16.623 15.07 12.663 13.471 7.688 10.75 C1.491 7.492 -4.449 5.125 -11.211 3.254 C-13.688 2.562 -13.688 2.562 -15.688 1.562 C-15.688 0.902 -15.688 0.243 -15.688 -0.438 C-10.725 -2.919 -5.077 -1.479 0 0 Z " fill="#000000" transform="translate(94.6875,371.4375)"/>
<path d="M0 0 C0 0.33 0 0.66 0 1 C-6.075 1.078 -11.976 0.833 -18.016 0.195 C-18.834 0.111 -19.653 0.027 -20.497 -0.059 C-22.211 -0.237 -23.926 -0.417 -25.64 -0.599 C-28.256 -0.876 -30.874 -1.139 -33.492 -1.402 C-35.167 -1.577 -36.841 -1.753 -38.516 -1.93 C-39.293 -2.007 -40.07 -2.084 -40.871 -2.164 C-44.885 -2.602 -48.34 -3.266 -52 -5 C-51 -7 -51 -7 -49.264 -7.612 C-32.083 -10.555 -15.407 -7.673 0 0 Z " fill="#000000" transform="translate(410,386)"/>
<path d="M0 0 C2.694 0.402 5.391 0.791 8.087 1.178 C30.907 4.512 30.907 4.512 36.935 7.526 C36.935 8.186 36.935 8.846 36.935 9.526 C24.69 10.056 12.763 9.252 0.623 7.713 C-0.043 7.631 -0.709 7.548 -1.395 7.462 C-27.567 4.166 -27.567 4.166 -37.065 -0.474 C-37.395 -1.134 -37.725 -1.794 -38.065 -2.474 C-27.042 -6.108 -11.237 -1.683 0 0 Z " fill="#000000" transform="translate(378.06494140625,394.47412109375)"/>
<path d="M0 0 C6.569 2.855 8.808 9.248 11.338 15.571 C15.923 27.537 18.638 39.104 18 52 C17.01 52 16.02 52 15 52 C10.417 42.654 6.958 33.209 4.125 23.188 C3.827 22.151 3.529 21.115 3.222 20.047 C1.394 13.368 0.381 6.914 0 0 Z " fill="#000000" transform="translate(599,392)"/>
<path d="M0 0 C0.33 0 0.66 0 1 0 C2.549 8.877 3.214 17.553 3.25 26.562 C3.259 27.502 3.268 28.441 3.277 29.409 C3.256 34.338 2.937 38.379 1 43 C-1.955 40.559 -2.421 38.728 -3 35 C-4.029 23.327 -1.651 11.517 0 0 Z " fill="#000000" transform="translate(687,393)"/>
<path d="M0 0 C8.677 2.419 8.677 2.419 17.199 0.367 C24.336 -2.46 31.905 -3.187 39.199 -0.383 C42.012 1.305 42.012 1.305 43.012 4.305 C42.334 4.077 41.656 3.848 40.957 3.613 C31.577 0.716 24.947 0.716 15.949 4.805 C-6.944 17.233 -13.756 47.033 -20.733 70.192 C-25.139 85.344 -27.19 100.338 -27.016 116.113 C-27.003 118.346 -26.991 120.578 -26.979 122.811 C-26.954 126.296 -26.925 129.78 -26.892 133.265 C-26.862 136.652 -26.844 140.039 -26.828 143.426 C-26.808 144.996 -26.808 144.996 -26.787 146.598 C-26.784 147.567 -26.781 148.535 -26.777 149.533 C-26.77 150.384 -26.762 151.236 -26.755 152.113 C-26.988 154.305 -26.988 154.305 -28.988 157.305 C-32.015 152.179 -32.704 147.736 -33.176 141.93 C-33.293 140.557 -33.293 140.557 -33.413 139.157 C-36.751 96.095 -28.822 45.504 -0.004 11.547 C1.621 9.739 3.266 7.995 5.012 6.305 C3.982 6.062 2.952 5.82 1.891 5.57 C0.87 5.33 0.87 5.33 -0.17 5.085 C-1.69 4.728 -3.209 4.371 -4.728 4.014 C-8.706 3.08 -12.683 2.14 -16.656 1.184 C-17.404 1.005 -18.152 0.826 -18.922 0.642 C-20.345 0.301 -21.767 -0.042 -23.189 -0.388 C-42.846 -5.075 -64.695 -4.897 -82.438 5.617 C-94.527 13.615 -103.215 23.314 -110.359 35.812 C-110.897 36.635 -111.434 37.457 -111.988 38.305 C-112.648 38.305 -113.308 38.305 -113.988 38.305 C-108.577 20.544 -93.914 7.558 -78.211 -1.254 C-53.489 -13.488 -25.212 -6.977 0 0 Z " fill="#000000" transform="translate(247.98828125,401.6953125)"/>
<path d="M0 0 C0.66 0 1.32 0 2 0 C6.102 9.273 10.091 18.504 12.938 28.25 C13.136 28.927 13.335 29.605 13.54 30.302 C15.174 36.136 16.156 41.874 16.062 47.938 C16.053 48.71 16.044 49.482 16.035 50.277 C16.024 50.846 16.012 51.414 16 52 C15.01 52 14.02 52 13 52 C4.675 37.21 -2.496 18.223 -1 1 C-0.67 0.67 -0.34 0.34 0 0 Z " fill="#000000" transform="translate(581,397)"/>
<path d="M0 0 C1.114 0.495 1.114 0.495 2.25 1 C2.25 1.66 2.25 2.32 2.25 3 C-1.796 4.017 -5.29 3.975 -9.438 3.625 C-10.576 3.535 -11.714 3.445 -12.887 3.352 C-15.75 3 -15.75 3 -17.75 2 C-17.75 1.34 -17.75 0.68 -17.75 0 C-12.712 -2.519 -5.257 -1.402 0 0 Z " fill="#000000" transform="translate(99.75,399)"/>
<path d="M0 0 C2.212 3.569 2.227 6.542 2.312 10.688 C2.81 22.263 6.523 33.422 11.301 43.922 C12.125 46.371 12.121 48.433 12 51 C3.285 46.899 0.114 38.511 -3.02 29.953 C-5.662 21.994 -6.918 11.592 -3.625 3.625 C-2 1 -2 1 0 0 Z " fill="#000000" transform="translate(569,399)"/>
<path d="M0 0 C5.192 0.621 9.526 2.277 14.312 4.25 C31.259 11.031 47.752 15.075 66 16 C65.67 16.66 65.34 17.32 65 18 C49.235 23.255 27.351 17.33 12.988 10.586 C7.93 7.952 3.656 5.413 0 1 C0 0.67 0 0.34 0 0 Z " fill="#000000" transform="translate(337,405)"/>
<path d="M0 0 C13.876 4.959 22.737 16.09 29.086 28.836 C41.227 54.487 46.489 86.845 45 115 C44.67 115.66 44.34 116.32 44 117 C43.01 116.67 42.02 116.34 41 116 C40.985 115.413 40.971 114.826 40.956 114.222 C40.236 88.014 36.474 62.849 28 38 C27.683 37.065 27.366 36.131 27.039 35.168 C22.044 21.612 13.353 12.948 2.312 4 C1.549 3.34 0.786 2.68 0 2 C0 1.34 0 0.68 0 0 Z " fill="#000000" transform="translate(297,408)"/>
<path d="M0 0 C2 3 2 3 1.883 4.824 C0.654 7.852 -1.178 10.19 -3.125 12.812 C-14.35 28.609 -19.59 47.361 -25.004 65.762 C-36.14 103.502 -36.14 103.502 -53 114 C-59.517 115.974 -65.233 115.2 -71.387 112.492 C-83.672 105.477 -90.28 91.934 -94 78.75 C-96.56 66.202 -94.049 55.857 -90 44 C-89.727 43.19 -89.454 42.379 -89.173 41.544 C-83.411 24.613 -76.886 10.33 -60 2 C-42.75 -5.344 -17.141 -10.186 0 0 Z M-30 15 C-33.67 22.507 -35.453 30.613 -35 39 C-34.01 39 -33.02 39 -32 39 C-31.466 35.752 -30.95 32.501 -30.438 29.25 C-30.21 27.869 -30.21 27.869 -29.979 26.461 C-29.84 25.571 -29.701 24.682 -29.559 23.766 C-29.428 22.949 -29.297 22.132 -29.162 21.29 C-28.996 18.939 -29.297 17.236 -30 15 Z M-52 26 C-54.034 29.73 -55 31.669 -55 36 C-54.34 36 -53.68 36 -53 36 C-52.01 32.7 -51.02 29.4 -50 26 C-50.66 26 -51.32 26 -52 26 Z M-68 34 C-70.567 39.265 -72.762 44.045 -73 50 C-72.34 50.99 -71.68 51.98 -71 53 C-70.34 53 -69.68 53 -69 53 C-67.762 49.287 -67.644 45.687 -67.438 41.812 C-67.373 40.688 -67.373 40.688 -67.307 39.541 C-67.201 37.694 -67.1 35.847 -67 34 C-67.33 34 -67.66 34 -68 34 Z M-39 52 C-39.936 55.155 -40.106 57.966 -40.062 61.25 C-40.053 62.142 -40.044 63.034 -40.035 63.953 C-40.024 64.629 -40.012 65.304 -40 66 C-39.01 66.495 -39.01 66.495 -38 67 C-38 62.05 -38 57.1 -38 52 C-38.33 52 -38.66 52 -39 52 Z M-79 80 C-78.886 81.48 -78.759 82.959 -78.625 84.438 C-78.555 85.261 -78.486 86.085 -78.414 86.934 C-78.277 87.616 -78.141 88.297 -78 89 C-77.34 89.33 -76.68 89.66 -76 90 C-75.143 87.2 -75.143 87.2 -75 84 C-76.813 81.602 -76.813 81.602 -79 80 Z M-59 80 C-58.67 81.32 -58.34 82.64 -58 84 C-57.67 82.68 -57.34 81.36 -57 80 C-57.66 80 -58.32 80 -59 80 Z M-49 81 C-48.887 82.98 -48.759 84.959 -48.625 86.938 C-48.555 88.04 -48.486 89.142 -48.414 90.277 C-48.277 91.176 -48.141 92.074 -48 93 C-47.34 93.33 -46.68 93.66 -46 94 C-46.33 89.71 -46.66 85.42 -47 81 C-47.66 81 -48.32 81 -49 81 Z " fill="#000000" transform="translate(228,418)"/>
<path d="M0 0 C3 1 3 1 4.188 2.75 C5.108 5.3 5.149 7.309 5 10 C-0.735 4.706 -0.735 4.706 -1 1 C-0.67 0.67 -0.34 0.34 0 0 Z " fill="#000000" transform="translate(281,414)"/>
<path d="M0 0 C0.99 0.33 1.98 0.66 3 1 C3.33 2.98 3.66 4.96 4 7 C3.01 7 2.02 7 1 7 C0.67 4.69 0.34 2.38 0 0 Z " fill="#000000" transform="translate(292,415)"/>
<path d="M0 0 C3 1 3 1 4.188 2.875 C5 5 5 5 5 8 C4.34 8 3.68 8 3 8 C0.958 5.095 0 3.599 0 0 Z " fill="#000000" transform="translate(272,416)"/>
<path d="M0 0 C3.262 3.262 2.296 7.235 2.322 11.676 C2.319 12.938 2.316 14.2 2.312 15.5 C2.329 16.762 2.345 18.024 2.361 19.324 C2.362 20.527 2.363 21.73 2.363 22.969 C2.366 24.077 2.369 25.185 2.372 26.326 C2.249 27.209 2.127 28.091 2 29 C1.01 29.66 0.02 30.32 -1 31 C-3.41 27.292 -3.092 24.322 -2.75 20 C-2.699 19.344 -2.648 18.689 -2.596 18.013 C-2.085 11.951 -1.146 5.975 0 0 Z " fill="#000000" transform="translate(727,416)"/>
<path d="M0 0 C2.702 2.702 2.835 5.033 3.688 8.75 C6.667 20.71 12.765 30.987 19.398 41.258 C20.773 43.611 21.555 45.343 22 48 C16.039 47.135 12.977 44.387 9 40 C2.183 30.709 -3.88 19.846 -3.34 7.98 C-2.824 4.976 -1.585 2.575 0 0 Z " fill="#000000" transform="translate(553,419)"/>
<path d="M0 0 C4.146 3.808 7.144 8.246 10.152 12.977 C10.811 14.007 11.47 15.036 12.148 16.098 C40.252 62.608 42.788 119.904 30.715 171.727 C27.264 185.488 22.317 199.611 10.152 207.977 C2.534 212.436 -3.792 213.224 -12.535 213.352 C-13.969 213.408 -13.969 213.408 -15.432 213.465 C-23.778 213.567 -29.105 211.161 -35.414 205.793 C-59.901 178.144 -64.762 136.516 -62.848 100.977 C-61.894 91.282 -60.192 81.695 -58.535 72.102 C-58.125 69.644 -57.717 67.185 -57.311 64.727 C-56.527 59.992 -55.733 55.26 -54.932 50.529 C-53.796 43.755 -52.771 36.965 -51.83 30.161 C-50.272 19.261 -46.484 11.218 -37.711 4.289 C-26.123 -3.8 -12.544 -9.303 0 0 Z M-29.848 0.977 C-29.251 5.374 -27.625 8.527 -25.41 12.352 C-25.059 12.96 -24.708 13.567 -24.346 14.194 C-21.368 19.271 -18.136 24.167 -14.701 28.947 C-6.116 41.302 -0.488 55.968 5.59 69.664 C6.336 71.339 7.083 73.015 7.83 74.69 C13.045 86.406 18.177 98.156 23.152 109.977 C24.432 106.139 23.624 104.943 22.16 101.219 C21.707 100.048 21.254 98.878 20.787 97.672 C20.284 96.399 19.781 95.125 19.277 93.852 C18.244 91.202 17.217 88.55 16.191 85.898 C15.931 85.229 15.672 84.56 15.404 83.87 C13.396 78.674 11.537 73.436 9.719 68.171 C1.756 45.247 -9.288 18.536 -26.848 0.977 C-27.838 0.977 -28.828 0.977 -29.848 0.977 Z M-7.848 6.977 C-4.844 13.215 -1.648 19.186 2.152 24.977 C2.482 24.317 2.812 23.657 3.152 22.977 C2.119 20.754 1.042 18.667 -0.16 16.539 C-0.796 15.385 -1.431 14.232 -2.086 13.043 C-3.271 10.98 -4.528 8.956 -5.848 6.977 C-6.508 6.977 -7.168 6.977 -7.848 6.977 Z M-39.848 17.977 C-37.683 23.75 -34.699 28.178 -30.848 32.977 C-30.188 32.317 -29.528 31.657 -28.848 30.977 C-29.78 29.369 -30.718 27.766 -31.66 26.164 C-32.182 25.271 -32.704 24.377 -33.242 23.457 C-34.643 21.293 -35.866 19.611 -37.848 17.977 C-38.508 17.977 -39.168 17.977 -39.848 17.977 Z M3.152 24.977 C4.152 26.977 4.152 26.977 4.152 26.977 Z M-40.848 29.977 C-40.12 33.686 -38.566 36.779 -36.91 40.164 C-32.934 48.429 -29.612 56.941 -26.313 65.495 C-25.907 66.534 -25.5 67.574 -25.082 68.645 C-24.723 69.575 -24.365 70.506 -23.995 71.466 C-22.853 73.965 -21.675 75.926 -19.848 77.977 C-19.188 77.977 -18.528 77.977 -17.848 77.977 C-18.313 70.824 -21.218 64.745 -24.035 58.227 C-24.505 57.11 -24.975 55.994 -25.459 54.844 C-30.848 40.683 -30.848 40.683 -40.848 29.977 Z M-46.848 35.977 C-46.224 39.739 -45.138 42.91 -43.582 46.387 C-43.111 47.444 -42.64 48.502 -42.155 49.591 C-41.641 50.729 -41.127 51.867 -40.598 53.039 C-40.063 54.234 -39.528 55.428 -38.976 56.659 C-34.664 66.266 -30.228 75.814 -25.774 85.356 C-21.36 94.827 -17.058 104.345 -12.806 113.89 C-9.962 120.275 -7.09 126.644 -4.164 132.992 C3.035 148.641 9.56 164.216 14.605 180.711 C14.836 181.463 15.067 182.214 15.304 182.989 C15.732 184.396 16.15 185.807 16.557 187.22 C17.033 188.824 17.585 190.403 18.152 191.977 C18.812 192.307 19.472 192.637 20.152 192.977 C22.171 170.775 6.419 146.274 -2.568 126.732 C-7.209 116.631 -11.73 106.484 -16.16 96.289 C-27.188 70.931 -27.188 70.931 -39.348 46.102 C-39.757 45.304 -40.167 44.506 -40.589 43.684 C-40.973 42.958 -41.358 42.232 -41.754 41.484 C-42.087 40.852 -42.42 40.219 -42.764 39.567 C-43.919 37.658 -43.919 37.658 -46.848 35.977 Z M-49.848 65.977 C-50.178 66.967 -50.508 67.957 -50.848 68.977 C-49.528 70.297 -48.208 71.617 -46.848 72.977 C-45.858 71.987 -44.868 70.997 -43.848 69.977 C-45.142 67.917 -45.142 67.917 -46.848 65.977 C-47.838 65.977 -48.828 65.977 -49.848 65.977 Z M-47.848 86.977 C-48.707 89.27 -48.707 89.27 -48.848 91.977 C-47.014 94.311 -47.014 94.311 -44.848 95.977 C-43.858 95.647 -42.868 95.317 -41.848 94.977 C-42.445 91.634 -43.584 89.512 -45.848 86.977 C-46.508 86.977 -47.168 86.977 -47.848 86.977 Z M-53.848 98.977 C-52.122 105.017 -49.742 110.543 -46.973 116.164 C-46.482 117.179 -46.482 117.179 -45.98 118.215 C-43.742 122.675 -41.172 126.252 -37.848 129.977 C-37.188 129.317 -36.528 128.657 -35.848 127.977 C-37.402 124.639 -38.968 121.308 -40.535 117.977 C-40.97 117.042 -41.405 116.107 -41.854 115.145 C-45.631 106.62 -45.631 106.62 -50.848 98.977 C-51.838 98.977 -52.828 98.977 -53.848 98.977 Z M24.152 109.977 C25.152 111.977 25.152 111.977 25.152 111.977 Z M-21.848 112.977 C-20.886 117.301 -18.926 121.029 -16.973 124.977 C-13.036 133.102 -9.614 141.374 -6.348 149.789 C-5.888 150.973 -5.428 152.157 -4.954 153.376 C-4.033 155.749 -3.114 158.123 -2.195 160.497 C-0.104 165.896 2.006 171.287 4.152 176.664 C4.514 177.596 4.876 178.529 5.248 179.49 C5.588 180.335 5.927 181.18 6.277 182.051 C6.569 182.789 6.86 183.527 7.16 184.288 C8.11 186.328 8.11 186.328 11.152 186.977 C10.545 180.568 8.592 174.884 6.402 168.852 C6.013 167.776 5.623 166.7 5.221 165.591 C1.96 156.79 -1.661 148.175 -5.473 139.602 C-5.998 138.409 -6.524 137.216 -7.065 135.988 C-12.525 123.002 -12.525 123.002 -21.848 112.977 Z M-51.848 120.977 C-52.065 126.591 -51.543 131.154 -49.66 136.477 C-49.403 137.222 -49.146 137.967 -48.881 138.734 C-42.301 157.315 -34.656 175.602 -26.223 193.414 C-25.726 194.474 -25.23 195.533 -24.718 196.625 C-24.253 197.586 -23.788 198.546 -23.309 199.535 C-22.904 200.374 -22.5 201.212 -22.083 202.076 C-20.919 204.299 -20.919 204.299 -17.848 204.977 C-18.436 200.186 -19.881 196.124 -21.84 191.754 C-22.464 190.328 -23.088 188.902 -23.711 187.475 C-24.04 186.732 -24.368 185.988 -24.706 185.221 C-33.999 164.13 -42.14 142.694 -49.848 120.977 C-50.508 120.977 -51.168 120.977 -51.848 120.977 Z M-16.848 140.977 C-17.178 141.637 -17.508 142.297 -17.848 142.977 C-17.023 145.466 -17.023 145.466 -15.715 148.297 C-15.24 149.382 -14.766 150.468 -14.277 151.586 C-13.508 153.326 -13.508 153.326 -12.723 155.102 C-8.45 164.958 -4.792 174.653 -1.848 184.977 C-0.876 187.987 0.136 190.981 1.152 193.977 C2.142 193.482 2.142 193.482 3.152 192.977 C3.708 176.225 -4.883 156.934 -13.848 142.977 C-14.838 142.317 -15.828 141.657 -16.848 140.977 Z M-38.848 179.977 C-38.301 184.983 -36.606 188.948 -34.285 193.352 C-33.956 193.992 -33.626 194.633 -33.287 195.293 C-32.481 196.858 -31.665 198.418 -30.848 199.977 C-30.188 199.647 -29.528 199.317 -28.848 198.977 C-30.129 195.993 -31.424 193.015 -32.723 190.039 C-33.087 189.189 -33.452 188.339 -33.828 187.463 C-34.183 186.654 -34.537 185.845 -34.902 185.012 C-35.227 184.263 -35.552 183.514 -35.886 182.742 C-36.726 180.799 -36.726 180.799 -38.848 179.977 Z " fill="#000000" transform="translate(298.84765625,430.0234375)"/>
<path d="M0 0 C2.475 0.495 2.475 0.495 5 1 C5.33 1.99 5.66 2.98 6 4 C5.01 4.495 5.01 4.495 4 5 C1.875 4.062 1.875 4.062 0 3 C0 2.01 0 1.02 0 0 Z " fill="#000000" transform="translate(242,443)"/>
<path d="M0 0 C0.66 0.33 1.32 0.66 2 1 C2.468 3.337 2.827 5.697 3.125 8.062 C3.293 9.353 3.46 10.643 3.633 11.973 C3.754 12.972 3.875 13.971 4 15 C4.66 14.67 5.32 14.34 6 14 C8.672 13.866 11.323 13.957 14 14 C10.599 16.878 8.591 17.47 4 19 C4 23.62 4 28.24 4 33 C3.01 33 2.02 33 1 33 C0.34 29.04 -0.32 25.08 -1 21 C-5.95 21.495 -5.95 21.495 -11 22 C-11.33 21.34 -11.66 20.68 -12 20 C-8.37 18.35 -4.74 16.7 -1 15 C-0.67 10.05 -0.34 5.1 0 0 Z " fill="#000000" transform="translate(428,450)"/>
<path d="M0 0 C11.944 4.179 23.858 8.769 30.703 20.061 C35.994 31.788 32.761 46.288 28.566 57.807 C24.313 68.553 19.184 77.951 8.703 83.686 C5.397 84.564 2.084 85.178 -1.297 85.686 C-1.402 86.823 -1.506 87.96 -1.614 89.132 C-2.213 93.861 -3.573 98.107 -5.235 102.561 C-5.54 103.379 -5.845 104.197 -6.159 105.04 C-11.396 118.558 -18.432 131.017 -28.297 141.686 C-28.988 142.446 -29.679 143.205 -30.391 143.987 C-34.351 148.153 -38.106 151.195 -43.297 153.686 C-43.957 153.686 -44.617 153.686 -45.297 153.686 C-45.101 154.229 -44.905 154.772 -44.702 155.332 C-32.46 189.337 -32.46 189.337 -36.317 197.968 C-36.64 198.535 -36.964 199.102 -37.297 199.686 C-37.361 198.787 -37.424 197.887 -37.489 196.96 C-39.798 172.701 -49.354 152.375 -64.05 133.308 C-65.139 131.892 -66.208 130.46 -67.274 129.026 C-74.209 119.796 -82.29 112.953 -91.57 106.166 C-92.294 105.63 -93.017 105.094 -93.762 104.542 C-94.746 103.825 -94.746 103.825 -95.75 103.093 C-97.297 101.686 -97.297 101.686 -98.297 98.686 C-87.932 100.31 -77.602 111.674 -70.297 118.686 C-67.812 116.2 -67.179 113.976 -65.922 110.686 C-63.363 104.372 -60.017 98.781 -56.235 93.124 C-55.728 92.363 -55.222 91.601 -54.7 90.817 C-51.874 86.678 -48.975 83.094 -45.297 79.686 C-45.96 84.455 -47.819 88.442 -49.86 92.749 C-50.391 93.873 -50.391 93.873 -50.933 95.02 C-55.284 104.002 -60.656 112.215 -67.297 119.686 C-65.695 123.119 -63.71 126.182 -61.602 129.327 C-60.529 130.932 -60.529 130.932 -59.434 132.569 C-58.68 133.692 -57.926 134.814 -57.172 135.936 C-56.41 137.074 -55.649 138.212 -54.887 139.35 C-53.026 142.13 -51.163 144.909 -49.297 147.686 C-28.679 136.489 -16.347 106.508 -7.297 85.686 C-7.917 85.733 -8.537 85.779 -9.176 85.827 C-22.315 86.362 -34.713 82.49 -45.297 74.686 C-47.691 72.45 -49.393 70.384 -51.297 67.686 C-51.297 67.026 -51.297 66.366 -51.297 65.686 C-47.533 67.061 -44.41 68.832 -41.047 70.999 C-30.826 76.979 -20.02 80.094 -8.172 80.186 C-7.143 80.196 -7.143 80.196 -6.094 80.206 C-1.144 80.08 2.335 78.819 6.703 76.686 C6.703 75.696 6.703 74.706 6.703 73.686 C7.525 71.602 8.41 69.543 9.328 67.499 C12.782 59.681 15.764 51.71 18.703 43.686 C16.832 45.557 16.157 48.17 15.126 50.567 C5.265 73.444 5.265 73.444 -0.004 75.999 C-0.761 76.226 -1.518 76.453 -2.297 76.686 C-1.464 75.02 -0.631 73.353 0.203 71.686 C0.745 70.594 1.288 69.503 1.847 68.378 C3.13 65.808 4.445 63.258 5.777 60.714 C10.675 51.286 14.955 42.559 14.703 31.686 C14.481 32.647 14.259 33.607 14.031 34.596 C11.668 43.97 8.17 52.361 3.703 60.936 C3.192 61.924 2.682 62.911 2.157 63.929 C-0.49 68.878 -2.911 73.122 -7.297 76.686 C-7.957 76.686 -8.617 76.686 -9.297 76.686 C-7.628 71.931 -5.085 67.846 -2.485 63.561 C4.635 52.784 4.635 52.784 7.703 40.686 C7.417 41.249 7.13 41.812 6.836 42.392 C-6.472 68.465 -6.472 68.465 -12.297 75.686 C-13.287 75.686 -14.277 75.686 -15.297 75.686 C-13.664 71.054 -11.217 67.105 -8.672 62.936 C-2.68 52.95 2.491 42.553 6.703 31.686 C6.043 31.686 5.383 31.686 4.703 31.686 C4.546 32.217 4.39 32.748 4.229 33.295 C2.279 39.548 -0.4 45.169 -3.485 50.936 C-3.967 51.849 -4.45 52.761 -4.947 53.701 C-8.782 60.883 -12.872 67.852 -17.297 74.686 C-44.149 68.893 -44.149 68.893 -52.297 57.686 C-57.737 48.363 -56.474 37.172 -55.11 26.936 C-54.94 25.606 -54.94 25.606 -54.768 24.248 C-53.737 17.32 -51.978 11.233 -46.797 6.311 C-40.86 2.452 -36.358 1.832 -29.297 2.686 C-24.505 4.05 -19.919 5.832 -15.297 7.686 C-9.035 10.129 -2.844 12.09 3.703 13.624 C10.451 15.207 16.524 17.492 22.703 20.686 C7.051 5.113 -18.116 -1.949 -39.86 -2.814 C-43.948 -2.68 -46.122 -2.397 -49.86 -0.626 C-59.247 9.569 -59.911 27.112 -59.629 40.218 C-59.317 46.43 -57.469 51.878 -55.297 57.686 C-54.942 59.014 -54.599 60.345 -54.297 61.686 C-57.297 61.686 -57.297 61.686 -59.735 59.311 C-67.38 49.211 -67.578 37.891 -66.297 25.686 C-64.516 14.765 -61.778 2.219 -53.11 -5.314 C-39.416 -15.051 -14.213 -4.736 0 0 Z M16.703 60.686 C15.672 62.472 14.654 64.265 13.64 66.061 C13.072 67.059 12.503 68.057 11.917 69.085 C11.517 69.943 11.116 70.802 10.703 71.686 C11.033 72.346 11.363 73.006 11.703 73.686 C15.749 67.471 15.749 67.471 18.703 60.686 C18.043 60.686 17.383 60.686 16.703 60.686 Z " fill="#000000" transform="translate(716.29736328125,447.313720703125)"/>
<path d="M0 0 C2.875 0.25 2.875 0.25 6 1 C7.375 3.062 7.375 3.062 8 5 C4.758 4.65 3.385 4.438 1.188 1.938 C0.796 1.298 0.404 0.659 0 0 Z " fill="#000000" transform="translate(236,459)"/>
<path d="M0 0 C4.75 0.875 4.75 0.875 7 2 C6.67 2.99 6.34 3.98 6 5 C4.02 4.01 2.04 3.02 0 2 C0 1.34 0 0.68 0 0 Z " fill="#000000" transform="translate(231,475)"/>
<path d="M0 0 C6.277 5.58 10.269 12.508 11.184 20.91 C11.485 37.461 4.713 50.462 -6.562 62.375 C-10.976 66.59 -15.805 69.664 -21.188 72.5 C-21.836 72.88 -22.484 73.261 -23.152 73.652 C-25.698 74.713 -27.69 74.697 -30.438 74.625 C-31.33 74.607 -32.222 74.589 -33.141 74.57 C-33.816 74.547 -34.492 74.524 -35.188 74.5 C-35.188 73.18 -35.188 71.86 -35.188 70.5 C-34.321 70.191 -33.455 69.881 -32.562 69.562 C-23.569 64.066 -19.623 51.721 -15.188 42.5 C-14.715 41.518 -14.242 40.536 -13.755 39.524 C-10.551 32.857 -7.363 26.181 -4.188 19.5 C-9.264 26.787 -13.469 34.389 -17.6 42.24 C-24.661 55.447 -24.661 55.447 -29.188 60.5 C-32.188 60.5 -32.188 60.5 -34.062 58.938 C-36.145 57.193 -36.145 57.193 -38.938 57.812 C-40.051 58.153 -40.051 58.153 -41.188 58.5 C-41.188 61.47 -41.188 64.44 -41.188 67.5 C-45.98 65.104 -47.006 63.383 -49.195 58.664 C-52.724 47.413 -50.241 35.873 -45.188 25.5 C-43.091 21.946 -40.767 18.716 -38.188 15.5 C-37.716 14.866 -37.244 14.232 -36.758 13.578 C-28.18 2.626 -13.618 -6.409 0 0 Z M-31.188 21.5 C-31.215 23.562 -31.234 25.625 -31.25 27.688 C-31.262 28.836 -31.273 29.985 -31.285 31.168 C-31.199 34.093 -30.866 36.663 -30.188 39.5 C-29.858 39.5 -29.527 39.5 -29.188 39.5 C-29.088 33.389 -29.116 27.526 -30.188 21.5 C-30.517 21.5 -30.848 21.5 -31.188 21.5 Z M-37.188 27.5 C-37.242 28.937 -37.28 30.375 -37.312 31.812 C-37.336 32.613 -37.359 33.414 -37.383 34.238 C-37.346 36.784 -37.346 36.784 -35.188 39.5 C-35.517 35.54 -35.848 31.58 -36.188 27.5 C-36.517 27.5 -36.848 27.5 -37.188 27.5 Z M-43.188 33.5 C-42.907 35.814 -42.613 38.126 -42.312 40.438 C-42.069 42.369 -42.069 42.369 -41.82 44.34 C-41.507 45.904 -41.507 45.904 -41.188 47.5 C-40.527 47.83 -39.868 48.16 -39.188 48.5 C-39.469 46.374 -39.763 44.249 -40.062 42.125 C-40.225 40.942 -40.387 39.758 -40.555 38.539 C-40.918 35.404 -40.918 35.404 -43.188 33.5 Z M-10.188 39.5 C-9.188 41.5 -9.188 41.5 -9.188 41.5 Z M-11.188 41.5 C-12.721 44.619 -14.237 47.746 -15.75 50.875 C-16.406 52.209 -16.406 52.209 -17.076 53.57 C-17.485 54.421 -17.895 55.272 -18.316 56.148 C-18.89 57.327 -18.89 57.327 -19.475 58.529 C-19.71 59.179 -19.945 59.83 -20.188 60.5 C-19.858 61.16 -19.527 61.82 -19.188 62.5 C-17.867 59.941 -16.556 57.378 -15.25 54.812 C-14.877 54.091 -14.504 53.37 -14.119 52.627 C-12.248 48.935 -10.705 45.663 -10.188 41.5 C-10.517 41.5 -10.847 41.5 -11.188 41.5 Z M-47.188 44.5 C-47.188 46.48 -47.188 48.46 -47.188 50.5 C-46.527 50.17 -45.868 49.84 -45.188 49.5 C-45.683 47.025 -45.683 47.025 -46.188 44.5 C-46.517 44.5 -46.848 44.5 -47.188 44.5 Z M-8.188 48.5 C-7.188 50.5 -7.188 50.5 -7.188 50.5 Z M-9.188 50.5 C-9.188 53.5 -9.188 53.5 -9.188 53.5 Z " fill="#000000" transform="translate(407.1875,495.5)"/>
<path d="M0 0 C14.995 -0.43 28.034 4.012 39.805 13.125 C40.381 13.536 40.957 13.947 41.551 14.371 C48.424 19.53 52.482 26.749 53.805 35.125 C53.475 35.785 53.145 36.445 52.805 37.125 C49.805 36.125 49.805 36.125 48.043 32.992 C47.398 31.663 46.756 30.332 46.117 29 C39.903 16.825 31.06 11.724 18.43 6.812 C-8.994 1.611 -34.371 11.611 -56.832 26.715 C-61.45 29.942 -65.676 33.606 -69.914 37.309 C-73.237 40.2 -76.703 42.88 -80.195 45.562 C-88.727 52.159 -96.617 59.456 -104.195 67.125 C-103.742 67.517 -103.288 67.909 -102.82 68.312 C-100.862 70.497 -100.018 72.313 -99.195 75.125 C-99.57 77.438 -99.57 77.438 -100.195 79.125 C-102.901 77.772 -103.157 76.315 -104.32 73.562 C-104.674 72.736 -105.027 71.91 -105.391 71.059 C-105.656 70.421 -105.922 69.782 -106.195 69.125 C-110.501 71.834 -113.996 74.689 -117.594 78.328 C-118.313 79.052 -118.313 79.052 -119.048 79.791 C-120.56 81.314 -122.065 82.844 -123.57 84.375 C-124.602 85.417 -125.635 86.459 -126.668 87.5 C-129.182 90.036 -131.691 92.579 -134.195 95.125 C-133.717 96.048 -133.239 96.971 -132.746 97.922 C-131.199 101.118 -130.436 103.591 -130.195 107.125 C-130.855 107.785 -131.515 108.445 -132.195 109.125 C-133.515 106.155 -134.835 103.185 -136.195 100.125 C-137.185 100.125 -138.175 100.125 -139.195 100.125 C-139.525 100.785 -139.855 101.445 -140.195 102.125 C-139.267 102.496 -139.267 102.496 -138.32 102.875 C-135.757 104.383 -135.152 105.334 -134.195 108.125 C-134.07 110.875 -134.07 110.875 -134.195 113.125 C-137.169 110.356 -139.128 107.602 -141.195 104.125 C-142.185 103.63 -142.185 103.63 -143.195 103.125 C-143.474 103.714 -143.752 104.302 -144.039 104.909 C-145.119 106.98 -146.284 108.728 -147.691 110.586 C-148.168 111.223 -148.644 111.86 -149.135 112.516 C-150.128 113.832 -151.123 115.147 -152.119 116.461 C-154.916 120.205 -157.243 123.85 -159.195 128.125 C-158.535 128.723 -157.875 129.321 -157.195 129.938 C-155.195 132.125 -155.195 132.125 -155.195 135.125 C-157.581 134.549 -159.862 133.903 -162.195 133.125 C-166.691 143.859 -169.693 151.81 -166.195 163.125 C-161.341 157.096 -158.388 149.5 -156.195 142.125 C-155.865 142.125 -155.535 142.125 -155.195 142.125 C-154.535 148.395 -153.875 154.665 -153.195 161.125 C-152.535 161.125 -151.875 161.125 -151.195 161.125 C-151.355 160.312 -151.515 159.498 -151.68 158.66 C-152.272 154.597 -152.417 150.662 -152.445 146.562 C-152.466 145.821 -152.487 145.079 -152.508 144.314 C-152.541 139.722 -152.055 136.926 -149.195 133.125 C-147.195 135.125 -147.195 135.125 -146.955 137.112 C-146.961 138.331 -146.961 138.331 -146.968 139.575 C-146.968 140.496 -146.969 141.416 -146.969 142.365 C-146.979 143.361 -146.989 144.357 -147 145.383 C-147.003 146.401 -147.006 147.419 -147.009 148.468 C-147.02 151.729 -147.045 154.989 -147.07 158.25 C-147.08 160.457 -147.089 162.664 -147.098 164.871 C-147.12 170.289 -147.153 175.707 -147.195 181.125 C-146.535 181.125 -145.875 181.125 -145.195 181.125 C-145.211 179.825 -145.211 179.825 -145.227 178.498 C-145.261 175.248 -145.286 171.998 -145.305 168.747 C-145.315 167.347 -145.329 165.946 -145.346 164.546 C-145.528 149.584 -145.528 149.584 -143.195 143.125 C-142.535 142.795 -141.875 142.465 -141.195 142.125 C-139.188 148.147 -139.238 153.133 -140.07 159.375 C-140.981 166.313 -141.427 173.125 -141.445 180.125 C-141.454 180.972 -141.463 181.819 -141.472 182.692 C-141.425 193.202 -138.573 202.577 -135.143 212.42 C-132.549 220.214 -132.549 220.214 -134.195 224.125 C-137.195 226.125 -137.195 226.125 -140.07 226 C-144.922 224.642 -147.212 222.746 -149.84 218.414 C-151.344 215.674 -152.794 212.918 -154.195 210.125 C-154.752 210.95 -155.309 211.775 -155.883 212.625 C-158.195 215.125 -158.195 215.125 -160.758 215.75 C-163.195 215.125 -163.195 215.125 -164.883 213.125 C-166.172 210.179 -166.993 207.417 -167.668 204.285 C-168.181 201.994 -168.181 201.994 -169.238 199.363 C-170.349 195.606 -170.497 192.13 -170.445 188.25 C-170.441 187.542 -170.438 186.834 -170.434 186.104 C-170.351 181.094 -169.609 176.896 -168.195 172.125 C-167.8 168.329 -168.24 165.825 -169.695 162.375 C-173.271 153.248 -170.612 145.361 -167.387 136.543 C-166.994 135.415 -166.6 134.287 -166.195 133.125 C-165.876 132.285 -165.556 131.444 -165.227 130.578 C-165.177 126.673 -167.685 124.478 -170.133 121.688 C-182.719 106.464 -191.666 88.366 -190.195 68.125 C-189.195 65 -189.195 65 -188.195 63.125 C-187.865 63.125 -187.535 63.125 -187.195 63.125 C-187.17 64.418 -187.144 65.711 -187.117 67.043 C-186.449 90.25 -178.321 106.636 -163.195 124.125 C-160.244 121.365 -158.176 118.663 -156.133 115.188 C-151.809 108.244 -146.614 102.231 -141.195 96.125 C-140.552 95.393 -139.908 94.661 -139.245 93.907 C-133.742 87.708 -128.001 81.776 -122.129 75.928 C-120.627 74.432 -119.131 72.93 -117.635 71.428 C-112.324 66.113 -106.908 61.004 -101.195 56.125 C-99.588 54.671 -97.983 53.213 -96.383 51.75 C-92.065 47.853 -87.62 44.152 -83.094 40.5 C-81.089 38.858 -79.121 37.204 -77.172 35.5 C-64.299 24.272 -50.748 15.22 -35.195 8.125 C-34.281 7.705 -33.367 7.285 -32.426 6.852 C-22.1 2.414 -11.151 0.635 0 0 Z M-149.195 193.125 C-149.73 200.965 -147.987 209.217 -144.195 216.125 C-143.535 216.125 -142.875 216.125 -142.195 216.125 C-143.164 208.114 -144.328 200.685 -147.195 193.125 C-147.855 193.125 -148.515 193.125 -149.195 193.125 Z " fill="#000000" transform="translate(557.1953125,495.875)"/>
<path d="M0 0 C4.75 0.75 4.75 0.75 7 3 C7 3.99 7 4.98 7 6 C1.25 4.125 1.25 4.125 -1 3 C-0.67 2.01 -0.34 1.02 0 0 Z " fill="#000000" transform="translate(228,499)"/>
<path d="M0 0 C0.66 0 1.32 0 2 0 C1.385 5.538 1.385 5.538 -0.562 7.875 C-1.274 8.432 -1.274 8.432 -2 9 C-2.66 8.34 -3.32 7.68 -4 7 C-2.68 4.69 -1.36 2.38 0 0 Z " fill="#000000" transform="translate(549,506)"/>
<path d="M0 0 C0.99 0.33 1.98 0.66 3 1 C0.538 5.8 0.538 5.8 -2.188 6.812 C-2.786 6.874 -3.384 6.936 -4 7 C-2.796 4.506 -1.546 2.319 0 0 Z " fill="#000000" transform="translate(557,507)"/>
<path d="M0 0 C0.99 0 1.98 0 3 0 C3.33 2.31 3.66 4.62 4 7 C3.01 7.66 2.02 8.32 1 9 C0.67 6.03 0.34 3.06 0 0 Z " fill="#000000" transform="translate(537,508)"/>
<path d="M0 0 C0.99 0 1.98 0 3 0 C2.25 1.938 2.25 1.938 1 4 C-1.125 4.75 -1.125 4.75 -3 5 C-1.125 1.125 -1.125 1.125 0 0 Z " fill="#000000" transform="translate(567,509)"/>
<path d="M0 0 C3.407 0.448 5.079 1.053 8 3 C8 3.66 8 4.32 8 5 C2.462 4.385 2.462 4.385 0.125 2.438 C-0.246 1.963 -0.618 1.489 -1 1 C-0.67 0.67 -0.34 0.34 0 0 Z " fill="#000000" transform="translate(227,510)"/>
<path d="M0 0 C3 3 3 3 3.188 5.688 C3.095 6.832 3.095 6.832 3 8 C2.01 8.33 1.02 8.66 0 9 C0 6.03 0 3.06 0 0 Z " fill="#000000" transform="translate(532,510)"/>
<path d="M0 0 C0.99 0 1.98 0 3 0 C2.34 2.31 1.68 4.62 1 7 C-0.32 7.33 -1.64 7.66 -3 8 C-3 3.788 -2.803 2.906 0 0 Z " fill="#000000" transform="translate(578,511)"/>
<path d="M0 0 C0.66 0.33 1.32 0.66 2 1 C3.425 8.362 3.425 8.362 1 12 C0.34 12 -0.32 12 -1 12 C-1.027 10.188 -1.046 8.375 -1.062 6.562 C-1.074 5.553 -1.086 4.544 -1.098 3.504 C-1 1 -1 1 0 0 Z " fill="#000000" transform="translate(526,513)"/>
<path d="M0 0 C2.042 1.692 2.918 2.637 3.512 5.262 C3.57 6.062 3.628 6.863 3.688 7.688 C3.786 8.9 3.786 8.9 3.887 10.137 C3.924 10.752 3.961 11.366 4 12 C3.01 12.33 2.02 12.66 1 13 C0.639 11.022 0.286 9.043 -0.062 7.062 C-0.26 5.96 -0.457 4.858 -0.66 3.723 C-0.772 2.824 -0.884 1.926 -1 1 C-0.67 0.67 -0.34 0.34 0 0 Z " fill="#000000" transform="translate(517,515)"/>
<path d="M0 0 C4.858 3.266 8.172 6.267 11.121 11.426 C9.147 11.482 9.147 11.482 7.133 11.539 C-14.478 12.282 -30.353 18.789 -47.879 31.426 C-48.59 31.934 -49.3 32.443 -50.032 32.966 C-60.354 40.375 -70.361 48.007 -79.879 56.426 C-80.379 56.859 -80.88 57.293 -81.396 57.739 C-89.737 64.968 -96.868 72.915 -103.879 81.426 C-104.637 82.329 -105.395 83.233 -106.176 84.164 C-116.695 96.814 -126.425 109.922 -135.418 123.695 C-137.15 126.347 -138.926 128.929 -140.879 131.426 C-143.993 131.138 -144.855 130.453 -146.957 128.055 C-147.674 127.043 -148.39 126.031 -149.129 124.988 C-149.911 123.892 -150.695 122.797 -151.48 121.703 C-151.875 121.153 -152.27 120.602 -152.677 120.035 C-155.101 116.791 -157.841 113.79 -160.543 110.777 C-161.879 108.426 -161.879 108.426 -161.852 105.539 C-160.703 101.864 -158.959 99.047 -156.691 95.988 C-156.253 95.387 -155.814 94.786 -155.363 94.166 C-149.791 86.72 -143.376 80.061 -136.879 73.426 C-136.296 72.828 -135.713 72.23 -135.113 71.614 C-128.922 65.28 -122.652 59.139 -115.879 53.426 C-114.854 52.539 -113.831 51.651 -112.809 50.762 C-32.483 -18.935 -32.483 -18.935 0 0 Z " fill="#000000" transform="translate(574.87890625,520.57421875)"/>
<path d="M0 0 C0.66 0.33 1.32 0.66 2 1 C0.951 3.622 0.351 4.794 -2.125 6.25 C-2.744 6.497 -3.362 6.745 -4 7 C-2.796 4.506 -1.546 2.319 0 0 Z " fill="#000000" transform="translate(592,520)"/>
<path d="M0 0 C0.66 0.33 1.32 0.66 2 1 C0.696 4.913 -0.789 7.373 -4 10 C-4.99 10 -5.98 10 -7 10 C-7 9.01 -7 8.02 -7 7 C-5.038 5.289 -3.037 3.621 -1 2 C-0.67 1.34 -0.34 0.68 0 0 Z " fill="#000000" transform="translate(595,523)"/>
<path d="M0 0 C4.833 0.414 6.827 2.464 10 6 C6.513 4.891 3.225 3.737 0 2 C0 1.34 0 0.68 0 0 Z " fill="#000000" transform="translate(225,527)"/>
<path d="M0 0 C2 2 2 2 2.195 3.945 C2.13 5.964 2.065 7.982 2 10 C0.02 10.99 0.02 10.99 -2 12 C-2.178 7.452 -1.998 4.121 0 0 Z " fill="#000000" transform="translate(501,528)"/>
<path d="M0 0 C3.914 1.269 5.791 2.512 8 6 C7.67 6.66 7.34 7.32 7 8 C4.36 6.02 1.72 4.04 -1 2 C-0.67 1.34 -0.34 0.68 0 0 Z " fill="#000000" transform="translate(225,533)"/>
<path d="M0 0 C2.58 2.507 3.057 3.56 3.188 7.125 C1.484 9.484 1.484 9.484 -1.062 11.875 C-1.989 12.748 -2.916 13.62 -3.871 14.52 C-7.473 17.71 -11.147 20.781 -14.906 23.785 C-18.03 26.3 -21.078 28.892 -24.125 31.5 C-29.172 35.803 -34.339 39.924 -39.575 43.995 C-44.192 47.601 -48.679 51.34 -53.133 55.145 C-56.449 57.976 -59.798 60.757 -63.188 63.5 C-80.294 77.463 -96.288 92.525 -111.944 108.081 C-113.131 109.26 -114.319 110.437 -115.509 111.613 C-124.82 120.824 -133.361 130.309 -140.812 141.125 C-131.355 142.972 -131.355 142.972 -122.543 140.656 C-120.9 138.632 -120.9 138.632 -119.441 136.395 C-114.921 130.097 -107.135 126.166 -99.812 124.125 C-95.937 123.75 -95.937 123.75 -92.812 124.125 C-90.812 127.125 -90.812 127.125 -91.02 129.5 C-91.219 130.366 -91.419 131.232 -91.625 132.125 C-91.817 132.991 -92.009 133.857 -92.207 134.75 C-92.669 136.562 -93.221 138.351 -93.812 140.125 C-94.495 145.797 -93.78 150.19 -91.273 155.301 C-86.961 160.685 -81.078 162.16 -74.688 163.688 C-73.846 163.9 -73.004 164.113 -72.137 164.332 C-68.518 165.242 -64.893 166.107 -61.254 166.934 C-50.504 169.408 -42.299 172.866 -35.812 182.125 C-33.67 185.964 -33.677 187.939 -34.812 192.125 C-36.266 194.914 -36.266 194.914 -38.062 197.75 C-38.645 198.691 -39.228 199.632 -39.828 200.602 C-43.645 205.455 -49.004 207.12 -54.625 209.188 C-55.299 209.443 -55.972 209.699 -56.666 209.963 C-62.693 212.207 -68.828 214.074 -75.25 214.75 C-75.909 214.825 -76.567 214.9 -77.246 214.977 C-99.704 216.276 -127.018 212.69 -144.375 197.5 C-151.598 190.74 -151.598 190.74 -152.113 186.87 C-151.713 183.217 -150.276 181.207 -148.234 178.16 C-147.867 177.604 -147.499 177.049 -147.12 176.476 C-145.945 174.706 -144.754 172.947 -143.562 171.188 C-142.776 170.009 -141.991 168.83 -141.207 167.65 C-139.088 164.467 -136.95 161.296 -134.812 158.125 C-133.477 156.127 -132.144 154.126 -130.812 152.125 C-132.707 151.787 -134.603 151.454 -136.5 151.125 C-137.556 150.939 -138.611 150.754 -139.699 150.562 C-142.468 150.173 -145.025 150.092 -147.812 150.125 C-149.775 153.852 -151.732 157.582 -153.688 161.312 C-154.243 162.368 -154.799 163.423 -155.371 164.51 C-155.906 165.531 -156.441 166.553 -156.992 167.605 C-157.484 168.543 -157.977 169.48 -158.484 170.446 C-159.734 172.967 -160.808 175.498 -161.812 178.125 C-162.803 178.125 -163.793 178.125 -164.812 178.125 C-161.135 191.308 -157.069 199.502 -144.855 206.52 C-115.312 222.107 -82.437 226.833 -50.25 217 C-43.582 214.664 -37.479 211.499 -31.357 207.984 C-29.547 206.961 -27.682 206.035 -25.812 205.125 C-24.822 205.455 -23.832 205.785 -22.812 206.125 C-38.954 222.266 -64.976 226.964 -86.941 227.219 C-104.083 227.141 -120.721 223.903 -136.812 218.125 C-137.48 217.889 -138.147 217.653 -138.835 217.41 C-150.268 213.265 -161.653 207.003 -167.812 196.125 C-169.4 192.529 -170.662 188.862 -171.875 185.125 C-172.218 184.07 -172.561 183.016 -172.914 181.929 C-177.671 166.755 -180.117 151.845 -180.25 135.938 C-180.26 134.935 -180.271 133.932 -180.281 132.899 C-180.195 125.64 -178.831 119.085 -176.812 112.125 C-176.152 112.125 -175.493 112.125 -174.812 112.125 C-174.038 115.709 -173.788 119.044 -173.875 122.688 C-173.99 131.861 -172.767 141.013 -171.812 150.125 C-171.823 149.52 -171.833 148.916 -171.844 148.292 C-171.886 145.528 -171.912 142.764 -171.938 140 C-171.963 138.573 -171.963 138.573 -171.988 137.117 C-172.023 132.094 -171.991 127.771 -169.812 123.125 C-168.822 122.63 -168.822 122.63 -167.812 122.125 C-167.483 124.105 -167.152 126.085 -166.812 128.125 C-166.152 128.125 -165.493 128.125 -164.812 128.125 C-165.06 127.197 -165.308 126.269 -165.562 125.312 C-167.662 108.775 -148.163 87.64 -138.609 75.273 C-126.502 60.162 -112.754 45.462 -97.812 33.125 C-97.28 32.673 -96.747 32.222 -96.199 31.756 C-86.243 23.317 -75.945 15.929 -64.812 9.125 C-64.196 8.739 -63.58 8.354 -62.945 7.957 C-45.203 -3.118 -19.774 -11.638 0 0 Z M-39.812 5.625 C-40.48 5.989 -41.147 6.353 -41.834 6.728 C-58.227 15.802 -73.174 27.333 -86.812 40.125 C-88.223 41.361 -89.64 42.591 -91.062 43.812 C-97.797 49.697 -103.461 55.952 -108.812 63.125 C-105.251 63.125 -104.962 62.658 -102.512 60.266 C-101.872 59.651 -101.232 59.036 -100.572 58.402 C-99.888 57.733 -99.205 57.064 -98.5 56.375 C-97.048 54.985 -95.593 53.597 -94.137 52.211 C-93.408 51.517 -92.678 50.823 -91.927 50.108 C-87.304 45.773 -82.473 41.684 -77.607 37.624 C-76.381 36.6 -75.159 35.572 -73.939 34.54 C-60.83 23.46 -46.943 13.724 -31.902 5.43 C-29.68 4.295 -29.68 4.295 -28.812 2.125 C-33.351 2.125 -35.965 3.501 -39.812 5.625 Z M-13.812 3.125 C-14.472 3.785 -15.132 4.445 -15.812 5.125 C-15.812 6.115 -15.812 7.105 -15.812 8.125 C-13.832 7.465 -11.852 6.805 -9.812 6.125 C-9.812 5.135 -9.812 4.145 -9.812 3.125 C-11.132 3.125 -12.452 3.125 -13.812 3.125 Z M-46.957 20.599 C-56.629 27.482 -65.7 35.008 -74.473 43.004 C-76.601 44.933 -78.76 46.815 -80.938 48.688 C-86.97 53.963 -92.666 59.215 -96.812 66.125 C-93.81 64.771 -91.648 63.238 -89.273 60.965 C-88.287 60.029 -88.287 60.029 -87.281 59.074 C-86.59 58.41 -85.899 57.746 -85.188 57.062 C-83.736 55.688 -82.284 54.315 -80.832 52.941 C-79.492 51.669 -78.152 50.397 -76.812 49.125 C-62.123 35.208 -45.46 23.026 -27.812 13.125 C-34.72 10.672 -41.465 16.78 -46.957 20.599 Z M-38.684 24.931 C-39.304 25.366 -39.924 25.802 -40.562 26.25 C-41.217 26.699 -41.872 27.149 -42.546 27.612 C-55.154 36.415 -66.711 46.511 -77.812 57.125 C-78.618 57.889 -79.424 58.654 -80.254 59.441 C-84.012 63.089 -87.116 66.63 -89.812 71.125 C-86.923 69.811 -84.807 68.384 -82.527 66.184 C-81.92 65.605 -81.313 65.026 -80.687 64.429 C-80.048 63.813 -79.409 63.197 -78.75 62.562 C-73.529 57.609 -68.235 52.877 -62.602 48.391 C-60.553 46.726 -58.562 45.043 -56.586 43.297 C-48.115 35.824 -39.239 29.344 -29.812 23.125 C-33.712 21.825 -35.267 22.656 -38.684 24.931 Z M-114.812 81.125 C-114.494 83.233 -114.494 83.233 -113.812 85.125 C-111.191 84.076 -110.019 83.476 -108.562 81 C-108.315 80.381 -108.067 79.763 -107.812 79.125 C-111.767 78.777 -111.767 78.777 -114.812 81.125 Z M-129.812 82.125 C-131.793 85.095 -131.793 85.095 -133.812 88.125 C-133.483 88.785 -133.153 89.445 -132.812 90.125 C-130.832 87.815 -128.853 85.505 -126.812 83.125 C-127.803 82.795 -128.793 82.465 -129.812 82.125 Z M-139.812 106.125 C-141.298 108.105 -141.298 108.105 -142.812 110.125 C-142.483 110.785 -142.153 111.445 -141.812 112.125 C-140.822 110.805 -139.832 109.485 -138.812 108.125 C-139.142 107.465 -139.472 106.805 -139.812 106.125 Z M-107.812 133.125 C-108.472 133.785 -109.132 134.445 -109.812 135.125 C-109.506 138.068 -109.14 140.47 -107.812 143.125 C-106.822 142.795 -105.832 142.465 -104.812 142.125 C-104.936 140.826 -105.06 139.526 -105.188 138.188 C-105.257 137.457 -105.327 136.726 -105.398 135.973 C-105.535 135.363 -105.672 134.753 -105.812 134.125 C-106.472 133.795 -107.132 133.465 -107.812 133.125 Z M-115.812 149.125 C-115.483 150.775 -115.153 152.425 -114.812 154.125 C-113.822 154.125 -112.832 154.125 -111.812 154.125 C-112.308 151.65 -112.308 151.65 -112.812 149.125 C-113.803 149.125 -114.793 149.125 -115.812 149.125 Z M-134.812 178.125 C-133.812 180.125 -133.812 180.125 -133.812 180.125 Z M-133.812 180.125 C-132.246 184.433 -130.129 188.187 -127.812 192.125 C-127.483 191.465 -127.153 190.805 -126.812 190.125 C-127.998 187.638 -127.998 187.638 -129.688 185 C-130.242 184.09 -130.796 183.18 -131.367 182.242 C-131.844 181.544 -132.321 180.845 -132.812 180.125 C-133.142 180.125 -133.472 180.125 -133.812 180.125 Z M-124.812 181.125 C-124.483 182.115 -124.153 183.105 -123.812 184.125 C-123.812 183.135 -123.812 182.145 -123.812 181.125 C-124.142 181.125 -124.472 181.125 -124.812 181.125 Z M-122.812 184.125 C-121.812 186.125 -121.812 186.125 -121.812 186.125 Z M-121.812 186.125 C-120.722 189.9 -119.904 192.595 -116.812 195.125 C-117.903 191.35 -118.721 188.655 -121.812 186.125 Z M-126.812 192.125 C-126.483 193.115 -126.153 194.105 -125.812 195.125 C-125.812 194.135 -125.812 193.145 -125.812 192.125 C-126.142 192.125 -126.472 192.125 -126.812 192.125 Z M-116.812 195.125 C-115.812 197.125 -115.812 197.125 -115.812 197.125 Z " fill="#000000" transform="translate(600.8125,538.875)"/>
<path d="M0 0 C0.66 0 1.32 0 2 0 C2.66 2.31 3.32 4.62 4 7 C3.01 7.33 2.02 7.66 1 8 C0.67 5.36 0.34 2.72 0 0 Z " fill="#000000" transform="translate(485,540)"/>
<path d="M0 0 C4.032 0.275 5.569 0.535 8.375 3.562 C8.911 4.367 9.447 5.171 10 6 C6.684 5.447 3.849 4.832 1 3 C0.67 2.01 0.34 1.02 0 0 Z " fill="#000000" transform="translate(224,548)"/>
<path d="M0 0 C1.875 0.312 1.875 0.312 4 1 C6 4 6 4 6 8 C2.246 6.749 1.759 5.435 0 2 C0 1.34 0 0.68 0 0 Z " fill="#000000" transform="translate(467,553)"/>
<path d="M0 0 C1.938 0.562 1.938 0.562 4 2 C4.75 5.625 4.75 5.625 5 9 C1.908 6.47 1.091 3.775 0 0 Z " fill="#000000" transform="translate(464,556)"/>
<path d="M0 0 C3 1 3 1 5 4 C5.125 6.688 5.125 6.688 5 9 C4.01 9 3.02 9 2 9 C1.34 6.03 0.68 3.06 0 0 Z " fill="#000000" transform="translate(459,560)"/>
<path d="M0 0 C3.653 1.25 4.781 1.671 7 5 C4.625 4.75 4.625 4.75 2 4 C0.688 1.938 0.688 1.938 0 0 Z " fill="#000000" transform="translate(227,565)"/>
<path d="M0 0 C0.66 0 1.32 0 2 0 C1.769 0.9 1.539 1.8 1.301 2.727 C-2.485 17.606 -6.199 32.54 -8.75 47.688 C-8.865 48.369 -8.981 49.05 -9.1 49.751 C-10.607 59.162 -11.157 68.56 -11.168 78.082 C-11.171 79.099 -11.175 80.115 -11.178 81.163 C-11.183 83.298 -11.185 85.433 -11.185 87.569 C-11.187 90.794 -11.206 94.019 -11.225 97.244 C-11.263 110.935 -10.873 124.162 -6.875 137.375 C-6.664 138.079 -6.453 138.783 -6.236 139.509 C-3.72 147.464 0.016 154.698 4 162 C4.624 163.183 5.248 164.367 5.871 165.551 C17.265 186.468 34.103 208.497 56 219 C59.258 218.273 59.258 218.273 60.75 215.125 C62.373 212.043 62.373 212.043 61 209 C58.822 207.402 58.822 207.402 56.125 205.875 C28.709 188.886 16.266 161.874 8.629 131.613 C7.933 127.618 7.888 124.046 8 120 C12.402 123.868 15.158 128.296 18.219 133.27 C19.821 135.725 21.493 137.875 23.438 140.062 C26 143 26 143 26 145 C26.565 145.26 27.129 145.521 27.711 145.789 C30.216 147.114 32.354 148.681 34.625 150.375 C41.823 155.43 48.839 158.876 57.812 158.441 C61.47 157.703 62.842 155.96 65 153 C65.394 152.5 65.789 152 66.195 151.484 C69.97 146.214 71.807 140.222 73.681 134.079 C75.236 129.252 76.971 126.31 81 123 C83.937 121.875 83.937 121.875 87 122 C92.233 125.516 93.807 127.929 95.125 134.25 C95.358 135.298 95.358 135.298 95.596 136.368 C96.086 138.575 96.545 140.786 97 143 C102.256 167.901 110.646 195.17 132 211 C132.623 211.469 133.245 211.938 133.887 212.422 C142.854 218.606 153.308 220.124 164 219 C172.412 217.262 178.761 213.853 185 208 C185.615 207.426 186.23 206.853 186.863 206.262 C212.891 179.311 212.285 127.645 213 93 C224.164 113.373 215.013 150.18 209.062 171.312 C203.672 189.448 196.295 208.475 178.863 218.081 C165.146 225.084 153.169 224.922 138.727 220.328 C135.183 219.902 133.885 221.027 131 223 C117.671 224.829 103.738 213.534 93.684 206.062 C90.074 203.288 86.521 200.448 82.996 197.566 C81.085 195.959 81.085 195.959 79 195 C80.552 199.267 83.764 201.524 87.25 204.188 C87.871 204.667 88.492 205.147 89.132 205.641 C99.137 213.26 109.597 219.675 121 225 C121 225.66 121 226.32 121 227 C119.868 227.049 118.736 227.098 117.57 227.148 C116.089 227.223 114.607 227.299 113.125 227.375 C112.005 227.421 112.005 227.421 110.863 227.469 C106.465 227.556 106.465 227.556 103 230 C98.824 230.821 94.715 230.812 90.832 228.973 C89.39 227.996 87.974 226.98 86.582 225.934 C83.309 223.483 79.888 221.315 76.438 219.125 C75.207 218.336 73.976 217.547 72.746 216.758 C71.84 216.178 70.934 215.598 70 215 C69.711 215.743 69.423 216.485 69.125 217.25 C68.177 219.567 67.152 221.779 66 224 C66.557 224.11 67.114 224.219 67.688 224.332 C73.033 225.443 77.931 226.972 83 229 C83 229.99 83 230.98 83 232 C75.693 231.54 69.002 230.117 62 228 C61.395 228.692 61.395 228.692 60.777 229.398 C41.331 250.29 13.495 258.406 -13.688 263.062 C-42.733 267.904 -42.733 267.904 -66 285 C-66.99 284.67 -67.98 284.34 -69 284 C-66.696 276.668 -61.261 273.333 -54.988 269.527 C-46.887 265.387 -38.675 263.001 -29.812 261.062 C-28.687 260.809 -27.561 260.555 -26.402 260.293 C-20.814 259.04 -15.217 257.829 -9.613 256.645 C10.974 252.292 28.395 246.543 45 233 C45.833 232.332 46.665 231.665 47.523 230.977 C50.397 228.628 50.397 228.628 53 226 C53 225.01 53 224.02 53 223 C52.14 222.55 51.28 222.1 50.395 221.637 C20.061 205.326 0.351 173.223 -10 141 C-13.884 126.869 -16.127 112.826 -16.203 98.172 C-16.214 96.817 -16.214 96.817 -16.224 95.434 C-16.242 92.54 -16.248 89.645 -16.25 86.75 C-16.251 85.762 -16.251 84.773 -16.252 83.755 C-16.237 69.628 -15.939 55.868 -13 42 C-12.828 41.141 -12.657 40.282 -12.48 39.396 C-9.763 26.002 -6.141 12.281 0 0 Z M83 153 C83 154.98 83 156.96 83 159 C83.66 159 84.32 159 85 159 C84.67 157.02 84.34 155.04 84 153 C83.67 153 83.34 153 83 153 Z M67 184 C67 184.99 67 185.98 67 187 C68.94 188.705 68.94 188.705 71 190 C71 188.68 71 187.36 71 186 C69.68 185.34 68.36 184.68 67 184 Z M76 208 C77.48 212.352 80.675 213.961 84.5 216.062 C85.123 216.412 85.746 216.762 86.387 217.123 C91.394 219.853 96.418 221.765 102 223 C102.66 222.34 103.32 221.68 104 221 C103.451 220.713 102.901 220.426 102.335 220.13 C99.827 218.817 97.32 217.502 94.812 216.188 C93.948 215.736 93.084 215.284 92.193 214.818 C85.379 211.242 85.379 211.242 82.137 209.176 C79.822 207.679 79.822 207.679 76 208 Z M111 209 C113.356 211.689 115.636 212.919 118.938 214.25 C119.792 214.606 120.647 214.962 121.527 215.328 C124.171 216.047 125.459 215.92 128 215 C125.543 213.996 123.085 212.996 120.625 212 C119.926 211.714 119.228 211.428 118.508 211.133 C114.871 209.555 114.871 209.555 111 209 Z " fill="#000000" transform="translate(128,446)"/>
<path d="M0 0 C2.411 0.964 3.774 1.688 5.312 3.812 C6.17 6.542 5.756 8.277 5 11 C2.27 8.643 1.111 6.419 0 3 C0 2.01 0 1.02 0 0 Z " fill="#000000" transform="translate(444,571)"/>
<path d="M0 0 C2.31 0.33 4.62 0.66 7 1 C7 1.99 7 2.98 7 4 C2.25 3.125 2.25 3.125 0 2 C0 1.34 0 0.68 0 0 Z " fill="#000000" transform="translate(230,577)"/>
<path d="M0 0 C7.798 5.37 13.588 12.395 19.54 19.669 C20.809 21.201 22.114 22.703 23.422 24.203 C32.955 35.275 38.492 48.334 37.754 63.121 C35.993 77.492 27.783 88.455 18.895 99.305 C17.435 101.137 15.977 102.97 14.52 104.805 C13.312 106.305 12.104 107.805 10.895 109.305 C10.277 110.128 9.66 110.952 9.023 111.801 C2.94 118.956 -6.983 126.662 -16.66 127.535 C-18.81 127.552 -20.96 127.441 -23.105 127.305 C-23.105 124.305 -23.105 124.305 -21.355 122.18 C-16.264 115.674 -14.299 109.446 -14.688 101.156 C-15.582 95.051 -17.989 92.017 -22.746 88.168 C-30.866 82.548 -39.607 78.681 -48.757 75.018 C-59.118 70.78 -69.207 65.141 -73.98 54.555 C-75.807 49.055 -75.494 43.578 -73.23 38.242 C-68.137 29.469 -60.203 22.309 -53.023 15.266 C-50.988 13.272 -50.988 13.272 -49.105 10.617 C-38.495 -1.652 -14.722 -8.163 0 0 Z M-24.105 15.117 C-25.178 15.825 -26.25 16.533 -27.355 17.262 C-30.271 19.188 -30.271 19.188 -32.105 22.305 C-25.973 20.852 -20.886 17.311 -16.105 13.305 C-16.105 12.645 -16.105 11.985 -16.105 11.305 C-19.367 11.305 -21.438 13.338 -24.105 15.117 Z M-1.105 25.305 C-0.775 26.625 -0.445 27.945 -0.105 29.305 C2.727 29.639 2.727 29.639 5.895 29.305 C8.272 27.43 8.272 27.43 9.895 25.305 C7.996 23.406 5.322 24.181 2.805 24.172 C0.808 24.188 0.808 24.188 -1.105 25.305 Z M-45.73 33.805 C-46.647 34.305 -46.647 34.305 -47.582 34.816 C-49.092 35.642 -50.599 36.473 -52.105 37.305 C-52.105 37.965 -52.105 38.625 -52.105 39.305 C-43.864 37.259 -43.864 37.259 -37.105 32.305 C-37.105 31.645 -37.105 30.985 -37.105 30.305 C-40.365 30.305 -42.939 32.26 -45.73 33.805 Z M22.895 52.305 C22.4 54.285 22.4 54.285 21.895 56.305 C23.38 57.295 23.38 57.295 24.895 58.305 C25.555 57.645 26.215 56.985 26.895 56.305 C26.576 54.196 26.576 54.196 25.895 52.305 C24.905 52.305 23.915 52.305 22.895 52.305 Z M-28.105 58.305 C-36.025 58.8 -36.025 58.8 -44.105 59.305 C-40.474 61.726 -38.722 61.515 -34.418 61.43 C-33.238 61.412 -32.059 61.394 -30.844 61.375 C-29.94 61.352 -29.036 61.329 -28.105 61.305 C-28.105 60.315 -28.105 59.325 -28.105 58.305 Z M8.895 62.305 C8.565 63.955 8.235 65.605 7.895 67.305 C9.215 67.635 10.535 67.965 11.895 68.305 C12.555 66.985 13.215 65.665 13.895 64.305 C13.235 63.645 12.575 62.985 11.895 62.305 C10.905 62.305 9.915 62.305 8.895 62.305 Z M-11.105 69.305 C-11.765 69.965 -12.425 70.625 -13.105 71.305 C-12.787 73.413 -12.787 73.413 -12.105 75.305 C-10.785 74.975 -9.465 74.645 -8.105 74.305 C-8.105 72.985 -8.105 71.665 -8.105 70.305 C-9.095 69.975 -10.085 69.645 -11.105 69.305 Z " fill="#000000" transform="translate(629.10546875,579.6953125)"/>
<path d="M0 0 C1.875 0.312 1.875 0.312 4 1 C6 4 6 4 6 7 C5.34 7 4.68 7 4 7 C2.02 3.535 2.02 3.535 0 0 Z " fill="#000000" transform="translate(437,580)"/>
<path d="M0 0 C3.829 1.453 5.121 3.429 7 7 C6.01 7 5.02 7 4 7 C0 1.629 0 1.629 0 0 Z " fill="#000000" transform="translate(433,582)"/>
<path d="M0 0 C3.536 1.911 5.79 3.626 8 7 C4.663 5.827 2.226 4.811 0 2 C0 1.34 0 0.68 0 0 Z " fill="#000000" transform="translate(164,587)"/>
<path d="M0 0 C1.812 0.188 1.812 0.188 4 1 C5.812 3.312 5.812 3.312 7 6 C6.688 8.312 6.688 8.312 6 10 C3.257 6.8 1.37 3.995 0 0 Z " fill="#000000" transform="translate(426,588)"/>
<path d="M0 0 C2.64 0.33 5.28 0.66 8 1 C8 1.66 8 2.32 8 3 C5.69 3 3.38 3 1 3 C0.67 2.01 0.34 1.02 0 0 Z " fill="#000000" transform="translate(230,593)"/>
<path d="M0 0 C-1.993 6.04 -5.481 8.175 -11 11 C-21.646 15 -21.646 15 -27 15 C-27 14.34 -27 13.68 -27 13 C-26.451 12.713 -25.901 12.426 -25.335 12.13 C-22.827 10.817 -20.32 9.502 -17.812 8.188 C-16.948 7.736 -16.084 7.284 -15.193 6.818 C-11.758 5.015 -8.368 3.23 -5.074 1.176 C-3 0 -3 0 0 0 Z " fill="#000000" transform="translate(743,611)"/>
<path d="M0 0 C1.32 0.33 2.64 0.66 4 1 C4 2.32 4 3.64 4 5 C2.68 4.34 1.36 3.68 0 3 C0 2.01 0 1.02 0 0 Z " fill="#000000" transform="translate(412,613)"/>
<path d="M0 0 C-0.33 0.66 -0.66 1.32 -1 2 C-3.31 2 -5.62 2 -8 2 C-8.33 1.34 -8.66 0.68 -9 0 C-5.622 -0.845 -3.325 -1.108 0 0 Z " fill="#000000" transform="translate(247,616)"/>
<path d="M0 0 C0.66 0 1.32 0 2 0 C2.559 1.744 3.097 3.496 3.625 5.25 C3.927 6.225 4.228 7.199 4.539 8.203 C5.052 11.317 4.711 12.416 3 15 C2.34 15 1.68 15 1 15 C1.021 13.907 1.041 12.814 1.062 11.688 C1.185 8.056 1.185 8.056 0 5 C-1.32 5.33 -2.64 5.66 -4 6 C-2.726 3.962 -1.389 1.961 0 0 Z " fill="#000000" transform="translate(251,626)"/>
<path d="M0 0 C-0.319 2.982 -0.916 3.924 -3.18 5.973 C-6.036 8.026 -8.687 9.361 -11.938 10.688 C-12.937 11.104 -13.936 11.52 -14.965 11.949 C-20.624 13.908 -26.116 14.182 -32.062 14.188 C-33.104 14.206 -33.104 14.206 -34.166 14.225 C-38.232 14.236 -41.344 13.803 -45 12 C-44.67 11.34 -44.34 10.68 -44 10 C-42.089 9.669 -42.089 9.669 -39.582 9.543 C-38.204 9.456 -38.204 9.456 -36.799 9.367 C-35.813 9.308 -34.828 9.249 -33.812 9.188 C-23.114 8.391 -14.375 6.257 -4.75 1.34 C-2 0 -2 0 0 0 Z " fill="#000000" transform="translate(757,630)"/>
<path d="M0 0 C0.66 0 1.32 0 2 0 C1.67 2.97 1.34 5.94 1 9 C0.34 9 -0.32 9 -1 9 C-0.67 6.03 -0.34 3.06 0 0 Z " fill="#000000" transform="translate(265,643)"/>
<path d="M0 0 C2.824 1.035 3.824 1.666 5.25 4.375 C6 7 6 7 6 11 C5.01 10.67 4.02 10.34 3 10 C1.253 6.507 0 3.932 0 0 Z " fill="#000000" transform="translate(301,647)"/>
<path d="M0 0 C3.81 2.771 4.068 6.629 5 11 C4.01 11.33 3.02 11.66 2 12 C0.002 7.879 -0.178 4.548 0 0 Z " fill="#000000" transform="translate(295,650)"/>
<path d="M0 0 C0.66 0.33 1.32 0.66 2 1 C2.594 3.649 2.742 6.292 3 9 C2.01 8.67 1.02 8.34 0 8 C-0.8 4.713 -1.097 3.29 0 0 Z " fill="#000000" transform="translate(273,651)"/>
<path d="M0 0 C0.66 0 1.32 0 2 0 C3.478 2.957 3.06 5.742 3 9 C2.01 9.33 1.02 9.66 0 10 C0 6.7 0 3.4 0 0 Z " fill="#000000" transform="translate(287,651)"/>
<path d="M0 0 C0.33 0 0.66 0 1 0 C1 3.3 1 6.6 1 10 C0.34 9.67 -0.32 9.34 -1 9 C-1.098 2.848 -1.098 2.848 -1 1 C-0.67 0.67 -0.34 0.34 0 0 Z " fill="#000000" transform="translate(280,652)"/>
<path d="M0 0 C0.993 0.254 1.985 0.508 3.008 0.77 C6.616 1.688 10.23 2.58 13.846 3.465 C15.75 3.938 17.649 4.434 19.547 4.934 C31.956 7.978 44.63 8.299 57 5 C60.562 4.875 60.562 4.875 63 5 C62 8 62 8 60.293 8.914 C59.598 9.149 58.903 9.383 58.188 9.625 C57.5 9.865 56.813 10.105 56.105 10.352 C37.751 16.004 16.676 10.338 0 2 C0 1.34 0 0.68 0 0 Z " fill="#000000" transform="translate(702,652)"/>
<path d="M0 0 C1.663 4.065 0.274 7.588 -1 11.562 C-1.228 12.275 -1.456 12.987 -1.69 13.721 C-5.385 24.66 -12.11 32.739 -20 41 C-20.517 41.592 -21.034 42.183 -21.566 42.793 C-35.057 57.623 -56.212 67.385 -74 76 C-75.092 76.636 -75.092 76.636 -76.207 77.285 C-78.504 78.201 -79.674 77.671 -82 77 C-81.49 76.745 -80.979 76.491 -80.453 76.228 C-60.708 66.306 -40.889 55.389 -24 41 C-23.336 40.437 -22.672 39.873 -21.988 39.293 C-10.712 28.878 -3.899 14.612 0 0 Z " fill="#000000" transform="translate(676,655)"/>
<path d="M0 0 C3.346 0.297 4.711 0.704 7.098 3.145 C7.746 4.025 8.394 4.905 9.062 5.812 C13.667 11.986 17.468 15.461 24.5 18.688 C38.962 25.628 51.633 35.454 59 50 C59.815 52.87 60 54.985 60 58 C59 59 59 59 55.5 59.25 C43.661 59.018 35.731 52.011 27.757 43.958 C24.869 40.739 22.636 37.174 20.375 33.5 C13.988 22.58 13.988 22.58 4.75 14.25 C0.103 11.308 0.103 11.308 -1 8 C1.97 8.495 1.97 8.495 5 9 C3.02 6.69 1.04 4.38 -1 2 C-0.67 1.34 -0.34 0.68 0 0 Z M26 29 C28.159 33.751 31.493 37.194 35 41 C35.584 41.638 36.168 42.276 36.77 42.934 C40.524 46.874 44.062 49.671 49 52 C50.32 52 51.64 52 53 52 C51.425 48.135 49.03 45.832 46 43 C45.444 42.462 44.889 41.925 44.316 41.371 C38.785 36.23 32.601 32.62 26 29 Z " fill="#000000" transform="translate(404,721)"/>
</svg>
