<?xml version="1.0" encoding="UTF-8"?>
<!-- Generator: visioncortex VTracer 0.6.0 -->
<svg version="1.1" xmlns="http://www.w3.org/2000/svg" width="847" height="847">
<path d="M0 0 C1.119 1.176 2.197 2.393 3.23 3.645 C3.754 4.273 4.278 4.902 4.817 5.55 C5.207 6.029 5.598 6.507 6 7 C6.61 6.823 7.22 6.647 7.848 6.465 C10.627 5.662 13.407 4.862 16.188 4.062 C17.147 3.785 18.107 3.507 19.096 3.221 C20.027 2.953 20.958 2.686 21.918 2.41 C22.772 2.164 23.625 1.918 24.505 1.664 C34.504 -0.998 45.974 -1.99 55.562 2.438 C68.113 9.844 74.033 22.487 77.907 36.049 C83.48 57.869 80.161 79.813 69.064 99.218 C61.766 111.437 52.646 119.833 41.074 127.801 C36.116 131.348 34.06 134.63 31.375 140.062 C22.786 156.723 8.994 166.702 -8.375 173.125 C-20.806 177.039 -34.395 179.451 -47.441 179.434 C-51.099 180.243 -52.517 182.253 -55 185 C-74.972 203.246 -97.735 211.355 -124.944 210.157 C-131.716 209.64 -138.23 208.078 -143 203 C-146.33 197.451 -145.881 191.189 -144.58 185.002 C-143.03 178.907 -141.012 172.955 -139 167 C-138.783 166.357 -138.565 165.713 -138.341 165.05 C-134.948 155.015 -131.491 145.002 -128 135 C-128.616 134.719 -129.232 134.438 -129.867 134.148 C-133.822 132.019 -136.375 128.126 -138 124 C-141.5 108.948 -136.619 94.406 -128.875 81.5 C-124.597 75.036 -119.362 69.561 -114 64 C-113.358 63.295 -112.716 62.59 -112.055 61.863 C-106.205 55.592 -99.653 51.552 -91 51 C-90.505 52.98 -90.505 52.98 -90 55 C-90.818 55.203 -90.818 55.203 -91.652 55.41 C-98.294 57.306 -102.861 60.45 -108 65 C-108.657 65.575 -109.315 66.15 -109.992 66.742 C-122.692 78.625 -132.639 94.631 -133.965 112.152 C-134.035 117.851 -133.191 122.894 -130.375 127.875 C-127.236 130.683 -123.842 132.331 -120 134 C-120 135.32 -120 136.64 -120 138 C-121.65 137.67 -123.3 137.34 -125 137 C-125.081 137.53 -125.161 138.059 -125.244 138.605 C-126.747 147.21 -129.663 155.33 -132.5 163.562 C-138.711 181.027 -138.711 181.027 -139.812 199.375 C-139.093 201.194 -139.093 201.194 -137 202.125 C-136.01 202.414 -135.02 202.702 -134 203 C-133.381 203.186 -132.762 203.371 -132.125 203.562 C-114.682 208.18 -92.795 203.842 -77.078 195.438 C-69.486 190.805 -61.395 185.323 -55.871 178.289 C-53.053 174.841 -50.029 174.807 -45.809 174.316 C-44.267 174.132 -44.267 174.132 -42.693 173.943 C-40.55 173.693 -38.407 173.443 -36.264 173.193 C-27.274 172.115 -18.601 170.752 -10.047 167.719 C-8.221 167.077 -6.361 166.532 -4.5 166 C-3.675 165.67 -2.85 165.34 -2 165 C-1.67 164.01 -1.34 163.02 -1 162 C-0.34 162 0.32 162 1 162 C1.33 161.01 1.66 160.02 2 159 C2.66 159 3.32 159 4 159 C4.268 158.381 4.536 157.762 4.812 157.125 C6 155 6 155 9 153 C9.99 153 10.98 153 12 153 C12 153.99 12 154.98 12 156 C20.109 149.829 25.235 142.434 29 133 C32.298 126.075 39.09 122.451 45.222 118.24 C61.066 107.19 70.795 89.384 74.305 70.648 C77.354 51.922 73.887 30.726 62.75 15.062 C58.101 9.47 52.232 5.972 45 5 C38.742 4.618 33.077 5.357 27 6.812 C26.218 6.993 25.437 7.173 24.631 7.358 C19.304 8.613 14.137 10.098 9 12 C8.67 13.65 8.34 15.3 8 17 C6.68 17 5.36 17 4 17 C3.853 16.408 3.706 15.817 3.555 15.207 C2.225 10.523 1 6.922 -3.172 3.996 C-14.561 -2.209 -29.64 -1.374 -41.875 1.898 C-56.303 6.984 -66.827 15.53 -74 29 C-76.317 33.972 -78.402 38.964 -79.949 44.23 C-81 47 -81 47 -84 49 C-86.38 41.861 -81.91 33.334 -78.875 26.875 C-71.716 12.8 -59.165 2.078 -44.203 -2.938 C-30.204 -6.959 -12.65 -8.754 0 0 Z " fill="#000000" transform="translate(371,124)"/>
<path d="M0 0 C0.763 0.495 1.526 0.99 2.312 1.5 C1.983 2.49 1.653 3.48 1.312 4.5 C0.488 4.335 -0.337 4.17 -1.188 4 C-16.935 1.75 -30.768 8.998 -44.688 15.5 C-45.017 14.18 -45.348 12.86 -45.688 11.5 C-15.169 -6.171 -15.169 -6.171 0 0 Z " fill="#000000" transform="translate(368.6875,144.5)"/>
<path d="M0 0 C4.64 4.218 6.721 8.48 7.336 14.59 C7.934 33.554 1.138 51.029 -6.938 67.875 C-7.288 68.612 -7.638 69.348 -8 70.107 C-16.055 86.778 -26.472 103.153 -38.938 116.875 C-39.724 117.743 -40.51 118.61 -41.32 119.504 C-49.592 128.203 -61.471 137.659 -73.938 138.875 C-77.273 138.942 -80.602 138.933 -83.938 138.875 C-84.048 140.045 -84.159 141.216 -84.273 142.422 C-86.201 157.692 -95.914 173.534 -106.938 183.875 C-113.874 189.167 -120.504 191.099 -129.098 192.117 C-132.419 193.003 -133.749 194.282 -135.938 196.875 C-140.763 189.155 -142.316 182.022 -142.25 173 C-142.244 172.176 -142.239 171.351 -142.233 170.502 C-141.613 138.319 -127.723 97.808 -104.734 74.656 C-97.15 67.802 -97.15 67.802 -91.125 68 C-88.955 67.866 -88.955 67.866 -86.938 66.875 C-84.903 64.219 -83.459 61.433 -81.91 58.469 C-76.8 48.798 -69.405 40.024 -61.977 32.07 C-60.091 30.04 -58.329 27.947 -56.562 25.812 C-44.611 12.193 -19.452 -7.45 0 0 Z M-31.938 48.875 C-33.474 50.717 -34.898 52.567 -36.312 54.5 C-44.34 65.195 -53.171 75.171 -62.27 84.961 C-64.32 87.201 -66.326 89.461 -68.316 91.754 C-71.797 95.748 -75.413 99.597 -79.062 103.438 C-85.682 110.46 -92.111 117.616 -98.34 124.986 C-99.413 126.254 -100.489 127.519 -101.57 128.779 C-114.625 144.048 -135.242 168.348 -133.938 189.875 C-130.888 189.243 -130.888 189.243 -130.065 187.224 C-129.832 186.516 -129.599 185.808 -129.359 185.078 C-128.955 183.897 -128.955 183.897 -128.542 182.693 C-128.26 181.845 -127.978 180.998 -127.688 180.125 C-120.736 160.43 -109.006 144.061 -95.322 128.465 C-93.911 126.845 -92.525 125.205 -91.145 123.559 C-83.663 114.663 -75.746 106.222 -67.749 97.791 C-61.244 90.911 -55.024 83.86 -49.086 76.484 C-47.106 74.079 -45.05 71.788 -42.938 69.5 C-39.655 65.847 -36.756 62.013 -33.938 58 C-33.539 57.44 -33.141 56.88 -32.73 56.303 C-30.4 52.916 -30.4 52.916 -29.938 48.875 C-30.597 48.875 -31.257 48.875 -31.938 48.875 Z " fill="#000000" transform="translate(658.9375,145.125)"/>
<path d="M0 0 C3.297 2.591 4.813 5.153 6.086 9.059 C8.542 29.819 4.068 49.818 -2.477 69.371 C-2.897 70.644 -2.897 70.644 -3.326 71.943 C-3.604 72.72 -3.882 73.497 -4.168 74.297 C-4.529 75.318 -4.529 75.318 -4.897 76.361 C-6.205 78.544 -7.592 79.119 -9.914 80.059 C-11.44 75.394 -9.581 72.146 -7.789 67.809 C-1.945 52.699 1.489 37.168 1.586 20.934 C1.595 19.575 1.595 19.575 1.605 18.188 C1.506 13.11 0.937 9.432 -1.914 5.059 C-5.67 3.181 -9.92 4.231 -13.914 5.059 C-18.558 6.92 -22.757 9.287 -26.914 12.059 C-29.102 11.684 -29.102 11.684 -30.914 11.059 C-24.888 2.421 -10.544 -5.186 0 0 Z " fill="#000000" transform="translate(420.9140625,152.94140625)"/>
<path d="M0 0 C3.571 -0.232 5.772 0.354 8.984 1.93 C12.899 5.389 14.52 8.333 14.922 13.555 C14.672 16.305 14.672 16.305 13.672 18.305 C12.682 18.305 11.692 18.305 10.672 18.305 C10.562 17.606 10.453 16.907 10.34 16.188 C10.181 15.277 10.023 14.367 9.859 13.43 C9.709 12.525 9.558 11.62 9.402 10.688 C8.841 7.961 8.841 7.961 5.672 6.305 C-2.776 4.972 -9.953 7.62 -17.078 11.992 C-25.566 20.716 -29.815 31.246 -30.328 43.305 C-31.648 43.305 -32.968 43.305 -34.328 43.305 C-34.874 35.324 -33.942 29.443 -30.328 22.305 C-29.916 21.469 -29.503 20.634 -29.078 19.773 C-24.975 12.219 -19.435 5.371 -11.297 2.078 C-7.545 1.064 -3.846 0.503 0 0 Z " fill="#000000" transform="translate(314.328125,189.6953125)"/>
<path d="M0 0 C1.32 0.33 2.64 0.66 4 1 C3.97 7.422 2.59 11.387 -1.332 16.469 C-3.21 18.193 -4.509 18.611 -7 19 C-7 16 -7 16 -4.625 12.875 C-1.601 8.874 -0.743 4.892 0 0 Z " fill="#000000" transform="translate(389,226)"/>
<path d="M0 0 C0.99 0.33 1.98 0.66 3 1 C2.409 5.851 0.323 9.516 -2.062 13.688 C-2.467 14.398 -2.872 15.108 -3.289 15.84 C-6.693 21.69 -10.448 26.977 -15 32 C-15.748 32.829 -16.495 33.658 -17.266 34.512 C-23.846 41.442 -33.112 50.812 -43 52 C-43 51.01 -43 50.02 -43 49 C-41.119 47.374 -39.266 45.94 -37.25 44.5 C-20.557 32.044 -9.902 18.201 0 0 Z " fill="#000000" transform="translate(379,233)"/>
<path d="M0 0 C0.99 0.495 0.99 0.495 2 1 C1.423 4.448 0.338 5.999 -2.211 8.355 C-3.205 9.282 -3.205 9.282 -4.218 10.228 C-4.93 10.875 -5.642 11.521 -6.375 12.188 C-7.101 12.857 -7.827 13.527 -8.575 14.217 C-13.417 18.653 -18.369 22.885 -23.512 26.969 C-26.011 29.009 -28.34 31.164 -30.688 33.375 C-34.928 37.236 -39.415 40.559 -44.125 43.812 C-44.782 44.269 -45.439 44.725 -46.116 45.195 C-53.189 49.989 -59.962 54.165 -68.688 54.062 C-69.681 54.053 -70.675 54.044 -71.699 54.035 C-72.838 54.018 -72.838 54.018 -74 54 C-74.66 52.68 -75.32 51.36 -76 50 C-74.577 50.093 -74.577 50.093 -73.125 50.188 C-62.222 50.057 -54.399 44.314 -46 38 C-44.947 37.223 -43.894 36.445 -42.809 35.645 C-32.238 27.694 -22.336 18.966 -12.562 10.062 C-8.562 6.431 -4.399 3.134 0 0 Z " fill="#000000" transform="translate(321,265)"/>
<path d="M0 0 C0.99 0 1.98 0 3 0 C3 3.63 3 7.26 3 11 C5.64 11 8.28 11 11 11 C11.33 12.32 11.66 13.64 12 15 C9.043 16.478 6.258 16.06 3 16 C2.67 17.65 2.34 19.3 2 21 C1.34 21 0.68 21 0 21 C-0.66 19.35 -1.32 17.7 -2 16 C-4.97 15.67 -7.94 15.34 -11 15 C-11 14.01 -11 13.02 -11 12 C-7.527 10.842 -4.639 10.931 -1 11 C-1.012 10.374 -1.023 9.747 -1.035 9.102 C-1.044 8.284 -1.053 7.467 -1.062 6.625 C-1.074 5.813 -1.086 5.001 -1.098 4.164 C-1 2 -1 2 0 0 Z " fill="#000000" transform="translate(429,266)"/>
<path d="M0 0 C0.66 0.66 1.32 1.32 2 2 C1.01 2.33 0.02 2.66 -1 3 C-1.33 3.99 -1.66 4.98 -2 6 C-2.66 6 -3.32 6 -4 6 C-4 6.66 -4 7.32 -4 8 C-4.66 8 -5.32 8 -6 8 C-6 8.99 -6 9.98 -6 11 C-6.66 11 -7.32 11 -8 11 C-6.527 5.991 -3.725 3.482 0 0 Z " fill="#000000" transform="translate(377,268)"/>
<path d="M0 0 C0.66 0.66 1.32 1.32 2 2 C1.01 3.485 1.01 3.485 0 5 C-0.66 5 -1.32 5 -2 5 C-2.248 5.557 -2.495 6.114 -2.75 6.688 C-4.229 9.424 -5.935 11.677 -8 14 C-8.66 14 -9.32 14 -10 14 C-10 14.66 -10 15.32 -10 16 C-10.66 16 -11.32 16 -12 16 C-12.309 16.619 -12.619 17.238 -12.938 17.875 C-13.625 19.25 -14.312 20.625 -15 22 C-15.66 22 -16.32 22 -17 22 C-17.33 22.99 -17.66 23.98 -18 25 C-20.062 25.688 -20.062 25.688 -22 26 C-19.51 21.321 -16.193 17.797 -12.562 14 C-11.416 12.793 -10.272 11.585 -9.129 10.375 C-8.589 9.804 -8.049 9.233 -7.493 8.645 C-6.162 7.179 -4.93 5.625 -3.715 4.062 C-3.149 3.382 -2.583 2.701 -2 2 C-1.34 2 -0.68 2 0 2 C0 1.34 0 0.68 0 0 Z " fill="#000000" transform="translate(365,269)"/>
<path d="M0 0 C0.66 0.66 1.32 1.32 2 2 C1.34 2 0.68 2 0 2 C-0.33 2.99 -0.66 3.98 -1 5 C-1.66 5 -2.32 5 -3 5 C-3.33 5.99 -3.66 6.98 -4 8 C-4.66 7.67 -5.32 7.34 -6 7 C-5.34 6.01 -4.68 5.02 -4 4 C-3.34 4 -2.68 4 -2 4 C-1.34 2.68 -0.68 1.36 0 0 Z " fill="#000000" transform="translate(365,282)"/>
<path d="M0 0 C2.562 0.312 2.562 0.312 4.375 1.5 C6.003 3.985 6.072 5.4 5.562 8.312 C3.875 10.188 3.875 10.188 1.562 11.312 C-1.062 11.188 -1.062 11.188 -3.438 10.312 C-5.438 7.312 -5.438 7.312 -5.188 4.75 C-4.193 1.516 -3.412 0.437 0 0 Z " fill="#000000" transform="translate(498.4375,320.6875)"/>
<path d="M0 0 C9.682 5.083 18.124 11.85 26.09 19.297 C27.945 21.018 29.841 22.601 31.816 24.18 C47.525 37.612 60.148 58.895 66.637 78.32 C67.99 81.534 67.99 81.534 71.133 82.617 C72.163 82.844 73.193 83.071 74.254 83.305 C93.041 89.876 104.99 102.732 113.504 120.367 C121.507 137.769 129.038 161.925 126.254 181.305 C125.234 183.586 125.234 183.586 124.254 185.305 C123.45 184.717 123.45 184.717 122.629 184.117 C120.18 182.967 120.18 182.967 117.691 184.555 C116.557 185.132 115.423 185.71 114.254 186.305 C99.358 190.168 82.963 188.514 69.254 181.305 C65.783 179.137 62.508 176.783 59.254 174.305 C58.202 173.542 57.15 172.778 56.066 171.992 C48.912 165.156 43.078 156.091 42.016 146.055 C42.004 144.117 42.004 144.117 42.254 141.305 C41.553 141.614 40.851 141.923 40.129 142.242 C29.092 146.321 17.046 144.672 6.434 140.086 C-11.451 130.914 -23.413 115.647 -32.746 98.305 C-33.339 97.204 -33.932 96.103 -34.543 94.969 C-47.13 69.737 -60.055 32.702 -51.746 4.305 C-49.76 -1.131 -46.422 -4.433 -41.746 -7.695 C-27.699 -12.378 -12.514 -6.254 0 0 Z M-33.746 28.305 C-33.416 29.625 -33.086 30.945 -32.746 32.305 C-32.086 32.305 -31.426 32.305 -30.746 32.305 C-30.492 32.884 -30.238 33.463 -29.976 34.059 C-28.608 36.556 -27.08 38.218 -25.066 40.228 C-24.311 40.986 -23.556 41.744 -22.779 42.524 C-21.961 43.335 -21.143 44.145 -20.301 44.98 C-19.457 45.824 -18.613 46.667 -17.744 47.536 C-15.956 49.321 -14.165 51.104 -12.372 52.885 C-9.647 55.591 -6.93 58.306 -4.215 61.021 C-2.473 62.758 -0.731 64.495 1.012 66.23 C1.817 67.035 2.623 67.839 3.453 68.668 C7.675 72.855 11.966 76.901 16.481 80.772 C19.482 83.366 22.361 86.092 25.254 88.805 C29.56 92.824 33.891 96.796 38.348 100.648 C42.369 104.142 46.307 107.728 50.254 111.305 C51.228 112.185 52.203 113.066 53.207 113.973 C58.867 119.108 64.376 124.338 69.707 129.82 C71.725 131.788 73.763 133.624 75.898 135.457 C81.065 139.939 85.867 144.772 90.691 149.617 C91.601 150.523 92.51 151.428 93.447 152.361 C94.31 153.226 95.173 154.09 96.062 154.98 C96.844 155.763 97.626 156.546 98.431 157.353 C100.254 159.305 100.254 159.305 101.254 161.305 C101.914 161.305 102.574 161.305 103.254 161.305 C103.503 161.882 103.751 162.46 104.008 163.055 C105.43 165.623 107.07 167.282 109.191 169.305 C111.297 171.32 113.172 173.191 114.883 175.555 C115.335 176.132 115.788 176.71 116.254 177.305 C116.914 177.305 117.574 177.305 118.254 177.305 C117.86 172.323 115.289 169.718 111.941 166.305 C110.832 165.141 109.722 163.977 108.613 162.812 C108.048 162.225 107.483 161.638 106.9 161.032 C105.395 159.453 103.92 157.853 102.457 156.234 C96.324 149.448 89.962 142.908 83.504 136.43 C82.712 135.633 81.919 134.836 81.103 134.015 C76.882 129.805 72.572 125.775 68.054 121.886 C65.494 119.637 63.135 117.243 60.754 114.805 C57.057 111.057 53.283 107.468 49.281 104.047 C46.904 102.004 44.579 99.907 42.254 97.805 C39.273 95.115 36.281 92.442 33.254 89.805 C29.489 86.522 25.765 83.196 22.062 79.845 C20.262 78.216 18.459 76.591 16.652 74.971 C8.151 67.277 0.068 59.203 -7.996 51.055 C-19.53 37.677 -19.53 37.677 -33.746 28.305 Z " fill="#000000" transform="translate(121.74609375,331.6953125)"/>
<path d="M0 0 C0.66 0 1.32 0 2 0 C2.824 6.382 3.121 12.567 3 19 C4.98 19 6.96 19 9 19 C9 20.32 9 21.64 9 23 C7.02 23.33 5.04 23.66 3 24 C3 26.31 3 28.62 3 31 C1.68 31 0.36 31 -1 31 C-1 28.69 -1 26.38 -1 24 C-1.626 24.012 -2.253 24.023 -2.898 24.035 C-3.716 24.044 -4.533 24.053 -5.375 24.062 C-6.187 24.074 -6.999 24.086 -7.836 24.098 C-10 24 -10 24 -12 23 C-12 22.01 -12 21.02 -12 20 C-8.527 18.842 -5.639 18.931 -2 19 C-2.012 18.371 -2.023 17.742 -2.035 17.094 C-2.093 11.623 -1.884 6.404 -1 1 C-0.67 0.67 -0.34 0.34 0 0 Z " fill="#000000" transform="translate(605,327)"/>
<path d="M0 0 C0 0.99 0 1.98 0 3 C-0.981 3.34 -1.962 3.681 -2.973 4.031 C-23.297 11.246 -40.317 22.943 -58 35 C-59.202 35.819 -59.202 35.819 -60.429 36.655 C-63.617 38.833 -66.798 41.021 -69.973 43.219 C-82.565 51.93 -95.205 60.587 -108 69 C-108.788 69.535 -109.575 70.07 -110.387 70.621 C-112.207 71.827 -114.097 72.928 -116 74 C-116.99 73.67 -117.98 73.34 -119 73 C-117.632 68.895 -114.843 67.592 -111.375 65.312 C-109.913 64.33 -108.452 63.347 -106.992 62.363 C-105.795 61.56 -105.795 61.56 -104.573 60.741 C-99.848 57.544 -95.178 54.266 -90.5 51 C-10.951 -4.38 -10.951 -4.38 0 0 Z " fill="#000000" transform="translate(734,337)"/>
<path d="M0 0 C-1.65 0.66 -3.3 1.32 -5 2 C-4.322 1.928 -3.644 1.856 -2.945 1.781 C3.396 1.149 9.629 0.876 16 1 C16.495 1.99 16.495 1.99 17 3 C15.866 3.182 14.731 3.364 13.562 3.551 C12.042 3.804 10.521 4.058 9 4.312 C8.256 4.43 7.512 4.548 6.746 4.67 C1.517 5.557 -3.059 7.083 -8 9 C-11 9.188 -11 9.188 -13 9 C-12.01 10.98 -12.01 10.98 -11 13 C-15.386 13.702 -19.558 14.108 -24 14 C-21.36 14.66 -18.72 15.32 -16 16 C-19.51 17.966 -23.096 19.06 -27 20 C-27.66 19.67 -28.32 19.34 -29 19 C-30.665 18.658 -32.332 18.326 -34 18 C-35.485 17.505 -35.485 17.505 -37 17 C-36.01 18.485 -36.01 18.485 -35 20 C-35 20.99 -35 21.98 -35 23 C-32.133 22.427 -31.139 22.139 -29 20 C-29 20.66 -29 21.32 -29 22 C-20.325 19.526 -20.325 19.526 -11.938 16.25 C-9 15 -9 15 -5 15 C-5 15.99 -5 16.98 -5 18 C-7.97 18.66 -10.94 19.32 -14 20 C-14 20.66 -14 21.32 -14 22 C-11.69 21.34 -9.38 20.68 -7 20 C-7.473 24.167 -8.047 26.929 -11 30 C-11.66 30 -12.32 30 -13 30 C-13 30.66 -13 31.32 -13 32 C-13.66 32 -14.32 32 -15 32 C-15.33 32.99 -15.66 33.98 -16 35 C-16.784 35.124 -17.567 35.248 -18.375 35.375 C-21.633 36.151 -22.624 37.598 -24.875 40 C-28.354 43.274 -30.166 44 -35 44 C-35 44.66 -35 45.32 -35 46 C-37.906 47.257 -39.796 48 -43 48 C-43 48.66 -43 49.32 -43 50 C-43.99 50.495 -43.99 50.495 -45 51 C-44.34 51.33 -43.68 51.66 -43 52 C-42.464 51.361 -41.928 50.721 -41.375 50.062 C-38.556 47.615 -36.661 47.333 -33 47 C-33 46.34 -33 45.68 -33 45 C-32.313 44.758 -31.626 44.515 -30.918 44.266 C-30.017 43.93 -29.116 43.595 -28.188 43.25 C-27.294 42.925 -26.401 42.6 -25.48 42.266 C-22.727 40.861 -21.808 39.437 -20 37 C-18.093 36.737 -16.182 36.486 -14.262 36.348 C-10.864 35.825 -8.038 34.361 -4.98 32.84 C-3 32 -3 32 0 32 C-0.414 36.833 -2.464 38.827 -6 42 C-1.407 40.514 1.436 38.15 5 35 C5.33 35.99 5.66 36.98 6 38 C5.01 38.99 5.01 38.99 4 40 C4.99 41.98 4.99 41.98 6 44 C0.375 47 0.375 47 -3 47 C-3.33 47.99 -3.66 48.98 -4 50 C-4.66 50 -5.32 50 -6 50 C-6.495 50.99 -6.495 50.99 -7 52 C-6.072 51.484 -5.144 50.969 -4.188 50.438 C-1 49 -1 49 2 50 C2 50.66 2 51.32 2 52 C0.68 52.33 -0.64 52.66 -2 53 C-2 53.66 -2 54.32 -2 55 C-6.63 57.027 -11.091 57.791 -16.062 58.547 C-18.345 58.899 -20.614 59.339 -22.875 59.812 C-26.722 60.043 -28.752 58.981 -32 57 C-31.34 55.68 -30.68 54.36 -30 53 C-29.34 53 -28.68 53 -28 53 C-28 52.34 -28 51.68 -28 51 C-29.65 51.66 -31.3 52.32 -33 53 C-33 53.66 -33 54.32 -33 55 C-34.98 55.66 -36.96 56.32 -39 57 C-37.886 57.186 -37.886 57.186 -36.75 57.375 C-34.199 57.955 -32.273 58.737 -30 60 C-30 60.66 -30 61.32 -30 62 C-28.02 62.495 -28.02 62.495 -26 63 C-27.32 65.31 -28.64 67.62 -30 70 C-30.99 70 -31.98 70 -33 70 C-33.495 71.485 -33.495 71.485 -34 73 C-37.562 74.188 -37.562 74.188 -41 75 C-40.01 75.99 -39.02 76.98 -38 78 C-38.66 78.66 -39.32 79.32 -40 80 C-41.32 80 -42.64 80 -44 80 C-44 80.66 -44 81.32 -44 82 C-45.79 82.944 -47.581 83.888 -49.371 84.832 C-51.323 85.99 -51.323 85.99 -52 89 C-54.062 90.688 -54.062 90.688 -56 92 C-58 91 -58 91 -61 89 C-61 88.34 -61 87.68 -61 87 C-69.91 87.99 -69.91 87.99 -79 89 C-78.505 89.99 -78.505 89.99 -78 91 C-72.563 90.37 -72.563 90.37 -67.188 89.375 C-65 89 -65 89 -62 90 C-62 90.66 -62 91.32 -62 92 C-61.01 92.495 -61.01 92.495 -60 93 C-60 93.99 -60 94.98 -60 96 C-59.01 96.495 -59.01 96.495 -58 97 C-59.73 100.588 -61.688 102.772 -65 105 C-69.351 106.193 -73.789 106.65 -78.27 107.075 C-83.839 107.605 -87.952 108.596 -93 111 C-96.863 112.104 -100.309 112.713 -104.094 111.117 C-107.212 109.085 -108.743 107.771 -109.938 104.188 C-109.968 103.105 -109.968 103.105 -110 102 C-108.68 102 -107.36 102 -106 102 C-106.516 101.505 -107.031 101.01 -107.562 100.5 C-109.632 96.901 -108.967 93.861 -108 90 C-107.127 87.573 -106.117 85.331 -105 83 C-103.68 83 -102.36 83 -101 83 C-101 82.257 -101 81.515 -101 80.75 C-101 74.849 -100.639 70.978 -97.938 65.75 C-97.575 65.044 -97.213 64.337 -96.84 63.609 C-96.563 63.078 -96.286 62.547 -96 62 C-94.68 62 -93.36 62 -92 62 C-92.66 60.02 -93.32 58.04 -94 56 C-92.515 55.505 -92.515 55.505 -91 55 C-90.319 53.108 -90.319 53.108 -90 51 C-89.67 50.01 -89.34 49.02 -89 48 C-88.01 48 -87.02 48 -86 48 C-86 47.01 -86 46.02 -86 45 C-83.525 44.505 -83.525 44.505 -81 44 C-81.66 43.67 -82.32 43.34 -83 43 C-82.67 42.34 -82.34 41.68 -82 41 C-79.911 40.326 -78.196 40 -76 40 C-76.99 39.01 -77.98 38.02 -79 37 C-78.01 36.505 -78.01 36.505 -77 36 C-76.505 35.01 -76.505 35.01 -76 34 C-73.438 33.375 -73.438 33.375 -71 33 C-71.66 32.34 -72.32 31.68 -73 31 C-67.708 26.938 -67.708 26.938 -64.125 27.25 C-63.424 27.498 -62.722 27.745 -62 28 C-62 26.68 -62 25.36 -62 24 C-61.446 23.746 -60.891 23.492 -60.32 23.23 C-59.596 22.886 -58.871 22.542 -58.125 22.188 C-57.406 21.851 -56.686 21.515 -55.945 21.168 C-53.695 20.005 -53.695 20.005 -52 17 C-50.34 16.636 -48.673 16.3 -47 16 C-46.67 15.34 -46.34 14.68 -46 14 C-39.938 9.92 -39.938 9.92 -36.062 10.25 C-35.382 10.498 -34.701 10.745 -34 11 C-34 10.01 -34 9.02 -34 8 C-26.916 4.709 -20.382 2.458 -12.633 1.406 C-9.812 1.049 -9.812 1.049 -6.5 -0.188 C-3.819 -1.059 -2.597 -0.999 0 0 Z M-31 12 C-30 14 -30 14 -30 14 Z M-21 22 C-20.67 22.99 -20.34 23.98 -20 25 C-19.34 25 -18.68 25 -18 25 C-18.33 24.01 -18.66 23.02 -19 22 C-19.66 22 -20.32 22 -21 22 Z M-16 21 C-16.66 21.66 -17.32 22.32 -18 23 C-17.01 23 -16.02 23 -15 23 C-15.33 22.34 -15.66 21.68 -16 21 Z M-43 23 C-42.01 24.32 -41.02 25.64 -40 27 C-40.99 27.495 -40.99 27.495 -42 28 C-41.876 29.64 -41.876 29.64 -41.75 31.312 C-42 35 -42 35 -44 36.938 C-44.66 37.288 -45.32 37.639 -46 38 C-44.68 38 -43.36 38 -42 38 C-42 38.66 -42 39.32 -42 40 C-42.908 40.248 -43.815 40.495 -44.75 40.75 C-48.166 42.064 -49.542 43.378 -52 46 C-54.25 47.25 -54.25 47.25 -56 48 C-54.02 48.99 -54.02 48.99 -52 50 C-51.278 49.237 -50.556 48.474 -49.812 47.688 C-47.283 45.27 -44.999 43.736 -42 42 C-40.249 40.418 -40.249 40.418 -39 39 C-39.66 39 -40.32 39 -41 39 C-40.604 37.204 -40.182 35.413 -39.75 33.625 C-39.518 32.627 -39.286 31.63 -39.047 30.602 C-38 28 -38 28 -34 26 C-36.97 25.01 -39.94 24.02 -43 23 Z M-10 24 C-9 26 -9 26 -9 26 Z M-59 25 C-59 25.66 -59 26.32 -59 27 C-58.34 27 -57.68 27 -57 27 C-57 26.34 -57 25.68 -57 25 C-57.66 25 -58.32 25 -59 25 Z M-33 25 C-32.67 25.99 -32.34 26.98 -32 28 C-31.67 27.01 -31.34 26.02 -31 25 C-31.66 25 -32.32 25 -33 25 Z M-28 29 C-27.67 29.66 -27.34 30.32 -27 31 C-25.35 29.68 -23.7 28.36 -22 27 C-25.185 26.723 -25.185 26.723 -28 29 Z M-68 31 C-68 31.66 -68 32.32 -68 33 C-66.68 33.33 -65.36 33.66 -64 34 C-64.979 32.979 -65.98 31.979 -67 31 C-67.33 31 -67.66 31 -68 31 Z M-58 33 C-58.33 33.99 -58.66 34.98 -59 36 C-58.01 36.33 -57.02 36.66 -56 37 C-56 35.68 -56 34.36 -56 33 C-56.66 33 -57.32 33 -58 33 Z M-29 33 C-29 33.66 -29 34.32 -29 35 C-30.98 35.66 -32.96 36.32 -35 37 C-32.212 38.033 -31.132 38.045 -28.25 37.062 C-27.507 36.712 -26.765 36.361 -26 36 C-26.99 35.01 -27.98 34.02 -29 33 Z M-62 34 C-61 36 -61 36 -61 36 Z M-69 36 C-69 36.99 -69 37.98 -69 39 C-67.68 39.33 -66.36 39.66 -65 40 C-65 39.01 -65 38.02 -65 37 C-66.32 36.67 -67.64 36.34 -69 36 Z M-62 40 C-61.67 40.66 -61.34 41.32 -61 42 C-60.67 41.34 -60.34 40.68 -60 40 C-60.66 40 -61.32 40 -62 40 Z M-75 41 C-74.01 42.485 -74.01 42.485 -73 44 C-72.34 44 -71.68 44 -71 44 C-71 43.34 -71 42.68 -71 42 C-72.32 41.67 -73.64 41.34 -75 41 Z M-15 44 C-12.525 44.495 -12.525 44.495 -10 45 C-10 44.01 -10 43.02 -10 42 C-11.84 42 -13.396 43.172 -15 44 Z M-79 44 C-79.33 44.66 -79.66 45.32 -80 46 C-77.36 46.66 -74.72 47.32 -72 48 C-72 47.34 -72 46.68 -72 46 C-74.31 45.34 -76.62 44.68 -79 44 Z M-22 46 C-21.67 46.99 -21.34 47.98 -21 49 C-20.01 48.01 -19.02 47.02 -18 46 C-19.32 46 -20.64 46 -22 46 Z M-71 47 C-69.515 47.99 -69.515 47.99 -68 49 C-68 48.34 -68 47.68 -68 47 C-68.99 47 -69.98 47 -71 47 Z M-67 48 C-66.67 48.66 -66.34 49.32 -66 50 C-65.01 49.34 -64.02 48.68 -63 48 C-64.32 48 -65.64 48 -67 48 Z M-76 49 C-76 50.32 -76 51.64 -76 53 C-75.34 53 -74.68 53 -74 53 C-74.33 51.68 -74.66 50.36 -75 49 C-75.33 49 -75.66 49 -76 49 Z M-68 50 C-68 50.99 -68 51.98 -68 53 C-67.34 52.34 -66.68 51.68 -66 51 C-66.66 50.67 -67.32 50.34 -68 50 Z M-52 50 C-52.309 50.928 -52.619 51.856 -52.938 52.812 C-55.528 56.816 -57.451 57.147 -61.941 58.164 C-64.184 58.838 -64.184 58.838 -65.277 61.086 C-65.635 62.033 -65.635 62.033 -66 63 C-64.68 63 -63.36 63 -62 63 C-61.34 62.34 -60.68 61.68 -60 61 C-57.381 59.254 -55.962 58.613 -53 58 C-53.928 59.268 -53.928 59.268 -54.875 60.562 C-57.087 63.853 -58.038 67.153 -59 71 C-59.33 71.66 -59.66 72.32 -60 73 C-58.001 72.421 -58.001 72.421 -56 71 C-54.842 68.025 -54.842 68.025 -54 65 C-53.34 64.34 -52.68 63.68 -52 63 C-52.33 62.34 -52.66 61.68 -53 61 C-52.01 60.67 -51.02 60.34 -50 60 C-50 59.34 -50 58.68 -50 58 C-49.34 57.67 -48.68 57.34 -48 57 C-48.66 56.67 -49.32 56.34 -50 56 C-50.625 52.938 -50.625 52.938 -51 50 C-51.33 50 -51.66 50 -52 50 Z M-10 51 C-10 51.99 -10 52.98 -10 54 C-9.34 53.34 -8.68 52.68 -8 52 C-8.66 51.67 -9.32 51.34 -10 51 Z M-15 53 C-15.33 53.66 -15.66 54.32 -16 55 C-14.35 54.67 -12.7 54.34 -11 54 C-12.32 53.67 -13.64 53.34 -15 53 Z M-76 56 C-76 56.99 -76 57.98 -76 59 C-77.65 59 -79.3 59 -81 59 C-81.248 59.639 -81.495 60.279 -81.75 60.938 C-83 63 -83 63 -85.125 63.75 C-86.053 63.874 -86.053 63.874 -87 64 C-87 64.66 -87 65.32 -87 66 C-84.668 66.335 -84.668 66.335 -82 66 C-81.443 65.381 -80.886 64.762 -80.312 64.125 C-76.779 60.878 -72.643 60.673 -68 60 C-70.647 58.539 -71.894 58 -75 58 C-75.33 57.34 -75.66 56.68 -76 56 Z M-45 55 C-45.99 55.66 -46.98 56.32 -48 57 C-46.35 56.67 -44.7 56.34 -43 56 C-43.66 55.67 -44.32 55.34 -45 55 Z M-43 58 C-43.33 58.66 -43.66 59.32 -44 60 C-42.68 59.67 -41.36 59.34 -40 59 C-40.99 58.67 -41.98 58.34 -43 58 Z M-42 63 C-42.33 63.66 -42.66 64.32 -43 65 C-42.34 65 -41.68 65 -41 65 C-41.33 64.34 -41.66 63.68 -42 63 Z M-73 64 C-73 64.66 -73 65.32 -73 66 C-73.66 66 -74.32 66 -75 66 C-75 66.66 -75 67.32 -75 68 C-74.01 67.67 -73.02 67.34 -72 67 C-71.67 66.01 -71.34 65.02 -71 64 C-71.66 64 -72.32 64 -73 64 Z M-51 65 C-51 65.66 -51 66.32 -51 67 C-50.34 67 -49.68 67 -49 67 C-49 66.34 -49 65.68 -49 65 C-49.66 65 -50.32 65 -51 65 Z M-75 69 C-74.67 70.32 -74.34 71.64 -74 73 C-73.67 71.68 -73.34 70.36 -73 69 C-73.66 69 -74.32 69 -75 69 Z M-47 72 C-47.99 73.485 -47.99 73.485 -49 75 C-47.02 74.34 -45.04 73.68 -43 73 C-44.32 72.67 -45.64 72.34 -47 72 Z M-57 78 C-56.67 78.66 -56.34 79.32 -56 80 C-55.01 80 -54.02 80 -53 80 C-53.33 80.66 -53.66 81.32 -54 82 C-52.35 81.67 -50.7 81.34 -49 81 C-49.33 80.01 -49.66 79.02 -50 78 C-49.67 77.01 -49.34 76.02 -49 75 C-52.576 75 -54.053 76.088 -57 78 Z M-78 77 C-78.33 77.66 -78.66 78.32 -79 79 C-78.01 78.67 -77.02 78.34 -76 78 C-76.66 77.67 -77.32 77.34 -78 77 Z M-89 78 C-89.33 78.99 -89.66 79.98 -90 81 C-89.34 81 -88.68 81 -88 81 C-89.042 82.758 -90.083 84.516 -91.125 86.273 C-92.151 87.975 -92.151 87.975 -92 90 C-93.32 90.33 -94.64 90.66 -96 91 C-95.34 92.98 -94.68 94.96 -94 97 C-98 99 -102 101 -106 103 C-105.67 103.99 -105.34 104.98 -105 106 C-101.269 104.974 -98.267 103.617 -95.062 101.5 C-91.433 99.129 -88.213 97.966 -84 97 C-87.061 94.376 -87.732 94 -92 94 C-92 93.34 -92 92.68 -92 92 C-91.031 91.587 -90.061 91.175 -89.062 90.75 C-85.877 89.351 -85.877 89.351 -85.125 86.812 C-85.084 86.214 -85.043 85.616 -85 85 C-83.02 85 -81.04 85 -79 85 C-79 84.34 -79 83.68 -79 83 C-80.65 83 -82.3 83 -84 83 C-84 82.34 -84 81.68 -84 81 C-82.68 80.34 -81.36 79.68 -80 79 C-80.928 79.021 -81.856 79.041 -82.812 79.062 C-86 79 -86 79 -89 78 Z M-62 78 C-62.66 78.66 -63.32 79.32 -64 80 C-62.35 80 -60.7 80 -59 80 C-58.67 79.34 -58.34 78.68 -58 78 C-59.32 78 -60.64 78 -62 78 Z M-78 83 C-77.67 83.66 -77.34 84.32 -77 85 C-74.03 85 -71.06 85 -68 85 C-67.67 84.01 -67.34 83.02 -67 82 C-70.742 82 -74.29 82.513 -78 83 Z M-82 90 C-82 90.66 -82 91.32 -82 92 C-83.98 92.33 -85.96 92.66 -88 93 C-86.515 93.99 -86.515 93.99 -85 95 C-83.02 94.01 -81.04 93.02 -79 92 C-79.33 91.34 -79.66 90.68 -80 90 C-80.66 90 -81.32 90 -82 90 Z M-78 97 C-78 97.99 -78 98.98 -78 100 C-77.01 100 -76.02 100 -75 100 C-75 99.01 -75 98.02 -75 97 C-75.99 97 -76.98 97 -78 97 Z " fill="#000000" transform="translate(402,350)"/>
<path d="M0 0 C2.31 0.33 4.62 0.66 7 1 C7.33 3.31 7.66 5.62 8 8 C5.686 10.142 4.584 11 1.375 11 C-1 10 -1 10 -2.5 7.75 C-3 5 -3 5 -1.625 2.188 C-1.089 1.466 -0.553 0.744 0 0 Z " fill="#000000" transform="translate(531,359)"/>
<path d="M0 0 C1.98 0 3.96 0 6 0 C5.34 1.32 4.68 2.64 4 4 C2.02 4 0.04 4 -2 4 C-0.68 3.67 0.64 3.34 2 3 C1.34 2.67 0.68 2.34 0 2 C0 1.34 0 0.68 0 0 Z " fill="#000000" transform="translate(401,366)"/>
<path d="M0 0 C0.33 0.99 0.66 1.98 1 3 C-3.322 4.662 -7.263 5.293 -11.824 5.715 C-14.692 6.091 -17.276 7.05 -20 8 C-21.32 8 -22.64 8 -24 8 C-23 5 -23 5 -20.383 3.648 C-18.77 3.018 -18.77 3.018 -17.125 2.375 C-16.055 1.95 -14.985 1.524 -13.883 1.086 C-8.461 -0.957 -5.661 -0.835 0 0 Z " fill="#000000" transform="translate(473,365)"/>
<path d="M0 0 C1.32 0.33 2.64 0.66 4 1 C4 1.66 4 2.32 4 3 C4.99 3 5.98 3 7 3 C7 2.34 7 1.68 7 1 C7.66 1.33 8.32 1.66 9 2 C10 5 10 5 8.812 7.688 C8.214 8.451 7.616 9.214 7 10 C5.68 10 4.36 10 3 10 C3 9.01 3 8.02 3 7 C2.34 7 1.68 7 1 7 C1.33 7.99 1.66 8.98 2 10 C1.34 10 0.68 10 0 10 C0 10.66 0 11.32 0 12 C-2.97 12.66 -5.94 13.32 -9 14 C-8.072 12.804 -7.144 11.608 -6.188 10.375 C-3.697 7.066 -1.706 3.79 0 0 Z " fill="#000000" transform="translate(398,370)"/>
<path d="M0 0 C-0.99 1.485 -0.99 1.485 -2 3 C-4.64 2.67 -7.28 2.34 -10 2 C-6.198 -0.534 -4.316 -1.339 0 0 Z " fill="#000000" transform="translate(471,372)"/>
<path d="M0 0 C0.33 1.32 0.66 2.64 1 4 C1.99 3.01 2.98 2.02 4 1 C6.438 1.812 6.438 1.812 9 3 C9.33 3.99 9.66 4.98 10 6 C9.01 6.495 9.01 6.495 8 7 C8.33 7.99 8.66 8.98 9 10 C9.66 10 10.32 10 11 10 C12.625 12.5 12.625 12.5 14 15 C15.65 14.67 17.3 14.34 19 14 C17.68 13.67 16.36 13.34 15 13 C14.67 11.68 14.34 10.36 14 9 C17.25 8.25 17.25 8.25 21 8 C23.438 9.75 23.438 9.75 25 12 C25 12.99 25 13.98 25 15 C25.99 15.33 26.98 15.66 28 16 C29.688 18.562 29.688 18.562 31 21 C29.02 21.99 29.02 21.99 27 23 C28.32 23.66 29.64 24.32 31 25 C30.722 26.392 30.722 26.392 30.438 27.812 C29.759 31.013 29.759 31.013 31 34 C30.67 34.33 30.34 34.66 30 35 C30.99 35.495 30.99 35.495 32 36 C32 37.32 32 38.64 32 40 C32.598 39.794 33.196 39.587 33.812 39.375 C36 39 36 39 39 41 C38.34 40.381 37.68 39.762 37 39.125 C35 37 35 37 35 35 C38.63 35.99 42.26 36.98 46 38 C45.67 39.32 45.34 40.64 45 42 C44.01 42.33 43.02 42.66 42 43 C42.124 44.299 42.247 45.599 42.375 46.938 C42.479 48.034 42.479 48.034 42.586 49.152 C42.791 50.067 42.791 50.067 43 51 C43.99 51.495 43.99 51.495 45 52 C44.67 53.32 44.34 54.64 44 56 C42.35 55.578 40.705 55.137 39.062 54.688 C38.146 54.444 37.229 54.2 36.285 53.949 C35.531 53.636 34.777 53.323 34 53 C33.67 52.01 33.34 51.02 33 50 C31.608 49.814 31.608 49.814 30.188 49.625 C27 49 27 49 24 47 C24 46.34 24 45.68 24 45 C22.484 44.752 22.484 44.752 20.938 44.5 C16.453 43.272 14.345 40.352 11.578 36.777 C10.026 34.731 10.026 34.731 7 34 C6.257 33.237 5.515 32.474 4.75 31.688 C2.495 29.484 0.935 28.276 -1.75 26.812 C-5 25 -5 25 -6 23 C-7.888 22.315 -7.888 22.315 -10.062 21.875 C-10.796 21.707 -11.529 21.54 -12.285 21.367 C-12.851 21.246 -13.417 21.125 -14 21 C-13.979 19.928 -13.959 18.855 -13.938 17.75 C-13.825 14.239 -13.825 14.239 -14.625 11.938 C-15.198 8.977 -14.064 6.753 -13 4 C-12.34 4 -11.68 4 -11 4 C-11 4.66 -11 5.32 -11 6 C-10.541 5.567 -10.082 5.134 -9.609 4.688 C-8.996 4.131 -8.382 3.574 -7.75 3 C-7.147 2.443 -6.543 1.886 -5.922 1.312 C-4 0 -4 0 0 0 Z M-7 6 C-7 6.66 -7 7.32 -7 8 C-3.7 8 -0.4 8 3 8 C3.33 7.34 3.66 6.68 4 6 C-0.018 5.159 -3.018 4.946 -7 6 Z M22 18 C22 18.66 22 19.32 22 20 C21.01 20.495 21.01 20.495 20 21 C20.99 21.33 21.98 21.66 23 22 C23.688 24.062 23.688 24.062 24 26 C24.66 25.67 25.32 25.34 26 25 C25.34 22.69 24.68 20.38 24 18 C23.34 18 22.68 18 22 18 Z " fill="#000000" transform="translate(479,372)"/>
<path d="M0 0 C0.835 0.557 0.835 0.557 1.688 1.125 C0.697 1.62 0.697 1.62 -0.312 2.125 C-0.642 3.115 -0.973 4.105 -1.312 5.125 C-2.632 4.795 -3.952 4.465 -5.312 4.125 C-5.312 3.465 -5.312 2.805 -5.312 2.125 C-5.973 1.795 -6.632 1.465 -7.312 1.125 C-2.882 -1.09 -2.882 -1.09 0 0 Z " fill="#000000" transform="translate(460.3125,375.875)"/>
<path d="M0 0 C3.452 1.426 5.101 3.097 7.25 6.125 C7.771 6.849 8.292 7.574 8.828 8.32 C9.408 9.152 9.408 9.152 10 10 C6.447 11.149 5.2 11.087 1.688 9.562 C0.801 9.047 -0.086 8.531 -1 8 C-1 6.68 -1 5.36 -1 4 C-0.34 4 0.32 4 1 4 C0.67 2.68 0.34 1.36 0 0 Z " fill="#000000" transform="translate(514,396)"/>
<path d="M0 0 C0 0.99 0 1.98 0 3 C-2.709 4.354 -5.009 4.065 -8 4 C-8.33 3.34 -8.66 2.68 -9 2 C-5.865 0.142 -3.625 -0.201 0 0 Z " fill="#000000" transform="translate(390,410)"/>
<path d="M0 0 C2.625 0.938 2.625 0.938 5 2 C5 2.66 5 3.32 5 4 C4.01 4 3.02 4 2 4 C1.67 4.99 1.34 5.98 1 7 C0.01 6.67 -0.98 6.34 -2 6 C-2 4.35 -2 2.7 -2 1 C-1.34 0.67 -0.68 0.34 0 0 Z " fill="#000000" transform="translate(379,414)"/>
<path d="M0 0 C0.99 0.33 1.98 0.66 3 1 C3.33 1.99 3.66 2.98 4 4 C2.68 4.33 1.36 4.66 0 5 C0 5.66 0 6.32 0 7 C-2.303 9.217 -3.525 9.968 -6.75 10.188 C-7.493 10.126 -8.235 10.064 -9 10 C-6.944 4.975 -4.841 2.522 0 0 Z " fill="#000000" transform="translate(372,421)"/>
<path d="M0 0 C-1.281 1.707 -2.618 3.374 -4 5 C-4.66 5 -5.32 5 -6 5 C-6.66 6.32 -7.32 7.64 -8 9 C-9.65 8.67 -11.3 8.34 -13 8 C-13.33 7.01 -13.66 6.02 -14 5 C-12.618 3.961 -11.218 2.944 -9.812 1.938 C-9.035 1.369 -8.258 0.801 -7.457 0.215 C-4.48 -1.257 -3.113 -0.967 0 0 Z " fill="#000000" transform="translate(366,433)"/>
<path d="M0 0 C3.125 0.375 3.125 0.375 6 1 C5.67 1.99 5.34 2.98 5 4 C4.34 4 3.68 4 3 4 C3 4.66 3 5.32 3 6 C0.69 6 -1.62 6 -4 6 C-2.848 3.532 -1.952 1.952 0 0 Z " fill="#000000" transform="translate(349,444)"/>
<path d="M0 0 C0.577 0.227 1.155 0.454 1.75 0.688 C0.75 3.688 0.75 3.688 -2.25 5.688 C-2.25 6.678 -2.25 7.668 -2.25 8.688 C-3.24 8.688 -4.23 8.688 -5.25 8.688 C-5.353 9.224 -5.456 9.76 -5.562 10.312 C-6.47 13.448 -7.474 15.932 -9.25 18.688 C-12.438 19.562 -12.438 19.562 -15.25 19.688 C-15.91 18.697 -16.57 17.707 -17.25 16.688 C-12.5 11.812 -12.5 11.812 -10.25 10.688 C-9.594 8.16 -9.594 8.16 -9.25 5.688 C-7.6 5.688 -5.95 5.688 -4.25 5.688 C-4.25 5.027 -4.25 4.368 -4.25 3.688 C-4.91 3.358 -5.57 3.027 -6.25 2.688 C-2.804 -0.389 -2.804 -0.389 0 0 Z " fill="#000000" transform="translate(346.25,452.3125)"/>
<path d="M0 0 C4.384 2.149 6.132 5.223 8.188 9.562 C10.01 15.306 10.125 21.943 7.875 27.562 C6.188 30.562 6.188 30.562 3.188 32.562 C-0.214 32.475 -1.512 31.846 -4 29.5 C-8.401 22.367 -8.788 13.754 -7.812 5.562 C-4.712 -0.733 -4.712 -0.733 0 0 Z M-1.812 4.562 C-4.323 8.328 -4.322 12.207 -3.812 16.562 C-2.976 19.956 -1.95 23.259 -0.812 26.562 C0.508 26.562 1.827 26.562 3.188 26.562 C5.268 20.366 5.225 15.962 3.305 9.727 C1.996 7.192 0.564 6.091 -1.812 4.562 Z " fill="#000000" transform="translate(702.8125,456.4375)"/>
<path d="M0 0 C1.32 0.66 2.64 1.32 4 2 C4 2.66 4 3.32 4 4 C4.99 4.33 5.98 4.66 7 5 C6.453 8.375 5.945 10.082 4 13 C4.99 13.33 5.98 13.66 7 14 C6.01 14.495 6.01 14.495 5 15 C5.619 15.082 6.238 15.165 6.875 15.25 C9 16 9 16 10.25 17.625 C11.271 20.859 11.249 23.632 11 27 C9.006 28.994 7.487 29.757 5 31 C3.649 31.976 2.311 32.97 1 34 C5.976 35.605 10.109 34.256 15 33 C18.458 32.155 20.599 31.866 24 33 C23.67 35.31 23.34 37.62 23 40 C22.34 40 21.68 40 21 40 C21 41.32 21 42.64 21 44 C20.34 44 19.68 44 19 44 C18.67 46.31 18.34 48.62 18 51 C15.417 51.195 12.834 51.381 10.25 51.562 C9.52 51.619 8.791 51.675 8.039 51.732 C1.333 52.19 1.333 52.19 -2 51 C-3.047 48.715 -3.047 48.715 -3.75 45.938 C-3.992 45.018 -4.235 44.099 -4.484 43.152 C-4.655 42.442 -4.825 41.732 -5 41 C-3.515 40.505 -3.515 40.505 -2 40 C-2.776 36.925 -2.776 36.925 -5 35 C-5 31.703 -4.652 29.18 -4 26 C-4 25.01 -4 24.02 -4 23 C-3.34 22.01 -2.68 21.02 -2 20 C-2 19.01 -2 18.02 -2 17 C-2.66 16.34 -3.32 15.68 -4 15 C-3.625 12.625 -3.625 12.625 -3 10 C-3 8.68 -3 7.36 -3 6 C-2.34 5.67 -1.68 5.34 -1 5 C-0.344 2.473 -0.344 2.473 0 0 Z M2 20 C1.67 20.66 1.34 21.32 1 22 C1.99 21.67 2.98 21.34 4 21 C3.34 20.67 2.68 20.34 2 20 Z M4 25 C3.67 25.66 3.34 26.32 3 27 C3.66 27 4.32 27 5 27 C4.67 26.34 4.34 25.68 4 25 Z M6 25 C6.33 25.66 6.66 26.32 7 27 C7.66 26.67 8.32 26.34 9 26 C8.01 25.67 7.02 25.34 6 25 Z M12 36 C12.66 37.32 13.32 38.64 14 40 C14 38.68 14 37.36 14 36 C13.34 36 12.68 36 12 36 Z M0 41 C-0.99 41.66 -1.98 42.32 -3 43 C-1.68 43 -0.36 43 1 43 C0.67 42.34 0.34 41.68 0 41 Z " fill="#000000" transform="translate(292,458)"/>
<path d="M0 0 C1.212 0.027 1.212 0.027 2.449 0.055 C3.372 0.089 3.372 0.089 4.312 0.125 C3.983 1.115 3.653 2.105 3.312 3.125 C2.653 3.455 1.993 3.785 1.312 4.125 C0.231 5.743 0.231 5.743 -0.75 7.625 C-2.607 11.044 -2.607 11.044 -3.688 12.125 C-3.027 12.785 -2.368 13.445 -1.688 14.125 C-2.678 14.125 -3.668 14.125 -4.688 14.125 C-4.688 14.785 -4.688 15.445 -4.688 16.125 C-5.678 16.455 -6.668 16.785 -7.688 17.125 C-9.063 15.835 -10.395 14.498 -11.688 13.125 C-11.688 12.465 -11.688 11.805 -11.688 11.125 C-11.027 11.125 -10.368 11.125 -9.688 11.125 C-9.688 10.465 -9.688 9.805 -9.688 9.125 C-11.602 9.16 -11.602 9.16 -13.555 9.195 C-15.224 9.214 -16.893 9.232 -18.562 9.25 C-19.825 9.275 -19.825 9.275 -21.113 9.301 C-21.919 9.307 -22.725 9.314 -23.555 9.32 C-24.298 9.331 -25.042 9.341 -25.808 9.352 C-27.688 9.125 -27.688 9.125 -29.688 7.125 C-26.688 5.125 -26.688 5.125 -24.312 4.688 C-21.598 4.29 -21.598 4.29 -19.438 2.5 C-15.866 0.714 -13.61 1.269 -9.773 1.996 C-6.231 2.215 -3.936 -0.114 0 0 Z " fill="#000000" transform="translate(330.6875,457.875)"/>
<path d="M0 0 C0.99 0.33 1.98 0.66 3 1 C4.207 0.722 4.207 0.722 5.438 0.438 C8 0 8 0 10.25 0.75 C12 2 12 2 13 5 C14.328 6.006 15.662 7.007 17 8 C17 8.66 17 9.32 17 10 C16.34 10 15.68 10 15 10 C15.33 11.32 15.66 12.64 16 14 C16.99 13.34 17.98 12.68 19 12 C19 12.66 19 13.32 19 14 C19.66 14 20.32 14 21 14 C21.625 15.875 21.625 15.875 22 18 C21.34 18.66 20.68 19.32 20 20 C16.938 19.625 16.938 19.625 14 19 C13.67 19 13.34 19 13 19 C10.995 18.347 8.996 17.678 7 17 C5.886 16.629 4.772 16.257 3.625 15.875 C2.326 15.442 2.326 15.442 1 15 C1.506 12.831 2 11 3 9 C2.01 8.67 1.02 8.34 0 8 C0 6 0 4 0 2 C-0.66 1.67 -1.32 1.34 -2 1 C-1.34 0.67 -0.68 0.34 0 0 Z " fill="#000000" transform="translate(304,470)"/>
<path d="M0 0 C1.562 1.125 1.562 1.125 3 3 C2.688 6.188 2.688 6.188 2 9 C0.667 6.333 -0.667 3.667 -2 1 C-1.34 0.67 -0.68 0.34 0 0 Z " fill="#000000" transform="translate(328,476)"/>
<path d="M0 0 C1.98 0 3.96 0 6 0 C3.911 6.567 1.741 12.951 -1.266 19.16 C-2.185 21.134 -2.185 21.134 -2 24 C-2.99 24 -3.98 24 -5 24 C-5.66 25.32 -6.32 26.64 -7 28 C-7.66 28 -8.32 28 -9 28 C-8.485 23.625 -7.682 20.046 -6 16 C-5.493 14.672 -4.991 13.343 -4.492 12.012 C-4.228 11.306 -3.964 10.6 -3.691 9.873 C-3.422 9.152 -3.153 8.431 -2.875 7.688 C-2.598 6.947 -2.321 6.206 -2.035 5.443 C-1.356 3.629 -0.678 1.815 0 0 Z " fill="#000000" transform="translate(319,493)"/>
<path d="M0 0 C0.66 0 1.32 0 2 0 C1.079 9.36 0.17 18.469 -4 27 C-4.99 26.67 -5.98 26.34 -7 26 C-6.55 25.05 -6.1 24.1 -5.637 23.121 C-3.686 18.57 -2.759 13.905 -1.812 9.062 C-1.635 8.188 -1.458 7.313 -1.275 6.412 C-0.844 4.276 -0.421 2.138 0 0 Z " fill="#000000" transform="translate(531,503)"/>
<path d="M0 0 C0 1.65 0 3.3 0 5 C-3.375 5.625 -3.375 5.625 -7 6 C-7.66 5.34 -8.32 4.68 -9 4 C-11.069 3.357 -11.069 3.357 -13 3 C-13 2.34 -13 1.68 -13 1 C-8.606 0.143 -4.474 -0.089 0 0 Z " fill="#000000" transform="translate(308,511)"/>
<path d="M0 0 C1.768 0.008 1.768 0.008 3.572 0.017 C46.986 0.618 80.635 24.968 110.158 54.661 C113.984 58.631 117.358 62.973 120.75 67.312 C121.682 68.502 121.682 68.502 122.633 69.715 C132.935 83.597 136.788 98.522 140.132 115.227 C140.505 117.092 140.891 118.954 141.298 120.812 C148.92 155.724 146.63 199.452 127.584 230.194 C121.836 239.013 115.033 246.745 107.75 254.312 C107.182 254.944 106.613 255.576 106.027 256.227 C81.883 282.285 44.329 294.491 10.568 300.781 C6.804 301.491 3.059 302.266 -0.688 303.062 C-1.738 303.284 -2.789 303.506 -3.871 303.734 C-6.247 304.218 -6.247 304.218 -8.25 305.312 C-8.204 306.086 -8.157 306.859 -8.109 307.656 C-7.875 314.412 -8.007 319.812 -12.25 325.312 C-16.362 328.667 -20.608 329.506 -25.867 329.121 C-31.314 328.67 -31.314 328.67 -36.258 330.586 C-39.574 334.126 -40.999 337.479 -41.473 342.301 C-41.139 345.316 -39.396 346.905 -37.171 348.827 C-36.578 349.297 -35.986 349.766 -35.375 350.25 C-34.174 351.273 -32.975 352.298 -31.777 353.324 C-31.18 353.824 -30.583 354.323 -29.968 354.837 C-27.499 356.957 -25.219 359.244 -22.938 361.562 C-22.219 362.29 -21.501 363.017 -20.762 363.766 C-20.263 364.276 -19.764 364.787 -19.25 365.312 C-18.367 364.963 -17.484 364.614 -16.574 364.254 C-9.084 361.414 -2.311 359.485 5.75 359.312 C6.708 359.262 7.666 359.212 8.652 359.16 C20.762 358.778 33.176 360.763 44.75 364.312 C44.75 363.322 44.75 362.332 44.75 361.312 C44.049 361.191 43.347 361.07 42.625 360.945 C36.93 359.939 31.341 358.789 25.75 357.312 C36.028 334.97 74.369 320.033 94.75 309.312 C95.879 308.717 97.007 308.122 98.17 307.509 C109.218 301.695 120.275 295.9 131.562 290.562 C132.219 290.251 132.876 289.94 133.552 289.62 C140.091 286.588 145.396 285.005 152.625 285.188 C153.313 285.197 154.002 285.206 154.711 285.215 C156.391 285.238 158.07 285.274 159.75 285.312 C159.657 283.456 159.657 283.456 159.562 281.562 C159.615 270.348 163.274 260.155 170.965 251.949 C174.807 248.35 177.409 245.998 182.75 245.312 C181.404 249.351 179.097 250.785 175.75 253.312 C175.09 253.312 174.43 253.312 173.75 253.312 C173.483 253.849 173.216 254.385 172.941 254.938 C172.061 256.692 171.172 258.441 170.277 260.188 C169.753 261.219 169.228 262.25 168.688 263.312 C167.897 264.859 167.897 264.859 167.09 266.438 C163.597 273.933 163.565 283.24 165.434 291.238 C169.804 302.9 177.598 310.077 188.75 315.188 C190.412 315.906 192.078 316.618 193.75 317.312 C193.75 317.973 193.75 318.632 193.75 319.312 C185.234 318.704 179.207 315.962 172.75 310.312 C171.345 311.508 171.345 311.508 171.375 314.938 C171.463 319.024 172.441 321.542 175.012 324.707 C180.419 329.701 187.345 332.154 194.625 332.586 C197.032 332.488 197.032 332.488 199.125 330.062 C199.661 329.155 200.197 328.247 200.75 327.312 C204.984 323.227 209.837 323.412 215.461 323.109 C218.75 323.312 218.75 323.312 221.812 325.562 C222.452 326.47 223.091 327.378 223.75 328.312 C227.798 331.402 230.693 331.845 235.75 331.312 C240.375 329.589 243.342 327.666 245.75 323.312 C246.426 318.702 246.315 314.71 244.562 310.375 C240.87 306.174 237.227 304.949 231.75 304.312 C232.972 293.725 240.626 284.726 246.75 276.312 C245.698 276.183 245.698 276.183 244.625 276.051 C237.017 274.924 231.191 273.27 226.031 267.336 C218.948 257.51 217.73 247.236 218.75 235.312 C219.77 231.859 219.77 231.859 220.75 229.312 C219.716 229.4 219.716 229.4 218.66 229.488 C211.509 229.832 206.339 228.993 200.75 224.312 C195.847 218.389 194.302 212.64 194.414 205.039 C195.24 198.336 198.421 192.977 203.688 188.812 C210.444 184.367 216.765 183.454 224.75 184.312 C232.903 186.318 239.856 190.641 244.32 197.848 C246.265 201.621 247.764 205.187 248.75 209.312 C249.945 209.543 251.14 209.774 252.371 210.012 C265.328 212.621 275.124 215.673 283.75 226.312 C285.108 228.618 286.325 230.964 287.539 233.348 C289.335 236.261 291.859 237.566 294.75 239.312 C299.255 244.027 302.65 248.569 302.827 255.202 C302.637 259.742 302.401 264.269 302.018 268.797 C301.656 275.259 301.656 275.259 304.832 280.602 C318.725 290.512 333.291 291.656 349.75 291.312 C350.837 314.15 342.247 338.876 327 356 C325.599 357.452 324.184 358.892 322.75 360.312 C321.904 361.199 321.059 362.086 320.188 363 C319.383 363.763 318.579 364.526 317.75 365.312 C317.227 365.831 316.703 366.349 316.164 366.883 C300.937 381.21 280.868 386.957 260.301 386.586 C242.017 385.8 227.167 377.29 214.719 364.172 C211.349 360.431 208.418 356.581 205.75 352.312 C205.542 353.04 205.335 353.767 205.121 354.516 C200.297 370.26 190.937 384.543 176.75 393.312 C177.547 393.483 178.343 393.653 179.164 393.828 C188.225 395.901 194.312 398.389 199.75 406.312 C200.837 410.185 201.266 412.229 199.523 415.891 C195.967 420.747 190.32 421.713 184.584 422.676 C170.045 424.704 155.396 424.549 140.75 424.312 C140.75 423.322 140.75 422.332 140.75 421.312 C141.323 421.323 141.897 421.333 142.487 421.344 C156.809 421.598 156.809 421.598 170.977 419.754 C175.236 419.076 179.441 419.216 183.742 419.34 C186.846 419.312 189.706 418.899 192.75 418.312 C192.75 417.652 192.75 416.993 192.75 416.312 C191.532 416.191 190.314 416.07 189.059 415.945 C187.435 415.776 185.811 415.607 184.188 415.438 C183.388 415.359 182.588 415.28 181.764 415.199 C176.882 414.681 172.428 413.807 167.75 412.312 C168.08 411.322 168.41 410.332 168.75 409.312 C169.905 409.477 171.06 409.642 172.25 409.812 C179.389 410.626 186.577 410.392 193.75 410.312 C193.75 408.993 193.75 407.673 193.75 406.312 C186.747 402.362 179.337 401.068 171.387 400.508 C168.75 400.312 168.75 400.312 166.082 399.867 C156.861 398.875 151.174 403.264 143.801 408.094 C134.878 413.906 125.276 418.581 115.75 423.312 C114.696 423.838 114.696 423.838 113.621 424.375 C73.809 443.887 17.098 457.168 -26.75 444.688 C-33.232 442.289 -38.737 438.343 -42.434 432.414 C-46.501 423.5 -45.648 413.752 -44.25 404.312 C-44.842 404.059 -45.433 403.805 -46.043 403.543 C-52.841 400.582 -52.841 400.582 -56 398.5 C-58.195 397.097 -58.195 397.097 -60.75 397.438 C-63.303 398.209 -63.303 398.209 -65.438 399.812 C-68.976 401.7 -71.884 401.674 -75.848 401.711 C-79.271 402.568 -80.198 404.511 -82.25 407.312 C-90.094 414.476 -96.616 419.06 -107.25 420.062 C-114.985 420.905 -120.738 423.616 -127.496 427.34 C-133.056 430.381 -138.909 432.691 -145.25 433.312 C-146.098 433.423 -146.946 433.534 -147.82 433.648 C-155.111 434.225 -155.111 434.225 -158.129 431.809 C-159.239 430.442 -160.313 429.045 -161.355 427.625 C-164.865 423.341 -169.573 420.229 -174.25 417.312 C-174.91 417.312 -175.57 417.312 -176.25 417.312 C-170.608 422.341 -164.946 427.346 -159.25 432.312 C-163.695 433.862 -166.472 432.464 -170.648 430.684 C-180.865 425.299 -186.562 416.426 -190.098 405.754 C-192.52 396.783 -192.93 387.679 -193.34 378.426 C-193.7 372.077 -194.175 368.24 -198.25 363.312 C-201.247 355.177 -200.375 346.621 -198.25 338.312 C-197.948 333.705 -197.865 331.18 -199.75 326.938 C-201.649 322.347 -202.176 318.214 -201.25 313.312 C-200.048 310.872 -198.685 308.631 -197.25 306.312 C-156.996 318.251 -118.653 335.392 -81.25 354.312 C-84.068 351.262 -86.752 349.28 -90.422 347.352 C-91.462 346.805 -92.502 346.258 -93.574 345.695 C-94.704 345.115 -95.835 344.535 -97 343.938 C-97.881 343.484 -97.881 343.484 -98.78 343.021 C-128.382 327.817 -159.546 315.371 -191.25 305.312 C-191.25 304.322 -191.25 303.332 -191.25 302.312 C-190.094 301.715 -190.094 301.715 -188.914 301.105 C-187.911 300.576 -186.908 300.046 -185.875 299.5 C-184.877 298.978 -183.88 298.456 -182.852 297.918 C-180.021 296.421 -180.021 296.421 -178.25 293.312 C-178.495 288.65 -179.398 284.73 -180.875 280.312 C-182.401 275.52 -182.319 272.211 -181.25 267.312 C-180.25 266.312 -180.25 266.312 -176.68 266.094 C-172.204 266.157 -168.533 267.236 -164.375 268.812 C-163.636 269.085 -162.897 269.358 -162.135 269.639 C-135.342 279.711 -109.677 293.472 -84.939 307.773 C-80.263 310.45 -75.538 313.037 -70.812 315.625 C-69.514 316.337 -69.514 316.337 -68.188 317.064 C-66.21 318.148 -64.23 319.231 -62.25 320.312 C-61.92 319.983 -61.59 319.652 -61.25 319.312 C-83.712 304.784 -107.392 292.363 -131.25 280.312 C-132.171 279.844 -133.091 279.376 -134.04 278.893 C-148.244 271.709 -162.936 266.596 -178.25 262.312 C-175.704 258.163 -173.509 254.773 -169.25 252.312 C-163.395 251.297 -158.71 252.729 -153.27 254.777 C-151.076 255.537 -151.076 255.537 -148.188 254.5 C-147.228 253.912 -147.228 253.912 -146.25 253.312 C-145.658 246.12 -145.658 246.12 -148.312 239.625 C-150.25 236.312 -150.25 236.312 -150.438 232.75 C-148.871 228.215 -146.274 225.849 -142.25 223.312 C-141.59 223.312 -140.93 223.312 -140.25 223.312 C-141.931 211.725 -143.985 200.282 -146.536 188.852 C-155.03 149.871 -145.058 106.937 -124.25 73.312 C-114.209 58.019 -101.729 44.466 -87.25 33.312 C-86.501 32.674 -85.752 32.036 -84.98 31.379 C-70.285 18.936 -52.925 10.067 -34.562 4.5 C-33.922 4.305 -33.282 4.11 -32.623 3.909 C-21.922 0.868 -11.085 -0.056 0 0 Z M-106.375 56.625 C-121.158 73.389 -131.797 92.928 -138.25 114.312 C-138.626 115.516 -139.003 116.72 -139.391 117.961 C-147.657 146.4 -146.419 174.343 -139.6 202.887 C-137.959 210.002 -137.465 217.021 -137.25 224.312 C-133.058 225.771 -128.877 226.904 -124.562 227.938 C-109.258 231.872 -90.27 238.851 -78.09 249.137 C-76.283 250.552 -76.283 250.552 -73.907 250.127 C-65.002 247.398 -59.41 236.454 -54.938 228.938 C-53.644 226.785 -52.349 224.634 -51.051 222.484 C-50.415 221.431 -49.779 220.377 -49.124 219.291 C-47.445 216.623 -45.681 214.1 -43.793 211.578 C-34.551 198.99 -32.808 186.583 -30.832 171.311 C-29.893 164.516 -28.385 157.826 -26.938 151.125 C-26.419 148.715 -25.901 146.305 -25.387 143.895 C-25.167 142.886 -24.948 141.878 -24.721 140.839 C-24.158 138.249 -24.158 138.249 -24.25 135.312 C-24.876 135.385 -25.503 135.457 -26.148 135.531 C-26.966 135.624 -27.783 135.717 -28.625 135.812 C-29.437 135.905 -30.249 135.998 -31.086 136.094 C-33.25 136.312 -33.25 136.312 -35.25 136.312 C-36.253 126.705 -34.041 120.234 -27.967 112.727 C-15.511 98.081 -15.511 98.081 -7.25 97.312 C-6.92 98.303 -6.59 99.293 -6.25 100.312 C-8.725 100.808 -8.725 100.808 -11.25 101.312 C-11.783 102.892 -12.301 104.476 -12.812 106.062 C-13.103 106.944 -13.393 107.826 -13.691 108.734 C-14.267 111.391 -14.142 112.783 -13.25 115.312 C-12.754 114.614 -12.257 113.915 -11.746 113.195 C-5.507 104.837 -5.507 104.837 -1.25 103.688 C0.235 103.502 0.235 103.502 1.75 103.312 C1.311 109.506 -0.086 113.581 -3.25 118.875 C-6.164 123.782 -7.778 127.582 -8.25 133.312 C-4.27 133.755 -4.27 133.755 -2.102 131.406 C-0.999 130.122 -0.999 130.122 0.125 128.812 C0.914 127.906 1.703 127 2.516 126.066 C4.443 123.691 6.165 121.282 7.875 118.75 C10.137 115.607 10.556 115.367 14.562 114.25 C17.75 114.312 17.75 114.312 18.75 115.312 C19.723 122.997 16.843 127.576 12.875 134 C11.771 135.836 10.669 137.673 9.57 139.512 C9.078 140.314 8.586 141.117 8.079 141.944 C5.278 146.937 4.524 150.557 4.75 156.312 C7.635 157.16 9.229 157.514 12.074 156.414 C18.613 152.329 24.148 147.592 29.75 142.312 C42.78 130.312 42.78 130.312 49.75 130.312 C51.186 134.582 50.051 136.684 48.195 140.617 C46.492 143.794 44.606 146.823 42.688 149.875 C37.356 157.621 37.356 157.621 36.191 166.527 C36.376 167.116 36.56 167.706 36.75 168.312 C41.243 166.886 44.166 164.395 47.5 161.188 C48.556 160.199 49.612 159.211 50.668 158.223 C51.695 157.253 52.723 156.283 53.75 155.312 C55.429 153.741 57.116 152.177 58.812 150.625 C59.851 149.66 59.851 149.66 60.91 148.676 C62.75 147.312 62.75 147.312 65.75 147.312 C64.356 151.773 61.868 154.945 58.992 158.543 C57.558 160.225 57.558 160.225 57.75 162.312 C60.77 161.277 62.723 160.337 65.125 158.188 C68.494 155.781 70.702 155.995 74.75 156.312 C75.004 157.023 75.258 157.733 75.52 158.465 C75.864 159.384 76.208 160.303 76.562 161.25 C76.899 162.167 77.235 163.083 77.582 164.027 C78.584 166.647 78.584 166.647 81.75 167.312 C84.917 165.938 84.917 165.938 87.75 164.312 C86.187 166.813 86.187 166.813 83.75 169.312 C80 169.625 80 169.625 76.75 169.312 C74.77 164.858 74.77 164.858 72.75 160.312 C68.047 160.606 65.523 162.874 62.105 165.84 C59.75 167.312 59.75 167.312 56.097 168.175 C51.693 169.231 47.876 170.957 43.84 172.98 C43.11 173.338 42.38 173.696 41.628 174.065 C39.311 175.203 36.999 176.351 34.688 177.5 C32.409 178.625 30.128 179.747 27.848 180.869 C26.347 181.608 24.848 182.349 23.35 183.094 C19.725 184.89 16.09 186.624 12.38 188.238 C11.691 188.541 11.002 188.845 10.292 189.158 C8.422 189.977 6.543 190.775 4.663 191.572 C0.35 194.149 -0.472 197.127 -1.914 201.766 C-3.616 206.285 -6.08 209.916 -8.812 213.875 C-9.882 215.441 -10.951 217.008 -12.02 218.574 C-12.559 219.362 -13.099 220.15 -13.655 220.962 C-21.23 232.122 -28.178 243.688 -34.953 255.346 C-35.69 256.61 -36.43 257.871 -37.174 259.131 C-38.218 260.902 -39.246 262.682 -40.27 264.465 C-40.869 265.496 -41.468 266.527 -42.085 267.59 C-43.439 270.166 -43.439 270.166 -43.062 272.56 C-41.845 275.188 -39.989 276.4 -37.688 278.125 C-34.283 280.742 -30.931 283.373 -27.688 286.188 C-27.047 286.742 -26.406 287.296 -25.746 287.867 C-24.25 289.312 -24.25 289.312 -23.25 291.312 C-22.59 291.312 -21.93 291.312 -21.25 291.312 C-20.852 292.186 -20.852 292.186 -20.445 293.078 C-19.217 295.374 -17.847 297.116 -16.125 299.062 C-15.167 300.146 -14.208 301.229 -13.25 302.312 C-12.733 302.135 -12.217 301.958 -11.684 301.775 C-6.158 299.992 -0.625 298.727 5.074 297.664 C5.829 297.523 6.583 297.382 7.36 297.237 C10.501 296.655 13.643 296.08 16.787 295.516 C31.061 292.938 44.382 289.188 57.625 283.125 C58.463 282.743 59.301 282.36 60.165 281.966 C83.824 270.943 108.217 254.206 121.75 231.312 C122.413 230.213 123.075 229.113 123.758 227.98 C136.874 205.85 140.188 183.736 140.125 158.375 C140.125 157.178 140.125 157.178 140.124 155.956 C140.086 141.454 138.732 127.527 135.75 113.312 C135.568 112.397 135.386 111.482 135.199 110.539 C127.928 74.627 100.756 46.199 71.014 26.142 C56.784 16.825 41.41 9.865 24.75 6.312 C23.756 6.088 22.762 5.864 21.738 5.633 C-27.987 -3.857 -73.307 21.383 -106.375 56.625 Z M-18.25 106.312 C-28.255 116.968 -28.255 116.968 -32.562 130.375 C-32.459 131.344 -32.356 132.314 -32.25 133.312 C-28.688 133.208 -26.649 132.136 -24.188 129.688 C-19.843 124.296 -18.361 117.03 -17.25 110.312 C-17.547 107.97 -17.547 107.97 -18.25 106.312 Z M-3.25 108.312 C-5.479 110.661 -7.5 113.193 -9.562 115.688 C-10.145 116.367 -10.727 117.046 -11.326 117.746 C-11.895 118.436 -12.464 119.125 -13.051 119.836 C-13.568 120.454 -14.085 121.072 -14.618 121.708 C-19.303 129.185 -21.19 137.524 -22.863 146.086 C-23.082 147.172 -23.301 148.258 -23.526 149.377 C-23.982 151.654 -24.433 153.931 -24.879 156.209 C-25.565 159.701 -26.271 163.188 -26.979 166.676 C-27.42 168.896 -27.861 171.116 -28.301 173.336 C-28.512 174.378 -28.723 175.419 -28.941 176.493 C-29.129 177.461 -29.316 178.429 -29.509 179.427 C-29.677 180.276 -29.845 181.126 -30.018 182.001 C-30.258 184.393 -29.983 186.039 -29.25 188.312 C-28.449 187.572 -28.449 187.572 -27.633 186.816 C-22.782 182.645 -19.091 180.305 -12.609 180.113 C-8.311 180.476 -4.864 181.425 -1.934 184.852 C-0.812 186.5 -0.812 186.5 0.75 189.312 C8.666 186.308 16.263 182.762 23.875 179.062 C25.022 178.508 26.17 177.954 27.352 177.383 C30.153 176.029 32.952 174.672 35.75 173.312 C35.264 172.718 34.778 172.124 34.277 171.512 C32.018 168.259 32.302 166.22 32.75 162.312 C35.491 153.83 40.76 146.08 45.465 138.578 C46.914 136.457 46.914 136.457 46.75 134.312 C43.391 135.783 41.097 137.679 38.438 140.188 C34.088 144.163 29.635 147.971 25.062 151.688 C24.137 152.455 24.137 152.455 23.192 153.238 C18.359 157.131 13.8 159.961 7.5 160.688 C4.33 160.255 3.705 159.746 1.75 157.312 C-0.412 145.718 8.538 133.681 14.719 124.426 C15.949 121.904 15.944 120.084 15.75 117.312 C11.608 118.846 9.923 121.513 7.438 125.062 C-1.013 136.737 -1.013 136.737 -7.062 137.812 C-9.25 137.312 -9.25 137.312 -11.25 135.312 C-11.983 129.167 -10.176 125.339 -7.312 120.125 C-6.571 118.738 -5.832 117.348 -5.098 115.957 C-4.768 115.352 -4.438 114.747 -4.098 114.124 C-3.202 112.21 -2.697 110.374 -2.25 108.312 C-2.58 108.312 -2.91 108.312 -3.25 108.312 Z M52.75 161.312 C51.392 162.959 50.057 164.625 48.75 166.312 C50.07 165.982 51.39 165.653 52.75 165.312 C53.08 163.993 53.41 162.673 53.75 161.312 C53.42 161.312 53.09 161.312 52.75 161.312 Z M-24.943 188.941 C-29.596 194.216 -33.201 199.817 -36.75 205.875 C-41.762 214.256 -46.877 222.554 -52.188 230.75 C-52.789 231.69 -53.391 232.63 -54.012 233.598 C-58.481 240.459 -63.422 246.564 -69.25 252.312 C-67.977 256.132 -66.66 256.535 -63.25 258.562 C-57.947 261.814 -53.074 265.394 -48.25 269.312 C-44.97 266.311 -42.899 263.274 -40.746 259.395 C-40.267 258.54 -40.267 258.54 -39.777 257.667 C-39.095 256.452 -38.416 255.234 -37.739 254.015 C-30.53 241.055 -22.85 228.525 -14.496 216.27 C-5.267 203.918 -5.267 203.918 -3.25 189.312 C-5.746 185.833 -7.487 184.557 -11.562 183.25 C-17.093 183.344 -20.942 185.092 -24.943 188.941 Z M-144.25 227.312 C-144.25 227.972 -144.25 228.632 -144.25 229.312 C-143.376 229.532 -142.502 229.751 -141.602 229.977 C-98.932 240.979 -61.912 263.549 -29.539 293.27 C-27.915 294.719 -26.236 296.107 -24.523 297.449 C-22.25 299.312 -22.25 299.312 -21.25 301.312 C-20.59 301.312 -19.93 301.312 -19.25 301.312 C-18.879 302.241 -18.879 302.241 -18.5 303.188 C-17.044 305.663 -15.872 306.264 -13.25 307.312 C-12.92 306.653 -12.59 305.993 -12.25 305.312 C-13.367 303.807 -14.494 302.308 -15.625 300.812 C-16.251 299.977 -16.878 299.142 -17.523 298.281 C-18.093 297.632 -18.663 296.982 -19.25 296.312 C-19.91 296.312 -20.57 296.312 -21.25 296.312 C-21.58 295.322 -21.91 294.332 -22.25 293.312 C-23.701 291.765 -23.701 291.765 -25.562 290.25 C-26.295 289.631 -27.027 289.013 -27.781 288.375 C-28.596 287.694 -29.411 287.014 -30.25 286.312 C-31.085 285.591 -31.921 284.869 -32.781 284.125 C-60.836 260.168 -104.901 225.638 -144.25 227.312 Z M116.31 318.975 C113.934 321.012 111.498 322.972 109.062 324.938 C104.611 328.561 100.326 332.332 96.082 336.195 C93.992 338.093 91.88 339.96 89.75 341.812 C85.035 345.926 80.383 350.106 75.75 354.312 C74.917 355.067 74.917 355.067 74.068 355.837 C72.292 357.45 70.52 359.068 68.75 360.688 C68.186 361.199 67.622 361.711 67.04 362.239 C64.586 364.493 62.608 366.525 60.75 369.312 C57.45 368.653 54.15 367.993 50.75 367.312 C50.75 368.303 50.75 369.293 50.75 370.312 C53.247 371.134 55.747 371.945 58.25 372.75 C58.946 372.98 59.642 373.21 60.359 373.447 C80.75 379.961 100.589 374.672 119.07 365.183 C121.913 363.679 124.729 362.13 127.534 360.555 C129.07 359.694 130.61 358.841 132.153 357.996 C134.55 356.681 136.933 355.344 139.312 354 C140.057 353.592 140.802 353.183 141.57 352.763 C143.864 351.486 143.864 351.486 146.75 349.312 C146.75 347.993 146.75 346.673 146.75 345.312 C140.197 347.926 134.113 351.292 127.938 354.688 C107.109 366.113 107.109 366.113 99.438 368.562 C98.472 368.877 97.506 369.192 96.512 369.516 C90.649 371.207 85.322 371.465 79.25 371.438 C77.987 371.443 77.987 371.443 76.699 371.449 C72.587 371.443 68.76 371.348 64.75 370.312 C65.9 369.162 67.051 368.012 68.203 366.863 C69.26 365.803 70.312 364.738 71.359 363.668 C74.969 360 78.696 356.546 82.594 353.188 C84.95 351.139 87.255 349.04 89.562 346.938 C93.025 343.808 96.557 340.807 100.188 337.875 C103.937 334.845 107.53 331.716 111.062 328.438 C118.408 321.688 126.272 315.589 134.309 309.688 C134.867 309.276 135.426 308.864 136.002 308.44 C137.535 307.316 139.076 306.202 140.617 305.09 C141.673 304.21 141.673 304.21 142.75 303.312 C142.75 302.652 142.75 301.993 142.75 301.312 C133.569 301.312 123.069 313.107 116.31 318.975 Z M162.75 302.312 C160.264 307.284 161.049 314.73 162.469 319.961 C166.39 329.226 172.675 334.598 181.688 338.625 C185.745 339.536 189.611 339.478 193.75 339.312 C193.75 338.322 193.75 337.332 193.75 336.312 C192.904 336.166 192.059 336.019 191.188 335.867 C182.143 334.079 176.88 331.442 170.438 325 C165.868 317.723 165.324 310.761 165.75 302.312 C164.76 302.312 163.77 302.312 162.75 302.312 Z M-67.25 340.312 C-70.359 344.019 -70.637 347.187 -70.488 351.82 C-70.083 356.055 -69.218 360.174 -68.25 364.312 C-68.91 364.642 -69.57 364.973 -70.25 365.312 C-70.539 364.178 -70.827 363.044 -71.125 361.875 C-71.496 360.699 -71.868 359.524 -72.25 358.312 C-72.91 357.983 -73.57 357.652 -74.25 357.312 C-76.795 364.948 -74.46 371.222 -71.25 378.312 C-65.353 389.444 -55.957 396.84 -44.25 401.312 C-42.93 401.312 -41.61 401.312 -40.25 401.312 C-39.984 400.759 -39.717 400.206 -39.443 399.635 C-29.911 379.922 -29.911 379.922 -23.25 371.312 C-22.59 370.322 -21.93 369.332 -21.25 368.312 C-24.358 365.087 -27.489 361.886 -30.625 358.688 C-31.495 357.784 -32.365 356.88 -33.262 355.949 C-38.799 350.329 -44.248 345.971 -51.25 342.312 C-51.91 342.973 -52.57 343.632 -53.25 344.312 C-49.95 350.253 -46.65 356.192 -43.25 362.312 C-46.603 361.195 -46.833 360.829 -48.512 357.934 C-48.908 357.26 -49.304 356.587 -49.713 355.893 C-50.117 355.186 -50.521 354.478 -50.938 353.75 C-51.353 353.039 -51.769 352.328 -52.197 351.596 C-53.223 349.839 -54.237 348.076 -55.25 346.312 C-55.58 346.973 -55.91 347.632 -56.25 348.312 C-55.102 350.897 -53.737 353.325 -52.379 355.805 C-51.25 358.312 -51.25 358.312 -51.25 362.312 C-51.568 361.753 -51.885 361.193 -52.212 360.616 C-53.657 358.074 -55.11 355.537 -56.562 353 C-57.062 352.119 -57.562 351.238 -58.076 350.33 C-58.806 349.059 -58.806 349.059 -59.551 347.762 C-59.996 346.981 -60.441 346.201 -60.9 345.397 C-62.198 343.392 -63.422 341.846 -65.25 340.312 C-65.91 340.312 -66.57 340.312 -67.25 340.312 Z M-58.25 343.312 C-57.92 344.303 -57.59 345.293 -57.25 346.312 C-57.25 345.322 -57.25 344.332 -57.25 343.312 C-57.58 343.312 -57.91 343.312 -58.25 343.312 Z M-188.25 377.312 C-187.077 380.83 -186.31 381.219 -183.288 383.188 C-182.446 383.743 -181.604 384.297 -180.736 384.869 C-179.816 385.462 -178.897 386.056 -177.949 386.668 C-177.002 387.288 -176.056 387.909 -175.08 388.548 C-172.038 390.54 -168.988 392.52 -165.938 394.5 C-163.923 395.815 -161.91 397.131 -159.896 398.447 C-156.044 400.966 -152.19 403.481 -148.333 405.994 C-132.403 416.383 -132.403 416.383 -129.135 419.016 C-127.219 420.596 -127.219 420.596 -124.25 420.312 C-124.25 419.322 -124.25 418.332 -124.25 417.312 C-125.858 415.814 -125.858 415.814 -128.051 414.469 C-128.884 413.92 -129.716 413.372 -130.574 412.808 C-131.489 412.22 -132.405 411.633 -133.348 411.027 C-134.289 410.412 -135.23 409.796 -136.199 409.162 C-139.231 407.181 -142.271 405.215 -145.312 403.25 C-147.306 401.952 -149.299 400.653 -151.291 399.354 C-154.214 397.447 -157.137 395.542 -160.066 393.645 C-164.357 390.864 -168.634 388.07 -172.855 385.184 C-173.542 384.716 -174.229 384.248 -174.937 383.765 C-176.178 382.916 -177.414 382.06 -178.645 381.196 C-181.817 379.026 -184.414 377.754 -188.25 377.312 Z M-188.25 385.312 C-187.877 387.818 -187.513 389.056 -185.676 390.848 C-184.978 391.352 -184.281 391.856 -183.562 392.375 C-182.744 392.983 -181.925 393.592 -181.082 394.219 C-180.147 394.91 -179.213 395.601 -178.25 396.312 C-176.077 397.992 -173.91 399.678 -171.75 401.375 C-171.165 401.834 -170.58 402.292 -169.977 402.765 C-164.356 407.191 -158.837 411.739 -153.324 416.3 C-148.011 420.694 -142.658 425.034 -137.25 429.312 C-136.59 428.653 -135.93 427.993 -135.25 427.312 C-140.329 422.013 -145.524 417.127 -151.312 412.613 C-155.021 409.709 -158.664 406.729 -162.312 403.75 C-174.343 392.083 -174.343 392.083 -188.25 385.312 Z M-185.25 400.312 C-185.25 401.303 -185.25 402.293 -185.25 403.312 C-183.25 405.112 -181.276 406.711 -179.125 408.312 C-177.841 409.293 -176.557 410.273 -175.273 411.254 C-174.609 411.757 -173.945 412.26 -173.261 412.778 C-169.479 415.665 -165.767 418.643 -162.046 421.607 C-158.55 424.368 -154.983 426.89 -151.25 429.312 C-150.913 426.209 -150.913 426.209 -153.164 424.219 C-154.059 423.425 -154.953 422.631 -155.875 421.812 C-156.361 421.381 -156.846 420.95 -157.347 420.505 C-170.267 407.76 -170.267 407.76 -185.25 400.312 Z " fill="#000000" transform="translate(416.25,330.6875)"/>
<path d="M0 0 C0.99 0.33 1.98 0.66 3 1 C2.67 1.99 2.34 2.98 2 4 C1.34 4 0.68 4 0 4 C-0.33 5.98 -0.66 7.96 -1 10 C-1.66 10 -2.32 10 -3 10 C-3.66 11.98 -4.32 13.96 -5 16 C-6.65 16 -8.3 16 -10 16 C-10.33 15.34 -10.66 14.68 -11 14 C-10.381 13.938 -9.763 13.876 -9.125 13.812 C-6.722 13.171 -6.722 13.171 -5.75 10.438 C-5.503 9.633 -5.255 8.829 -5 8 C-4.34 8 -3.68 8 -3 8 C-3.33 7.01 -3.66 6.02 -4 5 C-3.34 4.67 -2.68 4.34 -2 4 C-0.866 1.983 -0.866 1.983 0 0 Z " fill="#000000" transform="translate(523,535)"/>
<path d="M0 0 C-0.613 2.962 -1.254 4.381 -3 7 C-4.945 7.512 -4.945 7.512 -7.125 7.688 C-9.043 7.842 -9.043 7.842 -11 8 C-10.34 7.01 -9.68 6.02 -9 5 C-8.34 5 -7.68 5 -7 5 C-6.814 4.041 -6.814 4.041 -6.625 3.062 C-6.419 2.382 -6.212 1.701 -6 1 C-4 0 -4 0 0 0 Z " fill="#000000" transform="translate(514,554)"/>
<path d="M0 0 C-0.33 1.32 -0.66 2.64 -1 4 C-16.77 6.055 -32.553 7.864 -48.38 9.417 C-51.818 9.757 -55.255 10.107 -58.691 10.457 C-60.893 10.675 -63.095 10.893 -65.297 11.109 C-66.317 11.214 -67.336 11.32 -68.387 11.428 C-69.33 11.518 -70.273 11.609 -71.245 11.702 C-72.482 11.825 -72.482 11.825 -73.744 11.951 C-76.029 12.001 -77.823 11.663 -80 11 C-80 10.01 -80 9.02 -80 8 C-62.756 5.648 -45.497 3.551 -28.188 1.75 C-27.352 1.661 -26.517 1.573 -25.657 1.482 C-17.088 0.577 -8.63 -0.244 0 0 Z " fill="#000000" transform="translate(189,560)"/>
<path d="M0 0 C1.98 0 3.96 0 6 0 C6.33 1.32 6.66 2.64 7 4 C4.69 4 2.38 4 0 4 C0 2.68 0 1.36 0 0 Z " fill="#000000" transform="translate(618,560)"/>
<path d="M0 0 C-0.33 0.99 -0.66 1.98 -1 3 C-1.66 3 -2.32 3 -3 3 C-3 3.66 -3 4.32 -3 5 C-3.66 5 -4.32 5 -5 5 C-5.33 5.99 -5.66 6.98 -6 8 C-8.495 10.495 -9.674 10.981 -13.25 11.188 C-14.158 11.126 -15.065 11.064 -16 11 C-14.719 9.293 -13.382 7.626 -12 6 C-11.34 6 -10.68 6 -10 6 C-9.67 5.01 -9.34 4.02 -9 3 C-8.34 3 -7.68 3 -7 3 C-7 2.34 -7 1.68 -7 1 C-4.537 -0.231 -2.72 -0.072 0 0 Z " fill="#000000" transform="translate(507,565)"/>
<path d="M0 0 C-1.246 3.842 -2.334 6.115 -6 8 C-8.75 7.688 -8.75 7.688 -11 7 C-8.765 1.598 -5.88 -0.49 0 0 Z " fill="#000000" transform="translate(616,569)"/>
<path d="M0 0 C-0.25 1.875 -0.25 1.875 -1 4 C-3.812 5.733 -6.324 6.29 -9.562 6.75 C-11.919 7.157 -11.919 7.157 -14 8 C-16.147 10.952 -16.147 10.952 -17 14 C-17.99 13.67 -18.98 13.34 -20 13 C-19.396 7.561 -19.396 7.561 -17.898 5.438 C-15.13 3.341 -12.275 2.713 -8.938 1.812 C-7.688 1.468 -6.439 1.124 -5.152 0.77 C-2 0 -2 0 0 0 Z " fill="#000000" transform="translate(620,583)"/>
<path d="M0 0 C0.99 0.33 1.98 0.66 3 1 C2.161 5.584 -0.198 8.371 -4 11 C-6.875 10.875 -6.875 10.875 -9 10 C-6.679 5.487 -4.093 2.899 0 0 Z " fill="#000000" transform="translate(631,597)"/>
<path d="M0 0 C3.92 1.334 6.43 2.974 9.375 5.875 C10.084 6.553 10.793 7.231 11.523 7.93 C13 10 13 10 12.852 12.195 C12 14 12 14 10 15 C7.941 15.203 7.941 15.203 5.562 15.25 C4.78 15.276 3.998 15.302 3.191 15.328 C1 15 1 15 -0.766 13.766 C-2.328 11.531 -2.371 10.208 -2.312 7.5 C-2.309 6.727 -2.305 5.953 -2.301 5.156 C-2 3 -2 3 0 0 Z " fill="#000000" transform="translate(593,601)"/>
<path d="M0 0 C2.819 2.21 5.531 4.401 8 7 C9.65 5.35 11.3 3.7 13 2 C13.99 2.33 14.98 2.66 16 3 C15.533 5.616 15.088 6.899 13.312 8.938 C12.663 9.958 12.663 9.958 12 11 C12.625 13.524 12.625 13.524 14 16 C14.667 17.667 15.333 19.333 16 21 C14.312 21.812 14.312 21.812 12 22 C9.25 19.562 9.25 19.562 7 17 C5.02 19.31 3.04 21.62 1 24 C0.01 23.67 -0.98 23.34 -2 23 C-0.349 17.411 -0.349 17.411 1.75 14.938 C2.162 14.298 2.575 13.659 3 13 C2.275 10.099 1.187 8.244 -0.625 5.875 C-2 4 -2 4 -2 1 C-1.34 0.67 -0.68 0.34 0 0 Z " fill="#000000" transform="translate(99,605)"/>
</svg>
