<?xml version="1.0" encoding="UTF-8"?>
<!-- Generator: visioncortex VTracer 0.6.0 -->
<svg version="1.1" xmlns="http://www.w3.org/2000/svg" width="847" height="847">
<path d="M0 0 C0.99 0.33 1.98 0.66 3 1 C3 4.63 3 8.26 3 12 C8.28 12 13.56 12 19 12 C19 13.32 19 14.64 19 16 C13.72 16.33 8.44 16.66 3 17 C2.34 24.59 1.68 32.18 1 40 C-0.485 40.495 -0.485 40.495 -2 41 C-3.252 38.495 -3.114 36.791 -3.098 33.992 C-3.094 33.006 -3.091 32.02 -3.088 31.004 C-3.075 29.455 -3.075 29.455 -3.062 27.875 C-3.058 26.835 -3.053 25.794 -3.049 24.723 C-3.037 22.148 -3.019 19.574 -3 17 C-7.29 16.67 -11.58 16.34 -16 16 C-16.33 15.01 -16.66 14.02 -17 13 C-12.05 13 -7.1 13 -2 13 C-1.856 11.041 -1.711 9.081 -1.562 7.062 C-1.125 1.125 -1.125 1.125 0 0 Z " fill="#000000" transform="translate(411,29)"/>
<path d="M0 0 C1.32 0 2.64 0 4 0 C4.33 0.99 4.66 1.98 5 3 C3.629 5.688 3.629 5.688 1.562 9 C-6.016 21.665 -11.064 35.52 -15.655 49.502 C-16.984 53.477 -18.128 56.835 -21 60 C-22.32 59.67 -23.64 59.34 -25 59 C-23.605 51.887 -21.459 45.328 -18.875 38.562 C-18.478 37.516 -18.08 36.47 -17.671 35.393 C-6.816 7.126 -6.816 7.126 0 0 Z " fill="#000000" transform="translate(559,29)"/>
<path d="M0 0 C4.894 3.081 6.589 5.5 8 11 C8.508 14.782 8.826 18.571 9.125 22.375 C9.211 23.397 9.298 24.419 9.387 25.473 C9.598 27.981 9.802 30.49 10 33 C11.938 32.728 11.938 32.728 14 32 C15.572 29.683 16.92 27.449 18.25 25 C24.802 13.594 32.384 4.124 45.625 0.5 C51.51 -0.517 55.955 0.896 61.125 3.688 C67.656 8.941 72.979 15.422 74 24 C74.549 32.242 73.093 38.841 67.75 45.312 C64.487 48.783 61.303 50.975 57 53 C56.34 53 55.68 53 55 53 C55 53.66 55 54.32 55 55 C55.496 54.711 55.993 54.422 56.504 54.125 C61.144 51.589 64.589 50.183 70 51 C73.249 52.877 74.669 54.353 76.375 57.688 C77.544 63.883 76.961 68.901 73.625 74.312 C72.769 75.555 71.896 76.786 71 78 C70.402 78.825 69.804 79.65 69.188 80.5 C68.796 80.995 68.404 81.49 68 82 C69.011 81.918 70.021 81.835 71.062 81.75 C76.854 81.708 82.291 83.543 87.805 85.125 C90.769 86.088 90.769 86.088 93 86 C93.34 84.855 93.34 84.855 93.688 83.688 C95.081 79.773 96.764 76.094 98.52 72.332 C99.627 69.84 100.654 67.364 101.637 64.824 C109.627 44.251 109.627 44.251 119.062 39.723 C125.024 37.499 129.925 36.227 136.125 38.312 C141.673 40.915 145.848 44.738 149 50 C149.125 53.437 149.125 53.437 148 57 C146.053 65.011 144.334 74.002 147 82 C147.66 82 148.32 82 149 82 C148.942 81.233 148.884 80.466 148.824 79.676 C148.219 64.784 151.771 49.071 159 36 C159.501 35.032 160.003 34.064 160.52 33.066 C166.692 21.719 175.129 10.541 187.938 6.625 C194.28 5.359 199.787 5.812 205.25 9.438 C214.251 17.06 215.831 28.864 217 40 C217.457 47.725 216.969 55.331 216 63 C216.932 62.336 217.864 61.672 218.824 60.988 C226.953 55.315 234.501 51.029 244 48 C245.217 47.588 246.434 47.175 247.688 46.75 C262.032 43.502 280.089 42.879 293.062 50.625 C299.479 55.419 303.015 63.193 304.336 70.98 C306.152 84.845 305.394 97.33 296.816 108.844 C291.679 114.942 291.679 114.942 288.992 115.172 C288.294 115.033 287.595 114.893 286.875 114.75 C281.88 113.927 277.052 113.905 272 114 C271.67 114.66 271.34 115.32 271 116 C272.279 115.959 273.558 115.918 274.875 115.875 C288.58 115.939 298.665 120.923 308.516 130.328 C318.089 140.624 320.77 152.508 320.273 166.262 C319.587 175.651 316.175 181.795 309 188 C302.327 192.03 295.79 193.146 288.062 193.188 C286.878 193.202 285.693 193.216 284.473 193.23 C280.969 192.998 278.291 192.165 275 191 C275.191 192.297 275.382 193.594 275.579 194.93 C281.977 238.39 281.977 238.39 284.375 256.25 C284.53 257.392 284.685 258.535 284.845 259.711 C289.787 297.081 285.988 331.385 263.438 362.688 C250.826 378.485 235.035 385.333 215.84 389.723 C211.564 390.774 208.836 391.454 206.438 395.312 C203.434 403.017 203.808 410.78 203.812 418.938 C203.813 420.237 203.813 421.536 203.813 422.875 C203.874 433.106 204.355 443.063 207 453 C208.65 453.33 210.3 453.66 212 454 C210.763 472.245 202.255 488.884 191 503 C190.35 503.846 189.701 504.691 189.031 505.562 C187.077 507.907 185.072 509.839 182.75 511.812 C182.044 512.417 181.337 513.022 180.609 513.645 C180.078 514.092 179.547 514.539 179 515 C180.671 514.845 180.671 514.845 182.375 514.688 C190.331 514.688 197.464 519.607 203 525 C204.852 527.22 206.496 529.551 208.125 531.938 C208.541 532.532 208.958 533.127 209.387 533.74 C210.604 535.485 211.802 537.242 213 539 C213.394 539.563 213.788 540.127 214.194 540.708 C217 544.773 217 544.773 217 547 C237.425 528.326 237.783 493.66 240 468 C239.222 467.704 238.444 467.407 237.643 467.102 C229.788 463.827 224.186 456.718 221 449 C221 448.34 221 447.68 221 447 C217.04 446.34 213.08 445.68 209 445 C209 444.01 209 443.02 209 442 C212.743 440.129 216.924 440.472 221 441 C226.369 444.039 228.129 447.742 230.336 453.402 C234.544 459.971 241.531 462.99 248.73 465.227 C249.961 465.631 249.961 465.631 251.216 466.043 C252.965 466.618 254.716 467.186 256.469 467.749 C261.096 469.24 265.702 470.788 270.309 472.34 C271.227 472.649 272.145 472.958 273.091 473.276 C315.452 487.64 357.154 507.469 377.804 549.256 C392.791 580.263 400.957 611.602 408.406 645.068 C410.912 656.305 413.546 667.506 416.257 678.695 C420.447 696.01 424.309 713.384 428 730.812 C428.356 732.489 428.356 732.489 428.72 734.199 C436.521 770.958 436.521 770.958 434 776 C432.095 775.35 432.095 775.35 430 774 C429.077 771.542 429.077 771.542 428.476 768.408 C428.126 766.65 428.126 766.65 427.769 764.856 C427.533 763.582 427.297 762.309 427.055 760.996 C426.798 759.675 426.539 758.354 426.279 757.034 C425.597 753.55 424.936 750.062 424.279 746.574 C423.613 743.054 422.929 739.538 422.246 736.021 C421.476 732.054 420.709 728.086 419.954 724.116 C418.859 713.379 418.859 713.379 415 704 C414.93 704.572 414.86 705.144 414.788 705.734 C408.669 755.015 408.669 755.015 396 774 C395.01 774.33 394.02 774.66 393 775 C393.592 770.349 394.897 766.547 396.75 762.25 C403.94 744.879 407.313 726.654 409 708 C409.141 706.556 409.141 706.556 409.284 705.083 C410.851 687.666 409.102 672.495 404.697 655.641 C403.196 649.881 401.856 644.092 400.551 638.285 C387.664 580.511 387.664 580.511 358.828 529.293 C357 527 357 527 356 524 C353.456 521.605 350.57 519.62 347.75 517.562 C346.9 516.942 346.051 516.322 345.175 515.683 C315.054 494.11 279.807 481.765 245 470 C245.013 470.811 245.026 471.622 245.04 472.457 C245.268 497.354 241.136 531.205 223 550 C219.749 552.167 218.773 552.673 215 552 C212.789 549.727 212.789 549.727 210.625 546.625 C210.238 546.083 209.851 545.541 209.452 544.982 C207.627 542.413 205.867 539.803 204.109 537.188 C199.777 530.786 194.938 523.89 187 522 C182.754 521.721 179.06 521.647 175 523 C176.131 532.358 177.369 541.69 178.75 551.014 C181.655 570.628 184.053 590.268 186 610 C186.094 610.949 186.187 611.898 186.284 612.875 C189.4 644.669 191.731 676.496 193.75 708.375 C193.831 709.64 193.831 709.64 193.913 710.931 C194.991 727.855 196.025 744.78 196.703 761.727 C196.751 762.853 196.798 763.98 196.847 765.141 C196.884 766.157 196.92 767.174 196.958 768.221 C196.991 769.102 197.024 769.984 197.057 770.892 C197 773 197 773 196 775 C195.01 775 194.02 775 193 775 C192.046 770.858 191.718 766.762 191.491 762.531 C191.448 761.792 191.406 761.052 191.362 760.291 C191.27 758.683 191.179 757.075 191.09 755.467 C190.947 752.884 190.799 750.301 190.65 747.719 C190.438 744.025 190.227 740.331 190.017 736.638 C185.913 664.625 180.117 593.168 168 522 C154.665 521.617 154.665 521.617 142.331 526.052 C140.682 527.016 140.682 527.016 139 528 C139.588 541.244 140.564 554.427 141.745 567.63 C142.05 571.047 142.351 574.464 142.651 577.881 C143.083 582.805 143.516 587.728 143.951 592.651 C147.489 632.806 150.893 672.969 153.899 713.168 C154.123 716.167 154.351 719.165 154.579 722.163 C154.936 726.859 155.285 731.555 155.629 736.253 C155.753 737.944 155.88 739.634 156.008 741.325 C156.834 752.238 157.147 763.056 157 774 C156.01 774 155.02 774 154 774 C152.464 767.097 151.538 760.316 151.01 753.269 C150.929 752.244 150.847 751.219 150.763 750.164 C150.495 746.785 150.236 743.406 149.977 740.027 C149.788 737.625 149.598 735.224 149.409 732.822 C148.908 726.477 148.415 720.132 147.924 713.787 C147.437 707.52 146.945 701.253 146.453 694.986 C146.259 692.511 146.065 690.036 145.87 687.561 C145.774 686.339 145.678 685.117 145.58 683.857 C145.288 680.143 144.998 676.429 144.707 672.714 C142.045 638.712 139.349 604.713 136.19 570.752 C135.863 567.24 135.542 563.727 135.222 560.215 C134.967 557.431 134.71 554.647 134.452 551.863 C134.275 549.945 134.1 548.026 133.925 546.107 C133.818 544.964 133.711 543.821 133.601 542.643 C133.509 541.645 133.416 540.647 133.321 539.619 C133.041 537.333 132.622 535.214 132 533 C126.715 537.928 122.485 543.196 118.375 549.125 C107.255 565.097 107.255 565.097 100.625 566.504 C82.948 566.898 69.997 552.315 58 541 C57.267 540.309 56.533 539.618 55.777 538.906 C41.396 524.954 25.373 505.779 24 485 C-23.082 497.868 -75.751 513.657 -101.919 558.432 C-135.036 617.339 -141.953 688.515 -147.656 754.534 C-147.77 755.811 -147.77 755.811 -147.887 757.113 C-148.027 758.692 -148.163 760.271 -148.291 761.85 C-148.707 766.458 -149.599 770.588 -151 775 C-151.99 775 -152.98 775 -154 775 C-156.549 701.605 -144.357 592.086 -92.984 535.637 C-69.583 510.77 -37.688 497.864 -5.738 487.699 C-4.844 487.414 -3.95 487.128 -3.028 486.834 C1.438 485.411 5.91 484.008 10.394 482.641 C22.153 479.118 22.153 479.118 32 472 C32.527 471.504 33.055 471.008 33.598 470.497 C38.054 466.137 40.468 460.369 43.021 454.774 C45.079 450.379 47.187 447.156 51 444 C56.681 442.626 60.571 442.895 66 445 C66.33 445.66 66.66 446.32 67 447 C66.082 446.959 65.164 446.918 64.219 446.875 C60.01 447.016 56.918 447.411 53 449 C49.499 452.942 47.805 458.186 45.856 463.015 C43.123 469.354 39.287 474.355 33.5 478.062 C31.488 479.389 31.488 479.389 30 481 C28.504 496.708 41.749 513.33 50.969 524.672 C53.662 527.758 56.545 530.604 59.531 533.406 C61 535 61 535 61 537 C61.886 537.387 61.886 537.387 62.789 537.781 C65.185 539.102 66.544 540.479 68.375 542.5 C75.73 550.019 86.383 559.103 97 561 C102.909 560.171 104.912 557.1 108.438 552.438 C109.96 550.293 111.481 548.147 113 546 C115.026 543.383 117.091 540.806 119.18 538.238 C120.287 536.876 121.38 535.501 122.445 534.105 C129.576 525.081 139.87 518.709 151 516 C149.165 515.399 149.165 515.399 147.293 514.785 C119.185 505.382 95.434 491.649 74 471 C73.409 470.431 72.818 469.861 72.208 469.275 C70.38 467.504 68.563 465.724 66.75 463.938 C66.176 463.377 65.603 462.817 65.012 462.239 C63.635 460.865 62.312 459.437 61 458 C61 457.34 61 456.68 61 456 C62.114 455.227 62.114 455.227 63.25 454.438 C68.788 449.529 70.098 442.728 71.875 435.75 C73.82 428.509 73.82 428.509 77.125 426.375 C81.721 422.578 81.451 417.743 82 412 C82.265 406.683 82.248 401.365 82.206 396.043 C82.187 393.608 82.185 391.174 82.186 388.738 C82.181 387.172 82.175 385.605 82.168 384.039 C82.166 382.961 82.166 382.961 82.165 381.861 C82.127 377.808 81.779 373.977 81 370 C80.154 370.763 79.309 371.526 78.438 372.312 C71.88 377.656 66.408 378.563 58.031 378.352 C52.679 377.731 50.173 375.3 46.688 371.438 C43.932 367.457 43.864 364.356 43.875 359.625 C43.872 358.504 43.87 357.382 43.867 356.227 C43.985 353.357 44.342 350.788 45 348 C41.443 346.504 37.906 345.396 34.188 344.375 C4.438 335.208 -17.683 312.297 -32.312 285.5 C-47.359 256.713 -52.711 220.32 -43 189 C-36.968 171.114 -24.837 150.621 -8 141 C-7.34 141 -6.68 141 -6 141 C-5.83 140.105 -5.66 139.211 -5.484 138.289 C-3.117 126.478 -0.187 117.966 7.293 108.445 C8.888 106.16 9.789 104.763 10 102 C8.108 99.364 8.108 99.364 6 97 C6 96.34 6 95.68 6 95 C5.161 95.217 5.161 95.217 4.305 95.438 C-5.722 97.759 -17.631 99.125 -27 94 C-31.467 90.865 -35.883 87.585 -37 82 C-37.478 76.746 -36.891 73.433 -34 69 C-28.93 63.28 -23.397 62.802 -16 62 C-16.634 57.063 -18.761 53.032 -20.938 48.625 C-25.863 38.651 -29.425 28.525 -26.242 17.336 C-22.94 9.562 -18.4 4.951 -11 1 C-7.262 -0.246 -3.876 -0.645 0 0 Z M-12 9 C-16.1 13.404 -16.268 17.8 -16.234 23.547 C-15.939 26.634 -14.927 28.591 -13 31 C-12.01 30.34 -11.02 29.68 -10 29 C-10.186 28.01 -10.371 27.02 -10.562 26 C-11.163 21.79 -10.779 18.18 -10 14 C-9.34 13.34 -8.68 12.68 -8 12 C-8 11.01 -8 10.02 -8 9 C-9.32 9 -10.64 9 -12 9 Z M42.375 11.188 C40.122 13.856 38.861 15.642 38 19 C38.287 21.242 38.287 21.242 39 23 C42.057 22.343 42.057 22.343 43.062 20.223 C43.372 19.51 43.681 18.797 44 18.062 C45.424 14.794 45.874 14.084 49 12 C49 11.01 49 10.02 49 9 C44.943 8.573 44.943 8.573 42.375 11.188 Z M47.812 17.062 C45.724 20.447 45.308 23.068 45 27 C46.923 26.96 46.923 26.96 49 26 C50.667 23.083 50.667 23.083 52 20 C52.66 19.34 53.32 18.68 54 18 C54 17.01 54 16.02 54 15 C49.984 14.543 49.984 14.543 47.812 17.062 Z M192.438 16.5 C188.481 20.558 187.081 24.302 186.812 29.938 C186.874 30.948 186.936 31.959 187 33 C187.99 33.33 188.98 33.66 190 34 C190.814 32.063 191.626 30.125 192.438 28.188 C192.89 27.109 193.342 26.03 193.809 24.918 C194.604 22.97 195.335 20.996 196 19 C196.99 18.67 197.98 18.34 199 18 C199 17.34 199 16.68 199 16 C196.067 14.697 195.264 14.845 192.438 16.5 Z M200 24 C197.371 29.372 196.392 34.045 196 40 C197.32 40 198.64 40 200 40 C200.674 38.086 201.339 36.169 202 34.25 C202.371 33.183 202.743 32.115 203.125 31.016 C204.186 27.883 204.186 27.883 204 24 C202.68 24 201.36 24 200 24 Z M163.82 55.293 C155.258 68.026 152.383 82.962 155 98 C156.38 103.28 156.38 103.28 159 108 C161.564 108.83 161.564 108.83 164 109 C163.37 106.24 162.573 103.977 161.465 101.324 C159.742 96.783 159.5 92.636 159.562 87.812 C159.57 86.982 159.578 86.152 159.585 85.297 C159.92 72.693 164.141 60.396 173.312 51.438 C177.194 48.417 181.123 47.495 186 48 C190.144 49.934 191.459 52.637 193.188 56.688 C193.819 58.449 194.424 60.22 195 62 C195.342 63.034 195.342 63.034 195.691 64.09 C199.87 79.313 196.778 96.107 189.75 109.938 C182.157 122.979 171.794 131.958 157.121 136.117 C144.174 139.229 131.493 136.813 119 133 C119 133.99 119 134.98 119 136 C130.8 142.555 145.207 143.373 158.188 140.16 C173.335 135.551 185.522 126.548 193.539 112.82 C202.468 95.583 204.847 77.925 199.199 59.258 C196.677 52.406 193.809 47.268 187 44 C177.613 42.375 169.51 48.348 163.82 55.293 Z M267.82 67.586 C265.684 70.419 265.312 72.504 265 76 C269.116 76.465 269.116 76.465 271.551 73.516 C272.482 72.437 273.403 71.347 274.312 70.25 C278.15 65.634 281.627 62.75 287 60 C286.67 59.01 286.34 58.02 286 57 C278.047 57 273.274 62.354 267.82 67.586 Z M282 69 C281.206 70.249 280.415 71.499 279.625 72.75 C279.184 73.446 278.743 74.142 278.289 74.859 C275.667 79.214 274.765 81.821 275 87 C276.916 86.944 276.916 86.944 279 86 C280.736 83.379 280.736 83.379 282.125 80.188 C282.623 79.129 283.12 78.071 283.633 76.98 C284.084 75.997 284.535 75.013 285 74 C285.661 72.664 286.324 71.329 287 70 C285.35 69.67 283.7 69.34 282 69 Z M8 90 C8.33 91.32 8.66 92.64 9 94 C12.919 92.628 15.746 90.81 19 88.25 C28.459 81.254 38.528 77.356 50 75 C50.33 73.68 50.66 72.36 51 71 C35.852 69.591 18.573 79.692 8 90 Z M13 102 C12.959 103.666 12.957 105.334 13 107 C16.335 106.377 17.171 105.847 19.875 103.438 C31.178 93.369 46.513 87.508 61 84 C61.33 82.68 61.66 81.36 62 80 C45.53 78.468 24.44 90.56 13 102 Z M209.254 96.609 C203.393 102.825 198.174 108.594 196 117 C196.388 119.17 196.388 119.17 197 121 C197.99 121 198.98 121 200 121 C200.28 120.238 200.559 119.476 200.848 118.691 C206.4 104.39 215.643 94.307 229.566 87.801 C236.925 84.818 244.484 83.157 252.062 86.25 C254.975 88.881 255.928 90.907 256.188 94.848 C255.698 103.234 253.645 109.026 249 116 C248.381 116.949 247.763 117.898 247.125 118.875 C242.569 123.431 237.203 126.294 231 128 C231.33 128.99 231.66 129.98 232 131 C239.933 130.662 245.831 126.596 251.188 120.875 C257.345 113.066 261.67 104.096 261 94 C260.074 89.38 257.656 85.781 253.852 82.941 C239.138 75.46 219.672 86.518 209.254 96.609 Z M37 120 C26.872 129.615 24.238 141.768 23.625 155.375 C23.727 159.901 24.87 162.609 28 166 C30.121 166.952 30.121 166.952 32 167 C32.374 163.095 32.374 163.095 30.461 160.73 C28.514 157.092 28.996 154.234 29.625 150.312 C29.73 149.603 29.835 148.893 29.943 148.162 C31.497 138.197 33.644 130.327 41 123 C43.079 121.519 45.137 120.249 47.398 119.07 C49.337 118.012 49.337 118.012 50 115 C44.35 112.528 41.024 116.351 37 120 Z M30 120 C19.86 127.772 14.549 137.467 12 150 C12.33 150.99 12.66 151.98 13 153 C14.485 152.505 14.485 152.505 16 152 C16.902 149.677 17.633 147.45 18.312 145.062 C21.178 135.781 25.512 128.251 32 121 C31.34 120.67 30.68 120.34 30 120 Z M41.461 130.508 C36.709 135.362 35.974 141.416 35.75 147.875 C35.807 152.671 36.539 155.869 39 160 C41.069 161.043 41.069 161.043 43 161 C43.211 157.105 43.211 157.105 42 154 C41.52 147.719 41.885 141.942 44 136 C45.647 134.314 47.311 132.644 49 131 C48.955 128.725 48.955 128.725 48 127 C45.065 127 43.6 128.661 41.461 130.508 Z M224 134 C222.646 138.063 222.336 141.756 223 146 C225.856 149.835 228.532 151.513 233 153 C243.883 154.515 252.694 151.533 262.741 147.83 C281.717 140.858 281.717 140.858 290 143 C292 145 292 145 292.375 148.688 C292.254 153.437 290.762 156.164 288 160 C283.179 163.158 277.527 162.57 272 162 C267.739 160.769 263.838 159.025 259.969 156.867 C257.748 155.731 257.748 155.731 254 156 C255.512 159.849 257.624 161.666 261 164 C269.943 166.985 278.914 167.937 288 165 C291.91 162.686 294.188 160.167 296 156 C296.971 151.472 297.484 147.516 296.062 143.062 C292.583 139.583 288.742 138.042 283.794 137.966 C276.806 138.594 270.742 140.645 264.188 143.062 C254.135 146.574 244.972 149.691 234.562 145.562 C230.571 143.237 228.443 139.737 226.129 135.828 C225.756 135.225 225.384 134.622 225 134 C224.67 134 224.34 134 224 134 Z M116 140 C116.495 141.763 116.495 141.763 117 143.562 C118.745 150.692 118.129 155.492 115 162 C114.505 163.485 114.505 163.485 114 165 C109.124 167.743 103.77 168.559 98.285 167.727 C94.002 166.365 90.526 163.726 87 161 C86.34 161.33 85.68 161.66 85 162 C85.641 162.487 86.281 162.975 86.941 163.477 C95.079 170.147 100.855 177.908 102.566 188.508 C102.802 195.06 102.111 200.741 98 206 C93.468 210.697 89.852 213.118 83.188 213.312 C77.307 213.27 74.11 211.11 70 207 C70.636 210.337 71.898 212.608 73.75 215.438 C82.565 229.754 84.472 244.506 83 261 C81.603 266.493 79.694 269.72 75.188 273.125 C70.374 274.446 66.153 275.018 61.473 272.805 C58.624 270.726 57.291 268.775 55.5 265.75 C54.897 264.77 54.293 263.791 53.672 262.781 C52.712 261.184 51.759 259.583 50.828 257.969 C46.747 251.462 40.195 247.304 32.934 245.047 C25.107 243.488 18.873 243.95 11.812 247.688 C4.391 253.789 1.265 259.315 0 269 C-0.477 283.216 5.754 296.158 15.109 306.52 C26.851 319.005 39.726 327.827 57.254 329.07 C63.775 328.903 68.868 326.879 74 323 C74.66 323 75.32 323 76 323 C79.544 333.534 82.414 343.978 84 355 C84.157 356.065 84.157 356.065 84.316 357.152 C86.051 369.643 86.207 382.162 86.25 394.75 C86.255 395.527 86.261 396.303 86.266 397.103 C86.315 406.366 85.997 415.349 84.397 424.494 C83.884 427.862 83.766 429.599 85.511 432.587 C87.827 434.811 90.251 436.338 93 438 C94.122 438.795 95.238 439.599 96.348 440.41 C119.511 457.049 146.916 465.181 175.336 460.754 C181.515 459.482 187.218 457.502 193 455 C193.888 454.673 194.776 454.345 195.691 454.008 C198.502 452.59 199.551 451.828 201 449 C201.861 441.993 202.019 431.034 198 425 C195.056 423.951 195.056 423.951 191.562 423.562 C177.878 421.058 166.388 412.97 157.914 402.031 C155.199 397.732 153.261 393.183 151.433 388.446 C149.874 384.504 148.781 382.023 145 380 C142.364 378.886 139.733 377.834 137.062 376.812 C126.347 372.552 116.316 367.127 108 359 C107.67 358.01 107.34 357.02 107 356 C110.258 357.9 113.294 359.93 116.312 362.188 C143.031 380.879 180.105 390.442 212.316 385.281 C216.623 384.439 220.813 383.307 225 382 C226.164 381.649 227.328 381.299 228.527 380.938 C249.699 373.687 262.41 357.606 271.987 338.187 C285.919 308.769 283.449 276.923 278.425 245.657 C277.936 242.598 277.455 239.538 276.976 236.477 C273.568 214.759 273.568 214.759 269.995 193.069 C269.372 189.356 268.809 185.649 268.339 181.914 C267.616 174.997 267.616 174.997 264.302 169.116 C262.2 167.815 260.296 167.04 257.938 166.312 C250.288 163.52 250.288 163.52 248.504 160.293 C248.254 159.158 248.254 159.158 248 158 C247.238 158.023 246.476 158.046 245.691 158.07 C236.679 158.228 228.081 158.258 221 152 C219.417 149.427 218.151 146.791 217 144 C207.478 145.413 197.985 146.99 188.492 148.591 C186.52 148.922 184.547 149.251 182.573 149.576 C180.545 149.91 178.518 150.256 176.492 150.605 C154.615 153.077 135.535 149.934 116 140 Z " fill="#000000" transform="translate(291,49)"/>
<path d="M0 0 C-0.33 1.65 -0.66 3.3 -1 5 C-7.27 5 -13.54 5 -20 5 C-20.66 3.68 -21.32 2.36 -22 1 C-16.157 -2.895 -6.388 -3.194 0 0 Z " fill="#000000" transform="translate(241,86)"/>
<path d="M0 0 C1.928 2.431 1.779 3.768 1.438 6.812 C-3.934 13.709 -14.22 15.937 -22.398 17.277 C-24.447 17.513 -26.505 17.673 -28.562 17.812 C-28.562 16.822 -28.562 15.833 -28.562 14.812 C-27.333 14.414 -26.103 14.016 -24.836 13.605 C-23.203 13.071 -21.57 12.535 -19.938 12 C-19.129 11.739 -18.321 11.478 -17.488 11.209 C-12.962 9.718 -8.814 7.991 -4.562 5.812 C-3.903 5.812 -3.242 5.812 -2.562 5.812 C-2.893 4.823 -3.222 3.832 -3.562 2.812 C-13.267 3.121 -21.585 6.407 -30.562 9.812 C-30.893 8.822 -31.222 7.833 -31.562 6.812 C-9.981 -4.626 -9.981 -4.626 0 0 Z " fill="#000000" transform="translate(647.5625,121.1875)"/>
<path d="M0 0 C3.93 1.31 7.173 3.199 10.188 6.062 C10.188 6.722 10.188 7.382 10.188 8.062 C5.328 7.455 1.447 5.335 -2.812 3.062 C-1.572 9.422 2.332 12.246 7.188 16.062 C6.858 16.722 6.527 17.382 6.188 18.062 C0.794 16.778 -2.573 14.486 -5.812 10.062 C-6.938 6.938 -6.938 6.938 -6.812 4.062 C-4.792 0.911 -3.771 0.084 0 0 Z " fill="#000000" transform="translate(251.8125,156.9375)"/>
<path d="M0 0 C3.47 0.102 5.698 1.376 8.5 3.25 C13.102 6.3 18.046 7.993 23.242 9.789 C26 11 26 11 28 14 C27.67 14.66 27.34 15.32 27 16 C21.127 16.399 17.176 15.205 11.875 12.75 C11.185 12.45 10.496 12.149 9.785 11.84 C5.733 10.019 2.266 8.081 -1 5 C-1.33 4.01 -1.66 3.02 -2 2 C-1.34 1.34 -0.68 0.68 0 0 Z " fill="#000000" transform="translate(633,197)"/>
<path d="M0 0 C3.047 2.551 4.907 4.689 6.688 8.25 C6.543 12.007 6.362 13.576 3.688 16.25 C1.635 16.354 1.635 16.354 -0.906 16.156 C-2.316 16.063 -2.316 16.063 -3.754 15.968 C-4.763 15.896 -5.773 15.824 -6.812 15.75 C-17.237 15.138 -27.007 15.708 -37.312 17.25 C-38.646 17.441 -39.979 17.631 -41.312 17.82 C-42.303 17.962 -43.293 18.104 -44.312 18.25 C-44.642 16.93 -44.973 15.61 -45.312 14.25 C-38.436 11.312 -31.564 9.07 -24.312 7.25 C-27.265 6.35 -29.403 6.242 -32.438 6.75 C-36.312 7.25 -36.312 7.25 -38.312 6.25 C-38.625 3.938 -38.625 3.938 -38.312 1.25 C-28.322 -6.121 -10.726 -5.667 0 0 Z " fill="#000000" transform="translate(536.3125,224.75)"/>
<path d="M0 0 C7.701 -0.281 14.973 0.553 22.562 1.812 C23.634 1.978 24.706 2.144 25.811 2.314 C32.145 3.341 37.973 4.793 44 7 C44 7.99 44 8.98 44 10 C39.187 9.519 34.59 8.707 29.875 7.625 C20.019 5.441 10.007 4.268 0 3 C0 2.01 0 1.02 0 0 Z " fill="#000000" transform="translate(176,223)"/>
<path d="M0 0 C0.495 1.98 0.495 1.98 1 4 C-2.266 6.038 -5.488 7.727 -9.047 9.191 C-10.437 9.772 -10.437 9.772 -11.855 10.365 C-13.8 11.17 -15.745 11.972 -17.691 12.771 C-18.613 13.158 -19.535 13.544 -20.484 13.941 C-21.327 14.289 -22.17 14.636 -23.038 14.994 C-25.167 15.841 -25.167 15.841 -26 18 C-25.212 17.697 -24.425 17.394 -23.613 17.082 C-21.312 16.197 -19.009 15.319 -16.703 14.445 C-14.36 13.531 -12.034 12.572 -9.734 11.555 C-1.622 8.058 5.208 7.407 14 8 C14 9.32 14 10.64 14 12 C13.393 12.16 12.787 12.319 12.162 12.484 C-7.622 17.772 -26.185 24.983 -44.16 34.82 C-47.364 36.151 -49.563 36.38 -53 36 C-55 34 -55 34 -55.324 31.148 C-54.749 25.564 -51.059 22.605 -47 19 C-34.626 9.995 -15.745 -0.732 0 0 Z " fill="#000000" transform="translate(450,234)"/>
<path d="M0 0 C0.99 0.33 1.98 0.66 3 1 C2.67 9.25 2.34 17.5 2 26 C1.01 26 0.02 26 -1 26 C-1.029 22.792 -1.047 19.583 -1.062 16.375 C-1.071 15.471 -1.079 14.568 -1.088 13.637 C-1.105 8.971 -0.968 4.59 0 0 Z " fill="#000000" transform="translate(681,235)"/>
<path d="M0 0 C0.66 0 1.32 0 2 0 C1.847 1.114 1.693 2.227 1.535 3.375 C0.927 8.241 0.667 13.104 0.438 18 C0.394 18.87 0.351 19.74 0.307 20.637 C0.202 22.758 0.1 24.879 0 27 C-0.99 27 -1.98 27 -3 27 C-3.058 23.604 -3.094 20.209 -3.125 16.812 C-3.15 15.373 -3.15 15.373 -3.176 13.904 C-3.182 12.973 -3.189 12.042 -3.195 11.082 C-3.206 10.228 -3.216 9.375 -3.227 8.495 C-2.946 5.404 -2.261 2.261 0 0 Z " fill="#000000" transform="translate(675,236)"/>
<path d="M0 0 C3.669 3.145 6.984 6.626 8.625 11.25 C8.25 13.5 8.25 13.5 7.625 15.25 C5.252 13.114 3.773 11.665 2.688 8.625 C1.823 6.019 1.823 6.019 -0.875 5 C-1.7 4.752 -2.525 4.505 -3.375 4.25 C-4.035 3.92 -4.695 3.59 -5.375 3.25 C-10.603 2.729 -15.015 2.607 -19.812 4.875 C-24.106 8.854 -26.513 12.467 -27.375 18.25 C-27.44 20.187 -27.461 22.125 -27.438 24.062 C-27.428 25.038 -27.419 26.014 -27.41 27.02 C-27.399 27.756 -27.387 28.492 -27.375 29.25 C-28.365 29.25 -29.355 29.25 -30.375 29.25 C-32.759 24.482 -32.06 17.629 -30.621 12.633 C-27.676 5.772 -24.438 1.193 -17.375 -1.75 C-11.472 -3.599 -5.431 -2.816 0 0 Z " fill="#000000" transform="translate(541.375,254.75)"/>
<path d="M0 0 C0.66 0 1.32 0 2 0 C1.928 0.559 1.856 1.119 1.781 1.695 C-0.019 17.244 0.068 31.159 10 44 C15.49 49.32 21.612 53.916 29.477 54.066 C31.982 54.023 34.486 53.94 36.988 53.812 C38.479 53.905 38.479 53.905 40 54 C42.84 58.26 42.631 61.999 42 67 C39.812 71.458 37.527 73.952 33 76 C29.688 76.688 29.688 76.688 27 77 C26.34 76.01 25.68 75.02 25 74 C25.699 73.674 26.397 73.348 27.117 73.012 C28.027 72.575 28.937 72.138 29.875 71.688 C31.232 71.044 31.232 71.044 32.617 70.387 C35.264 69.08 35.264 69.08 37 66 C37.451 63.951 37.451 63.951 37.625 61.812 C37.811 59.925 37.811 59.925 38 58 C37.01 58.33 36.02 58.66 35 59 C25.061 59.872 16.92 55.809 9.293 49.613 C0.312 41.532 -3.182 30.615 -4.18 18.887 C-4.412 12.443 -3.605 5.407 0 0 Z " fill="#000000" transform="translate(485,258)"/>
<path d="M0 0 C4.566 0.478 6.58 2.062 9.75 5.312 C10.529 6.092 11.307 6.872 12.109 7.676 C13.928 9.912 14.614 11.189 15 14 C10.529 14 9.777 13.271 6.738 10.236 C6.247 9.725 5.756 9.214 5.25 8.688 C4.743 8.188 4.237 7.688 3.715 7.174 C0 3.394 0 3.394 0 0 Z " fill="#000000" transform="translate(616,262)"/>
<path d="M0 0 C0.33 0.33 0.66 0.66 1 1 C0.495 9.585 -3.99 14.416 -9.914 20.164 C-13.567 23.379 -16.953 25.826 -21.938 26.25 C-22.618 26.168 -23.299 26.085 -24 26 C-22.803 22.409 -21.881 22.017 -18.75 20.062 C-17.935 19.535 -17.121 19.008 -16.281 18.465 C-15.528 17.981 -14.776 17.498 -14 17 C-9.343 13.825 -6.537 9.987 -4 5 C-4 4.34 -4 3.68 -4 3 C-10.48 7.288 -16.267 11.889 -21.871 17.277 C-24 19 -24 19 -27 19 C-23.542 10.772 -14.865 3.905 -7 0 C-3.864 -1.045 -3.005 -1.002 0 0 Z " fill="#000000" transform="translate(749,263)"/>
<path d="M0 0 C2.312 -0.312 2.312 -0.312 5 0 C7.468 3.085 8.712 6.066 9 10 C8.312 13.25 8.312 13.25 7 16 C5.125 17.125 5.125 17.125 3 17 C0.357 15.339 -0.77 13.905 -1.543 10.867 C-2.154 6.512 -2.275 3.88 0 0 Z " fill="#000000" transform="translate(527,268)"/>
<path d="M0 0 C3.97 0.12 5.773 1.521 8.438 4.25 C9.025 4.878 9.613 5.506 10.219 6.152 C11.873 7.869 13.57 9.337 15.438 10.812 C16.283 11.534 17.129 12.256 18 13 C18 13.66 18 14.32 18 15 C12.101 15 9.157 11.885 5.051 8.105 C0 2.92 0 2.92 0 0 Z " fill="#000000" transform="translate(607,269)"/>
<path d="M0 0 C5.919 3.433 9.208 7.762 12.125 13.812 C12.375 16.75 12.375 16.75 12.125 18.812 C11.135 18.812 10.145 18.812 9.125 18.812 C8.738 18.053 8.352 17.294 7.953 16.512 C7.432 15.518 6.912 14.524 6.375 13.5 C5.865 12.514 5.354 11.528 4.828 10.512 C2.293 6.494 -0.424 4.603 -5 3.438 C-10.44 2.378 -14.936 3.373 -19.875 5.812 C-25.616 10.943 -27.111 17.591 -28.875 24.812 C-29.865 24.483 -30.855 24.152 -31.875 23.812 C-32.599 17.148 -30.528 12.37 -26.875 6.812 C-19.89 -0.937 -10.013 -3.865 0 0 Z " fill="#000000" transform="translate(443.875,275.1875)"/>
<path d="M0 0 C10.685 5.755 17.991 13.49 22 25 C24.707 35.463 24.039 47.427 19 57 C11.805 69.074 2.693 76.237 -9.504 82.938 C-21.658 89.506 -21.658 89.506 -30.613 99.738 C-31.071 100.485 -31.529 101.231 -32 102 C-32.66 102 -33.32 102 -34 102 C-34.186 103.702 -34.186 103.702 -34.375 105.438 C-34.581 106.613 -34.788 107.789 -35 109 C-35.99 109.495 -35.99 109.495 -37 110 C-37.206 110.763 -37.413 111.526 -37.625 112.312 C-40.025 117.004 -44.769 118.163 -49.5 119.938 C-54.527 120.063 -58.704 117.772 -62.938 115.25 C-65.742 112.19 -65.73 110.113 -66 106 C-66.181 104.353 -66.369 102.708 -66.562 101.062 C-66.709 99.708 -66.856 98.354 -67 97 C-66.34 97 -65.68 97 -65 97 C-64.897 95.969 -64.794 94.938 -64.688 93.875 C-64 90 -64 90 -62.5 87.188 C-58.046 77.722 -59.45 64.622 -58.95 54.234 C-58.054 35.797 -55.909 20.093 -42.543 6.129 C-30.783 -3.717 -14.08 -6.433 0 0 Z M-43 15 C-52.586 27.039 -53.624 42.609 -54.25 57.375 C-54.327 58.869 -54.405 60.362 -54.484 61.855 C-54.847 68.906 -55.096 75.939 -55 83 C-53.35 83.33 -51.7 83.66 -50 84 C-49.037 82.128 -48.079 80.252 -47.125 78.375 C-46.324 76.809 -46.324 76.809 -45.508 75.211 C-42.669 69.166 -41.878 65.609 -43 59 C-42.67 58.01 -42.34 57.02 -42 56 C-41.376 55.755 -40.752 55.51 -40.109 55.258 C-36.885 53.335 -36.323 50.284 -35.25 46.875 C-35.03 46.216 -34.809 45.558 -34.582 44.879 C-34.041 43.257 -33.519 41.629 -33 40 C-33.806 39.413 -34.611 38.827 -35.441 38.223 C-38 36 -38 36 -38.938 32.438 C-39 29 -39 29 -37 26 C-33.562 25.562 -33.562 25.562 -30 26 C-27.477 28.355 -26.6 30.638 -26 34 C-24.979 33.752 -24.979 33.752 -23.938 33.5 C-18.964 32.653 -15.285 32.143 -11 35 C-9.848 38.648 -10.041 40.163 -11 44 C-7.04 43.01 -3.08 42.02 1 41 C2.23 36.079 2.026 32.663 0 28 C-2.418 25.302 -5.069 23.12 -8 21 C-7.67 20.34 -7.34 19.68 -7 19 C-2.036 20.241 0.322 21.6 3 26 C5.859 33.352 5.283 41.313 4 49 C2.24 52.71 1.367 53.788 -2.25 55.875 C-6.455 57.137 -8.79 57.191 -13 56 C-15.438 53.938 -15.438 53.938 -17 52 C-19.31 54.64 -21.62 57.28 -24 60 C-23.34 61.32 -22.68 62.64 -22 64 C-22.375 67.75 -22.375 67.75 -23 71 C-23.611 71.088 -24.221 71.177 -24.85 71.268 C-27.612 72.208 -28.052 73.163 -29.395 75.711 C-29.792 76.461 -30.19 77.211 -30.6 77.984 C-31.2 79.168 -31.2 79.168 -31.812 80.375 C-32.442 81.547 -32.442 81.547 -33.084 82.742 C-34.701 85.803 -34.701 85.803 -36 89 C-35.67 89.99 -35.34 90.98 -35 92 C-31.379 91.407 -29.588 89.979 -26.875 87.562 C-22.252 83.719 -17.438 80.978 -12.125 78.188 C0.6 71.389 12.018 62.208 16.875 48.125 C19.441 38.259 18.523 28.598 13.711 19.586 C8.138 10.675 1.113 5.434 -8.953 2.414 C-22.748 -0.377 -33.841 4.827 -43 15 Z M-34 29 C-34.66 30.32 -35.32 31.64 -36 33 C-35.34 33.66 -34.68 34.32 -34 35 C-33.01 35 -32.02 35 -31 35 C-31 33.35 -31 31.7 -31 30 C-31.99 29.67 -32.98 29.34 -34 29 Z M-23 39 C-22.425 42.931 -22.425 42.931 -20 46 C-17.952 45.905 -17.952 45.905 -16 45 C-13.666 42.219 -13.666 42.219 -14.375 39.312 C-14.581 38.549 -14.788 37.786 -15 37 C-18.716 36.799 -19.772 36.848 -23 39 Z M-29 42 C-29.846 43.556 -30.676 45.12 -31.5 46.688 C-31.964 47.558 -32.428 48.428 -32.906 49.324 C-34.048 52.118 -34.215 54.016 -34 57 C-30.793 58.032 -30.793 58.032 -27 58 C-24.546 56.366 -22.675 54.424 -21 52 C-21 51.34 -21 50.68 -21 50 C-22.658 48.656 -24.326 47.324 -26 46 C-27.027 44.687 -28.032 43.357 -29 42 Z M-6.125 47.5 C-7.212 47.918 -7.212 47.918 -8.32 48.344 C-8.875 48.56 -9.429 48.777 -10 49 C-10 50.32 -10 51.64 -10 53 C-5.249 52.651 -5.249 52.651 -1.062 50.625 C0.274 48.905 0.274 48.905 0 46 C-2.365 46 -3.923 46.648 -6.125 47.5 Z M-38 60 C-36.888 63.336 -36.537 63.584 -33.625 65.188 C-33.019 65.532 -32.413 65.876 -31.789 66.23 C-29.865 67.198 -29.865 67.198 -27 67 C-27.672 63.953 -27.672 63.953 -29.777 62.832 C-30.49 62.496 -31.203 62.159 -31.938 61.812 C-32.648 61.468 -33.358 61.124 -34.09 60.77 C-35.966 59.875 -35.966 59.875 -38 60 Z M-39 69 C-40.174 71.434 -41.339 73.872 -42.5 76.312 C-42.834 77.003 -43.168 77.693 -43.512 78.404 C-45.473 82.52 -45.473 82.52 -46 87 C-43.69 87.66 -41.38 88.32 -39 89 C-37.662 86.377 -36.329 83.752 -35 81.125 C-34.618 80.379 -34.237 79.632 -33.844 78.863 C-33.302 77.79 -33.302 77.79 -32.75 76.695 C-32.415 76.035 -32.08 75.376 -31.734 74.696 C-30.868 73.002 -30.868 73.002 -31 71 C-34.088 69.235 -35.233 69 -39 69 Z M-58 87 C-56.519 89.962 -54.411 90.228 -51.375 91.438 C-47.869 92.846 -44.381 94.257 -40.938 95.812 C-38.065 97.187 -38.065 97.187 -35 97 C-35 96.34 -35 95.68 -35 95 C-38.267 93.658 -41.539 92.328 -44.812 91 C-46.206 90.428 -46.206 90.428 -47.627 89.844 C-48.52 89.483 -49.412 89.122 -50.332 88.75 C-51.154 88.415 -51.976 88.08 -52.823 87.734 C-55.091 86.84 -55.091 86.84 -58 87 Z M-60 93 C-59.887 94.935 -59.887 94.935 -59 97 C-56.744 98.482 -56.744 98.482 -53.938 99.562 C-52.456 100.189 -52.456 100.189 -50.945 100.828 C-47.313 102.273 -43.68 103.681 -40 105 C-40 103.68 -40 102.36 -40 101 C-42.956 99.661 -45.915 98.33 -48.875 97 C-49.717 96.618 -50.559 96.237 -51.426 95.844 C-52.231 95.483 -53.037 95.122 -53.867 94.75 C-54.611 94.415 -55.354 94.08 -56.121 93.734 C-57.974 92.879 -57.974 92.879 -60 93 Z M-62 102 C-61.257 105.378 -61.257 105.378 -57.508 106.859 C-56.052 107.501 -54.591 108.131 -53.125 108.75 C-52.392 109.079 -51.658 109.407 -50.902 109.746 C-46.565 111.753 -46.565 111.753 -42 111 C-44.676 107.723 -48.193 106.392 -52 104.812 C-52.629 104.54 -53.258 104.267 -53.906 103.986 C-56.772 102.775 -58.857 102 -62 102 Z M-59 110 C-55.712 112.912 -53.401 114.497 -49 115 C-51.127 112.661 -53.062 111.193 -56 110 C-56.99 110 -57.98 110 -59 110 Z " fill="#000000" transform="translate(691,285)"/>
<path d="M0 0 C0.99 0.33 1.98 0.66 3 1 C2.67 7.27 2.34 13.54 2 20 C6.95 19.67 11.9 19.34 17 19 C17 20.32 17 21.64 17 23 C12.38 23.66 7.76 24.32 3 25 C3 31.27 3 37.54 3 44 C2.01 44 1.02 44 0 44 C-1.18 40.152 -1.332 36.242 -1.562 32.25 C-1.606 31.553 -1.649 30.855 -1.693 30.137 C-1.799 28.425 -1.9 26.712 -2 25 C-4.64 24.67 -7.28 24.34 -10 24 C-10 23.01 -10 22.02 -10 21 C-7.03 21 -4.06 21 -1 21 C-1.012 20.071 -1.023 19.141 -1.035 18.184 C-1.125 5.905 -1.125 5.905 0 0 Z " fill="#000000" transform="translate(213,286)"/>
<path d="M0 0 C2.5 0.188 2.5 0.188 5 1 C7.167 4.251 7.272 5.292 7.25 9.062 C7.255 9.94 7.26 10.818 7.266 11.723 C7 14 7 14 5 16 C2.5 15.875 2.5 15.875 0 15 C-1.87 12.105 -2.273 9.787 -2.25 6.375 C-2.255 5.599 -2.26 4.823 -2.266 4.023 C-2 2 -2 2 0 0 Z " fill="#000000" transform="translate(433,290)"/>
<path d="M0 0 C0.66 0.33 1.32 0.66 2 1 C2 5.62 2 10.24 2 15 C1.01 15 0.02 15 -1 15 C-1.027 12.875 -1.046 10.75 -1.062 8.625 C-1.074 7.442 -1.086 6.258 -1.098 5.039 C-1 2 -1 2 0 0 Z " fill="#000000" transform="translate(553,295)"/>
<path d="M0 0 C0.66 0 1.32 0 2 0 C2 4.62 2 9.24 2 14 C1.01 14.33 0.02 14.66 -1 15 C-1.103 9.874 -1.036 5.05 0 0 Z " fill="#000000" transform="translate(564,296)"/>
<path d="M0 0 C0.66 0 1.32 0 2 0 C2 3.96 2 7.92 2 12 C1.34 12 0.68 12 0 12 C0 8.04 0 4.08 0 0 Z " fill="#000000" transform="translate(543,297)"/>
<path d="M0 0 C2.762 2.762 2.579 5.207 3 9 C2.34 9 1.68 9 1 9 C-0.478 6.043 -0.06 3.258 0 0 Z " fill="#000000" transform="translate(489,304)"/>
<path d="M0 0 C2.523 1.974 2.993 2.967 3.688 6.188 C3.791 7.116 3.894 8.044 4 9 C3.34 9 2.68 9 2 9 C0.502 5.629 0 3.796 0 0 Z " fill="#000000" transform="translate(477,305)"/>
<path d="M0 0 C6.424 2.575 11.486 6.203 15.004 12.227 C16.464 15.646 17.167 18.78 17.812 22.438 C19.786 31.946 23.459 35.838 31.133 41.508 C33.94 43.924 35.1 45.802 35.711 49.438 C35.817 54.863 35.817 54.863 33.5 57.875 C29.553 60.777 26.163 60.996 21.375 60.438 C11.447 57.83 4.374 51.554 -1.625 43.438 C-3.096 40.63 -3.758 39.255 -3.25 36.125 C-3.044 35.568 -2.837 35.011 -2.625 34.438 C0.375 35.438 0.375 35.438 1.48 37.477 C1.838 38.33 2.195 39.183 2.562 40.062 C5.709 46.668 10.303 51.134 16.875 54.375 C21.068 55.648 24.015 55.807 28.375 55.438 C29.035 54.778 29.695 54.118 30.375 53.438 C30.32 49.17 30.043 47.118 27.012 44.031 C26.038 43.34 25.065 42.649 24.062 41.938 C16.748 36.703 14.145 30.649 11.75 22.312 C10.097 14.314 10.097 14.314 5.512 8.258 C4.807 7.987 4.101 7.716 3.375 7.438 C2.701 7.084 2.027 6.731 1.332 6.367 C-5.065 3.221 -10.752 2.147 -17.625 4.438 C-20.323 10.134 -21.315 16.224 -20.625 22.438 C-19.709 24.83 -18.678 27.085 -17.5 29.359 C-16.625 31.438 -16.625 31.438 -16.625 35.438 C-20.78 33.695 -21.973 31.773 -23.801 27.777 C-26.23 20.882 -26.432 13.248 -23.625 6.438 C-17.463 -2.712 -10.291 -3.358 0 0 Z " fill="#000000" transform="translate(325.625,310.5625)"/>
<path d="M0 0 C0.99 0 1.98 0 3 0 C2.587 5.501 0.453 9.762 -3 14 C-3.66 14 -4.32 14 -5 14 C-4.465 8.652 -2.533 4.642 0 0 Z " fill="#000000" transform="translate(421,320)"/>
<path d="M0 0 C0.99 0.33 1.98 0.66 3 1 C1.68 4.96 0.36 8.92 -1 13 C-1.99 12.67 -2.98 12.34 -4 12 C-2.68 8.04 -1.36 4.08 0 0 Z " fill="#000000" transform="translate(443,320)"/>
<path d="M0 0 C0.99 0.33 1.98 0.66 3 1 C2.578 2.816 2.137 4.628 1.688 6.438 C1.444 7.447 1.2 8.456 0.949 9.496 C0.636 10.322 0.323 11.149 0 12 C-0.99 12.33 -1.98 12.66 -3 13 C-2.451 8.429 -1.583 4.326 0 0 Z " fill="#000000" transform="translate(453,320)"/>
<path d="M0 0 C0.99 0.33 1.98 0.66 3 1 C-0.1 11.091 -0.1 11.091 -3 15 C-3.66 15 -4.32 15 -5 15 C-4.432 9.459 -2.371 4.963 0 0 Z " fill="#000000" transform="translate(431,321)"/>
<path d="M0 0 C1.98 0.495 1.98 0.495 4 1 C4 1.99 4 2.98 4 4 C2.35 3.67 0.7 3.34 -1 3 C-0.67 2.01 -0.34 1.02 0 0 Z " fill="#000000" transform="translate(599,324)"/>
<path d="M0 0 C0 0.66 0 1.32 0 2 C-0.519 2.231 -1.039 2.461 -1.574 2.699 C-6.256 4.889 -9.411 7.2 -13 11 C-13.66 11 -14.32 11 -15 11 C-14.779 7.124 -14.063 6.06 -11.188 3.312 C-4.437 -1.585 -4.437 -1.585 0 0 Z " fill="#000000" transform="translate(506,326)"/>
<path d="M0 0 C2.375 0.938 2.375 0.938 3.688 3 C4.028 3.959 4.028 3.959 4.375 4.938 C2.75 6.5 2.75 6.5 0.375 7.938 C-2.875 7.625 -2.875 7.625 -5.625 6.938 C-5.955 5.618 -6.285 4.298 -6.625 2.938 C-4.296 0.781 -3.234 -0.077 0 0 Z " fill="#000000" transform="translate(514.625,340.0625)"/>
<path d="M0 0 C1.298 -0.014 2.596 -0.028 3.934 -0.043 C7.351 0.174 9.592 0.516 12.562 2.188 C13.906 6.219 12.978 9.312 11.562 13.188 C9.284 16.681 7.425 18.667 3.562 20.188 C-2.168 20.832 -8.337 21.264 -13.562 18.5 C-16.484 16.15 -18.036 14.65 -19.438 11.188 C-19.625 7.875 -19.625 7.875 -19.438 5.188 C-18.19 4.537 -16.939 3.892 -15.688 3.25 C-14.991 2.89 -14.295 2.531 -13.578 2.16 C-9.038 0.097 -4.983 0.025 0 0 Z " fill="#000000" transform="translate(515.4375,359.8125)"/>
<path d="M0 0 C1.75 0.125 1.75 0.125 4 1 C5.373 2.973 6.704 4.975 8 7 C8.742 7.536 9.485 8.072 10.25 8.625 C10.827 9.079 11.405 9.533 12 10 C12 11.32 12 12.64 12 14 C8.651 14.383 7.255 14.164 4.375 12.312 C1.949 9.951 0.361 8.1 -1 5 C-0.688 2.188 -0.688 2.188 0 0 Z " fill="#000000" transform="translate(715,364)"/>
<path d="M0 0 C0.99 0.33 1.98 0.66 3 1 C1.878 4.366 0.907 5.195 -1.75 7.438 C-2.473 8.055 -3.196 8.672 -3.941 9.309 C-5.49 10.581 -7.08 11.803 -8.688 13 C-11.764 15.66 -13.731 18.629 -16 22 C-5.51 19.396 1.053 13.83 7 5 C7.66 5 8.32 5 9 5 C8.863 10.462 6.609 13.264 3.043 17.102 C-3.045 22.759 -8.637 25.304 -17 25 C-17.66 24.67 -18.32 24.34 -19 24 C-18.993 18.929 -17.979 16.553 -14.473 12.852 C-13.018 11.427 -11.547 10.019 -10.062 8.625 C-9.321 7.902 -8.579 7.179 -7.814 6.434 C-2.398 1.199 -2.398 1.199 0 0 Z " fill="#000000" transform="translate(247,374)"/>
<path d="M0 0 C0.99 0 1.98 0 3 0 C2.574 6.616 1.813 11.896 -2.812 17 C-5 18 -5 18 -8.25 17.188 C-9.158 16.796 -10.065 16.404 -11 16 C-12.835 10.036 -10.717 6.248 -8 1 C-7.34 1 -6.68 1 -6 1 C-6.144 1.846 -6.289 2.691 -6.438 3.562 C-7.006 7.036 -7.512 10.514 -8 14 C-7.01 14 -6.02 14 -5 14 C-3.35 9.38 -1.7 4.76 0 0 Z " fill="#000000" transform="translate(313,418)"/>
<path d="M0 0 C0.66 0 1.32 0 2 0 C2.285 1.298 2.285 1.298 2.576 2.622 C8.185 28.128 14.042 53.573 20 79 C20.246 67.909 19.674 57.425 18 46.438 C15.716 31.03 15.716 31.03 16 24 C16.66 24 17.32 24 18 24 C20.175 31.449 21.535 38.89 22.625 46.562 C22.748 47.424 22.871 48.285 22.997 49.173 C23.355 51.779 23.684 54.388 24 57 C24.16 58.263 24.16 58.263 24.323 59.552 C24.982 65.505 24.956 71.292 24.747 77.275 C24.08 97.537 27.02 115.946 31.277 135.696 C33.604 146.613 35.435 157.613 37.25 168.625 C37.418 169.643 37.587 170.661 37.76 171.71 C48.142 234.716 48.142 234.716 45 241 C44.01 240.67 43.02 240.34 42 240 C40.301 232.273 39.259 224.538 38.312 216.688 C32.72 171.966 24.778 127.618 14.941 83.641 C14.764 82.848 14.587 82.056 14.405 81.239 C12.639 73.346 10.862 65.455 9.048 57.573 C5.764 43.285 2.635 29.041 0.461 14.535 C0.291 13.405 0.121 12.275 -0.054 11.11 C-1.133 3.398 -1.133 3.398 0 0 Z " fill="#000000" transform="translate(619,586)"/>
<path d="M0 0 C2.843 0.328 3.814 0.776 5.676 3.012 C25.678 35.712 34.299 72.383 38.745 110.11 C38.972 112.018 38.972 112.018 39.203 113.965 C39.334 115.106 39.464 116.246 39.599 117.422 C39.729 119.925 39.729 119.925 41 121 C42.631 114.735 43.384 108.844 43.375 102.375 C43.377 101.459 43.379 100.542 43.381 99.598 C43.24 89.425 41.824 79.395 40.335 69.347 C40.151 68.076 39.967 66.805 39.777 65.496 C39.605 64.364 39.432 63.231 39.254 62.064 C39.008 59.101 39.251 56.861 40 54 C40.99 54.495 40.99 54.495 42 55 C48.346 76.385 53.873 110.01 42.812 130.438 C40.727 134.537 40.627 136.528 41 141 C41.66 141 42.32 141 43 141 C43.268 140.49 43.536 139.979 43.812 139.453 C53.925 120.692 53.925 120.692 59 119 C60.828 124.243 58.938 128.756 57.5 133.875 C54.445 145.338 52.247 156.886 50.188 168.562 C50.035 169.423 49.883 170.284 49.726 171.171 C44.576 196.271 44.576 196.271 48.344 221.09 C49 223 49 223 49 227 C48.01 227 47.02 227 46 227 C45.699 226.098 45.399 225.196 45.089 224.267 C44.786 223.358 44.786 223.358 44.477 222.43 C44.014 221.043 43.552 219.655 43.089 218.268 C41.762 214.286 40.434 210.303 39.105 206.322 C36.397 198.207 33.697 190.091 31.023 181.965 C30.059 179.039 29.092 176.113 28.125 173.188 C27.886 172.463 27.647 171.739 27.4 170.993 C24.433 162.031 21.351 153.118 18.133 144.242 C17.647 142.9 17.647 142.9 17.151 141.531 C15.57 137.174 13.977 132.822 12.368 128.475 C11.792 126.902 11.216 125.328 10.641 123.754 C10.238 122.685 10.238 122.685 9.828 121.594 C8.501 117.944 7.681 114.894 8 111 C8.66 111 9.32 111 10 111 C21.168 135.561 29.356 161.472 38 187 C38.266 170.681 37.57 154.576 36.25 138.312 C36.115 136.607 36.115 136.607 35.977 134.866 C32.403 90.114 25.706 43.923 1.215 5.215 C0 3 0 3 0 0 Z " fill="#000000" transform="translate(246,596)"/>
<path d="M0 0 C2.331 6.256 2.331 6.256 0.75 9.812 C-1 12 -1 12 -3 14 C-6.103 14.33 -8.158 14.505 -10.875 12.875 C-12.584 10.027 -12.522 8.262 -12 5 C-7.959 0.214 -6.074 -1.439 0 0 Z M-6 4 C-6.66 4.66 -7.32 5.32 -8 6 C-7.681 8.108 -7.681 8.108 -7 10 C-6.01 9.67 -5.02 9.34 -4 9 C-3.67 7.35 -3.34 5.7 -3 4 C-3.99 4 -4.98 4 -6 4 Z " fill="#000000" transform="translate(446,610)"/>
<path d="M0 0 C0.99 0 1.98 0 3 0 C2.732 1.196 2.464 2.393 2.188 3.625 C2.007 4.442 1.827 5.26 1.641 6.102 C1.176 8.202 0.707 10.3 0.234 12.398 C-0.029 13.587 -0.292 14.775 -0.562 16 C-0.811 17.114 -1.06 18.227 -1.316 19.375 C-8.753 58.808 -0.56 109.792 19 145 C19.33 145.33 19.66 145.66 20 146 C20.041 147.666 20.043 149.334 20 151 C17.36 150.649 16.258 150.304 14.508 148.242 C-7.891 109.898 -14.37 52.637 -4.203 9.629 C-3.145 5.911 -2.16 3.24 0 0 Z " fill="#000000" transform="translate(188,649)"/>
<path d="M0 0 C1.459 2.918 1.368 4.747 1 8 C-0.28 10.753 -1.752 12.951 -4 15 C-7.125 15.75 -7.125 15.75 -10 15 C-12.728 12.096 -13 10.418 -13 6.438 C-12 3 -12 3 -9.875 0.5 C-6.126 -1.456 -4.025 -1.084 0 0 Z M-7 4 C-8.106 6.391 -8.106 6.391 -9 9 C-8.67 9.66 -8.34 10.32 -8 11 C-7.01 10.67 -6.02 10.34 -5 10 C-3.775 6.992 -3.775 6.992 -3 4 C-4.32 4 -5.64 4 -7 4 Z " fill="#000000" transform="translate(455,659)"/>
<path d="M0 0 C0.798 -0.036 1.597 -0.073 2.419 -0.11 C3.142 -0.151 3.864 -0.192 4.609 -0.235 C6.567 0.176 6.567 0.176 8.277 1.769 C9.962 4.912 10.128 7.424 10.367 10.983 C10.441 11.998 10.441 11.998 10.516 13.035 C10.675 15.277 10.815 17.519 10.954 19.762 C11.061 21.341 11.169 22.919 11.278 24.497 C11.503 27.817 11.72 31.138 11.93 34.459 C12.195 38.648 12.478 42.837 12.767 47.025 C13.759 61.445 14.748 75.885 14.962 90.341 C14.999 91.66 14.999 91.66 15.037 93.006 C15.042 98.666 15.042 98.666 12.694 101.187 C7.958 103.39 2.707 103.606 -2.433 104.176 C-3.711 104.322 -3.711 104.322 -5.014 104.47 C-20.42 106.169 -35.311 107.262 -50.433 103.176 C-51.942 96.427 -52.841 89.845 -53.249 82.946 C-53.31 81.994 -53.372 81.041 -53.435 80.06 C-53.563 78.051 -53.688 76.042 -53.81 74.032 C-53.992 71.041 -54.183 68.051 -54.376 65.061 C-55.015 55.002 -55.568 44.941 -56.019 34.872 C-56.06 33.959 -56.102 33.045 -56.145 32.105 C-56.527 23.128 -56.527 14.159 -56.433 5.176 C-45.471 3.696 -34.513 2.593 -23.485 1.744 C-20.973 1.55 -18.461 1.348 -15.95 1.145 C-14.321 1.017 -12.691 0.89 -11.062 0.762 C-10.327 0.703 -9.592 0.644 -8.836 0.583 C-5.892 0.36 -2.944 0.214 0 0 Z M-1.892 4.43 C-3.033 4.51 -4.174 4.59 -5.35 4.673 C-6.586 4.766 -7.823 4.858 -9.097 4.954 C-10.99 5.089 -10.99 5.089 -12.922 5.227 C-16.279 5.468 -19.636 5.714 -22.993 5.962 C-26.418 6.214 -29.843 6.46 -33.269 6.706 C-39.99 7.19 -46.712 7.681 -53.433 8.176 C-53.103 12.796 -52.773 17.416 -52.433 22.176 C-33.014 25.06 -13.182 27.612 5.567 20.176 C5.897 19.846 6.227 19.516 6.567 19.176 C6.529 16.841 6.412 14.507 6.255 12.176 C6.176 10.898 6.098 9.619 6.017 8.301 C5.868 7.27 5.72 6.239 5.567 5.176 C2.887 3.836 1.098 4.213 -1.892 4.43 Z M2.442 24.833 C-14.623 29.841 -34.063 27.886 -51.433 25.176 C-52.601 28.683 -52.382 31.026 -52.119 34.712 C-52.074 35.37 -52.028 36.029 -51.981 36.708 C-51.829 38.886 -51.669 41.062 -51.507 43.239 C-51.398 44.752 -51.289 46.265 -51.181 47.778 C-50.952 50.949 -50.718 54.12 -50.482 57.291 C-50.179 61.356 -49.89 65.421 -49.604 69.487 C-49.383 72.612 -49.154 75.736 -48.922 78.86 C-48.812 80.359 -48.705 81.858 -48.601 83.358 C-48.454 85.453 -48.296 87.547 -48.135 89.641 C-48.047 90.834 -47.96 92.026 -47.87 93.254 C-47.617 96.361 -47.617 96.361 -45.433 99.176 C-39.832 101.377 -32.924 100.37 -26.995 100.364 C-26.305 100.365 -25.615 100.365 -24.904 100.366 C-12.991 100.365 -1.256 99.653 10.567 98.176 C11.011 81.449 10.315 64.92 9.13 48.239 C9.062 47.275 8.995 46.312 8.925 45.319 C8.73 42.554 8.527 39.789 8.321 37.024 C8.261 36.19 8.2 35.355 8.138 34.496 C7.864 30.953 7.498 27.604 6.567 24.176 C4.515 24.078 4.515 24.078 2.442 24.833 Z " fill="#000000" transform="translate(599.4326477050781,678.8235473632813)"/>
<path d="M0 0 C2.312 0.875 2.312 0.875 4.312 2.875 C4.645 6.467 4.711 9.011 3.188 12.312 C1.312 13.875 1.312 13.875 -1.688 14.312 C-4.688 13.875 -4.688 13.875 -6.562 12.812 C-8.377 9.687 -8.182 7.401 -7.688 3.875 C-5.156 0.982 -3.898 -0.181 0 0 Z " fill="#000000" transform="translate(586.6875,686.125)"/>
<path d="M0 0 C1.875 1.625 1.875 1.625 3 4 C2.925 7.593 2.424 9.44 0.25 12.312 C-2.329 14.246 -3.766 15 -7 15 C-9.375 13.5 -9.375 13.5 -11 11 C-11.077 6.703 -10.686 4.743 -7.75 1.562 C-4.754 -0.14 -3.368 -0.709 0 0 Z M-5 5 C-5.66 6.32 -6.32 7.64 -7 9 C-5.68 9 -4.36 9 -3 9 C-2.67 7.68 -2.34 6.36 -2 5 C-2.99 5 -3.98 5 -5 5 Z " fill="#000000" transform="translate(458,716)"/>
<path d="M0 0 C2 2 2 2 2.375 4.812 C1.906 8.795 0.937 10.295 -2 13 C-5.062 14 -5.062 14 -8 14 C-9.938 13 -9.938 13 -11 11 C-11 6.751 -10.66 4.715 -7.75 1.562 C-4.787 -0.121 -3.34 -0.542 0 0 Z M-5 5 C-5.66 6.32 -6.32 7.64 -7 9 C-5.68 8.34 -4.36 7.68 -3 7 C-3 6.34 -3 5.68 -3 5 C-3.66 5 -4.32 5 -5 5 Z " fill="#000000" transform="translate(463,774)"/>
</svg>
