<?xml version="1.0" encoding="UTF-8"?>
<!-- Generator: visioncortex VTracer 0.6.0 -->
<svg version="1.1" xmlns="http://www.w3.org/2000/svg" width="847" height="847">
<path d="M0 0 C13.278 0.239 29.669 3.604 40.438 11.688 C51.074 22.842 51.521 37.315 52.562 51.938 C53.466 67.39 53.466 67.39 56.647 82.479 C57 84.375 57 84.375 55.625 87.375 C50.275 93.49 41.747 95.746 33.819 96.614 C20.042 97.432 7.386 95.853 -4 87.375 C-6.344 83.859 -6.502 81.711 -6.965 77.531 C-7.043 76.854 -7.121 76.177 -7.201 75.479 C-7.453 73.279 -7.695 71.077 -7.938 68.875 C-8.28 65.859 -8.629 62.843 -8.98 59.828 C-9.066 59.089 -9.152 58.35 -9.24 57.588 C-9.911 51.903 -10.772 46.266 -11.75 40.625 C-13.924 27.591 -14.639 13.843 -7 2.375 C-4.462 -0.163 -3.531 0.049 0 0 Z M-4 5.375 C-13.228 18.664 -7.165 39.868 -4.867 54.785 C-4.641 56.25 -4.416 57.715 -4.191 59.18 C-4.083 59.885 -3.974 60.59 -3.861 61.317 C-3.068 66.584 -2.556 71.839 -2.226 77.157 C-2.128 79.413 -2.128 79.413 -1 81.375 C0.98 80.88 0.98 80.88 3 80.375 C3.025 74.457 3.043 68.538 3.055 62.62 C3.06 60.616 3.067 58.611 3.075 56.607 C3.119 46.394 3.098 36.193 2.621 25.988 C2.59 25.247 2.56 24.506 2.528 23.742 C2.18 17.314 1.624 10.81 -2 5.375 C-2.66 5.375 -3.32 5.375 -4 5.375 Z M5 5.375 C5.133 6.114 5.266 6.852 5.402 7.613 C5.579 8.628 5.756 9.642 5.938 10.688 C6.112 11.674 6.286 12.66 6.465 13.676 C7.764 22.659 8.142 31.537 8.098 40.605 C8.096 41.722 8.095 42.838 8.093 43.989 C8.088 47.513 8.075 51.038 8.062 54.562 C8.057 56.969 8.053 59.376 8.049 61.783 C8.038 67.647 8.021 73.511 8 79.375 C13.653 80.094 19.17 80.496 24.879 80.473 C25.576 80.471 26.274 80.47 26.993 80.468 C29.183 80.463 31.373 80.45 33.562 80.438 C35.063 80.432 36.564 80.428 38.064 80.424 C41.71 80.413 45.355 80.396 49 80.375 C48.697 74.706 48.364 69.04 48 63.375 C47.936 62.363 47.871 61.352 47.805 60.31 C47.591 57.06 47.36 53.811 47.125 50.562 C47.059 49.538 46.993 48.514 46.924 47.459 C46.073 36.154 44.496 24.385 35.809 16.348 C32.533 14.047 29.178 12.648 25.438 11.312 C24.739 11.056 24.041 10.8 23.322 10.537 C17.318 8.383 11.236 6.721 5 5.375 Z " fill="#000000" transform="translate(285,76.625)"/>
<path d="M0 0 C9.439 4.228 13.789 14.505 17.312 23.643 C20.486 32.21 20.486 32.21 19 36 C16.525 36.495 16.525 36.495 14 37 C13.709 35.912 13.417 34.824 13.117 33.703 C9.297 17.261 9.297 17.261 -1 5 C-4.181 4.546 -5.984 4.314 -9 5 C-16.714 10.785 -17.573 22.891 -18.914 31.871 C-19.672 37.24 -20.36 42.616 -21 48 C-20.399 47.678 -19.799 47.355 -19.18 47.023 C-16.203 45.626 -14.264 45.608 -11 46 C-5.016 48.809 -2.531 53.133 0 59 C1.285 63.576 2.148 68.202 3 72.875 C3.508 75.479 4.02 78.081 4.535 80.684 C4.783 81.942 5.03 83.2 5.286 84.496 C7.249 94.128 9.862 103.561 12.902 112.906 C13.229 113.909 13.555 114.912 13.891 115.946 C14.533 117.899 15.187 119.849 15.853 121.795 C16.293 123.116 16.293 123.116 16.742 124.465 C17.009 125.245 17.276 126.024 17.55 126.828 C18.065 129.315 17.883 130.633 17 133 C13.565 137.961 11.092 139.847 5.188 141.625 C4.538 141.823 3.889 142.021 3.219 142.226 C1.153 142.844 -0.921 143.426 -3 144 C-3.682 144.194 -4.363 144.387 -5.065 144.587 C-13.655 147.003 -22.046 148.661 -31 149 C-31.095 150.245 -31.095 150.245 -31.191 151.516 C-34.249 182.285 -45.008 213.088 -58 241 C-58.393 241.853 -58.787 242.705 -59.192 243.584 C-66.384 259.002 -75.09 273.421 -84.049 287.851 C-86.187 291.302 -88.294 294.77 -90.396 298.243 C-95.489 306.648 -100.748 314.945 -106.055 323.216 C-109.812 329.082 -113.449 335.007 -117 341 C-118.98 340.67 -120.96 340.34 -123 340 C-121.572 336.151 -119.781 332.735 -117.691 329.203 C-116.703 327.532 -116.703 327.532 -115.696 325.826 C-114.985 324.634 -114.274 323.442 -113.562 322.25 C-113.201 321.641 -112.839 321.033 -112.466 320.405 C-107.894 312.716 -103.218 305.114 -98.297 297.641 C-90.87 286.303 -83.937 274.643 -77 263 C-76.485 262.137 -75.97 261.274 -75.439 260.385 C-55.378 226.479 -42.747 187.292 -34 149 C-35.81 149.031 -35.81 149.031 -37.656 149.062 C-41.059 149.062 -44.168 148.741 -47.5 148 C-48.356 147.814 -49.212 147.629 -50.094 147.438 C-50.723 147.293 -51.352 147.149 -52 147 C-51.959 148.238 -51.918 149.475 -51.875 150.75 C-51.863 154.016 -52.143 156.215 -54 159 C-55.32 159 -56.64 159 -58 159 C-57.795 158.397 -57.59 157.793 -57.379 157.172 C-57.109 156.373 -56.84 155.573 -56.562 154.75 C-56.296 153.961 -56.029 153.172 -55.754 152.359 C-55.505 151.581 -55.256 150.802 -55 150 C-54.58 148.987 -54.58 148.987 -54.152 147.953 C-54.102 147.309 -54.052 146.664 -54 146 C-54.584 145.425 -55.168 144.85 -55.77 144.258 C-58.827 141.163 -59.541 137.995 -60.688 133.875 C-62.05 128.827 -62.05 128.827 -64 124 C-69.573 123.628 -73.4 124.672 -78.25 127.25 C-78.931 127.602 -79.612 127.954 -80.314 128.317 C-107.807 142.861 -144.574 166.149 -159 195 C-159.66 195 -160.32 195 -161 195 C-160.67 189.51 -157.335 186.205 -153.938 182.188 C-153.313 181.443 -152.689 180.699 -152.046 179.933 C-132.951 157.504 -97.27 122.909 -66 120 C-65.34 120.33 -64.68 120.66 -64 121 C-64.475 118.374 -64.955 115.749 -65.438 113.125 C-65.572 112.379 -65.707 111.632 -65.846 110.863 C-66.545 106.815 -66.545 106.815 -68 103 C-73.861 103.524 -78.714 104.717 -84.125 107 C-84.859 107.307 -85.592 107.614 -86.348 107.93 C-104.803 115.943 -121.255 129.786 -133.793 145.43 C-134.885 146.702 -134.885 146.702 -136 148 C-136.66 148 -137.32 148 -138 148 C-136.548 143.325 -133.821 140.275 -130.5 136.812 C-129.689 135.957 -129.689 135.957 -128.862 135.084 C-127.761 133.927 -126.657 132.772 -125.549 131.621 C-124.195 130.204 -122.869 128.762 -121.547 127.316 C-109.058 114.042 -90.63 101.487 -72.258 99.059 C-70 99 -70 99 -68 100 C-68.121 99.138 -68.242 98.277 -68.367 97.389 C-68.819 94.152 -69.266 90.915 -69.709 87.677 C-69.901 86.283 -70.095 84.89 -70.291 83.496 C-71.35 75.969 -72.27 68.617 -72 61 C-90.095 63.335 -107.139 73.59 -119.746 86.41 C-122 88 -122 88 -124.785 87.746 C-125.516 87.5 -126.247 87.254 -127 87 C-114.986 74.351 -97.488 60.339 -79.605 58.793 C-76.791 58.737 -74.549 58.725 -72 60 C-71.918 58.804 -71.835 57.608 -71.75 56.375 C-71.172 52.021 -70.008 49.317 -67 46 C-57.973 41.165 -46.375 40.665 -36.453 42.461 C-31.408 44.123 -28.435 47.136 -25 51 C-25.014 50.391 -25.028 49.782 -25.042 49.155 C-25.223 34.956 -23.923 16.346 -15.215 4.59 C-10.703 0.078 -6.271 -1.683 0 0 Z M-62 49 C-61.818 49.548 -61.636 50.096 -61.449 50.66 C-57.468 63.215 -55.639 76.151 -53.7 89.138 C-51.475 103.818 -48.718 118.405 -46 133 C-45.147 132.872 -45.147 132.872 -44.276 132.741 C-38.322 131.847 -32.368 130.955 -26.414 130.064 C-24.196 129.732 -21.978 129.399 -19.76 129.066 C-16.56 128.585 -13.36 128.107 -10.16 127.629 C-9.179 127.481 -8.197 127.333 -7.186 127.181 C-1.466 126.329 4.249 125.602 10 125 C8.094 117.072 6.084 109.198 3.775 101.377 C1.423 93.404 -0.627 85.48 -2.188 77.312 C-4.072 63.967 -4.072 63.967 -11 53 C-13.941 51.759 -13.941 51.759 -17 52 C-19.46 53.626 -19.46 53.626 -21 56 C-21 56.99 -21 57.98 -21 59 C-19.68 59.33 -18.36 59.66 -17 60 C-16.505 62.475 -16.505 62.475 -16 65 C-16.929 64.836 -17.859 64.673 -18.816 64.504 C-23.847 63.785 -28.866 63.892 -33.938 63.938 C-35.393 63.944 -35.393 63.944 -36.877 63.951 C-39.251 63.963 -41.626 63.979 -44 64 C-44.33 62.68 -44.66 61.36 -45 60 C-37.08 59.505 -37.08 59.505 -29 59 C-30.081 53.594 -30.918 52.417 -35 49 C-38.79 47.572 -42.819 47.853 -46.812 47.875 C-47.499 47.871 -48.185 47.867 -48.893 47.863 C-53.359 47.872 -57.593 48.274 -62 49 Z M-68 53 C-68.35 63.418 -67.308 73.4 -65.875 83.688 C-65.765 84.492 -65.656 85.296 -65.543 86.125 C-63.179 103.322 -60.475 120.811 -54 137 C-52.02 136.01 -52.02 136.01 -50 135 C-51.058 128.318 -52.239 121.693 -53.699 115.087 C-55.498 106.948 -57.084 98.808 -58.297 90.562 C-58.403 89.839 -58.51 89.115 -58.62 88.369 C-59.14 84.801 -59.642 81.232 -60.124 77.659 C-61.316 69.091 -63.178 61.178 -66 53 C-66.66 53 -67.32 53 -68 53 Z " fill="#000000" transform="translate(222,84)"/>
<path d="M0 0 C3.743 1.248 4.242 2.866 5.957 6.268 C6.301 6.984 6.645 7.7 7 8.438 C7.532 9.537 7.532 9.537 8.074 10.658 C13.367 21.804 14.409 30.785 14 43 C11.511 40.511 11.152 38.63 10.195 35.25 C9.859 34.083 9.522 32.917 9.176 31.715 C8.829 30.489 8.482 29.263 8.125 28 C6.003 20.52 3.879 13.207 0.73 6.086 C0 4 0 4 0 0 Z " fill="#000000" transform="translate(256,95)"/>
<path d="M0 0 C3.562 1.272 5.362 1.984 7.375 5.188 C7.581 5.786 7.788 6.384 8 7 C7.67 7.33 7.34 7.66 7 8 C1.216 7.856 -4.612 7.133 -10 5 C-11.438 2.875 -11.438 2.875 -12 1 C-8.307 -0.846 -4.039 -0.347 0 0 Z " fill="#000000" transform="translate(312,97)"/>
<path d="M0 0 C3.562 1.562 3.562 1.562 6 3 C6 4.32 6 5.64 6 7 C-6.67 6.221 -6.67 6.221 -12 4 C-11.625 2.062 -11.625 2.062 -11 0 C-7.524 -1.738 -3.719 -0.729 0 0 Z " fill="#000000" transform="translate(313,112)"/>
<path d="M0 0 C3.88 1.293 5.141 3.543 7.312 6.812 C7.734 7.444 8.156 8.075 8.59 8.726 C29.937 41.974 29.937 41.974 28.625 51.812 C28.419 52.534 28.212 53.256 28 54 C26.125 53.765 26.125 53.765 24 53 C22.878 51.168 22.878 51.168 21.992 48.758 C21.65 47.865 21.308 46.973 20.956 46.053 C20.599 45.087 20.243 44.121 19.875 43.125 C16.876 35.397 13.652 27.942 9.75 20.625 C9.35 19.872 8.95 19.12 8.539 18.344 C6.202 14.025 3.692 9.897 0.927 5.837 C0 4 0 4 0 0 Z " fill="#000000" transform="translate(345,123)"/>
<path d="M0 0 C3.062 1.312 3.062 1.312 5 3 C5 4.32 5 5.64 5 7 C-1.069 7.253 -6.162 6.698 -12 5 C-12.33 3.68 -12.66 2.36 -13 1 C-8.516 -1.633 -4.942 -1.073 0 0 Z " fill="#000000" transform="translate(315,127)"/>
<path d="M0 0 C1.9 0.652 1.9 0.652 4 2 C4.957 4.468 4.957 4.468 5.598 7.574 C5.84 8.71 6.083 9.846 6.333 11.016 C6.574 12.228 6.815 13.439 7.062 14.688 C7.319 15.914 7.575 17.14 7.838 18.404 C8.344 20.837 8.843 23.271 9.333 25.707 C9.884 28.425 10.456 31.135 11.051 33.844 C12.373 40.01 13.386 45.69 13 52 C10.525 52.495 10.525 52.495 8 53 C6.913 48.148 5.829 43.296 4.747 38.443 C4.38 36.799 4.012 35.156 3.644 33.512 C1.297 23.032 -0.948 12.542 -3 2 C-2.01 1.34 -1.02 0.68 0 0 Z " fill="#000000" transform="translate(243,129)"/>
<path d="M0 0 C2.198 0.735 4.374 1.503 6.539 2.328 C6.869 3.978 7.199 5.628 7.539 7.328 C0.443 7.643 -5.144 7.774 -11.461 4.328 C-11.461 3.008 -11.461 1.688 -11.461 0.328 C-7.768 -1.518 -3.912 -1.068 0 0 Z " fill="#000000" transform="translate(312.4609375,140.671875)"/>
<path d="M0 0 C1.27 -0.018 1.27 -0.018 2.566 -0.037 C7.328 -0.048 11.331 0.182 15.75 2.188 C16.08 2.847 16.41 3.507 16.75 4.188 C16.42 4.847 16.09 5.507 15.75 6.188 C2.88 5.692 2.88 5.692 -10.25 5.188 C-10.58 3.868 -10.91 2.548 -11.25 1.188 C-7.772 -0.552 -3.832 0.003 0 0 Z " fill="#000000" transform="translate(193.25,156.8125)"/>
<path d="M0 0 C2.848 0.714 5.667 1.474 8.477 2.324 C8.477 3.644 8.477 4.964 8.477 6.324 C7.88 6.252 7.283 6.18 6.668 6.105 C-2.071 5.171 -10.749 5.232 -19.523 5.324 C-19.523 4.004 -19.523 2.684 -19.523 1.324 C-13.911 -2.417 -6.422 -1.232 0 0 Z " fill="#000000" transform="translate(204.5234375,171.67578125)"/>
<path d="M0 0 C0.33 0 0.66 0 1 0 C0.977 1.218 0.954 2.436 0.93 3.691 C0.911 5.315 0.893 6.939 0.875 8.562 C0.858 9.362 0.841 10.162 0.824 10.986 C0.818 11.776 0.811 12.565 0.805 13.379 C0.794 14.096 0.784 14.814 0.773 15.553 C1 18.814 1 18.814 3 25 C4.65 19.06 6.3 13.12 8 7 C8.33 7 8.66 7 9 7 C8.788 17.345 6.952 29.869 0 38 C0.66 35.03 1.32 32.06 2 29 C-0.31 29 -2.62 29 -5 29 C-5.633 30.35 -5.633 30.35 -6.278 31.728 C-14.295 48.782 -22.345 65.403 -33 81 C-33.841 82.267 -34.68 83.535 -35.516 84.805 C-37.325 87.549 -39.154 90.28 -41 93 C-42 91 -42 91 -41.405 88.897 C-40.205 85.84 -38.993 82.79 -37.75 79.75 C-37.276 78.585 -36.803 77.42 -36.315 76.22 C-30.989 63.364 -24.684 50.981 -18.376 38.585 C-17.97 37.787 -17.564 36.989 -17.146 36.167 C-16.381 34.667 -15.613 33.168 -14.842 31.67 C-13.049 28.167 -11.382 24.693 -10 21 C-10.577 21.495 -11.155 21.99 -11.75 22.5 C-14 24 -14 24 -18 24 C-18.268 24.784 -18.536 25.567 -18.812 26.375 C-20 29 -20 29 -23 31 C-22.04 28.587 -21.074 26.177 -20.07 23.781 C-17.6 17.82 -15.683 11.8 -13.93 5.59 C-13 3 -13 3 -11 2 C-11.99 6.62 -12.98 11.24 -14 16 C-12.763 15.051 -11.525 14.102 -10.25 13.125 C-8.126 11.497 -6.277 10.119 -3.812 9.062 C-1.833 8.144 -1.833 8.144 -1.172 6.055 C-1.033 5.335 -0.893 4.616 -0.75 3.875 C-0.503 2.596 -0.255 1.317 0 0 Z " fill="#000000" transform="translate(638,174)"/>
<path d="M0 0 C0.835 0.34 0.835 0.34 1.688 0.688 C1.252 5.622 -0.945 8.167 -4.312 11.688 C-8.437 14.806 -8.437 14.806 -11.625 14.375 C-12.182 14.148 -12.739 13.921 -13.312 13.688 C-11.725 7.999 -9.562 4.375 -4.812 0.812 C-2.312 -0.312 -2.312 -0.312 0 0 Z " fill="#000000" transform="translate(85.3125,177.3125)"/>
<path d="M0 0 C11.818 4.149 17.918 13.223 23.527 23.91 C35.329 49.173 38.885 78.865 43.855 106.121 C44.086 107.386 44.086 107.386 44.322 108.676 C45.063 112.736 45.796 116.797 46.516 120.86 C47.298 125.25 48.132 129.627 49 134 C49.217 135.118 49.217 135.118 49.438 136.259 C49.876 138.465 50.35 140.66 50.836 142.855 C51.108 144.132 51.381 145.408 51.662 146.723 C53.557 151.364 56.475 152.982 60.91 155.04 C61.786 155.324 61.786 155.324 62.68 155.613 C63.706 155.951 63.706 155.951 64.753 156.295 C65.865 156.644 65.865 156.644 67 157 C68.236 157.405 68.236 157.405 69.497 157.818 C85.892 163.106 101.568 165.419 118.75 165.375 C119.562 165.374 120.373 165.374 121.209 165.373 C135.458 165.33 149.056 164.058 163 161 C164.473 160.687 164.473 160.687 165.976 160.367 C183.893 156.495 201.443 151.23 219 146 C221.702 145.196 224.404 144.393 227.107 143.592 C228.525 143.171 229.942 142.747 231.357 142.32 C235.78 141 235.78 141 238 141 C237.599 139.585 237.599 139.585 237.19 138.142 C236.194 134.629 235.202 131.116 234.21 127.603 C233.781 126.085 233.351 124.567 232.921 123.049 C232.301 120.863 231.683 118.676 231.066 116.488 C230.779 115.477 230.779 115.477 230.485 114.445 C227.119 102.479 227.119 102.479 228 97 C230.354 94.787 233.139 93.463 236 92 C241.731 88.837 246.713 85.472 251.625 81.125 C258.414 75.288 265.909 71.717 274 68 C274.763 67.597 275.526 67.193 276.312 66.777 C278 66 278 66 280.5 66.062 C284.319 67.495 286.161 70.216 287.883 73.877 C288.722 75.965 289.497 78.066 290.25 80.188 C290.518 80.911 290.786 81.635 291.062 82.381 C293 87.694 293 87.694 293 90 C293.66 90.33 294.32 90.66 295 91 C295.379 93.074 295.379 93.074 295.562 95.688 C295.768 98.447 296.02 101.113 296.5 103.84 C297.628 110.966 299.143 121.076 294.812 127.312 C293.156 129.082 293.156 129.082 291 131 C290.041 131.87 289.082 132.74 288.094 133.637 C279.046 141.631 269.377 148.671 259.062 154.938 C258.423 155.328 257.784 155.718 257.125 156.12 C251.008 159.76 251.008 159.76 248 160 C243.811 157.067 242.513 154.092 240.844 149.297 C240.321 147.809 240.321 147.809 239.787 146.292 C239.527 145.536 239.268 144.779 239 144 C237.863 144.445 237.863 144.445 236.703 144.899 C182.795 165.9 120.242 185.241 64.124 161.151 C61.065 159.803 58.029 158.414 55 157 C64.443 189.43 80.867 220.222 108 241 C107.34 241.33 106.68 241.66 106 242 C81.405 230.696 65.956 204.784 56.833 180.368 C54.736 174.409 52.995 168.339 51.262 162.266 C51.04 161.517 50.817 160.767 50.588 159.996 C50.12 158.407 49.682 156.81 49.254 155.211 C47.369 151.888 44.428 150.312 41.25 148.375 C13.377 130.539 -9.716 106.65 -24.812 77.062 C-25.156 76.394 -25.5 75.726 -25.854 75.038 C-28.126 70.377 -28.126 70.377 -27 67 C-25.515 66.505 -25.515 66.505 -24 66 C-21.188 70.306 -18.643 74.639 -16.295 79.218 C-10.098 91.244 -2.555 101.705 6.711 111.559 C8.657 113.634 10.491 115.753 12.312 117.938 C22.145 129.138 33.711 137.699 46 146 C45.578 143.556 45.143 141.117 44.684 138.68 C44.316 136.703 43.955 134.726 43.625 132.743 C41.393 118.863 41.393 118.863 33 108 C11.705 83.941 -12.556 45.123 -14 12 C-13.716 7.683 -12.717 4.82 -9.812 1.5 C-6.143 -0.457 -4.124 -0.559 0 0 Z M-6 6 C-8.995 10.492 -7.955 13.821 -7 19 C-2.703 38.104 5.552 54.195 15.292 71.04 C16.938 73.893 18.57 76.755 20.195 79.621 C25.991 89.834 31.897 99.968 38 110 C39.025 106.8 38.939 104.637 38.231 101.369 C38.036 100.451 37.841 99.533 37.64 98.588 C37.42 97.597 37.2 96.607 36.973 95.586 C36.749 94.551 36.525 93.517 36.294 92.451 C35.562 89.09 34.814 85.732 34.062 82.375 C33.683 80.669 33.683 80.669 33.297 78.929 C26.558 38.632 26.558 38.632 4 7 C1.787 5.894 0.453 5.804 -2 5.75 C-3.052 5.711 -3.052 5.711 -4.125 5.672 C-4.744 5.78 -5.363 5.888 -6 6 Z M248.5 89.125 C243.328 92.961 237.958 95.603 232 98 C232.343 106.952 234.867 115.184 237.438 123.688 C237.85 125.076 238.263 126.465 238.674 127.854 C239.432 130.41 240.195 132.965 240.963 135.518 C242.001 139.005 243.001 142.502 244 146 C244.53 147.65 245.07 149.296 245.625 150.938 C245.885 151.71 246.146 152.482 246.414 153.277 C246.607 153.846 246.801 154.414 247 155 C258.587 150.87 268.639 142.943 277.359 134.473 C279.722 132.26 282.068 130.483 284.75 128.688 C287.781 126.539 287.781 126.539 288.562 122.75 C288.135 120.053 288.135 120.053 287 118 C284.525 118.495 284.525 118.495 282 119 C283 116 283 116 286 114 C285.505 110.535 285.505 110.535 285 107 C283.02 107.495 283.02 107.495 281 108 C281.66 107.01 282.32 106.02 283 105 C283.026 102.703 283.026 102.703 282.625 100.312 C282.514 99.504 282.403 98.696 282.289 97.863 C282.194 97.248 282.098 96.634 282 96 C280.68 96 279.36 96 278 96 C278.495 95.196 278.495 95.196 279 94.375 C280.591 90.596 280.531 87.382 279.062 83.562 C278.712 82.717 278.361 81.871 278 81 C277.619 78.674 277.275 76.341 277 74 C266.751 74 256.267 83.261 248.5 89.125 Z " fill="#000000" transform="translate(300,179)"/>
<path d="M0 0 C-0.33 1.65 -0.66 3.3 -1 5 C-1.824 5.083 -1.824 5.083 -2.665 5.168 C-5.173 5.422 -7.68 5.68 -10.188 5.938 C-11.484 6.068 -11.484 6.068 -12.807 6.201 C-17.901 6.726 -17.901 6.726 -22.926 7.691 C-25 8 -25 8 -28 6 C-27.512 4.109 -27.512 4.109 -26 2 C-23.193 1.199 -20.677 0.662 -17.812 0.25 C-17.069 0.125 -16.326 -0 -15.561 -0.129 C-3.959 -1.979 -3.959 -1.979 0 0 Z " fill="#000000" transform="translate(215,185)"/>
<path d="M0 0 C1.832 0.043 1.832 0.043 4 1 C5.111 3.483 5.934 5.724 6.688 8.312 C6.9 8.99 7.112 9.667 7.33 10.365 C9.149 16.234 10.119 20.835 10 27 C8.68 27 7.36 27 6 27 C4.793 23.444 3.613 19.879 2.438 16.312 C2.095 15.305 1.753 14.298 1.4 13.26 C0.922 11.795 0.922 11.795 0.434 10.301 C0.135 9.405 -0.163 8.51 -0.471 7.587 C-1.058 4.718 -0.762 2.804 0 0 Z " fill="#000000" transform="translate(376,185)"/>
<path d="M0 0 C2.367 8.65 4.57 17.311 6.558 26.055 C7.444 29.879 8.466 33.564 9.812 37.25 C10.95 40.841 11.242 42.5 10 46 C8.148 45.887 8.148 45.887 6 45 C4.727 42.395 4.727 42.395 3.625 38.812 C3.323 37.84 3.323 37.84 3.015 36.848 C2.32 34.571 1.659 32.287 1 30 C0.733 29.092 0.467 28.183 0.192 27.248 C-0.658 24.336 -1.489 21.419 -2.312 18.5 C-2.579 17.569 -2.846 16.638 -3.121 15.679 C-4.507 10.619 -5.31 6.247 -5 1 C-3 0 -3 0 0 0 Z " fill="#000000" transform="translate(260,190)"/>
<path d="M0 0 C1.625 4.967 -0.098 8.908 -1.562 13.75 C-1.803 14.619 -2.043 15.488 -2.291 16.383 C-4.134 22.566 -6.806 27.109 -11 32 C-11.66 31.67 -12.32 31.34 -13 31 C-12.14 29.374 -12.14 29.374 -11.262 27.715 C-8.651 22.494 -6.745 17.063 -4.812 11.562 C-4.113 9.584 -3.411 7.606 -2.707 5.629 C-2.403 4.763 -2.098 3.898 -1.784 3.006 C-1 1 -1 1 0 0 Z " fill="#000000" transform="translate(656,190)"/>
<path d="M0 0 C0.33 1.32 0.66 2.64 1 4 C-2.144 4.652 -5.291 5.296 -8.438 5.938 C-9.755 6.211 -9.755 6.211 -11.1 6.49 C-16.726 7.632 -22.285 8.448 -28 9 C-28.33 7.68 -28.66 6.36 -29 5 C-19.721 -0.353 -10.537 -1.756 0 0 Z " fill="#000000" transform="translate(220,197)"/>
<path d="M0 0 C1.65 0 3.3 0 5 0 C7.737 7.507 9.357 15.027 10.812 22.875 C11.054 24.097 11.296 25.319 11.545 26.578 C11.763 27.746 11.982 28.914 12.207 30.117 C12.408 31.175 12.609 32.234 12.816 33.324 C13 36 13 36 11 39 C9.68 38.67 8.36 38.34 7 38 C6.895 37.391 6.789 36.782 6.68 36.155 C4.247 21.49 4.247 21.49 0.516 7.121 C-0.075 4.69 -0.088 2.493 0 0 Z " fill="#000000" transform="translate(385,219)"/>
<path d="M0 0 C0.66 0.33 1.32 0.66 2 1 C0.81 8.366 -0.481 15.695 -2 23 C-2.99 23 -3.98 23 -5 23 C-3.93 3.93 -3.93 3.93 0 0 Z " fill="#000000" transform="translate(201,234)"/>
<path d="M0 0 C3 1 3 1 4.211 2.977 C10.093 16.359 15.087 29.986 15.562 44.688 C15.786 51.901 15.786 51.901 17 59 C7.683 51.236 6.228 29.897 3.648 18.891 C2.235 12.887 0.675 6.936 -1 1 C-0.67 0.67 -0.34 0.34 0 0 Z " fill="#000000" transform="translate(358,245)"/>
<path d="M0 0 C1.938 0.812 1.938 0.812 4 2 C5 5 5 5 4.111 7.198 C3.4 8.467 3.4 8.467 2.676 9.762 C2.148 10.708 1.619 11.655 1.075 12.63 C0.203 14.143 0.203 14.143 -0.688 15.688 C-1.278 16.721 -1.869 17.755 -2.478 18.819 C-7.678 27.753 -13.487 35.986 -20 44 C-20.439 44.541 -20.878 45.082 -21.33 45.64 C-23.259 48.008 -25.2 50.366 -27.152 52.715 C-29.305 55.377 -31.194 58.095 -33 61 C-34.98 60.67 -36.96 60.34 -39 60 C-37.699 57.2 -36.263 54.926 -34.277 52.566 C-33.743 51.924 -33.209 51.283 -32.659 50.621 C-32.091 49.942 -31.523 49.262 -30.938 48.562 C-21.241 36.766 -13.281 24.4 -6 11 C-5.374 9.858 -4.747 8.716 -4.102 7.539 C-2.728 5.03 -1.36 2.517 0 0 Z " fill="#000000" transform="translate(160,249)"/>
<path d="M0 0 C10.738 2.805 20.032 10.718 28.23 17.844 C28.956 18.414 29.682 18.983 30.43 19.57 C34.955 23.15 34.955 23.15 36.137 26.125 C36.266 29.886 34.627 32.085 32.605 35.094 C27.39 43.258 23.024 51.807 18.662 60.45 C18.13 61.493 17.598 62.535 17.051 63.609 C16.579 64.546 16.108 65.482 15.622 66.446 C14.345 68.647 13.123 70.167 11.23 71.844 C6.339 70.564 3.87 68.87 0.48 65.156 C-2.916 61.554 -6.091 58.886 -10.332 56.344 C-13.277 54.422 -14.537 53.571 -15.617 50.191 C-15.866 47.692 -15.941 45.347 -15.77 42.844 C-16.508 43.86 -17.247 44.875 -18.008 45.922 C-24.471 54.729 -31.127 63.02 -38.77 70.844 C-39.715 71.812 -39.715 71.812 -40.679 72.799 C-42.765 74.925 -44.858 77.043 -46.957 79.156 C-47.61 79.814 -48.263 80.472 -48.937 81.15 C-53.385 85.583 -58.001 89.76 -62.77 93.844 C-63.316 94.317 -63.862 94.79 -64.425 95.278 C-71.968 101.805 -79.704 107.966 -87.77 113.844 C-89.334 115.012 -89.334 115.012 -90.93 116.203 C-116.107 134.823 -149.188 154.612 -181.77 151.844 C-185.248 151.072 -188.405 150.049 -191.77 148.844 C-190.78 155.114 -189.79 161.384 -188.77 167.844 C-171.363 169.584 -158.423 165.954 -142.707 159.082 C-142.065 158.801 -141.423 158.521 -140.761 158.231 C-138.99 157.449 -137.227 156.649 -135.465 155.848 C-134.575 155.516 -133.686 155.185 -132.77 154.844 C-132.11 155.174 -131.45 155.504 -130.77 155.844 C-149.262 167.149 -165.549 175.921 -187.77 170.844 C-188.76 170.514 -189.75 170.184 -190.77 169.844 C-190.955 171.422 -190.955 171.422 -191.145 173.031 C-191.681 176.303 -192.408 178.849 -193.77 181.844 C-187.305 183.78 -181.493 184.089 -174.77 183.969 C-173.804 183.96 -172.839 183.951 -171.844 183.941 C-169.485 183.918 -167.128 183.885 -164.77 183.844 C-169.573 187.046 -173.785 187.032 -179.457 187.031 C-180.172 187.037 -180.888 187.043 -181.625 187.049 C-185.628 187.031 -189.037 186.654 -192.832 185.406 C-196.606 184.409 -196.606 184.409 -198.652 186.164 C-199.864 187.418 -201.037 188.712 -202.168 190.039 C-204.366 192.516 -206.764 193.488 -209.77 194.844 C-211.38 195.834 -212.983 196.835 -214.582 197.844 C-218.576 200.286 -222.338 201.813 -226.812 203.121 C-229.037 203.818 -229.037 203.818 -231.395 206.031 C-234.666 208.528 -236.752 208.355 -240.77 207.844 C-244.166 206.146 -244.756 204.882 -246.078 201.254 C-246.466 199.808 -246.842 198.358 -247.207 196.906 C-247.631 195.374 -248.059 193.843 -248.492 192.312 C-248.811 191.179 -248.811 191.179 -249.137 190.023 C-251.234 181.285 -251.234 181.285 -256.641 174.668 C-258.757 173.969 -258.757 173.969 -261.77 173.844 C-261.163 169.716 -259.731 166.512 -257.77 162.844 C-258.387 163.242 -259.004 163.64 -259.641 164.051 C-277.42 175.173 -301.21 176.969 -321.583 172.766 C-341.221 167.853 -356.427 154.967 -371.586 142.301 C-374.815 139.611 -378.1 137.013 -381.435 134.455 C-405.94 115.63 -429.252 83.347 -436.77 52.844 C-436.44 51.854 -436.11 50.864 -435.77 49.844 C-435.305 50.781 -434.841 51.718 -434.363 52.684 C-418.714 83.565 -398.814 113.913 -370.894 134.877 C-366.45 138.24 -362.261 141.846 -358.082 145.531 C-343.989 157.865 -330.034 164.858 -311.77 168.844 C-311.44 168.184 -311.11 167.524 -310.77 166.844 C-310.44 167.174 -310.11 167.504 -309.77 167.844 C-306.696 167.973 -303.656 168.033 -300.582 168.031 C-299.678 168.032 -298.774 168.033 -297.843 168.033 C-291.353 167.983 -285.207 167.425 -278.812 166.281 C-275.431 165.795 -272.181 165.775 -268.77 165.844 C-268.646 165.246 -268.522 164.648 -268.395 164.031 C-267.77 161.844 -267.77 161.844 -265.77 158.844 C-267.173 154.894 -268.871 151.893 -271.77 148.844 C-275.147 147.448 -278.343 146.533 -281.878 145.679 C-287.457 144.313 -292.349 142.407 -297.457 139.781 C-298.103 139.452 -298.75 139.124 -299.416 138.785 C-305.38 135.664 -310.723 132.079 -315.707 127.531 C-316.5 126.813 -317.293 126.095 -318.109 125.355 C-318.987 124.527 -319.865 123.698 -320.77 122.844 C-321.308 122.336 -321.846 121.828 -322.401 121.305 C-327.002 116.851 -330.881 112.032 -334.707 106.906 C-335.295 106.127 -335.884 105.348 -336.49 104.545 C-337.922 102.648 -339.348 100.748 -340.77 98.844 C-337.77 98.844 -337.77 98.844 -335.203 101.371 C-334.198 102.502 -333.2 103.639 -332.207 104.781 C-317.15 121.534 -298.189 136.67 -275.77 141.844 C-275.584 140.266 -275.584 140.266 -275.395 138.656 C-274.653 136.179 -274.067 135.075 -272.008 133.477 C-266.091 130.403 -259.739 128.424 -253.444 126.283 C-241.59 122.155 -225.713 115.787 -216.77 106.844 C-213.309 106.711 -210.863 106.877 -208.188 109.242 C-200.608 118.722 -192.77 135.373 -192.77 147.844 C-167.15 145.988 -145.416 139.972 -122.77 127.844 C-121.755 127.301 -120.741 126.758 -119.695 126.199 C-105.237 118.092 -92.216 107.823 -79.496 97.266 C-77.157 95.339 -74.777 93.467 -72.395 91.594 C-68.163 88.222 -64.145 84.65 -60.148 81.004 C-57.987 79.041 -55.794 77.124 -53.582 75.219 C-50.425 72.473 -47.478 69.577 -44.551 66.59 C-42.692 64.768 -40.754 63.089 -38.77 61.406 C-32.831 56.274 -27.925 50.492 -23.77 43.844 C-25.09 43.514 -26.41 43.184 -27.77 42.844 C-27.248 37.491 -25.378 33.819 -22.707 29.281 C-22.307 28.586 -21.906 27.891 -21.493 27.174 C-17.715 20.653 -13.815 14.203 -9.77 7.844 C-9.095 6.774 -8.421 5.704 -7.727 4.602 C-5.405 1.33 -4.134 -0.233 0 0 Z M-2.77 3.844 C-3.11 4.426 -3.45 5.009 -3.801 5.609 C-7.396 11.69 -11.246 17.511 -15.328 23.277 C-15.804 24.124 -16.279 24.971 -16.77 25.844 C-16.44 26.834 -16.11 27.824 -15.77 28.844 C-15.006 28.637 -14.243 28.431 -13.457 28.219 C-10.77 27.844 -10.77 27.844 -7.77 29.844 C-7.069 32.507 -6.992 35.084 -6.77 37.844 C-5.919 37.498 -5.919 37.498 -5.051 37.145 C-2.77 36.844 -2.77 36.844 -0.551 38.137 C0.202 38.762 0.955 39.387 1.73 40.031 C2.483 40.644 3.236 41.256 4.012 41.887 C6.188 43.806 8.294 45.68 10.23 47.844 C9.98 50.094 9.98 50.094 9.23 51.844 C6.511 50.775 5.245 49.863 3.418 47.531 C0.784 44.296 -2.159 41.934 -5.77 39.844 C-6.43 39.844 -7.09 39.844 -7.77 39.844 C-8.76 43.144 -9.75 46.444 -10.77 49.844 C-9.491 50.813 -8.212 51.783 -6.895 52.781 C-2.335 56.315 1.927 60.111 6.164 64.023 C8.1 65.885 8.1 65.885 10.23 66.844 C10.511 66.231 10.792 65.618 11.082 64.986 C21.31 42.796 21.31 42.796 28.408 32.719 C30.727 29.501 30.727 29.501 30.848 25.711 C24.777 18.702 16.052 13.544 8.168 8.781 C7.537 8.399 6.907 8.018 6.257 7.624 C3.311 5.891 0.631 4.395 -2.77 3.844 Z M-227.145 119.531 C-237.623 124.795 -248.067 129.446 -259.134 133.346 C-263.305 134.836 -267.059 136.365 -270.77 138.844 C-269.45 143.526 -267.572 146.847 -264.645 150.719 C-263.92 151.686 -263.196 152.652 -262.449 153.648 C-261.895 154.373 -261.341 155.097 -260.77 155.844 C-260.013 155.69 -259.256 155.537 -258.477 155.379 C-255.583 154.807 -252.681 154.318 -249.77 153.844 C-247.776 158.324 -246.722 162.895 -245.645 167.656 C-245.463 168.445 -245.281 169.233 -245.094 170.045 C-244.649 171.977 -244.209 173.91 -243.77 175.844 C-246.682 172.969 -249.411 170.195 -251.77 166.844 C-252.76 167.834 -253.75 168.824 -254.77 169.844 C-254.44 170.834 -254.11 171.824 -253.77 172.844 C-252.839 173.031 -252.839 173.031 -251.891 173.223 C-249.77 173.844 -249.77 173.844 -248.242 175.934 C-243.787 184.93 -241.208 194.134 -238.77 203.844 C-236.612 202.807 -234.809 201.876 -232.957 200.344 C-230.77 198.844 -230.77 198.844 -227.598 198.043 C-223.295 196.863 -219.973 194.677 -216.332 192.156 C-215.679 191.713 -215.026 191.27 -214.353 190.813 C-209.131 187.216 -204.258 183.333 -199.77 178.844 C-199.859 177.152 -200.015 175.464 -200.207 173.781 C-200.36 172.403 -200.36 172.403 -200.516 170.996 C-200.599 170.286 -200.683 169.576 -200.77 168.844 C-203.695 168.62 -203.695 168.62 -205.77 169.844 C-205.254 169.142 -204.738 168.441 -204.207 167.719 C-202.425 164.154 -202.645 162.619 -203.77 158.844 C-205.217 156.522 -205.217 156.522 -206.77 154.844 C-207.76 155.339 -207.76 155.339 -208.77 155.844 C-208.11 154.854 -207.45 153.864 -206.77 152.844 C-207.041 148.59 -207.947 146.034 -210.77 142.844 C-210.77 143.504 -210.77 144.164 -210.77 144.844 C-211.43 144.844 -212.09 144.844 -212.77 144.844 C-212.674 144.24 -212.579 143.637 -212.48 143.016 C-212.37 142.216 -212.259 141.417 -212.145 140.594 C-212.029 139.805 -211.913 139.016 -211.793 138.203 C-211.766 135.483 -212.296 134.109 -213.77 131.844 C-214.43 131.514 -215.09 131.184 -215.77 130.844 C-216.035 128.918 -216.292 126.99 -216.484 125.055 C-216.897 121.853 -217.808 118.921 -218.77 115.844 C-221.468 115.844 -224.709 118.293 -227.145 119.531 Z " fill="#000000" transform="translate(721.76953125,255.15625)"/>
<path d="M0 0 C0.99 0.33 1.98 0.66 3 1 C3.33 1.99 3.66 2.98 4 4 C-2.578 10.699 -10.046 15.989 -19 19 C-21.418 18.18 -21.418 18.18 -23 17 C-23 16.01 -23 15.02 -23 14 C-22.238 13.732 -21.476 13.464 -20.691 13.188 C-13.9 10.61 -8.951 7.748 -3.742 2.672 C-2 1 -2 1 0 0 Z " fill="#000000" transform="translate(566,266)"/>
<path d="M0 0 C1.65 0.33 3.3 0.66 5 1 C5.196 2.404 5.196 2.404 5.396 3.835 C8.792 28.584 8.792 28.584 14 53 C6.64 46.425 4.978 34.594 2.75 25.438 C2.492 24.385 2.234 23.333 1.968 22.25 C-2.211 4.421 -2.211 4.421 0 0 Z " fill="#000000" transform="translate(396,268)"/>
<path d="M0 0 C5.249 0.487 9.007 3.265 13.312 6.062 C14.053 6.535 14.794 7.007 15.557 7.494 C17.376 8.656 19.188 9.827 21 11 C20.67 12.32 20.34 13.64 20 15 C15.295 14.486 12.299 13.245 8.375 10.625 C7.455 10.019 6.534 9.413 5.586 8.789 C3.348 7.241 1.16 5.653 -1 4 C-0.67 2.68 -0.34 1.36 0 0 Z " fill="#000000" transform="translate(721,273)"/>
<path d="M0 0 C6.444 2.029 10.392 6.023 13.597 11.927 C16.007 16.661 18.226 21.483 20.438 26.312 C27.318 41.14 34.297 54.465 45.359 66.678 C49.478 71.676 49.478 71.676 49.181 75.667 C46.486 85.345 39.756 91.858 31.375 97.062 C19.798 103.396 0.841 111.875 -12.625 109.062 C-19.63 103.327 -24.661 95.017 -29.562 87.5 C-30.253 86.452 -30.943 85.403 -31.654 84.323 C-57.189 45.267 -57.189 45.267 -56.625 30.375 C-56.468 26.199 -56.565 23.695 -58.625 20.062 C-58.75 17.312 -58.75 17.312 -58.625 15.062 C-52.925 12.004 -47.504 9.977 -41.25 8.375 C-35.807 7.08 -35.807 7.08 -30.625 5.062 C-25.964 4.267 -23.536 5.528 -19.75 8.062 C-18.366 9.049 -16.987 10.045 -15.625 11.062 C-15.481 9.763 -15.336 8.464 -15.188 7.125 C-14.75 3.188 -14.75 3.188 -13.625 2.062 C-11.329 2.031 -9.048 2.131 -6.754 2.223 C-3.574 1.983 -3.359 0.08 0 0 Z M0.375 7.062 C-0.285 7.723 -0.945 8.382 -1.625 9.062 C-3.605 9.062 -5.585 9.062 -7.625 9.062 C-7.955 13.353 -8.285 17.642 -8.625 22.062 C-5.985 22.062 -3.345 22.062 -0.625 22.062 C-0.13 24.043 -0.13 24.043 0.375 26.062 C-0.194 26.143 -0.763 26.223 -1.35 26.306 C-3.963 26.678 -6.575 27.058 -9.188 27.438 C-10.083 27.564 -10.978 27.69 -11.9 27.82 C-16.961 28.562 -21.746 29.523 -26.625 31.062 C-27.285 29.743 -27.945 28.423 -28.625 27.062 C-27.252 26.772 -27.252 26.772 -25.852 26.477 C-24.663 26.216 -23.475 25.956 -22.25 25.688 C-21.067 25.432 -19.883 25.177 -18.664 24.914 C-15.543 24.307 -15.543 24.307 -13.625 22.062 C-17.398 17.143 -20.745 13.293 -26.625 11.062 C-28.566 11.739 -30.504 12.428 -32.405 13.208 C-36.049 14.611 -39.82 15.403 -43.625 16.25 C-44.4 16.427 -45.174 16.604 -45.973 16.787 C-47.856 17.217 -49.74 17.641 -51.625 18.062 C-52.511 19.791 -52.511 19.791 -52.625 22.062 C-50.967 24.598 -50.967 24.598 -48.5 27.188 C-44.134 32.156 -40.155 37.304 -36.312 42.688 C-35.498 43.829 -35.498 43.829 -34.667 44.993 C-33.55 46.56 -32.435 48.126 -31.32 49.694 C-29.625 52.062 -27.91 54.414 -26.188 56.762 C-17.871 68.112 -10.296 79.651 -3.625 92.062 C0.195 90.653 3.524 88.863 7 86.75 C15.813 81.553 24.954 77.747 34.527 74.176 C36.896 73.25 39.128 72.248 41.375 71.062 C40.732 70.319 40.089 69.575 39.426 68.809 C27.576 54.662 18.832 38.204 11.441 21.353 C9.102 16.131 6.324 11.255 2.375 7.062 C1.715 7.062 1.055 7.062 0.375 7.062 Z M-53.625 28.062 C-51.924 47.756 -38.636 64.075 -27.831 79.834 C-24.68 84.446 -21.588 89.096 -18.5 93.75 C-17.539 95.192 -16.579 96.633 -15.617 98.074 C-14.96 99.06 -14.302 100.046 -13.625 101.062 C-10.764 99.703 -8.766 98.417 -6.625 96.062 C-8.025 92.178 -9.848 89.012 -12.172 85.605 C-12.887 84.551 -13.601 83.498 -14.338 82.412 C-14.714 81.862 -15.09 81.312 -15.477 80.745 C-16.612 79.081 -17.74 77.412 -18.865 75.741 C-26.659 64.167 -34.473 52.601 -42.5 41.188 C-42.957 40.536 -43.413 39.884 -43.884 39.212 C-46.629 35.337 -49.491 31.633 -52.625 28.062 C-52.955 28.062 -53.285 28.062 -53.625 28.062 Z " fill="#000000" transform="translate(251.625,276.9375)"/>
<path d="M0 0 C1.32 0.66 2.64 1.32 4 2 C0.691 10.149 -9.856 14.159 -17.238 17.934 C-20.058 19.023 -22.009 19.223 -25 19 C-25.66 17.68 -26.32 16.36 -27 15 C-25.973 14.587 -24.945 14.175 -23.887 13.75 C-14.996 10.08 -7.499 6.117 0 0 Z " fill="#000000" transform="translate(572,278)"/>
<path d="M0 0 C3.895 1.419 7.205 3.258 10.688 5.5 C12.116 6.413 12.116 6.413 13.574 7.344 C16 9 16 9 18 11 C18 12.32 18 13.64 18 15 C15.938 15.375 15.938 15.375 13 15 C11.169 13.68 9.569 12.203 7.914 10.668 C4.878 8.023 1.464 6.033 -2 4 C-1.34 2.68 -0.68 1.36 0 0 Z " fill="#000000" transform="translate(719,282)"/>
<path d="M0 0 C0.872 0.323 0.872 0.323 1.762 0.652 C1.385 3.049 1.134 4.321 -0.709 5.961 C-1.64 6.52 -1.64 6.52 -2.59 7.09 C-3.277 7.51 -3.964 7.93 -4.672 8.363 C-5.395 8.789 -6.118 9.214 -6.863 9.652 C-7.563 10.078 -8.263 10.503 -8.984 10.941 C-10.38 11.785 -11.78 12.62 -13.186 13.446 C-14.545 14.245 -15.895 15.056 -17.238 15.882 C-18.869 16.867 -20.551 17.767 -22.238 18.652 C-24.676 17.902 -24.676 17.902 -26.238 16.652 C-26.238 15.662 -26.238 14.672 -26.238 13.652 C-25.26 13.144 -24.281 12.637 -23.273 12.113 C-21.949 11.419 -20.624 10.724 -19.301 10.027 C-18.617 9.668 -17.932 9.308 -17.227 8.938 C-12.587 6.464 -8.265 3.772 -4.07 0.586 C-2.238 -0.348 -2.238 -0.348 0 0 Z " fill="#000000" transform="translate(575.23828125,290.34765625)"/>
<path d="M0 0 C1.083 0.124 1.083 0.124 2.188 0.25 C1.703 4.793 1.703 4.793 -0.575 6.812 C-1.328 7.24 -2.08 7.668 -2.855 8.109 C-3.682 8.585 -4.509 9.061 -5.361 9.551 C-6.667 10.268 -6.667 10.268 -8 11 C-8.851 11.494 -9.703 11.987 -10.58 12.496 C-14.97 14.975 -18.684 16.881 -23.812 17.25 C-24.143 15.93 -24.472 14.61 -24.812 13.25 C-23.643 12.647 -22.474 12.043 -21.27 11.422 C-19.721 10.615 -18.173 9.808 -16.625 9 C-15.856 8.604 -15.087 8.209 -14.295 7.801 C-9.706 5.398 -4.968 0.442 0 0 Z " fill="#000000" transform="translate(576.8125,300.75)"/>
<path d="M0 0 C0 1.32 0 2.64 0 4 C-2.922 5.461 -5.828 5.586 -9.062 6 C-10.071 6.13 -10.071 6.13 -11.1 6.263 C-16.061 6.898 -21.026 7.476 -26 8 C-26 6.68 -26 5.36 -26 4 C-17.115 0.743 -9.456 -0.557 0 0 Z " fill="#000000" transform="translate(258,312)"/>
<path d="M0 0 C0.897 0.526 0.897 0.526 1.812 1.062 C1.461 8.982 -2.347 16.841 -8.188 22.25 C-11.592 24.307 -13.284 24.756 -17.188 24.062 C-19.062 22.938 -19.062 22.938 -20.188 21.062 C-21.089 16.216 -19.592 13.036 -16.953 9.094 C-13.433 5.044 -5.626 -2.411 0 0 Z " fill="#000000" transform="translate(115.1875,313.9375)"/>
<path d="M0 0 C0 1.32 0 2.64 0 4 C-1.29 4.193 -2.581 4.387 -3.91 4.586 C-5.628 4.849 -7.345 5.112 -9.062 5.375 C-9.91 5.501 -10.758 5.628 -11.631 5.758 C-16.56 6.519 -21.238 7.514 -26 9 C-26.495 6.525 -26.495 6.525 -27 4 C-18.072 -0.191 -9.752 -0.132 0 0 Z " fill="#000000" transform="translate(266,325)"/>
<path d="M0 0 C-0.33 1.65 -0.66 3.3 -1 5 C-1.811 5.242 -2.622 5.485 -3.457 5.734 C-10.729 7.935 -17.89 10.321 -25 13 C-25.66 11.68 -26.32 10.36 -27 9 C-18.444 3.243 -10.436 -0.201 0 0 Z " fill="#000000" transform="translate(272,334)"/>
<path d="M0 0 C0.66 1.32 1.32 2.64 2 4 C1.451 4.196 0.901 4.393 0.335 4.595 C-2.174 5.495 -4.681 6.404 -7.188 7.312 C-8.484 7.776 -8.484 7.776 -9.807 8.248 C-13.405 9.558 -16.676 10.805 -19.969 12.781 C-20.639 13.183 -21.309 13.586 -22 14 C-24.312 13.188 -24.312 13.188 -26 12 C-23.833 6.246 -18.285 4.428 -13 2 C-8.719 0.477 -4.561 -0.285 0 0 Z " fill="#000000" transform="translate(279,343)"/>
<path d="M0 0 C0.99 0.495 0.99 0.495 2 1 C0.462 4.416 -1.565 7.122 -3.875 10.062 C-10.187 18.316 -15.576 27.148 -21 36 C-21.895 37.458 -21.895 37.458 -22.808 38.946 C-34.369 57.854 -45.362 77.056 -55.03 97.007 C-56.042 99.085 -57.072 101.154 -58.102 103.223 C-68.13 123.615 -77.895 145.765 -83 168 C-84.98 168.33 -86.96 168.66 -89 169 C-88.731 168.193 -88.731 168.193 -88.456 167.37 C-87.118 163.36 -85.784 159.349 -84.457 155.336 C-69.952 111.524 -69.952 111.524 -60 91 C-59.639 90.245 -59.277 89.491 -58.905 88.713 C-56.992 84.735 -55.017 80.795 -52.977 76.88 C-51.96 74.923 -50.962 72.956 -49.965 70.988 C-36.827 45.332 -20.672 20.26 0 0 Z " fill="#000000" transform="translate(224,374)"/>
<path d="M0 0 C0.99 0 1.98 0 3 0 C0.993 5.915 -2.613 10.983 -5.924 16.23 C-8.716 20.715 -11.065 25.082 -13 30 C-13.66 30 -14.32 30 -15 30 C-15.447 24.821 -14.083 21.566 -11.438 17.25 C-11.078 16.645 -10.718 16.041 -10.347 15.417 C-3.137 3.447 -3.137 3.447 0 0 Z " fill="#000000" transform="translate(170,386)"/>
<path d="M0 0 C1.32 0.66 2.64 1.32 4 2 C3.802 3.798 3.802 3.798 3 6 C0.899 7.647 0.899 7.647 -1.84 9.234 C-3.31 10.095 -3.31 10.095 -4.811 10.973 C-5.842 11.559 -6.874 12.146 -7.938 12.75 C-8.966 13.352 -9.994 13.954 -11.053 14.574 C-18.695 19 -18.695 19 -21 19 C-21.33 17.68 -21.66 16.36 -22 15 C-16.16 11.064 -10.259 7.246 -4.285 3.516 C-1.93 2.063 -1.93 2.063 0 0 Z " fill="#000000" transform="translate(495,388)"/>
<path d="M0 0 C0.817 -0.072 1.635 -0.144 2.477 -0.219 C7.172 0.946 9.958 4.196 13.375 7.5 C14.166 8.249 14.958 8.999 15.773 9.771 C26.473 20.002 36.421 30.395 45.074 42.422 C47.025 45.512 47.025 45.512 49.375 46.5 C49.997 59.107 49.997 59.107 47.812 64 C41.482 70.493 34.59 75.037 26.812 79.625 C25.721 80.273 24.63 80.921 23.506 81.589 C16.145 85.933 8.733 90.181 1.25 94.312 C0.357 94.81 -0.536 95.307 -1.455 95.819 C-6.126 98.359 -10.443 100.285 -15.625 101.5 C-33.122 84.346 -60.331 54.013 -60.652 28.312 C-60.419 25.055 -59.939 22.895 -57.896 20.321 C-55.228 18.182 -53.799 17.908 -50.422 17.672 C-49.442 17.595 -48.462 17.517 -47.453 17.438 C-46.437 17.376 -45.422 17.314 -44.375 17.25 C-43.344 17.173 -42.312 17.095 -41.25 17.016 C-38.709 16.827 -36.168 16.656 -33.625 16.5 C-33.501 15.386 -33.377 14.272 -33.25 13.125 C-32.625 9.5 -32.625 9.5 -30.625 7.5 C-28 7.812 -28 7.812 -24.625 8.5 C-23.168 8.699 -21.71 8.886 -20.25 9.062 C-18.456 9.279 -18.456 9.279 -16.625 9.5 C-16.099 8.355 -16.099 8.355 -15.562 7.188 C-13.06 3.716 -10.59 2.942 -6.625 1.5 C-4.285 0.33 -2.61 0.162 0 0 Z M-1.312 8 C-4.473 10.05 -6.938 9.713 -10.625 9.5 C-10.625 11.48 -10.625 13.46 -10.625 15.5 C-11.801 15.686 -11.801 15.686 -13 15.875 C-15.766 16.291 -15.766 16.291 -17.625 18.5 C-21.157 18.179 -24.259 17.622 -27.625 16.5 C-27.625 18.48 -27.625 20.46 -27.625 22.5 C-28.231 22.549 -28.837 22.598 -29.461 22.648 C-35.623 23.198 -41.584 24.176 -47.625 25.5 C-43.239 37.197 -36.281 46.524 -28.122 55.77 C-25.412 58.902 -22.833 62.139 -20.25 65.375 C-19.762 65.981 -19.275 66.588 -18.772 67.213 C-15.578 71.213 -12.57 75.312 -9.625 79.5 C-5.943 77.886 -3.118 75.58 0 73.062 C12.42 63.294 26.361 55.714 40.375 48.5 C36.821 42.255 32.315 37.039 27.438 31.812 C26.853 31.183 26.268 30.554 25.666 29.906 C22.258 26.305 18.717 23.02 14.917 19.838 C12.984 18.161 11.328 16.337 9.688 14.375 C6.21 10.267 6.21 10.267 2.375 6.5 C0.248 6.279 0.248 6.279 -1.312 8 Z M-55.625 27.5 C-55.15 33.239 -53.993 37.741 -51.312 42.875 C-50.963 43.556 -50.614 44.236 -50.255 44.938 C-41.457 61.609 -29.771 77.127 -17.625 91.5 C-15.477 89.253 -15.477 89.253 -13.625 86.5 C-13.978 83.396 -15.123 81.561 -17.109 79.207 C-17.626 78.586 -18.143 77.964 -18.675 77.324 C-19.516 76.328 -19.516 76.328 -20.375 75.312 C-21.564 73.874 -22.752 72.434 -23.938 70.992 C-24.854 69.88 -24.854 69.88 -25.789 68.745 C-34.7 57.848 -42.699 46.758 -49.625 34.5 C-50.373 33.19 -51.122 31.88 -51.871 30.57 C-52.45 29.557 -53.029 28.544 -53.625 27.5 C-54.285 27.5 -54.945 27.5 -55.625 27.5 Z " fill="#000000" transform="translate(329.625,390.5)"/>
<path d="M0 0 C0.66 0 1.32 0 2 0 C1.382 5.998 0.224 11.628 -1.375 17.438 C-1.584 18.252 -1.793 19.066 -2.008 19.904 C-2.572 21.966 -3.276 23.989 -4 26 C-4.99 26.33 -5.98 26.66 -7 27 C-7.392 20.85 -6.003 15.932 -4.062 10.125 C-3.785 9.259 -3.507 8.392 -3.221 7.5 C-1.158 1.158 -1.158 1.158 0 0 Z " fill="#000000" transform="translate(254,394)"/>
<path d="M0 0 C1.65 0 3.3 0 5 0 C5.235 2.31 5.235 2.31 5 5 C3.427 6.637 3.427 6.637 1.238 8.043 C0.449 8.559 -0.341 9.076 -1.154 9.607 C-1.99 10.129 -2.826 10.65 -3.688 11.188 C-4.504 11.721 -5.321 12.254 -6.162 12.803 C-10.027 15.29 -13.684 17.38 -18 19 C-18.33 17.68 -18.66 16.36 -19 15 C-6.382 4 -6.382 4 -2 4 C-1.34 2.68 -0.68 1.36 0 0 Z " fill="#000000" transform="translate(499,401)"/>
<path d="M0 0 C0.66 0.33 1.32 0.66 2 1 C1.4 6.107 -0.311 10.44 -2.312 15.125 C-11.529 37.459 -18.756 60.866 -25.201 84.134 C-26.037 87.134 -26.901 90.125 -27.766 93.117 C-34.506 116.82 -38.438 141.014 -42.312 165.312 C-42.506 166.524 -42.506 166.524 -42.704 167.76 C-44.093 176.484 -45.386 185.18 -46 194 C-47.656 194.382 -49.325 194.714 -51 195 C-51.33 194.67 -51.66 194.34 -52 194 C-51.633 167.483 -45.878 138.794 -40 113 C-39.746 111.882 -39.492 110.764 -39.23 109.612 C-17.892 17.892 -17.892 17.892 0 0 Z " fill="#000000" transform="translate(233,405)"/>
<path d="M0 0 C0 1.32 0 2.64 0 4 C-0.69 4.307 -1.381 4.614 -2.092 4.93 C-5.252 6.341 -8.407 7.764 -11.562 9.188 C-12.649 9.67 -13.735 10.153 -14.854 10.65 C-19.547 12.776 -23.976 14.797 -28.09 17.926 C-29.05 18.61 -30.011 19.295 -31 20 C-31.99 19.67 -32.98 19.34 -34 19 C-33.522 14.699 -31.139 12.792 -28 10 C-25.598 8.679 -23.311 7.525 -20.812 6.438 C-20.154 6.142 -19.496 5.847 -18.817 5.543 C-16.884 4.682 -14.943 3.84 -13 3 C-11.978 2.548 -10.956 2.095 -9.902 1.629 C-3.407 -1.136 -3.407 -1.136 0 0 Z " fill="#000000" transform="translate(330,407)"/>
<path d="M0 0 C0.495 2.475 0.495 2.475 1 5 C-2.505 7.264 -5.759 8.682 -9.75 9.875 C-15.28 11.646 -21.784 13.784 -26 18 C-27.666 18.041 -29.334 18.043 -31 18 C-31.33 17.01 -31.66 16.02 -32 15 C-28.121 8.915 -22.36 6.872 -16 4 C-14.36 3.244 -14.36 3.244 -12.688 2.473 C-3.82 -1.45 -3.82 -1.45 0 0 Z " fill="#000000" transform="translate(338,417)"/>
<path d="M0 0 C0.99 0.33 1.98 0.66 3 1 C2.652 3.793 2.188 4.83 0.066 6.746 C-5.75 10.675 -11.625 14.057 -18 17 C-18.688 15.188 -18.688 15.188 -19 13 C-16.221 8.758 -10.298 7.391 -5.836 5.5 C-2.703 4.261 -2.703 4.261 -2 1 C-1.34 0.67 -0.68 0.34 0 0 Z " fill="#000000" transform="translate(505,415)"/>
<path d="M0 0 C0.495 2.475 0.495 2.475 1 5 C-0.111 5.519 -1.222 6.039 -2.367 6.574 C-16.999 13.191 -16.999 13.191 -31 21 C-31.99 19.68 -32.98 18.36 -34 17 C-30.499 12.327 -27.638 9.902 -22.25 7.375 C-21.634 7.084 -21.018 6.792 -20.383 6.492 C-18.594 5.65 -16.797 4.825 -15 4 C-14.108 3.56 -13.216 3.121 -12.297 2.668 C-8.026 0.612 -4.854 -0.498 0 0 Z " fill="#000000" transform="translate(347,427)"/>
<path d="M0 0 C0.99 0.33 1.98 0.66 3 1 C3 5 3 5 1.702 6.356 C1.106 6.748 0.509 7.139 -0.105 7.543 C-0.76 7.977 -1.414 8.411 -2.088 8.857 C-2.781 9.296 -3.474 9.735 -4.188 10.188 C-4.861 10.638 -5.535 11.089 -6.229 11.553 C-9.772 13.859 -12.698 15.574 -17 16 C-16.689 13.101 -16.093 12.088 -13.938 10.062 C-10.983 7.988 -7.971 6.088 -4.867 4.246 C-2.994 2.996 -1.533 1.643 0 0 Z " fill="#000000" transform="translate(509,428)"/>
<path d="M0 0 C2.691 1.384 3.099 2.348 4.188 5.125 C4.627 12.529 2.037 21.814 -2.789 27.422 C-4.812 29.125 -4.812 29.125 -7.375 29.562 C-10.28 29.041 -10.974 28.378 -12.812 26.125 C-14.921 20.065 -13.529 14.43 -11.184 8.66 C-8.67 4.013 -5.498 0.244 0 0 Z " fill="#000000" transform="translate(95.8125,430.875)"/>
<path d="M0 0 C4.211 0.494 6.016 1.532 8.75 4.75 C9.343 5.425 9.936 6.101 10.547 6.797 C12.162 9.246 12.704 11.095 13 14 C12.67 14.33 12.34 14.66 12 15 C5.899 14.823 -0.093 13.438 -6 12 C-5.543 6.973 -3.008 3.851 0 0 Z M3 7 C3 7.99 3 8.98 3 10 C3.66 10 4.32 10 5 10 C4.67 9.01 4.34 8.02 4 7 C3.67 7 3.34 7 3 7 Z " fill="#000000" transform="translate(653,434)"/>
<path d="M0 0 C0.33 1.98 0.66 3.96 1 6 C-0.051 6.496 -1.101 6.993 -2.184 7.504 C-9.479 11.015 -16.167 14.331 -22.203 19.848 C-24 21 -24 21 -26.109 20.934 C-28.542 19.732 -29.039 18.482 -30 16 C-24.288 10.837 -18.483 6.941 -11.625 3.5 C-10.935 3.15 -10.246 2.8 -9.535 2.439 C-6.047 0.743 -3.947 0 0 0 Z " fill="#000000" transform="translate(352,437)"/>
<path d="M0 0 C5.114 4.184 9.743 8.739 14.36 13.456 C18.339 17.468 22.562 20.954 27.137 24.281 C29.196 26.181 29.646 27.262 30 30 C29.01 30.66 28.02 31.32 27 32 C25.714 30.697 25.714 30.697 24.402 29.367 C17.549 22.315 17.549 22.315 10.188 15.812 C5.838 12.219 1.969 7.792 -1 3 C-0.67 2.01 -0.34 1.02 0 0 Z " fill="#000000" transform="translate(424,441)"/>
<path d="M0 0 C2.336 0.064 4.67 0.201 7 0.375 C8.279 0.465 9.558 0.555 10.875 0.648 C14 1 14 1 15 2 C15.44 10.95 15.44 10.95 13 14 C11.215 14.855 11.215 14.855 9 15 C6.676 13.305 6.676 13.305 4.312 10.875 C3.131 9.696 3.131 9.696 1.926 8.492 C-0.099 5.872 -0.756 4.275 -1 1 C-0.67 0.67 -0.34 0.34 0 0 Z M7 5 C7.99 5.99 8.98 6.98 10 8 C10 7.01 10 6.02 10 5 C9.01 5 8.02 5 7 5 Z " fill="#000000" transform="translate(686,454)"/>
<path d="M0 0 C2.463 2.463 2.998 4.707 4 8 C7.578 7.326 7.578 7.326 11 6.125 C11.99 6.063 11.99 6.063 13 6 C15.75 8.438 15.75 8.438 18 11 C19.114 10.34 20.227 9.68 21.375 9 C24.75 7 24.75 7 27 7 C27 7.99 27 8.98 27 10 C24.69 11.32 22.38 12.64 20 14 C20.3 14.615 20.601 15.23 20.91 15.863 C21.29 16.672 21.671 17.48 22.062 18.312 C22.637 19.513 22.637 19.513 23.223 20.738 C24 23 24 23 23 26 C20.747 27.239 18.61 28.266 16.25 29.25 C15.629 29.531 15.007 29.812 14.367 30.102 C10.52 31.741 7.981 32.42 4 31 C3.01 30.34 2.02 29.68 1 29 C-0.98 29.99 -0.98 29.99 -3 31 C-2.67 29.68 -2.34 28.36 -2 27 C-1.34 27 -0.68 27 0 27 C-0.384 26.252 -0.768 25.505 -1.164 24.734 C-1.887 23.257 -1.887 23.257 -2.625 21.75 C-3.112 20.775 -3.6 19.801 -4.102 18.797 C-5 16 -5 16 -4.398 13.703 C-3 12 -3 12 1 11 C0.67 7.37 0.34 3.74 0 0 Z M6 12 C6.66 13.65 7.32 15.3 8 17 C9.98 16.34 11.96 15.68 14 15 C13.505 12.525 13.505 12.525 13 10 C9.894 10 8.647 10.539 6 12 Z M-1 14 C0.25 17.653 0.671 18.781 4 21 C4.692 19.153 4.692 19.153 5 17 C4.34 16.01 3.68 15.02 3 14 C1.68 14 0.36 14 -1 14 Z M11.75 18.938 C10.884 19.958 10.884 19.958 10 21 C10.99 22.65 11.98 24.3 13 26 C15.31 25.34 17.62 24.68 20 24 C19.093 19.737 19.093 19.737 16.125 16.875 C13.775 16.798 13.775 16.798 11.75 18.938 Z M6 22 C6 23.32 6 24.64 6 26 C7.32 26.66 8.64 27.32 10 28 C9.494 25.831 9 24 8 22 C7.34 22 6.68 22 6 22 Z " fill="#000000" transform="translate(631,458)"/>
<path d="M0 0 C0 0.99 0 1.98 0 3 C-1.98 3.33 -3.96 3.66 -6 4 C-5.67 3.01 -5.34 2.02 -5 1 C-3 0 -3 0 0 0 Z " fill="#000000" transform="translate(660,473)"/>
<path d="M0 0 C3.598 2.045 6.673 4.31 9.812 7 C14.367 10.775 19.054 14.225 23.938 17.562 C24.615 18.027 25.293 18.491 25.992 18.969 C29.18 21.136 32.386 23.259 35.656 25.301 C36.739 25.985 37.822 26.67 38.938 27.375 C39.895 27.96 40.853 28.545 41.84 29.148 C44.416 31.357 44.732 32.677 45 36 C43.68 36.66 42.36 37.32 41 38 C40.533 37.659 40.067 37.317 39.586 36.965 C37.372 35.349 35.155 33.736 32.938 32.125 C32.123 31.533 31.308 30.941 30.469 30.331 C25.417 26.682 20.297 23.192 15.062 19.812 C8.404 15.492 2.676 10.546 -3 5 C-1.125 1.125 -1.125 1.125 0 0 Z " fill="#000000" transform="translate(465,476)"/>
<path d="M0 0 C0.66 0 1.32 0 2 0 C1.857 0.888 1.857 0.888 1.711 1.793 C1.058 6.444 0.655 9.723 3 14 C5.31 12.68 7.62 11.36 10 10 C10 14 10 14 8 16.25 C7.34 16.827 6.68 17.405 6 18 C6.66 18.99 7.32 19.98 8 21 C7.887 24.379 7.365 25.645 4.926 28.02 C3.632 28.907 3.632 28.907 2.312 29.812 C1.463 30.417 0.614 31.022 -0.262 31.645 C-3.409 33.203 -5.533 33.259 -9 33 C-10.319 30.753 -11.63 28.503 -12.938 26.25 C-13.311 25.616 -13.684 24.982 -14.068 24.328 C-17.459 18.463 -17.459 18.463 -18 15 C-15.052 9.524 -9.54 7.268 -4 5 C-3.34 5 -2.68 5 -2 5 C-1.856 4.361 -1.711 3.721 -1.562 3.062 C-1 1 -1 1 0 0 Z M-12 16 C-11.242 17.652 -10.468 19.296 -9.688 20.938 C-9.258 21.854 -8.829 22.771 -8.387 23.715 C-7.149 26.31 -7.149 26.31 -4 27 C-1.323 25.628 -1.323 25.628 1 24 C0.525 18.93 -2.044 15.025 -5 11 C-7.408 11 -10.246 14.507 -12 16 Z " fill="#000000" transform="translate(739,477)"/>
<path d="M0 0 C2.987 4.569 3.331 9.703 3 15 C-2.336 14.005 -6.072 10.49 -9.34 6.27 C-10.271 4.875 -11.142 3.441 -12 2 C-8.709 -1.291 -4.288 -1.671 0 0 Z M-6 3 C-4.951 5.622 -4.351 6.794 -1.875 8.25 C-1.256 8.498 -0.638 8.745 0 9 C-0.66 6.69 -1.32 4.38 -2 2 C-4.075 1.851 -4.075 1.851 -6 3 Z " fill="#000000" transform="translate(587,479)"/>
<path d="M0 0 C0.33 0.66 0.66 1.32 1 2 C0.379 3.59 -0.327 5.147 -1.062 6.688 C-3.667 12.725 -5.463 18.83 -7.125 25.188 C-7.366 26.094 -7.607 27 -7.856 27.934 C-11.994 44.125 -13.957 60.598 -15.688 77.188 C-15.798 78.235 -15.909 79.282 -16.023 80.361 C-19.458 108.747 -19.458 108.747 -17 137 C-20.75 140 -20.75 140 -23 140 C-23.077 132.322 -23.129 124.644 -23.165 116.965 C-23.18 114.365 -23.2 111.764 -23.226 109.164 C-23.44 87.429 -22.156 66.337 -17.188 45.125 C-16.929 44.001 -16.67 42.878 -16.404 41.72 C-12.822 26.563 -8.357 13.192 0 0 Z " fill="#000000" transform="translate(289,481)"/>
<path d="M0 0 C8.218 3.61 14.145 9.818 19.969 16.517 C27.629 25.277 36.68 31.87 46.127 38.602 C48 40 48 40 50 42 C50.869 50.111 48.73 56.471 43.742 62.918 C32.205 76.279 15.201 92.025 -1 99 C-5.917 98.874 -7.68 96.372 -11 93 C-13.066 91.162 -15.188 89.394 -17.312 87.625 C-18.473 86.65 -19.633 85.675 -20.793 84.699 C-21.348 84.233 -21.903 83.767 -22.474 83.287 C-25.006 81.151 -27.509 78.985 -29.984 76.785 C-31.501 75.442 -33.035 74.12 -34.578 72.809 C-44.839 63.88 -57.026 51.71 -58.312 37.562 C-58 34 -58 34 -56.688 31.25 C-51.512 26.917 -44.641 25.771 -38 26 C-38 24.02 -38 22.04 -38 20 C-36.188 19.312 -36.188 19.312 -34 19 C-32.25 20.438 -32.25 20.438 -31 22 C-31.062 20.969 -31.124 19.938 -31.188 18.875 C-30.934 16.938 -30.934 16.938 -30 15 C-27.351 13.16 -24.62 11.812 -21.719 10.406 C-18.51 8.747 -16.471 6.608 -14 4 C-9.493 0.625 -5.663 -0.721 0 0 Z M-14.191 13.086 C-17.104 16.169 -19.887 16.423 -24 17 C-23.832 17.626 -23.665 18.253 -23.492 18.898 C-23.289 19.716 -23.085 20.533 -22.875 21.375 C-22.666 22.187 -22.457 22.999 -22.242 23.836 C-22.162 24.55 -22.082 25.264 -22 26 C-22.66 26.66 -23.32 27.32 -24 28 C-24 29.32 -24 30.64 -24 32 C-19.658 30.51 -16.182 28.174 -12.5 25.5 C-8.818 22.826 -5.342 20.49 -1 19 C-0.726 21.289 -0.726 21.289 -1 24 C-2.833 25.773 -2.833 25.773 -5.383 27.375 C-6.303 27.968 -7.224 28.561 -8.172 29.172 C-9.634 30.077 -9.634 30.077 -11.125 31 C-13.025 32.205 -14.924 33.413 -16.82 34.625 C-18.169 35.481 -18.169 35.481 -19.545 36.355 C-21.677 37.784 -23.6 39.265 -25.531 40.949 C-28 43 -28 43 -30.375 42.812 C-30.911 42.544 -31.447 42.276 -32 42 C-30.557 38.634 -28.667 36.49 -26 34 C-28.31 32.35 -30.62 30.7 -33 29 C-33.33 29.66 -33.66 30.32 -34 31 C-36.332 31.629 -38.693 32.155 -41.062 32.625 C-42.998 33.016 -42.998 33.016 -44.973 33.414 C-45.972 33.607 -46.971 33.801 -48 34 C-46.046 37.496 -44.004 40.222 -41.125 43 C-40.139 43.959 -40.139 43.959 -39.133 44.938 C-38.077 45.958 -38.077 45.958 -37 47 C-35.861 48.149 -35.861 48.149 -34.699 49.32 C-31.423 52.573 -28.065 55.728 -24.688 58.875 C-23.687 59.809 -23.687 59.809 -22.666 60.762 C-18.768 64.389 -14.823 67.941 -10.777 71.402 C-7.932 73.96 -5.302 76.727 -2.664 79.496 C-1.127 81.224 -1.127 81.224 1 81 C2.609 79.22 2.609 79.22 4.25 76.938 C12.293 66.341 21.393 58.394 31.808 50.175 C32.435 49.679 33.061 49.183 33.707 48.672 C34.269 48.229 34.831 47.787 35.409 47.331 C37.037 45.969 38.522 44.522 40 43 C39.432 42.648 38.863 42.296 38.277 41.934 C33.4 38.815 29.323 35.594 25.41 31.32 C24.079 29.772 24.079 29.772 22 30 C21.606 29.119 21.606 29.119 21.204 28.221 C19.941 25.892 18.6 24.341 16.734 22.469 C16.091 21.823 15.448 21.177 14.785 20.512 C14.114 19.848 13.442 19.184 12.75 18.5 C12.094 17.836 11.438 17.172 10.762 16.488 C3.999 9.37 3.999 9.37 -4.938 6.25 C-9.755 6.451 -11.434 9.482 -14.191 13.086 Z M-52 39 C-50.175 54.765 -31.225 68.568 -19.893 78.357 C-17.045 80.829 -14.272 83.381 -11.5 85.938 C-10.964 86.431 -10.428 86.924 -9.875 87.432 C-8.583 88.62 -7.291 89.81 -6 91 C-3.5 88.826 -2.564 87.27 -2 84 C-2.666 83.466 -3.333 82.933 -4.02 82.383 C-10.008 77.542 -15.775 72.552 -21.445 67.34 C-23.627 65.342 -25.83 63.379 -28.062 61.438 C-28.694 60.886 -29.326 60.334 -29.977 59.766 C-31.448 58.482 -32.922 57.201 -34.398 55.922 C-39.758 51.205 -44.61 46.269 -49.285 40.871 C-50.134 39.945 -50.134 39.945 -51 39 C-51.33 39 -51.66 39 -52 39 Z " fill="#000000" transform="translate(414,486)"/>
<path d="M0 0 C2.229 -0.054 4.458 -0.093 6.688 -0.125 C8.55 -0.16 8.55 -0.16 10.449 -0.195 C13.812 -0.01 15.999 0.542 19 2 C19 2.99 19 3.98 19 5 C17.035 6.384 15.03 7.712 13 9 C12.299 9.763 11.597 10.526 10.875 11.312 C9.947 12.148 9.947 12.148 9 13 C6.508 12.755 5.314 12.307 3.516 10.547 C3.098 9.954 2.68 9.361 2.25 8.75 C1.822 8.167 1.394 7.585 0.953 6.984 C-0.223 4.536 -0.167 2.683 0 0 Z M6 4 C6.33 4.99 6.66 5.98 7 7 C8.65 6.34 10.3 5.68 12 5 C12 4.67 12 4.34 12 4 C10.02 4 8.04 4 6 4 Z " fill="#000000" transform="translate(665,487)"/>
<path d="M0 0 C0.99 0.33 1.98 0.66 3 1 C4.537 10.837 5.608 20.652 6.433 30.57 C6.627 32.894 6.829 35.216 7.031 37.539 C7.159 39.044 7.287 40.549 7.414 42.055 C7.473 42.735 7.533 43.415 7.594 44.116 C7.974 48.764 8.049 53.342 8 58 C5.525 58.495 5.525 58.495 3 59 C2.568 52.366 2.141 45.731 1.718 39.096 C1.574 36.843 1.429 34.59 1.282 32.338 C1.07 29.083 0.863 25.829 0.656 22.574 C0.591 21.581 0.525 20.588 0.457 19.565 C0.049 13.034 -0.075 6.542 0 0 Z " fill="#000000" transform="translate(340,490)"/>
<path d="M0 0 C0.66 0.33 1.32 0.66 2 1 C1.458 8.237 0.484 15.252 -0.875 22.375 C-9.622 71.081 -16.119 141.294 3 188 C2.625 190.812 2.625 190.812 2 193 C0.68 193.33 -0.64 193.66 -2 194 C-3.431 189.171 -4.637 184.34 -5.656 179.406 C-5.804 178.697 -5.952 177.988 -6.104 177.257 C-6.415 175.762 -6.724 174.266 -7.032 172.77 C-7.493 170.533 -7.963 168.298 -8.434 166.062 C-12.937 144.422 -14.211 123.167 -14.188 101.125 C-14.187 100.077 -14.186 99.029 -14.186 97.95 C-14.162 82.874 -13.975 67.968 -12 53 C-11.871 51.979 -11.742 50.957 -11.609 49.905 C-6.393 9.589 -6.393 9.589 0 0 Z " fill="#000000" transform="translate(324,491)"/>
<path d="M0 0 C4.667 -0.472 7.67 1.177 11.625 3.375 C20.159 7.892 29.079 11.152 38.155 14.41 C45.535 17.06 52.791 19.913 60 23 C59.505 25.475 59.505 25.475 59 28 C54.671 29.443 51.889 27.424 47.938 25.625 C39.946 22.098 31.851 19.188 23.562 16.438 C14.713 13.477 6.663 10.441 -1 5 C-0.67 3.35 -0.34 1.7 0 0 Z " fill="#000000" transform="translate(521,515)"/>
<path d="M0 0 C-0.199 1.812 -0.199 1.812 -1 4 C-3.145 5.562 -3.145 5.562 -5.812 7 C-9.475 8.991 -12.071 11.052 -15 14 C-15.66 14 -16.32 14 -17 14 C-17.248 14.619 -17.495 15.237 -17.75 15.875 C-19.206 18.351 -20.378 18.951 -23 20 C-23.66 19.34 -24.32 18.68 -25 18 C-24.871 14.719 -24.332 13.342 -22.031 10.973 C-19.367 8.962 -16.702 6.959 -14 5 C-12.768 4.068 -12.768 4.068 -11.512 3.117 C-5.13 -1.495 -5.13 -1.495 0 0 Z " fill="#000000" transform="translate(419,517)"/>
<path d="M0 0 C-0.125 2.25 -0.125 2.25 -1 5 C-2.408 5.974 -3.823 6.94 -5.271 7.854 C-8.299 9.861 -10.999 12.26 -13.75 14.625 C-14.326 15.115 -14.902 15.605 -15.496 16.109 C-17.731 18.016 -19.922 19.922 -22 22 C-24.062 21.75 -24.062 21.75 -26 21 C-26.33 20.34 -26.66 19.68 -27 19 C-26.01 17.515 -26.01 17.515 -25 16 C-24.34 16 -23.68 16 -23 16 C-22.665 15.149 -22.665 15.149 -22.324 14.281 C-18.932 8.438 -7.055 -2.352 0 0 Z " fill="#000000" transform="translate(430,525)"/>
<path d="M0 0 C-0.384 2.4 -0.687 3.696 -2.455 5.413 C-3.069 5.837 -3.684 6.262 -4.316 6.699 C-4.995 7.182 -5.674 7.665 -6.373 8.163 C-7.096 8.666 -7.818 9.169 -8.562 9.688 C-14.854 14.212 -20.248 18.81 -25 25 C-25.99 24.34 -26.98 23.68 -28 23 C-27.58 17.943 -26.476 15.893 -22.625 12.625 C-21.283 11.484 -21.283 11.484 -19.914 10.32 C-5.05 -1.515 -5.05 -1.515 0 0 Z " fill="#000000" transform="translate(439,532)"/>
<path d="M0 0 C1.93 3.104 2.098 4.717 1.438 8.312 C-1.202 11.438 -3.399 13.933 -7.523 14.656 C-15.677 15.184 -20.944 11.771 -27.562 7.312 C-27.208 4.692 -26.879 2.766 -25.352 0.578 C-19 -3.915 -6.512 -4.289 0 0 Z " fill="#000000" transform="translate(619.5625,539.6875)"/>
<path d="M0 0 C0.775 24.287 0.775 24.287 -6 32 C-9.5 33.312 -9.5 33.312 -13 33 C-15.663 30.951 -16.735 29.368 -17.379 26.047 C-17.85 17.595 -14.833 9.745 -9.375 3.375 C-6.118 -0.11 -4.712 -1.414 0 0 Z " fill="#000000" transform="translate(140,553)"/>
<path d="M0 0 C4.065 2.36 7.853 5.119 11.578 7.98 C16.25 10.738 21.046 12.052 26.25 13.5 C27.305 13.803 28.361 14.107 29.448 14.419 C36.776 16.489 44.137 18.276 51.642 19.582 C56.639 20.544 56.639 20.544 58.422 22.797 C60.758 31.698 60.229 38.776 56 47 C50.555 55.957 43.234 63.485 36 71 C35.451 71.576 34.902 72.153 34.336 72.747 C16.748 91.147 16.748 91.147 6 92 C4.177 90.856 2.358 89.704 0.563 88.517 C-5.473 84.944 -12.229 82.537 -18.717 79.883 C-35.194 73.116 -54.244 62.341 -63 46 C-63.355 43.402 -63.355 43.402 -63 41 C-61.405 39.608 -59.796 38.23 -58.125 36.93 C-55.51 34.555 -53.622 31.931 -51.562 29.062 C-47.386 23.323 -42.942 17.314 -36 15 C-34.501 14.932 -33 14.915 -31.5 14.938 C-30.34 14.951 -30.34 14.951 -29.156 14.965 C-28.445 14.976 -27.733 14.988 -27 15 C-26.01 15 -25.02 15 -24 15 C-23.977 14.283 -23.954 13.567 -23.93 12.828 C-22.55 8.63 -19.704 7.136 -16.125 4.75 C-15.168 4.081 -15.168 4.081 -14.191 3.398 C-9.051 -0.143 -6.125 -1.701 0 0 Z M-19 14 C-16.801 17.307 -16.801 17.307 -14 20 C-10.299 19.936 -10.299 19.936 -7 19 C-6 20 -6 20 -5.625 22.332 C-6 25 -6 25 -8.188 26.949 C-9.116 27.523 -10.044 28.096 -11 28.688 C-12.694 29.749 -14.369 30.844 -16 32 C-16 32.66 -16 33.32 -16 34 C-16.897 34.402 -16.897 34.402 -17.812 34.812 C-19.972 35.985 -21.358 37.194 -23 39 C-24.32 38.34 -25.64 37.68 -27 37 C-25.6 32.545 -23.356 30.183 -20 27 C-19.67 26.34 -19.34 25.68 -19 25 C-27.886 22.005 -27.886 22.005 -37 23 C-39.625 24.954 -39.625 24.954 -42 28 C-42.688 28.82 -43.377 29.64 -44.086 30.484 C-48.208 34.752 -48.208 34.752 -50 40 C-50.99 40.495 -50.99 40.495 -52 41 C-44.231 45.114 -36.344 48.893 -28.27 52.367 C-27.58 52.665 -26.891 52.962 -26.18 53.268 C-22.697 54.768 -19.209 56.254 -15.713 57.723 C-7.854 61.069 -0.753 64.789 6.322 69.594 C8.831 71.209 8.831 71.209 11.262 70.849 C13.887 69.567 14.693 67.703 16.125 65.188 C20.144 58.546 24.926 52.847 30 47 C30.93 45.919 30.93 45.919 31.879 44.816 C35.873 40.211 39.974 35.703 44.082 31.199 C46.125 28.952 46.125 28.952 48 26 C46.851 25.758 45.703 25.515 44.52 25.266 C12.766 18.46 12.766 18.46 1.043 8.488 C-6.094 3.289 -12.718 9.966 -19 14 Z M-54 47 C-48.16 61.226 -28.421 69.016 -15.383 74.969 C-10.181 77.351 -5.086 79.942 -0.001 82.562 C3.329 84.388 3.329 84.388 7 85 C7.33 82.69 7.66 80.38 8 78 C-5.607 68.611 -20.257 61.984 -35.4 55.468 C-40.653 53.195 -45.751 50.689 -50.84 48.066 C-52.748 46.926 -52.748 46.926 -54 47 Z " fill="#000000" transform="translate(532,558)"/>
<path d="M0 0 C0.33 0 0.66 0 1 0 C1.339 3.354 1.67 6.708 2 10.062 C2.095 11.005 2.191 11.948 2.289 12.92 C2.782 17.975 3.113 22.921 3 28 C2.01 27.67 1.02 27.34 0 27 C-1.013 23.962 -1.129 21.888 -1.133 18.711 C-1.134 17.687 -1.135 16.664 -1.137 15.609 C-1.133 14.542 -1.129 13.475 -1.125 12.375 C-1.129 11.3 -1.133 10.225 -1.137 9.117 C-1.135 7.586 -1.135 7.586 -1.133 6.023 C-1.132 5.084 -1.131 4.145 -1.129 3.177 C-1 1 -1 1 0 0 Z " fill="#000000" transform="translate(332,558)"/>
<path d="M0 0 C3.055 1.441 4.794 2.783 7.301 4.965 C12.486 9.042 17.429 10.384 23.812 11.688 C24.905 11.931 25.997 12.175 27.123 12.427 C33.517 13.834 39.941 15.075 46.373 16.301 C47.363 16.49 48.354 16.68 49.375 16.875 C50.371 17.065 51.367 17.255 52.393 17.451 C61.615 19.283 70.642 21.705 79.688 24.25 C80.398 24.448 81.109 24.647 81.841 24.851 C83.862 25.418 85.881 25.994 87.898 26.574 C89.064 26.909 90.23 27.244 91.431 27.589 C94.312 28.562 94.312 28.562 97.312 30.562 C99.419 37.495 97.97 44.023 95.312 50.562 C94.799 51.461 94.286 52.359 93.758 53.285 C91.905 57.486 91.719 61.211 91.438 65.75 C88.968 94.843 75.037 120.766 62.312 146.562 C61.653 146.232 60.993 145.903 60.312 145.562 C60.604 144.874 60.895 144.186 61.195 143.477 C61.605 142.509 62.015 141.541 62.438 140.543 C62.893 139.467 63.349 138.391 63.818 137.282 C64.822 134.91 65.825 132.538 66.827 130.165 C69.087 124.815 71.349 119.466 73.648 114.133 C80.689 97.753 86.555 81.435 88.312 63.562 C88.643 62.903 88.972 62.242 89.312 61.562 C88.653 61.562 87.993 61.562 87.312 61.562 C86.997 62.585 86.997 62.585 86.676 63.629 C84.873 67.508 82.328 70.323 79.5 73.5 C77.932 75.289 76.366 77.078 74.806 78.874 C73.446 80.412 72.03 81.9 70.609 83.383 C67.599 87.55 66.599 91.561 65.375 96.5 C60.182 115.895 51.482 133.073 41.688 150.5 C41.149 151.459 40.611 152.418 40.056 153.406 C36.71 159.297 33.156 164.983 29.312 170.562 C28.312 167.562 28.312 167.562 29.449 164.981 C30.032 163.961 30.614 162.942 31.215 161.891 C31.854 160.759 32.493 159.627 33.152 158.461 C33.495 157.865 33.838 157.269 34.191 156.655 C35.255 154.804 36.306 152.946 37.354 151.086 C38.725 148.652 40.101 146.22 41.48 143.791 C50.575 127.764 58.444 111.403 63.312 93.562 C62.982 93.232 62.653 92.903 62.312 92.562 C61.562 93.287 60.812 94.011 60.039 94.758 C45.356 108.722 45.356 108.722 36.562 110.188 C32.636 109.432 30.598 107.837 27.312 105.562 C23.696 104.08 20.019 102.802 16.312 101.562 C16.31 102.22 16.307 102.877 16.305 103.555 C15.743 117.382 10.16 130.034 4.688 142.562 C4.316 143.429 3.944 144.296 3.561 145.189 C3.198 145.993 2.835 146.797 2.461 147.625 C2.143 148.338 1.825 149.051 1.498 149.785 C0.057 151.946 -1.31 152.602 -3.688 153.562 C-3.411 152.889 -3.134 152.215 -2.849 151.521 C7.661 126.241 7.661 126.241 13.312 99.562 C12.784 99.462 12.255 99.361 11.709 99.257 C4.075 97.768 -3.511 96.075 -11.089 94.323 C-12.56 93.985 -14.031 93.652 -15.503 93.323 C-23.679 91.496 -31.628 89.411 -39.484 86.48 C-40.142 86.236 -40.799 85.991 -41.476 85.738 C-50.775 82.13 -57.649 76.011 -62.5 67.312 C-63.688 64.562 -63.688 64.562 -64.688 61.562 C-63.09 59.023 -63.09 59.023 -60.625 55.938 C-59.956 55.096 -59.956 55.096 -59.273 54.237 C-57.755 52.337 -56.221 50.45 -54.688 48.562 C-53.554 47.146 -52.422 45.729 -51.289 44.312 C-42.267 33.107 -33.057 22.832 -21.473 14.207 C-16.985 10.86 -12.876 7.216 -8.809 3.375 C-5.804 0.807 -3.985 -0.649 0 0 Z M-5.43 8.215 C-6.485 9.346 -6.485 9.346 -7.562 10.5 C-11.041 14.068 -14.604 17.12 -18.625 20.062 C-28.755 27.496 -36.9 35.717 -44.688 45.562 C-45.186 46.19 -45.684 46.818 -46.197 47.465 C-49.379 51.483 -52.54 55.517 -55.688 59.562 C-52.52 61.317 -49.496 62.199 -45.973 63.008 C-44.826 63.276 -43.679 63.544 -42.497 63.821 C-41.261 64.107 -40.024 64.393 -38.75 64.688 C-12.389 70.93 13.24 78.271 38.312 88.562 C38.967 87.786 39.622 87.01 40.297 86.211 C42.76 83.295 45.227 80.382 47.695 77.471 C48.764 76.21 49.832 74.948 50.898 73.686 C61.248 61.443 61.248 61.443 66.754 56.109 C73.788 49.128 79.928 41.136 86.312 33.562 C85.515 31.407 85.515 31.407 83.5 30.864 C82.311 30.55 82.311 30.55 81.098 30.23 C80.197 29.992 79.297 29.754 78.37 29.508 C77.382 29.258 76.393 29.008 75.375 28.75 C74.347 28.486 73.32 28.221 72.261 27.949 C64.719 26.056 57.143 24.487 49.5 23.062 C40.366 21.357 31.261 19.567 22.188 17.562 C21.115 17.338 20.043 17.113 18.938 16.881 C11.396 15.178 6.035 12.403 -0.062 7.75 C-2.515 5.958 -3.233 6.131 -5.43 8.215 Z M-58.688 65.562 C-56.41 72.418 -51.346 75.5 -45.234 78.945 C-35.977 83.249 -25.847 84.857 -15.913 86.899 C13.818 93.016 13.818 93.016 26.434 99.242 C29.239 100.771 29.239 100.771 32.312 100.562 C33.303 97.592 34.293 94.622 35.312 91.562 C24.978 87.242 14.537 84.235 3.675 81.532 C-8.169 78.538 -19.81 74.943 -31.466 71.294 C-44.804 66.802 -44.804 66.802 -58.688 65.562 Z " fill="#000000" transform="translate(679.6875,557.4375)"/>
<path d="M0 0 C0.99 0 1.98 0 3 0 C2.939 0.949 2.879 1.898 2.816 2.875 C2.027 15.576 1.499 28.285 1 41 C0.01 41 -0.98 41 -2 41 C-6.154 28.537 -2.202 12.554 0 0 Z " fill="#000000" transform="translate(227,560)"/>
<path d="M0 0 C1.32 0 2.64 0 4 0 C4.183 0.741 4.367 1.481 4.556 2.244 C6.288 9.234 8.024 16.222 9.764 23.21 C10.658 26.802 11.551 30.395 12.44 33.988 C13.3 37.458 14.162 40.926 15.028 44.395 C15.356 45.716 15.684 47.038 16.011 48.36 C16.469 50.215 16.932 52.07 17.396 53.925 C17.658 54.979 17.92 56.034 18.19 57.121 C18.944 60.013 18.944 60.013 20.124 62.735 C21.124 65.32 20.947 66.444 20 69 C17.525 69.495 17.525 69.495 15 70 C10.644 56.589 6.915 43.081 3.625 29.375 C3.45 28.648 3.276 27.921 3.096 27.171 C-1.265 8.96 -1.265 8.96 -1 1 C-0.67 0.67 -0.34 0.34 0 0 Z " fill="#000000" transform="translate(347,560)"/>
<path d="M0 0 C1.125 4.75 1.125 4.75 0 7 C-1.021 7.588 -1.021 7.588 -2.062 8.188 C-8.374 12.082 -13.458 17.18 -18 23 C-19.938 22.188 -19.938 22.188 -22 21 C-22.33 20.01 -22.66 19.02 -23 18 C-20.024 12.435 -15.56 8.295 -11 4 C-10.134 3.175 -9.268 2.35 -8.375 1.5 C-5.41 -0.372 -3.442 -0.32 0 0 Z " fill="#000000" transform="translate(539,581)"/>
<path d="M0 0 C0.577 0.219 1.155 0.438 1.75 0.664 C1.75 1.984 1.75 3.304 1.75 4.664 C0.281 6.121 0.281 6.121 -1.75 7.477 C-9.139 12.695 -14.904 17.62 -19.25 25.664 C-20.57 25.334 -21.89 25.004 -23.25 24.664 C-23.25 19.773 -22.283 19.163 -19 15.727 C-16.632 13.223 -14.333 10.769 -12.203 8.059 C-10.353 5.791 -8.563 4.069 -6.25 2.289 C-5.59 1.766 -4.93 1.242 -4.25 0.703 C-2.25 -0.336 -2.25 -0.336 0 0 Z " fill="#000000" transform="translate(680.25,581.3359375)"/>
<path d="M0 0 C0.66 0 1.32 0 2 0 C2.219 0.839 2.438 1.678 2.664 2.543 C3.76 6.7 4.875 10.851 6 15 C6.321 16.188 6.321 16.188 6.649 17.401 C17.729 58.065 33.377 109.377 64 140 C63.625 142.625 63.625 142.625 63 145 C61.68 145 60.36 145 59 145 C57.265 143.048 55.874 141.221 54.438 139.062 C54.007 138.436 53.576 137.809 53.133 137.163 C51.739 135.119 50.368 133.061 49 131 C48.546 130.326 48.093 129.653 47.625 128.958 C30.974 104.186 19.662 78.187 10 50 C9.699 49.125 9.399 48.251 9.089 47.35 C3.921 32.151 -1.166 16.224 0 0 Z " fill="#000000" transform="translate(425,582)"/>
<path d="M0 0 C0.706 0.244 1.413 0.487 2.141 0.738 C1.908 4.068 0.958 4.906 -1.555 7.219 C-2.693 8.128 -3.836 9.03 -4.984 9.926 C-10.444 14.34 -14.892 18.896 -18.859 24.738 C-20.179 24.408 -21.499 24.078 -22.859 23.738 C-23.59 21.535 -23.59 21.535 -23.859 18.738 C-20.043 12.525 -7.967 -0.729 0 0 Z " fill="#000000" transform="translate(551.859375,585.26171875)"/>
<path d="M0 0 C0.701 0.247 1.403 0.495 2.125 0.75 C0.597 4.822 -1.936 6.483 -5.438 8.938 C-14.96 15.656 -14.96 15.656 -21.875 24.75 C-23.195 24.42 -24.515 24.09 -25.875 23.75 C-25.875 18.799 -22.206 16.17 -18.875 12.75 C-5.137 -0.447 -5.137 -0.447 0 0 Z " fill="#000000" transform="translate(695.875,587.25)"/>
<path d="M0 0 C0.33 1.32 0.66 2.64 1 4 C0.264 4.568 -0.472 5.137 -1.23 5.723 C-8.923 11.81 -13.843 17.029 -18 26 C-21.875 25.125 -21.875 25.125 -23 24 C-23.513 20.994 -23.467 18.848 -21.977 16.141 C-8.177 -2.92 -8.177 -2.92 0 0 Z " fill="#000000" transform="translate(565,589)"/>
<path d="M0 0 C-1.537 4.116 -4.177 5.864 -7.688 8.375 C-8.778 9.172 -9.868 9.97 -10.957 10.77 C-12.463 11.874 -12.463 11.874 -14 13 C-19.301 17.06 -23.196 21.51 -27 27 C-27.99 26.67 -28.98 26.34 -30 26 C-30.33 25.01 -30.66 24.02 -31 23 C-27.804 16.849 -22.296 12.293 -17 8 C-16.121 7.281 -15.242 6.561 -14.336 5.82 C-5.531 -1.31 -5.531 -1.31 0 0 Z " fill="#000000" transform="translate(715,593)"/>
<path d="M0 0 C1.675 0.286 3.344 0.618 5 1 C4.64 3.852 4.11 4.894 2.004 6.922 C1.198 7.525 0.393 8.128 -0.438 8.75 C-1.642 9.67 -1.642 9.67 -2.871 10.609 C-5 12 -5 12 -7 12 C-7.33 12.99 -7.66 13.98 -8 15 C-12.318 19.773 -12.318 19.773 -16 21 C-16.433 22.237 -16.433 22.237 -16.875 23.5 C-17.246 24.325 -17.617 25.15 -18 26 C-20.625 26.812 -20.625 26.812 -23 27 C-23.723 25.316 -23.723 25.316 -24 23 C-18.631 13.616 -9.492 7.322 -1 1 C-0.67 0.67 -0.34 0.34 0 0 Z " fill="#000000" transform="translate(725,596)"/>
<path d="M0 0 C1.114 0.34 1.114 0.34 2.25 0.688 C2.25 2.008 2.25 3.327 2.25 4.688 C0.816 6.109 0.816 6.109 -1.188 7.438 C-10.114 13.751 -16.624 20.607 -22.75 29.688 C-24.07 29.028 -25.39 28.367 -26.75 27.688 C-25.536 17.299 -14.347 8.985 -6.75 2.688 C-6.05 2.104 -5.35 1.52 -4.629 0.918 C-2.75 -0.312 -2.75 -0.312 0 0 Z " fill="#000000" transform="translate(742.75,600.3125)"/>
<path d="M0 0 C2.188 -0.375 2.188 -0.375 5 0 C10.331 5.207 12.222 10.26 12.329 17.812 C12.324 18.493 12.318 19.174 12.312 19.875 C12.308 20.581 12.303 21.287 12.298 22.014 C12.176 27.405 11.663 31.316 9 36 C6.128 38.562 4.779 39.016 0.938 38.938 C-2.439 37.86 -3.847 36.791 -6 34 C-8.944 24.72 -6.872 13.28 -2.91 4.617 C-2.011 3.036 -1.017 1.508 0 0 Z " fill="#000000" transform="translate(178,611)"/>
<path d="M0 0 C4.488 1.861 5.849 5.433 7.699 9.66 C9.726 14.83 11.461 19.449 10.562 25.062 C9 28.062 9 28.062 6.562 30.062 C3.062 30.25 3.062 30.25 -0.438 29.062 C-5.295 23.31 -5.635 18.288 -5.688 11 C-5.708 10.28 -5.729 9.56 -5.75 8.818 C-5.789 3.576 -5.789 3.576 -4.074 1.07 C-2.438 0.062 -2.438 0.062 0 0 Z " fill="#000000" transform="translate(273.4375,631.9375)"/>
<path d="M0 0 C6.556 3.002 11.273 10.539 14.039 16.934 C14.685 19.958 14.45 21.752 14.039 24.934 C11.852 27.496 11.852 27.496 9.039 28.934 C5.024 29.037 2.41 27.15 -0.543 24.516 C-5.345 19.158 -7.61 11.649 -8.273 4.621 C-8.17 3.734 -8.067 2.847 -7.961 1.934 C-4.934 -0.085 -3.563 -0.614 0 0 Z " fill="#000000" transform="translate(375.9609375,638.06640625)"/>
<path d="M0 0 C0.66 0 1.32 0 2 0 C2.255 0.88 2.255 0.88 2.516 1.778 C5.989 13.672 9.642 25.375 14.422 36.819 C16.736 42.552 17.695 47.828 18 54 C16.515 54.495 16.515 54.495 15 55 C8.562 42.279 4.873 29.219 1.688 15.375 C1.516 14.641 1.344 13.908 1.167 13.152 C0.181 8.666 -0.163 4.592 0 0 Z " fill="#000000" transform="translate(410,643)"/>
<path d="M0 0 C2 1 2 1 2.686 2.949 C2.885 3.782 3.084 4.615 3.289 5.473 C3.618 6.821 3.618 6.821 3.953 8.197 C4.175 9.143 4.397 10.088 4.625 11.062 C4.854 12.012 5.084 12.961 5.32 13.939 C5.888 16.291 6.447 18.645 7 21 C5.68 21.33 4.36 21.66 3 22 C2.3 19.274 1.614 16.545 0.938 13.812 C0.738 13.044 0.539 12.275 0.334 11.482 C-0.682 7.331 -1.337 4.197 0 0 Z " fill="#000000" transform="translate(510,651)"/>
<path d="M0 0 C0.66 0 1.32 0 2 0 C2.21 0.821 2.21 0.821 2.424 1.658 C10.849 34.09 28.018 60.862 51 85 C51.614 85.655 52.227 86.31 52.859 86.984 C57.356 91.653 62.345 95.676 67.406 99.714 C69.079 101.064 70.728 102.44 72.375 103.82 C82.02 111.824 92.284 118.517 103 125 C102.67 125.66 102.34 126.32 102 127 C97.323 126.408 93.603 124.418 89.562 122.125 C88.862 121.729 88.161 121.332 87.439 120.924 C80.659 116.979 74.605 112.318 68.584 107.312 C67.105 106.087 65.606 104.886 64.105 103.688 C57.117 98.088 50.523 92.127 44 86 C43.303 85.368 42.605 84.737 41.887 84.086 C31.322 74.156 23.288 61.425 16 49 C15.395 48.028 14.791 47.056 14.168 46.055 C6.692 33.838 -2.158 15.833 -1 1 C-0.67 0.67 -0.34 0.34 0 0 Z " fill="#000000" transform="translate(551,653)"/>
<path d="M0 0 C-1.393 3.367 -2.979 4.986 -6 7 C-5.67 8.65 -5.34 10.3 -5 12 C-4.092 11.319 -3.185 10.639 -2.25 9.938 C1 8 1 8 3.375 8.25 C3.911 8.497 4.447 8.745 5 9 C2.743 11.335 0.719 13.187 -2 15 C-1.856 15.536 -1.711 16.072 -1.562 16.625 C-0.905 19.399 -0.448 22.185 0 25 C-4.931 29.188 -8.447 31.727 -15 32 C-16.32 30.02 -17.64 28.04 -19 26 C-20.65 26.33 -22.3 26.66 -24 27 C-24 25.68 -24 24.36 -24 23 C-23.34 23 -22.68 23 -22 23 C-22.3 22.325 -22.601 21.649 -22.91 20.953 C-23.29 20.061 -23.671 19.169 -24.062 18.25 C-24.445 17.368 -24.828 16.487 -25.223 15.578 C-26.055 12.818 -26.101 11.631 -25 9 C-20.82 5.494 -15.318 4.565 -10 4 C-9.34 4.33 -8.68 4.66 -8 5 C-7.711 4.361 -7.423 3.721 -7.125 3.062 C-5.229 -0.414 -4.022 0 0 0 Z M-20 12 C-18.512 17.803 -15.409 22.176 -12 27 C-9.412 26.655 -8.284 26.327 -6.547 24.328 C-5.693 20.692 -7.344 18.856 -9.25 15.75 C-9.895 14.672 -10.539 13.595 -11.203 12.484 C-11.796 11.665 -12.389 10.845 -13 10 C-15.647 10 -17.581 10.981 -20 12 Z " fill="#000000" transform="translate(618,658)"/>
<path d="M0 0 C1.827 0.165 1.827 0.165 4 1 C5.448 3.313 5.448 3.313 6.762 6.355 C7.241 7.453 7.719 8.551 8.213 9.682 C8.7 10.839 9.186 11.996 9.688 13.188 C10.186 14.325 10.684 15.463 11.197 16.635 C13.416 21.792 15.249 26.406 16 32 C14.157 31.819 14.157 31.819 12 31 C10.66 28.794 10.66 28.794 9.492 25.898 C8.848 24.326 8.848 24.326 8.191 22.723 C7.757 21.618 7.323 20.513 6.875 19.375 C6.433 18.293 5.991 17.212 5.535 16.098 C3.391 10.791 1.415 5.548 0 0 Z " fill="#000000" transform="translate(517,681)"/>
<path d="M0 0 C3.238 0.116 4.142 1.153 6.375 3.547 C9.279 7.139 11.261 11.038 13.25 15.188 C13.601 15.898 13.951 16.609 14.312 17.342 C17.283 23.415 18.892 28.241 18 35 C16.375 37.125 16.375 37.125 14 38 C11 38 11 38 8 37 C1.116 29.697 -1.034 17.781 -2 8 C-1.802 1.802 -1.802 1.802 0 0 Z " fill="#000000" transform="translate(327,694)"/>
<path d="M0 0 C4.108 1.369 4.963 4.089 6.938 7.688 C16.665 24.543 31.403 38.905 46.229 51.344 C48.09 53.085 49.532 54.923 51 57 C46.746 56.517 44.37 53.845 41.438 51 C37.513 47.287 33.541 43.746 29.312 40.375 C19.791 32.643 12.626 24.25 6 14 C5.374 13.038 4.747 12.077 4.102 11.086 C0 4.558 0 4.558 0 0 Z " fill="#000000" transform="translate(536,719)"/>
<path d="M0 0 C3 1 3 1 4.29 3.07 C5.648 5.977 6.994 8.887 8.312 11.812 C8.793 12.824 9.273 13.835 9.768 14.877 C10.434 16.34 10.434 16.34 11.113 17.832 C11.524 18.726 11.934 19.621 12.357 20.542 C13 23 13 23 12.118 25.323 C11.749 25.876 11.38 26.43 11 27 C7.514 21.976 4.969 16.898 2.688 11.25 C2.421 10.6 2.155 9.95 1.88 9.281 C0.558 5.919 0 3.673 0 0 Z " fill="#000000" transform="translate(399,720)"/>
<path d="M0 0 C5.506 3.013 5.506 3.013 7 6 C7 8.717 6.753 9.882 5 12 C1.224 13.069 -1.063 13.362 -4.75 11.938 C-7.542 9.533 -8.733 7.45 -10 4 C-9.875 1.688 -9.875 1.688 -9 0 C-5.383 -1.206 -3.679 -0.938 0 0 Z " fill="#000000" transform="translate(502,733)"/>
</svg>
