<?xml version="1.0" encoding="UTF-8"?>
<!-- Generator: visioncortex VTracer 0.6.0 -->
<svg version="1.1" xmlns="http://www.w3.org/2000/svg" width="847" height="847">
<path d="M0 0 C0 4.023 -1.584 5.816 -3.75 9.188 C-6.806 14.007 -9.569 18.835 -12 24 C-12.66 24 -13.32 24 -14 24 C-12.698 14.77 -6.201 6.655 0 0 Z " fill="#000000" transform="translate(533,98)"/>
<path d="M0 0 C0.66 0.33 1.32 0.66 2 1 C1.432 1.534 0.863 2.067 0.277 2.617 C-5.276 7.976 -9.8 13.531 -14 20 C-14.33 19.01 -14.66 18.02 -15 17 C-11.17 10.224 -6.129 4.725 0 0 Z " fill="#000000" transform="translate(544,111)"/>
<path d="M0 0 C-0.905 0.545 -0.905 0.545 -1.828 1.102 C-7.943 4.948 -11.663 7.988 -14 15 C-14.66 15 -15.32 15 -16 15 C-14.565 8.62 -10.48 3.213 -4.961 -0.297 C-3 -1 -3 -1 0 0 Z " fill="#000000" transform="translate(549,125)"/>
<path d="M0 0 C4.692 4.369 8.643 9.196 12.53 14.277 C16.048 18.87 19.751 23.248 23.578 27.586 C29.055 33.81 34.106 40.235 38.953 46.961 C38.293 48.281 37.633 49.601 36.953 50.961 C35.544 50.65 35.544 50.65 34.106 50.332 C29.025 49.618 24.442 50.859 19.508 52.027 C17.998 52.371 17.998 52.371 16.457 52.722 C13.285 53.451 10.118 54.202 6.953 54.961 C5.975 55.195 4.996 55.43 3.988 55.671 C-2.996 57.357 -9.961 59.117 -16.922 60.898 C-18.007 61.175 -19.093 61.452 -20.211 61.737 C-41.701 67.228 -63.017 73.266 -84.319 79.443 C-94.146 82.289 -104 85.038 -113.859 87.773 C-129.303 92.062 -144.726 96.418 -160.143 100.801 C-179.528 106.311 -198.913 111.82 -218.34 117.178 C-220.201 117.693 -222.062 118.21 -223.921 118.73 C-241.073 123.521 -241.073 123.521 -250.047 123.961 C-250.047 122.971 -250.047 121.981 -250.047 120.961 C-248.974 120.663 -247.902 120.365 -246.797 120.058 C-243.619 119.176 -240.44 118.293 -237.262 117.41 C-233.948 116.489 -230.634 115.569 -227.32 114.649 C-205.33 108.544 -183.366 102.356 -161.428 96.067 C-146.339 91.742 -131.234 87.484 -116.106 83.296 C-105.685 80.41 -95.286 77.462 -84.914 74.406 C-60.964 67.363 -36.956 60.748 -12.734 54.711 C-12.089 54.55 -11.444 54.388 -10.779 54.222 C16.573 47.39 16.573 47.39 29.953 44.961 C27.97 41.941 26.024 39.046 23.703 36.273 C21.953 33.961 21.953 33.961 21.953 30.961 C17.003 31.456 17.003 31.456 11.953 31.961 C13.953 30.961 15.953 29.961 17.953 28.961 C12.47 20.555 12.47 20.555 4.5 15.25 C2.132 15.54 0.179 16.111 -2.047 16.961 C-3.46 17.329 -4.877 17.684 -6.297 18.023 C-8.153 18.488 -8.153 18.488 -10.047 18.961 C-13.047 19.086 -13.047 19.086 -15.047 18.961 C-11.35 16.846 -7.39 15.88 -3.297 14.836 C-2.599 14.654 -1.902 14.472 -1.184 14.285 C0.528 13.84 2.24 13.4 3.953 12.961 C3.075 11.636 2.175 10.327 1.266 9.023 C0.767 8.293 0.268 7.562 -0.246 6.809 C-2.534 4.461 -3.815 4.331 -7.047 3.961 C-9.827 4.308 -9.827 4.308 -12.785 5.086 C-13.969 5.373 -15.154 5.66 -16.374 5.955 C-17.702 6.29 -19.031 6.625 -20.359 6.961 C-21.778 7.312 -23.197 7.663 -24.616 8.014 C-45.277 13.163 -65.817 18.8 -86.371 24.355 C-92.709 26.066 -99.051 27.763 -105.402 29.426 C-122.907 34.012 -140.24 39.043 -157.417 44.74 C-173.159 49.922 -189.026 54.173 -205.109 58.148 C-210.279 59.438 -215.446 60.735 -220.613 62.035 C-221.258 62.197 -221.903 62.359 -222.567 62.526 C-231.888 64.871 -241.179 67.315 -250.449 69.855 C-251.571 70.163 -252.692 70.47 -253.847 70.786 C-259.139 72.24 -264.427 73.707 -269.711 75.188 C-271.583 75.706 -273.456 76.224 -275.328 76.742 C-276.175 76.984 -277.022 77.226 -277.895 77.475 C-283.708 79.074 -283.708 79.074 -287.047 77.961 C-286.717 76.641 -286.387 75.321 -286.047 73.961 C-268.375 69.009 -250.659 64.233 -232.922 59.523 C-231.859 59.241 -230.797 58.958 -229.702 58.667 C-219.37 55.921 -209.039 53.18 -198.66 50.617 C-184.193 47.034 -169.994 43.057 -155.833 38.399 C-128.347 29.357 -100.386 22.275 -72.362 15.126 C-61.571 12.37 -50.806 9.524 -40.051 6.63 C-32.754 4.669 -25.444 2.775 -18.109 0.961 C-17.244 0.747 -16.378 0.533 -15.487 0.312 C-4.596 -2.333 -4.596 -2.333 0 0 Z " fill="#000000" transform="translate(496.046875,138.0390625)"/>
<path d="M0 0 C0 0.66 0 1.32 0 2 C-2.415 2.532 -4.831 3.051 -7.25 3.562 C-8.273 3.79 -8.273 3.79 -9.316 4.021 C-12.818 4.752 -15.603 5.322 -19 4 C-16.773 3.325 -14.544 2.66 -12.312 2 C-10.45 1.443 -10.45 1.443 -8.551 0.875 C-5.499 0.123 -3.111 -0.19 0 0 Z " fill="#000000" transform="translate(496,147)"/>
<path d="M0 0 C0.66 0.33 1.32 0.66 2 1 C2.502 2.766 2.502 2.766 2.852 5.035 C2.98 5.844 3.109 6.653 3.242 7.486 C3.369 8.336 3.495 9.187 3.625 10.062 C3.759 10.917 3.893 11.771 4.031 12.65 C4.362 14.766 4.682 16.883 5 19 C6.002 19.121 7.003 19.242 8.035 19.367 C9.378 19.536 10.72 19.705 12.062 19.875 C12.719 19.954 13.376 20.032 14.053 20.113 C18.534 20.687 22.684 21.664 27 23 C26.505 24.485 26.505 24.485 26 26 C23.625 26.027 21.25 26.047 18.875 26.062 C17.877 26.075 17.877 26.075 16.859 26.088 C12.793 26.108 8.988 25.789 5 25 C5.165 25.969 5.33 26.939 5.5 27.938 C6.134 32.295 6.09 36.606 6 41 C4.68 41 3.36 41 2 41 C1.661 39.272 1.329 37.542 1 35.812 C0.814 34.85 0.629 33.887 0.438 32.895 C0.031 30.207 -0.079 27.712 0 25 C-2.64 24.67 -5.28 24.34 -8 24 C-8.33 22.68 -8.66 21.36 -9 20 C-6.36 20 -3.72 20 -1 20 C-1.012 18.808 -1.023 17.615 -1.035 16.387 C-1.045 14.82 -1.054 13.254 -1.062 11.688 C-1.075 10.509 -1.075 10.509 -1.088 9.307 C-1.091 8.549 -1.094 7.792 -1.098 7.012 C-1.103 6.315 -1.108 5.619 -1.114 4.901 C-1 3 -1 3 0 0 Z " fill="#000000" transform="translate(585,156)"/>
<path d="M0 0 C2.105 3.157 2.824 5.618 3.875 9.25 C8.261 23.337 16.058 36.635 24 49 C23.34 49.66 22.68 50.32 22 51 C12.216 37.658 0 16.77 0 0 Z " fill="#000000" transform="translate(179,161)"/>
<path d="M0 0 C-4.975 3.317 -11.036 4.385 -17 4 C-14.053 2.035 -11.88 1.244 -8.5 0.312 C-7.541 0.041 -6.582 -0.231 -5.594 -0.512 C-3 -1 -3 -1 0 0 Z " fill="#000000" transform="translate(511,163)"/>
<path d="M0 0 C1.821 2.731 2.512 4.376 3.332 7.465 C3.571 8.342 3.81 9.22 4.056 10.124 C4.306 11.053 4.555 11.981 4.812 12.938 C7.016 20.922 9.483 28.484 13 36 C12.01 36 11.02 36 10 36 C6.502 28.676 4.146 21.357 2.188 13.5 C1.969 12.628 1.75 11.755 1.525 10.856 C0.607 7.055 0 3.95 0 0 Z " fill="#000000" transform="translate(198,172)"/>
<path d="M0 0 C-5.089 2.054 -9.545 3.432 -15 4 C-12.839 1.839 -11.479 1.284 -8.625 0.312 C-7.469 -0.095 -7.469 -0.095 -6.289 -0.512 C-3.799 -1.043 -2.384 -0.811 0 0 Z " fill="#000000" transform="translate(518,173)"/>
<path d="M0 0 C-1.746 0.533 -3.497 1.051 -5.25 1.562 C-6.225 1.853 -7.199 2.143 -8.203 2.441 C-10.962 2.992 -12.391 2.938 -15 2 C-13.254 1.467 -11.503 0.949 -9.75 0.438 C-8.775 0.147 -7.801 -0.143 -6.797 -0.441 C-4.038 -0.992 -2.609 -0.938 0 0 Z " fill="#000000" transform="translate(398,177)"/>
<path d="M0 0 C-5.192 1.741 -10.388 3.468 -15.588 5.182 C-17.357 5.767 -19.124 6.356 -20.89 6.948 C-23.429 7.8 -25.972 8.637 -28.516 9.473 C-29.699 9.874 -29.699 9.874 -30.906 10.284 C-34.705 11.517 -37.183 12.219 -41 11 C-35.808 9.259 -30.612 7.532 -25.412 5.818 C-23.643 5.233 -21.876 4.644 -20.11 4.052 C-17.571 3.2 -15.028 2.363 -12.484 1.527 C-11.696 1.26 -10.907 0.992 -10.094 0.716 C-6.295 -0.517 -3.817 -1.219 0 0 Z " fill="#000000" transform="translate(383,181)"/>
<path d="M0 0 C-6.398 3 -13.023 4.835 -19.812 6.75 C-22.558 7.532 -25.303 8.32 -28.047 9.109 C-28.799 9.326 -29.552 9.542 -30.327 9.765 C-37.218 11.756 -44.086 13.818 -50.953 15.891 C-52.633 16.397 -52.633 16.397 -54.347 16.914 C-58.881 18.282 -63.413 19.651 -67.944 21.027 C-71.151 22 -74.358 22.969 -77.566 23.938 C-78.531 24.232 -79.495 24.526 -80.489 24.83 C-84.978 26.182 -89.336 27.387 -94 28 C-91.354 25.354 -88.929 24.831 -85.363 23.672 C-84.672 23.446 -83.981 23.22 -83.268 22.988 C-80.952 22.235 -78.632 21.492 -76.312 20.75 C-75.117 20.365 -75.117 20.365 -73.897 19.972 C-59.158 15.223 -44.341 10.735 -29.5 6.312 C-28.463 6.003 -27.425 5.694 -26.356 5.375 C-23.395 4.493 -20.432 3.614 -17.469 2.738 C-16.584 2.475 -15.699 2.212 -14.787 1.941 C-3.838 -1.279 -3.838 -1.279 0 0 Z " fill="#000000" transform="translate(408,180)"/>
<path d="M0 0 C2.771 2.516 4.614 5.355 6.625 8.5 C10.144 13.88 14.005 18.772 18.215 23.625 C19.902 25.87 20.6 27.259 21 30 C20.34 30 19.68 30 19 30 C17.675 28.614 17.675 28.614 16.172 26.668 C15.622 25.956 15.071 25.245 14.505 24.512 C13.926 23.745 13.347 22.978 12.75 22.188 C12.164 21.416 11.578 20.644 10.974 19.849 C0 5.176 0 5.176 0 0 Z " fill="#000000" transform="translate(174,187)"/>
<path d="M0 0 C0.33 0.66 0.66 1.32 1 2 C0.102 4.442 -0.864 6.761 -1.938 9.125 C-2.209 9.745 -2.48 10.365 -2.76 11.004 C-4.315 14.496 -5.95 17.907 -7.747 21.282 C-13.987 33.047 -18.144 45.317 -22.312 57.938 C-23.065 60.183 -23.818 62.428 -24.572 64.672 C-27.746 74.134 -30.878 83.61 -33.984 93.094 C-38.833 107.877 -43.921 122.549 -49.301 137.149 C-50.009 139.069 -50.714 140.99 -51.416 142.912 C-52.4 145.603 -53.397 148.288 -54.398 150.973 C-54.832 152.164 -54.832 152.164 -55.275 153.38 C-60.081 166.12 -60.081 166.12 -65.377 169.531 C-66.194 169.78 -67.01 170.029 -67.852 170.285 C-68.775 170.584 -69.698 170.883 -70.649 171.192 C-72.122 171.623 -72.122 171.623 -73.625 172.062 C-75.717 172.727 -77.808 173.394 -79.898 174.062 C-81.454 174.548 -81.454 174.548 -83.042 175.043 C-86.426 176.138 -89.722 177.393 -93.031 178.694 C-107.265 184.266 -122.169 187.659 -137.012 191.199 C-148.007 193.84 -158.804 197.011 -169.609 200.337 C-180.075 203.555 -190.576 206.598 -201.136 209.494 C-222.472 215.345 -243.531 221.696 -264.375 229.125 C-284.761 236.387 -305.307 242.213 -326.243 247.663 C-327.06 247.875 -327.878 248.088 -328.72 248.307 C-330.272 248.711 -331.824 249.114 -333.377 249.515 C-336.284 250.27 -339.15 251.05 -342 252 C-341.792 250.102 -341.557 248.206 -341.312 246.312 C-341.185 245.257 -341.057 244.201 -340.926 243.113 C-338.947 232.594 -333.582 222.811 -328.842 213.32 C-311.346 178.144 -299.115 140.911 -286.906 103.647 C-286.019 100.939 -285.115 98.237 -284.194 95.54 C-283.454 93.347 -282.748 91.142 -282.095 88.921 C-280.071 82.677 -280.071 82.677 -277.128 80.817 C-276.035 80.375 -276.035 80.375 -274.92 79.924 C-274.114 79.596 -273.308 79.268 -272.478 78.929 C-268.697 77.511 -264.897 76.199 -261.051 74.969 C-260.213 74.696 -259.375 74.424 -258.512 74.143 C-255.781 73.257 -253.047 72.378 -250.312 71.5 C-248.38 70.877 -246.448 70.253 -244.515 69.629 C-240.572 68.358 -236.627 67.09 -232.682 65.825 C-228.318 64.425 -223.958 63.013 -219.599 61.594 C-200.666 55.44 -181.63 49.884 -162.405 44.717 C-147.542 40.72 -132.728 36.568 -117.938 32.312 C-116.26 31.83 -116.26 31.83 -114.548 31.338 C-102.312 27.813 -90.152 24.186 -78.125 20 C-62.244 14.476 -45.868 11.107 -29.449 7.598 C-27.445 7.169 -25.441 6.741 -23.438 6.312 C-22.041 6.016 -22.041 6.016 -20.616 5.713 C-13.603 4.198 -6.791 2.333 0 0 Z M-54 20 C-62.798 43.448 -62.798 43.448 -71.312 67 C-71.596 67.792 -71.879 68.584 -72.17 69.399 C-73.217 72.396 -74 74.801 -74 78 C-75.009 78.116 -76.019 78.232 -77.059 78.352 C-91.912 80.795 -105.8 89.163 -119 96 C-116.119 97.306 -116.119 97.306 -113.77 96.183 C-112.912 95.749 -112.053 95.315 -111.168 94.867 C-110.211 94.393 -109.253 93.918 -108.267 93.429 C-107.25 92.916 -106.234 92.403 -105.188 91.875 C-83.089 81 -83.089 81 -76 81 C-77.849 85.981 -79.704 90.96 -81.562 95.938 C-81.835 96.669 -82.108 97.401 -82.389 98.154 C-85.787 107.255 -89.207 116.332 -93.119 125.226 C-94.523 128.483 -95 130.353 -95 134 C-93.515 133.505 -93.515 133.505 -92 133 C-90.876 130.709 -89.953 128.518 -89.074 126.133 C-88.672 125.079 -88.672 125.079 -88.261 124.003 C-87.392 121.715 -86.54 119.42 -85.688 117.125 C-85.096 115.564 -84.504 114.004 -83.912 112.443 C-80.536 103.491 -77.281 94.514 -75.001 85.208 C-74.441 83.156 -74.441 83.156 -73 80 C-69.84 78.531 -69.84 78.531 -67 78 C-67 77.67 -67 77.34 -67 77 C-68.65 77 -70.3 77 -72 77 C-71.794 76.454 -71.587 75.908 -71.375 75.345 C-69.217 69.635 -67.059 63.924 -64.902 58.213 C-64.098 56.085 -63.294 53.958 -62.49 51.83 C-61.33 48.761 -60.171 45.693 -59.012 42.625 C-58.655 41.682 -58.299 40.739 -57.932 39.767 C-57.262 37.994 -56.594 36.221 -55.928 34.446 C-55.326 32.86 -54.712 31.278 -54.084 29.702 C-52.702 26.198 -52 23.824 -52 20 C-52.66 20 -53.32 20 -54 20 Z M-75 38 C-76.607 38.995 -78.211 39.996 -79.812 41 C-80.706 41.557 -81.599 42.114 -82.52 42.688 C-86.496 45.263 -90.285 48.098 -94.107 50.895 C-98.591 54.158 -103.134 57.334 -107.688 60.5 C-108.671 61.184 -109.654 61.869 -110.667 62.574 C-118.781 68.199 -126.987 73.679 -135.216 79.132 C-142.479 83.956 -149.648 88.897 -156.772 93.922 C-161.548 97.29 -166.351 100.612 -171.188 103.89 C-178.728 109.003 -186.19 114.212 -193.562 119.562 C-194.379 120.146 -195.195 120.73 -196.035 121.332 C-196.788 121.884 -197.541 122.435 -198.316 123.004 C-198.981 123.487 -199.646 123.97 -200.33 124.467 C-202.174 126.16 -203.028 127.711 -204 130 C-195.573 124.896 -187.648 119.195 -179.688 113.402 C-162.113 100.617 -144.121 88.431 -126.135 76.235 C-114.093 68.074 -114.093 68.074 -102.105 59.832 C-98.728 57.493 -95.328 55.189 -91.926 52.887 C-89.784 51.425 -87.642 49.963 -85.5 48.5 C-84.464 47.804 -83.429 47.109 -82.362 46.392 C-81.407 45.737 -80.452 45.081 -79.469 44.406 C-78.607 43.822 -77.745 43.237 -76.857 42.635 C-75.938 41.826 -75.938 41.826 -75 41 C-75 40.01 -75 39.02 -75 38 Z M-237 107 C-238.382 108.626 -239.719 110.293 -241 112 C-237.839 110.63 -237.007 110.011 -235 107 C-235.66 107 -236.32 107 -237 107 Z M-249.625 118.5 C-250.409 119.325 -251.192 120.15 -252 121 C-251.67 121.66 -251.34 122.32 -251 123 C-249.02 120.69 -247.04 118.38 -245 116 C-247.363 115.77 -247.363 115.77 -249.625 118.5 Z M-109.547 137.457 C-110.969 137.845 -110.969 137.845 -112.42 138.242 C-115.532 139.093 -118.641 139.953 -121.75 140.812 C-124.993 141.702 -128.238 142.59 -131.482 143.478 C-133.694 144.084 -135.907 144.691 -138.119 145.298 C-145.446 147.308 -152.78 149.288 -160.121 151.242 C-161.539 151.62 -161.539 151.62 -162.985 152.005 C-166.602 152.969 -170.22 153.931 -173.838 154.889 C-176.303 155.542 -178.767 156.198 -181.23 156.855 C-181.949 157.045 -182.668 157.234 -183.408 157.428 C-187.05 158.403 -190.536 159.511 -194 161 C-194 161.33 -194 161.66 -194 162 C-187.298 161.416 -181.113 160.151 -174.633 158.375 C-173.652 158.112 -172.671 157.849 -171.66 157.578 C-168.48 156.725 -165.302 155.862 -162.125 155 C-157.716 153.812 -153.305 152.629 -148.895 151.445 C-147.799 151.151 -146.703 150.856 -145.573 150.552 C-138.794 148.734 -132.005 146.961 -125.199 145.242 C-124.386 145.036 -123.572 144.83 -122.734 144.618 C-119.695 143.85 -116.656 143.084 -113.614 142.331 C-111.581 141.828 -109.55 141.317 -107.52 140.805 C-106.397 140.526 -105.274 140.247 -104.116 139.96 C-100.857 138.956 -98.003 137.607 -95 136 C-95 135.67 -95 135.34 -95 135 C-100.113 134.587 -104.677 136.098 -109.547 137.457 Z M-106 151.375 C-107.678 151.851 -107.678 151.851 -109.391 152.336 C-110.458 152.645 -111.525 152.955 -112.625 153.273 C-114.098 153.698 -114.098 153.698 -115.602 154.13 C-118.143 154.86 -118.143 154.86 -120 157 C-117.009 158.495 -115.263 157.34 -112.117 156.348 C-110.951 155.983 -109.784 155.619 -108.582 155.244 C-107.359 154.854 -106.135 154.464 -104.875 154.062 C-103.644 153.676 -102.413 153.29 -101.145 152.893 C-98.094 151.935 -95.046 150.97 -92 150 C-92 149.34 -92 148.68 -92 148 C-96.708 148 -101.51 150.071 -106 151.375 Z M-89.004 158.195 C-90.21 158.661 -91.415 159.126 -92.657 159.606 C-93.294 159.854 -93.931 160.102 -94.587 160.357 C-97.913 161.65 -101.247 162.918 -104.582 164.188 C-105.566 164.562 -105.566 164.562 -106.569 164.944 C-116.445 168.697 -126.304 172.056 -136.531 174.727 C-139.105 175.4 -141.678 176.073 -144.25 176.75 C-144.913 176.924 -145.575 177.099 -146.258 177.278 C-161.683 181.373 -176.802 186.394 -191.938 191.438 C-193.164 191.844 -194.39 192.251 -195.653 192.67 C-199.156 193.833 -202.655 195.006 -206.152 196.184 C-207.752 196.716 -207.752 196.716 -209.383 197.259 C-210.359 197.59 -211.334 197.922 -212.34 198.263 C-213.623 198.696 -213.623 198.696 -214.932 199.137 C-217.171 199.917 -217.171 199.917 -219 202 C-212.529 200.666 -206.368 198.92 -200.113 196.805 C-198.201 196.168 -196.289 195.532 -194.376 194.897 C-193.386 194.566 -192.396 194.236 -191.376 193.896 C-174.585 188.302 -157.825 183.151 -140.684 178.746 C-124.5 174.576 -108.644 169.377 -92.938 163.688 C-91.758 163.267 -90.579 162.846 -89.365 162.413 C-88.284 162.012 -87.203 161.612 -86.09 161.199 C-85.129 160.847 -84.169 160.495 -83.179 160.132 C-80.662 159.145 -80.662 159.145 -80 156 C-83.521 156 -85.722 156.917 -89.004 158.195 Z M-226 204 C-222.535 203.505 -222.535 203.505 -219 203 C-222.486 201.798 -222.68 201.787 -226 204 Z M-229 204 C-229.66 204.66 -230.32 205.32 -231 206 C-229.35 205.67 -227.7 205.34 -226 205 C-226.99 204.67 -227.98 204.34 -229 204 Z " fill="#000000" transform="translate(523,192)"/>
<path d="M0 0 C0.99 0.33 1.98 0.66 3 1 C2.414 5.361 1.334 9.035 -0.371 13.086 C-1.111 14.857 -1.111 14.857 -1.865 16.664 C-2.389 17.901 -2.913 19.138 -3.438 20.375 C-3.922 21.53 -4.406 22.685 -4.904 23.875 C-7.359 29.731 -9.822 35.582 -12.309 41.424 C-18.042 54.953 -23.28 68.608 -28.246 82.436 C-30.292 88.128 -32.361 93.812 -34.43 99.496 C-34.83 100.597 -35.231 101.699 -35.644 102.833 C-43.065 123.19 -51.175 143.21 -60 163 C-61.32 162.67 -62.64 162.34 -64 162 C-63.337 157.865 -62.002 154.33 -60.367 150.48 C-59.81 149.155 -59.253 147.83 -58.697 146.505 C-58.4 145.804 -58.104 145.103 -57.799 144.38 C-51.998 130.616 -46.533 116.744 -41.312 102.75 C-40.996 101.902 -40.679 101.055 -40.353 100.182 C-37.24 91.839 -34.159 83.486 -31.172 75.098 C-25.573 59.432 -19.362 44.166 -12.656 28.947 C-12.331 28.207 -12.005 27.467 -11.669 26.705 C-11.029 25.252 -10.388 23.8 -9.748 22.348 C-7.056 16.212 -4.571 10.005 -2.14 3.761 C-1 1 -1 1 0 0 Z " fill="#000000" transform="translate(530,197)"/>
<path d="M0 0 C1.164 3.492 0.834 4.076 -0.512 7.359 C-0.856 8.22 -1.2 9.081 -1.554 9.969 C-1.928 10.886 -2.302 11.804 -2.688 12.75 C-7.892 25.984 -11.343 38.851 -13 53 C-13.66 52.67 -14.32 52.34 -15 52 C-15.269 34.146 -7.09 16.055 0 0 Z " fill="#000000" transform="translate(645,206)"/>
<path d="M0 0 C2.75 1.291 5.079 2.711 7.453 4.602 C8.381 5.336 8.381 5.336 9.328 6.086 C9.962 6.594 10.597 7.102 11.25 7.625 C11.9 8.141 12.549 8.656 13.219 9.188 C14.815 10.455 16.408 11.727 18 13 C17.01 13.33 16.02 13.66 15 14 C12.441 12.305 12.441 12.305 9.562 9.875 C8.615 9.089 7.668 8.302 6.691 7.492 C4.16 5.148 2.071 2.752 0 0 Z " fill="#000000" transform="translate(173,208)"/>
<path d="M0 0 C2.375 0.188 2.375 0.188 5 1 C6.312 3.562 6.312 3.562 7 6 C5.25 6.75 5.25 6.75 3 7 C0.75 5.062 0.75 5.062 -1 3 C-0.67 2.01 -0.34 1.02 0 0 Z " fill="#000000" transform="translate(555,215)"/>
<path d="M0 0 C0.99 0.33 1.98 0.66 3 1 C1.533 8.109 -0.432 14.965 -2.598 21.891 C-2.948 23.02 -3.298 24.148 -3.658 25.312 C-4.79 28.959 -5.926 32.604 -7.062 36.25 C-7.849 38.781 -8.634 41.312 -9.42 43.843 C-11.295 49.886 -13.175 55.927 -15.056 61.969 C-16.895 67.874 -18.729 73.781 -20.562 79.688 C-20.884 80.722 -21.206 81.757 -21.537 82.823 C-25.024 94.05 -28.476 105.288 -31.931 116.525 C-42.508 150.919 -42.508 150.919 -46.438 163.625 C-46.797 164.79 -47.156 165.956 -47.525 167.156 C-47.846 168.19 -48.166 169.224 -48.496 170.289 C-48.901 171.599 -48.901 171.599 -49.314 172.936 C-50 175 -50 175 -51 177 C-52.32 177 -53.64 177 -55 177 C-54.439 168.879 -51.806 161.358 -49.363 153.648 C-48.886 152.126 -48.41 150.603 -47.935 149.081 C-46.925 145.851 -45.911 142.623 -44.894 139.396 C-43.303 134.347 -41.72 129.295 -40.14 124.243 C-39.878 123.406 -39.616 122.569 -39.347 121.707 C-38.819 120.021 -38.292 118.335 -37.765 116.65 C-36.977 114.131 -36.188 111.612 -35.4 109.094 C-31.255 95.856 -27.197 82.593 -23.188 69.312 C-18.639 54.267 -13.942 39.28 -9.059 24.34 C-7.786 20.446 -6.541 16.547 -5.348 12.629 C-4.996 11.474 -4.996 11.474 -4.637 10.296 C-4.065 8.401 -3.5 6.503 -2.938 4.605 C-2 2 -2 2 0 0 Z " fill="#000000" transform="translate(199,221)"/>
<path d="M0 0 C7.88 3.472 12.888 12.311 18.004 18.987 C20.793 22.596 23.706 25.843 27 29 C27.526 28.826 28.052 28.651 28.593 28.472 C40.727 24.5 52.934 20.966 65.297 17.785 C66.386 17.505 67.474 17.225 68.596 16.936 C74.103 15.523 79.614 14.127 85.128 12.745 C95.068 10.231 104.815 7.689 114.289 3.721 C118.708 1.903 118.708 1.903 122 3 C108.395 8.853 94.741 13.287 80.435 17.085 C74.259 18.73 68.099 20.429 61.938 22.125 C60.098 22.629 60.098 22.629 58.221 23.143 C50.371 25.304 42.596 27.615 34.871 30.188 C32 31 32 31 28 31 C30.823 35.516 33.989 39.252 37.707 43.07 C39 45 39 45 38.699 47.242 C38.468 47.822 38.238 48.402 38 49 C34.269 47.756 33.358 46.258 30.938 43.188 C30.14 42.187 29.342 41.187 28.52 40.156 C28.104 39.633 27.688 39.11 27.26 38.57 C25.257 36.074 23.187 33.635 21.125 31.188 C16.927 26.166 12.86 21.056 8.851 15.882 C6.425 12.762 3.936 9.779 1.25 6.875 C0.507 5.926 -0.235 4.977 -1 4 C-0.641 1.82 -0.641 1.82 0 0 Z " fill="#000000" transform="translate(204,219)"/>
<path d="M0 0 C0.33 0 0.66 0 1 0 C0.087 11.305 0.087 11.305 -0.562 16.938 C-1.446 25.645 -1.356 34.354 0 43 C-0.66 43 -1.32 43 -2 43 C-7.057 29.725 -3.432 13.34 0 0 Z " fill="#000000" transform="translate(620,221)"/>
<path d="M0 0 C-0.234 1.859 -0.234 1.859 -1 4 C-5.135 6.768 -9.989 8.647 -15 8 C-14 5 -14 5 -11.602 3.613 C-10.128 2.969 -10.128 2.969 -8.625 2.312 C-7.648 1.876 -6.671 1.439 -5.664 0.988 C-3 0 -3 0 0 0 Z " fill="#000000" transform="translate(235,225)"/>
<path d="M0 0 C-1 3 -1 3 -3.18 4.203 C-4.069 4.549 -4.959 4.894 -5.875 5.25 C-6.759 5.606 -7.644 5.962 -8.555 6.328 C-11 7 -11 7 -14 6 C-14 5.34 -14 4.68 -14 4 C-12.231 3.327 -10.46 2.662 -8.688 2 C-7.701 1.629 -6.715 1.257 -5.699 0.875 C-3 0 -3 0 0 0 Z " fill="#000000" transform="translate(237,232)"/>
<path d="M0 0 C0 3.647 -0.599 3.92 -3.062 6.438 C-8.027 11.918 -13.76 18.774 -14.191 26.367 C-14.097 27.67 -14.097 27.67 -14 29 C-14.99 28.67 -15.98 28.34 -17 28 C-16.747 16.609 -7.433 7.77 0 0 Z " fill="#000000" transform="translate(660,234)"/>
<path d="M0 0 C0.99 0.33 1.98 0.66 3 1 C2.477 7.396 1.297 12.9 -0.844 18.934 C-1.271 20.174 -1.271 20.174 -1.707 21.439 C-2.629 24.108 -3.564 26.773 -4.5 29.438 C-5.146 31.296 -5.791 33.154 -6.435 35.013 C-7.709 38.684 -8.987 42.353 -10.269 46.021 C-11.707 50.147 -13.117 54.28 -14.508 58.422 C-19.007 71.777 -24.057 84.857 -29.343 97.914 C-32.065 104.641 -34.714 111.389 -37.25 118.188 C-37.589 119.092 -37.927 119.996 -38.276 120.927 C-40.513 126.927 -42.705 132.942 -44.883 138.964 C-46.304 142.888 -47.738 146.808 -49.172 150.727 C-49.886 152.689 -50.596 154.653 -51.3 156.619 C-52.297 159.4 -53.311 162.175 -54.328 164.949 C-54.624 165.788 -54.919 166.626 -55.224 167.49 C-57.071 172.463 -58.947 175.547 -63 179 C-66.992 176.097 -69.516 173.139 -72.215 169.02 C-72.782 168.161 -72.782 168.161 -73.361 167.285 C-74.561 165.466 -75.749 163.64 -76.938 161.812 C-77.73 160.606 -78.524 159.399 -79.318 158.193 C-80.849 155.868 -82.375 153.54 -83.898 151.209 C-86.574 147.123 -89.281 143.058 -92 139 C-91.505 138.01 -91.505 138.01 -91 137 C-89.68 137 -88.36 137 -87 137 C-85.218 139.148 -83.74 141.166 -82.25 143.5 C-81.839 144.12 -81.428 144.74 -81.004 145.379 C-79.99 146.911 -78.993 148.455 -78 150 C-76.008 147.098 -76.008 147.098 -74.5 144.312 C-73.757 143.168 -73.757 143.168 -73 142 C-72.34 142 -71.68 142 -71 142 C-71.438 146.557 -71.85 149.577 -75 153 C-74.34 154.32 -73.68 155.64 -73 157 C-71.407 154.611 -70.442 152.822 -69.438 150.202 C-69.142 149.433 -68.845 148.665 -68.54 147.873 C-68.22 147.032 -67.9 146.191 -67.57 145.324 C-67.057 143.986 -67.057 143.986 -66.533 142.621 C-65.392 139.645 -64.258 136.666 -63.125 133.688 C-62.733 132.66 -62.341 131.632 -61.937 130.573 C-58.944 122.72 -55.969 114.861 -53 107 C-52.342 105.259 -52.342 105.259 -51.67 103.482 C-40.383 73.595 -29.302 43.873 -21 13 C-19.023 18.664 -21.617 24.377 -23.125 29.938 C-23.303 30.597 -23.481 31.257 -23.664 31.936 C-28.471 49.628 -34.703 66.795 -41 84 C-41.843 86.308 -42.686 88.617 -43.529 90.925 C-60.553 137.505 -60.553 137.505 -67.727 155.73 C-68.533 157.801 -69.297 159.891 -70 162 C-68.798 164.35 -68.798 164.35 -67.062 166.688 C-66.497 167.496 -65.931 168.304 -65.348 169.137 C-64.903 169.752 -64.458 170.366 -64 171 C-61.845 168.845 -61.322 167.547 -60.314 164.714 C-59.992 163.816 -59.669 162.919 -59.336 161.994 C-58.814 160.518 -58.814 160.518 -58.281 159.012 C-57.516 156.882 -56.75 154.753 -55.984 152.624 C-55.58 151.495 -55.176 150.366 -54.759 149.202 C-48.15 130.754 -41.289 112.452 -33.875 94.312 C-23.514 68.908 -14.642 42.999 -5.994 16.969 C-5.671 15.998 -5.348 15.027 -5.016 14.027 C-4.402 12.175 -3.789 10.324 -3.179 8.471 C-2.907 7.649 -2.635 6.827 -2.354 5.98 C-2.116 5.258 -1.878 4.535 -1.632 3.79 C-1 2 -1 2 0 0 Z " fill="#000000" transform="translate(235,265)"/>
<path d="M0 0 C1.64 4.02 0.217 7.261 -1.141 11.141 C-1.498 12.202 -1.498 12.202 -1.863 13.285 C-2.648 15.61 -3.449 17.93 -4.25 20.25 C-4.796 21.856 -5.341 23.463 -5.886 25.069 C-7.296 29.223 -8.719 33.372 -10.147 37.52 C-11.255 40.741 -12.357 43.964 -13.459 47.187 C-16.29 55.463 -19.138 63.734 -22 72 C-22.99 72 -23.98 72 -25 72 C-23.118 64.753 -20.952 57.688 -18.418 50.645 C-18.081 49.699 -17.745 48.754 -17.398 47.78 C-16.69 45.794 -15.979 43.808 -15.267 41.823 C-14.197 38.839 -13.132 35.852 -12.068 32.865 C-8.146 21.872 -4.144 10.912 0 0 Z " fill="#000000" transform="translate(195,275)"/>
<path d="M0 0 C4.281 0.884 7.741 2.829 10.562 6.238 C11.328 9.588 10.905 12.116 10.062 15.426 C7.434 18.242 4.871 19.166 1.062 19.426 C-3.352 18.932 -6.364 17.835 -10 15.238 C-11.938 12.426 -11.938 12.426 -12.062 8.926 C-10.028 2.597 -6.921 -0.459 0 0 Z M-5.688 5.926 C-6.43 6.751 -7.173 7.576 -7.938 8.426 C-6.568 11.587 -5.948 12.418 -2.938 14.426 C0.604 14.759 0.604 14.759 4.062 14.426 C4.722 13.766 5.383 13.106 6.062 12.426 C5.893 9.205 5.248 7.663 3.25 5.113 C-0.461 2.25 -2.357 2.898 -5.688 5.926 Z " fill="#000000" transform="translate(622.9375,293.57421875)"/>
<path d="M0 0 C1.372 4.115 -0.114 6.821 -1.57 10.711 C-1.848 11.475 -2.127 12.239 -2.413 13.026 C-3.308 15.479 -4.217 17.927 -5.125 20.375 C-5.714 21.985 -6.303 23.596 -6.891 25.207 C-8.311 29.091 -9.749 32.967 -11.196 36.841 C-11.963 38.901 -12.72 40.964 -13.476 43.028 C-13.914 44.207 -14.353 45.387 -14.805 46.602 C-15.373 48.142 -15.373 48.142 -15.953 49.713 C-17 52 -17 52 -19 53 C-16.681 43.317 -13.28 34.023 -9.902 24.672 C-8.93 21.98 -7.968 19.285 -7.006 16.59 C-6.389 14.872 -5.771 13.155 -5.152 11.438 C-4.866 10.634 -4.579 9.831 -4.284 9.004 C-4.014 8.259 -3.743 7.514 -3.465 6.746 C-3.112 5.767 -3.112 5.767 -2.752 4.767 C-2 3 -2 3 0 0 Z " fill="#000000" transform="translate(194,296)"/>
<path d="M0 0 C4.382 3.234 7.095 6.234 9.938 10.938 C10.709 12.184 11.484 13.429 12.262 14.672 C12.69 15.357 13.119 16.042 13.56 16.748 C16.36 21.126 19.314 25.4 22.25 29.688 C22.886 30.619 23.521 31.551 24.176 32.511 C27.374 37.193 30.595 41.857 33.855 46.496 C34.459 47.361 35.063 48.226 35.685 49.116 C36.828 50.753 37.98 52.385 39.14 54.01 C39.649 54.742 40.159 55.473 40.684 56.227 C41.133 56.862 41.582 57.497 42.045 58.151 C43 60 43 60 43 64 C42.34 64 41.68 64 41 64 C43.64 71.92 46.28 79.84 49 88 C47.02 88.495 47.02 88.495 45 89 C42.564 87.261 40.449 85.561 38.25 83.562 C37.648 83.033 37.046 82.504 36.426 81.959 C34.941 80.651 33.469 79.327 32 78 C32.495 76.515 32.495 76.515 33 75 C37.75 76.875 37.75 76.875 40 78 C39.783 77.385 39.567 76.77 39.344 76.137 C39.065 75.328 38.787 74.52 38.5 73.688 C38.222 72.887 37.943 72.086 37.656 71.262 C37 69 37 69 37 66 C37.66 65.67 38.32 65.34 39 65 C37.662 61.352 36.028 58.295 33.867 55.07 C32.917 53.646 32.917 53.646 31.947 52.193 C31.263 51.181 30.579 50.168 29.875 49.125 C29.169 48.074 28.464 47.023 27.737 45.939 C13.769 25.185 13.769 25.185 -1 5 C-3.95 5.328 -5.852 5.906 -8.375 7.5 C-10.348 10.535 -10.564 12.661 -9.98 16.219 C-8.211 21.239 -4.992 25.386 -1.949 29.703 C1.297 34.338 4.14 39.183 7 44.062 C10.676 50.273 14.452 56.359 18.625 62.25 C19.246 63.136 19.246 63.136 19.879 64.039 C20.865 65.4 21.926 66.707 23 68 C23.66 68 24.32 68 25 68 C25.99 66.515 25.99 66.515 27 65 C27.66 65 28.32 65 29 65 C26.274 59.706 23.198 54.687 19.875 49.75 C19.474 49.153 19.072 48.555 18.659 47.94 C18.213 47.276 17.768 46.613 17.309 45.93 C13.269 39.917 9.245 33.895 5.249 27.854 C4.378 26.539 3.503 25.226 2.626 23.916 C1.377 22.05 0.139 20.178 -1.098 18.305 C-1.825 17.211 -2.552 16.118 -3.301 14.992 C-4.886 12.201 -5.616 10.157 -6 7 C-2.563 8.418 -1.016 9.974 1.037 13.047 C1.601 13.882 2.165 14.717 2.746 15.577 C3.344 16.483 3.942 17.388 4.559 18.32 C5.185 19.253 5.811 20.186 6.456 21.146 C8.458 24.134 10.448 27.129 12.438 30.125 C13.773 32.12 15.11 34.115 16.447 36.109 C25.809 50.097 25.809 50.097 29.918 56.507 C30.322 57.135 30.726 57.763 31.141 58.41 C32 60 32 60 32 62 C33.65 62.33 35.3 62.66 37 63 C36.67 63.99 36.34 64.98 36 66 C35.051 66.413 34.102 66.825 33.125 67.25 C28.927 69.601 28.515 71.538 27 76 C24 76 24 76 22.203 74.418 C21.236 73.314 21.236 73.314 20.25 72.188 C19.616 71.48 18.982 70.772 18.328 70.043 C14.9 65.562 11.978 60.789 9 56 C8.393 55.028 7.787 54.057 7.162 53.056 C4.63 48.998 2.105 44.936 -0.419 40.873 C-3.772 35.494 -7.187 30.199 -10.812 25 C-13.755 20.612 -15.55 17.308 -16 12 C-14.645 6.672 -12.372 3.76 -7.828 0.887 C-4.928 -0.52 -3.153 -0.671 0 0 Z " fill="#000000" transform="translate(553,301)"/>
<path d="M0 0 C0 0.66 0 1.32 0 2 C-8.429 5.429 -8.429 5.429 -13 5 C-12.67 4.01 -12.34 3.02 -12 2 C-10.039 1.27 -10.039 1.27 -7.625 0.812 C-6.834 0.654 -6.042 0.495 -5.227 0.332 C-3 0 -3 0 0 0 Z " fill="#000000" transform="translate(709,327)"/>
<path d="M0 0 C5.488 4.403 9.759 9.089 14 14.688 C14.597 15.446 15.194 16.205 15.809 16.986 C16.367 17.717 16.925 18.447 17.5 19.199 C18.258 20.187 18.258 20.187 19.031 21.194 C19.351 21.79 19.671 22.386 20 23 C19.67 23.99 19.34 24.98 19 26 C18.602 25.486 18.204 24.972 17.794 24.443 C15.968 22.086 14.14 19.731 12.312 17.375 C11.687 16.567 11.061 15.759 10.416 14.926 C7.684 11.407 4.951 7.914 2.043 4.539 C0 2 0 2 0 0 Z " fill="#000000" transform="translate(544,345)"/>
<path d="M0 0 C0.866 0.34 0.866 0.34 1.75 0.688 C1.438 3.062 1.438 3.062 0.75 5.688 C-2.25 7.688 -2.25 7.688 -4.938 7.312 C-5.701 7.106 -6.464 6.9 -7.25 6.688 C-6.875 3.968 -6.408 2.845 -4.438 0.875 C-2.25 -0.312 -2.25 -0.312 0 0 Z " fill="#000000" transform="translate(654.25,360.3125)"/>
<path d="M0 0 C0 0.99 0 1.98 0 3 C-4.772 5.61 -9.409 7.099 -14.629 8.461 C-15.897 8.801 -15.897 8.801 -17.191 9.148 C-19.021 9.638 -20.852 10.126 -22.683 10.611 C-27.647 11.928 -32.605 13.271 -37.562 14.613 C-38.59 14.891 -39.617 15.169 -40.675 15.455 C-69.871 23.376 -98.858 32.005 -127.66 41.251 C-130.264 42.085 -132.87 42.914 -135.476 43.743 C-150.361 48.483 -165.207 53.338 -180.044 58.226 C-204.451 66.268 -228.867 74.28 -253.416 81.883 C-255.842 82.639 -258.264 83.409 -260.682 84.191 C-262.411 84.744 -262.411 84.744 -264.176 85.309 C-265.182 85.635 -266.188 85.962 -267.224 86.299 C-269.942 86.985 -272.211 87.138 -275 87 C-275 85.68 -275 84.36 -275 83 C-274.075 82.72 -273.15 82.441 -272.198 82.152 C-252.501 76.184 -232.868 70.04 -213.312 63.625 C-212.322 63.3 -211.331 62.975 -210.31 62.64 C-206.075 61.252 -201.841 59.863 -197.608 58.474 C-144.612 41.097 -91.652 23.771 -37.82 9.139 C-32.421 7.669 -27.031 6.171 -21.652 4.629 C-20.477 4.293 -19.301 3.957 -18.09 3.611 C-16.037 3.021 -13.985 2.427 -11.935 1.827 C-11.067 1.578 -10.199 1.33 -9.305 1.074 C-8.583 0.864 -7.861 0.653 -7.117 0.436 C-4.701 -0.062 -2.46 -0.074 0 0 Z " fill="#000000" transform="translate(468,364)"/>
<path d="M0 0 C5.182 0.6 9.368 2.238 14.062 4.375 C14.846 4.729 15.63 5.084 16.438 5.449 C33.891 13.461 50.371 23.066 66.83 32.922 C73.986 37.199 81.216 41.346 88.447 45.495 C93.632 48.473 98.806 51.467 103.945 54.523 C118.738 63.304 133.862 71.274 149.183 79.074 C163.551 86.395 177.872 93.747 191.81 101.866 C195.697 104.129 199.588 106.336 203.594 108.383 C204.653 108.925 204.653 108.925 205.733 109.479 C207.033 110.137 208.338 110.783 209.649 111.416 C213.808 113.521 213.808 113.521 214.891 116.219 C214.927 116.807 214.963 117.394 215 118 C214.01 118.495 214.01 118.495 213 119 C211.09 118.25 211.09 118.25 208.723 117 C207.831 116.533 206.938 116.065 206.019 115.584 C205.044 115.061 204.068 114.538 203.062 114 C201.536 113.194 201.536 113.194 199.979 112.371 C190.908 107.552 181.952 102.53 172.994 97.507 C165.098 93.103 157.105 88.977 148.994 84.988 C119.685 70.52 91.493 53.583 63.407 36.901 C44.18 25.49 24.84 14.234 4 6 C2.333 5.333 0.667 4.667 -1 4 C-0.67 2.68 -0.34 1.36 0 0 Z " fill="#000000" transform="translate(477,364)"/>
<path d="M0 0 C2.059 1.021 4.055 2.118 6.056 3.248 C7.563 4.076 9.071 4.901 10.579 5.725 C11.337 6.14 12.095 6.556 12.875 6.984 C15.619 8.454 18.406 9.816 21.208 11.169 C31.759 16.272 41.493 22.48 51.271 28.916 C63.83 37.171 76.69 44.482 90.126 51.217 C93.125 52.724 96.123 54.235 99.118 55.748 C99.877 56.131 100.635 56.514 101.416 56.909 C114.097 63.348 125.854 70.593 137.646 78.533 C148.274 85.689 159.031 90.65 171.039 95.036 C177.526 97.452 183.679 100.28 189.806 103.498 C191.018 104.129 191.018 104.129 192.254 104.773 C197.857 107.793 197.857 107.793 200.118 111.186 C189.68 114.75 179.178 118.032 168.607 121.177 C165.986 121.957 163.366 122.74 160.747 123.525 C152.744 125.92 144.737 128.302 136.72 130.651 C119.499 135.709 102.622 141.418 85.852 147.812 C75.316 151.8 64.719 155.208 53.88 158.27 C37.089 163.023 20.515 168.214 4.002 173.86 C-16.235 180.778 -36.475 187.678 -57.086 193.408 C-60.08 194.241 -63.068 195.09 -66.057 195.94 C-68.061 196.502 -70.065 197.063 -72.069 197.623 C-72.985 197.883 -73.901 198.142 -74.844 198.41 C-76.121 198.761 -76.121 198.761 -77.425 199.119 C-78.539 199.43 -78.539 199.43 -79.675 199.746 C-82.124 200.234 -84.391 200.261 -86.882 200.186 C-87.212 199.196 -87.542 198.206 -87.882 197.186 C-86.256 196.644 -84.631 196.102 -83.005 195.562 C-81.623 195.1 -80.243 194.635 -78.864 194.167 C-75.963 193.187 -73.092 192.241 -70.128 191.467 C-63.7 189.768 -60.918 186.289 -56.882 181.186 C-54.928 179.133 -52.911 177.165 -50.882 175.186 C-52.989 173.079 -57.351 173.517 -60.257 173.248 C-61.167 173.162 -62.078 173.075 -63.016 172.986 C-72.776 172.111 -82.555 171.638 -92.339 171.13 C-103.529 170.541 -114.596 169.601 -125.712 168.151 C-131.163 167.446 -136.385 167.042 -141.882 167.186 C-141.244 167.552 -140.606 167.919 -139.948 168.296 C-103.738 189.141 -103.738 189.141 -90.882 199.186 C-90.882 199.516 -90.882 199.846 -90.882 200.186 C-97.296 199.814 -101.182 197.481 -106.444 193.936 C-108.136 192.831 -109.83 191.73 -111.526 190.631 C-112.405 190.06 -113.283 189.49 -114.189 188.902 C-118.602 186.09 -123.114 183.452 -127.632 180.811 C-161.432 160.94 -161.432 160.94 -175.029 150.585 C-193.364 136.738 -212.245 123.397 -231.861 111.429 C-236.485 108.583 -241.055 105.649 -245.636 102.734 C-249.74 100.132 -253.867 97.586 -258.053 95.119 C-258.884 94.626 -259.715 94.133 -260.572 93.625 C-262.161 92.685 -263.757 91.756 -265.36 90.838 C-266.426 90.206 -266.426 90.206 -267.514 89.561 C-268.142 89.197 -268.77 88.834 -269.417 88.459 C-271.272 86.846 -271.508 85.572 -271.882 83.186 C-271.34 83.006 -270.798 82.827 -270.24 82.642 C-266.285 81.327 -262.334 80.001 -258.393 78.643 C-247.292 74.843 -236.111 71.485 -224.816 68.308 C-214.078 65.276 -203.426 61.995 -192.78 58.655 C-190.148 57.831 -187.515 57.008 -184.882 56.186 C-183.978 55.903 -183.074 55.621 -182.143 55.33 C-166.712 50.517 -151.227 45.939 -135.672 41.544 C-73.264 26.438 -73.264 26.438 -14.822 1.144 C-9.479 -1.982 -5.945 -2.573 0 0 Z M-68.588 54.012 C-70.733 57.616 -73.133 61.043 -75.507 64.498 C-78.631 68.506 -78.631 68.506 -79.882 73.186 C-46.622 81.537 -46.622 81.537 -12.772 86.533 C-9.295 87.318 -7.478 88.796 -4.882 91.186 C-6.165 95.854 -8.159 99.399 -10.858 103.354 C-12.125 105.273 -12.125 105.273 -11.882 108.186 C-10.538 109.288 -9.189 110.383 -7.815 111.448 C-3.653 115.189 -0.338 119.801 3.118 124.186 C0.118 124.186 0.118 124.186 -1.416 122.901 C-1.944 122.314 -2.473 121.728 -3.018 121.123 C-3.884 120.176 -3.884 120.176 -4.766 119.209 C-5.361 118.541 -5.956 117.874 -6.569 117.186 C-7.176 116.518 -7.782 115.85 -8.407 115.162 C-9.906 113.51 -11.397 111.851 -12.882 110.186 C-15.733 112.854 -17.773 115.38 -19.632 118.811 C-20.06 119.587 -20.488 120.363 -20.928 121.162 C-22.024 123.115 -22.024 123.115 -21.882 125.186 C-17.703 125.928 -13.522 126.658 -9.339 127.377 C-7.917 127.623 -6.496 127.872 -5.076 128.125 C-3.03 128.488 -0.981 128.84 1.068 129.19 C2.914 129.512 2.914 129.512 4.797 129.84 C7.98 130.171 10.114 130.261 13.118 129.186 C14.601 127.621 14.601 127.621 15.599 125.506 C16.032 124.696 16.465 123.885 16.912 123.05 C17.372 122.146 17.832 121.242 18.306 120.311 C18.802 119.37 19.298 118.429 19.809 117.46 C21.26 114.696 22.691 111.923 24.114 109.144 C25.206 107.015 26.302 104.888 27.399 102.761 C30.659 96.44 33.919 90.118 37.15 83.782 C37.531 83.037 37.911 82.293 38.303 81.525 C39.022 80.118 39.739 78.709 40.454 77.3 C41.893 74.482 43.36 71.823 45.118 69.186 C45.118 67.866 45.118 66.546 45.118 65.186 C40.676 62.717 36.814 61.568 31.802 60.791 C31.089 60.679 30.376 60.566 29.642 60.45 C27.281 60.08 24.919 59.726 22.556 59.373 C20.885 59.117 19.214 58.86 17.543 58.603 C-8.524 54.63 -34.685 51.188 -60.882 48.186 C-60.882 47.196 -60.882 46.206 -60.882 45.186 C-59.837 45.317 -59.837 45.317 -58.771 45.452 C-52.182 46.281 -45.591 47.105 -39 47.924 C-35.613 48.345 -32.225 48.768 -28.838 49.195 C-24.937 49.687 -21.034 50.171 -17.132 50.655 C-15.323 50.884 -15.323 50.884 -13.479 51.119 C-7.563 51.845 -1.842 52.366 4.118 52.186 C0.83 49.994 -2.161 49.186 -5.944 48.311 C-7.03 48.057 -7.03 48.057 -8.137 47.798 C-20.708 44.986 -33.57 43.173 -46.354 41.635 C-49.882 41.186 -49.882 41.186 -52.499 40.561 C-61.588 39.051 -64.674 47.241 -68.588 54.012 Z M-136.882 67.186 C-143.932 77.214 -150.96 87.256 -157.882 97.373 C-158.396 98.125 -158.911 98.877 -159.441 99.652 C-160.427 101.097 -161.412 102.544 -162.393 103.992 C-163.453 105.553 -164.518 107.111 -165.589 108.665 C-166.139 109.472 -166.689 110.28 -167.257 111.112 C-167.759 111.844 -168.262 112.577 -168.78 113.332 C-170.052 115.113 -170.052 115.113 -169.882 117.186 C-168.562 117.186 -167.242 117.186 -165.882 117.186 C-165.222 119.166 -164.562 121.146 -163.882 123.186 C-162.228 123.516 -162.228 123.516 -160.541 123.853 C-139.017 128.163 -117.534 132.618 -96.132 137.498 C-95.226 137.704 -94.319 137.911 -93.386 138.123 C-83.293 140.424 -73.23 142.809 -63.201 145.372 C-60.291 146.085 -57.386 146.684 -54.444 147.248 C-52.681 147.712 -52.681 147.712 -50.882 148.186 C-50.552 149.176 -50.222 150.166 -49.882 151.186 C-61.925 148.437 -73.961 145.671 -85.955 142.716 C-98.751 139.57 -111.588 136.653 -124.467 133.866 C-126.357 133.457 -128.247 133.045 -130.137 132.632 C-132.799 132.051 -135.463 131.478 -138.128 130.908 C-139.321 130.646 -139.321 130.646 -140.539 130.379 C-146.661 129.075 -146.661 129.075 -152.882 129.186 C-156.055 131.584 -157.693 134.413 -158.882 138.186 C-158.318 142.58 -156.629 146.26 -154.757 150.248 C-154.3 151.305 -153.844 152.361 -153.374 153.449 C-152.246 156.047 -151.082 158.621 -149.882 161.186 C-125.62 164.236 -101.34 166.209 -76.94 167.79 C-75.762 167.869 -74.583 167.947 -73.369 168.028 C-71.162 168.175 -68.954 168.316 -66.746 168.452 C-61.73 168.787 -56.733 169.239 -51.753 169.931 C-50.42 170.11 -50.42 170.11 -49.059 170.293 C-46.882 171.186 -46.882 171.186 -45.765 173.702 C-45.473 174.521 -45.182 175.341 -44.882 176.186 C-43.397 176.681 -43.397 176.681 -41.882 177.186 C-42.511 180.123 -43.506 182.524 -44.882 185.186 C-30.63 181.153 -16.491 176.875 -2.507 171.998 C-1.32 171.595 -0.133 171.192 1.09 170.776 C6.885 168.716 11.196 167.125 15.118 162.186 C16.096 161.078 17.079 159.974 18.064 158.873 C19.126 157.646 20.186 156.417 21.243 155.186 C21.805 154.535 22.366 153.884 22.944 153.214 C24.672 151.207 26.396 149.197 28.118 147.186 C28.66 146.554 29.202 145.921 29.76 145.27 C31.278 143.494 32.793 141.716 34.306 139.936 C34.763 139.4 35.22 138.863 35.691 138.311 C39.806 133.841 39.806 133.841 41.118 128.186 C35.738 126.995 30.665 125.894 25.118 126.186 C22.643 130.641 22.643 130.641 20.118 135.186 C17.272 135.186 14.893 134.755 12.118 134.186 C11.458 134.186 10.798 134.186 10.118 134.186 C10.118 135.506 10.118 136.826 10.118 138.186 C8.658 138.004 8.658 138.004 7.168 137.819 C3.544 137.368 -0.081 136.922 -3.706 136.477 C-5.273 136.284 -6.839 136.09 -8.405 135.895 C-10.661 135.614 -12.918 135.337 -15.175 135.061 C-15.871 134.973 -16.567 134.886 -17.284 134.796 C-22.571 134.133 -22.571 134.133 -27.882 134.186 C-29.719 136.033 -29.719 136.033 -31.069 138.498 C-31.558 139.299 -32.046 140.099 -32.55 140.924 C-32.989 141.67 -33.429 142.417 -33.882 143.186 C-34.542 144.176 -35.202 145.166 -35.882 146.186 C-36.542 146.186 -37.202 146.186 -37.882 146.186 C-36.558 141.554 -34.584 138.15 -31.882 134.186 C-31.882 133.526 -31.882 132.866 -31.882 132.186 C-32.542 132.186 -33.202 132.186 -33.882 132.186 C-35.364 134.788 -36.843 137.393 -38.319 139.998 C-38.74 140.736 -39.161 141.474 -39.594 142.235 C-39.997 142.947 -40.4 143.659 -40.815 144.393 C-41.187 145.047 -41.559 145.702 -41.942 146.376 C-43.017 148.331 -43.017 148.331 -43.882 151.186 C-44.872 151.186 -45.862 151.186 -46.882 151.186 C-46.294 147.336 -45.161 144.526 -43.221 141.158 C-42.679 140.208 -42.137 139.259 -41.578 138.28 C-40.998 137.279 -40.417 136.279 -39.819 135.248 C-38.929 133.698 -38.929 133.698 -38.021 132.117 C-36.84 130.062 -35.657 128.008 -34.472 125.955 C-33.17 123.688 -31.889 121.413 -30.628 119.123 C-26.635 111.921 -22.233 105.135 -17.473 98.424 C-15.546 95.696 -13.945 93.375 -12.882 90.186 C-15.028 89.113 -16.564 88.889 -18.937 88.597 C-19.77 88.489 -20.603 88.381 -21.461 88.27 C-22.366 88.153 -23.27 88.037 -24.202 87.916 C-34.293 86.542 -44.111 84.477 -54.017 82.142 C-71.46 78.046 -88.961 74.586 -106.632 71.623 C-107.639 71.454 -108.647 71.284 -109.686 71.109 C-112.557 70.628 -115.43 70.153 -118.303 69.682 C-119.142 69.544 -119.981 69.406 -120.845 69.263 C-126.179 68.405 -131.508 67.746 -136.882 67.186 Z M48.118 71.186 C43.034 80.187 38.004 89.191 33.46 98.479 C31.206 103.066 28.86 107.6 26.474 112.119 C25.823 113.356 25.172 114.593 24.522 115.831 C23.542 117.693 22.559 119.554 21.568 121.411 C20.639 123.152 19.72 124.899 18.802 126.647 C17.991 128.175 17.991 128.175 17.163 129.734 C16.818 130.543 16.474 131.352 16.118 132.186 C16.448 132.846 16.778 133.506 17.118 134.186 C23.73 122.223 30.206 110.197 36.493 98.061 C37.063 96.961 37.633 95.861 38.22 94.728 C39.318 92.602 40.411 90.475 41.5 88.345 C42.623 86.153 43.757 83.966 44.901 81.784 C45.46 80.703 46.019 79.621 46.595 78.506 C47.104 77.532 47.612 76.557 48.136 75.553 C48.461 74.772 48.785 73.991 49.118 73.186 C48.623 72.196 48.623 72.196 48.118 71.186 Z M-229.882 96.186 C-220.095 108.291 -207.545 117.201 -195.171 126.467 C-193.755 127.53 -192.349 128.607 -190.944 129.686 C-190.193 130.253 -189.441 130.82 -188.667 131.405 C-186.882 133.186 -186.882 133.186 -186.12 135.51 C-184.177 139.709 -180.68 141.81 -177.007 144.498 C-176.248 145.066 -175.49 145.633 -174.708 146.218 C-168.58 150.766 -162.317 155.082 -155.882 159.186 C-154.62 155.402 -155.355 154.289 -156.796 150.627 C-157.443 148.963 -157.443 148.963 -158.104 147.266 C-158.567 146.105 -159.03 144.944 -159.507 143.748 C-159.946 142.622 -160.386 141.496 -160.839 140.336 C-161.729 138.066 -162.635 135.802 -163.556 133.545 C-164.427 131.336 -165.235 129.102 -165.971 126.844 C-167.863 121.38 -169.3 117.889 -174.557 115.143 C-176.419 114.384 -178.3 113.671 -180.194 112.998 C-181.196 112.604 -182.199 112.209 -183.232 111.803 C-186.434 110.555 -189.655 109.37 -192.882 108.186 C-195.061 107.351 -197.24 106.512 -199.417 105.67 C-205.216 103.445 -211.031 101.274 -216.882 99.186 C-217.724 98.883 -218.566 98.58 -219.433 98.267 C-220.223 97.992 -221.013 97.716 -221.827 97.432 C-222.515 97.19 -223.204 96.948 -223.913 96.699 C-226.188 96.018 -226.188 96.018 -229.882 96.186 Z M-13.882 99.186 C-12.882 101.186 -12.882 101.186 -12.882 101.186 Z M39.118 101.186 C31.807 111.104 31.807 111.104 28.118 122.186 C29.25 122.463 30.382 122.74 31.548 123.026 C33.03 123.391 34.512 123.757 35.993 124.123 C36.74 124.306 37.486 124.488 38.255 124.676 C43.892 126.073 43.892 126.073 46.118 127.186 C45.693 132.395 44.245 134.674 40.618 138.373 C39.716 139.322 38.814 140.271 37.884 141.248 C37.422 141.733 36.96 142.218 36.484 142.717 C30.547 149.104 25.259 156.15 20.118 163.186 C24.476 161.602 26.941 158.206 29.806 154.748 C30.33 154.126 30.855 153.504 31.396 152.862 C35.411 148.084 39.365 143.254 43.279 138.393 C46.303 134.764 46.303 134.764 48.118 133.186 C48.778 133.186 49.438 133.186 50.118 133.186 C49.552 137.069 47.78 138.943 45.118 141.748 C36.742 150.327 36.742 150.327 30.118 160.186 C49.755 156.162 69.24 149.815 88.118 143.123 C89.189 142.761 90.261 142.399 91.364 142.026 C99.976 138.867 106.979 133.894 112.118 126.186 C106.751 123.78 101.332 121.865 95.732 120.076 C94.835 119.787 93.938 119.497 93.013 119.198 C90.153 118.274 87.292 117.355 84.431 116.436 C70.868 112.077 57.364 107.6 43.941 102.827 C42.339 102.263 40.729 101.723 39.118 101.186 Z M-15.882 102.186 C-15.882 105.186 -15.882 105.186 -15.882 105.186 Z M-18.882 107.186 C-20.32 109.414 -21.757 111.644 -23.194 113.873 C-23.598 114.499 -24.002 115.125 -24.419 115.77 C-25.579 117.571 -26.73 119.378 -27.882 121.186 C-28.769 122.557 -28.769 122.557 -29.675 123.955 C-31.12 126.203 -31.12 126.203 -30.882 129.186 C-30.222 129.186 -29.562 129.186 -28.882 129.186 C-26.719 126.258 -25.005 123.028 -23.194 119.873 C-22.67 118.992 -22.146 118.111 -21.606 117.203 C-21.116 116.356 -20.625 115.508 -20.12 114.635 C-19.667 113.855 -19.213 113.074 -18.746 112.271 C-17.561 110.056 -17.561 110.056 -18.882 107.186 Z M-24.882 128.186 C-25.212 128.846 -25.542 129.506 -25.882 130.186 C-22.695 130.694 -19.507 131.191 -16.319 131.686 C-14.976 131.9 -14.976 131.9 -13.606 132.119 C-8.632 132.885 -3.914 133.351 1.118 133.186 C-1.957 131.447 -4.59 130.781 -8.085 130.334 C-9.554 130.141 -9.554 130.141 -11.053 129.944 C-12.069 129.817 -13.085 129.691 -14.132 129.561 C-15.163 129.427 -16.194 129.293 -17.257 129.155 C-19.798 128.825 -22.339 128.502 -24.882 128.186 Z " fill="#000000" transform="translate(474.881591796875,370.814208984375)"/>
<path d="M0 0 C0.66 0.33 1.32 0.66 2 1 C1.494 6.534 0.044 10.56 -2.562 15.438 C-2.892 16.074 -3.221 16.71 -3.561 17.365 C-4.365 18.915 -5.181 20.458 -6 22 C-6.66 22 -7.32 22 -8 22 C-7.379 17.01 -5.905 12.793 -4 8.188 C-3.727 7.508 -3.453 6.828 -3.172 6.127 C-1.146 1.146 -1.146 1.146 0 0 Z " fill="#000000" transform="translate(160,385)"/>
<path d="M0 0 C0.66 0.33 1.32 0.66 2 1 C1.396 4.85 0.232 7.861 -1.562 11.312 C-2.018 12.196 -2.473 13.079 -2.941 13.988 C-3.291 14.652 -3.64 15.316 -4 16 C-4.99 16 -5.98 16 -7 16 C-2.893 2.893 -2.893 2.893 0 0 Z " fill="#000000" transform="translate(162,395)"/>
<path d="M0 0 C6.808 0.145 11.459 3.27 17 7 C17.976 7.607 17.976 7.607 18.973 8.227 C20.625 9.375 20.625 9.375 23 12 C23.617 18.609 22.105 24.104 20.125 30.375 C19.856 31.276 19.586 32.177 19.309 33.105 C17.274 39.726 17.274 39.726 15 42 C8.726 42.095 4.838 38.146 0.25 34.375 C-1.345 33.093 -2.941 31.813 -4.539 30.535 C-5.304 29.922 -6.069 29.308 -6.856 28.676 C-10.254 26.019 -13.809 23.652 -17.445 21.332 C-17.958 20.892 -18.471 20.453 -19 20 C-19 19.01 -19 18.02 -19 17 C-14.25 17.875 -14.25 17.875 -12 19 C-12.33 17.68 -12.66 16.36 -13 15 C-6.629 18.128 -1.136 22.032 4.393 26.433 C7.478 28.88 10.573 31.058 14 33 C14.679 30.983 15.343 28.961 16 26.938 C16.371 25.812 16.742 24.687 17.125 23.527 C18.069 19.723 18.55 16.893 18 13 C15.666 10.385 15.666 10.385 12.438 8.5 C11.405 7.809 10.372 7.118 9.309 6.406 C5.183 4.653 3.3 4.789 -1 6 C-4.393 7.713 -7.499 9.834 -10.658 11.938 C-15.561 15.076 -15.561 15.076 -18.214 14.615 C-18.803 14.412 -19.393 14.209 -20 14 C-18.619 10.62 -17.368 9.309 -14.121 7.676 C-13.365 7.287 -12.609 6.898 -11.83 6.498 C-11.041 6.107 -10.251 5.716 -9.438 5.312 C-7.873 4.518 -6.309 3.723 -4.746 2.926 C-4.052 2.579 -3.358 2.233 -2.642 1.876 C-1.011 1.108 -1.011 1.108 0 0 Z M-9 22 C-8.67 22.66 -8.34 23.32 -8 24 C-7.34 23.67 -6.68 23.34 -6 23 C-6.99 22.67 -7.98 22.34 -9 22 Z M-6 24 C-5.01 25.32 -4.02 26.64 -3 28 C-2.34 27.67 -1.68 27.34 -1 27 C-2.375 25.458 -2.375 25.458 -4 24 C-4.66 24 -5.32 24 -6 24 Z M-1 28 C-0.01 29.485 -0.01 29.485 1 31 C1.66 30.67 2.32 30.34 3 30 C1.68 29.34 0.36 28.68 -1 28 Z M3 31 C3.33 31.66 3.66 32.32 4 33 C4.66 32.67 5.32 32.34 6 32 C5.01 31.67 4.02 31.34 3 31 Z M6 33 C7.623 34.709 9.293 36.374 11 38 C11.66 38 12.32 38 13 38 C13 37.34 13 36.68 13 36 C9.779 33.684 9.779 33.684 6 33 Z " fill="#000000" transform="translate(687,395)"/>
<path d="M0 0 C1.32 0.33 2.64 0.66 4 1 C3.67 5.62 3.34 10.24 3 15 C4.32 15.66 5.64 16.32 7 17 C9.75 18.5 9.75 18.5 12 20 C12 20.66 12 21.32 12 22 C9.03 21.67 6.06 21.34 3 21 C3.021 22.279 3.041 23.558 3.062 24.875 C3.125 28.75 3.125 28.75 2 31 C0.68 30.67 -0.64 30.34 -2 30 C-2.169 28.584 -2.335 27.167 -2.5 25.75 C-2.593 24.961 -2.686 24.172 -2.781 23.359 C-3 21 -3 21 -3 17 C-3.849 16.619 -3.849 16.619 -4.715 16.23 C-5.815 15.714 -5.815 15.714 -6.938 15.188 C-7.668 14.851 -8.399 14.515 -9.152 14.168 C-11 13 -11 13 -12 10 C-7.946 8.842 -5.782 9.163 -2 11 C-1.939 10.374 -1.879 9.747 -1.816 9.102 C-1.733 8.284 -1.649 7.467 -1.562 6.625 C-1.481 5.813 -1.4 5.001 -1.316 4.164 C-1 2 -1 2 0 0 Z " fill="#000000" transform="translate(735,411)"/>
<path d="M0 0 C6.93 0.495 6.93 0.495 14 1 C14.33 1.99 14.66 2.98 15 4 C9.01 4.315 5.364 3.682 0 1 C0 0.67 0 0.34 0 0 Z " fill="#000000" transform="translate(119,413)"/>
<path d="M0 0 C0 0.99 0 1.98 0 3 C-5.94 3 -11.88 3 -18 3 C-17.67 2.34 -17.34 1.68 -17 1 C-11.316 -0.015 -5.761 -0.12 0 0 Z " fill="#000000" transform="translate(126,423)"/>
<path d="M0 0 C0.66 0.33 1.32 0.66 2 1 C1.863 2.758 1.863 2.758 1 5 C-11.677 14.956 -28.582 18.236 -44 21.438 C-44.843 21.614 -45.685 21.79 -46.553 21.972 C-47.34 22.124 -48.127 22.277 -48.938 22.434 C-49.627 22.568 -50.317 22.703 -51.027 22.842 C-53.235 23.019 -54.894 22.646 -57 22 C-55.535 21.608 -55.535 21.608 -54.041 21.209 C-50.331 20.212 -46.627 19.193 -42.925 18.167 C-41.339 17.731 -39.751 17.3 -38.161 16.876 C-24.335 13.181 -11.844 8.159 0 0 Z " fill="#000000" transform="translate(134,424)"/>
<path d="M0 0 C0 2.188 0 2.188 -1 5 C-5.657 9.075 -11.946 11.83 -18 13 C-18.99 12.67 -19.98 12.34 -21 12 C-20.047 11.469 -19.095 10.938 -18.113 10.391 C-16.846 9.677 -15.579 8.964 -14.312 8.25 C-13.687 7.902 -13.061 7.554 -12.416 7.195 C-9.458 5.523 -6.833 3.867 -4.168 1.734 C-2 0 -2 0 0 0 Z " fill="#000000" transform="translate(139,436)"/>
<path d="M0 0 C0.99 0.33 1.98 0.66 3 1 C2.99 1.648 2.979 2.296 2.968 2.964 C2.469 39.653 4.996 76.226 7.767 112.79 C7.855 113.987 7.944 115.185 8.036 116.418 C8.204 118.681 8.376 120.944 8.555 123.207 C8.628 124.207 8.702 125.208 8.778 126.239 C8.845 127.114 8.913 127.99 8.982 128.892 C9 131 9 131 8 133 C6.68 132.67 5.36 132.34 4 132 C1.301 94.814 -1.177 57.674 -1.188 20.375 C-1.188 19.399 -1.189 18.423 -1.191 17.418 C-1.19 14.682 -1.181 11.947 -1.168 9.211 C-1.167 8.39 -1.166 7.57 -1.164 6.724 C-1.117 1.117 -1.117 1.117 0 0 Z " fill="#000000" transform="translate(185,453)"/>
<path d="M0 0 C10.833 5.019 20.72 11.127 30.751 17.57 C33.884 19.562 37.059 21.478 40.25 23.375 C41.462 24.099 42.674 24.823 43.887 25.547 C46.1 26.868 48.315 28.187 50.53 29.506 C67.381 39.561 83.64 50.305 99.61 61.706 C121.788 77.52 145.386 91.85 170.06 103.412 C174.913 105.732 178.564 107.817 182 112 C183.084 115.251 183.122 117.594 183.115 121.015 C183.115 122.275 183.114 123.534 183.113 124.831 C183.107 126.23 183.101 127.629 183.094 129.027 C183.09 130.497 183.086 131.966 183.083 133.435 C183.027 151.563 182.779 169.689 182.536 187.814 C182.475 192.482 182.415 197.15 182.355 201.818 C182.239 210.879 182.121 219.939 182 229 C181.01 229 180.02 229 179 229 C178 228 178 228 177.885 226.157 C177.89 225.346 177.895 224.535 177.9 223.699 C177.903 222.771 177.906 221.843 177.909 220.887 C177.917 219.86 177.926 218.834 177.934 217.776 C177.941 216.164 177.941 216.164 177.948 214.52 C177.959 212.176 177.971 209.833 177.986 207.49 C178.008 203.784 178.022 200.078 178.034 196.371 C178.067 185.83 178.109 175.288 178.171 164.747 C178.209 158.307 178.232 151.867 178.246 145.428 C178.254 142.97 178.267 140.512 178.287 138.055 C178.313 134.617 178.321 131.179 178.325 127.741 C178.343 126.214 178.343 126.214 178.362 124.655 C178.351 117.836 178.351 117.836 175 112 C173.282 110.648 173.282 110.648 171.289 109.746 C170.55 109.373 169.811 109 169.05 108.616 C168.25 108.227 167.449 107.838 166.625 107.438 C164.892 106.559 163.16 105.678 161.43 104.793 C160.083 104.107 160.083 104.107 158.71 103.408 C139.973 93.675 120.747 82.925 103.902 70.176 C86.536 57.157 68.286 45.467 49.648 34.375 C45.453 31.876 41.273 29.351 37.102 26.812 C36.505 26.45 35.909 26.087 35.294 25.713 C32.861 24.232 30.428 22.751 27.997 21.267 C22.177 17.716 16.356 14.176 10.434 10.797 C9.629 10.336 8.824 9.876 7.995 9.401 C6.542 8.575 5.085 7.759 3.62 6.955 C1.734 5.883 1.734 5.883 -1 4 C-1 1 -1 1 0 0 Z " fill="#000000" transform="translate(197,466)"/>
<path d="M0 0 C1.32 0.33 2.64 0.66 4 1 C4 3.97 4 6.94 4 10 C4.69 10.097 5.381 10.195 6.092 10.295 C9.595 11.144 12.345 12.58 15.523 14.281 C16.142 14.611 16.761 14.941 17.399 15.28 C19.395 16.346 21.385 17.422 23.375 18.5 C24.739 19.234 26.104 19.968 27.468 20.702 C52.793 34.369 52.793 34.369 58 40 C51.635 39.629 46.912 36.345 41.562 33.188 C32.199 27.766 22.724 22.64 13.1 17.696 C12.183 17.224 11.265 16.752 10.32 16.266 C9.508 15.851 8.696 15.436 7.86 15.009 C6 14 6 14 5 13 C5 16.3 5 19.6 5 23 C5.987 23.543 6.975 24.085 7.992 24.645 C9.287 25.367 10.581 26.089 11.875 26.812 C12.526 27.169 13.177 27.525 13.848 27.893 C17.066 29.701 18.92 30.88 21 34 C15.147 33.55 10.918 30.962 6 28 C5.67 29.32 5.34 30.64 5 32 C5.853 32.243 6.707 32.486 7.586 32.736 C11.309 34.114 14.371 35.994 17.621 38.219 C18.243 38.636 18.865 39.053 19.505 39.484 C21.487 40.816 23.462 42.158 25.438 43.5 C26.728 44.37 28.019 45.24 29.311 46.109 C31.901 47.854 34.49 49.602 37.077 51.352 C51.277 60.948 51.277 60.948 65.756 70.113 C67.204 71.024 68.608 72.005 70 73 C70 73.66 70 74.32 70 75 C65.537 73.421 61.666 71.083 57.688 68.562 C56.637 67.902 56.637 67.902 55.566 67.228 C49.977 63.684 44.52 59.966 39.086 56.189 C28.325 48.727 17.318 41.59 6 35 C6 36.65 6 38.3 6 40 C6.694 40.242 7.387 40.485 8.102 40.734 C11.479 42.209 14.363 44.158 17.375 46.25 C23.888 50.689 30.56 54.813 37.312 58.875 C46.71 64.543 55.889 70.461 64.968 76.623 C68.156 78.784 71.358 80.925 74.562 83.062 C75.171 83.469 75.779 83.875 76.406 84.293 C81.612 87.76 86.859 91.161 92.115 94.552 C98.13 98.433 104.13 102.338 110.125 106.25 C111.092 106.88 112.059 107.51 113.055 108.16 C118.039 111.409 123.017 114.667 127.984 117.941 C145.555 129.503 163.523 139.959 182 150 C182 150.66 182 151.32 182 152 C176.862 150.502 172.501 148.245 167.875 145.625 C166.699 144.963 166.699 144.963 165.499 144.288 C149.852 135.429 134.737 125.945 119.82 115.906 C114.87 112.575 109.887 109.3 104.875 106.062 C98.219 101.759 91.589 97.418 84.973 93.055 C84.155 92.516 83.338 91.977 82.495 91.422 C79.173 89.231 75.85 87.041 72.53 84.846 C57.375 74.83 42.14 64.934 26.5 55.688 C19.589 51.572 12.741 47.391 6 43 C6.155 43.762 6.309 44.524 6.469 45.309 C7.315 51.19 7.395 57.1 7.605 63.033 C7.662 64.457 7.662 64.457 7.719 65.91 C7.749 66.767 7.779 67.625 7.811 68.508 C8.088 72.312 8.088 72.312 9 76 C11.088 77.868 11.088 77.868 13.836 79.355 C14.868 79.969 15.899 80.582 16.962 81.214 C18.088 81.865 19.215 82.517 20.375 83.188 C22.758 84.601 25.133 86.029 27.508 87.457 C28.122 87.825 28.737 88.193 29.37 88.572 C36.129 92.639 42.701 96.979 49.25 101.375 C49.818 101.756 50.387 102.137 50.972 102.53 C71.805 116.526 71.805 116.526 76 120 C76 120.66 76 121.32 76 122 C72.305 120.662 69.342 119.009 66.148 116.727 C65.225 116.073 64.301 115.419 63.349 114.745 C62.368 114.045 61.386 113.346 60.375 112.625 C43.465 100.731 26.031 90.103 8 80 C8.272 81.933 8.272 81.933 9 84 C11.352 85.679 13.631 87.127 16.125 88.562 C21.683 91.892 27.015 95.349 32.188 99.25 C41.516 106.242 51.271 112.585 61 119 C92.961 140.108 92.961 140.108 106 151 C102.541 151 101.887 150.448 99.191 148.438 C98.081 147.62 98.081 147.62 96.948 146.785 C96.161 146.196 95.374 145.607 94.562 145 C92.914 143.789 91.264 142.579 89.613 141.371 C88.814 140.784 88.014 140.198 87.19 139.593 C78.394 133.194 69.096 127.518 59.91 121.702 C51.748 116.516 43.698 111.17 35.665 105.787 C27.169 100.097 18.602 94.53 10 89 C10 96.59 10 104.18 10 112 C8.68 112 7.36 112 6 112 C4.402 97.18 3.565 82.359 2.878 67.475 C2.407 57.333 1.846 47.234 0.875 37.125 C-0.302 24.76 -0.196 12.41 0 0 Z " fill="#000000" transform="translate(190,470)"/>
<path d="M0 0 C18.779 6.558 18.779 6.558 22 13 C13.822 10.603 6.533 6.911 -1 3 C-0.67 2.01 -0.34 1.02 0 0 Z " fill="#000000" transform="translate(269,478)"/>
<path d="M0 0 C0.718 0.241 1.437 0.482 2.177 0.731 C16.745 5.618 31.325 10.442 46 15 C46 15.66 46 16.32 46 17 C39.164 16.379 32.88 14.708 26.312 12.75 C25.253 12.436 24.194 12.123 23.103 11.8 C1.971 5.457 1.971 5.457 -1 1 C-0.67 0.67 -0.34 0.34 0 0 Z " fill="#000000" transform="translate(528,483)"/>
<path d="M0 0 C-0.105 1.852 -0.105 1.852 -1 4 C-3.676 5.273 -3.676 5.273 -7.312 6.375 C-7.976 6.581 -8.64 6.787 -9.324 6.999 C-11.545 7.682 -13.772 8.341 -16 9 C-17.569 9.477 -19.137 9.955 -20.705 10.435 C-25.795 11.984 -30.896 13.495 -36 15 C-36.867 15.256 -37.734 15.512 -38.627 15.776 C-48.226 18.609 -57.833 21.414 -67.441 24.215 C-68.267 24.456 -69.093 24.697 -69.944 24.945 C-73.651 26.025 -77.357 27.104 -81.066 28.176 C-94.641 32.118 -107.455 36.431 -120 43 C-120.33 41.68 -120.66 40.36 -121 39 C-115.632 35.379 -110.366 32.722 -104.266 30.574 C-103.445 30.279 -102.624 29.984 -101.779 29.68 C-93.408 26.712 -84.929 24.119 -76.413 21.601 C-72.717 20.507 -69.024 19.399 -65.331 18.292 C-63.42 17.72 -61.508 17.148 -59.596 16.576 C-50.339 13.809 -41.096 10.994 -31.859 8.157 C-29.369 7.392 -26.879 6.631 -24.388 5.87 C-22.859 5.401 -21.33 4.931 -19.801 4.461 C-18.788 4.152 -18.788 4.152 -17.755 3.838 C-14.352 2.787 -11.062 1.626 -7.762 0.284 C-4.084 -0.971 -3.413 -1.122 0 0 Z " fill="#000000" transform="translate(687,485)"/>
<path d="M0 0 C0.99 0 1.98 0 3 0 C2.89 0.844 2.781 1.689 2.668 2.559 C1.601 11.17 0.738 19.785 -0.01 28.43 C-1.067 40.621 -2.223 52.79 -3.748 64.933 C-3.993 66.879 -4.23 68.827 -4.466 70.774 C-5.375 77.768 -6.691 84.329 -9 91 C-9.33 91 -9.66 91 -10 91 C-9.67 88.03 -9.34 85.06 -9 82 C-9.744 82.256 -10.488 82.513 -11.255 82.777 C-18.301 85.205 -25.348 87.632 -32.394 90.059 C-36.016 91.306 -39.637 92.554 -43.259 93.802 C-46.76 95.008 -50.262 96.214 -53.763 97.42 C-55.093 97.877 -56.422 98.335 -57.751 98.794 C-60.779 99.837 -63.808 100.878 -66.839 101.913 C-68.824 102.595 -70.804 103.291 -72.777 104.005 C-78.681 106.106 -78.681 106.106 -82 105 C-80.915 104.603 -79.83 104.206 -78.712 103.798 C-75.455 102.606 -72.197 101.415 -68.94 100.223 C-65.216 98.861 -61.493 97.499 -57.769 96.138 C-49.064 92.956 -40.361 89.769 -31.668 86.555 C-29.612 85.796 -27.556 85.037 -25.5 84.278 C-24.211 83.802 -22.922 83.325 -21.634 82.846 C-19.863 82.187 -18.09 81.533 -16.316 80.879 C-14.838 80.331 -14.838 80.331 -13.33 79.772 C-11 79 -11 79 -9 79 C-8.927 77.689 -8.927 77.689 -8.852 76.352 C-8.234 66.19 -7.193 56.109 -6 46 C-14.559 48.411 -22.9 51.394 -31.25 54.438 C-32.314 54.823 -32.314 54.823 -33.398 55.216 C-41.562 58.178 -49.679 61.229 -57.727 64.492 C-58.419 64.773 -59.111 65.053 -59.824 65.342 C-63.137 66.688 -66.444 68.049 -69.743 69.429 C-70.918 69.913 -72.094 70.396 -73.305 70.895 C-74.851 71.542 -74.851 71.542 -76.429 72.202 C-79 73 -79 73 -82 72 C-56.942 61.213 -31.798 50.912 -6 42 C-5.34 36.72 -4.68 31.44 -4 26 C-5.196 26.429 -6.392 26.859 -7.624 27.301 C-12.055 28.889 -16.489 30.464 -20.925 32.036 C-22.846 32.719 -24.765 33.405 -26.684 34.094 C-29.439 35.083 -32.197 36.06 -34.957 37.035 C-35.816 37.347 -36.676 37.658 -37.561 37.979 C-38.362 38.259 -39.163 38.54 -39.988 38.828 C-40.691 39.079 -41.395 39.33 -42.121 39.589 C-44 40 -44 40 -47 39 C-32.775 33.33 -18.496 27.938 -4 23 C-3.914 22.41 -3.829 21.82 -3.74 21.212 C-3.351 18.537 -2.957 15.862 -2.562 13.188 C-2.36 11.794 -2.36 11.794 -2.154 10.373 C-1.956 9.034 -1.956 9.034 -1.754 7.668 C-1.633 6.846 -1.513 6.024 -1.389 5.177 C-1 3 -1 3 0 0 Z " fill="#000000" transform="translate(692,489)"/>
<path d="M0 0 C0.66 0 1.32 0 2 0 C2.671 2.77 3.337 5.541 4 8.312 C4.191 9.098 4.382 9.884 4.578 10.693 C4.759 11.451 4.939 12.208 5.125 12.988 C5.293 13.685 5.46 14.381 5.633 15.099 C6 17 6 17 6 20 C6.713 19.988 7.426 19.977 8.16 19.965 C13.563 19.914 18.678 20.054 24 21 C24 21.99 24 22.98 24 24 C18.429 25.592 13.789 26.207 8 26 C8.217 27.025 8.433 28.05 8.656 29.105 C8.938 30.466 9.219 31.827 9.5 33.188 C9.643 33.861 9.786 34.535 9.934 35.229 C10.681 38.875 11.174 42.276 11 46 C9.68 45.67 8.36 45.34 7 45 C6.325 42.773 5.66 40.544 5 38.312 C4.629 37.071 4.257 35.83 3.875 34.551 C3 31 3 31 3 26 C-1.29 26 -5.58 26 -10 26 C-10 24.68 -10 23.36 -10 22 C-7.249 21.083 -5.641 20.891 -2.812 20.938 C-0.925 20.968 -0.925 20.968 1 21 C0.836 20.172 0.673 19.345 0.504 18.492 C-0.046 14.678 -0.111 10.966 -0.062 7.125 C-0.058 6.437 -0.053 5.748 -0.049 5.039 C-0.037 3.359 -0.019 1.68 0 0 Z " fill="#000000" transform="translate(134,504)"/>
<path d="M0 0 C0 0.66 0 1.32 0 2 C-4.498 3.596 -9.001 5.181 -13.507 6.755 C-15.04 7.292 -16.571 7.832 -18.102 8.376 C-20.301 9.156 -22.503 9.925 -24.707 10.691 C-25.734 11.06 -25.734 11.06 -26.781 11.436 C-31.658 13.114 -31.658 13.114 -35 12 C-15.876 4.277 -15.876 4.277 -8.5 1.5 C-7.706 1.201 -6.912 0.902 -6.094 0.594 C-4 0 -4 0 0 0 Z " fill="#000000" transform="translate(687,505)"/>
<path d="M0 0 C17.674 3.65 37.009 8.423 53 17 C53.495 17.99 53.495 17.99 54 19 C49.469 18.234 45.189 16.828 40.84 15.383 C39.225 14.853 37.609 14.323 35.994 13.793 C33.475 12.963 30.957 12.131 28.439 11.298 C19.03 8.19 9.679 5.178 0 3 C0 2.01 0 1.02 0 0 Z " fill="#000000" transform="translate(332,506)"/>
<path d="M0 0 C2.25 1 2.25 1 4.25 4 C5.747 17.159 3.054 31.187 -4.75 42 C-8.483 46.055 -12.343 49.479 -17.75 51 C-12.939 52.013 -10.686 52.381 -6.062 50.5 C0.867 45.87 3.523 38.571 6.25 31 C7.57 31 8.89 31 10.25 31 C7.064 40.683 3.839 49.04 -4.75 55 C-9.763 57.451 -14.447 57.532 -19.75 56 C-25.091 53.154 -28.686 49.806 -30.75 44 C-30.75 43.01 -30.75 42.02 -30.75 41 C-31.74 40.67 -32.73 40.34 -33.75 40 C-33.09 40 -32.43 40 -31.75 40 C-31.75 39.01 -31.75 38.02 -31.75 37 C-32.348 37.351 -32.946 37.701 -33.562 38.062 C-35.75 39 -35.75 39 -38.75 38 C-37.781 37.567 -36.811 37.134 -35.812 36.688 C-32.473 35.299 -32.473 35.299 -31.75 32 C-32.699 32.516 -33.648 33.031 -34.625 33.562 C-35.656 34.037 -36.688 34.511 -37.75 35 C-38.41 34.67 -39.07 34.34 -39.75 34 C-37.44 32.68 -35.13 31.36 -32.75 30 C-32.75 29.34 -32.75 28.68 -32.75 28 C-35.72 28.495 -35.72 28.495 -38.75 29 C-36.39 26.64 -34.971 26.509 -31.75 26 C-31.75 23.36 -31.75 20.72 -31.75 18 C-62.3 26.175 -92.4 36.763 -121.961 47.965 C-130.187 51.079 -138.437 53.944 -146.875 56.438 C-147.728 56.697 -148.582 56.956 -149.461 57.224 C-155.063 58.825 -159.924 59.24 -165.75 59 C-166.245 57.515 -166.245 57.515 -166.75 56 C-165.536 55.743 -164.321 55.487 -163.07 55.223 C-146.07 51.486 -129.955 45.733 -113.631 39.765 C-109.963 38.424 -106.294 37.086 -102.625 35.75 C-101.882 35.479 -101.138 35.208 -100.372 34.928 C-83.702 28.861 -66.85 23.376 -49.949 17.99 C-48.921 17.662 -48.921 17.662 -47.872 17.328 C-47.203 17.115 -46.534 16.902 -45.845 16.682 C-44.348 16.195 -42.856 15.691 -41.368 15.178 C-40.578 14.905 -39.788 14.633 -38.973 14.352 C-37.902 13.976 -37.902 13.976 -36.809 13.593 C-33.713 12.702 -30.935 12.675 -27.75 13 C-25.148 15.602 -25.404 16.929 -25.188 20.559 C-25.075 22.221 -25.075 22.221 -24.961 23.916 C-24.857 25.659 -24.857 25.659 -24.75 27.438 C-24.612 29.728 -24.467 32.019 -24.312 34.309 C-24.252 35.328 -24.191 36.346 -24.129 37.396 C-23.907 40.23 -23.907 40.23 -21.75 43 C-16.232 40.771 -14.187 36.189 -11.75 31 C-9.461 24.261 -8.625 18.098 -8.938 11 C-9.082 5.567 -9.082 5.567 -7.602 3.039 C-5.18 0.814 -3.276 0 0 0 Z " fill="#000000" transform="translate(558.75,523)"/>
<path d="M0 0 C-5.625 3 -5.625 3 -9 3 C-9 2.34 -9 1.68 -9 1 C-5.574 -0.618 -3.619 -1.341 0 0 Z " fill="#000000" transform="translate(577,544)"/>
<path d="M0 0 C11.794 -0.225 23.482 0.015 35.25 0.875 C36.398 0.953 37.547 1.032 38.73 1.113 C40.325 1.239 40.325 1.239 41.953 1.367 C43.379 1.477 43.379 1.477 44.833 1.589 C45.548 1.725 46.263 1.86 47 2 C47.495 2.99 47.495 2.99 48 4 C39.986 8.007 23.672 4.629 15.062 4 C13.686 3.903 12.309 3.807 10.932 3.711 C7.621 3.479 4.31 3.242 1 3 C0.67 2.01 0.34 1.02 0 0 Z " fill="#000000" transform="translate(363,545)"/>
<path d="M0 0 C0.651 0.358 1.302 0.717 1.973 1.086 C9.041 4.961 16.157 8.729 23.312 12.438 C24.457 13.032 25.602 13.627 26.782 14.24 C33.244 17.588 39.732 20.877 46.254 24.105 C46.934 24.443 47.615 24.78 48.316 25.128 C51.628 26.769 54.942 28.403 58.263 30.025 C59.475 30.623 60.687 31.222 61.898 31.82 C63.487 32.598 63.487 32.598 65.107 33.391 C68.041 35.023 70.516 36.742 73 39 C73 39.66 73 40.32 73 41 C69.03 40.4 66.072 39.157 62.562 37.227 C61.513 36.655 60.464 36.083 59.383 35.493 C58.266 34.877 57.15 34.26 56 33.625 C53.646 32.339 51.292 31.053 48.938 29.77 C48.348 29.447 47.759 29.125 47.152 28.793 C42.661 26.344 38.131 23.979 33.582 21.64 C22.021 15.695 10.82 9.213 0 2 C0 1.34 0 0.68 0 0 Z " fill="#000000" transform="translate(302,552)"/>
<path d="M0 0 C2.375 0.188 2.375 0.188 5 1 C6.312 3.562 6.312 3.562 7 6 C6.01 6.66 5.02 7.32 4 8 C2 6.25 2 6.25 0 4 C0 2.68 0 1.36 0 0 Z " fill="#000000" transform="translate(107,555)"/>
<path d="M0 0 C0 0.66 0 1.32 0 2 C-4.079 3.204 -8.164 4.385 -12.25 5.562 C-13.409 5.905 -14.568 6.247 -15.762 6.6 C-17.434 7.078 -17.434 7.078 -19.141 7.566 C-20.167 7.865 -21.193 8.163 -22.251 8.471 C-24.971 8.994 -26.428 8.928 -29 8 C-25.108 6.654 -21.211 5.326 -17.312 4 C-16.21 3.618 -15.107 3.237 -13.971 2.844 C-12.904 2.483 -11.837 2.122 -10.738 1.75 C-9.759 1.415 -8.78 1.08 -7.771 0.734 C-5.045 0.012 -2.804 -0.143 0 0 Z " fill="#000000" transform="translate(680,562)"/>
<path d="M0 0 C4.405 1.316 8.013 3.057 11.938 5.438 C19.478 9.921 27.381 13.589 35.355 17.23 C36.316 17.676 37.276 18.122 38.266 18.582 C39.13 18.976 39.994 19.37 40.884 19.777 C43 21 43 21 45 24 C40.03 23.495 36.393 22.477 32.016 20.086 C30.364 19.191 30.364 19.191 28.68 18.277 C27.548 17.65 26.416 17.022 25.25 16.375 C24.134 15.77 23.017 15.166 21.867 14.543 C1.782 3.564 1.782 3.564 0 0 Z " fill="#000000" transform="translate(330,578)"/>
<path d="M0 0 C0.99 0 1.98 0 3 0 C3.107 14.345 3.075 28.663 2.562 43 C2.523 44.124 2.484 45.249 2.444 46.407 C2.164 53.626 1.66 60.806 1 68 C1.539 67.763 2.078 67.526 2.633 67.281 C5.106 66.2 7.584 65.131 10.062 64.062 C10.91 63.689 11.758 63.316 12.631 62.932 C17.48 60.854 21.736 59.45 27 59 C24.598 61.791 22.344 62.827 18.895 64.043 C17.42 64.57 17.42 64.57 15.916 65.107 C14.892 65.464 13.868 65.82 12.812 66.188 C11.259 66.74 11.259 66.74 9.674 67.303 C7.119 68.209 4.56 69.106 2 70 C2 75.94 2 81.88 2 88 C3.549 87.432 5.099 86.863 6.695 86.277 C17.518 82.329 28.359 78.447 39.312 74.875 C40.23 74.568 41.147 74.261 42.092 73.945 C42.945 73.672 43.797 73.399 44.676 73.117 C45.417 72.876 46.159 72.635 46.923 72.386 C49.269 71.95 50.753 72.26 53 73 C52.155 73.297 51.31 73.593 50.44 73.899 C46.501 75.284 42.562 76.672 38.625 78.062 C37.919 78.312 37.213 78.561 36.486 78.818 C27.287 82.068 18.127 85.379 9.092 89.069 C6.217 90.228 4.135 91 1 91 C0.67 96.61 0.34 102.22 0 108 C-1.485 108.495 -1.485 108.495 -3 109 C-6.77 97.691 -3.795 81.633 -3.379 69.766 C-3.314 67.87 -3.249 65.974 -3.184 64.079 C-3.049 60.142 -2.912 56.206 -2.773 52.27 C-2.596 47.226 -2.425 42.182 -2.256 37.139 C-2.124 33.24 -1.988 29.342 -1.851 25.444 C-1.787 23.583 -1.723 21.722 -1.661 19.861 C-1.575 17.272 -1.482 14.683 -1.389 12.095 C-1.364 11.33 -1.34 10.565 -1.315 9.778 C-1.188 6.404 -1.029 3.232 0 0 Z " fill="#000000" transform="translate(387,585)"/>
<path d="M0 0 C-0.024 1.811 -0.024 1.811 -1 4 C-3.566 5.23 -5.929 6.154 -8.617 7.031 C-9.804 7.44 -9.804 7.44 -11.014 7.856 C-12.729 8.444 -14.447 9.024 -16.167 9.597 C-18.903 10.509 -21.631 11.442 -24.358 12.379 C-32.225 15.076 -40.11 17.716 -48.014 20.303 C-66.152 26.243 -83.428 33.099 -100.707 41.212 C-101.765 41.708 -101.765 41.708 -102.844 42.215 C-103.539 42.542 -104.235 42.868 -104.952 43.205 C-111.431 46.233 -117.987 49.023 -124.625 51.688 C-125.54 52.061 -126.456 52.434 -127.399 52.819 C-132.154 54.698 -136.91 56.285 -141.836 57.659 C-151.654 60.403 -160.898 64.072 -170.255 68.098 C-173.989 69.702 -177.734 71.281 -181.478 72.862 C-183.427 73.685 -185.375 74.509 -187.323 75.333 C-211.536 85.583 -235.799 95.494 -260.688 104 C-261.568 104.302 -262.448 104.604 -263.355 104.915 C-265.842 105.765 -268.332 106.604 -270.824 107.438 C-271.915 107.808 -271.915 107.808 -273.028 108.186 C-277.356 109.611 -281.471 110.485 -286 111 C-286 109.68 -286 108.36 -286 107 C-285.056 106.689 -284.112 106.378 -283.14 106.057 C-272.081 102.408 -261.034 98.723 -250 95 C-249.336 94.776 -248.672 94.552 -247.988 94.321 C-226.141 86.933 -204.989 78.047 -183.77 69.055 C-178.727 66.919 -173.68 64.794 -168.625 62.688 C-167.566 62.245 -167.566 62.245 -166.485 61.794 C-156.946 57.831 -147.364 54.401 -137.5 51.312 C-124.82 47.325 -112.927 42.08 -100.875 36.5 C-85.454 29.369 -70.134 23.02 -53.991 17.666 C-50.063 16.352 -46.148 15.002 -42.23 13.656 C-37.173 11.92 -32.115 10.183 -27.052 8.463 C-25.502 7.937 -23.952 7.41 -22.402 6.883 C-21.664 6.632 -20.926 6.381 -20.165 6.123 C-15.097 4.395 -10.069 2.577 -5.069 0.66 C-3 0 -3 0 0 0 Z " fill="#000000" transform="translate(679,586)"/>
<path d="M0 0 C10.39 4.946 20.199 10.4 29.867 16.636 C32.097 18.062 34.345 19.458 36.598 20.848 C47.039 27.311 57.052 34.207 66.938 41.488 C70.022 43.749 73.134 45.97 76.25 48.188 C77.392 49.001 78.534 49.815 79.676 50.629 C80.23 51.024 80.783 51.418 81.354 51.825 C83.501 53.357 85.641 54.899 87.783 56.438 C90.133 58.124 92.491 59.801 94.85 61.475 C96.413 62.584 97.975 63.695 99.537 64.807 C112.695 74.159 126.021 82.927 140 91 C141.729 92.003 143.458 93.005 145.188 94.008 C147.642 95.43 150.098 96.85 152.56 98.261 C157.445 101.065 162.245 103.981 167 107 C166.67 107.66 166.34 108.32 166 109 C162.459 108.422 159.694 107.51 156.543 105.805 C155.69 105.344 154.837 104.883 153.958 104.409 C153.044 103.903 152.13 103.396 151.188 102.875 C150.224 102.344 149.261 101.814 148.268 101.267 C130.629 91.434 113.845 80.401 97.406 68.695 C93.392 65.867 89.317 63.127 85.25 60.375 C79.481 56.46 73.847 52.427 68.312 48.188 C50.03 34.247 30.328 21.723 10.359 10.336 C9.65 9.927 8.942 9.519 8.211 9.097 C6.903 8.348 5.587 7.61 4.263 6.889 C2.543 5.902 2.543 5.902 0 4 C0 2.68 0 1.36 0 0 Z " fill="#000000" transform="translate(203,587)"/>
<path d="M0 0 C-1 3 -1 3 -2.904 4.024 C-3.739 4.328 -4.574 4.632 -5.434 4.945 C-6.378 5.295 -7.323 5.645 -8.296 6.005 C-9.851 6.559 -9.851 6.559 -11.438 7.125 C-13.058 7.718 -13.058 7.718 -14.711 8.323 C-22.234 11.059 -29.801 13.661 -37.375 16.25 C-59.79 23.931 -81.87 32.28 -103.32 42.363 C-116.877 48.717 -130.647 54.585 -145.031 58.78 C-148.918 59.946 -152.719 61.314 -156.512 62.754 C-157.202 63.015 -157.892 63.275 -158.604 63.544 C-165.222 66.058 -171.788 68.698 -178.339 71.38 C-180.387 72.218 -182.435 73.053 -184.484 73.887 C-191.105 76.586 -197.721 79.295 -204.336 82.008 C-224.648 90.331 -244.97 98.099 -265.828 104.953 C-270.645 106.539 -275.423 108.199 -280.188 109.938 C-292.539 114.404 -292.539 114.404 -299 114 C-299.33 113.01 -299.66 112.02 -300 111 C-297.41 110.137 -294.82 109.273 -292.23 108.41 C-289.865 107.622 -287.5 106.832 -285.135 106.041 C-278.869 103.946 -272.599 101.865 -266.315 99.823 C-249.292 94.291 -232.602 88.486 -216.168 81.355 C-209.897 78.673 -203.571 76.123 -197.25 73.562 C-196.236 73.152 -196.236 73.152 -195.202 72.732 C-191.133 71.085 -187.063 69.442 -182.991 67.803 C-181.032 67.013 -179.074 66.221 -177.116 65.429 C-153.902 56.051 -153.902 56.051 -144.375 53.5 C-130.114 49.655 -116.593 43.056 -103.219 36.887 C-85.953 28.94 -68.462 22.12 -50.569 15.719 C-45.304 13.835 -40.051 11.921 -34.804 9.985 C-31.201 8.657 -27.594 7.337 -23.987 6.019 C-22.255 5.385 -20.525 4.747 -18.796 4.106 C-16.396 3.218 -13.992 2.344 -11.586 1.473 C-10.874 1.206 -10.162 0.939 -9.429 0.664 C-3.442 -1.477 -3.442 -1.477 0 0 Z " fill="#000000" transform="translate(686,593)"/>
<path d="M0 0 C4.853 2.735 9.603 5.588 14.312 8.562 C20.285 12.317 26.287 16.019 32.312 19.688 C34.547 21.052 36.781 22.418 39.014 23.785 C40.752 24.848 42.491 25.909 44.23 26.969 C48.537 29.641 52.587 32.402 56.5 35.625 C64.264 41.969 72.693 47.401 81 53 C86.189 56.497 91.377 59.997 96.562 63.5 C97.237 63.955 97.911 64.411 98.606 64.88 C106.487 70.205 114.319 75.576 122 81.188 C133.861 89.837 145.549 97.623 158.819 103.95 C162.904 105.917 166.948 107.965 171 110 C172.542 110.771 174.083 111.542 175.625 112.312 C176.739 112.869 177.852 113.426 179 114 C179 114.66 179 115.32 179 116 C174.887 115.44 171.468 114.525 167.691 112.812 C166.705 112.366 165.718 111.92 164.702 111.459 C163.666 110.978 162.63 110.496 161.562 110 C160.488 109.502 159.413 109.003 158.306 108.49 C143.776 101.649 131.148 93.125 118.233 83.633 C105.52 74.336 92.481 65.491 79.44 56.662 C77.296 55.201 75.164 53.724 73.039 52.234 C71.974 51.497 70.91 50.76 69.812 50 C68.932 49.381 68.052 48.763 67.145 48.125 C66.437 47.754 65.729 47.383 65 47 C63.515 47.495 63.515 47.495 62 48 C60.781 50.504 60.781 50.504 60 53 C60.66 53 61.32 53 62 53 C61.54 58.225 59.596 61.633 56.625 65.812 C55.707 67.144 54.79 68.476 53.875 69.809 C53.162 70.841 53.162 70.841 52.434 71.894 C50.558 74.649 48.764 77.452 46.972 80.262 C42.62 87.087 38.156 93.835 33.562 100.5 C32.818 101.605 32.818 101.605 32.059 102.732 C31.351 103.746 31.351 103.746 30.629 104.781 C30.011 105.679 30.011 105.679 29.381 106.596 C27.683 108.322 26.357 108.616 24 109 C23.67 108.34 23.34 107.68 23 107 C26.96 101.39 30.92 95.78 35 90 C33.68 91.65 32.36 93.3 31 95 C29.461 96.898 27.92 98.794 26.375 100.688 C25.599 101.64 24.823 102.593 24.023 103.574 C22 106 22 106 20 108 C14.928 108.402 11.019 107.615 6.25 105.938 C5.289 105.605 5.289 105.605 4.309 105.265 C0.723 104.012 -2.836 102.692 -6.391 101.355 C-7.927 100.778 -9.463 100.202 -11 99.625 C-11.776 99.333 -12.553 99.04 -13.353 98.739 C-20.973 95.917 -28.722 93.576 -36.523 91.309 C-37.454 91.036 -38.385 90.762 -39.344 90.48 C-40.171 90.242 -40.998 90.004 -41.85 89.759 C-44 89 -44 89 -47 87 C-47.514 83.932 -47.252 82.428 -45.672 79.738 C-45.038 78.938 -44.403 78.137 -43.75 77.312 C-39.982 72.38 -36.525 67.318 -33.125 62.125 C-28.068 54.461 -22.684 47.209 -17 40 C-16.073 38.785 -15.149 37.567 -14.227 36.348 C-13.542 35.445 -13.542 35.445 -12.844 34.525 C-11.968 33.368 -11.094 32.209 -10.222 31.048 C-7.224 27.112 -7.224 27.112 -5 26 C12.555 25.563 30.95 31.293 47.395 36.863 C50.847 38.15 50.847 38.15 54 38 C36.375 27.063 36.375 27.063 18.562 16.438 C16.041 14.96 13.52 13.481 11 12 C9.297 11 9.297 11 7.559 9.98 C6.549 9.368 5.54 8.756 4.5 8.125 C3.644 7.612 2.788 7.099 1.906 6.57 C0 5 0 5 -0.844 2.867 C-0.895 2.251 -0.947 1.635 -1 1 C-0.67 0.67 -0.34 0.34 0 0 Z M-5.695 31.188 C-6.167 31.786 -6.639 32.384 -7.125 33 C-7.722 33.75 -8.319 34.5 -8.934 35.273 C-9.956 36.623 -9.956 36.623 -11 38 C-11.795 39.003 -12.591 40.006 -13.41 41.039 C-24.113 54.746 -33.446 69.485 -43 84 C-40.656 86.344 -39.157 86.71 -35.996 87.629 C-34.957 87.938 -33.918 88.246 -32.847 88.564 C-31.722 88.894 -30.597 89.223 -29.438 89.562 C-18.898 92.708 -8.554 96.205 1.725 100.117 C9.658 103.218 9.658 103.218 18 104 C20.671 102.105 22.413 99.704 24.312 97.062 C24.869 96.332 25.425 95.602 25.998 94.85 C27.701 92.591 29.357 90.303 31 88 C31.473 87.342 31.947 86.684 32.435 86.006 C35.722 81.403 38.871 76.712 42 72 C43.23 70.155 44.461 68.31 45.691 66.465 C47.571 63.647 49.448 60.829 51.318 58.005 C52.166 56.726 52.166 56.726 53.031 55.422 C53.532 54.665 54.033 53.908 54.549 53.128 C56 51 56 51 57.686 48.911 C59.283 46.975 59.283 46.975 59 44 C35.002 36.919 35.002 36.919 10.625 31.375 C9.815 31.223 9.004 31.071 8.169 30.915 C0.981 29.29 0.981 29.29 -5.695 31.188 Z M56 57 C56 60 56 60 56 60 Z M53 61 C53 64 53 64 53 64 Z M51 64 C51 67 51 67 51 67 Z M49 67 C50 69 50 69 50 69 Z M47 70 C48 72 48 72 48 72 Z M45 73 C46 75 46 75 46 75 Z M38 83 C39 85 39 85 39 85 Z M37 85 C37 88 37 88 37 88 Z " fill="#000000" transform="translate(195,590)"/>
<path d="M0 0 C6.518 1.895 12.178 4.518 18 8 C17.67 8.66 17.34 9.32 17 10 C13.104 8.511 9.409 6.756 5.688 4.875 C4.619 4.336 3.55 3.797 2.449 3.242 C1.237 2.627 1.237 2.627 0 2 C0 1.34 0 0.68 0 0 Z " fill="#000000" transform="translate(354,618)"/>
<path d="M0 0 C-7.198 3.787 -14.517 6.888 -22.125 9.75 C-23.242 10.174 -24.359 10.598 -25.51 11.035 C-27.836 11.916 -30.163 12.796 -32.49 13.673 C-35.962 14.986 -39.427 16.315 -42.891 17.648 C-45.052 18.474 -47.213 19.3 -49.375 20.125 C-50.384 20.515 -51.394 20.906 -52.434 21.308 C-53.371 21.662 -54.308 22.017 -55.273 22.383 C-56.502 22.853 -56.502 22.853 -57.755 23.333 C-60 24 -60 24 -64 24 C-64 23.34 -64 22.68 -64 22 C-63.141 21.678 -62.281 21.357 -61.396 21.025 C-57.368 19.518 -53.34 18.009 -49.312 16.5 C-48.222 16.092 -48.222 16.092 -47.11 15.675 C-37.27 11.989 -27.437 8.287 -17.636 4.5 C-13.795 3.025 -9.94 1.59 -6.059 0.223 C-5.328 -0.036 -4.598 -0.295 -3.845 -0.562 C-2 -1 -2 -1 0 0 Z " fill="#000000" transform="translate(458,621)"/>
<path d="M0 0 C12.482 0.443 25.379 0.954 37 6 C37 6.66 37 7.32 37 8 C30.366 7.351 23.911 6.3 17.375 5 C11.595 3.861 5.842 2.768 0 2 C0 1.34 0 0.68 0 0 Z " fill="#000000" transform="translate(208,630)"/>
<path d="M0 0 C0 0.99 0 1.98 0 3 C-3.413 4.177 -6.831 5.339 -10.25 6.5 C-11.218 6.834 -12.186 7.168 -13.184 7.512 C-14.585 7.985 -14.585 7.985 -16.016 8.469 C-16.874 8.762 -17.733 9.055 -18.618 9.357 C-21 10 -21 10 -25 10 C-25 9.34 -25 8.68 -25 8 C-21.918 6.851 -18.834 5.706 -15.75 4.562 C-14.877 4.237 -14.005 3.912 -13.105 3.576 C-12.261 3.264 -11.417 2.951 -10.547 2.629 C-9.772 2.341 -8.997 2.053 -8.198 1.756 C-5.443 0.808 -2.925 0 0 0 Z " fill="#000000" transform="translate(415,657)"/>
<path d="M0 0 C4.463 3.641 7.948 7.576 9.5 13.188 C9.562 13.868 9.624 14.549 9.688 15.25 C6.951 14.898 5.936 14.565 4.195 12.359 C3.739 11.581 3.283 10.802 2.812 10 C-1.222 3.661 -5.356 0.021 -12.656 -2.191 C-17.815 -3.276 -23.057 -3.514 -28.312 -3.75 C-28.312 -4.08 -28.312 -4.41 -28.312 -4.75 C-18.108 -6.791 -8.693 -6.123 0 0 Z " fill="#000000" transform="translate(198.3125,671.75)"/>
<path d="M0 0 C6.117 0.566 11.458 1.927 17.25 3.938 C18.136 4.238 19.022 4.539 19.935 4.849 C29.044 7.962 38.1 11.231 47.142 14.535 C54.024 17.028 60.902 19.206 68 21 C68 22.32 68 23.64 68 25 C59.854 24.528 52.835 22.12 45.188 19.375 C43.898 18.92 42.608 18.465 41.317 18.011 C38.745 17.105 36.174 16.194 33.604 15.279 C30.41 14.146 27.212 13.028 24.008 11.922 C15.93 9.131 7.874 6.336 0 3 C0 2.01 0 1.02 0 0 Z " fill="#000000" transform="translate(145,679)"/>
<path d="M0 0 C0.741 0.005 1.481 0.009 2.244 0.014 C4.059 0.025 5.873 0.043 7.688 0.062 C8.183 2.043 8.183 2.043 8.688 4.062 C6.925 5.262 5.152 6.447 3.375 7.625 C1.896 8.617 1.896 8.617 0.387 9.629 C-0.504 10.102 -1.395 10.575 -2.312 11.062 C-3.303 10.732 -4.293 10.403 -5.312 10.062 C-3.663 8.413 -2.012 6.763 -0.312 5.062 C-2.952 5.062 -5.592 5.062 -8.312 5.062 C-8.642 6.383 -8.972 7.702 -9.312 9.062 C-15.235 10.717 -21.157 12.371 -27.08 14.025 C-29.09 14.586 -31.101 15.148 -33.111 15.709 C-36.018 16.521 -38.925 17.333 -41.832 18.145 C-43.158 18.515 -43.158 18.515 -44.51 18.893 C-46.232 19.374 -47.956 19.851 -49.68 20.325 C-51.538 20.845 -53.389 21.388 -55.236 21.947 C-56.199 22.231 -57.163 22.515 -58.155 22.807 C-59.023 23.071 -59.892 23.335 -60.786 23.606 C-63.6 24.114 -65.568 23.791 -68.312 23.062 C-67.983 22.072 -67.652 21.082 -67.312 20.062 C-64.576 19.053 -61.952 18.244 -59.141 17.504 C-58.307 17.273 -57.474 17.043 -56.615 16.806 C-53.934 16.067 -51.249 15.345 -48.562 14.625 C-46.798 14.144 -45.034 13.661 -43.27 13.178 C-42.408 12.942 -41.547 12.706 -40.659 12.462 C-37.307 11.542 -33.955 10.619 -30.605 9.693 C-29.135 9.289 -27.664 8.889 -26.192 8.495 C-24.348 8 -22.51 7.483 -20.672 6.965 C-19.671 6.69 -18.671 6.416 -17.64 6.133 C-14.846 4.848 -14.456 3.83 -13.312 1.062 C-9.064 -0.443 -4.461 -0.052 0 0 Z " fill="#000000" transform="translate(327.3125,708.9375)"/>
<path d="M0 0 C0 0.99 0 1.98 0 3 C-9.618 5.803 -19.246 8.555 -28.934 11.109 C-29.607 11.287 -30.28 11.465 -30.973 11.648 C-34.328 12.533 -37.685 13.412 -41.043 14.283 C-42.896 14.77 -42.896 14.77 -44.785 15.266 C-45.887 15.552 -46.99 15.839 -48.125 16.134 C-50.614 16.884 -52.733 17.746 -55 19 C-54.67 20.65 -54.34 22.3 -54 24 C-45.82 23.518 -38.254 21.243 -30.443 18.935 C-26.546 17.783 -22.642 16.655 -18.738 15.523 C-17.978 15.302 -17.217 15.081 -16.434 14.853 C-7.998 12.406 0.487 10.16 9 8 C8.67 9.65 8.34 11.3 8 13 C2.455 14.64 -3.091 16.276 -8.638 17.907 C-10.518 18.461 -12.397 19.015 -14.276 19.571 C-20.508 21.415 -26.747 23.229 -33 25 C-33.789 25.224 -34.577 25.448 -35.39 25.679 C-37.558 26.288 -39.73 26.875 -41.906 27.453 C-43.116 27.78 -44.326 28.106 -45.572 28.442 C-49.375 29.061 -52.252 28.857 -56 28 C-58.902 25.396 -59.846 23.752 -60.625 19.938 C-60 17 -60 17 -57.641 15.019 C-53.171 12.238 -48.172 11.096 -43.125 9.766 C-42.082 9.483 -41.04 9.2 -39.965 8.908 C-37.768 8.315 -35.569 7.727 -33.369 7.144 C-30.008 6.252 -26.652 5.34 -23.297 4.426 C-21.157 3.85 -19.016 3.276 -16.875 2.703 C-15.875 2.431 -14.875 2.16 -13.844 1.879 C-9.128 0.64 -4.924 -0.359 0 0 Z " fill="#000000" transform="translate(312,710)"/>
</svg>
