<?xml version="1.0" encoding="UTF-8"?>
<!-- Generator: visioncortex VTracer 0.6.0 -->
<svg version="1.1" xmlns="http://www.w3.org/2000/svg" width="847" height="847">
<path d="M0 0 C2.062 0.438 2.062 0.438 4 1 C4.963 4.624 5.92 8.249 6.875 11.875 C7.144 12.888 7.414 13.901 7.691 14.945 C12.346 32.656 12.346 32.656 12 42 C10.515 42.495 10.515 42.495 9 43 C6.91 34.699 4.872 26.386 2.875 18.062 C2.611 16.966 2.346 15.87 2.074 14.74 C1.82 13.683 1.566 12.625 1.305 11.535 C1.078 10.59 0.851 9.646 0.617 8.672 C0.413 7.79 0.21 6.909 0 6 C-0.213 5.081 -0.425 4.163 -0.644 3.217 C-0.762 2.485 -0.879 1.754 -1 1 C-0.67 0.67 -0.34 0.34 0 0 Z " fill="#000000" transform="translate(353,119)"/>
<path d="M0 0 C7.235 6.025 12.181 13.369 14.031 22.691 C15.418 38.855 9.846 52.077 -0.33 64.33 C-12.968 78.726 -31.526 90.293 -50.969 91.691 C-52.78 91.629 -54.59 91.535 -56.398 91.414 C-65.957 90.31 -65.957 90.31 -74.866 92.874 C-78.439 96.29 -80.634 100.38 -82.969 104.691 C-85.086 107.617 -85.086 107.617 -86.969 109.691 C-87.629 109.691 -88.289 109.691 -88.969 109.691 C-88.969 110.351 -88.969 111.011 -88.969 111.691 C-89.959 112.351 -90.949 113.011 -91.969 113.691 C-90.474 117.653 -88.625 121.32 -86.656 125.066 C-82.934 132.379 -80.22 139.801 -77.969 147.691 C-77.487 149.341 -77.487 149.341 -76.996 151.023 C-70.644 176.874 -74.562 205.125 -87.918 228.035 C-91.087 232.966 -94.411 237.215 -98.531 241.379 C-101.219 244.222 -101.219 244.222 -102.246 247.859 C-101.955 250.179 -101.467 252.408 -100.969 254.691 C-100.27 263.361 -101.909 271.294 -103.969 279.691 C-96.035 286.522 -87.966 293.081 -79.632 299.419 C-71.18 305.884 -62.882 312.551 -54.579 319.206 C-50.348 322.595 -46.104 325.965 -41.844 329.316 C-41.277 329.763 -40.71 330.21 -40.126 330.67 C-37.187 332.978 -34.229 335.256 -31.238 337.496 C-30.337 338.176 -30.337 338.176 -29.417 338.869 C-28.271 339.729 -27.121 340.584 -25.966 341.432 C-23.262 343.468 -22.067 344.397 -20.969 347.691 C-21.959 348.351 -22.949 349.011 -23.969 349.691 C-25.241 348.692 -25.241 348.692 -26.539 347.672 C-27.098 347.232 -27.658 346.793 -28.234 346.34 C-29.493 345.351 -30.751 344.362 -32.01 343.373 C-35.168 340.891 -38.327 338.41 -41.488 335.934 C-48.171 330.696 -54.816 325.416 -61.436 320.1 C-65.389 316.933 -69.379 313.826 -73.406 310.754 C-78.383 306.952 -83.25 303.037 -88.094 299.066 C-94.231 294.038 -100.47 289.249 -106.969 284.691 C-107.151 285.248 -107.332 285.805 -107.52 286.379 C-107.771 287.142 -108.022 287.905 -108.281 288.691 C-108.525 289.434 -108.769 290.176 -109.02 290.941 C-109.545 292.464 -110.094 293.981 -110.735 295.459 C-112.972 300.778 -113.37 305.334 -113.219 311.066 C-113.211 312.275 -113.211 312.275 -113.203 313.508 C-113.24 317.735 -113.24 317.735 -111.969 321.691 C-111.423 326.582 -111.349 331.259 -113.531 335.754 C-115.969 338.691 -115.969 338.691 -119.469 339.941 C-122.969 339.691 -122.969 339.691 -125.406 338.004 C-127.785 332.96 -127.609 328.175 -126.969 322.691 C-126.021 320.666 -125.017 318.667 -123.969 316.691 C-121.907 307.271 -121.483 297.674 -121.156 288.066 C-121.092 286.706 -121.028 285.345 -120.963 283.984 C-120.917 282.699 -120.871 281.414 -120.824 280.09 C-120.779 278.931 -120.734 277.773 -120.688 276.58 C-120.707 273.668 -120.707 273.668 -122.478 271.792 C-122.97 271.428 -123.462 271.065 -123.969 270.691 C-123.309 269.701 -122.649 268.711 -121.969 267.691 C-121.309 267.691 -120.649 267.691 -119.969 267.691 C-119.969 264.721 -119.969 261.751 -119.969 258.691 C-121.042 259.271 -121.042 259.271 -122.137 259.863 C-134.645 266.401 -147.942 270.765 -162.165 270.71 C-163.065 270.707 -163.965 270.705 -164.892 270.702 C-165.577 270.698 -166.263 270.695 -166.969 270.691 C-167.107 272.013 -167.107 272.013 -167.248 273.362 C-169.951 299.108 -172.995 324.804 -176.168 350.495 C-176.777 355.433 -177.384 360.371 -177.99 365.309 C-178.229 367.254 -178.468 369.199 -178.707 371.145 C-178.824 372.094 -178.941 373.043 -179.061 374.021 C-179.405 376.824 -179.75 379.626 -180.095 382.428 C-181.746 395.846 -183.373 409.267 -184.969 422.691 C-184.008 422.775 -184.008 422.775 -183.028 422.861 C-177.912 423.334 -172.961 423.986 -167.938 425.102 C-166.715 425.369 -165.493 425.637 -164.234 425.912 C-162.992 426.19 -161.749 426.468 -160.469 426.754 C-157.959 427.309 -155.448 427.862 -152.938 428.414 C-151.839 428.659 -150.74 428.904 -149.607 429.156 C-147.091 429.758 -147.091 429.758 -144.969 429.691 C-144.818 428.648 -144.818 428.648 -144.665 427.583 C-144.199 424.409 -143.709 421.238 -143.219 418.066 C-143.061 416.972 -142.904 415.878 -142.742 414.75 C-141.61 407.562 -140.265 403.232 -135.281 397.879 C-128.558 394.426 -121.063 395.876 -114 397.422 C-113.08 397.614 -112.159 397.805 -111.211 398.003 C-109.277 398.409 -107.344 398.822 -105.413 399.241 C-102.48 399.876 -99.544 400.486 -96.605 401.092 C-94.716 401.492 -92.826 401.894 -90.938 402.297 C-90.072 402.476 -89.206 402.656 -88.314 402.84 C-81.444 404.354 -74.535 406.188 -69.406 411.191 C-65.517 420.66 -68.504 432.743 -69.885 442.648 C-70.221 445.081 -70.531 447.517 -70.84 449.953 C-71.053 451.52 -71.268 453.086 -71.484 454.652 C-71.573 455.371 -71.662 456.09 -71.753 456.831 C-72.602 462.627 -74.698 466.688 -79.094 470.566 C-83.355 472.234 -87.448 471.928 -91.969 471.691 C-92.006 472.314 -92.044 472.937 -92.082 473.578 C-92.825 484.022 -94.423 494.341 -95.969 504.691 C-94.847 505.038 -94.847 505.038 -93.703 505.391 C-83.802 508.67 -83.802 508.67 -80.969 513.691 C-77.948 522.755 -81.479 535.669 -82.906 545.09 C-83.116 546.504 -83.318 547.919 -83.51 549.336 C-83.795 551.427 -84.105 553.512 -84.422 555.598 C-84.599 556.818 -84.776 558.038 -84.958 559.295 C-86.348 563.966 -88.582 567.226 -92.846 569.844 C-99.691 572.576 -108.158 570.34 -115.105 568.863 C-116.029 568.673 -116.953 568.483 -117.904 568.287 C-119.841 567.885 -121.776 567.478 -123.71 567.066 C-126.656 566.441 -129.606 565.841 -132.557 565.242 C-134.448 564.846 -136.34 564.449 -138.23 564.051 C-139.104 563.875 -139.977 563.698 -140.876 563.517 C-147.497 562.079 -152.842 560.21 -157.344 554.879 C-161.102 547.508 -159.672 540.546 -158.535 532.633 C-158.378 531.489 -158.222 530.344 -158.06 529.165 C-157.559 525.527 -157.046 521.89 -156.531 518.254 C-156.189 515.781 -155.847 513.307 -155.506 510.834 C-154.67 504.785 -153.824 498.738 -152.969 492.691 C-153.761 492.54 -154.553 492.389 -155.37 492.234 C-180.833 487.38 -180.833 487.38 -192.969 484.691 C-193.048 485.835 -193.048 485.835 -193.128 487.001 C-193.756 495.656 -194.608 504.265 -195.656 512.879 C-195.792 514.167 -195.928 515.456 -196.068 516.783 C-197.178 525.731 -199.174 533.382 -206.082 539.59 C-210.22 542.755 -214.085 544.073 -219.156 545.129 C-224.464 546.25 -226.437 547.72 -229.551 552.039 C-232.866 555.903 -237.694 556.557 -242.531 557.066 C-250.165 556.234 -254.633 552.83 -259.351 546.976 C-260.792 545.087 -262.198 543.177 -263.594 541.254 C-264.309 540.29 -264.309 540.29 -265.039 539.307 C-276.665 523.402 -271.913 506.049 -269.555 487.668 C-269.305 485.692 -269.056 483.716 -268.807 481.74 C-268.272 477.492 -267.734 473.244 -267.193 468.997 C-265.877 458.652 -264.577 448.306 -263.275 437.96 C-262.811 434.277 -262.347 430.594 -261.883 426.911 C-258.379 399.081 -254.95 371.242 -251.529 343.402 C-250.95 338.689 -250.37 333.975 -249.789 329.261 C-249.002 322.864 -248.215 316.467 -247.429 310.07 C-247.141 307.721 -246.852 305.371 -246.562 303.022 C-244.949 289.92 -243.387 276.816 -241.969 263.691 C-242.743 263.388 -243.518 263.085 -244.316 262.773 C-254.28 258.71 -261.98 251.401 -269.583 244.026 C-270.701 242.949 -271.845 241.898 -272.996 240.855 C-292.938 222.368 -302.875 193.711 -304.254 167.148 C-305.092 139.88 -297.157 112.345 -278.969 91.691 C-277.956 90.464 -277.956 90.464 -276.922 89.211 C-259.394 68.581 -234.514 58.262 -207.969 55.691 C-185.342 53.956 -162.03 59.271 -141.969 69.691 C-141.331 70.022 -140.692 70.352 -140.035 70.692 C-130.848 75.496 -122.736 80.757 -114.969 87.691 C-114.11 88.442 -113.252 89.192 -112.367 89.965 C-109.504 92.483 -106.665 94.995 -103.969 97.691 C-98.36 92.413 -93.759 87.415 -89.969 80.691 C-90.555 80.454 -91.142 80.217 -91.746 79.973 C-97.311 76.765 -100.869 69.807 -102.906 63.879 C-106.086 51.142 -103.712 37.989 -97.406 26.566 C-85.59 8.5 -67.346 -3.207 -46.344 -7.895 C-30.139 -9.883 -13.65 -9.867 0 0 Z M-86.121 25.266 C-92.931 34.437 -97.234 45.148 -95.969 56.691 C-94.151 64.087 -91.271 69.269 -85.969 74.691 C-82.036 71.414 -81.087 68.634 -79.969 63.691 C-79.826 61.584 -79.801 59.498 -79.794 57.385 C-79.737 47.405 -77.919 37.59 -70.498 30.233 C-68.047 28.114 -66.059 26.722 -62.969 25.691 C-63.227 29.994 -63.651 32.686 -66.594 35.816 C-69.205 38.375 -69.205 38.375 -69.031 41.066 C-68.125 43.306 -67.106 45.318 -65.969 47.441 C-63.688 51.772 -63.193 55.849 -62.969 60.691 C-52.101 63.106 -42.189 59.474 -32.969 53.691 C-26.526 48.737 -20.593 43.563 -17.969 35.691 C-17.463 29.954 -17.463 29.954 -19.656 24.816 C-24.525 20.342 -29.491 20.336 -35.828 20.422 C-39.702 20.754 -43.075 21.705 -46.715 23.035 C-49.225 23.766 -51.367 23.802 -53.969 23.691 C-54.464 21.216 -54.464 21.216 -54.969 18.691 C-42.897 14.411 -31.165 10.914 -18.969 16.691 C-15.29 19.05 -12.595 21.583 -10.969 25.691 C-9.802 34.066 -11.1 40.78 -15.969 47.691 C-25.316 58.846 -37.7 66.774 -52.426 68.223 C-56.273 68.507 -60.112 68.636 -63.969 68.691 C-64.639 70.648 -65.305 72.607 -65.969 74.566 C-66.34 75.657 -66.711 76.748 -67.094 77.871 C-68.068 80.518 -68.068 80.518 -67.969 82.691 C-50.971 85.59 -33.471 80.16 -19.422 70.527 C-7.368 61.506 3.201 49.601 5.773 34.328 C6.627 25.598 5.157 17.912 0.031 10.691 C-6.905 3.149 -16.194 0.028 -26.242 -0.688 C-49.667 -1.647 -71.037 7.225 -86.121 25.266 Z M-268.969 99.691 C-284.691 119.232 -293.182 144.72 -290.762 169.835 C-289.392 182.477 -287.56 198.668 -278.969 208.691 C-279.102 207.906 -279.234 207.121 -279.371 206.312 C-279.548 205.262 -279.724 204.211 -279.906 203.129 C-280.167 201.58 -280.167 201.58 -280.434 200 C-280.61 198.908 -280.787 197.816 -280.969 196.691 C-281.151 195.682 -281.332 194.673 -281.52 193.633 C-283.268 178.293 -283.332 161.58 -278.969 146.691 C-278.679 145.656 -278.389 144.621 -278.09 143.555 C-271.85 123.166 -259.605 106.626 -240.91 96.168 C-236.092 93.749 -231.407 91.691 -225.969 91.691 C-226.754 92.442 -227.539 93.192 -228.348 93.965 C-248.031 113.021 -258.609 136.393 -259.281 164.004 C-258.84 190.576 -248.253 214.177 -229.195 232.645 C-223.694 237.702 -219.635 241.372 -211.969 241.691 C-211.471 254.038 -213.016 265.979 -214.574 278.199 C-214.853 280.441 -215.132 282.683 -215.41 284.924 C-216.005 289.72 -216.606 294.514 -217.211 299.308 C-218.167 306.892 -219.112 314.477 -220.054 322.062 C-220.213 323.343 -220.372 324.623 -220.536 325.942 C-220.86 328.553 -221.185 331.164 -221.509 333.775 C-221.92 337.085 -222.332 340.395 -222.745 343.705 C-226.152 371.048 -229.456 398.403 -232.737 425.762 C-233.153 429.224 -233.569 432.687 -233.984 436.15 C-234.119 437.267 -234.253 438.384 -234.391 439.535 C-234.656 441.739 -234.921 443.943 -235.186 446.147 C-235.807 451.318 -236.427 456.488 -237.042 461.659 C-238.005 469.741 -238.974 477.82 -240.03 485.89 C-240.18 487.055 -240.329 488.22 -240.483 489.42 C-240.742 491.412 -241.008 493.404 -241.286 495.394 C-242.431 504.309 -242.27 512.143 -236.969 519.691 C-236.403 520.543 -235.837 521.396 -235.254 522.273 C-231.749 527.596 -231.749 527.596 -226.969 531.691 C-222.726 532.172 -220.506 531.981 -216.719 529.941 C-211.382 525.575 -210.372 521.9 -209.551 515.168 C-209.43 514.257 -209.31 513.346 -209.186 512.408 C-208.765 509.171 -208.365 505.932 -207.969 502.691 C-207.817 501.467 -207.665 500.243 -207.508 498.981 C-206.298 489.209 -205.129 479.432 -203.965 469.654 C-203.098 462.382 -202.224 455.111 -201.351 447.839 C-201.116 445.877 -200.88 443.915 -200.645 441.952 C-197.499 415.721 -194.308 389.495 -191.114 363.269 C-190.662 359.555 -190.211 355.84 -189.759 352.126 C-188.221 339.475 -186.678 326.824 -185.127 314.174 C-184.365 307.951 -183.611 301.727 -182.864 295.502 C-182.412 291.735 -181.953 287.969 -181.494 284.203 C-181.285 282.476 -181.078 280.749 -180.873 279.022 C-180.596 276.681 -180.31 274.342 -180.023 272.003 C-179.866 270.702 -179.71 269.401 -179.549 268.061 C-178.817 263.81 -178.045 260.768 -174.969 257.691 C-172.309 257.602 -172.309 257.602 -168.906 257.754 C-147.531 258.017 -127.027 250.857 -111.271 236.157 C-95.832 221.006 -88.095 200.793 -87.496 179.444 C-87.325 159.053 -92.424 141.679 -101.969 123.691 C-105.515 124.96 -108.092 126.4 -110.969 128.816 C-113.71 131.086 -116.164 132.788 -119.371 134.367 C-123.065 136.208 -125.969 137.845 -128.969 140.691 C-130.155 144.761 -130.408 148.433 -130.609 152.637 C-131.04 160.122 -134.835 167.1 -140.281 172.191 C-149.373 179.056 -158.86 180.313 -169.969 179.691 C-179.237 178.379 -187.214 173.274 -193.113 166.074 C-199.206 157.018 -202.331 147.649 -200.969 136.691 C-198.643 127.075 -194.439 119.595 -185.969 114.316 C-176.813 109.064 -167.189 108.175 -156.863 110.344 C-149.343 112.815 -142.409 117.032 -137.969 123.691 C-133.34 123.174 -130.217 121.105 -126.531 118.441 C-125.984 118.059 -125.437 117.676 -124.873 117.281 C-121.078 114.595 -117.51 111.704 -113.969 108.691 C-121.015 92.847 -143.678 82.417 -158.98 76.074 C-197.838 61.807 -240.683 67.729 -268.969 99.691 Z M-184.969 131.691 C-187.989 137.43 -188.587 143.409 -186.75 149.645 C-184.373 155.874 -181.168 160.449 -175.27 163.715 C-167.997 166.801 -161.91 167.382 -154.551 164.418 C-154.029 164.178 -153.507 163.938 -152.969 163.691 C-152.969 158.593 -154.382 156.58 -157.504 152.68 C-161.477 149.475 -165.594 149.354 -170.566 149.008 C-173.981 148.69 -176.77 147.894 -179.969 146.691 C-180.164 140.637 -180.164 140.637 -179.969 138.691 C-177.506 136.229 -175.262 135.694 -171.969 134.691 C-174.207 129.929 -174.207 129.929 -177.906 126.441 C-181.405 126.865 -182.799 129.065 -184.969 131.691 Z M-107.969 249.691 C-110.736 251.29 -112.654 252.563 -113.54 255.738 C-113.832 258.231 -113.961 260.683 -114.031 263.191 C-114.09 264.046 -114.149 264.901 -114.209 265.781 C-114.448 270.88 -114.448 270.88 -112.09 275.285 C-110.115 276.876 -110.115 276.876 -107.969 276.691 C-105.555 268.236 -104.05 260.417 -105.969 251.691 C-106.629 251.031 -107.289 250.371 -107.969 249.691 Z M-113.969 279.691 C-113.969 282.991 -113.969 286.291 -113.969 289.691 C-111.506 287.229 -110.971 284.985 -109.969 281.691 C-111.289 281.031 -112.609 280.371 -113.969 279.691 Z M-110.969 413.691 C-113.044 421.094 -114.05 428.584 -115.094 436.191 C-115.276 437.491 -115.457 438.79 -115.645 440.129 C-116.09 443.316 -116.531 446.503 -116.969 449.691 C-135.294 446.522 -153.434 442.697 -171.58 438.639 C-172.452 438.444 -173.324 438.25 -174.223 438.05 C-175.876 437.68 -177.529 437.309 -179.181 436.936 C-183.037 436.022 -183.037 436.022 -186.969 435.691 C-187.886 438.442 -188.078 440.051 -188.031 442.879 C-188.011 444.137 -187.99 445.395 -187.969 446.691 C-183.787 448.156 -179.652 449.277 -175.321 450.204 C-174.686 450.34 -174.051 450.477 -173.397 450.618 C-171.32 451.065 -169.242 451.507 -167.164 451.949 C-165.715 452.26 -164.267 452.571 -162.818 452.882 C-159.021 453.697 -155.223 454.508 -151.425 455.319 C-147.543 456.147 -143.662 456.98 -139.781 457.812 C-132.178 459.443 -124.574 461.068 -116.969 462.691 C-116.969 466.321 -116.969 469.951 -116.969 473.691 C-117.629 473.691 -118.289 473.691 -118.969 473.691 C-123.191 498.607 -126.513 523.66 -129.969 548.691 C-128.223 549.173 -126.476 549.653 -124.73 550.132 C-123.758 550.4 -122.785 550.667 -121.783 550.942 C-118.236 551.886 -114.694 552.66 -111.094 553.379 C-109.859 553.63 -108.624 553.882 -107.352 554.141 C-104.468 554.61 -101.879 554.808 -98.969 554.691 C-97.239 548.337 -96.203 542.029 -95.344 535.504 C-95.143 534.047 -95.143 534.047 -94.938 532.561 C-94.349 528.183 -93.969 524.13 -93.969 519.691 C-99.909 518.701 -105.849 517.711 -111.969 516.691 C-110.312 506.356 -108.646 496.023 -106.969 485.691 C-106.851 484.965 -106.733 484.239 -106.612 483.491 C-105.928 479.281 -105.239 475.073 -104.546 470.865 C-104.222 468.898 -103.902 466.931 -103.581 464.964 C-103.384 463.775 -103.187 462.585 -102.984 461.359 C-102.726 459.786 -102.726 459.786 -102.462 458.18 C-101.969 455.691 -101.969 455.691 -100.969 453.691 C-100.305 453.836 -99.641 453.98 -98.957 454.129 C-97.633 454.407 -97.633 454.407 -96.281 454.691 C-94.976 454.97 -94.976 454.97 -93.645 455.254 C-91.028 455.682 -88.614 455.722 -85.969 455.691 C-85.291 451.381 -84.629 447.068 -83.969 442.754 C-83.683 440.935 -83.683 440.935 -83.391 439.08 C-82.397 432.534 -81.74 426.312 -81.969 419.691 C-87.098 417.837 -92.267 416.673 -97.594 415.566 C-98.862 415.294 -98.862 415.294 -100.156 415.016 C-100.974 414.844 -101.791 414.673 -102.633 414.496 C-103.37 414.341 -104.107 414.186 -104.866 414.027 C-107.272 413.586 -107.272 413.586 -110.969 413.691 Z M-188.969 454.691 C-188.969 456.011 -188.969 457.331 -188.969 458.691 C-182.901 459.977 -176.832 461.259 -170.762 462.537 C-168.697 462.972 -166.632 463.409 -164.567 463.846 C-161.601 464.475 -158.635 465.099 -155.668 465.723 C-154.743 465.92 -153.818 466.116 -152.865 466.319 C-151.574 466.589 -151.574 466.589 -150.257 466.865 C-149.121 467.105 -149.121 467.105 -147.962 467.35 C-145.813 467.776 -145.813 467.776 -142.969 467.691 C-142.969 466.701 -142.969 465.711 -142.969 464.691 C-158.223 460.922 -173.543 457.677 -188.969 454.691 Z " fill="#000000" transform="translate(605.96875,144.30859375)"/>
<path d="M0 0 C0.99 0 1.98 0 3 0 C3.535 1.558 4.053 3.121 4.562 4.688 C4.853 5.558 5.143 6.428 5.441 7.324 C6.051 10.246 5.777 12.144 5 15 C4.01 14.67 3.02 14.34 2 14 C0.191 9.24 -0.207 5.063 0 0 Z " fill="#000000" transform="translate(341,142)"/>
<path d="M0 0 C3.518 0.442 5.198 1.832 7.645 4.316 C8.661 5.34 8.661 5.34 9.697 6.385 C10.395 7.103 11.093 7.822 11.812 8.562 C12.842 9.6 12.842 9.6 13.893 10.658 C17.197 14.013 20.4 17.419 23.473 20.988 C27.305 25.425 31.444 29.518 35.625 33.625 C45.986 43.805 45.986 43.805 49 48 C48.67 48.99 48.34 49.98 48 51 C43.542 50.585 41.119 47.489 38.188 44.438 C37.692 43.937 37.196 43.436 36.686 42.92 C33.985 40.164 31.418 37.333 28.918 34.395 C25.733 30.721 22.346 27.299 18.883 23.891 C18.336 23.352 17.79 22.813 17.226 22.258 C14.947 20.015 12.664 17.775 10.372 15.543 C8.681 13.895 7 12.237 5.32 10.578 C4.801 10.077 4.281 9.576 3.745 9.06 C-0.782 4.565 -0.782 4.565 -1 1 C-0.67 0.67 -0.34 0.34 0 0 Z " fill="#000000" transform="translate(252,168)"/>
<path d="M0 0 C4.945 0.15 7.31 2.836 10.645 6.113 C12 8 12 8 12 12 C7.252 11.12 4.201 8.521 1 5 C0.062 2.125 0.062 2.125 0 0 Z " fill="#000000" transform="translate(282,220)"/>
<path d="M0 0 C0.99 0.33 1.98 0.66 3 1 C2.67 2.32 2.34 3.64 2 5 C1.01 4.67 0.02 4.34 -1 4 C-0.67 2.68 -0.34 1.36 0 0 Z " fill="#000000" transform="translate(431,242)"/>
<path d="M0 0 C1.32 0 2.64 0 4 0 C4 1.32 4 2.64 4 4 C2.68 4 1.36 4 0 4 C0 2.68 0 1.36 0 0 Z " fill="#000000" transform="translate(447,243)"/>
<path d="M0 0 C0 0.99 0 1.98 0 3 C-1.051 3.496 -2.101 3.993 -3.184 4.504 C-11.144 8.33 -18.283 12.184 -25 18 C-25.99 18.722 -26.98 19.444 -28 20.188 C-32.078 23.537 -34.885 28.237 -37.852 32.551 C-38.915 33.763 -38.915 33.763 -40 35 C-41.32 35 -42.64 35 -44 35 C-43.657 29.154 -41.355 26.547 -37.438 22.562 C-36.889 21.991 -36.34 21.42 -35.775 20.831 C-34.198 19.205 -32.603 17.6 -31 16 C-30.313 15.301 -29.626 14.603 -28.918 13.883 C-22.876 8.17 -8.439 -3.125 0 0 Z " fill="#000000" transform="translate(419,246)"/>
<path d="M0 0 C0.99 0.33 1.98 0.66 3 1 C2.928 1.692 2.856 2.384 2.781 3.098 C1.991 11.432 1.897 19.637 2 28 C0.68 28.33 -0.64 28.66 -2 29 C-3.586 25.827 -3.191 22.42 -3.188 18.938 C-3.187 18.171 -3.187 17.404 -3.187 16.613 C-3.051 3.051 -3.051 3.051 0 0 Z " fill="#000000" transform="translate(371,289)"/>
<path d="M0 0 C0.99 0 1.98 0 3 0 C3.205 0.904 3.41 1.807 3.621 2.738 C3.891 3.918 4.16 5.097 4.438 6.312 C4.704 7.484 4.971 8.656 5.246 9.863 C5.953 13.002 5.953 13.002 7 16 C14.425 16.99 14.425 16.99 22 18 C22 18.99 22 19.98 22 21 C21.252 21.159 20.505 21.317 19.734 21.48 C18.75 21.714 17.765 21.947 16.75 22.188 C15.775 22.408 14.801 22.628 13.797 22.855 C10.197 24.329 8.954 25.636 7 29 C6.416 31.773 6.306 34.485 6.25 37.312 C6.22 38.053 6.191 38.794 6.16 39.557 C6.09 41.371 6.043 43.185 6 45 C4.515 44.505 4.515 44.505 3 44 C2.83 42.952 2.66 41.904 2.484 40.824 C2.24 39.445 1.996 38.066 1.75 36.688 C1.64 35.997 1.531 35.307 1.418 34.596 C0.86 31.558 0.354 29.399 -1.719 27.062 C-4.622 25.71 -7.058 25.486 -10.25 25.312 C-11.328 25.247 -12.405 25.181 -13.516 25.113 C-14.335 25.076 -15.155 25.039 -16 25 C-16 23.68 -16 22.36 -16 21 C-14.969 20.801 -14.969 20.801 -13.918 20.598 C-12.566 20.333 -12.566 20.333 -11.188 20.062 C-10.294 19.888 -9.401 19.714 -8.48 19.535 C-5.886 19.023 -5.886 19.023 -3 18 C-0.933 14.207 -0.806 11.01 -0.938 6.75 C-0.991 4.834 -1.021 2.917 -1 1 C-0.67 0.67 -0.34 0.34 0 0 Z " fill="#000000" transform="translate(255,326)"/>
<path d="M0 0 C0.99 0.33 1.98 0.66 3 1 C3.949 3.285 3.949 3.285 4.688 6.062 C4.939 6.982 5.19 7.901 5.449 8.848 C5.631 9.558 5.813 10.268 6 11 C4.68 11.33 3.36 11.66 2 12 C-1.571 4.714 -1.571 4.714 0 0 Z " fill="#000000" transform="translate(372,327)"/>
<path d="M0 0 C34.527 -0.55 34.527 -0.55 48 3 C47.67 4.32 47.34 5.64 47 7 C45.778 6.917 45.778 6.917 44.532 6.832 C29.359 5.804 14.188 4.782 -1 4 C-0.67 2.68 -0.34 1.36 0 0 Z " fill="#000000" transform="translate(559,333)"/>
<path d="M0 0 C1.98 0.495 1.98 0.495 4 1 C3.67 1.99 3.34 2.98 3 4 C1.68 3.67 0.36 3.34 -1 3 C-0.67 2.01 -0.34 1.02 0 0 Z " fill="#000000" transform="translate(485,344)"/>
<path d="M0 0 C3.755 1.524 5.808 3.773 8.438 6.812 C11.527 10.335 14.634 13.743 18 17 C21.694 13.902 22.451 10.066 23.84 5.594 C25.147 2.672 26.231 1.557 29 0 C32.37 0.241 33.588 0.588 36 3 C37.554 7.459 37.372 12.334 37.621 17.004 C37.796 20.177 37.796 20.177 40 23 C41.963 22.445 41.963 22.445 44 21 C45.645 17.727 46.92 14.384 48.242 10.969 C50 8 50 8 52.945 6.469 C56 6 56 6 58.273 6.621 C60.396 8.316 60.866 9.469 61.625 12.062 C61.861 12.857 62.097 13.651 62.34 14.469 C63.337 18.291 64.222 22.127 65 26 C66.32 26 67.64 26 69 26 C69.303 25.12 69.606 24.239 69.918 23.332 C74.361 11.016 74.361 11.016 79 8 C81.562 7.875 81.562 7.875 84 9 C87.316 12.316 88.749 15.516 90 20 C90.99 20 91.98 20 93 20 C93.182 19.362 93.364 18.724 93.551 18.066 C93.802 17.24 94.054 16.414 94.312 15.562 C94.556 14.739 94.8 13.915 95.051 13.066 C95.364 12.384 95.677 11.703 96 11 C96.99 10.67 97.98 10.34 99 10 C100.093 13.379 100.094 14.766 98.75 18.125 C95.862 22.869 95.862 22.869 94 24 C90.625 24.25 90.625 24.25 87 23 C85.403 20.763 84.266 18.536 83.141 16.031 C82.11 13.663 82.11 13.663 79 13 C78.83 13.652 78.66 14.305 78.484 14.977 C76.695 21.429 74.8 26.2 70 31 C66.587 31.445 64.746 31.539 61.914 29.492 C59.296 26.083 58.878 22.933 58.25 18.75 C58.125 18.005 58 17.26 57.871 16.492 C57.566 14.664 57.281 12.832 57 11 C54.292 12.006 53.214 12.552 51.945 15.207 C51.675 16.067 51.404 16.927 51.125 17.812 C49.254 22.855 47.684 25.283 43 28 C39.875 28.188 39.875 28.188 37 27 C33.025 22.245 32.368 18.567 32.25 12.625 C32.22 11.889 32.191 11.153 32.16 10.395 C32.09 8.597 32.043 6.798 32 5 C31.01 5.33 30.02 5.66 29 6 C27.929 8.658 27.929 8.658 27.125 11.812 C25.941 15.574 25.159 17.808 22.625 20.875 C20 22 20 22 17 21.5 C9.495 17.748 3.646 10.919 -1 4 C-0.688 1.75 -0.688 1.75 0 0 Z " fill="#000000" transform="translate(381,346)"/>
<path d="M0 0 C5.93 -0.379 10.472 0.894 16 3 C16 3.99 16 4.98 16 6 C10.367 6.24 5.455 5.385 0 4 C0 2.68 0 1.36 0 0 Z " fill="#000000" transform="translate(558,347)"/>
<path d="M0 0 C0.66 0.33 1.32 0.66 2 1 C1.447 4.63 0.28 5.959 -2.605 8.164 C-3.342 8.729 -4.079 9.293 -4.838 9.875 C-5.613 10.452 -6.389 11.03 -7.188 11.625 C-7.944 12.21 -8.7 12.795 -9.479 13.398 C-13.515 16.452 -17.001 18.772 -22 20 C-22 16 -22 16 -19.98 13.887 C-6.523 3.29 -6.523 3.29 0 0 Z " fill="#000000" transform="translate(294,386)"/>
<path d="M0 0 C4.875 0.875 4.875 0.875 6 2 C5.972 4.439 5.872 6.834 5.715 9.266 C5.668 10.02 5.621 10.775 5.572 11.552 C4.992 20.103 3.979 28.597 2.898 37.098 C2.558 39.788 2.231 42.48 1.904 45.172 C1.688 46.901 1.472 48.63 1.254 50.359 C1.158 51.155 1.062 51.951 0.963 52.771 C0.44 56.804 -0.25 60.278 -2 64 C-4.375 64.125 -4.375 64.125 -7 64 C-9 62 -9 62 -9.2 58.091 C-9.073 52.538 -8.456 47.054 -7.793 41.543 C-7.667 40.478 -7.541 39.412 -7.411 38.315 C-7.144 36.078 -6.874 33.842 -6.601 31.606 C-6.187 28.182 -5.791 24.756 -5.396 21.33 C-5.134 19.151 -4.87 16.972 -4.605 14.793 C-4.49 13.77 -4.374 12.747 -4.255 11.693 C-4.075 10.266 -4.075 10.266 -3.891 8.809 C-3.791 7.975 -3.692 7.14 -3.589 6.281 C-2.905 3.63 -1.759 2.07 0 0 Z " fill="#000000" transform="translate(418,398)"/>
<path d="M0 0 C0.99 0.33 1.98 0.66 3 1 C2.155 5.659 -0.658 7.628 -4.188 10.5 C-5.474 11.574 -6.761 12.648 -8.047 13.723 C-9.036 14.541 -9.036 14.541 -10.045 15.375 C-13.038 17.863 -15.987 20.4 -18.938 22.938 C-19.511 23.429 -20.085 23.921 -20.677 24.428 C-25.594 28.642 -30.486 32.884 -35.377 37.129 C-41.349 42.309 -47.327 47.484 -53.367 52.585 C-54.541 53.603 -55.69 54.65 -56.82 55.715 C-57.426 56.275 -58.032 56.834 -58.656 57.41 C-59.201 57.928 -59.746 58.447 -60.307 58.981 C-62 60 -62 60 -64.209 59.662 C-65.096 59.334 -65.096 59.334 -66 59 C-65.148 54.166 -62 52.058 -58.375 49.062 C-56.998 47.899 -55.622 46.735 -54.246 45.57 C-53.54 44.978 -52.833 44.385 -52.105 43.774 C-48.851 41.031 -45.646 38.233 -42.438 35.438 C-35.884 29.754 -29.31 24.095 -22.713 18.463 C-21.56 17.478 -20.407 16.492 -19.256 15.506 C-8.712 6.477 -8.712 6.477 -3.375 2.25 C-2.785 1.781 -2.194 1.312 -1.586 0.828 C-1.063 0.555 -0.539 0.282 0 0 Z " fill="#000000" transform="translate(295,407)"/>
<path d="M0 0 C1.459 0.114 2.917 0.242 4.375 0.375 C5.593 0.479 5.593 0.479 6.836 0.586 C9 1 9 1 11 3 C10.758 6.039 10.758 6.039 10.125 9.625 C9.921 10.814 9.718 12.002 9.508 13.227 C9.34 14.142 9.173 15.057 9 16 C5.7 15.67 2.4 15.34 -1 15 C-2.191 11.426 -1.735 9.491 -1.062 5.812 C-0.868 4.726 -0.673 3.639 -0.473 2.52 C-0.317 1.688 -0.161 0.857 0 0 Z " fill="#000000" transform="translate(501,571)"/>
<path d="M0 0 C3.3 0.66 6.6 1.32 10 2 C11.007 6.028 10.864 7.791 10.062 11.75 C9.868 12.735 9.673 13.72 9.473 14.734 C9.317 15.482 9.161 16.23 9 17 C7.541 16.886 6.083 16.758 4.625 16.625 C3.813 16.555 3.001 16.486 2.164 16.414 C0 16 0 16 -2 14 C-1.758 10.742 -1.758 10.742 -1.125 6.875 C-0.819 4.953 -0.819 4.953 -0.508 2.992 C-0.34 2.005 -0.173 1.017 0 0 Z " fill="#000000" transform="translate(488,669)"/>
</svg>
