<?xml version="1.0" encoding="UTF-8"?>
<!-- Generator: visioncortex VTracer 0.6.0 -->
<svg version="1.1" xmlns="http://www.w3.org/2000/svg" width="847" height="847">
<path d="M0 0 C1.32 0 2.64 0 4 0 C5.594 3.188 5.102 6.629 5.062 10.125 C5.058 10.879 5.053 11.633 5.049 12.41 C5.037 14.273 5.019 16.137 5 18 C7.97 17.67 10.94 17.34 14 17 C14.33 18.65 14.66 20.3 15 22 C10.05 23.485 10.05 23.485 5 25 C4.67 31.27 4.34 37.54 4 44 C2.68 44.66 1.36 45.32 0 46 C-2 44 -2 44 -2.227 42.121 C-2.211 41.005 -2.211 41.005 -2.195 39.867 C-2.186 38.659 -2.186 38.659 -2.176 37.426 C-2.159 36.584 -2.142 35.742 -2.125 34.875 C-2.116 34.026 -2.107 33.176 -2.098 32.301 C-2.074 30.2 -2.038 28.1 -2 26 C-4.97 26.33 -7.94 26.66 -11 27 C-11.33 25.68 -11.66 24.36 -12 23 C-9.802 20.802 -8.825 20.541 -5.875 19.875 C-4.596 19.586 -3.317 19.297 -2 19 C-1.939 17.712 -1.879 16.424 -1.816 15.098 C-1.732 13.419 -1.647 11.741 -1.562 10.062 C-1.504 8.787 -1.504 8.787 -1.443 7.486 C-1.401 6.677 -1.36 5.869 -1.316 5.035 C-1.28 4.286 -1.243 3.537 -1.205 2.766 C-1 1 -1 1 0 0 Z " fill="#000000" transform="translate(585,86)"/>
<path d="M0 0 C9.242 7.136 14.539 15.851 19.312 26.375 C19.737 25.844 20.161 25.313 20.598 24.766 C25.371 19.016 29.783 14.939 37.312 13.375 C54.652 11.954 71.304 21.036 85.312 30.375 C85.278 29.241 85.243 28.106 85.207 26.938 C84.831 9.618 84.831 9.618 90.312 2.938 C95.367 -1.011 102.239 -0.123 108.312 0.375 C115.139 2.086 121.464 5.159 125.492 11.121 C128.327 16.264 129.415 21.613 130.312 27.375 C131.303 26.715 132.293 26.055 133.312 25.375 C139.406 24.831 139.406 24.831 142.188 26.5 C143.85 29.271 144.192 31.116 144.312 34.375 C143.521 37.461 142.478 40.412 141.312 43.375 C142.798 42.849 142.798 42.849 144.312 42.312 C148.5 41.145 152.145 41.056 156.312 42.375 C160.065 44.595 162.689 47.309 164.312 51.375 C165.519 60.158 163.598 67.494 158.688 74.789 C153.686 81.021 147.705 84.475 140.312 87.375 C139.652 87.375 138.993 87.375 138.312 87.375 C138.82 88.321 139.328 89.267 139.852 90.242 C149.654 108.9 155.124 127.102 154.312 148.375 C154.953 148.655 155.594 148.934 156.254 149.223 C166.399 153.925 172.281 159.852 176.312 170.375 C179.968 182.49 180.198 197.599 175.312 209.375 C174.616 211.067 174.616 211.067 173.906 212.793 C168.719 224.559 161.146 232.899 149.324 238.258 C141.437 241.184 133.66 241.701 125.312 241.375 C125.457 241.981 125.601 242.587 125.75 243.211 C127.711 252.063 128.962 260.238 124.312 268.375 C121.72 271.351 120.389 271.369 116.375 271.688 C113.006 271.568 110.356 270.897 107.312 269.375 C107.653 270.396 107.653 270.396 108 271.438 C108.429 275.473 107.186 277.829 105.312 281.375 C101.258 284.078 98.074 283.918 93.312 283.375 C90.793 282.581 88.677 281.583 86.312 280.375 C86.312 281.365 86.312 282.355 86.312 283.375 C86.903 283.465 87.494 283.555 88.103 283.647 C137.158 291.203 179.908 303.612 210.494 344.958 C212.393 347.577 214.147 350.031 215.556 352.955 C217.072 355.593 217.072 355.593 219.734 355.963 C220.694 355.946 221.655 355.929 222.644 355.911 C223.737 355.904 224.83 355.897 225.957 355.89 C227.738 355.842 227.738 355.842 229.555 355.793 C230.788 355.781 232.021 355.769 233.292 355.757 C236.589 355.723 239.885 355.668 243.181 355.602 C321.648 354.067 321.648 354.067 345.621 376.539 C356.494 388.15 358.926 401.505 358.812 417.062 C358.809 417.775 358.806 418.488 358.803 419.223 C358.661 438.154 356.106 456.681 353.312 475.375 C353.217 476.016 353.121 476.657 353.023 477.318 C351.315 488.779 349.574 500.235 347.812 511.688 C347.695 512.45 347.578 513.212 347.458 513.997 C345.796 524.798 344.089 535.592 342.312 546.375 C342.203 547.044 342.093 547.713 341.98 548.402 C341.253 552.829 340.494 557.249 339.719 561.668 C339.535 562.772 339.351 563.876 339.162 565.014 C337.861 572.208 336.28 576.927 330.464 581.725 C319.028 587.712 298.408 582.138 285.972 580.707 C271.554 578.598 271.554 578.598 258.15 583.017 C248.274 587.743 235.027 586.55 224.445 585.746 C223.031 585.649 221.616 585.552 220.202 585.456 C202.413 584.208 184.663 582.438 166.917 580.704 C159.692 579.999 152.467 579.299 145.241 578.606 C143.455 578.434 141.67 578.262 139.885 578.09 C130.064 577.142 120.244 576.268 110.403 575.558 C109.075 575.461 109.075 575.461 107.72 575.363 C103.528 575.059 99.335 574.768 95.14 574.499 C72.912 572.993 72.912 572.993 64.312 567.375 C64.943 573.156 65.964 578.719 67.312 584.375 C67.973 583.385 68.632 582.395 69.312 581.375 C71.497 581.003 71.497 581.003 74.32 581.012 C75.426 581.011 76.531 581.01 77.67 581.009 C79.535 581.035 79.535 581.035 81.438 581.062 C82.745 581.073 84.053 581.084 85.4 581.094 C90.372 581.148 95.342 581.258 100.312 581.375 C101.404 581.4 102.496 581.426 103.621 581.452 C111.081 581.63 118.539 581.837 125.997 582.07 C128.536 582.148 131.075 582.222 133.615 582.293 C137.233 582.396 140.851 582.518 144.469 582.645 C145.559 582.673 146.65 582.701 147.774 582.73 C153.642 582.959 158.149 583.485 163.312 586.375 C164.887 589.524 164.66 591.895 164.312 595.375 C162.31 598.855 160.192 601.082 156.312 602.375 C153.307 602.473 150.33 602.51 147.324 602.493 C145.933 602.488 145.933 602.488 144.514 602.483 C132.377 602.405 120.253 601.936 108.126 601.489 C105.457 601.393 102.788 601.298 100.119 601.203 C93.666 600.973 87.213 600.739 80.76 600.503 C73.186 600.227 65.612 599.955 58.038 599.683 C44.468 599.196 30.898 598.705 17.328 598.212 C4.288 597.739 -8.752 597.267 -21.792 596.798 C-22.591 596.77 -23.39 596.741 -24.213 596.711 C-27.429 596.596 -30.645 596.48 -33.861 596.364 C-47.204 595.884 -60.546 595.403 -73.888 594.921 C-76.882 594.813 -79.876 594.705 -82.87 594.597 C-101.883 593.911 -120.896 593.219 -139.909 592.515 C-143.713 592.374 -147.517 592.234 -151.321 592.094 C-157.351 591.872 -163.381 591.645 -169.411 591.416 C-171.617 591.332 -173.824 591.25 -176.03 591.169 C-179.035 591.058 -182.04 590.943 -185.045 590.826 C-186.345 590.78 -186.345 590.78 -187.671 590.732 C-201.793 590.17 -201.793 590.17 -205.5 586.875 C-208.725 582.376 -210.688 576.903 -210.688 571.375 C-211.533 571.379 -212.378 571.384 -213.249 571.388 C-221.209 571.429 -229.17 571.459 -237.13 571.479 C-241.223 571.489 -245.316 571.503 -249.408 571.526 C-253.357 571.548 -257.306 571.56 -261.254 571.565 C-262.762 571.568 -264.27 571.576 -265.777 571.586 C-267.886 571.601 -269.995 571.603 -272.105 571.602 C-273.306 571.606 -274.507 571.611 -275.745 571.616 C-278.687 571.375 -278.687 571.375 -281.688 569.375 C-281.192 566.9 -281.192 566.9 -280.688 564.375 C-258.577 564.375 -236.468 564.375 -213.688 564.375 C-220.066 541.264 -226.455 518.156 -232.941 495.075 C-234.718 488.749 -236.49 482.423 -238.263 476.096 C-239.768 470.726 -241.276 465.358 -242.791 459.99 C-244.298 454.647 -245.796 449.302 -247.29 443.955 C-247.85 441.956 -248.413 439.957 -248.979 437.96 C-249.761 435.198 -250.532 432.434 -251.302 429.669 C-251.53 428.871 -251.759 428.074 -251.994 427.253 C-255.895 413.081 -255.895 413.081 -253.125 406.875 C-249.754 403.418 -246.522 402.529 -241.747 402.129 C-240.196 402.132 -240.196 402.132 -238.613 402.134 C-237.418 402.132 -236.224 402.129 -234.993 402.126 C-233.696 402.133 -232.399 402.141 -231.063 402.148 C-229.673 402.149 -228.283 402.148 -226.893 402.147 C-223.131 402.146 -219.369 402.158 -215.607 402.172 C-211.671 402.185 -207.736 402.186 -203.8 402.188 C-196.352 402.194 -188.904 402.211 -181.456 402.231 C-172.975 402.253 -164.494 402.264 -156.013 402.274 C-138.571 402.295 -121.129 402.33 -103.688 402.375 C-99.673 394.349 -95.659 386.323 -91.658 378.29 C-89.833 374.627 -88.006 370.965 -86.179 367.303 C-85.227 365.395 -84.277 363.486 -83.326 361.577 C-82.384 359.684 -81.44 357.791 -80.495 355.898 C-79.571 354.046 -78.649 352.192 -77.729 350.338 C-75.544 345.96 -73.304 341.64 -70.886 337.386 C-70.451 336.611 -70.016 335.835 -69.568 335.036 C-68.751 333.592 -67.917 332.157 -67.061 330.736 C-65.804 328.62 -65.804 328.62 -64.688 325.375 C-66.027 321.958 -68.178 319.634 -70.762 317.07 C-71.343 316.49 -71.925 315.91 -72.524 315.313 C-73.135 314.715 -73.746 314.116 -74.375 313.5 C-75.002 312.877 -75.629 312.254 -76.275 311.613 C-79.497 308.435 -82.761 305.387 -86.25 302.5 C-89.887 299.371 -93.119 295.976 -94.688 291.375 C-95.101 283.93 -94.133 276.69 -93.188 269.312 C-93.044 268.161 -92.901 267.009 -92.754 265.822 C-92.403 263.006 -92.048 260.19 -91.688 257.375 C-123.29 255.613 -154.911 255.221 -186.555 255.274 C-191.053 255.28 -195.55 255.28 -200.048 255.282 C-208.497 255.285 -216.946 255.293 -225.395 255.303 C-235.043 255.314 -244.69 255.32 -254.338 255.325 C-274.121 255.335 -293.904 255.353 -313.688 255.375 C-314.812 251.625 -314.812 251.625 -313.688 249.375 C-310.266 248.122 -306.743 248.172 -303.133 248.059 C-302.487 248.038 -301.84 248.017 -301.174 247.995 C-299.054 247.929 -296.933 247.87 -294.812 247.812 C-294.09 247.791 -293.367 247.77 -292.622 247.748 C-277.305 247.303 -262.011 247.301 -246.688 247.375 C-247.017 234.835 -247.347 222.295 -247.688 209.375 C-253.627 207.395 -259.567 205.415 -265.688 203.375 C-272.688 197.375 -272.688 197.375 -273.938 193.812 C-273.688 190.375 -273.688 190.375 -271.812 187.5 C-268.206 185.048 -265.845 184.713 -261.578 184.516 C-259.676 184.581 -259.676 184.581 -258.688 183.375 C-259.34 182.83 -259.992 182.284 -260.664 181.723 C-275.042 169.317 -275.042 169.317 -276 160.5 C-275.688 157.375 -275.688 157.375 -274.125 155.062 C-270.189 152.337 -266.711 152.077 -262.012 152.77 C-259.555 153.253 -257.12 153.783 -254.688 154.375 C-255.097 153.59 -255.507 152.805 -255.93 151.996 C-264.924 134.459 -264.924 134.459 -261.938 125 C-259.569 121.921 -257.35 121.468 -253.562 120.938 C-244.617 121.947 -237.984 127.272 -231.688 133.375 C-231.396 132.373 -231.105 131.372 -230.805 130.34 C-226.229 115.241 -226.229 115.241 -220.688 111.375 C-217.188 110.125 -217.188 110.125 -213.688 110.375 C-208.513 113.36 -206.798 116.448 -205.211 122.125 C-203.511 129.431 -202.272 138.129 -204.688 145.375 C-203.868 144.953 -203.048 144.532 -202.203 144.098 C-201.125 143.55 -200.048 143.002 -198.938 142.438 C-197.87 141.892 -196.803 141.347 -195.703 140.785 C-190.879 138.529 -187.043 137.999 -181.688 138.375 C-177.865 140.074 -176.237 141.533 -174.688 145.375 C-174.688 152.647 -177.006 157.554 -180.508 163.871 C-180.897 164.697 -181.286 165.524 -181.688 166.375 C-181.357 167.035 -181.028 167.695 -180.688 168.375 C-179.697 168.705 -178.708 169.035 -177.688 169.375 C-174.687 170.375 -174.687 170.375 -173.688 172.375 C-173.079 175.494 -173.249 177.579 -174.793 180.383 C-179.976 187.524 -186.839 192.914 -193.688 198.375 C-194.811 199.276 -194.811 199.276 -195.957 200.195 C-197.688 201.375 -197.688 201.375 -199.688 201.375 C-199.688 202.035 -199.688 202.695 -199.688 203.375 C-194.077 203.375 -188.468 203.375 -182.688 203.375 C-181.544 205.661 -181.566 206.918 -181.574 209.458 C-181.574 210.298 -181.574 211.139 -181.574 212.005 C-181.579 212.914 -181.585 213.822 -181.59 214.758 C-181.592 216.152 -181.592 216.152 -181.594 217.574 C-181.6 220.549 -181.612 223.525 -181.625 226.5 C-181.63 228.514 -181.635 230.529 -181.639 232.543 C-181.65 237.487 -181.667 242.431 -181.688 247.375 C-180.981 247.37 -180.274 247.365 -179.546 247.359 C-160.325 247.238 -141.162 247.623 -121.955 248.302 C-118.407 248.426 -114.859 248.545 -111.311 248.664 C-104.436 248.896 -97.562 249.133 -90.688 249.375 C-89.835 247.47 -88.996 245.559 -88.163 243.646 C-87.695 242.582 -87.226 241.518 -86.743 240.423 C-85.235 236.07 -85.866 233.338 -87.375 229.125 C-90.234 219.364 -91.472 209.639 -88.203 199.816 C-85.494 190.428 -86.108 180.378 -86 170.688 C-85.967 168.618 -85.932 166.548 -85.896 164.479 C-85.812 159.444 -85.745 154.41 -85.688 149.375 C-86.165 149.931 -86.643 150.486 -87.135 151.059 C-88.078 152.147 -88.078 152.147 -89.039 153.258 C-89.661 153.979 -90.284 154.699 -90.925 155.442 C-94.886 159.786 -99.955 162.587 -105.875 162.938 C-111.855 162.055 -114.483 159.991 -118.062 155.188 C-122.3 145.644 -120.307 132.956 -116.977 123.469 C-114.82 118.293 -112.353 113.306 -109.688 108.375 C-110.424 108.3 -111.16 108.225 -111.918 108.148 C-120.886 106.94 -120.886 106.94 -123.75 103.625 C-129.734 93.588 -128.777 81.608 -126.062 70.625 C-122.54 58.838 -117.738 47.797 -106.793 41.41 C-98.327 37.248 -89.786 37.554 -80.992 40.48 C-73.388 43.432 -68.241 49.624 -62.688 55.375 C-62.699 54.816 -62.711 54.256 -62.723 53.68 C-62.94 34.376 -60.782 15.797 -46.688 1.375 C-32.117 -10.438 -15.327 -10.444 0 0 Z M-25.938 91.375 C-31.584 97.202 -35.4 104.319 -36.688 112.375 C-36.319 115.093 -36.319 115.093 -35.688 117.375 C-34.697 117.045 -33.707 116.715 -32.688 116.375 C-31.573 113.592 -31.573 113.592 -30.75 110.25 C-29.059 104.363 -27.479 98.974 -22.875 94.688 C-22.483 94.254 -22.091 93.821 -21.688 93.375 C-21.915 91.212 -21.915 91.212 -22.688 89.375 C-24.065 89.264 -24.065 89.264 -25.938 91.375 Z M-73.688 100.375 C-79.544 106.935 -83.78 114.525 -84.688 123.375 C-83.368 123.375 -82.048 123.375 -80.688 123.375 C-80.419 122.553 -80.151 121.73 -79.875 120.883 C-76.331 110.786 -71.263 103.815 -63.688 96.375 C-64.017 95.385 -64.347 94.395 -64.688 93.375 C-67.763 93.375 -71.6 98.36 -73.688 100.375 Z M27.312 98.375 C20.296 106.409 18.981 114.037 19.312 124.375 C20.303 124.375 21.293 124.375 22.312 124.375 C22.55 122.89 22.55 122.89 22.793 121.375 C24.115 113.714 25.741 107.8 30.312 101.375 C30.312 100.385 30.312 99.395 30.312 98.375 C29.322 98.375 28.332 98.375 27.312 98.375 Z M59.438 115.938 C55.926 119.966 54.159 124.168 53.938 129.5 C54.314 133.389 54.998 135.289 57.312 138.375 C58.303 138.045 59.293 137.715 60.312 137.375 C59.983 136.385 59.652 135.395 59.312 134.375 C58.56 127.315 59.561 123.304 63.312 117.375 C62.983 116.385 62.652 115.395 62.312 114.375 C61.034 114.268 61.034 114.268 59.438 115.938 Z M-217.688 117.375 C-220.445 120.604 -221.572 123.628 -222.75 127.688 C-223.086 128.832 -223.423 129.977 -223.77 131.156 C-224.072 132.218 -224.375 133.281 -224.688 134.375 C-224.918 135.169 -225.149 135.963 -225.387 136.781 C-225.828 138.31 -226.26 139.842 -226.688 141.375 C-228.949 142.066 -228.949 142.066 -231.688 142.375 C-233.645 141.152 -233.645 141.152 -235.5 139.312 C-236.186 138.669 -236.872 138.026 -237.578 137.363 C-238.274 136.707 -238.97 136.051 -239.688 135.375 C-244.558 131.165 -248.121 128.509 -254.688 128.375 C-256.09 129.562 -256.09 129.562 -255.977 132.941 C-255.91 137.736 -254.315 141.155 -252.062 145.312 C-251.702 146.008 -251.342 146.703 -250.971 147.419 C-248.536 152.037 -245.861 156.4 -242.719 160.578 C-241.688 162.375 -241.688 162.375 -241.688 166.375 C-247.776 165.643 -252.65 163.242 -258.152 160.652 C-261.908 159.295 -264.727 159.137 -268.688 159.375 C-268.174 163.716 -266.828 165.819 -263.875 169 C-262.674 170.296 -262.674 170.296 -261.449 171.617 C-259.487 173.577 -257.535 175.431 -255.457 177.258 C-254.915 177.737 -254.372 178.215 -253.814 178.708 C-252.75 179.635 -251.675 180.547 -250.587 181.444 C-247.864 183.797 -246.74 185.169 -245.844 188.703 C-245.792 189.585 -245.741 190.467 -245.688 191.375 C-249.325 192.634 -251.937 192 -255.688 191.375 C-259.023 191.285 -262.352 191.316 -265.688 191.375 C-265.688 192.695 -265.688 194.015 -265.688 195.375 C-252.494 202.76 -241.419 203.824 -226.688 202.375 C-226.358 201.715 -226.028 201.055 -225.688 200.375 C-228.324 197.017 -230.994 193.688 -233.688 190.375 C-234.335 189.576 -234.982 188.777 -235.648 187.953 C-242.377 179.989 -250.276 174.732 -259.688 170.375 C-259.358 169.055 -259.028 167.735 -258.688 166.375 C-245.511 169.725 -236.152 178.129 -227.688 188.375 C-226.697 189.365 -226.697 189.365 -225.688 190.375 C-225.251 183.894 -225.389 178.826 -228.367 173.004 C-229.731 170.289 -230.87 167.513 -232.017 164.701 C-235.156 157.106 -238.907 150.694 -243.867 144.145 C-245.657 141.421 -246.324 139.58 -246.688 136.375 C-245.368 136.375 -244.048 136.375 -242.688 136.375 C-234.648 145.321 -228.983 157.253 -224.688 168.375 C-224.358 168.375 -224.028 168.375 -223.688 168.375 C-223.541 167.386 -223.395 166.397 -223.244 165.377 C-222.702 161.713 -222.155 158.049 -221.606 154.386 C-221.369 152.799 -221.134 151.212 -220.899 149.625 C-220.562 147.346 -220.221 145.067 -219.879 142.789 C-219.775 142.078 -219.67 141.366 -219.563 140.633 C-218.801 135.603 -218.801 135.603 -217.688 133.375 C-216.697 133.375 -215.708 133.375 -214.688 133.375 C-214.578 138.96 -214.945 144.207 -215.781 149.723 C-216.009 151.314 -216.237 152.906 -216.465 154.498 C-216.823 156.958 -217.184 159.417 -217.551 161.875 C-219.123 172.472 -220.048 182.651 -219.688 193.375 C-216.338 190.345 -214.411 187.342 -212.375 183.324 C-211.774 182.151 -211.174 180.977 -210.555 179.768 C-209.932 178.533 -209.31 177.298 -208.688 176.062 C-207.461 173.648 -206.231 171.236 -205 168.824 C-204.141 167.139 -204.141 167.139 -203.266 165.419 C-201.498 162.01 -199.641 158.681 -197.688 155.375 C-196.368 155.375 -195.048 155.375 -193.688 155.375 C-194.309 159.901 -196.115 163.613 -198.188 167.625 C-198.54 168.316 -198.892 169.007 -199.255 169.719 C-200.006 171.186 -200.761 172.651 -201.519 174.115 C-202.299 175.625 -203.076 177.137 -203.849 178.65 C-207.965 186.716 -212.028 194.264 -217.688 201.375 C-217.688 202.035 -217.688 202.695 -217.688 203.375 C-203.692 200.83 -189.005 187.503 -180.688 176.375 C-180.688 176.045 -180.688 175.715 -180.688 175.375 C-183.657 175.045 -186.627 174.715 -189.688 174.375 C-190.765 170.065 -190.707 169.68 -188.816 166.004 C-188.407 165.182 -187.998 164.36 -187.576 163.514 C-187.139 162.664 -186.701 161.813 -186.25 160.938 C-185.388 159.256 -184.535 157.57 -183.691 155.879 C-183.308 155.135 -182.925 154.39 -182.53 153.623 C-181.566 151.05 -181.463 149.102 -181.688 146.375 C-182.855 145.004 -182.855 145.004 -186.062 144.938 C-192.073 144.981 -196.683 148.365 -201.688 151.375 C-203.675 152.489 -205.596 153.463 -207.688 154.375 C-208.678 153.88 -208.678 153.88 -209.688 153.375 C-211.237 147.378 -210.686 141.12 -210.473 134.982 C-210.377 129.284 -210.64 123.368 -213.688 118.375 C-215.727 117.573 -215.727 117.573 -217.688 117.375 Z M10.499 120.983 C-0.547 129.365 -11.26 136.72 -25.688 135.375 C-29.125 133.938 -29.125 133.938 -31.688 132.375 C-32.678 132.045 -33.668 131.715 -34.688 131.375 C-35.875 129.312 -35.875 129.312 -36.688 127.375 C-40.475 128.921 -42.671 131.281 -45.438 134.25 C-51.055 140.001 -56.935 144.245 -65.262 144.473 C-66.633 144.466 -68.004 144.454 -69.375 144.438 C-70.077 144.433 -70.779 144.428 -71.502 144.424 C-73.231 144.412 -74.959 144.394 -76.688 144.375 C-77.018 146.685 -77.347 148.995 -77.688 151.375 C-77.172 151.086 -76.656 150.798 -76.125 150.5 C-67.382 146.465 -58.497 146.064 -49.473 149.375 C-47.688 150.375 -47.688 150.375 -46.125 153.062 C-45.981 153.826 -45.836 154.589 -45.688 155.375 C-48.249 158.506 -50.844 159.3 -54.688 160.375 C-62.274 161.1 -68.817 160.746 -75.688 157.375 C-76.347 156.715 -77.007 156.055 -77.688 155.375 C-78.98 160.29 -78.799 165.148 -78.75 170.188 C-78.745 171.071 -78.741 171.955 -78.736 172.865 C-78.725 175.035 -78.707 177.205 -78.688 179.375 C-78.226 178.755 -77.765 178.135 -77.289 177.496 C-76.248 176.117 -75.173 174.762 -74.062 173.438 C-72.492 171.082 -72.074 169.158 -71.688 166.375 C-61.936 163.817 -51.965 162.609 -42.688 167.375 C-34.018 173.019 -30.862 180.852 -27.688 190.375 C-23.397 190.375 -19.108 190.375 -14.688 190.375 C-13.945 188.519 -13.202 186.663 -12.438 184.75 C-10.234 179.466 -8.207 174.633 -3.875 170.75 C-3.483 170.296 -3.091 169.842 -2.688 169.375 C-3.078 167.303 -3.078 167.303 -3.688 165.375 C7.577 163.922 19.381 162.6 29.062 169.812 C34.602 175.037 38.137 182.924 39.312 190.375 C47.251 189.664 54.757 187.975 62.492 186.104 C63.428 185.882 64.364 185.661 65.328 185.434 C66.166 185.23 67.005 185.027 67.868 184.818 C70.402 184.359 72.744 184.297 75.312 184.375 C75.312 185.365 75.312 186.355 75.312 187.375 C63.709 190.686 52.081 193.708 40.312 196.375 C40.082 197.304 39.851 198.234 39.613 199.191 C37.766 206.193 35.957 211.698 31.312 217.375 C31.312 218.035 31.312 218.695 31.312 219.375 C30.756 219.643 30.199 219.911 29.625 220.188 C27.243 221.37 27.243 221.37 24.812 222.938 C19.12 226.21 12.712 226.046 6.312 225.375 C-1.558 223.093 -6.607 218.373 -10.688 211.375 C-11.979 208.428 -12.886 205.486 -13.688 202.375 C-14.082 201.02 -14.477 199.666 -14.875 198.312 C-15.277 196.858 -15.277 196.858 -15.688 195.375 C-19.317 195.375 -22.947 195.375 -26.688 195.375 C-27.999 198.654 -29.143 201.705 -30.125 205.062 C-30.378 205.92 -30.63 206.777 -30.891 207.66 C-31.154 208.556 -31.417 209.452 -31.688 210.375 C-32.249 212.25 -32.811 214.125 -33.375 216 C-33.752 217.257 -33.752 217.257 -34.137 218.539 C-34.318 219.145 -34.5 219.751 -34.688 220.375 C-33.697 220.973 -32.707 221.571 -31.688 222.188 C-30.697 222.909 -29.707 223.631 -28.688 224.375 C-28.688 225.365 -28.688 226.355 -28.688 227.375 C-33.145 227.113 -35.203 226.798 -38.625 223.812 C-39.306 223.008 -39.986 222.204 -40.688 221.375 C-41.21 221.664 -41.732 221.952 -42.27 222.25 C-49.134 225.712 -55.445 226.612 -62.988 224.832 C-70.176 222.382 -74.904 217.863 -78.688 211.375 C-79.848 208.735 -80.774 206.116 -81.688 203.375 C-85.355 208.876 -84.168 215.756 -83.012 222.055 C-82.291 225.179 -81.526 228.281 -80.688 231.375 C-78.194 230.171 -76.006 228.921 -73.688 227.375 C-70.5 227.25 -70.5 227.25 -67.688 227.375 C-67.465 233.881 -67.73 239.763 -69.348 246.086 C-69.743 248.751 -69.343 250.779 -68.688 253.375 C-67.354 253.23 -66.021 253.084 -64.688 252.938 C-63.872 252.849 -63.056 252.76 -62.215 252.668 C-59.887 252.398 -57.571 252.078 -55.25 251.75 C-51.688 251.375 -51.688 251.375 -49.688 252.375 C-49.508 256.322 -49.594 258.973 -51.688 262.375 C-49.048 262.705 -46.408 263.035 -43.688 263.375 C-44.017 266.675 -44.347 269.975 -44.688 273.375 C-18.386 284.313 9.757 286.449 36.688 276.062 C45.478 272.13 53.174 266.699 60.633 260.66 C62.312 259.375 62.312 259.375 63.312 259.375 C64.613 273.019 59.855 286.751 51.312 297.375 C41.902 307.668 30.555 310.354 17.312 312.375 C18.565 318.638 20.267 324.558 22.406 330.578 C23.312 333.375 23.312 333.375 23.812 337.25 C26.384 342.607 31.926 344.378 37.312 346.375 C49.117 348.868 61.055 347.615 71.625 341.625 C81.448 335.16 87.356 326.505 90.98 315.312 C92.398 307.19 92.398 307.19 90.184 299.598 C89.69 299.112 89.196 298.626 88.688 298.125 C83.94 293.433 82.327 287.27 80.235 281.089 C79.146 277.886 78.021 274.696 76.898 271.504 C76.055 269.066 75.214 266.627 74.375 264.188 C73.961 263.005 73.547 261.823 73.12 260.604 C72.741 259.483 72.363 258.362 71.973 257.207 C71.629 256.204 71.284 255.201 70.93 254.167 C69.883 249.431 71.274 246.083 73.414 241.871 C73.821 241.048 74.229 240.225 74.648 239.377 C75.511 237.661 76.378 235.948 77.25 234.236 C77.655 233.415 78.06 232.593 78.477 231.746 C79.04 230.631 79.04 230.631 79.616 229.494 C80.443 226.977 80.343 225.8 79.312 223.375 C77.653 222.363 75.987 221.362 74.312 220.375 C74.312 219.385 74.312 218.395 74.312 217.375 C77.489 217.84 80.391 218.402 83.438 219.438 C92.088 221.53 99.383 221.236 107.191 216.801 C109.967 214.935 112.147 212.922 114.312 210.375 C114.993 209.653 115.674 208.931 116.375 208.188 C122.288 199.605 124.277 189.649 123.312 179.375 C121.602 172.184 118.539 167.372 112.312 163.375 C106.706 160.201 101.624 159.503 95.312 160.375 C87.645 162.655 83.163 167.982 79.438 174.812 C78.881 176.081 78.881 176.081 78.312 177.375 C67.244 172.008 62.523 159.773 57.312 149.375 C56.623 149.519 55.933 149.664 55.223 149.812 C45.515 151.73 38.487 152.33 29.312 148.375 C27.827 147.88 27.827 147.88 26.312 147.375 C25.375 145.688 25.375 145.688 24.312 143.375 C23.673 142.488 23.034 141.601 22.375 140.688 C17.797 133.335 16.776 125.919 16.312 117.375 C14.039 117.375 12.252 119.649 10.499 120.983 Z M-70.668 176.105 C-76.053 182.157 -77.788 189.389 -77.688 197.375 C-76.952 205.283 -73.669 211.978 -67.688 217.25 C-62.555 220.886 -58.018 222.421 -51.688 221.375 C-44.377 218.946 -39.3 215.219 -35.688 208.375 C-32.279 200.107 -31.67 192.564 -34.457 184.008 C-37.164 178.216 -41.458 173.056 -47.172 170.082 C-56.833 166.72 -63.452 169.283 -70.668 176.105 Z M-2.875 176.5 C-7.849 182.754 -10.456 189.856 -10.066 197.867 C-8.819 206.123 -4.94 212.875 1.312 218.375 C6.171 221.202 10.743 222.291 16.312 221.375 C23.543 219.231 27.428 215.891 31.5 209.516 C35.62 201.905 35.837 192.665 33.465 184.434 C30.769 178.448 26.718 174.073 21.312 170.375 C11.725 167.179 3.892 169.379 -2.875 176.5 Z M-239.688 210.375 C-239.688 222.585 -239.688 234.795 -239.688 247.375 C-222.858 247.375 -206.028 247.375 -188.688 247.375 C-188.688 235.165 -188.688 222.955 -188.688 210.375 C-205.517 210.375 -222.347 210.375 -239.688 210.375 Z M-73.688 233.375 C-80.477 240.611 -85.688 247.205 -85.688 257.375 C-80.243 256.385 -80.243 256.385 -74.688 255.375 C-74.028 248.115 -73.368 240.855 -72.688 233.375 C-73.018 233.375 -73.347 233.375 -73.688 233.375 Z M-72.875 260.25 C-73.777 260.424 -74.678 260.598 -75.607 260.777 C-76.473 260.951 -77.339 261.125 -78.23 261.305 C-79.406 261.54 -79.406 261.54 -80.606 261.781 C-82.965 262.34 -82.965 262.34 -85.688 264.375 C-86.775 268.202 -87.091 272.179 -87.562 276.125 C-87.795 277.753 -87.795 277.753 -88.031 279.414 C-89.078 287.354 -89.078 287.354 -85.688 294.375 C-83.451 296.787 -81.076 298.995 -78.625 301.188 C-77.958 301.799 -77.29 302.411 -76.603 303.041 C-73.629 305.758 -70.628 308.439 -67.582 311.074 C-66.709 311.833 -65.837 312.593 -64.938 313.375 C-63.801 314.334 -63.801 314.334 -62.641 315.312 C-60.226 317.862 -58.922 320.083 -57.688 323.375 C-58.076 328.237 -59.795 332.138 -61.996 336.418 C-62.323 337.068 -62.65 337.719 -62.986 338.389 C-64.025 340.45 -65.075 342.506 -66.125 344.562 C-66.827 345.955 -67.528 347.347 -68.229 348.74 C-68.9 350.071 -69.573 351.401 -70.246 352.73 C-70.561 353.352 -70.875 353.974 -71.2 354.615 C-72.58 357.317 -74.001 359.846 -75.688 362.375 C-75.382 365.813 -74.023 367.433 -71.5 369.688 C-61.847 377.758 -50.236 382.51 -37.688 382.375 C-36.5 377.502 -35.312 372.63 -34.126 367.757 C-33.71 366.049 -33.294 364.341 -32.878 362.633 C-30.242 351.813 -27.614 340.991 -25.097 330.142 C-23.795 324.589 -23.795 324.589 -22.688 322.375 C-22.105 312.358 -22.358 302.944 -25.688 293.375 C-25.954 292.581 -26.221 291.787 -26.496 290.969 C-27.718 287.972 -28.708 285.975 -31.512 284.258 C-35.438 282.687 -39.495 281.899 -43.688 281.375 C-43.243 281.834 -42.798 282.293 -42.34 282.766 C-41.774 283.379 -41.208 283.993 -40.625 284.625 C-40.057 285.228 -39.488 285.832 -38.902 286.453 C-37.688 288.375 -37.688 288.375 -38.004 290.609 C-38.342 291.483 -38.342 291.483 -38.688 292.375 C-42.002 291.787 -43.693 290.735 -46.125 288.438 C-51.563 283.633 -55.595 283.135 -62.688 283.375 C-60.412 285.738 -58.104 287.83 -55.5 289.812 C-52.573 292.479 -51.908 293.514 -51.688 297.375 C-52.678 297.705 -53.668 298.035 -54.688 298.375 C-55.558 297.509 -55.558 297.509 -56.445 296.625 C-57.226 295.882 -58.008 295.14 -58.812 294.375 C-59.578 293.632 -60.344 292.89 -61.133 292.125 C-63.996 289.81 -63.996 289.81 -69.688 290.375 C-69.688 286.085 -69.688 281.795 -69.688 277.375 C-67.738 276.725 -67.738 276.725 -65.75 276.062 C-64.528 275.651 -64.528 275.651 -63.281 275.23 C-61.58 274.669 -59.872 274.129 -58.156 273.613 C-56.965 273.248 -56.965 273.248 -55.75 272.875 C-54.654 272.55 -54.654 272.55 -53.535 272.219 C-51.329 271.407 -51.329 271.407 -49.688 268.375 C-58.539 268.829 -66.989 269.588 -75.688 271.375 C-76.678 276.985 -77.668 282.595 -78.688 288.375 C-80.007 288.705 -81.327 289.035 -82.688 289.375 C-82.381 286.27 -82.066 283.166 -81.75 280.062 C-81.663 279.181 -81.576 278.3 -81.486 277.393 C-81.399 276.545 -81.312 275.697 -81.223 274.824 C-81.144 274.044 -81.066 273.264 -80.985 272.46 C-80.688 270.375 -80.688 270.375 -79.688 267.375 C-77.281 266.496 -77.281 266.496 -74.188 265.812 C-73.107 265.562 -72.027 265.312 -70.914 265.055 C-68.935 264.638 -66.951 264.242 -64.961 263.883 C-63.774 263.662 -63.774 263.662 -62.562 263.438 C-61.859 263.325 -61.155 263.213 -60.43 263.098 C-58.478 262.49 -58.478 262.49 -57.445 260.309 C-57.195 259.671 -56.945 259.032 -56.688 258.375 C-62.282 258.098 -67.427 259.137 -72.875 260.25 Z M-21.688 287.375 C-21.41 288.472 -21.133 289.569 -20.848 290.699 C-20.482 292.154 -20.116 293.608 -19.75 295.062 C-19.568 295.784 -19.385 296.505 -19.197 297.248 C-18.269 300.943 -17.39 304.628 -16.688 308.375 C-13.832 307.235 -10.98 306.089 -8.129 304.938 C-6.836 304.417 -5.543 303.896 -4.25 303.375 C-3.607 303.115 -2.965 302.854 -2.303 302.586 C1.53 301.045 5.379 299.639 9.312 298.375 C8.652 295.405 7.993 292.435 7.312 289.375 C6.057 289.314 4.801 289.254 3.508 289.191 C-4.916 288.774 -13.304 288.337 -21.688 287.375 Z M96.312 292.375 C96.478 293.427 96.642 294.479 96.812 295.562 C98.598 310.699 96.393 323.831 87.312 336.375 C86.757 336.919 86.201 337.463 85.629 338.023 C84.08 339.299 84.08 339.299 84.312 341.375 C83.749 341.644 83.186 341.914 82.605 342.191 C80.184 343.442 77.928 344.855 75.625 346.312 C64.096 353.284 50.832 355.199 37.562 352.688 C27.066 349.907 19.895 344.564 14.379 335.277 C9.046 325.763 10.368 316.772 12.312 306.375 C10.728 306.49 9.145 306.617 7.562 306.75 C6.24 306.854 6.24 306.854 4.891 306.961 C2.24 307.387 0.52 307.848 -1.688 309.375 C-6.701 320.348 -3.109 333.513 0.312 344.375 C5.665 357.854 17.28 367.013 30.25 372.688 C46.06 378.525 63.196 377.602 78.492 370.793 C82.717 368.669 86.537 366.214 90.312 363.375 C90.916 362.937 91.519 362.498 92.141 362.047 C111.14 347.155 118.119 320.043 121.312 297.375 C113.005 294.994 104.998 292.784 96.312 292.375 Z M127.312 299.375 C127.172 300.065 127.031 300.756 126.885 301.467 C126.239 304.624 125.588 307.781 124.938 310.938 C124.716 312.024 124.494 313.11 124.266 314.229 C123.138 319.683 121.947 325.05 120.312 330.375 C124.767 331.365 124.767 331.365 129.312 332.375 C130.062 335.125 130.062 335.125 130.312 338.375 C128.225 341.166 127.065 342.263 123.578 342.781 C122.085 342.828 122.085 342.828 120.562 342.875 C116.58 343.42 114.854 343.786 112.102 346.777 C110.794 348.851 109.526 350.951 108.293 353.07 C102.642 362.501 94.913 369.208 85.312 374.375 C84.462 374.835 83.611 375.295 82.734 375.77 C76.648 378.785 70.525 380.497 63.882 381.768 C58.938 382.821 56.661 384.683 53.312 388.375 C49.811 389.542 46.986 389.509 43.312 389.375 C42.653 389.045 41.993 388.715 41.312 388.375 C41.096 387.252 40.879 386.129 40.656 384.973 C39.677 381.07 39.677 381.07 35.969 379.809 C34.59 379.451 33.204 379.12 31.812 378.812 C25.676 377.199 20.668 375.245 15.328 371.707 C13.381 370.42 11.418 369.376 9.312 368.375 C8.838 368.87 8.364 369.365 7.875 369.875 C4.082 372.096 0.611 371.828 -3.688 371.375 C-7.25 370.375 -7.25 370.375 -9.688 369.375 C-10.017 367.065 -10.348 364.755 -10.688 362.375 C-4.909 362.139 -0.174 362.507 5.312 364.375 C4.949 363.865 4.585 363.354 4.211 362.828 C-4.654 350.008 -8.795 338.797 -9.312 323.312 C-9.351 322.352 -9.39 321.391 -9.43 320.4 C-9.523 318.059 -9.609 315.717 -9.688 313.375 C-12.709 314.181 -12.709 314.181 -15.688 316.375 C-17.171 319.503 -17.781 322.771 -18.461 326.152 C-18.674 327.115 -18.888 328.078 -19.108 329.07 C-19.783 332.146 -20.423 335.229 -21.062 338.312 C-21.515 340.385 -21.969 342.458 -22.426 344.529 C-23.252 348.327 -24.075 352.124 -24.865 355.929 C-25.024 356.693 -25.184 357.457 -25.348 358.244 C-25.792 360.674 -25.792 360.674 -25.688 364.375 C-25.027 364.705 -24.368 365.035 -23.688 365.375 C-23.688 366.695 -23.688 368.015 -23.688 369.375 C-24.47 369.807 -25.253 370.24 -26.059 370.685 C-28.976 372.196 -28.976 372.196 -29.914 375.545 C-30.187 376.822 -30.46 378.099 -30.742 379.414 C-30.893 380.096 -31.044 380.777 -31.199 381.479 C-31.512 382.914 -31.816 384.352 -32.11 385.791 C-32.563 388.004 -33.044 390.209 -33.531 392.414 C-34.718 397.874 -34.718 397.874 -35.688 403.375 C-33.953 405.109 -31.598 404.5 -29.237 404.501 C-28.072 404.505 -26.907 404.509 -25.707 404.513 C-24.437 404.514 -23.168 404.515 -21.859 404.516 C-19.879 404.529 -17.898 404.543 -15.918 404.558 C-11.017 404.596 -6.118 404.628 -1.217 404.625 C1.527 404.625 4.27 404.637 7.013 404.664 C9.601 404.69 12.189 404.696 14.776 404.682 C15.954 404.698 17.131 404.715 18.345 404.731 C19.896 404.737 19.896 404.737 21.478 404.742 C25.401 405.618 26.851 407.244 29.312 410.375 C30.405 413.287 30.405 413.287 31.07 416.541 C31.331 417.768 31.591 418.996 31.86 420.26 C32.124 421.601 32.388 422.941 32.652 424.281 C32.943 425.685 33.235 427.088 33.529 428.491 C34.302 432.198 35.051 435.91 35.796 439.623 C36.535 443.288 37.295 446.948 38.053 450.609 C38.351 452.057 38.65 453.505 38.948 454.953 C39.393 457.116 39.839 459.279 40.288 461.442 C41.762 468.536 43.21 475.625 44.418 482.77 C44.767 484.819 45.131 486.864 45.5 488.909 C45.949 491.423 46.367 493.942 46.748 496.467 C47.673 502.456 47.673 502.456 51.34 506.951 C53.643 507.981 55.882 508.71 58.312 509.375 C61.619 510.996 64.87 512.716 68.125 514.438 C68.957 514.871 69.789 515.305 70.646 515.752 C71.45 516.175 72.254 516.599 73.082 517.035 C73.8 517.413 74.518 517.791 75.257 518.18 C77.312 519.375 77.312 519.375 79.077 521.084 C82.508 523.066 85.605 522.103 89.312 521.375 C90.029 521.248 90.746 521.121 91.484 520.991 C93.818 520.571 96.145 520.123 98.473 519.668 C99.333 519.502 100.193 519.337 101.079 519.166 C102.905 518.814 104.732 518.462 106.558 518.108 C122.449 515.031 138.347 512.042 154.312 509.375 C152.977 496.134 152.977 496.134 146.812 485.312 C145.987 485.003 145.163 484.694 144.312 484.375 C143.322 483.715 142.332 483.055 141.312 482.375 C141.562 480.5 141.562 480.5 142.312 478.375 C144.359 477.242 144.359 477.242 146.312 476.375 C146.05 475.251 145.788 474.127 145.518 472.969 C144.535 468.752 143.556 464.535 142.577 460.317 C142.155 458.5 141.732 456.684 141.309 454.867 C136.793 435.51 136.793 435.51 135.312 426.375 C137.788 425.88 137.788 425.88 140.312 425.375 C143.915 438.019 147.175 450.718 150.25 463.5 C151.12 467.095 151.992 470.69 152.863 474.285 C153.074 475.157 153.285 476.029 153.503 476.927 C156.047 487.424 158.67 497.902 161.312 508.375 C162.501 508.254 163.69 508.133 164.914 508.008 C165.704 507.928 166.493 507.849 167.307 507.767 C169.083 507.587 170.859 507.401 172.634 507.211 C177.488 506.704 182.311 506.306 187.188 506.113 C198.96 505.924 198.96 505.924 208.812 500.25 C209.523 499.452 210.233 498.654 210.965 497.832 C217.487 491.007 227.067 486.65 236.312 485.375 C236.16 487.687 236.16 487.687 235.312 490.375 C232.871 492 232.871 492 229.75 493.375 C224.644 495.742 219.943 498.169 215.312 501.375 C215.312 502.035 215.312 502.695 215.312 503.375 C216.568 503.34 217.824 503.305 219.117 503.27 C236.357 502.939 236.357 502.939 244.312 506.375 C244.312 507.695 244.312 509.015 244.312 510.375 C243.302 510.21 242.291 510.045 241.25 509.875 C234.648 509.027 227.956 509.297 221.312 509.375 C224.311 511.712 227.429 513.671 230.688 515.625 C235.574 518.717 239.017 521.615 242.312 526.375 C241.983 527.365 241.652 528.355 241.312 529.375 C239.062 529.188 239.062 529.188 236.312 528.375 C235.721 527.617 235.129 526.859 234.52 526.078 C228.498 518.703 217.47 513.504 208.312 511.375 C197.603 510.527 186.91 512.023 176.301 513.346 C173.582 513.685 170.861 514.011 168.141 514.334 C156.806 515.702 145.556 517.395 134.312 519.375 C135.058 524.801 136.172 529.931 137.594 535.215 C139.393 543.126 139.438 550.797 139.375 558.875 C139.37 559.984 139.366 561.092 139.361 562.234 C139.35 564.948 139.333 567.661 139.312 570.375 C153.522 572.007 167.747 573.487 181.981 574.886 C185.412 575.223 188.843 575.566 192.272 575.921 C206.732 577.416 221.145 578.641 235.695 578.742 C236.823 578.756 237.951 578.771 239.113 578.785 C249.524 578.733 258.706 576.899 266.312 569.375 C275.215 558.474 277.438 546.211 276.312 532.375 C270.924 485.971 251.609 440.563 232.312 398.375 C231.677 396.976 231.677 396.976 231.028 395.549 C220.237 371.727 220.237 371.727 205.312 350.375 C204.653 350.375 203.993 350.375 203.312 350.375 C202.611 351.118 201.91 351.86 201.188 352.625 C196.74 356.879 192.522 359.375 186.312 359.375 C186.556 355.24 186.85 352.944 189.5 349.688 C192.35 347.344 195.191 345.335 198.312 343.375 C197.212 335.564 188.276 328.962 182.312 324.375 C178.152 325.705 176.245 327.235 173.688 330.75 C172.833 331.906 172.833 331.906 171.961 333.086 C171.417 333.841 170.873 334.597 170.312 335.375 C169.74 336.087 169.168 336.798 168.578 337.531 C167.044 339.304 167.044 339.304 167.688 341.5 C167.894 342.119 168.1 342.738 168.312 343.375 C167.312 345.375 167.312 345.375 165.375 346.273 C162.917 347.586 162.427 348.495 161.312 351.008 C160.982 351.732 160.653 352.457 160.312 353.203 C159.982 353.961 159.653 354.719 159.312 355.5 C158.647 356.982 157.98 358.464 157.312 359.945 C156.988 360.674 156.663 361.403 156.328 362.153 C154.749 365.608 153.033 368.988 151.312 372.375 C149.993 372.045 148.673 371.715 147.312 371.375 C147.989 366.688 149.764 362.717 151.688 358.438 C151.992 357.747 152.296 357.057 152.609 356.346 C154.011 353.186 155.446 350.127 157.09 347.082 C158.667 344.329 158.667 344.329 157.5 341 C156.912 339.701 156.912 339.701 156.312 338.375 C157.196 338.188 158.079 338.001 158.988 337.809 C163.386 335.912 164.955 333.364 167.5 329.438 C172.357 322.192 172.357 322.192 175.312 319.375 C164.742 311.741 153.489 306.567 141.188 302.438 C140.275 302.131 139.362 301.824 138.421 301.508 C134.447 300.22 131.545 299.375 127.312 299.375 Z M-79.688 371.375 C-81.235 374.268 -82.774 377.165 -84.312 380.062 C-84.739 380.86 -85.166 381.657 -85.605 382.479 C-89.232 389.325 -92.492 396.318 -95.688 403.375 C-78.345 404.068 -61.046 404.542 -43.688 404.375 C-41.634 399.286 -40.256 394.83 -39.688 389.375 C-40.654 389.133 -41.621 388.89 -42.617 388.641 C-54.173 385.694 -63.657 382.585 -73.242 375.18 C-75.358 373.618 -77.332 372.506 -79.688 371.375 Z M343.312 385.375 C343.339 386.376 343.365 387.377 343.392 388.409 C344.83 449.457 334.143 511.123 322.705 570.977 C322.232 573.463 322.232 573.463 322.312 576.375 C326.047 575.87 327.909 575.299 330.312 572.375 C331.082 569.416 331.683 566.571 332.195 563.566 C332.361 562.647 332.526 561.728 332.697 560.781 C333.253 557.648 333.786 554.513 334.312 551.375 C334.501 550.253 334.69 549.13 334.885 547.974 C336.253 539.774 337.569 531.566 338.865 523.354 C339.191 521.288 339.519 519.221 339.846 517.155 C342.695 499.169 345.427 481.171 347.875 463.125 C347.997 462.229 348.119 461.334 348.244 460.411 C350.079 446.856 351.513 433.55 351.553 419.85 C351.563 417.812 351.594 415.774 351.625 413.736 C351.668 402.871 350.113 394.575 344.312 385.375 C343.982 385.375 343.653 385.375 343.312 385.375 Z M-247.688 410.375 C-247.107 418.441 -245.058 425.886 -242.84 433.637 C-242.435 435.071 -242.031 436.505 -241.628 437.94 C-240.531 441.836 -239.425 445.73 -238.318 449.623 C-236.421 456.301 -234.539 462.983 -232.653 469.664 C-231.902 472.322 -231.15 474.98 -230.399 477.638 C-226.85 490.195 -223.357 502.768 -219.89 515.348 C-218.252 521.29 -216.608 527.23 -214.966 533.171 C-213.63 538.002 -212.298 542.834 -210.974 547.669 C-209.724 552.234 -208.464 556.796 -207.198 561.356 C-206.732 563.041 -206.269 564.727 -205.81 566.414 C-205.182 568.722 -204.541 571.026 -203.898 573.33 C-203.717 574.006 -203.537 574.682 -203.35 575.378 C-202.364 578.854 -201.654 581.245 -198.688 583.375 C-195.438 583.927 -195.438 583.927 -191.62 583.988 C-190.533 584.033 -190.533 584.033 -189.423 584.078 C-186.984 584.175 -184.545 584.25 -182.105 584.326 C-180.356 584.391 -178.607 584.458 -176.858 584.525 C-172.082 584.705 -167.305 584.868 -162.528 585.027 C-157.468 585.199 -152.408 585.386 -147.347 585.572 C-137.685 585.925 -128.022 586.263 -118.358 586.596 C-107.623 586.966 -96.888 587.354 -86.153 587.743 C-39.669 589.426 6.818 590.989 53.312 592.375 C53.112 591.722 52.911 591.069 52.704 590.396 C51.297 585.772 49.95 581.184 48.957 576.451 C48.731 575.385 48.505 574.32 48.272 573.222 C48.035 572.084 47.799 570.946 47.555 569.773 C47.154 567.877 46.754 565.981 46.354 564.084 C45.926 562.05 45.499 560.016 45.074 557.982 C44.172 553.674 43.264 549.367 42.355 545.061 C41.212 539.64 40.069 534.218 38.929 528.797 C35.628 513.112 32.31 497.431 28.983 481.752 C27.887 476.586 26.793 471.42 25.702 466.253 C25.009 462.974 24.313 459.696 23.618 456.418 C23.301 454.922 22.984 453.426 22.669 451.93 C19.739 438.035 16.533 424.205 13.312 410.375 C-95.706 409.577 -95.706 409.577 -204.726 409.252 C-207.753 409.25 -210.78 409.246 -213.807 409.242 C-218.442 409.237 -223.076 409.236 -227.711 409.241 C-229.36 409.242 -231.01 409.241 -232.659 409.239 C-234.851 409.236 -237.043 409.24 -239.235 409.246 C-241.049 409.247 -241.049 409.247 -242.899 409.248 C-245.644 409.184 -245.644 409.184 -247.688 410.375 Z M20.312 411.375 C21.822 421.161 23.818 430.825 25.883 440.504 C26.24 442.189 26.597 443.874 26.954 445.559 C27.913 450.081 28.875 454.603 29.838 459.124 C30.845 463.851 31.849 468.578 32.854 473.306 C34.094 479.143 35.336 484.98 36.578 490.817 C39.004 502.213 41.422 513.611 43.828 525.012 C45.11 531.084 46.396 537.155 47.683 543.226 C48.55 547.314 49.414 551.402 50.275 555.491 C51.079 559.314 51.889 563.135 52.702 566.956 C52.997 568.344 53.289 569.732 53.58 571.121 C55.102 578.385 56.79 585.391 59.312 592.375 C107.286 594.819 107.286 594.819 155.312 595.375 C155.972 594.055 156.632 592.735 157.312 591.375 C154.063 590.425 151.038 590.191 147.659 590.078 C146.518 590.038 145.377 589.998 144.202 589.957 C142.963 589.918 141.725 589.88 140.449 589.84 C139.152 589.797 137.855 589.754 136.519 589.71 C133.754 589.619 130.989 589.531 128.224 589.445 C124.782 589.338 121.341 589.223 117.899 589.106 C98.698 588.455 79.525 588.252 60.312 588.375 C60.22 587.814 60.128 587.253 60.033 586.674 C57.6 572.013 54.735 557.485 51.568 542.966 C50.239 536.869 48.926 530.768 47.609 524.668 C47.337 523.41 47.066 522.152 46.785 520.856 C43.833 507.184 40.942 493.5 38.062 479.812 C37.813 478.627 37.563 477.442 37.306 476.221 C34.779 464.219 32.269 452.213 29.816 440.195 C29.626 439.263 29.436 438.332 29.24 437.372 C28.366 433.087 27.497 428.802 26.634 424.515 C26.335 423.043 26.037 421.57 25.738 420.098 C25.485 418.837 25.231 417.576 24.97 416.278 C24.452 413.455 24.452 413.455 23.312 411.375 C22.322 411.375 21.332 411.375 20.312 411.375 Z M52.312 514.375 C53.041 522.246 54.292 530.008 55.774 537.769 C56.05 539.257 56.307 540.748 56.547 542.242 C57.904 551.285 57.904 551.285 62.673 558.851 C71.247 564.604 80.996 566.717 91.16 567.324 C92.505 567.418 92.505 567.418 93.878 567.513 C95.757 567.642 97.637 567.765 99.517 567.883 C102.372 568.062 105.226 568.257 108.08 568.455 C109.919 568.579 111.758 568.702 113.598 568.824 C114.439 568.88 115.279 568.937 116.146 568.995 C121.545 569.331 126.902 569.423 132.312 569.375 C137.199 554.714 132.993 535.3 127.312 521.375 C117.519 521.951 108.053 523.91 98.481 525.942 C96.453 526.37 94.422 526.783 92.391 527.195 C91.199 527.446 90.007 527.696 88.778 527.954 C82.006 528.777 77.609 527.341 72 523.625 C62.815 517.126 62.815 517.126 52.312 514.375 Z " fill="#000000" transform="translate(394.6875,144.625)"/>
<path d="M0 0 C0.924 0.474 1.849 0.949 2.801 1.438 C23.609 13.41 32.068 36.79 38.027 58.793 C42.403 77.604 41.053 97.736 32 115 C22.792 129.616 10.07 140.659 -7 145 C-25.954 148.841 -44.579 146.517 -61.062 136.125 C-78.328 123.635 -89.241 107.038 -93.375 86 C-96.235 64.183 -92.263 42.118 -79.379 23.977 C-61.244 1.286 -28.489 -14.841 0 0 Z M-70.706 24.467 C-83.518 39.648 -88.466 59.439 -87 79 C-84.7 97.576 -76.966 114.077 -62.434 126.191 C-47.069 137.61 -31.806 140.697 -13 139 C0.864 136.93 13.407 128.312 22.008 117.469 C32.842 101.523 35.258 82.614 31.812 63.938 C27.787 43.981 19.367 21.12 2 9 C-23.312 -4.57 -52.195 3.647 -70.706 24.467 Z " fill="#000000" transform="translate(694,165)"/>
<path d="M0 0 C5.076 1.642 9.034 4.665 13.312 7.75 C14.394 8.52 14.394 8.52 15.498 9.305 C21.414 13.528 21.414 13.528 24.141 15.724 C28.07 18.964 28.07 18.964 32.828 20.445 C33.627 20.34 34.427 20.234 35.25 20.125 C39.758 19.861 39.758 19.861 42.625 21.5 C44.527 24.957 44.837 28.137 44 32 C43.49 32.639 42.979 33.279 42.453 33.938 C40.571 36.608 40.843 37.812 41.312 41 C42.061 47.026 42.095 52.935 42 59 C39.525 59.495 39.525 59.495 37 60 C34.509 56.091 34.374 51.936 33.938 47.438 C33.63 40.117 33.63 40.117 30 34.188 C28 32 28 32 27.562 28.875 C27.377 27.926 27.191 26.977 27 26 C25.341 25.314 23.673 24.652 22 24 C19.898 22.5 17.885 20.987 15.875 19.375 C14.733 18.474 13.59 17.574 12.445 16.676 C11.873 16.227 11.301 15.778 10.712 15.315 C7.245 12.652 3.641 10.179 0.047 7.691 C-2 6 -2 6 -3 3 C-2.01 2.01 -1.02 1.02 0 0 Z M34 25 C33.34 26.32 32.68 27.64 32 29 C32.99 29.99 33.98 30.98 35 32 C36.32 31.34 37.64 30.68 39 30 C38.505 27.525 38.505 27.525 38 25 C36.68 25 35.36 25 34 25 Z " fill="#000000" transform="translate(630,205)"/>
<path d="M0 0 C2.188 2.438 2.188 2.438 3 5 C2.688 7.125 2.688 7.125 1 9 C-6.91 13.101 -15.639 13.27 -24.125 10.688 C-27.473 9.528 -27.91 9.135 -30 6 C-29.938 3.5 -29.938 3.5 -29 1 C-21.02 -5.039 -8.622 -4.653 0 0 Z " fill="#000000" transform="translate(416,294)"/>
<path d="M0 0 C0.33 1.32 0.66 2.64 1 4 C-0.065 4.636 -0.065 4.636 -1.152 5.285 C-3.97 6.982 -6.773 8.696 -9.562 10.438 C-10.492 11.014 -11.421 11.59 -12.379 12.184 C-14.928 13.95 -16.999 15.632 -19 18 C-19 18.99 -19 19.98 -19 21 C-17.948 21.371 -16.896 21.743 -15.812 22.125 C-11.667 23.945 -9.396 26.08 -7 30 C-6.086 34.545 -6.42 37.887 -8.562 42 C-11.67 44.55 -14.043 44.772 -18 45 C-18.33 43.68 -18.66 42.36 -19 41 C-18.196 40.402 -17.391 39.804 -16.562 39.188 C-13.777 37.191 -13.777 37.191 -13 34 C-13.891 30.948 -14.774 30.128 -17.566 28.551 C-18.555 28.142 -19.544 27.734 -20.562 27.312 C-25.951 25.049 -25.951 25.049 -27 24 C-26.868 17.545 -24.479 13.578 -20 9 C-13.715 3.952 -8.257 -0.375 0 0 Z " fill="#000000" transform="translate(506,315)"/>
<path d="M0 0 C3.818 0.075 3.818 0.075 6.062 1.812 C8.221 6.891 8.757 10.658 6.812 15.75 C5.125 18.312 5.125 18.312 3.125 19.312 C-0.355 19.691 -2.215 19.74 -5.188 17.812 C-7.451 14.458 -8.097 11.295 -7.875 7.312 C-5.115 0.413 -5.115 0.413 0 0 Z " fill="#000000" transform="translate(341.875,329.6875)"/>
<path d="M0 0 C3.688 0.312 3.688 0.312 6.125 1.688 C8.561 5.78 8.422 9.676 7.688 14.312 C6.062 17.438 6.062 17.438 3.688 19.312 C0.21 19.892 -1.555 19.743 -4.625 18 C-7.139 15.486 -7.303 13.435 -7.562 9.938 C-7.189 4.518 -5.599 0.528 0 0 Z " fill="#000000" transform="translate(401.3125,329.6875)"/>
<path d="M0 0 C2.062 0.438 2.062 0.438 4 1 C4 2.65 4 4.3 4 6 C2.125 6.625 2.125 6.625 0 7 C-0.66 6.34 -1.32 5.68 -2 5 C-1.464 1.464 -1.464 1.464 0 0 Z " fill="#000000" transform="translate(427,371)"/>
<path d="M0 0 C1.32 0 2.64 0 4 0 C4.625 1.875 4.625 1.875 5 4 C4.34 4.66 3.68 5.32 3 6 C0.875 5.625 0.875 5.625 -1 5 C-0.67 3.35 -0.34 1.7 0 0 Z " fill="#000000" transform="translate(416,375)"/>
<path d="M0 0 C3.692 0.692 3.692 0.692 5 2 C5.073 4.53 5.092 7.033 5.062 9.562 C5.058 10.273 5.053 10.984 5.049 11.717 C5.037 13.478 5.019 15.239 5 17 C7.97 17 10.94 17 14 17 C14.33 18.32 14.66 19.64 15 21 C12.099 22.934 11.103 23.301 7.812 23.625 C6.554 23.749 5.296 23.873 4 24 C4.008 24.848 4.008 24.848 4.016 25.712 C4.037 28.267 4.05 30.821 4.062 33.375 C4.071 34.264 4.079 35.154 4.088 36.07 C4.093 37.346 4.093 37.346 4.098 38.648 C4.106 39.827 4.106 39.827 4.114 41.029 C4 43 4 43 3 45 C1.35 44.67 -0.3 44.34 -2 44 C-2 38.06 -2 32.12 -2 26 C-4.97 26.33 -7.94 26.66 -11 27 C-11.495 24.525 -11.495 24.525 -12 22 C-10.543 21.496 -9.084 20.997 -7.625 20.5 C-6.813 20.222 -6.001 19.943 -5.164 19.656 C-3 19 -3 19 -1 19 C-1.012 17.712 -1.023 16.424 -1.035 15.098 C-1.045 13.419 -1.054 11.741 -1.062 10.062 C-1.071 9.212 -1.079 8.362 -1.088 7.486 C-1.091 6.677 -1.094 5.869 -1.098 5.035 C-1.103 4.286 -1.108 3.537 -1.114 2.766 C-1 1 -1 1 0 0 Z " fill="#000000" transform="translate(607,377)"/>
<path d="M0 0 C0.99 0.33 1.98 0.66 3 1 C3.949 3.285 3.949 3.285 4.688 6.062 C5.065 7.441 5.065 7.441 5.449 8.848 C5.631 9.558 5.813 10.268 6 11 C7.65 11.33 9.3 11.66 11 12 C13.97 8.04 16.94 4.08 20 0 C21.32 0.33 22.64 0.66 24 1 C24.664 2.723 24.664 2.723 25 5 C22.332 10.608 17.673 17.163 12 20 C7.955 20.552 6.314 20.197 2.812 18 C-1.27 14.228 -2.672 9.515 -3.375 4.125 C-3.189 3.073 -3.189 3.073 -3 2 C-2.01 1.34 -1.02 0.68 0 0 Z " fill="#000000" transform="translate(357,379)"/>
<path d="M0 0 C2.243 1.172 4.002 2.423 6 4 C5.625 5.938 5.625 5.938 5 8 C0.536 10.232 -6.434 9.811 -11.125 8.328 C-12.75 7.5 -12.75 7.5 -15 6 C-15.312 3.688 -15.312 3.688 -15 1 C-10.637 -3.509 -5.369 -1.79 0 0 Z " fill="#000000" transform="translate(506,521)"/>
<path d="M0 0 C2.276 1.46 3.349 2.799 5 5 C2.25 9.875 2.25 9.875 0 11 C-2.309 11.149 -4.624 11.221 -6.938 11.25 C-8.807 11.289 -8.807 11.289 -10.715 11.328 C-14 11 -14 11 -15.938 9.641 C-17 8 -17 8 -17.062 5.5 C-16 3 -16 3 -13.562 1.188 C-8.944 -0.352 -4.817 -0.898 0 0 Z " fill="#000000" transform="translate(613,536)"/>
<path d="M0 0 C1.147 -0.025 1.147 -0.025 2.316 -0.051 C4.971 0.404 5.863 1.153 7.438 3.312 C7.375 6.375 7.375 6.375 6.438 9.312 C3.595 11.178 1.241 11.608 -2.125 11.625 C-3.272 11.65 -3.272 11.65 -4.441 11.676 C-7.096 11.221 -7.988 10.472 -9.562 8.312 C-9.5 5.25 -9.5 5.25 -8.562 2.312 C-5.72 0.447 -3.366 0.017 0 0 Z " fill="#000000" transform="translate(565.5625,545.6875)"/>
<path d="M0 0 C1.824 1.367 1.824 1.367 3 3 C3.062 5.5 3.062 5.5 2 8 C-2.756 11.832 -8.247 11.358 -14.074 11.398 C-17 11 -17 11 -18.895 9.477 C-19.259 8.989 -19.624 8.502 -20 8 C-19.109 4.335 -18.32 3.197 -15.062 1.188 C-10.291 -0.57 -4.996 -0.811 0 0 Z " fill="#000000" transform="translate(467,563)"/>
<path d="M0 0 C2 3 2 3 2.125 5.5 C1 8 1 8 -2.375 9.812 C-7.449 11.427 -12.73 11.656 -18 11 C-18.99 10.34 -19.98 9.68 -21 9 C-20.691 6.14 -20.419 4.453 -18.438 2.312 C-12.232 -1.029 -6.754 -1.514 0 0 Z " fill="#000000" transform="translate(520,570)"/>
<path d="M0 0 C1 1 1 1 1.5 3.125 C0.699 7.729 -2.472 10.129 -6 13 C-9.973 15.326 -12.569 15.031 -17 14 C-17.75 11.812 -17.75 11.812 -18 9 C-14.374 2.536 -7.31 -0.891 0 0 Z " fill="#000000" transform="translate(628,586)"/>
<path d="M0 0 C1 1 1 1 1.5 4.125 C0.799 9.557 -1.801 11.715 -6 15 C-9.294 17.108 -10.916 18.096 -14.812 17.75 C-17 17 -17 17 -18 16 C-17.888 10.391 -16.338 7.457 -12.609 3.516 C-8.318 -0.526 -5.799 -1.581 0 0 Z " fill="#000000" transform="translate(577,593)"/>
<path d="M0 0 C3.639 0.854 5.664 2.127 8.48 4.582 C8.81 5.572 9.14 6.562 9.48 7.582 C8.375 9.742 8.375 9.742 6.48 11.582 C1.502 12.575 -3.337 11.949 -8.145 10.457 C-10.52 8.582 -10.52 8.582 -11.395 5.395 C-11.436 4.466 -11.477 3.538 -11.52 2.582 C-7.551 -0.938 -5.057 -0.68 0 0 Z " fill="#000000" transform="translate(453.51953125,612.41796875)"/>
<path d="M0 0 C-0.282 3.384 -0.713 4.721 -3.188 7.125 C-8.149 10.433 -11.889 12.694 -18 12 C-20 10 -20 10 -20.438 7.625 C-20 5 -20 5 -18.125 2.875 C-12.618 -0.429 -5.979 -3.787 0 0 Z " fill="#000000" transform="translate(510,616)"/>
<path d="M0 0 C5.223 2.611 8.435 6.183 11.25 11.25 C13.089 17.994 12.344 23.728 9.281 29.984 C6.944 33.661 3.904 36.048 0 38 C-5.228 38.521 -9.64 38.643 -14.438 36.375 C-18.629 32.49 -21.667 28.384 -22.238 22.582 C-22.411 16.147 -21.911 11.259 -18 6 C-12.427 0.299 -7.797 -0.864 0 0 Z M-5 6 C-7.798 14.793 -9.355 23.765 -9 33 C-7.68 32.67 -6.36 32.34 -5 32 C-4.27 28.421 -3.57 24.836 -2.875 21.25 C-2.667 20.234 -2.46 19.218 -2.246 18.172 C-2.059 17.192 -1.872 16.212 -1.68 15.203 C-1.502 14.302 -1.324 13.402 -1.14 12.474 C-0.982 9.674 -1.536 8.351 -3 6 C-3.66 6 -4.32 6 -5 6 Z " fill="#000000" transform="translate(290,626)"/>
</svg>
