<?xml version="1.0" encoding="UTF-8"?>
<!-- Generator: visioncortex VTracer 0.6.3 -->
<svg version="1.1" xmlns="http://www.w3.org/2000/svg" width="369" height="369">
<path d="M0 0 C4.83 2.46 8.81 5.58 13 9 C13.89 9.67 14.77 10.34 15.69 11.03 C32.29 23.72 41.16 36.34 44 57 C45.22 66.82 46.19 76.66 47.19 86.5 C47.46 89.17 47.74 91.85 48.01 94.52 C48.68 101.01 49.34 107.51 50 114 C63.74 116.9 77.48 119.74 91.31 122.2 C96.98 123.25 101.76 124.63 107 127 C109.18 127.49 111.36 127.93 113.56 128.31 C126.72 131.04 138.05 136 146.43 146.85 C148.86 150.74 150.87 155.37 151 160 C150.1 162.69 148.72 164.76 147 167 C146.4 167.8 145.8 168.6 145.18 169.43 C142.89 172.13 140.51 174.23 137.75 176.44 C136.78 177.22 135.81 178 134.81 178.8 C132.5 180.61 130.17 182.38 127.81 184.12 C124.51 186.57 121.43 189.18 118.37 191.91 C116.58 193.49 114.77 195.05 112.95 196.59 C105.66 202.74 98.6 209.09 91.68 215.66 C87.78 219.36 83.81 222.96 79.74 226.47 C76.82 229.04 74.12 231.83 71.43 234.64 C69.99 236.13 68.5 237.57 67 239 C66.34 239 65.68 239 65 239 C64.81 239.89 64.81 239.89 64.61 240.8 C64 243 64 243 62.3 246.2 C59.72 253.07 62.03 260.81 63.25 267.81 C63.53 269.5 63.8 271.18 64.08 272.86 C64.85 277.54 65.65 282.21 66.46 286.88 C67.03 290.18 67.6 293.47 68.16 296.77 C70.13 308.16 72.12 319.54 74.14 330.92 C74.32 331.9 74.49 332.87 74.67 333.88 C74.83 334.78 74.99 335.67 75.16 336.6 C75.36 337.77 75.36 337.77 75.58 338.97 C76 341.19 76 341.19 77 344 C77.4 349.25 76.87 352.55 74 357 C67.88 363.3 58.05 366.08 49.44 366.25 C37.38 366.07 28.72 361.58 18.99 354.95 C17.85 354.17 16.71 353.4 15.56 352.62 C14.95 352.21 14.35 351.8 13.72 351.37 C7.76 347.39 1.59 343.78 -4.6 340.16 C-15.08 334.04 -25.22 327.67 -35 320.47 C-38.66 317.78 -42.36 315.14 -46.06 312.5 C-46.74 312.01 -47.42 311.51 -48.12 311.01 C-57.37 304.4 -64.38 301.48 -76 303 C-84.37 305.01 -92.28 308.67 -100.15 312.08 C-117.11 319.41 -134.83 325.15 -153 318 C-160.48 314.51 -166.81 308.69 -169.94 300.94 C-175.03 282.22 -166.75 264.62 -157.67 248.67 C-155.67 245.17 -153.65 241.68 -151.63 238.19 C-144.71 226.15 -138.55 213.73 -133 201 C-141.2 193.83 -149.43 186.73 -158 180 C-159.5 178.79 -161 177.58 -162.5 176.38 C-165.76 173.76 -169.05 171.18 -172.35 168.63 C-173.14 168.02 -173.92 167.41 -174.73 166.79 C-176.29 165.59 -177.84 164.39 -179.4 163.19 C-195.64 150.64 -201.71 139.29 -205.75 119.3 C-206.02 115.7 -205.63 113.63 -204.25 110.31 C-203.9 109.4 -203.56 108.49 -203.2 107.55 C-197.08 100.47 -183.58 99.13 -174.71 96.85 C-172.37 96.25 -170.03 95.63 -167.7 95 C-154.67 91.59 -145.6 91.78 -132.44 94.75 C-131.2 95.02 -129.96 95.29 -128.69 95.57 C-120.78 97.32 -112.92 99.2 -105.1 101.34 C-101.8 102.04 -99.35 102.52 -96 102 C-93.95 100.15 -92.47 98.54 -90.81 96.38 C-90.34 95.79 -89.87 95.2 -89.39 94.6 C-87.91 92.75 -86.45 90.88 -85 89 C-84.1 87.86 -83.2 86.72 -82.3 85.58 C-80.49 83.29 -78.68 80.98 -76.89 78.67 C-73.79 74.71 -70.62 70.83 -67.44 66.94 C-61.82 60.06 -56.38 53.06 -51 46 C-49.46 44 -47.92 42 -46.38 40 C-43.27 35.97 -40.18 31.92 -37.09 27.86 C-36.05 26.49 -36.05 26.49 -34.99 25.09 C-33.62 23.29 -32.25 21.49 -30.88 19.69 C-28.93 17.12 -26.97 14.56 -25 12 C-24.3 11.08 -23.59 10.15 -22.87 9.2 C-21.82 7.85 -21.82 7.85 -20.76 6.48 C-19.82 5.26 -19.82 5.26 -18.86 4.02 C-13.85 -1.41 -6.89 -1.23 0 0 Z M-15 17 C-15.32 17.45 -15.64 17.89 -15.97 18.35 C-39.42 50.95 -39.42 50.95 -51.69 66.34 C-53.01 68.01 -54.32 69.69 -55.63 71.38 C-61.25 78.59 -67.01 85.68 -72.85 92.72 C-77.4 98.22 -81.75 103.84 -86.01 109.56 C-88.19 112.23 -89.79 113.82 -93.27 114.33 C-102.99 114.46 -111.98 112.29 -121.38 110.06 C-123.8 109.5 -126.23 108.94 -128.65 108.38 C-130.15 108.04 -131.64 107.69 -133.14 107.33 C-148.4 103.75 -160.53 105.16 -175.31 109.5 C-176.84 109.94 -178.37 110.37 -179.9 110.8 C-183.61 111.85 -187.31 112.92 -191 114 C-189.69 117 -188.48 118.69 -185.83 120.59 C-185.19 121.06 -184.55 121.53 -183.9 122.01 C-182.87 122.75 -182.87 122.75 -181.81 123.5 C-180.36 124.57 -178.9 125.63 -177.45 126.7 C-176.34 127.52 -176.34 127.52 -175.2 128.35 C-171.78 130.91 -168.45 133.57 -165.12 136.25 C-164.5 136.75 -163.87 137.26 -163.23 137.78 C-162.03 138.75 -160.83 139.72 -159.63 140.69 C-157.39 142.49 -155.13 144.28 -152.88 146.06 C-118.96 173.3 -118.96 173.3 -114.84 190.29 C-115.1 194.67 -117.06 198.1 -119 202 C-119.42 202.86 -119.42 202.86 -119.86 203.73 C-122.32 208.7 -124.84 213.63 -127.38 218.56 C-127.77 219.33 -128.17 220.1 -128.57 220.9 C-134.23 231.92 -140.11 242.74 -146.5 253.36 C-153.07 263.09 -153.07 263.09 -156 274 C-149.35 271.91 -142.95 269.41 -136.56 266.62 C-135.57 266.2 -134.59 265.77 -133.57 265.32 C-124.76 261.44 -116.18 257.14 -107.6 252.77 C-100.53 249.2 -93.41 245.86 -86.12 242.75 C-85.26 242.38 -84.39 242.01 -83.5 241.63 C-73.29 237.35 -65.32 236.75 -54.8 240.75 C-50.52 242.66 -46.93 245.21 -43.19 248 C-41.45 249.25 -39.72 250.5 -37.98 251.75 C-37.03 252.42 -36.09 253.1 -35.11 253.8 C-29.17 258 -23.12 262.03 -17.06 266.06 C-16.42 266.49 -15.78 266.92 -15.12 267.35 C1.82 280.97 1.82 280.97 20 289 C19.5 274.23 17.07 259.67 14.94 245.06 C14.19 239.95 13.45 234.84 12.71 229.72 C12.54 228.56 12.37 227.41 12.19 226.21 C9.99 210.88 9.99 210.88 12.19 204.31 C12.41 203.61 12.63 202.9 12.86 202.18 C18.14 192.14 31.6 184.78 40.68 178.29 C46.73 173.96 52.66 169.47 58.56 164.94 C66.95 158.5 75.48 152.34 84.15 146.3 C88.48 143.26 92.74 140.13 97 137 C94.17 135.11 92.99 134.64 89.78 134.09 C88.5 133.86 88.5 133.86 87.19 133.63 C86.25 133.47 85.32 133.32 84.35 133.15 C83.37 132.98 82.38 132.81 81.37 132.63 C79.24 132.26 77.1 131.89 74.97 131.52 C69.31 130.54 63.65 129.52 58 128.51 C56.84 128.3 55.68 128.1 54.49 127.89 C43.53 125.92 32.57 123.93 21.64 121.82 C19.68 121.44 17.72 121.07 15.76 120.71 C13.03 120.21 10.3 119.68 7.57 119.14 C6.77 119 5.97 118.86 5.15 118.71 C4.41 118.56 3.67 118.41 2.91 118.25 C2.27 118.13 1.63 118.01 0.97 117.88 C-2.19 116.47 -3.85 114.71 -6 112 C-6.67 109.12 -7.05 106.72 -7.24 103.82 C-7.34 102.63 -7.34 102.63 -7.45 101.42 C-7.65 98.95 -7.83 96.48 -8 94 C-8.11 92.5 -8.23 91.01 -8.34 89.51 C-8.61 85.77 -8.85 82.02 -9.08 78.27 C-9.22 75.83 -9.38 73.39 -9.53 70.95 C-9.97 64.04 -10.4 57.12 -10.82 50.21 C-11.08 45.94 -11.35 41.67 -11.63 37.4 C-11.73 35.79 -11.83 34.17 -11.92 32.55 C-12.06 30.31 -12.2 28.07 -12.35 25.83 C-12.42 24.55 -12.5 23.28 -12.58 21.97 C-12.71 18.89 -12.71 18.89 -15 17 Z M2.32 29.24 C0.66 31.45 0.69 32.47 0.86 35.21 C0.9 36.06 0.94 36.91 0.99 37.79 C1.06 38.71 1.12 39.64 1.19 40.59 C1.24 41.56 1.3 42.53 1.36 43.53 C1.55 46.69 1.77 49.84 2 53 C2.07 54.04 2.15 55.09 2.22 56.16 C2.69 62.55 3.2 68.94 3.73 75.32 C4 78.62 4.27 81.92 4.54 85.22 C4.71 87.33 4.89 89.45 5.06 91.57 C5.14 92.54 5.22 93.52 5.3 94.53 C5.38 95.44 5.46 96.35 5.54 97.28 C5.6 98.08 5.67 98.87 5.73 99.69 C6.02 102.16 6.48 104.56 7 107 C9.97 107.66 12.94 108.32 16 109 C15.3 95.24 14.25 81.51 13.12 67.79 C12.84 64.41 12.57 61.03 12.31 57.65 C12 53.7 11.68 49.75 11.35 45.8 C11.26 44.59 11.17 43.37 11.08 42.13 C10.98 41 10.88 39.87 10.78 38.71 C10.7 37.73 10.63 36.74 10.54 35.73 C9.92 32.58 8.95 30.54 7 28 C4.05 27.7 4.05 27.7 2.32 29.24 Z M114 139 C112.7 140.07 112.7 140.07 112.94 142.56 C112.96 143.37 112.98 144.17 113 145 C114.39 145.74 114.39 145.74 115.81 146.5 C117.02 147.14 118.23 147.79 119.44 148.44 C120.35 148.93 120.35 148.93 121.29 149.42 C125.89 151.89 125.89 151.89 127 153 C127.61 156.11 127.54 158.16 125.79 160.86 C118.81 169.05 110.3 175.81 101.98 182.56 C98.04 185.78 94.19 189.1 90.33 192.42 C86.4 195.8 82.46 199.16 78.5 202.5 C68.57 210.89 58.67 219.31 49 228 C49.33 229.32 49.66 230.64 50 232 C55.21 231.57 57.49 230.13 61.19 226.5 C64.77 223.08 68.39 219.79 72.25 216.69 C76.75 213.05 81.14 209.3 85.5 205.5 C89.78 201.77 94.08 198.08 98.5 194.5 C104.92 189.3 111.14 183.86 117.36 178.42 C118.72 177.25 120.08 176.09 121.45 174.93 C130.31 167.54 130.31 167.54 136.19 157.88 C135.87 153.01 134.34 149.43 131 145.88 C123.01 140.86 123.01 140.86 114 139 Z M46 187 C44.27 188.25 42.54 189.5 40.81 190.75 C39.37 191.79 39.37 191.79 37.89 192.86 C31.67 197.44 31.67 197.44 26.81 203.38 C26.32 204.1 25.84 204.83 25.33 205.59 C17.22 220.28 23.05 240.54 26 256 C26.32 257.7 26.32 257.7 26.65 259.43 C27.89 265.98 29.14 272.52 30.45 279.05 C30.83 281.07 31.16 283.1 31.45 285.13 C31.6 286.13 31.75 287.12 31.9 288.14 C32.02 289.02 32.13 289.91 32.26 290.83 C32.81 293.18 32.81 293.18 35.07 294.3 C35.71 294.53 36.34 294.76 37 295 C37.99 294.01 37.99 294.01 39 293 C38.8 289.92 38.46 286.99 38 283.94 C37.86 282.99 37.73 282.03 37.59 281.05 C36.37 272.78 34.83 264.57 33.28 256.35 C26.18 218.52 26.18 218.52 34.94 204.49 C38.22 200.53 42.25 197.84 46.49 195.01 C49.12 193.25 49.12 193.25 49.86 190.74 C49.9 190.17 49.95 189.59 50 189 C48.68 188.34 47.36 187.68 46 187 Z M-89.69 254.75 C-91.14 255.44 -92.6 256.12 -94.06 256.8 C-100.8 259.96 -107.48 263.23 -114.15 266.53 C-116.29 267.58 -118.42 268.64 -120.56 269.69 C-121.57 270.18 -122.57 270.68 -123.61 271.19 C-130.68 274.6 -137.47 276.83 -145.18 278.25 C-148.31 278.75 -148.31 278.75 -150 282 C-149.34 282.99 -148.68 283.98 -148 285 C-134.74 284.19 -123.21 278.28 -111.56 272.38 C-110.96 272.07 -110.36 271.77 -109.75 271.45 C-108.53 270.84 -107.31 270.22 -106.1 269.6 C-105.49 269.29 -104.89 268.99 -104.27 268.67 C-103.36 268.21 -103.36 268.21 -102.43 267.74 C-96.27 264.62 -90.06 261.58 -83.81 258.62 C-82.85 258.15 -81.89 257.68 -80.9 257.2 C-75.28 254.58 -70.22 252.53 -64 254 C-60.4 255.63 -57.24 257.74 -54 260 C-52.66 260.91 -52.66 260.91 -51.3 261.83 C-48.45 263.78 -45.63 265.76 -42.81 267.75 C-40.77 269.18 -38.73 270.61 -36.69 272.03 C-35.71 272.72 -34.73 273.4 -33.72 274.11 C-24.67 280.4 -15.43 286.4 -6.12 292.31 C-5.35 292.8 -4.58 293.3 -3.78 293.8 C1.38 297.06 6.64 300.09 12 303 C12.99 302.34 13.98 301.68 15 301 C13.54 297.31 11.8 295.94 8.43 293.93 C7.49 293.35 6.54 292.77 5.56 292.18 C4.53 291.56 3.5 290.95 2.44 290.31 C0.24 288.97 -1.96 287.62 -4.16 286.27 C-4.73 285.92 -5.29 285.57 -5.88 285.21 C-11.87 281.5 -17.69 277.55 -23.5 273.56 C-24.52 272.86 -25.54 272.16 -26.59 271.44 C-28.66 270.02 -30.73 268.6 -32.81 267.18 C-38.32 263.41 -43.88 259.71 -49.44 256 C-50.47 255.31 -51.5 254.62 -52.56 253.91 C-53.98 252.97 -53.98 252.97 -55.43 252 C-56.27 251.44 -57.11 250.89 -57.97 250.31 C-68.31 243.63 -79.9 249.99 -89.69 254.75 Z M-92.62 290.77 C-109.44 299.35 -125.13 305.82 -144 308 C-144 308.66 -144 309.32 -144 310 C-128.63 315.12 -110.57 305.5 -97 299 C-96.09 298.57 -95.19 298.14 -94.25 297.69 C-93.31 297.24 -92.37 296.79 -91.4 296.33 C-89.99 295.65 -89.99 295.65 -88.55 294.97 C-86.72 294.09 -84.9 293.21 -83.08 292.33 C-69.94 285.98 -69.94 285.98 -63 287 C-55.66 290.55 -49.46 295.98 -43.18 301.1 C-26.7 314.42 -8.69 325.58 9.63 336.17 C14.76 339.17 19.64 342.45 24.5 345.88 C33.5 352.2 41.66 356.8 53 356 C57.62 354.28 60.55 352.33 63 348 C64.01 341.96 62.74 337.36 60 332 C58.02 332.35 58.02 332.35 56 333 C55.67 333.66 55.34 334.32 55 335 C55.31 335.74 55.62 336.49 55.94 337.25 C57.16 340.4 57.29 342.64 57 346 C55 349 55 349 53.15 349.62 C40.47 351.09 31.46 343.98 21.62 336.81 C16.51 333.17 11.09 330.14 5.62 327.06 C-9.79 318.35 -23.86 308.12 -38 297.5 C-42.68 293.99 -47.36 290.48 -52.06 287 C-52.71 286.52 -53.35 286.04 -54.01 285.54 C-66.72 276.16 -80.25 284.45 -92.62 290.77 Z " fill="#000000" transform="translate(216,3)"/>
<path d="M0 0 C0.81 -0.01 1.63 -0.01 2.47 -0.02 C4.5 0.25 4.5 0.25 6.5 2.25 C7 4.59 7 4.59 6.5 7.25 C4.51 9.07 2.74 10.43 0.5 11.88 C-0.12 12.3 -0.75 12.72 -1.39 13.16 C-2.73 14.07 -4.07 14.97 -5.41 15.86 C-8.88 18.17 -12.31 20.52 -15.75 22.88 C-16.43 23.34 -17.1 23.8 -17.8 24.27 C-25.79 29.76 -33.19 35.89 -40.5 42.25 C-31.35 40.67 -22.46 38.13 -13.53 35.64 C-11.88 35.18 -10.24 34.72 -8.59 34.27 C-4.27 33.07 0.05 31.87 4.37 30.67 C8.71 29.46 13.05 28.26 17.39 27.06 C23.06 25.48 28.73 23.91 34.4 22.34 C35.88 21.92 37.36 21.52 38.83 21.11 C42.73 20.03 46.61 18.93 50.48 17.79 C51.71 17.44 51.71 17.44 52.97 17.07 C54.53 16.62 56.1 16.16 57.67 15.68 C61.37 14.62 63.82 14.1 67.5 15.25 C-16.07 45.97 -16.07 45.97 -34.75 50.06 C-35.45 50.22 -36.16 50.37 -36.88 50.53 C-41.69 51.43 -45.73 51.1 -50.5 50.25 C-51.5 49.25 -51.5 49.25 -51.88 46.62 C-50.92 38.06 -42.7 32.65 -36.44 27.58 C-34.37 25.95 -32.28 24.35 -30.19 22.75 C-29.5 22.22 -28.82 21.69 -28.12 21.14 C-22.47 16.82 -16.55 13 -10.5 9.25 C-14.31 9.98 -18.13 10.71 -21.94 11.44 C-23.1 11.66 -24.26 11.88 -25.45 12.11 C-31.54 13.28 -37.62 14.47 -43.69 15.73 C-44.82 15.96 -45.96 16.2 -47.12 16.44 C-49.3 16.89 -51.49 17.35 -53.66 17.81 C-54.65 18.02 -55.64 18.22 -56.65 18.43 C-57.52 18.61 -58.38 18.8 -59.28 18.98 C-61.5 19.25 -61.5 19.25 -64.5 18.25 C-37.72 8.4 -37.72 8.4 -24.88 4.75 C-23.66 4.4 -23.66 4.4 -22.43 4.05 C-7.56 -0.05 -7.56 -0.05 0 0 Z " fill="#000000" transform="translate(181.5,146.75)"/>
</svg>
