<?xml version="1.0" encoding="UTF-8"?>
<!-- Generator: visioncortex VTracer 0.6.3 -->
<svg version="1.1" xmlns="http://www.w3.org/2000/svg" width="847" height="847">
<path d="M0 0 C0.99 0.99 1.98 1.98 3 3 C-1.63 11.56 -8.54 17.05 -16 23 C-17.9 24.54 -19.79 26.08 -21.69 27.62 C-22.58 28.35 -23.47 29.07 -24.39 29.82 C-26.98 31.99 -29.5 34.22 -32 36.5 C-36.65 40.73 -41.46 44.72 -46.35 48.66 C-48.26 50.21 -50.17 51.76 -52.08 53.32 C-59.71 59.53 -59.71 59.53 -62.27 61.6 C-63.81 62.84 -65.32 64.12 -66.83 65.4 C-69 67 -69 67 -71.31 66.75 C-72.15 66.38 -72.15 66.38 -73 66 C-72.44 62.46 -71.35 61.08 -68.57 58.86 C-67.86 58.29 -67.16 57.72 -66.43 57.13 C-65.67 56.53 -64.91 55.93 -64.12 55.31 C-63.35 54.69 -62.57 54.06 -61.77 53.42 C-59.52 51.6 -57.26 49.8 -55 48 C-53.1 46.46 -51.2 44.92 -49.31 43.38 C-48.46 42.68 -47.61 41.98 -46.73 41.27 C-42.29 37.58 -37.93 33.82 -33.55 30.05 C-30.13 27.11 -26.69 24.17 -23.25 21.25 C-22.72 20.8 -22.18 20.34 -21.63 19.87 C-18.32 17.07 -14.94 14.39 -11.5 11.75 C-7.44 8.55 -4.82 5.31 -2 1 C-1.34 0.67 -0.68 0.34 0 0 Z " fill="#000000" transform="translate(431,101)"/>
<path d="M0 0 C1.32 0.66 2.64 1.32 4 2 C3.42 3.14 3.42 3.14 2.84 4.3 C2.35 5.29 1.87 6.29 1.38 7.31 C0.64 8.79 0.64 8.79 -0.1 10.3 C-0.4 11.19 -0.69 12.08 -1 13 C-0.01 14.48 -0.01 14.48 1 16 C0.62 18.19 0.62 18.19 0 20 C-1.65 19.67 -3.3 19.34 -5 19 C-5.29 19.95 -5.58 20.9 -5.88 21.88 C-7 25 -7 25 -9 27 C-10.32 26.67 -11.64 26.34 -13 26 C-12.34 23.03 -11.68 20.06 -11 17 C-13.64 15.68 -16.28 14.36 -19 13 C-18.67 11.68 -18.34 10.36 -18 9 C-14.44 9.61 -11.32 10.58 -8 12 C-9.65 9.69 -11.3 7.38 -13 5 C-12.34 4.01 -11.68 3.02 -11 2 C-9.06 2.81 -9.06 2.81 -7 4 C-6.67 4.99 -6.34 5.98 -6 7 C-5.34 7 -4.68 7 -4 7 C-3.71 6.22 -3.42 5.43 -3.12 4.62 C-2 2 -2 2 0 0 Z " fill="#000000" transform="translate(317,108)"/>
<path d="M0 0 C0.87 0.34 0.87 0.34 1.77 0.68 C1.19 4.05 0.16 5.65 -2.3 8 C-2.93 8.6 -3.57 9.21 -4.22 9.84 C-6.79 12.19 -9.43 14.46 -12.07 16.73 C-14.55 18.97 -16.89 21.31 -19.23 23.68 C-22.71 27.2 -26.25 30.49 -30.02 33.68 C-31.85 35.34 -33.55 37.03 -35.26 38.82 C-35.79 39.37 -36.32 39.92 -36.87 40.49 C-37.93 41.61 -38.98 42.73 -40.02 43.86 C-41.5 45.4 -41.5 45.4 -44.23 47.68 C-46.59 47.53 -46.59 47.53 -48.23 46.68 C-47.7 42.62 -45.68 40.77 -42.82 37.95 C-41.92 37.04 -41.01 36.14 -40.07 35.21 C-39.6 34.74 -39.12 34.28 -38.63 33.79 C-37.19 32.39 -35.77 30.98 -34.35 29.57 C-29.66 24.92 -24.89 20.42 -19.88 16.12 C-17.9 14.39 -16.06 12.57 -14.23 10.68 C-11.52 7.95 -8.8 5.24 -5.98 2.62 C-5.36 2.03 -4.74 1.44 -4.09 0.84 C-2.23 -0.32 -2.23 -0.32 0 0 Z " fill="#000000" transform="translate(380.234375,125.31640625)"/>
<path d="M0 0 C2.62 0.94 2.62 0.94 5 2 C5.79 9.29 6.57 16.59 7.35 23.88 C7.71 27.27 8.07 30.66 8.44 34.04 C8.86 37.95 9.27 41.85 9.69 45.75 C9.88 47.56 9.88 47.56 10.09 49.4 C10.71 55.31 11.15 61.06 11 67 C11.63 66.94 12.27 66.87 12.92 66.81 C19.54 66.16 26.16 65.51 32.78 64.86 C35.24 64.62 37.71 64.38 40.18 64.14 C43.73 63.79 47.29 63.44 50.84 63.09 C51.94 62.98 53.04 62.88 54.17 62.76 C69.66 61.27 69.66 61.27 73.06 63.12 C74.54 66.09 73.9 67.85 73 71 C71.06 73.17 69.26 74.95 67.06 76.81 C66.47 77.33 65.88 77.86 65.28 78.39 C64.08 79.45 62.88 80.5 61.68 81.55 C59.42 83.5 57.21 85.5 55 87.5 C54.22 88.2 53.43 88.9 52.62 89.62 C50.59 91.47 48.57 93.32 46.56 95.19 C45.97 95.74 45.38 96.28 44.77 96.85 C43.61 97.93 42.45 99.02 41.29 100.1 C37.22 103.89 37.22 103.89 35 105 C36.33 109.24 37.94 113.14 39.91 117.12 C40.48 118.29 41.06 119.47 41.65 120.67 C41.95 121.29 42.25 121.9 42.56 122.54 C47.51 132.59 52.34 142.69 56.88 152.94 C57.3 153.87 57.72 154.8 58.15 155.77 C61.85 164.24 61.85 164.24 61 169 C58 171 58 171 55.59 170.79 C52.88 169.96 50.9 168.92 48.53 167.38 C47.71 166.86 46.89 166.33 46.05 165.79 C45.21 165.24 44.37 164.69 43.5 164.12 C41.82 163.04 40.15 161.96 38.47 160.88 C37.69 160.38 36.91 159.88 36.11 159.36 C33.77 157.85 31.4 156.41 29 155 C36.56 170.81 45.41 185.75 55.02 200.39 C64.57 214.92 73.55 229.78 82.24 244.83 C85.1 249.78 88 254.67 91.13 259.45 C92 261 92 261 92 263 C92.57 263.04 93.15 263.08 93.74 263.12 C101.43 264.07 107.55 267 114.39 270.41 C120.2 273.26 126.03 275.49 132.19 277.5 C155.8 285.39 173.34 300.21 184.89 322.45 C191.94 336.61 198.15 354.61 196.77 370.64 C196.09 379.47 199.78 384.15 205 391 C206.16 392.64 207.32 394.27 208.48 395.91 C211.68 400.45 214.95 404.94 218.21 409.43 C219.33 410.98 220.45 412.52 221.56 414.06 C222.39 415.2 222.39 415.2 223.22 416.36 C227.91 422.84 232.48 429.4 237 436 C237.68 435.72 238.36 435.45 239.07 435.16 C242.34 433.87 245.63 432.64 248.94 431.44 C250.12 431 251.31 430.57 252.53 430.12 C263.44 426.6 274.09 427.07 284.38 432.18 C289.85 435.45 293.09 439.38 296.49 444.73 C299.11 448.68 302.25 450.94 306.12 453.62 C325.53 467.7 336.63 489.42 347.66 510.15 C349.08 512.78 350.53 515.39 352 518 C352.45 518.83 352.9 519.67 353.36 520.52 C357.05 526.81 360.71 528.86 367.56 531 C369.44 531.65 371.32 532.31 373.19 532.97 C374.15 533.3 375.11 533.63 376.1 533.97 C389.12 538.6 401.56 544.21 413 552 C411.71 555.86 410.27 556.39 406.88 558.56 C405.78 559.27 404.69 559.98 403.56 560.71 C402.68 561.27 402.68 561.27 401.79 561.84 C399.42 563.37 397.09 564.95 394.76 566.52 C372.92 581.23 350.29 594.69 327.37 607.65 C325.27 608.84 323.19 610.06 321.11 611.3 C285.5 632.22 246.78 642.76 207.12 652.94 C206.19 653.18 205.26 653.42 204.3 653.66 C201.62 654.35 198.94 655.03 196.26 655.71 C195.47 655.92 194.68 656.12 193.87 656.33 C188.28 657.74 182.66 658.91 177 660 C176.35 658.92 175.69 657.84 175.02 656.73 C170.16 648.75 165.27 640.81 160.25 632.94 C155.39 625.29 150.67 617.57 146 609.81 C145.36 608.76 144.73 607.71 144.08 606.63 C131.63 585.86 131.63 585.86 134 575 C134.35 573.95 134.7 572.9 135.06 571.81 C135.96 568.15 135.97 565.6 135.81 561.88 C135.58 543.59 149.35 525.89 159.8 511.78 C161.05 509.92 162.04 508.02 163 506 C162.68 505.52 162.36 505.04 162.03 504.54 C161.06 503.09 160.1 501.65 159.14 500.21 C158.04 498.56 156.94 496.92 155.84 495.28 C153.38 491.6 150.93 487.93 148.6 484.17 C147.93 483.1 147.25 482.04 146.56 480.94 C145.99 480 145.41 479.06 144.82 478.09 C142.55 475.48 141.41 475.24 138 475 C136.02 474.98 134.04 475.01 132.06 475.06 C115.07 475.14 99.89 470.83 84.94 463.06 C84.15 462.66 83.37 462.25 82.56 461.83 C78.78 459.79 75.5 457.68 72.3 454.8 C69.43 452.22 67.04 451.03 63.25 450.06 C53.62 447.11 46.42 441.63 39.06 434.94 C38.52 434.44 37.97 433.95 37.41 433.44 C32.18 428.51 28.37 423.67 27.62 416.31 C27.66 411.41 29.81 407.64 33 404 C33.66 404 34.32 404 35 404 C34.4 402.97 33.8 401.94 33.19 400.88 C32.83 400.23 32.46 399.58 32.09 398.91 C31.19 397.33 30.23 395.79 29.25 394.25 C27.16 388.82 26.78 383.14 28.91 377.65 C31.53 373.14 34.48 370.53 39 368 C38.84 366.71 38.84 366.71 38.68 365.4 C37.45 353.68 37.45 353.68 41 348 C44.02 344.43 46.53 342.4 51 341 C50.84 340.48 50.67 339.97 50.5 339.44 C49.19 333.06 49.96 327.67 53 322 C56.23 317.23 59.77 313.11 65.44 311.45 C68.75 310.87 71.92 310.91 75.28 310.94 C76.54 310.95 77.8 310.96 79.09 310.96 C80.53 310.98 80.53 310.98 82 311 C81.44 310.03 81.44 310.03 80.86 309.04 C72.83 295.22 64.93 281.34 57.21 267.35 C54.02 261.58 50.77 255.86 47.31 250.25 C39.69 237.75 33.23 224.55 26.75 211.44 C21.95 201.75 16.66 192.46 10.69 183.44 C4.7 174.39 -0.09 164.66 -5 155 C-5.47 155.8 -5.94 156.59 -6.42 157.42 C-8.17 160.38 -9.92 163.35 -11.67 166.32 C-12.43 167.6 -13.18 168.88 -13.94 170.16 C-15.03 172.01 -16.12 173.86 -17.21 175.7 C-17.86 176.81 -18.52 177.92 -19.19 179.07 C-22.31 184.13 -22.31 184.13 -24 186 C-27.19 186.25 -27.19 186.25 -30 186 C-32.6 181.3 -33.96 176.89 -35.06 171.69 C-35.32 170.51 -35.32 170.51 -35.58 169.31 C-38.37 155.84 -39.27 142.74 -39 129 C-40.14 128.76 -41.28 128.53 -42.46 128.28 C-53.44 125.99 -64.39 123.62 -75.33 121.13 C-76.99 120.75 -78.66 120.37 -80.32 120 C-108.21 113.79 -108.21 113.79 -113 109 C-113.31 106.56 -113.31 106.56 -113 104 C-110.9 101.38 -109.04 100.47 -105.84 99.61 C-105 99.38 -104.17 99.14 -103.31 98.91 C-102.41 98.67 -101.51 98.43 -100.58 98.19 C-99.65 97.93 -98.72 97.68 -97.76 97.41 C-94.78 96.6 -91.8 95.8 -88.81 95 C-85.85 94.2 -82.88 93.39 -79.92 92.59 C-78.08 92.08 -76.23 91.59 -74.39 91.09 C-69.12 89.67 -64.07 87.99 -59 86 C-66.15 72.69 -73.38 59.44 -80.86 46.31 C-81.63 44.96 -81.63 44.96 -82.42 43.58 C-82.87 42.79 -83.32 42 -83.79 41.18 C-87.48 34.54 -87.48 34.54 -87 30 C-85 28 -85 28 -82.19 27.71 C-78.72 28.03 -76.96 28.78 -74.01 30.57 C-73.07 31.13 -72.12 31.69 -71.16 32.27 C-70.16 32.88 -69.16 33.49 -68.12 34.12 C-65.99 35.4 -63.85 36.68 -61.71 37.96 C-60.07 38.95 -60.07 38.95 -58.38 39.97 C-52.84 43.3 -47.27 46.55 -41.69 49.81 C-40.66 50.42 -39.64 51.02 -38.58 51.64 C-37.63 52.2 -36.68 52.76 -35.7 53.33 C-34.44 54.07 -34.44 54.07 -33.16 54.82 C-30.93 56.12 -30.93 56.12 -28 57 C-27.85 56.31 -27.71 55.62 -27.55 54.9 C-23.16 35.74 -14.24 16.46 -2 1 C-1.34 0.67 -0.68 0.34 0 0 Z M-4 21 C-12.37 36.78 -18.02 52.6 -22 70 C-26.66 69.42 -30.26 67.39 -34.25 65.06 C-34.94 64.67 -35.63 64.27 -36.34 63.86 C-38.57 62.58 -40.78 61.29 -43 60 C-43.75 59.56 -44.5 59.13 -45.28 58.68 C-48.88 56.58 -52.47 54.48 -56.06 52.36 C-56.71 51.98 -57.35 51.6 -58.01 51.21 C-59.43 50.35 -60.82 49.46 -62.21 48.56 C-62.92 48.09 -63.64 47.62 -64.38 47.14 C-65.02 46.71 -65.67 46.28 -66.34 45.83 C-66.89 45.56 -67.43 45.28 -68 45 C-68.66 45.33 -69.32 45.66 -70 46 C-68.2 49.36 -66.39 52.72 -64.59 56.09 C-63.63 57.87 -62.67 59.66 -61.71 61.45 C-58.82 66.84 -55.91 72.2 -52.84 77.49 C-52.38 78.29 -51.92 79.1 -51.44 79.92 C-50.59 81.39 -49.72 82.85 -48.85 84.3 C-46.33 88.66 -45.35 91.82 -46 97 C-48.97 99.46 -52.4 100.66 -56 102 C-56 102.33 -56 102.66 -56 103 C-55.36 103.11 -54.72 103.22 -54.07 103.33 C-53.24 103.49 -52.41 103.65 -51.56 103.81 C-50.33 104.04 -50.33 104.04 -49.07 104.27 C-48.38 104.51 -47.7 104.75 -47 105 C-46.67 105.99 -46.34 106.98 -46 108 C-53.59 107.34 -61.18 106.68 -69 106 C-69.33 104.68 -69.66 103.36 -70 102 C-69.34 101.81 -68.67 101.61 -67.99 101.41 C-61.4 99.47 -61.4 99.47 -55 97 C-58.78 95.6 -61.3 96.43 -65.09 97.58 C-66.26 97.94 -67.44 98.29 -68.66 98.66 C-70.5 99.23 -70.5 99.23 -72.38 99.81 C-73.59 100.18 -74.81 100.55 -76.07 100.93 C-81.4 102.55 -86.72 104.22 -92 106 C-89.82 108.18 -89 108.42 -86.08 109.08 C-85.27 109.27 -84.46 109.46 -83.63 109.65 C-82.75 109.84 -81.87 110.04 -80.96 110.24 C-80.05 110.45 -79.13 110.66 -78.19 110.88 C-75.25 111.55 -72.31 112.21 -69.38 112.88 C-65.55 113.74 -61.72 114.62 -57.9 115.49 C-56.51 115.81 -56.51 115.81 -55.09 116.13 C-47.03 117.97 -39.01 119.95 -31 122 C-30.99 122.59 -30.97 123.17 -30.96 123.78 C-30.65 134.84 -30.11 145.79 -28.56 156.75 C-28.44 157.64 -28.32 158.52 -28.19 159.43 C-27.6 163.37 -27.26 165.61 -25 169 C-19.03 159.5 -13.5 149.82 -8.12 139.97 C-7.15 138.19 -6.17 136.42 -5.2 134.64 C-4.63 133.61 -4.06 132.57 -3.48 131.5 C-2 129 -2 129 0 127 C2.63 126.38 2.63 126.38 5 126 C4.65 125.44 4.3 124.89 3.94 124.31 C2.72 121.3 2.91 120.06 4 117 C6.62 114.98 6.62 114.98 9.88 113.19 C10.94 112.58 12.01 111.98 13.12 111.36 C16 110 16 110 19 110 C20.59 112.81 22.17 115.62 23.75 118.44 C24.19 119.22 24.64 120 25.09 120.81 C33.95 136.63 33.95 136.63 33 142 C32.34 142.99 31.68 143.98 31 145 C35.62 147.97 40.24 150.94 45 154 C45.33 153.34 45.66 152.68 46 152 C45.01 149.54 43.96 147.2 42.81 144.82 C42.47 144.1 42.12 143.38 41.77 142.64 C40.67 140.32 39.55 138 38.44 135.69 C37.71 134.17 36.99 132.65 36.26 131.13 C35.91 130.39 35.55 129.64 35.19 128.88 C34.48 127.39 33.77 125.9 33.06 124.41 C31.43 120.97 29.78 117.54 28.06 114.14 C27.5 112.98 26.93 111.83 26.35 110.64 C25.84 109.64 25.34 108.64 24.82 107.61 C24 105 24 105 24.72 102.78 C26.46 100.35 28.5 98.53 30.75 96.56 C32.08 95.39 32.08 95.39 33.45 94.19 C35.48 92.44 37.54 90.74 39.62 89.06 C40.41 88.38 41.19 87.7 42 87 C42 86.34 42 85.68 42 85 C42.88 84.61 42.88 84.61 43.78 84.22 C46.17 82.9 47.69 81.48 49.56 79.5 C51.68 77.28 53.42 75.72 56 74 C56 73.34 56 72.68 56 72 C54.7 72.12 53.41 72.24 52.07 72.37 C47.24 72.82 42.41 73.26 37.59 73.71 C35.5 73.9 33.41 74.1 31.33 74.29 C28.32 74.57 25.31 74.85 22.31 75.12 C21.38 75.21 20.46 75.3 19.5 75.39 C14.64 75.83 9.88 76.09 5 76 C3.16 70.3 2.38 64.78 1.78 58.83 C1.57 56.87 1.36 54.9 1.14 52.94 C0.82 49.87 0.5 46.79 0.18 43.72 C-0.14 40.73 -0.46 37.75 -0.78 34.77 C-0.92 33.39 -0.92 33.39 -1.06 31.98 C-1.16 31.12 -1.25 30.27 -1.35 29.38 C-1.46 28.25 -1.46 28.25 -1.58 27.1 C-2.04 24.8 -2.86 23.04 -4 21 Z M16 114 C11.55 116.97 11.55 116.97 7 120 C12.67 126.05 19.08 132.24 27 135 C25.72 129.95 24.01 125.73 21.5 121.12 C20.89 119.99 20.28 118.86 19.66 117.7 C18.28 114.92 18.28 114.92 16 114 Z M6 148 C5.67 148.66 5.34 149.32 5 150 C6.59 153.81 8.7 157.38 10.69 161 C11.23 162.02 11.77 163.05 12.33 164.1 C12.87 165.08 13.4 166.06 13.95 167.06 C14.44 167.96 14.93 168.86 15.43 169.79 C17.11 172.15 18.32 172.98 21 174 C20.41 170.11 19.25 167.3 17.28 163.92 C16.47 162.52 16.47 162.52 15.65 161.1 C15.08 160.14 14.52 159.18 13.94 158.19 C13.37 157.21 12.8 156.23 12.22 155.22 C10.82 152.81 9.41 150.4 8 148 C7.34 148 6.68 148 6 148 Z M18 176 C18.58 179.72 19.61 182.46 21.48 185.71 C22 186.61 22.52 187.52 23.05 188.45 C23.61 189.41 24.17 190.38 24.75 191.38 C25.95 193.47 27.15 195.56 28.34 197.65 C29.56 199.77 30.78 201.88 32 204 C39.71 217.43 47.16 230.98 54.39 244.67 C61.5 258.13 68.77 271.49 76.2 284.77 C77.37 286.88 78.55 288.99 79.71 291.1 C81.24 293.84 82.77 296.58 84.31 299.31 C84.75 300.11 85.19 300.9 85.64 301.72 C86.67 303.53 87.83 305.28 89 307 C89.99 307 90.98 307 92 307 C91.42 303.31 90.42 300.59 88.55 297.36 C88.04 296.47 87.53 295.57 87 294.65 C86.44 293.69 85.89 292.74 85.31 291.75 C84.13 289.68 82.94 287.61 81.75 285.54 C81.14 284.47 80.52 283.4 79.88 282.29 C76.8 276.9 73.78 271.48 70.75 266.06 C66.08 257.7 66.08 257.7 61.36 249.36 C58 243.45 54.73 237.55 51.75 231.44 C47.16 222.13 41.98 213.16 36.81 204.16 C34.92 200.85 33.03 197.54 31.15 194.22 C29.89 192.02 28.63 189.82 27.38 187.62 C26.78 186.58 26.19 185.53 25.58 184.45 C25.03 183.49 24.47 182.53 23.9 181.54 C23.41 180.69 22.92 179.83 22.42 178.95 C21.07 176.7 21.07 176.7 18 176 Z M49 213 C51.13 220.26 54.23 226.37 58.06 232.88 C58.6 233.81 59.15 234.75 59.71 235.71 C61.73 239.2 63.76 242.64 66 246 C67.32 246 68.64 246 70 246 C69.42 242.08 68.23 239.3 66.2 235.91 C65.63 234.96 65.07 234.01 64.49 233.03 C63.89 232.05 63.3 231.07 62.69 230.06 C62.11 229.09 61.52 228.11 60.92 227.1 C59.3 224.39 57.65 221.69 56 219 C55.6 218.33 55.2 217.66 54.8 216.97 C53.71 215.15 53.71 215.15 52 213 C51.01 213 50.02 213 49 213 Z M72 249 C72.62 253.23 74.11 256.52 76.06 260.31 C76.61 261.38 77.16 262.45 77.72 263.55 C78.14 264.36 78.57 265.17 79 266 C80.32 266 81.64 266 83 266 C81.88 263.73 80.75 261.46 79.62 259.19 C79.31 258.54 78.99 257.9 78.66 257.24 C77.24 254.37 75.78 251.67 74 249 C73.34 249 72.68 249 72 249 Z M87 273 C87.14 279.7 89.96 283.81 94 289 C94.66 289.85 95.31 290.69 95.99 291.56 C101.09 297.63 106.59 302.04 113.06 306.56 C119.99 311.41 125.93 316.13 131 323 C131.41 323.55 131.81 324.1 132.23 324.66 C133.54 326.46 134.81 328.29 136.06 330.12 C136.66 330.97 136.66 330.97 137.26 331.83 C140.3 336.52 140.22 339.62 140 345 C141.6 352.61 145.66 359.16 149.83 365.61 C154.32 372.68 155.87 379.67 155 388 C154.01 391.86 152.87 395.13 150 398 C145.33 398.54 140.55 398.17 136 397 C135.6 397.85 135.6 397.85 135.2 398.71 C134.84 399.45 134.49 400.18 134.12 400.94 C133.6 402.03 133.6 402.03 133.07 403.15 C132 405 132 405 130 406 C131.45 410.64 134.14 413.68 137.44 417.12 C137.93 417.65 138.42 418.17 138.92 418.71 C140.85 420.77 142.77 422.79 144.85 424.68 C146 426 146 426 146 429 C137.72 426.48 132.03 420 126.9 413.23 C125.11 410.69 125.11 410.69 121.75 410.19 C120.84 410.13 119.94 410.06 119 410 C118.79 410.68 118.58 411.35 118.37 412.05 C115.54 420.25 115.54 420.25 111.75 422.56 C109.09 423.81 106.79 424.18 103.88 424.38 C99.87 425.02 99.47 425.09 97.12 428 C96.42 428.99 95.72 429.98 95 431 C94.34 431.33 93.68 431.66 93 432 C92.5 434.15 92.5 434.15 92.19 436.69 C90.99 443.36 87.68 446.32 83 451 C95.36 459.4 110 465.08 125 466 C125.86 466.05 126.71 466.11 127.59 466.16 C135.05 466.39 141.88 465.26 149.14 463.75 C153.1 462.98 157 462.46 161 462 C159.02 466.95 155.6 467.92 151 470 C154.53 476.64 158.48 482.9 162.69 489.12 C163.3 490.04 163.92 490.96 164.55 491.9 C166.86 495.35 169.18 498.79 171.51 502.23 C176.98 510.34 182.2 518.47 187 527 C194.11 522.48 200.79 517.46 207.41 512.25 C208.87 511.1 210.35 509.96 211.82 508.81 C226.86 496.89 238.37 482.94 249 467 C248.81 462.89 246.14 460.81 243.38 458 C230.71 444.7 220.47 429.04 210 414 C207.67 410.66 205.34 407.33 203 404 C202.3 402.99 201.59 401.99 200.87 400.95 C200.15 399.94 199.43 398.92 198.69 397.88 C198.03 396.94 197.38 396.01 196.7 395.05 C196.14 394.38 195.58 393.7 195 393 C194.34 393 193.68 393 193 393 C192.81 393.64 192.61 394.28 192.41 394.93 C192.15 395.76 191.89 396.59 191.62 397.44 C191.37 398.26 191.11 399.08 190.85 399.93 C190 402 190 402 188 403 C188.24 401.12 188.24 401.12 188.48 399.21 C191.62 370.61 186.75 336.65 168.68 313.3 C156.22 297.98 140.24 289.66 121.74 283.47 C115.08 281.18 108.83 278.17 102.6 274.9 C98.63 272.9 90.88 269.12 87 273 Z M109 315 C110.29 319.26 111.92 322.9 114.16 326.75 C114.78 327.82 115.41 328.9 116.05 330.01 C116.72 331.14 117.38 332.27 118.06 333.44 C118.75 334.61 119.43 335.78 120.11 336.96 C124.41 344.34 128.77 351.67 133.19 358.98 C135.56 362.93 137.81 366.94 140 371 C140.99 371 141.98 371 143 371 C142.36 367.93 141.32 365.5 139.81 362.76 C139.37 361.95 138.92 361.14 138.46 360.3 C137.98 359.44 137.5 358.58 137 357.69 C136.51 356.8 136.01 355.91 135.5 354.99 C129.05 343.42 122.19 332.13 115 321 C114.59 320.34 114.18 319.67 113.75 318.99 C112.89 317.63 111.95 316.31 111 315 C110.34 315 109.68 315 109 315 Z M62 324 C59.39 327.71 58.32 331.22 58.53 335.8 C60.2 343.64 66.06 349.34 71.66 354.67 C74.07 357.07 76.18 359.59 78.31 362.25 C97.3 387.19 97.3 387.19 122.66 402.33 C125.22 402.19 125.22 402.19 127.38 399.94 C129.53 396.05 128.96 394.3 128 390 C126.81 387.48 125.61 385.19 124.19 382.81 C123.79 382.13 123.39 381.44 122.98 380.73 C121.67 378.48 120.34 376.24 119 374 C118.55 373.24 118.09 372.48 117.63 371.7 C115.69 368.46 113.76 365.24 111.81 362.01 C107.67 355.15 103.6 348.24 99.56 341.31 C98.98 340.32 98.4 339.33 97.81 338.31 C97.25 337.36 96.7 336.41 96.13 335.43 C95.59 334.52 95.06 333.6 94.51 332.67 C93.52 330.92 92.58 329.14 91.69 327.33 C89.48 322.5 89.48 322.5 85.09 319.96 C84.07 319.97 83.05 319.99 82 320 C80.42 319.88 80.42 319.88 78.82 319.76 C71.99 319.61 67.37 319.57 62 324 Z M48 353 C46.18 356.63 46.87 360.19 48 364 C50.32 367.66 53.1 370.79 56 374 C56.6 374.71 57.19 375.43 57.8 376.16 C60.47 379.35 63.2 382.24 66.39 384.91 C70.21 388.21 73.78 391.71 77.33 395.3 C77.89 395.87 78.45 396.43 79.03 397.02 C81.37 399.38 83.7 401.75 86.03 404.13 C87.75 405.88 89.48 407.62 91.2 409.36 C91.73 409.9 92.25 410.44 92.79 410.99 C95.33 413.54 97.56 415.79 101 417 C104.94 416.92 106.52 416.45 109.44 413.75 C111.25 411.17 111.25 411.17 110.8 408.54 C109.9 405.67 108.97 404.55 106.75 402.55 C106.09 401.93 105.42 401.32 104.73 400.69 C103.66 399.73 103.66 399.73 102.56 398.75 C101.83 398.08 101.1 397.41 100.35 396.72 C97.31 393.95 94.24 391.21 91.14 388.51 C84.52 382.77 79.02 376.36 73.41 369.66 C71.39 367.29 69.29 364.99 67.19 362.69 C63.68 358.85 60.54 354.84 57.51 350.62 C57.01 350.08 56.51 349.55 56 349 C52.06 349 50.87 350.43 48 353 Z M38 380 C36.31 383.37 36.2 386.39 37 390 C44.12 402.68 58.1 411.31 69.88 419.19 C71.36 420.2 71.36 420.2 72.87 421.23 C79.89 425.89 79.89 425.89 88 426 C88.99 425.34 89.98 424.68 91 424 C90.44 420.07 88.65 418.27 85.9 415.51 C85.02 414.63 84.15 413.75 83.26 412.84 C82.3 411.89 81.34 410.94 80.38 409.98 C79.4 409 78.43 408.02 77.45 407.04 C75.4 404.99 73.35 402.94 71.29 400.9 C68.65 398.28 66.03 395.64 63.41 393 C61.39 390.98 59.37 388.96 57.34 386.94 C56.37 385.97 55.4 385 54.44 384.03 C53.09 382.67 51.72 381.32 50.36 379.98 C49.59 379.21 48.82 378.44 48.02 377.64 C43.82 374.23 41.46 376.9 38 380 Z M146 377 C145.94 377.7 145.88 378.4 145.82 379.12 C145.73 380.03 145.65 380.94 145.56 381.88 C145.48 382.78 145.4 383.68 145.32 384.62 C145 387 145 387 144 389 C141.94 389.62 141.94 389.62 140 390 C140.33 390.99 140.66 391.98 141 393 C143.85 392.69 145.58 392.35 147.81 390.5 C149.59 386.76 149.41 383.08 149 379 C148.67 378.34 148.34 377.68 148 377 C147.34 377 146.68 377 146 377 Z M41 409 C38.79 410.54 38.79 410.54 37 413 C36.74 417.58 37.94 420.34 40.75 423.81 C49.85 433.44 60.93 442.33 74.51 443.1 C77.84 442.97 79.6 442.33 82 440 C82.71 438.35 83.38 436.68 84 435 C83.02 434.71 83.02 434.71 82.02 434.41 C74.05 431.8 67.78 427.86 61 423 C59.78 422.13 58.56 421.27 57.34 420.4 C54.96 418.71 52.59 417 50.23 415.3 C47.19 413.13 44.12 411.05 41 409 Z M260.71 442.08 C259.94 442.98 259.17 443.88 258.38 444.81 C257.21 446.15 257.21 446.15 256.02 447.52 C253.92 450.02 253.92 450.02 252 453 C252.31 455.15 252.31 455.15 253 457 C256.27 456.73 257.2 455.8 259.58 453.42 C260.48 452.35 261.37 451.27 262.25 450.19 C262.71 449.65 263.17 449.12 263.64 448.57 C266.29 445.36 267 444.3 267 440 C262.98 439.55 262.98 439.55 260.71 442.08 Z M277 446 C276.8 446.61 276.61 447.22 276.41 447.84 C270.2 466.96 263.01 483.58 250 499 C249.27 499.87 248.54 500.74 247.79 501.64 C237.52 513.44 225.65 522.92 213 532 C212.16 532.6 211.32 533.21 210.46 533.83 C193.77 545.8 176.45 556.62 158.8 567.09 C158.04 567.54 157.28 568 156.5 568.47 C155.13 569.3 153.75 570.11 152.37 570.91 C150.39 572.05 150.39 572.05 148 574 C148 575.32 148 576.64 148 578 C152.19 577.41 155.11 575.99 158.73 573.82 C159.83 573.17 160.94 572.51 162.07 571.83 C163.26 571.12 164.44 570.4 165.62 569.69 C166.85 568.96 168.07 568.22 169.29 567.49 C205.79 545.64 205.79 545.64 238.85 518.99 C240.8 517.18 242.82 515.5 244.88 513.81 C262.19 498.59 276.11 475.58 281 453 C281.06 451 281.07 449 281 447 C279.02 446.5 279.02 446.5 277 446 Z M286.5 472 C282.97 476.23 280.21 480.42 279.75 486 C279.83 486.66 279.91 487.32 280 488 C282.41 487.85 282.41 487.85 285 487 C286.67 484.95 286.67 484.95 287.81 482.44 C288.23 481.61 288.65 480.78 289.08 479.93 C289.38 479.3 289.69 478.66 290 478 C290.66 478 291.32 478 292 478 C293.65 481.3 295.3 484.6 297 488 C299.97 488.35 302.16 488.54 304.73 486.89 C306.2 485.64 307.61 484.33 309 483 C309.05 484.06 309.1 485.12 309.15 486.21 C309.22 487.6 309.3 488.99 309.38 490.38 C309.41 491.07 309.44 491.77 309.47 492.49 C309.59 496.7 309.59 496.7 312 500 C314.69 500.27 317.29 500.09 320 500 C320.99 502.64 321.98 505.28 323 508 C324.98 507.5 324.98 507.5 327 507 C327.31 501.8 326.92 498.38 324 494 C320.89 492.44 318.29 493.18 315 494 C315.04 492.82 315.08 491.65 315.12 490.44 C315.12 485.56 314.41 481.15 311.69 477 C309.97 475.78 309.97 475.78 307.5 476.06 C304.54 477.17 303.74 478.43 302 481 C301.34 481 300.68 481 300 481 C299.75 480.46 299.49 479.91 299.23 479.36 C298.89 478.64 298.54 477.92 298.19 477.19 C297.85 476.48 297.51 475.77 297.17 475.04 C295.95 472.92 294.94 471.49 293 470 C288.99 469.58 288.99 469.58 286.5 472 Z M336 516 C334.35 517.23 334.35 517.23 333 519 C333 521.15 333 521.15 334 523 C334.99 523.33 335.98 523.66 337 524 C338.22 527.18 339.17 530.35 340.11 533.63 C340.66 535.45 341.32 537.23 342 539 C342.99 539.33 343.98 539.66 345 540 C345.66 539.67 346.32 539.34 347 539 C346.74 531.1 344.4 524.61 340 518 C337.93 516.63 337.93 516.63 336 516 Z M170.71 522.18 C157.4 535.47 157.4 535.47 151 552 C154 551.67 155.59 551.4 157.77 549.25 C158.3 548.51 158.83 547.76 159.38 546.99 C159.97 546.17 160.56 545.35 161.17 544.5 C161.78 543.63 162.38 542.77 163 541.88 C163.6 541.03 164.21 540.19 164.83 539.32 C166.01 537.66 167.19 536 168.35 534.33 C169.4 532.85 170.47 531.38 171.56 529.92 C174.38 526.4 174.38 526.4 174.81 522.06 C174.54 521.38 174.28 520.7 174 520 C172.59 519.89 172.59 519.89 170.71 522.18 Z " fill="#000000" transform="translate(269,130)"/>
<path d="M0 0 C1.32 0.33 2.64 0.66 4 1 C3.41 4.34 2.36 6.04 0.04 8.48 C-0.59 9.14 -1.22 9.8 -1.86 10.48 C-2.55 11.19 -3.23 11.9 -3.94 12.62 C-4.64 13.36 -5.34 14.1 -6.07 14.86 C-12.29 21.35 -18.65 27.71 -25.06 34.02 C-28.62 37.54 -31.87 41.08 -35 45 C-37.25 45.81 -37.25 45.81 -39 46 C-39.73 44.28 -39.73 44.28 -40 42 C-38.56 39.85 -38.56 39.85 -36.32 37.51 C-35.49 36.63 -34.66 35.75 -33.8 34.84 C-32.87 33.91 -31.95 32.97 -31 32 C-30.53 31.52 -30.06 31.04 -29.57 30.55 C-26.04 26.96 -22.46 23.41 -18.88 19.88 C-12.36 13.44 -5.88 7.04 0 0 Z " fill="#000000" transform="translate(344,130)"/>
<path d="M0 0 C4.85 0.43 6.7 2.36 9.94 5.88 C14.72 10.95 19.86 15.2 25.49 19.29 C29.81 22.52 29.81 22.52 30.9 25.32 C30.95 26.15 30.95 26.15 31 27 C29.32 27.74 29.32 27.74 27 28 C24.55 26.45 24.55 26.45 21.88 24.12 C20.91 23.29 19.94 22.46 18.95 21.61 C17.97 20.75 17 19.89 16 19 C15.11 18.22 14.22 17.44 13.3 16.64 C8.36 12.26 3.6 7.74 -1 3 C-0.67 2.01 -0.34 1.02 0 0 Z " fill="#000000" transform="translate(132,162)"/>
<path d="M0 0 C1.92 0.51 1.92 0.51 4 2 C4.65 4.71 5.02 7.06 5.25 9.81 C5.33 10.57 5.4 11.32 5.48 12.1 C6.1 18.74 6.21 25.33 6 32 C2.36 32.88 -0.6 33.01 -4.31 32.56 C-5.64 32.41 -5.64 32.41 -6.99 32.25 C-7.65 32.17 -8.32 32.09 -9 32 C-10.12 28.66 -9.86 26.59 -8.89 23.23 C-8.5 21.87 -8.5 21.87 -8.1 20.48 C-7.82 19.54 -7.54 18.59 -7.25 17.62 C-6.98 16.69 -6.72 15.76 -6.45 14.8 C-3 3 -3 3 0 0 Z M-1 13 C-1.67 15.12 -2.34 17.25 -3 19.38 C-3.37 20.56 -3.74 21.74 -4.12 22.96 C-5.09 25.79 -5.09 25.79 -5 28 C-2.03 28.5 -2.03 28.5 1 29 C1 24.05 1 19.1 1 14 C0.34 13.67 -0.32 13.34 -1 13 Z " fill="#000000" transform="translate(261,170)"/>
<path d="M0 0 C-0.33 0.99 -0.66 1.98 -1 3 C-7.89 6.4 -16.31 9 -24 9 C-24 8.34 -24 7.68 -24 7 C-20.95 5.62 -17.88 4.28 -14.81 2.94 C-13.95 2.55 -13.08 2.16 -12.19 1.76 C-11.35 1.39 -10.51 1.03 -9.64 0.65 C-8.87 0.31 -8.1 -0.03 -7.31 -0.38 C-4.54 -1.12 -2.74 -0.75 0 0 Z " fill="#000000" transform="translate(512,172)"/>
<path d="M0 0 C3.36 1.46 5.57 3.34 8.19 5.88 C18.24 15.09 29.8 22.59 41.66 29.28 C44 31 44 31 44.84 33.22 C44.9 33.81 44.95 34.39 45 35 C42.53 35.92 41.43 36.19 38.96 35.11 C38.25 34.64 37.53 34.16 36.8 33.68 C35.58 32.88 35.58 32.88 34.35 32.07 C33.49 31.49 32.63 30.91 31.75 30.31 C30.87 29.72 29.98 29.14 29.07 28.53 C23.33 24.67 17.68 20.69 12.12 16.56 C11.49 16.09 10.86 15.62 10.2 15.14 C6.13 12.04 2.43 8.81 -1 5 C-0.88 2.12 -0.88 2.12 0 0 Z " fill="#000000" transform="translate(128,177)"/>
<path d="M0 0 C-1 3 -1 3 -2.64 4.02 C-3.36 4.33 -4.08 4.63 -4.81 4.95 C-6.04 5.47 -6.04 5.47 -7.28 6.01 C-8.18 6.38 -9.08 6.74 -10 7.12 C-10.93 7.52 -11.87 7.91 -12.83 8.31 C-28.71 14.87 -44.98 20.41 -61.3 25.75 C-67.55 27.81 -73.74 29.97 -79.93 32.2 C-81.48 32.76 -83.04 33.32 -84.6 33.88 C-86.91 34.72 -89.23 35.55 -91.54 36.4 C-93.7 37.2 -95.86 37.98 -98.02 38.75 C-98.66 39 -99.31 39.24 -99.98 39.49 C-103.33 40.68 -105.63 41.38 -109 40 C-108.83 38.14 -108.83 38.14 -108 36 C-105.75 34.79 -105.75 34.79 -102.73 33.78 C-101.6 33.39 -100.47 33 -99.3 32.6 C-98.06 32.19 -96.82 31.79 -95.54 31.37 C-94.24 30.93 -92.94 30.49 -91.65 30.04 C-88.2 28.87 -84.74 27.72 -81.29 26.57 C-77.89 25.44 -74.49 24.3 -71.1 23.15 C-69.75 22.7 -68.41 22.24 -67.07 21.79 C-66.4 21.56 -65.74 21.34 -65.06 21.11 C-63.04 20.43 -61.02 19.75 -59.01 19.07 C-49.81 15.98 -40.65 12.8 -31.52 9.55 C-30.38 9.15 -29.23 8.74 -28.06 8.33 C-21.06 5.82 -14.26 3.1 -7.57 -0.14 C-4.6 -1.13 -2.96 -0.89 0 0 Z " fill="#000000" transform="translate(468,186)"/>
<path d="M0 0 C5.32 0.54 9.16 2.39 13.75 4.94 C14.76 5.48 14.76 5.48 15.79 6.03 C18.49 7.5 20.81 8.81 23 11 C22.69 14.51 21.1 16.36 18.69 18.81 C18.09 19.44 17.5 20.06 16.89 20.71 C15 22 15 22 13.02 22.02 C10.1 20.54 8.85 18.49 7 15.81 C6.31 14.82 5.62 13.82 4.91 12.8 C4.28 11.87 3.65 10.95 3 10 C2.52 9.37 2.05 8.73 1.56 8.08 C-1.06 4.54 -1.06 4.54 -0.75 1.62 C-0.5 1.09 -0.25 0.55 0 0 Z M8 8 C9.31 11.94 10.92 14.23 14 17 C15.54 15.63 15.54 15.63 17 14 C17 13.34 17 12.68 17 12 C12.54 10.02 12.54 10.02 8 8 Z " fill="#000000" transform="translate(218,192)"/>
<path d="M0 0 C0.99 0 1.98 0 3 0 C4.86 32.2 -11.55 57.65 -28.25 83.88 C-40.08 102.47 -50.63 121.19 -55 143 C-55.19 143.94 -55.38 144.87 -55.58 145.84 C-57.42 159.64 -55.86 173.24 -53.44 186.85 C-52.29 193.5 -51.61 199.94 -51.62 206.69 C-51.62 207.83 -51.62 207.83 -51.62 208.99 C-51.71 213.34 -52.41 216.96 -54 221 C-54.66 221 -55.32 221 -56 221 C-56.01 220.09 -56.01 220.09 -56.03 219.16 C-56.25 207.81 -56.81 196.84 -59.06 185.69 C-62.72 166.9 -62.79 147.34 -57 129 C-56.8 128.34 -56.59 127.68 -56.38 127 C-50.67 109.07 -40.67 93.2 -30.53 77.49 C-15.51 54.21 -3.63 33.05 -1.39 4.98 C-1 1 -1 1 0 0 Z " fill="#000000" transform="translate(490,204)"/>
<path d="M0 0 C1.32 0.66 2.64 1.32 4 2 C4 2.66 4 3.32 4 4 C2.35 4 0.7 4 -1 4 C-0.67 2.68 -0.34 1.36 0 0 Z " fill="#000000" transform="translate(258,210)"/>
<path d="M0 0 C1 1 1 1 1.27 3.32 C0.68 9.17 -5.57 12.82 -9.84 16.33 C-17.24 22.01 -17.24 22.01 -20.19 21.97 C-23.83 20.02 -24.75 15.73 -26 12 C-26.52 9.63 -26.79 7.42 -27 5 C-18.48 1.33 -9.29 -0.4 0 0 Z M-15.69 5.88 C-16.66 6.04 -17.63 6.2 -18.64 6.37 C-19.81 6.68 -19.81 6.68 -21 7 C-22.6 10.2 -21.03 12.72 -20 16 C-16.09 15.41 -13.78 13.51 -10.75 11.06 C-9.41 10 -9.41 10 -8.05 8.91 C-7.37 8.28 -6.7 7.65 -6 7 C-6 6.34 -6 5.68 -6 5 C-9.42 5 -12.34 5.29 -15.69 5.88 Z " fill="#000000" transform="translate(307,209)"/>
<path d="M0 0 C1.65 0.33 3.3 0.66 5 1 C4.72 1.54 4.45 2.08 4.16 2.64 C2.84 5.32 1.61 8.03 0.38 10.75 C-0.29 12.23 -0.29 12.23 -0.98 13.73 C-1.31 14.48 -1.65 15.23 -2 16 C-3.32 15.67 -4.64 15.34 -6 15 C-5.61 8.84 -3.53 5.01 0 0 Z " fill="#000000" transform="translate(245,211)"/>
<path d="M0 0 C0.66 0 1.32 0 2 0 C1.67 1.65 1.34 3.3 1 5 C0.01 5 -0.98 5 -2 5 C-1.12 1.12 -1.12 1.12 0 0 Z " fill="#000000" transform="translate(270,214)"/>
<path d="M0 0 C0.89 0.12 1.77 0.25 2.69 0.38 C2.69 1.37 2.69 2.35 2.69 3.38 C2.05 3.56 1.41 3.75 0.75 3.94 C-1.73 5.32 -1.73 5.32 -2.06 9 C-2.15 10.11 -2.23 11.23 -2.31 12.38 C-0.99 12.71 0.33 13.03 1.69 13.38 C2.12 12.55 2.55 11.72 3 10.88 C3.56 10.05 4.11 9.22 4.69 8.38 C5.68 8.38 6.67 8.38 7.69 8.38 C7.38 11.93 6.71 13.35 4.38 16.12 C0.61 19.28 0.61 19.28 -2.31 19.38 C-4.82 18.56 -5.99 17.81 -7.56 15.69 C-8.81 11.84 -9.3 8.31 -7.4 4.59 C-5.14 1.51 -3.82 0.43 0 0 Z " fill="#000000" transform="translate(252.3125,220.625)"/>
<path d="M0 0 C1.14 0.34 1.14 0.34 2.31 0.69 C-1.22 6.91 -1.22 6.91 -3.69 8.69 C-5.88 8.38 -5.88 8.38 -7.69 7.69 C-4.79 -0.56 -4.79 -0.56 0 0 Z " fill="#000000" transform="translate(232.6875,222.3125)"/>
<path d="M0 0 C1.32 0.33 2.64 0.66 4 1 C4.45 7.23 3.76 11.87 0 17 C-3.68 20.54 -6.4 21.59 -11.44 22.19 C-12.53 22.33 -13.62 22.46 -14.75 22.61 C-15.82 22.74 -16.89 22.87 -18 23 C-20 23.32 -22 23.65 -24 24 C-23.81 21.62 -23.81 21.62 -23 19 C-19.8 16.94 -16.64 16.88 -12.94 16.62 C-9.82 16.34 -8.26 16.16 -5.56 14.5 C-3.3 10.89 -2.18 7.07 -1 3 C-0.67 2.01 -0.34 1.02 0 0 Z " fill="#000000" transform="translate(265,225)"/>
<path d="M0 0 C1.32 0 2.64 0 4 0 C3.89 1.46 3.76 2.92 3.62 4.38 C3.56 5.19 3.49 6 3.41 6.84 C3 9 3 9 1 11 C0.01 11 -0.98 11 -2 11 C-3.14 7.59 -2.87 7 -1.56 3.81 C-1.13 2.74 -1.13 2.74 -0.69 1.64 C-0.46 1.1 -0.24 0.56 0 0 Z " fill="#000000" transform="translate(274,227)"/>
<path d="M0 0 C0.99 0.33 1.98 0.66 3 1 C2.61 3.54 2.3 4.73 0.37 6.48 C-0.27 6.9 -0.91 7.32 -1.56 7.75 C-2.2 8.18 -2.84 8.61 -3.5 9.05 C-4.24 9.52 -4.24 9.52 -5 10 C-5.66 8.68 -6.32 7.36 -7 6 C-2.25 1.12 -2.25 1.12 0 0 Z " fill="#000000" transform="translate(237,234)"/>
<path d="M0 0 C5.96 0.39 10.63 1.37 16 4 C15.5 9.7 13.9 13.89 11.25 18.94 C10.89 19.64 10.53 20.34 10.16 21.06 C7.67 25.86 5.01 30.49 2 35 C-0.44 34.62 -0.44 34.62 -3 34 C-6.12 27.75 -3.94 18.29 -3.12 11.5 C-3.05 10.82 -2.97 10.14 -2.89 9.43 C-2.43 5.93 -1.84 3.04 0 0 Z M3 5 C1.3 10.16 0.78 14.44 0.88 19.94 C0.88 20.62 0.89 21.31 0.9 22.01 C0.93 23.67 0.96 25.34 1 27 C4.07 23.3 6.07 19.16 8.19 14.88 C8.56 14.15 8.92 13.42 9.3 12.67 C11.29 9.01 11.29 9.01 12 5 C9.03 5 6.06 5 3 5 Z " fill="#000000" transform="translate(248,249)"/>
<path d="M0 0 C0.56 1.94 0.56 1.94 1 4 C-0.74 5.74 -3.18 5.21 -5.56 5.28 C-7.35 5.34 -7.35 5.34 -9.18 5.39 C-11.15 5.45 -11.15 5.45 -13.16 5.5 C-14.52 5.54 -15.89 5.58 -17.26 5.62 C-20.92 5.73 -24.57 5.83 -28.23 5.94 C-31.99 6.04 -35.75 6.15 -39.51 6.26 C-44.68 6.41 -49.85 6.56 -55.02 6.71 C-62.06 6.91 -69.09 7.12 -76.13 7.35 C-76.9 7.38 -77.66 7.4 -78.45 7.43 C-81.72 7.53 -84.98 7.64 -88.24 7.75 C-96.5 8.01 -104.74 8.04 -113 8 C-113.33 7.01 -113.66 6.02 -114 5 C-110.93 1.93 -107.24 2.6 -103.11 2.5 C-102.18 2.47 -101.26 2.44 -100.31 2.41 C-97.25 2.31 -94.18 2.23 -91.11 2.15 C-88.98 2.08 -86.84 2.02 -84.71 1.96 C-80.21 1.82 -75.72 1.69 -71.23 1.57 C-65.51 1.41 -59.79 1.24 -54.07 1.07 C-48.58 0.91 -43.1 0.75 -37.61 0.59 C-36.07 0.54 -36.07 0.54 -34.49 0.49 C-22.99 0.16 -11.51 -0.1 0 0 Z " fill="#000000" transform="translate(447,250)"/>
<path d="M0 0 C4.28 0.3 6.19 1.82 8.99 5 C9.43 5.51 9.86 6.03 10.31 6.56 C10.77 7.08 11.22 7.6 11.69 8.14 C12.8 9.42 13.9 10.71 15 12 C17.97 11.34 20.94 10.68 24 10 C24 10.99 24 11.98 24 13 C21 15 21 15 18 15 C18.33 15.66 18.66 16.32 19 17 C20.32 17 21.64 17 23 17 C23 16.34 23 15.68 23 15 C26.39 11.31 30.12 8.15 34 5 C34.66 5.33 35.32 5.66 36 6 C35.45 10.14 33.17 12.46 30.5 15.56 C27.11 19.42 27.11 19.42 25 24 C26.64 26.39 28.52 28.47 30.43 30.65 C32.24 33.36 32.32 34.81 32 38 C30.68 38.66 29.36 39.32 28 40 C24.02 37.13 21.56 34.18 19 30 C14.02 31.51 10.76 34.56 7 38 C6.01 37.01 5.02 36.02 4 35 C6.97 31 10.13 28.08 14 25 C13.01 23.35 12.02 21.7 11 20 C6.62 20.82 2.32 21.9 -2 23 C-2 22.01 -2 21.02 -2 20 C0.97 18.68 3.94 17.36 7 16 C6.59 15.39 6.18 14.77 5.76 14.14 C-1 4 -1 4 -0.62 1.81 C-0.42 1.21 -0.21 0.62 0 0 Z " fill="#000000" transform="translate(508,253)"/>
<path d="M0 0 C1.32 0 2.64 0 4 0 C3.67 2.97 3.34 5.94 3 9 C4.65 9 6.3 9 8 9 C8.33 9.99 8.66 10.98 9 12 C4.25 15 4.25 15 2 15 C2.52 15.78 3.03 16.57 3.56 17.38 C4.04 18.24 4.51 19.11 5 20 C4.67 20.66 4.34 21.32 4 22 C2.64 21.91 2.64 21.91 1.25 21.81 C-2.29 22.02 -3.45 22.65 -6 25 C-8 21.25 -8 21.25 -8 19 C-9.98 18.34 -11.96 17.68 -14 17 C-13.62 14.56 -13.62 14.56 -13 12 C-11 11 -11 11 -5 11 C-3.35 7.37 -1.7 3.74 0 0 Z " fill="#000000" transform="translate(151,265)"/>
<path d="M0 0 C1.84 0.01 1.84 0.01 3.72 0.01 C6.71 0.03 9.7 0.04 12.69 0.06 C12.69 1.38 12.69 2.7 12.69 4.06 C6.82 4.5 0.95 4.92 -4.92 5.34 C-6.91 5.49 -8.89 5.63 -10.88 5.78 C-22.05 6.61 -33.11 7.32 -44.31 7.06 C-44.31 5.74 -44.31 4.42 -44.31 3.06 C-41.75 2.75 -39.19 2.43 -36.62 2.12 C-35.57 1.99 -35.57 1.99 -34.5 1.86 C-22.99 0.48 -11.59 -0.08 0 0 Z " fill="#000000" transform="translate(422.3125,266.9375)"/>
<path d="M0 0 C0.55 0.4 1.09 0.8 1.66 1.21 C-1.21 5.18 -3.99 7.51 -8.19 9.99 C-8.76 10.33 -9.32 10.67 -9.9 11.02 C-11.11 11.74 -12.32 12.45 -13.53 13.16 C-16.07 14.66 -18.6 16.17 -21.13 17.69 C-22.4 18.45 -23.67 19.21 -24.94 19.97 C-30.29 23.16 -35.58 26.44 -40.84 29.77 C-41.6 30.25 -42.36 30.72 -43.13 31.21 C-46.47 33.33 -49.76 35.48 -52.99 37.75 C-54.59 38.88 -54.59 38.88 -56.22 40.02 C-57.55 40.99 -57.55 40.99 -58.9 41.98 C-61.86 43.47 -63.24 43.2 -66.34 42.21 C-64.98 38.99 -63.69 37.45 -60.76 35.57 C-60.01 35.08 -59.25 34.6 -58.48 34.1 C-57.65 33.58 -56.82 33.06 -55.97 32.52 C-55.1 31.96 -54.23 31.41 -53.34 30.84 C-44.42 25.17 -35.38 19.7 -26.32 14.27 C-21.35 11.28 -16.4 8.3 -11.59 5.05 C-10.93 4.62 -10.28 4.18 -9.61 3.72 C-8 2.63 -6.4 1.51 -4.81 0.38 C-2.34 -0.79 -2.34 -0.79 0 0 Z " fill="#000000" transform="translate(188.34375,279.79296875)"/>
<path d="M0 0 C5.43 0.58 10.56 1.53 15.82 3 C16.53 3.19 17.24 3.38 17.97 3.58 C19.46 3.99 20.94 4.4 22.43 4.81 C24.69 5.44 26.96 6.06 29.22 6.67 C30.67 7.07 32.12 7.47 33.57 7.87 C34.25 8.05 34.92 8.24 35.61 8.43 C39.17 9.42 42.6 10.55 46 12 C45.67 13.32 45.34 14.64 45 16 C36.78 14.77 28.97 12.66 21.05 10.17 C19.11 9.56 17.16 8.96 15.21 8.37 C13.97 7.98 12.73 7.59 11.45 7.19 C10.33 6.84 9.21 6.49 8.06 6.14 C5.08 5.03 2.59 3.84 0 2 C0 1.34 0 0.68 0 0 Z " fill="#000000" transform="translate(369,280)"/>
<path d="M0 0 C1.32 0.33 2.64 0.66 4 1 C1.43 18.24 -13.14 36.13 -22 51 C-22.58 51.98 -23.17 52.96 -23.77 53.98 C-27.16 59.66 -30.57 65.34 -34 71 C-34.47 71.78 -34.94 72.56 -35.43 73.36 C-41.47 83.34 -47.63 93.22 -54 103 C-55.65 102.67 -57.3 102.34 -59 102 C-57.46 97.55 -55.05 93.88 -52.44 90 C-46.91 81.62 -41.83 73 -36.79 64.32 C-32.78 57.41 -28.74 50.52 -24.55 43.71 C-24.01 42.83 -24.01 42.83 -23.45 41.92 C-22.72 40.74 -21.99 39.56 -21.27 38.38 C-13.58 25.88 -6.55 13.13 0 0 Z " fill="#000000" transform="translate(206,288)"/>
<path d="M0 0 C5.74 0.61 10.58 2.72 15.83 4.97 C16.78 5.37 17.73 5.78 18.71 6.19 C20.72 7.04 22.73 7.9 24.74 8.75 C27.76 10.04 30.78 11.32 33.8 12.59 C45.33 17.47 56.73 22.56 68 28 C68 29.32 68 30.64 68 32 C67.01 32.5 67.01 32.5 66 33 C63.83 32.23 63.83 32.23 61.09 30.96 C60.06 30.49 59.02 30.02 57.95 29.53 C56.81 29.01 55.67 28.48 54.5 27.94 C52.06 26.83 49.62 25.72 47.18 24.62 C46.53 24.33 45.89 24.04 45.22 23.74 C35.64 19.46 25.89 15.56 16.16 11.63 C15.46 11.35 14.75 11.06 14.02 10.77 C12.7 10.23 11.38 9.7 10.06 9.17 C3.05 6.32 3.05 6.32 0 4 C0 2.68 0 1.36 0 0 Z " fill="#000000" transform="translate(358,288)"/>
<path d="M0 0 C4.36 0.53 8.26 2.2 12.27 3.89 C12.98 4.18 13.69 4.47 14.42 4.78 C16.74 5.74 19.06 6.71 21.38 7.69 C22.17 8.02 22.96 8.35 23.77 8.69 C35.41 13.57 46.99 18.58 58.5 23.75 C59.16 24.05 59.82 24.34 60.5 24.65 C62.37 25.48 64.23 26.33 66.09 27.17 C67.14 27.65 68.19 28.12 69.27 28.61 C71.76 29.88 73.84 31.24 76 33 C75.67 33.99 75.34 34.98 75 36 C68.81 35.49 63.81 32.72 58.31 30.06 C49.56 25.9 40.73 22.01 31.76 18.34 C30.3 17.74 30.3 17.74 28.81 17.13 C24.87 15.51 20.93 13.9 16.97 12.31 C14.17 11.19 11.38 10.05 8.59 8.91 C7.74 8.57 6.88 8.24 6.01 7.89 C5.23 7.57 4.45 7.25 3.65 6.92 C2.96 6.64 2.28 6.37 1.58 6.08 C0 5 0 5 -0.79 2.94 C-0.89 1.98 -0.89 1.98 -1 1 C-0.67 0.67 -0.34 0.34 0 0 Z " fill="#000000" transform="translate(336,292)"/>
<path d="M0 0 C-0.26 1.85 -0.26 1.85 -1 4 C-2.7 5.28 -2.7 5.28 -4.89 6.36 C-5.69 6.75 -6.48 7.15 -7.29 7.55 C-8.12 7.95 -8.96 8.34 -9.81 8.75 C-11.04 9.37 -11.04 9.37 -12.3 10 C-16.26 11.93 -18.49 13 -23 13 C-23 10.77 -23 10.77 -22 8 C-19.55 6.19 -16.84 5 -14.06 3.75 C-13.32 3.4 -12.58 3.05 -11.81 2.69 C-10.44 2.04 -9.06 1.4 -7.68 0.77 C-4.48 -0.7 -3.44 -1.03 0 0 Z " fill="#000000" transform="translate(130,300)"/>
<path d="M0 0 C0.78 0.04 1.57 0.08 2.38 0.12 C3.5 2.44 3.5 2.44 4.38 5.12 C3.38 6.61 3.38 6.61 2.38 8.12 C-0.75 8.31 -0.75 8.31 -3.62 8.12 C-4.25 5.25 -4.25 5.25 -4.62 2.12 C-2.62 0.12 -2.62 0.12 0 0 Z " fill="#000000" transform="translate(623.625,310.875)"/>
<path d="M0 0 C0.99 0.33 1.98 0.66 3 1 C2.43 4.43 1.46 5.84 -1.22 8.03 C-1.9 8.59 -2.57 9.15 -3.27 9.72 C-4.01 10.31 -4.74 10.9 -5.5 11.5 C-6.25 12.11 -7.01 12.72 -7.78 13.34 C-13.2 17.67 -18.7 21.87 -24.31 25.94 C-25.02 26.46 -25.73 26.99 -26.46 27.53 C-27.13 28 -27.8 28.48 -28.49 28.96 C-29.36 29.59 -29.36 29.59 -30.26 30.23 C-32.52 31.23 -33.71 30.81 -36 30 C-34.46 25.95 -31.93 24.17 -28.5 21.62 C-27.34 20.75 -26.17 19.88 -25.01 19.01 C-24.37 18.53 -23.74 18.06 -23.08 17.57 C-19.14 14.6 -15.26 11.54 -11.38 8.5 C-9.84 7.3 -8.31 6.1 -6.77 4.91 C-6.12 4.39 -5.46 3.88 -4.79 3.35 C-3.23 2.18 -1.62 1.08 0 0 Z " fill="#000000" transform="translate(153,318)"/>
<path d="M0 0 C2.06 0.44 2.06 0.44 4 1 C3.05 5.89 3.05 5.89 2.12 8 C2.08 8.66 2.04 9.32 2 10 C4.35 12.77 4.35 12.77 7 15 C6.01 16.49 6.01 16.49 5 18 C2.24 17.48 -0.33 16.89 -3 16 C-3.25 16.8 -3.5 17.61 -3.75 18.44 C-5 21 -5 21 -7.12 21.81 C-7.74 21.87 -8.36 21.94 -9 22 C-9.33 20.68 -9.66 19.36 -10 18 C-10.99 18 -11.98 18 -13 18 C-13 17.01 -13 16.02 -13 15 C-11.68 14.34 -10.36 13.68 -9 13 C-9 12.34 -9 11.68 -9 11 C-10.96 9.29 -12.96 7.62 -15 6 C-14.67 4.68 -14.34 3.36 -14 2 C-9.95 3.23 -6.56 4.7 -3 7 C-2.69 6.03 -2.38 5.06 -2.06 4.06 C-1 1 -1 1 0 0 Z " fill="#000000" transform="translate(371,316)"/>
<path d="M0 0 C1.32 0 2.64 0 4 0 C4.16 4.99 3.66 9.27 2.45 14.12 C2.29 14.8 2.12 15.47 1.95 16.17 C1.39 18.41 0.82 20.64 0.25 22.88 C0.05 23.65 -0.14 24.42 -0.34 25.21 C-3.53 37.78 -6.95 50.29 -10.53 62.76 C-11.05 64.58 -11.57 66.4 -12.08 68.23 C-12.81 70.79 -13.55 73.35 -14.3 75.91 C-14.62 77.05 -14.62 77.05 -14.95 78.22 C-16.22 82.46 -17.54 85.18 -21 88 C-22.11 86.41 -22.11 86.41 -23 84 C-22.44 81.01 -22.44 81.01 -21.29 77.48 C-20.98 76.52 -20.98 76.52 -20.67 75.53 C-20.23 74.14 -19.79 72.75 -19.33 71.37 C-18.12 67.65 -16.97 63.92 -15.81 60.19 C-15.57 59.42 -15.33 58.66 -15.09 57.87 C-12.72 50.2 -10.66 42.47 -8.69 34.69 C-8.2 32.78 -8.2 32.78 -7.71 30.82 C-6.8 27.22 -5.9 23.61 -5 20 C-4.47 17.87 -3.93 15.74 -3.39 13.62 C-2.25 9.08 -1.12 4.54 0 0 Z " fill="#000000" transform="translate(261,322)"/>
<path d="M0 0 C3.99 0.56 6.53 1.76 9.81 4.06 C10.6 4.61 11.39 5.16 12.21 5.72 C12.8 6.14 13.39 6.57 14 7 C13.67 8.32 13.34 9.64 13 11 C9.7 9.87 6.7 8.37 3.69 6.62 C2.99 6.23 2.29 5.83 1.57 5.41 C1.05 4.95 0.54 4.48 0 4 C0 2.68 0 1.36 0 0 Z " fill="#000000" transform="translate(445,323)"/>
<path d="M0 0 C0.99 0.33 1.98 0.66 3 1 C2.44 5.15 1.49 8.58 -0.22 12.39 C-0.68 13.42 -1.13 14.45 -1.59 15.5 C-2.08 16.59 -2.56 17.69 -3.06 18.81 C-10.8 36.66 -16.7 55.03 -21 74 C-23.47 74.5 -23.47 74.5 -26 75 C-25.36 67.68 -23.47 60.86 -21.44 53.81 C-20.9 51.96 -20.9 51.96 -20.36 50.07 C-17.15 39.13 -13.37 28.52 -9 18 C-8.67 17.2 -8.34 16.41 -8 15.59 C-7.05 13.33 -6.1 11.07 -5.12 8.81 C-4.84 8.15 -4.55 7.48 -4.26 6.79 C-3.07 4.1 -2.1 2.1 0 0 Z " fill="#000000" transform="translate(237,329)"/>
<path d="M0 0 C1.32 0.33 2.64 0.66 4 1 C3.38 6.16 2.27 11 0.79 15.98 C0.57 16.72 0.35 17.45 0.13 18.21 C-0.32 19.75 -0.78 21.29 -1.24 22.83 C-1.94 25.19 -2.63 27.55 -3.32 29.9 C-3.76 31.41 -4.21 32.91 -4.65 34.42 C-4.86 35.12 -5.06 35.82 -5.27 36.54 C-6.27 39.86 -7.31 42.97 -9 46 C-10.32 45.67 -11.64 45.34 -13 45 C-11.39 37.19 -9.28 29.54 -7.11 21.87 C-6.5 19.68 -5.89 17.48 -5.28 15.29 C-4.88 13.88 -4.49 12.48 -4.09 11.07 C-3.74 9.81 -3.39 8.55 -3.02 7.25 C-2.2 4.63 -1.33 2.38 0 0 Z " fill="#000000" transform="translate(246,335)"/>
<path d="M0 0 C3.51 3.25 6.09 6.81 8.75 10.75 C9.16 11.35 9.57 11.95 10 12.57 C11 14.05 12 15.52 13 17 C16.54 15.63 19.95 14.08 23.38 12.44 C27.69 10.45 31.27 9.32 36 9 C37.1 10.75 37.1 10.75 38 13 C37.49 14.95 37.49 14.95 36.45 16.97 C36.08 17.7 35.71 18.44 35.33 19.2 C34.93 19.96 34.54 20.72 34.12 21.5 C33.35 23.01 32.58 24.52 31.82 26.03 C31.47 26.7 31.12 27.36 30.77 28.05 C29.76 30.27 29.76 30.27 30 34 C32.37 36.33 32.37 36.33 35.38 38.5 C41.85 43.39 41.85 43.39 43 47 C42.5 47.99 42.5 47.99 42 49 C37.12 48.62 32.37 48.2 27.62 46.94 C23.98 45.83 23.98 45.83 20 46 C19.64 46.63 19.29 47.27 18.92 47.92 C5.81 71.18 5.81 71.18 0 81 C-1.94 80.44 -1.94 80.44 -4 79 C-4.6 76.54 -4.86 74.5 -5 72 C-5.09 70.75 -5.09 70.75 -5.18 69.48 C-5.36 66.61 -5.5 63.75 -5.62 60.88 C-5.67 59.86 -5.72 58.84 -5.76 57.8 C-6.04 50.44 -5.91 43.31 -5 36 C-5.87 36.68 -6.74 37.35 -7.63 38.05 C-8.8 38.95 -9.96 39.85 -11.12 40.75 C-11.69 41.19 -12.26 41.64 -12.85 42.09 C-14.56 43.41 -16.27 44.71 -18 46 C-18.55 46.41 -19.1 46.83 -19.66 47.26 C-21.24 48.39 -21.24 48.39 -24 50 C-24.99 49.67 -25.98 49.34 -27 49 C-21.19 43.09 -15.41 37.27 -9 32 C-10.98 31.01 -12.96 30.02 -15 29 C-15 28.01 -15 27.02 -15 26 C-11.37 26.99 -7.74 27.98 -4 29 C-3.87 27.83 -3.73 26.66 -3.6 25.46 C-3.42 23.91 -3.24 22.36 -3.06 20.81 C-2.98 20.04 -2.89 19.27 -2.8 18.48 C-2.43 15.34 -2.05 12.26 -1.41 9.16 C-0.86 6.27 -1.4 3.85 -2 1 C-1.34 0.67 -0.68 0.34 0 0 Z M2 13 C1.66 14.6 1.33 16.21 1 17.81 C0.81 18.71 0.63 19.6 0.44 20.52 C-0.09 23.07 -0.09 23.07 0 26 C2.97 24.88 5.33 23.78 8 22 C6.69 18.06 5.08 15.77 2 13 Z M23.38 17.5 C22.76 17.83 22.15 18.17 21.52 18.51 C20.01 19.34 18.51 20.17 17 21 C18.5 25.21 21.29 26.74 25 29 C26.17 26.88 27.34 24.75 28.5 22.62 C28.83 22.02 29.17 21.42 29.51 20.8 C31.39 17.59 31.39 17.59 32 14 C28.74 14 26.17 15.96 23.38 17.5 Z M4.81 28 C3.46 28.84 3.46 28.84 2.08 29.69 C1.39 30.12 0.71 30.55 0 31 C1.69 34.38 5.55 34.9 8.94 36.12 C9.68 36.4 10.42 36.68 11.19 36.96 C14.99 38.47 14.99 38.47 19 39 C21.23 36.33 21.23 36.33 20.84 34.05 C19.82 31.56 18.54 30.14 16.62 28.25 C16.02 27.64 15.41 27.02 14.79 26.39 C11.02 23.46 8.34 25.8 4.81 28 Z M-1 36 C-1 47.55 -1 59.1 -1 71 C-0.34 71 0.32 71 1 71 C1.58 69.89 2.16 68.78 2.76 67.63 C6.65 60.22 10.52 52.86 15 45.79 C16.16 44.05 16.16 44.05 16 42 C13.54 41 11.08 40 8.62 39 C7.93 38.71 7.23 38.43 6.51 38.13 C2.87 36.55 2.87 36.55 -1 36 Z M25 37 C24.67 38.32 24.34 39.64 24 41 C26.31 41.66 28.62 42.32 31 43 C31 42.34 31 41.68 31 41 C29.04 39.61 27.04 38.27 25 37 Z " fill="#000000" transform="translate(536,353)"/>
<path d="M0 0 C1.32 0.33 2.64 0.66 4 1 C2.79 4.72 1.49 8.38 0 12 C0.66 12.66 1.32 13.32 2 14 C1.62 16.62 1.62 16.62 1 19 C0.07 18.92 -0.86 18.83 -1.81 18.75 C-5.09 18.65 -5.09 18.65 -6.88 21 C-7.25 21.66 -7.62 22.32 -8 23 C-9.32 22.67 -10.64 22.34 -12 22 C-12.12 21.36 -12.25 20.72 -12.38 20.06 C-12.58 19.38 -12.79 18.7 -13 18 C-13.66 17.67 -14.32 17.34 -15 17 C-14.5 15.51 -14.5 15.51 -14 14 C-12.02 13.67 -10.04 13.34 -8 13 C-8.52 12.26 -9.03 11.51 -9.56 10.75 C-11 8 -11 8 -10.69 5.69 C-10.46 5.13 -10.23 4.57 -10 4 C-8.68 4.33 -7.36 4.66 -6 5 C-6 5.66 -6 6.32 -6 7 C-3.66 4.74 -1.81 2.72 0 0 Z " fill="#000000" transform="translate(639,360)"/>
<path d="M0 0 C0.99 0.66 1.98 1.32 3 2 C1.13 9.15 -1.5 15.49 -5 22 C-6.32 22 -7.64 22 -9 22 C-8.41 17.23 -6.99 13.12 -5.06 8.75 C-4.67 7.81 -4.67 7.81 -4.26 6.86 C-3.08 4.14 -2.12 2.12 0 0 Z " fill="#000000" transform="translate(140,394)"/>
<path d="M0 0 C4.01 8.02 -0.38 19.06 -3 27 C-9.87 46.99 -18.31 66.25 -27.99 85.03 C-28.67 86.36 -29.35 87.7 -30.03 89.03 C-49.41 127.27 -49.41 127.27 -61 135 C-62.49 134.01 -62.49 134.01 -64 133 C-63.37 129.69 -62.18 127.51 -60.26 124.75 C-59.69 123.93 -59.13 123.1 -58.54 122.25 C-57.93 121.36 -57.32 120.48 -56.69 119.56 C-37.08 90.62 -21.59 58.84 -10.31 25.75 C-10.08 25.08 -9.85 24.41 -9.61 23.72 C-8.03 18.85 -7.41 14.07 -7 9 C-12.52 13.49 -17.03 18.29 -21.46 23.86 C-24.31 27.43 -27.31 30.87 -30.31 34.31 C-34.09 38.65 -37.85 42.99 -41.58 47.38 C-79.62 92.11 -79.62 92.11 -93.64 96.9 C-96 97 -96 97 -97.62 95.9 C-99.61 93.16 -99.4 91.03 -99.44 87.66 C-99.47 86.38 -99.49 85.1 -99.52 83.78 C-99.53 83.1 -99.53 82.42 -99.54 81.72 C-99.58 78.21 -99.66 74.7 -99.75 71.19 C-99.77 70.49 -99.78 69.79 -99.8 69.08 C-100.04 60 -100.97 51.01 -102 42 C-106.52 43.48 -108.11 47 -110.25 50.94 C-110.64 51.63 -111.02 52.33 -111.42 53.04 C-114.89 59.46 -117.73 66.11 -120.44 72.88 C-120.74 73.65 -121.05 74.42 -121.37 75.21 C-121.64 75.89 -121.91 76.58 -122.18 77.28 C-123 79 -123 79 -125 81 C-125.99 81 -126.98 81 -128 81 C-128.5 74.67 -126.81 70.05 -124.38 64.25 C-124.01 63.37 -123.65 62.48 -123.27 61.57 C-114.33 40.22 -114.33 40.22 -105 34 C-102 33.62 -102 33.62 -99 34 C-88.66 44.42 -91.72 72.91 -91 87 C-83.85 81.33 -77.15 75.44 -70.75 68.94 C-70 68.19 -69.25 67.44 -68.48 66.66 C-64.34 62.49 -60.36 58.22 -56.52 53.77 C-54.6 51.53 -52.61 49.36 -50.62 47.19 C-46.73 42.88 -43.04 38.43 -39.38 33.92 C-9.27 -3.01 -9.27 -3.01 0 0 Z " fill="#000000" transform="translate(676,426)"/>
<path d="M0 0 C11.93 0.3 20.76 7.89 28.75 16.04 C31.68 19.15 34.34 22.46 36.98 25.81 C51.26 43.76 67.19 56.43 90.12 60.5 C102.55 61.3 114.84 60.95 126.98 58.16 C129.81 57.56 132.25 57.37 135.12 57.5 C134.79 58.82 134.47 60.14 134.12 61.5 C110.45 68.88 86.46 68.41 64.12 57.5 C52.73 51.01 43.59 42.68 35.51 32.42 C32.37 28.58 29 24.97 25.58 21.38 C22.12 17.71 22.12 17.71 22.12 15.5 C21.56 15.23 20.99 14.96 20.4 14.69 C17.23 13.03 14.38 10.98 11.44 8.94 C6.95 6.15 3.42 5.15 -1.88 5.5 C-2.87 5.83 -3.85 6.16 -4.88 6.5 C-5.53 5.18 -6.19 3.86 -6.88 2.5 C-4.39 0.01 -3.45 0.12 0 0 Z " fill="#000000" transform="translate(167.875,431.5)"/>
<path d="M0 0 C3.15 1.37 5.05 2.88 7.25 5.5 C7.77 6.11 8.29 6.72 8.83 7.34 C10 9 10 9 10 11 C11.22 10.67 12.43 10.34 13.69 10 C16.87 9.2 19.7 8.79 23 9 C22.81 11.31 22.81 11.31 22 14 C19.44 15.81 19.44 15.81 17 17 C17.66 19.31 18.32 21.62 19 24 C17.68 24.33 16.36 24.66 15 25 C14.34 24.01 13.68 23.02 13 22 C12.01 21.67 11.02 21.34 10 21 C10 21.66 10 22.32 10 23 C7 25 7 25 4.81 24.62 C3.92 24.32 3.92 24.32 3 24 C3.57 20.13 5.49 17.92 8 15 C7.3 15.01 6.6 15.02 5.88 15.04 C4.97 15.04 4.06 15.05 3.12 15.06 C1.77 15.08 1.77 15.08 0.38 15.1 C-2 15 -2 15 -4 14 C-3.67 13.01 -3.34 12.02 -3 11 C-0.69 11 1.62 11 4 11 C3.63 10.54 3.25 10.08 2.87 9.61 C2.4 9 1.92 8.38 1.44 7.75 C0.96 7.15 0.49 6.54 -0 5.92 C-1 4 -1 4 -0.65 1.77 C-0.33 0.89 -0.33 0.89 0 0 Z " fill="#000000" transform="translate(258,432)"/>
<path d="M0 0 C0.66 0.66 1.32 1.32 2 2 C1.97 3.83 1.97 3.83 1 6 C-1.5 8.36 -1.5 8.36 -4.56 10.75 C-6.08 11.95 -6.08 11.95 -7.63 13.17 C-8.41 13.78 -9.19 14.38 -10 15 C-9.35 14.95 -8.7 14.91 -8.03 14.86 C-5.08 14.66 -2.14 14.49 0.81 14.31 C2.35 14.2 2.35 14.2 3.92 14.09 C4.9 14.04 5.88 13.98 6.89 13.93 C7.8 13.87 8.71 13.81 9.64 13.75 C12 14 12 14 13.82 15.5 C14.21 16 14.6 16.49 15 17 C11.84 24.15 4.73 28.08 -1.81 31.88 C-2.54 32.3 -3.26 32.72 -4.01 33.16 C-23.98 44.56 -23.98 44.56 -34 46 C-34.33 44.68 -34.66 43.36 -35 42 C-34.05 41.51 -34.05 41.51 -33.08 41.01 C-13.98 33.25 -13.98 33.25 1 21 C0.01 21.5 0.01 21.5 -1 22 C-3.83 22.4 -6.66 22.75 -9.5 23.06 C-10.31 23.15 -11.12 23.24 -11.96 23.33 C-17.67 23.93 -23.25 24.19 -29 24 C-29.33 22.68 -29.66 21.36 -30 20 C-29.47 19.65 -28.93 19.3 -28.38 18.93 C-22.52 15.05 -16.75 11.05 -11 7 C-13.48 6.5 -13.48 6.5 -16 6 C-16.33 5.01 -16.66 4.02 -17 3 C-15.11 2.49 -13.21 1.99 -11.31 1.5 C-10.26 1.22 -9.2 0.94 -8.11 0.66 C-5.25 0.05 -2.9 -0.28 0 0 Z " fill="#000000" transform="translate(676,569)"/>
<path d="M0 0 C2.44 0.19 2.44 0.19 3.44 1.19 C3.62 3.62 3.62 3.62 3.44 6.19 C2.78 6.85 2.12 7.51 1.44 8.19 C-1.19 7.81 -1.19 7.81 -3.56 7.19 C-4.19 4.81 -4.19 4.81 -4.56 2.19 C-2.56 0.19 -2.56 0.19 0 0 Z " fill="#000000" transform="translate(603.5625,576.8125)"/>
<path d="M0 0 C1.92 0.7 1.92 0.7 4 2 C4.82 4.15 4.82 4.15 5.27 6.79 C5.43 7.73 5.6 8.67 5.77 9.64 C5.93 10.63 6.09 11.61 6.25 12.62 C6.42 13.62 6.6 14.61 6.77 15.63 C7.2 18.09 7.61 20.54 8 23 C12.71 20.79 15.99 17.44 19.76 13.9 C22 12 22 12 24 12 C23.49 16.29 22.17 18.41 19.25 21.56 C18.24 22.68 18.24 22.68 17.2 23.82 C14.93 26.07 12.54 28.04 10 30 C18.73 30.12 27.31 29.89 36 29 C36.5 30.98 36.5 30.98 37 33 C29.91 35.8 22.71 36.06 15.17 36.02 C14.19 36.02 13.22 36.02 12.22 36.01 C11.49 36.01 10.75 36 10 36 C10.13 36.71 10.25 37.42 10.38 38.16 C10.95 41.37 11.51 44.59 12.06 47.81 C12.26 48.93 12.46 50.05 12.67 51.21 C12.94 52.81 12.94 52.81 13.22 54.46 C13.4 55.45 13.57 56.44 13.75 57.46 C14 60 14 60 13 63 C11.35 63 9.7 63 8 63 C5.88 54.38 4.22 45.79 3 37 C-1.32 37.58 -4.25 39.16 -7.94 41.44 C-11.89 43.88 -15.53 45.68 -20 47 C-20.66 46.01 -21.32 45.02 -22 44 C-17.69 41.29 -13.38 38.6 -9 36 C-9.69 35.81 -10.37 35.61 -11.08 35.41 C-11.98 35.15 -12.88 34.89 -13.81 34.62 C-15.15 34.24 -15.15 34.24 -16.52 33.85 C-19 33 -19 33 -22 31 C-22 30.01 -22 29.02 -22 28 C-14.32 28.57 -6.66 29.19 1 30 C0.42 22.17 0.42 22.17 -0.56 14.38 C-1.14 9.93 -1.29 5.48 -1 1 C-0.67 0.67 -0.34 0.34 0 0 Z " fill="#000000" transform="translate(262,589)"/>
<path d="M0 0 C3.3 0.33 4.62 0.62 7 3 C6.67 6.3 6.38 7.62 4 10 C1.5 9.81 1.5 9.81 -1 9 C-3 6 -3 6 -2.75 3.94 C-2 2 -2 2 0 0 Z " fill="#000000" transform="translate(435,604)"/>
<path d="M0 0 C2.01 0.29 4.01 0.62 6 1 C6.62 4.38 6.62 4.38 7 8 C5 10 5 10 2.56 10.38 C0 10 0 10 -1.94 8.31 C-3 6 -3 6 -2.25 3.31 C-1 1 -1 1 0 0 Z " fill="#000000" transform="translate(441,614)"/>
<path d="M0 0 C2.56 0.19 2.56 0.19 4.56 2.19 C4.44 4.69 4.44 4.69 3.56 7.19 C1.5 8.5 1.5 8.5 -0.44 9.19 C-1.76 8.2 -3.08 7.21 -4.44 6.19 C-3.37 0.26 -3.37 0.26 0 0 Z " fill="#000000" transform="translate(199.4375,622.8125)"/>
<path d="M0 0 C3.62 0.38 3.62 0.38 7 1 C7.86 3.41 8.09 4.69 7.38 7.19 C6 9 6 9 3.56 9.94 C1 10 1 10 -0.81 8.88 C-2.38 6.41 -2.37 4.87 -2 2 C-1.34 1.34 -0.68 0.68 0 0 Z " fill="#000000" transform="translate(447,624)"/>
<path d="M0 0 C2.44 0.69 2.44 0.69 5 2 C6 4.44 6 4.44 6 7 C4.88 8.88 4.88 8.88 3 10 C0.44 10 0.44 10 -2 9 C-3.31 6.44 -3.31 6.44 -4 4 C-2.68 2.68 -1.36 1.36 0 0 Z " fill="#000000" transform="translate(455,633)"/>
<path d="M0 0 C1.32 0.33 2.64 0.66 4 1 C2.35 7.23 0.44 12.54 -3 18 C-4.32 17.34 -5.64 16.68 -7 16 C-5.26 10.19 -3.19 5.17 0 0 Z " fill="#000000" transform="translate(344,677)"/>
<path d="M0 0 C4.08 0.51 5.66 2.5 8.25 5.56 C8.96 6.39 9.66 7.22 10.39 8.07 C10.92 8.7 11.45 9.34 12 10 C11.67 10.99 11.34 11.98 11 13 C6.75 12.51 4.91 11.41 2.12 8.19 C1.51 7.5 0.89 6.81 0.26 6.11 C-1 4 -1 4 -0.7 1.74 C-0.47 1.16 -0.24 0.59 0 0 Z " fill="#000000" transform="translate(322,687)"/>
<path d="M0 0 C0.99 0.33 1.98 0.66 3 1 C2.85 5.91 0.24 8.46 -3.14 11.68 C-5 13 -5 13 -7.94 12.94 C-8.62 12.63 -9.3 12.32 -10 12 C-8.52 8.55 -6.56 6.35 -3.88 3.75 C-3.15 3.04 -2.43 2.34 -1.68 1.61 C-1.13 1.08 -0.57 0.55 0 0 Z " fill="#000000" transform="translate(355,689)"/>
<path d="M0 0 C2.44 0.19 2.44 0.19 3.44 1.19 C3.56 4.19 3.56 4.19 3.44 7.19 C2.44 8.19 2.44 8.19 -0.62 8.25 C-1.59 8.23 -2.56 8.21 -3.56 8.19 C-4.19 5.31 -4.19 5.31 -4.56 2.19 C-2.56 0.19 -2.56 0.19 0 0 Z " fill="#000000" transform="translate(240.5625,693.8125)"/>
<path d="M0 0 C5.35 0.32 8.28 3.5 12 7 C11.34 8.32 10.68 9.64 10 11 C6.14 8.85 2.46 6.77 -1 4 C-0.67 2.68 -0.34 1.36 0 0 Z " fill="#000000" transform="translate(312,702)"/>
<path d="M0 0 C1.96 0.42 3.92 0.86 5.88 1.31 C7.51 1.68 7.51 1.68 9.18 2.05 C12 3 12 3 14 6 C13.67 6.66 13.34 7.32 13 8 C8.03 7.49 3.71 6.77 -1 5 C-0.67 3.35 -0.34 1.7 0 0 Z " fill="#000000" transform="translate(349,706)"/>
<path d="M0 0 C4.25 0.47 6.2 2.97 9 6 C8.67 6.99 8.34 7.98 8 9 C4.85 8.65 3.18 8.13 0.62 6.19 C-1 4 -1 4 -0.75 1.75 C-0.5 1.17 -0.25 0.6 0 0 Z " fill="#000000" transform="translate(345,714)"/>
<path d="M0 0 C0.87 0.37 0.87 0.37 1.75 0.75 C0.4 5.17 -1.51 7.09 -5.25 9.75 C-5.91 9.42 -6.57 9.09 -7.25 8.75 C-6.9 5.6 -6.38 3.93 -4.44 1.38 C-2.25 -0.25 -2.25 -0.25 0 0 Z " fill="#000000" transform="translate(323.25,717.25)"/>
<path d="M0 0 C1.82 0.14 1.82 0.14 4 1 C5.52 3.58 5.52 3.58 6.81 6.81 C7.25 7.87 7.69 8.93 8.14 10.02 C8.99 12.96 9.1 14.21 8 17 C6.18 16.86 6.18 16.86 4 16 C2.48 13.42 2.48 13.42 1.19 10.19 C0.75 9.13 0.31 8.07 -0.14 6.98 C-0.99 4.04 -1.1 2.79 0 0 Z " fill="#000000" transform="translate(334,718)"/>
</svg>
