<?xml version="1.0" encoding="UTF-8"?>
<!-- Generator: visioncortex VTracer 0.6.0 -->
<svg version="1.1" xmlns="http://www.w3.org/2000/svg" width="847" height="847">
<path d="M0 0 C2.181 2.035 3.696 3.966 5.121 6.582 C5.499 7.267 5.878 7.952 6.268 8.658 C6.654 9.369 7.04 10.08 7.438 10.812 C10.647 16.699 10.647 16.699 14.285 22.324 C16 25 16 25 16 28 C14.312 28.812 14.312 28.812 12 29 C4.982 23.962 1.767 14.194 0 6 C-0.125 2.562 -0.125 2.562 0 0 Z " fill="#000000" transform="translate(370,152)"/>
<path d="M0 0 C1.827 2.741 2.835 5.205 3.904 8.294 C6.586 16.035 9.876 22.512 14.559 29.23 C16 32 16 32 15.723 34.863 C15.365 35.921 15.365 35.921 15 37 C11 37 11 37 9.473 35.707 C2.029 25.707 -1.413 14.381 -1 2 C-0.67 1.34 -0.34 0.68 0 0 Z " fill="#000000" transform="translate(363,153)"/>
<path d="M0 0 C3.254 2.834 4.521 4.686 5 9 C4.34 9 3.68 9 3 9 C0 3.375 0 3.375 0 0 Z " fill="#000000" transform="translate(380,153)"/>
<path d="M0 0 C0.66 0 1.32 0 2 0 C0.511 3.896 -1.244 7.591 -3.125 11.312 C-3.664 12.381 -4.203 13.45 -4.758 14.551 C-5.373 15.763 -5.373 15.763 -6 17 C-7.32 17 -8.64 17 -10 17 C-9.817 9.864 -4.823 4.823 0 0 Z " fill="#000000" transform="translate(260,189)"/>
<path d="M0 0 C0.825 0.001 1.65 0.002 2.5 0.002 C8.228 0.058 13.873 0.407 19.562 1.062 C20.604 1.18 20.604 1.18 21.667 1.3 C25.447 1.786 28.723 2.595 32.188 4.188 C32.188 4.847 32.188 5.507 32.188 6.188 C23.963 6.406 15.85 5.678 7.665 4.961 C5.232 4.748 2.799 4.545 0.365 4.342 C-1.182 4.209 -2.73 4.075 -4.277 3.941 C-5.004 3.881 -5.731 3.82 -6.48 3.758 C-11.583 3.302 -11.583 3.302 -13.812 2.188 C-13.891 2.872 -13.97 3.556 -14.051 4.262 C-15.021 7.987 -16.907 10.825 -19 14 C-23.522 21.05 -27.835 28.207 -32.062 35.438 C-32.929 36.909 -32.929 36.909 -33.813 38.409 C-37.773 45.199 -41.376 52.119 -44.812 59.188 C-45.803 59.188 -46.792 59.188 -47.812 59.188 C-47.512 51.914 -44.078 46.338 -40.625 40.062 C-39.695 38.355 -39.695 38.355 -38.747 36.613 C-22.412 6.925 -22.412 6.925 -14.812 1.188 C-9.99 -0.132 -4.974 -0.005 0 0 Z " fill="#000000" transform="translate(293.8125,189.8125)"/>
<path d="M0 0 C0.495 0.99 0.495 0.99 1 2 C0.262 3.926 0.262 3.926 -0.957 6.312 C-1.405 7.21 -1.854 8.108 -2.316 9.033 C-2.81 10.012 -3.304 10.991 -3.812 12 C-10.767 26.137 -16.581 40.747 -21.594 55.684 C-21.818 56.345 -22.041 57.006 -22.272 57.687 C-22.821 59.338 -23.346 60.997 -23.867 62.656 C-25 65 -25 65 -26.883 66.469 C-29.628 67.158 -30.591 66.333 -33 65 C-33.324 58.781 -32.718 53.81 -30.5 48 C-30.232 47.276 -29.963 46.552 -29.687 45.805 C-23.044 28.299 -15.112 11.754 0 0 Z " fill="#000000" transform="translate(333,202)"/>
<path d="M0 0 C0.66 0 1.32 0 2 0 C1.25 7.625 1.25 7.625 -1 11 C-1.99 11 -2.98 11 -4 11 C-3.255 3.255 -3.255 3.255 0 0 Z " fill="#000000" transform="translate(306,207)"/>
<path d="M0 0 C0.66 0 1.32 0 2 0 C1.493 3.719 0.884 6.735 -1 10 C-1.99 10 -2.98 10 -4 10 C-3.437 6.059 -2.321 3.249 0 0 Z " fill="#000000" transform="translate(312,207)"/>
<path d="M0 0 C7.726 3.52 13.568 10.423 19.25 16.562 C20.212 17.596 20.212 17.596 21.193 18.65 C25.418 23.218 29.564 27.849 33.625 32.562 C34.097 33.109 34.569 33.656 35.056 34.219 C44 44.737 44 44.737 44 48 C43.01 48.33 42.02 48.66 41 49 C40.166 48.033 39.332 47.066 38.473 46.07 C32.057 38.644 25.611 31.254 19 24 C18.095 23.001 17.19 22.003 16.285 21.004 C11.485 15.723 6.641 10.537 1.461 5.621 C0 4 0 4 -1 1 C-0.67 0.67 -0.34 0.34 0 0 Z " fill="#000000" transform="translate(586,213)"/>
<path d="M0 0 C1.239 0.293 2.478 0.587 3.754 0.889 C10.616 2.633 17.44 4.509 24.256 6.422 C28.64 7.65 33.029 8.859 37.418 10.07 C38.298 10.313 39.177 10.556 40.083 10.806 C47.898 12.961 55.715 15.103 63.553 17.168 C64.88 17.52 66.205 17.875 67.53 18.234 C69.353 18.727 71.18 19.206 73.008 19.684 C74.026 19.954 75.044 20.224 76.093 20.503 C79.966 21.125 82.556 20.812 85.856 18.646 C86.8 17.831 86.8 17.831 87.762 17 C88.472 16.399 89.182 15.797 89.914 15.178 C90.642 14.545 91.371 13.913 92.121 13.262 C97.799 8.38 103.546 3.968 109.871 -0.051 C110.861 1.434 110.861 1.434 111.871 2.949 C104.448 9.406 96.872 15.538 88.964 21.391 C83.645 25.338 78.462 29.43 73.307 33.587 C69.345 36.78 65.35 39.92 61.309 43.012 C56.827 46.44 52.369 49.898 47.934 53.387 C47.073 54.061 47.073 54.061 46.196 54.75 C43.107 57.175 40.035 59.62 36.98 62.09 C36.345 62.6 35.709 63.11 35.054 63.635 C33.832 64.617 32.614 65.604 31.401 66.597 C27.209 69.949 27.209 69.949 23.871 69.949 C24.436 66.648 25.256 65.243 27.871 63.172 C28.502 62.665 29.133 62.159 29.783 61.636 C30.472 61.1 31.161 60.564 31.871 60.012 C32.585 59.444 33.299 58.876 34.035 58.291 C39.817 53.715 45.676 49.237 51.551 44.78 C57.157 40.523 62.667 36.157 68.139 31.73 C70.664 29.691 73.168 27.751 75.871 25.949 C70.282 23.758 64.737 22.01 58.922 20.531 C57.657 20.203 57.657 20.203 56.367 19.869 C53.64 19.163 50.912 18.462 48.184 17.762 C44.4 16.786 40.618 15.806 36.836 14.824 C35.899 14.581 34.962 14.338 33.997 14.088 C28.293 12.601 22.608 11.06 16.938 9.449 C16.269 9.26 15.6 9.071 14.911 8.876 C11.855 8.009 8.803 7.131 5.755 6.236 C-0.083 4.57 -5.054 3.559 -11.129 3.949 C-11.129 2.959 -11.129 1.969 -11.129 0.949 C-6.942 -1.158 -4.52 -1.076 0 0 Z " fill="#000000" transform="translate(469.12890625,214.05078125)"/>
<path d="M0 0 C1.051 0.009 2.101 0.018 3.184 0.027 C3.969 0.039 4.754 0.051 5.562 0.062 C5.233 0.722 4.903 1.382 4.562 2.062 C1.883 2.849 1.883 2.849 -1.742 3.621 C-3.108 3.922 -4.475 4.223 -5.841 4.525 C-6.569 4.683 -7.297 4.842 -8.047 5.005 C-23.349 8.35 -38.223 12.578 -53.099 17.469 C-54.162 17.815 -54.162 17.815 -55.246 18.169 C-57.156 18.795 -59.063 19.43 -60.969 20.066 C-64.46 21.069 -67.835 21.636 -71.438 22.062 C-71.342 20.224 -71.342 20.224 -70.438 18.062 C-67.676 16.694 -67.676 16.694 -63.965 15.477 C-63.298 15.254 -62.632 15.031 -61.945 14.802 C-59.76 14.079 -57.568 13.383 -55.375 12.688 C-53.871 12.199 -52.367 11.71 -50.864 11.221 C-15.479 -0.174 -15.479 -0.174 0 0 Z " fill="#000000" transform="translate(446.4375,216.9375)"/>
<path d="M0 0 C0.66 0 1.32 0 2 0 C1.495 4.342 0.762 7.548 -2 11 C-4.25 12.125 -4.25 12.125 -7 12 C-9.588 10.628 -11.902 9.05 -14 7 C-14 6.34 -14 5.68 -14 5 C-10.877 5.486 -8.004 5.999 -5 7 C-4.662 6.495 -4.325 5.989 -3.977 5.469 C-3.531 4.819 -3.085 4.169 -2.625 3.5 C-2.184 2.85 -1.743 2.201 -1.289 1.531 C-0.864 1.026 -0.438 0.521 0 0 Z " fill="#000000" transform="translate(291,221)"/>
<path d="M0 0 C6.404 0.621 12.326 2.028 18.5 3.812 C19.398 4.061 20.297 4.309 21.223 4.564 C26.856 6.176 31.892 8.112 37 11 C37.495 11.99 37.495 11.99 38 13 C30.172 12.521 23.515 10.341 16.188 7.625 C15.069 7.225 13.951 6.826 12.799 6.414 C3.81 3.136 3.81 3.136 0 0 Z " fill="#000000" transform="translate(454,232)"/>
<path d="M0 0 C0.33 1.32 0.66 2.64 1 4 C-6.26 6.31 -13.52 8.62 -21 11 C-17.716 14.284 -14.575 15.753 -10.375 17.5 C-9.55 17.843 -8.725 18.187 -7.875 18.54 C11.74 26.484 32.157 32.509 52.401 38.614 C55.124 39.437 57.845 40.268 60.566 41.099 C68.802 43.605 77.038 46.046 85.373 48.21 C88.967 49.149 92.547 50.134 96.127 51.125 C97.808 51.576 99.495 52.005 101.189 52.408 C114.873 55.677 114.873 55.677 118.635 61.606 C120.448 64.998 121.873 68.512 123.236 72.105 C124.93 76.306 127.54 80.03 130 83.812 C130.766 85.006 130.766 85.006 131.547 86.223 C139.416 100.297 139.416 100.297 151.349 109.744 C159.147 110.498 167.357 102.85 173.25 98.375 C174.064 97.766 174.878 97.157 175.717 96.53 C181.954 91.846 188.113 87.065 194.215 82.207 C195.134 81.479 196.053 80.75 197 80 C197.715 79.404 198.431 78.809 199.168 78.195 C201.666 76.565 203.59 76.934 206.453 77.402 C210.914 78.449 215.274 79.85 219.633 81.258 C224.781 82.393 227.687 81.733 232.277 79.172 C233.502 78.372 234.722 77.564 235.938 76.75 C297.221 37.207 297.221 37.207 311.727 38.184 C314 39 314 39 316 42 C315.763 48.573 313.703 53.848 311.062 59.812 C310.551 61.022 310.551 61.022 310.029 62.256 C308.113 66.667 306.06 70.941 303.692 75.126 C297.369 86.393 293.314 97.445 290.005 109.917 C288.871 114.194 287.686 118.457 286.505 122.721 C285.898 124.917 285.292 127.114 284.689 129.312 C281.702 140.18 278.475 150.97 275.188 161.75 C274.917 162.641 274.646 163.531 274.367 164.449 C272.586 170.302 270.796 176.152 269 182 C268.78 182.718 268.559 183.437 268.332 184.177 C263.417 200.194 258.367 216.164 253.246 232.116 C252.372 234.84 251.499 237.566 250.627 240.291 C247.823 249.05 245.005 257.805 242.163 266.553 C240.805 270.735 239.454 274.92 238.116 279.109 C236.799 283.234 235.465 287.353 234.12 291.469 C233.615 293.024 233.116 294.581 232.623 296.139 C231.941 298.292 231.238 300.437 230.53 302.582 C230.137 303.801 229.744 305.02 229.338 306.277 C228 309 228 309 225.996 310.034 C224 310 224 310 221.527 307.879 C220.693 306.929 219.859 305.979 219 305 C218.279 304.205 217.559 303.409 216.816 302.59 C197.741 280.143 184.111 255.23 171.75 228.688 C171.242 227.602 170.735 226.517 170.212 225.399 C161.494 206.517 161.494 206.517 163 202 C166.167 205.669 168.258 209.276 170.25 213.688 C170.771 214.826 171.292 215.964 171.828 217.137 C173 220 173 220 173 222 C173.66 222 174.32 222 175 222 C175.102 221.318 175.204 220.636 175.309 219.934 C176.137 216.42 177.518 213.305 179.062 210.062 C179.53 209.078 179.53 209.078 180.007 208.074 C187.46 192.617 199.405 169.252 215.82 161.703 C216.54 161.471 217.259 161.239 218 161 C216.5 165.315 214.208 168.838 211.625 172.562 C202.29 186.357 194.017 200.677 186.312 215.438 C185.7 216.605 185.087 217.773 184.456 218.976 C183.889 220.075 183.322 221.175 182.738 222.309 C182.233 223.286 181.728 224.264 181.208 225.271 C179.491 229.15 178.577 231.731 179.938 235.812 C180.288 236.534 180.639 237.256 181 238 C181.62 238.086 182.241 238.171 182.88 238.26 C185.691 238.649 188.502 239.043 191.312 239.438 C192.289 239.572 193.265 239.707 194.271 239.846 C195.209 239.978 196.147 240.11 197.113 240.246 C197.977 240.367 198.841 240.487 199.732 240.611 C202 241 202 241 205 242 C205.124 241.366 205.247 240.732 205.375 240.078 C213.108 205.084 234.027 174.686 257 148 C254.174 146.485 251.493 145.488 248.393 144.682 C247.469 144.439 246.545 144.196 245.593 143.946 C244.583 143.685 243.572 143.425 242.531 143.156 C241.455 142.875 240.379 142.593 239.271 142.303 C235.682 141.364 232.091 140.432 228.5 139.5 C224.022 138.333 219.544 137.165 215.066 135.995 C213.714 135.642 212.362 135.289 211.01 134.936 C200.528 132.202 190.06 129.418 179.6 126.605 C174.922 125.348 170.242 124.096 165.563 122.844 C161.746 121.822 157.93 120.796 154.116 119.762 C150.507 118.785 146.896 117.816 143.284 116.854 C141.948 116.496 140.614 116.136 139.281 115.771 C137.453 115.272 135.623 114.786 133.792 114.301 C132.765 114.024 131.737 113.747 130.679 113.462 C127.972 112.995 126.528 112.986 124 114 C121.658 116.121 121.658 116.121 119.438 118.75 C118.673 119.611 117.909 120.472 117.121 121.359 C115.148 123.816 113.589 126.288 112 129 C113.161 129.285 114.322 129.57 115.518 129.864 C149.136 138.131 182.587 146.943 216 156 C216 156.99 216 157.98 216 159 C210.021 158.437 204.413 157.521 198.613 155.988 C197.818 155.784 197.024 155.579 196.205 155.368 C193.572 154.689 190.942 154.001 188.312 153.312 C186.436 152.827 184.559 152.341 182.682 151.857 C177.554 150.531 172.429 149.197 167.303 147.861 C157.99 145.434 148.675 143.014 139.359 140.594 C135.979 139.715 132.599 138.832 129.22 137.948 C122.819 136.278 116.412 134.63 110 133 C108.272 132.56 108.272 132.56 106.509 132.11 C103.053 131.235 99.594 130.375 96.133 129.52 C94.544 129.116 94.544 129.116 92.924 128.705 C91.451 128.346 91.451 128.346 89.95 127.98 C89.088 127.766 88.226 127.552 87.338 127.331 C84.827 126.975 83.353 127.074 81 128 C79.26 129.971 77.793 131.848 76.312 134 C75.88 134.618 75.448 135.236 75.003 135.873 C67.541 146.814 61.828 158.697 57 171 C62.61 172.32 68.22 173.64 74 175 C74.33 176.32 74.66 177.64 75 179 C70.392 178.408 65.999 177.571 61.515 176.361 C60.268 176.027 59.021 175.692 57.736 175.348 C56.384 174.98 55.032 174.613 53.68 174.246 C52.257 173.863 50.834 173.48 49.412 173.097 C45.657 172.086 41.904 171.07 38.151 170.054 C35.176 169.248 32.199 168.447 29.223 167.645 C26.292 166.856 23.362 166.065 20.432 165.274 C18.972 164.881 17.512 164.487 16.053 164.094 C8.243 161.989 0.445 159.853 -7.331 157.625 C-8.659 157.248 -9.987 156.871 -11.314 156.494 C-13.77 155.794 -16.223 155.085 -18.672 154.364 C-24.994 152.569 -30.422 151.45 -37 152 C-42.768 155.753 -45.122 162.86 -47.875 168.938 C-48.385 170.009 -48.896 171.081 -49.422 172.186 C-49.899 173.226 -50.376 174.267 -50.867 175.34 C-51.519 176.753 -51.519 176.753 -52.183 178.195 C-53.157 181.54 -52.787 183.636 -52 187 C-51.667 189 -51.333 191 -51 193 C-51.99 193 -52.98 193 -54 193 C-63.8 172.393 -73.579 151.783 -83 131 C-83.931 128.952 -84.862 126.904 -85.793 124.855 C-86.529 123.237 -87.264 121.618 -88 120 C-97.992 122.341 -107.852 125.066 -117.707 127.926 C-118.928 128.28 -120.149 128.633 -121.408 128.998 C-126.516 130.479 -131.623 131.963 -136.727 133.459 C-140.488 134.561 -144.254 135.65 -148.02 136.738 C-149.179 137.081 -150.338 137.423 -151.532 137.776 C-152.602 138.084 -153.671 138.391 -154.773 138.708 C-155.713 138.983 -156.653 139.257 -157.621 139.54 C-160 140 -160 140 -163 139 C-162.67 138.01 -162.34 137.02 -162 136 C-160.092 135.136 -160.092 135.136 -157.558 134.439 C-156.611 134.172 -155.664 133.904 -154.688 133.629 C-153.133 133.209 -153.133 133.209 -151.547 132.781 C-149.34 132.163 -147.134 131.545 -144.928 130.926 C-143.21 130.45 -143.21 130.45 -141.457 129.965 C-137.053 128.736 -132.667 127.45 -128.28 126.16 C-124.015 124.906 -119.745 123.671 -115.474 122.436 C-113.288 121.801 -111.103 121.163 -108.918 120.521 C-105.703 119.578 -102.485 118.647 -99.266 117.719 C-98.29 117.429 -97.314 117.14 -96.308 116.842 C-95.405 116.584 -94.502 116.326 -93.571 116.061 C-92.782 115.831 -91.993 115.601 -91.18 115.364 C-88.752 114.959 -87.292 115.127 -85 116 C-83.682 117.885 -83.682 117.885 -82.512 120.406 C-81.834 121.841 -81.834 121.841 -81.142 123.304 C-80.662 124.359 -80.182 125.414 -79.688 126.5 C-78.925 128.129 -78.925 128.129 -78.147 129.791 C-75.03 136.482 -71.995 143.21 -68.949 149.934 C-68.61 150.682 -68.271 151.431 -67.921 152.202 C-66.239 155.916 -64.563 159.632 -62.901 163.355 C-62.286 164.725 -61.67 166.095 -61.055 167.465 C-60.775 168.097 -60.495 168.729 -60.207 169.381 C-59.02 172.013 -58.062 173.938 -56 176 C-55.646 175.154 -55.646 175.154 -55.285 174.291 C-54.185 171.687 -53.061 169.094 -51.938 166.5 C-51.567 165.613 -51.196 164.726 -50.814 163.812 C-48.142 157.704 -45.012 152.489 -40 148 C-33.423 145.808 -27.254 147.155 -20.781 148.969 C-20.038 149.169 -19.295 149.368 -18.529 149.574 C-16.183 150.207 -13.842 150.853 -11.5 151.5 C-9.899 151.935 -8.297 152.368 -6.695 152.801 C-2.794 153.857 1.104 154.925 5 156 C5.227 154.799 5.454 153.597 5.688 152.359 C7.009 146.429 9.136 140.839 11.278 135.163 C12.537 131.825 13.774 128.479 15.012 125.133 C15.265 124.448 15.519 123.763 15.78 123.058 C18.644 115.298 21.325 107.477 24 99.651 C26.526 92.267 29.081 84.894 31.668 77.531 C31.985 76.629 32.301 75.727 32.628 74.798 C33.896 71.186 35.165 67.574 36.438 63.964 C37.325 61.448 38.21 58.931 39.094 56.414 C39.358 55.667 39.622 54.921 39.894 54.151 C41.42 49.802 42.777 45.444 44 41 C43.167 40.749 42.334 40.499 41.475 40.241 C-11.765 24.144 -11.765 24.144 -29 13 C-29.33 12.34 -29.66 11.68 -30 11 C-27.489 7.989 -25.008 7.117 -21.309 5.957 C-20.199 5.606 -19.09 5.254 -17.947 4.893 C-16.789 4.536 -15.631 4.18 -14.438 3.812 C-13.275 3.444 -12.113 3.076 -10.916 2.697 C-2.314 0 -2.314 0 0 0 Z " fill="#000000" transform="translate(372,237)"/>
<path d="M0 0 C0.76 -0.013 1.52 -0.026 2.304 -0.04 C7.178 -0.047 11.239 0.438 15.812 2.188 C16.472 3.178 17.132 4.167 17.812 5.188 C17.153 6.178 16.493 7.167 15.812 8.188 C13.26 8.409 10.969 8.443 8.426 8.332 C7.691 8.31 6.955 8.289 6.198 8.266 C4.638 8.217 3.079 8.16 1.52 8.096 C-0.848 8.001 -3.215 7.931 -5.584 7.865 C-7.102 7.814 -8.619 7.761 -10.137 7.707 C-10.838 7.686 -11.539 7.665 -12.262 7.644 C-16.895 7.44 -20.81 6.601 -25.188 5.188 C-25.188 4.528 -25.188 3.868 -25.188 3.188 C-17.071 -0.017 -8.605 0.086 0 0 Z " fill="#000000" transform="translate(281.1875,239.8125)"/>
<path d="M0 0 C6.112 0.566 12.37 1.432 18 4 C18.33 4.99 18.66 5.98 19 7 C12.516 6.52 6.808 5 1 2 C0.67 1.34 0.34 0.68 0 0 Z " fill="#000000" transform="translate(447,242)"/>
<path d="M0 0 C1.73 0.115 3.459 0.243 5.188 0.375 C6.15 0.445 7.113 0.514 8.105 0.586 C11.015 1.002 13.329 1.799 16 3 C15.67 3.99 15.34 4.98 15 6 C4.196 4.217 4.196 4.217 0 1 C0 0.67 0 0.34 0 0 Z " fill="#000000" transform="translate(497,246)"/>
<path d="M0 0 C1.98 0.495 1.98 0.495 4 1 C3.34 2.98 2.68 4.96 2 7 C1.01 7 0.02 7 -1 7 C-0.67 4.69 -0.34 2.38 0 0 Z " fill="#000000" transform="translate(243,251)"/>
<path d="M0 0 C10.501 0.344 21.484 1.336 30 8 C22.762 7.557 16.27 6.139 9.375 3.938 C8.466 3.656 7.557 3.374 6.621 3.084 C4.411 2.398 2.205 1.703 0 1 C0 0.67 0 0.34 0 0 Z " fill="#000000" transform="translate(475,251)"/>
<path d="M0 0 C0.536 0.268 1.072 0.536 1.625 0.812 C-2.178 9.407 -11.139 15.237 -18.375 20.812 C-18.705 19.822 -19.035 18.832 -19.375 17.812 C-17.762 15.536 -16.152 13.518 -14.312 11.438 C-13.834 10.873 -13.355 10.308 -12.861 9.727 C-4.167 -0.329 -4.167 -0.329 0 0 Z " fill="#000000" transform="translate(588.375,251.1875)"/>
<path d="M0 0 C7.769 0.629 15.067 2.348 22.609 4.273 C23.907 4.601 25.205 4.929 26.503 5.257 C29.207 5.94 31.91 6.628 34.612 7.319 C38.065 8.202 41.521 9.072 44.978 9.938 C47.652 10.61 50.325 11.29 52.997 11.972 C54.887 12.452 56.778 12.925 58.669 13.399 C59.821 13.696 60.972 13.992 62.159 14.298 C63.169 14.555 64.179 14.812 65.219 15.077 C69.692 16.562 72.368 18.052 75 22 C76.192 28.778 74.233 35.053 71 41 C70.01 41.495 70.01 41.495 69 42 C68.34 41.67 67.68 41.34 67 41 C67.205 40.348 67.41 39.695 67.621 39.023 C68.443 36.357 69.224 33.68 70 31 C70.33 29.907 70.66 28.814 71 27.688 C71.262 24.85 71.262 24.85 69.195 22.504 C65.219 18.772 60.059 18.273 54.875 17.25 C52.555 16.75 50.236 16.246 47.918 15.738 C46.66 15.466 45.403 15.193 44.107 14.913 C37.223 13.398 30.376 11.732 23.539 10.021 C21.979 9.634 20.417 9.254 18.854 8.881 C16.641 8.353 14.436 7.802 12.23 7.246 C10.956 6.933 9.681 6.621 8.368 6.299 C4.575 4.836 2.643 3.045 0 0 Z " fill="#000000" transform="translate(628,251)"/>
<path d="M0 0 C1.113 0.004 2.227 0.008 3.374 0.013 C15.993 0.183 31.073 0.93 42.312 7.312 C42.808 8.798 42.808 8.798 43.312 10.312 C34.437 10.765 26.111 9.825 17.354 8.527 C5.728 6.854 -5.973 6.094 -17.688 5.312 C-16.688 2.312 -16.688 2.312 -14.458 1.144 C-9.693 -0.286 -4.941 -0.025 0 0 Z " fill="#000000" transform="translate(255.6875,261.6875)"/>
<path d="M0 0 C0.99 0.495 0.99 0.495 2 1 C-6.93 10.01 -16.249 18.197 -26.394 25.792 C-28.948 27.713 -31.472 29.671 -34 31.625 C-39.817 36.105 -45.658 40.553 -51.5 45 C-57.425 49.511 -63.347 54.024 -69.25 58.562 C-70.244 59.323 -71.238 60.084 -72.262 60.867 C-74.078 62.282 -75.873 63.725 -77.645 65.195 C-78.841 66.181 -78.841 66.181 -80.062 67.188 C-80.734 67.759 -81.406 68.33 -82.098 68.918 C-84 70 -84 70 -86.246 69.676 C-87.114 69.341 -87.114 69.341 -88 69 C-86.671 65.013 -84.055 63.49 -80.812 61.062 C-75.743 57.181 -70.815 53.194 -66 49 C-60.907 44.581 -55.709 40.343 -50.382 36.21 C-46.616 33.286 -42.913 30.297 -39.237 27.262 C-11.538 4.441 -11.538 4.441 0 0 Z " fill="#000000" transform="translate(618,268)"/>
<path d="M0 0 C3.415 1.782 4.559 2.882 5.875 6.5 C5.5 9.688 5.5 9.688 3.875 12.5 C0.465 14.015 -1.777 14.864 -5.438 13.875 C-7.536 12.165 -8.33 11.102 -9.125 8.5 C-9.062 5.438 -9.062 5.438 -8.125 2.5 C-5.199 -0.175 -3.934 -0.63 0 0 Z M-6.125 4.5 C-6.625 6.957 -6.625 6.957 -6.125 9.5 C-4.471 11.49 -4.471 11.49 -2.125 12.5 C0.083 12.283 0.083 12.283 1.875 11.5 C2.552 8.097 2.552 8.097 2.875 4.5 C1.048 2.251 1.048 2.251 -1.625 2.25 C-4.298 2.251 -4.298 2.251 -6.125 4.5 Z " fill="#000000" transform="translate(562.125,268.5)"/>
<path d="M0 0 C4.244 1.667 7.159 4.826 10.375 7.938 C15.842 13.157 21.492 17.913 27.644 22.308 C30.36 24.326 31.853 25.534 32.887 28.812 C32.943 29.895 32.943 29.895 33 31 C31.02 31.99 31.02 31.99 29 33 C17.592 26.432 4.136 14.731 0.324 1.688 C0.217 1.131 0.11 0.574 0 0 Z " fill="#000000" transform="translate(183,275)"/>
<path d="M0 0 C0.495 0.99 0.495 0.99 1 2 C0.523 2.341 0.046 2.683 -0.446 3.035 C-10.435 10.191 -20.306 17.45 -30 25 C-32.435 26.878 -34.874 28.752 -37.312 30.625 C-38.413 31.471 -39.513 32.318 -40.613 33.164 C-41.401 33.77 -42.189 34.376 -43 35 C-43.66 34.67 -44.32 34.34 -45 34 C-44.049 32.827 -43.089 31.662 -42.125 30.5 C-41.591 29.85 -41.058 29.201 -40.508 28.531 C-40.01 28.026 -39.513 27.521 -39 27 C-38.34 27 -37.68 27 -37 27 C-36.696 26.17 -36.696 26.17 -36.387 25.324 C-34.458 22.092 -31.753 20.075 -28.812 17.812 C-28.198 17.335 -27.584 16.857 -26.951 16.365 C-18.555 9.972 -9.48 4.624 0 0 Z " fill="#000000" transform="translate(585,277)"/>
<path d="M0 0 C14.371 13.908 14.371 13.908 18 21 C17.75 23.875 17.75 23.875 17 26 C13.633 25.438 12.232 24.597 10.188 21.875 C6.313 16.445 0 6.804 0 0 Z " fill="#000000" transform="translate(177,282)"/>
<path d="M0 0 C0.66 0.33 1.32 0.66 2 1 C0.07 2.676 -1.868 4.341 -3.812 6 C-4.633 6.715 -4.633 6.715 -5.471 7.445 C-9.66 11 -9.66 11 -13 11 C-12.647 8.194 -12.231 7.196 -10.039 5.332 C-9.242 4.831 -8.446 4.329 -7.625 3.812 C-6.834 3.303 -6.042 2.794 -5.227 2.27 C-3 1 -3 1 0 0 Z " fill="#000000" transform="translate(547,283)"/>
<path d="M0 0 C1.696 1.643 3.355 3.307 5 5 C5.547 5.562 6.093 6.124 6.656 6.703 C13.907 14.506 19.895 23.298 26 32 C26.515 32.728 27.031 33.455 27.562 34.205 C28.993 36.231 30.406 38.269 31.812 40.312 C32.239 40.916 32.666 41.519 33.105 42.141 C35.409 45.549 36.52 47.862 36 52 C33.525 52.495 33.525 52.495 31 53 C26.909 48.361 23.702 43.508 20.562 38.188 C20.058 37.338 19.553 36.489 19.032 35.614 C14.683 28.252 10.449 20.824 6.25 13.375 C5.629 12.278 5.009 11.181 4.369 10.052 C3.799 9.032 3.228 8.012 2.641 6.961 C1.875 5.597 1.875 5.597 1.095 4.205 C0 2 0 2 0 0 Z " fill="#000000" transform="translate(490,290)"/>
<path d="M0 0 C2.7 2.7 3.702 5.88 5.062 9.375 C5.331 10.048 5.6 10.721 5.877 11.414 C7.123 14.572 8.309 17.671 9 21 C8.01 21.66 7.02 22.32 6 23 C0.905 18.58 -0.003 13.481 -1 7 C-0.958 4.455 -0.621 2.482 0 0 Z " fill="#000000" transform="translate(341,301)"/>
<path d="M0 0 C0.33 0 0.66 0 1 0 C1.99 6.93 2.98 13.86 4 21 C2.68 21.33 1.36 21.66 0 22 C-3.086 16.771 -2.71 10.56 -1.547 4.727 C-1.091 3.133 -0.555 1.562 0 0 Z " fill="#000000" transform="translate(333,302)"/>
<path d="M0 0 C1.32 0.33 2.64 0.66 4 1 C3.01 4.3 2.02 7.6 1 11 C-0.32 10.67 -1.64 10.34 -3 10 C-2.692 8.52 -2.378 7.041 -2.062 5.562 C-1.801 4.327 -1.801 4.327 -1.535 3.066 C-1 1 -1 1 0 0 Z " fill="#000000" transform="translate(683,332)"/>
<path d="M0 0 C1.32 0 2.64 0 4 0 C3.719 1.648 3.425 3.293 3.125 4.938 C2.963 5.854 2.8 6.771 2.633 7.715 C2.424 8.469 2.215 9.223 2 10 C1.01 10.495 1.01 10.495 0 11 C-0.99 10.34 -1.98 9.68 -3 9 C-2.01 6.03 -1.02 3.06 0 0 Z " fill="#000000" transform="translate(678,346)"/>
<path d="M0 0 C8 9.429 8 9.429 8 15 C7.01 15 6.02 15 5 15 C4.16 13.065 3.328 11.127 2.5 9.188 C2.036 8.109 1.572 7.03 1.094 5.918 C0 3 0 3 0 0 Z " fill="#000000" transform="translate(302,350)"/>
<path d="M0 0 C1.32 0 2.64 0 4 0 C3.25 7.625 3.25 7.625 1 11 C0.01 10.67 -0.98 10.34 -2 10 C-1.542 6.531 -1.109 3.326 0 0 Z " fill="#000000" transform="translate(673,360)"/>
<path d="M0 0 C3 1 3 1 4.605 3.617 C5.128 4.692 5.65 5.767 6.188 6.875 C6.717 7.945 7.247 9.015 7.793 10.117 C9 13 9 13 9 16 C7.168 15.801 7.168 15.801 5 15 C3.551 12.855 3.551 12.855 2.312 10.188 C1.896 9.315 1.48 8.442 1.051 7.543 C0.143 5.345 -0.605 3.343 -1 1 C-0.67 0.67 -0.34 0.34 0 0 Z " fill="#000000" transform="translate(274,369)"/>
<path d="M0 0 C0.66 0 1.32 0 2 0 C4.31 4.62 6.62 9.24 9 14 C8.01 14.33 7.02 14.66 6 15 C4.99 13.256 3.992 11.505 3 9.75 C2.165 8.288 2.165 8.288 1.312 6.797 C0 4 0 4 0 0 Z " fill="#000000" transform="translate(267,371)"/>
<path d="M0 0 C1.32 0.33 2.64 0.66 4 1 C3.01 4.3 2.02 7.6 1 11 C-0.32 10.67 -1.64 10.34 -3 10 C-2.692 8.52 -2.378 7.041 -2.062 5.562 C-1.801 4.327 -1.801 4.327 -1.535 3.066 C-1 1 -1 1 0 0 Z " fill="#000000" transform="translate(669,374)"/>
<path d="M0 0 C1.461 0.451 2.918 0.911 4.375 1.375 C5.187 1.63 5.999 1.885 6.836 2.148 C9 3 9 3 11 5 C7.051 4.449 3.651 3.611 0 2 C0 1.34 0 0.68 0 0 Z " fill="#000000" transform="translate(462,379)"/>
<path d="M0 0 C0.25 5.625 0.25 5.625 -2 9 C-2.99 9 -3.98 9 -5 9 C-4.387 3.484 -4.387 3.484 -2.5 1.125 C-1 0 -1 0 0 0 Z " fill="#000000" transform="translate(584,379)"/>
<path d="M0 0 C0.66 0 1.32 0 2 0 C1.125 6.75 1.125 6.75 0 9 C-0.99 9 -1.98 9 -3 9 C-2.443 5.656 -1.648 2.967 0 0 Z " fill="#000000" transform="translate(591,382)"/>
<path d="M0 0 C3.848 3.572 6.625 7.254 9.25 11.812 C9.636 12.474 10.023 13.135 10.421 13.816 C11.227 15.2 12.029 16.586 12.828 17.974 C13.91 19.845 15.014 21.701 16.125 23.555 C20.948 31.727 25.127 40.198 29.165 48.779 C29.76 50.044 30.358 51.308 30.959 52.57 C31.807 54.358 32.64 56.154 33.473 57.949 C33.96 58.994 34.447 60.039 34.949 61.116 C35.993 63.98 36.224 65.985 36 69 C33.03 69.495 33.03 69.495 30 70 C0 12.516 0 12.516 0 0 Z " fill="#000000" transform="translate(208,386)"/>
<path d="M0 0 C1.32 0.33 2.64 0.66 4 1 C3.34 3.97 2.68 6.94 2 10 C0.68 10.33 -0.64 10.66 -2 11 C-3.136 7.591 -2.867 6.997 -1.562 3.812 C-1.131 2.739 -1.131 2.739 -0.691 1.645 C-0.349 0.83 -0.349 0.83 0 0 Z " fill="#000000" transform="translate(664,388)"/>
<path d="M0 0 C0.33 0 0.66 0 1 0 C0.503 4.973 -0.553 8.638 -3 13 C-3.99 13 -4.98 13 -6 13 C-6.343 8.834 -5.661 6.934 -3.062 3.688 C-2.517 2.99 -1.972 2.293 -1.41 1.574 C-0.945 1.055 -0.479 0.535 0 0 Z " fill="#000000" transform="translate(537,395)"/>
<path d="M0 0 C3.124 1.562 3.316 4.147 4.5 7.375 C7.308 14.83 10.907 21.729 14.836 28.652 C15.26 29.42 15.684 30.189 16.121 30.98 C16.7 32 16.7 32 17.291 33.04 C18.153 35.424 17.831 36.646 17 39 C14.812 39 14.812 39 12 38 C3.179 28.094 -0.479 12.933 0 0 Z " fill="#000000" transform="translate(177,396)"/>
<path d="M0 0 C0.66 0 1.32 0 2 0 C2.363 5.802 1.257 9.64 -1 15 C-4.41 15.612 -6.451 15.34 -9.402 13.512 C-11.709 11.752 -13.93 10.033 -16 8 C-16 7.34 -16 6.68 -16 6 C-11.435 6.543 -8.027 7.795 -4 10 C-2.68 6.7 -1.36 3.4 0 0 Z " fill="#000000" transform="translate(266,397)"/>
<path d="M0 0 C2.356 1.943 4.359 3.825 6.445 6.027 C7.056 6.65 7.666 7.272 8.295 7.913 C10.251 9.91 12.189 11.922 14.125 13.938 C22.399 22.485 30.537 30.751 40 38 C41.021 38.801 41.021 38.801 42.062 39.618 C63.018 55.923 80.555 58.624 106.394 55.576 C108.708 55.303 111.022 55.041 113.337 54.782 C116.724 54.402 120.11 54.018 123.496 53.629 C132.519 52.596 141.545 51.586 150.572 50.589 C153.567 50.256 156.56 49.916 159.553 49.575 C177.331 47.586 177.331 47.586 186 48 C181.167 50.631 176.025 51.516 170.688 52.688 C169.512 52.946 168.336 53.204 167.125 53.47 C143.729 58.504 120.125 62.553 96.438 65.938 C95.703 66.045 94.968 66.153 94.211 66.264 C72.072 69.483 53.671 67.744 35.215 54.348 C31.709 51.682 28.338 48.871 25 46 C24.083 45.224 23.167 44.448 22.223 43.648 C13.881 36.373 6.802 28.485 0.625 19.312 C0.208 18.695 -0.209 18.077 -0.639 17.441 C-4.064 12.213 -7 7.404 -7 1 C-4.294 -0.353 -3.021 -0.478 0 0 Z " fill="#000000" transform="translate(337,397)"/>
<path d="M0 0 C4.258 3.935 7.348 8.171 10.438 13.062 C10.909 13.77 11.38 14.477 11.865 15.205 C12.3 15.892 12.735 16.578 13.184 17.285 C13.581 17.903 13.979 18.52 14.388 19.156 C15 21 15 21 14.114 23.232 C13.746 23.816 13.379 24.399 13 25 C6.35 21.483 3.321 15.914 0.953 8.898 C0.235 6.276 -0.424 3.658 -1 1 C-0.67 0.67 -0.34 0.34 0 0 Z " fill="#000000" transform="translate(187,400)"/>
<path d="M0 0 C0.66 0 1.32 0 2 0 C1.457 4.565 0.205 7.973 -2 12 C-3.32 11.67 -4.64 11.34 -6 11 C-5.378 9.728 -4.752 8.457 -4.125 7.188 C-3.777 6.48 -3.429 5.772 -3.07 5.043 C-2 3 -2 3 0 0 Z " fill="#000000" transform="translate(548,400)"/>
<path d="M0 0 C16.35 3.451 32.78 7.862 48.188 14.375 C48.976 14.708 49.765 15.042 50.578 15.385 C55.859 17.717 55.859 17.717 57 20 C51.089 18.785 45.386 17.278 39.668 15.355 C38.91 15.104 38.152 14.852 37.371 14.593 C35.78 14.063 34.189 13.531 32.599 12.997 C30.206 12.194 27.809 11.4 25.412 10.607 C16.781 7.734 8.329 4.675 0 1 C0 0.67 0 0.34 0 0 Z " fill="#000000" transform="translate(459,401)"/>
<path d="M0 0 C1.32 0.33 2.64 0.66 4 1 C3.373 4.662 2.355 7.882 0.938 11.312 C0.575 12.196 0.213 13.079 -0.16 13.988 C-0.576 14.984 -0.576 14.984 -1 16 C-2.32 15.34 -3.64 14.68 -5 14 C-3.35 9.38 -1.7 4.76 0 0 Z " fill="#000000" transform="translate(659,403)"/>
<path d="M0 0 C3.632 1.091 7.257 2.204 10.876 3.336 C12.372 3.804 13.869 4.268 15.366 4.73 C17.832 5.495 20.291 6.277 22.75 7.062 C23.548 7.308 24.347 7.553 25.169 7.805 C27.145 8.445 29.078 9.213 31 10 C31.495 11.485 31.495 11.485 32 13 C21.132 10.328 10.589 6.594 0 3 C0 2.01 0 1.02 0 0 Z " fill="#000000" transform="translate(450,404)"/>
<path d="M0 0 C0 0.99 0 1.98 0 3 C-23.833 12.647 -23.833 12.647 -35.625 17 C-36.749 17.417 -36.749 17.417 -37.896 17.842 C-42.222 19.422 -46.557 20.787 -51 22 C-47.759 18.495 -44.087 16.877 -39.812 14.875 C-38.584 14.295 -38.584 14.295 -37.33 13.703 C-7.647 0 -7.647 0 0 0 Z " fill="#000000" transform="translate(298,406)"/>
<path d="M0 0 C13.033 3.152 25.959 6.672 38.887 10.228 C42.416 11.199 45.946 12.165 49.477 13.131 C51.721 13.747 53.966 14.364 56.211 14.98 C57.794 15.413 57.794 15.413 59.408 15.855 C60.862 16.256 60.862 16.256 62.345 16.665 C63.199 16.899 64.052 17.134 64.931 17.375 C67 18 67 18 69 19 C69 19.99 69 20.98 69 22 C61.626 21.354 54.749 19.433 47.637 17.438 C45.733 16.91 45.733 16.91 43.791 16.373 C40.439 15.444 37.089 14.509 33.739 13.573 C31 12.808 28.259 12.048 25.519 11.289 C19.857 9.72 14.196 8.147 8.538 6.566 C7.538 6.287 6.539 6.008 5.509 5.721 C3.66 5.19 1.825 4.608 0 4 C0 2.68 0 1.36 0 0 Z " fill="#000000" transform="translate(455,415)"/>
<path d="M0 0 C1.418 0.285 2.834 0.578 4.25 0.875 C5.039 1.037 5.828 1.2 6.641 1.367 C8.968 1.992 10.89 2.848 13 4 C13 4.33 13 4.66 13 5 C11.395 4.886 9.791 4.758 8.188 4.625 C7.294 4.555 6.401 4.486 5.48 4.414 C3 4 3 4 0 2 C0 1.34 0 0.68 0 0 Z " fill="#000000" transform="translate(490,418)"/>
<path d="M0 0 C1.32 0.33 2.64 0.66 4 1 C3.493 4.719 2.884 7.735 1 11 C-0.32 10.67 -1.64 10.34 -3 10 C-2.01 6.7 -1.02 3.4 0 0 Z " fill="#000000" transform="translate(652,423)"/>
<path d="M0 0 C2.855 2.635 3.861 4.165 4.5 8 C3.877 11.739 2.743 13.41 0 16 C-1.32 16 -2.64 16 -4 16 C-3.67 15.299 -3.34 14.598 -3 13.875 C-1.902 10.719 -1.774 8.318 -2 5 C-2.983 3.794 -2.983 3.794 -4.848 3.902 C-6.898 3.935 -8.949 3.967 -11 4 C-11.335 6.332 -11.335 6.332 -11 9 C-9.104 11.314 -9.104 11.314 -7 13 C-8 14 -8 14 -10.375 14.312 C-13 14 -13 14 -14.875 12.438 C-16.521 8.872 -16.067 6.735 -15 3 C-9.973 -2.027 -6.581 -2.54 0 0 Z " fill="#000000" transform="translate(422,432)"/>
<path d="M0 0 C1.418 0.285 2.834 0.578 4.25 0.875 C5.039 1.037 5.828 1.2 6.641 1.367 C8.968 1.992 10.89 2.848 13 4 C12.67 4.66 12.34 5.32 12 6 C10.374 5.691 8.749 5.378 7.125 5.062 C6.22 4.888 5.315 4.714 4.383 4.535 C2 4 2 4 0 3 C0 2.01 0 1.02 0 0 Z " fill="#000000" transform="translate(485,431)"/>
<path d="M0 0 C6.166 -0.402 11.177 1.032 17 3 C16.01 4.485 16.01 4.485 15 6 C9.554 4.971 4.882 3.754 0 1 C0 0.67 0 0.34 0 0 Z " fill="#000000" transform="translate(335,433)"/>
<path d="M0 0 C6.735 0.596 13.028 1.851 19.562 3.562 C20.476 3.796 21.389 4.03 22.33 4.271 C24.555 4.842 26.778 5.418 29 6 C29.33 7.32 29.66 8.64 30 10 C24.208 9.411 18.882 8.297 13.312 6.625 C12.213 6.312 12.213 6.312 11.092 5.992 C7.025 4.789 3.505 3.475 0 1 C0 0.67 0 0.34 0 0 Z " fill="#000000" transform="translate(335,440)"/>
<path d="M0 0 C0.99 0.33 1.98 0.66 3 1 C2.328 4.806 1.273 8.352 0 12 C-1.32 11.67 -2.64 11.34 -4 11 C-3.49 6.611 -2.478 3.663 0 0 Z " fill="#000000" transform="translate(644,446)"/>
<path d="M0 0 C1.939 0.451 3.876 0.911 5.812 1.375 C6.891 1.63 7.97 1.885 9.082 2.148 C12 3 12 3 15 5 C14.67 5.99 14.34 6.98 14 8 C3.909 4.9 3.909 4.9 0 2 C0 1.34 0 0.68 0 0 Z " fill="#000000" transform="translate(358,451)"/>
<path d="M0 0 C0.495 1.485 0.495 1.485 1 3 C-2.102 4.007 -5.207 5.004 -8.312 6 C-9.634 6.429 -9.634 6.429 -10.982 6.867 C-11.83 7.138 -12.678 7.409 -13.551 7.688 C-14.331 7.939 -15.111 8.19 -15.915 8.449 C-18 9 -18 9 -21 9 C-21.17 9.548 -21.339 10.095 -21.514 10.659 C-23.307 16.264 -25.497 21.511 -28.055 26.805 C-28.438 27.609 -28.822 28.414 -29.217 29.243 C-30.431 31.789 -31.653 34.332 -32.875 36.875 C-33.687 38.571 -34.498 40.268 -35.309 41.965 C-35.703 42.791 -36.098 43.617 -36.504 44.468 C-38.009 47.62 -39.51 50.774 -41.011 53.928 C-41.894 55.779 -42.789 57.625 -43.685 59.47 C-44.142 60.431 -44.599 61.392 -45.07 62.383 C-45.452 63.173 -45.834 63.964 -46.227 64.778 C-47.472 68.325 -47.472 68.325 -47 72 C-41.886 76.68 -35.028 78.603 -28.547 80.602 C-27.546 80.92 -26.545 81.238 -25.514 81.566 C-22.263 82.597 -19.006 83.611 -15.75 84.625 C-13.485 85.339 -11.22 86.054 -8.956 86.77 C5.338 91.277 19.655 95.715 34.011 100.022 C43.166 102.773 52.265 105.687 61.359 108.633 C72.713 112.311 84.083 115.934 95.473 119.5 C96.559 119.84 96.559 119.84 97.667 120.187 C102.057 121.561 106.447 122.933 110.838 124.305 C116.806 126.17 122.774 128.037 128.742 129.904 C130.794 130.546 132.847 131.187 134.9 131.828 C136.761 132.41 136.761 132.41 138.66 133.004 C139.744 133.342 140.827 133.681 141.943 134.03 C144.972 134.991 147.988 135.987 151 137 C151.374 135.769 151.748 134.538 152.133 133.27 C154.178 127.149 157.024 121.466 159.875 115.688 C161.053 113.273 162.229 110.858 163.402 108.441 C163.852 107.517 163.852 107.517 164.311 106.574 C167.437 100.13 170.441 93.63 173.438 87.125 C178.162 76.885 183.004 66.709 187.941 56.57 C191.188 49.902 194.383 43.219 197.445 36.465 C197.859 35.555 197.859 35.555 198.281 34.627 C199.593 31.738 200.895 28.845 202.182 25.945 C202.871 24.419 202.871 24.419 203.574 22.863 C203.972 21.969 204.37 21.075 204.78 20.154 C206 18 206 18 209 16 C212.524 19.961 214.395 23.809 216.25 28.688 C216.652 29.702 216.652 29.702 217.062 30.736 C219 35.704 219 35.704 219 38 C220.32 38 221.64 38 223 38 C224.125 45.75 224.125 45.75 223 48 C225.056 50.994 225.056 50.994 228 53 C230.214 58.359 230.214 58.359 229 62 C230.098 64.27 230.098 64.27 232 66 C233.32 66 234.64 66 236 66 C235.67 67.32 235.34 68.64 235 70 C234.34 70 233.68 70 233 70 C237.583 79.81 242.375 89.522 250.238 97.18 C252 99 252 99 252 101 C252.58 101.251 253.16 101.503 253.758 101.762 C256.28 103.154 257.891 104.729 259.875 106.812 C263.097 110.125 266.393 113.115 270 116 C266.565 117.145 265.229 116.82 261.741 116.06 C260.665 115.829 259.589 115.598 258.481 115.361 C257.316 115.102 256.15 114.844 254.949 114.578 C253.744 114.317 252.538 114.057 251.296 113.788 C248.08 113.091 244.865 112.388 241.651 111.681 C238.432 110.974 235.211 110.277 231.99 109.578 C227.22 108.543 222.451 107.503 217.682 106.458 C210.793 104.951 203.897 103.473 197 102 C201.558 103.274 206.116 104.547 210.676 105.817 C212.306 106.272 213.936 106.726 215.566 107.181 C224.328 109.625 233.093 112.046 241.895 114.34 C242.927 114.61 242.927 114.61 243.981 114.886 C247.224 115.733 250.469 116.573 253.717 117.398 C254.871 117.699 256.026 117.999 257.215 118.309 C258.717 118.692 258.717 118.692 260.25 119.084 C263 120 263 120 265.639 121.61 C268.055 123.309 268.055 123.309 271.562 122.938 C275 123 275 123 277.375 124.812 C280.03 128.386 280.14 131.342 280.205 135.665 C280.225 136.826 280.245 137.987 280.266 139.183 C280.291 141.063 280.291 141.063 280.316 142.98 C280.337 144.264 280.358 145.547 280.379 146.869 C280.435 150.277 280.484 153.685 280.532 157.093 C280.583 160.572 280.638 164.05 280.693 167.529 C280.801 174.353 280.902 181.176 281 188 C281.66 188.33 282.32 188.66 283 189 C283 192.63 283 196.26 283 200 C282.01 200 281.02 200 280 200 C280.026 200.852 280.052 201.705 280.079 202.583 C280.165 205.76 280.227 208.937 280.275 212.115 C280.3 213.488 280.334 214.861 280.377 216.233 C280.438 218.211 280.464 220.189 280.488 222.168 C280.514 223.357 280.541 224.545 280.568 225.77 C279.826 229.993 278.299 231.341 275 234 C272.598 235.463 272.598 235.463 270.062 236.656 C269.101 237.115 268.139 237.573 267.149 238.045 C266.11 238.525 265.071 239.005 264 239.5 C262.898 240.016 261.797 240.533 260.662 241.064 C258.31 242.162 255.955 243.254 253.597 244.34 C250.089 245.959 246.593 247.604 243.098 249.25 C229.543 255.554 215.924 260.972 201.782 265.798 C190.328 269.708 179.231 274.108 168.193 279.08 C146.171 288.911 146.171 288.911 135.84 285.23 C133.548 283.698 133.043 282.541 132 280 C131.586 277.422 131.586 277.422 131.375 274.75 C131.263 273.412 131.263 273.412 131.148 272.047 C131.099 271.371 131.05 270.696 131 270 C130.985 270.656 130.971 271.312 130.956 271.988 C130.881 274.951 130.785 277.913 130.688 280.875 C130.654 282.424 130.654 282.424 130.619 284.004 C130.584 284.99 130.548 285.976 130.512 286.992 C130.486 287.903 130.459 288.815 130.432 289.753 C130.29 290.495 130.147 291.236 130 292 C125.598 294.935 122.063 293.846 117 293 C113.927 292.302 110.939 291.41 107.934 290.465 C106.624 290.066 106.624 290.066 105.287 289.66 C103.362 289.073 101.438 288.483 99.516 287.888 C93.981 286.179 88.437 284.503 82.895 282.82 C81.664 282.446 80.434 282.071 79.166 281.685 C63.741 276.993 48.279 272.424 32.819 267.85 C28.483 266.567 24.148 265.282 19.813 263.997 C2.732 258.934 -14.353 253.888 -31.453 248.893 C-33.842 248.195 -36.231 247.496 -38.62 246.797 C-40.171 246.344 -41.721 245.89 -43.272 245.436 C-44.403 245.105 -44.403 245.105 -45.557 244.768 C-49.94 243.486 -54.324 242.21 -58.709 240.937 C-61.411 240.152 -64.112 239.362 -66.812 238.572 C-68.616 238.045 -70.422 237.524 -72.228 237.003 C-95.162 230.271 -95.162 230.271 -100 224 C-99.67 223.01 -99.34 222.02 -99 221 C-96.961 222.006 -94.943 223.031 -92.95 224.125 C-85.614 228.045 -77.929 230.364 -69.98 232.668 C-68.502 233.104 -67.024 233.541 -65.546 233.979 C-61.586 235.149 -57.621 236.309 -53.657 237.466 C-49.498 238.681 -45.342 239.908 -41.187 241.134 C-34.402 243.134 -27.616 245.128 -20.828 247.117 C-11.83 249.755 -2.836 252.405 6.156 255.062 C7.498 255.459 8.839 255.855 10.18 256.251 C12.143 256.831 14.105 257.411 16.068 257.991 C21.741 259.667 27.416 261.34 33.091 263.012 C45.461 266.658 57.827 270.319 70.188 274 C81.362 277.326 92.536 280.65 103.718 283.951 C105.218 284.394 106.718 284.838 108.218 285.283 C110.269 285.891 112.322 286.497 114.375 287.102 C116.119 287.617 116.119 287.617 117.898 288.143 C120.593 288.888 123.258 289.469 126 290 C125.891 279.541 125.779 269.082 125.661 258.622 C125.606 253.764 125.553 248.905 125.503 244.046 C125.454 239.338 125.402 234.631 125.347 229.924 C125.327 228.146 125.308 226.369 125.291 224.592 C125.195 214.861 124.977 205.146 124.543 195.425 C124.505 194.526 124.467 193.628 124.427 192.702 C124.367 191.452 124.367 191.452 124.305 190.176 C124.271 189.441 124.236 188.705 124.2 187.948 C124.049 185.785 124.049 185.785 123 183 C120.15 181.883 120.15 181.883 117 181 C115.653 180.362 114.313 179.707 113 179 C113.33 178.34 113.66 177.68 114 177 C115.755 177.372 117.504 177.774 119.25 178.188 C120.225 178.408 121.199 178.628 122.203 178.855 C125.814 180.333 126.917 181.695 129 185 C129.647 187.924 129.742 190.813 129.828 193.801 C129.867 194.637 129.906 195.474 129.945 196.335 C130.065 198.994 130.158 201.653 130.25 204.312 C130.326 206.121 130.405 207.928 130.484 209.736 C130.676 214.157 130.844 218.578 131 223 C130.997 221.803 130.994 220.606 130.991 219.372 C130.989 217.765 130.987 216.158 130.984 214.551 C130.982 213.766 130.98 212.981 130.978 212.173 C130.956 190.981 130.956 190.981 133.422 186.301 C136.478 183.574 139.272 182.46 143.088 181.067 C146.25 179.908 149.326 178.608 152.418 177.273 C153.527 176.799 154.636 176.325 155.779 175.836 C158.064 174.857 160.348 173.875 162.631 172.891 C168.033 170.585 173.291 168.405 179 167 C178.67 165.68 178.34 164.36 178 163 C180.972 161.101 183.515 159.645 187 159 C187.66 159.99 188.32 160.98 189 162 C190.485 161.01 190.485 161.01 192 160 C192 159.01 192 158.02 192 157 C193.242 156.298 194.494 155.614 195.75 154.938 C196.446 154.555 197.142 154.172 197.859 153.777 C200 153 200 153 201.863 153.57 C205.213 154.244 207.566 152.499 210.438 150.938 C211.858 150.197 213.28 149.458 214.703 148.723 C215.52 148.299 216.336 147.875 217.178 147.438 C222.338 144.809 227.561 142.306 232.779 139.794 C234.639 138.898 236.497 138 238.355 137.101 C246.199 133.316 254.08 129.623 262 126 C257.425 126.607 253.515 127.816 249.234 129.527 C248.58 129.788 247.926 130.048 247.253 130.316 C245.082 131.183 242.916 132.06 240.75 132.938 C239.619 133.393 239.619 133.393 238.464 133.858 C214.761 143.402 191.273 153.505 167.939 163.918 C135.456 178.409 111.86 176.836 78.054 167.745 C73.711 166.584 69.359 165.455 65.007 164.324 C63.227 163.862 61.447 163.399 59.667 162.937 C58.782 162.707 57.896 162.477 56.984 162.24 C54.287 161.537 51.591 160.832 48.895 160.125 C31.983 155.698 15.007 151.551 -1.99 147.466 C-5.622 146.592 -9.252 145.714 -12.883 144.836 C-13.586 144.665 -14.29 144.495 -15.015 144.32 C-16.417 143.981 -17.819 143.641 -19.221 143.302 C-21.27 142.806 -23.318 142.311 -25.366 141.816 C-36.967 139.011 -48.565 136.196 -60.151 133.329 C-62.019 132.867 -63.888 132.408 -65.757 131.952 C-68.257 131.342 -70.753 130.723 -73.25 130.102 C-73.959 129.93 -74.668 129.759 -75.398 129.583 C-79.579 128.528 -83.214 127.06 -87 125 C-86.67 124.01 -86.34 123.02 -86 122 C-82.022 121.181 -78.043 120.371 -74.062 119.562 C-72.946 119.332 -71.829 119.102 -70.678 118.865 C-64.455 117.606 -58.323 116.583 -52 116 C-52.33 114.68 -52.66 113.36 -53 112 C-49.488 109.592 -47.273 108.634 -43 109 C-42.67 109.99 -42.34 110.98 -42 112 C-40.796 111.567 -39.592 111.134 -38.352 110.688 C-36.776 110.125 -35.201 109.562 -33.625 109 C-32.831 108.714 -32.037 108.428 -31.219 108.133 C-30.078 107.727 -30.078 107.727 -28.914 107.312 C-28.212 107.061 -27.511 106.81 -26.788 106.551 C-25 106 -25 106 -23 106 C-23 104.35 -23 102.7 -23 101 C-19.865 99.142 -17.625 98.799 -14 99 C-13.67 99.66 -13.34 100.32 -13 101 C-8.524 99.581 -4.246 97.998 0 96 C0.33 95.34 0.66 94.68 1 94 C0.449 93.886 -0.102 93.773 -0.67 93.655 C-6.061 92.506 -11.273 91.077 -16.508 89.355 C-17.278 89.104 -18.047 88.852 -18.84 88.593 C-20.453 88.063 -22.064 87.531 -23.675 86.997 C-26.122 86.188 -28.575 85.398 -31.027 84.607 C-32.605 84.087 -34.181 83.566 -35.758 83.043 C-36.481 82.813 -37.204 82.582 -37.949 82.345 C-43.128 80.596 -49.436 78.128 -52 73 C-51.991 64.106 -47.991 57.058 -44.062 49.312 C-43.036 47.25 -42.015 45.185 -40.994 43.12 C-40.311 41.74 -39.627 40.359 -38.942 38.98 C-35.845 32.736 -32.921 26.419 -30.062 20.062 C-29.644 19.134 -29.226 18.206 -28.795 17.249 C-27.86 15.168 -26.928 13.085 -26 11 C-26.536 11.175 -27.071 11.351 -27.623 11.531 C-42.641 16.43 -57.762 20.838 -73 25 C-73.33 23.68 -73.66 22.36 -74 21 C-28.385 6.999 -28.385 6.999 -12.812 2.625 C-11.825 2.346 -10.838 2.067 -9.821 1.779 C-3.387 0 -3.387 0 0 0 Z " fill="#000000" transform="translate(320,437)"/>
<path d="M0 0 C0.99 0.33 1.98 0.66 3 1 C2.365 4.566 1.462 7.859 0.188 11.25 C-0.128 12.121 -0.444 12.993 -0.77 13.891 C-2 16 -2 16 -4.137 16.797 C-5.059 16.897 -5.059 16.897 -6 17 C-4.338 11.143 -2.53 5.541 0 0 Z " fill="#000000" transform="translate(638,462)"/>
<path d="M0 0 C5.661 0.497 9.877 1.545 15 4 C14.67 4.99 14.34 5.98 14 7 C4.222 3.996 4.222 3.996 0 1 C0 0.67 0 0.34 0 0 Z " fill="#000000" transform="translate(474,468)"/>
<path d="M0 0 C6.364 1.312 12.421 3.012 18.562 5.125 C19.38 5.402 20.198 5.679 21.041 5.965 C23.029 6.639 25.015 7.319 27 8 C26.34 8.66 25.68 9.32 25 10 C15.741 9.259 7.379 6.799 0 1 C0 0.67 0 0.34 0 0 Z " fill="#000000" transform="translate(456,472)"/>
<path d="M0 0 C11.522 0.779 11.522 0.779 17 3 C16.67 3.66 16.34 4.32 16 5 C10.015 4.657 5.249 4.177 0 1 C0 0.67 0 0.34 0 0 Z " fill="#000000" transform="translate(425,476)"/>
<path d="M0 0 C7.496 1.587 14.859 3.55 22.25 5.562 C31.065 7.95 39.895 10.247 48.773 12.387 C49.594 12.585 50.414 12.782 51.26 12.986 C55.274 13.951 59.291 14.907 63.31 15.854 C87.062 21.484 87.062 21.484 89.315 25.124 C89.541 25.743 89.767 26.362 90 27 C85.287 26.158 80.731 24.849 76.125 23.562 C68.633 21.484 61.12 19.512 53.578 17.625 C22.721 9.893 22.721 9.893 11.812 6.062 C11.043 5.793 10.273 5.523 9.48 5.244 C5.904 3.921 2.894 2.505 0 0 Z " fill="#000000" transform="translate(339,480)"/>
<path d="M0 0 C6.156 0.931 11.608 1.794 17 5 C17 5.33 17 5.66 17 6 C10.697 5.632 5.667 4.834 0 2 C0 1.34 0 0.68 0 0 Z " fill="#000000" transform="translate(451,482)"/>
<path d="M0 0 C16.827 4.311 33.482 9.158 50.125 14.125 C51.135 14.426 52.144 14.727 53.185 15.037 C65.15 18.609 77.094 22.237 89 26 C89 26.99 89 27.98 89 29 C83.664 28.44 78.826 27.518 73.672 25.953 C72.981 25.745 72.289 25.538 71.577 25.324 C69.3 24.638 67.025 23.944 64.75 23.25 C63.146 22.766 61.541 22.282 59.937 21.8 C57.379 21.03 54.822 20.26 52.266 19.488 C42.414 16.514 32.543 13.603 22.672 10.693 C18.775 9.543 14.878 8.393 10.982 7.242 C7.321 6.161 3.661 5.08 0 4 C0 2.68 0 1.36 0 0 Z " fill="#000000" transform="translate(300,483)"/>
<path d="M0 0 C3.812 1.271 4.359 3.067 6.107 6.531 C6.464 7.263 6.82 7.996 7.188 8.75 C7.556 9.467 7.924 10.183 8.303 10.922 C10.191 14.734 11.524 17.637 11 22 C9.02 22.99 9.02 22.99 7 24 C1.925 18.743 -0.68 11.646 -1.312 4.438 C-1 2 -1 2 0 0 Z " fill="#000000" transform="translate(222,490)"/>
<path d="M0 0 C0.33 0 0.66 0 1 0 C1.11 1.039 1.219 2.078 1.332 3.148 C2.13 10.295 2.971 17.077 5.414 23.887 C6.097 26.35 6.165 28.456 6 31 C5 32 5 32 2.438 32.062 C1.633 32.042 0.829 32.021 0 32 C-4.476 22.075 -5.543 13.129 -1.754 2.715 C-1 1 -1 1 0 0 Z " fill="#000000" transform="translate(215,492)"/>
<path d="M0 0 C6.548 1.162 12.745 2.734 19 5 C19 5.66 19 6.32 19 7 C11.97 6.546 6.415 4.879 0 2 C0 1.34 0 0.68 0 0 Z " fill="#000000" transform="translate(296,496)"/>
<path d="M0 0 C5.985 0.343 10.751 0.823 16 4 C16 4.66 16 5.32 16 6 C14.27 5.715 12.541 5.422 10.812 5.125 C9.85 4.963 8.887 4.8 7.895 4.633 C5.09 4.02 2.628 3.143 0 2 C0 1.34 0 0.68 0 0 Z " fill="#000000" transform="translate(324,505)"/>
<path d="M0 0 C4.582 0.575 8.858 1.423 13.276 2.762 C14.476 3.123 15.675 3.484 16.911 3.856 C18.206 4.252 19.502 4.647 20.797 5.043 C22.154 5.454 23.511 5.864 24.868 6.274 C28.439 7.353 32.008 8.439 35.578 9.527 C39.143 10.611 42.71 11.689 46.277 12.768 C53 14.802 59.719 16.852 66.435 18.91 C69.694 19.906 72.955 20.894 76.217 21.881 C77.962 22.416 79.708 22.952 81.453 23.488 C82.614 23.836 82.614 23.836 83.799 24.19 C85.552 24.735 87.28 25.359 89 26 C89.495 26.99 89.495 26.99 90 28 C89.34 28.66 88.68 29.32 88 30 C67.226 23.79 46.461 17.552 25.715 11.251 C23.654 10.625 21.593 10 19.532 9.375 C16.638 8.498 13.745 7.619 10.852 6.738 C9.983 6.475 9.114 6.212 8.218 5.941 C7.425 5.699 6.632 5.457 5.815 5.208 C5.123 4.998 4.431 4.788 3.718 4.571 C2 4 2 4 0 3 C0 2.01 0 1.02 0 0 Z " fill="#000000" transform="translate(290,507)"/>
<path d="M0 0 C15.26 2.714 30.173 8.224 44.965 12.791 C47.758 13.652 50.552 14.508 53.346 15.365 C56.086 16.205 58.825 17.047 61.565 17.89 C63.462 18.474 65.36 19.056 67.258 19.639 C70.843 20.747 74.422 21.872 78 23 C79.024 23.314 79.024 23.314 80.069 23.633 C82.163 24.276 84.253 24.933 86.342 25.594 C87.592 25.983 88.842 26.371 90.13 26.772 C91.077 27.177 92.024 27.582 93 28 C93.495 29.485 93.495 29.485 94 31 C87.607 30.404 81.847 28.924 75.73 27.008 C74.748 26.706 73.765 26.404 72.753 26.093 C69.562 25.11 66.375 24.118 63.188 23.125 C60.988 22.444 58.789 21.763 56.589 21.083 C52.167 19.714 47.745 18.34 43.325 16.964 C38.441 15.445 33.552 13.941 28.66 12.449 C25.399 11.453 22.14 10.45 18.882 9.444 C17.385 8.984 15.887 8.526 14.388 8.072 C12.331 7.447 10.279 6.811 8.227 6.172 C7.088 5.822 5.949 5.473 4.776 5.112 C2.121 4.049 0.783 3.19 -1 1 C-0.67 0.67 -0.34 0.34 0 0 Z " fill="#000000" transform="translate(348,511)"/>
<path d="M0 0 C5.229 0.632 10.111 1.747 15.164 3.215 C15.919 3.431 16.674 3.646 17.452 3.869 C19.038 4.323 20.623 4.779 22.207 5.238 C24.623 5.937 27.042 6.628 29.461 7.318 C31.008 7.763 32.555 8.207 34.102 8.652 C34.819 8.858 35.537 9.063 36.277 9.274 C39.939 10.338 43.489 11.507 47 13 C47 13.66 47 14.32 47 15 C40.737 14.471 35.251 13.376 29.316 11.348 C28.535 11.087 27.753 10.827 26.948 10.559 C25.314 10.013 23.681 9.462 22.05 8.907 C19.548 8.058 17.041 7.224 14.533 6.393 C12.94 5.858 11.347 5.322 9.754 4.785 C8.631 4.412 8.631 4.412 7.485 4.031 C2.231 2.231 2.231 2.231 0 0 Z " fill="#000000" transform="translate(401,514)"/>
<path d="M0 0 C-17.393 7.366 -34.97 13.986 -52.795 20.227 C-53.611 20.515 -54.426 20.802 -55.266 21.098 C-56.788 21.635 -58.312 22.167 -59.837 22.693 C-68.596 25.695 -68.596 25.695 -76 31 C-76.18 33.89 -76.232 36.673 -76.188 39.562 C-76.181 40.441 -76.175 41.319 -76.168 42.224 C-76.088 49.384 -75.806 56.534 -75.5 63.688 C-74.712 82.321 -75.388 100.415 -77 119 C-87.083 108.917 -82.378 71.596 -82.438 58.562 C-82.449 57.3 -82.461 56.037 -82.474 54.737 C-82.503 51.096 -82.504 47.457 -82.496 43.816 C-82.513 42.163 -82.513 42.163 -82.53 40.477 C-82.491 36.139 -82.27 32.71 -80.719 28.636 C-73.488 21.625 -62.966 18.691 -53.586 15.582 C-52.45 15.198 -51.315 14.814 -50.144 14.419 C-46.557 13.208 -42.966 12.01 -39.375 10.812 C-36.961 9.999 -34.547 9.184 -32.133 8.369 C-25.762 6.224 -19.392 4.08 -13 2 C-12.052 1.686 -11.104 1.372 -10.128 1.049 C-9.237 0.764 -8.346 0.479 -7.428 0.186 C-6.645 -0.067 -5.861 -0.321 -5.053 -0.583 C-3 -1 -3 -1 0 0 Z " fill="#000000" transform="translate(298,532)"/>
<path d="M0 0 C7.491 0.852 14.537 2.615 21.688 4.938 C22.891 5.317 22.891 5.317 24.119 5.704 C26.114 6.373 28.063 7.177 30 8 C30.33 8.99 30.66 9.98 31 11 C23.894 9.77 17.227 7.917 10.438 5.5 C9.537 5.192 8.637 4.884 7.709 4.566 C6.855 4.266 6.001 3.966 5.121 3.656 C4.352 3.386 3.583 3.116 2.791 2.838 C1 2 1 2 0 0 Z " fill="#000000" transform="translate(390,538)"/>
<path d="M0 0 C0.33 0 0.66 0 1 0 C1.682 6.999 2.349 13.998 3 21 C3.069 21.739 3.138 22.477 3.209 23.238 C3.376 25.054 3.532 26.871 3.688 28.688 C3.774 29.681 3.86 30.675 3.949 31.699 C4 34 4 34 3 36 C1.35 36 -0.3 36 -2 36 C-4.389 31.307 -4.345 26.956 -4.312 21.812 C-4.309 20.544 -4.309 20.544 -4.306 19.25 C-4.195 12.3 -3.127 6.254 0 0 Z " fill="#000000" transform="translate(652,569)"/>
<path d="M0 0 C0.33 0 0.66 0 1 0 C1.027 2.083 1.046 4.167 1.062 6.25 C1.074 7.41 1.086 8.57 1.098 9.766 C1.018 12.41 0.786 14.498 0 17 C-1.32 16.67 -2.64 16.34 -4 16 C-3.608 10.045 -2.629 5.372 0 0 Z " fill="#000000" transform="translate(643,570)"/>
<path d="M0 0 C8.847 1.398 17.384 3.605 26 6 C26.33 7.32 26.66 8.64 27 10 C17.859 8.528 8.955 6.315 0 4 C0 2.68 0 1.36 0 0 Z " fill="#000000" transform="translate(282,579)"/>
<path d="M0 0 C5.656 0.605 11.002 1.622 16.5 3.062 C17.591 3.342 17.591 3.342 18.703 3.627 C20.47 4.08 22.235 4.54 24 5 C24 5.33 24 5.66 24 6 C16.181 5.534 8.636 4.775 1 3 C0.67 2.01 0.34 1.02 0 0 Z " fill="#000000" transform="translate(315,588)"/>
<path d="M0 0 C3.63 0.99 7.26 1.98 11 3 C10.34 4.32 9.68 5.64 9 7 C5.7 6.01 2.4 5.02 -1 4 C-0.67 2.68 -0.34 1.36 0 0 Z " fill="#000000" transform="translate(353,597)"/>
<path d="M0 0 C1.459 0.141 2.917 0.288 4.375 0.438 C5.593 0.559 5.593 0.559 6.836 0.684 C9 1 9 1 11 2 C11 2.99 11 3.98 11 5 C3.375 4.125 3.375 4.125 0 3 C0 2.01 0 1.02 0 0 Z " fill="#000000" transform="translate(368,602)"/>
<path d="M0 0 C2.97 0.33 5.94 0.66 9 1 C9.33 2.32 9.66 3.64 10 5 C7.03 4.67 4.06 4.34 1 4 C0.67 2.68 0.34 1.36 0 0 Z " fill="#000000" transform="translate(384,606)"/>
<path d="M0 0 C1.48 0.114 2.959 0.241 4.438 0.375 C5.261 0.445 6.085 0.514 6.934 0.586 C7.956 0.791 7.956 0.791 9 1 C9.33 1.66 9.66 2.32 10 3 C9.67 3.66 9.34 4.32 9 5 C6.36 4.67 3.72 4.34 1 4 C0.67 2.68 0.34 1.36 0 0 Z " fill="#000000" transform="translate(399,610)"/>
<path d="M0 0 C10.688 3.562 10.688 3.562 14.188 7.062 C14.199 8.938 14.199 8.938 13.875 11.062 C13.776 11.764 13.676 12.465 13.574 13.188 C13.188 15.062 13.188 15.062 12.188 17.062 C13.201 17.297 13.201 17.297 14.235 17.536 C20.294 18.99 26.249 20.65 32.184 22.543 C32.871 22.762 33.559 22.981 34.268 23.207 C37.113 24.118 39.956 25.033 42.798 25.955 C44.903 26.636 47.012 27.309 49.121 27.98 C50.359 28.38 51.597 28.78 52.873 29.192 C55.883 29.983 58.114 30.505 61.188 30.062 C62.363 28.577 62.363 28.577 63.562 27.062 C66.188 24.062 66.188 24.062 69.332 23.695 C73.788 24.12 77.37 25.292 81.5 26.938 C82.215 27.207 82.93 27.476 83.666 27.754 C86.642 28.904 88.907 29.782 91.188 32.062 C91.74 38.367 90.465 43.206 88.188 49.062 C82.927 49.378 79.742 48.728 75.188 46.062 C75.188 42.433 75.188 38.803 75.188 35.062 C70.559 33.797 70.559 33.797 67.431 34.636 C62.99 35.22 59.542 34.125 55.285 32.887 C54.422 32.646 53.559 32.405 52.67 32.157 C49.859 31.367 47.055 30.559 44.25 29.75 C42.318 29.202 40.386 28.654 38.454 28.106 C22.237 23.482 6.17 18.437 -9.812 13.062 C-9.812 12.403 -9.812 11.742 -9.812 11.062 C-8.353 11.372 -6.895 11.685 -5.438 12 C-4.625 12.174 -3.813 12.348 -2.977 12.527 C-0.812 13.062 -0.812 13.062 1.188 14.062 C0.527 12.082 -0.132 10.102 -0.812 8.062 C-7.55 8.497 -13.924 9.556 -19.812 13.062 C-21.228 14.981 -21.228 14.981 -21.812 17.062 C-21.483 17.722 -21.152 18.383 -20.812 19.062 C-18.666 19.763 -18.666 19.763 -15.98 20.262 C-14.897 20.494 -13.813 20.726 -12.697 20.966 C-11.477 21.225 -10.257 21.483 -9 21.75 C11.859 26.372 32.295 32.578 52.78 38.615 C53.724 38.892 54.668 39.17 55.641 39.456 C56.552 39.727 57.462 39.997 58.4 40.276 C60.345 40.825 62.304 41.328 64.271 41.796 C65.262 42.035 66.253 42.274 67.275 42.521 C68.17 42.723 69.064 42.925 69.987 43.133 C72.188 44.062 72.188 44.062 73.495 46.159 C73.723 46.787 73.952 47.415 74.188 48.062 C71.744 50.937 71.33 51.048 67.262 51.449 C61.262 51.231 55.725 49.579 50 47.875 C48.221 47.356 48.221 47.356 46.406 46.827 C26.009 40.755 5.709 33.907 -14.091 26.099 C-16.725 25.096 -19.374 24.221 -22.062 23.375 C-25.812 22.062 -25.812 22.062 -26.812 20.062 C-27.188 17.188 -27.188 17.188 -26.812 14.062 C-23.329 10.708 -19.913 9.17 -15.375 7.625 C-11.483 6.218 -8.374 5.067 -5.375 2.188 C-2.812 0.062 -2.812 0.062 0 0 Z " fill="#000000" transform="translate(289.8125,610.9375)"/>
<path d="M0 0 C2.31 0.66 4.62 1.32 7 2 C7 3.32 7 4.64 7 6 C4.36 5.34 1.72 4.68 -1 4 C-0.67 2.68 -0.34 1.36 0 0 Z " fill="#000000" transform="translate(414,613)"/>
</svg>
