<?xml version="1.0" encoding="UTF-8"?>
<!-- Generator: visioncortex VTracer 0.6.0 -->
<svg version="1.1" xmlns="http://www.w3.org/2000/svg" width="350" height="350">
<path d="M0 0 C4.134 3.59 6.06 8.256 6.668 13.676 C6.74 15.012 6.74 15.012 6.812 16.375 C8.126 36.551 25.227 56.647 38.367 70.863 C40.076 72.736 41.666 74.648 43.25 76.625 C52.148 87.034 65.362 95.637 77.375 102.062 C74.375 103.062 74.375 103.062 71.59 101.91 C64.252 97.913 57.667 93.596 51.375 88.062 C49.923 86.792 49.923 86.792 48.441 85.496 C30.981 69.984 17.638 52.012 7.375 31.062 C7.045 31.062 6.715 31.062 6.375 31.062 C6.26 31.784 6.145 32.505 6.027 33.249 C-1.122 77.636 -9.946 126.405 -36.84 163.586 C-38.615 165.91 -38.615 165.91 -39.625 168.062 C-38.418 167.426 -38.418 167.426 -37.188 166.777 C-13.489 154.954 12.954 149.723 39.312 149.688 C40.575 149.686 41.837 149.684 43.137 149.682 C49.847 149.764 55.892 150.314 62.375 152.062 C62.375 152.393 62.375 152.722 62.375 153.062 C61.415 153.042 60.456 153.021 59.467 152.999 C39.726 152.607 20.761 152.78 1.375 157.062 C0.522 157.244 -0.331 157.426 -1.209 157.614 C-18.741 161.449 -34.61 168.674 -50.281 177.277 C-55.023 179.809 -59.259 180.966 -64.625 180.062 C-70.272 176.047 -72.001 170.67 -73.133 164.125 C-75.383 143.063 -70.571 120.19 -64.625 100.062 C-63.625 99.062 -63.625 99.062 -61.777 98.965 C-59.727 98.997 -57.676 99.03 -55.625 99.062 C-55.761 99.699 -55.897 100.336 -56.036 100.992 C-58.522 112.757 -60.858 124.513 -62.438 136.438 C-62.561 137.344 -62.685 138.25 -62.812 139.184 C-63.861 147.543 -64.349 155.951 -62.625 164.25 C-62.439 165.172 -62.254 166.093 -62.062 167.043 C-61.846 168.043 -61.846 168.043 -61.625 169.062 C-52.34 167.168 -47.548 161.664 -42.256 154.005 C-38.593 148.386 -35.66 142.41 -32.75 136.375 C-32.286 135.413 -31.821 134.452 -31.343 133.461 C-28.526 127.453 -26.331 121.476 -24.625 115.062 C-25.65 114.687 -26.675 114.312 -27.73 113.926 C-29.091 113.41 -30.452 112.893 -31.812 112.375 C-32.823 112.009 -32.823 112.009 -33.854 111.635 C-38.421 109.875 -41.416 107.9 -44.625 104.062 C-46.475 98.514 -46.424 93.121 -44 87.75 C-41.361 83.036 -37.7 80.754 -32.625 79.062 C-25.469 78.17 -20.073 80.13 -13.625 83.062 C-13.522 82.486 -13.419 81.909 -13.313 81.315 C-12.365 76.058 -11.389 70.806 -10.384 65.559 C-9.764 62.314 -9.151 59.068 -8.538 55.821 C-8.222 54.155 -7.903 52.49 -7.581 50.825 C-3.538 32.497 -3.538 32.497 -4.625 14.062 C-9.493 13.454 -12.567 14.463 -16.504 17.172 C-27.052 26.574 -33.143 41.804 -39.625 54.062 C-44.5 49.438 -44.5 49.438 -45.625 46.062 C-44.979 44.2 -44.979 44.2 -43.887 42.105 C-43.282 40.941 -43.282 40.941 -42.666 39.753 C-42.219 38.927 -41.773 38.101 -41.312 37.25 C-40.858 36.401 -40.404 35.551 -39.936 34.676 C-35.744 26.999 -31.014 19.943 -25.625 13.062 C-24.935 12.177 -24.246 11.291 -23.535 10.379 C-17.485 3.082 -9.878 -3.528 0 0 Z M-32.625 32.062 C-33.285 34.042 -33.945 36.023 -34.625 38.062 C-33.635 37.072 -32.645 36.082 -31.625 35.062 C-31.955 34.072 -32.285 33.083 -32.625 32.062 Z M-35.625 38.062 C-34.625 40.062 -34.625 40.062 -34.625 40.062 Z M-36.625 40.062 C-35.625 42.062 -35.625 42.062 -35.625 42.062 Z M-37.625 42.062 C-37.955 42.722 -38.285 43.382 -38.625 44.062 C-37.965 44.062 -37.305 44.062 -36.625 44.062 C-36.955 43.403 -37.285 42.743 -37.625 42.062 Z M-42.625 88.062 C-44.806 92.735 -44.684 96.058 -43.625 101.062 C-43.295 101.722 -42.965 102.382 -42.625 103.062 C-39.345 102.497 -37.652 101.734 -35.625 99.062 C-33.36 94.056 -33.41 89.44 -33.625 84.062 C-31.315 84.062 -29.005 84.062 -26.625 84.062 C-24.357 88.598 -25.413 94.046 -26.75 98.75 C-28.383 103.309 -30.683 105.347 -34.625 108.062 C-31.939 109.853 -29.962 110.723 -26.938 111.688 C-26.129 111.948 -25.321 112.208 -24.488 112.477 C-23.566 112.767 -23.566 112.767 -22.625 113.062 C-20.201 107.746 -18.466 102.447 -16.938 96.812 C-16.713 96.011 -16.488 95.209 -16.256 94.383 C-15.363 91.138 -14.625 88.449 -14.625 85.062 C-25.243 80.097 -34.375 78.106 -42.625 88.062 Z M-66.625 121.062 C-67.107 123.562 -67.586 126.062 -68.062 128.562 C-68.197 129.259 -68.332 129.955 -68.471 130.672 C-71.165 144.866 -73.312 160.689 -66.625 174.062 C-65.635 173.567 -65.635 173.567 -64.625 173.062 C-65.099 172.031 -65.574 171 -66.062 169.938 C-70.444 159.561 -68.705 148.033 -67.125 137.188 C-66.841 135.191 -66.559 133.193 -66.281 131.195 C-66.156 130.328 -66.03 129.461 -65.9 128.567 C-65.623 126.044 -65.577 123.599 -65.625 121.062 C-65.955 121.062 -66.285 121.062 -66.625 121.062 Z " fill="#000000" transform="translate(127.625,39.9375)"/>
<path d="M0 0 C3.192 2.684 4.736 6.154 6.562 9.812 C9.793 16.129 13.507 21.822 17.85 27.431 C20.314 30.686 21 31.756 21 36 C20.274 36.196 19.548 36.393 18.8 36.595 C15.49 37.494 12.183 38.403 8.875 39.312 C7.162 39.776 7.162 39.776 5.414 40.248 C-0.061 41.76 -4.996 43.334 -10 46 C-10.99 46 -11.98 46 -13 46 C-12.451 38.288 -10.01 31.36 -7.562 24.062 C-5.011 16.408 -2.666 8.895 -1 1 C-0.67 0.67 -0.34 0.34 0 0 Z M1 6 C-1.447 13.296 -3.831 20.612 -6.188 27.938 C-6.74 29.64 -6.74 29.64 -7.303 31.377 C-7.65 32.458 -7.998 33.539 -8.355 34.652 C-8.672 35.632 -8.988 36.612 -9.313 37.621 C-10.092 39.908 -10.092 39.908 -10 42 C-6.518 41.339 -3.117 40.529 0.301 39.59 C1.277 39.322 2.254 39.055 3.26 38.779 C4.771 38.363 4.771 38.363 6.312 37.938 C7.339 37.656 8.366 37.374 9.424 37.084 C11.95 36.391 14.475 35.696 17 35 C17 30.301 15.421 28.147 12.875 24.438 C8.894 18.463 5.317 12.373 2 6 C1.67 6 1.34 6 1 6 Z " fill="#000000" transform="translate(227,57)"/>
<path d="M0 0 C-0.193 0.557 -0.387 1.114 -0.586 1.688 C-6.592 19.29 -6.206 35.625 -5 54 C-9.71 51.41 -10.89 47.23 -12.812 42.5 C-18.302 29.674 -25.372 19.976 -35 10 C-34 8 -34 8 -31.763 7.146 C-30.794 6.87 -29.826 6.593 -28.828 6.309 C-27.771 6.004 -26.714 5.699 -25.625 5.385 C-23.954 4.916 -23.954 4.916 -22.25 4.438 C-21.152 4.121 -20.053 3.805 -18.922 3.479 C-6.137 -0.175 -6.137 -0.175 0 0 Z M-18.625 5.875 C-19.592 6.144 -20.559 6.414 -21.555 6.691 C-22.478 6.956 -23.401 7.22 -24.352 7.492 C-25.195 7.733 -26.039 7.974 -26.909 8.222 C-29.179 8.901 -29.179 8.901 -31 11 C-30.031 11.866 -29.061 12.733 -28.062 13.625 C-19.635 22.069 -14.001 33.292 -9 44 C-7.961 40.882 -7.98 38.401 -8.065 35.147 C-8.353 23.987 -6.799 13.815 -4 3 C-9.217 3 -13.64 4.434 -18.625 5.875 Z " fill="#000000" transform="translate(215,69)"/>
<path d="M0 0 C0.66 0 1.32 0 2 0 C6 6.75 6 6.75 6 9 C3 8 3 8 1.312 5.625 C0 3 0 3 0 0 Z " fill="#000000" transform="translate(159,73)"/>
<path d="M0 0 C0.66 0.66 1.32 1.32 2 2 C1.049 3.173 0.089 4.338 -0.875 5.5 C-1.409 6.15 -1.942 6.799 -2.492 7.469 C-2.99 7.974 -3.487 8.479 -4 9 C-4.66 9 -5.32 9 -6 9 C-4.473 5.564 -2.401 2.881 0 0 Z " fill="#000000" transform="translate(276,91)"/>
<path d="M0 0 C4.875 3.625 4.875 3.625 6 7 C5.441 9.262 5.441 9.262 4.562 11.688 C4.275 12.496 3.988 13.304 3.691 14.137 C3.463 14.752 3.235 15.366 3 16 C0.69 15.67 -1.62 15.34 -4 15 C-5.348 11.34 -4.634 9.334 -3.125 5.812 C-2.756 4.932 -2.388 4.052 -2.008 3.145 C-1 1 -1 1 0 0 Z " fill="#000000" transform="translate(76,104)"/>
<path d="M0 0 C5.273 0.445 10.018 1.084 15 3 C14.368 8.053 12.865 12.296 11 17 C9.208 16.691 7.416 16.378 5.625 16.062 C4.627 15.888 3.63 15.714 2.602 15.535 C0 15 0 15 -2 14 C-1.858 12.416 -1.711 10.833 -1.562 9.25 C-1.481 8.368 -1.4 7.487 -1.316 6.578 C-1.038 4.306 -0.612 2.201 0 0 Z M2 2 C1.34 5.3 0.68 8.6 0 12 C3.508 13.604 6.144 14.22 10 14 C10.99 11.03 11.98 8.06 13 5 C9.37 4.01 5.74 3.02 2 2 Z " fill="#000000" transform="translate(228,104)"/>
<path d="M0 0 C2.562 1.625 2.562 1.625 4 3 C-0.75 2.125 -0.75 2.125 -3 1 C-4.704 0.774 -6.413 0.591 -8.125 0.438 C-9.035 0.354 -9.945 0.27 -10.883 0.184 C-11.581 0.123 -12.28 0.062 -13 0 C-8.39 -2.797 -4.899 -1.645 0 0 Z " fill="#000000" transform="translate(49,110)"/>
<path d="M0 0 C0.66 0.33 1.32 0.66 2 1 C1.716 2.439 1.423 3.876 1.125 5.312 C0.963 6.113 0.8 6.914 0.633 7.738 C0 10 0 10 -2 13 C-2.66 13 -3.32 13 -4 13 C-4.492 5.738 -4.492 5.738 -2 2 C-1.34 1.34 -0.68 0.68 0 0 Z " fill="#000000" transform="translate(90,126)"/>
<path d="M0 0 C3.322 0.237 6.643 0.475 9.965 0.719 C12.624 0.91 15.279 1.071 17.941 1.219 C19.178 1.291 20.414 1.363 21.688 1.438 C22.826 1.498 23.964 1.559 25.137 1.621 C28 2 28 2 31 4 C26.77 3.693 22.541 3.378 18.312 3.062 C17.114 2.975 15.916 2.888 14.682 2.799 C13.525 2.712 12.368 2.625 11.176 2.535 C10.113 2.457 9.05 2.378 7.954 2.297 C5.246 2.025 2.656 1.586 0 1 C0 0.67 0 0.34 0 0 Z " fill="#000000" transform="translate(46,134)"/>
<path d="M0 0 C5.259 -0.262 8.922 0.436 13.77 2.457 C14.715 2.845 14.715 2.845 15.68 3.242 C17.729 4.087 19.771 4.949 21.812 5.812 C23.235 6.404 24.658 6.994 26.082 7.583 C29.696 9.084 33.303 10.599 36.909 12.12 C39.548 13.231 42.189 14.334 44.831 15.437 C70.601 26.201 70.601 26.201 72 29 C72.699 36.958 71.376 44.16 69.312 51.812 C68.946 53.308 68.946 53.308 68.572 54.834 C66.84 61.426 65.079 66.563 58.955 70.222 C54.521 71.39 50.604 70.58 46.121 69.875 C45.154 69.732 44.187 69.59 43.191 69.443 C33.408 67.973 23.658 66.297 13.926 64.521 C11.013 63.991 8.097 63.476 5.182 62.961 C3.299 62.621 1.417 62.28 -0.465 61.938 C-1.322 61.787 -2.179 61.637 -3.063 61.483 C-8.061 60.555 -12.558 59.532 -17 57 C-18.261 54.116 -18.151 52.609 -17.398 49.578 C-17.061 48.739 -16.723 47.9 -16.375 47.035 C-16.001 46.08 -15.628 45.126 -15.242 44.142 C-14.832 43.126 -14.422 42.11 -14 41.062 C-9.769 30.221 -6.099 19.29 -2.676 8.171 C-1.824 5.434 -0.921 2.715 0 0 Z M2 7 C4.468 9.891 6.943 10.968 10.473 12.297 C11.537 12.698 12.601 13.099 13.697 13.512 C14.808 13.92 15.918 14.329 17.062 14.75 C18.177 15.174 19.291 15.598 20.439 16.035 C24.68 17.639 24.68 17.639 29 19 C29.66 18.67 30.32 18.34 31 18 C24.938 15.194 18.781 12.685 12.562 10.25 C11.757 9.932 10.951 9.614 10.122 9.287 C9.361 8.991 8.6 8.695 7.816 8.391 C7.13 8.123 6.444 7.855 5.737 7.579 C3.989 6.895 3.989 6.895 2 7 Z M66 28 C66 30.97 66 33.94 66 37 C68.09 32.821 68.166 32.196 67 28 C66.67 28 66.34 28 66 28 Z M41 29 C42.68 32.361 46.452 32.938 49.812 34.188 C50.9 34.616 50.9 34.616 52.01 35.053 C52.714 35.318 53.419 35.583 54.145 35.855 C54.788 36.099 55.431 36.343 56.093 36.594 C58.364 37.077 59.814 36.71 62 36 C58.877 34.828 55.751 33.663 52.625 32.5 C51.736 32.166 50.846 31.832 49.93 31.488 C49.079 31.172 48.228 30.857 47.352 30.531 C46.566 30.238 45.781 29.945 44.971 29.643 C43.029 28.897 43.029 28.897 41 29 Z M38 33 C39.409 35.818 40.971 35.904 43.91 36.945 C44.9 37.3 45.889 37.654 46.908 38.02 C48.47 38.567 48.47 38.567 50.062 39.125 C51.107 39.498 52.152 39.87 53.229 40.254 C55.817 41.176 58.407 42.091 61 43 C61.33 42.34 61.66 41.68 62 41 C58.377 39.661 54.751 38.33 51.125 37 C49.576 36.428 49.576 36.428 47.996 35.844 C47.01 35.483 46.024 35.122 45.008 34.75 C44.097 34.415 43.185 34.08 42.247 33.734 C40.077 32.896 40.077 32.896 38 33 Z M37 38 C40.17 41.17 44.279 42.161 48.438 43.688 C49.31 44.021 50.182 44.354 51.08 44.697 C52.338 45.162 52.338 45.162 53.621 45.637 C54.389 45.922 55.156 46.208 55.947 46.503 C58.178 47.235 58.178 47.235 61 46 C57.566 44.659 54.127 43.328 50.688 42 C49.223 41.428 49.223 41.428 47.729 40.844 C46.791 40.483 45.853 40.122 44.887 39.75 C44.023 39.415 43.159 39.08 42.268 38.734 C39.922 37.846 39.922 37.846 37 38 Z M37 42 C37 42.66 37 43.32 37 44 C39.931 45.203 42.871 46.385 45.812 47.562 C46.646 47.905 47.479 48.247 48.338 48.6 C49.14 48.919 49.943 49.238 50.77 49.566 C51.877 50.014 51.877 50.014 53.007 50.471 C55.183 51.244 55.183 51.244 58 50 C51.076 47.036 44.182 44.274 37 42 Z " fill="#000000" transform="translate(210,142)"/>
<path d="M0 0 C0.66 0.33 1.32 0.66 2 1 C2.607 7.672 0.951 13.998 -2 20 C-4.141 21.355 -4.141 21.355 -6 22 C-5.503 15.657 -4.615 4.615 0 0 Z " fill="#000000" transform="translate(284,184)"/>
<path d="M0 0 C1.808 0.177 1.808 0.177 4.197 0.605 C5.088 0.762 5.979 0.919 6.897 1.081 C8.352 1.346 8.352 1.346 9.836 1.617 C10.826 1.794 11.817 1.97 12.837 2.152 C14.937 2.528 17.037 2.907 19.137 3.288 C22.353 3.871 25.571 4.446 28.789 5.02 C30.826 5.385 32.862 5.751 34.898 6.117 C36.347 6.377 36.347 6.377 37.825 6.641 C38.722 6.805 39.62 6.968 40.544 7.136 C41.334 7.279 42.124 7.422 42.938 7.569 C45 8 45 8 48 9 C48 12.3 48 15.6 48 19 C49.65 19 51.3 19 53 19 C54.875 20.062 54.875 20.062 56 22 C55.724 25.798 54.92 29.322 54 33 C53.835 34.155 53.67 35.31 53.5 36.5 C53 40 53 40 52.438 42 C51.857 44.23 51.857 44.23 52.188 47.5 C52 51 52 51 50.375 53.438 C47.395 55.398 45.499 55.12 42 55 C41.951 55.692 41.902 56.384 41.852 57.098 C40.231 78.308 40.231 78.308 38 85 C37.735 87.833 37.556 90.665 37.379 93.504 C37 96 37 96 35 98 C29.776 97.579 24.751 96.295 19.688 95 C18.615 94.733 18.615 94.733 17.521 94.461 C12.268 93.134 12.268 93.134 10 92 C10 95.63 10 99.26 10 103 C9.34 103 8.68 103 8 103 C6.783 100.566 6.68 98.582 6.438 95.875 C6.312 94.51 6.312 94.51 6.184 93.117 C6.123 92.419 6.062 91.72 6 91 C4.735 90.654 4.735 90.654 3.445 90.301 C2.35 89.975 1.254 89.649 0.125 89.312 C-0.966 88.999 -2.056 88.686 -3.18 88.363 C-6 87 -6 87 -7.383 84.355 C-7.586 83.578 -7.79 82.801 -8 82 C-9.609 82.031 -9.609 82.031 -11.25 82.062 C-15 82 -15 82 -19 81 C-18.67 88.26 -18.34 95.52 -18 103 C-18.99 103 -19.98 103 -21 103 C-21.609 76.726 -22.084 49.169 -10 25 C-10.058 22.728 -10.145 20.457 -10.25 18.188 C-10.315 10.307 -10.315 10.307 -7.75 7.625 C-5 6 -5 6 -1 6 C-1.021 5.196 -1.041 4.391 -1.062 3.562 C-1 1 -1 1 0 0 Z M-6.758 9.07 C-8.648 12.007 -8.097 14.432 -7.875 17.875 C-7.64 24.567 -8.951 29.311 -11.629 35.5 C-16.811 48.729 -19.26 64.856 -19 79 C-16.716 80.142 -15.223 80.131 -12.688 80.25 C-7.837 80.735 -6.366 82.47 -3 86 C6.767 91.388 20.887 95.183 32 96 C35.262 94.297 35.262 94.297 35.812 91.062 C36.32 87.826 36.32 87.826 34 85 C31.176 84.035 28.449 83.24 25.562 82.52 C24.727 82.302 23.891 82.084 23.03 81.86 C20.356 81.167 17.678 80.49 15 79.812 C13.195 79.345 11.39 78.877 9.586 78.408 C1.876 76.061 1.876 76.061 -6 75 C-5.67 73.02 -5.34 71.04 -5 69 C-5.99 69 -6.98 69 -8 69 C-7 67 -7 67 -4.961 66.289 C-4.108 66.07 -3.254 65.851 -2.375 65.625 C1.015 64.691 3.708 63.708 6.625 61.75 C10.103 59.947 10.656 59.83 14.25 60.438 C17.832 61.361 17.832 61.361 20.062 59.875 C21.392 57.217 20.904 55.783 20 53 C19.34 52.01 18.68 51.02 18 50 C19.65 50.33 21.3 50.66 23 51 C23.854 47.694 23.854 47.694 24 44 C22.208 41.538 22.208 41.538 20 40 C21.65 39.67 23.3 39.34 25 39 C25.334 36.126 25.334 36.126 25 33 C23.119 31.087 23.119 31.087 21 30 C22.32 29.67 23.64 29.34 25 29 C25.854 25.694 25.854 25.694 26 22 C23.829 19.054 22.478 18.159 19 17 C11.043 16.474 4.246 16.522 -3 20 C-3.33 19.34 -3.66 18.68 -4 18 C-2.02 17.34 -0.04 16.68 2 16 C2.307 12.37 2.307 12.37 0.75 9.188 C-1.864 7.414 -4.065 7.43 -6.758 9.07 Z M47 20 C45.195 21.655 45.195 21.655 44 24 C44.222 26.698 44.222 26.698 45 29 C47.914 30.264 47.914 30.264 50.625 29.375 C53.261 28.207 53.261 28.207 53.812 25.375 C53.874 24.591 53.936 23.808 54 23 C50.746 20.741 50.746 20.741 47 20 Z M44 32 C42.381 34.572 41.956 35.677 42.375 38.75 C42.581 39.493 42.787 40.235 43 41 C46.432 40.736 46.432 40.736 50 40 C52.334 37.219 52.334 37.219 51.625 34.312 C51.419 33.549 51.212 32.786 51 32 C48.69 32 46.38 32 44 32 Z M41.125 45.25 C39.934 48.161 39.839 49.15 41 52 C44.013 52.921 45.427 53.279 48.312 51.875 C50.228 50.095 50.228 50.095 50.375 47.438 C50.219 44.825 50.219 44.825 48 43 C44.444 42.362 43.485 42.418 41.125 45.25 Z M38 56 C37.67 58.31 37.34 60.62 37 63 C37.66 63 38.32 63 39 63 C39 60.69 39 58.38 39 56 C38.67 56 38.34 56 38 56 Z M37 66 C35.494 71.808 34.782 76.998 35 83 C35.33 83 35.66 83 36 83 C36.338 81.105 36.671 79.209 37 77.312 C37.186 76.257 37.371 75.201 37.562 74.113 C37.951 71.351 38.083 68.783 38 66 C37.67 66 37.34 66 37 66 Z " fill="#000000" transform="translate(205,204)"/>
<path d="M0 0 C2.899 0.468 3.867 0.867 6 3 C6.23 5.094 6.23 5.094 6.188 7.5 C6.181 8.294 6.175 9.088 6.168 9.906 C6 12 6 12 5 14 C6.32 14.33 7.64 14.66 9 15 C10.007 20.035 9.974 23.239 8 28 C9.32 28.66 10.64 29.32 12 30 C12.621 35.092 11.388 37.517 8.375 41.395 C6.683 43.37 4.872 45.195 3 47 C1.659 49.682 1.785 51.884 1.684 54.883 C1.642 56.049 1.6 57.216 1.557 58.418 C1.517 59.641 1.478 60.865 1.438 62.125 C1.394 63.356 1.351 64.587 1.307 65.855 C1.2 68.904 1.098 71.952 1 75 C0.34 74.67 -0.32 74.34 -1 74 C-1.309 71.707 -1.309 71.707 -1.438 68.812 C-1.884 62.858 -3.294 59.12 -7.062 54.438 C-9.931 50.829 -11.115 48.46 -10.75 43.812 C-10 41 -10 41 -8 39 C-6 39.125 -6 39.125 -4 40 C-2.75 42.062 -2.75 42.062 -2 44 C-1.34 44 -0.68 44 0 44 C-1.202 39.326 -3.448 37.671 -7.344 35.211 C-9 34 -9 34 -11 31 C-11.327 25.655 -11.327 25.655 -10 23 C-8.02 23 -6.04 23 -4 23 C-6.172 20.264 -8.332 17.653 -10.75 15.125 C-13.416 11.422 -13.446 9.462 -13 5 C-10.75 4.312 -10.75 4.312 -8 4 C-5.688 5.438 -5.688 5.438 -4 7 C-3.526 6.031 -3.051 5.061 -2.562 4.062 C-1 1 -1 1 0 0 Z M0 3 C-2.484 8.551 -1.853 13.165 -1 19 C-0.34 19 0.32 19 1 19 C3.257 13.64 4.363 9.802 4 4 C2.68 3.67 1.36 3.34 0 3 Z M-10 6 C-10.886 7.69 -10.886 7.69 -11 10 C-8.519 14.668 -8.519 14.668 -4 17 C-4.531 12.49 -6.309 9.616 -9 6 C-9.33 6 -9.66 6 -10 6 Z M5 17 C1.744 20.256 1.25 23.494 1 28 C1.66 28.66 2.32 29.32 3 30 C6.305 27.596 6.838 24.615 7.766 20.84 C8.185 18.907 8.185 18.907 7 17 C6.34 17 5.68 17 5 17 Z M-8 25 C-8.95 27.24 -8.95 27.24 -9 30 C-6.392 33.205 -3.837 35.437 0 37 C-0.506 32.65 -1.3 29.5 -4 26 C-6.085 25.122 -6.085 25.122 -8 25 Z M3.75 33.062 C1.626 36.628 1.68 38.919 2 43 C7.227 39.252 7.227 39.252 9.938 33.625 C9.958 32.759 9.979 31.892 10 31 C5.983 30.55 5.983 30.55 3.75 33.062 Z M-8 42 C-8.455 47.682 -7.666 50.6 -4 55 C-3.01 55.33 -2.02 55.66 -1 56 C-0.501 49.882 -1.751 46.975 -5 42 C-5.99 42 -6.98 42 -8 42 Z " fill="#000000" transform="translate(161,213)"/>
<path d="M0 0 C0.66 0 1.32 0 2 0 C2.251 0.558 2.501 1.115 2.759 1.69 C8.278 13.873 14.168 25.158 22 36 C22.869 37.215 23.737 38.429 24.605 39.645 C25.881 41.427 27.158 43.209 28.437 44.989 C31.082 48.682 33.679 52.4 36.188 56.188 C36.759 57.047 37.33 57.907 37.918 58.793 C39 61 39 61 38 64 C37.699 63.544 37.399 63.088 37.089 62.617 C35.645 60.431 34.198 58.246 32.75 56.062 C32.211 55.249 31.672 54.436 31.116 53.598 C27.933 48.824 24.678 44.118 21.32 39.465 C0 9.895 0 9.895 0 0 Z " fill="#000000" transform="translate(90,223)"/>
<path d="M0 0 C3.592 1.433 4.923 3.006 6.797 6.352 C7.28 7.202 7.764 8.053 8.262 8.93 C8.753 9.819 9.244 10.709 9.75 11.625 C10.257 12.522 10.763 13.419 11.285 14.344 C12.533 16.557 13.771 18.776 15 21 C14.01 21 13.02 21 12 21 C10.558 19.18 10.558 19.18 9.082 16.66 C8.55 15.762 8.019 14.864 7.471 13.939 C6.923 12.99 6.376 12.041 5.812 11.062 C5.254 10.117 4.695 9.171 4.119 8.197 C0 1.181 0 1.181 0 0 Z " fill="#000000" transform="translate(117,223)"/>
<path d="M0 0 C4.571 0.549 8.674 1.417 13 3 C12.67 3.66 12.34 4.32 12 5 C8.04 3.68 4.08 2.36 0 1 C0 0.67 0 0.34 0 0 Z " fill="#000000" transform="translate(277,245)"/>
<path d="M0 0 C3.926 1.309 5.435 3.8 7.812 7 C8.474 7.874 8.474 7.874 9.148 8.766 C12.616 13.39 15.899 18.122 19 23 C15.587 21.571 13.831 19.887 11.582 16.973 C10.968 16.181 10.354 15.388 9.721 14.572 C9.091 13.744 8.461 12.916 7.812 12.062 C7.171 11.238 6.53 10.414 5.869 9.564 C1.138 3.415 1.138 3.415 0 0 Z " fill="#000000" transform="translate(92,264)"/>
<path d="M0 0 C2.375 0.75 2.375 0.75 3.375 1.75 C4.001 7.938 2.322 11.686 -0.562 16.938 C-1.304 18.325 -2.043 19.714 -2.777 21.105 C-3.107 21.71 -3.437 22.315 -3.777 22.938 C-4.673 24.853 -5.178 26.689 -5.625 28.75 C-5.178 28.389 -4.73 28.028 -4.27 27.656 C0.73 23.819 0.73 23.819 4.312 23.438 C4.993 23.541 5.674 23.644 6.375 23.75 C6.87 25.235 6.87 25.235 7.375 26.75 C5.688 29.688 5.688 29.688 3.375 32.75 C2.889 33.478 2.403 34.207 1.902 34.957 C-2.224 37.885 -6.495 36.909 -11.375 36.5 C-12.85 36.401 -12.85 36.401 -14.355 36.301 C-16.781 36.136 -19.203 35.952 -21.625 35.75 C-23.446 30.675 -25.011 25.913 -25.438 20.5 C-25.526 19.525 -25.615 18.551 -25.707 17.547 C-25.618 14.517 -24.912 12.474 -23.625 9.75 C-20.425 10.009 -19.024 10.294 -16.875 12.75 C-15.225 16.71 -14.894 20.496 -14.625 24.75 C-14.31 23.665 -13.996 22.579 -13.672 21.461 C-13.24 20.015 -12.808 18.57 -12.375 17.125 C-12.17 16.412 -11.965 15.699 -11.754 14.965 C-10.075 9.419 -6.862 -0.654 0 0 Z " fill="#000000" transform="translate(278.625,269.25)"/>
<path d="M0 0 C4.967 1.259 9.934 2.523 14.899 3.79 C16.589 4.221 18.28 4.651 19.971 5.079 C22.397 5.694 24.822 6.313 27.246 6.934 C28.387 7.221 28.387 7.221 29.55 7.515 C34.886 8.886 34.886 8.886 36 10 C36.041 11.666 36.043 13.334 36 15 C29.22 15.511 23.388 13.639 16.938 11.688 C15.875 11.379 14.812 11.07 13.717 10.752 C8.545 9.218 3.707 7.651 -1 5 C-0.67 3.35 -0.34 1.7 0 0 Z " fill="#000000" transform="translate(202,282)"/>
</svg>
