<?xml version="1.0" encoding="UTF-8"?>
<!-- Generator: visioncortex VTracer 0.6.0 -->
<svg version="1.1" xmlns="http://www.w3.org/2000/svg" width="847" height="847">
<path d="M0 0 C-0.349 3.255 -1.021 4.019 -3.562 6.25 C-4.367 6.828 -5.171 7.405 -6 8 C-6.99 7.34 -7.98 6.68 -9 6 C-6.974 1.324 -5.297 0 0 0 Z " fill="#000000" transform="translate(515,116)"/>
<path d="M0 0 C1.32 0.66 2.64 1.32 4 2 C3.639 4.762 3.193 5.823 1.109 7.738 C0.331 8.258 -0.448 8.777 -1.25 9.312 C-2.018 9.845 -2.787 10.377 -3.578 10.926 C-6.513 12.228 -7.978 11.916 -11 11 C-9.522 7.329 -7.524 5.589 -4.375 3.25 C-3.558 2.636 -2.74 2.023 -1.898 1.391 C-0.959 0.702 -0.959 0.702 0 0 Z " fill="#000000" transform="translate(496,126)"/>
<path d="M0 0 C1 1 1 1 1.098 4.379 C1.091 5.773 1.079 7.168 1.062 8.562 C1.058 9.273 1.053 9.984 1.049 10.717 C1.037 12.478 1.019 14.239 1 16 C5.247 13.362 9.332 10.642 13.094 7.34 C13.617 6.882 14.141 6.424 14.681 5.953 C16.199 4.607 17.702 3.243 19.203 1.879 C22 0 22 0 24.797 0.09 C27 1 27 1 28 3 C27.105 5.487 26.141 7.843 25.062 10.25 C24.791 10.887 24.52 11.524 24.24 12.18 C19.117 23.795 12.19 34.571 5.146 45.097 C3.992 46.824 2.851 48.559 1.711 50.295 C-10.102 68.12 -10.102 68.12 -16.5 70.062 C-17.325 70.042 -18.15 70.021 -19 70 C-22 66.375 -22 66.375 -22 63 C-22.66 63 -23.32 63 -24 63 C-24.241 63.556 -24.482 64.111 -24.73 64.684 C-26.276 67.504 -28.164 69.669 -30.312 72.062 C-31.072 72.92 -31.831 73.777 -32.613 74.66 C-35.614 77.602 -38.345 79.669 -42.5 80.5 C-46.071 79.786 -47.544 77.587 -50 75 C-50.652 75.857 -51.305 76.714 -51.977 77.598 C-54.228 80.549 -56.496 83.488 -58.774 86.419 C-59.75 87.678 -60.718 88.943 -61.684 90.211 C-65.997 95.612 -71.392 100.319 -78.312 101.625 C-81.668 100.845 -82.912 99.707 -85 97 C-87.737 88.789 -86.08 79.225 -84 71 C-89.764 75.839 -95.069 81.037 -100.289 86.449 C-103.039 89.037 -105.749 91.083 -109 93 C-111.3 92.814 -112.375 92.625 -114 91 C-114.237 84.475 -114.237 84.475 -113 82 C-113.961 82.342 -113.961 82.342 -114.941 82.691 C-120.421 84.512 -124.372 85.557 -130 84 C-132.031 79.939 -131.617 75.024 -130.316 70.758 C-129.319 68.432 -128.207 66.224 -127 64 C-126.599 63.242 -126.198 62.484 -125.785 61.703 C-119.136 49.909 -108.145 33.229 -96 27 C-92.947 26.746 -90.656 26.778 -87.75 27.762 C-83.752 28.108 -81.235 26.154 -78 24.062 C-70.585 19.317 -70.585 19.317 -66 20 C-65 21 -65 21 -64.812 24.5 C-64.855 29.166 -65.833 33.5 -67 38 C-63.55 35.812 -60.543 33.611 -57.562 30.812 C-54.199 27.874 -51.566 26.912 -47 27 C-44.585 28.665 -43.656 30.516 -42 33 C-41.557 32.552 -41.114 32.104 -40.658 31.642 C-38.608 29.571 -36.554 27.504 -34.5 25.438 C-33.456 24.381 -33.456 24.381 -32.391 23.303 C-27.763 18.654 -22.998 14.247 -18 10 C-17.432 9.516 -16.865 9.032 -16.28 8.534 C-14.735 7.224 -13.18 5.924 -11.625 4.625 C-11.106 4.188 -10.586 3.751 -10.051 3.301 C-4.397 -1.418 -4.397 -1.418 0 0 Z M-9.102 10.941 C-10.351 12.239 -10.351 12.239 -11.625 13.562 C-14.643 16.645 -17.648 19.645 -20.938 22.438 C-24.329 25.328 -27.446 28.445 -30.562 31.625 C-38.283 39.411 -38.283 39.411 -43 42 C-46.438 41.812 -46.438 41.812 -49 41 C-49.99 38.03 -49.99 38.03 -51 35 C-54.27 36.514 -57.078 38.398 -60 40.5 C-66.291 45.026 -66.291 45.026 -69 46 C-70.65 45.67 -72.3 45.34 -74 45 C-74 40.05 -74 35.1 -74 30 C-77.384 31.353 -79.57 32.283 -82.438 34.188 C-86.418 36.212 -87.81 36.238 -92 35 C-92.99 34.67 -93.98 34.34 -95 34 C-95.33 34.99 -95.66 35.98 -96 37 C-96.66 37 -97.32 37 -98 37 C-107.525 45.942 -124.532 64.467 -125.125 77.812 C-125.084 78.534 -125.043 79.256 -125 80 C-119.473 79.273 -114.3 77.666 -109 76 C-107.586 78.639 -106.628 81.071 -106 84 C-102.359 80.459 -98.848 76.876 -95.562 73 C-86.676 62.778 -86.676 62.778 -80.562 61 C-79.717 61 -78.871 61 -78 61 C-77.67 61.33 -77.34 61.66 -77 62 C-77.065 64.024 -77.204 66.045 -77.375 68.062 C-77.474 69.246 -77.574 70.429 -77.676 71.648 C-77.92 74.176 -78.206 76.675 -78.562 79.188 C-79.093 83.813 -79.086 88.351 -79 93 C-74.169 93 -73.448 92.224 -70 89 C-68.107 86.845 -66.361 84.595 -64.625 82.312 C-63.905 81.386 -63.905 81.386 -63.171 80.44 C-61.048 77.702 -58.959 74.944 -56.906 72.152 C-56.318 71.36 -55.731 70.567 -55.125 69.75 C-54.633 69.064 -54.14 68.378 -53.633 67.672 C-51.566 65.556 -49.857 64.734 -47 64 C-43.393 66.404 -43.145 67.947 -42 72 C-41.01 72 -40.02 72 -39 72 C-37.061 69.812 -35.306 67.648 -33.562 65.312 C-32.606 64.059 -31.649 62.805 -30.691 61.551 C-29.064 59.414 -27.466 57.266 -25.887 55.094 C-23.227 52.143 -20.851 52.222 -17 52 C-16.34 54.31 -15.68 56.62 -15 59 C-6.199 50.565 -0.058 39.638 6.5 29.438 C7.124 28.473 7.748 27.509 8.39 26.516 C9.264 25.145 9.264 25.145 10.156 23.746 C10.68 22.928 11.204 22.11 11.744 21.267 C12.921 19.143 13.551 17.373 14 15 C11.993 15.992 10.002 16.999 8.035 18.07 C1.329 21.656 1.329 21.656 -3 21 C-4.74 19.26 -4.372 16.806 -4.562 14.438 C-4.646 13.426 -4.73 12.414 -4.816 11.371 C-4.877 10.589 -4.938 9.806 -5 9 C-7.232 8.774 -7.232 8.774 -9.102 10.941 Z " fill="#000000" transform="translate(632,128)"/>
<path d="M0 0 C8.2 8.854 13.981 20.644 14.812 32.75 C14.881 33.605 14.949 34.459 15.02 35.34 C15.812 55.319 6.928 73.667 -6.387 88.141 C-15.167 96.674 -27.103 103.426 -39.188 105.75 C-40.095 105.925 -41.002 106.101 -41.938 106.281 C-52.39 107.727 -62.834 105.335 -71.688 99.562 C-79.85 93.22 -85.58 85.051 -87.188 74.75 C-89.02 48.827 -80.955 28.438 -64.188 8.75 C-48.448 -8.375 -18.995 -17.281 0 0 Z M-65.453 15.848 C-69.46 20.101 -72.387 24.646 -75.188 29.75 C-75.573 30.367 -75.958 30.985 -76.355 31.621 C-83.723 44.296 -85.294 62.088 -82.492 76.27 C-79.924 84.847 -75.546 91.555 -68.188 96.75 C-66.904 92.9 -67.769 91.368 -69.062 87.562 C-70.688 82.489 -71.845 78.058 -72.188 72.75 C-72.239 71.969 -72.291 71.188 -72.344 70.383 C-73.124 48.462 -64.043 29.345 -49.898 13.125 C-45.473 8.496 -40.699 4.772 -35.352 1.258 C-33.391 -0.108 -31.808 -1.504 -30.188 -3.25 C-43.845 -3.25 -56.059 6.761 -65.453 15.848 Z M-43.5 15.625 C-54.735 27.451 -63.444 42.545 -66.188 58.75 C-66.34 59.576 -66.492 60.403 -66.648 61.254 C-68.223 72.153 -65.469 82.77 -61.188 92.75 C-60.913 93.465 -60.638 94.181 -60.355 94.918 C-59.182 97.516 -57.95 99.374 -55.355 100.652 C-46.769 103.019 -37.253 101.944 -29.34 97.98 C-11.943 88.035 1.09 73.2 6.79 53.756 C10.112 41.005 10.452 27.913 4.812 15.75 C1.052 9.86 -4.055 3.342 -10.188 -0.25 C-23.816 -0.25 -33.935 6.436 -43.5 15.625 Z " fill="#000000" transform="translate(295.1875,137.25)"/>
<path d="M0 0 C-2.528 2.799 -4.204 4.458 -8 5 C-8 3.68 -8 2.36 -8 1 C-4.933 -0.862 -3.403 -1.215 0 0 Z " fill="#000000" transform="translate(535,130)"/>
<path d="M0 0 C0.516 0.248 1.031 0.495 1.562 0.75 C1.562 2.07 1.562 3.39 1.562 4.75 C0.321 5.452 -0.931 6.136 -2.188 6.812 C-3.232 7.387 -3.232 7.387 -4.297 7.973 C-6.799 8.881 -7.971 8.633 -10.438 7.75 C-10.375 6 -10.375 6 -9.438 3.75 C-6.514 1.403 -3.804 -0.39 0 0 Z " fill="#000000" transform="translate(519.4375,135.25)"/>
<path d="M0 0 C0.99 0.33 1.98 0.66 3 1 C3 3.97 3 6.94 3 10 C3.99 9.67 4.98 9.34 6 9 C7.642 8.857 9.29 8.78 10.938 8.75 C12.219 8.711 12.219 8.711 13.527 8.672 C16.461 9.061 17.807 10.066 20 12 C19.67 13.32 19.34 14.64 19 16 C18.359 15.893 17.719 15.786 17.059 15.676 C10.997 14.836 7.314 14.855 2 18 C-1.702 21.332 -1.606 25.267 -2 30 C-0.989 30.268 0.021 30.536 1.062 30.812 C6.033 32.261 10.498 33.723 14.5 37.125 C16.665 41.274 16.264 44.564 15 49 C12.754 52.64 10.8 54.224 7 56 C7.023 56.626 7.046 57.253 7.07 57.898 C7.097 59.124 7.097 59.124 7.125 60.375 C7.148 61.187 7.171 61.999 7.195 62.836 C7 65 7 65 5 67 C2.238 64.238 2.421 61.793 2 58 C1.397 57.83 0.793 57.66 0.172 57.484 C-8.365 54.896 -8.365 54.896 -11 51 C-11.25 48.25 -11.25 48.25 -11 46 C-9.312 45.188 -9.312 45.188 -7 45 C-6.237 45.804 -5.474 46.609 -4.688 47.438 C-2.176 50.318 -2.176 50.318 1.562 50.562 C5.01 50.251 5.01 50.251 7.438 48.312 C9.281 45.584 9.133 44.213 9 41 C8.108 40.758 7.216 40.515 6.297 40.266 C5.126 39.93 3.956 39.595 2.75 39.25 C1.59 38.925 0.43 38.6 -0.766 38.266 C-4.135 36.947 -5.761 35.804 -8 33 C-9.816 27.324 -8.397 23.505 -6.203 18.234 C-5.013 16.025 -3.944 14.576 -2 13 C-1.34 13 -0.68 13 0 13 C-0.084 12.229 -0.168 11.458 -0.254 10.664 C-0.356 9.661 -0.458 8.658 -0.562 7.625 C-0.667 6.627 -0.771 5.63 -0.879 4.602 C-1 2 -1 2 0 0 Z " fill="#000000" transform="translate(262,163)"/>
<path d="M0 0 C1.98 0.495 1.98 0.495 4 1 C4.299 2.775 4.299 2.775 4.604 4.587 C9.189 31.678 14.21 58.661 19.674 85.588 C20.117 87.775 20.559 89.963 21.001 92.151 C23.522 104.632 26.046 117.108 28.987 129.498 C29.151 130.187 29.314 130.876 29.482 131.586 C30.262 134.864 31.053 138.137 31.861 141.407 C33.227 147.059 34.419 152.177 34 158 C33.01 158 32.02 158 31 158 C28.596 152.021 26.987 146.152 25.652 139.855 C25.44 138.874 25.227 137.892 25.008 136.881 C24.311 133.651 23.623 130.42 22.938 127.188 C22.698 126.068 22.459 124.948 22.212 123.794 C16.824 98.591 11.809 73.319 7 48 C6.798 46.94 6.596 45.879 6.388 44.787 C5.197 38.524 4.018 32.26 2.856 25.991 C2.497 24.056 2.135 22.12 1.77 20.185 C1.272 17.532 0.785 14.878 0.301 12.223 C0.152 11.443 0.004 10.663 -0.149 9.86 C-0.799 6.223 -1.056 3.533 0 0 Z " fill="#000000" transform="translate(369,177)"/>
<path d="M0 0 C3 1 3 1 3.945 2.565 C4.217 3.249 4.489 3.932 4.77 4.637 C5.093 5.426 5.417 6.214 5.751 7.027 C6.101 7.905 6.451 8.783 6.812 9.688 C10.547 18.713 14.532 27.6 18.688 36.438 C19.132 37.384 19.132 37.384 19.585 38.349 C20.803 40.942 22.022 43.534 23.242 46.126 C25.364 50.635 27.464 55.153 29.555 59.676 C30.723 62.201 31.893 64.726 33.062 67.25 C33.348 67.866 33.633 68.482 33.927 69.117 C37.102 75.963 40.348 82.762 43.77 89.488 C44.075 90.089 44.38 90.691 44.694 91.31 C46.144 94.162 47.607 97.007 49.09 99.843 C49.604 100.845 50.119 101.847 50.648 102.879 C51.104 103.751 51.559 104.623 52.029 105.522 C53.078 108.199 53.192 110.151 53 113 C51.254 112.945 51.254 112.945 49 112 C47.448 109.633 46.186 107.398 44.938 104.875 C44.55 104.116 44.162 103.356 43.762 102.574 C42.488 100.059 41.24 97.532 40 95 C39.594 94.172 39.188 93.343 38.77 92.49 C36.015 86.839 33.32 81.161 30.64 75.475 C29.152 72.323 27.659 69.173 26.164 66.024 C-1.552 7.63 -1.552 7.63 -1 1 C-0.67 0.67 -0.34 0.34 0 0 Z " fill="#000000" transform="translate(327,225)"/>
<path d="M0 0 C0.99 0.66 1.98 1.32 3 2 C3.519 4.657 3.519 4.657 3.724 8.07 C3.807 9.345 3.89 10.62 3.975 11.933 C4.052 13.33 4.128 14.728 4.203 16.125 C4.29 17.552 4.378 18.98 4.466 20.407 C4.65 23.399 4.824 26.392 4.99 29.385 C5.204 33.226 5.435 37.066 5.673 40.906 C5.854 43.853 6.03 46.801 6.203 49.748 C6.286 51.165 6.371 52.581 6.457 53.997 C6.575 55.974 6.685 57.952 6.794 59.93 C6.858 61.056 6.922 62.183 6.989 63.343 C7 66 7 66 6 68 C4.68 67.67 3.36 67.34 2 67 C1.476 59.559 0.954 52.117 0.435 44.676 C0.195 41.22 -0.047 37.764 -0.291 34.308 C-0.572 30.329 -0.848 26.35 -1.125 22.371 C-1.212 21.139 -1.3 19.906 -1.39 18.636 C-2.26 6.032 -2.26 6.032 -2 2 C-1.34 1.34 -0.68 0.68 0 0 Z " fill="#000000" transform="translate(419,262)"/>
<path d="M0 0 C1.32 0.33 2.64 0.66 4 1 C3.743 2.579 3.743 2.579 3.481 4.19 C2.836 8.158 2.191 12.126 1.546 16.094 C1.269 17.8 0.992 19.505 0.714 21.211 C0.445 22.868 0.176 24.525 -0.093 26.183 C-0.358 27.814 -0.625 29.445 -0.893 31.076 C-1.49 34.725 -2.062 38.371 -2.536 42.038 C-2.77 43.792 -2.77 43.792 -3.008 45.582 C-3.13 46.591 -3.253 47.6 -3.379 48.64 C-4 51 -4 51 -7 53 C-9 51 -9 51 -9.015 49.042 C-8.904 48.242 -8.794 47.442 -8.68 46.617 C-8.558 45.708 -8.437 44.799 -8.312 43.863 C-8.168 42.877 -8.024 41.891 -7.875 40.875 C-7.734 39.863 -7.593 38.85 -7.448 37.807 C-6.983 34.535 -6.496 31.267 -6 28 C-5.831 26.887 -5.663 25.775 -5.489 24.628 C-4.985 21.354 -4.465 18.083 -3.938 14.812 C-3.776 13.792 -3.614 12.772 -3.447 11.72 C-3.288 10.767 -3.129 9.814 -2.965 8.832 C-2.827 7.994 -2.689 7.156 -2.547 6.292 C-1.99 3.957 -1.159 2.094 0 0 Z " fill="#000000" transform="translate(458,282)"/>
<path d="M0 0 C1.32 0.33 2.64 0.66 4 1 C3.879 1.715 3.758 2.431 3.633 3.168 C2.355 10.769 1.155 18.38 0 26 C0.944 25.584 0.944 25.584 1.906 25.16 C7.354 22.855 12.079 21.317 18 21 C18.66 21.33 19.32 21.66 20 22 C19.748 23.894 19.748 23.894 19 26 C17.266 27.005 17.266 27.005 15.035 27.703 C14.235 27.961 13.435 28.219 12.611 28.484 C11.77 28.737 10.929 28.99 10.062 29.25 C9.225 29.518 8.388 29.786 7.525 30.062 C1.382 32 1.382 32 -1 32 C-1.037 32.986 -1.075 33.972 -1.113 34.988 C-1.734 49.065 -3.345 63.012 -5 77 C-6.98 77.495 -6.98 77.495 -9 78 C-9.968 75.096 -10.052 73.919 -9.746 70.988 C-9.666 70.187 -9.586 69.386 -9.503 68.561 C-9.411 67.702 -9.318 66.843 -9.223 65.957 C-9.132 65.073 -9.042 64.19 -8.949 63.279 C-8.66 60.456 -8.361 57.635 -8.062 54.812 C-7.865 52.899 -7.667 50.986 -7.471 49.072 C-6.987 44.381 -6.496 39.69 -6 35 C-6.763 35.495 -7.526 35.99 -8.312 36.5 C-11 38 -11 38 -14 38 C-13.875 35.75 -13.875 35.75 -13 33 C-7.919 29 -7.919 29 -5 29 C-5.035 28.464 -5.07 27.928 -5.105 27.375 C-5.305 21.611 -4.671 16.212 -3.625 10.562 C-3.499 9.864 -3.373 9.166 -3.243 8.447 C-2.583 5.064 -1.938 2.907 0 0 Z " fill="#000000" transform="translate(660,292)"/>
<path d="M0 0 C3.259 3.047 4.755 6.452 5.29 10.861 C5.288 12.505 5.288 12.505 5.285 14.181 C5.291 15.447 5.297 16.713 5.302 18.017 C5.293 19.409 5.284 20.8 5.274 22.191 C5.275 23.668 5.277 25.144 5.281 26.62 C5.286 30.63 5.272 34.64 5.255 38.651 C5.24 42.888 5.241 47.125 5.24 51.362 C5.237 58.511 5.222 65.66 5.199 72.809 C5.171 81.86 5.16 90.912 5.156 99.963 C5.151 107.857 5.139 115.75 5.125 123.643 C5.121 126.118 5.118 128.593 5.115 131.068 C5.073 163.291 4.313 195.477 2.855 227.668 C2.763 229.759 2.672 231.85 2.58 233.941 C2.363 238.892 2.142 243.843 1.918 248.793 C2.143 247.814 2.143 247.814 2.374 246.815 C16.571 185.542 16.571 185.542 40.48 170.23 C44.654 168.485 48.38 167.563 52.918 167.793 C56.588 169.355 57.691 170.452 59.918 173.793 C58.951 203.282 38.72 235.892 21.379 258.824 C19.879 260.727 19.879 260.727 18.918 262.793 C19.876 263.024 20.834 263.254 21.82 263.492 C30.041 265.499 38.172 267.671 46.244 270.218 C51.502 271.874 51.502 271.874 56.918 271.793 C64.782 266.407 69.846 257.701 75.021 249.912 C87.222 231.718 102.659 217.437 124.348 212.207 C132.054 210.966 140.508 210.401 147.363 214.594 C150.72 217.183 152.576 219.32 153.543 223.48 C151.764 232.907 144.339 240.109 137.918 246.793 C137.257 247.506 136.595 248.219 135.914 248.953 C121.822 263.729 100.866 272.924 81.918 279.793 C81.258 279.793 80.598 279.793 79.918 279.793 C79.918 280.453 79.918 281.113 79.918 281.793 C80.905 281.9 81.893 282.007 82.91 282.117 C87.179 282.731 91.026 284.075 95.043 285.605 C95.733 285.854 96.422 286.102 97.133 286.357 C98.144 286.737 98.144 286.737 99.176 287.125 C99.775 287.349 100.375 287.573 100.993 287.804 C103.706 289.198 105.746 290.637 107.918 292.793 C108.238 295.362 108.238 295.362 107.82 298.359 C107.684 299.512 107.547 300.665 107.406 301.852 C107.245 303.153 107.084 304.453 106.918 305.793 C106.657 308.841 106.449 311.893 106.234 314.945 C106.111 316.562 105.987 318.178 105.861 319.795 C105.669 322.278 105.478 324.762 105.296 327.246 C105.116 329.688 104.926 332.129 104.734 334.57 C104.682 335.308 104.63 336.045 104.576 336.805 C104.151 342.046 103.739 346.979 99.898 350.805 C95.763 353.563 91.525 356.103 87.23 358.605 C86.264 359.172 85.297 359.738 84.3 360.321 C82.231 361.531 80.16 362.74 78.087 363.946 C74.991 365.75 71.902 367.566 68.812 369.383 C-62.999 446.578 -62.999 446.578 -105.082 449.793 C-106.093 449.874 -107.103 449.955 -108.145 450.039 C-123.315 450.629 -138.405 446.658 -152.941 442.73 C-154.056 442.429 -155.171 442.128 -156.32 441.818 C-169.351 438.242 -182.213 434.136 -195.075 430 C-198.533 428.889 -201.993 427.786 -205.452 426.681 C-211.052 424.892 -216.651 423.1 -222.249 421.304 C-229.132 419.096 -236.018 416.898 -242.906 414.703 C-252.98 411.492 -263.048 408.265 -273.114 405.03 C-278.18 403.403 -283.248 401.779 -288.315 400.157 C-295.025 398.01 -301.732 395.857 -308.438 393.699 C-312.089 392.524 -315.741 391.352 -319.395 390.184 C-335.091 385.167 -350.701 379.962 -366.203 374.371 C-366.907 374.119 -367.612 373.867 -368.337 373.608 C-387.026 366.904 -387.026 366.904 -389.082 362.793 C-389.777 354.592 -388.556 346.496 -387.22 338.42 C-386.892 336.403 -386.595 334.382 -386.299 332.359 C-385.985 330.428 -385.985 330.428 -385.664 328.457 C-385.389 326.716 -385.389 326.716 -385.109 324.94 C-383.303 319.404 -379.311 316.618 -374.309 313.996 C-373.409 313.517 -372.509 313.038 -371.583 312.544 C-370.634 312.049 -369.685 311.553 -368.707 311.043 C-366.716 309.982 -364.727 308.918 -362.738 307.852 C-361.769 307.332 -360.8 306.812 -359.801 306.277 C-356.208 304.316 -352.698 302.24 -349.207 300.105 C-343.941 296.896 -338.634 293.773 -333.27 290.73 C-332.581 290.336 -331.892 289.941 -331.182 289.534 C-326.319 286.793 -326.319 286.793 -324.082 286.793 C-324.112 286.011 -324.143 285.23 -324.174 284.425 C-324.953 263.37 -325.217 242.316 -325.264 221.248 C-325.27 219.227 -325.279 217.207 -325.29 215.186 C-325.308 211.366 -325.312 207.547 -325.312 203.727 C-325.32 202.566 -325.327 201.405 -325.334 200.208 C-325.331 199.142 -325.328 198.077 -325.325 196.978 C-325.326 196.045 -325.328 195.113 -325.329 194.151 C-325.082 191.793 -325.082 191.793 -323.082 188.793 C-320.082 189.793 -320.082 189.793 -319.082 191.793 C-318.937 193.59 -318.854 195.392 -318.799 197.194 C-318.762 198.354 -318.724 199.515 -318.686 200.71 C-318.651 201.999 -318.615 203.289 -318.578 204.617 C-318.537 205.993 -318.496 207.369 -318.454 208.745 C-318.106 220.662 -317.861 232.581 -317.617 244.5 C-317.578 246.399 -317.539 248.298 -317.499 250.197 C-317.46 252.116 -317.42 254.036 -317.381 255.955 C-317.361 256.91 -317.342 257.864 -317.321 258.848 C-317.221 263.756 -317.124 268.663 -317.032 273.571 C-316.942 278.418 -316.842 283.265 -316.737 288.111 C-316.699 289.931 -316.665 291.751 -316.633 293.571 C-317.235 309.08 -317.235 309.08 -311.582 322.668 C-300.648 330.161 -287.432 331.137 -274.582 331.043 C-273.551 331.051 -272.52 331.058 -271.457 331.066 C-261.589 331.042 -251.871 329.933 -242.082 328.793 C-243.196 296.257 -245.123 263.789 -247.233 231.305 C-247.456 227.861 -247.678 224.417 -247.9 220.973 C-248.054 218.585 -248.212 216.197 -248.371 213.809 C-248.828 206.796 -249.212 199.825 -249.082 192.793 C-250.236 192.877 -251.389 192.961 -252.578 193.047 C-269.942 194.184 -287.588 194.496 -304.707 190.98 C-305.458 190.827 -306.209 190.674 -306.983 190.517 C-311.937 189.374 -315.773 187.49 -320.082 184.793 C-320.082 183.473 -320.082 182.153 -320.082 180.793 C-318.068 181.266 -316.121 181.779 -314.172 182.477 C-289.752 191.03 -253.263 190.465 -229.238 180.855 C-223.949 178.504 -223.949 178.504 -221.02 173.855 C-220.819 170.795 -220.819 170.795 -222.457 168.605 C-229.858 163.495 -238.949 162.645 -247.727 162.59 C-248.819 162.581 -248.819 162.581 -249.933 162.573 C-251.473 162.563 -253.014 162.557 -254.554 162.553 C-256.85 162.543 -259.144 162.512 -261.439 162.48 C-277.327 162.366 -295.763 163.843 -309.289 172.953 C-312.082 174.793 -312.082 174.793 -315.082 174.793 C-313.265 170.168 -309.911 167.798 -305.637 165.449 C-292.231 159.665 -277.628 157.154 -263.082 156.793 C-261.903 156.754 -261.903 156.754 -260.699 156.715 C-228.287 155.736 -228.287 155.736 -216.082 165.793 C-215.422 166.783 -214.762 167.773 -214.082 168.793 C-213.752 146.353 -213.422 123.913 -213.082 100.793 C-212.422 100.463 -211.762 100.133 -211.082 99.793 C-210.422 100.123 -209.762 100.453 -209.082 100.793 C-207.752 104.784 -207.731 108.709 -207.554 112.877 C-207.513 113.808 -207.472 114.738 -207.429 115.696 C-206.941 127.274 -206.717 138.856 -206.523 150.441 C-206.502 151.664 -206.481 152.887 -206.46 154.147 C-205.922 186.168 -205.964 218.19 -206.01 250.215 C-206.022 258.38 -206.027 266.546 -206.032 274.711 C-206.042 291.405 -206.059 308.099 -206.082 324.793 C-208.974 325.619 -210.969 325.793 -214.082 325.793 C-216.155 326.815 -218.193 327.91 -220.207 329.043 C-228.468 333.413 -236.925 335.239 -246.082 336.793 C-246.75 336.91 -247.417 337.027 -248.105 337.148 C-269.501 340.769 -296.631 341.422 -315.555 329.195 C-320.231 325.47 -322.721 321.687 -324.082 315.793 C-324.42 311.616 -324.367 307.48 -324.27 303.293 C-324.256 302.184 -324.242 301.076 -324.229 299.934 C-324.193 297.22 -324.144 294.507 -324.082 291.793 C-336.182 298.231 -348.128 304.892 -359.895 311.918 C-361.54 312.895 -361.54 312.895 -363.219 313.891 C-364.232 314.501 -365.245 315.11 -366.289 315.738 C-367.191 316.28 -368.093 316.821 -369.023 317.379 C-371.203 318.632 -371.203 318.632 -372.082 320.793 C-370.923 320.752 -369.763 320.712 -368.568 320.67 C-364.271 320.674 -360.402 321.536 -356.301 322.762 C-355.602 322.961 -354.903 323.161 -354.183 323.367 C-351.98 323.999 -349.781 324.646 -347.582 325.293 C-346.077 325.728 -344.572 326.161 -343.066 326.594 C-339.402 327.649 -335.741 328.717 -332.082 329.793 C-331.752 328.473 -331.422 327.153 -331.082 325.793 C-327.332 324.668 -327.332 324.668 -325.082 325.793 C-325.082 327.773 -325.082 329.753 -325.082 331.793 C-324.251 332.032 -324.251 332.032 -323.404 332.275 C-286.737 342.809 -250.086 353.393 -213.582 364.48 C-212.344 364.856 -211.107 365.232 -209.832 365.619 C-208.491 366.026 -207.15 366.433 -205.809 366.84 C-205.106 367.053 -204.403 367.267 -203.678 367.486 C-198.807 368.965 -193.936 370.446 -189.065 371.928 C-183.073 373.751 -177.078 375.567 -171.081 377.378 C-167.709 378.397 -164.337 379.418 -160.968 380.446 C-128.149 391.826 -128.149 391.826 -95.47 385.449 C-92.866 384.029 -90.283 382.577 -87.707 381.105 C-85.972 380.118 -84.236 379.135 -82.496 378.156 C-81.743 377.726 -80.99 377.296 -80.213 376.853 C-78.165 375.834 -76.316 375.249 -74.082 374.793 C-74.082 375.453 -74.082 376.113 -74.082 376.793 C-71.772 375.803 -69.462 374.813 -67.082 373.793 C-67.412 373.463 -67.742 373.133 -68.082 372.793 C-68.521 368.623 -67.623 366.456 -65.27 363.043 C-64.747 362.264 -64.225 361.486 -63.688 360.684 C-62.082 358.793 -62.082 358.793 -59.082 357.793 C-58.065 360.448 -57.952 361.485 -59.078 364.152 C-59.554 364.941 -60.029 365.73 -60.52 366.543 C-60.993 367.342 -61.466 368.141 -61.953 368.965 C-62.326 369.568 -62.698 370.171 -63.082 370.793 C-59.805 370.142 -57.33 368.917 -54.457 367.23 C-50.3 364.793 -50.3 364.793 -48.082 364.793 C-48.041 364.207 -48 363.621 -47.958 363.017 C-46.609 359.592 -44.276 358.887 -41.059 357.203 C-40.423 356.866 -39.787 356.53 -39.132 356.183 C-36.997 355.059 -34.853 353.957 -32.707 352.855 C-31.189 352.065 -29.671 351.275 -28.154 350.484 C-3.494 337.692 21.5 325.472 46.793 313.98 C47.968 313.441 49.144 312.902 50.355 312.346 C51.425 311.869 52.495 311.391 53.598 310.898 C54.513 310.487 55.428 310.076 56.371 309.653 C59.047 308.749 61.114 308.623 63.918 308.793 C61.164 312.023 57.579 313.834 53.918 315.855 C50.521 317.753 47.159 319.632 43.918 321.793 C44.654 321.432 45.39 321.071 46.148 320.699 C47.124 320.235 48.1 319.771 49.105 319.293 C50.068 318.829 51.031 318.365 52.023 317.887 C54.907 316.797 56.872 316.57 59.918 316.793 C60.309 315.907 60.309 315.907 60.707 315.004 C65.164 306.866 75.437 301.89 83.934 299.141 C86.449 298.7 88.864 298.623 91.418 298.605 C92.356 298.591 93.295 298.577 94.262 298.562 C96.978 298.798 98.597 299.408 100.918 300.793 C100.918 298.813 100.918 296.833 100.918 294.793 C73.027 283.811 43.865 276.257 14.967 268.441 C14.272 268.253 13.577 268.065 12.861 267.871 C12.265 267.71 11.67 267.549 11.056 267.384 C8.004 266.541 4.962 265.663 1.918 264.793 C1.588 278.323 1.258 291.853 0.918 305.793 C-2.052 307.278 -2.052 307.278 -5.082 308.793 C-6.453 310.429 -7.788 312.096 -9.082 313.793 C-21.807 324.011 -36.253 326.35 -52.082 324.793 C-61.772 323.361 -70.701 319.784 -79.082 314.793 C-80.037 314.253 -80.992 313.713 -81.977 313.156 C-85.852 310.6 -88.494 308.447 -90.074 304 C-90.559 300.816 -90.82 297.682 -90.957 294.465 C-91.107 291.267 -91.346 288.079 -91.586 284.887 C-92.514 272.269 -93.275 259.643 -93.74 247 C-93.873 243.714 -94.036 240.931 -95.082 237.793 C-94.645 235.605 -94.645 235.605 -94.082 233.793 C-96.062 233.463 -98.042 233.133 -100.082 232.793 C-99.923 233.651 -99.764 234.509 -99.601 235.393 C-99.097 238.693 -98.887 241.852 -98.785 245.187 C-98.745 246.436 -98.705 247.686 -98.664 248.973 C-98.625 250.327 -98.586 251.681 -98.547 253.035 C-98.504 254.446 -98.46 255.856 -98.417 257.266 C-98.326 260.223 -98.238 263.181 -98.152 266.138 C-98.043 269.88 -97.929 273.623 -97.813 277.365 C-97.722 280.282 -97.634 283.199 -97.547 286.117 C-97.506 287.493 -97.464 288.87 -97.422 290.247 C-97.12 300.099 -97.035 309.937 -97.082 319.793 C-98.237 320.185 -99.392 320.577 -100.582 320.98 C-103.574 322.089 -106.032 323.348 -108.645 325.168 C-120.876 333.193 -135.427 334.058 -149.582 334.105 C-150.318 334.108 -151.054 334.111 -151.813 334.113 C-164.607 334.118 -176.626 332.832 -189.082 329.793 C-189.896 329.601 -190.71 329.409 -191.549 329.211 C-196.08 328.139 -200.587 327.004 -205.082 325.793 C-204.752 324.803 -204.422 323.813 -204.082 322.793 C-198.496 322.47 -193.496 323.427 -188.03 324.546 C-175.193 327.096 -163.126 328.136 -150.07 327.949 C-148.506 327.937 -146.942 327.925 -145.378 327.915 C-141.612 327.888 -137.847 327.845 -134.082 327.793 C-134.164 311.73 -134.27 295.668 -134.395 279.605 C-134.404 278.399 -134.413 277.193 -134.423 275.95 C-134.738 236.021 -135.608 196.139 -137.066 156.236 C-137.166 153.497 -137.265 150.758 -137.365 148.019 C-137.428 146.286 -137.492 144.554 -137.555 142.821 C-138.007 130.475 -138.28 118.149 -138.082 105.793 C-138.855 105.809 -139.627 105.824 -140.423 105.841 C-154.43 106.086 -168.27 106.11 -182.207 104.48 C-183.739 104.304 -183.739 104.304 -185.302 104.124 C-194.25 102.976 -203.414 101.786 -211.082 96.793 C-210.752 95.473 -210.422 94.153 -210.082 92.793 C-209.182 93.059 -208.283 93.324 -207.355 93.598 C-181.378 100.891 -145.214 104.359 -120.207 92.668 C-117.107 90.98 -117.107 90.98 -115.082 88.793 C-115.017 86.282 -115.017 86.282 -116.082 83.793 C-128.232 73.541 -153.622 77.69 -168.082 78.793 C-178.811 79.848 -189.089 81.723 -199.332 85.121 C-202.103 85.798 -203.449 85.78 -206.082 84.793 C-203.58 81.039 -201.155 80.526 -197.02 79.355 C-196.277 79.144 -195.535 78.932 -194.77 78.714 C-170.105 72.038 -137.054 66.032 -113.082 77.793 C-110.1 79.94 -108.443 81.233 -107.605 84.855 C-107.359 86.827 -107.214 88.811 -107.082 90.793 C-106.752 91.123 -106.422 91.453 -106.082 91.793 C-105.915 93.4 -105.815 95.013 -105.741 96.626 C-105.69 97.674 -105.64 98.721 -105.588 99.8 C-105.512 101.541 -105.512 101.541 -105.434 103.316 C-105.376 104.533 -105.319 105.749 -105.261 107.002 C-105.104 110.356 -104.952 113.71 -104.802 117.064 C-104.643 120.579 -104.48 124.094 -104.317 127.609 C-104.007 134.335 -103.701 141.061 -103.398 147.787 C-103.151 153.28 -102.901 158.774 -102.65 164.268 C-102.263 172.742 -101.878 181.216 -101.495 189.691 C-101.428 191.178 -101.361 192.665 -101.293 194.152 C-101.071 199.055 -100.852 203.959 -100.633 208.863 C-100.577 210.103 -100.521 211.343 -100.463 212.621 C-100.412 213.76 -100.362 214.9 -100.31 216.075 C-100.243 217.558 -100.243 217.558 -100.176 219.072 C-100.087 221.648 -100.065 224.215 -100.082 226.793 C-97.772 227.123 -95.462 227.453 -93.082 227.793 C-93.248 221.258 -93.416 214.724 -93.593 208.19 C-93.642 206.339 -93.692 204.488 -93.742 202.637 C-93.769 201.65 -93.795 200.664 -93.823 199.647 C-93.977 193.896 -94.123 188.146 -94.261 182.395 C-94.463 174.006 -94.673 165.618 -94.895 157.23 C-94.914 156.496 -94.933 155.761 -94.953 155.004 C-95.783 123.746 -97.21 92.522 -98.761 61.293 C-98.849 59.515 -98.937 57.737 -99.024 55.96 C-99.187 52.664 -99.354 49.368 -99.523 46.072 C-99.831 40.002 -100.134 33.929 -100.257 27.851 C-100.273 27.1 -100.289 26.349 -100.306 25.576 C-100.082 23.793 -100.082 23.793 -98.082 21.793 C-97.915 19.209 -97.915 19.209 -98.082 16.793 C-95.769 17.688 -93.487 18.588 -91.273 19.711 C-84.179 23.211 -76.825 24.482 -69.082 25.793 C-68.316 25.927 -67.551 26.061 -66.762 26.199 C-47.928 29.036 -22.655 26.355 -6.789 15.258 C-4.834 13.714 -4.834 13.714 -3.082 10.793 C-2.934 8.275 -2.934 8.275 -4.082 5.793 C-13.08 -2.948 -28.96 -1.589 -40.537 -1.49 C-57.885 -1.16 -73.734 1.795 -88.516 11.29 C-92.603 13.848 -92.603 13.848 -95.477 13.52 C-96.006 13.28 -96.536 13.04 -97.082 12.793 C-88.987 0.94 -74.133 -2.865 -60.863 -5.957 C-41.955 -9.327 -16.869 -10.365 0 0 Z M-96.082 23.793 C-96.278 39.298 -95.76 54.698 -94.914 70.178 C-94.555 76.781 -94.217 83.385 -93.879 89.988 C-93.845 90.656 -93.81 91.324 -93.775 92.012 C-91.767 131.057 -90.567 170.121 -89.925 209.212 C-89.58 230.147 -89.229 251.069 -88.145 271.98 C-88.088 273.112 -88.088 273.112 -88.031 274.266 C-87.783 279.114 -87.465 283.953 -87.082 288.793 C-87.029 289.517 -86.975 290.24 -86.92 290.986 C-86.749 293.171 -86.544 295.35 -86.328 297.531 C-86.21 298.807 -86.092 300.082 -85.97 301.396 C-84.654 306.431 -81.768 308.711 -77.496 311.453 C-62.18 319.154 -45.325 322.745 -28.332 318.957 C-23.326 317.471 -23.326 317.471 -20.082 313.793 C-20.055 312.363 -20.097 310.931 -20.172 309.503 C-20.216 308.573 -20.26 307.642 -20.305 306.684 C-20.358 305.633 -20.411 304.582 -20.465 303.5 C-20.998 291.374 -21.292 279.252 -21.512 267.117 C-21.529 266.165 -21.547 265.213 -21.565 264.232 C-21.658 259.136 -21.75 254.041 -21.841 248.945 C-22.587 207.21 -23.493 165.478 -24.496 123.748 C-24.611 118.958 -24.725 114.168 -24.839 109.379 C-24.993 102.859 -25.151 96.34 -25.309 89.821 C-25.367 87.435 -25.425 85.048 -25.482 82.661 C-25.879 66.033 -26.429 49.414 -27.082 32.793 C-30.152 31.77 -31.49 31.796 -34.625 32.168 C-35.526 32.267 -36.427 32.366 -37.355 32.468 C-38.798 32.629 -38.798 32.629 -40.27 32.793 C-59.903 34.756 -78.288 32.736 -96.082 23.793 Z M35.418 179.23 C19.333 194.418 14.321 215.137 8.918 235.793 C8.655 236.795 8.393 237.797 8.122 238.83 C7.399 241.607 6.686 244.386 5.98 247.168 C5.769 248 5.557 248.831 5.34 249.688 C4.57 252.792 3.918 255.582 3.918 258.793 C7.2 258.091 7.2 258.091 8.391 254.863 C8.928 253.551 9.458 252.236 9.98 250.918 C14.029 241.215 18.898 232.022 23.918 222.793 C24.351 221.995 24.784 221.196 25.229 220.374 C39.221 194.642 39.221 194.642 42.918 192.793 C38.153 202.59 33.109 212.215 27.918 221.793 C22.726 231.374 17.704 241.004 12.918 250.793 C12.073 252.363 12.073 252.363 11.211 253.965 C9.641 256.881 9.641 256.881 9.918 260.793 C11.568 261.123 13.218 261.453 14.918 261.793 C29.128 241.578 43.068 220.801 51.48 197.418 C51.745 196.686 52.009 195.953 52.281 195.198 C52.891 193.417 53.413 191.607 53.918 189.793 C53.423 188.803 53.423 188.803 52.918 187.793 C51.598 188.783 50.278 189.773 48.918 190.793 C49.265 187.087 50.487 184.8 52.543 181.793 C54.672 178.618 54.672 178.618 54.73 174.793 C54.462 174.133 54.194 173.473 53.918 172.793 C47.039 170.13 40.57 174.979 35.418 179.23 Z M104.918 224.793 C108.359 226.514 112.167 224.742 115.793 223.918 C126.165 221.678 136.331 221.018 146.918 220.793 C146.918 220.133 146.918 219.473 146.918 218.793 C134.105 211.96 116.089 216.415 104.918 224.793 Z M86.418 243.418 C82.48 247.976 78.895 252.76 75.336 257.617 C72.181 261.76 68.81 265.696 65.372 269.605 C62.739 272.304 62.739 272.304 61.918 275.793 C65.038 275.151 67.444 274.079 70.199 272.492 C71.031 272.016 71.863 271.539 72.72 271.049 C73.61 270.531 74.501 270.014 75.418 269.48 C76.812 268.676 76.812 268.676 78.233 267.856 C95.244 258.042 95.244 258.042 111.844 247.559 C113.016 246.783 113.016 246.783 114.212 245.992 C115.691 245.007 117.163 244.012 118.628 243.006 C120.343 241.858 122.126 240.815 123.918 239.793 C124.908 240.123 125.898 240.453 126.918 240.793 C112.108 252.713 95.416 261.741 78.612 270.517 C77.151 271.29 77.151 271.29 75.66 272.078 C74.792 272.531 73.925 272.983 73.031 273.449 C70.642 274.768 70.642 274.768 68.918 277.793 C76.06 279.854 80.846 277.068 87.293 273.918 C88.353 273.414 89.413 272.91 90.505 272.391 C93.655 270.882 96.789 269.344 99.918 267.793 C100.775 267.371 101.632 266.948 102.515 266.513 C120.917 257.364 138.791 245.251 148.918 226.793 C148.918 226.133 148.918 225.473 148.918 224.793 C125.811 224.206 103.17 225.304 86.418 243.418 Z M-379.082 324.793 C-379.275 325.893 -379.469 326.992 -379.668 328.125 C-379.793 328.836 -379.919 329.547 -380.048 330.279 C-380.322 331.839 -380.596 333.399 -380.868 334.959 C-381.621 339.248 -382.423 343.522 -383.27 347.793 C-384.147 352.527 -384.24 356.985 -384.082 361.793 C-377.969 364.825 -372.313 366.597 -365.582 367.617 C-363.726 367.922 -361.871 368.227 -360.015 368.532 C-359.048 368.686 -358.081 368.84 -357.085 368.999 C-340.279 371.693 -323.581 374.768 -306.957 378.418 C-306.143 378.594 -305.328 378.77 -304.489 378.951 C-294.314 381.155 -284.35 383.786 -274.408 386.882 C-273.61 387.13 -272.811 387.378 -271.989 387.634 C-271.281 387.858 -270.574 388.081 -269.845 388.312 C-268.065 388.881 -268.065 388.881 -266.082 388.793 C-266.082 389.453 -266.082 390.113 -266.082 390.793 C-282.689 387.756 -299.168 384.294 -315.63 380.561 C-329.711 377.016 -329.711 377.016 -344.082 375.793 C-341.444 377.552 -339.605 378.4 -336.65 379.358 C-335.747 379.654 -334.843 379.95 -333.912 380.254 C-332.926 380.571 -331.941 380.888 -330.926 381.215 C-329.893 381.551 -328.861 381.887 -327.797 382.234 C-324.393 383.341 -320.988 384.442 -317.582 385.543 C-315.204 386.315 -312.826 387.088 -310.448 387.861 C-305.617 389.431 -300.786 390.998 -295.954 392.564 C-289.908 394.524 -283.865 396.493 -277.824 398.469 C-267.249 401.926 -256.667 405.365 -246.082 408.793 C-245.081 409.117 -244.081 409.441 -243.05 409.775 C-217.317 418.108 -191.579 426.371 -165.566 433.794 C-163.22 434.467 -160.877 435.151 -158.537 435.847 C-150.593 438.188 -142.66 440.027 -134.52 441.543 C-133.385 441.763 -132.249 441.984 -131.08 442.211 C-124.134 443.581 -124.134 443.581 -117.082 443.793 C-115.501 442.212 -115.636 440.404 -115.32 438.219 C-115.174 437.251 -115.027 436.283 -114.876 435.285 C-114.717 434.236 -114.558 433.187 -114.395 432.105 C-112.498 420.062 -109.554 408.469 -106.082 396.793 C-108.722 397.123 -111.362 397.453 -114.082 397.793 C-115.402 402.083 -116.722 406.373 -118.082 410.793 C-118.742 410.793 -119.402 410.793 -120.082 410.793 C-119.896 409.844 -119.711 408.895 -119.52 407.918 C-118.795 404.894 -118.795 404.894 -120.082 402.793 C-119.801 400.785 -119.471 398.783 -119.082 396.793 C-119.741 396.631 -120.399 396.468 -121.078 396.301 C-138.427 391.993 -155.465 387.011 -172.494 381.576 C-179.503 379.339 -186.523 377.137 -193.543 374.938 C-194.249 374.716 -194.954 374.495 -195.682 374.267 C-243.863 359.177 -292.687 345.981 -341.582 333.418 C-342.488 333.184 -343.394 332.951 -344.327 332.71 C-346.859 332.059 -349.392 331.413 -351.926 330.77 C-352.655 330.582 -353.385 330.394 -354.137 330.201 C-358.447 329.116 -362.681 328.347 -367.082 327.793 C-367.082 329.443 -367.082 331.093 -367.082 332.793 C-370.893 330.252 -370.893 330.252 -371.957 327.668 C-372.328 327.049 -372.7 326.43 -373.082 325.793 C-375.07 325.393 -377.072 325.056 -379.082 324.793 Z M97.918 328.793 C97.433 329.688 96.949 330.582 96.449 331.504 C92.213 339.19 87.69 346.13 81.918 352.793 C86.014 352.793 88.687 350.822 92.105 348.793 C94.354 347.473 96.602 346.153 98.918 344.793 C98.918 339.513 98.918 334.233 98.918 328.793 C98.588 328.793 98.258 328.793 97.918 328.793 Z M21.918 330.793 C19.887 331.727 17.883 332.725 15.918 333.793 C16.908 334.123 17.898 334.453 18.918 334.793 C21.595 333.42 21.595 333.42 23.918 331.793 C23.258 331.463 22.598 331.133 21.918 330.793 Z M26.293 333.293 C25.29 333.757 24.287 334.221 23.254 334.699 C22.483 335.06 21.712 335.421 20.918 335.793 C21.908 337.278 21.908 337.278 22.918 338.793 C23.578 338.793 24.238 338.793 24.918 338.793 C24.918 339.453 24.918 340.113 24.918 340.793 C28.58 339.572 29.081 338.425 31.105 335.23 C31.9 333.991 31.9 333.991 32.711 332.727 C33.109 332.088 33.508 331.45 33.918 330.793 C30.999 330.793 28.928 332.068 26.293 333.293 Z M-7.983 344.506 C-8.68 344.888 -9.376 345.27 -10.094 345.664 C-11.23 346.278 -11.23 346.278 -12.389 346.904 C-13.567 347.561 -13.567 347.561 -14.77 348.23 C-15.567 348.664 -16.364 349.098 -17.186 349.545 C-19.156 350.619 -21.121 351.702 -23.082 352.793 C-22.443 353.061 -21.803 353.329 -21.145 353.605 C-19.082 354.793 -19.082 354.793 -18.082 357.793 C-13.05 353.495 -8.055 349.159 -3.082 344.793 C-5.91 343.501 -5.91 343.501 -7.983 344.506 Z M21.918 383.793 C21.423 385.773 21.423 385.773 20.918 387.793 C22.568 387.463 24.218 387.133 25.918 386.793 C25.258 385.803 24.598 384.813 23.918 383.793 C23.258 383.793 22.598 383.793 21.918 383.793 Z M-95.082 390.793 C-96.072 391.783 -97.062 392.773 -98.082 393.793 C-97.752 394.783 -97.422 395.773 -97.082 396.793 C-96.092 395.473 -95.102 394.153 -94.082 392.793 C-94.412 392.133 -94.742 391.473 -95.082 390.793 Z M-10.082 392.793 C-11.43 394.346 -12.736 395.936 -14.02 397.543 C-14.73 398.425 -15.44 399.306 -16.172 400.215 C-18.103 402.644 -18.103 402.644 -19.148 405.059 C-20.082 406.793 -20.082 406.793 -23.082 407.793 C-22.092 408.288 -22.092 408.288 -21.082 408.793 C-19.302 408.181 -19.302 408.181 -17.387 407.141 C-16.671 406.776 -15.956 406.412 -15.219 406.037 C-14.472 405.647 -13.726 405.257 -12.957 404.855 C-11.826 404.276 -11.826 404.276 -10.672 403.686 C-8.805 402.728 -6.943 401.762 -5.082 400.793 C-5.389 400.179 -5.696 399.566 -6.012 398.934 C-7.035 396.887 -8.059 394.84 -9.082 392.793 C-9.412 392.793 -9.742 392.793 -10.082 392.793 Z M2.918 395.793 C3.918 397.793 3.918 397.793 3.918 397.793 Z M-102.082 396.793 C-101.082 398.793 -101.082 398.793 -101.082 398.793 Z M-103.082 398.793 C-102.082 401.793 -102.082 401.793 -102.082 401.793 Z M-104.082 402.793 C-103.082 405.793 -103.082 405.793 -103.082 405.793 Z M-105.082 405.793 C-104.082 409.793 -104.082 409.793 -104.082 409.793 Z M-38.082 405.793 C-43.032 412.723 -43.032 412.723 -48.082 419.793 C-47.092 420.288 -47.092 420.288 -46.082 420.793 C-43.839 419.896 -41.634 418.902 -39.457 417.855 C-38.269 417.29 -37.08 416.724 -35.855 416.141 C-34.94 415.696 -34.025 415.251 -33.082 414.793 C-34.4 411.143 -35.674 409.003 -38.082 405.793 Z M-27.082 408.793 C-27.412 409.453 -27.742 410.113 -28.082 410.793 C-26.432 410.463 -24.782 410.133 -23.082 409.793 C-24.402 409.463 -25.722 409.133 -27.082 408.793 Z M-106.082 409.793 C-107.071 413.77 -108.046 417.75 -109.02 421.73 C-109.297 422.847 -109.575 423.964 -109.861 425.115 C-111.38 431.354 -112.546 437.393 -113.082 443.793 C-112.092 443.793 -111.102 443.793 -110.082 443.793 C-109.972 442.8 -109.863 441.808 -109.75 440.785 C-108.806 432.596 -107.537 424.699 -105.57 416.684 C-105.09 413.84 -105.297 412.486 -106.082 409.793 Z M-68.082 413.793 C-73.294 420.763 -77.388 427.917 -81.082 435.793 C-74.877 433.857 -68.974 431.537 -63.082 428.793 C-63.53 426.478 -63.991 424.166 -64.457 421.855 C-64.712 420.568 -64.967 419.28 -65.23 417.953 C-65.511 416.91 -65.793 415.867 -66.082 414.793 C-66.742 414.463 -67.402 414.133 -68.082 413.793 Z M-98.082 415.793 C-100.506 424.779 -102.686 433.442 -103.082 442.793 C-99.617 442.298 -99.617 442.298 -96.082 441.793 C-96.238 441.005 -96.394 440.218 -96.555 439.406 C-98.006 431.282 -98.073 423.976 -97.082 415.793 C-97.412 415.793 -97.742 415.793 -98.082 415.793 Z M-56.082 422.793 C-52.082 423.793 -52.082 423.793 -52.082 423.793 Z M-89.082 435.793 C-89.082 436.783 -89.082 437.773 -89.082 438.793 C-87.102 438.133 -85.122 437.473 -83.082 436.793 C-86.029 435.635 -86.029 435.635 -89.082 435.793 Z " fill="#000000" transform="translate(585.08203125,300.20703125)"/>
<path d="M0 0 C3 1 3 1 4.651 3.993 C5.258 5.329 5.854 6.67 6.441 8.016 C6.766 8.735 7.09 9.455 7.424 10.196 C8.479 12.543 9.521 14.897 10.562 17.25 C11.642 19.656 12.725 22.06 13.808 24.464 C14.527 26.06 15.245 27.657 15.961 29.254 C18.856 35.707 21.829 42.117 24.875 48.5 C25.273 49.34 25.671 50.179 26.08 51.044 C27.589 54.2 29.053 57.079 31 60 C30.625 62.188 30.625 62.188 30 64 C26.146 60.458 23.557 56.929 21.176 52.25 C20.668 51.275 20.668 51.275 20.151 50.281 C16.225 42.647 12.697 34.831 9.188 27 C8.527 25.538 7.866 24.075 7.205 22.613 C5.46 18.747 3.72 14.878 2 11 C1.709 10.363 1.418 9.727 1.118 9.071 C-1.035 4.271 -1.035 4.271 -0.688 1.562 C-0.461 1.047 -0.234 0.531 0 0 Z " fill="#000000" transform="translate(318,298)"/>
<path d="M0 0 C5.508 2.634 8.598 6.968 12.266 11.758 C13.954 14.039 13.954 14.039 16 16 C16.398 15.229 16.797 14.458 17.207 13.664 C17.737 12.661 18.267 11.658 18.812 10.625 C19.335 9.627 19.857 8.63 20.395 7.602 C22 5 22 5 25 3 C27.71 2.661 29.315 2.594 31.688 4 C35.811 10.284 35.49 18.82 35.75 26.062 C35.79 27.169 35.83 28.275 35.872 29.414 C36.196 41.045 36.055 52.672 30 63 C29.67 63.33 29.34 63.66 29 64 C22.947 63.884 22.947 63.884 20.531 61.629 C19.331 60.104 18.164 58.553 17 57 C15.515 56.505 15.515 56.505 14 56 C13.67 57.155 13.34 58.31 13 59.5 C11.388 64.343 9.252 68.867 7 73.438 C6.656 74.148 6.312 74.858 5.957 75.59 C4.251 78.988 3.22 80.853 0 83 C-3.615 83.07 -6.036 82.773 -8.906 80.473 C-10.674 78.701 -12.344 76.877 -14 75 C-14.993 73.993 -15.991 72.991 -17 72 C-17.897 74.083 -18.792 76.166 -19.688 78.25 C-19.959 78.88 -20.231 79.511 -20.511 80.16 C-22.677 85.197 -24.729 90.273 -26.727 95.379 C-28.161 98.331 -29.772 100.593 -32 103 C-34.938 103.625 -34.938 103.625 -38 103 C-40.875 100.5 -40.875 100.5 -43 98 C-43.471 98.771 -43.941 99.542 -44.426 100.336 C-45.048 101.339 -45.671 102.342 -46.312 103.375 C-46.927 104.373 -47.542 105.37 -48.176 106.398 C-50 109 -50 109 -53 111 C-56.415 110.912 -57.661 110.35 -60.051 107.879 C-65.59 99.698 -65.268 87.645 -65.312 78.062 C-65.318 77.199 -65.323 76.336 -65.329 75.447 C-65.256 68.878 -64.975 61.962 -61.25 56.375 C-59 55 -59 55 -56 55 C-52.691 56.103 -51.219 57.355 -49 60 C-46.669 52.524 -45.369 44.851 -43.943 37.16 C-42.838 31.426 -41.733 26.188 -39 21 C-35.491 19.245 -31.712 20.051 -28 21 C-24.76 23.565 -23.304 25.087 -22 29 C-19.065 27.532 -18.896 25.579 -17.758 22.539 C-17.331 21.428 -16.904 20.317 -16.465 19.172 C-15.575 16.817 -14.69 14.46 -13.809 12.102 C-13.379 10.988 -12.95 9.874 -12.508 8.727 C-12.123 7.701 -11.737 6.676 -11.34 5.62 C-8.737 0.532 -5.587 -0.782 0 0 Z M-3 8 C-3.461 9.097 -3.461 9.097 -3.93 10.216 C-5.337 13.545 -6.762 16.866 -8.188 20.188 C-8.67 21.338 -9.153 22.488 -9.65 23.674 C-14.555 35.029 -14.555 35.029 -19 38 C-21.551 38.129 -21.551 38.129 -24 37 C-26.168 34.715 -26.168 34.715 -28.188 31.938 C-29.417 30.261 -30.679 28.606 -32 27 C-32.66 27 -33.32 27 -34 27 C-34.191 27.795 -34.382 28.589 -34.579 29.408 C-41.6 58.589 -41.6 58.589 -45 72 C-49.586 70.191 -51.022 67.099 -53.438 62.996 C-55.222 60.716 -56.179 60.347 -59 60 C-61.344 64.633 -61.308 68.807 -61.25 73.875 C-61.245 74.709 -61.239 75.543 -61.234 76.403 C-61.249 90.204 -61.249 90.204 -57 103 C-53.912 100.164 -52.045 97.46 -50.125 93.75 C-48.582 91.09 -48.582 91.09 -47 89 C-43.272 88.196 -41.576 88.808 -38 90 C-36.812 92.562 -36.812 92.562 -36 95 C-34.515 94.505 -34.515 94.505 -33 94 C-31.882 91.788 -31.882 91.788 -31.062 89.047 C-30.556 87.529 -30.556 87.529 -30.039 85.98 C-29.696 84.914 -29.353 83.848 -29 82.75 C-28.318 80.66 -27.63 78.571 -26.938 76.484 C-26.637 75.553 -26.337 74.622 -26.027 73.663 C-24.941 70.847 -23.735 68.471 -22 66 C-18.67 64.842 -16.863 64.668 -13.562 65.938 C-10.46 68.435 -8.057 71.271 -5.551 74.355 C-4.783 75.17 -4.783 75.17 -4 76 C-3.34 76 -2.68 76 -2 76 C-1.698 75.289 -1.396 74.577 -1.085 73.844 C0.298 70.616 1.711 67.402 3.125 64.188 C3.599 63.068 4.074 61.948 4.562 60.795 C5.039 59.722 5.516 58.649 6.008 57.543 C6.437 56.553 6.867 55.563 7.309 54.544 C9.444 51.331 11.424 50.343 15 49 C19.118 49.882 21.139 52.04 24 55 C24.66 55 25.32 55 26 55 C27.897 47.323 28.306 40.013 28.25 32.125 C28.258 31.011 28.265 29.897 28.273 28.75 C28.27 27.145 28.27 27.145 28.266 25.508 C28.262 24.064 28.262 24.064 28.259 22.59 C27.993 19.929 27.355 18.282 26 16 C25.709 16.566 25.417 17.132 25.117 17.715 C21.825 23.605 21.825 23.605 18.125 25.375 C12.535 24.704 9.531 20.923 6.141 16.664 C4.964 15.11 3.807 13.541 2.676 11.953 C0.896 9.879 -0.554 9.133 -3 8 Z " fill="#000000" transform="translate(267,340)"/>
<path d="M0 0 C0.66 0 1.32 0 2 0 C3.247 2.495 3.165 4.242 3.221 7.035 C3.244 8.104 3.268 9.173 3.293 10.274 C3.314 11.455 3.335 12.636 3.357 13.853 C3.383 15.097 3.41 16.341 3.437 17.622 C3.508 21.064 3.576 24.506 3.641 27.948 C3.712 31.607 3.789 35.266 3.865 38.924 C3.994 45.177 4.12 51.429 4.244 57.682 C4.436 67.419 4.635 77.156 4.835 86.892 C4.86 88.096 4.86 88.096 4.885 89.323 C4.968 93.363 5.052 97.402 5.135 101.442 C5.201 104.668 5.268 107.894 5.334 111.121 C5.734 130.699 6.154 150.276 6.641 169.852 C6.665 170.823 6.689 171.794 6.714 172.795 C6.929 181.476 7.15 190.158 7.38 198.84 C7.864 217.231 8.117 235.601 8 254 C7.01 254 6.02 254 5 254 C4.281 246.881 3.814 239.807 3.643 232.655 C3.617 231.677 3.59 230.7 3.563 229.693 C3.478 226.463 3.397 223.234 3.316 220.004 C3.256 217.692 3.196 215.38 3.135 213.067 C2.973 206.855 2.816 200.643 2.66 194.43 C2.562 190.556 2.464 186.683 2.365 182.809 C1.488 148.497 0.645 114.185 -0.123 79.87 C-0.186 77.047 -0.251 74.223 -0.317 71.399 C-0.741 52.933 -1.076 34.472 -1.113 16 C-1.116 15.235 -1.119 14.47 -1.122 13.682 C-1.129 11.559 -1.129 9.436 -1.126 7.312 C-1.126 6.112 -1.126 4.912 -1.126 3.676 C-1 1 -1 1 0 0 Z " fill="#000000" transform="translate(552,350)"/>
<path d="M0 0 C0.99 0.33 1.98 0.66 3 1 C3 5.62 3 10.24 3 15 C4.65 14.34 6.3 13.68 8 13 C10.812 13.375 10.812 13.375 13 14 C12.67 14.99 12.34 15.98 12 17 C8.04 18.98 8.04 18.98 4 21 C4.33 27.6 4.66 34.2 5 41 C3.68 41 2.36 41 1 41 C0.664 38.563 0.331 36.125 0 33.688 C-0.095 32.997 -0.191 32.307 -0.289 31.596 C-0.68 28.704 -1 25.922 -1 23 C-2.32 23.33 -3.64 23.66 -5 24 C-5.33 22.68 -5.66 21.36 -6 20 C-5.354 19.673 -4.708 19.345 -4.043 19.008 C-1.028 16.045 -1.365 12.876 -1.312 8.875 C-1.089 1.089 -1.089 1.089 0 0 Z " fill="#000000" transform="translate(665,384)"/>
<path d="M0 0 C1.32 0 2.64 0 4 0 C3.63 2.741 3.314 4.586 1.625 6.812 C0 8 0 8 -3 8 C-2.453 4.625 -1.945 2.918 0 0 Z " fill="#000000" transform="translate(523,400)"/>
<path d="M0 0 C1.32 0.33 2.64 0.66 4 1 C6.352 10.3 7.882 19.487 9 29 C10.396 28.493 10.396 28.493 11.82 27.977 C15.139 26.957 16.728 27.038 20 28 C20 28.99 20 29.98 20 31 C16.492 32.604 13.856 33.22 10 33 C10.248 34.454 10.248 34.454 10.5 35.938 C11.134 40.295 11.09 44.606 11 49 C9.68 48.67 8.36 48.34 7 48 C6.34 43.71 5.68 39.42 5 35 C1.37 35 -2.26 35 -6 35 C-5.67 33.68 -5.34 32.36 -5 31 C-2.03 30.67 0.94 30.34 4 30 C3.818 29.01 3.818 29.01 3.633 28 C3.082 24.98 2.541 21.959 2 18.938 C1.809 17.899 1.618 16.861 1.422 15.791 C0.471 10.445 -0.246 5.43 0 0 Z " fill="#000000" transform="translate(134,408)"/>
<path d="M0 0 C0.99 0.33 1.98 0.66 3 1 C1.875 3.972 0.777 6.334 -1 9 C-1.99 9 -2.98 9 -4 9 C-3.469 5.179 -2.503 2.938 0 0 Z " fill="#000000" transform="translate(530,409)"/>
<path d="M0 0 C0.66 0 1.32 0 2 0 C2 5.28 2 10.56 2 16 C0.68 16 -0.64 16 -2 16 C-2.236 10.222 -1.868 5.487 0 0 Z " fill="#000000" transform="translate(440,412)"/>
<path d="M0 0 C1.32 0 2.64 0 4 0 C2.077 6.016 -0.088 11.864 -2.539 17.684 C-2.865 18.465 -3.192 19.247 -3.528 20.052 C-4.557 22.515 -5.591 24.976 -6.625 27.438 C-7.326 29.114 -8.026 30.79 -8.727 32.467 C-13.811 44.622 -13.811 44.622 -15 47 C-15.99 46.67 -16.98 46.34 -18 46 C-12.822 30.509 -7.308 14.616 0 0 Z " fill="#000000" transform="translate(529,428)"/>
<path d="M0 0 C0.33 0.66 0.66 1.32 1 2 C-0.145 4.383 -0.145 4.383 -1.812 7.125 C-2.355 8.035 -2.898 8.945 -3.457 9.883 C-3.966 10.581 -4.475 11.28 -5 12 C-5.66 12 -6.32 12 -7 12 C-5.639 6.802 -3.533 3.905 0 0 Z " fill="#000000" transform="translate(517,439)"/>
<path d="M0 0 C0.66 0 1.32 0 2 0 C3.678 3.355 3.276 7.152 3.373 10.848 C3.401 11.767 3.429 12.687 3.457 13.634 C3.549 16.705 3.634 19.776 3.719 22.848 C3.782 25.011 3.845 27.174 3.909 29.338 C4.077 35.081 4.24 40.824 4.401 46.567 C4.53 51.123 4.663 55.679 4.796 60.234 C5.437 82.132 6.044 104.03 6.59 125.93 C6.611 126.761 6.632 127.592 6.654 128.448 C6.979 141.301 7.126 154.143 7 167 C5.68 167 4.36 167 3 167 C2.47 151.263 1.949 135.525 1.435 119.787 C1.197 112.475 0.956 105.163 0.709 97.851 C-1.189 41.557 -1.189 41.557 -1.188 16.969 C-1.188 16.127 -1.189 15.285 -1.19 14.418 C-1.189 1.189 -1.189 1.189 0 0 Z " fill="#000000" transform="translate(441,448)"/>
<path d="M0 0 C0.99 0.66 1.98 1.32 3 2 C3.384 4.773 3.603 7.343 3.688 10.125 C3.739 11.256 3.739 11.256 3.791 12.41 C3.874 14.273 3.938 16.136 4 18 C4.557 17.856 5.114 17.711 5.688 17.562 C10.941 16.285 15.597 15.804 21 16 C21 16.99 21 17.98 21 19 C15.72 20.32 10.44 21.64 5 23 C5.217 24.458 5.433 25.916 5.656 27.418 C5.938 29.341 6.219 31.264 6.5 33.188 C6.643 34.147 6.786 35.107 6.934 36.096 C7.069 37.027 7.204 37.958 7.344 38.918 C7.469 39.772 7.595 40.625 7.725 41.505 C8.003 44.025 8.048 46.467 8 49 C6.062 49.562 6.062 49.562 4 50 C2.295 48.295 2.527 45.986 2.246 43.652 C2.114 42.573 1.982 41.493 1.846 40.381 C1.711 39.245 1.576 38.108 1.438 36.938 C1.23 35.227 1.23 35.227 1.018 33.482 C0.675 30.655 0.337 27.828 0 25 C-6.435 25.495 -6.435 25.495 -13 26 C-13 25.01 -13 24.02 -13 23 C-8.674 21.417 -4.571 20.549 0 20 C-0.217 18.679 -0.217 18.679 -0.438 17.332 C-0.623 16.171 -0.809 15.009 -1 13.812 C-1.186 12.664 -1.371 11.515 -1.562 10.332 C-1.938 7.47 -2.245 4.873 -2 2 C-1.34 1.34 -0.68 0.68 0 0 Z " fill="#000000" transform="translate(126,465)"/>
<path d="M0 0 C0.99 0.33 1.98 0.66 3 1 C3.949 4.16 3.949 4.16 4.688 8.062 C4.939 9.353 5.19 10.643 5.449 11.973 C5.631 12.972 5.813 13.971 6 15 C10.455 14.505 10.455 14.505 15 14 C15 15.32 15 16.64 15 18 C12.03 18.66 9.06 19.32 6 20 C6.107 20.772 6.213 21.544 6.323 22.339 C6.795 25.828 7.242 29.32 7.688 32.812 C7.856 34.027 8.024 35.242 8.197 36.494 C8.415 38.239 8.415 38.239 8.637 40.02 C8.778 41.093 8.92 42.167 9.065 43.273 C9 46 9 46 7.523 47.874 C7.02 48.245 6.518 48.617 6 49 C3.638 46.638 3.668 45.874 3.367 42.641 C3.283 41.772 3.2 40.903 3.113 40.008 C3.035 39.098 2.956 38.188 2.875 37.25 C2.789 36.355 2.702 35.461 2.613 34.539 C2.193 30.011 1.894 25.553 2 21 C0.02 21.33 -1.96 21.66 -4 22 C-4.33 20.68 -4.66 19.36 -5 18 C-3.02 17.67 -1.04 17.34 1 17 C0.844 15.857 0.688 14.713 0.527 13.535 C0.33 12.044 0.134 10.553 -0.062 9.062 C-0.166 8.308 -0.27 7.553 -0.377 6.775 C-0.627 4.855 -0.818 2.928 -1 1 C-0.67 0.67 -0.34 0.34 0 0 Z " fill="#000000" transform="translate(171,467)"/>
<path d="M0 0 C3.062 2.062 3.062 2.062 5 5 C6.927 15.792 -0.22 28.212 -6 37 C-8.82 40.522 -11.855 43.768 -15 47 C-15.615 47.677 -16.23 48.354 -16.863 49.051 C-22.334 54.897 -28.731 59.275 -35.282 63.808 C-46.883 71.858 -57.969 80.054 -67 91 C-67.66 90.67 -68.32 90.34 -69 90 C-64.215 76.537 -49.222 67.928 -38 60.062 C-20.752 47.941 -5.359 34.136 0 13 C-0.619 13.66 -1.237 14.32 -1.875 15 C-4 17 -4 17 -6 17 C-5.495 12.621 -2.822 10.183 0 7 C-3.82 4.453 -6.593 4.225 -11 5 C-34.278 13.147 -49.493 36.332 -61.263 56.614 C-74.809 79.938 -74.809 79.938 -81 86 C-81.99 86 -82.98 86 -84 86 C-82.645 82.174 -80.91 79.332 -78.438 76.125 C-75.318 71.92 -72.473 67.631 -69.812 63.125 C-69.448 62.509 -69.083 61.892 -68.707 61.257 C-67.913 59.915 -67.119 58.574 -66.326 57.232 C-37.074 7.991 -37.074 7.991 -11.641 -0.402 C-7.52 -1.335 -4.015 -1.368 0 0 Z " fill="#000000" transform="translate(699,473)"/>
<path d="M0 0 C0.495 1.485 0.495 1.485 1 3 C0.039 4.052 0.039 4.052 -0.941 5.125 C-9.764 14.708 -9.764 14.708 -18.125 24.688 C-20.791 27.975 -23.837 30.858 -26.854 33.82 C-38.118 44.883 -48.296 55.842 -57.273 68.883 C-59 71 -59 71 -62 72 C-62.33 71.34 -62.66 70.68 -63 70 C-58.519 62.683 -53.176 56.242 -47.557 49.791 C-46.515 48.592 -45.476 47.389 -44.441 46.183 C-40.398 41.5 -36.185 37.063 -31.781 32.719 C-31.12 32.061 -30.458 31.403 -29.776 30.725 C-26.984 27.949 -24.186 25.179 -21.388 22.409 C-19.33 20.368 -17.274 18.325 -15.219 16.281 C-14.599 15.67 -13.979 15.058 -13.34 14.428 C-9.512 10.621 -5.898 6.682 -2.375 2.592 C-1.609 1.705 -0.829 0.829 0 0 Z " fill="#000000" transform="translate(685,490)"/>
<path d="M0 0 C0.66 0 1.32 0 2 0 C2.872 2.995 3.108 5.636 3.062 8.75 C3.053 9.549 3.044 10.348 3.035 11.172 C3.024 11.775 3.012 12.378 3 13 C2.01 13.33 1.02 13.66 0 14 C-1.244 11.512 -1.133 9.773 -1.125 7 C-1.128 6.113 -1.13 5.226 -1.133 4.312 C-1 2 -1 2 0 0 Z " fill="#000000" transform="translate(328,506)"/>
<path d="M0 0 C0.99 0.33 1.98 0.66 3 1 C2.188 3.938 2.188 3.938 1 7 C0.01 7.33 -0.98 7.66 -2 8 C-1.125 1.125 -1.125 1.125 0 0 Z " fill="#000000" transform="translate(405,507)"/>
<path d="M0 0 C0.66 0.33 1.32 0.66 2 1 C1.67 2.98 1.34 4.96 1 7 C0.01 7.33 -0.98 7.66 -2 8 C-1.125 1.125 -1.125 1.125 0 0 Z " fill="#000000" transform="translate(297,521)"/>
<path d="M0 0 C1.938 1.125 1.938 1.125 3 3 C3.913 7.146 4.005 10.496 3.328 14.676 C3.16 15.743 2.992 16.81 2.819 17.909 C2.537 19.594 2.537 19.594 2.25 21.312 C2.062 22.474 1.873 23.635 1.679 24.831 C1.3 27.157 0.917 29.482 0.529 31.806 C0.079 34.522 -0.348 37.239 -0.762 39.961 C-4.369 63.032 -13.416 81.77 -30.188 98.062 C-41.746 109.36 -46.555 123.454 -50 139 C-51.32 138.67 -52.64 138.34 -54 138 C-53.67 134.37 -53.34 130.74 -53 127 C-57.599 136.268 -59.136 144.838 -60 155 C-60.99 155 -61.98 155 -63 155 C-63.879 142.111 -60.209 130.659 -56.312 118.562 C-54.534 113.015 -53.169 107.838 -53 102 C-52.938 101.174 -52.876 100.347 -52.812 99.496 C-52.473 91.865 -53.85 84.792 -55.489 77.382 C-58.315 64.511 -58.078 51.893 -57.904 38.787 C-57.874 36.333 -57.856 33.88 -57.84 31.426 C-57.826 30.684 -57.813 29.942 -57.799 29.178 C-57.776 24.409 -58.492 20.529 -60 16 C-66.998 18.935 -69.934 26.394 -72.688 33.062 C-77.483 46.215 -79.13 60.424 -79.203 74.363 C-79.212 75.671 -79.212 75.671 -79.22 77.006 C-79.23 78.845 -79.236 80.685 -79.24 82.525 C-79.25 85.267 -79.281 88.009 -79.312 90.752 C-79.407 106.459 -77.995 122.039 -73.375 137.125 C-73.158 137.877 -72.942 138.628 -72.719 139.402 C-71.589 143.288 -71.589 143.288 -70 147 C-70.144 145.752 -70.289 144.504 -70.438 143.219 C-72.017 127.829 -72.198 112.522 -72.188 97.062 C-72.188 96.001 -72.189 94.94 -72.19 93.847 C-72.189 90.764 -72.181 87.681 -72.168 84.598 C-72.167 83.679 -72.166 82.759 -72.164 81.812 C-72.122 75.824 -71.697 69.947 -71 64 C-70.01 63.67 -69.02 63.34 -68 63 C-66.623 65.755 -66.888 67.952 -66.902 71.035 C-66.906 72.304 -66.909 73.573 -66.912 74.88 C-66.916 75.561 -66.921 76.242 -66.925 76.944 C-66.938 79.08 -66.944 81.217 -66.949 83.354 C-66.962 88.669 -66.986 93.984 -67.01 99.298 C-67.03 103.778 -67.046 108.258 -67.056 112.737 C-67.062 114.828 -67.075 116.918 -67.088 119.008 C-67.104 125.363 -67.004 131.595 -66.226 137.907 C-65.841 141.476 -65.893 145.04 -65.938 148.625 C-65.942 149.343 -65.947 150.061 -65.951 150.801 C-65.963 152.534 -65.981 154.267 -66 156 C-68.539 155.615 -69.728 155.299 -71.484 153.371 C-71.902 152.733 -72.32 152.095 -72.75 151.438 C-73.178 150.797 -73.606 150.156 -74.047 149.496 C-74.361 149.002 -74.676 148.509 -75 148 C-74.474 149.114 -74.474 149.114 -73.938 150.25 C-72.955 153.132 -72.967 154.212 -74 157 C-95.553 136.934 -101.717 95.904 -105 68 C-103.68 68 -102.36 68 -101 68 C-100.875 68.653 -100.749 69.305 -100.62 69.978 C-98.413 81.408 -96.169 92.821 -93.375 104.125 C-93.181 104.922 -92.988 105.719 -92.788 106.54 C-91.592 111.264 -90.033 115.57 -88 120 C-88.205 118.716 -88.41 117.432 -88.621 116.109 C-90.032 106.941 -91.146 97.966 -91.375 88.688 C-91.793 75.851 -94.85 64.199 -103 54 C-104.083 52.515 -104.083 52.515 -105.188 51 C-106.927 48.752 -106.927 48.752 -110 48 C-117.834 80.386 -104.374 114.389 -88 142 C-86.233 144.481 -84.415 146.846 -82.445 149.168 C-80.979 151.026 -79.981 152.852 -79 155 C-84.807 154.103 -87.617 149.437 -91 145 C-109.644 117.506 -120.111 84.336 -115.73 51.164 C-114.969 47.867 -114.027 45.699 -112 43 C-107.337 41.446 -103.512 41.456 -98.875 43.125 C-92.623 47.203 -90.477 51.395 -88.654 58.415 C-87.226 66.246 -87.205 74.248 -86.938 82.188 C-86.552 102.79 -86.552 102.79 -83 123 C-83.066 122.344 -83.132 121.689 -83.199 121.013 C-86.382 88.049 -90.132 42.665 -68 15 C-64.67 11.848 -62.619 10.454 -58 10.562 C-53.917 10.739 -51.164 11.232 -48 14 C-44.666 18.834 -44.876 25.048 -44.902 30.711 C-44.907 32.577 -44.907 32.577 -44.912 34.48 C-44.925 36.408 -44.925 36.408 -44.938 38.375 C-44.942 39.683 -44.947 40.992 -44.951 42.34 C-44.963 45.56 -44.979 48.78 -45 52 C-44.732 51.031 -44.464 50.061 -44.188 49.062 C-39.167 31.619 -31.673 13.473 -15.617 3.523 C-10.192 0.554 -6.179 -0.867 0 0 Z M-26 18 C-28.22 21.227 -30.145 24.552 -32 28 C-32.357 28.623 -32.714 29.245 -33.082 29.887 C-44.737 51.292 -48.699 81.078 -48 105 C-45.749 101.623 -44.783 98.315 -43.68 94.465 C-43.227 92.926 -42.774 91.387 -42.32 89.849 C-41.967 88.644 -41.967 88.644 -41.606 87.416 C-35.776 67.656 -29.418 48.741 -17 32 C-16.01 31.67 -15.02 31.34 -14 31 C-16.304 35.696 -18.689 40.297 -21.297 44.831 C-37.073 72.217 -37.073 72.217 -41.562 102.305 C-41.377 102.864 -41.191 103.424 -41 104 C-38.073 100.84 -35.151 97.677 -32.238 94.504 C-30.343 92.442 -28.431 90.413 -26.48 88.402 C-8.632 69.679 -4.923 45.641 -1 21 C-1.66 21 -2.32 21 -3 21 C-4.522 23.219 -4.522 23.219 -6 25.938 C-8.789 30.894 -8.789 30.894 -11 32 C-10.733 31.436 -10.465 30.872 -10.19 30.291 C-8.969 27.699 -7.766 25.1 -6.562 22.5 C-6.142 21.613 -5.721 20.726 -5.287 19.812 C-2.817 14.438 -1.38 9.912 -1 4 C-11.347 2.65 -19.784 10.444 -26 18 Z M-56 15 C-55.856 15.524 -55.711 16.048 -55.562 16.588 C-53.365 25.751 -53.871 34.967 -54.041 44.313 C-54.18 52.729 -54.077 60.999 -53.125 69.371 C-53.047 70.079 -52.968 70.787 -52.887 71.516 C-52.434 75.09 -51.7 77.845 -50 81 C-49.799 73.559 -49.616 66.118 -49.453 58.676 C-49.378 55.22 -49.296 51.764 -49.201 48.308 C-49.092 44.33 -49.008 40.35 -48.926 36.371 C-48.87 34.522 -48.87 34.522 -48.813 32.636 C-48.636 23.876 -48.636 23.876 -52 16 C-54.069 14.957 -54.069 14.957 -56 15 Z M-104 46 C-103.625 46.473 -103.25 46.946 -102.863 47.434 C-99.037 52.378 -95.897 57.463 -93 63 C-92.67 63 -92.34 63 -92 63 C-92.616 56.841 -94.003 52.448 -97.938 47.625 C-100.086 45.587 -100.086 45.587 -104 46 Z " fill="#000000" transform="translate(228,514)"/>
<path d="M0 0 C1 3 1 3 -0.438 6.188 C-1.211 7.58 -1.211 7.58 -2 9 C-2.66 9 -3.32 9 -4 9 C-3.469 5.179 -2.503 2.938 0 0 Z " fill="#000000" transform="translate(524,530)"/>
<path d="M0 0 C0.99 0 1.98 0 3 0 C2.67 2.97 2.34 5.94 2 9 C1.01 9 0.02 9 -1 9 C-0.67 6.03 -0.34 3.06 0 0 Z " fill="#000000" transform="translate(305,542)"/>
<path d="M0 0 C1.98 0.495 1.98 0.495 4 1 C4.871 4.064 5.197 6.931 5.357 10.11 C5.411 11.129 5.464 12.149 5.519 13.199 C5.574 14.3 5.628 15.401 5.684 16.535 C5.808 18.896 5.932 21.258 6.057 23.619 C6.247 27.318 6.435 31.016 6.622 34.715 C7.361 49.199 8.264 63.598 10 78 C8.02 78.495 8.02 78.495 6 79 C-4.406 8.813 -4.406 8.813 0 0 Z " fill="#000000" transform="translate(329,545)"/>
<path d="M0 0 C0.99 0 1.98 0 3 0 C2.692 8.79 -0.568 16.033 -4 24 C-4.99 23.67 -5.98 23.34 -7 23 C-6.606 16.438 -4.828 4.828 0 0 Z " fill="#000000" transform="translate(530,548)"/>
<path d="M0 0 C0.66 0 1.32 0 2 0 C2 2.31 2 4.62 2 7 C0.68 7 -0.64 7 -2 7 C-1.34 4.69 -0.68 2.38 0 0 Z " fill="#000000" transform="translate(294,549)"/>
<path d="M0 0 C0.99 0.33 1.98 0.66 3 1 C1.829 8.789 -2.793 16.192 -8 22 C-8.99 21.67 -9.98 21.34 -11 21 C-10.425 16.354 -8.403 12.777 -6.062 8.812 C-5.702 8.184 -5.342 7.556 -4.971 6.908 C-3.479 4.34 -2.109 2.109 0 0 Z " fill="#000000" transform="translate(411,561)"/>
<path d="M0 0 C0.66 0 1.32 0 2 0 C1.498 7.359 -0.316 13.603 -2.875 20.5 C-3.227 21.5 -3.579 22.501 -3.941 23.531 C-4.288 24.48 -4.635 25.429 -4.992 26.406 C-5.305 27.265 -5.618 28.125 -5.941 29.01 C-7 31 -7 31 -10 32 C-9.378 25.211 -7.191 19.053 -5 12.625 C-4.447 10.968 -4.447 10.968 -3.883 9.277 C-1.141 1.141 -1.141 1.141 0 0 Z " fill="#000000" transform="translate(302,564)"/>
<path d="M0 0 C1.65 0.33 3.3 0.66 5 1 C5.625 3.375 5.625 3.375 6 6 C5.34 6.66 4.68 7.32 4 8 C1.875 7.625 1.875 7.625 0 7 C-1.125 2.25 -1.125 2.25 0 0 Z " fill="#000000" transform="translate(591,569)"/>
<path d="M0 0 C0.99 0.33 1.98 0.66 3 1 C2.34 2.32 1.68 3.64 1 5 C0.01 4.67 -0.98 4.34 -2 4 C-1.34 2.68 -0.68 1.36 0 0 Z " fill="#000000" transform="translate(632,581)"/>
<path d="M0 0 C0.99 0.33 1.98 0.66 3 1 C3 2.65 3 4.3 3 6 C1.35 6.33 -0.3 6.66 -2 7 C-2.688 5.188 -2.688 5.188 -3 3 C-1.562 1.25 -1.562 1.25 0 0 Z " fill="#000000" transform="translate(609,581)"/>
<path d="M0 0 C2.125 0.375 2.125 0.375 4 1 C3.75 2.875 3.75 2.875 3 5 C0.938 6.25 0.938 6.25 -1 7 C-1.625 4.625 -1.625 4.625 -2 2 C-1.34 1.34 -0.68 0.68 0 0 Z " fill="#000000" transform="translate(429,586)"/>
<path d="M0 0 C2.125 0.938 2.125 0.938 4 2 C3.67 3.32 3.34 4.64 3 6 C1.68 6 0.36 6 -1 6 C-1.495 3.525 -1.495 3.525 -2 1 C-1.34 0.67 -0.68 0.34 0 0 Z " fill="#000000" transform="translate(595,589)"/>
<path d="M0 0 C1.32 0 2.64 0 4 0 C4.33 1.32 4.66 2.64 5 4 C3.02 4.99 3.02 4.99 1 6 C0.34 5.34 -0.32 4.68 -1 4 C-0.625 1.875 -0.625 1.875 0 0 Z " fill="#000000" transform="translate(652,593)"/>
<path d="M0 0 C1.32 0.66 2.64 1.32 4 2 C3.67 3.98 3.34 5.96 3 8 C2.01 8.33 1.02 8.66 0 9 C-2 7 -2 7 -2.25 4.5 C-2 2 -2 2 0 0 Z " fill="#000000" transform="translate(608,596)"/>
<path d="M0 0 C1.938 0.312 1.938 0.312 4 1 C5 4 5 4 4.223 6.043 C3.84 6.751 3.457 7.458 3.062 8.188 C2.682 8.903 2.302 9.618 1.91 10.355 C1.61 10.898 1.309 11.441 1 12 C-0.32 11.67 -1.64 11.34 -3 11 C-2.532 6.944 -2.12 3.534 0 0 Z " fill="#000000" transform="translate(629,597)"/>
<path d="M0 0 C1.98 0.495 1.98 0.495 4 1 C3.67 2.32 3.34 3.64 3 5 C1.68 5 0.36 5 -1 5 C-0.67 3.35 -0.34 1.7 0 0 Z " fill="#000000" transform="translate(594,609)"/>
<path d="M0 0 C2.625 0.375 2.625 0.375 5 1 C4.67 2.65 4.34 4.3 4 6 C2.35 6.33 0.7 6.66 -1 7 C-1.625 4.625 -1.625 4.625 -2 2 C-1.34 1.34 -0.68 0.68 0 0 Z " fill="#000000" transform="translate(232,613)"/>
<path d="M0 0 C2.125 0.375 2.125 0.375 4 1 C4 2.65 4 4.3 4 6 C2.35 6.33 0.7 6.66 -1 7 C-1.625 4.625 -1.625 4.625 -2 2 C-1.34 1.34 -0.68 0.68 0 0 Z " fill="#000000" transform="translate(241,618)"/>
<path d="M0 0 C1.32 0 2.64 0 4 0 C4 1.65 4 3.3 4 5 C2.35 4.67 0.7 4.34 -1 4 C-0.67 2.68 -0.34 1.36 0 0 Z " fill="#000000" transform="translate(247,623)"/>
<path d="M0 0 C1.32 0.66 2.64 1.32 4 2 C3.67 3.32 3.34 4.64 3 6 C1.35 5.67 -0.3 5.34 -2 5 C-1.125 1.125 -1.125 1.125 0 0 Z " fill="#000000" transform="translate(488,628)"/>
<path d="M0 0 C1.98 0.495 1.98 0.495 4 1 C3.67 2.65 3.34 4.3 3 6 C1.68 5.67 0.36 5.34 -1 5 C-0.67 3.35 -0.34 1.7 0 0 Z " fill="#000000" transform="translate(506,631)"/>
<path d="M0 0 C0.99 0.33 1.98 0.66 3 1 C2.625 2.938 2.625 2.938 2 5 C1.01 5.495 1.01 5.495 0 6 C-0.66 5.67 -1.32 5.34 -2 5 C-1.125 1.125 -1.125 1.125 0 0 Z " fill="#000000" transform="translate(376,635)"/>
<path d="M0 0 C8.86 0.507 17.33 1.892 26 3.75 C27.258 4.014 28.516 4.277 29.812 4.549 C38.326 6.358 46.784 8.338 55.186 10.614 C59.147 11.917 59.147 11.917 63 11 C63.33 10.34 63.66 9.68 64 9 C70.152 9.539 75.659 10.569 81.531 12.441 C82.318 12.685 83.104 12.929 83.914 13.18 C86.445 13.966 88.973 14.764 91.5 15.562 C93.244 16.107 94.988 16.651 96.733 17.194 C101.826 18.784 106.914 20.389 112 22 C112.724 22.229 113.448 22.458 114.194 22.694 C121.804 25.104 129.407 27.536 137 30 C137 30.99 137 31.98 137 33 C130.51 32.392 124.605 30.883 118.375 29 C117.361 28.699 116.347 28.398 115.303 28.088 C111.866 27.065 108.433 26.033 105 25 C102.954 24.388 100.909 23.776 98.863 23.164 C90.906 20.786 82.952 18.396 75 16 C73.702 17.149 73.702 17.149 73 20 C59.026 17.159 45.097 14.149 31.194 10.984 C20.484 8.546 9.759 6.207 -1 4 C-0.67 2.68 -0.34 1.36 0 0 Z " fill="#000000" transform="translate(217,637)"/>
<path d="M0 0 C6.786 0.505 13.266 1.791 19.875 3.375 C20.918 3.624 21.962 3.873 23.037 4.129 C38.576 7.978 53.782 13.058 69 18 C69 18.99 69 19.98 69 21 C58.028 19.705 47.513 17.362 36.812 14.688 C35.17 14.282 33.528 13.877 31.886 13.473 C20.896 10.758 9.924 7.974 -1 5 C-1 1 -1 1 0 0 Z " fill="#000000" transform="translate(207,641)"/>
<path d="M0 0 C2.062 0.438 2.062 0.438 4 1 C3.427 3.867 3.139 4.861 1 7 C0.01 7 -0.98 7 -2 7 C-1.125 1.125 -1.125 1.125 0 0 Z " fill="#000000" transform="translate(344,641)"/>
<path d="M0 0 C-1.231 3.988 -3.798 5.307 -7.361 7.195 C-8.389 7.717 -8.389 7.717 -9.438 8.25 C-10.119 8.614 -10.8 8.977 -11.502 9.352 C-16.585 12 -16.585 12 -20 12 C-20.33 11.01 -20.66 10.02 -21 9 C-7.219 -0.656 -7.219 -0.656 0 0 Z " fill="#000000" transform="translate(461,641)"/>
<path d="M0 0 C-0.593 3.392 -1.767 5.211 -4.062 7.75 C-4.884 8.67 -4.884 8.67 -5.723 9.609 C-6.144 10.068 -6.566 10.527 -7 11 C-8.32 10.34 -9.64 9.68 -11 9 C-8.506 4.275 -5.715 0 0 0 Z " fill="#000000" transform="translate(399,643)"/>
<path d="M0 0 C-0.33 1.65 -0.66 3.3 -1 5 C-5.248 6.129 -9.498 7.25 -13.75 8.363 C-15.193 8.742 -16.635 9.123 -18.076 9.507 C-25.686 11.53 -33.113 13.445 -41 14 C-41.33 12.68 -41.66 11.36 -42 10 C-34.962 7.165 -27.776 5.218 -20.438 3.312 C-19.244 2.992 -18.051 2.672 -16.822 2.342 C-11.095 0.849 -5.929 -0.461 0 0 Z " fill="#000000" transform="translate(501,648)"/>
<path d="M0 0 C7.452 0.458 14.31 1.625 21.484 3.66 C22.935 4.059 22.935 4.059 24.415 4.466 C27.529 5.323 30.639 6.193 33.75 7.062 C38.048 8.25 42.349 9.431 46.648 10.613 C47.707 10.905 48.766 11.197 49.856 11.498 C60.284 14.37 70.752 17.075 81.237 19.727 C82.384 20.018 83.53 20.309 84.711 20.609 C85.694 20.857 86.676 21.104 87.689 21.358 C90 22 90 22 92 23 C92 23.66 92 24.32 92 25 C85.131 25.296 78.95 24.213 72.25 22.75 C70.49 22.37 70.49 22.37 68.694 21.983 C51.161 18.069 33.88 13.101 16.582 8.276 C11.394 6.829 6.199 5.407 1 4 C0.67 2.68 0.34 1.36 0 0 Z " fill="#000000" transform="translate(207,652)"/>
<path d="M0 0 C3.386 2.941 5.58 5.739 7 10 C7.173 12.683 7.277 15.316 7.312 18 C7.342 18.724 7.371 19.449 7.4 20.195 C7.464 25.475 7.464 25.475 5.352 27.867 C2.629 29.179 -0.058 30.203 -2.938 31.125 C-3.957 31.458 -4.977 31.79 -6.027 32.133 C-18.815 35.863 -34.477 35.49 -47 31 C-47.908 30.698 -48.815 30.397 -49.75 30.086 C-50.492 29.728 -51.235 29.369 -52 29 C-53.89 23.331 -51.063 17.403 -49 12 C-44.543 4.113 -36.455 0.205 -28.113 -2.645 C-19.399 -4.11 -7.899 -4.302 0 0 Z M-44 11 C-44.33 11.99 -44.66 12.98 -45 14 C-23.363 18.081 -23.363 18.081 -2 15 C0.369 12.137 0.048 9.596 0 6 C-1.582 5.351 -3.166 4.706 -4.75 4.062 C-5.632 3.703 -6.513 3.343 -7.422 2.973 C-20.173 -1.838 -34.829 0.483 -44 11 Z M0 17 C0 17.99 0 18.98 0 20 C0.66 20 1.32 20 2 20 C1.67 19.01 1.34 18.02 1 17 C0.67 17 0.34 17 0 17 Z M-47 17 C-48.257 19.906 -49 21.796 -49 25 C-46.439 25.674 -43.877 26.339 -41.312 27 C-40.591 27.191 -39.87 27.382 -39.127 27.578 C-35.331 28.549 -31.954 29.25 -28 29 C-29.32 28.01 -30.64 27.02 -32 26 C-31.67 25.01 -31.34 24.02 -31 23 C-25.72 23.66 -20.44 24.32 -15 25 C-15 26.32 -15 27.64 -15 29 C-13.02 29 -11.04 29 -9 29 C-8.67 28.34 -8.34 27.68 -8 27 C-8.66 27 -9.32 27 -10 27 C-10 25.68 -10 24.36 -10 23 C-9.01 23 -8.02 23 -7 23 C-6.505 25.475 -6.505 25.475 -6 28 C-5.67 28 -5.34 28 -5 28 C-5 26.35 -5 24.7 -5 23 C-4.319 23.712 -4.319 23.712 -3.625 24.438 C-2.067 26.09 -2.067 26.09 0 27 C0.66 26.34 1.32 25.68 2 25 C-0.19 23.016 -2.345 21.317 -5 20 C-7.879 20.633 -7.879 20.633 -9.82 21.438 C-19.437 23.919 -32.15 20.318 -42 19 C-41.67 19.619 -41.34 20.237 -41 20.875 C-40 23 -40 23 -40 25 C-42.438 24.25 -42.438 24.25 -45 23 C-45.812 20.875 -45.812 20.875 -46 19 C-45.01 18.67 -44.02 18.34 -43 18 C-44.32 17.67 -45.64 17.34 -47 17 Z " fill="#000000" transform="translate(694,672)"/>
<path d="M0 0 C0.99 0.33 1.98 0.66 3 1 C2.469 4.821 1.503 7.062 -1 10 C-2.32 9.67 -3.64 9.34 -5 9 C-3.751 5.541 -2.325 2.853 0 0 Z " fill="#000000" transform="translate(493,670)"/>
<path d="M0 0 C0.99 0.66 1.98 1.32 3 2 C3.375 4.5 3.375 4.5 3 7 C0 9 0 9 -2.688 8.625 C-3.451 8.419 -4.214 8.212 -5 8 C-3.814 4.625 -2.724 2.353 0 0 Z " fill="#000000" transform="translate(669,677)"/>
<path d="M0 0 C0.776 0.006 1.552 0.013 2.352 0.02 C4.375 0.188 4.375 0.188 6.375 1.188 C6.375 1.847 6.375 2.508 6.375 3.188 C4.439 3.692 2.501 4.191 0.562 4.688 C-0.516 4.966 -1.595 5.244 -2.707 5.531 C-5.625 6.188 -5.625 6.188 -8.625 6.188 C-8.625 4.867 -8.625 3.548 -8.625 2.188 C-5.616 0.449 -3.466 -0.064 0 0 Z " fill="#000000" transform="translate(182.625,677.8125)"/>
<path d="M0 0 C5.986 1.502 11.613 2.942 17 6 C17 6.66 17 7.32 17 8 C10.389 7.51 5.05 5.666 -1 3 C-0.67 2.01 -0.34 1.02 0 0 Z " fill="#000000" transform="translate(399,680)"/>
<path d="M0 0 C-4.497 3.777 -9.097 6 -15 6 C-14.5 4.188 -14.5 4.188 -13 2 C-8.677 -0.409 -4.829 -1.66 0 0 Z " fill="#000000" transform="translate(204,685)"/>
<path d="M0 0 C2.668 2.109 2.668 2.109 3.555 5.844 C3.611 7.46 3.611 7.46 3.668 9.109 C-10.897 19.472 -31.741 22.66 -49.168 19.945 C-53.52 18.795 -57.127 17.314 -60.332 14.109 C-60.066 7.84 -58.718 1.715 -54.332 -2.891 C-39.646 -14.766 -15.135 -7.055 0 0 Z M-50.207 0.547 C-52.493 2.989 -52.493 2.989 -53.332 6.109 C-48.712 6.109 -44.092 6.109 -39.332 6.109 C-40.322 5.119 -41.312 4.129 -42.332 3.109 C-43.02 0.922 -43.02 0.922 -43.332 -0.891 C-40.395 -0.141 -40.395 -0.141 -37.332 1.109 C-37.002 2.429 -36.672 3.749 -36.332 5.109 C-24.452 4.779 -12.572 4.449 -0.332 4.109 C-12.648 -2.049 -38.634 -9.265 -50.207 0.547 Z M-7.266 7.766 C-23.366 9.886 -39.103 10.483 -55.332 10.109 C-55.002 11.099 -54.672 12.089 -54.332 13.109 C-48.741 15.33 -43.357 15.458 -37.395 15.422 C-36.474 15.418 -35.553 15.415 -34.604 15.411 C-22.778 15.226 -11.538 12.908 -0.332 9.109 C-0.332 8.449 -0.332 7.789 -0.332 7.109 C-2.697 7.109 -4.922 7.441 -7.266 7.766 Z " fill="#000000" transform="translate(254.33203125,695.890625)"/>
<path d="M0 0 C0 0.99 0 1.98 0 3 C-1.303 3.398 -1.303 3.398 -2.633 3.805 C-4.361 4.334 -4.361 4.334 -6.125 4.875 C-7.262 5.223 -8.399 5.571 -9.57 5.93 C-11.811 6.629 -14.039 7.37 -16.25 8.156 C-19.297 9.091 -20.978 8.889 -24 8 C-22.2 4.678 -21.024 4.008 -17.383 2.734 C-15.967 2.39 -14.548 2.063 -13.125 1.75 C-12.417 1.577 -11.71 1.405 -10.98 1.227 C-7.265 0.355 -3.817 -0.21 0 0 Z " fill="#000000" transform="translate(181,690)"/>
<path d="M0 0 C-4.625 4 -4.625 4 -8 4 C-7 1 -7 1 -5.125 -0.25 C-3 -1 -3 -1 0 0 Z " fill="#000000" transform="translate(628,691)"/>
<path d="M0 0 C1.32 0 2.64 0 4 0 C4.33 0.99 4.66 1.98 5 3 C4.01 4.485 4.01 4.485 3 6 C1.68 5.67 0.36 5.34 -1 5 C-0.67 3.35 -0.34 1.7 0 0 Z " fill="#000000" transform="translate(340,692)"/>
<path d="M0 0 C2.214 2.16 2.335 3.36 2.512 6.406 C2.568 7.214 2.625 8.023 2.684 8.855 C2.709 9.47 2.735 10.085 2.762 10.719 C-1.993 14.231 -6.625 16.123 -12.238 17.906 C-13.41 18.296 -13.41 18.296 -14.605 18.693 C-23.564 21.612 -34.476 24.11 -43.488 20.219 C-44.396 19.724 -45.303 19.229 -46.238 18.719 C-43.641 5.477 -43.641 5.477 -38.238 1.719 C-27.362 -4.152 -11.237 -6.432 0 0 Z M-40.238 9.719 C-40.238 10.379 -40.238 11.039 -40.238 11.719 C-38.588 11.719 -36.938 11.719 -35.238 11.719 C-35.053 10.76 -35.053 10.76 -34.863 9.781 C-34.657 9.101 -34.451 8.42 -34.238 7.719 C-33.578 7.389 -32.918 7.059 -32.238 6.719 C-31.908 8.039 -31.578 9.359 -31.238 10.719 C-24.99 10.025 -18.894 8.922 -12.738 7.656 C-11.82 7.47 -10.903 7.284 -9.957 7.092 C-7.717 6.637 -5.477 6.179 -3.238 5.719 C-3.733 4.234 -3.733 4.234 -4.238 2.719 C-8.573 1.083 -13.419 1.456 -17.988 1.406 C-18.857 1.377 -19.726 1.348 -20.621 1.318 C-28.494 1.242 -35.161 3.372 -40.238 9.719 Z M-10.781 10.715 C-11.854 10.944 -12.928 11.172 -14.033 11.408 C-15.153 11.655 -16.272 11.902 -17.426 12.156 C-18.557 12.399 -19.688 12.642 -20.854 12.893 C-23.65 13.494 -26.445 14.103 -29.238 14.719 C-29.238 15.049 -29.238 15.379 -29.238 15.719 C-19.635 15.4 -11.36 13.659 -2.238 10.719 C-5.733 9.554 -7.221 9.943 -10.781 10.715 Z M-35.238 15.719 C-35.238 16.049 -35.238 16.379 -35.238 16.719 C-33.258 16.719 -31.278 16.719 -29.238 16.719 C-29.238 16.389 -29.238 16.059 -29.238 15.719 C-31.218 15.719 -33.198 15.719 -35.238 15.719 Z " fill="#000000" transform="translate(641.23828125,704.28125)"/>
<path d="M0 0 C1.98 0.495 1.98 0.495 4 1 C3.67 2.65 3.34 4.3 3 6 C1.68 5.34 0.36 4.68 -1 4 C-0.67 2.68 -0.34 1.36 0 0 Z " fill="#000000" transform="translate(369,703)"/>
<path d="M0 0 C0.99 0 1.98 0 3 0 C2.67 1.65 2.34 3.3 2 5 C0.68 4.67 -0.64 4.34 -2 4 C-1.34 2.68 -0.68 1.36 0 0 Z " fill="#000000" transform="translate(613,709)"/>
<path d="M0 0 C6.919 5.707 6.919 5.707 7.5 9.973 C7.52 12.195 7.52 12.195 7.207 15.82 C-8.485 24.525 -25.308 28.686 -43.23 24.883 C-46.793 23.82 -46.793 23.82 -48.793 22.82 C-49.6 8.11 -49.6 8.11 -44.793 1.82 C-31.982 -11.289 -14.06 -10.584 0 0 Z M-41.793 4.758 C-43.895 7.976 -44.293 10.074 -44.793 13.82 C-29.46 14.189 -14.882 13.653 0.207 10.82 C0.525 7.897 0.525 7.897 -0.973 6.391 C-8.878 -0.349 -16.068 -4.114 -26.672 -3.664 C-32.879 -2.701 -37.549 0.188 -41.793 4.758 Z M2.207 13.82 C1.289 14.025 0.371 14.23 -0.574 14.441 C-2.415 14.846 -2.415 14.846 -4.293 15.258 C-5.5 15.525 -6.706 15.791 -7.949 16.066 C-15.222 17.493 -22.406 18.037 -29.793 18.383 C-30.663 18.426 -31.533 18.469 -32.43 18.514 C-34.551 18.619 -36.672 18.72 -38.793 18.82 C-38.793 19.15 -38.793 19.48 -38.793 19.82 C-29.745 21.777 -21.023 20.855 -11.98 19.445 C-11.168 19.319 -10.356 19.193 -9.519 19.063 C-5.11 18.335 -1.001 17.379 3.207 15.82 C2.712 14.83 2.712 14.83 2.207 13.82 Z M-42.793 17.82 C-38.793 18.82 -38.793 18.82 -38.793 18.82 Z " fill="#000000" transform="translate(334.79296875,719.1796875)"/>
<path d="M0 0 C4.248 0.472 6.2 2.967 9 6 C8.484 6.413 7.969 6.825 7.438 7.25 C6.726 8.116 6.726 8.116 6 9 C6.319 11.108 6.319 11.108 7 13 C6.67 13.33 6.34 13.66 6 14 C3.661 13.713 1.326 13.381 -1 13 C-1.495 10.525 -1.495 10.525 -2 8 C-1.01 7.67 -0.02 7.34 1 7 C1.66 7.33 2.32 7.66 3 8 C3 7.34 3 6.68 3 6 C1.68 5.34 0.36 4.68 -1 4 C-0.67 2.68 -0.34 1.36 0 0 Z " fill="#000000" transform="translate(305,718)"/>
<path d="M0 0 C-1 2 -1 2 -3.801 3.07 C-4.96 3.418 -6.119 3.766 -7.312 4.125 C-8.464 4.478 -9.615 4.831 -10.801 5.195 C-14 6 -14 6 -18 6 C-17.812 4.125 -17.812 4.125 -17 2 C-11.481 -0.996 -6.049 -1.296 0 0 Z " fill="#000000" transform="translate(262,720)"/>
<path d="M0 0 C-1.621 1.172 -3.247 2.338 -4.875 3.5 C-5.78 4.15 -6.685 4.799 -7.617 5.469 C-10 7 -10 7 -12 7 C-11.742 5.145 -11.742 5.145 -11 3 C-9.258 1.699 -9.258 1.699 -7.125 0.688 C-6.426 0.341 -5.728 -0.006 -5.008 -0.363 C-3 -1 -3 -1 0 0 Z " fill="#000000" transform="translate(585,721)"/>
<path d="M0 0 C0 0.66 0 1.32 0 2 C-1.267 2.674 -2.539 3.339 -3.812 4 C-4.52 4.371 -5.228 4.742 -5.957 5.125 C-8 6 -8 6 -11 6 C-9.965 3.176 -9.334 2.176 -6.625 0.75 C-4 0 -4 0 0 0 Z " fill="#000000" transform="translate(677,721)"/>
<path d="M0 0 C-3.122 3.52 -6.232 5.312 -10.5 7.25 C-11.624 7.771 -12.748 8.292 -13.906 8.828 C-17 10 -17 10 -21 10 C-20.895 8.199 -20.895 8.199 -20 6 C-17.199 4.332 -17.199 4.332 -13.688 2.812 C-12.536 2.303 -11.385 1.794 -10.199 1.27 C-3.804 -1.268 -3.804 -1.268 0 0 Z " fill="#000000" transform="translate(701,723)"/>
<path d="M0 0 C-0.688 1.938 -0.688 1.938 -2 4 C-4.625 4.75 -4.625 4.75 -7 5 C-7 4.01 -7 3.02 -7 2 C-4.353 0.539 -3.106 0 0 0 Z " fill="#000000" transform="translate(595,725)"/>
<path d="M0 0 C-0.33 0.99 -0.66 1.98 -1 3 C-3.696 4.075 -3.696 4.075 -7.266 5.043 C-7.896 5.216 -8.526 5.39 -9.176 5.568 C-10.513 5.933 -11.851 6.291 -13.191 6.644 C-15.232 7.183 -17.266 7.741 -19.301 8.303 C-30.15 11.24 -30.15 11.24 -35 11 C-34.816 9.129 -34.816 9.129 -34 7 C-24.694 2.002 -10.508 -0.325 0 0 Z " fill="#000000" transform="translate(262,729)"/>
<path d="M0 0 C-1.265 0.842 -2.538 1.673 -3.812 2.5 C-4.874 3.196 -4.874 3.196 -5.957 3.906 C-8 5 -8 5 -11 5 C-10 2 -10 2 -7.188 0.25 C-3.86 -1.055 -3.204 -1.029 0 0 Z " fill="#000000" transform="translate(380,735)"/>
<path d="M0 0 C0 0.99 0 1.98 0 3 C-2.97 3.66 -5.94 4.32 -9 5 C-9 3.68 -9 2.36 -9 1 C-5.804 -0.065 -3.343 -0.074 0 0 Z " fill="#000000" transform="translate(214,736)"/>
<path d="M0 0 C-1 3 -1 3 -3.145 4.203 C-4.025 4.549 -4.905 4.894 -5.812 5.25 C-6.685 5.606 -7.558 5.962 -8.457 6.328 C-11.136 7.036 -12.432 6.934 -15 6 C-10.791 1.143 -6.372 -0.375 0 0 Z " fill="#000000" transform="translate(401,737)"/>
</svg>
