<?xml version="1.0" encoding="UTF-8"?>
<!-- Generator: visioncortex VTracer 0.6.0 -->
<svg version="1.1" xmlns="http://www.w3.org/2000/svg" width="847" height="847">
<path d="M0 0 C2.098 1.691 3.727 3.133 4.941 5.562 C5.254 8.5 5.254 8.5 4.941 11.562 C3.504 13.312 3.504 13.312 0.941 14.562 C-0.025 14.592 -0.025 14.592 -1.012 14.621 C-3.868 14.786 -5.529 15.167 -8.059 16.562 C-11.121 20.71 -13.427 25.106 -15.677 29.734 C-17.335 33.127 -19.024 36.505 -20.715 39.881 C-21.434 41.317 -22.153 42.754 -22.871 44.19 C-23.236 44.919 -23.601 45.648 -23.976 46.399 C-25.641 49.728 -27.303 53.059 -28.964 56.39 C-32.148 62.773 -35.333 69.155 -38.52 75.537 C-40.43 79.363 -42.34 83.19 -44.248 87.017 C-46.116 90.764 -47.987 94.511 -49.858 98.257 C-50.566 99.675 -51.274 101.093 -51.98 102.511 C-52.961 104.481 -53.945 106.449 -54.929 108.417 C-55.487 109.535 -56.045 110.652 -56.619 111.804 C-58.059 114.562 -58.059 114.562 -60.059 117.562 C-60.719 117.562 -61.379 117.562 -62.059 117.562 C-63.366 115.855 -64.605 114.095 -65.809 112.312 C-68.887 107.948 -71.345 105.037 -76.059 102.562 C-74.093 107.117 -70.857 110.775 -67.779 114.609 C-63.871 119.572 -60.835 124.234 -60.309 130.688 C-60.231 131.515 -60.154 132.343 -60.074 133.195 C-60.059 135.515 -60.386 137.352 -61.059 139.562 C-60.471 139.818 -59.883 140.073 -59.277 140.336 C-52.38 144.149 -47.855 152.055 -45.469 159.371 C-44.05 166.95 -44.308 175.342 -47.059 182.562 C-46.539 182.77 -46.02 182.978 -45.484 183.191 C-40.035 185.599 -36.902 188.303 -34.059 193.562 C-32.149 199.29 -32.751 203.439 -35.309 208.812 C-37.115 212.403 -38.809 214.245 -42.059 216.562 C-36.139 216.125 -30.247 215.63 -24.367 214.809 C-3.75 211.929 18.392 208.869 37.941 217.562 C38.617 217.863 39.293 218.163 39.99 218.472 C65.847 230.158 84.69 249.001 94.941 275.562 C109.832 316.438 99.268 361.675 81.573 399.985 C80.376 402.518 79.161 405.041 77.941 407.562 C77.487 408.511 77.034 409.46 76.566 410.438 C62.438 439.851 45.437 468.715 22.941 492.562 C21.957 493.626 21.957 493.626 20.953 494.711 C9.529 506.661 -7.326 516.927 -24.238 517.656 C-26.7 517.697 -29.159 517.699 -31.621 517.688 C-32.458 517.691 -33.296 517.695 -34.158 517.699 C-38.254 517.693 -42.064 517.592 -46.059 516.562 C-46.024 517.543 -45.989 518.524 -45.953 519.535 C-45.555 535.698 -47.525 551.282 -59.004 563.574 C-100.735 603.957 -164.264 617.526 -220.523 616.754 C-266.955 615.656 -317.986 605.856 -351.605 571.391 C-358.488 563.456 -363.453 554.599 -367.184 544.793 C-367.862 542.625 -367.862 542.625 -369.059 541.562 C-370.023 532.013 -368.596 522.66 -367.188 513.23 C-365.281 499.936 -363.992 486.652 -362.965 473.262 C-360.191 437.417 -356.116 401.756 -351.853 366.065 C-351.155 360.222 -350.458 354.379 -349.762 348.536 C-349.164 343.521 -348.565 338.507 -347.964 333.493 C-345.385 311.945 -342.88 290.394 -340.676 268.805 C-340.538 267.456 -340.538 267.456 -340.397 266.08 C-339.525 257.548 -338.666 249.016 -337.84 240.48 C-337.541 237.407 -337.235 234.335 -336.927 231.263 C-336.723 229.196 -336.53 227.129 -336.337 225.061 C-335.249 214.211 -333.985 203.681 -325.309 196.188 C-324.195 195.383 -324.195 195.383 -323.059 194.562 C-323.275 194.006 -323.492 193.449 -323.715 192.875 C-326.221 186.006 -327.565 180.309 -324.371 173.375 C-322.408 169.807 -320.092 167.259 -317.059 164.562 C-317.389 163.758 -317.719 162.954 -318.059 162.125 C-319.731 156.166 -319.998 150.961 -317.371 145.25 C-315.45 141.867 -313.511 139.499 -310.059 137.562 C-309.295 137.801 -308.532 138.039 -307.746 138.285 C-304.869 138.892 -304.869 138.892 -302.43 136.562 C-301.441 135.573 -300.464 134.572 -299.496 133.562 C-286.679 121.028 -272.027 110.671 -256.059 102.562 C-254.62 101.814 -254.62 101.814 -253.152 101.051 C-244.893 97.006 -235.773 94.38 -226.672 93.078 C-225.809 92.908 -224.947 92.738 -224.059 92.562 C-223.729 91.903 -223.399 91.243 -223.059 90.562 C-216.943 88.871 -211.81 89.988 -206.059 92.562 C-204.016 94.099 -202.682 95.56 -201.059 97.562 C-197.19 95.937 -194.345 93.312 -191.246 90.562 C-175.664 77.105 -149.448 57.562 -128.059 57.562 C-128.059 56.572 -128.059 55.582 -128.059 54.562 C-124.021 52.544 -119.439 52.99 -115.059 53.562 C-107.823 56.174 -103.805 60.485 -100.117 67.098 C-98.069 71.867 -97.944 76.221 -97.996 81.375 C-98.005 82.536 -98.014 83.698 -98.023 84.895 C-98.041 86.215 -98.041 86.215 -98.059 87.562 C-97.083 88.045 -96.107 88.527 -95.102 89.023 C-93.816 89.661 -92.531 90.299 -91.246 90.938 C-90.603 91.255 -89.961 91.572 -89.299 91.898 C-86.427 93.327 -83.732 94.78 -81.059 96.562 C-76.191 87.489 -71.367 78.417 -67.059 69.062 C-63.125 60.544 -58.77 52.275 -54.35 44 C-53.041 41.529 -51.758 39.046 -50.48 36.559 C-46.226 28.303 -41.935 20.434 -36.457 12.91 C-34.717 10.445 -34.717 10.445 -35.059 6.562 C-35.389 5.903 -35.719 5.243 -36.059 4.562 C-36.589 0.588 -36.436 -0.934 -33.996 -4.188 C-23.013 -12.6 -10.16 -7.095 0 0 Z M-122.059 58.562 C-120.442 64.192 -117.809 69.114 -115.059 74.25 C-114.607 75.104 -114.156 75.958 -113.691 76.838 C-111.916 80.181 -110.161 83.409 -108.059 86.562 C-106.409 86.233 -104.759 85.903 -103.059 85.562 C-102.396 76.992 -103.15 70.755 -108.059 63.562 C-111.68 59.438 -115.018 59.017 -120.266 58.641 C-120.857 58.615 -121.449 58.589 -122.059 58.562 Z M-138.059 65.562 C-137.439 68.147 -136.814 70.73 -136.184 73.312 C-136.01 74.042 -135.836 74.772 -135.656 75.523 C-134.78 79.095 -133.932 82.356 -132.059 85.562 C-131.399 85.562 -130.739 85.562 -130.059 85.562 C-131.495 78.824 -133.199 72.196 -135.059 65.562 C-136.049 65.562 -137.039 65.562 -138.059 65.562 Z M-131.059 65.562 C-129.961 72.478 -128.11 78.256 -125.059 84.562 C-121.759 84.892 -118.459 85.222 -115.059 85.562 C-115.329 83.125 -115.329 83.125 -116.059 80.562 C-117.049 79.903 -118.039 79.243 -119.059 78.562 C-119.389 79.553 -119.719 80.543 -120.059 81.562 C-120.719 81.562 -121.379 81.562 -122.059 81.562 C-124.699 76.282 -127.339 71.002 -130.059 65.562 C-130.389 65.562 -130.719 65.562 -131.059 65.562 Z M-197.059 103.562 C-196.387 107.369 -195.331 110.915 -194.059 114.562 C-187.079 111.124 -180.148 107.625 -173.291 103.948 C-165.676 99.875 -157.996 96.047 -150.121 92.5 C-149.275 92.118 -148.428 91.736 -147.556 91.342 C-144.071 89.796 -140.788 88.403 -137.059 87.562 C-137.848 80.776 -139.471 74.201 -141.059 67.562 C-158.932 67.562 -183.89 93.135 -197.059 103.562 Z M-194.059 119.562 C-194.291 121.077 -194.471 122.6 -194.621 124.125 C-194.705 124.951 -194.789 125.778 -194.875 126.629 C-194.936 127.267 -194.996 127.905 -195.059 128.562 C-192.279 127.25 -189.859 125.785 -187.398 123.945 C-186.697 123.427 -185.996 122.908 -185.273 122.374 C-184.522 121.817 -183.77 121.261 -182.996 120.688 C-166.358 108.569 -149.192 96.886 -129.059 91.562 C-129.059 91.233 -129.059 90.903 -129.059 90.562 C-146.229 89.685 -182.012 107.516 -194.059 119.562 Z M-218.059 95.562 C-216.545 99.853 -214.308 103.482 -211.809 107.25 C-208.452 112.367 -205.259 117.535 -202.25 122.867 C-201.857 123.427 -201.464 123.986 -201.059 124.562 C-200.399 124.562 -199.739 124.562 -199.059 124.562 C-197.557 116.929 -198.456 111.494 -202.059 104.562 C-204.571 101.072 -207.155 97.514 -211.059 95.562 C-213.392 95.522 -215.726 95.519 -218.059 95.562 Z M-160.996 112 C-161.993 112.701 -162.99 113.402 -164.018 114.124 C-174.149 121.273 -184.13 128.626 -194.056 136.058 C-214.135 151.084 -235.336 166.063 -259.871 172.574 C-263.77 173.783 -265.232 175.667 -268.059 178.562 C-271.578 180.659 -275.176 182.268 -279.059 183.562 C-279.059 185.873 -279.059 188.183 -279.059 190.562 C-272.949 192.46 -266.818 194.159 -260.611 195.705 C-227.05 204.108 -227.05 204.108 -218.559 217.25 C-199.436 253.921 -209.653 305.897 -214.237 345.24 C-214.45 347.067 -214.66 348.894 -214.866 350.722 C-215.157 353.274 -215.465 355.822 -215.777 358.371 C-215.862 359.128 -215.946 359.884 -216.033 360.664 C-216.588 364.999 -217.625 367.951 -220.059 371.562 C-221.341 379.084 -219.725 385.958 -216.059 392.562 C-213.466 395.769 -211.823 397.276 -207.965 398.723 C-205.059 400.562 -205.059 400.562 -204.176 403.969 C-204.073 405.332 -203.993 406.697 -203.934 408.062 C-203.806 409.505 -203.669 410.946 -203.523 412.387 C-203.452 413.095 -203.381 413.803 -203.308 414.533 C-202.731 419.231 -201.68 423.586 -199.059 427.562 C-193.542 431.493 -185.541 431.383 -179.059 430.562 C-173.874 429.191 -170.061 427.565 -166.246 423.75 C-164.059 421.562 -164.059 421.562 -161.746 421.5 C-158.728 422.693 -155.88 424.086 -153.023 425.625 C-145.671 429.133 -137.166 428.16 -129.559 426 C-125.683 424.611 -125.683 424.611 -122.672 421.949 C-117.174 409.854 -119.197 391.781 -123.059 379.562 C-125.009 374.922 -127.425 371.152 -130.871 367.5 C-145.961 350.733 -150.336 323.633 -149.214 301.881 C-146.832 266.319 -131.183 234.709 -104.996 210.688 C-96.857 203.989 -88.222 200.302 -78.246 197.125 C-64.372 192.91 -64.372 192.91 -52.059 185.562 C-51.158 183.222 -51.158 183.222 -51.059 180.562 C-50.98 179.602 -50.901 178.642 -50.82 177.652 C-50.555 166.37 -53.06 154.999 -61.059 146.562 C-63.919 144.574 -66.798 142.823 -69.863 141.168 C-70.588 140.638 -71.312 140.108 -72.059 139.562 C-72.059 138.243 -72.059 136.923 -72.059 135.562 C-69.749 135.562 -67.439 135.562 -65.059 135.562 C-65.331 127.38 -68.007 121.605 -72.059 114.562 C-72.822 113.077 -72.822 113.077 -73.602 111.562 C-78.514 103.289 -84.71 101.049 -93.598 98.645 C-95.083 98.277 -96.57 97.915 -98.059 97.562 C-99.139 97.298 -100.219 97.034 -101.332 96.762 C-124.037 92.19 -142.513 98.878 -160.996 112 Z M-236.059 101.562 C-232.658 115.219 -232.658 115.219 -224.059 125.562 C-224.726 121.527 -225.978 117.98 -227.496 114.188 C-229.267 109.678 -230.858 105.254 -232.059 100.562 C-234.133 100.413 -234.133 100.413 -236.059 101.562 Z M-228.059 100.562 C-226.665 108.643 -224.003 119.618 -218.059 125.562 C-215.698 126.021 -213.319 126.384 -210.934 126.688 C-209.652 126.855 -208.371 127.023 -207.051 127.195 C-206.063 127.316 -205.076 127.438 -204.059 127.562 C-205.847 124.505 -205.847 124.505 -208.059 121.562 C-209.049 121.562 -210.039 121.562 -211.059 121.562 C-211.389 122.553 -211.719 123.543 -212.059 124.562 C-214.384 123.876 -215.751 123.03 -217.09 120.994 C-218.157 118.957 -219.151 116.898 -220.121 114.812 C-220.459 114.109 -220.798 113.405 -221.146 112.68 C-221.811 111.297 -222.471 109.912 -223.125 108.525 C-224.397 105.851 -225.724 103.206 -227.059 100.562 C-227.389 100.562 -227.719 100.562 -228.059 100.562 Z M-242.133 103.023 C-256.352 107.997 -268.188 116.871 -279.999 125.979 C-283.54 128.701 -287.112 131.381 -290.684 134.062 C-291.334 134.555 -291.985 135.047 -292.656 135.554 C-296.379 138.357 -300.155 141.016 -304.059 143.562 C-302.622 148.477 -300.517 152.565 -297.934 156.938 C-297.561 157.578 -297.189 158.219 -296.805 158.879 C-295.894 160.443 -294.977 162.003 -294.059 163.562 C-289.851 163.562 -288.269 161.17 -285.434 158.375 C-271.755 145.363 -254.139 130.178 -235.121 126.375 C-234.349 126.216 -233.577 126.058 -232.781 125.895 C-232.213 125.785 -231.644 125.675 -231.059 125.562 C-231.565 124.311 -231.565 124.311 -232.082 123.035 C-236.173 112.713 -236.173 112.713 -237.246 107.312 C-237.648 105.456 -237.648 105.456 -238.059 103.562 C-240.012 102.323 -240.012 102.323 -242.133 103.023 Z M-221.059 103.562 C-220.46 107.705 -219.052 110.744 -216.996 114.375 C-216.448 115.351 -215.9 116.327 -215.336 117.332 C-214.914 118.068 -214.493 118.804 -214.059 119.562 C-213.399 119.233 -212.739 118.903 -212.059 118.562 C-213.176 116.246 -214.302 113.935 -215.434 111.625 C-215.751 110.966 -216.068 110.306 -216.395 109.627 C-218.013 105.949 -218.013 105.949 -221.059 103.562 Z M-235.93 130.312 C-244.073 133.167 -250.996 136.503 -258.059 141.562 C-259.001 142.232 -259.943 142.901 -260.914 143.59 C-268.422 149.074 -275.438 155.068 -282.444 161.17 C-284.954 163.335 -287.505 165.449 -290.059 167.562 C-289.399 168.882 -288.739 170.202 -288.059 171.562 C-284.034 169.892 -281.034 167.097 -277.809 164.25 C-276.553 163.161 -275.297 162.074 -274.039 160.988 C-273.386 160.424 -272.733 159.861 -272.06 159.28 C-263.696 152.103 -255.223 145.137 -246.059 139 C-245.472 138.607 -244.886 138.213 -244.281 137.808 C-240.031 135.034 -235.627 132.772 -231.059 130.562 C-233.14 129.247 -233.14 129.247 -235.93 130.312 Z M-226.813 132.177 C-228.988 133.353 -231.157 134.532 -233.309 135.75 C-234.109 136.199 -234.91 136.648 -235.734 137.111 C-243.245 141.451 -249.861 146.614 -256.46 152.215 C-258.661 154.07 -260.921 155.846 -263.184 157.625 C-267.798 161.307 -272.294 165.123 -276.77 168.971 C-280.847 172.457 -280.847 172.457 -283.059 173.562 C-283.059 174.553 -283.059 175.543 -283.059 176.562 C-278.423 176.07 -276.193 174.307 -272.746 171.25 C-268.124 167.251 -263.399 163.462 -258.496 159.812 C-257.834 159.319 -257.173 158.826 -256.491 158.318 C-252.712 155.512 -248.92 152.723 -245.129 149.934 C-244.296 149.32 -243.462 148.707 -242.604 148.075 C-241.001 146.897 -239.398 145.721 -237.793 144.546 C-232.474 140.644 -227.246 136.637 -222.059 132.562 C-224.855 131.29 -224.855 131.29 -226.813 132.177 Z M-217.246 134.375 C-221.029 137.815 -225.011 140.662 -229.246 143.5 C-236.162 148.161 -242.856 153.079 -249.496 158.125 C-250.426 158.828 -251.357 159.531 -252.315 160.256 C-253.178 160.915 -254.041 161.574 -254.93 162.254 C-255.702 162.844 -256.475 163.434 -257.271 164.041 C-259.167 165.454 -259.167 165.454 -260.059 167.562 C-256.129 166.185 -253.267 164.375 -249.996 161.812 C-244.433 157.551 -238.748 153.502 -232.996 149.5 C-231.269 148.294 -229.543 147.089 -227.816 145.883 C-225.579 144.321 -223.342 142.759 -221.101 141.202 C-219.519 140.101 -217.945 138.988 -216.371 137.875 C-215.542 137.294 -214.713 136.712 -213.859 136.113 C-211.784 134.594 -211.784 134.594 -211.059 131.562 C-214.631 131.562 -214.8 131.985 -217.246 134.375 Z M-206.184 135.062 C-207.132 135.887 -208.081 136.712 -209.059 137.562 C-205.813 137.903 -205.813 137.903 -203.371 135.062 C-202.608 134.238 -201.845 133.413 -201.059 132.562 C-203.648 132.562 -204.259 133.389 -206.184 135.062 Z M-211.059 138.562 C-211.389 139.222 -211.719 139.882 -212.059 140.562 C-211.069 140.232 -210.079 139.903 -209.059 139.562 C-209.719 139.232 -210.379 138.903 -211.059 138.562 Z M-310.059 145.562 C-312.895 149.987 -313.491 153.078 -312.691 158.133 C-310.189 167.742 -304.645 173.855 -297.121 179.938 C-293.278 181.977 -290.378 182.265 -286.059 182.562 C-285.729 181.572 -285.399 180.582 -285.059 179.562 C-285.795 179.011 -286.531 178.459 -287.289 177.891 C-296.754 169.934 -301.927 158.532 -307.059 147.562 C-307.389 146.903 -307.719 146.243 -308.059 145.562 C-308.719 145.562 -309.379 145.562 -310.059 145.562 Z M-262.059 167.562 C-263.049 169.048 -263.049 169.048 -264.059 170.562 C-262.739 169.903 -261.419 169.243 -260.059 168.562 C-260.719 168.232 -261.379 167.903 -262.059 167.562 Z M-316.121 173.438 C-319.107 176.713 -319.416 179.031 -319.328 183.477 C-318.688 188.433 -315.384 191.49 -311.684 194.5 C-301.244 201.774 -289.309 206.242 -277.371 210.375 C-276.657 210.626 -275.944 210.876 -275.209 211.134 C-258.38 217.03 -241.258 221.882 -224.059 226.562 C-222.752 223.678 -222.752 223.678 -223.879 221.302 C-229.513 211.945 -237.582 210.188 -247.496 207.312 C-249.064 206.834 -250.631 206.352 -252.197 205.867 C-254.528 205.145 -256.859 204.424 -259.194 203.715 C-294.002 193.067 -294.002 193.067 -304.621 180.625 C-305.214 179.935 -305.807 179.246 -306.418 178.535 C-307.772 176.907 -309.078 175.24 -310.371 173.562 C-311.206 172.572 -311.206 172.572 -312.059 171.562 C-314.277 171.338 -314.277 171.338 -316.121 173.438 Z M-53.059 188.562 C-54.51 190.314 -54.51 190.314 -55.684 192.625 C-62.182 202.913 -74.481 208.195 -86.02 211.047 C-86.663 211.188 -87.306 211.328 -87.969 211.473 C-97.891 213.643 -103.509 216.866 -110.059 224.562 C-110.751 225.882 -111.423 227.214 -112.059 228.562 C-104.334 228.002 -96.921 226.637 -89.371 224.938 C-88.202 224.675 -87.032 224.412 -85.827 224.141 C-77.939 222.323 -70.131 220.304 -62.371 218 C-61.447 217.732 -60.522 217.463 -59.57 217.187 C-52.571 215.03 -46.022 212.123 -41.059 206.562 C-39.847 202.468 -39.609 198.753 -41.121 194.75 C-43.522 192.039 -45.888 190.309 -49.059 188.562 C-50.379 188.562 -51.699 188.562 -53.059 188.562 Z M-326.059 206.562 C-327.89 210.312 -328.211 213.821 -328.534 217.927 C-328.619 218.998 -328.705 220.069 -328.793 221.173 C-328.881 222.292 -328.968 223.41 -329.059 224.562 C-329.233 226.731 -329.408 228.899 -329.583 231.068 C-329.674 232.194 -329.764 233.32 -329.857 234.48 C-330.215 238.929 -330.578 243.377 -330.941 247.825 C-331.214 251.167 -331.484 254.509 -331.751 257.852 C-333.492 279.641 -335.96 301.186 -339.449 322.761 C-346.606 367.322 -351.604 412.281 -355.527 457.234 C-355.625 458.354 -355.625 458.354 -355.725 459.496 C-356.387 467.067 -357.045 474.638 -357.682 482.211 C-357.982 485.766 -358.287 489.321 -358.594 492.875 C-358.653 493.561 -358.711 494.246 -358.772 494.953 C-359.605 504.56 -360.655 514.112 -362.229 523.63 C-363.064 528.989 -363.45 534.256 -362.059 539.562 C-359.746 542.63 -359.746 542.63 -357.059 544.562 C-356.729 544.562 -356.399 544.562 -356.059 544.562 C-353.403 521.313 -350.897 498.144 -350.059 474.75 C-349.45 458.193 -347.63 442.101 -345.027 425.748 C-341.27 402.099 -338.858 378.365 -337.637 354.453 C-336.966 341.521 -336.241 328.679 -334.184 315.875 C-334.034 314.908 -333.885 313.941 -333.731 312.945 C-332.682 306.996 -331.272 302.012 -326.234 298.172 C-325.619 297.888 -325.005 297.605 -324.371 297.312 C-323.769 297.019 -323.167 296.725 -322.547 296.422 C-318.797 295.127 -314.94 294.366 -311.059 293.562 C-311.349 295.471 -311.349 295.471 -311.645 297.418 C-313.535 310.106 -314.958 322.783 -316.059 335.562 C-315.069 335.893 -314.079 336.222 -313.059 336.562 C-311.475 328.492 -310.355 320.421 -309.434 312.25 C-309.233 310.54 -309.233 310.54 -309.027 308.795 C-308.442 303.679 -307.987 298.718 -308.059 293.562 C-306.92 293.978 -306.92 293.978 -305.758 294.402 C-304.764 294.765 -303.77 295.127 -302.746 295.5 C-301.76 295.86 -300.774 296.219 -299.758 296.59 C-297.867 297.271 -295.966 297.927 -294.059 298.562 C-294.264 299.844 -294.469 301.125 -294.68 302.445 C-296.254 312.487 -297.571 322.401 -298.059 332.562 C-297.069 332.562 -296.079 332.562 -295.059 332.562 C-293.739 323.322 -292.419 314.082 -291.059 304.562 C-289.059 304.562 -289.059 304.562 -287.551 305.715 C-281.921 311.929 -282.509 318.203 -282.848 326.125 C-282.917 327.259 -282.987 328.394 -283.059 329.562 C-281.739 329.562 -280.419 329.562 -279.059 329.562 C-279.059 325.933 -279.059 322.303 -279.059 318.562 C-278.254 319.8 -277.45 321.038 -276.621 322.312 C-272.366 327.97 -267.029 330.266 -260.121 331.312 C-251.065 331.982 -242.091 331.372 -233.059 330.625 C-231.363 330.494 -231.363 330.494 -229.633 330.361 C-228.018 330.231 -228.018 330.231 -226.371 330.098 C-224.911 329.98 -224.911 329.98 -223.422 329.86 C-221.044 329.694 -221.044 329.694 -219.059 328.562 C-219.059 325.262 -219.059 321.962 -219.059 318.562 C-224.999 318.233 -230.939 317.903 -237.059 317.562 C-237.389 316.903 -237.719 316.243 -238.059 315.562 C-231.459 315.562 -224.859 315.562 -218.059 315.562 C-215.358 279.031 -215.358 279.031 -218.059 242.562 C-218.159 241.875 -218.26 241.188 -218.364 240.479 C-218.737 238.344 -218.737 238.344 -220.059 235.562 C-222.624 234.102 -222.624 234.102 -226.059 233.562 C-227.604 233.182 -229.148 232.796 -230.691 232.406 C-231.565 232.194 -232.439 231.982 -233.339 231.763 C-260.664 225.034 -291.441 215.308 -315.059 199.562 C-320.73 198.183 -323.179 202.295 -326.059 206.562 Z M-21.059 227.562 C-22.034 227.803 -23.009 228.043 -24.014 228.291 C-24.921 228.529 -25.827 228.767 -26.762 229.012 C-27.568 229.215 -28.374 229.418 -29.204 229.628 C-31.272 230.405 -31.272 230.405 -31.827 232.659 C-31.904 233.287 -31.98 233.915 -32.059 234.562 C-24.269 232.905 -16.633 230.835 -8.967 228.686 C11.493 223.016 30.396 226.547 48.941 236.562 C65.983 246.511 77.194 261.138 85.941 278.562 C86.931 278.562 87.921 278.562 88.941 278.562 C84.703 260.923 70.244 245.211 55.336 235.555 C29.377 220.32 7.534 219.835 -21.059 227.562 Z M-57.52 222.883 C-68.821 226.339 -80.123 229.403 -91.684 231.875 C-92.807 232.117 -93.93 232.359 -95.087 232.608 C-100.927 233.826 -106.647 234.727 -112.582 235.336 C-118.07 236.011 -118.07 236.011 -122.184 239.363 C-122.802 240.522 -123.421 241.681 -124.059 242.875 C-124.406 243.501 -124.754 244.127 -125.112 244.772 C-126.15 246.679 -127.109 248.61 -128.059 250.562 C-128.621 251.648 -129.183 252.733 -129.762 253.852 C-142.128 279.021 -147.955 311.482 -138.748 338.652 C-135.201 348.487 -131.231 356.929 -124.773 365.246 C-122.611 368.167 -121.372 371.185 -120.059 374.562 C-119.217 376.028 -118.362 377.486 -117.496 378.938 C-111.961 388.824 -111.682 400.124 -114.371 411 C-117.369 419.823 -123.97 428.881 -132.309 433.375 C-140.2 436.081 -149.537 435.351 -157.496 433.312 C-161.185 432.423 -163.047 432.641 -166.434 434.375 C-167.039 434.753 -167.645 435.13 -168.27 435.52 C-173.753 438.716 -181.27 438.339 -187.309 437.102 C-191.805 435.609 -194.956 433.231 -198.402 430.027 C-200.198 428.35 -200.198 428.35 -203.184 426.688 C-207.712 423.341 -210.29 418.868 -212.059 413.562 C-212.159 411.813 -212.24 410.063 -212.309 408.312 C-212.787 402.817 -214.074 399.405 -218.059 395.562 C-219.248 394.702 -220.457 393.868 -221.684 393.062 C-225.493 390.506 -226.789 388.042 -228.059 383.562 C-229.223 375.744 -226.592 369.271 -222.926 362.457 C-221.85 360.455 -221.85 360.455 -222.059 357.562 C-225.065 358.619 -226.012 359.488 -227.727 362.242 C-228.228 363.297 -228.729 364.351 -229.246 365.438 C-229.755 366.487 -230.264 367.536 -230.789 368.617 C-233.056 373.877 -234.483 379.855 -232.352 385.402 C-232.069 386.012 -231.787 386.622 -231.496 387.25 C-227.522 396.878 -231.85 410.042 -233.641 419.898 C-233.899 421.349 -234.157 422.8 -234.415 424.251 C-235.09 428.047 -235.772 431.842 -236.457 435.637 C-237.139 439.425 -237.814 443.214 -238.49 447.004 C-239.532 452.842 -240.575 458.681 -241.62 464.519 C-241.742 465.204 -241.865 465.89 -241.991 466.597 C-242.566 469.809 -243.141 473.021 -243.719 476.233 C-244.298 479.459 -244.873 482.686 -245.445 485.914 C-245.612 486.836 -245.779 487.758 -245.951 488.708 C-246.656 492.705 -247.275 496.485 -247.059 500.562 C-246.069 500.562 -245.079 500.562 -244.059 500.562 C-241.373 486.553 -238.738 472.535 -236.184 458.5 C-236.014 457.568 -235.844 456.635 -235.669 455.675 C-233.208 442.132 -230.827 428.577 -228.559 415 C-228.364 413.842 -228.364 413.842 -228.166 412.66 C-227.804 410.502 -227.446 408.343 -227.09 406.184 C-226.889 404.971 -226.689 403.759 -226.482 402.51 C-225.987 399.564 -225.987 399.564 -226.059 396.562 C-225.11 397.222 -224.161 397.882 -223.184 398.562 C-220.396 400.742 -220.396 400.742 -218.059 400.562 C-218.037 401.653 -218.037 401.653 -218.016 402.766 C-217.637 410.746 -215.977 417.549 -212.059 424.562 C-211.359 425.166 -210.659 425.769 -209.938 426.391 C-208.059 428.562 -208.059 428.562 -207.963 431.052 C-208.154 431.994 -208.344 432.937 -208.54 433.908 C-208.746 434.999 -208.952 436.091 -209.164 437.215 C-209.411 438.412 -209.659 439.61 -209.914 440.844 C-210.284 442.795 -210.654 444.746 -211.02 446.698 C-211.282 448.097 -211.547 449.495 -211.815 450.892 C-213.456 459.512 -214.807 468.177 -216.172 476.844 C-216.436 478.51 -216.7 480.177 -216.965 481.843 C-217.499 485.211 -218.031 488.578 -218.563 491.946 C-219.246 496.274 -219.934 500.6 -220.624 504.927 C-221.161 508.301 -221.695 511.676 -222.227 515.051 C-222.48 516.65 -222.734 518.248 -222.989 519.845 C-223.342 522.056 -223.69 524.267 -224.036 526.479 C-224.234 527.73 -224.433 528.982 -224.637 530.271 C-224.998 533.089 -225.147 535.728 -225.059 538.562 C-224.069 538.562 -223.079 538.562 -222.059 538.562 C-220.284 527.939 -218.51 517.314 -216.738 506.69 C-215.914 501.755 -215.091 496.82 -214.266 491.885 C-213.468 487.106 -212.671 482.327 -211.874 477.548 C-211.572 475.742 -211.271 473.935 -210.969 472.128 C-210.54 469.562 -210.112 466.996 -209.684 464.43 C-209.549 463.616 -209.413 462.802 -209.273 461.963 C-208.565 457.695 -207.878 453.425 -207.218 449.149 C-207.082 448.272 -206.947 447.396 -206.807 446.492 C-206.549 444.817 -206.294 443.141 -206.042 441.464 C-205.168 435.782 -205.168 435.782 -204.059 433.562 C-203.357 434.105 -202.656 434.648 -201.934 435.207 C-194.678 440.678 -188.551 445.274 -179.059 444.562 C-179.346 445.755 -179.634 446.947 -179.93 448.176 C-181.364 454.644 -182.219 461.186 -183.117 467.746 C-183.309 469.128 -183.5 470.51 -183.692 471.893 C-184.094 474.789 -184.493 477.687 -184.89 480.584 C-185.387 484.214 -185.891 487.843 -186.396 491.471 C-188.853 509.144 -191.117 526.824 -193.059 544.562 C-191.739 544.562 -190.419 544.562 -189.059 544.562 C-188.903 543.371 -188.903 543.371 -188.744 542.156 C-187.747 534.541 -186.748 526.926 -185.745 519.311 C-185.231 515.4 -184.717 511.488 -184.206 507.577 C-177.924 459.533 -177.924 459.533 -175.059 445.562 C-174.227 445.369 -173.396 445.176 -172.539 444.977 C-171.452 444.716 -170.366 444.456 -169.246 444.188 C-168.167 443.932 -167.088 443.677 -165.977 443.414 C-162.903 442.675 -162.903 442.675 -160.059 440.562 C-157.371 440.438 -157.371 440.438 -155.059 440.562 C-155.227 441.389 -155.395 442.216 -155.568 443.067 C-158.037 455.683 -159.872 468.382 -161.703 481.103 C-162.252 484.913 -162.806 488.721 -163.361 492.529 C-163.713 494.953 -164.064 497.377 -164.414 499.801 C-164.58 500.938 -164.745 502.076 -164.916 503.247 C-165.066 504.297 -165.217 505.346 -165.372 506.427 C-165.571 507.81 -165.571 507.81 -165.775 509.221 C-166.119 511.666 -166.119 511.666 -166.059 514.562 C-165.069 514.892 -164.079 515.223 -163.059 515.562 C-161.027 508.251 -159.969 500.864 -158.895 493.359 C-158.696 491.99 -158.497 490.621 -158.298 489.252 C-157.883 486.398 -157.472 483.544 -157.062 480.689 C-156.538 477.035 -156.008 473.381 -155.475 469.728 C-155.065 466.908 -154.657 464.087 -154.25 461.266 C-154.056 459.918 -153.86 458.571 -153.664 457.223 C-153.391 455.343 -153.122 453.462 -152.853 451.581 C-152.699 450.513 -152.545 449.444 -152.387 448.343 C-151.98 445.367 -151.98 445.367 -152.059 441.562 C-151.464 441.658 -150.87 441.753 -150.258 441.852 C-140.033 443.219 -132.108 442.03 -123.738 435.805 C-122.059 434.562 -122.059 434.562 -121.059 434.562 C-121.159 435.476 -121.259 436.39 -121.362 437.331 C-122.307 445.953 -123.249 454.575 -124.188 463.197 C-124.67 467.629 -125.154 472.062 -125.641 476.494 C-126.11 480.773 -126.577 485.052 -127.041 489.332 C-127.219 490.963 -127.397 492.593 -127.577 494.224 C-127.829 496.512 -128.077 498.8 -128.324 501.088 C-128.466 502.39 -128.608 503.691 -128.755 505.032 C-129.03 508.232 -129.117 511.353 -129.059 514.562 C-128.069 514.562 -127.079 514.562 -126.059 514.562 C-124.525 505.376 -123.432 496.178 -122.518 486.913 C-122.119 482.895 -121.699 478.878 -121.283 474.861 C-120.759 469.789 -120.241 464.716 -119.744 459.641 C-119.338 455.5 -118.912 451.362 -118.473 447.225 C-118.31 445.661 -118.155 444.096 -118.008 442.53 C-117.212 434.12 -116.344 427.377 -111.059 420.562 C-108.273 414.593 -107.57 408.841 -107.684 402.312 C-107.689 401.489 -107.695 400.666 -107.701 399.817 C-107.829 393.727 -108.789 388.141 -110.391 382.254 C-111.227 378.883 -111.299 376.01 -111.059 372.562 C-112.049 372.562 -113.039 372.562 -114.059 372.562 C-114.389 373.222 -114.719 373.882 -115.059 374.562 C-119.838 365.078 -124.321 355.655 -127.496 345.5 C-127.73 344.753 -127.964 344.005 -128.206 343.235 C-129.851 337.744 -131.014 332.196 -132.059 326.562 C-112.571 330.311 -112.571 330.311 -105.871 332.25 C-97.508 334.759 -97.508 334.759 -89.184 333.375 C-87.092 331.591 -85.563 329.858 -84.059 327.562 C-83.399 329.543 -82.739 331.522 -82.059 333.562 C-81.069 333.233 -80.079 332.903 -79.059 332.562 C-79.14 331.945 -79.221 331.328 -79.305 330.691 C-79.723 325.08 -79.154 321.984 -75.621 317.5 C-74.142 315.8 -72.651 314.155 -71.059 312.562 C-71.059 318.502 -71.059 324.442 -71.059 330.562 C-70.069 330.562 -69.079 330.562 -68.059 330.562 C-67.399 322.972 -66.739 315.382 -66.059 307.562 C-63.749 306.572 -61.439 305.582 -59.059 304.562 C-59.29 306.146 -59.29 306.146 -59.525 307.761 C-60.254 313.619 -60.399 319.494 -60.594 325.391 C-60.637 326.616 -60.68 327.841 -60.724 329.104 C-60.814 331.689 -60.902 334.274 -60.989 336.86 C-61.12 340.786 -61.258 344.711 -61.396 348.637 C-61.483 351.159 -61.57 353.681 -61.656 356.203 C-61.697 357.363 -61.737 358.523 -61.779 359.718 C-62.02 367.002 -62.106 374.274 -62.059 381.562 C-61.069 381.562 -60.079 381.562 -59.059 381.562 C-57.931 375.019 -57.742 368.495 -57.523 361.867 C-57.48 360.643 -57.437 359.418 -57.393 358.157 C-57.303 355.57 -57.215 352.983 -57.129 350.396 C-56.997 346.472 -56.859 342.548 -56.721 338.625 C-56.634 336.102 -56.547 333.578 -56.461 331.055 C-56.42 329.897 -56.38 328.739 -56.338 327.546 C-56.085 319.882 -56.013 312.23 -56.059 304.562 C-53.089 305.222 -50.119 305.882 -47.059 306.562 C-46.668 275.169 -46.668 275.169 -47.934 243.812 C-48.012 242.693 -48.091 241.574 -48.171 240.421 C-48.688 234.019 -49.64 227.826 -51.059 221.562 C-53.452 221.562 -55.231 222.168 -57.52 222.883 Z M-3.059 235.562 C0.183 236.552 2.943 236.576 6.316 236.438 C21.097 236.348 35.002 241.619 47.82 248.645 C50.168 249.827 50.168 249.827 53.941 249.562 C53.692 247.619 53.692 247.619 52.941 245.562 C50.374 244.018 47.974 242.771 45.254 241.562 C44.492 241.214 43.729 240.866 42.944 240.508 C29.362 234.472 10.945 227.924 -3.059 235.562 Z M2.941 241.562 C2.941 242.882 2.941 244.202 2.941 245.562 C4.158 245.521 5.375 245.48 6.629 245.438 C12.829 245.418 18.848 246.508 24.941 247.562 C25.271 246.572 25.601 245.582 25.941 244.562 C18.262 241.753 11.024 241.416 2.941 241.562 Z M32.941 247.562 C32.941 248.553 32.941 249.543 32.941 250.562 C35.034 252.162 35.034 252.162 37.691 253.562 C40.32 255.038 42.746 256.402 45.082 258.312 C45.696 258.725 46.309 259.137 46.941 259.562 C47.931 259.233 48.921 258.902 49.941 258.562 C46.132 253.279 41.968 250.113 35.941 247.562 C34.951 247.562 33.961 247.562 32.941 247.562 Z M-38.059 264.562 C-38.059 265.553 -38.059 266.543 -38.059 267.562 C-37.058 267.453 -36.058 267.343 -35.027 267.23 C-19.054 265.505 -3.056 264.041 12.941 262.562 C10.063 259.684 8.11 260.262 4.066 260.25 C-9.59 260.288 -24.866 260.897 -38.059 264.562 Z M-42.059 275.562 C-42.073 276.63 -42.088 277.698 -42.103 278.798 C-42.479 304.847 -43.354 330.853 -44.559 356.875 C-46.062 389.421 -47.402 421.974 -47.059 454.562 C-38.939 453.193 -31.244 450.89 -23.434 448.312 C-21.67 447.758 -21.67 447.758 -19.871 447.191 C-12.956 444.915 -7.507 442.414 -2.059 437.562 C-1.279 436.905 -0.499 436.248 0.305 435.57 C20.448 416.114 32.24 387.646 40.941 361.562 C41.208 360.777 41.474 359.991 41.749 359.182 C48.911 337.751 52.703 314.77 43.586 293.383 C39.302 285.09 33.385 276.961 24.941 272.562 C17.097 270.146 8.95 270.179 0.816 270.188 C-1.14 270.187 -1.14 270.187 -3.136 270.186 C-16.101 270.283 -29.689 271.439 -42.059 275.562 Z M87.941 288.562 C86.686 292.329 87.571 293.934 88.941 297.562 C89.931 297.562 90.921 297.562 91.941 297.562 C91.611 294.923 91.281 292.283 90.941 289.562 C89.951 289.233 88.961 288.902 87.941 288.562 Z M89.941 316.562 C89.907 317.128 89.873 317.694 89.837 318.277 C89.086 329.908 87.848 341.312 85.566 352.75 C85.37 353.751 85.173 354.752 84.97 355.783 C83.668 362.03 81.895 367.961 79.724 373.962 C78.749 376.748 78.749 376.748 78.941 380.562 C79.931 380.562 80.921 380.562 81.941 380.562 C88.518 362.608 93.221 343.792 93.004 324.562 C92.999 323.788 92.995 323.013 92.99 322.215 C92.979 320.331 92.961 318.447 92.941 316.562 C91.951 316.562 90.961 316.562 89.941 316.562 Z M60.941 322.562 C55.904 329.486 54.168 336.283 52.629 344.562 C47.379 372.356 37.169 401.535 18.941 423.562 C18.484 424.166 18.026 424.769 17.555 425.391 C7.926 437.641 -7.535 443.693 -21.059 450.562 C-24.627 452.384 -28.189 454.219 -31.746 456.062 C-32.529 456.459 -33.312 456.856 -34.119 457.265 C-38.027 459.291 -41.139 461.173 -44.059 464.562 C-13.402 459.976 12.387 441.669 31.004 417.312 C42.283 401.227 51.135 382.28 56.941 363.562 C57.149 362.904 57.357 362.245 57.572 361.567 C61.436 349.087 64.26 335.594 61.941 322.562 C61.611 322.562 61.281 322.562 60.941 322.562 Z M82.941 335.562 C82.271 339.499 81.606 343.437 80.941 347.375 C80.751 348.495 80.56 349.614 80.363 350.768 C80.183 351.841 80.002 352.914 79.816 354.02 C79.649 355.009 79.481 355.999 79.309 357.019 C78.87 359.629 78.87 359.629 78.941 362.562 C79.931 362.562 80.921 362.562 81.941 362.562 C84.2 353.885 85.516 345.52 85.941 336.562 C84.951 336.233 83.961 335.902 82.941 335.562 Z M-76.059 357.562 C-77.825 359.329 -77.584 361.912 -77.882 364.315 C-78.115 366.18 -78.115 366.18 -78.353 368.082 C-78.521 369.466 -78.688 370.85 -78.855 372.234 C-79.032 373.675 -79.209 375.115 -79.386 376.555 C-81.312 392.333 -83.067 408.131 -84.778 423.934 C-85.225 428.053 -85.68 432.171 -86.137 436.29 C-86.494 439.529 -86.846 442.769 -87.197 446.009 C-87.362 447.528 -87.53 449.048 -87.699 450.567 C-88.667 459.255 -89.3 467.813 -89.059 476.562 C-87.574 476.067 -87.574 476.067 -86.059 475.562 C-85.982 474.858 -85.905 474.154 -85.826 473.429 C-85.003 465.858 -84.178 458.288 -83.352 450.718 C-83.032 447.787 -82.712 444.856 -82.393 441.925 C-80.793 427.235 -79.189 412.546 -77.48 397.867 C-77.363 396.85 -77.245 395.833 -77.123 394.785 C-76.583 390.137 -76.038 385.489 -75.482 380.843 C-74.564 373.054 -73.795 365.42 -74.059 357.562 C-74.719 357.562 -75.379 357.562 -76.059 357.562 Z M-282.059 375.562 C-283.326 378.097 -283.43 380.222 -283.719 383.048 C-283.84 384.211 -283.961 385.374 -284.086 386.573 C-284.215 387.853 -284.344 389.134 -284.477 390.453 C-284.616 391.807 -284.755 393.16 -284.894 394.513 C-285.272 398.182 -285.644 401.851 -286.014 405.521 C-286.246 407.807 -286.478 410.093 -286.71 412.378 C-287.593 421.056 -288.47 429.733 -289.34 438.412 C-289.888 443.868 -290.439 449.323 -290.991 454.779 C-291.72 461.992 -292.44 469.205 -293.154 476.42 C-293.422 479.135 -293.694 481.85 -293.969 484.564 C-294.35 488.343 -294.721 492.122 -295.09 495.902 C-295.204 497.017 -295.318 498.132 -295.436 499.28 C-295.534 500.304 -295.632 501.328 -295.732 502.383 C-295.82 503.268 -295.908 504.153 -295.998 505.065 C-296.062 507.715 -295.673 509.992 -295.059 512.562 C-294.399 512.562 -293.739 512.562 -293.059 512.562 C-291.879 510.204 -291.747 508.406 -291.49 505.778 C-291.389 504.767 -291.288 503.757 -291.184 502.716 C-291.077 501.603 -290.97 500.489 -290.859 499.343 C-290.744 498.173 -290.628 497.004 -290.509 495.799 C-290.192 492.584 -289.879 489.368 -289.567 486.152 C-289.239 482.779 -288.907 479.406 -288.575 476.033 C-288.018 470.356 -287.464 464.679 -286.911 459.002 C-286.205 451.75 -285.495 444.498 -284.783 437.247 C-284.168 430.985 -283.555 424.722 -282.943 418.459 C-282.747 416.463 -282.552 414.466 -282.356 412.47 C-281.989 408.715 -281.623 404.961 -281.258 401.206 C-281.151 400.115 -281.044 399.024 -280.933 397.9 C-280.213 390.461 -279.607 383.016 -279.059 375.562 C-280.049 375.562 -281.039 375.562 -282.059 375.562 Z M-301.059 381.562 C-303.909 403.462 -306.065 425.424 -308.103 447.412 C-308.308 449.62 -308.515 451.829 -308.722 454.037 C-309.053 457.576 -309.38 461.114 -309.703 464.654 C-309.882 466.603 -310.064 468.552 -310.246 470.501 C-310.821 476.887 -311.188 483.152 -311.059 489.562 C-309.574 489.067 -309.574 489.067 -308.059 488.562 C-303.913 448.255 -303.913 448.255 -299.941 407.93 C-299.77 406.153 -299.599 404.377 -299.426 402.6 C-299.188 400.154 -298.955 397.708 -298.723 395.262 C-298.62 394.211 -298.62 394.211 -298.515 393.139 C-298.153 389.266 -297.995 385.452 -298.059 381.562 C-299.049 381.562 -300.039 381.562 -301.059 381.562 Z M-261.059 384.562 C-263.345 391.435 -264.153 398.502 -265.117 405.656 C-265.309 407.049 -265.5 408.441 -265.692 409.833 C-266.197 413.499 -266.696 417.167 -267.193 420.834 C-267.689 424.482 -268.192 428.13 -268.693 431.777 C-269.562 438.097 -270.421 444.418 -271.272 450.741 C-271.846 454.996 -272.427 459.25 -273.012 463.504 C-273.29 465.555 -273.567 467.605 -273.844 469.656 C-273.969 470.557 -274.095 471.458 -274.224 472.387 C-274.905 477.497 -275.174 482.407 -275.059 487.562 C-274.069 487.562 -273.079 487.562 -272.059 487.562 C-268.877 464.975 -265.732 442.382 -262.657 419.78 C-262.342 417.475 -262.026 415.17 -261.708 412.865 C-261.261 409.614 -260.819 406.362 -260.379 403.109 C-260.245 402.144 -260.111 401.179 -259.973 400.185 C-259.313 395.259 -258.914 390.533 -259.059 385.562 C-259.719 385.233 -260.379 384.902 -261.059 384.562 Z M69.941 388.562 C68.812 390.936 67.688 393.311 66.566 395.688 C66.091 396.685 66.091 396.685 65.605 397.703 C63.775 401.594 62.212 405.444 60.941 409.562 C61.931 409.892 62.921 410.223 63.941 410.562 C65.261 407.836 66.572 405.107 67.879 402.375 C68.439 401.222 68.439 401.222 69.01 400.045 C70.822 396.24 72.407 392.793 72.941 388.562 C71.951 388.562 70.961 388.562 69.941 388.562 Z M-322.059 408.562 C-323.635 419.662 -324.875 430.78 -325.973 441.937 C-326.249 444.719 -326.536 447.5 -326.822 450.281 C-326.999 452.065 -327.176 453.849 -327.352 455.633 C-327.438 456.457 -327.524 457.281 -327.613 458.13 C-327.999 462.166 -328.17 465.598 -327.059 469.562 C-326.399 469.562 -325.739 469.562 -325.059 469.562 C-323.879 467.202 -323.745 465.393 -323.486 462.765 C-323.386 461.767 -323.286 460.768 -323.183 459.74 C-323.079 458.656 -322.975 457.573 -322.867 456.457 C-322.758 455.344 -322.648 454.232 -322.535 453.086 C-322.304 450.726 -322.074 448.366 -321.847 446.007 C-321.499 442.407 -321.144 438.808 -320.787 435.209 C-320.563 432.917 -320.34 430.624 -320.117 428.332 C-320.011 427.259 -319.905 426.186 -319.795 425.08 C-319.299 419.88 -318.934 414.786 -319.059 409.562 C-320.049 409.233 -321.039 408.902 -322.059 408.562 Z M33.941 432.562 C32.436 434.243 32.436 434.243 30.879 436.438 C20.368 450.349 20.368 450.349 15.941 452.562 C16.271 453.882 16.601 455.202 16.941 456.562 C28.278 447.251 28.278 447.251 36.941 435.562 C36.611 434.572 36.281 433.582 35.941 432.562 C35.281 432.562 34.621 432.562 33.941 432.562 Z M24.254 456.875 C10.575 469.643 -5.612 479.752 -22.059 488.562 C-22.059 489.553 -22.059 490.543 -22.059 491.562 C-3.067 489.042 19.272 468.137 31.941 454.562 C31.446 453.572 31.446 453.572 30.941 452.562 C27.761 452.562 26.502 454.714 24.254 456.875 Z M-2.344 468.602 C-15.478 478.088 -30.15 484.416 -45.059 490.562 C-45.059 491.553 -45.059 492.543 -45.059 493.562 C-38.559 492.393 -32.926 490.447 -26.996 487.562 C-26.18 487.17 -25.363 486.778 -24.522 486.374 C-13.358 480.889 -2.813 474.285 6.941 466.562 C6.446 465.572 6.446 465.572 5.941 464.562 C2.045 464.562 0.643 466.301 -2.344 468.602 Z M39.941 463.562 C35.418 466.401 31.704 469.543 27.879 473.25 C7.833 492.104 -15.235 501.479 -42.059 505.562 C-42.059 506.222 -42.059 506.883 -42.059 507.562 C-32.713 511.882 -21.452 509.944 -12.059 506.562 C9.107 497.826 26.24 482.883 40.941 465.562 C40.446 464.572 40.446 464.572 39.941 463.562 Z M-39.246 479.562 C-40.333 479.934 -41.419 480.305 -42.539 480.688 C-43.786 481.121 -43.786 481.121 -45.059 481.562 C-45.059 482.553 -45.059 483.543 -45.059 484.562 C-39.604 483.994 -35.148 482.616 -30.059 480.562 C-30.059 479.572 -30.059 478.582 -30.059 477.562 C-33.527 477.562 -35.971 478.436 -39.246 479.562 Z M-56.059 497.562 C-56.059 500.533 -56.059 503.503 -56.059 506.562 C-55.069 506.562 -54.079 506.562 -53.059 506.562 C-52.374 503.705 -52.374 503.705 -52.059 500.562 C-52.719 499.572 -53.379 498.582 -54.059 497.562 C-54.719 497.562 -55.379 497.562 -56.059 497.562 Z M-54.059 514.562 C-57.438 519.019 -58.023 523.697 -58.934 529.062 C-60.287 536.459 -62.061 543.097 -65.008 550.031 C-65.914 552.213 -66.564 554.258 -67.059 556.562 C-61.262 554.998 -61.262 554.998 -57.184 550.938 C-53.181 538.931 -52.91 527.113 -53.059 514.562 C-53.389 514.562 -53.719 514.562 -54.059 514.562 Z M-347.059 550.562 C-346.776 557.202 -344.497 561.63 -340.059 566.562 C-315.365 588.58 -278.303 597.434 -246.684 603.438 C-245.561 603.653 -244.438 603.868 -243.281 604.09 C-232.474 606.298 -232.474 606.298 -221.996 604.125 C-221.037 603.352 -221.037 603.352 -220.059 602.562 C-220.059 602.232 -220.059 601.903 -220.059 601.562 C-221.357 601.644 -222.655 601.725 -223.992 601.809 C-239.438 602.467 -252.485 599.466 -267.059 594.562 C-268.131 594.204 -269.204 593.846 -270.31 593.477 C-297.43 584.304 -327.498 573.49 -346.059 550.562 C-346.389 550.562 -346.719 550.562 -347.059 550.562 Z M-74.246 564.375 C-101.011 581.614 -132.789 590.967 -164.059 595.562 C-164.059 596.222 -164.059 596.883 -164.059 597.562 C-154.988 602.481 -144.17 600.599 -134.646 597.872 C-115.663 591.929 -98.256 582.626 -81.434 572.125 C-80.658 571.641 -79.882 571.158 -79.083 570.659 C-74.902 567.975 -71.421 565.224 -68.059 561.562 C-70.847 561.562 -71.951 562.777 -74.246 564.375 Z M-205.059 602.562 C-205.059 603.222 -205.059 603.883 -205.059 604.562 C-199.079 607.552 -193.505 607.186 -187.309 605.25 C-184.166 604.099 -181.463 602.967 -179.059 600.562 C-179.059 599.903 -179.059 599.242 -179.059 598.562 C-187.915 598.139 -196.966 598.516 -205.059 602.562 Z " fill="#000000" transform="translate(618.05859375,135.4375)"/>
<path d="M0 0 C3.128 2.033 3.809 3.403 4.938 6.938 C5.012 10.599 4.214 12.13 2 15 C-1.49 16.745 -5.192 16.564 -9 16 C-12.125 14 -12.125 14 -14 11 C-14.413 7.138 -13.838 4.117 -11.5 1 C-7.657 -0.537 -4.074 -0.667 0 0 Z M-7 4 C-7.66 5.98 -8.32 7.96 -9 10 C-7.173 12.249 -7.173 12.249 -4.5 12.25 C-1.827 12.249 -1.827 12.249 0 10 C-0.29 6.693 -0.29 6.693 -2 4 C-3.666 3.959 -5.334 3.957 -7 4 Z " fill="#000000" transform="translate(416,142)"/>
<path d="M0 0 C2.176 0.348 2.176 0.348 4 1 C1.799 5.067 -0.788 7.94 -4.125 11.125 C-8.701 15.574 -12.769 20.249 -16.75 25.246 C-19.094 28.115 -21.55 30.839 -24.062 33.562 C-27.792 37.624 -31.31 41.774 -34.715 46.109 C-38.292 50.635 -41.955 55.092 -45.609 59.555 C-46.417 60.547 -46.417 60.547 -47.242 61.559 C-47.725 62.15 -48.209 62.741 -48.707 63.349 C-49.878 64.845 -50.946 66.419 -52 68 C-53.32 67.67 -54.64 67.34 -56 67 C-54.546 62.497 -52.021 59.365 -48.938 55.875 C-47.934 54.716 -46.932 53.555 -45.93 52.395 C-45.432 51.82 -44.934 51.246 -44.421 50.655 C-42.422 48.327 -40.492 45.948 -38.562 43.562 C-30.966 34.241 -23.108 25.144 -15.023 16.242 C-13.091 14.101 -11.198 11.932 -9.312 9.75 C-8.211 8.498 -7.107 7.248 -6 6 C-5.464 5.385 -4.928 4.77 -4.375 4.137 C-2.812 2.438 -2.812 2.438 0 0 Z " fill="#000000" transform="translate(640,182)"/>
<path d="M0 0 C2.778 0.958 3.922 1.889 5.625 4.312 C6.911 7.762 7.446 10.623 7.938 14.25 C8.97 21.6 10.24 29.024 16.125 34.062 C21.164 37.459 24.997 37.608 31 37 C38.997 34.762 43.432 28.449 48.188 22.062 C50 20 50 20 51.875 19 C55.413 19 57.132 19.925 60 22 C60.734 24.066 60.734 24.066 61.312 26.438 C62.11 29.375 62.504 30.643 65.004 32.441 C73.85 36.391 82.723 36.78 92.156 34.473 C96.249 32.901 99.339 30.231 102.52 27.305 C105.44 24.731 108.176 24.6 112.02 24.656 C114 25 114 25 116.562 27.125 C118 30 118 30 118.125 33 C116.656 36.916 114.534 38.925 111 41 C107.189 42.301 103.327 43.066 99.375 43.812 C97.849 44.136 97.849 44.136 96.293 44.467 C83.657 46.989 70.656 47.472 59.355 40.328 C57.871 39.255 56.414 38.142 55 36.977 C52.97 35.717 52.97 35.717 50.484 36.652 C48.153 37.917 46.275 39.237 44.25 40.938 C36.866 46.583 29.179 47.966 20 47 C13.438 45.724 8.987 42.285 5 37 C-0.741 27.63 -4.462 17.124 -3 6 C-1.5 2.438 -1.5 2.438 0 0 Z " fill="#000000" transform="translate(320,166)"/>
<path d="M0 0 C4.03 1.695 7.118 4.48 10.438 7.25 C29.448 22.762 51.088 35.235 72 48 C71.67 48.99 71.34 49.98 71 51 C66.925 50.321 63.627 48.26 60.125 46.188 C59.413 45.767 58.701 45.347 57.968 44.914 C50.056 40.157 42.372 35.05 34.688 29.938 C33.733 29.304 33.733 29.304 32.759 28.658 C21.121 20.924 9.991 12.632 -1 4 C-0.67 2.68 -0.34 1.36 0 0 Z " fill="#000000" transform="translate(225,198)"/>
<path d="M0 0 C4.875 0.875 4.875 0.875 6 2 C6.234 3.849 6.413 5.705 6.562 7.562 C6.688 9.08 6.688 9.08 6.816 10.629 C6.877 11.411 6.938 12.194 7 13 C7.519 12.772 8.039 12.544 8.574 12.309 C12.745 10.59 15.533 9.464 20 11 C20.688 12.812 20.688 12.812 21 15 C18.943 17.584 16.898 18.625 13.812 19.688 C13.097 19.939 12.382 20.19 11.645 20.449 C11.102 20.631 10.559 20.813 10 21 C10.456 24.101 11.116 26.215 12.625 29 C14.144 32.315 14.1 33.6 13 37 C10.525 37.495 10.525 37.495 8 38 C7.178 36.777 6.368 35.546 5.562 34.312 C5.11 33.628 4.658 32.944 4.191 32.238 C2.903 29.818 2.411 27.699 2 25 C1.359 25.217 0.719 25.433 0.059 25.656 C-5.136 27.329 -9.537 28.569 -15 28 C-15.66 27.34 -16.32 26.68 -17 26 C-16.67 24.35 -16.34 22.7 -16 21 C-11.38 19.68 -6.76 18.36 -2 17 C-2.041 14.752 -2.082 12.504 -2.125 10.188 C-2.25 3.375 -2.25 3.375 0 0 Z " fill="#000000" transform="translate(640,202)"/>
<path d="M0 0 C0 0.99 0 1.98 0 3 C-1.237 3.45 -2.475 3.9 -3.75 4.363 C-32.751 15.067 -60.315 28.946 -87.087 44.334 C-90.026 46.015 -92.975 47.675 -95.93 49.328 C-107.783 55.967 -119.468 62.816 -131 70 C-131.99 69.01 -132.98 68.02 -134 67 C-129.417 63.035 -124.338 60.106 -119.125 57.062 C-118.158 56.495 -117.19 55.927 -116.193 55.342 C-93.852 42.275 -71.325 29.277 -48.023 17.983 C-46.617 17.3 -45.214 16.612 -43.812 15.919 C-5.751 -2.875 -5.751 -2.875 0 0 Z " fill="#000000" transform="translate(735,229)"/>
<path d="M0 0 C1.268 0.124 1.268 0.124 2.562 0.25 C5.016 3.931 4.791 6.694 4.688 10.938 C4.678 11.639 4.669 12.341 4.66 13.064 C4.637 14.793 4.601 16.522 4.562 18.25 C5.131 18.106 5.699 17.961 6.285 17.812 C11.123 16.649 15.55 15.841 20.562 16.25 C21.222 16.91 21.882 17.57 22.562 18.25 C22.188 20.875 22.188 20.875 21.562 23.25 C16.245 24.492 10.98 25.558 5.562 26.25 C8.368 40.893 8.368 40.893 14.562 54.25 C14.688 57.438 14.688 57.438 14.562 60.25 C12.088 60.745 12.088 60.745 9.562 61.25 C1.48 51.65 -0.199 41.298 -2.438 29.25 C-2.987 29.376 -3.536 29.503 -4.102 29.633 C-6.608 30.203 -9.116 30.758 -11.625 31.312 C-12.489 31.512 -13.354 31.711 -14.244 31.916 C-22.345 33.685 -22.345 33.685 -26.438 32.25 C-27.438 31.25 -27.438 31.25 -27.5 28.688 C-27.479 27.883 -27.459 27.079 -27.438 26.25 C-22.161 24.694 -16.859 23.365 -11.5 22.125 C-10.721 21.943 -9.942 21.761 -9.139 21.574 C-7.239 21.131 -5.338 20.69 -3.438 20.25 C-3.445 19.395 -3.445 19.395 -3.453 18.522 C-3.474 15.952 -3.487 13.382 -3.5 10.812 C-3.508 9.915 -3.517 9.017 -3.525 8.092 C-3.53 6.811 -3.53 6.811 -3.535 5.504 C-3.543 4.318 -3.543 4.318 -3.551 3.108 C-3.376 0.238 -2.865 0.294 0 0 Z " fill="#000000" transform="translate(222.4375,235.75)"/>
<path d="M0 0 C7.634 2.937 7.634 2.937 10.223 6.211 C11.152 10.329 11.65 12.898 10.348 16.898 C5.887 21.753 0.659 24.486 -5.965 24.836 C-11.082 24.581 -13.339 22.914 -16.777 19.211 C-18.116 16.534 -17.983 14.387 -18.027 11.398 C-18.053 10.361 -18.079 9.323 -18.105 8.254 C-17.734 4.812 -16.822 2.976 -14.777 0.211 C-10.308 -2.024 -4.676 -1.328 0 0 Z M-10.777 3.211 C-12.912 5.674 -13.823 7.411 -13.637 10.699 C-13.167 13.315 -12.72 15.723 -11.777 18.211 C-8.152 20.628 -7.062 20.846 -2.777 20.211 C0.598 18.611 3.531 16.814 6.223 14.211 C6.978 10.952 6.978 10.952 6.223 8.211 C0.444 4.954 -4.156 3.518 -10.777 3.211 Z " fill="#000000" transform="translate(511.77734375,252.7890625)"/>
<path d="M0 0 C4.855 2.046 9.057 4.399 11.707 9.141 C12.846 12.884 12.896 14.633 11.52 18.328 C9.705 21.143 8.522 22.41 5.707 24.141 C1.983 24.83 -1.762 24.742 -5.543 24.766 C-6.555 24.811 -7.567 24.856 -8.609 24.902 C-14.14 24.953 -17.56 24.514 -21.84 20.852 C-28.151 14.583 -28.151 14.583 -28.508 10.957 C-27.889 5.932 -27.124 2.753 -23.293 -0.859 C-15.896 -5.267 -7.588 -2.766 0 0 Z M-21.293 4.141 C-23.448 7.373 -23.762 8.392 -23.293 12.141 C-22.084 14.017 -22.084 14.017 -20.293 15.141 C-19.303 15.141 -18.313 15.141 -17.293 15.141 C-16.963 16.461 -16.633 17.781 -16.293 19.141 C-11.273 20.063 -7.309 19.933 -2.293 19.141 C-0.855 19.164 0.583 19.206 2.02 19.266 C3.236 19.224 4.453 19.183 5.707 19.141 C7.997 16.273 7.997 16.273 7.832 12.766 C6.458 8.339 5.114 7.365 1.168 5.207 C-6.375 1.938 -14.111 -0.962 -21.293 4.141 Z " fill="#000000" transform="translate(467.29296875,268.859375)"/>
<path d="M0 0 C5.067 0.613 9.822 1.682 14.711 3.16 C15.456 3.382 16.201 3.603 16.969 3.831 C19.439 4.569 21.907 5.315 24.375 6.062 C25.231 6.321 26.088 6.579 26.97 6.845 C42.349 11.489 57.656 16.356 72.938 21.312 C73.967 21.644 74.996 21.976 76.056 22.317 C88.61 26.37 100.894 30.75 113 36 C112.67 37.32 112.34 38.64 112 40 C111.216 39.715 110.432 39.43 109.625 39.136 C77.102 27.366 44.213 16.338 10.829 7.257 C9.818 6.98 8.807 6.703 7.766 6.418 C6.907 6.189 6.049 5.96 5.165 5.723 C3 5 3 5 0 3 C0 2.01 0 1.02 0 0 Z " fill="#000000" transform="translate(155,282)"/>
<path d="M0 0 C3.486 3.486 4.885 5.853 5.375 10.75 C5.351 14.101 4.756 15.849 2.625 18.438 C-0.94 21.917 -2.462 22.138 -7.312 22.125 C-8.257 22.128 -9.202 22.13 -10.176 22.133 C-12.89 22.005 -15.345 21.544 -18 21 C-19.155 21.041 -20.31 21.082 -21.5 21.125 C-25.355 20.987 -26.979 20.33 -30 18 C-32.845 13.732 -32.616 10.008 -32 5 C-30.155 0.942 -28.686 -0.588 -24.875 -2.875 C-16.405 -5.885 -7.812 -4.022 0 0 Z M-27 5 C-28.037 8.63 -28.408 10.864 -27.125 14.438 C-24.158 16.619 -21.864 16.182 -18.273 16.008 C-15.251 15.997 -12.829 16.994 -10 18 C-6.663 18.334 -4.709 18.345 -1.688 16.875 C0.663 14.263 0.93 12.489 1 9 C-0.326 5.435 -1.656 4.217 -4.875 2.188 C-12.365 -0.597 -21.212 -0.861 -27 5 Z " fill="#000000" transform="translate(535,296)"/>
<path d="M0 0 C3.5 1.312 3.5 1.312 6 3 C6.619 3.392 7.238 3.784 7.875 4.188 C9.784 7.264 9.637 10.501 9 14 C6.558 17.053 2.925 17.996 -0.84 18.848 C-5.29 19.161 -9.268 17.42 -12.672 14.629 C-14.975 11.805 -15.185 8.513 -15 5 C-12.218 -1.676 -6.267 -0.845 0 0 Z M-10 5 C-10.419 7.331 -10.419 7.331 -10 10 C-8.029 12.544 -8.029 12.544 -5 14 C-0.741 13.853 1.442 13.372 5 11 C3.544 7.16 1.718 5.69 -2 4 C-6.155 3.672 -6.155 3.672 -10 5 Z " fill="#000000" transform="translate(423,295)"/>
<path d="M0 0 C2.998 2.332 4.999 4.287 5.656 8.117 C5.687 8.945 5.718 9.772 5.75 10.625 C5.983 13.955 6.23 15.71 7.75 18.75 C9.872 22.993 10.373 27.025 10.25 31.75 C8.698 36.407 6.569 39.351 2.25 41.75 C-0.627 42.031 -3.046 41.788 -5.75 40.75 C-7.375 38.375 -7.375 38.375 -8.75 35.75 C-11.783 33.983 -11.783 33.983 -14.75 32.75 C-15.75 31.75 -15.75 31.75 -15.812 28.688 C-15.792 27.718 -15.771 26.749 -15.75 25.75 C-16.74 25.42 -17.73 25.09 -18.75 24.75 C-20.3 21.65 -20.04 19.171 -19.75 15.75 C-18.417 14.083 -17.083 12.417 -15.75 10.75 C-15.709 8.417 -15.708 6.083 -15.75 3.75 C-12.442 -2.235 -5.943 -2.701 0 0 Z M-10.75 3.75 C-10.75 5.07 -10.75 6.39 -10.75 7.75 C-4.81 8.74 -4.81 8.74 1.25 9.75 C-0.226 4.69 -0.226 4.69 -3.75 2.75 C-6.551 2.545 -8.225 2.487 -10.75 3.75 Z M-15.75 17.75 C-15.926 19.963 -15.926 19.963 -14.75 21.75 C-13.265 22.74 -13.265 22.74 -11.75 23.75 C-11.062 26.875 -11.062 26.875 -10.75 29.75 C-8.77 30.08 -6.79 30.41 -4.75 30.75 C-4.09 32.73 -3.43 34.71 -2.75 36.75 C-0.376 37.084 -0.376 37.084 2.25 36.75 C5.119 34.376 5.254 32.712 5.688 29 C5.443 23.047 2.923 18.558 -1.062 14.25 C-7.232 10.807 -11.682 12.157 -15.75 17.75 Z " fill="#000000" transform="translate(491.75,311.25)"/>
<path d="M0 0 C4.309 2.237 7.157 4.448 9 9 C8.932 12.398 8.586 14.243 6.5 16.938 C2.583 18.602 -0.925 17.961 -5 17 C-8.6 15.315 -9.775 14.337 -12 11 C-12.614 6.964 -12.344 5.479 -9.938 2.125 C-6.225 -0.561 -4.498 -0.71 0 0 Z M-6 5 C-6.33 6.65 -6.66 8.3 -7 10 C-4.288 12.603 -3.109 12.995 0.75 13.188 C2.359 13.095 2.359 13.095 4 13 C3.733 10.066 3.733 10.066 3 7 C-0.435 4.71 -1.985 4.822 -6 5 Z " fill="#000000" transform="translate(400,316)"/>
<path d="M0 0 C4.764 2.39 8.211 5.163 10.266 10.137 C10.9 14.295 11.265 18.293 9.211 22.082 C7.455 24.233 5.76 25.889 3.266 27.137 C0.957 27.206 -1.332 27.134 -3.641 27.074 C-5.795 26.992 -5.795 26.992 -7.734 28.137 C-11.346 28.538 -13.207 28.451 -16.359 26.574 C-18.772 24.098 -20.178 21.83 -21.754 18.793 C-22.75 16.918 -22.75 16.918 -24.984 15.137 C-26.734 13.137 -26.734 13.137 -27.484 9.887 C-26.39 4.414 -23.047 1.518 -18.734 -1.863 C-11.847 -4.159 -6.457 -2.822 0 0 Z M-21.734 7.137 C-23.129 9.039 -23.129 9.039 -22.734 11.137 C-20.506 13.616 -20.506 13.616 -17.734 16.137 C-17.074 17.209 -16.414 18.282 -15.734 19.387 C-14.007 22.285 -14.007 22.285 -11.297 23.074 C-8.59 23.14 -6.378 22.703 -3.734 22.137 C-2.538 22.219 -1.342 22.302 -0.109 22.387 C3.35 22.506 3.35 22.506 5.266 20.074 C6.605 16.141 6.522 14.115 5.266 10.137 C1.473 5.695 -3.005 2.644 -8.832 1.852 C-14.902 1.456 -17.643 2.636 -21.734 7.137 Z " fill="#000000" transform="translate(445.734375,322.86328125)"/>
<path d="M0 0 C3.718 1.28 6.429 1.828 10.35 1.221 C14.049 0.689 14.049 0.689 17.299 2.627 C23.012 8.2 25.166 15.538 25.361 23.314 C25.316 30.722 23.129 36.569 19.049 42.689 C17.441 43.442 15.825 44.181 14.175 44.837 C11.791 45.793 9.466 46.846 7.131 47.916 C5.838 48.504 5.838 48.504 4.52 49.104 C2.735 49.917 0.951 50.732 -0.832 51.549 C-2.119 52.133 -2.119 52.133 -3.432 52.729 C-4.204 53.081 -4.976 53.434 -5.772 53.797 C-10.405 55.694 -14.956 56.264 -19.951 55.689 C-24.521 53.551 -24.521 53.551 -25.951 50.689 C-25.977 48.71 -25.997 46.731 -26.014 44.752 C-26.357 39.188 -27.51 36.32 -31.014 32.002 C-34.622 27.55 -36.048 24.66 -35.549 18.9 C-34.588 15.347 -32.488 13.284 -29.951 10.689 C-29.271 9.542 -28.625 8.374 -28.014 7.189 C-21.261 -5.164 -11.76 -4.369 0 0 Z M-21.951 6.689 C-21.951 7.349 -21.951 8.009 -21.951 8.689 C-20.203 8.912 -18.452 9.117 -16.701 9.314 C-15.239 9.488 -15.239 9.488 -13.748 9.666 C-10.729 9.691 -9.542 9.11 -6.951 7.689 C-4.592 7.275 -4.592 7.275 -2.201 7.064 C-1.402 6.99 -0.603 6.915 0.221 6.838 C1.126 6.764 1.126 6.764 2.049 6.689 C-1.818 2.823 -7.925 2.001 -13.201 1.189 C-17.269 1.929 -19.04 3.779 -21.951 6.689 Z M13.049 7.689 C13.519 8.814 13.99 9.938 14.475 11.096 C16.221 15.754 16.799 20.258 17.236 25.189 C17.359 26.423 17.359 26.423 17.484 27.682 C17.682 29.683 17.867 31.686 18.049 33.689 C21.037 28.657 20.638 23.365 20.049 17.689 C19.113 14.443 18.013 11.455 16.049 8.689 C15.059 8.359 14.069 8.029 13.049 7.689 Z M-5.951 11.689 C-5.332 12.411 -4.714 13.133 -4.076 13.877 C-0.805 18.206 0.282 21.818 0.463 27.209 C0.502 28.231 0.54 29.252 0.58 30.305 C0.611 31.36 0.642 32.415 0.674 33.502 C0.713 34.576 0.751 35.651 0.791 36.758 C0.885 39.402 0.971 42.045 1.049 44.689 C1.709 44.689 2.369 44.689 3.049 44.689 C3.074 40.633 3.092 36.576 3.104 32.519 C3.109 31.14 3.116 29.761 3.124 28.381 C3.136 26.396 3.142 24.41 3.146 22.424 C3.152 21.23 3.157 20.036 3.162 18.806 C3.068 16.223 2.815 14.139 2.049 11.689 C-0.591 11.689 -3.231 11.689 -5.951 11.689 Z M4.049 11.689 C4.709 21.919 5.369 32.149 6.049 42.689 C9.185 41.107 9.185 41.107 9.421 38.877 C9.417 37.794 9.417 37.794 9.412 36.689 C9.413 35.889 9.413 35.088 9.414 34.263 C9.388 32.989 9.388 32.989 9.361 31.689 C9.349 30.403 9.349 30.403 9.336 29.091 C9.222 23.079 8.579 17.522 7.049 11.689 C6.059 11.689 5.069 11.689 4.049 11.689 Z M-29.951 17.689 C-31.015 20.523 -31.015 20.523 -30.951 23.689 C-29.387 26.67 -29.387 26.67 -27.076 29.377 C-22.49 35.153 -21.781 38.961 -21.33 46.193 C-21.178 48.858 -21.178 48.858 -18.951 50.689 C-12.882 51.204 -9.441 50.205 -3.951 47.689 C-3.722 44.524 -3.522 41.357 -3.326 38.189 C-3.229 36.859 -3.229 36.859 -3.131 35.502 C-2.751 29.04 -2.808 22.993 -6.451 17.377 C-14.409 12.005 -23.031 10.455 -29.951 17.689 Z M11.049 13.689 C12.049 17.689 12.049 17.689 12.049 17.689 Z M12.049 19.689 C12.049 25.959 12.049 32.229 12.049 38.689 C12.379 38.689 12.709 38.689 13.049 38.689 C13.049 32.419 13.049 26.149 13.049 19.689 C12.719 19.689 12.389 19.689 12.049 19.689 Z " fill="#000000" transform="translate(214.951171875,334.310546875)"/>
<path d="M0 0 C0.99 0 1.98 0 3 0 C2.842 1.195 2.842 1.195 2.68 2.414 C-0.055 23.24 -2.241 44.069 -4 65 C-4.99 64.67 -5.98 64.34 -7 64 C-7.206 54.724 -6.587 45.597 -5.688 36.375 C-5.621 35.676 -5.554 34.976 -5.486 34.256 C-2.733 5.466 -2.733 5.466 0 0 Z " fill="#000000" transform="translate(328,358)"/>
<path d="M0 0 C0.66 0 1.32 0 2 0 C2.277 11.173 1.41 22.187 0.5 33.312 C0.355 35.132 0.21 36.952 0.066 38.771 C-0.284 43.181 -0.64 47.591 -1 52 C-2.32 52 -3.64 52 -5 52 C-4.593 46.183 -4.184 40.367 -3.773 34.55 C-3.634 32.575 -3.495 30.599 -3.357 28.623 C-3.158 25.771 -2.956 22.919 -2.754 20.066 C-2.693 19.194 -2.633 18.322 -2.571 17.423 C-1.429 1.429 -1.429 1.429 0 0 Z " fill="#000000" transform="translate(308,359)"/>
<path d="M0 0 C3.561 1.411 6.706 2.861 9 6 C10.042 9.047 10.125 10.588 9.188 13.688 C8 16 8 16 6 18 C0.535 19.733 -4.008 18.506 -9 16 C-12.006 12.903 -12.148 10.338 -12.188 6.188 C-12.14 4.791 -12.082 3.395 -12 2 C-8.03 -0.215 -4.481 -0.57 0 0 Z M-7 6 C-7.417 8.415 -7.417 8.415 -7 11 C-5.501 12.98 -5.501 12.98 -3 14 C0.626 14.334 0.626 14.334 4 14 C5.252 12.951 5.252 12.951 5.312 10.625 C5.241 7.938 5.241 7.938 3.438 6.188 C0.514 4.763 -4.407 3.407 -7 6 Z " fill="#000000" transform="translate(434,362)"/>
<path d="M0 0 C0.99 0.33 1.98 0.66 3 1 C0.316 26.043 -2.717 51.028 -6 76 C-7.32 76 -8.64 76 -10 76 C-9.393 67.205 -8.532 58.474 -7.441 49.727 C-7.292 48.519 -7.143 47.311 -6.989 46.066 C-6.676 43.536 -6.36 41.007 -6.044 38.478 C-5.561 34.615 -5.088 30.751 -4.615 26.887 C-4.308 24.417 -4 21.947 -3.691 19.477 C-3.482 17.755 -3.482 17.755 -3.268 15.998 C-2.569 10.484 -1.737 5.285 0 0 Z " fill="#000000" transform="translate(362,373)"/>
<path d="M0 0 C1.32 0 2.64 0 4 0 C2.958 12.417 1.58 24.774 -0.062 37.125 C-0.194 38.126 -0.194 38.126 -0.329 39.148 C-0.581 41.06 -0.839 42.971 -1.098 44.883 C-1.247 45.99 -1.397 47.098 -1.551 48.239 C-2 51 -2 51 -3 54 C-4.32 54 -5.64 54 -7 54 C-5.533 40.491 -4.037 26.986 -2.375 13.5 C-2.252 12.487 -2.129 11.474 -2.003 10.43 C-1.886 9.494 -1.769 8.558 -1.648 7.594 C-1.547 6.776 -1.446 5.958 -1.341 5.115 C-1 3 -1 3 0 0 Z " fill="#000000" transform="translate(539,373)"/>
<path d="M0 0 C1.32 0 2.64 0 4 0 C4.227 10.087 3.613 20.032 2.828 30.082 C2.627 32.665 2.434 35.25 2.242 37.834 C1.604 46.284 0.871 54.719 -0.039 63.145 C-0.12 63.908 -0.2 64.671 -0.284 65.458 C-0.879 70.757 -0.879 70.757 -2 73 C-2.99 73 -3.98 73 -5 73 C-4.272 57.248 -3.125 41.535 -1.938 25.812 C-1.749 23.298 -1.561 20.783 -1.373 18.268 C-0.918 12.178 -0.46 6.089 0 0 Z " fill="#000000" transform="translate(507,380)"/>
<path d="M0 0 C-1.688 2.062 -1.688 2.062 -4 4 C-6.75 3.75 -6.75 3.75 -9 3 C-8 1 -8 1 -5.625 -0.188 C-3 -1 -3 -1 0 0 Z " fill="#000000" transform="translate(233,388)"/>
<path d="M0 0 C0.99 0 1.98 0 3 0 C3.144 9.638 2.76 19.194 2.2 28.812 C2.062 31.194 1.93 33.577 1.799 35.959 C1.366 43.66 0.855 51.333 0 59 C-0.99 59 -1.98 59 -3 59 C-3.251 46.099 -2.461 33.36 -1.5 20.5 C-1.355 18.501 -1.21 16.503 -1.066 14.504 C-0.717 9.669 -0.36 4.834 0 0 Z " fill="#000000" transform="translate(384,387)"/>
<path d="M0 0 C4.649 2.052 8.086 4.16 10 9 C10.45 12.6 10.448 14.319 8.438 17.375 C5.045 19.637 3.021 19.477 -1 19 C-5.257 17.701 -7.499 16.552 -10.5 13.25 C-12.349 9.243 -12.192 7.212 -11 3 C-8.71 -1.175 -4.22 -0.81 0 0 Z M-7 5 C-7.35 8.148 -7.246 9.62 -5.5 12.312 C-1.872 14.762 0.678 14.288 5 14 C5.419 11.669 5.419 11.669 5 9 C2.088 5.735 0.589 5.039 -3.812 4.75 C-5.39 4.874 -5.39 4.874 -7 5 Z " fill="#000000" transform="translate(457,391)"/>
<path d="M0 0 C-5.188 3.459 -11.914 5.611 -18.188 4.688 C-19.116 4.461 -20.044 4.234 -21 4 C-21 3.34 -21 2.68 -21 2 C-15.005 -0.997 -6.549 -0.106 0 0 Z " fill="#000000" transform="translate(211,393)"/>
<path d="M0 0 C7.012 4.622 7.012 4.622 8.387 8.703 C9.245 13.542 8.532 16.639 5.75 20.812 C0.668 24.2 -5.023 24.849 -11.062 24.75 C-15.871 23.336 -18.155 20.703 -20.625 16.438 C-21.801 11.497 -20.844 7.898 -18.438 3.5 C-13.604 -2.438 -6.877 -2.513 0 0 Z M-15.25 6.812 C-16.677 9.666 -16.56 11.647 -16.25 14.812 C-14.774 17.783 -14.774 17.783 -12.25 19.812 C-7.049 20.78 -2.048 18.762 2.75 16.812 C4.045 15.719 4.045 15.719 4.125 13.062 C3.624 8.724 2.111 7.501 -1.25 4.812 C-7.106 1.813 -10.445 2.398 -15.25 6.812 Z " fill="#000000" transform="translate(437.25,406.1875)"/>
<path d="M0 0 C15.304 -0.427 29.276 0.619 44 5 C43.67 5.99 43.34 6.98 43 8 C42.094 7.795 41.188 7.59 40.254 7.379 C39.036 7.109 37.818 6.84 36.562 6.562 C34.77 6.162 34.77 6.162 32.941 5.754 C25.184 4.175 17.329 3.791 9.438 3.438 C8.068 3.373 8.068 3.373 6.67 3.307 C4.447 3.202 2.223 3.1 0 3 C0 2.01 0 1.02 0 0 Z " fill="#000000" transform="translate(578,419)"/>
<path d="M0 0 C0.99 0.33 1.98 0.66 3 1 C3 1.66 3 2.32 3 3 C-0.96 4.98 -4.92 6.96 -9 9 C-9 7.68 -9 6.36 -9 5 C-2.25 1.125 -2.25 1.125 0 0 Z " fill="#000000" transform="translate(551,426)"/>
<path d="M0 0 C2.622 1.049 3.794 1.649 5.25 4.125 C5.498 4.744 5.745 5.363 6 6 C3.133 5.427 2.139 5.139 0 3 C0 2.01 0 1.02 0 0 Z " fill="#000000" transform="translate(335,432)"/>
<path d="M0 0 C3.785 0.541 5.592 2.076 8 5 C8 5.99 8 6.98 8 8 C4.638 6.559 2.408 4.752 0 2 C0 1.34 0 0.68 0 0 Z " fill="#000000" transform="translate(636,437)"/>
<path d="M0 0 C0.99 0 1.98 0 3 0 C2.404 4.869 0.275 8.593 -2.062 12.812 C-2.44 13.505 -2.817 14.198 -3.205 14.912 C-4.131 16.611 -5.065 18.306 -6 20 C-6.99 20 -7.98 20 -9 20 C-8.404 15.131 -6.275 11.407 -3.938 7.188 C-3.56 6.495 -3.183 5.802 -2.795 5.088 C-1.869 3.389 -0.935 1.694 0 0 Z " fill="#000000" transform="translate(526,442)"/>
<path d="M0 0 C17.109 2.95 33.869 12.784 47 24 C47 24.99 47 25.98 47 27 C43.03 26.414 40.766 24.42 37.688 21.938 C27.361 13.936 16.414 8.688 3.852 5.203 C1 4 1 4 0.086 1.859 C0.058 1.246 0.029 0.632 0 0 Z " fill="#000000" transform="translate(582,442)"/>
<path d="M0 0 C4.423 -0.88 9.037 -0.843 13.211 0.949 C16.013 2.823 17.729 4.56 19.5 7.438 C20.132 10.675 19.961 12.842 19 16 C16.64 18.723 15.224 18.975 11.625 19.375 C6.475 18.842 3.417 17.305 -0.375 13.812 C-2.655 9.866 -2.438 7.527 -2 3 C-1.34 2.01 -0.68 1.02 0 0 Z M3 4 C2.05 6.24 2.05 6.24 2 9 C4.311 11.991 6.017 13.672 9.625 14.875 C12.15 15.153 12.15 15.153 15 14 C15.348 10.872 15.269 9.404 13.5 6.75 C9.992 4.294 7.248 4.283 3 4 Z " fill="#000000" transform="translate(444,449)"/>
<path d="M0 0 C2.955 0.611 5.138 1.53 7.68 3.145 C8.362 3.574 9.044 4.004 9.746 4.447 C10.8 5.123 10.8 5.123 11.875 5.812 C12.917 6.471 12.917 6.471 13.98 7.143 C18.025 9.706 22.026 12.328 26 15 C25.67 15.99 25.34 16.98 25 18 C19.228 14.774 13.642 11.297 8.062 7.75 C7.188 7.196 6.313 6.641 5.412 6.07 C3.274 4.715 1.137 3.358 -1 2 C-0.67 1.34 -0.34 0.68 0 0 Z " fill="#000000" transform="translate(585,463)"/>
<path d="M0 0 C0.66 0.33 1.32 0.66 2 1 C0.858 4.425 0.148 4.878 -2.688 6.938 C-13.129 14.855 -22.671 23.492 -31.938 32.75 C-32.73 33.542 -33.523 34.334 -34.339 35.149 C-38.624 39.475 -42.712 43.881 -46.592 48.575 C-47.057 49.045 -47.521 49.516 -48 50 C-48.66 50 -49.32 50 -50 50 C-48.014 35.455 -20.288 15.264 -9.211 6.633 C-6.164 4.383 -3.119 2.149 0 0 Z " fill="#000000" transform="translate(258,470)"/>
<path d="M0 0 C3.37 2.065 6.218 4.436 8 8 C8.463 12.703 8.647 14.929 6.188 19 C1.512 21.934 -2.622 21.859 -8 21 C-11.281 19.388 -13.145 18.041 -15.438 15.25 C-16.334 11.663 -16.154 8.469 -15 5 C-10.818 -0.019 -6.46 -1.623 0 0 Z M-8 5 C-8.903 6.883 -8.903 6.883 -9.625 9.062 C-9.885 9.796 -10.146 10.529 -10.414 11.285 C-10.607 11.851 -10.801 12.417 -11 13 C-8.063 15.848 -6.497 16.94 -2.375 17.438 C0.885 17.229 0.885 17.229 3 15.875 C4.546 12.976 3.898 11.08 3 8 C1.231 5.3 0.119 5.029 -3.062 4.25 C-5.932 3.749 -5.932 3.749 -8 5 Z " fill="#000000" transform="translate(434,474)"/>
<path d="M0 0 C6.777 3.042 11.375 9.326 16.133 14.855 C18.132 17.151 20.189 19.385 22.25 21.625 C26.433 26.251 30.289 31.083 34.1 36.016 C36.53 39.158 39.009 42.187 41.688 45.125 C44 48 44 48 44 52 C40.013 50.671 38.49 48.055 36.062 44.812 C30.704 37.82 25.067 31.117 19.284 24.475 C18.21 23.241 17.142 22.004 16.074 20.766 C13.483 17.773 10.852 14.834 8.133 11.957 C7.627 11.418 7.121 10.878 6.6 10.323 C5.591 9.25 4.576 8.183 3.554 7.123 C0 3.335 0 3.335 0 0 Z " fill="#000000" transform="translate(578,495)"/>
<path d="M0 0 C4.661 1.703 7.438 3.729 10 8 C10.894 10.895 11 12.872 11 16 C9.562 18.5 9.562 18.5 7 20 C0.613 20.838 -2.776 19.688 -8 16 C-10.259 14.032 -10.896 12.809 -11.277 9.852 C-11.525 3.717 -11.525 3.717 -9.715 1.246 C-6.766 -0.897 -3.45 -0.478 0 0 Z M-6 4 C-7.23 5.036 -7.23 5.036 -7.375 7.25 C-6.826 11.274 -5.179 12.565 -2 15 C1.684 15.885 1.684 15.885 5 16 C5.959 13.805 5.959 13.805 6 11 C3.323 6.651 2.256 5.314 -2.75 4.062 C-3.822 4.042 -4.895 4.021 -6 4 Z " fill="#000000" transform="translate(425,509)"/>
<path d="M0 0 C2.915 2.397 4.455 3.8 5.812 7.312 C6.095 11.607 5.52 14.429 2.812 17.812 C-1.319 19.878 -4.654 20.087 -9.188 19.312 C-12.641 18.033 -15.353 16.356 -17.688 13.438 C-18.634 9.413 -17.614 6.251 -15.938 2.562 C-11.832 -2.717 -5.654 -2.993 0 0 Z M-10.188 3.312 C-10.311 4.447 -10.435 5.581 -10.562 6.75 C-10.769 7.926 -10.975 9.101 -11.188 10.312 C-12.178 10.808 -12.178 10.808 -13.188 11.312 C-11.82 13.278 -10.619 14.191 -8.312 14.84 C-4.112 15.554 -4.112 15.554 -0.188 14.25 C1.281 11.406 1.272 9.461 0.812 6.312 C-0.667 4.264 -0.667 4.264 -3.188 3.312 C-6.855 3.062 -6.855 3.062 -10.188 3.312 Z " fill="#000000" transform="translate(466.1875,515.6875)"/>
<path d="M0 0 C0.99 0 1.98 0 3 0 C1.337 4.865 -1.354 8.901 -4.125 13.188 C-16.481 32.527 -28.655 52.046 -40 72 C-40.99 71.67 -41.98 71.34 -43 71 C-41.72 67.619 -40.26 64.547 -38.418 61.438 C-37.905 60.569 -37.392 59.701 -36.863 58.806 C-36.31 57.88 -35.757 56.954 -35.188 56 C-34.321 54.543 -34.321 54.543 -33.438 53.057 C-22.722 35.098 -11.601 17.401 0 0 Z " fill="#000000" transform="translate(239,516)"/>
<path d="M0 0 C4.106 3.881 7.439 8.055 10.75 12.625 C11.244 13.293 11.737 13.96 12.246 14.648 C14.308 17.473 15.884 19.652 17 23 C14.376 22.629 13.219 22.23 11.368 20.282 C10.851 19.552 10.334 18.822 9.801 18.07 C9.232 17.275 8.663 16.48 8.076 15.66 C7.203 14.405 7.203 14.405 6.312 13.125 C5.422 11.882 5.422 11.882 4.514 10.613 C0.152 4.456 0.152 4.456 -1 1 C-0.67 0.67 -0.34 0.34 0 0 Z " fill="#000000" transform="translate(579,516)"/>
<path d="M0 0 C0.66 0.33 1.32 0.66 2 1 C1.509 5.329 -1.292 8 -4.062 11.125 C-5.065 12.276 -6.066 13.428 -7.066 14.582 C-7.563 15.154 -8.059 15.726 -8.571 16.315 C-11.295 19.527 -13.816 22.902 -16.344 26.27 C-16.89 26.841 -17.437 27.412 -18 28 C-18.99 28 -19.98 28 -21 28 C-19.542 23.467 -16.978 20.322 -13.875 16.812 C-12.886 15.67 -11.897 14.527 -10.91 13.383 C-10.42 12.817 -9.931 12.252 -9.426 11.669 C-6.177 7.867 -3.094 3.928 0 0 Z " fill="#000000" transform="translate(200,525)"/>
<path d="M0 0 C0.99 0 1.98 0 3 0 C4.677 3.099 6.34 6.205 8 9.312 C8.477 10.194 8.954 11.075 9.445 11.982 C9.896 12.83 10.348 13.678 10.812 14.551 C11.441 15.721 11.441 15.721 12.082 16.915 C13 19 13 19 13 22 C9.468 20.823 9.254 20.21 7.52 17.07 C7.078 16.275 6.637 15.48 6.182 14.66 C5.504 13.405 5.504 13.405 4.812 12.125 C4.117 10.882 4.117 10.882 3.408 9.613 C0 3.399 0 3.399 0 0 Z " fill="#000000" transform="translate(578,536)"/>
<path d="M0 0 C0.66 0 1.32 0 2 0 C1.39 4.849 -0.058 9.087 -1.914 13.574 C-2.205 14.292 -2.495 15.01 -2.795 15.75 C-3.733 18.065 -4.679 20.376 -5.625 22.688 C-6.91 25.843 -8.191 29.001 -9.469 32.16 C-9.78 32.93 -10.092 33.7 -10.413 34.493 C-13.123 41.226 -15.64 48.024 -17.87 54.932 C-18.57 56.977 -18.57 56.977 -20 60 C-22.089 60.689 -22.089 60.689 -24 61 C-21.877 53.459 -19.274 46.175 -16.438 38.875 C-15.791 37.203 -15.791 37.203 -15.131 35.496 C-11.995 27.437 -8.755 19.424 -5.438 11.438 C-5.008 10.403 -4.579 9.368 -4.136 8.302 C-1.128 1.128 -1.128 1.128 0 0 Z " fill="#000000" transform="translate(246,543)"/>
<path d="M0 0 C3 2 3 2 3.688 5.125 C3.791 6.074 3.894 7.023 4 8 C3.01 7.67 2.02 7.34 1 7 C-0.188 3.938 -0.188 3.938 -1 1 C-0.67 0.67 -0.34 0.34 0 0 Z " fill="#000000" transform="translate(578,553)"/>
<path d="M0 0 C0.66 0 1.32 0 2 0 C2 2.64 2 5.28 2 8 C1.01 8 0.02 8 -1 8 C-1.042 5.667 -1.041 3.333 -1 1 C-0.67 0.67 -0.34 0.34 0 0 Z " fill="#000000" transform="translate(208,602)"/>
<path d="M0 0 C0.66 0 1.32 0 2 0 C1.688 2.875 1.688 2.875 1 6 C0.01 6.66 -0.98 7.32 -2 8 C-2.33 7.34 -2.66 6.68 -3 6 C-2.066 3.969 -1.068 1.965 0 0 Z " fill="#000000" transform="translate(229,610)"/>
<path d="M0 0 C0.66 0 1.32 0 2 0 C2 2.31 2 4.62 2 7 C1.01 7 0.02 7 -1 7 C-1.043 5 -1.041 3 -1 1 C-0.67 0.67 -0.34 0.34 0 0 Z " fill="#000000" transform="translate(232,623)"/>
<path d="M0 0 C0.99 0 1.98 0 3 0 C2.113 5.151 -1.291 7.587 -5 11 C-5.589 11.547 -6.178 12.093 -6.785 12.656 C-37.367 40.186 -85.389 64.991 -127.5 65.188 C-128.655 65.126 -129.81 65.064 -131 65 C-131 64.01 -131 63.02 -131 62 C-129.739 61.853 -128.479 61.706 -127.18 61.555 C-84.271 56.206 -43.631 39.388 -11 11 C-10.263 10.37 -9.526 9.741 -8.767 9.092 C-7.679 8.157 -7.679 8.157 -6.57 7.203 C-5.91 6.638 -5.251 6.072 -4.571 5.489 C-2.891 4.066 -2.891 4.066 -2 2 C-1.34 2 -0.68 2 0 2 C0 1.34 0 0.68 0 0 Z " fill="#000000" transform="translate(562,703)"/>
</svg>
