<?xml version="1.0" encoding="UTF-8"?>
<!-- Generator: visioncortex VTracer 0.6.0 -->
<svg version="1.1" xmlns="http://www.w3.org/2000/svg" width="847" height="847">
<path d="M0 0 C1.32 0 2.64 0 4 0 C3.326 7.2 2.65 14.4 1.974 21.6 C1.744 24.041 1.516 26.482 1.287 28.923 C-0.058 43.291 -1.444 57.653 -3 72 C-4.32 72 -5.64 72 -7 72 C-5.918 56.221 -4.511 40.487 -2.938 24.75 C-2.806 23.422 -2.806 23.422 -2.671 22.068 C-2.417 19.519 -2.161 16.97 -1.902 14.422 C-1.826 13.66 -1.75 12.899 -1.672 12.114 C-1.255 8.045 -0.722 4.026 0 0 Z " fill="#000000" transform="translate(507,123)"/>
<path d="M0 0 C1.32 0.33 2.64 0.66 4 1 C1.8 10.829 -1.357 20.202 -4.688 29.688 C-5.768 32.781 -6.845 35.876 -7.918 38.973 C-8.183 39.738 -8.448 40.502 -8.722 41.291 C-10.379 46.105 -11.939 50.938 -13.426 55.809 C-13.781 56.97 -14.137 58.131 -14.503 59.327 C-15.154 61.481 -15.791 63.638 -16.413 65.8 C-16.699 66.745 -16.986 67.69 -17.281 68.664 C-17.519 69.483 -17.757 70.303 -18.002 71.147 C-19 73 -19 73 -21.107 73.771 C-21.732 73.847 -22.357 73.922 -23 74 C-22.429 69.272 -21.494 64.996 -19.975 60.486 C-19.557 59.238 -19.14 57.99 -18.711 56.704 C-18.255 55.361 -17.799 54.019 -17.344 52.676 C-16.876 51.283 -16.409 49.89 -15.943 48.497 C-14.719 44.846 -13.488 41.197 -12.255 37.548 C-10.28 31.699 -8.317 25.847 -6.352 19.994 C-5.666 17.955 -4.978 15.917 -4.289 13.879 C-3.872 12.641 -3.455 11.402 -3.025 10.126 C-2.658 9.037 -2.29 7.948 -1.911 6.826 C-1.18 4.558 -0.536 2.319 0 0 Z " fill="#000000" transform="translate(564,125)"/>
<path d="M0 0 C0.99 0.33 1.98 0.66 3 1 C1.635 5.403 -0.083 9.414 -2.145 13.533 C-2.456 14.157 -2.767 14.781 -3.087 15.424 C-4.11 17.473 -5.139 19.52 -6.168 21.566 C-6.889 23.006 -7.609 24.446 -8.329 25.886 C-9.838 28.904 -11.351 31.921 -12.865 34.937 C-14.788 38.765 -16.705 42.596 -18.621 46.427 C-20.109 49.404 -21.6 52.38 -23.092 55.356 C-23.798 56.766 -24.504 58.176 -25.21 59.586 C-29.659 68.475 -34.234 77.276 -39 86 C-39.99 85.67 -40.98 85.34 -42 85 C-41.379 79.966 -39.144 75.89 -36.879 71.43 C-36.46 70.594 -36.041 69.758 -35.61 68.897 C-34.719 67.122 -33.825 65.349 -32.929 63.577 C-31.593 60.936 -30.265 58.291 -28.939 55.645 C-24.196 46.201 -19.365 36.808 -14.408 27.474 C-11.375 21.755 -8.455 15.984 -5.605 10.172 C-3.882 6.679 -2.056 3.308 0 0 Z " fill="#000000" transform="translate(625,139)"/>
<path d="M0 0 C3.093 2.559 3.981 5.215 5.221 8.981 C5.631 10.213 6.042 11.445 6.465 12.714 C6.904 14.062 7.343 15.41 7.781 16.758 C8.24 18.145 8.699 19.531 9.159 20.918 C10.369 24.571 11.569 28.228 12.766 31.886 C13.977 35.58 15.198 39.27 16.418 42.961 C18.6 49.565 20.775 56.172 22.937 62.782 C23.869 65.604 24.831 68.413 25.799 71.222 C27 75 27 75 27 78 C25.515 78.495 25.515 78.495 24 79 C20.512 70.694 17.635 62.2 14.797 53.656 C14.31 52.196 13.822 50.735 13.334 49.274 C12.321 46.236 11.309 43.197 10.299 40.157 C9.003 36.257 7.701 32.36 6.398 28.462 C5.394 25.457 4.393 22.451 3.392 19.444 C2.913 18.006 2.433 16.567 1.952 15.129 C1.284 13.129 0.619 11.128 -0.044 9.127 C-0.423 7.989 -0.801 6.851 -1.192 5.679 C-2 3 -2 3 -2 1 C-1.34 0.67 -0.68 0.34 0 0 Z " fill="#000000" transform="translate(342,141)"/>
<path d="M0 0 C0.66 0 1.32 0 2 0 C2.356 0.662 2.712 1.324 3.079 2.006 C7.061 9.408 11.046 16.809 15.034 24.208 C15.96 25.925 16.885 27.643 17.81 29.361 C19.497 32.492 21.185 35.621 22.875 38.75 C23.41 39.741 23.945 40.732 24.496 41.753 C28.103 48.411 31.827 54.985 35.707 61.488 C37 64 37 64 37 67 C35.68 67 34.36 67 33 67 C32.578 66.206 32.156 65.413 31.722 64.595 C23.766 49.636 15.788 34.692 7.648 19.832 C7.225 19.053 6.802 18.274 6.366 17.471 C5.367 15.663 4.34 13.871 3.298 12.087 C2.738 11.114 2.178 10.14 1.602 9.137 C1.082 8.251 0.562 7.365 0.026 6.452 C-1.111 3.734 -1.063 2.694 0 0 Z " fill="#000000" transform="translate(300,159)"/>
<path d="M0 0 C0.99 0.33 1.98 0.66 3 1 C1.565 5.197 -0.494 8.166 -3.25 11.625 C-7.615 17.169 -11.832 22.807 -16 28.5 C-21.122 35.48 -26.322 42.384 -31.628 49.225 C-34.476 52.909 -37.298 56.613 -40.125 60.312 C-40.706 61.073 -41.288 61.834 -41.887 62.618 C-43.258 64.412 -44.629 66.206 -46 68 C-46.99 67.67 -47.98 67.34 -49 67 C-47.74 63.546 -46.31 60.797 -44.086 57.875 C-43.498 57.097 -42.91 56.319 -42.304 55.517 C-41.668 54.687 -41.031 53.856 -40.375 53 C-39.711 52.124 -39.046 51.247 -38.362 50.344 C-36.247 47.558 -34.125 44.778 -32 42 C-29.978 39.352 -27.956 36.703 -25.935 34.054 C-24.605 32.312 -23.275 30.571 -21.944 28.831 C-16.658 21.903 -11.472 14.905 -6.34 7.863 C-5.797 7.121 -5.254 6.378 -4.695 5.613 C-4.221 4.961 -3.747 4.31 -3.258 3.638 C-2 2 -2 2 0 0 Z " fill="#000000" transform="translate(672,162)"/>
<path d="M0 0 C3.448 1.5 5.824 3.504 8.562 6.062 C12.026 9.238 15.532 12.298 19.188 15.25 C29.314 23.457 39.071 32.093 48.68 40.898 C51.389 43.352 54.161 45.698 57 48 C56.01 48.99 55.02 49.98 54 51 C53.152 50.273 52.304 49.546 51.43 48.797 C50.87 48.317 50.31 47.837 49.733 47.343 C48.479 46.267 47.224 45.192 45.97 44.116 C42.751 41.356 39.531 38.599 36.305 35.848 C30.271 30.698 24.306 25.496 18.441 20.152 C15.777 17.803 13.026 15.591 10.25 13.375 C5.942 9.898 2.421 6.345 -1 2 C-0.67 1.34 -0.34 0.68 0 0 Z " fill="#000000" transform="translate(242,200)"/>
<path d="M0 0 C0.495 1.485 0.495 1.485 1 3 C-0.102 3.796 -1.203 4.591 -2.305 5.387 C-3.024 5.906 -3.743 6.426 -4.485 6.961 C-6.101 8.128 -7.717 9.296 -9.334 10.463 C-13.426 13.418 -17.518 16.374 -21.605 19.336 C-30.937 26.094 -40.292 32.815 -49.735 39.416 C-51.339 40.538 -52.941 41.662 -54.542 42.787 C-57.148 44.616 -59.761 46.434 -62.375 48.25 C-63.19 48.824 -64.006 49.397 -64.845 49.988 C-65.605 50.513 -66.365 51.038 -67.148 51.578 C-67.821 52.046 -68.493 52.515 -69.185 52.997 C-71 54 -71 54 -74 54 C-74 53.01 -74 52.02 -74 51 C-71.711 49.027 -69.446 47.26 -67 45.5 C-66.277 44.969 -65.553 44.438 -64.808 43.89 C-59.323 39.888 -53.747 36.023 -48.131 32.208 C-43.143 28.814 -38.25 25.305 -33.375 21.75 C-26.322 16.623 -19.189 11.621 -12 6.688 C-11.038 6.023 -10.075 5.358 -9.083 4.673 C-8.19 4.063 -7.296 3.453 -6.375 2.824 C-5.578 2.279 -4.782 1.733 -3.961 1.171 C-2 0 -2 0 0 0 Z " fill="#000000" transform="translate(723,208)"/>
<path d="M0 0 C-0.623 4.075 -2.765 6.895 -5.062 10.25 C-5.796 11.328 -6.529 12.405 -7.285 13.516 C-7.851 14.335 -8.417 15.155 -9 16 C-6.031 17.583 -3.1 18.675 0.113 19.664 C17.242 25.063 31.549 30.748 45 43 C45.682 43.601 46.364 44.201 47.066 44.82 C51.546 49.001 55.221 53.728 58.875 58.625 C59.352 59.259 59.829 59.892 60.32 60.545 C63.007 64.239 64.802 67.525 66 72 C66.64 71.93 67.281 71.86 67.94 71.788 C89.895 69.568 117.428 67.599 136.438 80.812 C148.966 91.178 151.936 106.712 153.688 122.188 C154.881 139.149 156.389 160.832 151 177 C150.34 177 149.68 177 149 177 C148.734 176.073 148.469 175.146 148.195 174.191 C147.842 172.994 147.489 171.796 147.125 170.562 C146.603 168.77 146.603 168.77 146.07 166.941 C145.339 163.883 145.339 163.883 143 163 C143.277 163.736 143.554 164.472 143.84 165.23 C144.202 166.206 144.564 167.182 144.938 168.188 C145.477 169.632 145.477 169.632 146.027 171.105 C150.355 183.984 148.264 199.385 142.281 211.473 C141.673 212.595 141.064 213.718 140.438 214.875 C136.277 222.75 135.847 230.904 135.056 239.656 C133.261 259.076 129.359 282.366 113.883 295.844 C105.976 301.984 97.679 301.824 88 301 C81.297 299.67 74.047 297.788 69 293 C65.637 287.874 64.518 282.118 63.387 276.176 C63.184 275.138 63.184 275.138 62.978 274.079 C62.649 272.386 62.324 270.693 62 269 C61.201 269.538 60.402 270.076 59.579 270.63 C43.57 281.398 27.516 292.019 11 302 C9.648 302.824 8.297 303.648 6.945 304.473 C3.315 306.68 -0.337 308.847 -4 311 C-4.653 311.387 -5.306 311.773 -5.979 312.172 C-17.322 318.86 -28.558 325.316 -42 326 C-42.163 326.664 -42.326 327.329 -42.494 328.013 C-44.3 335.035 -46.693 341.562 -49.625 348.188 C-50.065 349.186 -50.505 350.185 -50.959 351.214 C-67.626 388.427 -67.626 388.427 -84 395.25 C-97.656 398.664 -115.264 398.48 -128 392 C-140.205 383.492 -145.27 364.946 -150.279 351.711 C-150.873 350.002 -150.873 350.002 -152 349 C-153.462 349.096 -154.921 349.256 -156.375 349.438 C-185.326 352.218 -213.66 346.191 -241.877 340.431 C-245.201 339.756 -248.528 339.095 -251.855 338.434 C-257.572 337.298 -263.287 336.153 -269 335 C-269.276 335.634 -269.552 336.268 -269.836 336.922 C-271.39 339.695 -273.043 340.066 -276 341 C-274.68 339.02 -273.36 337.04 -272 335 C-275.156 333.879 -275.156 333.879 -279 334 C-281.725 336.01 -283.858 338.389 -286 341 C-286.33 340.01 -286.66 339.02 -287 338 C-285.68 336.68 -284.36 335.36 -283 334 C-283.99 333.67 -284.98 333.34 -286 333 C-287.114 334.145 -287.114 334.145 -288.25 335.312 C-290.426 337.439 -292.522 339.256 -295 341 C-293.557 337.634 -291.667 335.49 -289 333 C-292.093 329.907 -298.894 329.464 -303.113 329.168 C-307.461 329.402 -309.278 330.717 -312.168 333.926 C-315.307 338.019 -318.031 342.346 -320.658 346.781 C-323.72 351.844 -326.393 354.911 -332 357 C-337.033 357.231 -341.792 356.7 -346.734 355.828 C-347.453 355.704 -348.172 355.581 -348.912 355.453 C-350.425 355.191 -351.938 354.925 -353.45 354.656 C-355.728 354.254 -358.008 353.869 -360.289 353.484 C-374.664 350.997 -385.933 348.373 -394.692 335.98 C-408 316.471 -408 316.471 -408 309 C-407.464 309.17 -406.928 309.34 -406.375 309.516 C-400.87 311.218 -395.328 312.749 -389.75 314.188 C-389.077 314.366 -388.404 314.545 -387.711 314.729 C-383.697 315.747 -380.123 316.072 -376 316 C-376.766 315.698 -377.531 315.396 -378.32 315.085 C-381.211 313.941 -384.1 312.788 -386.986 311.63 C-388.83 310.893 -390.677 310.165 -392.523 309.438 C-415.097 300.359 -428.977 285.741 -438.487 263.436 C-443.915 250.116 -448.255 235.464 -448 221 C-445.588 221.688 -445.588 221.688 -443 223 C-442.053 225.224 -442.053 225.224 -441.594 227.988 C-441.318 229.504 -441.318 229.504 -441.037 231.051 C-440.86 232.127 -440.683 233.204 -440.5 234.312 C-437.578 249.952 -433.83 264.498 -420 274 C-410.484 279.308 -399.837 281.305 -389 280 C-385.823 278.618 -384.385 277.761 -382.812 274.652 C-382.544 273.756 -382.276 272.861 -382 271.938 C-377.51 258.396 -377.51 258.396 -372.25 253.375 C-365.803 250.647 -358.626 252.014 -351.867 253.102 C-350.267 253.345 -348.667 253.587 -347.066 253.829 C-346.224 253.959 -345.381 254.088 -344.512 254.222 C-319.41 258.06 -294.192 260.716 -268.943 263.374 C-266.962 263.583 -264.981 263.791 -263 264 C-262.083 264.096 -261.166 264.193 -260.221 264.292 C-257.724 264.556 -255.227 264.824 -252.73 265.094 C-252.019 265.168 -251.308 265.243 -250.575 265.319 C-242.667 266.183 -235.426 267.449 -229.512 273.102 C-226.44 276.959 -224.825 281.46 -223 286 C-222.113 288.101 -221.213 290.195 -220.307 292.288 C-219.697 293.694 -219.094 295.104 -218.498 296.517 C-216.987 300.038 -215.351 302.987 -213 306 C-213 306.66 -213 307.32 -213 308 C-193.406 316.313 -172.175 310.384 -153.164 302.785 C-139.998 297.264 -132.825 289.95 -127 277 C-125.318 272.722 -123.785 268.395 -122.25 264.062 C-112.967 238.523 -100.265 207.757 -74.812 194.438 C-66.887 191.078 -58.687 190.501 -50.332 192.703 C-34.82 199.004 -24.784 213.75 -18.458 228.652 C-14.063 239.547 -11.776 250.319 -10.527 261.945 C-10.285 265.099 -10.285 265.099 -8 267 C-0.347 266.946 5.835 263.638 12.625 260.375 C13.854 259.793 15.083 259.211 16.313 258.629 C20.219 256.774 24.111 254.89 28 253 C28.645 252.688 29.289 252.375 29.953 252.053 C46.032 244.251 61.853 236.148 77.208 226.977 C79 226 79 226 82 225 C83.091 223.194 83.091 223.194 84 221 C84.405 220.283 84.81 219.567 85.227 218.828 C88.976 211.916 91.427 204.912 93.812 197.438 C105.753 160.473 105.753 160.473 120.062 152.312 C124.028 150.734 127.812 149.882 132 151 C134.159 152.397 136.075 153.948 138.043 155.602 C140.877 157.627 143.584 157.795 147 158 C147.66 158.33 148.32 158.66 149 159 C149.075 154.042 149.129 149.084 149.165 144.126 C149.18 142.447 149.2 140.769 149.226 139.091 C149.491 121.755 149.063 101.717 137 88 C136.34 87.67 135.68 87.34 135 87 C135 87.99 135 88.98 135 90 C123.189 93.456 111.343 96.756 99.438 99.875 C98.267 100.185 97.096 100.495 95.889 100.815 C94.79 101.1 93.691 101.386 92.559 101.68 C91.582 101.935 90.606 102.19 89.599 102.453 C87 103 87 103 83 103 C83.315 103.975 83.629 104.949 83.953 105.953 C91.198 129.508 101.273 172.483 89 196 C83.145 202.061 75.902 205.399 68.438 209.125 C65.819 210.45 63.204 211.781 60.59 213.113 C59.94 213.443 59.29 213.773 58.62 214.113 C52.844 217.056 47.166 220.164 41.5 223.312 C34.309 227.27 27.061 231.081 19.688 234.688 C18.846 235.11 18.004 235.533 17.137 235.968 C10.461 239.169 4.039 241.122 -3.25 238.938 C-8.693 236.535 -11.586 232.416 -13.75 227 C-15.624 221.771 -16.114 216.379 -16.395 210.863 C-17.197 196.337 -18.303 181.895 -19.938 167.438 C-20.017 166.715 -20.096 165.992 -20.178 165.247 C-21.132 156.632 -22.449 148.227 -24.416 139.778 C-25 137 -25 137 -25 134 C-27.743 134.625 -30.486 135.252 -33.228 135.881 C-35.597 136.423 -37.966 136.962 -40.336 137.498 C-45.769 138.738 -51.166 140.003 -56.512 141.582 C-67.502 144.793 -76.085 145.116 -87.357 143.372 C-95.551 142.22 -103.845 141.752 -112.098 141.208 C-114.625 141.027 -117.136 140.784 -119.656 140.523 C-127.507 139.921 -134.216 140.893 -141.738 143.27 C-142.438 143.49 -143.138 143.711 -143.859 143.939 C-147.368 145.066 -150.843 146.251 -154.299 147.53 C-165.131 151.371 -174.649 151.191 -186.014 150.236 C-190.118 149.912 -194.225 149.712 -198.337 149.51 C-202.639 149.297 -206.94 149.052 -211.241 148.808 C-213.413 148.686 -215.586 148.568 -217.759 148.453 C-230.216 147.795 -242.522 146.874 -254.86 144.984 C-264.367 143.329 -264.367 143.329 -273.312 146.062 C-275.301 147.223 -275.301 147.223 -277 148 C-277.66 147.67 -278.32 147.34 -279 147 C-278.01 145.68 -277.02 144.36 -276 143 C-279.348 142.719 -282.694 142.468 -286.047 142.254 C-288.56 142.092 -291.072 141.896 -293.578 141.652 C-299.877 141.137 -299.877 141.137 -305.367 143.785 C-307.117 145.777 -308.614 147.742 -310 150 C-310.688 148.313 -310.688 148.313 -311 146 C-309.562 143.25 -309.562 143.25 -308 141 C-318.4 139.913 -328.798 139.028 -339.242 138.492 C-340.048 138.451 -340.855 138.409 -341.685 138.366 C-345.727 138.161 -349.77 137.968 -353.813 137.786 C-362.672 137.366 -371.26 136.589 -380 135 C-379.25 128.375 -379.25 128.375 -377 125 C-399.384 132.682 -423.841 144.384 -437 165 C-435.907 164.381 -434.814 163.762 -433.688 163.125 C-383.015 141.141 -223.364 171.602 -166.684 181.584 C-165.094 181.86 -165.094 181.86 -163.473 182.141 C-162.538 182.306 -161.604 182.471 -160.641 182.642 C-157.995 183.063 -157.995 183.063 -155.282 182.989 C-151.499 183.007 -149.747 185.05 -147.066 187.527 C-138.554 197.714 -136.035 209.041 -137 222 C-139.36 233.088 -145.819 241.292 -155.195 247.434 C-166.611 253.809 -178.543 256.36 -191.5 256.312 C-192.809 256.337 -192.809 256.337 -194.145 256.361 C-200.539 256.366 -205.984 255.135 -212 253 C-212 252.67 -212 252.34 -212 252 C-211.179 251.98 -210.358 251.96 -209.512 251.94 C-206.413 251.861 -203.313 251.774 -200.214 251.683 C-198.235 251.626 -196.255 251.579 -194.275 251.531 C-183.216 251.195 -173.476 250.393 -163.625 245.125 C-162.953 244.786 -162.282 244.447 -161.59 244.098 C-152.561 239.433 -146.73 233.152 -143.125 223.562 C-140.454 214.319 -141.832 205.613 -146 197 C-149.047 192.72 -151.918 188.694 -157 187 C-156.856 187.632 -156.711 188.263 -156.562 188.914 C-154.43 199.192 -152.678 211.428 -158 221 C-163.104 228.38 -168.72 232.486 -177.469 234.595 C-180.037 235.057 -182.599 235.423 -185.188 235.75 C-186.108 235.879 -187.029 236.009 -187.977 236.142 C-193.219 236.829 -198.085 236.999 -203.375 236.625 C-210.097 236.401 -214.306 238.902 -219.677 242.624 C-249.753 263.431 -319.423 243.665 -353.938 238.812 C-355.182 238.639 -356.426 238.465 -357.708 238.285 C-361.212 237.791 -364.714 237.284 -368.215 236.77 C-369.773 236.546 -369.773 236.546 -371.363 236.319 C-372.792 236.103 -372.792 236.103 -374.25 235.882 C-375.076 235.759 -375.901 235.637 -376.752 235.511 C-379.082 234.981 -380.917 234.156 -383 233 C-383.25 230.75 -383.25 230.75 -383 228 C-381 225.812 -381 225.812 -379 224 C-379 223.34 -379 222.68 -379 222 C-386.077 215.649 -395.522 214.099 -404.488 212.078 C-407.81 211.325 -410.886 210.413 -414 209 C-413.01 208.34 -412.02 207.68 -411 207 C-405.157 202.105 -401.396 195.189 -399 188 C-398.879 185.69 -398.825 183.376 -398.812 181.062 C-398.798 179.837 -398.784 178.611 -398.77 177.348 C-398.985 174.225 -399.18 172.51 -401 170 C-404.08 168.609 -404.08 168.609 -407.312 170.375 C-412.975 173.842 -416.003 179.462 -418.375 185.5 C-419.791 193.428 -418.969 199.524 -416 207 C-422.62 204.163 -427.467 197.869 -430.438 191.438 C-432.901 184.591 -432.821 177.201 -433 170 C-440.085 177.249 -444.19 185.372 -444.625 195.625 C-444.218 204.352 -441.06 210.36 -434.812 216.375 C-426.658 223.016 -418.259 224.506 -408.027 225.508 C-406.529 225.751 -406.529 225.751 -405 226 C-404.67 226.66 -404.34 227.32 -404 228 C-411.908 230.636 -420.775 229.541 -428.367 226.387 C-437.732 221.454 -443.777 214.592 -448.375 205.188 C-450.268 195.532 -448.973 186.964 -445 178 C-444.237 176.928 -443.474 175.855 -442.688 174.75 C-440.826 171.717 -440.867 171.3 -441.438 168 C-441.683 167.072 -441.683 167.072 -441.934 166.125 C-442.128 159.894 -436.586 154.826 -432.637 150.578 C-416.633 134.93 -394.471 123.797 -372.808 118.722 C-363.455 116.527 -354.633 112.879 -345.699 109.396 C-334.231 104.927 -322.729 100.728 -311 97 C-311.322 96.285 -311.645 95.569 -311.977 94.832 C-314.074 89.028 -314.003 82.431 -311.5 76.75 C-308.448 71.472 -303.787 67.687 -298.625 64.562 C-293.002 63.358 -287.95 63.08 -282.688 65.562 C-279.593 68.369 -276.95 71.281 -275 75 C-275 75.99 -275 76.98 -275 78 C-270.556 75.846 -268.034 72.854 -264.941 69.141 C-262.996 66.996 -260.964 65.345 -258.688 63.562 C-253.681 59.265 -250.767 54.054 -247.626 48.342 C-242.632 39.269 -237.893 33.163 -228.812 27.938 C-227.499 27.169 -227.499 27.169 -226.159 26.385 C-205.004 14.375 -181.906 10.422 -158 8 C-157.105 7.902 -156.209 7.804 -155.287 7.703 C-143.232 6.564 -131.096 6.802 -119 6.812 C-117.792 6.813 -116.583 6.813 -115.338 6.813 C-97.466 6.832 -79.791 7.181 -62 9 C-60.841 9.112 -59.682 9.225 -58.488 9.341 C-45.941 10.571 -33.518 12.023 -21.16 14.547 C-17.421 15.157 -17.421 15.157 -14 14 C-11.908 11.575 -11.908 11.575 -10 8.625 C-4.174 0 -4.174 0 0 0 Z M-215 26 C-215.33 26.66 -215.66 27.32 -216 28 C-214.765 27.867 -213.53 27.734 -212.258 27.598 C-210.547 27.419 -208.836 27.241 -207.125 27.062 C-206.322 26.975 -205.519 26.888 -204.691 26.799 C-189.627 25.246 -174.554 24.839 -159.422 24.832 C-157.678 24.829 -155.934 24.825 -154.19 24.822 C-150.549 24.816 -146.909 24.814 -143.268 24.815 C-139.625 24.815 -135.982 24.808 -132.339 24.794 C-46.389 24.474 -46.389 24.474 -28 32 C-26.504 32.49 -25.004 32.972 -23.5 33.438 C-20.444 34.421 -17.794 35.613 -15 37.188 C-11.267 39.15 -8.488 39.139 -4.344 38.969 C13.755 39.21 29.667 57.171 41.477 69.18 C45.499 73.403 48.763 77.981 51.875 82.902 C53.937 85.375 53.937 85.375 57.625 85.379 C60.864 85.212 60.864 85.212 63 84 C64.89 78.998 63.094 74.678 61 70 C45.977 44.492 23.05 30.319 -5 23 C-65.336 7.737 -157.347 -1.886 -215 26 Z M-236.156 39.997 C-239.056 43.147 -240.705 46.678 -242.562 50.5 C-249.136 62.978 -259.43 72.099 -269.609 81.623 C-271.963 83.964 -274.05 86.313 -276 89 C-276 89.66 -276 90.32 -276 91 C-275.452 90.97 -274.904 90.939 -274.339 90.908 C-261.377 90.219 -248.436 89.91 -235.457 89.938 C-234.742 89.939 -234.027 89.94 -233.29 89.942 C-228.131 89.954 -222.972 89.976 -217.812 90 C-212.607 90.024 -207.401 90.044 -202.195 90.056 C-200.154 90.062 -198.113 90.075 -196.072 90.088 C-190.036 90.103 -184.129 89.962 -178.12 89.371 C-173.422 88.959 -169.679 89.238 -165.148 90.466 C-161.254 91.434 -157.278 91.589 -153.285 91.852 C-152.389 91.915 -151.494 91.979 -150.571 92.045 C-148.689 92.177 -146.808 92.307 -144.926 92.433 C-142.073 92.624 -139.221 92.827 -136.369 93.031 C-134.529 93.16 -132.688 93.287 -130.848 93.414 C-129.589 93.503 -129.589 93.503 -128.306 93.594 C-124.043 93.876 -119.783 94.075 -115.512 94.162 C-114.697 94.18 -113.881 94.198 -113.041 94.217 C-110.769 94.189 -110.769 94.189 -108.957 91.988 C-108.579 91.105 -108.202 90.222 -107.812 89.312 C-104.263 82.313 -100.389 79.628 -93 77.188 C-84.426 74.928 -76.442 75.836 -68.723 80.324 C-64.54 83.292 -61.29 86.32 -59 91 C-59 94.528 -59.709 95.674 -62.062 98.312 C-62.702 98.869 -63.341 99.426 -64 100 C-61.713 101.144 -60.407 101.103 -57.875 101.062 C-56.596 101.042 -55.317 101.021 -54 101 C-53.712 100.303 -53.425 99.605 -53.128 98.887 C-50.002 91.343 -46.782 83.842 -43.522 76.356 C-42.094 73.074 -40.675 69.789 -39.254 66.504 C-37.298 61.984 -35.328 57.471 -33.34 52.965 C-32.601 51.268 -31.863 49.572 -31.125 47.875 C-30.786 47.119 -30.446 46.363 -30.096 45.584 C-28.041 40.848 -28.041 40.848 -29 36 C-32.022 32.16 -35.902 32.039 -40.5 31.438 C-41.405 31.315 -42.31 31.192 -43.243 31.065 C-58.082 29.207 -73.069 28.662 -88 28 C-89.313 27.941 -90.626 27.881 -91.979 27.82 C-168.222 20.158 -168.222 20.158 -236.156 39.997 Z M-25 39 C-25.473 40.212 -25.946 41.423 -26.434 42.672 C-29.978 51.676 -33.651 60.58 -37.688 69.375 C-44.816 84.619 -44.816 84.619 -48 101 C-44.746 103.259 -44.746 103.259 -41 104 C-40.718 103.083 -40.435 102.167 -40.145 101.223 C-36.923 91.058 -33.219 81.085 -29.358 71.149 C-28.791 69.687 -28.227 68.224 -27.668 66.759 C-24.797 59.262 -21.982 52.158 -17.084 45.701 C-15.731 43.915 -15.731 43.915 -16 41 C-19.166 39.124 -21.358 38.903 -25 39 Z M-17 50 C-22.078 58.577 -25.341 67.949 -28.625 77.312 C-33.747 91.891 -33.747 91.891 -36.336 96.168 C-38.338 99.027 -38.338 99.027 -38 103 C-37.01 103 -36.02 103 -35 103 C-34.632 102.053 -34.265 101.105 -33.886 100.129 C-32.502 96.568 -31.112 93.009 -29.72 89.45 C-29.122 87.919 -28.526 86.386 -27.931 84.854 C-24.879 76.989 -21.85 69.228 -17.854 61.781 C-16.856 60.029 -16.856 60.029 -17 58 C-16.423 58.248 -15.845 58.495 -15.25 58.75 C-12.826 59.284 -12.826 59.284 -10.75 57.25 C-8.693 55.08 -8.693 55.08 -9 52 C-8.67 53.32 -8.34 54.64 -8 56 C-7.01 55.67 -6.02 55.34 -5 55 C-5 53.68 -5 52.36 -5 51 C-6.98 51 -8.96 51 -11 51 C-8.571 48.162 -8.065 48.009 -4.062 47.438 C12.647 48.086 28.721 65.312 39.684 76.816 C42.681 80.111 45.527 83.291 48 87 C48.66 87 49.32 87 50 87 C48.302 82.925 45.484 79.798 42.625 76.5 C41.825 75.577 41.825 75.577 41.01 74.636 C31.907 64.242 22.809 55.297 11 48 C10.112 47.451 9.224 46.902 8.309 46.336 C-1.591 40.79 -9.622 40.973 -17 50 Z M-1 57 C-4.522 63.106 -4.522 63.106 -5 70 C-4.01 70 -3.02 70 -2 70 C-1.327 68.399 -0.662 66.794 0 65.188 C0.371 64.294 0.743 63.401 1.125 62.48 C2.166 59.967 2.166 59.967 2 57 C1.01 57 0.02 57 -1 57 Z M5 61 C4.2 64.287 3.903 65.71 5 69 C5.99 69 6.98 69 8 69 C7.744 66.657 7.407 64.322 7 62 C6.34 61.67 5.68 61.34 5 61 Z M9 61 C9.33 63.64 9.66 66.28 10 69 C10.66 68.67 11.32 68.34 12 68 C12.25 65.584 12.25 65.584 12 63 C11.01 62.34 10.02 61.68 9 61 Z M-307.863 77.234 C-310.044 80.621 -310.445 84.042 -310 88 C-308.935 90.679 -307.674 92.615 -306 95 C-300.526 94.54 -295.067 93.943 -289.625 93.188 C-288.648 93.057 -287.671 92.927 -286.664 92.793 C-282.446 91.537 -280.585 88.744 -277.938 85.375 C-276.638 80.696 -278.204 78.433 -280.41 74.27 C-282.527 71.248 -284.4 69.334 -288.078 68.566 C-296.044 68.552 -302.419 71.328 -307.863 77.234 Z M-2.062 82.875 C-4.264 86.425 -4.846 88.845 -5 93 C-4.67 94.32 -4.34 95.64 -4 97 C0.95 97.33 5.9 97.66 11 98 C9.376 101.247 6.246 101.702 3 103 C3.44 104.98 3.44 104.98 5 107 C11.154 110.133 17.143 111.058 24 110 C29.494 107.854 33.585 104.433 36 99 C37.067 92.376 36.458 87.144 32.5 81.656 C28.966 77.754 24.894 75.337 19.652 74.727 C11.131 74.408 3.914 76.505 -2.062 82.875 Z M69 76 C68.67 77.65 68.34 79.3 68 81 C68.66 81.66 69.32 82.32 70 83 C72.685 82.747 75.209 82.378 77.852 81.883 C79.013 81.679 79.013 81.679 80.197 81.471 C82.675 81.033 85.15 80.579 87.625 80.125 C89.302 79.826 90.979 79.528 92.656 79.23 C96.773 78.499 100.887 77.753 105 77 C105 76.67 105 76.34 105 76 C93.12 76 81.24 76 69 76 Z M102.836 80.434 C101.918 80.59 101 80.747 100.054 80.909 C97.159 81.406 94.267 81.921 91.375 82.438 C89.397 82.781 87.419 83.122 85.441 83.463 C80.625 84.295 75.812 85.143 71 86 C71.788 89.129 71.788 89.129 74.25 91.188 C77.485 94.496 79.66 98.041 82 102 C90.828 100.618 99.402 98.462 108.027 96.169 C110.324 95.56 112.624 94.962 114.924 94.365 C116.404 93.975 117.884 93.583 119.363 93.191 C120.042 93.016 120.72 92.841 121.419 92.661 C125.567 91.545 129.223 90.041 133 88 C132.798 86.059 132.798 86.059 132 84 C130.281 82.674 130.281 82.674 128.062 81.812 C127.352 81.489 126.642 81.165 125.91 80.832 C118.074 78.592 110.764 78.986 102.836 80.434 Z M-97.875 92.562 C-99.205 93.958 -99.205 93.958 -99 96 C-95.147 96.507 -91.292 97.004 -87.438 97.5 C-85.808 97.715 -85.808 97.715 -84.146 97.934 C-78.72 98.626 -73.471 99.188 -68 99 C-69.741 94.569 -72.621 92.174 -76.859 90.082 C-84.643 86.869 -91.176 86.98 -97.875 92.562 Z M42 92 C41.818 92.58 41.636 93.16 41.449 93.758 C37.148 107.124 37.148 107.124 31 111 C24.074 114.442 17.511 114.528 10 113 C7.532 112.056 5.252 111.014 2.938 109.742 C1.042 108.877 1.042 108.877 -0.953 109.035 C-4.078 110.508 -5.641 112.864 -7.75 115.562 C-8.549 116.574 -9.348 117.586 -10.172 118.629 C-10.775 119.411 -11.378 120.194 -12 121 C-17.529 120.541 -17.529 120.541 -19.645 118.109 C-20.03 117.331 -20.415 116.552 -20.812 115.75 C-21.211 114.982 -21.609 114.213 -22.02 113.422 C-23.02 110.952 -23.567 108.624 -24 106 C-28.516 105.923 -32.591 105.898 -37 107 C-37 107.66 -37 108.32 -37 109 C-35.65 110.058 -35.65 110.058 -34.273 111.137 C-30.543 114.123 -28.708 117.578 -26.625 121.812 C-26.271 122.505 -25.916 123.198 -25.551 123.912 C-24.688 125.602 -23.842 127.3 -23 129 C-22.27 128.811 -21.54 128.621 -20.788 128.426 C-13.804 126.616 -6.821 124.807 0.163 123.001 C3.751 122.073 7.339 121.144 10.927 120.213 C39.998 112.673 39.998 112.673 53.272 109.602 C61.588 107.671 69.795 105.354 78 103 C77.405 101.724 76.8 100.453 76.191 99.184 C75.856 98.475 75.52 97.767 75.174 97.037 C72.822 92.956 69.469 90.49 65 89 C57.137 88.395 49.635 90.33 42 92 Z M-350.188 116.25 C-351.136 116.638 -352.085 117.025 -353.062 117.425 C-365.603 122.63 -365.603 122.63 -375 132 C-374.67 132.66 -374.34 133.32 -374 134 C-371.104 134.472 -368.293 134.809 -365.375 135.062 C-364.478 135.145 -363.582 135.227 -362.658 135.312 C-353.204 136.137 -343.75 136.644 -334.265 136.903 C-331.947 136.972 -329.63 137.056 -327.313 137.151 C-323.438 137.305 -319.565 137.407 -315.688 137.5 C-314.478 137.555 -313.268 137.61 -312.022 137.667 C-304.466 137.779 -300.29 136.628 -294.389 131.898 C-269.492 112.117 -232.138 102.842 -202 94 C-202 93.67 -202 93.34 -202 93 C-254.392 92.464 -301.186 96.13 -350.188 116.25 Z M-294 135 C-294.33 135.66 -294.66 136.32 -295 137 C-287.241 140.879 -272.61 140.601 -264.446 138.271 C-259.803 136.228 -255.685 133.355 -251.477 130.547 C-246.697 127.561 -241.587 125.225 -236.5 122.812 C-235.378 122.276 -234.257 121.74 -233.101 121.187 C-223.553 116.657 -213.916 112.333 -204.25 108.062 C-203.547 107.751 -202.844 107.44 -202.12 107.12 C-192.494 102.87 -182.795 98.846 -173 95 C-173 94.67 -173 94.34 -173 94 C-209.649 91.09 -265.175 112.552 -294 135 Z M-179 100.438 C-180.282 100.959 -180.282 100.959 -181.59 101.491 C-208.187 112.412 -234.824 124.081 -260 138 C-260 138.66 -260 139.32 -260 140 C-245.838 142.55 -231.797 143.833 -217.438 144.625 C-215.853 144.714 -215.853 144.714 -214.237 144.805 C-210 145.042 -205.763 145.28 -201.526 145.507 C-196.02 145.808 -190.537 146.186 -185.047 146.691 C-168.614 148.083 -155.429 144.477 -140 139 C-137.97 138.305 -135.937 137.617 -133.904 136.93 C-108.129 128.202 -82.721 118.389 -58 107 C-58 106.34 -58 105.68 -58 105 C-70.208 102.249 -82.442 100.761 -94.875 99.438 C-96.89 99.219 -98.904 99.001 -100.919 98.782 C-126.901 95.92 -126.901 95.92 -153 94.75 C-154.033 94.736 -154.033 94.736 -155.087 94.721 C-163.64 94.777 -171.177 97.211 -179 100.438 Z M69.996 106.371 C68.795 106.694 67.595 107.017 66.358 107.349 C65.051 107.712 63.744 108.074 62.438 108.438 C61.074 108.809 59.711 109.179 58.347 109.549 C48.808 112.154 39.339 114.97 29.877 117.842 C17.573 121.521 5.123 124.632 -7.33 127.763 C-8.155 127.971 -8.98 128.179 -9.831 128.394 C-11.392 128.787 -12.954 129.178 -14.517 129.566 C-18.355 130.508 -18.355 130.508 -22 132 C-21.89 132.574 -21.781 133.147 -21.668 133.738 C-18.851 148.829 -16.63 163.941 -15.12 179.217 C-14.874 181.698 -14.619 184.178 -14.363 186.658 C-13.448 195.662 -12.711 204.653 -12.226 213.691 C-11.702 221.365 -10.217 228.092 -5 234 C-0.252 237.013 3.392 237.26 8.789 236.617 C12.624 235.547 15.339 234.12 17.394 230.64 C17.745 229.734 18.096 228.828 18.457 227.895 C18.847 226.912 19.237 225.929 19.639 224.916 C20.026 223.892 20.413 222.868 20.812 221.812 C21.219 220.777 21.626 219.741 22.045 218.674 C23.045 216.121 24.029 213.564 25 211 C24.444 216.017 23.319 220.258 21.438 224.938 C20.755 226.653 20.755 226.653 20.059 228.402 C19.709 229.26 19.36 230.117 19 231 C21.485 230.442 21.485 230.442 24 229 C25.373 226.239 25.373 226.239 26.125 222.938 C26.601 221.197 26.601 221.197 27.086 219.422 C27.388 218.293 27.689 217.163 28 216 C28.568 214.224 29.149 212.452 29.75 210.688 C30.369 208.862 30.369 208.862 31 207 C31.66 207 32.32 207 33 207 C32.788 207.535 32.576 208.07 32.357 208.621 C31.401 211.037 30.451 213.456 29.5 215.875 C29.166 216.717 28.832 217.559 28.488 218.426 C28.015 219.634 28.015 219.634 27.531 220.867 C27.238 221.611 26.945 222.354 26.643 223.121 C25.892 224.984 25.892 224.984 26 227 C30.09 226.393 33.146 225.048 36.77 223.078 C37.895 222.471 39.02 221.863 40.18 221.238 C41.391 220.575 42.602 219.913 43.812 219.25 C45.058 218.573 46.303 217.897 47.549 217.221 C49.462 216.183 51.374 215.144 53.285 214.102 C57.533 211.788 61.799 209.511 66.078 207.254 C67.173 206.673 68.267 206.092 69.395 205.493 C71.468 204.394 73.543 203.3 75.622 202.214 C76.553 201.717 77.483 201.219 78.441 200.707 C79.253 200.279 80.064 199.851 80.901 199.409 C85.169 196.544 86.509 193.187 87.594 188.234 C92.451 161.519 88.022 131.696 80 106 C76.287 104.661 73.749 105.35 69.996 106.371 Z M-19 113 C-18.67 113.99 -18.34 114.98 -18 116 C-14.588 114.863 -13.881 113.957 -12 111 C-12 110.34 -12 109.68 -12 109 C-15.133 109 -16.68 111.046 -19 113 Z M-57 109.312 C-78.288 121.073 -102.223 128.585 -125 137 C-125 137.33 -125 137.66 -125 138 C-121.04 138.33 -117.08 138.66 -113 139 C-112.67 137.68 -112.34 136.36 -112 135 C-110.209 134.497 -108.417 133.998 -106.625 133.5 C-105.627 133.222 -104.63 132.943 -103.602 132.656 C-101 132 -101 132 -99 132 C-101.31 132.99 -103.62 133.98 -106 135 C-106 135.99 -106 136.98 -106 138 C-105.361 138.05 -104.722 138.1 -104.063 138.152 C-101.104 138.387 -98.146 138.631 -95.188 138.875 C-94.183 138.954 -93.178 139.032 -92.143 139.113 C-87.09 139.536 -82.232 140.121 -77.273 141.191 C-72.104 142.177 -68.399 141.65 -63.438 140.062 C-61.815 139.59 -60.193 139.119 -58.57 138.648 C-57.695 138.386 -56.82 138.124 -55.919 137.854 C-50.246 136.194 -44.524 134.709 -38.812 133.188 C-36.548 132.578 -34.284 131.967 -32.02 131.355 C-30.567 130.963 -30.567 130.963 -29.085 130.563 C-28.397 130.377 -27.709 130.191 -27 130 C-29.941 121.936 -29.941 121.936 -34.812 114.938 C-35.75 113.837 -35.75 113.837 -36.707 112.715 C-39.838 110.373 -42.111 110.228 -46 110 C-49.41 111.018 -49.41 111.018 -52.738 112.746 C-53.649 113.181 -53.649 113.181 -54.577 113.625 C-56.497 114.546 -58.405 115.491 -60.312 116.438 C-62.24 117.376 -64.17 118.309 -66.101 119.24 C-67.843 120.081 -69.579 120.936 -71.314 121.791 C-74 123 -74 123 -76 123 C-75.187 122.592 -74.375 122.183 -73.537 121.762 C-70.527 120.244 -67.522 118.717 -64.519 117.183 C-63.218 116.521 -61.916 115.863 -60.611 115.208 C-58.737 114.266 -56.87 113.312 -55.004 112.355 C-53.878 111.785 -52.752 111.214 -51.592 110.626 C-48.715 109.204 -48.715 109.204 -48 106 C-51.893 106 -53.621 107.361 -57 109.312 Z M123 162 C124.351 164.881 125.927 167.318 127.812 169.875 C133.823 178.787 136.408 189.675 139 200 C139.66 200 140.32 200 141 200 C141.645 187.892 140.5 177.267 132.586 167.625 C130.239 165.221 127.952 163.61 125 162 C124.34 162 123.68 162 123 162 Z M-382 164 C-381.67 164.66 -381.34 165.32 -381 166 C-378.64 166.75 -376.343 167.374 -373.938 167.938 C-373.232 168.109 -372.526 168.28 -371.799 168.456 C-364.252 170.248 -356.638 171.659 -349 173 C-350.056 174.402 -350.056 174.402 -351.133 175.832 C-352.13 177.159 -353.128 178.486 -354.125 179.812 C-354.655 180.517 -355.184 181.222 -355.73 181.948 C-358.779 186.012 -361.806 190.09 -364.809 194.188 C-365.434 195.041 -366.06 195.895 -366.705 196.774 C-367.927 198.445 -369.148 200.117 -370.366 201.79 C-370.927 202.557 -371.488 203.323 -372.066 204.113 C-372.561 204.792 -373.055 205.47 -373.565 206.169 C-374.939 207.922 -376.391 209.463 -378 211 C-379.549 206.707 -380.813 202.875 -378.933 198.539 C-377.217 196.051 -375.39 193.744 -373.438 191.438 C-372.16 189.857 -370.888 188.272 -369.621 186.684 C-369.006 185.915 -368.391 185.147 -367.757 184.355 C-363 178.217 -363 178.217 -361 171 C-361.66 171 -362.32 171 -363 171 C-364.814 173.425 -366.515 175.854 -368.188 178.375 C-369.177 179.844 -370.166 181.313 -371.156 182.781 C-371.64 183.502 -372.123 184.222 -372.621 184.965 C-374.962 188.42 -377.409 191.799 -379.855 195.18 C-381.177 196.924 -381.177 196.924 -381 199 C-381.66 199 -382.32 199 -383 199 C-384.624 195.229 -385.34 192.113 -385 188 C-382.857 183.918 -379.728 180.579 -376.672 177.164 C-374.394 174.613 -373.018 172.313 -372 169 C-376.435 171.245 -378.993 174.205 -381.812 178.188 C-382.219 178.746 -382.626 179.305 -383.045 179.881 C-384.038 181.248 -385.02 182.623 -386 184 C-387.996 182.004 -387.41 178.183 -387.562 175.438 C-387.627 174.371 -387.627 174.371 -387.693 173.283 C-387.8 171.522 -387.9 169.761 -388 168 C-388.99 168.495 -388.99 168.495 -390 169 C-391.701 176.191 -392.104 185.983 -388.625 192.625 C-388.089 193.409 -387.553 194.192 -387 195 C-386.508 196.363 -386.054 197.741 -385.625 199.125 C-383.888 204.632 -381.465 209.787 -379 215 C-370.357 207.977 -363.768 199.856 -357.25 190.875 C-356.695 190.111 -356.14 189.347 -355.568 188.56 C-349.77 181.346 -349.77 181.346 -347 173 C-346.111 173.131 -345.221 173.261 -344.305 173.396 C-323.938 176.338 -303.579 178.629 -283.062 180.25 C-282.032 180.333 -281.002 180.415 -279.94 180.5 C-261.277 181.981 -242.543 183.224 -223.812 183.125 C-222.867 183.123 -221.921 183.121 -220.947 183.119 C-214.257 183.078 -207.648 182.801 -201 182 C-201 181.34 -201 180.68 -201 180 C-202.439 179.986 -202.439 179.986 -203.907 179.972 C-244.392 179.516 -284.64 176.425 -324.875 172 C-326.521 171.821 -326.521 171.821 -328.2 171.638 C-341.834 170.139 -355.34 168.226 -368.852 165.867 C-373.224 165.109 -377.592 164.509 -382 164 Z M113 173 C112.76 173.605 112.52 174.211 112.272 174.835 C109.701 181.311 107.108 187.779 104.506 194.243 C103.499 196.75 102.501 199.26 101.51 201.772 C94.069 220.631 86.213 237.393 73 253 C71.663 254.663 70.328 256.329 69 258 C78.252 256.333 86.015 246.676 91.144 239.371 C103.175 221.437 116.584 194.959 115 173 C114.34 173 113.68 173 113 173 Z M-330 178 C-348.137 196.899 -348.137 196.899 -363 218 C-358.686 217.541 -356.316 214.77 -353.438 211.812 C-352.914 211.281 -352.39 210.749 -351.85 210.201 C-346.055 204.199 -341.001 197.665 -336 191 C-335.104 189.815 -334.208 188.63 -333.312 187.445 C-331.196 184.639 -329.094 181.823 -327 179 C-327.99 178.67 -328.98 178.34 -330 178 Z M-311 181 C-317.457 187.872 -323.728 194.784 -329.621 202.152 C-332.981 206.175 -336.565 209.979 -340.191 213.762 C-343.074 216.423 -343.074 216.423 -344 220 C-344.66 220 -345.32 220 -346 220 C-346.33 220.99 -346.66 221.98 -347 223 C-341.837 221.515 -338.887 218.308 -335.25 214.562 C-334.632 213.934 -334.013 213.305 -333.376 212.657 C-328.235 207.368 -323.503 201.843 -319 196 C-318.14 194.919 -317.279 193.838 -316.418 192.758 C-315.569 191.673 -314.721 190.587 -313.875 189.5 C-312.726 188.03 -312.726 188.03 -311.555 186.531 C-311.042 185.696 -310.529 184.861 -310 184 C-310.495 182.515 -310.495 182.515 -311 181 Z M-243 187 C-244.35 188.496 -244.35 188.496 -245.688 190.48 C-246.216 191.226 -246.745 191.972 -247.29 192.74 C-247.854 193.548 -248.419 194.355 -249 195.188 C-250.181 196.85 -251.363 198.511 -252.547 200.172 C-253.133 200.995 -253.719 201.818 -254.322 202.666 C-258.866 208.987 -263.611 215.175 -268.617 221.137 C-269.445 222.123 -270.272 223.109 -271.125 224.125 C-271.87 224.994 -272.615 225.863 -273.383 226.758 C-275.292 228.945 -275.292 228.945 -275 232 C-262.941 222.621 -254.264 209.676 -246 197 C-245.292 195.916 -245.292 195.916 -244.569 194.811 C-244.111 194.096 -243.652 193.381 -243.18 192.645 C-242.553 191.67 -242.553 191.67 -241.914 190.675 C-240.84 189.025 -240.84 189.025 -241 187 C-241.66 187 -242.32 187 -243 187 Z M-261.543 189.285 C-262.086 189.872 -262.628 190.458 -263.188 191.062 C-266.373 194.411 -269.735 197.389 -273.301 200.324 C-275.096 202.095 -276.011 203.696 -277 206 C-272.607 205.546 -270.039 202.595 -267 199.688 C-266.479 199.201 -265.958 198.714 -265.422 198.213 C-263.937 196.82 -262.468 195.41 -261 194 C-260.216 193.264 -259.433 192.528 -258.625 191.77 C-256.775 190.155 -256.775 190.155 -257 188 C-259.95 187.68 -259.95 187.68 -261.543 189.285 Z M-192 201 C-197.579 209.009 -199.803 215.205 -199 225 C-197.74 228.087 -196.971 229.412 -194.148 231.121 C-189.516 233.016 -184.932 231.798 -180.438 229.941 C-172.099 225.454 -167.037 218.825 -164.062 209.875 C-162.288 202.876 -162.523 196.88 -165 190 C-166.801 187.79 -166.801 187.79 -169.262 187.715 C-177.727 188.596 -186.476 194.701 -192 201 Z M-212 190 C-216.044 193.81 -219.709 197.79 -223.188 202.125 C-229.651 210.154 -236.659 217.764 -244 225 C-243.67 225.66 -243.34 226.32 -243 227 C-241.604 225.917 -240.208 224.834 -238.812 223.75 C-238.035 223.147 -237.258 222.543 -236.457 221.922 C-235.646 221.288 -234.835 220.653 -234 220 C-233.163 219.366 -232.327 218.732 -231.465 218.078 C-226.989 214.304 -223.604 209.588 -220 205 C-219.57 204.461 -219.14 203.922 -218.696 203.367 C-217.411 201.754 -216.141 200.129 -214.875 198.5 C-214.109 197.52 -213.344 196.541 -212.555 195.531 C-212.042 194.696 -211.529 193.861 -211 193 C-211.495 191.515 -211.495 191.515 -212 190 Z M115 195 C111.206 200.234 108.657 205.747 106.5 211.812 C106.204 212.635 105.909 213.458 105.604 214.305 C99.008 233.083 88.407 263.666 97 283 C98.481 285.236 98.481 285.236 101 286 C110.045 285.095 115.196 279.386 120.75 272.625 C125.851 265.692 128.163 259.209 129.75 250.75 C129.878 250.084 130.006 249.417 130.138 248.73 C132.112 237.006 130.798 225.374 129.188 213.688 C129.022 212.382 128.856 211.077 128.686 209.732 C127.791 203.083 126.719 197.147 124 191 C119.157 191 118.4 191.683 115 195 Z M-199 189 C-199.268 189.776 -199.536 190.552 -199.812 191.352 C-205.7 207.58 -215.414 225.894 -230 236 C-242.494 240.165 -259.861 236.372 -272.717 235.401 C-276.36 235.126 -280.004 234.861 -283.648 234.598 C-293.979 233.84 -304.303 233.049 -314.602 231.93 C-315.337 231.851 -316.073 231.772 -316.831 231.691 C-321.747 231.126 -321.747 231.126 -324 230 C-323.562 229.475 -323.123 228.951 -322.672 228.41 C-318.151 222.887 -313.93 217.203 -309.812 211.375 C-309.314 210.671 -308.815 209.968 -308.302 209.242 C-305.037 204.591 -301.963 199.849 -299 195 C-308.726 199.494 -315.97 211.307 -322.395 219.676 C-322.827 220.211 -323.26 220.746 -323.705 221.298 C-325.057 223.001 -325.057 223.001 -326.168 225.022 C-327.629 227.276 -328.702 228.587 -331 230 C-335.778 230.364 -340.247 229.5 -344.938 228.625 C-346.234 228.413 -347.53 228.202 -348.866 227.983 C-352.586 227.364 -356.293 226.694 -360 226 C-360.93 225.83 -361.861 225.66 -362.819 225.485 C-366.898 224.734 -370.955 223.922 -375 223 C-375 223.66 -375 224.32 -375 225 C-366.409 227.799 -357.829 229.705 -348.938 231.25 C-347.938 231.425 -346.939 231.6 -345.91 231.78 C-341.542 232.516 -337.44 233.093 -333 233 C-333.495 233.784 -333.99 234.567 -334.5 235.375 C-336.165 237.786 -336.165 237.786 -336 240 C-333.599 239.804 -333.599 239.804 -331 239 C-330.624 238.316 -330.247 237.632 -329.859 236.927 C-328 235 -328 235 -324.283 234.881 C-322.709 235.038 -321.136 235.217 -319.566 235.414 C-318.287 235.548 -318.287 235.548 -316.982 235.684 C-315.138 235.879 -313.294 236.082 -311.452 236.294 C-306.569 236.853 -301.679 237.341 -296.789 237.836 C-295.798 237.938 -294.806 238.04 -293.785 238.145 C-284.348 239.102 -274.908 239.743 -265.438 240.25 C-264.375 240.311 -264.375 240.311 -263.291 240.372 C-259.235 240.602 -255.18 240.793 -251.12 240.929 C-249.631 240.979 -248.142 241.035 -246.654 241.094 C-244.239 241.185 -241.826 241.245 -239.41 241.297 C-238.306 241.343 -238.306 241.343 -237.179 241.39 C-230.838 241.47 -227.004 239.396 -222.031 235.43 C-211.481 224.718 -200.092 207.986 -197 193 C-197.341 190.776 -197.341 190.776 -198 189 C-198.33 189 -198.66 189 -199 189 Z M-58 208 C-55.042 210.073 -55.042 210.073 -51.75 211.562 C-42.31 217.039 -38.865 227.017 -36 237 C-35.813 237.65 -35.626 238.3 -35.434 238.97 C-30.893 255.283 -28.079 273.723 -30.875 290.562 C-31.055 291.65 -31.236 292.738 -31.422 293.859 C-32.173 297.937 -33.043 301.966 -34 306 C-26.355 298.975 -24.548 291.306 -23.792 281.223 C-23.697 278.437 -23.671 275.663 -23.688 272.875 C-23.692 271.879 -23.696 270.884 -23.7 269.858 C-23.992 250.547 -28.318 228.852 -42 214.375 C-46.223 210.504 -50.093 208.186 -55.938 207.812 C-56.618 207.874 -57.299 207.936 -58 208 Z M-86 228 C-103.281 247.601 -110.574 270.681 -117.531 295.434 C-123.219 315.459 -131.067 330.114 -148 343 C-147.34 343.66 -146.68 344.32 -146 345 C-130.929 339.083 -120.715 325.651 -114.229 311.207 C-110.155 301.652 -107.137 292.051 -104.599 281.988 C-95.664 246.714 -95.664 246.714 -86.188 232.152 C-85.796 231.442 -85.404 230.732 -85 230 C-85.495 229.01 -85.495 229.01 -86 228 Z M-78 254 C-95.315 277.502 -101.349 312.297 -97.741 341.067 C-96.414 349.505 -94.547 357.131 -88 363 C-88 359.853 -88.374 359.061 -89.875 356.438 C-100.311 336.326 -93.591 305.243 -87.188 284.875 C-86.189 281.891 -85.118 278.941 -84 276 C-83.728 275.276 -83.456 274.551 -83.175 273.805 C-79.078 263.132 -73.864 251.196 -63 246 C-59.938 245.438 -59.938 245.438 -57 246 C-49.884 251.083 -47.803 260.313 -46.371 268.535 C-46.249 269.349 -46.126 270.162 -46 271 C-45.888 271.721 -45.776 272.441 -45.66 273.184 C-42.469 298.408 -45.622 329.027 -61.5 349.75 C-62.657 351.175 -63.823 352.592 -65 354 C-65.772 354.938 -65.772 354.938 -66.559 355.895 C-67.696 357.271 -68.847 358.637 -70 360 C-60.869 356.962 -55.821 348.413 -51.688 340.188 C-39.774 315.373 -36.601 283.813 -45.172 257.387 C-47.397 251.762 -49.76 246.195 -54.938 242.688 C-64.463 239.512 -72.313 247.203 -78 254 Z M-58 254 C-62.526 260.272 -65.85 266.202 -66 274 C-65.01 274 -64.02 274 -63 274 C-62.208 272.104 -61.416 270.208 -60.625 268.312 C-60.184 267.257 -59.743 266.201 -59.289 265.113 C-58.864 264.086 -58.438 263.059 -58 262 C-57.424 260.66 -57.424 260.66 -56.836 259.293 C-55.829 256.937 -55.829 256.937 -56 254 C-56.66 254 -57.32 254 -58 254 Z M84 263 C83.919 265.938 83.86 268.874 83.812 271.812 C83.787 272.646 83.762 273.479 83.736 274.338 C83.727 275.14 83.717 275.943 83.707 276.77 C83.691 277.508 83.676 278.246 83.659 279.007 C84.089 281.522 85.075 282.394 87 284 C87.097 276.906 87.101 270.018 86 263 C85.34 263 84.68 263 84 263 Z M78 267 C76.618 269.765 76.905 272.046 76.938 275.125 C76.947 276.221 76.956 277.316 76.965 278.445 C76.976 279.288 76.988 280.131 77 281 C77.99 281 78.98 281 80 281 C80.892 278.324 81.135 276.746 81.125 274 C81.128 273.319 81.13 272.639 81.133 271.938 C81.066 269.781 81.066 269.781 80 267 C79.34 267 78.68 267 78 267 Z M-352 269 C-351.923 280.248 -351.923 280.248 -347 290 C-343.34 291.708 -339.884 292.469 -335.9 293.053 C-334.691 293.233 -333.482 293.413 -332.237 293.599 C-330.938 293.785 -329.639 293.972 -328.301 294.164 C-326.942 294.363 -325.583 294.562 -324.224 294.761 C-321.377 295.177 -318.53 295.588 -315.683 295.996 C-312.058 296.516 -308.436 297.048 -304.814 297.583 C-302.006 297.997 -299.198 298.403 -296.389 298.808 C-294.412 299.095 -292.435 299.387 -290.458 299.679 C-283.585 300.654 -276.943 301.275 -270 301 C-268.484 297.968 -268.79 295.121 -268.75 291.75 C-268.724 290.445 -268.698 289.141 -268.672 287.797 C-269.039 283.554 -269.329 281.344 -272 278 C-279.783 275.365 -288.641 275.145 -296.766 274.273 C-298.172 274.12 -299.578 273.966 -300.984 273.811 C-303.912 273.491 -306.84 273.173 -309.769 272.858 C-313.51 272.456 -317.251 272.046 -320.992 271.634 C-323.888 271.316 -326.784 271.001 -329.68 270.687 C-331.06 270.538 -332.439 270.387 -333.819 270.235 C-335.746 270.024 -337.674 269.817 -339.603 269.611 C-340.696 269.493 -341.789 269.374 -342.916 269.252 C-345.96 269.003 -348.948 268.955 -352 269 Z M72 271 C70.738 273.525 70.901 275.312 70.938 278.125 C70.947 279.035 70.956 279.945 70.965 280.883 C70.976 281.581 70.988 282.28 71 283 C72.98 283.99 72.98 283.99 75 285 C75 280.71 75 276.42 75 272 C74.01 271.67 73.02 271.34 72 271 Z M-72.062 285.152 C-77.778 290.419 -83.463 296.395 -84.238 304.488 C-84.36 309.11 -84.319 312.302 -82.375 316.562 C-79.601 319.41 -77.938 320.437 -74 321 C-69.399 319.247 -67.351 316.215 -65 312 C-62.344 305.493 -62.812 298.943 -63 292 C-63.99 292 -64.98 292 -66 292 C-67.724 293.724 -67.498 296.211 -67.812 298.562 C-68.71 304.134 -69.948 308.243 -73 313 C-75.133 313.707 -75.133 313.707 -77 314 C-79.869 309.696 -79.712 306.052 -79 301 C-77.229 296.164 -75.061 291.321 -71 288 C-68.312 287.812 -68.312 287.812 -66 288 C-65.67 288.66 -65.34 289.32 -65 290 C-64.34 290 -63.68 290 -63 290 C-63.625 287.476 -63.625 287.476 -65 285 C-67.929 283.94 -69.299 283.608 -72.062 285.152 Z M-60 303 C-59.67 303.99 -59.34 304.98 -59 306 C-56.03 306.33 -53.06 306.66 -50 307 C-49.67 305.68 -49.34 304.36 -49 303 C-52.982 301.946 -55.982 302.159 -60 303 Z M-66 320 C-65.885 322.063 -65.758 324.125 -65.625 326.188 C-65.555 327.336 -65.486 328.485 -65.414 329.668 C-65.025 332.8 -64.319 335.153 -63 338 C-62.01 338 -61.02 338 -60 338 C-60.422 335.372 -60.862 332.748 -61.312 330.125 C-61.43 329.379 -61.548 328.632 -61.67 327.863 C-62.017 325.889 -62.501 323.941 -63 322 C-63.99 321.34 -64.98 320.68 -66 320 Z M-78 328 C-78.701 330.393 -79.386 332.788 -80.062 335.188 C-80.262 335.861 -80.461 336.535 -80.666 337.229 C-81.763 341.174 -82.218 344.056 -81 348 C-80.01 347.67 -79.02 347.34 -78 347 C-75.912 340.957 -75.766 335.348 -76 329 C-76.66 328.67 -77.32 328.34 -78 328 Z M-384 332 C-384.685 334.858 -384.685 334.858 -385 338 C-384.01 339.485 -384.01 339.485 -383 341 C-381.68 340.67 -380.36 340.34 -379 340 C-379.99 337.36 -380.98 334.72 -382 332 C-382.66 332 -383.32 332 -384 332 Z M-372 334 C-372.33 334.33 -372.66 334.66 -373 335 C-372.713 337.339 -372.381 339.674 -372 342 C-371.01 342.33 -370.02 342.66 -369 343 C-369.66 340.03 -370.32 337.06 -371 334 C-371.33 334 -371.66 334 -372 334 Z M-114 345 C-115.089 356.978 -108.452 368.693 -101.75 378.188 C-101.173 378.786 -100.595 379.384 -100 380 C-99.34 380 -98.68 380 -98 380 C-98.929 375.795 -100.837 372.233 -102.812 368.438 C-106.674 360.879 -110.041 353.293 -112 345 C-112.66 345 -113.32 345 -114 345 Z M-125 348 C-124.218 360.185 -122.337 371.663 -113.438 380.562 C-111.149 382.274 -111.149 382.274 -108.848 381.59 C-108.238 381.395 -107.628 381.201 -107 381 C-108.578 379.886 -108.578 379.886 -110.188 378.75 C-118.797 371.288 -120.207 358.67 -122 348 C-122.99 348 -123.98 348 -125 348 Z M-129 363 C-129.376 369.134 -129.084 373.603 -126 379 C-123.963 380.201 -123.963 380.201 -122 381 C-122.277 380.359 -122.554 379.719 -122.84 379.059 C-126.163 371.124 -126.163 371.124 -126.625 366.938 C-126.749 365.968 -126.873 364.999 -127 364 C-127.66 363.67 -128.32 363.34 -129 363 Z " fill="#000000" transform="translate(569,227)"/>
<path d="M0 0 C5.45 1.352 9.964 3.372 14.875 6.062 C16.538 6.956 18.202 7.848 19.867 8.738 C20.813 9.244 21.759 9.751 22.733 10.272 C30.167 14.204 37.665 18.016 45.149 21.851 C53.493 26.128 61.799 30.452 70 35 C69.34 36.32 68.68 37.64 68 39 C61.707 35.806 55.417 32.607 49.128 29.405 C46.999 28.322 44.87 27.24 42.74 26.159 C28.019 18.687 13.444 10.994 -1 3 C-0.67 2.01 -0.34 1.02 0 0 Z " fill="#000000" transform="translate(194,242)"/>
<path d="M0 0 C2.219 -0.003 4.439 -0.007 6.658 -0.01 C11.3 -0.016 15.943 -0.018 20.585 -0.017 C26.474 -0.017 32.364 -0.031 38.253 -0.048 C42.838 -0.059 47.422 -0.061 52.006 -0.061 C54.174 -0.062 56.342 -0.066 58.51 -0.074 C75.96 -0.131 93.148 0.482 110.254 4.168 C110.254 4.498 110.254 4.828 110.254 5.168 C101.114 4.702 91.976 4.226 82.844 3.633 C36.863 0.724 -9.026 1.239 -54.746 7.168 C-54.746 6.508 -54.746 5.848 -54.746 5.168 C-51.665 4.51 -48.581 3.869 -45.496 3.23 C-44.643 3.048 -43.789 2.866 -42.91 2.678 C-28.706 -0.237 -14.432 0.005 0 0 Z " fill="#000000" transform="translate(408.74609375,257.83203125)"/>
<path d="M0 0 C0 0.99 0 1.98 0 3 C-8.478 5.669 -16.984 8.132 -25.582 10.383 C-27.291 10.833 -27.291 10.833 -29.034 11.293 C-32.626 12.239 -36.219 13.182 -39.812 14.125 C-42.239 14.764 -44.665 15.403 -47.092 16.043 C-59.116 19.209 -59.116 19.209 -63.332 20.305 C-65.015 20.744 -66.697 21.187 -68.376 21.638 C-71.744 22.523 -74.485 23 -78 23 C-77.67 21.68 -77.34 20.36 -77 19 C-37.804 8.424 -37.804 8.424 -20.236 3.833 C-18.285 3.322 -16.335 2.804 -14.385 2.287 C-13.211 1.982 -12.037 1.677 -10.828 1.363 C-9.817 1.098 -8.805 0.833 -7.763 0.56 C-5.09 0.018 -2.718 -0.108 0 0 Z " fill="#000000" transform="translate(750,263)"/>
<path d="M0 0 C0.99 0.495 0.99 0.495 2 1 C-18.421 14.041 -40.482 24.164 -63 33 C-64.154 33.457 -64.154 33.457 -65.332 33.923 C-76.527 38.316 -76.527 38.316 -81 37 C-80.233 36.674 -79.465 36.349 -78.675 36.013 C-64.695 30.062 -50.789 24.025 -37.125 17.375 C-36.035 16.845 -34.946 16.315 -33.823 15.768 C-32.741 15.241 -31.658 14.715 -30.543 14.172 C-23.87 10.926 -17.167 7.75 -10.438 4.625 C-9.414 4.142 -8.39 3.659 -7.334 3.162 C-6.398 2.729 -5.461 2.297 -4.496 1.852 C-3.673 1.468 -2.85 1.085 -2.002 0.69 C-1.341 0.462 -0.681 0.235 0 0 Z " fill="#000000" transform="translate(444,270)"/>
<path d="M0 0 C0.33 0.66 0.66 1.32 1 2 C0.123 4.3 0.123 4.3 -1.281 7.172 C-1.791 8.223 -2.3 9.274 -2.825 10.358 C-3.378 11.477 -3.931 12.597 -4.5 13.75 C-5.05 14.879 -5.6 16.008 -6.167 17.172 C-7.769 20.452 -9.382 23.727 -11 27 C-11.416 27.841 -11.831 28.683 -12.26 29.549 C-14.155 33.376 -16.066 37.193 -18 41 C-20.416 33.751 -12.655 23.054 -9.393 16.512 C-8.61 14.959 -8.61 14.959 -7.812 13.375 C-7.279 12.301 -6.746 11.227 -6.197 10.121 C-5.685 9.099 -5.172 8.077 -4.645 7.023 C-4.184 6.105 -3.724 5.186 -3.249 4.24 C-2 2 -2 2 0 0 Z " fill="#000000" transform="translate(534,271)"/>
<path d="M0 0 C0.99 0.33 1.98 0.66 3 1 C-12.46 10.995 -30.766 20.469 -49 24 C-49.99 23.67 -50.98 23.34 -52 23 C-51.445 22.76 -50.889 22.52 -50.317 22.272 C-38.249 17.051 -26.204 11.779 -14.188 6.438 C-12.418 5.651 -12.418 5.651 -10.612 4.849 C-5.269 2.503 -5.269 2.503 0 0 Z " fill="#000000" transform="translate(408,272)"/>
<path d="M0 0 C6.708 -0.14 13.089 0.373 19.73 1.277 C20.725 1.408 21.719 1.539 22.743 1.674 C25.892 2.09 29.04 2.514 32.188 2.938 C34.312 3.219 36.436 3.499 38.561 3.779 C55.171 5.98 55.171 5.98 61 7 C61 8.32 61 9.64 61 11 C50.145 10.316 39.385 8.833 28.606 7.416 C25.414 6.997 22.222 6.584 19.029 6.172 C16.997 5.907 14.965 5.641 12.934 5.375 C11.981 5.252 11.027 5.129 10.046 5.002 C9.164 4.886 8.282 4.769 7.373 4.648 C6.598 4.547 5.824 4.446 5.026 4.341 C3 4 3 4 0 3 C0 2.01 0 1.02 0 0 Z " fill="#000000" transform="translate(159,296)"/>
<path d="M0 0 C0.66 0 1.32 0 2 0 C2.33 2.31 2.66 4.62 3 7 C2.01 6.67 1.02 6.34 0 6 C-0.382 4.344 -0.714 2.675 -1 1 C-0.67 0.67 -0.34 0.34 0 0 Z " fill="#000000" transform="translate(684,310)"/>
<path d="M0 0 C0.688 1.688 0.688 1.688 1 4 C-0.438 6.75 -0.438 6.75 -2 9 C-3 6 -3 6 -1.562 2.812 C-1.047 1.884 -0.531 0.956 0 0 Z " fill="#000000" transform="translate(675,314)"/>
<path d="M0 0 C1.938 0.75 1.938 0.75 4 2 C4.75 4.125 4.75 4.125 5 6 C4.01 6 3.02 6 2 6 C1.34 5.34 0.68 4.68 0 4 C0 2.68 0 1.36 0 0 Z " fill="#000000" transform="translate(628,321)"/>
<path d="M0 0 C-2.376 2.376 -4.085 2.831 -7.277 3.84 C-8.885 4.351 -8.885 4.351 -10.525 4.873 C-11.651 5.224 -12.777 5.576 -13.938 5.938 C-15.029 6.285 -16.12 6.632 -17.244 6.99 C-22.478 8.644 -27.726 10.246 -33.004 11.754 C-34.271 12.117 -34.271 12.117 -35.565 12.487 C-38.111 13.023 -40.406 13.092 -43 13 C-40.279 9.391 -36.38 8.669 -32.227 7.52 C-31.466 7.302 -30.705 7.084 -29.921 6.86 C-28.314 6.402 -26.705 5.949 -25.095 5.501 C-22.638 4.816 -20.186 4.113 -17.734 3.408 C-16.17 2.965 -14.604 2.523 -13.039 2.082 C-12.309 1.873 -11.578 1.663 -10.826 1.448 C-7.133 0.429 -3.836 -0.25 0 0 Z " fill="#000000" transform="translate(701,322)"/>
<path d="M0 0 C3.342 3.126 3.88 6.516 4.238 10.953 C4.387 17.58 4.496 23.713 0 29 C-2.464 30.509 -3.584 31.021 -6.5 30.875 C-10.347 29.528 -12.294 27.421 -14.094 23.797 C-15.187 20.423 -15.301 17.544 -15.312 14 C-15.329 12.804 -15.346 11.608 -15.363 10.375 C-14.884 5.92 -13.261 3.401 -10.312 0.125 C-6.79 -1.588 -3.688 -1.161 0 0 Z M-5 2 C-6.454 3.145 -6.454 3.145 -7.938 4.312 C-8.755 4.956 -8.755 4.956 -9.59 5.613 C-12.381 8.358 -12.189 11.684 -12.25 15.375 C-12.199 19.691 -12.135 22.757 -9 26 C-6.409 26.887 -6.409 26.887 -4 27 C-0.338 23.338 0.691 20.428 1.035 15.418 C0.978 11.519 0.664 7.562 -1 4 C-2.998 2.716 -2.998 2.716 -5 2 Z " fill="#000000" transform="translate(678,338)"/>
<path d="M0 0 C1.938 0.75 1.938 0.75 4 2 C4.75 4.125 4.75 4.125 5 6 C4.01 6 3.02 6 2 6 C0 3 0 3 0 0 Z " fill="#000000" transform="translate(522,346)"/>
<path d="M0 0 C1.91 0.48 1.91 0.48 4.473 2.543 C6.363 6.407 6.103 8.381 4.91 12.48 C3.223 14.918 3.223 14.918 0.91 16.48 C-3.198 16.983 -4.599 16.808 -8.09 14.48 C-7.76 13.82 -7.43 13.16 -7.09 12.48 C-4.78 12.48 -2.47 12.48 -0.09 12.48 C0.57 10.5 1.23 8.52 1.91 6.48 C0.871 5.255 0.871 5.255 -1.34 5.043 C-5.525 5.709 -6.593 8.152 -9.09 11.48 C-9.42 11.48 -9.75 11.48 -10.09 11.48 C-10.426 7.867 -10.285 5.854 -8.59 2.605 C-5.563 0.032 -3.885 -0.269 0 0 Z " fill="#000000" transform="translate(641.08984375,347.51953125)"/>
<path d="M0 0 C1.938 1.188 1.938 1.188 3 3 C3.5 5.438 3.5 5.438 3 8 C-1.269 12.044 -3.851 13.13 -9.625 13.062 C-10.628 13.053 -11.631 13.044 -12.664 13.035 C-13.435 13.024 -14.206 13.012 -15 13 C-15.66 11.68 -16.32 10.36 -17 9 C-15.753 9.035 -15.753 9.035 -14.48 9.07 C-13.394 9.088 -12.307 9.106 -11.188 9.125 C-10.109 9.148 -9.03 9.171 -7.918 9.195 C-4.806 9.23 -4.806 9.23 -2 7 C-1.67 6.01 -1.34 5.02 -1 4 C-2.584 4.311 -4.167 4.624 -5.75 4.938 C-6.632 5.112 -7.513 5.286 -8.422 5.465 C-10.632 5.924 -12.815 6.433 -15 7 C-13.96 3.984 -13.031 3.02 -10.312 1.25 C-6.568 -0.163 -3.97 -0.449 0 0 Z " fill="#000000" transform="translate(578,372)"/>
<path d="M0 0 C1.151 3.344 0.907 4.96 -0.59 8.133 C-0.958 8.931 -1.327 9.729 -1.707 10.551 C-2.113 11.401 -2.519 12.25 -2.938 13.125 C-3.773 14.916 -4.608 16.708 -5.441 18.5 C-5.868 19.41 -6.295 20.32 -6.735 21.258 C-7.957 23.906 -9.127 26.57 -10.277 29.25 C-10.631 30.071 -10.985 30.892 -11.35 31.738 C-12.022 33.302 -12.688 34.869 -13.347 36.438 C-14.898 40.008 -15.689 41.792 -19 44 C-18.441 39.85 -17.504 36.45 -15.742 32.656 C-15.284 31.663 -14.826 30.67 -14.355 29.646 C-13.866 28.608 -13.378 27.57 -12.875 26.5 C-12.381 25.436 -11.887 24.372 -11.378 23.275 C-7.725 15.445 -3.961 7.679 0 0 Z " fill="#000000" transform="translate(619,383)"/>
<path d="M0 0 C0.66 0 1.32 0 2 0 C1.4 3.643 0.394 6.609 -1.223 9.922 C-1.675 10.858 -2.128 11.793 -2.594 12.758 C-3.079 13.745 -3.563 14.733 -4.062 15.75 C-5.06 17.808 -6.058 19.867 -7.055 21.926 C-7.551 22.946 -8.047 23.967 -8.558 25.018 C-10.633 29.309 -12.665 33.621 -14.688 37.938 C-15.026 38.658 -15.364 39.379 -15.713 40.122 C-16.476 41.748 -17.238 43.374 -18 45 C-18.66 45 -19.32 45 -20 45 C-19.362 40.904 -18.024 37.556 -16.27 33.809 C-15.713 32.616 -15.157 31.423 -14.584 30.193 C-14.292 29.575 -14.001 28.956 -13.7 28.319 C-12.828 26.47 -11.963 24.617 -11.1 22.764 C-7.525 15.112 -3.817 7.533 0 0 Z " fill="#000000" transform="translate(607,389)"/>
<path d="M0 0 C1.215 3.644 0.702 4.285 -0.871 7.668 C-1.28 8.561 -1.69 9.453 -2.111 10.373 C-2.549 11.302 -2.987 12.231 -3.438 13.188 C-3.871 14.128 -4.305 15.068 -4.752 16.037 C-5.826 18.362 -6.909 20.683 -8 23 C-8.66 22.67 -9.32 22.34 -10 22 C-8.522 18.708 -7.042 15.416 -5.562 12.125 C-5.142 11.188 -4.721 10.251 -4.287 9.285 C-3.884 8.389 -3.481 7.493 -3.066 6.57 C-2.695 5.743 -2.323 4.915 -1.94 4.063 C-1.318 2.697 -0.671 1.342 0 0 Z " fill="#000000" transform="translate(569,390)"/>
<path d="M0 0 C0.66 0 1.32 0 2 0 C1.464 5.136 0.271 9.197 -1.871 13.887 C-2.153 14.511 -2.436 15.135 -2.727 15.779 C-3.622 17.752 -4.53 19.72 -5.438 21.688 C-6.043 23.019 -6.648 24.35 -7.252 25.682 C-11.8 35.681 -11.8 35.681 -14 40 C-14.66 40 -15.32 40 -16 40 C-15.421 35.159 -13.921 31.118 -11.875 26.738 C-11.415 25.73 -11.415 25.73 -10.945 24.7 C-9.97 22.568 -8.985 20.44 -8 18.312 C-7.017 16.173 -6.035 14.033 -5.055 11.892 C-4.447 10.565 -3.836 9.238 -3.222 7.912 C-2.016 5.295 -0.912 2.737 0 0 Z " fill="#000000" transform="translate(585,392)"/>
<path d="M0 0 C1 3 1 3 0.196 5.085 C-0.229 5.865 -0.653 6.645 -1.09 7.449 C-1.544 8.297 -1.999 9.144 -2.467 10.018 C-2.952 10.899 -3.437 11.78 -3.938 12.688 C-4.66 14.027 -4.66 14.027 -5.396 15.393 C-6.589 17.6 -7.79 19.802 -9 22 C-9.66 21.67 -10.32 21.34 -11 21 C-9.735 18.247 -8.463 15.498 -7.188 12.75 C-6.831 11.973 -6.475 11.195 -6.107 10.395 C-4.36 6.644 -2.707 3.176 0 0 Z " fill="#000000" transform="translate(596,395)"/>
<path d="M0 0 C0.66 0 1.32 0 2 0 C-0.162 6.964 -2.907 13.431 -6.062 20 C-6.732 21.429 -6.732 21.429 -7.416 22.887 C-7.847 23.79 -8.278 24.694 -8.723 25.625 C-9.112 26.442 -9.501 27.26 -9.903 28.102 C-11 30 -11 30 -13 31 C-12.435 26.507 -11.266 23.006 -9.277 18.945 C-8.47 17.282 -8.47 17.282 -7.646 15.586 C-7.083 14.444 -6.519 13.302 -5.938 12.125 C-5.37 10.96 -4.802 9.794 -4.217 8.594 C-2.818 5.726 -1.412 2.861 0 0 Z " fill="#000000" transform="translate(623,396)"/>
<path d="M0 0 C0.66 0 1.32 0 2 0 C0.451 5.416 -2.054 10.008 -4.812 14.875 C-5.239 15.639 -5.665 16.404 -6.104 17.191 C-7.383 19.472 -8.684 21.739 -10 24 C-10.452 24.776 -10.903 25.553 -11.369 26.353 C-11.808 27.084 -12.247 27.816 -12.699 28.57 C-13.093 29.23 -13.487 29.891 -13.893 30.571 C-14.259 31.042 -14.624 31.514 -15 32 C-15.66 32 -16.32 32 -17 32 C-15.682 27.671 -13.999 23.918 -11.777 19.98 C-11.157 18.876 -10.536 17.772 -9.896 16.635 C-9.25 15.497 -8.604 14.36 -7.938 13.188 C-7.28 12.019 -6.623 10.851 -5.967 9.682 C-1.156 1.156 -1.156 1.156 0 0 Z " fill="#000000" transform="translate(636,396)"/>
<path d="M0 0 C0.66 0 1.32 0 2 0 C0.252 5.467 -1.658 10.758 -4 16 C-5.162 13.134 -4.995 11.984 -4.004 8.984 C-3.528 7.917 -3.053 6.85 -2.562 5.75 C-2.089 4.672 -1.616 3.595 -1.129 2.484 C-0.756 1.665 -0.384 0.845 0 0 Z " fill="#000000" transform="translate(574,397)"/>
<path d="M0 0 C0.99 0.33 1.98 0.66 3 1 C3.65 4.333 4.294 7.666 4.938 11 C5.12 11.935 5.302 12.869 5.49 13.832 C8.655 30.291 11.266 50.07 5 66 C4.671 66.851 4.343 67.702 4.004 68.578 C0.203 77.153 -6.486 85.743 -15 90 C-17.75 90.375 -17.75 90.375 -20 90 C-23.694 86.306 -22.987 80.34 -23.045 75.32 C-22.611 53.122 -16.33 16.33 0 0 Z M-2 11 C-4.021 15.393 -5.409 19.153 -6 24 C-4.68 23.67 -3.36 23.34 -2 23 C-0.673 19.019 -0.931 15.15 -1 11 C-1.33 11 -1.66 11 -2 11 Z M6 32 C5.67 32.66 5.34 33.32 5 34 C5.66 34 6.32 34 7 34 C6.67 33.34 6.34 32.68 6 32 Z M-11.188 38.062 C-15.452 43.647 -17.616 48.927 -17.352 55.98 C-17.105 58.212 -17.105 58.212 -15.312 60.5 C-12.615 62.25 -11.241 63.077 -8 63 C-3.63 60.465 -1.712 58.125 0 53.375 C1.584 47.243 0.846 40.691 -2 35 C-6.37 34.272 -8.316 34.838 -11.188 38.062 Z M-16 65 C-18.399 69.648 -18.2 73.911 -18 79 C-16.68 78.67 -15.36 78.34 -14 78 C-13.34 74.04 -12.68 70.08 -12 66 C-13.32 65.67 -14.64 65.34 -16 65 Z " fill="#000000" transform="translate(689,421)"/>
<path d="M0 0 C1.392 4.176 -0.177 6.135 -2 10 C-2.66 10 -3.32 10 -4 10 C-3.524 8.52 -3.044 7.041 -2.562 5.562 C-2.296 4.739 -2.029 3.915 -1.754 3.066 C-1 1 -1 1 0 0 Z " fill="#000000" transform="translate(642,443)"/>
<path d="M0 0 C1 1 1 1 1.375 3.812 C1 7 1 7 -1.312 9.312 C-8.214 13.646 -16.13 12.342 -23.762 10.621 C-26.667 9.815 -28.746 9.036 -31 7 C-31.812 3.812 -31.812 3.812 -32 1 C-21.305 -6.535 -11.769 -4.361 0 0 Z M-31 2 C-27.656 5.872 -24.203 6.847 -19.188 7.484 C-17.792 7.582 -16.396 7.67 -15 7.75 C-13.952 7.833 -13.952 7.833 -12.883 7.918 C-8.731 8.176 -5.723 7.89 -2 6 C-2 5.01 -2 4.02 -2 3 C-5.63 2.34 -9.26 1.68 -13 1 C-13.33 2.65 -13.66 4.3 -14 6 C-14.99 6 -15.98 6 -17 6 C-17.33 4.02 -17.66 2.04 -18 0 C-22.824 -0.193 -26.496 0.243 -31 2 Z " fill="#000000" transform="translate(169,463)"/>
<path d="M0 0 C0.99 0 1.98 0 3 0 C5.367 4.733 4.905 12.24 3.281 17.191 C2.312 18.812 2.312 18.812 0 21 C-2.75 21.375 -2.75 21.375 -5 21 C-6.742 17.515 -6.454 13.81 -6 10 C-4.61 6.121 -2.918 2.918 0 0 Z " fill="#000000" transform="translate(682,459)"/>
<path d="M0 0 C0.99 0.33 1.98 0.66 3 1 C3.978 13.257 0.692 22.529 -7.203 31.926 C-8.093 32.953 -8.093 32.953 -9 34 C-9.51 34.654 -10.021 35.307 -10.547 35.98 C-14.13 40.424 -18.203 43.947 -22.688 47.438 C-23.246 47.875 -23.805 48.313 -24.381 48.763 C-27.164 50.867 -29.494 52.531 -33 53 C-33 52.01 -33 51.02 -33 50 C-31.27 48.414 -31.27 48.414 -28.812 46.625 C-17.05 37.519 -3.127 25.257 0 10 C0.212 6.648 0.185 3.352 0 0 Z " fill="#000000" transform="translate(722,482)"/>
<path d="M0 0 C1.115 0.003 2.23 0.006 3.379 0.01 C4.538 0.018 5.697 0.027 6.891 0.035 C8.065 0.04 9.239 0.044 10.449 0.049 C13.346 0.061 16.243 0.077 19.141 0.098 C19.926 3.348 20.224 4.831 19.203 8.098 C15.449 13.558 10.54 16 4.141 17.41 C-3.893 18.684 -11.336 18.679 -18.859 15.098 C-20.652 12.988 -20.652 12.988 -21.859 11.098 C-21.529 10.438 -21.199 9.778 -20.859 9.098 C-20.326 9.291 -19.792 9.484 -19.242 9.684 C-13.516 11.685 -7.828 13.038 -1.859 14.098 C-2.189 11.458 -2.519 8.818 -2.859 6.098 C-1.539 6.098 -0.219 6.098 1.141 6.098 C1.471 8.408 1.801 10.718 2.141 13.098 C4.103 12.338 6.061 11.565 8.016 10.785 C9.106 10.356 10.197 9.927 11.32 9.484 C14.389 8.268 14.389 8.268 16.141 5.098 C12.537 5.009 8.933 4.957 5.328 4.91 C4.323 4.885 3.318 4.86 2.283 4.834 C-4.116 4.772 -9.501 5.542 -15.589 7.546 C-17.859 8.098 -17.859 8.098 -20.859 7.098 C-19.113 6.113 -17.362 5.135 -15.609 4.16 C-14.148 3.342 -14.148 3.342 -12.656 2.508 C-8.309 0.316 -4.856 -0.025 0 0 Z " fill="#000000" transform="translate(387.859375,488.90234375)"/>
<path d="M0 0 C0.66 0 1.32 0 2 0 C-1.261 11.152 -9.758 19.214 -18 27 C-18 24 -18 24 -16.715 22.527 C-16.128 22.003 -15.542 21.478 -14.938 20.938 C-8.661 14.928 -4.128 7.596 0 0 Z " fill="#000000" transform="translate(730,508)"/>
<path d="M0 0 C0.66 0.33 1.32 0.66 2 1 C-0.029 6.349 -2.573 11.449 -5.078 16.586 C-7.192 21.004 -8.797 25.25 -10 30 C-10.66 30 -11.32 30 -12 30 C-12 18.98 -5.645 9.16 0 0 Z " fill="#000000" transform="translate(611,513)"/>
<path d="M0 0 C0.66 0 1.32 0 2 0 C2.163 5.234 1.606 9.863 0.5 14.938 C0.357 15.621 0.214 16.305 0.066 17.01 C-0.283 18.674 -0.641 20.337 -1 22 C-1.99 22 -2.98 22 -4 22 C-2.81 14.634 -1.519 7.305 0 0 Z " fill="#000000" transform="translate(618,520)"/>
<path d="M0 0 C0.33 0 0.66 0 1 0 C1.098 0.664 1.196 1.328 1.297 2.012 C2.499 9.321 2.499 9.321 7 15 C11.184 17.412 15.417 19.472 20 21 C20 21.66 20 22.32 20 23 C11.831 22.665 5.736 21.269 -0.5 15.812 C-2.586 11.901 -2.67 8.352 -2 4 C-0.977 1.723 -0.977 1.723 0 0 Z " fill="#000000" transform="translate(635,520)"/>
<path d="M0 0 C0.66 0.33 1.32 0.66 2 1 C-9.773 8.175 -22.65 15.807 -36.938 13.312 C-40 12 -40 12 -41.438 9.875 C-41.716 8.947 -41.716 8.947 -42 8 C-40.824 8.495 -40.824 8.495 -39.625 9 C-26.454 12.633 -13.765 6.657 -2.074 0.82 C-1.39 0.55 -0.705 0.279 0 0 Z " fill="#000000" transform="translate(411,522)"/>
<path d="M0 0 C0.846 0.309 1.691 0.619 2.562 0.938 C6.05 2.015 9.382 2.566 13 3 C13 3.66 13 4.32 13 5 C9.873 6.564 6.42 6.4 3 6 C2.01 5.34 1.02 4.68 0 4 C0 2.68 0 1.36 0 0 Z " fill="#000000" transform="translate(629,550)"/>
<path d="M0 0 C0.66 0.33 1.32 0.66 2 1 C-0.808 3.964 -3.183 6.445 -7 8 C-5.509 4.205 -3.243 2.39 0 0 Z " fill="#000000" transform="translate(274,559)"/>
<path d="M0 0 C0.66 0.33 1.32 0.66 2 1 C2 1.66 2 2.32 2 3 C0.952 3.898 -0.14 4.744 -1.25 5.562 C-5.475 9.016 -7.19 12.942 -9 18 C-9.66 18 -10.32 18 -11 18 C-11.509 12.651 -10.367 10.144 -7 6 C-4.75 3.89 -2.418 1.915 0 0 Z " fill="#000000" transform="translate(166,564)"/>
<path d="M0 0 C0.66 0 1.32 0 2 0 C2.33 0.722 2.66 1.444 3 2.188 C8.127 9.398 19.009 11.474 27.125 13.812 C28.177 14.124 29.229 14.435 30.312 14.756 C32.873 15.512 35.435 16.26 38 17 C36 19 36 19 33.637 19.117 C21.861 18.15 9.626 15.626 1 7 C-0.234 4.532 -0.227 2.723 0 0 Z " fill="#000000" transform="translate(177,571)"/>
<path d="M0 0 C0 4.3 -2.12 5.847 -4.934 8.934 C-9.682 13.682 -14.387 17.347 -21 19 C-21 18.01 -21 17.02 -21 16 C-18.691 14.238 -18.691 14.238 -15.562 12.312 C-9.863 8.669 -4.898 4.651 0 0 Z " fill="#000000" transform="translate(263,571)"/>
<path d="M0 0 C0.66 0.33 1.32 0.66 2 1 C1.361 1.387 0.722 1.775 0.063 2.174 C-2.896 3.969 -5.854 5.766 -8.812 7.562 C-9.817 8.172 -10.822 8.781 -11.857 9.408 C-18.626 13.522 -25.335 17.721 -32 22 C-32 21.01 -32 20.02 -32 19 C-30.036 17.272 -28.138 15.798 -26 14.312 C-25.382 13.876 -24.764 13.44 -24.128 12.99 C-17.15 8.203 -9.65 4.573 -2 1 C-1.34 0.67 -0.68 0.34 0 0 Z " fill="#000000" transform="translate(649,574)"/>
<path d="M0 0 C2.109 1.7 2.927 2.61 3.434 5.312 C3.455 20.108 -3.729 32.128 -13.621 42.723 C-17.026 45.982 -20.662 49.075 -25 51 C-25.99 50.67 -26.98 50.34 -28 50 C-25.806 47.738 -23.669 45.534 -21.203 43.566 C-10.779 35.206 -2.554 22.191 0 9 C0.065 7.418 0.086 5.833 0.062 4.25 C0.053 3.451 0.044 2.652 0.035 1.828 C0.024 1.225 0.012 0.622 0 0 Z " fill="#000000" transform="translate(538,577)"/>
<path d="M0 0 C0 3 0 3 -1.469 4.686 C-2.139 5.286 -2.809 5.886 -3.5 6.504 C-4.222 7.162 -4.944 7.82 -5.688 8.498 C-6.451 9.179 -7.214 9.861 -8 10.562 C-9.504 11.913 -11.005 13.268 -12.5 14.629 C-13.17 15.228 -13.841 15.827 -14.531 16.444 C-16.229 17.886 -16.229 17.886 -16 20 C-6.648 23.311 2.997 24.465 12.771 25.802 C32.78 28.566 32.78 28.566 38.562 32.938 C40 35 40 35 40 39 C38.026 38.015 36.055 37.029 34.102 36.002 C27.548 32.782 21.069 31.846 13.875 30.938 C11.474 30.607 9.073 30.273 6.672 29.938 C4.95 29.7 4.95 29.7 3.193 29.457 C-0.85 28.878 -4.866 28.215 -8.875 27.438 C-10.511 27.126 -10.511 27.126 -12.18 26.809 C-15.223 25.936 -17.442 24.861 -20 23 C-21.438 19.875 -21.438 19.875 -21 16 C-15.425 9.125 -7.535 4.455 0 0 Z " fill="#000000" transform="translate(276,586)"/>
<path d="M0 0 C3.772 0.445 7.543 0.909 11.312 1.375 C12.92 1.564 12.92 1.564 14.561 1.758 C16.103 1.951 16.103 1.951 17.676 2.148 C19.098 2.321 19.098 2.321 20.548 2.498 C23 3 23 3 26 5 C23.87 7.13 19.311 6.232 16.375 6.25 C15.58 6.271 14.784 6.291 13.965 6.312 C8.539 6.348 4.84 5.465 0 3 C0 2.01 0 1.02 0 0 Z " fill="#000000" transform="translate(166,592)"/>
<path d="M0 0 C0.66 0 1.32 0 2 0 C1.42 3.476 0.535 6.291 -1.066 9.426 C-1.469 10.222 -1.872 11.018 -2.287 11.838 C-2.708 12.655 -3.129 13.471 -3.562 14.312 C-3.987 15.148 -4.412 15.984 -4.85 16.846 C-5.894 18.9 -6.945 20.951 -8 23 C-8.66 22.67 -9.32 22.34 -10 22 C-9.428 16.808 -6.902 12.69 -4.438 8.188 C-4.013 7.399 -3.588 6.611 -3.15 5.799 C-2.106 3.863 -1.056 1.93 0 0 Z " fill="#000000" transform="translate(405,599)"/>
<path d="M0 0 C0.66 0 1.32 0 2 0 C1.613 6.307 -1.558 11.004 -4.688 16.312 C-5.205 17.212 -5.723 18.111 -6.256 19.037 C-9.626 24.841 -13.209 30.463 -17 36 C-17.66 35.67 -18.32 35.34 -19 35 C-17.545 31.076 -15.701 27.578 -13.594 23.965 C-12.932 22.826 -12.271 21.687 -11.59 20.514 C-10.893 19.322 -10.197 18.129 -9.5 16.938 C-8.134 14.593 -6.77 12.248 -5.406 9.902 C-4.498 8.348 -4.498 8.348 -3.572 6.761 C-2.304 4.534 -1.113 2.307 0 0 Z " fill="#000000" transform="translate(548,599)"/>
<path d="M0 0 C0.66 0 1.32 0 2 0 C1.444 4.689 0.118 8.199 -2.062 12.375 C-2.61 13.435 -3.158 14.494 -3.723 15.586 C-4.144 16.383 -4.566 17.179 -5 18 C-5.66 17.34 -6.32 16.68 -7 16 C-4.69 10.72 -2.38 5.44 0 0 Z " fill="#000000" transform="translate(411,600)"/>
<path d="M0 0 C0.66 0.33 1.32 0.66 2 1 C-12.286 10.1 -26.672 18.512 -41.938 25.875 C-42.897 26.34 -43.856 26.804 -44.844 27.283 C-50.472 29.957 -56.047 32.156 -62 34 C-62 33.34 -62 32.68 -62 32 C-61.081 31.528 -60.162 31.056 -59.216 30.57 C-56.451 29.15 -53.686 27.729 -50.922 26.308 C-47.752 24.679 -44.583 23.051 -41.412 21.425 C-33.835 17.534 -26.268 13.628 -18.734 9.652 C-17.483 8.994 -16.231 8.336 -14.98 7.678 C-12.649 6.453 -10.325 5.218 -8.003 3.978 C-6.969 3.435 -5.936 2.892 -4.871 2.332 C-3.524 1.616 -3.524 1.616 -2.15 0.886 C-1.441 0.594 -0.731 0.301 0 0 Z " fill="#000000" transform="translate(736,601)"/>
<path d="M0 0 C0.66 0 1.32 0 2 0 C2.026 0.664 2.052 1.328 2.078 2.012 C2.335 6.01 2.599 9.216 4.438 12.812 C8.213 16.035 12.492 17.978 17 20 C17 20.33 17 20.66 17 21 C11.238 21.346 6.959 21.344 2 18 C-0.353 15.833 -1.791 14.286 -2.312 11.074 C-2.436 6.965 -1.862 3.724 0 0 Z " fill="#000000" transform="translate(432,614)"/>
<path d="M0 0 C27.595 -0.734 53.562 2.477 80.648 7.949 C84.756 8.775 88.845 9.467 93 10 C93 10.33 93 10.66 93 11 C87.023 11.16 81.533 10.587 75.656 9.539 C73.846 9.23 72.035 8.92 70.224 8.612 C69.289 8.45 68.353 8.288 67.389 8.122 C44.885 4.253 22.881 1.48 0 2 C0 1.34 0 0.68 0 0 Z " fill="#000000" transform="translate(208,645)"/>
<path d="M0 0 C0.66 0.33 1.32 0.66 2 1 C-5.989 8.504 -11.446 10.365 -22.402 10.105 C-23.26 10.071 -24.117 10.036 -25 10 C-25 9.34 -25 8.68 -25 8 C-24.201 7.925 -23.402 7.85 -22.578 7.773 C-14.907 6.855 -9.091 4.949 -2.363 1.145 C-1.583 0.767 -0.804 0.389 0 0 Z " fill="#000000" transform="translate(506,652)"/>
<path d="M0 0 C4.447 -0.025 8.895 -0.043 13.342 -0.055 C14.853 -0.06 16.364 -0.067 17.875 -0.075 C20.055 -0.088 22.234 -0.093 24.414 -0.098 C26.378 -0.106 26.378 -0.106 28.381 -0.114 C31.69 -0.01 34.756 0.366 38 1 C38 1.33 38 1.66 38 2 C25.46 1.67 12.92 1.34 0 1 C0 0.67 0 0.34 0 0 Z " fill="#000000" transform="translate(184,680)"/>
<path d="M0 0 C-43.379 19.189 -43.379 19.189 -55 15 C-50.074 12.781 -45.213 11.069 -40.012 9.625 C-39.268 9.414 -38.525 9.204 -37.759 8.987 C-35.403 8.32 -33.046 7.66 -30.688 7 C-28.346 6.34 -26.005 5.679 -23.664 5.018 C-22.158 4.593 -20.652 4.17 -19.146 3.748 C-14.347 2.401 -9.588 0.961 -4.859 -0.617 C-3 -1 -3 -1 0 0 Z " fill="#000000" transform="translate(554,696)"/>
</svg>
