<?xml version="1.0" encoding="UTF-8"?>
<!-- Generator: visioncortex VTracer 0.6.0 -->
<svg version="1.1" xmlns="http://www.w3.org/2000/svg" width="847" height="847">
<path d="M0 0 C1.48 2.804 1.48 2.804 2.832 6.52 C3.193 7.502 3.193 7.502 3.562 8.504 C4.068 9.891 4.566 11.281 5.056 12.673 C5.808 14.801 6.589 16.917 7.373 19.033 C11.473 30.366 11.473 30.366 10 34 C6.457 33.568 3.728 32.881 0.438 31.438 C-2.77 30.096 -4.598 29.691 -8 30 C-10.464 35.677 -11.407 40.496 -11.691 46.68 C-12 49 -12 49 -14 51 C-16.995 50.74 -19.38 50.32 -22.062 48.938 C-24.483 47.767 -26.342 47.935 -29 48 C-29.17 49.132 -29.34 50.264 -29.516 51.43 C-29.759 52.912 -30.004 54.393 -30.25 55.875 C-30.36 56.621 -30.469 57.368 -30.582 58.137 C-31.528 63.663 -31.528 63.663 -34.109 65.508 C-34.733 65.67 -35.357 65.833 -36 66 C-36.736 65.434 -37.472 64.868 -38.23 64.285 C-39.206 63.552 -40.182 62.818 -41.188 62.062 C-42.15 61.332 -43.113 60.601 -44.105 59.848 C-47.155 57.655 -47.155 57.655 -52 57 C-52.66 61.95 -53.32 66.9 -54 72 C-59 73 -59 73 -61.5 71.75 C-63.167 70.583 -64.833 69.417 -66.5 68.25 C-69.506 66.747 -70.854 67.011 -74 68 C-74.93 70.79 -75.187 72.765 -75.316 75.668 C-75.379 77.007 -75.379 77.007 -75.443 78.373 C-75.483 79.302 -75.522 80.231 -75.562 81.188 C-75.627 82.598 -75.627 82.598 -75.693 84.037 C-75.799 86.358 -75.901 88.679 -76 91 C-77.98 91.99 -77.98 91.99 -80 93 C-80.848 92.273 -81.696 91.546 -82.57 90.797 C-83.13 90.317 -83.69 89.837 -84.267 89.343 C-85.521 88.267 -86.776 87.192 -88.03 86.116 C-91.249 83.356 -94.469 80.599 -97.695 77.848 C-104.554 71.994 -111.338 66.078 -118 60 C-116.603 54.532 -113.016 52.203 -108.688 49 C-107.559 48.155 -107.559 48.155 -106.409 47.293 C-88.603 34.191 -23.547 -11.645 0 0 Z M-110 57 C-110.344 60.285 -110.344 60.285 -107.324 62.82 C-106.121 63.931 -104.908 65.032 -103.688 66.125 C-103.055 66.7 -102.423 67.276 -101.772 67.868 C-92.145 77.04 -92.145 77.04 -81 84 C-80.963 83.143 -80.925 82.286 -80.887 81.402 C-80.205 69.547 -80.205 69.547 -77 64 C-73.555 61.704 -71.994 61.906 -68 62.508 C-65.316 63.168 -63.275 64.461 -61 66 C-60.34 66 -59.68 66 -59 66 C-58.807 65.229 -58.613 64.458 -58.414 63.664 C-58.154 62.661 -57.893 61.658 -57.625 60.625 C-57.37 59.627 -57.115 58.63 -56.852 57.602 C-56 55 -56 55 -54 53 C-46.972 52.137 -42.845 54.212 -37 58 C-36.795 57.169 -36.59 56.337 -36.379 55.48 C-36.109 54.394 -35.84 53.307 -35.562 52.188 C-35.296 51.109 -35.029 50.03 -34.754 48.918 C-34.239 46.926 -33.651 44.952 -33 43 C-27.262 42.796 -22.395 42.729 -17 45 C-16.89 44.203 -16.781 43.407 -16.668 42.586 C-15.023 31.596 -15.023 31.596 -12 27 C-7.715 24.143 -4.036 24.653 0.938 25.5 C1.618 25.665 2.299 25.83 3 26 C1.628 18.517 -0.922 11.944 -4 5 C-37.025 5 -86.692 34.616 -110 57 Z " fill="#000000" transform="translate(480,158)"/>
<path d="M0 0 C2.475 0.495 2.475 0.495 5 1 C3.637 4.769 1.916 7.818 -0.379 11.098 C-1.049 12.059 -1.72 13.021 -2.41 14.011 C-3.12 15.018 -3.831 16.025 -4.562 17.062 C-5.282 18.089 -6.001 19.116 -6.742 20.174 C-11.695 27.219 -16.728 34.19 -22 41 C-23.32 40.67 -24.64 40.34 -26 40 C-25.566 34.814 -22.865 31.803 -19.75 27.875 C-14.865 21.556 -10.237 15.108 -5.75 8.5 C-5.177 7.657 -4.605 6.814 -4.015 5.945 C-2.673 3.965 -1.335 1.984 0 0 Z " fill="#000000" transform="translate(618,220)"/>
<path d="M0 0 C4.12 0.192 5.75 0.777 8.875 3.562 C11.744 7.425 11.672 10.297 11 15 C9.562 17.938 9.562 17.938 7 20 C2.77 21.271 -0.717 21.474 -4.875 19.938 C-7.553 17.496 -8.813 15.422 -10 12 C-9.188 9.625 -9.188 9.625 -8 8 C-4.171 9.453 -2.879 11.429 -1 15 C0.98 14.67 2.96 14.34 5 14 C5 12.02 5 10.04 5 8 C3.02 7.01 1.04 6.02 -1 5 C-0.67 3.35 -0.34 1.7 0 0 Z " fill="#000000" transform="translate(437,249)"/>
<path d="M0 0 C-0.507 4.557 -0.507 4.557 -2.687 6.514 C-3.404 6.923 -4.121 7.332 -4.859 7.754 C-5.646 8.216 -6.432 8.678 -7.242 9.154 C-8.07 9.619 -8.897 10.084 -9.75 10.562 C-11.372 11.498 -12.991 12.437 -14.609 13.379 C-15.374 13.822 -16.139 14.264 -16.927 14.72 C-19.21 16.072 -19.21 16.072 -21.902 18.324 C-24 20 -24 20 -26.812 20.25 C-27.534 20.168 -28.256 20.085 -29 20 C-28.934 17.809 -28.934 17.809 -28 15 C-25.701 13.129 -23.565 11.604 -21.062 10.062 C-20.386 9.632 -19.71 9.201 -19.013 8.757 C-17.652 7.894 -16.286 7.038 -14.917 6.189 C-13.227 5.141 -11.556 4.065 -9.887 2.984 C-3.395 -1.132 -3.395 -1.132 0 0 Z " fill="#000000" transform="translate(631,250)"/>
<path d="M0 0 C2.125 0 2.125 0 5 1 C8.72 4.807 11 7.582 11 13 C8.775 14.787 6.664 16.263 4.25 17.75 C2.984 18.557 1.718 19.364 0.453 20.172 C-0.253 20.618 -0.96 21.064 -1.688 21.523 C-13.791 29.252 -25.599 37.466 -37.5 45.5 C-41.281 48.052 -45.062 50.605 -48.844 53.156 C-49.752 53.769 -50.661 54.382 -51.596 55.014 C-56.119 58.064 -60.647 61.104 -65.191 64.121 C-69.319 66.863 -73.415 69.646 -77.502 72.446 C-80.666 74.61 -83.838 76.762 -87.011 78.912 C-88.645 80.023 -90.275 81.14 -91.901 82.261 C-94.278 83.898 -96.667 85.515 -99.059 87.129 C-100.145 87.886 -100.145 87.886 -101.253 88.659 C-106.326 92.044 -106.326 92.044 -109.996 91.804 C-110.658 91.539 -111.319 91.274 -112 91 C-110.65 87.832 -109.367 86.245 -106.508 84.344 C-105.423 83.612 -105.423 83.612 -104.315 82.866 C-103.522 82.344 -102.728 81.823 -101.91 81.285 C-101.075 80.726 -100.24 80.167 -99.38 79.59 C-96.613 77.739 -93.838 75.901 -91.062 74.062 C-89.125 72.77 -87.189 71.476 -85.253 70.181 C-81.211 67.479 -77.166 64.78 -73.119 62.085 C-64.404 56.274 -55.728 50.404 -47.05 44.537 C-41.738 40.948 -36.419 37.367 -31.102 33.785 C-27.359 31.264 -23.617 28.742 -19.877 26.216 C-16.463 23.91 -13.045 21.61 -9.625 19.312 C-8.687 18.677 -7.749 18.042 -6.782 17.387 C-5.939 16.823 -5.096 16.258 -4.227 15.676 C-3.168 14.963 -3.168 14.963 -2.088 14.236 C0.199 12.882 2.512 11.927 5 11 C4.555 10.457 4.111 9.915 3.652 9.355 C3.086 8.64 2.521 7.925 1.938 7.188 C1.369 6.48 0.801 5.772 0.215 5.043 C-0.186 4.369 -0.587 3.695 -1 3 C-0.67 2.01 -0.34 1.02 0 0 Z " fill="#000000" transform="translate(306,251)"/>
<path d="M0 0 C7.251 5.542 12.709 13.291 18.168 20.523 C22.702 26.503 27.605 32.148 32.527 37.809 C35.03 40.695 37.509 43.603 39.992 46.508 C44.181 51.4 48.394 56.271 52.617 61.133 C60.8 70.56 68.861 80.076 76.742 89.758 C79.776 93.448 82.868 97.086 85.962 100.726 C88.931 104.224 91.851 107.757 94.742 111.32 C98.709 116.197 102.834 120.912 107.055 125.57 C105.926 128.958 104.827 129.945 102.18 132.258 C101.132 133.192 101.132 133.192 100.062 134.145 C98.055 135.57 98.055 135.57 95.055 135.57 C93.664 134.368 93.664 134.368 92.234 132.676 C91.704 132.055 91.173 131.435 90.626 130.796 C90.066 130.123 89.506 129.451 88.93 128.758 C88.349 128.074 87.769 127.389 87.171 126.685 C85.455 124.655 83.752 122.615 82.055 120.57 C81.217 119.561 80.379 118.552 79.516 117.512 C77.349 114.875 75.199 112.226 73.055 109.57 C67.636 102.879 62.119 96.287 56.499 89.765 C52.7 85.346 48.996 80.858 45.32 76.336 C39.969 69.803 34.481 63.382 28.969 56.984 C23.194 50.28 17.513 43.537 12.055 36.57 C8.299 37.149 5.594 38.193 2.336 40.133 C1.419 40.674 0.501 41.214 -0.444 41.772 C-1.434 42.365 -2.425 42.959 -3.445 43.57 C-5.608 44.85 -7.771 46.13 -9.934 47.41 C-11.085 48.095 -12.237 48.78 -13.389 49.464 C-16.994 51.604 -20.615 53.716 -24.238 55.824 C-35.91 62.619 -47.536 69.466 -58.992 76.622 C-65.612 80.757 -72.276 84.816 -78.955 88.855 C-91.518 96.454 -103.99 104.188 -116.425 111.993 C-121.578 115.218 -126.759 118.4 -131.945 121.57 C-129.88 125.185 -127.601 128.367 -124.945 131.57 C-124.149 132.533 -123.352 133.496 -122.531 134.488 C-120.351 137.096 -118.149 139.684 -115.944 142.271 C-115.491 142.803 -115.037 143.335 -114.57 143.883 C-113.877 144.696 -113.877 144.696 -113.169 145.526 C-109.867 149.423 -106.698 153.407 -103.57 157.445 C-99.095 163.218 -94.387 168.748 -89.575 174.241 C-85.919 178.421 -82.405 182.683 -78.969 187.047 C-76.517 190.104 -73.986 193.087 -71.445 196.07 C-67.512 200.691 -63.668 205.368 -59.895 210.121 C-55.015 216.253 -50.039 222.302 -44.952 228.263 C-37.665 236.805 -30.644 245.558 -23.945 254.57 C-25.472 258.006 -27.545 260.689 -29.945 263.57 C-28.714 262.51 -27.485 261.447 -26.258 260.383 C-25.573 259.791 -24.889 259.199 -24.184 258.59 C-21.681 256.331 -19.323 253.961 -16.945 251.57 C-15.66 250.281 -15.66 250.281 -14.348 248.966 C-12.962 247.575 -12.962 247.575 -11.548 246.157 C-6.31 240.902 -1.069 235.651 4.173 230.4 C7.335 227.233 10.496 224.065 13.655 220.895 C16.725 217.814 19.798 214.735 22.873 211.658 C24.036 210.492 25.199 209.326 26.361 208.158 C32.415 202.077 38.513 196.132 45.055 190.57 C46.408 189.34 47.755 188.102 49.09 186.852 C49.754 186.229 50.419 185.606 51.104 184.965 C51.768 184.34 52.433 183.714 53.117 183.07 C53.786 182.445 54.454 181.82 55.143 181.176 C59.069 177.49 62.891 173.736 66.607 169.838 C68.055 168.57 68.055 168.57 70.055 168.57 C70.055 167.91 70.055 167.25 70.055 166.57 C71.824 164.87 73.719 163.362 75.621 161.812 C77.64 159.953 79.335 158.119 81.105 156.036 C85.407 151.089 90.024 146.494 94.68 141.883 C95.585 140.981 96.491 140.079 97.424 139.15 C100.784 135.804 104.148 132.463 107.512 129.123 C110.821 125.837 114.126 122.548 117.43 119.258 C118.721 117.979 118.721 117.979 120.038 116.675 C124.382 112.348 128.581 107.961 132.57 103.303 C136.447 98.78 140.551 94.454 144.625 90.108 C145.879 88.76 147.109 87.389 148.336 86.016 C158.952 74.568 173.643 67.864 189.224 67.05 C204.22 66.755 216.683 72.084 229.794 78.861 C238.102 83.152 246.538 87.09 255.055 90.945 C256.101 91.42 256.101 91.42 257.169 91.904 C266.801 96.266 276.481 100.508 286.195 104.682 C326.248 121.899 326.248 121.899 335.055 138.57 C336.644 143.338 337.13 147.908 335.207 152.668 C329.076 162.7 319.089 171.135 310.176 178.668 C306.624 181.853 303.306 185.278 299.972 188.69 C297.128 191.58 294.222 194.329 291.148 196.977 C286.906 200.642 282.979 204.57 279.055 208.57 C274.515 213.199 269.905 217.624 264.992 221.855 C261.87 224.619 258.971 227.592 256.055 230.57 C251.221 235.455 246.326 240.155 241.055 244.57 C240.453 245.1 239.851 245.63 239.23 246.176 C238.636 246.698 238.042 247.22 237.43 247.758 C236.922 248.205 236.414 248.652 235.891 249.113 C234.055 250.57 234.055 250.57 231.396 252.215 C227.367 254.892 224.123 258.271 220.75 261.715 C220.067 262.403 219.384 263.091 218.681 263.8 C216.509 265.989 214.344 268.186 212.18 270.383 C210.022 272.568 207.862 274.753 205.7 276.934 C204.359 278.287 203.021 279.642 201.686 281.001 C197.892 284.835 193.983 288.459 189.88 291.962 C188.025 293.596 186.285 295.305 184.555 297.07 C181.482 300.199 178.24 303.07 174.914 305.926 C173.255 307.394 171.711 308.909 170.18 310.508 C168.055 312.57 168.055 312.57 166.055 312.57 C166.055 313.23 166.055 313.89 166.055 314.57 C164.586 316.016 164.586 316.016 162.555 317.695 C158.705 320.949 155.194 324.418 151.719 328.066 C150.055 329.57 150.055 329.57 148.055 329.57 C148.055 330.23 148.055 330.89 148.055 331.57 C146.586 333.016 146.586 333.016 144.555 334.695 C141.588 337.213 138.779 339.792 136.055 342.57 C133.575 345.088 131.06 347.471 128.367 349.758 C124.571 353.015 121.068 356.516 117.555 360.07 C113.467 364.204 109.331 368.174 104.906 371.949 C98.282 377.412 98.282 377.412 94.055 384.57 C100.573 380.056 106.033 374.801 111.555 369.133 C116.672 363.904 121.802 358.807 127.357 354.043 C129.356 352.309 131.217 350.474 133.055 348.57 C136.226 345.35 139.532 342.382 142.965 339.445 C146.192 336.55 149.174 333.422 152.172 330.293 C154.055 328.57 154.055 328.57 156.055 328.57 C156.055 327.91 156.055 327.25 156.055 326.57 C157.534 325.096 157.534 325.096 159.574 323.395 C163.751 319.842 167.758 316.149 171.742 312.383 C176.754 307.661 181.788 302.969 186.867 298.32 C191.836 293.766 196.619 289.063 201.324 284.238 C203.383 282.226 205.445 280.358 207.629 278.492 C213.389 273.502 218.691 268.04 224.055 262.633 C225.126 261.556 226.198 260.48 227.27 259.404 C229.867 256.796 232.462 254.184 235.055 251.57 C239.042 253.851 241.476 255.992 244.305 259.633 C247.286 263.389 250.317 267.032 253.555 270.57 C257.416 274.813 261.066 279.187 264.66 283.656 C266.36 285.725 268.075 287.738 269.855 289.734 C280.369 301.601 285.982 312.58 285.238 328.653 C284.839 332.821 283.258 336.076 281.055 339.57 C280.704 340.192 280.353 340.813 279.992 341.453 C273.417 352 261.514 354.819 250.127 357.526 C245.723 358.541 241.305 359.491 236.887 360.441 C235.223 360.804 233.56 361.166 231.896 361.53 C228.375 362.298 224.853 363.063 221.331 363.825 C213.048 365.617 204.768 367.426 196.488 369.233 C193.706 369.84 190.923 370.447 188.14 371.053 C171.389 374.705 154.656 378.433 137.93 382.195 C136.687 382.475 135.444 382.754 134.163 383.042 C127.459 384.549 120.757 386.058 114.055 387.57 C117.755 388.883 120.434 388.267 124.214 387.406 C125.473 387.123 126.732 386.841 128.029 386.551 C129.417 386.23 130.804 385.91 132.191 385.59 C133.645 385.261 135.098 384.934 136.552 384.607 C139.661 383.907 142.769 383.202 145.877 382.492 C153.234 380.813 160.596 379.158 167.959 377.505 C169.624 377.131 171.289 376.756 172.954 376.382 C184.246 373.842 195.549 371.372 206.879 369.008 C207.529 368.872 208.18 368.736 208.85 368.596 C215.515 367.205 222.184 365.831 228.854 364.466 C231.023 364.019 233.191 363.571 235.359 363.121 C236.38 362.91 237.4 362.7 238.452 362.483 C244.686 361.164 250.756 359.542 256.855 357.707 C263.977 355.61 270.01 355.154 277.367 356.07 C279.785 356.307 282.203 356.54 284.621 356.77 C285.271 356.835 285.921 356.901 286.591 356.969 C292.206 357.529 297.824 357.891 303.457 358.215 C322.413 359.316 341.271 360.715 360.117 363.07 C360.945 363.172 361.774 363.274 362.627 363.378 C390.905 366.89 390.905 366.89 398.055 374.57 C400.039 377.447 401.597 380.399 403.055 383.57 C403.467 384.395 403.88 385.22 404.305 386.07 C406.604 393.734 406.453 400.566 402.969 407.836 C399.397 414.236 394.75 419.651 389.973 425.16 C387.099 428.486 384.376 431.913 381.68 435.383 C348.558 477.865 348.558 477.865 328.242 481.195 C320.673 481.985 313.36 481.577 305.805 480.729 C305.015 480.641 304.225 480.552 303.411 480.461 C295.04 479.494 286.735 478.191 278.419 476.836 C276.742 476.566 275.064 476.297 273.385 476.027 C268.884 475.304 264.384 474.575 259.884 473.845 C255.132 473.075 250.378 472.31 245.624 471.545 C237.641 470.258 229.657 468.968 221.674 467.676 C210.496 465.867 199.318 464.064 188.138 462.261 C179.368 460.847 170.598 459.432 161.828 458.016 C160.905 457.867 159.982 457.718 159.031 457.564 C153.686 456.701 148.341 455.837 142.996 454.972 C140.512 454.57 138.027 454.17 135.542 453.769 C128.476 452.627 121.414 451.469 114.361 450.247 C113.227 450.051 112.093 449.856 110.925 449.655 C108.89 449.302 106.857 448.943 104.824 448.576 C103.958 448.426 103.092 448.276 102.199 448.121 C101.463 447.989 100.726 447.857 99.967 447.722 C97.833 447.428 97.833 447.428 95.055 448.57 C86.497 449.302 79.734 448.453 72.055 444.57 C71.799 445.157 71.544 445.743 71.281 446.348 C68.21 451.913 62.342 456.228 56.32 458.137 C47.478 459.829 39.282 459.112 31.789 454.035 C29.836 452.591 27.931 451.112 26.055 449.57 C25.362 450.276 25.362 450.276 24.656 450.996 C18.812 456.575 13.509 459.242 5.395 459.73 C-3.304 459.418 -11.393 456.243 -17.48 449.949 C-19.412 447.548 -21.227 445.128 -22.945 442.57 C-24.08 443.23 -25.214 443.89 -26.383 444.57 C-31.77 447.226 -36.424 447.602 -42.199 445.91 C-65.148 436.691 -76.911 410.437 -86.945 389.57 C-87.44 388.085 -87.44 388.085 -87.945 386.57 C-88.626 386.302 -89.307 386.034 -90.008 385.758 C-93.586 384.311 -96.001 382.15 -98.883 379.617 C-100.922 378.297 -100.922 378.297 -103.23 379.156 C-104.126 379.623 -105.022 380.09 -105.945 380.57 C-107.099 381.166 -108.253 381.761 -109.441 382.375 C-110.076 382.709 -110.71 383.044 -111.364 383.388 C-124.737 390.389 -140.515 396.255 -155.785 392.957 C-164.649 390.135 -171.318 384.962 -176.008 376.883 C-179.257 369.549 -179.305 361.268 -176.508 353.758 C-166.701 335.066 -137.034 327.085 -118.851 320.001 C-96.608 311.249 -84.429 294.58 -73.945 273.57 C-73.619 272.918 -73.292 272.266 -72.955 271.594 C-69.053 264.627 -69.053 264.627 -68.492 257.074 C-70.348 253.877 -72.547 251.047 -74.883 248.195 C-83.45 237.509 -91.389 226.398 -99.254 215.188 C-103.652 208.94 -108.184 202.796 -112.734 196.657 C-116.541 191.509 -120.272 186.315 -123.945 181.07 C-128.178 175.03 -132.497 169.062 -136.883 163.133 C-170.74 117.323 -170.74 117.323 -168.945 100.57 C-165.661 87.379 -157.002 80.495 -145.866 73.688 C-143.053 72.027 -140.232 70.382 -137.401 68.751 C-134.19 66.899 -130.987 65.032 -127.785 63.164 C-126.801 62.59 -126.801 62.59 -125.796 62.005 C-119.193 58.147 -112.659 54.181 -106.133 50.195 C-96.113 44.079 -86.047 38.048 -75.945 32.07 C-63.217 24.537 -50.552 16.904 -37.922 9.207 C-34.065 6.859 -30.208 4.511 -26.344 2.176 C-25.564 1.704 -24.785 1.233 -23.982 0.747 C-16.646 -3.491 -7.502 -4.309 0 0 Z M-55.383 43.816 C-56.706 44.566 -56.706 44.566 -58.055 45.33 C-59.009 45.884 -59.963 46.437 -60.945 47.008 C-62.437 47.862 -62.437 47.862 -63.959 48.734 C-89.463 60.867 -89.463 60.867 -108.82 77.82 C-108.862 78.398 -108.903 78.975 -108.945 79.57 C-107.239 80.381 -107.239 80.381 -104.945 80.57 C-102.094 79.369 -102.094 79.369 -99.09 77.477 C-98.519 77.138 -97.948 76.8 -97.36 76.451 C-95.485 75.336 -93.622 74.204 -91.758 73.07 C-90.462 72.294 -89.166 71.518 -87.869 70.743 C-85.205 69.149 -82.546 67.549 -79.889 65.943 C-76.157 63.692 -72.404 61.479 -68.645 59.273 C-66.411 57.956 -64.178 56.638 -61.945 55.32 C-60.909 54.714 -59.872 54.107 -58.804 53.482 C-53.922 50.574 -49.693 47.867 -45.945 43.57 C-46.44 42.58 -46.44 42.58 -46.945 41.57 C-51.007 41.57 -52.021 41.897 -55.383 43.816 Z M-156.945 87.57 C-156.945 90.57 -156.945 90.57 -156.945 90.57 Z M-159.945 92.57 C-164.009 98.327 -165.957 104.529 -164.945 111.57 C-162.805 118.584 -159.416 124.275 -155.008 130.07 C-153.854 131.625 -152.7 133.179 -151.547 134.734 C-150.956 135.525 -150.364 136.315 -149.755 137.13 C-147.924 139.599 -146.129 142.091 -144.344 144.594 C-143.764 145.407 -143.183 146.219 -142.586 147.057 C-141.475 148.614 -140.367 150.173 -139.26 151.732 C-136.703 155.297 -134.197 158.592 -130.945 161.57 C-131.553 158.473 -132.537 156.43 -134.387 153.883 C-134.885 153.189 -135.383 152.496 -135.896 151.782 C-136.694 150.687 -136.694 150.687 -137.508 149.57 C-138.599 148.048 -139.689 146.524 -140.777 145 C-141.583 143.876 -141.583 143.876 -142.405 142.729 C-144.537 139.741 -146.629 136.73 -148.695 133.695 C-149.33 132.77 -149.964 131.844 -150.617 130.891 C-151.945 128.57 -151.945 128.57 -151.945 125.57 C-149.003 125.657 -146.759 125.857 -144.486 127.85 C-142.975 129.622 -141.576 131.444 -140.195 133.32 C-139.675 133.998 -139.155 134.677 -138.619 135.375 C-137.046 137.43 -135.495 139.499 -133.945 141.57 C-132.306 143.721 -130.657 145.864 -129.008 148.008 C-128.206 149.056 -127.404 150.104 -126.578 151.184 C-121.505 157.755 -116.205 164.148 -110.945 170.57 C-110.116 171.585 -109.288 172.599 -108.434 173.645 C-106.273 176.288 -104.11 178.93 -101.945 181.57 C-98.942 185.234 -95.942 188.901 -92.945 192.57 C-92.455 193.17 -91.965 193.77 -91.46 194.388 C-83.851 203.703 -76.339 213.084 -68.945 222.57 C-68.408 223.259 -67.871 223.947 -67.317 224.656 C-60.255 233.7 -53.23 242.77 -46.295 251.913 C-43.273 255.886 -40.17 259.76 -36.945 263.57 C-36.285 263.24 -35.625 262.91 -34.945 262.57 C-36.412 258.144 -38.846 254.884 -41.758 251.32 C-42.755 250.076 -43.751 248.832 -44.746 247.586 C-45.269 246.933 -45.792 246.28 -46.331 245.607 C-49.085 242.133 -51.762 238.6 -54.445 235.07 C-63.423 223.298 -72.605 211.712 -81.961 200.238 C-84.287 197.384 -86.592 194.515 -88.883 191.633 C-92.419 187.198 -96.023 182.82 -99.633 178.445 C-118.093 156.061 -118.093 156.061 -125.195 146.758 C-129.654 140.921 -134.23 135.202 -138.945 129.57 C-139.625 128.743 -140.304 127.915 -141.004 127.062 C-144.148 123.349 -146.947 120.364 -151.195 117.945 C-155.168 115.615 -157.705 113.089 -158.945 108.57 C-159.398 103.144 -159.68 97.775 -157.945 92.57 C-158.605 92.57 -159.265 92.57 -159.945 92.57 Z M197.055 102.57 C196.56 104.55 196.56 104.55 196.055 106.57 C206.063 114.674 220.261 118.773 232.071 123.486 C238.933 126.239 245.591 129.211 252.193 132.547 C255.351 133.676 256.896 133.554 260.055 132.57 C259.78 130.633 259.78 130.633 259.055 128.57 C256.61 126.884 254.311 125.539 251.68 124.195 C250.879 123.778 250.079 123.361 249.254 122.932 C236.704 116.629 223.449 111.727 210.359 106.676 C207.787 105.678 205.279 104.69 202.844 103.389 C200.776 102.293 200.776 102.293 197.055 102.57 Z M148.189 113.112 C147.158 114.176 147.158 114.176 146.105 115.262 C145.339 116.042 144.573 116.823 143.783 117.627 C142.986 118.454 142.189 119.281 141.367 120.133 C132.424 129.327 132.424 129.327 128.285 132.848 C122.203 138.06 116.681 143.877 111.055 149.57 C108.787 151.865 106.516 154.156 104.242 156.445 C103.74 156.956 103.238 157.467 102.72 157.993 C99.952 160.779 97.11 163.421 94.137 165.988 C90.093 169.491 86.312 173.202 82.555 177.008 C81.875 177.692 81.195 178.375 80.494 179.08 C78.345 181.241 76.2 183.405 74.055 185.57 C71.224 188.427 68.391 191.281 65.555 194.133 C64.604 195.096 64.604 195.096 63.635 196.078 C59.867 199.866 55.973 203.429 51.93 206.92 C49.269 209.261 46.795 211.736 44.305 214.258 C43.802 214.764 43.3 215.27 42.782 215.792 C41.204 217.382 39.629 218.976 38.055 220.57 C26.481 232.294 26.481 232.294 22.242 235.883 C15.454 241.675 9.328 248.233 3.055 254.57 C0.412 257.24 -2.234 259.906 -4.883 262.57 C-5.473 263.168 -6.062 263.767 -6.67 264.383 C-9.658 267.388 -12.703 270.266 -15.911 273.036 C-19.979 276.553 -23.775 280.288 -27.551 284.113 C-28.581 285.15 -28.581 285.15 -29.633 286.207 C-31.802 288.388 -33.968 290.573 -36.133 292.758 C-38.998 295.65 -41.867 298.539 -44.738 301.426 C-45.387 302.083 -46.036 302.74 -46.705 303.418 C-49.355 306.082 -51.937 308.564 -54.896 310.892 C-55.572 311.446 -56.248 312 -56.945 312.57 C-56.945 313.23 -56.945 313.89 -56.945 314.57 C-58.925 315.56 -58.925 315.56 -60.945 316.57 C-58.276 319.848 -55.11 320.882 -51.219 322.363 C-50.194 322.758 -50.194 322.758 -49.149 323.16 C-46.876 324.033 -44.598 324.895 -42.32 325.758 C-40.709 326.375 -39.098 326.992 -37.487 327.611 C-34.945 328.587 -32.402 329.563 -29.858 330.535 C-22.012 333.535 -14.192 336.597 -6.373 339.666 C1.277 342.667 8.937 345.642 16.598 348.616 C19.032 349.562 21.465 350.511 23.898 351.46 C27.664 352.929 31.435 354.384 35.211 355.828 C36.592 356.359 37.971 356.894 39.349 357.433 C41.231 358.169 43.119 358.888 45.008 359.605 C46.588 360.215 46.588 360.215 48.2 360.836 C51.318 361.638 53.018 361.573 56.055 360.57 C58.54 358.532 58.54 358.532 60.867 355.945 C63.709 352.932 66.578 350.081 69.723 347.391 C74.935 342.887 79.721 337.973 84.555 333.07 C89.889 327.66 95.215 322.359 100.986 317.416 C105.369 313.505 109.432 309.252 113.555 305.07 C123.572 294.909 123.572 294.909 128.023 291.102 C133.325 286.561 138.158 281.537 143.055 276.57 C153.564 265.911 153.564 265.911 157.855 262.266 C164.342 256.716 170.231 250.498 176.242 244.445 C177.512 243.17 178.782 241.896 180.053 240.621 C182.385 238.281 184.715 235.94 187.044 233.597 C189.709 230.916 192.38 228.242 195.055 225.57 C188.415 224.352 181.855 224.443 175.121 224.473 C173.888 224.474 172.655 224.475 171.385 224.477 C167.462 224.483 163.54 224.495 159.617 224.508 C156.951 224.513 154.285 224.517 151.619 224.521 C145.098 224.532 138.576 224.549 132.055 224.57 C132.385 223.58 132.715 222.59 133.055 221.57 C137.221 220.773 141.09 220.474 145.329 220.555 C146.551 220.574 147.773 220.593 149.032 220.612 C150.996 220.644 150.996 220.644 153 220.676 C156.523 220.701 160.045 220.709 163.568 220.719 C167.234 220.732 170.897 220.767 174.562 220.848 C192.705 222.109 192.705 222.109 208.52 215.243 C212.288 211.37 212.288 211.37 214.055 206.57 C200.874 206.448 187.728 206.595 174.555 207.07 C161.382 207.546 148.235 207.693 135.055 207.57 C135.055 206.58 135.055 205.59 135.055 204.57 C151.596 203.448 168.161 202.981 184.73 202.445 C188.491 202.323 192.251 202.197 196.012 202.07 C197.143 202.035 198.275 201.999 199.441 201.963 C204.848 201.78 210.251 201.543 215.65 201.194 C216.605 201.134 217.561 201.075 218.545 201.013 C222.662 200.287 224.736 198.084 227.305 194.945 C228.223 193.909 229.145 192.875 230.07 191.844 C230.541 191.309 231.011 190.775 231.495 190.224 C233.815 187.763 236.388 185.626 238.954 183.427 C242.595 180.209 245.965 176.724 249.367 173.258 C250.757 171.843 252.149 170.43 253.543 169.02 C254.448 168.097 254.448 168.097 255.372 167.155 C257.055 165.57 257.055 165.57 260.055 163.57 C260.055 162.91 260.055 162.25 260.055 161.57 C257.212 160.25 254.369 158.93 251.525 157.61 C249.003 156.439 246.481 155.268 243.959 154.097 C237.717 151.198 231.473 148.3 225.227 145.41 C209.636 138.193 194.09 130.885 178.562 123.534 C176.444 122.532 174.324 121.532 172.205 120.532 C169.382 119.201 166.566 117.857 163.752 116.507 C162.391 115.859 161.03 115.211 159.668 114.562 C158.732 114.109 158.732 114.109 157.777 113.646 C152.874 111.114 152.874 111.114 148.189 113.112 Z M320.055 128.57 C320.124 129.211 320.194 129.852 320.266 130.512 C320.559 135.193 320.675 138.564 317.555 142.258 C316.42 143.395 315.252 144.5 314.055 145.57 C313.509 146.063 312.964 146.555 312.402 147.062 C311.129 148.183 309.845 149.291 308.555 150.391 C303.293 154.978 298.252 159.813 293.164 164.591 C290.985 166.636 288.803 168.677 286.621 170.719 C279.96 176.959 273.344 183.215 266.938 189.719 C265.14 191.486 263.288 193.126 261.367 194.758 C256.768 198.693 252.561 203.01 248.329 207.333 C245.354 210.352 242.33 213.241 239.117 216.008 C234.884 219.662 230.968 223.58 227.055 227.57 C222.505 232.209 217.885 236.646 212.961 240.887 C210.022 243.482 207.293 246.267 204.555 249.07 C201.188 252.48 197.847 255.855 194.18 258.945 C190.073 262.423 186.338 266.25 182.555 270.07 C178.21 274.457 173.864 278.722 169.141 282.703 C165.551 285.917 162.216 289.39 158.829 292.815 C156.007 295.657 153.179 298.42 150.117 301.008 C145.542 304.884 141.406 309.194 137.192 313.452 C133.62 317.047 129.98 320.461 126.109 323.734 C123.31 326.235 120.692 328.901 118.055 331.57 C114.851 334.813 111.664 338 108.18 340.945 C104.256 344.278 100.673 347.914 97.055 351.57 C92.914 355.755 88.755 359.792 84.254 363.59 C80.364 367.093 76.727 370.86 73.064 374.598 C70.499 377.2 68.008 379.607 65.129 381.871 C64.444 382.432 63.76 382.993 63.055 383.57 C63.055 384.23 63.055 384.89 63.055 385.57 C62.096 385.972 62.096 385.972 61.117 386.383 C58.723 387.457 58.723 387.457 58.055 390.57 C64.285 389.337 67.246 386.995 71.492 382.383 C72.634 381.191 73.777 380.001 74.922 378.812 C75.464 378.245 76.007 377.677 76.565 377.093 C78.331 375.288 80.185 373.632 82.117 372.008 C85.62 369.039 88.831 365.834 92.055 362.57 C95.279 359.306 98.49 356.102 101.992 353.133 C105.714 349.97 109.123 346.541 112.555 343.07 C116.542 339.037 120.57 335.176 124.898 331.508 C127.901 328.81 130.717 325.94 133.555 323.07 C140.266 316.283 140.266 316.283 143.93 313.195 C148.036 309.718 151.771 305.891 155.555 302.07 C159.878 297.705 164.201 293.464 168.902 289.504 C172.734 286.062 176.298 282.345 179.92 278.686 C183.469 275.113 187.086 271.724 190.934 268.473 C193.926 265.789 196.729 262.928 199.555 260.07 C206.266 253.283 206.266 253.283 209.93 250.195 C214.757 246.108 219.112 241.537 223.559 237.046 C227.263 233.32 231.018 229.758 235.035 226.371 C238.383 223.386 241.487 220.157 244.638 216.968 C247.32 214.265 250.019 211.656 252.93 209.195 C256.853 205.863 260.437 202.226 264.055 198.57 C268.2 194.382 272.364 190.344 276.867 186.539 C280.705 183.085 284.28 179.363 287.911 175.695 C291.549 172.033 295.258 168.544 299.199 165.207 C301.416 163.251 303.478 161.175 305.555 159.07 C311.386 153.169 317.66 147.846 324.055 142.57 C324.715 143.89 325.375 145.21 326.055 146.57 C327.54 145.58 327.54 145.58 329.055 144.57 C329.055 146.88 329.055 149.19 329.055 151.57 C329.715 151.24 330.375 150.91 331.055 150.57 C332.073 142.971 330.508 138.721 325.977 132.602 C324.084 130.601 322.584 129.6 320.055 128.57 Z M327.055 148.57 C326.725 149.23 326.395 149.89 326.055 150.57 C326.715 150.57 327.375 150.57 328.055 150.57 C327.725 149.91 327.395 149.25 327.055 148.57 Z M-118.57 176.07 C-119.024 176.565 -119.478 177.06 -119.945 177.57 C-117.813 182.243 -115.92 186.163 -111.945 189.57 C-110.295 188.91 -108.645 188.25 -106.945 187.57 C-107.471 183.462 -108.613 181.315 -111.383 178.258 C-112 177.56 -112.618 176.863 -113.254 176.145 C-115.531 174.025 -116.274 173.951 -118.57 176.07 Z M-99.945 199.57 C-100.605 200.89 -101.265 202.21 -101.945 203.57 C-97.545 210.553 -97.545 210.553 -91.945 216.57 C-89.945 215.779 -89.945 215.779 -87.945 214.57 C-87.615 213.58 -87.285 212.59 -86.945 211.57 C-88.419 208.784 -88.419 208.784 -90.57 205.945 C-91.264 204.963 -91.957 203.981 -92.672 202.969 C-95.165 200.338 -96.394 199.832 -99.945 199.57 Z M-83.945 226.57 C-80.74 232.783 -77.134 238.169 -72.633 243.508 C-71.475 244.906 -70.317 246.304 -69.16 247.703 C-68.606 248.369 -68.051 249.034 -67.48 249.72 C-65.52 252.083 -63.604 254.479 -61.695 256.883 C-61.089 257.639 -60.484 258.396 -59.859 259.176 C-58.412 260.987 -56.97 262.803 -55.531 264.621 C-54.719 265.636 -53.907 266.65 -53.07 267.695 C-51.96 269.091 -51.96 269.091 -50.828 270.516 C-50.207 271.194 -49.585 271.872 -48.945 272.57 C-48.285 272.57 -47.625 272.57 -46.945 272.57 C-48.243 269.786 -49.672 267.498 -51.633 265.137 C-52.162 264.495 -52.69 263.852 -53.235 263.191 C-53.799 262.512 -54.364 261.832 -54.945 261.133 C-59.08 256.102 -63.178 251.056 -67.133 245.883 C-67.92 244.854 -68.708 243.825 -69.52 242.766 C-71.262 240.477 -72.99 238.177 -74.715 235.875 C-75.172 235.27 -75.628 234.665 -76.099 234.042 C-76.979 232.875 -77.854 231.705 -78.723 230.531 C-79.75 229.173 -80.842 227.866 -81.945 226.57 C-82.605 226.57 -83.265 226.57 -83.945 226.57 Z M236.055 260.57 C237.707 264.488 240.359 267.461 243.117 270.633 C244.119 271.8 245.121 272.968 246.121 274.137 C246.619 274.717 247.117 275.297 247.629 275.895 C250.385 279.134 253.049 282.447 255.727 285.75 C257.421 287.803 259.133 289.823 260.883 291.828 C275.639 308.778 275.639 308.778 274.879 321.516 C274.648 324.208 274.375 326.888 274.055 329.57 C276.035 329.075 276.035 329.075 278.055 328.57 C277.438 330.053 276.811 331.531 276.18 333.008 C275.832 333.832 275.484 334.655 275.125 335.504 C274.055 337.57 274.055 337.57 272.055 338.57 C272.055 339.23 272.055 339.89 272.055 340.57 C275.953 339.317 277.379 336.9 279.238 333.363 C282.471 326.263 281.289 318.621 279.137 311.379 C275.541 302.045 267.78 294.653 261.262 287.242 C258.566 284.172 255.946 281.052 253.367 277.883 C252.67 277.027 251.972 276.171 251.254 275.289 C250.083 273.842 248.913 272.393 247.752 270.938 C246.402 269.246 245.042 267.564 243.68 265.883 C242.868 264.868 242.055 263.854 241.219 262.809 C240.148 261.701 240.148 261.701 239.055 260.57 C238.065 260.57 237.075 260.57 236.055 260.57 Z M-63.945 262.57 C-64.418 263.696 -64.891 264.821 -65.379 265.98 C-70.995 279.106 -77.554 291.005 -85.945 302.57 C-73.714 296.946 -66.582 281.92 -61.625 270.094 C-60.901 267.407 -60.853 266.112 -61.945 263.57 C-62.605 263.24 -63.265 262.91 -63.945 262.57 Z M-57.945 270.57 C-58.346 271.586 -58.747 272.602 -59.16 273.648 C-63.003 283.073 -67.291 290.777 -73.945 298.57 C-74.485 299.223 -75.026 299.875 -75.582 300.547 C-88.528 314.83 -109.514 321.491 -126.8 328.681 C-152.762 337.923 -152.762 337.923 -172.137 355.938 C-173.991 361.976 -174.019 369.052 -171.445 374.883 C-167.794 381.054 -161.994 386.004 -155.113 388.133 C-138.246 391.537 -119.854 383.448 -105.945 374.57 C-106.468 371.808 -107.054 369.244 -107.945 366.57 C-108.759 359.539 -107.34 353.885 -104.82 347.332 C-103.944 344.568 -103.778 342.448 -103.945 339.57 C-103.35 339.304 -102.755 339.038 -102.141 338.763 C-99.893 337.542 -98.54 336.347 -96.809 334.48 C-96.23 333.86 -95.652 333.239 -95.057 332.6 C-94.463 331.951 -93.869 331.302 -93.258 330.633 C-92.684 330.019 -92.109 329.404 -91.518 328.771 C-88.232 325.218 -85.161 321.577 -82.18 317.766 C-74.793 308.66 -66.204 300.621 -57.883 292.383 C-56.141 290.651 -54.399 288.918 -52.658 287.186 C-48.426 282.975 -44.188 278.77 -39.945 274.57 C-40.935 274.57 -41.925 274.57 -42.945 274.57 C-43.42 275.086 -43.894 275.602 -44.383 276.133 C-45.945 277.57 -45.945 277.57 -47.82 277.57 C-50.806 276.165 -52.657 273.917 -54.945 271.57 C-55.935 271.24 -56.925 270.91 -57.945 270.57 Z M150.43 357.633 C149.413 357.916 148.395 358.2 147.347 358.492 C144.485 359.293 141.625 360.103 138.766 360.918 C137.481 361.277 137.481 361.277 136.171 361.643 C131.701 362.853 131.701 362.853 128.055 365.57 C139.072 364.973 149.901 362.826 160.742 360.883 C161.753 360.702 162.763 360.521 163.805 360.335 C186.43 356.263 208.034 350.748 229.85 343.552 C239.843 340.257 249.864 337.198 260.055 334.57 C260.055 333.91 260.055 333.25 260.055 332.57 C224.344 332.57 184.457 348.1 150.43 357.633 Z M-100.945 349.57 C-102.914 351.539 -102.608 354.918 -102.945 357.57 C-103.275 357.57 -103.605 357.57 -103.945 357.57 C-104.457 363.972 -104.064 367.55 -99.945 372.57 C-99.285 372.24 -98.625 371.91 -97.945 371.57 C-97.945 370.58 -97.945 369.59 -97.945 368.57 C-94.317 369.88 -91.491 371.47 -88.402 373.77 C-82.737 377.822 -76.776 381.115 -70.633 384.383 C-69.575 384.955 -68.517 385.526 -67.428 386.115 C-62.993 388.496 -58.654 390.774 -53.945 392.57 C-53.615 391.58 -53.285 390.59 -52.945 389.57 C-53.915 388.976 -54.884 388.382 -55.883 387.77 C-64.476 382.469 -72.875 376.958 -81.156 371.184 C-83.592 369.489 -86.049 367.84 -88.547 366.238 C-89.627 365.543 -90.707 364.849 -91.82 364.133 C-92.766 363.536 -93.713 362.939 -94.688 362.324 C-98.3 359.518 -98.827 357.281 -99.57 352.82 C-99.694 351.748 -99.818 350.675 -99.945 349.57 C-100.275 349.57 -100.605 349.57 -100.945 349.57 Z M-47.07 359.438 C-52.257 365.338 -53.232 370.46 -53.176 378.09 C-52.836 381.748 -51.573 384.943 -48.945 387.57 C-47.279 387.611 -45.611 387.613 -43.945 387.57 C-44.558 384.609 -45.199 383.19 -46.945 380.57 C-47.724 374.697 -47.422 369.505 -43.945 364.57 C-39.84 360.157 -36.023 357.53 -29.945 356.57 C-24.216 356.492 -20.481 357.92 -15.945 361.57 C-13.853 365.754 -14.516 371.014 -14.945 375.57 C-17.544 380.96 -21.299 384.394 -26.758 386.82 C-27.48 387.068 -28.202 387.315 -28.945 387.57 C-27.845 389.257 -27.845 389.257 -25.945 390.57 C-20.971 390.683 -18.049 388.626 -14.559 385.359 C-9.645 379.911 -8.247 374.536 -8.57 367.25 C-9.281 362.173 -10.839 358.439 -14.711 355.004 C-25.885 347.283 -37.708 350.66 -47.07 359.438 Z M245.566 370.713 C244.677 370.964 243.788 371.216 242.872 371.475 C241.91 371.753 240.948 372.03 239.957 372.316 C237.872 372.908 235.788 373.5 233.703 374.091 C232.609 374.404 231.514 374.717 230.386 375.039 C224.673 376.67 218.954 378.279 213.234 379.887 C212.096 380.207 210.957 380.527 209.784 380.857 C183.398 388.255 156.799 394.617 130.055 400.57 C130.055 401.56 130.055 402.55 130.055 403.57 C139.587 402.283 148.85 400.327 158.18 398.008 C159.626 397.652 161.073 397.296 162.52 396.94 C167.034 395.828 171.545 394.7 176.055 393.57 C177.471 393.217 178.887 392.864 180.303 392.51 C205.016 386.33 229.542 379.499 254.055 372.57 C254.055 371.58 254.055 370.59 254.055 369.57 C250.697 369.57 248.696 369.816 245.566 370.713 Z M390.055 374.57 C390.117 375.54 390.178 376.509 390.242 377.508 C390.021 395.902 368.902 411.9 356.727 423.867 C355.002 425.624 353.403 427.448 351.805 429.32 C335.458 448.173 335.458 448.173 324.055 450.57 C321.19 450.667 318.356 450.71 315.492 450.695 C314.37 450.701 314.37 450.701 313.225 450.707 C307.128 450.697 301.117 450.197 295.055 449.57 C295.026 453.549 295.008 457.529 294.992 461.508 C294.984 462.644 294.975 463.78 294.967 464.951 C294.964 466.031 294.96 467.11 294.957 468.223 C294.952 469.223 294.947 470.223 294.941 471.254 C294.793 473.532 294.793 473.532 296.055 474.57 C314.42 477.239 332.711 478.966 348.555 467.508 C353.313 463.619 356.992 459.071 360.749 454.233 C362.717 451.727 364.741 449.266 366.759 446.8 C372.37 439.941 377.894 433.018 383.344 426.031 C385.237 423.605 387.151 421.197 389.078 418.797 C389.576 418.173 390.074 417.549 390.587 416.907 C391.534 415.722 392.485 414.54 393.44 413.363 C398.367 407.172 401.247 401.517 401.055 393.57 C399.919 386.458 396.973 380.817 392.055 375.57 C391.065 375.075 391.065 375.075 390.055 374.57 Z M248.316 385.07 C244.443 386.852 242.203 386.632 237.992 386.258 C230.236 386.045 226.234 388.391 219.984 392.723 C215.35 395.645 211.329 395.817 205.985 395.414 C199.578 395.051 195.621 396.931 190.117 400.008 C182.617 403.923 176.389 405.548 167.93 405.408 C163.422 405.338 160.614 405.681 157.055 408.57 C157.055 409.23 157.055 409.89 157.055 410.57 C170.113 410.775 180.13 409.688 191.684 403.383 C196.194 400.958 199.126 400.485 204.18 400.758 C211.124 400.813 216.483 398.631 222.445 395.191 C228.569 391.724 233.046 391.157 240.074 391.688 C243.589 391.549 245.133 390.434 248.055 388.57 C250.803 388.211 253.265 388.428 256.055 388.57 C256.055 387.25 256.055 385.93 256.055 384.57 C252.688 383.481 251.489 383.332 248.316 385.07 Z M279.055 387.57 C278.56 389.55 278.56 389.55 278.055 391.57 C284.123 394.89 290.213 397.338 297.055 398.57 C297.715 398.24 298.375 397.91 299.055 397.57 C298.874 395.624 298.874 395.624 298.055 393.57 C296.189 392.285 296.189 392.285 293.867 391.445 C293.055 391.118 292.243 390.79 291.406 390.453 C290.242 390.016 290.242 390.016 289.055 389.57 C287.962 389.158 286.868 388.745 285.742 388.32 C282.878 387.391 282.878 387.391 279.055 387.57 Z M83.243 395.957 C80.839 399.22 81.633 403.09 81.93 406.945 C82.348 417.213 80.894 425.746 76.922 435.293 C75.877 437.631 75.877 437.631 76.055 440.57 C82.554 444.037 89.095 444.947 96.293 442.949 C104.608 439.316 109.688 431.707 113.055 423.57 C113.354 422.918 113.653 422.266 113.961 421.594 C117.013 414.048 117.764 404.697 115.176 396.934 C113.139 393.297 111.301 391.716 107.68 389.57 C98.452 387.025 90.447 389.751 83.243 395.957 Z M-43.945 391.758 C-44.904 392.088 -44.904 392.088 -45.883 392.426 C-51.835 395.729 -55.611 401.984 -59.566 407.34 C-61.945 409.57 -61.945 409.57 -65.082 410.074 C-67.945 409.57 -67.945 409.57 -70.32 406.695 C-71.945 403.57 -71.945 403.57 -71.945 401.57 C-70.07 401.883 -70.07 401.883 -67.945 402.57 C-66.955 404.055 -66.955 404.055 -65.945 405.57 C-64.955 405.24 -63.965 404.91 -62.945 404.57 C-64.29 400.536 -66.898 399.444 -70.383 397.383 C-70.982 397.015 -71.58 396.647 -72.197 396.268 C-75.347 394.226 -75.347 394.226 -78.945 393.57 C-72.686 410.655 -60.206 431.685 -43.445 440.008 C-38.996 441.777 -35.71 442.195 -30.945 441.57 C-26.087 439.141 -23.433 436.374 -20.945 431.57 C-17.374 420.549 -16.725 411.126 -21.941 400.551 C-25.051 395.612 -29.501 392.593 -34.945 390.57 C-38.24 390.306 -40.849 390.628 -43.945 391.758 Z M42.055 406.57 C36.691 414.425 32.992 422.305 31.43 431.695 C31.188 433.073 30.945 434.451 30.703 435.828 C30.382 437.681 30.382 437.681 30.055 439.57 C29.728 441.238 29.398 442.906 29.055 444.57 C30.276 445.704 31.507 446.827 32.742 447.945 C33.427 448.572 34.111 449.198 34.816 449.844 C40.679 454.366 46.928 454.286 54.055 453.57 C61.148 451.757 66.029 446.451 70.055 440.57 C72.407 436.017 74.306 431.385 76.055 426.57 C76.323 425.873 76.591 425.176 76.867 424.457 C78.316 419.919 78.316 415.174 78.43 410.445 C78.456 409.764 78.482 409.082 78.509 408.379 C78.525 403.301 77.313 400.424 74.055 396.57 C63.233 389.012 48.984 397.79 42.055 406.57 Z M262.055 395.57 C261.56 397.55 261.56 397.55 261.055 399.57 C272.082 405.101 272.082 405.101 284.055 406.57 C284.166 404.156 284.166 404.156 283.055 401.57 C280.405 400.176 278.11 399.194 275.305 398.258 C274.588 397.994 273.871 397.731 273.133 397.459 C269.336 396.116 266.137 395.225 262.055 395.57 Z M-7.758 405.945 C-12.589 412.731 -14.334 418.074 -15.383 426.324 C-15.901 429.317 -16.709 431.572 -17.945 434.32 C-18.92 437.043 -19.09 438.143 -18.152 440.91 C-14.527 447.013 -9.375 450.717 -2.945 453.57 C4.104 455.306 10.69 455.254 17.055 451.57 C24.978 445.29 27.192 436.388 28.621 426.75 C29.329 419.372 29.719 412.239 26.055 405.57 C22.222 401.049 17.756 397.982 11.805 397.32 C3.113 396.896 -2.286 399.157 -7.758 405.945 Z M337.175 404.223 C336.432 404.977 335.688 405.731 334.922 406.508 C334.116 407.32 333.311 408.132 332.48 408.969 C331.639 409.827 330.797 410.686 329.93 411.57 C329.08 412.429 328.231 413.287 327.355 414.172 C325.251 416.3 323.151 418.433 321.055 420.57 C321.385 421.56 321.715 422.55 322.055 423.57 C322.514 423.172 322.973 422.774 323.445 422.363 C328.708 417.819 328.708 417.819 331.492 415.82 C332.008 415.408 332.523 414.995 333.055 414.57 C333.055 413.91 333.055 413.25 333.055 412.57 C333.632 412.323 334.21 412.075 334.805 411.82 C337.427 410.364 339.147 408.887 341.055 406.57 C341.055 405.25 341.055 403.93 341.055 402.57 C338.888 402.35 338.888 402.35 337.175 404.223 Z M118.055 421.57 C117.395 423.55 116.735 425.53 116.055 427.57 C121.586 429.687 127.163 430.505 132.988 431.386 C134.08 431.556 135.172 431.725 136.297 431.9 C139.91 432.459 143.523 433.011 147.137 433.562 C149.669 433.953 152.201 434.344 154.734 434.736 C160.734 435.663 166.736 436.585 172.738 437.505 C181.452 438.841 190.164 440.185 198.877 441.529 C205.148 442.496 211.419 443.462 217.69 444.424 C232.821 446.748 247.942 449.132 263.055 451.57 C262.725 452.56 262.395 453.55 262.055 454.57 C254.349 454.013 246.759 453.18 239.131 451.96 C237.601 451.72 237.601 451.72 236.04 451.476 C232.701 450.953 229.362 450.424 226.023 449.895 C223.664 449.524 221.304 449.154 218.945 448.784 C212.741 447.811 206.538 446.833 200.335 445.854 C189.294 444.112 178.253 442.377 167.211 440.645 C166.041 440.461 164.871 440.277 163.665 440.088 C146.814 437.442 129.958 434.865 113.055 432.57 C112.071 433.837 111.093 435.109 110.117 436.383 C109.299 437.444 109.299 437.444 108.465 438.527 C106.886 440.612 106.886 440.612 106.055 443.57 C135.032 448.636 164.067 453.342 193.106 458.035 C200.481 459.227 207.855 460.422 215.229 461.616 C221.138 462.573 227.048 463.529 232.958 464.482 C242.684 466.05 252.409 467.623 262.127 469.242 C264.271 469.596 266.414 469.951 268.558 470.305 C270.421 470.614 272.282 470.931 274.144 471.248 C279.869 472.192 285.252 472.789 291.055 472.57 C291.084 468.945 291.101 465.32 291.117 461.695 C291.126 460.663 291.134 459.63 291.143 458.566 C291.146 457.58 291.149 456.594 291.152 455.578 C291.158 454.667 291.163 453.756 291.168 452.817 C291.204 450.533 291.204 450.533 290.055 448.57 C287.733 447.952 287.733 447.952 284.855 447.587 C283.72 447.418 282.585 447.249 281.416 447.075 C280.151 446.896 278.885 446.716 277.582 446.531 C276.231 446.332 274.88 446.132 273.53 445.931 C270.581 445.493 267.633 445.06 264.683 444.631 C256.588 443.45 248.499 442.234 240.41 441.012 C239.544 440.881 238.678 440.75 237.785 440.615 C210.493 436.485 183.283 431.838 156.067 427.238 C151.982 426.548 147.896 425.86 143.81 425.172 C140.974 424.694 138.14 424.211 135.305 423.729 C133.596 423.44 131.888 423.152 130.179 422.865 C129.408 422.732 128.638 422.6 127.844 422.463 C124.509 421.905 121.45 421.57 118.055 421.57 Z " fill="#000000" transform="translate(302.9453125,204.4296875)"/>
<path d="M0 0 C0 1.32 0 2.64 0 4 C-7.138 5.723 -14.289 7.307 -21.5 8.688 C-22.17 8.819 -22.839 8.95 -23.529 9.085 C-27.066 9.749 -30.401 10.145 -34 10 C-34.33 8.68 -34.66 7.36 -35 6 C-29.337 3.571 -23.519 2.52 -17.5 1.312 C-16.372 1.075 -15.244 0.837 -14.082 0.592 C-12.993 0.372 -11.904 0.152 -10.781 -0.074 C-9.792 -0.276 -8.803 -0.478 -7.783 -0.686 C-4.913 -1.01 -2.78 -0.725 0 0 Z " fill="#000000" transform="translate(646,273)"/>
<path d="M0 0 C3.467 1.553 5.138 4.337 7.203 7.39 C8.165 8.756 9.127 10.122 10.09 11.488 C10.6 12.219 11.109 12.95 11.635 13.703 C13.933 16.96 16.308 20.158 18.684 23.359 C20.486 25.788 22.278 28.224 24.067 30.663 C25.944 33.223 27.832 35.772 29.746 38.304 C30.392 39.178 31.038 40.052 31.703 40.952 C32.238 41.663 32.773 42.373 33.324 43.105 C34.266 45.015 34.266 45.015 34.199 47.007 C32.919 49.761 31.184 51.216 28.891 53.202 C27.981 53.994 27.071 54.785 26.133 55.601 C22.546 58.621 18.926 61.595 15.274 64.534 C13.019 66.394 10.818 68.277 8.633 70.214 C8.012 70.761 7.391 71.308 6.751 71.871 C5.535 72.945 4.326 74.027 3.124 75.118 C-2.535 80.098 -2.535 80.098 -6.734 80.015 C-8.953 78.749 -8.953 78.749 -11.234 76.765 C-12.102 76.026 -12.969 75.288 -13.863 74.527 C-14.81 73.698 -15.758 72.869 -16.734 72.015 C-18.325 70.662 -19.922 69.317 -21.519 67.971 C-23.177 66.573 -24.829 65.169 -26.48 63.765 C-32.805 58.402 -39.253 53.188 -45.734 48.015 C-45.23 43.842 -44.188 42.026 -41.109 39.202 C-38.51 36.793 -36.112 34.324 -33.812 31.632 C-28.759 25.804 -23.362 20.309 -17.945 14.821 C-16.711 13.565 -15.484 12.303 -14.262 11.036 C-12.483 9.19 -10.686 7.364 -8.883 5.542 C-8.34 4.972 -7.797 4.401 -7.238 3.813 C-3.423 0.019 -3.423 0.019 0 0 Z M-7.648 11.663 C-8.409 12.421 -9.169 13.179 -9.953 13.96 C-10.747 14.762 -11.541 15.564 -12.359 16.39 C-13.161 17.184 -13.963 17.978 -14.789 18.796 C-15.547 19.557 -16.305 20.317 -17.086 21.101 C-17.785 21.803 -18.485 22.504 -19.205 23.227 C-20.951 24.876 -20.951 24.876 -20.734 27.015 C-21.394 27.015 -22.054 27.015 -22.734 27.015 C-24.303 28.566 -24.303 28.566 -25.922 30.577 C-29.336 34.602 -32.953 38.337 -36.734 42.015 C-34.809 44.378 -34.809 44.378 -31.386 44.242 C-29.958 44.242 -28.529 44.23 -27.101 44.21 C-26.349 44.207 -25.598 44.205 -24.823 44.202 C-22.418 44.19 -20.014 44.165 -17.609 44.14 C-15.98 44.13 -14.351 44.121 -12.722 44.113 C-8.726 44.09 -4.73 44.056 -0.734 44.015 C-0.638 31.966 -0.872 20.035 -1.734 8.015 C-4.709 8.015 -5.57 9.592 -7.648 11.663 Z M3.266 13.015 C3.236 16.494 3.219 19.973 3.203 23.452 C3.195 24.426 3.187 25.4 3.178 26.404 C3.175 27.367 3.172 28.331 3.168 29.323 C3.163 30.198 3.158 31.073 3.152 31.974 C3.303 36.002 3.821 40.009 4.266 44.015 C11.526 44.015 18.786 44.015 26.266 44.015 C24.839 41.161 23.533 38.825 21.727 36.257 C21.232 35.553 20.738 34.849 20.228 34.124 C19.704 33.387 19.181 32.649 18.641 31.89 C17.839 30.758 17.839 30.758 17.021 29.603 C10.949 21.069 10.949 21.069 4.266 13.015 C3.936 13.015 3.606 13.015 3.266 13.015 Z M-34.734 48.015 C-35.064 48.675 -35.394 49.335 -35.734 50.015 C-34.895 50.672 -34.895 50.672 -34.039 51.343 C-29.999 54.539 -26.006 57.756 -22.129 61.148 C-21.515 61.684 -20.901 62.22 -20.268 62.772 C-19.055 63.834 -17.848 64.903 -16.646 65.977 C-16.081 66.471 -15.516 66.966 -14.933 67.476 C-14.437 67.917 -13.94 68.359 -13.428 68.813 C-11.323 70.406 -11.323 70.406 -6.734 72.015 C-6.734 64.425 -6.734 56.835 -6.734 49.015 C-20.594 48.52 -20.594 48.52 -34.734 48.015 Z M-2.734 50.015 C-2.821 51.577 -2.841 53.142 -2.832 54.706 C-2.829 55.651 -2.825 56.595 -2.822 57.568 C-2.814 58.561 -2.805 59.554 -2.797 60.577 C-2.792 61.574 -2.788 62.572 -2.783 63.599 C-2.771 66.071 -2.755 68.543 -2.734 71.015 C1.304 69.652 3.81 67.874 6.891 64.952 C11.469 60.698 16.223 56.752 21.114 52.863 C23.337 51.195 23.337 51.195 24.266 49.015 C19.953 48.986 15.641 48.968 11.328 48.952 C9.481 48.94 9.481 48.94 7.596 48.927 C5.841 48.922 5.841 48.922 4.051 48.917 C2.967 48.912 1.883 48.907 0.766 48.901 C-1.675 48.731 -1.675 48.731 -2.734 50.015 Z " fill="#000000" transform="translate(319.734130859375,302.985107421875)"/>
<path d="M0 0 C-0.074 1.762 -0.074 1.762 -1 4 C-3.281 5.479 -5.379 6.655 -7.812 7.812 C-8.442 8.137 -9.072 8.461 -9.721 8.795 C-12.449 10.132 -14.386 11.075 -17.449 10.699 C-17.961 10.468 -18.473 10.238 -19 10 C-18.891 8.238 -18.891 8.238 -18 6 C-15.234 4.043 -15.234 4.043 -11.75 2.188 C-10.61 1.562 -9.471 0.937 -8.297 0.293 C-4.852 -1.058 -3.444 -1.159 0 0 Z " fill="#000000" transform="translate(361,306)"/>
<path d="M0 0 C1.65 0.33 3.3 0.66 5 1 C4.67 2.65 4.34 4.3 4 6 C1.562 5.625 1.562 5.625 -1 5 C-1.33 4.34 -1.66 3.68 -2 3 C-1.34 2.01 -0.68 1.02 0 0 Z " fill="#000000" transform="translate(212,313)"/>
<path d="M0 0 C1.207 0.031 1.207 0.031 2.438 0.062 C2.82 1.719 3.151 3.387 3.438 5.062 C2.438 6.062 2.438 6.062 -0.125 6.125 C-1.332 6.094 -1.332 6.094 -2.562 6.062 C-2.945 4.406 -3.276 2.738 -3.562 1.062 C-2.562 0.062 -2.562 0.062 0 0 Z " fill="#000000" transform="translate(202.5625,319.9375)"/>
<path d="M0 0 C1.207 0.031 1.207 0.031 2.438 0.062 C2.438 1.712 2.438 3.363 2.438 5.062 C0.787 5.392 -0.863 5.723 -2.562 6.062 C-2.945 4.406 -3.276 2.738 -3.562 1.062 C-2.562 0.062 -2.562 0.062 0 0 Z " fill="#000000" transform="translate(191.5625,326.9375)"/>
<path d="M0 0 C3.557 1.467 5.442 3.371 7.812 6.375 C8.438 7.146 9.063 7.917 9.707 8.711 C11 11 11 11 10.699 13.289 C10.468 13.854 10.238 14.418 10 15 C6.796 14.719 5.998 13.997 3.859 11.496 C3.163 10.487 2.467 9.477 1.75 8.438 C1.044 7.426 0.337 6.414 -0.391 5.371 C-0.922 4.589 -1.453 3.806 -2 3 C-1.34 2.01 -0.68 1.02 0 0 Z " fill="#000000" transform="translate(240,330)"/>
<path d="M0 0 C0.99 0 1.98 0 3 0 C4.824 2.406 4.824 2.406 6.688 5.5 C7.31 6.521 7.933 7.542 8.574 8.594 C9.045 9.388 9.515 10.182 10 11 C9.01 12.485 9.01 12.485 8 14 C4.314 12.541 2.839 10.698 0.75 7.375 C-0.031 6.149 -0.031 6.149 -0.828 4.898 C-1.215 4.272 -1.602 3.645 -2 3 C-1.34 2.01 -0.68 1.02 0 0 Z " fill="#000000" transform="translate(231,338)"/>
<path d="M0 0 C0.841 0.354 0.841 0.354 1.699 0.715 C1.384 3.69 0.732 4.683 -1.461 6.793 C-20.244 20.848 -46.404 33.202 -70.301 31.715 C-70.631 30.725 -70.961 29.735 -71.301 28.715 C-68.856 26.27 -67.57 26.216 -64.199 25.637 C-63.159 25.449 -62.12 25.261 -61.048 25.067 C-59.935 24.868 -58.822 24.67 -57.676 24.465 C-38.014 20.72 -20.229 13.81 -4.57 1.086 C-2.301 -0.285 -2.301 -0.285 0 0 Z " fill="#000000" transform="translate(469.30078125,346.28515625)"/>
<path d="M0 0 C1.32 0.66 2.64 1.32 4 2 C2.442 5.988 -0.119 8.111 -3.375 10.812 C-4.331 11.623 -5.288 12.434 -6.273 13.27 C-9 15 -9 15 -11.352 14.762 C-11.896 14.51 -12.44 14.259 -13 14 C-12.479 9.997 -10.632 8.435 -7.625 5.875 C-6.834 5.192 -6.042 4.509 -5.227 3.805 C-3 2 -3 2 0 0 Z " fill="#000000" transform="translate(285,374)"/>
<path d="M0 0 C0.701 0.248 1.403 0.495 2.125 0.75 C0.671 4.338 -1.087 5.909 -4.258 8.078 C-5.166 8.705 -6.074 9.332 -7.009 9.978 C-7.996 10.645 -8.983 11.312 -10 12 C-11.534 13.051 -11.534 13.051 -13.098 14.124 C-22.399 20.48 -31.765 26.739 -41.16 32.953 C-44.877 35.413 -48.571 37.901 -52.246 40.422 C-53.074 40.986 -53.902 41.55 -54.755 42.132 C-56.29 43.18 -57.82 44.235 -59.345 45.298 C-60.02 45.756 -60.695 46.215 -61.391 46.688 C-61.971 47.088 -62.551 47.489 -63.149 47.902 C-64.875 48.75 -64.875 48.75 -68.875 48.75 C-68.808 46.564 -68.808 46.564 -67.875 43.75 C-65.586 41.853 -63.441 40.305 -60.945 38.73 C-60.24 38.268 -59.535 37.806 -58.809 37.33 C-56.548 35.851 -54.275 34.394 -52 32.938 C-49.041 31.019 -46.087 29.093 -43.133 27.168 C-42.414 26.702 -41.695 26.235 -40.954 25.755 C-35.922 22.478 -31.039 19.042 -26.213 15.468 C-22.901 13.034 -19.496 10.757 -16.062 8.5 C-15.447 8.093 -14.831 7.685 -14.197 7.266 C-12.996 6.471 -11.793 5.679 -10.588 4.89 C-9.445 4.129 -8.313 3.351 -7.193 2.556 C-3.172 -0.276 -3.172 -0.276 0 0 Z " fill="#000000" transform="translate(349.875,374.25)"/>
<path d="M0 0 C-0.33 1.65 -0.66 3.3 -1 5 C-11.292 5.917 -21.585 6.83 -31.878 7.738 C-36.658 8.16 -41.437 8.583 -46.217 9.009 C-50.833 9.421 -55.45 9.829 -60.066 10.235 C-61.824 10.39 -63.581 10.546 -65.338 10.704 C-67.808 10.925 -70.278 11.142 -72.748 11.357 C-73.467 11.423 -74.187 11.488 -74.928 11.556 C-79.635 11.961 -84.275 12.054 -89 12 C-89.495 9.525 -89.495 9.525 -90 7 C-75.873 4.986 -61.663 3.87 -47.445 2.713 C-43.996 2.432 -40.547 2.143 -37.099 1.852 C-33.75 1.571 -30.4 1.298 -27.051 1.023 C-25.834 0.92 -24.617 0.817 -23.363 0.711 C-15.558 0.086 -7.829 -0.12 0 0 Z " fill="#000000" transform="translate(518,381)"/>
<path d="M0 0 C0.99 0.66 1.98 1.32 3 2 C1.637 5.139 0.193 6.953 -2.457 9.102 C-3.151 9.669 -3.845 10.237 -4.56 10.821 C-5.303 11.417 -6.047 12.012 -6.812 12.625 C-7.961 13.557 -7.961 13.557 -9.132 14.507 C-15.667 19.788 -22.308 24.92 -29 30 C-30.573 31.213 -32.145 32.427 -33.716 33.642 C-35.87 35.305 -38.032 36.958 -40.193 38.611 C-41.487 39.606 -42.777 40.605 -44.064 41.607 C-46.224 43.289 -48.392 44.957 -50.562 46.625 C-51.242 47.159 -51.921 47.692 -52.62 48.242 C-53.584 48.977 -53.584 48.977 -54.566 49.727 C-55.133 50.166 -55.7 50.605 -56.283 51.057 C-58 52 -58 52 -62 52 C-61.785 48.349 -61.168 47.16 -58.473 44.598 C-57.346 43.739 -56.208 42.895 -55.062 42.062 C-53.777 41.091 -52.492 40.12 -51.207 39.148 C-50.522 38.638 -49.837 38.127 -49.131 37.601 C-45.465 34.847 -41.863 32.011 -38.25 29.188 C-36.723 28.001 -35.196 26.815 -33.668 25.629 C-30.52 23.184 -27.378 20.733 -24.238 18.277 C-16.258 12.04 -8.264 5.861 0 0 Z " fill="#000000" transform="translate(667,401)"/>
<path d="M0 0 C5.628 0.317 8.23 2.632 11.875 6.625 C15.725 10.725 19.68 14.533 23.943 18.206 C27.34 21.169 30.6 24.277 33.875 27.375 C38.985 32.189 44.131 36.949 49.371 41.621 C53.492 45.35 57.537 49.159 61.583 52.969 C65.489 56.636 69.454 60.171 73.68 63.473 C75.447 65.517 75.653 67.362 76 70 C74.515 70.495 74.515 70.495 73 71 C71.414 69.988 71.414 69.988 69.625 68.312 C68.917 67.66 68.21 67.008 67.48 66.336 C66.253 65.18 66.253 65.18 65 64 C63.519 62.641 62.038 61.283 60.556 59.925 C54.533 54.391 48.563 48.798 42.588 43.213 C38.049 38.973 33.492 34.755 28.923 30.548 C25.996 27.85 23.078 25.142 20.172 22.422 C19.524 21.815 18.875 21.209 18.207 20.583 C16.916 19.374 15.626 18.164 14.338 16.952 C10.158 13.034 5.885 9.266 1.441 5.648 C0 4 0 4 0 0 Z " fill="#000000" transform="translate(122,419)"/>
<path d="M0 0 C0 1.32 0 2.64 0 4 C-25.902 13.995 -51.846 23.868 -77.886 33.497 C-78.588 33.757 -79.289 34.017 -80.012 34.284 C-81.385 34.792 -82.758 35.299 -84.132 35.805 C-87.368 37 -90.584 38.225 -93.777 39.528 C-94.934 39.996 -96.09 40.464 -97.281 40.945 C-98.293 41.366 -99.304 41.786 -100.346 42.219 C-103.107 43.031 -104.351 43.013 -107 42 C-106.786 40.137 -106.786 40.137 -106 38 C-104.112 36.828 -104.112 36.828 -101.422 35.805 C-100.328 35.382 -99.234 34.958 -98.107 34.522 C-96.739 34.014 -95.369 33.507 -94 33 C-92.292 32.355 -90.584 31.71 -88.877 31.063 C-82.677 28.727 -76.464 26.425 -70.25 24.125 C-65.692 22.436 -61.135 20.746 -56.578 19.055 C-54.868 18.42 -54.868 18.42 -53.124 17.773 C-45.689 15.011 -38.269 12.211 -30.859 9.383 C-29 8.675 -27.14 7.968 -25.28 7.261 C-22.655 6.263 -20.031 5.262 -17.41 4.251 C-15.027 3.331 -12.639 2.422 -10.25 1.516 C-9.552 1.243 -8.855 0.97 -8.136 0.689 C-3.341 -1.114 -3.341 -1.114 0 0 Z " fill="#000000" transform="translate(717,424)"/>
<path d="M0 0 C4.87 1.18 7.046 4.103 10.113 7.789 C11.982 9.979 13.943 11.987 16 14 C18.6 16.56 21.063 19.168 23.438 21.938 C26.758 25.807 30.329 29.369 33.984 32.922 C35.854 34.849 37.445 36.815 39 39 C38.34 40.32 37.68 41.64 37 43 C29.414 39.746 23.947 32.039 18.68 25.898 C17.018 24.02 15.289 22.257 13.5 20.5 C7.936 15.023 2.964 9.017 -2 3 C-1.34 2.01 -0.68 1.02 0 0 Z " fill="#000000" transform="translate(167,436)"/>
<path d="M0 0 C-0.375 1.938 -0.375 1.938 -1 4 C-3.193 5.097 -4.769 5.297 -7.199 5.573 C-8.068 5.673 -8.936 5.773 -9.831 5.876 C-10.774 5.98 -11.716 6.084 -12.688 6.191 C-14.146 6.356 -14.146 6.356 -15.634 6.523 C-17.698 6.755 -19.763 6.984 -21.828 7.212 C-24.96 7.558 -28.091 7.914 -31.223 8.271 C-33.232 8.495 -35.241 8.719 -37.25 8.941 C-38.176 9.048 -39.103 9.154 -40.057 9.263 C-46.062 9.914 -51.962 10.124 -58 10 C-57.67 8.35 -57.34 6.7 -57 5 C-49.687 4.116 -42.373 3.245 -35.058 2.382 C-32.57 2.087 -30.082 1.789 -27.594 1.488 C-24.018 1.056 -20.441 0.635 -16.863 0.215 C-15.196 0.01 -15.196 0.01 -13.495 -0.199 C-12.454 -0.319 -11.413 -0.439 -10.341 -0.563 C-9.428 -0.672 -8.516 -0.78 -7.575 -0.892 C-4.876 -1.005 -2.617 -0.637 0 0 Z " fill="#000000" transform="translate(395,448)"/>
<path d="M0 0 C-0.233 1.9 -0.233 1.9 -1 4 C-2.828 4.953 -2.828 4.953 -5.264 5.603 C-6.185 5.859 -7.105 6.116 -8.053 6.379 C-9.071 6.645 -10.088 6.91 -11.137 7.184 C-13.343 7.792 -15.549 8.401 -17.755 9.011 C-18.933 9.332 -20.111 9.653 -21.325 9.983 C-26.975 11.547 -32.59 13.226 -38.209 14.898 C-42.1 16.053 -45.996 17.189 -49.891 18.327 C-53.224 19.302 -56.556 20.282 -59.885 21.272 C-63.8 22.437 -67.722 23.58 -71.645 24.723 C-73.444 25.263 -73.444 25.263 -75.28 25.814 C-76.384 26.132 -77.487 26.45 -78.624 26.778 C-80.078 27.206 -80.078 27.206 -81.561 27.642 C-84 28 -84 28 -87 26 C-86.352 24.127 -86.352 24.127 -85 22 C-82.527 20.869 -82.527 20.869 -79.367 19.973 C-77.593 19.457 -77.593 19.457 -75.782 18.931 C-74.48 18.569 -73.177 18.208 -71.875 17.848 C-70.531 17.463 -69.186 17.077 -67.843 16.69 C-64.289 15.67 -60.731 14.67 -57.171 13.673 C-53.619 12.674 -50.071 11.658 -46.523 10.643 C-41.102 9.093 -35.676 7.56 -30.246 6.04 C-25.876 4.815 -21.513 3.571 -17.16 2.285 C-16.323 2.041 -15.485 1.797 -14.622 1.545 C-13.149 1.115 -11.678 0.677 -10.21 0.228 C-6.453 -0.856 -3.768 -1.138 0 0 Z " fill="#000000" transform="translate(691,454)"/>
<path d="M0 0 C5.463 0.376 9.038 3.641 13.25 6.812 C14.856 7.998 16.463 9.183 18.07 10.367 C19.295 11.274 19.295 11.274 20.544 12.198 C25.034 15.492 29.602 18.673 34.165 21.865 C35.459 22.773 36.749 23.686 38.036 24.605 C39.436 25.599 40.848 26.576 42.269 27.54 C43.002 28.054 43.736 28.568 44.492 29.098 C45.164 29.558 45.835 30.018 46.527 30.492 C48 32 48 32 48 36 C45.44 36.416 43.622 36.356 41.345 35.052 C39.416 33.646 37.548 32.183 35.688 30.688 C34.261 29.578 32.833 28.471 31.402 27.367 C30.674 26.804 29.945 26.24 29.195 25.659 C25.795 23.089 22.281 20.698 18.75 18.312 C12.007 13.739 5.465 8.959 -1 4 C-0.67 2.68 -0.34 1.36 0 0 Z " fill="#000000" transform="translate(147,466)"/>
<path d="M0 0 C0 1.32 0 2.64 0 4 C-1.501 5.501 -2.949 5.334 -5.042 5.573 C-5.9 5.673 -6.758 5.773 -7.642 5.876 C-9.045 6.032 -9.045 6.032 -10.477 6.191 C-11.435 6.301 -12.394 6.411 -13.381 6.523 C-15.417 6.755 -17.453 6.984 -19.49 7.212 C-22.592 7.559 -25.692 7.915 -28.793 8.271 C-30.771 8.495 -32.749 8.719 -34.727 8.941 C-35.65 9.048 -36.573 9.154 -37.524 9.263 C-42.385 9.8 -47.109 10.113 -52 10 C-52.33 8.68 -52.66 7.36 -53 6 C-48.037 4.458 -43.218 3.504 -38.047 2.93 C-37.306 2.844 -36.565 2.758 -35.802 2.669 C-34.242 2.49 -32.683 2.314 -31.123 2.14 C-28.769 1.877 -26.418 1.601 -24.066 1.324 C-16.017 0.399 -8.118 -0.3 0 0 Z " fill="#000000" transform="translate(381,466)"/>
<path d="M0 0 C0 1.32 0 2.64 0 4 C-5.964 6.321 -12.157 7.15 -18.441 8.164 C-19.642 8.361 -20.842 8.558 -22.079 8.761 C-24.611 9.175 -27.144 9.587 -29.677 9.996 C-33.553 10.623 -37.428 11.26 -41.303 11.898 C-43.766 12.3 -46.228 12.701 -48.691 13.102 C-49.85 13.292 -51.008 13.483 -52.202 13.679 C-53.283 13.853 -54.365 14.027 -55.479 14.206 C-56.427 14.359 -57.374 14.513 -58.351 14.672 C-60.932 14.992 -63.403 15.06 -66 15 C-66.33 13.68 -66.66 12.36 -67 11 C-63.896 9.258 -61.128 8.524 -57.624 7.947 C-56.549 7.767 -55.474 7.587 -54.366 7.401 C-53.209 7.215 -52.052 7.028 -50.859 6.836 C-49.663 6.639 -48.467 6.442 -47.235 6.239 C-44.703 5.824 -42.172 5.413 -39.639 5.004 C-35.777 4.379 -31.918 3.741 -28.059 3.102 C-25.596 2.7 -23.134 2.299 -20.672 1.898 C-19.523 1.708 -18.373 1.517 -17.189 1.321 C-11.378 0.393 -5.885 -0.218 0 0 Z " fill="#000000" transform="translate(676,479)"/>
<path d="M0 0 C4.329 0.522 8.146 2.193 12.109 3.914 C12.79 4.205 13.47 4.496 14.171 4.795 C16.366 5.734 18.558 6.679 20.75 7.625 C23.735 8.905 26.721 10.183 29.707 11.461 C30.796 11.928 30.796 11.928 31.908 12.404 C38.056 15.036 44.233 17.592 50.454 20.045 C53.137 21.124 54.929 21.929 57 24 C56.625 26.125 56.625 26.125 56 28 C52.587 27.403 49.584 26.54 46.397 25.19 C45.516 24.819 44.634 24.449 43.726 24.067 C42.787 23.666 41.847 23.265 40.879 22.852 C39.901 22.438 38.924 22.025 37.917 21.599 C35.852 20.726 33.789 19.85 31.726 18.972 C28.579 17.632 25.43 16.3 22.279 14.969 C20.271 14.118 18.262 13.266 16.254 12.414 C15.316 12.017 14.379 11.62 13.412 11.211 C0.269 5.609 0.269 5.609 -0.938 2.875 C-0.958 2.256 -0.979 1.637 -1 1 C-0.67 0.67 -0.34 0.34 0 0 Z " fill="#000000" transform="translate(129,488)"/>
<path d="M0 0 C0 1.32 0 2.64 0 4 C-0.784 4.372 -1.568 4.743 -2.376 5.126 C-38.105 22.077 -38.105 22.077 -70.984 43.918 C-73 45 -73 45 -75.266 44.676 C-76.124 44.341 -76.124 44.341 -77 44 C-76.91 42.305 -76.91 42.305 -76 40 C-73.845 38.197 -71.772 36.665 -69.438 35.125 C-68.734 34.653 -68.03 34.181 -67.304 33.695 C-49.033 21.64 -29.75 11.394 -10 2 C-9.277 1.65 -8.554 1.3 -7.809 0.939 C-3.361 -1.12 -3.361 -1.12 0 0 Z " fill="#000000" transform="translate(407,498)"/>
<path d="M0 0 C-0.602 9.631 -11.954 18.968 -18 26 C-18.632 26.735 -19.263 27.47 -19.914 28.227 C-21.596 30.163 -23.297 32.082 -25 34 C-25.77 34.886 -26.539 35.771 -27.332 36.684 C-40.674 51.788 -40.674 51.788 -46.762 52.176 C-47.87 52.089 -47.87 52.089 -49 52 C-49 50.68 -49 49.36 -49 48 C-47.33 46.368 -47.33 46.368 -45.031 44.766 C-40.086 41.132 -35.805 37.112 -31.5 32.75 C-30.759 32.003 -30.018 31.257 -29.254 30.488 C-23.78 24.919 -18.78 19.177 -14 13 C-12.382 10.974 -10.757 8.953 -9.125 6.938 C-8.406 6.039 -7.686 5.141 -6.945 4.215 C-3.243 0 -3.243 0 0 0 Z " fill="#000000" transform="translate(685,608)"/>
<path d="M0 0 C1.32 0.33 2.64 0.66 4 1 C-1.013 18.429 -19.391 36.978 -34 47 C-35.485 47.495 -35.485 47.495 -37 48 C-37.495 45.525 -37.495 45.525 -38 43 C-37.105 42.261 -36.211 41.523 -35.289 40.762 C-23.259 30.718 -13.688 20.015 -5 7 C-3.351 4.653 -1.677 2.327 0 0 Z " fill="#000000" transform="translate(678,622)"/>
</svg>
