<?xml version="1.0" encoding="UTF-8"?>
<!-- Generator: visioncortex VTracer 0.6.0 -->
<svg version="1.1" xmlns="http://www.w3.org/2000/svg" width="847" height="847">
<path d="M0 0 C2.688 0.688 2.688 0.688 5.188 3.562 C7.552 7.763 8.821 12.198 10.07 16.824 C10.286 17.612 10.502 18.4 10.724 19.212 C13.084 27.96 15.079 36.786 17.062 45.625 C20.256 59.792 20.256 59.792 23.824 73.867 C24.151 75.085 24.477 76.304 24.813 77.559 C25.416 79.772 26.029 81.983 26.656 84.189 C28.325 90.293 29.649 96.339 28.688 102.688 C26.688 104.688 26.688 104.688 23.438 104.875 C17.864 103.11 16.313 99.718 13.688 94.688 C3.675 75.105 -0.023 52.183 -3.312 30.688 C-3.427 29.948 -3.541 29.208 -3.658 28.447 C-4.388 23.251 -4.496 18.11 -4.5 12.875 C-4.512 12.03 -4.524 11.185 -4.537 10.314 C-4.539 9.503 -4.541 8.692 -4.543 7.855 C-4.547 7.126 -4.551 6.397 -4.555 5.645 C-4.157 2.432 -3.094 0.92 0 0 Z M0.688 7.688 C-1.216 36.91 6.584 73.309 21.688 98.688 C22.348 98.688 23.007 98.688 23.688 98.688 C23.181 91.92 22.108 85.56 20.395 79 C20.168 78.107 19.941 77.214 19.708 76.294 C18.978 73.424 18.239 70.556 17.5 67.688 C16.491 63.731 15.487 59.774 14.484 55.816 C14.239 54.849 13.993 53.882 13.74 52.886 C11.539 44.181 9.5 35.445 7.615 26.666 C6.167 20.115 4.115 13.941 1.688 7.688 C1.358 7.688 1.027 7.688 0.688 7.688 Z " fill="#000000" transform="translate(418.3125,69.3125)"/>
<path d="M0 0 C0.66 0 1.32 0 2 0 C7.709 12.406 12.019 25.258 16.375 38.188 C16.749 39.294 17.124 40.4 17.509 41.539 C21.883 54.473 26.215 67.417 30.125 80.5 C30.449 81.577 30.773 82.653 31.107 83.762 C33.129 90.742 33.129 90.742 32 93 C31.34 93 30.68 93 30 93 C20.423 68.418 12.152 43.372 4.312 18.188 C3.822 16.624 3.822 16.624 3.322 15.03 C1.784 10.013 0.546 5.223 0 0 Z " fill="#000000" transform="translate(432,70)"/>
<path d="M0 0 C0.66 0 1.32 0 2 0 C2.66 3.63 3.32 7.26 4 11 C4.99 11.33 5.98 11.66 7 12 C7 12.66 7 13.32 7 14 C5.68 14.33 4.36 14.66 3 15 C3 18.3 3 21.6 3 25 C2.01 24.67 1.02 24.34 0 24 C-0.33 21.36 -0.66 18.72 -1 16 C-2.32 16 -3.64 16 -5 16 C-5 14.68 -5 13.36 -5 12 C-3.68 12 -2.36 12 -1 12 C-1.012 11.301 -1.023 10.603 -1.035 9.883 C-1.044 8.973 -1.053 8.063 -1.062 7.125 C-1.074 6.22 -1.086 5.315 -1.098 4.383 C-1 2 -1 2 0 0 Z " fill="#000000" transform="translate(486,71)"/>
<path d="M0 0 C2.875 1.625 2.875 1.625 5 4 C5.312 7.25 5.312 7.25 5 10 C6.114 10.062 7.227 10.124 8.375 10.188 C14.625 10.977 20.603 13.565 25.043 18.075 C27.48 21.717 28.058 25.095 28.613 29.348 C28.733 30.181 28.852 31.015 28.975 31.874 C30.416 42.358 31.305 52.896 32.188 63.438 C32.396 65.87 32.604 68.302 32.813 70.734 C37.117 121.236 41.038 171.772 44.976 222.304 C45.255 225.887 45.535 229.47 45.815 233.053 C45.998 235.4 46.181 237.748 46.364 240.095 C46.498 241.818 46.498 241.818 46.636 243.577 C47.167 250.386 47.695 257.195 48.22 264.005 C48.546 268.22 48.874 272.435 49.203 276.65 C49.355 278.606 49.506 280.563 49.656 282.519 C49.861 285.194 50.07 287.868 50.279 290.542 C50.367 291.705 50.367 291.705 50.457 292.892 C51.184 302.602 51.184 302.602 57 310 C60.157 315.863 62.023 321.95 60.36 328.535 C57.65 336.441 54.599 344.172 51.364 351.875 C50.492 353.955 49.635 356.041 48.777 358.127 C48.217 359.469 47.656 360.811 47.094 362.152 C46.596 363.349 46.097 364.545 45.584 365.777 C44.024 368.951 42.409 371.416 40 374 C39.34 374 38.68 374 38 374 C37.926 374.659 37.852 375.319 37.776 375.998 C35.954 392.192 33.995 408.359 31.75 424.5 C31.592 425.641 31.434 426.781 31.271 427.956 C27.655 453.835 23.368 479.604 19.062 505.375 C18.892 506.398 18.721 507.421 18.545 508.475 C17.556 514.405 16.562 520.335 15.563 526.263 C15.255 528.092 14.947 529.921 14.64 531.751 C14.217 534.268 13.791 536.785 13.364 539.302 C13.239 540.044 13.115 540.785 12.987 541.549 C12.489 544.464 11.937 547.189 11 550 C11.684 550.245 12.369 550.49 13.074 550.742 C22.035 554.594 32.222 561.045 38 569 C39.375 572.5 39.375 572.5 39 576 C33.16 587.095 21.861 593.55 10.277 597.16 C-24.373 606.226 -74.318 610.39 -106.75 591.938 C-109.907 589.999 -112.035 588.164 -114 585 C-114.689 580.865 -114.92 578.53 -112.746 574.914 C-105.409 566.027 -94.829 561.158 -84.75 556 C-83.612 555.41 -82.474 554.819 -81.301 554.211 C-52.247 539.239 -52.247 539.239 -37.086 538.395 C-36.4 538.354 -35.715 538.314 -35.009 538.273 C-33.339 538.176 -31.67 538.087 -30 538 C-20.21 509.393 -11.257 480.537 -2.356 451.643 C0.007 443.973 2.381 436.306 4.758 428.641 C5.908 424.93 7.057 421.219 8.206 417.508 C8.933 415.163 9.66 412.818 10.387 410.473 C12.319 404.237 14.24 397.998 16.15 391.755 C16.971 389.093 17.812 386.437 18.658 383.782 C19.141 382.231 19.623 380.68 20.105 379.129 C20.331 378.439 20.557 377.748 20.79 377.037 C21.463 374.95 21.463 374.95 22 372 C21.34 371.01 20.68 370.02 20 369 C19.606 367.063 19.606 367.063 19.41 364.891 C19.337 364.092 19.264 363.293 19.188 362.471 C18.688 355.905 18.356 349.34 18.108 342.76 C18.036 340.914 17.953 339.069 17.86 337.225 C16.843 316.159 16.843 316.159 24 307 C27.036 304.195 27.656 304 32 304 C31.827 302.855 31.654 301.71 31.476 300.53 C29.352 286.444 27.279 272.35 25.25 258.25 C25.076 257.039 24.901 255.828 24.722 254.58 C22.175 236.826 19.847 219.055 17.688 201.25 C14.536 175.277 10.815 149.398 6.995 123.517 C4.64 107.545 2.364 91.567 0.246 75.562 C0.141 74.775 0.036 73.987 -0.072 73.175 C-2.15 57.541 -4.202 41.797 -4 26 C-10.287 31.946 -10.287 31.946 -13.27 39.688 C-12.999 41.485 -12.698 43.278 -12.371 45.066 C-10.418 60.503 -21.506 75.404 -30.117 87.195 C-30.531 87.768 -30.945 88.341 -31.372 88.932 C-33 91 -33 91 -35.497 93.644 C-43.263 102.166 -44.437 109.375 -44.436 120.703 C-44.438 124.269 -44.55 127.829 -44.654 131.393 C-44.705 133.163 -44.75 134.933 -44.79 136.703 C-45.838 182.177 -61.107 229.572 -87.312 266.812 C-87.926 267.685 -87.926 267.685 -88.551 268.575 C-92.735 274.327 -92.735 274.327 -96 276 C-127.54 273.72 -162.815 242.119 -185 222 C-185.623 221.439 -186.246 220.877 -186.888 220.299 C-193.664 214.178 -200.178 208.051 -206 201 C-207.241 199.59 -207.241 199.59 -208.508 198.152 C-220.156 184.879 -236.774 165.195 -236.453 146.668 C-235.599 141.642 -232.389 138.629 -229 135 C-228.07 133.956 -227.142 132.91 -226.215 131.863 C-205.635 108.844 -180.177 93.775 -151 84 C-150.118 83.703 -149.237 83.406 -148.328 83.1 C-130.717 77.259 -112.259 72.291 -93.925 69.322 C-93.251 69.207 -92.576 69.091 -91.881 68.972 C-90.002 68.656 -88.119 68.363 -86.235 68.073 C-81.072 66.361 -79.021 62.756 -76.16 58.328 C-67.592 45.127 -54.136 33.361 -39.105 28.371 C-37 28 -37 28 -34.082 28.035 C-28.983 28.078 -25.365 28.099 -21.289 24.816 C-19.768 23.076 -18.3 21.286 -16.902 19.445 C-15 17 -15 17 -12.75 15.453 C-10.77 14.154 -10.77 14.154 -10.785 11.914 C-10.877 11.159 -10.968 10.403 -11.062 9.625 C-11.228 5.863 -11.149 5.215 -8.875 1.938 C-5.466 -0.36 -4.025 -0.755 0 0 Z M-6.938 4.062 C-8.418 6.762 -8.202 8.976 -8 12 C-7.072 12.155 -7.072 12.155 -6.125 12.312 C-4 13 -4 13 -2 16 C0.761 13.183 0.761 13.183 3 10 C2.954 6.706 2.954 6.706 2 4 C-2.591 2.849 -2.591 2.849 -6.938 4.062 Z M3 14 C2.34 15.65 1.68 17.3 1 19 C3.97 19 6.94 19 10 19 C10.33 19.66 10.66 20.32 11 21 C4.565 21.495 4.565 21.495 -2 22 C-2 22.66 -2 23.32 -2 24 C2.605 26.696 5.679 27.611 11 27 C14.737 25.833 18.372 24.47 22 23 C22 22.34 22 21.68 22 21 C13.079 15.696 13.079 15.696 3 14 Z M-7 17 C-6.67 17.99 -6.34 18.98 -6 20 C-6 19.01 -6 18.02 -6 17 C-6.33 17 -6.66 17 -7 17 Z M-15.062 22.25 C-15.755 22.853 -16.447 23.457 -17.16 24.078 C-18.971 25.97 -19.978 27.606 -21 30 C-18.525 31.98 -18.525 31.98 -16 34 C-14.464 32.263 -12.947 30.51 -11.438 28.75 C-10.591 27.775 -9.744 26.801 -8.871 25.797 C-6.728 23.23 -6.728 23.23 -7.223 20.641 C-7.479 20.099 -7.736 19.558 -8 19 C-11.699 19 -12.358 19.844 -15.062 22.25 Z M19.312 27.5 C12.971 29.686 6.617 29.207 0 29 C0.671 39.897 1.747 50.719 3 61.562 C3.104 62.467 3.208 63.371 3.315 64.303 C5.606 84.026 8.535 103.647 11.479 123.281 C14.218 141.567 16.833 159.864 19.312 178.188 C19.482 179.441 19.652 180.695 19.827 181.987 C21.82 196.758 23.691 211.531 25.346 226.344 C27.096 241.538 29.253 256.68 31.375 271.825 C31.687 274.057 31.997 276.289 32.308 278.522 C32.798 282.051 33.294 285.579 33.793 289.106 C34.07 291.069 34.343 293.033 34.617 294.997 C34.784 296.17 34.951 297.343 35.124 298.551 C35.269 299.583 35.415 300.615 35.565 301.679 C35.765 303.953 35.765 303.953 37 305 C38.519 305.072 40.042 305.084 41.562 305.062 C42.738 305.046 42.738 305.046 43.937 305.029 C44.618 305.019 45.299 305.01 46 305 C46.197 295.703 45.432 286.518 44.68 277.262 C44.539 275.494 44.399 273.725 44.259 271.957 C43.881 267.195 43.498 262.433 43.115 257.671 C42.71 252.63 42.309 247.588 41.908 242.547 C41.745 240.495 41.582 238.443 41.418 236.392 C41.337 235.372 41.256 234.353 41.173 233.302 C40.925 230.191 40.676 227.079 40.428 223.967 C39.428 211.432 38.444 198.897 37.48 186.359 C37.361 184.807 37.242 183.254 37.122 181.701 C37.063 180.937 37.005 180.173 36.944 179.386 C34.392 146.212 31.715 113.049 28.959 79.891 C28.689 76.643 28.42 73.395 28.151 70.147 C27.728 65.043 27.303 59.94 26.876 54.837 C26.718 52.95 26.561 51.063 26.405 49.176 C26.189 46.579 25.971 43.982 25.753 41.385 C25.66 40.258 25.66 40.258 25.565 39.107 C25.191 34.706 24.664 30.364 24 26 C22.491 25.937 22.491 25.937 19.312 27.5 Z M-73.086 60.73 C-75.729 64.095 -75.729 64.095 -77 68 C-76.383 68.147 -75.765 68.294 -75.129 68.445 C-65.024 71.121 -56.906 76.239 -51 85 C-48.793 89.252 -46.84 93.578 -45 98 C-40.358 93.708 -36.805 88.858 -33.188 83.688 C-32.572 82.809 -31.957 81.931 -31.323 81.025 C-23.349 69.412 -15.734 57.543 -17 43 C-18.889 37.632 -21.92 34.54 -27 32 C-45.291 29.968 -62.73 47.175 -73.086 60.73 Z M-127 83 C-127 83.33 -127 83.66 -127 84 C-120.077 84.315 -113.866 83.14 -107.125 81.625 C-106.081 81.403 -105.037 81.182 -103.961 80.953 C-98.461 79.994 -98.461 79.994 -94 77 C-104.572 73.476 -117.726 77.621 -127 83 Z M-158.25 91.5 C-159.142 91.964 -160.034 92.428 -160.953 92.906 C-161.629 93.267 -162.304 93.628 -163 94 C-163 95.32 -163 96.64 -163 98 C-157.59 97.594 -153.071 95.575 -149 92 C-149 91.01 -149 90.02 -149 89 C-153.164 89 -154.664 89.613 -158.25 91.5 Z M-199.062 111.75 C-199.734 112.26 -200.406 112.771 -201.098 113.297 C-204.011 115.905 -205.916 117.771 -206.188 121.75 C-206.126 122.493 -206.064 123.235 -206 124 C-202.605 122.542 -200.477 120.662 -197.938 118 C-195.663 115.626 -193.755 113.837 -191 112 C-191 111.01 -191 110.02 -191 109 C-195.269 109 -195.883 109.275 -199.062 111.75 Z M-112.401 110.158 C-112.933 110.694 -113.464 111.229 -114.012 111.781 C-114.601 112.372 -115.19 112.962 -115.797 113.57 C-116.733 114.526 -116.733 114.526 -117.688 115.5 C-118.647 116.471 -118.647 116.471 -119.627 117.461 C-123.249 121.146 -126.768 124.878 -130.105 128.824 C-132.232 131.266 -134.438 133.622 -136.655 135.981 C-141.96 141.63 -147.098 147.338 -151.926 153.406 C-153.347 155.184 -154.806 156.933 -156.293 158.656 C-161.83 165 -161.83 165 -163 173 C-162.029 175.462 -162.029 175.462 -160 177 C-157.667 177.912 -157.667 177.912 -155 178 C-152.547 176.834 -152.547 176.834 -150.188 174.875 C-149.234 174.14 -148.28 173.405 -147.297 172.648 C-146.196 171.768 -145.097 170.885 -144 170 C-143.37 169.495 -142.741 168.99 -142.092 168.47 C-138.645 165.7 -135.215 162.911 -131.797 160.105 C-128.789 157.637 -125.748 155.215 -122.688 152.812 C-117.262 148.477 -111.858 143.968 -107 139 C-107 138.34 -107 137.68 -107 137 C-111.363 138.457 -114.592 140.833 -118.125 143.688 C-134.477 156.536 -134.477 156.536 -141 156 C-141 147.84 -137.253 143.934 -132 138 C-131.06 136.904 -130.123 135.807 -129.188 134.707 C-125.606 130.501 -122.003 126.314 -118.387 122.137 C-116.837 120.345 -115.293 118.548 -113.75 116.75 C-113.272 116.201 -112.794 115.652 -112.302 115.087 C-109.767 112.422 -109.767 112.422 -109 109 C-111.046 108.788 -111.046 108.788 -112.401 110.158 Z M-232 151 C-231.451 155.818 -229.977 159.653 -227.688 163.875 C-227.339 164.521 -226.991 165.166 -226.632 165.832 C-220.689 176.477 -212.85 185.914 -205.062 195.25 C-204.626 195.775 -204.19 196.3 -203.741 196.84 C-201.082 199.96 -198.275 202.539 -195 205 C-195.165 204.237 -195.33 203.474 -195.5 202.688 C-196.733 193.593 -195.888 186.454 -192.875 177.75 C-191.848 175.005 -191.848 175.005 -192 172 C-193.619 170.583 -193.619 170.583 -195.812 169.363 C-196.634 168.872 -197.455 168.381 -198.301 167.874 C-199.192 167.359 -200.082 166.844 -201 166.312 C-201.901 165.782 -202.802 165.252 -203.73 164.706 C-217.212 156.294 -217.212 156.294 -232 151 Z M-56 170 C-58.566 173.719 -59.816 177.292 -60.98 181.637 C-61.339 182.941 -61.697 184.245 -62.057 185.549 C-62.241 186.226 -62.425 186.902 -62.615 187.598 C-67.836 206.636 -73.787 226.552 -88.562 240.562 C-89.367 241.367 -90.171 242.171 -91 243 C-91 244.32 -91 245.64 -91 247 C-84.698 246.163 -81.954 242.729 -78 238 C-65.005 220.894 -54.556 195.322 -54.938 173.562 C-54.958 172.387 -54.979 171.211 -55 170 C-55.33 170 -55.66 170 -56 170 Z M-189 176 C-192.894 184.972 -194.618 194.63 -191 204 C-187.7 210.6 -183.667 214.816 -177 218 C-165.262 221.913 -153.588 218.294 -143 213 C-144.615 208.54 -148.051 206.037 -151.562 203.062 C-152.221 202.498 -152.88 201.934 -153.559 201.353 C-169.964 185.492 -169.964 185.492 -189 176 Z M-141 214 C-142.844 214.878 -142.844 214.878 -144.688 216.25 C-152.107 221.169 -159.397 223.144 -168.25 223.062 C-169.513 223.053 -170.777 223.044 -172.078 223.035 C-173.042 223.024 -174.007 223.012 -175 223 C-173.927 226.22 -173.431 226.716 -170.852 228.68 C-170.186 229.19 -169.52 229.7 -168.834 230.225 C-168.105 230.77 -167.376 231.314 -166.625 231.875 C-165.489 232.731 -165.489 232.731 -164.33 233.605 C-133.703 256.975 -133.703 256.975 -98 270 C-98.678 251.693 -118.02 235.399 -130 223 C-130.869 222.09 -131.738 221.18 -132.633 220.242 C-136.287 216.317 -136.287 216.317 -141 214 Z M26.75 310.5 C23.323 315.396 21.061 320.963 22 327 C25.088 331.989 29.455 335.152 35 337 C40.267 337.504 44.632 337.672 49.438 335.312 C54.421 330.929 54.421 330.929 56.5 324.812 C55.843 319.806 54.064 315.58 52 311 C49.48 310.661 46.959 310.329 44.438 310 C43.381 309.857 43.381 309.857 42.303 309.711 C34.197 308.291 34.197 308.291 26.75 310.5 Z M26 375 C20.89 390.923 15.817 406.856 10.812 422.812 C10.323 424.374 10.323 424.374 9.823 425.966 C2.506 449.288 -4.704 472.643 -11.905 496.001 C-12.122 496.706 -12.34 497.411 -12.564 498.137 C-13.612 501.539 -14.66 504.94 -15.707 508.342 C-17.356 513.7 -19.008 519.055 -20.721 524.393 C-20.963 525.149 -21.205 525.906 -21.454 526.685 C-22.048 528.534 -22.649 530.381 -23.251 532.228 C-24.174 535.165 -24.174 535.165 -24 539 C-22.225 539.364 -22.225 539.364 -20.414 539.734 C-5.043 542.966 -5.043 542.966 2.152 546.266 C4.133 547.185 4.133 547.185 7 547 C15.822 500.761 23.234 454.321 30.062 407.75 C30.209 406.756 30.355 405.762 30.506 404.738 C32.621 390.412 32.621 390.412 34 376 C31.36 375.67 28.72 375.34 26 375 Z M31 572 C30.432 572.543 29.863 573.085 29.277 573.645 C17.585 584.478 6.287 584.695 -9.091 584.206 C-14.999 583.788 -20.639 582.385 -26.348 580.875 C-29.431 580.136 -31.862 579.804 -35 580 C-35 581.32 -35 582.64 -35 584 C-18.429 590.49 1.05 594.081 18.402 588.184 C24.312 585.472 29.853 581.692 32.438 575.625 C32.716 574.326 32.716 574.326 33 573 C32.01 572.505 32.01 572.505 31 572 Z " fill="#000000" transform="translate(523,129)"/>
<path d="M0 0 C1.875 -0.328 1.875 -0.328 4 -0.25 C4.701 -0.235 5.403 -0.219 6.125 -0.203 C8 0 8 0 10 1 C10 1.66 10 2.32 10 3 C9.072 3.309 9.072 3.309 8.125 3.625 C5.153 5.548 4.87 7.666 4 11 C3.34 10.67 2.68 10.34 2 10 C1.856 9.381 1.711 8.762 1.562 8.125 C0.903 5.633 -0.083 4.667 -2 3 C-1.34 2.01 -0.68 1.02 0 0 Z " fill="#000000" transform="translate(624,130)"/>
<path d="M0 0 C0.701 0.014 1.402 0.028 2.125 0.043 C3.177 0.053 3.177 0.053 4.25 0.062 C6.125 0.23 6.125 0.23 8.125 1.23 C8.125 2.22 8.125 3.21 8.125 4.23 C6.805 4.23 5.485 4.23 4.125 4.23 C4.125 6.21 4.125 8.19 4.125 10.23 C2.805 10.56 1.485 10.89 0.125 11.23 C-0.205 9.25 -0.535 7.27 -0.875 5.23 C-1.535 5.23 -2.195 5.23 -2.875 5.23 C-3.205 4.24 -3.535 3.25 -3.875 2.23 C-1.875 0.23 -1.875 0.23 0 0 Z " fill="#000000" transform="translate(372.875,160.76953125)"/>
<path d="M0 0 C0 0.99 0 1.98 0 3 C-1.238 4.052 -1.238 4.052 -2.5 5.125 C-5.516 8.593 -5.551 9.997 -5.309 14.41 C-4.852 18.244 -4.195 22.027 -3.438 25.812 C-1.982 36.42 -1.982 36.42 -5.133 41.309 C-6.11 42.37 -7.109 43.412 -8.125 44.438 C-9.238 45.65 -10.347 46.867 -11.453 48.086 C-12.036 48.721 -12.62 49.356 -13.221 50.011 C-26.128 64.441 -36.964 80.873 -46.887 97.445 C-47.523 98.507 -48.159 99.569 -48.814 100.663 C-50.045 102.732 -51.264 104.807 -52.471 106.889 C-53.02 107.819 -53.57 108.749 -54.137 109.707 C-54.618 110.537 -55.1 111.367 -55.596 112.222 C-56.06 112.809 -56.523 113.395 -57 114 C-57.99 114 -58.98 114 -60 114 C-59.328 110.194 -58.273 106.648 -57 103 C-57.495 102.505 -57.495 102.505 -58 102 C-58.263 100.124 -58.468 98.241 -58.648 96.355 C-58.767 95.204 -58.886 94.052 -59.008 92.865 C-59.251 90.426 -59.488 87.986 -59.719 85.545 C-59.901 83.811 -59.901 83.811 -60.086 82.043 C-60.19 80.981 -60.293 79.919 -60.4 78.825 C-61.046 75.785 -61.851 74.223 -64 72 C-64.66 72 -65.32 72 -66 72 C-69.913 85.566 -69.214 99.065 -66.434 112.797 C-65.828 115.874 -65.939 118.874 -66 122 C-66.99 121.67 -67.98 121.34 -69 121 C-69.871 118.451 -70.539 116.053 -71.125 113.438 C-71.294 112.746 -71.463 112.054 -71.637 111.342 C-74.931 97.425 -76.502 81.676 -69.188 68.812 C-67 67 -67 67 -64 66.375 C-59.994 67.21 -59.246 68.636 -57 72 C-54.446 79.805 -53.491 87.819 -54 96 C-53.34 96 -52.68 96 -52 96 C-51.733 95.273 -51.466 94.545 -51.191 93.796 C-50.008 91.018 -48.645 88.752 -46.945 86.262 C-46.336 85.367 -45.728 84.472 -45.1 83.55 C-44.448 82.605 -43.797 81.661 -43.125 80.688 C-42.453 79.71 -41.781 78.732 -41.089 77.725 C-33.061 66.109 -24.962 54.713 -15.254 44.43 C-14.51 43.628 -13.766 42.826 -13 42 C-12.055 41.134 -11.11 40.267 -10.137 39.375 C-6.987 34.399 -8.151 30.711 -9.25 25.125 C-11.83 10.966 -11.83 10.966 -9.125 3.625 C-6.606 -0.014 -4.097 -0.221 0 0 Z " fill="#000000" transform="translate(273,181)"/>
<path d="M0 0 C-1.51 3.703 -3.666 5.678 -6.688 8.25 C-11.218 12.244 -15.185 16.328 -19 21 C-19.43 21.523 -19.861 22.047 -20.304 22.586 C-36.275 42.055 -49.509 62.585 -61 85 C-61.99 85 -62.98 85 -64 85 C-62.113 77.808 -59.5 71.426 -56 64.875 C-55.517 63.965 -55.034 63.055 -54.537 62.117 C-49.95 53.634 -44.764 45.723 -39 38 C-38.546 37.391 -38.093 36.782 -37.625 36.154 C-31.232 27.647 -24.346 19.693 -17 12 C-15.755 10.693 -15.755 10.693 -14.484 9.359 C-5.367 0 -5.367 0 0 0 Z " fill="#000000" transform="translate(286,234)"/>
<path d="M0 0 C1.32 0.66 2.64 1.32 4 2 C3.812 4.875 3.812 4.875 3 8 C0.562 9.438 0.562 9.438 -2 10 C-2.66 9.67 -3.32 9.34 -4 9 C-3.688 5.625 -3.688 5.625 -3 2 C-2.01 1.34 -1.02 0.68 0 0 Z " fill="#000000" transform="translate(613,271)"/>
<path d="M0 0 C0.66 0 1.32 0 2 0 C4.092 6.017 4.349 11.532 4.312 17.875 C4.307 18.893 4.301 19.911 4.295 20.96 C4.047 36.621 0.298 50.34 -5 65 C-5.99 65 -6.98 65 -8 65 C-7.325 58.504 -6.007 52.287 -4.5 45.938 C-4.049 44.031 -3.601 42.123 -3.156 40.215 C-2.958 39.381 -2.761 38.547 -2.557 37.687 C-1.419 32.196 -0.864 26.792 -0.684 21.191 C-0.642 19.951 -0.6 18.71 -0.557 17.432 C-0.517 16.155 -0.478 14.878 -0.438 13.562 C-0.373 11.607 -0.373 11.607 -0.307 9.611 C-0.201 6.408 -0.099 3.204 0 0 Z " fill="#000000" transform="translate(639,279)"/>
<path d="M0 0 C0.99 0.33 1.98 0.66 3 1 C3 5.29 3 9.58 3 14 C4.32 14.33 5.64 14.66 7 15 C6.67 15.99 6.34 16.98 6 18 C5.01 18 4.02 18 3 18 C3 21.96 3 25.92 3 30 C2.01 30.33 1.02 30.66 0 31 C-0.66 27.37 -1.32 23.74 -2 20 C-3.32 19.67 -4.64 19.34 -6 19 C-6 17.68 -6 16.36 -6 15 C-4.35 14.67 -2.7 14.34 -1 14 C-1.012 13.157 -1.023 12.314 -1.035 11.445 C-1.044 10.35 -1.053 9.254 -1.062 8.125 C-1.074 7.034 -1.086 5.944 -1.098 4.82 C-1 2 -1 2 0 0 Z " fill="#000000" transform="translate(616,321)"/>
<path d="M0 0 C3.223 0.029 5.443 0.358 8.188 2.188 C7.375 4.125 7.375 4.125 6.188 6.188 C5.197 6.517 4.207 6.848 3.188 7.188 C2.858 9.498 2.527 11.808 2.188 14.188 C1.527 14.188 0.868 14.188 0.188 14.188 C-0.184 12.795 -0.184 12.795 -0.562 11.375 C-1.877 8.023 -2.792 7 -5.812 5.188 C-4.693 0.231 -4.693 0.231 0 0 Z " fill="#000000" transform="translate(267.8125,335.8125)"/>
<path d="M0 0 C0.227 2.804 0.341 4.462 -1.188 6.875 C-3 8 -3 8 -5.688 7.688 C-6.451 7.461 -7.214 7.234 -8 7 C-7.744 4.657 -7.407 2.322 -7 0 C-4.333 -1.333 -2.833 -0.671 0 0 Z " fill="#000000" transform="translate(490,397)"/>
<path d="M0 0 C3.468 3.995 5.718 8.125 8.062 12.812 C15.129 26.469 23.891 38.23 34.094 49.691 C37.299 53.301 40.194 57.072 43 61 C42.01 61.495 42.01 61.495 41 62 C22.222 48.057 5.36 25.948 -0.801 3.02 C-0.899 2.02 -0.899 2.02 -1 1 C-0.67 0.67 -0.34 0.34 0 0 Z " fill="#000000" transform="translate(254,402)"/>
<path d="M0 0 C0.791 -0.014 1.583 -0.028 2.398 -0.043 C4.625 0.188 4.625 0.188 7.625 2.188 C7.295 3.507 6.965 4.827 6.625 6.188 C5.305 6.188 3.985 6.188 2.625 6.188 C2.625 8.827 2.625 11.467 2.625 14.188 C1.635 13.858 0.645 13.527 -0.375 13.188 C-0.705 11.207 -1.035 9.228 -1.375 7.188 C-2.695 6.858 -4.015 6.527 -5.375 6.188 C-5.418 4.521 -5.416 2.854 -5.375 1.188 C-3.795 -0.392 -2.18 0.018 0 0 Z " fill="#000000" transform="translate(601.375,405.8125)"/>
<path d="M0 0 C0.66 0 1.32 0 2 0 C1.856 0.562 1.711 1.124 1.562 1.703 C-3.335 23.879 1.929 45.298 8.633 66.449 C10.026 70.912 11.062 75.422 12 80 C9.539 79.031 8.251 78.42 6.875 76.115 C6.442 74.973 6.442 74.973 6 73.809 C5.672 72.954 5.344 72.1 5.006 71.219 C4.674 70.301 4.342 69.383 4 68.438 C3.652 67.499 3.304 66.56 2.945 65.593 C-3.666 47.294 -9.663 23.802 -2.852 4.777 C-2 3 -2 3 0 0 Z " fill="#000000" transform="translate(472,439)"/>
<path d="M0 0 C0.33 0 0.66 0 1 0 C2.222 15.713 -2.576 33.175 -12.723 45.395 C-13.474 46.254 -14.226 47.114 -15 48 C-15.99 47.67 -16.98 47.34 -18 47 C-17.469 46.105 -16.938 45.211 -16.391 44.289 C-15.677 43.068 -14.963 41.847 -14.25 40.625 C-13.728 39.749 -13.728 39.749 -13.195 38.855 C-8.143 30.154 -5.359 21.25 -3.312 11.438 C-2.895 9.477 -2.475 7.518 -2.051 5.559 C-1.872 4.706 -1.693 3.853 -1.509 2.974 C-1 1 -1 1 0 0 Z " fill="#000000" transform="translate(594,440)"/>
<path d="M0 0 C0.66 0.33 1.32 0.66 2 1 C2.414 4.16 2.414 4.16 2.625 8.062 C2.737 9.998 2.737 9.998 2.852 11.973 C2.901 12.972 2.95 13.971 3 15 C3.99 15.33 4.98 15.66 6 16 C6 16.99 6 17.98 6 19 C5.01 19.33 4.02 19.66 3 20 C2.67 23.96 2.34 27.92 2 32 C1.01 32 0.02 32 -1 32 C-1.086 31.229 -1.173 30.458 -1.262 29.664 C-1.402 28.661 -1.543 27.658 -1.688 26.625 C-1.815 25.627 -1.943 24.63 -2.074 23.602 C-2.755 20.756 -2.755 20.756 -5.582 19.648 C-6.38 19.434 -7.178 19.22 -8 19 C-7.67 18.01 -7.34 17.02 -7 16 C-5.35 15.67 -3.7 15.34 -2 15 C-2.023 14.252 -2.046 13.505 -2.07 12.734 C-2.088 11.75 -2.106 10.765 -2.125 9.75 C-2.148 8.775 -2.171 7.801 -2.195 6.797 C-1.999 3.98 -1.446 2.391 0 0 Z " fill="#000000" transform="translate(492,449)"/>
<path d="M0 0 C1.34 0.313 1.34 0.313 2.707 0.633 C3.608 0.836 4.509 1.04 5.438 1.25 C6.468 1.501 6.468 1.501 7.52 1.758 C7.52 3.078 7.52 4.398 7.52 5.758 C5.87 6.088 4.22 6.418 2.52 6.758 C2.52 9.068 2.52 11.378 2.52 13.758 C1.53 13.758 0.54 13.758 -0.48 13.758 C-0.81 11.778 -1.14 9.798 -1.48 7.758 C-2.8 7.428 -4.12 7.098 -5.48 6.758 C-5.668 4.383 -5.668 4.383 -5.48 1.758 C-2.48 -0.242 -2.48 -0.242 0 0 Z " fill="#000000" transform="translate(242.48046875,455.2421875)"/>
<path d="M0 0 C11.282 2.639 22.222 5.894 33.188 9.625 C34.776 10.161 36.365 10.696 37.954 11.231 C42.639 12.811 47.32 14.404 52 16 C52.652 16.222 53.304 16.444 53.976 16.673 C60.381 18.855 66.779 21.057 73.168 23.285 C78.364 25.096 83.571 26.871 88.786 28.626 C92.47 29.869 96.149 31.125 99.828 32.383 C101.638 32.998 103.45 33.608 105.264 34.212 C107.808 35.06 110.344 35.928 112.879 36.801 C113.641 37.049 114.403 37.298 115.189 37.554 C119.774 39.16 122.361 40.705 125 45 C126.404 52.389 125.362 59.283 121.613 65.777 C115.155 74.674 106.709 77.821 96.137 79.516 C95.354 79.648 94.571 79.78 93.765 79.916 C91.074 80.369 88.381 80.809 85.688 81.25 C83.69 81.583 81.692 81.916 79.695 82.25 C74.309 83.148 68.922 84.037 63.535 84.923 C57.949 85.843 52.365 86.767 46.78 87.693 C5.049 94.61 -36.689 101.483 -78.46 108.155 C-94.319 110.689 -110.176 113.237 -126.033 115.786 C-131.704 116.698 -137.375 117.609 -143.047 118.519 C-146.625 119.093 -150.204 119.668 -153.782 120.244 C-155.537 120.526 -157.292 120.808 -159.047 121.089 C-168.423 122.594 -177.794 124.125 -187.154 125.725 C-188.791 126.004 -190.428 126.282 -192.065 126.56 C-195.085 127.074 -198.103 127.597 -201.12 128.126 C-217.164 130.892 -230.778 132.539 -245.688 125.25 C-246.492 124.862 -247.297 124.474 -248.126 124.075 C-257.805 119.283 -266.916 113.547 -276.065 107.826 C-279.887 105.448 -283.736 103.117 -287.587 100.788 C-292.401 97.874 -297.201 94.937 -302 92 C-303.077 91.342 -304.154 90.685 -305.263 90.007 C-308.555 87.992 -311.841 85.966 -315.125 83.938 C-316.139 83.318 -317.153 82.699 -318.197 82.061 C-330.112 74.665 -330.112 74.665 -332 69 C-332.122 66.321 -332.185 63.679 -332.188 61 C-332.206 59.913 -332.206 59.913 -332.225 58.805 C-332.235 54.993 -332.164 53.246 -330 50 C-324.412 51.554 -319.828 54.264 -314.875 57.188 C-306.386 62.122 -297.797 66.832 -289.125 71.438 C-277.545 77.597 -266.077 83.934 -254.697 90.458 C-251.944 92.032 -249.184 93.591 -246.422 95.148 C-244.677 96.14 -242.932 97.132 -241.188 98.125 C-240.386 98.575 -239.585 99.024 -238.76 99.487 C-237.662 100.116 -237.662 100.116 -236.543 100.758 C-235.904 101.12 -235.265 101.483 -234.606 101.856 C-233 103 -233 103 -231 106 C-236.841 105.521 -240.87 103.8 -245.938 100.938 C-247.452 100.108 -248.968 99.28 -250.484 98.453 C-251.243 98.037 -252.002 97.622 -252.783 97.193 C-256.043 95.438 -259.362 93.814 -262.688 92.188 C-272.961 87.108 -282.966 81.534 -293 76 C-294.235 75.32 -295.47 74.641 -296.705 73.961 C-300.617 71.809 -304.527 69.655 -308.438 67.5 C-309.064 67.155 -309.69 66.81 -310.335 66.454 C-316.581 63.011 -322.823 59.566 -329 56 C-328.825 58.402 -328.611 60.791 -328.375 63.188 C-328.33 63.861 -328.285 64.535 -328.238 65.229 C-327.849 68.855 -327.189 70.791 -324.73 73.5 C-319.409 77.335 -313.606 80.52 -307.938 83.812 C-305.612 85.171 -303.288 86.532 -300.965 87.895 C-300.389 88.232 -299.813 88.569 -299.219 88.916 C-293.087 92.516 -287.04 96.249 -281 100 C-275.025 103.71 -269.031 107.382 -263 111 C-261.593 111.848 -261.593 111.848 -260.157 112.713 C-234.992 127.776 -219.022 127 -190.75 122.375 C-188.507 122.012 -186.264 121.649 -184.021 121.287 C-169.673 118.961 -155.341 116.543 -141.016 114.071 C-121.775 110.753 -102.495 107.691 -83.212 104.627 C-69.972 102.521 -56.736 100.386 -43.5 98.25 C-42.23 98.045 -40.959 97.84 -39.65 97.629 C-14.976 93.648 9.695 89.649 34.366 85.646 C35.844 85.406 37.322 85.167 38.8 84.927 C42.436 84.338 46.071 83.747 49.705 83.152 C56.634 82.021 63.564 80.907 70.503 79.84 C73.866 79.322 77.228 78.796 80.59 78.269 C82.188 78.021 83.787 77.777 85.387 77.537 C103.612 75.273 103.612 75.273 118 65 C120.982 59.125 122.585 53.576 122 47 C115.171 44.195 108.288 41.65 101.301 39.27 C99.205 38.55 97.109 37.83 95.014 37.11 C93.921 36.736 92.829 36.361 91.703 35.976 C73.441 29.71 55.206 23.369 37.037 16.84 C35.034 16.121 33.03 15.405 31.025 14.691 C2.212 4.424 2.212 4.424 0 0 Z " fill="#000000" transform="translate(551,675)"/>
<path d="M0 0 C3.445 2.446 5.452 5.215 6.691 9.254 C7.53 14.472 6.797 17.407 4 22 C1.167 23.917 1.167 23.917 -2.258 25.52 C-2.874 25.81 -3.491 26.101 -4.126 26.401 C-10.895 29.533 -17.857 32.172 -24.875 34.688 C-25.527 34.923 -26.179 35.159 -26.851 35.401 C-54.068 45.204 -54.068 45.204 -61 42.75 C-62.485 41.884 -62.485 41.884 -64 41 C-64 40.01 -64 39.02 -64 38 C-62.02 37.34 -60.04 36.68 -58 36 C-57.67 37.32 -57.34 38.64 -57 40 C-40.97 36.396 -25.69 31.049 -10.5 24.812 C-9.705 24.492 -8.91 24.171 -8.091 23.841 C-4.019 22.126 -0.739 20.619 2 17 C2.482 13.211 2.26 10.705 0.938 7.125 C-1.227 4.752 -2.602 4.25 -5.758 3.897 C-10.821 4.13 -15.513 6.311 -20.188 8.125 C-21.352 8.566 -22.516 9.006 -23.716 9.46 C-37.11 14.639 -50.075 20.756 -63 27 C-62.67 28.32 -62.34 29.64 -62 31 C-63.98 31 -65.96 31 -68 31 C-68.495 33.97 -68.495 33.97 -69 37 C-70.65 36.01 -72.3 35.02 -74 34 C-73.677 31.114 -73.437 29.45 -71.383 27.332 C-55.578 16.695 -19.494 -7.217 0 0 Z " fill="#000000" transform="translate(384,717)"/>
<path d="M0 0 C0 0.66 0 1.32 0 2 C-17.624 7.018 -35.605 9.74 -53.672 12.592 C-58.064 13.287 -62.454 13.993 -66.844 14.698 C-73.263 15.728 -79.683 16.756 -86.104 17.779 C-103.04 20.48 -119.969 23.229 -136.897 25.983 C-141.147 26.674 -145.397 27.364 -149.647 28.054 C-168.417 31.102 -187.182 34.176 -205.938 37.312 C-207.79 37.622 -209.642 37.931 -211.494 38.24 C-219.15 39.518 -226.804 40.797 -234.457 42.091 C-240.038 43.034 -245.621 43.968 -251.204 44.897 C-253.315 45.25 -255.424 45.606 -257.533 45.965 C-269.701 48.037 -281.656 49.605 -294 50 C-291.004 48.003 -289.384 47.507 -285.925 46.833 C-284.866 46.624 -283.808 46.415 -282.718 46.2 C-281.548 45.977 -280.377 45.753 -279.172 45.523 C-277.926 45.281 -276.681 45.039 -275.398 44.79 C-271.921 44.116 -268.442 43.453 -264.962 42.794 C-262.739 42.373 -260.516 41.949 -258.293 41.525 C-196.285 29.723 -133.919 19.667 -71.523 10.15 C-64.82 9.127 -58.118 8.092 -51.417 7.054 C-45.876 6.195 -40.333 5.341 -34.791 4.488 C-32.167 4.084 -29.543 3.678 -26.919 3.272 C-23.328 2.717 -19.736 2.166 -16.145 1.617 C-15.083 1.452 -14.022 1.287 -12.929 1.117 C-11.463 0.894 -11.463 0.894 -9.968 0.667 C-9.124 0.538 -8.28 0.408 -7.41 0.274 C-4.919 -0.009 -2.505 -0.048 0 0 Z " fill="#000000" transform="translate(618,729)"/>
<path d="M0 0 C-6.564 4.429 -13.344 7.448 -20.688 10.375 C-21.802 10.838 -22.916 11.301 -24.064 11.777 C-25.14 12.209 -26.216 12.641 -27.324 13.086 C-28.294 13.478 -29.265 13.871 -30.264 14.275 C-33.272 15.072 -35.041 14.855 -38 14 C-35.548 10.322 -33.901 9.911 -29.82 8.336 C-29.211 8.098 -28.602 7.861 -27.974 7.616 C-26.687 7.116 -25.397 6.62 -24.106 6.129 C-22.136 5.379 -20.171 4.617 -18.207 3.852 C-4.509 -1.449 -4.509 -1.449 0 0 Z " fill="#000000" transform="translate(365,735)"/>
</svg>
