<?xml version="1.0" encoding="UTF-8"?>
<!-- Generator: visioncortex VTracer 0.6.0 -->
<svg version="1.1" xmlns="http://www.w3.org/2000/svg" width="847" height="847">
<path d="M0 0 C1.617 -0.027 3.233 -0.068 4.849 -0.123 C18.228 -0.569 18.228 -0.569 22.302 1.841 C23.922 3.644 24.947 5.268 25.968 7.46 C26.765 8.962 26.765 8.962 27.577 10.495 C33.228 25.493 34.111 40.657 31.968 56.46 C32.669 56.542 33.371 56.625 34.093 56.71 C41.048 58.524 46.04 63.657 49.968 69.46 C56.365 81.894 59.473 96.009 62.968 109.46 C63.291 110.701 63.613 111.942 63.946 113.221 C74.704 154.928 80.744 196.552 83.968 239.46 C84.97 238.672 85.971 237.885 87.003 237.073 C99.334 228.319 122.067 230.064 136.378 231.964 C154.547 235.252 174.271 243.453 186.273 257.995 C200.782 279.09 199.39 304.319 194.968 328.46 C193.592 334.546 191.847 340.513 189.968 346.46 C184.943 345.842 180.721 344.33 176.093 342.397 C175.405 342.116 174.716 341.834 174.007 341.544 C172.325 340.855 170.646 340.158 168.968 339.46 C169.45 338.265 169.932 337.07 170.429 335.839 C171.067 334.234 171.705 332.628 172.343 331.022 C172.66 330.239 172.977 329.456 173.304 328.649 C176.678 320.108 178.346 312.215 178.281 303.022 C178.275 302.19 178.269 301.357 178.263 300.5 C178.058 290.095 175.402 282.679 168.968 274.46 C168.512 273.854 168.055 273.248 167.585 272.624 C152.363 255.011 124.158 254.219 102.968 252.46 C102.638 251.14 102.308 249.82 101.968 248.46 C112.207 241.919 125.152 243.734 136.593 246.085 C155.603 250.3 173.012 259.556 183.843 276.147 C185.928 279.499 187.594 282.759 188.968 286.46 C186.75 274.114 181.426 262.325 171.546 254.218 C161.612 247.445 150.647 243.16 138.968 240.46 C138.094 240.236 137.22 240.011 136.32 239.78 C122.637 236.707 106.351 237.24 92.968 241.46 C89.244 243.825 89.244 243.825 87.191 247.573 C87.138 248.299 87.085 249.025 87.031 249.772 C86.96 250.49 86.889 251.208 86.816 251.948 C87.019 255.294 87.97 258.272 88.968 261.46 C89.793 261.444 90.618 261.429 91.468 261.412 C116.38 261.001 144.43 260.933 163.866 279.249 C171.094 287.252 172.288 295.171 172.179 305.655 C171.658 315.053 169.016 323.626 165.851 332.409 C165.573 333.188 165.295 333.966 165.009 334.768 C164.332 336.666 163.65 338.563 162.968 340.46 C163.954 340.807 164.94 341.153 165.955 341.51 C198.987 353.154 198.987 353.154 210.781 358.46 C211.535 358.796 212.289 359.133 213.067 359.479 C219.34 362.397 226.217 365.799 228.968 372.46 C233.064 386.048 230.437 401.031 226.968 414.46 C226.884 415.335 226.8 416.21 226.714 417.112 C226.231 420.361 225.625 422.612 223.968 425.46 C219.432 428.432 214.421 429.828 209.281 431.397 C207.708 431.915 206.138 432.438 204.569 432.965 C201.042 434.148 197.51 435.31 193.973 436.462 C183.669 439.855 173.481 443.59 163.273 447.263 C158.373 449.023 153.468 450.773 148.564 452.522 C132.998 458.077 117.461 463.704 101.968 469.46 C101.135 469.769 100.303 470.078 99.445 470.397 C88.995 474.276 78.546 478.162 68.101 482.054 C67.297 482.353 66.493 482.653 65.665 482.961 C64.9 483.246 64.135 483.531 63.347 483.825 C62.616 484.097 61.884 484.368 61.13 484.647 C59.673 485.195 58.221 485.755 56.774 486.328 C50.353 488.845 50.353 488.845 46.687 488.753 C46.057 488.745 45.427 488.738 44.779 488.73 C44.016 488.703 43.254 488.676 42.468 488.647 C39.993 488.586 37.518 488.524 34.968 488.46 C35.298 496.05 35.628 503.64 35.968 511.46 C38.876 510.222 38.876 510.222 41.843 508.96 C57.848 502.457 74.571 497.803 91.406 494.022 C92.5 493.776 93.594 493.529 94.721 493.274 C114.077 489.103 114.077 489.103 120.968 492.46 C122.968 494.46 122.968 494.46 123.093 498.085 C123.031 499.756 123.031 499.756 122.968 501.46 C123.834 501.8 123.834 501.8 124.718 502.147 C127.703 503.888 129.119 505.528 130.968 508.46 C132.433 514.515 132.082 517.876 128.968 523.46 C126.225 526.717 124.236 528.196 119.917 528.698 C114.405 528.879 111.267 528.248 106.968 524.46 C104.195 521.224 103.831 518.912 103.898 514.784 C103.908 513.974 103.918 513.164 103.928 512.33 C103.942 511.713 103.955 511.096 103.968 510.46 C103.438 510.705 102.907 510.951 102.361 511.203 C87.029 518.278 71.548 524.952 55.968 531.46 C58.389 533.074 60.525 534.237 63.152 535.421 C75.978 541.3 88.056 547.905 99.968 555.46 C100.801 555.984 101.634 556.509 102.493 557.049 C104.954 558.607 107.401 560.185 109.843 561.772 C110.574 562.24 111.305 562.707 112.059 563.188 C116.693 566.261 121.019 569.66 123.968 574.46 C124.047 576.792 124.056 579.128 123.968 581.46 C125.822 583.731 125.822 583.731 127.968 585.46 C129.845 591.09 129.906 596.55 127.281 601.897 C124.35 605.144 122.275 607.157 117.823 607.741 C113.053 607.931 109.763 607.604 105.968 604.46 C102.663 600.788 101.143 598.241 100.656 593.272 C100.946 589.726 101.393 588.25 102.988 585.222 C103.356 584.514 103.724 583.805 104.104 583.076 C104.389 582.543 104.674 582.009 104.968 581.46 C70.071 562.135 70.071 562.135 31.968 551.46 C32.003 552.384 32.038 553.308 32.073 554.261 C31.935 558.456 30.61 560.247 27.968 563.46 C24.275 566.626 20.888 566.972 16.179 566.823 C12.792 566.267 10.621 564.558 7.968 562.46 C6.24 560.971 6.24 560.971 3.968 560.46 C1.661 561.552 -0.153 562.632 -2.219 564.085 C-3.129 564.698 -3.129 564.698 -4.058 565.324 C-6.062 566.684 -8.048 568.07 -10.032 569.46 C-10.716 569.934 -11.4 570.407 -12.104 570.896 C-21.202 577.2 -30.153 583.703 -39.055 590.28 C-41.017 591.717 -43.009 593.111 -45.032 594.46 C-44.999 596.383 -44.961 598.307 -44.891 600.229 C-45.139 604.161 -46.787 607.276 -49.032 610.46 C-52.71 613.542 -56.272 614.296 -61.032 614.46 C-65.67 612.966 -68.943 611.261 -72.032 607.46 C-73.882 601.91 -73.997 596.427 -71.407 591.147 C-68.825 588.226 -66.081 585.887 -63.032 583.46 C-61.36 581.799 -59.694 580.131 -58.032 578.46 C-50.671 571.397 -43.1 564.709 -35.032 558.46 C-33.881 557.553 -32.732 556.646 -31.583 555.737 C-25.458 550.898 -19.308 546.104 -13.032 541.46 C-19.38 539.989 -25.711 538.801 -32.149 537.804 C-33.087 537.656 -34.025 537.508 -34.991 537.356 C-37.963 536.888 -40.935 536.424 -43.907 535.96 C-46.872 535.496 -49.837 535.031 -52.802 534.564 C-54.637 534.275 -56.472 533.988 -58.308 533.703 C-64.568 532.72 -70.802 531.618 -77.032 530.46 C-77.001 531.099 -76.97 531.739 -76.938 532.398 C-76.735 537.283 -76.788 540.545 -80.032 544.46 C-83.609 548.247 -86.771 549.214 -91.821 549.558 C-95.208 549.408 -97.272 548.385 -100.032 546.46 C-104.286 541.746 -105.342 538.918 -105.243 532.706 C-104.802 528.015 -102.54 525.903 -99.094 522.897 C-98.084 522.093 -97.073 521.289 -96.032 520.46 C-95.43 519.794 -94.828 519.127 -94.208 518.44 C-82.647 507.917 -55.612 509.971 -41.047 510.586 C-26.217 511.434 -11.208 512.735 2.968 517.46 C2.73 515.761 2.73 515.761 2.488 514.028 C1.92 509.472 1.749 504.953 1.652 500.366 C1.631 499.534 1.61 498.702 1.589 497.845 C1.524 495.216 1.465 492.588 1.406 489.96 C1.362 488.166 1.319 486.371 1.275 484.577 C1.168 480.205 1.067 475.832 0.968 471.46 C0.061 471.164 -0.846 470.869 -1.781 470.564 C-4.263 469.721 -6.641 468.832 -9.044 467.796 C-27.316 460.093 -46.291 454.837 -65.469 449.897 C-66.476 449.634 -67.482 449.37 -68.519 449.098 C-69.45 448.866 -70.381 448.633 -71.341 448.394 C-72.153 448.188 -72.966 447.982 -73.803 447.77 C-77.349 447.277 -79.369 448 -82.282 450.022 C-82.859 450.497 -83.437 450.971 -84.032 451.46 C-83.681 451.976 -83.331 452.491 -82.969 453.022 C-81.605 456.569 -82.149 458.778 -83.032 462.46 C-84.583 464.857 -86.459 466.817 -88.469 468.835 C-88.973 469.367 -89.476 469.9 -89.995 470.448 C-93.66 474.274 -93.66 474.274 -96.032 475.46 C-98.554 474.656 -98.554 474.656 -101.696 473.37 C-103.378 472.689 -103.378 472.689 -105.094 471.993 C-106.27 471.508 -107.446 471.023 -108.657 470.522 C-109.84 470.041 -111.024 469.56 -112.243 469.063 C-115.175 467.869 -118.105 466.668 -121.032 465.46 C-121.032 461.46 -121.032 461.46 -118.583 458.55 C-117.514 457.489 -116.434 456.438 -115.344 455.397 C-114.549 454.604 -114.549 454.604 -113.737 453.794 C-109.732 449.877 -106.31 446.663 -100.532 446.147 C-97.255 446.44 -94.971 447.035 -92.032 448.46 C-90.712 447.14 -89.392 445.82 -88.032 444.46 C-89.544 444.173 -89.544 444.173 -91.086 443.881 C-94.872 443.16 -98.654 442.427 -102.436 441.689 C-104.065 441.373 -105.694 441.061 -107.324 440.752 C-122.526 437.871 -134.96 435.044 -144.852 422.073 C-155.623 405.268 -156.248 384.376 -156.098 365.021 C-156.093 363.851 -156.089 362.681 -156.084 361.476 C-156.073 358.955 -156.061 356.433 -156.046 353.912 C-156.024 349.881 -156.01 345.849 -155.998 341.818 C-155.965 330.36 -155.924 318.903 -155.861 307.446 C-155.574 260.377 -155.574 260.377 -159.032 213.46 C-159.153 212.384 -159.274 211.308 -159.398 210.2 C-160.092 204.203 -160.928 198.238 -161.844 192.272 C-162.101 190.532 -162.356 188.791 -162.611 187.05 C-163.868 178.552 -165.245 170.081 -166.755 161.624 C-166.964 160.445 -166.964 160.445 -167.177 159.241 C-167.829 155.577 -168.498 151.917 -169.203 148.262 C-170.52 141.223 -171.27 134.431 -171.302 127.272 C-171.306 126.564 -171.31 125.856 -171.314 125.127 C-171.244 119.475 -170.436 115.968 -167.032 111.46 C-164.387 110.269 -164.387 110.269 -162.032 109.46 C-162.049 107.871 -162.049 107.871 -162.067 106.249 C-162.077 104.861 -162.086 103.473 -162.094 102.085 C-162.103 101.386 -162.111 100.688 -162.12 99.968 C-162.145 94.687 -162.145 94.687 -161.032 92.46 C-158.763 91.774 -158.763 91.774 -155.79 91.171 C-154.724 90.952 -153.658 90.733 -152.559 90.507 C-151.437 90.285 -150.314 90.063 -149.157 89.835 C-148.042 89.606 -146.927 89.376 -145.778 89.14 C-137.49 87.46 -137.49 87.46 -134.032 87.46 C-131.705 73.903 -130.52 61.39 -131.495 47.63 C-132.806 28.588 -132.806 28.588 -126.032 20.46 C-122.169 16.82 -118.531 15.484 -113.434 14.429 C-112.322 14.184 -112.322 14.184 -111.187 13.934 C-102.369 12.03 -93.489 10.462 -84.594 8.96 C-83.717 8.81 -82.839 8.661 -81.934 8.507 C-69.419 6.383 -56.893 4.542 -44.282 3.085 C-43.595 3.006 -42.909 2.926 -42.201 2.844 C-28.146 1.242 -14.144 0.18 0 0 Z M-111.032 20.46 C-111.356 23.545 -111.356 23.545 -109.219 25.585 C-101.47 35.77 -101.919 51.391 -103.266 63.581 C-104.363 70.986 -106.331 78.038 -109.067 84.995 C-110.16 87.786 -111.092 90.615 -112.032 93.46 C-84.767 91.973 -58.146 88.308 -31.282 83.46 C-29.885 83.209 -29.885 83.209 -28.461 82.953 C-19.099 81.261 -9.769 79.486 -0.501 77.335 C0.189 77.176 0.878 77.018 1.588 76.854 C6.567 75.664 10.614 74.139 14.968 71.46 C15.855 70.924 16.742 70.387 17.656 69.835 C25.595 61.681 26.279 51.499 26.183 40.671 C25.799 30.512 24.475 13.967 16.968 6.46 C-25.153 3.364 -69.86 12.195 -111.032 20.46 Z M-121.032 41.46 C-121.011 42.27 -120.99 43.081 -120.969 43.916 C-120.899 46.989 -120.85 50.062 -120.812 53.136 C-120.783 55.094 -120.732 57.051 -120.68 59.009 C-120.601 66.847 -121.471 73.288 -124.166 80.666 C-125.026 83.439 -125.199 85.579 -125.032 88.46 C-122.647 88.588 -122.647 88.588 -120.032 87.46 C-112.218 77.077 -113.21 62.428 -114.907 50.335 C-115.49 46.55 -115.882 44.685 -118.032 41.46 C-119.022 41.46 -120.012 41.46 -121.032 41.46 Z M29.968 60.46 C29.548 61.33 29.548 61.33 29.12 62.218 C23.968 72.257 17.332 76.394 6.968 80.46 C2.512 81.831 -1.989 82.917 -6.532 83.96 C-7.795 84.256 -9.058 84.552 -10.36 84.858 C-23.171 87.83 -36.061 90.3 -49.032 92.46 C-50.683 92.74 -50.683 92.74 -52.367 93.026 C-66.607 95.402 -80.818 96.907 -95.219 97.772 C-96.296 97.841 -96.296 97.841 -97.393 97.91 C-105.348 98.399 -113.243 98.558 -121.208 98.19 C-121.903 98.165 -122.599 98.14 -123.316 98.115 C-127.874 97.844 -131.092 96.727 -135.032 94.46 C-138.019 92.967 -139.984 94.053 -143.157 94.897 C-144.253 95.185 -145.348 95.472 -146.477 95.769 C-147.742 96.111 -147.742 96.111 -149.032 96.46 C-146.618 98.874 -145.206 98.993 -141.907 99.71 C-136.452 101.149 -131.712 103.042 -128.032 107.46 C-125.251 113.592 -124.12 119.638 -123.157 126.272 C-122.993 127.374 -122.83 128.476 -122.661 129.611 C-118.22 160.43 -115.117 191.398 -113.032 222.46 C-112.965 223.448 -112.899 224.436 -112.83 225.454 C-111.688 243.089 -111.481 260.796 -111.032 278.46 C-110.435 278.475 -109.838 278.489 -109.222 278.504 C-77.435 279.364 -49.358 284.184 -26.173 307.937 C-20.562 314.55 -16.715 322.254 -14.032 330.46 C-9.025 328.805 -4.033 327.116 0.945 325.374 C21.612 318.218 41.978 312.728 63.906 311.897 C64.971 311.854 66.036 311.811 67.134 311.767 C69.745 311.661 72.357 311.559 74.968 311.46 C79.027 297.53 77.154 280.683 77.153 266.364 C77.155 262.496 77.174 258.628 77.193 254.761 C77.242 233.59 75.891 212.722 72.843 191.772 C72.739 191.048 72.634 190.324 72.526 189.577 C68.707 163.426 62.462 137.837 55.843 112.272 C55.595 111.311 55.348 110.351 55.092 109.36 C52.573 99.627 49.925 89.957 46.788 80.401 C46.55 79.668 46.312 78.934 46.066 78.178 C43.331 70.075 39.484 64.559 31.968 60.46 C31.308 60.46 30.648 60.46 29.968 60.46 Z M-158.032 102.46 C-158.032 104.44 -158.032 106.42 -158.032 108.46 C-156.928 108.823 -156.928 108.823 -155.802 109.194 C-143.381 113.46 -143.381 113.46 -139.907 120.085 C-138.191 124.441 -137.314 128.826 -136.571 133.429 C-136.379 134.602 -136.379 134.602 -136.184 135.799 C-134.63 145.605 -133.572 155.464 -132.532 165.335 C-132.425 166.338 -132.319 167.342 -132.209 168.376 C-131.463 175.402 -130.741 182.43 -130.032 189.46 C-129.949 190.278 -129.866 191.097 -129.78 191.94 C-126.905 220.383 -125.951 248.897 -125.032 277.46 C-126.432 277.666 -126.432 277.666 -127.86 277.876 C-136.627 279.491 -143.987 286.395 -149.032 293.46 C-151.038 296.627 -151.038 296.627 -152.032 299.46 C-151.702 300.12 -151.372 300.78 -151.032 301.46 C-150.643 300.808 -150.253 300.155 -149.852 299.483 C-145.502 292.687 -141.251 288.981 -134.032 285.46 C-133.253 285.071 -132.475 284.681 -131.673 284.28 C-126.875 282.014 -122.186 280.692 -117.032 279.46 C-115.914 230.801 -122.066 182.325 -128.719 134.21 C-128.816 133.495 -128.912 132.781 -129.012 132.044 C-130.294 119.683 -130.294 119.683 -136.177 109.132 C-139.89 106.957 -143.582 105.826 -147.719 104.71 C-148.491 104.49 -149.262 104.269 -150.057 104.042 C-153.984 102.875 -153.984 102.875 -158.032 102.46 Z M82.968 263.46 C82.538 269.455 82.11 275.451 81.686 281.447 C81.542 283.485 81.396 285.523 81.25 287.56 C81.039 290.497 80.831 293.433 80.624 296.37 C80.526 297.727 80.526 297.727 80.425 299.111 C80.09 303.909 79.899 308.651 79.968 313.46 C80.784 313.684 80.784 313.684 81.616 313.912 C95.286 317.7 108.744 321.976 122.156 326.585 C122.895 326.838 123.634 327.091 124.395 327.352 C126.56 328.096 128.723 328.843 130.886 329.593 C131.575 329.831 132.263 330.07 132.972 330.316 C136.267 331.469 139.531 332.666 142.767 333.975 C143.923 334.442 145.078 334.909 146.269 335.39 C147.277 335.812 148.286 336.235 149.325 336.67 C152.117 337.504 153.359 337.745 155.968 336.46 C157.034 334.841 157.034 334.841 157.601 332.776 C157.973 331.64 157.973 331.64 158.352 330.481 C158.597 329.67 158.841 328.858 159.093 328.022 C159.481 326.782 159.481 326.782 159.877 325.517 C160.598 323.171 161.29 320.819 161.968 318.46 C162.241 317.518 162.515 316.575 162.796 315.604 C164.865 307.021 166.296 295.186 161.593 287.335 C150.816 274.09 129.603 269.644 113.519 267.854 C107.388 267.259 101.219 267.08 95.062 266.977 C94.213 266.952 93.363 266.927 92.488 266.901 C91.736 266.888 90.984 266.874 90.209 266.861 C87.337 266.347 85.38 265.061 82.968 263.46 Z M-138.907 294.772 C-141.748 298.365 -144.285 301.759 -143.837 306.546 C-142.998 310.125 -141.691 313.187 -140.032 316.46 C-133.25 315.727 -126.483 314.912 -119.719 314.022 C-118.744 313.901 -117.769 313.779 -116.764 313.653 C-115.825 313.529 -114.886 313.405 -113.919 313.276 C-113.075 313.168 -112.232 313.059 -111.363 312.947 C-108.974 312.448 -107.153 311.648 -105.032 310.46 C-105.38 308.485 -105.38 308.485 -106.032 306.46 C-108.433 305.26 -109.926 305.345 -112.602 305.362 C-113.946 305.367 -113.946 305.367 -115.317 305.372 C-116.254 305.38 -117.191 305.389 -118.157 305.397 C-119.574 305.404 -119.574 305.404 -121.02 305.411 C-123.358 305.423 -125.695 305.439 -128.032 305.46 C-128.645 303.616 -128.645 303.616 -129.032 301.46 C-125.27 296.271 -120.232 293.79 -114.032 292.46 C-101.808 291.298 -89.881 292.32 -78.032 295.46 C-76.996 295.715 -75.959 295.97 -74.891 296.233 C-60.625 300.141 -46.351 306.875 -35.032 316.46 C-34.057 317.251 -34.057 317.251 -33.063 318.058 C-27.415 323.099 -24.342 329.769 -21.032 336.46 C-19.628 333.403 -20.12 332.218 -21.298 328.991 C-21.939 327.638 -22.602 326.295 -23.282 324.96 C-23.642 324.252 -24.002 323.545 -24.373 322.816 C-30.384 311.556 -38.792 303.555 -50.032 297.46 C-50.854 297.001 -51.677 296.542 -52.524 296.069 C-75.026 284.135 -117.18 277.296 -138.907 294.772 Z M189.968 288.46 C190.968 290.46 190.968 290.46 190.968 290.46 Z M-11.032 337.46 C-11.036 338.047 -11.04 338.633 -11.044 339.238 C-11.384 367.212 -18.816 388.971 -32.527 413.089 C-32.982 413.892 -33.438 414.695 -33.907 415.522 C-34.317 416.235 -34.727 416.948 -35.149 417.683 C-36.18 419.428 -36.18 419.428 -36.032 421.46 C-41.596 422.684 -44.093 422.154 -49.032 419.46 C-52.969 420.772 -53.859 422.656 -56.219 426.022 C-57.293 427.54 -57.293 427.54 -58.387 429.089 C-58.93 429.871 -59.473 430.654 -60.032 431.46 C-59.702 432.12 -59.372 432.78 -59.032 433.46 C-56.208 433.423 -56.208 433.423 -53.032 432.46 C-51.879 430.891 -50.727 429.322 -49.579 427.749 C-46.858 425.482 -43.78 426.225 -40.407 426.44 C-37.214 426.467 -35.479 425.448 -33.032 423.46 C-32.042 422.47 -32.042 422.47 -31.032 421.46 C-23.646 422.686 -16.543 425.043 -9.407 427.272 C-8.257 427.631 -7.107 427.989 -5.922 428.358 C-3.648 429.069 -1.374 429.781 0.899 430.497 C3.467 431.303 6.039 432.097 8.613 432.886 C22.619 437.314 31.956 442.191 39.218 455.272 C43.715 465.06 46.048 476.93 42.968 487.46 C43.628 487.46 44.288 487.46 44.968 487.46 C50.296 479.055 46.92 464.362 44.874 455.093 C42.465 445.437 39.101 437.656 30.656 431.878 C15.971 423.789 -1.726 420.406 -17.846 416.325 C-19.216 415.978 -19.216 415.978 -20.614 415.624 C-21.421 415.422 -22.227 415.221 -23.059 415.013 C-25.032 414.46 -25.032 414.46 -27.032 413.46 C-25.528 408.304 -23.705 404.47 -19.004 401.633 C-17.202 400.843 -17.202 400.843 -15.364 400.038 C-14.704 399.746 -14.044 399.453 -13.365 399.152 C-11.263 398.232 -9.151 397.341 -7.032 396.46 C-6.362 396.181 -5.693 395.901 -5.003 395.614 C-0.123 393.596 4.791 391.673 9.718 389.772 C10.485 389.475 11.252 389.179 12.042 388.873 C41.249 377.583 70.798 367.375 101.406 360.585 C102.323 360.381 103.24 360.178 104.186 359.968 C110.093 358.715 115.949 357.937 121.968 357.46 C121.364 357.639 120.759 357.819 120.137 358.004 C87.843 367.649 56.242 378.914 24.968 391.46 C24.098 391.808 23.228 392.157 22.332 392.516 C16.86 394.709 11.392 396.914 5.931 399.133 C4.171 399.848 2.411 400.561 0.651 401.272 C-1.792 402.26 -4.231 403.257 -6.669 404.257 C-7.769 404.7 -7.769 404.7 -8.892 405.151 C-12.648 406.491 -12.648 406.491 -15.032 409.46 C-14.399 409.641 -13.766 409.821 -13.115 410.007 C37.056 424.372 37.056 424.372 43.968 435.46 C52.034 450.309 53.121 466.912 50.968 483.46 C56.264 481.371 61.536 479.232 66.777 477.007 C101.428 462.343 136.97 449.837 172.45 437.346 C174.976 436.457 177.501 435.566 180.026 434.674 C184.061 433.252 188.098 431.84 192.139 430.436 C193.623 429.92 195.105 429.401 196.586 428.88 C204.624 426.055 212.5 423.622 220.968 422.46 C225.333 408.106 229.817 387.916 223.968 373.46 C214.466 362.829 198.409 358.813 185.343 354.147 C183.506 353.485 181.67 352.822 179.834 352.158 C175.346 350.537 170.854 348.926 166.361 347.318 C163.038 346.127 159.72 344.924 156.402 343.722 C149.603 341.265 142.79 338.851 135.968 336.46 C134.872 336.075 134.872 336.075 133.753 335.683 C128.804 333.947 123.85 332.222 118.893 330.509 C117.273 329.948 115.654 329.385 114.036 328.82 C67.861 312.704 33.953 320.38 -11.032 337.46 Z M-110.032 319.46 C-110.991 328.875 -111.121 338.128 -110.845 347.57 C-110.782 349.825 -110.741 352.08 -110.7 354.335 C-110.796 370.848 -110.796 370.848 -104.597 385.329 C-101.936 387.54 -100.433 388.168 -97.032 388.46 C-96.431 387.425 -96.431 387.425 -95.817 386.37 C-85.707 369.657 -70.167 359.501 -53.818 349.566 C-51.177 347.93 -48.605 346.202 -46.032 344.46 C-48.604 336.584 -53.263 332.314 -60.587 328.569 C-69.518 324.299 -78.229 321.931 -88.032 320.46 C-88.765 320.33 -89.499 320.2 -90.255 320.065 C-96.772 319.028 -103.455 319.391 -110.032 319.46 Z M-123.032 321.46 C-124.142 361.102 -124.142 361.102 -108.282 395.46 C-97.246 404.813 -79.158 410.768 -65.032 412.46 C-65.527 413.347 -66.022 414.234 -66.532 415.147 C-67.976 418.336 -68.334 420.042 -68.032 423.46 C-66.712 424.12 -65.392 424.78 -64.032 425.46 C-62.999 423.864 -61.981 422.258 -60.969 420.647 C-60.401 419.754 -59.833 418.861 -59.247 417.94 C-57.655 415.423 -57.655 415.423 -59.032 412.46 C-60.022 411.965 -60.022 411.965 -61.032 411.46 C-61.291 410.812 -61.551 410.163 -61.818 409.495 C-62.885 407.233 -62.885 407.233 -65.443 406.519 C-66.435 406.314 -67.428 406.109 -68.45 405.897 C-69.54 405.658 -70.63 405.418 -71.753 405.171 C-72.897 404.936 -74.041 404.702 -75.219 404.46 C-89.536 401.474 -89.536 401.474 -95.032 397.46 C-96.196 395.335 -96.196 395.335 -97.032 393.46 C-99.059 392.266 -99.059 392.266 -101.407 391.46 C-107.749 388.797 -107.749 388.797 -110.032 385.46 C-112.513 378.858 -113.635 372.337 -114.157 365.335 C-114.274 363.906 -114.274 363.906 -114.393 362.448 C-115.444 348.481 -115.705 334.459 -116.032 320.46 C-119.661 320.308 -119.661 320.308 -123.032 321.46 Z M-45.032 325.46 C-46.011 327.565 -46.011 327.565 -46.032 330.46 C-44.958 332.513 -43.722 334.332 -42.356 336.202 C-36.4 346.357 -37.99 361.273 -40.469 372.335 C-43.524 383.195 -47.754 395.043 -54.032 404.46 C-54.032 405.45 -54.032 406.44 -54.032 407.46 C-51.413 409.887 -51.413 409.887 -48.032 410.46 C-35.779 389.537 -24.946 366.593 -29.759 341.702 C-31.45 335.667 -33.159 330.539 -38.032 326.46 C-41.711 325.492 -41.711 325.492 -45.032 325.46 Z M-20.032 336.46 C-19.032 338.46 -19.032 338.46 -19.032 338.46 Z M-54.532 357.96 C-55.618 358.643 -55.618 358.643 -56.726 359.341 C-62.489 363.018 -67.866 366.975 -73.032 371.46 C-73.919 372.226 -74.806 372.991 -75.719 373.78 C-84.763 381.463 -84.763 381.463 -88.032 392.46 C-83.381 395.761 -78.423 396.881 -72.969 398.21 C-72.072 398.443 -71.174 398.677 -70.249 398.917 C-69.382 399.132 -68.515 399.348 -67.622 399.569 C-66.837 399.765 -66.052 399.961 -65.243 400.162 C-62.807 400.49 -61.315 400.36 -59.032 399.46 C-50.575 386.878 -44.737 368.556 -45.032 353.46 C-48.624 353.46 -51.56 356.086 -54.532 357.96 Z M-104.032 457.46 C-103.702 459.11 -103.372 460.76 -103.032 462.46 C-100.019 463.381 -98.605 463.739 -95.719 462.335 C-93.787 460.55 -93.787 460.55 -93.719 457.835 C-93.78 455.509 -93.78 455.509 -95.032 454.46 C-99.116 454.018 -100.98 454.747 -104.032 457.46 Z M7.968 476.46 C7.859 494.824 7.87 513.12 8.968 531.46 C11.278 531.79 13.588 532.12 15.968 532.46 C16.028 525.364 16.029 518.271 15.985 511.175 C15.973 508.68 15.973 506.185 15.983 503.69 C15.991 500.008 15.953 496.329 15.906 492.647 C15.917 491.492 15.928 490.337 15.939 489.146 C16.049 483.474 16.049 483.474 13.347 478.818 C11.233 477.52 11.233 477.52 7.968 476.46 Z M35.968 518.46 C35.968 521.76 35.968 525.06 35.968 528.46 C40.446 530.125 45.124 531.433 49.802 529.833 C52.553 528.52 55.159 526.999 57.792 525.466 C63.972 521.894 70.269 519.082 76.906 516.46 C77.948 516.048 78.991 515.636 80.065 515.211 C89.198 511.662 98.439 508.435 107.729 505.327 C108.765 504.979 109.8 504.631 110.866 504.272 C111.781 503.97 112.695 503.667 113.637 503.354 C116.183 502.475 116.183 502.475 118.968 500.46 C118.473 498.975 118.473 498.975 117.968 497.46 C90.63 497.46 60.218 505.953 35.968 518.46 Z M-86.032 519.46 C-86.032 520.12 -86.032 520.78 -86.032 521.46 C-79.86 525.006 -75.143 526.064 -68.094 526.397 C-58.684 527.038 -49.396 528.12 -40.072 529.512 C-38.65 529.724 -37.228 529.932 -35.805 530.136 C-27.547 531.323 -19.645 532.957 -11.708 535.58 C-7.321 537.248 -7.321 537.248 -2.891 536.71 C-0.71 535.417 1.156 534.241 2.968 532.46 C3.637 528.747 3.637 528.747 2.968 525.46 C-15.633 518.725 -34.567 517.283 -54.157 517.21 C-54.877 517.205 -55.598 517.199 -56.34 517.194 C-66.413 517.137 -76.077 517.872 -86.032 519.46 Z M29.355 535.026 C25.397 536.702 23.071 536.449 18.888 536.061 C6.761 535.034 0.214 538.307 -8.966 545.956 C-9.658 546.555 -10.35 547.155 -11.063 547.772 C-13.808 550.125 -16.691 552.242 -19.594 554.397 C-32.148 564.155 -44.862 574.114 -56.032 585.46 C-54.423 586.512 -54.423 586.512 -52.782 587.585 C-52.179 587.979 -51.575 588.374 -50.954 588.78 C-49.025 589.703 -49.025 589.703 -47.145 588.68 C-45.036 587.462 -43.203 586.144 -41.302 584.624 C-40.59 584.06 -39.878 583.497 -39.145 582.916 C-38.386 582.312 -37.627 581.708 -36.844 581.085 C10.986 543.524 10.986 543.524 36.968 545.46 C63.722 550.175 90.668 564.514 111.757 581.378 C114.785 582.86 116.768 582.253 119.968 581.46 C120.342 577.883 120.342 577.883 118.667 574.862 C76.395 542.763 76.395 542.763 29.355 535.026 Z " fill="#000000" transform="translate(376.031982421875,138.5400390625)"/>
<path d="M0 0 C-0.246 2.35 -0.246 2.35 -1 5 C-2.752 6.355 -2.752 6.355 -5.066 7.402 C-5.933 7.811 -6.8 8.22 -7.693 8.641 C-8.64 9.069 -9.587 9.497 -10.562 9.938 C-20.353 14.573 -29.678 19.745 -38.965 25.316 C-43.882 28.25 -48.66 30.921 -54 33 C-54.33 31.68 -54.66 30.36 -55 29 C-14.108 -4.031 -14.108 -4.031 0 0 Z " fill="#000000" transform="translate(494,166)"/>
<path d="M0 0 C0.495 2.475 0.495 2.475 1 5 C-4.278 7.381 -9.57 9.2 -15.117 10.848 C-16.402 11.234 -16.402 11.234 -17.713 11.628 C-19.516 12.168 -21.319 12.707 -23.124 13.243 C-25.861 14.058 -28.597 14.881 -31.332 15.705 C-33.094 16.232 -34.855 16.759 -36.617 17.285 C-37.827 17.649 -37.827 17.649 -39.061 18.021 C-44.331 19.582 -49.62 20.877 -55 22 C-55.33 20.68 -55.66 19.36 -56 18 C-48.184 13.642 -40.057 10.792 -31.586 8.033 C-29.37 7.311 -27.157 6.577 -24.945 5.842 C-23.513 5.369 -22.081 4.897 -20.648 4.426 C-19.999 4.211 -19.35 3.997 -18.681 3.775 C-5.92 -0.37 -5.92 -0.37 0 0 Z " fill="#000000" transform="translate(504,186)"/>
<path d="M0 0 C1.378 -0.02 1.378 -0.02 2.783 -0.04 C3.644 -0.041 4.504 -0.042 5.391 -0.043 C6.544 -0.049 6.544 -0.049 7.72 -0.055 C9.75 0.188 9.75 0.188 12.75 2.188 C12.375 4.125 12.375 4.125 11.75 6.188 C8.724 7.7 5.558 7.428 2.234 7.504 C1.094 7.535 1.094 7.535 -0.068 7.567 C-2.546 7.633 -5.023 7.692 -7.5 7.75 C-9.189 7.793 -10.878 7.836 -12.567 7.879 C-24.796 8.179 -37.018 8.31 -49.25 8.188 C-48.92 6.868 -48.59 5.548 -48.25 4.188 C-32.117 1.837 -16.321 0.148 0 0 Z " fill="#000000" transform="translate(502.25,210.8125)"/>
<path d="M0 0 C13.686 -0.508 27.003 0.08 40.562 1.875 C41.232 1.962 41.901 2.049 42.59 2.139 C49.207 3.013 55.645 3.886 62 6 C63.5 8 63.5 8 64 10 C63.67 10.66 63.34 11.32 63 12 C51.954 11.373 41.028 9.936 30.068 8.471 C26.98 8.06 23.89 7.66 20.801 7.26 C18.825 6.998 16.85 6.736 14.875 6.473 C13.957 6.355 13.04 6.237 12.094 6.116 C7.788 5.53 3.959 4.909 0 3 C0 2.01 0 1.02 0 0 Z " fill="#000000" transform="translate(456,229)"/>
<path d="M0 0 C9.158 0.328 17.663 1.881 26.469 4.329 C28.457 4.88 30.449 5.412 32.443 5.941 C44.08 9.094 44.08 9.094 49 12 C49.495 13.485 49.495 13.485 50 15 C49.67 15.66 49.34 16.32 49 17 C40.391 16.655 32.663 14.309 24.5 11.688 C22.619 11.101 22.619 11.101 20.699 10.502 C13.671 8.283 6.788 5.873 0 3 C0 2.01 0 1.02 0 0 Z " fill="#000000" transform="translate(459,242)"/>
<path d="M0 0 C1.098 -0.005 2.197 -0.01 3.328 -0.014 C9.842 -0.001 16.222 0.329 22.688 1.125 C22.688 1.455 22.688 1.785 22.688 2.125 C20.753 2.343 20.753 2.343 18.78 2.565 C-18.531 6.789 -55.481 12.041 -92.312 19.375 C-93.151 19.542 -93.989 19.708 -94.852 19.88 C-103.006 21.512 -111.089 23.168 -119.051 25.601 C-121.583 26.188 -123.722 26.352 -126.312 26.125 C-126.973 25.465 -127.632 24.805 -128.312 24.125 C-128.312 22.188 -128.312 22.188 -127.312 20.125 C-121.649 16.589 -115.179 15.354 -108.75 13.812 C-107.491 13.511 -106.231 13.209 -104.934 12.897 C-79.789 7.009 -54.007 3.502 -28.312 1.125 C-27.597 1.054 -26.881 0.984 -26.143 0.911 C-17.438 0.068 -8.739 0.031 0 0 Z " fill="#000000" transform="translate(391.3125,261.875)"/>
<path d="M0 0 C0.99 0.33 1.98 0.66 3 1 C6.002 8.388 6.418 16.129 6 24 C5.01 24 4.02 24 3 24 C0.543 16.137 0.377 8.173 0 0 Z " fill="#000000" transform="translate(433,317)"/>
<path d="M0 0 C2.805 2.805 2.961 4.885 3.098 8.797 C3.086 9.771 3.074 10.746 3.062 11.75 C3.053 12.735 3.044 13.72 3.035 14.734 C3.024 15.482 3.012 16.23 3 17 C2.01 17.33 1.02 17.66 0 18 C-1.848 12.022 -2.335 7.162 -1 1 C-0.67 0.67 -0.34 0.34 0 0 Z " fill="#000000" transform="translate(424,324)"/>
<path d="M0 0 C1.121 -0.014 1.121 -0.014 2.264 -0.029 C6.676 -0.002 10.276 0.621 14.375 2.25 C14.045 2.91 13.715 3.57 13.375 4.25 C11.515 4.68 11.515 4.68 9.055 4.941 C7.681 5.099 7.681 5.099 6.28 5.26 C5.28 5.369 4.28 5.478 3.25 5.59 C-8.86 7.042 -20.702 9.273 -32.625 11.812 C-34.166 12.137 -34.166 12.137 -35.739 12.469 C-72.767 20.287 -110.878 28.894 -146.096 43.002 C-153.328 45.828 -153.328 45.828 -157.625 44.25 C-158.312 42.438 -158.312 42.438 -158.625 40.25 C-156.416 37.406 -153.939 36.374 -150.621 35.121 C-149.589 34.731 -148.557 34.341 -147.494 33.939 C-146.362 33.526 -145.229 33.113 -144.062 32.688 C-142.865 32.25 -141.668 31.812 -140.434 31.361 C-103.426 18.015 -64.445 8.461 -25.625 2.25 C-24.841 2.122 -24.058 1.993 -23.25 1.861 C-15.515 0.624 -7.829 0.074 0 0 Z " fill="#000000" transform="translate(429.625,349.75)"/>
<path d="M0 0 C-13.098 6.325 -26.1 11.489 -40.25 14.938 C-41.156 15.161 -42.061 15.385 -42.994 15.615 C-43.847 15.813 -44.7 16.011 -45.578 16.215 C-46.714 16.48 -46.714 16.48 -47.872 16.75 C-50.188 17.022 -51.793 16.703 -54 16 C-40.395 8.164 -24.979 3.952 -9.75 0.5 C-8.994 0.328 -8.238 0.155 -7.458 -0.022 C-2.258 -1.129 -2.258 -1.129 0 0 Z " fill="#000000" transform="translate(201,440)"/>
<path d="M0 0 C-8.392 4.847 -16.871 8.933 -25.938 12.375 C-26.812 12.708 -27.687 13.041 -28.589 13.385 C-35.621 15.994 -42.396 18.38 -50 18 C-40.248 9.777 -12.787 -4.11 0 0 Z " fill="#000000" transform="translate(196,455)"/>
<path d="M0 0 C0.66 0.33 1.32 0.66 2 1 C-7.978 10.75 -20.531 21.555 -34 26 C-34.99 25.67 -35.98 25.34 -37 25 C-28.676 15.902 -18.586 9.667 -7.812 3.875 C-7.07 3.472 -6.327 3.07 -5.561 2.655 C-3.741 1.703 -1.873 0.842 0 0 Z " fill="#000000" transform="translate(191,468)"/>
<path d="M0 0 C-3.811 3.286 -7.812 5.623 -12.312 7.812 C-13.005 8.153 -13.698 8.493 -14.412 8.844 C-19.427 11.285 -24.475 13.652 -29.562 15.938 C-30.204 16.232 -30.846 16.526 -31.507 16.829 C-35.736 18.689 -39.453 19.538 -44 20 C-44 19.01 -44 18.02 -44 17 C-37.834 12.056 -30.095 9.135 -22.812 6.25 C-21.394 5.672 -21.394 5.672 -19.947 5.082 C-6.371 -0.386 -6.371 -0.386 0 0 Z " fill="#000000" transform="translate(478,548)"/>
<path d="M0 0 C0 0.66 0 1.32 0 2 C-1.727 2.962 -3.457 3.919 -5.188 4.875 C-6.15 5.409 -7.113 5.942 -8.105 6.492 C-15.115 10.144 -15.115 10.144 -18.312 9.625 C-18.869 9.419 -19.426 9.212 -20 9 C-13.84 3.937 -8.263 0 0 0 Z " fill="#000000" transform="translate(462,569)"/>
</svg>
