<?xml version="1.0" encoding="UTF-8"?>
<!-- Generator: visioncortex VTracer 0.6.0 -->
<svg version="1.1" xmlns="http://www.w3.org/2000/svg" width="847" height="847">
<path d="M0 0 C0.99 0 1.98 0 3 0 C2.998 0.884 2.996 1.768 2.993 2.679 C2.966 14.307 2.949 25.935 2.938 37.562 C2.936 38.514 2.935 39.466 2.934 40.446 C2.912 63.618 2.965 86.787 3.258 109.957 C3.27 110.926 3.282 111.895 3.295 112.894 C3.413 122.253 3.541 131.612 3.691 140.971 C3.993 160.14 3.994 179.227 3.24 198.385 C2.93 206.26 2.893 214.121 3 222 C14.002 221.36 25.002 220.696 36 220 C36 221.32 36 222.64 36 224 C9.295 226.902 9.295 226.902 0 226 C-2.555 223.445 -2.241 221.79 -2.263 218.306 C-2.258 217.504 -2.253 216.701 -2.247 215.875 C-2.25 215.024 -2.252 214.174 -2.255 213.299 C-2.26 210.433 -2.252 207.568 -2.243 204.702 C-2.244 202.654 -2.246 200.606 -2.249 198.557 C-2.254 192.978 -2.246 187.399 -2.236 181.82 C-2.227 175.981 -2.229 170.141 -2.229 164.301 C-2.228 154.481 -2.219 144.662 -2.206 134.842 C-2.19 123.508 -2.185 112.175 -2.186 100.842 C-2.186 88.767 -2.179 76.691 -2.17 64.616 C-2.168 61.146 -2.167 57.675 -2.167 54.205 C-2.166 48.729 -2.16 43.254 -2.15 37.778 C-2.147 35.776 -2.146 33.774 -2.146 31.772 C-2.15 9.176 -2.15 9.176 -1 1 C-0.67 0.67 -0.34 0.34 0 0 Z " fill="#000000" transform="translate(99,136)"/>
<path d="M0 0 C0.99 0 1.98 0 3 0 C3.698 14.956 4.348 29.914 4.93 44.875 C5.018 47.118 5.108 49.361 5.2 51.603 C5.877 68.077 6.125 84.512 6 101 C5.01 100.67 4.02 100.34 3 100 C2.262 94.509 1.752 89.067 1.465 83.535 C1.422 82.724 1.379 81.913 1.334 81.077 C1.196 78.406 1.066 75.734 0.938 73.062 C0.893 72.143 0.848 71.224 0.802 70.277 C-0.311 46.858 -0.195 23.439 0 0 Z " fill="#000000" transform="translate(222,137)"/>
<path d="M0 0 C1.891 0.641 1.891 0.641 4 2 C5.047 4.609 5.047 4.609 5.75 7.75 C5.992 8.776 6.235 9.802 6.484 10.859 C6.995 13.969 7.094 16.855 7 20 C5.68 20.33 4.36 20.66 3 21 C-0.412 14.62 -0.958 8.19 -1 1 C-0.67 0.67 -0.34 0.34 0 0 Z " fill="#000000" transform="translate(685,137)"/>
<path d="M0 0 C0.99 0.33 1.98 0.66 3 1 C3.507 3.54 4.006 6.082 4.5 8.625 C4.643 9.338 4.786 10.051 4.934 10.785 C5.73 14.921 6.16 18.764 6 23 C4.02 23.99 4.02 23.99 2 25 C-0.377 23.243 -0.979 22.087 -1.688 19.188 C-2.339 13.166 -2.075 7.046 -2 1 C-1.34 0.67 -0.68 0.34 0 0 Z " fill="#000000" transform="translate(733,140)"/>
<path d="M0 0 C2.415 2.657 2.833 3.629 3.188 7.25 C2.822 11.707 1.75 14.697 -1.125 18.062 C-6.612 22.703 -13.172 25.702 -19.621 28.766 C-22.211 29.947 -22.211 29.947 -24.125 32.062 C-24.102 34.097 -24.102 34.097 -23.125 36.062 C-21.349 37.477 -21.349 37.477 -19.188 38.562 C-15.941 40.306 -14.419 41.558 -13.125 45.062 C-13.292 48.402 -13.866 49.762 -16.062 52.312 C-19.946 55.607 -23.668 55.344 -28.562 55.562 C-34.428 55.764 -34.428 55.764 -40.125 57.062 C-39.656 62.826 -39.656 62.826 -36.125 67.062 C-34.917 70.686 -34.725 73.259 -35.125 77.062 C-37.884 80.323 -39.426 81.001 -43.688 81.375 C-46.373 81.131 -48.546 80.71 -51.125 80.062 C-54.656 79.382 -57.629 79.107 -61.125 80.062 C-63.462 82.463 -65.06 84.89 -66.75 87.777 C-68.125 90.062 -68.125 90.062 -70.125 91.062 C-71.115 90.403 -72.105 89.743 -73.125 89.062 C-73.207 87.99 -73.29 86.918 -73.375 85.812 C-74.2 81.689 -74.547 81.386 -77.688 79 C-81.049 76.399 -81.049 76.399 -81.812 73 C-80.939 69.27 -79.912 67.711 -77.125 65.062 C-75.057 64.01 -72.997 63.085 -70.832 62.25 C-68.846 61.137 -68.846 61.137 -68.387 58.438 C-68.3 57.654 -68.214 56.87 -68.125 56.062 C-68.812 55.687 -69.499 55.312 -70.207 54.926 C-71.559 54.158 -71.559 54.158 -72.938 53.375 C-73.831 52.876 -74.724 52.377 -75.645 51.863 C-78.43 49.841 -79.668 48.164 -81.125 45.062 C-81.207 40.444 -80.713 38.679 -77.5 35.312 C-74.28 32.935 -70.81 31.58 -67.125 30.062 C-65.114 26.041 -65.909 21.807 -67.125 17.625 C-68.623 12.289 -68.758 8.072 -67.062 2.688 C-65.125 0.062 -65.125 0.062 -61.75 -1.5 C-58.125 -1.938 -58.125 -1.938 -55.438 -1.125 C-52.573 1.585 -51.444 4.27 -50.02 7.906 C-49.111 10.294 -49.111 10.294 -47.125 13.062 C-42.084 12.626 -39.942 11.406 -36.438 7.812 C-27.218 -0.921 -11.926 -7.394 0 0 Z " fill="#000000" transform="translate(192.125,158.9375)"/>
<path d="M0 0 C1.905 0.675 1.905 0.675 4 2 C4.929 4.319 4.929 4.319 5.52 7.199 C5.737 8.244 5.954 9.289 6.178 10.365 C6.387 11.462 6.597 12.558 6.812 13.688 C7.041 14.765 7.27 15.842 7.506 16.951 C8.646 22.64 9.324 27.322 8 33 C6.68 32.67 5.36 32.34 4 32 C2.08 24.638 0.656 17.36 -0.25 9.812 C-0.342 9.07 -0.434 8.328 -0.529 7.563 C-1.126 2.252 -1.126 2.252 0 0 Z " fill="#000000" transform="translate(635,160)"/>
<path d="M0 0 C2.475 0.495 2.475 0.495 5 1 C6.135 4.61 6.1 7.984 6.062 11.75 C6.053 12.92 6.044 14.091 6.035 15.297 C6.024 16.189 6.012 17.081 6 18 C4.35 18.33 2.7 18.66 1 19 C-0.655 15.69 -0.101 12.009 -0.062 8.375 C-0.056 7.172 -0.056 7.172 -0.049 5.945 C-0.037 3.964 -0.019 1.982 0 0 Z " fill="#000000" transform="translate(666,175)"/>
<path d="M0 0 C2.062 0.438 2.062 0.438 4 1 C4.675 3.227 5.34 5.456 6 7.688 C6.371 8.929 6.742 10.17 7.125 11.449 C7.877 14.501 8.19 16.889 8 20 C6.02 20.99 6.02 20.99 4 22 C0.945 15.472 -1.687 8.331 -1 1 C-0.67 0.67 -0.34 0.34 0 0 Z " fill="#000000" transform="translate(714,186)"/>
<path d="M0 0 C6.157 2.419 8.611 7.998 11.559 13.523 C13.665 17.142 16.191 20.424 18.742 23.738 C20 26 20 26 19.695 28.293 C19.466 28.856 19.236 29.42 19 30 C16.781 30.398 16.781 30.398 14 30 C12.207 27.87 10.888 25.999 9.5 23.625 C9.112 22.99 8.724 22.354 8.324 21.699 C-0.075 7.765 -0.075 7.765 -1 1 C-0.67 0.67 -0.34 0.34 0 0 Z " fill="#000000" transform="translate(579,187)"/>
<path d="M0 0 C1.938 0.062 1.938 0.062 4 1 C5.375 3.812 5.375 3.812 6 7 C5.125 9.375 5.125 9.375 4 11 C0.125 10.125 0.125 10.125 -1 9 C-1.133 7.188 -1.133 7.188 -1.125 5 C-1.129 3.917 -1.129 3.917 -1.133 2.812 C-1 1 -1 1 0 0 Z " fill="#000000" transform="translate(754,187)"/>
<path d="M0 0 C5.086 2.928 9.017 7.242 12.625 11.812 C17.633 15.642 25.198 14.421 31.188 14.312 C44.382 14.273 52.86 18.951 62.562 27.688 C67.974 33.433 70.991 40.366 71.312 48.25 C70.998 54.095 68.931 57.179 64.891 61.363 C60.894 65.299 60.894 65.299 59.625 70.5 C60.45 72.654 61.358 74.776 62.312 76.875 C64.295 81.788 64.422 85.333 62.812 90.375 C56.114 100.321 46.246 104.917 34.75 107.438 C23.741 108.366 12.843 108.303 2.75 103.438 C1.759 102.963 0.767 102.489 -0.254 102 C-18.218 92.456 -30.046 74.286 -36.281 55.297 C-40.31 40.152 -39.301 25.154 -32.02 11.246 C-25.228 0.467 -12.194 -5.493 0 0 Z M-25 11.75 C-27.713 14.991 -29.946 18.389 -31.25 22.438 C-30.92 23.428 -30.59 24.417 -30.25 25.438 C-29.26 25.438 -28.27 25.438 -27.25 25.438 C-26.027 23.719 -24.809 21.998 -23.629 20.25 C-20.757 16.474 -16.773 14.603 -12.5 12.812 C-9.232 11.67 -9.232 11.67 -7.25 9.438 C-7.25 8.118 -7.25 6.798 -7.25 5.438 C-15.139 3.301 -19.057 6.753 -25 11.75 Z " fill="#000000" transform="translate(653.25,210.5625)"/>
<path d="M0 0 C0.99 0 1.98 0 3 0 C5.286 7.158 6.44 13.482 6 21 C4.125 21.625 4.125 21.625 2 22 C-1.125 18.875 -0.97 15.804 -1.133 11.484 C-1.13 10.252 -1.128 9.02 -1.125 7.75 C-1.129 5.886 -1.129 5.886 -1.133 3.984 C-1 1 -1 1 0 0 Z " fill="#000000" transform="translate(741,218)"/>
<path d="M0 0 C1.98 0.495 1.98 0.495 4 1 C3.67 2.32 3.34 3.64 3 5 C1.68 4.67 0.36 4.34 -1 4 C-0.67 2.68 -0.34 1.36 0 0 Z " fill="#000000" transform="translate(429,234)"/>
<path d="M0 0 C2.188 2.125 2.188 2.125 3.938 4.812 C6.839 7.795 8.608 7.779 12.629 8.131 C17.051 8.121 21.085 6.96 25.312 5.75 C41.921 1.191 56.679 1.153 73.203 6.012 C78.048 9.442 80.214 14.478 83 19.625 C87.786 28.137 92.34 36.089 99.188 43.125 C99.804 43.78 100.42 44.435 101.055 45.109 C107.206 51.082 115.727 55.6 124.25 56.812 C127.188 58.125 127.188 58.125 128.457 60.508 C133.947 75.057 134.214 91.648 127.934 105.988 C122.725 116.25 115.78 124.322 105.188 129.125 C102.095 130.105 98.991 131.028 95.879 131.944 C89.648 133.959 85.511 137.493 80.773 141.918 C76.143 145.87 71.698 146.771 65.727 146.621 C61.025 145.703 58.398 142.489 55.188 139.125 C48.627 132.3 44.345 128.386 34.738 127.551 C32.188 127.125 32.188 127.125 29.438 124.5 C29.025 123.716 28.612 122.933 28.188 122.125 C31.954 122.125 33.099 122.36 36.188 124.125 C39 116.78 39 116.78 40.188 109.125 C39.424 108.836 38.661 108.548 37.875 108.25 C35.188 107.125 35.188 107.125 32.188 105.125 C31.625 102.812 31.625 102.812 32.188 100.125 C35.476 96.837 38.596 94.245 43.188 93.125 C47 93.5 47 93.5 50.188 94.125 C49.692 95.61 49.692 95.61 49.188 97.125 C47.226 97.681 45.259 98.226 43.266 98.652 C40.783 99.217 38.517 100.106 36.188 101.125 C36.188 102.115 36.188 103.105 36.188 104.125 C37.332 104.496 37.332 104.496 38.5 104.875 C41.596 106.315 42.725 107.038 44.188 110.125 C44.011 115.606 42.952 119.318 40.188 124.125 C46.247 124.098 50.332 123.223 54.746 118.922 C58.575 114.148 59.846 108.55 59.594 102.496 C58.682 97.176 56.557 92.254 52.496 88.605 C47.47 85.636 42.432 85.815 36.727 86.082 C34.188 86.125 34.188 86.125 32.188 85.125 C32.188 85.785 32.188 86.445 32.188 87.125 C29.583 88.072 27.881 88.427 25.297 87.301 C23.562 86.296 21.871 85.214 20.188 84.125 C19.816 85.579 19.816 85.579 19.438 87.062 C18.188 90.125 18.188 90.125 16.438 91.312 C12.718 91.003 10.502 88.855 8.188 86.125 C4.228 79.34 4.363 72.004 6.188 64.562 C6.518 63.428 6.847 62.294 7.188 61.125 C6.651 61.512 6.115 61.898 5.562 62.297 C-5.736 69.805 -20.18 73.198 -33.598 70.582 C-38.456 69.287 -42.187 67.75 -45.812 64.125 C-47.428 60.893 -47.257 57.629 -46.812 54.125 C-45.287 49.757 -42.898 46.181 -40.062 42.562 C-37.458 39.009 -37.19 36.563 -37.812 32.125 C-38.585 30.226 -39.357 28.327 -40.133 26.43 C-41.829 20.678 -41.777 13.819 -39.625 8.188 C-35.839 1.791 -30.538 -2.383 -23.438 -4.625 C-14.79 -5.449 -7.416 -4.944 0 0 Z M-30.66 7.008 C-34.476 12.042 -35.64 16.299 -35.277 22.594 C-34.58 26.389 -33.464 28.322 -30.812 31.125 C-29.822 31.125 -28.832 31.125 -27.812 31.125 C-27.919 30.245 -28.026 29.364 -28.137 28.457 C-28.257 27.296 -28.376 26.134 -28.5 24.938 C-28.628 23.789 -28.755 22.64 -28.887 21.457 C-28.803 17.7 -28.038 16.097 -25.812 13.125 C-23.343 10.832 -21.315 9.931 -18.125 8.688 C-14.742 7.503 -14.742 7.503 -13.75 5.062 C-13.599 2.882 -13.599 2.882 -15.812 1.125 C-21.571 0.109 -26.724 2.997 -30.66 7.008 Z " fill="#000000" transform="translate(534.8125,260.875)"/>
<path d="M0 0 C0.75 1.625 0.75 1.625 1 4 C-0.938 7.25 -0.938 7.25 -3 10 C-3.99 9.67 -4.98 9.34 -6 9 C-2.25 2.25 -2.25 2.25 0 0 Z " fill="#000000" transform="translate(386,297)"/>
<path d="M0 0 C1.775 6.476 2.783 12.906 3.625 19.562 C3.826 21.066 3.826 21.066 4.031 22.6 C5.366 32.946 5.366 32.946 5 38 C2.411 40.589 0.815 40.539 -2.789 41.078 C-4.02 41.266 -5.251 41.455 -6.519 41.648 C-7.888 41.849 -9.256 42.05 -10.625 42.25 C-12.055 42.465 -13.485 42.682 -14.915 42.898 C-17.991 43.363 -21.069 43.823 -24.146 44.279 C-29.042 45.005 -33.935 45.744 -38.828 46.484 C-62.74 50.098 -86.666 53.625 -110.598 57.105 C-112.546 57.39 -114.495 57.674 -116.444 57.959 C-117.773 58.153 -119.101 58.347 -120.43 58.54 C-130.792 60.052 -141.141 61.637 -151.488 63.246 C-154.769 63.754 -158.05 64.262 -161.33 64.769 C-164.577 65.272 -167.823 65.778 -171.068 66.288 C-183.409 68.23 -195.728 70.123 -208.172 71.27 C-209.027 71.348 -209.882 71.427 -210.763 71.509 C-216.517 71.989 -222.228 72.08 -228 72 C-230.115 61.125 -232.137 50.272 -233.312 39.25 C-233.445 38.046 -233.445 38.046 -233.58 36.817 C-234.129 31.258 -234.129 31.258 -233 29 C-231.001 28.453 -231.001 28.453 -228.355 28.035 C-227.377 27.877 -226.399 27.719 -225.392 27.556 C-224.334 27.393 -223.277 27.23 -222.188 27.062 C-221.113 26.886 -220.039 26.709 -218.933 26.526 C-213.663 25.67 -208.408 24.907 -203.098 24.355 C-202.193 24.252 -201.289 24.148 -200.357 24.041 C-198.657 23.851 -196.953 23.692 -195.247 23.567 C-192.907 23.295 -191.124 23.025 -189 22 C-187.119 19.506 -185.991 16.951 -185 14 C-183.68 14 -182.36 14 -181 14 C-182.125 16.972 -183.223 19.334 -185 22 C-152.608 17.885 -152.608 17.885 -120.219 13.75 C-119.532 13.662 -118.846 13.575 -118.139 13.484 C-113.896 12.94 -109.655 12.382 -105.414 11.82 C-101.08 11.251 -96.746 10.754 -92.398 10.305 C-91.365 10.189 -90.332 10.073 -89.268 9.954 C-87.377 9.744 -85.485 9.553 -83.59 9.39 C-79.14 8.957 -79.14 8.957 -75.541 6.562 C-74.264 4.753 -74.264 4.753 -73 2 C-72.01 2.495 -72.01 2.495 -71 3 C-71.33 4.65 -71.66 6.3 -72 8 C-70.944 7.864 -69.889 7.728 -68.801 7.589 C-67.305 7.396 -65.809 7.204 -64.312 7.012 C-63.511 6.909 -62.71 6.806 -61.884 6.7 C-57.462 6.131 -53.039 5.564 -48.617 4.999 C-47.729 4.886 -46.84 4.772 -45.925 4.655 C-44.135 4.427 -42.345 4.198 -40.555 3.969 C-35.497 3.322 -30.439 2.666 -25.383 2 C-23.297 1.729 -21.211 1.458 -19.125 1.188 C-18.208 1.064 -17.292 0.94 -16.348 0.813 C-10.851 0.107 -5.543 -0.106 0 0 Z M-13.07 3.434 C-14.561 3.615 -14.561 3.615 -16.082 3.801 C-17.157 3.94 -18.232 4.079 -19.34 4.223 C-21.041 4.434 -21.041 4.434 -22.776 4.649 C-26.497 5.112 -30.217 5.587 -33.938 6.062 C-36.516 6.386 -39.095 6.71 -41.673 7.032 C-49.451 8.009 -57.226 9.001 -65 10 C-66.151 10.148 -67.301 10.295 -68.487 10.448 C-80.077 11.938 -91.664 13.446 -103.248 14.978 C-107.684 15.565 -112.12 16.146 -116.557 16.719 C-126.341 17.984 -136.12 19.281 -145.891 20.648 C-168.912 23.867 -191.931 26.929 -215.036 29.49 C-215.894 29.586 -216.751 29.682 -217.634 29.78 C-219.225 29.958 -220.815 30.132 -222.406 30.303 C-225.424 30.639 -228.109 31.036 -231 32 C-230.92 32.563 -230.839 33.126 -230.756 33.706 C-230.516 35.39 -230.275 37.074 -230.035 38.759 C-229.761 40.675 -229.486 42.592 -229.211 44.509 C-228.594 48.818 -227.979 53.128 -227.391 57.441 C-227.22 58.678 -227.05 59.914 -226.875 61.188 C-226.728 62.274 -226.581 63.361 -226.43 64.48 C-226.128 66.986 -226.128 66.986 -225 69 C-218.073 68.034 -211.154 67.042 -204.25 65.922 C-187.944 63.278 -171.615 60.986 -155.231 58.887 C-136.616 56.501 -118.025 53.96 -99.438 51.375 C-98.756 51.28 -98.075 51.186 -97.374 51.088 C-91.428 50.261 -85.483 49.434 -79.537 48.606 C-63.316 46.346 -47.091 44.108 -30.864 41.884 C-27.793 41.463 -24.722 41.04 -21.651 40.617 C-20.131 40.408 -18.61 40.2 -17.09 39.992 C-14.808 39.68 -12.527 39.366 -10.246 39.051 C-8.943 38.872 -7.641 38.693 -6.299 38.509 C-2.861 38.03 -2.861 38.03 1 37 C-0.98 20.665 -0.98 20.665 -3 4 C-7.107 3.179 -9.133 2.939 -13.07 3.434 Z " fill="#000000" transform="translate(446,315)"/>
<path d="M0 0 C4.047 2.165 5.328 4.403 6.688 8.625 C6.898 9.401 7.108 10.177 7.324 10.977 C7.898 13.196 7.898 13.196 10 15 C9.625 17.125 9.625 17.125 9 19 C8.051 18.814 7.103 18.629 6.125 18.438 C3.101 17.713 3.101 17.713 1 19 C-3.439 19.512 -5.535 19.271 -9.438 17 C-12.399 13.533 -12.399 13.533 -12.5 9.938 C-11.787 4.323 -11.787 4.323 -10 2 C-6.777 -0.302 -3.88 -0.475 0 0 Z M-6 4 C-5.67 4.66 -5.34 5.32 -5 6 C-2.473 6.656 -2.473 6.656 0 7 C-0.66 5.68 -1.32 4.36 -2 3 C-4.075 2.851 -4.075 2.851 -6 4 Z M-7 6 C-8.257 7.047 -8.257 7.047 -8.25 9.375 C-8.198 11.981 -8.198 11.981 -6.875 13.812 C-4.225 15.491 -2.068 15.205 1 15 C1 14.34 1 13.68 1 13 C-0.176 12.66 -0.176 12.66 -1.375 12.312 C-4 11 -4 11 -5.312 8.375 C-5.539 7.591 -5.766 6.808 -6 6 C-6.33 6 -6.66 6 -7 6 Z " fill="#000000" transform="translate(423,329)"/>
<path d="M0 0 C0.552 0.526 1.103 1.052 1.672 1.594 C2.306 2.14 2.94 2.687 3.594 3.25 C12.103 11.548 12.215 25.205 13.793 36.406 C13.979 37.695 14.165 38.984 14.357 40.312 C14.848 43.72 15.333 47.128 15.817 50.537 C16.296 53.905 16.782 57.273 17.268 60.641 C21.275 88.496 25.074 116.378 28.701 144.286 C28.989 146.508 29.279 148.73 29.568 150.951 C30.846 160.778 32.121 170.606 33.392 180.434 C33.666 182.545 33.939 184.655 34.212 186.766 C35.2 194.4 36.184 202.034 37.162 209.669 C37.455 211.953 37.749 214.237 38.044 216.521 C39.614 228.7 41.055 240.875 42.232 253.099 C42.949 260.53 43.83 267.943 44.703 275.357 C45.326 280.806 45.846 286.109 45.672 291.594 C46.323 291.463 46.975 291.333 47.646 291.198 C49.629 290.803 51.613 290.412 53.598 290.023 C55.922 289.565 58.245 289.099 60.566 288.624 C66.664 287.412 72.631 286.443 78.836 286.004 C89.869 285.545 89.869 285.545 99.561 281.014 C102.828 276.889 104.637 272.17 106.52 267.298 C108.661 262.272 111.591 257.692 114.422 253.031 C114.954 252.128 115.486 251.226 116.034 250.295 C116.806 248.987 116.806 248.987 117.594 247.652 C118.093 246.794 118.593 245.936 119.107 245.052 C120.672 242.594 120.672 242.594 122.504 240.458 C125.402 236.982 126.738 234.893 126.502 230.27 C125.728 226.415 124.729 222.671 123.609 218.906 C123.25 217.602 122.893 216.297 122.541 214.99 C121.887 212.586 121.216 210.187 120.523 207.794 C119.71 204.736 119.138 201.722 118.672 198.594 C117.763 199.282 117.763 199.282 116.836 199.984 C107.837 206.574 98.66 211.402 87.238 210.375 C76.727 208.67 67.733 203.545 60.672 195.594 C53.285 184.936 50.321 175.322 48.672 162.594 C47.599 162.532 46.527 162.47 45.422 162.406 C41.672 161.594 41.672 161.594 39.172 159.469 C37.672 156.594 37.672 156.594 37.547 153.031 C38.672 149.594 38.672 149.594 41.422 147.156 C44.582 145.637 46.242 145.19 49.672 145.594 C50.012 143.738 50.012 143.738 50.359 141.844 C52.395 132.742 56.272 124.182 61.672 116.594 C62.332 116.594 62.992 116.594 63.672 116.594 C62.979 121.349 61.174 125.462 59.297 129.844 C57.301 134.519 55.466 139.024 54.234 143.969 C52.672 147.594 52.672 147.594 50.789 148.793 C48.044 149.88 45.631 150.594 42.672 150.594 C43.002 152.904 43.332 155.214 43.672 157.594 C46.73 158.137 49.56 158.594 52.672 158.594 C52.903 159.61 53.133 160.625 53.371 161.672 C56.81 176.374 60.861 190.37 73.672 199.594 C82.099 204.428 90.086 205.956 99.734 203.906 C106.394 202.002 111.898 198.552 116.672 193.594 C117.662 193.594 118.652 193.594 119.672 193.594 C123.249 202.396 126.258 211.177 128.547 220.406 C128.762 221.272 128.977 222.137 129.198 223.028 C129.99 226.326 130.672 229.188 130.672 232.594 C143.88 233.299 154.481 233.673 165.031 224.555 C167.004 222.632 168.841 220.65 170.672 218.594 C171.998 217.253 173.33 215.918 174.672 214.594 C178.979 215.832 181.979 217.297 185.422 220.156 C186.283 220.87 187.144 221.585 188.031 222.32 C191.46 225.272 194.839 228.269 198.176 231.324 C199.808 232.809 201.462 234.271 203.137 235.707 C214.465 245.497 222.955 256.842 230.672 269.594 C231.134 270.336 231.596 271.078 232.072 271.843 C248.78 299.007 259.001 330.731 267.934 361.18 C270.894 371.238 274.208 381.137 277.672 391.031 C283.399 407.426 288.346 423.994 293.125 440.686 C294.581 445.765 296.059 450.837 297.547 455.906 C297.853 456.955 298.16 458.005 298.476 459.086 C300.469 465.815 302.612 472.485 304.836 479.141 C305.111 479.968 305.386 480.796 305.669 481.649 C307.032 485.75 308.408 489.846 309.812 493.933 C315.605 511.099 315.605 511.099 312.484 519.969 C309.806 523.847 307.148 526.102 302.672 527.594 C300.858 527.82 299.045 528.043 297.228 528.239 C276.804 530.452 261.552 539.284 246.734 553.156 C235.048 563.857 220.946 572.106 204.672 571.594 C192.742 569.915 184.911 563.382 177.234 554.531 C170.449 546.992 163.857 541.47 153.445 540.355 C143.963 540.062 137.495 543.059 130.047 548.781 C125.371 552.321 122.568 553.899 116.672 553.594 C112.866 551.987 110.883 550.024 108.672 546.594 C107.753 544.108 106.956 541.698 106.234 539.156 C106.023 538.426 105.812 537.695 105.595 536.942 C103.89 530.821 102.563 524.644 101.359 518.406 C101.188 517.522 101.017 516.638 100.84 515.727 C99.425 508.03 98.861 503.184 103.047 496.219 C103.406 495.614 103.764 495.008 104.134 494.385 C106.422 490.553 108.81 486.786 111.202 483.018 C131.869 450.421 147.922 414.967 157.672 377.594 C157.966 376.468 157.966 376.468 158.266 375.32 C159.654 369.996 159.654 369.996 160.672 364.594 C160.342 364.264 160.012 363.934 159.672 363.594 C159.54 364.318 159.408 365.043 159.272 365.79 C151.168 403.628 129.325 446.036 108.672 478.594 C108.054 479.575 107.437 480.556 106.8 481.566 C104.738 484.819 102.648 488.053 100.547 491.281 C99.902 492.286 99.256 493.291 98.592 494.327 C88.186 510.001 74.672 516.298 56.672 520.594 C52.356 521.416 48.187 521.774 43.797 521.91 C42.481 521.952 41.165 521.994 39.809 522.037 C38.786 522.066 38.786 522.066 37.744 522.096 C35.705 522.155 33.667 522.221 31.629 522.287 C8.983 522.999 -13.598 522.659 -35.891 518.219 C-36.882 518.022 -37.873 517.825 -38.894 517.622 C-55.684 514.034 -55.684 514.034 -60.766 509.344 C-61.281 508.436 -61.797 507.529 -62.328 506.594 C-62.988 505.48 -63.648 504.366 -64.328 503.219 C-71.546 488.155 -73.04 471.287 -68.359 455.281 C-63.668 442.854 -56.215 436.713 -44.469 431.375 C-31.163 425.576 -13.254 418.594 1.672 419.594 C2.332 420.254 2.992 420.914 3.672 421.594 C3.351 425.535 0.931 428.669 -1.078 431.969 C-6.175 440.596 -9.899 449.605 -11.328 459.594 C-6.847 455.655 -4.771 451.787 -2.453 446.344 C0.924 438.778 4.778 432.488 10.672 426.594 C12.797 426.969 12.797 426.969 14.672 427.594 C14.383 428.872 14.094 430.151 13.797 431.469 C13.616 432.296 13.436 433.124 13.25 433.977 C12.882 435.642 12.498 437.304 12.094 438.961 C10.509 445.866 10.473 452.531 10.672 459.594 C11.332 459.594 11.992 459.594 12.672 459.594 C14.46 453.836 16.089 448.053 17.609 442.219 C18.887 437.423 20.196 432.646 21.672 427.906 C21.961 426.974 22.249 426.042 22.547 425.082 C23.821 422.265 25.377 420.636 27.672 418.594 C28.992 419.254 30.312 419.914 31.672 420.594 C31.697 421.335 31.722 422.077 31.748 422.841 C31.864 426.196 31.986 429.551 32.109 432.906 C32.149 434.073 32.188 435.241 32.229 436.443 C32.27 437.562 32.312 438.68 32.355 439.832 C32.392 440.864 32.429 441.895 32.467 442.958 C32.573 445.701 32.573 445.701 33.672 448.594 C34.332 448.924 34.992 449.254 35.672 449.594 C35.698 448.403 35.723 447.212 35.75 445.984 C36.829 410.026 44.55 378.534 62.672 347.594 C64.362 344.699 66.049 341.803 67.734 338.906 C68.4 337.762 68.4 337.762 69.08 336.595 C73.5 328.961 77.781 321.252 82.047 313.531 C82.39 312.913 82.732 312.294 83.085 311.656 C90.746 300.146 90.746 300.146 94.672 287.594 C93.837 287.752 93.837 287.752 92.986 287.913 C81.509 290.076 70.037 292.064 58.464 293.642 C57.645 293.754 56.825 293.865 55.98 293.98 C55.267 294.075 54.553 294.17 53.818 294.268 C51.418 294.632 49.049 295.102 46.672 295.594 C46.719 296.606 46.719 296.606 46.767 297.638 C46.893 300.748 46.97 303.857 47.047 306.969 C47.097 308.03 47.147 309.091 47.199 310.184 C47.345 318.115 45.89 323.511 40.672 329.594 C33.873 336.304 24.819 337.58 15.797 339.344 C14.212 339.668 12.627 339.993 11.043 340.32 C7.55 341.036 4.054 341.736 0.556 342.427 C-4.784 343.482 -10.118 344.565 -15.452 345.65 C-20.111 346.596 -24.772 347.532 -29.433 348.464 C-31.736 348.925 -34.038 349.388 -36.339 349.853 C-39.585 350.506 -42.833 351.147 -46.082 351.785 C-47.06 351.984 -48.037 352.182 -49.044 352.387 C-49.947 352.561 -50.85 352.736 -51.78 352.916 C-52.565 353.072 -53.351 353.228 -54.16 353.388 C-56.475 353.608 -58.124 353.291 -60.328 352.594 C-60.328 351.274 -60.328 349.954 -60.328 348.594 C-47.112 345.281 -33.813 342.79 -20.391 340.469 C-17.398 339.947 -14.405 339.424 -11.412 338.899 C-9.571 338.577 -7.728 338.256 -5.886 337.937 C-0.762 337.046 4.341 336.08 9.438 335.041 C11.565 334.615 13.695 334.223 15.832 333.848 C26.475 332.028 26.475 332.028 36.672 328.594 C37.842 326.675 37.842 326.675 38.672 324.594 C39.445 323.356 39.445 323.356 40.234 322.094 C46.123 311.852 42.342 296.623 40.739 285.54 C40.536 284.126 40.536 284.126 40.328 282.684 C40.202 281.847 40.077 281.01 39.947 280.148 C39.638 277.281 39.628 274.475 39.672 271.594 C29.963 273.09 20.267 274.635 10.594 276.348 C9.758 276.496 8.922 276.644 8.06 276.796 C4.656 277.401 1.253 278.007 -2.15 278.617 C-11.649 280.315 -21.118 281.867 -30.691 283.082 C-35.201 283.717 -39.661 284.557 -44.131 285.423 C-51.444 286.83 -58.794 287.991 -66.15 289.156 C-77.97 291.03 -89.78 292.914 -101.51 295.301 C-105.802 296.164 -110.089 296.858 -114.426 297.457 C-123.881 298.777 -133.285 300.393 -142.696 301.998 C-145.821 302.53 -148.948 303.057 -152.074 303.584 C-161.548 305.19 -170.967 306.872 -180.348 308.957 C-185.043 309.96 -189.771 310.687 -194.516 311.406 C-207.027 313.351 -219.501 315.492 -231.975 317.663 C-232.714 317.791 -233.453 317.919 -234.214 318.051 C-236.238 318.402 -238.261 318.754 -240.285 319.106 C-243.328 319.594 -243.328 319.594 -245.328 319.594 C-245.248 320.302 -245.167 321.01 -245.084 321.739 C-244.705 325.086 -244.329 328.434 -243.953 331.781 C-243.747 333.612 -243.747 333.612 -243.537 335.48 C-242.603 343.879 -241.75 352.281 -241.063 360.704 C-240.495 367.18 -239.387 373.417 -237.328 379.594 C-230.428 380.783 -224.621 380.188 -217.727 379.074 C-213.524 378.48 -209.563 378.448 -205.328 378.594 C-205.328 379.584 -205.328 380.574 -205.328 381.594 C-211.481 383.571 -217.409 384.216 -223.832 384.717 C-228.462 385.15 -231.42 385.895 -235.328 388.594 C-242.357 390.783 -248.588 391.834 -255.578 389.074 C-256.285 388.799 -256.991 388.523 -257.719 388.239 C-258.25 388.026 -258.781 387.813 -259.328 387.594 C-259.475 388.693 -259.622 389.793 -259.773 390.926 C-261.22 400.777 -262.984 410.25 -270.328 417.594 C-271.648 417.594 -272.968 417.594 -274.328 417.594 C-273.308 414.702 -272.311 412.573 -270.391 410.156 C-264.306 401.212 -264.724 388.804 -266.328 378.594 C-267.724 372.09 -270.19 366.437 -273.328 360.594 C-274.151 360.859 -274.973 361.125 -275.82 361.398 C-291.507 366.362 -306.084 367.756 -322.453 367.656 C-323.901 367.651 -325.349 367.647 -326.797 367.643 C-330.307 367.632 -333.818 367.614 -337.328 367.594 C-337.971 369.328 -338.611 371.064 -339.25 372.801 C-339.607 373.767 -339.963 374.734 -340.331 375.73 C-341.58 379.317 -342.49 382.891 -343.328 386.594 C-337.098 388.232 -331.347 388.871 -324.918 388.789 C-323.639 388.785 -323.639 388.785 -322.333 388.78 C-319.644 388.769 -316.955 388.744 -314.266 388.719 C-312.428 388.709 -310.59 388.7 -308.752 388.691 C-304.277 388.67 -299.803 388.635 -295.328 388.594 C-295.328 389.584 -295.328 390.574 -295.328 391.594 C-312.676 395.609 -327.097 396.619 -344.328 391.594 C-343.998 394.564 -343.668 397.534 -343.328 400.594 C-342.52 400.571 -341.712 400.547 -340.879 400.523 C-339.81 400.505 -338.742 400.487 -337.641 400.469 C-336.585 400.446 -335.529 400.422 -334.441 400.398 C-331.306 400.595 -329.152 401.263 -326.328 402.594 C-326.658 403.914 -326.988 405.234 -327.328 406.594 C-332.315 407.923 -337.206 407.662 -342.328 407.594 C-340.678 411.224 -339.028 414.854 -337.328 418.594 C-335.822 418.47 -334.317 418.346 -332.766 418.219 C-326.61 418.155 -321.923 420.045 -316.457 422.635 C-312.899 424.326 -312.899 424.326 -309.102 423.988 C-307.195 422.489 -305.544 420.932 -303.891 419.156 C-297.445 412.629 -297.445 412.629 -291.578 412.531 C-286.4 413.327 -281.572 415.147 -276.677 416.947 C-270.099 419.362 -263.45 421.493 -256.766 423.594 C-225.115 433.616 -225.115 433.616 -222.203 438.469 C-222.425 442.243 -226.22 444.599 -228.921 447.023 C-230.692 448.58 -232.476 450.121 -234.266 451.656 C-235.6 452.803 -236.935 453.95 -238.27 455.098 C-238.944 455.677 -239.618 456.256 -240.313 456.852 C-242.257 458.532 -244.183 460.229 -246.105 461.934 C-262.796 476.663 -262.796 476.663 -271.715 476.156 C-277.515 474.908 -283.174 472.504 -288.328 469.594 C-288.823 468.109 -288.823 468.109 -289.328 466.594 C-287.557 467.072 -285.786 467.551 -284.016 468.031 C-283.029 468.298 -282.043 468.565 -281.027 468.84 C-279.113 469.375 -277.214 469.965 -275.328 470.594 C-267.988 471.799 -263.258 470.102 -257.234 465.906 C-253.441 462.888 -249.906 459.65 -246.402 456.302 C-241.759 451.887 -236.838 447.938 -231.733 444.071 C-228.552 441.757 -228.552 441.757 -226.328 438.594 C-227.161 438.329 -227.994 438.065 -228.852 437.793 C-231.312 436.944 -233.665 436.062 -236.055 435.051 C-236.694 434.782 -237.333 434.513 -237.992 434.236 C-239.31 433.678 -240.625 433.113 -241.938 432.541 C-244.576 431.444 -246.765 430.571 -249.648 430.688 C-251.851 431.876 -252.446 433.063 -253.578 435.281 C-256.285 439.991 -259.837 442.652 -264.328 445.594 C-260.863 447.079 -260.863 447.079 -257.328 448.594 C-257.658 449.914 -257.988 451.234 -258.328 452.594 C-261.958 451.934 -265.588 451.274 -269.328 450.594 C-265.863 452.079 -265.863 452.079 -262.328 453.594 C-262.658 454.914 -262.988 456.234 -263.328 457.594 C-268.299 457.182 -272.773 456.798 -277.328 454.594 C-277.328 455.254 -277.328 455.914 -277.328 456.594 C-275.678 456.924 -274.028 457.254 -272.328 457.594 C-272.658 458.584 -272.988 459.574 -273.328 460.594 C-278.954 460.722 -278.954 460.722 -281.285 459.925 C-283.385 459.373 -283.385 459.373 -285.263 460.626 C-285.923 461.157 -286.582 461.688 -287.262 462.234 C-287.993 462.811 -288.725 463.387 -289.479 463.98 C-290.233 464.595 -290.988 465.21 -291.766 465.844 C-303.979 475.594 -303.979 475.594 -307.953 475.594 C-311.086 474.275 -311.869 472.59 -313.328 469.594 C-311.348 466.954 -309.368 464.314 -307.328 461.594 C-308.425 461.135 -309.522 460.676 -310.652 460.203 C-312.107 459.584 -313.561 458.964 -315.016 458.344 C-315.737 458.043 -316.458 457.743 -317.201 457.434 C-321.433 455.617 -324.85 453.694 -328.328 450.594 C-328.105 441.885 -320.493 435.508 -314.613 429.809 C-314.189 429.408 -313.765 429.007 -313.328 428.594 C-315.983 427.236 -318.652 425.909 -321.328 424.594 C-322.153 424.181 -322.978 423.769 -323.828 423.344 C-328.177 422.039 -332.103 421.648 -336.305 423.434 C-341.886 426.736 -346.605 431.188 -351.328 435.594 C-349.547 439.156 -344.595 439.901 -340.963 441.207 C-336.903 442.739 -334.135 444.26 -331.328 447.594 C-336.656 447.028 -341.134 445.75 -346.078 443.719 C-347.066 443.334 -347.066 443.334 -348.074 442.941 C-351.39 441.603 -354.061 440.419 -356.328 437.594 C-355.078 433.941 -354.657 432.813 -351.328 430.594 C-359.17 431.135 -367.05 432.549 -374.328 435.594 C-375.868 437.791 -376.328 438.928 -376.328 441.594 C-374.808 441.723 -374.808 441.723 -373.258 441.855 C-359.879 443.182 -359.879 443.182 -355.328 448.594 C-354.689 449.646 -354.049 450.697 -353.391 451.781 C-350.757 455.373 -348.611 455.77 -344.328 456.594 C-344.658 457.254 -344.988 457.914 -345.328 458.594 C-349.331 459.671 -351.41 460.115 -355.078 458.031 C-357.516 455.39 -358.785 452.82 -360.328 449.594 C-364.443 446.851 -368.351 446.822 -373.199 446.254 C-376.423 445.574 -378.012 444.904 -380.328 442.594 C-380.828 439.656 -380.828 439.656 -380.328 436.594 C-374.529 429.445 -363.161 426.923 -354.328 425.594 C-352.724 425.464 -351.12 425.339 -349.516 425.219 C-346.219 424.913 -345.469 424.707 -342.766 422.531 C-342.291 421.892 -341.817 421.253 -341.328 420.594 C-341.947 419.439 -342.566 418.284 -343.203 417.094 C-347.949 407.519 -349.078 397.211 -347.344 386.73 C-347.156 385.576 -346.968 384.422 -346.774 383.233 C-346.627 382.362 -346.48 381.491 -346.328 380.594 C-347.416 380.801 -348.505 381.007 -349.626 381.22 C-353.718 381.996 -357.811 382.764 -361.904 383.53 C-363.666 383.86 -365.427 384.193 -367.188 384.528 C-376.882 386.37 -386.448 388.115 -396.328 388.594 C-396.328 387.274 -396.328 385.954 -396.328 384.594 C-392.394 383.21 -388.57 382.159 -384.469 381.41 C-383.361 381.207 -382.253 381.003 -381.112 380.794 C-379.363 380.478 -379.363 380.478 -377.578 380.156 C-376.381 379.932 -375.183 379.707 -373.949 379.476 C-368.54 378.473 -363.16 377.526 -357.691 376.918 C-349.934 376.416 -349.934 376.416 -343.559 372.691 C-342.518 370.429 -342.518 370.429 -341.965 368.008 C-340.431 362.192 -335.349 356.702 -330.328 353.594 C-324.554 351.669 -319.383 351.341 -313.328 351.594 C-312.833 353.079 -312.833 353.079 -312.328 354.594 C-316.097 356.478 -320.69 356.3 -324.848 356.703 C-329.046 357.463 -329.046 357.463 -333.328 362.594 C-324.418 362.594 -315.508 362.594 -306.328 362.594 C-307.978 359.294 -309.628 355.994 -311.328 352.594 C-312.42 349.032 -312.42 349.032 -313.117 345.734 C-313.41 344.471 -313.702 343.208 -314.003 341.907 C-314.156 341.246 -314.309 340.585 -314.467 339.903 C-319.262 319.597 -328.362 301.486 -338.399 283.29 C-339.245 281.745 -340.049 280.178 -340.848 278.608 C-341.337 277.944 -341.825 277.279 -342.328 276.594 C-344.397 276.662 -346.465 276.737 -348.531 276.855 C-358.972 275.879 -368.916 267.779 -375.445 260.105 C-377.447 257.63 -379.394 255.122 -381.328 252.594 C-382.01 251.791 -382.692 250.988 -383.395 250.16 C-385.463 247.415 -386.719 244.834 -388.016 241.656 C-388.432 240.657 -388.848 239.658 -389.277 238.629 C-393.081 227.641 -391.681 217.2 -387.328 206.594 C-385.531 203.42 -383.562 200.476 -381.328 197.594 C-377.403 201.044 -375.176 205.01 -372.703 209.531 C-372.309 210.234 -371.914 210.938 -371.508 211.662 C-369.497 215.286 -367.881 218.711 -366.328 222.594 C-372.928 221.604 -379.528 220.614 -386.328 219.594 C-386.328 220.254 -386.328 220.914 -386.328 221.594 C-385.774 221.71 -385.219 221.826 -384.647 221.945 C-382.124 222.473 -379.601 223.002 -377.078 223.531 C-376.205 223.714 -375.333 223.896 -374.434 224.084 C-373.589 224.261 -372.745 224.438 -371.875 224.621 C-371.1 224.783 -370.325 224.946 -369.526 225.113 C-368.438 225.351 -368.438 225.351 -367.328 225.594 C-366.628 225.693 -365.927 225.791 -365.205 225.893 C-362.54 226.888 -362.03 228.275 -360.75 230.777 C-360.312 231.622 -359.873 232.467 -359.422 233.338 C-358.978 234.227 -358.535 235.116 -358.078 236.031 C-357.619 236.916 -357.16 237.801 -356.688 238.713 C-353.328 245.277 -353.328 245.277 -353.328 247.594 C-366.198 245.119 -366.198 245.119 -379.328 242.594 C-379.328 243.254 -379.328 243.914 -379.328 244.594 C-377.635 245.017 -375.941 245.44 -374.248 245.862 C-372.791 246.227 -371.336 246.597 -369.881 246.972 C-366.526 247.83 -363.219 248.613 -359.805 249.211 C-354.785 250.134 -351.222 250.846 -348.203 255.156 C-347.215 256.953 -346.262 258.769 -345.328 260.594 C-344.569 261.918 -343.802 263.238 -343.031 264.555 C-338.253 272.797 -334.048 281.152 -330.302 289.91 C-328.035 295.16 -325.463 300.151 -322.703 305.156 C-318.243 313.372 -315.139 321.696 -312.328 330.594 C-311.988 331.65 -311.648 332.707 -311.298 333.795 C-310.171 337.308 -309.059 340.825 -307.953 344.344 C-307.595 345.475 -307.236 346.607 -306.867 347.773 C-306.537 348.843 -306.207 349.913 -305.867 351.016 C-305.57 351.97 -305.273 352.925 -304.967 353.909 C-304.332 356.576 -304.206 358.864 -304.328 361.594 C-302.869 361.453 -301.411 361.306 -299.953 361.156 C-299.141 361.075 -298.329 360.994 -297.492 360.91 C-295.285 360.703 -295.285 360.703 -293.328 359.594 C-292.618 357.113 -292.012 354.671 -291.453 352.156 C-287.249 334.84 -287.249 334.84 -283.027 332.102 C-278.684 330.236 -275.065 329.407 -270.328 329.594 C-270.328 332.564 -270.328 335.534 -270.328 338.594 C-271.71 339.006 -273.092 339.419 -274.516 339.844 C-278.461 341.161 -281.341 342.607 -284.328 345.594 C-284.658 346.584 -284.988 347.574 -285.328 348.594 C-284.214 348.738 -283.101 348.882 -281.953 349.031 C-277.682 350.041 -275.485 352.105 -272.391 355.156 C-268.634 358.712 -266.16 360.799 -260.899 360.77 C-257.899 360.564 -255.001 360.095 -252.039 359.582 C-250.967 359.398 -249.895 359.214 -248.791 359.025 C-247.572 358.811 -247.572 358.811 -246.328 358.594 C-247.447 343.9 -248.694 329.239 -250.328 314.594 C-250.558 312.507 -250.787 310.419 -251.016 308.332 C-252.011 299.289 -253.008 290.246 -254.082 281.211 C-255.617 268.274 -256.952 255.331 -258.135 242.357 C-258.8 235.091 -259.499 227.83 -260.266 220.574 C-260.387 219.42 -260.387 219.42 -260.512 218.242 C-260.594 217.464 -260.676 216.685 -260.761 215.882 C-262.775 196.794 -264.47 177.69 -266.021 158.559 C-266.101 157.57 -266.182 156.582 -266.264 155.564 C-266.413 153.726 -266.561 151.888 -266.707 150.049 C-267.116 144.961 -267.59 139.883 -268.108 134.805 C-268.362 132.25 -268.571 129.694 -268.758 127.133 C-269.695 114.668 -270.849 102.245 -272.216 89.82 C-273.359 79.42 -274.37 69.012 -275.328 58.594 C-281.731 58.381 -281.731 58.381 -287.828 60.094 C-289.561 60.836 -289.561 60.836 -291.328 61.594 C-291.489 73.379 -290.978 85.079 -290.328 96.844 C-289.141 118.494 -289.141 118.494 -289.328 127.594 C-289.988 127.594 -290.648 127.594 -291.328 127.594 C-292.438 124.265 -292.584 121.522 -292.758 118.016 C-292.83 116.631 -292.903 115.247 -292.976 113.863 C-293.051 112.357 -293.127 110.85 -293.203 109.344 C-293.727 99.199 -294.334 89.072 -295.195 78.949 C-295.268 78.076 -295.342 77.202 -295.417 76.302 C-295.705 72.874 -295.993 69.447 -296.311 66.021 C-298.163 46.054 -298.163 46.054 -293.641 37.344 C-289.317 32.202 -285.086 28.032 -278.328 26.594 C-275.493 26.424 -273.138 26.356 -270.408 27.159 C-267.988 27.665 -266.557 27.369 -264.177 26.744 C-259.39 25.579 -254.619 24.844 -249.738 24.191 C-248.846 24.069 -247.953 23.947 -247.033 23.821 C-244.153 23.429 -241.272 23.042 -238.391 22.656 C-236.377 22.384 -234.364 22.112 -232.351 21.84 C-221.436 20.372 -210.519 18.977 -199.572 17.769 C-189.986 16.7 -180.424 15.464 -170.859 14.227 C-149.914 11.52 -128.952 8.981 -107.978 6.516 C-93.979 4.871 -79.988 3.201 -66.016 1.344 C-7.92 -6.308 -7.92 -6.308 0 0 Z M-28.328 2.594 C-30.897 2.904 -33.465 3.206 -36.035 3.496 C-36.759 3.579 -37.484 3.661 -38.23 3.746 C-40.533 4.009 -42.837 4.27 -45.141 4.531 C-46.643 4.702 -48.145 4.874 -49.646 5.045 C-57.078 5.891 -64.511 6.727 -71.945 7.551 C-82.07 8.672 -92.192 9.819 -102.314 10.967 C-105.726 11.353 -109.138 11.74 -112.551 12.126 C-123.526 13.368 -134.501 14.612 -145.475 15.865 C-150.29 16.415 -155.105 16.963 -159.92 17.511 C-162.212 17.772 -164.505 18.034 -166.797 18.297 C-170.006 18.664 -173.216 19.03 -176.426 19.395 C-177.355 19.502 -178.284 19.609 -179.241 19.719 C-184.014 20.259 -188.784 20.724 -193.572 21.106 C-197.856 21.451 -202.078 21.941 -206.328 22.594 C-208.741 22.891 -211.155 23.179 -213.57 23.461 C-214.969 23.624 -216.368 23.788 -217.767 23.951 C-218.491 24.035 -219.216 24.12 -219.962 24.207 C-222.229 24.472 -224.496 24.741 -226.762 25.012 C-233.82 25.852 -240.875 26.663 -247.949 27.348 C-249.088 27.464 -250.227 27.581 -251.401 27.702 C-253.507 27.916 -255.615 28.113 -257.724 28.291 C-262.315 28.774 -264.712 29.116 -268.434 32.004 C-271.57 36.291 -271.463 39.651 -271.453 44.844 C-271.456 46.128 -271.458 47.412 -271.461 48.734 C-271.333 52.46 -270.927 55.923 -270.328 59.594 C-261.854 59.907 -253.721 58.836 -245.361 57.628 C-241.238 57.034 -237.111 56.463 -232.984 55.895 C-232.159 55.781 -231.334 55.667 -230.484 55.549 C-223.154 54.548 -215.814 53.722 -208.453 52.969 C-200.52 52.154 -192.607 51.282 -184.703 50.219 C-167.76 47.951 -150.777 46.004 -133.801 44.003 C-130.068 43.563 -126.336 43.122 -122.604 42.682 C-70.291 36.504 -70.291 36.504 -46.926 33.816 C-45.73 33.679 -44.535 33.541 -43.303 33.4 C-37.762 32.763 -32.221 32.128 -26.68 31.496 C-16.214 30.3 -5.763 29.044 4.672 27.594 C4.672 28.584 4.672 29.574 4.672 30.594 C3.535 30.574 2.398 30.554 1.226 30.534 C-3.305 30.537 -7.708 30.993 -12.199 31.555 C-13.077 31.661 -13.955 31.767 -14.859 31.876 C-17.829 32.235 -20.797 32.602 -23.766 32.969 C-25.914 33.231 -28.062 33.492 -30.21 33.753 C-36.46 34.515 -42.709 35.284 -48.958 36.055 C-53.67 36.636 -58.383 37.216 -63.095 37.795 C-103.265 42.734 -103.265 42.734 -143.428 47.731 C-144.155 47.822 -144.881 47.913 -145.63 48.006 C-149.008 48.429 -152.385 48.853 -155.763 49.277 C-165.677 50.52 -175.597 51.712 -185.52 52.883 C-189.662 53.38 -193.796 53.925 -197.93 54.488 C-208.172 55.864 -218.436 57.051 -228.7 58.253 C-232.151 58.657 -235.602 59.064 -239.053 59.471 C-241.276 59.732 -243.499 59.993 -245.723 60.254 C-247.248 60.434 -247.248 60.434 -248.804 60.617 C-254.316 61.261 -259.825 61.847 -265.353 62.324 C-267.4 62.496 -267.4 62.496 -269.328 63.594 C-269.412 70.053 -269.108 76.366 -268.523 82.797 C-268.439 83.755 -268.355 84.714 -268.269 85.701 C-268.001 88.749 -267.727 91.796 -267.453 94.844 C-267.277 96.841 -267.101 98.839 -266.926 100.836 C-265.996 111.378 -265.018 121.915 -264.004 132.449 C-263.383 138.93 -262.836 145.415 -262.328 151.906 C-261.694 159.772 -260.872 167.564 -259.832 175.387 C-258.92 182.615 -258.396 189.889 -257.793 197.148 C-257.363 202.303 -256.86 207.449 -256.328 212.594 C-255.338 212.594 -254.348 212.594 -253.328 212.594 C-252.998 212.594 -252.668 212.594 -252.328 212.594 C-252.827 213.127 -253.326 213.661 -253.84 214.211 C-255.808 217.362 -255.504 219.037 -255.141 222.719 C-255.016 224.095 -254.893 225.471 -254.77 226.848 C-254.696 227.61 -254.623 228.372 -254.547 229.157 C-254.32 231.685 -254.144 234.213 -253.98 236.746 C-252.848 253.717 -250.981 270.6 -249.093 287.5 C-247.002 306.243 -247.002 306.243 -246.328 315.594 C-239.181 315.012 -232.233 313.928 -225.203 312.531 C-224.247 312.345 -223.29 312.159 -222.305 311.967 C-219.978 311.513 -217.653 311.055 -215.328 310.594 C-214.998 308.614 -214.668 306.634 -214.328 304.594 C-213.668 304.924 -213.008 305.254 -212.328 305.594 C-212.658 306.584 -212.988 307.574 -213.328 308.594 C-208.871 309.948 -205.021 309.021 -200.543 308.152 C-199.23 307.908 -199.23 307.908 -197.891 307.66 C-196.002 307.308 -194.115 306.953 -192.228 306.594 C-187.198 305.638 -182.163 304.71 -177.129 303.777 C-176.116 303.589 -175.103 303.4 -174.059 303.206 C-165.37 301.59 -156.667 300.068 -147.953 298.594 C-145.125 298.114 -142.297 297.633 -139.469 297.152 C-138.749 297.03 -138.029 296.908 -137.288 296.782 C-128.404 295.271 -119.528 293.719 -110.651 292.17 C-95.459 289.521 -80.266 286.886 -65.065 284.29 C-62.491 283.85 -59.917 283.409 -57.343 282.968 C-50.06 281.723 -42.775 280.495 -35.477 279.34 C-33.761 279.066 -33.761 279.066 -32.011 278.786 C-29.962 278.461 -27.912 278.143 -25.86 277.835 C-23.671 277.487 -21.497 277.051 -19.328 276.594 C-18.998 275.934 -18.668 275.274 -18.328 274.594 C-17.183 274.903 -17.183 274.903 -16.016 275.219 C-11.94 275.633 -8.879 275.069 -4.895 274.262 C-0.349 273.41 4.216 272.787 8.797 272.156 C15.67 271.195 22.523 270.165 29.359 268.969 C30.072 268.846 30.784 268.723 31.518 268.596 C35.205 267.95 35.205 267.95 38.672 266.594 C37.103 252.797 35.353 239.031 33.422 225.281 C31.274 209.975 29.174 194.662 27.109 179.344 C26.959 178.229 26.809 177.114 26.654 175.965 C24.625 160.909 22.652 145.848 20.826 130.767 C20.685 129.607 20.544 128.448 20.398 127.254 C20.222 125.779 20.222 125.779 20.042 124.274 C19.684 121.685 19.184 119.155 18.672 116.594 C18.46 114.959 18.268 113.322 18.094 111.684 C17.934 110.227 17.934 110.227 17.772 108.741 C17.656 107.682 17.541 106.623 17.422 105.531 C16.028 93.09 14.338 80.702 12.583 68.308 C11.527 60.831 10.498 53.353 9.566 45.859 C9.479 45.161 9.392 44.463 9.302 43.744 C8.894 40.473 8.493 37.202 8.104 33.929 C6.975 18.844 6.975 18.844 -0.266 6.406 C-2.251 4.846 -2.251 4.846 -4.328 3.594 C-4.942 3.21 -5.555 2.825 -6.188 2.43 C-9.082 1.299 -11.541 1.366 -14.641 1.406 C-15.73 1.413 -16.819 1.419 -17.941 1.426 C-21.461 1.6 -24.841 2.089 -28.328 2.594 Z M-289.328 36.594 C-292.956 41.928 -293.86 46.213 -293.328 52.594 C-292.998 53.914 -292.668 55.234 -292.328 56.594 C-286.718 55.604 -281.108 54.614 -275.328 53.594 C-275.279 52.352 -275.23 51.111 -275.18 49.832 C-275.105 48.19 -275.029 46.548 -274.953 44.906 C-274.922 44.09 -274.891 43.273 -274.859 42.432 C-274.649 38.092 -274.311 34.551 -272.328 30.594 C-278.952 30.192 -284.655 31.795 -289.328 36.594 Z M-287.328 352.594 C-288.789 355.241 -289.328 356.488 -289.328 359.594 C-286.028 358.934 -282.728 358.274 -279.328 357.594 C-279.328 356.604 -279.328 355.614 -279.328 354.594 C-281.968 353.934 -284.608 353.274 -287.328 352.594 Z M-250.156 364.09 C-253.155 364.786 -256.005 364.687 -259.078 364.656 C-260.249 364.647 -261.419 364.638 -262.625 364.629 C-263.517 364.617 -264.409 364.606 -265.328 364.594 C-263.551 375.464 -263.551 375.464 -257.391 384.031 C-252.488 386.533 -248.874 386.886 -243.328 386.594 C-240.494 385.696 -240.494 385.696 -238.328 384.594 C-238.968 383.831 -239.607 383.067 -240.266 382.281 C-243.374 378.231 -243.545 374.89 -243.891 369.906 C-243.974 368.727 -244.058 367.547 -244.145 366.332 C-244.235 364.977 -244.235 364.977 -244.328 363.594 C-248 363.419 -248 363.419 -250.156 364.09 Z M-313.766 432.656 C-314.559 433.424 -315.353 434.191 -316.171 434.982 C-320.48 439.279 -323.422 442.783 -325.328 448.594 C-321.556 451.92 -317.716 453.9 -313.078 455.719 C-306.459 458.331 -306.459 458.331 -305.328 460.594 C-300.838 458.472 -297.115 455.624 -293.203 452.594 C-292.475 452.067 -291.746 451.539 -290.996 450.996 C-285.928 447.034 -284.334 443.917 -283.489 437.535 C-283.436 436.894 -283.383 436.254 -283.328 435.594 C-284.05 436.068 -284.772 436.543 -285.516 437.031 C-288.223 438.535 -290.29 439.16 -293.328 439.594 C-295.186 436.459 -295.53 434.219 -295.328 430.594 C-294.338 430.264 -293.348 429.934 -292.328 429.594 C-291.833 432.069 -291.833 432.069 -291.328 434.594 C-290.606 434.305 -289.884 434.016 -289.141 433.719 C-287.748 433.162 -287.748 433.162 -286.328 432.594 C-285.441 432.223 -284.554 431.851 -283.641 431.469 C-281.328 430.594 -281.328 430.594 -279.328 430.594 C-279.328 433.894 -279.328 437.194 -279.328 440.594 C-278.008 439.707 -276.688 438.82 -275.328 437.906 C-269.127 433.785 -269.127 433.785 -266.016 431.781 C-265.093 431.184 -265.093 431.184 -264.152 430.574 C-262.226 429.539 -260.463 429.032 -258.328 428.594 C-258.328 427.934 -258.328 427.274 -258.328 426.594 C-259.018 426.367 -259.709 426.14 -260.42 425.907 C-263.578 424.868 -266.734 423.825 -269.891 422.781 C-270.977 422.425 -272.063 422.068 -273.182 421.701 C-282.246 418.698 -282.246 418.698 -286.293 416.832 C-297.457 412.277 -306.494 425.533 -313.766 432.656 Z M-269.828 437.031 C-270.763 437.71 -270.763 437.71 -271.716 438.402 C-277.43 442.589 -282.888 447.059 -288.328 451.594 C-290.012 452.953 -291.699 454.307 -293.391 455.656 C-294.195 456.301 -294.999 456.945 -295.828 457.609 C-297.589 459.007 -299.361 460.391 -301.141 461.766 C-302.048 462.472 -302.956 463.178 -303.891 463.906 C-305.13 464.86 -305.13 464.86 -306.395 465.832 C-308.58 467.535 -308.58 467.535 -309.328 470.594 C-308.008 471.254 -306.688 471.914 -305.328 472.594 C-304.671 472.023 -304.013 471.452 -303.336 470.863 C-295.039 463.792 -286.315 457.445 -277.448 451.113 C-274.451 448.965 -271.478 446.789 -268.516 444.594 C-267.622 443.934 -266.729 443.274 -265.809 442.594 C-263.12 440.426 -260.728 438.075 -258.328 435.594 C-258.988 434.604 -259.648 433.614 -260.328 432.594 C-264.434 432.594 -266.648 434.687 -269.828 437.031 Z " fill="#000000" transform="translate(450.328125,218.40625)"/>
<path d="M0 0 C1.817 5.061 0.416 8.617 -1.656 13.301 C-7.854 25.75 -16.498 35.642 -28.25 43.062 C-32.111 45.649 -32.111 45.649 -33.648 49.863 C-33.627 52.634 -33.342 55.255 -33 58 C-33.33 58.66 -33.66 59.32 -34 60 C-34.99 60 -35.98 60 -37 60 C-39.201 42.359 -36.514 25.608 -26 11 C-19.929 3.708 -10.183 -5.092 0 0 Z M-24.246 14.684 C-29.867 22.107 -33.337 31.637 -33 41 C-20.247 33.912 -9.547 21.406 -4 8 C-3.66 5.163 -3.66 5.163 -4 3 C-13.002 1.875 -18.854 8.278 -24.246 14.684 Z " fill="#000000" transform="translate(768,340)"/>
<path d="M0 0 C1.591 0.101 1.591 0.101 3.215 0.203 C6.242 0.784 7.214 1.354 9.062 3.75 C5.27 4.686 2.126 4.733 -1.75 4.312 C-2.726 4.211 -3.702 4.109 -4.707 4.004 C-5.443 3.92 -6.179 3.836 -6.938 3.75 C-7.268 2.76 -7.597 1.77 -7.938 0.75 C-5.159 -0.639 -3.084 -0.224 0 0 Z " fill="#000000" transform="translate(526.9375,341.25)"/>
<path d="M0 0 C10.207 3.75 17.585 11.154 22.211 20.883 C26.691 32.903 26.211 45.925 22 58 C19.203 64.023 16.113 69.771 12 75 C12.33 75.66 12.66 76.32 13 77 C13.199 78.555 13.345 80.117 13.465 81.68 C13.542 82.656 13.618 83.633 13.697 84.64 C13.777 85.707 13.856 86.775 13.938 87.875 C14.066 89.546 14.066 89.546 14.197 91.251 C14.471 94.834 14.737 98.417 15 102 C15.084 103.14 15.168 104.281 15.254 105.456 C16.56 123.3 17.778 141.15 19 159 C18.01 159.33 17.02 159.66 16 160 C13.775 145.227 12.999 130.335 12.067 115.437 C11.766 110.639 11.462 105.841 11.153 101.043 C10.989 98.502 10.829 95.96 10.672 93.417 C10.598 92.268 10.525 91.119 10.449 89.935 C10.386 88.931 10.323 87.926 10.259 86.892 C9.99 83.891 9.532 80.964 9 78 C8.31 78.592 7.621 79.183 6.91 79.793 C-7.607 92 -7.607 92 -13 92 C-12.885 90.249 -12.758 88.499 -12.625 86.75 C-12.555 85.775 -12.486 84.801 -12.414 83.797 C-12.013 81.088 -11.223 79.404 -10 77 C-10.495 76.01 -10.495 76.01 -11 75 C-10.858 66.666 -10.513 56.1 -4.625 49.812 C-3.105 48.84 -1.56 47.907 0 47 C2.205 45.331 4.388 43.645 6.562 41.938 C7.681 41.083 8.801 40.231 9.922 39.379 C13.393 36.696 16.714 33.904 20 31 C15.9 32.398 13.107 34.332 9.812 37.125 C8.862 37.92 7.912 38.716 6.934 39.535 C5.481 40.755 5.481 40.755 4 42 C2.13 43.527 0.256 45.049 -1.625 46.562 C-2.442 47.224 -3.26 47.885 -4.102 48.566 C-6 50 -6 50 -7 50 C-7.177 41.622 -6.623 33.349 -6 25 C-6.504 29.083 -7.002 33.166 -7.5 37.25 C-7.643 38.409 -7.786 39.568 -7.934 40.762 C-8.069 41.877 -8.204 42.992 -8.344 44.141 C-8.469 45.167 -8.595 46.193 -8.725 47.251 C-9.066 50.203 -9.066 50.203 -9 54 C-9.309 56.229 -9.655 58.452 -10.023 60.672 C-10.13 61.313 -10.236 61.954 -10.345 62.615 C-10.571 63.97 -10.798 65.325 -11.026 66.68 C-11.371 68.728 -11.709 70.778 -12.047 72.828 C-13.122 79.292 -14.265 85.677 -16 92 C-27.041 87.465 -32.752 79.02 -37.586 68.418 C-42.362 56.874 -41.535 45.735 -37.289 34.082 C-31.549 20.359 -17.401 -1.164 0 0 Z M-27 23 C-25.508 28.437 -22.899 32.691 -19.875 37.375 C-19.407 38.111 -18.939 38.847 -18.457 39.605 C-17.31 41.407 -16.156 43.204 -15 45 C-14.67 44.34 -14.34 43.68 -14 43 C-14.755 41.053 -14.755 41.053 -15.984 38.938 C-16.425 38.141 -16.866 37.344 -17.32 36.523 C-17.792 35.691 -18.264 34.858 -18.75 34 C-19.206 33.167 -19.663 32.335 -20.133 31.477 C-22.8 26.581 -22.8 26.581 -27 23 Z M-14 45 C-13 47 -13 47 -13 47 Z " fill="#000000" transform="translate(158,349)"/>
<path d="M0 0 C1.65 0.33 3.3 0.66 5 1 C5.293 6.673 5.006 9.991 2 15 C0.68 14.67 -0.64 14.34 -2 14 C-2.369 4.59 -2.369 4.59 0 0 Z " fill="#000000" transform="translate(521,353)"/>
<path d="M0 0 C2.741 2.251 3.05 4.226 3.812 7.688 C4.899 21.691 2.041 35.881 -6.75 47 C-7.343 47.681 -7.936 48.361 -8.547 49.062 C-11.349 52.799 -11.103 56.451 -11 61 C-8.286 58.381 -5.951 55.7 -3.688 52.688 C5.869 40.685 22.247 21.04 38.449 18.637 C39.188 18.653 39.926 18.67 40.688 18.688 C41.434 18.691 42.18 18.695 42.949 18.699 C45 19 45 19 48 21 C49.22 24.515 49.525 26.841 47.965 30.285 C41.242 41.024 32.421 43.777 20.434 46.605 C16.288 47.278 12.193 47.056 8 47 C9.32 51.29 10.64 55.58 12 60 C13.65 59.67 15.3 59.34 17 59 C19.518 58.859 22.04 58.78 24.562 58.75 C25.863 58.724 27.164 58.698 28.504 58.672 C32.105 59.01 33.446 59.53 36 62 C36.062 64.562 36.062 64.562 35 68 C28.444 74.79 19.17 79.687 9.688 80.168 C8.471 80.174 7.254 80.181 6 80.188 C4.175 80.209 4.175 80.209 2.312 80.23 C-0.772 80.016 -2.427 79.628 -5 78 C-5.061 78.953 -5.121 79.905 -5.184 80.887 C-5.267 82.141 -5.351 83.395 -5.438 84.688 C-5.519 85.929 -5.6 87.17 -5.684 88.449 C-5.945 91.382 -6.348 94.134 -7 97 C-6.01 96.34 -5.02 95.68 -4 95 C-0.573 95.09 0.843 95.87 3.5 98.062 C14.473 110.956 14.987 125.733 14 142 C13.351 147.405 12.243 152.704 11 158 C11.753 157.965 12.506 157.93 13.281 157.895 C24.916 157.598 37.105 158.37 47 165 C48.923 167.82 50.086 170.603 49.871 174.086 C49 176 49 176 46.848 177.195 C37.844 180.201 29.532 182.353 20 182 C20 180.35 20 178.7 20 177 C24.76 174.733 29.65 174.13 34.812 173.375 C36.138 173.174 36.138 173.174 37.49 172.969 C39.659 172.64 41.829 172.318 44 172 C43.712 170.044 43.712 170.044 43 168 C33.068 162.261 20.179 162.58 9 162 C8.897 162.928 8.794 163.856 8.688 164.812 C7.972 168.13 7.746 169.135 5 171 C-2.862 173.714 -10.741 174.447 -19 174 C-19.33 173.01 -19.66 172.02 -20 171 C-16.73 170.329 -13.459 169.664 -10.188 169 C-9.259 168.809 -8.33 168.618 -7.373 168.422 C-6.48 168.241 -5.588 168.061 -4.668 167.875 C-3.846 167.707 -3.024 167.54 -2.177 167.367 C0 167 0 167 3 167 C4.204 162.342 5.379 157.679 6.513 153.003 C6.903 151.397 7.305 149.794 7.711 148.191 C10.585 135.176 11.287 118.148 4.465 106.344 C3.044 104.167 1.577 102.066 0 100 C-1.98 100.495 -1.98 100.495 -4 101 C-3.948 102.576 -3.948 102.576 -3.895 104.184 C-3.714 112.099 -3.826 118.593 -7 126 C-5.763 126.206 -4.525 126.413 -3.25 126.625 C0.217 127.499 0.987 127.986 3.562 130.75 C5 134 5 134 5.188 137 C3.321 141.715 -0.499 144.749 -5 147 C-11.345 147.461 -11.345 147.461 -13.707 145.797 C-15.421 143.414 -15.337 141.909 -15.25 139 C-15.235 138.134 -15.219 137.268 -15.203 136.375 C-15 134 -15 134 -14 131 C-15.429 130.87 -15.429 130.87 -16.887 130.738 C-18.768 130.528 -18.768 130.528 -20.688 130.312 C-21.929 130.185 -23.17 130.057 -24.449 129.926 C-28.67 128.825 -30.317 127.39 -33 124 C-34.102 116.835 -31.15 110.301 -28 104 C-32.29 103.67 -36.58 103.34 -41 103 C-42.671 105.722 -42.671 105.722 -44.375 108.5 C-45.523 110.371 -46.72 112.216 -48 114 C-48.66 114 -49.32 114 -50 114 C-51 111 -51 111 -49.961 108.914 C-44.068 100.408 -44.068 100.408 -40 97 C-39.01 97 -38.02 97 -37 97 C-37 97.66 -37 98.32 -37 99 C-28.615 101.609 -18.571 100.182 -10 99 C-11.236 95.293 -12.967 94.351 -16 92 C-16.33 91.34 -16.66 90.68 -17 90 C-18.949 89.814 -18.949 89.814 -20.938 89.625 C-31.496 88.589 -38.935 83.813 -46 76 C-49.443 71.19 -50.719 66.989 -50 61 C-47.65 58.65 -47.081 58.681 -43.875 58.625 C-36.11 58.812 -30.526 62.869 -25 68 C-24.34 68.99 -23.68 69.98 -23 71 C-22.01 67.7 -21.02 64.4 -20 61 C-21.65 60.67 -23.3 60.34 -25 60 C-32.384 55.427 -36.289 48.678 -38.746 40.523 C-40.411 33.292 -41.276 25.572 -38.75 18.5 C-35.794 14.277 -35.794 14.277 -33 13 C-29.428 13.595 -27.512 14.518 -24.875 17 C-22.306 21.11 -20.658 25.458 -19 30 C-18.608 28.783 -18.216 27.566 -17.812 26.312 C-8.647 -1.055 -8.647 -1.055 0 0 Z M-4 5 C-9.098 10.412 -10.758 17.066 -13 24 C-13.505 25.506 -13.505 25.506 -14.02 27.043 C-16.062 33.656 -16.959 39.797 -13.949 46.254 C-13.479 47.118 -13.479 47.118 -13 48 C-3.349 37.277 -0.593 23.634 -0.797 9.582 C-0.836 7.015 -0.836 7.015 -2 5 C-2.66 5 -3.32 5 -4 5 Z M-34 19 C-37.475 26.534 -36.969 35.022 -34.438 42.812 C-31.893 48.984 -28.209 54.209 -22.312 57.5 C-19.743 58.141 -19.743 58.141 -16 58 C-16.57 50.926 -18.537 44.639 -20.812 37.938 C-21.156 36.888 -21.5 35.838 -21.854 34.756 C-23.751 29.098 -25.812 24.05 -29 19 C-30.65 19 -32.3 19 -34 19 Z M11 43 C22.234 42.558 33.845 40.364 42 32 C43.884 28.844 44.204 26.673 44 23 C30.853 20.908 19.398 34.545 11 43 Z M3 50 C1.119 52.033 -0.699 54.085 -2.5 56.188 C-3.012 56.766 -3.524 57.344 -4.051 57.939 C-6.833 61.188 -8.753 63.569 -9 68 C-8.731 70.342 -8.41 72.679 -8 75 C-7.443 74.443 -6.886 73.886 -6.312 73.312 C-5.549 72.549 -4.786 71.786 -4 71 C-3.216 70.175 -2.433 69.35 -1.625 68.5 C1.12 65.886 3.801 64.009 7 62 C6.01 58.04 5.02 54.08 4 50 C3.67 50 3.34 50 3 50 Z M-17 61 C-17.133 61.735 -17.266 62.47 -17.402 63.227 C-18 66 -18 66 -18.816 68.148 C-20.325 72.651 -20.344 75.688 -18.348 79.984 C-16.398 83.759 -14.242 87.392 -12 91 C-11.67 91 -11.34 91 -11 91 C-10.534 80.924 -11.889 71.788 -14 62 C-14.99 61.67 -15.98 61.34 -17 61 Z M-1 72 C-0.67 72.99 -0.34 73.98 0 75 C7.768 77.589 14.712 75.148 22 72 C24.929 70.282 27.709 68.527 30 66 C30 65.01 30 64.02 30 63 C21.219 58.61 5.199 65.368 -1 72 Z M-45 63 C-45.897 64.643 -45.897 64.643 -46 67 C-42.864 74.412 -36.655 80.516 -29.375 84 C-25.749 85.074 -22.761 85.23 -19 85 C-24.171 76.209 -29.905 66.589 -40 63 C-42.751 62.747 -42.751 62.747 -45 63 Z M-24 104 C-28.15 108.544 -29.879 114.925 -30 121 C-29.4 123.372 -29.4 123.372 -28 125 C-24.44 126.187 -21.562 126.097 -17.812 126.062 C-16.54 126.053 -15.268 126.044 -13.957 126.035 C-12.981 126.024 -12.005 126.012 -11 126 C-10.526 124.928 -10.051 123.855 -9.562 122.75 C-9.296 122.147 -9.029 121.543 -8.754 120.922 C-7.372 117.398 -6.862 114.283 -6.875 110.5 C-6.872 109.747 -6.87 108.994 -6.867 108.219 C-6.998 106.026 -7.397 104.107 -8 102 C-13.52 102 -18.745 102.176 -24 104 Z M-9 130 C-11.393 134.188 -12.551 137.153 -12 142 C-11.34 142.66 -10.68 143.32 -10 144 C-5.628 143.764 -3.056 142.056 0 139 C1.148 136.517 1.148 136.517 1 134 C0.09 132.087 0.09 132.087 -2 131 C-5.61 130.27 -5.61 130.27 -9 130 Z " fill="#000000" transform="translate(727,360)"/>
<path d="M0 0 C6.87 6.071 10.369 12.832 13.688 21.375 C13.688 22.365 13.688 23.355 13.688 24.375 C18.308 23.385 22.928 22.395 27.688 21.375 C29.635 25.271 30.305 28.07 31.02 32.324 C31.136 33.006 31.253 33.688 31.374 34.39 C31.624 35.854 31.872 37.317 32.117 38.782 C32.763 42.63 33.43 46.475 34.098 50.32 C34.231 51.09 34.364 51.86 34.502 52.654 C35.712 59.602 37.041 66.524 38.438 73.438 C38.636 74.421 38.834 75.405 39.038 76.419 C39.321 77.807 39.321 77.807 39.609 79.223 C39.785 80.088 39.961 80.953 40.143 81.844 C40.513 83.563 40.914 85.275 41.342 86.98 C41.544 87.79 41.745 88.599 41.953 89.434 C42.236 90.504 42.236 90.504 42.524 91.595 C42.578 92.183 42.632 92.77 42.688 93.375 C40.132 95.93 38.342 96.084 34.82 96.855 C33.588 97.129 32.356 97.403 31.086 97.685 C29.733 97.978 28.38 98.27 27.027 98.562 C25.639 98.868 24.251 99.174 22.863 99.481 C19.2 100.289 15.536 101.088 11.87 101.886 C8.171 102.692 4.473 103.506 0.775 104.32 C-5.844 105.776 -12.465 107.225 -19.087 108.667 C-21.91 109.287 -24.728 109.926 -27.545 110.57 C-33.415 111.824 -33.415 111.824 -36.312 110.375 C-38.873 105.273 -40.129 100.344 -41.125 94.75 C-41.284 93.887 -41.443 93.024 -41.606 92.135 C-43.365 82.4 -44.96 72.636 -46.562 62.875 C-46.699 62.048 -46.836 61.221 -46.977 60.369 C-47.369 57.986 -47.756 55.603 -48.141 53.219 C-48.259 52.502 -48.378 51.785 -48.5 51.046 C-49.083 47.392 -49.312 44.105 -49.312 40.375 C-44.033 39.055 -38.752 37.735 -33.312 36.375 C-33.519 34.787 -33.725 33.199 -33.938 31.562 C-34.774 21.676 -33.268 14.431 -27.176 6.473 C-20.447 -1.103 -9.356 -4.59 0 0 Z M-16.312 4.375 C-15.576 4.594 -14.84 4.813 -14.082 5.039 C-7.866 7.059 -3.849 8.587 -0.312 14.375 C3.688 22.865 3.688 22.865 3.688 27.375 C5.998 26.715 8.308 26.055 10.688 25.375 C9.948 23.163 9.196 20.956 8.438 18.75 C8.02 17.52 7.602 16.29 7.172 15.023 C4.782 9.148 2.205 4.964 -3.445 2.066 C-8.709 0.117 -12.154 0.96 -16.312 4.375 Z M-19.949 9.582 C-24.417 15.458 -23.431 24.459 -22.602 31.355 C-22.506 32.022 -22.411 32.688 -22.312 33.375 C-14.405 32.73 -6.921 30.505 0.688 28.375 C-0.437 21.29 -2.503 15.817 -7.312 10.375 C-11.097 8.007 -16.093 6.738 -19.949 9.582 Z M-26.312 10.375 C-29.4 18.921 -30.902 26.283 -30.312 35.375 C-28.332 35.045 -26.353 34.715 -24.312 34.375 C-24.556 33.354 -24.556 33.354 -24.805 32.312 C-25.386 28.952 -25.445 25.784 -25.438 22.375 C-25.44 21.179 -25.443 19.983 -25.445 18.75 C-25.33 15.822 -24.991 13.217 -24.312 10.375 C-24.973 10.375 -25.632 10.375 -26.312 10.375 Z M20.688 37.375 C19.697 38.035 18.707 38.695 17.688 39.375 C17.437 41.959 17.437 41.959 17.688 44.375 C19.337 44.045 20.988 43.715 22.688 43.375 C23.017 42.055 23.347 40.735 23.688 39.375 C22.697 38.715 21.707 38.055 20.688 37.375 Z M-16.312 42.375 C-19.37 46.341 -19.994 50.337 -20.5 55.188 C-20.582 55.88 -20.664 56.573 -20.748 57.287 C-20.947 58.982 -21.131 60.678 -21.312 62.375 C-22.079 61.546 -22.846 60.717 -23.637 59.863 C-24.52 59.042 -25.403 58.221 -26.312 57.375 C-29.073 57.425 -29.073 57.425 -31.312 58.375 C-31.042 60.812 -31.042 60.812 -30.312 63.375 C-27.413 65.643 -27.413 65.643 -23.75 65.75 C-22.616 65.956 -21.481 66.163 -20.312 66.375 C-19.098 68.414 -19.098 68.414 -18.312 70.375 C-20.708 71.023 -23.104 71.668 -25.5 72.312 C-26.174 72.495 -26.847 72.677 -27.541 72.865 C-31.114 73.824 -34.674 74.704 -38.312 75.375 C-38.539 81.538 -37.754 86.895 -36.312 92.875 C-36.122 93.697 -35.931 94.52 -35.734 95.367 C-35.268 97.372 -34.791 99.374 -34.312 101.375 C-31.845 98.123 -29.559 94.784 -27.312 91.375 C-23.808 92.353 -21.472 93.245 -18.625 95.562 C-17.862 96.161 -17.099 96.759 -16.312 97.375 C-13.169 96.7 -13.169 96.7 -12.066 94.16 C-11.274 92.348 -10.482 90.536 -9.691 88.723 C-8.312 86.375 -8.312 86.375 -6.574 84.816 C-3.502 84.217 -1.896 85.406 0.66 87.043 C1.247 87.441 1.833 87.84 2.438 88.25 C3.039 88.641 3.641 89.031 4.262 89.434 C5.746 90.4 7.218 91.386 8.688 92.375 C12.103 89.323 13.869 85.557 15.992 81.555 C17.688 79.375 17.688 79.375 20 78.328 C23.848 78.395 25.726 80.014 28.812 82.25 C32.998 85.305 32.998 85.305 37.688 87.375 C36.994 81.127 35.891 75.031 34.625 68.875 C34.439 67.957 34.252 67.039 34.061 66.094 C33.606 63.854 33.148 61.614 32.688 59.375 C27.437 59.973 22.354 60.795 17.188 61.938 C15.96 62.207 14.733 62.476 13.469 62.754 C12.551 62.959 11.633 63.164 10.688 63.375 C11.666 59.378 12.711 56.136 14.875 52.625 C15.473 51.553 16.071 50.48 16.688 49.375 C16.192 47.89 16.192 47.89 15.688 46.375 C12.151 48.05 10.896 48.868 9.375 52.562 C9.148 53.491 8.921 54.419 8.688 55.375 C8.028 53.065 7.368 50.755 6.688 48.375 C5.038 48.705 3.387 49.035 1.688 49.375 C2.989 53.455 2.989 53.455 4.688 57.375 C5.347 57.375 6.007 57.375 6.688 57.375 C7.183 60.84 7.183 60.84 7.688 64.375 C-0.233 66.355 -8.153 68.335 -16.312 70.375 C-17.74 64.667 -18.774 57.776 -16.383 52.211 C-16.009 51.626 -15.635 51.04 -15.25 50.438 C-12.999 47.562 -12.999 47.562 -13.562 44.438 C-13.81 43.757 -14.058 43.076 -14.312 42.375 C-14.972 42.375 -15.632 42.375 -16.312 42.375 Z M21.688 82.375 C19.903 84.466 19.903 84.466 18.25 87.125 C15.981 90.597 13.713 93.529 10.688 96.375 C6.395 94.852 2.598 92.679 -1.324 90.398 C-3.236 89.222 -3.236 89.222 -5.312 89.375 C-6.597 91.327 -7.792 93.338 -8.938 95.375 C-9.569 96.489 -10.201 97.602 -10.852 98.75 C-11.334 99.616 -11.816 100.483 -12.312 101.375 C-15.975 100.819 -18.442 99.889 -21.5 97.812 C-24.175 95.864 -24.175 95.864 -27.312 95.375 C-28.318 97.164 -29.316 98.956 -30.312 100.75 C-30.869 101.748 -31.426 102.745 -32 103.773 C-33.463 106.187 -33.463 106.187 -33.312 108.375 C-23.145 106.916 -13.269 104.532 -3.312 102.062 C-1.662 101.656 -0.011 101.25 1.64 100.844 C4.866 100.049 8.091 99.253 11.315 98.454 C15.022 97.537 18.733 96.636 22.445 95.742 C24.234 95.307 26.023 94.873 27.812 94.438 C28.598 94.251 29.383 94.064 30.191 93.872 C33.509 93.055 35.81 92.293 38.688 90.375 C37.928 89.965 37.169 89.555 36.387 89.133 C35.393 88.594 34.399 88.055 33.375 87.5 C32.389 86.966 31.403 86.433 30.387 85.883 C27.688 84.375 27.688 84.375 24.688 82.375 C23.697 82.375 22.707 82.375 21.688 82.375 Z " fill="#000000" transform="translate(404.3125,383.625)"/>
<path d="M0 0 C7.321 6.81 11.73 14.71 13.688 24.5 C23.587 24.005 23.587 24.005 33.688 23.5 C36.452 37.744 39.027 52.004 41.407 66.317 C41.946 69.554 42.493 72.788 43.039 76.023 C43.386 78.099 43.732 80.174 44.078 82.25 C44.241 83.208 44.403 84.167 44.57 85.154 C44.718 86.047 44.865 86.939 45.017 87.859 C45.147 88.638 45.277 89.416 45.411 90.218 C45.708 92.666 45.734 95.037 45.688 97.5 C39.028 99.988 32.486 101.378 25.469 102.438 C24.412 102.604 23.355 102.77 22.266 102.941 C18.908 103.468 15.548 103.984 12.188 104.5 C8.866 105.016 5.544 105.535 2.222 106.054 C0.066 106.391 -2.091 106.726 -4.248 107.059 C-9.017 107.8 -13.775 108.567 -18.52 109.453 C-19.301 109.599 -20.083 109.744 -20.888 109.894 C-22.928 110.281 -24.965 110.681 -27.002 111.082 C-30.141 111.478 -32.29 111.347 -35.312 110.5 C-37.183 104.55 -38.229 98.594 -39.188 92.438 C-39.357 91.361 -39.526 90.284 -39.7 89.174 C-45.751 50.09 -45.751 50.09 -46.312 32.5 C-44.646 32.167 -42.979 31.833 -41.312 31.5 C-40.429 31.323 -39.546 31.147 -38.637 30.965 C-36.195 30.477 -33.754 29.988 -31.312 29.5 C-31.374 28.046 -31.374 28.046 -31.438 26.562 C-31.384 17.669 -28.858 10.096 -22.535 3.703 C-16.048 -2.057 -8.147 -3.689 0 0 Z M-12.312 3.5 C-12.312 4.16 -12.312 4.82 -12.312 5.5 C-11.096 5.871 -9.879 6.243 -8.625 6.625 C-4.333 8.286 -1.426 10.344 0.688 14.5 C1.94 18.455 2.878 22.433 3.688 26.5 C5.668 26.5 7.647 26.5 9.688 26.5 C11.016 24.416 11.016 24.416 9.832 21.672 C5.367 9.603 5.367 9.603 -4.508 2.164 C-7.765 0.966 -9.37 1.931 -12.312 3.5 Z M-21.312 6.5 C-20.312 8.5 -20.312 8.5 -20.312 8.5 Z M-22.312 8.5 C-26.39 16.143 -27.482 21.867 -27.312 30.5 C-25.663 30.17 -24.012 29.84 -22.312 29.5 C-22.324 28.738 -22.336 27.976 -22.348 27.191 C-22.403 20.862 -22.149 14.774 -21.312 8.5 C-21.642 8.5 -21.973 8.5 -22.312 8.5 Z M-16.312 8.5 C-19.516 14.507 -19.872 19.743 -19.312 26.5 C-18.983 27.49 -18.652 28.48 -18.312 29.5 C-15.333 29.193 -12.354 28.879 -9.375 28.562 C-8.525 28.475 -7.675 28.388 -6.799 28.299 C-5.99 28.212 -5.181 28.125 -4.348 28.035 C-3.599 27.957 -2.85 27.878 -2.078 27.797 C-0.291 27.672 -0.291 27.672 0.688 26.5 C0.193 20.196 -1.101 15.496 -5.875 11.188 C-9.653 8.572 -11.729 8.4 -16.312 8.5 Z M4.688 45.5 C1.373 48.814 1.811 52.965 1.688 57.5 C1.893 62.514 2.254 67.5 2.688 72.5 C5.895 70.896 6.536 67.617 7.812 64.438 C8.09 63.794 8.367 63.15 8.652 62.486 C10.62 57.624 11.12 53.745 10.688 48.5 C10.028 47.51 9.368 46.52 8.688 45.5 C7.368 45.5 6.048 45.5 4.688 45.5 Z M-16.062 50.625 C-17.878 53.348 -17.582 55.275 -17.312 58.5 C-13.783 65.439 -7.938 72.146 -2.312 77.5 C-1.653 77.5 -0.993 77.5 -0.312 77.5 C-1.213 71.043 -3.04 65.084 -5.312 59 C-5.704 57.94 -5.704 57.94 -6.104 56.859 C-7.227 53.924 -8.066 51.747 -10.312 49.5 C-14.098 49.139 -14.098 49.139 -16.062 50.625 Z M18.688 52.5 C18.028 53.16 17.368 53.82 16.688 54.5 C17.006 56.608 17.006 56.608 17.688 58.5 C19.007 58.17 20.327 57.84 21.688 57.5 C21.688 56.18 21.688 54.86 21.688 53.5 C20.697 53.17 19.707 52.84 18.688 52.5 Z M-19.312 62.5 C-20.303 62.995 -20.303 62.995 -21.312 63.5 C-20.983 65.15 -20.652 66.8 -20.312 68.5 C-18.993 68.5 -17.673 68.5 -16.312 68.5 C-16.312 66.85 -16.312 65.2 -16.312 63.5 C-17.303 63.17 -18.293 62.84 -19.312 62.5 Z M10.688 67.5 C8.753 70.451 8.753 70.451 7.688 73.5 C8.017 74.49 8.347 75.48 8.688 76.5 C10.463 76.102 12.233 75.681 14 75.25 C14.986 75.018 15.972 74.786 16.988 74.547 C20.066 73.353 21.114 72.37 22.688 69.5 C22.453 66.176 22.453 66.176 20.688 63.5 C16.02 62.852 13.958 64.23 10.688 67.5 Z M-22.312 74.5 C-21.907 77.282 -21.907 77.282 -20.312 79.5 C-18.46 79.572 -16.604 79.584 -14.75 79.562 C-13.738 79.553 -12.726 79.544 -11.684 79.535 C-10.901 79.524 -10.119 79.512 -9.312 79.5 C-10.868 76.184 -12.07 74.353 -15.312 72.5 C-19.292 72.016 -19.292 72.016 -22.312 74.5 Z M0.062 80.375 C-1.264 80.636 -1.264 80.636 -2.617 80.902 C-3.458 81.076 -4.298 81.25 -5.164 81.43 C-5.936 81.587 -6.707 81.744 -7.502 81.906 C-8.398 82.2 -8.398 82.2 -9.312 82.5 C-10.62 85.115 -10.078 86.064 -9.316 88.852 C-9.088 89.702 -8.859 90.553 -8.623 91.43 C-8.376 92.319 -8.129 93.209 -7.875 94.125 C-7.511 95.471 -7.511 95.471 -7.139 96.844 C-6.536 99.064 -5.927 101.283 -5.312 103.5 C1.472 102.926 8.035 101.958 14.688 100.5 C14.546 97.771 14.4 95.042 14.25 92.312 C14.211 91.544 14.171 90.775 14.131 89.982 C13.912 86.067 13.601 82.329 12.688 78.5 C8.355 78.5 4.294 79.498 0.062 80.375 Z " fill="#000000" transform="translate(297.3125,402.5)"/>
<path d="M0 0 C1.797 0.484 1.797 0.484 4 2 C5.415 4.635 6.316 7.414 7.25 10.25 C7.518 11.002 7.786 11.753 8.062 12.527 C9.53 16.818 10.322 20.405 10 25 C8.168 24.973 8.168 24.973 6 24 C4.877 21.431 4.059 19.115 3.312 16.438 C2.994 15.4 2.994 15.4 2.67 14.342 C1.262 9.577 0.506 4.941 0 0 Z " fill="#000000" transform="translate(616,407)"/>
<path d="M0 0 C7.477 3.151 12.697 8.306 17.289 14.84 C17.72 15.446 18.15 16.052 18.594 16.677 C28.253 30.715 30.476 45.137 27.891 61.805 C26.109 71.123 26.109 71.123 24.227 74.277 C22.912 74.98 21.579 75.651 20.227 76.277 C18.569 73.555 16.928 70.824 15.289 68.09 C14.82 67.321 14.352 66.552 13.869 65.76 C13.421 65.009 12.973 64.258 12.512 63.484 C12.098 62.798 11.684 62.112 11.258 61.406 C9.526 57.832 8.824 55.467 10.123 51.63 C10.589 50.705 11.055 49.781 11.535 48.828 C12.035 47.816 12.534 46.803 13.049 45.76 C13.582 44.714 14.115 43.668 14.664 42.59 C15.708 40.504 16.748 38.417 17.785 36.328 C18.252 35.407 18.72 34.486 19.201 33.536 C20.364 31.387 20.364 31.387 20.227 29.277 C19.934 29.862 19.642 30.447 19.34 31.05 C15.636 38.459 11.931 45.868 8.227 53.277 C7.567 53.277 6.907 53.277 6.227 53.277 C4.349 49.894 2.504 46.494 0.664 43.09 C0.131 42.13 -0.402 41.17 -0.951 40.182 C-1.451 39.25 -1.95 38.319 -2.465 37.359 C-2.931 36.506 -3.397 35.652 -3.877 34.773 C-5.41 30.505 -3.832 27.089 -2.145 23.07 C-1.832 22.319 -1.519 21.569 -1.197 20.795 C-0.872 20.026 -0.546 19.257 -0.211 18.465 C0.118 17.677 0.448 16.888 0.787 16.076 C1.596 14.142 2.411 12.209 3.227 10.277 C0.36 13.687 -1.282 17.448 -2.961 21.527 C-3.234 22.177 -3.506 22.827 -3.787 23.496 C-4.454 25.088 -5.115 26.682 -5.773 28.277 C-8.266 26.006 -9.798 23.707 -11.402 20.75 C-11.88 19.875 -12.358 19.001 -12.85 18.1 C-13.34 17.189 -13.831 16.278 -14.336 15.34 C-15.077 13.98 -15.077 13.98 -15.834 12.592 C-17.871 8.846 -19.885 5.1 -21.773 1.277 C-15.858 -2.448 -6.573 -1.713 0 0 Z " fill="#000000" transform="translate(93.7734375,412.72265625)"/>
<path d="M0 0 C0.99 0.33 1.98 0.66 3 1 C2.97 1.88 2.939 2.76 2.908 3.667 C2.016 30.449 1.883 57.204 2 84 C1.01 83.67 0.02 83.34 -1 83 C-4.218 56.393 -5.939 26.325 0 0 Z " fill="#000000" transform="translate(143,444)"/>
<path d="M0 0 C1.432 2.853 2.169 5.925 3 9 C3.351 10.237 3.701 11.475 4.062 12.75 C4 16 4 16 1.25 18.875 C-2 21 -2 21 -5 22 C-4.125 14.25 -4.125 14.25 -3 12 C-3.66 12 -4.32 12 -5 12 C-5.66 14.97 -6.32 17.94 -7 21 C-7.66 21 -8.32 21 -9 21 C-10.485 17.535 -10.485 17.535 -12 14 C-11.658 14.853 -11.658 14.853 -11.309 15.723 C-8.467 23.355 -9.248 28.659 -12.281 36.105 C-13.021 38.055 -13.497 39.977 -14 42 C-14.885 45.079 -15.845 48.133 -16.812 51.188 C-17.061 52.02 -17.309 52.852 -17.564 53.709 C-17.818 54.5 -18.071 55.291 -18.332 56.105 C-18.668 57.191 -18.668 57.191 -19.011 58.298 C-20 60 -20 60 -22.104 60.743 C-22.73 60.828 -23.355 60.913 -24 61 C-25.985 58.023 -26.741 55.863 -27.691 52.449 C-27.996 51.358 -28.301 50.267 -28.615 49.143 C-28.928 48.002 -29.24 46.862 -29.562 45.688 C-29.879 44.559 -30.195 43.43 -30.521 42.268 C-34.726 27.1 -34.726 27.1 -30.574 19.523 C-25.433 11.281 -10.72 -3.573 0 0 Z M-24 18 C-22.214 24.954 -19.744 30.873 -16 37 C-15.67 36.34 -15.34 35.68 -15 35 C-16.025 32.247 -17.111 29.612 -18.312 26.938 C-18.634 26.192 -18.956 25.446 -19.287 24.678 C-20.822 20.636 -20.822 20.636 -24 18 Z " fill="#000000" transform="translate(175,513)"/>
<path d="M0 0 C3.211 6.622 5.38 13.268 7.25 20.375 C7.518 21.359 7.786 22.342 8.062 23.355 C10 30.582 10 30.582 10 34 C2.548 36.66 -4.965 38.487 -12.688 40.188 C-13.884 40.46 -15.081 40.733 -16.314 41.014 C-17.473 41.271 -18.631 41.528 -19.824 41.793 C-20.867 42.025 -21.909 42.258 -22.983 42.497 C-26.061 43.01 -28.886 43.16 -32 43 C-33.735 41.265 -33.479 38.829 -33.754 36.461 C-33.886 35.323 -34.018 34.184 -34.154 33.012 C-34.289 31.812 -34.424 30.611 -34.562 29.375 C-34.701 28.198 -34.84 27.021 -34.982 25.809 C-35.626 20.175 -36.191 14.671 -36 9 C-27.976 6.427 -19.942 3.908 -11.812 1.688 C-10.623 1.361 -9.433 1.035 -8.207 0.699 C-5.338 0.074 -2.92 -0.148 0 0 Z M-9.777 4.363 C-10.93 4.673 -12.083 4.983 -13.271 5.303 C-14.481 5.636 -15.691 5.969 -16.938 6.312 C-18.746 6.795 -18.746 6.795 -20.592 7.287 C-27.097 8.95 -27.097 8.95 -33 12 C-32.692 15.563 -32.378 19.125 -32.062 22.688 C-31.975 23.695 -31.888 24.702 -31.799 25.74 C-31.668 27.205 -31.668 27.205 -31.535 28.699 C-31.457 29.595 -31.378 30.49 -31.297 31.413 C-31.002 33.983 -30.544 36.472 -30 39 C-22.289 38.348 -14.957 36.731 -7.438 34.938 C-6.238 34.656 -5.039 34.374 -3.803 34.084 C-0.867 33.394 2.067 32.699 5 32 C3.754 25.4 2.288 18.911 0.5 12.438 C0.287 11.632 0.075 10.827 -0.145 9.998 C-0.7 7.98 -1.343 5.987 -2 4 C-4.928 2.536 -6.648 3.519 -9.777 4.363 Z " fill="#000000" transform="translate(380,520)"/>
<path d="M0 0 C1.715 3.429 1.054 7.217 1 11 C-5.435 13.97 -5.435 13.97 -12 17 C-13.65 13.701 -12.217 10.881 -11.156 7.488 C-8.997 2.842 -5.251 0 0 0 Z " fill="#000000" transform="translate(178,534)"/>
<path d="M0 0 C0.625 1.875 0.625 1.875 1 4 C-1.945 6.945 -5.476 7.063 -9.438 7.75 C-10.214 7.901 -10.991 8.052 -11.791 8.207 C-17.634 9.244 -17.634 9.244 -21 7 C-21 5.68 -21 4.36 -21 3 C-14.045 -0.068 -7.475 -0.133 0 0 Z " fill="#000000" transform="translate(738,543)"/>
<path d="M0 0 C4.126 3.553 4.537 7.756 5 13 C4.824 17.093 4.263 21.081 3.625 25.125 C3.473 26.177 3.321 27.229 3.164 28.312 C2.791 30.878 2.403 33.439 2 36 C2.73 35.815 3.46 35.629 4.212 35.438 C22.575 30.806 41.109 26.904 59.663 23.118 C61.465 22.749 63.267 22.377 65.068 22.001 C67.614 21.472 70.162 20.955 72.711 20.441 C73.474 20.28 74.238 20.119 75.025 19.953 C78.978 19.172 82.108 18.841 86 20 C85.67 21.32 85.34 22.64 85 24 C83.02 24.33 81.04 24.66 79 25 C77.64 35.055 77.64 35.055 79 45 C82.652 49.109 88.174 51.418 93 54 C92.803 53.347 92.606 52.695 92.403 52.022 C90.37 44.987 89.165 38.078 88.312 30.812 C88.183 29.765 88.053 28.718 87.92 27.639 C87.606 25.093 87.3 22.547 87 20 C90.593 16.742 94.69 15.732 99.266 14.52 C100.059 14.302 100.852 14.084 101.67 13.86 C104.194 13.169 106.722 12.491 109.25 11.812 C110.966 11.345 112.683 10.877 114.398 10.408 C118.596 9.263 122.797 8.129 127 7 C129.174 11.797 130.761 16.414 132.043 21.543 C132.303 22.579 132.303 22.579 132.568 23.637 C132.93 25.084 133.288 26.532 133.644 27.98 C134.189 30.194 134.745 32.405 135.303 34.615 C135.654 36.028 136.005 37.442 136.355 38.855 C136.672 40.131 136.988 41.406 137.313 42.719 C138 46 138 46 138 50 C137.46 50.177 136.92 50.353 136.364 50.535 C133.929 51.333 131.496 52.135 129.062 52.938 C128.212 53.215 127.362 53.493 126.486 53.779 C125.677 54.047 124.869 54.314 124.035 54.59 C123.286 54.836 122.537 55.082 121.766 55.336 C120.002 55.861 120.002 55.861 119 57 C120.562 57.437 120.562 57.437 122.156 57.883 C129.788 60.051 137.355 62.35 144.812 65.062 C145.475 65.295 146.138 65.528 146.82 65.768 C150.707 67.22 153.397 68.74 156 72 C156.438 74.562 156.438 74.562 156 77 C153.665 80.049 151.365 80.653 147.688 81.465 C146.62 81.706 145.552 81.947 144.453 82.195 C142.744 82.562 142.744 82.562 141 82.938 C139.841 83.195 138.683 83.453 137.489 83.719 C133.995 84.493 130.499 85.25 127 86 C125.983 86.219 124.965 86.438 123.917 86.664 C118.616 87.8 113.311 88.912 108 90 C108.629 90.315 109.258 90.629 109.906 90.953 C115.271 93.635 120.635 96.318 126 99 C126 99.66 126 100.32 126 101 C119.04 100.516 113.46 98.376 107.062 95.688 C92.302 89.704 77.841 84.474 62 89 C62.921 89.105 62.921 89.105 63.861 89.212 C66.701 89.544 69.538 89.897 72.375 90.25 C73.823 90.414 73.823 90.414 75.301 90.582 C81.716 91.4 88.464 92.448 94 96 C94.771 98.134 94.771 98.134 95 100 C91.35 101.217 90.689 100.662 87.25 99.188 C72.009 93.346 56.71 94.841 41 97 C42.505 92.484 45.687 91.671 49.789 89.562 C50.849 89.047 51.908 88.531 53 88 C53.998 87.505 54.995 87.01 56.023 86.5 C68.377 81.023 80.778 81.796 93.559 85.539 C98.37 86.183 102.323 85.148 107 84 C108.087 83.743 109.173 83.486 110.293 83.222 C113.949 82.35 117.6 81.459 121.25 80.562 C130.805 78.217 140.369 76.01 150 74 C147.318 70.586 143.709 69.608 139.734 68.301 C139.023 68.061 138.311 67.821 137.578 67.574 C136.073 67.069 134.567 66.57 133.059 66.074 C130.767 65.318 128.483 64.542 126.199 63.764 C124.732 63.275 123.265 62.787 121.797 62.301 C121.121 62.07 120.444 61.838 119.747 61.6 C113.362 59.533 107.92 59.41 101.562 61.5 C100.698 61.778 99.833 62.057 98.941 62.344 C98.301 62.56 97.66 62.777 97 63 C95.5 61.75 95.5 61.75 94 60 C94 58.68 94 57.36 94 56 C93.041 56.34 93.041 56.34 92.062 56.688 C88.315 57.07 86.076 56.078 82.672 54.594 C75.606 53.023 67.529 55.588 60.566 57.031 C59.607 57.227 58.648 57.423 57.66 57.625 C55.65 58.037 53.641 58.45 51.632 58.866 C48.548 59.503 45.463 60.133 42.377 60.762 C40.419 61.164 38.461 61.566 36.504 61.969 C35.58 62.157 34.656 62.346 33.704 62.54 C32.853 62.717 32.001 62.894 31.123 63.076 C30.373 63.231 29.623 63.385 28.85 63.545 C26.922 63.947 26.922 63.947 25 65 C25.994 65.469 26.989 65.938 28.013 66.421 C31.695 68.161 35.371 69.914 39.044 71.671 C40.636 72.43 42.23 73.186 43.825 73.938 C46.116 75.018 48.4 76.111 50.684 77.207 C51.4 77.542 52.117 77.876 52.855 78.221 C54.609 79.071 56.311 80.028 58 81 C58.33 81.99 58.66 82.98 59 84 C54.899 83.471 51.545 82.001 47.832 80.289 C45.045 79.02 42.232 77.82 39.414 76.623 C33.03 73.89 26.774 70.98 20.625 67.75 C19.989 67.421 19.352 67.092 18.697 66.753 C15.561 65.071 14.016 64.023 12 61 C10.354 51.915 13.795 44.872 18 37 C17.192 37.217 16.384 37.433 15.551 37.656 C14.482 37.935 13.414 38.213 12.312 38.5 C11.257 38.778 10.201 39.057 9.113 39.344 C6.289 39.939 3.872 40.128 1 40 C0.974 40.562 0.948 41.124 0.922 41.703 C0.252 51.631 -1.946 61.286 -4 71 C-4.99 70.67 -5.98 70.34 -7 70 C-6.9 69.435 -6.8 68.871 -6.696 68.289 C-4.17 53.925 -2.08 39.545 -0.308 25.072 C-0.151 23.804 0.006 22.537 0.168 21.23 C0.305 20.1 0.442 18.97 0.583 17.805 C1 15 1 15 2 12 C0.35 12 -1.3 12 -3 12 C-5.118 24.901 -6.688 37.803 -7.909 50.821 C-8.57 57.653 -9.476 64.305 -11 71 C-11.66 71 -12.32 71 -13 71 C-10.123 10.356 -10.123 10.356 -2 1 C-1.34 0.67 -0.68 0.34 0 0 Z M117.348 12.801 C116.692 12.997 116.036 13.194 115.36 13.396 C113.971 13.814 112.583 14.235 111.197 14.66 C109.077 15.308 106.954 15.943 104.83 16.576 C97.614 18.602 97.614 18.602 91 22 C92.82 39.741 92.82 39.741 97 57 C100.308 58.654 103.503 56.781 106.852 55.691 C107.626 55.446 108.4 55.2 109.197 54.947 C111.675 54.159 114.15 53.361 116.625 52.562 C118.302 52.027 119.979 51.493 121.656 50.959 C125.773 49.647 129.887 48.326 134 47 C132.653 39.038 130.947 31.21 129 23.375 C128.609 21.745 128.609 21.745 128.211 20.082 C127.956 19.052 127.7 18.022 127.438 16.961 C127.095 15.566 127.095 15.566 126.746 14.142 C125.048 9.267 121.295 11.612 117.348 12.801 Z M51.159 29.759 C49.187 30.085 47.211 30.391 45.232 30.677 C33.743 31.92 33.743 31.92 24.404 37.838 C22.877 40.887 21.87 43.712 21 47 C20.397 48.302 19.775 49.596 19.125 50.875 C17.951 54.136 17.749 56.563 18 60 C21.48 61.74 25.363 60.018 29.031 59.199 C29.937 59.003 30.843 58.806 31.776 58.604 C34.685 57.972 37.593 57.33 40.5 56.688 C43.379 56.058 46.259 55.43 49.139 54.803 C50.931 54.412 52.723 54.019 54.515 53.624 C55.348 53.441 56.182 53.258 57.041 53.069 C57.85 52.89 58.66 52.711 59.493 52.527 C61.263 52.155 63.038 51.812 64.817 51.489 C65.725 51.323 66.633 51.158 67.568 50.988 C68.394 50.845 69.219 50.702 70.07 50.555 C70.707 50.372 71.344 50.189 72 50 C72.33 49.34 72.66 48.68 73 48 C72.691 47.299 72.381 46.597 72.062 45.875 C69.826 39.823 71.108 33.247 72 27 C65.02 27 58.022 28.59 51.159 29.759 Z " fill="#000000" transform="translate(258,557)"/>
<path d="M0 0 C0 0.99 0 1.98 0 3 C-24.796 9.409 -24.796 9.409 -34 9 C-34 8.01 -34 7.02 -34 6 C-30.025 4.983 -26.044 3.989 -22.062 3 C-20.946 2.714 -19.829 2.428 -18.678 2.133 C-12.265 0.553 -6.603 -0.336 0 0 Z " fill="#000000" transform="translate(764,590)"/>
<path d="M0 0 C3.853 0.647 7.722 1.127 11.601 1.593 C12.635 1.718 12.635 1.718 13.69 1.846 C15.264 2.035 16.838 2.221 18.413 2.405 C18.413 3.395 18.413 4.385 18.413 5.405 C11.521 5.604 5.078 5.037 -1.712 3.905 C-20.604 1.027 -20.604 1.027 -38.587 6.405 C-36.756 6.262 -36.756 6.262 -34.888 6.116 C-25.097 5.43 -16.237 5.309 -6.587 7.405 C-6.092 8.89 -6.092 8.89 -5.587 10.405 C-6.255 10.39 -6.924 10.374 -7.612 10.358 C-24.373 10.017 -39.809 10.181 -55.587 16.405 C-55.587 16.735 -55.587 17.065 -55.587 17.405 C-54.988 17.263 -54.39 17.121 -53.773 16.974 C-47.417 15.57 -41.458 15.125 -34.962 15.218 C-34.015 15.224 -33.068 15.231 -32.092 15.237 C-23.901 15.326 -15.752 15.75 -7.587 16.405 C-7.092 17.89 -7.092 17.89 -6.587 19.405 C-8.251 19.435 -8.251 19.435 -9.948 19.465 C-14.093 19.542 -18.238 19.63 -22.383 19.723 C-24.171 19.761 -25.96 19.796 -27.748 19.827 C-30.33 19.873 -32.911 19.931 -35.493 19.991 C-36.678 20.009 -36.678 20.009 -37.887 20.026 C-43.079 20.162 -47.573 21.055 -52.587 22.405 C-56.462 22.655 -56.462 22.655 -59.587 22.405 C-61.587 20.405 -61.587 20.405 -62.212 18.093 C-61.452 14.825 -60.772 14.54 -58.024 12.78 C-55.407 11.295 -52.881 10.115 -50.087 8.968 C-47.077 7.624 -45.227 6.429 -42.712 4.405 C-30.117 -5.3 -14.569 -2.59 0 0 Z " fill="#000000" transform="translate(470.5869140625,594.5947265625)"/>
<path d="M0 0 C0.33 1.65 0.66 3.3 1 5 C-3.105 7.985 -5.977 8.295 -11 8 C-11.688 6.188 -11.688 6.188 -12 4 C-10.575 1.975 -9.445 1.163 -7.125 0.312 C-4.723 -0.041 -2.424 -0.067 0 0 Z " fill="#000000" transform="translate(182,596)"/>
<path d="M0 0 C0.33 1.32 0.66 2.64 1 4 C-0.41 4.702 -1.828 5.386 -3.25 6.062 C-4.039 6.445 -4.828 6.828 -5.641 7.223 C-8.26 8.086 -9.449 7.93 -12 7 C-12.625 5.125 -12.625 5.125 -13 3 C-9.547 -0.453 -4.637 -1.855 0 0 Z " fill="#000000" transform="translate(180,613)"/>
<path d="M0 0 C-0.33 0.99 -0.66 1.98 -1 3 C-2.12 3.133 -3.24 3.266 -4.395 3.402 C-5.867 3.581 -7.34 3.759 -8.812 3.938 C-9.55 4.025 -10.288 4.112 -11.049 4.201 C-14.167 4.582 -17.011 5.004 -20 6 C-20.33 6.66 -20.66 7.32 -21 8 C-20.092 7.835 -19.185 7.67 -18.25 7.5 C-9.407 6.259 -0.48 7.076 8.375 7.777 C14.251 8.138 20.114 8.081 26 8 C26 8.99 26 9.98 26 11 C22.421 12.193 19.161 12.149 15.438 12.125 C14.718 12.123 13.999 12.121 13.257 12.119 C8.558 12.081 3.962 11.774 -0.707 11.227 C-7.244 10.581 -13.62 10.92 -20.09 11.977 C-22 12 -22 12 -25 10 C-24.67 7.69 -24.34 5.38 -24 3 C-17.505 0.012 -6.733 -3.367 0 0 Z " fill="#000000" transform="translate(453,616)"/>
<path d="M0 0 C3.562 2.829 5.14 5.454 5.938 9.938 C5.206 14.601 3.06 17.173 -0.562 20.125 C-6.073 23.056 -12.404 24.219 -18.562 23.125 C-24.971 20.883 -29.988 17.964 -33.562 12.125 C-34.327 8.861 -34.199 7.174 -32.453 4.297 C-24.497 -5.884 -10.489 -7.56 0 0 Z M-29.625 5.062 C-30.707 7.109 -30.707 7.109 -30.688 9.5 C-29.005 13.425 -26.038 15.727 -22.562 18.125 C-16.282 20.219 -8.952 20.204 -2.938 17.312 C-0.136 15.77 0.565 14.934 2.438 12.125 C2.351 8.167 1.713 6.461 -0.812 3.375 C-5.879 -0.77 -10.385 -1.316 -16.77 -1.195 C-21.992 -0.596 -25.83 1.498 -29.625 5.062 Z " fill="#000000" transform="translate(261.5625,634.875)"/>
<path d="M0 0 C-0.33 0.99 -0.66 1.98 -1 3 C-6.564 2.425 -11.877 1.391 -17.324 0.133 C-31.695 -3.142 -45.955 -5.812 -60 0 C-61.32 0 -62.64 0 -64 0 C-62.984 -2.843 -62.315 -3.834 -59.602 -5.266 C-42.513 -10.917 -16.139 -8.665 0 0 Z " fill="#000000" transform="translate(345,663)"/>
<path d="M0 0 C10.573 4.998 21.75 7.981 33.013 10.952 C33.013 11.612 33.013 12.272 33.013 12.952 C21.107 15.891 9.16 18.662 -2.82 21.286 C-4.247 21.601 -5.673 21.92 -7.098 22.245 C-19.846 25.139 -31.437 26.786 -43.862 21.764 C-44.758 21.419 -45.654 21.074 -46.578 20.718 C-49.726 19.49 -52.856 18.222 -55.987 16.952 C-57.318 16.421 -58.65 15.891 -59.982 15.361 C-63.536 13.947 -67.082 12.513 -70.622 11.065 C-72.028 10.491 -73.435 9.921 -74.843 9.354 C-76.829 8.552 -78.807 7.731 -80.784 6.905 C-81.932 6.432 -83.08 5.959 -84.263 5.472 C-87.126 3.874 -87.957 3.006 -88.987 -0.048 C-86.291 -2.744 -84.169 -2.782 -80.432 -3.486 C-79.775 -3.611 -79.119 -3.737 -78.442 -3.866 C-76.333 -4.268 -74.223 -4.658 -72.112 -5.048 C-70.729 -5.311 -69.346 -5.574 -67.963 -5.837 C-42.611 -10.646 -23.623 -11.364 0 0 Z M-62.987 -3.048 C-60.5 -0.562 -58.18 0.31 -54.924 1.639 C-53.84 2.097 -52.756 2.554 -51.639 3.026 C-47.04 4.192 -43.611 3.723 -38.987 2.952 C-38.013 2.808 -37.04 2.665 -36.037 2.517 C-32.849 2.043 -29.668 1.532 -26.487 1.014 C-25.391 0.845 -24.295 0.675 -23.167 0.5 C-22.128 0.331 -21.089 0.161 -20.018 -0.013 C-18.604 -0.239 -18.604 -0.239 -17.161 -0.47 C-16.085 -0.756 -16.085 -0.756 -14.987 -1.048 C-14.657 -1.708 -14.327 -2.368 -13.987 -3.048 C-31.197 -6.101 -45.827 -6.501 -62.987 -3.048 Z M-75.737 -0.611 C-76.907 -0.323 -78.078 -0.036 -79.284 0.26 C-80.176 0.488 -81.068 0.717 -81.987 0.952 C-79.286 2.752 -76.92 3.885 -73.924 5.077 C-72.608 5.606 -72.608 5.606 -71.264 6.147 C-69.075 7.063 -69.075 7.063 -66.987 6.952 C-66.987 5.962 -66.987 4.972 -66.987 3.952 C-65.667 3.952 -64.347 3.952 -62.987 3.952 C-63.317 5.272 -63.647 6.592 -63.987 7.952 C-60.027 7.292 -56.067 6.632 -51.987 5.952 C-55.001 3.691 -57.145 2.28 -60.487 0.827 C-61.24 0.494 -61.992 0.162 -62.768 -0.181 C-67.73 -2.121 -70.461 -1.93 -75.737 -0.611 Z M-14.053 1.245 C-18.848 2.4 -23.729 3.072 -28.603 3.81 C-32.649 4.451 -36.237 5.212 -39.987 6.952 C-33.197 11.478 -25.459 13.774 -17.342 12.647 C-9.492 11.02 -1.732 9.017 6.013 6.952 C6.013 6.622 6.013 6.292 6.013 5.952 C-0.485 6.467 -6.649 7.418 -12.987 8.952 C-12.987 7.962 -12.987 6.972 -12.987 5.952 C-11.813 5.77 -11.813 5.77 -10.616 5.584 C-9.098 5.333 -9.098 5.333 -7.549 5.077 C-6.54 4.914 -5.531 4.752 -4.491 4.584 C-3.251 4.271 -3.251 4.271 -1.987 3.952 C-1.657 3.292 -1.327 2.632 -0.987 1.952 C-5.922 0.062 -8.833 -0.158 -14.053 1.245 Z M-59.987 9.952 C-59.161 12.158 -59.161 12.158 -56.842 12.803 C-55.962 13.058 -55.081 13.314 -54.174 13.577 C-53.302 13.837 -52.429 14.097 -51.53 14.366 C-48.772 15.101 -48.772 15.101 -44.987 14.952 C-43.997 15.942 -43.007 16.932 -41.987 17.952 C-38.357 16.962 -34.727 15.972 -30.987 14.952 C-33.118 10.689 -39.69 9.424 -43.987 7.952 C-49.545 7.292 -54.615 8.587 -59.987 9.952 Z M-1.487 11.702 C-3.975 12.267 -6.463 12.829 -8.952 13.389 C-10.153 13.661 -11.354 13.933 -12.592 14.213 C-18.347 15.465 -24.142 16.404 -29.959 17.311 C-33.146 17.79 -33.146 17.79 -35.987 19.952 C-28.425 22.212 -23.043 21.645 -15.424 19.889 C-14.353 19.658 -13.281 19.427 -12.177 19.189 C-9.927 18.704 -7.679 18.211 -5.432 17.711 C-0.852 16.701 3.741 15.754 8.335 14.807 C12.897 13.867 17.455 12.91 22.013 11.952 C21.518 10.962 21.518 10.962 21.013 9.952 C13.05 8.245 6.335 9.848 -1.487 11.702 Z " fill="#000000" transform="translate(339.98681640625,675.04833984375)"/>
<path d="M0 0 C0.66 0.66 1.32 1.32 2 2 C1.34 2 0.68 2 0 2 C0 2.66 0 3.32 0 4 C1.32 4 2.64 4 4 4 C4 4.66 4 5.32 4 6 C2.35 5.67 0.7 5.34 -1 5 C-1 1 -1 1 0 0 Z " fill="#000000" transform="translate(294,671)"/>
<path d="M0 0 C6.875 2.75 6.875 2.75 8 5 C7.01 5.33 6.02 5.66 5 6 C4.34 5.67 3.68 5.34 3 5 C3 4.34 3 3.68 3 3 C2.01 2.67 1.02 2.34 0 2 C0 1.34 0 0.68 0 0 Z " fill="#000000" transform="translate(316,680)"/>
<path d="M0 0 C-0.33 0.99 -0.66 1.98 -1 3 C-12.7 5.243 -24.405 7.453 -36.117 9.629 C-62.486 14.533 -88.833 19.507 -115.125 24.812 C-147.788 31.387 -147.788 31.387 -160.695 33.837 C-162.335 34.15 -163.974 34.467 -165.612 34.79 C-167.816 35.223 -170.022 35.639 -172.23 36.051 C-173.451 36.285 -174.672 36.518 -175.93 36.759 C-179.099 37.008 -180.401 36.746 -183 35 C-181 32 -181 32 -178.656 31.248 C-177.685 31.073 -176.715 30.899 -175.715 30.719 C-174.636 30.518 -173.558 30.318 -172.447 30.112 C-171.289 29.91 -170.131 29.708 -168.938 29.5 C-167.747 29.282 -166.556 29.064 -165.329 28.84 C-161.888 28.213 -158.445 27.603 -155 27 C-154.211 26.861 -153.422 26.722 -152.608 26.579 C-150.017 26.122 -147.425 25.668 -144.831 25.221 C-139.328 24.263 -133.849 23.192 -128.369 22.112 C-111.011 18.695 -93.603 15.596 -76.177 12.549 C-64.716 10.543 -53.259 8.512 -41.812 6.422 C-40.662 6.212 -39.512 6.003 -38.328 5.787 C-31.616 4.565 -31.616 4.565 -24.907 3.332 C-21.849 2.767 -18.79 2.209 -15.73 1.652 C-14.83 1.484 -13.929 1.316 -13.001 1.142 C-8.604 0.347 -4.491 -0.194 0 0 Z " fill="#000000" transform="translate(376,699)"/>
</svg>
