<?xml version="1.0" encoding="UTF-8"?>
<!-- Generator: visioncortex VTracer 0.6.0 -->
<svg version="1.1" xmlns="http://www.w3.org/2000/svg" width="847" height="847">
<path d="M0 0 C2.847 1.011 3.83 1.667 5.229 4.401 C5.57 5.404 5.911 6.408 6.262 7.441 C6.654 8.571 7.047 9.701 7.451 10.865 C7.859 12.085 8.267 13.305 8.688 14.562 C9.342 16.462 9.996 18.361 10.652 20.259 C11.1 21.56 11.546 22.86 11.99 24.162 C13.482 28.53 15.03 32.873 16.617 37.207 C17.029 38.331 17.44 39.455 17.865 40.613 C18.647 42.744 19.432 44.873 20.219 47.002 C21.914 51.657 23.454 56.043 24 61 C22.68 61.66 21.36 62.32 20 63 C16.753 59.39 15.628 55.235 14.293 50.676 C14.045 49.856 13.797 49.036 13.542 48.192 C12.749 45.568 11.968 42.94 11.188 40.312 C10.165 36.89 9.137 33.47 8.105 30.051 C7.854 29.212 7.602 28.373 7.343 27.509 C5.369 21.011 3.158 14.617 0.731 8.275 C-1.107 3.321 -1.107 3.321 0 0 Z " fill="#000000" transform="translate(494,35)"/>
<path d="M0 0 C1.32 0.33 2.64 0.66 4 1 C3.945 1.855 3.889 2.711 3.832 3.592 C3.712 5.453 3.592 7.314 3.471 9.175 C3.243 12.715 3.013 16.256 2.781 19.796 C2.202 28.636 2.202 28.636 1.715 37.48 C1.677 38.215 1.639 38.95 1.599 39.707 C1.508 41.537 1.425 43.368 1.344 45.199 C1.009 47.928 0.41 49.664 -1 52 C-2.32 51.67 -3.64 51.34 -5 51 C-5.874 47.407 -6.012 44.551 -5.512 40.895 C-5.383 39.919 -5.255 38.944 -5.123 37.938 C-4.979 36.907 -4.835 35.875 -4.688 34.812 C-4.401 32.658 -4.116 30.503 -3.832 28.348 C-3.69 27.279 -3.547 26.211 -3.401 25.11 C-2.733 19.927 -2.182 14.732 -1.647 9.534 C-1.302 6.284 -0.923 3.142 0 0 Z " fill="#000000" transform="translate(537,43)"/>
<path d="M0 0 C9.643 6.415 15.369 15.139 18.109 26.34 C18.553 29.769 18.633 33.135 18.609 36.59 C18.606 37.536 18.602 38.482 18.599 39.456 C18.303 52.382 15.858 71.841 6.859 81.84 C-1.289 86.284 -9.159 85.82 -17.945 83.551 C-30.777 79.535 -40.891 73.76 -47.605 61.871 C-51.8 53.609 -53.09 46.361 -53.141 37.215 C-53.161 36.315 -53.182 35.415 -53.203 34.488 C-53.272 22.564 -49.164 11.1 -40.891 2.34 C-28.666 -8.377 -13.634 -7.83 0 0 Z M-42.844 9.602 C-50.794 20.241 -52.208 31.356 -50.891 44.34 C-48.589 56.548 -42.96 66.035 -32.891 73.34 C-30.31 74.958 -27.716 76.208 -24.891 77.34 C-24.165 77.639 -23.439 77.938 -22.691 78.246 C-15.368 80.861 -7.58 81.236 0.109 80.34 C5.988 77.545 8.646 73.453 10.799 67.402 C16.102 51.095 19.266 34.704 12.109 18.34 C10.418 15.307 8.499 12.852 6.109 10.34 C5.449 9.64 4.789 8.94 4.109 8.219 C-2.718 1.574 -10.011 -1.767 -19.578 -2.098 C-29.106 -1.678 -36.62 2.394 -42.844 9.602 Z " fill="#000000" transform="translate(221.890625,49.66015625)"/>
<path d="M0 0 C2.312 0.125 2.312 0.125 5 1 C11.884 10.096 9.873 29.172 8.551 40.199 C8.083 43.477 7.579 46.74 7 50 C2.281 51.133 2.281 51.133 -0.25 49.938 C-2.653 47.277 -2.798 45.57 -3 42 C-2.722 40.237 -2.722 40.237 -2.438 38.438 C-1.876 34.733 -2.287 31.621 -2.938 27.938 C-6.054 9.494 -6.054 9.494 -1.977 2.559 C-1.324 1.714 -0.672 0.87 0 0 Z M0 5 C-2.575 8.776 -1.908 12.157 -1.25 16.438 C-1.152 17.137 -1.054 17.837 -0.954 18.559 C-0.649 20.708 -0.327 22.854 0 25 C0.193 26.301 0.387 27.601 0.586 28.941 C1.044 31.963 1.514 34.982 2 38 C2.66 38 3.32 38 4 38 C5.296 32.309 5.184 26.748 5.188 20.938 C5.2 19.849 5.212 18.76 5.225 17.639 C5.227 16.591 5.228 15.544 5.23 14.465 C5.235 13.512 5.239 12.559 5.243 11.578 C4.992 8.915 4.356 7.282 3 5 C2.01 5 1.02 5 0 5 Z M1 44 C1.33 44.99 1.66 45.98 2 47 C2.66 47 3.32 47 4 47 C4 46.01 4 45.02 4 44 C3.01 44 2.02 44 1 44 Z " fill="#000000" transform="translate(202,55)"/>
<path d="M0 0 C12.794 10.377 21.499 23.223 23.437 39.815 C24.486 52.748 21.519 63.95 17.312 76.065 C9.893 97.855 12.175 124.137 22.332 144.784 C25.575 150.746 29.485 156.328 33.25 161.967 C49.817 186.91 58.3 214.943 52.437 244.815 C49.122 260.369 43.495 280.646 30.437 290.815 C14.033 301.352 -7.109 304.438 -26.063 300.502 C-30.018 299.583 -33.499 298.418 -37.188 296.752 C-40.298 295.613 -41.38 295.749 -44.567 296.893 C-46.632 297.937 -48.669 299.037 -50.668 300.202 C-57.8 304.176 -64.788 305.036 -72.625 302.815 C-73.595 302.485 -74.564 302.155 -75.563 301.815 C-75 302.542 -75 302.542 -74.426 303.284 C-73.915 303.954 -73.403 304.624 -72.875 305.315 C-72.377 305.965 -71.878 306.614 -71.364 307.284 C-70.77 308.119 -70.175 308.954 -69.563 309.815 C-68.945 310.661 -68.945 310.661 -68.315 311.523 C-65.789 315.212 -64.282 318.314 -63.493 322.733 C-62.161 329.853 -60.809 336.343 -54.797 340.921 C-48.129 344.736 -41.079 347.472 -33.952 350.29 C-24.344 354.615 -13.001 362.023 -6.528 370.471 C-2.7 375.307 0.386 377.919 6.55 378.752 C11.544 379.201 16.551 379.392 21.559 379.621 C41.897 380.991 61.575 389.88 75.66 404.627 C96.352 430.095 92.485 468.404 89.437 498.815 C83.58 555.117 74.28 611.913 60.437 666.815 C68.04 669.393 75.552 670.769 83.5 671.815 C84.734 671.983 85.969 672.151 87.241 672.324 C98.735 673.834 110.265 674.883 121.822 675.776 C122.502 675.831 123.181 675.887 123.882 675.944 C125.725 676.094 127.57 676.235 129.414 676.376 C132.242 676.787 134.062 677.26 136.437 678.815 C141.063 688.067 136.869 703.774 135.562 713.752 C135.475 714.421 135.388 715.09 135.298 715.779 C134.28 723.518 133.106 731.188 131.437 738.815 C130.447 739.145 129.457 739.475 128.437 739.815 C128.547 738.67 128.656 737.526 128.769 736.346 C130.346 719.838 131.892 703.326 133.437 686.815 C119.909 692.99 106.438 699.256 93.062 705.752 C80.916 711.647 68.704 717.385 56.445 723.041 C51.119 725.498 45.797 727.964 40.476 730.432 C6.202 746.327 6.202 746.327 -8.309 753 C-12.615 754.982 -16.915 756.973 -21.188 759.026 C-21.877 759.355 -22.566 759.684 -23.275 760.023 C-24.991 760.846 -26.703 761.677 -28.415 762.51 C-31.376 763.738 -34.25 764.453 -37.363 765.176 C-42.643 766.709 -47.559 769.41 -52.493 771.801 C-53.346 772.202 -54.199 772.602 -55.079 773.014 C-55.845 773.384 -56.611 773.753 -57.4 774.134 C-59.887 774.917 -61.14 774.678 -63.563 773.815 C-63.344 771.962 -63.344 771.962 -62.563 769.815 C-60.653 768.561 -60.653 768.561 -58.071 767.467 C-56.583 766.822 -56.583 766.822 -55.065 766.164 C-53.95 765.698 -52.836 765.232 -51.688 764.752 C-49.86 763.964 -48.031 763.175 -46.204 762.385 C-44.154 761.501 -42.102 760.622 -40.049 759.745 C-32.582 756.542 -25.157 753.244 -17.726 749.958 C-14.972 748.74 -12.217 747.524 -9.462 746.308 C9.423 737.966 28.229 729.452 47.025 720.911 C50.114 719.507 53.205 718.106 56.295 716.705 C69.633 710.659 82.958 704.588 96.25 698.44 C104.136 694.794 112.025 691.156 119.937 687.565 C120.775 687.182 121.612 686.798 122.475 686.403 C128.205 683.815 128.205 683.815 130.437 683.815 C130.107 683.155 129.777 682.495 129.437 681.815 C118.555 678.998 106.199 678.648 94.992 678.889 C90.525 678.796 86.326 678.047 81.937 677.252 C73.59 675.793 65.235 674.474 56.847 673.272 C37.319 670.464 17.902 667.485 -1.438 663.565 C-16.079 660.597 -30.642 657.96 -45.563 656.815 C-46.682 656.722 -47.801 656.629 -48.954 656.534 C-52.3 656.894 -53.307 657.918 -55.625 660.315 C-73.093 676.791 -94.714 680.431 -117.872 680.057 C-124.155 679.852 -129.676 679.077 -135.563 676.815 C-136.458 676.492 -136.458 676.492 -137.371 676.163 C-148.323 672.156 -156.779 666.392 -165.563 658.815 C-166.356 658.161 -167.149 657.508 -167.965 656.834 C-172.077 653.386 -175.6 649.649 -179.02 645.514 C-181.906 642.336 -184.274 641.569 -188.375 641.065 C-195.448 640.009 -202.201 638.038 -209.029 635.935 C-215.597 634.022 -221.801 633.476 -228.619 633.122 C-234.705 632.648 -240.603 631.441 -246.568 630.204 C-250.441 629.402 -254.321 628.637 -258.2 627.866 C-259.433 627.619 -259.433 627.619 -260.69 627.368 C-270.163 625.482 -279.657 623.713 -289.158 621.973 C-291.075 621.621 -292.991 621.267 -294.908 620.91 C-304.771 619.075 -314.519 617.297 -324.563 616.815 C-324.399 617.444 -324.235 618.074 -324.066 618.722 C-322.882 623.367 -322.107 627.112 -323.563 631.815 C-325.708 634.46 -327.444 635.318 -330.75 636.002 C-331.824 636.24 -331.824 636.24 -332.918 636.483 C-339.358 637.291 -345.003 636.738 -351.25 635.092 C-352.749 634.718 -354.247 634.344 -355.746 633.97 C-356.529 633.771 -357.313 633.573 -358.12 633.368 C-379.091 628.081 -400.228 624.286 -421.563 620.815 C-422.842 620.605 -424.12 620.395 -425.438 620.179 C-434.347 618.719 -443.261 617.301 -452.192 615.979 C-453.08 615.845 -453.967 615.712 -454.882 615.574 C-456.527 615.327 -458.173 615.086 -459.82 614.853 C-463.376 614.318 -465.522 613.842 -468.563 611.815 C-470.696 605.884 -471.428 599.714 -472.243 593.487 C-473.258 586.701 -475.495 581.629 -480.563 576.815 C-480.563 576.155 -480.563 575.495 -480.563 574.815 C-481.223 574.815 -481.883 574.815 -482.563 574.815 C-482.191 579.891 -482.191 579.891 -479.653 584.167 C-473.263 592.264 -471.769 606.404 -472.244 616.56 C-473.196 623.292 -477.03 629.14 -480.563 634.815 C-481.169 635.831 -481.775 636.847 -482.399 637.893 C-483.388 639.543 -484.396 641.181 -485.434 642.799 C-490.413 651.688 -487.548 665.999 -486.563 675.815 C-486.233 676.805 -485.903 677.795 -485.563 678.815 C-482.126 679.96 -479.546 679.893 -475.922 679.85 C-456.496 679.816 -439.677 682.27 -421.062 687.841 C-416.252 689.18 -411.39 690.167 -406.491 691.121 C-402.602 692.043 -400.463 693.076 -397.563 695.815 C-395.25 699.706 -395.076 703.354 -395.563 707.815 C-397.131 710.453 -398.477 711.498 -401.431 712.36 C-409.534 713.996 -417.711 714.75 -425.938 715.44 C-426.71 715.506 -427.483 715.573 -428.278 715.641 C-442.131 716.807 -455.902 717.075 -469.797 716.88 C-478.273 716.72 -478.273 716.72 -486.715 717.362 C-490.319 717.786 -492.916 717.668 -496.438 716.94 C-501.242 716.017 -505.913 715.494 -510.797 715.256 C-513.856 714.768 -516.496 713.693 -519.368 712.566 C-523.218 711.249 -527.169 710.741 -531.188 710.19 C-532.066 710.063 -532.944 709.936 -533.849 709.805 C-538.855 709.106 -543.826 708.603 -548.875 708.315 C-553.871 708.013 -558.71 707.414 -563.625 706.502 C-564.833 706.279 -566.041 706.056 -567.286 705.827 C-570.851 704.726 -572.871 703.369 -575.563 700.815 C-578.767 694.408 -576.141 684.719 -575.063 677.94 C-574.779 676.11 -574.498 674.279 -574.219 672.448 C-574.094 671.653 -573.968 670.857 -573.838 670.038 C-573.481 667.527 -573.481 667.527 -573.563 663.815 C-576.871 662.161 -580.589 662.409 -584.235 662.202 C-586.033 662.087 -587.831 661.972 -589.629 661.856 C-592.452 661.678 -595.276 661.505 -598.1 661.344 C-621.048 660.016 -621.048 660.016 -630.563 655.815 C-632.563 652.815 -632.563 652.815 -632.375 649.252 C-631.563 645.815 -631.563 645.815 -628.563 643.815 C-626.125 643.377 -626.125 643.377 -623.563 643.815 C-621.188 646.002 -621.188 646.002 -619.563 648.815 C-619.961 651.491 -619.961 651.491 -620.563 653.815 C-605.129 656.107 -590.164 657.23 -574.563 656.815 C-573.052 654.067 -572.254 651.803 -571.887 648.694 C-571.784 647.858 -571.68 647.022 -571.574 646.161 C-571.467 645.242 -571.36 644.324 -571.25 643.377 C-570.999 641.336 -570.746 639.294 -570.493 637.252 C-570.351 636.1 -570.208 634.948 -570.062 633.76 C-569.162 626.642 -568.188 619.533 -567.222 612.424 C-566.877 609.885 -566.532 607.346 -566.189 604.807 C-565.647 600.81 -565.105 596.812 -564.563 592.815 C-565.671 592.531 -566.78 592.247 -567.921 591.954 C-572.173 590.624 -573.235 589.537 -575.563 585.815 C-586.23 564.071 -589.871 537.762 -595.004 514.247 C-598.128 499.951 -601.513 485.745 -605.125 471.565 C-608.963 456.503 -612.49 441.407 -615.731 426.206 C-617.688 417.041 -619.733 407.921 -622.122 398.858 C-622.332 398.057 -622.543 397.256 -622.76 396.431 C-623.758 392.661 -624.775 388.896 -625.821 385.139 C-630.61 367.622 -630.61 367.622 -627.568 360.479 C-625.563 358.815 -625.563 358.815 -621.773 358.778 C-620.195 358.969 -618.62 359.184 -617.047 359.417 C-615.778 359.578 -615.778 359.578 -614.484 359.743 C-612.713 359.971 -610.943 360.208 -609.174 360.453 C-606.747 360.79 -604.318 361.101 -601.885 361.4 C-598.809 361.779 -595.735 362.167 -592.661 362.565 C-560.119 366.773 -527.483 369.855 -494.813 372.877 C-494.104 372.943 -493.394 373.009 -492.663 373.076 C-471.923 374.997 -471.923 374.997 -451.168 376.76 C-450.352 376.827 -449.536 376.894 -448.694 376.963 C-445.167 377.25 -441.639 377.529 -438.109 377.79 C-407.889 380.19 -407.889 380.19 -400.167 388.345 C-397.098 392.101 -395.597 396.153 -393.997 400.69 C-393.681 401.555 -393.365 402.42 -393.04 403.311 C-392.013 406.141 -391.006 408.977 -390 411.815 C-389.29 413.795 -388.579 415.776 -387.868 417.756 C-380.554 438.246 -374.049 458.972 -367.756 479.794 C-363.394 494.172 -358.698 508.403 -353.78 522.6 C-347.066 542.023 -340.706 561.426 -335.488 581.306 C-334.507 585.027 -333.495 588.74 -332.477 592.452 C-329.92 601.805 -329.92 601.805 -328.778 606.057 C-328.542 606.932 -328.306 607.807 -328.063 608.709 C-327.563 610.815 -327.563 610.815 -327.563 612.815 C-326.944 612.801 -326.325 612.787 -325.688 612.773 C-319.892 612.7 -314.403 613.075 -308.688 614.002 C-307.444 614.194 -307.444 614.194 -306.175 614.39 C-300.898 615.223 -295.644 616.158 -290.391 617.127 C-288.54 617.467 -288.54 617.467 -286.652 617.814 C-284.228 618.263 -281.805 618.721 -279.384 619.189 C-274.397 620.118 -269.683 620.943 -264.602 620.772 C-259.507 620.659 -254.948 621.68 -249.998 622.821 C-244.346 624.116 -238.653 625.195 -232.961 626.295 C-231.829 626.515 -230.696 626.734 -229.529 626.96 C-227.19 627.412 -224.85 627.863 -222.51 628.314 C-218.911 629.008 -215.313 629.707 -211.715 630.407 C-209.422 630.849 -207.129 631.291 -204.836 631.733 C-203.764 631.942 -202.691 632.152 -201.585 632.367 C-200.092 632.653 -200.092 632.653 -198.568 632.945 C-197.259 633.197 -197.259 633.197 -195.924 633.455 C-193.302 633.915 -193.302 633.915 -189.563 633.815 C-193.789 627.706 -197.435 625.608 -204.625 624.127 C-215.051 621.838 -215.051 621.838 -218.563 617.815 C-219.051 614.799 -219.051 614.799 -218.875 611.565 C-218.808 609.948 -218.808 609.948 -218.739 608.299 C-218.681 607.479 -218.623 606.66 -218.563 605.815 C-219.066 606.132 -219.57 606.45 -220.088 606.777 C-222.409 608.235 -224.736 609.681 -227.063 611.127 C-227.854 611.627 -228.646 612.126 -229.461 612.641 C-242.34 620.611 -252.471 621.038 -267.063 617.69 C-279.313 614.682 -289.918 610.363 -298.563 600.815 C-300.25 597.752 -300.25 597.752 -301.563 594.815 C-303.028 592.95 -304.571 591.188 -306.161 589.428 C-307.563 587.815 -307.563 587.815 -309.563 584.815 C-310.351 584.386 -311.138 583.956 -311.95 583.514 C-324.408 575.413 -329.308 549.226 -332.284 535.683 C-333.675 528.805 -334.71 521.882 -335.7 514.936 C-336.111 512.062 -336.523 509.188 -336.938 506.315 C-337.041 505.598 -337.144 504.881 -337.251 504.142 C-339.164 491.013 -342.386 478.739 -346.833 466.249 C-348.902 460.172 -349.674 455.454 -349.375 449.002 C-349.228 442.755 -349.228 442.755 -352.125 437.44 C-356.23 433.554 -361.251 430.951 -366.135 428.171 C-371.273 425.181 -374.781 422.174 -377.563 416.815 C-377.896 416.226 -378.228 415.637 -378.571 415.03 C-383.679 404.192 -380.11 391.215 -377.536 380.163 C-376.357 375.052 -375.496 370.202 -375.75 364.94 C-375.828 356.86 -370.783 349.635 -365.563 343.815 C-364.614 343.134 -363.665 342.454 -362.688 341.752 C-361.987 341.113 -361.285 340.474 -360.563 339.815 C-360.645 338.701 -360.728 337.587 -360.813 336.44 C-360.563 332.815 -360.563 332.815 -358.79 331.17 C-356.428 329.621 -354.014 328.217 -351.563 326.815 C-350.474 325.989 -349.389 325.157 -348.313 324.315 C-345.563 322.815 -345.563 322.815 -342.75 323.44 C-340.563 324.815 -340.563 324.815 -339.563 326.815 C-332.584 326.234 -326.353 323.79 -319.805 321.413 C-318.584 320.975 -317.363 320.537 -316.105 320.086 C-312.872 318.927 -309.643 317.76 -306.414 316.592 C-303.783 315.641 -301.149 314.695 -298.515 313.75 C-293.062 311.794 -287.609 309.832 -282.16 307.862 C-281.198 307.514 -280.235 307.166 -279.243 306.808 C-277.43 306.136 -275.63 305.425 -273.846 304.679 C-271.563 303.815 -271.563 303.815 -269.438 303.94 C-265.097 305.966 -263.789 310.453 -262.242 314.677 C-261.971 315.441 -261.699 316.204 -261.418 316.991 C-261.126 317.793 -260.834 318.595 -260.533 319.422 C-259.599 321.988 -258.674 324.557 -257.75 327.127 C-256.839 329.649 -255.926 332.17 -255.01 334.69 C-254.409 336.344 -253.811 337.999 -253.217 339.656 C-251.805 343.561 -250.337 347.411 -248.671 351.215 C-248.377 351.896 -248.083 352.578 -247.78 353.28 C-246.981 355.107 -246.156 356.923 -245.33 358.738 C-244.563 361.815 -244.563 361.815 -245.724 364.641 C-248.215 367.586 -250.433 368.125 -254.125 369.127 C-255.282 369.454 -256.438 369.78 -257.629 370.116 C-260.563 370.815 -260.563 370.815 -262.563 370.815 C-261.983 371.849 -261.983 371.849 -261.391 372.905 C-258.144 378.765 -255.156 384.637 -252.563 390.815 C-251.236 388.825 -249.923 386.824 -248.625 384.815 C-245.352 380.053 -245.352 380.053 -243.563 378.815 C-240.563 378.377 -240.563 378.377 -237.563 378.815 C-234.825 381.738 -233.74 384.78 -232.563 388.565 C-231.43 392.152 -230.254 395.653 -228.813 399.127 C-227.463 403.109 -227.305 405.68 -227.563 409.815 C-224.78 407.164 -222.56 404.514 -220.438 401.315 C-213.255 390.938 -205.646 382.44 -195.563 374.815 C-194.674 374.111 -193.784 373.407 -192.868 372.682 C-185.871 367.244 -178.52 362.523 -170.973 357.888 C-170.187 357.402 -169.4 356.917 -168.59 356.417 C-167.534 355.772 -167.534 355.772 -166.457 355.114 C-164.555 353.81 -163.034 352.593 -161.563 350.815 C-161.354 347.519 -161.569 344.337 -161.75 341.042 C-161.535 337.333 -160.826 335.73 -158.563 332.815 C-156.301 330.942 -153.945 329.32 -151.524 327.659 C-149.063 325.345 -148.847 324.151 -148.563 320.815 C-148.496 318.545 -148.478 316.273 -148.5 314.002 C-148.514 312.26 -148.514 312.26 -148.528 310.483 C-148.539 309.602 -148.551 308.722 -148.563 307.815 C-150.154 308.053 -150.154 308.053 -151.778 308.295 C-173.999 311.044 -195.888 309.182 -214.289 295.535 C-230.559 282.565 -234.451 266.33 -236.95 246.538 C-238.118 236.116 -238.622 225.823 -238.668 215.342 C-238.683 213.269 -238.698 211.195 -238.713 209.122 C-238.736 205.915 -238.75 202.71 -238.738 199.504 C-238.729 196.366 -238.758 193.23 -238.793 190.092 C-238.775 188.655 -238.775 188.655 -238.756 187.188 C-238.747 182.328 -238.747 182.328 -240.888 178.141 C-242.676 176.604 -242.676 176.604 -245.563 174.815 C-253.973 164.91 -256.744 153.609 -255.791 140.87 C-254.134 125.907 -247.312 113.965 -237.563 102.815 C-237.032 102.2 -236.501 101.585 -235.954 100.952 C-226.758 91.05 -214.303 83.801 -201.188 80.69 C-195.416 79.297 -191.617 76.908 -187.125 73.127 C-167.422 57.124 -139.66 49.983 -114.563 51.815 C-111.658 52.461 -108.858 53.262 -106.016 54.143 C-102.7 55.051 -99.977 55.112 -96.563 54.815 C-95.247 53.732 -95.247 53.732 -95.536 51.112 C-95.58 49.356 -95.58 49.356 -95.625 47.565 C-95.659 30.92 -91.818 17.219 -79.934 4.995 C-58.83 -14.406 -23.423 -17.759 0 0 Z M-89.563 56.815 C-91.322 58.853 -91.322 58.853 -92.563 60.815 C-91.524 61.372 -90.485 61.929 -89.415 62.502 C-77.977 68.723 -68.531 75.917 -58.903 84.694 C-55.844 87.467 -52.712 90.145 -49.563 92.815 C-45.85 86.007 -45.546 79.137 -46.997 71.545 C-48.968 65.337 -53.206 59.952 -58.692 56.459 C-68.614 51.398 -79.806 50.816 -89.563 56.815 Z M-179.252 103.727 C-179.664 104.271 -180.076 104.816 -180.5 105.377 C-180.939 105.927 -181.378 106.477 -181.831 107.044 C-183.65 109.325 -185.427 111.636 -187.192 113.959 C-191.99 120.015 -198.029 124.06 -205.59 125.842 C-213.58 127.489 -213.58 127.489 -219.594 132.596 C-220.919 135.989 -221.8 139.256 -222.563 142.815 C-222.872 143.929 -223.182 145.042 -223.5 146.19 C-224.698 150.553 -225.563 154.273 -225.563 158.815 C-224.576 158.985 -223.588 159.155 -222.571 159.331 C-221.289 159.573 -220.008 159.815 -218.688 160.065 C-217.412 160.297 -216.136 160.529 -214.821 160.768 C-211.563 161.815 -211.563 161.815 -210.118 163.799 C-209.563 165.815 -209.563 165.815 -209.563 167.815 C-210.512 167.65 -211.46 167.485 -212.438 167.315 C-217.139 166.63 -221.823 166.729 -226.563 166.815 C-229.081 172.881 -230.432 178.557 -231.25 185.065 C-231.442 186.563 -231.442 186.563 -231.636 188.09 C-233.36 203.577 -232.816 219.259 -232.563 234.815 C-228.967 231.423 -228.967 231.423 -227.563 226.815 C-226.573 226.815 -225.583 226.815 -224.563 226.815 C-225.518 228.442 -226.477 230.067 -227.438 231.69 C-227.972 232.595 -228.505 233.5 -229.055 234.432 C-230.563 236.815 -230.563 236.815 -232.563 238.815 C-232.458 241.647 -232.233 244.325 -231.875 247.127 C-231.776 247.938 -231.676 248.749 -231.574 249.585 C-229.463 265.924 -225.28 280.254 -211.942 290.909 C-195.149 302.863 -176.521 304.587 -156.563 303.815 C-155.34 303.77 -154.116 303.725 -152.856 303.678 C-141.293 302.679 -130.864 298.078 -120.209 293.723 C-117.34 292.739 -114.562 292.237 -111.563 291.815 C-117.467 308.721 -128.901 321.572 -141.563 333.815 C-141.233 334.805 -140.903 335.795 -140.563 336.815 C-127.854 341.051 -112.32 337.161 -100.719 331.534 C-92.688 327.467 -84.867 323.094 -77.563 317.815 C-77.694 317.262 -77.826 316.71 -77.961 316.141 C-81.715 299.886 -81.709 283.537 -81.595 266.941 C-81.517 254.873 -81.869 242.866 -82.563 230.815 C-81.903 230.815 -81.243 230.815 -80.563 230.815 C-80.315 231.784 -80.068 232.754 -79.813 233.752 C-79.194 235.268 -79.194 235.268 -78.563 236.815 C-74.654 238.441 -71.744 237.343 -67.934 235.936 C-59.202 231.807 -54.89 224.626 -51.563 215.815 C-47.865 203.062 -46.808 192.475 -53.313 180.627 C-56.648 176.459 -60.136 172.821 -65.125 170.752 C-68.744 170.845 -70.546 171.783 -73.563 173.815 C-76.571 177.252 -79.034 181.021 -81.563 184.815 C-92.13 182.956 -99.777 179.374 -106.563 170.815 C-117.802 153.412 -117.109 134.743 -116.563 114.815 C-120.227 115.473 -122.455 116.199 -125.438 118.44 C-144.394 131.453 -164.927 134.431 -187.563 132.815 C-188.905 132.518 -190.243 132.198 -191.563 131.815 C-190.604 128.3 -189.171 126.295 -186.563 123.877 C-182.998 120.47 -180.125 116.74 -177.25 112.752 C-176.818 112.163 -176.386 111.573 -175.94 110.966 C-173.394 107.377 -171.746 104.11 -170.563 99.815 C-174.969 99.116 -176.523 100.311 -179.252 103.727 Z M-75.063 320.19 C-93.984 332.874 -112.089 342.548 -135.563 340.815 C-138.56 340.162 -141.396 339.375 -144.293 338.374 C-146.904 337.731 -148.144 337.618 -150.563 338.815 C-153.2 343.109 -152.895 347.872 -152.875 352.752 C-152.892 353.538 -152.908 354.324 -152.924 355.133 C-152.928 360.112 -152.299 363.501 -149.563 367.815 C-143.53 373.847 -137.478 375.102 -129.125 375.127 C-105.721 374.912 -83.172 366.884 -66.559 350.245 C-64.449 347.677 -63.313 346.053 -62.563 342.815 C-62.963 340.091 -63.453 337.693 -64.188 335.065 C-64.375 334.359 -64.561 333.653 -64.753 332.926 C-66.207 327.625 -68.101 322.739 -70.563 317.815 C-72.337 317.815 -73.646 319.203 -75.063 320.19 Z M-283.313 331.377 C-289.397 333.441 -295.496 335.43 -301.631 337.335 C-310.268 340.025 -318.793 342.914 -327.25 346.127 C-328.587 346.634 -328.587 346.634 -329.951 347.15 C-333.453 348.503 -336.421 349.72 -339.563 351.815 C-339.28 358.951 -339.28 358.951 -335.563 364.815 C-329.042 364.211 -323.268 362.138 -317.125 359.94 C-314.826 359.129 -312.527 358.319 -310.227 357.51 C-309.001 357.077 -307.776 356.645 -306.513 356.199 C-302.276 354.709 -298.026 353.256 -293.774 351.807 C-293.042 351.557 -292.311 351.308 -291.557 351.051 C-288.649 350.058 -285.741 349.066 -282.832 348.079 C-280.802 347.389 -278.774 346.696 -276.747 346.002 C-275.577 345.604 -274.407 345.206 -273.201 344.795 C-270.674 344.065 -270.674 344.065 -269.563 342.815 C-269.15 337.936 -269.096 335.687 -271.438 331.315 C-272.139 330.49 -272.84 329.665 -273.563 328.815 C-276.969 328.815 -280.116 330.282 -283.313 331.377 Z M-346.415 334.354 C-351.13 339.9 -354.006 344.277 -353.563 351.815 C-352.903 352.145 -352.243 352.475 -351.563 352.815 C-345.365 347.149 -341.097 341.366 -340.563 332.815 C-344.452 332.389 -344.452 332.389 -346.415 334.354 Z M-58.563 343.815 C-59.642 345.274 -60.651 346.785 -61.625 348.315 C-72.813 364.68 -91.675 372.428 -110.517 376.431 C-123.224 378.817 -138.192 380.047 -149.563 372.94 C-154.427 367.772 -155.435 362.649 -156.563 355.815 C-173.659 362.061 -189.584 375.389 -202.563 387.815 C-203.806 388.963 -203.806 388.963 -205.075 390.135 C-213.907 398.548 -223.562 410.125 -227.563 421.815 C-226.53 425.336 -224.109 427.45 -221.5 429.94 C-217.66 433.62 -217.66 433.62 -216.563 435.815 C-215.573 435.815 -214.583 435.815 -213.563 435.815 C-213.514 434.704 -213.465 433.593 -213.415 432.448 C-212.821 420.119 -212.178 407.665 -205.563 396.815 C-202.25 395.002 -202.25 395.002 -198.563 395.815 C-188.06 403.957 -183.758 418.248 -179.813 430.377 C-179.428 431.519 -179.042 432.66 -178.645 433.836 C-174.346 446.861 -170.294 461.163 -176.125 474.252 C-176.601 475.179 -177.077 476.106 -177.567 477.061 C-178.813 480.506 -178.571 482.311 -177.563 485.815 C-175.279 490.057 -172.382 493.913 -169.563 497.815 C-169.104 498.454 -168.645 499.092 -168.172 499.75 C-162.41 507.718 -156.478 515.329 -149.719 522.483 C-147.563 524.815 -147.563 524.815 -145.5 527.417 C-143.789 529.535 -142.127 531.242 -140.063 533.002 C-139.377 533.588 -138.691 534.173 -137.985 534.776 C-137.186 535.449 -136.386 536.122 -135.563 536.815 C-134.547 537.682 -133.532 538.549 -132.516 539.417 C-131.449 540.321 -130.381 541.224 -129.313 542.127 C-128.318 542.969 -127.323 543.811 -126.297 544.678 C-124.046 546.438 -122.113 547.607 -119.563 548.815 C-119.158 547.574 -118.753 546.332 -118.336 545.053 C-109.743 519.329 -98.265 494.922 -85.962 470.796 C-81.586 462.105 -77.793 453.2 -74.127 444.189 C-73.702 443.153 -73.278 442.117 -72.84 441.049 C-72.472 440.134 -72.103 439.218 -71.723 438.275 C-70.575 435.841 -69.254 433.899 -67.563 431.815 C-68.491 438.437 -70.887 444.105 -73.438 450.252 C-73.692 450.869 -73.947 451.486 -74.209 452.121 C-79.068 463.854 -84.567 475.245 -90.188 486.627 C-98.803 504.08 -106.883 521.557 -113.188 540.002 C-113.437 540.728 -113.685 541.453 -113.941 542.201 C-115.651 547.418 -115.651 547.418 -115.563 552.815 C-114.074 554.481 -114.074 554.481 -112.063 555.627 C-111.088 556.256 -111.088 556.256 -110.094 556.897 C-109.589 557.2 -109.084 557.503 -108.563 557.815 C-108.893 558.805 -109.223 559.795 -109.563 560.815 C-134.404 542.127 -155.763 522.822 -173.476 497.029 C-174.1 496.122 -174.725 495.215 -175.368 494.28 C-176.214 493.034 -176.214 493.034 -177.078 491.764 C-178.424 489.701 -178.424 489.701 -180.563 488.815 C-180.698 489.554 -180.834 490.292 -180.973 491.053 C-183.038 500.785 -186.594 509.392 -194.938 515.315 C-203.332 520.229 -211.526 522.269 -221.172 520.276 C-226.469 518.815 -230.923 516.74 -235.563 513.815 C-235.002 520.705 -233.12 526.726 -230.844 533.233 C-230.467 534.326 -230.091 535.419 -229.703 536.545 C-228.903 538.859 -228.099 541.171 -227.292 543.482 C-226.084 546.942 -224.893 550.408 -223.704 553.875 C-212.676 585.775 -199.823 616.78 -176.563 641.815 C-175.997 642.425 -175.431 643.034 -174.848 643.663 C-159.124 660.401 -141.485 674.564 -117.645 676.061 C-93.077 676.726 -72.132 669.847 -54.008 653.202 C-7.227 608.366 14.541 519.36 16.545 457.483 C16.606 453.843 16.626 450.206 16.625 446.565 C16.625 444.654 16.625 444.654 16.626 442.705 C16.577 433.919 16.107 425.448 14.437 416.815 C-5.132 410.979 -28.159 418.538 -45.563 427.815 C-36.225 417.517 -20.008 413.941 -6.563 412.815 C-3.228 412.708 0.101 412.719 3.437 412.752 C4.307 412.757 5.177 412.761 6.074 412.766 C8.195 412.778 10.316 412.796 12.437 412.815 C10.246 392.766 -4.165 376.456 -19.286 364.252 C-28.761 357.045 -46.542 343.815 -58.563 343.815 Z M-361.938 347.815 C-366.392 352.427 -369.773 357.221 -369.813 363.815 C-369.73 364.805 -369.648 365.795 -369.563 366.815 C-369.127 366.44 -368.692 366.065 -368.243 365.678 C-367.647 365.166 -367.052 364.655 -366.438 364.127 C-365.805 363.571 -365.172 363.014 -364.52 362.44 C-362.563 360.815 -362.563 360.815 -360.762 359.69 C-358.813 358.523 -358.813 358.523 -356.563 355.815 C-356.063 352.096 -356.21 348.543 -356.563 344.815 C-359.336 344.815 -359.978 345.898 -361.938 347.815 Z M-357.563 361.815 C-362.921 365.363 -365.472 369.527 -368.313 375.19 C-368.698 375.92 -369.084 376.649 -369.481 377.401 C-373.549 385.283 -374.962 392.374 -375.063 401.19 C-375.104 402.085 -375.145 402.979 -375.188 403.901 C-375.27 410.991 -373.47 415.651 -368.563 420.815 C-365.357 423.375 -361.969 425.483 -358.438 427.565 C-350.972 432.058 -345.517 435.399 -342.5 443.94 C-341.316 447.284 -340.384 449.594 -337.563 451.815 C-325.811 457.328 -313.853 455.185 -302.094 451.202 C-298.989 449.982 -296.345 448.639 -293.563 446.815 C-293.625 446.236 -293.686 445.658 -293.75 445.062 C-295.781 424.525 -295.781 424.525 -288.563 414.815 C-284.748 408.744 -284.018 404.824 -285.563 397.815 C-285.787 396.758 -286.012 395.701 -286.243 394.612 C-287.254 390.171 -287.254 390.171 -288.563 385.815 C-290.49 384.583 -290.49 384.583 -292.447 385.271 C-293.212 385.543 -293.977 385.814 -294.766 386.094 C-295.633 386.398 -296.501 386.701 -297.395 387.014 C-298.335 387.351 -299.275 387.687 -300.243 388.034 C-302.223 388.725 -304.204 389.417 -306.184 390.108 C-309.315 391.211 -312.444 392.317 -315.572 393.427 C-318.584 394.492 -321.601 395.545 -324.618 396.596 C-325.553 396.933 -326.489 397.269 -327.453 397.616 C-328.327 397.919 -329.201 398.223 -330.102 398.536 C-330.868 398.807 -331.635 399.079 -332.425 399.359 C-334.883 399.883 -336.229 399.713 -338.563 398.815 C-342.087 395.219 -343.803 391.246 -345.473 386.581 C-345.993 385.189 -346.513 383.797 -347.034 382.405 C-347.836 380.224 -348.634 378.043 -349.429 375.86 C-350.205 373.743 -350.995 371.63 -351.786 369.518 C-352.02 368.861 -352.255 368.204 -352.496 367.526 C-353.231 365.491 -353.231 365.491 -354.563 362.815 C-355.553 362.485 -356.543 362.155 -357.563 361.815 Z M-284.563 361.815 C-287.782 365.263 -287.944 367.804 -287.875 372.44 C-287.872 373.587 -287.868 374.734 -287.864 375.917 C-287.858 378.94 -287.858 378.94 -285.563 380.815 C-283.149 381.399 -283.149 381.399 -280.563 380.815 C-278.194 378.512 -276.842 376.478 -275.563 373.44 C-275.563 369.532 -277.089 366.797 -279.563 363.815 C-282.154 362.324 -282.154 362.324 -284.563 361.815 Z M-273.563 367.815 C-273.501 368.805 -273.439 369.795 -273.375 370.815 C-273.375 375.123 -274.459 379.049 -276.563 382.815 C-279.751 384.94 -281.828 385.317 -285.563 385.815 C-281.611 410.352 -271.484 434.874 -256.911 454.924 C-255.563 456.815 -255.563 456.815 -254.563 458.815 C-257.741 457.462 -259.338 456.156 -261.254 453.295 C-261.959 452.256 -261.959 452.256 -262.678 451.196 C-263.156 450.472 -263.633 449.748 -264.125 449.002 C-264.848 447.934 -264.848 447.934 -265.584 446.844 C-268.017 443.227 -270.366 439.581 -272.563 435.815 C-273.553 436.31 -273.553 436.31 -274.563 436.815 C-273.032 452.616 -273.032 452.616 -266.563 466.815 C-265.989 467.664 -265.989 467.664 -265.403 468.529 C-259.392 477.311 -252.719 484.831 -245.009 492.145 C-239.966 497.067 -236.299 502.337 -232.971 508.538 C-230.236 513.458 -227.723 515.475 -222.563 517.815 C-213.949 520.107 -206.047 518.398 -198.375 514.19 C-191.162 509.575 -186.606 503.128 -184.563 494.815 C-184.274 492.797 -184.005 490.775 -183.75 488.752 C-183.06 483.546 -181.572 479.198 -179.438 474.44 C-170.979 454.535 -181.333 432.872 -188.809 414.058 C-191.041 408.551 -191.041 408.551 -194.563 403.815 C-195.223 403.815 -195.883 403.815 -196.563 403.815 C-196.756 404.73 -196.95 405.645 -197.149 406.588 C-197.409 407.777 -197.67 408.965 -197.938 410.19 C-198.193 411.373 -198.448 412.557 -198.711 413.776 C-199.563 416.815 -199.563 416.815 -201.563 418.815 C-204.251 419.085 -206.854 418.902 -209.563 418.815 C-211.682 435.694 -211.682 435.694 -207.563 451.815 C-208.223 451.815 -208.883 451.815 -209.563 451.815 C-209.82 451.281 -210.076 450.748 -210.34 450.198 C-214.796 441.527 -221.117 434.953 -228.328 428.5 C-241.241 416.937 -249.896 403.24 -258.137 388.108 C-258.573 387.311 -259.009 386.514 -259.458 385.693 C-260.293 384.156 -261.121 382.615 -261.938 381.068 C-264.565 376.211 -267.468 371.585 -271.563 367.815 C-272.223 367.815 -272.883 367.815 -273.563 367.815 Z M-244.563 385.815 C-245.058 386.97 -245.553 388.125 -246.063 389.315 C-246.481 390.289 -246.481 390.289 -246.907 391.284 C-248.047 395.68 -248.761 399.686 -246.48 403.738 C-244.99 405.657 -243.418 407.424 -241.75 409.19 C-241.203 409.805 -240.656 410.42 -240.092 411.053 C-237.674 413.732 -235.591 415.796 -232.563 417.815 C-229.925 412.54 -231.244 405.119 -232.75 399.627 C-234.331 394.981 -236.26 390.503 -239.563 386.815 C-242.222 385.693 -242.222 385.693 -244.563 385.815 Z M-202.563 398.815 C-205.607 401.663 -207.453 403.513 -207.661 407.858 C-207.649 408.566 -207.637 409.273 -207.625 410.002 C-207.605 411.261 -207.584 412.519 -207.563 413.815 C-205.088 414.31 -205.088 414.31 -202.563 414.815 C-200.174 409.938 -198.909 406.376 -199.563 400.815 C-200.553 400.155 -201.543 399.495 -202.563 398.815 Z M-282.563 412.815 C-287.595 419.734 -291.121 426.07 -289.927 434.727 C-289.4 437.752 -288.521 440.586 -287.563 443.502 C-287.115 444.88 -286.669 446.257 -286.223 447.635 C-285.967 448.426 -285.71 449.216 -285.446 450.031 C-284.389 453.363 -283.38 456.709 -282.372 460.057 C-281.779 462.012 -281.186 463.966 -280.593 465.92 C-280.01 467.844 -279.436 469.771 -278.862 471.698 C-276.976 477.873 -275.111 483.401 -271.563 488.815 C-269.793 488.896 -268.022 488.954 -266.25 489.002 C-265.264 489.037 -264.278 489.072 -263.262 489.108 C-260.517 489.058 -260.517 489.058 -258.708 487.303 C-258.33 486.812 -257.952 486.321 -257.563 485.815 C-259.05 482.492 -260.976 479.971 -263.313 477.19 C-270.329 468.48 -274.395 460.84 -276.563 449.815 C-276.739 449.051 -276.916 448.287 -277.097 447.499 C-277.596 444.625 -277.628 442.019 -277.555 439.104 C-277.538 438.024 -277.522 436.944 -277.504 435.831 C-277.46 433.578 -277.408 431.325 -277.348 429.073 C-277.266 422.83 -277.531 418.323 -280.563 412.815 C-281.223 412.815 -281.883 412.815 -282.563 412.815 Z M-294 451.627 C-302.853 456.117 -311.668 457.322 -321.5 457.19 C-322.547 457.184 -323.594 457.178 -324.672 457.172 C-332.002 457.049 -338.636 456.367 -345.563 453.815 C-345.004 460.8 -343.012 466.896 -340.75 473.502 C-336.374 486.75 -333.752 499.876 -331.684 513.647 C-327.711 539.688 -320.326 564.356 -304.563 585.815 C-303.796 586.877 -303.029 587.939 -302.239 589.034 C-290.557 604.944 -278.586 611.163 -259.688 615.19 C-241.334 617.909 -226.076 605.586 -211.563 595.815 C-213.426 590.122 -215.398 584.486 -217.5 578.877 C-235.222 531.044 -235.222 531.044 -239.305 512.432 C-241.412 502.987 -245.238 495.278 -252.563 488.815 C-255.726 489.517 -255.726 489.517 -257.063 492.19 C-259.034 496.954 -260.31 501.821 -261.563 506.815 C-264.188 506.877 -264.188 506.877 -267.563 505.815 C-279.293 493.934 -282.949 471.748 -286.731 456.151 C-287.509 452.847 -287.509 452.847 -288.563 449.815 C-290.916 449.659 -290.916 449.659 -294 451.627 Z M-532.563 450.815 C-533.768 454.428 -533.278 456.767 -532.719 460.463 C-532.563 462.815 -532.563 462.815 -533.243 465.245 C-533.703 468.939 -532.255 470.542 -530.188 473.565 C-529.541 474.529 -528.894 475.493 -528.227 476.487 C-526.763 478.669 -526.763 478.669 -525.563 479.815 C-524.12 479.908 -522.673 479.932 -521.227 479.928 C-520.306 479.928 -519.385 479.928 -518.436 479.928 C-516.935 479.92 -516.935 479.92 -515.403 479.913 C-513.873 479.91 -513.873 479.91 -512.313 479.908 C-509.042 479.903 -505.771 479.89 -502.5 479.877 C-500.289 479.872 -498.077 479.868 -495.866 479.864 C-490.431 479.853 -484.997 479.836 -479.563 479.815 C-479.7 478.401 -479.843 476.988 -479.989 475.575 C-480.068 474.788 -480.147 474.001 -480.228 473.19 C-480.742 469.547 -481.885 466.203 -483.125 462.752 C-483.359 462.078 -483.593 461.403 -483.834 460.708 C-484.402 459.074 -484.981 457.444 -485.563 455.815 C-493.383 453.994 -501.249 453.119 -509.232 452.382 C-511.324 452.189 -513.414 451.987 -515.504 451.784 C-521.205 451.242 -526.83 450.733 -532.563 450.815 Z M-479.563 483.815 C-479.355 484.633 -479.148 485.452 -478.934 486.295 C-475.371 500.443 -471.974 514.63 -468.563 528.815 C-470.01 528.689 -471.457 528.553 -472.903 528.413 C-474.111 528.301 -474.111 528.301 -475.344 528.186 C-478.059 527.732 -479.624 526.754 -481.563 524.815 C-481.233 526.465 -480.903 528.115 -480.563 529.815 C-478.98 529.984 -477.397 530.15 -475.813 530.315 C-474.49 530.454 -474.49 530.454 -473.141 530.596 C-470.33 530.871 -470.33 530.871 -466.563 530.815 C-466.935 522.259 -468.748 514.248 -470.947 506.015 C-471.505 503.925 -472.049 501.831 -472.592 499.737 C-474.688 491.65 -474.688 491.65 -477.563 483.815 C-478.223 483.815 -478.883 483.815 -479.563 483.815 Z M-520.563 486.815 C-520.563 487.145 -520.563 487.475 -520.563 487.815 C-516.489 488.412 -512.414 489 -508.338 489.579 C-506.951 489.777 -505.565 489.978 -504.179 490.181 C-502.187 490.473 -500.193 490.756 -498.2 491.038 C-497 491.21 -495.801 491.383 -494.566 491.561 C-491.514 492.018 -491.514 492.018 -488.563 490.815 C-491.355 489.27 -493.624 488.506 -496.793 488.182 C-497.597 488.098 -498.401 488.015 -499.229 487.928 C-500.061 487.85 -500.893 487.771 -501.75 487.69 C-502.97 487.56 -502.97 487.56 -504.213 487.428 C-509.688 486.879 -515.062 486.738 -520.563 486.815 Z M-549.563 488.815 C-550.674 492.149 -550.995 495.149 -551.36 498.647 C-551.513 500.079 -551.666 501.51 -551.819 502.942 C-551.899 503.703 -551.979 504.463 -552.062 505.247 C-553.174 515.794 -554.3 526.331 -555.833 536.827 C-558.859 557.725 -560.539 578.486 -561.487 599.586 C-561.975 610.03 -562.743 620.207 -564.53 630.514 C-565.547 636.408 -565.952 642.143 -566 648.127 C-566.321 661.525 -568.232 674.64 -570.212 687.874 C-570.532 690.558 -570.63 693.116 -570.563 695.815 C-569.924 696.104 -569.284 696.392 -568.625 696.69 C-566.563 697.815 -566.563 697.815 -565.563 699.815 C-557.5 702.851 -548.995 704.427 -540.514 705.776 C-537.266 706.298 -534.164 706.93 -531 707.842 C-526.365 709.154 -521.742 709.611 -516.965 710.155 C-514.464 710.473 -512.103 710.929 -509.652 711.537 C-499.198 714.114 -489.218 714.282 -478.5 714.19 C-477.107 714.184 -477.107 714.184 -475.685 714.179 C-462.23 714.117 -448.848 713.593 -435.438 712.502 C-434.701 712.444 -433.963 712.385 -433.203 712.325 C-428.31 711.923 -423.435 711.422 -418.563 710.815 C-417.794 710.72 -417.025 710.625 -416.232 710.527 C-413.881 710.221 -411.539 709.878 -409.196 709.522 C-408.115 709.38 -408.115 709.38 -407.012 709.236 C-403.504 708.656 -401.87 708.191 -399.586 705.396 C-398.379 702.813 -398.379 702.813 -398.563 699.815 C-401.639 698.918 -404.39 698.685 -407.589 698.678 C-408.594 698.675 -409.6 698.672 -410.636 698.67 C-411.727 698.674 -412.818 698.678 -413.942 698.682 C-415.088 698.684 -416.233 698.687 -417.413 698.689 C-432.424 698.77 -447.417 699.454 -462.412 700.111 C-466.179 700.274 -469.947 700.424 -473.715 700.573 C-474.865 700.627 -476.015 700.681 -477.199 700.737 C-478.256 700.777 -479.314 700.817 -480.403 700.858 C-481.33 700.898 -482.258 700.938 -483.213 700.98 C-485.563 700.815 -485.563 700.815 -488.563 698.815 C-491.327 685.398 -490.764 670.909 -490.75 657.252 C-490.751 656.422 -490.751 655.591 -490.752 654.735 C-490.745 643.109 -490.278 631.666 -489.071 620.096 C-488.287 612.484 -488.064 604.848 -487.799 597.204 C-487.657 593.232 -487.496 589.262 -487.308 585.292 C-486.574 569.469 -486.375 553.661 -486.378 537.824 C-486.378 534.331 -486.364 530.839 -486.347 527.346 C-486.333 523.958 -486.334 520.57 -486.333 517.182 C-486.322 515.32 -486.322 515.32 -486.311 513.42 C-486.226 504.887 -486.226 504.887 -488.563 496.815 C-492.653 493.086 -498.034 492.886 -503.325 492.209 C-504.743 492.016 -504.743 492.016 -506.191 491.819 C-508.19 491.549 -510.189 491.284 -512.19 491.025 C-515.224 490.631 -518.256 490.218 -521.288 489.801 C-523.237 489.54 -525.187 489.281 -527.137 489.022 C-528.48 488.839 -528.48 488.839 -529.85 488.653 C-539.915 486.968 -539.915 486.968 -549.563 488.815 Z M-2.563 567.815 C-3.19 569.204 -3.19 569.204 -3.829 570.622 C-5.412 574.131 -6.999 577.638 -8.587 581.145 C-9.268 582.649 -9.948 584.154 -10.626 585.66 C-11.614 587.851 -12.605 590.04 -13.598 592.229 C-13.925 592.949 -14.252 593.67 -14.589 594.412 C-17.323 600.39 -20.27 606.243 -23.311 612.07 C-24.771 614.767 -24.771 614.767 -24.563 617.815 C-18.953 618.145 -13.343 618.475 -7.563 618.815 C-7.563 619.805 -7.563 620.795 -7.563 621.815 C-8.253 621.72 -8.942 621.624 -9.653 621.526 C-18.809 620.444 -18.809 620.444 -27.563 622.815 C-29.75 624.899 -31.338 627.051 -32.563 629.815 C-32.563 630.805 -32.563 631.795 -32.563 632.815 C-22.945 633.288 -14.175 631.121 -5.563 626.815 C-4.279 624.247 -4.32 622.229 -4.174 619.355 C-4.114 618.214 -4.054 617.073 -3.992 615.898 C-3.902 614.043 -3.902 614.043 -3.809 612.151 C-3.744 610.889 -3.679 609.626 -3.612 608.326 C-3.439 604.969 -3.27 601.612 -3.104 598.255 C-2.933 594.829 -2.756 591.404 -2.581 587.979 C-2.237 581.258 -1.898 574.537 -1.563 567.815 C-1.893 567.815 -2.223 567.815 -2.563 567.815 Z M-210.563 599.815 C-213.192 605.187 -214.171 609.86 -214.563 615.815 C-208.91 619.624 -204.337 620.542 -197.563 620.815 C-203.232 610.121 -203.232 610.121 -209.563 599.815 C-209.893 599.815 -210.223 599.815 -210.563 599.815 Z M-484.563 610.815 C-486.4 618.229 -486.799 625.192 -486.563 632.815 C-484.651 632.748 -484.651 632.748 -482.563 631.815 C-480.787 629.268 -480.787 629.268 -479.375 626.127 C-478.866 625.092 -478.357 624.057 -477.833 622.991 C-476.594 619.892 -475.974 617.116 -475.563 613.815 C-479.901 611.653 -479.901 611.653 -484.563 610.815 Z M-37.563 638.815 C-38.98 640.382 -40.347 641.995 -41.688 643.627 C-42.433 644.521 -43.178 645.414 -43.946 646.334 C-44.479 647.153 -45.013 647.972 -45.563 648.815 C-45.233 649.805 -44.903 650.795 -44.563 651.815 C-42.253 652.145 -39.943 652.475 -37.563 652.815 C-36.357 648.143 -36.469 643.6 -36.563 638.815 C-36.893 638.815 -37.223 638.815 -37.563 638.815 Z M-487.563 684.815 C-487.503 686.42 -487.414 688.024 -487.313 689.627 C-487.267 690.521 -487.22 691.414 -487.172 692.334 C-486.777 694.905 -486.777 694.905 -484.845 696.449 C-482.127 698.076 -480.584 698.176 -477.434 698.143 C-475.901 698.136 -475.901 698.136 -474.337 698.13 C-473.236 698.108 -472.135 698.087 -471 698.065 C-469.285 698.047 -469.285 698.047 -467.535 698.03 C-439.694 699.01 -439.694 699.01 -412.563 694.815 C-412.563 694.155 -412.563 693.495 -412.563 692.815 C-417.133 691.69 -421.705 690.569 -426.278 689.452 C-427.831 689.072 -429.383 688.691 -430.936 688.308 C-433.177 687.757 -435.419 687.209 -437.661 686.663 C-438.346 686.493 -439.032 686.323 -439.739 686.148 C-446.594 684.486 -453.09 683.688 -460.141 683.682 C-460.834 683.681 -461.528 683.68 -462.242 683.679 C-463.694 683.679 -465.146 683.68 -466.598 683.685 C-468.821 683.69 -471.043 683.685 -473.266 683.678 C-474.683 683.679 -476.099 683.68 -477.516 683.682 C-478.796 683.683 -480.077 683.684 -481.396 683.686 C-484.588 683.669 -484.588 683.669 -487.563 684.815 Z " fill="#000000" transform="translate(690.56298828125,69.18505859375)"/>
<path d="M0 0 C5.574 0.242 8.257 3.765 11.875 7.562 C12.497 8.2 13.119 8.838 13.76 9.494 C17.457 13.308 21.055 17.189 24.465 21.262 C26.728 23.824 29.258 26.091 31.812 28.359 C33 30 33 30 32.688 32.203 C32.461 32.796 32.234 33.389 32 34 C27.115 33.852 24.961 31.353 21.797 28 C19.559 25.509 17.352 22.995 15.176 20.449 C13.378 18.426 11.545 16.469 9.668 14.52 C9.076 13.9 8.484 13.28 7.874 12.641 C6.679 11.394 5.477 10.155 4.267 8.924 C3.716 8.346 3.165 7.767 2.598 7.172 C1.848 6.4 1.848 6.4 1.082 5.612 C0 4 0 4 0 0 Z " fill="#000000" transform="translate(457,66)"/>
<path d="M0 0 C1.667 2.501 2.698 4.566 3.812 7.312 C7.618 15.865 12.818 19.742 21 24 C23.725 24.908 25.622 25.184 28.449 25.316 C29.721 25.379 29.721 25.379 31.018 25.443 C31.899 25.483 32.78 25.522 33.688 25.562 C34.58 25.606 35.473 25.649 36.393 25.693 C38.595 25.799 40.797 25.901 43 26 C42.67 27.32 42.34 28.64 42 30 C28.655 30.701 19.446 28.879 9.164 20.082 C3.941 15.057 0.199 9.571 -0.125 2.125 C-0.084 1.424 -0.042 0.722 0 0 Z " fill="#000000" transform="translate(179,96)"/>
<path d="M0 0 C3.55 4.962 3.118 12.177 3.688 18.062 C3.787 19.075 3.787 19.075 3.888 20.108 C5.973 41.788 4.473 61.078 -5 81 C-5.418 81.911 -5.835 82.823 -6.266 83.762 C-12.428 96.174 -22.803 107.403 -36.078 112.086 C-43.692 114.171 -50.255 114.647 -58 113 C-66.759 140.736 -67.335 169.238 -67 198 C-66.825 197.257 -66.649 196.513 -66.469 195.747 C-51.366 132.246 -51.366 132.246 -24.012 114.727 C-10.113 107.072 5.178 107.82 20 112 C33.984 116.707 44.562 124.87 55 135 C55.555 135.53 56.111 136.059 56.683 136.605 C74.208 153.333 74.208 153.333 76.25 161.812 C76 165 76 165 73.918 167.648 C70.363 170.514 68.586 170.684 64.062 170.812 C63.377 170.835 62.692 170.857 61.986 170.88 C60.475 170.922 58.964 170.951 57.453 170.969 C54.864 171.002 52.279 171.077 49.691 171.152 C25.511 171.685 -3.694 167.889 -22.062 150.562 C-27.96 144.191 -30.497 137.193 -33 129 C-50.394 150.259 -58.145 176.75 -61.641 203.699 C-62 206 -62 206 -63 208 C-62.071 208.015 -61.143 208.029 -60.186 208.044 C-56.745 208.105 -53.305 208.179 -49.865 208.262 C-48.375 208.296 -46.886 208.324 -45.396 208.346 C-43.255 208.38 -41.116 208.432 -38.977 208.488 C-37.044 208.528 -37.044 208.528 -35.073 208.568 C-34.059 208.71 -33.045 208.853 -32 209 C-30 212 -30 212 -30.102 213.812 C-30.361 214.895 -30.361 214.895 -30.625 216 C-30.925 217.361 -30.925 217.361 -31.23 218.75 C-31.779 221.066 -32.346 223.379 -32.926 225.688 C-35.88 238.033 -36.995 250.361 -37.873 262.994 C-39.314 282.783 -39.314 282.783 -45 290 C-58.927 299.999 -84.864 295.461 -101 293 C-107.428 291.765 -111.842 290.365 -116 285 C-116.866 282.401 -117.195 280.584 -117.373 277.9 C-117.43 277.071 -117.487 276.242 -117.545 275.388 C-117.602 274.487 -117.66 273.585 -117.719 272.656 C-117.781 271.711 -117.844 270.765 -117.908 269.791 C-118.111 266.695 -118.306 263.597 -118.5 260.5 C-118.567 259.451 -118.634 258.402 -118.703 257.322 C-119.914 238.221 -120.657 219.134 -121 200 C-117.562 199.159 -115.047 198.949 -111.594 199.707 C-110.363 199.968 -110.363 199.968 -109.106 200.233 C-107.816 200.52 -107.816 200.52 -106.5 200.812 C-104.714 201.191 -102.928 201.567 -101.141 201.941 C-100.269 202.125 -99.397 202.308 -98.498 202.497 C-93.364 203.531 -88.187 204.281 -83 205 C-86.176 180.495 -90.799 149.656 -110 132 C-112.092 130.826 -112.092 130.826 -114 130 C-113.918 131.238 -113.835 132.475 -113.75 133.75 C-113.862 145.746 -119.731 155.69 -128 164 C-131.462 166.845 -135.001 168.992 -139 171 C-139.924 171.469 -140.849 171.938 -141.801 172.422 C-155.484 178.717 -169.098 179.276 -183.875 179.312 C-184.605 179.316 -185.334 179.32 -186.086 179.324 C-188.18 179.329 -190.273 179.318 -192.367 179.301 C-193.596 179.292 -194.824 179.284 -196.089 179.275 C-199 179 -199 179 -201 177 C-200.811 170.975 -198.623 166.87 -195.562 161.875 C-195.118 161.137 -194.674 160.398 -194.216 159.637 C-183.3 141.84 -169.855 126.543 -149 120.75 C-144.481 119.856 -139.966 119.791 -135.375 119.75 C-134.658 119.741 -133.942 119.731 -133.203 119.722 C-128.48 119.75 -124.542 120.585 -120 122 C-118.907 122.041 -117.814 122.082 -116.688 122.125 C-109.121 123.92 -102.83 130.197 -98.488 136.52 C-87.528 154.786 -76 181.485 -76 203 C-75.34 203 -74.68 203 -74 203 C-74.958 186.749 -76.559 170.922 -80 155 C-80.263 153.739 -80.526 152.479 -80.797 151.18 C-84.212 136.777 -89.695 117.693 -99 106 C-103.102 104.462 -106.71 105.067 -111 105.625 C-129.872 107.257 -146.65 97.718 -161 86.438 C-181.362 68.946 -194.049 41.057 -196.211 14.398 C-196.25 12.188 -196.25 12.188 -196 9 C-193.701 6.701 -187.932 7.627 -184.756 7.617 C-157.088 8.131 -130.445 23.609 -109 40 C-108.195 40.605 -108.195 40.605 -107.375 41.222 C-95.256 50.414 -85.934 61.054 -83.629 76.484 C-83.202 84.401 -85.303 93.693 -89.512 100.414 C-90.003 100.937 -90.494 101.461 -91 102 C-91.66 102 -92.32 102 -93 102 C-92.547 102.971 -92.547 102.971 -92.085 103.962 C-83.261 123.038 -77.294 141.467 -73 162 C-72.842 160.8 -72.842 160.8 -72.68 159.576 C-68.986 131.726 -68.986 131.726 -66.516 120.555 C-65.901 117.944 -65.901 117.944 -66 115 C-67.639 113.372 -67.639 113.372 -69.75 111.812 C-75.733 106.793 -77.972 101.665 -79 94 C-80.463 73.605 -75.018 54.852 -62 39 C-60.983 37.755 -60.983 37.755 -59.945 36.484 C-47.058 21.473 -31.404 11.973 -13.812 3.375 C-12.903 2.924 -11.994 2.474 -11.057 2.01 C-10.199 1.602 -9.341 1.194 -8.457 0.773 C-7.694 0.407 -6.93 0.04 -6.144 -0.338 C-3.587 -1.128 -2.425 -1.131 0 0 Z M-12.625 7.992 C-13.49 8.445 -14.355 8.898 -15.246 9.365 C-16.609 10.113 -16.609 10.113 -18 10.875 C-18.939 11.381 -19.878 11.887 -20.845 12.408 C-42.959 24.506 -59.75 39.638 -70 63 C-70.362 63.806 -70.724 64.611 -71.098 65.441 C-74.404 74.285 -75.074 86.89 -71.793 95.824 C-68.792 102.287 -68.792 102.287 -63 106 C-60.205 102.088 -57.931 98.744 -57 94 C-57.753 90.869 -59.03 88.043 -60.375 85.125 C-60.718 84.341 -61.061 83.558 -61.414 82.75 C-62.259 80.826 -63.127 78.912 -64 77 C-63.01 77 -62.02 77 -61 77 C-60.732 77.866 -60.464 78.733 -60.188 79.625 C-59.029 82.918 -57.618 85.911 -56 89 C-52.673 88.257 -52.673 88.257 -51.105 84.762 C-50.455 83.409 -49.816 82.051 -49.188 80.688 C-48.85 80.01 -48.513 79.333 -48.166 78.635 C-46.3 74.913 -46.3 74.913 -46.637 70.934 C-47.087 70.296 -47.536 69.657 -48 69 C-48.896 66.8 -49.77 64.591 -50.625 62.375 C-51.071 61.228 -51.517 60.08 -51.977 58.898 C-53 56 -53 56 -53 54 C-52.01 54 -51.02 54 -50 54 C-48.02 58.29 -46.04 62.58 -44 67 C-39.862 62.862 -37.528 59.055 -34.75 54 C-34.291 53.193 -33.832 52.386 -33.359 51.555 C-32.926 50.774 -32.493 49.992 -32.047 49.188 C-31.653 48.48 -31.26 47.772 -30.854 47.043 C-29.477 43.75 -29.897 41.31 -31 38 C-30.117 38.162 -29.234 38.325 -28.324 38.492 C-25.052 38.358 -25.052 38.358 -23.616 36.532 C-22.247 34.441 -21.013 32.317 -19.812 30.125 C-18.97 28.645 -18.123 27.169 -17.27 25.695 C-16.904 25.035 -16.539 24.376 -16.163 23.696 C-15 22 -15 22 -12 20 C-12.333 20.53 -12.666 21.059 -13.01 21.605 C-14.513 24.003 -16.007 26.408 -17.5 28.812 C-18.025 29.646 -18.549 30.479 -19.09 31.338 C-19.586 32.14 -20.082 32.943 -20.594 33.77 C-21.285 34.877 -21.285 34.877 -21.99 36.007 C-23.226 38.074 -23.226 38.074 -23 41 C-17.72 41.99 -12.44 42.98 -7 44 C-11 45 -11 45 -14.391 44.641 C-18.707 44.204 -21.748 44.1 -26 45 C-29.883 48.76 -31.852 53.089 -34 58 C-34.523 59.093 -35.047 60.186 -35.586 61.312 C-36.784 63.855 -37.919 66.407 -39 69 C-36.772 70.114 -35.411 70.179 -32.938 70.281 C-32.141 70.319 -31.344 70.356 -30.523 70.395 C-29.274 70.447 -29.274 70.447 -28 70.5 C-26.354 70.569 -24.708 70.642 -23.062 70.719 C-22.332 70.749 -21.601 70.779 -20.848 70.811 C-19 71 -19 71 -17 72 C-19.133 74.133 -23.725 73.421 -26.688 73.562 C-27.491 73.606 -28.295 73.649 -29.123 73.693 C-33.42 73.915 -37.696 74.049 -42 74 C-43.343 76.766 -44.673 79.539 -46 82.312 C-46.382 83.098 -46.763 83.884 -47.156 84.693 C-47.517 85.451 -47.878 86.208 -48.25 86.988 C-48.585 87.685 -48.92 88.381 -49.266 89.099 C-50.18 91.127 -50.18 91.127 -50 94 C-49.145 94.075 -49.145 94.075 -48.272 94.152 C-45.701 94.383 -43.132 94.629 -40.562 94.875 C-39.665 94.954 -38.767 95.032 -37.842 95.113 C-36.561 95.239 -36.561 95.239 -35.254 95.367 C-34.463 95.441 -33.672 95.514 -32.858 95.589 C-32.245 95.725 -31.632 95.86 -31 96 C-30.67 96.66 -30.34 97.32 -30 98 C-37.59 97.67 -45.18 97.34 -53 97 C-53.99 100.3 -54.98 103.6 -56 107 C-54.784 108.432 -54.784 108.432 -51.188 108.312 C-39.049 108.139 -29.107 101.974 -20.438 94 C-5.611 78.629 -0.432 57.304 -0.688 36.562 C-0.683 34.609 -0.683 34.609 -0.678 32.615 C-0.726 23.89 -1.542 15.596 -3 7 C-7.011 5.867 -8.957 6.047 -12.625 7.992 Z M-188 12 C-184.528 15.703 -181.083 18.372 -176.75 21 C-163.957 28.985 -152.288 38.527 -140.953 48.441 C-138.35 50.697 -135.706 52.87 -133 55 C-129.979 51.979 -130.533 48.436 -130.375 44.375 C-130.336 43.573 -130.298 42.771 -130.258 41.945 C-130.163 39.964 -130.081 37.982 -130 36 C-129.01 36 -128.02 36 -127 36 C-127.083 36.675 -127.165 37.349 -127.25 38.044 C-129.464 51.357 -129.464 51.357 -125.945 63.68 C-123.421 66.087 -120.866 68.024 -118 70 C-117.459 70.737 -116.917 71.475 -116.359 72.234 C-115.911 72.817 -115.462 73.4 -115 74 C-114.01 74 -113.02 74 -112 74 C-111.662 72.105 -111.329 70.209 -111 68.312 C-110.722 66.729 -110.722 66.729 -110.438 65.113 C-110.049 62.351 -109.917 59.783 -110 57 C-109.01 57 -108.02 57 -107 57 C-107.088 57.648 -107.176 58.297 -107.266 58.965 C-109.414 74.189 -109.414 74.189 -104.136 88.052 C-101.876 90.85 -99.546 93.458 -97 96 C-96.01 95.67 -95.02 95.34 -94 95 C-90.046 86.506 -89.179 76.664 -92.066 67.684 C-100.713 49.236 -119.654 37.485 -137 28 C-137.632 27.651 -138.265 27.302 -138.916 26.942 C-153.647 18.911 -170.945 11.38 -188 12 Z M-190 18 C-188.28 39.31 -178.26 59.316 -164 75 C-163.416 75.654 -162.832 76.307 -162.23 76.98 C-150.031 89.923 -132.676 98.509 -115 100 C-110.941 99.94 -107.009 99.63 -103 99 C-104.528 94.38 -107.033 91.023 -110 87.25 C-110.451 86.661 -110.902 86.072 -111.367 85.465 C-113.766 82.255 -113.766 82.255 -117 80 C-118.624 80.489 -120.248 80.98 -121.869 81.479 C-125.931 82.472 -130.087 82.479 -134.25 82.625 C-135.147 82.664 -136.044 82.702 -136.969 82.742 C-140.316 82.882 -143.65 83 -147 83 C-146.505 82.01 -146.505 82.01 -146 81 C-143.823 80.513 -143.823 80.513 -140.977 80.184 C-139.956 80.059 -138.935 79.935 -137.883 79.807 C-136.808 79.685 -135.733 79.563 -134.625 79.438 C-132.513 79.189 -130.401 78.938 -128.289 78.684 C-127.348 78.576 -126.406 78.468 -125.436 78.357 C-122.868 78.053 -122.868 78.053 -120 77 C-121.608 73.018 -124.38 70.287 -127.375 67.312 C-127.857 66.814 -128.339 66.316 -128.836 65.803 C-131.488 63.147 -133.295 61.585 -137 61 C-139.097 61.04 -139.097 61.04 -141.266 61.34 C-142.074 61.433 -142.882 61.527 -143.715 61.623 C-144.551 61.727 -145.388 61.831 -146.25 61.938 C-152.216 62.663 -157.987 63.118 -164 63 C-164 62.01 -164 61.02 -164 60 C-163.385 59.98 -162.77 59.96 -162.136 59.94 C-159.34 59.845 -156.545 59.735 -153.75 59.625 C-152.298 59.579 -152.298 59.579 -150.816 59.531 C-149.882 59.493 -148.947 59.454 -147.984 59.414 C-147.126 59.383 -146.267 59.351 -145.382 59.319 C-142.872 58.983 -141.181 58.258 -139 57 C-151.434 44.873 -165.846 35.145 -180.02 25.184 C-182.204 23.583 -184.263 21.968 -186.324 20.223 C-188.548 17.894 -188.548 17.894 -190 18 Z M-24 122 C-24.952 124.121 -24.952 124.121 -25 126 C-25.99 126 -26.98 126 -28 126 C-25.099 138.19 -19.133 146.923 -8.453 153.59 C0.207 158.291 9.485 160.689 19 163 C19.975 163.237 20.949 163.474 21.953 163.719 C37.115 167.045 52.806 166.827 68 164 C68 153.431 56.792 143.87 49.836 136.746 C36.752 123.744 20.3 114.281 1.562 113.562 C-7.306 113.786 -17.215 115.969 -24 122 Z M-178.473 144.914 C-188.91 157.71 -188.91 157.71 -194 173 C-172.589 176.232 -151.151 172.778 -133.004 160.668 C-125.28 154.699 -120.208 145.403 -118 136 C-117.773 135.093 -117.546 134.185 -117.312 133.25 C-118.362 129.815 -120.852 128.775 -123.859 127.016 C-142.966 117.951 -166.111 130.346 -178.473 144.914 Z M-118 203 C-118.116 206.104 -118.187 209.207 -118.25 212.312 C-118.284 213.194 -118.317 214.075 -118.352 214.982 C-118.555 219.842 -118.555 219.842 -116.438 224 C-113.247 225.309 -110.136 226.029 -106.75 226.688 C-105.487 226.939 -104.223 227.19 -102.922 227.449 C-101.958 227.631 -100.993 227.813 -100 228 C-103.56 229.187 -106.438 229.097 -110.188 229.062 C-111.46 229.053 -112.732 229.044 -114.043 229.035 C-115.507 229.018 -115.507 229.018 -117 229 C-117.129 237.337 -116.807 245.632 -116.31 253.952 C-116.228 255.361 -116.152 256.769 -116.081 258.178 C-115.651 272.44 -115.651 272.44 -109.625 284.938 C-96.695 293.973 -70.276 292.809 -55.125 290.25 C-51.246 289.258 -48.648 288.129 -46 285 C-41.116 274.719 -40.639 262.466 -39.875 251.312 C-39.745 249.527 -39.745 249.527 -39.613 247.705 C-39.404 244.804 -39.199 241.902 -39 239 C-47.907 236.911 -56.415 235.716 -65.548 235.344 C-81.345 234.655 -81.345 234.655 -84 232 C-82.907 232.083 -82.907 232.083 -81.791 232.168 C-64.338 233.496 -64.338 233.496 -46.875 234.688 C-46.178 234.736 -45.482 234.784 -44.764 234.834 C-43.178 234.93 -41.589 234.972 -40 235 C-38.436 233.436 -38.559 231.689 -38.246 229.527 C-38.048 228.179 -38.048 228.179 -37.846 226.803 C-37.644 225.384 -37.644 225.384 -37.438 223.938 C-37.299 222.988 -37.16 222.039 -37.018 221.061 C-36.675 218.708 -36.336 216.354 -36 214 C-39.39 212.944 -42.314 213.005 -45.848 213.145 C-55.199 213.209 -64.249 211.678 -73.458 210.174 C-76.427 209.689 -79.398 209.219 -82.369 208.752 C-92.003 207.223 -101.584 205.574 -111.121 203.527 C-114.168 202.88 -114.168 202.88 -118 203 Z " fill="#000000" transform="translate(324,120)"/>
<path d="M0 0 C1.348 0.636 2.686 1.295 4 2 C3.67 3.65 3.34 5.3 3 7 C-1.542 7.317 -5.274 6.757 -9.688 5.625 C-16.532 3.922 -23.346 3.265 -30.372 2.735 C-31.617 2.632 -31.617 2.632 -32.887 2.527 C-33.631 2.473 -34.376 2.419 -35.143 2.363 C-37 2 -37 2 -39 0 C-39 -0.99 -39 -1.98 -39 -3 C-28.796 -8.102 -10.308 -3.032 0 0 Z " fill="#000000" transform="translate(551,229)"/>
<path d="M0 0 C1.98 0.495 1.98 0.495 4 1 C7.657 18.829 9.313 37.306 4 55 C3.34 55.99 2.68 56.98 2 58 C1.34 58 0.68 58 0 58 C-1 55 -1 55 -0.074 51.293 C1.424 45.057 1.263 38.791 1.206 32.418 C1.188 30.334 1.185 28.25 1.186 26.166 C1.162 17.403 0.745 8.735 0 0 Z " fill="#000000" transform="translate(493,231)"/>
<path d="M0 0 C-1.138 3.414 -2.587 4.342 -5.625 5.938 C-7.611 7.093 -7.611 7.093 -9 9 C-9.427 12.47 -9.315 15.654 -9.051 19.137 C-9.034 20.082 -9.017 21.026 -9 22 C-9.66 22.66 -10.32 23.32 -11 24 C-12.351 19.692 -13 16.58 -13 12 C-17.29 11.01 -21.58 10.02 -26 9 C-26 8.34 -26 7.68 -26 7 C-25.264 7.058 -24.528 7.116 -23.77 7.176 C-17.484 7.63 -17.484 7.63 -12.188 4.688 C-11.105 3.357 -11.105 3.357 -10 2 C-3.982 -1.685 -3.982 -1.685 0 0 Z " fill="#000000" transform="translate(327,242)"/>
<path d="M0 0 C0.536 0.248 1.072 0.495 1.625 0.75 C0.376 4.209 -1.05 6.897 -3.375 9.75 C1.207 12.145 5.653 14.258 10.625 15.75 C11.058 14.822 11.058 14.822 11.5 13.875 C12.625 11.75 12.625 11.75 14.625 9.75 C17.25 10.125 17.25 10.125 19.625 10.75 C19.227 13.636 18.835 14.572 16.562 16.5 C15.923 16.913 15.284 17.325 14.625 17.75 C15.191 18.004 15.757 18.258 16.34 18.52 C17.073 18.864 17.807 19.208 18.562 19.562 C19.293 19.899 20.024 20.235 20.777 20.582 C22.625 21.75 22.625 21.75 23.625 24.75 C21.315 24.09 19.005 23.43 16.625 22.75 C16.666 23.864 16.707 24.978 16.75 26.125 C16.625 29.75 16.625 29.75 14.625 31.75 C13.635 31.75 12.645 31.75 11.625 31.75 C11.331 30.52 11.331 30.52 11.031 29.266 C9.487 23.031 9.487 23.031 5.684 18.098 C3.677 17.118 1.767 16.37 -0.375 15.75 C-1.365 15.42 -2.355 15.09 -3.375 14.75 C-3.482 19.868 -3.087 24.679 -2.375 29.75 C-3.695 30.08 -5.015 30.41 -6.375 30.75 C-9.168 24.315 -9.937 18.756 -10.375 11.75 C-14.005 10.43 -17.635 9.11 -21.375 7.75 C-21.045 7.09 -20.715 6.43 -20.375 5.75 C-16.745 6.74 -13.115 7.73 -9.375 8.75 C-9.045 7.1 -8.715 5.45 -8.375 3.75 C-3.498 -0.368 -3.498 -0.368 0 0 Z " fill="#000000" transform="translate(344.375,247.25)"/>
<path d="M0 0 C1.812 0.086 1.812 0.086 4 0.375 C4.722 0.465 5.444 0.555 6.188 0.648 C8 1 8 1 9 2 C10.686 2.072 12.375 2.084 14.062 2.062 C14.982 2.053 15.901 2.044 16.848 2.035 C17.558 2.024 18.268 2.012 19 2 C18.67 2.99 18.34 3.98 18 5 C14.438 6.188 14.438 6.188 11 7 C11.052 7.996 11.052 7.996 11.105 9.012 C11.374 17.782 11.374 17.782 8 22 C7.204 19.085 6.747 16.254 6.438 13.25 C6.354 12.451 6.27 11.652 6.184 10.828 C6.123 10.225 6.062 9.622 6 9 C2.24 9.48 -0.26 10.331 -3 13 C-4.593 18.147 -4.612 23.719 -4.732 29.071 C-5 31 -5 31 -7 34 C-7.99 34 -8.98 34 -10 34 C-11.083 29.917 -10.835 26.821 -10.062 22.688 C-9.868 21.619 -9.673 20.55 -9.473 19.449 C-9.239 18.237 -9.239 18.237 -9 17 C-13.78 17 -17.466 18.8 -21 22 C-22.337 25.64 -22.654 29.16 -23 33 C-23.33 33.66 -23.66 34.32 -24 35 C-25.32 34.67 -26.64 34.34 -28 34 C-27.67 31.36 -27.34 28.72 -27 26 C-32.976 29.831 -38.97 33.97 -44 39 C-46.125 38.625 -46.125 38.625 -48 38 C-44.319 34.153 -40.438 30.886 -36.188 27.688 C-35.59 27.233 -34.993 26.779 -34.377 26.311 C-32.921 25.204 -31.461 24.101 -30 23 C-30.309 22.402 -30.619 21.804 -30.938 21.188 C-32 19 -32 19 -33 16 C-32.01 15.34 -31.02 14.68 -30 14 C-29.113 14.681 -28.226 15.361 -27.312 16.062 C-24.289 18.205 -24.289 18.205 -21.562 18 C-18.148 16.667 -15.165 14.851 -12 13 C-11.34 13 -10.68 13 -10 13 C-10 12.34 -10 11.68 -10 11 C-10.866 10.629 -10.866 10.629 -11.75 10.25 C-14.3 8.833 -16.018 7.124 -18 5 C-17.67 4.01 -17.34 3.02 -17 2 C-13.893 3.468 -11.095 5.2 -8.25 7.125 C-7.451 7.664 -6.652 8.203 -5.828 8.758 C-5.225 9.168 -4.622 9.578 -4 10 C-0.535 8.02 -0.535 8.02 3 6 C1.68 4.35 0.36 2.7 -1 1 C-0.67 0.67 -0.34 0.34 0 0 Z " fill="#000000" transform="translate(185,250)"/>
<path d="M0 0 C0.99 0.99 1.98 1.98 3 3 C2.518 3.652 2.036 4.305 1.539 4.977 C-4.472 12.957 -4.472 12.957 -5.688 22.562 C-5.461 23.697 -5.234 24.831 -5 26 C-4.814 26.969 -4.629 27.939 -4.438 28.938 C-4.293 29.618 -4.149 30.299 -4 31 C-5.32 31.33 -6.64 31.66 -8 32 C-11.154 26.722 -10.776 20.937 -10 15 C-7.728 9.041 -4.636 4.364 0 0 Z " fill="#000000" transform="translate(626,261)"/>
<path d="M0 0 C2.438 0.812 2.438 0.812 4.438 2.812 C5.247 8.66 4.864 13.862 1.438 18.812 C-1.562 19.812 -1.562 19.812 -3.625 19.188 C-6.375 17.236 -6.868 16.144 -7.562 12.812 C-6.795 4.387 -6.795 4.387 -4.141 0.996 C-2.562 -0.188 -2.562 -0.188 0 0 Z " fill="#000000" transform="translate(476.5625,263.1875)"/>
<path d="M0 0 C2.875 1.125 2.875 1.125 4.75 3.125 C6.588 8.026 6.877 12.843 4.75 17.688 C2.875 19.125 2.875 19.125 0 19.75 C-3.529 19.044 -5.083 17.885 -7.203 14.973 C-8.978 11.416 -8.751 9.069 -8.125 5.125 C-5.616 1.51 -4.454 0.178 0 0 Z " fill="#000000" transform="translate(530.125,263.875)"/>
<path d="M0 0 C3.367 1.393 4.986 2.979 7 6 C5.25 6.688 5.25 6.688 3 7 C0.75 5.562 0.75 5.562 -1 4 C-0.67 2.68 -0.34 1.36 0 0 Z " fill="#000000" transform="translate(376,271)"/>
<path d="M0 0 C0.66 0.33 1.32 0.66 2 1 C1.67 6.94 1.34 12.88 1 19 C-0.32 19.33 -1.64 19.66 -3 20 C-2.885 17.603 -2.759 15.208 -2.625 12.812 C-2.594 12.139 -2.563 11.465 -2.531 10.771 C-2.299 6.803 -1.716 3.593 0 0 Z " fill="#000000" transform="translate(555,287)"/>
<path d="M0 0 C0.66 0 1.32 0 2 0 C-0.122 11.422 -0.122 11.422 -2 16 C-2.66 16.33 -3.32 16.66 -4 17 C-3.584 10.805 -2.397 5.733 0 0 Z " fill="#000000" transform="translate(540,289)"/>
<path d="M0 0 C-0.523 2.763 -1.109 5.326 -2 8 C-1.196 8.743 -0.391 9.485 0.438 10.25 C2.77 12.753 3.635 13.718 4 17 C0 17 0 17 -1.703 15.715 C-4.547 12.447 -5.904 10.642 -6.562 6.25 C-6 3 -6 3 -4.688 1.062 C-3 0 -3 0 0 0 Z " fill="#000000" transform="translate(487,292)"/>
<path d="M0 0 C0.33 0 0.66 0 1 0 C0.67 2.64 0.34 5.28 0 8 C-0.66 8 -1.32 8 -2 8 C-1.125 1.125 -1.125 1.125 0 0 Z " fill="#000000" transform="translate(569,293)"/>
<path d="M0 0 C3.119 2.529 3.66 4.813 4.422 8.691 C4.642 9.801 4.863 10.91 5.09 12.053 C5.308 13.211 5.526 14.369 5.75 15.562 C5.983 16.725 6.217 17.887 6.457 19.084 C8.136 27.727 8.136 27.727 7 30 C5.68 29.67 4.36 29.34 3 29 C1.776 22.125 0.715 15.236 -0.188 8.312 C-0.283 7.605 -0.379 6.898 -0.478 6.17 C-0.696 4.452 -0.854 2.726 -1 1 C-0.67 0.67 -0.34 0.34 0 0 Z " fill="#000000" transform="translate(371,320)"/>
<path d="M0 0 C1.32 0.33 2.64 0.66 4 1 C2.592 5.479 0.696 8.091 -3 11 C-7.64 12.957 -11.581 13.481 -16.375 11.812 C-19.144 10.656 -21.083 9.33 -23 7 C-22.688 4.812 -22.688 4.812 -22 3 C-21.443 3.289 -20.886 3.577 -20.312 3.875 C-19.549 4.246 -18.786 4.618 -18 5 C-17.257 5.392 -16.515 5.784 -15.75 6.188 C-11.993 7.297 -8.671 7.31 -5 6 C-2.875 4.156 -1.604 2.356 0 0 Z " fill="#000000" transform="translate(511,322)"/>
<path d="M0 0 C0.66 0 1.32 0 2 0 C0.789 7.347 -1.287 14.072 -4 21 C-5.32 21 -6.64 21 -8 21 C-7.389 16.467 -6.217 12.511 -4.562 8.25 C-4.131 7.121 -3.699 5.992 -3.254 4.828 C-2 2 -2 2 0 0 Z " fill="#000000" transform="translate(404,326)"/>
<path d="M0 0 C0.99 0 1.98 0 3 0 C4.565 2.043 5.877 3.991 7.188 6.188 C7.556 6.766 7.924 7.344 8.303 7.939 C10.425 11.424 11.47 13.911 11 18 C9.68 18 8.36 18 7 18 C0 4.241 0 4.241 0 0 Z " fill="#000000" transform="translate(348,337)"/>
<path d="M0 0 C-0.417 4.857 -2.8 7.451 -6.062 10.812 C-6.535 11.315 -7.007 11.817 -7.494 12.334 C-8.654 13.564 -9.826 14.783 -11 16 C-12.32 15.67 -13.64 15.34 -15 15 C-13.578 10.541 -11.367 7.963 -8.062 4.688 C-7.187 3.804 -6.312 2.921 -5.41 2.012 C-3 0 -3 0 0 0 Z " fill="#000000" transform="translate(425,347)"/>
<path d="M0 0 C3.809 0.457 6.507 1.664 9.758 3.652 C10.631 4.182 11.503 4.711 12.402 5.256 C13.301 5.811 14.199 6.366 15.125 6.938 C16.484 7.764 16.484 7.764 17.871 8.607 C21.285 10.689 24.673 12.782 28 15 C27.67 16.65 27.34 18.3 27 20 C20.944 18.479 16.366 15.136 11.312 11.625 C10.458 11.048 9.604 10.47 8.725 9.875 C4.821 7.189 1.705 4.947 -1 1 C-0.67 0.67 -0.34 0.34 0 0 Z " fill="#000000" transform="translate(318,358)"/>
<path d="M0 0 C1.32 0.33 2.64 0.66 4 1 C5.414 3.617 5.414 3.617 6.625 6.875 C7.901 10.247 8.994 12.991 11 16 C11.748 14.929 12.495 13.858 13.266 12.754 C14.26 11.356 15.255 9.959 16.25 8.562 C16.741 7.855 17.232 7.148 17.738 6.42 C18.222 5.746 18.705 5.073 19.203 4.379 C19.643 3.756 20.083 3.133 20.536 2.49 C22.286 0.709 23.567 0.385 26 0 C28.873 3.326 29.971 6.555 31.188 10.75 C31.532 11.92 31.876 13.091 32.23 14.297 C32.484 15.189 32.738 16.081 33 17 C36.764 12.74 40.499 8.482 44 4 C45.863 4.148 45.863 4.148 48 5 C50.843 10.722 52.727 17.595 53 24 C52.01 25.485 52.01 25.485 51 27 C48.348 26.001 47.229 25.499 46.023 22.871 C45.809 22.068 45.595 21.265 45.375 20.438 C44.76 18.053 44.76 18.053 44 16 C43.34 15.67 42.68 15.34 42 15 C41.752 15.543 41.505 16.085 41.25 16.645 C39.726 19.517 37.911 22.057 36 24.688 C35.299 25.661 34.597 26.634 33.875 27.637 C32 30 32 30 30 31 C27.984 30.461 27.984 30.461 26 29 C24.953 26.102 24.953 26.102 24.25 22.625 C24.008 21.483 23.765 20.341 23.516 19.164 C23 16 23 16 23 12 C18.75 15.864 15.814 20.135 12.746 24.988 C11.882 25.984 11.882 25.984 11 27 C9.68 27 8.36 27 7 27 C4.329 21.398 2.324 16.069 1 10 C-2.111 12.475 -4.688 14.596 -7.125 17.75 C-9.191 20.229 -9.963 20.42 -13 21 C-13.482 18.959 -13.96 16.917 -14.438 14.875 C-14.838 13.17 -14.838 13.17 -15.246 11.43 C-15.935 8.295 -16.504 5.17 -17 2 C-16.01 1.67 -15.02 1.34 -14 1 C-11.909 4.327 -10.482 7.295 -9 11 C-6.03 7.37 -3.06 3.74 0 0 Z " fill="#000000" transform="translate(226,367)"/>
<path d="M0 0 C3.583 2.299 5.574 3.848 7.062 7.875 C6.982 11.88 5.951 16.049 3 19 C0.048 19.412 -2.1 19.556 -4.695 17.953 C-6.885 16.155 -8.722 14.557 -10 12 C-10.574 4.883 -10.574 4.883 -8.375 1.5 C-5.217 -0.495 -3.681 -0.663 0 0 Z " fill="#000000" transform="translate(580,509)"/>
<path d="M0 0 C1.32 0 2.64 0 4 0 C4.33 0.99 4.66 1.98 5 3 C4.34 3.66 3.68 4.32 3 5 C0.375 4.625 0.375 4.625 -2 4 C-1.34 2.68 -0.68 1.36 0 0 Z " fill="#000000" transform="translate(556,514)"/>
<path d="M0 0 C14.038 0.622 28.008 1.703 42 3 C42.641 4.596 43.282 6.193 43.922 7.789 C44.279 8.678 44.635 9.567 45.003 10.483 C46.743 14.875 48 18.245 48 23 C47.398 22.995 46.795 22.99 46.174 22.984 C43.325 22.963 40.475 22.949 37.625 22.938 C36.588 22.931 35.551 22.925 34.483 22.919 C29.501 22.911 24.571 22.979 19.605 23.398 C18.385 23.499 18.385 23.499 17.14 23.602 C15.62 23.739 14.102 23.899 12.586 24.084 C10.52 24.27 10.52 24.27 7 24 C4.699 21.824 4.699 21.824 3 19 C2.426 18.223 1.853 17.445 1.262 16.645 C-0.391 13.18 -0.295 10.506 -0.188 6.688 C-0.147 4.806 -0.147 4.806 -0.105 2.887 C-0.071 1.934 -0.036 0.981 0 0 Z " fill="#000000" transform="translate(160,523)"/>
<path d="M0 0 C0.66 0 1.32 0 2 0 C2.338 9.272 2.094 17.141 -1 26 C-1.99 26 -2.98 26 -4 26 C-3.386 17.198 -1.705 8.64 0 0 Z " fill="#000000" transform="translate(688,525)"/>
<path d="M0 0 C1.154 3.463 0.898 3.975 -0.625 7.125 C-2.574 10.845 -2.574 10.845 -5.75 12 C-6.492 12 -7.235 12 -8 12 C-7.562 6.411 -6.692 0 0 0 Z " fill="#000000" transform="translate(647,526)"/>
<path d="M0 0 C1.145 0.34 1.145 0.34 2.312 0.688 C1.562 5.438 1.562 5.438 -0.688 7.688 C-3.312 7.812 -3.312 7.812 -5.688 7.688 C-5.915 4.884 -6.028 3.226 -4.5 0.812 C-2.688 -0.312 -2.688 -0.312 0 0 Z " fill="#000000" transform="translate(536.6875,528.3125)"/>
<path d="M0 0 C0.66 0 1.32 0 2 0 C1.495 6.23 -1.326 11.455 -4 17 C-4.66 17 -5.32 17 -6 17 C-5.495 10.77 -2.674 5.545 0 0 Z " fill="#000000" transform="translate(670,531)"/>
<path d="M0 0 C0.99 0 1.98 0 3 0 C2.25 6.625 2.25 6.625 0 10 C-1.32 9.67 -2.64 9.34 -4 9 C-2.25 2.25 -2.25 2.25 0 0 Z " fill="#000000" transform="translate(572,532)"/>
<path d="M0 0 C0.66 0 1.32 0 2 0 C3.65 4.29 5.3 8.58 7 13 C6.01 13.99 5.02 14.98 4 16 C0.823 10.751 0.343 5.985 0 0 Z " fill="#000000" transform="translate(378,540)"/>
<path d="M0 0 C1.875 0.188 1.875 0.188 4 1 C6.302 4.914 6.175 8.547 6 13 C4.68 13 3.36 13 2 13 C1.468 11.399 0.95 9.794 0.438 8.188 C0.002 6.848 0.002 6.848 -0.441 5.48 C-1 3 -1 3 0 0 Z " fill="#000000" transform="translate(363,541)"/>
<path d="M0 0 C0.99 0 1.98 0 3 0 C2.533 5.414 1.757 9.205 -1 14 C-1.99 13.67 -2.98 13.34 -4 13 C-2.68 8.71 -1.36 4.42 0 0 Z " fill="#000000" transform="translate(622,544)"/>
<path d="M0 0 C1.918 0.359 1.918 0.359 4 1 C5.686 3.891 6.069 5.481 5.625 8.812 C5.419 9.534 5.212 10.256 5 11 C3.047 10.289 3.047 10.289 1 9 C0.391 6.836 0.391 6.836 0.25 4.375 C0.193 3.558 0.137 2.74 0.078 1.898 C0.052 1.272 0.027 0.645 0 0 Z " fill="#000000" transform="translate(395,548)"/>
<path d="M0 0 C0.99 0.33 1.98 0.66 3 1 C3.969 6.373 3.969 6.373 4 9 C2.562 11 2.562 11 1 12 C-1 10 -1 10 -1.23 7.871 C-1.216 7.068 -1.202 6.265 -1.188 5.438 C-1.181 4.632 -1.175 3.826 -1.168 2.996 C-1 1 -1 1 0 0 Z " fill="#000000" transform="translate(558,560)"/>
<path d="M0 0 C2.034 1.415 2.904 2.55 3.422 4.98 C3.663 6.982 3.835 8.991 4 11 C3.34 11 2.68 11 2 11 C0.807 7.123 0 4.084 0 0 Z " fill="#000000" transform="translate(363,565)"/>
<path d="M0 0 C0.99 0 1.98 0 3 0 C2.51 7.343 1.05 14.258 -2 21 C-2.99 21.66 -3.98 22.32 -5 23 C-6 22 -6 22 -6.375 19.25 C-6.333 12.619 -2.921 5.843 0 0 Z " fill="#000000" transform="translate(674,565)"/>
<path d="M0 0 C3.766 1.255 4.264 2.529 6 6 C6 6.99 6 7.98 6 9 C5.01 9 4.02 9 3 9 C0 3.375 0 3.375 0 0 Z " fill="#000000" transform="translate(383,568)"/>
<path d="M0 0 C0.99 0 1.98 0 3 0 C2.539 4.922 0.196 9.277 -3 13 C-3.99 13 -4.98 13 -6 13 C-5.539 8.078 -3.196 3.723 0 0 Z " fill="#000000" transform="translate(628,571)"/>
<path d="M0 0 C0.66 0 1.32 0 2 0 C1.485 7.983 0.117 16.224 -5.75 22.125 C-6.492 22.744 -7.235 23.362 -8 24 C-8.902 21.511 -9.085 20.272 -8.287 17.71 C-7.905 16.893 -7.523 16.076 -7.129 15.234 C-6.72 14.345 -6.31 13.455 -5.889 12.539 C-5.451 11.619 -5.013 10.698 -4.562 9.75 C-4.129 8.814 -3.695 7.878 -3.248 6.914 C-2.176 4.604 -1.093 2.3 0 0 Z " fill="#000000" transform="translate(659,576)"/>
<path d="M0 0 C2.993 1.098 3.846 1.677 5.25 4.625 C5.498 5.409 5.745 6.192 6 7 C5.01 7 4.02 7 3 7 C0.643 4.468 0 3.528 0 0 Z " fill="#000000" transform="translate(398,578)"/>
<path d="M0 0 C0.66 0 1.32 0 2 0 C3.248 4.418 2.701 7.794 1.75 12.25 C1.497 13.493 1.245 14.735 0.984 16.016 C0.66 17 0.335 17.985 0 19 C-0.99 19.33 -1.98 19.66 -3 20 C-2.451 13.214 -1.457 6.65 0 0 Z " fill="#000000" transform="translate(683,579)"/>
<path d="M0 0 C0.66 0.33 1.32 0.66 2 1 C1.393 5.86 -0.728 9.741 -3 14 C-3.99 14 -4.98 14 -6 14 C-5.572 8.294 -3.157 4.589 0 0 Z " fill="#000000" transform="translate(607,583)"/>
<path d="M0 0 C4.261 0.83 6.246 2.616 9 6 C8.812 8.312 8.812 8.312 8 10 C4.302 8.767 4.065 7.799 2.312 4.438 C1.876 3.611 1.439 2.785 0.988 1.934 C0.662 1.296 0.336 0.657 0 0 Z " fill="#000000" transform="translate(415,584)"/>
<path d="M0 0 C0.66 0.33 1.32 0.66 2 1 C1.543 6.783 -0.687 12.258 -4 17 C-6.168 17.793 -6.168 17.793 -8 18 C-8.986 15.386 -9.084 14.241 -8.145 11.562 C-3.702 3.017 -3.702 3.017 0 0 Z " fill="#000000" transform="translate(643,585)"/>
<path d="M0 0 C3.35 1.117 4.149 2.044 6.375 4.688 C7.286 5.761 7.286 5.761 8.215 6.855 C9.098 7.917 9.098 7.917 10 9 C10.517 9.615 11.034 10.23 11.566 10.863 C12.717 12.237 13.86 13.618 15 15 C13.68 15.33 12.36 15.66 11 16 C9.539 14.398 8.082 12.793 6.625 11.188 C5.813 10.294 5.001 9.401 4.164 8.48 C0 3.708 0 3.708 0 0 Z " fill="#000000" transform="translate(506,593)"/>
<path d="M0 0 C3.244 1.043 4.602 2.612 6.312 5.438 C8 9 8 9 7 12 C2.82 8.541 1.672 5.017 0 0 Z " fill="#000000" transform="translate(374,597)"/>
<path d="M0 0 C0.99 0 1.98 0 3 0 C4.01 1.744 5.008 3.495 6 5.25 C6.557 6.225 7.114 7.199 7.688 8.203 C9 11 9 11 9 15 C7.25 14.938 7.25 14.938 5 14 C1.71 9.3 0.463 5.678 0 0 Z " fill="#000000" transform="translate(392,601)"/>
<path d="M0 0 C2.468 1.152 4.048 2.048 6 4 C5.625 6.125 5.625 6.125 5 8 C2 7 2 7 0 4 C0 2.68 0 1.36 0 0 Z " fill="#000000" transform="translate(489,601)"/>
<path d="M0 0 C2.529 2.261 3.839 4.399 5.188 7.5 C5.532 8.273 5.876 9.047 6.23 9.844 C7 12 7 12 7 15 C6.34 15 5.68 15 5 15 C4.16 13.065 3.328 11.127 2.5 9.188 C2.036 8.109 1.572 7.03 1.094 5.918 C0 3 0 3 0 0 Z " fill="#000000" transform="translate(474,608)"/>
<path d="M0 0 C3.809 0.585 5.892 2.295 8.75 4.812 C9.549 5.5 10.348 6.187 11.172 6.895 C13 9 13 9 13 13 C6.902 10.909 2.906 7.811 0 2 C0 1.34 0 0.68 0 0 Z " fill="#000000" transform="translate(420,609)"/>
<path d="M0 0 C0.99 0.66 1.98 1.32 3 2 C2.604 3.485 2.182 4.963 1.75 6.438 C1.402 7.673 1.402 7.673 1.047 8.934 C0 11 0 11 -2.109 11.785 C-2.733 11.856 -3.357 11.927 -4 12 C-3.286 3.429 -3.286 3.429 0 0 Z " fill="#000000" transform="translate(591,610)"/>
<path d="M0 0 C0.66 0 1.32 0 2 0 C1.614 7.115 0.609 13.354 -2 20 C-2.99 20 -3.98 20 -5 20 C-4.353 13.05 -2.14 6.618 0 0 Z " fill="#000000" transform="translate(668,612)"/>
<path d="M0 0 C3 1.75 3 1.75 6 4 C6 5.32 6 6.64 6 8 C2.171 6.547 0.879 4.571 -1 1 C-0.67 0.67 -0.34 0.34 0 0 Z " fill="#000000" transform="translate(542,614)"/>
<path d="M0 0 C0.66 0 1.32 0 2 0 C1.391 3.093 0.401 5.196 -1.438 7.75 C-1.869 8.364 -2.301 8.977 -2.746 9.609 C-3.367 10.298 -3.367 10.298 -4 11 C-4.66 11 -5.32 11 -6 11 C-5.391 7.907 -4.401 5.804 -2.562 3.25 C-2.131 2.636 -1.699 2.023 -1.254 1.391 C-0.633 0.702 -0.633 0.702 0 0 Z " fill="#000000" transform="translate(641,615)"/>
<path d="M0 0 C0.598 0.227 1.196 0.454 1.812 0.688 C-1.309 10.85 -1.309 10.85 -4.188 14.688 C-5.178 15.018 -6.168 15.347 -7.188 15.688 C-8.178 14.367 -9.168 13.048 -10.188 11.688 C-9.423 10.247 -8.651 8.81 -7.875 7.375 C-7.446 6.574 -7.016 5.774 -6.574 4.949 C-3.255 -0.465 -3.255 -0.465 0 0 Z " fill="#000000" transform="translate(621.1875,616.3125)"/>
<path d="M0 0 C3.68 3.382 5.979 6.425 8 11 C7.01 11 6.02 11 5 11 C3.613 9.355 3.613 9.355 2.312 7.188 C1.876 6.48 1.439 5.772 0.988 5.043 C0 3 0 3 0 0 Z " fill="#000000" transform="translate(501,619)"/>
<path d="M0 0 C0.66 0 1.32 0 2 0 C2.672 1.289 3.337 2.581 4 3.875 C4.371 4.594 4.743 5.314 5.125 6.055 C6 8 6 8 6 10 C5.01 9.67 4.02 9.34 3 9 C2.051 6.934 2.051 6.934 1.312 4.438 C1.061 3.611 0.81 2.785 0.551 1.934 C0.369 1.296 0.187 0.657 0 0 Z " fill="#000000" transform="translate(387,626)"/>
<path d="M0 0 C3.499 1.397 4.709 2.713 6.25 6.125 C6.585 6.849 6.92 7.574 7.266 8.32 C7.629 9.152 7.629 9.152 8 10 C6.141 9.785 6.141 9.785 4 9 C2.734 6.934 2.734 6.934 1.75 4.438 C1.415 3.611 1.08 2.785 0.734 1.934 C0.492 1.296 0.25 0.657 0 0 Z " fill="#000000" transform="translate(492,629)"/>
<path d="M0 0 C1.273 0.934 2.543 1.873 3.812 2.812 C4.52 3.335 5.228 3.857 5.957 4.395 C7.8 5.843 9.464 7.231 11 9 C11 9.66 11 10.32 11 11 C6.651 10.498 4.106 7.903 1 5 C-0.375 2.688 -0.375 2.688 -1 1 C-0.67 0.67 -0.34 0.34 0 0 Z " fill="#000000" transform="translate(408,631)"/>
<path d="M0 0 C3.826 1.451 5.223 3.358 7 7 C7 7.99 7 8.98 7 10 C3.174 8.549 1.777 6.642 0 3 C0 2.01 0 1.02 0 0 Z " fill="#000000" transform="translate(520,631)"/>
<path d="M0 0 C0.66 0 1.32 0 2 0 C0.819 7.161 -0.681 14.492 -4 21 C-4.99 21.33 -5.98 21.66 -7 22 C-6.649 14.979 -5.21 5.21 0 0 Z " fill="#000000" transform="translate(653,632)"/>
<path d="M0 0 C1.875 0.312 1.875 0.312 4 1 C6 4 6 4 6 7 C5.01 7 4.02 7 3 7 C2.01 4.69 1.02 2.38 0 0 Z " fill="#000000" transform="translate(536,636)"/>
<path d="M0 0 C3.219 0.631 5.508 1.78 8.25 3.562 C8.956 4.018 9.663 4.473 10.391 4.941 C11.187 5.465 11.187 5.465 12 6 C11.67 6.99 11.34 7.98 11 9 C5.95 8.554 3.524 6.442 0 3 C0 2.01 0 1.02 0 0 Z " fill="#000000" transform="translate(562,637)"/>
<path d="M0 0 C-1.326 5.637 -5.466 7.932 -10 11 C-10.66 10.67 -11.32 10.34 -12 10 C-10.262 3.916 -6.511 0 0 0 Z " fill="#000000" transform="translate(601,639)"/>
<path d="M0 0 C3.438 1.528 6.19 3.502 9 6 C9 6.66 9 7.32 9 8 C5.082 6.694 2.674 5.169 0 2 C0 1.34 0 0.68 0 0 Z " fill="#000000" transform="translate(436,642)"/>
<path d="M0 0 C2.479 2.201 3.612 4.064 4.688 7.188 C5.065 8.261 5.065 8.261 5.449 9.355 C5.631 9.898 5.813 10.441 6 11 C3 10 3 10 1.312 7.188 C0 4 0 4 0 0 Z " fill="#000000" transform="translate(488,651)"/>
<path d="M0 0 C0.66 0.33 1.32 0.66 2 1 C-0.376 6.407 -4.617 9.782 -9.812 12.438 C-12 13 -12 13 -14 12 C-12.475 7.716 -9.612 6.135 -5.875 3.75 C-4.779 3.044 -3.684 2.337 -2.555 1.609 C-1.712 1.078 -0.869 0.547 0 0 Z " fill="#000000" transform="translate(631,650)"/>
<path d="M0 0 C3.794 1.49 5.683 3.691 8 7 C8 7.66 8 8.32 8 9 C6.25 8.875 6.25 8.875 4 8 C0 2.778 0 2.778 0 0 Z " fill="#000000" transform="translate(397,653)"/>
<path d="M0 0 C-1.345 4.402 -3.127 6.51 -7 9 C-8.32 9 -9.64 9 -11 9 C-9.231 4.223 -5.243 0 0 0 Z " fill="#000000" transform="translate(604,653)"/>
<path d="M0 0 C2.794 2.714 5.332 5.509 7.75 8.562 C8.67 9.709 8.67 9.709 9.609 10.879 C11 13 11 13 11 16 C9.234 15.832 9.234 15.832 7 15 C5.078 12.637 5.078 12.637 3.25 9.688 C2.636 8.722 2.023 7.756 1.391 6.762 C0 4 0 4 0 0 Z " fill="#000000" transform="translate(520,654)"/>
<path d="M0 0 C3.63 0.33 7.26 0.66 11 1 C11 1.99 11 2.98 11 4 C9.541 3.913 8.082 3.805 6.625 3.688 C5.813 3.629 5.001 3.571 4.164 3.512 C2 3 2 3 0 0 Z " fill="#000000" transform="translate(450,656)"/>
<path d="M0 0 C5.35 0.373 7.509 1.996 11 6 C9.234 6.68 9.234 6.68 7 7 C5.078 5.82 5.078 5.82 3.25 4.125 C2.636 3.571 2.023 3.016 1.391 2.445 C0 1 0 1 0 0 Z " fill="#000000" transform="translate(550,659)"/>
<path d="M0 0 C3.599 0.556 4.999 1.749 7.25 4.562 C8.031 5.523 8.031 5.523 8.828 6.504 C9.215 6.998 9.602 7.491 10 8 C8.68 8.33 7.36 8.66 6 9 C4.997 7.69 3.998 6.377 3 5.062 C2.443 4.332 1.886 3.601 1.312 2.848 C0 1 0 1 0 0 Z " fill="#000000" transform="translate(579,664)"/>
<path d="M0 0 C-0.33 0.99 -0.66 1.98 -1 3 C-3.573 3.969 -6.004 4.716 -8.656 5.395 C-9.458 5.608 -10.259 5.821 -11.085 6.04 C-20.143 8.392 -29.306 10.243 -38.479 12.081 C-57.835 15.966 -77.063 20.258 -96.238 24.952 C-97.08 25.157 -97.922 25.362 -98.789 25.574 C-100.355 25.956 -101.919 26.341 -103.482 26.731 C-106.402 27.445 -108.981 28 -112 28 C-112 27.34 -112 26.68 -112 26 C-95.453 21.094 -78.768 16.889 -62 12.812 C-59.46 12.191 -56.919 11.569 -54.379 10.947 C-44.212 8.462 -34.047 5.986 -23.835 3.688 C-19.282 2.583 -14.89 1.059 -10.492 -0.545 C-6.271 -1.97 -3.935 -2.202 0 0 Z " fill="#000000" transform="translate(119,667)"/>
<path d="M0 0 C3.187 1.436 5.622 3.203 8.25 5.5 C8.956 6.108 9.663 6.717 10.391 7.344 C12 9 12 9 12 11 C7.02 10.849 4.678 8.119 1.355 4.789 C0 3 0 3 0 0 Z " fill="#000000" transform="translate(510,666)"/>
<path d="M0 0 C0 0.99 0 1.98 0 3 C-2.31 3.33 -4.62 3.66 -7 4 C-7.33 3.01 -7.66 2.02 -8 1 C-5.108 0.174 -3.113 0 0 0 Z " fill="#000000" transform="translate(613,680)"/>
<path d="M0 0 C0 4.037 -0.239 6.074 -2.848 9.246 C-4.85 11.227 -6.882 13.143 -9 15 C-9.99 14.67 -10.98 14.34 -12 14 C-13.188 11.438 -13.188 11.438 -14 9 C-12.899 7.872 -11.794 6.748 -10.688 5.625 C-10.073 4.999 -9.458 4.372 -8.824 3.727 C-5.686 0.756 -4.429 0 0 0 Z " fill="#000000" transform="translate(643,680)"/>
<path d="M0 0 C3.941 1.668 6.789 4.227 10 7 C9.67 7.99 9.34 8.98 9 10 C4.711 8.411 2.677 5.569 0 2 C0 1.34 0 0.68 0 0 Z " fill="#000000" transform="translate(542,685)"/>
<path d="M0 0 C4.758 0.595 8.947 2.491 13 5 C13.33 5.66 13.66 6.32 14 7 C13.67 7.66 13.34 8.32 13 9 C8.018 8.525 4.89 7.166 1 4 C0.125 1.75 0.125 1.75 0 0 Z " fill="#000000" transform="translate(575,689)"/>
<path d="M0 0 C3.356 1.389 5.073 2.917 7 6 C7 6.66 7 7.32 7 8 C3.644 6.611 1.927 5.083 0 2 C0 1.34 0 0.68 0 0 Z " fill="#000000" transform="translate(513,690)"/>
<path d="M0 0 C-0.188 1.875 -0.188 1.875 -1 4 C-5.177 6.531 -9.274 6.16 -14 6 C-13.67 5.01 -13.34 4.02 -13 3 C-10.82 2.051 -10.82 2.051 -8.125 1.312 C-7.241 1.061 -6.356 0.81 -5.445 0.551 C-3 0 -3 0 0 0 Z " fill="#000000" transform="translate(620,697)"/>
<path d="M0 0 C3.438 1.528 6.19 3.502 9 6 C9 6.66 9 7.32 9 8 C6.643 7.825 5.303 7.3 3.621 5.633 C0 1.321 0 1.321 0 0 Z " fill="#000000" transform="translate(542,707)"/>
<path d="M0 0 C1.272 0.622 2.543 1.248 3.812 1.875 C4.52 2.223 5.228 2.571 5.957 2.93 C8 4 8 4 11 6 C10.67 6.99 10.34 7.98 10 9 C5.59 8.491 3.107 5.966 0 3 C0 2.01 0 1.02 0 0 Z " fill="#000000" transform="translate(574,714)"/>
<path d="M0 0 C0 0.99 0 1.98 0 3 C-4.121 4.998 -7.452 5.178 -12 5 C-12.33 4.01 -12.66 3.02 -13 2 C-4.571 -0.286 -4.571 -0.286 0 0 Z " fill="#000000" transform="translate(614,714)"/>
<path d="M0 0 C6.262 1.094 12.536 2.114 18.814 3.112 C19.48 3.218 20.145 3.324 20.83 3.433 C33.957 5.509 47.123 6.967 60.339 8.332 C61.12 8.413 61.901 8.493 62.705 8.577 C63.493 8.658 64.281 8.739 65.093 8.823 C76.576 10.022 88.034 11.436 99.495 12.824 C108.382 13.898 117.268 14.915 126.173 15.825 C154.147 18.709 154.147 18.709 161.502 23.612 C161.502 24.272 161.502 24.932 161.502 25.612 C160.799 25.812 160.097 26.013 159.373 26.219 C146.024 30.047 132.79 33.973 119.835 38.997 C104.296 44.924 89.199 44.287 72.939 42.112 C71.579 41.936 70.218 41.761 68.857 41.587 C66.525 41.289 64.193 40.989 61.862 40.685 C55.505 39.858 49.142 39.08 42.777 38.314 C12.743 34.697 -17.07 30.642 -46.787 24.896 C-53.548 23.59 -60.323 22.392 -67.123 21.299 C-68.067 21.148 -69.011 20.996 -69.983 20.84 C-78.647 19.501 -87.362 18.552 -96.09 17.738 C-97.117 17.633 -98.143 17.528 -99.201 17.42 C-100.105 17.336 -101.009 17.251 -101.94 17.164 C-104.954 16.513 -106.988 15.383 -109.498 13.612 C-110.498 11.612 -110.498 11.612 -110.498 9.612 C-108.656 7.126 -107.493 6.61 -104.498 5.612 C-102.188 5.307 -99.873 5.034 -97.557 4.776 C-91.271 4.037 -85.066 3.049 -78.846 1.885 C-51.476 -3.205 -27.598 -4.848 0 0 Z " fill="#000000" transform="translate(354.498046875,724.38818359375)"/>
<path d="M0 0 C2.475 0.99 2.475 0.99 5 2 C5 3.32 5 4.64 5 6 C2.5 4.688 2.5 4.688 0 3 C0 2.01 0 1.02 0 0 Z " fill="#000000" transform="translate(565,727)"/>
</svg>
