<?xml version="1.0" encoding="UTF-8"?>
<!-- Generator: visioncortex VTracer 0.6.0 -->
<svg version="1.1" xmlns="http://www.w3.org/2000/svg" width="847" height="847">
<path d="M0 0 C0.99 0 1.98 0 3 0 C5.041 7.179 6.374 13.526 6 21 C5.34 21 4.68 21 4 21 C1.462 14.293 0 7.169 0 0 Z " fill="#000000" transform="translate(379,72)"/>
<path d="M0 0 C2.375 0.312 2.375 0.312 5 1 C7 4 7 4 6.812 6.562 C6 9 6 9 3 11 C2.711 10.196 2.423 9.391 2.125 8.562 C1.267 5.867 1.267 5.867 -1 5 C-0.67 3.35 -0.34 1.7 0 0 Z " fill="#000000" transform="translate(455,75)"/>
<path d="M0 0 C6.007 2.111 6.007 2.111 8 5 C8.844 8.57 9.395 10.972 8.062 14.438 C7.712 14.953 7.361 15.469 7 16 C6.01 16 5.02 16 4 16 C4 12.7 4 9.4 4 6 C1.525 5.01 1.525 5.01 -1 4 C-0.67 2.68 -0.34 1.36 0 0 Z " fill="#000000" transform="translate(463,93)"/>
<path d="M0 0 C1.98 0.495 1.98 0.495 4 1 C3.691 1.866 3.381 2.733 3.062 3.625 C2.626 6.955 2.626 6.955 4.492 8.734 C6.279 10.242 8.088 11.655 10 13 C8.688 15.5 8.688 15.5 7 18 C6.01 18 5.02 18 4 18 C4 16.68 4 15.36 4 14 C3.175 13.237 2.35 12.474 1.5 11.688 C-1 9 -1 9 -1.375 5.312 C-1 2 -1 2 0 0 Z " fill="#000000" transform="translate(451,99)"/>
<path d="M0 0 C3.977 0.626 7.193 1.876 10.816 3.617 C11.91 4.142 13.004 4.666 14.131 5.207 C15.263 5.757 16.396 6.308 17.562 6.875 C18.699 7.418 19.835 7.96 21.006 8.52 C31.024 13.354 31.024 13.354 34 16 C34.688 18.891 34.688 18.891 35 22.25 C35.837 28.842 37.027 33.212 42 37.875 C44.124 39.07 45.575 39.734 48 40 C49.949 38.734 49.949 38.734 51.625 36.812 C52.215 36.2 52.806 35.588 53.414 34.957 C55.068 33.061 55.068 33.061 56.086 30.824 C57 29 57 29 59 28 C62.044 27.504 65.119 27.241 68.188 26.938 C69.079 26.848 69.971 26.759 70.89 26.667 C78.62 25.941 86.241 25.788 94 26 C94.663 40.353 93.139 52.305 84 64 C83.56 64.614 83.121 65.227 82.668 65.859 C76.222 74.256 66.406 79.563 56 81 C39.715 82.346 25.751 79.779 12.688 69.5 C1.478 59.072 -5.579 43.964 -6.238 28.645 C-6.477 18.027 -6.076 9.114 0 0 Z M0 6 C-2.608 10.845 -2.608 10.845 -2 16 C-0.704 15.237 0.587 14.464 1.875 13.688 C2.594 13.258 3.314 12.829 4.055 12.387 C6.268 10.982 6.268 10.982 8 8 C4.772 5.848 3.716 5.799 0 6 Z M11 9 C9.495 22.355 9.655 35.212 17 47 C17.385 47.654 17.771 48.307 18.168 48.98 C22.375 55.359 28.41 59.291 35 63 C35.66 63 36.32 63 37 63 C37 63.66 37 64.32 37 65 C43.373 67.519 49.142 69.565 56 70 C56.791 70.052 57.583 70.103 58.398 70.156 C66.05 70.439 72.611 69.149 78.75 64.375 C87.224 56.43 91.633 43.449 92.125 32.125 C92.237 30.016 92.237 30.016 91 29 C88.42 29.039 85.885 29.146 83.312 29.312 C82.604 29.348 81.896 29.383 81.166 29.42 C73.536 29.825 73.536 29.825 67.312 33.805 C66.879 34.488 66.446 35.171 66 35.875 C62.968 40.192 60.153 43.169 54.867 44.562 C49.487 45.438 45.7 45.015 41 42 C35.574 35.821 32.713 28.556 31.453 20.504 C29.649 16.153 28.032 15.411 23.879 13.541 C22.701 13.057 22.701 13.057 21.5 12.562 C20.322 12.038 20.322 12.038 19.121 11.502 C15.2 9.651 15.2 9.651 11 9 Z M6 15 C4.517 15.953 3.039 16.912 1.562 17.875 C0.739 18.409 -0.085 18.942 -0.934 19.492 C-3.11 20.838 -3.11 20.838 -4 23 C0.515 22.469 3.347 20.634 7 18 C6.67 17.01 6.34 16.02 6 15 Z M-2 27 C-2.33 27.99 -2.66 28.98 -3 30 C0.936 29.438 3.792 28.383 7 26 C7 25.01 7 24.02 7 23 C3.612 23 0.661 25.006 -2 27 Z M1.312 32.5 C0.69 32.964 0.067 33.428 -0.574 33.906 C-1.045 34.267 -1.515 34.628 -2 35 C-1.67 35.99 -1.34 36.98 -1 38 C2.344 37.443 5.033 36.648 8 35 C8 33.35 8 31.7 8 30 C4.604 30 3.934 30.522 1.312 32.5 Z M63 32 C58.068 33.233 55.782 34.72 53 39 C53 39.66 53 40.32 53 41 C57.593 39.514 60.436 37.15 64 34 C63.67 33.34 63.34 32.68 63 32 Z M1 42 C1.66 43.98 2.32 45.96 3 48 C3.577 47.711 4.155 47.423 4.75 47.125 C6.833 46.083 8.917 45.042 11 44 C10.505 41.525 10.505 41.525 10 39 C5.723 39 4.441 39.706 1 42 Z M6 51 C6.33 52.65 6.66 54.3 7 56 C11.126 56.448 11.126 56.448 13.75 53.5 C14.493 52.675 15.235 51.85 16 51 C15.34 49.68 14.68 48.36 14 47 C10.718 47 8.621 49.177 6 51 Z M17 55 C17 55.66 17 56.32 17 57 C16.381 57.268 15.762 57.536 15.125 57.812 C12.7 58.956 12.7 58.956 11 62 C11.66 62.66 12.32 63.32 13 64 C16.489 63.639 19.09 61.859 22 60 C20.35 58.35 18.7 56.7 17 55 Z M23 62 C21.291 63.623 19.626 65.293 18 67 C18 67.66 18 68.32 18 69 C20.475 69.495 20.475 69.495 23 70 C24.65 68.02 26.3 66.04 28 64 C25.525 63.01 25.525 63.01 23 62 Z M30 67 C29.732 67.639 29.464 68.279 29.188 68.938 C28 71 28 71 25 72 C26.98 72.99 26.98 72.99 29 74 C30.32 72.35 31.64 70.7 33 69 C32.01 68.34 31.02 67.68 30 67 Z M34.188 72.375 C32.803 73.934 32.803 73.934 33 76 C35.475 76.495 35.475 76.495 38 77 C39.32 75.35 40.64 73.7 42 72 C40.953 70.743 40.953 70.743 38.625 70.75 C35.973 70.77 35.973 70.77 34.188 72.375 Z M43 76 C43 76.66 43 77.32 43 78 C52.238 78.486 59.54 77.867 68 74 C68 73.67 68 73.34 68 73 C64.583 72.913 61.167 72.86 57.75 72.812 C56.782 72.787 55.814 72.762 54.816 72.736 C53.882 72.727 52.947 72.717 51.984 72.707 C51.126 72.691 50.267 72.676 49.382 72.659 C46.482 73.074 45.107 73.995 43 76 Z " fill="#000000" transform="translate(367,106)"/>
<path d="M0 0 C0.66 0 1.32 0 2 0 C2.981 3.25 3.959 6.5 4.938 9.75 C5.215 10.67 5.493 11.591 5.779 12.539 C6.181 13.873 6.181 13.873 6.59 15.234 C6.836 16.051 7.082 16.868 7.336 17.71 C7.941 19.797 8.489 21.888 9 24 C7.68 24 6.36 24 5 24 C1.962 16.508 -0.31 9.095 -1 1 C-0.67 0.67 -0.34 0.34 0 0 Z " fill="#000000" transform="translate(552,107)"/>
<path d="M0 0 C0.66 0.33 1.32 0.66 2 1 C0.485 8.987 -2.168 16.401 -5 24 C-5.99 23.67 -6.98 23.34 -8 23 C-7.44 14.968 -4.454 6.681 0 0 Z " fill="#000000" transform="translate(598,108)"/>
<path d="M0 0 C9.465 0.035 17.878 2.053 26 7 C26.895 9.199 26.895 9.199 27 11 C26.478 10.818 25.956 10.636 25.418 10.449 C17.099 7.608 8.762 4.974 0 4 C0 2.68 0 1.36 0 0 Z " fill="#000000" transform="translate(316,117)"/>
<path d="M0 0 C2.798 0.386 3.821 0.801 5.75 2.938 C7 5 7 5 7 7 C7.639 7.248 8.279 7.495 8.938 7.75 C11 9 11 9 11.75 11.125 C11.874 12.053 11.874 12.053 12 13 C9.875 13 9.875 13 7 12 C3.608 8.453 0.921 4.881 0 0 Z " fill="#000000" transform="translate(526,138)"/>
<path d="M0 0 C0.66 0.33 1.32 0.66 2 1 C1 4 1 4 -1.375 5.688 C-4 7 -4 7 -7 7 C-7.33 7.99 -7.66 8.98 -8 10 C-11.689 12.869 -13.244 14 -18 14 C-15.156 6.761 -6.759 2.993 0 0 Z " fill="#000000" transform="translate(634,142)"/>
<path d="M0 0 C9.882 7.164 14.486 17.526 16.379 29.371 C16.934 39.135 12.862 49.11 7.059 56.773 C2.14 62.093 -3.885 66.315 -11 68 C-14.61 61.118 -17.616 54.16 -20.312 46.875 C-20.672 45.919 -21.031 44.962 -21.4 43.977 C-22.272 41.653 -23.138 39.327 -24 37 C-32.577 37.516 -41.061 38.29 -49.576 39.427 C-51.379 39.657 -53.19 39.834 -55 40 C-56.812 38.188 -56.216 35.505 -56.25 33.062 C-56.109 21.286 -52.419 12.752 -44.27 4.18 C-31.798 -7.179 -14.532 -8.342 0 0 Z " fill="#000000" transform="translate(598,151)"/>
<path d="M0 0 C5.955 0.392 10.628 1.371 16 4 C16 4.99 16 5.98 16 7 C12.54 6.34 9.144 5.57 5.75 4.625 C4.879 4.39 4.007 4.156 3.109 3.914 C2.413 3.612 1.717 3.311 1 3 C0.67 2.01 0.34 1.02 0 0 Z " fill="#000000" transform="translate(472,161)"/>
<path d="M0 0 C-1.417 3.558 -2.858 4.793 -6.25 6.5 C-9.098 7.981 -11.806 9.474 -14.438 11.312 C-17 13 -17 13 -19 13 C-18.669 10.05 -18.144 9.125 -15.855 7.148 C-14.975 6.563 -14.095 5.978 -13.188 5.375 C-12.315 4.785 -11.442 4.194 -10.543 3.586 C-6.584 1.117 -4.778 0 0 0 Z " fill="#000000" transform="translate(350,168)"/>
<path d="M0 0 C0.33 0.99 0.66 1.98 1 3 C-0.601 3.673 -2.206 4.338 -3.812 5 C-4.706 5.371 -5.599 5.743 -6.52 6.125 C-9 7 -9 7 -12 7 C-11.742 5.109 -11.742 5.109 -11 3 C-9.258 1.953 -9.258 1.953 -7.125 1.25 C-6.426 1.008 -5.728 0.765 -5.008 0.516 C-3 0 -3 0 0 0 Z " fill="#000000" transform="translate(525,180)"/>
<path d="M0 0 C0 0.99 0 1.98 0 3 C-2.207 3.224 -4.416 3.428 -6.625 3.625 C-8.47 3.799 -8.47 3.799 -10.352 3.977 C-14.053 4 -16.59 3.374 -20 2 C-20 1.34 -20 0.68 -20 0 C-3.368 -1.684 -3.368 -1.684 0 0 Z " fill="#000000" transform="translate(642,183)"/>
<path d="M0 0 C2.438 0.5 2.438 0.5 4.25 1.625 C6.12 4.578 6.008 6.014 5.438 9.5 C-0.35 22.027 -10.734 32.824 -19.695 43.172 C-23.754 47.864 -27.66 52.678 -31.562 57.5 C-33.281 59.623 -35.001 61.746 -36.721 63.868 C-37.889 65.309 -39.056 66.751 -40.222 68.195 C-41.023 69.183 -41.023 69.183 -41.84 70.191 C-42.555 71.076 -42.555 71.076 -43.285 71.979 C-46.195 75.444 -46.195 75.444 -49.438 75.938 C-52.562 75.5 -52.562 75.5 -54.492 73.43 C-56.831 70.121 -58.845 66.725 -60.812 63.188 C-61.481 61.994 -62.15 60.801 -62.819 59.609 C-63.395 58.583 -63.97 57.557 -64.562 56.5 C-65.166 57.797 -65.166 57.797 -65.782 59.12 C-70.257 68.728 -74.77 78.319 -79.299 87.903 C-80.457 90.355 -81.615 92.807 -82.773 95.26 C-83.513 96.826 -84.253 98.391 -84.992 99.957 C-85.509 101.052 -85.509 101.052 -86.037 102.169 C-88.447 107.269 -88.447 107.269 -89.562 109.5 C-88.856 109.234 -88.15 108.969 -87.422 108.695 C-70.166 102.755 -52.555 103.194 -34.562 104.5 C-34.912 103.68 -35.261 102.86 -35.621 102.016 C-36.076 100.938 -36.531 99.86 -37 98.75 C-37.679 97.149 -37.679 97.149 -38.371 95.516 C-39.302 93.159 -40.041 90.97 -40.562 88.5 C-36.673 89.975 -35.313 91.759 -33.562 95.5 C-32.758 98.477 -32.124 101.469 -31.562 104.5 C-30.243 104.83 -28.923 105.16 -27.562 105.5 C-27.006 104.613 -26.449 103.726 -25.875 102.812 C-23.771 99.653 -21.319 97.118 -18.562 94.5 C-17.48 93.355 -17.48 93.355 -16.375 92.188 C-14.562 90.5 -14.562 90.5 -12.562 90.5 C-13.445 96.459 -18.318 100.582 -22.562 104.5 C-24.048 104.995 -24.048 104.995 -25.562 105.5 C-25.562 106.16 -25.562 106.82 -25.562 107.5 C-24.243 107.83 -22.923 108.16 -21.562 108.5 C-20.739 131.509 -20.426 154.477 -20.562 177.5 C-19.586 177.017 -18.61 176.534 -17.604 176.037 C-10.648 172.654 -4.137 169.491 3.625 168.562 C4.801 168.401 4.801 168.401 6.001 168.236 C18.796 166.647 38.513 164.538 50.438 170.5 C51.192 162.144 51.574 153.89 51.438 145.5 C52.757 145.5 54.077 145.5 55.438 145.5 C56.533 154.538 56.549 161.885 53.438 170.5 C54.098 170.5 54.757 170.5 55.438 170.5 C56.944 168.938 56.944 168.938 58.438 167 C60 165.031 60 165.031 61.438 163.5 C62.098 163.5 62.757 163.5 63.438 163.5 C63.438 162.84 63.438 162.18 63.438 161.5 C65.071 160.446 66.75 159.464 68.438 158.5 C70.752 156.915 73.055 155.317 75.352 153.707 C77.438 152.5 77.438 152.5 80.438 152.5 C78.901 156.616 76.261 158.364 72.75 160.875 C64.544 166.227 64.544 166.227 58.438 173.5 C59.345 173.727 60.253 173.954 61.188 174.188 C65.111 175.772 66.223 176.908 68.438 180.5 C69.081 183.567 69.157 186.6 69.23 189.727 C69.285 191.08 69.285 191.08 69.341 192.461 C69.453 195.349 69.54 198.236 69.625 201.125 C69.693 203.013 69.763 204.901 69.834 206.789 C69.974 210.522 70.107 214.256 70.236 217.989 C70.429 223.419 70.66 228.847 70.926 234.273 C70.98 235.478 70.98 235.478 71.035 236.707 C71.166 240.735 71.166 240.735 72.438 244.5 C73.472 243.993 73.472 243.993 74.527 243.477 C86.549 237.771 99.108 234.835 112.25 239 C120.567 242.503 126.846 248.329 130.5 256.613 C135.573 272.234 133.013 286.827 126.438 301.5 C125.883 302.533 125.329 303.565 124.758 304.629 C123.212 307.989 123.537 310.137 124.125 313.727 C124.664 318.511 124.293 323.342 124.082 328.145 C124.512 332.208 125.529 332.805 128.438 335.5 C137.246 356.706 133.176 382.411 124.977 403.117 C124.214 405.478 124.214 405.478 125.211 407.57 C125.616 408.207 126.02 408.844 126.438 409.5 C130.024 415.79 128.704 422.556 126.913 429.288 C126.694 430.059 126.475 430.83 126.25 431.625 C126.028 432.438 125.806 433.251 125.577 434.089 C123.476 441.654 121.039 449.094 118.438 456.5 C119.366 456.892 120.294 457.284 121.25 457.688 C124.767 459.687 125.879 460.815 127.438 464.5 C128.302 471.762 127.464 478.533 125.438 485.5 C125.438 486.82 125.438 488.14 125.438 489.5 C126.098 489.5 126.757 489.5 127.438 489.5 C125.585 495.016 122.202 499.429 118.895 504.148 C118.231 505.115 118.231 505.115 117.555 506.102 C117.148 506.682 116.742 507.263 116.324 507.862 C115.2 509.629 115.2 509.629 115.438 512.5 C120.243 510.399 124.289 507.056 128.48 503.957 C133.228 500.5 133.228 500.5 135.438 500.5 C135.438 499.51 135.438 498.52 135.438 497.5 C132.467 498.16 129.497 498.82 126.438 499.5 C127.772 495.906 129.398 492.745 131.438 489.5 C130.777 489.17 130.118 488.84 129.438 488.5 C137.843 485.698 145.601 487.959 153.438 491.5 C153.767 491.83 154.098 492.16 154.438 492.5 C153.974 498.584 152.028 503.966 150 509.688 C147.38 517.271 145.25 524.488 144.438 532.5 C145.098 532.5 145.757 532.5 146.438 532.5 C150.579 528.01 153.999 523.095 156.438 517.5 C155.777 517.17 155.118 516.84 154.438 516.5 C154.066 517.304 154.066 517.304 153.688 518.125 C152.141 521.064 150.307 523.758 148.438 526.5 C147.246 523.05 147.636 521.042 148.801 517.621 C149.111 516.7 149.421 515.779 149.74 514.83 C150.073 513.876 150.407 512.921 150.75 511.938 C151.072 510.979 151.393 510.021 151.725 509.033 C153.042 505.174 154.164 501.911 156.438 498.5 C165.745 495.135 174.892 496.669 183.688 500.688 C191.035 504.676 196.891 510.386 199.438 518.5 C200.01 522.165 200.301 525.795 200.438 529.5 C201.277 529.484 201.277 529.484 202.134 529.468 C204.673 529.427 207.211 529.401 209.75 529.375 C210.631 529.358 211.512 529.341 212.42 529.324 C213.691 529.315 213.691 529.315 214.988 529.305 C216.159 529.289 216.159 529.289 217.353 529.273 C219.438 529.5 219.438 529.5 222.438 531.5 C222.938 533.937 222.938 533.937 222.438 536.5 C218.535 539.484 214.938 540.103 210.125 540.688 C208.244 540.925 208.244 540.925 206.324 541.168 C205.372 541.278 204.419 541.387 203.438 541.5 C203.438 540.51 203.438 539.52 203.438 538.5 C204.919 538.227 204.919 538.227 206.43 537.949 C207.711 537.698 208.992 537.446 210.312 537.188 C211.589 536.944 212.865 536.7 214.18 536.449 C217.701 535.802 217.701 535.802 219.438 532.5 C205.908 533.49 192.378 534.48 178.438 535.5 C178.107 537.81 177.778 540.12 177.438 542.5 C175.172 545.369 173.92 546.339 170.438 547.5 C159.03 548.324 147.46 548.181 136.375 545.254 C129.698 543.54 125.114 543.485 118.625 545.812 C117.204 546.284 115.782 546.753 114.359 547.219 C113.681 547.443 113.002 547.667 112.303 547.898 C103.377 550.777 92.203 552.254 83.012 549.871 C79.138 549.313 75.808 550.386 72.062 551.375 C63.896 553.467 56.131 554.68 47.688 554.688 C46.933 554.7 46.179 554.712 45.402 554.725 C41.546 554.735 39.72 554.689 36.438 552.5 C36.438 551.51 36.438 550.52 36.438 549.5 C35.529 549.766 34.62 550.031 33.684 550.305 C4.846 558.409 -25.638 557.079 -55.312 556.125 C-56.943 556.079 -56.943 556.079 -58.607 556.032 C-74.96 555.416 -74.96 555.416 -81.562 551.5 C-81.892 550.84 -82.223 550.18 -82.562 549.5 C-83.555 549.572 -84.548 549.644 -85.57 549.719 C-112.547 551.6 -112.547 551.6 -119.562 548.5 C-119.893 547.51 -120.222 546.52 -120.562 545.5 C-120.232 544.84 -119.903 544.18 -119.562 543.5 C-120.485 543.815 -121.408 544.129 -122.359 544.453 C-160.621 557.147 -160.621 557.147 -174.562 552.5 C-175.553 551.015 -175.553 551.015 -176.562 549.5 C-177.42 549.705 -178.277 549.91 -179.16 550.121 C-180.304 550.391 -181.447 550.66 -182.625 550.938 C-184.313 551.338 -184.313 551.338 -186.035 551.746 C-192.146 553.052 -198 553.656 -204.25 553.688 C-205.533 553.702 -206.815 553.716 -208.137 553.73 C-212.529 553.435 -214.492 552.571 -217.562 549.5 C-220.053 549.861 -222.425 550.327 -224.875 550.875 C-231.815 552.259 -238.55 552.841 -245.625 552.875 C-246.492 552.888 -247.36 552.902 -248.253 552.916 C-254.005 552.877 -258.29 551.804 -263.562 549.5 C-263.562 548.51 -263.562 547.52 -263.562 546.5 C-265.03 546.807 -265.03 546.807 -266.527 547.121 C-294.937 552.997 -294.937 552.997 -302.562 548.5 C-302.065 544.765 -301.688 542.688 -299.562 539.5 C-300.995 539.825 -300.995 539.825 -302.457 540.156 C-321.799 544.382 -321.799 544.382 -327.562 541.5 C-327.233 539.52 -326.903 537.54 -326.562 535.5 C-327.553 535.83 -328.543 536.16 -329.562 536.5 C-333.951 537.597 -338.31 537.76 -342.812 537.812 C-343.51 537.83 -344.207 537.847 -344.926 537.865 C-348.064 537.862 -350.242 537.678 -353.008 536.141 C-354.562 534.5 -354.562 534.5 -355.188 531.938 C-352.038 514.617 -330.244 497.206 -317.562 486.5 C-316.597 485.669 -315.631 484.837 -314.637 483.98 C-307.144 477.548 -299.464 471.422 -291.562 465.5 C-290.903 465.003 -290.243 464.507 -289.564 463.995 C-287.506 462.449 -285.442 460.91 -283.375 459.375 C-282.727 458.889 -282.079 458.403 -281.411 457.902 C-276.794 454.5 -276.794 454.5 -274.562 454.5 C-274.671 453.098 -274.671 453.098 -274.781 451.668 C-275.394 442.995 -275.656 434.405 -275.525 425.71 C-275.489 422.37 -275.498 419.693 -276.562 416.5 C-273.746 410.647 -269.679 406.366 -264.562 402.5 C-264.151 402.014 -263.74 401.528 -263.316 401.027 C-251.66 390.877 -229.922 392.21 -215.562 392.5 C-215.726 391.567 -215.89 390.634 -216.059 389.673 C-216.764 384.698 -216.667 379.749 -216.625 374.734 C-216.616 372.563 -216.608 370.392 -216.599 368.22 C-216.593 367.084 -216.587 365.947 -216.581 364.775 C-216.485 346.157 -216.548 327.551 -217 308.938 C-217.03 307.663 -217.03 307.663 -217.06 306.362 C-217.28 297.082 -217.604 287.808 -218.035 278.535 C-218.072 277.69 -218.109 276.844 -218.148 275.973 C-218.187 275.184 -218.226 274.395 -218.266 273.582 C-218.315 272.542 -218.315 272.542 -218.366 271.482 C-218.571 269.411 -219.01 267.503 -219.562 265.5 C-211.291 256.624 -198.339 254.831 -186.617 254.332 C-185.224 254.317 -183.831 254.311 -182.438 254.312 C-181.703 254.313 -180.968 254.313 -180.211 254.313 C-164.616 254.473 -164.616 254.473 -158.562 257.5 C-159.068 256.729 -159.573 255.958 -160.094 255.164 C-160.743 254.161 -161.393 253.158 -162.062 252.125 C-162.712 251.127 -163.362 250.13 -164.031 249.102 C-165.562 246.5 -165.562 246.5 -165.562 244.5 C-166.222 244.5 -166.882 244.5 -167.562 244.5 C-169.25 242.688 -169.25 242.688 -170.562 240.5 C-170.232 239.51 -169.903 238.52 -169.562 237.5 C-165.713 238.033 -164.326 239.528 -162 242.562 C-158.372 247.444 -155.562 252.257 -155.562 258.5 C-154.655 258.768 -153.748 259.036 -152.812 259.312 C-149.736 260.437 -147.92 261.275 -145.562 263.5 C-145.044 265.721 -145.044 265.721 -145.017 268.339 C-144.997 269.319 -144.977 270.3 -144.957 271.311 C-144.955 272.895 -144.955 272.895 -144.953 274.512 C-144.937 275.595 -144.92 276.678 -144.903 277.795 C-144.854 281.259 -144.833 284.723 -144.812 288.188 C-144.784 290.535 -144.754 292.882 -144.723 295.229 C-144.649 300.986 -144.597 306.743 -144.562 312.5 C-143.842 312.027 -143.122 311.555 -142.38 311.068 C-125.977 300.438 -110.718 298.135 -91.562 298.5 C-91.635 297.572 -91.707 296.644 -91.781 295.688 C-92.778 281.444 -92.644 267.2 -92.581 252.931 C-92.548 245.378 -92.536 237.826 -92.531 230.273 C-92.531 229.518 -92.53 228.763 -92.53 227.984 C-92.522 208.566 -92.927 189.16 -93.41 169.748 C-93.554 163.701 -93.57 157.664 -93.544 151.615 C-93.58 145.546 -93.952 139.49 -94.295 133.432 C-94.367 131.994 -94.367 131.994 -94.441 130.527 C-94.489 129.679 -94.536 128.831 -94.584 127.957 C-94.561 125.353 -94.15 123.031 -93.562 120.5 C-94.223 120.5 -94.882 120.5 -95.562 120.5 C-95.732 121.031 -95.902 121.562 -96.077 122.109 C-98.023 128.079 -100.24 133.906 -102.582 139.73 C-102.963 140.683 -103.344 141.636 -103.737 142.618 C-104.54 144.624 -105.344 146.63 -106.15 148.636 C-107.364 151.66 -108.574 154.686 -109.783 157.713 C-111.687 162.472 -113.606 167.225 -115.536 171.973 C-116.188 173.578 -116.838 175.185 -117.483 176.793 C-118.274 178.758 -119.078 180.718 -119.887 182.676 C-120.314 183.723 -120.742 184.77 -121.182 185.849 C-123.269 189.856 -125.256 192.064 -129.562 193.5 C-134.243 191.482 -136.668 188.038 -139.438 183.938 C-139.867 183.318 -140.296 182.698 -140.738 182.06 C-141.606 180.806 -142.47 179.549 -143.33 178.291 C-145.627 174.953 -148.019 171.681 -150.383 168.391 C-151.562 166.5 -151.562 166.5 -151.562 164.5 C-152.222 164.5 -152.882 164.5 -153.562 164.5 C-153.81 165.222 -154.058 165.944 -154.312 166.688 C-155.696 169.799 -157.354 171.913 -159.562 174.5 C-163.316 178.981 -166.936 183.534 -170.485 188.179 C-174.675 193.657 -178.912 199.096 -183.156 204.532 C-186.203 208.441 -189.226 212.365 -192.207 216.324 C-193.084 217.486 -193.084 217.486 -193.979 218.671 C-195.091 220.146 -196.198 221.624 -197.3 223.106 C-202.533 230.041 -202.533 230.041 -205.562 231.5 C-211.848 232.137 -216.504 230.79 -222.312 228.5 C-223.784 227.932 -225.258 227.369 -226.734 226.812 C-227.375 226.561 -228.015 226.31 -228.675 226.051 C-230.875 225.313 -230.875 225.313 -234.562 225.5 C-236.523 229.103 -238.48 232.708 -240.438 236.312 C-240.974 237.298 -241.51 238.283 -242.062 239.299 C-249.021 252.123 -255.828 265.027 -262.422 278.043 C-277.623 308.048 -277.623 308.048 -285.438 321.438 C-285.977 322.364 -286.517 323.29 -287.073 324.245 C-294.074 336.012 -294.074 336.012 -298.562 340.5 C-300.938 340.812 -300.938 340.812 -303.562 340.5 C-305.438 338.812 -305.438 338.812 -306.562 336.5 C-306.116 332.908 -305.023 330.072 -303.373 326.872 C-302.918 325.983 -302.464 325.094 -301.995 324.178 C-301.501 323.226 -301.006 322.274 -300.496 321.293 C-299.984 320.295 -299.471 319.297 -298.944 318.268 C-297.302 315.072 -295.651 311.879 -294 308.688 C-292.381 305.543 -290.763 302.398 -289.146 299.253 C-288.089 297.199 -287.031 295.145 -285.973 293.091 C-282.382 286.116 -278.849 279.115 -275.353 272.092 C-253.33 227.851 -253.33 227.851 -240.562 210.5 C-234.864 211.094 -230.122 213.219 -224.938 215.5 C-223.259 216.232 -221.579 216.961 -219.898 217.688 C-218.793 218.173 -218.793 218.173 -217.666 218.668 C-215.646 219.467 -213.679 220.027 -211.562 220.5 C-211.367 219.85 -211.171 219.201 -210.969 218.531 C-208.954 214.188 -206.04 210.727 -203.062 207 C-201.785 205.38 -200.508 203.761 -199.23 202.141 C-198.603 201.348 -197.976 200.556 -197.33 199.74 C-194.983 196.765 -192.677 193.76 -190.375 190.75 C-182.095 179.981 -173.757 169.301 -164.869 159.024 C-163.578 157.518 -162.312 155.992 -161.047 154.465 C-160.268 153.548 -159.49 152.632 -158.688 151.688 C-157.67 150.471 -157.67 150.471 -156.633 149.23 C-154.562 147.5 -154.562 147.5 -152 147.047 C-149.043 147.597 -148.315 148.248 -146.438 150.562 C-145.854 151.277 -145.27 151.991 -144.668 152.727 C-141.477 156.93 -138.354 161.183 -135.294 165.483 C-132.924 169.028 -132.924 169.028 -129.562 171.5 C-129.388 170.204 -129.388 170.204 -129.211 168.883 C-128.553 165.451 -127.538 162.598 -126.191 159.379 C-125.705 158.209 -125.219 157.038 -124.718 155.833 C-124.187 154.576 -123.656 153.319 -123.125 152.062 C-122.575 150.751 -122.025 149.438 -121.476 148.126 C-120.1 144.846 -118.714 141.57 -117.324 138.295 C-116.634 136.668 -115.946 135.04 -115.259 133.411 C-109.967 120.901 -104.297 108.584 -98.489 96.308 C-92.412 83.458 -86.619 70.492 -80.929 57.466 C-72.227 37.61 -72.227 37.61 -67.562 34.5 C-65.09 34.57 -65.09 34.57 -62.562 35.5 C-60.754 37.617 -60.754 37.617 -59.125 40.375 C-58.537 41.361 -57.949 42.347 -57.344 43.363 C-56.756 44.398 -56.168 45.434 -55.562 46.5 C-54.975 47.525 -54.387 48.55 -53.781 49.605 C-49.562 57.138 -49.562 57.138 -49.562 59.5 C-45.174 55.35 -41.544 50.789 -37.875 46 C-37.256 45.198 -36.636 44.395 -35.998 43.568 C-34.183 41.215 -32.372 38.858 -30.562 36.5 C-29.681 35.354 -28.8 34.208 -27.918 33.062 C-26.348 31.021 -24.779 28.98 -23.211 26.938 C-19.885 22.614 -16.536 18.307 -13.188 14 C-12.592 13.234 -11.996 12.467 -11.383 11.678 C-10.269 10.246 -9.153 8.816 -8.034 7.389 C-6.775 5.772 -5.539 4.138 -4.309 2.5 C-2.562 0.5 -2.562 0.5 0 0 Z M-90.562 114.5 C-90.562 115.16 -90.562 115.82 -90.562 116.5 C-81.197 119.111 -81.197 119.111 -71.562 119.5 C-72.354 117.5 -72.354 117.5 -73.562 115.5 C-74.553 115.17 -75.543 114.84 -76.562 114.5 C-76.562 113.84 -76.562 113.18 -76.562 112.5 C-76.031 112.945 -75.5 113.389 -74.953 113.848 C-74.247 114.414 -73.54 114.979 -72.812 115.562 C-72.116 116.131 -71.42 116.699 -70.703 117.285 C-68.363 118.939 -68.363 118.939 -64.562 117.5 C-66.543 115.19 -68.522 112.88 -70.562 110.5 C-69.269 111.456 -67.978 112.415 -66.688 113.375 C-65.968 113.909 -65.249 114.442 -64.508 114.992 C-62.562 116.5 -62.562 116.5 -60.562 118.5 C-57.979 118.667 -57.979 118.667 -55.562 118.5 C-57.178 116.459 -58.848 114.459 -60.562 112.5 C-61.223 112.5 -61.882 112.5 -62.562 112.5 C-62.562 111.84 -62.562 111.18 -62.562 110.5 C-59.82 112.024 -57.767 113.254 -55.75 115.688 C-52.576 118.318 -49.486 117.815 -45.562 117.5 C-42.4 116.998 -39.302 116.304 -36.188 115.562 C-34.979 115.289 -34.979 115.289 -33.746 115.01 C-29.544 114.083 -29.544 114.083 -25.562 112.5 C-25.562 111.51 -25.562 110.52 -25.562 109.5 C-34.382 107.727 -42.889 107.147 -51.875 107.188 C-53.151 107.192 -54.427 107.196 -55.741 107.2 C-68.262 107.35 -79.274 108.757 -90.562 114.5 Z M-33.246 117.559 C-34.169 117.779 -35.091 118 -36.042 118.228 C-37.018 118.462 -37.994 118.696 -39 118.938 C-46.169 120.623 -53.046 122.057 -60.418 122.359 C-62.749 122.421 -62.749 122.421 -65.562 123.5 C-68.328 123.411 -71.056 123.267 -73.812 123.062 C-79.078 122.69 -84.282 122.437 -89.562 122.5 C-90.882 128.949 -90.258 134.988 -89.562 141.5 C-87.252 140.51 -84.942 139.52 -82.562 138.5 C-82.233 139.16 -81.902 139.82 -81.562 140.5 C-82.986 140.717 -82.986 140.717 -84.438 140.938 C-87.456 141.329 -87.456 141.329 -89.562 142.5 C-91.444 153.037 -91.886 165.942 -86.969 175.645 C-83.955 179.221 -81.024 180.639 -76.812 182.5 C-75.37 183.188 -73.93 183.88 -72.492 184.578 C-71.467 185.074 -71.467 185.074 -70.421 185.58 C-61.843 189.826 -57.821 195.493 -54.562 204.5 C-52.206 212.725 -52.289 220.946 -52.375 229.438 C-52.382 230.837 -52.388 232.237 -52.395 233.637 C-52.444 241.427 -52.675 249.184 -53.204 256.956 C-54.031 270.432 -53.641 284.005 -53.562 297.5 C-49.933 297.17 -46.303 296.84 -42.562 296.5 C-42.562 297.16 -42.562 297.82 -42.562 298.5 C-43.635 298.624 -44.707 298.748 -45.812 298.875 C-49.009 299.408 -50.803 299.998 -53.562 301.5 C-53.49 302.31 -53.418 303.12 -53.343 303.954 C-52.623 312.822 -52.462 321.58 -52.548 330.471 C-52.571 332.872 -52.585 335.274 -52.596 337.676 C-52.629 344.492 -52.672 351.308 -52.734 358.125 C-52.772 362.323 -52.795 366.521 -52.808 370.72 C-52.816 372.307 -52.83 373.895 -52.849 375.483 C-52.876 377.701 -52.884 379.917 -52.887 382.135 C-52.897 383.391 -52.907 384.648 -52.917 385.943 C-52.504 390.085 -51.373 392.78 -49.562 396.5 C-44.272 397.161 -41.406 395.546 -37.102 392.789 C-36.594 392.364 -36.086 391.938 -35.562 391.5 C-35.562 390.84 -35.562 390.18 -35.562 389.5 C-34.243 389.17 -32.923 388.84 -31.562 388.5 C-31.562 387.84 -31.562 387.18 -31.562 386.5 C-30.572 386.17 -29.582 385.84 -28.562 385.5 C-26.95 383.658 -26.95 383.658 -25.5 381.375 C-24.993 380.63 -24.487 379.885 -23.965 379.117 C-20.129 371.958 -20.282 365.215 -20.375 357.25 C-20.381 356.109 -20.388 354.969 -20.395 353.793 C-20.482 344.01 -20.904 334.26 -21.562 324.5 C-22.222 324.5 -22.882 324.5 -23.562 324.5 C-23.562 323.84 -23.562 323.18 -23.562 322.5 C-22.903 322.5 -22.243 322.5 -21.562 322.5 C-21.537 318.484 -21.519 314.468 -21.508 310.452 C-21.5 308.433 -21.487 306.414 -21.475 304.395 C-21.455 296.599 -21.732 288.96 -22.444 281.2 C-22.562 278.5 -22.562 278.5 -21.562 276.5 C-21.651 274.289 -21.805 272.08 -22 269.875 C-22.102 268.686 -22.204 267.498 -22.309 266.273 C-22.434 264.901 -22.434 264.901 -22.562 263.5 C-23.222 263.5 -23.882 263.5 -24.562 263.5 C-24.892 264.16 -25.222 264.82 -25.562 265.5 C-27.523 266.352 -27.523 266.352 -29.938 267.125 C-30.729 267.385 -31.52 267.646 -32.336 267.914 C-34.562 268.5 -34.562 268.5 -37.562 268.5 C-37.892 267.84 -38.222 267.18 -38.562 266.5 C-37.748 266.299 -37.748 266.299 -36.918 266.094 C-34.231 265.416 -31.552 264.715 -28.875 264 C-27.902 263.742 -26.929 263.484 -25.926 263.219 C-23.628 262.723 -23.628 262.723 -22.562 261.5 C-22.46 259.127 -22.423 256.784 -22.43 254.41 C-22.428 253.66 -22.427 252.91 -22.426 252.137 C-22.424 249.612 -22.43 247.088 -22.438 244.562 C-22.438 243.687 -22.439 242.812 -22.44 241.91 C-22.459 225.574 -22.767 209.247 -23.135 192.916 C-23.468 178.091 -23.666 163.28 -23.525 148.452 C-23.332 132.368 -23.332 132.368 -25.562 116.5 C-28.399 116.5 -30.509 116.888 -33.246 117.559 Z M21.438 170.5 C22.612 174.025 23.311 174.308 26.375 176.188 C33.564 180.804 40.249 185.649 45.438 192.5 C47.087 192.17 48.737 191.84 50.438 191.5 C50.438 190.84 50.438 190.18 50.438 189.5 C49.489 189.026 48.54 188.551 47.562 188.062 C43.087 185.529 39.512 182.116 35.77 178.621 C32.119 174.906 32.119 174.906 27.438 173.5 C27.108 172.51 26.777 171.52 26.438 170.5 C24.788 170.5 23.138 170.5 21.438 170.5 Z M29.438 170.5 C34.196 175.493 39.51 179.668 44.906 183.947 C45.95 184.784 45.95 184.784 47.016 185.637 C47.966 186.39 47.966 186.39 48.935 187.159 C50.438 188.5 50.438 188.5 51.438 190.5 C58.305 188.894 58.305 188.894 64.188 185.188 C65.744 182.521 65.744 182.521 64.879 179.473 C63.709 176.321 63.709 176.321 60.855 175.109 C50.478 172.349 40.226 170.077 29.438 170.5 Z M0.25 173.25 C-0.427 173.407 -1.104 173.564 -1.801 173.726 C-6.747 174.989 -10.913 176.851 -14.562 180.5 C-14.947 183.844 -14.947 183.844 -13.562 187.5 C-4.192 195.669 7.058 195.828 18.875 195.75 C20.038 195.758 21.202 195.765 22.4 195.773 C29.317 195.758 35.722 195.183 42.438 193.5 C41.942 192.015 41.942 192.015 41.438 190.5 C38.933 189.281 38.933 189.281 36.438 188.5 C36.438 187.84 36.438 187.18 36.438 186.5 C34.198 184.775 31.957 183.154 29.625 181.562 C28.346 180.681 27.068 179.797 25.793 178.91 C25.222 178.52 24.651 178.129 24.063 177.727 C22.438 176.5 22.438 176.5 20.853 174.849 C19.522 173.27 19.522 173.27 17.438 173.5 C17.438 172.84 17.438 172.18 17.438 171.5 C11.392 171.068 6.099 171.834 0.25 173.25 Z M62.438 187.5 C63.438 189.5 63.438 189.5 63.438 189.5 Z M-16.562 191.5 C-18.836 193.778 -19.522 195.184 -19.93 198.399 C-19.926 199.525 -19.923 200.651 -19.919 201.812 C-19.922 203.096 -19.925 204.381 -19.928 205.704 C-19.916 207.112 -19.904 208.521 -19.891 209.93 C-19.888 211.399 -19.886 212.869 -19.885 214.338 C-19.88 217.437 -19.866 220.535 -19.844 223.634 C-19.816 227.508 -19.805 231.383 -19.8 235.257 C-19.776 252.977 -19.455 270.664 -18.772 288.371 C-18.589 293.274 -18.52 298.156 -18.562 303.062 C-18.666 315.545 -18.041 328.029 -17.562 340.5 C2.303 347.122 30.701 336.849 48.516 327.965 C50.923 326.58 53.181 325.117 55.438 323.5 C56.235 322.933 57.033 322.366 57.855 321.781 C64.211 317.053 69.595 312.54 71.438 304.5 C71.611 301.614 71.636 299.228 70.875 296.438 C70.306 293.916 70.934 292.017 71.438 289.5 C71.048 287.357 71.048 287.357 70.438 285.5 C70.438 284.84 70.438 284.18 70.438 283.5 C65.866 284.049 61.763 284.917 57.438 286.5 C57.438 285.84 57.438 285.18 57.438 284.5 C58.052 284.379 58.667 284.258 59.301 284.133 C60.109 283.965 60.917 283.798 61.75 283.625 C62.551 283.463 63.351 283.3 64.176 283.133 C66.691 282.555 66.691 282.555 69.438 280.5 C70.454 275.588 70.47 271.633 69.691 266.648 C69.303 263.362 69.416 260.1 69.5 256.797 C69.439 254.543 69.071 252.657 68.438 250.5 C67.179 250.644 65.921 250.789 64.625 250.938 C63.917 251.019 63.21 251.1 62.48 251.184 C60.244 251.472 60.244 251.472 57.438 252.5 C57.438 251.84 57.438 251.18 57.438 250.5 C58.148 250.33 58.858 250.16 59.59 249.984 C60.509 249.742 61.428 249.5 62.375 249.25 C63.292 249.018 64.208 248.786 65.152 248.547 C67.556 247.766 67.556 247.766 68.086 245.835 C68.532 242.872 68.459 240.085 68.352 237.09 C68.308 235.853 68.264 234.616 68.219 233.342 C68.167 232.053 68.116 230.765 68.062 229.438 C68.019 228.145 67.975 226.853 67.93 225.521 C67.816 218.905 67.816 218.905 66.438 212.5 C62.808 212.83 59.178 213.16 55.438 213.5 C58.737 212.18 62.038 210.86 65.438 209.5 C64.447 200.59 64.447 200.59 63.438 191.5 C61.334 192.15 61.334 192.15 59.188 192.812 C46.95 196.47 35.525 198.691 22.75 198.688 C21.296 198.694 21.296 198.694 19.812 198.7 C14.375 198.676 9.383 198.285 4.062 197.188 C-0.313 196.346 -2.411 196.45 -6.188 198.875 C-6.778 199.357 -7.368 199.839 -7.977 200.336 C-9.562 201.5 -9.562 201.5 -12.562 201.5 C-11.696 200.868 -11.696 200.868 -10.812 200.223 C-10.07 199.675 -9.327 199.127 -8.562 198.562 C-7.449 197.745 -7.449 197.745 -6.312 196.91 C-5.446 196.212 -5.446 196.212 -4.562 195.5 C-4.562 195.17 -4.562 194.84 -4.562 194.5 C-5.656 194.562 -6.749 194.624 -7.875 194.688 C-11.562 194.5 -11.562 194.5 -13.375 193 C-13.963 192.257 -13.963 192.257 -14.562 191.5 C-15.223 191.5 -15.882 191.5 -16.562 191.5 Z M-214.562 265.5 C-214.562 266.16 -214.562 266.82 -214.562 267.5 C-206.689 270.578 -200.025 272.1 -191.562 271.5 C-192.222 270.51 -192.882 269.52 -193.562 268.5 C-194.222 268.5 -194.882 268.5 -195.562 268.5 C-197.562 264.75 -197.562 264.75 -197.562 262.5 C-196.247 263.621 -194.935 264.747 -193.625 265.875 C-192.894 266.501 -192.163 267.128 -191.41 267.773 C-189.562 269.5 -189.562 269.5 -188.562 271.5 C-185.923 271.5 -183.283 271.5 -180.562 271.5 C-180.984 271.029 -181.406 270.559 -181.84 270.074 C-182.388 269.452 -182.936 268.829 -183.5 268.188 C-184.045 267.573 -184.591 266.958 -185.152 266.324 C-186.562 264.5 -186.562 264.5 -187.562 261.5 C-186.779 262.016 -185.995 262.531 -185.188 263.062 C-184.321 263.537 -183.455 264.011 -182.562 264.5 C-181.903 264.17 -181.243 263.84 -180.562 263.5 C-180.562 262.84 -180.562 262.18 -180.562 261.5 C-178.688 261.75 -178.688 261.75 -176.562 262.5 C-175.438 264.312 -175.438 264.312 -174.562 266.5 C-173.903 267.837 -173.237 269.171 -172.562 270.5 C-160.124 269.821 -160.124 269.821 -149.562 264.5 C-159.101 258.504 -171.752 259.178 -182.625 259.25 C-183.801 259.242 -184.978 259.235 -186.189 259.227 C-201.398 259.012 -201.398 259.012 -214.562 265.5 Z M-180.562 265.5 C-179.903 267.48 -179.243 269.46 -178.562 271.5 C-177.243 271.17 -175.923 270.84 -174.562 270.5 C-176.543 268.85 -178.523 267.2 -180.562 265.5 Z M-161.914 271.99 C-171.525 274.317 -180.632 274.656 -190.5 274.625 C-192.336 274.631 -192.336 274.631 -194.209 274.637 C-196.006 274.635 -196.006 274.635 -197.84 274.633 C-198.915 274.632 -199.99 274.631 -201.097 274.629 C-205.285 274.473 -209.405 274.014 -213.562 273.5 C-213.637 279.119 -213.691 284.738 -213.727 290.358 C-213.742 292.265 -213.763 294.171 -213.789 296.078 C-214.576 313.841 -214.576 313.841 -208.434 330.055 C-204.728 333.211 -201.263 334.345 -196.625 335.625 C-183.848 339.293 -183.848 339.293 -180.137 344.5 C-179.844 345.16 -179.551 345.82 -179.25 346.5 C-178.944 347.16 -178.639 347.82 -178.324 348.5 C-176.271 353.891 -176.332 359.041 -176.312 364.75 C-176.309 365.754 -176.305 366.758 -176.301 367.792 C-176.366 376.532 -177.293 385.055 -178.583 393.692 C-178.722 394.642 -178.861 395.592 -179.004 396.57 C-179.2 397.82 -179.2 397.82 -179.401 399.094 C-179.686 403.337 -178.772 406.422 -176.547 409.984 C-173.621 415.64 -173.887 421.505 -173.812 427.75 C-173.783 428.981 -173.753 430.212 -173.723 431.481 C-173.542 439.775 -173.475 448.075 -173.599 456.37 C-173.644 460.255 -173.355 463.712 -172.562 467.5 C-172.257 471.384 -172.122 475.278 -171.957 479.17 C-171.868 483.471 -171.868 483.471 -170.562 487.5 C-161.026 484.983 -154.464 480.368 -148.562 472.5 C-147.324 470.023 -147.433 468.358 -147.43 465.59 C-147.428 464.599 -147.427 463.609 -147.426 462.588 C-147.43 461.548 -147.434 460.509 -147.438 459.438 C-147.434 458.425 -147.43 457.412 -147.426 456.369 C-147.434 450.331 -147.777 444.488 -148.562 438.5 C-152.523 438.83 -156.483 439.16 -160.562 439.5 C-157.527 437.476 -156.368 437.179 -152.875 436.875 C-151.663 436.763 -151.663 436.763 -150.426 436.648 C-149.811 436.599 -149.196 436.55 -148.562 436.5 C-147.376 432.941 -147.416 429.702 -147.438 426 C-147.434 425.323 -147.43 424.646 -147.426 423.949 C-147.432 420.859 -147.578 418.453 -148.562 415.5 C-148.397 414.716 -148.233 413.933 -148.062 413.125 C-147.515 410.249 -147.84 408.311 -148.562 405.5 C-149.078 405.665 -149.594 405.83 -150.125 406 C-153.296 406.65 -156.335 406.562 -159.562 406.5 C-159.892 405.84 -160.222 405.18 -160.562 404.5 C-154.623 403.51 -154.623 403.51 -148.562 402.5 C-147.683 397 -147.683 397 -148.062 391.5 C-148.518 388.768 -148.463 387.118 -148.062 384.438 C-147.377 380.781 -147.377 380.781 -148.027 378.336 C-148.792 374.282 -148.667 370.303 -148.625 366.188 C-148.62 365.352 -148.616 364.516 -148.611 363.654 C-148.6 361.603 -148.582 359.551 -148.562 357.5 C-149.979 357.812 -151.396 358.124 -152.812 358.438 C-153.996 358.699 -153.996 358.699 -155.203 358.965 C-157.331 359.448 -159.448 359.962 -161.562 360.5 C-161.562 359.51 -161.562 358.52 -161.562 357.5 C-155.127 357.005 -155.127 357.005 -148.562 356.5 C-148.538 350.679 -148.52 344.859 -148.508 339.038 C-148.503 337.056 -148.496 335.074 -148.487 333.093 C-148.475 330.25 -148.469 327.408 -148.465 324.566 C-148.46 323.675 -148.455 322.783 -148.449 321.864 C-148.449 319.743 -148.5 317.621 -148.562 315.5 C-148.892 315.17 -149.222 314.84 -149.562 314.5 C-151.502 314.566 -151.502 314.566 -153.75 314.875 C-154.96 315.024 -154.96 315.024 -156.195 315.176 C-158.995 315.559 -161.781 316.001 -164.562 316.5 C-163.562 314.5 -163.562 314.5 -161.562 313.438 C-158.172 312.378 -154.982 312.032 -151.453 311.746 C-149.553 311.694 -149.553 311.694 -148.562 310.5 C-148.462 307.74 -148.424 305.01 -148.438 302.25 C-148.434 301.486 -148.43 300.721 -148.426 299.934 C-148.433 295.99 -148.592 292.35 -149.562 288.5 C-151.146 288.811 -152.729 289.124 -154.312 289.438 C-155.194 289.612 -156.076 289.786 -156.984 289.965 C-159.195 290.424 -161.378 290.933 -163.562 291.5 C-159.981 287.136 -154.837 286.803 -149.562 285.5 C-149.562 280.22 -149.562 274.94 -149.562 269.5 C-153.707 269.5 -157.895 270.993 -161.914 271.99 Z M-103.355 301.559 C-114.917 302.136 -128.863 305.515 -137.562 313.5 C-139.369 315.373 -139.369 315.373 -140.562 317.5 C-140.077 321.201 -140.077 321.201 -138.562 324.5 C-137.572 324.83 -136.582 325.16 -135.562 325.5 C-135.285 326.116 -135.008 326.732 -134.723 327.367 C-131.988 332.394 -124.349 334.541 -119.156 336.328 C-100.912 340.955 -79.553 334.914 -63.445 326.414 C-60.406 324.396 -58.586 322.521 -56.562 319.5 C-55.965 315.915 -56.252 314.121 -57.875 310.875 C-69.529 300.576 -88.866 301.255 -103.355 301.559 Z M-63.312 330.812 C-78.767 340.943 -100.667 342.218 -118.602 338.816 C-121.513 338.233 -121.513 338.233 -123.68 339.574 C-124.55 340.373 -124.55 340.373 -125.438 341.188 C-129.489 344.595 -133.661 346.571 -138.562 348.5 C-137.562 346.5 -137.562 346.5 -134.312 345.188 C-130.564 343.673 -128.193 341.609 -125.562 338.5 C-125.562 337.84 -125.562 337.18 -125.562 336.5 C-131.219 336.731 -133.78 338.047 -137.789 342.027 C-139.9 343.78 -142.012 344.531 -144.562 345.5 C-144.698 375.048 -144.501 404.581 -144.062 434.125 C-144.051 434.931 -144.039 435.737 -144.026 436.568 C-143.878 446.545 -143.723 456.523 -143.562 466.5 C-141.983 466.832 -140.402 467.159 -138.82 467.484 C-137.94 467.667 -137.06 467.85 -136.153 468.038 C-116.612 471.523 -96.693 463.932 -80.562 453.5 C-70.163 446.046 -59.745 436.993 -55.562 424.5 C-55.261 421.16 -55.261 421.16 -55.304 417.489 C-55.3 416.801 -55.297 416.114 -55.293 415.406 C-55.284 413.137 -55.29 410.867 -55.297 408.598 C-55.296 406.998 -55.294 405.399 -55.291 403.8 C-55.288 400.438 -55.292 397.077 -55.302 393.715 C-55.313 389.474 -55.307 385.232 -55.295 380.991 C-55.254 363.396 -55.404 345.992 -57.562 328.5 C-60.15 328.5 -61.16 329.399 -63.312 330.812 Z M-141.562 330.5 C-143.154 335.373 -143.774 339.308 -143.562 344.5 C-142.224 343.55 -140.891 342.589 -139.562 341.625 C-138.449 340.824 -138.449 340.824 -137.312 340.008 C-136.735 339.51 -136.158 339.013 -135.562 338.5 C-135.562 337.84 -135.562 337.18 -135.562 336.5 C-134.903 336.5 -134.243 336.5 -133.562 336.5 C-133.562 335.84 -133.562 335.18 -133.562 334.5 C-136.202 333.18 -138.842 331.86 -141.562 330.5 Z M99.52 376.336 C94.355 382.114 89.715 388.036 85.438 394.5 C85.767 395.16 86.098 395.82 86.438 396.5 C91.037 392.201 95.029 387.656 98.875 382.688 C99.324 382.112 99.773 381.537 100.236 380.945 C102.669 378.05 102.669 378.05 103.438 374.5 C101.236 374.27 101.236 374.27 99.52 376.336 Z M47.117 384.645 C39.838 392.401 33.344 400.659 27.438 409.5 C28.428 409.83 29.418 410.16 30.438 410.5 C33.914 406.47 37.381 402.432 40.833 398.382 C41.851 397.189 42.869 395.996 43.889 394.806 C45.163 393.315 46.426 391.814 47.688 390.312 C48.415 389.453 49.142 388.593 49.891 387.707 C51.724 385.54 51.724 385.54 51.438 382.5 C49.156 382.274 49.156 382.274 47.117 384.645 Z M-1.938 397.438 C-8.487 404.195 -13.955 411.962 -19.562 419.5 C-19.233 420.16 -18.902 420.82 -18.562 421.5 C-15.475 418.442 -12.393 415.378 -9.312 412.312 C-8.44 411.448 -7.567 410.584 -6.668 409.693 C-5.401 408.432 -5.401 408.432 -4.109 407.145 C-3.334 406.375 -2.559 405.605 -1.761 404.812 C2.906 400.361 2.906 400.361 4.438 394.5 C0.825 394.5 0.538 394.968 -1.938 397.438 Z M-232.562 396.5 C-233.697 396.603 -234.831 396.706 -236 396.812 C-247.661 398.248 -258.547 402.266 -266.125 411.5 C-267.878 414.068 -268.567 415.522 -269.188 418.625 C-267.666 425.625 -262.274 430.548 -256.562 434.5 C-240.289 442.616 -222.881 442.079 -205.562 437.5 C-202.389 436.416 -199.502 435.106 -196.562 433.5 C-195.771 433.084 -194.98 432.667 -194.164 432.238 C-186.898 428.746 -186.898 428.746 -182.562 422.5 C-181.801 421.798 -181.801 421.798 -181.023 421.082 C-179.134 419.036 -179.159 417.937 -179.188 415.188 C-179.18 414.449 -179.172 413.71 -179.164 412.949 C-179.711 409.59 -180.709 407.365 -182.562 404.5 C-195.617 396.461 -217.527 392.634 -232.562 396.5 Z M-181.562 428.5 C-181.975 428.887 -182.387 429.273 -182.812 429.672 C-187.101 433.539 -191.252 436.252 -196.562 438.5 C-197.386 438.851 -198.21 439.201 -199.059 439.562 C-215.52 446.061 -231.609 444.963 -248.453 441.023 C-252.15 440.371 -252.15 440.371 -255.562 441.5 C-257.704 443.571 -257.704 443.571 -259.688 446.062 C-260.939 447.576 -262.223 449.064 -263.562 450.5 C-264.222 450.5 -264.882 450.5 -265.562 450.5 C-262.592 447.2 -259.623 443.9 -256.562 440.5 C-259.184 437.878 -261.058 436.524 -264.25 434.812 C-265.058 434.376 -265.866 433.939 -266.699 433.488 C-267.314 433.162 -267.929 432.836 -268.562 432.5 C-270.787 439.658 -270.853 446.411 -270.828 453.871 C-270.83 455.148 -270.832 456.425 -270.834 457.74 C-270.835 460.433 -270.833 463.125 -270.823 465.817 C-270.812 469.244 -270.818 472.67 -270.83 476.097 C-270.839 479.397 -270.833 482.697 -270.828 485.996 C-270.832 487.215 -270.836 488.434 -270.84 489.69 C-270.895 500.622 -270.895 500.622 -267.223 510.734 C-257.204 520.239 -243.454 523.461 -229.938 523.938 C-213.147 523.467 -193.311 519.355 -180.891 507.098 C-174.416 499.309 -173.688 492.534 -174.562 482.5 C-174.734 481.837 -174.905 481.175 -175.082 480.492 C-175.773 477.626 -175.655 474.88 -175.625 471.938 C-175.616 470.802 -175.607 469.666 -175.598 468.496 C-175.586 467.507 -175.574 466.519 -175.562 465.5 C-175.562 464.51 -175.562 463.52 -175.562 462.5 C-175.562 461.84 -175.562 461.18 -175.562 460.5 C-176.222 460.5 -176.882 460.5 -177.562 460.5 C-177.397 459.799 -177.233 459.098 -177.062 458.375 C-176.323 454.123 -176.192 450.612 -177.562 446.5 C-177.99 443.075 -178.377 439.651 -178.725 436.217 C-179.097 431.905 -179.097 431.905 -181.562 428.5 Z M78.984 448.625 C78.044 449.575 77.112 450.534 76.188 451.5 C75.694 452.006 75.2 452.512 74.691 453.034 C71.495 456.334 68.379 459.691 65.402 463.191 C63.748 465.135 62.07 467.053 60.379 468.965 C59.273 470.226 58.168 471.488 57.062 472.75 C56.526 473.353 55.989 473.956 55.436 474.577 C54.934 475.155 54.431 475.733 53.914 476.328 C53.461 476.843 53.008 477.357 52.542 477.888 C51.282 479.728 50.855 481.324 50.438 483.5 C55.733 482.045 58.468 478.641 62 474.688 C62.606 474.023 63.213 473.358 63.837 472.673 C65.091 471.297 66.341 469.919 67.589 468.538 C69.349 466.597 71.127 464.674 72.914 462.758 C73.456 462.176 73.998 461.595 74.556 460.995 C75.576 459.901 76.597 458.807 77.617 457.714 C82.67 452.831 82.67 452.831 84.438 446.5 C81.275 446.173 81.275 446.173 78.984 448.625 Z M-16.883 450.555 C-22.879 456.584 -28.383 462.74 -33.562 469.5 C-34.893 471.169 -36.225 472.836 -37.562 474.5 C-37.233 475.16 -36.902 475.82 -36.562 476.5 C-33.496 473.463 -30.435 470.419 -27.375 467.375 C-26.511 466.519 -25.646 465.663 -24.756 464.781 C-18.31 458.448 -18.31 458.448 -12.562 451.5 C-12.562 450.51 -12.562 449.52 -12.562 448.5 C-14.829 448.279 -14.829 448.279 -16.883 450.555 Z M42.438 448.5 C39.467 451.8 36.497 455.1 33.438 458.5 C33.767 459.16 34.098 459.82 34.438 460.5 C37.408 457.2 40.378 453.9 43.438 450.5 C43.108 449.84 42.777 449.18 42.438 448.5 Z M23.438 453.5 C13.959 462.364 6.096 472.038 -1.562 482.5 C-1.233 483.16 -0.902 483.82 -0.562 484.5 C6.746 476.722 13.793 468.859 20.438 460.5 C21.771 458.833 23.104 457.167 24.438 455.5 C24.108 454.84 23.777 454.18 23.438 453.5 Z M97.438 460.5 C95.457 462.48 93.477 464.46 91.438 466.5 C91.767 467.16 92.098 467.82 92.438 468.5 C94.418 466.52 96.398 464.54 98.438 462.5 C98.108 461.84 97.777 461.18 97.438 460.5 Z M30.438 462.5 C29.777 463.82 29.118 465.14 28.438 466.5 C29.428 465.84 30.418 465.18 31.438 464.5 C31.108 463.84 30.777 463.18 30.438 462.5 Z M106.438 473.5 C104.561 478.791 103.047 484.012 101.906 489.508 C101.438 491.5 101.438 491.5 100.375 494.125 C99.29 496.577 99.29 496.577 99.059 499.699 C98.399 503.735 97.178 506.938 95.562 510.688 C92.363 518.342 89.438 526.114 89.438 534.5 C93.042 533.299 93.585 532.239 95.625 529.125 C96.155 528.334 96.685 527.542 97.23 526.727 C98.676 524.483 98.676 524.483 98.438 521.5 C97.447 521.5 96.457 521.5 95.438 521.5 C99.847 507.972 104.488 494.424 112.438 482.5 C112.438 481.18 112.438 479.86 112.438 478.5 C111.447 478.5 110.457 478.5 109.438 478.5 C109.108 476.85 108.777 475.2 108.438 473.5 C107.777 473.5 107.118 473.5 106.438 473.5 Z M-84.562 482.5 C-86.293 485.096 -86.981 486.517 -87.746 489.414 C-87.95 490.171 -88.154 490.928 -88.365 491.708 C-88.574 492.506 -88.784 493.303 -89 494.125 C-90.335 499.091 -91.665 504.022 -93.375 508.875 C-94.77 512.498 -94.77 512.498 -94.562 516.5 C-95.223 516.5 -95.882 516.5 -96.562 516.5 C-96.636 515.595 -96.636 515.595 -96.711 514.672 C-96.786 513.873 -96.86 513.073 -96.938 512.25 C-97.042 511.067 -97.042 511.067 -97.148 509.859 C-97.578 507.414 -98.349 505.652 -99.562 503.5 C-100.553 503.5 -101.543 503.5 -102.562 503.5 C-101.953 509.591 -101.074 515.581 -100.039 521.613 C-99.441 525.234 -98.983 528.855 -98.562 532.5 C-97.572 532.5 -96.582 532.5 -95.562 532.5 C-91.861 522.004 -88.608 511.428 -85.688 500.688 C-85.377 499.561 -85.067 498.435 -84.748 497.274 C-84.32 495.675 -84.32 495.675 -83.883 494.043 C-83.628 493.094 -83.373 492.146 -83.11 491.169 C-82.569 488.532 -82.46 486.183 -82.562 483.5 C-83.223 483.17 -83.882 482.84 -84.562 482.5 Z M-144.562 485.5 C-146.528 488.952 -147.337 492.385 -148.188 496.25 C-148.578 498.006 -148.578 498.006 -148.977 499.797 C-149.17 500.689 -149.363 501.581 -149.562 502.5 C-150.882 499.2 -152.202 495.9 -153.562 492.5 C-154.553 492.995 -154.553 492.995 -155.562 493.5 C-154.572 500.1 -153.582 506.7 -152.562 513.5 C-149.285 512.748 -149.285 512.748 -147.562 509.5 C-146.82 509.253 -146.077 509.005 -145.312 508.75 C-141.342 506.945 -139.202 503.892 -136.562 500.5 C-140.689 500.052 -140.689 500.052 -143.312 503 C-144.055 503.825 -144.798 504.65 -145.562 505.5 C-145.334 504.475 -145.106 503.45 -144.871 502.395 C-144.58 501.034 -144.29 499.673 -144 498.312 C-143.849 497.639 -143.697 496.965 -143.541 496.271 C-142.722 492.367 -142.434 489.348 -143.562 485.5 C-143.893 485.5 -144.222 485.5 -144.562 485.5 Z M-287.562 486.5 C-291.867 494.595 -295.251 502.966 -298.562 511.5 C-298.926 510.326 -298.926 510.326 -299.297 509.129 C-299.632 508.117 -299.967 507.105 -300.312 506.062 C-300.8 504.548 -300.8 504.548 -301.297 503.004 C-302.301 500.33 -302.301 500.33 -304.703 499.652 C-305.317 499.602 -305.93 499.552 -306.562 499.5 C-305.658 503.745 -304.746 507.92 -303.438 512.062 C-302.416 516.076 -302.418 519.374 -302.562 523.5 C-301.572 523.5 -300.582 523.5 -299.562 523.5 C-298.903 522.51 -298.243 521.52 -297.562 520.5 C-295.863 519.613 -295.863 519.613 -293.875 518.812 C-288.876 516.482 -285.896 512.792 -282.562 508.5 C-282.892 507.84 -283.222 507.18 -283.562 506.5 C-286.562 506.151 -286.562 506.151 -288.098 507.996 C-288.602 508.637 -289.106 509.277 -289.625 509.938 C-292.382 513.41 -292.382 513.41 -294.562 514.5 C-293.535 511.89 -292.476 509.305 -291.344 506.738 C-288.559 500.38 -286.581 494.371 -285.562 487.5 C-286.222 487.17 -286.882 486.84 -287.562 486.5 Z M-73.562 498.5 C-79.087 504.36 -83.403 510.619 -87.562 517.5 C-88.012 518.199 -88.462 518.897 -88.926 519.617 C-91.088 523.019 -91.088 523.019 -91.312 526.938 C-91.065 527.453 -90.817 527.969 -90.562 528.5 C-87.396 525.537 -85.051 522.443 -82.688 518.812 C-79.747 514.311 -76.76 509.853 -73.691 505.438 C-72.536 503.454 -71.998 501.743 -71.562 499.5 C-72.223 499.17 -72.882 498.84 -73.562 498.5 Z M-15.562 506.5 C-22.165 513.18 -27.368 520.72 -32.562 528.5 C-29.612 528.82 -29.612 528.82 -28.02 527.215 C-27.477 526.628 -26.934 526.042 -26.375 525.438 C-23.888 522.835 -21.362 520.401 -18.625 518.062 C-13.514 513.649 -8.322 509.14 -4.562 503.5 C-4.871 501.347 -4.871 501.347 -5.562 499.5 C-9.61 499.5 -12.774 503.84 -15.562 506.5 Z M-44.562 506.5 C-46.369 508.286 -46.369 508.286 -48.188 510.5 C-48.819 511.243 -49.451 511.985 -50.102 512.75 C-50.825 513.616 -50.825 513.616 -51.562 514.5 C-51.233 515.16 -50.902 515.82 -50.562 516.5 C-49.411 515.402 -48.266 514.297 -47.125 513.188 C-46.487 512.573 -45.849 511.958 -45.191 511.324 C-43.34 509.494 -43.34 509.494 -42.562 506.5 C-43.223 506.5 -43.882 506.5 -44.562 506.5 Z M139.438 513.5 C138.659 516.906 138.338 520.008 138.438 523.5 C137.777 523.5 137.118 523.5 136.438 523.5 C135.777 521.52 135.118 519.54 134.438 517.5 C133.447 517.5 132.457 517.5 131.438 517.5 C131.995 520.844 132.789 523.533 134.438 526.5 C135.098 526.5 135.757 526.5 136.438 526.5 C136.767 527.82 137.098 529.14 137.438 530.5 C138.098 530.5 138.757 530.5 139.438 530.5 C141.32 525.604 142.301 520.74 142.438 515.5 C142.108 514.84 141.777 514.18 141.438 513.5 C140.777 513.5 140.118 513.5 139.438 513.5 Z M85.438 515.5 C85.108 518.8 84.777 522.1 84.438 525.5 C83.777 525.5 83.118 525.5 82.438 525.5 C82.438 523.85 82.438 522.2 82.438 520.5 C81.777 520.17 81.118 519.84 80.438 519.5 C80.411 521.625 80.391 523.75 80.375 525.875 C80.363 527.058 80.352 528.242 80.34 529.461 C80.223 532.419 80.223 532.419 81.438 534.5 C82.428 534.5 83.418 534.5 84.438 534.5 C87.049 525.134 87.049 525.134 87.438 515.5 C86.777 515.5 86.118 515.5 85.438 515.5 Z " fill="#000000" transform="translate(567.5625,195.5)"/>
<path d="M0 0 C3 1 3 1 4.352 3.004 C7.067 8.46 8.661 12.902 9 19 C6 18 6 18 4.395 14.98 C3.856 13.721 3.329 12.456 2.812 11.188 C2.404 10.243 2.404 10.243 1.986 9.279 C0.574 5.907 0 3.716 0 0 Z " fill="#000000" transform="translate(439,198)"/>
<path d="M0 0 C7.08 6.586 8.465 12.155 8.812 21.75 C10.112 21.523 11.411 21.296 12.75 21.062 C17.994 20.501 22.143 21.279 26.812 23.75 C30.386 26.877 32.056 29.511 32.875 34.125 C33.162 39.148 31.721 42.706 28.812 46.75 C19.023 57.255 3.396 56.945 -9.945 58.109 C-12.06 58.304 -14.176 58.5 -16.29 58.698 C-20.706 59.106 -25.122 59.506 -29.539 59.897 C-35.183 60.397 -40.825 60.914 -46.468 61.437 C-51.876 61.937 -57.286 62.43 -62.695 62.922 C-63.718 63.015 -64.74 63.109 -65.793 63.205 C-68.704 63.471 -71.616 63.73 -74.528 63.987 C-75.376 64.065 -76.224 64.143 -77.098 64.223 C-92.188 65.536 -92.188 65.536 -98.062 63.438 C-98.782 63.194 -99.501 62.95 -100.242 62.699 C-102.399 61.647 -103.663 60.596 -105.188 58.75 C-106.327 55.088 -106.369 53.255 -105.062 49.625 C-103.039 46.522 -101.298 44.75 -98.188 42.75 C-97.342 42.626 -96.496 42.502 -95.625 42.375 C-91.97 41.438 -91.172 38.822 -89.188 35.75 C-87.207 35.255 -87.207 35.255 -85.188 34.75 C-87.168 38.71 -89.147 42.67 -91.188 46.75 C-94.158 46.75 -97.127 46.75 -100.188 46.75 C-100.974 51.24 -100.974 51.24 -101.188 55.75 C-98.707 58.803 -95.969 59.21 -92.188 59.75 C-89.142 59.769 -86.115 59.599 -83.076 59.419 C-81.751 59.346 -81.751 59.346 -80.4 59.272 C-71.237 58.741 -62.107 57.928 -52.973 57.043 C-51.216 56.875 -49.46 56.706 -47.704 56.538 C-44.064 56.188 -40.425 55.833 -36.786 55.476 C-32.159 55.024 -27.531 54.588 -22.902 54.156 C-19.29 53.816 -15.679 53.464 -12.069 53.108 C-10.364 52.942 -8.658 52.781 -6.952 52.624 C10.971 51.464 10.971 51.464 26.062 43 C29.118 38.987 29.723 35.736 29.812 30.75 C29.153 30.75 28.493 30.75 27.812 30.75 C27.812 29.76 27.812 28.77 27.812 27.75 C20.982 25.308 15.061 24.334 7.812 24.75 C6.002 19.458 4.402 14.111 2.812 8.75 C2.153 8.75 1.493 8.75 0.812 8.75 C-3.955 4.448 -3.955 4.448 -5.188 0.75 C-12.158 -1.749 -20.668 -2.716 -27.801 -0.402 C-34.182 2.679 -40.094 7.255 -43.188 13.75 C-44.074 16.91 -44.798 20.05 -45.414 23.273 C-45.669 24.091 -45.925 24.908 -46.188 25.75 C-47.178 26.08 -48.168 26.41 -49.188 26.75 C-50.858 25.757 -52.524 24.756 -54.188 23.75 C-59.104 22.361 -62.462 22.843 -67.188 24.75 C-71.133 27.524 -74.536 30.695 -77.188 34.75 C-78.673 34.255 -78.673 34.255 -80.188 33.75 C-78.576 27.598 -75.783 23.46 -70.438 19.938 C-63.227 17.303 -57.462 17.502 -50.188 19.75 C-50.017 19.17 -49.847 18.59 -49.672 17.992 C-47.116 9.754 -43.355 3.728 -36.188 -1.25 C-35.528 -1.25 -34.868 -1.25 -34.188 -1.25 C-33.858 -2.24 -33.528 -3.23 -33.188 -4.25 C-22.533 -10.061 -8.979 -7.388 0 0 Z " fill="#000000" transform="translate(411.1875,209.25)"/>
<path d="M0 0 C2.352 1.83 3.29 2.957 4.25 5.75 C4.25 6.74 4.25 7.73 4.25 8.75 C1.25 7.75 1.25 7.75 0.188 5.75 C-0.122 5.09 -0.431 4.43 -0.75 3.75 C-3.74 2.255 -6.45 2.634 -9.75 2.75 C-10.74 3.08 -11.73 3.41 -12.75 3.75 C-13.08 2.76 -13.41 1.77 -13.75 0.75 C-8.883 -1.54 -5.007 -2.276 0 0 Z " fill="#000000" transform="translate(509.75,217.25)"/>
<path d="M0 0 C4.276 0.518 7.03 3.186 10.188 5.875 C10.733 6.322 11.279 6.77 11.842 7.23 C14.468 9.437 15.895 10.686 17 14 C11.478 14 9.044 11.54 5 8 C0 2.892 0 2.892 0 0 Z " fill="#000000" transform="translate(619,217)"/>
<path d="M0 0 C0.66 0 1.32 0 2 0 C4.595 5.353 5.637 10.038 6.188 15.938 C6.31 17.106 6.31 17.106 6.436 18.299 C6.634 20.198 6.818 22.099 7 24 C6.01 24 5.02 24 4 24 C3.524 21.86 3.049 19.719 2.578 17.578 C2.206 15.919 1.822 14.262 1.422 12.609 C0.398 8.309 -0.229 4.458 0 0 Z " fill="#000000" transform="translate(593,237)"/>
<path d="M0 0 C0.99 0 1.98 0 3 0 C1.257 12.67 1.257 12.67 -2 18 C-2.99 18 -3.98 18 -5 18 C-4.384 13.681 -3.358 9.748 -1.938 5.625 C-1.394 4.036 -1.394 4.036 -0.84 2.414 C-0.424 1.219 -0.424 1.219 0 0 Z " fill="#000000" transform="translate(553,242)"/>
<path d="M0 0 C3.367 1.393 4.986 2.979 7 6 C3.757 5.441 2.069 4.587 0 2 C0 1.34 0 0.68 0 0 Z " fill="#000000" transform="translate(513,305)"/>
<path d="M0 0 C3.143 1.746 5.469 3.469 8 6 C8 6.99 8 7.98 8 9 C5.822 7.989 4.03 7.025 2.188 5.469 C-0.415 3.721 -2.146 3.517 -5.25 3.312 C-6.142 3.247 -7.034 3.181 -7.953 3.113 C-8.629 3.076 -9.304 3.039 -10 3 C-10 2.34 -10 1.68 -10 1 C-6.79 -0.605 -3.483 -0.485 0 0 Z " fill="#000000" transform="translate(420,329)"/>
<path d="M0 0 C0 0.99 0 1.98 0 3 C-1.932 3.866 -3.871 4.717 -5.812 5.562 C-6.891 6.038 -7.97 6.514 -9.082 7.004 C-12 8 -12 8 -15 7 C-15 6.34 -15 5.68 -15 5 C-5.628 0 -5.628 0 0 0 Z " fill="#000000" transform="translate(509,342)"/>
<path d="M0 0 C-1.974 2.523 -2.967 2.993 -6.188 3.688 C-7.58 3.842 -7.58 3.842 -9 4 C-9 3.01 -9 2.02 -9 1 C-3.375 -1.125 -3.375 -1.125 0 0 Z " fill="#000000" transform="translate(528,346)"/>
<path d="M0 0 C-0.33 0.99 -0.66 1.98 -1 3 C-4.493 4.747 -7.068 6 -11 6 C-10.67 4.68 -10.34 3.36 -10 2 C-3.375 0 -3.375 0 0 0 Z " fill="#000000" transform="translate(539,360)"/>
<path d="M0 0 C15.635 10.086 19.029 33.996 23.375 50.562 C23.605 51.435 23.836 52.308 24.073 53.207 C27.375 65.796 27.375 65.796 27.375 69.562 C26.313 69.523 26.313 69.523 25.23 69.483 C10.719 69.02 -2.179 69.634 -16.195 73.438 C-22.93 75.246 -28.692 75.442 -35.375 73.438 C-44.384 68.24 -49.006 61.577 -52.27 51.59 C-54.508 38.823 -51.847 24.522 -45.031 13.488 C-35.466 0.389 -15.587 -6.706 0 0 Z M-13.812 20.125 C-16.259 22.065 -17.352 23.698 -18.625 26.562 C-19.192 31.764 -18.486 35.168 -15.625 39.562 C-13.06 41.597 -11.857 41.577 -8.562 41.375 C-5.461 40.517 -4.536 40.059 -2.625 37.562 C-1.805 32.892 -2.308 28.547 -3.75 24.062 C-6.432 20.486 -9.35 18.978 -13.812 20.125 Z M-37 30.938 C-39.643 35.207 -39.82 37.367 -39.191 42.297 C-38.29 45.903 -36.637 47.488 -33.625 49.562 C-30.216 50.119 -28.41 49.944 -25.312 48.438 C-22.917 45.776 -22.758 44.143 -22.625 40.562 C-23.32 34.82 -23.32 34.82 -25.988 29.824 C-27.743 28.259 -27.743 28.259 -31.062 28.062 C-34.755 28.216 -34.755 28.216 -37 30.938 Z " fill="#000000" transform="translate(230.625,363.4375)"/>
<path d="M0 0 C-1 3 -1 3 -3.188 4.188 C-6.254 5.073 -8.824 5.148 -12 5 C-12 4.34 -12 3.68 -12 3 C-10.753 2.492 -9.503 1.994 -8.25 1.5 C-7.554 1.222 -6.858 0.943 -6.141 0.656 C-4 0 -4 0 0 0 Z " fill="#000000" transform="translate(508,365)"/>
<path d="M0 0 C10.661 1.666 19.115 11.151 27 18 C24 19 24 19 21.652 17.848 C4.582 6.623 4.582 6.623 0 0 Z " fill="#000000" transform="translate(577,369)"/>
<path d="M0 0 C4.242 0.548 6.766 1.974 10.188 4.5 C13.473 6.95 13.473 6.95 17 9 C16.67 10.32 16.34 11.64 16 13 C10.299 9.722 4.791 6.539 0 2 C0 1.34 0 0.68 0 0 Z " fill="#000000" transform="translate(608,370)"/>
<path d="M0 0 C5.419 1.524 8.986 5.255 13 9 C13.825 9.763 14.65 10.526 15.5 11.312 C17 13 17 13 17 15 C12.154 14.572 9.422 12.207 6 9 C5.072 8.154 4.144 7.309 3.188 6.438 C1.12 4.134 0.335 3.018 0 0 Z " fill="#000000" transform="translate(572,371)"/>
<path d="M0 0 C3.583 1.654 6.81 3.68 10 6 C10 6.66 10 7.32 10 8 C10.99 8.33 11.98 8.66 13 9 C13 9.66 13 10.32 13 11 C8.923 10.472 6.744 9.353 3.688 6.625 C2.99 6.019 2.293 5.413 1.574 4.789 C0 3 0 3 0 0 Z " fill="#000000" transform="translate(569,375)"/>
<path d="M0 0 C0.99 0.66 1.98 1.32 3 2 C1 5 1 5 -0.945 5.512 C-1.665 5.57 -2.384 5.628 -3.125 5.688 C-5.043 5.842 -5.043 5.842 -7 6 C-6 3 -6 3 -2.938 1.312 C-1.968 0.879 -0.999 0.446 0 0 Z " fill="#000000" transform="translate(521,381)"/>
<path d="M0 0 C2.468 1.152 4.048 2.048 6 4 C6 5.32 6 6.64 6 8 C4.125 7.688 4.125 7.688 2 7 C0 4 0 4 0 0 Z " fill="#000000" transform="translate(218,391)"/>
<path d="M0 0 C0.99 0.66 1.98 1.32 3 2 C3 2.99 3 3.98 3 5 C2.134 4.649 1.267 4.299 0.375 3.938 C-4.997 2.445 -9.01 3.798 -14 6 C-14 5.01 -14 4.02 -14 3 C-9.102 0.104 -5.736 -1.868 0 0 Z " fill="#000000" transform="translate(335,396)"/>
<path d="M0 0 C1.812 0.188 1.812 0.188 4 1 C7 5.179 7 5.179 7 8 C4.625 7.75 4.625 7.75 2 7 C0.206 4.437 0 3.169 0 0 Z " fill="#000000" transform="translate(197,400)"/>
<path d="M0 0 C2.97 0 5.94 0 9 0 C8.67 0.99 8.34 1.98 8 3 C5.69 3.33 3.38 3.66 1 4 C0.67 2.68 0.34 1.36 0 0 Z " fill="#000000" transform="translate(533,402)"/>
<path d="M0 0 C-0.33 0.99 -0.66 1.98 -1 3 C-3.363 4.168 -3.363 4.168 -6.312 5.188 C-7.761 5.704 -7.761 5.704 -9.238 6.23 C-12 7 -12 7 -16 7 C-15.67 6.01 -15.34 5.02 -15 4 C-12.812 2.938 -12.812 2.938 -10 2 C-8.989 1.629 -7.979 1.257 -6.938 0.875 C-4 0 -4 0 0 0 Z " fill="#000000" transform="translate(604,415)"/>
<path d="M0 0 C0.99 0 1.98 0 3 0 C1.402 5.315 -0.895 10.149 -3.312 15.125 C-6.461 21.65 -9.391 28.157 -11.93 34.945 C-13 37 -13 37 -16 38 C-14.264 25.846 -8.905 8.905 0 0 Z " fill="#000000" transform="translate(436,418)"/>
<path d="M0 0 C1.32 0.33 2.64 0.66 4 1 C7.136 10.834 7.798 19.967 5 30 C4.01 30 3.02 30 2 30 C2.023 28.756 2.046 27.512 2.07 26.23 C2.185 17.281 2.201 8.746 0 0 Z " fill="#000000" transform="translate(412,423)"/>
<path d="M0 0 C-0.33 0.99 -0.66 1.98 -1 3 C-4.879 4.39 -7.865 5 -12 5 C-12 4.01 -12 3.02 -12 2 C-10.378 1.47 -8.752 0.951 -7.125 0.438 C-6.22 0.147 -5.315 -0.143 -4.383 -0.441 C-2 -1 -2 -1 0 0 Z " fill="#000000" transform="translate(582,436)"/>
<path d="M0 0 C0.66 0.66 1.32 1.32 2 2 C-2.624 4.076 -7.101 5.7 -12 7 C-12 6.01 -12 5.02 -12 4 C-8.04 2.68 -4.08 1.36 0 0 Z " fill="#000000" transform="translate(613,438)"/>
<path d="M0 0 C0 0.66 0 1.32 0 2 C-1.558 2.535 -3.121 3.053 -4.688 3.562 C-5.558 3.853 -6.428 4.143 -7.324 4.441 C-10.246 5.051 -12.144 4.777 -15 4 C-14 2 -14 2 -11.602 1.113 C-10.128 0.717 -10.128 0.717 -8.625 0.312 C-7.648 0.041 -6.671 -0.231 -5.664 -0.512 C-3 -1 -3 -1 0 0 Z " fill="#000000" transform="translate(536,440)"/>
<path d="M0 0 C0 0.99 0 1.98 0 3 C-1.623 3.671 -3.249 4.337 -4.875 5 C-6.232 5.557 -6.232 5.557 -7.617 6.125 C-10 7 -10 7 -12 7 C-11.742 5.109 -11.742 5.109 -11 3 C-9.258 1.953 -9.258 1.953 -7.125 1.25 C-6.426 1.008 -5.728 0.765 -5.008 0.516 C-3 0 -3 0 0 0 Z " fill="#000000" transform="translate(580,460)"/>
<path d="M0 0 C0 0.99 0 1.98 0 3 C-2.97 3.66 -5.94 4.32 -9 5 C-7 1 -7 1 -5.062 0.25 C-3 0 -3 0 0 0 Z " fill="#000000" transform="translate(610,461)"/>
<path d="M0 0 C0 0.66 0 1.32 0 2 C-2.97 2.66 -5.94 3.32 -9 4 C-9.33 3.01 -9.66 2.02 -10 1 C-6.62 -0.04 -3.522 -0.08 0 0 Z " fill="#000000" transform="translate(592,477)"/>
<path d="M0 0 C-10.374 4.592 -10.374 4.592 -16 4 C-16 3.34 -16 2.68 -16 2 C-14.751 1.518 -13.501 1.04 -12.25 0.562 C-11.554 0.296 -10.858 0.029 -10.141 -0.246 C-9.434 -0.495 -8.728 -0.744 -8 -1 C-7.002 -1.358 -7.002 -1.358 -5.984 -1.723 C-3.416 -2.082 -2.177 -1.322 0 0 Z " fill="#000000" transform="translate(621,486)"/>
<path d="M0 0 C0 0.99 0 1.98 0 3 C-2.457 4.004 -4.915 5.004 -7.375 6 C-8.423 6.429 -8.423 6.429 -9.492 6.867 C-14.773 9 -14.773 9 -17 9 C-16.863 7.172 -16.863 7.172 -16 5 C-13.418 3.516 -13.418 3.516 -10.188 2.25 C-9.129 1.822 -8.071 1.394 -6.98 0.953 C-4 0 -4 0 0 0 Z " fill="#000000" transform="translate(391,493)"/>
<path d="M0 0 C6.431 4.494 11.971 9.636 17.5 15.188 C18.322 15.994 19.145 16.8 19.992 17.631 C21.156 18.794 21.156 18.794 22.344 19.98 C23.047 20.681 23.75 21.381 24.475 22.102 C26 24 26 24 26 27 C22.164 25.437 19.864 22.936 17 20 C16.34 19.505 15.68 19.01 15 18.5 C12.413 16.56 10.256 14.313 8 12 C6.855 10.917 6.855 10.917 5.688 9.812 C4 8 4 8 4 6 C3.34 6 2.68 6 2 6 C0 3 0 3 0 0 Z " fill="#000000" transform="translate(460,500)"/>
<path d="M0 0 C6.497 2.484 11.164 4.939 16 10 C18.354 12.063 20.725 14.104 23.109 16.133 C25 18 25 18 26 21 C21.187 20.548 19.04 18.558 15.625 15.25 C12.468 12.26 9.417 9.437 5.812 7 C4.884 6.34 3.956 5.68 3 5 C3 4.34 3 3.68 3 3 C2.34 3 1.68 3 1 3 C0.67 2.01 0.34 1.02 0 0 Z " fill="#000000" transform="translate(475,500)"/>
<path d="M0 0 C4.657 1.417 7.431 4.102 10.688 7.562 C13.991 11.231 13.991 11.231 18 14 C18 14.66 18 15.32 18 16 C18.66 16 19.32 16 20 16 C20 16.66 20 17.32 20 18 C20.619 18.289 21.238 18.577 21.875 18.875 C24 20 24 20 26 22 C26 22.99 26 23.98 26 25 C21.916 23.648 19.623 21.931 16.688 18.812 C13.803 15.808 10.903 13.021 7.688 10.375 C4.068 7.29 2.085 4.258 0 0 Z " fill="#000000" transform="translate(468,501)"/>
<path d="M0 0 C4.606 1.247 7.142 2.696 10.375 6.188 C14.392 10.393 18.572 14.235 23 18 C24.333 19.146 25.667 20.292 27 21.438 C27.99 22.283 28.98 23.129 30 24 C29.67 24.99 29.34 25.98 29 27 C23.536 24.678 19.095 21.313 15 17 C15 16.34 15 15.68 15 15 C13.68 14.34 12.36 13.68 11 13 C11 12.34 11 11.68 11 11 C10.01 10.67 9.02 10.34 8 10 C8 9.34 8 8.68 8 8 C7.34 8 6.68 8 6 8 C6 7.34 6 6.68 6 6 C5.381 5.752 4.762 5.505 4.125 5.25 C1.649 3.794 1.049 2.622 0 0 Z " fill="#000000" transform="translate(450,502)"/>
<path d="M0 0 C0 0.66 0 1.32 0 2 C-1.915 2.816 -3.832 3.628 -5.75 4.438 C-6.817 4.89 -7.885 5.342 -8.984 5.809 C-11.341 6.74 -13.53 7.478 -16 8 C-14.253 3.757 -12.141 2.633 -8.109 0.75 C-5.333 -0.237 -2.915 -0.292 0 0 Z " fill="#000000" transform="translate(581,505)"/>
<path d="M0 0 C-1 3 -1 3 -2.707 3.984 C-3.402 4.237 -4.097 4.49 -4.812 4.75 C-5.5 5.013 -6.187 5.276 -6.895 5.547 C-9.281 6.061 -10.706 5.763 -13 5 C-9.825 0.891 -4.989 0 0 0 Z " fill="#000000" transform="translate(541,505)"/>
<path d="M0 0 C3.367 0.593 5.122 1.7 7.625 4 C8.313 4.624 9.002 5.248 9.711 5.891 C10.466 6.587 11.222 7.283 12 8 C13.748 9.585 15.498 11.169 17.25 12.75 C18.06 13.487 18.869 14.225 19.703 14.984 C21.939 17.014 21.939 17.014 24.297 18.641 C24.859 19.089 25.421 19.538 26 20 C26 20.66 26 21.32 26 22 C18.65 20.57 12.998 15.456 8.484 9.738 C6.359 7.249 3.882 5.286 1.32 3.262 C0.885 2.845 0.449 2.429 0 2 C0 1.34 0 0.68 0 0 Z " fill="#000000" transform="translate(445,507)"/>
<path d="M0 0 C5.011 1.432 6.945 3.984 10 8 C9.01 8 8.02 8 7 8 C7 7.34 7 6.68 7 6 C6.402 5.753 5.804 5.505 5.188 5.25 C2.714 3.836 1.566 2.349 0 0 Z " fill="#000000" transform="translate(492,508)"/>
<path d="M0 0 C-2.468 3.702 -4.266 4.18 -8.375 5.75 C-9.517 6.199 -10.659 6.647 -11.836 7.109 C-14.872 7.964 -16.137 8.157 -19 7 C-14.583 1.178 -6.979 -0.25 0 0 Z " fill="#000000" transform="translate(605,508)"/>
<path d="M0 0 C3.789 1.302 6.168 2.792 8.988 5.625 C9.694 6.331 10.4 7.038 11.127 7.766 C11.848 8.503 12.569 9.24 13.312 10 C14.053 10.737 14.794 11.475 15.557 12.234 C21 17.733 21 17.733 21 20 C17.782 19.421 16.173 18.537 13.906 16.199 C13.351 15.634 12.795 15.069 12.223 14.486 C11.654 13.893 11.086 13.299 10.5 12.688 C9.932 12.105 9.363 11.523 8.777 10.924 C7.675 9.795 6.578 8.662 5.484 7.525 C4.217 6.223 2.909 4.961 1.594 3.707 C0 2 0 2 0 0 Z " fill="#000000" transform="translate(440,509)"/>
<path d="M0 0 C3.957 1.674 6.845 4.131 10 7 C10 7.66 10 8.32 10 9 C10.619 9.247 11.238 9.495 11.875 9.75 C14.351 11.206 14.951 12.378 16 15 C11.399 13.511 8.498 11.254 5 8 C5 7.34 5 6.68 5 6 C4.01 5.67 3.02 5.34 2 5 C2 4.34 2 3.68 2 3 C1.34 3 0.68 3 0 3 C0 2.01 0 1.02 0 0 Z " fill="#000000" transform="translate(436,514)"/>
<path d="M0 0 C0 0.66 0 1.32 0 2 C-2.435 3.006 -4.873 4.005 -7.312 5 C-8.348 5.429 -8.348 5.429 -9.404 5.867 C-12.415 7.089 -14.719 8 -18 8 C-18 6.68 -18 5.36 -18 4 C-15.754 3.132 -13.505 2.281 -11.25 1.438 C-10.616 1.191 -9.982 0.944 -9.328 0.689 C-5.89 -0.582 -3.478 -1.467 0 0 Z " fill="#000000" transform="translate(396,520)"/>
<path d="M0 0 C-0.33 0.66 -0.66 1.32 -1 2 C-3.322 2.407 -5.657 2.744 -8 3 C-5.452 -0.822 -4.391 -1.464 0 0 Z " fill="#000000" transform="translate(570,527)"/>
<path d="M0 0 C-3.756 3.429 -8.235 4.564 -13 6 C-12.703 4.113 -12.703 4.113 -12 2 C-7.688 -0.405 -4.778 -1.593 0 0 Z " fill="#000000" transform="translate(533,541)"/>
<path d="M0 0 C-4.824 3.493 -10.311 4.595 -16 6 C-15 3 -15 3 -12.637 1.797 C-11.663 1.451 -10.69 1.106 -9.688 0.75 C-8.722 0.394 -7.756 0.038 -6.762 -0.328 C-3.978 -1.005 -2.645 -0.98 0 0 Z " fill="#000000" transform="translate(447,549)"/>
<path d="M0 0 C-0.33 1.32 -0.66 2.64 -1 4 C-3.97 4.66 -6.94 5.32 -10 6 C-10 4.68 -10 3.36 -10 2 C-6.492 0.396 -3.856 -0.22 0 0 Z " fill="#000000" transform="translate(475,551)"/>
<path d="M0 0 C21.495 12.062 34.096 39.706 40.738 62.34 C41.798 67.575 41.963 73.093 39.562 77.938 C36.556 84.866 40.363 93.05 42.312 100 C44.94 109.58 47.372 119.185 49.562 128.875 C49.821 129.994 50.08 131.112 50.346 132.265 C51.632 138.064 52.42 143.31 52.125 149.25 C51.135 149.25 50.145 149.25 49.125 149.25 C49.005 148.583 48.885 147.916 48.761 147.228 C45.271 128.013 41.485 108.759 34.789 90.359 C34.125 88.25 34.125 88.25 34.125 85.25 C33.156 85.724 32.186 86.199 31.188 86.688 C23.963 89.74 16.484 90.08 9.125 87.25 C-10.139 76.597 -19.611 51.996 -25.526 32.054 C-28.117 22.303 -27.923 13.14 -22.875 4.25 C-16.81 -2.999 -8.523 -3.718 0 0 Z M-9.875 6.25 C-10.788 8.72 -11.069 9.814 -9.979 12.265 C-9.513 12.956 -9.047 13.647 -8.566 14.359 C-8.067 15.113 -7.567 15.868 -7.053 16.645 C-6.52 17.422 -5.987 18.199 -5.438 19 C-4.908 19.793 -4.379 20.586 -3.834 21.402 C-2.525 23.359 -1.206 25.308 0.125 27.25 C-0.419 27.129 -0.963 27.008 -1.524 26.883 C-4.015 26.332 -6.507 25.791 -9 25.25 C-10.284 24.964 -10.284 24.964 -11.594 24.672 C-16.102 23.701 -20.231 23.006 -24.875 23.25 C-22.427 26.125 -20.037 27.144 -16.5 28.375 C-15.564 28.708 -14.628 29.04 -13.664 29.383 C-9.204 30.769 -5.233 31.375 -0.562 31.312 C0.762 31.299 0.762 31.299 2.113 31.285 C2.777 31.274 3.441 31.262 4.125 31.25 C4.536 32.33 4.536 32.33 4.955 33.432 C6.099 36.186 7.399 38.73 8.84 41.34 C9.361 42.289 9.883 43.239 10.42 44.217 C10.962 45.197 11.504 46.177 12.062 47.188 C18.594 59.038 18.594 59.038 21.125 64.25 C13.125 66.272 5.369 67.771 -2.875 68.25 C-2.091 70.396 -2.091 70.396 -0.164 70.855 C8.723 72.387 16.091 71.232 24.125 67.25 C24.425 68.017 24.726 68.784 25.035 69.574 C26.174 72.371 27.368 74.791 29.125 77.25 C30.115 77.25 31.105 77.25 32.125 77.25 C31.542 73.405 30.372 70.668 28.438 67.312 C26.033 62.634 26.033 62.634 26.812 59.375 C27.246 58.344 27.679 57.312 28.125 56.25 C28.618 50.01 28.708 44.061 26.125 38.25 C25.795 38.25 25.465 38.25 25.125 38.25 C24.795 45.18 24.465 52.11 24.125 59.25 C23.465 59.25 22.805 59.25 22.125 59.25 C21.863 58.373 21.601 57.496 21.331 56.592 C20.141 53.295 18.722 50.716 16.832 47.773 C16.202 46.773 15.573 45.773 14.924 44.742 C13.593 42.653 12.257 40.567 10.916 38.484 C10.29 37.487 9.664 36.489 9.02 35.461 C8.441 34.556 7.861 33.652 7.265 32.72 C6.125 30.25 6.125 30.25 6.434 28.097 C6.662 27.488 6.89 26.878 7.125 26.25 C7.529 19.585 7.416 13.55 5.125 7.25 C4.135 7.745 4.135 7.745 3.125 8.25 C3.137 8.986 3.148 9.722 3.16 10.48 C3.169 11.456 3.178 12.432 3.188 13.438 C3.199 14.4 3.211 15.363 3.223 16.355 C3.13 19.106 2.746 21.575 2.125 24.25 C1.51 23.118 0.895 21.986 0.262 20.82 C-0.554 19.338 -1.371 17.857 -2.188 16.375 C-2.592 15.629 -2.996 14.882 -3.412 14.113 C-3.808 13.398 -4.205 12.682 -4.613 11.945 C-4.975 11.285 -5.336 10.626 -5.708 9.946 C-6.93 7.945 -6.93 7.945 -9.875 6.25 Z " fill="#000000" transform="translate(140.875,553.75)"/>
<path d="M0 0 C8.431 4.722 11.579 13.016 14.156 21.867 C17.122 32.53 19.504 42.911 18 54 C16.043 57.089 13.344 57.752 10 59 C8.684 59.636 7.375 60.285 6.07 60.945 C-1.835 64.89 -9.394 67.87 -18 70 C-15.807 56.813 -13.403 43.699 -10.575 30.633 C-10.37 29.676 -10.165 28.72 -9.953 27.734 C-9.677 26.469 -9.677 26.469 -9.396 25.179 C-8.911 22.877 -8.911 22.877 -9 20 C-14.728 34.447 -17.15 49.791 -20 65 C-20.66 65 -21.32 65 -22 65 C-23.807 62.869 -25.408 60.619 -27.051 58.359 C-29.139 55.832 -31.384 53.963 -34 52 C-29.825 60.288 -29.825 60.288 -23.438 66.75 C-20.962 69.459 -20.999 69.931 -21.074 73.914 C-21.508 77.985 -22.208 81.985 -23 86 C-22.01 86 -21.02 86 -20 86 C-19.909 84.844 -19.909 84.844 -19.816 83.664 C-19.733 82.661 -19.649 81.658 -19.562 80.625 C-19.481 79.627 -19.4 78.63 -19.316 77.602 C-19 75 -19 75 -18 73 C-16.126 72.369 -14.223 71.822 -12.312 71.312 C-1.928 68.251 7.333 63.5 16 57 C16.66 57 17.32 57 18 57 C17.377 69.05 12.824 80.13 6 90 C5.6 90.584 5.201 91.168 4.789 91.77 C-0.447 98.71 -6.955 101.394 -15.289 102.836 C-18.34 103.021 -21 102.541 -24 102 C-24.01 102.582 -24.021 103.164 -24.031 103.764 C-24.139 109.815 -24.254 115.865 -24.372 121.916 C-24.416 124.175 -24.457 126.434 -24.497 128.693 C-24.555 131.937 -24.619 135.182 -24.684 138.426 C-24.709 139.945 -24.709 139.945 -24.734 141.494 C-24.754 142.435 -24.774 143.376 -24.795 144.345 C-24.818 145.587 -24.818 145.587 -24.842 146.855 C-25 149 -25 149 -26 152 C-26.99 152 -27.98 152 -29 152 C-29.029 149.146 -29.048 146.292 -29.062 143.438 C-29.075 142.07 -29.075 142.07 -29.088 140.675 C-29.107 134.745 -28.893 128.865 -28.496 122.949 C-28.372 120.864 -28.252 118.779 -28.132 116.694 C-28.045 115.322 -27.942 113.951 -27.824 112.582 C-26.906 104.764 -26.906 104.764 -29.645 97.756 C-31.718 95.953 -31.718 95.953 -33.965 94.434 C-38.86 90.985 -41.412 84.648 -43 79 C-46.88 55.802 -34.38 30.939 -22 12 C-16.594 4.686 -10.011 -2.536 0 0 Z " fill="#000000" transform="translate(233,552)"/>
<path d="M0 0 C-1.257 3.771 -2.347 4.052 -5.812 5.812 C-6.685 6.273 -7.558 6.733 -8.457 7.207 C-11 8 -11 8 -13.324 7.137 C-13.877 6.762 -14.43 6.386 -15 6 C-10.868 1.041 -6.313 0 0 0 Z " fill="#000000" transform="translate(543,559)"/>
<path d="M0 0 C-0.176 1.832 -0.176 1.832 -1 4 C-6.076 7.208 -11.995 9.513 -18 10 C-17 7 -17 7 -13.945 5.176 C-12.677 4.544 -11.403 3.924 -10.125 3.312 C-9.487 2.992 -8.849 2.672 -8.191 2.342 C-5.281 0.917 -3.28 0 0 0 Z " fill="#000000" transform="translate(494,573)"/>
<path d="M0 0 C2.97 0 5.94 0 9 0 C8.67 0.99 8.34 1.98 8 3 C3.545 3.495 3.545 3.495 -1 4 C-0.67 2.68 -0.34 1.36 0 0 Z " fill="#000000" transform="translate(408,579)"/>
<path d="M0 0 C4.062 0.639 7.172 2.818 10.562 5 C15.073 7.903 15.073 7.903 20 10 C21.711 11.621 23.373 13.295 25 15 C25.928 15.928 26.856 16.856 27.812 17.812 C28.534 18.534 29.256 19.256 30 20 C24.015 19.693 19.501 16.771 15 13 C15 12.34 15 11.68 15 11 C14.278 10.732 13.556 10.464 12.812 10.188 C10.002 9.001 7.516 7.725 5 6 C5 5.34 5 4.68 5 4 C2.525 3.01 2.525 3.01 0 2 C0 1.34 0 0.68 0 0 Z " fill="#000000" transform="translate(350,596)"/>
<path d="M0 0 C-0.33 0.99 -0.66 1.98 -1 3 C-2.934 3.844 -2.934 3.844 -5.438 4.5 C-6.777 4.865 -6.777 4.865 -8.145 5.238 C-9.087 5.49 -10.029 5.741 -11 6 C-12.877 6.556 -14.752 7.118 -16.625 7.688 C-18.812 8.344 -18.812 8.344 -21 9 C-21.33 8.01 -21.66 7.02 -22 6 C-8.179 -0.327 -8.179 -0.327 0 0 Z " fill="#000000" transform="translate(462,596)"/>
<path d="M0 0 C3.987 1.367 6.885 3.152 10 6 C10 6.66 10 7.32 10 8 C10.99 8.33 11.98 8.66 13 9 C13 9.66 13 10.32 13 11 C13.619 11.309 14.238 11.619 14.875 11.938 C16.25 12.625 17.625 13.312 19 14 C19 14.66 19 15.32 19 16 C19.99 16 20.98 16 22 16 C23.374 17.291 24.709 18.626 26 20 C26.66 20.33 27.32 20.66 28 21 C28 21.66 28 22.32 28 23 C28.598 23.268 29.196 23.536 29.812 23.812 C31.972 24.985 33.358 26.194 35 28 C34.01 28.495 34.01 28.495 33 29 C30.64 28.064 28.304 27.067 26 26 C26 25.34 26 24.68 26 24 C25.278 23.753 24.556 23.505 23.812 23.25 C20.724 21.877 18.49 20.276 16 18 C16 17.34 16 16.68 16 16 C15.381 15.691 14.762 15.381 14.125 15.062 C12.75 14.375 11.375 13.688 10 13 C10 12.34 10 11.68 10 11 C9.134 10.629 9.134 10.629 8.25 10.25 C5.671 8.817 3.939 7.216 2 5 C2 4.34 2 3.68 2 3 C1.34 3 0.68 3 0 3 C0 2.01 0 1.02 0 0 Z " fill="#000000" transform="translate(323,597)"/>
<path d="M0 0 C4.969 -0.386 7.346 0.432 11.375 3.312 C12.402 4.036 13.43 4.759 14.488 5.504 C15.045 5.902 15.601 6.301 16.174 6.711 C18.172 8.121 20.197 9.483 22.23 10.84 C23.675 11.81 25.119 12.78 26.562 13.75 C27.599 14.439 27.599 14.439 28.656 15.142 C32.047 17.449 34.799 19.445 37 23 C32.298 23 30.794 21.926 26.875 19.438 C26.301 19.075 25.727 18.712 25.135 18.338 C19.977 15.051 14.977 11.555 10 8 C7.28 6.126 4.56 4.252 1.836 2.383 C1.23 1.926 0.624 1.47 0 1 C0 0.67 0 0.34 0 0 Z " fill="#000000" transform="translate(335,600)"/>
<path d="M0 0 C3.486 0.587 5.194 1.798 7.715 4.238 C8.744 5.222 8.744 5.222 9.795 6.225 C10.502 6.914 11.209 7.603 11.938 8.312 C18.243 14.412 18.243 14.412 25 20 C24.67 20.99 24.34 21.98 24 23 C21.69 21.68 19.38 20.36 17 19 C17 18.34 17 17.68 17 17 C15.68 16.67 14.36 16.34 13 16 C13 15.34 13 14.68 13 14 C12.402 13.732 11.804 13.464 11.188 13.188 C9.002 12.001 7.587 10.904 6 9 C6 8.34 6 7.68 6 7 C5.01 6.67 4.02 6.34 3 6 C3 5.34 3 4.68 3 4 C2.34 4 1.68 4 1 4 C0.67 2.68 0.34 1.36 0 0 Z " fill="#000000" transform="translate(316,603)"/>
<path d="M0 0 C0 0.66 0 1.32 0 2 C-3.96 2.99 -7.92 3.98 -12 5 C-12 4.01 -12 3.02 -12 2 C-7.879 0.002 -4.548 -0.178 0 0 Z " fill="#000000" transform="translate(499,603)"/>
<path d="M0 0 C1.693 0.955 3.359 1.959 5 3 C6.37 3.276 7.746 3.524 9.125 3.75 C11.215 4.211 11.215 4.211 13 5 C14.688 8.375 14.688 8.375 16 12 C16.866 12.681 17.732 13.361 18.625 14.062 C21 16 21 16 21.875 19.062 C22 22 22 22 21 25 C20.907 26.547 20.907 26.547 20.812 28.125 C19.751 33.187 17.501 37.179 14 41 C11.479 41.95 9.726 42 7 42 C5.989 42.186 4.979 42.371 3.938 42.562 C1 43 1 43 -1 42 C-3.005 42.299 -5.006 42.634 -7 43 C-7.99 43 -8.98 43 -10 43 C-11.695 44.995 -11.695 44.995 -13.188 47.5 C-13.982 48.753 -13.982 48.753 -14.793 50.031 C-15.39 51.006 -15.39 51.006 -16 52 C-16.66 51.67 -17.32 51.34 -18 51 C-17.416 46.214 -15.921 42.402 -14 38 C-13.309 35.221 -13.309 35.221 -13 33 C-14.32 32.67 -15.64 32.34 -17 32 C-20.922 17.096 -20.922 17.096 -18 10 C-15.938 8.875 -15.938 8.875 -14 8 C-13.814 6.793 -13.814 6.793 -13.625 5.562 C-13 3 -13 3 -10.375 1.188 C-6.585 -0.146 -3.99 -0.435 0 0 Z M-11 7 C-10.192 7.061 -9.384 7.121 -8.551 7.184 C-7.482 7.267 -6.414 7.351 -5.312 7.438 C-4.257 7.519 -3.201 7.6 -2.113 7.684 C0.651 7.965 3.289 8.402 6 9 C5.133 6.733 5.133 6.733 2.438 5.875 C-2.152 4.707 -7.389 3.389 -11 7 Z M6 9 C6.66 9.33 7.32 9.66 8 10 C8.625 12.062 8.625 12.062 9 14 C8.34 13.67 7.68 13.34 7 13 C0.06 12.222 -8.021 13.003 -13.742 17.312 C-15.272 18.785 -15.272 18.785 -17 21 C-16.134 20.711 -15.268 20.423 -14.375 20.125 C-13.261 19.754 -12.148 19.383 -11 19 C-10.092 18.649 -9.185 18.299 -8.25 17.938 C-3.876 16.676 0.473 16.34 5 16 C5.33 16.66 5.66 17.32 6 18 C5.34 18 4.68 18 4 18 C2.299 20.051 0.7 22.105 -0.875 24.25 C-3.72 28.092 -6.501 31.712 -10 35 C-9.34 35.66 -8.68 36.32 -8 37 C-1.789 30.975 -1.789 30.975 3.938 24.5 C6 22 6 22 8 21 C7.549 22.773 7.089 24.543 6.625 26.312 C6.242 27.792 6.242 27.792 5.852 29.301 C5 32 5 32 3 35 C3.33 35.99 3.66 36.98 4 38 C9.257 31.112 11.349 23.642 11.301 15.008 C10.955 12.696 10.141 11.027 9 9 C8.01 9 7.02 9 6 9 Z M14 15 C14 15.66 14 16.32 14 17 C14.66 16.67 15.32 16.34 16 16 C15.34 15.67 14.68 15.34 14 15 Z M16 17 C16.33 20.63 16.66 24.26 17 28 C17.33 28 17.66 28 18 28 C18.054 26.542 18.093 25.084 18.125 23.625 C18.148 22.813 18.171 22.001 18.195 21.164 C18.214 18.787 18.214 18.787 16 17 Z M17 29 C18 31 18 31 18 31 Z M16 31 C15.505 32.98 15.505 32.98 15 35 C15.66 34.67 16.32 34.34 17 34 C16.67 33.01 16.34 32.02 16 31 Z " fill="#000000" transform="translate(760,605)"/>
<path d="M0 0 C5.17 0.323 9.511 3.303 13 7 C13 8.32 13 9.64 13 11 C10.038 9.609 7.446 8.004 4.812 6.062 C4.118 5.558 3.423 5.054 2.707 4.535 C1 3 1 3 0 0 Z " fill="#000000" transform="translate(310,615)"/>
<path d="M0 0 C-0.33 0.99 -0.66 1.98 -1 3 C-3.363 4.168 -3.363 4.168 -6.312 5.188 C-7.761 5.704 -7.761 5.704 -9.238 6.23 C-12 7 -12 7 -16 7 C-16 6.01 -16 5.02 -16 4 C-11.174 0.782 -5.802 -0.363 0 0 Z " fill="#000000" transform="translate(464,628)"/>
<path d="M0 0 C5.263 2.237 8.255 5.765 11.188 10.562 C11.769 11.501 12.35 12.439 12.949 13.406 C14.227 15.594 15.407 17.779 16.5 20.062 C17.623 20.051 18.746 20.039 19.902 20.027 C40.258 19.873 40.258 19.873 45.562 22.688 C47.5 25.062 47.5 25.062 48 28.625 C47.5 32.062 47.5 32.062 46.375 33.938 C42.984 35.972 40.144 36.355 36.238 35.66 C29.397 33.845 21.727 30.741 16.965 25.312 C16.481 24.9 15.998 24.487 15.5 24.062 C14.921 24.229 14.342 24.395 13.746 24.566 C10.217 25.346 7.634 23.582 4.562 22 C3.955 21.712 3.347 21.424 2.721 21.127 C-1.845 18.827 -4.549 16.25 -7.5 12.062 C-8.125 8.5 -8.125 8.5 -7.5 5.062 C-3.879 0.097 -3.879 0.097 0 0 Z " fill="#000000" transform="translate(720.5,640.9375)"/>
<path d="M0 0 C-1 3 -1 3 -3.312 4.25 C-6.099 5.028 -7.334 4.987 -10 4 C-3.375 0 -3.375 0 0 0 Z " fill="#000000" transform="translate(313,647)"/>
<path d="M0 0 C-0.33 0.99 -0.66 1.98 -1 3 C-3.64 3 -6.28 3 -9 3 C-9 2.34 -9 1.68 -9 1 C-5.804 -0.065 -3.343 -0.074 0 0 Z " fill="#000000" transform="translate(377,650)"/>
<path d="M0 0 C0 0.66 0 1.32 0 2 C-2.97 2.66 -5.94 3.32 -9 4 C-9 3.01 -9 2.02 -9 1 C-6.043 -0.478 -3.258 -0.06 0 0 Z " fill="#000000" transform="translate(347,658)"/>
<path d="M0 0 C-0.33 0.66 -0.66 1.32 -1 2 C-3.285 2.633 -3.285 2.633 -6.062 3.125 C-6.982 3.293 -7.901 3.46 -8.848 3.633 C-9.558 3.754 -10.268 3.875 -11 4 C-11 3.01 -11 2.02 -11 1 C-7.326 -0.176 -3.831 -0.074 0 0 Z " fill="#000000" transform="translate(311,665)"/>
<path d="M0 0 C0.66 0 1.32 0 2 0 C1.859 1.938 1.712 3.875 1.562 5.812 C1.481 6.891 1.4 7.97 1.316 9.082 C1 12 1 12 0 15 C-0.66 15 -1.32 15 -2 15 C-2.369 4.442 -2.369 4.442 0 0 Z " fill="#000000" transform="translate(232,667)"/>
<path d="M0 0 C0.66 0 1.32 0 2 0 C1.34 3.46 0.57 6.856 -0.375 10.25 C-0.61 11.121 -0.844 11.993 -1.086 12.891 C-1.388 13.587 -1.689 14.283 -2 15 C-2.99 15.33 -3.98 15.66 -5 16 C-4.556 9.79 -3.085 5.395 0 0 Z " fill="#000000" transform="translate(240,668)"/>
<path d="M0 0 C4.668 0.711 6.585 3.38 9.516 6.855 C11.366 9.529 11.919 11.763 12 15 C11.01 15 10.02 15 9 15 C5 8.25 5 8.25 5 6 C4.361 5.753 3.721 5.505 3.062 5.25 C1 4 1 4 0.25 1.875 C0.167 1.256 0.085 0.638 0 0 Z " fill="#000000" transform="translate(216,670)"/>
<path d="M0 0 C0 0.66 0 1.32 0 2 C-11.522 5.444 -11.522 5.444 -17 5 C-17 4.01 -17 3.02 -17 2 C-15.108 1.466 -13.211 0.948 -11.312 0.438 C-10.257 0.147 -9.201 -0.143 -8.113 -0.441 C-4.993 -1.001 -3.023 -0.847 0 0 Z " fill="#000000" transform="translate(328,671)"/>
<path d="M0 0 C0 0.99 0 1.98 0 3 C-2.58 3.867 -5.163 4.719 -7.75 5.562 C-8.48 5.809 -9.209 6.056 -9.961 6.311 C-10.67 6.539 -11.379 6.768 -12.109 7.004 C-12.759 7.219 -13.408 7.433 -14.077 7.655 C-16.334 8.06 -17.835 7.693 -20 7 C-17.073 3.667 -14.855 2.322 -10.562 1.25 C-9.636 1.008 -8.709 0.765 -7.754 0.516 C-5.095 0.018 -2.698 -0.098 0 0 Z " fill="#000000" transform="translate(373,682)"/>
<path d="M0 0 C2.312 2.125 2.312 2.125 3.312 4.125 C3.353 6.458 3.356 8.792 3.312 11.125 C3.893 11.053 4.473 10.981 5.07 10.906 C17.032 9.485 17.032 9.485 20.312 11.125 C20.312 11.785 20.312 12.445 20.312 13.125 C13.284 13.979 6.39 14.246 -0.688 14.125 C-0.676 13.499 -0.664 12.872 -0.652 12.227 C-0.643 11.409 -0.634 10.592 -0.625 9.75 C-0.613 8.938 -0.602 8.126 -0.59 7.289 C-0.543 5.076 -0.543 5.076 -1.688 3.125 C-10.037 0.33 -17.964 2.508 -25.688 6.125 C-30.429 8.868 -30.429 8.868 -33.688 13.125 C-32.8 13.017 -32.8 13.017 -31.895 12.906 C-27.805 12.426 -23.814 11.992 -19.688 12.125 C-19.688 13.445 -19.688 14.765 -19.688 16.125 C-24.112 16.416 -28.537 16.701 -32.963 16.979 C-34.461 17.075 -35.959 17.172 -37.457 17.271 C-47.553 17.935 -57.568 18.258 -67.688 18.125 C-67.688 17.135 -67.688 16.145 -67.688 15.125 C-64.566 14.085 -62.126 13.912 -58.848 13.766 C-57.702 13.701 -56.557 13.637 -55.377 13.57 C-52.964 13.44 -50.55 13.326 -48.135 13.227 C-46.988 13.157 -45.842 13.087 -44.66 13.016 C-43.611 12.964 -42.562 12.913 -41.481 12.86 C-37.807 11.893 -36.798 10.197 -34.688 7.125 C-26.211 -0.032 -10.472 -6.705 0 0 Z " fill="#000000" transform="translate(150.6875,699.875)"/>
<path d="M0 0 C-1 2 -1 2 -3.836 3.105 C-5.004 3.463 -6.172 3.82 -7.375 4.188 C-8.538 4.552 -9.7 4.917 -10.898 5.293 C-14 6 -14 6 -17 5 C-14.625 1.437 -13.644 1.306 -9.625 0.25 C-8.669 -0.013 -7.712 -0.276 -6.727 -0.547 C-4.044 -0.993 -2.534 -0.889 0 0 Z " fill="#000000" transform="translate(342,699)"/>
<path d="M0 0 C-0.353 2.563 -0.775 3.775 -2.625 5.625 C-8.297 8.909 -15.517 10.337 -22 9 C-23.797 6.977 -23.797 6.977 -25 5 C-18.656 -2.091 -8.68 -5.04 0 0 Z " fill="#000000" transform="translate(219,753)"/>
<path d="M0 0 C4.44 3.552 4.44 3.552 4.875 6.812 C4.389 10.942 3.593 12.202 0.5 15 C-13.539 22.511 -33.376 21.58 -48.5 18 C-51.695 16.586 -54.03 15.47 -56.5 13 C-56.625 9.688 -56.625 9.688 -55.5 6 C-44.738 -5.585 -13.098 -8.479 0 0 Z " fill="#000000" transform="translate(256.5,763)"/>
<path d="M0 0 C2 2 2 2 3 4 C-0.863 8.277 -2.904 8.89 -8.562 9.188 C-12 9 -12 9 -15 7 C-14.875 5.188 -14.875 5.188 -14 3 C-9.28 -0.223 -5.525 -0.634 0 0 Z " fill="#000000" transform="translate(275,781)"/>
</svg>
