<?xml version="1.0" encoding="UTF-8"?>
<!-- Generator: visioncortex VTracer 0.6.0 -->
<svg version="1.1" xmlns="http://www.w3.org/2000/svg" width="847" height="847">
<path d="M0 0 C4.553 0.497 4.553 0.497 6.582 2.777 C7.191 3.847 7.191 3.847 7.812 4.938 C8.231 5.648 8.65 6.358 9.082 7.09 C10 9 10 9 10 11 C10.771 11.049 11.542 11.098 12.336 11.148 C13.339 11.223 14.342 11.298 15.375 11.375 C16.872 11.479 16.872 11.479 18.398 11.586 C21 12 21 12 23 14 C23 16.25 23 16.25 22 19 C21.002 19.901 19.978 20.774 18.938 21.625 C16.649 23.707 16.048 24.599 15.676 27.723 C15.724 29.654 15.825 31.586 15.984 33.512 C16 36 16 36 14 39 C8.472 38.372 8.472 38.372 5.938 36.375 C4.064 34.744 4.064 34.744 1.562 35.125 C-1.092 35.915 -1.092 35.915 -3.5 37.625 C-6.569 39.313 -7.703 38.824 -11 38 C-10.919 37.227 -10.838 36.453 -10.754 35.656 C-10.286 29.309 -10.286 29.309 -12.523 23.527 C-14.392 21.435 -14.392 21.435 -16.371 19.621 C-18 18 -18 18 -19 15 C-17.766 13.5 -17.766 13.5 -16 12 C-13.984 11.875 -13.984 11.875 -11.75 12 C-9.321 11.956 -9.321 11.956 -7 11 C-4.106 7.622 -2.024 3.95 0 0 Z M1 4 C0.127 5.625 -0.698 7.276 -1.5 8.938 C-4.221 13.736 -4.221 13.736 -7.617 14.887 C-10.119 15.103 -12.496 15.168 -15 15 C-13.696 17.863 -12.672 19.328 -10.375 21.625 C-7.278 25.149 -7.591 28.513 -7.824 33.023 C-7.882 33.676 -7.94 34.328 -8 35 C-5.361 34.431 -3.858 33.905 -1.562 32.375 C1 31 1 31 3.562 31.125 C6.153 32.055 7.857 33.3 10 35 C10.66 35 11.32 35 12 35 C11.948 34.112 11.948 34.112 11.895 33.207 C11.724 28.241 11.775 25.032 15 21 C16.333 19.667 17.667 18.333 19 17 C19 16.34 19 15.68 19 15 C13.555 14.505 13.555 14.505 8 14 C7.732 13.093 7.464 12.185 7.188 11.25 C6.099 8.27 5.136 6.314 3 4 C2.34 4 1.68 4 1 4 Z " fill="#000000" transform="translate(404,141)"/>
<path d="M0 0 C0.99 0 1.98 0 3 0 C3.33 2.97 3.66 5.94 4 9 C5.32 9.33 6.64 9.66 8 10 C8 10.99 8 11.98 8 13 C6.35 13 4.7 13 3 13 C2.951 13.675 2.902 14.351 2.852 15.047 C2.777 15.939 2.702 16.831 2.625 17.75 C2.555 18.632 2.486 19.513 2.414 20.422 C2.001 22.991 1.288 24.758 0 27 C-0.99 26.67 -1.98 26.34 -3 26 C-2.67 22.04 -2.34 18.08 -2 14 C-4.64 14 -7.28 14 -10 14 C-9.67 13.01 -9.34 12.02 -9 11 C-5.438 9.812 -5.438 9.812 -2 9 C-1.856 7.701 -1.711 6.401 -1.562 5.062 C-1.125 1.125 -1.125 1.125 0 0 Z " fill="#000000" transform="translate(452,169)"/>
<path d="M0 0 C0.99 0.33 1.98 0.66 3 1 C4.141 4.422 4.098 7.087 4.062 10.688 C4.053 11.867 4.044 13.046 4.035 14.262 C4.024 15.165 4.012 16.069 4 17 C7.63 17 11.26 17 15 17 C15 18.32 15 19.64 15 21 C11.37 21 7.74 21 4 21 C4.052 22.698 4.052 22.698 4.105 24.43 C4.134 25.911 4.161 27.393 4.188 28.875 C4.213 29.621 4.238 30.368 4.264 31.137 C4.293 33.305 4.293 33.305 4 37 C3.01 37.66 2.02 38.32 1 39 C-1.846 36.154 -1.456 33.196 -1.625 29.375 C-1.664 28.669 -1.702 27.962 -1.742 27.234 C-1.836 25.49 -1.919 23.745 -2 22 C-6.29 21.67 -10.58 21.34 -15 21 C-14.67 19.68 -14.34 18.36 -14 17 C-9.71 17 -5.42 17 -1 17 C-1.012 15.857 -1.023 14.713 -1.035 13.535 C-1.045 12.044 -1.054 10.553 -1.062 9.062 C-1.071 8.308 -1.079 7.553 -1.088 6.775 C-1.097 4.85 -1.052 2.925 -1 1 C-0.67 0.67 -0.34 0.34 0 0 Z " fill="#000000" transform="translate(288,181)"/>
<path d="M0 0 C0.66 0 1.32 0 2 0 C0.543 4.314 -1.761 7.598 -4.562 11.125 C-5.23 11.979 -5.23 11.979 -5.91 12.85 C-9.439 17.346 -13.064 21.761 -16.703 26.168 C-20.105 30.363 -23.372 34.657 -26.641 38.957 C-33.452 47.742 -33.452 47.742 -36.125 49 C-38 49 -38 49 -41 47 C-42.173 43.481 -42.389 40.108 -42.625 36.438 C-42.677 35.752 -42.728 35.067 -42.781 34.361 C-43.123 29.245 -43.123 29.245 -42 27 C-45.671 30.038 -46.838 32.841 -48.094 37.293 C-49 39 -49 39 -51.094 39.738 C-51.723 39.825 -52.352 39.911 -53 40 C-48.6 25.6 -48.6 25.6 -45 22 C-43.334 21.959 -41.666 21.957 -40 22 C-38.825 24.349 -38.8 25.951 -38.684 28.57 C-38.621 29.914 -38.621 29.914 -38.557 31.285 C-38.517 32.222 -38.478 33.159 -38.438 34.125 C-38.394 35.07 -38.351 36.015 -38.307 36.988 C-38.2 39.325 -38.098 41.663 -38 44 C-34.022 41.077 -31.287 37.973 -28.375 34 C-24.941 29.401 -21.362 25.063 -17.438 20.875 C-11.736 14.789 -6.176 8.52 -1.375 1.688 C-0.921 1.131 -0.467 0.574 0 0 Z " fill="#000000" transform="translate(515,184)"/>
<path d="M0 0 C0.99 0.33 1.98 0.66 3 1 C3.188 4.375 3.188 4.375 3 8 C2.01 8.66 1.02 9.32 0 10 C-1 9 -1 9 -1.133 7.188 C-1.13 6.466 -1.128 5.744 -1.125 5 C-1.129 3.917 -1.129 3.917 -1.133 2.812 C-1 1 -1 1 0 0 Z " fill="#000000" transform="translate(376,188)"/>
<path d="M0 0 C0.66 0.33 1.32 0.66 2 1 C2.33 1.99 2.66 2.98 3 4 C3.784 3.505 4.567 3.01 5.375 2.5 C8 1 8 1 10 1 C10 1.99 10 2.98 10 4 C9.031 4.619 8.061 5.238 7.062 5.875 C3.793 7.682 3.793 7.682 3.125 10.75 C3.084 11.493 3.043 12.235 3 13 C2.257 12.814 1.515 12.629 0.75 12.438 C-1.992 12.001 -3.393 12.248 -6 13 C-3.109 3.405 -3.109 3.405 0 0 Z " fill="#000000" transform="translate(339,199)"/>
<path d="M0 0 C-0.332 3.1 -1.055 4.055 -3.312 6.312 C-6 8 -6 8 -8.312 7.75 C-8.869 7.502 -9.426 7.255 -10 7 C-5.312 -1.594 -5.312 -1.594 0 0 Z " fill="#000000" transform="translate(622,226)"/>
<path d="M0 0 C0.99 0.33 1.98 0.66 3 1 C2.67 3.31 2.34 5.62 2 8 C1.01 8.33 0.02 8.66 -1 9 C-1.098 2.848 -1.098 2.848 -1 1 C-0.67 0.67 -0.34 0.34 0 0 Z " fill="#000000" transform="translate(172,231)"/>
<path d="M0 0 C0.99 0.33 1.98 0.66 3 1 C3 6.892 -0.003 9.594 -3.895 13.559 C-6 15 -6 15 -8.262 14.723 C-8.835 14.484 -9.409 14.246 -10 14 C-9.476 9.895 -8.348 7.785 -5.562 4.75 C-4.945 4.064 -4.328 3.378 -3.691 2.672 C-2 1 -2 1 0 0 Z " fill="#000000" transform="translate(582,231)"/>
<path d="M0 0 C1.938 0.75 1.938 0.75 4 2 C4.75 4.125 4.75 4.125 5 6 C0.25 7.125 0.25 7.125 -2 6 C-2.33 6.99 -2.66 7.98 -3 9 C-4.65 9 -6.3 9 -8 9 C-6.417 4.726 -3.494 2.735 0 0 Z " fill="#000000" transform="translate(366,233)"/>
<path d="M0 0 C0.688 2.062 0.688 2.062 1 4 C-2.739 7.286 -6.275 9.397 -11 11 C-13.938 10.688 -13.938 10.688 -16 10 C-14.591 6.635 -13.003 4.943 -10.062 2.812 C-9.373 2.303 -8.683 1.794 -7.973 1.27 C-4.851 -0.739 -3.584 -1.195 0 0 Z " fill="#000000" transform="translate(596,243)"/>
<path d="M0 0 C-0.33 0.66 -0.66 1.32 -1 2 C-5.173 3.35 -8.739 2.752 -13 2 C-13 1.67 -13 1.34 -13 1 C-8.624 0.407 -4.425 -0.138 0 0 Z " fill="#000000" transform="translate(320,244)"/>
<path d="M0 0 C0.99 0 1.98 0 3 0 C3.66 2.97 4.32 5.94 5 9 C3.68 9 2.36 9 1 9 C0.639 7.689 0.286 6.376 -0.062 5.062 C-0.358 3.966 -0.358 3.966 -0.66 2.848 C-0.772 2.238 -0.884 1.628 -1 1 C-0.67 0.67 -0.34 0.34 0 0 Z " fill="#000000" transform="translate(148,247)"/>
<path d="M0 0 C4.355 -0.015 8.71 -0.039 13.064 -0.072 C18.256 -0.11 23.448 -0.128 28.64 -0.132 C30.578 -0.136 32.516 -0.148 34.454 -0.166 C49.693 -0.305 61.277 1.106 72.656 12.135 C86.526 26.916 85.069 50.215 84.749 69.287 C85.502 69.138 86.255 68.988 87.031 68.834 C92.089 68.09 97.143 67.824 102.245 67.533 C103.352 67.468 104.459 67.403 105.6 67.336 C107.935 67.199 110.271 67.064 112.607 66.93 C116.171 66.726 119.735 66.515 123.298 66.305 C125.572 66.172 127.846 66.04 130.12 65.908 C131.711 65.814 131.711 65.814 133.334 65.719 C148.269 64.871 148.269 64.871 150.788 67.053 C166.129 91.084 170.115 123.104 164.062 150.85 C159.679 169.357 159.679 169.357 154.749 174.287 C151.694 174.722 148.704 175.042 145.632 175.287 C144.706 175.368 143.779 175.45 142.825 175.533 C139.842 175.793 136.858 176.04 133.874 176.287 C130.966 176.535 128.058 176.786 125.15 177.038 C123.224 177.204 121.298 177.369 119.372 177.533 C109.821 178.351 100.285 179.304 90.749 180.287 C90.799 181.549 90.849 182.811 90.901 184.112 C90.973 185.923 91.045 187.734 91.116 189.545 C91.156 190.531 91.195 191.517 91.235 192.533 C91.456 198.113 91.674 203.692 91.887 209.271 C92.312 220.385 92.75 231.496 93.262 242.606 C93.486 247.504 93.696 252.402 93.905 257.3 C94.009 259.654 94.119 262.007 94.235 264.36 C94.397 267.67 94.538 270.98 94.675 274.291 C94.728 275.259 94.781 276.227 94.835 277.224 C95.168 286.22 93.424 294.394 87.597 301.467 C82.581 306.408 77.119 309.312 70.156 310.364 C69.104 310.523 68.052 310.683 66.968 310.847 C61.942 311.534 56.912 312.136 51.87 312.689 C49.626 312.943 47.382 313.196 45.138 313.449 C41.672 313.837 38.206 314.222 34.74 314.607 C22.843 315.932 10.986 317.307 -0.828 319.254 C-7.675 320.38 -14.54 321.222 -21.438 321.975 C-25.336 322.408 -29.234 322.841 -33.251 323.287 C-33.581 331.207 -33.911 339.127 -34.251 347.287 C-33.591 346.957 -32.931 346.627 -32.251 346.287 C-30.928 346.073 -29.598 345.905 -28.266 345.763 C-27.432 345.672 -26.599 345.581 -25.74 345.487 C-24.823 345.391 -23.906 345.295 -22.962 345.196 C-21.515 345.039 -21.515 345.039 -20.039 344.88 C-16.83 344.534 -13.62 344.194 -10.411 343.854 C-8.172 343.613 -5.934 343.373 -3.695 343.132 C2.224 342.497 8.143 341.866 14.062 341.236 C20.015 340.601 25.967 339.963 31.919 339.324 C42.656 338.173 53.393 337.024 64.131 335.886 C67.833 335.493 71.535 335.093 75.236 334.687 C76.099 334.594 76.962 334.5 77.851 334.404 C79.446 334.231 81.04 334.056 82.633 333.878 C88.354 333.263 94.002 333.055 99.749 333.287 C99.83 331.184 99.888 329.079 99.937 326.975 C99.989 325.217 99.989 325.217 100.042 323.424 C100.052 320.299 100.052 320.299 98.234 318.494 C97.744 318.096 97.254 317.697 96.749 317.287 C96.832 314.624 97.472 313.576 99.312 311.662 C102.691 309.756 105.96 309.108 109.749 308.287 C109.605 307.695 109.461 307.104 109.312 306.494 C108.341 302.362 107.473 298.564 107.749 294.287 C108.059 294.926 108.368 295.566 108.687 296.225 C109.584 298.223 109.584 298.223 110.749 299.287 C110.616 298.534 110.484 297.781 110.347 297.006 C107.945 282.557 107.493 268.822 108.749 254.287 C105.746 257.291 106.674 264.755 106.652 268.658 C106.658 271.014 106.67 273.369 106.687 275.725 C106.694 277.537 106.694 277.537 106.7 279.387 C106.712 282.354 106.729 285.32 106.749 288.287 C106.419 288.287 106.089 288.287 105.749 288.287 C101.856 263.624 102.989 234.245 117.222 212.994 C119.565 210.375 121.826 209.449 125.249 208.85 C127.749 209.287 127.749 209.287 129.999 211.475 C134.763 219.13 132.699 229.368 130.788 237.771 C130.258 239.997 129.706 242.213 129.122 244.425 C128.067 248.483 127.546 252.095 127.749 256.287 C129.069 256.947 130.389 257.607 131.749 258.287 C136.682 254.147 138.303 250.048 140.187 243.975 C140.629 242.604 140.629 242.604 141.081 241.206 C143.29 234.199 145.091 227.115 146.812 219.975 C150.829 203.372 156.857 178.621 171.749 168.287 C177 165.273 181.811 164.265 187.749 165.287 C194.223 167.515 198.661 170.11 201.749 176.287 C206.297 189.931 201.003 205.206 194.999 217.475 C189.548 228.111 182.305 236.865 174.471 245.809 C164.444 257.308 153.113 272.371 153.749 288.287 C154.739 288.617 155.729 288.947 156.749 289.287 C159.393 287.69 159.393 287.69 162.124 285.475 C167.34 281.416 167.34 281.416 170.284 280.49 C172.927 279.491 172.927 279.491 174.051 276.952 C174.36 275.995 174.669 275.039 174.988 274.053 C175.505 272.479 175.505 272.479 176.032 270.873 C176.372 269.772 176.712 268.671 177.062 267.537 C177.421 266.452 177.78 265.366 178.15 264.248 C180.116 258.331 180.116 258.331 180.723 252.177 C180.75 249.219 181.221 247.771 182.749 245.287 C195.778 245.019 208.617 245.691 221.596 246.831 C224.734 247.104 227.873 247.353 231.013 247.602 C233.018 247.773 235.022 247.945 237.027 248.119 C237.961 248.191 238.895 248.263 239.858 248.337 C240.72 248.417 241.583 248.497 242.472 248.579 C243.228 248.644 243.984 248.708 244.763 248.774 C247.255 249.418 248.26 250.196 249.749 252.287 C248.608 260.805 245.339 269.055 242.663 277.205 C242.16 278.75 241.656 280.296 241.154 281.841 C239.834 285.896 238.509 289.949 237.183 294.002 C235.068 300.468 232.957 306.935 230.851 313.404 C230.122 315.639 229.39 317.873 228.658 320.107 C223.143 334.945 223.143 334.945 220.749 350.287 C231.039 352.586 241.359 354.513 251.749 356.287 C251.699 355.703 251.649 355.118 251.597 354.516 C249.242 326.756 247.297 299.158 247.749 271.287 C248.079 271.287 248.409 271.287 248.749 271.287 C248.824 272.169 248.9 273.052 248.977 273.96 C249.683 282.238 250.392 290.514 251.105 298.791 C251.524 303.656 251.939 308.522 252.351 313.387 C252.607 316.404 252.866 319.421 253.126 322.437 C253.248 323.856 253.368 325.275 253.487 326.695 C254.179 334.945 255.078 343.108 256.362 351.288 C256.713 354.01 256.9 356.548 256.749 359.287 C256.419 359.617 256.089 359.947 255.749 360.287 C247.267 360.156 238.86 358.322 230.562 356.725 C229.324 356.491 228.085 356.257 226.81 356.016 C223.789 355.444 220.769 354.868 217.749 354.287 C217.089 356.597 216.429 358.907 215.749 361.287 C212.203 362.519 209.887 362.043 206.304 361.064 C205.235 360.776 204.165 360.487 203.063 360.19 C201.361 359.712 201.361 359.712 199.624 359.225 C198.467 358.907 197.311 358.589 196.119 358.261 C186.547 355.595 177.118 352.592 167.749 349.287 C167.663 350.061 167.577 350.834 167.488 351.631 C166.414 359.59 164.983 365.614 158.773 371.002 C148.514 378.415 137.075 379.564 124.749 378.287 C116.291 376.612 106.98 373.518 100.749 367.287 C99.534 363.887 99.635 360.572 99.652 356.99 C99.655 355.785 99.658 354.58 99.661 353.338 C99.67 352.084 99.678 350.829 99.687 349.537 C99.691 348.267 99.696 346.998 99.7 345.689 C99.712 342.555 99.729 339.421 99.749 336.287 C99.092 336.361 98.434 336.436 97.757 336.512 C65.768 340.125 33.772 343.582 1.714 346.527 C-0.438 346.725 -2.589 346.923 -4.741 347.122 C-8.758 347.492 -12.776 347.857 -16.794 348.221 C-17.987 348.33 -19.18 348.439 -20.409 348.551 C-22.054 348.698 -22.054 348.698 -23.732 348.847 C-24.683 348.933 -25.633 349.018 -26.612 349.106 C-29.168 349.281 -31.69 349.32 -34.251 349.287 C-34.23 350.245 -34.209 351.203 -34.187 352.189 C-34.114 355.775 -34.069 359.361 -34.031 362.947 C-34.011 364.493 -33.984 366.039 -33.949 367.584 C-33.563 385.185 -33.563 385.185 -40.376 392.6 C-47.334 396.684 -55.552 397.851 -63.439 398.989 C-64.403 399.134 -65.367 399.279 -66.36 399.429 C-69.513 399.901 -72.667 400.364 -75.821 400.826 C-78.03 401.155 -80.238 401.485 -82.447 401.815 C-88.239 402.679 -94.033 403.535 -99.827 404.388 C-104.551 405.086 -109.274 405.789 -113.997 406.493 C-123.771 407.95 -133.545 409.403 -143.322 410.844 C-144.212 410.976 -145.103 411.108 -146.02 411.244 C-170.926 414.907 -170.926 414.907 -177.251 411.725 C-184.108 406.153 -185.126 399.66 -186.251 391.287 C-186.596 386.727 -186.753 382.171 -186.876 377.6 C-186.934 375.814 -186.934 375.814 -186.993 373.992 C-187.086 371.091 -187.172 368.189 -187.251 365.287 C-188.549 365.433 -189.847 365.579 -191.185 365.729 C-203.496 367.113 -215.808 368.495 -228.12 369.877 C-234.447 370.588 -240.775 371.298 -247.102 372.009 C-253.223 372.697 -259.344 373.384 -265.465 374.071 C-267.785 374.332 -270.105 374.592 -272.426 374.853 C-286.029 376.383 -299.635 377.877 -313.251 379.287 C-313.229 380.441 -313.207 381.595 -313.184 382.783 C-313.113 386.598 -313.068 390.413 -313.031 394.229 C-313.011 395.92 -312.984 397.611 -312.949 399.303 C-312.9 401.746 -312.878 404.188 -312.86 406.631 C-312.839 407.377 -312.819 408.123 -312.798 408.892 C-312.795 414.458 -314.207 418.616 -317.251 423.287 C-325.42 431.456 -337.985 430.504 -348.751 430.6 C-349.84 430.629 -350.929 430.658 -352.052 430.688 C-360.369 430.753 -365.454 429.393 -372.001 424.037 C-377.863 416.872 -379.271 409.79 -379.821 400.705 C-379.866 399.973 -379.912 399.241 -379.958 398.487 C-380.053 396.937 -380.145 395.386 -380.236 393.835 C-380.373 391.52 -380.524 389.205 -380.677 386.891 C-382.338 359.962 -382.338 359.962 -377.251 351.287 C-375.489 349.381 -375.489 349.381 -373.563 347.787 C-372.517 346.898 -372.517 346.898 -371.45 345.99 C-369.251 344.287 -369.251 344.287 -367.02 342.896 C-362.616 340.161 -362.616 340.161 -360.552 335.572 C-360.432 334.591 -360.312 333.61 -360.188 332.6 C-359.837 329.725 -359.837 329.725 -359.251 327.287 C-354.497 323.747 -349.611 323.938 -343.802 323.889 C-340.716 324.371 -339.37 324.987 -337.251 327.287 C-336.817 329.994 -336.817 329.994 -336.813 333.1 C-336.581 338.295 -336.581 338.295 -334.251 342.787 C-331.086 345.425 -328.249 346.768 -324.469 348.299 C-320.196 350.203 -317 352.55 -315.098 356.959 C-314.132 360.754 -314.029 364.282 -314.126 368.162 C-314.168 370.537 -314.21 372.912 -314.251 375.287 C-313.305 375.17 -313.305 375.17 -312.341 375.051 C-296.579 373.111 -280.808 371.371 -265.005 369.807 C-262.803 369.587 -260.602 369.367 -258.4 369.147 C-253.85 368.693 -249.3 368.24 -244.75 367.788 C-238.911 367.209 -233.073 366.627 -227.235 366.043 C-222.718 365.592 -218.202 365.142 -213.685 364.692 C-211.529 364.477 -209.373 364.263 -207.218 364.047 C-204.232 363.75 -201.246 363.453 -198.261 363.157 C-197.372 363.069 -196.484 362.98 -195.568 362.888 C-189.48 362.287 -189.48 362.287 -187.251 362.287 C-187.323 361.621 -187.395 360.954 -187.469 360.268 C-187.562 359.346 -187.655 358.424 -187.751 357.475 C-187.844 356.581 -187.936 355.688 -188.032 354.768 C-188.226 351.684 -188.272 348.657 -188.264 345.57 C-188.262 344.58 -188.26 343.591 -188.258 342.571 C-188.255 341.44 -188.255 341.44 -188.251 340.287 C-188.84 340.348 -189.43 340.408 -190.037 340.47 C-196.218 341.104 -202.4 341.736 -208.582 342.368 C-210.883 342.604 -213.184 342.84 -215.486 343.075 C-218.81 343.416 -222.134 343.756 -225.458 344.096 C-226.473 344.2 -227.488 344.304 -228.534 344.411 C-233.403 344.908 -238.274 345.393 -243.147 345.851 C-243.998 345.931 -244.849 346.011 -245.726 346.094 C-250.17 346.434 -254.608 346.471 -259.063 346.475 C-259.965 346.487 -260.867 346.499 -261.796 346.512 C-266.746 346.523 -270.577 346.072 -275.251 344.287 C-277.203 343.959 -279.162 343.667 -281.126 343.412 C-289.799 341.997 -294.885 339.261 -300.708 332.678 C-304.77 326.384 -305.952 319.402 -307.04 312.127 C-307.189 311.178 -307.337 310.23 -307.491 309.252 C-307.96 306.244 -308.418 303.234 -308.876 300.225 C-309.19 298.2 -309.505 296.176 -309.821 294.152 C-311.999 280.147 -311.999 280.147 -312.783 274.348 C-313.167 271.256 -313.167 271.256 -314.251 268.287 C-314.251 266.62 -314.251 264.954 -314.251 263.287 C-314.581 262.627 -314.911 261.967 -315.251 261.287 C-315.578 258.287 -315.865 255.293 -316.126 252.287 C-316.822 244.722 -317.856 237.308 -319.213 229.836 C-320.351 223.315 -320.728 216.863 -320.942 210.252 C-321.095 208.784 -321.095 208.784 -321.251 207.287 C-321.911 206.957 -322.571 206.627 -323.251 206.287 C-322.591 206.287 -321.931 206.287 -321.251 206.287 C-321.36 205.699 -321.47 205.111 -321.583 204.506 C-325.523 182.208 -327.453 159.551 -329.751 137.037 C-329.827 136.29 -329.904 135.543 -329.982 134.773 C-336.408 71.924 -336.408 71.924 -336.688 52.225 C-336.711 51.26 -336.733 50.296 -336.756 49.302 C-336.725 40.251 -334.281 31.42 -327.958 24.713 C-325.024 22.262 -321.731 20.806 -318.251 19.287 C-314.866 17.51 -312.374 15.464 -309.626 12.85 C-301.558 5.737 -292.158 4.693 -281.766 4.6 C-279.872 4.559 -279.872 4.559 -277.94 4.518 C-275.037 4.455 -272.134 4.406 -269.231 4.364 C-263.688 4.282 -258.146 4.166 -252.604 4.049 C-243.921 3.869 -235.239 3.698 -226.555 3.537 C-225.446 3.516 -224.336 3.496 -223.193 3.475 C-217.489 3.369 -211.785 3.265 -206.082 3.162 C-200.471 3.061 -194.86 2.955 -189.25 2.847 C-187.137 2.808 -185.024 2.769 -182.911 2.733 C-179.97 2.682 -177.03 2.626 -174.09 2.568 C-172.812 2.548 -172.812 2.548 -171.508 2.527 C-166.471 2.423 -161.522 2.044 -156.513 1.507 C-153.699 1.234 -150.921 1.174 -148.094 1.189 C-146.986 1.193 -145.879 1.196 -144.737 1.199 C-143.564 1.208 -142.39 1.216 -141.18 1.225 C-138.594 1.233 -136.009 1.242 -133.423 1.25 C-132.059 1.256 -130.695 1.262 -129.331 1.269 C-122.135 1.302 -114.939 1.313 -107.743 1.318 C-107.021 1.319 -106.3 1.319 -105.557 1.32 C-94.325 1.325 -83.105 1.167 -71.877 0.858 C-47.923 0.207 -23.961 0.078 0 0 Z M-3.251 20.287 C-3.382 20.891 -3.514 21.495 -3.649 22.117 C-4.482 25.121 -6.088 27.326 -7.813 29.912 C-10.375 33.327 -10.375 33.327 -11.251 37.287 C-12.241 37.287 -13.231 37.287 -14.251 37.287 C-13.696 36.395 -13.142 35.503 -12.571 34.584 C-11.839 33.402 -11.107 32.219 -10.376 31.037 C-10.011 30.451 -9.646 29.864 -9.27 29.26 C-7.456 26.323 -5.765 23.387 -4.251 20.287 C-18.075 20.19 -31.871 20.493 -45.688 20.908 C-47.906 20.973 -50.124 21.038 -52.342 21.103 C-56.961 21.238 -61.58 21.375 -66.199 21.514 C-72.068 21.69 -77.938 21.861 -83.808 22.032 C-88.379 22.164 -92.95 22.3 -97.521 22.436 C-99.683 22.5 -101.846 22.563 -104.008 22.626 C-116.769 22.997 -129.508 23.5 -142.251 24.287 C-144.386 30.583 -146.373 36.909 -148.251 43.287 C-149.847 40.095 -148.333 37.675 -147.313 34.35 C-145.746 29.399 -145.746 29.399 -145.251 24.287 C-157.448 24.216 -169.621 24.428 -181.813 24.787 C-183.518 24.836 -185.223 24.884 -186.928 24.932 C-191.036 25.048 -195.143 25.167 -199.251 25.287 C-199.505 26.107 -199.759 26.927 -200.02 27.771 C-200.537 29.388 -200.537 29.388 -201.063 31.037 C-201.4 32.104 -201.736 33.172 -202.083 34.271 C-203.174 37.09 -204.404 38.937 -206.251 41.287 C-206.251 41.947 -206.251 42.607 -206.251 43.287 C-206.844 43.559 -207.437 43.831 -208.049 44.111 C-210.203 45.262 -211.713 46.441 -213.485 48.107 C-214.059 48.642 -214.632 49.177 -215.223 49.729 C-215.81 50.284 -216.396 50.84 -217.001 51.412 C-217.603 51.975 -218.205 52.539 -218.825 53.119 C-220.304 54.504 -221.778 55.895 -223.251 57.287 C-221.841 54.064 -220.163 51.994 -217.626 49.572 C-216.919 48.886 -216.213 48.199 -215.485 47.492 C-213.997 46.066 -212.508 44.641 -211.016 43.219 C-210.31 42.531 -209.604 41.843 -208.876 41.135 C-208.229 40.516 -207.582 39.897 -206.915 39.26 C-203.472 35.178 -203.007 31.527 -203.251 26.287 C-221.672 26.191 -240.1 26.105 -258.517 26.551 C-259.908 26.583 -261.3 26.611 -262.692 26.633 C-272.751 26.806 -282.152 27.235 -289.743 34.525 C-300.479 47.069 -294.82 70.365 -293.645 85.513 C-293.548 86.757 -293.452 88.001 -293.352 89.283 C-293.155 91.887 -292.958 94.491 -292.761 97.095 C-292.298 103.226 -291.828 109.357 -291.355 115.487 C-290.825 122.37 -290.303 129.254 -289.78 136.138 C-289.139 144.586 -288.497 153.034 -287.85 161.482 C-287.713 163.257 -287.713 163.257 -287.575 165.069 C-287.396 167.389 -287.217 169.71 -287.036 172.03 C-286.579 177.912 -286.143 183.795 -285.742 189.681 C-285.657 190.876 -285.573 192.071 -285.486 193.302 C-285.326 195.576 -285.173 197.851 -285.027 200.127 C-284.955 201.141 -284.882 202.155 -284.807 203.2 C-284.748 204.089 -284.688 204.978 -284.627 205.894 C-284.236 208.378 -283.496 210.117 -282.251 212.287 C-281.61 211.43 -280.969 210.573 -280.309 209.689 C-268.012 193.375 -268.012 193.375 -261.251 190.287 C-264.376 193.899 -267.51 197.492 -270.766 200.986 C-273.308 203.715 -275.788 206.488 -278.251 209.287 C-278.84 209.908 -279.429 210.53 -280.036 211.17 C-284.613 216.856 -283.405 223.507 -282.743 230.361 C-282.364 233.387 -281.919 236.316 -281.251 239.287 C-277.54 234.863 -274.405 230.113 -271.251 225.287 C-272.661 229.428 -274.722 232.201 -277.438 235.6 C-282.621 243.233 -281.739 249.683 -280.251 258.287 C-280.079 259.411 -279.908 260.535 -279.731 261.693 C-278.182 269.608 -275.011 275.08 -268.262 279.627 C-260.948 283.618 -253.855 283.393 -245.813 282.35 C-244.573 282.2 -244.573 282.2 -243.307 282.047 C-241.287 281.802 -239.269 281.546 -237.251 281.287 C-235.559 275.949 -233.868 270.611 -232.179 265.271 C-231.604 263.456 -231.029 261.64 -230.453 259.824 C-229.625 257.213 -228.799 254.602 -227.973 251.99 C-227.587 250.774 -227.587 250.774 -227.194 249.534 C-226.953 248.774 -226.713 248.013 -226.466 247.229 C-226.255 246.563 -226.044 245.897 -225.827 245.211 C-223.286 236.722 -223.141 229.895 -227.251 221.85 C-232.836 210.64 -229.931 199.965 -227.251 188.287 C-228.119 196.598 -228.119 196.598 -228.813 200.225 C-230.121 209.377 -228.912 215.063 -224.661 223.404 C-221.144 230.594 -221.886 237.211 -224.251 244.725 C-224.465 245.432 -224.679 246.139 -224.9 246.868 C-227.321 254.748 -229.981 262.555 -232.659 270.351 C-232.995 271.338 -233.331 272.325 -233.677 273.342 C-233.98 274.223 -234.283 275.105 -234.596 276.013 C-235.389 278.373 -235.389 278.373 -235.251 281.287 C-213.216 279.979 -191.236 278.256 -169.251 276.287 C-168.947 275.07 -168.947 275.07 -168.636 273.829 C-167.174 267.982 -165.713 262.134 -164.251 256.287 C-164.561 258.517 -164.874 260.746 -165.188 262.975 C-165.362 264.216 -165.536 265.457 -165.716 266.736 C-166.149 269.613 -166.667 272.439 -167.251 275.287 C-158.024 275.556 -148.907 274.827 -139.723 274.06 C-137.163 273.847 -134.602 273.644 -132.042 273.441 C-130.412 273.308 -128.783 273.175 -127.153 273.041 C-126.389 272.981 -125.624 272.92 -124.836 272.858 C-120.916 272.579 -120.916 272.579 -117.251 271.287 C-117.251 263.367 -117.251 255.447 -117.251 247.287 C-116.591 255.207 -115.931 263.127 -115.251 271.287 C-98.995 270.504 -82.791 269.17 -66.574 267.828 C-63.408 267.567 -60.242 267.306 -57.076 267.046 C-49.603 266.431 -42.129 265.814 -34.656 265.195 C-26.986 264.559 -19.315 263.929 -11.644 263.301 C-5.013 262.759 1.618 262.212 8.248 261.663 C12.189 261.337 16.13 261.012 20.072 260.69 C23.775 260.388 27.477 260.082 31.18 259.772 C33.163 259.607 35.146 259.447 37.13 259.286 C54.841 258.573 54.841 258.573 69.749 250.287 C76.707 240.738 76.077 229.493 75.007 218.221 C74.919 217.22 74.831 216.219 74.741 215.188 C74.555 213.096 74.365 211.005 74.171 208.914 C73.872 205.703 73.589 202.49 73.308 199.277 C73.125 197.238 72.942 195.198 72.757 193.158 C72.672 192.197 72.586 191.235 72.498 190.245 C72.415 189.36 72.332 188.474 72.246 187.562 C72.174 186.783 72.102 186.003 72.028 185.2 C71.84 183.206 71.84 183.206 70.749 181.287 C58.374 181.782 58.374 181.782 45.749 182.287 C48.187 173.287 48.187 173.287 48.95 170.502 C51.668 160.315 51.879 150.801 51.812 140.287 C51.807 138.926 51.802 137.566 51.798 136.205 C51.786 132.899 51.77 129.593 51.749 126.287 C49.683 126.274 47.616 126.264 45.55 126.256 C44.399 126.25 43.249 126.244 42.063 126.238 C38.205 126.295 34.557 126.69 30.749 127.287 C31.411 138.849 32.522 150.336 33.749 161.85 C36.925 191.698 36.925 191.698 36.812 203.662 C36.803 204.928 36.794 206.194 36.784 207.498 C36.767 208.879 36.767 208.879 36.749 210.287 C32.164 211.693 27.867 212.645 23.08 213.157 C21.799 213.297 20.518 213.437 19.198 213.581 C17.821 213.725 16.443 213.87 15.066 214.014 C13.641 214.167 12.216 214.321 10.791 214.476 C7.061 214.879 3.331 215.275 -0.399 215.669 C-4.214 216.074 -8.028 216.486 -11.843 216.896 C-19.311 217.7 -26.781 218.496 -34.251 219.287 C-34.251 219.947 -34.251 220.607 -34.251 221.287 C-32.2 222.988 -30.145 224.587 -28.001 226.162 C-24.159 229.007 -20.538 231.788 -17.251 235.287 C-21.017 233.319 -24.217 231.518 -27.18 228.455 C-33.424 221.986 -33.424 221.986 -41.872 219.795 C-46.062 219.946 -50.131 220.522 -54.251 221.287 C-53.677 224.951 -52.278 226.615 -49.653 229.178 C-48.575 230.241 -48.575 230.241 -47.475 231.326 C-46.721 232.056 -45.966 232.785 -45.188 233.537 C-44.43 234.282 -43.671 235.027 -42.889 235.795 C-41.016 237.633 -39.137 239.463 -37.251 241.287 C-40.92 239.571 -43.273 237.501 -46.126 234.6 C-47.462 233.269 -47.462 233.269 -48.825 231.912 C-50.869 229.7 -52.338 227.62 -53.938 225.1 C-55.22 223.322 -55.22 223.322 -57.251 222.287 C-63.207 221.825 -69.347 222.051 -74.903 224.416 C-77.251 225.287 -77.251 225.287 -79.498 224.807 C-82.739 224.195 -85.372 224.458 -88.645 224.846 C-90.448 225.054 -90.448 225.054 -92.288 225.266 C-93.534 225.417 -94.78 225.569 -96.063 225.725 C-97.328 225.872 -98.594 226.02 -99.897 226.172 C-103.016 226.537 -106.133 226.911 -109.251 227.287 C-109.251 231.907 -109.251 236.527 -109.251 241.287 C-109.911 241.287 -110.571 241.287 -111.251 241.287 C-111.251 236.997 -111.251 232.707 -111.251 228.287 C-117.682 228.183 -123.858 228.567 -130.251 229.287 C-130.581 235.227 -130.911 241.167 -131.251 247.287 C-131.911 247.287 -132.571 247.287 -133.251 247.287 C-133.086 246.153 -132.921 245.018 -132.751 243.85 C-132.175 239.317 -132.156 234.85 -132.251 230.287 C-133.626 230.26 -135.001 230.24 -136.376 230.225 C-137.141 230.213 -137.907 230.201 -138.696 230.189 C-141.843 230.256 -141.843 230.256 -147.251 231.287 C-148.241 236.897 -149.231 242.507 -150.251 248.287 C-149.584 242.954 -148.917 237.62 -148.251 232.287 C-155.214 232.169 -162.035 232.505 -168.966 233.162 C-169.943 233.251 -170.921 233.34 -171.928 233.431 C-175.015 233.712 -178.102 233.999 -181.188 234.287 C-184.3 234.574 -187.412 234.859 -190.524 235.143 C-192.451 235.319 -194.379 235.497 -196.306 235.677 C-197.175 235.757 -198.043 235.837 -198.938 235.92 C-199.701 235.991 -200.463 236.062 -201.249 236.135 C-202.912 236.261 -204.583 236.287 -206.251 236.287 C-206.315 235.743 -206.38 235.2 -206.447 234.639 C-207.658 224.535 -208.905 214.44 -210.423 204.377 C-213.87 181.413 -216.233 158.419 -218.251 135.287 C-221.96 134.031 -225.128 134.423 -228.985 134.846 C-230.281 134.984 -231.576 135.123 -232.911 135.266 C-234.274 135.418 -235.637 135.571 -237.001 135.725 C-238.38 135.874 -239.758 136.023 -241.137 136.172 C-244.509 136.537 -247.88 136.909 -251.251 137.287 C-255.255 119.793 -257.544 99.316 -248.403 82.932 C-244.601 77.506 -239.428 74.977 -233.251 73.287 C-226.43 72.163 -219.499 72.034 -212.603 71.822 C-211.472 71.785 -210.341 71.747 -209.175 71.708 C-206.731 71.628 -204.287 71.549 -201.843 71.471 C-197.966 71.348 -194.089 71.221 -190.212 71.092 C-182.673 70.843 -175.134 70.598 -167.596 70.355 C-157.361 70.024 -147.126 69.69 -136.891 69.352 C-133.089 69.227 -129.286 69.106 -125.484 68.985 C-123.128 68.907 -120.772 68.83 -118.416 68.752 C-116.852 68.704 -116.852 68.704 -115.257 68.654 C-107.9 68.407 -100.587 67.889 -93.251 67.287 C-90.776 58.872 -90.776 58.872 -88.251 50.287 C-88.911 55.897 -89.571 61.507 -90.251 67.287 C-79.283 67.364 -68.368 67.06 -57.411 66.631 C-55.632 66.563 -53.852 66.496 -52.073 66.429 C-47.432 66.254 -42.79 66.076 -38.149 65.896 C-30.698 65.609 -23.247 65.326 -15.796 65.044 C-13.209 64.945 -10.622 64.845 -8.034 64.745 C-6.443 64.684 -4.851 64.623 -3.259 64.562 C-2.549 64.534 -1.838 64.506 -1.107 64.477 C0.845 64.404 2.797 64.345 4.749 64.287 C6.66 64.228 6.66 64.228 8.609 64.168 C11.749 64.287 11.749 64.287 13.999 65.912 C15.961 68.574 17.382 71.28 18.749 74.287 C19.259 74.132 19.768 73.978 20.293 73.818 C23.544 73.115 26.722 72.971 30.042 72.787 C30.748 72.747 31.453 72.706 32.18 72.664 C34.432 72.535 36.684 72.411 38.937 72.287 C51.868 71.592 51.868 71.592 64.749 70.287 C65.045 62.493 64.583 54.802 63.937 47.037 C63.867 46.103 63.797 45.169 63.724 44.207 C63.07 36.856 61.989 29.722 56.374 24.412 C55.81 23.858 55.245 23.304 54.663 22.732 C49.687 18.975 44.878 19.004 38.898 19.057 C37.616 19.057 37.616 19.057 36.308 19.058 C34.501 19.061 32.694 19.069 30.886 19.081 C28.154 19.099 25.423 19.102 22.691 19.102 C14.001 19.12 5.386 19.203 -3.251 20.287 Z M-317.251 22.287 C-321.173 25.533 -323.217 29.34 -324.251 34.287 C-323.887 36.476 -323.887 36.476 -323.251 38.287 C-320.231 36.777 -319.846 34.476 -318.563 31.412 C-317.877 29.807 -317.877 29.807 -317.177 28.17 C-315.93 25.264 -315.93 25.264 -317.251 22.287 Z M-34.579 67.873 C-36.984 67.936 -39.389 67.998 -41.795 68.06 C-46.817 68.191 -51.839 68.324 -56.862 68.459 C-61.918 68.594 -66.975 68.726 -72.032 68.854 C-110.118 69.822 -148.124 71.357 -186.153 73.619 C-196.488 74.231 -206.818 74.644 -217.17 74.858 C-218.197 74.886 -219.224 74.914 -220.282 74.943 C-221.175 74.962 -222.067 74.981 -222.987 75 C-225.53 75.152 -225.53 75.152 -228.251 77.287 C-227.78 78.159 -227.31 79.03 -226.825 79.928 C-226.195 81.131 -225.567 82.334 -224.938 83.537 C-224.323 84.697 -223.708 85.857 -223.075 87.053 C-217.784 98.496 -217.132 111.358 -215.813 123.725 C-215.598 125.682 -215.382 127.639 -215.165 129.596 C-214.142 138.866 -213.158 148.141 -212.18 157.416 C-211.851 160.54 -211.52 163.664 -211.188 166.787 C-211.108 167.544 -211.028 168.3 -210.945 169.08 C-209.402 183.537 -207.485 197.919 -205.251 212.287 C-205.102 213.243 -204.954 214.2 -204.801 215.185 C-204.396 217.762 -203.983 220.338 -203.563 222.912 C-203.444 223.647 -203.325 224.382 -203.202 225.139 C-202.594 228.825 -202.594 228.825 -201.251 232.287 C-176.134 230.965 -151.157 228.525 -126.138 225.992 C-120.597 225.432 -115.055 224.878 -109.513 224.324 C-101.6 223.533 -93.688 222.74 -85.776 221.944 C-72.296 220.59 -58.815 219.249 -45.333 217.92 C-44.399 217.828 -43.466 217.736 -42.504 217.641 C-37.965 217.193 -33.426 216.746 -28.886 216.299 C-23.819 215.8 -18.752 215.3 -13.685 214.8 C-12.894 214.722 -12.102 214.644 -11.287 214.564 C-7.528 214.193 -3.768 213.821 -0.009 213.448 C6.095 212.843 12.2 212.242 18.307 211.662 C19.261 211.57 20.214 211.479 21.197 211.384 C22.887 211.222 24.578 211.063 26.27 210.908 C30.135 210.582 30.135 210.582 33.749 209.287 C33.898 199.098 33.504 189.088 32.613 178.932 C32.49 177.496 32.367 176.06 32.245 174.623 C31.988 171.629 31.726 168.635 31.46 165.641 C31.195 162.637 30.938 159.633 30.69 156.628 C26.904 110.582 26.904 110.582 11.749 67.287 C-3.704 67.201 -19.132 67.462 -34.579 67.873 Z M125.023 69.873 C123.931 69.934 122.84 69.996 121.715 70.059 C119.387 70.19 117.058 70.322 114.73 70.455 C108.608 70.806 102.485 71.146 96.363 71.486 C95.134 71.555 93.905 71.623 92.638 71.694 C80.865 72.345 69.09 72.924 57.312 73.475 C55.95 73.538 55.95 73.538 54.56 73.603 C49.623 73.834 44.686 74.062 39.749 74.287 C40.948 77.487 42.263 80.248 44.179 83.072 C46.764 87.125 48.413 91.159 49.874 95.725 C50.127 96.504 50.379 97.283 50.639 98.086 C58.314 122.682 59.027 149.741 51.554 174.451 C50.613 177.277 50.613 177.277 50.749 180.287 C72.786 178.663 94.813 176.91 116.831 175.054 C119.438 174.835 122.046 174.618 124.653 174.404 C128.352 174.1 132.051 173.786 135.749 173.471 C136.858 173.381 137.967 173.292 139.11 173.199 C144.553 172.725 149.597 172.157 154.749 170.287 C156.113 168.736 156.113 168.736 156.499 166.662 C156.813 165.463 156.813 165.463 157.132 164.24 C157.336 163.266 157.539 162.291 157.749 161.287 C158.148 159.423 158.148 159.423 158.554 157.521 C164.508 128.36 163.67 95.731 148.749 69.287 C140.815 69.213 132.942 69.407 125.023 69.873 Z M-243.251 83.287 C-251.552 98.278 -252.122 115.523 -248.005 131.873 C-247.479 134.214 -247.479 134.214 -246.251 135.287 C-243.404 135.221 -240.591 135.094 -237.751 134.912 C-236.933 134.863 -236.115 134.814 -235.273 134.764 C-229.908 134.43 -224.582 133.978 -219.251 133.287 C-218.924 117.355 -219.549 90.597 -231.251 78.287 C-236.356 75.331 -240.064 79.321 -243.251 83.287 Z M-319.251 87.287 C-319.251 87.947 -319.251 88.607 -319.251 89.287 C-318.591 89.287 -317.931 89.287 -317.251 89.287 C-317.251 88.627 -317.251 87.967 -317.251 87.287 C-317.911 87.287 -318.571 87.287 -319.251 87.287 Z M-314.251 122.287 C-315.495 123.299 -315.495 123.299 -315.276 125.386 C-313.039 167.332 -308.179 209.122 -302.918 250.782 C-302.63 253.066 -302.343 255.35 -302.057 257.635 C-297.795 299.182 -297.795 299.182 -284.251 338.287 C-283.261 338.287 -282.271 338.287 -281.251 338.287 C-281.809 333.48 -282.827 329.32 -284.501 324.787 C-302.038 273.971 -304.006 214.04 -309.188 160.725 C-309.29 159.679 -309.392 158.633 -309.496 157.555 C-311.154 140.355 -311.154 140.355 -311.529 133.604 C-311.568 132.895 -311.608 132.186 -311.649 131.456 C-311.747 129.597 -311.829 127.737 -311.909 125.877 C-312.022 125.022 -312.135 124.168 -312.251 123.287 C-312.911 122.957 -313.571 122.627 -314.251 122.287 Z M155.749 198.287 C153.006 206.313 151.09 213.793 150.749 222.287 C152.903 221.492 152.903 221.492 153.435 219.493 C153.734 218.345 153.734 218.345 154.038 217.174 C154.257 216.338 154.477 215.502 154.702 214.641 C155.035 213.321 155.035 213.321 155.374 211.975 C155.604 211.106 155.833 210.238 156.07 209.344 C157.07 205.465 157.749 202.333 157.749 198.287 C157.089 198.287 156.429 198.287 155.749 198.287 Z M184.749 247.287 C184.749 247.947 184.749 248.607 184.749 249.287 C197.176 251.28 209.634 252.945 222.124 254.475 C222.852 254.565 223.581 254.655 224.331 254.748 C226.436 255.009 228.542 255.264 230.648 255.518 C232.483 255.74 232.483 255.74 234.356 255.968 C237.513 256.265 240.581 256.347 243.749 256.287 C244.079 254.967 244.409 253.647 244.749 252.287 C234.59 250.832 224.439 249.714 214.213 248.854 C211.921 248.661 209.629 248.459 207.337 248.256 C199.793 247.603 192.329 247.121 184.749 247.287 Z M183.749 253.287 C177.802 266.007 177.802 266.007 175.956 279.514 C176.664 281.386 176.664 281.386 178.277 282.791 C179.749 284.287 179.749 284.287 180.312 288.225 C180.026 296.966 174.602 305.09 168.749 311.287 C169.739 311.617 170.729 311.947 171.749 312.287 C170.989 318.872 170.989 318.872 169.718 321.068 C168.325 324.26 168.56 327.077 168.624 330.537 C168.642 331.8 168.66 333.064 168.679 334.365 C168.702 335.329 168.725 336.294 168.749 337.287 C173.864 339.79 178.953 341.821 184.749 341.287 C188.75 338.417 191.221 334.961 192.749 330.287 C192.67 327.018 192.092 324.272 190.749 321.287 C187.704 318.45 185.792 317.436 181.687 316.85 C178.307 317.353 176.441 318.193 173.749 320.287 C172.421 322.354 172.421 322.354 171.749 324.287 C172.647 321.267 173.462 319.548 175.812 317.412 C180.014 315.803 183.452 316.024 187.749 317.287 C191.161 319.755 192.492 321.73 194.249 325.537 C194.893 330.362 193.936 333.963 191.749 338.287 C190.758 339.295 189.759 340.297 188.749 341.287 C188.749 341.947 188.749 342.607 188.749 343.287 C192.517 344.322 196.289 345.337 200.062 346.35 C201.134 346.644 202.205 346.939 203.31 347.242 C204.338 347.516 205.366 347.79 206.425 348.072 C207.373 348.329 208.321 348.585 209.297 348.85 C211.874 349.511 211.874 349.511 214.749 348.287 C215.886 345.885 215.886 345.885 216.738 342.85 C217.107 341.664 217.477 340.479 217.858 339.257 C218.053 338.613 218.249 337.968 218.45 337.304 C219.512 333.804 220.615 330.318 221.714 326.83 C222.068 325.702 222.068 325.702 222.429 324.552 C225.493 314.844 228.815 305.225 232.124 295.6 C232.725 293.85 233.326 292.101 233.926 290.352 C234.214 289.514 234.502 288.676 234.799 287.812 C235.357 286.185 235.914 284.557 236.471 282.928 C237.654 279.463 238.85 276.005 240.086 272.558 C240.462 271.493 240.838 270.428 241.226 269.33 C241.549 268.437 241.872 267.544 242.205 266.624 C242.803 264.056 242.466 262.774 241.749 260.287 C234.454 259.285 227.158 258.288 219.862 257.296 C217.381 256.958 214.9 256.619 212.419 256.278 C208.85 255.788 205.28 255.302 201.71 254.818 C200.604 254.665 199.497 254.512 198.357 254.354 C197.317 254.214 196.276 254.074 195.204 253.93 C194.293 253.805 193.383 253.681 192.445 253.553 C189.531 253.266 186.676 253.243 183.749 253.287 Z M-78.251 290.287 C-78.911 290.947 -79.571 291.607 -80.251 292.287 C-79.932 294.395 -79.932 294.395 -79.251 296.287 C-77.601 296.617 -75.951 296.947 -74.251 297.287 C-73.591 295.967 -72.931 294.647 -72.251 293.287 C-73.563 291.725 -73.563 291.725 -75.251 290.287 C-76.241 290.287 -77.231 290.287 -78.251 290.287 Z M103.749 312.287 C102.759 313.772 102.759 313.772 101.749 315.287 C116.375 325.038 144.51 321.451 160.888 318.531 C162.527 318.197 164.143 317.753 165.749 317.287 C166.079 316.627 166.409 315.967 166.749 315.287 C165.274 314.797 163.793 314.321 162.312 313.85 C161.488 313.583 160.664 313.316 159.816 313.041 C143.228 308.963 120.295 307.614 103.749 312.287 Z M-15.443 314.892 C-16.872 315.065 -18.3 315.237 -19.729 315.409 C-23.594 315.876 -27.458 316.349 -31.322 316.823 C-35.388 317.321 -39.456 317.814 -43.523 318.308 C-50.363 319.14 -57.203 319.975 -64.043 320.813 C-71.903 321.775 -79.763 322.732 -87.624 323.686 C-95.228 324.608 -102.833 325.535 -110.437 326.463 C-113.65 326.855 -116.864 327.246 -120.077 327.636 C-136.177 329.591 -152.261 331.548 -168.251 334.287 C-168.251 335.277 -168.251 336.267 -168.251 337.287 C-158.02 336.699 -147.882 335.762 -137.706 334.537 C-136.217 334.361 -134.729 334.185 -133.241 334.01 C-129.249 333.538 -125.258 333.061 -121.267 332.584 C-117.069 332.083 -112.871 331.585 -108.673 331.088 C-101.636 330.253 -94.599 329.416 -87.562 328.576 C-77.65 327.394 -67.738 326.217 -57.825 325.04 C-50.934 324.223 -44.044 323.403 -37.153 322.584 C-35.489 322.386 -33.824 322.188 -32.16 321.99 C-27.42 321.427 -22.681 320.863 -17.941 320.297 C-16.509 320.126 -15.077 319.956 -13.644 319.786 C-11.684 319.553 -9.723 319.318 -7.762 319.084 C-6.667 318.953 -5.572 318.823 -4.444 318.688 C-1.04 318.261 2.354 317.781 5.749 317.287 C6.079 315.967 6.409 314.647 6.749 313.287 C-0.738 313.046 -8.023 313.975 -15.443 314.892 Z M103.749 322.287 C101.639 324.398 102.585 329.076 102.581 331.994 C102.578 332.871 102.575 333.748 102.571 334.652 C102.566 336.512 102.564 338.372 102.564 340.233 C102.562 343.077 102.544 345.921 102.525 348.766 C102.522 350.571 102.52 352.376 102.519 354.182 C102.512 355.033 102.504 355.884 102.497 356.761 C102.5 357.558 102.503 358.356 102.506 359.177 C102.505 359.876 102.503 360.574 102.502 361.294 C102.795 363.656 103.536 365.251 104.749 367.287 C114.981 374.903 129.54 375.581 141.749 374.287 C148.117 372.827 153.251 370.005 157.749 365.287 C164.555 353.62 163.293 337.373 163.749 324.287 C160.939 322.882 158.677 323.64 155.648 324.016 C149.535 324.588 143.384 324.48 137.249 324.475 C136.187 324.476 136.187 324.476 135.103 324.478 C125.446 324.482 116 324.103 106.441 322.627 C105.108 322.459 105.108 322.459 103.749 322.287 Z M-356.251 335.287 C-356.251 338.917 -356.251 342.547 -356.251 346.287 C-355.591 346.287 -354.931 346.287 -354.251 346.287 C-354.251 342.657 -354.251 339.027 -354.251 335.287 C-354.911 335.287 -355.571 335.287 -356.251 335.287 Z M168.749 341.287 C168.749 342.607 168.749 343.927 168.749 345.287 C171.389 345.287 174.029 345.287 176.749 345.287 C176.749 344.627 176.749 343.967 176.749 343.287 C174.109 342.627 171.469 341.967 168.749 341.287 Z M177.749 347.287 C180.373 349.911 182.606 350.253 186.183 351.232 C186.817 351.407 187.45 351.582 188.103 351.762 C189.443 352.13 190.784 352.494 192.125 352.856 C194.178 353.41 196.226 353.974 198.275 354.541 C204.916 356.526 204.916 356.526 211.749 357.287 C212.079 355.637 212.409 353.987 212.749 352.287 C208.313 351.115 203.875 349.95 199.437 348.787 C198.174 348.453 196.911 348.119 195.611 347.775 C194.402 347.46 193.194 347.144 191.948 346.818 C190.833 346.525 189.718 346.232 188.568 345.93 C184.214 344.937 181.774 345.547 177.749 347.287 Z M-357.251 359.287 C-356.921 360.277 -356.591 361.267 -356.251 362.287 C-355.591 361.627 -354.931 360.967 -354.251 360.287 C-355.241 359.957 -356.231 359.627 -357.251 359.287 Z M-320.251 366.287 C-321.139 366.584 -322.027 366.88 -322.942 367.186 C-328.576 368.789 -334.381 369.284 -340.188 369.912 C-341.981 370.11 -341.981 370.11 -343.811 370.312 C-352.671 371.238 -361.349 371.655 -370.251 371.287 C-368.635 374.345 -368.635 374.345 -366.438 374.963 C-358.378 376.157 -350.125 375.192 -342.063 374.412 C-340.817 374.295 -340.817 374.295 -339.546 374.175 C-332.526 373.449 -325.537 372.659 -319.251 369.287 C-319.746 367.802 -319.746 367.802 -320.251 366.287 Z M-169.251 374.287 C-171.177 376.214 -170.418 379.061 -170.441 381.625 C-170.762 394.987 -170.762 394.987 -166.438 407.35 C-163.992 409.516 -162.473 410.019 -159.251 410.287 C-159.911 409.957 -160.571 409.627 -161.251 409.287 C-164.396 402.223 -164.739 394.901 -164.876 387.287 C-164.927 385.245 -164.981 383.204 -165.04 381.162 C-165.066 379.828 -165.066 379.828 -165.093 378.467 C-165.115 376.241 -165.115 376.241 -166.251 374.287 C-167.241 374.287 -168.231 374.287 -169.251 374.287 Z M-320.251 403.287 C-320.372 404.384 -320.493 405.481 -320.618 406.611 C-320.787 408.066 -320.956 409.52 -321.126 410.975 C-321.204 411.696 -321.283 412.417 -321.364 413.16 C-321.84 417.172 -322.514 420.587 -324.251 424.287 C-320.619 422.376 -318.668 421.172 -317.251 417.287 C-317.009 414.008 -317.009 414.008 -317.126 410.537 C-317.144 409.367 -317.162 408.196 -317.18 406.99 C-317.204 406.098 -317.227 405.206 -317.251 404.287 C-318.241 403.957 -319.231 403.627 -320.251 403.287 Z " fill="#000000" transform="translate(491.250732421875,245.712890625)"/>
<path d="M0 0 C0.33 1.32 0.66 2.64 1 4 C-4.223 7.917 -9.245 10.469 -16 9.625 C-16.66 9.419 -17.32 9.212 -18 9 C-18 8.01 -18 7.02 -18 6 C-15.943 4.988 -13.879 3.991 -11.812 3 C-10.664 2.443 -9.515 1.886 -8.332 1.312 C-5.209 0.082 -3.297 -0.298 0 0 Z " fill="#000000" transform="translate(607,251)"/>
<path d="M0 0 C2.539 0.385 3.728 0.701 5.484 2.629 C5.902 3.267 6.32 3.905 6.75 4.562 C7.178 5.203 7.606 5.844 8.047 6.504 C8.361 6.998 8.676 7.491 9 8 C8.67 8.66 8.34 9.32 8 10 C4.204 8.509 2.283 6.343 0 3 C0 2.01 0 1.02 0 0 Z " fill="#000000" transform="translate(130,264)"/>
<path d="M0 0 C0.33 0 0.66 0 1 0 C1.159 0.58 1.317 1.16 1.48 1.758 C2.689 5.805 3.793 9.12 6.625 12.312 C9.91 16.03 9.91 16.03 10 19 C9.411 21.354 8.754 23.693 8 26 C7.01 26 6.02 26 5 26 C5.142 25.359 5.284 24.719 5.43 24.059 C6.45 18.855 6.45 18.855 4.766 14.059 C3.672 12.936 2.564 11.828 1.441 10.734 C-1.07 7.713 -0.934 4.84 -1 1 C-0.67 0.67 -0.34 0.34 0 0 Z " fill="#000000" transform="translate(364,274)"/>
<path d="M0 0 C-1.204 2.494 -2.454 4.681 -4 7 C-4.66 7 -5.32 7 -6 7 C-5.372 3.355 -4.147 0 0 0 Z " fill="#000000" transform="translate(503,275)"/>
<path d="M0 0 C0.33 0.99 0.66 1.98 1 3 C-0.397 5.321 -1.816 7.407 -3.438 9.562 C-3.891 10.181 -4.345 10.799 -4.812 11.436 C-8.73 16.739 -12.805 21.914 -17 27 C-17.99 26.67 -18.98 26.34 -20 26 C-6.049 6.049 -6.049 6.049 0 0 Z " fill="#000000" transform="translate(523,279)"/>
<path d="M0 0 C0.66 0 1.32 0 2 0 C2.33 2.64 2.66 5.28 3 8 C2.01 8.495 2.01 8.495 1 9 C-0.478 6.043 -0.06 3.258 0 0 Z " fill="#000000" transform="translate(327,280)"/>
<path d="M0 0 C3.465 1.98 3.465 1.98 7 4 C7 4.99 7 5.98 7 7 C3.312 6.502 1.395 5.899 -1 3 C-0.67 2.01 -0.34 1.02 0 0 Z " fill="#000000" transform="translate(123,288)"/>
<path d="M0 0 C0.33 0.99 0.66 1.98 1 3 C-0.215 5.262 -0.215 5.262 -1.938 7.688 C-2.503 8.496 -3.069 9.304 -3.652 10.137 C-4.097 10.752 -4.542 11.366 -5 12 C-5.684 10.266 -5.684 10.266 -6 8 C-4.785 5.859 -4.785 5.859 -3.062 3.75 C-2.497 3.044 -1.931 2.337 -1.348 1.609 C-0.903 1.078 -0.458 0.547 0 0 Z " fill="#000000" transform="translate(422,290)"/>
<path d="M0 0 C0.66 0.66 1.32 1.32 2 2 C1.01 4.64 0.02 7.28 -1 10 C-1.66 10 -2.32 10 -3 10 C-2.01 6.7 -1.02 3.4 0 0 Z " fill="#000000" transform="translate(391,291)"/>
<path d="M0 0 C0.99 0.33 1.98 0.66 3 1 C1.884 2.839 0.757 4.671 -0.375 6.5 C-1.001 7.521 -1.628 8.542 -2.273 9.594 C-2.843 10.388 -3.413 11.182 -4 12 C-4.66 12 -5.32 12 -6 12 C-5.543 6.973 -3.008 3.851 0 0 Z " fill="#000000" transform="translate(445,291)"/>
<path d="M0 0 C-1.125 2.972 -2.223 5.334 -4 8 C-4.66 8 -5.32 8 -6 8 C-5.624 5.218 -5.327 3.412 -3.562 1.188 C-2 0 -2 0 0 0 Z " fill="#000000" transform="translate(500,292)"/>
<path d="M0 0 C0.66 0 1.32 0 2 0 C1.387 2.962 0.746 4.381 -1 7 C-1.99 7 -2.98 7 -4 7 C-2.796 4.506 -1.546 2.319 0 0 Z " fill="#000000" transform="translate(459,293)"/>
<path d="M0 0 C0.66 0 1.32 0 2 0 C0.603 4.997 -1.543 8.699 -4.5 12.875 C-4.903 13.468 -5.307 14.061 -5.723 14.672 C-6.759 16.156 -7.874 17.584 -9 19 C-9.66 19 -10.32 19 -11 19 C-10.453 14.445 -8.639 11.564 -6.062 7.812 C-5.352 6.767 -4.642 5.722 -3.91 4.645 C-2 2 -2 2 0 0 Z " fill="#000000" transform="translate(244,295)"/>
<path d="M0 0 C0.99 0.33 1.98 0.66 3 1 C3.33 6.28 3.66 11.56 4 17 C7.63 17 11.26 17 15 17 C14.67 18.32 14.34 19.64 14 21 C10.7 21 7.4 21 4 21 C4.023 21.797 4.046 22.593 4.07 23.414 C4.25 33.938 4.25 33.938 2 39 C0.515 38.505 0.515 38.505 -1 38 C-1.33 32.39 -1.66 26.78 -2 21 C-6.29 21 -10.58 21 -15 21 C-15 19.68 -15 18.36 -15 17 C-10.71 17 -6.42 17 -2 17 C-2.021 15.659 -2.041 14.319 -2.062 12.938 C-2.062 2.062 -2.062 2.062 0 0 Z " fill="#000000" transform="translate(698,297)"/>
<path d="M0 0 C0.66 0 1.32 0 2 0 C1.443 3.344 0.648 6.033 -1 9 C-1.99 9 -2.98 9 -4 9 C-3.474 5.212 -2.619 2.828 0 0 Z " fill="#000000" transform="translate(224,306)"/>
<path d="M0 0 C2.365 1.867 3.66 3.321 5 6 C5.406 9.655 5.214 11.589 3.5 14.875 C0.444 17.473 -1.196 17.634 -5.098 17.344 C-7.952 16.828 -9.192 16.314 -11 14 C-12.087 9.505 -12.574 7.285 -10.688 3.062 C-7.603 -0.707 -4.696 -0.405 0 0 Z M-5 5 C-6.305 7.218 -6.305 7.218 -7 10 C-5.737 12.802 -5.737 12.802 -4 15 C-1.244 14.502 -1.244 14.502 1 13 C1.25 10.042 1.25 10.042 1 7 C0.34 6.34 -0.32 5.68 -1 5 C-2.32 5 -3.64 5 -5 5 Z " fill="#000000" transform="translate(350,324)"/>
<path d="M0 0 C3.182 2.236 3.907 3.679 5 7.438 C5 11 5 11 3.5 13.875 C0.253 16.635 -1.763 17 -6 17 C-8.923 15.636 -10.728 14.272 -13 12 C-13.47 7.847 -13.44 5.698 -11.188 2.125 C-7.509 -1.449 -4.769 -1.265 0 0 Z M-7 4 C-7.041 5.279 -7.082 6.558 -7.125 7.875 C-7.148 8.594 -7.171 9.314 -7.195 10.055 C-7.183 12.239 -7.183 12.239 -5 14 C-1.693 13.71 -1.693 13.71 1 12 C1.25 9.042 1.25 9.042 1 6 C-0.898 3.65 -0.898 3.65 -4.125 3.875 C-5.074 3.916 -6.022 3.957 -7 4 Z " fill="#000000" transform="translate(331,326)"/>
<path d="M0 0 C1.637 4.431 2.439 8.534 2.933 13.227 C3.008 13.924 3.083 14.62 3.16 15.338 C3.404 17.623 3.636 19.909 3.867 22.195 C3.948 22.979 4.028 23.763 4.111 24.571 C4.535 28.711 4.952 32.853 5.361 36.995 C5.786 41.272 6.237 45.546 6.694 49.819 C7.041 53.111 7.369 56.403 7.692 59.697 C7.85 61.274 8.015 62.851 8.188 64.426 C8.427 66.627 8.638 68.828 8.843 71.032 C8.97 72.284 9.098 73.536 9.229 74.826 C9 78 9 78 7.244 80.42 C4.124 82.617 1.721 82.286 -2 82 C-1.916 82.915 -1.832 83.83 -1.746 84.773 C-1.593 86.556 -1.593 86.556 -1.438 88.375 C-1.333 89.558 -1.229 90.742 -1.121 91.961 C-1 95 -1 95 -2 97 C-4.918 97.973 -6.814 98.129 -9.852 98.133 C-11.251 98.135 -11.251 98.135 -12.68 98.137 C-14.138 98.131 -14.138 98.131 -15.625 98.125 C-16.605 98.129 -17.584 98.133 -18.594 98.137 C-19.524 98.135 -20.455 98.134 -21.414 98.133 C-22.27 98.132 -23.125 98.131 -24.006 98.129 C-26 98 -26 98 -27 97 C-27.072 94.98 -27.084 92.958 -27.062 90.938 C-27.053 89.833 -27.044 88.728 -27.035 87.59 C-27.018 86.308 -27.018 86.308 -27 85 C-27.639 85.057 -28.277 85.113 -28.935 85.172 C-44.484 86.552 -60.034 87.929 -75.583 89.303 C-83.103 89.967 -90.622 90.633 -98.142 91.3 C-104.696 91.882 -111.251 92.463 -117.806 93.041 C-121.276 93.347 -124.746 93.654 -128.216 93.963 C-132.092 94.308 -135.968 94.649 -139.844 94.99 C-140.992 95.093 -142.139 95.196 -143.321 95.302 C-144.381 95.394 -145.441 95.487 -146.533 95.582 C-147.907 95.704 -147.907 95.704 -149.31 95.828 C-152.235 96.015 -155.071 96.159 -158 96 C-160.775 93.225 -160.52 91.187 -160.93 87.301 C-161.005 86.61 -161.08 85.919 -161.158 85.207 C-161.405 82.91 -161.64 80.611 -161.875 78.312 C-162.045 76.711 -162.215 75.109 -162.386 73.507 C-162.746 70.113 -163.1 66.718 -163.45 63.322 C-163.913 58.831 -164.386 54.342 -164.862 49.852 C-165.238 46.303 -165.61 42.754 -165.981 39.204 C-166.159 37.492 -166.339 35.78 -166.519 34.069 C-166.771 31.663 -167.019 29.258 -167.266 26.852 C-167.34 26.144 -167.415 25.436 -167.492 24.706 C-168.591 13.847 -168.591 13.847 -166.869 11.378 C-164.222 9.427 -162.136 9.467 -158.867 9.26 C-157.583 9.171 -156.299 9.083 -154.976 8.992 C-153.55 8.908 -152.123 8.825 -150.697 8.741 C-149.197 8.644 -147.698 8.545 -146.198 8.445 C-142.12 8.176 -138.04 7.925 -133.961 7.677 C-129.687 7.414 -125.413 7.136 -121.14 6.86 C-113.955 6.398 -106.769 5.946 -99.582 5.501 C-90.382 4.932 -81.184 4.347 -71.985 3.756 C-64.058 3.247 -56.13 2.744 -48.202 2.243 C-45.665 2.083 -43.128 1.921 -40.592 1.76 C-36.586 1.506 -32.581 1.256 -28.575 1.009 C-27.112 0.918 -25.649 0.827 -24.187 0.733 C-16.113 0.22 -8.091 -0.133 0 0 Z M-24.898 3.81 C-26.282 3.898 -27.666 3.985 -29.05 4.071 C-32.786 4.306 -36.522 4.545 -40.257 4.784 C-44.181 5.035 -48.106 5.283 -52.03 5.532 C-58.62 5.949 -65.209 6.369 -71.799 6.79 C-79.396 7.276 -86.993 7.758 -94.591 8.239 C-101.925 8.703 -109.258 9.169 -116.592 9.635 C-119.701 9.833 -122.811 10.031 -125.92 10.228 C-129.588 10.46 -133.256 10.694 -136.925 10.929 C-138.898 11.056 -140.871 11.18 -142.844 11.304 C-149.58 11.739 -156.291 12.265 -163 13 C-163.211 21.379 -162.437 29.55 -161.504 37.871 C-161.349 39.284 -161.194 40.698 -161.04 42.111 C-160.718 45.052 -160.393 47.993 -160.064 50.933 C-159.643 54.701 -159.231 58.469 -158.82 62.238 C-158.503 65.147 -158.182 68.056 -157.86 70.965 C-157.707 72.355 -157.554 73.746 -157.402 75.136 C-157.19 77.072 -156.973 79.008 -156.756 80.943 C-156.573 82.593 -156.573 82.593 -156.386 84.277 C-156.071 87.087 -156.071 87.087 -155 90 C-147.263 90.099 -139.649 89.863 -131.942 89.19 C-130.91 89.104 -129.877 89.017 -128.813 88.929 C-125.443 88.646 -122.073 88.356 -118.703 88.066 C-116.341 87.867 -113.978 87.667 -111.615 87.468 C-106.683 87.052 -101.751 86.632 -96.819 86.21 C-90.509 85.669 -84.199 85.135 -77.889 84.602 C-71.847 84.093 -65.806 83.58 -59.766 83.066 C-58.62 82.969 -57.475 82.872 -56.295 82.772 C-53.043 82.497 -49.792 82.218 -46.54 81.94 C-45.587 81.859 -44.634 81.779 -43.652 81.696 C-38.416 81.244 -33.211 80.688 -28 80 C-28 78.68 -28 77.36 -28 76 C-26.486 77.514 -26.787 78.925 -26.684 81.035 C-26.621 82.248 -26.621 82.248 -26.557 83.486 C-26.517 84.336 -26.478 85.187 -26.438 86.062 C-26.394 86.917 -26.351 87.771 -26.307 88.65 C-26.2 90.767 -26.1 92.883 -26 95 C-22.075 96.308 -18.498 95.895 -14.438 95.625 C-13.657 95.581 -12.876 95.537 -12.072 95.492 C-7.902 95.315 -7.902 95.315 -4 94 C-4.33 89.38 -4.66 84.76 -5 80 C-8.466 81.733 -9.548 82.311 -11.75 85.125 C-12.864 86.548 -12.864 86.548 -14 88 C-16.97 86.35 -19.94 84.7 -23 83 C-23 82.34 -23 81.68 -23 81 C-21.639 81.773 -21.639 81.773 -20.25 82.562 C-17.281 84.194 -17.281 84.194 -14.984 83.805 C-12.536 82.812 -11.597 81.649 -10 79.562 C-7.895 76.822 -6.19 75.368 -3 74 C-3 74.99 -3 75.98 -3 77 C-0.36 77 2.28 77 5 77 C4.248 63.838 3.039 50.717 1.843 37.59 C1.497 33.783 1.157 29.977 0.816 26.17 C0.597 23.745 0.377 21.32 0.156 18.895 C0.005 17.191 0.005 17.191 -0.15 15.454 C-0.295 13.875 -0.295 13.875 -0.443 12.265 C-0.527 11.342 -0.611 10.419 -0.697 9.468 C-0.971 7.233 -1.433 5.174 -2 3 C-9.665 2.893 -17.251 3.317 -24.898 3.81 Z " fill="#000000" transform="translate(480,341)"/>
<path d="M0 0 C-0.33 0.66 -0.66 1.32 -1 2 C-16.345 2.495 -16.345 2.495 -32 3 C-23.756 -2.496 -9.653 -0.096 0 0 Z " fill="#000000" transform="translate(629,344)"/>
<path d="M0 0 C0.703 1.742 0.703 1.742 1 4 C-0.328 6.07 -0.328 6.07 -2.25 8.125 C-2.874 8.808 -3.498 9.491 -4.141 10.195 C-6 12 -6 12 -9 14 C-11.961 13.641 -12.847 13.153 -15 11 C-15.23 8.906 -15.23 8.906 -15.188 6.5 C-15.178 5.309 -15.178 5.309 -15.168 4.094 C-15 2 -15 2 -14 0 C-12.886 0.021 -11.773 0.041 -10.625 0.062 C-0.475 -0.113 -0.475 -0.113 0 0 Z M-13 3 C-13.071 4.352 -13.084 5.708 -13.062 7.062 C-13.042 8.362 -13.021 9.661 -13 11 C-11.199 11.8 -11.199 11.8 -9 12 C-6.983 10.703 -6.983 10.703 -5.25 8.75 C-4.636 8.126 -4.023 7.502 -3.391 6.859 C-1.701 4.987 -1.701 4.987 -2 2 C-3.646 1.973 -5.292 1.954 -6.938 1.938 C-8.312 1.92 -8.312 1.92 -9.715 1.902 C-11.966 1.741 -11.966 1.741 -13 3 Z " fill="#000000" transform="translate(589,345)"/>
<path d="M0 0 C0 0.99 0 1.98 0 3 C-6.558 4.118 -13.11 4.365 -19.75 4.625 C-20.886 4.677 -22.021 4.728 -23.191 4.781 C-24.821 4.847 -24.821 4.847 -26.484 4.914 C-27.471 4.955 -28.459 4.996 -29.476 5.038 C-32 5 -32 5 -35 4 C-35 3.34 -35 2.68 -35 2 C-5.293 -1.704 -5.293 -1.704 0 0 Z " fill="#000000" transform="translate(627,353)"/>
<path d="M0 0 C2.397 2.397 2.283 3.07 2.414 6.352 C2.453 7.202 2.491 8.053 2.531 8.93 C2.562 9.819 2.593 10.709 2.625 11.625 C2.664 12.522 2.702 13.419 2.742 14.344 C2.837 16.562 2.922 18.781 3 21 C5.31 21 7.62 21 10 21 C10 21.99 10 22.98 10 24 C7.36 24 4.72 24 2 24 C2 29.28 2 34.56 2 40 C1.34 40 0.68 40 0 40 C0 34.72 0 29.44 0 24 C-6.93 24 -13.86 24 -21 24 C-21 23.34 -21 22.68 -21 22 C-13.96 21.145 -7.092 20.909 0 21 C0 14.07 0 7.14 0 0 Z " fill="#000000" transform="translate(739,361)"/>
<path d="M0 0 C1.06 0.007 1.06 0.007 2.141 0.014 C3.885 0.025 5.63 0.043 7.375 0.062 C7.375 4.683 7.375 9.303 7.375 14.062 C4.673 15.413 2.257 15.401 -0.75 15.625 C-1.846 15.709 -2.941 15.793 -4.07 15.879 C-4.913 15.939 -5.756 16 -6.625 16.062 C-6.295 16.723 -5.965 17.382 -5.625 18.062 C-5.585 20.395 -5.582 22.73 -5.625 25.062 C-1.335 25.062 2.955 25.062 7.375 25.062 C7.045 26.053 6.715 27.043 6.375 28.062 C1.425 28.062 -3.525 28.062 -8.625 28.062 C-8.75 15.312 -8.75 15.312 -7.625 13.062 C-3.829 11.544 0.363 11.996 4.375 12.062 C4.375 9.092 4.375 6.123 4.375 3.062 C0.085 3.062 -4.205 3.062 -8.625 3.062 C-8.955 2.402 -9.285 1.743 -9.625 1.062 C-6.56 -0.47 -3.357 -0.04 0 0 Z " fill="#000000" transform="translate(372.625,361.9375)"/>
<path d="M0 0 C4.95 0 9.9 0 15 0 C16.35 11.416 16.35 11.416 14.875 13.875 C12.267 15.44 10.33 15.294 7.312 15.188 C6.319 15.16 5.325 15.133 4.301 15.105 C3.542 15.071 2.782 15.036 2 15 C2 18.3 2 21.6 2 25 C5.96 24.67 9.92 24.34 14 24 C14.33 24.99 14.66 25.98 15 27 C11.538 28.067 8.36 28.102 4.75 28.062 C3.672 28.053 2.595 28.044 1.484 28.035 C0.665 28.024 -0.155 28.012 -1 28 C-1.081 25.709 -1.139 23.417 -1.188 21.125 C-1.222 19.849 -1.257 18.573 -1.293 17.258 C-1.196 16.183 -1.1 15.108 -1 14 C2.314 11.791 3.345 11.775 7.188 11.875 C8.089 11.893 8.99 11.911 9.918 11.93 C10.605 11.953 11.292 11.976 12 12 C12 9.03 12 6.06 12 3 C7.71 3 3.42 3 -1 3 C-0.67 2.01 -0.34 1.02 0 0 Z " fill="#000000" transform="translate(336,364)"/>
<path d="M0 0 C0.915 3.012 1.258 4.453 -0.109 7.352 C-0.651 8.102 -1.192 8.852 -1.75 9.625 C-2.281 10.38 -2.812 11.136 -3.359 11.914 C-4.826 13.779 -6.18 15.477 -8 17 C-10.562 16.875 -10.562 16.875 -13 16 C-15.181 12.729 -15.249 11.726 -15.188 7.938 C-15.181 7.06 -15.175 6.182 -15.168 5.277 C-15 3 -15 3 -14 1 C-11.36 1.33 -8.72 1.66 -6 2 C-6 1.34 -6 0.68 -6 0 C-3.509 -1.245 -2.589 -0.777 0 0 Z M-3 1 C-3.392 1.516 -3.784 2.031 -4.188 2.562 C-4.786 3.037 -5.384 3.511 -6 4 C-9.125 3.625 -9.125 3.625 -12 3 C-13.876 4.876 -13.18 7.498 -13.23 9.992 C-13.118 12.317 -13.118 12.317 -11 15 C-7.404 13.551 -5.812 11.772 -3.688 8.562 C-2.889 7.389 -2.889 7.389 -2.074 6.191 C-0.639 3.913 -0.639 3.913 -2 1 C-2.33 1 -2.66 1 -3 1 Z " fill="#000000" transform="translate(587,381)"/>
<path d="M0 0 C0 0.66 0 1.32 0 2 C-2.339 3.169 -3.907 3.2 -6.516 3.316 C-7.889 3.379 -7.889 3.379 -9.291 3.444 C-10.755 3.502 -10.755 3.502 -12.25 3.562 C-13.238 3.605 -14.226 3.647 -15.245 3.691 C-22.835 3.998 -30.404 4.117 -38 4 C-35.457 1.457 -34.261 1.635 -30.723 1.367 C-29.651 1.283 -28.579 1.2 -27.475 1.113 C-26.349 1.035 -25.223 0.956 -24.062 0.875 C-22.971 0.789 -21.88 0.702 -20.756 0.613 C-13.825 0.094 -6.949 -0.11 0 0 Z " fill="#000000" transform="translate(634,380)"/>
<path d="M0 0 C0.66 0.33 1.32 0.66 2 1 C0.207 4.898 -1.589 8.794 -3.389 12.688 C-4 14.012 -4.61 15.336 -5.219 16.66 C-6.098 18.57 -6.98 20.479 -7.863 22.387 C-8.392 23.534 -8.921 24.68 -9.466 25.862 C-10.851 28.696 -12.217 31.397 -14 34 C-14.66 34 -15.32 34 -16 34 C-15.386 30.073 -14.171 26.979 -12.383 23.438 C-11.858 22.393 -11.334 21.349 -10.793 20.273 C-10.243 19.193 -9.692 18.113 -9.125 17 C-8.582 15.92 -8.04 14.84 -7.48 13.727 C-5.121 9.054 -2.738 4.464 0 0 Z " fill="#000000" transform="translate(257,389)"/>
<path d="M0 0 C0 0.99 0 1.98 0 3 C-9.443 7.721 -24.656 5.089 -35 5 C-35 4.01 -35 3.02 -35 2 C-10.017 -0.388 -10.017 -0.388 0 0 Z " fill="#000000" transform="translate(627,389)"/>
<path d="M0 0 C2.31 1.863 2.864 3.186 3.348 6.086 C3.622 10.314 3.36 12.449 1 16.062 C-2.322 18.208 -4.179 18.76 -8.062 18.473 C-11.663 17.594 -13.008 16.051 -15 13 C-15.696 9.846 -15.725 7.15 -15 4 C-10.353 -2.029 -6.998 -2.624 0 0 Z M-10.312 2.062 C-12.647 4.743 -13 6.457 -13 10 C-11.295 12.842 -10.019 14.522 -7 15.938 C-4.259 16.023 -3.163 15.73 -1 14 C0.651 10.195 1.381 8.096 0 4.125 C-1.894 1.78 -1.894 1.78 -4.938 1 C-7.96 0.787 -7.96 0.787 -10.312 2.062 Z " fill="#000000" transform="translate(357,404)"/>
<path d="M0 0 C1.32 0.66 2.64 1.32 4 2 C4 2.66 4 3.32 4 4 C3.34 4 2.68 4 2 4 C2 4.99 2 5.98 2 7 C2.99 7.33 3.98 7.66 5 8 C4.67 8.66 4.34 9.32 4 10 C2.02 10 0.04 10 -2 10 C-2 9.01 -2 8.02 -2 7 C-2.041 6.154 -2.082 5.309 -2.125 4.438 C-2 2 -2 2 0 0 Z " fill="#000000" transform="translate(350,407)"/>
<path d="M0 0 C1 3 1 3 -0.145 5.48 C-0.97 6.82 -0.97 6.82 -1.812 8.188 C-2.355 9.089 -2.898 9.99 -3.457 10.918 C-3.966 11.605 -4.475 12.292 -5 13 C-5.66 13 -6.32 13 -7 13 C-5.588 7.738 -3.251 4.278 0 0 Z " fill="#000000" transform="translate(232,411)"/>
<path d="M0 0 C3.149 1.369 5.048 2.875 7.25 5.5 C8.031 6.413 8.031 6.413 8.828 7.344 C10 9 10 9 10 11 C6.851 9.631 4.952 8.125 2.75 5.5 C2.229 4.892 1.708 4.283 1.172 3.656 C0 2 0 2 0 0 Z " fill="#000000" transform="translate(415,472)"/>
<path d="M0 0 C0.33 0 0.66 0 1 0 C0.67 4.62 0.34 9.24 0 14 C1.217 12.886 2.434 11.772 3.688 10.625 C9.214 5.819 9.214 5.819 13 5 C14.176 5.34 14.176 5.34 15.375 5.688 C19.137 6.135 20.758 4.387 23.645 2.129 C24.315 1.57 24.315 1.57 25 1 C24.123 3.705 23.283 5.684 21.375 7.812 C18.444 9.278 16.169 8.922 12.961 8.785 C9.553 9.159 8.067 11.46 6 14 C5.505 14.619 5.01 15.238 4.5 15.875 C3 17 3 17 0.312 16.688 C-0.451 16.461 -1.214 16.234 -2 16 C-2.204 10.262 -2.271 5.395 0 0 Z " fill="#000000" transform="translate(511,472)"/>
<path d="M0 0 C0.66 0 1.32 0 2 0 C2.33 2.97 2.66 5.94 3 9 C2.34 8.67 1.68 8.34 1 8 C0.406 5.351 0.258 2.708 0 0 Z " fill="#000000" transform="translate(391,483)"/>
<path d="M0 0 C0.33 0.99 0.66 1.98 1 3 C0.06 3.091 0.06 3.091 -0.898 3.184 C-1.716 3.267 -2.533 3.351 -3.375 3.438 C-4.187 3.519 -4.999 3.6 -5.836 3.684 C-8.043 3.891 -8.043 3.891 -10 5 C-10 6.65 -10 8.3 -10 10 C-10.99 10 -11.98 10 -13 10 C-14.32 2.682 -14.32 2.682 -13.062 0 C-8.882 -2.027 -4.294 -1.431 0 0 Z " fill="#000000" transform="translate(151,519)"/>
<path d="M0 0 C0.66 0 1.32 0 2 0 C0.675 7.577 -1.327 14.809 -3.688 22.125 C-4.036 23.213 -4.385 24.301 -4.744 25.422 C-7.622 34.216 -11.019 42.652 -15 51 C-16.266 47.202 -15.51 45.993 -14.121 42.285 C-13.697 41.132 -13.273 39.98 -12.835 38.792 C-12.374 37.561 -11.913 36.331 -11.438 35.062 C-10.505 32.53 -9.581 29.994 -8.66 27.457 C-8.431 26.825 -8.201 26.193 -7.964 25.541 C-4.937 17.14 -2.434 8.588 0 0 Z " fill="#000000" transform="translate(707,519)"/>
<path d="M0 0 C2.97 0.495 2.97 0.495 6 1 C4 3 4 3 1.375 3.125 C0.591 3.084 -0.192 3.043 -1 3 C-0.67 2.01 -0.34 1.02 0 0 Z " fill="#000000" transform="translate(105,523)"/>
<path d="M0 0 C7.75 0.875 7.75 0.875 10 2 C9 10.571 9 10.571 8 14 C3.115 14.192 0.685 13.874 -4 12 C-2.68 8.04 -1.36 4.08 0 0 Z M2 4 C1.34 5.98 0.68 7.96 0 10 C2.475 10.495 2.475 10.495 5 11 C5.66 9.02 6.32 7.04 7 5 C5.35 4.67 3.7 4.34 2 4 Z " fill="#000000" transform="translate(712,524)"/>
<path d="M0 0 C0.66 1.32 1.32 2.64 2 4 C1.01 4.495 1.01 4.495 0 5 C0 5.66 0 6.32 0 7 C1.664 8.149 1.664 8.149 3.75 9.25 C7.701 11.608 9.626 14.016 12 18 C12.763 18.639 13.526 19.279 14.312 19.938 C16 22 16 22 15.812 25.625 C15 29 15 29 14 31 C13.01 31 12.02 31 11 31 C11.33 27.7 11.66 24.4 12 21 C10.855 20.907 10.855 20.907 9.688 20.812 C6.118 19.733 5.866 18.134 4 15 C2.546 14.381 2.546 14.381 1.062 13.75 C-3.357 11.225 -4.341 7.655 -6 3 C-2.25 0 -2.25 0 0 0 Z " fill="#000000" transform="translate(135,536)"/>
<path d="M0 0 C7.625 0.875 7.625 0.875 11 2 C10.533 7.414 9.757 11.205 7 16 C3.7 15.01 0.4 14.02 -3 13 C-2.451 8.429 -1.583 4.326 0 0 Z M2 4 C1.34 6.31 0.68 8.62 0 11 C2.475 11.495 2.475 11.495 5 12 C7.152 8.772 7.201 7.716 7 4 C5.35 4 3.7 4 2 4 Z " fill="#000000" transform="translate(706,540)"/>
<path d="M0 0 C1.48 0.308 2.959 0.622 4.438 0.938 C5.261 1.112 6.085 1.286 6.934 1.465 C9 2 9 2 10 3 C9.834 8.821 8.525 14.408 7 20 C1.545 19.432 -2.911 18.054 -8 16 C-8 15.34 -8 14.68 -8 14 C-7.01 13.34 -6.02 12.68 -5 12 C-3.544 9.136 -3.544 9.136 -2.312 5.875 C-1.876 4.779 -1.439 3.684 -0.988 2.555 C-0.662 1.712 -0.336 0.869 0 0 Z M2 4 C0.68 7.3 -0.64 10.6 -2 14 C0.31 14.33 2.62 14.66 5 15 C5.66 11.7 6.32 8.4 7 5 C5.35 4.67 3.7 4.34 2 4 Z " fill="#000000" transform="translate(701,556)"/>
<path d="M0 0 C0 0.66 0 1.32 0 2 C-4.062 2.505 -8.125 3.003 -12.188 3.5 C-13.913 3.715 -13.913 3.715 -15.674 3.934 C-16.786 4.069 -17.897 4.204 -19.043 4.344 C-20.575 4.532 -20.575 4.532 -22.137 4.725 C-24.781 4.979 -27.346 5.051 -30 5 C-30 4.34 -30 3.68 -30 3 C-26.313 2.492 -22.626 1.995 -18.938 1.5 C-17.899 1.357 -16.861 1.214 -15.791 1.066 C-10.478 0.358 -5.36 -0.182 0 0 Z " fill="#000000" transform="translate(577,605)"/>
<path d="M0 0 C0 0.66 0 1.32 0 2 C-5.94 2.495 -5.94 2.495 -12 3 C-11.67 2.34 -11.34 1.68 -11 1 C-7.259 0.397 -3.783 0 0 0 Z " fill="#000000" transform="translate(536,609)"/>
<path d="M0 0 C-2.379 2.379 -3.174 2.336 -6.438 2.633 C-7.333 2.717 -8.229 2.8 -9.152 2.887 C-10.562 3.005 -10.562 3.005 -12 3.125 C-12.909 3.211 -13.818 3.298 -14.754 3.387 C-20.85 3.933 -26.881 4.105 -33 4 C-30.159 1.159 -27.08 1.282 -23.25 0.875 C-22.12 0.748 -22.12 0.748 -20.967 0.618 C-13.962 -0.114 -7.041 -0.201 0 0 Z " fill="#000000" transform="translate(514,612)"/>
<path d="M0 0 C0 0.66 0 1.32 0 2 C-4.691 2.677 -9.383 3.353 -14.075 4.026 C-15.663 4.255 -17.251 4.484 -18.839 4.713 C-27.106 5.906 -35.375 7.081 -43.656 8.164 C-44.882 8.326 -46.107 8.488 -47.369 8.655 C-51.287 9.027 -55.067 9.058 -59 9 C-58.67 8.34 -58.34 7.68 -58 7 C-55.441 6.486 -52.957 6.099 -50.371 5.781 C-49.589 5.678 -48.807 5.574 -48.002 5.468 C-45.481 5.137 -42.96 4.818 -40.438 4.5 C-38.795 4.286 -37.152 4.071 -35.51 3.855 C-31.461 3.326 -27.411 2.811 -23.361 2.3 C-21.037 2.005 -18.714 1.702 -16.391 1.398 C-14.96 1.213 -13.529 1.029 -12.098 0.844 C-10.846 0.681 -9.594 0.518 -8.305 0.35 C-5.499 0.053 -2.817 -0.072 0 0 Z " fill="#000000" transform="translate(732,619)"/>
<path d="M0 0 C0.668 0.262 1.336 0.524 2.025 0.794 C9.378 3.733 16.589 7.015 23.821 10.236 C32.065 13.887 40.378 17.343 48.75 20.688 C49.678 21.06 49.678 21.06 50.625 21.439 C57.804 24.312 65.012 27.079 72.281 29.715 C73.631 30.209 74.98 30.703 76.329 31.197 C78.892 32.136 81.461 33.048 84.038 33.947 C85.186 34.366 86.333 34.784 87.516 35.215 C88.529 35.573 89.543 35.931 90.587 36.301 C93 37.688 93 37.688 94.364 40.172 C95.436 44.41 94.154 47.16 92.203 50.95 C89.458 54.361 86.797 55.208 82.716 56.276 C82.007 56.479 81.297 56.682 80.566 56.891 C78.383 57.51 76.193 58.101 74 58.688 C72.758 59.034 71.516 59.381 70.236 59.738 C66.469 60.778 62.693 61.782 58.914 62.777 C57.482 63.158 56.049 63.538 54.617 63.919 C51.556 64.732 48.495 65.544 45.433 66.353 C37.927 68.338 30.423 70.334 22.919 72.328 C20.281 73.029 17.643 73.729 15.006 74.429 C1.068 78.131 -12.862 81.864 -26.788 85.61 C-28.501 86.071 -30.215 86.532 -31.929 86.993 C-32.776 87.221 -33.623 87.449 -34.496 87.684 C-40.468 89.289 -46.442 90.889 -52.417 92.486 C-55.82 93.395 -59.222 94.305 -62.625 95.215 C-63.463 95.439 -64.301 95.663 -65.165 95.894 C-75.498 98.657 -85.822 101.453 -96.134 104.294 C-102.908 106.161 -109.686 108.01 -116.468 109.847 C-121.217 111.135 -125.959 112.446 -130.697 113.774 C-133.598 114.581 -136.505 115.366 -139.413 116.143 C-140.752 116.506 -142.088 116.879 -143.421 117.261 C-153.429 120.126 -153.429 120.126 -157.268 119.055 C-159.132 118.014 -159.132 118.014 -162 115.688 C-162.638 115.287 -163.276 114.887 -163.934 114.474 C-164.678 113.973 -164.678 113.973 -165.438 113.461 C-166.013 113.075 -166.589 112.689 -167.183 112.291 C-167.782 111.886 -168.382 111.48 -169 111.062 C-170.339 110.164 -171.677 109.266 -173.016 108.367 C-174.022 107.69 -174.022 107.69 -175.049 106.999 C-177.944 105.053 -180.847 103.12 -183.75 101.188 C-188.515 98.013 -193.276 94.835 -198.035 91.652 C-210.67 83.208 -223.337 74.815 -236.072 66.521 C-238.054 65.23 -240.034 63.935 -242.011 62.636 C-244.124 61.259 -246.249 59.902 -248.383 58.56 C-249.475 57.862 -250.567 57.164 -251.691 56.445 C-252.685 55.82 -253.678 55.195 -254.701 54.551 C-257 52.688 -257 52.688 -257.876 50.609 C-258.051 47.901 -257.238 46.05 -256.188 43.562 C-255.83 42.694 -255.473 41.825 -255.105 40.93 C-254 38.688 -254 38.688 -252 36.688 C-249.438 36.131 -246.939 35.696 -244.348 35.324 C-243.52 35.2 -242.692 35.075 -241.839 34.947 C-230.558 33.279 -219.244 31.836 -207.937 30.355 C-151.671 22.975 -95.899 13.437 -40.246 2.363 C-39.39 2.194 -38.533 2.024 -37.651 1.849 C-33.876 1.1 -30.103 0.344 -26.334 -0.434 C-16.816 -2.345 -9.208 -3.648 0 0 Z M-27.965 6.523 C-28.894 6.718 -29.823 6.913 -30.78 7.113 C-32.784 7.534 -34.787 7.959 -36.79 8.388 C-42.281 9.564 -47.782 10.698 -53.281 11.84 C-54.422 12.078 -55.562 12.315 -56.737 12.56 C-114.791 24.653 -173.307 34.28 -232 42.688 C-232 43.347 -232 44.008 -232 44.688 C-227.67 47.9 -225.062 49.035 -219.645 48.422 C-217.697 48.119 -215.752 47.79 -213.812 47.438 C-211.861 47.118 -209.909 46.8 -207.957 46.484 C-207.101 46.333 -206.245 46.182 -205.363 46.026 C-203 45.688 -203 45.688 -199 45.688 C-199 46.678 -199 47.668 -199 48.688 C-204.94 49.678 -210.88 50.668 -217 51.688 C-212.639 56.067 -212.639 56.067 -207 56.688 C-203.976 56.368 -203.976 56.368 -200.902 55.656 C-199.771 55.423 -198.64 55.19 -197.475 54.949 C-195.724 54.572 -195.724 54.572 -193.938 54.188 C-191.615 53.689 -189.291 53.199 -186.965 52.719 C-185.94 52.498 -184.915 52.277 -183.859 52.049 C-180.903 51.675 -178.836 51.795 -176 52.688 C-175.67 53.347 -175.34 54.008 -175 54.688 C-184.24 56.337 -193.48 57.987 -203 59.688 C-203 60.347 -203 61.008 -203 61.688 C-200.712 63.762 -198.952 64.706 -195.825 64.646 C-193.237 64.305 -190.689 63.865 -188.125 63.375 C-182.331 62.335 -176.897 61.471 -171 61.688 C-170.67 62.678 -170.34 63.668 -170 64.688 C-176.6 65.678 -183.2 66.668 -190 67.688 C-185.66 72.159 -185.66 72.159 -180 72.688 C-176.379 72.219 -172.823 71.496 -169.25 70.75 C-162.055 69.253 -155.36 68.39 -148 68.688 C-148 69.347 -148 70.007 -148 70.688 C-157.313 72.81 -166.527 74.464 -176 75.688 C-172.517 79.482 -172.517 79.482 -168 81.688 C-165.048 81.629 -162.169 81.234 -159.25 80.812 C-158.061 80.656 -158.061 80.656 -156.848 80.496 C-154.897 80.238 -152.948 79.964 -151 79.688 C-150.67 80.678 -150.34 81.668 -150 82.688 C-150.638 82.809 -151.276 82.93 -151.934 83.055 C-152.76 83.222 -153.586 83.39 -154.438 83.562 C-155.261 83.725 -156.085 83.887 -156.934 84.055 C-157.956 84.368 -157.956 84.368 -159 84.688 C-159.33 85.347 -159.66 86.007 -160 86.688 C-155.853 89.875 -155.853 89.875 -150.846 90.576 C-150.043 90.406 -149.24 90.235 -148.413 90.06 C-147.438 89.858 -146.463 89.657 -145.459 89.449 C-143.747 89.072 -143.747 89.072 -142 88.688 C-140.642 88.398 -139.284 88.109 -137.926 87.821 C-133.013 86.772 -128.106 85.691 -123.199 84.609 C-121.345 84.202 -119.49 83.795 -117.636 83.388 C-112.68 82.3 -107.725 81.209 -102.769 80.117 C-99.673 79.434 -96.576 78.753 -93.479 78.071 C-36.907 65.618 19.57 52.767 76 39.688 C73.705 37.27 72.371 36.115 69 35.688 C66.86 35.906 66.86 35.906 64.672 36.465 C63.873 36.649 63.073 36.832 62.25 37.021 C61.425 37.221 60.6 37.42 59.75 37.625 C58.91 37.82 58.069 38.016 57.203 38.217 C55.134 38.699 53.066 39.192 51 39.688 C51 38.697 51 37.707 51 36.688 C51.638 36.566 52.276 36.445 52.934 36.32 C54.173 36.069 54.173 36.069 55.438 35.812 C56.261 35.65 57.085 35.488 57.934 35.32 C58.616 35.111 59.297 34.903 60 34.688 C60.33 34.028 60.66 33.367 61 32.688 C54.731 29.852 49.998 31.366 43.469 32.949 C39.162 33.866 35.381 33.914 31 33.688 C34.452 31.722 37.885 30.913 41.75 30.062 C42.92 29.802 44.091 29.542 45.297 29.273 C46.189 29.08 47.081 28.887 48 28.688 C45.209 25.896 42.824 24.74 38.814 24.624 C36.265 24.714 33.731 24.873 31.188 25.062 C30.304 25.119 29.42 25.176 28.51 25.234 C26.339 25.375 24.169 25.53 22 25.688 C22 25.028 22 24.367 22 23.688 C24.64 23.028 27.28 22.367 30 21.688 C28.197 19.384 27.131 18.72 24.25 18 C20.812 17.669 17.452 17.618 14 17.688 C14 16.367 14 15.048 14 13.688 C5.824 8.192 -1.881 10.032 -11 11.688 C-11.33 10.697 -11.66 9.707 -12 8.688 C-9.69 8.028 -7.38 7.367 -5 6.688 C-6.799 4.474 -6.799 4.474 -9.251 4.428 C-15.706 4.475 -21.668 5.138 -27.965 6.523 Z " fill="#000000" transform="translate(610,630.3125)"/>
<path d="M0 0 C-0.33 0.66 -0.66 1.32 -1 2 C-3.502 2.488 -5.911 2.848 -8.438 3.125 C-9.159 3.21 -9.88 3.295 -10.623 3.382 C-16.093 3.99 -21.496 4.238 -27 4 C-24.05 2.033 -23.079 1.696 -19.727 1.367 C-18.902 1.283 -18.077 1.2 -17.227 1.113 C-16.368 1.035 -15.51 0.956 -14.625 0.875 C-13.774 0.789 -12.923 0.702 -12.047 0.613 C-8.019 0.218 -4.053 -0.117 0 0 Z " fill="#000000" transform="translate(551,628)"/>
<path d="M0 0 C0 0.66 0 1.32 0 2 C-11.396 4.27 -22.383 5.182 -34 5 C-30.854 3.206 -28.154 2.585 -24.57 2.148 C-23.527 2.02 -22.485 1.891 -21.41 1.758 C-20.326 1.631 -19.242 1.505 -18.125 1.375 C-17.049 1.241 -15.972 1.107 -14.863 0.969 C-9.868 0.365 -5.038 -0.07 0 0 Z " fill="#000000" transform="translate(506,629)"/>
<path d="M0 0 C-0.33 0.66 -0.66 1.32 -1 2 C-2.949 2.411 -2.949 2.411 -5.473 2.633 C-6.372 2.717 -7.271 2.8 -8.197 2.887 C-9.143 2.965 -10.088 3.044 -11.062 3.125 C-12.012 3.211 -12.961 3.298 -13.939 3.387 C-16.292 3.6 -18.646 3.804 -21 4 C-21.33 3.34 -21.66 2.68 -22 2 C-14.589 0.574 -7.551 -0.301 0 0 Z " fill="#000000" transform="translate(740,633)"/>
<path d="M0 0 C0 0.66 0 1.32 0 2 C-3.647 3.216 -7.144 3.339 -10.949 3.535 C-11.722 3.578 -12.494 3.621 -13.29 3.665 C-15.756 3.802 -18.222 3.932 -20.688 4.062 C-22.36 4.154 -24.033 4.246 -25.705 4.338 C-29.803 4.563 -33.901 4.783 -38 5 C-37.67 4.34 -37.34 3.68 -37 3 C-34.244 2.498 -34.244 2.498 -30.586 2.148 C-29.614 2.053 -29.614 2.053 -28.623 1.955 C-27.246 1.822 -25.869 1.692 -24.492 1.567 C-22.404 1.378 -20.317 1.174 -18.23 0.969 C-12.135 0.385 -6.131 -0.074 0 0 Z " fill="#000000" transform="translate(298,634)"/>
<path d="M0 0 C0 0.66 0 1.32 0 2 C-4.208 2.337 -8.416 2.669 -12.625 3 C-13.815 3.095 -15.005 3.191 -16.23 3.289 C-17.384 3.379 -18.538 3.47 -19.727 3.562 C-20.784 3.646 -21.842 3.73 -22.932 3.816 C-25.963 3.998 -28.964 4.032 -32 4 C-32 3.34 -32 2.68 -32 2 C-21.287 0.733 -10.803 -0.349 0 0 Z " fill="#000000" transform="translate(699,641)"/>
<path d="M0 0 C0.33 0.99 0.66 1.98 1 3 C-4.372 5.629 -9.045 6.608 -15 7 C-15.33 5.68 -15.66 4.36 -16 3 C-14.085 2.494 -12.168 1.996 -10.25 1.5 C-8.649 1.082 -8.649 1.082 -7.016 0.656 C-4 0 -4 0 0 0 Z " fill="#000000" transform="translate(594,641)"/>
<path d="M0 0 C-0.33 1.32 -0.66 2.64 -1 4 C-3.08 4.532 -5.165 5.05 -7.25 5.562 C-8.41 5.853 -9.57 6.143 -10.766 6.441 C-13.721 6.952 -15.244 7.03 -18 6 C-18 5.01 -18 4.02 -18 3 C-11.886 1.143 -6.415 -0.428 0 0 Z " fill="#000000" transform="translate(574,646)"/>
<path d="M0 0 C0 1.32 0 2.64 0 4 C-8.429 6.286 -8.429 6.286 -13 6 C-13.33 5.01 -13.66 4.02 -14 3 C-9.07 0.96 -5.42 -0.407 0 0 Z " fill="#000000" transform="translate(619,646)"/>
<path d="M0 0 C-3.178 1.838 -5.777 2.349 -9.422 2.633 C-10.447 2.717 -11.471 2.8 -12.527 2.887 C-14.123 3.005 -14.123 3.005 -15.75 3.125 C-16.829 3.211 -17.908 3.298 -19.02 3.387 C-21.679 3.599 -24.339 3.803 -27 4 C-27.33 3.34 -27.66 2.68 -28 2 C-18.613 0.666 -9.509 -0.324 0 0 Z " fill="#000000" transform="translate(216,647)"/>
<path d="M0 0 C0.33 1.32 0.66 2.64 1 4 C-4.225 5.467 -8.581 6.226 -14 6 C-13.67 4.68 -13.34 3.36 -13 2 C-8.463 0.548 -4.819 -0.235 0 0 Z " fill="#000000" transform="translate(602,650)"/>
<path d="M0 0 C-0.33 1.32 -0.66 2.64 -1 4 C-6.838 5.698 -11.931 6.253 -18 6 C-18 5.01 -18 4.02 -18 3 C-11.795 0.864 -6.573 -0.365 0 0 Z " fill="#000000" transform="translate(551,651)"/>
<path d="M0 0 C0.33 1.32 0.66 2.64 1 4 C-2.664 5.648 -5.812 6.336 -9.812 6.625 C-10.788 6.7 -11.764 6.775 -12.77 6.852 C-13.874 6.925 -13.874 6.925 -15 7 C-15 5.68 -15 4.36 -15 3 C-13.064 2.496 -11.126 1.997 -9.188 1.5 C-8.109 1.222 -7.03 0.943 -5.918 0.656 C-3 0 -3 0 0 0 Z " fill="#000000" transform="translate(584,653)"/>
<path d="M0 0 C0.49 0.369 0.98 0.737 1.484 1.117 C-0.516 4.117 -0.516 4.117 -3.633 5.066 C-4.873 5.31 -6.113 5.554 -7.391 5.805 C-8.626 6.056 -9.86 6.307 -11.133 6.566 C-14.516 7.117 -14.516 7.117 -18.516 7.117 C-18.516 5.797 -18.516 4.477 -18.516 3.117 C-15.936 2.391 -13.354 1.686 -10.766 0.992 C-10.036 0.785 -9.306 0.577 -8.555 0.363 C-3.079 -1.08 -3.079 -1.08 0 0 Z " fill="#000000" transform="translate(626.515625,653.8828125)"/>
<path d="M0 0 C0 1.32 0 2.64 0 4 C-3.061 4.675 -6.124 5.339 -9.188 6 C-10.484 6.286 -10.484 6.286 -11.807 6.578 C-12.648 6.759 -13.489 6.939 -14.355 7.125 C-15.125 7.293 -15.895 7.46 -16.688 7.633 C-19.161 8.026 -21.501 8.062 -24 8 C-24.33 6.68 -24.66 5.36 -25 4 C-21.772 3.325 -18.543 2.662 -15.312 2 C-14.4 1.809 -13.488 1.618 -12.549 1.422 C-11.663 1.241 -10.776 1.061 -9.863 0.875 C-9.052 0.707 -8.24 0.54 -7.404 0.367 C-4.899 -0.015 -2.529 -0.063 0 0 Z " fill="#000000" transform="translate(528,655)"/>
<path d="M0 0 C0 1.32 0 2.64 0 4 C-2.082 4.505 -4.166 5.004 -6.25 5.5 C-7.41 5.778 -8.57 6.057 -9.766 6.344 C-13 7 -13 7 -17 7 C-17.33 6.01 -17.66 5.02 -18 4 C-11.581 1.161 -7.137 -0.137 0 0 Z " fill="#000000" transform="translate(564,658)"/>
<path d="M0 0 C0 1.32 0 2.64 0 4 C-4.504 5.757 -8.176 6.193 -13 6 C-13 4.68 -13 3.36 -13 2 C-4.571 -0.286 -4.571 -0.286 0 0 Z " fill="#000000" transform="translate(603,659)"/>
<path d="M0 0 C-2.814 2.814 -5.785 2.652 -9.578 3.035 C-10.723 3.161 -10.723 3.161 -11.89 3.288 C-13.514 3.465 -15.138 3.637 -16.763 3.805 C-19.2 4.057 -21.635 4.321 -24.07 4.588 C-36.682 5.951 -49.298 7.263 -62 7 C-58.868 5.213 -56.225 4.607 -52.652 4.206 C-51.05 4.021 -51.05 4.021 -49.416 3.833 C-48.268 3.709 -47.12 3.585 -45.938 3.457 C-44.754 3.324 -43.571 3.192 -42.351 3.055 C-39.85 2.776 -37.349 2.502 -34.847 2.231 C-31.014 1.814 -27.183 1.381 -23.352 0.947 C-20.922 0.679 -18.492 0.411 -16.062 0.145 C-14.915 0.014 -13.767 -0.116 -12.584 -0.25 C-11.516 -0.364 -10.448 -0.477 -9.348 -0.594 C-8.409 -0.697 -7.471 -0.8 -6.504 -0.906 C-4.09 -0.997 -2.291 -0.723 0 0 Z " fill="#000000" transform="translate(288,661)"/>
<path d="M0 0 C0 0.99 0 1.98 0 3 C-7.655 4.908 -15.118 6.484 -23 7 C-23 5.68 -23 4.36 -23 3 C-20.938 2.52 -18.875 2.041 -16.812 1.562 C-15.09 1.162 -15.09 1.162 -13.332 0.754 C-12.232 0.505 -11.133 0.256 -10 0 C-9.092 -0.206 -8.185 -0.413 -7.25 -0.625 C-4.593 -1.068 -2.591 -0.666 0 0 Z " fill="#000000" transform="translate(498,661)"/>
<path d="M0 0 C-0.33 1.32 -0.66 2.64 -1 4 C-2.56 4.366 -4.123 4.718 -5.688 5.062 C-6.558 5.26 -7.428 5.457 -8.324 5.66 C-11.16 6.02 -13.248 5.709 -16 5 C-16 4.01 -16 3.02 -16 2 C-10.711 0.065 -5.498 -1.833 0 0 Z " fill="#000000" transform="translate(544,663)"/>
<path d="M0 0 C0 1.32 0 2.64 0 4 C-1.56 4.366 -3.123 4.718 -4.688 5.062 C-5.558 5.26 -6.428 5.457 -7.324 5.66 C-10.16 6.02 -12.248 5.709 -15 5 C-15 4.01 -15 3.02 -15 2 C-9.756 0.252 -5.527 -0.194 0 0 Z " fill="#000000" transform="translate(585,663)"/>
<path d="M0 0 C0 0.99 0 1.98 0 3 C-1.913 3.533 -3.831 4.051 -5.75 4.562 C-6.817 4.853 -7.885 5.143 -8.984 5.441 C-11.843 5.971 -13.316 5.984 -16 5 C-15.67 4.01 -15.34 3.02 -15 2 C-12.637 1.016 -12.637 1.016 -9.688 0.25 C-8.722 -0.013 -7.756 -0.276 -6.762 -0.547 C-4.063 -0.99 -2.547 -0.895 0 0 Z " fill="#000000" transform="translate(637,664)"/>
<path d="M0 0 C0 0.99 0 1.98 0 3 C-8.487 5.3 -16.206 6.428 -25 6 C-24.67 5.01 -24.34 4.02 -24 3 C-20.565 2.3 -17.127 1.617 -13.688 0.938 C-12.711 0.738 -11.735 0.539 -10.729 0.334 C-9.791 0.15 -8.853 -0.033 -7.887 -0.223 C-6.591 -0.482 -6.591 -0.482 -5.268 -0.746 C-3 -1 -3 -1 0 0 Z " fill="#000000" transform="translate(470,666)"/>
<path d="M0 0 C0.33 0.99 0.66 1.98 1 3 C-5.243 5.479 -10.283 6.32 -17 6 C-16.67 4.68 -16.34 3.36 -16 2 C-14.272 1.661 -12.542 1.329 -10.812 1 C-9.85 0.814 -8.887 0.629 -7.895 0.438 C-5.207 0.031 -2.712 -0.079 0 0 Z " fill="#000000" transform="translate(524,666)"/>
<path d="M0 0 C0 1.32 0 2.64 0 4 C-5.455 5.385 -10.367 6.24 -16 6 C-16.33 5.01 -16.66 4.02 -17 3 C-11.177 1.032 -6.166 -0.402 0 0 Z " fill="#000000" transform="translate(566,667)"/>
<path d="M0 0 C0 0.99 0 1.98 0 3 C-2.08 3.532 -4.165 4.05 -6.25 4.562 C-7.41 4.853 -8.57 5.143 -9.766 5.441 C-12.721 5.952 -14.244 6.03 -17 5 C-17 4.01 -17 3.02 -17 2 C-15.108 1.466 -13.211 0.948 -11.312 0.438 C-10.257 0.147 -9.201 -0.143 -8.113 -0.441 C-4.993 -1.001 -3.023 -0.847 0 0 Z " fill="#000000" transform="translate(618,668)"/>
<path d="M0 0 C0 1.32 0 2.64 0 4 C-4.974 5.757 -9.742 7.326 -15 8 C-15.66 7.01 -16.32 6.02 -17 5 C-15.585 4.35 -14.168 3.705 -12.75 3.062 C-11.961 2.703 -11.172 2.343 -10.359 1.973 C-6.645 0.442 -4.07 0 0 0 Z " fill="#000000" transform="translate(657,668)"/>
<path d="M0 0 C-0.33 1.32 -0.66 2.64 -1 4 C-5.961 5.323 -10.911 5.089 -16 5 C-16 4.01 -16 3.02 -16 2 C-4.571 -2.286 -4.571 -2.286 0 0 Z " fill="#000000" transform="translate(503,670)"/>
<path d="M0 0 C-0.33 1.32 -0.66 2.64 -1 4 C-4.248 4.534 -7.499 5.05 -10.75 5.562 C-11.67 5.714 -12.591 5.865 -13.539 6.021 C-14.873 6.229 -14.873 6.229 -16.234 6.441 C-17.46 6.638 -17.46 6.638 -18.71 6.838 C-21.061 7.004 -22.764 6.703 -25 6 C-24.67 5.01 -24.34 4.02 -24 3 C-21.502 2.491 -19.002 1.992 -16.5 1.5 C-15.804 1.357 -15.108 1.214 -14.391 1.066 C-9.509 0.117 -4.973 -0.134 0 0 Z " fill="#000000" transform="translate(441,671)"/>
<path d="M0 0 C0 0.99 0 1.98 0 3 C-1.935 3.531 -3.873 4.049 -5.812 4.562 C-7.431 4.998 -7.431 4.998 -9.082 5.441 C-12 6 -12 6 -15 5 C-14.67 3.68 -14.34 2.36 -14 1 C-4.59 -1.481 -4.59 -1.481 0 0 Z " fill="#000000" transform="translate(545,672)"/>
<path d="M0 0 C-0.33 0.99 -0.66 1.98 -1 3 C-3.592 3.894 -6.028 4.582 -8.688 5.188 C-9.396 5.365 -10.104 5.542 -10.834 5.725 C-14.969 6.713 -18.719 7.196 -23 7 C-23.33 5.68 -23.66 4.36 -24 3 C-20.568 2.104 -17.129 1.237 -13.688 0.375 C-12.711 0.12 -11.735 -0.135 -10.729 -0.398 C-9.791 -0.63 -8.853 -0.862 -7.887 -1.102 C-6.591 -1.431 -6.591 -1.431 -5.268 -1.768 C-3 -2 -3 -2 0 0 Z " fill="#000000" transform="translate(598,673)"/>
<path d="M0 0 C0 1.32 0 2.64 0 4 C-6.068 5.229 -11.799 6.276 -18 6 C-18.33 5.01 -18.66 4.02 -19 3 C-6.515 -0.444 -6.515 -0.444 0 0 Z " fill="#000000" transform="translate(483,673)"/>
<path d="M0 0 C-0.33 1.32 -0.66 2.64 -1 4 C-9.429 6.286 -9.429 6.286 -14 6 C-14 4.68 -14 3.36 -14 2 C-9.127 0.409 -5.192 -0.212 0 0 Z " fill="#000000" transform="translate(637,673)"/>
<path d="M0 0 C-1.651 1.651 -3.637 1.225 -5.91 1.316 C-7.394 1.379 -7.394 1.379 -8.908 1.443 C-10.47 1.502 -10.47 1.502 -12.062 1.562 C-13.107 1.606 -14.152 1.649 -15.229 1.693 C-17.819 1.8 -20.409 1.902 -23 2 C-19.034 -0.644 -15.599 -0.754 -10.938 -1.25 C-10.109 -1.353 -9.281 -1.456 -8.428 -1.562 C-7.636 -1.65 -6.843 -1.738 -6.027 -1.828 C-4.941 -1.95 -4.941 -1.95 -3.832 -2.075 C-2 -2 -2 -2 0 0 Z " fill="#000000" transform="translate(288,675)"/>
<path d="M0 0 C0.33 0.99 0.66 1.98 1 3 C-4.358 6.572 -9.766 6.122 -16 6 C-16 5.01 -16 4.02 -16 3 C-14.273 2.492 -12.543 1.994 -10.812 1.5 C-9.85 1.222 -8.887 0.943 -7.895 0.656 C-5.147 0.033 -2.804 -0.123 0 0 Z " fill="#000000" transform="translate(525,675)"/>
<path d="M0 0 C0.33 0.99 0.66 1.98 1 3 C-2.266 4.913 -4.994 5.357 -8.75 5.625 C-9.735 5.7 -10.72 5.775 -11.734 5.852 C-12.482 5.901 -13.23 5.95 -14 6 C-14.33 5.01 -14.66 4.02 -15 3 C-9.64 0.743 -5.802 -0.363 0 0 Z " fill="#000000" transform="translate(619,677)"/>
<path d="M0 0 C0 0.99 0 1.98 0 3 C-2.374 3.507 -4.749 4.006 -7.125 4.5 C-7.79 4.643 -8.455 4.786 -9.141 4.934 C-13.161 5.761 -16.899 6.153 -21 6 C-20.67 4.68 -20.34 3.36 -20 2 C-17.606 1.467 -15.211 0.948 -12.812 0.438 C-12.139 0.286 -11.465 0.135 -10.771 -0.021 C-6.867 -0.84 -3.848 -1.128 0 0 Z " fill="#000000" transform="translate(460,678)"/>
<path d="M0 0 C0.33 0.99 0.66 1.98 1 3 C-2.664 4.648 -5.812 5.336 -9.812 5.625 C-10.788 5.7 -11.764 5.775 -12.77 5.852 C-13.874 5.925 -13.874 5.925 -15 6 C-15.33 5.01 -15.66 4.02 -16 3 C-5.496 -1.832 -5.496 -1.832 0 0 Z " fill="#000000" transform="translate(570,678)"/>
<path d="M0 0 C0.33 1.32 0.66 2.64 1 4 C-4.838 5.698 -9.931 6.253 -16 6 C-16.33 5.01 -16.66 4.02 -17 3 C-11.177 1.032 -6.166 -0.402 0 0 Z " fill="#000000" transform="translate(504,679)"/>
<path d="M0 0 C-0.33 0.66 -0.66 1.32 -1 2 C-3.792 2.489 -6.498 2.85 -9.312 3.125 C-10.528 3.252 -10.528 3.252 -11.767 3.382 C-18.188 4.015 -24.549 4.228 -31 4 C-30.67 3.34 -30.34 2.68 -30 2 C-27.394 1.509 -24.881 1.15 -22.25 0.875 C-21.49 0.79 -20.729 0.705 -19.946 0.618 C-13.278 -0.076 -6.703 -0.21 0 0 Z " fill="#000000" transform="translate(126,681)"/>
<path d="M0 0 C0.33 1.32 0.66 2.64 1 4 C-6.92 5.485 -6.92 5.485 -15 7 C-15.33 5.68 -15.66 4.36 -16 3 C-14.273 2.492 -12.543 1.994 -10.812 1.5 C-9.85 1.222 -8.887 0.943 -7.895 0.656 C-5.147 0.033 -2.804 -0.123 0 0 Z " fill="#000000" transform="translate(550,681)"/>
<path d="M0 0 C-0.33 0.99 -0.66 1.98 -1 3 C-4.055 4.168 -4.055 4.168 -7.875 5.188 C-9.131 5.532 -10.386 5.876 -11.68 6.23 C-15 7 -15 7 -18 7 C-18.33 5.68 -18.66 4.36 -19 3 C-5.934 -1.526 -5.934 -1.526 0 0 Z " fill="#000000" transform="translate(601,682)"/>
<path d="M0 0 C0 0.66 0 1.32 0 2 C-13.633 4.296 -13.633 4.296 -20 4 C-20.33 3.34 -20.66 2.68 -21 2 C-13.903 0.655 -7.227 -0.241 0 0 Z " fill="#000000" transform="translate(180,683)"/>
<path d="M0 0 C0 1.32 0 2.64 0 4 C-1.895 4.338 -3.791 4.671 -5.688 5 C-6.743 5.186 -7.799 5.371 -8.887 5.562 C-11.649 5.951 -14.217 6.083 -17 6 C-17.33 5.01 -17.66 4.02 -18 3 C-11.757 0.521 -6.717 -0.32 0 0 Z " fill="#000000" transform="translate(483,683)"/>
<path d="M0 0 C3.063 0.622 5.285 1.624 7.914 3.301 C8.665 3.776 9.415 4.252 10.188 4.742 C10.992 5.26 11.796 5.779 12.625 6.312 C13.476 6.856 14.327 7.399 15.204 7.959 C21.289 11.859 27.316 15.84 33.317 19.867 C41.136 25.109 49.004 30.275 56.875 35.438 C57.57 35.893 58.265 36.349 58.981 36.819 C67.479 42.391 75.982 47.957 84.5 53.5 C85.263 53.997 86.026 54.494 86.812 55.006 C87.524 55.468 88.235 55.93 88.969 56.406 C89.633 56.838 90.296 57.27 90.98 57.715 C92.408 58.623 93.85 59.509 95.301 60.379 C96.037 60.821 96.773 61.263 97.531 61.719 C98.197 62.11 98.863 62.501 99.549 62.904 C100.028 63.266 100.507 63.627 101 64 C101 64.66 101 65.32 101 66 C93.642 67.011 88.752 63.524 82.562 59.875 C81.465 59.244 80.368 58.613 79.237 57.963 C75.815 55.991 72.407 53.998 69 52 C66.944 50.803 64.888 49.606 62.832 48.41 C59.848 46.672 56.866 44.932 53.887 43.185 C47.088 39.199 40.246 35.297 33.375 31.438 C25.434 26.971 17.539 22.434 9.688 17.812 C8.744 17.259 7.8 16.706 6.828 16.136 C5.96 15.624 5.093 15.111 4.199 14.582 C3.434 14.131 2.67 13.679 1.882 13.214 C0 12 0 12 -2 10 C-1.679 6.468 -1.122 3.366 0 0 Z " fill="#000000" transform="translate(350,685)"/>
<path d="M0 0 C0.33 1.32 0.66 2.64 1 4 C-0.873 4.509 -2.748 5.007 -4.625 5.5 C-5.669 5.778 -6.713 6.057 -7.789 6.344 C-10.957 6.991 -13.777 7.116 -17 7 C-17.33 6.01 -17.66 5.02 -18 4 C-11.873 1.57 -6.663 0 0 0 Z " fill="#000000" transform="translate(529,685)"/>
<path d="M0 0 C0 1.32 0 2.64 0 4 C-12.485 7.444 -12.485 7.444 -19 7 C-18.67 5.68 -18.34 4.36 -18 3 C-15.939 2.493 -13.876 1.995 -11.812 1.5 C-10.664 1.222 -9.515 0.943 -8.332 0.656 C-5.432 0.085 -2.939 -0.133 0 0 Z " fill="#000000" transform="translate(578,686)"/>
<path d="M0 0 C-0.33 1.32 -0.66 2.64 -1 4 C-6.38 5.191 -11.453 6.292 -17 6 C-17.33 5.01 -17.66 4.02 -18 3 C-11.821 0.352 -6.648 -0.113 0 0 Z " fill="#000000" transform="translate(461,687)"/>
<path d="M0 0 C0.33 1.32 0.66 2.64 1 4 C-4.279 6.084 -9.395 6.579 -15 7 C-15.33 5.68 -15.66 4.36 -16 3 C-14.273 2.492 -12.543 1.994 -10.812 1.5 C-9.85 1.222 -8.887 0.943 -7.895 0.656 C-5.147 0.033 -2.804 -0.123 0 0 Z " fill="#000000" transform="translate(507,689)"/>
<path d="M0 0 C0 0.66 0 1.32 0 2 C-5.94 2.33 -11.88 2.66 -18 3 C-18 2.34 -18 1.68 -18 1 C-11.974 -0.071 -6.111 -0.099 0 0 Z " fill="#000000" transform="translate(201,690)"/>
<path d="M0 0 C0 0.66 0 1.32 0 2 C-5.279 4.084 -10.395 4.579 -16 5 C-16.33 3.68 -16.66 2.36 -17 1 C-14.921 0.441 -12.837 -0.096 -10.75 -0.625 C-9.59 -0.927 -8.43 -1.228 -7.234 -1.539 C-3.884 -2.017 -2.732 -1.88 0 0 Z " fill="#000000" transform="translate(555,692)"/>
<path d="M0 0 C0 0.99 0 1.98 0 3 C-4.522 4.711 -8.556 5.352 -13.375 5.625 C-15.243 5.737 -15.243 5.737 -17.148 5.852 C-18.56 5.925 -18.56 5.925 -20 6 C-20 4.68 -20 3.36 -20 2 C-17.795 1.465 -15.586 0.948 -13.375 0.438 C-12.145 0.147 -10.915 -0.143 -9.648 -0.441 C-6.061 -0.991 -3.509 -0.815 0 0 Z " fill="#000000" transform="translate(487,694)"/>
<path d="M0 0 C-0.33 1.65 -0.66 3.3 -1 5 C-12.522 7.296 -12.522 7.296 -18 7 C-18.33 6.01 -18.66 5.02 -19 4 C-12.616 1.744 -6.839 0 0 0 Z " fill="#000000" transform="translate(535,695)"/>
<path d="M0 0 C1.107 0.888 2.193 1.803 3.25 2.75 C5.813 5.243 5.813 5.243 9.062 5.438 C12.491 6.094 13.885 7.338 15.957 10.121 C18.34 14.414 19.38 18.909 18.5 23.75 C12.942 32.087 3.52 34.526 -5.75 36.75 C-25.364 40.609 -50.095 36.26 -67 25 C-71.045 21.179 -73.772 17.922 -74.438 12.312 C-74.323 8.069 -73.157 5.759 -70.219 2.73 C-49.934 -13.09 -21.52 -13.053 0 0 Z M-64 4 C-60.988 7.437 -58.469 8.833 -54.125 10.188 C-52.613 10.673 -52.613 10.673 -51.07 11.168 C-43.355 13.259 -35.818 13.218 -27.875 13.25 C-25.992 13.281 -25.992 13.281 -24.07 13.312 C-14.034 13.354 -5.274 11.855 4 8 C-3.718 -0.737 -18.595 -4.145 -29.766 -5.281 C-42.213 -5.718 -53.276 -2.069 -64 4 Z " fill="#000000" transform="translate(312,708)"/>
<path d="M0 0 C0 1.32 0 2.64 0 4 C-5.571 5.592 -10.211 6.207 -16 6 C-16.33 5.01 -16.66 4.02 -17 3 C-15.106 2.493 -13.21 1.994 -11.312 1.5 C-9.729 1.082 -9.729 1.082 -8.113 0.656 C-5.289 0.061 -2.872 -0.128 0 0 Z " fill="#000000" transform="translate(512,700)"/>
<path d="M0 0 C0.33 1.32 0.66 2.64 1 4 C-7.341 6.139 -15.397 7.55 -24 8 C-24.33 6.68 -24.66 5.36 -25 4 C-21.961 3.323 -18.918 2.66 -15.875 2 C-15.019 1.809 -14.163 1.618 -13.281 1.422 C-8.773 0.451 -4.644 -0.244 0 0 Z " fill="#000000" transform="translate(490,704)"/>
<path d="M0 0 C0.33 0.66 0.66 1.32 1 2 C-2.068 2.897 -4.793 3.117 -7.984 3.098 C-8.919 3.094 -9.854 3.091 -10.816 3.088 C-11.784 3.08 -12.753 3.071 -13.75 3.062 C-14.734 3.058 -15.717 3.053 -16.73 3.049 C-19.154 3.037 -21.577 3.021 -24 3 C-24 2.67 -24 2.34 -24 2 C-21.313 1.661 -18.626 1.329 -15.938 1 C-14.809 0.857 -14.809 0.857 -13.658 0.711 C-9.066 0.154 -4.626 -0.098 0 0 Z " fill="#000000" transform="translate(420,745)"/>
<path d="M0 0 C-2 2 -2 2 -4.602 2.195 C-5.599 2.172 -6.597 2.149 -7.625 2.125 C-9.129 2.098 -9.129 2.098 -10.664 2.07 C-11.435 2.047 -12.206 2.024 -13 2 C-13 1.67 -13 1.34 -13 1 C-8.591 -0.102 -4.516 -0.077 0 0 Z " fill="#000000" transform="translate(408,755)"/>
</svg>
