<?xml version="1.0" encoding="UTF-8" standalone="no"?>
<!-- Generator: visioncortex VTracer 0.6.0 -->

<svg
   version="1.1"
   width="847"
   height="740"
   id="svg29"
   sodipodi:docname="question.svg"
   inkscape:version="1.3 (0e150ed, 2023-07-21)"
   xmlns:inkscape="http://www.inkscape.org/namespaces/inkscape"
   xmlns:sodipodi="http://sodipodi.sourceforge.net/DTD/sodipodi-0.dtd"
   xmlns="http://www.w3.org/2000/svg"
   xmlns:svg="http://www.w3.org/2000/svg">
  <defs
     id="defs29" />
  <sodipodi:namedview
     id="namedview29"
     pagecolor="#ffffff"
     bordercolor="#000000"
     borderopacity="0.25"
     inkscape:showpageshadow="2"
     inkscape:pageopacity="0.0"
     inkscape:pagecheckerboard="0"
     inkscape:deskcolor="#d1d1d1"
     showguides="false"
     inkscape:zoom="0.27863046"
     inkscape:cx="421.70551"
     inkscape:cy="423.5"
     inkscape:window-width="2056"
     inkscape:window-height="1257"
     inkscape:window-x="0"
     inkscape:window-y="44"
     inkscape:window-maximized="1"
     inkscape:current-layer="svg29" />
  <path
     d="m 474,86 c 2.438,-0.438 2.438,-0.438 5,0 2.145,2.181 2.952,3.46 3.223,6.531 -0.053,0.98 -0.106,1.96 -0.161,2.969 -0.2,7.025 0.512,13.817 1.403,20.783 0.097,0.827 0.193,1.654 0.293,2.506 0.094,0.74 0.188,1.479 0.285,2.241 C 484,123 484,123 482,126 c -2.438,0.438 -2.438,0.438 -5,0 -3.604,-3.427 -3.758,-7.607 -4.188,-12.312 -0.078,-0.791 -0.157,-1.582 -0.239,-2.397 C 470.693,90.96 470.693,90.96 474,86 Z"
     fill="#000000"
     id="path1" />
  <path
     d="m 522,93 c 2,2 2,2 2.438,4.375 C 524,100 524,100 521.812,102 c -0.928,0.66 -1.856,1.32 -2.812,2 -4.58,3.875 -6.969,8.311 -9.668,13.574 C 508,120 508,120 506,122 c -2.625,-0.375 -2.625,-0.375 -5,-1 -1.923,-5.379 0.728,-10.074 3,-15 4.002,-6.658 9.436,-14.362 18,-13 z"
     fill="#000000"
     id="path2" />
  <path
     d="m 439.25,93.875 c 7.198,2.16 11.032,8.143 15,14.23 0.952,2.406 0.696,3.516 -0.25,5.895 -0.66,0.66 -1.32,1.32 -2,2 -3.217,-0.141 -4.585,-0.558 -6.809,-2.926 -0.537,-0.787 -1.075,-1.575 -1.629,-2.387 -2.111,-2.924 -3.803,-5.126 -6.937,-6.937 C 434,102 434,102 432.938,99.437 433,97 433,97 434,95.125 436,94 436,94 439.25,93.875 Z"
     fill="#000000"
     id="path3" />
  <path
     d="m 144.91333,110.24731 c 6.692,2.414 11.19,10.359 14.899,16.065 0.513,0.782 1.026,1.564 1.554,2.37 29.707,45.89 29.707,45.89 27.634,67.318 -0.66,0.99 -1.32,1.98 -2,3 -4.414,0.81 -7.289,0.141 -11,-2.188 -11.173,-8.079 -24.318,-18.289 -32,-29.812 0.54,-4.541 0.54,-4.541 2,-6 4.461,0.097 6.487,0.54 9.851,3.554 0.939,1.095 1.863,2.202 2.774,3.321 4.208,4.869 8.551,9.255 13.5,13.375 0.556,0.465 1.112,0.93 1.686,1.409 1.999,1.646 3.865,3.179 6.189,4.341 -0.578,-1.96 -1.163,-3.918 -1.75,-5.875 -0.488,-1.636 -0.488,-1.636 -0.985,-3.305 -2.791,-8.692 -6.532,-16.547 -11.203,-24.383 -0.563,-0.95 -1.127,-1.9 -1.707,-2.879 -5.054,-8.36 -10.767,-16.046 -16.851,-23.672 -0.496,-0.623 -0.993,-1.245 -1.504,-1.886 -0.565,-0.703 -1.13,-1.406 -1.712,-2.13 -0.55,-0.704 -1.1,-1.407 -1.667,-2.132 -0.502,-0.634 -1.005,-1.268 -1.522,-1.921 -1.099,-1.817 -1.099,-1.817 -1.099,-5.255 1.156,-2.963 1.705,-3.73 4.913,-3.315 z"
     fill="#000000"
     id="path4" />
  <path
     d="m 192,130 c 3.257,0.418 4.634,0.634 7,3 0.585,2.25 1.071,4.525 1.508,6.809 0.195,1.022 0.195,1.022 0.395,2.064 0.274,1.448 0.545,2.896 0.811,4.346 0.404,2.181 0.827,4.359 1.251,6.537 3.073,16.174 3.073,16.174 2.035,23.244 -0.66,0.66 -1.32,1.32 -2,2 -2.125,-0.375 -2.125,-0.375 -4,-1 -9.652,-37.697 -9.652,-37.697 -8,-46 0.33,-0.33 0.66,-0.66 1,-1 z"
     fill="#000000"
     id="path5" />
  <path
     d="m 439.07031,152.64453 c 3.475,2.704 6.455,4.367 10.836,4.695 3.522,-0.571 5.926,-2.692 8.754,-4.765 6.66,-4.482 13.631,-5.092 21.453,-4.141 7.94,1.558 14.657,5.349 19.887,11.566 1.741,3.019 3.379,6.066 4.996,9.151 1.929,3.499 3.228,5.623 7.129,6.787 0.655,0.147 1.309,0.294 1.984,0.445 4.639,1.515 7.22,6.305 9.328,10.43 1.044,5.917 0.633,11.161 -2.187,16.5 -2.297,2.743 -4.583,5.301 -7.25,7.687 -0.66,0 -1.32,0 -2,0 0.216,0.641 0.433,1.282 0.656,1.942 2.383,7.403 3.558,13.679 0.516,21.07 -3.604,6.114 -9.615,9.762 -16.172,11.988 -4.235,1.069 -8.266,1.134 -12.625,1.125 -1.313,0.003 -2.625,0.006 -3.977,0.008 -3.398,-0.133 -3.398,-0.133 -6.398,-1.133 0.325,0.844 0.325,0.844 0.656,1.704 3.819,11.529 3.529,24.487 0.844,36.234 -1.905,11.401 3.343,23.601 6.734,34.411 0.766,2.651 0.766,2.651 0.766,4.651 0.99,-0.33 1.98,-0.66 3,-1 11.474,-0.91 19.913,0.348 28.875,7.75 6.454,6.158 8.187,11.597 9.125,20.25 0.487,-0.307 0.975,-0.614 1.477,-0.93 29.126,-18.266 29.126,-18.266 42.523,-17.07 3.903,1.008 7.106,1.838 9.621,5.11 4.272,3.395 9.714,2.038 14.937,1.734 5.747,-0.205 8.883,0.251 13.442,4.156 3.24,3.421 4.736,6.474 6,11 0.64,0.026 1.281,0.052 1.941,0.079 5.713,0.374 10.797,0.801 15.059,4.921 12.573,18.293 8.352,46.203 7.2,67.231 -0.138,2.531 -0.271,5.062 -0.401,7.594 -0.044,0.825 -0.088,1.651 -0.133,2.501 -0.087,1.642 -0.172,3.283 -0.254,4.925 -0.18,3.393 -0.409,6.724 -0.845,10.096 -1.367,10.662 1.245,20.591 3.495,30.966 0.633,3.003 1.26,6.007 1.886,9.012 0.419,2.007 0.84,4.014 1.264,6.021 1.289,6.142 2.489,12.292 3.585,18.471 0.132,0.742 0.265,1.483 0.401,2.247 0.607,3.407 1.199,6.815 1.773,10.227 1.637,9.2 3.749,14.952 10.716,21.459 18.933,18.402 21.872,35.851 22.959,61.288 0.951,23.609 0.951,23.609 4.354,46.962 0.241,1.233 0.482,2.465 0.73,3.735 2.169,9.327 5.898,17.957 9.741,26.704 6.559,15.087 8.465,32.087 2.74,47.843 -1.691,3.796 -3.417,7.6 -6.211,10.718 -2.996,0.999 -4.173,1.008 -7.188,0.563 -1.258,-0.186 -2.516,-0.371 -3.812,-0.563 0.554,-1.122 1.108,-2.245 1.679,-3.402 0.733,-1.511 1.464,-3.023 2.196,-4.535 0.364,-0.735 0.729,-1.471 1.105,-2.229 6.771,-14.095 5.9,-27.257 1.02,-41.834 -1.552,-4.028 -3.277,-7.979 -4.997,-11.938 -6.334,-14.638 -9.441,-29.346 -12.003,-45.062 -0.547,19.572 1.989,35.757 9,54 0.84,2.228 1.677,4.457 2.512,6.686 0.52,1.381 1.043,2.761 1.571,4.139 3.218,8.442 5.066,18.01 1.417,26.675 -0.818,1.509 -1.654,3.008 -2.5,4.5 -0.513,1.136 -1.026,2.272 -1.555,3.442 -0.603,1.209 -1.21,2.416 -1.82,3.621 -0.544,1.125 -1.088,2.251 -1.649,3.41 -3.595,3.053 -4.67,2.82 -9.263,2.724 -1.887,-0.034 -1.887,-0.034 -3.811,-0.07 -6.099,-0.198 -12.191,-0.441 -18.285,-0.748 -1.348,-0.065 -2.696,-0.13 -4.044,-0.194 -3.523,-0.17 -7.047,-0.343 -10.571,-0.517 -5.565,-0.275 -11.131,-0.546 -16.697,-0.814 -1.373,-0.066 -2.747,-0.133 -4.121,-0.2 -11.063,-0.536 -22.126,-0.967 -33.198,-1.29 -5.728,-0.181 -11.315,-0.535 -16.986,-1.364 -6.966,-26.122 1.705,-54.139 7.743,-79.608 1.288,-5.444 2.383,-10.423 2.389,-16.032 0.002,-1.607 0.002,-1.607 0.004,-3.246 -0.003,-1.11 -0.007,-2.22 -0.011,-3.364 0.004,-1.094 0.007,-2.188 0.011,-3.316 -0.006,-5.467 -0.213,-10.777 -0.896,-16.198 -1.954,-18.184 -0.261,-37.798 4.955,-55.329 1.664,-8.076 -0.55,-16.497 -2.086,-24.496 -0.186,-0.984 -0.373,-1.968 -0.565,-2.982 -0.395,-2.074 -0.791,-4.147 -1.19,-6.22 -0.596,-3.105 -1.181,-6.212 -1.764,-9.32 -4.23,-23.076 -4.23,-23.076 -11.891,-45.174 -0.699,-1.715 -0.699,-1.715 -0.699,-3.715 -1.021,-0.309 -1.021,-0.309 -2.063,-0.625 -10.594,-4.959 -17.3,-16.445 -24.066,-25.597 -0.521,-0.703 -1.043,-1.406 -1.58,-2.13 -0.995,-1.346 -1.985,-2.697 -2.968,-4.053 -4.601,-6.246 -9.654,-11.865 -16.261,-16.032 -1.158,-0.741 -1.158,-0.741 -2.34,-1.496 -0.568,-0.352 -1.137,-0.704 -1.722,-1.067 0.034,1.162 0.069,2.323 0.105,3.52 -0.024,22.353 -13.094,43.982 -27.614,60.01 -1.522,1.5 -3.118,2.668 -4.855,3.908 -2.958,2.351 -2.958,2.351 -3.109,5.934 0.104,1.358 0.243,2.714 0.41,4.066 0.066,0.751 0.133,1.503 0.201,2.277 0.254,2.766 0.559,5.524 0.862,8.285 0.322,3.193 0.64,6.385 0.956,9.578 0.33,3.323 0.67,6.643 1.026,9.963 0.655,6.19 1.198,12.234 1.018,18.459 0.948,0.087 1.897,0.173 2.875,0.262 28.86,2.88 56.032,9.565 79.125,27.738 0.821,0.587 1.642,1.174 2.488,1.778 2.137,1.627 3.889,3.083 5.512,5.222 0.11,3.248 -0.145,4.977 -1,8 -3.099,13.91 -2.583,28.355 -1.235,42.469 1.511,16.313 -3.29,32.257 -7.252,47.939 -3.121,12.51 -4.851,24.375 -4.763,37.28 -0.008,1.145 -0.016,2.291 -0.024,3.471 0.016,6.866 0.675,13.169 2.274,19.841 -10.978,0.053 -21.922,-0.048 -32.894,-0.42 -30.337,-0.986 -60.706,-0.73 -91.054,-0.708 -6.559,0.004 -13.118,10e-4 -19.677,-0.004 -7.268,-0.005 -14.536,-0.004 -21.803,-0.002 -3.179,0.002 -6.359,10e-4 -9.538,-0.001 -15.679,-0.008 -31.345,0.049 -47.018,0.548 -2.03,0.064 -4.061,0.124 -6.091,0.182 -6.184,0.179 -12.362,0.39 -18.541,0.671 -18.937,0.687 -18.937,0.687 -26.838,-5.732 -0.51,-0.506 -1.021,-1.012 -1.546,-1.534 -0.33,2.31 -0.66,4.62 -1,7 -8.686,1.044 -17.39,1.364 -26.125,1.684 -1.577,0.06 -3.154,0.121 -4.731,0.181 -3.329,0.128 -6.659,0.254 -9.989,0.379 -8.609,0.323 -17.218,0.656 -25.827,0.991 -1.268,0.049 -1.268,0.049 -2.562,0.099 -15.666,0.608 -31.327,1.306 -46.985,2.108 -0.765,0.038 -1.531,0.077 -2.319,0.117 -1.968,0.099 -3.937,0.202 -5.905,0.305 -3.859,0.148 -7.696,0.159 -11.557,0.136 1.374,-3.774 3.11,-6.911 5.343,-10.246 0.665,-0.995 1.329,-1.99 2.013,-3.015 0.708,-1.048 1.415,-2.096 2.144,-3.176 0.725,-1.08 1.451,-2.16 2.198,-3.273 5.299,-7.865 10.667,-15.661 16.302,-23.29 0.447,-0.606 0.894,-1.213 1.355,-1.837 10.468,-14.153 21.285,-28.042 32.317,-41.758 2.852,-3.549 5.672,-7.12 8.465,-10.716 23.991,-30.829 52.045,-61.637 89.781,-75.087 4.082,-1.515 7.668,-3.558 11.394,-5.789 14.721,-8.503 30.438,-14.008 46.688,-18.813 -2.868,-17.78 -6.655,-35.255 -13.336,-52.039 -0.664,-1.961 -0.664,-1.961 -0.664,-4.961 -1.108,-0.4 -1.108,-0.4 -2.239,-0.808 -10.899,-4.702 -21.244,-15.469 -27.761,-25.192 -0.562,0.145 -1.124,0.289 -1.703,0.438 -16.403,3.623 -32.37,2.908 -47.047,-5.563 -10.527,-7.128 -16.909,-17.939 -19.625,-30.25 -1.472,-9.919 -0.487,-19.756 4.375,-28.625 0.804,-0.845 1.608,-1.691 2.437,-2.562 2.009,-2.518 2.009,-2.518 0.813,-6.313 -0.702,-1.728 -1.46,-3.434 -2.25,-5.125 -0.508,-1.095 -1.016,-2.191 -1.539,-3.32 -6.539,-13.387 -15.936,-24.727 -25.711,-35.867 -15.4,-17.64 -22.117,-35.386 -20.75,-58.813 2.179,-15.033 10.309,-30.592 22.504,-39.914 9.655,-6.455 18.899,-9.637 30.496,-10.086 -0.606,-3.898 -1.648,-6.81 -4,-10 -5.079,-2.659 -10.422,-3.805 -16,-5 -0.807,-0.182 -1.614,-0.365 -2.446,-0.553 -10.127,-2.276 -20.233,-3.936 -30.562,-4.954 -2.992,-0.493 -2.992,-0.493 -4.992,-2.493 0.555,-4.555 0.555,-4.555 2,-6 9.792,-0.197 19.308,1.46 28.875,3.375 1.044,0.209 2.089,0.418 3.166,0.634 6.434,1.339 12.7,2.987 18.959,4.991 -0.254,-1.251 -0.254,-1.251 -0.512,-2.527 -2.322,-16.517 2.939,-33.942 12.582,-47.351 10.647,-13.337 22.649,-23.47 37.93,-31.122 0.849,-0.43 1.699,-0.861 2.574,-1.304 43.17,-20.779 97.734,-17.047 135.496,12.949 z m -115.07,-12.645 c -0.732,0.209 -1.464,0.418 -2.218,0.634 -22.649,6.685 -44.112,20.26 -55.667,41.39 -8.459,16.309 -9.161,33.431 -4.115,50.976 4.752,12.283 12.048,21.153 24,27 0.99,-0.495 0.99,-0.495 2,-1 -0.508,-0.461 -1.016,-0.922 -1.539,-1.398 -11.187,-10.6 -17.088,-24.198 -17.664,-39.668 -0.33,-18.705 3.81,-33.952 16.954,-47.827 12.418,-12.536 29.338,-19.844 46.249,-24.107 1.266,-0.319 2.531,-0.639 3.836,-0.968 27.305,-6.115 56.075,-2.307 80.164,11.968 4.24,2.754 8.395,5.628 12.515,8.557 0.77,0.545 1.539,1.089 2.332,1.65 0.681,0.49 1.362,0.98 2.063,1.484 6.658,4.172 13.442,4.02 21.09,3.309 4.26,-1.301 7.425,-3.581 11,-6.187 3.717,-2.246 6.669,-3.014 11,-2.813 5.585,1.61 8.823,4.23 12,9 0.352,0.658 0.704,1.315 1.066,1.993 3.389,6.257 7.491,8.295 13.934,11.007 1.213,0.594 2.423,1.196 3.625,1.813 0.783,0.392 1.567,0.784 2.375,1.187 0.489,5.382 0.489,5.382 -1.664,8.106 -2.676,2.17 -4.615,2.74 -7.961,3.457 -4.532,0.851 -4.532,0.851 -7.375,4.437 0.387,5.982 3.16,10.717 5.82,15.977 1.18,3.023 1.18,3.023 0.945,5.316 -0.942,2.102 -1.976,3.262 -3.765,4.707 -3.582,1.195 -6.374,1.063 -10.153,0.993 -1.43,-0.018 -2.86,-0.035 -4.291,-0.051 -2.249,-0.031 -4.498,-0.067 -6.747,-0.113 -2.175,-0.042 -4.349,-0.066 -6.524,-0.086 -1.301,-0.022 -2.601,-0.044 -3.941,-0.067 -3.516,0.341 -4.902,0.827 -7.344,3.324 -0.472,1.945 -0.472,1.945 -0.375,4 -0.164,2.129 -0.164,2.129 -0.625,4 -7.647,5.388 -18.273,4.835 -27.164,3.54 -10.339,-2.271 -18.196,-6.559 -24.379,-15.262 -3.378,-5.279 -5.549,-10.428 -7.457,-16.403 -2.247,-6.94 -4.751,-11.708 -11,-15.875 -8.844,-3.462 -17.876,-2.964 -26.684,0.344 -6.416,4.587 -9.353,11.39 -11.754,18.656 -0.59,1.68 -1.184,3.358 -1.781,5.036 -0.295,0.833 -0.59,1.665 -0.895,2.524 -4.878,13.428 -10.759,29.202 -23.886,36.44 -3.5,1.375 -3.5,1.375 -6,2 0,0.66 0,1.32 0,2 9.443,-1.267 15.381,-5.622 21.427,-12.807 3.155,-4.398 5.261,-9.352 7.51,-14.255 1.055,-2.237 2.109,-4.474 3.164,-6.711 1.346,-2.882 2.687,-5.766 4.015,-8.657 3.319,-7.216 6.124,-13.02 12.884,-17.57 3.3,-1.099 5.84,-1.167 9.312,-1.187 1.11,-0.014 2.22,-0.028 3.363,-0.043 3.532,0.245 6.129,0.695 9.325,2.23 1.207,2.082 1.207,2.082 2,5 0.416,1.36 0.837,2.718 1.261,4.075 0.228,0.745 0.456,1.49 0.691,2.258 4.215,13.503 9.986,23.201 22.751,30.136 12.23,5.876 26.207,8.124 39.297,3.531 5.195,-2.228 8.273,-4.982 11,-10 0,-0.66 0,-1.32 0,-2 0.634,0.011 1.267,0.021 1.921,0.032 21.442,1.446 21.442,1.446 40.079,-7.032 2.25,-2.836 2.523,-5.963 2.468,-9.562 -1.003,-5.218 -3.895,-9.842 -6.468,-14.438 0.887,-0.454 0.887,-0.454 1.793,-0.917 7.866,-4.155 7.866,-4.155 13.207,-11.083 0.46,-5.525 0.46,-5.525 -1.313,-10.625 -2.65,-2.341 -4.984,-3.608 -8.125,-5.187 -5.519,-2.855 -7.862,-5.709 -10.562,-11.188 -3.287,-5.779 -7.539,-9.573 -13.93,-11.617 -9.873,-1.825 -17.617,0.563 -26.195,5.367 -4.954,2.154 -8.616,2.117 -13.563,0.219 -5.745,-2.75 -11.063,-6.041 -16.375,-9.531 -10.269,-6.744 -21.163,-11.037 -32.937,-14.438 -1.119,-0.323 -2.238,-0.647 -3.391,-0.98 -20.298,-4.762 -44.667,-3.843 -64.609,1.98 z m 80,72 c -0.495,1.98 -0.495,1.98 -1,4 3.214,1.04 5.297,0.911 8.562,0.125 5.455,-1.203 10.874,-1.723 16.438,-2.125 0,-1.32 0,-2.64 0,-4 -7.153,-3.576 -16.853,-0.063 -24,2 z m -41.102,3.551 c -5.459,7.043 -8.563,15.586 -11.929,23.76 -5.895,14.298 -11.438,24.236 -26.282,30.564 -4.754,1.877 -8.894,3.25 -14.023,3.258 -0.818,0.002 -1.635,0.003 -2.477,0.004 -0.845,-0.004 -1.691,-0.008 -2.562,-0.012 -0.838,0.004 -1.676,0.008 -2.539,0.012 -4.476,-0.007 -8.682,-0.233 -13.086,-1.137 -0.136,0.811 -0.271,1.622 -0.41,2.457 -2.762,14.207 -10.826,23.276 -20.099,33.826 -3.603,4.15 -7.037,8.443 -10.491,12.717 1.284,2.824 2.642,4.801 4.812,7 5.355,6.064 9.221,15.17 9.174,23.343 -0.056,0.807 -0.112,1.615 -0.17,2.447 -0.796,16.635 2.706,30.565 8.184,46.21 -0.941,-0.034 -1.882,-0.069 -2.852,-0.105 -1.245,-0.027 -2.49,-0.054 -3.773,-0.082 -1.23,-0.035 -2.46,-0.07 -3.727,-0.106 -5.018,0.403 -8.287,1.932 -11.836,5.481 -5.576,8.653 -6.044,17.525 -4.344,27.586 2.779,10.484 8.295,18.514 17.532,24.226 7.376,3.878 13.554,5.197 21.812,5.25 0.782,0.021 1.564,0.042 2.369,0.063 5.364,0.036 9.09,-0.721 13.819,-3.313 0.66,-0.99 1.32,-1.98 2,-3 1.707,0.125 1.707,0.125 4,1 1.696,1.97 3.191,3.89 4.687,6 16.707,22.489 41.363,35.287 68.781,39.665 25.059,3.325 51.801,1.197 72.532,-14.665 18.406,-14.772 31.611,-36.465 35,-60 0.404,-3.738 0.637,-7.28 0,-11 -2.776,-2.462 -2.776,-2.462 -6,-4 -2.201,-3.209 -2.1,-5.554 -1.438,-9.25 1.08,-4.334 3.012,-7.737 5.512,-11.414 2.178,-5.496 -0.701,-11.617 -2.699,-16.875 -0.266,-0.72 -0.532,-1.44 -0.806,-2.183 -1.12,-3.035 -2.255,-6.064 -3.391,-9.093 -9.3,-24.879 -16.505,-50.436 -23.677,-75.99 -0.963,-3.428 -1.931,-6.855 -2.898,-10.282 -1.872,-6.637 -3.739,-13.274 -5.603,-19.913 -0.59,0.141 -1.179,0.281 -1.786,0.426 -16.938,3.923 -34.128,2.695 -49.527,-5.613 -13.677,-8.596 -19.603,-19.808 -23.828,-35.098 -0.777,-2.893 -0.777,-2.893 -2.859,-5.715 -6.17,-2.483 -10.568,-1.01 -15.102,3.551 z m -139.055,49.957 c -9.842,12.891 -14.171,26.286 -12.843,42.492 0.995,4.844 2.251,8.877 5,13 0.66,0 1.32,0 2,0 -0.165,-1.299 -0.33,-2.598 -0.5,-3.937 -1.801,-17.11 1.444,-32.53 11.382,-46.758 5.22,-6.403 11.363,-9.72 19.118,-12.305 16.725,-1.134 16.725,-1.134 24,4 3.091,2.992 3.92,5.716 4,10 -1.989,8.097 -6.69,13.788 -12,20 -10.754,12.407 -10.754,12.407 -18,27 0.33,0.99 0.66,1.98 1,3 3.286,-3.2 6.275,-6.47 9.125,-10.062 2.893,-3.591 5.859,-7.037 9.027,-10.384 9.002,-9.516 17.444,-19.403 17.094,-33.159 -0.502,-4.879 -2.448,-7.577 -5.809,-11.02 -16.79,-12.623 -39.511,-7.082 -52.594,8.133 z m 262.157,64.492 c 0.582,5.088 1.695,9.527 3.437,14.375 0.432,1.225 0.864,2.45 1.309,3.711 0.928,3.02 0.928,3.02 3.254,3.914 1.422,-0.165 2.839,-0.38 4.25,-0.625 3.278,-0.385 4.969,-0.316 8.25,0.563 2.77,2.286 2.897,2.695 3.312,6.062 0.027,0.681 0.054,1.362 0.082,2.063 0.032,2.157 0.032,2.157 1.106,4.937 3.714,-6.039 5.8,-10.628 4.566,-17.753 -1.798,-7.13 -5.834,-10.947 -11.566,-15.247 -5.06,-2.929 -12.465,-3.845 -18,-2 z m 43.734,25.067 c -2.524,2.814 -3.636,5.317 -4.734,8.933 0.477,2.785 1.02,4.752 2.062,7.313 0.268,0.705 0.535,1.41 0.81,2.136 4.463,11.409 9.732,22.559 15.128,33.551 0.557,1.136 0.557,1.136 1.125,2.295 1.066,2.115 1.066,2.115 2.875,4.705 3.631,1.057 3.631,1.057 7,1 -0.493,-6.011 -1.554,-11.491 -3.313,-17.25 -1.993,-6.882 -3.664,-13.784 -5.062,-20.812 -0.18,-0.856 -0.359,-1.711 -0.545,-2.593 -1.283,-6.708 -1.942,-13.064 1.529,-19.18 2.936,-2.658 6.043,-4.24 9.641,-5.79 0.666,-0.298 1.331,-0.597 2.018,-0.904 4.514,-2.004 9.064,-3.851 13.732,-5.471 -1.864,-2.004 -2.863,-2.951 -5.5,-3.875 -13.232,-0.472 -26.522,8.299 -36.766,15.942 z m 32.578,-1.567 c -1.006,0.427 -1.006,0.427 -2.034,0.862 -3.787,1.695 -6.972,3.136 -9.278,6.638 -1.099,6.616 0.651,13.322 2.125,19.75 0.223,0.993 0.446,1.986 0.675,3.009 4.191,21.051 4.191,21.051 13.2,40.241 0.66,0.33 1.32,0.66 2,1 2.117,-0.891 2.117,-0.891 4,-2 -0.686,-7.05 -2.292,-13.758 -4,-20.625 -0.544,-2.2 -1.086,-4.4 -1.625,-6.601 -0.24,-0.965 -0.48,-1.93 -0.727,-2.924 -1.943,-8.538 -3.44,-18.125 -0.273,-26.475 6.894,-6.237 16.896,-7.488 25.75,-9.125 1.147,-0.22 2.294,-0.44 3.476,-0.667 2.798,-0.537 5.597,-1.064 8.399,-1.583 -1.721,-4.535 -1.721,-4.535 -5,-8 -12.074,-4.024 -25.562,1.74 -36.688,6.5 z m -65.312,3.5 c -0.81,2.915 -1.219,4.462 -0.063,7.313 0.351,0.557 0.701,1.114 1.063,1.687 2.064,-0.487 2.064,-0.487 4,-2 0.818,-3.562 0.818,-3.562 1,-7 -1.98,0 -3.96,0 -6,0 z m 90.687,7.25 c -1.315,0.307 -1.315,0.307 -2.656,0.62 -5.077,1.302 -8.915,2.858 -13.031,6.13 -3.689,7.378 0.953,20.31 2.812,27.938 0.403,1.693 0.403,1.693 0.814,3.42 2.731,13.919 2.731,13.919 8.374,26.642 2.5,0.417 2.5,0.417 5,0 2.389,-1.947 2.389,-1.947 2.215,-5.539 -0.12,-4.686 -0.837,-9.226 -1.653,-13.836 -0.135,-0.805 -0.269,-1.611 -0.408,-2.441 -0.667,-4.215 -0.667,-4.215 -2.154,-8.184 -0.66,0 -1.32,0 -2,0 -0.328,-3.523 -0.354,-5.444 1.574,-8.472 2.832,-2.951 5.831,-4.584 9.488,-6.278 0.625,-0.302 1.249,-0.605 1.893,-0.917 4.405,-2.116 7.842,-3.466 12.732,-3.395 1.213,0.014 1.213,0.014 2.449,0.027 0.615,0.012 1.23,0.024 1.864,0.035 0,0.99 0,1.98 0,3 -0.941,0.52 -1.882,1.039 -2.852,1.575 -1.258,0.704 -2.516,1.408 -3.773,2.113 -0.618,0.34 -1.235,0.679 -1.871,1.029 -1.866,1.051 -3.689,2.148 -5.504,3.283 -0.594,0.365 -1.188,0.729 -1.8,1.104 -1.94,1.275 -1.94,1.275 -4.2,3.896 -0.383,3.061 -0.417,5.034 0,8 0.1,0.726 0.201,1.452 0.304,2.2 0.358,2.276 0.767,4.537 1.196,6.8 1.088,5.747 1.892,11.139 1.5,17 -2.176,2.692 -3.911,4.456 -7,6 -8.688,0.421 -8.688,0.421 -12,-2 -0.66,-0.99 -1.32,-1.98 -2,-3 -2.734,-0.174 -2.734,-0.174 -5.813,0.125 -5.808,0.146 -5.808,0.146 -9.25,-2.312 -1.762,-2.557 -3.455,-5.083 -4.937,-7.813 -0.592,0.107 -1.184,0.214 -1.793,0.325 -6.431,0.975 -6.431,0.975 -9.957,-0.387 -2.812,-2.422 -4.971,-5.008 -7.25,-7.938 -0.99,0.495 -0.99,0.495 -2,1 -3.179,0.727 -5.825,0.774 -9,0 -3.713,-2.646 -6.864,-5.7 -10,-9 -4.662,1.499 -5.866,4.885 -8,9 2.061,1.751 4.124,3.501 6.187,5.25 0.578,0.492 1.156,0.983 1.752,1.489 0.571,0.483 1.141,0.967 1.729,1.465 0.567,0.482 1.134,0.964 1.719,1.46 1.378,1.142 2.806,2.225 4.242,3.293 2.897,2.497 4.974,5.351 7.121,8.481 0.429,0.611 0.859,1.222 1.302,1.852 2.147,3.063 4.25,6.153 6.315,9.273 4.84,7.268 9.581,13.618 17.32,17.937 6.945,4.505 8.875,12.37 11.063,19.875 0.596,1.988 1.195,3.975 1.797,5.961 0.384,1.308 0.384,1.308 0.776,2.642 0.5,1.995 0.5,1.995 1.677,3.022 18.214,3.564 39.717,-2.933 55,-13 0.66,-0.66 1.32,-1.32 2,-2 -0.21,-2.966 -0.21,-2.966 -0.875,-6.375 -1.745,-9.781 -1.223,-19.4 -0.413,-29.265 1.057,-13.031 1.528,-26.03 1.587,-39.103 0.009,-1.772 0.022,-3.543 0.041,-5.314 0.719,-19.795 0.719,-19.795 -7.34,-36.943 -8.17,-6.095 -25.259,-1.885 -34.313,0.25 z m -78.687,0.75 c 1,2 1,2 1,2 z m -1,2 c 0,3 0,3 0,3 z m 10,0 c -6.041,6.634 -10.485,14.453 -14.946,22.183 -0.969,1.671 -1.964,3.327 -2.961,4.982 -3.019,5.17 -5.012,8.801 -4.093,14.835 1.045,1.255 1.045,1.255 3.363,1.254 3.202,-0.308 3.809,-0.876 5.824,-3.316 3.767,-4.61 7.024,-9.578 10.261,-14.569 1.852,-2.855 3.681,-5.525 5.856,-8.154 1.985,-2.114 1.985,-2.114 1.633,-4.965 -1.191,-4.128 -2.506,-8.199 -3.937,-12.25 -0.33,0 -0.66,0 -1,0 z m -17,7 c 0.33,1.32 0.66,2.64 1,4 2.798,-2.527 4.457,-4.204 5,-8 -2.221,0 -4.359,2.654 -6,4 z m 25,15 c -1.054,1.308 -2.069,2.647 -3.063,4 -0.548,0.743 -1.096,1.485 -1.66,2.25 -0.632,0.867 -0.632,0.867 -1.277,1.75 4.936,6.092 4.936,6.092 11,11 0.99,-0.33 1.98,-0.66 3,-1 -0.557,-4.688 -1.882,-8.199 -4.063,-12.375 -0.548,-1.059 -1.096,-2.119 -1.66,-3.21 -0.421,-0.797 -0.843,-1.594 -1.277,-2.415 -0.33,0 -0.66,0 -1,0 z m 102,106 c -1.347,1.125 -1.347,1.125 -1.181,4.052 0.196,4.283 0.983,7.998 2.079,12.12 0.195,0.763 0.39,1.526 0.591,2.313 0.621,2.424 1.252,4.845 1.886,7.265 0.825,3.181 1.645,6.364 2.461,9.547 0.194,0.76 0.389,1.519 0.59,2.301 1.457,5.758 2.659,11.531 3.574,17.402 1.32,0 2.64,0 4,0 0.186,-6.041 -0.449,-11.468 -1.688,-17.375 -0.176,-0.863 -0.353,-1.726 -0.534,-2.616 -1.556,-7.394 -3.512,-14.645 -5.63,-21.895 -1.25,-4.328 -2.218,-8.707 -3.148,-13.114 -0.99,0 -1.98,0 -3,0 z m -13,3 c -0.99,0.495 -0.99,0.495 -2,1 0.543,7.593 2.428,14.333 4.75,21.563 0.729,2.303 1.458,4.607 2.187,6.91 0.355,1.113 0.709,2.225 1.074,3.372 0.868,2.77 1.693,5.547 2.489,8.339 0.215,0.742 0.431,1.485 0.653,2.25 0.556,1.926 1.1,3.855 1.644,5.785 0.95,2.896 0.95,2.896 3.343,4.188 0.614,0.196 1.228,0.392 1.86,0.593 1.481,-4.684 0.307,-8.235 -1.203,-12.722 -0.239,-0.742 -0.477,-1.483 -0.723,-2.247 -0.764,-2.368 -1.543,-4.731 -2.324,-7.093 -1.011,-3.093 -2.015,-6.189 -3.016,-9.285 -0.244,-0.746 -0.487,-1.492 -0.738,-2.261 -1.724,-5.341 -3.114,-10.702 -4.249,-16.202 -0.621,-2.544 -0.621,-2.544 -3.747,-4.19 z m -159.697,2.287 c -28.018,14 -61.529,12.275 -90.737,2.799 -3.201,-0.974 -6.258,-1.625 -9.566,-2.086 0.375,1.056 0.75,2.112 1.136,3.2 8.844,25.37 13.829,50.937 12.578,77.893 -0.347,6.685 -0.347,6.685 2.528,12.47 19.002,16.795 42.146,22.487 67.048,21.625 6.793,-0.471 13.224,-2.196 19.71,-4.188 0.941,-0.288 1.882,-0.577 2.851,-0.875 14.389,-5.115 26.393,-15.487 33.149,-29.125 1.202,-2.958 2.173,-5.916 3,-9 0.34,-1.268 0.34,-1.268 0.687,-2.562 0.443,-3.452 0.313,-6.957 0.313,-10.438 -7.26,-1.32 -14.52,-2.64 -22,-4 -0.888,3.549 -1.04,5.258 -0.66,8.747 0.093,0.914 0.187,1.828 0.283,2.771 0.156,1.445 0.156,1.445 0.314,2.92 0.826,8.236 1.344,16.28 1.063,24.562 -1.98,0.99 -3.96,1.98 -6,3 -0.054,-1.009 -0.108,-2.018 -0.163,-3.057 -0.601,-10.936 -1.46,-21.835 -2.431,-32.743 -0.153,-1.738 -0.306,-3.475 -0.459,-5.212 -0.318,-3.601 -0.638,-7.202 -0.959,-10.803 -0.41,-4.611 -0.816,-9.224 -1.22,-13.836 -0.313,-3.57 -0.63,-7.139 -0.947,-10.709 -0.151,-1.702 -0.301,-3.404 -0.45,-5.106 -0.207,-2.366 -0.419,-4.732 -0.631,-7.097 -0.091,-1.047 -0.091,-1.047 -0.183,-2.114 -0.29,-3.191 -0.648,-6.244 -1.557,-9.323 -2.626,0 -4.392,1.129 -6.697,2.287 z m 142.697,1.713 c 0.51,6.58 2.279,11.932 4.812,18 0.344,0.851 0.687,1.702 1.041,2.579 3.155,9.448 3.155,9.448 9.147,16.421 0.99,-0.495 0.99,-0.495 2,-1 -0.594,-4.464 -1.742,-8.233 -3.469,-12.386 -0.489,-1.186 -0.977,-2.371 -1.481,-3.592 -0.516,-1.236 -1.033,-2.473 -1.55,-3.709 -1.013,-2.441 -2.022,-4.883 -3.032,-7.324 -0.449,-1.078 -0.898,-2.155 -1.361,-3.265 -0.766,-1.883 -1.464,-3.795 -2.107,-5.724 -1.32,0 -2.64,0 -4,0 z m -23,1 c 0.398,10.514 2.279,20.569 4.383,30.851 0.559,2.736 1.103,5.475 1.646,8.214 0.353,1.751 0.706,3.501 1.061,5.252 0.161,0.813 0.323,1.627 0.489,2.465 0.759,3.673 1.455,6.966 3.421,10.218 1.485,-0.495 1.485,-0.495 3,-1 -0.538,-7.436 -1.558,-14.619 -3.067,-21.917 -0.198,-0.984 -0.396,-1.967 -0.601,-2.98 -0.626,-3.098 -1.26,-6.194 -1.895,-9.29 -0.429,-2.118 -0.858,-4.236 -1.287,-6.354 -1.044,-5.154 -2.094,-10.307 -3.15,-15.459 -1.32,0 -2.64,0 -4,0 z m 11,0 c 0.408,8.686 2.618,16.693 5,25 1.32,-0.33 2.64,-0.66 4,-1 -0.605,-5.655 -1.622,-11.002 -3.063,-16.5 -0.279,-1.09 -0.279,-1.09 -0.564,-2.203 -0.454,-1.766 -0.913,-3.532 -1.373,-5.297 -1.32,0 -2.64,0 -4,0 z m 9,35 c -1.103,3.31 -0.9,4.195 -0.004,7.45 0.229,0.847 0.457,1.695 0.693,2.568 0.247,0.881 0.494,1.762 0.748,2.67 0.243,0.893 0.486,1.785 0.737,2.705 0.601,2.205 1.21,4.407 1.826,6.607 1.32,0.33 2.64,0.66 4,1 1.035,-3.184 0.94,-5.13 0.004,-8.328 -0.229,-0.799 -0.458,-1.598 -0.694,-2.422 -0.247,-0.825 -0.493,-1.65 -0.748,-2.5 -0.243,-0.84 -0.486,-1.68 -0.736,-2.546 -0.6,-2.071 -1.212,-4.137 -1.826,-6.204 -1.32,-0.33 -2.64,-0.66 -4,-1 z m 21,15 c 0.33,1.65 0.66,3.3 1,5 0.99,0 1.98,0 3,0 0,-1.65 0,-3.3 0,-5 -1.32,0 -2.64,0 -4,0 z m -92,14 c -1.813,1.813 -1.175,4.808 -1.25,7.25 -0.997,14.659 -7.984,26.925 -18.602,36.942 -22.542,18.976 -48.947,26.431 -78.148,25.808 -0.375,-0.999 -0.751,-1.998 -1.137,-3.027 -0.516,-1.304 -1.033,-2.607 -1.551,-3.91 -0.366,-0.989 -0.366,-0.989 -0.74,-1.998 -0.83,-2.169 -0.83,-2.169 -2.572,-5.065 -2.591,-1.054 -2.591,-1.054 -5,-1 0.568,5.455 1.946,9.911 4,15 -4.29,0 -8.58,0 -13,0 -0.061,-1.048 -0.121,-2.096 -0.184,-3.175 -0.084,-1.379 -0.169,-2.758 -0.254,-4.137 -0.039,-0.69 -0.078,-1.381 -0.119,-2.092 -0.193,-3.067 -0.467,-5.665 -1.443,-8.596 -1.65,0.33 -3.3,0.66 -5,1 0.495,7.425 0.495,7.425 1,15 -4.29,-0.99 -8.58,-1.98 -13,-3 0.813,-3.222 1.627,-6.445 2.441,-9.667 0.539,-3.217 0.441,-5.229 -0.441,-8.333 -1.969,0.127 -1.969,0.127 -4,1 -1.148,2.174 -1.148,2.174 -1.75,4.813 -0.243,0.873 -0.485,1.745 -0.735,2.644 -0.648,2.764 -0.648,2.764 -0.515,6.543 -2.97,-0.99 -5.94,-1.98 -9,-3 0.349,-0.88 0.698,-1.76 1.058,-2.667 0.455,-1.162 0.91,-2.323 1.379,-3.52 0.453,-1.149 0.905,-2.297 1.371,-3.48 1.003,-2.804 1.712,-5.404 2.192,-8.333 -1.32,-0.33 -2.64,-0.66 -4,-1 -2.64,4.62 -5.28,9.24 -8,14 -1.65,-0.99 -3.3,-1.98 -5,-3 1.28,-4.654 3.254,-8.151 5.976,-12.07 1.336,-2.154 1.336,-2.154 1.024,-5.93 -2.378,0.073 -2.378,0.073 -5,1 -2.12,2.502 -2.12,2.502 -3.813,5.563 -0.604,1.012 -1.209,2.024 -1.832,3.066 -0.447,0.783 -0.894,1.565 -1.355,2.371 -8.741,-6.451 -13.9,-15.34 -16,-26 -0.227,-3.586 -0.192,-7.155 -0.029,-10.744 0.074,-1.75 0.058,-3.504 0.029,-5.256 -0.66,-0.66 -1.32,-1.32 -2,-2 -2.093,0.086 -2.093,0.086 -4,1 -3.776,11.328 -0.107,24.213 5,34.5 10.708,18.674 28.89,30.441 49.377,36.165 22.809,5.817 47.653,6.937 70.623,1.335 0.704,-0.166 1.409,-0.332 2.135,-0.503 23.21,-5.643 44.89,-17.961 57.865,-38.497 6.472,-10.801 10.39,-22.398 8,-35 -1.32,0 -2.64,0 -4,0 z m -201,30 c -1.011,11.62 5.959,21.325 13,30 16.356,19.119 39.255,31.621 64,36 2.865,0.171 2.865,0.171 5,0 0,-0.99 0,-1.98 0,-3 -1.065,-0.291 -2.13,-0.582 -3.227,-0.882 -26.159,-7.315 -54.37,-21.001 -69.031,-45.02 -3.142,-5.586 -5.968,-11.322 -8.742,-17.098 -0.33,0 -0.66,0 -1,0 z m -34,22 c -1.065,3.207 -0.96,4.902 0.293,8.02 0.298,0.767 0.597,1.534 0.905,2.325 0.326,0.814 0.653,1.629 0.989,2.468 5.161,13.447 8.355,27.018 10.813,41.187 0.99,0.33 1.98,0.66 3,1 1.308,-4.378 0.602,-8.254 -0.125,-12.687 -0.137,-0.841 -0.274,-1.681 -0.415,-2.548 -2.268,-13.15 -5.917,-27.036 -12.46,-38.765 -0.99,-0.33 -1.98,-0.66 -3,-1 z m 318,2 c -3.217,6.811 -5.178,13.962 -7.25,21.188 -0.38,1.283 -0.761,2.566 -1.141,3.85 -0.351,1.218 -0.701,2.437 -1.062,3.693 -0.482,1.661 -0.482,1.661 -0.974,3.356 -0.553,2.812 -0.556,4.266 0.427,6.913 1.989,-0.543 1.989,-0.543 4,-2 1.389,-2.962 1.389,-2.962 2.359,-6.546 0.194,-0.649 0.388,-1.298 0.588,-1.967 0.407,-1.373 0.807,-2.748 1.2,-4.125 0.598,-2.095 1.221,-4.181 1.849,-6.268 2.488,-8.391 2.488,-8.391 3.004,-17.094 -0.99,-0.33 -1.98,-0.66 -3,-1 z m 10,13 c -2.736,5.787 -5.068,11.675 -7.25,17.688 -0.271,0.724 -0.541,1.449 -0.819,2.195 -1.494,4.189 -2.244,7.602 -1.931,12.117 1.939,-0.027 1.939,-0.027 4,-1 1.525,-2.711 1.525,-2.711 2.648,-6.117 0.221,-0.613 0.442,-1.226 0.67,-1.857 0.463,-1.297 0.918,-2.597 1.366,-3.899 0.688,-1.995 1.408,-3.976 2.132,-5.959 0.446,-1.261 0.89,-2.522 1.332,-3.785 0.404,-1.151 0.808,-2.302 1.224,-3.488 0.207,-0.955 0.414,-1.91 0.628,-2.895 -0.66,-0.99 -1.32,-1.98 -2,-3 -0.66,0 -1.32,0 -2,0 z m -337,8 c -1.465,4.394 0.63,7.319 2.48,11.317 0.369,0.812 0.739,1.624 1.119,2.461 0.785,1.718 1.574,3.434 2.369,5.147 1.213,2.624 2.401,5.258 3.588,7.894 0.765,1.667 1.531,3.333 2.299,4.998 0.355,0.789 0.709,1.579 1.074,2.393 0.343,0.731 0.686,1.461 1.04,2.215 0.444,0.965 0.444,0.965 0.898,1.95 1.42,2.037 2.868,2.687 5.133,3.625 -0.495,-5.719 -1.585,-9.961 -4.09,-15.203 -0.305,-0.645 -0.609,-1.29 -0.923,-1.954 -0.965,-2.036 -1.944,-4.064 -2.925,-6.093 -0.654,-1.374 -1.307,-2.749 -1.959,-4.125 -2.326,-4.895 -4.662,-9.785 -7.103,-14.625 -0.99,0 -1.98,0 -3,0 z m 236,7 c -1.413,3.076 -1.413,3.076 0.511,6.137 0.715,1.19 1.44,2.374 2.176,3.551 0.353,0.606 0.705,1.213 1.069,1.838 1.162,1.967 1.162,1.967 3.244,4.474 1.32,0 2.64,0 4,0 -1.523,-5.785 -4.331,-11.275 -8,-16 -0.99,0 -1.98,0 -3,0 z m -10,11 c -0.99,1.485 -0.99,1.485 -2,3 1.426,1.842 2.866,3.674 4.312,5.5 1.201,1.532 1.201,1.532 2.426,3.094 0.746,0.794 1.493,1.588 2.262,2.406 0.99,0 1.98,0 3,0 -0.54,-4.165 -1.831,-6.544 -4.438,-9.812 -0.926,-1.185 -0.926,-1.185 -1.871,-2.395 -0.558,-0.591 -1.116,-1.183 -1.691,-1.793 -0.66,0 -1.32,0 -2,0 z m -219,21 c 0.33,1.65 0.66,3.3 1,5 1.32,0 2.64,0 4,0 -1.356,-2.536 -1.356,-2.536 -3,-5 -0.66,0 -1.32,0 -2,0 z m -66.543,3.293 c -8.918,9.927 -8.918,9.927 -13.457,21.707 -0.82,-0.36 -1.64,-0.721 -2.485,-1.093 -1.616,-0.696 -1.616,-0.696 -3.265,-1.407 -1.601,-0.696 -1.601,-0.696 -3.235,-1.406 -3.107,-1.321 -3.107,-1.321 -7.015,-1.094 0,0.99 0,1.98 0,3 3.96,1.65 7.92,3.3 12,5 -2,6 -2,6 -4,8 -0.615,-0.288 -1.23,-0.577 -1.864,-0.875 -0.808,-0.371 -1.616,-0.742 -2.449,-1.125 -0.8,-0.371 -1.601,-0.742 -2.426,-1.125 -2.323,-1.055 -2.323,-1.055 -5.261,-0.875 0,0.99 0,1.98 0,3 3.63,1.65 7.26,3.3 11,5 -0.782,3.663 -0.782,3.663 -1.563,7.325 -0.427,2.613 -0.513,5.034 -0.437,7.675 0.99,0.33 1.98,0.66 3,1 0.341,-0.723 0.683,-1.447 1.034,-2.192 15.686,-33.152 15.686,-33.152 23.739,-45.534 1.543,-2.43 1.543,-2.43 1.227,-6.274 -2.953,-0.321 -2.953,-0.321 -4.543,1.293 z m 137.543,1.707 c -0.66,2.97 -1.32,5.94 -2,9 1.485,0.99 1.485,0.99 3,2 1.422,-3.823 2.24,-6.912 2,-11 -0.99,0 -1.98,0 -3,0 z m -7,2 c -1.297,1.067 -1.297,1.067 -1.063,3.563 0.021,0.804 0.041,1.609 0.063,2.437 0.99,0.33 1.98,0.66 3,1 0,-1.98 0,-3.96 0,-6 -0.66,-0.33 -1.32,-0.66 -2,-1 z"
     fill="#000000"
     id="path6" />
  <path
     d="m 649.74609,155.27344 c 9.088,6.962 13.714,16.51 15.254,27.727 1.255,13.346 -3.228,26.669 -11.473,37.14 -1.728,2.051 -3.489,4.071 -5.25,6.094 -5.102,6.197 -7.412,12.411 -7.465,20.391 -0.014,0.961 -0.028,1.923 -0.043,2.914 0.306,4.588 1.247,8.976 2.231,13.461 -11.305,2.203 -22.592,4.391 -34,6 -4.164,-12.69 -2.98,-27.034 2.406,-39.168 3.032,-5.985 6.567,-11.284 10.719,-16.52 5.9,-7.447 10.854,-14.184 10.297,-24.051 -0.856,-4.586 -3.181,-7.227 -6.672,-10.136 -3.648,-1.493 -6.903,-1.804 -10.75,-1.125 -4.369,2.225 -7.056,4.464 -9,9 -0.336,3.227 -0.292,5.326 1,8.312 1.461,3.928 1.592,7.548 1,11.688 -3.126,6.135 -7.524,9.807 -14,12 -7.6,0.912 -14.565,0.374 -21,-4 -4.152,-3.854 -6.773,-7.166 -7.238,-12.969 -0.261,-12.41 2.796,-21.171 10.238,-31.031 0.606,-0.818 1.212,-1.635 1.836,-2.477 16.923,-19.734 49.49,-27.861 71.91,-13.25 z m -29.746,1.727 c 0.33,1.32 0.66,2.64 1,4 5.61,0.33 11.22,0.66 17,1 0,-1.32 0,-2.64 0,-4 -5.652,-3.768 -11.822,-3.694 -18,-1 z m 28,17 c 0.06,0.582 0.121,1.165 0.184,1.765 0.688,6.739 1.271,13.483 1.816,20.235 1.32,0.33 2.64,0.66 4,1 3.057,-6.115 0.925,-14.772 -1,-21 -0.33,-0.66 -0.66,-1.32 -1,-2 -1.32,0 -2.64,0 -4,0 z"
     fill="#000000"
     id="path7" />
  <path
     d="m 248,159 c 1.675,0.286 3.344,0.618 5,1 -0.583,5.037 -1.732,9.574 -3.375,14.375 -2.768,8.408 -4.295,16.889 -5.625,25.625 -1.875,0.625 -1.875,0.625 -4,1 -2.496,-2.496 -2.308,-4.094 -2.38,-7.51 0.027,-12.037 1.357,-25.467 10.38,-34.49 z"
     fill="#000000"
     id="path8" />
  <path
     d="m 151,199 c 3.819,1.066 6.749,3.068 9.938,5.375 2.85,2.042 5.694,4.074 8.624,6 C 172,212 172,212 173,213 c 0.188,2.438 0.188,2.438 0,5 -0.66,0.66 -1.32,1.32 -2,2 -5.614,-0.185 -9.279,-2.044 -13.688,-5.312 -0.554,-0.392 -1.109,-0.783 -1.681,-1.186 -3.149,-2.258 -6.107,-4.553 -8.631,-7.502 0.062,-2.625 0.062,-2.625 1,-5 0.99,-0.66 1.98,-1.32 3,-2 z"
     fill="#000000"
     id="path9" />
  <path
     d="m 225,237 c 0.66,1.32 1.32,2.64 2,4 -1.114,0.681 -2.227,1.361 -3.375,2.062 -13.915,8.744 -23.82,17.35 -30.813,32.563 C 191,279 191,279 189.012,279.836 c -0.664,0.054 -1.328,0.108 -2.012,0.164 -0.66,-0.66 -1.32,-1.32 -2,-2 0.191,-10.699 6.203,-19.153 13,-27 0.607,-0.703 1.214,-1.405 1.84,-2.129 6.841,-7.373 14.8,-13.044 25.16,-11.871 z"
     fill="#000000"
     id="path10" />
  <path
     d="m 538,263 c 0.99,0.33 1.98,0.66 3,1 0,5.94 0,11.88 0,18 -1.32,0 -2.64,0 -4,0 -1.517,-3.034 -1.184,-6.175 -1.188,-9.5 -0.018,-1.034 -0.018,-1.034 -0.037,-2.09 -0.005,-1.805 0.103,-3.609 0.225,-5.41 0.66,-0.66 1.32,-1.32 2,-2 z"
     fill="#000000"
     id="path11" />
  <path
     d="m 650,279 c 5.418,6.884 6.967,13.311 6,22 -2.101,7.175 -5.646,11.165 -12.012,14.941 -5.889,3.136 -12.962,3.135 -19.414,1.411 C 618.275,314.489 613.76,309.289 611,303 c -1.505,-7.401 -0.824,-13.422 2.625,-20.188 4.705,-5.571 9.775,-9.472 17.086,-10.691 7.201,-0.381 13.872,2.159 19.289,6.879 z"
     fill="#000000"
     id="path12" />
  <path
     d="m 437.9375,285.1875 c 0.71,0.03 1.42,0.06 2.151,0.091 4.6,0.311 7.999,1.279 11.911,3.721 2,3 2,3 1.813,5.563 -0.813,2.437 -0.813,2.437 -3.813,4.437 -2.185,0.579 -2.185,0.579 -4.718,1.036 -1.4,0.254 -1.4,0.254 -2.828,0.513 -0.975,0.17 -1.949,0.339 -2.954,0.514 -0.943,0.173 -1.887,0.347 -2.859,0.525 -8.631,1.539 -17.305,2.52 -26.078,2.662 -1.452,0.039 -1.452,0.039 -2.934,0.079 -3.09,-0.386 -4.429,-1.15 -6.629,-3.329 -0.5,-2.937 -0.5,-2.937 0,-6 5.845,-6.984 15.74,-8.59 24.387,-9.75 4.216,-0.291 8.333,-0.264 12.551,-0.062 z"
     fill="#000000"
     id="path13" />
  <path
     d="m 154,310 c 2.062,0.438 2.062,0.438 4,1 0.074,4.663 0.129,9.326 0.165,13.989 0.015,1.587 0.035,3.174 0.061,4.761 0.037,2.279 0.054,4.557 0.067,6.836 0.015,0.711 0.031,1.423 0.047,2.156 0.001,2.002 0.001,2.002 -0.34,5.258 -0.99,0.66 -1.98,1.32 -3,2 -2.469,-2.469 -2.236,-3.863 -2.252,-7.232 0.007,-0.709 0.014,-1.417 0.022,-2.147 0,-0.727 0,-1.454 10e-4,-2.204 0.003,-1.537 0.011,-3.075 0.023,-4.612 0.018,-2.362 0.021,-4.723 0.02,-7.084 0.005,-1.492 0.011,-2.983 0.018,-4.475 0.002,-1.066 0.002,-1.066 0.003,-2.153 0.049,-4.977 0.049,-4.977 1.165,-6.093 z"
     fill="#000000"
     id="path14" />
  <path
     d="m 345,311 c 1.938,1.062 1.938,1.062 3,3 0.187,4.766 -1.064,7.467 -4.062,11 -3.065,3.245 -6.315,6.215 -9.723,9.094 -2.541,2.187 -4.961,4.484 -7.403,6.781 -4.046,3.674 -8.187,7.07 -12.624,10.25 -1.557,1.118 -1.557,1.118 -3.145,2.258 -3.369,1.79 -5.287,2.042 -9.043,1.617 -1.875,-1.062 -1.875,-1.062 -3,-3 -0.806,-5.874 0.713,-10.211 4,-15 9.605,-11.907 25.547,-27.371 42,-26 z"
     fill="#000000"
     id="path15" />
  <path
     d="m 442,319 c 5.038,2.774 7.927,6.59 9.641,12.035 0.523,2.864 0.171,5.192 -0.641,7.965 -1,1 -1,1 -4.062,1.062 -0.97,-0.02 -1.939,-0.041 -2.938,-0.062 -2.875,-6.625 -2.875,-6.625 -4,-10 -2.504,-1.219 -2.504,-1.219 -5,-2 -0.277,1.143 -0.554,2.287 -0.84,3.465 -0.366,1.491 -0.731,2.982 -1.098,4.473 -0.182,0.754 -0.364,1.509 -0.552,2.287 -1.397,5.662 -1.397,5.662 -2.51,6.775 -2.938,0.25 -2.938,0.25 -6,0 -2.583,-3.874 -2.099,-5.822 -1.543,-10.297 1.229,-6.116 3.58,-11.733 8.543,-15.703 3.559,-1.779 7.246,-0.983 11,0 z"
     fill="#000000"
     id="path16" />
  <path
     d="m 392.4375,319.8125 c 5.719,2.65 7.657,11.754 9.875,17.375 5.735,14.129 12.086,26.71 25.023,35.523 1.664,1.29 1.664,1.29 3.664,4.29 0.152,7.251 -4.006,12.236 -8,18 -0.838,1.261 -1.675,2.522 -2.511,3.785 -0.87,1.281 -1.741,2.561 -2.613,3.839 -0.408,0.617 -0.815,1.233 -1.235,1.868 -1.872,2.681 -3.174,4.325 -6.258,5.531 -2.383,-0.023 -2.383,-0.023 -5.383,-2.023 -0.645,-4.764 0.403,-7.345 3.063,-11.25 0.63,-0.944 1.261,-1.888 1.91,-2.86 1.345,-1.918 2.707,-3.824 4.086,-5.719 0.641,-0.881 1.281,-1.763 1.941,-2.671 0.599,-0.795 1.197,-1.589 1.813,-2.407 0.392,-0.691 0.784,-1.382 1.187,-2.093 -1.14,-3.422 -1.665,-3.641 -4.562,-5.5 -13.494,-9.863 -24.054,-33.071 -27.168,-49.309 -0.27,-3.191 -0.27,-3.191 0.856,-5.191 1.874,-1 1.874,-1 4.312,-1.188 z"
     fill="#000000"
     id="path17" />
  <path
     d="m 690,339 c 1.98,0.495 1.98,0.495 4,1 0,5.94 0,11.88 0,18 -1.32,0 -2.64,0 -4,0 -1.517,-3.034 -1.144,-6.176 -1.125,-9.5 -0.004,-0.69 -0.008,-1.379 -0.012,-2.09 0.01,-5.157 0.01,-5.157 1.137,-7.41 z"
     fill="#000000"
     id="path18" />
  <path
     d="m 459.5,344.1875 c 2.721,0.884 3.951,1.403 5.5,3.812 -0.312,2.688 -0.312,2.688 -1,5 -3,1 -3,1 -6.125,-0.124 -2.875,-1.876 -2.875,-1.876 -3.75,-4.563 -0.062,-1.145 -0.062,-1.145 -0.125,-2.313 3,-2 3,-2 5.5,-1.812 z"
     fill="#000000"
     id="path19" />
  <path
     d="m 361.9375,348.625 c 4.477,5.155 5.39,10.715 5.461,17.395 -0.399,1.98 -0.399,1.98 -1.609,3.804 -1.79,1.176 -1.79,1.176 -4.477,0.863 -1.145,-0.34 -1.145,-0.34 -2.313,-0.687 -0.193,-0.843 -0.386,-1.686 -0.585,-2.555 -0.391,-1.643 -0.391,-1.643 -0.789,-3.32 -0.256,-1.091 -0.511,-2.181 -0.774,-3.305 -0.641,-2.924 -0.641,-2.924 -2.852,-4.82 -3.337,-0.435 -5.221,-0.565 -7.992,1.445 -2.838,3.612 -3.924,7.451 -5.258,11.805 -0.268,0.84 -0.536,1.681 -0.812,2.547 -0.657,2.064 -1.299,4.133 -1.938,6.203 -2.374,0.125 -2.374,0.125 -5,0 -2.418,-2.419 -2.321,-3.111 -2.374,-6.437 0.19,-8.234 2.91,-16.191 8.687,-22.184 7.069,-5.777 14.884,-5.036 22.625,-0.754 z"
     fill="#000000"
     id="path20" />
  <path
     d="m 180,378 c 0.99,0.33 1.98,0.66 3,1 0,6.6 0,13.2 0,20 -1.32,0.33 -2.64,0.66 -4,1 -1.709,-3.418 -1.185,-7.234 -1.188,-11 -0.012,-0.833 -0.024,-1.665 -0.037,-2.523 -0.002,-0.797 -0.003,-1.594 -0.005,-2.415 -0.007,-1.096 -0.007,-1.096 -0.013,-2.214 C 178,380 178,380 180,378 Z"
     fill="#000000"
     id="path21" />
  <path
     d="m 336,384 c 3.625,0.375 3.625,0.375 7,1 0.188,2.375 0.188,2.375 0,5 -3,2 -3,2 -5.688,1.625 -0.763,-0.206 -1.526,-0.413 -2.312,-0.625 -0.625,-2.375 -0.625,-2.375 -1,-5 0.66,-0.66 1.32,-1.32 2,-2 z"
     fill="#000000"
     id="path22" />
  <path
     d="m 706,418 c 3,1.938 3,1.938 5,5 0.427,7.501 -2.312,14.298 -5.062,21.125 -3.4,8.723 -6.572,17.483 -9.5,26.375 -0.347,1.051 -0.693,2.101 -1.05,3.184 -0.799,2.438 -1.596,4.876 -2.388,7.316 0.495,0.495 0.495,0.495 1,1 6.119,-7.108 12.102,-14.272 17.738,-21.772 4.083,-5.41 4.083,-5.41 6.262,-7.228 3.042,0.285 4.39,1.26 7,3 -0.441,4.812 -2.753,7.484 -5.875,10.938 -1.009,1.151 -2.015,2.305 -3.02,3.46 -0.516,0.593 -1.032,1.186 -1.564,1.796 -2.461,2.884 -4.781,5.873 -7.103,8.868 -7.199,9.211 -7.199,9.211 -10.876,13.75 -0.782,0.976 -1.564,1.952 -2.371,2.958 -2.193,2.232 -3.106,3.066 -6.191,3.23 -5.361,-2.037 -5.361,-2.037 -7.212,-4.825 -3.165,-8.733 4.215,-23.005 7.024,-31.487 0.528,-1.614 1.055,-3.228 1.581,-4.842 3.054,-9.337 6.245,-18.615 9.607,-27.846 -0.33,-0.33 -0.66,-0.66 -1,-1 -0.401,0.496 -0.802,0.993 -1.215,1.504 -5.992,7.16 -12.271,13.891 -21.832,15.496 -1.953,0 -1.953,0 -4.515,-1.375 -0.475,-0.536 -0.949,-1.072 -1.438,-1.625 1.514,-4.421 4.98,-6.337 8.688,-8.812 6.6,-4.559 12.015,-9.367 17.124,-15.563 3.625,-4.35 5.789,-3.906 11.188,-2.625 z"
     fill="#000000"
     id="path23" />
  <path
     d="m 436,418 c 3.282,2.53 4.692,4.077 6,8 0.584,5.959 -0.518,10.205 -4,15 -7.26,6.998 -14.554,8.486 -24.453,8.309 -6.902,-0.601 -12.346,-2.623 -17.172,-7.684 -1.885,-2.496 -2.391,-3.707 -3,-6.875 0.792,-3.483 1.652,-3.866 4.625,-5.75 3.997,-1.815 8.096,-3.365 12.198,-4.926 1.972,-0.755 3.935,-1.532 5.898,-2.31 6.778,-2.629 12.586,-4.691 19.904,-3.764 z m -14.617,9.969 c -1.019,0.406 -2.037,0.812 -3.086,1.23 -1.047,0.429 -2.094,0.859 -3.172,1.301 -1.07,0.429 -2.14,0.859 -3.242,1.301 -2.632,1.057 -5.259,2.124 -7.883,3.199 0,0.99 0,1.98 0,3 5.593,3.298 10.972,4.734 17.402,3.562 4.982,-1.458 8.425,-3.298 11.598,-7.562 1.192,-4.098 1.192,-4.098 0,-8 -4.399,-0.204 -7.543,0.321 -11.617,1.969 z"
     fill="#000000"
     id="path24" />
  <path
     d="m 287,422 c 0.33,1.32 0.66,2.64 1,4 -0.969,0.351 -1.939,0.701 -2.938,1.062 -3.435,1.678 -3.435,1.678 -3.937,5.5 -0.066,1.812 -0.125,3.625 -0.125,5.438 5.94,0 11.88,0 18,0 0.33,0.99 0.66,1.98 1,3 -1.467,2.849 -2.726,3.87 -5.625,5.25 -5.54,1.231 -10.3,1.494 -15.687,-0.438 -3.102,-2.091 -4.837,-3.538 -6.688,-6.812 -0.849,-4.69 -0.445,-8.076 1.625,-12.375 3.987,-4.407 7.516,-6.521 13.375,-4.625 z"
     fill="#000000"
     id="path25" />
  <path
     d="m 181,433 c 18.231,11.637 22.998,43.495 27.345,62.966 0.944,4.374 1.818,8.752 2.593,13.159 0.128,0.703 0.256,1.406 0.389,2.13 0.727,4.472 0.647,8.319 -0.327,12.745 -2.672,3.158 -4.361,3.895 -8.438,4.562 -19.774,-1.147 -40.666,-16.733 -53.824,-30.539 -6.22,-7.241 -11.861,-15.176 -13.3,-24.773 0.727,-4.206 2.258,-5.637 5.562,-8.25 9.757,-3.252 19.698,-0.41 29,3 -0.143,-1.381 -0.143,-1.381 -0.289,-2.789 -1.967,-22.459 -1.967,-22.459 4.289,-31.211 2.66,-1.33 4.033,-1.405 7,-1 z m -2,9 c -3.075,9.506 -4.178,22.65 0,32 1.83,2.023 3.758,3.631 5.914,5.301 5.72,4.659 9.266,11.482 12.887,17.793 0.396,0.629 0.791,1.258 1.199,1.906 0.33,0 0.66,0 1,0 -0.086,-18.723 -8.814,-42.178 -20,-57 -0.33,0 -0.66,0 -1,0 z m -33,30 c -0.33,0.66 -0.66,1.32 -1,2 6.052,17.459 21.48,31.927 37.449,40.281 4.53,2.154 8.556,3.294 13.551,3.719 -1.065,-2.615 -2.172,-4.172 -4.188,-6.188 -7.872,-7.872 -13.28,-16.802 -16.652,-27.468 -1.326,-3.959 -2.244,-5.807 -5.933,-7.969 -6.166,-2.627 -11.763,-4.526 -18.477,-4.437 -1.338,0.013 -1.338,0.013 -2.703,0.027 -0.676,0.011 -1.351,0.023 -2.047,0.035 z m 39,19 c 1,2 1,2 1,2 z m 1,2 c 0.33,0.99 0.66,1.98 1,3 0,-0.99 0,-1.98 0,-3 -0.33,0 -0.66,0 -1,0 z m 2,3 c 1,2 1,2 1,2 z"
     fill="#000000"
     id="path26" />
  <path
     d="m 521,496 c 1.32,0 2.64,0 4,0 0,6.27 0,12.54 0,19 -1.32,0 -2.64,0 -4,0 0,-6.27 0,-12.54 0,-19 z"
     fill="#000000"
     id="path27" />
  <path
     d="m 158,531 c 5.58,0.347 10.525,2.036 15.75,3.938 0.754,0.264 1.508,0.529 2.285,0.802 3.343,1.197 5.98,2.27 8.965,4.26 0.812,2.438 0.812,2.438 1,5 -0.99,1.485 -0.99,1.485 -2,3 -5.98,-0.555 -11.175,-1.835 -16.812,-3.875 -0.75,-0.257 -1.5,-0.513 -2.272,-0.777 -0.721,-0.257 -1.442,-0.513 -2.186,-0.778 -0.645,-0.229 -1.291,-0.458 -1.956,-0.695 -2.064,-1.018 -3.313,-2.101 -4.774,-3.875 -0.312,-2.562 -0.312,-2.562 0,-5 0.66,-0.66 1.32,-1.32 2,-2 z"
     fill="#000000"
     id="path28" />
  <path
     d="m 246,540 c 1.32,0 2.64,0 4,0 0,5.94 0,11.88 0,18 -1.32,0 -2.64,0 -4,0 0,-5.94 0,-11.88 0,-18 z"
     fill="#000000"
     id="path29" />
</svg>
