<?xml version="1.0" encoding="UTF-8"?>
<!-- Generator: visioncortex VTracer 0.6.3 -->
<svg version="1.1" xmlns="http://www.w3.org/2000/svg" width="1024" height="1024">
<path d="M0 0 C4.83 1.41 8.97 3.52 13.25 6.12 C13.91 6.52 14.57 6.92 15.25 7.34 C20.87 10.81 26.02 14.66 31 19 C31.84 19.73 32.68 20.46 33.55 21.22 C36.07 23.45 38.54 25.71 41 28 C41.67 28.6 42.33 29.2 43.02 29.82 C65.2 50.69 78.28 82.18 82 112 C82.11 112.82 82.22 113.63 82.34 114.47 C84.03 129.32 83.3 144.28 81 159 C79.68 159.33 78.36 159.66 77 160 C75.98 157.28 76.05 155.61 76.45 152.69 C81.36 115.78 72.45 76.87 50.38 46.81 C36.37 28.56 19.09 14.99 -1 4 C-0.67 2.68 -0.34 1.36 0 0 Z " fill="#000000" transform="translate(676,145)"/>
<path d="M0 0 C23.11 20.67 36.07 43.99 38.74 75.45 C39 80.77 39.03 86.07 38.99 91.39 C38.99 92.11 38.99 92.83 38.98 93.57 C38.86 117.69 37.96 141.83 32.74 165.45 C32.53 166.42 32.32 167.39 32.1 168.38 C19.91 222.89 -5.41 279.47 -43.65 320.63 C-45.82 322.97 -47.93 325.35 -50.01 327.77 C-54.97 333.47 -60.32 338.61 -66.06 343.52 C-67.61 344.88 -69.12 346.28 -70.61 347.7 C-82.15 358.63 -95.51 367.53 -109.26 375.45 C-109.88 375.81 -110.49 376.17 -111.13 376.53 C-135.75 390.59 -162.13 397.87 -190.26 400.45 C-191.14 400.54 -192.02 400.63 -192.93 400.72 C-206.28 401.92 -206.28 401.92 -210.31 398.93 C-211.7 396.83 -211.7 396.83 -212.84 394.37 C-214.69 390.56 -217.18 387.49 -219.82 384.2 C-220.28 383.61 -220.74 383.02 -221.21 382.42 C-224.03 378.84 -226.98 375.6 -230.26 372.45 C-233.19 374.94 -234.21 377.43 -235.51 381.02 C-235.93 382.16 -236.34 383.31 -236.77 384.48 C-237.21 385.72 -237.66 386.95 -238.11 388.22 C-238.57 389.5 -239.04 390.79 -239.5 392.07 C-240.47 394.75 -241.44 397.44 -242.4 400.13 C-243.63 403.57 -244.87 407 -246.12 410.43 C-247.08 413.08 -248.03 415.72 -248.98 418.37 C-249.66 420.25 -250.34 422.13 -251.02 424.01 C-251.43 425.16 -251.84 426.31 -252.26 427.5 C-252.63 428.5 -252.99 429.51 -253.36 430.55 C-254.28 433.51 -254.82 436.39 -255.26 439.45 C-254.6 439.45 -253.94 439.45 -253.26 439.45 C-249.12 429.57 -245.28 419.6 -241.68 409.51 C-241.37 408.64 -241.06 407.76 -240.74 406.86 C-239.15 402.41 -237.57 397.95 -236.01 393.49 C-235.42 391.82 -234.83 390.15 -234.23 388.48 C-233.96 387.7 -233.69 386.92 -233.41 386.11 C-231.48 380.68 -231.48 380.68 -229.26 378.45 C-226.31 381.9 -223.4 385.38 -220.54 388.9 C-219.43 390.24 -218.3 391.56 -217.15 392.87 C-215.41 395.06 -214.26 396.83 -213.26 399.45 C-213.55 401.85 -213.55 401.85 -214.36 404.45 C-214.65 405.42 -214.95 406.39 -215.25 407.39 C-215.58 408.4 -215.92 409.41 -216.26 410.45 C-216.58 411.44 -216.9 412.42 -217.23 413.43 C-218.29 416.6 -219.39 419.77 -220.5 422.93 C-220.9 424.09 -221.3 425.25 -221.72 426.45 C-223 430.14 -224.28 433.83 -225.57 437.52 C-227.26 442.36 -228.94 447.21 -230.62 452.05 C-231.02 453.21 -231.43 454.37 -231.84 455.57 C-235.06 464.84 -238.19 474.13 -241.26 483.45 C-240.41 484.15 -239.56 484.84 -238.69 485.55 C-236.26 488.45 -236.26 488.45 -236.3 491.35 C-236.65 492.5 -236.99 493.64 -237.34 494.82 C-237.53 495.5 -237.73 496.17 -237.93 496.87 C-238.67 499.41 -239.46 501.93 -240.26 504.45 C-240.94 506.68 -241.62 508.92 -242.3 511.15 C-244.58 518.55 -246.91 525.94 -249.25 533.32 C-250.43 537.05 -251.61 540.79 -252.79 544.53 C-253.02 545.28 -253.26 546.04 -253.5 546.81 C-253.98 548.33 -254.46 549.86 -254.94 551.38 C-255.66 553.67 -256.39 555.97 -257.11 558.26 C-261.44 572 -265.7 585.75 -269.95 599.52 C-271.32 603.97 -272.69 608.43 -274.07 612.88 C-274.41 613.98 -274.75 615.09 -275.1 616.22 C-277.67 624.56 -280.26 632.88 -282.86 641.21 C-290.51 665.78 -298.11 690.35 -305.29 715.06 C-305.54 715.91 -305.79 716.76 -306.04 717.64 C-306.5 719.2 -306.95 720.76 -307.4 722.32 C-308.8 727.13 -310.45 731.78 -312.26 736.45 C-346.3 735.36 -385.88 726.91 -411.26 702.45 C-412.53 698.63 -411.77 697.67 -410.18 694.04 C-409.44 692.34 -409.44 692.34 -408.69 690.61 C-408.13 689.35 -407.57 688.09 -407.01 686.83 C-406.43 685.5 -405.84 684.18 -405.26 682.85 C-397.21 664.59 -388.71 646.53 -380.26 628.45 C-379.6 627.06 -378.95 625.66 -378.3 624.26 C-378 623.62 -377.69 622.97 -377.38 622.3 C-375.94 619.23 -374.51 616.15 -373.07 613.08 C-372.51 611.89 -371.96 610.7 -371.39 609.48 C-366.36 598.72 -361.43 587.92 -356.5 577.11 C-352.95 569.32 -349.37 561.53 -345.77 553.76 C-338.49 538.06 -331.25 522.35 -324.26 506.52 C-323.95 505.82 -323.64 505.12 -323.32 504.4 C-320.2 497.33 -317.15 490.25 -314.28 483.07 C-313.83 481.95 -313.38 480.82 -312.91 479.66 C-312.09 477.59 -311.28 475.51 -310.49 473.43 C-310.13 472.53 -309.77 471.63 -309.41 470.7 C-309.11 469.92 -308.81 469.15 -308.51 468.34 C-306.8 465.76 -305.21 465.23 -302.26 464.45 C-301.27 464.78 -300.28 465.11 -299.26 465.45 C-299.15 464.85 -299.04 464.24 -298.92 463.62 C-297.75 457.43 -296.19 451.48 -294.32 445.47 C-294.03 444.54 -293.75 443.61 -293.46 442.66 C-292.54 439.67 -291.62 436.69 -290.7 433.7 C-289.75 430.61 -288.8 427.52 -287.85 424.43 C-287.22 422.37 -286.59 420.31 -285.96 418.26 C-283.23 409.37 -280.54 400.48 -277.88 391.58 C-277.51 390.33 -277.13 389.08 -276.75 387.79 C-275.92 385.01 -275.09 382.23 -274.26 379.45 C-274.86 379.16 -275.47 378.87 -276.09 378.57 C-291.1 370.83 -305.35 355.83 -315.26 342.45 C-315.99 341.47 -316.73 340.49 -317.48 339.48 C-337.71 311.44 -346.75 278.82 -346.57 244.45 C-346.57 243.31 -346.57 243.31 -346.56 242.14 C-346.5 229.05 -345.68 216.34 -343.26 203.45 C-343.07 202.43 -342.88 201.41 -342.69 200.35 C-337.64 173.65 -328.88 148 -317.26 123.45 C-316.79 122.46 -316.31 121.46 -315.83 120.43 C-294.56 75.91 -263.2 30.91 -222.9 1.65 C-221.25 0.45 -219.64 -0.78 -218.02 -2.01 C-151.66 -51.89 -63.93 -54.02 0 0 Z M-216.26 14.45 C-216.8 14.87 -217.35 15.29 -217.91 15.71 C-225.83 21.86 -232.9 28.9 -240.01 35.95 C-240.88 36.82 -241.76 37.69 -242.66 38.58 C-287.81 83.95 -317.18 147.37 -325.26 210.45 C-325.36 211.23 -325.46 212 -325.57 212.8 C-326.53 220.94 -326.5 229.14 -326.51 237.33 C-326.51 238.11 -326.51 238.88 -326.51 239.69 C-326.49 251.84 -325.92 263.55 -323.26 275.45 C-323.09 276.23 -322.93 277.01 -322.75 277.81 C-316.06 308.3 -300.22 336.71 -277.5 358.18 C-276.26 359.45 -276.26 359.45 -275.26 361.45 C-274.6 361.45 -273.94 361.45 -273.26 361.45 C-273.03 362.03 -272.79 362.6 -272.55 363.19 C-270.48 366.81 -267.15 369.11 -263.96 371.75 C-262.26 374.45 -262.26 374.45 -262.41 376.34 C-263.84 382.14 -265.58 387.77 -267.53 393.42 C-267.85 394.36 -268.17 395.3 -268.5 396.26 C-269.19 398.27 -269.87 400.28 -270.56 402.28 C-271.64 405.42 -272.72 408.56 -273.79 411.7 C-277.13 421.48 -280.52 431.24 -284.02 440.97 C-284.3 441.76 -284.59 442.56 -284.88 443.37 C-286.2 447.05 -287.54 450.73 -288.89 454.4 C-289.36 455.69 -289.83 456.98 -290.29 458.28 C-290.7 459.38 -291.11 460.49 -291.52 461.62 C-292.26 464.45 -292.29 465.77 -291.26 468.45 C-290.27 468.12 -289.28 467.79 -288.26 467.45 C-287.03 464.77 -286 462.16 -285.03 459.38 C-284.57 458.11 -284.57 458.11 -284.09 456.81 C-283.07 453.99 -282.07 451.16 -281.07 448.33 C-280.37 446.36 -279.66 444.4 -278.96 442.43 C-277.09 437.2 -275.25 431.96 -273.41 426.72 C-272.25 423.43 -271.09 420.14 -269.93 416.86 C-268.03 411.47 -266.14 406.09 -264.28 400.69 C-263.56 398.62 -262.83 396.55 -262.11 394.49 C-261.09 391.59 -260.09 388.68 -259.1 385.77 C-258.79 384.92 -258.49 384.06 -258.18 383.17 C-256.63 378.59 -255.73 375.24 -257.26 370.45 C-258.33 368.67 -258.33 368.67 -259.81 367.3 C-260.34 366.76 -260.87 366.22 -261.41 365.66 C-261.98 365.1 -262.55 364.53 -263.13 363.95 C-269.14 357.74 -274.57 351.31 -279.77 344.42 C-280.82 343.04 -281.87 341.65 -282.93 340.28 C-303.63 313.4 -317.43 284.45 -317.45 249.95 C-317.46 248.85 -317.47 247.75 -317.48 246.61 C-317.49 240.83 -317.24 235.91 -315.26 230.45 C-313.94 230.12 -312.62 229.79 -311.26 229.45 C-309.2 232.53 -309.02 233.02 -309.13 236.45 C-309.15 237.25 -309.17 238.04 -309.18 238.86 C-309.21 239.72 -309.23 240.57 -309.26 241.45 C-309.54 265.13 -305.84 288.96 -293.26 309.45 C-291.91 305.42 -293.39 303.07 -294.95 299.33 C-298.28 290.86 -300.51 282.38 -302.26 273.45 C-302.48 272.35 -302.71 271.24 -302.95 270.1 C-310.79 223.58 -299.27 169.81 -278.07 128.29 C-277.22 126.37 -276.71 124.5 -276.26 122.45 C-277.58 122.45 -278.9 122.45 -280.26 122.45 C-292.43 148.38 -300.01 175.59 -306.26 203.45 C-307.91 203.78 -309.56 204.11 -311.26 204.45 C-320.32 177.28 -295.8 133.02 -284.26 109.45 C-283.66 108.22 -283.66 108.22 -283.06 106.96 C-278.14 96.82 -272.42 87.35 -266.2 77.95 C-265.55 76.97 -264.9 76 -264.23 74.99 C-235.46 32.43 -192.03 -0.92 -141.26 -11.55 C-140.23 -11.77 -139.2 -12 -138.14 -12.23 C-120.24 -15.47 -99.87 -15.3 -82.26 -10.55 C-81.54 -10.35 -80.82 -10.16 -80.08 -9.96 C-52.57 -2.24 -28.39 14.29 -14.01 39.33 C-1.91 60.97 1.35 83.18 2.3 107.64 C2.35 108.69 2.39 109.74 2.44 110.81 C2.54 113.36 2.64 115.91 2.74 118.45 C3.73 118.12 4.72 117.79 5.74 117.45 C8.56 97.95 7.13 77.06 3.2 57.8 C2.66 55.03 2.65 52.45 2.68 49.64 C2.69 48.66 2.7 47.69 2.71 46.68 C2.72 45.58 2.72 45.58 2.74 44.45 C8.18 44.87 8.18 44.87 10.61 47.39 C16.35 56.99 20.64 67.08 24.74 77.45 C25.07 77.45 25.4 77.45 25.74 77.45 C23.82 56.83 16.19 36.04 3.74 19.45 C2.89 18.31 2.89 18.31 2.01 17.14 C1.59 16.58 1.17 16.03 0.74 15.45 C-0.58 16.11 -1.9 16.77 -3.26 17.45 C-3.04 18.11 -2.82 18.76 -2.6 19.43 C1.04 30.86 1.04 30.86 -1.26 35.45 C-4.74 35.78 -6.72 35.78 -9.76 33.95 C-11.74 31.97 -13.21 30.21 -14.82 27.95 C-33.7 2.21 -65.31 -13.41 -96.26 -18.55 C-140.53 -25.03 -180.98 -12.75 -216.26 14.45 Z M-46.26 -17.55 C-46.26 -16.23 -46.26 -14.91 -46.26 -13.55 C-44.94 -13.55 -43.62 -13.55 -42.26 -13.55 C-42.26 -14.87 -42.26 -16.19 -42.26 -17.55 C-43.58 -17.55 -44.9 -17.55 -46.26 -17.55 Z M-35.26 -12.55 C-35.94 -10.15 -35.94 -10.15 -36.26 -7.55 C-34.42 -5.26 -34.42 -5.26 -31.63 -5.42 C-30.85 -5.46 -30.07 -5.5 -29.26 -5.55 C-28.93 -6.87 -28.6 -8.19 -28.26 -9.55 C-31.31 -12.13 -31.31 -12.13 -35.26 -12.55 Z M-27.26 -7.55 C-27.42 -5.13 -27.42 -5.13 -27.26 -2.55 C-26.6 -1.89 -25.94 -1.23 -25.26 -0.55 C-23.15 -0.87 -23.15 -0.87 -21.26 -1.55 C-22.31 -4.17 -22.91 -5.34 -25.38 -6.8 C-26.31 -7.17 -26.31 -7.17 -27.26 -7.55 Z M-114.13 -1.92 C-115.03 -1.83 -115.94 -1.75 -116.87 -1.66 C-125.52 -0.7 -133.96 1.14 -142.25 3.81 C-144.15 4.42 -146.09 4.92 -148.02 5.42 C-153.04 8.57 -153.95 13.04 -155.7 18.52 C-156.05 19.53 -156.4 20.55 -156.76 21.6 C-158.56 26.43 -158.56 26.43 -159.26 31.45 C-157.61 31.78 -155.96 32.11 -154.26 32.45 C-154.26 33.77 -154.26 35.09 -154.26 36.45 C-157.72 35.96 -157.72 35.96 -161.26 35.45 C-162.66 39.11 -164.04 42.77 -165.42 46.44 C-166.12 48.29 -166.82 50.13 -167.53 51.98 C-170.07 58.75 -172.17 65.29 -173.26 72.45 C-170.67 73.27 -168.09 74.08 -165.51 74.89 C-164.78 75.12 -164.05 75.35 -163.3 75.59 C-162.59 75.81 -161.88 76.03 -161.15 76.26 C-160.5 76.47 -159.85 76.67 -159.18 76.88 C-157.22 77.46 -155.25 77.97 -153.26 78.45 C-149.87 70.73 -146.86 62.87 -143.95 54.95 C-143.58 53.99 -143.22 53.02 -142.85 52.02 C-142.35 50.64 -142.35 50.64 -141.83 49.23 C-141.53 48.41 -141.23 47.59 -140.91 46.74 C-140.07 44.21 -140.07 44.21 -140.26 40.45 C-140.92 40.45 -141.58 40.45 -142.26 40.45 C-141.93 39.79 -141.6 39.13 -141.26 38.45 C-140.48 38.2 -139.7 37.94 -138.9 37.68 C-135.4 36.06 -134.65 34.24 -132.95 30.83 C-132.18 29.32 -132.18 29.32 -131.39 27.79 C-131.02 27.02 -130.64 26.25 -130.26 25.45 C-130.47 26.21 -130.69 26.97 -130.91 27.75 C-131.19 28.75 -131.47 29.74 -131.76 30.77 C-132.04 31.75 -132.31 32.74 -132.6 33.75 C-133.38 36.48 -133.38 36.48 -133.26 39.45 C-130.13 40.46 -127.01 41.46 -123.88 42.45 C-122.99 42.74 -122.1 43.03 -121.19 43.32 C-120.34 43.59 -119.49 43.86 -118.61 44.14 C-117.43 44.52 -117.43 44.52 -116.23 44.9 C-114.28 45.54 -114.28 45.54 -112.26 45.45 C-110.32 40.21 -108.38 34.96 -106.44 29.71 C-105.78 27.93 -105.12 26.15 -104.47 24.37 C-103.51 21.79 -102.56 19.22 -101.61 16.64 C-101.32 15.86 -101.03 15.08 -100.73 14.27 C-98.8 9.03 -96.99 3.76 -95.26 -1.55 C-101.72 -2.44 -107.64 -2.57 -114.13 -1.92 Z M-90.26 -0.55 C-94.44 8.15 -97.89 17.09 -101.24 26.13 C-102.14 28.55 -103.06 30.96 -103.97 33.37 C-104.54 34.91 -105.12 36.45 -105.69 37.99 C-106.1 39.07 -106.1 39.07 -106.52 40.17 C-107.16 41.91 -107.71 43.68 -108.26 45.45 C-107.47 47.58 -107.47 47.58 -105.57 48.14 C-104.5 48.44 -104.5 48.44 -103.4 48.74 C-102.22 49.07 -102.22 49.07 -101.02 49.41 C-99.77 49.74 -99.77 49.74 -98.51 50.08 C-97.7 50.31 -96.88 50.54 -96.05 50.77 C-91.82 51.93 -88.75 52.45 -84.26 52.45 C-81.95 47.17 -79.64 41.89 -77.26 36.45 C-78.82 43.7 -78.82 43.7 -79.32 45.97 C-80.58 50.89 -80.58 50.89 -79.26 55.45 C-76.62 56.62 -74.25 57.48 -71.51 58.27 C-70.79 58.49 -70.07 58.72 -69.34 58.96 C-65.3 60.17 -62.36 60.97 -58.26 59.45 C-56.72 57.09 -56.72 57.09 -55.76 54.05 C-55.14 52.37 -55.14 52.37 -54.51 50.66 C-53.89 48.89 -53.89 48.89 -53.26 47.08 C-52.43 44.78 -51.59 42.48 -50.76 40.18 C-50.35 39.05 -49.95 37.93 -49.53 36.77 C-47.95 32.65 -46.07 28.71 -44.08 24.77 C-43.15 22.14 -43.23 21.01 -44.26 18.45 C-53.92 8.04 -70.74 2.36 -84.26 -0.55 C-86.26 -0.58 -88.26 -0.58 -90.26 -0.55 Z M-15.26 2.45 C-15.26 3.77 -15.26 5.09 -15.26 6.45 C-14.27 6.12 -13.28 5.79 -12.26 5.45 C-12.26 4.46 -12.26 3.47 -12.26 2.45 C-13.25 2.45 -14.24 2.45 -15.26 2.45 Z M-162.06 12.1 C-162.72 12.46 -163.38 12.82 -164.06 13.18 C-164.79 13.57 -165.52 13.97 -166.27 14.37 C-167.03 14.79 -167.79 15.21 -168.57 15.64 C-169.69 16.24 -169.69 16.24 -170.83 16.85 C-175.14 19.18 -179.23 21.67 -183.26 24.45 C-180.63 27.08 -178.5 27.27 -174.88 28.08 C-173.74 28.34 -172.6 28.6 -171.42 28.87 C-168.14 29.57 -168.14 29.57 -164.26 29.45 C-161.95 23.84 -159.64 18.23 -157.26 12.45 C-160.07 11.17 -160.07 11.17 -162.06 12.1 Z M-39.26 23.45 C-46.26 38.94 -52.48 54.61 -58.18 70.61 C-59.47 74.21 -60.77 77.8 -62.08 81.38 C-62.9 83.68 -63.73 85.98 -64.55 88.28 C-64.94 89.34 -65.33 90.41 -65.73 91.51 C-66.25 92.99 -66.25 92.99 -66.79 94.5 C-67.1 95.36 -67.41 96.23 -67.72 97.11 C-68.51 99.74 -68.51 99.74 -67.26 103.45 C-54.88 106.92 -54.88 106.92 -42.26 110.45 C-38.89 102.66 -35.86 94.8 -32.95 86.83 C-32.58 85.84 -32.22 84.86 -31.85 83.85 C-31.51 82.92 -31.18 81.99 -30.83 81.04 C-30.53 80.2 -30.23 79.37 -29.91 78.51 C-29.16 76.5 -29.16 76.5 -29.26 74.45 C-29.82 74.26 -30.39 74.07 -30.97 73.87 C-31.71 73.61 -32.44 73.35 -33.2 73.08 C-33.93 72.82 -34.66 72.57 -35.41 72.3 C-37.26 71.45 -37.26 71.45 -38.26 69.45 C-34.63 69.78 -31 70.11 -27.26 70.45 C-25.94 67.87 -24.63 65.29 -23.32 62.7 C-22.95 61.97 -22.57 61.24 -22.19 60.49 C-21.83 59.78 -21.47 59.07 -21.11 58.34 C-20.78 57.69 -20.45 57.05 -20.11 56.38 C-19.23 54.38 -18.61 52.6 -18.26 50.45 C-22.19 41.36 -28.71 32.12 -36.39 25.81 C-37.34 25.03 -38.28 24.26 -39.26 23.45 Z M-185.26 29.45 C-186.97 34.26 -188.68 39.06 -190.38 43.87 C-190.97 45.51 -191.55 47.14 -192.13 48.78 C-192.97 51.12 -193.8 53.47 -194.63 55.82 C-194.9 56.55 -195.16 57.29 -195.43 58.04 C-196.79 61.66 -196.79 61.66 -197.26 65.45 C-194.66 66.29 -192.05 67.12 -189.45 67.95 C-188.71 68.19 -187.97 68.43 -187.21 68.68 C-184.13 69.65 -181.51 70.45 -178.26 70.45 C-176.54 65.67 -174.83 60.88 -173.13 56.09 C-172.55 54.46 -171.97 52.83 -171.38 51.21 C-170.55 48.87 -169.71 46.53 -168.88 44.18 C-168.62 43.46 -168.36 42.73 -168.09 41.98 C-167.04 39 -166.26 36.63 -166.26 33.45 C-168.86 32.78 -171.47 32.12 -174.07 31.45 C-174.81 31.26 -175.55 31.07 -176.31 30.88 C-179.36 30.1 -182.09 29.45 -185.26 29.45 Z M-199.38 37.02 C-200.56 38.12 -201.74 39.23 -202.92 40.34 C-203.49 40.87 -204.06 41.41 -204.65 41.97 C-206.66 43.83 -208.73 45.61 -210.82 47.39 C-213.66 49.86 -216.22 52.26 -218.26 55.45 C-217.56 58.72 -217.56 58.72 -214.42 59.88 C-213.25 60.31 -212.09 60.75 -210.88 61.2 C-209.14 61.88 -209.14 61.88 -207.36 62.56 C-204.26 63.77 -204.26 63.77 -201.26 62.45 C-199.89 59.61 -199.89 59.61 -198.78 56.08 C-198.56 55.44 -198.34 54.81 -198.12 54.15 C-197.66 52.8 -197.21 51.45 -196.76 50.1 C-196.07 48.02 -195.37 45.96 -194.67 43.89 C-192.28 37.79 -192.28 37.79 -191.26 31.45 C-194.76 31.45 -196.95 34.7 -199.38 37.02 Z M-135.26 43.45 C-139.04 52.77 -142.82 62.09 -146.32 71.52 C-146.72 72.6 -147.13 73.68 -147.54 74.8 C-148.54 77.53 -148.54 77.53 -147.26 80.45 C-144.47 81.5 -141.81 82.36 -138.95 83.14 C-138.17 83.37 -137.4 83.59 -136.6 83.82 C-132.92 84.86 -130.14 85.45 -126.26 85.45 C-124.54 80.51 -122.84 75.56 -121.13 70.61 C-120.55 68.93 -119.97 67.24 -119.38 65.56 C-118.55 63.14 -117.71 60.72 -116.88 58.3 C-116.49 57.17 -116.49 57.17 -116.09 56.02 C-114.74 52.32 -114.74 52.32 -114.26 48.45 C-117.01 47.61 -119.76 46.78 -122.51 45.95 C-123.29 45.71 -124.06 45.48 -124.86 45.23 C-125.62 45 -126.37 44.78 -127.15 44.55 C-127.84 44.34 -128.53 44.13 -129.24 43.91 C-131.56 43.31 -131.56 43.31 -135.26 43.45 Z M-109.26 50.45 C-112.79 58.35 -115.72 66.42 -118.57 74.58 C-118.93 75.61 -119.29 76.64 -119.67 77.71 C-120 78.68 -120.34 79.65 -120.68 80.65 C-120.99 81.53 -121.29 82.4 -121.6 83.31 C-122.36 85.4 -122.36 85.4 -122.26 87.45 C-119.18 88.46 -116.09 89.46 -113.01 90.45 C-111.7 90.88 -111.7 90.88 -110.36 91.32 C-109.52 91.59 -108.67 91.86 -107.8 92.14 C-106.64 92.52 -106.64 92.52 -105.46 92.9 C-102.99 93.62 -102.99 93.62 -99.26 93.45 C-95.79 84.72 -92.34 75.98 -89.32 67.08 C-88.92 65.89 -88.52 64.71 -88.11 63.49 C-87.08 60.34 -87.08 60.34 -87.26 56.45 C-90.55 55.45 -93.84 54.45 -97.13 53.45 C-98.07 53.17 -99.01 52.88 -99.97 52.59 C-100.87 52.32 -101.76 52.04 -102.69 51.77 C-103.51 51.51 -104.34 51.26 -105.19 51 C-107.22 50.37 -107.22 50.37 -109.26 50.45 Z M-17.26 57.45 C-18.1 59.58 -18.93 61.7 -19.76 63.83 C-20.22 65.01 -20.69 66.19 -21.16 67.41 C-22.37 70.23 -22.37 70.23 -22.26 72.45 C-18.38 73.65 -15.34 74.45 -11.26 74.45 C-11.87 71.8 -12.5 69.16 -13.13 66.52 C-13.31 65.76 -13.48 65.01 -13.66 64.23 C-14.13 62.29 -14.69 60.37 -15.26 58.45 C-15.92 58.12 -16.58 57.79 -17.26 57.45 Z M-82.26 58.45 C-84 63.22 -85.73 67.99 -87.44 72.76 C-88.02 74.38 -88.61 76 -89.21 77.62 C-90.06 79.95 -90.9 82.29 -91.73 84.62 C-92 85.35 -92.27 86.07 -92.54 86.82 C-93.51 89.57 -94.29 91.9 -94.11 94.83 C-92.66 97.59 -90.01 98.28 -87.26 99.45 C-90.23 99.45 -93.2 99.45 -96.26 99.45 C-100.8 111.33 -105.28 123.23 -109.38 135.27 C-109.69 136.15 -110 137.03 -110.31 137.94 C-110.59 138.75 -110.86 139.57 -111.14 140.41 C-111.38 141.12 -111.62 141.83 -111.87 142.57 C-112.47 144.66 -112.47 144.66 -111.26 147.45 C-108.45 148.53 -105.77 149.41 -102.88 150.2 C-102.1 150.44 -101.32 150.67 -100.52 150.91 C-95.91 152.34 -95.91 152.34 -91.26 151.45 C-90.06 149.14 -90.06 149.14 -89.13 146.23 C-88.74 145.11 -88.35 143.99 -87.95 142.83 C-87.53 141.6 -87.12 140.38 -86.69 139.11 C-86.24 137.83 -85.8 136.54 -85.35 135.26 C-84.17 131.85 -83.01 128.44 -81.84 125.03 C-80.69 121.66 -79.53 118.29 -78.37 114.93 C-77.91 113.6 -77.45 112.27 -76.99 110.95 C-76.77 110.29 -76.54 109.64 -76.31 108.96 C-75.63 106.99 -74.95 105.01 -74.27 103.04 C-70.06 90.8 -65.69 78.62 -61.26 66.45 C-64.37 62.98 -67.96 62.04 -72.32 60.77 C-73.42 60.43 -73.42 60.43 -74.54 60.08 C-78.33 58.88 -78.33 58.88 -82.26 58.45 Z M-220.26 61.45 C-221.74 65.45 -223.21 69.45 -224.68 73.45 C-225.18 74.8 -225.68 76.15 -226.18 77.5 C-228.91 84.89 -231.59 92.3 -234.12 99.76 C-234.53 100.98 -234.94 102.19 -235.37 103.44 C-236.4 106.41 -236.4 106.41 -236.26 109.45 C-234.37 110.13 -232.47 110.79 -230.57 111.45 C-229.51 111.82 -228.46 112.2 -227.37 112.58 C-224.45 113.4 -222.26 113.52 -219.26 113.45 C-212.59 94.99 -212.59 94.99 -206.13 76.45 C-205.76 75.36 -205.39 74.27 -205 73.14 C-204.08 70.28 -204.08 70.28 -204.26 66.45 C-206.36 65.61 -208.46 64.78 -210.57 63.95 C-211.74 63.49 -212.91 63.02 -214.12 62.55 C-217.18 61.29 -217.18 61.29 -220.26 61.45 Z M-227.26 65.45 C-237.13 75.65 -248.85 89.27 -254.26 102.45 C-253.93 103.44 -253.6 104.43 -253.26 105.45 C-250.47 106.49 -250.47 106.49 -247.2 107.14 C-245.54 107.52 -245.54 107.52 -243.85 107.9 C-242.99 108.08 -242.14 108.27 -241.26 108.45 C-237.79 101.02 -234.95 93.41 -232.2 85.69 C-231.44 83.56 -230.66 81.43 -229.88 79.3 C-229.4 77.94 -228.91 76.57 -228.43 75.21 C-227.99 73.99 -227.54 72.76 -227.09 71.5 C-225.95 68.44 -225.95 68.44 -227.26 65.45 Z M-199.26 68.45 C-201.4 74.64 -203.54 80.84 -205.67 87.03 C-206.39 89.14 -207.12 91.25 -207.85 93.35 C-208.9 96.38 -209.94 99.41 -210.98 102.44 C-211.47 103.85 -211.47 103.85 -211.97 105.29 C-212.27 106.17 -212.57 107.05 -212.88 107.96 C-213.15 108.73 -213.41 109.51 -213.69 110.3 C-214.43 112.73 -214.43 112.73 -214.26 116.45 C-212.03 117.15 -209.8 117.84 -207.57 118.52 C-205.71 119.09 -205.71 119.09 -203.81 119.68 C-199.4 120.7 -199.4 120.7 -195.26 119.45 C-193.62 116.74 -192.72 113.81 -191.74 110.82 C-191.44 109.94 -191.14 109.07 -190.83 108.17 C-189.87 105.38 -188.94 102.57 -188.01 99.77 C-187.37 97.89 -186.72 96.02 -186.08 94.15 C-185.46 92.35 -184.85 90.55 -184.24 88.75 C-183.96 87.91 -183.67 87.07 -183.38 86.21 C-181.97 81.97 -180.83 77.9 -180.26 73.45 C-182.86 72.61 -185.46 71.78 -188.07 70.95 C-188.81 70.71 -189.55 70.48 -190.31 70.23 C-193.39 69.25 -196 68.45 -199.26 68.45 Z M-175.26 75.45 C-177.57 81.8 -179.86 88.16 -182.15 94.51 C-182.93 96.68 -183.71 98.84 -184.5 101 C-185.63 104.1 -186.74 107.21 -187.86 110.32 C-188.39 111.77 -188.39 111.77 -188.93 113.25 C-189.25 114.15 -189.57 115.05 -189.9 115.98 C-190.19 116.77 -190.48 117.57 -190.77 118.38 C-191.49 120.63 -191.49 120.63 -190.26 123.45 C-187.47 124.53 -184.81 125.41 -181.95 126.2 C-181.17 126.44 -180.4 126.67 -179.6 126.91 C-174.44 128.48 -174.44 128.48 -169.26 127.45 C-168.11 125.65 -168.11 125.65 -167.43 123.33 C-167.13 122.46 -166.83 121.58 -166.52 120.68 C-166.21 119.73 -165.9 118.78 -165.59 117.8 C-165.26 116.83 -164.93 115.86 -164.59 114.86 C-163.55 111.75 -162.53 108.63 -161.51 105.52 C-160.8 103.42 -160.1 101.32 -159.39 99.22 C-158.11 95.38 -156.83 91.55 -155.57 87.7 C-155.19 86.54 -155.19 86.54 -154.8 85.36 C-154.17 83.46 -154.17 83.46 -154.26 81.45 C-157.38 80.45 -160.51 79.45 -163.63 78.45 C-164.52 78.17 -165.41 77.88 -166.33 77.59 C-167.18 77.32 -168.03 77.04 -168.91 76.77 C-169.69 76.51 -170.48 76.26 -171.29 76 C-173.24 75.36 -173.24 75.36 -175.26 75.45 Z M-24.26 76.45 C-27.54 84.08 -30.62 91.78 -33.63 99.52 C-34.19 100.91 -34.19 100.91 -34.75 102.33 C-35.09 103.21 -35.43 104.08 -35.78 104.99 C-36.09 105.78 -36.4 106.56 -36.72 107.38 C-37.5 109.62 -37.5 109.62 -36.26 112.45 C-34.03 113.62 -34.03 113.62 -31.27 114.5 C-30.25 114.85 -29.24 115.2 -28.19 115.56 C-27.12 115.92 -26.05 116.27 -24.95 116.64 C-23.36 117.19 -23.36 117.19 -21.74 117.76 C-15.64 119.85 -15.64 119.85 -9.26 120.45 C-8.32 114.9 -8.07 109.52 -8.07 103.89 C-8.07 103.02 -8.07 102.15 -8.07 101.25 C-8.13 93.84 -8.91 86.74 -10.26 79.45 C-12.03 78.95 -13.8 78.45 -15.57 77.95 C-16.56 77.67 -17.54 77.4 -18.56 77.11 C-21.28 76.34 -21.28 76.34 -24.26 76.45 Z M-150.26 83.45 C-152.24 89.18 -154.21 94.91 -156.18 100.64 C-156.85 102.59 -157.53 104.54 -158.2 106.48 C-159.17 109.29 -160.13 112.09 -161.1 114.9 C-161.4 115.76 -161.7 116.63 -162.01 117.52 C-163.48 121.82 -164.69 125.92 -165.26 130.45 C-154.55 134.83 -154.55 134.83 -143.26 136.45 C-141.44 131.21 -139.62 125.96 -137.81 120.71 C-137.2 118.93 -136.58 117.15 -135.96 115.37 C-135.07 112.79 -134.18 110.22 -133.3 107.64 C-133.02 106.86 -132.75 106.08 -132.47 105.27 C-130.68 100.06 -129.34 94.85 -128.26 89.45 C-135.35 86.22 -142.39 83.34 -150.26 83.45 Z M-123.26 90.45 C-127.34 100.98 -131.05 111.62 -134.63 122.33 C-134.86 123.01 -135.09 123.69 -135.33 124.39 C-135.98 126.35 -136.63 128.3 -137.28 130.26 C-137.66 131.4 -138.04 132.55 -138.44 133.73 C-139.35 136.3 -139.35 136.3 -139.26 138.45 C-136.18 139.49 -133.09 140.51 -130.01 141.52 C-129.14 141.81 -128.26 142.1 -127.36 142.41 C-126.52 142.68 -125.67 142.96 -124.8 143.24 C-124.03 143.49 -123.25 143.75 -122.46 144.02 C-119.92 144.52 -118.66 144.4 -116.26 143.45 C-115.1 141.7 -115.1 141.7 -114.41 139.46 C-114.11 138.61 -113.8 137.76 -113.49 136.89 C-113.18 135.96 -112.87 135.04 -112.55 134.09 C-112.22 133.15 -111.89 132.2 -111.55 131.23 C-110.86 129.23 -110.17 127.23 -109.49 125.23 C-108.45 122.16 -107.38 119.1 -106.31 116.04 C-105.64 114.1 -104.97 112.16 -104.3 110.21 C-103.98 109.3 -103.66 108.38 -103.33 107.44 C-103.04 106.58 -102.75 105.72 -102.46 104.84 C-102.2 104.09 -101.94 103.33 -101.68 102.56 C-101.04 100.13 -101.04 100.13 -102.26 96.45 C-109.19 94.47 -116.12 92.49 -123.26 90.45 Z M-267.26 94.45 C-270.08 97.27 -271.2 98.74 -271.51 102.77 C-271.43 103.65 -271.34 104.54 -271.26 105.45 C-268.84 105.5 -268.84 105.5 -266.26 104.45 C-264.19 101.15 -264.19 101.15 -263.26 97.45 C-263.92 96.46 -264.58 95.47 -265.26 94.45 C-265.92 94.45 -266.58 94.45 -267.26 94.45 Z M-70.26 106.45 C-73.78 114.83 -76.74 123.4 -79.69 132 C-80.51 134.41 -81.35 136.82 -82.19 139.24 C-82.72 140.78 -83.25 142.32 -83.77 143.86 C-84.02 144.57 -84.27 145.29 -84.53 146.03 C-85.53 148.97 -86.26 151.33 -86.26 154.45 C-82.51 155.63 -78.76 156.79 -75.01 157.95 C-73.94 158.29 -72.88 158.62 -71.79 158.96 C-70.25 159.44 -70.25 159.44 -68.68 159.92 C-67.74 160.22 -66.79 160.51 -65.82 160.81 C-63.05 161.62 -63.05 161.62 -59.26 161.45 C-57.12 155.24 -54.98 149.03 -52.85 142.82 C-52.12 140.7 -51.4 138.59 -50.67 136.48 C-49.62 133.44 -48.58 130.41 -47.54 127.37 C-47.21 126.42 -46.88 125.48 -46.54 124.5 C-46.24 123.62 -45.94 122.74 -45.63 121.83 C-45.24 120.67 -45.24 120.67 -44.83 119.48 C-44.12 117.32 -44.12 117.32 -44.26 114.45 C-52.78 111.12 -61.41 108.7 -70.26 106.45 Z M-257.26 107.45 C-265.9 122.78 -265.9 122.78 -273.51 138.64 C-273.94 139.62 -273.94 139.62 -274.38 140.62 C-275.56 143.41 -276.26 145.38 -276.26 148.45 C-273.86 149.13 -271.47 149.79 -269.07 150.45 C-268.06 150.74 -268.06 150.74 -267.03 151.03 C-263.32 152.04 -260.09 152.55 -256.26 152.45 C-254.26 146.94 -252.27 141.42 -250.28 135.9 C-249.6 134.02 -248.92 132.14 -248.24 130.27 C-247.26 127.57 -246.29 124.88 -245.32 122.18 C-245.01 121.34 -244.71 120.49 -244.39 119.63 C-243.97 118.45 -243.97 118.45 -243.54 117.26 C-243.29 116.57 -243.05 115.88 -242.79 115.17 C-242.16 113.43 -242.16 113.43 -242.26 111.45 C-244.38 110.78 -246.51 110.12 -248.63 109.45 C-250.41 108.9 -250.41 108.9 -252.22 108.33 C-255.05 107.36 -255.05 107.36 -257.26 107.45 Z M-238.26 113.45 C-239.93 118.17 -241.61 122.88 -243.27 127.59 C-243.84 129.2 -244.41 130.8 -244.98 132.4 C-245.8 134.71 -246.62 137.02 -247.44 139.33 C-247.82 140.39 -247.82 140.39 -248.2 141.48 C-249.72 145.77 -251.05 150.07 -252.26 154.45 C-246.65 156.7 -241.19 158.29 -235.26 159.45 C-231.55 149.91 -228.13 140.29 -224.88 130.58 C-224.53 129.51 -224.17 128.45 -223.8 127.35 C-223.47 126.36 -223.14 125.36 -222.8 124.34 C-222.5 123.44 -222.2 122.55 -221.9 121.63 C-221.16 119.51 -221.16 119.51 -221.26 117.45 C-223.34 116.78 -225.42 116.11 -227.51 115.45 C-228.67 115.08 -229.83 114.71 -231.02 114.33 C-234.34 113.28 -234.34 113.28 -238.26 113.45 Z M-39.26 116.45 C-43.02 126.18 -46.53 135.99 -49.94 145.84 C-50.4 147.17 -50.86 148.49 -51.33 149.82 C-51.98 151.7 -52.63 153.59 -53.28 155.48 C-53.66 156.58 -54.04 157.68 -54.44 158.82 C-55.36 161.31 -55.36 161.31 -55.26 163.45 C-43.99 167.09 -32.73 170.54 -21.26 173.45 C-17.55 163.8 -15.12 154 -12.95 143.89 C-12.68 142.67 -12.41 141.44 -12.14 140.18 C-11.01 134.83 -10.11 129.94 -10.26 124.45 C-14.34 123.11 -18.42 121.78 -22.51 120.45 C-23.67 120.07 -24.83 119.69 -26.02 119.3 C-27.13 118.94 -28.25 118.57 -29.4 118.2 C-30.42 117.87 -31.45 117.53 -32.51 117.19 C-35.43 116.28 -35.43 116.28 -39.26 116.45 Z M-216.26 119.45 C-219.4 127.01 -222.17 134.69 -224.83 142.43 C-225.52 144.41 -226.21 146.39 -226.9 148.37 C-227.34 149.64 -227.77 150.9 -228.21 152.17 C-228.6 153.3 -229 154.44 -229.4 155.61 C-230.4 158.44 -230.4 158.44 -230.26 161.45 C-227.82 162.32 -225.39 163.17 -222.95 164.02 C-222.26 164.26 -221.56 164.51 -220.85 164.76 C-216.6 166.28 -216.6 166.28 -212.26 165.45 C-211.08 163.29 -211.08 163.29 -210.17 160.6 C-209.8 159.59 -209.43 158.58 -209.05 157.54 C-208.66 156.46 -208.28 155.38 -207.88 154.27 C-207.49 153.18 -207.09 152.09 -206.68 150.97 C-205.89 148.79 -205.11 146.62 -204.33 144.44 C-203.42 141.91 -202.5 139.38 -201.56 136.85 C-199.14 130.8 -199.14 130.8 -198.26 124.45 C-200.88 123.62 -203.51 122.78 -206.13 121.95 C-206.88 121.71 -207.63 121.48 -208.39 121.23 C-212.25 119.93 -212.25 119.93 -216.26 119.45 Z M-193.26 126.45 C-195.1 131.47 -196.93 136.48 -198.76 141.5 C-199.38 143.21 -200 144.92 -200.63 146.62 C-201.53 149.08 -202.42 151.53 -203.32 153.99 C-203.74 155.13 -203.74 155.13 -204.16 156.28 C-205.62 160.33 -206.71 164.16 -207.26 168.45 C-196.55 172.83 -196.55 172.83 -185.26 174.45 C-183.4 169.12 -181.55 163.78 -179.7 158.44 C-179.08 156.62 -178.44 154.81 -177.81 152.99 C-176.9 150.38 -176 147.77 -175.1 145.16 C-174.82 144.35 -174.53 143.54 -174.24 142.7 C-173.98 141.94 -173.72 141.18 -173.45 140.4 C-173.1 139.4 -173.1 139.4 -172.75 138.38 C-172.09 136.14 -172.09 136.14 -172.26 132.45 C-175.38 131.45 -178.51 130.45 -181.63 129.45 C-182.52 129.17 -183.41 128.88 -184.33 128.59 C-185.18 128.32 -186.03 128.04 -186.91 127.77 C-187.69 127.51 -188.48 127.26 -189.29 127 C-191.24 126.36 -191.24 126.36 -193.26 126.45 Z M-167.26 134.45 C-170.63 143.43 -173.59 152.51 -176.51 161.64 C-176.97 163.08 -177.43 164.53 -177.9 165.97 C-179.02 169.46 -180.14 172.96 -181.26 176.45 C-178.37 177.49 -175.47 178.51 -172.57 179.52 C-171.75 179.81 -170.94 180.1 -170.1 180.41 C-169.3 180.68 -168.5 180.96 -167.68 181.24 C-166.96 181.49 -166.23 181.75 -165.48 182.02 C-162.51 182.6 -161.06 182.71 -158.26 181.45 C-156.86 178.63 -155.87 176.12 -154.93 173.15 C-154.64 172.31 -154.36 171.48 -154.07 170.62 C-153.18 167.94 -152.31 165.26 -151.45 162.58 C-150.84 160.78 -150.24 158.98 -149.63 157.18 C-149.06 155.46 -148.49 153.74 -147.93 152.02 C-147.52 150.8 -147.52 150.8 -147.11 149.56 C-146.1 146.43 -145.26 143.77 -145.26 140.45 C-148.36 139.45 -151.46 138.45 -154.57 137.45 C-155.45 137.17 -156.33 136.88 -157.24 136.59 C-158.09 136.32 -158.94 136.04 -159.81 135.77 C-160.59 135.51 -161.37 135.26 -162.17 135 C-164.38 134.33 -164.38 134.33 -167.26 134.45 Z M-4.26 141.45 C-6.24 146.62 -8.03 151.78 -9.57 157.09 C-10 158.56 -10.44 160.02 -10.88 161.49 C-11.1 162.25 -11.33 163.01 -11.56 163.79 C-16.41 180.11 -21.96 195.99 -28.31 211.79 C-29.22 214.34 -29.8 216.79 -30.26 219.45 C-28.94 219.78 -27.62 220.11 -26.26 220.45 C-15.82 195.85 -5.3 168.97 -1.26 142.45 C-2.25 142.12 -3.24 141.79 -4.26 141.45 Z M-141.26 142.45 C-142.95 147.47 -144.64 152.49 -146.33 157.5 C-146.9 159.21 -147.48 160.92 -148.06 162.62 C-148.89 165.08 -149.71 167.53 -150.54 169.99 C-150.79 170.75 -151.05 171.51 -151.31 172.28 C-152.66 176.33 -153.69 180.21 -154.26 184.45 C-151.16 185.49 -148.05 186.5 -144.95 187.52 C-144.06 187.81 -143.18 188.1 -142.28 188.41 C-141.43 188.68 -140.58 188.96 -139.71 189.24 C-138.93 189.49 -138.15 189.75 -137.34 190.02 C-135.08 190.67 -135.08 190.67 -132.26 189.45 C-131.06 186.77 -130.06 184.18 -129.12 181.4 C-128.84 180.59 -128.55 179.78 -128.26 178.95 C-127.66 177.23 -127.07 175.51 -126.48 173.79 C-125.58 171.16 -124.66 168.53 -123.73 165.91 C-123.15 164.24 -122.57 162.57 -122 160.9 C-121.72 160.12 -121.45 159.33 -121.16 158.52 C-120.91 157.78 -120.66 157.05 -120.4 156.29 C-120.18 155.64 -119.96 155 -119.73 154.33 C-119.09 152.13 -119.09 152.13 -119.26 148.45 C-122.36 147.45 -125.46 146.45 -128.57 145.45 C-129.45 145.17 -130.33 144.88 -131.24 144.59 C-132.09 144.32 -132.94 144.04 -133.81 143.77 C-134.59 143.51 -135.37 143.26 -136.17 143 C-138.38 142.33 -138.38 142.33 -141.26 142.45 Z M-114.26 150.45 C-116.09 155.65 -117.93 160.84 -119.76 166.04 C-120.38 167.81 -121 169.58 -121.63 171.34 C-122.53 173.88 -123.42 176.43 -124.32 178.97 C-124.74 180.15 -124.74 180.15 -125.16 181.36 C-125.55 182.47 -125.55 182.47 -125.95 183.6 C-126.18 184.25 -126.41 184.9 -126.64 185.57 C-127.28 187.51 -127.78 189.46 -128.26 191.45 C-118.58 196.11 -118.58 196.11 -108.2 197.19 C-105.83 196.55 -105.83 196.55 -104.69 193.11 C-104.18 191.63 -103.68 190.15 -103.21 188.66 C-102.94 187.87 -102.68 187.08 -102.41 186.28 C-101.86 184.61 -101.31 182.94 -100.77 181.27 C-99.95 178.72 -99.1 176.18 -98.24 173.64 C-97.71 172.02 -97.17 170.4 -96.64 168.78 C-96.26 167.64 -96.26 167.64 -95.87 166.48 C-94.59 162.45 -93.92 159.53 -95.26 155.45 C-97.86 154.61 -100.46 153.78 -103.07 152.95 C-103.81 152.71 -104.55 152.48 -105.31 152.23 C-108.39 151.25 -111 150.45 -114.26 150.45 Z M-279.26 152.45 C-280.66 156.52 -282.04 160.59 -283.42 164.67 C-283.89 166.05 -284.36 167.43 -284.83 168.81 C-287.64 176.96 -289.97 184.9 -291.26 193.45 C-285.32 195.1 -279.38 196.75 -273.26 198.45 C-269.66 190.03 -266.43 181.55 -263.45 172.89 C-263.04 171.73 -262.63 170.57 -262.21 169.37 C-261.83 168.26 -261.45 167.15 -261.05 166.01 C-260.71 165.01 -260.36 164.02 -260 162.99 C-259.12 160.41 -259.12 160.41 -259.26 157.45 C-262.03 156.61 -264.8 155.78 -267.57 154.95 C-268.36 154.71 -269.14 154.48 -269.95 154.23 C-271.09 153.89 -271.09 153.89 -272.25 153.55 C-272.94 153.34 -273.64 153.13 -274.36 152.91 C-276.42 152.34 -276.42 152.34 -279.26 152.45 Z M-88.26 158.45 C-91.51 166.29 -94.35 174.23 -97.07 182.27 C-97.49 183.47 -97.91 184.67 -98.34 185.9 C-98.73 187.06 -99.12 188.22 -99.53 189.41 C-99.88 190.45 -100.24 191.49 -100.61 192.57 C-101.29 195.62 -101.11 197.47 -100.26 200.45 C-96.68 201.46 -93.09 202.46 -89.51 203.45 C-87.98 203.88 -87.98 203.88 -86.43 204.32 C-85.45 204.59 -84.47 204.86 -83.46 205.14 C-82.56 205.39 -81.66 205.64 -80.73 205.9 C-78.03 206.6 -78.03 206.6 -74.26 206.45 C-72.38 200.94 -70.51 195.42 -68.65 189.9 C-68.01 188.02 -67.38 186.14 -66.74 184.27 C-65.82 181.57 -64.91 178.88 -64 176.18 C-63.71 175.34 -63.42 174.49 -63.13 173.63 C-62.45 171.59 -61.84 169.52 -61.26 167.45 C-62.09 165.22 -62.09 165.22 -64.54 164.58 C-65.53 164.3 -66.52 164.02 -67.54 163.73 C-68.61 163.42 -69.68 163.11 -70.78 162.79 C-71.91 162.47 -73.03 162.15 -74.2 161.83 C-75.32 161.5 -76.44 161.18 -77.6 160.84 C-82.85 159.15 -82.85 159.15 -88.26 158.45 Z M-254.26 159.45 C-259.38 172.64 -263.85 186.02 -268.26 199.45 C-264.1 201.33 -260.33 202.84 -255.82 203.64 C-254.3 203.91 -252.78 204.18 -251.26 204.45 C-247.92 197.31 -245.2 190 -242.63 182.55 C-241.94 180.56 -241.23 178.57 -240.53 176.59 C-240.09 175.32 -239.65 174.04 -239.21 172.77 C-238.81 171.63 -238.41 170.49 -238 169.31 C-236.97 166.41 -236.97 166.41 -238.26 163.45 C-241.17 162.19 -241.17 162.19 -244.63 161.27 C-245.8 160.92 -246.96 160.58 -248.16 160.22 C-251.21 159.33 -251.21 159.33 -254.26 159.45 Z M-232.26 165.45 C-235.38 173.04 -238.17 180.73 -240.83 188.49 C-241.52 190.48 -242.21 192.47 -242.9 194.46 C-243.34 195.73 -243.77 197 -244.21 198.27 C-244.6 199.41 -245 200.55 -245.4 201.72 C-246.36 204.29 -246.36 204.29 -246.26 206.45 C-243.82 207.29 -241.38 208.12 -238.95 208.95 C-238.26 209.19 -237.56 209.43 -236.85 209.68 C-233.87 210.69 -231.43 211.45 -228.26 211.45 C-226.4 206.26 -224.55 201.06 -222.7 195.86 C-222.08 194.1 -221.44 192.33 -220.81 190.56 C-219.9 188.02 -219 185.48 -218.1 182.94 C-217.82 182.15 -217.53 181.36 -217.24 180.55 C-216.98 179.81 -216.72 179.07 -216.45 178.3 C-216.22 177.66 -215.99 177.01 -215.75 176.34 C-215.09 174.13 -215.09 174.13 -215.26 170.45 C-223.67 167.98 -223.67 167.98 -232.26 165.45 Z M-57.26 168.45 C-58.97 173.5 -60.68 178.56 -62.38 183.61 C-62.96 185.33 -63.55 187.05 -64.13 188.77 C-64.97 191.24 -65.8 193.71 -66.63 196.19 C-66.9 196.95 -67.16 197.72 -67.43 198.51 C-68.6 202.03 -69.26 204.7 -69.26 208.45 C-65.76 209.58 -62.26 210.71 -58.76 211.83 C-57.28 212.3 -57.28 212.3 -55.78 212.79 C-50.31 214.54 -44.85 216.13 -39.26 217.45 C-32.54 204.84 -27.29 191.82 -22.26 178.45 C-24.82 175.89 -26.92 175.51 -30.4 174.51 C-31.64 174.15 -32.87 173.8 -34.14 173.43 C-35.11 173.16 -35.11 173.16 -36.1 172.88 C-38.06 172.33 -40.01 171.77 -41.96 171.2 C-43.2 170.85 -44.44 170.5 -45.71 170.13 C-46.85 169.81 -47.98 169.49 -49.15 169.16 C-51.99 168.51 -54.37 168.31 -57.26 168.45 Z M-209.26 172.45 C-212.41 180.03 -215.17 187.73 -217.83 195.49 C-218.52 197.48 -219.21 199.47 -219.9 201.46 C-220.34 202.73 -220.77 204 -221.21 205.27 C-221.6 206.41 -222 207.55 -222.4 208.72 C-223.36 211.29 -223.36 211.29 -223.26 213.45 C-216.33 215.76 -209.4 218.07 -202.26 220.45 C-199.33 217.53 -198.49 213.86 -197.18 210.02 C-196.9 209.18 -196.61 208.34 -196.31 207.48 C-195.7 205.72 -195.1 203.95 -194.5 202.18 C-193.57 199.46 -192.63 196.75 -191.69 194.04 C-191.11 192.32 -190.52 190.61 -189.93 188.89 C-189.65 188.08 -189.37 187.26 -189.08 186.42 C-188.41 184.45 -187.83 182.45 -187.26 180.45 C-188.07 178.26 -188.07 178.26 -190.3 177.68 C-191.61 177.31 -191.61 177.31 -192.95 176.95 C-193.89 176.68 -194.84 176.42 -195.81 176.14 C-196.8 175.88 -197.8 175.61 -198.82 175.33 C-199.82 175.05 -200.81 174.77 -201.84 174.49 C-204.31 173.8 -206.78 173.12 -209.26 172.45 Z M-182.26 180.45 C-185.68 187.72 -188.35 195.17 -190.89 202.78 C-191.58 204.85 -192.28 206.91 -192.99 208.96 C-193.43 210.28 -193.87 211.6 -194.31 212.91 C-194.71 214.1 -195.11 215.28 -195.52 216.5 C-196.55 219.48 -196.55 219.48 -195.26 222.45 C-193.25 223.43 -193.25 223.43 -190.79 224.06 C-189.89 224.32 -188.99 224.58 -188.06 224.85 C-187.12 225.11 -186.17 225.37 -185.2 225.64 C-184.25 225.91 -183.3 226.19 -182.32 226.47 C-179.97 227.14 -177.61 227.8 -175.26 228.45 C-171.93 221.32 -169.2 214.03 -166.63 206.6 C-165.94 204.62 -165.23 202.65 -164.53 200.67 C-164.09 199.41 -163.65 198.14 -163.21 196.87 C-162.81 195.73 -162.41 194.6 -162 193.43 C-161.06 189.81 -161.06 189.81 -162.26 186.45 C-164.24 185.35 -164.24 185.35 -166.73 184.75 C-167.63 184.49 -168.53 184.23 -169.46 183.97 C-170.4 183.72 -171.35 183.46 -172.32 183.2 C-173.74 182.8 -173.74 182.8 -175.2 182.39 C-177.55 181.73 -179.9 181.08 -182.26 180.45 Z M-156.26 189.45 C-159.57 197.53 -162.6 205.69 -165.57 213.89 C-165.8 214.53 -166.04 215.16 -166.28 215.81 C-166.97 217.67 -167.64 219.53 -168.31 221.39 C-168.71 222.48 -169.11 223.57 -169.52 224.7 C-170.55 227.51 -170.55 227.51 -169.26 230.45 C-166.47 231.5 -163.81 232.36 -160.95 233.14 C-160.17 233.37 -159.4 233.59 -158.6 233.82 C-154.92 234.86 -152.14 235.45 -148.26 235.45 C-146.56 230.74 -144.87 226.03 -143.19 221.31 C-142.61 219.71 -142.04 218.11 -141.46 216.51 C-140.63 214.2 -139.8 211.89 -138.98 209.57 C-138.59 208.51 -138.59 208.51 -138.2 207.43 C-136.67 203.09 -135.76 199.03 -135.26 194.45 C-137.82 193.61 -140.38 192.78 -142.95 191.95 C-143.67 191.71 -144.39 191.48 -145.13 191.23 C-145.84 191 -146.54 190.78 -147.27 190.55 C-147.91 190.34 -148.56 190.13 -149.22 189.91 C-151.61 189.37 -153.82 189.38 -156.26 189.45 Z M10.74 191.45 C9.7 193.34 8.69 195.24 7.68 197.14 C6.83 198.72 6.83 198.72 5.96 200.34 C4.65 203.68 4.65 205.1 5.74 208.45 C7.71 208.28 7.71 208.28 9.74 207.45 C10.85 205.58 10.85 205.58 11.43 203.27 C11.67 202.46 11.9 201.65 12.15 200.82 C12.84 198.05 13.38 195.29 13.74 192.45 C12.75 192.12 11.76 191.79 10.74 191.45 Z M-130.26 196.45 C-132.26 201.97 -134.25 207.49 -136.24 213.01 C-136.92 214.88 -137.6 216.76 -138.28 218.64 C-139.25 221.33 -140.22 224.03 -141.2 226.73 C-141.5 227.57 -141.81 228.41 -142.12 229.28 C-142.4 230.06 -142.68 230.84 -142.97 231.65 C-143.22 232.33 -143.47 233.02 -143.73 233.73 C-144.36 235.47 -144.36 235.47 -144.26 237.45 C-141.53 238.32 -138.8 239.17 -136.07 240.02 C-135.3 240.26 -134.53 240.51 -133.74 240.76 C-132.99 240.99 -132.24 241.22 -131.46 241.46 C-130.78 241.67 -130.09 241.89 -129.39 242.11 C-126.49 242.58 -124.99 242.63 -122.26 241.45 C-120.85 238.79 -119.85 236.45 -118.89 233.62 C-118.61 232.83 -118.32 232.04 -118.03 231.23 C-117.43 229.56 -116.85 227.89 -116.27 226.22 C-115.39 223.65 -114.47 221.1 -113.55 218.55 C-112.97 216.93 -112.4 215.31 -111.83 213.68 C-111.55 212.92 -111.28 212.16 -111 211.37 C-109.23 206.4 -109.23 206.4 -110.26 201.45 C-113.1 200.32 -115.7 199.47 -118.63 198.7 C-119.41 198.48 -120.2 198.26 -121 198.04 C-124.22 197.15 -126.9 196.45 -130.26 196.45 Z M-293.26 197.45 C-293.93 201.47 -294.6 205.49 -295.26 209.52 C-295.54 211.22 -295.54 211.22 -295.84 212.95 C-296.74 218.52 -297.52 223.81 -297.26 229.45 C-293.3 230.44 -289.34 231.43 -285.26 232.45 C-282.39 226.49 -280.09 220.4 -277.95 214.14 C-277.53 212.96 -277.53 212.96 -277.1 211.75 C-276.85 211 -276.59 210.24 -276.33 209.46 C-276.1 208.79 -275.87 208.11 -275.63 207.42 C-275.2 205.13 -275.55 203.65 -276.26 201.45 C-278.53 200.78 -280.8 200.12 -283.07 199.45 C-284.33 199.08 -285.6 198.71 -286.9 198.33 C-290.16 197.33 -290.16 197.33 -293.26 197.45 Z M-269.26 203.45 C-272.13 209.42 -274.42 215.51 -276.57 221.77 C-276.85 222.55 -277.13 223.34 -277.41 224.16 C-277.67 224.91 -277.92 225.66 -278.18 226.44 C-278.41 227.12 -278.65 227.79 -278.88 228.49 C-279.47 230.8 -279.47 230.8 -278.26 234.45 C-272.98 235.77 -267.7 237.09 -262.26 238.45 C-260.75 234.21 -259.25 229.96 -257.76 225.7 C-257.33 224.5 -256.9 223.29 -256.46 222.05 C-256.05 220.89 -255.64 219.73 -255.23 218.53 C-254.85 217.46 -254.47 216.39 -254.08 215.29 C-253.07 212.31 -253.07 212.31 -253.26 208.45 C-258.54 206.8 -263.82 205.15 -269.26 203.45 Z M-103.26 203.45 C-106.61 210.99 -109.56 218.51 -112.31 226.27 C-113.08 228.41 -113.85 230.56 -114.63 232.7 C-115.12 234.06 -115.6 235.43 -116.09 236.79 C-116.53 238.02 -116.97 239.25 -117.43 240.52 C-118.59 243.36 -118.59 243.36 -117.26 245.45 C-115.12 246.3 -115.12 246.3 -112.52 246.96 C-111.56 247.23 -110.59 247.49 -109.59 247.76 C-108.58 248.03 -107.56 248.3 -106.51 248.58 C-105.5 248.86 -104.5 249.13 -103.47 249.42 C-98.93 250.64 -94.98 251.62 -90.26 251.45 C-86.88 242.59 -83.58 233.7 -80.38 224.77 C-80.07 223.92 -79.76 223.07 -79.44 222.19 C-79.16 221.39 -78.87 220.58 -78.58 219.75 C-78.2 218.69 -78.2 218.69 -77.81 217.6 C-77.05 215.02 -77.05 215.02 -77.26 210.45 C-85.84 208.14 -94.42 205.83 -103.26 203.45 Z M-248.26 210.45 C-249.77 214.53 -251.26 218.62 -252.76 222.7 C-253.19 223.86 -253.62 225.02 -254.06 226.21 C-254.67 227.89 -254.67 227.89 -255.29 229.59 C-255.67 230.62 -256.04 231.65 -256.43 232.7 C-257.45 235.61 -257.45 235.61 -257.26 239.45 C-254.63 240.29 -252.01 241.12 -249.38 241.95 C-248.26 242.31 -248.26 242.31 -247.12 242.68 C-243.27 243.98 -243.27 243.98 -239.26 244.45 C-237.72 240.19 -236.21 235.91 -234.7 231.64 C-234.04 229.82 -234.04 229.82 -233.37 227.96 C-232.96 226.8 -232.55 225.63 -232.13 224.43 C-231.75 223.36 -231.36 222.29 -230.97 221.18 C-229.98 218.39 -229.98 218.39 -231.26 215.45 C-233.75 214.41 -236.12 213.55 -238.7 212.77 C-239.39 212.54 -240.08 212.32 -240.8 212.08 C-244.46 210.87 -244.46 210.87 -248.26 210.45 Z M-71.26 212.45 C-74.55 220.51 -77.6 228.65 -80.57 236.83 C-80.8 237.46 -81.04 238.09 -81.28 238.74 C-81.97 240.58 -82.64 242.44 -83.31 244.29 C-83.71 245.38 -84.11 246.47 -84.52 247.59 C-85.26 250.45 -85.58 251.81 -84.26 254.45 C-82.62 255.48 -82.62 255.48 -80.55 255.97 C-79.8 256.19 -79.05 256.41 -78.27 256.63 C-77.09 256.95 -77.09 256.95 -75.88 257.27 C-75.1 257.49 -74.32 257.72 -73.52 257.96 C-68.91 259.35 -68.91 259.35 -64.26 258.45 C-62.67 256.59 -62.67 256.59 -61.18 254.25 C-60.6 253.38 -60.02 252.51 -59.42 251.61 C-58.81 250.67 -58.2 249.73 -57.57 248.77 C-56.95 247.82 -56.32 246.87 -55.68 245.89 C-46.75 233.94 -46.75 233.94 -42.26 220.45 C-46.07 219.31 -49.87 218.17 -53.68 217.04 C-54.98 216.65 -56.28 216.26 -57.57 215.87 C-59.43 215.31 -61.29 214.76 -63.16 214.2 C-64.28 213.87 -65.4 213.53 -66.55 213.19 C-69.11 212.37 -69.11 212.37 -71.26 212.45 Z M3.74 214.45 C3.74 215.77 3.74 217.09 3.74 218.45 C4.73 218.12 5.72 217.79 6.74 217.45 C6.41 216.46 6.08 215.47 5.74 214.45 C5.08 214.45 4.42 214.45 3.74 214.45 Z M-225.26 218.45 C-228.23 227.36 -231.2 236.27 -234.26 245.45 C-230.96 247.1 -227.66 248.75 -224.26 250.45 C-227.89 250.12 -231.52 249.79 -235.26 249.45 C-239.27 260.35 -242.82 271.36 -246.26 282.45 C-241.45 284.32 -236.78 285.94 -231.76 287.14 C-230.72 287.39 -229.67 287.64 -228.6 287.9 C-227.83 288.08 -227.05 288.27 -226.26 288.45 C-225.27 286.47 -224.28 284.49 -223.26 282.45 C-222.6 282.45 -221.94 282.45 -221.26 282.45 C-221.26 285.09 -221.26 287.73 -221.26 290.45 C-217.99 291.46 -214.72 292.46 -211.45 293.45 C-210.52 293.74 -209.59 294.03 -208.63 294.32 C-207.74 294.59 -206.85 294.86 -205.93 295.14 C-205.1 295.39 -204.28 295.64 -203.43 295.9 C-201.15 296.58 -201.15 296.58 -198.26 296.45 C-196.69 291.93 -195.12 287.41 -193.56 282.89 C-193.03 281.35 -192.49 279.81 -191.96 278.28 C-191.19 276.07 -190.43 273.86 -189.66 271.65 C-189.42 270.96 -189.18 270.27 -188.93 269.56 C-187.68 266.09 -187.68 266.09 -187.26 262.45 C-194.54 260.13 -201.76 257.98 -209.26 256.45 C-209.5 257.06 -209.74 257.66 -209.99 258.29 C-210.7 260.05 -211.4 261.81 -212.11 263.57 C-212.87 265.47 -213.61 267.39 -214.34 269.31 C-214.69 270.2 -215.03 271.1 -215.38 272.02 C-215.69 272.84 -216.01 273.67 -216.33 274.52 C-217.26 276.45 -217.26 276.45 -219.26 277.45 C-216.91 266.45 -214.47 255.99 -209.75 245.75 C-208.12 242.16 -206.72 238.53 -205.38 234.83 C-204.97 233.7 -204.56 232.57 -204.14 231.41 C-203.07 228.33 -203.07 228.33 -203.26 224.45 C-206.17 223.44 -209.09 222.45 -212.01 221.45 C-212.83 221.17 -213.66 220.88 -214.51 220.59 C-215.31 220.32 -216.11 220.04 -216.93 219.77 C-217.66 219.51 -218.4 219.26 -219.15 219 C-221.54 218.28 -221.54 218.28 -225.26 218.45 Z M-33.26 223.45 C-35.53 226.23 -35.53 226.23 -37.26 229.45 C-36.93 230.44 -36.6 231.43 -36.26 232.45 C-34.26 231.66 -34.26 231.66 -32.26 230.45 C-31.93 229.46 -31.6 228.47 -31.26 227.45 C-30.6 227.45 -29.94 227.45 -29.26 227.45 C-29.92 226.13 -30.58 224.81 -31.26 223.45 C-31.92 223.45 -32.58 223.45 -33.26 223.45 Z M-198.26 226.45 C-204.55 239.53 -204.55 239.53 -207.26 253.45 C-204.34 254.29 -201.43 255.13 -198.51 255.95 C-197.27 256.31 -197.27 256.31 -196.01 256.68 C-194.81 257.01 -194.81 257.01 -193.59 257.36 C-192.85 257.57 -192.12 257.78 -191.36 257.99 C-188.97 258.6 -188.97 258.6 -185.26 258.45 C-183.91 254.87 -182.58 251.29 -181.26 247.7 C-180.88 246.69 -180.49 245.67 -180.1 244.62 C-179.74 243.65 -179.38 242.67 -179.01 241.66 C-178.51 240.31 -178.51 240.31 -177.99 238.93 C-177.07 236.24 -177.07 236.24 -177.26 232.45 C-180.19 231.45 -183.13 230.45 -186.07 229.45 C-186.9 229.17 -187.74 228.88 -188.6 228.59 C-189.4 228.32 -190.2 228.04 -191.03 227.77 C-191.77 227.51 -192.5 227.26 -193.26 227 C-195.4 226.32 -195.4 226.32 -198.26 226.45 Z M-298.26 232.45 C-298.83 247.54 -298.83 247.54 -297.26 262.45 C-296.6 263.11 -295.94 263.77 -295.26 264.45 C-293.97 260.65 -292.69 256.84 -291.41 253.03 C-290.98 251.73 -290.54 250.44 -290.1 249.14 C-289.47 247.28 -288.85 245.42 -288.23 243.55 C-287.85 242.43 -287.47 241.31 -287.08 240.16 C-286.16 237.61 -286.16 237.61 -286.26 235.45 C-292.2 233.97 -292.2 233.97 -298.26 232.45 Z M-172.26 234.45 C-173.39 237.28 -174.51 240.12 -175.63 242.95 C-176.11 244.14 -176.11 244.14 -176.59 245.35 C-178.56 250.34 -180.07 255.23 -181.26 260.45 C-177.97 261.46 -174.68 262.46 -171.38 263.45 C-170.45 263.74 -169.51 264.03 -168.54 264.32 C-167.2 264.73 -167.2 264.73 -165.83 265.14 C-165 265.39 -164.17 265.64 -163.32 265.9 C-161.29 266.54 -161.29 266.54 -159.26 266.45 C-157.72 262.33 -156.21 258.21 -154.7 254.08 C-154.26 252.9 -153.82 251.73 -153.37 250.52 C-152.96 249.39 -152.55 248.27 -152.13 247.12 C-151.75 246.08 -151.36 245.04 -150.97 243.98 C-149.96 241.49 -149.96 241.49 -151.26 239.45 C-153.03 238.71 -153.03 238.71 -155.19 238.16 C-155.98 237.94 -156.78 237.73 -157.6 237.5 C-158.43 237.28 -159.27 237.06 -160.13 236.83 C-160.96 236.6 -161.79 236.37 -162.64 236.13 C-167.38 234.84 -167.38 234.84 -172.26 234.45 Z M-281.26 236.45 C-282.53 240.15 -283.79 243.85 -285.05 247.55 C-285.68 249.42 -286.33 251.29 -286.97 253.15 C-289.04 259.29 -290.81 264.98 -291.26 271.45 C-289.18 271.96 -287.09 272.46 -285.01 272.95 C-283.85 273.23 -282.69 273.51 -281.49 273.8 C-278.15 274.59 -278.15 274.59 -274.26 274.45 C-272.8 270.26 -271.36 266.06 -269.93 261.86 C-269.44 260.43 -268.95 259 -268.45 257.57 C-267.74 255.52 -267.04 253.46 -266.35 251.41 C-265.92 250.17 -265.5 248.93 -265.06 247.66 C-263.96 244.32 -263.96 244.32 -265.26 240.45 C-270.54 239.13 -275.82 237.81 -281.26 236.45 Z M-8.26 237.45 C-10.92 240.78 -11.62 243.23 -11.26 247.45 C-8.81 247.35 -8.81 247.35 -6.26 246.45 C-4.4 243.18 -4.26 241.29 -4.26 237.45 C-5.58 237.45 -6.9 237.45 -8.26 237.45 Z M-146.26 241.45 C-147.79 245.57 -149.31 249.7 -150.82 253.83 C-151.26 255 -151.7 256.18 -152.15 257.39 C-152.56 258.51 -152.97 259.63 -153.39 260.79 C-153.77 261.83 -154.15 262.86 -154.55 263.93 C-155.55 266.42 -155.55 266.42 -154.26 268.45 C-152.24 269.3 -152.24 269.3 -149.79 269.96 C-148.89 270.23 -147.99 270.49 -147.06 270.76 C-146.12 271.03 -145.17 271.3 -144.2 271.58 C-143.25 271.86 -142.3 272.13 -141.32 272.42 C-138.97 273.1 -136.61 273.78 -134.26 274.45 C-134.06 273.9 -133.85 273.35 -133.65 272.79 C-132.73 270.28 -131.8 267.77 -130.88 265.27 C-130.57 264.4 -130.25 263.54 -129.92 262.65 C-129.61 261.81 -129.3 260.96 -128.98 260.1 C-128.69 259.28 -128.39 258.47 -128.08 257.63 C-127.44 255.93 -126.72 254.25 -125.97 252.59 C-125.13 250.08 -125.53 248.94 -126.26 246.45 C-129.21 245.62 -132.17 244.78 -135.13 243.95 C-135.97 243.71 -136.82 243.48 -137.68 243.23 C-138.49 243 -139.29 242.78 -140.12 242.55 C-140.87 242.34 -141.61 242.13 -142.38 241.91 C-144.26 241.37 -144.26 241.37 -146.26 241.45 Z M-259.26 242.45 C-260.83 246.97 -262.39 251.49 -263.96 256.02 C-264.49 257.55 -265.02 259.09 -265.56 260.63 C-266.33 262.84 -267.09 265.05 -267.85 267.26 C-268.09 267.95 -268.33 268.64 -268.58 269.35 C-269.83 272.82 -269.83 272.82 -270.26 276.45 C-260.85 278.93 -260.85 278.93 -251.26 281.45 C-249.83 277.26 -248.4 273.06 -246.99 268.86 C-246.5 267.43 -246.02 266 -245.53 264.57 C-244.83 262.52 -244.14 260.46 -243.45 258.41 C-242.82 256.55 -242.82 256.55 -242.18 254.66 C-241.07 251.37 -241.07 251.37 -241.26 247.45 C-243.88 246.62 -246.51 245.78 -249.13 244.95 C-249.88 244.71 -250.63 244.48 -251.39 244.23 C-255.25 242.93 -255.25 242.93 -259.26 242.45 Z M-120.26 249.45 C-121.39 252.28 -122.51 255.12 -123.63 257.95 C-124.11 259.14 -124.11 259.14 -124.59 260.35 C-126.56 265.34 -128.07 270.23 -129.26 275.45 C-123.47 277.6 -117.66 279.69 -111.82 281.7 C-110.85 282.04 -109.88 282.37 -108.89 282.72 C-106.07 283.63 -106.07 283.63 -102.26 283.45 C-98.96 274.87 -95.66 266.29 -92.26 257.45 C-95.6 254.94 -96.88 254.04 -100.63 253.07 C-101.45 252.85 -102.27 252.63 -103.12 252.41 C-103.97 252.2 -104.82 251.99 -105.7 251.77 C-106.54 251.54 -107.39 251.32 -108.26 251.08 C-112.32 250.04 -116.02 249.13 -120.26 249.45 Z M-87.26 257.45 C-89.74 263.57 -92.15 269.72 -94.51 275.89 C-94.78 276.59 -95.05 277.29 -95.33 278.01 C-96.45 280.96 -97.26 283.26 -97.26 286.45 C-94.62 287.11 -91.98 287.77 -89.26 288.45 C-76.51 276.68 -76.51 276.68 -69.26 262.45 C-75.2 260.8 -81.14 259.15 -87.26 257.45 Z M-17.26 263.45 C-20.13 266.72 -22.51 270.25 -24.88 273.89 C-35.13 289.36 -46.07 304.24 -58.78 317.79 C-60.82 319.98 -62.77 322.22 -64.7 324.52 C-80.46 342.54 -101.66 356.53 -122.26 368.45 C-121.93 369.44 -121.6 370.43 -121.26 371.45 C-105.41 366.76 -89.96 352.37 -78.1 341.12 C-75.95 339.11 -73.79 337.18 -71.56 335.26 C-58.22 323.64 -45.54 310.88 -35.26 296.45 C-34.87 295.91 -34.49 295.37 -34.09 294.82 C-31.43 291.06 -28.84 287.26 -26.26 283.45 C-24.62 281.05 -22.97 278.66 -21.32 276.27 C-20.59 275.2 -19.86 274.13 -19.11 273.04 C-17.26 270.45 -17.26 270.45 -15.26 268.45 C-15.09 265.87 -15.09 265.87 -15.26 263.45 C-15.92 263.45 -16.58 263.45 -17.26 263.45 Z M-183.26 264.45 C-184.83 268.97 -186.39 273.49 -187.96 278.02 C-188.49 279.55 -189.02 281.09 -189.56 282.63 C-190.33 284.84 -191.09 287.05 -191.85 289.26 C-192.09 289.95 -192.33 290.64 -192.58 291.35 C-193.83 294.82 -193.83 294.82 -194.26 298.45 C-191.32 299.46 -188.38 300.46 -185.45 301.45 C-184.61 301.74 -183.78 302.03 -182.92 302.32 C-182.12 302.59 -181.32 302.86 -180.49 303.14 C-179.75 303.39 -179.01 303.64 -178.25 303.9 C-176.12 304.59 -176.12 304.59 -173.26 304.45 C-171.54 299.95 -169.83 295.45 -168.13 290.95 C-167.55 289.41 -166.97 287.88 -166.38 286.35 C-165.55 284.15 -164.71 281.95 -163.88 279.75 C-163.62 279.06 -163.36 278.38 -163.09 277.67 C-162 274.78 -161.26 272.57 -161.26 269.45 C-163.98 268.61 -166.71 267.78 -169.45 266.95 C-170.21 266.71 -170.98 266.48 -171.78 266.23 C-172.53 266 -173.28 265.78 -174.05 265.55 C-174.74 265.34 -175.42 265.13 -176.13 264.91 C-178.55 264.39 -180.79 264.38 -183.26 264.45 Z M-156.26 271.45 C-159.33 278.11 -162 284.87 -164.51 291.77 C-164.87 292.74 -165.23 293.72 -165.61 294.72 C-165.95 295.66 -166.3 296.6 -166.65 297.57 C-166.96 298.41 -167.27 299.25 -167.59 300.12 C-168.44 302.69 -168.44 302.69 -168.26 306.45 C-165.51 307.29 -162.76 308.13 -160.01 308.95 C-159.23 309.19 -158.45 309.43 -157.65 309.68 C-156.9 309.9 -156.14 310.13 -155.37 310.36 C-154.68 310.57 -153.98 310.78 -153.27 310.99 C-150.95 311.6 -150.95 311.6 -147.26 311.45 C-145.79 307.48 -144.34 303.5 -142.88 299.52 C-142.47 298.4 -142.06 297.28 -141.63 296.13 C-139.38 289.94 -137.51 283.92 -136.26 277.45 C-139.4 276.45 -142.55 275.45 -145.7 274.45 C-146.59 274.17 -147.49 273.88 -148.42 273.59 C-149.7 273.18 -149.7 273.18 -151 272.77 C-151.79 272.51 -152.59 272.26 -153.4 272 C-155.09 271.41 -155.09 271.41 -156.26 271.45 Z M-293.26 274.45 C-294.99 280.39 -293.21 284.55 -291.07 290.08 C-290.77 290.92 -290.46 291.77 -290.15 292.64 C-288.31 297.53 -287.16 299.55 -283.26 303.45 C-280.95 295.53 -278.64 287.61 -276.26 279.45 C-284.52 275.68 -284.52 275.68 -293.26 274.45 Z M-131.26 279.45 C-132.85 283.95 -134.44 288.45 -136.01 292.96 C-136.55 294.49 -137.09 296.02 -137.63 297.55 C-138.41 299.75 -139.18 301.96 -139.95 304.16 C-140.19 304.84 -140.44 305.53 -140.69 306.23 C-142.12 310.29 -142.12 310.29 -141.26 314.45 C-138.81 315.35 -136.52 316.03 -134.01 316.64 C-133.34 316.82 -132.67 317 -131.98 317.18 C-125.65 319.06 -125.65 319.06 -119.57 317.48 C-114.06 313.34 -111.81 308.11 -109.32 301.83 C-108.92 300.89 -108.52 299.95 -108.12 298.98 C-106.4 294.82 -105.26 292.02 -105.26 287.45 C-109.03 286.11 -112.8 284.78 -116.57 283.45 C-117.64 283.07 -118.71 282.69 -119.82 282.3 C-120.85 281.94 -121.87 281.57 -122.93 281.2 C-123.88 280.87 -124.83 280.53 -125.81 280.19 C-128.31 279.31 -128.31 279.31 -131.26 279.45 Z M-272.26 280.45 C-273.63 284.65 -274.98 288.87 -276.32 293.08 C-276.71 294.27 -277.1 295.46 -277.5 296.68 C-277.87 297.84 -278.23 298.99 -278.61 300.18 C-278.95 301.24 -279.29 302.3 -279.64 303.39 C-280.33 306.82 -280.16 309.08 -279.26 312.45 C-277.52 314.75 -275.87 316.72 -273.88 318.77 C-273.39 319.3 -272.89 319.84 -272.38 320.39 C-270.05 322.87 -268.53 324.36 -265.26 325.45 C-263.55 320.08 -261.84 314.7 -260.13 309.33 C-259.55 307.5 -258.97 305.67 -258.38 303.84 C-257.55 301.21 -256.72 298.59 -255.88 295.96 C-255.62 295.14 -255.36 294.32 -255.09 293.47 C-253.75 289.54 -253.75 289.54 -253.26 285.45 C-255.86 284.61 -258.46 283.78 -261.07 282.95 C-261.81 282.71 -262.55 282.48 -263.31 282.23 C-266.39 281.25 -269 280.45 -272.26 280.45 Z M-248.26 287.45 C-250.14 293.07 -252.01 298.7 -253.87 304.32 C-254.5 306.24 -255.14 308.15 -255.78 310.06 C-256.7 312.81 -257.61 315.56 -258.51 318.31 C-258.8 319.17 -259.09 320.02 -259.39 320.9 C-259.78 322.1 -259.78 322.1 -260.18 323.33 C-260.41 324.03 -260.64 324.73 -260.88 325.45 C-261.33 327.82 -261.13 329.22 -260.26 331.45 C-248.67 339.22 -229.15 345.97 -215.26 345.45 C-211.83 337.35 -209.02 329.06 -206.26 320.71 C-205.5 318.43 -204.74 316.15 -203.97 313.87 C-203.49 312.42 -203.01 310.97 -202.52 309.52 C-202.3 308.84 -202.07 308.16 -201.83 307.45 C-200.65 304.03 -200.65 304.03 -200.26 300.45 C-203.69 299.42 -207.13 298.4 -210.57 297.39 C-212.04 296.95 -212.04 296.95 -213.53 296.5 C-214.47 296.22 -215.4 295.95 -216.37 295.67 C-217.24 295.41 -218.1 295.15 -218.99 294.89 C-221.41 294.23 -221.41 294.23 -224.26 295.45 C-225.44 297.91 -225.44 297.91 -226.32 300.83 C-227.41 304.14 -228.31 306.53 -230.26 309.45 C-229.6 303.84 -228.94 298.23 -228.26 292.45 C-231.03 291.61 -233.8 290.78 -236.57 289.95 C-237.36 289.71 -238.14 289.48 -238.95 289.23 C-240.09 288.89 -240.09 288.89 -241.25 288.55 C-241.94 288.34 -242.64 288.13 -243.36 287.91 C-245.42 287.34 -245.42 287.34 -248.26 287.45 Z M-99.26 289.45 C-100.12 291.41 -100.97 293.37 -101.82 295.33 C-102.3 296.42 -102.77 297.51 -103.26 298.63 C-103.59 299.56 -103.92 300.49 -104.26 301.45 C-103.93 302.11 -103.6 302.77 -103.26 303.45 C-101.59 301.83 -99.92 300.21 -98.26 298.58 C-96.87 297.22 -96.87 297.22 -95.45 295.84 C-93.03 293.75 -93.03 293.75 -93.26 291.45 C-95.24 290.79 -97.22 290.13 -99.26 289.45 Z M-196.26 302.45 C-203.19 323.74 -203.19 323.74 -210.26 345.45 C-206.33 349.38 -199.5 348.51 -194.2 348.52 C-192.9 348.5 -191.6 348.47 -190.26 348.45 C-186.96 341.26 -184.03 333.94 -181.2 326.55 C-180.69 325.22 -180.18 323.9 -179.66 322.58 C-178.91 320.64 -178.17 318.71 -177.43 316.77 C-176.99 315.63 -176.54 314.49 -176.09 313.31 C-174.95 310.42 -174.95 310.42 -176.26 307.45 C-179.06 306.4 -181.75 305.54 -184.63 304.77 C-185.41 304.54 -186.2 304.32 -187 304.08 C-190.22 303.18 -192.89 302.45 -196.26 302.45 Z M-91.26 305.45 C-91.92 306.77 -92.58 308.09 -93.26 309.45 C-91.94 309.78 -90.62 310.11 -89.26 310.45 C-88.93 308.8 -88.6 307.15 -88.26 305.45 C-89.25 305.45 -90.24 305.45 -91.26 305.45 Z M-292.26 309.45 C-291.26 311.45 -291.26 311.45 -291.26 311.45 Z M-170.26 309.45 C-173.89 317.94 -177.1 326.47 -180.07 335.2 C-180.48 336.39 -180.88 337.58 -181.3 338.8 C-182.29 341.68 -183.28 344.57 -184.26 347.45 C-177.91 347.02 -172.24 346.12 -166.26 343.95 C-165.6 343.73 -164.95 343.5 -164.28 343.27 C-161.88 342.43 -159.54 341.59 -157.26 340.45 C-156.22 338.18 -156.22 338.18 -155.31 335.39 C-154.96 334.37 -154.6 333.34 -154.24 332.29 C-153.87 331.21 -153.51 330.13 -153.13 329.02 C-152.76 327.94 -152.39 326.86 -152 325.76 C-150.05 320.72 -150.05 320.72 -149.26 315.45 C-156.19 313.47 -163.12 311.49 -170.26 309.45 Z M-108.56 317.86 C-139.9 343.16 -177.55 358.32 -218.26 355.45 C-232.89 353.59 -249.61 351.16 -261.2 341.39 C-261.73 340.96 -262.27 340.52 -262.82 340.08 C-265.06 338.27 -267.27 336.45 -269.45 334.58 C-270.05 334.21 -270.64 333.84 -271.26 333.45 C-272.25 333.78 -273.24 334.11 -274.26 334.45 C-266.64 347.46 -253.39 353.23 -239.36 357.03 C-201.2 366.89 -162.03 358.43 -128.21 338.64 C-118.74 332.87 -110.27 326.1 -102.26 318.45 C-102.59 317.13 -102.92 315.81 -103.26 314.45 C-105.4 314.45 -106.96 316.56 -108.56 317.86 Z M-144.26 317.45 C-145.29 320.05 -146.31 322.66 -147.32 325.27 C-147.61 326 -147.91 326.74 -148.21 327.5 C-150.03 331.9 -150.03 331.9 -149.26 336.45 C-137.84 330.63 -137.84 330.63 -127.26 323.45 C-127.59 322.79 -127.92 322.13 -128.26 321.45 C-130.95 320.65 -133.59 319.96 -136.32 319.33 C-137.08 319.15 -137.84 318.96 -138.62 318.78 C-140.5 318.33 -142.38 317.89 -144.26 317.45 Z M-302.26 472.45 C-303.41 474.89 -304.55 477.33 -305.7 479.77 C-306.02 480.46 -306.35 481.15 -306.68 481.86 C-308.01 484.7 -309.26 487.47 -310.26 490.45 C-303.89 493.38 -297.44 495.97 -290.86 498.38 C-289.9 498.73 -288.95 499.08 -287.96 499.45 C-285.96 500.18 -283.95 500.91 -281.94 501.65 C-278.87 502.77 -275.8 503.91 -272.72 505.05 C-270.77 505.76 -268.81 506.48 -266.86 507.19 C-265.48 507.71 -265.48 507.71 -264.08 508.23 C-263.22 508.54 -262.37 508.84 -261.49 509.16 C-260.75 509.44 -260 509.71 -259.23 509.99 C-257.06 510.68 -257.06 510.68 -254.26 509.45 C-253.21 506.83 -252.35 504.34 -251.57 501.64 C-251.35 500.92 -251.12 500.19 -250.89 499.44 C-249.84 495.95 -249.26 493.13 -249.26 489.45 C-254.77 487.51 -260.28 485.57 -265.8 483.64 C-267.67 482.98 -269.54 482.32 -271.41 481.66 C-274.12 480.71 -276.82 479.76 -279.53 478.81 C-280.77 478.37 -280.77 478.37 -282.03 477.93 C-291.93 474.07 -291.93 474.07 -302.26 472.45 Z M-312.26 496.45 C-314.9 501.73 -317.54 507.01 -320.26 512.45 C-316.55 516.16 -314.66 517.41 -310.01 519.37 C-309.4 519.63 -308.79 519.89 -308.17 520.16 C-306.2 520.99 -304.23 521.82 -302.26 522.64 C-299.54 523.79 -296.83 524.94 -294.11 526.1 C-293.44 526.38 -292.77 526.67 -292.08 526.96 C-285.35 529.82 -278.71 532.86 -272.11 536 C-267.83 538.17 -267.83 538.17 -263.26 537.45 C-262.27 535.63 -262.27 535.63 -261.62 533.38 C-261.35 532.54 -261.09 531.71 -260.81 530.86 C-260.55 529.98 -260.28 529.1 -260.01 528.2 C-259.73 527.34 -259.45 526.48 -259.16 525.6 C-257.74 521.05 -257.04 518.17 -258.26 513.45 C-259.09 513.18 -259.09 513.18 -259.93 512.9 C-265.69 510.98 -271.45 509.07 -277.21 507.15 C-279.36 506.44 -281.51 505.73 -283.65 505.01 C-286.75 503.99 -289.84 502.96 -292.93 501.93 C-293.88 501.61 -294.84 501.29 -295.83 500.97 C-296.73 500.67 -297.63 500.37 -298.56 500.06 C-299.35 499.8 -300.14 499.53 -300.95 499.26 C-302.59 498.69 -304.21 498.04 -305.8 497.35 C-308.45 496.22 -308.45 496.22 -312.26 496.45 Z M-322.26 517.45 C-327.88 528.57 -327.88 528.57 -333.32 539.77 C-333.93 541.03 -333.93 541.03 -334.54 542.32 C-335.54 544.6 -335.54 544.6 -334.26 547.45 C-332.06 548.8 -332.06 548.8 -329.27 549.95 C-328.21 550.42 -327.14 550.89 -326.04 551.38 C-324.87 551.88 -323.71 552.38 -322.51 552.89 C-321.32 553.41 -320.12 553.93 -318.9 554.46 C-315.02 556.15 -311.14 557.8 -307.26 559.45 C-305.91 560.03 -304.55 560.61 -303.2 561.19 C-299.89 562.6 -296.56 564 -293.24 565.4 C-291.96 565.93 -290.69 566.47 -289.41 567.01 C-287.63 567.76 -285.84 568.51 -284.04 569.25 C-283.02 569.68 -282 570.1 -280.95 570.54 C-278.1 571.67 -278.1 571.67 -274.26 571.45 C-273.1 568.1 -271.96 564.75 -270.82 561.39 C-270.33 559.98 -270.33 559.98 -269.83 558.53 C-268.13 553.49 -266.78 548.76 -266.26 543.45 C-272.93 539.98 -279.8 537.04 -286.72 534.11 C-297.56 529.5 -308.19 524.7 -318.5 518.96 C-320.88 517.37 -320.88 517.37 -322.26 517.45 Z M-338.26 550.45 C-339.91 554.03 -341.55 557.62 -343.2 561.2 C-343.66 562.22 -344.13 563.23 -344.62 564.28 C-345.06 565.26 -345.51 566.24 -345.97 567.25 C-346.39 568.15 -346.8 569.05 -347.23 569.98 C-348.13 572.15 -348.72 574.18 -349.26 576.45 C-342.88 579.17 -336.49 581.89 -330.11 584.61 C-327.95 585.54 -325.78 586.46 -323.62 587.38 C-313.21 591.82 -302.8 596.26 -292.35 600.61 C-291.65 600.9 -290.95 601.19 -290.23 601.5 C-286.86 602.97 -286.86 602.97 -283.26 603.45 C-282.06 599.52 -280.87 595.58 -279.7 591.64 C-279.35 590.52 -279.01 589.4 -278.66 588.25 C-278.34 587.17 -278.02 586.1 -277.69 585 C-277.39 584.01 -277.09 583.02 -276.79 582 C-276.01 579.35 -276.01 579.35 -277.26 576.45 C-279.48 575.21 -279.48 575.21 -282.28 574.21 C-283.35 573.79 -284.42 573.37 -285.53 572.94 C-286.7 572.49 -287.87 572.04 -289.07 571.58 C-291.53 570.61 -293.99 569.64 -296.45 568.65 C-297.08 568.4 -297.72 568.14 -298.37 567.88 C-306.78 564.48 -314.95 560.58 -323.14 556.69 C-324.25 556.17 -325.36 555.65 -326.5 555.11 C-327.47 554.64 -328.44 554.18 -329.43 553.7 C-332.33 552.42 -335.24 551.41 -338.26 550.45 Z M-351.26 579.45 C-353.95 584.77 -356.61 590.11 -359.26 595.45 C-359.84 596.63 -359.84 596.63 -360.44 597.83 C-361.58 600.14 -362.7 602.45 -363.82 604.77 C-364.18 605.49 -364.54 606.21 -364.91 606.95 C-367.02 611.05 -367.02 611.05 -366.26 615.45 C-363.84 616.47 -361.53 617.29 -359.02 618.05 C-357.91 618.41 -357.91 618.41 -356.78 618.78 C-355.18 619.29 -353.59 619.79 -352 620.29 C-338.13 624.67 -324.63 629.42 -311.4 635.48 C-307.94 637.05 -304.44 638.53 -300.95 640.02 C-299.05 640.83 -297.15 641.64 -295.26 642.45 C-293.96 638.29 -292.67 634.12 -291.38 629.95 C-290.84 628.19 -290.84 628.19 -290.28 626.4 C-288.44 620.45 -286.68 614.52 -285.26 608.45 C-293.71 604.4 -302.3 600.71 -310.95 597.08 C-318.78 593.78 -326.61 590.47 -334.38 587.02 C-335.07 586.71 -335.76 586.4 -336.48 586.09 C-339.92 584.55 -343.32 582.94 -346.69 581.23 C-349.74 579.38 -349.74 579.38 -351.26 579.45 Z M-281.26 611.45 C-283.71 617.82 -285.87 624.26 -287.95 630.77 C-288.27 631.75 -288.59 632.74 -288.92 633.76 C-289.22 634.71 -289.52 635.65 -289.83 636.63 C-290.11 637.48 -290.38 638.34 -290.66 639.22 C-291.39 641.55 -291.39 641.55 -291.26 644.45 C-290.6 644.45 -289.94 644.45 -289.26 644.45 C-287.95 640.08 -286.65 635.7 -285.36 631.32 C-284.92 629.83 -284.47 628.34 -284.03 626.85 C-283.39 624.71 -282.76 622.57 -282.13 620.43 C-281.93 619.76 -281.72 619.09 -281.52 618.41 C-280.32 614.88 -280.32 614.88 -281.26 611.45 Z M-370.26 619.45 C-371.89 622.99 -373.53 626.53 -375.17 630.07 C-375.99 631.85 -376.82 633.64 -377.64 635.42 C-379.18 638.76 -380.72 642.11 -382.26 645.45 C-382.68 646.37 -383.1 647.29 -383.54 648.24 C-384.09 649.45 -384.09 649.45 -384.65 650.68 C-384.96 651.37 -385.28 652.06 -385.6 652.77 C-386.38 654.46 -386.38 654.46 -386.26 656.45 C-385.49 656.68 -384.72 656.91 -383.93 657.15 C-360.17 664.32 -337.41 672.77 -314.74 682.88 C-313.72 683.33 -313.72 683.33 -312.69 683.8 C-310.82 684.63 -308.95 685.46 -307.09 686.29 C-304.46 687.58 -304.46 687.58 -302.26 687.45 C-300.66 682.38 -299.08 677.31 -297.5 672.24 C-296.97 670.51 -296.43 668.78 -295.88 667.06 C-295.1 664.58 -294.33 662.1 -293.57 659.62 C-293.32 658.85 -293.07 658.08 -292.82 657.28 C-291.42 652.89 -291.42 652.89 -292.26 648.45 C-294.16 647.19 -294.16 647.19 -296.59 646.14 C-297.52 645.71 -298.45 645.28 -299.4 644.84 C-300.94 644.15 -300.94 644.15 -302.51 643.45 C-303.57 642.97 -304.64 642.49 -305.73 642 C-336.94 626.66 -336.94 626.66 -370.26 619.45 Z M-389.26 661.45 C-391.1 665.63 -392.93 669.81 -394.76 674 C-395.38 675.42 -396 676.84 -396.63 678.26 C-397.53 680.3 -398.42 682.35 -399.32 684.4 C-399.6 685.03 -399.87 685.66 -400.16 686.31 C-401.62 689.67 -402.7 692.83 -403.26 696.45 C-401.55 696.93 -399.84 697.4 -398.13 697.87 C-396.55 698.31 -394.98 698.75 -393.41 699.19 C-388.7 700.5 -383.99 701.8 -379.27 703.06 C-356.83 709.13 -336.22 716.43 -316.26 728.45 C-314.54 723.51 -312.84 718.56 -311.13 713.61 C-310.55 711.93 -309.97 710.24 -309.38 708.56 C-308.55 706.14 -307.71 703.72 -306.88 701.3 C-306.49 700.17 -306.49 700.17 -306.09 699.02 C-304.74 695.32 -304.74 695.32 -304.26 691.45 C-326.44 681.33 -348.67 671.83 -372.07 664.83 C-373.22 664.48 -374.36 664.14 -375.54 663.79 C-380.26 662.42 -384.32 661.25 -389.26 661.45 Z M-384.26 706.45 C-384.59 707.77 -384.92 709.09 -385.26 710.45 C-372.3 715.56 -359.28 720.47 -345.26 721.45 C-346.82 718.32 -349.4 718.1 -352.64 716.92 C-353.28 716.69 -353.93 716.45 -354.59 716.2 C-355.96 715.7 -357.34 715.21 -358.71 714.71 C-360.79 713.96 -362.87 713.2 -364.94 712.44 C-371.31 710.12 -377.62 707.89 -384.26 706.45 Z " fill="#000000" transform="translate(665.2578125,200.546875)"/>
<path d="M0 0 C3.95 2.63 4.06 5.46 5.12 9.81 C6.68 15.58 6.68 15.58 10.32 20.17 C12.53 21.35 14.6 22.29 17 23 C15.17 27.15 12.47 29.12 9 32 C7.82 35.54 7.89 38.34 7.9 42.07 C7.9 43.1 7.9 43.1 7.91 44.15 C7.91 46.33 7.92 48.51 7.94 50.69 C7.94 52.17 7.95 53.65 7.95 55.13 C7.96 58.75 7.98 62.38 8 66 C6.68 66 5.36 66 4 66 C1.82 60.43 1.17 54.83 0.44 48.94 C0.19 46.99 -0.06 45.04 -0.32 43.09 C-0.42 42.23 -0.53 41.38 -0.64 40.49 C-1 37.97 -1.48 35.49 -2 33 C-2.85 32.82 -2.85 32.82 -3.71 32.63 C-4.45 32.47 -5.18 32.3 -5.94 32.12 C-6.67 31.96 -7.4 31.8 -8.15 31.63 C-10 31 -10 31 -11 29 C-9.03 26.89 -7.43 25.21 -4.81 23.94 C-2.64 23.08 -2.64 23.08 -2 20 C-1.87 18.53 -1.78 17.06 -1.72 15.59 C-1.68 14.74 -1.64 13.9 -1.61 13.03 C-1.53 11.25 -1.46 9.47 -1.39 7.7 C-1.36 6.85 -1.32 6.01 -1.28 5.15 C-1.24 3.99 -1.24 3.99 -1.19 2.81 C-1 1 -1 1 0 0 Z M3 23 C0.72 25.82 0.72 25.82 1 29 C2.32 28.67 3.64 28.34 5 28 C5.33 26.68 5.66 25.36 6 24 C5.01 23.67 4.02 23.34 3 23 Z " fill="#000000" transform="translate(268,269)"/>
<path d="M0 0 C2.56 0.19 2.56 0.19 4.56 2.19 C4.81 4.69 4.81 4.69 4.56 7.19 C2.56 9.19 2.56 9.19 0.06 9.5 C-1.18 9.35 -1.18 9.35 -2.44 9.19 C-4.44 6.19 -4.44 6.19 -4.12 3.56 C-3.16 0.24 -3.16 0.24 0 0 Z " fill="#000000" transform="translate(278.4375,399.8125)"/>
<path d="M0 0 C1.32 0.33 2.64 0.66 4 1 C4.12 1.57 4.23 2.13 4.35 2.71 C4.88 5.27 5.41 7.82 5.94 10.38 C6.12 11.26 6.3 12.15 6.49 13.07 C6.67 13.92 6.84 14.77 7.03 15.65 C7.27 16.83 7.27 16.83 7.52 18.03 C7.94 20.06 7.94 20.06 9 22 C11.36 22.47 11.36 22.47 14.06 22.62 C14.98 22.7 15.9 22.77 16.85 22.85 C17.56 22.9 18.27 22.95 19 23 C19.33 24.65 19.66 26.3 20 28 C18.6 29.14 17.2 30.28 15.8 31.42 C14.91 32.2 14.91 32.2 14 33 C12.72 34.08 12.72 34.08 11.42 35.18 C8.43 38.67 8.42 40.23 8.55 44.76 C8.57 46.04 8.59 47.33 8.61 48.65 C8.66 50 8.7 51.34 8.75 52.69 C8.82 55.34 8.87 57.99 8.92 60.64 C8.96 61.81 9 62.98 9.03 64.19 C9 67 9 67 8 69 C6.51 68.5 6.51 68.5 5 68 C4.85 67.1 4.71 66.2 4.56 65.28 C4.01 61.95 3.47 58.62 2.92 55.29 C2.68 53.85 2.45 52.41 2.21 50.97 C1.87 48.9 1.53 46.83 1.19 44.76 C0.99 43.51 0.78 42.27 0.57 40.98 C0.16 38.09 0.16 38.09 -1 36 C-3.11 35.09 -3.11 35.09 -5.56 34.38 C-6.39 34.11 -7.22 33.85 -8.07 33.59 C-8.7 33.39 -9.34 33.2 -10 33 C-9.88 30.81 -9.88 30.81 -9 28 C-8.03 27.2 -7.06 26.39 -6.06 25.56 C-2.56 22.63 -2.06 21.35 -1 17 C-0.89 14.42 -0.87 11.83 -0.94 9.25 C-1.1 2.19 -1.1 2.19 0 0 Z M4 23 C3.32 24.21 3.32 24.21 2.62 25.44 C1 28 1 28 -1 29 C-1 29.66 -1 30.32 -1 31 C0.98 31.99 2.96 32.98 5 34 C6.71 32.38 8.37 30.71 10 29 C10 28.34 10 27.68 10 27 C9.38 26.71 8.76 26.42 8.12 26.12 C6 25 6 25 4 23 Z " fill="#000000" transform="translate(761,400)"/>
<path d="M0 0 C3 -0.38 3 -0.38 6 0 C8 3 8 3 7.75 5.06 C7 7 7 7 5 9 C2.5 8.94 2.5 8.94 0 8 C-1.44 5.62 -1.44 5.62 -2 3 C-1.34 2.01 -0.68 1.02 0 0 Z " fill="#000000" transform="translate(189,450)"/>
<path d="M0 0 C2.31 -0.31 2.31 -0.31 5 0 C6.81 2.5 6.81 2.5 8 5 C7.01 6.32 6.02 7.64 5 9 C2.03 8.5 2.03 8.5 -1 8 C-1.93 5.39 -2.15 4.36 -1.06 1.75 C-0.71 1.17 -0.36 0.6 0 0 Z " fill="#000000" transform="translate(275,457)"/>
<path d="M0 0 C2.5 0.25 2.5 0.25 4.5 2.25 C4.75 4.75 4.75 4.75 4.5 7.25 C2.5 9.25 2.5 9.25 0 9.5 C-2.5 9.25 -2.5 9.25 -4.5 7.25 C-4.75 4.75 -4.75 4.75 -4.5 2.25 C-2.5 0.25 -2.5 0.25 0 0 Z " fill="#000000" transform="translate(716.5,463.75)"/>
<path d="M0 0 C1.98 0.5 1.98 0.5 4 1 C3.34 2.32 2.68 3.64 2 5 C1.01 4.34 0.02 3.68 -1 3 C-0.67 2.01 -0.34 1.02 0 0 Z " fill="#000000" transform="translate(707,493)"/>
<path d="M0 0 C0.99 0.33 1.98 0.66 3 1 C3 2.65 3 4.3 3 6 C2.01 6.33 1.02 6.66 0 7 C-0.99 6.01 -1.98 5.02 -3 4 C-2.67 3.01 -2.34 2.02 -2 1 C-1.34 0.67 -0.68 0.34 0 0 Z " fill="#000000" transform="translate(306,505)"/>
<path d="M0 0 C1 1 1 1 1.12 4 C1 7 1 7 0 8 C-2.94 8.19 -2.94 8.19 -6 8 C-6.66 7.34 -7.32 6.68 -8 6 C-7.75 2.94 -7.75 2.94 -7 0 C-4.32 -1.34 -2.85 -0.73 0 0 Z " fill="#000000" transform="translate(668,508)"/>
<path d="M0 0 C2.5 0.25 2.5 0.25 4.5 2.25 C4.75 4.75 4.75 4.75 4.5 7.25 C2.5 9.25 2.5 9.25 0 9.5 C-2.5 9.25 -2.5 9.25 -4.5 7.25 C-4.75 4.75 -4.75 4.75 -4.5 2.25 C-2.5 0.25 -2.5 0.25 0 0 Z " fill="#000000" transform="translate(805.5,519.75)"/>
<path d="M0 0 C1.94 0.75 1.94 0.75 3.94 2.75 C3.61 6.05 3.31 7.37 0.94 9.75 C-1.69 9.38 -1.69 9.38 -4.06 8.75 C-4.39 6.44 -4.72 4.13 -5.06 1.75 C-2.06 -0.25 -2.06 -0.25 0 0 Z " fill="#000000" transform="translate(222.0625,526.25)"/>
<path d="M0 0 C2.38 0.19 2.38 0.19 5 1 C6.31 3.56 6.31 3.56 7 6 C5.81 7.56 5.81 7.56 4 9 C1.44 8.94 1.44 8.94 -1 8 C-2.31 5.94 -2.31 5.94 -3 4 C-2.01 2.68 -1.02 1.36 0 0 Z " fill="#000000" transform="translate(681,543)"/>
<path d="M0 0 C2.5 0.25 2.5 0.25 4.5 2.25 C3.93 7.82 3.93 7.82 2.5 9.25 C0.06 9.44 0.06 9.44 -2.5 9.25 C-4.5 7.25 -4.5 7.25 -4.75 4.75 C-4.4 1.26 -3.49 0.35 0 0 Z " fill="#000000" transform="translate(340.5,543.75)"/>
<path d="M0 0 C1.32 0.33 2.64 0.66 4 1 C5.32 6.28 6.64 11.56 8 17 C10.54 17.39 13.08 17.78 15.62 18.17 C18 19 18 19 19.32 21.08 C19.54 21.71 19.77 22.35 20 23 C19.39 23.18 18.77 23.36 18.14 23.55 C17.33 23.8 16.52 24.05 15.69 24.31 C14.89 24.56 14.09 24.8 13.26 25.05 C10.76 26.1 9.66 26.87 8 29 C7.59 31.51 7.59 31.51 7.71 34.32 C7.72 35.35 7.73 36.38 7.74 37.44 C7.76 38.51 7.79 39.58 7.81 40.69 C7.83 41.77 7.84 42.85 7.85 43.97 C7.89 46.65 7.94 49.32 8 52 C6.51 52.5 6.51 52.5 5 53 C2.63 47.19 0.95 41.28 -0.55 35.19 C-1.37 31.98 -2.14 29.79 -4 27 C-6.31 26.12 -8.62 25.55 -11 24.94 C-13 24 -13 24 -13.78 21.9 C-13.85 21.27 -13.92 20.65 -14 20 C-8 18 -8 18 -2 16 C-1.34 10.72 -0.68 5.44 0 0 Z M1 20 C1 21.32 1 22.64 1 24 C1.99 24 2.98 24 4 24 C4 22.68 4 21.36 4 20 C3.01 20 2.02 20 1 20 Z " fill="#000000" transform="translate(267,567)"/>
<path d="M0 0 C1.32 0.33 2.64 0.66 4 1 C4 2.65 4 4.3 4 6 C3.01 6.33 2.02 6.66 1 7 C0.01 6.01 -0.98 5.02 -2 4 C-1.34 2.68 -0.68 1.36 0 0 Z " fill="#000000" transform="translate(309,567)"/>
<path d="M0 0 C2 3 2 3 1.62 5.69 C1.42 6.45 1.21 7.21 1 8 C-1.88 8.62 -1.88 8.62 -5 9 C-7 7 -7 7 -7.12 3.88 C-7.08 2.93 -7.04 1.98 -7 1 C-4.47 -0.27 -2.81 -0.28 0 0 Z " fill="#000000" transform="translate(727,573)"/>
<path d="M0 0 C4.88 0.88 4.88 0.88 6 2 C6.19 4.44 6.19 4.44 6 7 C4 9 4 9 1.38 9.12 C0.59 9.08 -0.19 9.04 -1 9 C-2.19 6.75 -2.19 6.75 -3 4 C-1.62 1.69 -1.62 1.69 0 0 Z " fill="#000000" transform="translate(671,577)"/>
<path d="M0 0 C2.5 0.12 2.5 0.12 5 1 C6.38 2.88 6.38 2.88 7 5 C6.67 5.99 6.34 6.98 6 8 C3.69 8.33 1.38 8.66 -1 9 C-3 6 -3 6 -2.75 3.94 C-2 2 -2 2 0 0 Z " fill="#000000" transform="translate(636,594)"/>
<path d="M0 0 C2.63 1.49 3.01 3.24 3.88 6.06 C2.56 7.38 1.24 8.7 -0.12 10.06 C-4.81 8.62 -4.81 8.62 -6.19 6.19 C-6.12 4.06 -6.12 4.06 -4.44 1.75 C-2.12 0.06 -2.12 0.06 0 0 Z " fill="#000000" transform="translate(335.125,603.9375)"/>
<path d="M0 0 C2.5 0.25 2.5 0.25 4.5 2.25 C4.75 4.75 4.75 4.75 4.5 7.25 C3.84 7.91 3.18 8.57 2.5 9.25 C-0.62 8.88 -0.62 8.88 -3.5 8.25 C-4.12 5.38 -4.12 5.38 -4.5 2.25 C-2.5 0.25 -2.5 0.25 0 0 Z " fill="#000000" transform="translate(769.5,604.75)"/>
<path d="M0 0 C0.99 0.66 1.98 1.32 3 2 C2.67 2.99 2.34 3.98 2 5 C0.68 4.67 -0.64 4.34 -2 4 C-2 3.01 -2 2.02 -2 1 C-1.34 0.67 -0.68 0.34 0 0 Z " fill="#000000" transform="translate(372,610)"/>
<path d="M0 0 C3.3 0.33 4.62 0.62 7 3 C6.44 7.56 6.44 7.56 5 9 C2.56 9.19 2.56 9.19 0 9 C-2 7 -2 7 -2.25 4.5 C-2 2 -2 2 0 0 Z " fill="#000000" transform="translate(529,614)"/>
<path d="M0 0 C2.5 0.25 2.5 0.25 4.5 2.25 C4.81 4.75 4.81 4.75 4.5 7.25 C1.5 9.25 1.5 9.25 -1.19 8.88 C-1.95 8.67 -2.71 8.46 -3.5 8.25 C-4.12 5.38 -4.12 5.38 -4.5 2.25 C-2.5 0.25 -2.5 0.25 0 0 Z " fill="#000000" transform="translate(474.5,623.75)"/>
<path d="M0 0 C4.88 0.88 4.88 0.88 6 2 C6.19 4.44 6.19 4.44 6 7 C5.34 7.66 4.68 8.32 4 9 C1.5 8.88 1.5 8.88 -1 8 C-2.31 5.94 -2.31 5.94 -3 4 C-2.01 2.68 -1.02 1.36 0 0 Z " fill="#000000" transform="translate(567,626)"/>
<path d="M0 0 C3.12 0.38 3.12 0.38 6 1 C6.69 3.31 6.69 3.31 7 6 C5.88 7.88 5.88 7.88 4 9 C-0.42 8.58 -0.42 8.58 -2 7 C-2.19 4.56 -2.19 4.56 -2 2 C-1.34 1.34 -0.68 0.68 0 0 Z " fill="#000000" transform="translate(727,627)"/>
<path d="M0 0 C2.62 0.56 2.62 0.56 5 2 C5.81 4.62 5.81 4.62 6 7 C4.31 8.62 4.31 8.62 2 10 C-0.75 9.19 -0.75 9.19 -3 8 C-3.19 5.12 -3.19 5.12 -3 2 C-2.01 1.34 -1.02 0.68 0 0 Z " fill="#000000" transform="translate(626,656)"/>
<path d="M0 0 C2.62 0.94 2.62 0.94 5 2 C5 3.98 5 5.96 5 8 C3.35 8.66 1.7 9.32 0 10 C-1.32 8.68 -2.64 7.36 -4 6 C-2.25 1.12 -2.25 1.12 0 0 Z " fill="#000000" transform="translate(582,660)"/>
<path d="M0 0 C3.12 0.38 3.12 0.38 6 1 C6.62 3.88 6.62 3.88 7 7 C5 9 5 9 2.5 9.25 C0 9 0 9 -2 7 C-2.25 4.5 -2.25 4.5 -2 2 C-1.34 1.34 -0.68 0.68 0 0 Z " fill="#000000" transform="translate(472,671)"/>
<path d="M0 0 C3.12 0.38 3.12 0.38 6 1 C6.62 3.31 6.62 3.31 7 6 C6.01 7.49 6.01 7.49 5 9 C2.5 9.31 2.5 9.31 0 9 C-2 7 -2 7 -2.25 4.5 C-2 2 -2 2 0 0 Z " fill="#000000" transform="translate(528,682)"/>
<path d="M0 0 C3.26 2.6 3.8 5.25 4.72 9.24 C5.16 11.09 5.16 11.09 5.61 12.97 C5.9 14.27 6.2 15.57 6.5 16.88 C7.09 19.42 7.68 21.96 8.28 24.49 C8.54 25.62 8.8 26.75 9.06 27.91 C10.01 31.03 11.1 33.36 13 36 C15.67 37.18 18.26 37.83 21.1 38.49 C26.86 39.86 26.86 39.86 29 42 C28.93 44.46 28.93 44.46 28 47 C25.86 48.51 25.86 48.51 23.19 49.69 C22.31 50.08 21.44 50.48 20.54 50.89 C18 52 18 52 15.74 52.77 C13.72 53.91 13.72 53.91 13.41 56.6 C12.97 60.28 12.79 63.89 12.68 67.59 C12.66 68.29 12.64 68.99 12.62 69.71 C12.56 71.93 12.5 74.15 12.44 76.38 C12.39 77.89 12.35 79.4 12.31 80.92 C12.2 84.61 12.1 88.31 12 92 C11.01 91.67 10.02 91.34 9 91 C8.06 88.24 8.06 88.24 7.28 84.59 C7.14 83.94 6.99 83.29 6.84 82.62 C6.38 80.54 5.94 78.46 5.5 76.38 C5.06 74.31 4.61 72.25 4.16 70.19 C3.74 68.31 3.34 66.42 2.94 64.53 C1.91 60.68 0.87 57.53 -1 54 C-2.99 52.74 -2.99 52.74 -5.34 52.51 C-6.18 52.36 -7.01 52.21 -7.87 52.06 C-8.74 51.94 -9.61 51.81 -10.5 51.69 C-12.22 51.41 -13.94 51.12 -15.66 50.82 C-16.42 50.71 -17.18 50.6 -17.96 50.48 C-20 50 -20 50 -23 48 C-22.79 46.13 -22.79 46.13 -22 44 C-20 42.84 -20 42.84 -17.44 41.94 C-16.09 41.45 -16.09 41.45 -14.72 40.95 C-13.82 40.63 -12.92 40.32 -12 40 C-7.14 38.57 -7.14 38.57 -3 36 C-1.44 28.39 -1.98 20.62 -2.13 12.9 C-2.14 11.81 -2.15 10.73 -2.16 9.61 C-2.18 8.63 -2.19 7.65 -2.21 6.64 C-1.99 3.92 -1.39 2.32 0 0 Z M3 34 C2.59 35.09 2.17 36.19 1.75 37.31 C0.35 40.55 -0.82 42.27 -4 44 C-5.98 44.72 -7.98 45.4 -10 46 C-10 46.33 -10 46.66 -10 47 C-8.52 47.24 -8.52 47.24 -7.01 47.48 C-5.73 47.71 -4.45 47.95 -3.12 48.19 C-1.85 48.41 -0.57 48.63 0.74 48.86 C4 50 4 50 5.45 52.61 C5.63 53.4 5.81 54.19 6 55 C6.65 54.1 6.65 54.1 7.31 53.19 C10.56 48.97 12.77 47.51 18 46 C15.99 43.99 14.69 43.35 12.12 42.25 C7.88 40.22 6.3 38.04 4 34 C3.67 34 3.34 34 3 34 Z " fill="#000000" transform="translate(671,685)"/>
<path d="M0 0 C1.65 0.33 3.3 0.66 5 1 C4.67 2.65 4.34 4.3 4 6 C2.35 5.67 0.7 5.34 -1 5 C-0.67 3.35 -0.34 1.7 0 0 Z " fill="#000000" transform="translate(448,692)"/>
<path d="M0 0 C0.99 0.33 1.98 0.66 3 1 C2.42 5.75 1 9.73 -0.99 14.04 C-1.62 15.43 -2.24 16.81 -2.86 18.2 C-3.19 18.92 -3.52 19.64 -3.86 20.39 C-11.12 36.39 -17.76 52.57 -24 69 C-24.99 69 -25.98 69 -27 69 C-28.27 65.18 -27.37 62.71 -26.25 59 C-25.92 57.91 -25.92 57.91 -25.59 56.79 C-20.69 41.1 -13.96 25.87 -7 11 C-6.64 10.22 -6.28 9.45 -5.91 8.65 C-4.27 5.25 -2.76 2.56 0 0 Z " fill="#000000" transform="translate(305,693)"/>
<path d="M0 0 C2.75 1.38 2.75 1.38 5 3 C4.25 7.75 4.25 7.75 2 10 C-2.56 9.44 -2.56 9.44 -4 8 C-4.04 6 -4.04 4 -4 2 C-2.31 0.81 -2.31 0.81 0 0 Z " fill="#000000" transform="translate(556,722)"/>
<path d="M0 0 C4.88 0.88 4.88 0.88 6 2 C6.19 4.44 6.19 4.44 6 7 C5.34 7.66 4.68 8.32 4 9 C0.88 8.62 0.88 8.62 -2 8 C-2.69 6.25 -2.69 6.25 -3 4 C-1.56 1.75 -1.56 1.75 0 0 Z " fill="#000000" transform="translate(593,724)"/>
<path d="M0 0 C1.65 0 3.3 0 5 0 C5 1.65 5 3.3 5 5 C3.68 5.33 2.36 5.66 1 6 C-0.06 4.12 -0.06 4.12 -1 2 C-0.67 1.34 -0.34 0.68 0 0 Z " fill="#000000" transform="translate(322,727)"/>
<path d="M0 0 C0.99 0.33 1.98 0.66 3 1 C3.81 2.94 3.81 2.94 4 5 C3.34 5.66 2.68 6.32 2 7 C-0.06 6.81 -0.06 6.81 -2 6 C-2.33 5.01 -2.66 4.02 -3 3 C-2.01 2.01 -1.02 1.02 0 0 Z " fill="#000000" transform="translate(455,739)"/>
<path d="M0 0 C2.38 0.75 2.38 0.75 3.38 1.75 C3.56 4.19 3.56 4.19 3.38 6.75 C2.72 7.41 2.05 8.07 1.38 8.75 C-1.75 8.38 -1.75 8.38 -4.62 7.75 C-5.31 5.44 -5.31 5.44 -5.62 2.75 C-3.97 -0.02 -3.23 -0.31 0 0 Z " fill="#000000" transform="translate(514.625,741.25)"/>
<path d="M0 0 C0.99 0.33 1.98 0.66 3 1 C3.11 1.62 3.21 2.24 3.32 2.88 C3.8 5.69 4.31 8.5 4.81 11.31 C4.98 12.29 5.14 13.27 5.31 14.27 C5.49 15.21 5.66 16.15 5.83 17.11 C5.98 17.98 6.14 18.84 6.29 19.73 C7.1 22.32 7.86 23.36 10 25 C12.31 25.74 14.64 26.42 17 27 C17.33 28.65 17.66 30.3 18 32 C17.43 32.48 16.87 32.96 16.29 33.46 C15.55 34.09 14.82 34.72 14.06 35.38 C13.33 36 12.6 36.63 11.85 37.27 C9.6 39.38 9.03 40.3 8.9 43.38 C8.91 44.36 8.93 45.33 8.94 46.34 C8.95 47.4 8.95 48.47 8.96 49.56 C8.99 51.81 9.01 54.06 9.04 56.3 C9.05 57.37 9.05 58.43 9.06 59.53 C9.07 60.5 9.09 61.48 9.1 62.49 C9 65 9 65 8 68 C6.68 67.67 5.36 67.34 4 67 C3.85 66.28 3.71 65.57 3.56 64.83 C2.89 61.59 2.23 58.36 1.56 55.12 C1.33 54 1.1 52.87 0.87 51.71 C0.64 50.63 0.42 49.55 0.19 48.45 C-0.01 47.45 -0.22 46.46 -0.43 45.43 C-0.9 43.01 -0.9 43.01 -2 41 C-4.55 39.91 -7.14 39.01 -9.75 38.1 C-10.49 37.74 -11.24 37.37 -12 37 C-12.5 35.51 -12.5 35.51 -13 34 C-11.04 31.97 -9.28 30.17 -6.88 28.69 C-3.34 25.51 -3.07 20.77 -2.66 16.21 C-2.55 13.65 -2.45 11.09 -2.34 8.52 C-2.03 5.26 -1.4 2.94 0 0 Z M1 26 C-0.52 28.98 -1.94 31.82 -3 35 C-0.34 36.47 -0.34 36.47 3 37 C5.44 35.62 6.99 34.01 9 32 C8.01 31.34 7.02 30.68 6 30 C4.33 28.68 2.66 27.34 1 26 Z " fill="#000000" transform="translate(493,756)"/>
<path d="M0 0 C1.32 0.66 2.64 1.32 4 2 C3.67 3.98 3.34 5.96 3 8 C1.35 8 -0.3 8 -2 8 C-2.33 6.02 -2.66 4.04 -3 2 C-2.01 1.34 -1.02 0.68 0 0 Z " fill="#000000" transform="translate(303,770)"/>
</svg>
