<?xml version="1.0" encoding="UTF-8"?>
<!-- Generator: visioncortex VTracer 0.6.0 -->
<svg version="1.1" xmlns="http://www.w3.org/2000/svg" width="847" height="847">
<path d="M0 0 C1.98 0 3.96 0 6 0 C6.33 1.98 6.66 3.96 7 6 C5.02 6 3.04 6 1 6 C0.67 4.02 0.34 2.04 0 0 Z " fill="#000000" transform="translate(411,80)"/>
<path d="M0 0 C0.99 0 1.98 0 3 0 C3.281 0.564 3.562 1.128 3.851 1.709 C11.44 16.959 11.44 16.959 24 28 C25.679 29.317 27.349 30.647 29 32 C28.636 34.561 28.362 35.704 26.326 37.372 C25.619 37.77 24.912 38.168 24.184 38.578 C23.42 39.016 22.656 39.455 21.869 39.906 C20.665 40.571 20.665 40.571 19.438 41.25 C18.631 41.709 17.825 42.168 16.994 42.641 C15.002 43.772 13.004 44.891 11 46 C11.59 51.2 12.462 56.192 13.562 61.312 C21.921 105.78 4.484 150.442 -14 190 C-13.194 190.115 -12.389 190.229 -11.559 190.348 C-10.714 190.563 -9.87 190.778 -9 191 C-8.536 192.207 -8.536 192.207 -8.062 193.438 C-7.712 194.283 -7.361 195.129 -7 196 C-5.021 196.727 -3.015 197.381 -1 198 C1.431 199.039 3.839 200.097 6.242 201.195 C6.928 201.506 7.614 201.818 8.321 202.138 C9.772 202.797 11.223 203.458 12.673 204.12 C14.832 205.105 16.994 206.084 19.156 207.062 C26.362 210.334 33.524 213.687 40.621 217.188 C41.576 217.653 41.576 217.653 42.55 218.127 C49.584 221.638 55.769 226.246 62 231 C63.101 231.825 64.203 232.649 65.305 233.473 C73.113 239.354 80.648 245.559 88 252 C88.583 252.452 89.165 252.905 89.766 253.371 C91.776 256.023 92.03 258.888 92.625 262.125 C92.75 262.793 92.875 263.461 93.003 264.149 C93.903 269.086 94.562 274.003 95 279 C93.35 279 91.7 279 90 279 C89.905 278.39 89.81 277.78 89.712 277.152 C89.267 274.368 88.79 271.591 88.312 268.812 C88.164 267.853 88.015 266.893 87.861 265.904 C86.829 260.055 85.84 256.813 81 253 C80.121 252.207 79.242 251.414 78.336 250.598 C61.831 234.591 61.831 234.591 42.593 226.114 C36.681 227.04 31.126 229.176 25.512 231.184 C24.332 231.599 23.151 232.015 21.936 232.443 C18.819 233.543 15.706 234.65 12.593 235.76 C10.049 236.665 7.502 237.56 4.954 238.456 C1.909 239.527 -1.133 240.605 -4.176 241.684 C-5.316 242.086 -6.457 242.488 -7.632 242.902 C-9.215 243.468 -9.215 243.468 -10.829 244.045 C-11.758 244.375 -12.686 244.705 -13.643 245.045 C-16.204 245.991 -16.204 245.991 -19 248 C-18.678 251.048 -18.434 252.585 -16.18 254.738 C-15.419 255.258 -14.659 255.777 -13.875 256.312 C-7.207 261.183 -0.845 266.931 0.562 275.375 C-0.074 279.479 -1.185 280.948 -4.473 283.422 C-10.392 287.118 -16.687 290.051 -23 293 C-23.863 293.403 -24.726 293.807 -25.615 294.223 C-34.979 298.581 -44.385 302.847 -53.828 307.031 C-66.954 312.853 -79.965 318.841 -92.875 325.125 C-93.93 325.637 -93.93 325.637 -95.006 326.16 C-101.695 329.409 -108.374 332.671 -115.004 336.039 C-126.193 341.663 -137.6 346.276 -149.375 350.5 C-150.078 350.756 -150.781 351.012 -151.505 351.276 C-186.777 364.046 -223.441 359.649 -257.246 343.852 C-266.815 339.21 -275.923 333.974 -284 327 C-284.901 326.292 -284.901 326.292 -285.82 325.57 C-292.537 319.757 -299.175 307.854 -300.238 299.02 C-300.601 288.236 -294.278 281.289 -288 273 C-288.459 272.553 -288.918 272.105 -289.391 271.645 C-294.729 266.385 -294.729 266.385 -296.938 263.25 C-299.097 260.894 -299.946 260.544 -302.875 259.625 C-307.639 258.075 -310.287 255.131 -313 251 C-314.622 246.133 -314.9 240.873 -313.352 235.93 C-311.012 231.31 -307.802 228.649 -303 227 C-297.966 226.039 -294.045 226.84 -289.668 229.664 C-283.803 234.362 -280.48 239.342 -279.5 246.812 C-279.579 252.002 -282.675 255.279 -286 259 C-284.35 260.98 -282.7 262.96 -281 265 C-280.273 264.455 -280.273 264.455 -279.531 263.898 C-278.12 262.84 -276.707 261.784 -275.293 260.73 C-273.802 259.606 -272.325 258.463 -270.863 257.301 C-264.125 252 -264.125 252 -260 252 C-259.01 252.66 -258.02 253.32 -257 254 C-257.33 256.31 -257.66 258.62 -258 261 C-245.425 257.081 -233.307 252.613 -221.291 247.202 C-220.366 246.786 -219.441 246.37 -218.488 245.941 C-217.669 245.567 -216.849 245.193 -216.005 244.807 C-214 244 -214 244 -212 244 C-211.536 242.608 -211.536 242.608 -211.062 241.188 C-210.375 239.125 -209.688 237.062 -209 235 C-209.309 233.237 -209.309 233.237 -209.625 231.438 C-210.348 226.216 -209.243 221.739 -207 217 C-204.524 213.744 -201.973 212.218 -197.938 211.312 C-194.37 212.148 -193.459 213.672 -191.328 216.531 C-188.953 219.158 -186.408 219.441 -183 220 C-181.839 220.193 -181.839 220.193 -180.656 220.391 C-177.879 220.65 -175.717 220.662 -173 220 C-170.165 217.307 -168.611 214.096 -166.875 210.625 C-165.859 208.773 -164.838 206.924 -163.812 205.078 C-163.33 204.192 -162.848 203.306 -162.352 202.393 C-159.757 197.8 -156.553 193.874 -153 190 C-151.815 188.695 -151.815 188.695 -150.605 187.363 C-141.992 178.3 -133.448 173.195 -120.875 172.625 C-106.359 172.966 -92.818 179.43 -82.816 189.812 C-81.038 191.234 -81.038 191.234 -78.688 190.855 C-75.908 190.011 -75.908 190.011 -72.934 188.738 C-62.621 184.532 -54.393 184.981 -43.504 186.624 C-40.273 187.109 -37.035 187.522 -33.791 187.916 C-32.348 188.092 -30.907 188.278 -29.467 188.477 C-25.708 188.962 -22.621 189.172 -19 188 C-17.467 186.121 -17.467 186.121 -16.457 183.637 C-15.814 182.234 -15.814 182.234 -15.157 180.803 C-14.713 179.775 -14.27 178.747 -13.812 177.688 C-13.34 176.618 -12.867 175.549 -12.38 174.447 C-0.659 147.42 8.383 119.571 10 90 C10.071 88.895 10.142 87.791 10.215 86.652 C10.445 79.505 9.551 72.511 8.625 65.438 C8.499 64.472 8.373 63.507 8.243 62.512 C8.114 61.599 7.985 60.687 7.852 59.746 C7.736 58.928 7.621 58.11 7.502 57.267 C6.983 54.922 6.163 53.093 5 51 C4.252 51.638 3.505 52.276 2.734 52.934 C1.75 53.76 0.765 54.586 -0.25 55.438 C-1.225 56.261 -2.199 57.085 -3.203 57.934 C-5.762 59.824 -7.011 60.393 -10 61 C-10.317 59.805 -10.634 58.61 -10.961 57.379 C-13.943 46.947 -16.862 40.447 -26 34 C-27.217 32.99 -28.427 31.971 -29.625 30.938 C-30.409 30.298 -31.192 29.659 -32 29 C-31.67 27.35 -31.34 25.7 -31 24 C-29.975 23.697 -28.95 23.394 -27.895 23.082 C-26.534 22.66 -25.173 22.236 -23.812 21.812 C-22.802 21.518 -22.802 21.518 -21.771 21.217 C-13.272 18.522 -9.024 11.624 -3.93 4.732 C-2.687 3.101 -1.349 1.544 0 0 Z M-87.098 198.399 C-92.031 200.441 -97.029 202.293 -102.032 204.157 C-105.608 205.494 -109.174 206.856 -112.738 208.227 C-117.139 209.915 -121.546 211.581 -125.966 213.216 C-128.613 214.195 -131.258 215.181 -133.903 216.166 C-135.753 216.853 -137.607 217.531 -139.461 218.209 C-145.825 220.587 -151.394 223.152 -157 227 C-155.509 230.795 -153.243 232.61 -150 235 C-149.28 234.693 -148.561 234.386 -147.82 234.07 C-144.485 232.648 -141.149 231.23 -137.812 229.812 C-136.681 229.33 -135.55 228.847 -134.385 228.35 C-114.615 219.957 -102.276 214.851 -81.613 222.934 C-80.062 223.591 -78.528 224.289 -77 225 C-76.313 224.232 -75.626 223.464 -74.919 222.672 C-71.75 219.771 -69.332 218.66 -65.301 217.246 C-64.666 217.018 -64.031 216.791 -63.376 216.556 C-61.359 215.837 -59.337 215.137 -57.312 214.438 C-55.974 213.966 -54.636 213.492 -53.299 213.018 C-52.645 212.786 -51.992 212.554 -51.319 212.316 C-50.023 211.855 -48.727 211.394 -47.432 210.931 C-44.592 209.917 -41.752 208.918 -38.889 207.972 C-33.708 206.272 -33.708 206.272 -30.367 202.203 C-30.205 201.229 -30.042 200.254 -29.875 199.25 C-29.593 197.773 -29.593 197.773 -29.305 196.266 C-29.204 195.518 -29.104 194.77 -29 194 C-50.843 187.429 -66.47 189.845 -87.098 198.399 Z M-143 205 C-147.514 209.279 -147.514 209.279 -149 215 C-145.269 213.491 -143.363 211.316 -140.812 208.25 C-135.639 202.343 -130.027 198.411 -123 195 C-123.33 194.01 -123.66 193.02 -124 192 C-131.144 192 -138.411 200.465 -143 205 Z M-10 200 C-10.495 200.33 -10.99 200.66 -11.5 201 C-16.843 203.137 -22.496 201.98 -28 201 C-30.58 212.384 -30.58 212.384 -31 224 C-29.206 223.876 -29.206 223.876 -27.375 223.75 C-26.702 223.704 -26.029 223.657 -25.336 223.609 C-21.239 222.541 -18.121 220.701 -15.756 217.111 C-14.596 214.899 -13.563 212.664 -12.562 210.375 C-12.2 209.599 -11.837 208.823 -11.463 208.023 C-10.098 205.062 -10.098 205.062 -9 202 C-9.33 201.34 -9.66 200.68 -10 200 Z M-6 202 C-6 202.99 -6 203.98 -6 205 C-5.34 204.67 -4.68 204.34 -4 204 C-4 203.34 -4 202.68 -4 202 C-4.66 202 -5.32 202 -6 202 Z M-200 217 C-203.963 221.42 -204.348 225.644 -204.281 231.363 C-203.692 236.891 -201.348 240.716 -197.375 244.5 C-195.186 246.178 -195.186 246.178 -193 246 C-194.083 243.474 -195.099 241.901 -197.062 239.938 C-200.323 236.677 -200.185 233.471 -200.25 229.062 C-200.289 227.502 -200.289 227.502 -200.328 225.91 C-199.96 222.649 -199.085 221.452 -197 219 C-197 218.34 -197 217.68 -197 217 C-197.99 217 -198.98 217 -200 217 Z M-16.125 221.375 C-22.304 225.869 -27.872 226.37 -35.312 225.289 C-35.869 225.194 -36.426 225.098 -37 225 C-37 225.99 -37 226.98 -37 228 C-30.946 230.018 -24.976 229.726 -19.125 227.188 C-14.767 225.023 -14.767 225.023 -11 222 C-11 221.01 -11 220.02 -11 219 C-13.389 218.798 -13.389 218.798 -16.125 221.375 Z M-88 222 C-90.048 224.048 -89.944 227.916 -90.41 230.727 C-90.542 231.508 -90.674 232.289 -90.809 233.093 C-91.088 234.752 -91.364 236.412 -91.639 238.072 C-92.057 240.595 -92.486 243.116 -92.916 245.637 C-93.186 247.25 -93.454 248.863 -93.723 250.477 C-93.851 251.225 -93.979 251.973 -94.111 252.744 C-95.192 259.346 -95.192 259.346 -95 266 C-92.003 269.137 -88.537 270.896 -84.641 272.734 C-83.615 273.223 -82.589 273.711 -81.532 274.214 C-80.449 274.721 -79.366 275.228 -78.25 275.75 C-77.139 276.275 -76.028 276.8 -74.884 277.341 C-72.644 278.399 -70.403 279.455 -68.161 280.508 C-65.336 281.841 -62.523 283.195 -59.715 284.562 C-58.94 284.937 -58.166 285.311 -57.368 285.696 C-55.952 286.38 -54.539 287.07 -53.128 287.765 C-49.747 289.381 -47.836 290 -44 290 C-43.519 286.354 -43.041 282.708 -42.562 279.062 C-42.428 278.041 -42.293 277.019 -42.154 275.967 C-41.887 273.926 -41.624 271.886 -41.364 269.844 C-41.146 268.138 -40.92 266.433 -40.679 264.73 C-39.774 257.835 -39.911 250.943 -40 244 C-44.584 241.828 -49.17 239.659 -53.757 237.494 C-55.311 236.76 -56.865 236.025 -58.417 235.289 C-68.198 230.654 -78.014 226.177 -88 222 Z M-111 232 C-113.626 237.83 -113.945 244.923 -112 251 C-110.68 250.67 -109.36 250.34 -108 250 C-107.963 249.047 -107.925 248.095 -107.887 247.113 C-107.821 245.859 -107.755 244.605 -107.688 243.312 C-107.629 242.071 -107.571 240.83 -107.512 239.551 C-106.986 235.906 -106.194 233.92 -104 231 C-101.01 229.505 -98.3 229.884 -95 230 C-94.01 230.33 -93.02 230.66 -92 231 C-91.67 230.34 -91.34 229.68 -91 229 C-92.674 226.962 -93.626 226.084 -96.234 225.496 C-102.843 225.342 -107.001 226.509 -111 232 Z M-297 230 C-295.861 233.417 -294.325 234.533 -291.566 236.727 C-289.569 238.351 -287.784 240.147 -286 242 C-286.504 237.588 -288.013 235.25 -291 232 C-293.815 229.723 -293.815 229.723 -297 230 Z M-309.875 237.062 C-311.717 241.871 -311.594 245.456 -309.75 250.25 C-308.035 252.945 -306.744 254.407 -304 256 C-303.34 256 -302.68 256 -302 256 C-301.34 254.35 -300.68 252.7 -300 251 C-296.535 250.505 -296.535 250.505 -293 250 C-293.298 244.047 -296.133 240.298 -300 236 C-303.751 234.125 -306.972 233.869 -309.875 237.062 Z M-205 241 C-205.814 242.937 -206.626 244.875 -207.438 246.812 C-207.89 247.891 -208.342 248.97 -208.809 250.082 C-211.36 256.331 -212.319 262.735 -210.281 269.324 C-207.88 274.408 -205.017 278.833 -199.586 280.934 C-193.463 282.736 -187.359 283.6 -181 284 C-180.34 285.98 -179.68 287.96 -179 290 C-177.562 289.885 -176.124 289.758 -174.688 289.625 C-173.487 289.521 -173.487 289.521 -172.262 289.414 C-169.728 289.104 -169.728 289.104 -167 287 C-166.635 284.333 -166.635 284.333 -166.812 281.375 C-166.84 280.372 -166.867 279.369 -166.895 278.336 C-166.947 277.18 -166.947 277.18 -167 276 C-165.832 275.557 -165.832 275.557 -164.641 275.105 C-161.534 273.805 -160.035 272.689 -158 270 C-157.013 266.315 -156.521 264.098 -158.062 260.562 C-159.967 258.758 -159.967 258.758 -162.875 258.562 C-166.277 259.039 -168.216 260.035 -171 262 C-173.803 258.076 -175.573 254.59 -177 250 C-178.268 249.944 -178.268 249.944 -179.562 249.887 C-190.122 249.275 -196.654 247.433 -205 241 Z M-102 246 C-102.495 247.98 -102.495 247.98 -103 250 C-101.68 250.33 -100.36 250.66 -99 251 C-99 249.35 -99 247.7 -99 246 C-99.99 246 -100.98 246 -102 246 Z M-220.629 249.977 C-221.574 250.397 -222.519 250.818 -223.493 251.252 C-224.506 251.705 -225.519 252.158 -226.562 252.625 C-234.56 256.164 -242.554 259.449 -250.858 262.198 C-253.921 263.218 -256.289 264.193 -259 266 C-258.67 267.65 -258.34 269.3 -258 271 C-253.406 272.412 -250.627 271.467 -246.195 269.797 C-245.232 269.439 -245.232 269.439 -244.249 269.074 C-242.203 268.311 -240.164 267.531 -238.125 266.75 C-236.762 266.24 -235.399 265.731 -234.035 265.223 C-230.346 263.841 -226.665 262.443 -223 261 C-222.354 260.752 -221.708 260.505 -221.043 260.249 C-217.121 258.843 -217.121 258.843 -214.879 255.52 C-214.774 254.626 -214.67 253.733 -214.562 252.812 C-214.379 251.461 -214.379 251.461 -214.191 250.082 C-214.097 249.051 -214.097 249.051 -214 248 C-216.614 248 -218.241 248.901 -220.629 249.977 Z M-119 248 C-119.534 250.059 -120.051 252.123 -120.562 254.188 C-120.853 255.336 -121.143 256.485 -121.441 257.668 C-122.201 261.959 -122.201 261.959 -121 266 C-118.665 267.33 -116.617 268.261 -114.125 269.188 C-107.856 271.718 -101.884 274.534 -95.938 277.75 C-88.712 281.629 -81.403 285.284 -74 288.812 C-73.069 289.256 -72.138 289.7 -71.179 290.157 C-69.369 291.015 -67.557 291.869 -65.742 292.717 C-63.826 293.614 -61.915 294.52 -60.008 295.435 C-59.036 295.893 -58.064 296.352 -57.062 296.824 C-55.75 297.45 -55.75 297.45 -54.41 298.089 C-51.806 299.236 -51.806 299.236 -48 299 C-48.709 295.741 -48.709 295.741 -51.841 294.441 C-53.106 293.876 -54.375 293.322 -55.648 292.777 C-56.328 292.476 -57.008 292.174 -57.709 291.863 C-59.169 291.216 -60.63 290.573 -62.094 289.934 C-65.902 288.271 -69.693 286.572 -73.484 284.871 C-74.23 284.537 -74.976 284.203 -75.744 283.858 C-81.481 281.271 -87.09 278.496 -92.625 275.5 C-98.192 272.489 -103.773 269.574 -109.5 266.875 C-110.686 266.316 -111.872 265.756 -113.094 265.18 C-115.941 263.812 -115.941 263.812 -119 264 C-118.01 258.72 -117.02 253.44 -116 248 C-116.99 248 -117.98 248 -119 248 Z M-298 252 C-298.89 253.711 -298.89 253.711 -299 256 C-297.31 258.782 -297.31 258.782 -294.875 261.5 C-294.089 262.438 -293.302 263.377 -292.492 264.344 C-290.143 266.847 -287.736 268.936 -285 271 C-284.34 269.68 -283.68 268.36 -283 267 C-284.738 264.678 -286.489 262.368 -288.25 260.062 C-288.741 259.403 -289.232 258.744 -289.738 258.064 C-290.222 257.436 -290.705 256.808 -291.203 256.16 C-291.863 255.288 -291.863 255.288 -292.536 254.399 C-294.29 252.723 -295.636 252.392 -298 252 Z M-35 252 C-36.356 253.125 -36.356 253.125 -36.062 256.062 C-36.042 257.032 -36.021 258.001 -36 259 C-34.711 259.672 -33.419 260.337 -32.125 261 C-31.406 261.371 -30.686 261.743 -29.945 262.125 C-28.052 263.137 -28.052 263.137 -26 263 C-25.753 263.516 -25.505 264.031 -25.25 264.562 C-23.982 267.164 -23.982 267.164 -21.938 270 C-19.046 274.912 -19.183 280.433 -19 286 C-17.68 285.34 -16.36 284.68 -15 284 C-14.522 276.784 -14.549 270.952 -19 265 C-22.135 261.66 -25.244 259.364 -29.375 257.375 C-32 256 -32 256 -32.875 253.812 C-32.937 252.915 -32.937 252.915 -33 252 C-33.66 252 -34.32 252 -35 252 Z M-104 258 C-103.67 259.32 -103.34 260.64 -103 262 C-101.68 261.67 -100.36 261.34 -99 261 C-99.33 260.01 -99.66 259.02 -100 258 C-101.32 258 -102.64 258 -104 258 Z M-271.062 263.875 C-271.646 264.374 -272.229 264.873 -272.831 265.387 C-281.924 273.292 -289.577 282.154 -295 293 C-295.462 303.092 -290.768 311.942 -284.562 319.625 C-262.969 342.196 -225.9 352.366 -195.656 354.203 C-180.173 354.433 -166.537 350.753 -152 345.938 C-150.973 345.6 -150.973 345.6 -149.926 345.255 C-147.968 344.606 -146.015 343.944 -144.062 343.277 C-142.919 342.888 -141.776 342.499 -140.598 342.097 C-137.867 341.275 -137.867 341.275 -137 339 C-137.848 338.735 -138.696 338.47 -139.569 338.197 C-167.342 329.431 -193.259 318.684 -218.672 304.294 C-220.792 303.116 -222.927 301.991 -225.09 300.895 C-232.079 297.35 -238.578 293.426 -245 288.938 C-246.042 288.213 -246.042 288.213 -247.105 287.475 C-253.451 282.929 -260.504 277.635 -263 270 C-263.224 266.318 -263.177 262.683 -263 259 C-266.392 259 -268.585 261.756 -271.062 263.875 Z M-223.223 270.625 C-223.843 270.891 -224.463 271.158 -225.102 271.432 C-227.089 272.286 -229.076 273.143 -231.062 274 C-232.407 274.578 -233.751 275.156 -235.096 275.734 C-238.398 277.154 -241.699 278.577 -245 280 C-244.67 280.99 -244.34 281.98 -244 283 C-240.209 282.372 -236.992 281.265 -233.48 279.715 C-232.459 279.267 -231.437 278.819 -230.385 278.357 C-229.33 277.889 -228.275 277.42 -227.188 276.938 C-225.576 276.229 -225.576 276.229 -223.932 275.506 C-221.286 274.342 -218.642 273.173 -216 272 C-216 270.68 -216 269.36 -216 268 C-218.361 268 -221.136 269.727 -223.223 270.625 Z M-32 278 C-32.66 279.65 -33.32 281.3 -34 283 C-32.515 283.99 -32.515 283.99 -31 285 C-30.34 284.34 -29.68 283.68 -29 283 C-29.167 280.917 -29.167 280.917 -30 279 C-30.66 278.67 -31.32 278.34 -32 278 Z M-168 291 C-172.306 293.261 -175.408 292.861 -180.062 292.188 C-184.113 291.664 -184.113 291.664 -187.746 293.098 C-189.19 295.001 -190.082 296.791 -191 299 C-191.4 299.928 -191.799 300.856 -192.211 301.812 C-194.656 307.308 -194.656 307.308 -194 313 C-191.217 314.663 -191.217 314.663 -187.688 316.188 C-186.704 316.633 -186.704 316.633 -185.7 317.087 C-180.081 319.596 -174.393 321.943 -168.688 324.25 C-167.877 324.579 -167.066 324.908 -166.231 325.247 C-160.567 327.497 -154.857 329.313 -149 331 C-149.33 326.38 -149.66 321.76 -150 317 C-149.34 317 -148.68 317 -148 317 C-147.951 317.736 -147.902 318.472 -147.852 319.23 C-147.777 320.206 -147.702 321.182 -147.625 322.188 C-147.521 323.632 -147.521 323.632 -147.414 325.105 C-146.82 329.267 -146.82 329.267 -145 333 C-142.346 334.325 -140.111 335.222 -137.312 336.062 C-136.617 336.312 -135.922 336.561 -135.205 336.818 C-132.117 337.784 -130.017 338.378 -126.919 337.226 C-124.754 336.035 -124.754 336.035 -122 334 C-123.883 318.51 -126.196 302.569 -139 292 C-146.967 287.23 -161.358 282.636 -168 291 Z M-37 288 C-37 289.32 -37 290.64 -37 292 C-35.68 292 -34.36 292 -33 292 C-33.33 290.68 -33.66 289.36 -34 288 C-34.99 288 -35.98 288 -37 288 Z " fill="#000000" transform="translate(607,96)"/>
<path d="M0 0 C-1.428 4.285 -4.588 5.246 -8.375 7.25 C-14.402 10.521 -20.177 13.945 -25.863 17.785 C-28 19 -28 19 -31 19 C-29.848 15.543 -29.287 15.273 -26.281 13.477 C-25.513 13.012 -24.745 12.548 -23.953 12.07 C-22.739 11.355 -22.739 11.355 -21.5 10.625 C-20.721 10.156 -19.943 9.687 -19.141 9.203 C-16.771 7.783 -14.389 6.388 -12 5 C-11.176 4.516 -10.353 4.033 -9.504 3.534 C-8.709 3.077 -7.913 2.62 -7.094 2.148 C-6.379 1.735 -5.664 1.322 -4.928 0.896 C-3 0 -3 0 0 0 Z " fill="#000000" transform="translate(778,147)"/>
<path d="M0 0 C1.98 0 3.96 0 6 0 C5.67 1.98 5.34 3.96 5 6 C3.35 6 1.7 6 0 6 C0 4.02 0 2.04 0 0 Z " fill="#000000" transform="translate(372,152)"/>
<path d="M0 0 C3.383 1.691 3.99 5.68 5.312 9.062 C12.553 26.861 22.445 43.418 32.441 59.785 C33.295 61.19 34.148 62.595 35 64 C35.405 64.661 35.809 65.322 36.226 66.003 C39 70.655 39 70.655 39 74 C38.34 74 37.68 74 37 74 C36.684 73.442 36.367 72.885 36.041 72.31 C34.55 69.685 33.057 67.061 31.562 64.438 C30.739 62.991 30.739 62.991 29.898 61.515 C27.174 56.746 24.423 52.003 21.545 47.325 C17.305 40.428 13.45 33.356 9.688 26.188 C9.183 25.232 8.679 24.277 8.16 23.293 C-0.323 6.959 -0.323 6.959 0 0 Z " fill="#000000" transform="translate(460,169)"/>
<path d="M0 0 C0 0.66 0 1.32 0 2 C-1.449 3.43 -1.449 3.43 -3.465 5.098 C-8.055 9.002 -12.315 13.167 -16.562 17.438 C-17.279 18.15 -17.995 18.862 -18.732 19.596 C-22.105 22.974 -25.382 26.386 -28.496 30.004 C-32.945 35.165 -37.825 39.873 -42.684 44.645 C-46.755 48.672 -50.639 52.783 -54.374 57.125 C-56.801 59.923 -59.341 62.611 -61.875 65.312 C-67.971 71.862 -74.028 78.542 -79 86 C-79.99 86 -80.98 86 -82 86 C-80.472 80.997 -77.478 77.757 -74.062 73.938 C-73.192 72.95 -73.192 72.95 -72.303 71.943 C-70.544 69.954 -68.774 67.975 -67 66 C-66.497 65.437 -65.993 64.875 -65.475 64.295 C-59.997 58.188 -54.367 52.267 -48.484 46.547 C-46.479 44.491 -44.605 42.409 -42.734 40.234 C-38.197 35.002 -33.254 30.205 -28.316 25.355 C-24.243 21.327 -20.39 17.202 -16.652 12.861 C-14.172 10.067 -11.504 7.52 -8.75 5 C-8.234 4.511 -7.719 4.023 -7.188 3.52 C-3.362 0 -3.362 0 0 0 Z " fill="#000000" transform="translate(720,189)"/>
<path d="M0 0 C0.66 0 1.32 0 2 0 C3.212 20.012 4.378 39.942 4 60 C3.34 60 2.68 60 2 60 C0.524 39.951 -0.309 20.111 0 0 Z " fill="#000000" transform="translate(529,191)"/>
<path d="M0 0 C3.353 1.118 3.706 1.649 5.625 4.438 C8.67 8.662 12.041 12.477 15.559 16.312 C16.89 17.778 18.215 19.25 19.504 20.753 C24.3 26.344 29.44 31.522 34.688 36.688 C36.36 38.335 38.031 39.984 39.699 41.637 C40.43 42.356 41.16 43.075 41.913 43.815 C48 50.187 48 50.187 48 53 C44.842 51.602 42.677 49.948 40.25 47.5 C39.33 46.587 39.33 46.587 38.391 45.656 C37 44 37 44 37 42 C36.01 41.67 35.02 41.34 34 41 C32.703 39.68 32.703 39.68 31.25 37.875 C28.242 34.306 25.042 31.037 21.705 27.783 C16 22.215 10.566 16.576 5.625 10.312 C5.167 9.737 4.709 9.161 4.237 8.568 C2.119 5.809 0.46 3.499 0 0 Z " fill="#000000" transform="translate(411,197)"/>
<path d="M0 0 C-0.142 1.75 -0.289 3.5 -0.438 5.25 C-0.519 6.225 -0.6 7.199 -0.684 8.203 C-0.951 10.565 -1.354 12.719 -2 15 C-3.646 14.86 -5.292 14.713 -6.938 14.562 C-8.312 14.441 -8.312 14.441 -9.715 14.316 C-12 14 -12 14 -13 13 C-13.072 11.314 -13.084 9.625 -13.062 7.938 C-13.053 7.018 -13.044 6.099 -13.035 5.152 C-13.024 4.442 -13.012 3.732 -13 3 C-4.2 0 -4.2 0 0 0 Z " fill="#000000" transform="translate(663,199)"/>
<path d="M0 0 C0.66 0 1.32 0 2 0 C2.96 4.25 3.921 8.5 4.881 12.75 C5.207 14.192 5.532 15.634 5.858 17.076 C7.585 24.715 9.308 32.354 11 40 C10.01 39.67 9.02 39.34 8 39 C7.004 36.273 6.213 33.677 5.5 30.875 C5.286 30.068 5.073 29.262 4.853 28.431 C-0.253 8.781 -0.253 8.781 0 0 Z " fill="#000000" transform="translate(506,203)"/>
<path d="M0 0 C2.31 0 4.62 0 7 0 C7 2.31 7 4.62 7 7 C4.69 7 2.38 7 0 7 C0 4.69 0 2.38 0 0 Z " fill="#000000" transform="translate(446,204)"/>
<path d="M0 0 C0.99 0 1.98 0 3 0 C2.588 10.863 1.697 21.632 0.5 32.438 C0.369 33.628 0.239 34.819 0.104 36.046 C-0.871 44.612 -0.871 44.612 -2 48 C-2.66 48 -3.32 48 -4 48 C-4.179 40.634 -3.478 33.555 -2.562 26.25 C-1.483 17.509 -0.605 8.788 0 0 Z " fill="#000000" transform="translate(562,211)"/>
<path d="M0 0 C0.99 0.33 1.98 0.66 3 1 C2.296 2.021 1.592 3.042 0.867 4.094 C-6.039 14.23 -12.381 24.58 -18.366 35.289 C-18.927 36.278 -19.488 37.266 -20.066 38.285 C-20.561 39.171 -21.055 40.056 -21.565 40.969 C-23 43 -23 43 -26 44 C-25.42 40.312 -24.415 37.571 -22.559 34.34 C-21.812 33.034 -21.812 33.034 -21.051 31.701 C-20.519 30.789 -19.986 29.877 -19.438 28.938 C-18.895 28 -18.353 27.063 -17.795 26.097 C-12.472 16.967 -7.045 7.926 0 0 Z " fill="#000000" transform="translate(650,219)"/>
<path d="M0 0 C0 0.99 0 1.98 0 3 C-2.093 4.599 -4.145 5.988 -6.375 7.375 C-7.766 8.27 -9.156 9.169 -10.543 10.07 C-11.276 10.546 -12.008 11.022 -12.763 11.513 C-16.482 13.985 -20.082 16.616 -23.688 19.25 C-30.077 23.904 -36.514 28.482 -43 33 C-63.328 47.185 -83.373 61.616 -102 78 C-102.66 77.67 -103.32 77.34 -104 77 C-102.46 73.044 -99.756 70.758 -96.562 68.125 C-95.997 67.653 -95.431 67.181 -94.848 66.695 C-86.838 60.107 -78.399 54.077 -70 48 C-68.495 46.904 -66.989 45.808 -65.484 44.711 C-56.883 38.457 -48.204 32.322 -39.479 26.244 C-33.775 22.264 -28.126 18.215 -22.5 14.125 C-3.03 0 -3.03 0 0 0 Z " fill="#000000" transform="translate(761,219)"/>
<path d="M0 0 C3 1 3 1 4.167 2.918 C4.528 3.738 4.889 4.558 5.262 5.402 C5.658 6.292 6.054 7.183 6.463 8.1 C6.867 9.036 7.271 9.973 7.688 10.938 C8.103 11.87 8.519 12.803 8.947 13.764 C12 20.696 12 20.696 12 23 C11.01 23 10.02 23 9 23 C7.494 19.544 5.996 16.085 4.5 12.625 C4.071 11.64 3.641 10.655 3.199 9.641 C2.793 8.7 2.387 7.759 1.969 6.789 C1.592 5.92 1.215 5.05 0.826 4.155 C0 2 0 2 0 0 Z " fill="#000000" transform="translate(469,221)"/>
<path d="M0 0 C5.228 0.638 9.698 2.29 14.562 4.188 C27.429 9.074 40.643 12.719 54 16 C54 16.66 54 17.32 54 18 C47.66 18.419 42.453 16.912 36.438 15 C35.444 14.691 34.451 14.382 33.427 14.064 C8.212 6.106 8.212 6.106 0 2 C0 1.34 0 0.68 0 0 Z " fill="#000000" transform="translate(319,238)"/>
<path d="M0 0 C2.97 0.495 2.97 0.495 6 1 C5.67 2.98 5.34 4.96 5 7 C2.562 6.625 2.562 6.625 0 6 C-1.245 3.509 -0.777 2.589 0 0 Z " fill="#000000" transform="translate(258,248)"/>
<path d="M0 0 C9.296 0.298 18.328 1.408 27.5 2.938 C28.526 3.107 29.552 3.277 30.609 3.452 C35.855 4.353 40.92 5.409 46 7 C46 7.66 46 8.32 46 9 C37.952 8.19 29.96 7.022 21.959 5.843 C19.61 5.498 17.26 5.157 14.91 4.816 C13.411 4.597 11.913 4.377 10.414 4.156 C9.714 4.055 9.014 3.954 8.293 3.85 C5.409 3.421 2.773 2.924 0 2 C0 1.34 0 0.68 0 0 Z " fill="#000000" transform="translate(403,260)"/>
<path d="M0 0 C-1.117 3.35 -1.521 3.621 -4.375 5.391 C-5.1 5.845 -5.825 6.3 -6.573 6.768 C-7.374 7.257 -8.175 7.746 -9 8.25 C-9.837 8.769 -10.673 9.287 -11.535 9.822 C-14.35 11.56 -17.174 13.281 -20 15 C-21.009 15.616 -22.019 16.232 -23.059 16.866 C-33.744 23.372 -44.473 29.801 -55.375 35.938 C-56.112 36.357 -56.849 36.776 -57.608 37.208 C-62.641 40 -62.641 40 -66 40 C-64.814 36.442 -64.28 36.325 -61.074 34.68 C-60.229 34.235 -59.383 33.791 -58.511 33.333 C-57.58 32.852 -56.648 32.371 -55.688 31.875 C-46.412 26.959 -37.389 21.725 -28.438 16.25 C-27.862 15.899 -27.287 15.547 -26.694 15.185 C-21.562 12.048 -16.435 8.903 -11.34 5.705 C-10.745 5.333 -10.149 4.961 -9.535 4.578 C-7.877 3.542 -6.222 2.501 -4.567 1.46 C-2 0 -2 0 0 0 Z " fill="#000000" transform="translate(750,273)"/>
<path d="M0 0 C16.675 0.52 33.341 1.079 50 2 C50.495 3.485 50.495 3.485 51 5 C46.451 4.88 41.902 4.755 37.353 4.628 C35.813 4.585 34.273 4.543 32.733 4.503 C22.137 4.222 11.575 3.734 1 3 C0.67 2.01 0.34 1.02 0 0 Z " fill="#000000" transform="translate(272,285)"/>
<path d="M0 0 C1.65 0 3.3 0 5 0 C5 0.99 5 1.98 5 3 C3.35 3 1.7 3 0 3 C0 2.01 0 1.02 0 0 Z " fill="#000000" transform="translate(339,288)"/>
<path d="M0 0 C0 0.66 0 1.32 0 2 C-5.61 4.31 -11.22 6.62 -17 9 C-17.66 8.34 -18.32 7.68 -19 7 C-5.241 0 -5.241 0 0 0 Z " fill="#000000" transform="translate(792,295)"/>
<path d="M0 0 C0.99 0.66 1.98 1.32 3 2 C2.67 2.99 2.34 3.98 2 5 C0.949 4.711 -0.101 4.423 -1.184 4.125 C-14.468 0.565 -23.449 0.762 -37 4 C-37.33 2.68 -37.66 1.36 -38 0 C-25.251 -5.533 -12.87 -5.848 0 0 Z " fill="#000000" transform="translate(525,311)"/>
<path d="M0 0 C-1.447 2.893 -3.368 3.259 -6.301 4.574 C-7.414 5.074 -8.528 5.574 -9.676 6.089 C-10.876 6.616 -12.076 7.144 -13.312 7.688 C-13.918 7.955 -14.524 8.223 -15.148 8.499 C-23.144 12.026 -31.189 15.354 -39.438 18.25 C-40.252 18.537 -41.066 18.824 -41.906 19.12 C-45.472 20.326 -48.2 21 -52 21 C-52 20.34 -52 19.68 -52 19 C-51.297 18.749 -50.595 18.499 -49.871 18.241 C-36.209 13.343 -22.784 8.307 -9.718 1.961 C-8.873 1.558 -8.027 1.154 -7.156 0.738 C-6.422 0.378 -5.688 0.017 -4.932 -0.354 C-3 -1 -3 -1 0 0 Z " fill="#000000" transform="translate(757,309)"/>
<path d="M0 0 C0.495 1.485 0.495 1.485 1 3 C-1.213 3.201 -1.213 3.201 -3.426 3.402 C-4.84 3.531 -4.84 3.531 -6.283 3.662 C-10.199 4.018 -14.114 4.374 -18.03 4.73 C-19.01 4.819 -19.99 4.908 -21 5 C-23.077 5.189 -25.154 5.378 -27.23 5.566 C-28.82 5.711 -30.41 5.855 -32 6 C-31.67 5.01 -31.34 4.02 -31 3 C-20.664 1.142 -10.514 -0.198 0 0 Z " fill="#000000" transform="translate(251,309)"/>
<path d="M0 0 C0.66 0 1.32 0 2 0 C1.913 1.439 1.804 2.876 1.688 4.312 C1.629 5.113 1.571 5.914 1.512 6.738 C0.918 9.363 0.042 10.308 -2 12 C-1.858 10.562 -1.711 9.125 -1.562 7.688 C-1.481 6.887 -1.4 6.086 -1.316 5.262 C-1 3 -1 3 0 0 Z " fill="#000000" transform="translate(531,333)"/>
<path d="M0 0 C0.66 0 1.32 0 2 0 C1.542 1.688 1.084 3.375 0.625 5.062 C0.352 6.068 0.078 7.073 -0.203 8.109 C-0.821 10.35 -1.467 12.583 -2.125 14.812 C-3.06 18.007 -3.06 18.007 -3.562 21.375 C-4 24 -4 24 -5 25 C-10.241 25.456 -10.241 25.456 -12.875 23.875 C-14.566 21.057 -14.535 19.213 -14 16 C-11.75 14.062 -11.75 14.062 -9 13 C-6.828 13.434 -6.828 13.434 -5 14 C-4.71 12.861 -4.71 12.861 -4.414 11.699 C-4.154 10.705 -3.893 9.711 -3.625 8.688 C-3.37 7.701 -3.115 6.715 -2.852 5.699 C-2 3 -2 3 0 0 Z M-10 16 C-10.33 17.65 -10.66 19.3 -11 21 C-9.35 21 -7.7 21 -6 21 C-6.267 19.015 -6.267 19.015 -7 17 C-7.99 16.67 -8.98 16.34 -10 16 Z " fill="#000000" transform="translate(543,333)"/>
<path d="M0 0 C2.375 -0.125 2.375 -0.125 5 0 C5.66 0.66 6.32 1.32 7 2 C6.625 4.625 6.625 4.625 6 7 C3.625 7.125 3.625 7.125 1 7 C0.34 6.34 -0.32 5.68 -1 5 C-0.625 2.375 -0.625 2.375 0 0 Z " fill="#000000" transform="translate(645,337)"/>
<path d="M0 0 C-2.687 3.593 -6.373 4.079 -10.527 4.973 C-11.272 5.141 -12.016 5.31 -12.782 5.484 C-14.361 5.839 -15.94 6.189 -17.521 6.534 C-19.9 7.054 -22.275 7.589 -24.65 8.127 C-33.062 10.015 -41.47 11.718 -50 13 C-50 12.01 -50 11.02 -50 10 C-43.846 8.567 -37.689 7.144 -31.531 5.728 C-29.437 5.245 -27.344 4.76 -25.251 4.272 C-22.239 3.571 -19.225 2.879 -16.211 2.188 C-15.279 1.969 -14.348 1.75 -13.388 1.525 C-8.836 0.49 -4.704 -0.272 0 0 Z " fill="#000000" transform="translate(770,340)"/>
<path d="M0 0 C0.99 3.3 1.98 6.6 3 10 C2 11 2 11 -1.562 11.062 C-2.697 11.042 -3.831 11.021 -5 11 C-5.99 8.03 -6.98 5.06 -8 2 C-2.25 0 -2.25 0 0 0 Z " fill="#000000" transform="translate(229,342)"/>
<path d="M0 0 C7.496 1.299 13.684 9.095 18 15 C19.821 18.477 20.223 21.092 20 25 C19.01 25.33 18.02 25.66 17 26 C16.689 25.165 16.689 25.165 16.371 24.312 C13.252 16.586 8.507 11.393 2.562 5.688 C0 3 0 3 0 0 Z " fill="#000000" transform="translate(592,345)"/>
<path d="M0 0 C1.65 0 3.3 0 5 0 C5.33 0.99 5.66 1.98 6 3 C5.01 3.33 4.02 3.66 3 4 C2.01 3.34 1.02 2.68 0 2 C0 1.34 0 0.68 0 0 Z " fill="#000000" transform="translate(402,348)"/>
<path d="M0 0 C1.65 0.33 3.3 0.66 5 1 C4.67 1.99 4.34 2.98 4 4 C1.525 3.01 1.525 3.01 -1 2 C-0.67 1.34 -0.34 0.68 0 0 Z " fill="#000000" transform="translate(413,352)"/>
<path d="M0 0 C0.66 0 1.32 0 2 0 C0.375 5.75 0.375 5.75 -3 8 C-3.33 7.01 -3.66 6.02 -4 5 C-2.188 2.312 -2.188 2.312 0 0 Z " fill="#000000" transform="translate(443,359)"/>
<path d="M0 0 C-0.33 0.66 -0.66 1.32 -1 2 C-3.373 2.537 -5.667 2.946 -8.07 3.289 C-8.785 3.397 -9.499 3.505 -10.235 3.617 C-11.753 3.845 -13.271 4.068 -14.79 4.287 C-17.096 4.621 -19.4 4.969 -21.703 5.32 C-23.18 5.54 -24.656 5.759 -26.133 5.977 C-27.157 6.131 -27.157 6.131 -28.201 6.289 C-32.5 6.902 -36.661 7.092 -41 7 C-41 6.34 -41 5.68 -41 5 C-36.874 4.304 -32.748 3.61 -28.622 2.919 C-27.222 2.684 -25.821 2.448 -24.421 2.212 C-3.8 -1.267 -3.8 -1.267 0 0 Z " fill="#000000" transform="translate(762,359)"/>
<path d="M0 0 C0.66 0.33 1.32 0.66 2 1 C1.688 3.875 1.688 3.875 1 7 C-2 9 -2 9 -5.062 8.75 C-8 8 -8 8 -10 6 C-9.625 3.375 -9.625 3.375 -9 1 C-5.774 -0.075 -3.378 -0.144 0 0 Z " fill="#000000" transform="translate(416,364)"/>
<path d="M0 0 C0.99 0.99 1.98 1.98 3 3 C2.67 3.99 2.34 4.98 2 6 C0.35 6.33 -1.3 6.66 -3 7 C-4.125 3.25 -4.125 3.25 -3 1 C-2.01 0.67 -1.02 0.34 0 0 Z " fill="#000000" transform="translate(434,374)"/>
<path d="M0 0 C11.181 8.688 15.679 20.178 17.938 33.938 C21.425 66.263 9.645 97.821 -10.111 123.17 C-13.975 127.954 -18.128 132.429 -22.438 136.812 C-23.018 137.417 -23.598 138.022 -24.195 138.645 C-33.519 147.523 -45.896 151.445 -58.48 151.145 C-70.447 150.14 -78.369 143.427 -86.215 134.875 C-96.145 122.746 -98.29 107.594 -96.977 92.445 C-93.368 58.388 -78.719 24.84 -51.812 2.812 C-35.917 -8.792 -17.045 -11.139 0 0 Z M-45.008 16.371 C-64.489 35.947 -79.964 69.878 -80.516 97.758 C-80.477 99.27 -80.477 99.27 -80.438 100.812 C-78.952 100.317 -78.952 100.317 -77.438 99.812 C-76.63 97.656 -76.63 97.656 -76.227 94.992 C-76.037 93.99 -75.847 92.988 -75.652 91.955 C-75.36 90.338 -75.36 90.338 -75.062 88.688 C-72.188 74.096 -67.914 61.459 -61.562 48 C-61.069 46.949 -60.575 45.899 -60.066 44.817 C-52.421 29.044 -42.083 15.895 -26.641 7.246 C-25.914 6.773 -25.187 6.3 -24.438 5.812 C-24.438 5.152 -24.438 4.493 -24.438 3.812 C-32.235 3.812 -39.633 11.289 -45.008 16.371 Z M-31.621 50.773 C-41.617 67.498 -50.974 85.787 -49.438 105.812 C-48.476 109.433 -47.119 112.131 -44.438 114.812 C-40.028 115.518 -37.196 115.033 -33.562 112.562 C-24.69 105.12 -19.543 95.561 -14.562 85.312 C-14.098 84.364 -13.634 83.415 -13.155 82.438 C-8.506 72.531 -5.9 62.843 -6.062 51.875 C-6.051 51.065 -6.039 50.255 -6.027 49.42 C-6.053 44.293 -6.638 40.612 -10.438 36.812 C-20.273 35.173 -26.674 43.175 -31.621 50.773 Z M-80.438 108.812 C-80.438 110.462 -80.438 112.113 -80.438 113.812 C-79.447 114.142 -78.457 114.472 -77.438 114.812 C-77.438 112.832 -77.438 110.853 -77.438 108.812 C-78.428 108.812 -79.418 108.812 -80.438 108.812 Z M-78.438 123.812 C-77.87 127.942 -77.87 127.942 -76.438 131.812 C-75.447 131.812 -74.457 131.812 -73.438 131.812 C-74.208 128.324 -74.208 128.324 -75.438 124.812 C-76.428 124.482 -77.418 124.153 -78.438 123.812 Z " fill="#000000" transform="translate(720.4375,385.1875)"/>
<path d="M0 0 C1.938 0.312 1.938 0.312 4 1 C4.33 1.99 4.66 2.98 5 4 C4.01 4.99 3.02 5.98 2 7 C0.68 6.34 -0.64 5.68 -2 5 C-1.34 3.35 -0.68 1.7 0 0 Z " fill="#000000" transform="translate(603,405)"/>
<path d="M0 0 C1.207 0.031 1.207 0.031 2.438 0.062 C2.767 1.712 3.098 3.363 3.438 5.062 C1.062 6.125 1.062 6.125 -1.562 7.062 C-2.223 6.733 -2.882 6.402 -3.562 6.062 C-3.605 4.396 -3.603 2.729 -3.562 1.062 C-2.562 0.062 -2.562 0.062 0 0 Z " fill="#000000" transform="translate(285.5625,408.9375)"/>
<path d="M0 0 C-1 3 -1 3 -3.566 4.467 C-4.697 4.974 -5.827 5.481 -6.992 6.004 C-7.91 6.422 -7.91 6.422 -8.847 6.849 C-10.165 7.449 -11.484 8.044 -12.805 8.636 C-16.294 10.198 -19.766 11.794 -23.238 13.391 C-23.925 13.706 -24.611 14.021 -25.318 14.345 C-30.334 16.66 -35.222 19.149 -40.062 21.812 C-46.194 25.17 -52.455 28.161 -58.82 31.043 C-59.623 31.407 -60.426 31.771 -61.253 32.147 C-65.296 33.977 -69.345 35.791 -73.405 37.585 C-110.315 54.076 -137.305 81.432 -151.979 119.336 C-160.023 139.246 -160.023 139.246 -161 160 C-156.564 166.736 -146.976 170.78 -140.191 174.84 C-134.493 178.273 -128.934 181.909 -123.375 185.562 C-116.855 189.843 -110.323 194.089 -103.688 198.188 C-97.217 202.188 -90.882 206.372 -84.567 210.612 C-80.099 213.61 -75.604 216.551 -71.062 219.438 C-65.375 223.077 -59.768 226.824 -54.188 230.625 C-53.411 231.152 -52.634 231.678 -51.834 232.22 C-29.509 247.504 -29.509 247.504 -26 261 C-25.506 265.853 -25.68 270.298 -27 275 C-26.113 275.268 -25.226 275.536 -24.312 275.812 C-21 277 -21 277 -18.812 278.625 C-14.379 280.793 -9.851 280.229 -5 280 C-5 281.32 -5 282.64 -5 284 C-16.105 286.282 -22.703 283.344 -31.812 277.438 C-33.077 276.651 -34.344 275.867 -35.612 275.087 C-38.184 273.503 -40.745 271.904 -43.301 270.295 C-47.707 267.539 -52.215 264.971 -56.733 262.404 C-71.294 254.119 -84.641 244.588 -97.985 234.5 C-106.97 227.722 -116.226 221.32 -125.465 214.895 C-143.628 202.224 -143.628 202.224 -150.988 195.066 C-155.798 190.436 -160.556 188.402 -166.824 186.168 C-180.381 181.182 -188.311 172.935 -194.371 160.098 C-203.814 137.852 -196.844 112.556 -188.266 91.285 C-178.198 67.276 -162.498 40.715 -137.562 30.062 C-126.289 25.634 -114.206 25.378 -102.828 29.715 C-98.858 31.519 -95.049 33.543 -91.277 35.73 C-88.952 37.119 -88.952 37.119 -86 38 C-83.345 37.115 -83.345 37.115 -80.426 35.676 C-78.73 34.883 -78.73 34.883 -76.999 34.075 C-75.77 33.488 -74.541 32.9 -73.312 32.312 C-72.049 31.716 -70.785 31.12 -69.521 30.525 C-56.785 24.504 -44.197 18.187 -31.642 11.8 C-24.574 8.207 -17.493 4.666 -10.25 1.438 C-9.141 0.941 -8.033 0.445 -6.891 -0.066 C-3.977 -1.007 -2.789 -1.131 0 0 Z M-141.5 58.188 C-165.246 83.077 -177.869 118.446 -177.141 152.383 C-177.097 153.922 -177.051 155.461 -177 157 C-176.01 157 -175.02 157 -174 157 C-173.985 156.412 -173.971 155.824 -173.956 155.219 C-173.087 123.733 -164.203 90.314 -143 66 C-142.248 65.102 -141.497 64.203 -140.723 63.277 C-136.272 58.111 -131.667 53.799 -126 50 C-126.495 49.01 -126.495 49.01 -127 48 C-132.17 48 -137.877 54.743 -141.5 58.188 Z M-175 164 C-174.584 168.279 -174.584 168.279 -172.438 171.875 C-171.963 172.246 -171.489 172.618 -171 173 C-169.967 170.212 -169.955 169.132 -170.938 166.25 C-171.288 165.507 -171.639 164.765 -172 164 C-172.99 164 -173.98 164 -175 164 Z M-161 168 C-161.33 168.66 -161.66 169.32 -162 170 C-159.42 177.576 -154.935 183.724 -149.812 189.75 C-149.028 190.681 -149.028 190.681 -148.228 191.63 C-146.889 193.152 -145.451 194.585 -144 196 C-143.01 196 -142.02 196 -141 196 C-141.473 195.536 -141.946 195.072 -142.434 194.594 C-147.723 189.067 -151.38 183.208 -154.941 176.498 C-155.475 175.497 -155.475 175.497 -156.02 174.477 C-156.33 173.879 -156.64 173.282 -156.96 172.667 C-158.105 170.832 -159.423 169.47 -161 168 Z M-153 173 C-146.593 189.281 -133.84 199.884 -120 210 C-119.319 210.499 -118.637 210.998 -117.936 211.512 C-112.648 215.376 -107.331 219.196 -102 223 C-101.288 223.508 -100.576 224.016 -99.842 224.54 C-91.023 230.823 -82.123 236.978 -73.167 243.065 C-67.601 246.864 -62.13 250.777 -56.688 254.75 C-51.21 258.74 -45.69 262.63 -40 266.312 C-39.127 266.881 -39.127 266.881 -38.237 267.462 C-35.348 269.418 -35.348 269.418 -32 270 C-29.959 265.918 -30.678 261.363 -32 257.125 C-36.408 246.706 -45.763 241.125 -54.914 235.334 C-57.709 233.547 -60.456 231.692 -63.206 229.837 C-72.361 223.667 -81.654 217.72 -90.964 211.787 C-96.577 208.205 -102.166 204.597 -107.688 200.875 C-115.593 195.547 -123.653 190.463 -131.707 185.363 C-134.968 183.297 -138.217 181.216 -141.449 179.105 C-142.101 178.681 -142.752 178.256 -143.424 177.819 C-145.123 176.708 -146.819 175.592 -148.516 174.477 C-150.805 172.83 -150.805 172.83 -153 173 Z " fill="#000000" transform="translate(290,390)"/>
<path d="M0 0 C20.203 11.251 27.435 35.492 33.583 56.298 C45.602 98.973 45.602 98.973 45.602 109.977 C43.668 110.984 41.729 111.982 39.789 112.977 C38.71 113.533 37.631 114.09 36.52 114.664 C33.602 115.977 33.602 115.977 30.602 115.977 C30.36 114.709 30.119 113.441 29.871 112.135 C22.876 54.509 22.876 54.509 -6.398 7.977 C-9.337 6.178 -12.32 4.523 -15.398 2.977 C-11.165 -1.66 -5.833 -2.489 0 0 Z " fill="#000000" transform="translate(523.3984375,426.0234375)"/>
<path d="M0 0 C-1.265 3.795 -2.27 3.958 -5.762 5.736 C-6.795 6.267 -7.827 6.797 -8.89 7.344 C-10.034 7.919 -11.177 8.494 -12.355 9.086 C-13.566 9.703 -14.776 10.32 -15.985 10.938 C-19.982 12.975 -23.99 14.989 -28 17 C-29.032 17.518 -29.032 17.518 -30.085 18.047 C-42.677 24.37 -55.294 30.645 -67.916 36.91 C-84.745 45.265 -101.463 53.718 -117.893 62.841 C-122.458 65.352 -127.108 67.698 -131.75 70.062 C-155.053 82.108 -181.107 96.661 -196 119 C-196.66 119 -197.32 119 -198 119 C-196.758 108.807 -186.118 100.801 -178.492 94.68 C-166.19 85.106 -152.605 77.539 -139 70 C-138.092 69.496 -137.183 68.993 -136.248 68.474 C-111.165 54.62 -85.577 41.673 -59.901 28.961 C-51.66 24.877 -43.486 20.693 -35.37 16.364 C-28.561 12.742 -21.67 9.295 -14.757 5.877 C-13.125 5.062 -11.503 4.227 -9.883 3.391 C-8.993 2.932 -8.104 2.473 -7.188 2 C-6.439 1.608 -5.69 1.216 -4.918 0.812 C-3 0 -3 0 0 0 Z " fill="#000000" transform="translate(503,440)"/>
<path d="M0 0 C2.125 0.938 2.125 0.938 4 2 C3.688 3.938 3.688 3.938 3 6 C2.01 6.33 1.02 6.66 0 7 C-0.99 6.01 -1.98 5.02 -3 4 C-2.67 3.01 -2.34 2.02 -2 1 C-1.34 0.67 -0.68 0.34 0 0 Z " fill="#000000" transform="translate(696,445)"/>
<path d="M0 0 C1.675 0.286 3.344 0.618 5 1 C5.33 1.99 5.66 2.98 6 4 C5.01 5.485 5.01 5.485 4 7 C2.35 6.67 0.7 6.34 -1 6 C-1.043 4.334 -1.041 2.666 -1 1 C-0.67 0.67 -0.34 0.34 0 0 Z " fill="#000000" transform="translate(225,452)"/>
<path d="M0 0 C2.562 -0.25 2.562 -0.25 5 0 C6 1 6 1 6.188 3.438 C6 6 6 6 4 8 C1.375 7.625 1.375 7.625 -1 7 C-1.625 5.188 -1.625 5.188 -2 3 C-1.34 2.01 -0.68 1.02 0 0 Z " fill="#000000" transform="translate(688,458)"/>
<path d="M0 0 C0.598 0.227 1.196 0.454 1.812 0.688 C2.438 2.5 2.438 2.5 2.812 4.688 C1.822 6.173 1.822 6.173 0.812 7.688 C-0.837 7.358 -2.487 7.027 -4.188 6.688 C-4.875 4.875 -4.875 4.875 -5.188 2.688 C-3.585 0.241 -2.955 -0.422 0 0 Z " fill="#000000" transform="translate(687.1875,475.3125)"/>
<path d="M0 0 C1.938 1.062 1.938 1.062 3 3 C3.576 9.061 2.082 12.808 -0.688 18 C-1.027 18.673 -1.367 19.346 -1.717 20.039 C-7.944 32.098 -7.944 32.098 -13.562 34.562 C-17 35 -17 35 -19.312 34.438 C-21.763 32.35 -22.334 31.198 -23 28 C-22.48 18.394 -17.943 9.439 -11.062 2.812 C-7.38 -0.129 -4.758 -0.933 0 0 Z M-3 4 C-3.364 4.822 -3.727 5.645 -4.102 6.492 C-10.941 21.679 -10.941 21.679 -15 27 C-15.99 27.33 -16.98 27.66 -18 28 C-17.67 28.99 -17.34 29.98 -17 31 C-13.911 30.697 -12.434 30.507 -10.375 28.102 C-3.378 16.713 -3.378 16.713 -1 4 C-1.66 4 -2.32 4 -3 4 Z " fill="#000000" transform="translate(174,477)"/>
<path d="M0 0 C1.65 0.33 3.3 0.66 5 1 C5.33 1.99 5.66 2.98 6 4 C4.25 6.062 4.25 6.062 2 8 C-0.188 7.938 -0.188 7.938 -2 7 C-2.33 6.01 -2.66 5.02 -3 4 C-1.562 1.812 -1.562 1.812 0 0 Z " fill="#000000" transform="translate(358,477)"/>
<path d="M0 0 C1.32 0.66 2.64 1.32 4 2 C3.67 3.32 3.34 4.64 3 6 C1.35 6.33 -0.3 6.66 -2 7 C-2.688 5.188 -2.688 5.188 -3 3 C-1.562 1.25 -1.562 1.25 0 0 Z " fill="#000000" transform="translate(603,486)"/>
<path d="M0 0 C2.625 0.375 2.625 0.375 5 1 C5.625 2.812 5.625 2.812 6 5 C5.01 6.485 5.01 6.485 4 8 C1.438 8.25 1.438 8.25 -1 8 C-2 7 -2 7 -2.188 4.562 C-2 2 -2 2 0 0 Z " fill="#000000" transform="translate(250,519)"/>
<path d="M0 0 C2.062 0.188 2.062 0.188 4 1 C4.33 1.99 4.66 2.98 5 4 C4.01 5.485 4.01 5.485 3 7 C1.68 6.67 0.36 6.34 -1 6 C-1.625 4.125 -1.625 4.125 -2 2 C-1.34 1.34 -0.68 0.68 0 0 Z " fill="#000000" transform="translate(401,523)"/>
<path d="M0 0 C-3.502 2.184 -7.026 3.998 -10.797 5.672 C-11.913 6.168 -13.03 6.665 -14.18 7.177 C-15.358 7.696 -16.536 8.215 -17.75 8.75 C-18.954 9.282 -20.158 9.814 -21.398 10.362 C-28.244 13.376 -35.097 16.369 -42 19.25 C-42.68 19.537 -43.361 19.824 -44.062 20.12 C-46.887 21.281 -48.911 22 -52 22 C-52 21.34 -52 20.68 -52 20 C-42.949 15.911 -33.888 11.845 -24.814 7.807 C-23.151 7.067 -21.489 6.325 -19.826 5.583 C-17.202 4.417 -14.572 3.267 -11.938 2.125 C-10.799 1.616 -10.799 1.616 -9.637 1.098 C-5.945 -0.481 -3.831 -1.237 0 0 Z " fill="#000000" transform="translate(724,531)"/>
<path d="M0 0 C2.625 -0.188 2.625 -0.188 5 0 C5.625 2.375 5.625 2.375 6 5 C5.34 5.66 4.68 6.32 4 7 C1.375 6.625 1.375 6.625 -1 6 C-1.33 5.01 -1.66 4.02 -2 3 C-1.34 2.01 -0.68 1.02 0 0 Z " fill="#000000" transform="translate(163,541)"/>
<path d="M0 0 C-1 3 -1 3 -3.259 4.375 C-4.251 4.841 -5.243 5.306 -6.266 5.785 C-7.374 6.311 -8.482 6.837 -9.624 7.379 C-10.82 7.934 -12.017 8.49 -13.25 9.062 C-14.478 9.642 -15.706 10.223 -16.933 10.805 C-20.617 12.548 -24.308 14.275 -28 16 C-31.007 17.41 -34.013 18.822 -37.017 20.24 C-38.741 21.054 -40.468 21.862 -42.198 22.664 C-46.805 24.83 -51.07 27.203 -55.284 30.064 C-57 31 -57 31 -60 31 C-58.644 26.933 -56.08 26.007 -52.5 24.062 C-51.806 23.679 -51.112 23.296 -50.396 22.901 C-36.805 15.524 -22.707 8.993 -8.562 2.75 C-7.913 2.462 -7.263 2.175 -6.594 1.878 C-2.253 0 -2.253 0 0 0 Z " fill="#000000" transform="translate(612,541)"/>
<path d="M0 0 C0 0.66 0 1.32 0 2 C-2.749 3.105 -5.5 4.21 -8.25 5.312 C-9.128 5.665 -10.006 6.017 -10.911 6.381 C-16.275 8.528 -21.648 10.646 -27.035 12.734 C-29.461 13.677 -31.887 14.619 -34.312 15.562 C-35.512 16.029 -36.711 16.495 -37.946 16.975 C-45.614 19.984 -53.07 23.219 -60.41 26.953 C-63 28 -63 28 -66 27 C-62.91 23.677 -59.345 22.071 -55.25 20.25 C-54.008 19.694 -54.008 19.694 -52.74 19.127 C-42.78 14.771 -32.636 10.863 -22.5 6.938 C-21.619 6.594 -20.739 6.251 -19.832 5.898 C-17.297 4.912 -14.759 3.937 -12.219 2.965 C-11.45 2.665 -10.681 2.366 -9.888 2.057 C-6.347 0.715 -3.835 0 0 0 Z " fill="#000000" transform="translate(650,546)"/>
<path d="M0 0 C1.542 3.084 1.609 5.676 1 9 C-1.614 15.552 -4.776 22.168 -10 27 C-13.394 28.177 -15.011 28.428 -18.312 27 C-20.886 23.95 -21 21.992 -21 18 C-19.031 10.489 -15.147 2.696 -8.5 -1.625 C-5.154 -2.127 -3.053 -1.388 0 0 Z M-6 5 C-6.471 5.987 -6.941 6.975 -7.426 7.992 C-8.054 9.287 -8.683 10.581 -9.312 11.875 C-9.621 12.526 -9.93 13.177 -10.248 13.848 C-11.888 17.197 -12.835 18.89 -16 21 C-16 21.99 -16 22.98 -16 24 C-13.619 23.938 -13.619 23.938 -11 23 C-8.899 20.479 -8.899 20.479 -7.25 17.312 C-6.657 16.277 -6.064 15.242 -5.453 14.176 C-4.021 11.045 -3.388 8.405 -3 5 C-3.99 5 -4.98 5 -6 5 Z " fill="#000000" transform="translate(228,549)"/>
<path d="M0 0 C2.062 2 2.062 2 3 5 C1.883 15.426 -4.8 25.632 -12 33 C-14.841 34.42 -16.855 34.315 -20 34 C-22.375 32.625 -22.375 32.625 -24 30 C-25.52 22.936 -23.401 17.589 -19.785 11.555 C-14.704 4.283 -9.413 -1.198 0 0 Z M-4 3 C-4.291 3.834 -4.583 4.668 -4.883 5.527 C-8.304 14.919 -12.589 22.357 -19 30 C-18.01 30.33 -17.02 30.66 -16 31 C-11.657 28.279 -9.248 24.71 -6.812 20.312 C-6.464 19.696 -6.116 19.08 -5.758 18.445 C-3.143 13.648 -1.742 9.382 -1 4 C-1.99 3.67 -2.98 3.34 -4 3 Z " fill="#000000" transform="translate(290,551)"/>
<path d="M0 0 C1.65 0.33 3.3 0.66 5 1 C5.125 3.375 5.125 3.375 5 6 C4.34 6.66 3.68 7.32 3 8 C0.875 7.625 0.875 7.625 -1 7 C-1.625 5.188 -1.625 5.188 -2 3 C-1.34 2.01 -0.68 1.02 0 0 Z " fill="#000000" transform="translate(468,551)"/>
<path d="M0 0 C0.33 0.99 0.66 1.98 1 3 C-6.204 8.371 -13.665 12.604 -21.688 16.625 C-24.097 17.849 -26.502 19.081 -28.906 20.316 C-29.507 20.625 -30.108 20.933 -30.727 21.251 C-36.464 24.212 -42.085 27.357 -47.688 30.562 C-55.406 34.978 -63.168 39.289 -71 43.5 C-78.805 47.699 -86.551 51.985 -94.25 56.375 C-103.965 61.908 -113.79 67.221 -123.656 72.477 C-131.796 76.814 -139.899 81.213 -147.982 85.655 C-153.495 88.671 -159.051 91.586 -164.65 94.439 C-167.541 95.927 -170.408 97.455 -173.273 98.992 C-177.117 101.053 -180.997 102.912 -184.977 104.695 C-194.881 109.318 -194.881 109.318 -201.157 117.826 C-202.511 123.476 -202.939 129.131 -203.348 134.914 C-204.516 151.357 -211.821 167.813 -220 182 C-220.346 182.605 -220.693 183.21 -221.05 183.833 C-232.087 202.767 -247.224 216.84 -268.465 223.809 C-283.415 227.618 -297.785 222.519 -310.957 215.402 C-323.827 207.673 -330.496 196.798 -334.375 182.375 C-341.613 152.161 -327.783 116.34 -312.282 90.562 C-307.984 83.649 -303.295 77.189 -298 71 C-297.451 70.306 -296.902 69.613 -296.336 68.898 C-288.05 58.728 -276.176 50.665 -263 49 C-247.733 47.69 -233.607 52.577 -221.75 62.25 C-210.767 72.515 -204.076 87.233 -202 102 C-201.917 104.675 -201.948 107.322 -202 110 C-201.242 109.524 -200.484 109.049 -199.703 108.559 C-191.248 103.336 -182.581 98.55 -173.812 93.875 C-172.918 93.398 -172.918 93.398 -172.005 92.911 C-168.292 90.933 -164.576 88.959 -160.859 86.987 C-145.914 79.054 -131.002 71.08 -116.3 62.703 C-109.905 59.062 -103.469 55.506 -97 52 C-89.537 47.954 -82.128 43.825 -74.75 39.625 C-65.273 34.233 -55.7 29.037 -46.086 23.895 C-40.426 20.862 -34.799 17.794 -29.25 14.562 C-23.667 11.32 -17.97 8.439 -12.156 5.641 C-8.912 4.035 -8.912 4.035 -5.781 1.797 C-3 0 -3 0 0 0 Z M-275.102 79.094 C-286.44 91.133 -295.307 104.926 -302 120 C-302.275 120.61 -302.551 121.22 -302.834 121.849 C-310.13 138.23 -314.223 155.074 -314.062 173 C-314.058 173.966 -314.053 174.931 -314.049 175.926 C-314.037 178.284 -314.021 180.642 -314 183 C-313.34 183.33 -312.68 183.66 -312 184 C-310.641 181.281 -310.84 178.72 -310.761 175.73 C-309.682 137.602 -293.437 104.516 -267.63 76.971 C-265.528 74.721 -263.714 72.571 -262 70 C-267.611 70 -271.308 75.314 -275.102 79.094 Z M-263 114 C-273.199 129.556 -281.64 149.1 -278.496 168.035 C-277.498 172.729 -276.499 176.28 -273.75 180.25 C-270.01 182.63 -268.388 182.791 -264 182 C-247.469 174.572 -239.142 159.1 -232.759 142.999 C-228.305 131.272 -224.648 118.353 -228.973 106.098 C-230.797 102.372 -233.31 99.845 -237 98 C-248.286 96.354 -256.771 105.668 -263 114 Z M-309 201 C-309.33 201.99 -309.66 202.98 -310 204 C-309.01 205.485 -309.01 205.485 -308 207 C-307.34 207 -306.68 207 -306 207 C-306.344 204.527 -306.344 204.527 -307 202 C-307.66 201.67 -308.32 201.34 -309 201 Z " fill="#000000" transform="translate(626,509)"/>
<path d="M0 0 C0.99 0 1.98 0 3 0 C3 0.99 3 1.98 3 3 C1.028 4.61 1.028 4.61 -1.707 6.32 C-2.686 6.938 -3.665 7.555 -4.674 8.191 C-5.71 8.829 -6.745 9.468 -7.812 10.125 C-9.349 11.094 -9.349 11.094 -10.916 12.082 C-18.524 16.841 -18.524 16.841 -22 18 C-22 17.01 -22 16.02 -22 15 C-20.199 13.422 -20.199 13.422 -17.688 11.75 C-16.334 10.841 -16.334 10.841 -14.953 9.914 C-11.037 7.376 -7.109 4.858 -3.152 2.383 C-1.103 1.174 -1.103 1.174 0 0 Z " fill="#000000" transform="translate(93,576)"/>
<path d="M0 0 C0 0.99 0 1.98 0 3 C-31.527 9.751 -31.527 9.751 -44 11 C-44 10.01 -44 9.02 -44 8 C-42.936 7.793 -41.871 7.586 -40.775 7.373 C-36.814 6.604 -32.854 5.834 -28.894 5.064 C-27.182 4.731 -25.47 4.399 -23.758 4.066 C-21.293 3.587 -18.828 3.108 -16.363 2.629 C-15.221 2.407 -15.221 2.407 -14.055 2.181 C-11.088 1.604 -8.122 1.026 -5.165 0.398 C-3 0 -3 0 0 0 Z " fill="#000000" transform="translate(772,577)"/>
<path d="M0 0 C0 0.66 0 1.32 0 2 C-49.841 20.559 -49.841 20.559 -68 20 C-68 19.34 -68 18.68 -68 18 C-66.584 17.662 -66.584 17.662 -65.14 17.317 C-47.377 13.055 -29.791 8.617 -12.483 2.744 C-11.416 2.384 -10.349 2.024 -9.25 1.652 C-8.327 1.333 -7.404 1.013 -6.453 0.683 C-4 0 -4 0 0 0 Z " fill="#000000" transform="translate(594,589)"/>
<path d="M0 0 C0 0.66 0 1.32 0 2 C-0.867 2.227 -1.734 2.453 -2.627 2.687 C-5.878 3.539 -9.128 4.395 -12.378 5.253 C-13.778 5.622 -15.178 5.99 -16.579 6.356 C-23.863 8.26 -30.973 10.271 -38 13 C-41 13.188 -41 13.188 -43 13 C-40.733 10.419 -38.816 9.355 -35.57 8.281 C-34.698 7.99 -33.826 7.699 -32.928 7.399 C-32.003 7.102 -31.078 6.806 -30.125 6.5 C-29.181 6.192 -28.238 5.885 -27.265 5.568 C-9.188 -0.23 -9.188 -0.23 0 0 Z " fill="#000000" transform="translate(544,590)"/>
<path d="M0 0 C0 0.66 0 1.32 0 2 C-11.382 4.824 -22.787 7.132 -34.338 9.147 C-70.613 15.507 -106.552 23.058 -142.198 32.329 C-143.179 32.582 -144.159 32.835 -145.169 33.095 C-147.008 33.57 -148.845 34.051 -150.68 34.539 C-156.776 36.112 -156.776 36.112 -159 35 C-159 34.34 -159 33.68 -159 33 C-111.877 20.938 -64.856 10.688 -16.919 2.408 C-15.932 2.237 -14.945 2.065 -13.928 1.889 C-13.069 1.74 -12.21 1.592 -11.324 1.439 C-9.828 1.156 -8.339 0.829 -6.864 0.448 C-4.543 -0.11 -2.378 -0.066 0 0 Z " fill="#000000" transform="translate(686,590)"/>
<path d="M0 0 C-0.33 0.99 -0.66 1.98 -1 3 C-2.512 3.257 -2.512 3.257 -4.054 3.519 C-7.838 4.162 -11.621 4.808 -15.404 5.454 C-17.033 5.731 -18.663 6.009 -20.292 6.286 C-28.886 7.746 -37.464 9.224 -46 11 C-46 10.01 -46 9.02 -46 8 C-36.353 5.297 -26.704 3.332 -16.812 1.75 C-15.183 1.488 -15.183 1.488 -13.52 1.22 C-8.96 0.512 -4.624 -0.098 0 0 Z " fill="#000000" transform="translate(740,593)"/>
<path d="M0 0 C0.66 0.33 1.32 0.66 2 1 C0.818 4.545 -0.005 4.947 -3.059 6.934 C-3.912 7.495 -4.765 8.056 -5.644 8.634 C-6.566 9.229 -7.488 9.824 -8.438 10.438 C-10.346 11.689 -12.255 12.94 -14.164 14.191 C-15.134 14.823 -16.103 15.455 -17.103 16.106 C-21.527 18.998 -25.919 21.937 -30.312 24.875 C-31.808 25.873 -33.305 26.87 -34.801 27.867 C-35.857 28.571 -36.912 29.275 -38 30 C-38.33 29.01 -38.66 28.02 -39 27 C-26.347 17.525 -13.17 8.736 0 0 Z " fill="#000000" transform="translate(105,597)"/>
<path d="M0 0 C1.207 0.031 1.207 0.031 2.438 0.062 C2.107 1.712 1.778 3.362 1.438 5.062 C0.118 5.393 -1.202 5.722 -2.562 6.062 C-2.945 4.406 -3.276 2.738 -3.562 1.062 C-2.562 0.062 -2.562 0.062 0 0 Z " fill="#000000" transform="translate(247.5625,599.9375)"/>
<path d="M0 0 C-1.517 4.164 -4.485 6.139 -8 8.562 C-8.602 8.986 -9.204 9.409 -9.825 9.845 C-17.648 15.262 -25.826 20.136 -34 25 C-34.33 24.01 -34.66 23.02 -35 22 C-28.806 17.561 -22.495 13.362 -16.059 9.288 C-12.043 6.726 -8.236 4.012 -4.551 0.996 C-3 0 -3 0 0 0 Z " fill="#000000" transform="translate(145,612)"/>
<path d="M0 0 C5.711 0.637 10.911 2.062 16.379 3.801 C17.713 4.217 17.713 4.217 19.073 4.642 C21.905 5.527 24.734 6.419 27.562 7.312 C31.271 8.478 34.981 9.64 38.691 10.801 C39.582 11.08 40.472 11.359 41.389 11.646 C48.56 13.884 55.76 15.994 63 18 C63 18.66 63 19.32 63 20 C56.275 19.368 50.048 17.795 43.562 15.938 C42.485 15.632 41.408 15.327 40.298 15.013 C11.933 6.887 11.933 6.887 0 2 C0 1.34 0 0.68 0 0 Z " fill="#000000" transform="translate(462,620)"/>
<path d="M0 0 C4.002 -0.025 8.004 -0.043 12.006 -0.055 C13.364 -0.06 14.723 -0.067 16.082 -0.075 C18.045 -0.088 20.009 -0.093 21.973 -0.098 C23.151 -0.103 24.329 -0.108 25.543 -0.114 C29.094 0.003 32.495 0.434 36 1 C35.67 1.99 35.34 2.98 35 4 C23.45 3.67 11.9 3.34 0 3 C0 2.01 0 1.02 0 0 Z " fill="#000000" transform="translate(761,621)"/>
<path d="M0 0 C0 0.66 0 1.32 0 2 C-3.902 2.273 -7.804 2.538 -11.707 2.8 C-13.644 2.93 -15.582 3.066 -17.52 3.201 C-42.798 4.882 -68.05 5.142 -93.372 5.069 C-97.409 5.058 -101.447 5.054 -105.484 5.049 C-113.323 5.038 -121.161 5.021 -129 5 C-129.33 4.01 -129.66 3.02 -130 2 C-129.053 1.992 -128.107 1.984 -127.132 1.975 C-115.129 1.872 -103.127 1.753 -91.125 1.625 C-90.174 1.615 -89.224 1.605 -88.244 1.595 C-64.195 1.338 -40.177 1.054 -16.165 -0.427 C-15.41 -0.473 -14.656 -0.518 -13.879 -0.565 C-11.954 -0.683 -10.03 -0.814 -8.106 -0.946 C-5.212 -0.996 -2.798 -0.699 0 0 Z " fill="#000000" transform="translate(716,620)"/>
<path d="M0 0 C1.675 0.286 3.344 0.618 5 1 C4.67 2.65 4.34 4.3 4 6 C2.125 6.625 2.125 6.625 0 7 C-0.66 6.34 -1.32 5.68 -2 5 C-1.464 1.464 -1.464 1.464 0 0 Z " fill="#000000" transform="translate(382,633)"/>
<path d="M0 0 C1.223 0.124 2.447 0.248 3.707 0.376 C12.281 1.241 20.855 2.086 29.438 2.859 C46.43 4.413 63.294 6.29 80.125 9.125 C80.891 9.253 81.658 9.381 82.447 9.513 C95.699 11.748 95.699 11.748 102 14 C102 14.66 102 15.32 102 16 C95.249 15.321 88.619 14.292 81.938 13.125 C66.447 10.497 50.913 8.594 35.285 6.996 C34.009 6.865 34.009 6.865 32.707 6.731 C28.442 6.293 24.176 5.862 19.908 5.445 C18.323 5.285 16.737 5.125 15.152 4.965 C14.433 4.897 13.715 4.83 12.974 4.76 C8.426 4.292 4.341 3.364 0 2 C0 1.34 0 0.68 0 0 Z " fill="#000000" transform="translate(585,636)"/>
<path d="M0 0 C0.99 0.99 0.99 0.99 2 2 C-4.416 6.218 -11.056 9.55 -18 12.812 C-20.249 13.882 -22.498 14.952 -24.746 16.023 C-25.827 16.537 -26.909 17.051 -28.023 17.581 C-50.14 28.123 -72.598 39.398 -93 53 C-93.99 53 -94.98 53 -96 53 C-94.595 49.549 -93.206 48.196 -89.969 46.398 C-89.114 45.918 -88.259 45.438 -87.378 44.943 C-85.954 44.167 -85.954 44.167 -84.5 43.375 C-83.49 42.816 -82.479 42.257 -81.438 41.68 C-78.584 40.11 -75.723 38.552 -72.857 37.004 C-70.963 35.98 -69.071 34.953 -67.179 33.925 C-45.102 21.959 -22.65 10.835 0 0 Z " fill="#000000" transform="translate(190,636)"/>
<path d="M0 0 C10.507 2.578 20.66 6.222 30.875 9.75 C34.537 11.009 38.2 12.266 41.863 13.523 C42.75 13.828 43.637 14.133 44.55 14.447 C54.012 17.697 63.499 20.868 73 24 C73 24.66 73 25.32 73 26 C67.553 25.383 62.643 24.09 57.445 22.375 C56.634 22.112 55.823 21.849 54.987 21.578 C52.364 20.725 49.744 19.863 47.125 19 C46.235 18.709 45.345 18.417 44.428 18.117 C33.286 14.467 22.168 10.754 11.125 6.812 C10.106 6.451 9.086 6.089 8.036 5.717 C7.119 5.384 6.202 5.05 5.258 4.707 C4.476 4.423 3.693 4.139 2.887 3.847 C1 3 1 3 -1 1 C-0.67 0.67 -0.34 0.34 0 0 Z " fill="#000000" transform="translate(435,643)"/>
<path d="M0 0 C1.65 0.33 3.3 0.66 5 1 C5.688 3.312 5.688 3.312 6 6 C4.875 7.875 4.875 7.875 3 9 C0.312 8.688 0.312 8.688 -2 8 C-2.33 7.01 -2.66 6.02 -3 5 C-1.562 2.312 -1.562 2.312 0 0 Z " fill="#000000" transform="translate(369,646)"/>
<path d="M0 0 C8.23 1.8 16.408 3.774 24.578 5.831 C26.206 6.239 27.835 6.641 29.465 7.038 C31.834 7.616 34.199 8.211 36.562 8.809 C37.295 8.984 38.027 9.159 38.781 9.339 C40.816 9.865 40.816 9.865 44 11 C44.495 12.485 44.495 12.485 45 14 C36.218 12.63 27.694 10.489 19.126 8.169 C16.848 7.555 14.565 6.96 12.281 6.365 C10.83 5.975 9.38 5.584 7.93 5.191 C7.248 5.016 6.565 4.841 5.863 4.661 C3.968 4.135 3.968 4.135 1 3 C0.67 2.01 0.34 1.02 0 0 Z " fill="#000000" transform="translate(509,646)"/>
<path d="M0 0 C-1.386 4.159 -4.267 5.207 -7.875 7.312 C-15.567 11.932 -22.739 17.1 -29.878 22.529 C-30.648 23.11 -31.418 23.69 -32.211 24.289 C-33.236 25.073 -33.236 25.073 -34.283 25.874 C-36 27 -36 27 -38 27 C-37.16 22.068 -33.859 20.216 -30 17.438 C-29.294 16.92 -28.588 16.403 -27.86 15.87 C-22.574 12.04 -17.197 8.347 -11.75 4.75 C-11.036 4.272 -10.322 3.795 -9.586 3.302 C-8.577 2.65 -8.577 2.65 -7.547 1.984 C-6.957 1.6 -6.368 1.215 -5.761 0.819 C-4 0 -4 0 0 0 Z " fill="#000000" transform="translate(84,652)"/>
<path d="M0 0 C0.495 1.485 0.495 1.485 1 3 C0.408 3.356 -0.184 3.712 -0.794 4.079 C-14.707 12.46 -28.46 21.029 -42 30 C-42.594 30.394 -43.189 30.788 -43.801 31.193 C-58.436 40.891 -73.045 50.627 -87.562 60.5 C-88.844 61.37 -88.844 61.37 -90.152 62.257 C-94.657 65.334 -99.028 68.506 -103.289 71.916 C-105 73 -105 73 -108 73 C-106.592 69.618 -105.067 68.031 -102.062 65.969 C-101.259 65.412 -100.456 64.854 -99.628 64.28 C-98.761 63.693 -97.893 63.105 -97 62.5 C-96.105 61.884 -95.21 61.268 -94.288 60.634 C-86.273 55.135 -78.19 49.736 -70.08 44.377 C-68.096 43.064 -66.117 41.743 -64.141 40.418 C-56.248 35.129 -48.301 29.929 -40.312 24.785 C-37.469 22.954 -34.637 21.107 -31.812 19.246 C-21.432 12.427 -10.806 6.121 0 0 Z " fill="#000000" transform="translate(206,661)"/>
<path d="M0 0 C11.802 2.252 23.441 4.707 35 8 C35 8.66 35 9.32 35 10 C27.289 9.348 19.957 7.731 12.438 5.938 C11.238 5.656 10.039 5.374 8.803 5.084 C5.867 4.394 2.933 3.699 0 3 C0 2.01 0 1.02 0 0 Z " fill="#000000" transform="translate(532,662)"/>
<path d="M0 0 C1.32 0.66 2.64 1.32 4 2 C4 3.32 4 4.64 4 6 C3.34 6.66 2.68 7.32 2 8 C-0.125 7.625 -0.125 7.625 -2 7 C-2.688 5.188 -2.688 5.188 -3 3 C-1.562 1.25 -1.562 1.25 0 0 Z " fill="#000000" transform="translate(364,665)"/>
<path d="M0 0 C10.823 3.955 21.506 8.177 32.106 12.697 C34.484 13.707 36.868 14.702 39.252 15.697 C40.771 16.343 42.29 16.989 43.809 17.637 C44.519 17.931 45.229 18.224 45.961 18.527 C47.678 19.27 49.345 20.126 51 21 C51.495 22.485 51.495 22.485 52 24 C45.631 21.968 39.436 19.643 33.258 17.094 C32.368 16.728 31.477 16.362 30.56 15.985 C28.696 15.217 26.832 14.447 24.969 13.675 C22.115 12.496 19.257 11.328 16.398 10.16 C14.58 9.41 12.763 8.658 10.945 7.906 C10.092 7.559 9.239 7.212 8.36 6.855 C7.569 6.524 6.777 6.194 5.961 5.854 C5.267 5.567 4.572 5.281 3.857 4.986 C1.84 3.915 0.525 2.685 -1 1 C-0.67 0.67 -0.34 0.34 0 0 Z " fill="#000000" transform="translate(431,669)"/>
<path d="M0 0 C-1.484 4.383 -4.742 5.97 -8.562 8.125 C-9.216 8.504 -9.869 8.883 -10.542 9.273 C-11.947 10.088 -13.354 10.9 -14.764 11.708 C-17.091 13.052 -19.398 14.426 -21.703 15.809 C-23.24 16.727 -24.776 17.645 -26.312 18.562 C-27.415 19.225 -27.415 19.225 -28.539 19.901 C-33.773 23 -33.773 23 -36 23 C-35.833 21.205 -35.833 21.205 -35 19 C-32.703 17.34 -32.703 17.34 -29.68 15.723 C-28.587 15.126 -27.493 14.53 -26.367 13.916 C-25.215 13.304 -24.062 12.693 -22.875 12.062 C-20.62 10.849 -18.368 9.632 -16.117 8.41 C-15.053 7.833 -13.99 7.255 -12.894 6.661 C-10.424 5.243 -8.161 3.76 -5.883 2.059 C-3 0 -3 0 0 0 Z " fill="#000000" transform="translate(247,674)"/>
<path d="M0 0 C1.193 3.877 2 6.916 2 11 C-4.93 13.97 -4.93 13.97 -12 17 C-16 5.25 -16 5.25 -16 3 C-13.897 2.496 -11.792 1.997 -9.688 1.5 C-8.516 1.222 -7.344 0.943 -6.137 0.656 C-3 0 -3 0 0 0 Z " fill="#000000" transform="translate(588,684)"/>
<path d="M0 0 C4.364 0.615 7.653 2.209 11.523 4.281 C12.142 4.611 12.761 4.94 13.399 5.28 C15.395 6.346 17.385 7.422 19.375 8.5 C20.74 9.235 22.105 9.97 23.47 10.704 C48.736 24.345 48.736 24.345 55 31 C50.983 30.412 48.149 29.145 44.668 27.078 C43.633 26.47 42.597 25.863 41.531 25.237 C40.427 24.581 39.324 23.925 38.188 23.25 C35.862 21.887 33.536 20.525 31.207 19.168 C30.615 18.822 30.022 18.477 29.412 18.12 C19.745 12.501 9.864 7.263 0 2 C0 1.34 0 0.68 0 0 Z " fill="#000000" transform="translate(421,691)"/>
<path d="M0 0 C6.771 0.498 12.268 2.44 18.5 5.062 C19.418 5.44 20.336 5.817 21.281 6.205 C23.525 7.128 25.764 8.06 28 9 C28 9.99 28 10.98 28 12 C21.767 9.976 15.616 7.792 9.5 5.438 C8.69 5.134 7.881 4.83 7.047 4.518 C6.279 4.222 5.51 3.926 4.719 3.621 C4.027 3.357 3.336 3.094 2.623 2.822 C1 2 1 2 0 0 Z " fill="#000000" transform="translate(516,702)"/>
<path d="M0 0 C5.191 1.512 9.629 3.802 14.312 6.438 C15.087 6.871 15.862 7.305 16.66 7.752 C22.413 11.014 28.052 14.439 33.625 18 C34.365 18.468 35.106 18.937 35.868 19.42 C37.617 20.557 39.315 21.771 41 23 C41 23.66 41 24.32 41 25 C37.868 24.367 35.551 23.294 32.832 21.629 C32.029 21.141 31.225 20.654 30.397 20.152 C29.544 19.627 28.691 19.103 27.812 18.562 C26.023 17.472 24.232 16.382 22.441 15.293 C21.538 14.743 20.634 14.193 19.704 13.626 C17.119 12.072 14.518 10.553 11.902 9.051 C11.117 8.598 10.331 8.146 9.522 7.679 C8.028 6.822 6.531 5.97 5.031 5.123 C3.321 4.137 1.655 3.076 0 2 C0 1.34 0 0.68 0 0 Z " fill="#000000" transform="translate(414,703)"/>
<path d="M0 0 C-3.676 3.908 -8.151 6.678 -12.562 9.688 C-13.876 10.597 -13.876 10.597 -15.217 11.525 C-16.473 12.385 -16.473 12.385 -17.754 13.262 C-18.52 13.787 -19.287 14.313 -20.076 14.854 C-22 16 -22 16 -24 16 C-24 15.01 -24 14.02 -24 13 C-22.12 11.358 -22.12 11.358 -19.512 9.609 C-18.578 8.983 -17.644 8.356 -16.682 7.711 C-15.2 6.74 -15.2 6.74 -13.688 5.75 C-12.223 4.756 -12.223 4.756 -10.729 3.742 C-9.791 3.121 -8.853 2.5 -7.887 1.859 C-6.591 1 -6.591 1 -5.268 0.124 C-3 -1 -3 -1 0 0 Z " fill="#000000" transform="translate(187,712)"/>
<path d="M0 0 C2.97 0 5.94 0 9 0 C8.67 0.99 8.34 1.98 8 3 C5.36 3 2.72 3 0 3 C0 2.01 0 1.02 0 0 Z " fill="#000000" transform="translate(664,714)"/>
<path d="M0 0 C0.99 0.33 1.98 0.66 3 1 C-3.333 7.333 -9.667 13.667 -16 20 C-16.99 19.67 -17.98 19.34 -19 19 C-7 4.6 -7 4.6 0 0 Z " fill="#000000" transform="translate(82,745)"/>
</svg>
