<?xml version="1.0" encoding="UTF-8"?>
<!-- Generator: visioncortex VTracer 0.6.0 -->
<svg version="1.1" xmlns="http://www.w3.org/2000/svg" width="847" height="847">
<path d="M0 0 C0.66 0.33 1.32 0.66 2 1 C-1.532 13.854 -5.378 26.494 -10 39 C-11.395 34.559 -10.105 31.237 -8.691 26.953 C-8.446 26.182 -8.2 25.411 -7.947 24.616 C-7.162 22.158 -6.362 19.704 -5.562 17.25 C-5.027 15.582 -4.493 13.914 -3.959 12.246 C-2.65 8.161 -1.328 4.079 0 0 Z " fill="#000000" transform="translate(388,80)"/>
<path d="M0 0 C1.65 0.33 3.3 0.66 5 1 C5.33 2.32 5.66 3.64 6 5 C5.01 5.33 4.02 5.66 3 6 C0.812 4.562 0.812 4.562 -1 3 C-0.67 2.01 -0.34 1.02 0 0 Z " fill="#000000" transform="translate(461,85)"/>
<path d="M0 0 C0 1.32 0 2.64 0 4 C-3.75 5.125 -3.75 5.125 -6 4 C-6 2.68 -6 1.36 -6 0 C-3.509 -1.245 -2.589 -0.777 0 0 Z " fill="#000000" transform="translate(337,108)"/>
<path d="M0 0 C9.297 5.071 14.153 14.572 17.277 24.414 C17.857 27.289 18.116 29.687 18.191 32.586 C18.736 50.11 26.467 63.222 37 77 C37.219 75.949 37.438 74.899 37.664 73.816 C40.335 61.729 44.237 52.175 55 45 C57.562 44.688 57.562 44.688 60 45 C63.181 49.772 62.585 54.418 62 60 C59.865 69.605 55.292 77.241 49.747 85.227 C49.045 86.246 49.045 86.246 48.328 87.285 C47.904 87.882 47.481 88.479 47.044 89.094 C45.706 91.537 45.187 93.199 45 96 C45.809 98.58 46.675 100.902 47.754 103.363 C48.052 104.073 48.35 104.783 48.657 105.514 C49.613 107.785 50.587 110.049 51.562 112.312 C52.819 115.265 54.068 118.22 55.316 121.176 C55.624 121.901 55.932 122.627 56.249 123.374 C59.394 130.832 62.224 138.399 65 146 C65.546 145.108 65.546 145.108 66.104 144.199 C69.75 138.25 69.75 138.25 72 136 C76.886 135.564 80.603 136.052 85.281 137.52 C86.169 137.795 87.056 138.071 87.971 138.355 C88.64 138.568 89.31 138.781 90 139 C90.203 137.192 90.203 137.192 90.41 135.348 C93.933 106.056 101.38 77.447 109 49 C109.183 48.316 109.365 47.633 109.553 46.929 C120.307 6.693 120.307 6.693 124 3 C153.827 1.091 185.571 14.432 212 27 C211.535 33.611 209.034 38.763 206.188 44.688 C205.169 46.861 204.154 49.035 203.141 51.211 C202.617 52.336 202.093 53.461 201.553 54.62 C197.142 64.221 193.079 73.979 188.968 83.711 C187.885 86.272 186.799 88.833 185.713 91.393 C183.634 96.297 181.562 101.204 179.494 106.113 C178.667 108.075 177.838 110.036 177.007 111.996 C175.838 114.757 174.676 117.521 173.516 120.285 C173.16 121.121 172.804 121.958 172.438 122.819 C172.116 123.59 171.794 124.362 171.462 125.156 C171.178 125.829 170.895 126.502 170.603 127.195 C169.842 129.157 169.842 129.157 170 132 C170.776 131.394 171.552 130.788 172.352 130.164 C178.392 125.469 184.484 120.853 190.688 116.375 C191.287 115.938 191.887 115.5 192.504 115.049 C196.764 112 196.764 112 199 112 C199.245 111.169 199.49 110.337 199.742 109.48 C201.182 105.497 203.033 101.984 205.125 98.312 C205.726 97.256 205.726 97.256 206.338 96.179 C217.096 77.555 231.68 60.309 253 54 C263.659 51.659 273.921 50.677 283.562 56.5 C285.614 57.899 287.236 59.236 289 61 C291.069 61.643 291.069 61.643 293 62 C293 62.66 293 63.32 293 64 C292.34 64 291.68 64 291 64 C291.33 64.66 291.66 65.32 292 66 C292.782 72.894 292.057 78.311 288 84 C269.38 106.739 232.722 112.101 205.229 115.961 C204.486 116.07 203.742 116.178 202.977 116.289 C202.328 116.379 201.679 116.469 201.01 116.561 C196.635 117.516 193.238 119.352 189.672 122.012 C188.471 122.902 188.471 122.902 187.246 123.811 C186.422 124.43 185.599 125.049 184.75 125.688 C183.942 126.288 183.134 126.888 182.301 127.506 C177.4 131.156 172.579 134.89 167.821 138.726 C166 140 166 140 164 140 C163.83 140.606 163.66 141.212 163.484 141.836 C161.913 147.269 160.086 152.472 157.867 157.676 C156.962 160.102 156.442 162.452 156 165 C163.918 163.483 171.052 160.852 178.41 157.673 C206.013 145.77 234.114 134.845 262.812 125.875 C264.209 125.431 264.209 125.431 265.634 124.979 C270.488 123.507 274.884 122.279 280 123 C283.777 127.132 284.74 132.097 286.188 137.375 C286.486 138.456 286.784 139.536 287.091 140.65 C291.455 156.931 294.799 173.457 298 190 C298.226 191.163 298.226 191.163 298.456 192.35 C299.306 196.758 300.124 201.169 300.893 205.591 C301.243 207.582 301.612 209.57 301.981 211.557 C302.178 212.747 302.375 213.938 302.578 215.164 C302.847 216.718 302.847 216.718 303.122 218.303 C303 221 303 221 301.334 223.26 C298.868 225.099 297.043 225.89 294.082 226.676 C293.091 226.943 292.1 227.21 291.079 227.486 C290.001 227.758 288.923 228.031 287.812 228.312 C286.685 228.607 285.557 228.901 284.396 229.204 C274.877 231.635 265.296 233.767 255.688 235.812 C254.999 235.959 254.311 236.106 253.602 236.257 C239.695 239.207 226.379 241.369 212.125 241.312 C211.45 241.312 210.775 241.312 210.079 241.312 C194.617 241.287 179.344 239.807 164 238 C166.428 243.268 168.976 245.992 173.875 249 C174.57 249.433 175.266 249.866 175.982 250.312 C182.419 254.082 189.015 255.975 196.198 257.817 C217.636 263.422 237.998 277.884 253 294 C254.207 295.176 254.207 295.176 255.438 296.375 C267.045 308.266 267.045 308.266 269 314 C268.61 318.39 268.61 318.39 267 320 C245.534 322.167 220.663 310.85 204.125 297.625 C202.742 296.426 201.367 295.218 200 294 C199.184 293.381 198.368 292.762 197.527 292.125 C188.467 284.507 182.565 274.08 181.438 262.375 C180.874 258.598 180.279 257.272 177.504 254.562 C174.128 252.104 170.737 249.869 167 248 C167.384 249.262 167.384 249.262 167.775 250.55 C193.713 336.273 208.538 424.911 220.659 513.515 C220.966 515.755 221.276 517.995 221.588 520.235 C224.798 543.458 227.222 566.776 229.73 590.082 C229.844 591.135 229.957 592.188 230.074 593.273 C230.285 595.246 230.494 597.22 230.699 599.194 C230.902 601.089 231.12 602.983 231.352 604.875 C231.457 605.771 231.562 606.666 231.67 607.589 C231.769 608.381 231.867 609.173 231.968 609.988 C232 612 232 612 230.543 614.488 C229.766 615.09 228.988 615.692 228.188 616.312 C227.263 617.046 226.339 617.779 225.387 618.535 C224.261 619.36 223.131 620.182 222 621 C221.355 621.478 220.71 621.956 220.045 622.449 C215.536 625.79 210.976 629.054 206.396 632.297 C202.496 635.069 198.625 637.88 194.75 640.688 C188.965 644.869 183.176 649.045 177.349 653.168 C173.952 655.578 170.603 658.04 167.273 660.543 C166.461 661.147 165.649 661.751 164.812 662.373 C163.214 663.563 161.622 664.763 160.039 665.975 C159.312 666.513 158.585 667.051 157.836 667.605 C157.192 668.092 156.548 668.578 155.884 669.079 C154 670 154 670 151.885 669.837 C150 669 150 669 148 666 C147.31 663.352 146.704 660.735 146.152 658.059 C145.98 657.246 145.808 656.434 145.63 655.597 C145.058 652.879 144.496 650.158 143.938 647.438 C143.741 646.485 143.544 645.533 143.341 644.552 C134.313 600.792 127.362 556.766 120.953 512.562 C120.216 507.482 119.474 502.401 118.729 497.322 C113.688 462.937 108.773 428.536 104.061 394.104 C103.786 392.089 103.509 390.074 103.233 388.06 C102.897 385.612 102.563 383.164 102.23 380.715 C102.082 379.634 101.934 378.553 101.781 377.439 C101.59 376.036 101.59 376.036 101.395 374.605 C101.008 372.05 100.528 369.529 100 367 C91.692 410.233 83.956 453.529 77 497 C76.893 497.669 76.786 498.338 76.676 499.027 C72.255 526.665 68.033 554.33 64.188 582.055 C64.071 582.892 63.955 583.728 63.836 584.591 C62.696 592.815 61.565 601.04 60.453 609.268 C60.044 612.283 59.633 615.297 59.222 618.311 C58.939 620.397 58.661 622.483 58.383 624.569 C58.214 625.803 58.046 627.037 57.873 628.309 C57.728 629.389 57.582 630.47 57.433 631.584 C57 634 57 634 56 635 C48.775 634.687 42.906 632.122 36.312 629.312 C19.644 622.474 3.812 617.689 -14.184 616.024 C-15.145 615.929 -16.107 615.835 -17.098 615.738 C-17.949 615.666 -18.799 615.595 -19.676 615.521 C-22.542 614.879 -23.888 614.044 -26 612 C-26.425 609.49 -26.425 609.49 -26.318 606.448 C-26.272 604.728 -26.272 604.728 -26.225 602.974 C-26.17 601.726 -26.115 600.478 -26.059 599.191 C-26.017 597.894 -25.975 596.597 -25.932 595.261 C-25.818 591.753 -25.676 588.247 -25.528 584.74 C-25.438 582.563 -25.354 580.385 -25.273 578.207 C-24.464 556.423 -23.519 534.663 -21 513 C-20.924 512.346 -20.849 511.692 -20.771 511.019 C-16.987 478.721 -9.875 446.855 -2.648 415.184 C-2.231 413.352 -2.231 413.352 -1.805 411.483 C-0.442 405.525 0.933 399.57 2.328 393.62 C2.827 391.468 3.326 389.316 3.824 387.164 C4.06 386.176 4.296 385.188 4.539 384.169 C4.748 383.265 4.956 382.36 5.171 381.428 C5.356 380.641 5.541 379.854 5.732 379.043 C6.177 376.803 6.177 376.803 5 374 C5.051 363.534 7.015 353.344 9.062 343.125 C9.215 342.353 9.367 341.58 9.524 340.784 C14.118 317.549 19.835 294.582 27 272 C25.94 272.65 24.881 273.299 23.789 273.969 C22.401 274.813 21.013 275.656 19.625 276.5 C18.577 277.144 18.577 277.144 17.508 277.801 C12.227 281 12.227 281 10 281 C9.865 281.534 9.729 282.067 9.59 282.617 C5.023 298.425 -8.947 311.521 -22.945 319.477 C-30.898 323.443 -39.07 325.386 -48 324 C-49.867 322.613 -49.867 322.613 -51 321 C-50.688 318.812 -50.688 318.812 -50 317 C-50.66 317 -51.32 317 -52 317 C-52.747 309.834 -51.491 305.606 -47 300 C-46.527 299.392 -46.054 298.783 -45.566 298.156 C-37.204 288.647 -23.673 285.78 -11.875 282.875 C-0.301 279.973 10.928 277.024 21.438 271.25 C22.591 270.636 23.745 270.023 24.934 269.391 C28.835 266.349 30.153 263.493 32 259 C32.352 258.191 32.705 257.382 33.068 256.549 C34.594 253.03 36.075 249.491 37.557 245.953 C40.141 239.843 42.965 233.899 46 228 C44.477 226.477 43.024 226.77 40.898 226.641 C18.09 225.046 -7.73 221.458 -27 208 C-28.793 205.82 -28.793 205.82 -30 204 C-27.525 202.02 -27.525 202.02 -25 200 C-25.843 200.168 -26.686 200.335 -27.555 200.508 C-29.198 200.813 -29.198 200.813 -30.875 201.125 C-32.511 201.438 -32.511 201.438 -34.18 201.758 C-35.576 201.878 -35.576 201.878 -37 202 C-37.66 201.34 -38.32 200.68 -39 200 C-38.649 171.7 -22.005 132.005 -2 112 C19.774 112.411 41.429 130.548 58 143 C55.6 133.838 51.937 125.226 48.312 116.5 C47.403 114.306 46.495 112.112 45.591 109.916 C45.033 108.559 44.471 107.203 43.905 105.849 C42 101.225 42 101.225 42 99 C41.323 99.324 40.646 99.647 39.949 99.98 C31.209 103.002 20.374 101.542 12 98 C10.899 97.536 9.798 97.072 8.664 96.594 C-2.035 91.673 -11.933 85.007 -17.266 74.109 C-18.368 70.942 -18.471 68.299 -18 65 C-15.142 62.142 -13.117 62.666 -9.125 62.625 C6.713 62.731 19.532 70.914 32 80 C30.233 76.08 28.455 72.166 26.666 68.257 C26.059 66.928 25.456 65.597 24.856 64.265 C23.991 62.344 23.114 60.43 22.234 58.516 C21.711 57.364 21.187 56.211 20.647 55.024 C17.813 49.821 14.308 47.425 9.188 44.625 C-1.177 38.675 -9.734 30.811 -13.566 19.074 C-14.648 13.902 -14.804 8.99 -12.812 4.062 C-8.863 -0.431 -5.815 -1.861 0 0 Z M132 8 C131.34 10.31 130.68 12.62 130 15 C129.257 15.062 128.515 15.124 127.75 15.188 C123.974 16.303 123.167 17.701 121 21 C119.715 24.264 118.831 27.611 117.938 31 C117.651 32.059 117.364 33.118 117.069 34.209 C116.022 38.133 115.006 42.065 114 46 C113.792 46.813 113.583 47.625 113.369 48.462 C108.206 68.637 103.163 88.84 99.312 109.312 C99.069 110.597 98.825 111.882 98.574 113.205 C96.279 124.084 96.279 124.084 98.812 134.5 C99.534 135.325 100.256 136.15 101 137 C101.99 137 102.98 137 104 137 C104 138.65 104 140.3 104 142 C104.99 141.67 105.98 141.34 107 141 C107.174 140.102 107.349 139.205 107.528 138.28 C116.036 94.67 125.05 51.07 136 8 C134.68 8 133.36 8 132 8 Z M-11 9 C-11.655 18.174 -8.725 23.22 -2.812 30.125 C1.332 34.586 5.749 37.946 11 41 C11.66 40.67 12.32 40.34 13 40 C12.199 39.252 12.199 39.252 11.383 38.488 C2.494 29.922 -5.64 20.692 -10 9 C-10.33 9 -10.66 9 -11 9 Z M152 10 C148.243 18.625 145.632 27.551 143 36.562 C142.524 38.177 142.048 39.791 141.572 41.405 C139.229 49.35 136.911 57.302 134.594 65.255 C133.793 68.007 132.99 70.759 132.188 73.511 C131.17 76.999 130.158 80.489 129.148 83.979 C126.606 92.735 123.926 101.4 120.896 110 C119.809 113.117 119.809 113.117 120 117 C121.485 116.505 121.485 116.505 123 116 C124.234 113.537 124.234 113.537 125.207 110.406 C125.622 109.172 126.037 107.938 126.464 106.667 C126.915 105.278 127.364 103.889 127.812 102.5 C128.161 101.44 128.161 101.44 128.517 100.359 C133.823 84.215 138.452 67.868 143.052 51.512 C143.333 50.514 143.613 49.517 143.902 48.489 C144.455 46.522 145.006 44.554 145.555 42.585 C146.905 37.774 148.299 32.984 149.787 28.213 C150.071 27.296 150.356 26.378 150.649 25.432 C151.189 23.704 151.737 21.979 152.295 20.257 C152.534 19.49 152.774 18.723 153.02 17.933 C153.341 16.934 153.341 16.934 153.669 15.914 C154.058 13.666 153.689 12.154 153 10 C152.67 10 152.34 10 152 10 Z M169 15 C152.36 45.224 139.991 77.309 129.023 109.961 C128.37 111.902 127.71 113.841 127.043 115.777 C122.554 128.82 119.234 141.995 116.396 155.481 C115.081 161.634 113.825 167.359 111 173 C112.968 172.795 112.968 172.795 115 172 C116.036 170.324 116.036 170.324 116.555 168.172 C116.794 167.354 117.034 166.536 117.28 165.693 C117.518 164.805 117.755 163.916 118 163 C118.245 162.106 118.49 161.212 118.743 160.291 C119.554 157.282 120.339 154.266 121.125 151.25 C133.482 104.754 150.165 58.937 172 16 C171.01 15.67 170.02 15.34 169 15 Z M182 19 C160.508 60.876 142.531 103.73 128.128 148.558 C127.303 151.075 126.455 153.576 125.579 156.075 C125.342 156.757 125.106 157.438 124.863 158.141 C124.195 160.064 123.518 161.985 122.84 163.905 C121.693 167.002 121.693 167.002 123 170 C126.245 167.836 126.431 167.535 127.395 164.027 C127.624 163.22 127.854 162.412 128.091 161.58 C128.329 160.708 128.567 159.836 128.812 158.938 C129.343 157.09 129.877 155.244 130.414 153.398 C130.815 152.017 130.815 152.017 131.224 150.608 C133.198 143.974 135.593 137.488 138 131 C138.574 129.451 138.574 129.451 139.16 127.872 C150.859 96.456 163.725 65.74 178.301 35.547 C178.758 34.597 179.215 33.648 179.686 32.67 C180.525 30.966 181.387 29.273 182.279 27.596 C183.252 25.764 184.136 23.886 185 22 C184.505 20.515 184.505 20.515 184 19 C183.34 19 182.68 19 182 19 Z M194 23 C189.976 30.32 185.978 37.655 182 45 C181.525 45.875 181.051 46.75 180.562 47.652 C164.043 78.234 150.598 110.013 139.375 142.875 C138.907 144.246 138.907 144.246 138.429 145.645 C137.539 148.259 136.654 150.875 135.773 153.492 C135.374 154.67 135.374 154.67 134.967 155.872 C133.736 159.561 132.639 163.152 132 167 C132.99 166.67 133.98 166.34 135 166 C136.136 163.396 137.076 160.885 137.961 158.195 C138.233 157.402 138.506 156.608 138.787 155.79 C139.661 153.239 140.519 150.682 141.375 148.125 C142.501 144.792 143.633 141.461 144.773 138.133 C145.188 136.923 145.188 136.923 145.611 135.688 C147.43 130.451 149.481 125.406 151.869 120.398 C153.394 117.164 154.704 113.858 156.027 110.537 C164.308 89.751 174.068 69.69 184.062 49.688 C184.484 48.844 184.905 48.001 185.339 47.132 C186.547 44.715 187.759 42.301 188.973 39.887 C189.335 39.164 189.697 38.441 190.07 37.696 C191.548 34.767 193.036 31.942 194.771 29.152 C196.248 27.072 196.248 27.072 195.688 24.688 C195.461 24.131 195.234 23.574 195 23 C194.67 23 194.34 23 194 23 Z M205 32 C200.021 40.955 195.508 50.023 191.41 59.417 C189.343 64.127 187.137 68.728 184.797 73.309 C180.043 82.681 175.956 92.347 171.812 102 C171.398 102.961 170.984 103.922 170.558 104.911 C163.793 120.616 157.288 136.404 151.066 152.331 C150.154 154.614 149.192 156.861 148.188 159.105 C146.81 161.941 146.81 161.941 147 165 C150.249 163.66 151.542 162.65 152.9 159.409 C153.219 158.668 153.537 157.926 153.866 157.161 C154.197 156.351 154.529 155.542 154.871 154.707 C155.409 153.439 155.409 153.439 155.958 152.146 C157.13 149.373 158.284 146.593 159.438 143.812 C160.248 141.887 161.059 139.962 161.872 138.038 C163.894 133.242 165.901 128.44 167.902 123.635 C169.468 119.878 171.042 116.124 172.617 112.371 C174.205 108.586 175.792 104.8 177.375 101.012 C186.913 78.195 196.907 55.576 207 33 C206.34 32.67 205.68 32.34 205 32 Z M269 56 C268.349 57.56 267.704 59.123 267.062 60.688 C266.703 61.558 266.343 62.428 265.973 63.324 C265.043 65.882 264.458 68.322 264 71 C268.488 70.296 272.556 68.747 276.75 67.062 C277.434 66.798 278.119 66.533 278.824 66.26 C282.606 64.966 282.606 64.966 285 62 C277.397 57.837 277.397 57.837 269 56 Z M47 57 C46.131 58.575 45.28 60.161 44.438 61.75 C43.962 62.632 43.486 63.513 42.996 64.422 C41.92 67.207 41.935 68.27 43 71 C43.864 69.046 44.716 67.086 45.562 65.125 C46.038 64.034 46.514 62.944 47.004 61.82 C47.497 60.424 47.497 60.424 48 59 C47.67 58.34 47.34 57.68 47 57 Z M265 56 C262.769 56.426 260.54 56.866 258.312 57.312 C257.071 57.556 255.83 57.8 254.551 58.051 C249.87 59.275 249.87 59.275 246 62 C244.505 65.065 243.563 68.228 242.625 71.5 C242.353 72.368 242.081 73.235 241.801 74.129 C240.161 79.037 240.161 79.037 241 84 C244.311 82.519 247.594 80.984 250.875 79.438 C251.812 79.019 252.749 78.601 253.715 78.17 C259.359 75.572 259.359 75.572 262.527 70.426 C262.683 69.295 262.839 68.165 263 67 C263.543 65.576 264.101 64.157 264.688 62.75 C266.384 59.131 266.384 59.131 265 56 Z M235.562 67.75 C234.594 68.446 233.626 69.142 232.629 69.859 C229.57 72.35 227.356 74.238 226.559 78.184 C226.519 78.927 226.479 79.671 226.438 80.438 C226.162 84.015 225.334 86.665 224 90 C224.408 92.105 224.408 92.105 225 94 C230.931 91.124 236.304 88.392 238.875 82.117 C240.859 76.208 242.051 70.155 243 64 C239.835 64 238.081 65.917 235.562 67.75 Z M279.488 68.68 C278.648 69.032 277.809 69.384 276.943 69.746 C275.641 70.305 275.641 70.305 274.312 70.875 C273.433 71.24 272.553 71.605 271.646 71.98 C267.035 73.581 267.035 73.581 264 77 C271.26 77.33 278.52 77.66 286 78 C288.108 73.784 288.177 71.602 288 67 C284.289 67 282.772 67.302 279.488 68.68 Z M-15 68 C-14.572 74.84 -9.22 80.045 -4.5 84.562 C5.215 92.664 19.218 98.88 32 98 C32.66 97.34 33.32 96.68 34 96 C32.424 95.528 32.424 95.528 30.816 95.047 C12.463 89.484 -1.522 81.913 -15 68 Z M225 77 C219.788 82.661 215.578 89.002 211.5 95.5 C211.055 96.206 210.609 96.913 210.151 97.641 C207.815 101.065 207.815 101.065 207 105 C215.701 100.968 215.701 100.968 221.988 94.148 C222.472 92.102 222.73 90.085 223 88 C223.518 85.994 224.06 83.994 224.625 82 C224.885 81.051 225.146 80.103 225.414 79.125 C225.607 78.424 225.801 77.722 226 77 C225.67 77 225.34 77 225 77 Z M247 85 C247 85.33 247 85.66 247 86 C247.635 86.05 248.27 86.1 248.924 86.152 C251.825 86.385 254.725 86.63 257.625 86.875 C258.624 86.954 259.623 87.032 260.652 87.113 C264.862 87.476 268.456 87.799 272.441 89.27 C275.027 90.329 275.027 90.329 277.301 88.77 C277.965 88.124 278.629 87.478 279.312 86.812 C279.989 86.18 280.666 85.547 281.363 84.895 C283.213 82.997 283.213 82.997 284 80 C280.004 79.59 276.007 79.277 272 79 C270.836 78.908 269.672 78.817 268.473 78.723 C259.744 78.327 254.201 80.062 247 85 Z M234 92 C234 92.33 234 92.66 234 93 C241.693 93.848 249.263 94.122 257 94 C257 94.66 257 95.32 257 96 C255.769 95.945 255.769 95.945 254.512 95.889 C251.413 95.768 248.315 95.681 245.214 95.615 C243.234 95.564 241.254 95.475 239.275 95.385 C230.059 95.221 224.062 96.914 217 103 C217 103.33 217 103.66 217 104 C234.634 104.437 248.287 103.046 264.434 95.816 C265.285 95.437 265.285 95.437 266.154 95.049 C268.658 93.626 270.787 91.834 273 90 C268.896 89.442 264.79 88.925 260.677 88.444 C259.282 88.275 257.888 88.095 256.496 87.905 C247.792 86.721 241.194 86.254 234 92 Z M210.113 108.512 C209.746 109.003 209.379 109.494 209 110 C216.55 109.347 216.55 109.347 224 108 C224 107.67 224 107.34 224 107 C222.063 106.919 220.125 106.861 218.188 106.812 C217.109 106.778 216.03 106.743 214.918 106.707 C211.981 106.735 211.981 106.735 210.113 108.512 Z M-6 122 C-6.33 122.99 -6.66 123.98 -7 125 C-6.417 125.2 -5.835 125.401 -5.234 125.607 C7.326 129.962 19.292 134.705 31 141 C32.196 141.629 33.393 142.256 34.59 142.883 C39.378 145.417 44.076 147.993 48.625 150.938 C51.767 153.261 51.767 153.261 55 153 C53.873 149.619 53.357 149.284 50.484 147.434 C49.738 146.953 48.993 146.472 48.224 145.977 C47.408 145.469 46.591 144.961 45.75 144.438 C44.904 143.909 44.058 143.38 43.186 142.835 C19.994 128.376 19.994 128.376 -6 122 Z M-14 138 C-14.33 138.99 -14.66 139.98 -15 141 C-14.427 141.186 -13.853 141.372 -13.263 141.563 C11.162 149.511 11.162 149.511 22.207 155.121 C23.304 155.678 23.304 155.678 24.423 156.246 C25.869 156.988 27.311 157.738 28.747 158.498 C30.469 159.39 32.232 160.203 34 161 C34.66 160.67 35.32 160.34 36 160 C35.268 156.718 35.268 156.718 32 155.203 C30.673 154.54 29.339 153.889 28 153.25 C27.285 152.903 26.57 152.556 25.834 152.198 C12.843 145.975 0.097 141.055 -14 138 Z M151 138 C149.682 141.56 148.371 145.124 147.062 148.688 C146.689 149.695 146.316 150.702 145.932 151.74 C145.574 152.717 145.216 153.693 144.848 154.699 C144.518 155.595 144.188 156.49 143.848 157.413 C143.023 159.931 142.462 162.393 142 165 C144.764 162.612 145.821 160.382 147.043 156.965 C147.394 155.991 147.746 155.017 148.107 154.014 C148.464 152.999 148.82 151.983 149.188 150.938 C149.74 149.409 149.74 149.409 150.303 147.85 C152.23 143.039 152.23 143.039 153 138 C152.34 138 151.68 138 151 138 Z M71.188 140 C67.703 145.869 67.076 153.346 68 160 C70.05 166.935 72.741 173.163 77 179 C77 179.66 77 180.32 77 181 C75.35 181.33 73.7 181.66 72 182 C70.526 177.656 69.081 173.323 67.828 168.91 C67.515 167.837 67.515 167.837 67.196 166.742 C66.777 165.302 66.371 163.858 65.978 162.41 C64.839 158.484 64.839 158.484 62.16 155.523 C54.575 153.685 47.56 156.226 40.898 159.746 C38.859 160.866 38.859 160.866 38 163 C39.027 163.568 40.055 164.137 41.113 164.723 C60.574 175.545 60.574 175.545 69 182 C68.01 182.33 67.02 182.66 66 183 C63.863 181.918 63.863 181.918 61.312 180.188 C59.868 179.23 59.868 179.23 58.395 178.254 C57.86 177.897 57.326 177.54 56.776 177.172 C53.386 174.934 49.941 172.783 46.5 170.625 C45.806 170.184 45.111 169.744 44.396 169.29 C41.622 167.546 39.121 166.04 36 165 C34.334 166.165 34.334 166.165 33 168 C33.535 173.893 37.031 176.943 41 181 C41.492 181.517 41.985 182.034 42.492 182.566 C49.815 189.529 60.05 193.545 69 198 C66.787 202.073 64.423 205.864 61.711 209.625 C34.459 248.37 8.035 318.828 9 367 C12.388 366.336 14.956 365.026 17.938 363.305 C29.955 356.502 41.642 350.709 54.864 346.663 C57.59 345.817 60.294 344.908 63 344 C63.111 343.194 63.221 342.387 63.335 341.557 C63.844 337.87 64.36 334.185 64.875 330.5 C65.049 329.232 65.223 327.963 65.402 326.656 C65.576 325.419 65.75 324.181 65.93 322.906 C66.087 321.775 66.244 320.644 66.406 319.479 C67 316 67 316 68.059 312.383 C69.531 306.652 69.207 300.848 69.125 294.973 C69.117 293.712 69.11 292.45 69.102 291.151 C69.07 285.794 69.014 280.438 68.959 275.081 C68.795 257.602 69.227 240.397 71 223 C53.723 239.73 44.977 275.332 37.438 298 C37.19 298.744 36.942 299.488 36.686 300.255 C30.67 316.34 30.67 316.34 28 333 C27.01 333 26.02 333 25 333 C35.011 293.937 49.234 257.417 67.702 221.532 C68.874 219.246 70.024 216.952 71.168 214.652 C71.777 213.455 72.388 212.258 73 211.062 C73.495 210.084 73.99 209.106 74.5 208.098 C76 206 76 206 78.188 205.184 C78.786 205.123 79.384 205.062 80 205 C79.746 205.877 79.492 206.753 79.23 207.656 C76.975 215.967 75.395 224.204 74.312 232.75 C74.194 233.663 74.075 234.577 73.952 235.518 C71.925 252.525 71.856 269.647 71.938 286.75 C71.943 288.634 71.947 290.518 71.951 292.402 C71.962 296.935 71.979 301.467 72 306 C75.141 307.571 78.119 306.299 81.414 305.566 C82.144 305.41 82.873 305.253 83.625 305.091 C85.96 304.588 88.292 304.075 90.625 303.562 C92.206 303.22 93.786 302.878 95.367 302.537 C99.246 301.699 103.124 300.851 107 300 C107.617 273.399 103.99 248.728 97.496 222.953 C97.136 221.513 97.136 221.513 96.769 220.043 C96.309 218.224 95.836 216.409 95.348 214.598 C95.142 213.787 94.935 212.976 94.723 212.141 C94.44 211.081 94.44 211.081 94.153 210.001 C93.956 207.422 94.639 206.17 96 204 C99.087 200.913 102.729 201.575 106.875 201.562 C107.78 201.559 108.685 201.555 109.618 201.551 C122.266 201.754 134.649 204.466 147 207 C147.303 205.817 147.606 204.633 147.918 203.414 C151.356 190.314 154.7 178.475 166 170 C163.312 167.312 155.722 168.688 152.121 168.683 C136.492 168.885 116.215 172.079 103.562 182.062 C101.086 184.901 100.11 186.274 100 190 C98.02 189.01 96.04 188.02 94 187 C94.698 173.971 99.383 162.099 106 151 C106.679 149.673 107.351 148.342 108 147 C105.253 144.74 105.253 144.74 102.5 145.117 C98.491 146.533 97.494 149.241 95.488 152.828 C92.181 159.878 89.771 167.422 88 175 C88.211 168.978 89.571 163.951 91.812 158.375 C92.185 157.444 92.185 157.444 92.565 156.494 C94.386 152.114 96.582 148.08 99 144 C97.32 143.584 97.32 143.584 95.605 143.16 C94.133 142.794 92.66 142.428 91.188 142.062 C90.081 141.789 90.081 141.789 88.951 141.51 C85.929 140.758 82.955 139.985 80 139 C75.424 138.579 75.424 138.579 71.188 140 Z M218.073 161.778 C214.459 162.913 210.844 164.043 207.229 165.173 C203.694 166.279 200.159 167.386 196.624 168.494 C194.962 169.015 193.3 169.535 191.637 170.055 C174.984 174.696 174.984 174.696 159 181 C159 181.66 159 182.32 159 183 C167.67 181.656 175.973 179.431 184.375 176.938 C185.738 176.537 187.102 176.137 188.465 175.737 C207.611 170.099 226.657 164.133 245.636 157.958 C251.238 156.15 256.856 154.455 262.523 152.863 C263.77 152.51 265.017 152.156 266.302 151.791 C268.726 151.109 271.153 150.441 273.584 149.789 C274.67 149.482 275.756 149.175 276.875 148.859 C277.842 148.596 278.809 148.333 279.805 148.062 C282.194 147.214 282.194 147.214 282.82 144.884 C282.909 143.951 282.909 143.951 283 143 C262.766 143 237.312 155.734 218.073 161.778 Z M109 152 C107.701 154.517 106.41 157.038 105.125 159.562 C104.76 160.267 104.395 160.971 104.02 161.697 C100.047 169.21 100.047 169.21 99.375 177.438 C99.581 177.953 99.788 178.469 100 179 C106.016 174.625 108.666 170.002 111 163 C111.069 161.105 111.085 159.208 111.062 157.312 C111.053 156.319 111.044 155.325 111.035 154.301 C111.024 153.542 111.012 152.782 111 152 C110.34 152 109.68 152 109 152 Z M-22 155 C-22 156.32 -22 157.64 -22 159 C-21.449 159.11 -20.898 159.219 -20.33 159.332 C-6.451 162.147 6.59 166.034 19.762 171.231 C22.154 172.053 24.512 172.556 27 173 C27 172.01 27 171.02 27 170 C11.084 162.889 -4.635 157.281 -22 155 Z M279.045 165.326 C277.785 165.618 276.524 165.909 275.225 166.21 C274.205 166.447 274.205 166.447 273.165 166.689 C271.009 167.191 268.853 167.689 266.697 168.187 C263.611 168.899 260.526 169.612 257.441 170.325 C233.186 175.93 208.931 181.454 184.502 186.26 C176.937 187.751 169.396 189.301 161.898 191.109 C161.215 191.269 160.531 191.429 159.827 191.593 C158.201 191.997 156.597 192.491 155 193 C154.67 193.66 154.34 194.32 154 195 C159.907 195.161 165.27 194.615 171.062 193.5 C172 193.323 172.937 193.147 173.903 192.965 C177.271 192.322 180.636 191.662 184 191 C185.311 190.745 186.621 190.49 187.932 190.235 C215.588 184.836 243.015 178.47 270.438 172.004 C276.284 170.628 282.135 169.289 288 168 C287.67 166.68 287.34 165.36 287 164 C284.225 164 281.751 164.697 279.045 165.326 Z M-28 170 C-28 170.99 -28 171.98 -28 173 C-27.362 173.156 -26.724 173.311 -26.067 173.471 C-4.891 178.653 14.923 184.458 35 193 C36.41 193.592 37.82 194.183 39.23 194.773 C44.142 196.847 49.001 198.95 53.75 201.375 C56.693 203.149 56.693 203.149 59 203 C58.331 199.967 58.331 199.967 56.292 198.868 C55.181 198.34 55.181 198.34 54.047 197.801 C53.21 197.4 52.374 197 51.512 196.587 C50.601 196.166 49.689 195.746 48.75 195.312 C47.342 194.653 47.342 194.653 45.906 193.979 C37.698 190.195 29.336 186.925 20.855 183.809 C17.889 182.719 14.958 181.587 12.051 180.348 C4.996 177.35 -1.948 175.06 -9.375 173.188 C-10.196 172.98 -11.016 172.773 -11.862 172.56 C-17.231 171.27 -22.502 170.512 -28 170 Z M-20.5 179.938 C-24.805 182.529 -27.956 183.14 -33 183 C-33 183.99 -33 184.98 -33 186 C-31.835 186.075 -30.669 186.15 -29.469 186.227 C-12.789 187.486 2.911 191.421 18.832 196.43 C19.492 196.637 20.151 196.844 20.831 197.058 C24.08 198.082 27.322 199.124 30.556 200.192 C31.729 200.571 32.901 200.949 34.109 201.34 C35.671 201.856 35.671 201.856 37.265 202.383 C40.011 203.002 41.395 202.964 44 202 C11.938 188.983 11.938 188.983 -22 185 C-19.34 181.558 -16.097 181.005 -12 180 C-12.33 179.34 -12.66 178.68 -13 178 C-16.855 178 -17.524 178.037 -20.5 179.938 Z M279.855 184.941 C278.15 185.362 276.443 185.781 274.737 186.2 C273.834 186.422 272.931 186.645 272.001 186.874 C237.455 195.332 202.827 201.02 167.55 205.447 C166.8 205.543 166.051 205.639 165.279 205.737 C163.697 205.92 162.11 206.068 160.522 206.189 C159.723 206.254 158.924 206.318 158.101 206.385 C157.027 206.457 157.027 206.457 155.932 206.529 C153.536 207.113 152.575 208.149 151 210 C151.741 209.939 152.482 209.879 153.246 209.816 C158.754 209.378 164.254 208.981 169.774 208.725 C181.595 208.145 193.286 206.653 205 205 C205.904 204.873 206.809 204.746 207.741 204.615 C222.05 202.543 236.177 199.573 250.312 196.562 C251.196 196.375 252.079 196.188 252.988 195.996 C273.007 192.536 273.007 192.536 292 186 C291.67 185.01 291.34 184.02 291 183 C287.115 183 283.599 184.001 279.855 184.941 Z M185.125 194.094 C184.315 194.205 183.505 194.316 182.671 194.43 C180.113 194.782 177.557 195.141 175 195.5 C173.254 195.741 171.508 195.982 169.762 196.223 C165.507 196.809 161.253 197.403 157 198 C156.505 199.98 156.505 199.98 156 202 C164.341 202.256 172.432 201.388 180.689 200.346 C182.956 200.06 185.225 199.784 187.494 199.51 C194.848 198.737 194.848 198.737 202 197 C202 195.68 202 194.36 202 193 C196.253 192.886 190.81 193.284 185.125 194.094 Z M106 205 C103.674 210.796 102.563 214.861 104 221 C104.66 221 105.32 221 106 221 C107.32 216.05 108.64 211.1 110 206 C108.68 205.67 107.36 205.34 106 205 Z M286.884 205.524 C249.777 214.871 212.067 217.448 174 219 C174 219.99 174 220.98 174 222 C207.988 222.407 240.89 220.006 274.25 212.938 C275.99 212.57 275.99 212.57 277.765 212.194 C283.737 210.879 289.342 209.325 295 207 C295 206.01 295 205.02 295 204 C292.175 204 289.606 204.831 286.884 205.524 Z M114 206 C111.047 215.295 108.234 224.16 108 234 C108.99 234 109.98 234 111 234 C112.201 229.9 113.384 225.794 114.562 221.688 C114.905 220.52 115.247 219.353 115.6 218.15 C115.919 217.032 116.238 215.914 116.566 214.762 C116.865 213.73 117.163 212.698 117.471 211.635 C118.245 208.908 118.245 208.908 117 206 C116.01 206 115.02 206 114 206 Z M123 208 C120.006 214.653 118.118 221.446 116.301 228.498 C115.749 230.63 115.18 232.756 114.609 234.883 C114.254 236.247 113.9 237.612 113.547 238.977 C113.226 240.205 112.904 241.433 112.573 242.698 C112.017 245.903 112.104 247.906 113 251 C113.66 251 114.32 251 115 251 C116.573 245.521 118.14 240.04 119.7 234.557 C120.231 232.692 120.765 230.828 121.3 228.964 C122.07 226.285 122.832 223.604 123.594 220.922 C123.834 220.089 124.075 219.257 124.323 218.399 C124.543 217.619 124.763 216.838 124.99 216.034 C125.186 215.35 125.381 214.666 125.582 213.962 C126.139 211.682 126.139 211.682 126 208 C125.01 208 124.02 208 123 208 Z M131 210 C129.501 214.423 128.008 218.848 126.52 223.275 C126.016 224.774 125.509 226.272 125.001 227.769 C118.058 246.439 118.058 246.439 115.75 265.938 C115.786 267.102 115.822 268.266 115.859 269.465 C115.906 270.301 115.952 271.138 116 272 C118.199 268.702 119.11 265.557 120.137 261.789 C120.55 260.311 120.964 258.832 121.377 257.354 C121.592 256.58 121.806 255.807 122.026 255.011 C125.387 242.885 128.848 230.833 133.018 218.956 C134.551 214.583 134.551 214.583 135 210 C133.68 210 132.36 210 131 210 Z M144 212 C144 214.31 144 216.62 144 219 C142.886 218.938 141.773 218.876 140.625 218.812 C138.831 218.905 138.831 218.905 137 219 C136.34 219.99 135.68 220.98 135 222 C140.445 221.505 140.445 221.505 146 221 C146.66 223.64 147.32 226.28 148 229 C148.66 229 149.32 229 150 229 C149.67 226.36 149.34 223.72 149 221 C153.455 220.505 153.455 220.505 158 220 C158.33 219.01 158.66 218.02 159 217 C153.06 217.495 153.06 217.495 147 218 C147 216.35 147 214.7 147 213 C146.01 212.67 145.02 212.34 144 212 Z M156 222 C156 223.32 156 224.64 156 226 C173.333 229.573 191.345 230.432 209 230 C208.505 228.02 208.505 228.02 208 226 C190.682 224.407 173.352 223.147 156 222 Z M133 229 C133.374 231.771 133.749 234.542 134.125 237.312 C134.253 238.254 134.38 239.195 134.512 240.165 C135.464 247.153 136.441 254.138 137.43 261.121 C142.122 294.313 142.122 294.313 143.5 306.812 C155.08 411.487 173.015 515.438 195.812 618.219 C196.019 619.152 196.226 620.085 196.439 621.047 C196.631 621.907 196.822 622.768 197.02 623.654 C197.186 624.401 197.352 625.148 197.523 625.917 C197.989 627.952 198.486 629.977 199 632 C199.66 632 200.32 632 201 632 C202.387 627.37 201.506 623.491 200.445 618.906 C200.268 618.102 200.091 617.298 199.909 616.47 C199.524 614.725 199.135 612.981 198.742 611.238 C197.686 606.551 196.663 601.857 195.637 597.164 C195.422 596.184 195.207 595.203 194.985 594.193 C192.494 582.782 190.21 571.331 187.938 559.875 C187.738 558.873 187.539 557.87 187.334 556.838 C186.219 551.226 185.107 545.613 184 540 C184.66 540.99 185.32 541.98 186 543 C186.99 542.67 187.98 542.34 189 542 C188.421 533.758 187.23 525.657 185.843 517.518 C185.496 515.476 185.156 513.433 184.816 511.391 C183.755 504.612 183.755 504.612 182 498 C180.68 498 179.36 498 178 498 C177.979 499.155 177.959 500.31 177.938 501.5 C177.926 502.15 177.914 502.799 177.902 503.469 C177.99 505.736 178.217 507.91 178.506 510.158 C178.669 511.426 178.832 512.694 179 514 C172.868 479.4 167.146 444.76 162 410 C161.848 408.976 161.697 407.952 161.54 406.897 C157.806 381.636 154.366 356.344 151.134 331.014 C148.842 313.088 146.362 295.195 143.75 277.312 C143.583 276.169 143.416 275.026 143.245 273.849 C141.651 262.948 140.029 252.052 138.328 241.168 C138.208 240.392 138.088 239.617 137.964 238.817 C137.439 235.5 136.846 232.25 136 229 C135.01 229 134.02 229 133 229 Z M102 231 C103 233 103 233 103 233 Z M103 234 C104 237 104 237 104 237 Z M149 235 C149.195 235.895 149.39 236.789 149.592 237.711 C155.388 264.415 160.51 291.213 165.307 318.114 C165.785 320.795 166.264 323.475 166.744 326.156 C182.373 413.404 197.395 500.973 208.729 588.897 C209.014 591.11 209.302 593.323 209.59 595.536 C210.738 604.356 211.876 613.177 213 622 C213.66 622 214.32 622 215 622 C216.019 617.245 215.921 612.964 215.391 608.172 C215.308 607.384 215.226 606.597 215.142 605.786 C214.856 603.106 214.555 600.428 214.25 597.75 C214.144 596.8 214.038 595.85 213.928 594.871 C210.233 562.127 205.016 529.562 200 497 C199.791 495.644 199.583 494.289 199.374 492.933 C187.576 416.317 175.159 339.637 159.25 263.75 C159.113 263.09 158.976 262.43 158.835 261.75 C156.947 252.697 154.648 243.854 152 235 C151.01 235 150.02 235 149 235 Z M104 238 C104.435 243.399 105.099 248.649 106.093 253.975 C108.83 268.861 109.092 283.896 109 299 C110.98 298.505 110.98 298.505 113 298 C114.026 277.797 110.582 257.389 105 238 C104.67 238 104.34 238 104 238 Z M120 279 C119.67 279.33 119.34 279.66 119 280 C119.054 290.457 120.235 300.923 121.316 311.312 C121.448 312.574 121.579 313.835 121.714 315.134 C123.182 329.03 124.909 342.891 126.688 356.75 C126.861 358.11 127.035 359.469 127.209 360.829 C137.734 443.121 149.967 525.19 169 606 C169.207 606.882 169.414 607.764 169.628 608.672 C170.849 613.862 172.087 619.047 173.352 624.226 C173.738 625.807 174.121 627.388 174.5 628.97 C175.019 631.121 175.552 633.268 176.09 635.414 C176.388 636.62 176.685 637.826 176.992 639.069 C177.965 641.897 178.686 643.176 181 645 C182.274 642.453 181.842 641.602 181.171 638.869 C180.962 638.004 180.754 637.139 180.539 636.248 C180.303 635.299 180.067 634.349 179.824 633.371 C179.326 631.311 178.828 629.25 178.33 627.189 C178.063 626.093 177.796 624.996 177.52 623.865 C157.092 539.756 144.008 454.099 128.434 333.358 C127.09 322.689 125.72 312.023 124.318 301.361 C124.013 299.035 123.71 296.709 123.407 294.383 C123.23 293.035 123.052 291.688 122.875 290.34 C122.728 289.22 122.581 288.099 122.43 286.945 C122.04 284.272 121.559 281.642 121 279 C120.67 279 120.34 279 120 279 Z M172 285 C172.557 290.843 173.41 296.512 174.672 302.242 C175.007 303.803 175.342 305.364 175.677 306.925 C175.852 307.731 176.027 308.537 176.207 309.368 C177.137 313.663 178.048 317.962 178.957 322.262 C179.137 323.115 179.318 323.968 179.504 324.846 C181.614 334.861 183.49 344.909 185.278 354.986 C185.785 357.829 186.31 360.668 186.843 363.506 C199.331 429.936 208.23 497.072 217.814 563.97 C218.685 570.042 219.564 576.114 220.447 582.184 C220.821 584.765 221.192 587.347 221.561 589.929 C222.091 593.629 222.632 597.326 223.176 601.023 C223.331 602.127 223.487 603.231 223.647 604.369 C223.796 605.365 223.945 606.362 224.099 607.388 C224.225 608.26 224.352 609.131 224.482 610.029 C224.653 610.68 224.824 611.33 225 612 C225.66 612.33 226.32 612.66 227 613 C227.99 612.34 228.98 611.68 230 611 C229.389 603.046 228.6 595.135 227.609 587.219 C227.469 586.089 227.328 584.959 227.183 583.795 C226.711 580.029 226.232 576.264 225.75 572.5 C225.624 571.517 225.624 571.517 225.496 570.514 C213.624 477.855 200.752 382.749 173 285 C172.67 285 172.34 285 172 285 Z M-11 286 C-11.66 286.66 -12.32 287.32 -13 288 C-12.67 288.99 -12.34 289.98 -12 291 C-11.01 289.35 -10.02 287.7 -9 286 C-9.66 286 -10.32 286 -11 286 Z M-19 288 C-22.275 288.974 -23.762 289.691 -25.875 292.438 C-27.359 295.04 -27.359 295.04 -26 298 C-22.311 297.003 -21.194 296.311 -19.125 293 C-18.754 292.01 -18.382 291.02 -18 290 C-18.33 289.34 -18.66 288.68 -19 288 Z M-37 295 C-41.218 298.97 -44.612 303.308 -48 308 C-47.01 308 -46.02 308 -45 308 C-43.309 306.308 -43.309 306.308 -41.812 304.125 C-41.283 303.406 -40.753 302.686 -40.207 301.945 C-38.824 300.098 -38.824 300.098 -39 298 C-38.01 297.67 -37.02 297.34 -36 297 C-36.33 296.34 -36.66 295.68 -37 295 Z M-31 301 C-32.906 303.538 -34.479 306.217 -36 309 C-35.01 309.33 -34.02 309.66 -33 310 C-29.418 307.388 -26.36 304.802 -24 301 C-24 300.34 -24 299.68 -24 299 C-26.933 299 -28.402 299.55 -31 301 Z M106 303 C103.02 311.33 100.947 319.849 98.875 328.438 C98.681 329.24 98.487 330.042 98.287 330.868 C86.007 381.759 76.576 433.209 69 485 C68.862 485.934 68.725 486.867 68.583 487.829 C64.312 516.851 60.746 545.947 57.371 575.084 C57.064 577.74 56.755 580.396 56.446 583.051 C55.957 587.259 55.473 591.467 54.994 595.675 C54.815 597.239 54.635 598.803 54.454 600.367 C54.204 602.529 53.959 604.692 53.715 606.854 C53.576 608.071 53.438 609.287 53.295 610.54 C52.996 614.045 52.949 617.485 53 621 C54.897 617.709 55.485 614.778 55.999 611.029 C56.171 609.801 56.343 608.573 56.521 607.308 C56.61 606.646 56.7 605.984 56.792 605.302 C57.082 603.161 57.381 601.022 57.682 598.883 C58.122 595.748 58.559 592.613 58.994 589.477 C65.411 543.314 72.92 497.336 80.604 451.37 C80.976 449.141 81.349 446.912 81.721 444.683 C88.875 401.847 96.51 359.069 106.309 316.751 C106.491 315.964 106.673 315.177 106.86 314.367 C107.199 312.91 107.539 311.454 107.883 309.998 C108.717 306.536 108.717 306.536 109 303 C108.01 303 107.02 303 106 303 Z M84 308 C81.379 313.531 80.013 318.846 78.871 324.844 C78.681 325.816 78.49 326.788 78.294 327.79 C77.665 331.025 77.05 334.262 76.438 337.5 C76.222 338.627 76.007 339.754 75.786 340.916 C67.333 385.336 60.465 430.116 55 475 C54.895 475.861 54.79 476.723 54.682 477.61 C51.78 501.563 49.281 525.561 46.812 549.562 C46.686 550.784 46.559 552.006 46.429 553.265 C45.079 566.327 43.83 579.391 42.832 592.484 C42.748 593.556 42.665 594.628 42.579 595.732 C41.818 606.156 41.81 616.555 42 627 C42.99 627 43.98 627 45 627 C45.041 626.452 45.082 625.904 45.125 625.34 C47.399 595.189 49.845 565.073 53 535 C53.09 534.137 53.18 533.275 53.273 532.386 C58.031 486.867 63.828 441.485 71.147 396.305 C71.75 392.576 72.336 388.844 72.914 385.111 C75.326 369.606 78.174 354.21 81.188 338.812 C81.865 335.333 82.541 331.854 83.216 328.374 C83.631 326.238 84.047 324.102 84.465 321.967 C85.371 317.32 86.258 312.677 87 308 C86.01 308 85.02 308 84 308 Z M69 311 C68.322 314.831 67.66 318.665 67 322.5 C66.714 324.116 66.714 324.116 66.422 325.766 C65.425 331.602 64.77 337.08 65 343 C68.465 342.505 68.465 342.505 72 342 C72.714 337.765 73.426 333.529 74.136 329.292 C74.378 327.851 74.621 326.41 74.864 324.968 C75.213 322.898 75.56 320.828 75.906 318.758 C76.116 317.511 76.325 316.265 76.541 314.981 C77.051 312.173 77.051 312.173 77 310 C74.16 310 71.763 310.403 69 311 Z M-44 314 C-43.67 314.99 -43.34 315.98 -43 317 C-42.01 316.01 -41.02 315.02 -40 314 C-41.32 314 -42.64 314 -44 314 Z M-48 315 C-47.67 315.99 -47.34 316.98 -47 318 C-46.34 317.34 -45.68 316.68 -45 316 C-45.99 315.67 -46.98 315.34 -48 315 Z M109 322 C107.487 329.372 108.555 336.365 109.579 343.738 C109.877 345.889 110.16 348.042 110.441 350.195 C111.032 356.794 111.032 356.794 113 363 C112.402 362.773 111.804 362.546 111.188 362.312 C109.003 361.776 109.003 361.776 107.312 362.938 C103.869 368.348 105.037 375.376 105.98 381.4 C106.096 382.199 106.212 382.997 106.332 383.82 C106.718 386.452 107.119 389.081 107.52 391.711 C107.798 393.586 108.075 395.462 108.351 397.337 C109.078 402.252 109.817 407.165 110.56 412.078 C111.258 416.715 111.946 421.354 112.634 425.993 C114.156 436.229 115.698 446.462 117.245 456.694 C117.696 459.683 118.148 462.673 118.599 465.662 C120.29 476.868 121.984 488.073 123.681 499.279 C124.662 505.765 125.642 512.252 126.62 518.739 C127.732 526.121 128.848 533.502 129.968 540.883 C130.529 544.581 131.09 548.279 131.646 551.978 C133.863 566.704 136.166 581.416 138.681 596.094 C138.931 597.559 139.177 599.025 139.42 600.491 C141.043 610.243 143.112 619.411 147.679 628.25 C149.258 631.537 149.694 634.392 150.133 638.008 C150.215 638.656 150.297 639.304 150.382 639.971 C150.64 642.021 150.883 644.073 151.125 646.125 C151.377 648.184 151.632 650.242 151.89 652.3 C152.121 654.162 152.344 656.025 152.567 657.887 C152.908 660.336 153.33 662.626 154 665 C154.99 664.67 155.98 664.34 157 664 C153.711 635.718 150.172 607.476 146.409 579.253 C145.991 576.12 145.575 572.987 145.159 569.854 C140.486 534.689 135.628 499.552 130.684 464.425 C130.15 460.63 129.616 456.834 129.082 453.039 C128.952 452.112 128.821 451.186 128.687 450.231 C125.576 428.093 122.58 405.939 119.618 383.78 C119.152 380.299 118.686 376.817 118.219 373.336 C118.13 372.673 118.041 372.01 117.949 371.327 C115.738 354.87 113.374 338.434 111 322 C110.34 322 109.68 322 109 322 Z M63 347 C60.228 349.772 59.942 352.866 59.152 356.582 C58.98 357.366 58.808 358.149 58.63 358.957 C58.058 361.574 57.497 364.193 56.938 366.812 C56.537 368.67 56.136 370.528 55.734 372.386 C54.473 378.254 53.233 384.126 52 390 C51.807 390.917 51.614 391.835 51.415 392.78 C35.778 467.197 22.51 542.747 24 619 C24.99 619.33 25.98 619.66 27 620 C27.015 619.078 27.029 618.156 27.044 617.207 C28.568 529.784 43.698 442.305 63.89 357.339 C64.703 353.824 65.179 350.61 65 347 C64.34 347 63.68 347 63 347 Z M43 355 C42.209 356.94 42.209 356.94 41.792 359.251 C41.506 360.589 41.506 360.589 41.213 361.954 C41.016 362.935 40.82 363.915 40.617 364.926 C40.402 365.955 40.186 366.984 39.964 368.044 C39.253 371.464 38.563 374.888 37.875 378.312 C37.635 379.491 37.394 380.669 37.146 381.883 C28.965 422.003 22.376 462.412 17 503 C16.889 503.835 16.779 504.669 16.665 505.529 C12.743 535.216 9.308 564.975 6.75 594.812 C6.67 595.736 6.59 596.66 6.507 597.611 C6.063 603.093 5.933 608.501 6 614 C6.99 614 7.98 614 9 614 C9.054 613.34 9.108 612.679 9.164 611.999 C16.091 529.601 27.965 447.199 45.439 366.382 C46.398 361.933 47.307 357.5 48 353 C45.676 352.815 45.676 352.815 43 355 Z M20.562 365.875 C19.868 366.335 19.174 366.795 18.459 367.27 C17.46 367.937 17.46 367.937 16.441 368.617 C15.524 369.23 15.524 369.23 14.588 369.855 C11.639 371.981 10.696 373.484 9.906 376.951 C9.715 377.775 9.523 378.598 9.326 379.447 C9.124 380.35 8.923 381.253 8.715 382.184 C8.498 383.129 8.281 384.075 8.057 385.05 C7.343 388.177 6.639 391.307 5.938 394.438 C5.445 396.616 4.952 398.794 4.458 400.972 C-3.9 438.032 -11.948 475.038 -16.312 512.812 C-16.444 513.921 -16.444 513.921 -16.578 515.052 C-17.828 525.74 -18.205 536.242 -18 547 C-15.477 543.735 -13.629 540.463 -11.812 536.75 C-10.875 534.833 -9.938 532.917 -9 531 C-10.436 541.589 -11.881 552.177 -13.363 562.76 C-13.983 567.195 -14.6 571.63 -15.217 576.065 C-15.534 578.34 -15.854 580.616 -16.174 582.891 C-16.645 586.238 -17.11 589.586 -17.574 592.934 C-17.718 593.944 -17.862 594.954 -18.01 595.995 C-18.704 601.052 -19.162 605.896 -19 611 C-18.34 611 -17.68 611 -17 611 C-14.426 599.158 -12.623 587.24 -10.871 575.253 C-1.33 510.229 9.832 445.103 25.399 381.221 C25.747 379.79 25.747 379.79 26.102 378.33 C26.548 376.502 27 374.675 27.458 372.85 C28.442 368.827 29.303 365.178 29 361 C26.301 361 22.853 364.339 20.562 365.875 Z " fill="#000000" transform="translate(294,112)"/>
<path d="M0 0 C0.33 0 0.66 0 1 0 C1.157 6.69 0.633 12.962 -0.438 19.562 C-0.604 20.6 -0.771 21.637 -0.943 22.705 C-2.781 33.548 -5.155 44.272 -7.562 55 C-7.758 55.875 -7.953 56.75 -8.155 57.651 C-8.723 60.185 -9.299 62.718 -9.879 65.25 C-10.048 65.999 -10.216 66.748 -10.39 67.52 C-11.615 72.797 -13.21 77.889 -15 83 C-15.33 83 -15.66 83 -16 83 C-15.387 76.543 -14.326 70.364 -12.891 64.043 C-12.463 62.118 -12.036 60.193 -11.609 58.268 C-11.387 57.274 -11.164 56.279 -10.935 55.255 C-6.837 36.904 -3.029 18.56 0 0 Z " fill="#000000" transform="translate(385,134)"/>
<path d="M0 0 C2.475 0.99 2.475 0.99 5 2 C4.67 2.99 4.34 3.98 4 5 C2.35 5 0.7 5 -1 5 C-0.67 3.35 -0.34 1.7 0 0 Z " fill="#000000" transform="translate(258,145)"/>
<path d="M0 0 C0.33 0 0.66 0 1 0 C1.212 7.429 0.406 14.47 -0.688 21.812 C-0.864 23.019 -1.04 24.226 -1.222 25.469 C-2.562 34.46 -4.047 43.423 -5.625 52.375 C-5.934 54.138 -5.934 54.138 -6.249 55.937 C-6.547 57.588 -6.547 57.588 -6.852 59.273 C-7.025 60.237 -7.199 61.2 -7.377 62.193 C-8.048 65.216 -8.974 68.08 -10 71 C-11.06 67.819 -10.955 66.585 -10.427 63.355 C-10.201 61.941 -10.201 61.941 -9.971 60.499 C-9.8 59.477 -9.629 58.455 -9.453 57.402 C-9.281 56.339 -9.109 55.277 -8.932 54.182 C-8.378 50.766 -7.814 47.352 -7.25 43.938 C-6.885 41.695 -6.52 39.452 -6.156 37.209 C-4.138 24.8 -2.077 12.399 0 0 Z " fill="#000000" transform="translate(370,148)"/>
<path d="M0 0 C1.98 0.495 1.98 0.495 4 1 C4 3.97 4 6.94 4 10 C2.68 10.33 1.36 10.66 0 11 C-1 10 -1 10 -1.133 7.969 C-1.13 7.154 -1.128 6.339 -1.125 5.5 C-1.128 4.685 -1.13 3.871 -1.133 3.031 C-1 1 -1 1 0 0 Z " fill="#000000" transform="translate(525,149)"/>
<path d="M0 0 C2.438 1.25 2.438 1.25 3.438 4.25 C3.108 4.91 2.777 5.57 2.438 6.25 C-2.116 6.619 -2.116 6.619 -4.375 4.75 C-4.767 4.255 -5.159 3.76 -5.562 3.25 C-5.232 2.26 -4.903 1.27 -4.562 0.25 C-2.562 -0.75 -2.562 -0.75 0 0 Z " fill="#000000" transform="translate(260.5625,203.75)"/>
<path d="M0 0 C1.98 0.495 1.98 0.495 4 1 C3.67 2.65 3.34 4.3 3 6 C1.68 5.67 0.36 5.34 -1 5 C-0.67 3.35 -0.34 1.7 0 0 Z " fill="#000000" transform="translate(596,212)"/>
<path d="M0 0 C0.99 0.33 1.98 0.66 3 1 C2.67 2.65 2.34 4.3 2 6 C0.68 6.33 -0.64 6.66 -2 7 C-2.688 5.188 -2.688 5.188 -3 3 C-1.562 1.25 -1.562 1.25 0 0 Z " fill="#000000" transform="translate(232,245)"/>
<path d="M0 0 C0.66 0 1.32 0 2 0 C2.037 0.955 2.075 1.91 2.113 2.895 C2.482 10.15 3.113 16.672 5.379 23.633 C6.047 26.178 6.107 28.38 6 31 C5.01 31 4.02 31 3 31 C-4.133 8.265 -4.133 8.265 0 0 Z " fill="#000000" transform="translate(369,255)"/>
<path d="M0 0 C2.25 0.25 2.25 0.25 4 1 C3.427 3.867 3.139 4.861 1 7 C-1.062 6.75 -1.062 6.75 -3 6 C-3.33 5.34 -3.66 4.68 -4 4 C-2.25 1.938 -2.25 1.938 0 0 Z " fill="#000000" transform="translate(626,278)"/>
<path d="M0 0 C3.387 1.439 4.639 2.891 6.5 6.062 C6.986 9.947 6.841 12.294 5.25 15.875 C2.887 18.829 0.832 19.857 -2.902 20.434 C-9.745 20.613 -9.745 20.613 -13.5 17.875 C-16.457 13.716 -18.182 10.247 -17.5 5.062 C-16.188 3.25 -16.188 3.25 -14.5 2.062 C-13.51 2.062 -12.52 2.062 -11.5 2.062 C-11.535 2.666 -11.57 3.269 -11.605 3.891 C-11.726 7.461 -11.818 10.295 -10.438 13.625 C-7.469 15.827 -5.078 15.453 -1.5 15.062 C0.787 13.224 0.787 13.224 0.625 10.438 C0.584 9.654 0.543 8.87 0.5 8.062 C-1.81 6.743 -4.12 5.423 -6.5 4.062 C-3.242 0.081 -3.242 0.081 0 0 Z " fill="#000000" transform="translate(379.5,293.9375)"/>
<path d="M0 0 C0 0.99 0 1.98 0 3 C-0.816 3.025 -1.631 3.05 -2.472 3.076 C-5.558 3.172 -8.645 3.271 -11.731 3.372 C-13.699 3.436 -15.668 3.496 -17.637 3.557 C-25.452 3.814 -33.216 4.259 -41 5 C-40.67 4.01 -40.34 3.02 -40 2 C-26.477 -1.307 -13.814 -1.914 0 0 Z " fill="#000000" transform="translate(428,302)"/>
<path d="M0 0 C3.562 0.125 3.562 0.125 5.562 1.125 C5.232 2.445 4.903 3.765 4.562 5.125 C1.923 5.125 -0.718 5.125 -3.438 5.125 C-4 3.188 -4 3.188 -4.438 1.125 C-3.438 0.125 -3.438 0.125 0 0 Z " fill="#000000" transform="translate(236.4375,317.875)"/>
<path d="M0 0 C0.33 0 0.66 0 1 0 C1.028 1.604 1.047 3.208 1.062 4.812 C1.074 5.706 1.086 6.599 1.098 7.52 C1.018 10.356 0.811 13.093 0.527 15.912 C-0.058 22.232 -0.318 28.545 -0.535 34.887 C-0.578 36.07 -0.621 37.253 -0.665 38.472 C-0.801 42.21 -0.932 45.949 -1.062 49.688 C-1.154 52.239 -1.246 54.79 -1.338 57.342 C-1.562 63.561 -1.782 69.78 -2 76 C-2.66 76 -3.32 76 -4 76 C-5.026 70.927 -5.154 66.086 -5.125 60.938 C-5.121 60.039 -5.117 59.141 -5.113 58.215 C-5.088 55.143 -5.047 52.072 -5 49 C-4.982 47.842 -4.964 46.685 -4.946 45.492 C-4.189 4.189 -4.189 4.189 0 0 Z " fill="#000000" transform="translate(381,323)"/>
<path d="M0 0 C0.99 0.33 1.98 0.66 3 1 C3.66 5.29 4.32 9.58 5 14 C7.31 14 9.62 14 12 14 C12 14.99 12 15.98 12 17 C10.02 17.33 8.04 17.66 6 18 C5.67 21.63 5.34 25.26 5 29 C3.68 29.33 2.36 29.66 1 30 C-0.708 26.584 -0.623 22.771 -1 19 C-5.29 19 -9.58 19 -14 19 C-14 15 -14 15 -13 14 C-10.817 13.765 -8.628 13.586 -6.438 13.438 C-5.24 13.354 -4.042 13.27 -2.809 13.184 C-1.882 13.123 -0.955 13.062 0 13 C-0.33 12.34 -0.66 11.68 -1 11 C-1.095 9.315 -1.13 7.626 -1.125 5.938 C-1.128 5.039 -1.13 4.141 -1.133 3.215 C-1 1 -1 1 0 0 Z " fill="#000000" transform="translate(257,348)"/>
<path d="M0 0 C0.99 0.33 1.98 0.66 3 1 C3 2.65 3 4.3 3 6 C1.35 6 -0.3 6 -2 6 C-2.33 5.01 -2.66 4.02 -3 3 C-2.01 2.01 -1.02 1.02 0 0 Z " fill="#000000" transform="translate(309,358)"/>
<path d="M0 0 C0 1.32 0 2.64 0 4 C-2.572 5.619 -3.677 6.044 -6.75 5.625 C-7.492 5.419 -8.235 5.212 -9 5 C-8.625 3.062 -8.625 3.062 -8 1 C-5.291 -0.354 -2.991 -0.065 0 0 Z " fill="#000000" transform="translate(565,377)"/>
<path d="M0 0 C2.062 0.438 2.062 0.438 4 1 C3.67 2.65 3.34 4.3 3 6 C1.68 5.67 0.36 5.34 -1 5 C-1 1 -1 1 0 0 Z " fill="#000000" transform="translate(509,437)"/>
<path d="M0 0 C0.66 0.33 1.32 0.66 2 1 C1.8 1.869 1.599 2.739 1.393 3.635 C-3.978 27.149 -8.298 50.745 -12.141 74.555 C-12.599 77.385 -13.059 80.216 -13.52 83.046 C-13.855 85.106 -14.188 87.167 -14.519 89.227 C-15.04 92.447 -15.573 95.665 -16.109 98.883 C-16.269 99.882 -16.428 100.881 -16.593 101.911 C-16.748 102.826 -16.902 103.741 -17.062 104.684 C-17.195 105.495 -17.328 106.306 -17.465 107.142 C-17.642 107.755 -17.818 108.368 -18 109 C-18.99 109.495 -18.99 109.495 -20 110 C-18.484 96.812 -16.453 83.724 -14.312 70.625 C-14.138 69.556 -13.964 68.487 -13.785 67.385 C-11.5 53.414 -9.063 39.488 -6.188 25.625 C-6.047 24.944 -5.906 24.263 -5.761 23.562 C-4.111 15.626 -2.24 7.79 0 0 Z " fill="#000000" transform="translate(278,462)"/>
<path d="M0 0 C1.32 0 2.64 0 4 0 C5.016 4.629 4.838 8.345 4 13 C4.65 13.41 5.299 13.82 5.969 14.242 C6.804 14.781 7.639 15.32 8.5 15.875 C9.335 16.409 10.171 16.942 11.031 17.492 C11.681 17.99 12.331 18.487 13 19 C13 19.66 13 20.32 13 21 C9.314 20.4 5.664 19.733 2 19 C0.68 22.3 -0.64 25.6 -2 29 C-3.32 28.67 -4.64 28.34 -6 28 C-5.34 23.71 -4.68 19.42 -4 15 C-5.98 14.34 -7.96 13.68 -10 13 C-12.336 11.781 -12.336 11.781 -14.375 10.5 C-15.063 10.077 -15.752 9.654 -16.461 9.219 C-16.969 8.817 -17.477 8.414 -18 8 C-18 7.34 -18 6.68 -18 6 C-12.602 7.151 -7.29 8.424 -2 10 C-1.34 6.7 -0.68 3.4 0 0 Z " fill="#000000" transform="translate(534,462)"/>
<path d="M0 0 C0.33 0 0.66 0 1 0 C1.46 9.656 -0.286 18.846 -1.938 28.312 C-2.25 30.143 -2.562 31.973 -2.872 33.803 C-3.723 38.8 -4.583 43.795 -5.446 48.79 C-7.202 58.962 -8.948 69.137 -10.688 79.312 C-10.881 80.442 -11.074 81.572 -11.274 82.736 C-14.187 99.784 -16.885 116.832 -19 134 C-19.66 134 -20.32 134 -21 134 C-19.155 117.68 -16.951 101.46 -14.312 85.25 C-13.966 83.099 -13.619 80.947 -13.273 78.796 C-10.563 62.063 -7.651 45.369 -4.615 28.692 C-2.881 19.148 -1.269 9.62 0 0 Z " fill="#000000" transform="translate(254,501)"/>
<path d="M0 0 C1.932 2.898 2.536 4.604 3.309 7.926 C3.547 8.935 3.785 9.944 4.03 10.984 C4.282 12.082 4.533 13.181 4.793 14.312 C5.06 15.458 5.327 16.603 5.603 17.783 C6.471 21.52 7.33 25.26 8.188 29 C8.479 30.264 8.771 31.528 9.071 32.83 C12.658 48.392 16.169 63.967 19.312 79.625 C19.529 80.694 19.529 80.694 19.751 81.784 C22.161 93.738 22.161 93.738 22 100 C19.989 96.983 19.368 95.026 18.537 91.543 C18.266 90.418 17.996 89.292 17.717 88.132 C17.429 86.904 17.141 85.676 16.844 84.41 C16.539 83.126 16.233 81.842 15.919 80.519 C12.625 66.606 9.501 52.653 6.436 38.688 C5.642 35.077 4.838 31.468 4.031 27.86 C3.403 25.038 2.782 22.214 2.163 19.39 C1.869 18.056 1.573 16.722 1.273 15.389 C0.86 13.551 0.46 11.71 0.061 9.869 C-0.169 8.828 -0.399 7.788 -0.636 6.716 C-0.989 4.082 -0.862 2.485 0 0 Z " fill="#000000" transform="translate(541,526)"/>
<path d="M0 0 C2 1 2 1 2.759 2.657 C3.582 5.163 4.399 7.67 5.188 10.188 C5.493 11.159 5.798 12.131 6.113 13.132 C12.893 35.328 17.202 58.135 21 81 C20.01 81 19.02 81 18 81 C17.769 79.855 17.539 78.709 17.301 77.529 C12.572 54.134 7.555 30.96 1 8 C0.671 6.843 0.671 6.843 0.335 5.662 C-0.107 4.107 -0.553 2.554 -1 1 C-0.67 0.67 -0.34 0.34 0 0 Z " fill="#000000" transform="translate(563,565)"/>
<path d="M0 0 C0.66 0 1.32 0 2 0 C6.604 30.08 5.166 61.632 5 92 C4.01 92.495 4.01 92.495 3 93 C2.173 85.902 1.817 78.881 1.719 71.738 C1.701 70.681 1.683 69.623 1.664 68.533 C1.626 66.284 1.589 64.035 1.554 61.786 C1.463 55.952 1.359 50.119 1.254 44.285 C1.233 43.139 1.213 41.992 1.192 40.811 C0.942 27.202 0.511 13.601 0 0 Z " fill="#000000" transform="translate(391,603)"/>
<path d="M0 0 C0.66 0 1.32 0 2 0 C3.137 7.258 3.148 14.414 3.125 21.75 C3.129 22.949 3.133 24.148 3.137 25.383 C3.128 32.971 2.762 40.45 2 48 C1.34 48 0.68 48 0 48 C0 32.16 0 16.32 0 0 Z " fill="#000000" transform="translate(381,640)"/>
</svg>
