<?xml version="1.0" encoding="UTF-8"?>
<!-- Generator: visioncortex VTracer 0.6.0 -->
<svg version="1.1" xmlns="http://www.w3.org/2000/svg" width="847" height="847">
<path d="M0 0 C1.32 0.33 2.64 0.66 4 1 C4 14.53 4 28.06 4 42 C2.68 41.67 1.36 41.34 0 41 C0 27.47 0 13.94 0 0 Z " fill="#000000" transform="translate(439,105)"/>
<path d="M0 0 C5.536 -0.023 11.072 -0.043 16.608 -0.055 C18.492 -0.06 20.377 -0.067 22.262 -0.075 C24.965 -0.088 27.668 -0.093 30.371 -0.098 C31.219 -0.103 32.067 -0.108 32.941 -0.113 C34.961 -0.113 36.981 -0.062 39 0 C40.701 1.701 40.132 3.824 40.137 6.092 C40.133 6.783 40.129 7.475 40.125 8.188 C40.129 10.158 40.129 10.158 40.133 12.168 C39.96 18.454 39.448 24.727 39 31 C26.13 31 13.26 31 0 31 C0 20.77 0 10.54 0 0 Z " fill="#000000" transform="translate(370,122)"/>
<path d="M0 0 C1.207 0.031 1.207 0.031 2.438 0.062 C3.062 2.438 3.062 2.438 3.438 5.062 C2.777 5.722 2.118 6.382 1.438 7.062 C-1.188 6.688 -1.188 6.688 -3.562 6.062 C-3.605 4.396 -3.603 2.729 -3.562 1.062 C-2.562 0.062 -2.562 0.062 0 0 Z " fill="#000000" transform="translate(441.5625,153.9375)"/>
<path d="M0 0 C12.87 0 25.74 0 39 0 C39 10.23 39 20.46 39 31 C26.13 31 13.26 31 0 31 C0 20.77 0 10.54 0 0 Z " fill="#000000" transform="translate(557,169)"/>
<path d="M0 0 C1.517 0.082 1.517 0.082 3.064 0.166 C6.728 0.376 10.389 0.619 14.051 0.867 C15.556 0.967 17.06 1.067 18.565 1.166 C29.002 1.863 39.433 2.618 49.864 3.396 C54.478 3.74 59.093 4.075 63.708 4.408 C67.31 4.669 70.913 4.935 74.515 5.203 C76.217 5.329 77.918 5.453 79.62 5.575 C105.148 7.412 105.148 7.412 109.488 11.93 C110.715 13.546 111.894 15.2 113.051 16.867 C114.069 18.281 115.089 19.694 116.109 21.105 C129.525 39.797 127.274 58.506 127.805 81.117 C127.87 83.829 127.936 86.541 128.002 89.253 C128.139 94.904 128.274 100.555 128.408 106.207 C128.562 112.717 128.718 119.227 128.877 125.738 C129.046 132.717 129.214 139.696 129.382 146.675 C129.429 148.669 129.478 150.663 129.526 152.656 C129.615 156.379 129.704 160.102 129.791 163.824 C129.818 164.915 129.844 166.006 129.872 167.131 C130.009 173.045 130.076 178.951 130.051 184.867 C131.238 185.204 131.238 185.204 132.449 185.547 C137.125 187.261 141.331 189.574 145.676 191.992 C146.56 192.483 147.444 192.973 148.355 193.479 C170.208 205.727 170.208 205.727 172.76 212.846 C173.405 215.25 173.96 217.661 174.488 220.094 C174.695 220.996 174.902 221.898 175.115 222.828 C175.773 225.713 176.412 228.603 177.051 231.492 C177.479 233.38 177.909 235.269 178.34 237.156 C180.417 246.302 182.414 255.466 184.363 264.641 C184.535 265.444 184.706 266.247 184.883 267.074 C186.051 272.628 186.051 272.628 186.051 274.867 C188.361 274.537 190.671 274.207 193.051 273.867 C195.868 282.79 198.44 291.751 200.801 300.805 C201.117 301.984 201.432 303.162 201.758 304.377 C202.056 305.517 202.353 306.657 202.66 307.832 C202.928 308.849 203.196 309.866 203.472 310.914 C204.071 313.971 204.154 316.759 204.051 319.867 C199.078 322.125 194.214 323.774 188.93 325.129 C188.185 325.324 187.44 325.52 186.673 325.721 C184.321 326.338 181.967 326.946 179.613 327.555 C178.007 327.974 176.401 328.394 174.795 328.814 C170.882 329.838 166.967 330.854 163.051 331.867 C161.139 329.467 160.057 327.887 159.18 324.898 C157.459 320.278 154.045 318.204 150.266 315.211 C147.558 312.346 147.191 310.77 147.051 306.867 C147.539 304.164 147.539 304.164 148.363 301.617 C148.628 300.766 148.892 299.916 149.164 299.039 C150.051 296.867 150.051 296.867 152.051 294.867 C154.676 294.742 154.676 294.742 157.051 294.867 C156.721 291.897 156.391 288.927 156.051 285.867 C157.701 285.207 159.351 284.547 161.051 283.867 C160.11 279.281 159.168 274.695 158.225 270.11 C157.906 268.557 157.587 267.003 157.268 265.45 C156.804 263.19 156.34 260.931 155.875 258.672 C155.723 257.929 155.57 257.185 155.413 256.42 C154.683 252.874 153.939 249.332 153.157 245.797 C152.749 243.945 152.749 243.945 152.332 242.055 C151.968 240.432 151.968 240.432 151.596 238.777 C150.896 235.039 150.824 231.655 151.051 227.867 C152.988 228.93 152.988 228.93 155.051 230.867 C155.801 234.555 155.801 234.555 156.051 237.867 C158.031 237.867 160.011 237.867 162.051 237.867 C162.051 238.857 162.051 239.847 162.051 240.867 C160.401 240.867 158.751 240.867 157.051 240.867 C157.381 242.847 157.711 244.827 158.051 246.867 C161.021 246.537 163.991 246.207 167.051 245.867 C166.061 241.247 165.071 236.627 164.051 231.867 C161.411 231.867 158.771 231.867 156.051 231.867 C156.051 230.877 156.051 229.887 156.051 228.867 C157.505 228.496 157.505 228.496 158.988 228.117 C160.504 227.498 160.504 227.498 162.051 226.867 C163.02 224.835 163.02 224.835 163.051 222.867 C161.071 223.197 159.091 223.527 157.051 223.867 C157.624 221 157.912 220.006 160.051 217.867 C160.218 215.284 160.218 215.284 160.051 212.867 C159.061 212.867 158.071 212.867 157.051 212.867 C155.071 216.827 155.071 216.827 153.051 220.867 C153.711 221.197 154.371 221.527 155.051 221.867 C155.051 222.857 155.051 223.847 155.051 224.867 C150.792 225.889 148.664 226.151 144.629 224.285 C143.507 223.561 142.397 222.817 141.301 222.055 C140.737 221.685 140.174 221.316 139.594 220.936 C138.067 219.931 136.558 218.9 135.051 217.867 C134.061 217.207 133.071 216.547 132.051 215.867 C131.914 238.619 132.148 261.344 132.695 284.09 C132.808 288.799 132.907 293.507 132.997 298.217 C133.032 299.97 133.074 301.722 133.121 303.475 C133.185 305.914 133.23 308.353 133.27 310.793 C133.293 311.497 133.316 312.201 133.34 312.926 C133.419 320.437 130.929 326.808 125.855 332.324 C120.716 336.718 115.674 337.958 109.051 337.867 C109.196 338.534 109.341 339.2 109.49 339.887 C116.778 373.397 123.838 406.898 129.675 440.697 C130.251 444.023 130.837 447.348 131.422 450.672 C132.311 455.735 133.187 460.8 134.051 465.867 C124.326 472.327 110.46 472.667 99.065 474.175 C96.684 474.491 94.305 474.819 91.926 475.148 C84.347 476.179 76.766 477.075 69.137 477.641 C67.866 477.735 66.596 477.83 65.287 477.927 C62.136 477.869 60.526 477.792 58.051 475.867 C55.714 466.208 58.403 456.529 63.492 448.133 C68.412 440.982 74.168 434.55 80.176 428.305 C80.893 427.535 80.893 427.535 81.625 426.751 C85.175 423.16 88.236 422.099 93.051 420.867 C92.825 419.484 92.825 419.484 92.595 418.074 C91.176 409.364 89.763 400.653 88.357 391.941 C87.493 386.588 86.621 381.237 85.745 375.886 C85.184 372.457 84.63 369.026 84.077 365.595 C83.812 363.956 83.544 362.317 83.273 360.678 C80.667 344.874 80.667 344.874 81.051 336.867 C80.054 336.701 79.058 336.535 78.032 336.364 C75.065 335.87 72.099 335.375 69.133 334.881 C68.316 334.745 67.5 334.609 66.659 334.469 C64.249 334.067 61.839 333.665 59.43 333.264 C58.256 333.068 58.256 333.068 57.058 332.868 C48.144 331.383 39.23 329.897 30.316 328.411 C29.238 328.232 28.161 328.052 27.051 327.867 C27.455 339.411 27.994 350.921 28.988 362.43 C29.9 373.026 30.472 383.621 30.988 394.242 C31.696 408.804 32.746 423.308 34.086 437.826 C34.15 438.525 34.214 439.225 34.279 439.946 C34.452 441.823 34.629 443.7 34.807 445.576 C35.452 454.291 35.452 454.291 33.786 456.68 C30.659 458.819 26.909 459.131 23.238 459.742 C22.311 459.904 21.384 460.065 20.429 460.231 C10.358 461.922 0.235 463.269 -9.887 464.617 C-11.147 464.786 -11.147 464.786 -12.433 464.959 C-14.863 465.283 -17.295 465.6 -19.727 465.914 C-20.815 466.059 -20.815 466.059 -21.925 466.207 C-35.053 467.869 -35.053 467.869 -38.949 464.867 C-41.672 457.748 -39.611 448.607 -36.641 441.922 C-30.426 430.507 -20.147 418.598 -8.949 411.867 C-7.401 411.449 -5.839 411.082 -4.268 410.758 C-3.054 410.503 -3.054 410.503 -1.816 410.243 C-1.2 410.119 -0.584 409.995 0.051 409.867 C-0.007 409.148 -0.066 408.429 -0.126 407.688 C-0.685 400.78 -1.243 393.871 -1.801 386.963 C-2.088 383.415 -2.375 379.866 -2.662 376.318 C-4.131 358.171 -5.571 340.022 -6.949 321.867 C-8.119 321.666 -9.289 321.465 -10.494 321.257 C-11.191 321.137 -11.889 321.016 -12.608 320.892 C-14.051 320.645 -15.495 320.402 -16.94 320.163 C-24.006 318.89 -29.24 316.468 -33.949 310.867 C-39.52 301.118 -38.094 288.725 -37.949 277.867 C-38.609 277.867 -39.269 277.867 -39.949 277.867 C-40.197 278.486 -40.444 279.105 -40.699 279.742 C-42.24 282.362 -43.039 283.002 -45.949 283.867 C-54.025 283.762 -59.475 278.785 -65.83 274.264 C-66.688 273.675 -67.546 273.087 -68.43 272.48 C-69.202 271.932 -69.974 271.383 -70.77 270.818 C-71.489 270.504 -72.208 270.19 -72.949 269.867 C-75.025 270.686 -75.025 270.686 -76.949 271.867 C-80.699 271.492 -80.699 271.492 -83.949 270.867 C-84.444 269.382 -84.444 269.382 -84.949 267.867 C-85.877 267.785 -86.805 267.702 -87.762 267.617 C-90.949 266.867 -90.949 266.867 -92.824 264.93 C-93.949 262.867 -93.949 262.867 -93.949 260.867 C-94.547 261.073 -95.145 261.28 -95.762 261.492 C-97.949 261.867 -97.949 261.867 -100.949 259.867 C-101.358 257.155 -101.083 254.623 -100.949 251.867 C-101.67 251.613 -102.39 251.359 -103.133 251.098 C-107.06 249.382 -110.164 246.831 -113.547 244.23 C-115.793 242.663 -115.793 242.663 -118.031 243.016 C-120.047 243.91 -121.757 244.931 -123.574 246.18 C-134.689 253.321 -147.01 255.463 -160.039 253.371 C-173.938 250.205 -184.956 243.171 -193.387 231.492 C-200.606 219.438 -201.868 206.038 -199.289 192.367 C-195.645 180.252 -187.67 168.143 -176.508 161.824 C-162.694 154.536 -148.126 152.208 -132.887 156.43 C-126.821 158.623 -121.884 161.746 -116.949 165.867 C-116.24 166.452 -115.531 167.038 -114.801 167.641 C-104.878 176.651 -100.237 188.724 -98.949 201.867 C-98.905 209.711 -100.241 217.236 -101.949 224.867 C-97.494 227.342 -97.494 227.342 -92.949 229.867 C-92.269 229.187 -91.588 228.506 -90.887 227.805 C-87.949 225.867 -87.949 225.867 -84.762 225.555 C-80.098 226.566 -77.161 230.001 -73.816 233.203 C-70.677 236.12 -67.399 238.748 -64.012 241.367 C-62.815 242.298 -61.618 243.229 -60.422 244.16 C-59.839 244.613 -59.257 245.066 -58.657 245.533 C-56.067 247.557 -53.504 249.612 -50.949 251.68 C-50.124 252.346 -49.299 253.013 -48.449 253.699 C-46.473 255.413 -44.633 257.149 -42.793 259.003 C-42.259 259.54 -41.724 260.077 -41.174 260.631 C-40.77 261.039 -40.366 261.447 -39.949 261.867 C-41.013 242.012 -42.095 222.158 -43.203 202.305 C-43.256 201.349 -43.31 200.394 -43.365 199.409 C-43.858 190.563 -44.352 181.717 -44.847 172.871 C-45.123 167.953 -45.397 163.034 -45.671 158.115 C-45.773 156.285 -45.876 154.455 -45.979 152.624 C-46.123 150.058 -46.266 147.492 -46.408 144.926 C-46.478 143.696 -46.478 143.696 -46.549 142.441 C-46.795 138.019 -47.004 133.598 -47.171 129.172 C-47.209 128.229 -47.246 127.285 -47.285 126.313 C-47.356 124.512 -47.419 122.71 -47.475 120.909 C-47.737 114.388 -48.714 108.706 -51.949 102.93 C-56.431 94.168 -57.632 84.196 -55.086 74.621 C-52.516 67.434 -52.516 67.434 -50.949 65.867 C-50.922 63.318 -50.957 60.793 -51.027 58.246 C-51.055 56.654 -51.081 55.063 -51.105 53.471 C-51.148 50.962 -51.198 48.455 -51.271 45.948 C-51.77 28.069 -51.77 28.069 -45.949 19.867 C-45.029 18.44 -45.029 18.44 -44.09 16.984 C-41.303 14.228 -38.209 12.63 -34.699 10.992 C-33.635 10.491 -33.635 10.491 -32.549 9.979 C-31.07 9.284 -29.59 8.594 -28.107 7.908 C-26.082 6.931 -24.139 5.871 -22.184 4.762 C-14.706 0.708 -8.472 -0.566 0 0 Z M-45.824 28.305 C-49.002 37.743 -47.18 50.172 -45.949 59.867 C-45.404 59.469 -44.859 59.071 -44.297 58.66 C-39.041 54.967 -34.151 52.539 -27.949 50.867 C-27.949 50.537 -27.949 50.207 -27.949 49.867 C-31.579 49.537 -35.209 49.207 -38.949 48.867 C-39.939 45.567 -40.929 42.267 -41.949 38.867 C-30.13 37.347 -21.294 37.95 -10.23 42.52 C-7.232 43.994 -7.232 43.994 -4.949 43.867 C-5.279 45.847 -5.609 47.827 -5.949 49.867 C-8.589 50.197 -11.229 50.527 -13.949 50.867 C-11.035 52.81 -8.091 54.331 -4.949 55.867 C-4.949 56.857 -4.949 57.847 -4.949 58.867 C-7.693 58.248 -9.834 57.472 -12.449 56.305 C-20.306 53.395 -27.69 53.89 -35.262 57.367 C-42.984 61.663 -48.298 67.325 -50.949 75.867 C-53.117 86.632 -51.023 96.713 -44.949 105.867 C-38.814 113.215 -31.592 119.912 -21.949 121.867 C-14.264 122.541 -7.807 120.296 -0.949 116.867 C-1.546 120.51 -1.823 120.776 -5.074 123.117 C-11.93 126.23 -20.409 126.058 -27.602 124.172 C-33.139 121.856 -38.056 118.303 -42.949 114.867 C-43.183 126.612 -42.458 138.284 -41.777 150.004 C-41.653 152.184 -41.53 154.364 -41.407 156.544 C-41.077 162.351 -40.743 168.157 -40.407 173.963 C-40.199 177.558 -39.992 181.153 -39.785 184.748 C-39.233 194.349 -38.68 203.951 -38.123 213.551 C-37.411 225.809 -36.711 238.068 -36.037 250.328 C-35.737 255.764 -35.43 261.199 -35.119 266.634 C-34.921 270.1 -34.727 273.565 -34.543 277.031 C-34.342 280.781 -34.126 284.529 -33.906 288.277 C-33.853 289.338 -33.8 290.399 -33.746 291.492 C-33.278 299.063 -32.399 305.729 -27.635 311.831 C-24.629 314.11 -22.666 314.788 -18.969 315.445 C-17.728 315.675 -16.488 315.906 -15.209 316.143 C-13.789 316.384 -12.369 316.626 -10.949 316.867 C-9.353 317.154 -7.757 317.443 -6.162 317.732 C-0.658 318.724 4.852 319.672 10.363 320.617 C12.381 320.965 14.399 321.312 16.417 321.66 C19.522 322.195 22.627 322.73 25.732 323.263 C31.825 324.309 37.916 325.367 44.005 326.437 C47.754 327.096 51.505 327.749 55.255 328.401 C57.021 328.709 58.786 329.02 60.551 329.332 C63.005 329.767 65.461 330.193 67.918 330.617 C68.627 330.745 69.337 330.873 70.068 331.004 C77.117 332.204 83.713 332.916 90.098 329.309 C97.838 323.596 100.56 316.073 102.051 306.867 C102.394 301.405 102.309 295.975 102.195 290.508 C102.173 288.859 102.152 287.209 102.132 285.56 C102.073 281.033 101.995 276.507 101.913 271.981 C101.828 267.113 101.762 262.245 101.693 257.377 C101.569 248.711 101.431 240.046 101.288 231.38 C101.119 221.183 100.96 210.985 100.81 200.788 C100.795 199.76 100.795 199.76 100.78 198.712 C100.738 195.914 100.697 193.116 100.656 190.318 C100.211 159.985 99.765 129.652 99.229 99.32 C99.11 92.544 99.006 85.768 98.915 78.991 C98.859 74.979 98.791 70.967 98.721 66.954 C98.691 65.136 98.667 63.317 98.647 61.498 C98.888 45.206 98.888 45.206 91.488 31.305 C90.889 30.664 90.289 30.023 89.672 29.363 C87.165 27.049 85.308 26.699 81.997 26.412 C81.148 26.336 80.299 26.261 79.424 26.183 C78.49 26.104 77.556 26.025 76.594 25.943 C75.612 25.857 74.629 25.771 73.617 25.682 C70.348 25.396 67.078 25.116 63.809 24.836 C61.528 24.638 59.247 24.44 56.966 24.242 C52.166 23.826 47.365 23.413 42.565 23.001 C36.466 22.479 30.368 21.949 24.27 21.418 C19.546 21.007 14.822 20.599 10.097 20.193 C7.853 19.999 5.609 19.805 3.365 19.609 C-2.778 19.075 -8.922 18.577 -15.07 18.109 C-17.959 17.866 -20.835 17.557 -23.716 17.238 C-25.515 17.071 -27.314 16.905 -29.114 16.74 C-29.923 16.633 -30.732 16.526 -31.565 16.416 C-39.922 15.749 -42.212 21.681 -45.824 28.305 Z M119.051 51.867 C117.455 53.463 117.923 55.129 117.921 57.339 C117.918 58.291 117.915 59.242 117.912 60.222 C117.914 61.257 117.916 62.293 117.918 63.359 C117.917 64.416 117.916 65.473 117.915 66.562 C117.914 68.803 117.916 71.044 117.92 73.286 C117.926 76.72 117.92 80.155 117.914 83.59 C117.915 85.763 117.916 87.936 117.918 90.109 C117.916 91.141 117.914 92.172 117.912 93.235 C117.915 94.192 117.918 95.15 117.921 96.136 C117.922 96.979 117.923 97.822 117.924 98.691 C117.967 101.049 117.967 101.049 119.051 103.867 C120.536 103.372 120.536 103.372 122.051 102.867 C122.183 86.169 121.906 69.545 121.051 52.867 C120.391 52.537 119.731 52.207 119.051 51.867 Z M-176.426 177.289 C-183.87 185 -187.109 194.228 -187.449 204.93 C-187.1 216.226 -182.943 225.251 -174.762 232.992 C-164.872 241.527 -154.588 242.564 -141.949 241.867 C-131.844 240.256 -123.893 234.753 -117.453 226.953 C-110.768 217.681 -109.947 208.007 -110.949 196.867 C-113.263 185.985 -119.917 177.211 -128.949 170.867 C-144.585 162.282 -163.469 165.245 -176.426 177.289 Z M114.051 180.867 C111.789 183.132 111.789 183.132 110.051 185.867 C110.381 186.857 110.711 187.847 111.051 188.867 C111.876 187.918 112.701 186.97 113.551 185.992 C114.015 185.459 114.479 184.925 114.957 184.375 C116.247 182.908 116.247 182.908 116.051 180.867 C115.391 180.867 114.731 180.867 114.051 180.867 Z M114.051 187.867 C111.594 190.467 111.594 190.467 111.051 193.867 C110.391 193.867 109.731 193.867 109.051 193.867 C109.454 199.506 111.162 201.978 115.051 205.867 C117.216 206.812 117.216 206.812 119.051 206.867 C118.205 206.125 117.36 205.382 116.488 204.617 C114.051 201.867 114.051 201.867 113.988 199.93 C115.051 197.867 115.051 197.867 117.176 194.867 C119.323 192.116 119.323 192.116 118.801 189.492 C118.553 188.956 118.306 188.42 118.051 187.867 C116.731 187.867 115.411 187.867 114.051 187.867 Z M122.051 191.867 C118.859 195.608 118.859 195.608 118.301 200.242 C118.548 200.778 118.796 201.315 119.051 201.867 C122.723 198.787 123.619 196.619 124.051 191.867 C123.391 191.867 122.731 191.867 122.051 191.867 Z M127.051 194.867 C124.817 198.256 124.817 198.256 123.051 201.867 C123.633 204.292 123.633 204.292 125.051 205.867 C125.711 205.867 126.371 205.867 127.051 205.867 C128.041 202.567 129.031 199.267 130.051 195.867 C129.061 195.537 128.071 195.207 127.051 194.867 Z M133.051 198.867 C131.731 201.507 130.411 204.147 129.051 206.867 C130.371 208.187 131.691 209.507 133.051 210.867 C134.701 207.567 136.351 204.267 138.051 200.867 C137.391 200.207 136.731 199.547 136.051 198.867 C135.061 198.867 134.071 198.867 133.051 198.867 Z M140.051 202.867 C139.351 204.131 138.666 205.404 137.988 206.68 C137.605 207.387 137.223 208.095 136.828 208.824 C135.748 211.014 135.748 211.014 137.051 213.867 C139.555 215.086 139.555 215.086 142.051 215.867 C142.75 214.435 143.435 212.997 144.113 211.555 C144.688 210.354 144.688 210.354 145.273 209.129 C146.348 206.747 146.348 206.747 145.051 203.867 C143.401 203.537 141.751 203.207 140.051 202.867 Z M149.051 207.867 C148.323 209.274 147.619 210.693 146.926 212.117 C146.531 212.906 146.137 213.695 145.73 214.508 C144.79 216.879 144.79 216.879 145.934 219.164 C146.487 220.007 146.487 220.007 147.051 220.867 C147.711 220.867 148.371 220.867 149.051 220.867 C149.917 219.437 150.769 217.998 151.613 216.555 C152.089 215.754 152.565 214.954 153.055 214.129 C154.393 211.776 154.393 211.776 153.051 208.867 C151.036 208.134 151.036 208.134 149.051 207.867 Z M-106.949 227.867 C-106.619 230.947 -106.357 232.47 -104.102 234.668 C-103.005 235.416 -103.005 235.416 -101.887 236.18 C-101.153 236.691 -100.42 237.203 -99.664 237.73 C-99.098 238.106 -98.532 238.481 -97.949 238.867 C-96.629 238.207 -95.309 237.547 -93.949 236.867 C-96.374 234.185 -99.024 232.499 -102.137 230.68 C-103.038 230.15 -103.939 229.62 -104.867 229.074 C-105.554 228.676 -106.241 228.278 -106.949 227.867 Z M-85.949 228.867 C-86.939 229.857 -87.929 230.847 -88.949 231.867 C-76.084 247.855 -76.084 247.855 -58.387 256.242 C-57.582 256.118 -56.778 255.995 -55.949 255.867 C-55.949 257.187 -55.949 258.507 -55.949 259.867 C-55.31 259.97 -54.67 260.073 -54.012 260.18 C-53.331 260.407 -52.65 260.633 -51.949 260.867 C-51.619 261.857 -51.289 262.847 -50.949 263.867 C-49.2 265.791 -49.2 265.791 -47.074 267.617 C-46.026 268.569 -46.026 268.569 -44.957 269.539 C-44.294 269.977 -43.632 270.416 -42.949 270.867 C-41.959 270.537 -40.969 270.207 -39.949 269.867 C-43.631 261.022 -53.442 254.256 -60.957 248.649 C-65.046 245.596 -68.954 242.381 -72.824 239.055 C-77.057 235.423 -81.323 231.988 -85.949 228.867 Z M-93.949 239.867 C-92.959 240.857 -91.969 241.847 -90.949 242.867 C-90.949 241.877 -90.949 240.887 -90.949 239.867 C-91.939 239.867 -92.929 239.867 -93.949 239.867 Z M-94.949 247.867 C-97.043 251.269 -97.129 253.92 -96.949 257.867 C-96.289 257.867 -95.629 257.867 -94.949 257.867 C-92.659 253.055 -92.659 253.055 -91.949 247.867 C-92.939 247.867 -93.929 247.867 -94.949 247.867 Z M-87.949 247.867 C-88.458 249.114 -88.956 250.365 -89.449 251.617 C-89.728 252.313 -90.006 253.009 -90.293 253.727 C-91.145 256.131 -91.145 256.131 -90.949 259.867 C-90.289 259.867 -89.629 259.867 -88.949 259.867 C-86.796 256.01 -85.557 253.316 -85.949 248.867 C-86.609 248.537 -87.269 248.207 -87.949 247.867 Z M159.051 251.867 C159.711 253.847 160.371 255.827 161.051 257.867 C164.516 257.372 164.516 257.372 168.051 256.867 C169.053 253.284 169.053 253.284 168.051 249.867 C164.425 249.666 162.186 250.009 159.051 251.867 Z M-82.949 254.867 C-85.308 259.131 -85.308 259.131 -85.949 263.867 C-82.9 263.185 -82.9 263.185 -81.699 261.055 C-80.833 258.528 -81.064 257.345 -81.949 254.867 C-82.279 254.867 -82.609 254.867 -82.949 254.867 Z M-77.949 260.867 C-80.265 264.088 -80.265 264.088 -80.949 267.867 C-79.959 267.867 -78.969 267.867 -77.949 267.867 C-77.289 265.557 -76.629 263.247 -75.949 260.867 C-76.609 260.867 -77.269 260.867 -77.949 260.867 Z M162.051 261.867 C162.381 263.517 162.711 265.167 163.051 266.867 C165.691 266.537 168.331 266.207 171.051 265.867 C171.051 264.217 171.051 262.567 171.051 260.867 C167.285 259.612 165.679 260.497 162.051 261.867 Z M165.051 269.867 C165.008 271.533 165.01 273.201 165.051 274.867 C165.381 275.197 165.711 275.527 166.051 275.867 C168.39 275.58 170.725 275.248 173.051 274.867 C172.721 272.887 172.391 270.907 172.051 268.867 C168.156 268.656 168.156 268.656 165.051 269.867 Z M173.051 276.867 C169.586 278.352 169.586 278.352 166.051 279.867 C166.051 280.857 166.051 281.847 166.051 282.867 C169.768 283.216 169.768 283.216 172.863 281.367 C173.255 280.872 173.647 280.377 174.051 279.867 C173.721 278.877 173.391 277.887 173.051 276.867 Z M178.074 285.862 C177.342 286.033 176.61 286.203 175.855 286.379 C175.058 286.56 174.26 286.741 173.438 286.928 C172.194 287.238 172.194 287.238 170.926 287.555 C169.671 287.836 169.671 287.836 168.391 288.123 C165.18 288.861 165.18 288.861 162.051 289.867 C160.707 292.555 161.123 294.324 161.391 297.312 C161.484 298.389 161.578 299.465 161.674 300.574 C161.778 301.702 161.881 302.83 161.988 303.992 C162.088 305.128 162.188 306.264 162.291 307.434 C162.539 310.245 162.793 313.056 163.051 315.867 C166.603 316.765 168.965 316.907 172.477 315.871 C173.671 315.528 173.671 315.528 174.889 315.178 C176.114 314.807 176.114 314.807 177.363 314.43 C178.199 314.187 179.035 313.944 179.896 313.693 C181.951 313.095 184.001 312.482 186.051 311.867 C187.622 306.891 186.441 302.674 185.301 297.742 C185.131 296.931 184.96 296.121 184.785 295.285 C184.61 294.505 184.435 293.725 184.254 292.922 C184.096 292.215 183.937 291.509 183.774 290.781 C182.643 287.79 181.443 285.871 178.074 285.862 Z M154.051 298.867 C154.051 301.177 154.051 303.487 154.051 305.867 C153.061 306.362 153.061 306.362 152.051 306.867 C152.527 311.155 153.71 313.134 157.051 315.867 C157.711 315.867 158.371 315.867 159.051 315.867 C158.91 313.408 158.764 310.95 158.613 308.492 C158.574 307.794 158.535 307.095 158.494 306.375 C158.308 302.494 158.308 302.494 157.051 298.867 C156.061 298.867 155.071 298.867 154.051 298.867 Z M179.406 316.961 C178.565 317.187 177.724 317.412 176.857 317.645 C175.561 318.002 175.561 318.002 174.238 318.367 C173.355 318.606 172.471 318.844 171.561 319.09 C169.389 319.677 167.219 320.269 165.051 320.867 C164.556 322.847 164.556 322.847 164.051 324.867 C167.824 325.857 170.205 325.825 173.914 324.652 C174.8 324.378 175.687 324.104 176.6 323.822 C177.512 323.528 178.424 323.233 179.363 322.93 C180.295 322.639 181.226 322.348 182.186 322.049 C184.477 321.332 186.765 320.604 189.051 319.867 C189.051 318.547 189.051 317.227 189.051 315.867 C185.615 315.761 182.72 316.059 179.406 316.961 Z M-1.949 322.867 C-1.619 324.517 -1.289 326.167 -0.949 327.867 C-0.418 327.703 0.113 327.54 0.66 327.371 C3.59 326.754 6.309 326.772 9.301 326.805 C10.378 326.814 11.456 326.823 12.566 326.832 C13.386 326.844 14.206 326.855 15.051 326.867 C14.721 326.207 14.391 325.547 14.051 324.867 C11.643 324.172 11.643 324.172 8.801 323.742 C7.37 323.491 7.37 323.491 5.91 323.234 C3.25 322.893 0.729 322.799 -1.949 322.867 Z M-0.949 330.867 C-0.949 331.857 -0.949 332.847 -0.949 333.867 C1.031 333.867 3.011 333.867 5.051 333.867 C4.721 334.527 4.391 335.187 4.051 335.867 C1.488 336.492 1.488 336.492 -0.949 336.867 C-0.949 337.857 -0.949 338.847 -0.949 339.867 C1.155 339.894 3.259 339.914 5.363 339.93 C6.535 339.941 7.707 339.953 8.914 339.965 C12.081 340.016 12.081 340.016 15.051 338.867 C15.051 337.877 15.051 336.887 15.051 335.867 C13.731 335.537 12.411 335.207 11.051 334.867 C12.371 334.207 13.691 333.547 15.051 332.867 C15.051 331.877 15.051 330.887 15.051 329.867 C9.216 329.014 4.602 328.384 -0.949 330.867 Z M89.363 335.867 C88.555 336.053 87.747 336.238 86.914 336.43 C86.299 336.574 85.684 336.718 85.051 336.867 C85.051 337.857 85.051 338.847 85.051 339.867 C91.34 339.342 91.34 339.342 97.051 336.867 C97.051 336.207 97.051 335.547 97.051 334.867 C94.253 334.867 92.072 335.239 89.363 335.867 Z M90.363 342.367 C89.555 342.646 88.747 342.924 87.914 343.211 C87.299 343.428 86.684 343.644 86.051 343.867 C86.381 345.517 86.711 347.167 87.051 348.867 C88.702 348.109 90.347 347.335 91.988 346.555 C92.905 346.125 93.821 345.696 94.766 345.254 C97.36 344.016 97.36 344.016 98.051 340.867 C95.036 340.867 93.182 341.387 90.363 342.367 Z M0.051 343.867 C0.051 345.187 0.051 346.507 0.051 347.867 C5.38 349.159 10.768 349.558 16.051 347.867 C15.556 345.392 15.556 345.392 15.051 342.867 C9.925 342.765 5.101 342.831 0.051 343.867 Z M91.926 348.867 C91.016 349.238 90.106 349.61 89.168 349.992 C88.12 350.425 88.12 350.425 87.051 350.867 C87.381 351.527 87.711 352.187 88.051 352.867 C93.496 352.372 93.496 352.372 99.051 351.867 C99.381 350.877 99.711 349.887 100.051 348.867 C99.721 348.207 99.391 347.547 99.051 346.867 C96.349 346.867 94.421 347.844 91.926 348.867 Z M0.051 351.867 C0.051 353.517 0.051 355.167 0.051 356.867 C0.381 357.197 0.711 357.527 1.051 357.867 C2.99 357.801 2.99 357.801 5.238 357.492 C6.449 357.343 6.449 357.343 7.684 357.191 C10.484 356.808 13.269 356.366 16.051 355.867 C16.051 354.547 16.051 353.227 16.051 351.867 C10.771 351.867 5.491 351.867 0.051 351.867 Z M93.426 355.367 C92.2 355.506 92.2 355.506 90.949 355.648 C90.323 355.721 89.696 355.793 89.051 355.867 C88.721 357.517 88.391 359.167 88.051 360.867 C90.536 362.11 91.815 361.821 94.551 361.492 C95.742 361.357 95.742 361.357 96.957 361.219 C99.102 360.964 99.102 360.964 101.051 359.867 C100.556 357.392 100.556 357.392 100.051 354.867 C97.807 354.867 95.655 355.112 93.426 355.367 Z M7.988 359.867 C6.053 360.146 6.053 360.146 4.078 360.43 C3.079 360.574 2.08 360.718 1.051 360.867 C1.051 361.857 1.051 362.847 1.051 363.867 C2.779 364.064 4.508 364.249 6.238 364.43 C7.201 364.534 8.164 364.639 9.156 364.746 C11.993 364.865 14.305 364.545 17.051 363.867 C16.556 361.392 16.556 361.392 16.051 358.867 C13.385 358.867 10.615 359.489 7.988 359.867 Z M89.051 364.867 C89.381 366.517 89.711 368.167 90.051 369.867 C94.011 369.867 97.971 369.867 102.051 369.867 C102.381 368.217 102.711 366.567 103.051 364.867 C101.91 363.5 101.91 363.5 98.863 363.742 C95.482 363.853 92.365 364.221 89.051 364.867 Z M2.051 366.867 C1.721 367.527 1.391 368.187 1.051 368.867 C1.942 370.984 1.942 370.984 3.051 372.867 C4.801 372.894 6.551 372.914 8.301 372.93 C9.275 372.941 10.25 372.953 11.254 372.965 C13.708 372.879 15.712 372.574 18.051 371.867 C18.051 370.547 18.051 369.227 18.051 367.867 C12.771 367.537 7.491 367.207 2.051 366.867 Z M91.051 372.867 C89.717 375.867 89.717 375.867 91.051 378.867 C95.671 378.867 100.291 378.867 105.051 378.867 C104.721 376.887 104.391 374.907 104.051 372.867 C99.761 372.867 95.471 372.867 91.051 372.867 Z M3.051 374.867 C3.051 375.857 3.051 376.847 3.051 377.867 C4.701 377.537 6.351 377.207 8.051 376.867 C5.374 374.682 5.374 374.682 3.051 374.867 Z M12.988 375.367 C11.689 375.532 10.39 375.697 9.051 375.867 C11.813 378.629 14.258 378.446 18.051 378.867 C18.051 377.547 18.051 376.227 18.051 374.867 C16.349 374.867 14.674 375.153 12.988 375.367 Z M3.051 380.867 C3.381 382.187 3.711 383.507 4.051 384.867 C9.001 384.537 13.951 384.207 19.051 383.867 C16.316 381.133 14.281 380.914 10.473 380.77 C9.15 380.787 9.15 380.787 7.801 380.805 C6.463 380.818 6.463 380.818 5.098 380.832 C4.422 380.844 3.747 380.855 3.051 380.867 Z M92.051 382.867 C92.381 384.517 92.711 386.167 93.051 387.867 C99.981 388.362 99.981 388.362 107.051 388.867 C106.721 386.887 106.391 384.907 106.051 382.867 C101.431 382.867 96.811 382.867 92.051 382.867 Z M3.051 387.867 C3.381 389.187 3.711 390.507 4.051 391.867 C9.331 392.197 14.611 392.527 20.051 392.867 C20.051 391.217 20.051 389.567 20.051 387.867 C14.515 386.439 8.499 386.051 3.051 387.867 Z M94.051 390.867 C92.653 393.12 92.653 393.12 94.051 396.867 C99.001 396.867 103.951 396.867 109.051 396.867 C109.051 395.547 109.051 394.227 109.051 392.867 C107.302 392.529 105.551 392.197 103.801 391.867 C102.826 391.682 101.852 391.496 100.848 391.305 C97.864 390.764 97.864 390.764 94.051 390.867 Z M4.051 395.867 C4.051 397.187 4.051 398.507 4.051 399.867 C9.001 399.867 13.951 399.867 19.051 399.867 C19.051 398.877 19.051 397.887 19.051 396.867 C14.09 395.544 9.14 395.778 4.051 395.867 Z M95.051 399.867 C94.604 405.345 94.604 405.345 96.051 407.867 C101.001 407.867 105.951 407.867 111.051 407.867 C110.721 405.227 110.391 402.587 110.051 399.867 C105.101 399.867 100.151 399.867 95.051 399.867 Z M5.051 402.867 C5.051 404.847 5.051 406.827 5.051 408.867 C10.001 408.537 14.951 408.207 20.051 407.867 C20.381 406.877 20.711 405.887 21.051 404.867 C20.721 404.207 20.391 403.547 20.051 402.867 C15.101 402.867 10.151 402.867 5.051 402.867 Z M97.051 411.867 C96.841 416.008 96.841 416.008 98.051 419.867 C99.801 419.725 101.551 419.579 103.301 419.43 C104.275 419.348 105.25 419.267 106.254 419.184 C108.615 418.916 110.77 418.513 113.051 417.867 C113.094 416.201 113.091 414.533 113.051 412.867 C111.888 411.476 111.888 411.476 108.672 411.77 C107.277 411.776 105.883 411.788 104.488 411.805 C103.777 411.809 103.066 411.814 102.334 411.818 C100.573 411.83 98.812 411.848 97.051 411.867 Z M5.051 445.867 C5.051 446.527 5.051 447.187 5.051 447.867 C6.371 447.867 7.691 447.867 9.051 447.867 C9.051 447.207 9.051 446.547 9.051 445.867 C7.731 445.867 6.411 445.867 5.051 445.867 Z M14.051 449.867 C13.556 451.847 13.556 451.847 13.051 453.867 C14.371 453.867 15.691 453.867 17.051 453.867 C17.381 452.877 17.711 451.887 18.051 450.867 C16.731 450.537 15.411 450.207 14.051 449.867 Z M-6.727 453.961 C-7.538 454.072 -8.349 454.183 -9.185 454.297 C-11.753 454.649 -14.32 455.008 -16.887 455.367 C-18.637 455.609 -20.388 455.849 -22.139 456.09 C-26.41 456.677 -30.68 457.271 -34.949 457.867 C-34.949 459.187 -34.949 460.507 -34.949 461.867 C-25.962 462.147 -17.393 461.324 -8.512 459.992 C-6.653 459.731 -6.653 459.731 -4.756 459.465 C0.472 458.702 5.191 458.013 10.051 455.867 C9.556 454.382 9.556 454.382 9.051 452.867 C3.68 452.743 -1.412 453.209 -6.727 453.961 Z M103.051 456.867 C102.721 457.857 102.391 458.847 102.051 459.867 C103.371 459.867 104.691 459.867 106.051 459.867 C106.051 458.877 106.051 457.887 106.051 456.867 C105.061 456.867 104.071 456.867 103.051 456.867 Z M110.051 461.867 C110.381 463.187 110.711 464.507 111.051 465.867 C112.701 465.207 114.351 464.547 116.051 463.867 C116.051 462.877 116.051 461.887 116.051 460.867 C112.274 460.569 112.274 460.569 110.051 461.867 Z M88.613 465.961 C87.848 466.072 87.082 466.183 86.293 466.297 C83.878 466.649 81.465 467.008 79.051 467.367 C77.401 467.609 75.751 467.849 74.102 468.09 C70.084 468.676 66.067 469.27 62.051 469.867 C62.051 470.857 62.051 471.847 62.051 472.867 C71.244 473.166 80.025 472.264 89.113 470.93 C91.069 470.656 91.069 470.656 93.064 470.377 C99.647 469.515 99.647 469.515 106.051 467.867 C105.556 466.382 105.556 466.382 105.051 464.867 C99.44 464.757 94.157 465.124 88.613 465.961 Z " fill="#000000" transform="translate(409.94921875,175.1328125)"/>
<path d="M0 0 C1 1 1 1 1.312 3.375 C1 6 1 6 -0.75 7.875 C-3 9 -3 9 -5.25 8.688 C-5.827 8.461 -6.405 8.234 -7 8 C-7.688 5.688 -7.688 5.688 -8 3 C-5.924 -0.345 -3.739 -0.394 0 0 Z " fill="#000000" transform="translate(448,205)"/>
<path d="M0 0 C2.517 0.065 4.992 0.191 7.5 0.375 C8.203 0.419 8.905 0.463 9.629 0.508 C14.871 0.871 14.871 0.871 16 2 C17.001 8.879 17.122 15.621 17.062 22.562 C17.058 23.571 17.053 24.58 17.049 25.619 C17.037 28.079 17.021 30.54 17 33 C17.722 32.994 18.445 32.988 19.189 32.982 C25.872 32.951 32.351 33.309 39 34 C39 38.95 39 43.9 39 49 C36.546 49.021 34.091 49.041 31.562 49.062 C30.401 49.076 30.401 49.076 29.217 49.09 C27.478 49.097 25.739 49.05 24 49 C23 48 23 48 22.902 45.715 C22.914 44.798 22.926 43.882 22.938 42.938 C22.947 42.018 22.956 41.099 22.965 40.152 C22.976 39.442 22.988 38.732 23 38 C21.35 37.67 19.7 37.34 18 37 C18 43.6 18 50.2 18 57 C3.536 57.134 3.536 57.134 0 56 C-1.034 51.735 -1 48.627 -1 44 C-5.95 44 -10.9 44 -16 44 C-16 47.3 -16 50.6 -16 54 C-19.786 54.946 -21.953 54.969 -25.75 54.562 C-26.735 54.461 -27.72 54.359 -28.734 54.254 C-29.482 54.17 -30.23 54.086 -31 54 C-31.33 51.03 -31.66 48.06 -32 45 C-34.64 45 -37.28 45 -40 45 C-41.125 41.25 -41.125 41.25 -40 39 C-37.36 39 -34.72 39 -32 39 C-32.021 37.701 -32.041 36.401 -32.062 35.062 C-32.084 33.708 -32.071 32.352 -32 31 C-29.839 28.839 -24.799 29.276 -22 29 C-22 25.37 -22 21.74 -22 18 C-19.688 17.973 -17.375 17.954 -15.062 17.938 C-13.775 17.926 -12.487 17.914 -11.16 17.902 C-8 18 -8 18 -7 19 C-5.79 25.99 -5.903 32.923 -6 40 C-4.35 40 -2.7 40 -1 40 C-1.005 38.824 -1.01 37.648 -1.016 36.436 C-1.034 32.088 -1.045 27.74 -1.055 23.392 C-1.06 21.508 -1.067 19.623 -1.075 17.738 C-1.088 15.035 -1.093 12.332 -1.098 9.629 C-1.103 8.781 -1.108 7.933 -1.113 7.059 C-1.113 5.039 -1.062 3.019 -1 1 C-0.67 0.67 -0.34 0.34 0 0 Z M3 5 C2.771 20.675 3.445 36.338 4 52 C6.97 52.33 9.94 52.66 13 53 C13.523 29.454 13.523 29.454 12 6 C11.017 4.794 11.017 4.794 9.152 4.902 C7.102 4.935 5.051 4.967 3 5 Z M-18 23 C-17.34 28.28 -16.68 33.56 -16 39 C-14.02 39 -12.04 39 -10 39 C-10.33 33.72 -10.66 28.44 -11 23 C-13.31 23 -15.62 23 -18 23 Z M-28 34 C-27.67 39.28 -27.34 44.56 -27 50 C-24.69 50 -22.38 50 -20 50 C-19.973 47.521 -19.953 45.042 -19.938 42.562 C-19.929 41.855 -19.921 41.148 -19.912 40.42 C-19.903 38.613 -19.948 36.806 -20 35 C-20.33 34.67 -20.66 34.34 -21 34 C-23.31 34 -25.62 34 -28 34 Z M28 38 C27.957 40 27.959 42 28 44 C29.06 45.283 29.06 45.283 31.5 45.125 C33.94 45.283 33.94 45.283 35 44 C35.167 41.5 35.167 41.5 35 39 C33.875 37.644 33.875 37.644 30.938 37.938 C29.968 37.958 28.999 37.979 28 38 Z " fill="#000000" transform="translate(250,209)"/>
<path d="M0 0 C1.887 0.447 1.887 0.447 3.812 0.902 C14.568 3.568 14.568 3.568 17 6 C16.444 10.556 16.444 10.556 15 12 C12.587 12.126 10.204 12.189 7.789 12.203 C6.703 12.212 6.703 12.212 5.595 12.22 C4.06 12.23 2.525 12.236 0.99 12.24 C-1.358 12.25 -3.706 12.281 -6.055 12.312 C-7.544 12.319 -9.034 12.324 -10.523 12.328 C-11.227 12.34 -11.93 12.353 -12.654 12.366 C-17.508 12.343 -17.508 12.343 -19.893 10.679 C-21.477 8.277 -22.206 5.749 -23 3 C-7.972 -1.981 -7.972 -1.981 0 0 Z " fill="#000000" transform="translate(464,216)"/>
<path d="M0 0 C12.778 -0.628 23.803 0.291 33.969 8.965 C43.244 18.258 47.18 29.654 48.312 42.562 C48.118 52.691 44.068 61.878 37 69 C28.169 77.178 18.268 83.386 6 84 C-6.392 83.504 -16.985 81.093 -25.727 71.715 C-27.34 69.542 -27.918 67.701 -28 65 C-26.02 64.505 -26.02 64.505 -24 64 C-23.299 65.072 -22.598 66.145 -21.875 67.25 C-17.1 73.847 -10.796 76.436 -3 78 C5.523 79.009 12.91 77.626 19.969 72.598 C28.541 64.909 32.239 53.706 33.215 42.543 C33.626 32.097 30.451 21.294 23.688 13.25 C16.369 7.123 9.293 5.701 0 4 C0 2.68 0 1.36 0 0 Z " fill="#000000" transform="translate(456,230)"/>
<path d="M0 0 C5.966 4.301 10.16 9.657 11.688 16.938 C12.596 25.564 11.324 32.02 6.5 39.188 C1.96 43.626 -2.445 46.123 -8.875 46.375 C-15.071 46.056 -20.337 43.67 -24.957 39.496 C-29.931 33.777 -30.972 27.263 -30.699 19.871 C-29.598 11.515 -25.577 6.449 -19.188 1.188 C-13.719 -2.458 -6.028 -1.934 0 0 Z M-22.75 10.562 C-25.861 15.135 -26.688 19.456 -26.312 24.938 C-25.139 30.695 -22.372 34.779 -18.312 38.938 C-13.609 41.836 -8.655 41.882 -3.312 40.938 C1.577 38.381 4.722 34.735 6.75 29.625 C8.492 22.928 7.96 16.627 4.562 10.562 C1.796 6.625 -0.882 4.803 -5.312 2.938 C-12.367 1.737 -18.299 5.29 -22.75 10.562 Z " fill="#000000" transform="translate(395.3125,239.0625)"/>
<path d="M0 0 C1.32 0 2.64 0 4 0 C4.124 0.892 4.247 1.784 4.375 2.703 C5.295 9.41 5.295 9.41 8.98 14.754 C11.398 15.979 11.398 15.979 15 17 C15 18.32 15 19.64 15 21 C13.928 21.351 12.855 21.701 11.75 22.062 C7.259 23.939 6.028 26.701 4 31 C2.68 31 1.36 31 0 31 C-0.135 30.446 -0.271 29.891 -0.41 29.32 C-1.094 27.019 -1.775 25.07 -3 23 C-6.549 21.389 -6.549 21.389 -10 21 C-9.812 18.625 -9.812 18.625 -9 16 C-6.562 14.875 -6.562 14.875 -4 14 C-1.887 10.83 -1.69 9.558 -1.438 5.875 C-1.098 1.098 -1.098 1.098 0 0 Z M2 14 C0.68 15.65 -0.64 17.3 -2 19 C-0.68 20.32 0.64 21.64 2 23 C3.32 22.34 4.64 21.68 6 21 C6 19.68 6 18.36 6 17 C4.08 15.226 4.08 15.226 2 14 Z " fill="#000000" transform="translate(623,240)"/>
<path d="M0 0 C7.081 5.695 10.556 12.33 11.875 21.312 C12.283 29.458 9.659 37.033 4.234 43.168 C-2.163 49.003 -9.524 51.48 -18.125 51.312 C-26.162 50.265 -31.924 46.448 -37.125 40.312 C-41.686 32.626 -43.639 24.254 -41.406 15.492 C-38.393 6.574 -34.733 1.823 -26.406 -2.707 C-16.962 -6.766 -8.6 -4.644 0 0 Z M-33 8.312 C-37.738 15.002 -37.882 21.304 -37.125 29.312 C-35.165 36.868 -29.216 41.9 -22.688 45.75 C-15.864 47.248 -9.25 46.83 -3.125 43.312 C2.14 39.324 5.57 34.838 6.875 28.312 C7.766 20.444 6.317 14.351 2.25 7.625 C-3.114 2.402 -8.139 -0.006 -15.688 -0.312 C-23.359 0.01 -27.956 2.685 -33 8.312 Z " fill="#000000" transform="translate(471.125,246.6875)"/>
<path d="M0 0 C2.31 0 4.62 0 7 0 C7 2.31 7 4.62 7 7 C5 7.043 3 7.041 1 7 C0 6 0 6 -0.062 2.938 C-0.042 1.968 -0.021 0.999 0 0 Z " fill="#000000" transform="translate(297,245)"/>
<path d="M0 0 C3.442 1.721 5.404 2.998 7.375 6.312 C8.522 11.244 8.672 14.657 6.375 19.25 C3.693 22.355 1.89 23.703 -2 25 C-7.299 24.907 -10.255 23.745 -14 20 C-16.311 16.225 -16.197 13.541 -15.617 9.258 C-14.606 5.558 -12.728 3.661 -10 1 C-6.783 -0.609 -3.489 -0.467 0 0 Z M-10 7 C-10.495 8.98 -10.495 8.98 -11 11 C-6.05 11 -1.1 11 4 11 C1.499 6.024 1.499 6.024 -2 4 C-5.645 4 -7.093 4.858 -10 7 Z " fill="#000000" transform="translate(388,247)"/>
<path d="M0 0 C4.338 2.445 6.242 4.728 7.562 9.438 C8.283 13.821 7.584 16.296 5 20 C2.54 23.372 1.258 23.938 -2.875 24.938 C-6.98 25.259 -9.549 24.327 -13 22 C-16.041 19.168 -16.696 16.132 -17.062 12.023 C-16.925 7.582 -14.734 4.821 -11.875 1.625 C-7.84 -0.656 -4.529 -0.893 0 0 Z M-11 7 C-11.495 8.98 -11.495 8.98 -12 11 C-7.05 11 -2.1 11 3 11 C1.524 5.94 1.524 5.94 -2 4 C-6.299 4 -7.652 4.466 -11 7 Z " fill="#000000" transform="translate(458,254)"/>
<path d="M0 0 C1.684 0.029 1.684 0.029 3.402 0.059 C4.548 0.101 5.694 0.144 6.875 0.188 C8.48 0.24 8.48 0.24 10.117 0.293 C13.909 1.223 14.994 2.719 17 6 C17 9.125 17 9.125 16 12 C13.678 14.306 12.361 14.959 9.082 15.328 C5.719 15.248 2.361 15.154 -1 15 C-1.883 14.981 -2.766 14.961 -3.676 14.941 C-7.785 14.714 -9.669 14.232 -13.125 11.812 C-15 9 -15 9 -15.062 5.875 C-12.38 -1.384 -6.571 -0.341 0 0 Z M-11 6 C-10.369 8.046 -10.369 8.046 -9 10 C-6.661 10.709 -6.661 10.709 -3.938 10.75 C-2.96 10.805 -1.983 10.861 -0.977 10.918 C3.022 11.028 7 11.066 11 11 C11.382 9.344 11.714 7.675 12 6 C9.741 3.741 4.674 4.479 1.625 4.312 C0.748 4.253 -0.128 4.193 -1.031 4.131 C-1.874 4.084 -2.717 4.037 -3.586 3.988 C-4.747 3.919 -4.747 3.919 -5.931 3.849 C-8.312 3.852 -8.312 3.852 -11 6 Z " fill="#000000" transform="translate(425,316)"/>
<path d="M0 0 C1.32 0.66 2.64 1.32 4 2 C3.688 3.938 3.688 3.938 3 6 C2.01 6.33 1.02 6.66 0 7 C-1 6 -1 6 -1.125 3.5 C-1 1 -1 1 0 0 Z " fill="#000000" transform="translate(375,317)"/>
<path d="M0 0 C0.99 0 1.98 0 3 0 C5.135 7.739 5.205 15 5 23 C3.68 23 2.36 23 1 23 C0.67 15.41 0.34 7.82 0 0 Z " fill="#000000" transform="translate(374,328)"/>
<path d="M0 0 C9.907 0.053 19.745 2.28 29.438 4.125 C31.092 4.436 32.747 4.746 34.402 5.055 C38.722 5.865 43.04 6.682 47.358 7.5 C50.89 8.168 54.424 8.831 57.957 9.494 C62.18 10.285 66.403 11.08 70.625 11.875 C71.827 12.101 71.827 12.101 73.054 12.332 C75.32 12.759 77.586 13.188 79.852 13.617 C81.139 13.861 82.426 14.104 83.752 14.355 C86.195 14.84 88.595 15.36 91 16 C91.864 18.98 92.114 21.597 92.082 24.695 C92.075 25.634 92.068 26.574 92.061 27.542 C92.048 28.565 92.035 29.589 92.022 30.644 C92.012 31.727 92.003 32.81 91.993 33.926 C91.96 37.508 91.919 41.09 91.879 44.672 C91.855 47.155 91.831 49.638 91.807 52.121 C91.751 57.989 91.69 63.857 91.627 69.726 C91.548 77.063 91.476 84.401 91.404 91.738 C91.275 104.826 91.14 117.913 91 131 C84.854 131.115 79.076 130.757 73.008 129.823 C72.16 129.697 71.311 129.572 70.437 129.443 C67.666 129.032 64.895 128.612 62.125 128.191 C60.19 127.902 58.254 127.613 56.319 127.324 C52.281 126.721 48.243 126.112 44.206 125.501 C39.02 124.715 33.833 123.94 28.646 123.167 C24.658 122.572 20.671 121.974 16.684 121.373 C14.771 121.085 12.857 120.799 10.943 120.513 C8.28 120.115 5.619 119.712 2.957 119.307 C1.763 119.13 1.763 119.13 0.546 118.949 C-4.886 118.114 -4.886 118.114 -6 117 C-6.036 114.792 -5.998 112.582 -5.932 110.374 C-5.902 109.335 -5.902 109.335 -5.873 108.274 C-5.806 105.96 -5.731 103.646 -5.656 101.332 C-5.607 99.703 -5.558 98.074 -5.509 96.445 C-5.008 80.119 -4.375 63.799 -3.698 47.48 C-3.529 43.408 -3.366 39.336 -3.204 35.264 C-3.076 32.066 -2.945 28.869 -2.812 25.672 C-2.751 24.167 -2.69 22.663 -2.631 21.159 C-2.548 19.081 -2.461 17.003 -2.373 14.925 C-2.325 13.752 -2.277 12.579 -2.227 11.371 C-1.566 1.566 -1.566 1.566 0 0 Z M11 10 C9.543 12.914 9.773 15.871 9.703 19.07 C9.683 19.799 9.664 20.528 9.643 21.279 C9.579 23.704 9.522 26.129 9.465 28.555 C9.422 30.253 9.378 31.951 9.335 33.649 C9.243 37.225 9.156 40.801 9.07 44.377 C8.962 48.902 8.847 53.427 8.73 57.951 C8.64 61.471 8.552 64.99 8.465 68.51 C8.424 70.174 8.382 71.838 8.34 73.501 C8.032 85.67 7.954 97.828 8 110 C16.823 111.552 25.647 113.099 34.471 114.642 C38.57 115.359 42.668 116.077 46.766 116.798 C50.727 117.495 54.688 118.188 58.651 118.879 C60.155 119.142 61.66 119.406 63.164 119.672 C65.286 120.046 67.408 120.416 69.531 120.785 C70.734 120.996 71.938 121.207 73.178 121.424 C77.773 122.116 82.373 122.577 87 123 C87.154 110.439 87.302 97.878 87.443 85.317 C87.509 79.485 87.576 73.652 87.648 67.82 C87.718 62.192 87.782 56.564 87.843 50.936 C87.867 48.788 87.893 46.64 87.921 44.493 C87.959 41.486 87.991 38.479 88.022 35.472 C88.035 34.583 88.048 33.694 88.061 32.778 C88.096 28.709 88.037 24.97 87 21 C74.31 18.233 61.503 16.287 48.664 14.356 C45.045 13.81 41.428 13.254 37.811 12.697 C35.49 12.346 33.169 11.995 30.848 11.645 C29.777 11.479 28.706 11.313 27.602 11.143 C21.997 10.309 16.667 9.821 11 10 Z " fill="#000000" transform="translate(394,339)"/>
<path d="M0 0 C0.99 0 1.98 0 3 0 C3.237 8.682 2.929 17.17 2.062 25.812 C1.976 26.69 1.889 27.568 1.799 28.472 C1.134 34.732 1.134 34.732 0 37 C-0.66 37 -1.32 37 -2 37 C-2.284 4.568 -2.284 4.568 0 0 Z " fill="#000000" transform="translate(410,353)"/>
<path d="M0 0 C0.99 0.33 1.98 0.66 3 1 C3 1.99 3 2.98 3 4 C2.01 4.33 1.02 4.66 0 5 C-0.66 4.01 -1.32 3.02 -2 2 C-1.34 1.34 -0.68 0.68 0 0 Z " fill="#000000" transform="translate(268,357)"/>
<path d="M0 0 C6.266 2.238 8.889 6.407 12 12 C14.167 18.502 14.191 26.487 11.125 32.688 C9 36 9 36 7 38 C5.68 38 4.36 38 3 38 C3.477 35.018 4.331 33.509 6.062 30.938 C8.857 26.167 8.764 21.37 8 16 C6.317 10.6 3.754 7.169 -1 4 C-0.67 2.68 -0.34 1.36 0 0 Z " fill="#000000" transform="translate(274,360)"/>
<path d="M0 0 C3.878 1.433 4.796 2.646 6.875 6.25 C8.148 10.495 8.256 12.76 7 17 C4.39 20.43 2.893 21.781 -1.312 22.812 C-2.199 22.874 -3.086 22.936 -4 23 C-4 23.66 -4 24.32 -4 25 C-3.237 25.206 -2.474 25.413 -1.688 25.625 C1.986 27.505 2.704 29.111 4 33 C4.212 37.341 3.469 40.266 1.125 43.938 C-2.116 47.083 -5.407 47.472 -9.863 47.406 C-13.917 46.635 -16.543 44.215 -19 41 C-20.403 36.712 -20.17 34.566 -18.875 30.25 C-16.461 26.066 -14.242 24.667 -9.688 23.312 C-9.131 23.209 -8.574 23.106 -8 23 C-8.763 22.629 -9.526 22.257 -10.312 21.875 C-13.677 19.528 -14.682 17.88 -16 14 C-16.214 9.625 -15.481 6.73 -13.062 3.062 C-9.168 -0.832 -5.257 -0.483 0 0 Z M-10.5 5.625 C-12.467 8.74 -12.592 10.372 -12 14 C-10.659 17.01 -10.659 17.01 -8 19 C-4.483 19.75 -1.252 19.727 1.938 17.875 C3.468 15.173 3.876 13.106 4 10 C2.862 7.673 1.832 5.832 0 4 C-5.58 3.444 -5.58 3.444 -10.5 5.625 Z M-14 30.062 C-16.34 32.907 -16.34 32.907 -16 36.625 C-14.992 40.636 -14.992 40.636 -12 43 C-8.904 43.393 -6.957 43.623 -4 43 C-1.254 41.088 -1.254 41.088 0 38 C-0.06 34.507 -0.363 32.096 -2.125 29.062 C-6.475 26.598 -10.038 27.339 -14 30.062 Z " fill="#000000" transform="translate(464,371)"/>
<path d="M0 0 C0.99 0 1.98 0 3 0 C3 2.31 3 4.62 3 7 C2.01 7 1.02 7 0 7 C-0.381 5.009 -0.713 3.007 -1 1 C-0.67 0.67 -0.34 0.34 0 0 Z " fill="#000000" transform="translate(504,371)"/>
<path d="M0 0 C2.625 0.375 2.625 0.375 5 1 C6.125 4.75 6.125 4.75 5 7 C3.02 7 1.04 7 -1 7 C-1.625 4.625 -1.625 4.625 -2 2 C-1.34 1.34 -0.68 0.68 0 0 Z " fill="#000000" transform="translate(458,379)"/>
<path d="M0 0 C0.66 0 1.32 0 2 0 C2 25.74 2 51.48 2 78 C-1 76 -1 76 -1.678 74.29 C-2.099 71.297 -2.136 68.39 -2.145 65.367 C-2.149 64.71 -2.152 64.052 -2.155 63.375 C-2.165 61.208 -2.167 59.042 -2.168 56.875 C-2.171 55.366 -2.175 53.856 -2.178 52.347 C-2.184 49.187 -2.186 46.026 -2.185 42.865 C-2.185 38.817 -2.199 34.768 -2.216 30.72 C-2.227 27.604 -2.229 24.488 -2.229 21.372 C-2.23 19.879 -2.234 18.387 -2.242 16.894 C-2.252 14.807 -2.249 12.72 -2.243 10.633 C-2.244 9.446 -2.246 8.259 -2.247 7.036 C-2.01 4.119 -1.527 2.458 0 0 Z " fill="#000000" transform="translate(505,385)"/>
<path d="M0 0 C1.65 0.33 3.3 0.66 5 1 C5.382 2.656 5.714 4.325 6 6 C5 7 5 7 1.938 7.062 C0.968 7.042 -0.001 7.021 -1 7 C-1.625 5.188 -1.625 5.188 -2 3 C-1.34 2.01 -0.68 1.02 0 0 Z " fill="#000000" transform="translate(454,403)"/>
<path d="M0 0 C1.98 0.495 1.98 0.495 4 1 C3.67 9.91 3.34 18.82 3 28 C5.537 28.433 8.074 28.866 10.688 29.312 C18.195 30.616 25.597 32.185 33 34 C33 35.32 33 36.64 33 38 C28.64 37.309 24.28 36.616 19.92 35.919 C18.437 35.682 16.954 35.446 15.471 35.212 C13.338 34.874 11.206 34.533 9.074 34.191 C7.791 33.987 6.508 33.783 5.186 33.573 C2 33 2 33 -1 32 C-1.029 28.542 -1.047 25.083 -1.062 21.625 C-1.071 20.659 -1.079 19.694 -1.088 18.699 C-1.109 12.402 -0.761 6.252 0 0 Z " fill="#000000" transform="translate(406,413)"/>
<path d="M0 0 C1.32 0.33 2.64 0.66 4 1 C3.486 11.189 1.905 20.994 0 31 C-0.99 30.67 -1.98 30.34 -3 30 C-2.501 19.889 -1.61 10.005 0 0 Z " fill="#000000" transform="translate(470,415)"/>
<path d="M0 0 C0.99 0.495 0.99 0.495 2 1 C2.393 10.999 0.921 20.735 -0.375 30.625 C-0.6 32.371 -0.824 34.117 -1.047 35.863 C-1.486 39.286 -1.926 42.708 -2.369 46.13 C-2.528 47.354 -2.528 47.354 -2.689 48.603 C-2.892 50.164 -3.095 51.726 -3.298 53.287 C-6.301 76.376 -6.463 98.478 -2.367 121.477 C-1.997 124.022 -1.935 126.432 -2 129 C-1.34 129 -0.68 129 0 129 C0.258 128.145 0.516 127.291 0.781 126.41 C7.219 108.396 22.89 89.668 37 77 C37.99 77 38.98 77 40 77 C39.409 83.324 38.366 89.304 36.848 95.465 C36.524 96.808 36.524 96.808 36.193 98.178 C35.729 100.101 35.262 102.023 34.793 103.944 C34.053 106.976 33.32 110.009 32.589 113.042 C31.574 117.248 30.557 121.454 29.537 125.659 C27.339 134.722 25.151 143.788 22.977 152.857 C22.321 155.588 21.66 158.317 20.998 161.047 C20.599 162.711 20.2 164.375 19.801 166.039 C19.617 166.791 19.433 167.543 19.244 168.318 C18.444 171.679 18 174.519 18 178 C18.71 178.393 19.42 178.785 20.152 179.19 C23.416 180.998 26.677 182.811 29.938 184.625 C31.054 185.242 32.171 185.86 33.322 186.496 C38.334 189.289 43.331 192.107 48.199 195.145 C48.895 195.576 49.591 196.008 50.307 196.452 C54.092 199.913 54.296 205.165 55 210 C55.276 211.594 55.553 213.188 55.832 214.781 C57.797 226.589 58.369 238.047 58 250 C58.883 249.847 59.766 249.693 60.676 249.535 C69.354 248.407 74.01 249.224 81.086 254.434 C81.718 254.951 82.349 255.467 83 256 C82.67 256.99 82.34 257.98 82 259 C78.929 258.072 76.33 257.223 73.66 255.418 C68.506 252.67 62.619 254.351 57 255 C56.086 255.096 55.172 255.192 54.23 255.291 C51.193 255.612 48.159 255.958 45.125 256.312 C43.663 256.47 43.663 256.47 42.172 256.631 C34.529 257.588 28.547 259.044 23.393 265.025 C19.498 268.988 15.38 269.29 10.031 269.871 C9.054 269.999 8.078 270.127 7.071 270.259 C4.973 270.531 2.874 270.793 0.774 271.045 C-4.769 271.71 -10.299 272.459 -15.832 273.199 C-16.946 273.346 -18.059 273.493 -19.207 273.644 C-29.595 275.033 -39.891 276.803 -50.188 278.75 C-50.95 278.893 -51.713 279.036 -52.499 279.183 C-59.834 280.558 -67.14 282.02 -74.426 283.641 C-86.086 286.143 -97.743 286.329 -109.625 286.625 C-110.496 286.647 -111.367 286.67 -112.264 286.693 C-124.668 287.001 -137.036 287.026 -149.438 286.625 C-150.129 286.604 -150.82 286.582 -151.532 286.56 C-162.804 286.196 -162.804 286.196 -164 285 C-163.799 275.368 -156.816 268.175 -150.539 261.426 C-139.516 250.895 -126.73 247.243 -112 245 C-109.954 236.474 -112.953 229.051 -115.685 220.976 C-122.15 201.773 -122.867 179.062 -115.178 159.957 C-113.698 156.985 -112.379 155.214 -109.477 153.574 C-104.426 152.74 -99.485 152.752 -94.375 152.812 C-93.358 152.813 -92.341 152.814 -91.293 152.814 C-84.156 152.855 -77.103 153.312 -70 154 C-70.016 153.131 -70.031 152.263 -70.048 151.367 C-70.426 127.116 -69.89 103.469 -63 80 C-59 80 -59 80 -56.562 82.375 C-41.908 101.66 -38 134.499 -38 158 C-36.68 157.67 -35.36 157.34 -34 157 C-34.061 156.461 -34.121 155.923 -34.184 155.368 C-39.061 110.177 -41.207 49.639 -12.683 11.227 C-5.081 1.809 -5.081 1.809 0 0 Z M-9 13 C-28.604 42.873 -32.225 79.451 -32.188 114.375 C-32.188 115.159 -32.188 115.943 -32.189 116.751 C-32.443 138.574 -32.443 138.574 -29 160 C-26.69 160.33 -24.38 160.66 -22 161 C-22.133 159.837 -22.266 158.675 -22.402 157.477 C-27.562 111.212 -27.388 60.73 -8.785 17.266 C-8.526 16.518 -8.267 15.77 -8 15 C-8.33 14.34 -8.66 13.68 -9 13 Z M-4 14 C-12.4 31.188 -16.488 50.121 -19 69 C-19.146 70.095 -19.146 70.095 -19.296 71.212 C-20.797 82.774 -21.597 94.351 -22 106 C-22.064 107.738 -22.064 107.738 -22.129 109.512 C-22.281 118.261 -21.698 126.961 -21.125 135.688 C-21.047 136.911 -20.968 138.135 -20.887 139.396 C-20.478 145.207 -19.963 150.996 -19.18 156.77 C-18.986 158.212 -18.986 158.212 -18.789 159.683 C-18.209 162.116 -18.209 162.116 -16.176 163.327 C-13.743 164.197 -13.743 164.197 -10 164 C-9.178 160.69 -8.369 157.376 -7.562 154.062 C-7.332 153.136 -7.102 152.21 -6.865 151.256 C-4.512 141.537 -3.604 133.992 -5.812 124.188 C-12.185 93.385 -9.189 64.147 -4.677 33.351 C-4.567 32.588 -4.457 31.826 -4.344 31.041 C-4.137 29.608 -3.927 28.176 -3.711 26.745 C-3.097 22.464 -2.908 18.322 -3 14 C-3.33 14 -3.66 14 -4 14 Z M-60 87 C-59.07 100.134 -58.132 113.268 -57.187 126.4 C-57.016 128.775 -56.847 131.15 -56.678 133.525 C-56.416 137.205 -56.146 140.884 -55.875 144.562 C-55.8 145.63 -55.725 146.697 -55.647 147.796 C-55.539 149.229 -55.539 149.229 -55.43 150.691 C-55.341 151.916 -55.341 151.916 -55.25 153.166 C-55.186 155.015 -55.186 155.015 -54 156 C-52.151 156.234 -50.295 156.413 -48.438 156.562 C-46.625 156.708 -44.812 156.854 -43 157 C-42.847 149.605 -43.203 142.455 -44.188 135.125 C-44.319 134.14 -44.451 133.155 -44.586 132.139 C-46.734 116.977 -49.343 99.985 -58 87 C-58.66 87 -59.32 87 -60 87 Z M29 91 C12.166 111.285 -7.469 139.096 -6 167 C-3.69 167.66 -1.38 168.32 1 169 C1.19 168.222 1.38 167.444 1.576 166.643 C7.425 142.992 14.783 120.779 26.685 99.369 C27.133 98.558 27.581 97.746 28.043 96.91 C28.647 95.845 28.647 95.845 29.262 94.758 C29.506 94.178 29.749 93.598 30 93 C29.505 92.01 29.505 92.01 29 91 Z M-62 95 C-62.485 97.603 -62.963 100.207 -63.438 102.812 C-63.572 103.531 -63.707 104.25 -63.846 104.99 C-65.903 116.379 -66.133 127.652 -66.062 139.188 C-66.057 140.631 -66.053 142.074 -66.049 143.518 C-66.038 147.012 -66.021 150.506 -66 154 C-63.291 155.354 -60.991 155.065 -58 155 C-58.243 124.9 -58.243 124.9 -61 95 C-61.33 95 -61.66 95 -62 95 Z M30 99 C17.308 121.012 7.723 145.774 4 171 C5.093 171.66 6.186 172.32 7.312 173 C8.235 173.557 8.235 173.557 9.176 174.125 C11.114 175.216 11.114 175.216 14 175 C16.074 166.273 18.143 157.545 20.207 148.816 C21.165 144.762 22.125 140.709 23.089 136.656 C24.02 132.741 24.946 128.824 25.87 124.907 C26.222 123.418 26.576 121.928 26.931 120.439 C29.481 109.812 29.481 109.812 31 99 C30.67 99 30.34 99 30 99 Z M-114 175 C-115.952 176.952 -115.275 180.475 -115.312 183.125 C-115.35 184.427 -115.387 185.729 -115.426 187.07 C-114.865 199.746 -109.23 212.63 -104.977 224.479 C-104.288 226.408 -103.617 228.344 -102.949 230.281 C-102.55 231.406 -102.152 232.531 -101.741 233.689 C-100.692 238.375 -101.005 242.069 -103.215 246.358 C-105.596 248.549 -107.372 248.793 -110.559 249.273 C-111.662 249.456 -112.766 249.638 -113.903 249.825 C-115.069 250.007 -116.236 250.188 -117.438 250.375 C-126.861 251.987 -134.931 253.639 -143 259 C-139.445 260.185 -138.314 259.722 -134.75 258.75 C-127.314 256.906 -119.835 256.004 -112.224 255.179 C-105.717 254.419 -99.235 253.549 -93.938 249.375 C-91.567 243.368 -94.411 235.875 -96.375 230 C-96.625 229.225 -96.876 228.451 -97.134 227.652 C-98.73 222.747 -100.383 217.86 -102.041 212.975 C-103.031 210.051 -104.018 207.126 -105.004 204.201 C-105.735 202.044 -106.475 199.891 -107.216 197.738 C-109.77 190.241 -111.92 182.875 -113 175 C-113.33 175 -113.66 175 -114 175 Z M38 195 C37.01 195.495 37.01 195.495 36 196 C37.186 199.559 37.753 199.614 40.938 201.25 C44.084 203.09 45.53 204.257 46.5 207.812 C46.665 208.864 46.83 209.916 47 211 C47.99 211 48.98 211 50 211 C49.913 209.561 49.804 208.124 49.688 206.688 C49.629 205.887 49.571 205.086 49.512 204.262 C48.897 201.546 48.168 200.707 46 199 C44.039 197.767 44.039 197.767 41.938 196.75 C41.245 196.394 40.553 196.038 39.84 195.672 C39.233 195.45 38.626 195.228 38 195 Z " fill="#000000" transform="translate(694,414)"/>
<path d="M0 0 C0.99 0 1.98 0 3 0 C3.283 7.25 2.51 13.91 1 21 C-0.32 20.67 -1.64 20.34 -3 20 C-2.692 17.041 -2.379 14.083 -2.062 11.125 C-1.975 10.283 -1.888 9.441 -1.799 8.574 C-1.712 7.769 -1.625 6.963 -1.535 6.133 C-1.457 5.389 -1.378 4.646 -1.297 3.879 C-1 2 -1 2 0 0 Z " fill="#000000" transform="translate(463,423)"/>
<path d="M0 0 C9.532 -0.374 9.532 -0.374 14 2 C14.33 2.33 14.66 2.66 15 3 C14.962 5.106 14.844 7.212 14.688 9.312 C14.609 10.464 14.53 11.615 14.449 12.801 C14.042 15.702 13.499 17.523 12 20 C11.34 20 10.68 20 10 20 C10 15.05 10 10.1 10 5 C7.69 4.67 5.38 4.34 3 4 C2.939 4.843 2.879 5.686 2.816 6.555 C2.733 7.65 2.649 8.746 2.562 9.875 C2.481 10.966 2.4 12.056 2.316 13.18 C2 16 2 16 1 18 C0.01 18 -0.98 18 -2 18 C-2.202 11.64 -1.628 6.148 0 0 Z " fill="#000000" transform="translate(444,424)"/>
<path d="M0 0 C1.32 0.33 2.64 0.66 4 1 C3.67 3.64 3.34 6.28 3 9 C2.01 9 1.02 9 0 9 C0 6.03 0 3.06 0 0 Z " fill="#000000" transform="translate(436,432)"/>
<path d="M0 0 C3.572 3.887 4.951 7.659 5.5 12.875 C4.938 18.03 3.084 21.919 -0.875 25.312 C-0.077 25.782 0.721 26.251 1.543 26.734 C5.198 30.384 5.114 33.569 5.438 38.562 C5.51 39.403 5.583 40.243 5.658 41.109 C5.834 43.175 5.982 45.244 6.125 47.312 C7.123 47.281 7.123 47.281 8.141 47.25 C15.64 47.052 24.358 46.878 30.125 52.312 C30.875 56 30.875 56 31.125 59.312 C31.726 59.42 32.326 59.527 32.945 59.638 C39.322 60.838 45.414 62.51 51.586 64.5 C52.539 64.803 53.492 65.106 54.474 65.419 C56.47 66.055 58.464 66.694 60.458 67.335 C63.511 68.316 66.566 69.287 69.621 70.258 C71.568 70.88 73.515 71.502 75.461 72.125 C76.371 72.415 77.282 72.704 78.22 73.003 C79.492 73.413 79.492 73.413 80.791 73.832 C81.533 74.07 82.276 74.309 83.041 74.554 C85.165 75.327 87.125 76.263 89.125 77.312 C88.742 85.412 87.964 93.414 86.812 101.438 C86.707 102.255 86.602 103.072 86.493 103.913 C85.952 107.475 85.478 109.811 83.379 112.789 C79.352 115.511 74.837 115.639 70.125 116.312 C72 123.415 74.061 130.445 76.231 137.463 C87.18 172.888 96.854 208.651 105.812 244.625 C105.986 245.323 106.16 246.022 106.339 246.741 C107.506 251.426 108.666 256.113 109.824 260.801 C110.114 261.975 110.404 263.149 110.703 264.359 C112.103 270.056 113.482 275.759 114.831 281.469 C115.204 283.044 115.204 283.044 115.585 284.651 C116.125 287.312 116.125 287.312 116.125 290.312 C113.672 291.539 112.074 291.427 109.336 291.41 C108.395 291.407 107.454 291.404 106.484 291.4 C105.5 291.392 104.515 291.384 103.5 291.375 C102.507 291.37 101.515 291.366 100.492 291.361 C98.036 291.35 95.581 291.333 93.125 291.312 C88.697 281.143 84.966 270.757 81.25 260.312 C80.627 258.567 80.004 256.822 79.38 255.077 C77.886 250.892 76.397 246.706 74.909 242.519 C74.206 240.541 73.502 238.564 72.797 236.587 C71.777 233.726 70.762 230.864 69.75 228 C69.47 227.214 69.191 226.429 68.903 225.619 C67.125 220.548 67.125 220.548 67.125 218.312 C63.825 219.303 60.525 220.293 57.125 221.312 C57.07 222.301 57.014 223.289 56.957 224.307 C56.749 228.004 56.538 231.702 56.325 235.399 C56.234 236.994 56.144 238.588 56.055 240.183 C55.926 242.486 55.793 244.79 55.66 247.094 C55.622 247.796 55.583 248.499 55.543 249.222 C55.265 253.953 54.754 258.615 54.125 263.312 C56.765 263.312 59.405 263.312 62.125 263.312 C61.795 264.303 61.465 265.293 61.125 266.312 C54.195 266.642 47.265 266.973 40.125 267.312 C38.475 253.122 36.825 238.933 35.125 224.312 C31.928 224.993 28.731 225.674 25.438 226.375 C14.068 228.764 2.664 230.963 -8.75 233.125 C-9.584 233.284 -10.418 233.442 -11.277 233.605 C-13.661 234.058 -16.045 234.508 -18.43 234.957 C-19.153 235.094 -19.876 235.232 -20.62 235.373 C-25.644 236.312 -25.644 236.312 -27.875 236.312 C-27.97 237.569 -28.066 238.826 -28.164 240.121 C-29.015 248.614 -30.71 256.986 -32.25 265.375 C-32.558 267.064 -32.865 268.754 -33.172 270.443 C-33.627 272.946 -34.082 275.449 -34.538 277.952 C-36.018 286.066 -37.451 294.188 -38.875 302.312 C-36.895 301.652 -34.915 300.993 -32.875 300.312 C-33.118 303.602 -34.04 304.467 -36.5 306.777 C-45.058 313.299 -45.058 313.299 -49.527 313.332 C-51.855 312.548 -53.777 311.583 -55.875 310.312 C-57.03 309.797 -58.185 309.281 -59.375 308.75 C-61.875 307.312 -61.875 307.312 -62.875 305.312 C-62.751 303.489 -62.545 301.671 -62.302 299.86 C-62.151 298.718 -62.001 297.575 -61.846 296.398 C-61.675 295.156 -61.504 293.913 -61.328 292.633 C-61.156 291.355 -60.984 290.076 -60.807 288.759 C-60.441 286.043 -60.071 283.328 -59.697 280.613 C-59.223 277.167 -58.761 273.72 -58.302 270.272 C-57.859 266.954 -57.406 263.637 -56.953 260.32 C-56.79 259.098 -56.628 257.876 -56.46 256.616 C-55.406 249.03 -53.896 241.701 -51.875 234.312 C-52.546 234.111 -53.217 233.91 -53.909 233.702 C-59.897 231.906 -65.886 230.109 -71.875 228.312 C-73.161 234.238 -74.442 240.165 -75.72 246.092 C-76.156 248.109 -76.592 250.125 -77.03 252.142 C-77.658 255.038 -78.283 257.935 -78.906 260.832 C-79.103 261.735 -79.3 262.638 -79.503 263.569 C-79.683 264.41 -79.863 265.25 -80.049 266.116 C-80.209 266.856 -80.369 267.595 -80.533 268.357 C-80.961 270.474 -80.961 270.474 -80.875 273.312 C-76.915 273.312 -72.955 273.312 -68.875 273.312 C-68.875 274.303 -68.875 275.293 -68.875 276.312 C-75.646 277.518 -82.429 278.564 -89.25 279.438 C-90.557 279.605 -91.864 279.773 -93.211 279.945 C-96.467 280.272 -99.606 280.383 -102.875 280.312 C-104.261 276.155 -103.242 272.642 -102.461 268.438 C-102.295 267.515 -102.13 266.592 -101.959 265.641 C-101.397 262.53 -100.824 259.421 -100.25 256.312 C-99.846 254.101 -99.443 251.89 -99.039 249.679 C-91.296 207.444 -83.354 165.196 -73.875 123.312 C-74.648 123.122 -75.42 122.932 -76.217 122.735 C-88.438 119.705 -88.438 119.705 -93.938 118.062 C-95.187 117.707 -96.436 117.351 -97.723 116.984 C-102.606 114.395 -103.393 109.765 -105.058 104.751 C-106.047 101.441 -107.034 98.131 -108.001 94.814 C-108.626 92.683 -109.268 90.556 -109.91 88.43 C-110.311 87.065 -110.711 85.701 -111.109 84.336 C-111.473 83.108 -111.836 81.88 -112.21 80.615 C-112.863 77.371 -112.804 75.45 -111.875 72.312 C-98.524 69.361 -85.069 67.159 -71.562 65.062 C-70.695 64.926 -69.828 64.79 -68.934 64.649 C-66.419 64.255 -63.903 63.868 -61.387 63.484 C-60.633 63.366 -59.88 63.247 -59.103 63.125 C-54.639 62.456 -50.389 62.201 -45.875 62.312 C-45.937 61.261 -45.999 60.209 -46.062 59.125 C-45.862 55.051 -45.401 53.448 -42.875 50.312 C-37.71 46.507 -32.835 46.181 -26.562 46.25 C-24.96 46.264 -24.96 46.264 -23.324 46.277 C-22.516 46.289 -21.708 46.301 -20.875 46.312 C-20.887 45.672 -20.898 45.031 -20.91 44.371 C-21.015 34.289 -21.015 34.289 -19.875 29.312 C-18.885 28.653 -17.895 27.993 -16.875 27.312 C-17.803 26.611 -18.731 25.91 -19.688 25.188 C-23.277 22.158 -25.467 19.143 -26.156 14.363 C-26.372 9.633 -25.548 6.323 -22.875 2.312 C-20.429 -0.288 -17.906 -2.27 -14.562 -3.625 C-9.264 -3.748 -4.574 -2.685 0 0 Z M-13.875 0.312 C-13.875 1.303 -13.875 2.293 -13.875 3.312 C-10.26 6.302 -10.26 6.302 -5.875 7.312 C-6.255 4.558 -6.682 3.492 -8.75 1.562 C-10.895 0.059 -10.895 0.059 -13.875 0.312 Z M-19.875 5.312 C-22.107 9.646 -22.133 12.616 -20.875 17.312 C-18.833 20.355 -18.833 20.355 -15.875 22.312 C-12.664 22.731 -12.664 22.731 -9.875 22.312 C-9.545 21.322 -9.215 20.332 -8.875 19.312 C-9.834 18.199 -9.834 18.199 -10.812 17.062 C-13.419 13.587 -12.955 11.549 -12.875 7.312 C-15.829 4.943 -15.829 4.943 -19.875 5.312 Z M-9.5 30.812 C-11.283 30.952 -11.283 30.952 -13.102 31.094 C-14.474 31.202 -14.474 31.202 -15.875 31.312 C-15.875 31.972 -15.875 32.632 -15.875 33.312 C-13.536 34.482 -12.101 34.446 -9.5 34.438 C-8.344 34.441 -8.344 34.441 -7.164 34.445 C-4.942 34.316 -3.009 33.926 -0.875 33.312 C-0.875 32.322 -0.875 31.332 -0.875 30.312 C-3.764 30.312 -6.621 30.587 -9.5 30.812 Z M31.125 63.312 C31.088 64.433 31.05 65.553 31.012 66.707 C30.946 68.18 30.88 69.652 30.812 71.125 C30.779 72.232 30.779 72.232 30.744 73.361 C30.476 78.753 30.476 78.753 28.941 81.199 C15.463 89.46 -4.895 90.49 -20.312 90.5 C-21.298 90.512 -22.283 90.524 -23.299 90.537 C-29.439 90.549 -34.952 89.915 -40.875 88.312 C-42.195 87.982 -43.515 87.653 -44.875 87.312 C-45.37 81.868 -45.37 81.868 -45.875 76.312 C-47.855 76.312 -49.835 76.312 -51.875 76.312 C-51.545 75.653 -51.215 74.993 -50.875 74.312 C-48.312 73.688 -48.312 73.688 -45.875 73.312 C-45.875 71.003 -45.875 68.692 -45.875 66.312 C-53.752 66.885 -61.523 67.746 -69.328 68.941 C-70.354 69.095 -71.381 69.249 -72.438 69.408 C-75.668 69.893 -78.896 70.384 -82.125 70.875 C-84.335 71.208 -86.544 71.541 -88.754 71.873 C-94.128 72.682 -99.502 73.496 -104.875 74.312 C-102.404 76.784 -100.335 77.367 -97.036 78.527 C-95.198 79.178 -95.198 79.178 -93.324 79.842 C-91.98 80.311 -90.637 80.781 -89.293 81.25 C-87.918 81.735 -86.542 82.221 -85.167 82.707 C-81.543 83.987 -77.916 85.26 -74.288 86.532 C-69.893 88.074 -65.5 89.623 -61.108 91.171 C-57.687 92.378 -54.266 93.582 -50.843 94.783 C-48.991 95.434 -48.991 95.434 -47.102 96.098 C-46.018 96.478 -44.934 96.858 -43.817 97.25 C-41.949 97.925 -40.1 98.657 -38.286 99.463 C-29.65 102.507 -17.485 98.063 -8.633 96.363 C-7.059 96.065 -5.485 95.767 -3.911 95.469 C-0.614 94.844 2.682 94.216 5.978 93.585 C10.108 92.795 14.239 92.011 18.371 91.229 C38.331 87.451 58.249 83.513 78.125 79.312 C77.332 77.195 77.332 77.195 75.482 76.585 C74.771 76.362 74.06 76.138 73.327 75.908 C72.12 75.523 72.12 75.523 70.889 75.13 C70.013 74.859 69.137 74.588 68.234 74.309 C67.338 74.025 66.441 73.742 65.517 73.45 C63.615 72.851 61.711 72.255 59.807 71.662 C56.899 70.757 53.994 69.842 51.09 68.924 C49.242 68.343 47.395 67.763 45.547 67.184 C44.679 66.911 43.811 66.638 42.917 66.357 C39.008 65.143 35.17 63.991 31.125 63.312 Z M-107.875 79.312 C-106.614 83.691 -105.351 88.07 -104.085 92.447 C-103.654 93.937 -103.225 95.427 -102.796 96.917 C-102.179 99.057 -101.561 101.197 -100.941 103.336 C-100.75 104.004 -100.558 104.671 -100.36 105.359 C-99.33 108.916 -99.33 108.916 -97.875 112.312 C-95.257 113.357 -95.257 113.357 -92.01 114.284 C-90.128 114.854 -90.128 114.854 -88.208 115.436 C-86.827 115.846 -85.447 116.255 -84.066 116.664 C-82.66 117.087 -81.254 117.51 -79.848 117.933 C-76.897 118.821 -73.946 119.703 -70.993 120.581 C-67.203 121.708 -63.416 122.845 -59.63 123.984 C-56.725 124.858 -53.819 125.729 -50.913 126.599 C-49.516 127.017 -48.12 127.436 -46.723 127.855 C-44.773 128.44 -42.821 129.02 -40.869 129.6 C-39.758 129.932 -38.646 130.263 -37.501 130.605 C-35.006 131.399 -35.006 131.399 -32.875 131.312 C-33.026 128.564 -33.241 125.85 -33.554 123.114 C-33.875 119.312 -33.875 119.312 -33.634 115.507 C-33.717 110.744 -33.945 107.185 -36.875 103.312 C-44.395 98.134 -53.69 95.826 -62.341 93.176 C-65.597 92.163 -68.827 91.075 -72.061 89.992 C-77.909 88.046 -83.778 86.174 -89.661 84.337 C-93.94 82.973 -98.184 81.514 -102.425 80.04 C-104.928 79.17 -104.928 79.17 -107.875 79.312 Z M74.612 83.271 C72.976 83.589 72.976 83.589 71.306 83.912 C70.125 84.146 68.944 84.38 67.727 84.621 C65.821 84.992 63.915 85.364 62.009 85.735 C59.287 86.267 56.566 86.803 53.844 87.338 C50.348 88.025 46.851 88.708 43.354 89.39 C41.942 89.666 40.529 89.941 39.117 90.217 C38.416 90.354 37.715 90.49 36.992 90.631 C34.857 91.048 32.721 91.466 30.586 91.883 C21.617 93.637 12.645 95.369 3.668 97.078 C2.57 97.287 1.472 97.497 0.34 97.712 C-3.806 98.501 -7.952 99.29 -12.099 100.075 C-14.893 100.604 -17.687 101.136 -20.48 101.668 C-21.296 101.822 -22.112 101.975 -22.953 102.133 C-26.005 102.716 -28.923 103.329 -31.875 104.312 C-31.468 113.67 -30.271 122.242 -27.875 131.312 C-21.311 130.767 -14.953 129.858 -8.513 128.487 C-7.637 128.304 -6.761 128.122 -5.858 127.934 C-2.995 127.338 -0.134 126.733 2.727 126.129 C4.733 125.709 6.74 125.289 8.747 124.87 C12.938 123.993 17.129 123.112 21.319 122.229 C26.676 121.1 32.033 119.978 37.391 118.857 C42.524 117.783 47.657 116.706 52.789 115.629 C53.76 115.425 54.731 115.222 55.732 115.012 C58.496 114.432 61.259 113.85 64.022 113.268 C64.828 113.099 65.635 112.93 66.466 112.756 C67.228 112.595 67.99 112.434 68.776 112.268 C69.426 112.131 70.077 111.994 70.747 111.853 C74.22 111.064 77.67 110.176 81.125 109.312 C82.445 100.403 83.765 91.493 85.125 82.312 C81.262 82.312 78.328 82.542 74.612 83.271 Z M51.726 118.933 C50.477 119.192 50.477 119.192 49.202 119.455 C46.455 120.025 43.71 120.602 40.965 121.18 C39.053 121.579 37.142 121.978 35.231 122.376 C31.228 123.212 27.226 124.051 23.224 124.893 C18.096 125.972 12.965 127.041 7.833 128.108 C3.887 128.929 -0.058 129.755 -4.003 130.583 C-5.894 130.98 -7.786 131.375 -9.678 131.768 C-12.322 132.317 -14.964 132.874 -17.606 133.433 C-18.388 133.594 -19.17 133.755 -19.975 133.921 C-25.236 134.89 -25.236 134.89 -29.875 137.312 C-30.895 139.702 -30.895 139.702 -31.385 142.6 C-31.614 143.705 -31.844 144.81 -32.08 145.949 C-32.312 147.154 -32.543 148.36 -32.781 149.602 C-33.162 151.48 -33.162 151.48 -33.55 153.397 C-34.346 157.365 -35.114 161.338 -35.875 165.312 C-36.112 166.536 -36.349 167.759 -36.593 169.019 C-38.242 177.566 -39.82 186.124 -41.375 194.688 C-41.615 196.002 -41.855 197.317 -42.095 198.631 C-46.017 220.142 -49.725 241.674 -52.875 263.312 C-52.993 264.121 -53.111 264.93 -53.232 265.763 C-54.086 271.632 -54.924 277.503 -55.75 283.375 C-55.86 284.153 -55.97 284.931 -56.083 285.732 C-56.39 287.916 -56.692 290.1 -56.992 292.285 C-57.163 293.525 -57.335 294.765 -57.511 296.043 C-57.822 298.84 -57.95 301.503 -57.875 304.312 C-54.905 305.632 -51.935 306.952 -48.875 308.312 C-47.206 302.054 -46.051 295.804 -45.035 289.41 C-44.868 288.374 -44.7 287.338 -44.527 286.271 C-43.994 282.973 -43.466 279.674 -42.938 276.375 C-42.243 272.053 -41.546 267.732 -40.848 263.41 C-40.68 262.371 -40.512 261.331 -40.34 260.26 C-38.935 251.596 -37.438 242.95 -35.875 234.312 C-17.336 230.541 1.239 226.985 19.832 223.491 C23.703 222.763 27.574 222.033 31.445 221.303 C34.483 220.729 37.521 220.158 40.559 219.586 C41.987 219.317 43.414 219.048 44.842 218.779 C53.254 217.192 61.674 215.678 70.125 214.312 C70.37 215.169 70.37 215.169 70.621 216.044 C72.721 223.222 75.165 230.253 77.688 237.293 C78.336 239.111 78.336 239.111 78.998 240.966 C79.908 243.514 80.819 246.061 81.731 248.608 C82.895 251.855 84.053 255.103 85.211 258.351 C86.326 261.478 87.444 264.604 88.562 267.73 C88.975 268.888 89.388 270.045 89.813 271.238 C91.763 276.675 93.764 282.04 96.125 287.312 C97.5 287.34 98.875 287.359 100.25 287.375 C101.399 287.392 101.399 287.392 102.57 287.41 C105.485 287.299 108.254 286.812 111.125 286.312 C108.399 272.867 105.298 259.55 101.938 246.25 C101.698 245.299 101.459 244.348 101.212 243.368 C92.04 206.908 82.342 170.621 71.062 134.75 C70.7 133.596 70.7 133.596 70.329 132.418 C68.116 124.709 68.116 124.709 65.125 117.312 C60.51 117.076 56.213 117.983 51.726 118.933 Z M-69.875 125.312 C-79.682 170.706 -79.682 170.706 -88.75 216.25 C-89 217.562 -89 217.562 -89.255 218.901 C-89.713 221.317 -90.167 223.734 -90.617 226.152 C-90.748 226.846 -90.878 227.54 -91.013 228.255 C-91.515 230.995 -91.875 233.518 -91.875 236.312 C-90.225 236.642 -88.575 236.972 -86.875 237.312 C-88.951 237.866 -90.719 238.312 -92.875 238.312 C-93.734 242.938 -94.588 247.565 -95.438 252.192 C-95.728 253.765 -96.019 255.339 -96.312 256.912 C-96.732 259.175 -97.148 261.439 -97.562 263.703 C-97.694 264.404 -97.825 265.106 -97.96 265.828 C-98.551 269.077 -98.875 271.993 -98.875 275.312 C-96.235 274.982 -93.595 274.653 -90.875 274.312 C-89.767 268.873 -88.665 263.433 -87.567 257.992 C-87.194 256.147 -86.82 254.303 -86.444 252.458 C-85.899 249.783 -85.359 247.106 -84.82 244.43 C-84.656 243.627 -84.491 242.824 -84.321 241.997 C-82.877 234.778 -81.922 227.642 -80.875 220.312 C-71.305 223.612 -61.735 226.913 -51.875 230.312 C-50.178 225.284 -50.178 225.284 -49.041 220.243 C-48.906 219.493 -48.772 218.744 -48.633 217.971 C-48.494 217.17 -48.354 216.369 -48.211 215.543 C-48.058 214.685 -47.904 213.827 -47.747 212.943 C-47.416 211.093 -47.088 209.243 -46.761 207.392 C-45.89 202.462 -45.005 197.533 -44.117 192.605 C-43.935 191.594 -43.753 190.582 -43.565 189.54 C-41.294 177.002 -38.816 164.505 -36.314 152.012 C-36.15 151.185 -35.986 150.358 -35.816 149.506 C-35.511 147.968 -35.203 146.43 -34.89 144.893 C-34.238 141.599 -33.875 138.69 -33.875 135.312 C-37.895 134.019 -41.916 132.728 -45.938 131.438 C-47.071 131.073 -48.205 130.708 -49.373 130.332 C-52.538 129.317 -55.705 128.311 -58.875 127.312 C-59.611 127.08 -60.347 126.848 -61.105 126.608 C-64.242 125.658 -66.534 125.312 -69.875 125.312 Z " fill="#000000" transform="translate(258.875,447.6875)"/>
<path d="M0 0 C1.32 0.33 2.64 0.66 4 1 C3.67 2.32 3.34 3.64 3 5 C2.01 4.67 1.02 4.34 0 4 C0 2.68 0 1.36 0 0 Z " fill="#000000" transform="translate(466,451)"/>
<path d="M0 0 C0.99 0 1.98 0 3 0 C4.125 3.75 4.125 3.75 3 6 C2.01 6 1.02 6 0 6 C-0.382 4.344 -0.714 2.675 -1 1 C-0.67 0.67 -0.34 0.34 0 0 Z " fill="#000000" transform="translate(624,451)"/>
<path d="M0 0 C0.99 0.33 1.98 0.66 3 1 C2.67 2.32 2.34 3.64 2 5 C1.01 4.67 0.02 4.34 -1 4 C-0.67 2.68 -0.34 1.36 0 0 Z " fill="#000000" transform="translate(383,516)"/>
<path d="M0 0 C-0.33 0.99 -0.66 1.98 -1 3 C-2.98 3 -4.96 3 -7 3 C-7 2.01 -7 1.02 -7 0 C-4.333 -1.333 -2.833 -0.671 0 0 Z " fill="#000000" transform="translate(211,527)"/>
<path d="M0 0 C1.65 0.33 3.3 0.66 5 1 C4.67 2.65 4.34 4.3 4 6 C2.35 5.67 0.7 5.34 -1 5 C-0.67 3.35 -0.34 1.7 0 0 Z " fill="#000000" transform="translate(374,537)"/>
<path d="M0 0 C-0.33 1.65 -0.66 3.3 -1 5 C-2.65 4.67 -4.3 4.34 -6 4 C-6 2.68 -6 1.36 -6 0 C-3.509 -1.245 -2.589 -0.777 0 0 Z " fill="#000000" transform="translate(369,560)"/>
<path d="M0 0 C6.875 0.875 6.875 0.875 8 2 C7.688 5.5 7.688 5.5 7 9 C4.291 10.354 1.991 10.065 -1 10 C-0.67 6.7 -0.34 3.4 0 0 Z " fill="#000000" transform="translate(373,577)"/>
<path d="M0 0 C1.32 0 2.64 0 4 0 C3.67 1.65 3.34 3.3 3 5 C2.01 4.67 1.02 4.34 0 4 C0 2.68 0 1.36 0 0 Z " fill="#000000" transform="translate(552,590)"/>
<path d="M0 0 C2.866 1.994 4.671 3.46 5.422 6.973 C5.617 8.982 5.809 10.991 6 13 C6.536 13.681 7.072 14.361 7.625 15.062 C9 17 9 17 9 20.5 C7.809 24.667 6.736 25.877 3 28 C0.188 28.25 0.188 28.25 -2 28 C-2.103 28.928 -2.206 29.856 -2.312 30.812 C-3.035 34.164 -3.373 34.979 -6 37 C-10.545 37.961 -14.325 37.284 -18.562 35.5 C-21 33 -21 33 -21.293 31.094 C-21.264 29.687 -21.19 28.281 -21.074 26.879 C-20.841 24.892 -20.841 24.892 -22.062 22.938 C-23.621 19.716 -22.889 17.378 -22 14 C-19.688 11.062 -19.688 11.062 -17 9 C-15.68 9 -14.36 9 -13 9 C-12.938 8.258 -12.876 7.515 -12.812 6.75 C-10.944 0.427 -6.093 -0.979 0 0 Z M-10 7 C-10.803 10.145 -10.803 10.145 -11 13 C-13.31 13 -15.62 13 -18 13 C-19.194 16.343 -19.194 16.343 -20 20 C-19.34 20.99 -18.68 21.98 -18 23 C-17.01 23 -16.02 23 -15 23 C-15.99 25.64 -16.98 28.28 -18 31 C-15.288 33.603 -14.109 33.995 -10.25 34.188 C-8.641 34.095 -8.641 34.095 -7 34 C-6.494 32.732 -5.995 31.46 -5.5 30.188 C-5.222 29.48 -4.943 28.772 -4.656 28.043 C-3.847 25.882 -3.847 25.882 -4 23 C-3.01 23.66 -2.02 24.32 -1 25 C1.646 24.688 1.646 24.688 4 24 C5.288 21.222 5.288 21.222 6 18 C4.892 15.577 4.892 15.577 3 14 C2.34 14 1.68 14 1 14 C1.227 12.742 1.454 11.484 1.688 10.188 C2.13 6.946 2.13 6.946 0.875 4 C-3.873 1.468 -6.939 2.845 -10 7 Z " fill="#000000" transform="translate(207,597)"/>
<path d="M0 0 C3.579 3.405 6.609 7.33 7.336 12.297 C7.459 19.999 5.63 24.872 0.688 30.75 C-7.551 37.648 -16.318 40.261 -27 40 C-32.751 38.892 -36.806 36.763 -40.5 32.188 C-44.407 26.178 -45.585 20.637 -44.668 13.562 C-43.131 7.666 -39.662 3.351 -35 -0.438 C-24.29 -6.016 -10.232 -7.372 0 0 Z M-38 9 C-41.416 12.773 -41.514 15.611 -41.348 20.531 C-40.647 25.506 -38.018 28.104 -34.375 31.312 C-28.246 34.377 -22.427 34.629 -15.812 32.938 C-9.595 30.787 -5.574 27.411 -2 21.938 C-0.914 18.747 -0.975 17.169 -2 14 C-5.354 17.233 -5.354 17.233 -8.352 20.785 C-12.134 25.762 -15.777 28.019 -22 29 C-26.506 29.04 -31.093 28.298 -35 26 C-36.984 22.15 -37.219 18.978 -37.125 14.688 C-37.098 13.085 -37.098 13.085 -37.07 11.449 C-37.036 10.237 -37.036 10.237 -37 9 C-37.33 9 -37.66 9 -38 9 Z " fill="#000000" transform="translate(296,602)"/>
<path d="M0 0 C0.99 0.33 1.98 0.66 3 1 C2.625 3.438 2.625 3.438 2 6 C1.01 6.495 1.01 6.495 0 7 C-0.99 6.34 -1.98 5.68 -3 5 C-2.625 3.062 -2.625 3.062 -2 1 C-1.34 0.67 -0.68 0.34 0 0 Z " fill="#000000" transform="translate(359,603)"/>
<path d="M0 0 C1.65 0 3.3 0 5 0 C5 0.99 5 1.98 5 3 C3.35 3 1.7 3 0 3 C0 2.01 0 1.02 0 0 Z " fill="#000000" transform="translate(335,655)"/>
<path d="M0 0 C2.475 0.495 2.475 0.495 5 1 C4.67 1.99 4.34 2.98 4 4 C2.68 4 1.36 4 0 4 C0 2.68 0 1.36 0 0 Z " fill="#000000" transform="translate(341,669)"/>
<path d="M0 0 C1.938 0.312 1.938 0.312 4 1 C4.33 1.99 4.66 2.98 5 4 C3.35 3.67 1.7 3.34 0 3 C0 2.01 0 1.02 0 0 Z " fill="#000000" transform="translate(217,670)"/>
<path d="M0 0 C1.65 0.33 3.3 0.66 5 1 C5 1.99 5 2.98 5 4 C3.35 3.67 1.7 3.34 0 3 C0 2.01 0 1.02 0 0 Z " fill="#000000" transform="translate(214,686)"/>
<path d="M0 0 C1.65 0.33 3.3 0.66 5 1 C5 1.66 5 2.32 5 3 C1.25 4.125 1.25 4.125 -1 3 C-0.67 2.01 -0.34 1.02 0 0 Z " fill="#000000" transform="translate(348,686)"/>
<path d="M0 0 C3.265 1.804 4.889 2.834 7 6 C6.625 8.188 6.625 8.188 6 10 C2.743 9.439 1.044 8.628 -1 6 C-1.812 3.938 -1.812 3.938 -2 2 C-1.34 1.34 -0.68 0.68 0 0 Z " fill="#000000" transform="translate(101,690)"/>
<path d="M0 0 C-0.5 1.875 -0.5 1.875 -2 4 C-6.166 5.704 -10.518 6.28 -15 6 C-15 3 -15 3 -13 1 C-10.977 0.332 -10.977 0.332 -8.625 -0.188 C-7.854 -0.367 -7.083 -0.546 -6.289 -0.73 C-3.889 -1.013 -2.283 -0.735 0 0 Z " fill="#000000" transform="translate(515,696)"/>
<path d="M0 0 C1.65 0 3.3 0 5 0 C5.33 1.32 5.66 2.64 6 4 C4.35 3.67 2.7 3.34 1 3 C0.67 2.01 0.34 1.02 0 0 Z " fill="#000000" transform="translate(211,697)"/>
<path d="M0 0 C1.65 0 3.3 0 5 0 C5 1.32 5 2.64 5 4 C3.35 4 1.7 4 0 4 C0 2.68 0 1.36 0 0 Z " fill="#000000" transform="translate(350,697)"/>
<path d="M0 0 C1.98 0.495 1.98 0.495 4 1 C3.67 2.32 3.34 3.64 3 5 C1.68 4.67 0.36 4.34 -1 4 C-0.67 2.68 -0.34 1.36 0 0 Z " fill="#000000" transform="translate(451,697)"/>
<path d="M0 0 C1.666 -0.043 3.334 -0.041 5 0 C6 1 6 1 6.062 3.562 C6.042 4.367 6.021 5.171 6 6 C4.35 6.66 2.7 7.32 1 8 C0.01 7.01 -0.98 6.02 -2 5 C-1.34 3.35 -0.68 1.7 0 0 Z " fill="#000000" transform="translate(74,698)"/>
<path d="M0 0 C2.87 1.794 4.491 2.983 6 6 C6.229 8.037 6.41 10.08 6.562 12.125 C6.688 13.769 6.688 13.769 6.816 15.445 C6.877 16.288 6.938 17.131 7 18 C8.98 18.33 10.96 18.66 13 19 C12.67 19.99 12.34 20.98 12 22 C7.896 22.058 3.792 22.094 -0.312 22.125 C-1.48 22.142 -2.647 22.159 -3.85 22.176 C-5.527 22.185 -5.527 22.185 -7.238 22.195 C-8.786 22.211 -8.786 22.211 -10.365 22.227 C-13 22 -13 22 -16 20 C-17.228 14.047 -15.981 8.853 -13.168 3.594 C-9.807 -0.992 -5.138 -0.757 0 0 Z M-8.625 3.375 C-11.984 7.088 -14 11.915 -14 17 C-10.735 16.223 -10.735 16.223 -8.75 13.062 C-5.94 9.479 -3.395 8.862 1 8 C0.375 5.476 0.375 5.476 -1 3 C-4.246 1.509 -5.463 1.719 -8.625 3.375 Z " fill="#000000" transform="translate(723,702)"/>
<path d="M0 0 C2.062 0.438 2.062 0.438 4 1 C3.67 2.65 3.34 4.3 3 6 C1.35 5.67 -0.3 5.34 -2 5 C-1.125 1.125 -1.125 1.125 0 0 Z " fill="#000000" transform="translate(434,708)"/>
<path d="M0 0 C1.65 0.33 3.3 0.66 5 1 C5 2.32 5 3.64 5 5 C3.02 4.34 1.04 3.68 -1 3 C-0.67 2.01 -0.34 1.02 0 0 Z " fill="#000000" transform="translate(210,710)"/>
<path d="M0 0 C-0.33 0.99 -0.66 1.98 -1 3 C-2.65 3 -4.3 3 -6 3 C-6 2.01 -6 1.02 -6 0 C-3.509 -1.245 -2.589 -0.777 0 0 Z " fill="#000000" transform="translate(360,711)"/>
<path d="M0 0 C5.304 3.565 7.488 9.737 8.938 15.723 C9.426 18.353 9.85 20.972 10.188 23.625 C10.756 23.645 11.324 23.665 11.909 23.685 C22.796 24.083 33.465 24.576 44.188 26.625 C41.009 28.49 38.675 28.882 35.008 28.891 C33.423 28.897 33.423 28.897 31.807 28.903 C30.654 28.894 29.501 28.885 28.312 28.875 C26.509 28.866 26.509 28.866 24.67 28.857 C14.523 28.751 4.387 28.404 -5.749 27.931 C-7.454 27.852 -9.16 27.777 -10.866 27.707 C-13.276 27.604 -15.685 27.483 -18.094 27.355 C-18.816 27.327 -19.537 27.299 -20.281 27.27 C-24.305 27.031 -26.997 26.631 -29.812 23.625 C-30.764 16.827 -28.631 10.414 -24.938 4.75 C-18.575 -1.612 -8.385 -3.917 0 0 Z M-22.168 8.168 C-24.897 12.473 -25.46 16.597 -25.812 21.625 C-23.489 19.482 -22.021 17.384 -20.5 14.625 C-18.132 10.798 -16.263 8.934 -11.812 7.625 C-8.882 7.337 -6.554 7.518 -3.812 8.625 C-1.927 10.331 -0.451 12.085 1.059 14.129 C1.431 14.623 1.804 15.116 2.188 15.625 C2.518 15.625 2.847 15.625 3.188 15.625 C2.931 11.27 2.615 9.129 -0.25 5.75 C-3.803 2.804 -5.93 2.267 -10.586 2.352 C-15.153 2.912 -19.105 4.681 -22.168 8.168 Z " fill="#000000" transform="translate(557.8125,716.375)"/>
<path d="M0 0 C0 0.99 0 1.98 0 3 C-1.98 3 -3.96 3 -6 3 C-6 2.01 -6 1.02 -6 0 C-3 -1 -3 -1 0 0 Z " fill="#000000" transform="translate(362,718)"/>
<path d="M0 0 C1.65 0 3.3 0 5 0 C4.67 1.32 4.34 2.64 4 4 C2.68 3.67 1.36 3.34 0 3 C0 2.01 0 1.02 0 0 Z " fill="#000000" transform="translate(359,725)"/>
<path d="M0 0 C0 0.99 0 1.98 0 3 C-2.709 4.354 -5.009 4.065 -8 4 C-8 3.01 -8 2.02 -8 1 C-5.291 -0.354 -2.991 -0.065 0 0 Z " fill="#000000" transform="translate(346,736)"/>
<path d="M0 0 C1.887 0.031 1.887 0.031 3.812 0.062 C3.812 1.053 3.812 2.043 3.812 3.062 C-0.309 4.692 -2.895 5.325 -7.188 4.062 C-7.188 3.072 -7.188 2.082 -7.188 1.062 C-4.437 0.146 -2.828 -0.046 0 0 Z " fill="#000000" transform="translate(514.1875,737.9375)"/>
<path d="M0 0 C2.5 2.125 2.5 2.125 4 5 C4 8.867 3.566 11.139 1.438 14.375 C-1.943 16.629 -4.945 17.33 -9 17 C-12.564 15.104 -13.7 13.882 -15 10.062 C-15 6.338 -14.335 4.88 -12 2 C-7.925 -1.396 -5.044 -1.467 0 0 Z M-7.688 4.125 C-10.293 5.791 -10.293 5.791 -10.312 8.688 C-10.209 9.451 -10.106 10.214 -10 11 C-7.525 11.99 -7.525 11.99 -5 13 C-3.35 11.35 -1.7 9.7 0 8 C-0.791 6 -0.791 6 -2 4 C-4.974 2.643 -4.974 2.643 -7.688 4.125 Z " fill="#000000" transform="translate(493,762)"/>
</svg>
