<?xml version="1.0" encoding="UTF-8"?>
<!-- Generator: visioncortex VTracer 0.6.0 -->
<svg version="1.1" xmlns="http://www.w3.org/2000/svg" width="847" height="847">
<path d="M0 0 C7.668 2.339 14.771 5.548 22 9 C20.089 17.164 17.765 25.085 15 33 C9.7 32.406 5.419 30.626 0.625 28.438 C-0.111 28.108 -0.847 27.779 -1.605 27.439 C-3.406 26.633 -5.204 25.817 -7 25 C-5.322 16.459 -2.66 8.274 0 0 Z " fill="#000000" transform="translate(265,222)"/>
<path d="M0 0 C-0.33 0.99 -0.66 1.98 -1 3 C-1.55 2.928 -2.101 2.856 -2.668 2.781 C-23.576 0.447 -51.683 -0.211 -70 12 C-72.188 11.625 -72.188 11.625 -74 11 C-73.651 8.3 -73.274 7.234 -71.172 5.438 C-55.358 -3.949 -16.256 -13.516 0 0 Z " fill="#000000" transform="translate(407,236)"/>
<path d="M0 0 C2.355 0.936 4.709 1.874 7.062 2.812 C7.719 3.074 8.376 3.335 9.053 3.604 C13.398 5.337 17.707 7.141 22 9 C18.13 25.537 18.13 25.537 15 33 C14.01 33.495 14.01 33.495 13 34 C10.937 33.287 10.937 33.287 8.43 32.129 C7.534 31.72 6.638 31.31 5.715 30.889 C4.778 30.451 3.841 30.013 2.875 29.562 C1.93 29.129 0.985 28.695 0.012 28.248 C-2.329 27.172 -4.666 26.089 -7 25 C-5.764 19.031 -4.245 13.238 -2.375 7.438 C-2.146 6.715 -1.916 5.992 -1.68 5.248 C-1.123 3.498 -0.562 1.749 0 0 Z " fill="#000000" transform="translate(643,235)"/>
<path d="M0 0 C7.002 -0.152 13.913 0.359 20.879 0.996 C21.754 1.074 22.629 1.153 23.531 1.234 C37.013 2.563 37.013 2.563 42.129 5.121 C42.129 6.441 42.129 7.761 42.129 9.121 C41.227 9.076 41.227 9.076 40.307 9.029 C11.146 7.597 -15.652 7.751 -43.981 15.347 C-48.563 16.574 -53.152 17.773 -57.742 18.97 C-60.17 19.604 -62.598 20.242 -65.024 20.886 C-66.13 21.176 -67.236 21.466 -68.375 21.766 C-69.363 22.027 -70.351 22.289 -71.369 22.558 C-73.871 23.121 -73.871 23.121 -76.871 23.121 C-75.871 20.121 -75.871 20.121 -72.355 18.324 C-70.783 17.659 -69.205 17.009 -67.621 16.371 C-66.348 15.85 -66.348 15.85 -65.048 15.319 C-43.92 6.825 -22.846 0.964 0 0 Z " fill="#000000" transform="translate(384.87109375,247.87890625)"/>
<path d="M0 0 C2.866 2.448 4.613 4.249 5.441 8 C5.643 11.427 5.062 13.874 3.562 16.938 C0.607 19.316 0.307 19.064 -3.234 18.871 C-5.696 18.987 -5.696 18.987 -8 20 C-11.007 23.674 -12.848 27.825 -14.812 32.125 C-15.902 34.378 -16.991 36.631 -18.082 38.883 C-18.582 39.943 -19.081 41.003 -19.596 42.095 C-21.244 45.505 -23.056 48.751 -25 52 C-24.28 52.127 -23.56 52.254 -22.818 52.385 C-20.044 52.99 -17.564 53.825 -14.918 54.848 C-13.521 55.384 -13.521 55.384 -12.096 55.932 C-10.656 56.491 -10.656 56.491 -9.188 57.062 C-8.208 57.44 -7.229 57.817 -6.221 58.205 C-3.812 59.133 -1.406 60.065 1 61 C1.1 60.313 1.199 59.626 1.302 58.919 C2.143 55.404 3.548 52.532 5.168 49.301 C5.485 48.666 5.803 48.031 6.129 47.376 C6.802 46.034 7.477 44.694 8.155 43.355 C9.174 41.34 10.182 39.32 11.189 37.299 C21.805 16.102 21.805 16.102 27 14 C38.07 21.569 49.061 29.243 60 37 C59.298 40.794 59.298 40.794 56.613 42.648 C55.524 43.218 54.435 43.788 53.312 44.375 C46.478 48.068 39.92 52.13 33.375 56.312 C32.415 56.923 31.455 57.534 30.466 58.164 C25.544 61.279 25.544 61.279 20.831 64.692 C19 66 19 66 17 66 C17 66.66 17 67.32 17 68 C17.925 68.264 17.925 68.264 18.869 68.533 C24.735 70.244 30.387 72.247 36.062 74.5 C45.049 77.989 54.127 81.174 63.263 84.247 C64.748 84.747 66.233 85.25 67.717 85.755 C69.819 86.47 71.925 87.174 74.031 87.875 C75.254 88.285 76.477 88.695 77.736 89.117 C81.44 90.119 84.301 90.847 87.827 89.089 C88.392 88.663 88.957 88.236 89.539 87.797 C90.52 87.076 90.52 87.076 91.521 86.342 C92.215 85.816 92.909 85.291 93.625 84.75 C100.025 80.065 106.526 75.645 113.25 71.438 C114.047 70.938 114.845 70.438 115.667 69.923 C117.139 69.004 118.616 68.09 120.096 67.183 C121.688 66.194 123.247 65.152 124.797 64.098 C127 63 127 63 128.963 63.19 C131.622 64.247 132.301 65.433 133.793 67.855 C134.305 68.669 134.817 69.483 135.345 70.322 C135.891 71.206 136.437 72.089 137 73 C138.202 74.852 139.406 76.702 140.613 78.551 C141.847 80.471 143.08 82.391 144.312 84.312 C144.945 85.288 145.577 86.263 146.229 87.268 C146.83 88.207 147.431 89.146 148.051 90.113 C148.594 90.957 149.137 91.8 149.697 92.669 C151.828 96.481 151.828 96.481 152 99 C149.964 101.977 147.67 102.581 144.246 103.316 C143.308 103.523 142.371 103.73 141.404 103.943 C140.425 104.148 139.446 104.352 138.438 104.562 C137.486 104.771 136.534 104.979 135.553 105.193 C133.644 105.608 131.733 106.014 129.82 106.411 C127.953 106.801 126.09 107.208 124.231 107.632 C123.362 107.825 122.493 108.017 121.598 108.215 C120.447 108.478 120.447 108.478 119.274 108.746 C116.645 109.04 114.554 108.634 112 108 C112.33 106.68 112.66 105.36 113 104 C122.57 101.69 132.14 99.38 142 97 C137.859 89.9 133.788 83.009 129.285 76.18 C128 74 128 74 128 72 C116.211 79.146 104.472 86.352 93 94 C93.748 94.375 94.495 94.75 95.266 95.137 C96.25 95.648 97.235 96.16 98.25 96.688 C99.225 97.186 100.199 97.685 101.203 98.199 C106.808 101.808 108.691 106.052 110.125 112.375 C110.593 114.274 110.593 114.274 111.07 116.211 C113.467 127.612 114.41 139.385 115.508 150.965 C115.639 152.337 115.771 153.709 115.903 155.08 C116.175 157.923 116.446 160.766 116.714 163.609 C117.057 167.232 117.406 170.855 117.757 174.478 C118.029 177.297 118.297 180.117 118.565 182.938 C118.753 184.916 118.945 186.895 119.137 188.873 C119.706 194.945 120.152 200.902 120 207 C121.195 206.857 121.195 206.857 122.414 206.711 C132.938 205.61 132.938 205.61 138 208 C138.174 206.942 138.174 206.942 138.352 205.862 C142.767 186.369 153.85 170.518 170.091 159.549 C172.768 157.882 174.613 156.998 177.793 157.016 C180 158 180 158 181.262 159.656 C184.548 170.089 183.352 181.167 178.59 190.875 C173.839 198.962 167.437 205.791 159 210 C158.67 210.66 158.34 211.32 158 212 C158.536 212.003 159.072 212.005 159.625 212.008 C183.679 213.195 210.212 230.82 228 246 C228.855 246.709 229.709 247.418 230.59 248.148 C236.459 253.179 240.94 258.426 245 265 C245.959 266.547 245.959 266.547 246.938 268.125 C248.435 272.177 248.55 274.672 248 279 C245.824 281.691 244.089 283.455 241 285 C234.864 285.507 230.07 284.001 224.375 282 C222.994 281.529 222.994 281.529 221.584 281.049 C216.153 279.175 210.791 277.159 205.447 275.052 C192.929 270.118 180.156 266.4 167.179 262.869 C165.069 262.292 162.963 261.704 160.86 261.104 C159.888 260.829 158.916 260.553 157.914 260.27 C156.633 259.902 156.633 259.902 155.327 259.527 C152.747 258.853 152.747 258.853 149 259 C149.822 259.981 150.645 260.962 151.492 261.973 C169.081 283.147 187.944 308.374 187.371 337.145 C187.006 339.952 186.563 341.659 185 344 C181.197 346.536 178.395 346.504 174 346 C169.78 345.08 165.682 343.853 161.562 342.562 C160.42 342.208 159.277 341.853 158.1 341.488 C134.177 333.765 134.177 333.765 129 326 C132.658 324.671 134.819 325.351 138.422 326.652 C139.447 327.017 140.471 327.381 141.527 327.756 C142.591 328.146 143.654 328.536 144.75 328.938 C145.829 329.324 146.908 329.71 148.02 330.107 C150.683 331.062 153.343 332.027 156 333 C151.187 328.593 146.375 324.232 141.25 320.188 C137.191 316.983 133.236 313.68 129.312 310.312 C128.728 309.814 128.144 309.316 127.542 308.803 C124.3 306.026 121.116 303.201 117.98 300.305 C117.316 299.701 116.651 299.097 115.966 298.475 C114.68 297.306 113.408 296.123 112.15 294.925 C108.627 291.705 108.627 291.705 104.043 290.91 C100.292 292.254 96.832 293.892 93.312 295.75 C91.9 296.475 90.488 297.199 89.074 297.922 C88.385 298.276 87.696 298.63 86.986 298.994 C75.129 305 75.129 305 72 305 C72.303 305.597 72.606 306.194 72.918 306.809 C83.394 328.502 91.247 360.437 84 384 C81.983 388.29 79.44 392.97 75 395 C70.511 395.507 68.095 395.502 64 393.625 C55.467 386.159 50.411 376.734 45.33 366.795 C43.394 363.012 41.424 359.247 39.457 355.48 C39.074 354.744 38.69 354.008 38.295 353.25 C33.811 344.67 28.974 336.304 24 328 C16.009 330.163 8.493 333.155 0.875 336.375 C-1.675 337.444 -4.226 338.509 -6.777 339.574 C-7.766 339.988 -7.766 339.988 -8.775 340.41 C-17.431 344.026 -26.131 347.536 -34.828 351.053 C-36.191 351.605 -37.555 352.156 -38.918 352.708 C-40.71 353.434 -42.503 354.159 -44.296 354.884 C-45.885 355.54 -47.462 356.231 -49 357 C-54.036 357.462 -57.065 356.287 -61.523 354.008 C-71.271 349.211 -81.431 345.598 -91.625 341.875 C-94.451 340.836 -97.277 339.795 -100.103 338.754 C-101.914 338.087 -103.726 337.421 -105.537 336.756 C-112.385 334.238 -119.204 331.654 -126 329 C-126.284 329.901 -126.569 330.801 -126.862 331.729 C-127.812 334.461 -128.834 336.81 -130.215 339.336 C-130.648 340.141 -131.082 340.946 -131.528 341.776 C-131.993 342.634 -132.458 343.491 -132.938 344.375 C-137.714 353.296 -142.017 362.363 -146.031 371.652 C-153.722 389.028 -153.722 389.028 -162 393 C-165.703 392.408 -167.405 391.804 -169.654 388.765 C-171.161 385.67 -171.385 383.691 -171.404 380.267 C-171.423 378.574 -171.423 378.574 -171.442 376.847 C-171.44 375.635 -171.437 374.424 -171.434 373.176 C-171.439 371.919 -171.444 370.663 -171.449 369.368 C-171.456 366.709 -171.456 364.051 -171.446 361.392 C-171.435 358.011 -171.455 354.63 -171.484 351.249 C-171.507 347.995 -171.5 344.742 -171.496 341.488 C-171.507 340.287 -171.519 339.086 -171.53 337.848 C-171.469 330.397 -170.337 324.669 -167 318 C-166.627 317.249 -166.254 316.498 -165.869 315.725 C-165.582 315.155 -165.296 314.586 -165 314 C-167.773 312.312 -167.773 312.312 -170.934 312.25 C-173.374 313.136 -174.525 314.19 -176.312 316.062 C-176.924 316.702 -177.535 317.341 -178.164 318 C-181.175 321.28 -184.1 324.622 -187 328 C-187.895 329.02 -188.791 330.04 -189.688 331.059 C-200.96 343.941 -210.908 357.525 -220.193 371.906 C-227.25 382.731 -227.25 382.731 -232.438 385.125 C-235.61 384.97 -237.463 383.934 -239.762 381.754 C-242.971 377.208 -242.23 371.883 -241.586 366.613 C-237.033 340.802 -224.382 317.961 -209.312 296.891 C-207.959 295.037 -207.959 295.037 -207 293 C-208.918 292.66 -208.918 292.66 -210.875 292.312 C-215.544 291.289 -219.443 289.468 -223.641 287.219 C-226.012 285.926 -226.012 285.926 -228.734 285.031 C-229.482 284.691 -230.23 284.351 -231 284 C-235.846 269.462 -233.097 250.224 -233 235 C-247.272 249.769 -257.793 265.917 -267.633 283.906 C-271.796 291.504 -276.27 298.892 -280.884 306.223 C-281.879 307.807 -282.859 309.401 -283.836 310.996 C-288.723 318.748 -288.723 318.748 -293 320 C-297.236 318.904 -299.36 318.056 -301.656 314.266 C-307.926 299.028 -302.695 277.459 -299 262 C-300.137 262.289 -301.274 262.577 -302.445 262.875 C-316.406 266.29 -329.492 268.459 -343 262 C-346.472 259.413 -347.668 258.018 -349 253.938 C-349 251 -349 251 -347.75 248.688 C-345.031 246.066 -343.054 246.001 -339.312 245.938 C-338.219 245.958 -337.126 245.979 -336 246 C-337.442 244.558 -339.137 244.028 -341 243.188 C-346.22 240.604 -350.929 237.46 -355.688 234.125 C-356.4 233.632 -357.112 233.138 -357.846 232.63 C-363.736 228.438 -370.144 223.854 -373 217 C-373.316 213.9 -373.441 211.854 -372 209.062 C-368.329 207.112 -363.811 208.454 -359.963 209.614 C-357.885 210.374 -355.849 211.196 -353.812 212.062 C-353.076 212.373 -352.34 212.683 -351.582 213.002 C-337.479 219.122 -319.768 229.693 -312.977 244.184 C-312.053 246.366 -312.053 246.366 -308.875 247.25 C-307.452 247.621 -307.452 247.621 -306 248 C-306.33 246.762 -306.66 245.525 -307 244.25 C-308.273 238.455 -308.223 232.906 -308 227 C-307.959 225.762 -307.918 224.525 -307.875 223.25 C-307.296 211.286 -305.73 201.73 -297 193 C-293.038 192.619 -290.717 192.576 -287.25 194.625 C-282.204 199.952 -281.177 205.994 -280 213 C-279.573 212.429 -279.147 211.858 -278.707 211.27 C-266.904 195.962 -246.35 172.804 -226 170 C-226.028 168.69 -226.057 167.381 -226.086 166.031 C-226.084 159.22 -225.458 152.471 -224.828 145.696 C-224.625 143.505 -224.433 141.313 -224.242 139.121 C-222.597 120.735 -222.597 120.735 -221 117 C-218.928 115.744 -218.928 115.744 -217 115 C-215 117 -215 117 -214.766 119.274 C-214.885 127.727 -215.425 136.121 -216.094 144.547 C-216.206 146.013 -216.318 147.479 -216.43 148.944 C-216.722 152.769 -217.019 156.593 -217.318 160.416 C-217.796 166.548 -218.271 172.68 -218.739 178.812 C-218.903 180.937 -219.07 183.062 -219.238 185.186 C-220.53 196.208 -220.53 196.208 -219 207 C-219.433 207.908 -219.866 208.815 -220.312 209.75 C-227.237 224.8 -225.146 246.067 -225.562 262.438 C-225.606 264.055 -225.649 265.673 -225.693 267.291 C-225.799 271.194 -225.9 275.097 -226 279 C-225.423 279.191 -224.846 279.382 -224.251 279.579 C-220.716 280.753 -217.187 281.935 -213.672 283.168 C-212.708 283.504 -211.743 283.841 -210.75 284.188 C-209.775 284.532 -208.801 284.876 -207.797 285.23 C-204.923 286.021 -202.948 286.459 -200 286 C-197.8 284.257 -197.8 284.257 -195.75 281.812 C-184.842 270.37 -171.67 261.778 -158 254 C-156.331 253.005 -154.663 252.006 -153 251 C-156.812 247.65 -160.333 245.83 -165 244 C-163.938 241.5 -163.938 241.5 -162 239 C-156.795 238.214 -153.329 239.084 -149 242 C-141.726 248.297 -138.323 255.751 -136 265 C-135.875 267.922 -135.875 267.922 -136 270 C-133.433 267.447 -130.888 264.883 -128.379 262.273 C-102.639 235.636 -102.639 235.636 -88 235 C-88.495 234.051 -88.99 233.102 -89.5 232.125 C-91 229 -91 229 -91 227 C-87.075 227.582 -84.92 229.382 -82 232 C-73.206 244.025 -68.659 258.403 -68.438 273.25 C-68.423 273.941 -68.408 274.631 -68.393 275.343 C-68.495 280.279 -69.817 283.264 -73 287 C-76.438 287.688 -76.438 287.688 -80 287 C-85.11 283.367 -85.69 279.785 -87 274 C-106.033 296.597 -106.033 296.597 -120 322 C-118.734 322.356 -117.468 322.712 -116.164 323.078 C-108.628 325.342 -101.268 328.099 -93.889 330.823 C-91.403 331.74 -88.915 332.647 -86.426 333.555 C-84.791 334.156 -83.157 334.757 -81.523 335.359 C-80.806 335.62 -80.089 335.881 -79.35 336.149 C-71.424 339.093 -63.726 342.575 -56 346 C-56.462 335.817 -56.931 325.634 -57.409 315.451 C-57.631 310.719 -57.851 305.986 -58.065 301.253 C-59.148 277.322 -60.625 253.473 -62.698 229.608 C-66.871 179.759 -66.871 179.759 -59.188 169.812 C-42.604 153.229 -14.855 143.732 6.263 134.236 C16.878 129.441 27.343 124.412 37.625 118.938 C66.709 103.451 66.709 103.451 81 100 C73.363 96.342 65.454 93.745 57.417 91.139 C44.031 86.797 30.828 82.251 17.858 76.771 C16.885 76.375 15.912 75.979 14.91 75.57 C14.076 75.217 13.242 74.864 12.383 74.5 C8.624 73.711 6.173 75.279 3.016 77.219 C2.142 77.853 2.142 77.853 1.25 78.5 C0.361 79.134 0.361 79.134 -0.547 79.781 C-2.144 80.957 -2.144 80.957 -3 83 C-2.257 83.082 -1.515 83.165 -0.75 83.25 C2.547 84.149 3.814 85.424 6 88 C7.405 90.809 7.249 92.888 7 96 C5.22 99.136 4.477 99.841 1 101 C-4.004 101.371 -6.983 101.099 -11 98 C-13.511 94.233 -13.724 91.357 -13 87 C-11.634 83.489 -9.859 80.271 -8 77 C-7.523 76.13 -7.046 75.26 -6.555 74.363 C-5.384 72.233 -4.2 70.113 -3 68 C-3.642 67.815 -4.284 67.631 -4.946 67.44 C-11.183 65.614 -17.123 63.404 -23.117 60.891 C-26.666 59.794 -26.666 59.794 -30 61 C-32.623 64.742 -34.199 68.582 -33.562 73.125 C-33.377 74.074 -33.191 75.022 -33 76 C-34.247 80.256 -35.422 82.487 -38.75 85.438 C-42.605 87.291 -44.77 87.604 -49 87 C-54.538 83.923 -54.538 83.923 -56 81 C-56.392 76.292 -56.473 73.929 -54.312 69.688 C-51.927 66.915 -50.398 65.344 -47 64 C-43.662 64.226 -41.002 64.499 -38 66 C-37.711 64.907 -37.423 63.814 -37.125 62.688 C-36 59 -36 59 -34 56 C-50.055 53.267 -63.999 58.356 -78.836 64.087 C-82.334 65.439 -85.842 66.766 -89.348 68.098 C-90.025 68.356 -90.703 68.614 -91.401 68.88 C-96.347 70.763 -101.312 72.578 -106.312 74.312 C-111.819 76.224 -117.289 78.213 -122.75 80.25 C-130.91 83.288 -139.135 86.123 -147.375 88.938 C-156.91 92.198 -166.371 95.591 -175.77 99.224 C-181.383 101.393 -187.017 103.487 -192.688 105.5 C-193.401 105.756 -194.115 106.011 -194.851 106.274 C-199.756 108 -199.756 108 -202 108 C-199.234 111.546 -195.258 112.729 -191.188 114.25 C-190.488 114.531 -189.789 114.812 -189.068 115.102 C-180.922 118.18 -175.307 115.498 -167.688 112.125 C-166.339 111.538 -166.339 111.538 -164.963 110.939 C-159.724 108.655 -154.5 106.338 -149.273 104.027 C-148.156 103.534 -147.039 103.041 -145.888 102.533 C-143.708 101.569 -141.529 100.602 -139.352 99.631 C-125.873 93.655 -125.873 93.655 -120 94 C-120 94.66 -120 95.32 -120 96 C-134.994 104.086 -149.748 111.723 -166 117 C-167.675 117.558 -169.349 118.116 -171.023 118.676 C-172.349 119.117 -173.674 119.559 -175 120 C-174.226 120.261 -173.452 120.522 -172.655 120.791 C-169.018 122.022 -165.384 123.259 -161.75 124.5 C-161.094 124.724 -160.438 124.947 -159.762 125.177 C-150.393 128.378 -141.152 131.766 -132.081 135.75 C-126.66 138.092 -126.66 138.092 -121 137 C-118.446 135.658 -115.978 134.281 -113.5 132.812 C-95.365 122.346 -95.365 122.346 -87 121 C-88.273 124.819 -89.362 124.999 -92.883 126.777 C-93.886 127.291 -94.889 127.805 -95.922 128.334 C-96.979 128.863 -98.036 129.392 -99.125 129.938 C-101.191 130.987 -103.256 132.038 -105.32 133.09 C-106.786 133.834 -106.786 133.834 -108.282 134.593 C-111.583 136.302 -114.797 138.117 -118 140 C-112.734 142.852 -107.328 145.153 -101.75 147.312 C-100.704 147.73 -100.704 147.73 -99.637 148.157 C-95.951 149.555 -93.734 150.269 -90 149 C-88.199 148.086 -86.4 147.169 -84.618 146.219 C-67.043 136.869 -67.043 136.869 -58.641 138.441 C-58.099 138.626 -57.558 138.81 -57 139 C-58 142 -58 142 -60.377 143.259 C-61.406 143.662 -62.436 144.065 -63.496 144.48 C-64.612 144.922 -65.727 145.363 -66.877 145.818 C-68.052 146.27 -69.227 146.722 -70.438 147.188 C-71.609 147.651 -72.78 148.114 -73.986 148.592 C-82.685 152 -82.685 152 -85 152 C-83.32 155.359 -79.395 155.737 -76 156.875 C-75.25 157.119 -74.5 157.362 -73.727 157.613 C-71.563 158.367 -71.563 158.367 -68 160 C-67.209 161.988 -67.209 161.988 -67 164 C-68.09 165.82 -68.09 165.82 -70 167 C-72.566 166.742 -72.566 166.742 -75.562 165.875 C-76.621 165.577 -77.679 165.279 -78.77 164.973 C-79.836 164.652 -80.902 164.331 -82 164 C-82.994 163.71 -83.988 163.42 -85.012 163.121 C-87.347 162.432 -89.676 161.725 -92 161 C-92.121 161.727 -92.242 162.454 -92.367 163.203 C-93.578 170.469 -94.789 177.734 -96 185 C-97.65 185.33 -99.3 185.66 -101 186 C-102.194 178.014 -101.8 171.517 -99.691 163.715 C-98.877 160.982 -98.877 160.982 -99 158 C-99.85 157.673 -100.7 157.346 -101.576 157.01 C-105.531 155.488 -109.484 153.963 -113.438 152.438 C-114.152 152.162 -114.867 151.887 -115.603 151.603 C-123.426 148.584 -131.224 145.539 -138.938 142.25 C-145.311 139.556 -151.801 137.34 -158.375 135.188 C-167.427 132.221 -176.423 129.133 -185.375 125.875 C-186.485 125.479 -187.596 125.084 -188.74 124.677 C-207.148 117.908 -207.148 117.908 -211 110 C-210.938 106.875 -210.938 106.875 -210 104 C-206.785 100.997 -203.166 99.819 -199.051 98.398 C-198.37 98.161 -197.689 97.923 -196.987 97.678 C-194.765 96.904 -192.539 96.14 -190.312 95.375 C-188.762 94.836 -187.212 94.297 -185.662 93.756 C-183.32 92.94 -180.978 92.124 -178.635 91.311 C-172.114 89.047 -165.615 86.725 -159.125 84.375 C-152.713 82.056 -146.298 79.747 -139.871 77.469 C-128.963 73.6 -118.074 69.718 -107.306 65.472 C-95.407 60.781 -83.37 56.452 -71.312 52.188 C-70.093 51.752 -70.093 51.752 -68.848 51.309 C-55.82 46.737 -43.71 46.076 -30 48 C-29.492 46.961 -28.984 45.922 -28.461 44.852 C-18.373 24.354 -18.373 24.354 -12 17 C-12.322 16.433 -12.645 15.866 -12.977 15.281 C-14.634 11.586 -14.613 7.972 -14 4 C-10.142 -1.144 -6.065 -1.855 0 0 Z M27 21 C26.506 21.993 26.012 22.987 25.503 24.01 C23.656 27.722 21.807 31.432 19.957 35.142 C19.159 36.743 18.361 38.344 17.565 39.946 C16.415 42.258 15.262 44.568 14.109 46.879 C13.758 47.586 13.407 48.294 13.045 49.023 C11.37 52.373 9.641 55.653 7.743 58.883 C5.837 61.696 5.837 61.696 6 64 C9.335 63.37 11.564 62.141 14.352 60.227 C15.195 59.654 16.038 59.081 16.907 58.491 C17.804 57.875 18.701 57.259 19.625 56.625 C29.241 50.109 39.033 43.963 49 38 C47.681 34.933 46.499 33.337 43.699 31.527 C43.051 31.103 42.404 30.678 41.736 30.24 C41.06 29.81 40.384 29.38 39.688 28.938 C39.023 28.504 38.358 28.07 37.674 27.623 C34.159 25.339 30.6 23.148 27 21 Z M-47.812 73.75 C-49.235 75.915 -49.235 75.915 -48.688 78.25 C-48.461 78.827 -48.234 79.405 -48 80 C-44.069 79.425 -44.069 79.425 -41 77 C-41.32 74.397 -41.32 74.397 -42 72 C-45.94 71.537 -45.94 71.537 -47.812 73.75 Z M50.562 120.875 C49.177 121.551 47.791 122.227 46.404 122.902 C40.237 125.912 34.087 128.951 27.958 132.038 C19.403 136.343 10.759 140.427 2.062 144.438 C-0.594 145.663 -3.248 146.891 -5.902 148.121 C-7.052 148.651 -8.202 149.182 -9.386 149.728 C-11.869 150.761 -11.869 150.761 -13 152 C-13.509 161.272 -12.719 170.573 -12 179.812 C-11.857 181.728 -11.857 181.728 -11.711 183.682 C-11.478 186.788 -11.241 189.894 -11 193 C-12.32 192.67 -13.64 192.34 -15 192 C-17.006 179.212 -17.778 166.891 -16 154 C-21.957 155.725 -27.347 158.49 -32.875 161.25 C-33.83 161.715 -34.785 162.181 -35.77 162.66 C-47.375 168.185 -47.375 168.185 -55 178 C-58.16 196.826 -55.528 217.366 -53.625 236.188 C-51.931 253.173 -51.155 270.203 -50.375 287.25 C-50.344 287.93 -50.312 288.61 -50.28 289.31 C-49.379 308.869 -48.634 328.431 -48 348 C-41.102 345.789 -41.102 345.789 -34.434 342.977 C-33.234 342.414 -33.234 342.414 -32.009 341.84 C-31.161 341.439 -30.312 341.038 -29.438 340.625 C-18.316 335.46 -6.993 330.852 4.385 326.292 C5.059 326.021 5.733 325.751 6.427 325.472 C8.269 324.733 10.113 323.997 11.958 323.262 C14.37 322.261 16.689 321.212 19 320 C17.379 315.318 14.882 311.429 12.188 307.312 C11.71 306.579 11.232 305.845 10.74 305.089 C5.112 296.529 -0.832 288.179 -7 280 C-7.451 279.387 -7.901 278.775 -8.366 278.143 C-9.76 276.275 -9.76 276.275 -12 274 C-15.615 274.076 -15.615 274.076 -19 275 C-22 274 -22 274 -23.164 272.23 C-27.003 261.988 -22.433 247.629 -18.387 237.938 C-15.449 231.517 -12.984 227.912 -7 224 C-5.686 221.836 -5.686 221.836 -5 219.5 C-3.221 215.064 -1.535 212.956 3 211 C6.602 211.061 8.936 211.279 11.938 213.312 C13 215 13 215 13 219 C11.453 218.134 11.453 218.134 9.875 217.25 C7.977 216.381 7.977 216.381 6 216 C1.625 217.801 -0.204 220.027 -2.176 224.168 C-2.522 224.886 -2.868 225.604 -3.224 226.344 C-3.48 226.891 -3.736 227.437 -4 228 C-2.826 228.583 -1.651 229.165 -0.441 229.766 C31.672 245.991 50.162 267.252 68 298 C72.045 297.373 75.284 296.067 78.957 294.277 C80.069 293.739 81.181 293.201 82.326 292.646 C84.052 291.801 84.052 291.801 85.812 290.938 C86.982 290.37 88.152 289.802 89.357 289.217 C92.241 287.816 95.122 286.411 98 285 C98.347 281.856 98.347 281.856 95.902 279.828 C94.924 278.977 93.946 278.127 92.938 277.25 C81.746 267.302 71.151 256.876 62 245 C61.308 244.117 60.616 243.234 59.902 242.324 C58.259 240.223 56.625 238.116 55 236 C53.292 237.634 52.065 238.869 51 241 C48.688 241.812 48.688 241.812 46 242 C43.557 240.577 42.256 239.6 41.137 236.977 C38.707 224.257 40.328 211.422 47.676 200.512 C50.321 197.304 52.428 195.28 56.188 193.438 C59.556 191.716 60.092 189.94 61.734 186.656 C64.17 183.469 68.155 182.567 72 182 C72.99 182.33 73.98 182.66 75 183 C75 184.65 75 186.3 75 188 C74.134 187.567 73.268 187.134 72.375 186.688 C68.85 185.567 68.85 185.567 65.688 188.062 C62.928 191.079 62.553 192.14 62 196 C62.862 196.378 63.725 196.755 64.613 197.145 C79.785 203.927 94.025 212.002 107.101 222.292 C110.18 225.048 110.18 225.048 114 226 C112.717 208.391 111.175 190.82 109.438 173.25 C108.996 168.776 108.558 164.302 108.121 159.828 C108.018 158.781 107.914 157.734 107.808 156.655 C107.147 149.864 106.635 143.089 106.328 136.272 C106.166 135.148 106.166 135.148 106 134 C105.34 133.67 104.68 133.34 104 133 C101.564 133.908 99.238 134.868 96.875 135.938 C96.216 136.228 95.558 136.519 94.879 136.818 C93.25 137.539 91.624 138.268 90 139 C92.917 136.62 95.669 135.195 99.188 133.875 C102.345 132.843 102.345 132.843 105 131 C104.962 129.164 104.845 127.329 104.688 125.5 C104.609 124.5 104.53 123.499 104.449 122.469 C104.301 121.654 104.153 120.839 104 120 C103.01 119.505 103.01 119.505 102 119 C99.75 119.792 99.75 119.792 97.238 121.055 C96.284 121.505 95.329 121.954 94.346 122.418 C92.342 123.38 90.34 124.344 88.338 125.309 C83.154 127.749 78.744 129.63 73 130 C79.353 125.34 85.662 122.272 93.062 119.625 C94.023 119.271 94.984 118.916 95.975 118.551 C98.313 117.69 100.654 116.84 103 116 C102.446 109.832 102.446 109.832 99 105 C85.434 99.913 62.817 114.847 50.562 120.875 Z M172 176 C169.619 178.181 167.246 180.371 164.875 182.562 C164.21 183.172 163.545 183.781 162.859 184.408 C156.989 189.847 151.701 195.38 147.625 202.312 C146.871 203.575 146.871 203.575 146.102 204.863 C144.847 206.896 144.847 206.896 145 209 C146.98 208.505 146.98 208.505 149 208 C149 207.34 149 206.68 149 206 C149.581 205.725 150.163 205.451 150.762 205.168 C161.063 199.792 168.653 191.725 173 181 C173.364 179.675 173.71 178.343 174 177 C173.34 176.67 172.68 176.34 172 176 Z M-234 182 C-234 182.66 -234 183.32 -234 184 C-230.779 186.316 -230.779 186.316 -227 187 C-226.67 184.03 -226.34 181.06 -226 178 C-229.932 178 -231.164 179.394 -234 182 Z M-244.812 189.812 C-252.464 196.462 -252.464 196.462 -256 199 C-254.481 203.86 -251.671 207.061 -248.375 210.812 C-247.859 211.41 -247.344 212.007 -246.812 212.623 C-245.548 214.087 -244.275 215.544 -243 217 C-237.519 215.008 -233.109 212.152 -229 208 C-227.74 204.682 -227.74 204.682 -228 201 C-227.885 200.202 -227.771 199.404 -227.652 198.582 C-227.352 195.784 -227.297 193.733 -228 191 C-230.641 188.061 -233.576 185.955 -237 184 C-239.553 184 -242.835 188.09 -244.812 189.812 Z M61 200 C57.62 206.794 55.651 213.607 54 221 C57.071 222.874 60.159 224.721 63.25 226.562 C64.123 227.096 64.995 227.629 65.895 228.178 C66.739 228.677 67.583 229.177 68.453 229.691 C69.616 230.391 69.616 230.391 70.802 231.104 C72.94 232.164 72.94 232.164 75.164 231.849 C78.445 230.332 79.382 226.783 80.75 223.625 C81.066 222.939 81.382 222.253 81.707 221.547 C83.055 218.548 84 216.322 84 213 C82.052 211.355 82.052 211.355 79.477 209.863 C78.538 209.286 77.6 208.71 76.633 208.115 C75.64 207.52 74.648 206.925 73.625 206.312 C72.64 205.706 71.655 205.099 70.641 204.475 C66.121 201.311 66.121 201.311 61 200 Z M-263.688 206.438 C-267.797 210.576 -270.967 215.036 -274 220 C-268.091 224.927 -262.076 227.993 -255 231 C-252.03 228.03 -249.06 225.06 -246 222 C-248.151 217.699 -250.718 214.104 -253.562 210.25 C-254.07 209.553 -254.577 208.855 -255.1 208.137 C-256.373 206.404 -257.683 204.699 -259 203 C-260.959 203 -262.38 205.16 -263.688 206.438 Z M-291 209 C-292.781 213.376 -294.533 217.761 -296.26 222.159 C-296.853 223.634 -297.488 225.092 -298.137 226.543 C-300.879 233.156 -299.47 239.158 -298 246 C-294.295 242.295 -294.012 236.428 -292.875 231.438 C-292.598 230.282 -292.321 229.126 -292.035 227.936 C-290.543 221.462 -289.674 215.642 -290 209 C-290.33 209 -290.66 209 -291 209 Z M121 215 C120.367 227.046 120.367 227.046 124.812 237.688 C128.214 240.311 131.045 240.27 135.25 240 C138.337 239.561 141.04 238.987 144 238 C145.101 230.982 145.097 224.094 145 217 C136.962 214.926 129.27 214.786 121 215 Z M89 217 C87.463 219.762 85.948 222.536 84.438 225.312 C84 226.098 83.562 226.884 83.111 227.693 C82.702 228.451 82.293 229.208 81.871 229.988 C81.298 231.033 81.298 231.033 80.713 232.099 C79.708 234.172 79.708 234.172 81 237 C82.748 238.489 82.748 238.489 84.875 239.75 C85.574 240.199 86.272 240.647 86.992 241.109 C89.134 242.329 89.134 242.329 92 241 C93.239 238.747 94.266 236.61 95.25 234.25 C95.531 233.629 95.812 233.007 96.102 232.367 C97.244 229.686 97.982 227.272 98.172 224.359 C96.269 220.528 92.681 218.971 89 217 Z M149 218 C148.67 224.93 148.34 231.86 148 239 C149.98 239.33 151.96 239.66 154 240 C156.434 233.427 157.901 226.917 159 220 C155.38 218.684 152.904 218 149 218 Z M-359 220 C-359 220.66 -359 221.32 -359 222 C-356.824 223.639 -354.656 225.144 -352.375 226.625 C-351.707 227.065 -351.038 227.505 -350.349 227.958 C-343.732 232.266 -336.912 236.187 -330 240 C-329.651 236.732 -329.651 236.732 -332.625 234.312 C-340.288 228.07 -349.601 223.008 -359 220 Z M162 221 C161.518 223.041 161.04 225.083 160.562 227.125 C160.296 228.262 160.029 229.399 159.754 230.57 C159.065 233.705 158.496 236.83 158 240 C164.286 241.857 170.636 243.432 177 245 C179.245 239.388 180.833 233.929 182 228 C179.795 227.012 177.587 226.035 175.375 225.062 C174.758 224.785 174.14 224.507 173.504 224.221 C169.676 222.548 166.146 221.504 162 221 Z M-277 223 C-277.841 224.433 -278.673 225.872 -279.5 227.312 C-279.964 228.113 -280.428 228.914 -280.906 229.738 C-282.218 232.031 -282.218 232.031 -282 235 C-273.585 238.465 -273.585 238.465 -265 242 C-260.229 237.556 -260.229 237.556 -258 234 C-258.987 233.374 -259.975 232.747 -260.992 232.102 C-262.287 231.276 -263.581 230.451 -264.875 229.625 C-265.851 229.006 -265.851 229.006 -266.848 228.375 C-269.437 226.72 -271.82 225.18 -274 223 C-274.99 223 -275.98 223 -277 223 Z M103 228 C101.605 230.574 100.234 233.157 98.875 235.75 C98.477 236.48 98.078 237.209 97.668 237.961 C97.301 238.67 96.933 239.379 96.555 240.109 C96.209 240.759 95.863 241.408 95.507 242.077 C94.796 244.055 94.796 244.055 95.739 246.165 C97.431 248.626 99.206 249.118 102 250 C103.341 247.566 104.673 245.129 106 242.688 C106.382 241.997 106.763 241.307 107.156 240.596 C109.4 236.533 109.4 236.533 110 232 C106.963 228.949 106.963 228.949 103 228 Z M186 231 C185.328 233.103 184.663 235.207 184 237.312 C183.629 238.484 183.258 239.656 182.875 240.863 C181.866 243.939 181.866 243.939 182 247 C183.79 247.671 185.582 248.336 187.375 249 C188.373 249.371 189.37 249.743 190.398 250.125 C192.858 251.106 192.858 251.106 195 251 C195.84 249.232 196.672 247.461 197.5 245.688 C198.196 244.208 198.196 244.208 198.906 242.699 C200.188 240.022 200.188 240.022 200 237 C198.234 235.992 196.462 234.994 194.688 234 C193.701 233.443 192.715 232.886 191.699 232.312 C189.051 230.781 189.051 230.781 186 231 Z M-5 232 C-5.652 234.499 -6.297 236.999 -6.938 239.5 C-7.12 240.196 -7.302 240.892 -7.49 241.609 C-8.71 246.398 -9.474 251.085 -10 256 C-6.638 257.631 -6.638 257.631 -2.991 257.747 C0.508 256.434 2.244 253.15 4.312 250.188 C4.78 249.558 5.247 248.928 5.729 248.279 C8.301 244.924 8.301 244.924 8.758 240.906 C7.614 238.028 5.655 236.966 3.125 235.25 C2.241 234.636 1.356 234.023 0.445 233.391 C-1.966 231.753 -1.966 231.753 -5 232 Z M-284 238 C-284.839 240.436 -285.671 242.873 -286.5 245.312 C-286.738 246.003 -286.977 246.693 -287.223 247.404 C-288.232 250.389 -289 252.827 -289 256 C-286.664 256.398 -284.35 256.712 -282 257 C-281.255 257.138 -280.51 257.276 -279.742 257.418 C-277.174 257.718 -275.475 257.788 -273 257 C-270.265 254.006 -268.381 250.812 -267 247 C-267.716 243.692 -267.716 243.692 -271.09 242.395 C-272.368 241.856 -273.651 241.329 -274.938 240.812 C-275.584 240.54 -276.23 240.267 -276.896 239.986 C-280.333 238.494 -280.333 238.494 -284 238 Z M-93.438 242.25 C-94.406 243.039 -95.374 243.828 -96.371 244.641 C-99.267 247.086 -99.267 247.086 -102 251 C-95.565 256.94 -95.565 256.94 -89 263 C-84.332 260.724 -84.332 260.724 -81 257 C-81 250.217 -83.531 244.246 -86 238 C-89.263 238 -90.976 240.223 -93.438 242.25 Z M114 238 C112.293 240.476 110.786 242.891 109.312 245.5 C108.897 246.215 108.481 246.931 108.053 247.668 C107.025 249.44 106.011 251.219 105 253 C108.747 256.86 112.685 260.366 116.812 263.812 C117.41 264.315 118.007 264.817 118.623 265.334 C120.08 266.558 121.54 267.779 123 269 C126.538 267.559 128.182 265.832 130.312 262.688 C130.845 261.928 131.377 261.169 131.926 260.387 C133.249 257.447 133.039 256.013 132 253 C130.676 252.315 129.341 251.651 128 251 C126.656 249.007 125.325 247.006 124 245 C121.817 242.502 119.614 240.05 117 238 C116.01 238 115.02 238 114 238 Z M205 241 C203.02 244.96 201.04 248.92 199 253 C201.1 254.174 203.205 255.34 205.312 256.5 C205.907 256.834 206.502 257.168 207.115 257.512 C209.958 259.068 211.707 260 215 260 C215.7 258.736 216.384 257.463 217.062 256.188 C217.637 255.126 217.637 255.126 218.223 254.043 C219.303 251.853 219.303 251.853 218 249 C215.261 246.865 215.261 246.865 212 244.812 C210.907 244.097 209.814 243.382 208.688 242.645 C206.383 240.913 206.383 240.913 205 241 Z M13 244 C11.408 246.222 9.939 248.432 8.5 250.75 C8.097 251.384 7.693 252.018 7.277 252.672 C5.357 255.713 3.518 258.732 2 262 C3.259 263.2 4.533 264.384 5.812 265.562 C6.52 266.224 7.228 266.885 7.957 267.566 C8.631 268.039 9.305 268.513 10 269 C14.14 267.62 15.495 264.764 17.75 261.25 C18.174 260.629 18.598 260.007 19.035 259.367 C20.852 256.561 22.011 254.611 21.949 251.223 C20.399 247.592 18.193 246.281 15 244 C14.34 244 13.68 244 13 244 Z M-342 252 C-337.587 256.68 -332.011 256.821 -325.781 257.191 C-319.532 257.489 -319.532 257.489 -314 255 C-320.397 252.153 -325.545 251.615 -332.5 251.812 C-333.418 251.826 -334.336 251.84 -335.281 251.854 C-337.521 251.889 -339.76 251.938 -342 252 Z M-106 253 C-108.041 254.616 -110.041 256.286 -112 258 C-112 258.66 -112 259.32 -112 260 C-113.98 260.99 -113.98 260.99 -116 262 C-111.555 267.585 -106.755 271.792 -101 276 C-97.79 274.618 -95.951 273.076 -93.75 270.375 C-93.229 269.743 -92.708 269.112 -92.172 268.461 C-91.785 267.979 -91.398 267.497 -91 267 C-92.458 263.434 -94.304 261.718 -97.375 259.438 C-98.146 258.859 -98.917 258.28 -99.711 257.684 C-100.466 257.128 -101.222 256.572 -102 256 C-103.334 255.001 -104.667 254.001 -106 253 Z M26 255 C25.541 255.797 25.082 256.593 24.609 257.414 C21.542 262.711 18.492 267.971 15 273 C17.31 275.64 19.62 278.28 22 281 C27.974 277.311 33.752 273.681 39 269 C36.13 263.598 31.967 256.989 26 255 Z M222 255 C220.375 257.833 220.375 257.833 219 261 C219.682 264.049 219.682 264.049 221.812 265.25 C223.95 266.126 223.95 266.126 226.125 265.938 C228.272 265.102 228.272 265.102 229.25 262.438 C229.621 261.231 229.621 261.231 230 260 C227.688 257.438 227.688 257.438 225 255 C224.01 255 223.02 255 222 255 Z M-153.598 258.406 C-154.316 258.903 -155.035 259.399 -155.775 259.91 C-156.53 260.435 -157.285 260.959 -158.062 261.5 C-158.821 262.025 -159.58 262.549 -160.361 263.09 C-162.242 264.391 -164.121 265.695 -166 267 C-163.03 270.465 -163.03 270.465 -160 274 C-153.565 272.02 -153.565 272.02 -147 270 C-146.057 265.284 -145.894 264.323 -147.438 260.188 C-147.725 259.397 -148.012 258.607 -148.309 257.793 C-148.651 256.905 -148.651 256.905 -149 256 C-150.805 256 -152.157 257.408 -153.598 258.406 Z M-290 260 C-290.495 261.444 -290.99 262.888 -291.5 264.375 C-291.778 265.187 -292.057 265.999 -292.344 266.836 C-293.097 268.942 -293.097 268.942 -293 271 C-290.893 270.576 -288.789 270.135 -286.688 269.688 C-284.93 269.322 -284.93 269.322 -283.137 268.949 C-280.115 268.035 -278.761 267.575 -277 265 C-277 264.01 -277 263.02 -277 262 C-281.29 261.34 -285.58 260.68 -290 260 Z M137 261 C134.911 263.328 134.911 263.328 132.812 266.25 C132.076 267.225 131.34 268.199 130.582 269.203 C128.822 271.768 128.822 271.768 129.023 274.09 C130.296 276.579 131.85 278.321 133.812 280.312 C134.5 281.031 135.187 281.749 135.895 282.488 C137.838 284.204 137.838 284.204 139.996 283.953 C142.476 282.774 144.227 281.292 146.25 279.438 C146.956 278.797 147.663 278.156 148.391 277.496 C148.922 277.002 149.453 276.509 150 276 C148.586 271.734 146.517 268.994 143.5 265.688 C142.706 264.804 141.912 263.921 141.094 263.012 C139.244 260.769 139.244 260.769 137 261 Z M232 264 C231.34 265.65 230.68 267.3 230 269 C233.67 271.912 233.67 271.912 238 273 C236.941 269.597 235.991 266.986 234 264 C233.34 264 232.68 264 232 264 Z M-121.988 267.941 C-126.293 272.796 -130.373 277.618 -134 283 C-132.519 286.765 -130.512 288.334 -127.188 290.562 C-126.335 291.141 -125.483 291.72 -124.605 292.316 C-123.746 292.872 -122.886 293.428 -122 294 C-121.13 294.566 -120.26 295.132 -119.363 295.715 C-117.009 297.239 -117.009 297.239 -114 297 C-111.952 294.684 -111.952 294.684 -110 291.75 C-108.979 290.288 -108.979 290.288 -107.938 288.797 C-107.298 287.874 -106.659 286.951 -106 286 C-105.423 285.263 -104.845 284.525 -104.25 283.766 C-102.807 282.088 -102.807 282.088 -103 280 C-104.551 278.431 -104.551 278.431 -106.562 276.812 C-110.11 273.813 -113.365 270.66 -116.555 267.285 C-118.99 265.12 -119.73 265.736 -121.988 267.941 Z M-171 271 C-172.908 272.201 -172.908 272.201 -174.688 273.938 C-175.31 274.503 -175.933 275.069 -176.574 275.652 C-177.28 276.319 -177.28 276.319 -178 277 C-177.01 278.32 -176.02 279.64 -175 281 C-171.597 279.941 -168.986 278.991 -166 277 C-166.781 274.504 -166.781 274.504 -168 272 C-168.99 271.67 -169.98 271.34 -171 271 Z M37.25 277.25 C33.539 279.901 29.81 282.494 26 285 C28.503 289.47 31.111 293.769 34 298 C38.787 297.423 42.251 295.359 46.312 292.938 C46.958 292.56 47.603 292.183 48.268 291.795 C49.849 290.87 51.425 289.936 53 289 C51.616 285.16 49.837 282.029 47.5 278.688 C46.892 277.804 46.283 276.921 45.656 276.012 C45.11 275.348 44.563 274.684 44 274 C41.044 274 39.626 275.536 37.25 277.25 Z M-79 275 C-78 279 -78 279 -78 279 Z M-289.688 276 C-290.496 276.186 -291.304 276.371 -292.137 276.562 C-292.752 276.707 -293.366 276.851 -294 277 C-294.33 279.64 -294.66 282.28 -295 285 C-291.555 284.625 -288.283 284.131 -285 283 C-282.998 280.173 -282 278.466 -282 275 C-284.798 275 -286.979 275.372 -289.688 276 Z M148.375 284 C147.149 285.114 147.149 285.114 145.898 286.25 C145.272 286.827 144.645 287.405 144 288 C145.404 292.101 147.371 294.981 150.125 298.312 C150.849 299.196 151.574 300.079 152.32 300.988 C152.875 301.652 153.429 302.316 154 303 C157.732 302.498 160.664 301.929 163.875 299.938 C164.906 299.298 165.938 298.659 167 298 C161.299 288.794 161.299 288.794 155 280 C151.891 280 150.62 281.947 148.375 284 Z M-187.625 285 C-188.851 286.114 -188.851 286.114 -190.102 287.25 C-190.728 287.827 -191.355 288.405 -192 289 C-191.01 290.485 -191.01 290.485 -190 292 C-185.956 290.221 -182.539 287.605 -179 285 C-179.66 283.68 -180.32 282.36 -181 281 C-184.109 281 -185.38 282.947 -187.625 285 Z M-137 287 C-141.758 293.047 -146.026 299.417 -150 306 C-142.084 310.464 -135.059 313.068 -126 314 C-124.661 312.213 -123.329 310.42 -122 308.625 C-121.257 307.627 -120.515 306.63 -119.75 305.602 C-117.814 303.246 -117.814 303.246 -118 301 C-119.987 299.687 -119.987 299.687 -122.5 298.375 C-127.244 295.649 -130.789 292.53 -134.504 288.539 C-134.998 288.031 -135.491 287.523 -136 287 C-136.33 287 -136.66 287 -137 287 Z M-290 290 C-291.98 290.66 -293.96 291.32 -296 292 C-296 295.63 -296 299.26 -296 303 C-292.671 300.016 -290.679 297.154 -289 293 C-289.33 292.01 -289.66 291.02 -290 290 Z M-153 292 C-153.554 292.566 -154.109 293.132 -154.68 293.715 C-155.766 294.815 -155.766 294.815 -156.875 295.938 C-157.954 297.034 -157.954 297.034 -159.055 298.152 C-161 300 -161 300 -163 301 C-163 301.66 -163 302.32 -163 303 C-163.66 303 -164.32 303 -165 303 C-165 303.66 -165 304.32 -165 305 C-162.525 305.495 -162.525 305.495 -160 306 C-157.36 302.04 -154.72 298.08 -152 294 C-152.33 293.34 -152.66 292.68 -153 292 Z M-195 293 C-196.65 294.98 -198.3 296.96 -200 299 C-195.775 299 -194.955 298.744 -192 296 C-192 295.34 -192 294.68 -192 294 C-192.99 293.67 -193.98 293.34 -195 293 Z M46.312 299 C45.611 299.382 44.909 299.763 44.186 300.156 C42.454 301.099 40.727 302.049 39 303 C39.681 305.92 40.581 308.351 42 311 C46.468 309.601 50.638 307.864 54.875 305.875 C56.604 305.067 56.604 305.067 58.367 304.242 C59.236 303.832 60.105 303.422 61 303 C59.73 298.585 59.73 298.585 57 295 C52.813 295 49.885 297.025 46.312 299 Z M-203 302 C-205.937 305.652 -205.937 305.652 -207 310 C-206.34 310 -205.68 310 -205 310 C-202.738 307.735 -202.738 307.735 -201 305 C-201.33 304.01 -201.66 303.02 -202 302 C-202.33 302 -202.66 302 -203 302 Z M163.375 305.5 C162.558 305.964 161.74 306.428 160.898 306.906 C160.272 307.267 159.645 307.628 159 308 C160.98 310.97 160.98 310.97 163 314 C166.3 313.67 169.6 313.34 173 313 C174.311 310.171 174.311 310.171 173.223 308.176 C172.84 307.561 172.457 306.946 172.062 306.312 C171.382 305.219 170.701 304.126 170 303 C167.257 303 165.745 304.146 163.375 305.5 Z M-152 310 C-160.37 321.129 -160.37 321.129 -164 334 C-156.413 337.077 -149.114 338.924 -141 340 C-133.689 330.082 -133.689 330.082 -130 319 C-131.085 318.602 -132.171 318.203 -133.289 317.793 C-134.734 317.258 -136.18 316.723 -137.625 316.188 C-138.694 315.796 -138.694 315.796 -139.785 315.396 C-144 313.83 -148.011 312.095 -152 310 Z M54.25 313.438 C53.204 313.945 53.204 313.945 52.137 314.463 C50.419 315.298 48.709 316.148 47 317 C47.616 321.96 49.798 325.937 52.062 330.312 C52.44 331.053 52.817 331.794 53.205 332.557 C54.131 334.374 55.065 336.187 56 338 C61.72 336.125 67.376 334.147 73 332 C71.589 326.378 70.054 320.821 68.062 315.375 C67.765 314.558 67.467 313.74 67.16 312.898 C66.175 310.852 66.175 310.852 64.157 310.292 C60.479 309.794 57.459 311.827 54.25 313.438 Z M-212 315 C-211 317 -211 317 -211 317 Z M169 320 C170.398 323.545 170.398 323.545 172 327 C175.465 326.505 175.465 326.505 179 326 C178.67 323.69 178.34 321.38 178 319 C174.727 319 172.153 319.299 169 320 Z M-164 339 C-164 342.3 -164 345.6 -164 349 C-162.273 349.65 -160.543 350.295 -158.812 350.938 C-157.85 351.297 -156.887 351.657 -155.895 352.027 C-153.263 352.912 -150.731 353.526 -148 354 C-146.082 350.998 -144.764 348.472 -144 345 C-145.025 344.734 -146.05 344.469 -147.105 344.195 C-148.466 343.839 -149.827 343.482 -151.188 343.125 C-151.861 342.951 -152.535 342.777 -153.229 342.598 C-156.935 341.621 -160.479 340.518 -164 339 Z M66.438 340.375 C64.672 341.036 64.672 341.036 62.871 341.711 C59.895 342.683 59.895 342.683 59 345 C59.934 347.031 60.932 349.035 62 351 C64.126 350.692 66.25 350.378 68.375 350.062 C69.558 349.888 70.742 349.714 71.961 349.535 C74.907 349.165 74.907 349.165 77 348 C76.01 343.05 76.01 343.05 75 338 C71.889 338 69.332 339.276 66.438 340.375 Z M-163 355 C-163 358.63 -163 362.26 -163 366 C-160.03 366.33 -157.06 366.66 -154 367 C-152.354 364.73 -152.354 364.73 -151 362 C-151.33 360.68 -151.66 359.36 -152 358 C-155.63 357.01 -159.26 356.02 -163 355 Z M69.812 355.938 C68.461 356.229 68.461 356.229 67.082 356.527 C66.395 356.683 65.708 356.839 65 357 C65.567 361.13 65.567 361.13 67 365 C72.578 365.125 72.578 365.125 78 364 C78 361.36 78 358.72 78 356 C74.617 354.872 73.232 355.182 69.812 355.938 Z M-162 372 C-163.206 372.983 -163.206 372.983 -163.098 374.848 C-163.086 375.579 -163.074 376.309 -163.062 377.062 C-163.042 378.362 -163.021 379.661 -163 381 C-159.701 380.277 -159.701 380.277 -158.312 376.938 C-157.663 375.483 -157.663 375.483 -157 374 C-159.475 373.01 -159.475 373.01 -162 372 Z M70 372 C70.33 374.31 70.66 376.62 71 379 C74.465 378.505 74.465 378.505 78 378 C78 375.69 78 373.38 78 371 C75.272 371 72.683 371.533 70 372 Z " fill="#000000" transform="translate(490,256)"/>
<path d="M0 0 C1.572 0.011 1.572 0.011 3.176 0.022 C21.029 0.341 21.029 0.341 26.062 5.375 C25.688 7.5 25.688 7.5 25.062 9.375 C21.038 10.435 18.07 10.209 14 9.438 C-5.989 6.158 -24.558 11.1 -41.379 22.215 C-43.938 23.375 -43.938 23.375 -46.277 22.566 C-46.825 22.173 -47.373 21.78 -47.938 21.375 C-47.65 18.142 -47.366 16.754 -44.891 14.566 C-30.51 5.901 -16.988 -0.232 0 0 Z " fill="#000000" transform="translate(383.9375,266.625)"/>
<path d="M0 0 C-0.023 2.172 -0.023 2.172 -1 5 C-3.319 7.099 -5.951 8.642 -8.625 10.25 C-9.394 10.728 -10.163 11.206 -10.956 11.699 C-13.295 13.147 -15.647 14.574 -18 16 C-19.266 16.786 -20.532 17.574 -21.797 18.363 C-29.393 23.058 -37.196 27.285 -45.126 31.386 C-50.846 34.352 -56.373 37.517 -61.848 40.918 C-62.913 41.454 -62.913 41.454 -64 42 C-64.66 41.67 -65.32 41.34 -66 41 C-54.724 31.844 -43.387 23.369 -30.938 15.875 C-28.738 14.54 -26.539 13.204 -24.34 11.867 C-23.285 11.227 -22.231 10.588 -21.144 9.929 C-17.111 7.455 -13.125 4.912 -9.147 2.352 C-5.806 0.248 -3.941 -0.104 0 0 Z " fill="#000000" transform="translate(734,269)"/>
<path d="M0 0 C2.125 0.938 2.125 0.938 4 2 C4 3.32 4 4.64 4 6 C2.35 5.67 0.7 5.34 -1 5 C-1.33 3.68 -1.66 2.36 -2 1 C-1.34 0.67 -0.68 0.34 0 0 Z " fill="#000000" transform="translate(195,279)"/>
<path d="M0 0 C4.51 0.511 6.828 2.145 10.25 5.062 C11.214 5.877 12.178 6.692 13.172 7.531 C15.638 9.684 18.075 11.864 20.5 14.062 C24.584 17.744 28.94 20.918 33.406 24.117 C43.158 31.196 43.158 31.196 44 36 C40.72 36.37 39.313 36.209 36.527 34.348 C35.673 33.594 34.818 32.839 33.938 32.062 C30.034 28.71 26.093 25.536 21.938 22.5 C17.104 18.914 12.615 15.095 8.203 11.004 C6.318 9.29 4.397 7.733 2.375 6.188 C1.591 5.466 0.808 4.744 0 4 C0 2.68 0 1.36 0 0 Z " fill="#000000" transform="translate(205,285)"/>
<path d="M0 0 C4.677 0.425 8.041 1.84 12.121 4.105 C12.694 4.421 13.267 4.737 13.858 5.063 C15.723 6.095 17.581 7.14 19.438 8.188 C20.734 8.911 22.031 9.634 23.328 10.357 C35.07 16.933 46.6 23.848 58 31 C58.961 31.599 59.923 32.199 60.913 32.816 C61.878 33.422 62.842 34.028 63.836 34.652 C64.705 35.198 65.575 35.743 66.47 36.304 C69.105 38.07 71.552 39.986 74 42 C73.67 43.32 73.34 44.64 73 46 C69.204 45.316 66.318 43.614 63 41.688 C62.399 41.34 61.798 40.992 61.179 40.634 C54.966 37.022 48.827 33.287 42.677 29.57 C37.099 26.214 31.46 23 25.75 19.875 C19.757 16.58 13.835 13.193 8 9.625 C6.984 9.018 6.984 9.018 5.948 8.398 C2.635 6.34 0.25 4.803 -1 1 C-0.67 0.67 -0.34 0.34 0 0 Z " fill="#000000" transform="translate(167,289)"/>
<path d="M0 0 C0.598 0.227 1.196 0.454 1.812 0.688 C1.197 6.226 1.197 6.226 -0.75 8.562 C-1.462 9.119 -1.462 9.119 -2.188 9.688 C-3.507 9.027 -4.828 8.368 -6.188 7.688 C-5.82 4.971 -5.46 3.077 -3.875 0.812 C-2.188 -0.312 -2.188 -0.312 0 0 Z " fill="#000000" transform="translate(115.1875,301.3125)"/>
<path d="M0 0 C0.66 1.32 1.32 2.64 2 4 C-1.231 6.797 -4.034 7.719 -8.18 8.648 C-9.409 8.929 -10.638 9.21 -11.905 9.5 C-13.228 9.792 -14.552 10.084 -15.875 10.375 C-17.225 10.679 -18.575 10.984 -19.925 11.289 C-22.646 11.904 -25.368 12.513 -28.091 13.12 C-31.658 13.918 -35.215 14.754 -38.77 15.602 C-39.777 15.84 -40.785 16.078 -41.823 16.323 C-43.695 16.765 -45.566 17.213 -47.435 17.666 C-48.265 17.858 -49.094 18.051 -49.949 18.25 C-50.664 18.42 -51.379 18.59 -52.116 18.766 C-54 19 -54 19 -57 18 C-57 17.01 -57 16.02 -57 15 C-49.985 11.632 -42.813 9.197 -35.375 6.938 C-34.228 6.588 -33.081 6.238 -31.899 5.877 C-21.361 2.716 -11.09 -0.223 0 0 Z " fill="#000000" transform="translate(729,307)"/>
<path d="M0 0 C13.545 0.038 26.064 2.769 39.162 6.045 C42.543 6.886 45.928 7.707 49.317 8.519 C65.414 12.382 81.396 16.541 97.25 21.312 C97.944 21.519 98.637 21.726 99.352 21.939 C106.546 24.093 113.409 26.345 120 30 C119.67 31.32 119.34 32.64 119 34 C118.257 33.77 117.513 33.541 116.747 33.304 C107.227 30.7 98.828 31.094 89.188 32.125 C87.634 32.275 86.081 32.423 84.527 32.57 C74.726 33.516 64.97 34.74 55.216 36.078 C45.804 37.298 36.472 37.283 27 37 C27 36.01 27 35.02 27 34 C33.795 33.018 40.59 32.04 47.386 31.064 C49.694 30.732 52.002 30.4 54.311 30.066 C57.642 29.585 60.973 29.107 64.305 28.629 C65.325 28.481 66.345 28.333 67.396 28.181 C73.586 27.296 79.773 26.566 86 26 C84.921 25.719 83.843 25.438 82.732 25.149 C62.906 19.984 43.089 14.79 23.312 9.438 C22.532 9.226 21.751 9.015 20.947 8.798 C13.953 6.905 6.963 5.002 0 3 C0 2.01 0 1.02 0 0 Z " fill="#000000" transform="translate(125,309)"/>
<path d="M0 0 C1.454 0.031 1.454 0.031 2.938 0.062 C1.938 3.062 1.938 3.062 0.125 4.25 C-2.062 5.062 -2.062 5.062 -6.062 5.062 C-3.649 0.074 -3.649 0.074 0 0 Z " fill="#000000" transform="translate(423.0625,326.9375)"/>
<path d="M0 0 C2.64 0 5.28 0 8 0 C8.33 1.32 8.66 2.64 9 4 C6.085 4.81 4.539 5.218 1.688 4.062 C1.131 3.712 0.574 3.361 0 3 C0 2.01 0 1.02 0 0 Z " fill="#000000" transform="translate(467,333)"/>
<path d="M0 0 C0.619 0.495 1.237 0.99 1.875 1.5 C1.545 2.49 1.215 3.48 0.875 4.5 C-2.365 5.364 -5.302 5.519 -8.625 5.438 C-14.904 5.352 -20.957 6.417 -27.125 7.5 C-27.125 6.18 -27.125 4.86 -27.125 3.5 C-20.512 -2.046 -7.707 -3.699 0 0 Z " fill="#000000" transform="translate(711.125,335.5)"/>
<path d="M0 0 C-0.625 1.938 -0.625 1.938 -2 4 C-5.125 4.75 -5.125 4.75 -8 5 C-5.961 0.485 -5.191 0 0 0 Z " fill="#000000" transform="translate(385,344)"/>
<path d="M0 0 C0 1.32 0 2.64 0 4 C-7.286 7.571 -7.286 7.571 -12 6 C-11 3 -11 3 -8.25 1.312 C-5.15 0.06 -3.283 -0.29 0 0 Z " fill="#000000" transform="translate(408,347)"/>
<path d="M0 0 C-3.607 3.607 -8.92 4.545 -13.688 6.125 C-14.87 6.518 -16.053 6.911 -17.272 7.316 C-26.724 10.391 -36.254 13.073 -45.875 15.562 C-46.547 15.738 -47.22 15.914 -47.913 16.095 C-59.934 19.216 -59.934 19.216 -65 19 C-65.33 17.68 -65.66 16.36 -66 15 C-56.967 11.292 -47.656 9.016 -38.185 6.762 C-35.202 6.048 -32.222 5.32 -29.244 4.588 C-26.528 3.923 -23.809 3.267 -21.09 2.614 C-19.745 2.29 -18.401 1.962 -17.057 1.63 C-15.156 1.163 -13.252 0.71 -11.348 0.258 C-10.244 -0.009 -9.141 -0.276 -8.004 -0.55 C-4.981 -1.003 -2.925 -0.805 0 0 Z " fill="#000000" transform="translate(235,348)"/>
<path d="M0 0 C2.475 0.99 2.475 0.99 5 2 C4.67 2.99 4.34 3.98 4 5 C1.525 4.01 1.525 4.01 -1 3 C-0.67 2.01 -0.34 1.02 0 0 Z " fill="#000000" transform="translate(544,351)"/>
<path d="M0 0 C-0.188 1.812 -0.188 1.812 -1 4 C-4.373 6.623 -6.757 7.364 -11 7 C-10.938 4.688 -10.938 4.688 -10 2 C-4 -1.333 -4 -1.333 0 0 Z " fill="#000000" transform="translate(458,354)"/>
<path d="M0 0 C2.752 1.955 3.802 3.141 4.562 6.438 C3.613 10.763 0.555 12.896 -2.938 15.375 C-6.005 16.305 -7.963 15.969 -11 15 C-13 12.812 -13 12.812 -14 10 C-13.41 5.867 -12.418 4.361 -9.25 1.625 C-5.706 -0.147 -3.893 -0.677 0 0 Z M-8 8 C-8.417 11.126 -8.417 11.126 -8 14 C-3.043 12.761 -0.883 11.214 2 7 C1.67 6.34 1.34 5.68 1 5 C-3.291 5 -4.756 5.296 -8 8 Z " fill="#000000" transform="translate(530,354)"/>
<path d="M0 0 C-0.677 2.354 -1.502 3.693 -3.601 4.986 C-5.668 5.976 -7.756 6.876 -9.875 7.75 C-10.956 8.224 -10.956 8.224 -12.059 8.707 C-15.754 10.279 -17.863 11 -22 11 C-19.657 5.353 -14.655 3.36 -9.438 0.688 C-6.242 -0.214 -3.301 -0.129 0 0 Z " fill="#000000" transform="translate(405,365)"/>
<path d="M0 0 C3.295 2.636 4.861 4.415 5.875 8.562 C4.784 13.62 1.305 15.872 -2.812 18.75 C-6.421 20.99 -9.239 21.769 -13.562 21.625 C-16.732 20.772 -17.979 20.399 -19.812 17.75 C-21.019 14.131 -21.135 11.558 -20.812 7.75 C-16.65 -0.576 -8.663 -3.85 0 0 Z M-13.25 6.438 C-15.083 9.15 -15.246 10.54 -14.812 13.75 C-14.483 14.08 -14.152 14.41 -13.812 14.75 C-7.689 14.51 -5.083 12.813 -0.812 8.75 C-1.142 7.76 -1.473 6.77 -1.812 5.75 C-5.773 3.77 -9.638 3.937 -13.25 6.438 Z " fill="#000000" transform="translate(458.8125,376.25)"/>
<path d="M0 0 C0.33 0 0.66 0 1 0 C1.33 15.18 1.66 30.36 2 46 C0.68 46 -0.64 46 -2 46 C-2.956 41.188 -3.156 36.513 -3.125 31.625 C-3.12 30.453 -3.12 30.453 -3.115 29.257 C-2.928 7.761 -2.928 7.761 0 0 Z " fill="#000000" transform="translate(537,387)"/>
<path d="M0 0 C0.99 0.33 1.98 0.66 3 1 C4 4 4 4 3 7 C2.01 7.33 1.02 7.66 0 8 C-2 5 -2 5 -1.688 2.875 C-1 1 -1 1 0 0 Z " fill="#000000" transform="translate(551,387)"/>
<path d="M0 0 C3.819 2.668 6.342 5.82 7.828 10.277 C8.336 16.494 8.6 22.045 4.828 27.277 C0.079 32.038 -3.49 34.4 -10.359 34.652 C-16.155 34.591 -19.88 33.164 -24.172 29.277 C-28.332 23.943 -29.614 20.022 -29.172 13.277 C-27.793 6.723 -24.658 2.991 -19.172 -0.723 C-12.739 -4.351 -6.21 -3.435 0 0 Z M-10.172 5.277 C-9.945 6.535 -9.718 7.794 -9.484 9.09 C-9.023 12.971 -9.023 12.971 -10.172 15.34 C-14.112 17.187 -18.231 15.591 -22.172 14.277 C-22.519 18.009 -22.464 19.818 -20.422 23.027 C-17.675 25.819 -17.675 25.819 -14.172 27.277 C-8.887 27.085 -5.919 26.024 -2.172 22.277 C0.117 19.008 0.3 16.208 -0.172 12.277 C-1.653 8.889 -1.653 8.889 -4.172 6.277 C-7.305 5.309 -7.305 5.309 -10.172 5.277 Z " fill="#000000" transform="translate(313.171875,409.72265625)"/>
<path d="M0 0 C5.031 2.975 8.831 6.386 10.719 12.051 C11.603 19.507 11.238 25.155 6.551 31.203 C2.402 35.387 -1.913 37.217 -7.781 37.551 C-13.347 37.253 -18.047 35.49 -21.855 31.332 C-26.202 25.453 -26.901 20.267 -26.281 13.051 C-24.206 7.263 -20.645 3.645 -15.594 0.238 C-10.355 -1.64 -5.241 -2.181 0 0 Z M-7.281 7.051 C-7.258 7.677 -7.235 8.304 -7.211 8.949 C-7.184 10.175 -7.184 10.175 -7.156 11.426 C-7.133 12.238 -7.11 13.05 -7.086 13.887 C-7.281 16.051 -7.281 16.051 -9.281 18.051 C-12.813 17.73 -15.916 17.173 -19.281 16.051 C-19.763 20.099 -19.42 21.821 -17.281 25.363 C-14.584 28.275 -12.117 29.02 -8.203 29.219 C-4.032 28.854 -1.856 26.61 1.031 23.801 C3.213 20.246 3.233 18.161 2.719 14.051 C1.067 10.512 0.003 9.24 -3.281 7.051 C-4.601 7.051 -5.921 7.051 -7.281 7.051 Z " fill="#000000" transform="translate(357.28125,411.94921875)"/>
<path d="M0 0 C2.5 0.062 2.5 0.062 5 1 C7.232 5.103 7.299 8.891 7.312 13.5 C7.329 14.789 7.346 16.078 7.363 17.406 C6.987 21.129 6.179 23.011 4 26 C2.062 25.438 2.062 25.438 0 24 C-0.75 20.375 -0.75 20.375 -1 17 C-1.678 17.447 -2.356 17.895 -3.055 18.355 C-21.679 30.454 -46.298 40.061 -69.001 35.607 C-70.918 35.109 -70.918 35.109 -74 34 C-74.33 33.34 -74.66 32.68 -75 32 C-73 29 -73 29 -71.087 28.555 C-69.92 28.501 -69.92 28.501 -68.73 28.445 C-67.852 28.391 -66.974 28.336 -66.069 28.28 C-65.118 28.229 -64.167 28.178 -63.188 28.125 C-42.823 26.633 -23.777 21.422 -6.074 11.102 C-4 10 -4 10 -2 10 C-2.041 8.721 -2.082 7.442 -2.125 6.125 C-2.195 3.945 -2.195 3.945 -2 2 C-1.34 1.34 -0.68 0.68 0 0 Z " fill="#000000" transform="translate(372,443)"/>
<path d="M0 0 C0.99 0.33 1.98 0.66 3 1 C2.67 2.32 2.34 3.64 2 5 C1.01 5 0.02 5 -1 5 C-0.67 3.35 -0.34 1.7 0 0 Z " fill="#000000" transform="translate(477,458)"/>
<path d="M0 0 C0 0.99 0 1.98 0 3 C-0.846 3.33 -1.691 3.66 -2.562 4 C-7.899 7.105 -11.645 11.55 -14.625 16.938 C-16 19 -16 19 -18.688 19.812 C-19.451 19.874 -20.214 19.936 -21 20 C-21.695 18.344 -21.695 18.344 -22 16 C-20.742 13.344 -20.742 13.344 -18.875 10.5 C-17.974 9.092 -17.974 9.092 -17.055 7.656 C-11.869 0.952 -8.005 -0.129 0 0 Z " fill="#000000" transform="translate(394,472)"/>
<path d="M0 0 C2.25 1 2.25 1 3.688 2.938 C4.684 8.365 3.718 13.46 0.949 18.25 C-1.932 22.182 -5.209 25.65 -8.75 29 C-9.348 29.598 -9.946 30.196 -10.562 30.812 C-10.954 31.204 -11.346 31.596 -11.75 32 C-12.74 31.67 -13.73 31.34 -14.75 31 C-14.254 26.707 -11.714 24.531 -8.812 21.5 C-3.2 15.774 -3.2 15.774 -1.625 8.25 C-1.666 7.178 -1.707 6.105 -1.75 5 C-9.49 9.168 -14.237 16.638 -19.41 23.539 C-19.853 24.126 -20.295 24.712 -20.751 25.317 C-21.609 26.458 -22.459 27.606 -23.3 28.76 C-25.497 31.696 -27.266 33.716 -30.75 35 C-31.99 31.511 -31.99 31.511 -30.937 29.268 C-30.499 28.695 -30.061 28.122 -29.609 27.531 C-29.121 26.883 -28.633 26.235 -28.129 25.567 C-27.592 24.885 -27.054 24.203 -26.5 23.5 C-25.956 22.795 -25.412 22.091 -24.851 21.365 C-8.145 0 -8.145 0 0 0 Z " fill="#000000" transform="translate(771.75,518)"/>
<path d="M0 0 C-0.56 3.562 -1.663 4.923 -4.465 7.137 C-5.178 7.71 -5.892 8.283 -6.626 8.874 C-7.389 9.472 -8.152 10.071 -8.938 10.688 C-10.492 11.936 -12.046 13.186 -13.598 14.438 C-14.353 15.045 -15.109 15.652 -15.887 16.277 C-21.162 20.578 -26.225 25.15 -31 30 C-31.99 29.67 -32.98 29.34 -34 29 C-32.951 19.907 -21.121 12.856 -14.539 7.635 C-4.865 0 -4.865 0 0 0 Z " fill="#000000" transform="translate(234,555)"/>
<path d="M0 0 C4.489 1.262 7.303 3.787 10.66 6.867 C12.402 8.455 14.189 9.995 15.996 11.508 C17.018 12.38 18.041 13.252 19.062 14.125 C20.023 14.932 20.983 15.739 21.973 16.57 C24 19 24 19 23.809 21.805 C23.542 22.529 23.275 23.254 23 24 C18.137 22.506 15.162 19.743 11.562 16.312 C10.991 15.774 10.419 15.235 9.83 14.68 C5.945 10.985 2.151 7.355 -1 3 C-0.67 2.01 -0.34 1.02 0 0 Z " fill="#000000" transform="translate(161,556)"/>
<path d="M0 0 C-0.515 4.002 -2.254 5.395 -5.375 7.812 C-19.984 19 -19.984 19 -26 19 C-26.33 18.01 -26.66 17.02 -27 16 C-8.948 -3.217 -8.948 -3.217 0 0 Z " fill="#000000" transform="translate(245,564)"/>
<path d="M0 0 C1.148 3.685 0.743 5.995 -0.738 9.602 C-5.88 19.375 -15.157 32.424 -26 36 C-29.227 33.338 -30.85 31.882 -31.562 27.688 C-30.342 19.685 -25.911 13.415 -20 8 C-13.189 3.127 -8.436 -0.156 0 0 Z M-19 14 C-23.307 18.465 -26.834 22.54 -27 29 C-23.029 29.412 -23.029 29.412 -20.668 27.164 C-11.21 17.677 -11.21 17.677 -5 6 C-10.592 6 -14.863 10.526 -19 14 Z " fill="#000000" transform="translate(717,563)"/>
<path d="M0 0 C3.603 0.62 5.862 2.109 8.75 4.312 C9.549 4.907 10.348 5.501 11.172 6.113 C13 8 13 8 13 12 C9.397 11.38 7.138 9.891 4.25 7.688 C3.451 7.093 2.652 6.499 1.828 5.887 C0 4 0 4 0 0 Z " fill="#000000" transform="translate(156,568)"/>
<path d="M0 0 C-0.25 1.875 -0.25 1.875 -1 4 C-3.062 5.25 -3.062 5.25 -5 6 C-5.33 4.68 -5.66 3.36 -6 2 C-3 0 -3 0 0 0 Z " fill="#000000" transform="translate(720,585)"/>
<path d="M0 0 C6.69 0.54 12.635 1.887 19 4 C18.67 5.32 18.34 6.64 18 8 C11.039 7.613 6.061 5.366 0 2 C0 1.34 0 0.68 0 0 Z " fill="#000000" transform="translate(618,593)"/>
<path d="M0 0 C3.89 5.77 2.485 13.657 1.312 20.145 C-2.299 37.818 -9.797 49.783 -24.562 60.188 C-26.211 61.367 -27.858 62.548 -29.504 63.73 C-30.274 64.283 -31.043 64.835 -31.836 65.404 C-34.664 67.49 -37.337 69.708 -40 72 C-52.63 67.06 -60.801 62.606 -67 50 C-68.165 46.562 -68.233 43.176 -68.312 39.562 C-68.369 37.894 -68.369 37.894 -68.426 36.191 C-67.909 32.318 -66.739 30.734 -64 28 C-60.313 26.637 -58.681 26.71 -55.062 28.25 C-46.449 34.867 -42.293 47.33 -38 57 C-36.952 54.962 -35.91 52.92 -34.875 50.875 C-34.53 50.193 -34.184 49.511 -33.828 48.808 C-31.324 43.8 -28.95 38.741 -26.633 33.645 C-26.029 32.324 -25.425 31.003 -24.821 29.682 C-23.917 27.705 -23.017 25.727 -22.132 23.741 C-10.293 -2.788 -10.293 -2.788 0 0 Z M-8 14 C-13.61 25.55 -19.22 37.1 -25 49 C-24.01 49 -23.02 49 -22 49 C-12.741 39.16 -8.565 27.173 -7 14 C-7.33 14 -7.66 14 -8 14 Z M-60 37 C-59.546 47.007 -56.227 52.266 -49 59 C-48.34 58.67 -47.68 58.34 -47 58 C-48.268 55.436 -49.54 52.874 -50.812 50.312 C-51.169 49.591 -51.525 48.87 -51.893 48.127 C-54.687 42.415 -54.687 42.415 -58 37 C-58.66 37 -59.32 37 -60 37 Z " fill="#000000" transform="translate(500,608)"/>
<path d="M0 0 C-1.471 8.063 -9.604 13.527 -15.439 18.699 C-19.874 22.705 -23.42 27.061 -26.965 31.883 C-29.308 34.321 -30.683 34.712 -34 35 C-34.707 33.32 -34.707 33.32 -35 31 C-29.868 21.352 -12.529 0 0 0 Z " fill="#000000" transform="translate(611,611)"/>
<path d="M0 0 C3.419 0.269 4.744 0.737 7.176 3.23 C11.236 8.849 15.092 14.532 18.625 20.5 C18.98 21.087 19.335 21.674 19.7 22.278 C21.154 24.829 22.068 26.438 21.711 29.406 C21.476 29.932 21.242 30.458 21 31 C17.102 30.117 15.431 28.539 13.281 25.332 C12.341 23.834 11.414 22.327 10.5 20.812 C9.575 19.318 8.647 17.825 7.719 16.332 C7.271 15.605 6.823 14.877 6.362 14.128 C5.041 12.064 3.635 10.101 2.176 8.133 C-0.025 4.964 -0.567 3.742 0 0 Z " fill="#000000" transform="translate(223,614)"/>
<path d="M0 0 C0.66 0.33 1.32 0.66 2 1 C1.466 1.487 0.933 1.975 0.383 2.477 C-5.096 7.69 -9.462 13.146 -13.548 19.477 C-14.738 21.254 -14.738 21.254 -17 24 C-18.32 24 -19.64 24 -21 24 C-20.198 16.225 -15.576 11.144 -9.832 6.094 C-6.728 3.718 -3.629 1.5 0 0 Z " fill="#000000" transform="translate(622,618)"/>
<path d="M0 0 C0.99 0.66 1.98 1.32 3 2 C2.163 9.116 -2.586 13.951 -7.5 18.812 C-8.274 19.584 -8.274 19.584 -9.064 20.37 C-23.577 34.518 -23.577 34.518 -31.438 35.375 C-35 35 -35 35 -37.062 32.875 C-38.298 29.086 -37.708 27.564 -36 24 C-28.932 12.515 -11.674 5.656 0 0 Z M-29.242 22.895 C-31.24 25.288 -31.668 26.934 -32 30 C-23.998 28.654 -17.368 20.533 -11.5 15.25 C-10.984 14.791 -10.467 14.331 -9.936 13.858 C-7.302 11.448 -5.314 9.347 -4 6 C-11.906 6 -23.502 17.846 -29.242 22.895 Z " fill="#000000" transform="translate(377,618)"/>
<path d="M0 0 C2.968 0.34 3.973 0.973 6.105 3.145 C6.793 4.025 7.48 4.905 8.188 5.812 C9.23 7.122 9.23 7.122 10.293 8.457 C11.84 10.762 12.577 12.294 13 15 C11.68 15.33 10.36 15.66 9 16 C7.87 14.755 6.746 13.504 5.625 12.25 C4.999 11.554 4.372 10.858 3.727 10.141 C0.815 6.531 0 4.725 0 0 Z " fill="#000000" transform="translate(215,625)"/>
<path d="M0 0 C-0.568 3.476 -1.662 5.025 -4.312 7.312 C-4.907 7.845 -5.501 8.377 -6.113 8.926 C-8 10 -8 10 -10.23 9.668 C-10.814 9.448 -11.398 9.227 -12 9 C-11.75 5.619 -10.719 4.719 -8.25 2.25 C-4.984 -0.011 -3.831 -0.563 0 0 Z " fill="#000000" transform="translate(632,630)"/>
<path d="M0 0 C1.938 0.125 1.938 0.125 4 1 C5.312 3.438 5.312 3.438 6 6 C5.67 6.66 5.34 7.32 5 8 C2.562 7.312 2.562 7.312 0 6 C-0.875 3.438 -0.875 3.438 -1 1 C-0.67 0.67 -0.34 0.34 0 0 Z " fill="#000000" transform="translate(209,633)"/>
<path d="M0 0 C0.52 7.215 -2.763 11.425 -7 17 C-11.149 21.53 -16.228 24.867 -22 27 C-22.99 27 -23.98 27 -25 27 C-23.679 23.036 -21.971 22.524 -18.438 20.375 C-11.359 15.802 -5.699 10.645 -2 3 C-11.395 5.587 -18.935 10.642 -27.113 15.814 C-28.72 16.809 -28.72 16.809 -30.359 17.824 C-31.323 18.434 -32.287 19.043 -33.28 19.671 C-36.146 21.071 -37.859 21.29 -41 21 C-41.33 19.68 -41.66 18.36 -42 17 C-36.156 12.631 -30.093 8.78 -23.75 5.188 C-22.741 4.61 -22.741 4.61 -21.711 4.022 C-15.331 0.459 -7.212 -3.606 0 0 Z " fill="#000000" transform="translate(298,634)"/>
<path d="M0 0 C-0.304 3.552 -0.976 4.971 -3.312 7.75 C-5.745 9.786 -6.92 10.658 -10 11 C-10.495 8.525 -10.495 8.525 -11 6 C-3.923 0 -3.923 0 0 0 Z " fill="#000000" transform="translate(377,642)"/>
<path d="M0 0 C13.94 5.504 13.94 5.504 18 9 C18 10.32 18 11.64 18 13 C11.881 12.686 7.667 9.702 3 6 C0.438 3.125 0.438 3.125 -1 1 C-0.67 0.67 -0.34 0.34 0 0 Z " fill="#000000" transform="translate(530,642)"/>
<path d="M0 0 C5.205 0.964 9.599 1.877 14 5 C13.34 6.32 12.68 7.64 12 9 C10.373 8.381 8.748 7.755 7.125 7.125 C6.22 6.777 5.315 6.429 4.383 6.07 C2 5 2 5 0 3 C0 2.01 0 1.02 0 0 Z " fill="#000000" transform="translate(516,652)"/>
</svg>
