<?xml version="1.0" encoding="UTF-8"?>
<!-- Generator: visioncortex VTracer 0.6.0 -->
<svg version="1.1" xmlns="http://www.w3.org/2000/svg" width="847" height="847">
<path d="M0 0 C0.99 0.33 1.98 0.66 3 1 C1.352 6.237 -1.902 10.267 -5.125 14.625 C-5.706 15.42 -6.287 16.214 -6.885 17.033 C-8.047 18.621 -9.211 20.208 -10.377 21.793 C-12.535 24.728 -14.674 27.676 -16.812 30.625 C-17.875 32.084 -18.937 33.542 -20 35 C-20.99 34.01 -21.98 33.02 -23 32 C-15.455 21.242 -7.813 10.566 0 0 Z " fill="#000000" transform="translate(436,141)"/>
<path d="M0 0 C4.985 3.135 9.372 6.877 12.629 11.832 C12.629 12.492 12.629 13.152 12.629 13.832 C13.289 13.832 13.949 13.832 14.629 13.832 C14.546 13.09 14.464 12.347 14.379 11.582 C14.629 8.832 14.629 8.832 16.254 6.52 C19.354 4.317 20.894 4.222 24.629 4.832 C28.636 7.291 30.247 9.398 31.629 13.832 C31.824 17.164 31.824 17.164 31.754 20.645 C31.736 21.806 31.718 22.967 31.699 24.164 C31.664 25.485 31.664 25.485 31.629 26.832 C32.491 26.869 33.354 26.907 34.242 26.945 C53.939 28.006 80.201 29.509 95.441 43.395 C99.806 49.249 101.4 57.072 102.566 64.145 C103.316 68.353 104.77 70.695 107.387 74 C112.185 81.077 112.613 90.156 111.195 98.332 C108.703 108.24 103.163 115.503 94.547 120.871 C92.629 121.832 92.629 121.832 90.629 121.832 C90.378 122.709 90.126 123.585 89.867 124.488 C87.836 129.973 84.177 134.234 80.629 138.832 C79.923 139.756 79.923 139.756 79.203 140.699 C77.142 143.291 75.257 145.09 72.517 146.987 C69.734 149.29 69.642 149.758 68.948 153.613 C68.949 155.068 68.982 156.523 69.043 157.977 C69.051 158.746 69.06 159.516 69.069 160.309 C69.102 162.756 69.177 165.199 69.254 167.645 C69.284 169.308 69.311 170.971 69.336 172.635 C69.402 176.702 69.505 180.766 69.629 184.832 C70.689 185.155 71.749 185.477 72.841 185.809 C98.242 193.598 120.16 204.958 136.191 226.668 C138.492 229.654 140.935 232.205 143.629 234.832 C147.797 239.591 149.474 245.133 151.109 251.117 C151.328 251.914 151.547 252.711 151.772 253.532 C153.847 261.308 155.235 269.13 156.441 277.082 C156.688 278.648 156.935 280.214 157.182 281.779 C158.691 291.396 160.103 301.027 161.508 310.66 C169.668 368.718 169.668 368.718 183.039 425.73 C188.884 446.005 191.657 465.871 182.312 485.613 C177.267 494.741 170.442 500.391 160.629 503.832 C153.6 505.84 147.068 505.193 140.629 501.832 C137.566 499.52 137.566 499.52 135.629 496.832 C135.95 492.306 137.372 488.982 139.504 485.02 C144.889 474.573 148.145 465.414 144.629 453.832 C142.668 456.672 142.668 456.672 141.367 459.172 C138.196 464.949 135.88 468.445 129.629 470.832 C126.816 470.832 126.816 470.832 124.629 469.832 C122.434 467.338 122.634 465.74 122.801 462.426 C123.742 455.522 126.892 449.142 129.566 442.764 C134.131 431.287 131.438 423.633 128.129 412.082 C123.772 396.41 120.61 380.539 117.512 364.577 C117.234 363.145 117.234 363.145 116.95 361.684 C116.601 359.879 116.254 358.073 115.91 356.266 C115.755 355.462 115.601 354.657 115.442 353.827 C115.241 352.774 115.241 352.774 115.037 351.699 C114.617 349.619 114.617 349.619 113.629 346.832 C112.781 347.219 111.933 347.605 111.059 348.004 C104.752 350.804 98.78 353.143 92.066 354.77 C87.617 355.941 85.013 356.727 82.379 360.582 C81.801 361.655 81.224 362.727 80.629 363.832 C79.969 363.832 79.309 363.832 78.629 363.832 C78.629 364.492 78.629 365.152 78.629 365.832 C79.289 365.832 79.949 365.832 80.629 365.832 C92.556 387.921 91.29 408.196 89.254 432.645 C85.577 477.065 85.38 521.289 85.629 565.832 C87.081 565.816 87.081 565.816 88.562 565.8 C206.652 564.643 206.652 564.643 235.629 589.395 C238.877 593.354 238.877 593.354 238.629 596.832 C235.103 602.8 230.283 605.54 223.725 607.361 C221.534 607.868 219.34 608.3 217.129 608.707 C216.241 608.871 215.352 609.036 214.437 609.205 C171.018 616.88 126.628 619.887 82.629 621.832 C81.724 621.872 80.819 621.913 79.886 621.954 C63.807 622.658 47.758 623.005 31.664 623.035 C29.35 623.042 27.037 623.049 24.723 623.056 C17.379 623.076 10.035 623.081 2.691 623.082 C0.814 623.083 0.814 623.083 -1.101 623.083 C-38.947 623.09 -76.627 622.854 -114.371 619.832 C-115.515 619.742 -116.659 619.653 -117.837 619.561 C-146.461 617.31 -175.05 614.638 -203.371 609.832 C-204.375 609.663 -205.379 609.495 -206.413 609.321 C-224.738 606.128 -224.738 606.128 -230.371 599.832 C-231.809 596.395 -231.809 596.395 -231.371 592.832 C-225.958 583.228 -212.753 578.679 -202.661 575.462 C-198.79 574.397 -194.913 573.823 -190.934 573.332 C-189.966 573.211 -188.998 573.09 -188.001 572.965 C-166.062 570.391 -143.925 569.07 -121.855 568.34 C-120.725 568.301 -119.595 568.262 -118.431 568.223 C-112.891 568.036 -107.351 567.871 -101.809 567.742 C-99.777 567.68 -97.744 567.618 -95.711 567.555 C-94.797 567.541 -93.883 567.528 -92.941 567.514 C-86.989 567.306 -81.128 566.715 -76.371 562.832 C-74.593 559.568 -74.021 556.262 -73.402 552.621 C-73.196 551.599 -72.989 550.576 -72.776 549.522 C-72.106 546.173 -71.489 542.816 -70.871 539.457 C-70.409 537.118 -69.943 534.781 -69.472 532.444 C-68.528 527.752 -67.599 523.058 -66.679 518.362 C-64.972 509.739 -62.998 501.188 -60.934 492.645 C-60.755 491.902 -60.577 491.159 -60.393 490.393 C-59.272 485.722 -58.137 481.054 -56.995 476.388 C-56.331 473.666 -55.67 470.944 -55.009 468.222 C-49.702 446.393 -44.19 424.633 -38.059 403.02 C-37.822 402.178 -37.585 401.336 -37.341 400.469 C-34.772 391.364 -31.963 382.389 -28.719 373.5 C-28.434 372.717 -28.15 371.934 -27.856 371.127 C-25.663 365.254 -22.888 360.027 -19.371 354.832 C-17.03 351.368 -15.996 349.216 -16.184 345.02 C-16.211 344.229 -16.238 343.439 -16.266 342.625 C-16.3 342.033 -16.335 341.442 -16.371 340.832 C-17.48 340.601 -18.588 340.371 -19.73 340.133 C-21.194 339.804 -22.658 339.475 -24.121 339.145 C-24.851 338.996 -25.58 338.847 -26.332 338.693 C-29.98 337.848 -32.025 337.141 -34.867 334.602 C-36.703 331.221 -36.811 329.034 -36.684 325.207 C-36.659 324.08 -36.635 322.954 -36.609 321.793 C-36.371 318.832 -36.371 318.832 -35.371 315.832 C-36.031 315.832 -36.691 315.832 -37.371 315.832 C-37.585 316.353 -37.799 316.874 -38.02 317.41 C-39.931 320.835 -42.429 323.63 -44.996 326.582 C-45.532 327.202 -46.067 327.821 -46.619 328.46 C-58.928 342.592 -58.928 342.592 -65.184 343.207 C-82.088 342.883 -95.96 329.552 -107.484 318.57 C-109.755 316.417 -112.048 314.354 -114.434 312.332 C-118.049 309.199 -121.467 305.879 -124.871 302.52 C-125.683 301.727 -125.683 301.727 -126.512 300.918 C-127.838 299.595 -129.11 298.217 -130.371 296.832 C-130.371 296.172 -130.371 295.512 -130.371 294.832 C-131.185 295.573 -131.185 295.573 -132.016 296.328 C-132.731 296.969 -133.446 297.609 -134.184 298.27 C-134.891 298.908 -135.599 299.546 -136.328 300.203 C-140.121 303.227 -143.669 303.231 -148.371 302.832 C-152.95 300.63 -154.838 298.521 -156.724 293.841 C-157.841 290.375 -158.209 286.882 -158.559 283.27 C-158.64 282.541 -158.722 281.812 -158.807 281.061 C-159.245 276.967 -159.456 272.955 -159.371 268.832 C-160.052 268.667 -160.732 268.502 -161.434 268.332 C-168.71 264.617 -172.087 258.124 -174.645 250.641 C-176.138 244.868 -176.528 239.216 -176.559 233.27 C-176.573 232.01 -176.587 230.751 -176.602 229.453 C-176.373 225.862 -175.785 223.131 -174.371 219.832 C-171.414 218.354 -168.629 218.772 -165.371 218.832 C-165.818 214.602 -166.28 210.373 -166.746 206.145 C-166.872 204.946 -166.999 203.748 -167.129 202.514 C-167.258 201.357 -167.387 200.2 -167.52 199.008 C-167.635 197.945 -167.75 196.882 -167.869 195.786 C-168.361 192.892 -169.174 190.504 -170.371 187.832 C-171.379 187.864 -172.387 187.896 -173.426 187.93 C-189.582 187.53 -204.387 179.288 -215.371 167.832 C-228.221 153.856 -233.546 137.594 -233.371 118.832 C-232.617 103.679 -227.182 90.384 -217.371 78.832 C-216.705 78.042 -216.038 77.252 -215.352 76.438 C-204.498 64.617 -188.554 57.608 -172.629 56.594 C-154.313 56.099 -136.787 60.562 -122.934 73.207 C-109.431 86.163 -101.663 101.081 -101.041 119.896 C-100.73 137.999 -105.487 154.336 -118.129 167.669 C-125.744 175.402 -134 181.375 -144.371 184.832 C-146.529 190.898 -146.431 195.84 -145.559 202.145 C-145.463 202.942 -145.367 203.739 -145.268 204.561 C-144.864 207.777 -144.398 210.75 -143.371 213.832 C-142.505 213.605 -141.639 213.378 -140.746 213.145 C-136.525 212.754 -134.891 213.51 -131.371 215.832 C-127.668 219.62 -125.709 222.734 -124.371 227.832 C-124.405 229.959 -124.512 232.086 -124.684 234.207 C-124.805 239.286 -124.318 241.741 -120.871 245.52 C-119.897 246.423 -119.897 246.423 -118.902 247.344 C-118.397 247.835 -117.892 248.326 -117.371 248.832 C-117.371 249.492 -117.371 250.152 -117.371 250.832 C-116.711 250.832 -116.051 250.832 -115.371 250.832 C-114.208 252.235 -113.048 253.641 -111.906 255.062 C-109.056 258.348 -105.709 261.057 -102.371 263.832 C-101.595 264.484 -100.819 265.137 -100.02 265.809 C-87.683 276.684 -87.683 276.684 -72.969 281.73 C-69.325 280.47 -68.343 278.643 -66.184 275.457 C-65.568 274.561 -65.568 274.561 -64.941 273.647 C-63.399 271.387 -61.885 269.111 -60.371 266.832 C-58.973 264.742 -57.574 262.652 -56.176 260.562 C-53.062 255.903 -49.957 251.238 -46.855 246.57 C-28.577 219.08 -28.577 219.08 -20.371 209.832 C-19.804 209.182 -19.237 208.533 -18.652 207.863 C-7.5 195.87 9.97 189.539 25.629 185.832 C27.279 185.832 28.929 185.832 30.629 185.832 C30.629 180.552 30.629 175.272 30.629 169.832 C28.5 170.265 28.5 170.265 26.328 170.707 C7.236 174.367 -20.124 179.274 -38.059 169.02 C-42.672 164.656 -44.158 159.516 -44.516 153.319 C-44.542 150.344 -44.56 147.37 -44.559 144.395 C-44.559 143.295 -44.56 142.196 -44.561 141.063 C-44.502 131.76 -43.798 122.597 -42.809 113.352 C-42.214 107.653 -42.296 102.476 -43.371 96.832 C-44.179 96.878 -44.988 96.925 -45.82 96.973 C-54.591 97.269 -54.591 97.269 -58.496 95.082 C-64.137 88.313 -63.576 80.261 -63.621 71.832 C-63.652 70.374 -63.652 70.374 -63.684 68.887 C-63.713 63.467 -63.543 59.456 -60.371 54.832 C-56.091 51.978 -52.349 51.703 -47.289 51.734 C-46.358 51.738 -45.426 51.741 -44.467 51.744 C-43.507 51.753 -42.547 51.761 -41.559 51.77 C-40.58 51.774 -39.601 51.779 -38.592 51.783 C-36.185 51.795 -33.778 51.811 -31.371 51.832 C-31.077 50.817 -31.077 50.817 -30.776 49.781 C-30.514 48.888 -30.251 47.994 -29.98 47.074 C-29.722 46.191 -29.464 45.308 -29.198 44.398 C-28.473 42.147 -27.629 40.091 -26.621 37.957 C-25.223 35.064 -25.223 35.064 -25.434 32.707 C-26.357 30.658 -26.357 30.658 -28.309 28.645 C-31.046 24.912 -31.963 21.417 -32.371 16.832 C-31.688 13.339 -30.835 12.243 -28.184 9.895 C-24.251 8.409 -22.227 9.317 -18.371 10.832 C-15.434 12.457 -15.434 12.457 -13.371 13.832 C-13.866 13.172 -14.361 12.512 -14.871 11.832 C-16.936 7.703 -16.964 5.424 -16.371 0.832 C-11.934 -3.892 -5.341 -2.631 0 0 Z M-13.371 2.832 C-13.225 8.544 -10.52 11.531 -6.965 15.684 C-5.387 17.811 -4.792 19.248 -4.371 21.832 C-9.649 19.767 -14.203 17.15 -18.941 14.039 C-21.692 12.673 -23.34 12.439 -26.371 12.832 C-28.738 14.796 -28.738 14.796 -28.871 18.457 C-28.711 22.876 -27.269 25.652 -24.449 29.012 C-3.483 47.377 44.424 43.61 70.566 44.52 C71.584 44.557 71.584 44.557 72.623 44.595 C74.55 44.664 76.478 44.723 78.406 44.781 C79.512 44.816 80.618 44.85 81.758 44.885 C84.263 44.839 86.251 44.575 88.629 43.832 C88.629 43.172 88.629 42.512 88.629 41.832 C70.19 33.163 47.975 29.256 27.629 29.832 C27.869 29.01 27.869 29.01 28.113 28.172 C29.305 22.764 29.449 16.946 27.441 11.77 C25.336 9.519 23.562 8.704 20.629 7.832 C19.022 8.977 19.022 8.977 17.629 10.832 C17.266 13.574 17.266 13.574 17.441 16.52 C17.468 17.513 17.496 18.507 17.523 19.531 C17.576 20.67 17.576 20.67 17.629 21.832 C13.783 20.55 13.123 18.971 10.879 15.645 C6.708 9.74 2.396 4.706 -4.371 1.832 C-9.028 1.49 -9.028 1.49 -13.371 2.832 Z M-21.371 34.832 C-23.681 40.442 -25.991 46.052 -28.371 51.832 C-26.648 53.555 -24.347 52.966 -21.997 52.974 C-20.275 52.984 -20.275 52.984 -18.517 52.995 C-16.641 53.001 -16.641 53.001 -14.727 53.008 C-12.105 53.031 -9.483 53.055 -6.861 53.08 C-2.707 53.116 1.447 53.146 5.602 53.158 C8.304 53.166 11.007 53.185 13.709 53.215 C16.259 53.243 18.809 53.256 21.358 53.252 C23.095 53.277 23.095 53.277 24.866 53.302 C25.885 53.308 26.903 53.314 27.953 53.32 C31.354 53.971 32.545 55.11 34.629 57.832 C34.991 60.468 35.121 62.675 35.055 65.301 C35.05 66.377 35.05 66.377 35.045 67.474 C35.029 69.761 34.985 72.046 34.941 74.332 C34.93 75.87 34.92 77.408 34.912 78.945 C34.899 80.418 34.884 81.891 34.867 83.363 C34.86 84.052 34.852 84.741 34.845 85.45 C34.71 92.268 34.71 92.268 33.629 94.832 C32.144 95.327 32.144 95.327 30.629 95.832 C30.299 99.132 29.969 102.432 29.629 105.832 C24.925 106.752 20.345 107.015 15.566 107.02 C14.872 107.032 14.178 107.044 13.463 107.057 C9.402 107.068 6.244 106.723 2.629 104.832 C0.063 102.267 0.088 100.355 -0.371 96.832 C-3.341 96.502 -6.311 96.172 -9.371 95.832 C-11.371 90.499 -13.371 85.165 -15.371 79.832 C-17.302 79.789 -17.302 79.789 -19.371 80.832 C-22.803 87.025 -24.247 94.156 -26.059 100.957 C-26.379 102.124 -26.699 103.29 -27.029 104.492 C-27.332 105.618 -27.634 106.743 -27.945 107.902 C-28.357 109.43 -28.357 109.43 -28.776 110.989 C-29.343 113.7 -29.487 116.073 -29.371 118.832 C-26.06 119.833 -23.07 119.936 -19.621 119.895 C-18.636 119.886 -17.651 119.876 -16.637 119.867 C-15.889 119.856 -15.141 119.844 -14.371 119.832 C-13.711 118.512 -13.051 117.192 -12.371 115.832 C-11.371 120.582 -11.371 120.582 -11.371 122.832 C-13.913 122.69 -16.455 122.544 -18.996 122.395 C-19.709 122.355 -20.422 122.316 -21.156 122.275 C-25.289 122.029 -29.294 121.597 -33.371 120.832 C-32.704 115.499 -32.038 110.165 -31.371 104.832 C-33.371 104.789 -35.372 104.791 -37.371 104.832 C-43.805 111.266 -41.69 136.052 -41.746 144.895 C-41.76 145.861 -41.773 146.828 -41.787 147.824 C-41.75 153.739 -41.275 159.558 -38.371 164.832 C-30.81 171.988 -17.406 171.325 -7.684 171.207 C-5.849 171.192 -5.849 171.192 -3.977 171.176 C27.124 170.647 56.5 159.903 78.426 137.34 C81.577 133.753 84.193 129.931 86.629 125.832 C86.299 125.172 85.969 124.512 85.629 123.832 C84.867 123.878 84.105 123.925 83.32 123.973 C73.585 124.313 66.937 122.394 59.629 115.832 C54.332 108.156 51.98 100.127 52.629 90.832 C54.54 80.642 58.418 71.542 67.004 65.395 C74.831 60.698 81.681 60.2 90.629 61.832 C93.417 62.666 95.952 63.67 98.629 64.832 C98.139 58.221 96.294 52.882 93.629 46.832 C92.531 46.855 91.432 46.878 90.301 46.902 C53.17 47.417 14.381 45.347 -21.371 34.832 Z M-59.371 58.832 C-60.931 63.314 -60.592 68.376 -60.621 73.082 C-60.642 73.89 -60.662 74.699 -60.684 75.531 C-60.72 81.273 -60.039 86.665 -57.371 91.832 C-53.831 94.192 -52.36 94.067 -48.172 94.027 C-46.359 94.018 -46.359 94.018 -44.51 94.008 C-43.247 93.991 -41.984 93.974 -40.684 93.957 C-38.772 93.943 -38.772 93.943 -36.822 93.93 C-33.672 93.906 -30.521 93.873 -27.371 93.832 C-27.057 92.856 -26.742 91.88 -26.418 90.875 C-25.986 89.59 -25.554 88.304 -25.121 87.02 C-24.916 86.377 -24.711 85.734 -24.5 85.072 C-23.522 82.214 -22.572 80.05 -20.512 77.82 C-17.751 76.546 -16.228 76.959 -13.371 77.832 C-13.022 78.903 -12.672 79.974 -12.312 81.078 C-11.853 82.475 -11.393 83.872 -10.934 85.27 C-10.703 85.977 -10.473 86.684 -10.236 87.412 C-9.297 90.895 -9.297 90.895 -7.371 93.832 C-4.752 93.97 -2.16 94.045 0.461 94.07 C1.643 94.082 1.643 94.082 2.849 94.095 C4.521 94.109 6.193 94.119 7.865 94.127 C10.421 94.144 12.974 94.188 15.529 94.232 C17.152 94.243 18.775 94.251 20.398 94.258 C21.162 94.275 21.926 94.293 22.713 94.311 C26.08 94.297 28.254 94.074 31.11 92.231 C33.14 89.024 33.146 86.804 33.16 83.02 C33.164 82.369 33.168 81.718 33.172 81.048 C33.174 79.676 33.167 78.304 33.15 76.933 C33.129 74.838 33.15 72.747 33.176 70.652 C33.173 69.316 33.168 67.98 33.16 66.645 C33.156 65.434 33.151 64.224 33.146 62.977 C32.507 59.092 31.771 58.163 28.629 55.832 C25.797 55.442 23.357 55.295 20.527 55.33 C19.714 55.325 18.9 55.32 18.062 55.314 C15.376 55.301 12.69 55.318 10.004 55.336 C8.136 55.336 6.268 55.334 4.4 55.332 C0.486 55.33 -3.428 55.343 -7.342 55.365 C-12.359 55.394 -17.376 55.391 -22.393 55.378 C-26.25 55.371 -30.107 55.379 -33.964 55.392 C-35.814 55.396 -37.664 55.396 -39.514 55.393 C-42.099 55.39 -44.684 55.406 -47.27 55.428 C-48.034 55.423 -48.799 55.419 -49.587 55.414 C-53.764 55.473 -56.414 55.747 -59.371 58.832 Z M62.629 74.832 C60.947 77.404 59.707 79.958 58.629 82.832 C58.393 83.457 58.157 84.082 57.914 84.727 C55.428 92.704 56.623 101.313 60.25 108.754 C63.056 112.983 67.082 116.559 71.629 118.832 C73.962 118.872 76.296 118.875 78.629 118.832 C78.959 117.842 79.289 116.852 79.629 115.832 C78.741 115.594 78.741 115.594 77.836 115.352 C71.228 113.401 67.653 111.013 63.879 105.082 C60.486 96.261 61.594 88.201 65.254 79.645 C68.086 74.301 72.952 70.724 78.629 68.832 C85.23 68.086 90.443 68.297 95.91 72.285 C100.989 76.856 103.924 81.996 104.629 88.832 C104.845 96.563 102.365 102.197 98.629 108.832 C97.955 110.162 97.286 111.494 96.629 112.832 C100.599 113.288 100.599 113.288 102.629 110.957 C108.171 102.297 110.008 94.123 108.629 83.832 C107.395 80.159 105.746 77.066 103.629 73.832 C103.072 72.904 102.515 71.976 101.941 71.02 C96.835 66.189 91.056 63.538 84.004 63.332 C74.37 63.874 68.7 67.318 62.629 74.832 Z M-159.371 68.832 C-159.701 69.822 -160.031 70.812 -160.371 71.832 C-159.404 72.123 -158.438 72.415 -157.441 72.715 C-139.69 78.232 -127.977 86.545 -119.117 103.188 C-112.942 116.062 -112.679 130.437 -117.371 143.832 C-123.793 159.275 -132.722 168.711 -147.809 176.145 C-163.111 182.428 -178.559 179.975 -193.371 173.832 C-195.038 173.165 -196.704 172.498 -198.371 171.832 C-198.371 173.152 -198.371 174.472 -198.371 175.832 C-183.064 183.462 -168.199 186.765 -151.27 181.863 C-134.561 175.919 -122.195 165.232 -114.496 149.207 C-108.802 135.538 -108.019 118.792 -113.371 104.832 C-120.24 89.252 -131.153 77.639 -147.055 71.383 C-153.102 69.446 -153.102 69.446 -159.371 68.832 Z M-206.371 91.832 C-215.275 103.433 -219.399 116.264 -218.371 130.832 C-216.133 145.191 -209.704 157.113 -198.246 165.957 C-186.386 174.301 -174.639 176.824 -160.371 175.832 C-147.289 173.291 -134.614 166.314 -126.617 155.449 C-118.646 142.703 -115.152 129.257 -118.055 114.312 C-122.558 98.559 -131.512 88.144 -145.371 79.832 C-166.496 70.033 -190.55 74.545 -206.371 91.832 Z M78.629 84.832 C76.334 88.795 76.169 92.31 76.629 96.832 C78.049 101.212 79.669 104.112 83.379 106.895 C87.469 108.074 90.578 108.194 94.629 106.832 C98.71 103.727 100.643 100.862 101.629 95.832 C101.72 90.12 100.274 86.335 96.629 81.832 C89.945 77.376 83.764 79.196 78.629 84.832 Z M-39.371 96.832 C-38.8 100.575 -38.8 100.575 -37.371 101.832 C-35.038 101.873 -32.704 101.874 -30.371 101.832 C-30.041 100.182 -29.711 98.532 -29.371 96.832 C-32.671 96.832 -35.971 96.832 -39.371 96.832 Z M3.629 96.832 C3.379 99.248 3.379 99.248 3.629 101.832 C9.041 105.44 15.344 105.556 21.664 104.488 C23.793 104.007 23.793 104.007 26.629 102.832 C26.959 101.842 27.289 100.852 27.629 99.832 C26.969 98.842 26.309 97.852 25.629 96.832 C23.306 96.416 23.306 96.416 20.621 96.539 C19.635 96.549 18.649 96.558 17.633 96.568 C16.084 96.606 16.084 96.606 14.504 96.645 C13.464 96.658 12.423 96.672 11.352 96.686 C8.777 96.721 6.203 96.77 3.629 96.832 Z M48.254 168.832 C47.194 169.018 46.135 169.203 45.043 169.395 C44.246 169.539 43.45 169.683 42.629 169.832 C42.629 170.822 42.629 171.812 42.629 172.832 C45.047 172.718 47.462 172.591 49.879 172.457 C50.561 172.426 51.243 172.395 51.945 172.363 C55.616 172.149 58.491 171.821 61.629 169.832 C61.299 169.172 60.969 168.512 60.629 167.832 C56.369 167.73 52.446 168.087 48.254 168.832 Z M48.379 177.832 C46.484 178.11 46.484 178.11 44.551 178.395 C43.587 178.539 42.622 178.683 41.629 178.832 C41.629 179.822 41.629 180.812 41.629 181.832 C44.233 181.691 46.837 181.545 49.441 181.395 C50.179 181.355 50.917 181.316 51.678 181.275 C54.86 181.088 57.591 180.845 60.629 179.832 C60.299 178.842 59.969 177.852 59.629 176.832 C55.748 176.832 52.213 177.264 48.379 177.832 Z M47.816 186.832 C46.841 187.018 45.865 187.203 44.859 187.395 C43.755 187.611 43.755 187.611 42.629 187.832 C42.629 188.822 42.629 189.812 42.629 190.832 C44.713 190.691 46.796 190.544 48.879 190.395 C50.039 190.313 51.199 190.232 52.395 190.148 C54.939 189.9 57.188 189.551 59.629 188.832 C59.299 187.842 58.969 186.852 58.629 185.832 C54.885 185.723 51.491 186.124 47.816 186.832 Z M-154.371 187.832 C-156.592 187.809 -156.592 187.809 -158.996 188.207 C-160.222 188.373 -160.222 188.373 -161.473 188.543 C-162.099 188.638 -162.726 188.734 -163.371 188.832 C-163.371 189.492 -163.371 190.152 -163.371 190.832 C-159.078 192.095 -156.493 191.462 -152.371 189.832 C-153.031 189.172 -153.691 188.512 -154.371 187.832 Z M69.629 188.832 C68.131 190.329 68.297 191.82 68.066 193.895 C67.922 195.194 67.778 196.493 67.629 197.832 C58.026 202.023 46.084 202.666 36.066 199.332 C34.932 198.837 33.798 198.342 32.629 197.832 C32.299 195.192 31.969 192.552 31.629 189.832 C27.488 189.622 27.488 189.622 23.629 190.832 C23.234 197.848 23.234 197.848 26.629 203.832 C37.169 210.944 50.415 210.962 62.566 209.02 C68.445 207.764 68.445 207.764 73.629 204.832 C76.231 200.352 77.016 195.998 76.629 190.832 C74.319 190.172 72.009 189.512 69.629 188.832 Z M-159.121 194.332 C-160.32 194.471 -160.32 194.471 -161.543 194.613 C-162.448 194.722 -162.448 194.722 -163.371 194.832 C-162.711 196.482 -162.051 198.132 -161.371 199.832 C-158.065 200.686 -158.065 200.686 -154.371 200.832 C-151.848 199.227 -151.848 199.227 -150.371 196.832 C-150.371 195.842 -150.371 194.852 -150.371 193.832 C-153.39 193.832 -156.142 193.982 -159.121 194.332 Z M93.629 207.832 C92.969 209.152 92.309 210.472 91.629 211.832 C92.619 213.152 93.609 214.472 94.629 215.832 C96.279 215.502 97.929 215.172 99.629 214.832 C100.308 212.435 100.308 212.435 100.629 209.832 C98.79 207.545 98.79 207.545 96.004 207.707 C95.22 207.748 94.436 207.79 93.629 207.832 Z M8.629 213.832 C8.629 215.482 8.629 217.132 8.629 218.832 C11.104 219.327 11.104 219.327 13.629 219.832 C14.011 218.176 14.343 216.507 14.629 214.832 C13.562 213.536 13.562 213.536 11.066 213.77 C10.262 213.79 9.458 213.811 8.629 213.832 Z M-149.809 224.895 C-151.616 227.632 -151.616 227.632 -151.121 230.207 C-150.874 230.743 -150.626 231.28 -150.371 231.832 C-148.122 232.701 -148.122 232.701 -145.371 232.832 C-142.52 231.135 -142.52 231.135 -140.371 228.832 C-140.371 228.172 -140.371 227.512 -140.371 226.832 C-139.381 227.492 -138.391 228.152 -137.371 228.832 C-138.361 230.317 -138.361 230.317 -139.371 231.832 C-139.404 234.23 -139.404 234.23 -138.98 236.875 C-138.848 237.867 -138.715 238.859 -138.578 239.881 C-138.427 240.917 -138.276 241.952 -138.121 243.02 C-137.986 244.036 -137.85 245.052 -137.711 246.1 C-136.924 251.794 -135.885 257.286 -134.371 262.832 C-128.55 255.526 -126.997 247.798 -126.934 238.645 C-126.924 237.897 -126.914 237.149 -126.904 236.378 C-127.006 229.689 -128.529 224.222 -132.684 218.832 C-135.227 216.649 -135.227 216.649 -138.309 216.207 C-143.748 217.317 -146.496 220.732 -149.809 224.895 Z M87.629 218.832 C87.959 220.482 88.289 222.132 88.629 223.832 C89.619 223.502 90.609 223.172 91.629 222.832 C91.629 221.512 91.629 220.192 91.629 218.832 C90.309 218.832 88.989 218.832 87.629 218.832 Z M59.629 221.832 C59.959 223.482 60.289 225.132 60.629 226.832 C61.619 227.162 62.609 227.492 63.629 227.832 C64.619 227.172 65.609 226.512 66.629 225.832 C66.299 224.512 65.969 223.192 65.629 221.832 C62.58 220.821 62.58 220.821 59.629 221.832 Z M-172.371 222.832 C-174.433 234.535 -173.873 248.544 -167.371 258.832 C-163.733 263.092 -161.553 264.634 -155.934 265.145 C-152.308 265.164 -152.308 265.164 -149.934 262.832 C-149.418 262.172 -148.902 261.512 -148.371 260.832 C-148.701 260.172 -149.031 259.512 -149.371 258.832 C-151.704 258.204 -154.064 257.677 -156.434 257.207 C-157.724 256.947 -159.014 256.686 -160.344 256.418 C-161.343 256.225 -162.342 256.031 -163.371 255.832 C-163.371 255.172 -163.371 254.512 -163.371 253.832 C-161.873 254.066 -161.873 254.066 -160.344 254.305 C-159.053 254.499 -157.763 254.694 -156.434 254.895 C-155.146 255.092 -153.858 255.289 -152.531 255.492 C-151.488 255.604 -150.446 255.716 -149.371 255.832 C-147.989 254.677 -147.989 254.677 -148.246 251.52 C-148.957 247.839 -148.957 247.839 -151.234 246.516 C-155.503 244.571 -159.684 243.313 -164.371 242.832 C-164.371 241.842 -164.371 240.852 -164.371 239.832 C-163.484 240.031 -163.484 240.031 -162.578 240.234 C-158.517 241.142 -154.457 242.041 -150.371 242.832 C-150.041 242.172 -149.711 241.512 -149.371 240.832 C-151.465 235.666 -155.561 233.232 -160.371 230.832 C-161.693 230.456 -163.025 230.109 -164.371 229.832 C-164.371 227.192 -164.371 224.552 -164.371 221.832 C-168.694 221.328 -168.694 221.328 -172.371 222.832 Z M113.629 228.832 C104.915 237.902 100.469 249.034 100.675 261.651 C101.398 271.18 102.964 280.496 104.629 289.895 C104.905 291.488 105.182 293.081 105.457 294.674 C105.722 296.197 105.988 297.719 106.254 299.242 C106.377 299.946 106.5 300.65 106.626 301.376 C107.191 304.559 107.782 307.711 108.629 310.832 C109.619 310.832 110.609 310.832 111.629 310.832 C111.011 304.892 110.225 299.027 109.219 293.141 C108.948 291.52 108.678 289.9 108.408 288.279 C107.987 285.769 107.565 283.259 107.137 280.749 C106.721 278.297 106.313 275.844 105.906 273.391 C105.778 272.651 105.65 271.911 105.518 271.149 C103.438 258.493 105.626 246.724 112.629 235.832 C116.468 231.183 119.87 227.832 125.629 225.832 C125.629 224.842 125.629 223.852 125.629 222.832 C120.687 222.832 117.38 225.799 113.629 228.832 Z M-17.989 235.586 C-19.428 237.925 -19.966 239.576 -20.441 242.266 C-20.696 243.665 -20.696 243.665 -20.956 245.093 C-21.134 246.141 -21.313 247.19 -21.496 248.27 C-21.694 249.392 -21.892 250.515 -22.096 251.672 C-22.571 254.379 -23.039 257.085 -23.502 259.793 C-24.342 264.688 -25.21 269.577 -26.078 274.467 C-26.914 279.187 -27.738 283.908 -28.559 288.631 C-28.973 291 -29.39 293.368 -29.81 295.736 C-33.94 313.246 -33.94 313.246 -33.371 330.832 C-29.48 335.074 -24.89 336.101 -19.496 337.418 C-18.192 337.752 -18.192 337.752 -16.861 338.092 C-14.035 338.811 -11.203 339.51 -8.371 340.207 C-6.42 340.696 -4.468 341.186 -2.517 341.676 C30.677 350.849 30.677 350.849 64.629 353.832 C63.99 352.76 63.35 351.687 62.691 350.582 C57.356 341.136 60.079 331.171 61.93 320.973 C62.17 319.62 62.409 318.267 62.648 316.913 C63.277 313.356 63.914 309.8 64.553 306.244 C65.191 302.695 65.823 299.144 66.455 295.594 C66.578 294.902 66.701 294.21 66.828 293.497 C67.899 287.476 68.954 281.452 70.001 275.427 C70.401 273.136 70.806 270.846 71.218 268.557 C71.72 265.751 72.2 262.941 72.672 260.129 C72.818 259.341 72.965 258.553 73.116 257.741 C73.657 254.367 73.752 252.149 72.501 248.938 C68.505 244.443 62.458 244.068 56.797 242.992 C55.936 242.825 55.075 242.658 54.189 242.486 C51.399 241.949 48.608 241.42 45.816 240.895 C44.868 240.715 43.919 240.535 42.942 240.35 C11.059 232.006 11.059 232.006 -17.989 235.586 Z M-145.371 235.832 C-145.517 241.867 -144.98 247.526 -144.059 253.484 C-143.785 255.331 -143.512 257.178 -143.238 259.025 C-142.805 261.9 -142.37 264.774 -141.935 267.648 C-141.512 270.447 -141.098 273.247 -140.684 276.047 C-140.487 277.318 -140.487 277.318 -140.286 278.614 C-138.23 292.55 -138.23 292.55 -140.371 296.832 C-138.076 295.914 -136.65 295.221 -135.196 293.189 C-134.028 289.852 -134.548 287.355 -135.051 283.863 C-135.148 283.169 -135.245 282.475 -135.345 281.76 C-135.673 279.448 -136.02 277.14 -136.371 274.832 C-136.616 273.178 -136.861 271.525 -137.106 269.871 C-137.882 264.688 -138.688 259.51 -139.496 254.332 C-139.776 252.526 -140.056 250.72 -140.336 248.914 C-141.012 244.553 -141.691 240.192 -142.371 235.832 C-143.361 235.832 -144.351 235.832 -145.371 235.832 Z M138.629 239.832 C139.004 240.734 139.379 241.637 139.766 242.566 C143.209 251.295 145.419 259.979 147 269.223 C147.21 270.426 147.42 271.629 147.637 272.868 C150.64 290.348 153.132 307.913 155.676 325.465 C158.193 342.806 160.918 360.072 164.27 377.273 C164.485 378.382 164.485 378.382 164.704 379.514 C167.076 391.661 169.863 403.678 173.076 415.633 C173.676 418.019 174.164 420.416 174.629 422.832 C170.678 424.331 166.717 425.802 162.754 427.27 C161.645 427.69 160.537 428.111 159.395 428.545 C153.469 430.723 148.069 432.344 141.746 432.676 C140.698 432.753 140.698 432.753 139.629 432.832 C138.931 432.883 138.233 432.933 137.513 432.985 C135.359 433.725 135.359 433.725 134.257 436.345 C133.859 437.439 133.461 438.533 133.051 439.66 C132.612 440.853 132.174 442.045 131.723 443.273 C131.502 443.899 131.282 444.524 131.055 445.168 C130.384 447.067 129.689 448.956 128.988 450.844 C126.218 458.143 126.218 458.143 125.629 465.832 C126.949 466.492 128.269 467.152 129.629 467.832 C136.025 463.066 140.398 457.66 142.086 449.668 C142.281 448.058 142.457 446.445 142.629 444.832 C143.289 444.502 143.949 444.172 144.629 443.832 C144.834 444.519 145.039 445.206 145.25 445.914 C145.519 446.815 145.789 447.716 146.066 448.645 C146.333 449.538 146.6 450.431 146.875 451.352 C147.433 453.187 148.022 455.012 148.629 456.832 C149.969 469.79 145.827 480.684 139.352 491.746 C138.39 493.841 138.39 493.841 139.336 496 C142.054 499.852 146.088 500.71 150.504 501.707 C155.831 502.175 160.165 500.83 164.324 497.457 C170.991 490.489 173.016 481.175 173.629 471.832 C174.053 480.593 172.106 487.807 168.629 495.832 C178.169 488.582 182.823 479.205 185.316 467.645 C186.625 451.674 183.867 437.69 179.316 422.52 C167.799 384.007 162.619 343.759 156.825 304.071 C155.187 292.888 153.514 281.719 151.52 270.594 C151.367 269.731 151.214 268.869 151.057 267.98 C148.348 253.102 148.348 253.102 141.629 239.832 C140.639 239.832 139.649 239.832 138.629 239.832 Z M76.629 247.832 C74.819 258.011 73.011 268.191 71.205 278.37 C70.366 283.097 69.526 287.825 68.686 292.552 C67.874 297.116 67.064 301.681 66.254 306.246 C65.946 307.984 65.637 309.723 65.327 311.461 C64.893 313.903 64.46 316.344 64.028 318.785 C63.9 319.499 63.773 320.212 63.642 320.948 C60.646 335.743 60.646 335.743 64.629 349.832 C68.011 353.214 70.853 354.109 75.504 354.332 C86.872 353.869 105.29 350.171 113.629 341.832 C113.308 339.229 113.308 339.229 112.629 336.832 C111.709 337.219 110.788 337.605 109.84 338.004 C82.685 349.253 82.685 349.253 71.629 346.832 C68.569 343.688 68.203 341.329 68.207 337.016 C68.441 326.5 70.519 316.221 72.379 305.895 C72.732 303.889 73.083 301.883 73.434 299.877 C74.859 291.741 76.303 283.609 77.787 275.484 C78.156 273.432 78.525 271.38 78.895 269.328 C79.069 268.391 79.243 267.454 79.423 266.489 C80.368 261.2 81.174 256.2 80.629 250.832 C78.679 249.097 78.679 249.097 76.629 247.832 Z M125.629 266.832 C125.959 268.152 126.289 269.472 126.629 270.832 C127.619 270.832 128.609 270.832 129.629 270.832 C129.134 268.357 129.134 268.357 128.629 265.832 C127.405 265.757 127.405 265.757 125.629 266.832 Z M-118.371 273.832 C-118.041 275.152 -117.711 276.472 -117.371 277.832 C-116.051 277.502 -114.731 277.172 -113.371 276.832 C-113.701 275.512 -114.031 274.192 -114.371 272.832 C-116.446 272.683 -116.446 272.683 -118.371 273.832 Z M-147.371 288.832 C-147.701 289.822 -148.031 290.812 -148.371 291.832 C-146.886 292.822 -146.886 292.822 -145.371 293.832 C-144.711 293.502 -144.051 293.172 -143.371 292.832 C-143.371 291.512 -143.371 290.192 -143.371 288.832 C-144.691 288.832 -146.011 288.832 -147.371 288.832 Z M-95.371 297.832 C-95.701 299.482 -96.031 301.132 -96.371 302.832 C-95.051 302.832 -93.731 302.832 -92.371 302.832 C-92.866 300.357 -92.866 300.357 -93.371 297.832 C-94.031 297.832 -94.691 297.832 -95.371 297.832 Z M-53.371 304.832 C-54.031 305.492 -54.691 306.152 -55.371 306.832 C-55.053 308.94 -55.053 308.94 -54.371 310.832 C-52.479 311.514 -52.479 311.514 -50.371 311.832 C-49.711 311.172 -49.051 310.512 -48.371 309.832 C-48.69 307.724 -48.69 307.724 -49.371 305.832 C-51.263 305.151 -51.263 305.151 -53.371 304.832 Z M93.629 324.832 C93.949 327.435 93.949 327.435 94.629 329.832 C97.026 330.512 97.026 330.512 99.629 330.832 C101.897 328.999 101.897 328.999 101.816 326.27 C101.899 323.885 101.899 323.885 100.629 322.832 C96.668 322.441 96.668 322.441 93.629 324.832 Z M133.629 329.832 C132.949 332.229 132.949 332.229 132.629 334.832 C133.289 335.492 133.949 336.152 134.629 336.832 C137.232 336.512 137.232 336.512 139.629 335.832 C140.31 333.94 140.31 333.94 140.629 331.832 C138.79 329.545 138.79 329.545 136.004 329.707 C134.828 329.769 134.828 329.769 133.629 329.832 Z M-11.371 341.832 C-11.744 345.185 -11.682 346.436 -9.559 349.145 C-7.436 351.137 -7.436 351.137 -4.371 350.832 C-4.59 351.888 -4.59 351.888 -4.814 352.965 C-11.44 378.704 -11.44 378.704 -5.871 403.457 C3.148 412.025 16.456 416.02 28.629 416.832 C28.629 417.492 28.629 418.152 28.629 418.832 C29.619 418.832 30.609 418.832 31.629 418.832 C31.867 417.018 31.867 417.018 32.109 415.168 C34.249 399.77 37.075 383.694 49.676 373.113 C58.586 367.173 67.419 367.399 77.629 368.832 C74.17 365.135 71.699 363.697 66.629 363.52 C56.952 363.708 49.699 367.706 42.852 374.348 C32.678 385.719 30.029 399.154 28.629 413.832 C1.282 407.033 1.282 407.033 -5.371 396.832 C-6.734 393.107 -6.412 389.352 -6.184 385.457 C-6.122 384.371 -6.122 384.371 -6.059 383.264 C-5.357 373.333 -3.328 363.579 -1.371 353.832 C-0.364 354.003 0.642 354.175 1.68 354.351 C5.496 354.999 9.313 355.643 13.131 356.286 C14.768 356.562 16.405 356.839 18.041 357.118 C40.299 360.921 40.299 360.921 62.816 362.145 C64.291 362.169 64.291 362.169 65.795 362.193 C70.882 362.197 74.501 362.182 78.629 358.832 C78.134 357.842 78.134 357.842 77.629 356.832 C76.969 357.492 76.309 358.152 75.629 358.832 C72.113 359.303 68.548 359.164 65.004 359.145 C63.928 359.14 62.852 359.135 61.743 359.13 C45.346 358.897 29.309 356.243 13.191 353.395 C11.512 353.105 11.512 353.105 9.8 352.81 C3.498 351.641 -2.907 350.362 -8.371 346.832 C-9.434 344.082 -9.434 344.082 -9.371 341.832 C-10.031 341.832 -10.691 341.832 -11.371 341.832 Z M83.629 385.832 C82.643 389.738 82.745 392.817 83.215 396.801 C84.294 408.966 82.558 421.224 81.438 433.335 C78.433 465.923 77.486 498.037 77.56 530.741 C77.571 535.837 77.575 540.933 77.58 546.029 C77.591 555.964 77.608 565.898 77.629 575.832 C76.52 576.007 75.41 576.183 74.268 576.364 C70.118 577.027 65.975 577.727 61.833 578.438 C60.046 578.74 58.258 579.032 56.468 579.313 C42.43 581.269 42.43 581.269 31.629 589.832 C30.499 591.013 29.364 592.19 28.223 593.359 C27.187 594.492 26.156 595.629 25.129 596.77 C24.593 597.358 24.056 597.946 23.504 598.553 C22.208 599.976 20.918 601.403 19.629 602.832 C22.697 603.778 24.946 603.826 28.109 603.344 C29.011 603.215 29.912 603.087 30.841 602.955 C31.823 602.811 32.805 602.668 33.816 602.52 C45.832 600.859 57.828 600.118 69.934 599.567 C70.63 599.532 71.326 599.497 72.042 599.461 C73.946 599.365 75.85 599.28 77.753 599.195 C80.755 599.115 80.755 599.115 82.629 596.832 C82.918 594.911 82.918 594.911 82.849 592.683 C82.848 591.811 82.846 590.94 82.844 590.042 C82.833 589.082 82.821 588.122 82.808 587.133 C82.802 585.617 82.802 585.617 82.795 584.07 C82.784 581.859 82.768 579.648 82.749 577.437 C82.718 573.882 82.702 570.327 82.689 566.772 C82.649 556.655 82.586 546.538 82.512 536.421 C82.238 497.224 83.148 458.28 86.978 419.248 C88.015 408.462 88.934 397.299 85.629 386.832 C84.639 386.337 84.639 386.337 83.629 385.832 Z M16.629 386.832 C16.299 387.822 15.969 388.812 15.629 389.832 C15.959 390.492 16.289 391.152 16.629 391.832 C17.949 391.502 19.269 391.172 20.629 390.832 C20.299 389.512 19.969 388.192 19.629 386.832 C18.639 386.832 17.649 386.832 16.629 386.832 Z M149.629 405.832 C148.969 406.492 148.309 407.152 147.629 407.832 C147.949 410.435 147.949 410.435 148.629 412.832 C151.026 413.512 151.026 413.512 153.629 413.832 C154.289 413.172 154.949 412.512 155.629 411.832 C155.308 409.229 155.308 409.229 154.629 406.832 C152.232 406.152 152.232 406.152 149.629 405.832 Z M9.629 417.832 C-3.864 455.493 -15.262 493.87 -24.371 532.832 C-24.723 534.321 -25.074 535.809 -25.426 537.297 C-26.377 541.324 -27.319 545.353 -28.255 549.384 C-28.62 550.958 -28.987 552.531 -29.355 554.105 C-29.865 556.292 -30.367 558.482 -30.867 560.672 C-31.158 561.934 -31.448 563.196 -31.748 564.496 C-32.288 567.385 -32.505 569.907 -32.371 572.832 C-33.359 572.65 -34.347 572.469 -35.365 572.281 C-39.062 571.603 -42.76 570.935 -46.458 570.269 C-48.053 569.98 -49.647 569.689 -51.241 569.396 C-53.544 568.972 -55.848 568.557 -58.152 568.145 C-58.855 568.013 -59.557 567.882 -60.281 567.747 C-67.641 566.447 -73.839 566.207 -80.926 569.098 C-82.118 569.576 -83.311 570.054 -84.539 570.547 C-85.775 571.058 -87.011 571.57 -88.246 572.082 C-89.462 572.573 -90.677 573.064 -91.93 573.57 C-94.305 574.531 -96.679 575.498 -99.05 576.471 C-103.479 578.286 -107.924 580.062 -112.371 581.832 C-112.371 582.492 -112.371 583.152 -112.371 583.832 C-98.083 586.457 -83.839 588.315 -69.371 589.52 C-68.651 589.58 -67.931 589.64 -67.189 589.703 C-62.972 590.052 -58.753 590.371 -54.533 590.67 C-52.254 590.841 -49.979 591.04 -47.703 591.241 C-46.176 591.362 -44.648 591.482 -43.121 591.602 C-42.418 591.669 -41.715 591.737 -40.99 591.807 C-37.964 592.026 -35.47 591.861 -32.555 591.011 C-28.969 587.433 -28.612 583.057 -27.68 578.195 C-27.453 577.109 -27.227 576.023 -26.993 574.904 C-26.504 572.553 -26.025 570.2 -25.552 567.845 C-24.288 561.555 -22.949 555.28 -21.617 549.004 C-21.348 547.725 -21.078 546.447 -20.8 545.13 C-18.227 532.992 -15.39 520.929 -12.371 508.895 C-12.126 507.916 -11.88 506.937 -11.627 505.929 C-4.99 479.638 2.883 453.686 11.396 427.946 C11.844 426.58 11.844 426.58 12.301 425.188 C12.56 424.41 12.818 423.633 13.085 422.833 C13.76 420.695 13.76 420.695 13.629 417.832 C12.309 417.832 10.989 417.832 9.629 417.832 Z M16.629 419.832 C5.742 451.761 -3.971 483.731 -12.184 516.457 C-12.457 517.541 -12.729 518.626 -13.011 519.743 C-15.978 531.572 -18.79 543.425 -21.32 555.355 C-21.543 556.394 -21.766 557.432 -21.996 558.502 C-22.291 559.925 -22.291 559.925 -22.593 561.376 C-22.768 562.215 -22.943 563.054 -23.124 563.918 C-23.205 564.55 -23.287 565.181 -23.371 565.832 C-22.342 567.088 -22.342 567.088 -20.125 566.914 C-18.636 566.884 -18.636 566.884 -17.117 566.854 C-15.996 566.834 -14.875 566.814 -13.72 566.793 C-11.89 566.752 -11.89 566.752 -10.023 566.711 C-8.782 566.687 -7.54 566.664 -6.261 566.639 C-2.955 566.576 0.351 566.507 3.657 566.437 C7.028 566.367 10.4 566.302 13.771 566.236 C20.391 566.107 27.01 565.972 33.629 565.832 C33.181 554.549 32.728 543.267 32.094 531.992 C30.119 495.622 30.43 459.242 30.629 422.832 C28.859 422.327 27.088 421.828 25.316 421.332 C24.33 421.054 23.344 420.775 22.328 420.488 C19.606 419.714 19.606 419.714 16.629 419.832 Z M-22.371 420.832 C-22.371 422.152 -22.371 423.472 -22.371 424.832 C-21.051 424.832 -19.731 424.832 -18.371 424.832 C-18.866 422.357 -18.866 422.357 -19.371 419.832 C-20.595 419.757 -20.595 419.757 -22.371 420.832 Z M57.629 423.832 C57.299 424.822 56.969 425.812 56.629 426.832 C58.609 427.822 58.609 427.822 60.629 428.832 C60.959 427.512 61.289 426.192 61.629 424.832 C60.309 424.502 58.989 424.172 57.629 423.832 Z M-46.371 473.832 C-46.371 474.822 -46.371 475.812 -46.371 476.832 C-45.707 476.641 -45.043 476.45 -44.359 476.254 C-37.081 474.426 -37.081 474.426 -33.309 476.582 C-31.371 478.832 -31.371 478.832 -30.371 480.832 C-29.381 480.832 -28.391 480.832 -27.371 480.832 C-27.696 477.907 -28.229 476.045 -29.871 473.582 C-35.009 469.986 -41.538 469.467 -46.371 473.832 Z M-44.371 478.832 C-44.371 479.492 -44.371 480.152 -44.371 480.832 C-39.529 482.168 -35.437 483.085 -30.371 482.832 C-32.516 480.687 -33.388 480.386 -36.246 479.707 C-36.924 479.539 -37.602 479.372 -38.301 479.199 C-40.677 478.716 -40.677 478.716 -44.371 478.832 Z M-30.371 483.832 C-30.602 484.701 -30.833 485.57 -31.07 486.465 C-34.489 498.545 -34.489 498.545 -39.371 502.832 C-42.184 503.707 -42.184 503.707 -44.371 503.832 C-45.361 500.862 -46.351 497.892 -47.371 494.832 C-48.361 494.832 -49.351 494.832 -50.371 494.832 C-50.767 500.548 -50.767 500.548 -48.871 505.832 C-46.018 508.114 -44.044 508.566 -40.395 508.309 C-35.978 507.268 -33.439 504.555 -31.148 500.859 C-28.103 495.019 -27.244 490.463 -27.371 483.832 C-28.361 483.832 -29.351 483.832 -30.371 483.832 Z M-37.371 485.832 C-40.548 491.081 -41.028 495.847 -41.371 501.832 C-39.523 498.522 -38.626 495.26 -37.746 491.582 C-37.486 490.504 -37.225 489.427 -36.957 488.316 C-36.764 487.497 -36.57 486.677 -36.371 485.832 C-36.701 485.832 -37.031 485.832 -37.371 485.832 Z M42.629 490.832 C42.629 492.152 42.629 493.472 42.629 494.832 C44.802 494.366 46.537 493.885 48.473 492.77 C51.08 491.636 52.589 491.797 55.379 492.207 C56.178 492.318 56.977 492.429 57.801 492.543 C58.404 492.638 59.007 492.734 59.629 492.832 C60.895 497.304 60.813 501.589 60.816 506.207 C60.829 507.045 60.841 507.883 60.854 508.746 C60.865 513.517 60.476 517.349 58.629 521.832 C55.379 522.207 55.379 522.207 51.629 521.832 C46.274 516.774 45.887 508.79 44.629 501.832 C43.309 502.162 41.989 502.492 40.629 502.832 C39.972 510.058 41.747 517.722 45.949 523.715 C48.585 526.236 51.15 527.161 54.691 527.395 C59.037 526.774 60.648 525.989 63.629 522.832 C68.089 516.143 67.235 506.109 66.355 498.453 C65.375 493.58 63.419 490.959 59.629 487.832 C53.314 484.674 47.956 487.281 42.629 490.832 Z M50.629 496.832 C50.299 497.822 49.969 498.812 49.629 499.832 C54.084 499.337 54.084 499.337 58.629 498.832 C58.629 498.172 58.629 497.512 58.629 496.832 C55.989 496.832 53.349 496.832 50.629 496.832 Z M55.629 503.832 C55.299 508.122 54.969 512.412 54.629 516.832 C55.289 516.832 55.949 516.832 56.629 516.832 C56.959 512.542 57.289 508.252 57.629 503.832 C56.969 503.832 56.309 503.832 55.629 503.832 Z M-47.371 530.832 C-47.866 532.812 -47.866 532.812 -48.371 534.832 C-47.051 535.162 -45.731 535.492 -44.371 535.832 C-44.041 534.512 -43.711 533.192 -43.371 531.832 C-44.691 531.502 -46.011 531.172 -47.371 530.832 Z M52.629 546.832 C52.299 548.482 51.969 550.132 51.629 551.832 C52.949 551.832 54.269 551.832 55.629 551.832 C55.134 549.357 55.134 549.357 54.629 546.832 C53.969 546.832 53.309 546.832 52.629 546.832 Z M167.971 575.025 C167.229 575.152 166.487 575.279 165.722 575.41 C163.287 575.827 160.852 576.251 158.418 576.676 C156.723 576.968 155.027 577.259 153.332 577.55 C148.883 578.315 144.434 579.086 139.986 579.858 C135.442 580.646 130.897 581.428 126.352 582.211 C117.443 583.746 108.536 585.287 99.629 586.832 C99.629 587.162 99.629 587.492 99.629 587.832 C109.831 587.296 119.839 586.27 129.941 584.707 C130.63 584.602 131.32 584.498 132.03 584.39 C148.69 581.847 165.163 578.403 181.629 574.832 C181.629 574.502 181.629 574.172 181.629 573.832 C176.955 573.694 172.559 574.216 167.971 575.025 Z M168.099 581.826 C167.041 581.984 167.041 581.984 165.962 582.146 C163.659 582.493 161.357 582.848 159.055 583.203 C157.441 583.448 155.828 583.692 154.215 583.936 C149.986 584.576 145.758 585.224 141.531 585.873 C138.081 586.401 134.63 586.924 131.179 587.447 C127.054 588.072 122.929 588.7 118.805 589.328 C118.022 589.447 117.239 589.566 116.432 589.689 C114.212 590.028 111.991 590.368 109.771 590.709 C107.878 590.999 107.878 590.999 105.948 591.294 C103.158 591.746 100.395 592.253 97.629 592.832 C97.629 593.492 97.629 594.152 97.629 594.832 C111.853 593.48 125.944 591.547 140.066 589.395 C142.075 589.091 144.083 588.789 146.092 588.486 C150.021 587.894 153.95 587.3 157.878 586.704 C163.619 585.833 169.36 584.97 175.102 584.109 C176.396 583.915 176.396 583.915 177.717 583.717 C179.688 583.422 181.658 583.127 183.629 582.832 C183.629 582.172 183.629 581.512 183.629 580.832 C178.319 580.739 173.365 581.024 168.099 581.826 Z M165.367 590.004 C164.31 590.126 163.252 590.249 162.162 590.375 C158.755 590.772 155.348 591.177 151.941 591.582 C149.601 591.857 147.26 592.131 144.919 592.405 C127.805 594.417 110.707 596.533 93.629 598.832 C93.629 599.162 93.629 599.492 93.629 599.832 C104.956 600.243 115.963 598.977 127.191 597.645 C129.126 597.42 131.061 597.196 132.995 596.972 C150.912 594.876 168.779 592.432 186.629 589.832 C186.629 589.502 186.629 589.172 186.629 588.832 C179.446 588.667 172.496 589.148 165.367 590.004 Z M-162.621 595.707 C-163.199 596.078 -163.776 596.45 -164.371 596.832 C-163.992 600.123 -163.992 600.123 -162.371 602.832 C-160.705 602.873 -159.037 602.875 -157.371 602.832 C-157.041 600.852 -156.711 598.872 -156.371 596.832 C-159.315 594.896 -159.315 594.896 -162.621 595.707 Z M179.629 596.832 C167.519 597.96 155.411 599.098 143.304 600.249 C137.682 600.783 132.061 601.313 126.438 601.836 C121.017 602.34 115.597 602.853 110.177 603.373 C108.104 603.57 106.031 603.763 103.958 603.954 C101.064 604.22 98.172 604.498 95.28 604.779 C94.414 604.856 93.547 604.933 92.655 605.012 C90.638 605.214 88.631 605.513 86.629 605.832 C86.299 606.492 85.969 607.152 85.629 607.832 C105.073 606.829 124.437 605.186 143.816 603.332 C144.954 603.225 146.092 603.117 147.264 603.006 C150.567 602.693 153.869 602.373 157.172 602.051 C158.638 601.912 158.638 601.912 160.133 601.77 C167.022 601.085 173.814 600.042 180.629 598.832 C180.134 597.842 180.134 597.842 179.629 596.832 Z M81.629 610.832 C81.629 611.162 81.629 611.492 81.629 611.832 C109.588 613.381 137.672 613.471 165.629 611.832 C165.134 610.842 165.134 610.842 164.629 609.832 C136.946 609.68 109.302 610.089 81.629 610.832 Z " fill="#000000" transform="translate(483.37109375,156.16796875)"/>
<path d="M0 0 C13.025 4.393 25.614 14.125 33.562 25.438 C33.562 26.428 33.562 27.417 33.562 28.438 C30.359 27.064 28.687 25.613 26.562 22.875 C16.201 10.672 2.337 3.303 -13.438 1.812 C-15.104 1.681 -16.77 1.554 -18.438 1.438 C-18.438 0.778 -18.438 0.118 -18.438 -0.562 C-12.847 -3.358 -5.724 -1.598 0 0 Z " fill="#000000" transform="translate(594.4375,155.5625)"/>
<path d="M0 0 C11.847 -0.811 19.674 2.201 28.727 9.84 C31.929 12.883 34.875 16.104 37 20 C37 20.99 37 21.98 37 23 C36.01 23 35.02 23 34 23 C32.676 21.496 32.676 21.496 31.312 19.438 C25.18 10.925 17.86 5.374 7.363 3.539 C5.249 3.293 3.124 3.137 1 3 C0.67 2.01 0.34 1.02 0 0 Z " fill="#000000" transform="translate(578,173)"/>
<path d="M0 0 C4.208 0.609 7.348 2.062 11.07 4.09 C12.785 5.019 12.785 5.019 14.535 5.967 C15.732 6.624 16.928 7.281 18.125 7.938 C19.329 8.591 20.534 9.244 21.738 9.896 C30.474 14.649 30.474 14.649 34 17 C33.67 18.32 33.34 19.64 33 21 C24.711 17.038 16.618 12.778 8.625 8.25 C7.774 7.778 6.924 7.307 6.048 6.821 C4.868 6.144 4.868 6.144 3.664 5.453 C2.957 5.053 2.25 4.652 1.522 4.239 C1.02 3.83 0.517 3.421 0 3 C0 2.01 0 1.02 0 0 Z " fill="#000000" transform="translate(169,182)"/>
<path d="M0 0 C0.99 0.33 1.98 0.66 3 1 C1.702 4.482 0.18 7.516 -1.82 10.645 C-2.355 11.486 -2.89 12.327 -3.441 13.193 C-4.275 14.49 -4.275 14.49 -5.125 15.812 C-5.688 16.696 -6.252 17.58 -6.832 18.49 C-8.218 20.663 -9.607 22.832 -11 25 C-11.99 24.67 -12.98 24.34 -14 24 C-12.738 20.655 -11.306 17.653 -9.434 14.609 C-8.948 13.818 -8.463 13.026 -7.963 12.211 C-7.46 11.399 -6.956 10.587 -6.438 9.75 C-5.93 8.922 -5.423 8.095 -4.9 7.242 C-1.151 1.151 -1.151 1.151 0 0 Z " fill="#000000" transform="translate(392,203)"/>
<path d="M0 0 C3.715 0.688 6.587 2.307 9.859 4.16 C10.974 4.789 12.089 5.417 13.238 6.064 C14.409 6.73 15.579 7.396 16.75 8.062 C17.936 8.733 19.122 9.403 20.309 10.072 C23.208 11.711 26.105 13.353 29 15 C28.67 15.99 28.34 16.98 28 18 C21.8 17.072 17.071 13.837 11.75 10.688 C10.222 9.814 10.222 9.814 8.664 8.924 C7.214 8.07 7.214 8.07 5.734 7.199 C4.85 6.682 3.965 6.165 3.054 5.632 C1 4 1 4 0.204 1.8 C0.137 1.206 0.069 0.612 0 0 Z " fill="#000000" transform="translate(218,208)"/>
<path d="M0 0 C2.791 1.983 3.826 3.13 4.5 6.5 C4 9 4 9 2.438 11.375 C0 13 0 13 -3.625 12.875 C-7 12 -7 12 -9 10 C-9.55 3.948 -9.55 3.948 -7.875 1.062 C-5.065 -0.53 -3.172 -0.453 0 0 Z " fill="#000000" transform="translate(446,224)"/>
<path d="M0 0 C2.75 1.312 2.75 1.312 3.75 3.312 C4.202 8.623 4.202 8.623 2.562 11.125 C0.126 12.721 -1.309 13.312 -4.25 13.312 C-7.125 11.25 -7.125 11.25 -9.25 8.312 C-9.375 5.188 -9.375 5.188 -8.25 2.312 C-5.223 -0.455 -4.044 -0.856 0 0 Z " fill="#000000" transform="translate(494.25,225.6875)"/>
<path d="M0 0 C0.33 0.66 0.66 1.32 1 2 C-0.32 2 -1.64 2 -3 2 C-3.276 2.859 -3.552 3.717 -3.836 4.602 C-4.975 7.926 -6.258 11.139 -7.625 14.375 C-8.071 15.435 -8.517 16.494 -8.977 17.586 C-9.314 18.383 -9.652 19.179 -10 20 C-13.835 16.691 -13.835 16.691 -14.566 13.633 C-14.559 9.183 -14.517 5.982 -11.625 2.438 C-7.434 -1.454 -5.559 -1.112 0 0 Z " fill="#000000" transform="translate(577,239)"/>
<path d="M0 0 C0.33 0 0.66 0 1 0 C0.591 6.762 -0.57 12.672 -3 19 C-3.99 19 -4.98 19 -6 19 C-5.391 14.396 -4.153 10.435 -2.438 6.125 C-1.755 4.396 -1.755 4.396 -1.059 2.633 C-0.709 1.764 -0.36 0.895 0 0 Z " fill="#000000" transform="translate(575,242)"/>
<path d="M0 0 C0.33 0.66 0.66 1.32 1 2 C1.66 2 2.32 2 3 2 C2.653 11.085 2.653 11.085 0.125 14.625 C-2 16 -2 16 -5 16 C-4.01 12.7 -3.02 9.4 -2 6 C-1.34 6 -0.68 6 0 6 C0 4.02 0 2.04 0 0 Z " fill="#000000" transform="translate(579,245)"/>
<path d="M0 0 C2.312 1.438 2.312 1.438 3.812 3.75 C4.312 6.438 4.312 6.438 3.375 9.25 C1.312 11.438 1.312 11.438 -2.188 11.938 C-5.688 11.438 -5.688 11.438 -7.688 10.375 C-9.272 7.304 -8.368 4.716 -7.688 1.438 C-4.771 -0.063 -3.259 -0.682 0 0 Z M-2.688 4.438 C-2.358 5.428 -2.027 6.417 -1.688 7.438 C-1.358 6.447 -1.027 5.458 -0.688 4.438 C-1.348 4.438 -2.007 4.438 -2.688 4.438 Z " fill="#000000" transform="translate(292.6875,248.5625)"/>
<path d="M0 0 C0.782 -0.005 1.565 -0.01 2.371 -0.015 C4.96 -0.03 7.55 -0.036 10.139 -0.042 C11.939 -0.048 13.739 -0.054 15.538 -0.059 C19.313 -0.07 23.087 -0.076 26.862 -0.079 C31.696 -0.085 36.53 -0.109 41.365 -0.137 C45.083 -0.156 48.801 -0.161 52.519 -0.162 C54.301 -0.165 56.083 -0.173 57.865 -0.187 C60.36 -0.204 62.853 -0.202 65.348 -0.195 C66.082 -0.205 66.817 -0.214 67.574 -0.223 C71.973 -0.187 74.847 0.375 78.303 3.161 C79.438 6.566 79.437 9.181 79.448 12.772 C79.452 13.439 79.455 14.106 79.459 14.793 C79.468 16.998 79.47 19.203 79.471 21.407 C79.474 22.94 79.478 24.473 79.481 26.007 C79.487 29.22 79.489 32.434 79.489 35.648 C79.488 39.765 79.502 43.882 79.519 47.999 C79.53 51.165 79.532 54.331 79.532 57.498 C79.533 59.016 79.538 60.534 79.545 62.051 C79.555 64.175 79.552 66.297 79.546 68.421 C79.548 69.629 79.549 70.836 79.55 72.081 C79.312 75.046 78.956 76.718 77.303 79.161 C74.154 80.736 70.779 80.308 67.321 80.306 C66.084 80.311 66.084 80.311 64.822 80.317 C62.088 80.326 59.354 80.328 56.62 80.329 C54.724 80.332 52.828 80.336 50.933 80.339 C46.955 80.345 42.978 80.347 39.001 80.346 C33.899 80.346 28.796 80.36 23.694 80.377 C19.778 80.388 15.862 80.39 11.945 80.39 C10.064 80.391 8.182 80.395 6.301 80.403 C3.672 80.413 1.044 80.41 -1.585 80.404 C-2.757 80.412 -2.757 80.412 -3.952 80.421 C-7.743 80.399 -9.463 80.317 -12.697 78.161 C-13.771 74.94 -13.87 72.359 -14.009 68.974 C-14.525 61.847 -15.938 56.997 -20.947 51.849 C-27.966 47.541 -36.159 45.917 -44.07 43.968 C-45.287 43.659 -45.287 43.659 -46.529 43.345 C-47.258 43.165 -47.988 42.985 -48.739 42.8 C-50.697 42.161 -50.697 42.161 -53.697 40.161 C-53.367 38.841 -53.037 37.521 -52.697 36.161 C-49.413 35.216 -46.27 34.915 -42.865 34.696 C-41.172 34.579 -41.172 34.579 -39.445 34.46 C-37.083 34.303 -34.721 34.15 -32.359 33.999 C-23.855 33.429 -23.855 33.429 -15.697 31.161 C-14.388 28.544 -14.536 26.53 -14.486 23.603 C-14.443 21.941 -14.443 21.941 -14.4 20.245 C-14.348 17.902 -14.304 15.558 -14.267 13.214 C-14.236 12.105 -14.205 10.995 -14.173 9.853 C-14.154 8.834 -14.134 7.815 -14.113 6.765 C-13.638 3.795 -13.099 2.91 -10.697 1.161 C-7.08 -0.044 -3.765 0.006 0 0 Z M-9.697 4.161 C-11.004 6.775 -10.84 8.76 -10.873 11.685 C-10.896 12.788 -10.92 13.891 -10.945 15.028 C-10.988 17.359 -11.019 19.69 -11.039 22.021 C-11.066 23.127 -11.094 24.233 -11.123 25.372 C-11.137 26.386 -11.152 27.399 -11.167 28.444 C-11.832 31.853 -13 33.035 -15.697 35.161 C-25.807 38.004 -37.247 37.711 -47.697 38.161 C-47.697 38.821 -47.697 39.481 -47.697 40.161 C-47.143 40.286 -46.59 40.412 -46.02 40.541 C-20.998 46.282 -20.998 46.282 -15.197 53.099 C-12.034 59.556 -11.365 65.221 -11.041 72.333 C-10.976 75.293 -10.976 75.293 -8.697 77.161 C-6.058 77.365 -3.523 77.444 -0.882 77.436 C0.328 77.443 0.328 77.443 1.562 77.451 C4.236 77.465 6.91 77.464 9.584 77.462 C11.438 77.466 13.291 77.47 15.144 77.475 C19.031 77.482 22.918 77.482 26.806 77.477 C31.796 77.471 36.786 77.488 41.777 77.511 C45.605 77.526 49.432 77.527 53.26 77.524 C55.101 77.524 56.941 77.529 58.782 77.539 C61.351 77.552 63.919 77.545 66.489 77.533 C67.637 77.545 67.637 77.545 68.809 77.557 C71.141 77.568 71.141 77.568 74.303 77.161 C76.695 73.574 76.556 71.98 76.562 67.718 C76.566 67.069 76.569 66.42 76.573 65.751 C76.581 63.606 76.576 61.462 76.569 59.317 C76.57 57.827 76.572 56.336 76.575 54.845 C76.578 51.722 76.573 48.598 76.564 45.474 C76.553 41.469 76.559 37.464 76.571 33.459 C76.578 30.381 76.576 27.303 76.571 24.225 C76.57 22.748 76.571 21.272 76.576 19.795 C76.581 17.731 76.573 15.668 76.562 13.604 C76.56 12.43 76.559 11.255 76.557 10.045 C76.518 6.964 76.518 6.964 74.303 4.161 C72.333 3.68 72.333 3.68 70.026 3.713 C69.134 3.69 68.241 3.667 67.322 3.643 C66.346 3.634 65.371 3.624 64.366 3.614 C63.349 3.594 62.333 3.573 61.286 3.551 C57.959 3.489 54.631 3.449 51.303 3.411 C49.029 3.375 46.754 3.339 44.479 3.302 C26.399 3.044 8.365 3.326 -9.697 4.161 Z " fill="#000000" transform="translate(636.69677734375,256.8388671875)"/>
<path d="M0 0 C-5.28 0 -10.56 0 -16 0 C-16 -0.33 -16 -0.66 -16 -1 C-10.101 -2.43 -5.502 -2.751 0 0 Z " fill="#000000" transform="translate(662,269)"/>
<path d="M0 0 C15.18 0 30.36 0 46 0 C46 1.32 46 2.64 46 4 C30.82 4 15.64 4 0 4 C0 2.68 0 1.36 0 0 Z " fill="#000000" transform="translate(189,272)"/>
<path d="M0 0 C11.55 0 23.1 0 35 0 C35 1.32 35 2.64 35 4 C23.78 4 12.56 4 1 4 C0.67 2.68 0.34 1.36 0 0 Z " fill="#000000" transform="translate(397,275)"/>
<path d="M0 0 C5.94 0 11.88 0 18 0 C18 0.33 18 0.66 18 1 C13.647 1.84 9.556 2.108 5.125 2.062 C3.973 2.053 2.82 2.044 1.633 2.035 C0.764 2.024 -0.105 2.012 -1 2 C-0.67 1.34 -0.34 0.68 0 0 Z " fill="#000000" transform="translate(668,276)"/>
<path d="M0 0 C0.99 0 1.98 0 3 0 C4.678 8.183 5.394 18.388 0.895 25.828 C-1.32 28.636 -3.517 31.02 -7 32 C-9.75 31.625 -9.75 31.625 -12 31 C-10.254 29.071 -8.828 27.91 -6.5 26.688 C-3.196 24.457 -2.468 22.718 -1 19 C-0.52 15.712 -0.4 12.444 -0.312 9.125 C-0.278 8.246 -0.244 7.367 -0.209 6.461 C-0.127 4.308 -0.062 2.154 0 0 Z " fill="#000000" transform="translate(339,277)"/>
<path d="M0 0 C2.938 0.75 2.938 0.75 4.938 2.75 C5.267 5.848 5.391 7.923 3.875 10.688 C0.722 12.417 -1.688 11.609 -5.062 10.75 C-7.062 7.75 -7.062 7.75 -6.875 4.688 C-5.724 0.525 -4.278 -0.349 0 0 Z " fill="#000000" transform="translate(508.0625,277.25)"/>
<path d="M0 0 C0.99 0 1.98 0 3 0 C3.365 5.129 3.561 8.898 1.188 13.562 C-1 16 -1 16 -4 17 C-4.66 16.67 -5.32 16.34 -6 16 C-5 13 -5 13 -2 11 C-1.199 8.353 -1.199 8.353 -0.812 5.375 C-0.654 4.372 -0.495 3.369 -0.332 2.336 C-0.222 1.565 -0.113 0.794 0 0 Z " fill="#000000" transform="translate(329,285)"/>
<path d="M0 0 C1.458 -0.054 2.916 -0.093 4.375 -0.125 C5.187 -0.148 5.999 -0.171 6.836 -0.195 C9 0 9 0 11 2 C7.04 2 3.08 2 -1 2 C-0.67 1.34 -0.34 0.68 0 0 Z " fill="#000000" transform="translate(670,285)"/>
<path d="M0 0 C0.33 0 0.66 0 1 0 C2.483 6.337 2.184 12.713 2.188 19.188 C2.2 20.484 2.212 21.78 2.225 23.115 C2.227 24.35 2.228 25.584 2.23 26.855 C2.235 27.986 2.239 29.117 2.243 30.282 C2 33 2 33 0 35 C0 23.45 0 11.9 0 0 Z " fill="#000000" transform="translate(689,286)"/>
<path d="M0 0 C4.108 1.45 7.503 3.398 11 6 C11 6.66 11 7.32 11 8 C7.7 8 4.4 8 1 8 C1 7.67 1 7.34 1 7 C4.465 6.505 4.465 6.505 8 6 C7.237 5.752 6.474 5.505 5.688 5.25 C2.764 3.89 1.7 2.684 0 0 Z " fill="#000000" transform="translate(652,291)"/>
<path d="M0 0 C0.872 0.555 0.872 0.555 1.762 1.121 C1.346 5.969 -0.613 8.001 -4.238 11.121 C-7.788 13.606 -10.985 13.554 -15.238 13.121 C-19.565 11.558 -21.801 9.854 -24.176 5.871 C-24.526 4.964 -24.877 4.056 -25.238 3.121 C-24.578 2.461 -23.918 1.801 -23.238 1.121 C-20.04 1.493 -16.993 2.18 -13.863 2.934 C-9.567 3.156 -7.674 2.094 -4.133 -0.164 C-2.238 -0.879 -2.238 -0.879 0 0 Z " fill="#000000" transform="translate(485.23828125,293.87890625)"/>
<path d="M0 0 C10.23 0 20.46 0 31 0 C31 0.33 31 0.66 31 1 C20.77 1 10.54 1 0 1 C0 0.67 0 0.34 0 0 Z " fill="#000000" transform="translate(651,304)"/>
<path d="M0 0 C2.47 3.816 2.438 7.847 2.625 12.25 C2.664 12.995 2.702 13.74 2.742 14.508 C2.836 16.338 2.919 18.169 3 20 C2.67 20 2.34 20 2 20 C1.661 17.792 1.329 15.584 1 13.375 C0.814 12.145 0.629 10.915 0.438 9.648 C0.046 6.383 -0.081 3.283 0 0 Z " fill="#000000" transform="translate(641,307)"/>
<path d="M0 0 C3.3 0 6.6 0 10 0 C10.33 0.66 10.66 1.32 11 2 C7.7 2 4.4 2 1 2 C0.67 1.34 0.34 0.68 0 0 Z " fill="#000000" transform="translate(647,315)"/>
<path d="M0 0 C7.418 -0.094 14.662 -0.174 22 1 C22 1.33 22 1.66 22 2 C19.083 2.054 16.167 2.094 13.25 2.125 C12.425 2.142 11.6 2.159 10.75 2.176 C9.951 2.182 9.152 2.189 8.328 2.195 C7.595 2.206 6.862 2.216 6.106 2.227 C3.701 1.968 2.087 1.192 0 0 Z " fill="#000000" transform="translate(662,315)"/>
<path d="M0 0 C4.016 0.643 6.892 2.661 10.25 4.875 C11.328 5.574 12.405 6.272 13.516 6.992 C14.335 7.655 15.155 8.317 16 9 C16 9.99 16 10.98 16 12 C11.521 11.46 8.804 9.768 5.188 7.125 C3.724 6.077 3.724 6.077 2.23 5.008 C1.494 4.345 0.758 3.683 0 3 C0 2.01 0 1.02 0 0 Z " fill="#000000" transform="translate(384,330)"/>
<path d="M0 0 C0.99 0.33 1.98 0.66 3 1 C0.68 6.426 -3.791 10.005 -8 14 C-8.674 14.645 -9.348 15.289 -10.043 15.953 C-11.875 17.625 -11.875 17.625 -15 20 C-15.99 19.67 -16.98 19.34 -18 19 C-15.786 13.958 -11.944 10.73 -8 7 C-7.274 6.304 -6.549 5.608 -5.801 4.891 C-5.103 4.246 -4.406 3.602 -3.688 2.938 C-3.052 2.348 -2.416 1.759 -1.762 1.152 C-1.18 0.772 -0.599 0.392 0 0 Z " fill="#000000" transform="translate(249,332)"/>
<path d="M0 0 C3.543 1.561 6.228 3.707 9.188 6.188 C14.051 10.227 18.986 14.15 24 18 C23.67 18.99 23.34 19.98 23 21 C18.373 19.527 15.147 16.844 11.562 13.688 C10.46 12.733 9.357 11.778 8.254 10.824 C7.719 10.358 7.184 9.892 6.633 9.412 C4.119 7.238 1.56 5.12 -1 3 C-0.67 2.01 -0.34 1.02 0 0 Z " fill="#000000" transform="translate(412,349)"/>
<path d="M0 0 C0.99 0.33 1.98 0.66 3 1 C1.62 4.117 0.032 6.196 -2.406 8.566 C-3.068 9.217 -3.729 9.867 -4.41 10.537 C-5.1 11.205 -5.789 11.874 -6.5 12.562 C-7.867 13.895 -9.232 15.229 -10.594 16.566 C-11.199 17.154 -11.804 17.741 -12.428 18.346 C-14.203 20.119 -14.203 20.119 -16 23 C-17.32 22.67 -18.64 22.34 -20 22 C-18.513 18.534 -16.543 16.31 -13.867 13.672 C-12.659 12.473 -12.659 12.473 -11.426 11.25 C-10.584 10.425 -9.742 9.6 -8.875 8.75 C-8.026 7.91 -7.176 7.069 -6.301 6.203 C-4.205 4.131 -2.105 2.063 0 0 Z " fill="#000000" transform="translate(214,366)"/>
<path d="M0 0 C5.242 4.408 8.013 9.499 8.75 16.312 C9.012 27.298 5.736 36.642 0.75 46.312 C2.73 46.972 4.71 47.632 6.75 48.312 C7.328 58.727 7.175 70.759 1.109 79.742 C-3.187 82.602 -7.424 81.635 -12.251 80.783 C-15.663 80.081 -19.049 79.303 -22.438 78.5 C-24.181 78.108 -24.181 78.108 -25.959 77.709 C-27.64 77.317 -27.64 77.317 -29.355 76.918 C-30.874 76.564 -30.874 76.564 -32.423 76.204 C-35.398 75.266 -37.691 74.09 -40.25 72.312 C-43.521 65.77 -41.302 53.973 -39.25 47.312 C-37.25 46.133 -37.25 46.133 -35.25 45.312 C-33.958 42.271 -33.958 42.271 -33.25 39.312 C-31.27 39.642 -29.29 39.972 -27.25 40.312 C-27.409 39.687 -27.567 39.062 -27.73 38.418 C-29.442 28.188 -30.471 14.116 -24.25 5.312 C-17.371 -2.443 -9.601 -4.985 0 0 Z M-22.215 7.484 C-24.117 10.844 -24.687 14.529 -25.25 18.312 C-23.6 18.642 -21.95 18.973 -20.25 19.312 C-20.58 19.973 -20.91 20.632 -21.25 21.312 C-23.812 21.938 -23.812 21.938 -26.25 22.312 C-26.135 24.542 -26.008 26.771 -25.875 29 C-25.805 30.241 -25.736 31.483 -25.664 32.762 C-25.283 36.03 -24.751 38.402 -23.25 41.312 C-20.541 42.667 -18.241 42.378 -15.25 42.312 C-15.25 40.332 -15.25 38.353 -15.25 36.312 C-13.6 36.972 -11.95 37.632 -10.25 38.312 C-11.24 40.788 -11.24 40.788 -12.25 43.312 C-8.826 45.42 -6.211 45.399 -2.25 45.312 C2.76 36.281 2.76 36.281 4.75 26.312 C3.43 25.983 2.11 25.652 0.75 25.312 C0.75 24.322 0.75 23.332 0.75 22.312 C2.4 22.312 4.05 22.312 5.75 22.312 C6.189 15.283 4.921 9.94 0.375 4.438 C-2.931 1.762 -5.482 0.539 -9.688 0 C-15.07 0.656 -18.881 3.239 -22.215 7.484 Z M-31.25 42.312 C-31.25 43.303 -31.25 44.293 -31.25 45.312 C-27.232 46.326 -23.21 47.321 -19.188 48.312 C-18.054 48.599 -16.92 48.885 -15.752 49.18 C-10.129 50.557 -5.046 51.716 0.75 51.312 C0.42 50.653 0.09 49.993 -0.25 49.312 C-2.55 48.636 -4.789 48.083 -7.129 47.586 C-7.816 47.433 -8.502 47.281 -9.21 47.124 C-11.409 46.637 -13.611 46.162 -15.812 45.688 C-17.302 45.36 -18.791 45.032 -20.279 44.703 C-23.934 43.897 -27.591 43.102 -31.25 42.312 Z M-36.25 48.312 C-37.585 55.357 -38.82 62.134 -38.25 69.312 C-35.916 72.702 -32.925 73.114 -29.043 73.953 C-27.816 74.219 -26.59 74.484 -25.326 74.758 C-24.043 75.023 -22.76 75.289 -21.438 75.562 C-20.166 75.844 -18.894 76.125 -17.584 76.414 C-9.436 78.273 -9.436 78.273 -1.25 77.312 C0.914 74.067 1.524 71.66 2.375 67.875 C2.766 66.175 2.766 66.175 3.164 64.441 C3.873 61.188 3.873 61.188 3.75 57.312 C-3.96 54.869 -11.744 52.932 -19.625 51.125 C-20.786 50.852 -21.948 50.58 -23.145 50.299 C-24.817 49.913 -24.817 49.913 -26.523 49.52 C-27.528 49.287 -28.533 49.055 -29.568 48.816 C-32.45 48.19 -32.45 48.19 -36.25 48.312 Z " fill="#000000" transform="translate(514.25,410.6875)"/>
<path d="M0 0 C2.562 0.188 2.562 0.188 4.562 2.188 C4.027 5.723 4.027 5.723 2.562 7.188 C0.062 7.312 0.062 7.312 -2.438 7.188 C-3.438 6.188 -3.438 6.188 -3.562 3.688 C-3.396 0.357 -3.315 0.255 0 0 Z " fill="#000000" transform="translate(535.4375,409.8125)"/>
<path d="M0 0 C2.562 0.188 2.562 0.188 5.562 1.188 C6.831 1.342 6.831 1.342 8.125 1.5 C10.562 2.188 10.562 2.188 11.938 3.938 C12.754 6.876 12.615 8.312 11.562 11.188 C9.062 13.875 9.062 13.875 6.562 16.188 C6.233 16.848 5.902 17.507 5.562 18.188 C4.902 18.188 4.243 18.188 3.562 18.188 C4.055 11.788 4.055 11.788 6.625 8.75 C7.264 8.234 7.904 7.719 8.562 7.188 C7.572 7.188 6.582 7.188 5.562 7.188 C5.562 5.868 5.562 4.548 5.562 3.188 C4.902 3.188 4.243 3.188 3.562 3.188 C3.233 4.507 2.902 5.827 2.562 7.188 C1.243 6.527 -0.077 5.868 -1.438 5.188 C-1.767 7.168 -2.098 9.147 -2.438 11.188 C-1.118 10.527 0.202 9.868 1.562 9.188 C2.595 11.976 2.608 13.055 1.625 15.938 C1.274 16.68 0.924 17.423 0.562 18.188 C-0.098 18.188 -0.757 18.188 -1.438 18.188 C-4.699 13.024 -5.264 8.157 -4.438 2.188 C-2.438 0.188 -2.438 0.188 0 0 Z " fill="#000000" transform="translate(500.4375,423.8125)"/>
<path d="M0 0 C1.348 -0.037 1.348 -0.037 2.723 -0.074 C6.863 -0.093 9.462 0.007 13.133 2.043 C16.008 5.409 16.78 8.809 17.938 13.012 C18.525 14.182 18.525 14.182 19.125 15.375 C21.602 16.221 21.602 16.221 24.125 16.375 C25.875 17.438 25.875 17.438 27.125 19.375 C28.698 26.229 28.698 26.229 27.125 29.375 C30.755 29.375 34.385 29.375 38.125 29.375 C39.115 31.355 39.115 31.355 40.125 33.375 C40.957 33.37 41.79 33.365 42.648 33.359 C45.739 33.342 48.831 33.33 51.923 33.32 C53.918 33.313 55.913 33.3 57.908 33.287 C59.162 33.284 60.415 33.281 61.707 33.277 C62.864 33.272 64.022 33.267 65.214 33.261 C68.125 33.375 68.125 33.375 71.125 34.375 C74.012 40.664 74.933 48.011 76.07 54.793 C76.242 55.784 76.413 56.776 76.589 57.798 C77.149 61.052 77.7 64.307 78.25 67.562 C78.641 69.849 79.032 72.135 79.424 74.422 C82.783 94.094 86.014 113.787 89.206 133.487 C89.387 134.603 89.568 135.72 89.754 136.87 C90.089 138.937 90.423 141.004 90.756 143.071 C91.801 149.521 92.934 155.951 94.125 162.375 C94.898 161.385 94.898 161.385 95.688 160.375 C98.125 158.375 98.125 158.375 101.688 157.875 C105.125 158.375 105.125 158.375 106.84 160.406 C107.476 161.381 107.476 161.381 108.125 162.375 C108.477 161.184 108.829 159.992 109.191 158.764 C115.827 136.299 122.463 113.833 129.125 91.375 C129.785 91.375 130.445 91.375 131.125 91.375 C129.829 98.525 128.055 105.427 125.965 112.383 C125.506 113.932 125.506 113.932 125.037 115.512 C124.385 117.71 123.731 119.908 123.075 122.105 C121.372 127.816 119.682 133.531 117.992 139.246 C117.659 140.374 117.325 141.501 116.981 142.663 C114.142 152.275 111.384 161.909 108.688 171.562 C108.404 172.576 108.404 172.576 108.115 173.611 C107.114 177.198 106.117 180.786 105.125 184.375 C106.239 184.517 107.352 184.659 108.5 184.805 C112.125 185.375 112.125 185.375 114.125 186.5 C115.812 189.663 114.998 192 114.125 195.375 C111.519 199.621 108.717 201.519 104.125 203.375 C103.135 203.375 102.145 203.375 101.125 203.375 C101.166 204.159 101.207 204.942 101.25 205.75 C101.125 208.375 101.125 208.375 99.125 210.375 C96.575 210.805 94.101 211.116 91.531 211.355 C90.737 211.436 89.942 211.517 89.124 211.601 C86.459 211.869 83.792 212.123 81.125 212.375 C79.25 212.557 77.375 212.739 75.501 212.92 C70.33 213.417 65.159 213.899 59.987 214.377 C56.54 214.696 53.093 215.016 49.646 215.337 C43.562 215.903 37.479 216.468 31.395 217.031 C21.667 217.933 11.938 218.836 2.21 219.741 C-1.15 220.054 -4.51 220.364 -7.87 220.675 C-9.974 220.87 -12.078 221.066 -14.181 221.262 C-15.188 221.355 -16.194 221.448 -17.231 221.544 C-22.708 222.058 -28.177 222.621 -33.645 223.232 C-41.968 224.158 -50.175 224.683 -58.559 224.676 C-59.746 224.68 -60.934 224.684 -62.157 224.689 C-64.63 224.694 -67.102 224.695 -69.575 224.691 C-73.331 224.687 -77.086 224.711 -80.842 224.736 C-83.268 224.739 -85.695 224.739 -88.121 224.738 C-89.224 224.747 -90.328 224.757 -91.465 224.766 C-99.66 224.718 -109.071 224.418 -115.688 219.125 C-117.311 215.366 -116.899 213.32 -115.875 209.375 C-114.473 208.116 -113.062 206.862 -111.569 205.712 C-108.28 203.017 -106.121 200.495 -104.875 196.375 C-105.026 187.004 -107.731 177.815 -110.053 168.788 C-113.575 154.16 -113.654 137.068 -106.355 123.605 C-103.22 118.882 -99.687 116.147 -94.5 113.938 C-87.073 112.785 -81.605 114.345 -74.875 117.375 C-74.548 103.935 -74.548 103.935 -80.328 92.27 C-81.979 90.247 -82.903 88.325 -83.938 85.938 C-85.316 82.951 -85.316 82.951 -88.125 81.312 C-89.032 81.003 -89.94 80.694 -90.875 80.375 C-92.973 78.678 -94.945 76.873 -96.938 75.055 C-99.096 73.184 -101.425 71.83 -103.875 70.375 C-103.875 69.715 -103.875 69.055 -103.875 68.375 C-102.492 68.698 -101.119 69.06 -99.75 69.438 C-98.984 69.635 -98.219 69.832 -97.43 70.035 C-93.677 72.003 -91.452 75.071 -88.875 78.375 C-89.142 77.801 -89.41 77.226 -89.685 76.634 C-90.902 74.01 -92.107 71.38 -93.312 68.75 C-93.733 67.846 -94.154 66.943 -94.588 66.012 C-98.606 57.204 -98.606 57.204 -98.875 52.375 C-97.655 49.55 -96.585 47.908 -94.125 46.062 C-90.941 45.09 -88.182 45.135 -84.875 45.375 C-81.875 47.375 -81.875 47.375 -81.062 50.996 C-80.658 55.474 -81.57 59.181 -82.875 63.438 C-84.725 69.51 -85.344 74.42 -83.078 80.52 C-80.786 84.53 -79.17 85.917 -74.875 87.375 C-74.754 85.553 -74.754 85.553 -74.631 83.694 C-74.328 79.141 -74.017 74.588 -73.703 70.035 C-73.569 68.073 -73.437 66.111 -73.308 64.149 C-71.49 36.688 -71.49 36.688 -68.682 32.667 C-64.06 29.363 -58.026 30.356 -52.633 30.715 C-51.864 30.761 -51.096 30.806 -50.304 30.854 C-47.869 31 -45.435 31.156 -43 31.312 C-41.341 31.414 -39.682 31.515 -38.023 31.615 C-33.973 31.861 -29.924 32.116 -25.875 32.375 C-25.545 30.725 -25.215 29.075 -24.875 27.375 C-21.245 27.375 -17.615 27.375 -13.875 27.375 C-14.37 25.488 -14.37 25.488 -14.875 23.562 C-16.278 17.175 -17.189 10.441 -14.562 4.312 C-10.273 -0.613 -6.049 0.009 0 0 Z M-11.418 5.074 C-14.81 10.43 -13.166 17.649 -11.875 23.562 C-11.545 24.821 -11.215 26.079 -10.875 27.375 C-9.225 27.705 -7.575 28.035 -5.875 28.375 C-5.861 27.688 -5.847 27.001 -5.832 26.293 C-5.443 18.943 -5.443 18.943 -2.688 16.188 C0.778 15.186 2.689 15.278 6.125 16.375 C8.5 18.438 8.5 18.438 10.125 20.375 C12.157 19.735 12.157 19.735 14.125 18.375 C15.938 14.264 14.6 11.122 13.109 7.145 C12.114 5.037 12.114 5.037 9.125 3.375 C6.161 2.929 3.182 3.005 0.188 3 C-1.03 2.963 -1.03 2.963 -2.271 2.926 C-6.056 2.907 -8.215 2.934 -11.418 5.074 Z M-2.875 20.375 C-3.849 27.055 -1.104 31.644 2.125 37.375 C3.252 36.87 3.252 36.87 4.402 36.355 C9.062 34.677 13.468 36.183 18.125 37.375 C18.939 36.084 19.751 34.792 20.562 33.5 C21.241 32.421 21.241 32.421 21.934 31.32 C24.271 27.503 24.288 24.871 24.125 20.375 C23.03 19.084 23.03 19.084 20.375 18.938 C16.836 19.06 16.836 19.06 14.438 22.312 C13.674 23.323 12.911 24.334 12.125 25.375 C11.135 25.705 10.145 26.035 9.125 26.375 C8.857 25.426 8.589 24.478 8.312 23.5 C7.375 20.122 7.375 20.122 4.125 18.375 C0.153 17.937 0.153 17.937 -2.875 20.375 Z M-22.875 31.375 C-22.313 34.879 -21.721 38.377 -21.125 41.875 C-20.968 42.857 -20.81 43.84 -20.648 44.852 C-19.375 52.2 -17.727 58.452 -12.375 63.938 C-10.017 65.62 -10.017 65.62 -7.562 65.125 C-7.006 64.878 -6.449 64.63 -5.875 64.375 C-5.875 63.715 -5.875 63.055 -5.875 62.375 C-5.545 63.695 -5.215 65.015 -4.875 66.375 C0.445 66.499 5.764 66.589 11.086 66.65 C12.895 66.675 14.704 66.709 16.512 66.752 C19.117 66.813 21.719 66.841 24.324 66.863 C25.13 66.889 25.935 66.915 26.765 66.941 C31.028 66.944 32.646 66.744 36.14 64.052 C40.943 57.575 38.28 46.615 37.188 39 C36.839 35.372 36.839 35.372 35.125 32.375 C31.675 31.745 28.564 31.659 25.125 32.375 C22.246 34.595 20.575 37.056 19.125 40.375 C18.875 44 18.875 44 19.125 47.375 C18 50.25 18 50.25 16.125 52.375 C12.519 53.629 10.865 53.712 7.375 52.125 C4.111 49.587 3.202 47.727 2.312 43.688 C1.159 38.997 -0.38 34.823 -3.875 31.375 C-7.195 30.399 -10.263 30.609 -13.688 30.875 C-14.571 30.911 -15.455 30.947 -16.365 30.984 C-18.537 31.078 -20.707 31.222 -22.875 31.375 Z M-66.875 36.375 C-67.09 39.429 -67.178 42.389 -67.176 45.445 C-67.181 46.377 -67.187 47.308 -67.193 48.267 C-67.205 51.345 -67.198 54.422 -67.188 57.5 C-67.186 58.557 -67.184 59.614 -67.182 60.703 C-67.052 105.484 -61.142 149.581 -54.625 193.812 C-54.447 195.026 -54.268 196.24 -54.084 197.491 C-53.576 200.931 -53.063 204.37 -52.547 207.809 C-52.393 208.849 -52.239 209.89 -52.08 210.962 C-51.936 211.912 -51.792 212.863 -51.644 213.842 C-51.519 214.673 -51.394 215.504 -51.265 216.36 C-50.957 218.435 -50.957 218.435 -49.875 220.375 C-36.174 219.753 -22.559 218.438 -8.914 217.077 C-2.119 216.4 4.676 215.733 11.473 215.07 C12.179 215.001 12.886 214.932 13.614 214.861 C25.091 213.743 36.572 212.694 48.059 211.68 C48.833 211.611 49.608 211.543 50.406 211.472 C57.995 210.801 65.584 210.135 73.174 209.481 C75.975 209.239 78.776 208.993 81.576 208.747 C83.511 208.578 85.445 208.414 87.38 208.25 C88.523 208.149 89.667 208.048 90.845 207.944 C91.846 207.858 92.847 207.772 93.878 207.683 C96.091 207.61 96.091 207.61 97.125 206.375 C97.166 204.042 97.167 201.708 97.125 199.375 C93.458 198.432 90.772 198.261 87.125 199.375 C86.795 200.035 86.465 200.695 86.125 201.375 C85.341 201.21 84.558 201.045 83.75 200.875 C81.243 200.313 81.243 200.313 79.125 200.375 C81.6 199.385 81.6 199.385 84.125 198.375 C83.795 196.725 83.465 195.075 83.125 193.375 C81.392 193.592 81.392 193.592 79.625 193.812 C78.898 193.901 78.171 193.99 77.422 194.082 C75.93 194.272 74.44 194.477 72.953 194.699 C67.531 195.484 67.531 195.484 65.27 194.877 C62.423 194.211 59.964 194.474 57.051 194.715 C55.231 194.856 55.231 194.856 53.374 194.999 C51.425 195.154 51.425 195.154 49.438 195.312 C39.373 196.06 29.347 196.595 19.25 196.625 C18.242 196.634 17.235 196.643 16.197 196.652 C10.525 196.629 5.471 196.36 0.125 194.375 C-2.582 190.778 -3.362 187.716 -3.867 183.289 C-4.012 182.119 -4.156 180.948 -4.305 179.742 C-4.452 178.507 -4.599 177.272 -4.75 176 C-7.53 155.107 -14.412 137.165 -27.062 120.188 C-31.522 113.941 -31.522 113.941 -31.312 110.062 C-29.555 105.553 -27.61 101.544 -23.875 98.375 C-18.047 96.282 -12.499 95.957 -6.344 95.742 C-5.326 95.701 -4.309 95.659 -3.261 95.616 C0.034 95.484 3.329 95.367 6.625 95.25 C8.885 95.164 11.144 95.078 13.404 94.993 C30.317 94.374 47.202 94.113 64.125 94.375 C65.758 97.413 67.38 100.456 69 103.5 C69.46 104.356 69.92 105.212 70.395 106.094 C72.705 110.446 74.766 114.611 76.125 119.375 C74.385 121.115 71.931 120.747 69.562 120.938 C68.045 121.063 68.045 121.063 66.496 121.191 C65.714 121.252 64.931 121.313 64.125 121.375 C64.125 125.536 66.235 128.22 68.312 131.688 C76.957 146.596 81.208 162.462 82.312 179.625 C82.394 180.763 82.476 181.901 82.561 183.074 C82.758 185.841 82.946 188.607 83.125 191.375 C84.75 191.234 86.375 191.087 88 190.938 C89.357 190.816 89.357 190.816 90.742 190.691 C93.136 190.505 93.136 190.505 95.125 189.375 C92.582 171.842 89.871 154.347 86.938 136.875 C86.748 135.74 86.558 134.605 86.362 133.435 C83.417 115.84 80.397 98.259 77.312 80.688 C77.13 79.642 76.947 78.597 76.759 77.52 C74.944 67.146 73.067 56.792 70.926 46.48 C70.676 45.268 70.676 45.268 70.422 44.031 C69.91 40.402 69.91 40.402 68.125 37.375 C66.392 37.275 64.654 37.244 62.918 37.242 C61.326 37.24 61.326 37.24 59.701 37.238 C58.024 37.244 58.024 37.244 56.312 37.25 C55.206 37.246 54.099 37.242 52.959 37.238 C51.361 37.24 51.361 37.24 49.73 37.242 C48.263 37.244 48.263 37.244 46.766 37.246 C44.394 37.362 42.393 37.699 40.125 38.375 C40.194 39.328 40.194 39.328 40.264 40.299 C40.465 43.199 40.639 46.099 40.812 49 C40.885 49.999 40.958 50.998 41.033 52.027 C41.345 57.566 41.57 61.719 38.125 66.375 C33.544 70.097 29.272 69.734 23.66 69.555 C22.749 69.535 21.838 69.516 20.9 69.496 C18.977 69.451 17.055 69.399 15.133 69.339 C12.201 69.25 9.27 69.194 6.338 69.141 C4.466 69.093 2.594 69.044 0.723 68.992 C-0.149 68.976 -1.021 68.961 -1.92 68.944 C-8.069 68.724 -12.555 67.695 -17.062 63.188 C-22.276 55.097 -23.282 45.685 -24.875 36.375 C-30.043 35.566 -35.153 35.088 -40.375 34.812 C-41.152 34.771 -41.928 34.73 -42.729 34.688 C-47.943 34.432 -53.155 34.245 -58.375 34.188 C-60.185 34.166 -60.185 34.166 -62.031 34.145 C-65.009 34.077 -65.009 34.077 -66.875 36.375 Z M6.125 40.375 C5.646 45.058 5.646 45.058 7.312 49.312 C9.77 50.753 11.327 50.806 14.125 50.375 C16.497 47.479 16.497 47.479 15.875 43.812 C15.439 40.329 15.439 40.329 13.125 38.375 C9.158 37.94 9.158 37.94 6.125 40.375 Z M-94.875 50.375 C-95.484 56.319 -93.992 60.164 -91.375 65.312 C-91.041 65.996 -90.707 66.68 -90.363 67.385 C-89.546 69.054 -88.712 70.715 -87.875 72.375 C-83.782 66.235 -82.094 57.718 -82.875 50.375 C-83.535 49.385 -84.195 48.395 -84.875 47.375 C-89.132 46.82 -92.034 46.988 -94.875 50.375 Z M-77.875 89.375 C-77.545 90.695 -77.215 92.015 -76.875 93.375 C-76.215 93.375 -75.555 93.375 -74.875 93.375 C-75.535 92.055 -76.195 90.735 -76.875 89.375 C-77.205 89.375 -77.535 89.375 -77.875 89.375 Z M37.145 96.812 C35.204 96.879 35.204 96.879 33.223 96.947 C29.822 97.064 26.421 97.183 23.02 97.302 C19.533 97.424 16.047 97.544 12.561 97.664 C5.749 97.899 -1.063 98.136 -7.875 98.375 C-6.001 102.24 -3.725 105.787 -1.375 109.375 C0.975 112.963 3.251 116.51 5.125 120.375 C27.509 120.784 49.782 119.599 72.125 118.375 C70.376 112.661 68.349 107.532 65.438 102.312 C64.815 101.187 64.192 100.062 63.551 98.902 C63.08 98.068 62.61 97.234 62.125 96.375 C53.788 96.308 45.476 96.517 37.145 96.812 Z M-25.875 105.375 C-24.242 110.414 -21.257 114.32 -18.188 118.562 C-17.644 119.325 -17.101 120.087 -16.542 120.873 C-14.333 123.972 -12.111 127.057 -9.844 130.113 C3.997 149.013 9.433 168.379 11.815 191.404 C11.926 193.373 11.926 193.373 13.125 194.375 C24.442 195.169 36.044 193.908 47.339 193.203 C50.645 192.999 53.951 192.808 57.258 192.617 C59.37 192.488 61.482 192.358 63.594 192.227 C64.577 192.171 65.56 192.116 66.574 192.059 C73.112 191.735 73.112 191.735 79.125 189.375 C84.528 173.167 75.259 150.731 68.248 136.377 C66.669 133.237 65.079 130.306 63.125 127.375 C60.217 127.105 57.534 127.054 54.625 127.125 C53.251 127.141 53.251 127.141 51.849 127.158 C48.994 127.199 46.141 127.258 43.286 127.325 C40.848 127.381 38.409 127.434 35.97 127.486 C23.687 127.752 11.406 128.053 -0.875 128.375 C-1.006 127.831 -1.136 127.287 -1.271 126.726 C-1.876 124.231 -2.501 121.741 -3.125 119.25 C-3.33 118.394 -3.535 117.538 -3.746 116.656 C-5.204 110.914 -6.773 105.728 -11.688 102 C-17.727 100.275 -21.381 101.017 -25.875 105.375 Z M-28.875 110.375 C-28.247 113.66 -27.065 115.865 -25.18 118.613 C-24.632 119.426 -24.084 120.238 -23.519 121.075 C-22.935 121.937 -22.352 122.799 -21.75 123.688 C-8.137 144.271 -3.497 164.064 -0.875 188.375 C-0.215 188.375 0.445 188.375 1.125 188.375 C2.304 158.384 -8.906 133.367 -27.875 110.375 C-28.205 110.375 -28.535 110.375 -28.875 110.375 Z M-102.688 124.438 C-107.373 132.074 -108.434 141.018 -108.375 149.812 C-108.373 150.774 -108.371 151.735 -108.369 152.726 C-108.101 165.582 -107.264 182.956 -100.875 194.375 C-99.421 193.787 -99.421 193.787 -97.938 193.188 C-93.132 191.76 -89.333 193.495 -84.875 195.375 C-84.215 193.725 -83.555 192.075 -82.875 190.375 C-81.885 190.375 -80.895 190.375 -79.875 190.375 C-78.014 195.08 -77.624 199.251 -77.75 204.25 C-77.759 204.938 -77.768 205.627 -77.777 206.336 C-77.801 208.016 -77.837 209.695 -77.875 211.375 C-78.535 211.375 -79.195 211.375 -79.875 211.375 C-79.875 206.095 -79.875 200.815 -79.875 195.375 C-81.36 194.88 -81.36 194.88 -82.875 194.375 C-84.375 203.072 -84.459 213.542 -79.875 221.375 C-79.188 218.884 -78.875 216.996 -78.875 214.375 C-77.39 214.87 -77.39 214.87 -75.875 215.375 C-76.205 217.355 -76.535 219.335 -76.875 221.375 C-71.925 221.375 -66.975 221.375 -61.875 221.375 C-63.024 217.927 -63.86 217.407 -66.75 215.375 C-72.215 211.503 -72.215 211.503 -73.875 209.375 C-74.098 207.246 -74.098 207.246 -73.938 204.812 C-73.701 194.569 -76.698 187.077 -81.414 178.184 C-82.875 175.375 -82.875 175.375 -82.875 174.375 C-82.215 175.035 -81.555 175.695 -80.875 176.375 C-81.476 171.669 -81.476 171.669 -82.562 167.062 C-82.666 166.506 -82.769 165.949 -82.875 165.375 C-82.215 164.715 -81.555 164.055 -80.875 163.375 C-80.968 164.922 -80.968 164.922 -81.062 166.5 C-81.074 172.881 -79.679 179.276 -77.875 185.375 C-77.215 185.705 -76.555 186.035 -75.875 186.375 C-75.605 178.1 -75.368 169.825 -75.173 161.549 C-75.081 157.705 -74.978 153.863 -74.85 150.021 C-74.726 146.312 -74.632 142.604 -74.558 138.894 C-74.525 137.479 -74.481 136.065 -74.426 134.65 C-73.78 127.291 -73.78 127.291 -76.132 120.634 C-84.78 114.632 -96.206 116.365 -102.688 124.438 Z M0.125 118.375 C0.31 122.717 0.31 122.717 2.125 126.375 C4.621 126.405 7.085 126.37 9.578 126.289 C10.342 126.268 11.106 126.247 11.894 126.226 C14.388 126.156 16.881 126.078 19.375 126 C21.071 125.95 22.767 125.901 24.464 125.852 C36.358 125.499 48.244 125.037 60.125 124.375 C59.63 123.385 59.63 123.385 59.125 122.375 C40.445 122.18 21.793 122.78 3.125 123.375 C2.465 121.725 1.805 120.075 1.125 118.375 C0.795 118.375 0.465 118.375 0.125 118.375 Z M95.125 166.375 C94.255 168.504 94.255 168.504 94.125 170.375 C95.115 169.715 96.105 169.055 97.125 168.375 C97.125 167.715 97.125 167.055 97.125 166.375 C99.105 166.045 101.085 165.715 103.125 165.375 C103.455 167.355 103.785 169.335 104.125 171.375 C104.455 171.375 104.785 171.375 105.125 171.375 C105.292 167.958 105.292 167.958 105.125 164.375 C104.465 163.715 103.805 163.055 103.125 162.375 C99.154 162.375 97.96 163.689 95.125 166.375 Z M105.125 188.375 C104.795 189.365 104.465 190.355 104.125 191.375 C106.435 191.375 108.745 191.375 111.125 191.375 C110.465 190.385 109.805 189.395 109.125 188.375 C107.805 188.375 106.485 188.375 105.125 188.375 Z M84.125 192.375 C84.125 193.035 84.125 193.695 84.125 194.375 C86.435 194.375 88.745 194.375 91.125 194.375 C89.145 195.035 87.165 195.695 85.125 196.375 C85.125 197.035 85.125 197.695 85.125 198.375 C88.425 198.045 91.725 197.715 95.125 197.375 C96.458 194.375 96.458 194.375 95.125 191.375 C91.336 191.264 87.849 191.682 84.125 192.375 Z M-105.875 203.375 C-106.768 204.272 -106.768 204.272 -107.68 205.188 C-111.014 208.762 -112.628 211.312 -112.875 216.375 C-109.338 219.719 -105.656 220.097 -101 220.562 C-100.305 220.644 -99.61 220.726 -98.895 220.811 C-94.871 221.261 -90.921 221.457 -86.875 221.375 C-88.079 218.881 -89.329 216.694 -90.875 214.375 C-90.954 212.043 -90.963 209.707 -90.875 207.375 C-88.895 207.375 -86.915 207.375 -84.875 207.375 C-85.141 203.564 -85.704 201.606 -88 198.5 C-90.749 196.17 -90.749 196.17 -94.188 195.625 C-99.498 196.705 -102.186 199.551 -105.875 203.375 Z M-88.875 209.375 C-89.205 210.035 -89.535 210.695 -89.875 211.375 C-88.88 213.853 -88.88 213.853 -87.438 216.5 C-86.964 217.41 -86.491 218.32 -86.004 219.258 C-85.631 219.956 -85.259 220.655 -84.875 221.375 C-84.215 221.375 -83.555 221.375 -82.875 221.375 C-83.017 219.937 -83.164 218.5 -83.312 217.062 C-83.394 216.262 -83.475 215.461 -83.559 214.637 C-83.828 212.214 -83.828 212.214 -84.875 209.375 C-86.195 209.375 -87.515 209.375 -88.875 209.375 Z " fill="#000000" transform="translate(234.875,455.625)"/>
<path d="M0 0 C1.688 0.125 1.688 0.125 4 1 C5.203 2.404 6.399 3.815 7.539 5.27 C13.275 12.064 22.108 20.054 30 24 C29.67 25.32 29.34 26.64 29 28 C24.676 25.217 20.666 22.213 16.75 18.875 C16.192 18.4 15.634 17.925 15.06 17.436 C4.202 8.084 4.202 8.084 0 3 C0 2.01 0 1.02 0 0 Z " fill="#000000" transform="translate(352,466)"/>
<path d="M0 0 C2.783 2.783 2.586 4.943 3.078 8.832 C3.268 10.272 3.459 11.712 3.649 13.152 C3.747 13.912 3.845 14.672 3.945 15.456 C6.027 31.564 8.879 47.358 12.415 63.212 C13.027 66.131 13.529 69.056 14 72 C13.01 72 12.02 72 11 72 C4.011 49.784 -1.678 24.418 -1 1 C-0.67 0.67 -0.34 0.34 0 0 Z " fill="#000000" transform="translate(658,471)"/>
<path d="M0 0 C3.137 1.377 5.066 2.925 7.375 5.438 C11.053 9.22 14.978 12.505 19.125 15.75 C19.711 16.209 20.296 16.669 20.9 17.142 C24.501 19.931 28.182 22.517 32 25 C31.67 25.66 31.34 26.32 31 27 C21.445 25.4 12.781 15.391 6 9 C5.354 8.407 4.708 7.814 4.043 7.203 C2.631 5.867 1.304 4.442 0 3 C0 2.01 0 1.02 0 0 Z " fill="#000000" transform="translate(350,476)"/>
<path d="M0 0 C0.33 0 0.66 0 1 0 C1 13.2 1 26.4 1 40 C0.67 40 0.34 40 0 40 C0 26.8 0 13.6 0 0 Z " fill="#000000" transform="translate(287,496)"/>
<path d="M0 0 C6.944 -0.676 12.476 -1.13 18.188 3.312 C20.614 5.46 22.187 7.281 24 10 C20.938 8.886 18.498 7.672 15.75 5.875 C12.117 3.708 9.165 3.721 5.016 4.055 C3 4 3 4 0 2 C0 1.34 0 0.68 0 0 Z " fill="#000000" transform="translate(83,497)"/>
<path d="M0 0 C0.33 0 0.66 0 1 0 C1.342 3.124 1.672 6.249 2 9.375 C2.143 10.68 2.143 10.68 2.289 12.012 C2.913 18.03 3.117 23.951 3 30 C2.67 30 2.34 30 2 30 C0.752 19.968 -0.358 10.133 0 0 Z " fill="#000000" transform="translate(300,503)"/>
<path d="M0 0 C2.275 3.412 2.566 5.657 3.125 9.688 C3.293 10.867 3.46 12.046 3.633 13.262 C3.754 14.165 3.875 15.069 4 16 C1.625 13.625 1.483 12.376 0.875 9.125 C0.707 8.261 0.54 7.398 0.367 6.508 C0 4 0 4 0 0 Z " fill="#000000" transform="translate(261,504)"/>
<path d="M0 0 C5.607 1.438 10.668 4.162 15 8 C16.266 10.699 16.266 10.699 17 13 C13.754 11.4 10.56 9.717 7.375 8 C6.413 7.484 5.452 6.969 4.461 6.438 C2 5 2 5 0 3 C0 2.01 0 1.02 0 0 Z " fill="#000000" transform="translate(113,510)"/>
<path d="M0 0 C0.33 0 0.66 0 1 0 C1 10.23 1 20.46 1 31 C0.67 31 0.34 31 0 31 C0 20.77 0 10.54 0 0 Z " fill="#000000" transform="translate(192,514)"/>
<path d="M0 0 C0.33 0 0.66 0 1 0 C1.104 9.727 1.045 19.313 0 29 C-0.33 29 -0.66 29 -1 29 C-1.123 19.261 -0.838 9.709 0 0 Z " fill="#000000" transform="translate(203,520)"/>
<path d="M0 0 C0.33 0 0.66 0 1 0 C0.858 2.063 0.711 4.125 0.562 6.188 C0.481 7.336 0.4 8.485 0.316 9.668 C0.046 12.516 -0.375 15.212 -1 18 C-1.33 18 -1.66 18 -2 18 C-1.858 15.937 -1.711 13.875 -1.562 11.812 C-1.481 10.664 -1.4 9.515 -1.316 8.332 C-1.046 5.484 -0.625 2.788 0 0 Z " fill="#000000" transform="translate(280,529)"/>
<path d="M0 0 C1.98 0.495 1.98 0.495 4 1 C3.67 2.32 3.34 3.64 3 5 C1.68 4.67 0.36 4.34 -1 4 C-0.67 2.68 -0.34 1.36 0 0 Z " fill="#000000" transform="translate(265,557)"/>
<path d="M0 0 C0.99 0 1.98 0 3 0 C2.928 0.597 2.856 1.194 2.781 1.809 C1.846 10.547 1.907 19.225 2 28 C1.34 28 0.68 28 0 28 C-0.963 25.11 -1.129 23.258 -1.133 20.254 C-1.134 19.334 -1.135 18.414 -1.137 17.467 C-1.133 16.508 -1.129 15.55 -1.125 14.562 C-1.129 13.608 -1.133 12.653 -1.137 11.67 C-1.135 10.749 -1.134 9.828 -1.133 8.879 C-1.132 8.039 -1.131 7.199 -1.129 6.334 C-1.005 4.092 -0.624 2.151 0 0 Z " fill="#000000" transform="translate(117,587)"/>
<path d="M0 0 C0 1.32 0 2.64 0 4 C-7.36 4.797 -14.598 5.129 -22 5 C-22 4.01 -22 3.02 -22 2 C-15.918 -1.041 -6.761 -0.157 0 0 Z " fill="#000000" transform="translate(278,588)"/>
<path d="M0 0 C0 0.99 0 1.98 0 3 C-4.62 3.33 -9.24 3.66 -14 4 C-14 2.68 -14 1.36 -14 0 C-4.59 -1.333 -4.59 -1.333 0 0 Z " fill="#000000" transform="translate(276,600)"/>
<path d="M0 0 C3.326 2.982 5.292 5.864 7 10 C6.67 10.66 6.34 11.32 6 12 C4.995 10.378 3.996 8.753 3 7.125 C2.443 6.22 1.886 5.315 1.312 4.383 C0 2 0 2 0 0 Z " fill="#000000" transform="translate(142,610)"/>
<path d="M0 0 C1.65 0.33 3.3 0.66 5 1 C4.67 1.99 4.34 2.98 4 4 C2.35 3.67 0.7 3.34 -1 3 C-0.67 2.01 -0.34 1.02 0 0 Z " fill="#000000" transform="translate(267,611)"/>
<path d="M0 0 C0.33 0 0.66 0 1 0 C1 5.61 1 11.22 1 17 C0.67 17 0.34 17 0 17 C0 11.39 0 5.78 0 0 Z " fill="#000000" transform="translate(212,616)"/>
<path d="M0 0 C0 1.32 0 2.64 0 4 C-3.63 4.33 -7.26 4.66 -11 5 C-11.33 3.68 -11.66 2.36 -12 1 C-7.936 0.226 -4.136 -0.098 0 0 Z " fill="#000000" transform="translate(279,621)"/>
<path d="M0 0 C0.66 0.33 1.32 0.66 2 1 C1.413 15.046 0.243 23.928 -10 34 C-10.66 33.67 -11.32 33.34 -12 33 C-11.092 32.051 -10.185 31.102 -9.25 30.125 C-1.845 21.341 -1.038 11.008 0 0 Z " fill="#000000" transform="translate(644,622)"/>
<path d="M0 0 C0.66 0 1.32 0 2 0 C3.843 3.432 5.673 6.872 7.5 10.312 C8.025 11.289 8.549 12.265 9.09 13.271 C9.586 14.209 10.082 15.147 10.594 16.113 C11.285 17.409 11.285 17.409 11.99 18.732 C13 21 13 21 13 24 C9.476 22.825 9.274 22.239 7.555 19.105 C7.118 18.315 6.681 17.524 6.23 16.709 C5.783 15.877 5.336 15.045 4.875 14.188 C4.42 13.367 3.965 12.547 3.496 11.701 C-0.4 4.574 -0.4 4.574 -1 1 C-0.67 0.67 -0.34 0.34 0 0 Z " fill="#000000" transform="translate(105,630)"/>
<path d="M0 0 C0.33 0 0.66 0 1 0 C1.108 12.711 1.121 25.33 0 38 C-0.33 38 -0.66 38 -1 38 C-1.112 25.286 -0.931 12.682 0 0 Z " fill="#000000" transform="translate(195,630)"/>
<path d="M0 0 C0 1.32 0 2.64 0 4 C-3.3 4 -6.6 4 -10 4 C-10 3.01 -10 2.02 -10 1 C-6.785 -0.607 -3.564 -0.057 0 0 Z " fill="#000000" transform="translate(284,632)"/>
<path d="M0 0 C0.33 0 0.66 0 1 0 C1.116 13.045 0.89 25.984 0 39 C-0.33 39 -0.66 39 -1 39 C-1.116 25.955 -0.89 13.016 0 0 Z " fill="#000000" transform="translate(211,633)"/>
<path d="M0 0 C0.66 0 1.32 0 2 0 C1.295 11.045 -5.592 18.327 -13 26 C-13.705 26.762 -14.41 27.524 -15.137 28.309 C-15.752 28.867 -16.366 29.425 -17 30 C-19.25 29.75 -19.25 29.75 -21 29 C-20.361 28.381 -19.721 27.763 -19.062 27.125 C-18.037 26.088 -17.017 25.045 -16 24 C-15.287 23.272 -14.574 22.543 -13.84 21.793 C-8.614 16.254 -5.041 10.96 -2 4 C-1.341 2.663 -0.676 1.328 0 0 Z " fill="#000000" transform="translate(677,634)"/>
<path d="M0 0 C3.67 0.622 6.835 1.649 10.254 3.109 C33.843 12.997 56.845 17.355 82 21 C82 21.99 82 22.98 82 24 C62.425 23.639 42.381 19.684 24 13 C22.845 12.587 21.69 12.175 20.5 11.75 C6.232 6.465 6.232 6.465 1 3 C0.67 2.01 0.34 1.02 0 0 Z " fill="#000000" transform="translate(220,757)"/>
</svg>
