<?xml version="1.0" encoding="UTF-8"?>
<!-- Generator: visioncortex VTracer 0.6.0 -->
<svg version="1.1" xmlns="http://www.w3.org/2000/svg" width="1024" height="1024">
<path d="M0 0 C2.23 2.589 2.888 4.497 3.625 7.812 C2.418 13.966 -2.718 17.8 -7.137 21.969 C-7.68 22.49 -8.224 23.011 -8.784 23.548 C-9.871 24.585 -10.972 25.606 -12.087 26.612 C-14.831 29.221 -15.952 30.538 -16.348 34.367 C-16.233 35.236 -16.118 36.105 -16 37 C-17.32 36.34 -18.64 35.68 -20 35 C-20.647 35.651 -21.294 36.303 -21.961 36.974 C-28.048 43.101 -34.139 49.223 -40.236 55.34 C-43.371 58.485 -46.504 61.632 -49.632 64.783 C-52.649 67.822 -55.671 70.856 -58.697 73.887 C-59.852 75.046 -61.006 76.207 -62.158 77.37 C-63.767 78.993 -65.383 80.611 -67 82.227 C-67.919 83.15 -68.838 84.074 -69.785 85.026 C-72 87 -72 87 -74 87 C-74 87.66 -74 88.32 -74 89 C-71.03 89.66 -68.06 90.32 -65 91 C-65.021 90.051 -65.041 89.103 -65.062 88.125 C-65 85 -65 85 -64 83 C-63.01 83 -62.02 83 -61 83 C-60.875 90.75 -60.875 90.75 -62 93 C-50.526 93.676 -39.242 92.394 -30 85 C-30.186 83.721 -30.371 82.442 -30.562 81.125 C-31.125 77.25 -31.125 77.25 -30 75 C-29.01 75 -28.02 75 -27 75 C-27 76.98 -27 78.96 -27 81 C-26.34 81 -25.68 81 -25 81 C-24.58 80.118 -24.58 80.118 -24.152 79.219 C-23.085 77.164 -21.892 75.389 -20.562 73.5 C-14.336 63.478 -14.61 52.369 -15 41 C-10.744 45.256 -11.69 51.319 -11.685 56.957 C-11.888 68.989 -16.688 78.268 -24.879 87.004 C-35.025 96.494 -46.567 99.481 -60.16 99.332 C-66.569 98.778 -72.187 96.558 -78.094 94.145 C-80.148 93.774 -80.148 93.774 -81.895 95.477 C-82.527 96.186 -83.16 96.895 -83.812 97.625 C-92.882 107.181 -92.882 107.181 -99.125 107.625 C-103 107 -103 107 -106 105 C-108.049 101.926 -108.864 99.826 -108.605 96.102 C-107.091 90.845 -102.375 87.278 -98.496 83.672 C-97.261 82.504 -97.261 82.504 -96 81.312 C-95.216 80.607 -94.433 79.902 -93.625 79.176 C-91.728 77.126 -91.728 77.126 -92.152 74.562 C-92.432 73.717 -92.712 72.871 -93 72 C-97.409 57.084 -98.056 41.614 -90.875 27.375 C-85.733 18.877 -78.375 11.347 -70 6 C-69.34 6 -68.68 6 -68 6 C-67.01 8.31 -66.02 10.62 -65 13 C-65.629 13.461 -66.258 13.923 -66.906 14.398 C-77.633 22.573 -85.098 31.629 -88 45 C-88.089 46.505 -88.131 48.012 -88.133 49.52 C-88.134 50.377 -88.135 51.235 -88.137 52.119 C-88.131 53.452 -88.131 53.452 -88.125 54.812 C-88.129 55.69 -88.133 56.567 -88.137 57.471 C-88.129 62.421 -87.839 67.12 -87 72 C-81.404 67.238 -76.144 62.244 -71 57 C-67.189 53.114 -63.39 49.283 -59.25 45.746 C-53.539 40.827 -48.304 35.41 -43 30.062 C-41.929 28.986 -40.857 27.91 -39.785 26.834 C-37.187 24.225 -34.593 21.614 -32 19 C-35.122 16.576 -38.006 15.03 -41.688 13.562 C-46.841 11.476 -51.934 9.29 -57 7 C-56.67 5.68 -56.34 4.36 -56 3 C-55.34 3 -54.68 3 -54 3 C-54 2.34 -54 1.68 -54 1 C-49.187 1.566 -45.233 3.033 -40.938 5.188 C-39.75 5.759 -38.563 6.33 -37.34 6.918 C-33.564 9.272 -31.641 11.47 -29 15 C-23.691 10.517 -18.598 5.851 -13.551 1.074 C-8.784 -2.802 -5.656 -2.262 0 0 Z M-11.968 9.643 C-13.177 10.86 -14.379 12.085 -15.574 13.316 C-16.217 13.966 -16.86 14.615 -17.522 15.284 C-19.584 17.37 -21.636 19.466 -23.688 21.562 C-25.722 23.633 -27.76 25.701 -29.8 27.766 C-31.069 29.052 -32.335 30.341 -33.597 31.633 C-37.318 35.416 -41.179 38.957 -45.196 42.424 C-47.369 44.322 -49.415 46.317 -51.438 48.375 C-52.188 49.133 -52.938 49.891 -53.711 50.672 C-54.466 51.44 -55.222 52.208 -56 53 C-64.422 61.566 -64.422 61.566 -68.934 65.434 C-73.909 69.709 -78.461 74.392 -83.062 79.062 C-88.534 84.616 -93.987 90.031 -100 95 C-99.67 96.65 -99.34 98.3 -99 100 C-95.513 98.516 -93.358 96.538 -90.75 93.812 C-88.045 90.994 -85.275 88.349 -82.312 85.807 C-78.171 82.196 -74.264 78.399 -70.391 74.504 C-69.677 73.791 -68.964 73.078 -68.229 72.343 C-65.901 70.014 -63.575 67.681 -61.25 65.348 C-59.625 63.721 -58 62.094 -56.374 60.468 C-52.118 56.207 -47.864 51.944 -43.611 47.679 C-39.262 43.32 -34.91 38.964 -30.559 34.607 C-22.036 26.074 -13.517 17.538 -5 9 C-5.495 8.01 -5.495 8.01 -6 7 C-9.289 6.667 -9.289 6.667 -11.968 9.643 Z " fill="#000000" transform="translate(586,135)"/>
<path d="M0 0 C0.99 0.33 1.98 0.66 3 1 C3.675 5.353 4.339 9.707 5 14.062 C5.286 15.906 5.286 15.906 5.578 17.787 C5.759 18.983 5.939 20.178 6.125 21.41 C6.293 22.505 6.46 23.599 6.633 24.727 C7.02 28.177 7.061 31.531 7 35 C6.01 35 5.02 35 4 35 C3.349 31.209 2.705 27.417 2.062 23.625 C1.88 22.564 1.698 21.503 1.51 20.41 C-0.858 6.375 -0.858 6.375 -1 1 C-0.67 0.67 -0.34 0.34 0 0 Z " fill="#000000" transform="translate(890,159)"/>
<path d="M0 0 C3.169 0.577 4.782 1.416 7.016 3.723 C7.544 4.261 8.073 4.799 8.617 5.354 C9.156 5.917 9.695 6.481 10.25 7.062 C10.804 7.63 11.359 8.198 11.93 8.783 C13.293 10.182 14.648 11.59 16 13 C15.67 13.99 15.34 14.98 15 16 C14.01 15.67 13.02 15.34 12 15 C12 14.34 12 13.68 12 13 C11.402 12.732 10.804 12.464 10.188 12.188 C8.002 11.001 6.587 9.904 5 8 C5 7.34 5 6.68 5 6 C4.34 6 3.68 6 3 6 C0 2.538 0 2.538 0 0 Z " fill="#000000" transform="translate(835,189)"/>
<path d="M0 0 C8.444 2.008 16.728 4.372 25 7 C25 8.32 25 9.64 25 11 C21.227 10.051 17.457 9.089 13.688 8.125 C12.616 7.856 11.544 7.586 10.439 7.309 C9.411 7.044 8.383 6.78 7.324 6.508 C6.376 6.267 5.428 6.026 4.452 5.778 C2 5 2 5 -1 3 C-0.67 2.01 -0.34 1.02 0 0 Z " fill="#000000" transform="translate(754,190)"/>
<path d="M0 0 C4.576 3.153 4.576 3.153 6 6 C6.531 9.794 6.851 13.463 4.953 16.891 C3.179 19.041 1.507 20.746 -1 22 C-1.598 21.977 -2.196 21.954 -2.812 21.93 C-6.97 21.826 -9.282 22.39 -12.5 25.125 C-15.114 28 -17.584 30.96 -20 34 C-20.822 35.002 -21.645 36.003 -22.492 37.035 C-24.004 38.877 -25.506 40.727 -26.992 42.59 C-29 45 -29 45 -31.27 47.133 C-32.126 48.057 -32.126 48.057 -33 49 C-32.905 51.99 -32.905 51.99 -32 55 C-27.838 72.311 -29.736 95.83 -34 113 C-34.22 113.892 -34.441 114.784 -34.668 115.703 C-47.616 166.399 -75.567 211.745 -107 253 C-107.488 253.641 -107.976 254.282 -108.479 254.943 C-115.335 263.904 -122.589 272.495 -130 281 C-130.988 282.141 -130.988 282.141 -131.996 283.305 C-133.067 284.536 -134.141 285.764 -135.222 286.987 C-136.384 288.303 -137.541 289.624 -138.692 290.949 C-145.719 298.923 -153.243 306.394 -160.766 313.896 C-163.064 316.189 -165.358 318.488 -167.65 320.787 C-169.132 322.269 -170.615 323.75 -172.098 325.23 C-172.772 325.907 -173.446 326.583 -174.141 327.28 C-178.061 331.181 -182.086 334.904 -186.276 338.514 C-188.494 340.425 -190.652 342.399 -192.812 344.375 C-197.056 348.2 -201.409 351.851 -205.852 355.441 C-208.178 357.323 -210.48 359.231 -212.773 361.152 C-236.342 380.845 -261.534 398.143 -287.11 415.084 C-288.064 415.716 -289.017 416.349 -290 417 C-291.09 417.618 -292.181 418.236 -293.304 418.873 C-296.206 420.751 -296.206 420.751 -296.861 423.748 C-296.917 424.799 -296.973 425.85 -297.031 426.934 C-297.116 428.125 -297.201 429.316 -297.288 430.544 C-297.393 432.471 -297.393 432.471 -297.5 434.438 C-297.703 437.173 -297.935 439.905 -298.176 442.637 C-298.236 443.334 -298.297 444.031 -298.359 444.75 C-303.43 499.899 -329.159 564.673 -364 608 C-364.782 608.986 -365.565 609.972 -366.371 610.988 C-388.579 638.392 -424.08 674.413 -461 679 C-469.901 679.814 -469.901 679.814 -472.638 677.786 C-474.512 675.329 -474.173 674.064 -473.781 671.029 C-473.655 669.995 -473.53 668.961 -473.401 667.896 C-473.246 666.753 -473.09 665.611 -472.93 664.434 C-472.778 663.216 -472.626 661.999 -472.469 660.745 C-472.132 658.062 -471.788 655.381 -471.435 652.701 C-470.867 648.394 -470.321 644.084 -469.779 639.774 C-469.188 635.08 -468.594 630.387 -467.993 625.694 C-466.292 612.402 -464.658 599.103 -463.043 585.801 C-462.793 583.743 -462.543 581.685 -462.293 579.627 C-461.796 575.532 -461.299 571.437 -460.802 567.343 C-459.723 558.451 -458.641 549.559 -457.554 540.668 C-457.335 538.876 -457.117 537.084 -456.899 535.292 C-456.599 532.827 -456.298 530.361 -455.996 527.896 C-455.91 527.179 -455.823 526.463 -455.734 525.724 C-455.251 521.797 -454.681 517.898 -454 514 C-460.192 515.375 -464.736 518.092 -470 521.562 C-471.687 522.648 -473.374 523.733 -475.062 524.816 C-476.312 525.623 -476.312 525.623 -477.586 526.446 C-502.529 542.504 -502.529 542.504 -514 541 C-534.988 533.53 -550.4 508.281 -559.844 489.438 C-560.225 488.633 -560.607 487.829 -561 487 C-565.272 487.556 -568.226 490.179 -571.562 492.688 C-587.836 504.544 -587.836 504.544 -594 504.312 C-597 503 -597 503 -598.812 500.312 C-605.362 480.34 -603.325 456.595 -594 438 C-593.063 436.569 -592.106 435.151 -591.125 433.75 C-588.872 430.338 -588.635 428.134 -589.41 424.152 C-590.248 421.094 -591.119 418.046 -592 415 C-611.653 419.168 -628.774 424.994 -640.418 442.398 C-643.9 448.124 -646.373 453.494 -648 460 C-649.98 460 -651.96 460 -654 460 C-655.117 458.348 -655.117 458.348 -656 456 C-653.931 447.185 -648.452 440.016 -643 433 C-642.34 432.01 -641.68 431.02 -641 430 C-640.34 430 -639.68 430 -639 430 C-639 429.34 -639 428.68 -639 428 C-626.231 416.839 -611.457 411.674 -595 409 C-595.273 408.208 -595.545 407.417 -595.826 406.601 C-596.839 403.649 -597.844 400.695 -598.845 397.739 C-599.492 395.837 -600.146 393.937 -600.801 392.037 C-601.207 390.835 -601.613 389.633 -602.031 388.395 C-602.408 387.29 -602.785 386.185 -603.174 385.046 C-603.948 382.192 -604.172 379.935 -604 377 C-600.125 376 -600.125 376 -599 376 C-598.898 375.264 -598.796 374.528 -598.691 373.77 C-596.404 364.608 -585.889 356.732 -579.373 350.358 C-578.694 349.693 -578.016 349.029 -577.316 348.344 C-576.702 347.748 -576.088 347.151 -575.455 346.537 C-573.902 345.045 -573.902 345.045 -573 343 C-572.34 343 -571.68 343 -571 343 C-570.732 342.402 -570.464 341.804 -570.188 341.188 C-569.009 339.017 -567.769 337.692 -566 336 C-566.92 335.798 -567.839 335.597 -568.787 335.389 C-582.511 332.304 -595.989 328.398 -609.5 324.5 C-611.976 323.788 -614.451 323.076 -616.927 322.365 C-621.903 320.933 -626.879 319.498 -631.854 318.061 C-637.446 316.446 -643.042 314.843 -648.639 313.245 C-652.46 312.153 -656.278 311.053 -660.095 309.952 C-661.854 309.445 -663.613 308.942 -665.374 308.441 C-667.788 307.754 -670.199 307.056 -672.609 306.355 C-673.308 306.159 -674.006 305.963 -674.726 305.761 C-678.359 304.691 -681.143 303.513 -684 301 C-683.478 295.284 -681.23 290.971 -678.562 286 C-677.891 284.742 -677.891 284.742 -677.207 283.458 C-670.312 270.798 -661.554 259.748 -652 249 C-651.381 248.296 -650.763 247.592 -650.125 246.867 C-622.745 217.654 -585.972 207.064 -547.612 202.265 C-544.505 201.876 -541.399 201.475 -538.293 201.074 C-521.358 198.911 -504.635 197.765 -487.562 197.75 C-486.318 197.748 -486.318 197.748 -485.048 197.747 C-469.461 197.76 -453.826 198.233 -438.711 202.406 C-430.338 205.035 -430.338 205.035 -422.016 203.742 C-419.668 201.814 -417.607 199.778 -415.547 197.549 C-412.467 194.464 -408.905 191.942 -405.438 189.312 C-403.874 188.105 -402.311 186.895 -400.75 185.684 C-399.964 185.075 -399.177 184.466 -398.367 183.839 C-396.05 182.039 -393.742 180.227 -391.438 178.41 C-390.683 177.817 -389.928 177.225 -389.151 176.614 C-387.758 175.52 -386.368 174.423 -384.98 173.322 C-371.629 162.859 -357.42 153.465 -343.312 144.062 C-342.53 143.541 -341.747 143.019 -340.941 142.481 C-328.525 134.216 -315.995 126.328 -303 119 C-301.044 117.881 -299.088 116.761 -297.133 115.641 C-239.25 82.674 -175.972 52.031 -110 40 C-108.827 39.774 -107.654 39.549 -106.445 39.316 C-86.884 36.101 -63.347 35.448 -44.884 43.501 C-42.542 44.121 -41.255 43.84 -39 43 C-36.863 41.045 -36.863 41.045 -34.812 38.562 C-34.03 37.661 -33.248 36.76 -32.441 35.832 C-31.636 34.897 -30.83 33.963 -30 33 C-28.421 31.246 -26.837 29.496 -25.25 27.75 C-24.514 26.92 -23.778 26.09 -23.02 25.234 C-21.828 23.916 -20.606 22.622 -19.324 21.391 C-17.203 19.263 -16.034 17.657 -15.879 14.625 C-15.959 12.885 -16.045 11.146 -16.137 9.406 C-15.983 6.697 -15.486 5.601 -13.812 3.5 C-9.175 -0.623 -6.067 -1.769 0 0 Z M-5 7 C-5.99 7.99 -6.98 8.98 -8 10 C-7.67 10.99 -7.34 11.98 -7 13 C-5.35 13 -3.7 13 -2 13 C-2 11.35 -2 9.7 -2 8 C-2.99 7.67 -3.98 7.34 -5 7 Z M-196.737 74.02 C-199.037 75.016 -201.35 75.978 -203.668 76.934 C-219.795 83.624 -235.42 91.345 -251.077 99.055 C-253.93 100.457 -256.788 101.849 -259.645 103.242 C-273.397 109.99 -286.756 117.307 -300 125 C-300.904 125.522 -301.809 126.043 -302.74 126.581 C-323.057 138.319 -342.969 150.762 -361.974 164.535 C-364.076 166.055 -366.188 167.562 -368.301 169.066 C-380.057 177.463 -391.544 186.2 -403 195 C-404.242 195.951 -405.484 196.901 -406.727 197.852 C-409.826 200.224 -412.915 202.609 -416 205 C-416.536 205.415 -417.072 205.83 -417.624 206.257 C-434.475 219.332 -450.826 233.018 -466.832 247.113 C-468.591 248.644 -470.359 250.159 -472.137 251.668 C-479.72 258.111 -487.119 264.708 -494.391 271.5 C-496.544 273.507 -498.707 275.503 -500.872 277.499 C-501.961 278.503 -503.049 279.507 -504.136 280.513 C-506.772 282.95 -509.414 285.379 -512.074 287.789 C-519.461 294.505 -526.555 301.477 -533.557 308.594 C-537.579 312.663 -541.686 316.535 -546.016 320.273 C-556.913 329.259 -556.913 329.259 -563.988 341.051 C-563.88 343.818 -563.449 346.226 -562.645 348.873 C-561.853 351.485 -561.196 354.123 -560.527 356.77 C-557.327 369.066 -553.465 381.108 -549 393 C-544.319 389.994 -539.771 386.851 -535.324 383.508 C-517.549 370.189 -498.588 358.441 -479.355 347.363 C-477.196 346.113 -475.051 344.843 -472.91 343.562 C-454.562 332.661 -454.562 332.661 -445 334 C-439.748 336.259 -438.132 339.763 -435.812 344.688 C-435.47 345.37 -435.128 346.053 -434.775 346.756 C-431.543 353.402 -429.705 359.776 -429.812 367.25 C-429.822 368.743 -429.822 368.743 -429.832 370.266 C-430.108 374.764 -430.108 374.764 -431 377 C-432.539 378.246 -432.539 378.246 -434.625 379.438 C-439.26 382.346 -443.281 385.706 -447.375 389.312 C-451.752 393.167 -456.139 396.972 -460.688 400.625 C-464.591 403.782 -468.324 407.084 -472 410.5 C-476.53 414.71 -481.203 418.676 -486.02 422.555 C-489.573 425.47 -493.037 428.478 -496.5 431.5 C-501.796 436.118 -507.153 440.631 -512.613 445.055 C-515.793 447.646 -518.9 450.314 -522 453 C-520.473 457.538 -517.959 461.136 -515.125 464.938 C-514.642 465.59 -514.159 466.242 -513.661 466.915 C-502.406 481.922 -490.057 494.814 -475 506 C-474.27 506.587 -473.541 507.173 -472.789 507.777 C-470.296 509.742 -468.669 510.984 -465.438 511.062 C-462.111 509.613 -459.763 508.421 -457 506 C-456.109 502.758 -456.115 499.598 -456.125 496.25 C-456.104 495.362 -456.084 494.474 -456.062 493.559 C-456.015 491.371 -455.996 489.188 -456 487 C-455.344 486.79 -454.688 486.58 -454.012 486.363 C-449.872 484.49 -446.454 481.884 -442.812 479.188 C-441.19 478 -439.568 476.812 -437.945 475.625 C-437.121 475.019 -436.296 474.413 -435.446 473.789 C-433.159 472.116 -430.86 470.46 -428.555 468.812 C-404.034 451.285 -380.012 432.867 -357.875 412.375 C-353.834 408.658 -349.78 404.964 -345.625 401.375 C-344.221 400.149 -344.221 400.149 -342.789 398.898 C-339.725 396.813 -337.621 396.489 -334 396 C-334.425 425.9 -336.196 453.971 -344 483 C-344.231 483.871 -344.461 484.742 -344.699 485.639 C-357.742 534.174 -383.956 579.86 -415 619 C-415.748 619.96 -416.495 620.921 -417.266 621.91 C-421.196 626.916 -425.332 631.688 -429.629 636.383 C-431.527 638.478 -433.38 640.598 -435.227 642.738 C-439.254 647.349 -443.499 651.72 -447.812 656.062 C-448.927 657.208 -448.927 657.208 -450.064 658.377 C-450.813 659.13 -451.561 659.884 -452.332 660.66 C-452.989 661.327 -453.646 661.993 -454.323 662.68 C-458.305 666.131 -462.65 669.036 -467 672 C-466.87 671.06 -466.87 671.06 -466.737 670.101 C-463.146 644.018 -460.03 617.876 -456.874 591.738 C-455.72 582.189 -454.564 572.641 -453.407 563.092 C-453.011 559.816 -452.615 556.54 -452.219 553.263 C-452.032 551.718 -452.032 551.718 -451.842 550.14 C-451.597 548.114 -451.352 546.087 -451.108 544.06 C-450.475 538.828 -449.823 533.6 -449.147 528.373 C-449.007 527.288 -448.868 526.202 -448.724 525.084 C-448.458 523.019 -448.188 520.955 -447.914 518.891 C-447.27 513.879 -446.853 509.054 -447 504 C-449.08 507.12 -449.372 508.44 -449.787 512.063 C-449.912 513.117 -450.037 514.171 -450.165 515.257 C-450.295 516.421 -450.425 517.585 -450.559 518.785 C-450.782 520.692 -451.005 522.598 -451.228 524.504 C-451.469 526.578 -451.706 528.652 -451.943 530.726 C-452.707 537.437 -453.493 544.145 -454.278 550.854 C-454.467 552.467 -454.655 554.079 -454.843 555.692 C-456.37 568.803 -457.962 581.906 -459.589 595.005 C-459.972 598.081 -460.353 601.156 -460.734 604.232 C-462.791 620.84 -462.791 620.84 -463.755 628.522 C-464.356 633.313 -464.951 638.105 -465.541 642.897 C-465.76 644.668 -465.982 646.439 -466.206 648.21 C-467.341 657.169 -468.385 665.945 -468 675 C-444.875 676.36 -424.832 661.063 -408 647 C-407.462 646.553 -406.925 646.105 -406.371 645.644 C-393.793 635.145 -382.822 624.126 -373 611 C-372.374 610.169 -371.747 609.337 -371.102 608.48 C-336.441 560.721 -299.556 479.011 -305.407 418.878 C-306.809 412.076 -311.32 407.841 -316.405 403.447 C-318.958 401.131 -320.984 398.513 -323.125 395.812 C-324.181 394.523 -324.181 394.523 -325.258 393.207 C-327 391 -327 391 -329 388 C-328.224 388.403 -327.448 388.806 -326.648 389.222 C-323.734 390.736 -320.819 392.249 -317.904 393.762 C-316.649 394.413 -315.394 395.065 -314.139 395.717 C-313.532 396.032 -312.926 396.347 -312.301 396.672 C-311.401 397.14 -311.401 397.14 -310.483 397.617 C-308.714 398.533 -306.941 399.443 -305.168 400.354 C-303.281 401.334 -301.404 402.336 -299.551 403.381 C-295.142 405.82 -292.852 406.246 -288 405 C-285.26 403.574 -285.26 403.574 -282.613 401.676 C-281.602 400.984 -280.59 400.292 -279.548 399.579 C-278.48 398.831 -277.413 398.083 -276.312 397.312 C-275.193 396.538 -274.074 395.765 -272.954 394.992 C-258.267 384.816 -243.933 374.185 -230 363 C-229.055 362.245 -229.055 362.245 -228.092 361.474 C-214.965 350.963 -202.202 340.077 -189.879 328.633 C-188.399 327.279 -186.916 325.929 -185.386 324.632 C-178.705 318.956 -172.575 312.726 -166.391 306.521 C-164.442 304.567 -162.488 302.618 -160.533 300.67 C-154.476 294.616 -148.514 288.559 -143 282 C-141.967 280.82 -140.932 279.641 -139.895 278.465 C-129.042 266.069 -118.741 253.291 -109 240 C-108.461 239.267 -107.922 238.534 -107.367 237.779 C-105.573 235.336 -103.785 232.887 -102 230.438 C-101.423 229.651 -100.846 228.864 -100.252 228.053 C-99.715 227.313 -99.178 226.572 -98.625 225.809 C-98.143 225.147 -97.661 224.485 -97.164 223.802 C-95.827 221.897 -95.827 221.897 -95 219 C-96.398 219.087 -96.398 219.087 -97.824 219.176 C-120.79 219.989 -137.302 205.623 -153.34 190.844 C-158.721 185.643 -163.396 179.889 -168 174 C-168.422 173.471 -168.843 172.942 -169.277 172.396 C-188.999 147.495 -204.525 114.406 -204 82 C-202.515 81.505 -202.515 81.505 -201 81 C-200.853 82.87 -200.853 82.87 -200.703 84.777 C-198.097 115.432 -187.754 140.952 -170 166 C-169.278 167.042 -168.556 168.083 -167.812 169.156 C-153.458 188.893 -132.668 209.847 -108.375 216.5 C-106.257 216.861 -106.257 216.861 -104 217 C-103.02 217.077 -102.041 217.155 -101.031 217.234 C-96.821 217.255 -93.414 217.19 -90.102 214.402 C-88.155 211.711 -86.602 208.911 -85 206 C-84.142 204.607 -83.275 203.22 -82.402 201.836 C-56.922 161.099 -30.876 108.762 -39 59 C-39.99 59 -40.98 59 -42 59 C-42.009 59.733 -42.019 60.466 -42.028 61.221 C-42.879 114.718 -62.561 169.772 -96 212 C-115.532 210.662 -132.765 198.837 -146 185 C-146.66 185 -147.32 185 -148 185 C-148 184.34 -148 183.68 -148 183 C-149.624 181.292 -151.299 179.632 -153 178 C-165.122 165.653 -174.048 151.3 -182 136 C-182.321 135.386 -182.642 134.773 -182.973 134.141 C-191.807 116.841 -195.015 97.037 -198 78 C-196.743 77.602 -195.486 77.203 -194.191 76.793 C-189.653 75.28 -185.288 73.478 -180.896 71.587 C-154.089 60.041 -126.092 51.233 -97 48 C-96.289 47.919 -95.577 47.838 -94.844 47.754 C-80.338 46.209 -65.007 46.792 -51 51 C-48.667 50.735 -48.667 50.735 -47 50 C-52.649 47.252 -57.917 46.13 -64.125 45.312 C-65.528 45.124 -65.528 45.124 -66.958 44.931 C-110.756 39.336 -157.347 56.767 -196.737 74.02 Z M-134 69.5 C-134.989 69.766 -135.978 70.031 -136.997 70.305 C-151.086 74.243 -169.027 79.69 -179 91 C-179.667 94 -179.667 94 -179 97 C-176.768 99.848 -175.45 100.85 -172 102 C-152.851 103.947 -132.668 91.037 -118 80 C-117.233 79.43 -116.466 78.86 -115.676 78.273 C-112.968 76.131 -111.195 74.504 -109.938 71.25 C-109.748 68.794 -109.748 68.794 -112 67 C-119.552 66.034 -126.748 67.51 -134 69.5 Z M-77 77 C-77.681 78.892 -77.681 78.892 -78 81 C-77.34 81.66 -76.68 82.32 -76 83 C-73.397 82.68 -73.397 82.68 -71 82 C-71.495 79.525 -71.495 79.525 -72 77 C-73.65 77 -75.3 77 -77 77 Z M-100.75 124.062 C-103.145 125.829 -103.145 125.829 -104 128.438 C-104 131.603 -103.114 132.717 -101 135 C-97.568 134.736 -97.568 134.736 -94 134 C-91.705 131.176 -91.705 131.176 -92.062 127.938 C-92.717 124.858 -92.717 124.858 -95.25 123.438 C-98.052 122.756 -98.052 122.756 -100.75 124.062 Z M-539.069 205.419 C-542.129 205.813 -545.191 206.19 -548.254 206.564 C-572.442 209.424 -572.442 209.424 -595.75 216.188 C-596.523 216.484 -597.295 216.78 -598.091 217.085 C-620.726 226.077 -641.702 242.086 -657 261 C-656.67 261.66 -656.34 262.32 -656 263 C-654.944 262.074 -654.944 262.074 -653.867 261.129 C-608.8 222.474 -542.672 215.242 -485.36 219.255 C-474.219 220.238 -463.104 221.483 -452.32 224.547 C-449.695 225.06 -448.513 224.864 -446 224 C-443.924 222.604 -443.924 222.604 -441.891 220.84 C-441.137 220.211 -440.382 219.583 -439.605 218.936 C-438.828 218.276 -438.051 217.617 -437.25 216.938 C-436.457 216.274 -435.664 215.611 -434.848 214.928 C-432.893 213.291 -430.944 211.649 -429 210 C-433.066 207.289 -436.987 206.846 -441.75 206 C-442.724 205.826 -443.699 205.653 -444.702 205.474 C-476.008 200.134 -507.691 201.367 -539.069 205.419 Z M-523 237 C-523.495 238.98 -523.495 238.98 -524 241 C-522.68 241 -521.36 241 -520 241 C-520.33 239.68 -520.66 238.36 -521 237 C-521.66 237 -522.32 237 -523 237 Z M-555 282 C-555 283.32 -555 284.64 -555 286 C-554.01 286 -553.02 286 -552 286 C-551.67 285.01 -551.34 284.02 -551 283 C-552.32 282.67 -553.64 282.34 -555 282 Z M-629 287 C-629 288.32 -629 289.64 -629 291 C-627.68 290.67 -626.36 290.34 -625 290 C-625.33 289.01 -625.66 288.02 -626 287 C-626.99 287 -627.98 287 -629 287 Z M-667 298 C-667 298.66 -667 299.32 -667 300 C-649.275 305.855 -631.359 310.973 -613.39 316.018 C-609.328 317.159 -605.267 318.307 -601.207 319.458 C-598.043 320.353 -594.878 321.244 -591.712 322.134 C-590.213 322.556 -588.715 322.979 -587.217 323.404 C-585.133 323.994 -583.048 324.579 -580.963 325.162 C-579.784 325.494 -578.604 325.826 -577.389 326.168 C-573.936 327.016 -570.526 327.557 -567 328 C-567 327.34 -567 326.68 -567 326 C-585.159 320.345 -603.432 315.129 -621.74 309.982 C-625.803 308.839 -629.865 307.692 -633.927 306.542 C-637.091 305.648 -640.256 304.757 -643.421 303.866 C-644.921 303.444 -646.421 303.02 -647.92 302.596 C-650.001 302.007 -652.083 301.422 -654.166 300.838 C-655.934 300.34 -655.934 300.34 -657.738 299.832 C-660.817 299.047 -663.859 298.47 -667 298 Z M-460 345 C-458.68 348.96 -457.36 352.92 -456 357 C-450.72 357.99 -445.44 358.98 -440 360 C-440 360.66 -440 361.32 -440 362 C-446.93 361.505 -446.93 361.505 -454 361 C-450.923 367.261 -450.923 367.261 -445.5 370.438 C-444.061 371.209 -444.061 371.209 -442.594 371.996 C-439.948 373.337 -439.948 373.337 -437 372 C-434.864 367.728 -435.55 362.726 -436.719 358.242 C-438.67 352.593 -440.813 346.397 -445 342 C-451.1 339.698 -454.703 341.933 -460 345 Z M-568 346 C-567.67 346.99 -567.34 347.98 -567 349 C-566.67 348.01 -566.34 347.02 -566 346 C-566.66 346 -567.32 346 -568 346 Z M-470.219 349.203 C-471.059 349.683 -471.899 350.163 -472.765 350.657 C-473.668 351.183 -474.57 351.708 -475.5 352.25 C-476.435 352.79 -477.369 353.33 -478.333 353.886 C-487.713 359.345 -496.901 365.086 -506 371 C-506.662 371.43 -507.324 371.86 -508.006 372.304 C-529.684 386.457 -551.281 401.258 -569.625 419.629 C-570.956 420.958 -572.303 422.272 -573.703 423.527 C-587.614 436.208 -594.156 454.334 -595.148 472.754 C-595.239 478.542 -594.684 484.257 -594 490 C-593.67 490 -593.34 490 -593 490 C-592.841 488.742 -592.683 487.484 -592.52 486.188 C-588.766 458.012 -577.634 437.335 -558 417 C-557.078 416.018 -557.078 416.018 -556.137 415.016 C-544.28 402.678 -529.375 392.383 -515.105 383.043 C-511.477 380.656 -507.892 378.211 -504.312 375.75 C-503.64 375.289 -502.967 374.827 -502.273 374.352 C-498.741 371.921 -495.235 369.459 -491.762 366.945 C-482.501 360.261 -473.08 354.372 -463 349 C-463 348.34 -463 347.68 -463 347 C-466.326 347 -467.388 347.579 -470.219 349.203 Z M-563 363 C-562 365 -562 365 -562 365 Z M-562 367 C-561 369 -561 369 -561 369 Z M-561 370 C-560 374 -560 374 -560 374 Z M-578 372 C-579.37 373.157 -579.37 373.157 -579.312 376.312 C-579.266 382.746 -576.858 389.284 -574 395 C-572.35 395 -570.7 395 -569 395 C-569.469 391.344 -570.284 388.027 -571.5 384.562 C-572.847 380.685 -573.566 377.076 -574 373 C-575.946 372.409 -575.946 372.409 -578 372 Z M-560 374 C-559 377 -559 377 -559 377 Z M-448 377 C-450.5 378.835 -452.676 380.653 -454.938 382.75 C-456.284 383.959 -457.632 385.167 -458.98 386.375 C-459.655 386.986 -460.33 387.597 -461.025 388.227 C-463.884 390.794 -466.809 393.277 -469.75 395.75 C-470.547 396.423 -470.547 396.423 -471.361 397.11 C-476.527 401.464 -481.759 405.737 -487 410 C-488.834 411.499 -490.667 412.999 -492.5 414.5 C-496.167 417.5 -499.833 420.5 -503.5 423.5 C-504.41 424.245 -505.32 424.99 -506.258 425.758 C-508.063 427.234 -509.87 428.708 -511.68 430.18 C-516.605 434.191 -521.481 438.252 -526.312 442.375 C-530.749 446.158 -535.266 449.805 -539.875 453.375 C-544.844 457.229 -549.645 461.231 -554.375 465.375 C-566.438 475.928 -578.818 485.876 -592 495 C-591.34 495.33 -590.68 495.66 -590 496 C-587.489 494.665 -585.14 493.279 -582.75 491.75 C-582.033 491.296 -581.317 490.842 -580.579 490.375 C-573.957 486.106 -567.812 481.353 -561.709 476.382 C-559.446 474.552 -557.152 472.763 -554.856 470.975 C-543.333 461.991 -531.995 452.789 -520.938 443.239 C-517.5 440.272 -514.026 437.362 -510.5 434.5 C-504.503 429.627 -498.652 424.592 -492.798 419.548 C-489.29 416.528 -485.773 413.519 -482.257 410.507 C-479.3 407.973 -476.345 405.437 -473.395 402.895 C-467.159 397.526 -460.877 392.234 -454.488 387.047 C-450.92 384.112 -447.449 381.073 -444 378 C-445.834 377.277 -445.834 377.277 -448 377 Z M-559 378 C-558 381 -558 381 -558 381 Z M-598 379 C-596.515 386.361 -594.379 393.381 -592 400.5 C-591.644 401.596 -591.288 402.691 -590.922 403.82 C-590.576 404.859 -590.231 405.898 -589.875 406.969 C-589.563 407.912 -589.251 408.855 -588.93 409.826 C-588.206 412.166 -588.206 412.166 -586 413 C-587.478 405.344 -589.927 398.243 -592.625 390.938 C-593.045 389.786 -593.465 388.634 -593.898 387.447 C-594.927 384.63 -595.961 381.814 -597 379 C-597.33 379 -597.66 379 -598 379 Z M-558 381 C-557 384 -557 384 -557 384 Z M-557 384 C-556 387 -556 387 -556 387 Z M-556 387 C-555.67 392.015 -555.67 392.015 -553 396 C-553.66 393.03 -554.32 390.06 -555 387 C-555.33 387 -555.66 387 -556 387 Z M-531.89 407.471 C-533.779 408.84 -535.683 410.183 -537.602 411.512 C-538.599 412.209 -539.597 412.906 -540.625 413.625 C-541.484 414.215 -542.342 414.806 -543.227 415.414 C-543.812 415.937 -544.397 416.461 -545 417 C-545 417.99 -545 418.98 -545 420 C-542.882 420.986 -542.882 420.986 -540 421 C-537.192 419.637 -534.793 417.756 -532.312 415.875 C-531.58 415.338 -530.848 414.801 -530.093 414.248 C-528.532 413.103 -526.975 411.953 -525.423 410.796 C-522.164 408.38 -518.868 406.017 -515.573 403.651 C-513.289 402.01 -511.008 400.365 -508.73 398.715 C-508.106 398.262 -507.481 397.81 -506.837 397.344 C-504.879 395.911 -502.938 394.459 -501 393 C-501.66 391.68 -502.32 390.36 -503 389 C-511.772 389 -524.988 402.423 -531.89 407.471 Z M-526 457 C-525.565 462.306 -522.653 465.829 -519.625 470 C-519.085 470.751 -518.545 471.502 -517.988 472.276 C-505.907 488.884 -492.739 502.468 -475 513 C-478.789 515.234 -482.581 517.462 -486.375 519.688 C-487.436 520.313 -488.497 520.939 -489.59 521.584 C-495.949 525.31 -502.355 528.811 -509 532 C-509 532.66 -509 533.32 -509 534 C-504.494 533.372 -500.759 531.609 -496.75 529.562 C-496.065 529.216 -495.38 528.869 -494.674 528.511 C-489.198 525.698 -483.827 522.711 -478.5 519.625 C-477.752 519.196 -477.004 518.768 -476.233 518.326 C-474.453 517.276 -472.721 516.146 -471 515 C-471 514.34 -471 513.68 -471 513 C-472.931 511.568 -474.863 510.245 -476.875 508.938 C-485.047 503.464 -492.138 497.042 -499 490 C-499.568 489.465 -500.137 488.93 -500.723 488.379 C-509.727 479.768 -516.792 469.607 -523.504 459.168 C-523.998 458.453 -524.491 457.737 -525 457 C-525.33 457 -525.66 457 -526 457 Z M-387 481 C-387.495 482.98 -387.495 482.98 -388 485 C-387.01 485 -386.02 485 -385 485 C-385 483.68 -385 482.36 -385 481 C-385.66 481 -386.32 481 -387 481 Z M-549 497 C-548.67 497.99 -548.34 498.98 -548 500 C-548 499.01 -548 498.02 -548 497 C-548.33 497 -548.66 497 -549 497 Z M-518 498 C-518.793 499.791 -518.793 499.791 -519 502 C-515.696 507.254 -510.261 513.13 -504.188 514.75 C-503.105 514.874 -503.105 514.874 -502 515 C-501.34 513.68 -500.68 512.36 -500 511 C-500.592 510.648 -501.183 510.296 -501.793 509.934 C-505.877 507.382 -509.167 505.21 -511.812 501.125 C-512.534 500.094 -513.256 499.062 -514 498 C-515.32 498 -516.64 498 -518 498 Z M-547 500 C-545.529 504.382 -543.152 507.729 -540.312 511.312 C-539.862 511.886 -539.411 512.459 -538.947 513.05 C-538.046 514.19 -537.141 515.327 -536.232 516.461 C-535.202 517.747 -534.185 519.044 -533.172 520.344 C-527.843 526.863 -520.622 533.895 -512 535 C-512 534.34 -512 533.68 -512 533 C-513.59 531.864 -513.59 531.864 -515.688 530.688 C-525.748 524.192 -533.828 514.646 -541.098 505.242 C-542.913 503.103 -544.69 501.574 -547 500 Z M-417 536 C-417.33 536.99 -417.66 537.98 -418 539 C-416.515 539.99 -416.515 539.99 -415 541 C-414.34 539.68 -413.68 538.36 -413 537 C-414.32 536.67 -415.64 536.34 -417 536 Z M-436 603 C-436 604.32 -436 605.64 -436 607 C-435.01 607 -434.02 607 -433 607 C-432.67 606.01 -432.34 605.02 -432 604 C-433.32 603.67 -434.64 603.34 -436 603 Z " fill="#000000" transform="translate(942,197)"/>
<path d="M0 0 C0.99 0.33 1.98 0.66 3 1 C3 3.64 3 6.28 3 9 C2.01 9.33 1.02 9.66 0 10 C0 6.7 0 3.4 0 0 Z " fill="#000000" transform="translate(549,212)"/>
<path d="M0 0 C0.99 0.33 1.98 0.66 3 1 C3.367 8.466 3.367 8.466 1.625 11 C0 12 0 12 -2 12 C-1.86 10.187 -1.713 8.375 -1.562 6.562 C-1.481 5.553 -1.4 4.544 -1.316 3.504 C-1 1 -1 1 0 0 Z " fill="#000000" transform="translate(543,213)"/>
<path d="M0 0 C0.66 0 1.32 0 2 0 C2 3.3 2 6.6 2 10 C0.68 10.33 -0.64 10.66 -2 11 C-1.34 7.37 -0.68 3.74 0 0 Z " fill="#000000" transform="translate(536,215)"/>
<path d="M0 0 C0.66 0 1.32 0 2 0 C1.67 3.63 1.34 7.26 1 11 C-0.32 10.67 -1.64 10.34 -3 10 C-2.692 8.52 -2.378 7.041 -2.062 5.562 C-1.801 4.327 -1.801 4.327 -1.535 3.066 C-1 1 -1 1 0 0 Z " fill="#000000" transform="translate(530,216)"/>
<path d="M0 0 C-1.471 3.601 -3.367 5.344 -6.438 7.688 C-7.337 8.386 -8.237 9.085 -9.164 9.805 C-10.568 10.891 -10.568 10.891 -12 12 C-18.467 17.208 -24.832 22.53 -31.157 27.909 C-34.632 30.859 -38.144 33.756 -41.688 36.625 C-46.085 40.202 -50.293 43.943 -54.48 47.762 C-57.032 50.028 -59.652 52.175 -62.312 54.312 C-67.764 58.721 -72.877 63.435 -78 68.215 C-80.959 70.973 -83.984 73.646 -87.043 76.293 C-90.169 79.02 -93.238 81.81 -96.312 84.594 C-98.464 86.52 -100.632 88.42 -102.812 90.312 C-106.97 93.944 -110.993 97.704 -115 101.5 C-118.933 105.226 -122.877 108.921 -126.969 112.473 C-131.248 116.188 -135.38 120.047 -139.5 123.938 C-140.208 124.602 -140.915 125.267 -141.645 125.951 C-145.165 129.269 -148.633 132.623 -152.031 136.066 C-154.577 138.633 -157.177 141.065 -159.922 143.418 C-165.483 148.206 -170.525 153.514 -175.641 158.768 C-176.404 159.542 -177.167 160.316 -177.953 161.113 C-178.635 161.812 -179.318 162.511 -180.021 163.232 C-181.937 164.944 -183.653 165.983 -186 167 C-185.417 163.7 -184.442 162.069 -182.076 159.719 C-181.461 159.102 -180.846 158.484 -180.213 157.847 C-179.208 156.861 -179.208 156.861 -178.184 155.855 C-177.494 155.167 -176.804 154.479 -176.093 153.771 C-174.63 152.314 -173.162 150.861 -171.692 149.411 C-169.464 147.213 -167.245 145.005 -165.029 142.795 C-163.602 141.377 -162.174 139.96 -160.746 138.543 C-160.091 137.892 -159.435 137.24 -158.76 136.569 C-154.857 132.726 -150.85 129.052 -146.697 125.48 C-144.702 123.74 -142.838 121.904 -141 120 C-138.518 117.429 -135.93 115.045 -133.234 112.703 C-129.144 109.15 -125.187 105.472 -121.25 101.75 C-112.612 93.62 -103.955 85.515 -94.992 77.742 C-92.64 75.685 -90.32 73.594 -88 71.5 C-82.64 66.668 -77.23 61.902 -71.742 57.215 C-70.536 56.185 -69.331 55.155 -68.125 54.125 C-67.516 53.605 -66.908 53.086 -66.281 52.55 C-62.744 49.521 -59.256 46.449 -55.812 43.312 C-51.626 39.515 -47.3 35.929 -42.906 32.375 C-39.796 29.833 -36.741 27.234 -33.688 24.625 C-28.014 19.792 -22.198 15.164 -16.312 10.594 C-12.467 7.603 -8.721 4.494 -4.988 1.363 C-3 0 -3 0 0 0 Z " fill="#000000" transform="translate(474,219)"/>
<path d="M0 0 C3.315 0.299 4.698 0.691 7.062 3.109 C7.702 3.981 8.341 4.852 9 5.75 C11.814 9.47 14.602 12.814 18 16 C18.217 14.577 18.217 14.577 18.438 13.125 C19 10 19 10 20 8 C20.99 8 21.98 8 23 8 C22.521 12.714 22.032 16.666 20 21 C20.949 20.34 21.898 19.68 22.875 19 C26 17 26 17 28 17 C27.188 18.938 27.188 18.938 26 21 C25.01 21.33 24.02 21.66 23 22 C24.978 26.521 28.206 29.872 31.418 33.562 C33 36 33 36 32.738 38.312 C32.495 38.869 32.251 39.426 32 40 C28.385 38.502 26.314 36.425 23.75 33.5 C23.044 32.706 22.337 31.912 21.609 31.094 C20 29 20 29 20 27 C19.34 27 18.68 27 18 27 C17.807 27.603 17.613 28.207 17.414 28.828 C17.154 29.627 16.893 30.427 16.625 31.25 C16.37 32.039 16.115 32.828 15.852 33.641 C15.048 35.866 14.103 37.909 13 40 C12.01 39.67 11.02 39.34 10 39 C10.66 36.36 11.32 33.72 12 31 C6.555 34.96 6.555 34.96 1 39 C1 38.01 1 37.02 1 36 C3.124 33.984 5.227 32.144 7.5 30.312 C8.12 29.801 8.74 29.29 9.379 28.764 C10.913 27.501 12.456 26.25 14 25 C13.591 19.763 10.77 16.712 7.562 12.812 C7.059 12.184 6.556 11.556 6.037 10.908 C4.098 8.501 2.188 6.188 0 4 C0 2.68 0 1.36 0 0 Z " fill="#000000" transform="translate(650,228)"/>
<path d="M0 0 C0 0.99 0 1.98 0 3 C-2.026 4.777 -4.015 6.361 -6.188 7.938 C-7.348 8.8 -8.508 9.664 -9.668 10.527 C-10.232 10.941 -10.796 11.355 -11.376 11.781 C-12.886 12.914 -14.346 14.113 -15.801 15.316 C-18 17 -18 17 -20 17 C-19.167 12.278 -16.204 10.26 -12.625 7.375 C-12.035 6.885 -11.444 6.395 -10.836 5.891 C-3.69 0 -3.69 0 0 0 Z " fill="#000000" transform="translate(359,252)"/>
<path d="M0 0 C0.66 0.66 1.32 1.32 2 2 C-0.987 4.35 -3.99 6.679 -7 9 C-8.015 9.799 -8.015 9.799 -9.051 10.613 C-10.642 11.823 -12.316 12.922 -14 14 C-14.99 13.67 -15.98 13.34 -17 13 C-12.223 7.745 -6.367 3.184 0 0 Z " fill="#000000" transform="translate(393,251)"/>
<path d="M0 0 C7.369 0.665 14.308 2.507 21.438 4.438 C22.633 4.75 23.829 5.063 25.061 5.385 C26.194 5.69 27.328 5.994 28.496 6.309 C29.529 6.585 30.562 6.861 31.627 7.146 C34 8 34 8 35 10 C34.67 10.66 34.34 11.32 34 12 C4.358 5.179 4.358 5.179 0 3 C0 2.01 0 1.02 0 0 Z " fill="#000000" transform="translate(937,264)"/>
<path d="M0 0 C0.99 0.99 1.98 1.98 3 3 C2.163 3.643 1.327 4.286 0.465 4.949 C-12.068 14.652 -23.991 24.972 -35.512 35.855 C-37.65 37.699 -39.417 38.917 -42 40 C-42 36 -42 36 -40.707 34.5 C-40.082 34.005 -39.457 33.51 -38.812 33 C-34.968 29.834 -31.317 26.53 -27.688 23.125 C-21.99 17.826 -16.09 12.845 -10 8 C-8.561 6.846 -8.561 6.846 -7.094 5.668 C-4.733 3.774 -2.368 1.885 0 0 Z " fill="#000000" transform="translate(365,270)"/>
<path d="M0 0 C0.66 0.33 1.32 0.66 2 1 C2 4 2 4 0.602 5.508 C-0.377 6.308 -0.377 6.308 -1.375 7.125 C-2.479 8.053 -2.479 8.053 -3.605 9 C-4.396 9.66 -5.186 10.32 -6 11 C-12.385 16.55 -18.427 22.372 -24.367 28.388 C-27.235 31.281 -30.124 34.069 -33.25 36.688 C-36.017 38.704 -36.017 38.704 -37 41 C-37.66 41 -38.32 41 -39 41 C-39.383 41.87 -39.383 41.87 -39.773 42.757 C-41.126 45.23 -42.637 46.896 -44.625 48.891 C-45.685 49.954 -45.685 49.954 -46.766 51.039 C-47.503 51.769 -48.24 52.498 -49 53.25 C-50.106 54.368 -50.106 54.368 -51.234 55.508 C-51.941 56.212 -52.647 56.915 -53.375 57.641 C-54.022 58.285 -54.669 58.93 -55.336 59.595 C-57 61 -57 61 -59 61 C-58.406 57.594 -57.249 55.813 -54.93 53.277 C-54.298 52.581 -53.666 51.885 -53.015 51.167 C-52.35 50.452 -51.685 49.737 -51 49 C-50.364 48.309 -49.727 47.618 -49.071 46.907 C-47.1 44.781 -45.116 42.67 -43.125 40.562 C-42.422 39.818 -41.72 39.074 -40.996 38.307 C-34.204 31.13 -27.396 24.104 -19.887 17.672 C-18.065 16.058 -16.377 14.375 -14.688 12.625 C-10.154 7.997 -5.058 4.034 0 0 Z " fill="#000000" transform="translate(329,274)"/>
<path d="M0 0 C0.99 0.33 1.98 0.66 3 1 C0.01 4.25 -3.035 6.383 -6.855 8.582 C-7.426 8.913 -7.997 9.245 -8.585 9.586 C-10.449 10.667 -12.318 11.74 -14.188 12.812 C-16.806 14.325 -19.423 15.842 -22.039 17.359 C-22.702 17.743 -23.364 18.126 -24.046 18.521 C-28.51 21.112 -32.934 23.76 -37.336 26.453 C-37.91 26.803 -38.484 27.153 -39.075 27.514 C-41.8 29.176 -44.518 30.845 -47.229 32.529 C-48.68 33.414 -48.68 33.414 -50.16 34.316 C-51.423 35.097 -51.423 35.097 -52.711 35.893 C-55 37 -55 37 -59 37 C-57.52 33.089 -55.557 31.857 -51.934 29.898 C-50.899 29.331 -49.864 28.763 -48.798 28.178 C-47.689 27.583 -46.58 26.988 -45.438 26.375 C-43.146 25.12 -40.856 23.863 -38.566 22.605 C-37.443 21.991 -36.319 21.377 -35.161 20.744 C-31.023 18.461 -26.94 16.096 -22.875 13.688 C-22.211 13.296 -21.547 12.905 -20.863 12.502 C-17.462 10.491 -14.088 8.441 -10.734 6.352 C-10.044 5.925 -9.353 5.499 -8.641 5.06 C-7.332 4.25 -6.028 3.431 -4.73 2.602 C-3.199 1.657 -1.603 0.818 0 0 Z " fill="#000000" transform="translate(702,302)"/>
<path d="M0 0 C4.934 2.131 7.506 5.838 10.812 9.938 C11.423 10.666 12.033 11.395 12.662 12.146 C13.234 12.85 13.806 13.553 14.395 14.277 C14.919 14.919 15.443 15.561 15.984 16.222 C16.319 16.809 16.654 17.396 17 18 C16.67 18.99 16.34 19.98 16 21 C9.005 15.678 4.173 9.016 -1 2 C-0.67 1.34 -0.34 0.68 0 0 Z " fill="#000000" transform="translate(926,304)"/>
<path d="M0 0 C0 0.99 0 1.98 0 3 C-2.555 4.859 -2.555 4.859 -5.875 6.75 C-6.966 7.384 -8.056 8.018 -9.18 8.672 C-10.11 9.11 -11.041 9.548 -12 10 C-12.66 9.67 -13.32 9.34 -14 9 C-14 8.34 -14 7.68 -14 7 C-11.445 5.273 -11.445 5.273 -8.125 3.375 C-7.034 2.743 -5.944 2.112 -4.82 1.461 C-2 0 -2 0 0 0 Z " fill="#000000" transform="translate(720,307)"/>
<path d="M0 0 C1.859 0.035 1.859 0.035 4 1 C5.703 3.871 5.703 3.871 7.25 7.438 C7.771 8.612 8.292 9.786 8.828 10.996 C10 14 10 14 10 16 C11.025 15.362 12.05 14.724 13.105 14.066 C14.466 13.231 15.827 12.397 17.188 11.562 C18.198 10.931 18.198 10.931 19.229 10.287 C22.798 8.111 25.756 6.453 30 6 C30.66 7.32 31.32 8.64 32 10 C26.274 14.51 20.308 18.355 14 22 C15.051 25.324 16.205 28.559 17.578 31.762 C17.851 32.406 18.125 33.049 18.406 33.713 C18.975 35.045 19.554 36.373 20.141 37.697 C20.953 39.637 20.953 39.637 22 43 C21.34 43.99 20.68 44.98 20 46 C18.134 45.752 18.134 45.752 16 45 C14.812 43.234 14.812 43.234 13.859 40.965 C13.511 40.156 13.163 39.347 12.805 38.514 C12.457 37.664 12.109 36.813 11.75 35.938 C11.386 35.083 11.023 34.229 10.648 33.35 C9.752 31.238 8.87 29.122 8 27 C4.584 27 3.842 27.597 1.125 29.5 C-2.058 31.585 -4.096 32.61 -8 32 C-8.33 30.68 -8.66 29.36 -9 28 C-7.422 26.847 -5.837 25.703 -4.25 24.562 C-3.368 23.924 -2.487 23.286 -1.578 22.629 C0.727 21.172 2.343 20.441 5 20 C4.567 19.047 4.134 18.095 3.688 17.113 C3.125 15.847 2.562 14.58 2 13.312 C1.714 12.687 1.428 12.061 1.133 11.416 C-0.449 7.82 -1.468 4.941 -1 1 C-0.67 0.67 -0.34 0.34 0 0 Z " fill="#000000" transform="translate(505,312)"/>
<path d="M0 0 C-1.617 4.082 -4.544 6.804 -7.625 9.812 C-8.121 10.308 -8.618 10.804 -9.129 11.314 C-11.943 14.096 -14.835 16.746 -17.832 19.328 C-22.447 23.33 -26.756 27.609 -31.062 31.938 C-31.826 32.697 -32.59 33.457 -33.377 34.24 C-37.593 38.464 -41.608 42.756 -45.392 47.373 C-47.13 49.132 -48.743 50.025 -51 51 C-49.533 46.03 -46.655 43.332 -43 39.875 C-38.667 35.734 -38.667 35.734 -35 31 C-34.34 31 -33.68 31 -33 31 C-32.752 30.428 -32.505 29.855 -32.25 29.266 C-30.807 26.65 -29.118 24.852 -27 22.75 C-26.299 22.044 -25.598 21.337 -24.875 20.609 C-23 19 -23 19 -21 19 C-20.67 18.01 -20.34 17.02 -20 16 C-18.469 14.492 -18.469 14.492 -16.5 12.875 C-12.377 9.406 -8.676 5.641 -4.98 1.723 C-3 0 -3 0 0 0 Z " fill="#000000" transform="translate(310,319)"/>
<path d="M0 0 C10.427 8.993 15.669 20.067 16.965 33.723 C18.191 55.242 5.693 74.143 -7.785 89.91 C-8.299 90.569 -8.814 91.228 -9.344 91.906 C-27.015 113.808 -58.317 127.813 -85.785 130.91 C-97.424 131.634 -106.75 131.239 -116.098 123.66 C-124.949 115.273 -128.542 104.34 -129.023 92.336 C-129.23 82.849 -129.324 74.493 -124.785 65.91 C-124.276 64.929 -123.767 63.948 -123.242 62.938 C-107.008 33.553 -72.119 1.955 -39.785 -8.09 C-25.485 -11.006 -11.74 -8.962 0 0 Z M-50.785 -0.09 C-47.24 1.092 -46.312 0.617 -42.848 -0.527 C-35.478 -2.633 -27.652 -3.777 -20.473 -0.465 C-19.217 0.285 -17.987 1.077 -16.785 1.91 C-16.192 2.311 -15.599 2.712 -14.988 3.125 C-4.049 11.475 2.097 26.638 4.215 39.91 C4.447 43.084 4.452 46.229 4.402 49.41 C4.402 50.2 4.401 50.991 4.4 51.805 C4.36 57.236 3.888 62.521 3.215 67.91 C10.787 59.777 14.138 48.681 14.246 37.75 C13.637 24.97 9.838 12.998 0.266 4.098 C-15.396 -8.21 -33.018 -8.187 -50.785 -0.09 Z M-53.785 0.91 C-54.115 1.57 -54.445 2.23 -54.785 2.91 C-53.465 2.25 -52.145 1.59 -50.785 0.91 C-51.775 0.91 -52.765 0.91 -53.785 0.91 Z M-44.791 49.72 C-46.003 49.897 -47.214 50.074 -48.462 50.257 C-50.418 50.547 -50.418 50.547 -52.414 50.844 C-53.769 51.043 -55.123 51.243 -56.478 51.442 C-59.314 51.86 -62.149 52.279 -64.984 52.7 C-68.617 53.24 -72.251 53.775 -75.886 54.308 C-78.682 54.718 -81.478 55.132 -84.273 55.546 C-85.613 55.744 -86.953 55.941 -88.293 56.138 C-90.165 56.413 -92.037 56.691 -93.908 56.97 C-94.973 57.128 -96.038 57.286 -97.136 57.448 C-99.879 57.859 -99.879 57.859 -102.785 58.91 C-102.785 60.23 -102.785 61.55 -102.785 62.91 C-89.25 61.627 -75.824 59.852 -62.381 57.823 C-59.168 57.339 -55.954 56.864 -52.74 56.389 C-50.691 56.083 -48.643 55.776 -46.594 55.469 C-45.636 55.327 -44.677 55.185 -43.69 55.039 C-42.811 54.906 -41.931 54.772 -41.025 54.635 C-39.865 54.46 -39.865 54.46 -38.682 54.283 C-36.708 53.982 -36.708 53.982 -34.785 52.91 C-34.785 51.59 -34.785 50.27 -34.785 48.91 C-38.272 48.91 -41.354 49.215 -44.791 49.72 Z M-24.695 62.246 C-35.814 64.197 -47 65.36 -58.223 66.535 C-60.264 66.753 -62.305 66.972 -64.346 67.191 C-73.487 68.168 -82.628 69.098 -91.785 69.91 C-92.115 70.9 -92.445 71.89 -92.785 72.91 C-92.455 73.57 -92.125 74.23 -91.785 74.91 C-49.755 74.014 -49.755 74.014 -9.785 63.91 C-10.28 62.425 -10.28 62.425 -10.785 60.91 C-15.566 60.751 -20.015 61.38 -24.695 62.246 Z M2.215 67.91 C3.215 69.91 3.215 69.91 3.215 69.91 Z M-42.723 79.848 C-43.762 79.935 -44.802 80.022 -45.873 80.111 C-46.864 80.198 -47.854 80.285 -48.875 80.375 C-50.219 80.493 -50.219 80.493 -51.59 80.613 C-53.824 80.795 -53.824 80.795 -55.785 81.91 C-55.455 82.9 -55.125 83.89 -54.785 84.91 C-43.667 85.275 -32.82 84.142 -21.785 82.91 C-21.785 81.59 -21.785 80.27 -21.785 78.91 C-28.822 78.8 -35.716 79.219 -42.723 79.848 Z " fill="#000000" transform="translate(697.78515625,354.08984375)"/>
<path d="M0 0 C1.65 0.33 3.3 0.66 5 1 C4.67 2.65 4.34 4.3 4 6 C2.35 5.67 0.7 5.34 -1 5 C-0.67 3.35 -0.34 1.7 0 0 Z " fill="#000000" transform="translate(578,370)"/>
<path d="M0 0 C3.707 0.552 5.103 1.882 7.438 4.75 C9.517 7.25 11.578 9.637 13.938 11.875 C16 14 16 14 16 16 C13 16 13 16 11.387 14.461 C10.826 13.773 10.265 13.084 9.688 12.375 C7.416 9.649 5.126 7.079 2.562 4.625 C0 2 0 2 0 0 Z " fill="#000000" transform="translate(933,381)"/>
<path d="M0 0 C2.83 3.073 3.559 5.252 4.188 9.375 C3.573 13.833 2.589 15.915 -0.375 19.312 C-3.672 21.753 -6.665 22.041 -10.695 21.797 C-13.958 21.147 -15.62 19.833 -17.812 17.375 C-20.086 13.655 -20.03 10.486 -19.352 6.305 C-18.233 2.302 -15.994 0.077 -12.5 -2 C-7.766 -3.101 -4.187 -2.419 0 0 Z M-13.812 3.375 C-14.955 6.878 -15.05 8.707 -13.812 12.188 C-11.888 14.683 -11.888 14.683 -8.375 15.312 C-4.958 15.372 -3.506 15.371 -0.812 13.375 C1.518 9.879 1.775 8.488 1.188 4.375 C-1.413 1.468 -3.006 0.49 -6.875 -0.062 C-10.199 0.433 -11.566 0.878 -13.812 3.375 Z " fill="#000000" transform="translate(555.8125,400.625)"/>
<path d="M0 0 C5.444 2.355 9.126 6.797 13.25 10.938 C14.511 12.174 14.511 12.174 15.797 13.436 C16.988 14.626 16.988 14.626 18.203 15.84 C18.932 16.566 19.66 17.291 20.411 18.039 C22 20 22 20 22 23 C16.556 20.645 12.874 16.203 8.75 12.062 C7.91 11.238 7.069 10.414 6.203 9.564 C5.409 8.771 4.615 7.978 3.797 7.16 C2.704 6.072 2.704 6.072 1.589 4.961 C0 3 0 3 0 0 Z " fill="#000000" transform="translate(933,398)"/>
<path d="M0 0 C5.865 -0.524 9.304 0.064 14.172 3.438 C18.973 7.541 21.567 11.958 22.238 18.227 C22.484 26.161 20.542 33.042 15.625 39.375 C10.941 44.059 6.452 47.09 -0.25 47.312 C-4.921 47.222 -8.49 46.158 -12 43 C-18.242 35.32 -19.945 28.834 -19 19 C-17.274 12.578 -14.384 8.793 -9 5 C-8.34 5.33 -7.68 5.66 -7 6 C-7.619 6.722 -8.237 7.444 -8.875 8.188 C-13.779 14.679 -13.625 21.117 -13 29 C-11.708 33.09 -10.507 34.552 -7.312 37.375 C-3.297 39.345 -0.387 39.869 4 39 C9.385 36.204 12.83 32.69 15.25 27.125 C16.589 21.547 16.71 17.723 13.75 12.75 C10.667 8.298 8.726 6.316 3.25 5.312 C2.178 5.209 1.105 5.106 0 5 C0 3.35 0 1.7 0 0 Z " fill="#000000" transform="translate(746,401)"/>
<path d="M0 0 C3.856 1.586 6.332 4.065 9.25 7 C10.142 7.887 11.034 8.774 11.953 9.688 C14 12 14 12 14 14 C10.082 12.694 7.674 11.169 5 8 C5 7.34 5 6.68 5 6 C4.34 6 3.68 6 3 6 C3 5.34 3 4.68 3 4 C2.34 4 1.68 4 1 4 C0.67 2.68 0.34 1.36 0 0 Z " fill="#000000" transform="translate(929,412)"/>
<path d="M0 0 C0.66 0 1.32 0 2 0 C1.442 4.968 -0.175 8.975 -2.438 13.375 C-2.789 14.065 -3.14 14.756 -3.502 15.467 C-9.514 27.058 -16.399 38.148 -25 48 C-25.855 48.987 -26.709 49.975 -27.59 50.992 C-33.158 57.308 -38.945 63.306 -46 68 C-46.66 68 -47.32 68 -48 68 C-48 67.34 -48 66.68 -48 66 C-46.586 64.8 -45.116 63.666 -43.625 62.562 C-23.983 47.114 -9.594 22.762 0 0 Z " fill="#000000" transform="translate(799,414)"/>
<path d="M0 0 C0.99 0.99 0.99 0.99 2 2 C-7.085 21.041 -18.595 37.582 -33 53 C-34.233 54.337 -35.466 55.674 -36.699 57.012 C-44.482 65.409 -52.402 73.437 -61 81 C-62.083 82.007 -62.083 82.007 -63.188 83.035 C-65.062 84.75 -65.062 84.75 -68 87 C-68.99 86.67 -69.98 86.34 -71 86 C-69.655 82.925 -68.271 81.124 -65.688 79 C-54.623 69.587 -44.502 59.535 -34.688 48.832 C-33.211 47.228 -31.718 45.642 -30.215 44.062 C-17.967 31.019 -7.907 16.046 0 0 Z " fill="#000000" transform="translate(810,418)"/>
<path d="M0 0 C0.795 2.297 1.148 3.564 0.354 5.9 C-0.006 6.551 -0.367 7.201 -0.738 7.871 C-1.141 8.604 -1.544 9.337 -1.959 10.092 C-2.406 10.866 -2.852 11.64 -3.312 12.438 C-3.995 13.64 -3.995 13.64 -4.691 14.867 C-8.883 22.095 -13.696 28.565 -19 35 C-19.705 35.896 -20.41 36.792 -21.137 37.715 C-34.796 54.909 -50.57 70.932 -67.875 84.438 C-68.733 85.112 -68.733 85.112 -69.609 85.801 C-73.764 89 -73.764 89 -76 89 C-76 88.01 -76 87.02 -76 86 C-74.016 84.125 -74.016 84.125 -71.25 82 C-65.942 77.806 -60.968 73.383 -56.02 68.773 C-53.766 66.678 -51.452 64.665 -49.117 62.66 C-29.155 45.248 -12.333 23.391 0 0 Z " fill="#000000" transform="translate(818,423)"/>
<path d="M0 0 C1 3 1 3 -0.449 6.195 C-1.181 7.513 -1.929 8.822 -2.688 10.125 C-3.093 10.829 -3.498 11.534 -3.915 12.259 C-14.819 30.847 -28.439 46.586 -43.562 61.812 C-44.045 62.301 -44.528 62.789 -45.026 63.293 C-53.863 72.203 -63.247 80.257 -73.5 87.5 C-74.093 87.928 -74.686 88.356 -75.297 88.797 C-77.854 90.617 -80.004 92.001 -83 93 C-83 92.01 -83 91.02 -83 90 C-80.929 88.352 -78.888 86.892 -76.688 85.438 C-70.928 81.488 -65.78 77.318 -60.695 72.52 C-58.595 70.556 -56.47 68.671 -54.293 66.797 C-41.27 55.444 -29.123 43.011 -19 29 C-18.147 27.852 -17.292 26.705 -16.438 25.559 C-10.395 17.365 -5.104 8.803 0 0 Z " fill="#000000" transform="translate(827,427)"/>
<path d="M0 0 C0.99 0.33 1.98 0.66 3 1 C-13.48 16.587 -13.48 16.587 -19.375 21.812 C-23.825 25.771 -28.006 29.966 -32.164 34.227 C-34.322 36.337 -36.489 38.31 -38.773 40.273 C-43.413 44.292 -47.699 48.625 -52 53 C-60.422 61.566 -60.422 61.566 -64.938 65.438 C-69.889 69.693 -74.421 74.351 -79 79 C-84.255 84.334 -89.515 89.556 -95.2 94.432 C-97.876 96.763 -100.369 99.237 -102.875 101.75 C-103.801 102.673 -104.726 103.596 -105.68 104.547 C-108.101 106.968 -108.101 106.968 -110 110 C-110.66 110 -111.32 110 -112 110 C-111.715 104.543 -108.508 102.078 -104.75 98.562 C-103.597 97.462 -102.445 96.359 -101.297 95.254 C-100.732 94.71 -100.166 94.166 -99.584 93.606 C-97.789 91.836 -97.789 91.836 -95.578 89.027 C-93.56 86.658 -91.716 84.811 -89.375 82.812 C-83.95 78.182 -79.003 73.075 -74 68 C-68.392 62.312 -62.809 56.65 -56.705 51.486 C-54.884 49.899 -53.191 48.225 -51.5 46.5 C-48.576 43.53 -45.514 40.795 -42.359 38.074 C-39.401 35.474 -36.513 32.803 -33.625 30.125 C-28.128 25.032 -22.581 20.001 -17 15 C-16.144 14.227 -15.288 13.453 -14.406 12.656 C-12.717 11.13 -11.025 9.608 -9.328 8.09 C-7.848 6.761 -6.378 5.421 -4.922 4.066 C-3.348 2.634 -1.682 1.304 0 0 Z " fill="#000000" transform="translate(514,436)"/>
<path d="M0 0 C1.805 0.133 1.805 0.133 4 1 C5.633 3.617 5.633 3.617 7.125 6.875 C8.626 10.103 10.023 13.034 12 16 C16.95 13.03 21.9 10.06 27 7 C27.99 7.66 28.98 8.32 30 9 C28.511 13.348 25.272 15.041 21.5 17.25 C20.906 17.614 20.311 17.977 19.699 18.352 C15.288 21 15.288 21 13 21 C13.589 22.181 14.178 23.362 14.785 24.578 C15.545 26.135 16.304 27.692 17.062 29.25 C17.647 30.416 17.647 30.416 18.244 31.605 C18.608 32.36 18.972 33.114 19.348 33.891 C19.688 34.582 20.028 35.273 20.379 35.985 C21.116 38.378 20.808 39.666 20 42 C18.68 42 17.36 42 16 42 C14.829 39.544 13.663 37.085 12.5 34.625 C12.166 33.926 11.832 33.228 11.488 32.508 C9 27.227 9 27.227 9 25 C8.408 25.373 7.817 25.745 7.207 26.129 C6.417 26.602 5.627 27.075 4.812 27.562 C4.035 28.038 3.258 28.514 2.457 29.004 C-0.484 30.196 -2.004 29.889 -5 29 C-4.632 26.348 -4.313 25.262 -2.223 23.516 C-1.51 23.098 -0.797 22.68 -0.062 22.25 C0.648 21.822 1.358 21.394 2.09 20.953 C4 20 4 20 6 20 C5.225 18.211 5.225 18.211 4.434 16.387 C3.768 14.821 3.102 13.254 2.438 11.688 C1.924 10.509 1.924 10.509 1.4 9.307 C0.922 8.171 0.922 8.171 0.434 7.012 C0.135 6.315 -0.163 5.619 -0.471 4.901 C-1 3 -1 3 0 0 Z " fill="#000000" transform="translate(208,453)"/>
<path d="M0 0 C3.411 1.706 5.383 3.035 7.438 6.25 C8.582 11.845 7.805 15.617 5 20.438 C1.585 23.355 -0.382 24.036 -4.785 24.227 C-8.478 23.849 -10.343 22.531 -13 20 C-15.373 16.143 -16.374 13.308 -15.562 8.875 C-13.191 1.488 -7.354 -1.582 0 0 Z M-7.375 4.438 C-9.778 8.227 -9.776 11.634 -9 16 C-7.642 18.776 -7.642 18.776 -5 20 C-1.405 20.248 -1.405 20.248 2 19 C4.411 16.278 4.945 14.543 5.312 10.938 C5.008 8.073 4.587 6.381 3 4 C-0.686 2.157 -3.871 2.316 -7.375 4.438 Z " fill="#000000" transform="translate(713,478)"/>
<path d="M0 0 C3 0 3 0 5.086 2.02 C11.504 9.851 17.476 17.485 17 28 C16.34 28 15.68 28 15 28 C14.515 27.022 14.031 26.043 13.531 25.035 C9.842 17.766 6.332 11.545 0.371 5.832 C-1 4 -1 4 -0.715 1.762 C-0.479 1.18 -0.243 0.599 0 0 Z " fill="#000000" transform="translate(494,488)"/>
<path d="M0 0 C0.99 0 1.98 0 3 0 C6.11 7.809 8.735 14.479 8 23 C7.34 22.67 6.68 22.34 6 22 C5.247 19.56 4.594 17.166 4 14.688 C2.997 10.57 1.94 6.785 0 3 C0 2.01 0 1.02 0 0 Z " fill="#000000" transform="translate(522,492)"/>
<path d="M0 0 C1.083 0.371 1.083 0.371 2.188 0.75 C1.507 1.245 0.826 1.74 0.125 2.25 C-6.572 7.95 -11.85 13.809 -13.09 22.75 C-13.405 29.214 -11.595 34.582 -7.5 39.562 C-1.99 44.048 2.385 45.392 9.438 45.152 C13.9 44.499 16.988 42.921 20.188 39.75 C22.16 36.873 23.749 33.925 25.188 30.75 C26.178 30.75 27.168 30.75 28.188 30.75 C27.737 37.961 24.975 42.963 19.875 48.062 C13.584 52.013 8.407 53.401 0.938 52.457 C-5.672 50.758 -11.116 46.437 -14.812 40.75 C-18.595 33.885 -20.035 27.81 -18.164 20.066 C-15.978 13.33 -12.898 8.64 -7.812 3.75 C-6.946 2.904 -6.08 2.059 -5.188 1.188 C-2.812 -0.25 -2.812 -0.25 0 0 Z " fill="#000000" transform="translate(629.8125,492.25)"/>
<path d="M0 0 C2.755 0.081 4.516 0.591 6.633 2.379 C10.432 6.481 11.772 9.426 12 15 C10.68 15 9.36 15 8 15 C7.769 14.469 7.539 13.938 7.301 13.391 C5.181 8.798 3.322 5.882 -1 3 C-0.67 2.01 -0.34 1.02 0 0 Z " fill="#000000" transform="translate(649,492)"/>
<path d="M0 0 C1.766 0.082 1.766 0.082 4 1 C5.46 3.24 6.613 5.294 7.75 7.688 C8.224 8.607 8.224 8.607 8.707 9.545 C10.655 13.522 11.352 16.591 11 21 C10.34 21 9.68 21 9 21 C8.685 20.203 8.371 19.407 8.047 18.586 C5.378 11.747 5.378 11.747 1.688 5.438 C0 3 0 3 0 0 Z " fill="#000000" transform="translate(510,493)"/>
<path d="M0 0 C8.142 2.792 13.048 8.807 17.199 16.109 C18.198 18.468 17.846 19.632 17 22 C16.34 22 15.68 22 15 22 C14.105 20.579 13.286 19.11 12.5 17.625 C8.944 11.434 4.199 6.829 -1 2 C-0.67 1.34 -0.34 0.68 0 0 Z " fill="#000000" transform="translate(485,496)"/>
<path d="M0 0 C0.99 0.33 1.98 0.66 3 1 C0.081 4.614 -2.84 7.983 -6.438 10.938 C-9.69 13.635 -12.391 16.59 -15.121 19.809 C-17.17 22.199 -19.301 24.5 -21.438 26.812 C-25.485 31.269 -28.969 35.984 -32.371 40.945 C-33.177 41.962 -33.177 41.962 -34 43 C-34.66 43 -35.32 43 -36 43 C-35.506 38.373 -33.457 35.471 -30.625 31.938 C-30.183 31.375 -29.741 30.813 -29.286 30.234 C-22.457 21.667 -14.953 13.532 -7 6 C-6.381 5.41 -5.762 4.819 -5.125 4.211 C-4.197 3.364 -4.197 3.364 -3.25 2.5 C-2.698 1.995 -2.147 1.489 -1.578 0.969 C-1.057 0.649 -0.537 0.329 0 0 Z " fill="#000000" transform="translate(424,503)"/>
<path d="M0 0 C0.66 0.33 1.32 0.66 2 1 C0.474 5.159 -2.535 7.241 -6 9.75 C-6.82 10.367 -6.82 10.367 -7.656 10.996 C-11.728 14 -11.728 14 -14 14 C-13.665 11.011 -13.043 10.041 -10.82 7.93 C-9.486 6.913 -9.486 6.913 -8.125 5.875 C-7.241 5.192 -6.356 4.509 -5.445 3.805 C-3.664 2.49 -1.842 1.228 0 0 Z " fill="#000000" transform="translate(427,536)"/>
<path d="M0 0 C2.438 1.5 2.438 1.5 4 3 C3.67 3.66 3.34 4.32 3 5 C-0.63 4.67 -4.26 4.34 -8 4 C-8.33 3.01 -8.66 2.02 -9 1 C-5.943 -0.528 -3.37 -0.232 0 0 Z " fill="#000000" transform="translate(494,541)"/>
<path d="M0 0 C3.968 1.945 5.709 3.518 8 7.312 C9.211 11.776 8.899 13.807 7 18 C3.649 21.183 1.299 22.877 -3.312 23.312 C-7.637 22.946 -9.049 22.12 -12 19 C-14.255 15.31 -14.262 12.094 -13.617 7.934 C-12.6 4.747 -10.547 3.05 -8 1 C-5.134 -0.433 -3.187 -0.306 0 0 Z M-7 10 C-7.667 12.543 -7.667 12.543 -7 15 C-5.404 17.01 -5.404 17.01 -3 18 C-0.147 17.861 1.465 17.369 3.812 15.75 C5.454 13.331 5.43 11.864 5 9 C3.917 7.083 3.917 7.083 2 6 C-2.438 5.203 -4.382 6.412 -7 10 Z " fill="#000000" transform="translate(675,545)"/>
<path d="M0 0 C-1.431 4.293 -4.658 5.49 -8.375 7.688 C-14.124 11.182 -19.655 14.803 -25.055 18.824 C-28.683 21.505 -32.371 24.095 -36.062 26.688 C-42.908 31.504 -49.708 36.379 -56.485 41.291 C-59.815 43.703 -63.146 46.112 -66.508 48.48 C-74.448 54.078 -82.186 59.916 -89.896 65.826 C-95.837 70.374 -101.833 74.838 -107.875 79.25 C-114.908 84.395 -121.756 89.723 -128.527 95.207 C-131.787 97.843 -135.102 100.399 -138.438 102.938 C-144.824 107.821 -151.056 112.883 -157.281 117.969 C-160.231 120.378 -163.202 122.76 -166.188 125.125 C-170.567 128.615 -174.837 132.224 -179.101 135.853 C-183.536 139.623 -188.031 143.316 -192.551 146.984 C-194.761 148.803 -196.916 150.669 -199.062 152.562 C-202 155 -202 155 -204 155 C-203.432 151.541 -202.438 150.145 -199.75 147.938 C-199.022 147.329 -198.293 146.721 -197.543 146.094 C-196.704 145.403 -195.865 144.712 -195 144 C-193.551 142.765 -192.102 141.53 -190.654 140.294 C-182.195 133.085 -173.598 126.041 -165 119 C-164.304 118.429 -163.608 117.859 -162.891 117.271 C-155.176 110.948 -147.412 104.714 -139.48 98.664 C-136.066 96.059 -132.679 93.418 -129.293 90.775 C-122.165 85.214 -115.007 79.703 -107.751 74.307 C-105.66 72.746 -103.574 71.178 -101.488 69.609 C-86.561 58.384 -71.625 47.177 -56.328 36.459 C-52.789 33.978 -49.269 31.478 -45.781 28.926 C-34.21 20.46 -22.352 12.478 -10.372 4.603 C-7.998 3.054 -7.998 3.054 -5.937 1.292 C-4 0 -4 0 0 0 Z " fill="#000000" transform="translate(269,547)"/>
<path d="M0 0 C1.938 0.141 3.875 0.288 5.812 0.438 C7.431 0.559 7.431 0.559 9.082 0.684 C12 1 12 1 15 2 C15.33 2.99 15.66 3.98 16 5 C10.262 5.204 5.395 5.271 0 3 C0 2.01 0 1.02 0 0 Z " fill="#000000" transform="translate(486,547)"/>
<path d="M0 0 C0.66 0 1.32 0 2 0 C3.393 4.8 4.78 9.601 6.163 14.404 C6.632 16.034 7.104 17.663 7.577 19.292 C10.05 27.814 12.462 36.248 14 45 C13.01 45 12.02 45 11 45 C-0.324 6.884 -0.324 6.884 0 0 Z " fill="#000000" transform="translate(268,564)"/>
<path d="M0 0 C0.66 0.33 1.32 0.66 2 1 C0.02 5.29 -1.96 9.58 -4 14 C-4.66 14 -5.32 14 -6 14 C-4.508 9.028 -2.395 4.582 0 0 Z " fill="#000000" transform="translate(829,564)"/>
<path d="M0 0 C1 3 1 3 -0.434 6.137 C-1.091 7.326 -1.76 8.509 -2.438 9.688 C-2.776 10.294 -3.114 10.901 -3.463 11.525 C-4.3 13.022 -5.149 14.512 -6 16 C-6.33 15.34 -6.66 14.68 -7 14 C-5.925 11.557 -4.802 9.232 -3.562 6.875 C-3.224 6.216 -2.886 5.558 -2.537 4.879 C-1.699 3.249 -0.85 1.624 0 0 Z " fill="#000000" transform="translate(839,568)"/>
<path d="M0 0 C-0.332 2.849 -0.816 3.839 -3.012 5.754 C-3.895 6.351 -4.778 6.948 -5.688 7.562 C-10.122 10.66 -14.443 13.835 -18.688 17.188 C-19.27 17.647 -19.853 18.107 -20.454 18.58 C-25.687 22.723 -30.861 26.937 -36.031 31.158 C-40.937 35.157 -45.901 39.073 -50.9 42.955 C-53.865 45.272 -56.771 47.636 -59.621 50.094 C-60.209 50.601 -60.798 51.108 -61.404 51.63 C-62.521 52.601 -63.633 53.577 -64.739 54.561 C-67.388 56.867 -69.446 58.575 -73 59 C-71.414 54.618 -67.974 52.131 -64.5 49.25 C-63.87 48.719 -63.24 48.188 -62.591 47.642 C-57.464 43.339 -52.256 39.143 -47 35 C-45.332 33.668 -43.666 32.335 -42 31 C-41.171 30.337 -40.342 29.675 -39.488 28.992 C-37.859 27.687 -36.231 26.38 -34.605 25.07 C-28.364 20.049 -22.044 15.136 -15.674 10.279 C-14.542 9.414 -13.412 8.547 -12.283 7.678 C-10.629 6.406 -8.972 5.14 -7.312 3.875 C-6.339 3.13 -5.366 2.385 -4.363 1.617 C-2 0 -2 0 0 0 Z " fill="#000000" transform="translate(173,570)"/>
<path d="M0 0 C0.66 0.33 1.32 0.66 2 1 C0.623 2.178 0.623 2.178 -0.781 3.379 C-13.231 13.82 -13.231 13.82 -25 25 C-25 21.195 -23.568 20.181 -20.985 17.569 C-20.413 17.01 -19.84 16.451 -19.25 15.875 C-18.67 15.301 -18.091 14.727 -17.493 14.136 C-12.052 8.854 -6.216 4.335 0 0 Z " fill="#000000" transform="translate(550,571)"/>
<path d="M0 0 C-1.089 3.268 -1.683 3.819 -4.375 5.75 C-4.981 6.199 -5.587 6.647 -6.211 7.109 C-8 8 -8 8 -11 7 C-9.546 5.828 -8.087 4.662 -6.625 3.5 C-5.407 2.525 -5.407 2.525 -4.164 1.531 C-2 0 -2 0 0 0 Z " fill="#000000" transform="translate(568,572)"/>
<path d="M0 0 C0.66 0 1.32 0 2 0 C3.156 3.351 4.298 6.706 5.438 10.062 C5.763 11.005 6.088 11.948 6.424 12.92 C8.13 17.967 9.477 22.693 10 28 C9.01 27.67 8.02 27.34 7 27 C6.017 24.946 6.017 24.946 5.176 22.266 C4.87 21.299 4.563 20.332 4.248 19.336 C3.939 18.318 3.631 17.299 3.312 16.25 C2.992 15.247 2.672 14.244 2.342 13.211 C0.924 8.652 -0.197 4.811 0 0 Z " fill="#000000" transform="translate(261,587)"/>
<path d="M0 0 C0 0.66 0 1.32 0 2 C-1.574 3.274 -3.212 4.469 -4.875 5.625 C-10.421 9.553 -15.734 13.705 -21 18 C-21 17.01 -21 16.02 -21 15 C-19.003 13.059 -17.029 11.311 -14.875 9.562 C-14.305 9.085 -13.735 8.607 -13.148 8.115 C-3.352 0 -3.352 0 0 0 Z " fill="#000000" transform="translate(571,587)"/>
<path d="M0 0 C-0.117 2.355 -0.117 2.355 -1 5 C-3.633 6.301 -3.633 6.301 -7.125 7.312 C-28.732 14.193 -44.329 27.364 -54.75 47.508 C-55.163 48.33 -55.575 49.153 -56 50 C-57.98 49.34 -59.96 48.68 -62 48 C-60.595 35.857 -51.64 25.62 -42.432 18.191 C-33.234 10.996 -12.145 -4.858 0 0 Z " fill="#000000" transform="translate(339,593)"/>
<path d="M0 0 C0 3 0 3 -2.027 5.059 C-9.855 11.458 -17.963 17.349 -26.277 23.1 C-28.399 24.58 -30.512 26.072 -32.62 27.572 C-42.912 34.891 -53.327 42.009 -63.835 49.014 C-66.491 50.785 -69.141 52.564 -71.791 54.344 C-73.484 55.474 -75.177 56.605 -76.871 57.734 C-78.055 58.531 -78.055 58.531 -79.263 59.344 C-79.989 59.825 -80.715 60.307 -81.463 60.804 C-82.1 61.229 -82.737 61.655 -83.393 62.094 C-85 63 -85 63 -87 63 C-85.884 59.653 -85.412 59.323 -82.592 57.479 C-81.869 57.001 -81.147 56.522 -80.402 56.029 C-79.611 55.517 -78.819 55.005 -78.004 54.477 C-77.182 53.935 -76.361 53.393 -75.514 52.834 C-72.869 51.09 -70.216 49.357 -67.562 47.625 C-55.112 39.471 -42.845 31.156 -30.845 22.352 C-28.469 20.611 -26.081 18.888 -23.691 17.168 C-15.784 11.46 -7.881 5.746 0 0 Z " fill="#000000" transform="translate(539,597)"/>
<path d="M0 0 C0.495 0.99 0.495 0.99 1 2 C-1.881 6.033 -4.495 8.47 -8.812 10.938 C-17.469 15.923 -23.856 21.237 -27 31 C-28.69 39.4 -29.518 47.499 -28 56 C-17.766 50.91 -7.567 45.757 2.592 40.518 C4.697 39.433 6.802 38.35 8.908 37.268 C17.323 32.936 25.686 28.521 34 24 C32.816 18.551 29.509 16.106 25 13 C21.987 11.548 18.966 10.307 15.832 9.141 C13.011 8.005 10.562 6.63 8 5 C8.33 4.01 8.66 3.02 9 2 C9.66 2 10.32 2 11 2 C11 1.34 11 0.68 11 0 C21.767 0.414 30.398 5.933 38.258 12.973 C40.175 15.203 41.068 17.227 42 20 C42.941 19.506 43.882 19.013 44.852 18.504 C46.109 17.856 47.367 17.209 48.625 16.562 C49.551 16.074 49.551 16.074 50.496 15.576 C54.325 13.621 57.699 12.323 62 12 C65.634 13.606 68.096 15.492 70 19 C70.733 22.223 70.564 24.085 68.816 26.918 C63.722 33.234 56.162 39.49 48 41 C48.046 41.739 48.093 42.477 48.141 43.238 C48.543 54.554 45.694 63.591 38 72 C31.095 79.27 22.055 84.452 11.934 85.238 C2.621 85.436 -6.24 84.795 -13.312 78.125 C-14.199 77.424 -15.086 76.722 -16 76 C-23.051 77.392 -29.527 82.103 -35.682 85.656 C-41.2 88.756 -46.569 91.606 -53 92 C-56.349 90.884 -58.277 89.651 -60.875 87.312 C-62.508 83.956 -63.013 80.578 -62 77 C-58.069 72.062 -53.027 69.643 -47.5 66.875 C-45.822 66.019 -44.145 65.163 -42.469 64.305 C-41.689 63.909 -40.909 63.513 -40.105 63.104 C-38.379 62.199 -36.697 61.208 -35.031 60.195 C-33 59 -33 59 -31 59 C-31.349 58.166 -31.699 57.332 -32.059 56.473 C-36.909 44.476 -38.151 36.499 -34 24 C-28.741 12.07 -19.931 5.918 -8.234 1.031 C-5.242 0.077 -3.104 -0.233 0 0 Z M49.727 23.516 C49.016 23.882 48.304 24.249 47.572 24.627 C45.252 25.826 42.938 27.038 40.625 28.25 C39.015 29.086 37.404 29.922 35.793 30.758 C26.638 35.517 17.543 40.375 8.517 45.375 C0.622 49.724 -7.393 53.828 -15.417 57.932 C-30.843 65.797 -30.843 65.797 -46.125 73.938 C-46.84 74.32 -47.555 74.702 -48.292 75.096 C-52.145 77.144 -52.145 77.144 -54 81 C-53.34 81.99 -52.68 82.98 -52 84 C-46.896 82.475 -42.367 80.288 -37.656 77.852 C-36.859 77.443 -36.061 77.034 -35.24 76.614 C-32.657 75.289 -30.079 73.957 -27.5 72.625 C-25.714 71.706 -23.928 70.787 -22.141 69.869 C-12.293 64.793 -2.511 59.628 7.172 54.243 C14.483 50.207 21.95 46.507 29.438 42.812 C46.366 34.493 46.366 34.493 62 24 C61.505 22.02 61.505 22.02 61 20 C56.411 20 53.667 21.44 49.727 23.516 Z M32.676 48.656 C31.937 49.037 31.199 49.417 30.438 49.809 C28.061 51.036 25.687 52.268 23.312 53.5 C21.763 54.3 20.212 55.099 18.662 55.898 C9.065 60.853 -0.484 65.891 -10 71 C-4.987 76.315 -0.4 77.095 6.688 77.438 C17.309 77.225 25.761 72.531 33 65 C33.566 64.432 34.132 63.863 34.715 63.277 C39.14 58.528 41.779 53.541 42.188 47 C42.126 46.34 42.064 45.68 42 45 C38.566 45 35.671 47.097 32.676 48.656 Z " fill="#000000" transform="translate(778,602)"/>
<path d="M0 0 C-0.629 0.352 -1.258 0.704 -1.906 1.066 C-10.685 6.13 -17.436 11.481 -23 20 C-23.66 19.67 -24.32 19.34 -25 19 C-8.888 -2.963 -8.888 -2.963 0 0 Z " fill="#000000" transform="translate(754,606)"/>
<path d="M0 0 C-1.245 3.734 -2.435 4.209 -5.707 6.293 C-6.681 6.92 -7.655 7.547 -8.659 8.193 C-9.7 8.851 -10.74 9.509 -11.812 10.188 C-13.918 11.536 -16.024 12.885 -18.129 14.234 C-19.651 15.206 -19.651 15.206 -21.204 16.197 C-25.497 18.965 -29.7 21.857 -33.891 24.777 C-36 26 -36 26 -39 26 C-37.68 22.92 -36.523 21.359 -33.684 19.59 C-33.01 19.162 -32.336 18.735 -31.641 18.294 C-30.55 17.623 -30.55 17.623 -29.438 16.938 C-27.902 15.972 -26.367 15.006 -24.832 14.039 C-24.039 13.543 -23.246 13.047 -22.428 12.536 C-19.998 10.999 -17.596 9.425 -15.199 7.836 C-14.432 7.329 -13.665 6.823 -12.875 6.301 C-11.396 5.323 -9.92 4.34 -8.447 3.353 C-3.336 0 -3.336 0 0 0 Z " fill="#000000" transform="translate(879,620)"/>
<path d="M0 0 C0.33 1.32 0.66 2.64 1 4 C-1.851 5.782 -4.691 7.311 -7.75 8.688 C-19.424 14.557 -25.959 24.814 -30.375 36.812 C-33.167 46.548 -32.85 56.943 -33 67 C-34.195 67.039 -34.195 67.039 -35.414 67.078 C-43.952 67.477 -43.952 67.477 -51 72 C-54.119 76.625 -55.163 81.478 -55 87 C-54.367 90.17 -53.591 93.172 -52 96 C-50.515 96.495 -50.515 96.495 -49 97 C-49 99.31 -49 101.62 -49 104 C-49.568 104.147 -50.137 104.294 -50.723 104.445 C-61.59 107.602 -66.376 114.001 -71.79 123.724 C-74.864 129.508 -77.719 135.415 -80.524 141.333 C-86.902 154.518 -95.631 165.722 -109.676 171.027 C-118.327 173.559 -126.355 174.933 -135 172 C-134.427 169.133 -134.139 168.139 -132 166 C-129.716 165.685 -127.422 165.447 -125.125 165.25 C-114.828 164.125 -106.667 160 -99 153 C-92.017 144.137 -87.216 133.767 -82.425 123.616 C-78.308 115.056 -73.413 107.701 -66.188 101.438 C-65.439 100.776 -64.69 100.115 -63.918 99.434 C-62 98 -62 98 -60 98 C-60.228 97.345 -60.456 96.69 -60.691 96.016 C-63.693 86.485 -63.96 77.143 -59.352 68.043 C-56.369 63.534 -52.832 59.733 -47.48 58.348 C-45.297 58.097 -43.196 57.964 -41 58 C-41.062 56.824 -41.124 55.649 -41.188 54.438 C-41.058 37.839 -34.922 21.96 -23.293 10.051 C-17.33 4.717 -8.404 -2.801 0 0 Z " fill="#000000" transform="translate(272,630)"/>
<path d="M0 0 C0.99 0.33 1.98 0.66 3 1 C4.289 3.781 4.289 3.781 5.625 7.5 C8.225 14.486 11.472 20.947 15.104 27.451 C18 32.704 18 32.704 18 36 C17.34 36 16.68 36 16 36 C0 7.02 0 7.02 0 0 Z " fill="#000000" transform="translate(185,634)"/>
<path d="M0 0 C-1.528 4.213 -4.27 5.849 -7.938 8.25 C-8.998 8.956 -10.059 9.663 -11.152 10.391 C-14 12 -14 12 -17 12 C-17 11.01 -17 10.02 -17 9 C-14.756 7.283 -12.58 5.791 -10.188 4.312 C-9.545 3.897 -8.902 3.481 -8.24 3.053 C-3.403 0 -3.403 0 0 0 Z " fill="#000000" transform="translate(452,642)"/>
<path d="M0 0 C0.625 2.562 0.625 2.562 1 5 C-1.978 6.667 -4.509 7.335 -7.875 7.812 C-12.802 8.762 -15.544 10.215 -19 14 C-24.395 22.504 -25.292 30.575 -25.125 40.438 C-25.116 41.455 -25.107 42.473 -25.098 43.521 C-25.074 46.015 -25.041 48.507 -25 51 C-25.611 51.118 -26.221 51.237 -26.85 51.358 C-27.655 51.524 -28.46 51.689 -29.289 51.859 C-30.085 52.019 -30.881 52.178 -31.702 52.343 C-36.54 53.726 -39.226 56.719 -41.812 61 C-45.108 69.326 -44.874 78.537 -42 87 C-40.631 89.581 -39.079 91.921 -37 94 C-36.875 96.5 -36.875 96.5 -37 99 C-38.91 100.91 -42.444 100.496 -45 100.75 C-55.478 102.004 -62.163 106.08 -69 114 C-70.879 116.814 -72.448 119.746 -74 122.75 C-74.856 124.345 -75.714 125.939 -76.574 127.531 C-76.986 128.297 -77.398 129.063 -77.822 129.852 C-90.275 152.559 -109.442 162.837 -133.512 170.09 C-139.583 171.674 -145.143 172.136 -151.375 172.062 C-152.111 172.058 -152.847 172.053 -153.605 172.049 C-155.404 172.037 -157.202 172.019 -159 172 C-158.505 170.02 -158.505 170.02 -158 168 C-156.256 167.888 -156.256 167.888 -154.477 167.773 C-133.091 166.129 -110.883 159.297 -96 143 C-90.82 136.945 -87.063 130.697 -83.562 123.562 C-76.902 110.501 -69.736 99.68 -55.562 94.062 C-52 93 -52 93 -49 93 C-49.217 92.392 -49.433 91.783 -49.656 91.156 C-53.229 79.91 -53.889 66.973 -49 56 C-45.448 49.509 -40.939 45.583 -34 43 C-34.052 41.944 -34.052 41.944 -34.105 40.867 C-34.438 28.743 -32.897 16.654 -25 7 C-18.725 0.988 -8.633 -4.316 0 0 Z " fill="#000000" transform="translate(283,648)"/>
<path d="M0 0 C-1.173 3.518 -1.94 3.906 -4.962 5.876 C-6.225 6.708 -6.225 6.708 -7.514 7.556 C-8.434 8.15 -9.353 8.744 -10.301 9.355 C-11.248 9.976 -12.194 10.596 -13.17 11.236 C-16.212 13.227 -19.262 15.208 -22.312 17.188 C-24.327 18.502 -26.34 19.818 -28.354 21.135 C-31.275 23.045 -34.198 24.954 -37.125 26.857 C-43.104 30.744 -49.027 34.695 -54.88 38.771 C-57 40 -57 40 -60 40 C-58.827 36.482 -58.06 36.094 -55.038 34.124 C-54.196 33.57 -53.354 33.015 -52.486 32.444 C-51.566 31.85 -50.647 31.256 -49.699 30.645 C-48.752 30.024 -47.806 29.404 -46.83 28.764 C-43.788 26.773 -40.738 24.792 -37.688 22.812 C-35.673 21.498 -33.66 20.182 -31.646 18.865 C-28.725 16.955 -25.802 15.046 -22.875 13.143 C-16.896 9.256 -10.973 5.305 -5.12 1.229 C-3 0 -3 0 0 0 Z " fill="#000000" transform="translate(903,652)"/>
<path d="M0 0 C-1.418 4.253 -4.568 5.629 -8.188 7.938 C-8.848 8.367 -9.509 8.797 -10.189 9.24 C-11.498 10.092 -12.81 10.937 -14.126 11.777 C-15.343 12.571 -16.543 13.392 -17.721 14.243 C-19.099 15.233 -20.545 16.126 -22 17 C-22.99 16.67 -23.98 16.34 -25 16 C-21.118 11.583 -16.652 8.725 -11.66 5.648 C-9.553 4.343 -7.523 2.992 -5.5 1.562 C-3 0 -3 0 0 0 Z " fill="#000000" transform="translate(477,660)"/>
<path d="M0 0 C2.718 2.414 4.163 4.966 5.812 8.188 C8.162 12.627 10.739 16.544 13.898 20.441 C15 22 15 22 15 24 C10.516 22.505 8.714 18.953 6.375 15.125 C5.783 14.187 5.783 14.187 5.18 13.23 C0 4.953 0 4.953 0 0 Z " fill="#000000" transform="translate(188,664)"/>
<path d="M0 0 C1.404 -0.021 1.404 -0.021 2.836 -0.043 C5.837 0.205 7.953 0.807 10.625 2.188 C11.938 4.812 11.938 4.812 12.625 7.188 C10.75 8.25 10.75 8.25 8.625 9.188 C7.965 8.857 7.305 8.528 6.625 8.188 C1.369 7.664 -3.02 7.522 -7.812 9.875 C-13.809 15.287 -16.075 20.244 -17.375 28.188 C-17.522 31.946 -17.505 35.655 -17.383 39.414 C-17.38 40.329 -17.378 41.245 -17.375 42.188 C-18.375 43.188 -18.375 43.188 -20.938 43.25 C-21.742 43.229 -22.546 43.209 -23.375 43.188 C-26.42 32.531 -26.024 22.735 -21.121 12.594 C-16.248 4.627 -9.436 0.065 0 0 Z " fill="#000000" transform="translate(295.375,665.8125)"/>
<path d="M0 0 C0.799 0.018 1.598 0.036 2.422 0.055 C3.025 0.078 3.628 0.101 4.25 0.125 C4.086 2.012 4.086 2.012 3.25 4.125 C0.852 5.145 0.852 5.145 -2.125 5.938 C-6.168 7.151 -6.168 7.151 -9.145 9.934 C-10.064 12.053 -10.064 12.053 -10.75 15.125 C-12.07 14.795 -13.39 14.465 -14.75 14.125 C-14.361 8.68 -12.535 5.998 -8.75 2.125 C-5.734 0.249 -3.527 -0.104 0 0 Z " fill="#000000" transform="translate(297.75,682.875)"/>
<path d="M0 0 C0 0.66 0 1.32 0 2 C-1.952 3.33 -3.892 4.516 -5.938 5.688 C-7.297 6.481 -8.657 7.275 -10.016 8.07 C-10.79 8.522 -11.564 8.973 -12.361 9.438 C-15.401 11.237 -18.412 13.081 -21.422 14.93 C-22.537 15.611 -23.652 16.292 -24.801 16.993 C-27.043 18.364 -29.282 19.74 -31.517 21.122 C-32.557 21.753 -33.597 22.385 -34.668 23.035 C-35.599 23.606 -36.53 24.177 -37.489 24.766 C-40 26 -40 26 -44 26 C-42.685 22.054 -40.35 21.141 -36.91 19.199 C-36.292 18.84 -35.673 18.482 -35.036 18.112 C-33.049 16.962 -31.056 15.824 -29.062 14.688 C-27.108 13.562 -25.155 12.433 -23.202 11.305 C-21.929 10.57 -20.654 9.838 -19.377 9.108 C-14.86 6.522 -10.43 3.818 -6.049 1.007 C-4 0 -4 0 0 0 Z " fill="#000000" transform="translate(745,693)"/>
<path d="M0 0 C-15.247 10.376 -30.951 19.993 -46.75 29.5 C-47.547 29.98 -48.344 30.46 -49.165 30.955 C-51.436 32.315 -53.715 33.662 -56 35 C-56.815 35.48 -57.631 35.959 -58.471 36.453 C-59.669 37.141 -59.669 37.141 -60.891 37.844 C-61.608 38.258 -62.325 38.673 -63.063 39.1 C-65 40 -65 40 -68 40 C-66.644 35.931 -64.815 35.45 -61.121 33.34 C-60.522 32.994 -59.923 32.648 -59.306 32.291 C-58.021 31.55 -56.734 30.813 -55.445 30.08 C-52.091 28.171 -48.754 26.234 -45.414 24.301 C-44.76 23.923 -44.105 23.546 -43.431 23.156 C-38.667 20.403 -33.961 17.571 -29.312 14.625 C-28.718 14.251 -28.123 13.876 -27.51 13.491 C-24.89 11.838 -22.276 10.177 -19.667 8.505 C-17.202 6.93 -14.727 5.37 -12.25 3.812 C-11.486 3.318 -10.722 2.823 -9.935 2.313 C-9.219 1.866 -8.503 1.418 -7.766 0.957 C-6.819 0.353 -6.819 0.353 -5.853 -0.262 C-3.525 -1.189 -2.321 -0.819 0 0 Z " fill="#000000" transform="translate(823,709)"/>
<path d="M0 0 C0.99 0.33 1.98 0.66 3 1 C-0.257 3.7 -3.516 6.017 -7.176 8.137 C-8.162 8.71 -9.148 9.284 -10.164 9.875 C-11.203 10.473 -12.242 11.071 -13.312 11.688 C-14.91 12.611 -14.91 12.611 -16.54 13.553 C-18.684 14.791 -20.829 16.026 -22.976 17.26 C-25.678 18.815 -28.373 20.382 -31.066 21.953 C-32.502 22.782 -33.938 23.61 -35.375 24.438 C-36.028 24.821 -36.68 25.204 -37.353 25.598 C-38.868 26.461 -40.43 27.241 -42 28 C-42.66 27.67 -43.32 27.34 -44 27 C-44 26.34 -44 25.68 -44 25 C-42.715 24.266 -41.43 23.531 -40.145 22.797 C-39.304 22.316 -38.463 21.836 -37.597 21.341 C-35.726 20.272 -33.854 19.203 -31.983 18.134 C-26.988 15.279 -21.993 12.424 -17 9.566 C-16.046 9.021 -15.093 8.475 -14.11 7.913 C-12.266 6.858 -10.423 5.803 -8.579 4.747 C-7.745 4.27 -6.91 3.793 -6.051 3.301 C-5.315 2.88 -4.579 2.459 -3.822 2.025 C-2.565 1.318 -1.289 0.645 0 0 Z " fill="#000000" transform="translate(771,710)"/>
<path d="M0 0 C0.99 0.33 1.98 0.66 3 1 C2.517 1.831 2.517 1.831 2.023 2.68 C-0.501 8.403 0.439 15.287 2.438 21.062 C7.126 31.426 16.603 39.774 26.938 44.281 C29.608 45.276 32.268 46.188 35 47 C35.928 47.288 35.928 47.288 36.875 47.582 C45.956 49.368 56.015 48.902 64 44 C70.021 39.541 73.047 33.763 76 27 C77.98 27.495 77.98 27.495 80 28 C77.673 37.62 72.153 44.757 63.688 50 C52.918 55.236 41.5 54.528 30.242 51.18 C16.372 46.006 5.951 37.681 -0.906 24.48 C-2.841 20.092 -3.183 16.365 -3.25 11.562 C-3.276 10.45 -3.302 9.338 -3.328 8.191 C-2.969 4.696 -2.015 2.837 0 0 Z " fill="#000000" transform="translate(299,714)"/>
<path d="M0 0 C-1.107 3.321 -1.665 3.762 -4.402 5.715 C-5.118 6.23 -5.834 6.745 -6.571 7.275 C-7.352 7.824 -8.133 8.372 -8.938 8.938 C-10.153 9.802 -10.153 9.802 -11.394 10.684 C-33.858 26.568 -57.162 41.273 -81 55 C-81.717 55.415 -82.434 55.83 -83.173 56.257 C-85.004 57.31 -86.842 58.347 -88.688 59.375 C-89.661 59.919 -90.634 60.463 -91.637 61.023 C-94 62 -94 62 -97 61 C-93.432 56.841 -89.146 54.75 -84.375 52.25 C-63.511 41.012 -43.757 28.007 -24.113 14.789 C-23.539 14.403 -22.965 14.017 -22.373 13.619 C-19.191 11.479 -16.014 9.33 -12.841 7.175 C-11.471 6.249 -10.101 5.324 -8.73 4.398 C-8.087 3.959 -7.444 3.519 -6.781 3.066 C-2.226 0 -2.226 0 0 0 Z " fill="#000000" transform="translate(841,718)"/>
<path d="M0 0 C0.99 0 1.98 0 3 0 C3.28 0.785 3.559 1.57 3.848 2.379 C7.208 11.185 10.728 17.106 19.312 21.375 C26.312 24.125 33.32 25.15 40.371 22.102 C43.032 20.302 43.952 17.947 45 15 C46.32 15 47.64 15 49 15 C48.931 18.465 48.802 21.068 46.48 23.766 C40.668 28.807 36.112 29.358 28.488 29.273 C19.311 28.554 12.116 24.825 6 18 C2.086 13.017 0.075 8.233 -1 2 C-0.67 1.34 -0.34 0.68 0 0 Z " fill="#000000" transform="translate(317,724)"/>
<path d="M0 0 C1.98 0 3.96 0 6 0 C8.038 7.206 4.773 14.266 1.676 20.789 C-4.941 32.501 -15.021 40.287 -27.625 44.938 C-37.944 47.647 -49.819 46.761 -60 44 C-62.5 43.51 -62.5 43.51 -65 44 C-67.014 46.074 -67.014 46.074 -68.688 48.875 C-78.296 62.839 -91.836 73.839 -108.702 77.625 C-122.4 79.86 -136.508 77.978 -150.112 76.016 C-170.153 73.202 -187.574 79.445 -203.777 90.977 C-206.27 92.905 -208.647 94.904 -211 97 C-211.746 97.664 -212.493 98.328 -213.262 99.012 C-219.878 105.259 -224.9 112.516 -230 120 C-230.99 119.67 -231.98 119.34 -233 119 C-225.971 103.971 -212.799 90.858 -199 82 C-198.083 81.401 -197.167 80.801 -196.223 80.184 C-184.169 72.693 -171.386 68.803 -157.188 68.875 C-156.431 68.871 -155.675 68.867 -154.896 68.863 C-151.1 68.87 -147.399 69.027 -143.629 69.488 C-130.102 71.123 -115.617 71.677 -103 66 C-102.076 65.599 -101.151 65.198 -100.199 64.785 C-89.2 59.418 -80.019 50.623 -74 40 C-73.59 39.303 -73.18 38.605 -72.758 37.887 C-71.818 36.27 -70.905 34.637 -70 33 C-65.978 33.437 -62.597 34.138 -58.812 35.562 C-47.781 38.958 -33.879 38.753 -23.539 33.539 C-10.031 25.351 -4.05 14.956 0 0 Z " fill="#000000" transform="translate(432,745)"/>
<path d="M0 0 C0.495 1.485 0.495 1.485 1 3 C-9.042 9.436 -19.264 15.547 -29.562 21.562 C-30.524 22.124 -30.524 22.124 -31.504 22.697 C-34.022 24.168 -36.541 25.639 -39.059 27.11 C-47.407 31.987 -55.687 36.97 -63.931 42.018 C-66.427 43.546 -68.925 45.07 -71.423 46.595 C-73.261 47.718 -75.095 48.846 -76.93 49.975 C-83.473 53.98 -90.056 57.729 -97 61 C-97.495 59.515 -97.495 59.515 -98 58 C-97.098 57.475 -96.195 56.951 -95.266 56.41 C-86.628 51.367 -78.057 46.224 -69.518 41.016 C-56.155 32.867 -42.688 24.909 -29.168 17.021 C-22.268 12.994 -15.394 8.921 -8.522 4.845 C-7.686 4.349 -6.85 3.854 -5.988 3.344 C-5.262 2.913 -4.535 2.481 -3.786 2.037 C-2.547 1.318 -1.282 0.641 0 0 Z " fill="#000000" transform="translate(711,746)"/>
<path d="M0 0 C0.66 0 1.32 0 2 0 C3.078 1.426 3.078 1.426 4.25 3.312 C7.308 7.765 10.637 9.435 15.875 10.688 C16.927 10.842 16.927 10.842 18 11 C18 12.65 18 14.3 18 16 C11.4 16.107 7.329 14.643 2.531 10.055 C0.054 6.73 0 4.09 0 0 Z " fill="#000000" transform="translate(285,748)"/>
<path d="M0 0 C1.207 0.031 1.207 0.031 2.438 0.062 C4.664 7.433 0.294 15.248 -2.918 21.848 C-11.3 36.662 -24.386 47.52 -40.5 52.875 C-49.964 55.265 -60.82 54.904 -70.383 53.215 C-72.57 52.89 -72.57 52.89 -74.562 53.062 C-77.128 55.184 -77.128 55.184 -78.812 58.375 C-88.386 72.944 -105.782 82.082 -122.489 86.033 C-136.944 88.981 -150.829 86.78 -164.875 82.875 C-178.974 79.769 -191.674 84.569 -203.562 92.062 C-211.368 97.36 -218.083 103.259 -224.344 110.324 C-226.562 112.062 -226.562 112.062 -229.344 111.832 C-230.076 111.578 -230.808 111.324 -231.562 111.062 C-231.893 110.072 -232.222 109.082 -232.562 108.062 C-223.446 92.01 -205.12 80.472 -187.863 74.859 C-179.185 72.764 -171.634 74.374 -163.125 76.5 C-141.293 81.949 -121.928 79.584 -102.246 68.395 C-94.198 63.517 -87.815 56.912 -82.25 49.375 C-79.04 45.149 -79.04 45.149 -74.75 44.375 C-71.563 45.062 -71.563 45.062 -68.562 46.062 C-52.818 47.002 -39.788 45.341 -26.562 36.062 C-25.95 35.646 -25.338 35.23 -24.707 34.801 C-14.809 27.258 -9.447 15.409 -4.875 4.203 C-3.151 0.077 -3.151 0.077 0 0 Z " fill="#000000" transform="translate(447.5625,753.9375)"/>
<path d="M0 0 C0.99 0.33 1.98 0.66 3 1 C0.138 4.09 -2.687 6.171 -6.352 8.234 C-7.875 9.095 -7.875 9.095 -9.43 9.973 C-11.011 10.852 -11.011 10.852 -12.625 11.75 C-13.687 12.352 -14.749 12.954 -15.844 13.574 C-23.732 18 -23.732 18 -26 18 C-26 17.01 -26 16.02 -26 15 C-25.39 14.652 -24.78 14.304 -24.152 13.946 C-21.372 12.36 -18.592 10.774 -15.812 9.188 C-14.853 8.64 -13.893 8.093 -12.904 7.529 C-11.973 6.998 -11.042 6.466 -10.082 5.918 C-9.228 5.431 -8.375 4.944 -7.495 4.442 C-5.753 3.435 -4.046 2.367 -2.37 1.255 C-1.588 0.841 -0.806 0.427 0 0 Z " fill="#000000" transform="translate(737,758)"/>
<path d="M0 0 C0 0.99 0 1.98 0 3 C-2.954 4.674 -5.914 6.338 -8.875 8 C-9.717 8.477 -10.559 8.954 -11.426 9.445 C-12.634 10.122 -12.634 10.122 -13.867 10.812 C-14.611 11.231 -15.354 11.65 -16.121 12.082 C-18 13 -18 13 -20 13 C-18.646 9.756 -17.446 8.331 -14.375 6.641 C-13.669 6.247 -12.962 5.854 -12.234 5.449 C-11.497 5.053 -10.76 4.658 -10 4.25 C-9.263 3.839 -8.525 3.428 -7.766 3.004 C-2.297 0 -2.297 0 0 0 Z " fill="#000000" transform="translate(119,760)"/>
<path d="M0 0 C0.66 0.66 1.32 1.32 2 2 C-5.004 6.276 -12.105 10.328 -19.312 14.25 C-20.275 14.779 -21.237 15.307 -22.229 15.852 C-23.16 16.359 -24.091 16.867 -25.051 17.391 C-25.883 17.845 -26.714 18.299 -27.572 18.767 C-30.002 20.001 -32.455 21.028 -35 22 C-35 21.01 -35 20.02 -35 19 C-33.996 18.456 -33.996 18.456 -32.971 17.902 C-29.877 16.226 -26.782 14.551 -23.688 12.875 C-22.109 12.02 -22.109 12.02 -20.498 11.148 C-13.659 7.445 -6.826 3.729 0 0 Z " fill="#000000" transform="translate(130,766)"/>
<path d="M0 0 C0.99 0.33 1.98 0.66 3 1 C0.195 3.994 -2.612 6.199 -6.125 8.312 C-7.428 9.111 -7.428 9.111 -8.758 9.926 C-9.498 10.28 -10.238 10.635 -11 11 C-11.66 10.67 -12.32 10.34 -13 10 C-13 9.34 -13 8.68 -13 8 C-10.922 6.497 -8.872 5.143 -6.688 3.812 C-6.093 3.432 -5.498 3.051 -4.885 2.658 C-3.306 1.686 -1.655 0.835 0 0 Z " fill="#000000" transform="translate(137,775)"/>
<path d="M0 0 C0.66 0.66 1.32 1.32 2 2 C-5.195 7.126 -12.829 11.184 -20.688 15.188 C-21.897 15.809 -23.106 16.43 -24.314 17.053 C-27.539 18.709 -30.767 20.36 -34 22 C-35.583 22.84 -35.583 22.84 -37.198 23.697 C-40 25 -40 25 -43 25 C-42 22 -42 22 -39.754 20.609 C-38.771 20.137 -37.789 19.666 -36.777 19.18 C-35.688 18.648 -34.599 18.117 -33.476 17.569 C-32.308 17.01 -31.141 16.451 -29.938 15.875 C-19.753 10.903 -9.783 5.719 0 0 Z " fill="#000000" transform="translate(729,786)"/>
<path d="M0 0 C0.99 0.33 1.98 0.66 3 1 C0.596 3.688 -1.945 5.207 -5.121 6.891 C-6.134 7.433 -7.147 7.974 -8.191 8.533 C-9.262 9.099 -10.334 9.666 -11.438 10.25 C-19.068 14.317 -26.61 18.409 -33.926 23.023 C-36 24 -36 24 -39 23 C-35.466 20.028 -31.897 17.689 -27.852 15.469 C-27.276 15.151 -26.7 14.833 -26.107 14.506 C-24.282 13.499 -22.454 12.499 -20.625 11.5 C-18.808 10.501 -16.991 9.501 -15.175 8.5 C-13.458 7.555 -11.737 6.615 -10.017 5.676 C-7.584 4.325 -5.209 2.92 -2.836 1.469 C-1.9 0.984 -0.964 0.499 0 0 Z " fill="#000000" transform="translate(250,790)"/>
<path d="M0 0 C-3.038 3.301 -6.202 5.54 -10.062 7.812 C-11.105 8.438 -12.148 9.063 -13.223 9.707 C-16 11 -16 11 -19 10 C-15.962 6.699 -12.798 4.46 -8.938 2.188 C-7.373 1.25 -7.373 1.25 -5.777 0.293 C-3 -1 -3 -1 0 0 Z " fill="#000000" transform="translate(265,799)"/>
<path d="M0 0 C-1.572 4.442 -5.111 6.876 -8.688 9.688 C-9.688 10.478 -9.688 10.478 -10.709 11.284 C-30.355 26.496 -52.124 35.285 -77 36 C-77.495 34.515 -77.495 34.515 -78 33 C-76.814 32.914 -75.628 32.827 -74.406 32.738 C-48.726 30.619 -27.009 20.552 -7.312 3.918 C-2.589 0 -2.589 0 0 0 Z " fill="#000000" transform="translate(195,801)"/>
<path d="M0 0 C0 0.66 0 1.32 0 2 C-1.684 3.211 -3.426 4.342 -5.188 5.438 C-15.985 12.478 -28.976 21.123 -33 34 C-33.66 34 -34.32 34 -35 34 C-34.086 24.256 -25.684 17.076 -18.539 10.992 C-15.459 8.575 -12.323 6.259 -9.125 4 C-8.565 3.602 -8.005 3.203 -7.429 2.792 C-3.364 0 -3.364 0 0 0 Z " fill="#000000" transform="translate(234,815)"/>
<path d="M0 0 C-0.566 3.775 -2.123 5.476 -4.816 8.109 C-5.58 8.863 -6.344 9.618 -7.131 10.395 C-7.933 11.172 -8.736 11.949 -9.562 12.75 C-10.772 13.939 -10.772 13.939 -12.006 15.152 C-13.997 17.108 -15.995 19.057 -18 21 C-18.66 20.34 -19.32 19.68 -20 19 C-15.922 14.143 -11.641 9.512 -7.188 5 C-6.708 4.507 -6.228 4.014 -5.733 3.507 C-2.236 0 -2.236 0 0 0 Z " fill="#000000" transform="translate(399,821)"/>
<path d="M0 0 C0.66 0.33 1.32 0.66 2 1 C0.47 4.606 -1.687 6.986 -4.438 9.75 C-5.22 10.549 -6.002 11.348 -6.809 12.172 C-9 14 -9 14 -12 14 C-11.598 9.585 -8.596 7.463 -5.438 4.75 C-4.917 4.291 -4.397 3.832 -3.861 3.359 C-2.581 2.232 -1.291 1.115 0 0 Z " fill="#000000" transform="translate(409,830)"/>
<path d="M0 0 C0.66 0 1.32 0 2 0 C3.98 6.725 5.955 13.451 7.927 20.178 C8.597 22.466 9.27 24.753 9.943 27.04 C10.912 30.33 11.876 33.622 12.84 36.914 C13.141 37.933 13.442 38.952 13.752 40.002 C15.108 44.651 16.369 49.184 17 54 C16.01 54 15.02 54 14 54 C4.057 21.47 4.057 21.47 0.812 10.125 C0.605 9.421 0.397 8.716 0.183 7.991 C-0.726 4.747 -1.093 3.278 0 0 Z " fill="#000000" transform="translate(430,837)"/>
<path d="M0 0 C0.99 0.33 1.98 0.66 3 1 C4.168 3.547 4.168 3.547 5.188 6.75 C5.532 7.797 5.876 8.843 6.23 9.922 C6.943 12.771 7.157 15.083 7 18 C6.34 18 5.68 18 5 18 C4.163 15.376 3.33 12.751 2.5 10.125 C2.262 9.379 2.023 8.632 1.777 7.863 C0 2.227 0 2.227 0 0 Z " fill="#000000" transform="translate(447,849)"/>
<path d="M0 0 C0.66 0 1.32 0 2 0 C2 0.99 2 1.98 2 3 C-0.238 4.945 -0.238 4.945 -3.312 7.125 C-4.413 7.916 -5.512 8.709 -6.609 9.504 C-7.453 10.115 -7.453 10.115 -8.314 10.739 C-11.921 13.438 -15.307 16.413 -18.723 19.348 C-21 21 -21 21 -24 21 C-19.583 15.463 -14.877 11.316 -9.188 7.125 C-7.66 5.982 -6.133 4.839 -4.605 3.695 C-3.937 3.2 -3.268 2.706 -2.579 2.196 C-1.046 1.091 -1.046 1.091 0 0 Z " fill="#000000" transform="translate(301,852)"/>
<path d="M0 0 C0.66 0.33 1.32 0.66 2 1 C1.537 1.347 1.075 1.693 0.598 2.051 C-8.26 8.707 -16.961 15.356 -25 23 C-25.66 22.34 -26.32 21.68 -27 21 C-22.012 15.657 -16.655 11.327 -10.688 7.125 C-9.877 6.545 -9.067 5.965 -8.232 5.367 C-2.352 1.176 -2.352 1.176 0 0 Z " fill="#000000" transform="translate(293,874)"/>
</svg>
