<?xml version="1.0" encoding="UTF-8"?>
<!-- Generator: visioncortex VTracer 0.6.0 -->
<svg version="1.1" xmlns="http://www.w3.org/2000/svg" width="847" height="847">
<path d="M0 0 C0.99 0.33 1.98 0.66 3 1 C3.33 6.28 3.66 11.56 4 17 C7.96 16.01 11.92 15.02 16 14 C16.66 15.32 17.32 16.64 18 18 C14 21 14 21 4 24 C4 30.93 4 37.86 4 45 C2.02 45.495 2.02 45.495 0 46 C-1 45 -1 45 -1.114 43.142 C-1.108 42.352 -1.103 41.561 -1.098 40.746 C-1.094 39.892 -1.091 39.038 -1.088 38.158 C-1.08 37.26 -1.071 36.363 -1.062 35.438 C-1.058 34.536 -1.053 33.634 -1.049 32.705 C-1.037 30.47 -1.021 28.235 -1 26 C-1.88 26.3 -2.761 26.601 -3.668 26.91 C-4.829 27.29 -5.991 27.671 -7.188 28.062 C-8.91 28.637 -8.91 28.637 -10.668 29.223 C-13.975 29.994 -15.791 29.961 -19 29 C-18.934 27.172 -18.934 27.172 -18 25 C-15.642 23.867 -13.533 23.029 -11.062 22.25 C-10.416 22.03 -9.77 21.809 -9.104 21.582 C-4.372 20 -4.372 20 -2 20 C-2.126 18.32 -2.126 18.32 -2.254 16.605 C-2.357 15.133 -2.46 13.66 -2.562 12.188 C-2.619 11.45 -2.675 10.712 -2.732 9.951 C-2.958 6.632 -3.063 4.188 -2 1 C-1.34 0.67 -0.68 0.34 0 0 Z " fill="#000000" transform="translate(467,120)"/>
<path d="M0 0 C2.463 3.695 2.39 5.633 2 10 C0.938 11.938 0.938 11.938 -1 13 C-4.92 13.499 -7.116 13.553 -10.5 11.438 C-12 9 -12 9 -12 5.438 C-11 2 -11 2 -9.375 0 C-5.923 -1.453 -3.572 -0.926 0 0 Z M-6 3 C-6.66 4.32 -7.32 5.64 -8 7 C-7.34 7.66 -6.68 8.32 -6 9 C-3.892 8.681 -3.892 8.681 -2 8 C-2.495 5.525 -2.495 5.525 -3 3 C-3.99 3 -4.98 3 -6 3 Z " fill="#000000" transform="translate(380,130)"/>
<path d="M0 0 C2.875 0.938 2.875 0.938 4.875 3.938 C4.732 7.379 4.427 9.283 2.188 11.938 C-0.125 12.938 -0.125 12.938 -3.375 12.125 C-4.736 11.537 -4.736 11.537 -6.125 10.938 C-7.574 4.657 -7.574 4.657 -5.562 1.438 C-3.125 -0.062 -3.125 -0.062 0 0 Z M-2.125 3.938 C-2.62 5.917 -2.62 5.917 -3.125 7.938 C-1.805 7.938 -0.485 7.938 0.875 7.938 C0.545 6.618 0.215 5.298 -0.125 3.938 C-0.785 3.938 -1.445 3.938 -2.125 3.938 Z " fill="#000000" transform="translate(564.125,145.0625)"/>
<path d="M0 0 C0.99 0.33 1.98 0.66 3 1 C3.188 3.375 3.188 3.375 3 6 C2.01 6.66 1.02 7.32 0 8 C-1 7 -1 7 -1.125 4 C-1 1 -1 1 0 0 Z " fill="#000000" transform="translate(420,182)"/>
<path d="M0 0 C1.375 2.312 1.375 2.312 2 5 C1.466 5.876 1.466 5.876 0.922 6.77 C-0.464 10.122 0.623 12.04 1.875 15.375 C5.528 24.048 9.761 26.79 18.31 30.286 C38.786 38.223 63.902 46.134 85 37 C92.141 33.607 99.105 29.866 106 26 C106.912 25.501 107.824 25.002 108.764 24.487 C109.653 23.984 110.541 23.48 111.457 22.961 C112.257 22.513 113.058 22.065 113.882 21.603 C116.381 19.712 117.553 17.754 119 15 C119.99 15.33 120.98 15.66 122 16 C122 16.66 122 17.32 122 18 C123.048 17.434 124.096 16.868 125.176 16.285 C126.555 15.544 127.934 14.803 129.312 14.062 C130.348 13.503 130.348 13.503 131.404 12.932 C132.071 12.574 132.738 12.216 133.426 11.848 C134.038 11.518 134.651 11.188 135.282 10.848 C141.8 7.63 150.108 8.128 157.051 9.684 C166.676 12.964 175.3 18.427 181 27 C182.287 29.945 183.241 32.879 184 36 C180.926 39.491 178.062 41.063 173.75 42.75 C172.672 43.178 171.595 43.606 170.484 44.047 C169.665 44.361 168.845 44.676 168 45 C168.584 48.245 169.415 51.167 170.562 54.25 C173.324 63.324 173.676 75.341 169.973 84.195 C168.23 87.429 166.796 89.522 164 92 C160.375 92.688 160.375 92.688 157 92 C154.608 89.376 154.072 87.565 153.625 84.062 C154.059 80.521 155.24 78.08 157 75 C151.686 76.924 151.686 76.924 148 81 C147.415 85.483 147.522 89.678 149.062 93.938 C151.81 96.862 154.155 97.865 158 99 C162.261 99.055 165.398 98.401 169 96 C169.25 93.416 169.25 93.416 169 91 C170.32 90.67 171.64 90.34 173 90 C180.538 105.982 188.075 121.965 195.5 138 C200.294 148.352 205.135 158.681 210 169 C215.394 180.443 220.751 191.903 226.066 203.383 C230.678 213.332 235.348 223.253 240.024 233.171 C245.233 244.223 250.407 255.29 255.528 266.383 C257.922 271.561 260.338 276.724 262.84 281.852 C263.271 282.74 263.702 283.628 264.147 284.543 C264.939 286.169 265.74 287.791 266.551 289.408 C269.111 294.668 269.111 294.668 268 298 C267.01 298 266.02 298 265 298 C257.929 283.429 250.953 268.823 244.159 254.12 C239.658 244.389 235.087 234.691 230.5 225 C224.912 213.192 219.368 201.366 213.881 189.511 C209.644 180.365 205.36 171.243 201.062 162.125 C194.217 147.6 187.413 133.057 180.632 118.502 C177.757 112.334 174.879 106.167 172 100 C170.893 100.485 169.786 100.971 168.646 101.471 C164.134 103.363 160.802 103.892 156 103 C152.8 101.601 149.933 99.883 147 98 C147.567 106.079 148.516 114.01 149.828 122 C150.013 123.153 150.198 124.306 150.389 125.493 C150.899 128.663 151.412 131.832 151.926 135.001 C152.83 140.579 153.72 146.159 154.612 151.738 C154.851 153.235 155.091 154.732 155.33 156.228 C158.4 175.408 161.369 194.603 164.333 213.799 C164.742 216.449 165.152 219.099 165.561 221.749 C166.986 230.965 168.408 240.181 169.828 249.398 C170.646 254.71 171.467 260.02 172.29 265.331 C172.856 268.98 173.42 272.628 173.984 276.277 C174.253 278.019 174.523 279.76 174.794 281.501 C175.166 283.9 175.537 286.299 175.907 288.697 C176.019 289.411 176.13 290.125 176.245 290.861 C177 295.772 177 295.772 177 298 C178.131 297.977 179.261 297.954 180.426 297.93 C250.32 296.963 250.32 296.963 271 313 C271.75 315.152 271.75 315.152 272 317 C269.048 315.893 266.39 314.661 263.625 313.125 C238.848 300.713 204.902 301.404 178 302 C178.33 302.763 178.66 303.526 179 304.312 C180 307 180 307 180 310 C179.34 310 178.68 310 178 310 C176.711 308.25 176.711 308.25 175.375 306 C174.929 305.257 174.483 304.515 174.023 303.75 C173.686 303.173 173.348 302.595 173 302 C146.644 302.448 120.107 305.631 95 314 C93.965 316.422 93.965 316.422 93.312 319.312 C93.061 320.278 92.81 321.244 92.551 322.238 C91.87 325.184 91.87 325.184 92 329 C99.473 331.643 106.807 333.469 114.625 334.688 C115.387 334.806 116.149 334.925 116.935 335.048 C127.309 336.581 137.626 337.164 148.105 337.316 C149.311 337.337 150.516 337.358 151.758 337.379 C155.568 337.444 159.378 337.503 163.188 337.562 C165.787 337.606 168.387 337.649 170.986 337.693 C177.324 337.8 183.662 337.902 190 338 C189.34 340.64 188.68 343.28 188 346 C190.323 344.009 190.994 343.023 191.809 339.98 C194 337 194 337 196.495 336.312 C199.913 335.897 203.313 335.645 206.75 335.438 C226.235 333.812 247.183 330.836 264.75 321.625 C265.822 321.089 266.895 320.553 268 320 C268.99 320.33 269.98 320.66 271 321 C269.35 324.63 267.7 328.26 266 332 C274.415 326.555 274.415 326.555 283 321 C281.01 317.02 280.466 316.335 276.875 314.25 C276.151 313.822 275.426 313.394 274.68 312.953 C274.125 312.639 273.571 312.324 273 312 C273.33 311.34 273.66 310.68 274 310 C279.019 310.471 283.284 312.653 287 316 C288.312 319.5 288.312 319.5 288 323 C284.655 326.918 281.072 329.374 276.562 331.812 C275.471 332.417 274.379 333.022 273.254 333.645 C270 335 270 335 266.859 334.805 C265.916 334.869 264.972 334.934 264 335 C262.215 337.134 261.008 338.916 259.688 341.312 C258.914 342.607 258.135 343.899 257.352 345.188 C256.766 346.156 256.766 346.156 256.169 347.145 C243.701 366.935 223.326 380.039 200.887 385.422 C176.628 390.28 152.907 387.56 132.035 374.086 C124.602 368.852 117.62 362.944 111.469 356.242 C110.216 354.885 110.216 354.885 108.938 353.5 C108.204 352.665 107.471 351.829 106.715 350.969 C103.445 348.598 101.35 348.464 97.41 348.203 C93.404 347.865 89.619 346.806 85.75 345.75 C84.974 345.558 84.198 345.366 83.398 345.168 C78.383 343.807 75.299 342.24 72 338 C71.921 334.189 72.785 332.341 74.812 329.125 C77 327 77 327 81 327 C80.711 327.557 80.423 328.114 80.125 328.688 C78.959 331.085 77.966 333.516 77 336 C81.411 338.423 85.446 339.711 90.375 340.688 C91.62 340.939 92.865 341.19 94.148 341.449 C95.56 341.722 95.56 341.722 97 342 C95.02 339.36 93.04 336.72 91 334 C89.35 334.33 87.7 334.66 86 335 C84.587 332.174 85.384 330.672 86.133 327.619 C86.408 326.482 86.683 325.344 86.967 324.173 C87.278 322.918 87.59 321.664 87.91 320.371 C88.237 319.031 88.564 317.691 88.89 316.35 C89.765 312.762 90.648 309.176 91.532 305.59 C92.371 302.186 93.202 298.779 94.033 295.373 C95.683 288.622 97.341 281.873 99.001 275.125 C101.586 264.622 104.165 254.117 106.745 243.612 C107.64 239.965 108.536 236.318 109.432 232.671 C113.156 217.51 116.878 202.349 120.596 187.187 C122.746 178.421 124.897 169.655 127.049 160.889 C128.61 154.527 130.171 148.164 131.731 141.801 C133.282 135.472 134.835 129.143 136.389 122.814 C136.972 120.438 137.555 118.063 138.137 115.687 C138.936 112.425 139.737 109.163 140.538 105.901 C140.775 104.935 141.011 103.97 141.254 102.975 C141.471 102.094 141.688 101.213 141.911 100.305 C142.192 99.159 142.192 99.159 142.479 97.99 C142.919 96.308 143.45 94.65 144 93 C143.394 92.986 142.788 92.972 142.164 92.957 C131.613 92.356 124.278 88.171 117.051 80.559 C113.707 76.387 111.294 71.812 109 67 C104.207 67.509 99.719 68.272 95.067 69.512 C77.294 74.106 60.656 72.63 43.051 68.188 C31.089 65.23 19.77 64.686 8.75 70.625 C3.407 74.049 -0.058 77.948 -1.516 84.219 C-1.873 86.812 -2 89.382 -2 92 C-0.515 91.505 -0.515 91.505 1 91 C4.644 94.886 5.524 97.339 5.712 102.631 C5.741 103.312 5.771 103.993 5.801 104.695 C5.9 107.059 5.971 109.424 6.043 111.789 C6.112 113.568 6.183 115.347 6.255 117.125 C6.422 121.298 6.578 125.471 6.727 129.644 C7.028 137.913 7.376 146.181 7.725 154.448 C7.86 157.656 7.995 160.863 8.129 164.071 C8.164 164.89 8.198 165.709 8.234 166.553 C8.634 176.113 9.023 185.674 9.412 195.234 C9.56 198.89 9.709 202.546 9.858 206.201 C9.895 207.117 9.932 208.033 9.971 208.977 C10.703 226.972 11.443 244.967 12.184 262.961 C12.222 263.902 12.261 264.843 12.301 265.813 C13.695 299.727 15.1 333.641 16.556 367.553 C16.769 372.504 16.979 377.456 17.187 382.407 C17.428 388.108 17.672 393.809 17.92 399.51 C18.009 401.561 18.096 403.613 18.181 405.665 C18.296 408.415 18.417 411.164 18.539 413.914 C18.571 414.716 18.603 415.517 18.636 416.343 C18.748 420.301 18.748 420.301 20 424 C20.232 425.599 20.415 427.205 20.573 428.813 C20.723 430.316 20.723 430.316 20.876 431.848 C20.98 432.935 21.084 434.021 21.191 435.141 C21.301 436.256 21.411 437.371 21.523 438.519 C21.755 440.883 21.984 443.247 22.212 445.611 C22.56 449.222 22.915 452.831 23.271 456.441 C23.495 458.737 23.719 461.033 23.941 463.328 C24.048 464.406 24.154 465.485 24.263 466.596 C24.724 471.415 25.141 476.152 25 481 C26.98 481 28.96 481 31 481 C30.67 480.01 30.34 479.02 30 478 C29.96 475.667 29.956 473.333 30 471 C30.99 471.33 31.98 471.66 33 472 C33 474.97 33 477.94 33 481 C37.29 481 41.58 481 46 481 C46 481.66 46 482.32 46 483 C42.04 483 38.08 483 34 483 C34 484.98 34 486.96 34 489 C33.01 489 32.02 489 31 489 C31 487.35 31 485.7 31 484 C29.02 484 27.04 484 25 484 C25.33 484.66 25.66 485.32 26 486 C26.04 488 26.043 490 26 492 C14.37 493.401 2.692 493.089 -9 493 C-9 489.7 -9 486.4 -9 483 C-25.5 483.33 -42 483.66 -59 484 C-55.386 491.437 -55.386 491.437 -51.76 498.868 C-51.313 499.795 -50.866 500.721 -50.406 501.676 C-49.945 502.624 -49.485 503.572 -49.01 504.548 C-48 507 -48 507 -48 510 C-46.919 509.934 -45.838 509.867 -44.724 509.799 C-32.279 509.07 -19.846 508.752 -7.382 508.554 C-3.852 508.498 -0.322 508.438 3.209 508.377 C9.457 508.269 15.705 508.165 21.953 508.062 C28.217 507.959 34.482 507.855 40.746 507.75 C41.965 507.73 43.185 507.71 44.441 507.689 C50.474 507.588 56.508 507.479 62.541 507.354 C64.848 507.307 67.155 507.26 69.463 507.213 C70.566 507.19 71.669 507.167 72.805 507.144 C78.986 507.027 85.155 507.004 91.336 507.086 C110.809 507.256 126.019 502.532 143.938 495.438 C152.868 491.993 161.799 488.549 171 485 C131.07 484.34 91.14 483.68 50 483 C50 482.01 50 481.02 50 480 C59.24 479.67 68.48 479.34 78 479 C81.465 471.575 81.465 471.575 85 464 C80.723 465.069 77.189 466.858 73.312 468.875 C67.64 471.778 62.147 474.244 56 476 C59.31 472.209 63.15 470.142 67.598 467.953 C68.34 467.581 69.081 467.208 69.846 466.825 C72.247 465.624 74.654 464.436 77.062 463.25 C77.883 462.844 78.704 462.437 79.55 462.019 C123.887 440.084 171.079 427.115 220 420.125 C220.767 420.015 221.534 419.906 222.325 419.793 C235.949 417.864 235.949 417.864 241 418 C240.67 418.66 240.34 419.32 240 420 C238.164 420.527 238.164 420.527 235.625 420.938 C234.15 421.199 234.15 421.199 232.645 421.465 C229.86 421.874 227.123 422.185 224.324 422.441 C223.499 422.534 222.674 422.626 221.824 422.721 C220.187 422.903 218.546 423.05 216.903 423.156 C213.074 423.614 210.772 424.233 207.99 426.997 C206.653 428.708 205.351 430.446 204.079 432.206 C200.527 436.98 196.23 441.019 192 445.188 C191.149 446.038 190.298 446.888 189.422 447.764 C185.072 452.083 180.643 456.228 175.996 460.224 C172.169 463.629 168.6 467.297 165 470.938 C163.838 472.106 163.838 472.106 162.652 473.299 C160.766 475.197 158.882 477.097 157 479 C157.701 478.988 158.402 478.977 159.124 478.965 C162.313 478.935 165.498 478.967 168.688 479 C170.342 478.971 170.342 478.971 172.029 478.941 C173.096 478.961 174.163 478.98 175.262 479 C176.241 479 177.22 479 178.229 479 C182.649 480.595 184.026 483.896 186 488 C187.445 491.436 188.664 494.924 189.848 498.457 C190.186 499.441 190.525 500.424 190.874 501.438 C191.946 504.559 193.005 507.686 194.062 510.812 C195.127 513.927 196.194 517.041 197.262 520.155 C197.922 522.084 198.58 524.015 199.236 525.946 C201.154 531.592 203.16 537.197 205.256 542.78 C206 545 206 545 206 547 C198.833 548.601 191.753 549.534 184.438 550.125 C183.461 550.211 182.485 550.298 181.479 550.387 C175.63 550.88 169.869 551.085 164 551 C163.842 550.393 163.684 549.786 163.522 549.161 C161.448 541.36 159.077 533.664 156.611 525.98 C155.928 523.846 155.256 521.708 154.584 519.57 C154.149 518.211 153.714 516.851 153.277 515.492 C152.888 514.269 152.499 513.045 152.097 511.785 C151.31 508.876 151.31 508.876 149 508 C149.353 509.054 149.706 510.108 150.07 511.194 C151.387 515.127 152.702 519.062 154.017 522.996 C154.585 524.695 155.153 526.393 155.722 528.091 C156.543 530.541 157.361 532.991 158.18 535.441 C158.432 536.193 158.684 536.944 158.944 537.718 C160.411 542.118 161.758 546.531 163 551 C160.595 552.203 159.05 552.101 156.375 552.062 C155.558 552.053 154.74 552.044 153.898 552.035 C152.959 552.018 152.959 552.018 152 552 C150.145 546.626 148.293 541.251 146.446 535.875 C145.816 534.045 145.186 532.215 144.554 530.386 C143.648 527.761 142.745 525.135 141.844 522.508 C141.559 521.687 141.275 520.866 140.982 520.02 C139 514.228 139 514.228 139 512 C138.34 512.66 137.68 513.32 137 514 C137.239 514.573 137.479 515.145 137.726 515.735 C140.573 522.681 142.968 529.726 145.25 536.875 C145.795 538.546 145.795 538.546 146.352 540.25 C146.694 541.32 147.037 542.39 147.391 543.492 C147.7 544.455 148.01 545.418 148.329 546.41 C149 549 149 549 149 553 C120.6 555.191 92.167 555.143 63.702 555.101 C58.628 555.095 53.554 555.095 48.48 555.093 C38.925 555.09 29.371 555.082 19.817 555.072 C8.917 555.061 -1.983 555.055 -12.883 555.05 C-35.256 555.04 -57.628 555.022 -80 555 C-82.189 548.544 -83.655 542.027 -85.125 535.375 C-85.402 534.148 -85.679 532.921 -85.965 531.656 C-86.227 530.478 -86.488 529.3 -86.758 528.086 C-86.996 527.014 -87.235 525.942 -87.481 524.837 C-88 522 -88 522 -88 518 C-88.99 518 -89.98 518 -91 518 C-90.674 519.198 -90.348 520.395 -90.012 521.629 C-83 547.647 -83 547.647 -83 555 C-110.72 555 -138.44 555 -167 555 C-176 522.6 -176 522.6 -176 518 C-176.99 518 -177.98 518 -179 518 C-178.769 518.623 -178.539 519.245 -178.301 519.887 C-175.849 526.836 -173.966 533.837 -172.25 541 C-172.027 541.92 -171.805 542.84 -171.575 543.788 C-171.37 544.662 -171.165 545.537 -170.953 546.438 C-170.769 547.22 -170.585 548.002 -170.396 548.809 C-170 551 -170 551 -170 555 C-183.53 555 -197.06 555 -211 555 C-213.344 547.003 -215.682 539.005 -218 531 C-218.271 530.063 -218.543 529.126 -218.822 528.161 C-219.534 525.693 -220.237 523.222 -220.938 520.75 C-221.254 519.654 -221.254 519.654 -221.577 518.536 C-222.518 515.182 -223 512.519 -223 509 C-218.859 508.28 -214.95 507.941 -210.742 507.969 C-209.851 507.973 -208.96 507.978 -208.042 507.982 C-207.031 507.991 -207.031 507.991 -206 508 C-206.303 507.258 -206.606 506.517 -206.918 505.753 C-208.284 502.4 -209.642 499.044 -211 495.688 C-211.477 494.52 -211.954 493.353 -212.445 492.15 C-212.896 491.032 -213.348 489.914 -213.812 488.762 C-214.231 487.73 -214.65 486.698 -215.082 485.635 C-216 483 -216 483 -216 480 C-210.72 477.69 -205.44 475.38 -200 473 C-204.506 471.498 -207.767 473.987 -211.818 475.994 C-216.456 478.153 -216.456 478.153 -219.227 477.375 C-221.049 475.962 -222.758 474.519 -224.438 472.938 C-228.555 469.224 -232.986 466.153 -237.607 463.109 C-240.429 461.222 -242.086 459.871 -244 457 C-243.108 456.457 -242.216 455.915 -241.297 455.355 C-240.115 454.633 -238.932 453.91 -237.75 453.188 C-237.163 452.831 -236.577 452.475 -235.973 452.107 C-232.865 450.204 -229.868 448.25 -227 446 C-232.709 447.679 -237.203 450.467 -242.195 453.637 C-245 455 -245 455 -247.023 454.977 C-249.858 453.576 -252.08 451.718 -254.5 449.688 C-255.438 448.908 -256.377 448.128 -257.344 447.324 C-259.671 445.288 -261.926 443.294 -264 441 C-264 440.34 -264 439.68 -264 439 C-253.455 434.317 -242.88 429.791 -232 425.938 C-231.171 425.639 -230.342 425.341 -229.487 425.033 C-225.552 423.67 -222.229 422.599 -218 423 C-218.33 422.34 -218.66 421.68 -219 421 C-226.815 422.277 -234.018 424.581 -241.438 427.312 C-242.493 427.691 -243.548 428.069 -244.635 428.459 C-250.824 430.71 -256.759 433.207 -262.645 436.169 C-265.347 437.122 -266.398 437.152 -269 436 C-270.556 434.601 -270.556 434.601 -272.016 432.84 C-272.544 432.211 -273.073 431.583 -273.617 430.936 C-274.425 429.947 -274.425 429.947 -275.25 428.938 C-275.804 428.274 -276.359 427.611 -276.93 426.928 C-278.295 425.292 -279.648 423.647 -281 422 C-277.345 417.684 -272.752 415.489 -267.812 412.938 C-266.593 412.287 -266.593 412.287 -265.35 411.623 C-252.678 405 -252.678 405 -246 405 C-246 404.01 -246 403.02 -246 402 C-259.163 405.738 -271.593 411.395 -283 419 C-284.98 415.535 -284.98 415.535 -287 412 C-284.211 410.66 -281.419 409.329 -278.625 408 C-277.831 407.618 -277.037 407.237 -276.219 406.844 C-275.458 406.483 -274.698 406.122 -273.914 405.75 C-273.212 405.415 -272.511 405.08 -271.788 404.734 C-270 404 -270 404 -268 404 C-268.66 403.34 -269.32 402.68 -270 402 C-271.181 402.529 -272.362 403.057 -273.578 403.602 C-275.135 404.277 -276.692 404.951 -278.25 405.625 C-279.027 405.976 -279.805 406.326 -280.605 406.688 C-281.737 407.171 -281.737 407.171 -282.891 407.664 C-283.582 407.968 -284.273 408.272 -284.985 408.584 C-287 409 -287 409 -289.168 408.231 C-291.735 406.506 -292.418 404.635 -293.625 401.812 C-294.03 400.891 -294.435 399.969 -294.852 399.02 C-299.195 387.599 -300.104 374.377 -295 363 C-290.756 354.497 -284.519 348.176 -276 344 C-275.34 344 -274.68 344 -274 344 C-270.617 364.532 -270.617 364.532 -270 374 C-269.34 374 -268.68 374 -268 374 C-268.091 373.239 -268.182 372.477 -268.275 371.693 C-268.687 368.233 -269.093 364.773 -269.5 361.312 C-269.643 360.114 -269.786 358.916 -269.934 357.682 C-270.069 356.525 -270.204 355.368 -270.344 354.176 C-270.469 353.113 -270.595 352.05 -270.725 350.954 C-271 348 -271 348 -271 343 C-266.05 343 -261.1 343 -256 343 C-255.712 346.947 -255.426 350.894 -255.146 354.841 C-255.003 356.832 -254.857 358.822 -254.711 360.812 C-254.211 367.889 -253.849 374.905 -254 382 C-257 383 -257 383 -258.854 382.379 C-259.531 382.039 -260.208 381.698 -260.906 381.348 C-261.65 380.983 -262.394 380.619 -263.16 380.244 C-263.932 379.854 -264.704 379.464 -265.5 379.062 C-267.029 378.298 -268.56 377.539 -270.094 376.785 C-270.771 376.444 -271.449 376.102 -272.146 375.75 C-274.13 374.812 -274.13 374.812 -277 375 C-277.33 375.99 -277.66 376.98 -278 378 C-277.467 378.167 -276.934 378.333 -276.385 378.505 C-248.245 387.558 -222.223 403.919 -199.215 422.246 C-196.989 424.009 -194.729 425.722 -192.465 427.434 C-185.235 432.92 -178.329 438.736 -171.491 444.7 C-170.251 445.781 -169.007 446.856 -167.762 447.93 C-151.527 461.98 -136.954 476.917 -123.574 493.707 C-123.127 494.269 -122.679 494.831 -122.218 495.409 C-121.082 496.893 -120.037 498.445 -119 500 C-118.01 500.33 -117.02 500.66 -116 501 C-118.628 495.769 -121.246 491.754 -125.438 487.641 C-128.123 484.312 -129.038 482.836 -128.84 478.517 C-127.799 474.428 -126.487 470.567 -125 466.625 C-124.506 465.206 -124.016 463.785 -123.53 462.363 C-122.092 458.214 -120.56 454.105 -119 450 C-118.359 448.3 -118.359 448.3 -117.706 446.565 C-115.583 440.993 -113.357 435.477 -111 430 C-109.35 430.66 -107.7 431.32 -106 432 C-107.151 437.398 -108.424 442.71 -110 448 C-107.7 447.129 -107.7 447.129 -106.93 444.277 C-106.582 443.175 -106.234 442.073 -105.875 440.938 C-105.522 439.833 -105.169 438.728 -104.805 437.59 C-104.539 436.735 -104.274 435.881 -104 435 C-101.551 435.867 -101.551 435.867 -99 437 C-98.188 439.125 -98.188 439.125 -98 441 C-97.199 441.081 -97.199 441.081 -96.383 441.164 C-92.867 442.397 -90.529 444.856 -87.875 447.375 C-87.069 448.118 -87.069 448.118 -86.246 448.875 C-83.819 451.138 -81.848 453.227 -80 456 C-80.356 461.563 -82.528 466.78 -84.379 471.992 C-84.71 472.938 -85.042 473.884 -85.384 474.859 C-86.439 477.866 -87.5 480.87 -88.562 483.875 C-89.281 485.919 -89.999 487.963 -90.717 490.008 C-92.473 495.007 -94.234 500.004 -96 505 C-93.197 503.599 -93.012 501.647 -92.046 498.807 C-91.807 498.078 -91.567 497.349 -91.32 496.598 C-91.066 495.846 -90.812 495.094 -90.551 494.32 C-89.735 491.903 -88.929 489.483 -88.125 487.062 C-87.069 483.906 -86.009 480.751 -84.945 477.598 C-84.691 476.842 -84.437 476.086 -84.175 475.308 C-82.305 469.792 -80.278 464.361 -78 459 C-75.812 460.5 -75.812 460.5 -73 463 C-72.488 463.449 -71.976 463.898 -71.449 464.361 C-69.513 466.592 -68.711 468.103 -68 471 C-69 477.246 -71.081 483.052 -73.188 489 C-73.743 490.649 -74.296 492.298 -74.846 493.949 C-76.195 497.979 -77.586 501.992 -79 506 C-78.67 506.33 -78.34 506.66 -78 507 C-74.37 495.78 -70.74 484.56 -67 473 C-63 477 -63 477 -61 480 C-58.703 480.476 -58.703 480.476 -56 480.432 C-54.438 480.462 -54.438 480.462 -52.845 480.492 C-51.718 480.499 -50.591 480.505 -49.43 480.512 C-48.278 480.53 -47.127 480.548 -45.941 480.566 C-42.252 480.62 -38.564 480.654 -34.875 480.688 C-32.379 480.721 -29.883 480.755 -27.387 480.791 C-21.258 480.876 -15.129 480.944 -9 481 C-9.069 480.22 -9.138 479.439 -9.209 478.635 C-10.045 468.991 -10.396 459.341 -10.667 449.667 C-10.723 447.788 -10.785 445.908 -10.854 444.029 C-10.954 441.288 -11.034 438.547 -11.109 435.805 C-11.161 434.544 -11.161 434.544 -11.213 433.258 C-11.34 427.431 -11.34 427.431 -9.671 425.319 C-8 424 -8 424 -5 423 C-5.527 411.74 -6.209 400.495 -7 389.25 C-7.083 388.049 -7.166 386.848 -7.251 385.61 C-7.651 380.034 -8.096 374.519 -9 369 C-10.176 370.207 -10.176 370.207 -11.375 371.438 C-14.299 373.951 -16.248 374.255 -20.062 374.312 C-23.884 374.465 -23.884 374.465 -26.754 376.828 C-27.991 378.845 -29.061 380.83 -30 383 C-30.66 382.67 -31.32 382.34 -32 382 C-30.801 378.917 -29.523 375.937 -28 373 C-29.65 372.67 -31.3 372.34 -33 372 C-33.51 372.666 -34.021 373.333 -34.547 374.02 C-48.819 392.113 -67.268 405.343 -90.59 408.684 C-115.493 410.994 -142.319 406.408 -162.062 390.062 C-168.255 384.203 -172.584 377.226 -177 370 C-177.46 369.255 -177.921 368.509 -178.395 367.741 C-179.798 365.46 -181.184 363.171 -182.562 360.875 C-183.207 359.81 -183.207 359.81 -183.865 358.723 C-185.956 355.167 -187.537 352.179 -188 348 C-184.402 349.368 -181.078 350.995 -177.688 352.812 C-151.606 365.869 -119.669 368.08 -91 369 C-89.466 372.069 -90.45 374.701 -91 378 C-90.34 377.67 -89.68 377.34 -89 377 C-88.269 374.686 -87.599 372.352 -87 370 C-86.105 369.96 -85.21 369.921 -84.288 369.88 C-54.926 369.085 -54.926 369.085 -27 361 C-27 360.01 -27 359.02 -27 358 C-39.383 346.546 -60.184 344.393 -76 341 C-77.594 340.653 -79.188 340.305 -80.781 339.957 C-83.852 339.292 -86.924 338.638 -90 338 C-89.939 338.635 -89.879 339.27 -89.816 339.924 C-89.541 342.824 -89.271 345.725 -89 348.625 C-88.857 350.124 -88.857 350.124 -88.711 351.652 C-88.266 356.451 -87.868 361.174 -88 366 C-89.32 366 -90.64 366 -92 366 C-92.662 358.985 -93.063 352.078 -93.031 345.035 C-93.029 344.353 -93.027 343.671 -93.024 342.969 C-93.019 341.313 -93.01 339.656 -93 338 C-140.188 331.112 -140.188 331.112 -185.043 341.156 C-187 342 -187 342 -190 341 C-190 342.65 -190 344.3 -190 346 C-196.912 345.187 -201.414 340.93 -206 336 C-206.466 335.5 -206.932 335 -207.412 334.485 C-211.157 330.311 -213.799 326.154 -216.125 321.062 C-216.633 319.963 -216.633 319.963 -217.15 318.842 C-221.965 308.017 -226.563 294.787 -223.125 283 C-222 281 -222 281 -220 279 C-211.011 277.846 -203.299 279.65 -195 283 C-195 284.98 -195 286.96 -195 289 C-194.34 287.68 -193.68 286.36 -193 285 C-187.652 285.535 -183.642 287.467 -179 290 C-179.606 295.76 -181.757 300.72 -184 306 C-180.946 304.473 -180.619 302.048 -179.375 298.938 C-178.706 297.28 -178.706 297.28 -178.023 295.59 C-177.686 294.735 -177.348 293.881 -177 293 C-176.01 293 -175.02 293 -174 293 C-173.639 291.179 -173.639 291.179 -173.271 289.321 C-171.865 283.017 -169.753 276.975 -167.66 270.871 C-167.221 269.579 -166.782 268.286 -166.343 266.993 C-165.408 264.239 -164.469 261.486 -163.529 258.733 C-162.049 254.403 -160.58 250.069 -159.111 245.735 C-154.665 232.623 -150.192 219.52 -145.642 206.442 C-143.844 201.272 -142.058 196.097 -140.273 190.922 C-139.426 188.48 -138.574 186.04 -137.715 183.603 C-136.524 180.224 -135.354 176.84 -134.188 173.453 C-133.831 172.46 -133.475 171.467 -133.108 170.445 C-132.798 169.531 -132.488 168.618 -132.168 167.677 C-131.892 166.889 -131.617 166.101 -131.333 165.29 C-130.802 161.64 -132.398 159.105 -134.109 155.965 C-136.105 151.562 -135.462 146.415 -134 141.938 C-133.67 141.298 -133.34 140.659 -133 140 C-133.594 139.742 -134.189 139.484 -134.801 139.219 C-137.178 137.902 -138.468 136.587 -140.188 134.5 C-140.697 133.892 -141.206 133.283 -141.73 132.656 C-143 131 -143 131 -144 129 C-145.16 129.143 -145.16 129.143 -146.344 129.289 C-154.284 130.134 -160.158 130.509 -167.062 126 C-169.517 122.199 -169.408 120.186 -168.699 115.809 C-165.642 103.528 -159.353 92.877 -148.34 86.25 C-140.225 81.915 -133.313 79.867 -124 81 C-120.192 82.166 -119.271 82.593 -117 86 C-121.455 86.495 -121.455 86.495 -126 87 C-125.47 91.071 -125.47 91.071 -122.707 92.457 C-121.752 92.904 -120.797 93.352 -119.812 93.812 C-112.665 97.53 -108.7 101.223 -106.125 108.938 C-103.932 117.642 -104.772 123.989 -109 132 C-111.723 136.049 -114.729 138.918 -118.812 141.562 C-121.696 143.468 -121.928 143.746 -122.938 147.312 C-122.958 148.199 -122.979 149.086 -123 150 C-120.217 151.119 -119.082 151.028 -116.195 150.031 C-109.839 146.861 -104.823 144.089 -101 138 C-100.59 137.39 -100.18 136.781 -99.758 136.152 C-95.034 127.698 -95.734 115.648 -98.125 106.5 C-100.383 100.249 -104.066 94.702 -108.875 90.125 C-109.576 89.424 -110.278 88.722 -111 88 C-111 87.01 -111 86.02 -111 85 C-111.99 84.67 -112.98 84.34 -114 84 C-110.801 82.195 -107.842 81.506 -104.25 80.812 C-97.879 79.26 -94.45 76.686 -90 72 C-88.565 70.539 -87.128 69.081 -85.688 67.625 C-84.933 66.861 -84.179 66.096 -83.402 65.309 C-80.949 62.951 -78.403 60.817 -75.75 58.688 C-61.07 47.437 -61.07 47.437 -50 33 C-49.907 31.464 -49.868 29.925 -49.859 28.387 C-49.84 27.468 -49.821 26.55 -49.801 25.604 C-49.767 23.671 -49.749 21.739 -49.746 19.807 C-49.632 15.508 -49.437 12.728 -47.195 8.996 C-42.438 6.024 -37.605 5.302 -32.125 4.375 C-29.874 3.964 -27.622 3.552 -25.371 3.141 C-23.735 2.852 -23.735 2.852 -22.066 2.557 C-19.419 2.076 -16.79 1.552 -14.16 0.984 C-13.475 0.837 -12.79 0.69 -12.083 0.538 C-10.32 0.154 -8.556 -0.232 -6.793 -0.617 C-4.091 -0.988 -2.501 -1.052 0 0 Z M-40 14 C-40.961 16.882 -41.106 18.699 -41.062 21.688 C-41.053 22.496 -41.044 23.304 -41.035 24.137 C-41.024 24.752 -41.012 25.366 -41 26 C-40.34 26 -39.68 26 -39 26 C-38.34 22.37 -37.68 18.74 -37 15 C-37.99 14.67 -38.98 14.34 -40 14 Z M-33 21 C-35.364 22.929 -35.364 22.929 -35.25 26.375 C-35.08 32.98 -34.708 40.438 -31 46 C-28.416 46.25 -28.416 46.25 -26 46 C-24.812 41.617 -25.191 37.973 -25.812 33.5 C-26.07 31.566 -26.07 31.566 -26.332 29.594 C-26.914 26.462 -27.685 23.886 -29 21 C-30.32 21 -31.64 21 -33 21 Z M116 25 C109.29 31.901 107.619 40.614 107.719 49.898 C108.845 62.319 114.784 74.58 124 83 C130.714 87.701 135.709 90.156 144 90 C144 88.02 144 86.04 144 84 C143.192 83.613 142.384 83.227 141.551 82.828 C139.948 82.047 139.948 82.047 138.312 81.25 C137.257 80.74 136.201 80.229 135.113 79.703 C126.17 74.811 121.385 66.929 118.531 57.281 C116.829 49.971 116.368 43.145 119 36 C121.479 32.067 124.068 30.338 128 28 C128.33 27.01 128.66 26.02 129 25 C127.751 23.417 127.751 23.417 126 22 C121.551 22 119.762 22.727 116 25 Z M-22 26 C-22.33 28.31 -22.66 30.62 -23 33 C-22.01 33 -21.02 33 -20 33 C-19.67 30.69 -19.34 28.38 -19 26 C-19.99 26 -20.98 26 -22 26 Z M127 32 C127 33.32 127 34.64 127 36 C128.125 35.93 128.125 35.93 129.273 35.859 C137.321 35.576 144.414 36.185 150.812 41.508 C158.53 49.805 160.272 59.514 160.238 70.441 C159.973 74.397 159.139 77.523 157.559 81.133 C156.872 83.427 157.248 84.76 158 87 C160.293 87.86 160.293 87.86 163 88 C166.09 85.969 166.948 84.139 168.25 80.688 C170.908 67.687 169.234 54.379 162.188 43.062 C157.553 36.7 151.582 31.233 143.719 29.496 C137.468 28.58 132.775 29.531 127 32 Z M-47 48 C-47.652 55.562 -46.037 60.974 -41.812 67.25 C-36.873 72.08 -32.457 74.211 -25.5 74.5 C-19.177 74.22 -14.707 72.672 -10.176 68.199 C-7.447 64.924 -5.643 62.351 -5.625 58 C-5.749 57.01 -5.873 56.02 -6 55 C-7.32 54.34 -8.64 53.68 -10 53 C-10.459 53.699 -10.918 54.397 -11.391 55.117 C-12.004 56.027 -12.618 56.937 -13.25 57.875 C-13.853 58.78 -14.457 59.685 -15.078 60.617 C-17.607 63.752 -19.425 64.753 -23.367 65.371 C-27.694 65.486 -30.449 65.276 -34.375 63.312 C-38.059 59.763 -38.812 54.58 -39.945 49.766 C-40.693 46.876 -40.693 46.876 -42.992 45.984 C-45.235 45.767 -45.235 45.767 -47 48 Z M-21 46 C-21.33 48.31 -21.66 50.62 -22 53 C-24.312 53.688 -24.312 53.688 -27 54 C-28.688 52.688 -28.688 52.688 -30 51 C-30.66 50.34 -31.32 49.68 -32 49 C-32.33 50.65 -32.66 52.3 -33 54 C-30.555 56.236 -28.769 57.827 -25.5 58.562 C-21.775 57.724 -20.324 55.969 -18 53 C-17.12 49.818 -17.12 49.818 -17 47 C-18.32 46.67 -19.64 46.34 -21 46 Z M144.266 52.09 C143.628 52.313 142.99 52.537 142.332 52.767 C140.301 53.48 138.276 54.209 136.25 54.938 C134.871 55.425 133.493 55.911 132.113 56.396 C128.738 57.587 125.368 58.79 122 60 C125.641 69.074 131.021 75.687 140 80 C141.323 80.372 142.655 80.717 144 81 C144.639 80.072 145.279 79.144 145.938 78.188 C149.18 74.224 153.166 73.201 158 72 C158.623 61.086 158.623 61.086 155 51 C151.093 49.258 148.128 50.718 144.266 52.09 Z M-65.625 73.812 C-66.628 74.52 -67.631 75.228 -68.664 75.957 C-69.435 76.631 -70.206 77.305 -71 78 C-71 78.99 -71 79.98 -71 81 C-67.163 79.651 -64.348 77.922 -61.188 75.375 C-60.397 74.743 -59.607 74.112 -58.793 73.461 C-58.201 72.979 -57.61 72.497 -57 72 C-57.33 71.34 -57.66 70.68 -58 70 C-61.208 70 -63.064 71.976 -65.625 73.812 Z M-79.559 97.253 C-83.035 100.394 -86.34 102.815 -90.438 105.125 C-92.794 106.868 -93.854 108.031 -94.296 110.962 C-94.48 115.093 -94.271 119.193 -94.082 123.32 C-93.766 131.799 -96.613 137.71 -102.062 144.062 C-104.313 146.451 -106.252 148.168 -109 150 C-109.289 150.825 -109.577 151.65 -109.875 152.5 C-111 155 -111 155 -113.25 156.375 C-116.544 157.124 -118.743 156.85 -122 156 C-125 154 -125 154 -125.875 150.75 C-126.066 145.023 -124.158 142.239 -120.312 138.125 C-119.168 137.073 -119.168 137.073 -118 136 C-122.252 136.25 -124.476 136.569 -127.812 139.312 C-131.649 144.026 -132.534 146.802 -132 153 C-130.26 157.67 -128.158 160.262 -124 163 C-121.818 163.778 -121.818 163.778 -120 164 C-120 164.66 -120 165.32 -120 166 C-122.31 165.67 -124.62 165.34 -127 165 C-136.561 190.216 -144.993 215.855 -153.475 241.449 C-156.067 249.261 -158.696 257.058 -161.387 264.836 C-161.804 266.043 -161.804 266.043 -162.229 267.273 C-163.565 271.138 -164.906 275 -166.256 278.859 C-166.737 280.247 -167.218 281.635 -167.699 283.023 C-168.12 284.229 -168.541 285.435 -168.975 286.677 C-169.935 289.79 -170.552 292.778 -171 296 C-169.68 296.99 -168.36 297.98 -167 299 C-167.653 302.552 -169.144 305.087 -171.062 308.125 C-173.297 311.332 -173.297 311.332 -174 315 C-170.088 313.52 -168.773 311.46 -166.75 307.875 C-166.229 306.965 -165.708 306.055 -165.172 305.117 C-164.785 304.419 -164.398 303.72 -164 303 C-160.225 304.762 -157.693 306.769 -155 310 C-155.287 314.61 -158.745 318.546 -161.205 322.311 C-163.495 325.86 -163.495 325.86 -164 330 C-159.684 328.561 -158.559 325.273 -156.438 321.5 C-152.249 314.125 -152.249 314.125 -150 313 C-149.627 313.853 -149.627 313.853 -149.246 314.723 C-147.812 317.343 -146.096 319.253 -144.062 321.438 C-141.872 323.792 -140.166 325.631 -138.84 328.573 C-137.147 331.33 -137.147 331.33 -133.681 331.843 C-132.318 331.968 -130.952 332.067 -129.586 332.145 C-128.857 332.204 -128.128 332.264 -127.377 332.325 C-125.044 332.51 -122.71 332.661 -120.375 332.812 C-118.827 332.932 -117.278 333.054 -115.73 333.178 C-109.896 333.625 -104.099 334.029 -98.244 334.012 C-97.446 334.01 -96.647 334.009 -95.825 334.007 C-95.223 334.005 -94.62 334.002 -94 334 C-94.685 317.009 -95.857 300.058 -97.088 283.099 C-97.364 279.288 -97.637 275.476 -97.911 271.665 C-98.37 265.284 -98.831 258.903 -99.293 252.523 C-99.826 245.17 -100.355 237.816 -100.883 230.462 C-101.394 223.338 -101.908 216.214 -102.422 209.089 C-102.64 206.077 -102.857 203.064 -103.073 200.052 C-103.327 196.509 -103.584 192.966 -103.841 189.424 C-103.979 187.518 -104.116 185.613 -104.252 183.708 C-104.709 177.452 -105.257 171.228 -106 165 C-110.455 165.99 -110.455 165.99 -115 167 C-115 166.01 -115 165.02 -115 164 C-114.237 163.897 -113.474 163.794 -112.688 163.688 C-109.699 162.923 -108.938 162.317 -107 160 C-106.014 157.969 -106.014 157.969 -105.312 155.812 C-105.061 155.097 -104.81 154.382 -104.551 153.645 C-104.369 153.102 -104.187 152.559 -104 152 C-103.34 152 -102.68 152 -102 152 C-96.288 166.188 -90.704 180.422 -85.188 194.688 C-84.358 196.829 -83.529 198.971 -82.699 201.113 C-80.983 205.545 -79.267 209.976 -77.552 214.408 C-73.931 223.764 -70.303 233.117 -66.675 242.47 C-64.706 247.546 -62.738 252.623 -60.77 257.699 C-60.379 258.707 -59.988 259.715 -59.585 260.754 C-57.571 265.947 -55.558 271.141 -53.544 276.334 C-53.137 277.386 -52.729 278.437 -52.309 279.52 C-51.487 281.641 -50.665 283.763 -49.843 285.884 C-47.834 291.068 -45.823 296.251 -43.811 301.434 C-40.457 310.072 -37.106 318.711 -33.792 327.364 C-32.482 330.782 -31.168 334.199 -29.853 337.615 C-29.248 339.191 -28.645 340.768 -28.046 342.347 C-27.233 344.483 -26.412 346.617 -25.59 348.75 C-25.135 349.941 -24.68 351.132 -24.211 352.359 C-23.278 355.122 -23.278 355.122 -21 356 C-21 355.34 -21 354.68 -21 354 C-19.375 354.645 -17.75 355.291 -16.125 355.938 C-15.22 356.297 -14.315 356.657 -13.383 357.027 C-11 358 -11 358 -9 359 C-9.696 339.284 -11.319 319.629 -12.83 299.963 C-13.212 294.972 -13.591 289.981 -13.97 284.99 C-14.772 274.448 -15.578 263.906 -16.384 253.364 C-17.589 237.595 -18.792 221.826 -19.992 206.057 C-20.367 201.128 -20.743 196.2 -21.121 191.271 C-22.636 171.503 -24.123 151.733 -25.505 131.955 C-25.638 130.057 -25.772 128.16 -25.908 126.263 C-27.506 103.911 -27.506 103.911 -27 96 C-26.67 95.67 -26.34 95.34 -26 95 C-26.304 89.729 -27.039 86.575 -31 83 C-49.789 72.659 -65.573 84.578 -79.559 97.253 Z M-126.188 104.312 C-127.539 105.235 -127.539 105.235 -128.918 106.176 C-129.605 106.778 -130.292 107.38 -131 108 C-131 108.99 -131 109.98 -131 111 C-127.931 109.536 -125.096 107.86 -122.25 106 C-121.451 105.484 -120.652 104.969 -119.828 104.438 C-119.225 103.963 -118.622 103.489 -118 103 C-118 102.34 -118 101.68 -118 101 C-121.784 101 -123.11 102.168 -126.188 104.312 Z M-138 105 C-139.694 106.619 -139.694 106.619 -141.188 108.75 C-141.717 109.446 -142.247 110.142 -142.793 110.859 C-144.327 113.171 -144.327 113.171 -144 117 C-143.34 117 -142.68 117 -142 117 C-140.441 115.087 -140.441 115.087 -138.938 112.688 C-138.41 111.887 -137.883 111.086 -137.34 110.262 C-135.87 107.962 -135.87 107.962 -135 105 C-135.99 105 -136.98 105 -138 105 Z M143 112 C142.843 112.65 142.685 113.301 142.523 113.971 C132.954 153.49 123.322 192.994 113.643 232.487 C112.818 235.851 111.994 239.216 111.169 242.581 C109.849 247.973 108.527 253.364 107.205 258.755 C106.719 260.738 106.232 262.721 105.747 264.704 C105.067 267.477 104.387 270.25 103.706 273.023 C103.382 274.346 103.382 274.346 103.051 275.696 C101.825 280.684 100.583 285.666 99.327 290.646 C99.049 291.75 98.771 292.853 98.484 293.99 C97.943 296.134 97.401 298.278 96.856 300.421 C96.492 301.863 96.492 301.863 96.121 303.335 C95.904 304.189 95.687 305.042 95.464 305.922 C94.927 307.97 94.927 307.97 95 310 C100.084 309.013 105.153 307.983 110.199 306.816 C128.188 302.681 146.15 299.972 164.602 299.211 C167.519 299.03 170.152 298.606 173 298 C172.443 289.183 171.447 280.533 170.054 271.811 C169.859 270.561 169.663 269.312 169.462 268.024 C168.931 264.629 168.394 261.236 167.856 257.842 C167.285 254.238 166.72 250.632 166.154 247.027 C165.2 240.951 164.242 234.876 163.282 228.801 C162.309 222.644 161.338 216.486 160.37 210.328 C160.252 209.576 160.134 208.824 160.012 208.049 C159.774 206.536 159.536 205.023 159.298 203.51 C157.142 189.786 154.974 176.064 152.796 162.344 C151.69 155.369 150.591 148.394 149.505 141.416 C148.948 137.848 148.386 134.281 147.822 130.715 C147.577 129.156 147.335 127.597 147.095 126.038 C146.78 123.984 146.455 121.932 146.128 119.881 C145.956 118.777 145.784 117.674 145.606 116.536 C145.198 113.849 145.198 113.849 143 112 Z M-114.352 117.531 C-115.628 118.005 -115.628 118.005 -116.93 118.488 C-117.819 118.822 -118.709 119.156 -119.625 119.5 C-120.971 120.001 -120.971 120.001 -122.344 120.512 C-124.564 121.338 -126.782 122.168 -129 123 C-125.55 128.424 -122.556 132.072 -116.125 133.75 C-115.424 133.832 -114.722 133.915 -114 134 C-108.942 128.268 -107.696 123.593 -108 116 C-110.43 116 -112.072 116.68 -114.352 117.531 Z M-141 127 C-137.802 133.134 -137.802 133.134 -133 138 C-129.186 138 -126.775 135.39 -124 133 C-125.285 131.494 -126.578 129.995 -127.875 128.5 C-128.954 127.247 -128.954 127.247 -130.055 125.969 C-130.697 125.319 -131.339 124.669 -132 124 C-135.304 124 -138.021 125.676 -141 127 Z M-119 154 C-117.163 154.772 -117.163 154.772 -115 155 C-113.228 153.646 -113.228 153.646 -112 152 C-114.647 152 -116.581 152.981 -119 154 Z M-103 162 C-101.605 182.047 -100.206 202.093 -98.801 222.139 C-98.149 231.448 -97.498 240.757 -96.851 250.067 C-96.286 258.189 -95.718 266.31 -95.148 274.431 C-94.846 278.725 -94.545 283.018 -94.249 287.312 C-93.968 291.368 -93.684 295.423 -93.397 299.479 C-93.293 300.953 -93.19 302.428 -93.09 303.903 C-92.376 314.315 -91.296 324.646 -90 335 C-84.956 336.132 -79.907 337.233 -74.848 338.297 C-59.401 341.583 -44.193 344.893 -30 352 C-29.34 352 -28.68 352 -28 352 C-30.752 343.365 -34.044 334.948 -37.312 326.5 C-37.964 324.813 -38.615 323.126 -39.265 321.438 C-40.708 317.7 -42.151 313.962 -43.596 310.224 C-46.197 303.491 -48.794 296.755 -51.391 290.02 C-59.872 268.023 -68.361 246.03 -76.919 224.063 C-82.474 209.803 -87.984 195.526 -93.493 181.249 C-93.845 180.337 -94.197 179.425 -94.56 178.486 C-95.22 176.776 -95.879 175.066 -96.539 173.356 C-98.003 169.561 -99.477 165.772 -101 162 C-101.66 162 -102.32 162 -103 162 Z M-219 286 C-219 286.99 -219 287.98 -219 289 C-218.01 288.67 -217.02 288.34 -216 288 C-216.33 287.34 -216.66 286.68 -217 286 C-217.66 286 -218.32 286 -219 286 Z M-211 286 C-211.33 286.99 -211.66 287.98 -212 289 C-211.361 289.268 -210.721 289.536 -210.062 289.812 C-208 291 -208 291 -207 294 C-205.635 294.675 -205.635 294.675 -204.242 295.363 C-200.636 297.184 -198.74 299.137 -196.125 302.188 C-195.344 303.089 -194.563 303.99 -193.758 304.918 C-193.178 305.605 -192.598 306.292 -192 307 C-194.542 306.209 -197.084 305.417 -199.625 304.625 C-200.694 304.292 -200.694 304.292 -201.785 303.953 C-202.488 303.734 -203.19 303.515 -203.914 303.289 C-204.957 302.967 -204.957 302.967 -206.021 302.638 C-207.789 302.068 -209.534 301.425 -211.273 300.773 C-214.064 299.982 -215.332 299.974 -218 301 C-211.369 304.141 -204.626 306.523 -197.648 308.754 C-192.26 310.594 -187.303 312.293 -183.062 316.188 C-182.183 316.982 -182.183 316.982 -181.285 317.793 C-180.861 318.191 -180.437 318.59 -180 319 C-180.934 312.885 -186.084 308.507 -190 304 C-190.453 303.477 -190.906 302.954 -191.373 302.416 C-199.3 293.201 -199.3 293.201 -209 286 C-209.66 286 -210.32 286 -211 286 Z M-213 315 C-209.199 319.48 -203.466 320.479 -198.062 322.25 C-196.416 322.815 -196.416 322.815 -194.736 323.391 C-193.68 323.741 -192.624 324.092 -191.535 324.453 C-190.57 324.774 -189.604 325.096 -188.61 325.427 C-185.937 326.014 -184.542 325.917 -182 325 C-184.42 322.58 -186.272 322.098 -189.523 321.055 C-190.627 320.7 -191.73 320.346 -192.867 319.98 C-194.025 319.616 -195.182 319.251 -196.375 318.875 C-198.1 318.316 -198.1 318.316 -199.859 317.746 C-206.301 315.645 -206.301 315.645 -213 315 Z M-178 321 C-178.33 322.98 -178.66 324.96 -179 327 C-177.855 327.371 -177.855 327.371 -176.688 327.75 C-173.738 329.122 -172.826 330.392 -171 333 C-170.34 333 -169.68 333 -169 333 C-169.617 329.616 -170.87 327.48 -172.938 324.75 C-173.462 324.044 -173.987 323.337 -174.527 322.609 C-175.013 322.078 -175.499 321.547 -176 321 C-176.66 321 -177.32 321 -178 321 Z M-206 330 C-205.67 330.66 -205.34 331.32 -205 332 C-204.34 332 -203.68 332 -203 332 C-203 331.34 -203 330.68 -203 330 C-203.99 330 -204.98 330 -206 330 Z M-197 333 C-197 333.99 -197 334.98 -197 336 C-193.7 336.66 -190.4 337.32 -187 338 C-187.33 337.01 -187.66 336.02 -188 335 C-190.106 334.194 -190.106 334.194 -192.562 333.812 C-193.389 333.654 -194.215 333.495 -195.066 333.332 C-195.704 333.222 -196.343 333.113 -197 333 Z M241 336 C240.67 339.3 240.34 342.6 240 346 C240.66 346 241.32 346 242 346 C242.66 343.03 243.32 340.06 244 337 C243.01 336.67 242.02 336.34 241 336 Z M218 346 C215.964 348.036 216.048 351.83 215.562 354.625 C214.841 358.771 214.079 362.743 212.84 366.773 C212.047 369.819 211.856 371.139 213 374 C217.711 365.877 220.356 356.447 220 347 C219.34 346.67 218.68 346.34 218 346 Z M193 354 C192.015 357.373 191.038 360.749 190.062 364.125 C189.785 365.076 189.507 366.028 189.221 367.008 C187.882 371.654 186.639 376.194 186 381 C186.99 381 187.98 381 189 381 C190.011 377.44 191.007 373.877 192 370.312 C192.286 369.305 192.572 368.298 192.867 367.26 C193.138 366.283 193.409 365.307 193.688 364.301 C194.065 362.958 194.065 362.958 194.449 361.587 C195.005 358.978 195.101 356.659 195 354 C194.34 354 193.68 354 193 354 Z M205 355 C204.714 355.862 204.428 356.725 204.133 357.613 C203.408 359.781 202.674 361.945 201.93 364.105 C201.582 365.123 201.234 366.14 200.875 367.188 C200.522 368.212 200.169 369.237 199.805 370.293 C198.858 373.009 198.858 373.009 199 376 C199.99 375.67 200.98 375.34 202 375 C204.794 368.629 207 362.001 207 355 C206.34 355 205.68 355 205 355 Z M-21 358 C-21.33 359.65 -21.66 361.3 -22 363 C-23.32 363 -24.64 363 -26 363 C-27.902 364.73 -27.902 364.73 -29 367 C-28.67 367.99 -28.34 368.98 -28 370 C-20.454 370.705 -20.454 370.705 -13.75 367.75 C-11.826 365.244 -11.826 365.244 -11.938 362.875 C-13.303 360.465 -14.596 359.373 -17 358 C-18.32 358 -19.64 358 -21 358 Z M-63 381 C-64.858 384.135 -65.201 386.375 -65 390 C-64.01 389.34 -63.02 388.68 -62 388 C-61.264 384.432 -61.264 384.432 -61 381 C-61.66 381 -62.32 381 -63 381 Z M-102 387 C-103.977 389.448 -105.538 392.199 -107.188 394.875 C-107.664 395.621 -108.14 396.368 -108.631 397.137 C-109.076 397.852 -109.522 398.568 -109.98 399.305 C-110.392 399.965 -110.803 400.624 -111.227 401.304 C-111.482 401.864 -111.737 402.423 -112 403 C-111.67 403.66 -111.34 404.32 -111 405 C-110.34 405 -109.68 405 -109 405 C-107.358 402.59 -105.85 400.197 -104.375 397.688 C-103.955 396.997 -103.535 396.307 -103.102 395.596 C-100.613 391.595 -100.613 391.595 -100 387 C-100.66 387 -101.32 387 -102 387 Z M-91 387 C-92.549 389.228 -94.037 391.467 -95.5 393.75 C-95.916 394.384 -96.333 395.018 -96.762 395.672 C-97.16 396.291 -97.558 396.909 -97.969 397.547 C-98.334 398.112 -98.7 398.678 -99.076 399.261 C-100.08 401.15 -100.564 402.913 -101 405 C-96.813 403.469 -95.116 400.756 -92.688 397.125 C-91.61 395.551 -91.61 395.551 -90.512 393.945 C-88.755 391.193 -88.755 391.193 -89.27 388.617 C-89.511 388.084 -89.752 387.55 -90 387 C-90.33 387 -90.66 387 -91 387 Z M-79 387 C-80.229 388.763 -81.409 390.561 -82.562 392.375 C-83.203 393.373 -83.844 394.37 -84.504 395.398 C-86.166 397.789 -86.166 397.789 -86 400 C-84.083 399.829 -84.083 399.829 -82 399 C-80.396 397.043 -80.396 397.043 -79.188 394.625 C-78.748 393.834 -78.308 393.042 -77.855 392.227 C-76.685 389.885 -76.685 389.885 -78 387 C-78.33 387 -78.66 387 -79 387 Z M193.48 426.391 C192.745 426.537 192.009 426.682 191.251 426.833 C189.69 427.144 188.129 427.456 186.569 427.771 C184.235 428.24 181.9 428.701 179.564 429.16 C161.821 431.796 161.821 431.796 146 439 C144.217 441.892 144.217 441.892 142.844 445.32 C142.574 445.938 142.305 446.557 142.027 447.193 C141.17 449.165 140.334 451.144 139.5 453.125 C130.708 473.672 130.708 473.672 128 477 C125.854 477.727 125.854 477.727 124 478 C124.557 477.054 125.114 476.108 125.688 475.133 C130.033 467.644 134.06 460.081 137.625 452.188 C137.979 451.417 138.334 450.647 138.699 449.854 C140.747 445.551 140.747 445.551 140 441 C137.264 441.878 134.538 442.776 131.812 443.688 C130.659 444.054 130.659 444.054 129.482 444.428 C123.925 446.312 119.921 448.403 117.03 453.816 C116.087 455.895 115.25 457.992 114.438 460.125 C114.16 460.821 113.882 461.517 113.596 462.234 C111.272 468.109 109.14 474.056 107 480 C112.706 480.35 118.406 480.602 124.12 480.769 C126.056 480.839 127.991 480.934 129.924 481.056 C139.729 481.661 147.814 482.028 155.509 475.256 C157.911 472.875 160.165 470.406 162.363 467.837 C165.105 464.76 168.183 462.059 171.25 459.312 C178.15 452.919 184.791 446.274 191.392 439.572 C194.843 436.082 198.282 432.697 202.062 429.562 C203.032 428.717 204.001 427.871 205 427 C205 426.34 205 425.68 205 425 C200.993 425 197.382 425.605 193.48 426.391 Z M-192.84 445.285 C-207.364 450.352 -222.073 454.302 -237 458 C-237 458.99 -237 459.98 -237 461 C-231.676 460.428 -226.742 459.525 -221.57 458.074 C-220.895 457.885 -220.22 457.696 -219.524 457.502 C-218.107 457.104 -216.69 456.703 -215.274 456.299 C-213.139 455.692 -211.002 455.096 -208.863 454.502 C-201.4 452.405 -194.113 450.117 -187 447 C-187 446.01 -187 445.02 -187 444 C-189.259 444 -190.712 444.527 -192.84 445.285 Z M-100 447 C-103.516 455.365 -106.483 463.911 -109.429 472.488 C-110.256 474.893 -111.093 477.294 -111.93 479.695 C-112.459 481.232 -112.988 482.768 -113.516 484.305 C-113.766 485.018 -114.015 485.732 -114.273 486.467 C-115.432 489.872 -116 492.356 -116 496 C-115.34 496 -114.68 496 -114 496 C-110.246 486.309 -106.732 476.536 -103.313 466.722 C-102.855 465.409 -102.395 464.097 -101.932 462.786 C-101.274 460.917 -100.625 459.044 -99.977 457.172 C-99.596 456.08 -99.215 454.988 -98.823 453.862 C-97.816 450.856 -97.816 450.856 -98 447 C-98.66 447 -99.32 447 -100 447 Z M90.945 459.758 C89.638 461.8 88.82 463.717 88 466 C87.317 467.539 87.317 467.539 86.621 469.109 C84.046 474.367 84.046 474.367 83 480 C89.27 480 95.54 480 102 480 C103.258 477.504 104.516 475.009 105.812 472.438 C106.203 471.666 106.593 470.894 106.995 470.099 C111.737 461.48 111.737 461.48 113 452 C106.07 452 96.294 455.182 90.945 459.758 Z M-170.387 472.285 C-171.906 472.705 -171.906 472.705 -173.455 473.134 C-174.522 473.44 -175.588 473.747 -176.688 474.062 C-177.786 474.376 -178.885 474.69 -180.018 475.013 C-187.072 477.063 -194.073 479.238 -201 481.688 C-201.8 481.96 -202.6 482.233 -203.425 482.514 C-205.864 483.367 -205.864 483.367 -209 485 C-209.757 487.041 -209.757 487.041 -210 489 C-205.351 488.288 -201.166 486.577 -196.812 484.875 C-187.517 481.307 -178.04 478.749 -168.37 476.398 C-167.297 476.127 -166.223 475.857 -165.117 475.578 C-163.673 475.229 -163.673 475.229 -162.199 474.872 C-161.473 474.584 -160.748 474.297 -160 474 C-159.67 473.01 -159.34 472.02 -159 471 C-163.061 470.878 -166.476 471.199 -170.387 472.285 Z M-146.332 494.355 C-147.367 494.646 -148.403 494.937 -149.469 495.236 C-150.573 495.55 -151.676 495.864 -152.812 496.188 C-165.439 499.696 -178.14 502.501 -191 505 C-191 505.99 -191 506.98 -191 508 C-183.445 507.376 -176.168 505.842 -168.791 504.154 C-166.769 503.692 -164.746 503.241 -162.723 502.791 C-149.007 499.942 -149.007 499.942 -136 495 C-136 494.34 -136 493.68 -136 493 C-139.724 492.854 -142.756 493.328 -146.332 494.355 Z M175 495 C175.63 499.743 176.948 504.027 178.617 508.488 C178.875 509.191 179.133 509.894 179.398 510.617 C180.219 512.851 181.047 515.082 181.875 517.312 C182.693 519.528 183.51 521.745 184.325 523.962 C184.849 525.384 185.374 526.806 185.902 528.227 C187.278 531.95 188.542 535.683 189.695 539.48 C190.126 540.642 190.556 541.803 191 543 C192.485 543.495 192.485 543.495 194 544 C193.243 539.358 191.729 535.081 190.164 530.664 C189.884 529.866 189.604 529.069 189.316 528.247 C188.724 526.564 188.13 524.881 187.535 523.199 C186.631 520.642 185.733 518.083 184.836 515.523 C184.258 513.883 183.68 512.242 183.102 510.602 C182.836 509.844 182.57 509.087 182.296 508.306 C180.694 503.788 178.934 499.386 177 495 C176.34 495 175.68 495 175 495 Z M-197.25 499 C-197.827 499.66 -198.405 500.32 -199 501 C-196.001 502.389 -196.001 502.389 -193.312 500.688 C-192.549 500.131 -191.786 499.574 -191 499 C-191 498.34 -191 497.68 -191 497 C-195.003 496.557 -195.003 496.557 -197.25 499 Z M-107 498 C-107.33 498.99 -107.66 499.98 -108 501 C-106.68 501 -105.36 501 -104 501 C-104 500.01 -104 499.02 -104 498 C-104.99 498 -105.98 498 -107 498 Z M164 503 C164.628 507.913 166.082 512.294 167.871 516.883 C168.153 517.62 168.436 518.356 168.727 519.115 C169.322 520.664 169.92 522.212 170.52 523.759 C171.436 526.122 172.345 528.489 173.252 530.855 C173.833 532.365 174.414 533.874 174.996 535.383 C175.402 536.439 175.402 536.439 175.817 537.517 C177.076 540.757 178.364 543.93 180 547 C180.66 547 181.32 547 182 547 C181.383 542.313 180.103 538.276 178.383 533.879 C178.125 533.216 177.867 532.553 177.602 531.87 C176.781 529.765 175.953 527.664 175.125 525.562 C174.576 524.156 174.028 522.749 173.48 521.342 C171.077 515.187 168.627 509.063 166 503 C165.34 503 164.68 503 164 503 Z M-145 507 C-145.33 507.99 -145.66 508.98 -146 510 C-135.32 509.47 -124.656 508.899 -114 508 C-114 507.34 -114 506.68 -114 506 C-117.479 505.971 -120.958 505.953 -124.438 505.938 C-125.411 505.929 -126.385 505.921 -127.389 505.912 C-133.348 505.892 -139.091 506.224 -145 507 Z M48.437 511.404 C46.217 511.438 43.997 511.472 41.777 511.505 C23.707 511.78 5.637 512.068 -12.432 512.441 C-14.319 512.48 -16.207 512.517 -18.094 512.554 C-28.758 512.765 -39.365 513.174 -50 514 C-48.557 518.395 -46.948 522.659 -45.188 526.938 C-42.478 533.585 -40.167 540.312 -37.98 547.148 C-37.279 549.868 -37.279 549.868 -36 551 C-34.438 551.087 -32.873 551.107 -31.309 551.098 C-30.364 551.094 -29.42 551.091 -28.447 551.088 C-26.957 551.075 -26.957 551.075 -25.438 551.062 C-24.44 551.058 -23.443 551.053 -22.416 551.049 C-19.944 551.037 -17.472 551.021 -15 551 C-15.665 543.904 -17.001 537.218 -18.715 530.311 C-18.984 529.173 -18.984 529.173 -19.258 528.012 C-19.507 526.998 -19.507 526.998 -19.762 525.964 C-20 524 -20 524 -19 520 C-16.69 530.23 -14.38 540.46 -12 551 C-7.38 551 -2.76 551 2 551 C1.366 543.693 0.298 536.579 -1.062 529.375 C-1.249 528.371 -1.435 527.367 -1.627 526.332 C-2.081 523.887 -2.539 521.443 -3 519 C-2.34 518.67 -1.68 518.34 -1 518 C-0.902 518.706 -0.804 519.413 -0.703 520.141 C0.814 530.551 2.926 540.628 5 551 C21.17 551 37.34 551 54 551 C51.679 542.353 51.679 542.353 48.957 533.895 C48.43 532.391 48.43 532.391 47.893 530.857 C47.536 529.853 47.18 528.848 46.812 527.812 C46.444 526.765 46.076 525.718 45.697 524.639 C44.802 522.091 43.902 519.545 43 517 C43.66 516.67 44.32 516.34 45 516 C45.261 516.903 45.261 516.903 45.527 517.825 C47.625 524.972 50.077 531.954 52.658 538.939 C52.96 539.781 53.263 540.622 53.574 541.488 C53.985 542.61 53.985 542.61 54.405 543.755 C55 546 55 546 55 551 C75.13 551 95.26 551 116 551 C117.687 547.626 115.778 544.194 114.727 540.746 C114.362 539.522 114.362 539.522 113.99 538.273 C113.473 536.546 112.954 534.821 112.431 533.096 C111.628 530.447 110.837 527.795 110.047 525.143 C109.545 523.469 109.042 521.795 108.539 520.121 C108.3 519.323 108.062 518.525 107.816 517.703 C106.945 514.063 106.945 514.063 105 511 C103.458 510.906 101.911 510.883 100.366 510.887 C98.866 510.888 98.866 510.888 97.335 510.89 C95.677 510.9 95.677 510.9 93.984 510.91 C92.248 510.916 92.248 510.916 90.476 510.922 C76.462 510.984 62.45 511.186 48.437 511.404 Z M-128 516 C-128 519.992 -127.35 522.837 -126.285 526.664 C-126.11 527.297 -125.935 527.931 -125.754 528.583 C-125.384 529.917 -125.012 531.25 -124.637 532.582 C-124.063 534.623 -123.497 536.667 -122.932 538.711 C-121.353 544.999 -121.353 544.999 -119 551 C-118.34 551 -117.68 551 -117 551 C-117.63 543.963 -119.391 537.455 -121.375 530.688 C-121.679 529.604 -121.983 528.521 -122.297 527.404 C-122.599 526.367 -122.9 525.33 -123.211 524.262 C-123.482 523.323 -123.753 522.384 -124.033 521.417 C-125.021 518.948 -125.987 517.698 -128 516 Z M-66 516 C-65.354 520.47 -64.287 524.623 -62.934 528.93 C-62.636 529.882 -62.636 529.882 -62.333 530.855 C-61.705 532.863 -61.071 534.869 -60.438 536.875 C-60.008 538.245 -59.579 539.614 -59.15 540.984 C-58.104 544.324 -57.054 547.663 -56 551 C-55.34 551 -54.68 551 -54 551 C-54.526 543.408 -56.436 536.751 -58.875 529.562 C-59.227 528.475 -59.579 527.388 -59.941 526.268 C-60.462 524.714 -60.462 524.714 -60.992 523.129 C-61.305 522.191 -61.618 521.253 -61.941 520.287 C-62.903 517.688 -62.903 517.688 -66 516 Z M-144 517 C-145.333 520.999 -144.287 522.678 -142.875 526.625 C-140.812 532.519 -138.929 538.44 -137.188 544.438 C-136.969 545.189 -136.75 545.941 -136.525 546.715 C-136.014 548.476 -135.507 550.238 -135 552 C-134.01 552 -133.02 552 -132 552 C-133.1 548.02 -134.206 544.041 -135.312 540.062 C-135.621 538.946 -135.93 537.829 -136.248 536.678 C-138.861 527.255 -138.861 527.255 -142 518 C-142.66 517.67 -143.32 517.34 -144 517 Z M-110 517 C-111.37 519.74 -110.43 521.265 -109.512 524.055 C-109.166 525.079 -109.166 525.079 -108.812 526.125 C-106.133 534.328 -103.997 542.609 -102 551 C-101.01 551 -100.02 551 -99 551 C-100.37 543.294 -102.385 535.869 -104.625 528.375 C-104.95 527.275 -105.275 526.176 -105.609 525.043 C-106.402 522.361 -107.199 519.68 -108 517 C-108.66 517 -109.32 517 -110 517 Z M-196 518 C-195.48 525.002 -194.345 531.634 -192.625 538.438 C-192.416 539.321 -192.207 540.205 -191.992 541.115 C-191.781 541.963 -191.569 542.81 -191.352 543.684 C-191.164 544.442 -190.977 545.201 -190.784 545.982 C-189.902 548.253 -188.824 549.415 -187 551 C-187.616 543.579 -189.192 536.636 -191.062 529.438 C-191.485 527.781 -191.485 527.781 -191.916 526.092 C-192.605 523.393 -193.3 520.696 -194 518 C-194.66 518 -195.32 518 -196 518 Z M-162 518 C-160.668 525.564 -158.667 532.801 -156.375 540.125 C-156.05 541.177 -155.725 542.229 -155.391 543.312 C-154.598 545.876 -153.801 548.439 -153 551 C-152.34 551 -151.68 551 -151 551 C-151.73 544.189 -153.554 537.716 -155.375 531.125 C-155.679 529.973 -155.983 528.82 -156.297 527.633 C-156.599 526.54 -156.9 525.447 -157.211 524.32 C-157.618 522.824 -157.618 522.824 -158.033 521.297 C-158.512 520.16 -158.512 520.16 -159 519 C-159.99 518.67 -160.98 518.34 -162 518 Z M-211 521 C-210.376 525.233 -209.426 529.19 -208.152 533.273 C-207.795 534.427 -207.437 535.581 -207.068 536.77 C-206.695 537.959 -206.322 539.149 -205.938 540.375 C-205.56 541.588 -205.183 542.801 -204.795 544.051 C-203.867 547.035 -202.935 550.018 -202 553 C-201.01 552.67 -200.02 552.34 -199 552 C-200.261 547.906 -201.525 543.812 -202.79 539.72 C-203.221 538.327 -203.65 536.934 -204.079 535.541 C-204.696 533.54 -205.314 531.539 -205.934 529.539 C-206.305 528.335 -206.677 527.13 -207.06 525.889 C-207.889 523.098 -207.889 523.098 -209 521 C-209.66 521 -210.32 521 -211 521 Z M-47 542 C-48.255 545.766 -47.371 547.372 -46 551 C-45.34 551 -44.68 551 -44 551 C-44.33 548.03 -44.66 545.06 -45 542 C-45.66 542 -46.32 542 -47 542 Z " fill="#000000" transform="translate(411,184)"/>
<path d="M0 0 C7.75 -0.125 7.75 -0.125 10 1 C9.67 2.32 9.34 3.64 9 5 C4.545 4.01 4.545 4.01 0 3 C0 2.01 0 1.02 0 0 Z " fill="#000000" transform="translate(550,184)"/>
<path d="M0 0 C0.66 0.33 1.32 0.66 2 1 C2 1.99 2 2.98 2 4 C0.02 4.33 -1.96 4.66 -4 5 C-4 4.01 -4 3.02 -4 2 C-2.125 0.938 -2.125 0.938 0 0 Z " fill="#000000" transform="translate(542,185)"/>
<path d="M0 0 C0.66 0.33 1.32 0.66 2 1 C2 1.99 2 2.98 2 4 C0.35 4.33 -1.3 4.66 -3 5 C-2.625 3.062 -2.625 3.062 -2 1 C-1.34 0.67 -0.68 0.34 0 0 Z " fill="#000000" transform="translate(423,194)"/>
<path d="M0 0 C0.66 0 1.32 0 2 0 C2.903 5.275 3.071 10.218 2.879 15.559 C2.855 16.348 2.832 17.137 2.807 17.95 C2.731 20.446 2.647 22.942 2.562 25.438 C2.509 27.14 2.456 28.842 2.404 30.545 C2.276 34.697 2.14 38.848 2 43 C0.68 43 -0.64 43 -2 43 C-2.126 32.822 -1.946 22.672 -1.562 12.5 C-1.523 11.384 -1.484 10.268 -1.444 9.117 C-1.402 8.078 -1.36 7.039 -1.316 5.969 C-1.28 5.035 -1.243 4.101 -1.205 3.139 C-1 1 -1 1 0 0 Z " fill="#000000" transform="translate(258,197)"/>
<path d="M0 0 C2.64 0.33 5.28 0.66 8 1 C8.33 1.99 8.66 2.98 9 4 C5.7 3.34 2.4 2.68 -1 2 C-0.67 1.34 -0.34 0.68 0 0 Z " fill="#000000" transform="translate(446,215)"/>
<path d="M0 0 C0.99 0 1.98 0 3 0 C2.67 3.3 2.34 6.6 2 10 C1.01 10 0.02 10 -1 10 C-1.027 8.521 -1.046 7.042 -1.062 5.562 C-1.074 4.739 -1.086 3.915 -1.098 3.066 C-1 1 -1 1 0 0 Z " fill="#000000" transform="translate(292,218)"/>
<path d="M0 0 C1.65 0 3.3 0 5 0 C5.33 1.32 5.66 2.64 6 4 C4.35 3.67 2.7 3.34 1 3 C0.67 2.01 0.34 1.02 0 0 Z " fill="#000000" transform="translate(461,218)"/>
<path d="M0 0 C2.5 2.188 2.5 2.188 4 5 C4.087 9.169 3.305 10.648 0.562 13.812 C-3.448 17.236 -5.743 17.272 -11 17 C-13.312 16.375 -13.312 16.375 -15 15 C-16.438 12.25 -16.438 12.25 -17 9 C-15.521 4.809 -13.83 2.274 -10 0 C-6.167 -1.278 -3.913 -0.961 0 0 Z M-11.375 6.5 C-11.911 7.325 -12.447 8.15 -13 9 C-11.333 12.13 -11.333 12.13 -8.688 12.875 C-5.272 13.034 -3.736 11.954 -1 10 C-1.379 6.709 -1.379 6.709 -3 4 C-7.144 3.447 -8.422 3.392 -11.375 6.5 Z " fill="#000000" transform="translate(240,232)"/>
<path d="M0 0 C0.66 0.33 1.32 0.66 2 1 C0.563 4.358 -1.21 6.4 -3.938 8.812 C-4.627 9.438 -5.317 10.063 -6.027 10.707 C-7.004 11.347 -7.004 11.347 -8 12 C-8.99 11.67 -9.98 11.34 -11 11 C-7.619 6.864 -4.334 3.187 0 0 Z " fill="#000000" transform="translate(681,232)"/>
<path d="M0 0 C0.99 0.66 1.98 1.32 3 2 C2.01 7.61 1.02 13.22 0 19 C-1.32 19.33 -2.64 19.66 -4 20 C-5.529 16.009 -4.536 12.347 -3.688 8.312 C-3.557 7.623 -3.426 6.934 -3.291 6.225 C-2.933 4.467 -2.474 2.73 -2 1 C-1.34 0.67 -0.68 0.34 0 0 Z " fill="#000000" transform="translate(213,248)"/>
<path d="M0 0 C0.99 0.33 1.98 0.66 3 1 C-1.548 6.598 -6.523 11.314 -12 16 C-12.99 15.67 -13.98 15.34 -15 15 C-10.452 9.402 -5.477 4.686 0 0 Z " fill="#000000" transform="translate(662,249)"/>
<path d="M0 0 C0.66 0.33 1.32 0.66 2 1 C2.33 8.92 2.66 16.84 3 25 C2.01 25 1.02 25 0 25 C-0.196 21.021 -0.38 17.042 -0.562 13.062 C-0.619 11.926 -0.675 10.79 -0.732 9.619 C-0.781 8.54 -0.829 7.46 -0.879 6.348 C-0.926 5.347 -0.973 4.347 -1.022 3.317 C-1 1 -1 1 0 0 Z " fill="#000000" transform="translate(427,262)"/>
<path d="M0 0 C0.99 0 1.98 0 3 0 C2.446 3.677 1.164 5.062 -1.688 7.375 C-5.336 10.419 -8.683 13.6 -12 17 C-12.99 16.67 -13.98 16.34 -15 16 C-13.405 11.777 -10.233 9.223 -6.938 6.312 C-6.383 5.814 -5.828 5.316 -5.256 4.803 C-3.84 3.532 -2.42 2.266 -1 1 C-0.67 0.67 -0.34 0.34 0 0 Z " fill="#000000" transform="translate(638,271)"/>
<path d="M0 0 C-0.062 1.75 -0.062 1.75 -1 4 C-3.7 6.008 -6.551 8 -10 8 C-9.938 6.25 -9.938 6.25 -9 4 C-6.3 1.992 -3.449 0 0 0 Z " fill="#000000" transform="translate(679,277)"/>
<path d="M0 0 C0.99 0.33 1.98 0.66 3 1 C1.859 4.423 0.999 5.148 -2 7 C-2.99 7 -3.98 7 -5 7 C-4.619 4.237 -4.164 3.159 -2.125 1.188 C-1.424 0.796 -0.723 0.404 0 0 Z " fill="#000000" transform="translate(337,284)"/>
<path d="M0 0 C0 1.32 0 2.64 0 4 C-1.405 5.324 -1.405 5.324 -3.359 6.473 C-4.063 6.897 -4.767 7.322 -5.492 7.76 C-6.237 8.19 -6.982 8.62 -7.75 9.062 C-9.204 9.927 -10.657 10.793 -12.109 11.66 C-12.792 12.062 -13.475 12.464 -14.179 12.878 C-16.143 14.045 -16.143 14.045 -18.375 15.828 C-20 17 -20 17 -22.25 16.688 C-22.827 16.461 -23.405 16.234 -24 16 C-19.92 11.545 -15.397 8.418 -10.312 5.188 C-9.541 4.685 -8.769 4.183 -7.975 3.666 C-2.264 0 -2.264 0 0 0 Z " fill="#000000" transform="translate(664,286)"/>
<path d="M0 0 C0.66 0 1.32 0 2 0 C2.982 6.807 3.319 13.568 3.562 20.438 C3.605 21.579 3.647 22.72 3.691 23.896 C4.007 32.934 4.113 41.957 4 51 C3.01 51 2.02 51 1 51 C0.17 33.989 -0.136 17.03 0 0 Z " fill="#000000" transform="translate(428,301)"/>
<path d="M0 0 C2.062 0.438 2.062 0.438 4 1 C4.196 4.125 4.381 7.25 4.562 10.375 C4.619 11.264 4.675 12.154 4.732 13.07 C4.781 13.921 4.829 14.772 4.879 15.648 C4.926 16.434 4.973 17.219 5.022 18.029 C5 20 5 20 4 22 C2.35 21.67 0.7 21.34 -1 21 C-1.029 17.688 -1.047 14.375 -1.062 11.062 C-1.071 10.117 -1.079 9.171 -1.088 8.197 C-1.091 7.298 -1.094 6.399 -1.098 5.473 C-1.103 4.64 -1.108 3.807 -1.114 2.949 C-1 1 -1 1 0 0 Z " fill="#000000" transform="translate(502,311)"/>
<path d="M0 0 C0.99 0 1.98 0 3 0 C1.68 5.28 0.36 10.56 -1 16 C-1.99 15.67 -2.98 15.34 -4 15 C-2.68 10.05 -1.36 5.1 0 0 Z " fill="#000000" transform="translate(533,317)"/>
<path d="M0 0 C1.32 0 2.64 0 4 0 C3.49 4.389 2.478 7.337 0 11 C-1.32 10.34 -2.64 9.68 -4 9 C-2.941 5.597 -1.991 2.986 0 0 Z " fill="#000000" transform="translate(215,326)"/>
<path d="M0 0 C0.66 0 1.32 0 2 0 C1.67 2.64 1.34 5.28 1 8 C0.01 8.33 -0.98 8.66 -2 9 C-1.125 1.125 -1.125 1.125 0 0 Z " fill="#000000" transform="translate(528,339)"/>
<path d="M0 0 C1.98 0.495 1.98 0.495 4 1 C4 7.93 4 14.86 4 22 C2.35 21.67 0.7 21.34 -1 21 C-1.029 17.688 -1.047 14.375 -1.062 11.062 C-1.071 10.117 -1.079 9.171 -1.088 8.197 C-1.091 7.298 -1.094 6.399 -1.098 5.473 C-1.103 4.64 -1.108 3.807 -1.114 2.949 C-1 1 -1 1 0 0 Z " fill="#000000" transform="translate(349,353)"/>
<path d="M0 0 C0.66 0 1.32 0 2 0 C1.428 6.097 0.466 11.831 -1.066 17.754 C-1.364 18.933 -1.364 18.933 -1.667 20.137 C-2.294 22.613 -2.928 25.088 -3.562 27.562 C-3.992 29.256 -4.421 30.949 -4.85 32.643 C-5.893 36.763 -6.945 40.882 -8 45 C-8.99 45 -9.98 45 -11 45 C-9.614 36.422 -7.615 28.025 -5.486 19.608 C-4.931 17.411 -4.382 15.213 -3.834 13.014 C-1.14 2.28 -1.14 2.28 0 0 Z " fill="#000000" transform="translate(524,354)"/>
<path d="M0 0 C0.66 0 1.32 0 2 0 C3.102 4.506 3.218 8.969 3.316 13.582 C3.337 14.396 3.358 15.21 3.379 16.049 C3.444 18.637 3.504 21.225 3.562 23.812 C3.606 25.572 3.649 27.332 3.693 29.092 C3.8 33.394 3.902 37.697 4 42 C3.01 42 2.02 42 1 42 C-0.311 28.019 -0.099 14.028 0 0 Z " fill="#000000" transform="translate(430,360)"/>
<path d="M0 0 C1.65 0.33 3.3 0.66 5 1 C5.087 4.292 5.14 7.583 5.188 10.875 C5.213 11.812 5.238 12.749 5.264 13.715 C5.278 15.059 5.278 15.059 5.293 16.43 C5.309 17.257 5.324 18.085 5.341 18.937 C5.228 19.618 5.116 20.299 5 21 C4.01 21.66 3.02 22.32 2 23 C1.34 22.67 0.68 22.34 0 22 C-1.17 17.987 -1.134 14.031 -1.125 9.875 C-1.128 8.656 -1.13 7.436 -1.133 6.18 C-1 3 -1 3 0 0 Z " fill="#000000" transform="translate(600,363)"/>
<path d="M0 0 C3.247 1.889 5.372 3.283 6.695 6.902 C7.344 10.496 7.063 12.804 5.938 16.312 C3.548 19.626 1.88 20.732 -2 22 C-6.536 22 -8.394 21.514 -11.875 18.562 C-15.209 14.542 -15.354 12.225 -15 7 C-13.76 4.211 -12.715 2.556 -10.312 0.688 C-6.807 -0.355 -3.581 -0.653 0 0 Z M-7 7 C-7.864 8.781 -7.864 8.781 -8 11 C-6.417 13.417 -6.417 13.417 -4 15 C-1.781 14.864 -1.781 14.864 0 14 C-0.33 11.69 -0.66 9.38 -1 7 C-2.98 7 -4.96 7 -7 7 Z " fill="#000000" transform="translate(470,375)"/>
<path d="M0 0 C3.43 3.065 4.814 4.957 5.625 9.5 C4.814 14.043 3.43 15.935 0 19 C-4.143 20.281 -6.23 20.276 -10.312 18.812 C-14.124 16.242 -14.124 16.242 -15 13 C-15.779 5.989 -15.779 5.989 -12.688 2.062 C-8.259 -1.336 -5.334 -1.38 0 0 Z M-7 5 C-8.196 7.837 -8.196 7.837 -9 11 C-8.01 12.485 -8.01 12.485 -7 14 C-4.5 14.417 -4.5 14.417 -2 14 C0.333 12.109 0.333 12.109 0.188 8.938 C0.332 6.112 0.332 6.112 -1 5 C-3 4.959 -5 4.957 -7 5 Z " fill="#000000" transform="translate(223,389)"/>
<path d="M0 0 C0.66 0.33 1.32 0.66 2 1 C1.746 2.482 1.471 3.961 1.188 5.438 C1.037 6.261 0.886 7.085 0.73 7.934 C0.489 8.616 0.248 9.297 0 10 C-0.99 10.33 -1.98 10.66 -3 11 C-2.25 3.375 -2.25 3.375 0 0 Z " fill="#000000" transform="translate(512,405)"/>
<path d="M0 0 C0.99 0.33 1.98 0.66 3 1 C3.711 15.012 4.147 28.97 4 43 C3.34 43 2.68 43 2 43 C0.788 40.576 0.796 38.861 0.684 36.152 C0.642 35.162 0.6 34.171 0.556 33.15 C0.517 32.09 0.478 31.03 0.438 29.938 C0.395 28.863 0.353 27.789 0.309 26.682 C-0.02 17.784 -0.109 8.902 0 0 Z " fill="#000000" transform="translate(432,417)"/>
<path d="M0 0 C0.99 0.33 1.98 0.66 3 1 C1.453 7.212 -0.095 13.423 -1.645 19.634 C-2.172 21.748 -2.699 23.861 -3.225 25.975 C-3.981 29.011 -4.738 32.046 -5.496 35.082 C-5.732 36.029 -5.967 36.976 -6.21 37.952 C-6.43 38.832 -6.65 39.713 -6.877 40.62 C-7.07 41.395 -7.263 42.17 -7.462 42.969 C-7.911 44.664 -8.445 46.336 -9 48 C-9.99 47.67 -10.98 47.34 -12 47 C-10.455 40.627 -8.906 34.255 -7.355 27.884 C-6.828 25.715 -6.301 23.546 -5.775 21.377 C-5.02 18.264 -4.262 15.151 -3.504 12.039 C-3.268 11.065 -3.033 10.091 -2.79 9.088 C-2.57 8.187 -2.35 7.286 -2.123 6.358 C-1.93 5.563 -1.737 4.768 -1.538 3.949 C-1 2 -1 2 0 0 Z " fill="#000000" transform="translate(507,422)"/>
<path d="M0 0 C1.32 0.33 2.64 0.66 4 1 C4 6.61 4 12.22 4 18 C2.35 18.33 0.7 18.66 -1 19 C-2.673 7.498 -2.673 7.498 -2 2 C-1.34 1.34 -0.68 0.68 0 0 Z " fill="#000000" transform="translate(289,440)"/>
<path d="M0 0 C0.99 0 1.98 0 3 0 C3 5.61 3 11.22 3 17 C2.34 17.33 1.68 17.66 1 18 C-0.206 14.381 -0.108 11.075 -0.062 7.312 C-0.058 6.611 -0.053 5.909 -0.049 5.186 C-0.037 3.457 -0.019 1.728 0 0 Z " fill="#000000" transform="translate(434,467)"/>
<path d="M0 0 C0 0.99 0 1.98 0 3 C-8.415 3.495 -8.415 3.495 -17 4 C-17 3.34 -17 2.68 -17 2 C-15.105 1.662 -13.209 1.329 -11.312 1 C-9.729 0.722 -9.729 0.722 -8.113 0.438 C-5.351 0.049 -2.783 -0.083 0 0 Z " fill="#000000" transform="translate(566,493)"/>
<path d="M0 0 C0 0.99 0 1.98 0 3 C-3.473 4.158 -6.361 4.069 -10 4 C-10 3.34 -10 2.68 -10 2 C-6.38 0.684 -3.904 0 0 0 Z " fill="#000000" transform="translate(543,496)"/>
<path d="M0 0 C0 0.99 0 1.98 0 3 C-1.645 4.246 -1.645 4.246 -3.812 5.438 C-7.031 7.307 -8.847 8.94 -11 12 C-11.99 12 -12.98 12 -14 12 C-12.394 6.38 -8.681 3.564 -3.75 0.688 C-2 0 -2 0 0 0 Z " fill="#000000" transform="translate(496,499)"/>
<path d="M0 0 C1.32 0.33 2.64 0.66 4 1 C4.33 2.32 4.66 3.64 5 5 C3.68 4.67 2.36 4.34 1 4 C0.67 2.68 0.34 1.36 0 0 Z " fill="#000000" transform="translate(523,500)"/>
<path d="M0 0 C0.99 0.33 1.98 0.66 3 1 C4.201 3.69 5.228 6.288 6.188 9.062 C6.46 9.821 6.733 10.58 7.014 11.361 C7.686 13.237 8.344 15.118 9 17 C6 16 6 16 4.395 12.91 C3.856 11.632 3.329 10.349 2.812 9.062 C2.54 8.416 2.267 7.77 1.986 7.104 C0 2.309 0 2.309 0 0 Z " fill="#000000" transform="translate(593,501)"/>
<path d="M0 0 C3 2 3 2 3.688 4.125 C3.791 4.744 3.894 5.363 4 6 C2.68 6 1.36 6 0 6 C-0.382 4.344 -0.714 2.675 -1 1 C-0.67 0.67 -0.34 0.34 0 0 Z " fill="#000000" transform="translate(515,502)"/>
<path d="M0 0 C0.99 0.33 1.98 0.66 3 1 C3.643 8.075 1.827 12.095 -2 18 C-2.99 18 -3.98 18 -5 18 C-3.19 13.345 -3.19 13.345 -1.969 11.125 C-0.891 8.761 -0.603 6.83 -0.375 4.25 C-0.263 3.051 -0.263 3.051 -0.148 1.828 C-0.099 1.225 -0.05 0.622 0 0 Z " fill="#000000" transform="translate(686,519)"/>
<path d="M0 0 C1.98 0.495 1.98 0.495 4 1 C4 6.94 4 12.88 4 19 C2.68 19.33 1.36 19.66 0 20 C-1.522 18.478 -1.13 17.118 -1.133 15 C-1.134 14.196 -1.135 13.391 -1.137 12.562 C-1.133 11.717 -1.129 10.871 -1.125 10 C-1.129 9.154 -1.133 8.309 -1.137 7.438 C-1.135 6.231 -1.135 6.231 -1.133 5 C-1.132 4.258 -1.131 3.515 -1.129 2.75 C-1 1 -1 1 0 0 Z " fill="#000000" transform="translate(453,521)"/>
<path d="M0 0 C4.62 0 9.24 0 14 0 C13.67 0.99 13.34 1.98 13 3 C8.71 3 4.42 3 0 3 C0 2.01 0 1.02 0 0 Z " fill="#000000" transform="translate(271,527)"/>
<path d="M0 0 C2.208 -0.027 4.417 -0.046 6.625 -0.062 C7.855 -0.074 9.085 -0.086 10.352 -0.098 C13.677 -0.009 16.74 0.363 20 1 C20 1.66 20 2.32 20 3 C17.792 3.027 15.583 3.046 13.375 3.062 C12.145 3.074 10.915 3.086 9.648 3.098 C6.323 3.009 3.26 2.637 0 2 C0 1.34 0 0.68 0 0 Z " fill="#000000" transform="translate(290,527)"/>
<path d="M0 0 C0.99 0 1.98 0 3 0 C3 1.98 3 3.96 3 6 C2.01 6 1.02 6 0 6 C0 4.02 0 2.04 0 0 Z " fill="#000000" transform="translate(242,528)"/>
<path d="M0 0 C1.98 0 3.96 0 6 0 C6 0.99 6 1.98 6 3 C4.02 3 2.04 3 0 3 C0 2.01 0 1.02 0 0 Z " fill="#000000" transform="translate(259,528)"/>
<path d="M0 0 C2.31 0.33 4.62 0.66 7 1 C7 4.63 7 8.26 7 12 C7.66 12.33 8.32 12.66 9 13 C8.988 12.374 8.977 11.747 8.965 11.102 C8.956 10.284 8.947 9.467 8.938 8.625 C8.926 7.813 8.914 7.001 8.902 6.164 C9 4 9 4 10 2 C11.65 2.33 13.3 2.66 15 3 C15 4.98 15 6.96 15 9 C17.331 8.041 17.331 8.041 19 5 C21.109 6.158 23.212 7.326 25.312 8.5 C25.888 8.815 26.464 9.129 27.057 9.453 C33.046 12.82 38.497 16.899 44 21 C43.495 24.93 42.98 28.858 42.456 32.786 C42.194 34.765 41.94 36.745 41.686 38.725 C40.662 46.353 39.276 53.643 37 61 C29.784 58.194 29.784 58.194 27 55 C26.877 51.9 27.347 49.024 28 46 C27.34 46 26.68 46 26 46 C25.67 48.31 25.34 50.62 25 53 C21.597 51.941 18.986 50.991 16 49 C15.751 45.927 15.751 45.927 15.926 42.023 C15.952 41.338 15.979 40.653 16.006 39.947 C16.094 37.755 16.203 35.566 16.312 33.375 C16.376 31.891 16.438 30.406 16.498 28.922 C16.649 25.28 16.82 21.64 17 18 C16.34 18 15.68 18 15 18 C15.023 19.088 15.046 20.176 15.07 21.297 C15.199 30.13 14.763 38.296 13 47 C9.04 45.02 5.08 43.04 1 41 C0.32 27.322 -0.154 13.696 0 0 Z " fill="#000000" transform="translate(158,528)"/>
<path d="M0 0 C1.175 1.41 2.344 2.827 3.465 4.281 C5.748 6.838 8.486 8.617 11.328 10.508 C13.298 12.266 13.625 13.428 14 16 C11 17 11 17 8.695 15.961 C-3.702 8.311 -3.702 8.311 -6 1 C-3 0 -3 0 0 0 Z " fill="#000000" transform="translate(215,533)"/>
<path d="M0 0 C-0.336 3.135 -1.027 4.025 -3.375 6.25 C-6 8 -6 8 -9 8 C-7.474 4.115 -4.498 0 0 0 Z " fill="#000000" transform="translate(678,541)"/>
<path d="M0 0 C3.025 1.413 5.67 3.019 8.312 5.062 C9.031 5.59 9.749 6.117 10.488 6.66 C12.915 10.416 11.807 13.761 11 18 C10.844 18.859 10.689 19.718 10.528 20.602 C10.026 23.262 9.488 25.912 8.938 28.562 C8.751 29.476 8.565 30.389 8.373 31.33 C7.919 33.554 7.461 35.777 7 38 C7.66 38 8.32 38 9 38 C10.65 29.42 12.3 20.84 14 12 C17.429 13.715 18.822 14.599 21.277 17.266 C22.172 18.23 22.172 18.23 23.084 19.215 C23.696 19.886 24.307 20.558 24.938 21.25 C25.849 22.234 25.849 22.234 26.779 23.238 C27.976 24.537 29.161 25.845 30.333 27.165 C31.947 28.989 31.947 28.989 33.608 30.515 C35.592 32.493 36.974 34.121 37.058 36.991 C36.697 39.312 36.149 41.492 35.5 43.75 C35.297 44.543 35.095 45.335 34.886 46.152 C34.29 48.445 33.654 50.723 33 53 C32.528 54.682 32.528 54.682 32.047 56.398 C31.4 58.613 30.726 60.81 30 63 C30.99 63 31.98 63 33 63 C33.098 62.392 33.196 61.783 33.297 61.156 C34.748 52.651 36.843 44.347 39 36 C43.221 37.36 47.068 38.94 51 41 C50.434 52.703 46.777 63.968 43 75 C46.182 71.447 47.304 67.435 48.562 62.938 C48.779 62.185 48.995 61.433 49.218 60.658 C50.855 54.833 52.133 48.993 53 43 C59.119 43.567 64.324 46.107 69.875 48.562 C70.85 48.987 71.824 49.412 72.828 49.85 C75.221 50.894 77.612 51.944 80 53 C79.423 58.083 78.297 62.453 76.531 67.289 C76.291 67.955 76.051 68.622 75.803 69.308 C75.042 71.416 74.271 73.521 73.5 75.625 C72.73 77.737 71.961 79.849 71.197 81.963 C70.505 83.876 69.806 85.787 69.107 87.698 C68.175 90.478 67.484 93.114 67 96 C69.72 93.28 70.529 90.107 71.75 86.543 C72.009 85.803 72.268 85.063 72.534 84.301 C73.362 81.931 74.181 79.56 75 77.188 C75.821 74.827 76.643 72.466 77.466 70.107 C77.977 68.638 78.487 67.169 78.995 65.699 C80.245 62.095 81.546 58.527 83 55 C87.053 56.225 90.444 57.699 94 60 C93.309 64.476 91.701 68.459 90 72.625 C85.1 84.884 81.091 97.454 77 110 C74 110 74 110 72.668 108.742 C72.179 108.126 71.691 107.51 71.188 106.875 C67.542 102.504 63.598 98.506 59.562 94.5 C58.923 93.864 58.283 93.229 57.624 92.574 C56.085 91.047 54.543 89.523 53 88 C54.98 82.39 56.96 76.78 59 71 C55.837 72.581 55.569 75.326 54.375 78.562 C53.706 80.359 53.706 80.359 53.023 82.191 C52.686 83.118 52.348 84.045 52 85 C47.919 83.318 44.888 80.448 41.625 77.562 C36.829 73.382 31.966 69.336 26.938 65.438 C24.623 63.628 22.311 61.815 20 60 C19.38 59.516 18.761 59.032 18.123 58.533 C16.277 57.079 14.449 55.605 12.625 54.125 C12.059 53.685 11.493 53.244 10.91 52.791 C8.311 50.651 7.074 49.593 6.648 46.18 C6.764 45.46 6.88 44.741 7 44 C6.34 44 5.68 44 5 44 C5 44.66 5 45.32 5 46 C1.847 45.393 -0.189 44.358 -2.75 42.438 C-3.364 41.982 -3.977 41.527 -4.609 41.059 C-5.298 40.535 -5.298 40.535 -6 40 C-5.45 33.07 -4.404 26.323 -3.164 19.491 C-1.988 13.01 -0.963 6.516 0 0 Z M18 43 C17.67 45.97 17.34 48.94 17 52 C17.66 52 18.32 52 19 52 C19.66 49.36 20.32 46.72 21 44 C20.01 43.67 19.02 43.34 18 43 Z " fill="#000000" transform="translate(204,552)"/>
<path d="M0 0 C-1.393 3.377 -2.823 4.871 -5.938 6.75 C-6.972 7.392 -6.972 7.392 -8.027 8.047 C-10 9 -10 9 -13 9 C-11.738 5.214 -10.451 4.782 -7.062 2.812 C-6.167 2.283 -5.271 1.753 -4.348 1.207 C-2 0 -2 0 0 0 Z " fill="#000000" transform="translate(665,552)"/>
<path d="M0 0 C0.99 0.33 1.98 0.66 3 1 C1.717 3.862 0.469 6.025 -2 8 C-2.99 8 -3.98 8 -5 8 C-3.628 5.046 -2.011 2.56 0 0 Z " fill="#000000" transform="translate(375,571)"/>
<path d="M0 0 C-1 3 -1 3 -4 5 C-5.32 5 -6.64 5 -8 5 C-8 4.34 -8 3.68 -8 3 C-5.095 0.958 -3.599 0 0 0 Z " fill="#000000" transform="translate(367,581)"/>
<path d="M0 0 C1.98 0.495 1.98 0.495 4 1 C4 5.62 4 10.24 4 15 C2.35 15.33 0.7 15.66 -1 16 C-1.027 13.521 -1.047 11.042 -1.062 8.562 C-1.075 7.502 -1.075 7.502 -1.088 6.42 C-1.097 4.613 -1.052 2.806 -1 1 C-0.67 0.67 -0.34 0.34 0 0 Z " fill="#000000" transform="translate(546,581)"/>
<path d="M0 0 C0 0.99 0 1.98 0 3 C-1.746 3.843 -3.497 4.674 -5.25 5.5 C-6.225 5.964 -7.199 6.428 -8.203 6.906 C-11 8 -11 8 -15 8 C-15 7.34 -15 6.68 -15 6 C-12.877 4.995 -10.752 3.996 -8.625 3 C-7.442 2.443 -6.258 1.886 -5.039 1.312 C-2 0 -2 0 0 0 Z " fill="#000000" transform="translate(355,587)"/>
<path d="M0 0 C2.639 2.165 3.757 3.755 4.414 7.121 C4.674 11.181 4.339 14.207 1.938 17.562 C-1 20 -1 20 -4.5 20.688 C-8 20 -8 20 -10.938 18.125 C-13.819 13.759 -13.929 10.095 -13 5 C-9.367 -0.934 -6.687 -1.614 0 0 Z M-5 6 C-7.268 7.833 -7.268 7.833 -7.188 10.562 C-7.27 12.947 -7.27 12.947 -6 14 C-3.5 14.167 -3.5 14.167 -1 14 C0.356 12.875 0.356 12.875 0.062 9.938 C0.042 8.968 0.021 7.999 0 7 C-2.397 6.32 -2.397 6.32 -5 6 Z " fill="#000000" transform="translate(492,590)"/>
<path d="M0 0 C0.66 0 1.32 0 2 0 C2.66 4.62 3.32 9.24 4 14 C3.01 14 2.02 14 1 14 C0.639 11.855 0.286 9.709 -0.062 7.562 C-0.26 6.368 -0.457 5.173 -0.66 3.941 C-0.828 2.485 -0.828 2.485 -1 1 C-0.67 0.67 -0.34 0.34 0 0 Z " fill="#000000" transform="translate(437,606)"/>
<path d="M0 0 C0.66 0 1.32 0 2 0 C1.587 6.499 0.524 12.668 -0.938 19 C-1.107 19.754 -1.277 20.508 -1.452 21.285 C-2.755 26.755 -2.755 26.755 -5 29 C-6.32 29 -7.64 29 -9 29 C-7.924 22.985 -6.578 17.044 -5.062 11.125 C-4.744 9.869 -4.426 8.614 -4.098 7.32 C-3.084 4.254 -2.225 2.312 0 0 Z " fill="#000000" transform="translate(653,607)"/>
<path d="M0 0 C0.66 0 1.32 0 2 0 C2.753 2.732 3.166 5.281 3.316 8.109 C3.358 8.863 3.4 9.618 3.443 10.395 C3.483 11.172 3.522 11.949 3.562 12.75 C3.627 13.939 3.627 13.939 3.693 15.152 C3.799 17.101 3.9 19.051 4 21 C3.01 21 2.02 21 1 21 C0.146 13.972 -0.121 7.077 0 0 Z " fill="#000000" transform="translate(439,627)"/>
<path d="M0 0 C-1.428 4.697 -4.164 7.555 -7.625 10.875 C-8.166 11.404 -8.707 11.933 -9.265 12.478 C-13.382 16.473 -17.588 20.331 -22 24 C-22.813 24.703 -23.627 25.405 -24.465 26.129 C-29.194 30.104 -32.861 32.932 -39 34 C-38.67 31.059 -38.067 30.063 -35.883 27.992 C-34.973 27.294 -34.063 26.595 -33.125 25.875 C-29.109 22.71 -25.254 19.473 -21.5 16 C-4.1 0 -4.1 0 0 0 Z " fill="#000000" transform="translate(641,639)"/>
<path d="M0 0 C0.99 0.33 1.98 0.66 3 1 C3.935 9.949 1.863 15.517 -3 23 C-3.99 23 -4.98 23 -6 23 C-5.398 19.47 -4.438 16.461 -3 13.188 C-1.148 8.711 -0.357 4.818 0 0 Z " fill="#000000" transform="translate(649,644)"/>
<path d="M0 0 C0.66 0.33 1.32 0.66 2 1 C0.276 5.5 -1.753 9.834 -3.812 14.188 C-4.166 14.938 -4.52 15.688 -4.885 16.461 C-7.512 22.013 -10.204 27.53 -13 33 C-14.32 32.67 -15.64 32.34 -17 32 C-12.95 23.803 -8.858 15.634 -4.562 7.562 C-4.221 6.919 -3.879 6.275 -3.527 5.611 C-1.126 1.126 -1.126 1.126 0 0 Z " fill="#000000" transform="translate(627,666)"/>
<path d="M0 0 C0.66 0 1.32 0 2 0 C1.424 4.755 -0.551 7.97 -3 12 C-3.99 12 -4.98 12 -6 12 C-5.559 7.154 -3.255 3.519 0 0 Z " fill="#000000" transform="translate(640,673)"/>
<path d="M0 0 C2.475 0.495 2.475 0.495 5 1 C5 1.99 5 2.98 5 4 C3.062 3.688 3.062 3.688 1 3 C0.67 2.01 0.34 1.02 0 0 Z " fill="#000000" transform="translate(440,677)"/>
<path d="M0 0 C0 0.99 0 1.98 0 3 C-3.207 3.507 -6.416 4.005 -9.625 4.5 C-10.529 4.643 -11.432 4.786 -12.363 4.934 C-16.954 5.637 -21.338 6.186 -26 6 C-26.33 5.01 -26.66 4.02 -27 3 C-23.438 2.494 -19.876 1.997 -16.312 1.5 C-14.801 1.285 -14.801 1.285 -13.26 1.066 C-11.795 0.863 -11.795 0.863 -10.301 0.656 C-9.405 0.531 -8.51 0.405 -7.587 0.275 C-5.036 0.004 -2.563 -0.048 0 0 Z " fill="#000000" transform="translate(436,680)"/>
<path d="M0 0 C1.65 0 3.3 0 5 0 C5.33 1.32 5.66 2.64 6 4 C4.35 4 2.7 4 1 4 C0.67 2.68 0.34 1.36 0 0 Z " fill="#000000" transform="translate(388,683)"/>
<path d="M0 0 C1.98 0 3.96 0 6 0 C6.33 0.99 6.66 1.98 7 3 C5.02 3 3.04 3 1 3 C0.67 2.01 0.34 1.02 0 0 Z " fill="#000000" transform="translate(397,683)"/>
<path d="M0 0 C0.99 0.66 1.98 1.32 3 2 C2.34 3.32 1.68 4.64 1 6 C0.01 6 -0.98 6 -2 6 C-1.125 1.125 -1.125 1.125 0 0 Z " fill="#000000" transform="translate(631,690)"/>
<path d="M0 0 C0.66 0 1.32 0 2 0 C3.001 3.932 3.998 7.864 4.991 11.798 C5.329 13.136 5.668 14.474 6.009 15.811 C6.499 17.734 6.984 19.658 7.469 21.582 C7.762 22.739 8.055 23.897 8.357 25.089 C9 28 9 28 9 31 C8.01 30.67 7.02 30.34 6 30 C5.001 27.24 5.001 27.24 4.141 23.594 C3.987 22.954 3.834 22.314 3.675 21.655 C3.354 20.301 3.038 18.946 2.728 17.589 C2.251 15.505 1.754 13.426 1.254 11.348 C-0.47 4.038 -0.47 4.038 -1 1 C-0.67 0.67 -0.34 0.34 0 0 Z " fill="#000000" transform="translate(435,700)"/>
<path d="M0 0 C0.99 0.33 1.98 0.66 3 1 C4.183 3.744 4.183 3.744 5.297 7.371 C5.495 8.009 5.693 8.646 5.897 9.303 C6.312 10.652 6.722 12.003 7.126 13.356 C7.748 15.43 8.39 17.497 9.035 19.564 C12.142 29.716 12.142 29.716 11 32 C10.34 32 9.68 32 9 32 C7.713 27.927 6.431 23.851 5.155 19.775 C4.72 18.388 4.283 17.002 3.845 15.616 C3.216 13.624 2.592 11.631 1.969 9.637 C1.403 7.838 1.403 7.838 0.826 6.003 C0 3 0 3 0 0 Z " fill="#000000" transform="translate(476,700)"/>
<path d="M0 0 C2 1 2 1 2.961 3.544 C3.286 4.651 3.611 5.758 3.945 6.898 C4.3 8.1 4.654 9.301 5.02 10.539 C5.384 11.805 5.749 13.071 6.125 14.375 C6.498 15.633 6.87 16.891 7.254 18.188 C10 27.583 10 27.583 10 31 C9.01 31 8.02 31 7 31 C5.831 27.07 4.674 23.138 3.527 19.202 C3.135 17.863 2.741 16.526 2.343 15.189 C1.771 13.268 1.212 11.343 0.652 9.418 C0.312 8.261 -0.028 7.103 -0.379 5.911 C-1 3 -1 3 0 0 Z " fill="#000000" transform="translate(497,700)"/>
<path d="M0 0 C0.66 0 1.32 0 2 0 C1.493 3.719 0.884 6.735 -1 10 C-1.99 10 -2.98 10 -4 10 C-3.437 6.059 -2.321 3.249 0 0 Z " fill="#000000" transform="translate(626,701)"/>
</svg>
