<?xml version="1.0" encoding="UTF-8"?>
<!-- Generator: visioncortex VTracer 0.6.0 -->
<svg version="1.1" xmlns="http://www.w3.org/2000/svg" width="847" height="847">
<path d="M0 0 C1 1 1 1 1.375 4.062 C0.697 11.179 -3.706 16.421 -9 21 C-9.66 21 -10.32 21 -11 21 C-9.628 18.046 -8.011 15.56 -6 13 C-11.799 10.144 -11.799 10.144 -18 10.812 C-26.551 14.239 -34.929 18.591 -42.867 23.254 C-46 25 -46 25 -48 25 C-48 25.66 -48 26.32 -48 27 C-47.215 27.049 -46.43 27.098 -45.621 27.148 C-39.81 27.562 -34.521 28.118 -29 30 C-29.33 30.66 -29.66 31.32 -30 32 C-40.862 32.94 -55.825 30.268 -65 24 C-65.33 23.01 -65.66 22.02 -66 21 C-59.571 13.019 -48.756 11.149 -39 10 C-36.48 9.863 -33.959 9.739 -31.438 9.625 C-22.955 9.126 -16.782 6.912 -9.75 2.25 C-6.401 0.036 -4.084 -0.598 0 0 Z M-11 6 C-11 6.66 -11 7.32 -11 8 C-8.36 8.33 -5.72 8.66 -3 9 C-2.34 7.35 -1.68 5.7 -1 4 C-5.061 2.282 -7.357 3.93 -11 6 Z M-46.438 14.812 C-47.175 14.978 -47.913 15.144 -48.674 15.314 C-53.136 16.366 -56.956 17.763 -61 20 C-61 20.66 -61 21.32 -61 22 C-58.029 23.887 -55.531 24.815 -52 25 C-44.957 22.132 -38.844 17.844 -33 13 C-37.7 12.73 -41.903 13.729 -46.438 14.812 Z " fill="#000000" transform="translate(385,230)"/>
<path d="M0 0 C0.66 0.66 1.32 1.32 2 2 C1.203 2.315 0.407 2.629 -0.414 2.953 C-8.723 6.097 -8.723 6.097 -16 11 C-16.969 14.133 -16.969 14.133 -17 17 C-12.741 18.788 -8.406 20.193 -4 21.562 C-3.301 21.784 -2.603 22.005 -1.883 22.232 C5.767 24.621 12.527 25.238 20.5 25.312 C22.049 25.356 22.049 25.356 23.629 25.4 C29.679 25.482 29.679 25.482 35.137 23.121 C36.878 21.139 38.038 19.449 39 17 C39.66 17.33 40.32 17.66 41 18 C40.776 21.923 40.04 22.961 37.125 25.75 C29.11 31.521 15.899 29.861 6.464 28.684 C-2.942 27.071 -14.594 24.617 -21 17 C-21.625 14.188 -21.625 14.188 -21 11 C-16.764 5.502 -10.408 3.093 -4 1 C-3.282 0.759 -2.564 0.518 -1.824 0.27 C-1.222 0.181 -0.62 0.092 0 0 Z " fill="#000000" transform="translate(320,245)"/>
<path d="M0 0 C2.753 1.796 4.526 3.053 6 6 C6.394 10.181 6.45 12.309 4.125 15.875 C1.213 18.787 0.4 18.961 -3.812 19.375 C-7.27 19.325 -7.963 19.027 -10.938 16.875 C-13.253 13.648 -14 11.962 -14 8 C-12.843 4.833 -11.921 2.723 -9.25 0.625 C-5.981 -0.283 -3.379 -0.356 0 0 Z M-8.375 5.688 C-10.274 7.888 -10.274 7.888 -9.875 10.625 C-9.135 13.144 -9.135 13.144 -7 15 C-3.863 15.334 -1.834 15.528 0.875 13.812 C2.407 11.345 2.428 9.855 2 7 C0.917 5.083 0.917 5.083 -1 4 C-4.359 3.397 -5.576 3.699 -8.375 5.688 Z " fill="#000000" transform="translate(457,247)"/>
<path d="M0 0 C1.033 2.652 1.121 3.708 0.012 6.382 C-0.75 7.67 -0.75 7.67 -1.527 8.984 C-2.072 9.919 -2.617 10.854 -3.178 11.816 C-3.758 12.784 -4.339 13.753 -4.938 14.75 C-5.514 15.734 -6.091 16.717 -6.686 17.73 C-8.113 20.16 -9.551 22.583 -11 25 C-11.66 24.34 -12.32 23.68 -13 23 C-11.214 19.538 -9.421 16.081 -7.625 12.625 C-6.863 11.148 -6.863 11.148 -6.086 9.641 C-5.351 8.229 -5.351 8.229 -4.602 6.789 C-4.151 5.92 -3.701 5.05 -3.237 4.155 C-2 2 -2 2 0 0 Z " fill="#000000" transform="translate(560,250)"/>
<path d="M0 0 C0.66 0 1.32 0 2 0 C1.359 5.787 -0.701 10.838 -2.816 16.211 C-3.192 17.179 -3.568 18.147 -3.956 19.145 C-5.152 22.224 -6.357 25.299 -7.562 28.375 C-8.377 30.467 -9.192 32.56 -10.006 34.652 C-11.998 39.771 -13.996 44.886 -16 50 C-16.66 50 -17.32 50 -18 50 C-17.359 44.213 -15.299 39.162 -13.184 33.789 C-12.808 32.821 -12.432 31.853 -12.044 30.855 C-10.848 27.776 -9.643 24.701 -8.438 21.625 C-7.623 19.533 -6.808 17.44 -5.994 15.348 C-4.002 10.229 -2.004 5.114 0 0 Z " fill="#000000" transform="translate(520,265)"/>
<path d="M0 0 C7.882 0.516 15.345 2.092 23 4 C23 4.66 23 5.32 23 6 C15.175 5.325 7.654 3.731 0 2 C0 1.34 0 0.68 0 0 Z " fill="#000000" transform="translate(392,267)"/>
<path d="M0 0 C0.358 4.876 -0.414 7.395 -3.125 11.438 C-3.759 12.388 -4.393 13.338 -5.047 14.316 C-7.139 17.19 -9.35 19.829 -11.836 22.367 C-15.999 28.206 -14.515 39.06 -14 46 C-13.114 50.356 -11.675 54.29 -8 57 C-0.784 57.981 4.212 53.786 10 50 C10.7 49.58 11.4 49.16 12.121 48.727 C17.145 45.213 18.591 40.311 20.591 34.763 C22.982 28.425 26.515 23.114 32 19 C35.281 18.242 35.281 18.242 38 18 C38.99 19.98 38.99 19.98 40 22 C36.199 28.602 31.499 33.767 26.052 39.013 C21.892 43.02 20.842 44.746 20.717 50.57 C20.707 51.29 20.697 52.009 20.688 52.75 C20.658 53.454 20.629 54.158 20.6 54.883 C20.538 60.002 21.509 63.016 25 67 C30.225 67.958 32.919 67.327 37.375 64.5 C38.022 64.036 38.669 63.572 39.336 63.094 C41 62 41 62 43 62 C43.147 61.322 43.294 60.644 43.445 59.945 C45.369 51.962 48.161 43.444 55.062 38.375 C58.046 36.978 59.759 36.537 63 37 C64 38 64 38 64.309 40.758 C63.926 44.778 62.83 45.989 60.062 48.875 C59.249 49.735 58.436 50.595 57.598 51.48 C55.153 53.851 52.623 56.019 50 58.188 C47.245 60.607 46.135 61.601 44.938 65.125 C44.958 66.404 44.979 67.683 45 69 C44.955 70.102 44.91 71.204 44.863 72.34 C44.575 81.089 44.575 81.089 48 89 C49.978 90.93 49.978 90.93 52.188 92.375 C52.903 92.878 53.618 93.38 54.355 93.898 C54.898 94.262 55.441 94.625 56 95 C54.258 95.699 54.258 95.699 52 96 C49.93 94.707 49.93 94.707 47.875 92.812 C47.192 92.2 46.509 91.588 45.805 90.957 C42.382 87.245 41.721 84.176 41.375 79.188 C41.302 78.134 41.228 77.081 41.152 75.996 C40.982 72.651 40.924 69.348 41 66 C39.866 66.66 38.731 67.32 37.562 68 C33.028 70.243 28.998 71.078 24 70 C19.729 67.092 18.266 64.028 17.27 59.137 C16.839 55.726 16.877 52.435 17 49 C12.801 50.94 9.259 53.627 5.535 56.344 C0.708 59.498 -3.21 60.62 -9 60 C-13.397 57.602 -14.842 54.734 -16.422 50.195 C-17.754 45.136 -18.116 40.347 -18.062 35.125 C-18.053 33.973 -18.044 32.82 -18.035 31.633 C-18.024 30.764 -18.012 29.895 -18 29 C-24.208 34.549 -30.36 40.152 -36.444 45.837 C-45.229 54 -45.229 54 -48 54 C-46.662 50.991 -45.224 49.016 -42.805 46.793 C-42.175 46.21 -41.545 45.626 -40.896 45.025 C-40.229 44.419 -39.562 43.812 -38.875 43.188 C-38.196 42.562 -37.518 41.937 -36.819 41.293 C-32.794 37.597 -28.728 33.953 -24.578 30.398 C-23.017 29.015 -21.57 27.566 -20.125 26.062 C-18 24 -18 24 -16 24 C-15.918 22.886 -15.835 21.772 -15.75 20.625 C-14.836 13.375 -12.127 6.298 -7 1 C-4.537 -0.231 -2.72 -0.072 0 0 Z M-4 2 C-7.438 5.702 -10.139 9.245 -12 14 C-11.62 16.138 -11.62 16.138 -11 18 C-9.491 15.902 -7.993 13.797 -6.5 11.688 C-5.856 10.795 -5.856 10.795 -5.199 9.885 C-2.601 6.298 -2.601 6.298 -2 2 C-2.66 2 -3.32 2 -4 2 Z M29.891 23.941 C26.42 27.72 23.922 32.256 22 37 C22.33 37.66 22.66 38.32 23 39 C30.757 31.634 30.757 31.634 37 23 C37 22.01 37 21.02 37 20 C33.855 20 32.158 21.955 29.891 23.941 Z M53.785 43.008 C50.56 46.607 47 52.028 47 57 C50.575 55.482 52.9 53.368 55.625 50.625 C56.401 49.854 57.177 49.083 57.977 48.289 C60.76 45.14 62 43.228 62 39 C57.991 39 56.703 40.419 53.785 43.008 Z " fill="#000000" transform="translate(593,268)"/>
<path d="M0 0 C0.606 0.387 1.212 0.773 1.836 1.172 C7.102 4.445 12.222 7.062 18.066 9.141 C20 10 20 10 21 12 C13.543 11.661 5.303 8.303 0 3 C0 2.01 0 1.02 0 0 Z " fill="#000000" transform="translate(292,269)"/>
<path d="M0 0 C3.3 0 6.6 0 10 0 C10 0.99 10 1.98 10 3 C7.03 3 4.06 3 1 3 C0.67 2.01 0.34 1.02 0 0 Z " fill="#000000" transform="translate(342,285)"/>
<path d="M0 0 C1.938 0.688 1.938 0.688 4 2 C5.653 6.127 4.523 8.974 2.854 12.948 C2.516 13.716 2.177 14.485 1.828 15.277 C1.478 16.101 1.129 16.924 0.768 17.772 C-0.393 20.499 -1.572 23.218 -2.75 25.938 C-3.561 27.837 -4.371 29.736 -5.179 31.637 C-6.451 34.626 -7.724 37.615 -9.001 40.603 C-13.518 51.176 -17.915 61.797 -22.296 72.427 C-23.551 75.472 -24.809 78.515 -26.067 81.558 C-26.838 83.424 -27.609 85.29 -28.379 87.156 C-28.909 88.438 -28.909 88.438 -29.45 89.745 C-29.773 90.528 -30.095 91.312 -30.428 92.119 C-30.709 92.8 -30.99 93.481 -31.28 94.182 C-31.908 95.768 -32.461 97.382 -33 99 C-32.447 99.24 -31.894 99.48 -31.324 99.727 C-22.057 104.804 -14.629 114.216 -9 123 C-9 123.66 -9 124.32 -9 125 C-7.996 124.856 -6.992 124.711 -5.957 124.562 C27.735 119.902 64.278 126.2 92.162 146.617 C116.605 165.249 128.279 191.658 135 221 C136.65 221.33 138.3 221.66 140 222 C141.027 257.153 134.998 288.573 119 320 C119.606 320.257 120.212 320.513 120.836 320.777 C128.043 324.07 133.354 328.486 139 334 C135.797 338.103 132.426 341.484 128.469 344.855 C125.251 347.651 122.127 350.541 119 353.438 C118.412 353.982 117.823 354.527 117.217 355.088 C115.81 356.391 114.405 357.696 113 359 C106.924 354.26 101.067 349.035 99.406 341.199 C99.161 338.787 99.01 336.424 99 334 C98.34 334 97.68 334 97 334 C96.789 334.534 96.577 335.067 96.359 335.617 C86.502 352.895 65.115 362.947 48 371 C49.002 371.276 50.004 371.551 51.037 371.835 C51.71 372.02 52.383 372.205 53.077 372.396 C54.199 372.705 54.199 372.705 55.344 373.02 C60.523 374.444 65.702 375.868 70.881 377.292 C71.79 377.542 72.7 377.792 73.637 378.05 C88 382 88 382 102.363 385.95 C103.273 386.2 104.182 386.45 105.119 386.708 C109.51 387.915 113.901 389.123 118.292 390.33 C119.072 390.545 119.852 390.759 120.656 390.98 C123.104 391.654 125.552 392.327 128 393 C129.638 387.845 131.274 382.69 132.907 377.534 C133.461 375.786 134.016 374.039 134.571 372.292 C141.247 353.452 141.247 353.452 145 334 C142.771 331.187 142.771 331.187 140 329 C139.34 328.01 138.68 327.02 138 326 C141.551 324.224 145.431 326.197 149.125 327.188 C149.955 327.397 150.785 327.606 151.641 327.822 C165.345 331.442 165.345 331.442 168.164 335.799 C169.205 338.539 168.881 339.628 167.977 342.388 C167.702 343.252 167.427 344.116 167.144 345.006 C166.831 345.937 166.518 346.869 166.195 347.828 C165.881 348.802 165.566 349.776 165.242 350.779 C164.217 353.941 163.171 357.095 162.125 360.25 C161.423 362.402 160.722 364.554 160.023 366.706 C158.035 372.811 156.021 378.906 154 385 C153.504 386.5 153.008 388 152.512 389.5 C150.568 395.371 148.612 401.237 146.61 407.089 C145.986 409.043 145.476 411.005 145 413 C146.736 413.58 146.736 413.58 148.508 414.172 C150.047 414.697 151.586 415.224 153.125 415.75 C153.886 416.003 154.646 416.255 155.43 416.516 C161.102 418.472 165.699 420.699 170 425 C170.125 427.312 170.125 427.312 169 430 C158.981 439.789 140.241 438.991 127.156 439.23 C124.718 438.97 123.151 438.137 121 437 C121.81 436.869 122.621 436.739 123.456 436.604 C126.53 436.105 129.604 435.597 132.676 435.083 C134.633 434.759 136.591 434.444 138.549 434.129 C151.054 432.081 151.054 432.081 163 428 C163.33 427.01 163.66 426.02 164 425 C163.181 424.746 162.363 424.492 161.52 424.23 C158.923 423.323 156.507 422.367 154.012 421.238 C153.305 420.924 152.598 420.611 151.869 420.287 C150.42 419.64 148.977 418.978 147.541 418.303 C146.83 417.993 146.119 417.683 145.387 417.363 C144.446 416.935 144.446 416.935 143.487 416.497 C136.462 415.093 129.088 417.598 122.363 419.527 C120.969 419.918 120.969 419.918 119.546 420.317 C116.466 421.183 113.389 422.06 110.312 422.938 C108.138 423.552 105.964 424.166 103.79 424.78 C85.255 430.027 66.751 435.383 48.25 440.75 C47.563 440.949 46.876 441.149 46.168 441.354 C41.575 442.686 36.983 444.022 32.391 445.359 C30.641 445.868 30.641 445.868 28.855 446.387 C27.774 446.702 26.693 447.018 25.579 447.343 C24.642 447.616 23.705 447.889 22.739 448.17 C20.774 448.765 18.827 449.42 16.895 450.112 C8.281 452.754 -2.12 448.375 -10.598 446.203 C-12.134 445.814 -13.671 445.425 -15.208 445.037 C-19.312 443.998 -23.413 442.951 -27.513 441.902 C-30.075 441.247 -32.636 440.594 -35.198 439.941 C-72.632 430.399 -109.923 420.509 -146.957 409.507 C-148.851 408.945 -150.745 408.383 -152.64 407.822 C-156.176 406.771 -159.709 405.713 -163.242 404.652 C-164.285 404.342 -165.327 404.033 -166.402 403.713 C-179.576 399.729 -179.576 399.729 -185 397 C-186.376 394.248 -185.725 393.094 -184.785 390.199 C-182.919 385.768 -181.179 384.059 -176.809 382.082 C-174.699 381.288 -172.574 380.533 -170.438 379.812 C-169.33 379.406 -168.223 378.999 -167.082 378.581 C-164.824 377.755 -162.559 376.945 -160.289 376.152 C-157.219 375.077 -154.17 373.959 -151.125 372.816 C-146.761 371.18 -142.386 369.579 -138 368 C-138.687 367.455 -139.374 366.909 -140.082 366.348 C-145.9 361.478 -149.935 357.69 -151 350 C-151.19 346.949 -151.146 344.062 -151 341 C-148.235 339.618 -145.954 339.905 -142.875 339.938 C-141.779 339.947 -140.684 339.956 -139.555 339.965 C-138.29 339.982 -138.29 339.982 -137 340 C-136.89 340.748 -136.781 341.495 -136.668 342.266 C-136.509 343.25 -136.351 344.235 -136.188 345.25 C-136.037 346.225 -135.886 347.199 -135.73 348.203 C-134.963 351.14 -133.882 352.669 -132 355 C-132 355.66 -132 356.32 -132 357 C-130.348 357.701 -128.676 358.358 -127 359 C-125.45 359.616 -125.45 359.616 -123.868 360.245 C-118.806 361.233 -115.865 360.064 -111.172 358.203 C-110.342 357.894 -109.513 357.585 -108.658 357.267 C-106.014 356.28 -103.382 355.267 -100.75 354.25 C-97.291 352.931 -93.828 351.623 -90.359 350.328 C-89.536 350.02 -88.712 349.711 -87.863 349.393 C-81.999 347.245 -76.233 345.665 -70 345 C-69.938 343.928 -69.876 342.855 -69.812 341.75 C-69.227 336.63 -67.077 332.341 -64.863 327.734 C-63.76 325.113 -63.76 325.113 -64.598 322.906 C-73.42 310.914 -87.4 307.918 -101 304 C-102.051 303.688 -103.102 303.377 -104.185 303.056 C-107.241 302.156 -110.305 301.289 -113.375 300.438 C-114.294 300.174 -115.214 299.91 -116.161 299.638 C-122.609 297.94 -129.797 296.898 -136 300 C-136.727 301.917 -136.727 301.917 -137.312 304.188 C-138.77 308.818 -140.523 311.61 -144 315 C-144.99 315 -145.98 315 -147 315 C-146.752 316.031 -146.505 317.062 -146.25 318.125 C-146 322 -146 322 -147.438 325.125 C-152.706 331.036 -159.37 334.14 -167 336 C-168.152 336.028 -169.305 336.057 -170.492 336.086 C-174.274 337.071 -174.538 337.177 -176.379 340.305 C-177.132 341.816 -177.858 343.341 -178.562 344.875 C-179.42 346.619 -180.278 348.362 -181.137 350.105 C-181.594 351.053 -182.05 352.001 -182.521 352.978 C-184.629 357.286 -186.861 361.526 -189.087 365.774 C-194.765 376.613 -200.286 387.526 -205.733 398.483 C-209.977 407.002 -214.376 415.431 -218.855 423.829 C-219.999 425.998 -221.114 428.18 -222.223 430.367 C-222.576 431.055 -222.93 431.744 -223.294 432.453 C-224.24 434.297 -225.177 436.146 -226.113 437.996 C-228.725 442.154 -231.342 444.447 -236 446 C-245.346 446.868 -252.986 445.764 -260.586 440.059 C-267.548 434.095 -267.548 434.095 -268.306 428.9 C-268.711 421.227 -266.099 416.55 -262.062 410.188 C-260.771 408.067 -259.481 405.946 -258.191 403.824 C-257.507 402.715 -256.823 401.605 -256.118 400.462 C-252.846 395.14 -249.717 389.735 -246.572 384.337 C-244.793 381.287 -243.005 378.241 -241.219 375.195 C-240.694 374.299 -240.694 374.299 -240.158 373.385 C-238.062 369.81 -235.963 366.236 -233.863 362.663 C-232.24 359.902 -230.62 357.138 -229 354.375 C-228.406 353.368 -227.813 352.36 -227.201 351.322 C-226.66 350.399 -226.12 349.475 -225.562 348.523 C-225.089 347.718 -224.616 346.913 -224.129 346.083 C-222.874 343.911 -222.874 343.911 -222 341 C-227.794 345.73 -233.577 350.474 -239.347 355.235 C-247.251 361.755 -255.173 368.243 -263.258 374.539 C-269.658 379.529 -275.948 384.604 -282.114 389.881 C-286.476 393.597 -290.956 397.14 -295.479 400.657 C-301.049 405.004 -306.494 409.494 -311.938 413.997 C-317.248 418.388 -322.601 422.718 -328 427 C-328.855 427.735 -329.709 428.47 -330.59 429.227 C-333 431 -333 431 -335.812 430.75 C-336.895 430.379 -336.895 430.379 -338 430 C-337.784 426.67 -336.841 425.858 -334.297 423.59 C-333.122 422.697 -331.939 421.813 -330.75 420.938 C-329.467 419.963 -328.186 418.986 -326.906 418.008 C-326.254 417.511 -325.602 417.013 -324.93 416.501 C-321.961 414.192 -319.104 411.76 -316.25 409.312 C-311.819 405.528 -307.335 401.828 -302.77 398.207 C-299.286 395.431 -295.83 392.623 -292.375 389.812 C-291.693 389.259 -291.012 388.705 -290.31 388.134 C-286.84 385.312 -283.372 382.488 -279.906 379.66 C-272.976 374.01 -266.014 368.411 -258.968 362.906 C-253.576 358.688 -248.277 354.362 -243 350 C-243.592 349.562 -244.183 349.123 -244.793 348.672 C-252.906 342.16 -256.652 334.7 -257.875 324.375 C-258.175 320.349 -258.175 320.349 -257 318 C-264.415 323.781 -271.782 329.613 -279.062 335.562 C-284.849 340.289 -290.715 344.877 -296.656 349.406 C-300.499 352.362 -304.247 355.431 -308 358.5 C-313.864 363.293 -319.785 367.987 -325.82 372.562 C-328.099 374.293 -330.334 376.07 -332.555 377.875 C-333.435 378.58 -333.435 378.58 -334.333 379.3 C-335.46 380.204 -336.579 381.117 -337.688 382.042 C-341.473 385.051 -341.473 385.051 -344.371 384.77 C-344.909 384.516 -345.446 384.262 -346 384 C-345.44 380.418 -344.3 379.039 -341.5 376.793 C-340.777 376.206 -340.054 375.619 -339.309 375.014 C-338.547 374.411 -337.785 373.808 -337 373.188 C-336.269 372.596 -335.538 372.005 -334.785 371.396 C-329.575 367.198 -324.291 363.094 -319 359 C-319.302 357.717 -319.302 357.717 -319.611 356.408 C-327.27 323.732 -327.27 323.732 -328 312 C-328.059 311.06 -328.118 310.12 -328.178 309.152 C-328.367 305.935 -328.533 302.718 -328.688 299.5 C-328.736 298.484 -328.785 297.467 -328.835 296.42 C-329.052 290.803 -328.879 285.554 -328 280 C-328.727 280.072 -329.454 280.144 -330.203 280.219 C-337.492 280.892 -344.682 281.117 -352 281 C-352 279.68 -352 278.36 -352 277 C-345.908 271.518 -335.671 272.953 -328 273 C-327.935 272.438 -327.871 271.877 -327.804 271.298 C-326.455 259.878 -324.762 248.78 -321.626 237.7 C-320.229 232.625 -319.778 228.268 -320 223 C-319.361 222.794 -318.721 222.587 -318.062 222.375 C-317.382 221.921 -316.701 221.467 -316 221 C-315.884 220.212 -315.768 219.425 -315.648 218.613 C-314.707 213.367 -312.626 208.71 -310.562 203.812 C-310.114 202.748 -309.666 201.684 -309.205 200.587 C-300.48 180.193 -289.286 161.76 -275.645 144.285 C-273.841 142.017 -273.841 142.017 -273 139 C-271.948 138.412 -271.948 138.412 -270.875 137.812 C-267.552 135.718 -265.558 133.323 -263.047 130.34 C-259.259 126.009 -255.104 122.029 -251 118 C-253.64 117.67 -256.28 117.34 -259 117 C-259 115.68 -259 114.36 -259 113 C-249.979 110.35 -241.46 108.352 -232 108 C-231.736 109.409 -231.736 109.409 -231.467 110.847 C-230.278 114.304 -230.278 114.304 -226.735 115.46 C-225.341 115.816 -223.941 116.144 -222.535 116.449 C-221.787 116.633 -221.039 116.818 -220.269 117.007 C-217.872 117.592 -215.468 118.14 -213.062 118.688 C-211.478 119.066 -209.894 119.447 -208.311 119.83 C-205.259 120.566 -202.207 121.295 -199.153 122.017 C-198.448 122.184 -197.743 122.351 -197.016 122.523 C-195.162 122.962 -193.308 123.396 -191.453 123.831 C-190.456 124.079 -189.46 124.327 -188.434 124.582 C-187.587 124.787 -186.741 124.991 -185.869 125.202 C-185.252 125.466 -184.635 125.729 -184 126 C-183.67 126.99 -183.34 127.98 -183 129 C-199.778 125.458 -216.379 121.205 -233 117 C-233.66 119.31 -234.32 121.62 -235 124 C-236.32 124 -237.64 124 -239 124 C-239.66 123.01 -240.32 122.02 -241 121 C-249.628 124.631 -256.893 133.697 -263.188 140.5 C-263.657 141.004 -264.126 141.508 -264.61 142.027 C-266.724 144.357 -267.992 145.975 -269 149 C-268.431 151.775 -267.799 154.458 -267.062 157.188 C-266.867 157.937 -266.672 158.687 -266.471 159.459 C-265.988 161.308 -265.495 163.154 -265 165 C-264.45 165.075 -263.899 165.15 -263.332 165.227 C-252.99 166.862 -243.021 170.033 -233 173 C-232.89 172.264 -232.781 171.528 -232.668 170.77 C-232.509 169.794 -232.351 168.818 -232.188 167.812 C-231.961 166.368 -231.961 166.368 -231.73 164.895 C-230.951 161.805 -229.683 159.684 -228 157 C-227.037 157.207 -226.074 157.414 -225.082 157.627 C-221.484 158.399 -217.885 159.168 -214.285 159.936 C-212.732 160.268 -211.18 160.6 -209.627 160.934 C-207.386 161.415 -205.144 161.893 -202.902 162.371 C-202.217 162.519 -201.531 162.667 -200.824 162.819 C-196.56 163.724 -192.318 164.428 -188 165 C-187.959 163.845 -187.918 162.69 -187.875 161.5 C-185.743 142.866 -174.415 125.424 -162 112 C-161.344 111.263 -160.688 110.525 -160.012 109.766 C-143.383 91.962 -117.722 80.792 -93.551 79.777 C-73.867 79.263 -56.702 84.51 -39 93 C-38.906 92.35 -38.812 91.7 -38.715 91.031 C-37.761 86.988 -36.183 83.328 -34.562 79.512 C-34.21 78.672 -33.858 77.832 -33.495 76.967 C-32.335 74.205 -31.168 71.446 -30 68.688 C-29.192 66.771 -28.385 64.854 -27.578 62.937 C-25.903 58.961 -24.224 54.986 -22.542 51.012 C-20.464 46.099 -18.391 41.182 -16.321 36.265 C-14.775 32.593 -13.224 28.922 -11.673 25.252 C-10.936 23.509 -10.2 21.765 -9.466 20.02 C-8.44 17.587 -7.41 15.157 -6.379 12.727 C-6.08 12.014 -5.78 11.301 -5.472 10.567 C-3.892 6.861 -2.17 3.396 0 0 Z M-91.184 95.242 C-116.37 97.854 -137.223 109.57 -153.418 128.918 C-166.909 146.673 -174.235 168.588 -171.782 190.993 C-170.466 200.535 -167.833 209.152 -164 218 C-159.391 213.737 -157.215 208.924 -154.562 203.312 C-154.077 202.293 -153.591 201.273 -153.091 200.222 C-146.609 186.657 -146.609 186.657 -144 172 C-152.415 172.495 -152.415 172.495 -161 173 C-161.021 174.403 -161.041 175.805 -161.062 177.25 C-161.074 178.039 -161.086 178.828 -161.098 179.641 C-161.004 181.907 -160.632 183.829 -160 186 C-161.485 186.495 -161.485 186.495 -163 187 C-167.531 172.502 -162.973 158.022 -156.469 144.914 C-146.549 126.712 -129.64 114.055 -110.074 107.645 C-102.117 105.317 -94.75 103.858 -86.438 103.875 C-84.517 103.871 -84.517 103.871 -82.559 103.867 C-79.542 103.98 -76.932 104.36 -74 105 C-71.667 105.038 -69.333 105.046 -67 105 C-67.33 106.32 -67.66 107.64 -68 109 C-68.906 108.856 -69.812 108.711 -70.746 108.562 C-92.595 105.233 -112.891 108.818 -131.164 121.824 C-145.288 132.66 -155.573 145.548 -160 163 C-160 164.32 -160 165.64 -160 167 C-153.4 167 -146.8 167 -140 167 C-137.436 172.129 -142.298 182.673 -144 188 C-147.662 198.208 -152.219 207.954 -157.652 217.336 C-159.026 220.052 -159.878 221.955 -160 225 C-157.879 228.745 -154.878 231.813 -152 235 C-151.325 235.77 -150.649 236.539 -149.953 237.332 C-137.492 250.707 -120.888 258.165 -103 261 C-101.68 261 -100.36 261 -99 261 C-99.031 259.46 -99.031 259.46 -99.063 257.889 C-99.137 253.986 -99.182 250.084 -99.22 246.181 C-99.24 244.509 -99.267 242.837 -99.302 241.166 C-99.861 213.857 -91.511 189.201 -74 168 C-73.251 167.269 -72.502 166.538 -71.73 165.785 C-69.768 164.175 -69.768 164.175 -70 162 C-69.424 161.75 -68.848 161.5 -68.254 161.242 C-65.693 159.831 -64.015 158.183 -61.938 156.125 C-49.51 144.792 -34.464 137.282 -19 131 C-19 124.928 -25.826 120.183 -29.922 116.07 C-44.997 102.09 -63.759 96.031 -83.938 94.75 C-86.359 94.842 -88.767 95.058 -91.184 95.242 Z M-5 131 C-4.798 131.573 -4.597 132.147 -4.389 132.737 C5.511 161.09 7.985 188.02 -5 216 C-17.595 239.888 -39.144 259.194 -64.994 267.652 C-74.164 270.368 -83.513 271.873 -93 273 C-92.67 273.99 -92.34 274.98 -92 276 C-64.644 277.048 -39.284 267.729 -19.125 249.188 C0.739 230.195 10.851 207.022 11.969 179.551 C12.309 163.164 9.211 144.817 0 131 C-2.584 130.75 -2.584 130.75 -5 131 Z M-23.688 138 C-25.178 138.835 -25.178 138.835 -26.699 139.688 C-27.458 140.121 -28.218 140.554 -29 141 C-29 141.66 -29 142.32 -29 143 C-28.34 143.66 -27.68 144.32 -27 145 C-27.99 145.897 -27.99 145.897 -29 146.812 C-31.337 148.875 -31.337 148.875 -31 152 C-28.012 152.983 -25.143 153.752 -22 154 C-18.76 152.34 -18.76 152.34 -16 150 C-12.625 148.75 -12.625 148.75 -10 148 C-10.515 142.719 -12.255 139.428 -15 135 C-18.722 135 -20.464 136.18 -23.688 138 Z M42 135 C43 138 43 138 43 138 Z M24 140 C24 144.62 24 149.24 24 154 C24.99 154.495 24.99 154.495 26 155 C27.087 151.739 26.988 149.77 26.688 146.375 C26.609 145.393 26.53 144.41 26.449 143.398 C26.301 142.607 26.153 141.815 26 141 C25.34 140.67 24.68 140.34 24 140 Z M-35 143 C-34.67 144.32 -34.34 145.64 -34 147 C-33.01 146.67 -32.02 146.34 -31 146 C-31 145.01 -31 144.02 -31 143 C-32.32 143 -33.64 143 -35 143 Z M30 145 C30.33 145.99 30.66 146.98 31 148 C31.33 147.01 31.66 146.02 32 145 C31.34 145 30.68 145 30 145 Z M40 145 C40.33 145.99 40.66 146.98 41 148 C41.33 147.01 41.66 146.02 42 145 C41.34 145 40.68 145 40 145 Z M-42 146 C-39.688 148.562 -39.688 148.562 -37 151 C-36.01 151 -35.02 151 -34 151 C-34.752 147.722 -34.752 147.722 -38 146 C-39.32 146 -40.64 146 -42 146 Z M17 146 C17 146.99 17 147.98 17 149 C18.32 148.67 19.64 148.34 21 148 C21 147.34 21 146.68 21 146 C19.68 146 18.36 146 17 146 Z M86 149 C89.958 153.675 89.958 153.675 94.086 158.199 C114.551 179.921 125.664 209.814 125.353 239.585 C124.709 259.462 119.403 277.984 110.574 295.684 C108.857 298.689 108.857 298.689 109 301 C108.34 300.67 107.68 300.34 107 300 C104.257 299.328 104.257 299.328 101 300 C99.143 301.317 99.143 301.317 97.316 303.055 C96.616 303.691 95.915 304.326 95.193 304.981 C94.47 305.648 93.746 306.314 93 307 C92.297 307.627 91.594 308.255 90.869 308.901 C88.751 310.792 86.655 312.706 84.562 314.625 C83.844 315.267 83.125 315.909 82.385 316.57 C81.702 317.199 81.02 317.828 80.316 318.477 C79.702 319.034 79.088 319.592 78.455 320.167 C76.635 322.46 76.237 324.096 76 327 C77.341 330.268 77.341 330.268 79 333 C56.004 350.31 27.727 352.802 -0.201 349.129 C-4.158 348.526 -8.081 347.813 -12 347 C-12.676 346.861 -13.351 346.722 -14.047 346.578 C-28.877 343.381 -42.167 336.939 -55 329 C-56.666 327.998 -58.332 326.998 -60 326 C-60.987 327.892 -61.964 329.789 -62.938 331.688 C-63.483 332.743 -64.028 333.799 -64.59 334.887 C-65.847 337.662 -66.561 340.003 -67 343 C-60.743 345.492 -54.466 347.284 -47.938 348.918 C-46.39 349.311 -46.39 349.311 -44.811 349.712 C-41.541 350.542 -38.271 351.365 -35 352.188 C-32.772 352.752 -30.544 353.316 -28.316 353.881 C-22.879 355.259 -17.44 356.631 -12 358 C-12 358.66 -12 359.32 -12 360 C-18.964 358.942 -25.761 357.362 -32.578 355.617 C-33.439 355.397 -34.3 355.177 -35.188 354.951 C-38.789 354.027 -42.389 353.099 -45.986 352.163 C-48.64 351.473 -51.296 350.795 -53.953 350.117 C-55.16 349.798 -55.16 349.798 -56.39 349.473 C-64.027 347.539 -69.916 347.539 -77.293 350.57 C-78.33 350.979 -78.33 350.979 -79.388 351.397 C-81.659 352.295 -83.923 353.21 -86.188 354.125 C-87.787 354.761 -89.387 355.395 -90.987 356.028 C-94.32 357.348 -97.651 358.673 -100.98 360.002 C-108.129 362.853 -115.301 365.642 -122.475 368.429 C-124.736 369.307 -126.997 370.187 -129.258 371.067 C-141.466 375.816 -153.715 380.453 -166 385 C-166 385.66 -166 386.32 -166 387 C-114.463 401.881 -62.774 415.723 -10.654 428.4 C-9.427 428.699 -8.199 428.997 -6.935 429.305 C-5.182 429.729 -5.182 429.729 -3.394 430.161 C-1.149 430.716 1.091 431.291 3.325 431.887 C13.613 434.615 19.89 434.043 29.711 430.129 C31.865 429.296 34.02 428.464 36.175 427.633 C37.295 427.199 38.415 426.764 39.569 426.316 C45.221 424.148 50.91 422.088 56.602 420.027 C57.75 419.61 58.898 419.193 60.082 418.763 C63.596 417.487 67.11 416.212 70.625 414.938 C72.979 414.083 75.333 413.228 77.688 412.373 C82.263 410.711 86.839 409.051 91.415 407.39 C100.945 403.932 110.473 400.466 120 397 C120 396.34 120 395.68 120 395 C117.892 394.416 115.785 393.832 113.677 393.248 C111.78 392.722 109.883 392.197 107.986 391.671 C102.695 390.205 97.403 388.742 92.109 387.287 C73.583 382.189 73.583 382.189 65.239 379.751 C62.246 378.877 59.248 378.017 56.25 377.16 C54.89 376.766 53.533 376.364 52.178 375.954 C44.176 373.535 38.064 372.313 30 375 C30.33 377.31 30.66 379.62 31 382 C32.114 382.392 33.227 382.784 34.375 383.188 C47.285 388.089 47.285 388.089 51.188 392.438 C52.285 395.899 52.284 397.575 51 401 C41.596 410.19 27.603 409.427 15.319 409.356 C3.196 409.107 -7.944 407.201 -19 402 C-19.728 401.72 -20.457 401.441 -21.207 401.152 C-23 400 -23 400 -23.75 397.977 C-24.414 391.73 -24.414 391.73 -22.688 388.688 C-17.559 385.468 -11.954 383.404 -6.062 382.062 C-2.859 381.244 -2.859 381.244 -1 378.625 C0.358 375.812 0.358 375.812 -1 372 C-2.98 364.08 -2.98 364.08 -5 356 C12.82 356.495 12.82 356.495 31 357 C31.33 358.32 31.66 359.64 32 361 C53.122 358.117 71.486 345.694 88 333 C85.246 331.004 85.246 331.004 82.875 330.188 C81 329 81 329 79.938 326.688 C80 324 80 324 82 321.625 C83.485 320.326 83.485 320.326 85 319 C86.067 317.9 87.129 316.796 88.188 315.688 C91.075 312.819 94.075 310.123 97.188 307.5 C98.006 306.809 98.825 306.118 99.668 305.406 C102 304 102 304 104.191 304.09 C107.102 305.554 107.769 308.106 109 311 C124.892 296.494 129.993 260.933 131.142 240.465 C131.588 228.254 131.086 217.61 127 206 C126.687 205.054 126.687 205.054 126.367 204.09 C119.229 182.574 107.65 161.432 88 149 C87.34 149 86.68 149 86 149 Z M-52 153 C-52 153.66 -52 154.32 -52 155 C-48.758 154.65 -47.385 154.438 -45.188 151.938 C-44.796 151.298 -44.404 150.659 -44 150 C-48.225 150 -49.045 150.256 -52 153 Z M-273 151 C-286.901 169.408 -309.542 200.952 -310.062 224.875 C-309.093 227.194 -309.093 227.194 -306.688 228.812 C-299.396 231.161 -292.511 231.115 -285.562 227.75 C-277.208 223.17 -271.34 216.558 -268.109 207.504 C-267.656 205.688 -267.313 203.845 -267 202 C-262.734 203.293 -260.154 205.503 -256.906 208.402 C-251.519 213.056 -251.519 213.056 -245 215 C-242.766 209.279 -242.766 209.279 -241.938 203.25 C-243.189 200.6 -244.861 199.433 -247.141 197.664 C-254.918 190.703 -259.906 180.982 -264.726 171.88 C-265.324 170.758 -265.324 170.758 -265.934 169.613 C-266.285 168.941 -266.636 168.268 -266.998 167.575 C-267.922 165.825 -267.922 165.825 -270 165 C-269.67 164.67 -269.34 164.34 -269 164 C-269.395 159.265 -269.965 155.341 -272 151 C-272.33 151 -272.66 151 -273 151 Z M-38 152 C-38 153.32 -38 154.64 -38 156 C-34.865 157.858 -32.625 158.201 -29 158 C-28.67 157.01 -28.34 156.02 -28 155 C-31.3 154.01 -34.6 153.02 -38 152 Z M-51 161 C-51 162.32 -51 163.64 -51 165 C-48.665 164.827 -47.308 164.298 -45.621 162.668 C-42.88 159.735 -42.88 159.735 -42 156 C-46.36 156 -47.959 158.026 -51 161 Z M38 156 C39 158 39 158 39 158 Z M-61.688 160.312 C-62.496 160.927 -63.304 161.542 -64.137 162.176 C-64.752 162.778 -65.366 163.38 -66 164 C-66 164.99 -66 165.98 -66 167 C-62.947 167.294 -60.045 167.419 -57 167 C-54.224 164.99 -54.224 164.99 -53 162 C-53.131 159.249 -53.131 159.249 -54 157 C-57.747 157 -58.769 158.043 -61.688 160.312 Z M-42.75 160.688 C-44.19 163.351 -44.249 165.016 -44 168 C-41.36 168.33 -38.72 168.66 -36 169 C-36.33 171.64 -36.66 174.28 -37 177 C-38.65 177.33 -40.3 177.66 -42 178 C-41.73 180.437 -41.73 180.437 -41 183 C-37.548 185.302 -36.053 185.345 -32 185 C-31.34 184.34 -30.68 183.68 -30 183 C-30.323 179.403 -30.323 179.403 -31 176 C-28.525 176.99 -28.525 176.99 -26 178 C-25.34 177.34 -24.68 176.68 -24 176 C-24.091 173.46 -24.091 173.46 -25 171 C-25.99 170.34 -26.98 169.68 -28 169 C-28.433 167.866 -28.866 166.731 -29.312 165.562 C-30.703 161.832 -30.703 161.832 -33.938 160.062 C-38.666 158.38 -38.666 158.38 -42.75 160.688 Z M-226 164 C-227.687 168.838 -229.014 173.717 -230.285 178.676 C-244.873 234.809 -244.873 234.809 -259 256 C-246.72 254.217 -237.718 249.816 -230 240 C-224.387 232.14 -219.571 223.904 -215.938 214.941 C-215 213 -215 213 -213 212 C-221.638 231.391 -221.638 231.391 -228.273 239.773 C-230.064 242.083 -231.542 244.469 -233 247 C-226.167 246.299 -220.415 244.601 -215.668 239.488 C-213.301 236.403 -211.124 233.257 -209 230 C-208.381 229.069 -207.762 228.139 -207.125 227.18 C-202.426 219.649 -195 207.146 -195 198 C-194.34 198 -193.68 198 -193 198 C-198.414 213.584 -204.885 227.175 -214 241 C-204.8 239.116 -204.8 239.116 -198 233 C-194.459 227.847 -194.459 227.847 -193 222 C-192.34 222.33 -191.68 222.66 -191 223 C-192.98 226.96 -194.96 230.92 -197 235 C-191.913 234.418 -187.474 233.304 -182.625 231.562 C-180.788 230.915 -180.788 230.915 -178.914 230.254 C-175.894 229.326 -175.894 229.326 -175 227 C-176.166 224.529 -177.39 222.151 -178.688 219.75 C-186.432 204.809 -189.618 188.811 -189 172 C-191.904 170.402 -194.481 169.578 -197.738 169 C-198.641 168.835 -199.544 168.67 -200.475 168.5 C-201.411 168.335 -202.348 168.17 -203.312 168 C-213.751 166.138 -213.751 166.138 -217.984 164.883 C-220.84 164.047 -223.048 163.821 -226 164 Z M-8.625 165.375 C-10.215 166.9 -10.215 166.9 -10 169 C-10.639 169.227 -11.279 169.454 -11.938 169.688 C-14.157 170.841 -14.157 170.841 -15 173.125 C-15 177.398 -13.515 180.573 -11 184 C-7.932 186.038 -7.932 186.038 -5 187 C-3.455 185.455 -3.87 183.998 -3.867 181.852 C-3.866 181.011 -3.865 180.171 -3.863 179.305 C-3.867 178.42 -3.871 177.536 -3.875 176.625 C-3.871 175.748 -3.867 174.872 -3.863 173.969 C-3.865 173.126 -3.866 172.283 -3.867 171.414 C-3.868 170.64 -3.869 169.866 -3.871 169.069 C-3.924 166.802 -3.924 166.802 -5 164 C-7.1 163.785 -7.1 163.785 -8.625 165.375 Z M-51.938 167.438 C-56.382 169.705 -61.028 170.162 -66 170 C-66.99 169.34 -67.98 168.68 -69 168 C-82.61 182.078 -93.522 203.201 -95 223 C-94.489 228.374 -93.197 233.403 -91.688 238.562 C-91.487 239.291 -91.287 240.02 -91.08 240.771 C-89.164 247.363 -86.529 252.486 -80.562 256.25 C-79.821 256.73 -79.08 257.209 -78.316 257.703 C-73.277 260.616 -73.277 260.616 -67.688 260.125 C-66.801 259.754 -65.914 259.382 -65 259 C-65.66 255.37 -66.32 251.74 -67 248 C-70.3 247.67 -73.6 247.34 -77 247 C-77.33 245.68 -77.66 244.36 -78 243 C-74.257 239.257 -70.024 239.236 -65 239 C-64.014 239.079 -63.028 239.157 -62.012 239.238 C-58.083 238.927 -56.936 237.637 -54.188 234.875 C-47.777 228.753 -41.289 224.174 -33 221 C-33.267 219.015 -33.267 219.015 -34 217 C-34.99 216.67 -35.98 216.34 -37 216 C-37 215.34 -37 214.68 -37 214 C-36.157 213.867 -35.314 213.734 -34.445 213.598 C-33.35 213.421 -32.254 213.244 -31.125 213.062 C-30.034 212.888 -28.944 212.714 -27.82 212.535 C-25.062 212.144 -25.062 212.144 -23 211 C-23.39 208.192 -23.668 206.401 -25.5 204.188 C-27.125 201.818 -27.285 200.674 -27.562 197.875 C-27.593 193.991 -27.593 193.991 -30 192 C-31.941 192.276 -31.941 192.276 -34 193 C-35.333 193.333 -36.667 193.667 -38 194 C-38.155 192.639 -38.155 192.639 -38.312 191.25 C-39.004 187.98 -39.821 186.463 -42 184 C-43.32 184.33 -44.64 184.66 -46 185 C-46.17 185.762 -46.34 186.524 -46.516 187.309 C-48.066 193.913 -49.977 199.924 -53 206 C-53.66 206 -54.32 206 -55 206 C-55.041 204.928 -55.082 203.855 -55.125 202.75 C-56.244 197.954 -57.959 197.526 -62 195 C-63.193 192.092 -63.182 190.641 -62.328 187.633 C-60.654 184.314 -58.639 182.637 -55.75 180.312 C-54.817 179.546 -53.883 178.779 -52.922 177.988 C-49.973 175.982 -47.396 175.015 -44 174 C-42.121 172.625 -42.121 172.625 -41 171 C-41 170.34 -41 169.68 -41 169 C-43.31 169.33 -45.62 169.66 -48 170 C-48 168.68 -48 167.36 -48 166 C-50.134 165.801 -50.134 165.801 -51.938 167.438 Z M36 166 C37 168 37 168 37 168 Z M-263 168 C-261.638 172.689 -259.648 176.617 -257 180.688 C-256.611 181.29 -256.221 181.892 -255.82 182.512 C-251.832 188.512 -247.294 194.096 -242 199 C-241.34 199 -240.68 199 -240 199 C-237.03 187.615 -237.03 187.615 -234 176 C-239.831 173.47 -239.831 173.47 -245.734 171.613 C-246.556 171.397 -247.377 171.181 -248.223 170.959 C-249.057 170.746 -249.891 170.532 -250.75 170.312 C-251.599 170.088 -252.449 169.863 -253.324 169.631 C-258.098 168.381 -258.098 168.381 -263 168 Z M79 168 C78.67 168.66 78.34 169.32 78 170 C78.66 170 79.32 170 80 170 C79.67 169.34 79.34 168.68 79 168 Z M34 175 C35 179 35 179 35 179 Z M79 175 C79 175.99 79 176.98 79 178 C79.66 178 80.32 178 81 178 C81 177.01 81 176.02 81 175 C80.34 175 79.68 175 79 175 Z M89 176 C89 177.32 89 178.64 89 180 C89.99 179.67 90.98 179.34 92 179 C91.67 178.01 91.34 177.02 91 176 C90.34 176 89.68 176 89 176 Z M-50 178 C-50.66 178.66 -51.32 179.32 -52 180 C-51.681 182.108 -51.681 182.108 -51 184 C-49.68 183.34 -48.36 182.68 -47 182 C-47 180.68 -47 179.36 -47 178 C-47.99 178 -48.98 178 -50 178 Z M67 181 C67 181.99 67 182.98 67 184 C67.99 184 68.98 184 70 184 C69.67 183.01 69.34 182.02 69 181 C68.34 181 67.68 181 67 181 Z M79 183 C79 183.99 79 184.98 79 186 C79.66 186 80.32 186 81 186 C80.67 185.01 80.34 184.02 80 183 C79.67 183 79.34 183 79 183 Z M32 186 C33 189 33 189 33 189 Z M79 190 C78.67 190.99 78.34 191.98 78 193 C78.99 193.33 79.98 193.66 81 194 C81 192.68 81 191.36 81 190 C80.34 190 79.68 190 79 190 Z M18 191 C19.98 191.99 19.98 191.99 22 193 C22.33 192.34 22.66 191.68 23 191 C21.35 191 19.7 191 18 191 Z M37 194 C37.66 194.66 38.32 195.32 39 196 C39 195.34 39 194.68 39 194 C38.34 194 37.68 194 37 194 Z M46 196 C47.485 196.99 47.485 196.99 49 198 C49 197.34 49 196.68 49 196 C48.01 196 47.02 196 46 196 Z M59 198 C59 198.66 59 199.32 59 200 C60.32 199.67 61.64 199.34 63 199 C61.68 198.67 60.36 198.34 59 198 Z M30 199 C31 202 31 202 31 202 Z M74 202 C74.33 202.66 74.66 203.32 75 204 C75.99 203.67 76.98 203.34 78 203 C76.68 202.67 75.36 202.34 74 202 Z M85 205 C86.98 205.99 86.98 205.99 89 207 C88.67 206.34 88.34 205.68 88 205 C87.01 205 86.02 205 85 205 Z M-263 208 C-263.291 208.701 -263.583 209.403 -263.883 210.125 C-268.727 221.336 -274.187 229.426 -285.852 234.156 C-289.33 235.088 -292.281 235.198 -295.875 235.125 C-297.604 235.098 -297.604 235.098 -299.367 235.07 C-300.236 235.047 -301.105 235.024 -302 235 C-298.361 243.229 -290.446 248.45 -283 253 C-293.287 250.003 -299.293 243.049 -305.172 234.434 C-307.482 231.358 -309.625 229.772 -313 228 C-311.38 237.586 -300.397 246.447 -293 252 C-290.121 253.997 -287.181 255.866 -284.188 257.688 C-283.47 258.134 -282.753 258.581 -282.014 259.041 C-278.602 261.028 -276.692 262.024 -272.672 261.887 C-262.83 258.621 -258.244 247.583 -253.812 239 C-248.926 229.851 -248.926 229.851 -247.105 219.91 C-248.396 217.154 -250.23 216.104 -252.75 214.438 C-253.611 213.859 -254.472 213.28 -255.359 212.684 C-257.881 211.076 -260.427 209.523 -263 208 Z M28 208 C28 208.66 28 209.32 28 210 C28.66 210 29.32 210 30 210 C30 209.34 30 208.68 30 208 C29.34 208 28.68 208 28 208 Z M104 208 C105 210 105 210 105 210 Z M111 209 C110.67 209.66 110.34 210.32 110 211 C110.66 211 111.32 211 112 211 C111.67 210.34 111.34 209.68 111 209 Z M-28 215 C-28 215.99 -28 216.98 -28 218 C-24.535 217.505 -24.535 217.505 -21 217 C-21 215.68 -21 214.36 -21 213 C-24.106 213 -25.353 213.539 -28 215 Z M27 218 C28 220 28 220 28 220 Z M93.062 225.375 C90.194 228.407 89 230.703 89 235 C90.112 236.304 90.112 236.304 92.875 236.5 C98.699 236.44 103.601 232.483 108 229 C111.124 225.865 111.124 225.865 111.938 221.812 C111.007 219.655 111.007 219.655 108 218 C102.074 218 97.297 221.437 93.062 225.375 Z M26 227 C25.67 227.66 25.34 228.32 25 229 C25.66 229 26.32 229 27 229 C26.67 228.34 26.34 227.68 26 227 Z M110 232 C111 234 111 234 111 234 Z M-182.355 236.57 C-183.193 236.843 -184.031 237.116 -184.895 237.397 C-187.661 238.3 -190.424 239.212 -193.188 240.125 C-195.114 240.757 -197.041 241.388 -198.968 242.019 C-214.086 246.985 -229.154 252.094 -244.194 257.292 C-248.051 258.624 -251.913 259.94 -255.78 261.244 C-257.278 261.754 -258.774 262.271 -260.267 262.795 C-262.44 263.555 -264.619 264.294 -266.801 265.027 C-268.046 265.457 -269.292 265.886 -270.575 266.328 C-278.883 267.958 -286.375 261.419 -293 257 C-300.91 251.226 -308.073 244.824 -314 237 C-316.812 243.662 -318.078 250.185 -319.188 257.312 C-319.365 258.396 -319.542 259.479 -319.725 260.596 C-320.671 266.271 -320.671 266.271 -321 272 C-320.243 271.996 -319.487 271.991 -318.707 271.987 C-311.446 271.946 -304.184 271.916 -296.922 271.896 C-293.192 271.886 -289.462 271.872 -285.732 271.849 C-262.941 271.712 -240.434 272.522 -217.79 275.389 C-210.485 276.286 -204.546 276.584 -197.625 273.688 C-187.456 269.843 -176.59 267.64 -165.688 268.125 C-161.995 268.226 -161.296 268.206 -158.125 266 C-157.424 265.01 -156.722 264.02 -156 263 C-155.526 262.337 -155.051 261.675 -154.562 260.992 C-152.591 258.102 -152.591 258.102 -151 255 C-152.105 251.685 -152.876 251.03 -155.5 248.875 C-167.762 238.475 -167.762 238.475 -170 234 C-174.517 234 -178.127 235.169 -182.355 236.57 Z M-44 235 C-43 237 -43 237 -43 237 Z M5 236 C6 238 6 238 6 238 Z M24 237 C25 239 25 239 25 239 Z M16 238 C20 239 20 239 20 239 Z M108 241 C109 244 109 244 109 244 Z M-45 242 C-44 244 -44 244 -44 244 Z M58 242 C58 242.66 58 243.32 58 244 C59.32 243.67 60.64 243.34 62 243 C60.68 242.67 59.36 242.34 58 242 Z M69 244 C69 244.66 69 245.32 69 246 C69.99 245.67 70.98 245.34 72 245 C71.01 244.67 70.02 244.34 69 244 Z M23 245 C24 247 24 247 24 247 Z M79 246 C83 247 83 247 83 247 Z M89 247 C89.66 247.66 90.32 248.32 91 249 C91 248.34 91 247.68 91 247 C90.34 247 89.68 247 89 247 Z M-46 248 C-45 250 -45 250 -45 250 Z M106 250 C106.66 250.66 107.32 251.32 108 252 C108 251.34 108 250.68 108 250 C107.34 250 106.68 250 106 250 Z M77.105 251.551 C72.316 252.573 67.768 252.153 63 251.25 C57.502 250.495 53.688 253.142 49.305 256.172 C45.7 258.962 43.069 261.946 41 266 C40.74 269.191 40.74 269.191 42 272 C44.408 273.852 45.927 275 49 275 C49.402 276.145 49.402 276.145 49.812 277.312 C51.295 280.678 51.295 280.678 54 283 C60.856 285.208 67.127 285.811 74.125 284 C78.263 282.94 81.99 283.023 86.25 283.188 C91.594 283.27 91.594 283.27 96.375 281 C98.459 277.152 98.949 274.282 98 270 C96.183 267.145 94.412 265.32 91.75 263.25 C89.343 260.156 89.764 257.829 90.055 254.023 C90.226 251.767 90.226 251.767 88 250 C84.12 249.544 80.839 250.563 77.105 251.551 Z M2 253 C3 255 3 255 3 255 Z M104 259 C105 262 105 262 105 262 Z M-3 262 C-3 262.33 -3 262.66 -3 263 C3.084 263.198 3.084 263.198 9 262 C9 261.34 9 260.68 9 260 C4.668 259.737 1.12 260.708 -3 262 Z M-138 262 C-138.66 263.114 -139.32 264.228 -140 265.375 C-140.371 266.001 -140.743 266.628 -141.125 267.273 C-142.151 268.975 -142.151 268.975 -142 271 C-141.01 271 -140.02 271 -139 271 C-136.641 266.736 -136.641 266.736 -136 262 C-136.66 262 -137.32 262 -138 262 Z M-135 264 C-136.98 268.455 -136.98 268.455 -139 273 C-138.108 273.713 -137.216 274.426 -136.297 275.16 C-135.114 276.127 -133.932 277.095 -132.75 278.062 C-131.87 278.761 -131.87 278.761 -130.973 279.475 C-127.76 282.128 -126.121 283.732 -124.363 287.637 C-123.004 290.24 -122.161 290.927 -119.436 292.162 C-116.124 293.165 -112.813 293.987 -109.438 294.75 C-108.308 295.027 -107.178 295.304 -106.014 295.59 C-103.772 296.14 -101.528 296.68 -99.281 297.209 C-94.49 298.364 -89.744 299.67 -85 301 C-86.265 297.814 -87.562 294.647 -88.91 291.496 C-89.26 290.673 -89.61 289.85 -89.971 289.002 C-90.701 287.288 -91.432 285.574 -92.166 283.861 C-92.515 283.04 -92.863 282.218 -93.223 281.371 C-93.54 280.628 -93.857 279.885 -94.184 279.119 C-94.964 277.094 -95.524 275.114 -96 273 C-96.89 272.858 -96.89 272.858 -97.797 272.712 C-108.71 270.933 -119.12 269.087 -129.418 264.953 C-132.01 263.827 -132.01 263.827 -135 264 Z M22 265 C23 267 23 267 23 267 Z M2 266 C2.33 266.66 2.66 267.32 3 268 C3.33 267.34 3.66 266.68 4 266 C3.34 266 2.68 266 2 266 Z M-32 269 C-28.843 275.128 -23.413 281.227 -17 284 C-14.747 283.794 -14.747 283.794 -13 283 C-13.479 278.693 -15.827 276.768 -19 274 C-24.047 270.262 -24.047 270.262 -30 268.688 C-30.66 268.791 -31.32 268.894 -32 269 Z M102 269 C103 271 103 271 103 271 Z M101 271 C102 273 102 273 102 273 Z M21 274 C22 277 22 277 22 277 Z M-53 279 C-54.63 282.26 -54.467 284.378 -54 288 C-51.966 290.945 -49.481 293.429 -47 296 C-41.658 301.808 -38.799 308.532 -35.803 315.742 C-35.483 316.504 -35.162 317.266 -34.832 318.051 C-34.551 318.738 -34.27 319.426 -33.98 320.134 C-32.873 322.242 -31.893 323.549 -30 325 C-28.68 325 -27.36 325 -26 325 C-25.836 323.788 -25.836 323.788 -25.668 322.551 C-25.43 320.948 -25.43 320.948 -25.188 319.312 C-25.037 318.257 -24.886 317.201 -24.73 316.113 C-23.132 309.299 -19.576 306.682 -14 303 C-14.132 297.588 -14.482 293.434 -18.422 289.336 C-23.138 285.343 -28.582 282.633 -34.125 279.98 C-36 279 -36 279 -39.125 276.75 C-44.816 273.286 -48.392 274.524 -53 279 Z M-322 280 C-323.157 304.224 -320.313 329.843 -313 353 C-309.58 353 -309.172 352.618 -306.664 350.508 C-306.019 349.973 -305.374 349.438 -304.709 348.887 C-304.021 348.305 -303.334 347.724 -302.625 347.125 C-301.17 345.918 -299.715 344.712 -298.258 343.508 C-297.535 342.909 -296.812 342.31 -296.067 341.692 C-293.26 339.394 -290.39 337.195 -287.5 335 C-282.647 331.302 -277.904 327.495 -273.188 323.625 C-266.41 318.07 -259.468 312.773 -252.426 307.559 C-250.345 306.017 -248.314 304.45 -246.293 302.828 C-244.248 301.198 -242.19 299.737 -240 298.312 C-236.053 295.71 -232.142 293.059 -228.25 290.375 C-227.183 289.64 -226.115 288.905 -225.016 288.148 C-222.261 286.186 -219.617 284.142 -217 282 C-220.832 281.513 -224.666 281.037 -228.5 280.562 C-229.558 280.428 -230.617 280.293 -231.707 280.154 C-247.294 278.241 -262.724 277.837 -278.409 277.87 C-281.495 277.875 -284.581 277.87 -287.668 277.863 C-305.784 276.371 -305.784 276.371 -322 280 Z M99 279 C100 281 100 281 100 281 Z M20 284 C19.67 284.99 19.34 285.98 19 287 C19.66 287 20.32 287 21 287 C20.67 286.01 20.34 285.02 20 284 Z M19 294 C18.67 294.99 18.34 295.98 18 297 C18.66 297 19.32 297 20 297 C19.67 296.01 19.34 295.02 19 294 Z M96 294 C97 297 97 297 97 297 Z M-51 295 C-50 298 -50 298 -50 298 Z M-62 303 C-61.34 303.66 -60.68 304.32 -60 305 C-60 304.34 -60 303.68 -60 303 C-60.66 303 -61.32 303 -62 303 Z M18 303 C17.67 303.66 17.34 304.32 17 305 C17.66 305 18.32 305 19 305 C18.67 304.34 18.34 303.68 18 303 Z M76 303 C75.34 303.66 74.68 304.32 74 305 C74.319 307.108 74.319 307.108 75 309 C75.66 308.01 76.32 307.02 77 306 C78.65 306.33 80.3 306.66 82 307 C81.67 306.01 81.34 305.02 81 304 C78.603 303.32 78.603 303.32 76 303 Z M-54 304 C-53.67 304.66 -53.34 305.32 -53 306 C-52.34 306 -51.68 306 -51 306 C-51 305.34 -51 304.68 -51 304 C-51.99 304 -52.98 304 -54 304 Z M-13 308 C-12.67 308.66 -12.34 309.32 -12 310 C-11.34 310 -10.68 310 -10 310 C-10 309.34 -10 308.68 -10 308 C-10.99 308 -11.98 308 -13 308 Z M5 310 C5.33 310.66 5.66 311.32 6 312 C6.66 311.67 7.32 311.34 8 311 C7.01 310.67 6.02 310.34 5 310 Z M-51 311 C-50 313 -50 313 -50 313 Z M15 311 C15.66 311.66 16.32 312.32 17 313 C17.33 312.34 17.66 311.68 18 311 C17.01 311 16.02 311 15 311 Z M24 312 C25 314 25 314 25 314 Z M-4 314 C-4.33 314.99 -4.66 315.98 -5 317 C-3.68 316.67 -2.36 316.34 -1 316 C-1.33 315.34 -1.66 314.68 -2 314 C-2.66 314 -3.32 314 -4 314 Z M32 314 C36 315 36 315 36 315 Z M42 315 C42.66 315.66 43.32 316.32 44 317 C44 316.34 44 315.68 44 315 C43.34 315 42.68 315 42 315 Z M16 319 C16.33 319.66 16.66 320.32 17 321 C17.33 320.34 17.66 319.68 18 319 C17.34 319 16.68 319 16 319 Z M-50 320 C-49 322 -49 322 -49 322 Z M-10 321 C-10.495 322.98 -10.495 322.98 -11 325 C-10.01 325 -9.02 325 -8 325 C-8.33 323.68 -8.66 322.36 -9 321 C-9.33 321 -9.66 321 -10 321 Z M-205 323 C-205 323.66 -205 324.32 -205 325 C-193.871 328.407 -182.66 330.402 -171 330 C-171 329.01 -171 328.02 -171 327 C-172.597 326.944 -172.597 326.944 -174.227 326.887 C-182.832 326.519 -190.851 325.656 -199.242 323.621 C-202.017 322.89 -202.017 322.89 -205 323 Z M111 325 C111.743 325.577 112.485 326.155 113.25 326.75 C117.026 329.839 120.055 332.462 122 337 C122.66 336.34 123.32 335.68 124 335 C121.453 330.849 119.113 327.673 115 325 C113.68 325 112.36 325 111 325 Z M-50 327 C-49 329 -49 329 -49 329 Z M16 327 C17 329 17 329 17 329 Z M-211 332 C-212.428 334.101 -213.787 336.216 -215.125 338.375 C-215.558 339.07 -215.991 339.766 -216.437 340.482 C-221.314 348.391 -225.92 356.457 -230.544 364.516 C-234.426 371.282 -238.37 377.997 -242.406 384.672 C-245.882 390.448 -249.293 396.262 -252.707 402.074 C-253.479 403.388 -254.251 404.701 -255.024 406.013 C-256.12 407.874 -257.212 409.735 -258.305 411.598 C-258.944 412.686 -259.583 413.774 -260.242 414.895 C-263.841 420.839 -263.841 420.839 -265 427.5 C-263.815 431.649 -262.361 434.348 -259 437 C-252.237 440.668 -245.799 443.65 -238 443 C-232.453 440.435 -229.715 437.925 -226.938 432.438 C-226.574 431.758 -226.21 431.078 -225.835 430.377 C-224.535 427.929 -223.267 425.466 -222 423 C-220.912 420.905 -219.823 418.81 -218.734 416.715 C-216.937 413.252 -215.143 409.788 -213.356 406.32 C-209.749 399.325 -206.058 392.388 -202.25 385.5 C-197.191 376.314 -192.316 367.035 -187.497 357.721 C-186.669 356.121 -185.838 354.523 -185.006 352.925 C-183.836 350.679 -182.675 348.428 -181.516 346.176 C-181.16 345.496 -180.804 344.815 -180.438 344.114 C-178.953 341.209 -178 339.311 -178 336 C-182.03 337.343 -182.271 338.916 -184.152 342.668 C-184.448 343.25 -184.744 343.832 -185.049 344.432 C-185.687 345.689 -186.32 346.948 -186.949 348.209 C-188.622 351.559 -190.327 354.894 -192.027 358.23 C-192.368 358.901 -192.708 359.571 -193.059 360.261 C-195.93 365.902 -198.933 371.463 -202 377 C-207.035 386.122 -211.832 395.358 -216.588 404.627 C-220.962 413.147 -225.438 421.593 -230.208 429.899 C-232.29 433.236 -232.29 433.236 -233 437 C-237.223 439.048 -240.327 439.593 -245 439 C-257.574 433.83 -257.574 433.83 -260 430 C-261.035 422.75 -258.547 418.451 -254.812 412.375 C-254.271 411.463 -253.73 410.552 -253.173 409.612 C-252.032 407.692 -250.883 405.776 -249.728 403.864 C-248.076 401.127 -246.451 398.376 -244.836 395.617 C-239.717 386.882 -234.521 378.193 -229.302 369.517 C-226.792 365.343 -224.289 361.165 -221.788 356.986 C-220.612 355.021 -219.433 353.058 -218.251 351.096 C-216.657 348.445 -215.077 345.786 -213.5 343.125 C-213.025 342.34 -212.55 341.556 -212.06 340.747 C-210.961 338.876 -209.969 336.942 -209 335 C-209.495 333.515 -209.495 333.515 -210 332 C-210.33 332 -210.66 332 -211 332 Z M149 334 C149.66 336.31 150.32 338.62 151 341 C153.64 341 156.28 341 159 341 C159.66 339.68 160.32 338.36 161 337 C159.564 336.494 158.126 335.996 156.688 335.5 C155.887 335.222 155.086 334.943 154.262 334.656 C151.912 333.861 151.912 333.861 149 334 Z M15 335 C15 335.66 15 336.32 15 337 C15.66 337 16.32 337 17 337 C17 336.34 17 335.68 17 335 C16.34 335 15.68 335 15 335 Z M120 341 C120 341.66 120 342.32 120 343 C122.886 342.602 123.822 342.21 125.75 339.938 C126.163 339.298 126.575 338.659 127 338 C124.057 338 122.385 339.368 120 341 Z M-149 343 C-148.839 350.129 -147.849 355.575 -143 361 C-139.908 363.775 -137.01 365.866 -132.777 366.148 C-129.409 365.818 -127.425 365.425 -125 363 C-125.905 362.49 -125.905 362.49 -126.828 361.969 C-135.218 356.881 -137.687 351.251 -140 342 C-143.042 342 -145.995 342.555 -149 343 Z M15 343 C16 345 16 345 16 345 Z M150 343 C149.835 343.591 149.67 344.182 149.5 344.791 C145.158 360.248 140.232 375.422 134.829 390.54 C134.107 392.682 133.508 394.799 133 397 C133.66 397.33 134.32 397.66 135 398 C136.32 394.7 137.64 391.4 139 388 C138.649 389.361 138.299 390.722 137.938 392.125 C137.05 396.055 136.986 399.044 138 403 C140.171 402.184 140.171 402.184 140.834 400.042 C141.108 399.183 141.382 398.324 141.664 397.439 C142.135 395.982 142.135 395.982 142.615 394.494 C143.115 392.904 143.115 392.904 143.625 391.281 C143.973 390.194 144.32 389.107 144.678 387.987 C145.415 385.678 146.148 383.368 146.877 381.057 C147.987 377.54 149.11 374.028 150.234 370.516 C150.949 368.271 151.662 366.026 152.375 363.781 C152.708 362.737 153.042 361.693 153.385 360.617 C155.221 354.783 156.769 348.992 158 343 C155.36 343 152.72 343 150 343 Z M22 384 C20.913 384.108 20.913 384.108 19.805 384.219 C14.853 384.694 9.981 385.135 5 385 C9.067 387.712 13.284 388.505 18.078 387.613 C19.738 387.138 21.373 386.576 23 386 C22.67 385.34 22.34 384.68 22 384 Z M-176 388 C-176.66 390.31 -177.32 392.62 -178 395 C-125.076 413.732 -69.845 426.323 -15.438 440 C-14.219 440.308 -13.001 440.615 -11.746 440.932 C-8.331 441.793 -4.914 442.648 -1.496 443.5 C-0.486 443.755 0.525 444.011 1.566 444.274 C2.492 444.503 3.419 444.733 4.373 444.969 C5.175 445.169 5.977 445.37 6.803 445.576 C9.282 446.126 9.282 446.126 13 446 C13 443.36 13 440.72 13 438 C11.835 437.72 10.67 437.441 9.47 437.152 C-35.862 426.245 -81.012 414.642 -125.875 401.938 C-126.941 401.636 -128.007 401.334 -129.105 401.024 C-141.379 397.542 -153.613 393.955 -165.787 390.136 C-167.142 389.716 -167.142 389.716 -168.524 389.287 C-169.318 389.038 -170.113 388.789 -170.931 388.532 C-173.128 387.875 -173.128 387.875 -176 388 Z M121.474 400.6 C120.551 400.951 119.627 401.303 118.676 401.666 C117.668 402.054 116.66 402.443 115.621 402.844 C113.43 403.677 111.238 404.509 109.046 405.34 C107.316 405.996 107.316 405.996 105.55 406.666 C99.667 408.877 93.758 411.018 87.848 413.156 C86.036 413.812 86.036 413.812 84.189 414.48 C80.48 415.821 76.771 417.161 73.062 418.5 C70.589 419.394 68.116 420.289 65.643 421.184 C63.19 422.07 60.738 422.957 58.285 423.844 C57.096 424.274 55.907 424.704 54.682 425.147 C48.676 427.317 42.667 429.478 36.652 431.625 C35.489 432.041 34.326 432.457 33.127 432.885 C30.918 433.675 28.709 434.462 26.498 435.246 C25.036 435.769 25.036 435.769 23.545 436.303 C22.259 436.76 22.259 436.76 20.947 437.227 C19.028 437.84 19.028 437.84 18 439 C17.959 440.666 17.957 442.334 18 444 C24.138 442.729 30.099 441.145 36.078 439.27 C37.872 438.715 39.666 438.161 41.46 437.607 C42.402 437.315 43.344 437.023 44.315 436.722 C65.681 430.104 87.153 423.909 108.694 417.888 C109.783 417.583 110.872 417.278 111.993 416.964 C114.02 416.397 116.047 415.832 118.075 415.269 C123.779 413.674 129.395 411.917 135 410 C133.02 406.37 131.04 402.74 129 399 C125.928 399 124.307 399.509 121.474 400.6 Z " fill="#000000" transform="translate(506,211)"/>
<path d="M0 0 C0.66 0 1.32 0 2 0 C0.984 5.469 -0.071 10.764 -2 16 C-2.99 16 -3.98 16 -5 16 C-4.545 14.27 -4.086 12.541 -3.625 10.812 C-3.37 9.85 -3.115 8.887 -2.852 7.895 C-2.052 5.178 -1.097 2.609 0 0 Z " fill="#000000" transform="translate(496,291)"/>
<path d="M0 0 C0.66 0 1.32 0 2 0 C1.386 4.802 -0.617 8.549 -2.875 12.75 C-3.227 13.434 -3.579 14.119 -3.941 14.824 C-6.633 19.878 -6.633 19.878 -10 21 C-9.364 18.008 -8.38 15.581 -6.934 12.891 C-6.531 12.137 -6.128 11.382 -5.713 10.605 C-5.292 9.828 -4.871 9.051 -4.438 8.25 C-4.013 7.457 -3.588 6.664 -3.15 5.848 C-2.104 3.896 -1.054 1.947 0 0 Z " fill="#000000" transform="translate(532,297)"/>
<path d="M0 0 C7.907 0.645 15.391 2.87 23 5 C23 5.66 23 6.32 23 7 C15.093 6.355 7.609 4.13 0 2 C0 1.34 0 0.68 0 0 Z " fill="#000000" transform="translate(222,319)"/>
<path d="M0 0 C0.66 0.66 1.32 1.32 2 2 C3.809 1.696 3.809 1.696 6 1 C9.5 0.188 9.5 0.188 13 0 C15.438 1.562 15.438 1.562 17 4 C17.637 7.661 17.253 9.505 15.562 12.812 C12.252 17.327 8.022 21.132 4 25 C0.363 23.736 -2.006 22.385 -4.688 19.625 C-5.269 19.04 -5.85 18.455 -6.449 17.852 C-9.663 14.015 -10.459 10.824 -10.312 5.906 C-10 4 -10 4 -8.375 1.5 C-5.349 -0.411 -3.518 -0.459 0 0 Z M-4 3 C-6.291 4.91 -6.291 4.91 -6.562 8.125 C-5.772 13.571 -2.832 16.237 1 20 C5.859 17.669 10.259 14.76 13 10 C13.251 7.332 13.251 7.332 13 5 C10.707 4.14 10.707 4.14 8 4 C5.833 5.833 5.833 5.833 4 8 C3.01 8.33 2.02 8.66 1 9 C0.732 8.196 0.464 7.391 0.188 6.562 C-0.204 5.717 -0.596 4.871 -1 4 C-1.99 3.67 -2.98 3.34 -4 3 Z " fill="#000000" transform="translate(391,346)"/>
<path d="M0 0 C4.95 0 9.9 0 15 0 C14.67 0.99 14.34 1.98 14 3 C7.07 2.505 7.07 2.505 0 2 C0 1.34 0 0.68 0 0 Z " fill="#000000" transform="translate(204,362)"/>
<path d="M0 0 C8.541 0.505 16.674 2.067 25 4 C25 4.99 25 5.98 25 7 C16.75 5.35 8.5 3.7 0 2 C0 1.34 0 0.68 0 0 Z " fill="#000000" transform="translate(287,382)"/>
<path d="M0 0 C0.66 0 1.32 0 2 0 C2 5.94 2 11.88 2 18 C4.145 18.124 6.29 18.248 8.5 18.375 C13.918 18.754 18.807 19.442 24 21 C24 21.66 24 22.32 24 23 C22.02 22.884 20.041 22.756 18.062 22.625 C16.409 22.521 16.409 22.521 14.723 22.414 C10.433 21.937 6.214 20.936 2 20 C1.67 26.27 1.34 32.54 1 39 C0.34 39 -0.32 39 -1 39 C-1 32.73 -1 26.46 -1 20 C-4.63 19.34 -8.26 18.68 -12 18 C-12 17.34 -12 16.68 -12 16 C-8.37 16 -4.74 16 -1 16 C-0.67 10.72 -0.34 5.44 0 0 Z " fill="#000000" transform="translate(668,391)"/>
<path d="M0 0 C4.397 0.236 8.794 0.484 13.19 0.745 C14.686 0.831 16.183 0.915 17.68 0.995 C19.828 1.11 21.974 1.237 24.121 1.367 C26.061 1.477 26.061 1.477 28.041 1.589 C29.017 1.725 29.994 1.86 31 2 C31.33 2.66 31.66 3.32 32 4 C28.113 4.959 24.806 4.994 20.824 4.66 C19.667 4.567 18.51 4.473 17.318 4.377 C16.12 4.273 14.922 4.169 13.688 4.062 C12.47 3.963 11.252 3.863 9.998 3.76 C6.998 3.513 3.999 3.259 1 3 C0.67 2.01 0.34 1.02 0 0 Z " fill="#000000" transform="translate(368,396)"/>
<path d="M0 0 C0.66 0 1.32 0 2 0 C-0.287 6.671 -3.947 10.447 -10 14 C-10.66 14 -11.32 14 -12 14 C-10.863 10.589 -9.847 9.801 -7.125 7.562 C-4.894 5.722 -3.084 4.114 -1.367 1.777 C-0.69 0.898 -0.69 0.898 0 0 Z " fill="#000000" transform="translate(246,427)"/>
<path d="M0 0 C0.99 0 1.98 0 3 0 C1.64 3.12 0.167 5.008 -2.438 7.188 C-3.333 7.951 -3.333 7.951 -4.246 8.73 C-6 10 -6 10 -9 11 C-9 10.01 -9 9.02 -9 8 C-7.539 6.719 -7.539 6.719 -5.625 5.5 C-2.885 3.741 -1.885 2.827 0 0 Z " fill="#000000" transform="translate(252,437)"/>
<path d="M0 0 C0 0.66 0 1.32 0 2 C-4.98 2.432 -9.961 2.859 -14.941 3.282 C-16.633 3.426 -18.324 3.572 -20.016 3.718 C-22.458 3.93 -24.901 4.137 -27.344 4.344 C-28.09 4.409 -28.836 4.475 -29.605 4.543 C-34.421 4.944 -39.167 5.057 -44 5 C-44.33 4.34 -44.66 3.68 -45 3 C-29.88 0.282 -15.329 -0.132 0 0 Z " fill="#000000" transform="translate(248,504)"/>
<path d="M0 0 C6.908 0.368 12.638 1.239 19 4 C19 4.66 19 5.32 19 6 C16.018 5.385 13.04 4.759 10.062 4.125 C9.212 3.951 8.362 3.777 7.486 3.598 C6.677 3.424 5.869 3.25 5.035 3.07 C4.286 2.913 3.537 2.756 2.766 2.594 C1 2 1 2 0 0 Z " fill="#000000" transform="translate(664,518)"/>
<path d="M0 0 C6.635 0.555 12.591 1.83 18.938 3.812 C19.811 4.079 20.684 4.346 21.583 4.622 C27.509 6.461 33.331 8.464 39 11 C39 11.66 39 12.32 39 13 C33.917 12.334 29.374 10.87 24.562 9.188 C16.456 6.412 8.311 4.084 0 2 C0 1.34 0 0.68 0 0 Z " fill="#000000" transform="translate(388,527)"/>
<path d="M0 0 C0.99 0.33 1.98 0.66 3 1 C2.048 2.006 1.088 3.005 0.125 4 C-0.409 4.557 -0.942 5.114 -1.492 5.688 C-3 7 -3 7 -5 7 C-3.75 3.347 -3.329 2.219 0 0 Z " fill="#000000" transform="translate(635,564)"/>
<path d="M0 0 C0.66 0.33 1.32 0.66 2 1 C-0.018 9.957 -2.787 18.416 -6 27 C-6.66 27 -7.32 27 -8 27 C-6.688 20.636 -4.988 14.579 -2.875 8.438 C-2.598 7.62 -2.321 6.802 -2.035 5.959 C-1.361 3.971 -0.681 1.985 0 0 Z " fill="#000000" transform="translate(641,564)"/>
<path d="M0 0 C7.703 0.524 14.977 1.997 22.465 3.836 C24.198 4.256 24.198 4.256 25.965 4.684 C28.389 5.274 30.812 5.868 33.234 6.465 C36.948 7.377 40.666 8.271 44.385 9.164 C46.745 9.741 49.105 10.319 51.465 10.898 C52.577 11.164 53.69 11.43 54.836 11.704 C56.379 12.089 56.379 12.089 57.953 12.482 C58.858 12.703 59.762 12.924 60.694 13.152 C63.15 14.055 64.33 15.019 66 17 C58.618 16.358 51.614 14.89 44.414 13.164 C43.235 12.884 42.057 12.604 40.842 12.316 C38.366 11.725 35.89 11.131 33.415 10.535 C29.619 9.624 25.819 8.729 22.02 7.836 C19.609 7.259 17.199 6.681 14.789 6.102 C13.652 5.836 12.514 5.57 11.342 5.296 C10.29 5.039 9.239 4.783 8.155 4.518 C7.229 4.297 6.304 4.076 5.35 3.848 C2.86 2.95 1.684 2.009 0 0 Z " fill="#000000" transform="translate(420,569)"/>
<path d="M0 0 C7.219 0.612 13.961 2.087 20.965 3.906 C22.079 4.191 23.194 4.476 24.342 4.769 C26.682 5.368 29.021 5.97 31.359 6.575 C34.949 7.503 38.542 8.422 42.135 9.34 C44.412 9.924 46.688 10.509 48.965 11.094 C50.042 11.37 51.119 11.646 52.229 11.93 C53.22 12.187 54.212 12.444 55.234 12.709 C56.109 12.935 56.983 13.16 57.884 13.393 C60 14 60 14 62 15 C62 15.66 62 16.32 62 17 C54.42 15.715 46.983 14.101 39.531 12.215 C38.489 11.954 37.446 11.693 36.371 11.423 C34.19 10.876 32.008 10.328 29.827 9.777 C26.482 8.933 23.136 8.094 19.789 7.256 C17.661 6.722 15.534 6.187 13.406 5.652 C12.406 5.401 11.406 5.15 10.376 4.892 C8.988 4.541 8.988 4.541 7.572 4.183 C6.759 3.978 5.947 3.773 5.109 3.562 C3.388 3.104 1.689 2.563 0 2 C0 1.34 0 0.68 0 0 Z " fill="#000000" transform="translate(409,580)"/>
<path d="M0 0 C8.194 1.314 16.089 3.278 24.062 5.562 C25.188 5.879 26.314 6.195 27.475 6.521 C35.705 8.853 35.705 8.853 38 10 C38 10.66 38 11.32 38 12 C31.079 11.112 24.442 9.447 17.709 7.671 C15.613 7.122 13.512 6.59 11.41 6.059 C10.078 5.709 8.746 5.359 7.414 5.008 C6.207 4.695 5 4.382 3.756 4.059 C2.847 3.71 1.937 3.36 1 3 C0.67 2.01 0.34 1.02 0 0 Z " fill="#000000" transform="translate(405,591)"/>
<path d="M0 0 C0.99 0.99 0.99 0.99 2 2 C-3.975 4.488 -10.016 6.752 -16.113 8.918 C-16.847 9.179 -17.581 9.44 -18.337 9.709 C-19.873 10.254 -21.409 10.8 -22.944 11.345 C-35.136 15.681 -47.231 20.074 -59.009 25.46 C-59.759 25.799 -60.509 26.139 -61.281 26.488 C-61.911 26.783 -62.541 27.077 -63.189 27.38 C-65 28 -65 28 -69 28 C-69 27.34 -69 26.68 -69 26 C-46.525 15.86 -23.625 7.079 0 0 Z " fill="#000000" transform="translate(598,609)"/>
<path d="M0 0 C0.66 0 1.32 0 2 0 C1.988 0.797 1.977 1.593 1.965 2.414 C1.881 10.255 1.881 10.255 3 18 C2.01 18 1.02 18 0 18 C-1.178 14.466 -1.133 11.597 -1.125 7.875 C-1.129 5.984 -1.129 5.984 -1.133 4.055 C-1 1 -1 1 0 0 Z " fill="#000000" transform="translate(231,634)"/>
<path d="M0 0 C0.66 0 1.32 0 2 0 C2.506 1.436 3.004 2.874 3.5 4.312 C3.778 5.113 4.057 5.914 4.344 6.738 C5 9 5 9 5 12 C4.01 11.67 3.02 11.34 2 11 C0.377 7.241 -0.24 4.079 0 0 Z " fill="#000000" transform="translate(221,647)"/>
<path d="M0 0 C0.99 0 1.98 0 3 0 C3.67 7.768 3.67 7.768 0.688 11.438 C-2 14 -2 14 -5 15 C-5 13.68 -5 12.36 -5 11 C-4.361 10.402 -3.721 9.804 -3.062 9.188 C-0.318 6.276 -0.3 3.906 0 0 Z " fill="#000000" transform="translate(284,649)"/>
<path d="M0 0 C0 0.66 0 1.32 0 2 C-2.082 2.505 -4.166 3.004 -6.25 3.5 C-7.41 3.778 -8.57 4.057 -9.766 4.344 C-13 5 -13 5 -17 5 C-16.67 4.01 -16.34 3.02 -16 2 C-13.164 1.016 -13.164 1.016 -9.625 0.25 C-8.462 -0.013 -7.3 -0.276 -6.102 -0.547 C-3 -1 -3 -1 0 0 Z " fill="#000000" transform="translate(673,655)"/>
<path d="M0 0 C0.99 0 1.98 0 3 0 C2.67 1.65 2.34 3.3 2 5 C1.01 5 0.02 5 -1 5 C-0.67 3.35 -0.34 1.7 0 0 Z " fill="#000000" transform="translate(291,660)"/>
<path d="M0 0 C5.664 0.365 10.007 1.055 15 4 C14.34 4.66 13.68 5.32 13 6 C8.71 4.68 4.42 3.36 0 2 C0 1.34 0 0.68 0 0 Z " fill="#000000" transform="translate(242,664)"/>
</svg>
