<?xml version="1.0" encoding="UTF-8"?>
<!-- Generator: visioncortex VTracer 0.6.0 -->
<svg version="1.1" xmlns="http://www.w3.org/2000/svg" width="847" height="847">
<path d="M0 0 C2.442 2.244 4.741 4.573 7 7 C8.176 8.145 8.176 8.145 9.375 9.312 C11.869 11.866 14.324 14.445 16.75 17.062 C17.529 17.899 18.307 18.736 19.109 19.598 C20.896 21.868 21.61 23.183 22 26 C18.815 22.917 15.858 19.71 12.938 16.375 C-26.84 -27.858 -91.162 -48.829 -149.189 -52.184 C-156.501 -52.468 -163.809 -52.481 -171.125 -52.438 C-172.229 -52.434 -173.332 -52.431 -174.47 -52.428 C-192.609 -52.355 -210.153 -51.421 -228 -48 C-229.125 -47.786 -230.25 -47.571 -231.409 -47.351 C-267.572 -40.205 -302.811 -26.328 -333 -5 C-334.328 -4.066 -334.328 -4.066 -335.684 -3.113 C-359.387 13.847 -382.225 33.819 -400 57 C-400.931 58.146 -401.867 59.289 -402.805 60.43 C-418.149 79.148 -431.345 99.683 -442.885 120.946 C-443.644 122.345 -444.409 123.742 -445.178 125.136 C-465.055 161.25 -478.44 200.549 -490 240 C-491.393 236.219 -490.589 233.649 -489.48 229.848 C-489.123 228.611 -488.765 227.374 -488.397 226.1 C-487.995 224.754 -487.592 223.408 -487.188 222.062 C-486.984 221.377 -486.781 220.691 -486.572 219.984 C-467.7 156.299 -438.894 93.567 -393.246 44.43 C-391.377 42.408 -389.586 40.353 -387.812 38.25 C-379.564 28.792 -370.512 19.854 -360.652 12.094 C-357.827 9.863 -355.108 7.531 -352.375 5.188 C-277.453 -57.039 -169.654 -71.053 0 0 Z " fill="#000000" transform="translate(639,162)"/>
<path d="M0 0 C1.32 0.33 2.64 0.66 4 1 C3.469 4.821 2.503 7.062 0 10 C0.638 10.205 1.276 10.41 1.934 10.621 C2.76 10.891 3.586 11.16 4.438 11.438 C5.261 11.704 6.085 11.971 6.934 12.246 C9 13 9 13 10 14 C10.656 19.625 8.757 23.396 6.25 28.25 C5.902 28.969 5.554 29.689 5.195 30.43 C2.567 35.629 2.567 35.629 -0.266 37.484 C-0.838 37.655 -1.41 37.825 -2 38 C-3.599 33.232 -2.084 30.112 0 25.812 C1.074 23.556 2.059 21.319 3 19 C2.67 18.34 2.34 17.68 2 17 C-0.025 16.743 -2.054 16.492 -4.09 16.344 C-6 16 -6 16 -8 14 C-7.723 9.779 -6.075 7.4 -3.438 4.188 C-2.477 3.002 -2.477 3.002 -1.496 1.793 C-1.002 1.201 -0.509 0.61 0 0 Z " fill="#000000" transform="translate(198,149)"/>
<path d="M0 0 C8.358 6.871 12.707 15.525 14.07 26.266 C14.599 39.736 8.98 50.15 0.25 60 C-5.94 65.435 -11.261 69.125 -19.312 71.25 C-18.551 75.617 -17.281 79.785 -15.938 84 C-15.712 84.708 -15.486 85.416 -15.254 86.145 C-14.807 87.546 -14.36 88.947 -13.912 90.347 C-13.405 91.955 -12.928 93.573 -12.457 95.191 C-11.49 98.435 -10.735 100.827 -8.312 103.25 C-4.574 105.119 -1.249 105.502 2.875 105.812 C4.505 105.938 4.505 105.938 6.168 106.066 C6.999 106.127 7.831 106.188 8.688 106.25 C9.438 107.938 9.438 107.938 9.688 110.25 C7.043 114.597 3.98 116.44 -0.562 118.562 C-1.64 119.074 -2.718 119.586 -3.828 120.113 C-4.648 120.488 -5.468 120.864 -6.312 121.25 C-1.424 144.156 6.459 164.154 17.945 184.475 C25.251 197.479 31.678 210.846 35.688 225.25 C36.006 226.39 36.324 227.529 36.652 228.703 C40.395 244.365 41.825 264.342 33.262 278.629 C30.467 282.55 27.184 285.943 23.688 289.25 C23.131 289.848 22.574 290.446 22 291.062 C20.688 292.25 20.688 292.25 18.688 292.25 C21.618 297.984 25.375 302.655 29.496 307.59 C32.514 311.253 35.557 314.989 37.688 319.25 C38.605 319.204 39.523 319.157 40.469 319.109 C48.109 318.885 53.201 319.099 59.688 323.25 C59.984 322.638 60.28 322.025 60.586 321.395 C62.012 318.618 63.121 317.074 65.688 315.25 C68.509 315.212 70.893 315.691 73.688 316.25 C74.017 315.26 74.348 314.27 74.688 313.25 C75.017 314.24 75.348 315.23 75.688 316.25 C75.192 316.848 74.697 317.446 74.188 318.062 C72.395 320.189 72.395 320.189 72.887 323.004 C73.772 326.592 75.108 329.207 77 332.375 C77.594 333.388 78.189 334.401 78.801 335.445 C80.574 338.082 82.284 340.178 84.688 342.25 C85.348 342.25 86.007 342.25 86.688 342.25 C86.954 341.757 87.22 341.264 87.494 340.756 C99.449 318.71 99.449 318.71 103.688 314.25 C105.786 313.647 105.786 313.647 107.688 313.25 C108.164 311.426 108.164 311.426 108.65 309.566 C109.833 305.044 111.026 300.526 112.222 296.008 C112.738 294.054 113.251 292.099 113.761 290.144 C114.496 287.33 115.241 284.518 115.988 281.707 C116.213 280.836 116.439 279.965 116.67 279.068 C117.828 274.751 118.882 270.825 121.688 267.25 C123.541 266.223 123.541 266.223 125.594 265.668 C126.709 265.354 126.709 265.354 127.848 265.033 C129.006 264.738 129.006 264.738 130.188 264.438 C130.96 264.222 131.732 264.006 132.527 263.783 C135.713 262.914 138.366 262.25 141.688 262.25 C141.202 265.373 140.689 268.246 139.688 271.25 C140.678 271.25 141.668 271.25 142.688 271.25 C142.562 272.228 142.562 272.228 142.434 273.227 C141.862 278.132 141.534 282.381 142.688 287.25 C144.919 286.422 144.919 286.422 145.504 283.992 C149.197 270.968 149.197 270.968 147.812 257.812 C146.757 256.091 146.757 256.091 144.688 255.25 C141.97 255.178 139.279 255.157 136.562 255.188 C135.431 255.194 135.431 255.194 134.277 255.201 C132.414 255.213 130.551 255.231 128.688 255.25 C129.017 254.26 129.348 253.27 129.688 252.25 C134.507 249.961 139.446 249.605 144.688 250.25 C148.25 251.75 148.25 251.75 150.688 253.25 C150.376 251.833 150.063 250.417 149.75 249 C149.576 248.211 149.402 247.422 149.223 246.609 C148.74 244.481 148.226 242.365 147.688 240.25 C139.439 237.5 131.95 240.097 124.062 242.688 C111.831 246.627 111.831 246.627 106.688 247.25 C106.547 241.386 107.04 235.935 108 230.156 C108.133 229.324 108.266 228.492 108.404 227.635 C108.826 225.005 109.256 222.378 109.688 219.75 C109.977 217.956 110.266 216.162 110.555 214.367 C111.259 209.994 111.971 205.622 112.688 201.25 C112.027 201.25 111.368 201.25 110.688 201.25 C110.733 202.548 110.778 203.846 110.824 205.184 C110.818 212.21 109.834 219.098 108.826 226.036 C108.5 228.309 108.202 230.585 107.904 232.861 C106.806 240.756 105.471 247.647 100.688 254.25 C100.358 254.25 100.027 254.25 99.688 254.25 C100.39 241.848 102.088 229.561 103.688 217.25 C101.707 216.92 99.727 216.59 97.688 216.25 C97.516 217.424 97.345 218.598 97.168 219.807 C96.524 224.223 95.879 228.638 95.234 233.053 C94.956 234.953 94.679 236.852 94.402 238.752 C94.133 240.597 93.863 242.442 93.593 244.287 C93.328 246.101 93.064 247.914 92.801 249.728 C92.079 254.667 91.306 259.594 90.492 264.52 C89.926 268.086 89.62 271.412 89.727 275.02 C89.84 279.703 88.641 283.563 87.062 287.938 C86.796 288.706 86.53 289.475 86.255 290.267 C83.735 297.408 80.814 304.355 77.688 311.25 C76.428 307.471 77.18 306.127 78.449 302.395 C80.622 295.636 82.171 288.907 83.5 281.938 C83.748 280.661 83.996 279.384 84.251 278.069 C85.912 269.311 87.267 260.52 88.523 251.695 C88.678 250.613 88.832 249.53 88.991 248.415 C89.762 242.979 90.513 237.541 91.24 232.098 C91.518 230.083 91.796 228.067 92.074 226.051 C92.193 225.12 92.311 224.189 92.434 223.23 C93.586 215.008 93.586 215.008 96.688 212.25 C100.769 211.74 102.217 211.936 105.688 214.25 C105.748 213.693 105.809 213.136 105.871 212.562 C106.432 207.452 107.038 202.35 107.688 197.25 C106.883 196.982 106.079 196.714 105.25 196.438 C104.404 196.046 103.559 195.654 102.688 195.25 C102.358 194.26 102.027 193.27 101.688 192.25 C105.646 192.755 109.39 193.423 113.25 194.438 C117.45 195.382 119.648 194.913 123.688 193.25 C125.621 192.775 127.559 192.319 129.5 191.875 C145.386 187.923 158.683 179.142 167.75 165.438 C175.122 152.919 179.057 138.776 182.742 124.812 C183.327 122.607 183.966 120.415 184.688 118.25 C183.038 118.25 181.388 118.25 179.688 118.25 C179.903 119.231 180.118 120.212 180.34 121.223 C180.983 125.808 179.786 129.393 178.25 133.688 C177.98 134.467 177.71 135.246 177.432 136.049 C173.352 147.424 167.974 158.568 160.688 168.25 C160.018 169.165 160.018 169.165 159.336 170.098 C150.876 180.849 136.21 188.604 122.688 190.25 C122.02 190.344 121.352 190.438 120.664 190.535 C106.236 191.581 91.105 182.003 79.688 174.25 C85.882 180.139 92.356 184.865 99.688 189.25 C96.688 190.25 96.688 190.25 93.938 189.133 C67.362 174.759 48.896 150.543 39.66 122.008 C37.34 113.042 36.301 104.447 36.312 95.188 C36.311 94.109 36.31 93.031 36.309 91.92 C36.434 82.312 38.052 73.461 40.688 64.25 C41.95 67.898 41.318 70.485 40.688 74.25 C39.402 95.565 41.839 114.783 50.688 134.25 C50.275 133.074 49.863 131.899 49.438 130.688 C48.001 126.372 46.749 122.015 45.562 117.625 C45.064 115.78 45.064 115.78 44.555 113.898 C39.208 91.405 41.676 67.088 53.688 47.25 C63.217 32.915 77.4 23.465 94.191 19.719 C106.129 18.118 118.228 18.337 129.688 22.25 C126.712 23.123 124.183 23.327 121.09 23.207 C106.926 22.711 106.926 22.711 93.688 27.25 C92.832 27.686 91.976 28.121 91.094 28.57 C75.636 37.091 68.547 51.127 63.711 67.57 C58.247 90.396 60.834 114.838 72.794 135.127 C87.181 157.945 109.543 173.347 135.598 179.992 C139.465 180.684 142.311 181.034 145.801 179.047 C148.082 176.944 149.845 174.75 151.688 172.25 C152.078 171.723 152.468 171.196 152.871 170.652 C171.811 144.678 181.064 115.155 177.258 82.926 C174.043 64.254 164.452 49.841 151.688 36.25 C151.024 35.475 150.36 34.701 149.676 33.902 C139.31 22.392 123.757 17.008 108.688 15.25 C105.706 15.141 102.732 15.154 99.75 15.188 C98.581 15.194 98.581 15.194 97.389 15.201 C95.488 15.213 93.588 15.231 91.688 15.25 C92.179 14.852 92.67 14.453 93.176 14.043 C95.119 11.738 95.004 10.53 94.875 7.562 C94.782 5.428 94.782 5.428 94.688 3.25 C97.658 2.59 100.628 1.93 103.688 1.25 C104.944 4.156 105.688 6.046 105.688 9.25 C106.348 9.25 107.007 9.25 107.688 9.25 C107.358 6.94 107.027 4.63 106.688 2.25 C107.264 2.415 107.84 2.58 108.434 2.75 C110.659 3.244 112.473 3.323 114.742 3.242 C129.289 2.883 141.586 4.339 154.688 11.25 C155.641 11.731 156.595 12.212 157.578 12.707 C181.71 25.689 196.82 50.447 204.938 75.938 C210.547 95.366 214.868 118.669 207.688 138.25 C207.336 139.239 206.984 140.227 206.621 141.246 C202.092 152.979 195.329 162.215 186.688 171.25 C186.086 171.927 185.484 172.604 184.863 173.301 C172.77 186.391 155.571 194.426 138.688 199.25 C138.358 205.85 138.027 212.45 137.688 219.25 C140.658 219.91 143.628 220.57 146.688 221.25 C149.25 222.5 149.25 222.5 150.688 224.25 C151.214 228.377 150.495 230.635 148.688 234.25 C148.884 237.199 149.926 238.596 151.625 241.062 C158.515 251.711 158.154 269.142 155.688 281.25 C152.688 283.25 152.688 283.25 148.688 283.25 C148.555 284.021 148.422 284.792 148.285 285.586 C148.109 286.589 147.932 287.592 147.75 288.625 C147.576 289.623 147.402 290.62 147.223 291.648 C146.687 294.25 146.687 294.25 145.688 296.25 C144.697 296.25 143.707 296.25 142.688 296.25 C142.358 294.93 142.027 293.61 141.688 292.25 C141.027 292.25 140.368 292.25 139.688 292.25 C139.688 306.11 139.688 319.97 139.688 334.25 C135.398 334.25 131.108 334.25 126.688 334.25 C123.004 334.542 119.354 334.839 115.688 335.25 C115.358 336.57 115.027 337.89 114.688 339.25 C119.308 341.56 123.928 343.87 128.688 346.25 C126.489 352.844 126.489 352.844 124.5 355.875 C122.539 358.924 122.539 358.924 122.625 361.375 C123.66 363.457 123.66 363.457 126 365.188 C131.776 370.678 132.924 380.228 133.125 387.812 C132.26 409.717 119.287 427.079 105.688 443.25 C104.686 444.474 104.686 444.474 103.664 445.723 C103.053 446.454 102.442 447.184 101.812 447.938 C101.279 448.581 100.745 449.224 100.195 449.887 C98.688 451.25 98.688 451.25 95.688 451.25 C97.032 447.278 98.717 444.872 101.625 441.875 C116.617 425.603 128.841 407.033 128.043 384.141 C127.353 376.592 125.473 370.334 119.688 365.25 C117.719 364.19 115.723 363.175 113.688 362.25 C114.017 361.59 114.348 360.93 114.688 360.25 C116.337 360.25 117.987 360.25 119.688 360.25 C119.995 359.219 119.995 359.219 120.309 358.168 C120.713 356.816 120.713 356.816 121.125 355.438 C121.392 354.544 121.659 353.651 121.934 352.73 C122.491 350.895 123.081 349.07 123.688 347.25 C123.107 347.068 122.527 346.886 121.93 346.699 C117.296 345.208 112.99 343.567 108.688 341.25 C109.194 339.081 109.687 337.25 110.688 335.25 C109.491 335.126 108.295 335.003 107.062 334.875 C103.412 334.427 100.142 333.546 96.688 332.25 C94.459 335.64 94.459 335.64 92.688 339.25 C93.462 341.3 93.462 341.3 94.688 343.25 C94.312 347 94.312 347 93.688 350.25 C95.623 351.399 97.561 352.544 99.5 353.688 C100.579 354.326 101.658 354.964 102.77 355.621 C105.619 357.331 105.619 357.331 108.688 358.25 C108.688 359.24 108.688 360.23 108.688 361.25 C103.135 360.958 99.484 358.483 94.957 355.527 C92.686 354.005 92.686 354.005 89.688 354.25 C87.97 356.695 87.97 356.695 86.688 359.25 C87.585 360.178 87.585 360.178 88.5 361.125 C92.6 366.981 94.547 374.126 93.688 381.25 C89.265 400.303 73.9 415.671 61.77 430.473 C59.951 432.693 58.158 434.925 56.387 437.184 C49.811 445.517 42.279 452.854 34.688 460.25 C40.205 466.026 48.037 466.643 55.688 467.25 C55.688 466.59 55.688 465.93 55.688 465.25 C57.007 465.58 58.327 465.91 59.688 466.25 C58.177 470.095 56.314 472.244 52.688 474.25 C45.153 474.312 38.12 469.676 31.688 466.25 C30.356 465.581 29.022 464.913 27.688 464.25 C27.632 464.997 27.577 465.744 27.52 466.513 C27.268 469.884 27.009 473.255 26.75 476.625 C26.663 477.801 26.576 478.976 26.486 480.188 C26.399 481.309 26.312 482.43 26.223 483.586 C26.144 484.623 26.066 485.66 25.985 486.728 C25.688 489.25 25.688 489.25 24.688 491.25 C21.746 491.883 21.746 491.883 18.125 492.375 C16.927 492.543 15.73 492.71 14.496 492.883 C13.569 493.004 12.642 493.125 11.688 493.25 C12.005 493.824 12.322 494.397 12.648 494.988 C13.998 497.446 15.336 499.91 16.669 502.376 C17.372 503.67 18.08 504.96 18.792 506.249 C37.688 540.488 37.688 540.488 37.688 549.25 C36.368 549.58 35.048 549.91 33.688 550.25 C33.688 550.91 33.688 551.57 33.688 552.25 C56.127 551.92 78.567 551.59 101.688 551.25 C106.319 539.671 110.925 528.123 115.3 516.451 C120.72 501.997 126.239 487.583 131.812 473.188 C133.241 469.497 134.669 465.807 136.098 462.117 C136.463 461.174 136.828 460.232 137.204 459.26 C141.465 448.248 145.706 437.228 149.945 426.207 C150.799 423.985 151.654 421.763 152.509 419.541 C153.321 417.431 154.132 415.32 154.944 413.209 C155.726 411.177 156.509 409.145 157.295 407.114 C159.217 402.133 161.099 397.142 162.914 392.121 C163.448 390.66 163.448 390.66 163.994 389.17 C164.665 387.332 165.325 385.489 165.972 383.642 C166.271 382.828 166.57 382.014 166.879 381.176 C167.133 380.463 167.387 379.75 167.649 379.015 C169.364 376.1 171.86 375.478 175.001 374.613 C178.288 374.169 181.351 374.278 184.664 374.449 C185.338 374.484 186.012 374.519 186.707 374.554 C188.909 374.672 191.111 374.803 193.312 374.938 C194.07 374.983 194.828 375.028 195.609 375.075 C218.418 376.476 240.479 380.31 262.711 385.549 C265.408 386.184 268.107 386.805 270.809 387.418 C289.619 391.716 289.619 391.716 294.688 394.25 C294.037 398.472 292.611 401.956 290.836 405.832 C290.545 406.47 290.255 407.108 289.956 407.765 C288.997 409.867 288.03 411.965 287.062 414.062 C286.383 415.546 285.704 417.03 285.025 418.514 C280.166 429.118 275.223 439.684 270.252 450.236 C265.518 460.286 260.887 470.377 256.312 480.5 C243.892 507.964 230.839 535.13 217.688 562.25 C195.111 562.323 172.546 562.14 149.972 561.786 C145.968 561.724 141.963 561.665 137.959 561.605 C130.202 561.49 122.445 561.371 114.688 561.25 C120.446 543.591 126.299 525.998 132.875 508.625 C143.863 479.527 153.747 449.986 163.062 420.312 C163.284 419.608 163.505 418.903 163.733 418.177 C166.216 410.245 168.573 402.289 170.688 394.25 C170.278 395.303 169.869 396.356 169.448 397.441 C131.114 496.038 131.114 496.038 112.209 538.801 C110.044 543.708 107.915 548.629 105.812 553.562 C105.356 554.612 105.356 554.612 104.89 555.683 C103.521 558.906 102.423 562.081 101.601 565.477 C101.3 566.722 100.998 567.967 100.688 569.25 C74 569.281 47.313 569.301 20.625 569.312 C19.637 569.313 18.648 569.313 17.63 569.314 C-31.895 569.335 -81.415 569.321 -130.938 568.75 C-131.958 568.738 -132.979 568.727 -134.03 568.715 C-141.803 568.626 -149.577 568.536 -157.35 568.444 C-174.942 568.237 -192.532 568.138 -210.125 568.125 C-211.292 568.123 -212.46 568.12 -213.663 568.117 C-224.309 568.098 -234.906 568.184 -245.533 568.855 C-255.533 569.479 -265.546 569.671 -275.562 569.875 C-276.641 569.897 -277.72 569.92 -278.832 569.943 C-296.854 570.3 -314.853 570.219 -332.875 569.875 C-334.035 569.854 -335.195 569.832 -336.391 569.81 C-339.699 569.747 -343.008 569.676 -346.316 569.602 C-347.284 569.582 -348.252 569.562 -349.249 569.541 C-355.309 569.389 -361.289 568.94 -367.312 568.25 C-367.312 567.92 -367.312 567.59 -367.312 567.25 C-354.113 567.25 -340.913 567.25 -327.312 567.25 C-328.144 563.37 -328.975 559.49 -329.832 555.492 C-337.87 517.98 -337.87 517.98 -338.579 514.66 C-339.098 512.248 -339.626 509.837 -340.161 507.429 C-340.436 506.181 -340.712 504.934 -340.995 503.649 C-341.247 502.519 -341.499 501.389 -341.759 500.224 C-342.312 497.25 -342.312 497.25 -342.312 493.25 C-334.722 493.25 -327.132 493.25 -319.312 493.25 C-319.808 488.3 -319.808 488.3 -320.312 483.25 C-320.972 483.25 -321.632 483.25 -322.312 483.25 C-322.127 482.652 -321.941 482.054 -321.75 481.438 C-321.092 479.086 -321.092 479.086 -322.312 476.25 C-321.653 476.25 -320.993 476.25 -320.312 476.25 C-320.808 474.765 -320.808 474.765 -321.312 473.25 C-321.972 472.92 -322.632 472.59 -323.312 472.25 C-323.312 471.59 -323.312 470.93 -323.312 470.25 C-322.322 470.25 -321.332 470.25 -320.312 470.25 C-320.303 467.35 -320.303 467.35 -321.312 464.25 C-324.159 462.309 -324.159 462.309 -327.75 460.938 C-334.763 457.789 -339.939 453.802 -345.312 448.25 C-345.908 447.652 -346.504 447.054 -347.117 446.438 C-354.22 438.805 -356.493 430.13 -356.438 419.938 C-356.438 419.139 -356.439 418.341 -356.44 417.519 C-356.418 412.437 -356.078 407.491 -355.562 402.438 C-354.867 393.278 -357.567 385.78 -361.5 377.625 C-365.064 369.888 -364.865 362.823 -362.326 354.839 C-360.683 350.644 -358.299 347.05 -355.812 343.312 C-349.047 332.636 -345.853 323.988 -348.312 311.25 C-350.781 301.631 -354.298 292.398 -357.989 283.189 C-358.276 282.472 -358.563 281.755 -358.859 281.016 C-359.116 280.384 -359.372 279.753 -359.636 279.103 C-362.05 272.493 -362.579 265.107 -360.371 258.383 C-357.528 252.375 -354.639 248.696 -348.438 246 C-340.464 244.086 -333.062 245.693 -325.918 249.539 C-314.767 256.644 -308.414 265.311 -305.312 278.25 C-305.101 280.946 -304.98 283.497 -305 286.188 C-305.001 286.918 -305.003 287.649 -305.004 288.402 C-305.117 295.01 -306.223 301.226 -307.656 307.664 C-309.92 320.033 -304.492 330.098 -299.252 340.946 C-290.284 359.691 -288.687 379.197 -294.312 399.25 C-295.294 402.022 -296.343 404.711 -297.543 407.395 C-298.44 409.223 -298.44 409.223 -298.312 411.25 C-297.219 410.755 -296.126 410.26 -295 409.75 C-291.312 408.25 -291.312 408.25 -288.312 408.25 C-287.983 407.26 -287.653 406.27 -287.312 405.25 C-286.322 405.91 -285.332 406.57 -284.312 407.25 C-281.666 406.938 -281.666 406.938 -279.312 406.25 C-279.529 405.272 -279.746 404.293 -279.969 403.285 C-283.203 388.283 -283.203 388.283 -282.312 382.25 C-279.404 379.477 -277.648 378.294 -273.605 378.16 C-272.849 378.19 -272.092 378.219 -271.312 378.25 C-271.371 377.37 -271.429 376.489 -271.488 375.582 C-271.856 366.113 -271.856 366.113 -269.188 361.875 C-266.312 360.25 -266.312 360.25 -263.188 360.25 C-260.328 361.245 -259.075 361.839 -257.312 364.25 C-256.448 366.843 -256.137 368.59 -255.996 371.262 C-255.954 372.019 -255.912 372.776 -255.869 373.557 C-255.83 374.342 -255.791 375.128 -255.75 375.938 C-255.707 376.735 -255.664 377.532 -255.619 378.354 C-255.513 380.319 -255.412 382.284 -255.312 384.25 C-254.322 384.25 -253.332 384.25 -252.312 384.25 C-252.086 383.363 -251.859 382.476 -251.625 381.562 C-250.104 377.723 -248.503 375.847 -245.312 373.25 C-241.956 372.104 -239.664 372.133 -236.312 373.25 C-236.643 372.487 -236.972 371.724 -237.312 370.938 C-238.312 368.25 -238.312 368.25 -238.312 365.25 C-237.322 364.92 -236.333 364.59 -235.312 364.25 C-235.07 364.925 -234.828 365.601 -234.578 366.297 C-232.606 371.827 -232.606 371.827 -229.125 376.438 C-226.354 379.208 -226.377 381.396 -226.312 385.25 C-227.372 389.367 -228.956 392.716 -231.312 396.25 C-230.982 396.91 -230.653 397.57 -230.312 398.25 C-229.874 402.538 -229.863 406.194 -231.562 410.188 C-233.364 412.311 -234.728 413.27 -237.312 414.25 C-237.123 414.953 -236.934 415.655 -236.738 416.379 C-235.824 422.543 -238.049 429.761 -241.375 435 C-242.014 435.743 -242.654 436.485 -243.312 437.25 C-243.972 437.25 -244.632 437.25 -245.312 437.25 C-245.031 439.043 -244.737 440.835 -244.438 442.625 C-244.275 443.623 -244.113 444.62 -243.945 445.648 C-243.517 448.393 -243.517 448.393 -241.312 450.25 C-241.972 450.25 -242.632 450.25 -243.312 450.25 C-243.119 450.844 -242.926 451.439 -242.727 452.051 C-240.735 458.39 -239.372 464.694 -238.312 471.25 C-236.993 471.58 -235.673 471.91 -234.312 472.25 C-234.931 472.621 -235.55 472.993 -236.188 473.375 C-238.864 475.736 -239.406 477.851 -240.312 481.25 C-239.322 481.25 -238.333 481.25 -237.312 481.25 C-237.312 482.24 -237.312 483.23 -237.312 484.25 C-238.303 484.25 -239.292 484.25 -240.312 484.25 C-240.642 487.22 -240.972 490.19 -241.312 493.25 C-234.713 493.25 -228.113 493.25 -221.312 493.25 C-220.053 497.03 -220.804 498.389 -222.066 502.125 C-224.207 508.772 -225.82 515.419 -227.25 522.25 C-227.626 524.023 -227.626 524.023 -228.01 525.831 C-230.808 539.246 -233.06 552.733 -235.312 566.25 C-223.433 565.92 -211.553 565.59 -199.312 565.25 C-198.982 561.95 -198.653 558.65 -198.312 555.25 C-197.976 553.228 -197.607 551.212 -197.189 549.205 C-196.969 548.135 -196.749 547.064 -196.522 545.961 C-196.287 544.841 -196.051 543.721 -195.809 542.566 C-195.566 541.389 -195.323 540.212 -195.073 538.999 C-194.303 535.269 -193.527 531.541 -192.75 527.812 C-191.97 524.059 -191.191 520.306 -190.416 516.551 C-189.935 514.222 -189.451 511.894 -188.964 509.567 C-188.747 508.518 -188.53 507.469 -188.306 506.389 C-188.114 505.466 -187.922 504.544 -187.723 503.594 C-187.226 501.154 -187.226 501.154 -187.312 498.25 C-187.976 498.222 -188.64 498.193 -189.324 498.164 C-196.358 497.404 -196.358 497.404 -198.914 494.312 C-200.225 491.673 -201.281 489.011 -202.312 486.25 C-202.956 484.864 -202.956 484.864 -203.613 483.449 C-208.925 471.87 -210.567 460.48 -210.688 447.875 C-210.701 446.999 -210.715 446.123 -210.73 445.22 C-210.598 425.543 -206.712 405.708 -203.895 386.28 C-200.382 361.986 -197.435 337.705 -195.312 313.25 C-196.303 313.91 -197.292 314.57 -198.312 315.25 C-204.395 315.464 -210.37 313.576 -216.062 311.625 C-216.843 311.359 -217.623 311.093 -218.426 310.82 C-240.844 302.911 -259.535 287.27 -270.879 266.363 C-272.155 263.693 -273.268 261.018 -274.312 258.25 C-274.631 257.461 -274.949 256.672 -275.277 255.859 C-281.006 239.07 -277.472 220.735 -270.125 205.188 C-262.1 189.891 -250.89 176.946 -239.312 164.25 C-237.958 162.729 -236.604 161.208 -235.25 159.688 C-231.71 155.743 -228.083 151.889 -224.432 148.046 C-206.088 128.716 -192.859 109.663 -183.562 84.688 C-174.91 61.582 -163.087 37.771 -145.312 20.25 C-144.558 19.486 -143.804 18.721 -143.027 17.934 C-126.338 1.895 -102.863 -5.158 -79.988 -4.914 C-76.431 -4.696 -72.908 -4.263 -69.375 -3.812 C-68.677 -3.724 -67.978 -3.636 -67.259 -3.545 C-64.31 -3.165 -61.375 -2.761 -58.445 -2.254 C-52.494 -1.332 -48.396 -2.402 -42.855 -4.742 C-29.464 -10.049 -11.708 -8.01 0 0 Z M-14.312 32.25 C-14.251 33.364 -14.189 34.477 -14.125 35.625 C-14.188 44.503 -17.402 51.039 -22.691 58.023 C-24.161 60.042 -25.274 61.986 -26.312 64.25 C-18.5 58.156 -13.011 51.646 -11.414 41.625 C-11.263 38.095 -12.03 35.527 -13.312 32.25 C-13.642 32.25 -13.973 32.25 -14.312 32.25 Z M-49.312 41.25 C-49.387 42.084 -49.462 42.918 -49.539 43.777 C-50.892 55.357 -54.871 61.683 -63.773 69.035 C-64.281 69.436 -64.789 69.837 -65.312 70.25 C-64.652 70.58 -63.993 70.91 -63.312 71.25 C-56.059 66.237 -50.165 60.807 -47.312 52.25 C-47.118 50.294 -47.118 50.294 -47.125 48.25 C-47.104 47.229 -47.104 47.229 -47.082 46.188 C-47.203 43.924 -47.203 43.924 -49.312 41.25 Z M-40.207 72.414 C-50.34 76.437 -62.596 75.345 -73.312 75.25 C-73.448 75.786 -73.584 76.323 -73.723 76.876 C-75.13 82.44 -76.542 88.004 -77.957 93.567 C-78.485 95.645 -79.012 97.724 -79.537 99.803 C-80.291 102.785 -81.049 105.766 -81.809 108.746 C-82.044 109.682 -82.279 110.617 -82.522 111.581 C-82.742 112.441 -82.962 113.302 -83.189 114.189 C-83.382 114.951 -83.576 115.713 -83.775 116.497 C-84.312 118.25 -84.312 118.25 -85.312 119.25 C-87.293 114.96 -89.272 110.67 -91.312 106.25 C-91.642 106.25 -91.972 106.25 -92.312 106.25 C-92.972 112.19 -93.632 118.13 -94.312 124.25 C-94.76 122.899 -95.207 121.548 -95.668 120.156 C-96.278 118.354 -96.889 116.552 -97.5 114.75 C-97.792 113.863 -98.084 112.976 -98.385 112.062 C-101.32 103.477 -104.807 95.503 -113.312 91.25 C-116.318 90.905 -118.41 90.679 -121.312 91.25 C-126.221 95.601 -129.596 101.882 -130.664 108.395 C-130.911 114.271 -128.787 117.982 -125.688 122.75 C-120.248 128.476 -114.138 132.132 -106.312 133.25 C-103.565 133.113 -101.031 132.735 -98.312 132.25 C-99.044 139.562 -100.127 146.798 -101.27 154.056 C-101.604 156.179 -101.936 158.303 -102.266 160.427 C-103.205 166.459 -104.147 172.49 -105.095 178.521 C-105.677 182.226 -106.255 185.933 -106.83 189.639 C-107.048 191.044 -107.269 192.449 -107.491 193.853 C-107.802 195.816 -108.106 197.781 -108.41 199.745 C-108.585 200.859 -108.76 201.973 -108.94 203.121 C-109.309 206.222 -109.501 209.132 -109.312 212.25 C-102.996 219.336 -91.687 223.729 -82.441 224.625 C-79.004 224.681 -75.721 224.702 -72.312 224.25 C-71.653 223.59 -70.993 222.93 -70.312 222.25 C-70.72 221.581 -71.127 220.912 -71.547 220.223 C-76.259 211.176 -74.744 204.806 -71.975 195.578 C-70.812 191.492 -69.954 187.339 -69.062 183.188 C-68.725 181.655 -68.386 180.122 -68.047 178.59 C-67.805 177.488 -67.562 176.386 -67.312 175.25 C-68.962 174.59 -70.613 173.93 -72.312 173.25 C-71.817 171.765 -71.817 171.765 -71.312 170.25 C-67.262 171.546 -63.392 173.041 -59.5 174.75 C-49.273 179.03 -39.135 181.342 -28.441 177.27 C-20.151 173.299 -16.746 166.523 -13.312 158.25 C-12.382 155.144 -12.126 152.232 -11.996 148.996 C-11.954 147.976 -11.912 146.956 -11.869 145.904 C-11.83 144.843 -11.791 143.781 -11.75 142.688 C-11.685 141.136 -11.685 141.136 -11.619 139.553 C-11.352 132.782 -11.26 126.026 -11.312 119.25 C-10.174 118.653 -10.174 118.653 -9.012 118.043 C-8.018 117.513 -7.024 116.983 -6 116.438 C-4.521 115.654 -4.521 115.654 -3.012 114.855 C-0.696 113.478 0.924 112.255 2.688 110.25 C2.024 110.08 1.36 109.91 0.676 109.734 C-0.649 109.371 -0.649 109.371 -2 109 C-2.87 108.768 -3.74 108.536 -4.637 108.297 C-8.923 106.62 -11.671 104.61 -13.659 100.397 C-13.99 99.318 -14.322 98.24 -14.664 97.129 C-15.04 95.946 -15.417 94.763 -15.805 93.545 C-16.179 92.313 -16.552 91.082 -16.938 89.812 C-17.695 87.375 -18.458 84.938 -19.227 82.504 C-19.556 81.424 -19.886 80.345 -20.225 79.233 C-21.306 76.267 -22.495 73.828 -24.312 71.25 C-29.834 69.421 -35.062 69.75 -40.207 72.414 Z M205.688 104.25 C205.357 110.85 205.028 117.45 204.688 124.25 C205.018 124.25 205.347 124.25 205.688 124.25 C206.744 119.967 206.805 115.82 206.75 111.438 C206.745 110.745 206.741 110.052 206.736 109.338 C206.725 107.642 206.707 105.946 206.688 104.25 C206.357 104.25 206.028 104.25 205.688 104.25 Z M52.688 138.25 C53.688 140.25 53.688 140.25 53.688 140.25 Z M53.688 140.25 C54.688 142.25 54.688 142.25 54.688 142.25 Z M54.688 142.25 C55.017 143.24 55.348 144.23 55.688 145.25 C55.688 144.26 55.688 143.27 55.688 142.25 C55.358 142.25 55.027 142.25 54.688 142.25 Z M57.688 147.25 C58.688 149.25 58.688 149.25 58.688 149.25 Z M-135 204.25 C-136.104 205.25 -137.208 206.25 -138.312 207.25 C-134.49 212.02 -130.582 215.987 -125.625 219.562 C-124.983 220.026 -124.342 220.49 -123.681 220.968 C-107.374 232.423 -87.508 242.351 -67.25 242.5 C-66.543 242.521 -65.836 242.541 -65.107 242.562 C-61.954 242.586 -59.654 242.424 -56.824 240.98 C-54.893 239.138 -54.893 239.138 -55.188 235.312 C-56.145 229.074 -59.291 223.71 -62.312 218.25 C-62.539 218.807 -62.766 219.364 -63 219.938 C-64.762 223.042 -66.518 225.007 -69.312 227.25 C-83.243 229.706 -95.182 224.995 -106.816 217.641 C-109.273 216.007 -109.273 216.007 -112.312 216.25 C-112.642 215.26 -112.972 214.27 -113.312 213.25 C-115.242 211.66 -117.154 210.193 -119.188 208.75 C-125.035 204.541 -125.035 204.541 -127.008 202.469 C-130.12 199.562 -132.473 201.961 -135 204.25 Z M-153.375 219.375 C-170.47 235.204 -177.596 261.409 -183.312 283.25 C-183.613 284.395 -183.914 285.541 -184.223 286.72 C-187.084 298.024 -188.831 309.424 -190.463 320.96 C-191.296 326.845 -192.155 332.727 -193.012 338.609 C-193.192 339.853 -193.373 341.096 -193.559 342.378 C-194.989 352.162 -196.488 361.934 -198.02 371.703 C-198.133 372.429 -198.247 373.155 -198.364 373.904 C-199.488 381.065 -200.617 388.225 -201.75 395.384 C-202.069 397.404 -202.388 399.424 -202.706 401.444 C-203.095 403.914 -203.486 406.383 -203.879 408.852 C-207.876 434.221 -211.636 467.839 -196.312 490.25 C-193.385 492.805 -191.203 493.851 -187.312 494.25 C-186.322 493.92 -185.332 493.59 -184.312 493.25 C-183.653 493.91 -182.993 494.57 -182.312 495.25 C-180.084 495.711 -180.084 495.711 -177.462 495.872 C-176.448 495.954 -175.433 496.037 -174.388 496.121 C-173.277 496.199 -172.167 496.276 -171.023 496.355 C-169.864 496.439 -168.705 496.523 -167.51 496.61 C-153.99 497.511 -140.482 497.599 -126.938 497.562 C-124.96 497.561 -124.96 497.561 -122.943 497.56 C-100.513 497.537 -78.247 496.531 -55.898 494.635 C-49.208 494.067 -42.511 493.591 -35.812 493.125 C-34.69 493.045 -33.568 492.966 -32.411 492.884 C-19.725 492.017 -7.022 491.612 5.688 491.25 C6.018 490.59 6.347 489.93 6.688 489.25 C10.648 489.25 14.607 489.25 18.688 489.25 C19.526 486.314 20.358 483.376 21.188 480.438 C21.426 479.604 21.664 478.771 21.91 477.912 C22.136 477.11 22.361 476.307 22.594 475.48 C22.908 474.373 22.908 474.373 23.229 473.243 C23.8 471.104 23.8 471.104 23.688 468.25 C21.236 469.433 18.877 470.71 16.508 472.055 C-0.566 481.717 -18.168 485.33 -37.688 481.25 C-58.188 474.958 -76.5 460.671 -92.047 446.328 C-94.114 444.432 -96.23 442.62 -98.375 440.812 C-130.692 412.503 -152.977 368.303 -163.312 327.25 C-162.322 327.25 -161.332 327.25 -160.312 327.25 C-160.106 328.384 -159.9 329.519 -159.688 330.688 C-152.307 363.245 -133.668 394.91 -112.312 420.25 C-111.863 420.789 -111.413 421.327 -110.949 421.882 C-101.572 433.094 -91.912 443.274 -80.312 452.25 C-79.275 453.054 -78.237 453.859 -77.168 454.688 C-56.419 470.338 -33.612 480.222 -7.312 478.25 C6.733 475.796 21.478 467.283 30.168 455.863 C32.093 453.82 34.283 452.689 36.688 451.25 C42.493 446.05 47.636 440.171 52.688 434.25 C53.592 433.209 54.497 432.169 55.402 431.129 C62.429 423.035 69.176 414.764 75.688 406.25 C76.443 405.269 77.198 404.288 77.977 403.277 C84.083 395.146 89.774 387.558 89.148 376.977 C87.78 368.881 84.316 364.383 77.75 359.562 C76.751 358.899 75.752 358.235 74.723 357.551 C67.566 352.125 63.923 345.356 60.121 337.391 C57.27 331.689 54.33 327.927 48.371 325.184 C39.506 323.226 32.012 325.57 24.391 330.293 C16.089 336.172 9.275 343.558 2.688 351.25 C2.013 352.036 2.013 352.036 1.325 352.837 C-4.078 359.154 -4.078 359.154 -8.312 366.25 C-12.66 370.924 -12.66 370.924 -15.312 372.25 C-14.982 371.507 -14.653 370.765 -14.312 370 C-13.085 367.111 -13.085 367.111 -13.312 363.25 C-14.442 361.212 -14.442 361.212 -16.059 359.23 C-16.644 358.464 -17.229 357.697 -17.832 356.907 C-18.465 356.092 -19.098 355.277 -19.75 354.438 C-25.89 346.316 -31.269 338.078 -36.312 329.25 C-44.291 315.335 -52.59 302.017 -62.312 289.25 C-62.892 288.487 -63.471 287.723 -64.068 286.937 C-70.375 278.656 -76.819 270.517 -83.597 262.617 C-87.322 258.275 -90.86 253.81 -94.312 249.25 C-93.322 249.25 -92.332 249.25 -91.312 249.25 C-91.051 249.84 -90.789 250.43 -90.519 251.038 C-89.246 253.373 -87.927 254.822 -86.004 256.648 C-85.345 257.285 -84.686 257.922 -84.007 258.578 C-83.303 259.254 -82.6 259.929 -81.875 260.625 C-75.173 267.198 -69.176 273.961 -63.603 281.507 C-62.29 283.28 -60.955 285.035 -59.617 286.789 C-51.251 297.857 -44.005 309.602 -36.754 321.418 C-31.064 330.659 -24.987 339.55 -18.661 348.366 C-16.775 351.001 -14.918 353.655 -13.062 356.312 C-12.25 357.475 -12.25 357.475 -11.422 358.66 C-11.056 359.185 -10.69 359.709 -10.312 360.25 C-7.426 359.915 -6.405 359.348 -4.375 357.203 C-3.694 356.311 -3.014 355.419 -2.312 354.5 C7.962 341.509 19.156 327.826 34.688 321.25 C34.091 321.015 33.494 320.781 32.879 320.539 C30.142 318.929 29.237 317.354 27.625 314.625 C17.18 297.573 5.02 281.973 -7.719 266.598 C-11.213 262.378 -14.674 258.131 -18.125 253.875 C-18.663 253.213 -19.201 252.55 -19.756 251.868 C-22.138 248.935 -24.516 245.999 -26.879 243.051 C-34.976 233.008 -43.207 224.474 -55.312 219.25 C-56.303 219.25 -57.293 219.25 -58.312 219.25 C-58.119 219.784 -57.926 220.317 -57.727 220.867 C-52.454 235.954 -52.454 235.954 -54.141 240.465 C-55.871 243.101 -57.259 243.47 -60.312 244.25 C-86.149 245.907 -112.529 232.722 -132 216.688 C-132.726 216.047 -133.451 215.406 -134.199 214.746 C-141.351 209.683 -147.532 214.596 -153.375 219.375 Z M-212.312 219.25 C-214.581 221.083 -214.581 221.083 -214.5 223.812 C-214.583 226.197 -214.583 226.197 -213.312 227.25 C-210.854 227.5 -210.854 227.5 -208.312 227.25 C-207.653 226.59 -206.993 225.93 -206.312 225.25 C-206.633 222.647 -206.633 222.647 -207.312 220.25 C-209.71 219.57 -209.71 219.57 -212.312 219.25 Z M129.688 221.25 C129.688 224.22 129.688 227.19 129.688 230.25 C133.648 230.25 137.608 230.25 141.688 230.25 C141.358 231.9 141.027 233.55 140.688 235.25 C142.602 235.128 142.602 235.128 144.688 234.25 C147.221 230.902 147.688 229.549 147.688 225.25 C141.633 222.671 136.247 221.64 129.688 221.25 Z M-209.312 242.25 C-209.808 244.23 -209.808 244.23 -210.312 246.25 C-208.993 246.25 -207.673 246.25 -206.312 246.25 C-206.643 244.93 -206.972 243.61 -207.312 242.25 C-207.972 242.25 -208.632 242.25 -209.312 242.25 Z M-230.312 252.25 C-230.312 253.57 -230.312 254.89 -230.312 256.25 C-228.993 256.25 -227.673 256.25 -226.312 256.25 C-226.312 254.93 -226.312 253.61 -226.312 252.25 C-227.632 252.25 -228.952 252.25 -230.312 252.25 Z M-339.312 272.25 C-338.312 274.25 -338.312 274.25 -338.312 274.25 Z M151.688 273.25 C151.357 274.9 151.028 276.55 150.688 278.25 C151.347 278.25 152.008 278.25 152.688 278.25 C152.688 276.6 152.688 274.95 152.688 273.25 C152.357 273.25 152.028 273.25 151.688 273.25 Z M-337.312 275.25 C-336.312 277.25 -336.312 277.25 -336.312 277.25 Z M-336.312 277.25 C-335.312 279.25 -335.312 279.25 -335.312 279.25 Z M-335.312 279.25 C-334.983 280.9 -334.653 282.55 -334.312 284.25 C-333.983 283.26 -333.653 282.27 -333.312 281.25 C-333.972 280.59 -334.632 279.93 -335.312 279.25 Z M-339.312 281.25 C-339.642 281.91 -339.972 282.57 -340.312 283.25 C-338.932 285.902 -338.932 285.902 -337 288.75 C-336.364 289.73 -335.729 290.709 -335.074 291.719 C-333.407 294.273 -333.407 294.273 -331.312 296.25 C-326.687 313.388 -330.243 334.33 -333.534 351.517 C-335.664 362.832 -336.189 373.832 -334.062 385.188 C-333.927 385.945 -333.791 386.702 -333.651 387.483 C-330.968 401.932 -326.92 417.035 -320.312 430.25 C-319.322 430.25 -318.332 430.25 -317.312 430.25 C-317.689 425.926 -318.504 422.681 -320.339 418.742 C-322.744 412.84 -322.794 407.561 -322.633 401.258 C-322.617 399.595 -322.617 399.595 -322.601 397.899 C-322.566 394.391 -322.504 390.883 -322.438 387.375 C-322.382 383.846 -322.333 380.316 -322.295 376.787 C-322.271 374.598 -322.236 372.41 -322.189 370.222 C-322.175 369.234 -322.162 368.245 -322.149 367.227 C-322.132 366.36 -322.116 365.493 -322.099 364.6 C-322.331 362.05 -323.027 360.444 -324.312 358.25 C-326.598 360.107 -326.598 360.107 -326.555 363.009 C-326.551 364.166 -326.547 365.323 -326.543 366.516 C-326.541 367.8 -326.539 369.083 -326.537 370.406 C-326.531 371.08 -326.525 371.755 -326.518 372.449 C-326.5 374.45 -326.499 376.452 -326.498 378.453 C-326.459 387.098 -326.041 395.637 -325.312 404.25 C-325.962 401.397 -326.607 398.542 -327.25 395.688 C-327.432 394.888 -327.615 394.088 -327.803 393.264 C-332.119 374.036 -330.03 356.421 -326.787 337.201 C-326.155 333.27 -325.686 329.331 -325.25 325.375 C-324.583 319.639 -323.433 314.241 -321.801 308.703 C-321.29 306.138 -321.462 304.694 -322.312 302.25 C-323.303 302.58 -324.293 302.91 -325.312 303.25 C-326.046 305.265 -326.046 305.265 -326.312 307.25 C-326.578 306.009 -326.844 304.767 -327.117 303.488 C-327.474 301.846 -327.831 300.204 -328.188 298.562 C-328.362 297.746 -328.536 296.929 -328.715 296.088 C-329.615 291.972 -330.568 288.109 -332.312 284.25 C-333.303 284.25 -334.293 284.25 -335.312 284.25 C-335.972 283.26 -336.632 282.27 -337.312 281.25 C-337.972 281.25 -338.632 281.25 -339.312 281.25 Z M63.062 321.375 C60.369 323.979 60.369 323.979 60.816 326.973 C61.831 330.789 63.376 334.112 65.25 337.562 C65.603 338.218 65.956 338.874 66.319 339.55 C69.991 346.148 74.348 352.024 80.688 356.25 C81.678 356.25 82.668 356.25 83.688 356.25 C85.157 354.483 85.157 354.483 86.375 352.25 C86.812 351.507 87.249 350.765 87.699 350 C88.025 349.423 88.351 348.845 88.688 348.25 C88.047 347.872 87.406 347.495 86.746 347.105 C76.069 340.311 71.473 330.651 66.688 319.25 C65.254 319.145 65.254 319.145 63.062 321.375 Z M103.688 320.25 C100.525 324.009 100.525 324.009 99.938 328.625 C100.185 329.161 100.433 329.697 100.688 330.25 C101.678 330.25 102.668 330.25 103.688 330.25 C104.017 326.95 104.348 323.65 104.688 320.25 C104.358 320.25 104.027 320.25 103.688 320.25 Z M-267.312 365.25 C-267.386 367.947 -267.405 370.617 -267.375 373.312 C-267.37 374.071 -267.366 374.83 -267.361 375.611 C-267.35 377.491 -267.332 379.37 -267.312 381.25 C-265.332 382.24 -265.332 382.24 -263.312 383.25 C-263.642 378.96 -263.972 374.67 -264.312 370.25 C-263.653 370.25 -262.993 370.25 -262.312 370.25 C-261.983 374.54 -261.653 378.83 -261.312 383.25 C-260.653 382.92 -259.993 382.59 -259.312 382.25 C-259.208 376.478 -259.224 370.932 -260.312 365.25 C-261.372 363.967 -261.372 363.967 -263.812 364.125 C-266.253 363.967 -266.253 363.967 -267.312 365.25 Z M-247.312 380.25 C-248.645 382.868 -248.645 382.868 -249.312 385.25 C-247.002 386.9 -244.692 388.55 -242.312 390.25 C-240.079 388.318 -240.079 388.318 -239.312 385.188 C-238.312 382.25 -238.312 382.25 -236.312 381.25 C-236.972 384.88 -237.632 388.51 -238.312 392.25 C-236.662 392.58 -235.012 392.91 -233.312 393.25 C-231.077 389.47 -229.376 386.377 -229.125 381.938 C-230.141 378.923 -230.141 378.923 -233.562 377.375 C-239.834 375.494 -242.53 375.468 -247.312 380.25 Z M174.688 380.25 C173.431 383.156 172.688 385.046 172.688 388.25 C173.416 387.925 174.145 387.6 174.896 387.265 C184.416 383.804 197.048 386.975 206.938 388.062 C208.637 388.245 210.336 388.427 212.036 388.608 C222.26 389.712 232.47 390.902 242.647 392.386 C248.05 393.149 253.229 393.359 258.688 393.25 C256.236 390.292 254.215 389.659 250.488 388.934 C249.442 388.727 248.396 388.52 247.318 388.307 C246.223 388.102 245.128 387.898 244 387.688 C242.955 387.479 241.91 387.271 240.834 387.057 C225.721 384.133 210.719 382.886 195.375 382.188 C192.874 382.072 190.373 381.954 187.873 381.831 C186.335 381.755 184.797 381.684 183.258 381.617 C180.18 381.467 177.629 381.23 174.688 380.25 Z M-276.312 381.25 C-276.157 382.093 -276.001 382.936 -275.84 383.805 C-275.645 384.9 -275.451 385.996 -275.25 387.125 C-274.954 388.761 -274.954 388.761 -274.652 390.43 C-274.312 393.25 -274.312 393.25 -275.312 395.25 C-276.976 393.587 -276.673 391.467 -276.875 389.188 C-276.959 388.268 -277.043 387.349 -277.129 386.402 C-277.189 385.692 -277.25 384.982 -277.312 384.25 C-277.972 384.25 -278.632 384.25 -279.312 384.25 C-279.252 384.905 -279.191 385.56 -279.129 386.234 C-278.952 388.163 -278.785 390.093 -278.625 392.023 C-278.416 394.181 -278.145 396.334 -277.812 398.477 C-276.711 406.402 -276.711 406.402 -278.586 409.047 C-280.25 410.375 -280.25 410.375 -283.312 412.25 C-283.312 412.91 -283.312 413.57 -283.312 414.25 C-284.303 414.25 -285.293 414.25 -286.312 414.25 C-286.642 413.26 -286.972 412.27 -287.312 411.25 C-291.365 412.475 -294.756 413.949 -298.312 416.25 C-297.983 417.57 -297.653 418.89 -297.312 420.25 C-298.798 420.745 -298.798 420.745 -300.312 421.25 C-300.312 420.59 -300.312 419.93 -300.312 419.25 C-302.293 419.745 -302.293 419.745 -304.312 420.25 C-304.467 421.209 -304.467 421.209 -304.625 422.188 C-304.852 422.868 -305.079 423.549 -305.312 424.25 C-306.798 424.745 -306.798 424.745 -308.312 425.25 C-306.993 427.89 -305.673 430.53 -304.312 433.25 C-303.322 432.59 -302.332 431.93 -301.312 431.25 C-301.312 430.59 -301.312 429.93 -301.312 429.25 C-299.993 429.25 -298.673 429.25 -297.312 429.25 C-297.642 429.91 -297.972 430.57 -298.312 431.25 C-299.798 431.745 -299.798 431.745 -301.312 432.25 C-301.312 432.91 -301.312 433.57 -301.312 434.25 C-303.788 434.745 -303.788 434.745 -306.312 435.25 C-307.798 431.785 -307.798 431.785 -309.312 428.25 C-312.034 430.621 -313.2 432.903 -314.5 436.25 C-314.844 437.116 -315.188 437.983 -315.543 438.875 C-316.467 441.31 -316.467 441.31 -316.312 444.25 C-315.653 444.25 -314.993 444.25 -314.312 444.25 C-314.312 444.91 -314.312 445.57 -314.312 446.25 C-314.972 446.25 -315.632 446.25 -316.312 446.25 C-317.891 449.406 -317.454 452.793 -317.445 456.258 C-317.446 457.057 -317.447 457.857 -317.448 458.68 C-317.449 460.377 -317.447 462.073 -317.443 463.77 C-317.438 466.344 -317.443 468.918 -317.449 471.492 C-317.449 473.143 -317.447 474.794 -317.445 476.445 C-317.447 477.207 -317.449 477.969 -317.451 478.754 C-317.448 479.487 -317.445 480.221 -317.442 480.977 C-317.441 481.611 -317.44 482.244 -317.439 482.897 C-317.252 486.363 -316.743 489.805 -316.312 493.25 C-292.553 493.25 -268.793 493.25 -244.312 493.25 C-242.332 484.819 -242.332 484.819 -245.625 481.188 C-248.031 479.055 -248.031 479.055 -250.312 479.25 C-250.312 478.26 -250.312 477.27 -250.312 476.25 C-249.735 476.126 -249.157 476.003 -248.562 475.875 C-246.286 475.243 -244.405 474.331 -242.312 473.25 C-243.774 455.759 -243.774 455.759 -249.312 439.25 C-252.87 439.86 -255.995 440.828 -259.312 442.25 C-256.115 438.035 -252.586 437.284 -247.652 436.156 C-244.752 435.033 -243.867 433.915 -242.312 431.25 C-240.318 425.746 -240.104 420.929 -241.312 415.25 C-244.555 414.412 -244.555 414.412 -248.312 415.25 C-250.242 417.732 -251.63 420.26 -253.051 423.062 C-253.467 423.784 -253.884 424.506 -254.312 425.25 C-254.972 425.25 -255.632 425.25 -256.312 425.25 C-257.096 424.425 -257.88 423.6 -258.688 422.75 C-261.191 419.79 -261.191 419.79 -265.312 420.25 C-265.312 421.9 -265.312 423.55 -265.312 425.25 C-262.26 425.408 -262.26 425.408 -259.312 424.25 C-260.303 426.23 -261.293 428.21 -262.312 430.25 C-264.313 428.25 -266.312 426.25 -268.312 424.25 C-268.808 425.24 -268.808 425.24 -269.312 426.25 C-269.972 426.25 -270.632 426.25 -271.312 426.25 C-272.727 422.007 -273.032 417.748 -273.5 413.312 C-273.608 412.406 -273.715 411.499 -273.826 410.564 C-273.918 409.689 -274.011 408.813 -274.105 407.91 C-274.237 406.713 -274.237 406.713 -274.372 405.492 C-274.302 402.865 -273.739 401.444 -272.312 399.25 C-271.488 398.776 -270.663 398.301 -269.812 397.812 C-266.758 395.904 -266.214 394.691 -265.312 391.25 C-264.729 388.75 -264.729 388.75 -265.312 386.25 C-267.333 383.313 -267.333 383.313 -270.312 381.25 C-273.433 381.067 -273.433 381.067 -276.312 381.25 Z M-260.312 387.25 C-261.129 388.998 -261.941 390.749 -262.75 392.5 C-263.429 393.962 -263.429 393.962 -264.121 395.453 C-265.096 397.743 -265.81 399.824 -266.312 402.25 C-262.861 400.824 -261.211 399.153 -259.062 396.125 C-258.155 394.846 -257.248 393.567 -256.312 392.25 C-257.962 396.21 -259.613 400.17 -261.312 404.25 C-256.252 402.664 -251.737 401.247 -247.312 398.25 C-247.312 398.91 -247.312 399.57 -247.312 400.25 C-248.161 400.505 -249.009 400.76 -249.883 401.023 C-253.55 402.335 -256.778 403.996 -260.188 405.875 C-261.916 406.822 -261.916 406.822 -263.68 407.789 C-264.549 408.271 -265.417 408.753 -266.312 409.25 C-263.5 410.656 -262.161 409.778 -259.188 408.875 C-254.522 407.537 -250.153 406.609 -245.312 406.25 C-244.983 406.58 -244.653 406.91 -244.312 407.25 C-245.89 407.405 -245.89 407.405 -247.5 407.562 C-253.535 408.302 -259.411 409.82 -265.312 411.25 C-265.312 412.57 -265.312 413.89 -265.312 415.25 C-261.416 414.971 -257.52 414.675 -253.625 414.375 C-252.522 414.296 -251.419 414.218 -250.283 414.137 C-249.217 414.053 -248.15 413.969 -247.051 413.883 C-245.582 413.773 -245.582 413.773 -244.083 413.661 C-240.527 413.134 -237.322 412.5 -235 409.625 C-233.949 405.994 -233.189 402.897 -234.312 399.25 C-236.921 396.558 -240.011 394.975 -243.312 393.25 C-244.333 392.688 -245.354 392.126 -246.406 391.547 C-252.987 387.921 -252.987 387.921 -260.312 387.25 Z M-271.312 401.25 C-272.678 406.014 -272.025 410.244 -271.375 415.062 C-271.275 415.851 -271.175 416.639 -271.072 417.451 C-270.826 419.385 -270.57 421.318 -270.312 423.25 C-269.653 423.25 -268.993 423.25 -268.312 423.25 C-267.971 412.681 -267.971 412.681 -269.312 402.25 C-269.972 401.92 -270.632 401.59 -271.312 401.25 Z M-264.312 403.25 C-265.303 403.745 -265.303 403.745 -266.312 404.25 C-266.312 404.91 -266.312 405.57 -266.312 406.25 C-265.322 405.92 -264.332 405.59 -263.312 405.25 C-263.642 404.59 -263.972 403.93 -264.312 403.25 Z M-258.312 415.25 C-258.046 417.235 -258.046 417.235 -257.312 419.25 C-256.322 419.58 -255.332 419.91 -254.312 420.25 C-253.653 418.93 -252.993 417.61 -252.312 416.25 C-253.379 414.954 -253.379 414.954 -255.875 415.188 C-256.679 415.208 -257.484 415.229 -258.312 415.25 Z M-312.312 418.25 C-311.312 420.25 -311.312 420.25 -311.312 420.25 Z M-323.312 440.25 C-322.312 442.25 -322.312 442.25 -322.312 442.25 Z M-322.312 442.25 C-321.983 443.57 -321.653 444.89 -321.312 446.25 C-320.653 445.92 -319.993 445.59 -319.312 445.25 C-320.303 444.26 -321.293 443.27 -322.312 442.25 Z M-324.312 453.25 C-324.312 454.24 -324.312 455.23 -324.312 456.25 C-323.653 456.25 -322.993 456.25 -322.312 456.25 C-322.312 455.26 -322.312 454.27 -322.312 453.25 C-322.972 453.25 -323.632 453.25 -324.312 453.25 Z M183.688 472.25 C178.347 481.322 175.65 490.369 178.371 500.895 C179.865 504.632 181.415 506.984 184.312 509.812 C189.534 512.037 194.36 512.221 199.828 510.625 C209.175 506.504 215.013 498.524 218.688 489.25 C220.434 483.427 220.585 477.563 218.125 471.938 C215.852 467.983 213.089 465.552 208.688 464.25 C199.418 462.904 190.246 465.327 183.688 472.25 Z M-244.312 477.25 C-244.312 478.24 -244.312 479.23 -244.312 480.25 C-243.653 480.25 -242.993 480.25 -242.312 480.25 C-242.312 479.26 -242.312 478.27 -242.312 477.25 C-242.972 477.25 -243.632 477.25 -244.312 477.25 Z M-337.312 496.25 C-338.784 499.192 -337.87 501.096 -337.173 504.289 C-336.899 505.557 -336.625 506.825 -336.343 508.132 C-336.035 509.523 -335.726 510.914 -335.418 512.305 C-335.107 513.727 -334.796 515.15 -334.486 516.572 C-333.834 519.557 -333.177 522.541 -332.516 525.525 C-331.671 529.345 -330.836 533.168 -330.005 536.991 C-329.364 539.931 -328.719 542.87 -328.072 545.809 C-327.762 547.217 -327.454 548.626 -327.147 550.036 C-326.717 552.009 -326.279 553.981 -325.841 555.953 C-325.593 557.075 -325.346 558.197 -325.091 559.353 C-324.407 561.898 -323.6 563.964 -322.312 566.25 C-321.582 566.225 -320.852 566.2 -320.1 566.174 C-313.117 565.935 -306.133 565.7 -299.149 565.468 C-295.561 565.348 -291.974 565.228 -288.386 565.104 C-272.026 564.542 -255.685 564.084 -239.312 564.25 C-239.132 563.129 -239.132 563.129 -238.949 561.985 C-236.26 545.412 -233.075 529.14 -228.963 512.852 C-227.668 507.67 -226.493 502.459 -225.312 497.25 C-228.15 496.304 -229.874 496.126 -232.811 496.13 C-234.193 496.128 -234.193 496.128 -235.603 496.126 C-236.611 496.129 -237.62 496.133 -238.659 496.136 C-239.723 496.136 -240.786 496.136 -241.882 496.136 C-245.404 496.137 -248.927 496.145 -252.449 496.152 C-254.889 496.154 -257.328 496.156 -259.768 496.157 C-266.194 496.16 -272.62 496.17 -279.047 496.181 C-285.602 496.192 -292.158 496.196 -298.713 496.201 C-311.579 496.212 -324.446 496.229 -337.312 496.25 Z M33.852 555.058 C30.727 555.125 27.603 555.192 24.478 555.259 C-9.13 555.977 -42.722 556.919 -76.312 558.25 C-74.993 558.91 -73.673 559.57 -72.312 560.25 C-79.829 561.207 -87.305 561.557 -94.875 561.812 C-96.674 561.877 -96.674 561.877 -98.51 561.943 C-101.444 562.049 -104.378 562.151 -107.312 562.25 C-107.312 562.58 -107.312 562.91 -107.312 563.25 C-67.489 564.191 -27.677 564.467 12.156 564.489 C20.757 564.494 29.357 564.511 37.958 564.54 C44.721 564.561 51.484 564.572 58.246 564.573 C62.245 564.574 66.243 564.58 70.241 564.598 C73.953 564.614 77.664 564.616 81.376 564.608 C83.382 564.606 85.389 564.62 87.395 564.634 C88.583 564.629 89.771 564.623 90.996 564.617 C92.029 564.619 93.062 564.62 94.127 564.622 C96.704 564.447 96.704 564.447 98.5 562.958 C100.367 560.272 100.386 557.444 100.688 554.25 C78.401 554.074 56.131 554.573 33.852 555.058 Z M-134.312 559.25 C-134.312 560.24 -134.312 561.23 -134.312 562.25 C-130.023 562.25 -125.732 562.25 -121.312 562.25 C-121.643 561.26 -121.972 560.27 -122.312 559.25 C-126.273 559.25 -130.232 559.25 -134.312 559.25 Z M-99.312 559.25 C-99.312 559.58 -99.312 559.91 -99.312 560.25 C-96.012 560.25 -92.712 560.25 -89.312 560.25 C-89.312 559.92 -89.312 559.59 -89.312 559.25 C-92.613 559.25 -95.913 559.25 -99.312 559.25 Z " fill="#000000" transform="translate(452.3125,185.75)"/>
<path d="M0 0 C-0.33 1.32 -0.66 2.64 -1 4 C-2.32 4.33 -3.64 4.66 -5 5 C-4.625 3.062 -4.625 3.062 -4 1 C-2 0 -2 0 0 0 Z " fill="#000000" transform="translate(529,203)"/>
<path d="M0 0 C-0.125 2.188 -0.125 2.188 -1 5 C-2.398 6.165 -3.804 7.324 -5.25 8.43 C-11.038 13.623 -14.775 21.034 -18 28 C-19.266 25.063 -18.984 23.958 -17.848 20.898 C-7.259 0 -7.259 0 0 0 Z " fill="#000000" transform="translate(517,210)"/>
<path d="M0 0 C2.098 0.434 2.098 0.434 4 1 C4.583 13.137 4.583 13.137 1 18 C-1.188 18.875 -1.188 18.875 -3 19 C-3.33 21.64 -3.66 24.28 -4 27 C-3.423 26.319 -2.845 25.639 -2.25 24.938 C-1.508 24.298 -0.765 23.659 0 23 C2.218 23.19 3.415 23.415 5 25 C5.072 26.686 5.084 28.375 5.062 30.062 C5.053 30.982 5.044 31.901 5.035 32.848 C5.024 33.558 5.012 34.268 5 35 C3.378 35.838 1.752 36.67 0.125 37.5 C-0.78 37.964 -1.685 38.428 -2.617 38.906 C-5 40 -5 40 -7 40 C-7 42.31 -7 44.62 -7 47 C-6.051 46.794 -5.102 46.587 -4.125 46.375 C-2.578 46.189 -2.578 46.189 -1 46 C1 48 1 48 1.375 51.938 C1.287 55.694 1.287 55.694 -0.812 57.938 C-3 59 -3 59 -6 60 C-6.495 62.97 -6.495 62.97 -7 66 C-7.33 66 -7.66 66 -8 66 C-8.063 64.88 -8.126 63.76 -8.191 62.605 C-8.313 61.133 -8.437 59.66 -8.562 58.188 C-8.599 57.45 -8.636 56.712 -8.674 55.951 C-8.839 53.483 -8.839 53.483 -10 50 C-12.291 48.376 -14.26 47.829 -17 47 C-18 46 -18 46 -18.098 43.934 C-18.086 43.11 -18.074 42.286 -18.062 41.438 C-18.053 40.611 -18.044 39.785 -18.035 38.934 C-18.024 38.296 -18.012 37.657 -18 37 C-16.02 36.505 -16.02 36.505 -14 36 C-11.173 39.922 -9.973 42.137 -9 47 C-8.67 42.05 -8.34 37.1 -8 32 C-10.475 31.01 -10.475 31.01 -13 30 C-14.875 28.312 -14.875 28.312 -16 26 C-15.673 19.673 -15.673 19.673 -13 17 C-9.649 17.324 -8.249 18.623 -6 21 C-6.035 20.203 -6.07 19.407 -6.105 18.586 C-6.288 11.433 -5.912 6.925 -1.562 1.062 C-1.047 0.712 -0.531 0.361 0 0 Z M0 3 C-3.291 6.61 -4.547 9.126 -5 14 C-3.02 14.99 -3.02 14.99 -1 16 C1.024 12.965 1.321 11.806 1.625 8.312 C1.7 7.504 1.775 6.696 1.852 5.863 C1.901 5.248 1.95 4.634 2 4 C1.34 3.67 0.68 3.34 0 3 Z M-12 19 C-14.23 20.822 -14.23 20.822 -14.312 23.438 C-14.214 26.034 -14.214 26.034 -12.625 27.812 C-11.066 29.197 -11.066 29.197 -9 29 C-9.114 27.52 -9.241 26.041 -9.375 24.562 C-9.479 23.327 -9.479 23.327 -9.586 22.066 C-9.791 21.044 -9.791 21.044 -10 20 C-10.66 19.67 -11.32 19.34 -12 19 Z M-1 26 C-1.867 27.262 -2.718 28.535 -3.562 29.812 C-4.038 30.52 -4.514 31.228 -5.004 31.957 C-6.351 34.114 -6.351 34.114 -5 37 C-1.29 35.878 -1.29 35.878 2 34 C3.062 30.411 3.062 30.411 3 27 C1.68 26.67 0.36 26.34 -1 26 Z M-16 39 C-17.296 40.066 -17.296 40.066 -17.062 42.562 C-17.042 43.367 -17.021 44.171 -17 45 C-14.525 45.495 -14.525 45.495 -12 46 C-12.33 44.02 -12.66 42.04 -13 40 C-13.99 39.67 -14.98 39.34 -16 39 Z M-4 48 C-6.468 51.344 -6.468 51.344 -6.688 55.312 C-6.461 55.869 -6.234 56.426 -6 57 C-3.952 56.436 -3.952 56.436 -2 55 C-1.184 51.941 -1.184 51.941 -1 49 C-1.99 48.67 -2.98 48.34 -4 48 Z " fill="#000000" transform="translate(546,244)"/>
<path d="M0 0 C0 0.66 0 1.32 0 2 C-1.013 2.381 -1.013 2.381 -2.047 2.77 C-3.385 3.286 -3.385 3.286 -4.75 3.812 C-5.632 4.149 -6.513 4.485 -7.422 4.832 C-10.045 5.895 -10.045 5.895 -12.141 7.699 C-12.754 8.128 -13.368 8.558 -14 9 C-14.99 8.67 -15.98 8.34 -17 8 C-16.938 6.25 -16.938 6.25 -16 4 C-10.651 -0.012 -6.575 -0.537 0 0 Z " fill="#000000" transform="translate(421,266)"/>
<path d="M0 0 C1.65 0.33 3.3 0.66 5 1 C5.33 1.99 5.66 2.98 6 4 C5.01 4.99 4.02 5.98 3 7 C1.68 6.34 0.36 5.68 -1 5 C-0.67 3.35 -0.34 1.7 0 0 Z " fill="#000000" transform="translate(719,271)"/>
<path d="M0 0 C0 1.32 0 2.64 0 4 C1.32 3.67 2.64 3.34 4 3 C1.787 5.823 -0.41 8.518 -3 11 C-3.722 11.722 -4.444 12.444 -5.188 13.188 C-5.786 13.786 -6.384 14.384 -7 15 C-9.782 12.739 -10.901 11.594 -11.5 8 C-10.896 4.378 -9.883 3.204 -7 1 C-6.34 1 -5.68 1 -5 1 C-5 1.66 -5 2.32 -5 3 C-4.319 2.257 -4.319 2.257 -3.625 1.5 C-2 0 -2 0 0 0 Z " fill="#000000" transform="translate(427,272)"/>
<path d="M0 0 C3.413 2.579 4.788 4.135 5.812 8.312 C5.874 9.199 5.936 10.086 6 11 C4.68 11.33 3.36 11.66 2 12 C0.68 10.02 -0.64 8.04 -2 6 C-3.98 6.33 -5.96 6.66 -8 7 C-8.688 5.188 -8.688 5.188 -9 3 C-6.776 -0.663 -3.992 -0.639 0 0 Z " fill="#000000" transform="translate(339,282)"/>
<path d="M0 0 C0.66 0.33 1.32 0.66 2 1 C1.457 5.565 0.205 8.973 -2 13 C-0.68 12.67 0.64 12.34 2 12 C2.99 13.485 2.99 13.485 4 15 C0.535 16.485 0.535 16.485 -3 18 C-1.68 18.66 -0.36 19.32 1 20 C1 20.66 1 21.32 1 22 C0.031 22.289 -0.939 22.577 -1.938 22.875 C-5.107 23.642 -5.107 23.642 -6 26 C-5.01 26.33 -4.02 26.66 -3 27 C-3 27.66 -3 28.32 -3 29 C-4.32 29.33 -5.64 29.66 -7 30 C-7 31.32 -7 32.64 -7 34 C-7.99 34.495 -7.99 34.495 -9 35 C-9.365 36.325 -9.694 37.66 -10 39 C-10.637 40.348 -11.296 41.686 -12 43 C-11.01 43 -10.02 43 -9 43 C-9 43.66 -9 44.32 -9 45 C-10.98 45.495 -10.98 45.495 -13 46 C-13.99 49.63 -14.98 53.26 -16 57 C-16.66 57 -17.32 57 -18 57 C-17.905 56.024 -17.809 55.048 -17.711 54.043 C-17.6 52.771 -17.489 51.498 -17.375 50.188 C-17.259 48.923 -17.143 47.658 -17.023 46.355 C-16.686 42.864 -16.686 42.864 -19 40 C-18.625 37.812 -18.625 37.812 -18 36 C-17.01 36.99 -16.02 37.98 -15 39 C-15.33 36.03 -15.66 33.06 -16 30 C-15.01 30.99 -14.02 31.98 -13 33 C-13.33 29.37 -13.66 25.74 -14 22 C-13.34 22 -12.68 22 -12 22 C-11.34 23.32 -10.68 24.64 -10 26 C-10.33 22.37 -10.66 18.74 -11 15 C-10.01 15.33 -9.02 15.66 -8 16 C-8.33 12.37 -8.66 8.74 -9 5 C-6 6 -6 6 -4 9 C-3.795 8.434 -3.59 7.868 -3.379 7.285 C-3.109 6.552 -2.84 5.818 -2.562 5.062 C-2.296 4.332 -2.029 3.601 -1.754 2.848 C-1 1 -1 1 0 0 Z " fill="#000000" transform="translate(617,297)"/>
<path d="M0 0 C0.99 0.33 1.98 0.66 3 1 C4.168 3.941 4.168 3.941 5.188 7.562 C5.532 8.76 5.876 9.958 6.23 11.191 C6.484 12.118 6.738 13.045 7 14 C7.454 13.505 7.908 13.01 8.375 12.5 C10 11 10 11 12 11 C11.125 15.875 11.125 15.875 10 17 C9.959 19.333 9.958 21.667 10 24 C11.65 22.35 13.3 20.7 15 19 C14.835 20.134 14.67 21.269 14.5 22.438 C14.144 24.711 14.144 24.711 14 27 C14.99 26.34 15.98 25.68 17 25 C17.33 25.66 17.66 26.32 18 27 C17.505 27.969 17.01 28.939 16.5 29.938 C14.588 32.934 14.588 32.934 16 36 C17.98 35.505 17.98 35.505 20 35 C19.372 37.929 18.414 40.361 17 43 C18.98 42.34 20.96 41.68 23 41 C22.856 41.557 22.711 42.114 22.562 42.688 C22.377 43.451 22.191 44.214 22 45 C21.753 45.804 21.505 46.609 21.25 47.438 C20.92 50.817 22.226 52.191 24 55 C23.67 55.99 23.34 56.98 23 58 C22.683 57.374 22.366 56.747 22.039 56.102 C19.187 50.989 19.187 50.989 14.375 47.957 C11.906 47.491 9.507 47.154 7 47 C7 46.01 7 45.02 7 44 C9.64 44 12.28 44 15 44 C13.345 40.398 11.911 38.703 8.312 37.188 C7.219 36.796 6.126 36.404 5 36 C5.33 35.01 5.66 34.02 6 33 C7.65 33.33 9.3 33.66 11 34 C8.681 30.521 6.736 29.706 3 28 C3.33 27.01 3.66 26.02 4 25 C4.66 25 5.32 25 6 25 C6.128 22.615 6.128 22.615 5 20 C2.473 18.328 -0.199 17.142 -3 16 C-2.67 15.34 -2.34 14.68 -2 14 C0.97 14.495 0.97 14.495 4 15 C3.711 14.252 3.423 13.505 3.125 12.734 C2.754 11.75 2.383 10.765 2 9.75 C1.629 8.775 1.258 7.801 0.875 6.797 C0 4 0 4 0 0 Z " fill="#000000" transform="translate(573,302)"/>
<path d="M0 0 C1.671 0.248 1.671 0.248 3.375 0.5 C5.857 4.224 5.895 7.189 5.375 11.5 C4.312 14.5 4.312 14.5 2.375 16.5 C-1.084 16.994 -3.418 17.123 -6.562 15.5 C-8.293 12.243 -8.232 9.043 -7.625 5.5 C-5.511 1.441 -4.571 0.631 0 0 Z " fill="#000000" transform="translate(430.625,307.5)"/>
<path d="M0 0 C-0.541 1.771 -1.083 3.542 -1.625 5.312 C-1.99 6.507 -2.355 7.702 -2.73 8.934 C-3.594 11.73 -4.497 14.51 -5.426 17.285 C-14.488 44.577 -18.131 73.207 -22.69 101.508 C-30.422 149.446 -38.631 197.57 -59 242 C-60.326 238.021 -59.061 235.499 -57.719 231.711 C-57.47 230.984 -57.221 230.257 -56.965 229.509 C-56.429 227.944 -55.89 226.381 -55.347 224.819 C-53.922 220.706 -52.532 216.58 -51.145 212.453 C-50.869 211.633 -50.593 210.813 -50.308 209.968 C-46.779 199.424 -43.745 188.774 -41 178 C-40.719 176.903 -40.437 175.805 -40.147 174.674 C-33.395 147.992 -28.986 120.898 -24.77 93.719 C-24.48 91.858 -24.48 91.858 -24.184 89.96 C-23.233 83.846 -22.292 77.73 -21.372 71.61 C-19.576 59.836 -17.527 48.165 -14.965 36.531 C-14.61 34.913 -14.61 34.913 -14.248 33.262 C-11.899 22.927 -8.607 12.956 -5 3 C-6.429 3.924 -7.854 4.853 -9.277 5.785 C-10.071 6.302 -10.865 6.819 -11.683 7.352 C-20.204 13.414 -24.597 22.807 -29 32 C-29.437 32.906 -29.874 33.812 -30.324 34.746 C-32.649 40.286 -33.357 45.616 -33.875 51.535 C-34.904 62.191 -36.715 72.659 -38.625 83.188 C-38.954 85.028 -39.282 86.868 -39.609 88.709 C-40.399 93.141 -41.197 97.571 -42 102 C-42.33 102 -42.66 102 -43 102 C-42.604 91.293 -41.019 80.819 -39.372 70.245 C-39.196 69.11 -39.021 67.974 -38.84 66.805 C-38.679 65.784 -38.517 64.762 -38.351 63.71 C-37.914 60.794 -37.914 60.794 -38 57 C-43.239 78.544 -47.549 100.265 -51.889 122.003 C-57.734 151.272 -63.612 180.532 -70 209.688 C-70.241 210.792 -70.482 211.896 -70.731 213.034 C-71.399 216.09 -72.073 219.145 -72.75 222.199 C-72.937 223.047 -73.123 223.895 -73.316 224.768 C-74.69 230.899 -76.306 236.95 -78 243 C-78.66 243 -79.32 243 -80 243 C-79.882 241.541 -79.755 240.083 -79.625 238.625 C-79.521 237.407 -79.521 237.407 -79.414 236.164 C-79.074 233.564 -78.592 231.121 -78.025 228.566 C-76.833 222.651 -76.474 216.791 -76.184 210.773 C-76.092 209.054 -76.092 209.054 -75.998 207.299 C-75.804 203.658 -75.62 200.017 -75.438 196.375 C-75.311 193.954 -75.184 191.534 -75.057 189.113 C-74.871 185.591 -74.686 182.069 -74.504 178.547 C-74.183 172.325 -73.832 166.107 -73.426 159.891 C-72.181 140.429 -71.099 116.965 -80 99 C-81.524 97.239 -81.524 97.239 -83 96 C-83.134 97.105 -83.268 98.209 -83.406 99.348 C-83.805 102.549 -84.249 105.742 -84.719 108.934 C-84.846 109.833 -84.974 110.732 -85.105 111.658 C-85.359 113.446 -85.622 115.233 -85.895 117.018 C-89.448 142.665 -88.126 169.148 -88.069 194.974 C-88.058 200.177 -88.054 205.381 -88.049 210.584 C-88.038 220.723 -88.021 230.861 -88 241 C-88.66 241 -89.32 241 -90 241 C-90.289 230.879 -90.568 220.757 -90.834 210.635 C-90.958 205.931 -91.085 201.227 -91.221 196.524 C-91.757 177.867 -92.22 159.239 -91.645 140.578 C-91.605 139.273 -91.565 137.969 -91.524 136.624 C-90.254 102.508 -90.254 102.508 -84 90 C-82.68 90 -81.36 90 -80 90 C-71.201 105.712 -69.656 123.307 -69.794 140.965 C-69.812 143.365 -69.815 145.764 -69.814 148.164 C-69.834 156.544 -70.149 164.827 -70.784 173.186 C-71.177 180.12 -71.076 187.058 -71 194 C-66.077 173.933 -61.497 153.808 -57.465 133.543 C-57.314 132.785 -57.163 132.028 -57.008 131.247 C-55.493 123.625 -53.993 116 -52.513 108.372 C-49.732 94.044 -46.846 79.775 -43.32 65.609 C-43.046 64.504 -42.771 63.399 -42.488 62.26 C-37.888 44.255 -31.85 23.965 -19 10 C-18.34 10 -17.68 10 -17 10 C-17 9.34 -17 8.68 -17 8 C-14.953 6.344 -14.953 6.344 -12.25 4.5 C-11.368 3.892 -10.487 3.283 -9.578 2.656 C-3.584 -1.195 -3.584 -1.195 0 0 Z " fill="#000000" transform="translate(744,315)"/>
<path d="M0 0 C1.32 0.33 2.64 0.66 4 1 C4 2.32 4 3.64 4 5 C5.92 6.774 5.92 6.774 8 8 C6.621 13.516 3.858 17.87 0 22 C-0.66 22 -1.32 22 -2 22 C-1.28 17.391 0.313 13.328 2 9 C-0.475 8.01 -0.475 8.01 -3 7 C-2.387 4.038 -1.746 2.619 0 0 Z " fill="#000000" transform="translate(116,352)"/>
<path d="M0 0 C0.99 0.33 1.98 0.66 3 1 C2.684 1.522 2.367 2.044 2.041 2.582 C-1.665 8.706 -5.344 14.846 -9 21 C-9.623 22.047 -9.623 22.047 -10.258 23.115 C-29.029 54.89 -41.28 89.847 -54.239 124.25 C-58.639 135.915 -63.16 147.509 -68 159 C-69.165 155.504 -68.819 154.812 -67.56 151.47 C-67.218 150.548 -66.875 149.626 -66.523 148.676 C-66.14 147.674 -65.758 146.673 -65.363 145.641 C-64.777 144.075 -64.777 144.075 -64.18 142.477 C-62.9 139.065 -61.607 135.657 -60.312 132.25 C-59.428 129.903 -58.543 127.556 -57.66 125.208 C-55.499 119.477 -53.327 113.751 -51.149 108.026 C-50.139 105.365 -49.132 102.702 -48.127 100.039 C-38.906 75.583 -29.201 51.146 -17 28 C-16.35 26.725 -15.702 25.448 -15.055 24.172 C-10.664 15.613 -5.666 7.778 0 0 Z " fill="#000000" transform="translate(761,399)"/>
<path d="M0 0 C1.32 0 2.64 0 4 0 C22.14 31.237 41 68.788 41 106 C40.34 106 39.68 106 39 106 C38.85 105.267 38.699 104.534 38.544 103.779 C31.302 68.684 22.589 35.043 2.242 4.961 C1 3 1 3 0 0 Z " fill="#000000" transform="translate(412,426)"/>
<path d="M0 0 C0.66 0.33 1.32 0.66 2 1 C0.517 5.199 -1.658 8.704 -4.125 12.375 C-8.927 19.66 -13.014 27.246 -17 35 C-18.255 31.236 -17.574 30.462 -15.902 26.957 C-15.43 25.965 -14.957 24.973 -14.471 23.951 C-13.965 22.915 -13.459 21.88 -12.938 20.812 C-12.219 19.288 -12.219 19.288 -11.486 17.732 C-8.401 11.335 -5.074 5.074 0 0 Z " fill="#000000" transform="translate(735,429)"/>
<path d="M0 0 C1 1 1 1 1.336 3.949 C1.249 9.112 -1.1 13.281 -3.375 17.812 C-4.056 19.203 -4.056 19.203 -4.751 20.622 C-8.354 27.9 -12.229 35.006 -16.23 42.07 C-19.595 48.021 -22.827 54.042 -26.062 60.062 C-26.658 61.17 -27.253 62.277 -27.867 63.418 C-32.614 72.26 -37.325 81.12 -42 90 C-42.66 89.67 -43.32 89.34 -44 89 C-38.722 78.345 -33.425 67.704 -27.875 57.188 C-27.465 56.41 -27.056 55.633 -26.634 54.832 C-24.678 51.133 -22.702 47.447 -20.691 43.777 C-10.625 25.579 -10.625 25.579 -4 6 C-9.64 10.575 -14.103 15.3 -18.25 21.25 C-18.806 22.036 -19.362 22.822 -19.935 23.632 C-33.902 43.574 -45.982 64.844 -58 86 C-58.66 85.34 -59.32 84.68 -60 84 C-16.202 -1.279 -16.202 -1.279 0 0 Z " fill="#000000" transform="translate(757,479)"/>
<path d="M0 0 C1.268 0.124 1.268 0.124 2.562 0.25 C4.562 3.25 4.562 3.25 4.188 5.938 C3.981 6.701 3.775 7.464 3.562 8.25 C1.25 8.938 1.25 8.938 -1.438 9.25 C-3.312 8.125 -3.312 8.125 -4.438 6.25 C-3.88 0.398 -3.88 0.398 0 0 Z " fill="#000000" transform="translate(165.4375,499.75)"/>
<path d="M0 0 C0.593 0.205 1.186 0.41 1.797 0.621 C2.266 6.986 0.609 11.934 -1.578 17.871 C-1.895 18.768 -2.212 19.665 -2.539 20.59 C-3.859 24.264 -5.025 27.354 -7.203 30.621 C-8.193 30.621 -9.183 30.621 -10.203 30.621 C-9.707 22.518 -6.883 15.216 -4.203 7.621 C-9.631 13.049 -12.913 21.78 -16.203 28.621 C-16.863 28.621 -17.523 28.621 -18.203 28.621 C-17.686 22.953 -16.15 18.616 -13.578 13.559 C-13.222 12.855 -12.866 12.151 -12.499 11.426 C-5.933 -1.02 -5.933 -1.02 0 0 Z " fill="#000000" transform="translate(430.203125,571.37890625)"/>
<path d="M0 0 C0.99 0 1.98 0 3 0 C3.384 4.936 2.582 7.383 -0.312 11.375 C-0.927 12.249 -1.542 13.123 -2.176 14.023 C-2.778 14.676 -3.38 15.328 -4 16 C-4.99 16 -5.98 16 -7 16 C-6.402 11.857 -4.993 8.818 -2.938 5.188 C-2.116 3.724 -2.116 3.724 -1.277 2.23 C-0.856 1.494 -0.434 0.758 0 0 Z " fill="#000000" transform="translate(204,604)"/>
<path d="M0 0 C0.66 0.33 1.32 0.66 2 1 C3.275 6.449 3.275 6.449 2 9 C1.34 9 0.68 9 0 9 C-0.879 2.848 -0.879 2.848 -1 1 C-0.67 0.67 -0.34 0.34 0 0 Z " fill="#000000" transform="translate(168,613)"/>
<path d="M0 0 C1.5 1.375 1.5 1.375 3 3 C3 3.66 3 4.32 3 5 C3.66 5 4.32 5 5 5 C5 5.66 5 6.32 5 7 C4.34 7 3.68 7 3 7 C2.67 9.31 2.34 11.62 2 14 C0.062 13.375 0.062 13.375 -2 12 C-2.75 8.875 -2.75 8.875 -3 6 C-2.34 6 -1.68 6 -1 6 C-1.031 4.793 -1.031 4.793 -1.062 3.562 C-1 1 -1 1 0 0 Z " fill="#000000" transform="translate(185,626)"/>
<path d="M0 0 C0.66 0 1.32 0 2 0 C2.33 1.32 2.66 2.64 3 4 C3.33 3.34 3.66 2.68 4 2 C4.66 2 5.32 2 6 2 C5.67 5.3 5.34 8.6 5 12 C3.68 12 2.36 12 1 12 C0.638 10.377 0.285 8.751 -0.062 7.125 C-0.26 6.22 -0.457 5.315 -0.66 4.383 C-1 2 -1 2 0 0 Z " fill="#000000" transform="translate(157,628)"/>
<path d="M0 0 C0.33 0.66 0.66 1.32 1 2 C2.98 1.34 4.96 0.68 7 0 C7 1.32 7 2.64 7 4 C6.01 3.67 5.02 3.34 4 3 C1.64 5.36 1.509 6.779 1 10 C-0.804 7.241 -1.013 6.11 -0.625 2.75 C-0.419 1.842 -0.213 0.935 0 0 Z " fill="#000000" transform="translate(142,634)"/>
<path d="M0 0 C0.212 5.192 -0.409 9.127 -2 14 C-2.99 13.34 -3.98 12.68 -5 12 C-5.043 10 -5.041 8 -5 6 C-5.66 5.01 -6.32 4.02 -7 3 C-3.375 0 -3.375 0 0 0 Z " fill="#000000" transform="translate(200,638)"/>
<path d="M0 0 C0 0.66 0 1.32 0 2 C-0.543 2.182 -1.085 2.364 -1.645 2.551 C-2.718 2.928 -2.718 2.928 -3.812 3.312 C-4.874 3.678 -4.874 3.678 -5.957 4.051 C-8.145 5.067 -9.409 6.208 -11 8 C-11.312 5.688 -11.312 5.688 -11 3 C-7.44 -0.036 -4.576 -0.319 0 0 Z " fill="#000000" transform="translate(524,638)"/>
<path d="M0 0 C1.32 0 2.64 0 4 0 C4.201 3.716 4.152 4.772 2 8 C4.31 8.33 6.62 8.66 9 9 C8.693 15.622 7.257 20.221 4 26 C2.68 26 1.36 26 0 26 C0.458 22.531 0.891 19.326 2 16 C1.031 15.691 0.061 15.381 -0.938 15.062 C-4 14 -4 14 -5 13 C-4.684 7.623 -3.517 4.12 0 0 Z " fill="#000000" transform="translate(773,643)"/>
<path d="M0 0 C0.66 0.33 1.32 0.66 2 1 C2.33 1.99 2.66 2.98 3 4 C3.99 3.67 4.98 3.34 6 3 C6.33 2.34 6.66 1.68 7 1 C7.66 1 8.32 1 9 1 C8.587 5.82 6.62 7.91 3 11 C2.34 11 1.68 11 1 11 C-0.625 8.312 -0.625 8.312 -2 5 C-1.188 2.125 -1.188 2.125 0 0 Z " fill="#000000" transform="translate(172,644)"/>
<path d="M0 0 C2.688 0.312 2.688 0.312 5 1 C5.625 3.375 5.625 3.375 6 6 C5.34 6.66 4.68 7.32 4 8 C1.5 7.875 1.5 7.875 -1 7 C-2.312 4.938 -2.312 4.938 -3 3 C-1.812 1.438 -1.812 1.438 0 0 Z " fill="#000000" transform="translate(519,644)"/>
<path d="M0 0 C2.5 0.125 2.5 0.125 3.5 1.125 C3.541 2.791 3.543 4.459 3.5 6.125 C-1.25 7.25 -1.25 7.25 -3.5 6.125 C-3.543 4.459 -3.541 2.791 -3.5 1.125 C-2.5 0.125 -2.5 0.125 0 0 Z " fill="#000000" transform="translate(535.5,644.875)"/>
<path d="M0 0 C0.99 0.33 1.98 0.66 3 1 C3 2.32 3 3.64 3 5 C3.454 4.505 3.907 4.01 4.375 3.5 C6 2 6 2 8 2 C7.469 5.821 6.503 8.062 4 11 C3.01 10.67 2.02 10.34 1 10 C0.67 6.7 0.34 3.4 0 0 Z " fill="#000000" transform="translate(159,655)"/>
<path d="M0 0 C0.99 0.33 1.98 0.66 3 1 C3.625 3.375 3.625 3.375 4 6 C3.34 6.66 2.68 7.32 2 8 C-0.125 7.625 -0.125 7.625 -2 7 C-2.495 4.525 -2.495 4.525 -3 2 C-2.01 1.34 -1.02 0.68 0 0 Z " fill="#000000" transform="translate(535,658)"/>
<path d="M0 0 C-0.25 3.375 -0.25 3.375 -1 7 C-3.062 8.438 -3.062 8.438 -5 9 C-5.367 3.5 -5.367 3.5 -3.625 1.125 C-2 0 -2 0 0 0 Z " fill="#000000" transform="translate(189,661)"/>
<path d="M0 0 C1.675 0.286 3.344 0.618 5 1 C5 2.65 5 4.3 5 6 C3.35 6 1.7 6 0 6 C-0.382 4.344 -0.714 2.675 -1 1 C-0.67 0.67 -0.34 0.34 0 0 Z " fill="#000000" transform="translate(506,662)"/>
<path d="M0 0 C0.66 0.33 1.32 0.66 2 1 C2 1.66 2 2.32 2 3 C3.98 3 5.96 3 8 3 C7.34 3.66 6.68 4.32 6 5 C4.68 5 3.36 5 2 5 C1.67 6.32 1.34 7.64 1 9 C0.34 9 -0.32 9 -1 9 C-0.67 6.03 -0.34 3.06 0 0 Z " fill="#000000" transform="translate(545,664)"/>
<path d="M0 0 C0.99 0 1.98 0 3 0 C2.835 0.763 2.67 1.526 2.5 2.312 C1.035 12.027 1.035 12.027 4 21 C8.087 22.164 8.087 22.164 12 21 C12 22.65 12 24.3 12 26 C16.287 25.593 20.574 25.184 24.86 24.773 C26.316 24.634 27.772 24.495 29.227 24.357 C31.33 24.158 33.433 23.956 35.535 23.754 C36.797 23.633 38.059 23.513 39.36 23.389 C41.864 23.121 44.36 22.762 46.842 22.328 C47.884 22.22 48.926 22.111 50 22 C50.66 22.66 51.32 23.32 52 24 C51.515 32.251 49.82 40.42 48.438 48.562 C48.201 49.967 47.965 51.371 47.729 52.775 C47.155 56.184 46.578 59.592 46 63 C44.02 63.495 44.02 63.495 42 64 C42.564 52.27 43.595 40.659 45 29 C44.179 29.061 43.358 29.121 42.512 29.184 C39.413 29.41 36.314 29.634 33.214 29.854 C31.234 29.997 29.255 30.143 27.275 30.289 C19.834 30.817 12.46 31.14 5 31 C5.121 31.574 5.242 32.149 5.367 32.741 C5.918 35.368 6.459 37.996 7 40.625 C7.191 41.529 7.382 42.432 7.578 43.363 C8.522 47.982 9.252 52.256 9 57 C6.135 52.702 5.208 48.081 3.875 43.125 C3.598 42.131 3.321 41.137 3.035 40.113 C2.773 39.15 2.512 38.187 2.242 37.195 C2.004 36.319 1.765 35.443 1.519 34.54 C0.991 31.955 0.906 29.63 1 27 C4.96 26.505 4.96 26.505 9 26 C8.457 25.769 7.915 25.539 7.355 25.301 C6.64 24.975 5.925 24.649 5.188 24.312 C4.48 23.999 3.772 23.686 3.043 23.363 C0.357 21.571 -0.652 19.927 -2 17 C-2.363 14.062 -2.363 14.062 -2.312 11 C-2.309 9.989 -2.305 8.979 -2.301 7.938 C-1.995 4.948 -1.253 2.716 0 0 Z " fill="#000000" transform="translate(501,665)"/>
<path d="M0 0 C0.99 0.33 1.98 0.66 3 1 C2.624 3.782 2.327 5.588 0.562 7.812 C-1 9 -1 9 -3 9 C-2.443 5.656 -1.648 2.967 0 0 Z " fill="#000000" transform="translate(145,666)"/>
<path d="M0 0 C-0.599 3.356 -1.846 5.378 -4 8 C-5.32 7.34 -6.64 6.68 -8 6 C-7.048 4.994 -6.088 3.995 -5.125 3 C-4.591 2.443 -4.058 1.886 -3.508 1.312 C-2 0 -2 0 0 0 Z " fill="#000000" transform="translate(193,666)"/>
<path d="M0 0 C2.625 0.938 2.625 0.938 5 2 C4.67 3.32 4.34 4.64 4 6 C2.344 6.382 0.675 6.714 -1 7 C-2 6 -2 6 -2.062 3.438 C-2.042 2.633 -2.021 1.829 -2 1 C-1.34 0.67 -0.68 0.34 0 0 Z " fill="#000000" transform="translate(524,666)"/>
<path d="M0 0 C0.99 0.33 1.98 0.66 3 1 C2.688 3.375 2.688 3.375 2 6 C1.01 6.66 0.02 7.32 -1 8 C-1.66 7.34 -2.32 6.68 -3 6 C-2.75 3.438 -2.75 3.438 -2 1 C-1.34 0.67 -0.68 0.34 0 0 Z " fill="#000000" transform="translate(549,676)"/>
<path d="M0 0 C2.062 0.438 2.062 0.438 4 1 C4.33 2.65 4.66 4.3 5 6 C3.02 6.99 3.02 6.99 1 8 C-1 6 -1 6 -1.188 3.438 C-1 1 -1 1 0 0 Z " fill="#000000" transform="translate(537,677)"/>
<path d="M0 0 C2.125 0.375 2.125 0.375 4 1 C5.125 4.75 5.125 4.75 4 7 C2.35 6.67 0.7 6.34 -1 6 C-1.625 4.125 -1.625 4.125 -2 2 C-1.34 1.34 -0.68 0.68 0 0 Z " fill="#000000" transform="translate(518,680)"/>
<path d="M0 0 C0.99 0.33 1.98 0.66 3 1 C3 2.65 3 4.3 3 6 C1.35 6 -0.3 6 -2 6 C-2 4.35 -2 2.7 -2 1 C-1.34 0.67 -0.68 0.34 0 0 Z " fill="#000000" transform="translate(528,681)"/>
<path d="M0 0 C0 1.32 0 2.64 0 4 C-12.88 8.76 -28.366 7.186 -41.938 7.185 C-45.154 7.188 -48.37 7.206 -51.586 7.225 C-53.643 7.228 -55.701 7.23 -57.758 7.23 C-58.713 7.238 -59.668 7.245 -60.652 7.252 C-65.201 7.237 -68.878 7.184 -73 5 C-73 4.01 -73 3.02 -73 2 C-69.293 0.764 -65.885 0.895 -62.027 0.938 C-60.833 0.943 -60.833 0.943 -59.614 0.949 C-56.219 0.965 -52.824 0.993 -49.428 1.021 C-39.625 1.094 -29.885 1.007 -20.1 0.361 C-13.395 -0.08 -6.72 -0.097 0 0 Z " fill="#000000" transform="translate(210,698)"/>
<path d="M0 0 C1.121 0 2.242 0 3.397 0 C4.606 0.005 5.816 0.011 7.062 0.016 C8.301 0.017 9.539 0.019 10.816 0.02 C14.105 0.025 17.395 0.034 20.684 0.045 C24.043 0.055 27.401 0.06 30.759 0.065 C37.346 0.076 43.932 0.092 50.519 0.114 C50.519 1.434 50.519 2.754 50.519 4.114 C47.405 5.671 44.125 5.304 40.706 5.301 C39.871 5.302 39.036 5.302 38.176 5.303 C22.613 5.184 7.05 4.04 -8.481 3.114 C-8.481 2.454 -8.481 1.794 -8.481 1.114 C-5.378 0.079 -3.252 -0.007 0 0 Z " fill="#000000" transform="translate(502.481201171875,731.886474609375)"/>
<path d="M0 0 C4.822 0.01 9.645 0.015 14.467 0.02 C23.818 0.03 33.169 0.047 42.52 0.069 C42.52 0.399 42.52 0.729 42.52 1.069 C30.322 1.573 18.124 2.078 5.926 2.581 C0.259 2.816 -5.408 3.05 -11.076 3.284 C-24.693 3.848 -38.311 4.409 -51.929 4.964 C-54.225 5.058 -56.522 5.153 -58.818 5.247 C-73.932 5.865 -89.043 6.329 -104.167 6.631 C-105.189 6.652 -106.21 6.674 -107.263 6.695 C-124.671 7.053 -142.069 7.201 -159.48 7.069 C-159.48 6.739 -159.48 6.409 -159.48 6.069 C-143.648 4.92 -127.811 4.747 -111.944 4.516 C-108.447 4.464 -104.95 4.407 -101.452 4.35 C-100.398 4.336 -99.344 4.323 -98.257 4.309 C-88.81 4.295 -88.81 4.295 -79.48 3.069 C-79.15 2.409 -78.82 1.749 -78.48 1.069 C-52.314 0.186 -26.179 -0.063 0 0 Z " fill="#000000" transform="translate(748.4797973632813,746.9313354492188)"/>
</svg>
