<?xml version="1.0" encoding="UTF-8"?>
<!-- Generator: visioncortex VTracer 0.6.0 -->
<svg version="1.1" xmlns="http://www.w3.org/2000/svg" width="847" height="847">
<path d="M0 0 C3.637 3.044 6.977 6.35 10.327 9.704 C11.093 10.399 11.859 11.094 12.647 11.81 C21.154 19.691 29.005 30.366 34.327 40.704 C33.997 41.364 33.667 42.024 33.327 42.704 C32.733 41.844 32.139 40.984 31.526 40.099 C16.376 18.402 -1.047 -3.152 -28.228 -8.897 C-56.087 -13.444 -88.141 -3.366 -110.798 12.892 C-112.431 14.153 -114.057 15.422 -115.673 16.704 C-116.704 17.447 -117.735 18.189 -118.798 18.954 C-134.186 33.673 -141.549 54.425 -142.911 75.368 C-143.276 94.84 -138.266 112.259 -131.523 130.391 C-130.512 133.143 -129.576 135.915 -128.673 138.704 C-129.663 138.704 -130.653 138.704 -131.673 138.704 C-144.535 105.564 -152.764 74.395 -137.884 40.532 C-127.08 17.135 -107.789 3.78 -84.235 -5.046 C-56.572 -15.052 -24.787 -19.201 0 0 Z " fill="#000000" transform="translate(457.6728515625,85.2958984375)"/>
<path d="M0 0 C9.393 -1.092 18.347 3.352 25.562 9.062 C28.517 11.578 31.282 14.232 34 17 C33.505 18.485 33.505 18.485 33 20 C32.513 19.432 32.025 18.863 31.523 18.277 C23.087 9.089 13.185 4.272 1 2 C0.67 1.34 0.34 0.68 0 0 Z " fill="#000000" transform="translate(419,92)"/>
<path d="M0 0 C8.941 3.967 15.102 13.545 21 21 C21.817 22.012 22.635 23.024 23.477 24.066 C35.992 39.74 47.366 57.211 46 78 C44.974 84.584 41.305 88.226 36.262 92.367 C30.953 96.2 25.376 96.821 19 96 C12.744 94.369 8.832 91.553 5.273 86.176 C4.853 85.458 4.433 84.74 4 84 C3.621 83.354 3.242 82.708 2.852 82.043 C-3.786 68.992 -3.458 53.531 -3.336 39.281 C-3.312 36.306 -3.316 33.332 -3.322 30.357 C-3.281 3.281 -3.281 3.281 0 0 Z M2 6 C0.627 14.397 -0.313 22.486 0 31 C1.578 31.866 1.578 31.866 3.188 32.75 C6.379 34.566 9.195 36.62 12 39 C11.524 34.72 9.013 32.873 6 30 C4.644 28.351 3.304 26.69 2 25 C4.31 25.66 6.62 26.32 9 27 C9.33 25.35 9.66 23.7 10 22 C12.511 23.255 12.871 24.501 14 27 C16.209 24.287 16.209 24.287 16 21.738 C14.541 17.742 11.927 15.212 9 12.188 C8.441 11.59 7.881 10.993 7.305 10.377 C5.898 8.891 4.452 7.442 3 6 C2.67 6 2.34 6 2 6 Z M19 27 C16.461 30.418 15.636 32.758 16 37 C16.66 37 17.32 37 18 37 C18.681 35.907 19.361 34.814 20.062 33.688 C20.445 33.073 20.828 32.458 21.223 31.824 C22.311 29.829 22.311 29.829 21 27 C20.34 27 19.68 27 19 27 Z M24 34 C23.16 35.768 22.328 37.539 21.5 39.312 C21.036 40.299 20.572 41.285 20.094 42.301 C18.812 44.978 18.812 44.978 19 48 C19.66 48 20.32 48 21 48 C22.638 45.897 22.638 45.897 24.188 43.25 C24.738 42.368 25.288 41.487 25.855 40.578 C27.224 38.108 27.224 38.108 26.676 35.672 C26.453 35.12 26.23 34.568 26 34 C25.34 34 24.68 34 24 34 Z M0 36 C0 41.61 0 47.22 0 53 C1.836 53.763 3.671 54.526 5.562 55.312 C10.053 57.183 14.534 59.072 19 61 C17.519 57.235 15.512 55.666 12.188 53.438 C11.335 52.859 10.483 52.28 9.605 51.684 C7.854 50.552 6.063 49.482 4.238 48.473 C2 47 2 47 1 44 C5.367 45.092 8.512 46.158 12 49 C12.66 49 13.32 49 14 49 C12.445 44.941 9.786 42.921 6.438 40.25 C5.446 39.451 4.455 38.652 3.434 37.828 C1.374 35.9 1.374 35.9 0 36 Z M30 41 C28.82 43.056 27.656 45.118 26.5 47.188 C25.85 48.336 25.201 49.485 24.531 50.668 C23.068 53.851 22.639 55.573 23 59 C23.66 59.33 24.32 59.66 25 60 C26.37 57.758 27.721 55.508 29.062 53.25 C29.452 52.616 29.842 51.982 30.244 51.328 C32.434 47.826 32.434 47.826 32.728 43.847 C32.159 41.801 32.159 41.801 30 41 Z M36 50 C32.306 55.039 27 62.576 27 69 C27.66 69 28.32 69 29 69 C29.387 68.157 29.773 67.314 30.172 66.445 C30.693 65.35 31.213 64.254 31.75 63.125 C32.26 62.034 32.771 60.944 33.297 59.82 C35.025 56.958 35.9 56.065 39 55 C38.34 53.35 37.68 51.7 37 50 C36.67 50 36.34 50 36 50 Z M0 59 C2.284 75.634 2.284 75.634 11.445 89.203 C17.013 93.119 21.236 93.814 28 93 C33.929 91.192 37.512 88.026 41 83 C42.813 79.248 43.225 76.338 43.125 72.188 C43.107 71.212 43.089 70.236 43.07 69.23 C43.047 68.494 43.024 67.758 43 67 C38.015 71.154 35.81 75.797 34 82 C33.659 85.42 33.659 85.42 34 88 C33.01 87.67 32.02 87.34 31 87 C30.603 86.074 30.206 85.149 29.797 84.195 C27.381 79.899 24.638 78.821 20.25 76.875 C18.858 76.229 17.468 75.58 16.078 74.93 C15.402 74.617 14.726 74.305 14.029 73.983 C10.923 72.478 7.973 70.751 5 69 C5 68.34 5 67.68 5 67 C10.464 67.443 14.77 69.646 19.609 72.039 C20.398 72.356 21.187 72.673 22 73 C22.66 72.67 23.32 72.34 24 72 C21.755 67.282 18.83 65.405 14.25 63.25 C13.654 62.947 13.059 62.644 12.445 62.332 C8.232 60.28 4.597 59.448 0 59 Z M39 59 C38.081 60.068 37.214 61.181 36.375 62.312 C35.675 63.235 35.675 63.235 34.961 64.176 C34.644 64.778 34.327 65.38 34 66 C34.33 66.99 34.66 67.98 35 69 C35.041 68.381 35.082 67.762 35.125 67.125 C35.414 66.424 35.702 65.722 36 65 C39.062 63.75 39.062 63.75 42 63 C41.34 61.68 40.68 60.36 40 59 C39.67 59 39.34 59 39 59 Z M33 69 C34 71 34 71 34 71 Z M32 71 C33 73 33 73 33 73 Z M31 73 C32 75 32 75 32 75 Z " fill="#000000" transform="translate(529,97)"/>
<path d="M0 0 C4.557 2.278 5.166 3.415 7 8 C7 9.32 7 10.64 7 12 C6.34 12 5.68 12 5 12 C3.35 8.04 1.7 4.08 0 0 Z " fill="#000000" transform="translate(455,115)"/>
<path d="M0 0 C0.66 0 1.32 0 2 0 C3.25 2.5 3.044 4.017 2.914 6.805 C2.871 7.775 2.828 8.744 2.783 9.744 C2.731 10.777 2.679 11.81 2.625 12.875 C2.576 13.928 2.527 14.98 2.477 16.065 C2.229 21.18 1.932 26.276 1.438 31.375 C0.481 42.087 -0.382 52.959 4 63 C4.615 62.134 5.23 61.267 5.863 60.375 C6.679 59.25 7.496 58.125 8.312 57 C8.717 56.428 9.121 55.855 9.537 55.266 C10.619 53.788 11.805 52.387 13 51 C13.99 51 14.98 51 16 51 C17.089 63.191 11.913 75.533 6 86 C6.678 86.238 7.356 86.477 8.055 86.723 C11.65 88.282 14.842 90.322 18.125 92.438 C41.337 107.124 62.818 116.911 90 122 C89.67 122.99 89.34 123.98 89 125 C59.252 125.669 26.991 121.773 3.175 101.442 C2 100 2 100 2 98 C5.6 97.442 7.539 98.136 10.426 100.16 C11.726 101.121 13.021 102.089 14.312 103.062 C29.91 114.23 47.926 120.22 67 122 C67 121.34 67 120.68 67 120 C66.392 119.876 65.783 119.752 65.156 119.625 C49.946 116.046 36.653 107.147 23.398 99.211 C16.347 94.995 9.185 90.983 2 87 C2.33 86.34 2.66 85.68 3 85 C3.66 85 4.32 85 5 85 C1.285 66.535 -3.883 48.463 -11 31 C-10.716 33.688 -10.423 36.376 -10.125 39.062 C-10.046 39.815 -9.968 40.567 -9.887 41.342 C-9.351 46.101 -8.375 50.416 -7 55 C-6.875 57.938 -6.875 57.938 -7 60 C-7.66 60 -8.32 60 -9 60 C-10.32 55.05 -11.64 50.1 -13 45 C-13.37 58.511 -12.567 71.294 -10.364 84.627 C-9.784 88.406 -9.393 92.197 -9 96 C-11.799 93.472 -13.458 91.796 -14 88 C-14.536 88.223 -15.072 88.446 -15.625 88.676 C-21.47 89.474 -28.02 84.201 -32.631 80.795 C-35.216 78.749 -37.705 76.603 -40.188 74.434 C-43.478 71.587 -46.927 69.018 -50.453 66.473 C-50.964 65.987 -51.474 65.501 -52 65 C-52 64.01 -52 63.02 -52 62 C-48.731 63.474 -46.196 65.344 -43.438 67.625 C-34.722 74.679 -26.004 80.892 -16 86 C-24.475 68.519 -37.251 59.637 -54 51 C-54 50.34 -54 49.68 -54 49 C-49.492 49.618 -45.784 51.383 -41.812 53.5 C-40.828 54.022 -40.828 54.022 -39.824 54.555 C-33.742 57.912 -28.879 62.04 -24 67 C-25.044 64.341 -26.127 61.716 -27.297 59.109 C-34.617 42.187 -41 20.602 -41 2 C-38.349 2.357 -37.224 2.754 -35.395 4.758 C-29.961 12.887 -24.38 21.24 -20 30 C-18.68 24.72 -17.36 19.44 -16 14 C-15.01 14 -14.02 14 -13 14 C-11.35 18.95 -9.7 23.9 -8 29 C-8.124 27.68 -8.248 26.36 -8.375 25 C-8.424 16.526 -4.658 6.987 0 0 Z M-36 8 C-35.413 12.49 -34.236 16.225 -32.438 20.375 C-31.982 21.435 -31.527 22.494 -31.059 23.586 C-30.709 24.383 -30.36 25.179 -30 26 C-30.454 25.381 -30.908 24.762 -31.375 24.125 C-32.971 21.941 -32.971 21.941 -35 20 C-33.976 32.694 -30.239 44.117 -22 54 C-21.37 42.434 -22.164 33.704 -27 23 C-27.431 22.038 -27.861 21.077 -28.305 20.086 C-30.426 15.619 -32.668 11.702 -36 8 Z M-1 10 C0 12 0 12 0 12 Z M-2 12 C-5.295 21.252 -8.488 30.665 -4.5 40.188 C-4.005 41.116 -3.51 42.044 -3 43 C-2.67 43 -2.34 43 -2 43 C-0.975 32.643 -0.895 22.397 -1 12 C-1.33 12 -1.66 12 -2 12 Z M-16 33 C-15 36 -15 36 -15 36 Z M-17 39 C-17 48.24 -17 57.48 -17 67 C-16.67 67 -16.34 67 -16 67 C-16 57.76 -16 48.52 -16 39 C-16.33 39 -16.66 39 -17 39 Z M12 58 C11.465 59.244 10.948 60.496 10.438 61.75 C10.147 62.446 9.857 63.142 9.559 63.859 C8.922 66.3 9.198 67.64 10 70 C10.532 68.567 11.05 67.128 11.562 65.688 C11.853 64.887 12.143 64.086 12.441 63.262 C13.249 60.857 13.249 60.857 12 58 Z M8 70 C9 73 9 73 9 73 Z " fill="#000000" transform="translate(433,118)"/>
<path d="M0 0 C0.99 0.33 1.98 0.66 3 1 C2.67 10.57 2.34 20.14 2 30 C1.34 30 0.68 30 0 30 C-1.64 26.72 -1.145 23.101 -1.125 19.5 C-1.123 18.689 -1.121 17.879 -1.119 17.043 C-1.078 11.305 -0.735 5.696 0 0 Z " fill="#000000" transform="translate(235,126)"/>
<path d="M0 0 C0.99 0 1.98 0 3 0 C5.41 4.747 7.813 9.497 10.208 14.252 C11.024 15.868 11.841 17.483 12.661 19.096 C13.841 21.42 15.013 23.746 16.184 26.074 C16.55 26.792 16.917 27.51 17.295 28.25 C19.082 31.823 20.477 34.987 21 39 C20.01 39 19.02 39 18 39 C17.597 38.158 17.194 37.316 16.778 36.449 C15.267 33.296 13.753 30.145 12.238 26.994 C11.586 25.636 10.934 24.277 10.283 22.918 C9.342 20.953 8.398 18.99 7.453 17.027 C6.605 15.26 6.605 15.26 5.739 13.457 C4.489 10.972 3.204 8.629 1.784 6.248 C0 3 0 3 0 0 Z " fill="#000000" transform="translate(183,139)"/>
<path d="M0 0 C0.66 0.66 1.32 1.32 2 2 C0.378 6.084 -1.248 10.167 -2.875 14.25 C-3.335 15.409 -3.795 16.568 -4.27 17.762 C-4.714 18.877 -5.159 19.992 -5.617 21.141 C-6.026 22.167 -6.434 23.193 -6.855 24.251 C-7.817 26.561 -8.845 28.782 -10 31 C-10.66 31 -11.32 31 -12 31 C-9.821 24.256 -7.403 17.621 -4.875 11 C-4.515 10.047 -4.156 9.095 -3.785 8.113 C-3.441 7.21 -3.097 6.306 -2.742 5.375 C-2.431 4.558 -2.121 3.74 -1.8 2.898 C-1 1 -1 1 0 0 Z " fill="#000000" transform="translate(287,152)"/>
<path d="M0 0 C2.875 2.875 2.316 5.196 2.381 9.134 C2.342 29.399 -2.166 49.146 -14 66 C-14.33 65.34 -14.66 64.68 -15 64 C-14.351 62.083 -14.351 62.083 -13.27 59.738 C-12.88 58.873 -12.491 58.008 -12.09 57.117 C-11.668 56.192 -11.247 55.266 -10.812 54.312 C-6.973 45.649 -4.005 37.263 -2 28 C-1.742 26.839 -1.742 26.839 -1.479 25.656 C-0.983 22.903 -0.793 20.274 -0.684 17.48 C-0.642 16.459 -0.6 15.437 -0.557 14.385 C-0.517 13.33 -0.478 12.275 -0.438 11.188 C-0.394 10.113 -0.351 9.039 -0.307 7.932 C-0.201 5.288 -0.099 2.644 0 0 Z " fill="#000000" transform="translate(498,157)"/>
<path d="M0 0 C6.411 -0.356 12.06 0.436 18 3 C19.793 4.605 19.793 4.605 21 6 C19.02 6 17.04 6 15 6 C16.286 6.671 16.286 6.671 17.598 7.355 C23.684 10.573 29.524 13.798 35 18 C34.67 18.66 34.34 19.32 34 20 C30.99 19.376 28.699 18.396 26.066 16.82 C25.335 16.386 24.603 15.951 23.85 15.504 C23.095 15.049 22.34 14.594 21.562 14.125 C20.812 13.678 20.061 13.23 19.287 12.77 C17.188 11.518 15.094 10.26 13 9 C11.998 8.399 10.997 7.799 9.965 7.18 C9.316 6.79 8.668 6.401 8 6 C8.65 6.723 8.65 6.723 9.312 7.461 C9.869 8.093 10.426 8.724 11 9.375 C11.835 10.315 11.835 10.315 12.688 11.273 C14 13 14 13 14 15 C14.586 15.257 15.172 15.514 15.776 15.78 C18.194 17.106 19.693 18.525 21.582 20.527 C22.259 21.232 22.937 21.937 23.635 22.663 C24.353 23.414 25.072 24.164 25.812 24.938 C37.283 36.649 49.953 47.355 66 52 C65.494 57.534 64.044 61.56 61.438 66.438 C61.108 67.074 60.779 67.71 60.439 68.365 C59.635 69.915 58.819 71.458 58 73 C62.05 71.169 64.825 69.52 67.625 66.062 C69.974 63.234 72.343 60.551 75 58 C75.33 58.99 75.66 59.98 76 61 C71.312 68.336 64.629 76.358 56 78.875 C55.34 78.916 54.68 78.957 54 79 C53 76 53 76 53.605 74.222 C53.939 73.581 54.273 72.939 54.617 72.277 C54.977 71.574 55.336 70.871 55.707 70.146 C56.092 69.418 56.478 68.689 56.875 67.938 C57.253 67.205 57.63 66.472 58.02 65.717 C58.721 64.358 59.426 63.002 60.136 61.648 C60.77 60.439 61.389 59.221 62 58 C60.889 58.605 59.778 59.209 58.633 59.832 C53.866 62.213 49.045 63.482 43.875 64.688 C42.574 65.006 42.574 65.006 41.246 65.33 C34.466 66.966 28.134 68.134 21.125 68.062 C19.396 68.049 19.396 68.049 17.633 68.035 C16.33 68.018 16.33 68.018 15 68 C14.67 67.01 14.34 66.02 14 65 C17.506 61.352 21.125 58.231 25.188 55.188 C26.233 54.397 27.278 53.607 28.355 52.793 C31 51 31 51 33 51 C33 50.34 33 49.68 33 49 C30.03 48.34 27.06 47.68 24 47 C23.67 45.68 23.34 44.36 23 43 C26.63 42.01 30.26 41.02 34 40 C32.989 39.01 31.979 38.02 30.938 37 C28.41 34.477 26.009 31.901 23.688 29.188 C20.924 25.977 18.014 22.977 15 20 C10.79 15.835 6.765 11.573 3 7 C2.442 6.327 1.884 5.654 1.309 4.961 C0 3 0 3 0 0 Z M30 45 C32.858 45.685 32.858 45.685 36 46 C36.99 45.34 37.98 44.68 39 44 C35.221 42.95 33.351 42.89 30 45 Z M27 59 C26.335 59.459 25.67 59.917 24.985 60.39 C23.302 61.563 21.648 62.778 20 64 C20 64.33 20 64.66 20 65 C34.124 65.911 47.868 62.136 60 55 C60 54.01 60 53.02 60 52 C46.198 48.703 38.449 50.845 27 59 Z " fill="#000000" transform="translate(354,160)"/>
<path d="M0 0 C0.66 0 1.32 0 2 0 C3.375 1.469 3.375 1.469 5 3.5 C10.89 10.421 17.96 15.805 26 20 C25.67 20.99 25.34 21.98 25 23 C18.643 19.333 12.872 15.291 7.438 10.375 C6.925 9.92 6.413 9.465 5.886 8.997 C2.918 6.241 1.184 3.882 0 0 Z " fill="#000000" transform="translate(139,173)"/>
<path d="M0 0 C3.458 2.306 3.729 3.27 5.043 7.086 C5.394 8.099 5.746 9.112 6.107 10.156 C6.464 11.218 6.82 12.281 7.188 13.375 C7.74 14.957 7.74 14.957 8.303 16.57 C11 24.457 11 24.457 11 29 C10.34 29 9.68 29 9 29 C7.873 26.126 6.748 23.251 5.625 20.375 C5.308 19.567 4.991 18.759 4.664 17.926 C-0.305 5.192 -0.305 5.192 0 0 Z " fill="#000000" transform="translate(423,181)"/>
<path d="M0 0 C5.719 3.507 9.079 8.062 12.355 13.844 C12.025 14.504 11.695 15.164 11.355 15.844 C10.695 15.844 10.035 15.844 9.355 15.844 C8.059 14.016 8.059 14.016 6.605 11.594 C2.413 5.128 -2.133 2.499 -9.645 0.844 C-12.639 0.428 -15.633 0.103 -18.645 -0.156 C-18.645 -0.816 -18.645 -1.476 -18.645 -2.156 C-12.703 -4.137 -5.645 -2.468 0 0 Z " fill="#000000" transform="translate(257.64453125,202.15625)"/>
<path d="M0 0 C2.438 1.562 2.438 1.562 4 4 C3.75 7.75 3.75 7.75 3 11 C3.784 11.124 4.567 11.248 5.375 11.375 C8 12 8 12 10 14 C10.375 16.938 10.375 16.938 10 20 C7.016 23.462 3.397 23.674 -1 24 C-1.66 23.67 -2.32 23.34 -3 23 C-2.319 23.99 -1.639 24.98 -0.938 26 C1.15 29.606 0.852 31.591 0.043 35.684 C-0.079 42.26 4.098 48.942 8 54 C8.413 53.043 8.413 53.043 8.835 52.067 C13.574 41.187 18.313 30.375 24.75 20.375 C25.173 19.709 25.595 19.042 26.031 18.356 C29.089 13.78 32.674 10.383 37 7 C37.99 7.495 37.99 7.495 39 8 C28.319 53.061 28.319 53.061 16 61 C15.01 61.33 14.02 61.66 13 62 C14.883 67.609 18.473 71.668 22.102 76.258 C24 79 24 79 24 82 C20.697 80.584 18.764 78.91 16.438 76.188 C15.569 75.188 15.569 75.188 14.684 74.168 C13 72 13 72 11.785 69.414 C9.22 65.945 5.986 65.307 2 64.188 C-4.997 62.037 -11.801 59.621 -18.562 56.812 C-19.389 56.48 -20.216 56.147 -21.068 55.803 C-22.212 55.323 -22.212 55.323 -23.379 54.832 C-24.055 54.551 -24.731 54.27 -25.428 53.98 C-27 53 -27 53 -28 50 C-25.12 47.12 -23.018 47.7 -19 47.688 C-11.841 47.709 -5.433 48.783 1 52 C0.292 49.889 -0.442 47.786 -1.188 45.688 C-1.594 44.516 -2 43.344 -2.418 42.137 C-4.195 38.613 -5.553 37.743 -9 36 C-9.33 35.34 -9.66 34.68 -10 34 C-10.99 34.99 -11.98 35.98 -13 37 C-18.57 35.547 -18.57 35.547 -20.375 33.25 C-21.157 30.435 -21.132 27.906 -21 25 C-21.536 25.33 -22.072 25.66 -22.625 26 C-25.672 27.283 -27.72 27.41 -31 27 C-33.684 25.041 -34.773 23.605 -35.938 20.5 C-36 18 -36 18 -35.125 15.75 C-31.822 13.03 -28.168 13.175 -24 13 C-24.701 11.948 -25.403 10.896 -26.125 9.812 C-28.104 6.408 -28.104 6.408 -27.25 3.062 C-26.838 2.382 -26.425 1.701 -26 1 C-19.131 0.277 -19.131 0.277 -15.91 2.336 C-14.195 3.83 -12.568 5.353 -11 7 C-10.732 6.216 -10.464 5.433 -10.188 4.625 C-8.006 -0.198 -4.896 -0.599 0 0 Z M-5 4 C-8.159 7.433 -8.757 10.386 -9 15 C-8.18 17.849 -8.18 17.849 -7 20 C-5.584 20.054 -4.167 20.093 -2.75 20.125 C-1.567 20.16 -1.567 20.16 -0.359 20.195 C2.207 19.983 3.792 19.287 6 18 C6 17.01 6 16.02 6 15 C2.623 15.537 -0.697 16.111 -4 17 C-2.667 13 -1.333 9 0 5 C-1.65 4.67 -3.3 4.34 -5 4 Z M-23 5 C-21.827 8.337 -20.811 10.774 -18 13 C-17.34 13 -16.68 13 -16 13 C-17.27 8.585 -17.27 8.585 -20 5 C-20.99 5 -21.98 5 -23 5 Z M33 13 C27.061 20.991 27.061 20.991 23 30 C23.33 30.99 23.66 31.98 24 33 C23.915 34.733 23.764 36.464 23.562 38.188 C23.461 39.089 23.359 39.99 23.254 40.918 C23.17 41.605 23.086 42.292 23 43 C26.182 38.227 27.752 32.814 29.688 27.438 C30.116 26.275 30.545 25.113 30.986 23.916 C31.587 22.254 31.587 22.254 32.199 20.559 C32.754 19.032 32.754 19.032 33.319 17.474 C34.29 15.023 34.29 15.023 33 13 Z M-11 16 C-11.33 16.66 -11.66 17.32 -12 18 C-11.01 17.67 -10.02 17.34 -9 17 C-9.66 16.67 -10.32 16.34 -11 16 Z M-32 19 C-31.67 20.32 -31.34 21.64 -31 23 C-29.02 23 -27.04 23 -25 23 C-24.67 22.34 -24.34 21.68 -24 21 C-25.32 20.67 -26.64 20.34 -28 20 C-26.02 19.01 -24.04 18.02 -22 17 C-26.176 15.608 -28.135 17.177 -32 19 Z M-14 23 C-15.95 25.507 -17.081 27.024 -16.812 30.25 C-16.131 32.194 -16.131 32.194 -14 33 C-13.01 29.7 -12.02 26.4 -11 23 C-11.99 23 -12.98 23 -14 23 Z M-9 23 C-8.01 26.3 -7.02 29.6 -6 33 C-5.01 32.67 -4.02 32.34 -3 32 C-3.427 27.767 -3.427 27.767 -5.438 24.125 C-6.95 22.805 -6.95 22.805 -9 23 Z M21 32 C18.896 37.129 18.782 41.561 19 47 C19.33 47 19.66 47 20 47 C20.365 45.252 20.716 43.502 21.062 41.75 C21.26 40.775 21.457 39.801 21.66 38.797 C21.984 36.132 21.855 34.511 21 32 Z M-22 51 C-20.161 54.679 -15.33 55.34 -11.625 56.688 C-10.748 57.021 -9.872 57.354 -8.969 57.697 C-7.704 58.162 -7.704 58.162 -6.414 58.637 C-5.253 59.065 -5.253 59.065 -4.069 59.503 C-1.824 60.235 -1.824 60.235 1 59 C-0.434 58.326 -1.873 57.661 -3.312 57 C-4.113 56.629 -4.914 56.257 -5.738 55.875 C-8.062 54.82 -8.062 54.82 -11 55 C-10.67 54.01 -10.34 53.02 -10 52 C-12.882 51.039 -14.699 50.894 -17.688 50.938 C-18.496 50.947 -19.304 50.956 -20.137 50.965 C-20.752 50.976 -21.366 50.988 -22 51 Z " fill="#000000" transform="translate(242,224)"/>
<path d="M0 0 C7.92 3.96 7.92 3.96 16 8 C16 8.99 16 9.98 16 11 C9.657 9.194 4.431 6.744 -1 3 C-0.67 2.01 -0.34 1.02 0 0 Z " fill="#000000" transform="translate(126,227)"/>
<path d="M0 0 C18.692 14.971 30.549 34.614 33.746 58.488 C35.285 79.775 28.981 99.508 15.016 115.793 C13 118 13 118 11.32 119.496 C9.565 121.495 9.228 123.299 8.625 125.875 C7.342 130.489 5.803 132.939 2 136 C1.278 136.598 0.556 137.196 -0.188 137.812 C-2 139 -2 139 -4 139 C-3.34 141.64 -2.68 144.28 -2 147 C-0.948 146.505 0.104 146.01 1.188 145.5 C6.703 143.198 6.703 143.198 10 144 C12.188 146.812 12.188 146.812 14 150 C14.66 150.99 15.32 151.98 16 153 C16.447 152.639 16.895 152.278 17.355 151.906 C22.303 148.108 22.303 148.108 25.812 147.562 C28 148 28 148 30 150 C30.125 153.625 30.125 153.625 30 157 C31.32 157.66 32.64 158.32 34 159 C34 161.31 34 163.62 34 166 C34.639 166.206 35.279 166.413 35.938 166.625 C38 168 38 168 38.938 170.625 C39.02 175.081 37.759 177.919 36 182 C37.65 182.33 39.3 182.66 41 183 C41.101 183.646 41.201 184.292 41.305 184.957 C43.434 195.62 48.732 204.595 54 214 C54.771 213.667 55.542 213.335 56.336 212.992 C59.476 211.823 60.873 211.848 64 213 C67 216.207 67 216.207 67 219 C67.99 218.34 68.98 217.68 70 217 C74.358 216.435 76.26 216.441 79.812 219.125 C85.016 225.963 84.56 234.072 84.859 242.326 C85.329 249.772 87.404 254.188 92 260 C92.577 260.887 93.155 261.774 93.75 262.688 C100.347 269.468 109.092 273.16 118.461 273.535 C148.176 273.858 178.449 261.762 206.699 253.659 C215.557 251.121 224.428 248.631 233.312 246.188 C234.424 245.881 235.535 245.574 236.68 245.258 C242.104 243.768 247.536 242.338 253 241 C253.055 240.203 253.111 239.406 253.168 238.585 C253.421 234.973 253.679 231.362 253.938 227.75 C254.025 226.496 254.112 225.241 254.201 223.949 C254.288 222.744 254.375 221.539 254.465 220.297 C254.543 219.187 254.622 218.076 254.703 216.933 C254.949 214.508 255.322 212.333 256 210 C255.117 209.974 254.234 209.948 253.324 209.922 C241.682 209.372 232.536 207.545 223.941 199.273 C216.907 191.036 214.63 180.955 214.75 170.375 C214.748 169.592 214.746 168.81 214.744 168.003 C214.789 163.039 215.432 158.553 216.5 153.688 C217.492 147.972 216.304 144.565 213.188 139.812 C211.797 137.871 210.402 135.933 209 134 C208.67 133.01 208.34 132.02 208 131 C213.169 125.471 218.787 120.959 224.816 116.43 C231.613 111.559 231.613 111.559 236.5 104.938 C236.84 104.287 237.181 103.636 237.531 102.965 C238.194 100.962 238.194 100.962 237.285 98.918 C235.986 96.979 234.786 95.783 232.938 94.375 C229.161 91.321 229.161 91.321 228.762 88.039 C228.338 74.242 234.567 63.692 243.688 53.812 C254.653 43.335 268.081 39.017 283 39 C299.31 40.074 314.881 47.561 327.949 57.168 C331.731 59.439 335.078 60.02 339.375 60.75 C353.705 63.593 365.286 70.075 376 80 C376.754 80.674 377.508 81.348 378.285 82.043 C401.913 104.254 409.672 132.831 411.938 164.188 C413.033 178.646 414.945 191.145 424 203 C424.633 203.84 425.266 204.681 425.918 205.547 C428.052 208.061 430.236 210.008 432.812 212.062 C434.259 213.223 434.259 213.223 435.734 214.406 C436.257 214.821 436.78 215.236 437.318 215.664 C439.118 217.094 440.911 218.53 442.703 219.969 C449.749 225.619 449.749 225.619 456.828 231.227 C470.609 242.104 483.285 252.855 489 270 C490.068 285.928 487.102 297.818 478.023 311.004 C476.466 313.311 475.148 315.477 474 318 C473.34 318 472.68 318 472 318 C472 318.66 472 319.32 472 320 C468.538 323 468.538 323 466 323 C465.753 323.583 465.505 324.165 465.25 324.766 C463.815 327.331 462.223 328.837 460 330.75 C459.299 331.364 458.597 331.977 457.875 332.609 C456 334 456 334 454 334 C453.876 334.949 453.753 335.898 453.625 336.875 C453 340 453 340 451 342 C448.375 341.625 448.375 341.625 446 341 C446 341.66 446 342.32 446 343 C445.134 342.959 444.268 342.918 443.375 342.875 C439.876 343.005 437.254 343.76 434 345 C434 346.32 434 347.64 434 349 C434.66 349.33 435.32 349.66 436 350 C434.35 350.66 432.7 351.32 431 352 C431 350.68 431 349.36 431 348 C430.01 347.67 429.02 347.34 428 347 C428 347.66 428 348.32 428 349 C427.34 349.66 426.68 350.32 426 351 C426.66 351.33 427.32 351.66 428 352 C427.34 354.31 426.68 356.62 426 359 C425.34 359 424.68 359 424 359 C423.67 359.66 423.34 360.32 423 361 C422.34 361 421.68 361 421 361 C421.309 359.374 421.622 357.749 421.938 356.125 C422.112 355.22 422.286 354.315 422.465 353.383 C423 351 423 351 424 349 C422.68 349 421.36 349 420 349 C419.34 349.99 418.68 350.98 418 352 C417.34 351.34 416.68 350.68 416 350 C413.465 349.604 410.987 349.301 408.438 349.062 C403.629 348.569 399.381 347.988 394.875 346.125 C392.887 345.298 392.887 345.298 391 345 C387.795 346.609 387.795 346.609 385 349 C374.427 352.727 362.357 352.183 352 348 C352.329 348.882 352.657 349.763 352.996 350.672 C366.755 389.043 386.582 450.459 368.591 489.66 C363.192 500.656 356.853 507.818 345.109 512.039 C338.032 514.022 331.317 514.35 324 514 C324.42 515.12 324.42 515.12 324.848 516.262 C329.272 528.739 332.184 541.583 335.177 554.466 C335.735 556.863 336.303 559.258 336.878 561.651 C337.29 563.382 337.29 563.382 337.711 565.148 C337.959 566.179 338.207 567.209 338.462 568.271 C339 571 339 571 339 575 C322.259 580.839 304.623 583.545 287 585 C286.325 585.058 285.65 585.116 284.955 585.175 C228.272 589.763 168.944 583.843 113 575 C114.625 564.511 117.308 554.272 119.938 544 C120.178 543.058 120.419 542.117 120.667 541.147 C138.317 472.43 138.317 472.43 155.189 446.148 C156.524 444.114 156.524 444.114 158 441 C157.615 438.75 157.615 438.75 156 437 C155.471 436.268 154.943 435.536 154.398 434.781 C148.712 428.37 143.265 426.617 135.191 424.941 C110.607 419.765 90.286 401.497 73.168 384.137 C70.458 381.466 67.611 378.984 64.73 376.5 C62.713 374.751 60.775 372.997 59 371 C59 370.34 59 369.68 59 369 C58.34 369 57.68 369 57 369 C55.555 367.566 55.555 367.566 53.875 365.562 C51.312 362.543 48.719 359.564 46.062 356.625 C39.941 349.745 34.258 342.559 29 335 C32.934 329.665 37.004 324.455 41.168 319.297 C42.82 317.226 44.423 315.128 46 313 C45.299 312.14 44.597 311.28 43.875 310.395 C33.43 297.444 23.079 283.377 19.562 266.812 C18.646 262.712 17.529 259.991 14.957 256.68 C10.349 250.328 6.831 243.5 3.264 236.531 C2.118 234.3 0.954 232.078 -0.211 229.857 C-0.952 228.422 -1.691 226.987 -2.43 225.551 C-2.774 224.896 -3.119 224.242 -3.474 223.568 C-5.645 219.278 -6.569 215.718 -7 211 C-5.68 211 -4.36 211 -3 211 C-3 210.01 -3 209.02 -3 208 C-3.598 207.918 -4.196 207.835 -4.812 207.75 C-7.73 206.75 -8.54 205.702 -10 203 C-10.188 199.75 -10.188 199.75 -10 197 C-10.784 196.732 -11.567 196.464 -12.375 196.188 C-15 195 -15 195 -17 192 C-17.055 189.695 -17.055 189.695 -16.875 187.125 C-16.756 182.298 -17.762 180.63 -21 177 C-21.875 173.375 -21.875 173.375 -22 170 C-21.34 169.01 -20.68 168.02 -20 167 C-20.179 164.407 -20.637 161.931 -21.102 159.375 C-21.068 158.591 -21.035 157.808 -21 157 C-19.023 155.188 -19.023 155.188 -17 154 C-18.302 149.92 -18.302 149.92 -20 146 C-20.641 146.035 -21.281 146.07 -21.941 146.105 C-22.806 146.133 -23.671 146.16 -24.562 146.188 C-25.409 146.222 -26.256 146.257 -27.129 146.293 C-30 146 -30 146 -33.031 144.52 C-38.368 142.064 -44.173 142.556 -49.938 142.5 C-76.243 141.845 -98.214 135.49 -117 116 C-131.243 98.913 -135.913 78.757 -134 57 C-131.008 33.508 -118.678 13.044 -100.605 -1.992 C-70.254 -24.643 -29.636 -22.485 0 0 Z M-95 8 C-95.598 8.458 -96.196 8.915 -96.812 9.387 C-109.986 19.649 -117.684 36.757 -120 53 C-121.423 68.122 -119.164 82.508 -112 96 C-111.558 96.842 -111.116 97.684 -110.66 98.551 C-100.877 115.975 -84.474 126.983 -65.625 132.875 C-45.519 137.334 -25.08 133.847 -7.669 123.107 C-3.312 120.217 0.367 116.736 4 113 C4.695 112.326 5.39 111.652 6.105 110.957 C18.961 97.704 24.703 79.912 24.471 61.72 C23.752 44.003 16.851 28.183 5 15 C4.223 14.083 4.223 14.083 3.43 13.148 C-5.141 3.717 -17.078 -2.108 -29 -6 C-29.688 -6.233 -30.377 -6.467 -31.086 -6.707 C-52.656 -13.49 -78.357 -6.806 -95 8 Z M249.16 56.531 C247.69 58.08 247.69 58.08 248 61 C250.679 59.717 253.107 58.29 255.562 56.625 C265.388 50.418 275.482 48.826 286.875 48.938 C287.754 48.942 288.633 48.947 289.539 48.951 C291.693 48.963 293.846 48.981 296 49 C296 48.34 296 47.68 296 47 C280.217 40.943 261.824 45.992 249.16 56.531 Z M252 68 C252 69.32 252 70.64 252 72 C254.106 70.954 256.198 69.894 258.27 68.781 C265.186 65.296 271.3 64.16 278.91 63.457 C282.098 63.299 282.098 63.299 284 61 C275.801 55.534 258.618 61.382 252 68 Z M257.562 76.438 C253.6 81.607 252.743 85.447 253 92 C254.32 92.33 255.64 92.66 257 93 C257.098 92.348 257.196 91.695 257.297 91.023 C258.393 84.619 259.657 79.504 265.117 75.414 C268.836 73.59 272.226 73.211 276.312 72.812 C277.053 72.731 277.794 72.649 278.557 72.564 C280.37 72.366 282.185 72.181 284 72 C284 71.01 284 70.02 284 69 C273.565 68.466 264.958 68.315 257.562 76.438 Z M300 80 C295.839 82.553 292.658 84.866 290 89 C289.203 92.188 289.203 92.188 289 95 C290.32 95.33 291.64 95.66 293 96 C293.303 95.492 293.606 94.984 293.918 94.461 C296.649 89.974 299.541 85.953 303 82 C302.01 81.34 301.02 80.68 300 80 Z M305.125 86.375 C300.979 89.464 298.542 93.07 297 98 C296.195 104.354 295.446 112.449 299 118 C300.98 117.505 300.98 117.505 303 117 C302.954 115.866 302.907 114.731 302.859 113.562 C302.421 98.359 302.421 98.359 307 92 C309.25 90.188 309.25 90.188 311 89 C311 88.01 311 87.02 311 86 C307.972 84.605 307.972 84.605 305.125 86.375 Z M242 101 C237.189 110.349 232.821 119.774 228.812 129.5 C228.305 130.703 227.798 131.905 227.275 133.145 C219.88 151.004 214.41 169.076 221 188 C224.254 195.093 229.481 200.582 236.625 203.812 C253.967 209.914 275.155 204.795 291.371 197.367 C300.058 192.85 307.716 187.619 314 180 C314 179.34 314 178.68 314 178 C314.99 178 315.98 178 317 178 C317.206 178.557 317.413 179.114 317.625 179.688 C320.465 184.464 323.567 186.624 328.812 188 C335.531 188.436 342.163 185.722 347.426 181.637 C351.688 177.205 354.244 171.514 354.562 165.375 C354.181 159.39 351.822 154.775 347.562 150.625 C342.451 147.384 338.077 146.261 332 147 C325.192 149.156 322.75 152.348 318.938 158.125 C315.169 163.717 315.169 163.717 310.125 164.938 C306.845 165.239 306.111 165.065 303.125 163.312 C298.966 158.786 298.051 154.068 298 148 C298.599 141.941 299.402 135.884 301 130 C295.679 127.308 290.346 124.643 285 122 C284.28 121.643 283.56 121.286 282.818 120.918 C280.78 119.913 278.735 118.923 276.688 117.938 C276.06 117.627 275.433 117.316 274.787 116.996 C271.037 115.144 271.037 115.144 267 116 C267.495 117.485 267.495 117.485 268 119 C267.078 121.365 266.083 123.704 265 126 C264.157 125.495 263.314 124.989 262.445 124.469 C261.35 123.819 260.254 123.169 259.125 122.5 C258.034 121.85 256.944 121.201 255.82 120.531 C253.242 118.841 253.242 118.841 251 119 C251.553 117.079 252.107 115.159 252.66 113.238 C253.086 110.436 252.973 108.675 252 106 C249.722 104.317 249.722 104.317 246.938 103.188 C245.292 102.458 243.646 101.729 242 101 Z M229 117 C226.537 119.098 224.08 121.205 221.625 123.312 C220.926 123.907 220.228 124.502 219.508 125.115 C218.837 125.692 218.167 126.269 217.477 126.863 C216.859 127.392 216.241 127.921 215.604 128.466 C213.771 130.108 213.771 130.108 212 133 C213.98 136.63 215.96 140.26 218 144 C218.66 144 219.32 144 220 144 C221.7 139.88 223.383 135.753 225.062 131.625 C225.548 130.449 226.033 129.274 226.533 128.062 C226.988 126.941 227.442 125.82 227.91 124.664 C228.334 123.627 228.759 122.59 229.196 121.522 C230.311 119.04 230.311 119.04 229 117 Z M18.625 154.125 C10.704 160.228 2.276 165.816 -8 166 C-8.722 165.794 -9.444 165.587 -10.188 165.375 C-12.197 164.776 -12.197 164.776 -14.688 166.188 C-17.021 167.782 -17.021 167.782 -18 169.75 C-18 173.255 -16.523 175.896 -15 179 C-13.828 180.385 -13.828 180.385 -10.562 180.312 C2.554 180.079 14.192 170.286 22.906 161.43 C24.96 159.047 26.595 156.815 28 154 C27.309 151.697 27.309 151.697 26 150 C22.787 150 21.095 152.16 18.625 154.125 Z M27 159 C26.611 159.485 26.221 159.969 25.82 160.469 C15.371 172.989 2.718 179.955 -13 184 C-12.598 188.689 -12.598 188.689 -10.875 193 C-7.822 194.628 -5.322 193.658 -2 193 C11.78 187.529 23.729 178.885 31.242 165.844 C32.197 163.521 31.83 162.323 31 160 C29.68 159.67 28.36 159.34 27 159 Z M32 168 C31.406 168.846 30.811 169.691 30.199 170.562 C20.637 183.796 8.941 190.829 -6 197 C-5.547 201.147 -5.547 201.147 -3.812 204.875 C-1.112 206.551 0.855 206.244 4 206 C17.384 200.718 29.217 190.626 35.18 177.379 C36.076 174.78 36.156 172.729 36 170 C34.68 169.34 33.36 168.68 32 168 Z M34 184 C33.49 184.69 32.979 185.379 32.453 186.09 C24.176 196.789 14.66 204.04 2 209 C1.752 213.11 1.752 213.11 3.062 216.875 C6.292 218.75 8.309 218.536 12 218 C22.92 212.932 33.066 201.875 38 191 C38.935 187.61 38.935 187.61 39 185 C37.35 184.67 35.7 184.34 34 184 Z M38 195 C35.685 197.838 35.685 197.838 36.121 201.16 C37.158 205.692 38.898 209.352 41.062 213.438 C41.44 214.169 41.817 214.901 42.205 215.654 C43.128 217.441 44.063 219.221 45 221 C46.65 219.35 48.3 217.7 50 216 C46.7 209.07 43.4 202.14 40 195 C39.34 195 38.68 195 38 195 Z M258 213 C257.606 217.394 257.238 221.79 256.875 226.188 C256.763 227.433 256.651 228.679 256.535 229.963 C256.438 231.165 256.342 232.367 256.242 233.605 C256.148 234.71 256.054 235.815 255.957 236.954 C256.025 241.742 257.195 244.195 260.562 247.562 C270.933 255.62 283.424 255.942 296 255 C299.313 254.3 301.897 253.379 305 252 C305.781 245.726 306.21 239.571 306.25 233.25 C306.271 232.426 306.291 231.603 306.312 230.754 C306.343 226.005 306.125 222.83 303 219 C291.579 211.005 271.211 209.376 258 213 Z M45.75 224.938 C42.704 228.091 40.341 231.309 38 235 C37.34 235.33 36.68 235.66 36 236 C36.62 234.706 37.246 233.415 37.875 232.125 C38.223 231.406 38.571 230.686 38.93 229.945 C40 228 40 228 42 226 C41.68 223.397 41.68 223.397 41 221 C33.842 223.667 29.729 227.337 25.895 233.961 C20.395 246.497 21.158 259.494 26 272 C31.588 285.882 38.922 300.701 50 311 C50.647 310.48 50.647 310.48 51.307 309.949 C63.846 299.938 76.661 292.114 91 285 C90.307 278.603 88.618 272.603 86.812 266.438 C86.504 265.376 86.196 264.315 85.879 263.222 C83.733 256.01 81.206 249.201 77.969 242.414 C77.649 241.617 77.329 240.821 77 240 C77.33 239.34 77.66 238.68 78 238 C79.32 239.32 80.64 240.64 82 242 C81.976 230.948 81.976 230.948 78 221 C74.907 219.137 74.907 219.137 71 220 C68.145 222.112 65.661 224.402 63.137 226.898 C61 229 61 229 59 230 C59.619 229.092 60.238 228.185 60.875 227.25 C62.444 224.851 63.804 222.59 65 220 C63.774 217.92 63.774 217.92 62 216 C55.087 216 50.566 220.256 45.75 224.938 Z M0 220 C1.277 224.061 2.78 227.817 4.68 231.625 C5.197 232.661 5.714 233.698 6.246 234.766 C6.784 235.833 7.321 236.9 7.875 238 C8.405 239.067 8.935 240.135 9.48 241.234 C13.306 248.879 13.306 248.879 18 256 C18.33 256 18.66 256 19 256 C20.599 247.385 19.458 241.769 15.562 234 C15.148 233.073 14.734 232.146 14.307 231.191 C12.134 226.704 10.581 223.736 5.777 221.938 C4.531 221.628 3.284 221.319 2 221 C1.34 220.67 0.68 220.34 0 220 Z M246.227 246.441 C245.201 246.77 244.176 247.099 243.119 247.438 C241.389 247.995 241.389 247.995 239.625 248.562 C210.842 257.652 181.713 265.961 152.438 273.312 C151.407 273.572 150.377 273.831 149.316 274.098 C140.063 276.354 130.764 278.054 121.25 278.625 C120.059 278.7 118.868 278.775 117.641 278.852 C116.769 278.901 115.898 278.95 115 279 C118.681 282.729 122.457 286.328 126.312 289.875 C126.89 290.408 127.468 290.941 128.063 291.491 C130.978 294.173 133.916 296.812 136.938 299.375 C141.651 303.419 145.937 307.919 150.254 312.378 C150.838 312.974 151.422 313.57 152.023 314.184 C152.549 314.726 153.074 315.268 153.615 315.826 C154.952 317.216 154.952 317.216 157 317 C157.241 317.584 157.482 318.168 157.73 318.77 C159.244 321.429 160.899 322.818 163.312 324.688 C164.072 325.289 164.831 325.891 165.613 326.512 C168.174 328.109 170.003 328.738 173 329 C175.913 327.474 177.566 326.124 178.77 323.008 C179.226 321.465 179.682 319.922 180.137 318.379 C182.152 312.825 185.265 308.872 190.535 306.223 C193.591 304.548 193.988 304.025 195.637 300.672 C196.015 299.372 196.364 298.064 196.688 296.75 C196.977 295.712 196.977 295.712 197.272 294.652 C197.879 292.442 198.443 290.223 199 288 C199.398 286.463 199.797 284.927 200.195 283.391 C201.167 279.602 202.094 275.805 203 272 C203.379 279.699 202.351 286.847 200.979 294.398 C200.84 295.192 200.702 295.986 200.559 296.805 C200.428 297.516 200.297 298.227 200.162 298.96 C199.984 301.199 200.343 302.865 201 305 C201.701 304.362 201.701 304.362 202.416 303.71 C225.355 283.186 254.125 265.276 285.783 266.805 C294.794 267.598 303.748 272.449 309.891 279.023 C314 284.189 314 284.189 314 289 C313.587 288.42 313.175 287.84 312.75 287.242 C305.983 278.089 297.457 271.196 286 269 C255.247 266.67 228.858 285.531 206 304 C205.325 304.544 204.651 305.089 203.956 305.65 C196.164 311.962 188.443 318.324 181.078 325.133 C178.791 327.187 176.416 329.1 174 331 C174.159 331.525 174.317 332.049 174.48 332.59 C174.991 334.284 175.495 335.979 175.996 337.676 C176.754 340.184 177.54 342.676 178.348 345.168 C178.815 346.654 179.283 348.139 179.75 349.625 C179.985 350.329 180.22 351.032 180.462 351.758 C182.056 356.912 181.978 360.69 181 366 C178.473 365.027 177.229 364.377 175.805 362.031 C172.563 353.206 171.778 344.303 171 335 C169.68 335 168.36 335 167 335 C164.315 340.543 163.979 346.572 163.232 352.607 C162.551 357.63 161.626 361.559 159 366 C158.34 366 157.68 366 157 366 C154.878 361.67 154.614 357.615 154.625 352.875 C154.627 352.125 154.628 351.375 154.63 350.603 C154.767 344.33 155.711 338.461 159 333 C160.316 331.977 161.646 330.972 163 330 C163 329.34 163 328.68 163 328 C161.55 326.534 161.55 326.534 159.625 325 C153.534 319.82 148.029 314.075 142.422 308.383 C138.017 303.937 133.564 299.648 128.809 295.577 C127.095 294.083 125.461 292.539 123.84 290.945 C123.114 290.241 123.114 290.241 122.373 289.523 C121.402 288.578 120.441 287.622 119.49 286.656 C115.788 283.117 113.103 282.038 108 282 C105.06 282.545 102.314 283.436 99.5 284.438 C98.322 284.847 98.322 284.847 97.12 285.265 C72.805 294.038 50.013 311.854 34 332 C35.477 336.684 38.227 339.899 41.438 343.5 C42.529 344.747 43.62 345.994 44.711 347.242 C45.262 347.87 45.814 348.497 46.382 349.144 C48.357 351.409 50.288 353.709 52.216 356.015 C56.731 361.414 61.371 366.672 66.159 371.83 C68.656 374.521 71.078 377.251 73.438 380.062 C92.533 401.97 121.151 421.676 150.629 424.228 C163.321 424.945 174.872 423.691 187 420 C187.641 419.818 188.283 419.635 188.943 419.447 C204.558 414.984 219.405 408.064 234.273 401.612 C237.352 400.277 240.439 398.966 243.531 397.664 C264.578 388.723 282.72 376.124 299.328 360.457 C303.031 357.052 306.958 353.991 311 351 C306.636 360.124 299.073 366.457 291.188 372.562 C286.947 375.943 284.635 378.85 282.285 383.676 C276.471 394.19 265.796 402.203 254.637 406.285 C249.341 407.721 243.449 408.642 238.003 407.628 C231.004 406.364 226.516 408.449 220.25 411.5 C199.553 421.001 177.931 428.068 155 429 C156.114 430.485 156.114 430.485 157.25 432 C157.668 432.557 158.085 433.114 158.516 433.688 C160.169 435.442 160.169 435.442 164 435 C164.222 435.719 164.443 436.439 164.672 437.18 C169.138 446.665 181.931 454.345 190.201 460.625 C191.977 461.982 193.731 463.364 195.484 464.75 C227.267 489.451 277.684 507.979 318 509 C317.34 505.7 316.68 502.4 316 499 C318.576 501.576 319.688 503.033 321.188 506.188 C321.532 506.903 321.876 507.618 322.23 508.355 C322.484 508.898 322.738 509.441 323 510 C334.876 510.632 345.768 509.636 355.195 501.734 C365.351 491.974 369.78 478.995 370.203 465.008 C371.127 396.856 344.848 311.772 307 255 C305.729 255.324 304.458 255.647 303.148 255.98 C297.943 257.132 292.943 257.346 287.625 257.312 C286.702 257.308 285.779 257.304 284.827 257.3 C278.18 257.19 272.202 256.546 266 254 C265.245 253.698 264.489 253.397 263.711 253.086 C259.264 251.097 256.955 248.94 254 245 C250.964 245 249.092 245.505 246.227 246.441 Z M91 266 C91.29 267.334 91.582 268.667 91.875 270 C92.037 270.743 92.2 271.485 92.367 272.25 C93.195 275.845 94.105 279.421 95 283 C103.91 281.02 103.91 281.02 113 279 C110.322 277.215 108.305 276.351 105.312 275.312 C100.497 273.456 97.202 270.94 93.496 267.391 C92.218 265.887 92.218 265.887 91 266 Z M162 340 C158.894 345.51 156.636 350.549 157 357 C157.919 359.215 157.919 359.215 159 361 C161.523 357.057 161.666 352.792 162.125 348.25 C162.211 347.457 162.298 346.664 162.387 345.848 C162.598 343.899 162.8 341.95 163 340 C162.67 340 162.34 340 162 340 Z M156 477 C153.191 486.389 150.828 495.765 148.875 505.375 C148.616 506.643 148.358 507.911 148.091 509.217 C145.347 522.917 143.606 535.997 144 550 C145.32 550.33 146.64 550.66 148 551 C150.081 544.758 150.67 538.59 151.312 532.062 C152.841 517.721 155.618 503.76 159.023 489.754 C159.304 488.598 159.585 487.441 159.875 486.25 C160.12 485.306 160.365 484.363 160.617 483.391 C161.016 480.9 160.808 479.368 160 477 C158.68 477 157.36 477 156 477 Z M215 493 C217.149 501.842 221.423 507.87 229.062 512.875 C233.256 515.271 236.944 517.268 241.875 516.625 C242.927 516.316 242.927 516.316 244 516 C241.664 513.307 239.6 512.327 236.25 511.188 C227.645 507.848 223.613 503.077 219.359 494.977 C218.911 494.324 218.462 493.672 218 493 C217.01 493 216.02 493 215 493 Z M235 493 C234.67 495.31 234.34 497.62 234 500 C235.32 500 236.64 500 238 500 C238 498.02 238 496.04 238 494 C237.01 493.67 236.02 493.34 235 493 Z M233 538 C231.875 559.527 231.875 559.527 237 580 C237.99 580 238.98 580 240 580 C240.085 574.591 239.815 569.369 239.125 564 C238.992 562.918 238.992 562.918 238.856 561.815 C238.575 559.543 238.288 557.271 238 555 C237.807 553.447 237.614 551.893 237.422 550.34 C236.953 546.559 236.478 542.779 236 539 C235.01 538.67 234.02 538.34 233 538 Z " fill="#000000" transform="translate(293,198)"/>
<path d="M0 0 C0.99 0.33 1.98 0.66 3 1 C-9.007 20.212 -30.172 33.361 -52.042 38.598 C-65.487 41.357 -78.265 40.378 -90 33 C-91.781 31.465 -91.781 31.465 -93 30 C-93 29.34 -93 28.68 -93 28 C-90.555 28.962 -88.134 29.938 -85.746 31.035 C-69.565 38.236 -52.756 33.912 -36.896 27.896 C-21.924 21.922 -9.113 13.595 0 0 Z " fill="#000000" transform="translate(469,241)"/>
<path d="M0 0 C5.754 0.831 8.611 5.672 12 10 C16.002 15.594 18.829 21.604 21.438 27.938 C21.709 28.589 21.981 29.24 22.26 29.911 C24.122 34.634 24.122 34.634 23 38 C19.222 33.803 17.31 29.455 15.188 24.312 C10.278 12.575 10.278 12.575 1.797 3.371 C1.204 2.919 0.611 2.466 0 2 C0 1.34 0 0.68 0 0 Z " fill="#000000" transform="translate(473,248)"/>
<path d="M0 0 C3.125 1.938 3.125 1.938 5 4 C5 4.66 5 5.32 5 6 C-0.445 5.284 -5.883 4.014 -11 2 C-11.33 1.34 -11.66 0.68 -12 0 C-8.292 -1.854 -3.953 -0.819 0 0 Z " fill="#000000" transform="translate(644,250)"/>
<path d="M0 0 C0.66 0 1.32 0 2 0 C2.026 1.053 2.052 2.106 2.078 3.191 C2.717 21.555 6.697 36.75 20.398 49.863 C26.069 54.521 32.489 58.054 38.891 61.602 C39.587 62.063 40.283 62.525 41 63 C41 63.66 41 64.32 41 65 C30.275 63.437 21.413 55.4 14 48 C13.425 47.437 12.85 46.873 12.258 46.293 C1.612 34.957 -1.424 19.614 -1.203 4.547 C-1 2 -1 2 0 0 Z " fill="#000000" transform="translate(184,250)"/>
<path d="M0 0 C4.974 0.949 8.168 3.842 12 7 C12.568 7.459 13.137 7.918 13.723 8.391 C25.846 19.281 32.999 36.585 37 52 C37.125 55.438 37.125 55.438 37 58 C35.68 57.67 34.36 57.34 33 57 C32.706 55.654 32.706 55.654 32.406 54.281 C27.97 35.773 19.147 22.163 6.087 8.515 C3.556 5.843 1.376 3.444 0 0 Z " fill="#000000" transform="translate(676,268)"/>
<path d="M0 0 C0 0.66 0 1.32 0 2 C-6.968 3.327 -13.93 3.088 -21 3 C-20.67 2.34 -20.34 1.68 -20 1 C-17.559 0.586 -17.559 0.586 -14.438 0.375 C-13.359 0.302 -12.28 0.228 -11.168 0.152 C-7.433 -0.027 -3.738 -0.072 0 0 Z " fill="#000000" transform="translate(146,268)"/>
<path d="M0 0 C2.062 0.438 2.062 0.438 4 1 C5.606 5.807 4.034 9.531 2 14 C-0.188 16.562 -0.188 16.562 -2 18 C-2.99 17.67 -3.98 17.34 -5 17 C-5.461 10.552 -4.413 6.497 -1 1 C-0.67 0.67 -0.34 0.34 0 0 Z " fill="#000000" transform="translate(546,320)"/>
<path d="M0 0 C6.379 0.736 10.57 5.13 14.527 9.887 C28.949 30.717 34.913 66.141 30.559 90.875 C28.905 98.631 26.059 105.544 22.324 112.508 C21.05 115.909 21.368 117.898 22.25 121.375 C22.639 120.382 23.029 119.39 23.43 118.367 C27.519 108.304 32.533 99.893 39.25 91.375 C39.893 90.559 40.536 89.743 41.199 88.902 C46.791 82.18 52.068 77.872 60.883 76.465 C64.452 76.329 66.427 77.241 69.25 79.375 C74.166 85.817 73.755 93.426 72.77 101.129 C69.452 119.001 64.486 138.904 49.25 150.375 C44.422 152.958 39.616 154.385 34.25 155.375 C33.92 156.365 33.59 157.355 33.25 158.375 C31.93 158.375 30.61 158.375 29.25 158.375 C30.779 163.392 32.309 168.409 33.84 173.426 C34.36 175.131 34.88 176.836 35.399 178.542 C36.148 180.999 36.898 183.457 37.648 185.914 C37.879 186.671 38.109 187.427 38.346 188.206 C39.592 192.283 40.882 196.338 42.25 200.375 C42.579 199.296 42.907 198.217 43.246 197.105 C51.335 171.295 68.156 127.801 93.25 114.375 C96.955 113.294 98.533 113.04 102.062 114.688 C104.25 116.375 104.25 116.375 105.25 118.375 C105.835 128.429 104.874 138.029 103.125 147.938 C102.903 149.229 102.682 150.52 102.454 151.85 C99.898 166.377 96.006 180.428 91.25 194.375 C91.869 194.666 92.487 194.957 93.125 195.257 C106.993 202.553 117.44 224.34 122.344 238.543 C123.035 240.811 123.681 243.073 124.25 245.375 C126.28 240.217 128.015 235.638 126.184 230.223 C125.095 228.185 123.975 226.164 122.824 224.16 C112.563 206.006 121.566 176.346 126.593 157.647 C128.81 149.984 132.012 141.542 137.25 135.375 C138.24 135.045 139.23 134.715 140.25 134.375 C151.241 140.467 157.229 150.893 161.25 162.375 C166.804 181.973 159.066 204.875 150.25 222.375 C147.07 227.838 143.694 232.953 138.25 236.375 C137.59 236.375 136.93 236.375 136.25 236.375 C135.92 238.025 135.59 239.675 135.25 241.375 C133.93 241.375 132.61 241.375 131.25 241.375 C131.25 240.715 131.25 240.055 131.25 239.375 C130.59 239.375 129.93 239.375 129.25 239.375 C129.106 240.612 128.961 241.85 128.812 243.125 C128.483 245.949 127.986 248.628 127.25 251.375 C128.133 250.904 129.016 250.434 129.926 249.949 C143.83 242.668 158.119 238.336 173.852 242.277 C176.393 243.2 178.827 244.179 181.25 245.375 C181.25 244.715 181.25 244.055 181.25 243.375 C182.24 243.705 183.23 244.035 184.25 244.375 C184.353 245.138 184.456 245.901 184.562 246.688 C185.308 249.601 186.095 250.405 188.25 252.375 C188.557 251.544 188.557 251.544 188.871 250.695 C189.275 249.609 189.275 249.609 189.688 248.5 C189.954 247.781 190.221 247.061 190.496 246.32 C191.25 244.375 191.25 244.375 192.25 242.375 C193.916 242.332 195.584 242.334 197.25 242.375 C198.25 243.375 198.25 243.375 198.312 245.938 C198.292 246.742 198.271 247.546 198.25 248.375 C197.59 248.375 196.93 248.375 196.25 248.375 C195.92 249.365 195.59 250.355 195.25 251.375 C194.26 251.045 193.27 250.715 192.25 250.375 C191.92 251.365 191.59 252.355 191.25 253.375 C190.59 253.375 189.93 253.375 189.25 253.375 C189.147 253.891 189.044 254.406 188.938 254.938 C188.007 258.235 186.636 261.241 185.25 264.375 C185.697 263.581 186.145 262.787 186.605 261.969 C187.21 260.948 187.815 259.927 188.438 258.875 C189.325 257.344 189.325 257.344 190.23 255.781 C192.25 253.375 192.25 253.375 194.988 253.031 C195.735 253.145 196.481 253.258 197.25 253.375 C196.92 255.685 196.59 257.995 196.25 260.375 C198.551 256.819 200.025 253.428 201.25 249.375 C202.24 250.035 203.23 250.695 204.25 251.375 C204.91 251.045 205.57 250.715 206.25 250.375 C205.92 250.973 205.59 251.571 205.25 252.188 C204.042 254.429 204.042 254.429 204.25 257.375 C202.161 261.902 199.444 263.807 195.25 266.375 C194.136 267.241 194.136 267.241 193 268.125 C191.25 269.375 191.25 269.375 189.25 269.375 C189.25 270.695 189.25 272.015 189.25 273.375 C188.59 273.375 187.93 273.375 187.25 273.375 C186.961 273.994 186.673 274.612 186.375 275.25 C185.25 277.375 185.25 277.375 183.25 279.375 C182.92 278.715 182.59 278.055 182.25 277.375 C176.691 285.043 176.691 285.043 172.25 293.375 C173.343 293.128 174.436 292.88 175.562 292.625 C182.405 291.774 189.345 294.609 194.75 298.75 C198.638 302.833 200.429 306.847 201.25 312.375 C200.803 320.947 197.355 327.978 193.25 335.375 C193.58 335.705 193.91 336.035 194.25 336.375 C194.25 337.695 194.25 339.015 194.25 340.375 C192.6 341.035 190.95 341.695 189.25 342.375 C188.92 341.715 188.59 341.055 188.25 340.375 C187.875 340.869 187.5 341.362 187.113 341.871 C186.602 342.512 186.09 343.152 185.562 343.812 C185.064 344.451 184.565 345.089 184.051 345.746 C181.842 347.744 180.166 348.022 177.25 348.375 C177.602 347.853 177.954 347.331 178.316 346.793 C179.971 344.327 181.61 341.851 183.25 339.375 C183.873 338.451 184.495 337.526 185.137 336.574 C191.286 327.254 193.247 319.594 192.25 308.375 C191.338 306.061 191.338 306.061 190.25 304.375 C186.884 305.818 184.74 307.708 182.25 310.375 C181.92 309.715 181.59 309.055 181.25 308.375 C174.683 314.573 168.304 321.249 164.25 329.375 C163.446 330.159 162.641 330.942 161.812 331.75 C159.149 334.212 159.149 334.212 157.812 337.25 C156.117 340.642 154.083 343.067 151.555 345.859 C150.156 347.359 150.156 347.359 149.25 349.375 C150.57 349.045 151.89 348.715 153.25 348.375 C152.59 349.365 151.93 350.355 151.25 351.375 C150.26 351.375 149.27 351.375 148.25 351.375 C146.573 354.307 144.91 357.246 143.25 360.188 C142.773 361.021 142.296 361.854 141.805 362.713 C141.354 363.515 140.902 364.318 140.438 365.145 C139.809 366.252 139.809 366.252 139.168 367.382 C138.041 369.463 138.041 369.463 138.25 372.375 C138.784 371.928 139.317 371.48 139.867 371.02 C153.37 360.063 168.896 355.172 186.188 355.188 C187.14 355.188 188.093 355.189 189.075 355.19 C196.286 355.25 203.44 355.64 210.625 356.25 C211.569 356.328 212.512 356.407 213.484 356.488 C218.921 356.995 223.989 357.909 229.25 359.375 C230.481 365.775 230.481 365.775 229.312 368.812 C228.962 369.328 228.611 369.844 228.25 370.375 C227.26 370.045 226.27 369.715 225.25 369.375 C224.961 369.973 224.673 370.571 224.375 371.188 C223.25 373.375 223.25 373.375 221.25 376.375 C221.58 377.365 221.91 378.355 222.25 379.375 C222.91 379.375 223.57 379.375 224.25 379.375 C224.343 380.551 224.343 380.551 224.438 381.75 C224.706 382.616 224.974 383.483 225.25 384.375 C227.726 385.75 227.726 385.75 230.25 386.375 C229.199 389.241 228.581 390.205 225.812 391.625 C223.25 392.375 223.25 392.375 220.25 392.375 C219.92 391.715 219.59 391.055 219.25 390.375 C220.57 390.375 221.89 390.375 223.25 390.375 C222.92 388.725 222.59 387.075 222.25 385.375 C221.26 385.045 220.27 384.715 219.25 384.375 C218.569 385.612 218.569 385.612 217.875 386.875 C217.071 388.112 217.071 388.112 216.25 389.375 C215.59 389.375 214.93 389.375 214.25 389.375 C213.92 391.025 213.59 392.675 213.25 394.375 C214.57 394.045 215.89 393.715 217.25 393.375 C217.25 394.035 217.25 394.695 217.25 395.375 C219.89 395.705 222.53 396.035 225.25 396.375 C225.25 399.015 225.25 401.655 225.25 404.375 C226.013 403.88 226.776 403.385 227.562 402.875 C230.25 401.375 230.25 401.375 233.25 401.375 C234 403.062 234 403.062 234.25 405.375 C232.313 408.125 232.313 408.125 230.25 410.375 C229.92 408.725 229.59 407.075 229.25 405.375 C228.487 406.365 227.724 407.355 226.938 408.375 C225.637 410.062 225.637 410.062 224.25 411.375 C223.26 411.375 222.27 411.375 221.25 411.375 C220.92 412.365 220.59 413.355 220.25 414.375 C218.6 414.705 216.95 415.035 215.25 415.375 C214.92 414.715 214.59 414.055 214.25 413.375 C214.91 413.375 215.57 413.375 216.25 413.375 C216.58 412.715 216.91 412.055 217.25 411.375 C218.792 409.564 220.381 407.799 221.973 406.031 C223.454 404.46 223.454 404.46 223.25 402.375 C221.6 402.705 219.95 403.035 218.25 403.375 C217.92 404.365 217.59 405.355 217.25 406.375 C216.59 406.045 215.93 405.715 215.25 405.375 C215.25 406.035 215.25 406.695 215.25 407.375 C212.61 408.365 209.97 409.355 207.25 410.375 C207.25 409.385 207.25 408.395 207.25 407.375 C208.24 407.375 209.23 407.375 210.25 407.375 C210.25 406.715 210.25 406.055 210.25 405.375 C211.24 405.045 212.23 404.715 213.25 404.375 C212.581 401.262 212.581 401.262 210.188 400.188 C209.548 399.919 208.909 399.651 208.25 399.375 C208.002 400.076 207.755 400.777 207.5 401.5 C204.484 408.436 199.633 413.227 194.25 418.375 C194.25 414.478 195.536 413.461 197.938 410.438 C203.701 402.736 209.25 392.274 209.25 382.375 C210.24 382.375 211.23 382.375 212.25 382.375 C213.752 380.29 215.041 378.282 216.312 376.062 C217.011 374.879 217.711 373.695 218.41 372.512 C219.017 371.477 219.624 370.441 220.25 369.375 C220.91 368.385 221.57 367.395 222.25 366.375 C183.733 361.866 183.733 361.866 149.086 376.855 C137.847 386.493 129.316 399.035 125.25 413.375 C125.544 416.646 125.544 416.646 126.25 419.375 C126.91 419.375 127.57 419.375 128.25 419.375 C129.834 417.427 131.327 415.459 132.812 413.438 C142.483 400.738 153.885 389.159 167.25 380.375 C168.59 379.384 169.926 378.387 171.25 377.375 C163.919 381.76 157.445 386.486 151.25 392.375 C151.25 389.375 151.25 389.375 152.719 387.508 C163.402 376.947 177.953 369.342 193.312 369.25 C194.282 369.291 195.251 369.332 196.25 369.375 C196.25 369.705 196.25 370.035 196.25 370.375 C194.6 370.705 192.95 371.035 191.25 371.375 C192.24 372.035 193.23 372.695 194.25 373.375 C192.929 373.648 192.929 373.648 191.582 373.926 C190.421 374.177 189.259 374.429 188.062 374.688 C186.914 374.931 185.765 375.175 184.582 375.426 C181.36 376.344 179.016 377.515 176.25 379.375 C184.304 377.693 191.577 375.12 199.023 371.68 C202.181 370.403 204.855 369.62 208.25 369.375 C208.91 370.035 209.57 370.695 210.25 371.375 C210.168 373.353 210.168 373.353 209.25 375.375 C207.209 376.655 207.209 376.655 204.559 377.734 C203.614 378.128 202.67 378.521 201.697 378.926 C200.207 379.519 200.207 379.519 198.688 380.125 C197.69 380.536 196.693 380.947 195.666 381.371 C193.199 382.386 190.728 383.387 188.25 384.375 C188.25 385.365 188.25 386.355 188.25 387.375 C187.642 387.548 187.033 387.72 186.406 387.898 C172.082 392.491 159.788 401.96 148.25 411.375 C147.702 411.82 147.154 412.265 146.59 412.723 C139.778 418.285 133.434 424 127.469 430.477 C125.008 432.582 123.433 433.05 120.25 433.375 C119.125 428.625 119.125 428.625 120.25 426.375 C119.59 426.375 118.93 426.375 118.25 426.375 C117.92 428.025 117.59 429.675 117.25 431.375 C115.93 431.375 114.61 431.375 113.25 431.375 C112.92 429.065 112.59 426.755 112.25 424.375 C111.526 424.118 110.801 423.862 110.055 423.598 C107.099 422.309 104.925 420.779 102.375 418.812 C84.376 405.552 64.762 397.777 43.679 390.697 C20.775 382.9 20.775 382.9 16.25 378.375 C17.156 384.981 18.181 391.551 19.625 398.062 C19.946 399.522 19.946 399.522 20.273 401.012 C21.048 403.53 21.048 403.53 23.352 404.707 C23.978 404.927 24.605 405.148 25.25 405.375 C24.92 406.035 24.59 406.695 24.25 407.375 C23.59 407.375 22.93 407.375 22.25 407.375 C26.656 416.408 31.133 424.041 39.488 429.961 C40.07 430.428 40.651 430.894 41.25 431.375 C41.25 432.035 41.25 432.695 41.25 433.375 C33.216 433.072 26.502 430.037 20.391 424.773 C15.207 419.136 11.499 411.922 10.25 404.375 C9.163 404.211 9.163 404.211 8.055 404.043 C1.26 402.425 -7.508 397.04 -11.75 391.375 C-11.688 388 -11.688 388 -10.75 385.375 C-6.875 390.125 -6.875 390.125 -5.75 392.375 C-3.244 393.656 -0.752 394.85 1.812 396 C2.523 396.325 3.234 396.65 3.967 396.984 C5.725 397.787 7.487 398.582 9.25 399.375 C8.923 398.609 8.595 397.844 8.258 397.055 C6.912 392.142 7.036 387.565 7.125 382.5 C7.134 381.525 7.143 380.551 7.152 379.547 C7.176 377.156 7.209 374.766 7.25 372.375 C6.26 373.035 5.27 373.695 4.25 374.375 C3.652 373.591 3.054 372.808 2.438 372 C0.339 369.229 0.339 369.229 -2.75 367.375 C-2.75 366.715 -2.75 366.055 -2.75 365.375 C-3.74 365.045 -4.73 364.715 -5.75 364.375 C-5.75 363.715 -5.75 363.055 -5.75 362.375 C-6.41 362.045 -7.07 361.715 -7.75 361.375 C-7.42 360.715 -7.09 360.055 -6.75 359.375 C-4.75 360.375 -2.75 361.375 -0.75 362.375 C-0.75 361.385 -0.75 360.395 -0.75 359.375 C-3.975 357.638 -7.263 356.484 -10.75 355.375 C-10.75 354.385 -10.75 353.395 -10.75 352.375 C-5.52 352.777 -3.202 353.43 0.25 357.375 C1.24 357.705 2.23 358.035 3.25 358.375 C3.25 359.035 3.25 359.695 3.25 360.375 C4.24 360.375 5.23 360.375 6.25 360.375 C6.25 361.035 6.25 361.695 6.25 362.375 C6.91 362.375 7.57 362.375 8.25 362.375 C8.58 363.035 8.91 363.695 9.25 364.375 C11.241 364.756 13.243 365.088 15.25 365.375 C15.91 365.705 16.57 366.035 17.25 366.375 C16.59 364.725 15.93 363.075 15.25 361.375 C14.59 361.375 13.93 361.375 13.25 361.375 C12.59 360.055 11.93 358.735 11.25 357.375 C12.24 357.375 13.23 357.375 14.25 357.375 C14.25 358.035 14.25 358.695 14.25 359.375 C15.57 359.375 16.89 359.375 18.25 359.375 C18.332 360.159 18.415 360.942 18.5 361.75 C18.972 364.444 18.972 364.444 20.938 365.562 C23.699 366.533 26.46 367.487 29.25 368.375 C29.58 367.385 29.91 366.395 30.25 365.375 C29.693 365.128 29.136 364.88 28.562 364.625 C24.624 362.496 21.693 360.704 20.25 356.375 C19.26 356.375 18.27 356.375 17.25 356.375 C16.59 354.725 15.93 353.075 15.25 351.375 C14.59 351.375 13.93 351.375 13.25 351.375 C13.58 350.055 13.91 348.735 14.25 347.375 C15.24 347.705 16.23 348.035 17.25 348.375 C17.559 349.035 17.869 349.695 18.188 350.375 C19.07 352.581 19.07 352.581 21.375 353.125 C21.994 353.207 22.613 353.29 23.25 353.375 C23.25 354.035 23.25 354.695 23.25 355.375 C24.9 356.035 26.55 356.695 28.25 357.375 C28.25 358.035 28.25 358.695 28.25 359.375 C28.91 359.375 29.57 359.375 30.25 359.375 C30.539 360.014 30.827 360.654 31.125 361.312 C32.078 363.527 32.078 363.527 34.25 364.375 C34.58 363.715 34.91 363.055 35.25 362.375 C35.559 364.293 35.559 364.293 35.875 366.25 C36.358 368.455 36.358 368.455 37.25 370.375 C40.037 371.887 40.037 371.887 43.25 372.375 C44.922 373.029 46.59 373.692 48.25 374.375 C48.58 373.715 48.91 373.055 49.25 372.375 C49.25 373.035 49.25 373.695 49.25 374.375 C49.867 374.557 50.485 374.739 51.121 374.926 C51.968 375.177 52.815 375.429 53.688 375.688 C54.511 375.931 55.335 376.175 56.184 376.426 C60.228 377.678 64.238 379.024 68.25 380.375 C67.761 379.927 67.272 379.479 66.769 379.017 C64.527 376.956 62.295 374.884 60.062 372.812 C59.294 372.108 58.525 371.404 57.732 370.678 C53.266 366.518 49.689 362.407 46.25 357.375 C45.59 357.045 44.93 356.715 44.25 356.375 C43.92 357.035 43.59 357.695 43.25 358.375 C40.94 353.425 38.63 348.475 36.25 343.375 C35.59 343.375 34.93 343.375 34.25 343.375 C34.25 342.055 34.25 340.735 34.25 339.375 C33.59 339.045 32.93 338.715 32.25 338.375 C31.887 336.38 31.558 334.379 31.25 332.375 C30.929 331.6 30.608 330.826 30.277 330.027 C28.12 324.458 27.188 318.222 29.305 312.547 C30.189 310.878 31.125 309.234 32.121 307.629 C33.426 305.023 33.458 303.252 33.25 300.375 C33.786 300.602 34.322 300.829 34.875 301.062 C37.402 301.633 37.402 301.633 39.91 299.914 C43.751 298.144 46.926 297.956 51.062 298.062 C51.764 298.071 52.465 298.079 53.188 298.088 C58.462 298.21 63.192 298.93 68.25 300.375 C67.281 299.509 66.311 298.642 65.312 297.75 C57.783 290.175 52.6 280.401 47.688 271 C47.341 270.359 46.994 269.718 46.637 269.057 C44.238 264.294 43.8 260.703 44.25 255.375 C45.75 253.312 45.75 253.312 48.25 252.375 C51.019 252.449 53.507 252.872 56.25 253.375 C55.26 251.065 54.27 248.755 53.25 246.375 C52.484 246.882 52.484 246.882 51.703 247.398 C36.688 256.61 17.114 253.743 0.312 252.062 C-0.381 251.995 -1.075 251.927 -1.79 251.858 C-40.273 248.095 -40.273 248.095 -49.75 238.375 C-51.692 235.758 -51.762 234.667 -51.625 231.375 C-50.435 227.297 -48.276 225.319 -44.691 223.102 C-24.972 213.971 0.423 207.14 22.188 207.25 C23.327 207.244 23.327 207.244 24.49 207.238 C25.622 207.24 25.622 207.24 26.777 207.242 C27.445 207.243 28.113 207.244 28.801 207.246 C32.312 207.431 35.764 207.914 39.25 208.375 C38.947 207.421 38.644 206.468 38.332 205.485 C37.21 201.947 36.093 198.408 34.978 194.868 C34.494 193.336 34.009 191.804 33.522 190.273 C32.823 188.073 32.13 185.871 31.438 183.668 C31.109 182.641 31.109 182.641 30.775 181.594 C29.88 178.732 29.25 176.394 29.25 173.375 C28.656 173.762 28.061 174.148 27.449 174.547 C19.332 179.647 10.937 183.67 1.25 184.375 C0.235 184.47 0.235 184.47 -0.801 184.566 C-24.254 185.788 -46.94 171.267 -63.75 156.375 C-77.994 143.346 -77.994 143.346 -80.688 134.188 C-80.76 130.918 -80.39 129.207 -78.75 126.375 C-72.665 120.29 -65.578 120.133 -57.422 119.719 C-54.528 119.547 -54.528 119.547 -51.75 117.375 C-51.42 118.365 -51.09 119.355 -50.75 120.375 C-49.76 120.066 -49.76 120.066 -48.75 119.75 C-44.654 119.238 -41.708 120.235 -37.75 121.375 C-37.42 120.715 -37.09 120.055 -36.75 119.375 C-35.88 119.843 -35.88 119.843 -34.992 120.32 C-32.252 121.609 -29.471 122.125 -26.52 122.742 C-19.745 124.29 -12.988 126.21 -6.449 128.562 C-3.813 129.693 -3.813 129.693 -1.75 128.375 C-1.75 129.365 -1.75 130.355 -1.75 131.375 C-0.43 131.375 0.89 131.375 2.25 131.375 C3.943 132.33 5.609 133.334 7.25 134.375 C8.137 134.705 9.024 135.035 9.938 135.375 C12.25 136.375 12.25 136.375 14.25 139.375 C15.885 140.426 17.549 141.435 19.25 142.375 C18.92 141.385 18.59 140.395 18.25 139.375 C19.188 137.188 19.188 137.188 20.25 135.375 C19.59 135.045 18.93 134.715 18.25 134.375 C18.58 133.385 18.91 132.395 19.25 131.375 C18.26 132.035 17.27 132.695 16.25 133.375 C14.063 133 14.063 133 12.25 132.375 C16 129.375 16 129.375 18.25 129.375 C17.554 126.182 16.832 122.999 16.07 119.82 C15.605 117.867 15.165 115.906 14.805 113.93 C13.525 108.424 10.461 105.358 6.438 101.562 C-5.698 90.052 -9.686 74.151 -10.18 57.754 C-10.222 54.276 -10.211 50.802 -10.162 47.324 C-10.125 44.678 -10.121 42.034 -10.121 39.389 C-9.964 1.359 -9.964 1.359 0 0 Z M-1.34 5.453 C-2.986 8.864 -3.479 11.743 -3.938 15.5 C-4.096 16.719 -4.255 17.939 -4.418 19.195 C-5.257 28.089 -4.671 36.739 -3.438 45.562 C-3.301 46.561 -3.164 47.559 -3.023 48.587 C-2.613 51.519 -2.186 54.447 -1.75 57.375 C-1.633 58.173 -1.515 58.971 -1.394 59.793 C-0.013 68.882 2.25 77.063 6.25 85.375 C6.576 86.058 6.902 86.741 7.238 87.445 C7.887 88.766 8.563 90.074 9.25 91.375 C9.58 91.375 9.91 91.375 10.25 91.375 C9.679 82.473 8.496 73.709 7.093 64.908 C6.745 62.719 6.405 60.53 6.066 58.34 C5.847 56.943 5.627 55.545 5.406 54.148 C5.208 52.895 5.011 51.641 4.807 50.349 C4.407 47.46 4.407 47.46 3.25 45.375 C2.26 45.87 2.26 45.87 1.25 46.375 C0.109 40.739 0.189 35.364 0.289 29.652 C0.334 25.433 0.092 21.534 -0.75 17.375 C-0.09 17.375 0.57 17.375 1.25 17.375 C1.353 18.344 1.456 19.314 1.562 20.312 C1.967 23.203 2.679 25.759 3.676 28.5 C5.348 33.42 6.29 38.317 7.125 43.438 C7.29 44.413 7.455 45.388 7.625 46.393 C8.724 52.962 9.742 59.542 10.749 66.126 C10.957 67.484 11.165 68.842 11.374 70.2 C11.583 71.565 11.791 72.929 12 74.294 C14.011 87.405 16.494 100.399 19.25 113.375 C30.283 99.124 29.309 76.412 27.25 59.375 C25.448 47.591 22.381 36.134 18.688 24.812 C18.407 23.95 18.126 23.088 17.837 22.199 C15.342 14.924 11.87 9.691 6.25 4.375 C5.92 4.045 5.59 3.715 5.25 3.375 C1.917 2.849 0.772 2.692 -1.34 5.453 Z M0.25 33.375 C1.25 35.375 1.25 35.375 1.25 35.375 Z M1.25 37.375 C2.25 40.375 2.25 40.375 2.25 40.375 Z M1.25 42.375 C1.91 43.035 2.57 43.695 3.25 44.375 C3.25 43.715 3.25 43.055 3.25 42.375 C2.59 42.375 1.93 42.375 1.25 42.375 Z M45.25 92.375 C36.368 104.185 30.074 115.364 30.062 130.375 C30.05 131.182 30.038 131.989 30.025 132.82 C30.023 133.601 30.022 134.383 30.02 135.188 C30.015 135.895 30.011 136.603 30.007 137.332 C30.288 139.693 31.084 141.319 32.25 143.375 C32.869 142.012 32.869 142.012 33.5 140.621 C36.501 134.07 39.599 127.633 43.062 121.312 C46.572 114.878 49.699 108.289 52.75 101.625 C53.196 100.659 53.642 99.694 54.101 98.699 C54.716 97.34 54.716 97.34 55.344 95.953 C55.712 95.143 56.08 94.332 56.459 93.497 C57.425 91.284 57.425 91.284 57.25 88.375 C58.24 88.375 59.23 88.375 60.25 88.375 C59.92 91.015 59.59 93.655 59.25 96.375 C59.724 95.736 60.199 95.096 60.688 94.438 C62.25 92.375 62.25 92.375 63.25 91.375 C62.92 92.365 62.59 93.355 62.25 94.375 C62.436 95.344 62.621 96.314 62.812 97.312 C63.301 100.731 62.843 101.47 61.25 104.375 C61.082 107.042 61.082 107.042 61.25 109.375 C60.59 109.705 59.93 110.035 59.25 110.375 C58.231 111.355 57.228 112.353 56.25 113.375 C55.59 113.045 54.93 112.715 54.25 112.375 C49.967 115.959 48.087 120.343 45.812 125.312 C45.225 126.576 45.225 126.576 44.625 127.865 C38.922 138.764 38.922 138.764 36.25 150.375 C45.849 148.042 51.613 143.395 56.875 135.062 C64.411 121.335 70.352 103.154 68.25 87.375 C67.082 85.14 66.038 83.163 64.25 81.375 C55.9 80.404 50.276 86.395 45.25 92.375 Z M58.25 96.375 C59.25 98.375 59.25 98.375 59.25 98.375 Z M57.25 98.375 C58.25 100.375 58.25 100.375 58.25 100.375 Z M93.188 119.938 C90.028 122.56 88.368 124.867 86.25 128.375 C85.275 129.815 84.295 131.252 83.312 132.688 C79.166 138.923 75.298 145.116 73.25 152.375 C72.59 152.045 71.93 151.715 71.25 151.375 C65.295 161.446 60.246 171.365 56.25 182.375 C55.921 183.263 55.593 184.151 55.254 185.066 C52.165 193.8 52.126 202.186 52.25 211.375 C53.24 210.88 53.24 210.88 54.25 210.375 C54.863 208.269 55.387 206.138 55.875 204 C61.317 182.162 73.068 162.236 85.688 143.812 C87.43 141.577 87.43 141.577 87.25 139.375 C88.24 139.705 89.23 140.035 90.25 140.375 C89.014 148.305 84.466 154.93 79.562 161.125 C66.526 178.641 59.373 200.823 55.793 222.152 C55.25 225.375 55.25 225.375 54.648 227.645 C54.092 230.063 54.656 231.999 55.25 234.375 C62.784 232.978 67.422 226.436 71.625 220.5 C73.203 218.148 74.731 215.766 76.25 213.375 C76.666 212.732 77.081 212.09 77.51 211.428 C93.041 187.223 102.113 155.385 101.375 126.562 C101.366 125.858 101.357 125.154 101.348 124.428 C101.325 122.743 101.289 121.059 101.25 119.375 C97.142 118.296 97.142 118.296 93.188 119.938 Z M-75.75 130.375 C-75.394 137.501 -71.456 141.851 -66.434 146.535 C-48.225 161.921 -25.508 176.223 -0.75 174.375 C2.098 173.992 4.923 173.514 7.75 173 C8.81 172.811 8.81 172.811 9.892 172.618 C13.993 171.859 13.993 171.859 17.25 169.375 C15.415 168.882 15.415 168.882 13.543 168.379 C-7.099 162.635 -24.972 153.227 -42.75 141.375 C-43.74 141.375 -44.73 141.375 -45.75 141.375 C-45.75 140.715 -45.75 140.055 -45.75 139.375 C-46.749 138.821 -47.748 138.266 -48.777 137.695 C-50.081 136.964 -51.384 136.232 -52.688 135.5 C-53.347 135.135 -54.006 134.77 -54.686 134.395 C-59.637 131.602 -59.637 131.602 -60.75 129.375 C-53.807 130.391 -48.156 131.91 -42.305 135.758 C-36.891 139.185 -31.232 142.212 -25.633 145.323 C-24.05 146.207 -22.475 147.106 -20.902 148.008 C-9.816 154.279 1.917 159.53 14.062 163.375 C14.714 163.583 15.365 163.79 16.036 164.004 C19.529 165.054 22.603 165.597 26.25 165.375 C25.966 163.624 25.673 161.874 25.375 160.125 C25.213 159.15 25.05 158.176 24.883 157.172 C24.035 153.423 23.297 151.216 20.262 148.777 C19.495 148.294 18.728 147.811 17.938 147.312 C17.178 146.827 16.419 146.341 15.637 145.84 C-3.946 133.821 -25.29 125.258 -48.633 125.398 C-51.75 125.375 -51.75 125.375 -52.75 124.375 C-61.088 123.575 -69.542 124.367 -75.75 130.375 Z M141.25 139.375 C141.409 140.37 141.567 141.365 141.73 142.391 C142.248 146.509 142.358 150.585 142.426 154.734 C142.438 155.409 142.45 156.083 142.462 156.778 C142.511 159.598 142.558 162.417 142.576 165.237 C142.639 173.56 143.355 180.657 146.335 188.534 C147.881 193.334 147.925 198.117 148 203.125 C148.044 204.618 148.044 204.618 148.09 206.141 C148.159 208.552 148.213 210.963 148.25 213.375 C150.096 210.605 150.952 208.575 151.941 205.445 C152.246 204.485 152.551 203.525 152.865 202.535 C153.334 201.033 153.334 201.033 153.812 199.5 C154.129 198.506 154.445 197.512 154.771 196.488 C159.252 182.277 160.378 168.31 154.25 154.375 C151.235 148.806 148.02 143.607 143.25 139.375 C142.59 139.375 141.93 139.375 141.25 139.375 Z M20.25 141.375 C19.26 142.86 19.26 142.86 18.25 144.375 C20.23 145.365 20.23 145.365 22.25 146.375 C21.755 143.9 21.755 143.9 21.25 141.375 C20.92 141.375 20.59 141.375 20.25 141.375 Z M137.25 143.375 C133.91 147.869 132.911 152.832 131.688 158.188 C131.471 159.127 131.255 160.066 131.032 161.034 C126.629 180.713 123.769 203.814 130.25 223.375 C130.91 223.705 131.57 224.035 132.25 224.375 C138.046 204.287 139.308 184.567 139.375 163.75 C139.38 162.755 139.384 161.76 139.389 160.735 C139.376 154.869 139.006 149.193 138.25 143.375 C137.92 143.375 137.59 143.375 137.25 143.375 Z M93.25 200.375 C94.654 207.978 97.209 214.719 100.25 221.812 C100.735 222.952 101.221 224.091 101.721 225.265 C107.108 237.68 113.235 249.457 121.25 260.375 C122.524 258.416 122.524 258.416 121.588 256.382 C121.221 255.573 120.855 254.764 120.477 253.93 C120.068 253.025 119.659 252.12 119.239 251.188 C118.789 250.218 118.339 249.249 117.875 248.25 C117.422 247.262 116.969 246.274 116.502 245.256 C113.364 238.513 109.985 231.969 106.208 225.564 C103.868 221.59 101.986 217.635 100.25 213.375 C100.91 213.375 101.57 213.375 102.25 213.375 C102.436 214.159 102.621 214.942 102.812 215.75 C104.473 219.938 106.738 223.137 109.371 226.77 C111.679 229.97 113.834 233.258 115.988 236.562 C117.259 238.502 117.259 238.502 119.25 240.375 C118.621 235.557 116.621 231.706 114.438 227.438 C114.094 226.747 113.75 226.057 113.396 225.346 C109.936 218.496 105.846 212.667 100.625 207.062 C100.135 206.526 99.645 205.989 99.141 205.436 C96.504 202.516 96.504 202.516 93.25 200.375 Z M84.25 205.375 C82.886 207.632 81.563 209.901 80.25 212.188 C67.666 233.57 67.666 233.57 56.25 237.375 C57.32 245.188 59.577 254.163 65.707 259.523 C67.555 260.65 69.433 261.727 71.336 262.758 C76.49 265.618 80.775 269.57 85.25 273.375 C86.389 274.316 87.528 275.256 88.668 276.195 C97.305 283.374 105.977 290.966 112.25 300.375 C112.91 300.375 113.57 300.375 114.25 300.375 C114.924 296.814 115.588 293.251 116.25 289.688 C116.536 288.176 116.536 288.176 116.828 286.635 C117.009 285.658 117.189 284.682 117.375 283.676 C117.543 282.78 117.71 281.885 117.883 280.962 C118.247 278.395 118.315 275.964 118.25 273.375 C117.705 273.24 117.159 273.104 116.598 272.965 C105.896 269.91 98.167 262.67 92.25 253.375 C88.021 244.55 86.248 236.324 85.934 226.566 C85.892 225.326 85.85 224.085 85.807 222.807 C85.767 221.53 85.728 220.253 85.688 218.938 C85.644 217.634 85.601 216.33 85.557 214.986 C85.451 211.783 85.349 208.579 85.25 205.375 C84.92 205.375 84.59 205.375 84.25 205.375 Z M-39.75 224.375 C-39.75 224.705 -39.75 225.035 -39.75 225.375 C-35.938 225.434 -32.125 225.469 -28.312 225.5 C-26.709 225.525 -26.709 225.525 -25.072 225.551 C-19.355 225.586 -14.235 225.244 -8.696 223.825 C-6.004 223.203 -3.44 223.18 -0.688 223.25 C0.722 223.277 0.722 223.277 2.16 223.305 C2.85 223.328 3.539 223.351 4.25 223.375 C4.25 224.035 4.25 224.695 4.25 225.375 C0.62 225.705 -3.01 226.035 -6.75 226.375 C-6.75 226.705 -6.75 227.035 -6.75 227.375 C9.09 228.695 24.93 230.015 41.25 231.375 C41.25 231.705 41.25 232.035 41.25 232.375 C25.911 232.686 10.837 231.713 -4.438 230.375 C-18.572 229.143 -32.554 228.022 -46.75 228.375 C-47.41 229.695 -48.07 231.015 -48.75 232.375 C-37.897 244.584 -20.011 244.722 -4.732 245.883 C-2.356 246.064 0.019 246.258 2.395 246.455 C24.644 248.277 24.644 248.277 45.52 241.398 C47.71 238.837 47.724 236.9 47.545 233.595 C47.037 229.773 46.022 226.174 44.875 222.5 C44.653 221.742 44.432 220.984 44.203 220.203 C42.936 215.892 42.936 215.892 40.25 212.375 C15.931 205.199 -17.166 214.972 -39.75 224.375 Z M90.25 210.375 C90.325 230.534 97.273 249.484 110.98 264.16 C114.515 267.638 114.515 267.638 119.25 268.375 C118.666 264.41 116.681 262.187 114.188 259.125 C103.073 244.761 97.498 227.222 91.25 210.375 C90.92 210.375 90.59 210.375 90.25 210.375 Z M147.25 213.375 C148.25 216.375 148.25 216.375 148.25 216.375 Z M119.25 240.375 C120.25 242.375 120.25 242.375 120.25 242.375 Z M127.25 255.375 C125.679 257.755 125.029 259.594 124.25 262.375 C127.668 263.485 130.348 263.287 133.891 262.816 C134.961 262.678 136.03 262.539 137.133 262.396 C138.244 262.245 139.355 262.094 140.5 261.938 C141.627 261.79 142.753 261.642 143.914 261.49 C146.694 261.125 149.472 260.753 152.25 260.375 C149.77 263.407 147.739 263.932 143.926 264.543 C142.898 264.714 141.87 264.885 140.811 265.061 C139.203 265.309 139.203 265.309 137.562 265.562 C136.479 265.74 135.396 265.917 134.279 266.1 C131.604 266.536 128.928 266.96 126.25 267.375 C126.25 268.035 126.25 268.695 126.25 269.375 C137.333 274.562 150.387 271.086 161.329 267.128 C168.452 264.336 174.63 260.539 180.25 255.375 C179.755 253.89 179.755 253.89 179.25 252.375 C177.6 253.695 175.95 255.015 174.25 256.375 C174.931 255.612 175.611 254.849 176.312 254.062 C177.272 252.732 177.272 252.732 178.25 251.375 C177.755 249.89 177.755 249.89 177.25 248.375 C171.439 245.609 166.448 244.855 160.062 244.938 C159.232 244.945 158.402 244.953 157.547 244.96 C146.7 245.248 135.696 248.253 127.25 255.375 Z M66.25 263.375 C66.654 264.754 67.074 266.128 67.5 267.5 C67.732 268.266 67.964 269.031 68.203 269.82 C70.86 276.304 74.482 279.629 80.25 283.188 C81.599 284.056 82.947 284.927 84.293 285.801 C84.961 286.232 85.629 286.663 86.318 287.108 C95.241 292.96 102.937 299.625 110.25 307.375 C110.91 307.045 111.57 306.715 112.25 306.375 C107.209 297.635 101.29 290.514 94.25 283.375 C93.48 282.593 92.711 281.81 91.918 281.004 C80.282 269.782 80.282 269.782 66.25 263.375 Z M48.25 257.375 C48.752 266.921 55.709 274.106 61.891 280.754 C67.803 287.322 72.727 294.377 77.062 302.062 C80.604 307.97 84.6 311.382 90.227 315.266 C100.277 322.277 109.644 331.397 115.25 342.375 C115.58 342.375 115.91 342.375 116.25 342.375 C116.362 341.176 116.362 341.176 116.477 339.953 C117.863 328.376 121.873 317.973 130.809 310.129 C141.422 302.05 152.128 297.07 165.25 294.375 C165.58 292.725 165.91 291.075 166.25 289.375 C165.26 289.375 164.27 289.375 163.25 289.375 C163.25 288.385 163.25 287.395 163.25 286.375 C164.789 285.305 164.789 285.305 166.875 284.25 C173.411 280.426 176.64 274.303 179.25 267.375 C178.26 267.705 177.27 268.035 176.25 268.375 C175.755 267.385 175.755 267.385 175.25 266.375 C174.178 266.952 173.105 267.53 172 268.125 C159.794 274.206 145.923 277.856 132.25 276.375 C129.215 275.341 126.999 274.087 124.25 272.375 C123.26 271.88 123.26 271.88 122.25 271.375 C119.008 285.988 116.309 300.526 114.56 315.396 C114.25 317.375 114.25 317.375 113.25 320.375 C112.26 320.87 112.26 320.87 111.25 321.375 C111.745 316.425 111.745 316.425 112.25 311.375 C110.971 310.571 109.692 309.766 108.375 308.938 C104.841 306.589 101.726 304.08 98.625 301.188 C94.425 297.324 90.062 293.794 85.5 290.375 C84.874 289.894 84.248 289.413 83.603 288.917 C79.73 286.061 77.048 285.161 72.25 284.375 C71.195 282.516 71.195 282.516 70.25 280.375 C67.865 278.607 67.865 278.607 65.125 277.125 C64.215 276.604 63.305 276.083 62.367 275.547 C61.669 275.16 60.97 274.773 60.25 274.375 C60.58 273.715 60.91 273.055 61.25 272.375 C63.23 273.035 65.21 273.695 67.25 274.375 C66.182 271.909 65.097 269.453 64 267 C63.7 266.301 63.399 265.603 63.09 264.883 C61.309 260.921 61.309 260.921 58.281 257.906 C56.092 257.334 54.26 257.175 52 257.25 C50.762 257.291 49.525 257.332 48.25 257.375 Z M161.25 299.375 C160.057 299.667 160.057 299.667 158.84 299.965 C143.333 304.118 130.577 314.053 122.516 327.887 C119.33 334.151 118.778 340.475 118.25 347.375 C114.089 345.988 112.902 343.056 110.688 339.5 C99.299 321.959 84.142 308.276 63.5 303.062 C59.362 302.262 55.457 302.15 51.25 302.375 C50.92 302.705 50.59 303.035 50.25 303.375 C49.301 303.334 48.352 303.293 47.375 303.25 C44.283 303.082 44.283 303.082 42.375 304.75 C41.06 306.32 41.06 306.32 41.25 308.375 C42.935 309.654 42.935 309.654 45.125 310.938 C50.705 314.537 55.437 318.821 60.25 323.375 C60.918 323.99 61.585 324.605 62.273 325.238 C75.522 337.865 86.242 354.133 96.25 369.375 C96.58 368.715 96.91 368.055 97.25 367.375 C95.798 364.657 95.798 364.657 93.812 361.75 C93.154 360.747 92.495 359.744 91.816 358.711 C91.299 357.94 90.783 357.169 90.25 356.375 C90.91 356.375 91.57 356.375 92.25 356.375 C92.639 357.185 92.639 357.185 93.035 358.012 C94.474 360.81 96.082 363.481 97.688 366.188 C104.788 378.391 110.8 391.357 116.25 404.375 C116.91 404.375 117.57 404.375 118.25 404.375 C118.519 403.481 118.519 403.481 118.794 402.569 C126.935 375.944 138.698 350.866 155.594 328.637 C157.308 326.295 158.794 323.883 160.25 321.375 C158.93 320.715 157.61 320.055 156.25 319.375 C157.488 319.344 157.488 319.344 158.75 319.312 C162.98 318.179 164.883 316.359 168.027 313.414 C171.21 310.494 174.632 307.905 178.051 305.27 C180.158 303.454 181.683 301.661 183.25 299.375 C175.511 296.355 169.038 297.342 161.25 299.375 Z M38.25 309.375 C34.62 314.971 34.435 319.934 35.25 326.375 C37.131 335.08 39.803 343.634 44.25 351.375 C44.91 351.375 45.57 351.375 46.25 351.375 C46.539 351.973 46.827 352.571 47.125 353.188 C48.297 355.568 48.297 355.568 50.25 358.375 C50.91 358.375 51.57 358.375 52.25 358.375 C52.485 359.099 52.719 359.824 52.961 360.57 C56.614 368.518 65.561 374.855 72.25 380.375 C72.884 380.898 73.518 381.422 74.172 381.961 C77.673 384.72 80.777 386.594 84.938 388.188 C93.244 392.136 98.133 401.058 103.25 408.375 C103.73 409.054 104.21 409.734 104.705 410.434 C107.261 414.054 109.776 417.699 112.25 421.375 C112.91 420.715 113.57 420.055 114.25 419.375 C114.223 412.528 110.832 407.457 107.438 401.688 C106.854 400.678 106.271 399.669 105.67 398.628 C103.877 395.536 102.066 392.454 100.25 389.375 C99.718 388.468 99.186 387.562 98.638 386.627 C87.233 367.221 75.432 347.857 60.875 330.625 C60.375 330.028 59.875 329.431 59.36 328.816 C56.905 325.971 54.822 323.696 51.25 322.375 C51.25 321.715 51.25 321.055 51.25 320.375 C47.588 316.38 43.519 312.715 39.25 309.375 C38.92 309.375 38.59 309.375 38.25 309.375 Z M0.25 360.375 C1.25 362.375 1.25 362.375 1.25 362.375 Z M2.25 365.375 C3.24 366.86 3.24 366.86 4.25 368.375 C4.91 368.375 5.57 368.375 6.25 368.375 C5.92 367.385 5.59 366.395 5.25 365.375 C4.26 365.375 3.27 365.375 2.25 365.375 Z M14.25 369.375 C14.58 371.025 14.91 372.675 15.25 374.375 C16.213 374.459 17.176 374.543 18.168 374.629 C23.001 375.327 27.145 377.308 31.562 379.312 C39.78 382.955 48.079 386.235 56.5 389.375 C67.535 393.529 79.08 397.955 88.57 405.129 C90.169 406.574 90.169 406.574 92.25 406.375 C90.295 397.206 90.295 397.206 84.613 390.391 C79.841 388.022 75.082 386.157 70 384.57 C69.232 384.325 68.464 384.081 67.672 383.828 C65.201 383.044 62.726 382.271 60.25 381.5 C59.408 381.236 58.567 380.971 57.699 380.699 C36.322 372.941 36.322 372.941 14.25 369.375 Z M97.25 369.375 C98.25 371.375 98.25 371.375 98.25 371.375 Z M98.25 371.375 C98.58 372.365 98.91 373.355 99.25 374.375 C99.25 373.385 99.25 372.395 99.25 371.375 C98.92 371.375 98.59 371.375 98.25 371.375 Z M183.25 372.375 C187.25 373.375 187.25 373.375 187.25 373.375 Z M172.027 381.254 C168.449 382.698 165.533 384.786 162.5 387.125 C161.686 387.752 161.686 387.752 160.856 388.392 C157.144 391.379 154.201 394.636 151.25 398.375 C154.66 396.741 157.871 394.848 161.109 392.898 C162.224 392.228 163.339 391.558 164.488 390.867 C165.659 390.161 166.829 389.456 168 388.75 C169.186 388.036 170.372 387.323 171.559 386.609 C174.457 384.866 177.354 383.121 180.25 381.375 C177.372 379.936 175.071 380.539 172.027 381.254 Z M214.25 396.375 C213.478 398.212 213.478 398.212 213.25 400.375 C214.604 402.147 214.604 402.147 216.25 403.375 C218.593 400.703 218.593 400.703 219.25 397.375 C217.6 397.045 215.95 396.715 214.25 396.375 Z " fill="#000000" transform="translate(126.75,339.625)"/>
<path d="M0 0 C3.253 0.212 5.337 0.447 7.875 2.562 C9.491 6.065 9.776 9.265 9 13 C6.938 16 6.938 16 4 18 C0.312 18.438 0.312 18.438 -3 18 C-3.66 17.34 -4.32 16.68 -5 16 C-2.982 15.544 -0.964 15.089 1.055 14.633 C3.207 14.095 3.207 14.095 5 12 C4.677 8.403 4.677 8.403 4 5 C1.69 5 -0.62 5 -3 5 C-1.125 1.125 -1.125 1.125 0 0 Z " fill="#000000" transform="translate(622,356)"/>
<path d="M0 0 C0.66 0 1.32 0 2 0 C2.33 1.98 2.66 3.96 3 6 C4.315 5.718 5.627 5.424 6.938 5.125 C8.034 4.881 8.034 4.881 9.152 4.633 C11.207 4.17 11.207 4.17 12 2 C12.99 2 13.98 2 15 2 C14.617 4.221 14.131 5.804 12.875 7.688 C9.901 9.77 7.599 10 4 10 C1 7.875 1 7.875 -1 5 C-0.812 2.188 -0.812 2.188 0 0 Z " fill="#000000" transform="translate(527,360)"/>
<path d="M0 0 C2.632 2.632 2.85 4.835 3.75 8.438 C10.306 32.072 27.776 41.78 47.688 53.562 C65.886 64.356 83.045 75.572 88.812 97.125 C91.836 111.826 90.888 128.422 83.562 141.766 C80.656 145.922 76.989 148.918 73 152 C71.571 153.143 71.571 153.143 70.113 154.309 C62.626 160.077 62.626 160.077 59.676 159.715 C59.123 159.479 58.57 159.243 58 159 C58.671 158.437 58.671 158.437 59.355 157.863 C62.113 155.529 64.79 153.216 67.312 150.625 C69.786 148.209 72.302 146.258 75.062 144.188 C79.612 140.571 82.221 137.532 84 132 C84.222 131.321 84.443 130.641 84.672 129.941 C88.663 114.38 86.892 96.418 78.777 82.59 C69.936 69.706 55.63 62.336 42.5 54.562 C23.588 43.354 6.716 32.349 1 10 C0.478 6.667 0.149 3.369 0 0 Z " fill="#000000" transform="translate(711,364)"/>
<path d="M0 0 C4.678 2.339 5.207 3.218 7 8 C7.516 11.326 7.807 14.641 8 18 C6 16 6 16 5.875 13.375 C5.916 12.591 5.958 11.808 6 11 C5.34 11 4.68 11 4 11 C2.68 7.37 1.36 3.74 0 0 Z " fill="#000000" transform="translate(139,402)"/>
<path d="M0 0 C0.66 0 1.32 0 2 0 C1.568 4.752 0.672 6.92 -3 10 C-2.25 3.375 -2.25 3.375 0 0 Z " fill="#000000" transform="translate(211,476)"/>
<path d="M0 0 C0.33 0 0.66 0 1 0 C0.575 8.703 -0.079 17.2 -1.523 25.805 C-2.325 31.177 -2.663 36.582 -3 42 C-3.33 42 -3.66 42 -4 42 C-4.71 27.667 -2.553 14.081 0 0 Z " fill="#000000" transform="translate(260,506)"/>
<path d="M0 0 C1.938 1.125 1.938 1.125 3 3 C3.541 6.63 3.464 8.322 1.375 11.375 C-1.712 13.487 -3.328 13.612 -7 13 C-9.438 11.438 -9.438 11.438 -11 9 C-10.938 5.375 -10.938 5.375 -10 2 C-6.305 -0.463 -4.367 -0.39 0 0 Z M-5.125 2.688 C-7.181 3.856 -7.181 3.856 -7.75 6.125 C-7.832 6.744 -7.915 7.362 -8 8 C-5.525 9.485 -5.525 9.485 -3 11 C-1.68 10.01 -0.36 9.02 1 8 C0.505 5.525 0.505 5.525 0 3 C-2.852 1.72 -2.852 1.72 -5.125 2.688 Z " fill="#000000" transform="translate(428,520)"/>
<path d="M0 0 C1.875 1.062 1.875 1.062 3 3 C2.688 6.688 2.688 6.688 2 10 C-0.188 11.188 -0.188 11.188 -3 12 C-5.943 10.796 -7.535 9.96 -8.938 7.062 C-9.016 4.478 -8.408 3.149 -7 1 C-4.451 -0.274 -2.826 -0.276 0 0 Z M-4 4 C-4 5.32 -4 6.64 -4 8 C-3.01 7.34 -2.02 6.68 -1 6 C-1 5.34 -1 4.68 -1 4 C-1.99 4 -2.98 4 -4 4 Z " fill="#000000" transform="translate(377,522)"/>
<path d="M0 0 C0.33 0 0.66 0 1 0 C1.287 10.217 0.468 19.91 -1 30 C-1.66 30 -2.32 30 -3 30 C-2 20 -1 10 0 0 Z " fill="#000000" transform="translate(260,526)"/>
<path d="M0 0 C3.125 0.25 3.125 0.25 5 1.375 C6.672 4.161 6.589 6.07 6.125 9.25 C4.438 11.188 4.438 11.188 2.125 12.25 C-0.438 12.25 -0.438 12.25 -2.875 11.25 C-4.812 9 -4.812 9 -5.875 6.25 C-4.272 0.371 -4.272 0.371 0 0 Z M-0.875 3.25 C-1.205 4.9 -1.535 6.55 -1.875 8.25 C-0.885 8.58 0.105 8.91 1.125 9.25 C1.785 8.59 2.445 7.93 3.125 7.25 C2.806 5.142 2.806 5.142 2.125 3.25 C1.135 3.25 0.145 3.25 -0.875 3.25 Z " fill="#000000" transform="translate(566.875,528.75)"/>
<path d="M0 0 C2 2 2 2 2.312 5.438 C2 9 2 9 0.938 10.938 C-2.155 12.633 -4.555 12.431 -8 12 C-10 10.375 -10 10.375 -11 8 C-10.929 4.52 -10.614 2.705 -8.312 0.062 C-5.161 -1.386 -3.291 -0.93 0 0 Z M-6 3 C-6.33 4.65 -6.66 6.3 -7 8 C-5.68 8.33 -4.36 8.66 -3 9 C-2.34 7.35 -1.68 5.7 -1 4 C-2.65 3.67 -4.3 3.34 -6 3 Z " fill="#000000" transform="translate(501,532)"/>
<path d="M0 0 C1.32 0.99 2.64 1.98 4 3 C2.68 5.31 1.36 7.62 0 10 C-0.66 9.34 -1.32 8.68 -2 8 C-1.693 5.057 -1.327 2.655 0 0 Z " fill="#000000" transform="translate(763,538)"/>
<path d="M0 0 C0.33 0.66 0.66 1.32 1 2 C1.66 2 2.32 2 3 2 C3.33 1.34 3.66 0.68 4 0 C4.66 1.32 5.32 2.64 6 4 C4.02 4.99 4.02 4.99 2 6 C2.33 6.99 2.66 7.98 3 9 C2.67 9.33 2.34 9.66 2 10 C2.33 10.99 2.66 11.98 3 13 C2.67 13.99 2.34 14.98 2 16 C-0.31 15.67 -2.62 15.34 -5 15 C-4.34 13.68 -3.68 12.36 -3 11 C-2.01 11 -1.02 11 0 11 C-0.66 10.67 -1.32 10.34 -2 10 C-2.812 7.75 -2.812 7.75 -3 5 C-1.562 2.188 -1.562 2.188 0 0 Z " fill="#000000" transform="translate(733,543)"/>
<path d="M0 0 C0.99 0.99 1.98 1.98 3 3 C2.378 5.063 1.752 7.126 1.125 9.188 C0.777 10.336 0.429 11.485 0.07 12.668 C-0.842 15.509 -1.85 18.249 -3 21 C-3.155 20.041 -3.155 20.041 -3.312 19.062 C-3.539 18.382 -3.766 17.701 -4 17 C-4.99 16.67 -5.98 16.34 -7 16 C-6.691 15.423 -6.381 14.845 -6.062 14.25 C-4.957 12.114 -4.957 12.114 -4.562 10.125 C-3.948 7.803 -3.039 5.882 -1.938 3.75 C-1.575 3.044 -1.213 2.337 -0.84 1.609 C-0.563 1.078 -0.286 0.547 0 0 Z M0 6 C1 8 1 8 1 8 Z " fill="#000000" transform="translate(760,547)"/>
<path d="M0 0 C2.166 3.248 2.552 4.231 2 8 C0.125 10.312 0.125 10.312 -2 12 C-2.66 12 -3.32 12 -4 12 C-3.457 7.435 -2.205 4.027 0 0 Z " fill="#000000" transform="translate(767,547)"/>
<path d="M0 0 C0.66 0.66 1.32 1.32 2 2 C1.67 2.66 1.34 3.32 1 4 C0.96 5.666 0.956 7.334 1 9 C-1.31 9.33 -3.62 9.66 -6 10 C-5.67 7.69 -5.34 5.38 -5 3 C-3.02 3.495 -3.02 3.495 -1 4 C-0.67 2.68 -0.34 1.36 0 0 Z " fill="#000000" transform="translate(767,557)"/>
<path d="M0 0 C0.753 -0.003 1.506 -0.005 2.281 -0.008 C4.474 0.123 6.393 0.522 8.5 1.125 C8.5 1.785 8.5 2.445 8.5 3.125 C3.22 3.125 -2.06 3.125 -7.5 3.125 C-7.83 2.465 -8.16 1.805 -8.5 1.125 C-5.6 0.294 -3.014 -0.01 0 0 Z " fill="#000000" transform="translate(132.5,557.875)"/>
<path d="M0 0 C0.99 0.33 1.98 0.66 3 1 C4.394 1.067 5.792 1.085 7.188 1.062 C8.446 1.042 9.704 1.021 11 1 C10.67 1.99 10.34 2.98 10 4 C6.04 3.67 2.08 3.34 -2 3 C-1.34 2.01 -0.68 1.02 0 0 Z " fill="#000000" transform="translate(141,563)"/>
<path d="M0 0 C1.65 0 3.3 0 5 0 C4.67 1.32 4.34 2.64 4 4 C2.35 3.67 0.7 3.34 -1 3 C-0.67 2.01 -0.34 1.02 0 0 Z " fill="#000000" transform="translate(721,563)"/>
<path d="M0 0 C8.045 0.704 16.014 1.815 24 3 C24 3.33 24 3.66 24 4 C15.566 4.456 8.14 3.174 0 1 C0 0.67 0 0.34 0 0 Z " fill="#000000" transform="translate(95,576)"/>
<path d="M0 0 C2.375 0.812 2.375 0.812 4.375 2.812 C4.705 5.916 4.88 7.97 3.25 10.688 C0.464 12.359 -1.445 12.276 -4.625 11.812 C-6.562 10.125 -6.562 10.125 -7.625 7.812 C-7.547 4.613 -7.062 3.281 -4.875 0.938 C-2.625 -0.188 -2.625 -0.188 0 0 Z M-2.625 4.812 C-2.625 5.803 -2.625 6.793 -2.625 7.812 C-1.635 7.482 -0.645 7.153 0.375 6.812 C0.375 6.153 0.375 5.492 0.375 4.812 C-0.615 4.812 -1.605 4.812 -2.625 4.812 Z " fill="#000000" transform="translate(609.625,591.1875)"/>
<path d="M0 0 C0.763 0.846 1.526 1.691 2.312 2.562 C4.659 5.238 4.659 5.238 7.137 5.004 C8.712 4.751 10.286 4.492 11.859 4.227 C14 4 14 4 16.75 5 C21.756 9.45 24.867 14.317 26 21 C26.121 30.214 23.44 36.684 17.125 43.312 C13.129 47.086 9.605 49.894 3.938 50.125 C0.257 51.221 -0.058 52.282 -1.875 55.562 C-2.604 57.032 -3.319 58.508 -4 60 C-4.66 60 -5.32 60 -6 60 C-5.01 56.37 -4.02 52.74 -3 49 C-4.32 48.34 -5.64 47.68 -7 47 C-7.433 46.464 -7.866 45.928 -8.312 45.375 C-10.96 43.218 -13.693 43.94 -17 44 C-19.544 41.456 -19.326 40.407 -19.375 36.875 C-19.306 32.079 -18.436 28.842 -15.973 24.754 C-14.903 22.826 -14.353 21.175 -14 19 C-14.33 18.34 -14.66 17.68 -15 17 C-15.392 12.292 -15.473 9.929 -13.312 5.688 C-9.434 1.181 -6.064 -1.011 0 0 Z M-10.875 8.25 C-12.536 12.31 -11.836 15.841 -10.27 19.887 C-9.867 23.04 -11.27 24.602 -12.938 27.25 C-15.848 32.258 -16.647 35.282 -16 41 C-14.969 40.918 -13.938 40.835 -12.875 40.75 C-9 41 -9 41 -6.125 43 C-1.969 45.66 1.19 45.826 6 45 C12.562 41.92 18.22 35.485 21.5 29.062 C22.472 23.111 23.164 17.463 20.188 12 C18.161 8.858 18.161 8.858 15 7 C11.458 7.316 8.374 7.875 5 9 C4.526 8.196 4.051 7.391 3.562 6.562 C2.231 4.152 2.231 4.152 1 3 C-4.337 2.407 -7.488 4.186 -10.875 8.25 Z " fill="#000000" transform="translate(715,591)"/>
<path d="M0 0 C0 0.33 0 0.66 0 1 C-0.606 1.026 -1.212 1.052 -1.836 1.078 C-7.681 1.474 -12.242 2.741 -17.594 5.078 C-21.07 6.41 -24.301 6.726 -28 7 C-21.093 -0.884 -9.772 -0.468 0 0 Z " fill="#000000" transform="translate(292,593)"/>
<path d="M0 0 C1 1 1 1 1.375 3.875 C1 7 1 7 -1.188 9 C-4 10 -4 10 -6.75 9.562 C-9 8 -9 8 -9.938 5.062 C-10 2 -10 2 -8 -1 C-4.364 -2.212 -3.362 -1.593 0 0 Z M-6 1 C-6.33 2.65 -6.66 4.3 -7 6 C-5.108 6.681 -5.108 6.681 -3 7 C-2.34 6.34 -1.68 5.68 -1 5 C-1.319 2.892 -1.319 2.892 -2 1 C-3.32 1 -4.64 1 -6 1 Z " fill="#000000" transform="translate(439,594)"/>
<path d="M0 0 C1.875 1.188 1.875 1.188 3 3 C3.598 6.843 3.149 8.707 1.375 12.188 C-1.263 15.312 -3.148 16.664 -7 18 C-9.812 17.812 -9.812 17.812 -12 17 C-13.478 14.043 -13.06 11.258 -13 8 C-12.34 7.67 -11.68 7.34 -11 7 C-11 8.98 -11 10.96 -11 13 C-6.108 11.777 -3.654 10.352 -1 6 C-1.33 5.01 -1.66 4.02 -2 3 C-4.97 2.505 -4.97 2.505 -8 2 C-8 1.34 -8 0.68 -8 0 C-5.063 -1.468 -3.132 -0.767 0 0 Z " fill="#000000" transform="translate(721,609)"/>
<path d="M0 0 C2.342 3.513 2.496 4.865 2 9 C0.002 12.458 -1.166 13.739 -5 14.938 C-8.096 15.002 -9.493 14.764 -12 13 C-13.427 10.147 -13.31 8.165 -13 5 C-9.376 -0.623 -6.447 -1.646 0 0 Z M-7.812 4.188 C-9.289 6.018 -9.289 6.018 -8.688 8.688 C-8.461 9.451 -8.234 10.214 -8 11 C-5.133 10.427 -4.139 10.139 -2 8 C-1.833 5.416 -1.833 5.416 -2 3 C-5.804 2.635 -5.804 2.635 -7.812 4.188 Z " fill="#000000" transform="translate(543,630)"/>
<path d="M0 0 C0.99 0.33 1.98 0.66 3 1 C3 1.66 3 2.32 3 3 C2.01 3 1.02 3 0 3 C0 3.66 0 4.32 0 5 C0.66 5.33 1.32 5.66 2 6 C1.01 6 0.02 6 -1 6 C-1.625 4.125 -1.625 4.125 -2 2 C-1.34 1.34 -0.68 0.68 0 0 Z " fill="#000000" transform="translate(287,649)"/>
<path d="M0 0 C1.129 0.933 2.253 1.871 3.375 2.812 C4.001 3.335 4.628 3.857 5.273 4.395 C7 6 7 6 9 9 C5.181 7.444 2.74 5.044 0 2 C0 1.34 0 0.68 0 0 Z " fill="#000000" transform="translate(187,656)"/>
<path d="M0 0 C1.035 2.244 2.053 4.494 3.062 6.75 C3.357 7.384 3.652 8.018 3.955 8.672 C6.071 13.451 6.071 13.451 5.684 16.453 C5.458 16.964 5.232 17.474 5 18 C2 17 2 17 0.613 14.602 C0.184 13.619 -0.245 12.637 -0.688 11.625 C-1.124 10.648 -1.561 9.671 -2.012 8.664 C-3 6 -3 6 -3 3 C-3.66 2.67 -4.32 2.34 -5 2 C-2 0 -2 0 0 0 Z " fill="#000000" transform="translate(144,656)"/>
<path d="M0 0 C0.598 0.165 1.196 0.33 1.812 0.5 C1.812 1.16 1.812 1.82 1.812 2.5 C-0.95 3.097 -3.348 3.5 -6.188 3.5 C-7.805 5.234 -7.805 5.234 -9.25 7.438 C-12.001 11.407 -12.001 11.407 -14.188 12.5 C-13.159 6.789 -11.397 4.252 -6.941 0.566 C-4.495 -0.921 -2.726 -0.623 0 0 Z " fill="#000000" transform="translate(279.1875,658.5)"/>
<path d="M0 0 C0.66 0 1.32 0 2 0 C1.959 0.784 1.917 1.567 1.875 2.375 C1.713 5.161 1.713 5.161 4 7 C3.625 9.125 3.625 9.125 3 11 C0.865 8.4 -0.565 6.374 -1 3 C-0.67 2.01 -0.34 1.02 0 0 Z " fill="#000000" transform="translate(152,662)"/>
<path d="M0 0 C0 0.99 0 1.98 0 3 C-1.723 4.254 -1.723 4.254 -4.062 5.562 C-12.539 10.96 -17.056 19.587 -20 29 C-20.766 32.401 -20.766 32.401 -21 35 C-13.449 34.863 -9.383 32.184 -4 27 C1.855 20.59 6.499 13.399 11 6 C11.99 6.33 12.98 6.66 14 7 C15.246 9.547 15.246 9.547 16.438 12.75 C18.33 17.821 20.418 21.972 24.75 25.375 C28.305 26.362 31.38 25.603 35 25 C35 20.777 32.612 18.637 30.062 15.5 C25.124 9.373 25.124 9.373 24 6 C27 6 27 6 29.121 8.012 C29.886 8.895 30.65 9.778 31.438 10.688 C32.199 11.558 32.961 12.428 33.746 13.324 C34.49 14.207 35.234 15.09 36 16 C36.753 16.861 37.506 17.722 38.281 18.609 C40 21 40 21 40.062 24.562 C38.774 28.731 37.842 29.956 34 32 C29.412 32.666 26.367 32.608 22.375 30.188 C17.78 26.554 15.478 21.183 13 16 C10.502 18.915 9.63 20.729 9.516 24.559 C9.471 25.484 9.427 26.41 9.381 27.363 C9.316 28.885 9.316 28.885 9.25 30.438 C8.559 41.995 6.708 53.151 4.5 64.5 C4.344 65.303 4.189 66.105 4.028 66.932 C2.46 74.978 0.833 83.009 -1 91 C-1.66 90.67 -2.32 90.34 -3 90 C-3 83.73 -3 77.46 -3 71 C-4.485 71.99 -4.485 71.99 -6 73 C-6.99 73 -7.98 73 -9 73 C-9 72.34 -9 71.68 -9 71 C-8.051 70.629 -7.102 70.257 -6.125 69.875 C-2.216 67.53 -2.162 66.309 -1 62 C1.641 50.447 2.911 38.783 4 27 C3.274 27.911 2.549 28.823 1.801 29.762 C-2.598 35.027 -8.409 39.906 -15.312 41.188 C-19 41 -19 41 -21.938 39.438 C-24.577 36.318 -25.075 35.114 -25 31 C-22.436 19.855 -15.462 9.485 -6 3 C-2.562 1.125 -2.562 1.125 0 0 Z " fill="#000000" transform="translate(698,656)"/>
<path d="M0 0 C1.812 0.5 1.812 0.5 4 2 C5.592 5.145 7 8.446 7 12 C6.34 12 5.68 12 5 12 C4.505 9.525 4.505 9.525 4 7 C3.34 7 2.68 7 2 7 C1.34 4.69 0.68 2.38 0 0 Z " fill="#000000" transform="translate(136,665)"/>
<path d="M0 0 C2.25 1.25 2.25 1.25 3.25 2.25 C3.562 5.125 3.562 5.125 3.25 8.25 C1.562 10.188 1.562 10.188 -0.75 11.25 C-4.12 11.009 -5.338 10.662 -7.75 8.25 C-8.188 5.312 -8.188 5.312 -7.75 2.25 C-4.93 -0.328 -3.738 -1.019 0 0 Z M-3.75 2.25 C-4.08 3.9 -4.41 5.55 -4.75 7.25 C-3.1 6.92 -1.45 6.59 0.25 6.25 C-0.08 4.93 -0.41 3.61 -0.75 2.25 C-1.74 2.25 -2.73 2.25 -3.75 2.25 Z " fill="#000000" transform="translate(616.75,666.75)"/>
<path d="M0 0 C0.33 0.66 0.66 1.32 1 2 C0.321 3.663 -0.368 5.322 -1.109 6.957 C-3.485 12.407 -5.095 18.174 -6.75 23.875 C-7.013 24.78 -7.276 25.685 -7.547 26.617 C-8.226 29.134 -8.226 29.134 -7 32 C-7.619 32.247 -8.238 32.495 -8.875 32.75 C-11.351 34.206 -11.951 35.378 -13 38 C-11.68 38.33 -10.36 38.66 -9 39 C-10.736 45.419 -12.852 51.138 -16 57 C-17.555 55.773 -17.555 55.773 -19 54 C-18.82 51.914 -18.82 51.914 -18.125 49.625 C-17.167 46.046 -16.833 43.617 -18 40 C-17.34 40 -16.68 40 -16 40 C-15.782 38.974 -15.564 37.948 -15.34 36.891 C-13.855 30.96 -11.561 25.33 -9.314 19.653 C-8.56 17.743 -7.818 15.829 -7.076 13.914 C-6.599 12.7 -6.121 11.485 -5.629 10.234 C-4.98 8.583 -4.98 8.583 -4.319 6.897 C-3.118 4.26 -1.842 2.221 0 0 Z M-17 51 C-16 53 -16 53 -16 53 Z " fill="#000000" transform="translate(263,673)"/>
<path d="M0 0 C3.698 1.233 3.935 2.201 5.688 5.562 C6.124 6.389 6.561 7.215 7.012 8.066 C7.338 8.704 7.664 9.343 8 10 C8 7.36 8 4.72 8 2 C8.66 3.32 9.32 4.64 10 6 C10.66 6 11.32 6 12 6 C12.647 7.604 13.292 9.208 13.938 10.812 C14.297 11.706 14.657 12.599 15.027 13.52 C15.736 15.327 16.386 17.158 17 19 C17.66 19 18.32 19 19 19 C19.66 17.68 20.32 16.36 21 15 C22.485 21.93 22.485 21.93 24 29 C22.35 28.67 20.7 28.34 19 28 C19 27.34 19 26.68 19 26 C18.34 25.67 17.68 25.34 17 25 C16.273 23.021 15.602 21.02 15 19 C13.68 19 12.36 19 11 19 C11 18.34 11 17.68 11 17 C10.34 16.67 9.68 16.34 9 16 C8.361 15.196 7.721 14.391 7.062 13.562 C5.079 10.836 5.079 10.836 2 9 C1 8 1 8 -1 5 C-0.625 2.312 -0.625 2.312 0 0 Z " fill="#000000" transform="translate(151,683)"/>
<path d="M0 0 C0.495 0.99 0.495 0.99 1 2 C0.34 2 -0.32 2 -1 2 C-1 2.66 -1 3.32 -1 4 C-2.898 5.508 -2.898 5.508 -5.375 7.125 C-6.187 7.664 -6.999 8.203 -7.836 8.758 C-10 10 -10 10 -12 10 C-12 10.66 -12 11.32 -12 12 C-8.095 10.586 -4.391 9.199 -0.688 7.312 C2 6 2 6 5 6 C5 6.66 5 7.32 5 8 C3.369 9.058 1.697 10.053 0 11 C-2.368 12.579 -4.067 13.975 -6 16 C-5.34 16.33 -4.68 16.66 -4 17 C-4 17.99 -4 18.98 -4 20 C-3.34 20.33 -2.68 20.66 -2 21 C-2.33 21.66 -2.66 22.32 -3 23 C-4.938 22.25 -4.938 22.25 -7 21 C-7.75 18.875 -7.75 18.875 -8 17 C-10.473 17.344 -10.473 17.344 -13 18 C-13.33 18.66 -13.66 19.32 -14 20 C-14.66 20 -15.32 20 -16 20 C-16 20.66 -16 21.32 -16 22 C-15.34 22 -14.68 22 -14 22 C-14 22.66 -14 23.32 -14 24 C-13.01 23.67 -12.02 23.34 -11 23 C-11 23.66 -11 24.32 -11 25 C-10.01 25.33 -9.02 25.66 -8 26 C-8.99 26.66 -9.98 27.32 -11 28 C-11.66 27.67 -12.32 27.34 -13 27 C-13.33 27.66 -13.66 28.32 -14 29 C-14 28.34 -14 27.68 -14 27 C-18.342 27.185 -18.342 27.185 -22 29 C-22.66 29.99 -23.32 30.98 -24 32 C-24.99 32 -25.98 32 -27 32 C-27.121 32.739 -27.242 33.477 -27.367 34.238 C-27.718 36.363 -28.072 38.486 -28.43 40.609 C-28.796 42.785 -29.156 44.962 -29.508 47.141 C-29.67 48.105 -29.833 49.069 -30 50.062 C-30.217 51.379 -30.217 51.379 -30.438 52.723 C-31 55 -31 55 -33 58 C-33.66 58 -34.32 58 -35 58 C-35.087 54.042 -35.14 50.084 -35.188 46.125 C-35.213 44.997 -35.238 43.869 -35.264 42.707 C-35.273 41.631 -35.283 40.554 -35.293 39.445 C-35.309 38.45 -35.324 37.455 -35.341 36.43 C-35.228 35.628 -35.116 34.826 -35 34 C-34.01 33.34 -33.02 32.68 -32 32 C-31.67 33.65 -31.34 35.3 -31 37 C-29.002 32.879 -28.822 29.548 -29 25 C-27.35 25 -25.7 25 -24 25 C-24.99 23.02 -25.98 21.04 -27 19 C-26.01 18.67 -25.02 18.34 -24 18 C-24 17.34 -24 16.68 -24 16 C-22.855 16.526 -22.855 16.526 -21.688 17.062 C-18.952 18.324 -18.952 18.324 -16 17 C-15.67 16.01 -15.34 15.02 -15 14 C-16.176 13.629 -16.176 13.629 -17.375 13.25 C-20.323 11.846 -20.902 10.993 -22 8 C-21.01 8 -20.02 8 -19 8 C-19 8.66 -19 9.32 -19 10 C-14.249 9.703 -11.593 7.333 -8.004 4.5 C-5.496 2.623 -2.851 1.283 0 0 Z M-19 24 C-19 27 -19 27 -19 27 Z " fill="#000000" transform="translate(763,688)"/>
<path d="M0 0 C4.614 1.493 7.495 3.734 11 7 C11.33 7.99 11.66 8.98 12 10 C13.883 11.108 13.883 11.108 16 12 C16.99 12.66 17.98 13.32 19 14 C19 14.66 19 15.32 19 16 C20.65 16.66 22.3 17.32 24 18 C24 18.66 24 19.32 24 20 C24.66 20.33 25.32 20.66 26 21 C24.625 22.5 24.625 22.5 23 24 C22.34 24 21.68 24 21 24 C21 22.68 21 21.36 21 20 C20.34 20.33 19.68 20.66 19 21 C19.33 21.99 19.66 22.98 20 24 C18.062 23.688 18.062 23.688 16 23 C15.67 22.01 15.34 21.02 15 20 C14.34 19.67 13.68 19.34 13 19 C13.66 18.34 14.32 17.68 15 17 C13.68 16.34 12.36 15.68 11 15 C11.33 13.68 11.66 12.36 12 11 C11.01 11 10.02 11 9 11 C9 10.34 9 9.68 9 9 C8.34 9 7.68 9 7 9 C7 8.34 7 7.68 7 7 C6.01 6.67 5.02 6.34 4 6 C1.812 4.062 1.812 4.062 0 2 C0 1.34 0 0.68 0 0 Z " fill="#000000" transform="translate(103,692)"/>
<path d="M0 0 C3 0.312 3 0.312 6 1 C6.33 1.66 6.66 2.32 7 3 C7.825 3.309 8.65 3.619 9.5 3.938 C10.737 4.463 10.737 4.463 12 5 C12.33 5.99 12.66 6.98 13 8 C13.99 8.33 14.98 8.66 16 9 C14.02 9.99 14.02 9.99 12 11 C11.67 10.34 11.34 9.68 11 9 C9.886 8.567 9.886 8.567 8.75 8.125 C4.806 6.511 1.99 3.99 -1 1 C-0.67 0.67 -0.34 0.34 0 0 Z " fill="#000000" transform="translate(92,693)"/>
<path d="M0 0 C3.487 1.109 6.775 2.263 10 4 C10 4.66 10 5.32 10 6 C6.059 5.437 3.249 4.321 0 2 C0 1.34 0 0.68 0 0 Z " fill="#000000" transform="translate(96,702)"/>
<path d="M0 0 C0.33 0.66 0.66 1.32 1 2 C1.99 2 2.98 2 4 2 C4 2.66 4 3.32 4 4 C4.99 4.33 5.98 4.66 7 5 C6.67 6.32 6.34 7.64 6 9 C6 8.34 6 7.68 6 7 C5.34 7 4.68 7 4 7 C4 8.32 4 9.64 4 11 C4.99 10.67 5.98 10.34 7 10 C7 12.64 7 15.28 7 18 C4.5 16.625 4.5 16.625 2 15 C2 14.34 2 13.68 2 13 C1.01 12.67 0.02 12.34 -1 12 C-1 11.34 -1 10.68 -1 10 C-0.34 9.67 0.32 9.34 1 9 C1 7.68 1 6.36 1 5 C0.34 5 -0.32 5 -1 5 C-1.33 3.68 -1.66 2.36 -2 1 C-1.34 0.67 -0.68 0.34 0 0 Z " fill="#000000" transform="translate(108,703)"/>
<path d="M0 0 C0 0.66 0 1.32 0 2 C-15.583 11 -15.583 11 -24 11 C-23.67 10.01 -23.34 9.02 -23 8 C-20.393 6.842 -17.876 5.857 -15.188 4.938 C-13.743 4.428 -12.299 3.916 -10.855 3.402 C-10.178 3.164 -9.5 2.925 -8.802 2.679 C-6.879 1.992 -6.879 1.992 -4.676 0.816 C-3 0 -3 0 0 0 Z " fill="#000000" transform="translate(696,717)"/>
<path d="M0 0 C0.66 0.33 1.32 0.66 2 1 C1.01 2.485 1.01 2.485 0 4 C-0.786 6.689 -1.49 9.338 -2.125 12.062 C-2.305 12.823 -2.484 13.584 -2.669 14.367 C-3.793 19.384 -4.37 24.057 -4.043 29.215 C-4 31 -4 31 -5 33 C-5.99 32.67 -6.98 32.34 -8 32 C-8.506 29.126 -9.005 26.251 -9.5 23.375 C-9.643 22.567 -9.786 21.759 -9.934 20.926 C-10.679 16.561 -11.173 12.448 -11 8 C-8.752 10.052 -7.998 11.007 -7 14 C-6.619 12.987 -6.619 12.987 -6.23 11.953 C-5.886 11.061 -5.542 10.169 -5.188 9.25 C-4.683 7.927 -4.683 7.927 -4.168 6.578 C-3.032 4.07 -1.735 2.127 0 0 Z " fill="#000000" transform="translate(716,720)"/>
<path d="M0 0 C0.931 2.606 1.149 3.642 0.062 6.25 C-0.463 7.116 -0.463 7.116 -1 8 C-1.99 7.67 -2.98 7.34 -4 7 C-2.926 4.085 -2.222 2.222 0 0 Z " fill="#000000" transform="translate(331,721)"/>
<path d="M0 0 C3 4.385 3 4.385 3 7 C-1.677 5.523 -1.677 5.523 -3.312 2.875 C-3.539 2.256 -3.766 1.638 -4 1 C-2 0 -2 0 0 0 Z " fill="#000000" transform="translate(111,722)"/>
<path d="M0 0 C0.99 0 1.98 0 3 0 C2.67 2.97 2.34 5.94 2 9 C1.34 9 0.68 9 0 9 C0 6.03 0 3.06 0 0 Z " fill="#000000" transform="translate(739,724)"/>
<path d="M0 0 C6.284 0.867 11.057 2.875 16.5 6 C17.123 6.356 17.747 6.713 18.389 7.08 C22.863 9.725 22.863 9.725 24 12 C19.384 10.588 15.157 8.701 10.875 6.5 C10.268 6.192 9.661 5.884 9.035 5.566 C7.355 4.714 5.678 3.857 4 3 C2.668 2.332 1.335 1.664 0 1 C0 0.67 0 0.34 0 0 Z " fill="#000000" transform="translate(185,725)"/>
<path d="M0 0 C1.32 0.33 2.64 0.66 4 1 C1.36 2.98 -1.28 4.96 -4 7 C-2 3 -2 3 0 0 Z " fill="#000000" transform="translate(320,728)"/>
<path d="M0 0 C-3.423 3.15 -6.443 3.562 -11 4 C-10.34 3.67 -9.68 3.34 -9 3 C-8.67 2.01 -8.34 1.02 -8 0 C-4.71 -1.097 -3.287 -0.8 0 0 Z " fill="#000000" transform="translate(689,729)"/>
<path d="M0 0 C1.284 3.707 0.793 6.731 0.188 10.562 C0.016 11.698 -0.155 12.834 -0.332 14.004 C-1 17 -1 17 -3 20 C-3.99 19.67 -4.98 19.34 -6 19 C-5.526 18.526 -5.051 18.051 -4.562 17.562 C-2.34 13.917 -2.031 10.234 -2 6 C-2.33 5.01 -2.66 4.02 -3 3 C-2.01 2.01 -1.02 1.02 0 0 Z " fill="#000000" transform="translate(723,728)"/>
<path d="M0 0 C0.99 0.33 1.98 0.66 3 1 C0.688 3.062 0.688 3.062 -2 5 C-2.99 4.67 -3.98 4.34 -5 4 C-2.688 1.938 -2.688 1.938 0 0 Z " fill="#000000" transform="translate(357,731)"/>
<path d="M0 0 C0.33 0.66 0.66 1.32 1 2 C1.99 2 2.98 2 4 2 C4 2.66 4 3.32 4 4 C4.536 4.082 5.073 4.165 5.625 4.25 C8.835 5.264 11.263 7.072 14 9 C11 10 11 10 8.082 8.566 C7.003 7.905 5.924 7.244 4.812 6.562 C3.726 5.904 2.639 5.245 1.52 4.566 C0.688 4.049 -0.143 3.533 -1 3 C-0.67 2.01 -0.34 1.02 0 0 Z " fill="#000000" transform="translate(106,732)"/>
<path d="M0 0 C0 3.413 -0.669 4.395 -2.5 7.188 C-2.964 7.903 -3.428 8.618 -3.906 9.355 C-4.267 9.898 -4.628 10.441 -5 11 C-5.33 10.34 -5.66 9.68 -6 9 C-4.02 6.03 -2.04 3.06 0 0 Z " fill="#000000" transform="translate(264,742)"/>
<path d="M0 0 C0.33 0.66 0.66 1.32 1 2 C-0.134 2.124 -1.269 2.247 -2.438 2.375 C-4.201 2.684 -4.201 2.684 -6 3 C-6.33 3.66 -6.66 4.32 -7 5 C-9.562 5.625 -9.562 5.625 -12 6 C-7.719 0.251 -7.719 0.251 -4.312 -0.938 C-2 -1 -2 -1 0 0 Z " fill="#000000" transform="translate(361,754)"/>
<path d="M0 0 C0.66 1.32 1.32 2.64 2 4 C-10.813 9.753 -10.813 9.753 -18 8 C-16 6 -16 6 -13.312 5.562 C-8.314 4.714 -4.202 2.801 0 0 Z " fill="#000000" transform="translate(368,757)"/>
<path d="M0 0 C-0.33 0.99 -0.66 1.98 -1 3 C-4.062 4.188 -4.062 4.188 -7 5 C-7.33 4.34 -7.66 3.68 -8 3 C-2.25 0 -2.25 0 0 0 Z " fill="#000000" transform="translate(285,759)"/>
<path d="M0 0 C0.33 0.66 0.66 1.32 1 2 C-0.32 3.65 -1.64 5.3 -3 7 C-3.66 6.67 -4.32 6.34 -5 6 C-3.63 2.839 -3.011 2.007 0 0 Z " fill="#000000" transform="translate(377,761)"/>
</svg>
