<?xml version="1.0" encoding="UTF-8"?>
<!-- Generator: visioncortex VTracer 0.6.0 -->
<svg version="1.1" xmlns="http://www.w3.org/2000/svg" width="847" height="847">
<path d="M0 0 C0.684 -0.008 1.367 -0.016 2.072 -0.025 C11.34 -0.107 19.861 0.859 28.812 3.375 C28.812 4.365 28.812 5.355 28.812 6.375 C28.26 6.284 27.708 6.193 27.139 6.1 C-8.724 0.306 -45.078 4.976 -75.422 26.324 C-76.335 27.001 -77.247 27.678 -78.188 28.375 C-79.121 29.062 -80.054 29.749 -81.016 30.457 C-99.347 44.667 -110.151 64.489 -113.478 87.37 C-116.809 114.135 -114.453 145.625 -97.938 168 C-85.26 183.38 -68.135 190.329 -48.75 193.125 C-26.595 194.836 -4.748 191.344 17.012 187.594 C18.781 187.3 18.781 187.3 20.586 187 C23.716 186.464 23.716 186.464 26.273 185.567 C35.276 182.729 43.98 187.196 52.438 190.25 C54.126 190.839 55.814 191.427 57.504 192.012 C61.616 193.441 65.717 194.9 69.812 196.375 C66.503 191.855 63.163 187.518 59.312 183.438 C55.283 179.04 51.937 174.448 48.812 169.375 C51.233 167.418 53.656 165.489 56.172 163.656 C76.283 148.672 83.712 124.327 90.812 101.375 C91.803 101.705 92.793 102.035 93.812 102.375 C87.728 127.284 78.211 153.786 55.613 168.301 C55.019 168.655 54.425 169.01 53.812 169.375 C55.444 173.207 57.988 176.136 60.688 179.25 C61.164 179.806 61.641 180.363 62.132 180.936 C63.152 182.126 64.174 183.314 65.197 184.5 C66.871 186.443 68.54 188.391 70.207 190.34 C73.072 193.688 75.941 197.032 78.812 200.375 C78.482 201.035 78.153 201.695 77.812 202.375 C71.382 200.784 65.137 198.839 58.906 196.605 C57.488 196.105 56.07 195.604 54.652 195.104 C52.476 194.335 50.303 193.559 48.137 192.759 C39.037 189.412 32.378 187.697 22.812 190.375 C20.377 190.818 17.936 191.234 15.492 191.629 C14.215 191.844 12.937 192.058 11.621 192.279 C10.323 192.497 9.025 192.714 7.688 192.938 C6.368 193.161 5.049 193.384 3.73 193.607 C0.094 194.216 -3.545 194.805 -7.188 195.375 C-7.956 195.496 -8.724 195.616 -9.516 195.741 C-16.646 196.694 -23.87 196.597 -31.051 196.615 C-33.353 196.625 -35.654 196.656 -37.955 196.688 C-59.596 196.843 -79.836 190.838 -95.871 175.781 C-114.439 156.493 -118.691 127.728 -118.336 102.027 C-117.749 78.748 -111.038 56.839 -95.188 39.375 C-94.45 38.556 -93.713 37.738 -92.953 36.895 C-76.199 19.237 -55.185 10.098 -32.188 3.375 C-31.486 3.164 -30.785 2.954 -30.062 2.737 C-20.253 -0.077 -10.117 0.076 0 0 Z " fill="#000000" transform="translate(432.1875,64.625)"/>
<path d="M0 0 C16.423 4.247 31.774 17.008 41 31 C49.909 46.527 51.475 61.364 51 79 C50.01 79 49.02 79 48 79 C47.944 77.061 47.944 77.061 47.887 75.082 C47.157 54.113 43.122 35.721 27.77 20.539 C19.255 12.733 9.074 7.512 -1 2 C-0.67 1.34 -0.34 0.68 0 0 Z " fill="#000000" transform="translate(477,74)"/>
<path d="M0 0 C0.33 0 0.66 0 1 0 C0.93 1.181 0.861 2.362 0.789 3.578 C0.733 5.135 0.678 6.693 0.625 8.25 C0.575 9.027 0.524 9.805 0.473 10.605 C0.414 12.88 0.439 14.792 1 17 C3.781 19.444 3.781 19.444 7 21 C11.107 26.188 11.625 30.499 11.387 37.062 C10.488 43.887 7.198 48.563 2 53 C-4.593 57.502 -11.17 57.714 -19 57 C-24.955 55.294 -28.524 52.009 -32 47 C-34.646 41.781 -33.984 36.985 -33.68 31.277 C-33.702 27.9 -33.702 27.9 -36.008 25.566 C-36.665 25.049 -37.323 24.533 -38 24 C-37.216 24.33 -36.433 24.66 -35.625 25 C-30.921 26.298 -26.874 26.132 -22 26 C-25.63 25.01 -29.26 24.02 -33 23 C-33 22.67 -33 22.34 -33 22 C-28.38 22 -23.76 22 -19 22 C-26.166 19.611 -34.632 20.866 -42 22 C-42 21.01 -42 20.02 -42 19 C-33.09 18.01 -33.09 18.01 -24 17 C-24.495 15.639 -24.99 14.278 -25.5 12.875 C-26.764 9.117 -27.308 5.998 -27 2 C-19.063 3.368 -13.346 5.923 -7 11 C-6.773 10.299 -6.546 9.597 -6.312 8.875 C-4.673 5.284 -2.65 2.922 0 0 Z M-1 4 C-1.838 5.455 -2.671 6.914 -3.5 8.375 C-3.964 9.187 -4.428 9.999 -4.906 10.836 C-6.15 12.893 -6.15 12.893 -6 15 C-4.68 15.33 -3.36 15.66 -2 16 C-1.649 14.763 -1.299 13.525 -0.938 12.25 C-0.74 11.554 -0.543 10.858 -0.34 10.141 C0.035 7.78 -0.273 6.256 -1 4 Z M-25 5 C-24.535 9.743 -23.958 13.197 -21 17 C-20.113 17.495 -19.226 17.99 -18.312 18.5 C-17.549 18.995 -16.786 19.49 -16 20 C-15.688 22.688 -15.688 22.688 -16 25 C-20.975 28.249 -23.882 29.499 -30 29 C-30 29.99 -30 30.98 -30 32 C-27.36 32 -24.72 32 -22 32 C-25.644 34.429 -27.712 34.162 -32 34 C-32.25 36.416 -32.25 36.416 -32 39 C-28.331 41.446 -26.328 41.236 -22 41 C-21.01 40.505 -21.01 40.505 -20 40 C-20 40.66 -20 41.32 -20 42 C-25.445 42.495 -25.445 42.495 -31 43 C-27.441 47.692 -22.588 48.99 -17 50 C-14.48 49.955 -12.468 49.59 -10 49 C-10 49.66 -10 50.32 -10 51 C-16.404 51.236 -21.846 50.823 -28 49 C-24.749 52.901 -21.946 54.011 -17 55 C-10.9 55.492 -5.458 54.954 0 52 C4.808 47.777 8.548 43.193 9.246 36.719 C9.552 30.565 8.809 26.884 5 22 C-0.213 17.671 -6.076 16.732 -12.75 17.188 C-15 17 -15 17 -17.312 15.125 C-19 13 -19 13 -19 11 C-18.278 11.66 -17.556 12.32 -16.812 13 C-13.784 15.154 -12.603 15.412 -9 15 C-12.512 10.454 -15.456 7.049 -21 5 C-22.32 5 -23.64 5 -25 5 Z " fill="#000000" transform="translate(473,89)"/>
<path d="M0 0 C0.701 0.124 1.403 0.248 2.125 0.375 C1.526 0.646 0.926 0.916 0.309 1.195 C-6.577 4.915 -9.19 11.896 -11.797 18.898 C-12.875 21.375 -12.875 21.375 -14.875 22.375 C-14.298 15.065 -10.805 8.126 -5.875 2.75 C-2.875 0.375 -2.875 0.375 0 0 Z " fill="#000000" transform="translate(597.875,118.625)"/>
<path d="M0 0 C0.33 0 0.66 0 1 0 C1.295 5.023 0.985 7.895 -2 12 C-1.031 11.979 -0.061 11.959 0.938 11.938 C4 12 4 12 5 13 C5.5 15.25 5.5 15.25 5 18 C0.966 21.988 -4.278 25 -10 25 C-10 24.34 -10 23.68 -10 23 C-8.211 21.995 -6.419 20.996 -4.625 20 C-3.627 19.443 -2.63 18.886 -1.602 18.312 C1 17 1 17 3 17 C3 16.01 3 15.02 3 14 C-2.449 15.108 -5.84 16.1 -10 20 C-10.33 19.34 -10.66 18.68 -11 18 C-10.374 17.203 -9.747 16.407 -9.102 15.586 C-8.276 14.516 -7.45 13.446 -6.625 12.375 C-6.212 11.853 -5.8 11.331 -5.375 10.793 C-2.728 7.335 -1.146 4.195 0 0 Z " fill="#000000" transform="translate(600,120)"/>
<path d="M0 0 C6.589 3.294 8.694 10.252 11.051 17.016 C11.75 19.334 12.408 21.652 13 24 C12.754 22.927 12.754 22.927 12.504 21.832 C12.007 19.042 11.9 16.516 11.938 13.688 C11.947 12.804 11.956 11.921 11.965 11.012 C11.976 10.348 11.988 9.684 12 9 C12.66 8.67 13.32 8.34 14 8 C20.833 13.504 22.76 21.578 24 30 C24.398 29.241 24.797 28.481 25.207 27.699 C25.737 26.705 26.267 25.711 26.812 24.688 C27.335 23.701 27.857 22.715 28.395 21.699 C29.786 19.359 30.854 17.651 33 16 C33.99 16 34.98 16 36 16 C36.13 23.719 33.662 29.695 30.263 36.465 C28.343 40.204 28.343 40.204 28.598 44.242 C29.06 44.822 29.523 45.402 30 46 C30.498 46.634 30.995 47.268 31.508 47.922 C32.041 48.525 32.575 49.128 33.125 49.75 C33.664 50.364 34.203 50.977 34.758 51.609 C35.168 52.068 35.578 52.527 36 53 C35.948 51.931 35.948 51.931 35.895 50.84 C35.723 44.771 35.803 40.253 39 35 C41.188 34.062 41.188 34.062 43 34 C46.209 38.813 45.52 44.124 44.512 49.703 C44.146 51.366 43.757 53.025 43.34 54.676 C42.792 58.426 43.817 61.452 45 65 C45.66 65 46.32 65 47 65 C47.041 63.886 47.082 62.773 47.125 61.625 C47.904 55.458 51.093 49.725 55.625 45.477 C58.226 43.643 59.789 43 63 43 C64.377 47.13 63.221 49.092 61.59 53.016 C58.477 58.86 54.19 63.899 50 69 C51.485 70.98 51.485 70.98 53 73 C58.028 67.358 63.033 61.696 68 56 C68.66 56.33 69.32 56.66 70 57 C69.665 67.385 65.284 73.829 58 81 C60.081 84.612 62.162 88.223 64.244 91.834 C64.951 93.061 65.658 94.287 66.365 95.514 C67.385 97.285 68.405 99.054 69.426 100.824 C70.038 101.887 70.651 102.95 71.282 104.046 C72.397 105.962 73.562 107.85 74.786 109.698 C75.187 110.458 75.587 111.217 76 112 C75.505 113.485 75.505 113.485 75 115 C71.684 111.969 69.589 108.869 67.398 104.957 C67.076 104.388 66.753 103.819 66.421 103.233 C65.399 101.429 64.386 99.621 63.375 97.812 C62.356 95.993 61.335 94.175 60.308 92.36 C59.38 90.722 58.46 89.08 57.541 87.437 C56.231 84.9 56.231 84.9 54 84 C52.767 84.598 51.564 85.256 50.375 85.938 C43.059 89.335 33.659 89.393 25.969 87.094 C23.883 86.17 21.935 85.204 20 84 C22.424 78.176 27.216 76.355 32.562 73.688 C33.438 73.233 34.314 72.779 35.217 72.311 C41.684 69 41.684 69 44 69 C43.34 68.01 42.68 67.02 42 66 C39.047 67.365 36.657 68.966 34.125 71 C28.898 74.968 24.597 76.314 18 76 C17.34 74.68 16.68 73.36 16 72 C20.654 65.711 25.794 62.088 33 59 C33.99 59 34.98 59 36 59 C32.725 54.363 29.696 50.315 25 47 C24.915 47.708 24.83 48.415 24.742 49.145 C23.833 52.641 22.279 54.796 20.125 57.688 C19.077 59.116 19.077 59.116 18.008 60.574 C16 63 16 63 13 65 C9.813 65.125 9.813 65.125 7 65 C6.62 61.204 6.72 59.432 8.828 56.184 C10.027 54.824 10.027 54.824 11.25 53.438 C12.039 52.529 12.828 51.62 13.641 50.684 C14.419 49.798 15.198 48.912 16 48 C17.342 46.34 18.679 44.676 20 43 C19.01 43.494 18.02 43.987 17 44.496 C15.667 45.144 14.334 45.791 13 46.438 C12.352 46.763 11.703 47.088 11.035 47.424 C6.303 49.696 2.236 50.585 -3 51 C-3.33 50.34 -3.66 49.68 -4 49 C-0.612 42.839 4.441 39.18 10 35 C9.34 34.34 8.68 33.68 8 33 C4.644 33.197 2.111 34.404 -0.812 35.938 C-9.314 40.283 -19.257 41.744 -28.613 39.324 C-30.812 38.5 -30.812 38.5 -34 37 C-33.623 34.599 -33.333 33.314 -31.539 31.621 C-22.651 26.125 -13.314 24.579 -3 24 C-3.701 23.526 -4.402 23.051 -5.125 22.562 C-9.759 18.432 -13.653 13.778 -14.438 7.5 C-14 5 -14 5 -13 4 C-9.842 3.613 -8.421 3.712 -5.762 5.531 C-3.841 7.354 -1.921 9.177 0 11 C0 7.37 0 3.74 0 0 Z M1 3 C1.191 11.001 3.461 16.9 7 24 C7.616 25.391 8.222 26.786 8.812 28.188 C9.204 29.116 9.596 30.044 10 31 C10.66 30.67 11.32 30.34 12 30 C9.106 16.398 9.106 16.398 3 4 C2.34 3.67 1.68 3.34 1 3 Z M-12 7 C-9.76 15.028 -4.544 20.085 2 25 C2.66 25 3.32 25 4 25 C2.267 18.07 -2.414 11.469 -8 7 C-9.32 7 -10.64 7 -12 7 Z M14 11 C13.702 16.958 14.773 22.072 16.312 27.812 C16.526 28.67 16.739 29.528 16.959 30.412 C17.175 31.231 17.391 32.051 17.613 32.895 C17.807 33.636 18.001 34.376 18.2 35.14 C18.957 37.365 18.957 37.365 22 39 C22.695 30.621 21.176 22.783 18 15 C15.998 12.63 15.998 12.63 14 11 Z M33 19 C29.058 24.03 26.528 29.794 25 36 C25.309 38.256 25.309 38.256 26 40 C29.741 33.183 32.23 26.571 34 19 C33.67 19 33.34 19 33 19 Z M-32 35 C-32 35.66 -32 36.32 -32 37 C-23.253 39.916 -11.316 38.764 -3 35 C-0.841 33.786 1.024 32.508 3 31 C2.219 28.865 2.219 28.865 0.344 28.395 C-10.449 26.578 -23.474 27.375 -32 35 Z M14 28 C14.33 29.98 14.66 31.96 15 34 C15.33 33.01 15.66 32.02 16 31 C15.34 30.01 14.68 29.02 14 28 Z M9.719 37.906 C5.091 41.23 1.391 44.406 -2 49 C2.492 48.455 5.8 47.318 9.75 45.125 C11.165 44.355 11.165 44.355 12.609 43.57 C15.238 42.067 15.238 42.067 17 39 C13.471 37.097 13.471 37.097 9.719 37.906 Z M40 37 C38.467 40.065 38.897 43.268 38.938 46.625 C38.942 47.331 38.947 48.038 38.951 48.766 C38.963 50.51 38.981 52.255 39 54 C39.66 53.67 40.32 53.34 41 53 C41.694 50.823 41.694 50.823 42.125 48.25 C42.293 47.389 42.46 46.528 42.633 45.641 C42.992 43.055 43.066 40.607 43 38 C42.01 37.67 41.02 37.34 40 37 Z M22 46 C20.205 47.768 18.414 49.539 16.625 51.312 C16.117 51.812 15.609 52.312 15.086 52.826 C12.771 55.125 10.817 57.275 9 60 C9 60.99 9 61.98 9 63 C15.159 61.507 19.085 56.123 22.27 50.93 C23.295 48.833 23.295 48.833 22 46 Z M57.379 47.398 C52.639 52.556 50.47 57.169 49 64 C49.66 64 50.32 64 51 64 C52.618 61.779 54.104 59.572 55.562 57.25 C55.974 56.616 56.386 55.982 56.811 55.328 C58.773 52.245 60.249 49.571 61 46 C58.896 45.782 58.896 45.782 57.379 47.398 Z M67 60 C64.679 62.333 62.545 64.84 60.375 67.312 C59.751 68.003 59.127 68.693 58.484 69.404 C57.899 70.071 57.314 70.738 56.711 71.426 C56.167 72.038 55.624 72.651 55.064 73.282 C54.713 73.849 54.362 74.416 54 75 C54.33 75.99 54.66 76.98 55 78 C60.996 76.076 63.107 72.367 66 67 C66.903 64.646 67.473 62.475 68 60 C67.67 60 67.34 60 67 60 Z M20.812 69.188 C19.915 70.085 19.915 70.085 19 71 C19 71.99 19 72.98 19 74 C27.344 73.358 33.952 68.427 40 63 C39.67 62.34 39.34 61.68 39 61 C32.09 61 26.398 65.354 20.812 69.188 Z M33.375 75.812 C32.395 76.264 31.416 76.716 30.406 77.182 C29.01 77.844 29.01 77.844 27.586 78.52 C26.73 78.923 25.875 79.326 24.994 79.741 C22.679 80.909 22.679 80.909 22 84 C26.64 85.804 30.873 86.384 35.812 86.375 C36.864 86.377 36.864 86.377 37.938 86.379 C43.694 86.262 48.135 85.027 53 82 C52.67 80.68 52.34 79.36 52 78 C43.618 78.386 35.987 80.526 28 83 C29.848 81.152 32.678 80.801 35.125 80.062 C36.297 79.708 37.469 79.354 38.676 78.988 C42.111 77.967 45.548 76.963 49 76 C48.34 74.35 47.68 72.7 47 71 C41.991 71 37.837 73.685 33.375 75.812 Z " fill="#000000" transform="translate(376,120)"/>
<path d="M0 0 C4.712 1.286 7.606 3.009 11.188 6.312 C12.027 7.072 12.866 7.831 13.73 8.613 C16.975 12.025 19.138 15.343 20 20 C20.33 19.67 20.66 19.34 21 19 C23 18.959 25 18.957 27 19 C29.188 23.376 28.422 27.682 26.988 32.16 C24.593 38.196 24.593 38.196 23 41 C21.515 41.495 21.515 41.495 20 42 C20.458 40.625 20.917 39.25 21.375 37.875 C21.647 37.053 21.919 36.23 22.199 35.383 C22.834 33.495 23.504 31.62 24.188 29.75 C24.997 27.011 25.167 24.838 25 22 C24.01 22.33 23.02 22.66 22 23 C20.973 25.329 20.973 25.329 20.312 28.062 C20.061 28.982 19.81 29.901 19.551 30.848 C19.369 31.558 19.187 32.268 19 33 C18.34 33 17.68 33 17 33 C16.443 32.072 15.886 31.144 15.312 30.188 C12.519 26.336 10.503 25.397 6 24 C4 23.956 1.999 23.949 0 24 C0.866 24.471 1.732 24.941 2.625 25.426 C3.739 26.048 4.852 26.671 6 27.312 C7.114 27.927 8.227 28.542 9.375 29.176 C10.241 29.778 11.107 30.38 12 31 C12 31.99 12 32.98 12 34 C9.873 32.879 7.748 31.754 5.625 30.625 C5.022 30.308 4.418 29.991 3.797 29.664 C1.214 28.287 -0.918 27.082 -3 25 C-2.464 21.464 -2.464 21.464 -1 20 C0.525 20.089 2.047 20.245 3.562 20.438 C4.389 20.539 5.215 20.641 6.066 20.746 C6.704 20.83 7.343 20.914 8 21 C6.517 17.891 4.781 15.033 2.938 12.125 C0.693 8.419 -0.886 5.435 -1 1 C-0.67 0.67 -0.34 0.34 0 0 Z M2 4 C3.569 8.485 5.905 12.186 8.5 16.125 C8.903 16.745 9.307 17.365 9.723 18.004 C11.466 20.68 13.228 23.343 15 26 C15.66 26 16.32 26 17 26 C17.695 19.625 16.566 16.235 12.793 11.055 C10.141 8.015 7.466 6.066 4 4 C3.34 4 2.68 4 2 4 Z " fill="#000000" transform="translate(131,137)"/>
<path d="M0 0 C0.99 0.103 1.98 0.206 3 0.312 C5.493 4.052 5.766 6.983 5 11.312 C3.589 14.487 1.888 17.4 0 20.312 C-0.99 20.312 -1.98 20.312 -3 20.312 C-1.859 17.417 -0.666 14.619 0.688 11.812 C2.022 8.255 2.176 6.841 1 3.312 C-1.017 3.774 -1.017 3.774 -3 5.312 C-3.894 7.885 -4.561 10.233 -5.125 12.875 C-5.686 15.385 -6.303 17.833 -7 20.312 C-7.66 20.642 -8.32 20.972 -9 21.312 C-7.908 0.824 -7.908 0.824 0 0 Z " fill="#000000" transform="translate(642,219.6875)"/>
<path d="M0 0 C2.555 1.236 2.928 2.316 3.938 4.938 C3.949 7.227 3.949 7.227 3.625 9.562 C3.526 10.339 3.426 11.115 3.324 11.914 C2.938 13.938 2.938 13.938 1.938 15.938 C1.278 15.938 0.617 15.938 -0.062 15.938 C-0.062 11.977 -0.062 8.018 -0.062 3.938 C-0.722 3.607 -1.383 3.278 -2.062 2.938 C-1.732 7.887 -1.403 12.838 -1.062 17.938 C-2.053 17.938 -3.043 17.938 -4.062 17.938 C-4.793 14.374 -5.194 10.88 -5.312 7.25 C-5.338 6.504 -5.364 5.757 -5.391 4.988 C-4.874 1.758 -3.351 -0.102 0 0 Z " fill="#000000" transform="translate(597.0625,226.0625)"/>
<path d="M0 0 C0.786 0.004 1.572 0.008 2.382 0.012 C7.852 0.093 12.796 0.69 18.062 2.25 C18.558 4.23 18.558 4.23 19.062 6.25 C18.538 6.106 18.013 5.961 17.473 5.812 C2.341 2.187 -12.626 3.386 -26.312 11.062 C-34.204 16.192 -39.874 22.195 -42.938 31.25 C-44.753 41.634 -39.809 49.345 -34.109 57.598 C-33.529 58.416 -33.529 58.416 -32.938 59.25 C-34.258 59.25 -35.577 59.25 -36.938 59.25 C-39.008 57.055 -39.008 57.055 -41.062 54.125 C-41.746 53.174 -42.429 52.222 -43.133 51.242 C-47.191 44.513 -47.965 37.96 -46.938 30.25 C-43.381 19.034 -35.833 11.664 -25.631 6.238 C-17.028 1.861 -9.598 -0.115 0 0 Z " fill="#000000" transform="translate(562.9375,244.75)"/>
<path d="M0 0 C0.33 0.66 0.66 1.32 1 2 C-0.12 2.205 -1.24 2.41 -2.395 2.621 C-3.867 2.893 -5.34 3.165 -6.812 3.438 C-7.55 3.572 -8.288 3.707 -9.049 3.846 C-12.113 4.414 -15.039 5.013 -18 6 C-18.33 5.01 -18.66 4.02 -19 3 C-12.683 -0.446 -7.096 -0.315 0 0 Z " fill="#000000" transform="translate(629,246)"/>
<path d="M0 0 C16.287 14.008 26.426 33.082 29 54.438 C30.668 80.825 22.566 102.432 5.355 122.34 C0.329 127.733 -5.807 131.522 -12 135.438 C-11.046 136.587 -10.086 137.732 -9.125 138.875 C-8.324 139.832 -8.324 139.832 -7.508 140.809 C-6.078 142.546 -6.078 142.546 -4 143.438 C-3.423 143.107 -2.845 142.778 -2.25 142.438 C0.845 141.062 2.766 141.612 6 142.438 C6.99 143.097 7.98 143.757 9 144.438 C9.846 144.602 10.691 144.768 11.562 144.938 C14 145.438 14 145.438 16 147.438 C16.186 148.51 16.371 149.582 16.562 150.688 C17.743 155.229 20.848 156.767 24.684 159.113 C26.557 160.184 28.434 161.249 30.312 162.312 C35.831 166.676 37.332 173.292 39.438 179.75 C42.403 189.459 42.403 189.459 47 198.438 C50.407 200.183 50.407 200.183 54 201.438 C57.128 204.594 59.551 207.848 60.766 212.148 C62.517 216.814 65.415 220.323 68.438 224.25 C75.068 233.057 81.191 242.071 87 251.438 C87.39 252.066 87.78 252.694 88.182 253.341 C92.818 260.854 97.225 268.499 101.562 276.188 C102.005 276.963 102.447 277.738 102.903 278.537 C103.307 279.262 103.712 279.987 104.129 280.734 C104.491 281.377 104.852 282.02 105.225 282.683 C106 284.438 106 284.438 106 287.438 C106.747 287.071 106.747 287.071 107.508 286.698 C141.757 269.963 176.716 254.782 212.375 241.312 C213.313 240.958 214.252 240.604 215.218 240.238 C230.826 234.438 230.826 234.438 236 234.438 C236 233.447 236 232.457 236 231.438 C238.763 230.84 241.16 230.438 244 230.438 C243.832 229.869 243.665 229.301 243.492 228.715 C242.027 223.159 241.942 219.812 244 214.438 C243.429 214.461 242.858 214.484 242.27 214.508 C229.686 214.788 216.822 213.363 207.023 204.688 C201.123 197.711 199.657 188.781 200 179.875 C201.044 169.451 203.782 158.825 207.727 149.117 C209.129 145.146 209.129 145.146 208 141.438 C206.763 140.478 206.763 140.478 205.5 139.5 C203 137.438 203 137.438 202 134.875 C202 132.438 202 132.438 203.062 130.75 C206.43 128.469 209.4 127.179 213.52 127.844 C216.785 128.319 218.833 128.442 222 127.438 C225.317 123.379 227.582 118.984 229.962 114.336 C232.141 110.349 235.082 106.9 238 103.438 C237.277 102.351 237.277 102.351 236.539 101.242 C235.592 99.792 235.592 99.792 234.625 98.312 C233.999 97.361 233.372 96.41 232.727 95.43 C228.978 88.934 228.047 82.821 229 75.438 C231.965 65.95 238.284 60.232 246.875 55.688 C258.944 50.103 273.038 46.996 286 51.438 C293.367 55.483 293.367 55.483 294.711 59.633 C294.854 60.526 294.854 60.526 295 61.438 C295.641 61.1 296.281 60.762 296.941 60.414 C297.806 59.968 298.671 59.522 299.562 59.062 C300.409 58.622 301.256 58.181 302.129 57.727 C313.85 52.464 328.059 52.98 340 57.438 C364.081 67.603 380.97 84.29 391 108.438 C395.509 120.813 396.827 133.934 397.438 147 C398.299 164.373 403.071 178.819 414 192.438 C414.567 193.17 415.134 193.902 415.719 194.656 C421.01 201.146 427.552 205.411 434.707 209.641 C453.019 220.543 467.222 234.163 475 254.438 C475.553 255.779 475.553 255.779 476.117 257.148 C477.293 261.528 477.253 265.614 477.188 270.125 C477.187 270.979 477.186 271.833 477.186 272.713 C477.16 276.273 477.135 279.031 476 282.438 C477.093 282.561 478.186 282.685 479.312 282.812 C483 283.438 483 283.438 486 285.438 C485.72 286.265 485.441 287.093 485.152 287.945 C484.132 291.036 483.156 294.137 482.199 297.248 C481.337 300.043 480.458 302.832 479.574 305.62 C479.116 307.07 478.666 308.523 478.219 309.977 C476.448 315.268 473.571 319.238 470 323.438 C469.509 324.024 469.018 324.611 468.512 325.215 C453.233 341.934 422.975 352.529 400.648 353.544 C397.994 353.607 395.343 353.623 392.688 353.625 C391.801 353.637 390.915 353.649 390.002 353.662 C383.782 353.676 378.048 352.876 372 351.438 C372.242 352.326 372.485 353.214 372.734 354.129 C373.91 358.545 374.97 362.986 376 367.438 C376.192 368.257 376.384 369.077 376.582 369.921 C382.959 398.13 382.377 428.282 372 455.438 C373.316 454.149 374.627 452.857 375.938 451.562 C376.668 450.843 377.399 450.124 378.152 449.383 C380.057 447.567 380.057 447.567 381 445.438 C381.66 445.438 382.32 445.438 383 445.438 C383.237 444.884 383.474 444.331 383.719 443.762 C385.307 440.881 387.311 438.706 389.5 436.25 C405.405 417.713 412.941 394.69 419 371.438 C419.33 371.438 419.66 371.438 420 371.438 C420.237 377.041 419.445 381.844 418 387.25 C417.78 388.075 417.56 388.899 417.333 389.749 C412.16 408.171 402.708 427.042 390 441.438 C389.34 441.438 388.68 441.438 388 441.438 C387.736 442.03 387.471 442.623 387.199 443.234 C385.956 445.518 384.696 446.912 382.812 448.688 C380.243 451.178 377.831 453.722 375.5 456.438 C373.263 459.039 370.967 461.491 368.5 463.875 C365.972 466.353 363.809 468.917 361.688 471.75 C357.201 477.629 352.087 484.184 345.539 487.794 C340.105 490.827 340.105 490.827 337.234 496.072 C337.132 499.274 337.34 502.31 337.68 505.496 C337.76 506.64 337.841 507.785 337.924 508.964 C338.193 512.606 338.533 516.238 338.875 519.875 C339.07 522.348 339.26 524.821 339.445 527.295 C339.909 533.348 340.432 539.394 341 545.438 C348.087 537.629 348.087 537.629 354.875 529.562 C355.594 528.678 356.314 527.794 357.055 526.883 C358.743 524.761 360.388 522.617 362 520.438 C362.99 520.768 363.98 521.097 365 521.438 C364.261 522.297 363.523 523.157 362.762 524.043 C356.945 530.819 351.146 537.608 345.391 544.436 C342.101 548.337 342.101 548.337 341 549.438 C340.852 551.828 340.765 554.193 340.719 556.586 C340.7 557.313 340.682 558.04 340.663 558.789 C340.604 561.13 340.551 563.471 340.5 565.812 C340.07 584.934 340.07 584.934 339 594.438 C337.35 594.107 335.7 593.778 334 593.438 C334.002 592.595 334.004 591.753 334.007 590.886 C334.027 582.815 334.042 574.744 334.052 566.674 C334.057 562.528 334.064 558.382 334.075 554.236 C334.13 534.276 333.963 514.38 333 494.438 C332.34 494.768 331.68 495.097 331 495.438 C331.025 496.032 331.05 496.627 331.076 497.24 C333.353 551.719 333.353 551.719 333 567.438 C332.977 568.571 332.954 569.705 332.93 570.873 C332.857 574.18 332.774 577.487 332.681 580.794 C332.626 582.784 332.579 584.775 332.532 586.766 C332.473 588.595 332.473 588.595 332.414 590.461 C332.383 591.564 332.351 592.666 332.319 593.802 C332 596.438 332 596.438 330 598.438 C327.271 598.405 324.703 597.874 322 597.438 C322 596.778 322 596.117 322 595.438 C321.092 595.623 320.185 595.809 319.25 596 C316.231 596.406 314.804 596.372 312 595.438 C311.257 595.252 310.515 595.066 309.75 594.875 C309.173 594.731 308.595 594.586 308 594.438 C308.33 593.778 308.66 593.117 309 592.438 C308.216 592.293 307.433 592.149 306.625 592 C304 591.437 304 591.437 302 590.438 C302 589.778 302 589.117 302 588.438 C300.35 588.768 298.7 589.097 297 589.438 C297 587.788 297 586.138 297 584.438 C296.313 584.521 295.626 584.605 294.918 584.691 C294.017 584.793 293.116 584.895 292.188 585 C291.294 585.104 290.401 585.209 289.48 585.316 C287 585.438 287 585.438 284 584.438 C280.942 583.404 280.942 583.404 278 584.438 C275.651 583.83 273.315 583.166 271 582.438 C270.34 583.097 269.68 583.758 269 584.438 C268.01 584.107 267.02 583.778 266 583.438 C264.664 583.761 263.331 584.094 262 584.438 C261.34 584.107 260.68 583.778 260 583.438 C261.65 582.447 263.3 581.457 265 580.438 C264.313 580.51 263.626 580.582 262.918 580.656 C262.017 580.749 261.116 580.842 260.188 580.938 C259.294 581.03 258.401 581.123 257.48 581.219 C255 581.438 255 581.438 252 581.438 C251.67 580.778 251.34 580.117 251 579.438 C248.03 579.768 245.06 580.097 242 580.438 C242 579.778 242 579.117 242 578.438 C236.415 578.636 236.415 578.636 232 581.438 C231.34 580.778 230.68 580.117 230 579.438 C228.948 579.829 227.896 580.221 226.812 580.625 C223 581.438 223 581.438 220.438 580.125 C219.633 579.568 218.829 579.011 218 578.438 C214.806 577.723 214.806 577.723 212 577.438 C212 576.778 212 576.117 212 575.438 C211.34 575.768 210.68 576.097 210 576.438 C207.667 576.478 205.333 576.481 203 576.438 C202.67 577.097 202.34 577.758 202 578.438 C201.34 577.447 200.68 576.457 200 575.438 C199.402 575.788 198.804 576.139 198.188 576.5 C196 577.438 196 577.438 193 576.438 C192.67 577.097 192.34 577.758 192 578.438 C191.34 577.447 190.68 576.457 190 575.438 C186.432 574.701 186.432 574.701 183 574.438 C183.33 575.428 183.66 576.418 184 577.438 C183.67 578.097 183.34 578.758 183 579.438 C182.01 579.107 181.02 578.778 180 578.438 C180 577.447 180 576.457 180 575.438 C179.423 575.623 178.845 575.809 178.25 576 C175.793 576.478 174.356 576.195 172 575.438 C171.34 577.418 170.68 579.398 170 581.438 C169.67 580.447 169.34 579.457 169 578.438 C168.349 577.097 167.685 575.762 167 574.438 C166.381 574.644 165.762 574.85 165.125 575.062 C164.424 575.186 163.723 575.31 163 575.438 C162.34 574.778 161.68 574.117 161 573.438 C158.892 573.756 158.892 573.756 157 574.438 C157 573.778 157 573.117 157 572.438 C156.145 572.377 155.291 572.316 154.41 572.254 C153.305 572.17 152.201 572.086 151.062 572 C149.96 571.919 148.858 571.838 147.723 571.754 C145 571.438 145 571.438 144 570.438 C142.481 570.366 140.958 570.354 139.438 570.375 C138.262 570.392 138.262 570.392 137.063 570.408 C136.382 570.418 135.701 570.428 135 570.438 C136.483 558.651 138.745 547.069 141.125 535.438 C141.331 534.425 141.536 533.412 141.748 532.369 C144.723 517.763 147.923 503.215 151.254 488.688 C151.437 487.89 151.619 487.093 151.808 486.271 C153.644 478.266 155.492 470.264 157.361 462.266 C158.061 459.264 158.758 456.26 159.454 453.256 C159.941 451.16 160.435 449.066 160.929 446.972 C161.218 445.727 161.506 444.482 161.803 443.199 C162.06 442.106 162.316 441.012 162.58 439.885 C162.788 438.674 162.788 438.674 163 437.438 C162.67 437.108 162.34 436.777 162 436.438 C155.092 465.509 148.415 494.613 142.297 523.86 C141.879 525.856 141.46 527.852 141.041 529.848 C138.146 543.675 135.309 557.499 133 571.438 C132.34 571.438 131.68 571.438 131 571.438 C130.67 570.447 130.34 569.457 130 568.438 C129.67 569.097 129.34 569.758 129 570.438 C125.938 571.062 125.938 571.062 123 571.438 C122.67 572.758 122.34 574.077 122 575.438 C121.34 575.438 120.68 575.438 120 575.438 C118.293 529.829 132.382 486.676 147.523 444.262 C147.759 443.601 147.994 442.941 148.236 442.261 C149.072 439.93 149.892 437.654 151 435.438 C150.292 435.528 149.584 435.619 148.855 435.713 C116.044 439.847 88 440.95 60.125 420.309 C48.413 411.009 35.906 399.582 30 385.438 C29.875 382.188 29.875 382.188 30 379.438 C31.65 379.108 33.3 378.777 35 378.438 C34.794 377.839 34.587 377.241 34.375 376.625 C34 374.438 34 374.438 36 371.438 C39.568 370.709 41.943 370.837 45.145 372.656 C50.389 376.55 54.696 381.177 58.957 386.105 C60.891 388.313 62.902 390.387 65 392.438 C65.825 392.108 66.65 391.777 67.5 391.438 C75.53 389.143 83.447 391.012 91.5 392.438 C92.609 392.628 93.717 392.819 94.859 393.016 C97.574 393.484 100.287 393.958 103 394.438 C103 395.428 103 396.418 103 397.438 C96.764 397.011 90.656 396.414 84.5 395.312 C78.171 394.272 72.334 394.593 66 395.438 C69.341 399.587 72.986 400.549 78 401.625 C78.712 401.789 79.423 401.954 80.156 402.123 C82.102 402.571 84.051 403.005 86 403.438 C87.335 403.765 88.669 404.094 90 404.438 C90 405.098 90 405.757 90 406.438 C83.159 408.927 73.711 405.461 67.312 402.625 C64 400.438 64 400.438 62.656 397.707 C60.677 393.8 58.195 391.076 55.188 387.938 C54.679 387.395 54.17 386.852 53.646 386.293 C52.111 384.662 50.557 383.049 49 381.438 C48.464 380.867 47.929 380.296 47.377 379.708 C44.333 376.343 44.333 376.343 40.125 375.062 C39.424 375.186 38.722 375.31 38 375.438 C45.527 392.466 63.864 410.397 81.047 417.445 C86.947 419.428 92.952 420.977 99 422.438 C98.67 423.428 98.34 424.418 98 425.438 C79.655 423.258 67.174 414.898 54 402.438 C53.372 401.851 52.744 401.264 52.098 400.66 C46.407 395.176 41.382 389.01 37 382.438 C34.941 381.714 34.941 381.714 33 381.438 C35.501 388.774 40.222 394.421 45 400.438 C45.58 401.175 46.16 401.912 46.758 402.672 C59.601 418.183 79.188 429.85 99 433.438 C103.988 433.843 108.936 433.864 113.938 433.812 C114.61 433.81 115.283 433.808 115.976 433.805 C125.569 433.767 134.953 433.171 144.404 431.417 C149.651 430.461 153.725 430.563 159 431.438 C161.64 431.767 164.28 432.098 167 432.438 C173.93 418.577 180.86 404.717 188 390.438 C184.04 390.108 180.08 389.777 176 389.438 C172.079 388.98 168.165 388.507 164.25 388 C155.951 386.906 155.951 386.906 147.629 386.008 C131.351 384.375 116.044 379.141 100.927 373.066 C96.61 371.344 92.661 369.96 88 369.438 C91.233 373.247 94.637 375.482 99 377.938 C107.198 382.597 107.198 382.597 110 386.438 C109.872 388.748 109.634 389.804 108 391.438 C82.885 391.039 57.091 374.695 40 357.438 C9.104 324.18 -0.51 275.782 -2.262 231.852 C-1.989 228.294 -1.491 226.928 1 224.438 C-5.152 210.459 -5.152 210.459 -17.023 201.422 C-21.825 198.953 -21.825 198.953 -23 195.5 C-23 192.438 -23 192.438 -22.375 189.75 C-22.189 188.605 -22.189 188.605 -22 187.438 C-22.486 186.999 -22.972 186.561 -23.473 186.109 C-25 184.438 -25 184.438 -25.223 182.027 C-25.17 181.152 -25.117 180.277 -25.062 179.375 C-24.871 176.779 -24.871 176.779 -25 174.438 C-25.66 173.778 -26.32 173.118 -27 172.438 C-27.125 169.5 -27.125 169.5 -27 166.438 C-26.838 163.492 -26.838 163.492 -27.812 161.062 C-28 158.438 -28 158.438 -25.688 155.688 C-23 153.438 -23 153.438 -21 152.438 C-21.142 151 -21.289 149.562 -21.438 148.125 C-21.519 147.324 -21.6 146.524 -21.684 145.699 C-21.953 143.277 -21.953 143.277 -23 140.438 C-24.102 140.715 -25.204 140.992 -26.34 141.277 C-49.731 146.952 -72.654 147.256 -94.312 135.125 C-115.732 121.792 -128.35 103.669 -134.742 79.648 C-139.317 58.903 -134.613 36.803 -123.812 18.75 C-110.647 -0.737 -91.944 -13.58 -69 -18.562 C-43.489 -22.927 -20.191 -15.851 0 0 Z M-114.316 10.84 C-120.577 18.203 -127.682 28.69 -129 38.438 C-128.01 38.438 -127.02 38.438 -126 38.438 C-125.273 36.879 -125.273 36.879 -124.531 35.289 C-120.508 26.844 -116.374 19.383 -110 12.438 C-109.325 11.671 -108.649 10.904 -107.953 10.113 C-94.125 -4.749 -74.852 -11.351 -55.012 -12.777 C-49.628 -12.853 -44.334 -12.251 -39 -11.562 C-39 -12.882 -39 -14.202 -39 -15.562 C-67.588 -20.76 -94.611 -9.597 -114.316 10.84 Z M-99 10.438 C-99.969 11.139 -100.939 11.84 -101.938 12.562 C-114.919 23.709 -122.776 41.772 -124.176 58.543 C-125.357 77.641 -120.648 95.611 -108.071 110.344 C-96.227 123.448 -79.788 133.617 -61.773 134.553 C-56.843 134.678 -51.928 134.597 -47 134.438 C-44.943 130.324 -45.595 125.146 -45.5 120.625 C-45.419 118.984 -45.419 118.984 -45.336 117.311 C-44.999 111.627 -44.999 111.627 -47.488 106.842 C-48.725 106.065 -49.983 105.321 -51.26 104.613 C-53.935 102.806 -54.637 100.719 -55.565 97.703 C-56.382 93.448 -56.31 89.253 -56.188 84.938 C-56.167 83.561 -56.167 83.561 -56.146 82.156 C-56.111 79.916 -56.062 77.677 -56 75.438 C-56.728 76.175 -57.457 76.912 -58.207 77.672 C-60.646 80.087 -63.124 82.407 -65.688 84.688 C-66.454 85.373 -67.221 86.059 -68.012 86.766 C-71.379 89.597 -73.629 89.794 -78 89.438 C-80.293 87.935 -80.887 86.708 -81.938 84.188 C-82.029 80.18 -80.288 77.639 -78 74.438 C-77.018 73.42 -76.025 72.412 -75 71.438 C-75 70.778 -75 70.118 -75 69.438 C-75.831 69.074 -75.831 69.074 -76.68 68.703 C-77.766 68.2 -77.766 68.2 -78.875 67.688 C-79.594 67.363 -80.314 67.038 -81.055 66.703 C-83.412 65.169 -84.103 64.088 -85 61.438 C-84.97 58.685 -84.455 56.166 -84 53.438 C-78.671 51.737 -73.569 50.917 -68 50.438 C-68.375 50.025 -68.75 49.613 -69.137 49.188 C-78.74 38.351 -78.74 38.351 -79.312 31.938 C-79.209 31.113 -79.106 30.287 -79 29.438 C-73.719 29.953 -70.428 31.692 -66 34.438 C-65.67 32.127 -65.34 29.817 -65 27.438 C-60.865 28.233 -58.57 28.788 -55.75 32 C-53.693 36.04 -52.274 40.096 -51 44.438 C-50.67 44.438 -50.34 44.438 -50 44.438 C-49.955 43.868 -49.91 43.299 -49.864 42.713 C-49.651 40.099 -49.419 37.487 -49.188 34.875 C-49.082 33.532 -49.082 33.532 -48.975 32.162 C-48.473 26.68 -47.629 22.306 -45 17.438 C-42.562 16.25 -42.562 16.25 -40 16.438 C-37.171 18.638 -36.14 20.019 -35 23.438 C-34.799 28.555 -35.291 33.385 -36 38.438 C-35.01 37.355 -35.01 37.355 -34 36.25 C-28.937 31.23 -23.328 27.438 -16 27.438 C-13.062 28.438 -13.062 28.438 -11 30.438 C-10.301 34.556 -10.664 36.779 -12.562 40.5 C-15.032 43.476 -17.601 45.83 -20.609 48.238 C-21.068 48.634 -21.527 49.03 -22 49.438 C-22 49.767 -22 50.097 -22 50.438 C-20.623 50.584 -20.623 50.584 -19.219 50.734 C-3.828 52.61 -3.828 52.61 1 57.438 C1.141 60.108 1.042 62.762 1 65.438 C-8.41 68.697 -8.41 68.697 -13 69.438 C-13 70.097 -13 70.757 -13 71.438 C-12.237 72.139 -11.474 72.84 -10.688 73.562 C-7.179 77.316 -4.934 81.241 -5.043 86.508 C-5.312 88.438 -5.312 88.438 -6 91.438 C-12.553 93.622 -18.492 92.861 -24.648 89.859 C-29.107 87.163 -33.057 83.829 -37 80.438 C-38.416 83.269 -37.489 84.641 -36.562 87.625 C-34.706 94.148 -33.739 100.199 -37 106.438 C-39.31 107.428 -41.62 108.418 -44 109.438 C-44 117.358 -44 125.278 -44 133.438 C-27.042 131.553 -11.907 123.047 -0.875 109.906 C11.216 93.968 17.665 75.671 15.461 55.539 C12.548 35.937 2.868 18.547 -13 6.438 C-39.592 -12.196 -74.327 -10.459 -99 10.438 Z M-1 12.438 C0.327 16.13 1.972 18.985 4.312 22.125 C15.964 38.563 19.265 56.8 16.719 76.628 C13.692 94.141 3.482 111.491 -10.688 122.25 C-12.327 123.333 -12.327 123.333 -14 124.438 C-13.67 125.097 -13.34 125.757 -13 126.438 C-4.768 124.981 2.161 115.761 7 109.438 C19.422 90.793 24.152 69.317 20.387 47.051 C17.528 35.2 11.075 20.915 2 12.438 C1.01 12.438 0.02 12.438 -1 12.438 Z M-43 18.438 C-46.988 25.72 -47.142 32.209 -47.062 40.312 C-47.058 41.192 -47.053 42.071 -47.049 42.977 C-47.037 45.13 -47.019 47.284 -47 49.438 C-46.34 49.767 -45.68 50.097 -45 50.438 C-44.867 49.378 -44.734 48.318 -44.598 47.227 C-44.419 45.839 -44.241 44.45 -44.062 43.062 C-43.975 42.364 -43.888 41.665 -43.799 40.945 C-43.113 35.664 -43.113 35.664 -42 33.438 C-42 36.738 -42 40.037 -42 43.438 C-39.785 42.61 -39.785 42.61 -39.148 40.25 C-36.154 29.973 -36.154 29.973 -38.312 19.875 C-40.011 18.113 -40.011 18.113 -43 18.438 Z M-31.625 36.562 C-35.336 40.495 -41 46.813 -41 52.438 C-37.596 51.303 -36.757 50.265 -34.5 47.562 C-28.703 40.672 -28.703 40.672 -25 39.438 C-28.363 43.358 -31.717 47.225 -35.438 50.812 C-38.233 53.065 -38.233 53.065 -38 55.438 C-28.323 52.524 -18.073 46.306 -12.793 37.402 C-11.736 34.783 -12.258 33.108 -13 30.438 C-20.848 28.475 -25.827 31.174 -31.625 36.562 Z M-63 30.438 C-64.392 34.613 -62.823 36.572 -61 40.438 C-60.34 39.778 -59.68 39.118 -59 38.438 C-57.35 40.088 -55.7 41.738 -54 43.438 C-54.475 38.455 -55.834 35.327 -59 31.438 C-61.121 30.485 -61.121 30.485 -63 30.438 Z M-77 32.438 C-75.826 40.931 -68.228 46.321 -62.211 51.871 C-59.769 53.601 -57.944 54.071 -55 54.438 C-55.475 50.118 -58.266 47.574 -61.125 44.562 C-61.621 44.032 -62.118 43.502 -62.629 42.956 C-66.217 39.165 -69.815 35.576 -74 32.438 C-74.99 32.438 -75.98 32.438 -77 32.438 Z M-54 43.438 C-53 45.438 -53 45.438 -53 45.438 Z M-83 56.438 C-83.75 59.394 -83.75 59.394 -83 62.438 C-80.768 65.285 -79.45 66.287 -76 67.438 C-73.732 67.559 -71.459 67.613 -69.188 67.625 C-67.383 67.646 -67.383 67.646 -65.543 67.668 C-62.019 67.439 -59.279 66.708 -56 65.438 C-56.33 64.118 -56.66 62.798 -57 61.438 C-60.714 60.321 -64.392 60.125 -68.25 59.875 C-70.477 59.731 -72.705 59.586 -75 59.438 C-66.585 58.942 -66.585 58.942 -58 58.438 C-62.469 53.968 -66.394 53.308 -72.562 53.125 C-78.35 53.245 -78.35 53.245 -83 56.438 Z M-54 58.438 C-54.071 61.982 -53.654 63.658 -51.375 66.375 C-47.925 67.919 -45.6 67.371 -42 66.438 C-39.673 62.946 -39.497 61.545 -40 57.438 C-41.955 54.686 -43.141 53.636 -46.438 52.875 C-50.235 53.709 -51.717 55.349 -54 58.438 Z M-32 56.438 C-32 56.767 -32 57.097 -32 57.438 C-25.627 58.183 -19.417 58.541 -13 58.438 C-13 59.428 -13 60.418 -13 61.438 C-13.797 61.274 -14.593 61.11 -15.414 60.941 C-19.768 60.33 -23.986 60.33 -28.375 60.375 C-29.622 60.382 -29.622 60.382 -30.895 60.389 C-32.93 60.4 -34.965 60.418 -37 60.438 C-37 61.428 -37 62.418 -37 63.438 C-26.006 67.797 -15.496 68.796 -4 65.438 C-1.341 63.544 -1.341 63.544 0 61.438 C-1.11 58.505 -2.213 56.817 -5.074 55.438 C-14.624 52.319 -22.737 52.679 -32 56.438 Z M-39 65.438 C-38.67 66.097 -38.34 66.757 -38 67.438 C-37.34 67.108 -36.68 66.778 -36 66.438 C-36.99 66.108 -37.98 65.778 -39 65.438 Z M-40 67.438 C-40.99 67.933 -40.99 67.933 -42 68.438 C-39.429 77.579 -30.84 83.882 -23 88.438 C-18.526 90.595 -15.427 91.743 -10.5 90.688 C-8.119 89.661 -8.119 89.661 -7 88.438 C-6.513 83.118 -7.855 78.822 -10.938 74.5 C-16.931 68.164 -25.812 68.709 -34 68.438 C-30.734 71.135 -27.446 73.511 -23.812 75.688 C-22.953 76.208 -22.093 76.729 -21.207 77.266 C-19.122 78.594 -19.122 78.594 -17 78.438 C-17 79.428 -17 80.418 -17 81.438 C-17.519 81.12 -18.038 80.802 -18.573 80.475 C-20.944 79.025 -23.316 77.575 -25.688 76.125 C-26.912 75.376 -26.912 75.376 -28.162 74.611 C-29.742 73.645 -31.324 72.681 -32.908 71.72 C-34.607 70.679 -36.285 69.604 -37.957 68.52 C-38.631 68.162 -39.305 67.805 -40 67.438 Z M-55 67.438 C-61.93 73.377 -61.93 73.377 -69 79.438 C-69.33 79.108 -69.66 78.778 -70 78.438 C-69.278 77.872 -68.556 77.306 -67.812 76.723 C-66.884 75.989 -65.956 75.256 -65 74.5 C-64.072 73.769 -63.144 73.038 -62.188 72.285 C-61.466 71.675 -60.744 71.066 -60 70.438 C-60 70.108 -60 69.778 -60 69.438 C-67.27 69.6 -67.27 69.6 -73.938 72.125 C-78.32 77.035 -78.32 77.035 -80.5 83.125 C-80.168 85.559 -80.168 85.559 -78.312 87.375 C-76.054 88.71 -76.054 88.71 -73.73 87.832 C-70.335 86.098 -67.744 83.785 -65 81.188 C-64.492 80.722 -63.984 80.257 -63.461 79.777 C-59.995 76.551 -56.968 73.126 -54 69.438 C-54.33 68.778 -54.66 68.118 -55 67.438 Z M-52 70.438 C-56.186 78.634 -56.675 89.339 -54.238 98.211 C-52.569 101.76 -50.6 104.792 -47 106.438 C-42.397 106.925 -42.397 106.925 -38.125 105.438 C-34.679 99.312 -36.143 93.114 -37.898 86.691 C-39.804 81.061 -42.352 75.751 -45 70.438 C-45.33 70.438 -45.66 70.438 -46 70.438 C-45.67 77.697 -45.34 84.957 -45 92.438 C-45.99 85.178 -46.98 77.918 -48 70.438 C-49.32 70.438 -50.64 70.438 -52 70.438 Z M292 75.438 C291.183 77.186 290.372 78.936 289.562 80.688 C288.884 82.149 288.884 82.149 288.191 83.641 C286.399 87.849 285.877 91.116 285.938 95.688 C285.947 96.58 285.956 97.472 285.965 98.391 C285.976 99.066 285.988 99.742 286 100.438 C287.96 97.498 288.347 96.234 288.875 92.875 C289.744 88.103 291.27 83.909 293.195 79.469 C294.123 77.492 294.123 77.492 294 75.438 C293.34 75.438 292.68 75.438 292 75.438 Z M274 79.438 C265.523 83.69 258.177 88.176 251 94.438 C250.109 95.195 249.219 95.953 248.301 96.734 C243.74 100.702 240.252 104.309 237 109.438 C236.191 110.647 235.378 111.854 234.562 113.059 C233.708 114.331 232.854 115.603 232 116.875 C231.575 117.505 231.149 118.134 230.711 118.783 C227.947 122.907 225.417 127.101 223 131.438 C222.484 131.273 221.969 131.108 221.438 130.938 C215.863 129.794 211.267 130.382 206 132.438 C206.168 134.852 206.168 134.852 207 137.438 C208.905 139.078 208.905 139.078 211.312 140.188 C212.092 140.595 212.872 141.002 213.676 141.422 C215.787 142.344 217.751 142.964 220 143.438 C220 144.097 220 144.757 220 145.438 C217.69 145.108 215.38 144.778 213 144.438 C207.966 157.503 203.925 168.973 203.625 183.062 C203.599 183.863 203.572 184.664 203.545 185.488 C203.527 192.359 205.468 197.313 209.789 202.645 C220.157 211.711 233.857 212.174 247.061 211.301 C258.972 210.383 270.409 208.29 282 205.438 C281.926 207.629 281.926 207.629 281 210.438 C278.743 212.319 276.657 213.832 274.188 215.375 C273.518 215.815 272.848 216.256 272.158 216.709 C267.954 219.415 263.768 221.43 259.125 223.312 C256.198 224.519 256.198 224.519 254 226.438 C252.707 230.517 252.643 234.196 253 238.438 C265.223 245.131 278.912 242.964 291.797 239.41 C294.858 238.579 294.858 238.579 297 237.438 C297.658 234.727 297.658 234.727 298.078 231.41 C298.266 230.151 298.454 228.892 298.648 227.595 C298.794 226.592 298.794 226.592 298.944 225.568 C301.53 208.104 305.125 192.337 315 177.438 C316.083 178.582 316.083 178.582 317.188 179.75 C321.144 183.53 323.854 185.594 329.375 185.875 C335.865 185.617 339.906 182.851 344.25 178.188 C349.755 171.24 350.931 164.182 350 155.438 C348.782 149.865 346.588 145.983 342 142.438 C337.879 140.571 335.123 140.1 330.875 141.5 C325.152 144.008 321.741 148.588 318 153.438 C315.291 152.835 313.512 152.091 311.777 149.875 C308.72 144.439 308.548 139.567 309 133.438 C309.626 133.726 310.253 134.015 310.898 134.312 C312.124 134.869 312.124 134.869 313.375 135.438 C314.187 135.809 314.999 136.18 315.836 136.562 C317.92 137.562 317.92 137.562 320 137.438 C319.305 134.281 319.305 134.281 316.672 133.008 C315.226 132.292 315.226 132.292 313.75 131.562 C305.911 127.445 300.644 122.287 297.75 113.75 C295.796 104.493 297.181 96.333 300 87.438 C300.4 86.043 300.797 84.647 301.188 83.25 C301.456 82.322 301.724 81.394 302 80.438 C295.944 85.756 294.46 93.224 293.609 101.016 C293.311 110.688 294.899 119.1 301.25 126.625 C302.611 128.017 302.611 128.017 304 129.438 C292.357 129.826 280.562 126.092 271 119.438 C266.358 114.575 265.597 111.222 265.648 104.652 C266.445 97.368 269.655 90.506 273.375 84.25 C273.911 83.322 274.447 82.394 275 81.438 C274.505 80.447 274.505 80.447 274 79.438 Z M-17 147.438 C-17 148.097 -17 148.757 -17 149.438 C-12.686 148.958 -10.834 147.692 -8 144.438 C-11.694 144.438 -13.778 145.719 -17 147.438 Z M-3.898 147.301 C-4.625 147.693 -5.352 148.086 -6.102 148.49 C-6.852 148.906 -7.602 149.322 -8.375 149.75 C-9.862 150.559 -11.349 151.368 -12.836 152.176 C-13.544 152.565 -14.252 152.954 -14.981 153.355 C-16.779 154.319 -18.614 155.212 -20.453 156.094 C-23.246 157.567 -23.986 158.498 -25 161.438 C-21.466 160.859 -18.685 159.944 -15.531 158.258 C-14.713 157.823 -13.894 157.389 -13.051 156.941 C-12.209 156.486 -11.367 156.031 -10.5 155.562 C-9.658 155.115 -8.816 154.668 -7.949 154.207 C-5.624 152.966 -3.31 151.707 -1 150.438 C0.021 149.878 1.042 149.319 2.094 148.742 C2.723 148.312 3.352 147.881 4 147.438 C4 146.778 4 146.118 4 145.438 C0.179 145.438 -0.767 145.584 -3.898 147.301 Z M1.527 151.578 C0.62 152.063 0.62 152.063 -0.306 152.558 C-1.58 153.243 -2.851 153.932 -4.12 154.626 C-6.053 155.682 -7.995 156.719 -9.939 157.754 C-17.655 161.684 -17.655 161.684 -24 167.438 C-23.86 170.145 -23.86 170.145 -23 172.438 C-20.125 173.777 -20.125 173.777 -17.979 172.497 C-17.224 172.008 -16.469 171.519 -15.691 171.016 C-14.862 170.485 -14.032 169.953 -13.178 169.406 C-11.883 168.555 -11.883 168.555 -10.562 167.688 C-9.703 167.136 -8.844 166.584 -7.959 166.016 C-5.625 164.509 -3.3 162.996 -1 161.438 C-0.248 160.964 0.503 160.491 1.278 160.003 C1.846 159.486 2.414 158.97 3 158.438 C3 157.118 3 155.798 3 154.438 C3.99 154.438 4.98 154.438 6 154.438 C6 155.097 6 155.757 6 156.438 C9.375 155.252 11.647 154.162 14 151.438 C13.505 149.952 13.505 149.952 13 148.438 C8.357 148.003 5.585 149.396 1.527 151.578 Z M6.812 159.312 C5.225 160.262 5.225 160.262 3.605 161.23 C-2.36 164.869 -8.313 168.533 -14.2 172.297 C-15.387 173.049 -16.586 173.782 -17.796 174.496 C-19.651 175.586 -19.651 175.586 -22 177.438 C-22.501 181.106 -22.501 181.106 -22 184.438 C-17.831 184.762 -15.748 184.017 -12.305 181.691 C-10.99 180.812 -10.99 180.812 -9.649 179.916 C-8.734 179.284 -7.818 178.651 -6.875 178 C-5.94 177.362 -5.004 176.724 -4.04 176.067 C6.15 169.521 6.15 169.521 15 161.438 C15.351 158.772 15.351 158.772 15 156.438 C11.333 156.438 9.946 157.437 6.812 159.312 Z M18 159.438 C16.989 162.487 16.989 162.487 18 165.438 C17.991 167.974 17.869 170.494 17.742 173.027 C17.803 175.472 17.803 175.472 19.277 177.211 C21.963 179.123 24.781 179.134 28 179.438 C28 180.428 28 181.418 28 182.438 C25.69 182.108 23.38 181.778 21 181.438 C22.549 186.295 24.228 190.969 26.312 195.625 C27.527 198.706 28.004 200.327 27.875 203.688 C24.09 209.238 17.24 212.28 11 214.438 C8.324 214.852 8.324 214.852 5.688 215.062 C4.804 215.137 3.921 215.212 3.012 215.289 C2.348 215.338 1.684 215.387 1 215.438 C2.269 220.262 2.269 220.262 6 223.438 C9.806 221.414 13.611 219.388 17.414 217.358 C18.703 216.671 19.992 215.984 21.283 215.299 C28.978 211.209 36.586 207.026 44 202.438 C43.391 199.011 42.523 195.912 41.258 192.672 C40.914 191.781 40.569 190.89 40.215 189.973 C39.675 188.594 39.675 188.594 39.125 187.188 C38.417 185.371 37.712 183.553 37.008 181.734 C36.663 180.85 36.319 179.966 35.964 179.055 C35.042 176.552 34.274 174.037 33.516 171.48 C32.304 167.78 31.093 165.995 27.625 164 C26.875 163.548 26.125 163.095 25.352 162.629 C22.947 161.411 20.519 160.394 18 159.438 Z M10.25 168.625 C3.769 174.272 -3.47 178.533 -10.964 182.706 C-16.578 185.822 -16.578 185.822 -19.742 191.145 C-20.352 194.579 -20.352 194.579 -18 197.438 C-12.29 196.927 -8.041 194.683 -3.125 191.938 C-2.326 191.492 -1.527 191.046 -0.703 190.587 C6.949 186.155 13.172 181.084 16 172.438 C16.238 170.229 16.238 170.229 16.125 168.125 C16.084 166.908 16.043 165.691 16 164.438 C13.925 164.438 11.654 167.378 10.25 168.625 Z M4 190.438 C1.779 191.358 1.779 191.358 -0.562 192.75 C-1.771 193.425 -1.771 193.425 -3.004 194.113 C-5.132 195.286 -5.132 195.286 -6 197.438 C-0.371 197.035 2.004 195.148 6 191.438 C5.34 191.107 4.68 190.778 4 190.438 Z M18.375 197 C12.005 201.326 5.011 204.315 -2 207.438 C-1.689 209.401 -1.689 209.401 -1 211.438 C3.384 213.849 6.892 213.558 11.551 212.332 C16.827 210.405 22.584 208.012 25.371 202.945 C26.311 200.256 26.311 200.256 24.625 197.125 C24.089 196.238 23.553 195.351 23 194.438 C21.194 194.438 19.795 195.981 18.375 197 Z M-13 198.438 C-13 199.097 -13 199.757 -13 200.438 C-10.661 202.191 -10.661 202.191 -8 203.438 C-7.34 203.107 -6.68 202.778 -6 202.438 C-6.495 199.962 -6.495 199.962 -7 197.438 C-10.053 197.279 -10.053 197.279 -13 198.438 Z M53.172 217.844 C52.027 218.534 50.886 219.233 49.75 219.938 C39.565 225.982 29.071 230.835 17.938 234.875 C17.235 235.134 16.533 235.394 15.809 235.661 C11.752 237.079 8.295 237.893 4 237.438 C3.01 236.777 2.02 236.118 1 235.438 C4.723 278.456 12.454 321.167 42 354.438 C42.746 355.279 43.493 356.121 44.262 356.988 C59.886 373.594 83.497 385.154 106 388.438 C104.871 385.051 104.43 384.8 101.508 383.062 C100.803 382.635 100.098 382.207 99.371 381.766 C98.63 381.327 97.889 380.889 97.125 380.438 C95.667 379.566 94.211 378.691 92.758 377.812 C92.11 377.428 91.461 377.044 90.793 376.648 C88.924 375.386 87.452 374.166 86 372.438 C85.812 369.75 85.812 369.75 86 367.438 C94.226 366.786 100.242 369.075 107.812 372.125 C124.448 378.534 140.099 383.162 158 383.438 C159.583 376.433 160.526 369.429 161.342 362.298 C165.5 326.077 183.891 297.32 207.688 270.188 C210.215 267.781 210.215 267.781 210 265.438 C210.66 265.767 211.32 266.097 212 266.438 C211.665 266.877 211.33 267.316 210.985 267.769 C189.827 295.659 168.592 324.05 164 359.438 C163.793 360.935 163.584 362.432 163.375 363.93 C162.49 370.473 161.792 376.83 162 383.438 C163.687 385.124 165.937 385.029 168.242 385.41 C169.308 385.587 170.374 385.765 171.473 385.947 C172.595 386.13 173.718 386.312 174.875 386.5 C175.99 386.686 177.105 386.873 178.254 387.064 C184.098 388.076 184.098 388.076 190 388.438 C190.66 387.447 191.32 386.457 192 385.438 C198.265 384.884 204.023 386.015 210.125 387.375 C211.584 387.695 211.584 387.695 213.073 388.021 C224.367 390.599 235.404 394.028 246.465 397.449 C251.283 398.937 256.091 400.288 261 401.438 C261.678 396.944 262.319 392.446 262.929 387.943 C263.14 386.416 263.361 384.89 263.593 383.366 C265.052 373.697 265.218 366.514 261 357.438 C257.977 346.819 258.121 336.055 261 325.438 C261.99 325.767 262.98 326.097 264 326.438 C263.856 327.237 263.711 328.036 263.562 328.859 C261.612 340.403 260.871 350.327 265 361.438 C266.674 358.386 267.581 355.499 268.367 352.113 C268.737 350.569 268.737 350.569 269.113 348.994 C269.616 346.852 270.116 344.708 270.613 342.564 C274.176 327.732 274.176 327.732 278.875 322.25 C281 321.438 281 321.438 284.125 321.875 C287 323.438 287 323.438 288.375 326.438 C289 329.438 289 329.438 289 331.438 C285.264 330.192 284.812 328.803 283 325.438 C272.709 334.617 271.565 351.51 269.25 364.5 C268.945 366.164 268.639 367.827 268.332 369.49 C267.54 373.803 266.761 378.119 266 382.438 C265.807 383.529 265.614 384.621 265.415 385.746 C264.943 388.805 264.903 391.719 264.938 394.812 C264.951 396.402 264.951 396.402 264.965 398.023 C264.976 398.82 264.988 399.617 265 400.438 C265.906 400.717 266.812 400.997 267.746 401.285 C284.616 406.837 284.616 406.837 289.211 414.441 C290.062 416.375 290.062 416.375 291 419.438 C288.262 419.355 286.505 418.936 284.531 416.988 C284.005 416.394 283.479 415.8 282.938 415.188 C274.587 406.414 259.632 403.946 248.312 400.5 C247.457 400.238 246.602 399.976 245.721 399.706 C235.023 396.436 224.315 393.311 213.438 390.688 C212.447 390.448 211.457 390.208 210.437 389.961 C205.874 388.912 201.717 388.155 197 388.438 C196.89 389.632 196.781 390.827 196.668 392.059 C195.223 407.014 192.747 415.362 182.6 426.657 C180.359 429.151 178.143 431.665 175.941 434.193 C174.872 435.421 173.794 436.642 172.709 437.856 C169.671 441.145 169.671 441.145 169 445.438 C171.067 447.076 173.081 448.49 175.297 449.902 C176.281 450.547 176.281 450.547 177.286 451.204 C179.434 452.606 181.591 453.991 183.75 455.375 C185.227 456.332 186.705 457.289 188.181 458.247 C198.974 465.225 209.848 472.046 221 478.438 C221.63 478.806 222.259 479.174 222.908 479.554 C252.287 496.662 284.151 504.709 317.562 496.812 C329.977 493.247 341.571 487.336 351 478.438 C351.829 477.661 352.658 476.885 353.512 476.086 C363.948 465.505 370.643 451.851 374 437.438 C374.296 436.239 374.593 435.04 374.898 433.805 C379.224 414.499 378.146 393.675 374 374.438 C373.6 372.519 373.6 372.519 373.191 370.562 C364.748 333.939 347.691 299.019 326 268.438 C325.334 267.492 325.334 267.492 324.655 266.527 C320.838 261.114 316.997 255.72 313 250.438 C309.251 251.025 307.322 252.656 304.5 255.125 C292.6 264.942 281.05 267.705 266 266.438 C256.221 264.533 245.585 260.684 239.152 252.684 C236.741 247.984 236.453 242.635 236 237.438 C228.401 239.399 221.003 241.703 213.625 244.375 C212.556 244.762 211.486 245.149 210.384 245.548 C183.005 255.591 156.415 267.691 129.938 279.875 C128.885 280.359 127.833 280.843 126.749 281.342 C120.441 284.261 114.197 287.289 108 290.438 C108.021 291.093 108.041 291.748 108.062 292.423 C108.235 298.853 107.823 305.236 106 311.438 C105.01 311.933 105.01 311.933 104 312.438 C104.168 311.447 104.335 310.457 104.508 309.438 C105.627 302.36 106.531 296.327 104 289.438 C103.34 289.438 102.68 289.438 102 289.438 C101.518 290.413 101.036 291.389 100.539 292.395 C99.901 293.68 99.263 294.965 98.625 296.25 C98.308 296.893 97.991 297.535 97.664 298.197 C96.235 301.069 94.782 303.764 93 306.438 C93.553 301.856 94.789 298.447 96.938 294.375 C97.971 292.402 98.992 290.423 100 288.438 C100.478 287.658 100.956 286.878 101.449 286.074 C102.35 281.761 100.068 278.955 97.875 275.312 C97.191 274.134 97.191 274.134 96.494 272.932 C95.021 270.418 93.517 267.925 92 265.438 C91.511 264.633 91.021 263.829 90.517 263 C74.341 233.891 74.341 233.891 53.172 217.844 Z " fill="#000000" transform="translate(295,200.5625)"/>
<path d="M0 0 C7.055 0.946 12.009 5.717 16.562 10.938 C17.037 11.618 17.511 12.299 18 13 C13.497 13 13.19 12.68 10.125 9.75 C7.678 7.482 5.332 5.453 2.5 3.688 C1.675 3.131 0.85 2.574 0 2 C0 1.34 0 0.68 0 0 Z " fill="#000000" transform="translate(646,253)"/>
<path d="M0 0 C2.17 2.029 3.693 3.959 5.129 6.555 C5.52 7.246 5.911 7.938 6.313 8.65 C6.932 9.751 6.932 9.751 7.562 10.875 C11.251 17.345 15.233 23.283 20.039 28.976 C21.262 30.461 21.262 30.461 23 33 C22.67 33.99 22.34 34.98 22 36 C14.977 28.931 10.068 20.502 5 12 C4.134 10.55 4.134 10.55 3.25 9.07 C0 3.438 0 3.438 0 0 Z " fill="#000000" transform="translate(453,310)"/>
<path d="M0 0 C4.767 3.616 5.782 8.393 7 14 C7.516 18.555 7.726 23.11 7.938 27.688 C8.812 42.392 11.277 54.746 18 68 C16.68 68 15.36 68 14 68 C6.305 52.56 3.937 38.487 3.57 21.461 C3.377 16.263 2.556 11.886 0.732 7.008 C0.004 5.011 -0.604 3.089 -1 1 C-0.67 0.67 -0.34 0.34 0 0 Z " fill="#000000" transform="translate(692,315)"/>
<path d="M0 0 C1.938 0.688 1.938 0.688 2.938 2.688 C3.308 7.601 3.206 10.855 -0.062 14.688 C-2.625 15.625 -2.625 15.625 -5.062 15.688 C-7.062 13.688 -7.062 13.688 -7.375 10.438 C-7.041 6.435 -6.163 4.081 -4.062 0.688 C-2.062 -0.312 -2.062 -0.312 0 0 Z " fill="#000000" transform="translate(550.0625,321.3125)"/>
<path d="M0 0 C0.33 0 0.66 0 1 0 C1.286 7.429 1.286 7.429 -1 11 C0.65 11.99 2.3 12.98 4 14 C3.718 17.384 3.287 18.721 0.812 21.125 C-6.5 26 -6.5 26 -11 26 C-11 25.34 -11 24.68 -11 24 C-9.844 23.42 -9.844 23.42 -8.664 22.828 C-7.661 22.307 -6.658 21.787 -5.625 21.25 C-4.627 20.74 -3.63 20.229 -2.602 19.703 C0.066 17.957 0.937 16.947 2 14 C-1.354 14.949 -4.692 15.897 -8 17 C-7.397 13.613 -6.173 11.701 -4 9.062 C-1.665 6.073 -0.244 3.897 0 0 Z " fill="#000000" transform="translate(409,330)"/>
<path d="M0 0 C1 2 1 2 0.223 4.383 C-0.16 5.288 -0.543 6.193 -0.938 7.125 C-1.318 8.035 -1.698 8.945 -2.09 9.883 C-2.39 10.581 -2.691 11.28 -3 12 C-3.66 12 -4.32 12 -5 12 C-5.254 11.434 -5.508 10.868 -5.77 10.285 C-6.286 9.185 -6.286 9.185 -6.812 8.062 C-7.149 7.332 -7.485 6.601 -7.832 5.848 C-8.936 3.67 -8.936 3.67 -12 3 C-12.33 3.99 -12.66 4.98 -13 6 C-12.67 4.35 -12.34 2.7 -12 1 C-9.688 1.188 -9.688 1.188 -7 2 C-5.188 4.562 -5.188 4.562 -4 7 C-2.68 4.69 -1.36 2.38 0 0 Z " fill="#000000" transform="translate(401,334)"/>
<path d="M0 0 C-3.709 4.111 -8.649 6.171 -13.5 8.688 C-14.463 9.199 -15.426 9.71 -16.418 10.236 C-17.804 10.96 -17.804 10.96 -19.219 11.699 C-20.486 12.362 -20.486 12.362 -21.779 13.038 C-24 14 -24 14 -27 14 C-27 13.01 -27 12.02 -27 11 C-23.071 8.963 -19.13 6.948 -15.188 4.938 C-13.508 4.066 -13.508 4.066 -11.795 3.178 C-10.722 2.633 -9.649 2.088 -8.543 1.527 C-7.553 1.019 -6.563 0.511 -5.544 -0.012 C-3 -1 -3 -1 0 0 Z " fill="#000000" transform="translate(570,347)"/>
<path d="M0 0 C0.557 0.268 1.114 0.536 1.688 0.812 C0.69 3.806 -0.065 4.76 -2.312 6.812 C-0.992 7.142 0.327 7.473 1.688 7.812 C2.264 11.685 2.288 13.771 0.305 17.211 C-2.89 21.485 -5.133 24.122 -10.312 25.812 C-9.585 21.286 -6.974 19.031 -3.906 15.812 C-2.266 13.754 -1.725 12.382 -1.312 9.812 C-2.303 9.812 -3.293 9.812 -4.312 9.812 C-4.56 10.431 -4.808 11.05 -5.062 11.688 C-6.519 14.163 -7.691 14.764 -10.312 15.812 C-11.062 14.25 -11.062 14.25 -11.312 11.812 C-5.517 -0.447 -5.517 -0.447 0 0 Z " fill="#000000" transform="translate(626.3125,352.1875)"/>
<path d="M0 0 C0 0.99 0 1.98 0 3 C-3.479 4.885 -6.966 6.754 -10.461 8.609 C-12.233 9.553 -13.997 10.51 -15.762 11.467 C-16.877 12.057 -17.992 12.646 -19.141 13.254 C-20.167 13.804 -21.193 14.354 -22.251 14.92 C-25.131 16.051 -26.19 16.155 -29 15 C-26.527 12.186 -23.863 10.745 -20.527 9.082 C-19.463 8.55 -18.399 8.019 -17.303 7.471 C-16.192 6.923 -15.082 6.376 -13.938 5.812 C-12.823 5.254 -11.709 4.695 -10.561 4.119 C-2.267 0 -2.267 0 0 0 Z " fill="#000000" transform="translate(573,353)"/>
<path d="M0 0 C1 2 1 2 0.196 4.522 C-0.229 5.559 -0.653 6.596 -1.09 7.664 C-1.544 8.786 -1.999 9.907 -2.467 11.062 C-2.952 12.238 -3.437 13.414 -3.938 14.625 C-4.419 15.808 -4.9 16.992 -5.396 18.211 C-6.591 21.144 -7.792 24.073 -9 27 C-9.66 26.67 -10.32 26.34 -11 26 C-11.483 16.114 -10.028 9.902 -3.402 2.383 C-2 1 -2 1 0 0 Z " fill="#000000" transform="translate(166,355)"/>
<path d="M0 0 C0.66 0 1.32 0 2 0 C2.754 8.29 0.206 16.821 -5.125 23.25 C-8 26 -8 26 -10 26 C-7.249 17.099 -3.597 8.584 0 0 Z " fill="#000000" transform="translate(168,357)"/>
<path d="M0 0 C0 0.99 0 1.98 0 3 C-2.5 4.688 -2.5 4.688 -5 6 C-5 3 -5 3 -3.625 1.312 C-2 0 -2 0 0 0 Z " fill="#000000" transform="translate(306,361)"/>
<path d="M0 0 C4.742 1.557 8.602 3.283 12 7 C3.153 5.602 -5.384 3.395 -14 1 C-9.42 -2.054 -5.261 -0.982 0 0 Z " fill="#000000" transform="translate(122,374)"/>
<path d="M0 0 C0.99 0 1.98 0 3 0 C2.34 1.65 1.68 3.3 1 5 C0.01 5 -0.98 5 -2 5 C-1.34 3.35 -0.68 1.7 0 0 Z " fill="#000000" transform="translate(305,373)"/>
<path d="M0 0 C19.532 4.191 19.532 4.191 28 7 C25.505 9.495 24.586 9.352 21.125 9.438 C13.328 9.324 6.427 6.284 0 2 C0 1.34 0 0.68 0 0 Z " fill="#000000" transform="translate(106,376)"/>
<path d="M0 0 C26.835 12.316 46.119 31.306 57 59 C57.897 62.03 58.506 64.874 59 68 C58.01 68.33 57.02 68.66 56 69 C55.648 67.996 55.296 66.992 54.934 65.957 C45.272 38.941 30.621 21.472 5.923 7.118 C3.601 5.768 1.299 4.388 -1 3 C-0.67 2.01 -0.34 1.02 0 0 Z " fill="#000000" transform="translate(718,394)"/>
<path d="M0 0 C-4.484 2.407 -9.152 3.462 -14.062 4.688 C-14.973 4.925 -15.884 5.163 -16.822 5.408 C-18.134 5.738 -18.134 5.738 -19.473 6.074 C-20.269 6.276 -21.066 6.478 -21.887 6.686 C-24 7 -24 7 -27 6 C-18.57 0.546 -9.985 -2.219 0 0 Z " fill="#000000" transform="translate(134,401)"/>
<path d="M0 0 C-8.223 6.115 -15.841 7.513 -26 7 C-26.33 6.34 -26.66 5.68 -27 5 C-23.254 3.964 -19.503 2.949 -15.75 1.938 C-14.687 1.643 -13.623 1.348 -12.527 1.045 C-11.503 0.771 -10.478 0.497 -9.422 0.215 C-8.479 -0.042 -7.537 -0.298 -6.565 -0.563 C-3.967 -1.006 -2.464 -0.854 0 0 Z " fill="#000000" transform="translate(133,405)"/>
<path d="M0 0 C-1.113 2.842 -2.283 5.641 -3.516 8.434 C-10.883 25.281 -15.256 42.852 -18 61 C-22.677 56.755 -23.719 51.679 -24.363 45.531 C-24.906 30.52 -18.809 18.706 -10 7 C-3.426 0 -3.426 0 0 0 Z " fill="#000000" transform="translate(198,409)"/>
<path d="M0 0 C3.701 5.552 2.13 12.152 1 18.438 C-2.316 32.883 -9.862 46.13 -17 59 C-17.33 59 -17.66 59 -18 59 C-17.467 52.204 -16.47 45.689 -14.875 39.062 C-14.659 38.164 -14.443 37.265 -14.221 36.339 C-11.061 23.706 -6.913 11.103 0 0 Z " fill="#000000" transform="translate(200,410)"/>
<path d="M0 0 C2.173 3.705 2.919 7.665 3.812 11.812 C6.937 25.517 11.543 37.822 18.083 50.247 C19.425 52.813 20.713 55.406 22 58 C11.397 55.21 3.871 49.119 -2 40 C-5.888 32.698 -9.205 25.435 -8 17 C-6.112 10.897 -4.112 4.969 0 0 Z " fill="#000000" transform="translate(139,418)"/>
<path d="M0 0 C9.776 4.247 16.401 14.487 20.219 24.055 C23.022 32.084 24.138 39.414 24.062 47.938 C24.058 48.621 24.053 49.305 24.049 50.01 C24.037 51.673 24.019 53.337 24 55 C22.68 55 21.36 55 20 55 C10.448 39.265 0 18.861 0 0 Z " fill="#000000" transform="translate(142,419)"/>
<path d="M0 0 C7.537 -0.371 7.537 -0.371 9.875 1.5 C10.246 1.995 10.618 2.49 11 3 C11.66 3 12.32 3 13 3 C13 3.99 13 4.98 13 6 C14.027 6.06 14.027 6.06 15.074 6.121 C19.307 7.393 21.694 10.016 24.812 13.062 C25.458 13.68 26.104 14.298 26.77 14.934 C28.859 16.943 30.932 18.969 33 21 C33.708 21.693 34.416 22.386 35.146 23.1 C37.271 25.185 39.388 27.278 41.5 29.375 C42.146 30.016 42.791 30.656 43.456 31.317 C47.839 35.715 51.945 40.301 56 45 C56.731 45.812 57.462 46.624 58.215 47.461 C58.783 48.093 59.352 48.724 59.938 49.375 C60.524 50.022 61.111 50.669 61.715 51.336 C63 53 63 53 63 55 C63.66 55 64.32 55 65 55 C65 55.66 65 56.32 65 57 C65.66 57 66.32 57 67 57 C71 61.471 71 61.471 71 64 C71.66 64 72.32 64 73 64 C73 64.66 73 65.32 73 66 C74.485 66.495 74.485 66.495 76 67 C76 68.32 76 69.64 76 71 C77.417 72.751 77.417 72.751 79 74 C78.67 74.66 78.34 75.32 78 76 C76.02 75.505 76.02 75.505 74 75 C73.505 76.485 73.505 76.485 73 78 C62.983 81.994 49.126 75.86 39.938 71.938 C36.987 70.569 34.591 68.966 32 67 C31.093 66.711 30.185 66.423 29.25 66.125 C25.074 64.679 21.663 62.436 18 60 C18.33 59.01 18.66 58.02 19 57 C17.02 56.67 15.04 56.34 13 56 C12.67 55.01 12.34 54.02 12 53 C11.34 52.67 10.68 52.34 10 52 C10.33 51.67 10.66 51.34 11 51 C10.34 50.34 9.68 49.68 9 49 C8.267 47.543 7.584 46.06 6.938 44.562 C6.596 43.78 6.254 42.998 5.902 42.191 C5.201 40.487 4.583 38.748 4 37 C3.34 37 2.68 37 2 37 C2 36.34 2 35.68 2 35 C1.01 34.041 1.01 34.041 0 33.062 C-2 31 -2 31 -2 28 C-3.32 27.34 -4.64 26.68 -6 26 C-6 25.34 -6 24.68 -6 24 C-5.258 24.021 -4.515 24.041 -3.75 24.062 C-1.086 24.113 -1.086 24.113 1.062 23.438 C3.356 22.92 4.786 23.288 7 24 C7 23.34 7 22.68 7 22 C7 20.68 7 19.36 7 18 C6.34 18 5.68 18 5 18 C4.752 17.051 4.505 16.103 4.25 15.125 C3.314 11.913 3.314 11.913 0.875 10.625 C0.256 10.419 -0.362 10.212 -1 10 C-0.051 9.691 0.898 9.381 1.875 9.062 C4.861 8.126 4.861 8.126 7 7 C6.67 6.34 6.34 5.68 6 5 C5.34 5 4.68 5 4 5 C4 4.34 4 3.68 4 3 C2.02 3.33 0.04 3.66 -2 4 C-1.34 2.68 -0.68 1.36 0 0 Z M6 10 C5.67 10.66 5.34 11.32 5 12 C5.99 11.67 6.98 11.34 8 11 C7.34 10.67 6.68 10.34 6 10 Z M13 10 C13.66 10.66 14.32 11.32 15 12 C15 11.34 15 10.68 15 10 C14.34 10 13.68 10 13 10 Z M8 14 C9 16 9 16 9 16 Z M8 26 C8 26.99 8 27.98 8 29 C8.66 28.34 9.32 27.68 10 27 C9.34 26.67 8.68 26.34 8 26 Z M2 26 C1.01 26.495 1.01 26.495 0 27 C0 27.99 0 28.98 0 30 C3.868 31.875 3.868 31.875 8 31 C8 31.99 8 32.98 8 34 C8.99 33.67 9.98 33.34 11 33 C10.67 31.68 10.34 30.36 10 29 C6.417 27.998 6.417 27.998 3 29 C2.67 28.01 2.34 27.02 2 26 Z M12 33 C13 35 13 35 13 35 Z M12 36 C12.66 36.66 13.32 37.32 14 38 C14 37.34 14 36.68 14 36 C13.34 36 12.68 36 12 36 Z M8 42 C9 44 9 44 9 44 Z M11 47 C15 48 15 48 15 48 Z M28 60 C28.33 60.66 28.66 61.32 29 62 C29.99 61.34 30.98 60.68 32 60 C30.68 60 29.36 60 28 60 Z M71 72 C71 72.66 71 73.32 71 74 C71.66 73.67 72.32 73.34 73 73 C72.34 72.67 71.68 72.34 71 72 Z " fill="#000000" transform="translate(54,437)"/>
<path d="M0 0 C0.99 0.33 1.98 0.66 3 1 C3.147 2.105 3.294 3.209 3.445 4.348 C8.167 37.894 19.979 70.446 40 98 C40.672 98.944 41.343 99.887 42.035 100.859 C47.762 108.717 54.06 116.028 60.5 123.305 C61.797 124.771 63.087 126.244 64.375 127.719 C72.819 137.281 81.877 147.18 92 155 C92.33 155 92.66 155 93 155 C92.773 153.763 92.546 152.525 92.312 151.25 C91.351 142.247 94.362 133.734 99.172 126.203 C102.188 122.568 105.887 120.248 110 118 C110 121.388 109.234 122.834 107.738 125.84 C104.752 132.234 102.936 138.742 101.188 145.562 C100.876 146.736 100.565 147.91 100.244 149.119 C98.652 154.489 98.652 154.489 98 160 C99.904 161.618 99.904 161.618 102.375 163.25 C103.729 164.178 103.729 164.178 105.109 165.125 C108.707 167.459 112.404 169.581 116.164 171.641 C116.77 172.089 117.376 172.538 118 173 C118 173.99 118 174.98 118 176 C100.126 170.805 84.154 154.618 71 142 C70.176 141.218 69.353 140.435 68.504 139.629 C62.844 134.126 57.914 128.169 53 122 C52.041 120.83 51.08 119.66 50.117 118.492 C24.585 87.332 -1.902 41.852 0 0 Z " fill="#000000" transform="translate(167,450)"/>
<path d="M0 0 C0.33 0 0.66 0 1 0 C1.115 0.743 1.23 1.487 1.348 2.253 C6.451 34.609 16.505 62.853 38 88 C38.709 88.843 39.418 89.686 40.148 90.555 C45.254 96.448 50.759 101.335 57 106 C56.505 107.485 56.505 107.485 56 109 C45.873 102.87 38.151 94.313 31 85 C30.344 84.171 29.688 83.342 29.012 82.488 C12.851 61.339 -0.397 32.133 -0.062 5.062 C-0.053 4.105 -0.044 3.147 -0.035 2.16 C-0.024 1.447 -0.012 0.734 0 0 Z " fill="#000000" transform="translate(308,458)"/>
<path d="M0 0 C-0.978 3.069 -2.017 6.039 -3.297 8.996 C-9.22 23.024 -11.378 38.081 -14 53 C-14.99 53 -15.98 53 -17 53 C-20.885 39.107 -20.33 24.317 -13.609 11.309 C-10.497 6.337 -6.332 0 0 0 Z " fill="#000000" transform="translate(214,464)"/>
<path d="M0 0 C0.33 0 0.66 0 1 0 C0.577 16.71 -1.398 32.376 -10 47 C-10.33 47 -10.66 47 -11 47 C-10.47 39.391 -9.394 32.071 -7.75 24.625 C-7.533 23.628 -7.315 22.631 -7.091 21.603 C-5.387 14.079 -3.179 7.047 0 0 Z " fill="#000000" transform="translate(213,470)"/>
<path d="M0 0 C2 0.188 2 0.188 4 1 C6.296 4.445 6.54 6.938 7 11 C8.072 10.319 9.145 9.639 10.25 8.938 C13.662 6.965 13.662 6.965 16.438 7.25 C18 8 18 8 18.672 9.742 C19 12 19 12 17.891 14.07 C17.349 14.748 16.808 15.426 16.25 16.125 C15.719 16.808 15.188 17.491 14.641 18.195 C13 20 13 20 10 22 C7.812 21.625 7.812 21.625 6 21 C6.908 20.299 7.815 19.598 8.75 18.875 C11.92 16.254 13.879 13.507 16 10 C11.532 12.234 9.673 14.853 7 19 C6.34 19 5.68 19 5 19 C4.807 17.929 4.613 16.858 4.414 15.754 C4.151 14.357 3.888 12.96 3.625 11.562 C3.499 10.855 3.372 10.148 3.242 9.42 C2.894 7.599 2.453 5.797 2 4 C1.34 3.67 0.68 3.34 0 3 C0.133 3.641 0.266 4.281 0.402 4.941 C1.425 9.95 2.339 14.931 3 20 C1 19 1 19 0.148 16.961 C-1.391 11.815 -2.56 7.376 -2 2 C-1.34 1.34 -0.68 0.68 0 0 Z " fill="#000000" transform="translate(256,474)"/>
<path d="M0 0 C8.607 2.123 16.461 5.497 24.312 9.562 C25.048 9.938 25.783 10.314 26.541 10.701 C27.225 11.069 27.909 11.437 28.613 11.816 C29.523 12.303 29.523 12.303 30.45 12.799 C32.366 14.284 33.065 15.791 34 18 C26.418 16.515 19.154 14.237 11.833 11.796 C9.809 11.124 7.781 10.466 5.752 9.809 C4.445 9.376 3.138 8.942 1.832 8.508 C0.664 8.123 -0.504 7.737 -1.708 7.34 C-5.24 5.902 -7.912 4.212 -11 2 C-7.14 -0.573 -4.453 -0.628 0 0 Z " fill="#000000" transform="translate(143,487)"/>
<path d="M0 0 C1.007 0.417 1.007 0.417 2.034 0.842 C5.474 2.185 8.958 3.367 12.461 4.531 C13.17 4.768 13.879 5.004 14.609 5.248 C16.103 5.746 17.597 6.244 19.092 6.741 C21.361 7.495 23.63 8.253 25.898 9.012 C27.357 9.498 28.815 9.983 30.273 10.469 C30.943 10.693 31.613 10.917 32.304 11.148 C36.51 12.543 40.733 13.809 45 15 C44.67 15.99 44.34 16.98 44 18 C38.658 20.671 31.167 19.578 25.602 18.094 C15.878 14.491 6.846 9.927 0 2 C0 1.34 0 0.68 0 0 Z " fill="#000000" transform="translate(130,491)"/>
<path d="M0 0 C1.723 3.446 -0.236 7.226 -1.188 10.812 C-4.627 24.367 -6.287 38.143 -8 52 C-8.66 52 -9.32 52 -10 52 C-14.608 39.055 -14.818 25.579 -9 13 C-6.489 8.207 -3.992 3.708 0 0 Z " fill="#000000" transform="translate(236,502)"/>
<path d="M0 0 C0.66 0.33 1.32 0.66 2 1 C2.582 11.362 1.958 20.961 -0.25 31.125 C-0.455 32.083 -0.659 33.042 -0.87 34.03 C-2.218 39.854 -4.005 44.813 -7 50 C-7.99 50.495 -7.99 50.495 -9 51 C-8.295 34.741 -7.404 14.807 0 0 Z " fill="#000000" transform="translate(239,503)"/>
<path d="M0 0 C0.66 0 1.32 0 2 0 C11.141 16.278 19.351 32.52 26 50 C26.277 50.722 26.553 51.444 26.838 52.188 C32.737 67.859 36.206 84.744 36.125 101.5 C36.131 102.705 36.131 102.705 36.137 103.934 C36.128 109.042 35.731 113.944 35 119 C34.01 119 33.02 119 32 119 C32.021 118.237 32.042 117.473 32.063 116.687 C33.016 76.451 21.157 44.742 3.15 9.268 C1.755 6.517 0.375 3.76 -1 1 C-0.67 0.67 -0.34 0.34 0 0 Z " fill="#000000" transform="translate(633,505)"/>
<path d="M0 0 C1.144 2.076 1.144 2.076 2 4 C-24.524 13.014 -24.524 13.014 -34 13 C-34.99 12.34 -35.98 11.68 -37 11 C-26.905 2.175 -13.663 -7.248 0 0 Z " fill="#000000" transform="translate(184,523)"/>
<path d="M0 0 C1.276 3.827 0.86 7.197 0.547 11.148 C0.486 11.957 0.425 12.765 0.362 13.598 C0.231 15.315 0.096 17.031 -0.042 18.748 C-0.246 21.33 -0.434 23.913 -0.621 26.496 C-1.341 35.925 -2.475 44.856 -5 54 C-5.99 54 -6.98 54 -8 54 C-13.004 48.389 -13.943 41.548 -14.035 34.195 C-13.287 21.311 -6.317 10.88 0 0 Z " fill="#000000" transform="translate(258,525)"/>
<path d="M0 0 C5.368 8.051 4.095 22.945 2.651 32.246 C1.277 38.586 -1.016 44.263 -4 50 C-5.247 46.301 -4.878 43.134 -4.477 39.285 C-4.378 38.308 -4.378 38.308 -4.278 37.311 C-4.067 35.227 -3.846 33.145 -3.625 31.062 C-3.414 29.019 -3.204 26.976 -2.996 24.933 C-2.858 23.588 -2.72 22.243 -2.58 20.899 C-2.02 15.431 -1.611 9.959 -1.259 4.474 C-1 2 -1 2 0 0 Z " fill="#000000" transform="translate(261,527)"/>
<path d="M0 0 C-0.508 4.448 -1.836 6.836 -5 10 C-13.655 15.414 -23.508 16.419 -33.438 14.188 C-36.601 13.133 -38.657 12.343 -41 10 C-41 9.34 -41 8.68 -41 8 C-39.85 7.996 -39.85 7.996 -38.676 7.992 C-25.387 7.529 -12.794 0 0 0 Z " fill="#000000" transform="translate(187,529)"/>
<path d="M0 0 C2.438 0.688 2.438 0.688 5 2 C6.062 4.375 6.062 4.375 6 7 C4.062 9.312 4.062 9.312 2 11 C-3.632 9.562 -3.632 9.562 -5.188 7.188 C-4.887 3.676 -2.544 2.234 0 0 Z " fill="#000000" transform="translate(492,548)"/>
<path d="M0 0 C2.438 1.625 2.438 1.625 4 4 C4.606 7.636 4.472 9.283 2.438 12.375 C-0.899 14.6 -3.069 14.5 -7 14 C-8.938 13 -8.938 13 -10 11 C-10.53 7.42 -10.659 4.24 -8.938 1 C-5.821 -0.609 -3.437 -0.422 0 0 Z " fill="#000000" transform="translate(526,557)"/>
<path d="M0 0 C1.801 1.559 1.801 1.559 3.312 3.438 C3.824 4.055 4.336 4.672 4.863 5.309 C6 7 6 7 6 9 C3.478 8.546 0.958 8.087 -1.562 7.625 C-2.267 7.499 -2.971 7.372 -3.697 7.242 C-8.227 6.407 -12.59 5.333 -17 4 C-17 3.34 -17 2.68 -17 2 C-15.108 1.466 -13.211 0.948 -11.312 0.438 C-10.257 0.147 -9.201 -0.143 -8.113 -0.441 C-4.907 -1.017 -3.062 -1.065 0 0 Z " fill="#000000" transform="translate(209,559)"/>
<path d="M0 0 C0.33 0.66 0.66 1.32 1 2 C0.278 2.454 -0.444 2.908 -1.188 3.375 C-6.207 8.06 -8.891 14.265 -10 21 C-10.66 21 -11.32 21 -12 21 C-11.804 13.296 -9.635 8.096 -4.523 2.336 C-3 1 -3 1 0 0 Z " fill="#000000" transform="translate(743,561)"/>
<path d="M0 0 C17.075 3.7 17.075 3.7 24.562 5.562 C25.409 5.77 26.256 5.978 27.129 6.191 C27.746 6.458 28.364 6.725 29 7 C29.33 7.99 29.66 8.98 30 10 C21.383 12.371 13.99 10.835 6 7 C3.636 5.477 1.981 4.034 0 2 C0 1.34 0 0.68 0 0 Z " fill="#000000" transform="translate(190,564)"/>
<path d="M0 0 C0.33 0 0.66 0 1 0 C1.088 3.646 1.141 7.291 1.188 10.938 C1.213 11.959 1.238 12.981 1.264 14.033 C1.338 21.771 0.38 28.176 -3.75 34.812 C-6.756 37.735 -10.635 41 -15 41 C-14.36 38.601 -13.708 36.206 -13.047 33.812 C-12.474 31.726 -11.904 29.638 -11.35 27.547 C-10.62 24.799 -9.873 22.056 -9.125 19.312 C-8.777 17.977 -8.777 17.977 -8.421 16.615 C-6.751 10.573 -4.534 4.534 0 0 Z " fill="#000000" transform="translate(281,568)"/>
<path d="M0 0 C0.66 1.65 1.32 3.3 2 5 C2.66 5 3.32 5 4 5 C4 6.32 4 7.64 4 9 C4.99 9.33 5.98 9.66 7 10 C7 10.66 7 11.32 7 12 C7.66 12 8.32 12 9 12 C9.248 12.887 9.495 13.774 9.75 14.688 C10.795 17.993 10.795 17.993 12.828 20.223 C15.422 23.54 17.172 26.974 19 30.75 C19.35 31.464 19.699 32.177 20.059 32.913 C21.047 34.938 22.024 36.969 23 39 C23.429 39.878 23.859 40.756 24.301 41.66 C27.253 47.941 30 55.002 30 62 C30.99 62.495 30.99 62.495 32 63 C34.565 70.323 35.547 78.105 36.473 85.773 C36.913 89.047 36.913 89.047 38.121 92.227 C39 95 39 95 38 98 C38.99 98.99 38.99 98.99 40 100 C40.625 102.625 40.625 102.625 41 105 C40.175 105.454 39.35 105.908 38.5 106.375 C37.675 106.911 36.85 107.447 36 108 C36 108.66 36 109.32 36 110 C36.99 109.67 37.98 109.34 39 109 C40.562 110.25 40.562 110.25 42 112 C41.625 113.938 41.625 113.938 41 116 C41.312 117.338 41.648 118.671 42 120 C42.038 122 42.045 124.001 42 126 C40.667 125.333 39.333 124.667 38 124 C38.66 121.69 39.32 119.38 40 117 C37.833 117.833 37.833 117.833 37 120 C36.01 119.67 35.02 119.34 34 119 C34.33 119.99 34.66 120.98 35 122 C34.34 122.99 33.68 123.98 33 125 C32.67 123.68 32.34 122.36 32 121 C30.35 121 28.7 121 27 121 C26.505 122.98 26.505 122.98 26 125 C26.99 125.495 26.99 125.495 28 126 C28.667 128.002 29.328 130.007 29.965 132.02 C34.471 144.995 40.889 157.283 48 169 C46.68 169 45.36 169 44 169 C34.381 159.045 29.617 143.474 24.27 130.957 C23.553 129.287 22.813 127.625 22 126 C22.33 125.34 22.66 124.68 23 124 C22.381 123.814 21.762 123.629 21.125 123.438 C17.944 121.286 17.805 118.625 17 115 C16.34 115 15.68 115 15 115 C15 111.335 15.267 108.573 16 105 C15.34 105 14.68 105 14 105 C13.836 104.112 13.836 104.112 13.668 103.207 C12.728 98.523 11.622 95.052 9 91 C9 90.01 9 89.02 9 88 C8.531 85.789 8.013 84.027 7 82 C7.66 82 8.32 82 9 82 C8.34 81.01 7.68 80.02 7 79 C6.67 78.34 6.34 77.68 6 77 C6.66 77 7.32 77 8 77 C8 76.34 8 75.68 8 75 C7.01 74.67 6.02 74.34 5 74 C5.33 72.35 5.66 70.7 6 69 C5.01 68.67 4.02 68.34 3 68 C2.67 67.01 2.34 66.02 2 65 C2.99 64.01 3.98 63.02 5 62 C4.649 61.443 4.299 60.886 3.938 60.312 C2.782 57.461 3.19 55.915 4 53 C3.01 52.67 2.02 52.34 1 52 C1 50.333 1 48.667 1 47 C-0.98 47.66 -2.96 48.32 -5 49 C-4.67 48.34 -4.34 47.68 -4 47 C-3.34 47 -2.68 47 -2 47 C-1.67 46.01 -1.34 45.02 -1 44 C-0.01 44 0.98 44 2 44 C1.01 43.34 0.02 42.68 -1 42 C-0.67 41.01 -0.34 40.02 0 39 C-0.99 38.01 -1.98 37.02 -3 36 C-2.01 35.505 -2.01 35.505 -1 35 C-1.33 34.34 -1.66 33.68 -2 33 C-1.01 32.505 -1.01 32.505 0 32 C-0.99 31.67 -1.98 31.34 -3 31 C-2.67 29.68 -2.34 28.36 -2 27 C-3.65 27 -5.3 27 -7 27 C-6.34 26.67 -5.68 26.34 -5 26 C-5 25.01 -5 24.02 -5 23 C-4.01 23 -3.02 23 -2 23 C-2 22.34 -2 21.68 -2 21 C-2.99 20.67 -3.98 20.34 -5 20 C-3.35 19.67 -1.7 19.34 0 19 C-0.969 18.732 -1.939 18.464 -2.938 18.188 C-3.948 17.796 -4.959 17.404 -6 17 C-6.33 16.01 -6.66 15.02 -7 14 C-5.68 14 -4.36 14 -3 14 C-2.67 13.01 -2.34 12.02 -2 11 C-1.34 10.34 -0.68 9.68 0 9 C0 8.34 0 7.68 0 7 C-2.31 7.33 -4.62 7.66 -7 8 C-7.33 7.01 -7.66 6.02 -8 5 C-6.35 4.67 -4.7 4.34 -3 4 C-3.66 4 -4.32 4 -5 4 C-5.99 3.67 -6.98 3.34 -8 3 C-7.34 3 -6.68 3 -6 3 C-6 2.34 -6 1.68 -6 1 C-3.924 0.447 -2.156 0 0 0 Z M-4 24 C-3 26 -3 26 -3 26 Z M2 31 C2 31.66 2 32.32 2 33 C2.66 32.67 3.32 32.34 4 32 C3.34 31.67 2.68 31.34 2 31 Z M2 46 C2 46.66 2 47.32 2 48 C2.99 48.33 3.98 48.66 5 49 C5 48.34 5 47.68 5 47 C4.01 46.67 3.02 46.34 2 46 Z M5 57 C9 58 9 58 9 58 Z M13 78 C14 80 14 80 14 80 Z M27 84 C28 86 28 86 28 86 Z M34 87 C33.67 87.99 33.34 88.98 33 90 C33.33 90.66 33.66 91.32 34 92 C34.66 91.67 35.32 91.34 36 91 C35.67 89.68 35.34 88.36 35 87 C34.67 87 34.34 87 34 87 Z M17 89 C18 91 18 91 18 91 Z M20 96 C19.505 97.98 19.505 97.98 19 100 C19.66 100 20.32 100 21 100 C21.33 99.01 21.66 98.02 22 97 C21.34 96.67 20.68 96.34 20 96 Z M13 97 C14 99 14 99 14 99 Z M20 101 C20.33 101.99 20.66 102.98 21 104 C21.66 103.01 22.32 102.02 23 101 C22.01 101 21.02 101 20 101 Z M27 102 C26.67 102.99 26.34 103.98 26 105 C26.66 105 27.32 105 28 105 C28.33 105.99 28.66 106.98 29 108 C29.33 107.34 29.66 106.68 30 106 C29.01 104.68 28.02 103.36 27 102 Z M35 102 C36 104 36 104 36 104 Z M37 102 C38 105 38 105 38 105 Z M22 105 C23 108 23 108 23 108 Z M26 107 C23.723 109.815 23.723 109.815 24 113 C24.66 113 25.32 113 26 113 C26 111.68 26 110.36 26 109 C26.66 108.67 27.32 108.34 28 108 C27.34 107.67 26.68 107.34 26 107 Z M29 111 C29.33 111.66 29.66 112.32 30 113 C30.33 112.34 30.66 111.68 31 111 C30.34 111 29.68 111 29 111 Z M35 113 C35 113.99 35 114.98 35 116 C35.66 115.34 36.32 114.68 37 114 C36.34 113.67 35.68 113.34 35 113 Z M27 114 C26.67 114.66 26.34 115.32 26 116 C26.99 115.67 27.98 115.34 29 115 C28.34 114.67 27.68 114.34 27 114 Z M31 116 C32 119 32 119 32 119 Z M28 117 C27.67 117.66 27.34 118.32 27 119 C27.66 119 28.32 119 29 119 C28.67 118.34 28.34 117.68 28 117 Z " fill="#000000" transform="translate(144,568)"/>
<path d="M0 0 C3.079 1.652 4.021 3.293 5.562 6.375 C6.222 5.385 6.882 4.395 7.562 3.375 C10.188 3.188 10.188 3.188 12.562 3.375 C13.625 6.578 13.529 8.365 12.312 11.5 C12.06 12.183 11.807 12.866 11.547 13.57 C10.562 15.375 10.562 15.375 7.562 17.375 C4.428 15.808 4 12.857 2.758 9.699 C1.399 7.057 -0.256 5.37 -2.438 3.375 C-2.016 4.206 -1.594 5.038 -1.16 5.895 C-0.612 6.981 -0.064 8.068 0.5 9.188 C1.045 10.266 1.591 11.345 2.152 12.457 C3.562 15.375 3.562 15.375 4.562 18.375 C0.345 16.869 -1.212 14.135 -3.438 10.375 C-4.595 6.902 -4.506 4.014 -4.438 0.375 C-2.438 -0.625 -2.438 -0.625 0 0 Z M9.562 6.375 C7.876 9.885 7.876 9.885 7.938 13.688 C8.144 14.244 8.35 14.801 8.562 15.375 C10.249 11.865 10.249 11.865 10.188 8.062 C9.981 7.506 9.775 6.949 9.562 6.375 Z " fill="#000000" transform="translate(183.4375,597.625)"/>
<path d="M0 0 C0.99 0 1.98 0 3 0 C2.25 2.438 2.25 2.438 1 5 C-1.125 5.812 -1.125 5.812 -3 6 C-2.01 4.02 -1.02 2.04 0 0 Z " fill="#000000" transform="translate(784,622)"/>
<path d="M0 0 C0.66 0 1.32 0 2 0 C1.67 16.369 1.021 32.255 -2.766 48.23 C-3.248 50.987 -3.248 50.987 -1.891 53.125 C-1.349 53.744 -0.808 54.362 -0.25 55 C2.374 58.173 4.299 61.221 6 65 C6.219 64.227 6.438 63.453 6.664 62.656 C9.088 54.693 12.118 48.882 18 43 C20.625 42.875 20.625 42.875 23 43 C24.218 45.436 24.167 47.095 24.188 49.812 C24.202 50.665 24.216 51.517 24.23 52.395 C23.978 55.251 23.181 57.4 22 60 C22.606 59.723 23.212 59.446 23.836 59.16 C29.726 56.614 35.497 54.642 42 55 C43.485 55.99 43.485 55.99 45 57 C45.125 59.625 45.125 59.625 44 63 C40.968 65.565 37.549 67.248 34 69 C32.881 69.553 31.762 70.106 30.609 70.676 C23.361 74.02 17.007 75.967 9 76 C8.34 78.64 7.68 81.28 7 84 C7.727 83.674 8.454 83.348 9.203 83.012 C19.859 78.381 30.231 74.852 42 76 C43 77 43 77 43.438 79.25 C42.891 82.683 41.431 83.711 38.776 85.814 C35.927 87.717 32.944 88.67 29.688 89.688 C29.027 89.895 28.366 90.102 27.685 90.315 C19.514 92.834 12.56 94.272 4 94 C3.34 95.98 2.68 97.96 2 100 C2.753 99.746 3.506 99.492 4.281 99.23 C15.821 95.491 30.855 90.627 43 92 C45.328 93.996 45.328 93.996 47 96 C44.979 101.052 41.586 102.684 36.891 104.867 C26.943 108.765 16.681 110.181 6.062 110.062 C5.283 110.058 4.504 110.053 3.701 110.049 C1.801 110.037 -0.1 110.019 -2 110 C-2.459 111.123 -2.918 112.246 -3.391 113.402 C-6.495 120.981 -9.61 128.543 -13 136 C-11.934 135.54 -10.868 135.08 -9.77 134.605 C-4.211 132.526 1.443 131.956 7.312 131.312 C8.377 131.183 9.441 131.053 10.537 130.92 C29.422 128.742 29.422 128.742 35 132 C35.312 134.75 35.312 134.75 35 138 C30.261 143.72 21.475 144.787 14.438 145.688 C3.963 146.581 -6.213 146.182 -16 142 C-18.929 146.226 -21.731 150.516 -24.355 154.938 C-50.571 199.055 -50.571 199.055 -66 206 C-62.57 201.179 -58.959 196.847 -54.875 192.562 C-38.854 175.449 -26.972 154.079 -17 133 C-16.53 132.019 -16.53 132.019 -16.051 131.019 C-13.984 126.701 -11.979 122.359 -10 118 C-9.551 117.062 -9.103 116.123 -8.641 115.156 C-6.056 109.42 -5.013 105.076 -7 99 C-9.993 91.951 -13.38 85.116 -18 79 C-18 78.34 -18 77.68 -18 77 C-20.97 76.505 -20.97 76.505 -24 76 C-24 87.31 -17.2 96.929 -11 106 C-11.33 106.66 -11.66 107.32 -12 108 C-17.373 105.586 -19.194 101.8 -21.812 96.812 C-22.423 95.688 -22.423 95.688 -23.045 94.541 C-24.042 92.7 -25.022 90.851 -26 89 C-27.32 90.32 -28.64 91.64 -30 93 C-28.346 96.529 -26.289 99.721 -24.188 103 C-14.505 118.467 -14.505 118.467 -15 127 C-15.99 127.33 -16.98 127.66 -18 128 C-18.124 127.464 -18.247 126.928 -18.375 126.375 C-21.245 115.47 -26.781 101.095 -36 94 C-36.99 94 -37.98 94 -39 94 C-38.803 105.398 -32.583 115.277 -26.066 124.328 C-25 126 -25 126 -25 128 C-26.75 127.844 -26.75 127.844 -29 127 C-34.184 120.763 -38.1 113.555 -41 106 C-41.413 106.424 -41.825 106.848 -42.25 107.285 C-46.649 111.752 -51.235 115.928 -56 120 C-56.66 119.67 -57.32 119.34 -58 119 C-57.515 118.568 -57.031 118.135 -56.531 117.69 C-54.328 115.696 -52.165 113.662 -50 111.625 C-49.237 110.946 -48.474 110.266 -47.688 109.566 C-43.446 105.612 -43.446 105.612 -41.57 100.3 C-41.582 97.615 -41.582 97.615 -41.914 95.08 C-41.942 94.393 -41.971 93.707 -42 93 C-41.01 92.01 -41.01 92.01 -40 91 C-38.721 91.062 -37.442 91.124 -36.125 91.188 C-32.889 91.24 -32.248 91.191 -29.562 89.125 C-27.709 85.418 -27.436 82.407 -27.273 78.305 C-27 76 -27 76 -25 73 C-21.202 72.921 -19.043 73.195 -16 75.543 C-9.764 82.034 -6.449 89.82 -3 98 C3.656 82.774 3.656 82.774 2 67 C0.456 63.593 -1.226 60.292 -3 57 C-3.278 56.264 -3.557 55.528 -3.844 54.77 C-4.91 52.716 -4.91 52.716 -7.625 52.25 C-8.409 52.168 -9.192 52.085 -10 52 C-7.297 63.569 -7.297 63.569 -2.051 74.168 C-0.942 76.101 -0.439 77.825 0 80 C-3.428 79.39 -3.989 79.012 -6.5 76.25 C-10.857 69.722 -14.509 59.882 -13 52 C-10.688 49.5 -10.688 49.5 -8 48 C-7.01 48.33 -6.02 48.66 -5 49 C-4.856 47.689 -4.711 46.378 -4.562 45.027 C-4.222 41.955 -3.87 38.885 -3.5 35.816 C-2.474 27.162 -1.706 18.548 -1.342 9.838 C-1.19 6.447 -1.03 3.25 0 0 Z M18.188 47.5 C13.13 53.28 10.326 60.677 9.75 68.312 C9.726 71.151 9.726 71.151 12 73 C17.567 72.7 22.068 70.954 27.062 68.688 C27.744 68.392 28.425 68.096 29.127 67.791 C33.375 65.902 37.284 63.834 41 61 C41.33 60.01 41.66 59.02 42 58 C32.558 58.402 25.004 60.997 17 66 C16.34 66 15.68 66 15 66 C15.349 65.394 15.699 64.788 16.059 64.164 C19.381 58.046 20.837 52.957 21 46 C19.736 45.894 19.736 45.894 18.188 47.5 Z M23 80.75 C21.955 81.021 21.955 81.021 20.888 81.297 C14.882 82.915 9.243 84.477 5 89.25 C4.67 89.827 4.34 90.405 4 91 C9.647 91.176 14.487 90.695 19.938 89.25 C20.631 89.072 21.325 88.893 22.04 88.71 C27.279 87.312 32.179 85.504 37 83 C37.66 82.67 38.32 82.34 39 82 C39 81.01 39 80.02 39 79 C33.337 78.823 28.468 79.306 23 80.75 Z M24.312 97.25 C23.07 97.455 21.828 97.66 20.549 97.871 C10.292 99.559 10.292 99.559 1 104 C0.67 104.99 0.34 105.98 0 107 C12.315 109.642 29.48 105.907 40.375 99.75 C41.241 99.173 42.107 98.595 43 98 C42.505 96.515 42.505 96.515 42 95 C35.989 95 30.222 96.217 24.312 97.25 Z M4.062 135 C1.967 135.288 -0.129 135.573 -2.226 135.856 C-4.109 136.111 -5.992 136.372 -7.875 136.633 C-11 137 -11 137 -15 137 C-14.733 138.985 -14.733 138.985 -14 141 C-2.214 144.929 15.266 144.26 26.742 139.977 C29.123 138.82 29.123 138.82 32 137 C32 136.01 32 135.02 32 134 C30.384 132.384 28.671 132.829 26.434 132.812 C18.899 132.881 11.509 133.96 4.062 135 Z " fill="#000000" transform="translate(729,588)"/>
<path d="M0 0 C1.176 1.083 1.176 1.083 2.375 2.188 C2.973 2.703 3.571 3.219 4.188 3.75 C7.489 7.746 6.828 13.341 6.375 18.188 C4.838 25.552 2.946 32.516 -0.625 39.188 C0.53 38.692 1.685 38.197 2.875 37.688 C8.431 35.626 12.931 35.295 18.625 37.375 C22.193 39.726 24.467 42.372 26.375 46.188 C27.857 58.994 23.356 69.556 15.645 79.598 C11.906 83.863 7.734 87.57 3.375 91.188 C4.626 91.027 4.626 91.027 5.902 90.863 C12.946 90.113 19.033 89.64 25.375 93.188 C28.056 95.668 29.119 97.453 30.312 100.875 C30.557 113.856 21.431 123.247 13.293 132.352 C11.375 134.188 11.375 134.188 9.375 134.188 C9.898 129.947 12.352 127.672 15.125 124.562 C20.529 118.31 26.375 110.833 26.375 102.188 C25.169 99.395 24.086 97.74 21.688 95.875 C10.57 92.57 -2.617 97.87 -12.785 102.102 C-15.431 103.113 -17.817 103.835 -20.625 104.188 C-23.145 102.568 -23.568 101.409 -24.312 98.5 C-24.467 97.355 -24.467 97.355 -24.625 96.188 C-23.635 95.528 -22.645 94.868 -21.625 94.188 C-21.513 93.432 -21.401 92.677 -21.285 91.898 C-20.357 88.087 -17.935 86.269 -15.062 83.812 C-14.516 83.327 -13.97 82.842 -13.406 82.341 C-11.115 80.313 -8.794 78.328 -6.438 76.375 C-0.538 71.459 4.215 65.702 9.065 59.779 C10.404 58.152 11.764 56.543 13.125 54.934 C14.961 52.693 16.257 50.831 17.375 48.188 C18.365 48.188 19.355 48.188 20.375 48.188 C22.259 51.955 21.176 56.178 20.375 60.188 C15.892 73.092 5.416 82.473 -4.625 91.188 C-4.955 91.518 -5.285 91.847 -5.625 92.188 C6.803 84.038 17.717 73.799 22.375 59.188 C23.336 51.51 23.336 51.51 21.324 44.266 C19.549 42.485 17.614 41.307 15.375 40.188 C9.379 40.231 4.618 41.173 -0.625 44.188 C-1.285 44.188 -1.945 44.188 -2.625 44.188 C-2.893 44.765 -3.161 45.342 -3.438 45.938 C-4.642 48.22 -6.033 50.161 -7.625 52.188 C-9.11 51.692 -9.11 51.692 -10.625 51.188 C-11.945 54.487 -13.265 57.788 -14.625 61.188 C-14.955 61.188 -15.285 61.188 -15.625 61.188 C-15.756 55.536 -14.808 50.672 -13.312 45.25 C-13.052 44.294 -12.792 43.337 -12.523 42.352 C-11.892 40.129 -11.228 37.916 -10.539 35.711 C-7.956 27.301 -6.224 19.815 -8.625 11.188 C-14.069 12.494 -18.256 14.458 -22.938 17.5 C-23.557 17.878 -24.176 18.257 -24.814 18.646 C-28.605 21.079 -30.352 22.877 -31.625 27.188 C-32.285 28.178 -32.945 29.168 -33.625 30.188 C-33.625 31.178 -33.625 32.168 -33.625 33.188 C-34.615 33.188 -35.605 33.188 -36.625 33.188 C-36.625 34.837 -36.625 36.487 -36.625 38.188 C-37.615 38.518 -38.605 38.847 -39.625 39.188 C-40.358 41.203 -40.358 41.203 -40.625 43.188 C-39.965 43.188 -39.305 43.188 -38.625 43.188 C-39.625 46.188 -39.625 46.188 -40.625 47.188 C-39.305 47.188 -37.985 47.188 -36.625 47.188 C-35.976 48.769 -35.331 50.353 -34.688 51.938 C-34.328 52.819 -33.968 53.701 -33.598 54.609 C-32.771 56.799 -32.131 58.906 -31.625 61.188 C-29.349 52.9 -27.139 44.656 -25.625 36.188 C-24.635 36.188 -23.645 36.188 -22.625 36.188 C-23.142 43.593 -24.448 50.571 -26.312 57.75 C-26.606 58.883 -26.9 60.015 -27.203 61.182 C-34.125 86.832 -42.048 115.697 -54.625 139.188 C-60.925 138.678 -63.867 134.203 -67.77 129.723 C-74.093 122.098 -79.783 113.328 -83.625 104.188 C-83.921 103.508 -84.218 102.829 -84.523 102.129 C-87.378 94.783 -88.346 86.262 -85.125 78.875 C-81.157 72.145 -74.958 67.587 -67.625 65.188 C-65.303 64.782 -62.97 64.427 -60.625 64.188 C-60.66 63.628 -60.695 63.069 -60.73 62.492 C-61.356 43.978 -54.033 28.634 -42.75 14.438 C-41.698 13.324 -41.698 13.324 -40.625 12.188 C-39.965 12.188 -39.305 12.188 -38.625 12.188 C-38.625 11.528 -38.625 10.867 -38.625 10.188 C-29.308 2.436 -12.113 -8.014 0 0 Z M-44.332 21.844 C-53.348 34.421 -56.922 48.938 -57.625 64.188 C-55.348 61.91 -55.121 60.821 -54.398 57.742 C-54.064 56.385 -54.064 56.385 -53.723 55.001 C-53.485 54.031 -53.246 53.062 -53 52.062 C-48.431 34.523 -41.362 18.338 -25.336 8.562 C-20.396 6.057 -16.042 4.883 -10.5 4.812 C-9.487 4.784 -8.474 4.756 -7.43 4.727 C-3.877 5.311 -2.74 6.309 -0.625 9.188 C1.578 17.742 -2.371 27.11 -4.991 35.193 C-5.938 38.173 -6.782 41.177 -7.625 44.188 C-0.258 38.005 3.294 23.318 4.375 14.188 C3.879 9.287 2.898 6.711 -0.625 3.188 C-16.293 -6.214 -35.31 10.484 -44.332 21.844 Z M-40.625 49.188 C-41.285 50.837 -41.945 52.487 -42.625 54.188 C-43.285 54.188 -43.945 54.188 -44.625 54.188 C-45.326 57.341 -45.625 59.915 -45.625 63.188 C-47.027 66.82 -48.464 69.946 -50.625 73.188 C-50.625 74.178 -50.625 75.168 -50.625 76.188 C-50.955 76.188 -51.285 76.188 -51.625 76.188 C-52.089 78.106 -52.089 78.106 -52.562 80.062 C-53.101 82.289 -53.599 84.135 -54.625 86.188 C-59.014 85.677 -61.962 84.665 -65.625 82.188 C-67.353 83.158 -67.353 83.158 -68.625 85.188 C-68.158 93.494 -65.409 101.32 -63.064 109.252 C-62.753 110.328 -62.442 111.403 -62.121 112.512 C-61.834 113.482 -61.547 114.452 -61.252 115.452 C-60.297 119.618 -60.415 123.103 -61.625 127.188 C-70.663 117.698 -78.408 104.92 -79 91.562 C-78.763 86.196 -77.712 81.461 -74.008 77.426 C-69.173 73.141 -65.076 71.067 -58.625 70.188 C-58.625 69.528 -58.625 68.868 -58.625 68.188 C-66.716 68.37 -72.228 70.026 -78.16 75.641 C-82.537 80.49 -83.869 84.846 -83.562 91.25 C-81.385 109.51 -69.346 122.982 -57.625 136.188 C-53.356 132.409 -51.843 127.65 -50.625 122.188 C-50.172 112.602 -52.079 104.045 -55.625 95.188 C-52.013 97.889 -51.437 101.712 -50.438 105.875 C-50.26 106.577 -50.083 107.279 -49.9 108.002 C-49.466 109.728 -49.044 111.458 -48.625 113.188 C-45.886 110.448 -45.044 107.233 -43.805 103.645 C-43.541 102.884 -43.278 102.123 -43.006 101.34 C-42.45 99.721 -41.897 98.101 -41.347 96.48 C-40.516 94.047 -39.655 91.627 -38.793 89.205 C-33.993 75.319 -32.177 63.034 -38.625 49.188 C-39.285 49.188 -39.945 49.188 -40.625 49.188 Z " fill="#000000" transform="translate(323.625,639.8125)"/>
<path d="M0 0 C4.079 0.551 6.177 2.683 9.188 5.375 C21.11 15.655 34.708 23.504 49 30 C50.781 30.816 50.781 30.816 52.598 31.648 C77.678 42.401 109.966 47.591 135.991 37.206 C138.917 35.932 141.764 34.55 144.594 33.074 C145.388 32.72 146.182 32.365 147 32 C147.66 32.33 148.32 32.66 149 33 C125.572 47.226 99.063 48.599 72.875 42.25 C58.834 38.59 45.734 32.897 33 26 C32.372 25.661 31.745 25.323 31.098 24.974 C23.274 20.684 16.143 15.779 9.188 10.188 C8.499 9.636 7.811 9.085 7.102 8.517 C6.463 7.989 5.825 7.462 5.168 6.918 C4.604 6.452 4.039 5.985 3.458 5.505 C1.817 3.811 0.948 2.148 0 0 Z " fill="#000000" transform="translate(489,649)"/>
<path d="M0 0 C1.32 0 2.64 0 4 0 C4 0.66 4 1.32 4 2 C4.66 2 5.32 2 6 2 C6.33 2.66 6.66 3.32 7 4 C8.32 3.67 9.64 3.34 11 3 C11.289 3.619 11.577 4.237 11.875 4.875 C12.937 7.133 12.937 7.133 15 9 C14.01 9.495 14.01 9.495 13 10 C12.298 11.652 11.63 13.319 11 15 C10 16 10 16 6.688 16.062 C3 15 3 15 1.648 13.359 C-0.543 9.228 -1.577 5.735 -1 1 C-0.67 0.67 -0.34 0.34 0 0 Z M3 5 C4 7 4 7 4 7 Z M4 7 C5 10 5 10 5 10 Z M9 7 C10 11 10 11 10 11 Z M5 10 C6 13 6 13 6 13 Z M6 13 C6 13.66 6 14.32 6 15 C6.66 14.67 7.32 14.34 8 14 C7.34 13.67 6.68 13.34 6 13 Z " fill="#000000" transform="translate(210,658)"/>
<path d="M0 0 C8.311 -0.332 15.656 0.029 23.672 2.344 C25.918 3.09 25.918 3.09 28 3 C28 3.66 28 4.32 28 5 C28.536 5.124 29.073 5.247 29.625 5.375 C46.124 9.717 60.796 19.424 73.688 30.312 C74.301 30.828 74.914 31.344 75.545 31.876 C79.876 35.629 79.876 35.629 81 39 C81.66 39 82.32 39 83 39 C83 39.66 83 40.32 83 41 C83.66 41 84.32 41 85 41 C85 41.66 85 42.32 85 43 C85.66 43 86.32 43 87 43 C88.727 44.68 88.727 44.68 90.625 46.875 C91.257 47.594 91.888 48.314 92.539 49.055 C94 51 94 51 94 53 C95.238 54.237 95.238 54.237 96.5 55.5 C99 58 99 58 99 60 C99.66 60.66 100.32 61.32 101 62 C103 64 103 64 103 66 C102.34 66 101.68 66 101 66 C101.33 66.33 101.66 66.66 102 67 C100.614 70.349 99.24 72.29 96 74 C92.75 73.688 92.75 73.688 90 73 C91.46 78.31 93.983 82.463 97 87 C96.01 87 95.02 87 94 87 C92.098 84.937 90.355 82.887 88.625 80.688 C84.608 75.594 81.337 72.112 75 70 C73.685 67.854 73 66.53 73 64 C70.133 64.573 69.139 64.861 67 67 C66.567 66.175 66.134 65.35 65.688 64.5 C65.131 63.675 64.574 62.85 64 62 C63.01 62 62.02 62 61 62 C61 61.34 61 60.68 61 60 C60.01 59.505 60.01 59.505 59 59 C59 58.34 59 57.68 59 57 C57.824 56.845 57.824 56.845 56.625 56.688 C54 56 54 56 52 53 C50.68 53 49.36 53 48 53 C47.917 52.402 47.835 51.804 47.75 51.188 C46.794 48.399 45.32 47.721 43 46 C43 45.01 43 44.02 43 43 C42.01 43.66 41.02 44.32 40 45 C39.01 45 38.02 45 37 45 C37.041 44.051 37.083 43.102 37.125 42.125 C37.35 38.898 37.35 38.898 35 37 C34.01 37.99 33.02 38.98 32 40 C32 39.34 32 38.68 32 38 C31.34 37.34 30.68 36.68 30 36 C29.375 33.875 29.375 33.875 29 32 C28.34 32 27.68 32 27 32 C26.67 31.01 26.34 30.02 26 29 C24.35 28.67 22.7 28.34 21 28 C21.33 26.68 21.66 25.36 22 24 C20.68 24.33 19.36 24.66 18 25 C18 24.34 18 23.68 18 23 C17.34 23 16.68 23 16 23 C16 22.01 16 21.02 16 20 C14.68 20.33 13.36 20.66 12 21 C11.67 20.01 11.34 19.02 11 18 C11.66 18 12.32 18 13 18 C12.34 16.68 11.68 15.36 11 14 C10.34 14 9.68 14 9 14 C8.732 13.196 8.464 12.391 8.188 11.562 C7.796 10.717 7.404 9.871 7 9 C6.01 8.67 5.02 8.34 4 8 C3.67 7.01 3.34 6.02 3 5 C2.013 3.657 1.014 2.323 0 1 C0 0.67 0 0.34 0 0 Z M3 1 C3 1.66 3 2.32 3 3 C3.66 3 4.32 3 5 3 C5 2.34 5 1.68 5 1 C4.34 1 3.68 1 3 1 Z M13 14 C14 16 14 16 14 16 Z M18 20 C18 20.99 18 21.98 18 23 C18.66 22.67 19.32 22.34 20 22 C20 21.34 20 20.68 20 20 C19.34 20 18.68 20 18 20 Z M45 45 C46 47 46 47 46 47 Z M55 51 C56 53 56 53 56 53 Z M62 57 C61.67 57.66 61.34 58.32 61 59 C61.66 59 62.32 59 63 59 C62.67 58.34 62.34 57.68 62 57 Z M98 68 C99 70 99 70 99 70 Z " fill="#000000" transform="translate(73,665)"/>
<path d="M0 0 C2 2 2 2 2.438 4.375 C2 7 2 7 0.125 9.125 C-9.567 14.94 -20.748 15.181 -31.75 15.188 C-33.31 15.206 -33.31 15.206 -34.902 15.225 C-35.899 15.227 -36.895 15.228 -37.922 15.23 C-39.277 15.237 -39.277 15.237 -40.659 15.243 C-43 15 -43 15 -46 13 C-46 12.34 -46 11.68 -46 11 C-45.198 11.095 -44.396 11.191 -43.57 11.289 C-30.017 12.611 -14.433 12.217 -2 6 C-2 5.01 -2 4.02 -2 3 C-13.453 3.391 -24.441 5.395 -35.668 7.559 C-38.438 8.083 -41.216 8.555 -44 9 C-40.611 4.726 -36.82 3.874 -31.688 2.875 C-30.894 2.711 -30.1 2.547 -29.282 2.378 C-8.555 -1.786 -8.555 -1.786 0 0 Z " fill="#000000" transform="translate(768,701)"/>
<path d="M0 0 C-0.466 4.343 -3.055 6.289 -6.125 9.188 C-10.912 13.793 -15.099 18.607 -19 24 C-19.99 23.67 -20.98 23.34 -22 23 C-20.471 19.463 -18.358 17.004 -15.75 14.188 C-12.978 11.171 -10.249 8.145 -7.625 5 C-3.25 0 -3.25 0 0 0 Z " fill="#000000" transform="translate(314,704)"/>
<path d="M0 0 C1.806 3.612 0.931 7.233 0 11 C-1.04 13.566 -2.104 16.019 -3.312 18.5 C-3.608 19.124 -3.904 19.747 -4.209 20.39 C-5.113 22.156 -5.113 22.156 -7 25 C-9.118 25.678 -9.118 25.678 -11 26 C-10.506 24.926 -10.013 23.852 -9.504 22.746 C-8.856 21.31 -8.209 19.874 -7.562 18.438 C-7.237 17.733 -6.912 17.029 -6.576 16.303 C-4.57 11.814 -3.457 7.9 -3 3 C-9.73 4.178 -13.025 8.869 -17 14 C-18.653 16.417 -20.245 18.85 -21.773 21.348 C-22.178 21.893 -22.583 22.438 -23 23 C-23.66 23 -24.32 23 -25 23 C-24.348 19.303 -22.715 16.693 -20.688 13.562 C-20.093 12.636 -19.499 11.709 -18.887 10.754 C-14.23 3.956 -9.174 -3.058 0 0 Z " fill="#000000" transform="translate(211,728)"/>
<path d="M0 0 C2.938 1.188 2.938 1.188 3.938 3.188 C4.675 10.192 3.004 14.486 -1.062 20.188 C-4.912 24.897 -8.077 27.626 -14.062 29.188 C-14.949 29.744 -15.836 30.301 -16.75 30.875 C-17.513 31.308 -18.276 31.741 -19.062 32.188 C-20.053 31.857 -21.043 31.528 -22.062 31.188 C-23.062 28.188 -23.062 28.188 -21.91 25.855 C-19.897 22.949 -17.755 20.223 -15.5 17.5 C-14.715 16.547 -13.93 15.595 -13.121 14.613 C-11.062 12.188 -11.062 12.188 -9.062 10.188 C-8.918 9.053 -8.774 7.919 -8.625 6.75 C-8.062 3.188 -8.062 3.188 -6.625 1.312 C-3.865 -0.675 -3.477 -0.923 0 0 Z " fill="#000000" transform="translate(344.0625,737.8125)"/>
<path d="M0 0 C0 0.99 0 1.98 0 3 C-1.056 3.218 -1.056 3.218 -2.133 3.44 C-16.173 6.38 -29.123 9.652 -42 16 C-43.66 16.684 -45.324 17.358 -47 18 C-47 17.01 -47 16.02 -47 15 C-45.379 14.076 -43.753 13.161 -42.125 12.25 C-41.22 11.74 -40.315 11.229 -39.383 10.703 C-31.376 6.672 -23.371 4.142 -14.625 2.25 C-13.169 1.919 -13.169 1.919 -11.684 1.582 C-7.643 0.685 -4.163 0 0 0 Z " fill="#000000" transform="translate(321,756)"/>
</svg>
