<?xml version="1.0" encoding="UTF-8"?>
<!-- Generator: visioncortex VTracer 0.6.0 -->
<svg version="1.1" xmlns="http://www.w3.org/2000/svg" width="847" height="847">
<path d="M0 0 C3.161 1.37 3.993 1.989 6 5 C5.625 7.188 5.625 7.188 5 9 C2.114 8.602 1.178 8.21 -0.75 5.938 C-1.162 5.298 -1.575 4.659 -2 4 C-1.34 2.68 -0.68 1.36 0 0 Z " fill="#000000" transform="translate(232,99)"/>
<path d="M0 0 C2.062 0.438 2.062 0.438 4 1 C4.161 2.091 4.322 3.183 4.487 4.307 C5.101 8.464 5.718 12.62 6.336 16.776 C6.613 18.637 6.888 20.499 7.163 22.36 C8.53 31.612 9.899 40.836 11.751 50.005 C14.147 61.979 14.559 73.889 15.041 86.056 C15.735 103.021 17.945 119.3 21 136 C21.24 137.336 21.48 138.671 21.719 140.007 C21.838 140.673 21.957 141.338 22.079 142.024 C22.198 142.685 22.316 143.346 22.438 144.027 C23.106 147.766 23.778 151.502 24.476 155.235 C24.676 156.317 24.876 157.398 25.082 158.512 C25.26 159.455 25.437 160.398 25.62 161.37 C25.993 163.954 26.069 166.393 26 169 C24.68 169.33 23.36 169.66 22 170 C20.558 166.638 19.595 163.494 18.963 159.894 C18.786 158.902 18.609 157.91 18.427 156.889 C18.243 155.827 18.06 154.766 17.871 153.672 C17.677 152.568 17.482 151.465 17.282 150.328 C16.871 147.995 16.464 145.661 16.059 143.328 C15.442 139.776 14.816 136.226 14.189 132.676 C13.791 130.404 13.393 128.132 12.996 125.859 C12.811 124.806 12.625 123.753 12.434 122.667 C10.954 114.107 9.921 105.722 9.711 97.031 C9.052 76.533 6.889 56.813 3.106 36.654 C2.957 35.863 2.809 35.073 2.656 34.258 C2.511 33.483 2.365 32.708 2.215 31.909 C1.228 26.538 0.428 21.165 -0.219 15.742 C-0.301 15.064 -0.383 14.385 -0.467 13.686 C-0.941 9.441 -1.154 5.27 -1 1 C-0.67 0.67 -0.34 0.34 0 0 Z " fill="#000000" transform="translate(423,107)"/>
<path d="M0 0 C1.32 0 2.64 0 4 0 C4.702 5.11 2.269 8.227 -0.5 12.25 C-1.516 13.771 -2.53 15.294 -3.543 16.816 C-4.375 18.058 -4.375 18.058 -5.224 19.325 C-8.485 24.237 -11.642 29.216 -14.812 34.188 C-16.187 36.337 -17.562 38.487 -18.938 40.637 C-23.323 47.502 -27.693 54.377 -32.062 61.253 C-35.95 67.365 -39.873 73.454 -43.818 79.529 C-47.58 85.331 -51.293 91.163 -55 97 C-59.524 104.122 -64.074 111.226 -68.667 118.303 C-72.887 124.811 -77.07 131.342 -81.25 137.875 C-81.912 138.909 -82.574 139.943 -83.255 141.009 C-83.898 142.014 -84.541 143.019 -85.203 144.055 C-85.833 145.035 -86.463 146.016 -87.111 147.026 C-88.404 149.062 -89.678 151.111 -90.936 153.169 C-91.55 154.168 -92.164 155.166 -92.797 156.195 C-93.614 157.545 -93.614 157.545 -94.448 158.922 C-96 161 -96 161 -99 162 C-99.66 161.34 -100.32 160.68 -101 160 C-100.618 157.066 -99.489 154.871 -97.953 152.375 C-97.527 151.679 -97.102 150.983 -96.663 150.267 C-95.963 149.145 -95.963 149.145 -95.25 148 C-94.517 146.812 -94.517 146.812 -93.769 145.601 C-89.621 138.917 -85.347 132.318 -81.043 125.735 C-77.047 119.622 -73.102 113.478 -69.188 107.312 C-59.215 91.608 -49.209 75.924 -39.081 60.319 C-35.354 54.567 -31.675 48.785 -28 43 C-22.48 34.313 -16.938 25.642 -11.31 17.024 C-9.935 14.9 -8.586 12.76 -7.238 10.617 C-6.347 9.224 -5.455 7.83 -4.562 6.438 C-4.161 5.787 -3.76 5.137 -3.347 4.467 C-2.191 2.684 -2.191 2.684 0 0 Z " fill="#000000" transform="translate(606,117)"/>
<path d="M0 0 C2.938 0.313 3.855 0.826 5.777 3.135 C6.372 4.073 6.968 5.011 7.582 5.977 C8.259 7.028 8.935 8.079 9.632 9.161 C10.359 10.316 11.086 11.47 11.812 12.625 C12.574 13.816 13.338 15.006 14.102 16.196 C15.663 18.628 17.218 21.064 18.769 23.502 C21.929 28.466 25.153 33.389 28.375 38.312 C29.607 40.202 30.839 42.091 32.07 43.98 C39.695 55.666 47.35 67.331 55 79 C78.463 114.79 78.463 114.79 85.723 125.984 C87.777 129.146 89.863 132.281 91.996 135.391 C92.436 136.042 92.876 136.694 93.33 137.365 C94.46 139.036 95.606 140.696 96.754 142.355 C98 145 98 145 97.215 147.363 C96.814 147.903 96.413 148.444 96 149 C92.062 147.687 91.45 146.047 89.219 142.578 C88.853 142.015 88.487 141.452 88.111 140.871 C86.899 139.002 85.7 137.126 84.5 135.25 C83.652 133.937 82.802 132.624 81.952 131.312 C80.181 128.578 78.415 125.841 76.65 123.103 C72.947 117.361 69.194 111.651 65.442 105.941 C63.456 102.917 61.474 99.89 59.492 96.863 C58.918 95.987 58.918 95.987 58.333 95.093 C54.066 88.575 49.811 82.05 45.557 75.523 C40.919 68.407 36.274 61.296 31.625 54.188 C30.923 53.114 30.221 52.041 29.498 50.935 C26.183 45.865 22.866 40.795 19.548 35.728 C18.023 33.399 16.498 31.07 14.974 28.741 C13.915 27.123 12.855 25.506 11.795 23.889 C10.493 21.899 9.195 19.907 7.901 17.911 C6.594 15.909 5.265 13.921 3.919 11.945 C3.268 10.972 2.616 9.999 1.945 8.996 C1.355 8.13 0.765 7.265 0.157 6.373 C-1 4 -1 4 -0.684 1.688 C-0.458 1.131 -0.233 0.574 0 0 Z " fill="#000000" transform="translate(302,125)"/>
<path d="M0 0 C4.044 2.142 6.452 4.461 9.25 8.062 C12.232 11.819 15.262 15.462 18.5 19 C21.558 22.353 24.471 25.775 27.312 29.312 C31.203 34.127 35.33 38.649 39.558 43.163 C43.46 47.353 47.073 51.722 50.656 56.188 C53.818 59.982 57.185 63.563 60.561 67.166 C63.658 70.492 66.596 73.887 69.438 77.438 C72.946 81.813 76.658 85.92 80.5 90 C85.143 94.932 89.513 99.988 93.75 105.277 C97.163 109.407 100.81 113.309 104.449 117.238 C107.025 120.028 109.554 122.846 112.027 125.727 C113.706 127.661 115.411 129.562 117.129 131.461 C118.253 132.724 119.377 133.987 120.5 135.25 C121.33 136.155 121.33 136.155 122.177 137.078 C123.719 138.828 123.719 138.828 126 142 C125.643 144.198 125.643 144.198 125 146 C120.452 145.633 118.146 142.324 115.312 139.125 C114.781 138.537 114.249 137.949 113.701 137.344 C109.782 132.977 106.081 128.455 102.41 123.879 C99.556 120.47 96.547 117.236 93.5 114 C88.874 109.087 84.527 104.049 80.309 98.777 C77.647 95.576 74.845 92.538 72 89.5 C68.351 85.604 64.843 81.667 61.5 77.5 C57.161 72.096 52.496 67.05 47.773 61.984 C41.922 55.707 36.401 49.141 30.822 42.623 C27.083 38.257 23.328 33.906 19.562 29.562 C19.031 28.948 18.499 28.333 17.951 27.699 C15.107 24.413 12.246 21.144 9.359 17.895 C8.766 17.222 8.172 16.549 7.56 15.855 C6.425 14.569 5.284 13.287 4.137 12.01 C1.335 8.824 -0.728 6.135 -2 2 C-1.34 1.34 -0.68 0.68 0 0 Z " fill="#000000" transform="translate(253,127)"/>
<path d="M0 0 C1.809 0.516 1.809 0.516 4 2 C5.193 4.603 6.165 7.049 7.062 9.75 C7.55 11.163 8.041 12.574 8.535 13.984 C8.891 15.005 8.891 15.005 9.253 16.046 C10.067 18.276 10.067 18.276 11.703 21.367 C13 24 13 24 12.688 26.375 C12.347 27.179 12.347 27.179 12 28 C10.191 27.844 10.191 27.844 8 27 C3.446 20.141 -2.068 9.547 -1 1 C-0.67 0.67 -0.34 0.34 0 0 Z " fill="#000000" transform="translate(348,131)"/>
<path d="M0 0 C0.99 0.33 1.98 0.66 3 1 C4.32 4.961 4.144 8.748 4.125 12.875 C4.129 13.659 4.133 14.442 4.137 15.25 C4.13 19.725 3.913 24.112 3.488 28.566 C2.957 35 2.939 41.394 2.973 47.848 C2.978 48.915 2.984 49.981 2.989 51.081 C3.017 55.546 3.052 60.012 3.096 64.477 C3.126 67.767 3.144 71.057 3.16 74.348 C3.174 75.358 3.187 76.368 3.201 77.409 C3.204 78.348 3.208 79.287 3.211 80.254 C3.222 81.488 3.222 81.488 3.234 82.746 C2.976 85.231 2.244 86.853 1 89 C-0.32 88.34 -1.64 87.68 -3 87 C-3.026 79.767 -3.043 72.535 -3.055 65.302 C-3.06 62.854 -3.067 60.406 -3.075 57.957 C-3.131 42.068 -2.864 26.242 -2.085 10.371 C-2.014 8.392 -2.042 6.411 -2.094 4.432 C-2 2 -2 2 0 0 Z " fill="#000000" transform="translate(456,155)"/>
<path d="M0 0 C1.32 0.33 2.64 0.66 4 1 C3.448 3.943 2.785 6.794 2 9.688 C0.791 14.405 0.377 19.155 0 24 C-1.32 24 -2.64 24 -4 24 C-6.172 17.483 -5.087 10.439 -3 4 C-1.375 1.438 -1.375 1.438 0 0 Z " fill="#000000" transform="translate(476,161)"/>
<path d="M0 0 C2.062 0.438 2.062 0.438 4 1 C3.414 4.261 2.444 5.946 0.156 8.32 C-0.426 8.933 -1.008 9.545 -1.607 10.176 C-2.232 10.819 -2.856 11.462 -3.5 12.125 C-4.794 13.482 -6.087 14.84 -7.379 16.199 C-8.007 16.856 -8.635 17.512 -9.282 18.189 C-11.379 20.399 -13.415 22.659 -15.438 24.938 C-25.121 35.746 -35.099 46.257 -45.457 56.42 C-48.465 59.387 -51.368 62.378 -54.113 65.59 C-59.101 71.367 -64.476 76.773 -69.844 82.194 C-71.084 83.451 -72.318 84.712 -73.547 85.979 C-75.336 87.823 -77.14 89.649 -78.949 91.473 C-79.497 92.043 -80.045 92.614 -80.61 93.202 C-82.178 94.762 -82.178 94.762 -85 97 C-87.378 96.845 -87.378 96.845 -89 96 C-88.423 92.6 -87.39 91.073 -84.875 88.75 C-82.366 86.415 -80.097 83.974 -77.87 81.374 C-74.061 77.007 -70.026 72.915 -65.906 68.844 C-65.156 68.097 -64.406 67.351 -63.632 66.581 C-60.458 63.423 -57.277 60.271 -54.097 57.118 C-51.761 54.799 -49.427 52.478 -47.094 50.156 C-46.386 49.457 -45.679 48.758 -44.95 48.037 C-40.955 44.062 -37.15 39.984 -33.482 35.704 C-30.952 32.794 -28.172 30.152 -25.406 27.469 C-22.79 24.785 -20.351 21.984 -17.896 19.154 C-14.721 15.547 -11.422 12.058 -8.125 8.562 C-7.45 7.844 -6.774 7.125 -6.078 6.385 C-1.23 1.23 -1.23 1.23 0 0 Z " fill="#000000" transform="translate(622,166)"/>
<path d="M0 0 C0.495 1.485 0.495 1.485 1 3 C-6.415 9.976 -14.122 16.376 -22.18 22.591 C-24.635 24.491 -27.075 26.411 -29.513 28.333 C-30.7 29.268 -31.888 30.2 -33.079 31.13 C-35.663 33.148 -38.219 35.182 -40.738 37.281 C-41.92 38.256 -41.92 38.256 -43.125 39.25 C-43.788 39.812 -44.45 40.374 -45.133 40.953 C-47 42 -47 42 -49.242 41.672 C-50.112 41.339 -50.112 41.339 -51 41 C-50.436 37.512 -49.41 36.127 -46.676 33.934 C-45.984 33.371 -45.292 32.809 -44.58 32.23 C-43.831 31.638 -43.083 31.047 -42.312 30.438 C-41.544 29.818 -40.775 29.198 -39.983 28.559 C-37.664 26.695 -35.334 24.845 -33 23 C-32.043 22.242 -32.043 22.242 -31.067 21.468 C-28.782 19.66 -26.494 17.856 -24.193 16.069 C-21.068 13.642 -17.986 11.175 -14.938 8.652 C-14.26 8.096 -13.582 7.539 -12.883 6.965 C-11.573 5.887 -10.269 4.801 -8.972 3.707 C-4.447 0 -4.447 0 0 0 Z " fill="#000000" transform="translate(632,203)"/>
<path d="M0 0 C3.617 1.538 5.99 3.728 8.812 6.438 C15.432 12.581 22.645 17.779 30 23 C29.67 24.32 29.34 25.64 29 27 C24.374 26.506 21.469 24.458 17.938 21.625 C17.381 21.185 16.825 20.744 16.251 20.29 C14.487 18.876 12.741 17.442 11 16 C10.115 15.273 10.115 15.273 9.212 14.532 C7.496 13.106 5.807 11.653 4.125 10.188 C3.595 9.744 3.065 9.301 2.519 8.844 C1.07 7.543 1.07 7.543 -1 5 C-0.82 2.176 -0.82 2.176 0 0 Z " fill="#000000" transform="translate(185,209)"/>
<path d="M0 0 C3.859 0 5.747 1.464 8.375 4.062 C9.597 5.362 10.805 6.675 12 8 C12.638 8.694 13.276 9.387 13.934 10.102 C16.792 13.275 19.221 16.086 21 20 C19.02 20.99 19.02 20.99 17 22 C8.895 13.895 8.895 13.895 7.439 12.433 C6.046 11.046 4.633 9.679 3.219 8.312 C0.944 5.942 -0.024 4.107 -1 1 C-0.67 0.67 -0.34 0.34 0 0 Z " fill="#000000" transform="translate(238,212)"/>
<path d="M0 0 C0.536 0.248 1.072 0.495 1.625 0.75 C1.289 3.593 0.805 4.591 -1.378 6.514 C-2.682 7.393 -2.682 7.393 -4.012 8.289 C-4.975 8.947 -5.938 9.605 -6.93 10.282 C-7.964 10.973 -8.997 11.664 -10.062 12.375 C-12.18 13.818 -14.297 15.262 -16.414 16.707 C-17.443 17.404 -18.472 18.101 -19.532 18.819 C-29.109 25.325 -38.358 32.191 -47.414 39.402 C-48.391 40.177 -49.368 40.952 -50.375 41.75 C-51.084 42.349 -51.793 42.949 -52.523 43.566 C-54.375 44.75 -54.375 44.75 -58.375 44.75 C-58.297 42.088 -57.881 40.306 -56.066 38.312 C-54.216 36.702 -52.317 35.186 -50.375 33.688 C-49.303 32.84 -49.303 32.84 -48.209 31.975 C-40.48 25.929 -32.461 20.305 -24.375 14.75 C-22.902 13.732 -21.429 12.714 -19.957 11.695 C-16.673 9.428 -13.389 7.161 -10.087 4.919 C-8.941 4.137 -7.803 3.344 -6.671 2.542 C-2.633 -0.277 -2.633 -0.277 0 0 Z " fill="#000000" transform="translate(644.375,227.25)"/>
<path d="M0 0 C6.484 0.922 10.184 7.601 13.887 12.492 C17.004 16.925 17.004 16.925 18 19 C17.67 19.99 17.34 20.98 17 22 C15.851 21.853 14.703 21.706 13.52 21.555 C10.624 21.191 7.728 20.863 4.824 20.57 C2.756 20.348 2.756 20.348 0.688 20.125 C-0.014 20.059 -0.716 19.994 -1.439 19.926 C-4.461 19.586 -6.561 19.348 -8.98 17.43 C-9.317 16.958 -9.653 16.486 -10 16 C-6.999 10.369 -3.812 5.119 0 0 Z " fill="#000000" transform="translate(166,250)"/>
<path d="M0 0 C0.99 0.66 1.98 1.32 3 2 C1.63 5.161 1.011 5.993 -2 8 C-4.688 7.625 -4.688 7.625 -7 7 C-5.547 3.171 -3.571 1.879 0 0 Z " fill="#000000" transform="translate(697,270)"/>
<path d="M0 0 C2 3 2 3 2.125 5.438 C2.726 8.084 2.726 8.084 4.734 9.07 C6.172 9.737 7.614 10.396 9.059 11.047 C11.63 12.309 12.746 13.419 14 16 C15.085 20.108 15.363 22.208 13.574 26.109 C11.537 30.602 11.285 35.065 10.938 39.938 C10.807 41.655 10.67 43.373 10.527 45.09 C10.473 45.841 10.419 46.593 10.363 47.367 C10 50 10 50 8.973 53.523 C7.525 59.149 7.81 64.765 7.91 70.535 C7.933 73.044 7.955 75.552 7.977 78.061 C7.992 79.368 8.006 80.675 8.021 82.022 C8.23 101.401 8.274 120.736 6.625 140.062 C6.562 140.809 6.498 141.555 6.433 142.323 C6.006 147.221 5.514 152.111 5 157 C4.868 158.272 4.868 158.272 4.733 159.57 C4.163 165.048 3.585 170.524 3 176 C3.424 175.468 3.848 174.936 4.285 174.388 C15.507 160.52 28.801 156.015 46 154.062 C72.533 150.704 94.178 143.47 115.371 126.82 C119.175 124.186 119.175 124.186 122 124 C124 126 124 126 124.438 129.188 C123.596 155.18 101.171 179.862 83.684 196.695 C57.991 220.728 26.134 226.425 -8 226 C-8.097 226.634 -8.193 227.268 -8.292 227.921 C-9.593 235.777 -11.724 243.228 -14.125 250.812 C-14.324 251.445 -14.523 252.077 -14.728 252.729 C-24.105 282.516 -36.081 311.052 -50 339 C-50.535 340.079 -51.069 341.157 -51.62 342.269 C-67.951 375.036 -87.626 405.765 -109.561 435.062 C-113.183 439.941 -116.629 444.944 -120 450 C-125.523 449.524 -129.579 448.001 -134.375 445.188 C-135.404 444.595 -135.404 444.595 -136.455 443.99 C-149.746 436.174 -162.083 426.755 -174 417 C-174.547 416.557 -175.094 416.115 -175.658 415.659 C-184.92 408.111 -193.413 399.794 -201.875 391.375 C-202.409 390.846 -202.943 390.317 -203.494 389.772 C-210.471 382.848 -216.868 375.697 -223 368 C-223.935 366.898 -224.876 365.802 -225.828 364.715 C-245.319 342.364 -260.641 316.833 -275 291 C-279.139 291.584 -282.043 293.958 -285.312 296.375 C-285.923 296.818 -286.533 297.26 -287.162 297.716 C-290.391 300.064 -293.596 302.442 -296.797 304.828 C-320.034 322.124 -339.766 329.746 -368.938 326.25 C-378.742 324.707 -388.933 323.071 -397 317 C-398.125 315.125 -398.125 315.125 -398 313 C-395.235 308.056 -392.412 305.658 -387.562 302.812 C-377.562 296.703 -369.124 289.012 -360.562 281.062 C-341.642 263.508 -322.41 249.926 -298 241 C-298.281 240.264 -298.562 239.528 -298.851 238.77 C-315.467 194.978 -328.022 150.132 -333.312 103.5 C-333.434 102.429 -333.434 102.429 -333.559 101.336 C-335.166 87 -336.181 72.685 -336.125 58.25 C-336.131 56.721 -336.131 56.721 -336.137 55.16 C-336.133 52.105 -336.071 49.055 -336 46 C-336.005 44.936 -336.01 43.872 -336.015 42.775 C-335.811 35.203 -335.811 35.203 -333.74 32.133 C-331.925 30.491 -330.099 29.259 -328 28 C-327.209 27.497 -326.418 26.994 -325.603 26.475 C-322.976 24.856 -320.313 23.327 -317.625 21.812 C-316.73 21.292 -315.836 20.772 -314.914 20.236 C-285.663 3.592 -241.119 5.494 -209 12 C-208.244 12.145 -207.489 12.289 -206.71 12.438 C-174.956 18.578 -142.273 29.731 -114.781 46.953 C-106.889 49.924 -98.029 45.103 -90.825 41.874 C-75.246 34.416 -60.956 21.497 -50.328 7.996 C-45.528 3.881 -37.882 3.562 -31.738 2.676 C-30.608 2.51 -30.608 2.51 -29.454 2.341 C-27.876 2.111 -26.297 1.883 -24.718 1.658 C-22.307 1.312 -19.899 0.952 -17.49 0.592 C-15.948 0.369 -14.406 0.147 -12.863 -0.074 C-11.791 -0.237 -11.791 -0.237 -10.698 -0.402 C-6.912 -0.928 -3.647 -1.274 0 0 Z M-285 18 C-285.235 20.086 -285.235 20.086 -283.637 21.375 C-282.993 21.911 -282.35 22.447 -281.688 23 C-278.351 25.819 -275.166 28.742 -272 31.75 C-245.833 55.535 -209.979 71.441 -174.312 70.285 C-154.667 69.206 -136.482 63.824 -119 55 C-118.34 54.67 -117.68 54.34 -117 54 C-117 53.34 -117 52.68 -117 52 C-158.454 31.395 -238.103 -5.449 -285 18 Z M5 15 C3.47 17.343 2.086 19.763 0.676 22.18 C-0.346 23.899 -1.403 25.599 -2.52 27.258 C-7.345 34.566 -9.692 42.503 -12.297 50.784 C-16.758 64.851 -22.445 77.014 -30.949 89.051 C-37.087 97.825 -42.181 106.31 -42.062 117.25 C-42.053 118.328 -42.044 119.405 -42.035 120.516 C-42.024 121.335 -42.012 122.155 -42 123 C-40.882 120.795 -39.807 118.582 -38.773 116.336 C-32.692 103.459 -24.295 95.275 -13.559 86.313 C-5.124 79.209 -1.628 72.802 1.312 62.188 C1.496 61.529 1.68 60.87 1.87 60.191 C2.721 56.917 3.093 55.279 2 52 C1.576 52.906 1.152 53.812 0.715 54.746 C-3.241 63.023 -7.445 70.445 -14 77 C-14.99 77 -15.98 77 -17 77 C-15.647 73.31 -13.936 70.236 -11.812 66.938 C-8.542 61.467 -6.483 55.982 -4.5 49.938 C-1.622 41.203 1.82 34.122 7.68 26.941 C9.718 23.944 9.384 21.518 9 18 C7.707 16.036 7.707 16.036 6 15 C5.67 15 5.34 15 5 15 Z M-294 19 C-296.188 21.188 -295.189 26.392 -295.203 29.438 C-295.21 30.412 -295.217 31.387 -295.224 32.391 C-295.242 35.594 -295.248 38.797 -295.25 42 C-295.251 43.09 -295.252 44.181 -295.253 45.304 C-295.241 64.058 -294.308 82.387 -292 101 C-291.85 102.247 -291.7 103.494 -291.546 104.779 C-285.725 152.455 -274.308 199.892 -255 244 C-254.595 244.931 -254.189 245.863 -253.771 246.822 C-235.821 287.75 -211.843 323.226 -180.375 354.875 C-179.798 355.457 -179.221 356.04 -178.626 356.64 C-171.405 363.913 -164.034 370.624 -156 377 C-154.898 377.935 -153.802 378.876 -152.715 379.828 C-140.421 390.549 -127.024 399.723 -113.5 408.812 C-112.585 409.43 -111.671 410.047 -110.729 410.683 C-109.88 411.248 -109.031 411.813 -108.156 412.395 C-107.402 412.898 -106.647 413.402 -105.869 413.921 C-104.071 415.167 -104.071 415.167 -102 415 C-102.694 401.612 -103.59 388.245 -104.562 374.875 C-104.703 372.934 -104.843 370.992 -104.982 369.051 C-105.32 364.367 -105.66 359.684 -106 355 C-108.64 354.67 -111.28 354.34 -114 354 C-114 352.68 -114 351.36 -114 350 C-111.36 350.33 -108.72 350.66 -106 351 C-106 347.04 -106 343.08 -106 339 C-110.426 337.555 -110.426 337.555 -115 337 C-115 336.01 -115 335.02 -115 334 C-112.36 334 -109.72 334 -107 334 C-107 319.81 -107 305.62 -107 291 C-109.64 290.67 -112.28 290.34 -115 290 C-114.67 289.01 -114.34 288.02 -114 287 C-111.69 287 -109.38 287 -107 287 C-106.193 284.118 -105.825 281.44 -105.684 278.453 C-105.621 277.187 -105.621 277.187 -105.557 275.895 C-105.517 275.022 -105.478 274.149 -105.438 273.25 C-105.373 271.918 -105.373 271.918 -105.307 270.559 C-105.201 268.373 -105.1 266.186 -105 264 C-108.63 264 -112.26 264 -116 264 C-116 261.69 -116 259.38 -116 257 C-117.217 257.165 -118.434 257.33 -119.688 257.5 C-137.751 259.388 -153.351 255.953 -168.34 245.344 C-179.731 236.073 -186.941 221.398 -189 207 C-190.799 185.316 -185.882 167.065 -172.348 149.758 C-164.131 140.106 -154.041 133.87 -142 130 C-141.01 130 -140.02 130 -139 130 C-139 130.99 -139 131.98 -139 133 C-141.125 134.578 -141.125 134.578 -144 136.25 C-159.484 145.774 -170.359 160.315 -175 178 C-178.397 194.486 -176.458 212.918 -167.758 227.477 C-159.177 239.794 -148.282 248.875 -133.559 252.621 C-130.455 253.081 -127.449 253.17 -124.312 253.188 C-123.174 253.202 -122.036 253.216 -120.863 253.23 C-117.869 253.301 -117.869 253.301 -116 251 C-115.626 247.978 -115.626 247.978 -115.586 244.395 C-115.557 243.392 -115.557 243.392 -115.527 242.37 C-115.467 240.184 -115.42 237.998 -115.375 235.812 C-115.337 234.316 -115.299 232.819 -115.26 231.323 C-114.962 219.215 -114.89 207.11 -115 195 C-121.656 197.029 -124.53 202.277 -128 208 C-129.301 211.007 -130.166 213.819 -131 217 C-133.707 216.646 -134.74 216.33 -136.457 214.145 C-136.904 213.375 -137.352 212.605 -137.812 211.812 C-144.798 200.783 -154.72 196.98 -167 194 C-167.33 192.68 -167.66 191.36 -168 190 C-167.265 189.734 -166.53 189.469 -165.773 189.195 C-153.724 184.002 -145.768 172.789 -141 161 C-139.801 157.034 -138.821 153.061 -138 149 C-136.68 149 -135.36 149 -134 149 C-133.756 149.826 -133.513 150.653 -133.262 151.504 C-131.797 155.563 -129.923 159.183 -127.812 162.938 C-127.416 163.644 -127.02 164.35 -126.611 165.078 C-123.657 170.189 -120.568 174.193 -116 178 C-115.67 178 -115.34 178 -115 178 C-114.67 164.47 -114.34 150.94 -114 137 C-118.641 134.215 -121.653 133.351 -126.812 132.812 C-127.505 132.731 -128.198 132.649 -128.912 132.564 C-130.607 132.366 -132.303 132.181 -134 132 C-134.33 130.68 -134.66 129.36 -135 128 C-125.407 124.213 -115.898 124.194 -106.359 128.074 C-93.329 134.258 -85.924 144.658 -81 158 C-78.551 165.843 -76.321 173.75 -76 182 C-75.948 183.094 -75.897 184.189 -75.844 185.316 C-75.271 208.211 -82.682 228.845 -98.555 245.641 C-101.527 248.509 -104.51 250.8 -108 253 C-105.584 253.864 -104.3 254.088 -101.809 253.355 C-87.971 246.539 -79.262 235.961 -73.875 221.707 C-66.038 197.461 -65.695 167.251 -77 144 C-82.154 134.57 -89.02 127.032 -99.035 122.832 C-104.106 121.409 -108.765 121.692 -114 122 C-114 116.39 -114 110.78 -114 105 C-115.877 104.608 -117.754 104.216 -119.688 103.812 C-124.78 102.529 -127.893 101.454 -131 97 C-133.347 92.199 -133.366 88.068 -132 83 C-130.056 78.879 -128.278 76.832 -124.125 75.125 C-120.68 74.018 -117.626 73.823 -114 74 C-112.582 72.811 -112.582 72.811 -112.902 69.402 C-112.909 67.914 -112.921 66.426 -112.938 64.938 C-112.944 63.8 -112.944 63.8 -112.951 62.639 C-112.963 60.759 -112.981 58.88 -113 57 C-117.04 57.622 -120.218 58.945 -123.875 60.75 C-155.41 75.542 -190.304 76.527 -223 65 C-247.472 55.803 -269.935 40.416 -287.613 21.152 C-289.959 18.554 -289.959 18.554 -294 19 Z M-308.586 24.555 C-309.982 25.353 -309.982 25.353 -311.406 26.168 C-312.876 27.013 -312.876 27.013 -314.375 27.875 C-315.833 28.708 -315.833 28.708 -317.32 29.559 C-322.734 32.659 -322.734 32.659 -328 36 C-336.904 72.839 -325.285 121.069 -317 157 C-316.727 158.196 -316.455 159.392 -316.174 160.624 C-308.421 194.049 -296.887 226.648 -283 258 C-282.481 259.178 -281.962 260.357 -281.427 261.571 C-274.173 277.919 -266.169 293.645 -257 309 C-256.566 309.731 -256.132 310.461 -255.686 311.214 C-245.572 328.143 -234.097 344.146 -221.446 359.262 C-220.091 360.891 -218.758 362.534 -217.434 364.188 C-213.714 368.82 -209.946 373.205 -205.672 377.332 C-203.892 379.108 -202.261 380.965 -200.625 382.875 C-194.305 390.185 -187.338 396.731 -180 403 C-178.982 403.892 -177.965 404.786 -176.949 405.68 C-160.676 419.921 -142.881 434.159 -123 443 C-121.991 441.904 -120.993 440.798 -120 439.688 C-119.443 439.073 -118.886 438.458 -118.312 437.824 C-116.708 435.969 -116.708 435.969 -117 433 C-118.038 432.706 -118.038 432.706 -119.098 432.406 C-134.266 427.77 -146.593 419.626 -159 410 C-159.905 409.309 -160.81 408.618 -161.742 407.906 C-179.055 394.41 -195.586 378.366 -209 361 C-209.822 360.029 -210.645 359.059 -211.492 358.059 C-248.242 314.502 -273.819 259.65 -289 205 C-289.302 203.913 -289.605 202.825 -289.917 201.705 C-297.683 173.293 -302.522 144.335 -305 115 C-305.094 113.955 -305.189 112.91 -305.286 111.834 C-306.158 101.228 -306.238 90.635 -306.25 80 C-306.252 79.04 -306.255 78.08 -306.257 77.091 C-306.272 61.104 -305.372 45.479 -303.275 29.623 C-303.006 27.06 -302.951 24.575 -303 22 C-305.001 22 -306.91 23.595 -308.586 24.555 Z M-119 79 C-119.922 81.766 -120.118 83.383 -120.098 86.23 C-120.094 87.033 -120.091 87.835 -120.088 88.662 C-120.08 89.495 -120.071 90.329 -120.062 91.188 C-120.058 92.032 -120.053 92.877 -120.049 93.748 C-120.037 95.832 -120.019 97.916 -120 100 C-114.694 99.461 -114.694 99.461 -110.125 96.875 C-107.541 93.379 -107 91.336 -107 87 C-108.515 82.985 -109.406 81.396 -113 79 C-116.125 78.833 -116.125 78.833 -119 79 Z M77.938 163.688 C70.407 168.832 62.551 172.746 54.25 176.5 C45.37 180.517 36.575 184.606 27.938 189.125 C27.07 189.574 26.202 190.023 25.308 190.486 C24.514 190.906 23.72 191.326 22.902 191.758 C21.874 192.301 21.874 192.301 20.824 192.856 C18.895 194.066 17.451 195.244 16 197 C16.228 199.163 16.228 199.163 17 201 C22.14 200.516 25.639 198.639 29.875 195.875 C35.061 192.629 40.239 189.822 45.875 187.438 C46.535 187.157 47.196 186.877 47.876 186.589 C49.229 186.017 50.583 185.446 51.937 184.877 C61.59 180.775 70.898 176.294 79.812 170.75 C80.808 170.132 80.808 170.132 81.824 169.501 C85.278 167.292 88.219 165.055 91 162 C90.505 160.515 90.505 160.515 90 159 C84.849 158.267 81.914 160.833 77.938 163.688 Z M-136 160 C-136.385 161.091 -136.385 161.091 -136.777 162.203 C-140.878 172.974 -146.71 182.574 -156.566 188.914 C-157.276 189.452 -157.276 189.452 -158 190 C-158 190.66 -158 191.32 -158 192 C-157.238 192.28 -156.476 192.559 -155.691 192.848 C-146.528 196.405 -139.851 201.011 -133 208 C-132.472 207.039 -132.472 207.039 -131.934 206.059 C-127.863 198.928 -123.527 193.161 -116.562 188.688 C-115.717 188.131 -114.871 187.574 -114 187 C-114 186.34 -114 185.68 -114 185 C-115.296 183.971 -116.639 183.003 -118 182.062 C-125.6 176.33 -130.566 168.314 -135 160 C-135.33 160 -135.66 160 -136 160 Z M-297.562 271.375 C-298.516 271.828 -299.47 272.282 -300.453 272.749 C-306.174 275.512 -311.659 278.476 -317.062 281.812 C-325.87 287.24 -335.238 291.448 -344.645 295.71 C-345.811 296.239 -346.978 296.768 -348.18 297.312 C-349.753 298.018 -349.753 298.018 -351.359 298.738 C-354.136 299.988 -354.136 299.988 -357 302 C-356.733 303.985 -356.733 303.985 -356 306 C-351.687 307.438 -348.923 305.502 -345 303.688 C-344.203 303.325 -343.405 302.963 -342.583 302.589 C-329.022 296.336 -316.01 289.022 -302.962 281.779 C-297.094 278.543 -291.194 275.571 -285 273 C-285.495 270.03 -285.495 270.03 -286 267 C-290.069 267 -293.949 269.652 -297.562 271.375 Z " fill="#000000" transform="translate(570,277)"/>
<path d="M0 0 C0.99 0.33 1.98 0.66 3 1 C2.397 4.505 2.099 4.921 -0.895 7.305 C-2.193 8.172 -3.5 9.028 -4.812 9.875 C-6.279 10.853 -7.745 11.832 -9.211 12.812 C-9.99 13.329 -10.77 13.846 -11.573 14.379 C-26.197 24.148 -40.66 34.351 -54.172 45.625 C-55.51 46.739 -55.51 46.739 -56.875 47.875 C-57.615 48.512 -58.355 49.149 -59.117 49.805 C-60.049 50.396 -60.049 50.396 -61 51 C-61.99 50.67 -62.98 50.34 -64 50 C-62.839 42.083 -52.544 36.581 -46.518 32.078 C-35.823 24.186 -24.968 16.509 -14 9 C-13.277 8.505 -12.555 8.009 -11.811 7.499 C-9.862 6.173 -7.903 4.864 -5.938 3.562 C-4.853 2.842 -3.769 2.121 -2.652 1.379 C-1.777 0.924 -0.902 0.469 0 0 Z " fill="#000000" transform="translate(661,286)"/>
<path d="M0 0 C0.99 0.66 1.98 1.32 3 2 C3.537 5.068 3.537 5.068 3.773 9.059 C3.874 10.556 3.974 12.054 4.075 13.552 C4.123 14.346 4.172 15.141 4.221 15.96 C8.646 87.275 25.751 163.36 63.77 224.523 C65 227 65 227 64 230 C62.68 230 61.36 230 60 230 C37.759 192.275 21.93 151.652 12 109 C11.721 107.803 11.441 106.606 11.153 105.372 C3.316 71.281 -2.779 36.072 -2 1 C-1.34 0.67 -0.68 0.34 0 0 Z " fill="#000000" transform="translate(285,327)"/>
<path d="M0 0 C2.875 1 2.875 1 4.812 2.625 C6.373 6.113 5.867 8.364 4.875 12 C3.188 14 3.188 14 0.875 15 C-2.235 14.873 -4.326 14.48 -7 12.875 C-8.848 9.795 -8.616 7.496 -8.125 4 C-5.459 0.864 -4.137 0 0 0 Z " fill="#000000" transform="translate(304.125,331)"/>
<path d="M0 0 C-0.287 1.885 -0.287 1.885 -1 4 C-3.669 5.442 -6.184 6.599 -8.988 7.715 C-9.802 8.052 -10.615 8.39 -11.454 8.738 C-14.068 9.819 -16.69 10.878 -19.312 11.938 C-21.038 12.646 -22.762 13.357 -24.486 14.068 C-27.812 15.44 -31.143 16.797 -34.479 18.144 C-37.267 19.276 -40.028 20.444 -42.767 21.688 C-43.828 22.163 -44.888 22.639 -45.98 23.129 C-46.87 23.543 -47.76 23.958 -48.677 24.385 C-51 25 -51 25 -53.314 24.117 C-53.87 23.748 -54.427 23.38 -55 23 C-54 20 -54 20 -52.004 18.808 C-51.128 18.427 -50.251 18.045 -49.348 17.652 C-48.355 17.216 -47.363 16.78 -46.34 16.331 C-44.718 15.641 -44.718 15.641 -43.062 14.938 C-41.958 14.461 -40.853 13.984 -39.714 13.493 C-31.405 9.944 -23.038 6.545 -14.625 3.25 C-13.509 2.808 -12.393 2.366 -11.242 1.91 C-10.206 1.512 -9.169 1.113 -8.102 0.703 C-7.187 0.349 -6.273 -0.005 -5.331 -0.37 C-3 -1 -3 -1 0 0 Z " fill="#000000" transform="translate(658,344)"/>
<path d="M0 0 C4.551 0.481 6.475 2.007 9.617 5.262 C10.472 6.134 11.326 7.006 12.207 7.904 C13.087 8.823 13.968 9.741 14.875 10.688 C16.62 12.485 18.367 14.281 20.117 16.074 C20.947 16.927 21.777 17.779 22.632 18.657 C24.708 20.711 26.825 22.605 29.074 24.465 C32 27 32 27 32.938 29.875 C32.958 30.576 32.979 31.277 33 32 C26.266 31.142 22.678 26.541 18 22 C17.268 21.299 16.536 20.598 15.782 19.876 C13.3 17.493 10.835 15.093 8.375 12.688 C7.556 11.899 6.737 11.11 5.894 10.297 C5.132 9.543 4.371 8.789 3.586 8.012 C2.895 7.336 2.205 6.66 1.494 5.964 C0 4 0 4 0 0 Z " fill="#000000" transform="translate(368,373)"/>
<path d="M0 0 C-0.574 1.828 -0.574 1.828 -2 4 C-5.082 5.484 -5.082 5.484 -8.812 6.75 C-10.647 7.392 -10.647 7.392 -12.52 8.047 C-15.574 8.883 -17.868 9.215 -21 9 C-21 7.68 -21 6.36 -21 5 C-18.443 3.963 -15.881 2.946 -13.312 1.938 C-12.591 1.643 -11.87 1.348 -11.127 1.045 C-7.053 -0.536 -4.321 -1.492 0 0 Z " fill="#000000" transform="translate(634,380)"/>
<path d="M0 0 C2.64 0 5.28 0 8 0 C8.66 1.32 9.32 2.64 10 4 C9 5 9 5 5.562 5.125 C2 5 2 5 0 4 C0 2.68 0 1.36 0 0 Z " fill="#000000" transform="translate(161,423)"/>
<path d="M0 0 C1.117 0.095 1.117 0.095 2.257 0.192 C3.833 0.328 5.409 0.466 6.985 0.608 C9.396 0.823 11.808 1.022 14.221 1.221 C15.751 1.355 17.282 1.489 18.812 1.625 C19.534 1.683 20.256 1.742 21 1.802 C24.575 2.137 26.422 2.478 29.473 4.512 C29.143 5.502 28.813 6.492 28.473 7.512 C20.587 7.811 12.826 7.314 4.973 6.637 C4.005 6.558 3.037 6.48 2.041 6.399 C1.121 6.315 0.201 6.231 -0.746 6.145 C-1.57 6.071 -2.395 5.998 -3.244 5.922 C-5.648 5.49 -7.41 4.707 -9.527 3.512 C-9.527 2.522 -9.527 1.532 -9.527 0.512 C-6.447 -1.028 -3.341 -0.298 0 0 Z " fill="#000000" transform="translate(199.52734375,426.48828125)"/>
<path d="M0 0 C0.33 1.32 0.66 2.64 1 4 C-5.021 6.719 -11.549 7.751 -18 9 C-18.33 8.01 -18.66 7.02 -19 6 C-14.164 0.536 -6.971 -0.445 0 0 Z " fill="#000000" transform="translate(229,445)"/>
<path d="M0 0 C3 1 3 1 4.605 3.984 C5.144 5.235 5.671 6.49 6.188 7.75 C6.46 8.371 6.733 8.993 7.014 9.633 C8.522 13.216 9.334 16.111 9 20 C3.904 19.512 0.333 17.694 -3.875 14.938 C-4.764 14.372 -4.764 14.372 -5.672 13.795 C-7.12 12.872 -8.561 11.937 -10 11 C-9.44 7.463 -8.322 6.044 -5.562 3.812 C-4.945 3.303 -4.328 2.794 -3.691 2.27 C-2 1 -2 1 0 0 Z " fill="#000000" transform="translate(207,485)"/>
<path d="M0 0 C4.561 0.369 6.963 2.268 10.438 5.125 C16.284 9.802 22.36 14.06 28.562 18.25 C29.493 18.882 30.424 19.513 31.383 20.164 C35.23 22.773 39.078 25.378 42.932 27.976 C45.733 29.869 48.523 31.777 51.312 33.688 C52.172 34.263 53.032 34.839 53.918 35.433 C54.704 35.974 55.491 36.516 56.301 37.074 C56.993 37.544 57.686 38.014 58.4 38.499 C60.285 40.267 60.627 41.479 61 44 C59.206 44.623 59.206 44.623 57 45 C54.4 43.452 52.093 41.876 49.688 40.062 C48.162 38.948 46.636 37.835 45.109 36.723 C43.879 35.82 43.879 35.82 42.623 34.899 C38.921 32.219 35.158 29.63 31.395 27.038 C23.42 21.542 15.481 15.999 7.688 10.25 C6.701 9.535 6.701 9.535 5.695 8.805 C2.632 6.515 0.282 4.683 -1 1 C-0.67 0.67 -0.34 0.34 0 0 Z " fill="#000000" transform="translate(597,539)"/>
<path d="M0 0 C0.99 0.33 1.98 0.66 3 1 C2.67 2.65 2.34 4.3 2 6 C1.01 5.67 0.02 5.34 -1 5 C-0.67 3.35 -0.34 1.7 0 0 Z " fill="#000000" transform="translate(457,549)"/>
<path d="M0 0 C1.781 0.086 1.781 0.086 4 1 C5.362 3.209 6.435 5.276 7.5 7.625 C8.208 9.103 8.917 10.579 9.629 12.055 C10.011 12.855 10.392 13.655 10.786 14.479 C20.17 33.957 31.242 52.294 42.636 70.633 C43.951 72.751 45.257 74.875 46.562 77 C47.585 78.64 47.585 78.64 48.629 80.312 C50 83 50 83 50 87 C46.698 86.726 45.365 86.426 43.17 83.865 C42.609 82.927 42.047 81.989 41.469 81.023 C40.829 79.971 40.19 78.919 39.531 77.835 C38.854 76.682 38.177 75.529 37.5 74.375 C36.793 73.195 36.084 72.016 35.375 70.837 C29.17 60.479 23.226 49.97 17.357 39.418 C16.172 37.306 14.964 35.211 13.734 33.125 C9.842 26.506 6.297 19.779 2.938 12.875 C2.327 11.647 2.327 11.647 1.704 10.394 C1.336 9.622 0.969 8.85 0.59 8.055 C0.258 7.369 -0.073 6.683 -0.414 5.976 C-1.114 3.614 -0.789 2.3 0 0 Z " fill="#000000" transform="translate(578,564)"/>
<path d="M0 0 C3.598 1.816 6.331 4.074 9.172 6.906 C9.918 7.65 10.665 8.394 11.434 9.16 C12.58 10.318 12.58 10.318 13.75 11.5 C14.53 12.272 15.31 13.044 16.113 13.84 C16.854 14.584 17.596 15.327 18.359 16.094 C19.035 16.771 19.71 17.449 20.405 18.146 C22 20 22 20 23 23 C21.02 23.99 21.02 23.99 19 25 C16 22.074 13.009 19.138 10.028 16.193 C9.012 15.192 7.993 14.194 6.972 13.198 C5.506 11.768 4.049 10.329 2.594 8.887 C1.714 8.023 0.834 7.159 -0.072 6.268 C-2 4 -2 4 -2 1 C-1.34 0.67 -0.68 0.34 0 0 Z " fill="#000000" transform="translate(394,565)"/>
<path d="M0 0 C3.256 0.26 4.057 1.065 6.254 3.582 C7.397 5.181 7.397 5.181 8.562 6.812 C9.327 7.871 10.091 8.929 10.879 10.02 C11.579 11.003 12.279 11.987 13 13 C13.593 13.741 14.186 14.482 14.797 15.246 C16 17 16 17 15.688 19.25 C15.461 19.827 15.234 20.405 15 21 C11.247 19.497 9.398 17.35 6.938 14.188 C6.266 13.335 5.594 12.483 4.902 11.605 C0 4.891 0 4.891 0 0 Z " fill="#000000" transform="translate(370,575)"/>
<path d="M0 0 C0.99 0 1.98 0 3 0 C3 3.63 3 7.26 3 11 C1.68 10.67 0.36 10.34 -1 10 C-1.027 8.521 -1.046 7.042 -1.062 5.562 C-1.074 4.739 -1.086 3.915 -1.098 3.066 C-1 1 -1 1 0 0 Z " fill="#000000" transform="translate(457,578)"/>
<path d="M0 0 C1.902 0.282 1.902 0.282 4 1 C5.238 3.754 6.181 6.318 7.066 9.188 C7.342 10.029 7.617 10.87 7.901 11.737 C8.492 13.546 9.077 15.358 9.656 17.171 C11.17 21.898 12.744 26.604 14.324 31.309 C14.636 32.238 14.949 33.168 15.27 34.126 C19.104 45.421 23.812 56.263 29 67 C29.395 67.818 29.79 68.635 30.196 69.478 C32.932 75.099 35.743 80.677 38.719 86.176 C40 89 40 89 40 93 C38.164 92.763 38.164 92.763 36 92 C34.619 90.188 34.619 90.188 33.371 87.785 C32.899 86.885 32.427 85.985 31.941 85.058 C31.445 84.069 30.949 83.081 30.438 82.062 C29.913 81.033 29.389 80.004 28.848 78.944 C-0.688 20.053 -0.688 20.053 0 0 Z " fill="#000000" transform="translate(555,591)"/>
<path d="M0 0 C4.968 1.498 7.972 4.43 11.625 7.938 C12.484 8.745 12.484 8.745 13.359 9.568 C15.946 12.008 18.493 14.479 21 17 C20.67 17.99 20.34 18.98 20 20 C16.159 19.472 14.096 18.62 11.266 15.98 C10.609 15.37 9.953 14.76 9.277 14.131 C8.274 13.169 8.274 13.169 7.25 12.188 C6.566 11.558 5.881 10.928 5.176 10.279 C-0.496 4.928 -0.496 4.928 -1 1 C-0.67 0.67 -0.34 0.34 0 0 Z " fill="#000000" transform="translate(626,593)"/>
<path d="M0 0 C0.99 0 1.98 0 3 0 C4.125 5.625 4.125 5.625 3 9 C1.68 8.67 0.36 8.34 -1 8 C-1.042 5.667 -1.041 3.333 -1 1 C-0.67 0.67 -0.34 0.34 0 0 Z " fill="#000000" transform="translate(457,594)"/>
<path d="M0 0 C4.163 0.583 6.836 2.878 10.125 5.375 C11.179 6.166 12.234 6.958 13.32 7.773 C16 10 16 10 18 13 C17.67 13.66 17.34 14.32 17 15 C11.754 14.615 8.94 11.788 5.188 8.438 C4.291 7.657 4.291 7.657 3.377 6.861 C1.911 5.583 0.454 4.292 -1 3 C-0.67 2.01 -0.34 1.02 0 0 Z " fill="#000000" transform="translate(679,597)"/>
<path d="M0 0 C2.062 0.438 2.062 0.438 4 1 C3.616 3.425 3.269 4.726 1.528 6.501 C-3.954 10.463 -9.667 13.678 -15.688 16.75 C-16.611 17.231 -17.535 17.712 -18.486 18.207 C-30.321 24.325 -30.321 24.325 -36 24 C-36 22.68 -36 21.36 -36 20 C-35.049 19.563 -35.049 19.563 -34.079 19.117 C-15.874 11.448 -15.874 11.448 0 0 Z " fill="#000000" transform="translate(299,612)"/>
<path d="M0 0 C4.215 3.053 6.977 6.326 9.875 10.562 C10.29 11.139 10.705 11.716 11.133 12.311 C12.305 14.004 12.305 14.004 14 17 C13.67 17.99 13.34 18.98 13 20 C10.567 19.615 9.286 19.291 7.536 17.51 C7.096 16.886 6.656 16.263 6.203 15.621 C5.478 14.611 5.478 14.611 4.738 13.58 C4.247 12.873 3.756 12.166 3.25 11.438 C2.743 10.727 2.237 10.016 1.715 9.283 C0.467 7.529 -0.768 5.765 -2 4 C-1.34 2.68 -0.68 1.36 0 0 Z " fill="#000000" transform="translate(402,614)"/>
<path d="M0 0 C-0.273 4.393 -2 6.393 -5.207 9.301 C-6.033 10.018 -6.033 10.018 -6.875 10.75 C-7.689 11.491 -7.689 11.491 -8.52 12.246 C-10.988 14.449 -12.831 15.944 -16 17 C-16.66 16.67 -17.32 16.34 -18 16 C-17.571 11.595 -14.586 9.213 -11.562 6.312 C-11.059 5.814 -10.556 5.316 -10.037 4.803 C-5.13 0 -5.13 0 0 0 Z " fill="#000000" transform="translate(309,627)"/>
<path d="M0 0 C1.938 1.062 1.938 1.062 3 3 C3.5 6.931 3.6 9.101 1.375 12.438 C-1.737 14.485 -3.344 14.686 -7 14 C-9.438 11.875 -9.438 11.875 -11 9 C-10.936 5.816 -10.51 3.851 -8.875 1.125 C-5.876 -0.675 -3.406 -0.365 0 0 Z " fill="#000000" transform="translate(453,644)"/>
<path d="M0 0 C2.817 0.08 4.489 0.476 6.48 2.52 C9.062 5.954 9.062 5.954 10 8 C9.67 8.99 9.34 9.98 9 11 C5.582 10.747 4.723 9.716 2.25 7.188 C0 4 0 4 0 0 Z " fill="#000000" transform="translate(642,671)"/>
<path d="M0 0 C2.747 0.05 4.462 0.451 6.412 2.44 C7.905 4.378 9.308 6.355 10.688 8.375 C11.415 9.404 11.415 9.404 12.158 10.453 C18.036 18.788 18.036 18.788 17.625 21.188 C17.316 22.085 17.316 22.085 17 23 C9 21.667 1 20.333 -7 19 C-7.746 16.957 -7.746 16.957 -8 14 C-6.785 11.389 -5.572 9.111 -4.062 6.688 C-3.676 6.042 -3.29 5.397 -2.893 4.732 C-1.941 3.147 -0.972 1.572 0 0 Z " fill="#000000" transform="translate(324,688)"/>
<path d="M0 0 C4.528 1.559 6.646 5.072 9.312 8.812 C9.78 9.429 10.247 10.046 10.729 10.682 C12.823 13.593 14.049 15.299 13.793 18.949 C13.531 19.626 13.27 20.303 13 21 C5.941 19.877 -1.038 18.624 -8 17 C-8.742 14.859 -8.742 14.859 -9 12 C-7.383 9.141 -7.383 9.141 -5.125 6.25 C-4.385 5.286 -3.645 4.322 -2.883 3.328 C-1 1 -1 1 0 0 Z " fill="#000000" transform="translate(605,707)"/>
</svg>
