<?xml version="1.0" encoding="UTF-8"?>
<!-- Generator: visioncortex VTracer 0.6.0 -->
<svg version="1.1" xmlns="http://www.w3.org/2000/svg" width="847" height="847">
<path d="M0 0 C7.369 5.935 12.107 13.809 13.172 23.254 C13.295 24.627 13.413 26 13.516 27.375 C14.068 27.179 14.62 26.982 15.189 26.78 C48.543 15.025 76.743 15.929 110.898 24.746 C122.15 27.449 134.015 26.708 145.453 25.75 C153.353 25.207 158.459 25.447 164.828 30.562 C168.84 34.386 171.219 38.01 171.719 43.676 C171.793 47.436 171.532 50.744 170.516 54.375 C171.228 54.787 171.941 55.2 172.676 55.625 C181.281 60.814 188.568 66.385 191.516 76.375 C193.619 88.45 192.059 99.731 185.262 110.07 C182.414 113.829 179.453 117.721 175.516 120.375 C173.273 120.082 173.273 120.082 171.516 119.375 C171.262 120.094 171.008 120.814 170.746 121.555 C169.432 124.567 167.773 126.857 165.828 129.5 C162.361 134.761 162.022 138.138 163.148 144.258 C163.27 144.956 163.391 145.655 163.516 146.375 C163.186 146.705 162.856 147.035 162.516 147.375 C162.02 156.105 162.734 164.917 163.328 173.625 C163.398 174.839 163.469 176.054 163.541 177.305 C163.995 183.979 164.955 189.22 167.516 195.375 C171.962 216.623 168.977 238.997 157.516 257.375 C147.635 271.16 133.227 278.979 117.008 282.996 C114.042 283.447 111.202 283.47 108.203 283.438 C106.326 283.417 104.449 283.396 102.516 283.375 C102.846 287.995 103.176 292.615 103.516 297.375 C104.732 297.457 105.949 297.54 107.203 297.625 C117.37 298.764 130.778 301.94 137.503 310.306 C139.749 314.897 139.011 320.266 138.828 325.25 C138.806 326.415 138.783 327.581 138.76 328.781 C138.701 331.647 138.619 334.51 138.516 337.375 C139.251 337.659 139.987 337.944 140.745 338.237 C161.467 346.751 171.579 359.993 181.516 379.375 C181.93 380.182 182.344 380.99 182.77 381.821 C204.379 424.498 216.43 471.841 225.93 518.511 C226.454 521.075 226.996 523.634 227.547 526.191 C227.829 527.523 228.11 528.855 228.391 530.188 C228.727 531.775 228.727 531.775 229.07 533.395 C229.585 536.842 229.848 539.897 229.516 543.375 C227.801 545.23 227.801 545.23 225.578 546.562 C222.393 548.408 222.393 548.408 220.762 551.551 C220.681 552.153 220.599 552.755 220.516 553.375 C226.185 550.525 231.334 547.162 236.453 543.438 C248.619 534.611 248.619 534.611 253.516 532.375 C254.176 532.705 254.836 533.035 255.516 533.375 C255.433 534.53 255.351 535.685 255.266 536.875 C255.398 557.951 267.536 577.393 281.828 591.938 C284.594 594.65 287.366 597.119 290.516 599.375 C288.929 603.683 286.83 607.637 284.578 611.625 C284.185 612.322 283.791 613.018 283.386 613.736 C278.759 621.83 273.696 629.627 268.516 637.375 C268.064 638.051 267.613 638.726 267.148 639.422 C260.737 648.975 254.014 658.268 247.024 667.404 C246.001 668.74 244.981 670.079 243.964 671.42 C242.468 673.391 240.963 675.353 239.453 677.312 C239 677.91 238.547 678.508 238.08 679.124 C234.861 683.26 234.861 683.26 231.516 684.375 C230.268 679.147 229.023 673.918 227.78 668.689 C227.358 666.914 226.935 665.139 226.512 663.365 C222.181 645.215 222.181 645.215 220.516 636.375 C218.866 637.035 217.216 637.695 215.516 638.375 C215.812 639.556 216.109 640.737 216.414 641.954 C219.795 655.424 223.162 668.898 226.516 682.375 C226.715 683.174 226.914 683.973 227.119 684.796 C230.717 699.247 234.277 713.641 236.516 728.375 C231.15 730.521 226.076 732.044 220.391 733.023 C219.24 733.23 219.24 733.23 218.066 733.441 C215.551 733.887 213.033 734.32 210.516 734.75 C209.641 734.901 208.766 735.052 207.864 735.208 C175.94 740.7 143.831 744.241 111.516 746.375 C109.911 746.483 109.911 746.483 108.275 746.593 C44.008 750.667 -23.946 747.833 -86.484 731.375 C-85.215 724.329 -83.466 717.561 -81.332 710.73 C-81.031 709.758 -80.73 708.785 -80.421 707.783 C-79.788 705.744 -79.154 703.706 -78.517 701.669 C-77.545 698.556 -76.586 695.439 -75.627 692.322 C-75.009 690.333 -74.389 688.344 -73.77 686.355 C-73.343 684.965 -73.343 684.965 -72.907 683.546 C-70.618 676.28 -68.634 671.718 -61.984 667.562 C-44.329 656.223 -26.663 643.109 -12.055 627.949 C-10.272 626.162 -8.397 624.522 -6.484 622.875 C-0.703 617.873 4.499 612.492 9.477 606.695 C11.081 604.869 12.708 603.081 14.367 601.305 C15.115 600.502 15.115 600.502 15.878 599.682 C16.872 598.618 17.87 597.557 18.872 596.499 C21.086 594.123 22.475 592.498 23.516 589.375 C18.189 590.829 15.496 594.275 11.953 598.25 C5.812 604.968 -0.484 611.502 -6.922 617.938 C-7.75 618.769 -8.577 619.601 -9.43 620.458 C-14.285 625.304 -19.25 629.943 -24.484 634.375 C-25.079 634.881 -25.673 635.387 -26.285 635.909 C-77.413 679.088 -77.413 679.088 -101.992 678.645 C-112.023 677.56 -119.18 671.504 -125.461 664.02 C-140.004 644.557 -137.717 619.189 -134.566 596.434 C-127.822 551.201 -115.25 506.917 -101.484 463.375 C-101.238 462.593 -100.992 461.811 -100.738 461.006 C-89.657 425.914 -77.737 388.459 -54.484 359.375 C-54.05 358.825 -53.615 358.275 -53.167 357.708 C-45.779 348.4 -45.779 348.4 -41.84 345.281 C-39.545 343.424 -38.479 342.065 -37.109 339.5 C-33.966 334.218 -30.104 330.685 -24.609 327.938 C-19.926 327.095 -14.807 327.213 -10.484 329.375 C-10.313 328.78 -10.143 328.185 -9.967 327.572 C-8.07 321.096 -5.912 314.757 -3.547 308.438 C-3.212 307.506 -2.878 306.575 -2.533 305.615 C-2.199 304.723 -1.864 303.83 -1.52 302.91 C-1.224 302.11 -0.929 301.309 -0.625 300.485 C1.099 297.296 3.317 295.772 6.723 294.645 C17.567 292.742 28.544 293.194 39.516 293.375 C39.455 292.811 39.394 292.247 39.332 291.666 C39.056 289.069 38.786 286.472 38.516 283.875 C38.373 282.545 38.373 282.545 38.227 281.188 C37.68 275.883 37.416 270.708 37.516 265.375 C36.933 265.508 36.35 265.641 35.75 265.777 C-2.38 273.991 -46.137 267.76 -79.484 247.375 C-83.048 244.921 -86.29 242.289 -89.484 239.375 C-90.558 238.457 -90.558 238.457 -91.652 237.52 C-98.889 230.935 -103.879 222.085 -104.652 212.234 C-104.753 201.332 -101.92 191.744 -94.711 183.297 C-93.016 181.594 -91.277 179.973 -89.484 178.375 C-86.013 174.988 -82.861 171.498 -79.816 167.73 C-79.377 167.283 -78.937 166.836 -78.484 166.375 C-77.824 166.375 -77.164 166.375 -76.484 166.375 C-76.239 165.816 -75.995 165.256 -75.742 164.68 C-74.249 161.943 -72.409 159.85 -70.359 157.5 C-59.871 144.705 -55.473 132.188 -51.484 116.375 C-50.468 112.395 -49.446 108.416 -48.422 104.438 C-48.176 103.475 -47.93 102.513 -47.677 101.521 C-45.713 93.955 -43.335 86.654 -40.484 79.375 C-41.227 79.117 -41.969 78.859 -42.734 78.594 C-50.838 75.002 -55.225 67.25 -58.484 59.375 C-61.233 51.13 -60.046 41.77 -56.766 33.863 C-54.798 30.043 -52.54 26.422 -49.484 23.375 C-48.824 23.375 -48.164 23.375 -47.484 23.375 C-47.355 22.323 -47.355 22.323 -47.223 21.25 C-45.769 11.438 -42.348 5.167 -34.648 -1.148 C-23.905 -8.479 -10.539 -6.894 0 0 Z M-37.984 6.938 C-39.841 9.274 -41.412 11.58 -42.484 14.375 C-42.186 16.572 -42.186 16.572 -41.484 18.375 C-40.597 17.959 -40.597 17.959 -39.691 17.535 C-38.901 17.173 -38.111 16.811 -37.297 16.438 C-36.52 16.078 -35.742 15.718 -34.941 15.348 C-26.626 12.056 -17.208 12.495 -8.832 15.336 C-2.467 18.153 2.072 22.613 6.289 28.055 C6.694 28.49 7.099 28.926 7.516 29.375 C8.176 29.375 8.836 29.375 9.516 29.375 C10.158 20.705 7.767 13.773 2.266 7 C-3.209 1.159 -10.09 -1.73 -18.047 -2 C-26.232 -1.911 -32.511 0.803 -37.984 6.938 Z M165.516 59.375 C166.023 63.094 166.632 66.11 168.516 69.375 C169.176 69.375 169.836 69.375 170.516 69.375 C170.084 64.623 169.188 62.455 165.516 59.375 Z M106.516 61.375 C107.117 67.119 109.232 71.949 111.516 77.188 C111.911 78.103 112.306 79.018 112.713 79.962 C116.535 88.677 120.903 97.056 125.516 105.375 C126.506 105.375 127.496 105.375 128.516 105.375 C126.086 99.795 123.527 94.295 120.861 88.825 C116.485 79.828 112.561 70.911 109.516 61.375 C108.526 61.375 107.536 61.375 106.516 61.375 Z M172.516 61.375 C172.865 62.4 173.214 63.425 173.574 64.48 C174.034 65.841 174.494 67.202 174.953 68.562 C175.183 69.236 175.413 69.91 175.65 70.604 C180.735 85.711 179.086 100.398 174.516 115.375 C181.657 110.233 185.918 103.492 188.156 94.922 C189.527 85.209 189.478 76.499 183.516 68.375 C180.218 64.775 177.375 62.321 172.516 61.375 Z M158.516 62.375 C157.184 63.487 157.184 63.487 157.328 66.312 C157.183 69.484 157.183 69.484 159.516 71.375 C162.118 71.055 162.118 71.055 164.516 70.375 C164.682 67.458 164.682 67.458 164.516 64.375 C163.856 63.715 163.196 63.055 162.516 62.375 C161.196 62.375 159.876 62.375 158.516 62.375 Z M147.516 66.375 C147.266 68.833 147.266 68.833 147.516 71.375 C148.176 72.035 148.836 72.695 149.516 73.375 C152.118 73.055 152.118 73.055 154.516 72.375 C155.207 70.528 155.207 70.528 155.516 68.375 C154.856 67.385 154.196 66.395 153.516 65.375 C150.227 64.884 150.227 64.884 147.516 66.375 Z M138.891 68.875 C138.437 69.37 137.983 69.865 137.516 70.375 C138.176 72.025 138.836 73.675 139.516 75.375 C141.166 75.045 142.816 74.715 144.516 74.375 C145.288 72.538 145.288 72.538 145.516 70.375 C144.286 68.562 144.286 68.562 142.516 67.375 C140.392 67.149 140.392 67.149 138.891 68.875 Z M80.516 74.375 C80.92 88.433 83.783 101.124 88.516 114.375 C87.526 114.87 87.526 114.87 86.516 115.375 C82.429 103.524 79.089 91.839 77.516 79.375 C74.4 80.933 74.13 83.559 72.891 86.75 C67.136 100.776 58.008 111.535 43.898 117.465 C42.12 118.144 40.322 118.773 38.516 119.375 C39.092 124.13 41.066 127.345 43.516 131.375 C40.107 129.996 38.848 128.769 37.328 125.438 C37.005 124.748 36.681 124.058 36.348 123.348 C33.564 116.747 33.604 110.134 35.953 103.375 C40.034 94.253 47.299 88.017 55.645 82.848 C56.262 82.362 56.879 81.876 57.516 81.375 C57.516 80.385 57.516 79.395 57.516 78.375 C42.037 85.157 31.886 94.853 25.496 110.445 C20.686 124.818 24.115 137.803 30.43 150.93 C33.78 158.475 33.946 168.615 31.574 176.508 C28.831 182.27 25.743 185.801 19.953 188.625 C17.516 189.375 17.516 189.375 13.516 189.375 C13.846 190.695 14.176 192.015 14.516 193.375 C19.776 193.691 22.961 193.041 27.516 190.375 C26.516 193.375 26.516 193.375 24.773 194.543 C22.191 195.495 20.139 195.675 17.391 195.688 C16.087 195.713 16.087 195.713 14.758 195.738 C14.018 195.618 13.278 195.499 12.516 195.375 C10.581 192.472 10.278 191.511 9.828 188.25 C8.398 181.547 4.71 176.571 -0.922 172.699 C-6.663 169.592 -11.283 168.137 -17.738 170.039 C-23.43 172.196 -26.749 174.927 -29.484 180.375 C-32.991 189.559 -31.724 198.3 -28.484 207.375 C-23.674 216.818 -16.776 226.032 -7.484 231.375 C-6.701 230.571 -5.917 229.766 -5.109 228.938 C-1.799 225.706 -1.328 225.416 3.328 225.188 C6.8 225.244 9.463 225.579 12.516 227.375 C12.772 227.931 13.029 228.486 13.293 229.059 C15.059 232.404 17.624 234.96 20.203 237.688 C20.75 238.269 21.297 238.851 21.86 239.45 C22.938 240.594 24.018 241.736 25.1 242.876 C26.205 244.047 27.292 245.235 28.371 246.43 C32.639 251.016 37.66 254.472 42.806 258.001 C47.418 261.18 47.418 261.18 48.516 263.375 C46.206 263.705 43.896 264.035 41.516 264.375 C41.779 269.319 42.046 274.263 42.315 279.207 C42.406 280.884 42.496 282.562 42.586 284.24 C43.051 292.975 43.533 301.679 44.516 310.375 C56.428 312.165 68.315 313.641 80.328 314.562 C81.406 314.646 82.483 314.73 83.593 314.816 C89.585 315.251 95.508 315.457 101.516 315.375 C101.429 313.103 101.32 310.833 101.203 308.562 C101.145 307.298 101.087 306.033 101.027 304.73 C100.758 301.508 100.758 301.508 99.406 299.566 C96.62 297.811 93.734 297.05 90.578 296.125 C75.614 291.409 62.926 282.572 54.441 269.188 C53.516 267.375 53.516 267.375 53.516 265.375 C54.571 265.883 55.627 266.391 56.715 266.914 C79.185 277.474 102.36 284.571 126.715 275.914 C141.712 270.065 153.696 260.074 160.516 245.375 C164.507 235.427 165.696 226.209 165.703 215.562 C165.715 214.629 165.728 213.695 165.74 212.732 C165.755 205.743 165.414 198.574 162.495 192.117 C161.176 188.424 160.979 184.77 160.734 180.891 C160.646 179.668 160.646 179.668 160.556 178.421 C160.368 175.823 160.191 173.224 160.016 170.625 C159.84 168.04 159.662 165.456 159.476 162.872 C159.36 161.268 159.251 159.665 159.148 158.06 C158.701 147.838 158.701 147.838 153.891 139.312 C149.933 137.04 146.923 136.306 142.516 137.375 C140.257 138.528 138.239 139.804 136.18 141.281 C134.516 142.375 134.516 142.375 132.516 142.375 C134.164 137.131 137.039 133.781 141.828 131.062 C146.48 129.873 150.92 129.843 155.516 131.375 C155.543 129.896 155.562 128.417 155.578 126.938 C155.596 125.702 155.596 125.702 155.613 124.441 C155.484 120.389 155.007 116.398 154.516 112.375 C129.022 111.483 129.022 111.483 103.516 111.375 C103.238 110.642 102.96 109.908 102.674 109.153 C101.603 106.585 100.406 104.315 98.977 101.934 C98.235 100.695 98.235 100.695 97.478 99.431 C96.954 98.567 96.43 97.703 95.891 96.812 C95.356 95.927 94.821 95.041 94.27 94.128 C88.196 84.051 88.196 84.051 81.516 74.375 C81.186 74.375 80.856 74.375 80.516 74.375 Z M-34.484 83.375 C-35.474 85.685 -36.464 87.995 -37.484 90.375 C-36.164 90.375 -34.844 90.375 -33.484 90.375 C-32.024 87.728 -31.484 86.481 -31.484 83.375 C-32.474 83.375 -33.464 83.375 -34.484 83.375 Z M-27.234 88.562 C-28.783 90.382 -28.783 90.382 -28.172 93.062 C-27.945 93.826 -27.718 94.589 -27.484 95.375 C-25.637 96.067 -25.637 96.067 -23.484 96.375 C-20.437 94.726 -20.437 94.726 -19.609 92.438 C-19.263 90.297 -19.263 90.297 -20.734 88.625 C-23.199 86.865 -24.729 86.862 -27.234 88.562 Z M52.516 88.375 C43.999 95.292 38.399 100.972 36.547 112.055 C36.537 112.82 36.526 113.586 36.516 114.375 C37.176 115.035 37.836 115.695 38.516 116.375 C40.68 112.715 42.835 109.049 44.979 105.376 C45.711 104.127 46.445 102.88 47.182 101.634 C48.24 99.846 49.287 98.053 50.332 96.258 C50.966 95.179 51.599 94.1 52.252 92.989 C52.878 91.695 52.878 91.695 53.516 90.375 C53.186 89.715 52.856 89.055 52.516 88.375 Z M-16.484 93.375 C-16.901 95.875 -16.901 95.875 -16.484 98.375 C-15.824 99.035 -15.164 99.695 -14.484 100.375 C-12.418 100.443 -12.418 100.443 -10.484 99.375 C-9.188 96.885 -9.188 96.885 -8.484 94.375 C-9.859 92.833 -9.859 92.833 -11.484 91.375 C-13.808 91.19 -13.808 91.19 -16.484 93.375 Z M-5.484 96.375 C-6.781 97.441 -6.781 97.441 -6.547 99.938 C-6.526 100.742 -6.506 101.546 -6.484 102.375 C-5.494 102.705 -4.504 103.035 -3.484 103.375 C-2.494 102.715 -1.504 102.055 -0.484 101.375 C-0.979 98.9 -0.979 98.9 -1.484 96.375 C-2.804 96.375 -4.124 96.375 -5.484 96.375 Z M-3.484 231.375 C-4.654 233.724 -4.654 233.724 -4.484 236.375 C-2.733 240.088 -2.733 240.088 0.516 242.375 C4.097 242.764 5.878 242.811 8.891 240.75 C10.714 238.427 10.714 238.427 11.078 235.375 C10.765 232.208 10.765 232.208 8.266 230 C3.624 227.257 0.559 228.206 -3.484 231.375 Z M6.516 299.375 C6.516 300.035 6.516 300.695 6.516 301.375 C13.336 304.256 20.228 306.109 27.453 307.625 C28.282 307.8 29.11 307.975 29.964 308.155 C33.624 308.898 36.748 309.375 40.516 309.375 C40.59 305.505 40.563 302.101 39.516 298.375 C34.953 298.346 30.391 298.328 25.828 298.312 C24.535 298.304 23.241 298.296 21.908 298.287 C20.661 298.284 19.414 298.281 18.129 298.277 C16.982 298.272 15.835 298.267 14.654 298.261 C11.813 298.364 9.275 298.722 6.516 299.375 Z M104.516 301.375 C104.495 302.571 104.474 303.767 104.453 305 C104.442 305.673 104.43 306.346 104.418 307.039 C104.536 309.873 105.008 312.587 105.516 315.375 C108.891 315.433 112.265 315.469 115.641 315.5 C117.068 315.525 117.068 315.525 118.523 315.551 C123.601 315.586 127.761 315.408 132.516 313.375 C131.319 309.785 130.716 309.599 127.453 307.938 C121.02 304.852 111.774 301.375 104.516 301.375 Z M3.516 304.375 C0.838 310.7 -1.783 317.045 -4.297 323.438 C-4.716 324.501 -5.135 325.564 -5.566 326.66 C-6.645 329.371 -6.645 329.371 -6.484 332.375 C-2.869 335.364 -2.869 335.364 1.516 336.375 C1.803 335.744 2.09 335.113 2.386 334.463 C3.689 331.616 5.008 328.777 6.328 325.938 C6.78 324.944 7.232 323.951 7.697 322.928 C8.139 321.983 8.58 321.039 9.035 320.066 C9.438 319.192 9.842 318.317 10.257 317.416 C11.516 315.375 11.516 315.375 14.516 314.375 C11.746 321.788 8.869 328.997 5.238 336.035 C4.274 338.313 4.274 338.313 5.218 340.261 C6.737 342.735 8.465 344.515 10.551 346.535 C11.356 347.324 12.161 348.112 12.991 348.925 C13.845 349.754 14.699 350.583 15.578 351.438 C22.377 358.131 28.678 364.825 34.516 372.375 C35.771 373.929 37.041 375.472 38.328 377 C39.111 377.947 39.111 377.947 39.91 378.914 C41.786 380.621 43.086 380.786 45.516 381.375 C47.402 382.828 47.402 382.828 49.203 384.625 C49.805 385.208 50.407 385.79 51.027 386.391 C52.516 388.375 52.516 388.375 52.871 390.668 C53.847 394.767 56.432 397.287 59.141 400.438 C64.293 406.606 69.263 412.876 74.078 419.312 C74.704 420.149 75.33 420.985 75.975 421.846 C80.634 428.111 85.167 434.461 89.573 440.908 C92.268 444.806 95.054 448.132 98.516 451.375 C99.678 450.916 100.841 450.457 102.039 449.984 C110.334 446.778 118.585 443.854 127.266 441.875 C127.991 441.703 128.715 441.531 129.462 441.354 C135.012 440.17 139.771 440.066 144.957 442.539 C149.969 445.991 153.756 449.612 157.516 454.375 C159.556 456.753 159.556 456.753 161.516 458.375 C162.506 458.375 163.496 458.375 164.516 458.375 C164.057 446.861 162.857 435.714 160.828 424.375 C160.696 423.621 160.564 422.867 160.427 422.09 C158.017 408.375 155.124 394.83 151.516 381.375 C151.236 380.322 150.956 379.268 150.667 378.183 C146.625 360.905 146.625 360.905 138.516 345.375 C137.196 345.045 135.876 344.715 134.516 344.375 C134.516 335.795 134.516 327.215 134.516 318.375 C130.886 318.705 127.256 319.035 123.516 319.375 C84.94 320.924 39.802 317.992 3.516 304.375 Z M-28.484 335.375 C-28.484 336.035 -28.484 336.695 -28.484 337.375 C-27.59 337.776 -26.695 338.177 -25.773 338.59 C-17.413 342.47 -11.117 346.883 -4.484 353.375 C-3.241 354.424 -1.991 355.466 -0.734 356.5 C5.865 362.242 11.624 368.925 17.516 375.375 C17.998 375.902 18.481 376.429 18.979 376.972 C26.333 385.01 26.333 385.01 29.516 389.375 C33.341 387.817 35.663 385.303 38.516 382.375 C30.731 373.168 22.829 364.11 14.516 355.375 C13.918 354.744 13.321 354.112 12.705 353.461 C0.587 339.667 0.587 339.667 -15.438 332.172 C-20.595 332.067 -23.966 332.595 -28.484 335.375 Z M37.328 387.875 C36.613 388.525 35.897 389.174 35.16 389.844 C34.617 390.349 34.075 390.854 33.516 391.375 C33.636 393.74 33.636 393.74 34.516 396.375 C36.991 398.355 36.991 398.355 39.516 400.375 C42.816 397.405 46.116 394.435 49.516 391.375 C48.752 390.22 47.989 389.065 47.203 387.875 C46.774 387.225 46.345 386.576 45.902 385.906 C45.445 385.401 44.987 384.896 44.516 384.375 C40.737 384.375 40.055 385.372 37.328 387.875 Z M49.516 395.375 C47.206 397.685 44.896 399.995 42.516 402.375 C44.506 406.355 46.903 409.472 49.703 412.875 C61.322 427.214 72.225 442.057 82.516 457.375 C85.996 456.24 89.288 455.113 92.516 453.375 C90.115 446.639 85.656 441.129 81.516 435.375 C80.733 434.286 80.733 434.286 79.934 433.174 C73.641 424.456 67.222 415.856 60.453 407.5 C59.668 406.529 59.668 406.529 58.866 405.538 C55.92 401.944 52.86 398.603 49.516 395.375 Z M176.516 396.375 C175.235 400.835 175.882 404.566 176.809 409.008 C176.955 409.75 177.101 410.492 177.252 411.256 C177.565 412.848 177.883 414.438 178.204 416.028 C179.044 420.188 179.852 424.353 180.656 428.52 C180.817 429.353 180.979 430.186 181.145 431.045 C183.322 442.429 184.961 453.891 186.516 465.375 C187.836 465.375 189.156 465.375 190.516 465.375 C190.713 458.979 189.973 453.062 188.871 446.77 C188.615 445.268 188.615 445.268 188.355 443.736 C187.994 441.625 187.63 439.515 187.262 437.405 C186.708 434.216 186.165 431.025 185.623 427.834 C183.515 412.361 183.515 412.361 179.516 397.375 C178.526 397.045 177.536 396.715 176.516 396.375 Z M-67.484 420.375 C-67.814 422.025 -68.144 423.675 -68.484 425.375 C-67.164 425.705 -65.844 426.035 -64.484 426.375 C-63.824 424.725 -63.164 423.075 -62.484 421.375 C-64.134 421.045 -65.784 420.715 -67.484 420.375 Z M-29.484 427.375 C-29.457 429.002 -29.457 429.002 -29.428 430.662 C-29.262 440.902 -29.17 451.14 -29.15 461.382 C-29.137 466.647 -29.099 471.909 -29.001 477.174 C-28.907 482.258 -28.882 487.339 -28.904 492.424 C-28.9 494.36 -28.872 496.296 -28.819 498.232 C-28.435 513.021 -28.435 513.021 -31.859 516.955 C-35.693 519.991 -39.954 521.635 -44.484 523.375 C-46.065 524.3 -47.629 525.258 -49.148 526.281 C-50.139 526.926 -50.139 526.926 -51.15 527.583 C-51.797 528.009 -52.443 528.436 -53.109 528.875 C-54.176 529.573 -54.176 529.573 -55.264 530.284 C-56.681 531.213 -58.098 532.143 -59.513 533.076 C-61.309 534.26 -63.111 535.436 -64.914 536.609 C-82.137 547.916 -97.285 560.854 -107.672 578.875 C-108.071 579.558 -108.47 580.24 -108.881 580.944 C-111.003 584.555 -111.003 584.555 -111.079 588.592 C-110.883 589.18 -110.687 589.769 -110.484 590.375 C-107.369 589.69 -107.369 589.69 -106.16 587.258 C-105.71 586.348 -105.26 585.438 -104.797 584.5 C-88.98 554.387 -59.029 537.651 -30.383 521.492 C-29.509 520.996 -28.634 520.499 -27.733 519.987 C-26.015 519.013 -24.292 518.047 -22.563 517.091 C-21.399 516.431 -21.399 516.431 -20.211 515.758 C-19.516 515.37 -18.82 514.982 -18.104 514.583 C-16.168 513.379 -16.168 513.379 -15.484 510.375 C-17.186 509.57 -17.186 509.57 -19.484 509.375 C-21.508 510.327 -23.511 511.323 -25.484 512.375 C-25.482 511.502 -25.48 510.629 -25.478 509.729 C-25.458 501.448 -25.442 493.167 -25.433 484.886 C-25.427 480.63 -25.42 476.374 -25.409 472.117 C-25.398 468 -25.392 463.883 -25.389 459.766 C-25.388 458.205 -25.384 456.644 -25.379 455.084 C-25.348 445.804 -25.598 436.622 -26.484 427.375 C-27.474 427.375 -28.464 427.375 -29.484 427.375 Z M57.516 431.375 C57.921 435.841 58.33 440.307 58.742 444.772 C58.882 446.29 59.021 447.808 59.158 449.326 C59.357 451.513 59.559 453.7 59.762 455.887 C59.882 457.201 60.003 458.516 60.127 459.87 C60.494 463.643 60.494 463.643 61.516 468.375 C67.126 465.735 72.736 463.095 78.516 460.375 C77.661 456.958 77.155 455.533 75.258 452.801 C74.571 451.805 74.571 451.805 73.871 450.789 C73.382 450.096 72.894 449.402 72.391 448.688 C71.895 447.977 71.399 447.267 70.889 446.535 C65.566 438.662 65.566 438.662 59.516 431.375 C58.856 431.375 58.196 431.375 57.516 431.375 Z M-74.484 438.375 C-76.582 440.735 -77.453 441.921 -77.672 445.125 C-77.61 445.868 -77.548 446.61 -77.484 447.375 C-75.834 447.045 -74.184 446.715 -72.484 446.375 C-71.824 444.395 -71.164 442.415 -70.484 440.375 C-71.804 439.715 -73.124 439.055 -74.484 438.375 Z M122.703 445.875 C121.791 446.145 120.878 446.415 119.938 446.693 C110.2 449.655 100.841 453.311 91.516 457.375 C90.589 457.768 89.662 458.162 88.707 458.567 C70.564 466.347 54.835 476.792 38.762 488.104 C34.724 490.929 30.637 493.673 26.516 496.375 C28.94 504.024 31.895 511.397 34.953 518.812 C35.91 521.144 36.867 523.476 37.824 525.809 C38.279 526.916 38.734 528.023 39.203 529.164 C40.999 533.557 42.763 537.963 44.516 542.375 C49.395 540.071 53.215 536.614 57.348 533.176 C61.322 530.916 63.152 531.295 67.516 532.375 C68.162 532.553 68.807 532.731 69.473 532.914 C73.039 533.719 76.624 533.601 80.266 533.625 C81.039 533.646 81.812 533.666 82.609 533.688 C89.892 533.736 96.407 532.092 102.012 527.098 C104.702 524.016 106.729 520.509 108.805 516.996 C110.512 514.381 112.13 512.388 114.516 510.375 C118.266 509.625 118.266 509.625 121.516 509.375 C121.846 510.365 122.176 511.355 122.516 512.375 C121.649 512.375 120.783 512.375 119.891 512.375 C115.02 513.818 112.977 517.054 110.516 521.375 C109.838 523.534 109.838 523.534 109.516 525.375 C114.058 526.889 117.269 525.344 121.516 523.375 C125.331 520.85 128.892 518.019 132.109 514.762 C137.063 509.871 142.859 508.311 149.383 506.355 C152.354 505.691 152.354 505.691 153.516 504.375 C154.038 498.208 153.496 495.35 149.516 490.375 C148.979 489.55 148.443 488.725 147.891 487.875 C141.826 481.491 135.219 478.656 126.516 478.375 C127.011 477.385 127.011 477.385 127.516 476.375 C133.516 476.77 138.064 477.867 143.516 480.375 C144.506 480.375 145.496 480.375 146.516 480.375 C150.317 483.543 151.808 485.54 152.516 490.375 C153.47 492.397 154.461 494.403 155.516 496.375 C156.176 496.375 156.836 496.375 157.516 496.375 C159.192 494.008 160.711 491.666 162.203 489.188 C162.846 488.177 162.846 488.177 163.502 487.146 C165.956 483.132 165.956 483.132 166.418 478.539 C165.09 475.354 163.085 473.665 160.516 471.375 C159.791 470.629 159.791 470.629 159.051 469.867 C152.542 463.533 144.224 461.148 135.266 461.125 C133.681 461.188 132.097 461.263 130.516 461.375 C130.516 460.385 130.516 459.395 130.516 458.375 C140.102 459.081 147.742 460.283 156.258 465.133 C158.378 466.536 158.378 466.536 160.516 466.375 C158.833 456.703 151.852 449.84 144.082 444.336 C136.99 441.681 129.683 443.773 122.703 445.875 Z M-85.484 461.375 C-87.419 463.572 -87.419 463.572 -88.484 466.375 C-87.793 468.678 -87.793 468.678 -86.484 470.375 C-83.435 469.693 -83.435 469.693 -82.234 467.562 C-81.368 465.036 -81.599 463.853 -82.484 461.375 C-83.474 461.375 -84.464 461.375 -85.484 461.375 Z M162.516 463.375 C163.488 469.247 164.651 472.737 168.516 477.375 C168.496 478.154 168.477 478.932 168.457 479.734 C168.529 482.987 169.439 484.265 171.328 486.875 C171.873 487.647 172.419 488.419 172.98 489.215 C173.487 489.928 173.994 490.641 174.516 491.375 C175.531 493.033 176.54 494.694 177.516 496.375 C179.991 495.88 179.991 495.88 182.516 495.375 C180.813 484.592 172.918 470.404 164.516 463.375 C163.856 463.375 163.196 463.375 162.516 463.375 Z M-1.293 500.223 C-2.016 501.263 -2.739 502.303 -3.484 503.375 C-4.197 504.322 -4.91 505.27 -5.645 506.246 C-6.293 507.155 -6.941 508.064 -7.609 509 C-8.189 509.797 -8.77 510.593 -9.367 511.414 C-12.154 518.8 -9.102 526.506 -6.047 533.375 C-5.696 534.184 -5.344 534.993 -4.982 535.826 C0.78 548.789 7.625 561.284 16.516 572.375 C17.146 573.169 17.776 573.963 18.426 574.781 C22.109 579.435 22.109 579.435 27.516 581.375 C28.176 579.725 28.836 578.075 29.516 576.375 C30.319 576.532 31.122 576.69 31.949 576.852 C36.18 577.473 40.308 577.673 44.578 577.75 C45.368 577.787 46.157 577.825 46.971 577.863 C51.247 577.928 53.011 577.745 56.566 575.137 C59.244 571.343 58.92 569.621 58.238 565.207 C56.551 558.594 53.604 552.437 50.516 546.375 C49.526 546.375 48.536 546.375 47.516 546.375 C48.126 549.861 49.032 552.962 50.363 556.238 C50.721 557.125 51.079 558.011 51.447 558.924 C51.82 559.836 52.194 560.748 52.578 561.688 C52.955 562.619 53.332 563.55 53.721 564.51 C54.648 566.8 55.58 569.088 56.516 571.375 C54.71 571.288 54.71 571.288 52.516 570.375 C51.264 568.154 50.325 566.131 49.406 563.773 C49.122 563.081 48.838 562.389 48.545 561.675 C47.605 559.372 46.685 557.061 45.766 554.75 C45.113 553.144 44.459 551.538 43.804 549.933 C42.417 546.531 41.039 543.126 39.668 539.717 C36.418 531.64 33.121 523.581 29.822 515.523 C28.779 512.97 27.743 510.415 26.708 507.859 C26.066 506.282 25.424 504.706 24.781 503.129 C24.494 502.416 24.207 501.703 23.912 500.968 C22.383 497.23 20.701 493.773 18.516 490.375 C19.413 490.87 19.413 490.87 20.328 491.375 C22.569 492.583 22.569 492.583 25.516 492.375 C25.846 491.385 26.176 490.395 26.516 489.375 C23.382 486.93 21.076 485.479 17.141 484.75 C8.351 486.266 3.626 493.302 -1.293 500.223 Z M-94.484 486.375 C-96.94 490.061 -96.94 490.061 -97.484 494.375 C-96.494 494.705 -95.504 495.035 -94.484 495.375 C-91.585 492.98 -90.983 491.063 -90.484 487.375 C-91.804 487.045 -93.124 486.715 -94.484 486.375 Z M166.516 486.375 C165.288 487.891 165.288 487.891 164.133 489.875 C163.688 490.597 163.243 491.319 162.785 492.062 C162.325 492.826 161.865 493.589 161.391 494.375 C160.923 495.138 160.455 495.901 159.973 496.688 C158.814 498.579 157.662 500.475 156.516 502.375 C160.498 503.702 162.964 502.374 166.703 500.938 C167.684 500.573 167.684 500.573 168.686 500.201 C170.299 499.601 171.908 498.989 173.516 498.375 C172.966 495.025 172.216 492.463 170.453 489.562 C169.814 488.511 169.174 487.459 168.516 486.375 C167.856 486.375 167.196 486.375 166.516 486.375 Z M176.294 500.315 C174.915 500.801 173.538 501.296 172.164 501.797 C171.431 502.058 170.698 502.318 169.943 502.587 C167.59 503.426 165.24 504.275 162.891 505.125 C161.33 505.683 159.768 506.24 158.207 506.797 C151.289 509.269 144.39 511.784 137.516 514.375 C139.683 523.586 142.36 532.605 145.203 541.625 C145.623 542.967 146.043 544.31 146.463 545.652 C147.477 548.894 148.495 552.135 149.516 555.375 C153.532 554.036 154.289 551.618 156.105 548.051 C156.447 547.401 156.788 546.75 157.139 546.081 C158.252 543.954 159.353 541.821 160.453 539.688 C161.596 537.498 162.742 535.311 163.888 533.123 C164.657 531.656 165.424 530.188 166.19 528.72 C169.578 522.23 173.057 515.794 176.578 509.375 C177.337 507.989 177.337 507.989 178.111 506.575 C179.244 504.508 180.379 502.441 181.516 500.375 C179.373 499.02 179.373 499.02 176.294 500.315 Z M185.516 500.375 C179.708 510.296 174.244 520.39 168.821 530.526 C166.065 535.668 163.297 540.799 160.426 545.879 C159.962 546.7 159.499 547.521 159.021 548.366 C158.169 549.866 157.312 551.363 156.448 552.856 C153.69 557.715 152.028 561.016 153.181 566.589 C153.544 567.771 153.907 568.954 154.281 570.172 C154.475 570.806 154.669 571.44 154.869 572.094 C155.281 573.427 155.698 574.758 156.121 576.087 C156.766 578.127 157.386 580.174 158.004 582.223 C158.407 583.519 158.812 584.814 159.219 586.109 C159.586 587.287 159.954 588.465 160.333 589.679 C160.723 590.568 161.114 591.458 161.516 592.375 C164.894 593.501 165.615 593.263 168.879 592.191 C169.757 591.907 170.634 591.622 171.538 591.33 C172.482 591.012 173.426 590.694 174.398 590.367 C175.368 590.045 176.338 589.722 177.338 589.39 C179.389 588.704 181.438 588.012 183.486 587.316 C186.628 586.254 189.78 585.224 192.934 584.195 C194.923 583.525 196.911 582.854 198.898 582.18 C199.846 581.874 200.794 581.569 201.771 581.254 C202.642 580.951 203.513 580.648 204.411 580.335 C205.181 580.077 205.951 579.819 206.745 579.552 C208.71 578.487 208.71 578.487 209.389 576.193 C209.553 572.549 208.726 569.807 207.641 566.322 C207.43 565.632 207.219 564.941 207.001 564.231 C206.303 561.959 205.587 559.692 204.871 557.426 C204.38 555.846 203.891 554.266 203.401 552.686 C202.375 549.379 201.341 546.075 200.302 542.773 C198.968 538.537 197.65 534.295 196.337 530.052 C195.327 526.791 194.311 523.533 193.292 520.275 C192.804 518.711 192.317 517.147 191.832 515.583 C191.154 513.4 190.467 511.22 189.778 509.04 C189.389 507.798 188.999 506.557 188.598 505.277 C187.716 502.298 187.716 502.298 185.516 500.375 Z M-101.484 511.375 C-102.593 513.258 -102.593 513.258 -103.484 515.375 C-103.154 516.035 -102.824 516.695 -102.484 517.375 C-101.164 517.375 -99.844 517.375 -98.484 517.375 C-97.824 515.725 -97.164 514.075 -96.484 512.375 C-98.134 512.045 -99.784 511.715 -101.484 511.375 Z M190.516 469.375 C188.367 469.991 186.222 470.618 184.078 471.25 C182.883 471.598 181.688 471.946 180.457 472.305 C177.399 473.036 177.399 473.036 176.516 475.375 C177.715 477.904 178.964 480.313 180.328 482.75 C181.064 484.091 181.8 485.432 182.535 486.773 C182.884 487.401 183.233 488.028 183.592 488.675 C184.324 490.023 184.999 491.401 185.652 492.789 C186.425 494.568 186.425 494.568 188.516 495.375 C189.392 497.587 189.392 497.587 190.284 500.555 C190.622 501.666 190.959 502.776 191.307 503.919 C191.668 505.136 192.03 506.352 192.402 507.605 C192.984 509.527 193.565 511.448 194.147 513.369 C194.965 516.082 195.777 518.797 196.589 521.511 C198.176 526.813 199.778 532.11 201.377 537.407 C201.963 539.351 202.548 541.294 203.132 543.238 C205.817 552.146 208.592 561.02 211.501 569.857 C211.768 570.681 212.036 571.504 212.312 572.353 C212.546 573.063 212.78 573.772 213.021 574.504 C213.516 576.375 213.516 576.375 213.516 579.375 C202.895 583.425 192.22 587.277 181.465 590.955 C179.092 591.767 176.722 592.584 174.352 593.402 C172.836 593.922 171.32 594.442 169.805 594.961 C169.1 595.205 168.395 595.448 167.668 595.699 C162.745 597.375 162.745 597.375 160.516 597.375 C151.888 571.799 143.605 546.125 135.516 520.375 C131.18 520.375 130.677 520.669 127.516 523.25 C122.358 527.42 117.9 528.817 111.516 530.375 C117.492 552.453 124.173 574.316 130.816 596.2 C132.3 601.094 133.782 605.988 135.264 610.883 C136.934 616.399 138.606 621.915 140.278 627.431 C140.656 628.68 140.656 628.68 141.042 629.955 C141.53 631.559 142.02 633.163 142.512 634.766 C143.598 638.306 144.656 641.846 145.626 645.42 C146.123 647.198 146.123 647.198 146.63 649.013 C147.038 650.545 147.038 650.545 147.455 652.109 C148.287 654.502 148.287 654.502 150.365 655.288 C152.846 655.388 154.47 654.976 156.805 654.134 C157.65 653.835 158.496 653.536 159.367 653.229 C160.283 652.893 161.198 652.557 162.141 652.211 C163.104 651.867 164.068 651.523 165.06 651.169 C168.216 650.039 171.366 648.895 174.516 647.75 C176.681 646.972 178.846 646.195 181.012 645.418 C186.475 643.457 191.933 641.484 197.39 639.507 C202.158 637.78 206.931 636.064 211.703 634.348 C219.978 631.369 228.249 628.377 236.516 625.375 C235.944 619.859 234.927 614.732 233.32 609.418 C233.097 608.659 232.873 607.901 232.642 607.119 C231.898 604.598 231.144 602.08 230.391 599.562 C229.853 597.747 229.315 595.932 228.778 594.116 C227.627 590.226 226.473 586.337 225.317 582.448 C223.514 576.378 221.728 570.303 219.945 564.227 C217.145 554.68 214.337 545.137 211.523 535.594 C209.407 528.41 207.3 521.224 205.198 514.036 C203.728 509.01 202.252 503.987 200.775 498.964 C200.063 496.539 199.354 494.113 198.647 491.687 C197.665 488.32 196.675 484.955 195.684 481.59 C195.392 480.581 195.1 479.572 194.799 478.533 C194.526 477.614 194.254 476.696 193.973 475.75 C193.739 474.949 193.504 474.148 193.263 473.322 C192.593 471.181 192.593 471.181 190.516 469.375 Z M104.516 529.375 C102.825 530.287 102.825 530.287 101.203 531.688 C95.333 536.463 89.383 536.65 82.141 536.5 C81.309 536.491 80.478 536.482 79.621 536.473 C77.586 536.449 75.551 536.413 73.516 536.375 C72.719 539.779 72.45 542.648 72.768 546.125 C72.85 547.052 72.931 547.979 73.015 548.933 C73.11 549.938 73.206 550.942 73.304 551.977 C73.4 553.044 73.496 554.111 73.594 555.211 C73.913 558.736 74.241 562.261 74.57 565.785 C74.794 568.235 75.017 570.684 75.24 573.134 C75.708 578.266 76.181 583.398 76.658 588.53 C77.269 595.112 77.871 601.695 78.47 608.279 C78.931 613.336 79.395 618.393 79.86 623.45 C80.083 625.878 80.306 628.306 80.527 630.733 C80.838 634.123 81.152 637.513 81.468 640.903 C81.56 641.909 81.651 642.915 81.745 643.952 C81.832 644.876 81.919 645.8 82.009 646.752 C82.083 647.553 82.157 648.354 82.234 649.179 C82.507 651.307 82.95 653.307 83.516 655.375 C90.177 654.698 95.953 651.791 101.996 649.082 C112.502 644.634 119.669 647.92 129.828 651.938 C131.968 652.777 134.11 653.611 136.254 654.441 C137.193 654.812 138.132 655.183 139.099 655.565 C141.565 656.534 141.565 656.534 144.516 656.375 C143.208 649.071 141.348 642.054 139.172 634.965 C138.684 633.355 138.684 633.355 138.186 631.713 C137.134 628.245 136.075 624.779 135.016 621.312 C134.285 618.908 133.554 616.503 132.824 614.097 C131.381 609.346 129.936 604.596 128.488 599.847 C126.409 593.028 124.339 586.206 122.274 579.383 C121.488 576.788 120.699 574.193 119.908 571.599 C118.118 565.72 116.351 559.836 114.647 553.931 C113.826 551.09 112.997 548.251 112.168 545.412 C111.593 543.426 111.031 541.436 110.469 539.446 C109.953 537.678 109.953 537.678 109.426 535.875 C109.128 534.833 108.83 533.792 108.524 532.719 C108.191 531.945 107.858 531.172 107.516 530.375 C106.526 530.045 105.536 529.715 104.516 529.375 Z " fill="#000000" transform="translate(317.484375,72.625)"/>
<path d="M0 0 C5.475 3.036 11.828 6.798 13.875 12.938 C9.484 12.938 9.484 12.938 6.688 10.5 C2.654 7.455 -1.1 6.632 -6.125 6.938 C-9.024 8.069 -10.75 9.57 -12.957 11.734 C-18.387 16.926 -18.387 16.926 -23.062 17 C-26.125 15.938 -26.125 15.938 -27.125 13.938 C-27.547 10.222 -27.255 8.209 -25.625 4.812 C-18.777 -3.063 -9.344 -4.328 0 0 Z " fill="#000000" transform="translate(407.125,204.0625)"/>
<path d="M0 0 C1.32 0 2.64 0 4 0 C5.001 7.383 5.078 14.548 5 22 C10.61 22 16.22 22 22 22 C22 23.32 22 24.64 22 26 C18.935 27.533 15.732 27.103 12.375 27.062 C11.669 27.058 10.962 27.053 10.234 27.049 C8.49 27.037 6.745 27.019 5 27 C5.046 27.62 5.092 28.241 5.139 28.88 C5.339 31.69 5.513 34.501 5.688 37.312 C5.76 38.289 5.833 39.265 5.908 40.271 C5.963 41.209 6.018 42.147 6.074 43.113 C6.161 44.409 6.161 44.409 6.249 45.732 C6 48 6 48 4.495 49.805 C4.002 50.2 3.508 50.594 3 51 C0.519 48.519 0.71 47.638 0.586 44.211 C0.547 43.27 0.509 42.329 0.469 41.359 C0.438 40.375 0.407 39.39 0.375 38.375 C0.336 37.382 0.298 36.39 0.258 35.367 C0.163 32.912 0.081 30.456 0 28 C-5.94 28 -11.88 28 -18 28 C-18.33 26.68 -18.66 25.36 -19 24 C-17.486 22.486 -16.075 22.787 -13.965 22.684 C-13.236 22.645 -12.508 22.607 -11.758 22.568 C-10.827 22.525 -9.896 22.482 -8.938 22.438 C-5.988 22.293 -3.039 22.149 0 22 C0 14.74 0 7.48 0 0 Z " fill="#000000" transform="translate(557,221)"/>
<path d="M0 0 C1.32 0.33 2.64 0.66 4 1 C3.711 2.123 3.423 3.246 3.125 4.402 C-0.724 17.32 -0.724 17.32 1.5 30.062 C4.229 33.269 7.128 36.189 10.195 39.07 C13.138 42.217 14.016 44.1 13.938 48.438 C12.637 53.381 10.381 55.501 6.102 58.195 C1.951 60.47 -1.17 61.483 -6 61 C-6.33 59.68 -6.66 58.36 -7 57 C-6.085 56.59 -5.17 56.18 -4.227 55.758 C-3.038 55.219 -1.85 54.68 -0.625 54.125 C0.558 53.591 1.742 53.058 2.961 52.508 C6.022 51.19 6.022 51.19 8 49 C8.296 46.155 8.296 46.155 7 43 C5.109 41.083 3.087 39.417 1.008 37.707 C-3.099 34.216 -5.111 30.775 -5.938 25.5 C-6.516 16.62 -4.193 7.774 0 0 Z " fill="#000000" transform="translate(443,228)"/>
<path d="M0 0 C3.256 2.47 5.42 5.333 6.203 9.406 C6.38 12.8 6.021 15.033 4.25 17.938 C1.812 19.375 1.812 19.375 -1.812 19.375 C-5.188 18.375 -5.188 18.375 -6.688 16.812 C-7.641 12.166 -7.146 7.909 -4.625 3.875 C-4.151 3.38 -3.676 2.885 -3.188 2.375 C-9.22 3.992 -13.138 5.542 -17.188 10.375 C-18.178 10.045 -19.168 9.715 -20.188 9.375 C-18.627 5.163 -15.703 3.03 -12.188 0.375 C-8.069 -0.998 -4.207 -1.202 0 0 Z " fill="#000000" transform="translate(410.1875,232.625)"/>
<path d="M0 0 C3.326 2.063 6.235 4.47 8 8 C8.57 15.066 8.57 15.066 6.438 18.562 C4 20 4 20 0.375 19.938 C-3 19 -3 19 -5 16 C-5.309 11.752 -5.33 8.641 -3 5 C-2.34 5 -1.68 5 -1 5 C-1 4.34 -1 3.68 -1 3 C-7.781 4.169 -10.39 5.951 -15 11 C-15.66 11 -16.32 11 -17 11 C-16.848 8.343 -16.527 6.558 -14.668 4.59 C-9.953 0.655 -6.205 -1.216 0 0 Z " fill="#000000" transform="translate(467,232)"/>
<path d="M0 0 C5.488 3.743 9.828 8.89 14 14 C13.67 14.66 13.34 15.32 13 16 C9.636 14.576 7.804 12.874 5.5 10.062 C3.21 7.278 1.052 4.953 -2 3 C-4.599 2.92 -4.599 2.92 -7 4 C-9.997 7.168 -10.586 9.993 -11.188 14.25 C-11.346 15.328 -11.505 16.405 -11.668 17.516 C-11.778 18.335 -11.887 19.155 -12 20 C-12.99 20 -13.98 20 -15 20 C-15.572 8.102 -15.572 8.102 -12 3 C-8.116 -0.52 -5.065 -1.5 0 0 Z " fill="#000000" transform="translate(310,252)"/>
<path d="M0 0 C0.66 0.33 1.32 0.66 2 1 C1.886 2.772 1.758 4.542 1.625 6.312 C1.521 7.792 1.521 7.792 1.414 9.301 C1 12 1 12 -1 15 C-1.978 11.204 -1.927 8.499 -1.062 4.688 C-0.868 3.804 -0.673 2.921 -0.473 2.012 C-0.317 1.348 -0.161 0.684 0 0 Z " fill="#000000" transform="translate(405,268)"/>
<path d="M0 0 C2.622 1.049 3.794 1.649 5.25 4.125 C5.498 4.744 5.745 5.363 6 6 C3.378 4.951 2.206 4.351 0.75 1.875 C0.502 1.256 0.255 0.637 0 0 Z " fill="#000000" transform="translate(317,269)"/>
<path d="M0 0 C0 0.66 0 1.32 0 2 C-2.64 2 -5.28 2 -8 2 C-8 1.34 -8 0.68 -8 0 C-4.71 -1.097 -3.287 -0.8 0 0 Z " fill="#000000" transform="translate(312,273)"/>
<path d="M0 0 C0.33 0 0.66 0 1 0 C1.248 6.571 0.324 12.57 -1 19 C-1.66 19 -2.32 19 -3 19 C-2.885 16.958 -2.757 14.916 -2.625 12.875 C-2.555 11.738 -2.486 10.601 -2.414 9.43 C-2.006 6.046 -1.19 3.184 0 0 Z " fill="#000000" transform="translate(393,272)"/>
<path d="M0 0 C0.33 0 0.66 0 1 0 C0.887 2.146 0.759 4.292 0.625 6.438 C0.521 8.23 0.521 8.23 0.414 10.059 C0.277 11.029 0.141 12 0 13 C-0.99 13.495 -0.99 13.495 -2 14 C-2.369 4.59 -2.369 4.59 0 0 Z " fill="#000000" transform="translate(399,273)"/>
<path d="M0 0 C0.66 0 1.32 0 2 0 C1.886 1.605 1.758 3.209 1.625 4.812 C1.521 6.152 1.521 6.152 1.414 7.52 C1 10 1 10 -1 13 C-2.073 9.728 -1.893 7.571 -1.062 4.25 C-0.771 3.051 -0.771 3.051 -0.473 1.828 C-0.317 1.225 -0.161 0.622 0 0 Z " fill="#000000" transform="translate(473,275)"/>
<path d="M0 0 C0.66 0 1.32 0 2 0 C1.718 1.96 1.424 3.918 1.125 5.875 C0.963 6.966 0.8 8.056 0.633 9.18 C0 12 0 12 -2 14 C-1.859 12.041 -1.712 10.083 -1.562 8.125 C-1.481 7.034 -1.4 5.944 -1.316 4.82 C-1 2 -1 2 0 0 Z " fill="#000000" transform="translate(468,276)"/>
<path d="M0 0 C2 1.562 2 1.562 4 4 C4.375 7.625 4.375 7.625 4 11 C2 13 2 13 -0.812 13.5 C-4 13 -4 13 -6.812 10.188 C-9 7 -9 7 -10 4 C-10.66 3.34 -11.32 2.68 -12 2 C-10.35 1.67 -8.7 1.34 -7 1 C-6.758 1.566 -6.515 2.132 -6.266 2.715 C-5.763 3.815 -5.763 3.815 -5.25 4.938 C-4.925 5.668 -4.6 6.399 -4.266 7.152 C-2.974 9.476 -2.974 9.476 1 10 C0.67 6.7 0.34 3.4 0 0 Z " fill="#000000" transform="translate(317,276)"/>
<path d="M0 0 C0.33 0 0.66 0 1 0 C1.167 4.921 1.248 8.503 -1 13 C-1.33 13 -1.66 13 -2 13 C-1.859 11.208 -1.712 9.416 -1.562 7.625 C-1.441 6.128 -1.441 6.128 -1.316 4.602 C-1 2 -1 2 0 0 Z " fill="#000000" transform="translate(386,278)"/>
<path d="M0 0 C0.66 0 1.32 0 2 0 C1.858 1.438 1.711 2.875 1.562 4.312 C1.481 5.113 1.4 5.914 1.316 6.738 C1 9 1 9 0 12 C-0.66 12 -1.32 12 -2 12 C-1.34 8.04 -0.68 4.08 0 0 Z " fill="#000000" transform="translate(462,278)"/>
<path d="M0 0 C0.66 0 1.32 0 2 0 C1.718 2.126 1.424 4.251 1.125 6.375 C0.963 7.558 0.8 8.742 0.633 9.961 C0 13 0 13 -2 15 C-3.239 11.282 -2.57 9.561 -1.562 5.812 C-1.131 4.182 -1.131 4.182 -0.691 2.52 C-0.463 1.688 -0.235 0.857 0 0 Z " fill="#000000" transform="translate(380,279)"/>
<path d="M0 0 C4.936 0.543 8.799 2.184 13.125 4.5 C22.041 9.214 32.534 11.252 42.5 8.246 C45.82 6.422 47.836 4.03 50 1 C50.99 1 51.98 1 53 1 C52.821 5.572 52.506 7.482 49.25 10.812 C40.854 16.464 31.092 16.168 21.414 14.312 C13.632 12.094 5.802 8.802 0 3 C0 2.01 0 1.02 0 0 Z " fill="#000000" transform="translate(404,295)"/>
<path d="M0 0 C0.99 0 1.98 0 3 0 C5.002 7.329 6.513 14.409 7 22 C7.641 21.856 8.281 21.711 8.941 21.562 C14.08 20.46 18.747 19.772 24 20 C24 21.32 24 22.64 24 24 C18.666 25.702 13.567 26.494 8 27 C8.217 28.158 8.433 29.315 8.656 30.508 C8.938 32.047 9.219 33.586 9.5 35.125 C9.715 36.266 9.715 36.266 9.934 37.43 C10.703 41.68 11.166 45.659 11 50 C9.515 50.495 9.515 50.495 8 51 C5.281 43.709 4.055 36.713 3 29 C-6.405 29.495 -6.405 29.495 -16 30 C-16 28.68 -16 27.36 -16 26 C-9.999 24.333 -4.205 23.483 2 23 C1.658 21.138 1.658 21.138 1.309 19.238 C1.018 17.596 0.727 15.955 0.438 14.312 C0.286 13.496 0.135 12.679 -0.021 11.838 C-0.756 7.619 -1.289 4.191 0 0 Z " fill="#000000" transform="translate(187,355)"/>
<path d="M0 0 C0.99 0.33 1.98 0.66 3 1 C2.355 6.809 0.318 11.919 -1.812 17.312 C-2.156 18.231 -2.5 19.149 -2.854 20.096 C-3.197 20.968 -3.541 21.84 -3.895 22.738 C-4.202 23.533 -4.51 24.327 -4.827 25.146 C-6 27 -6 27 -8.132 27.766 C-9.056 27.882 -9.056 27.882 -10 28 C-9.449 21.711 -7.403 16.432 -5 10.625 C-4.631 9.711 -4.263 8.797 -3.883 7.855 C-1.155 1.155 -1.155 1.155 0 0 Z " fill="#000000" transform="translate(352,394)"/>
<path d="M0 0 C0.99 0.66 1.98 1.32 3 2 C2.527 6.292 2.046 10.584 1.562 14.875 C1.428 16.098 1.293 17.322 1.154 18.582 C1.022 19.749 0.89 20.915 0.754 22.117 C0.633 23.196 0.513 24.275 0.389 25.386 C0 28 0 28 -1 30 C-1.99 30 -2.98 30 -4 30 C-4.883 26.38 -5.009 23.491 -4.512 19.805 C-4.382 18.842 -4.253 17.879 -4.119 16.887 C-3.977 15.893 -3.834 14.899 -3.688 13.875 C-3.557 12.873 -3.426 11.872 -3.291 10.84 C-2.255 3.382 -2.255 3.382 0 0 Z " fill="#000000" transform="translate(370,396)"/>
<path d="M0 0 C1.32 0 2.64 0 4 0 C4.112 9.727 3.93 19.304 3 29 C1.68 29.33 0.36 29.66 -1 30 C-1.191 9.468 -1.191 9.468 0 0 Z " fill="#000000" transform="translate(398,400)"/>
<path d="M0 0 C0.99 0 1.98 0 3 0 C3.102 9.063 3.07 17.982 2 27 C0.68 27 -0.64 27 -2 27 C-2.361 4.723 -2.361 4.723 0 0 Z " fill="#000000" transform="translate(426,401)"/>
<path d="M0 0 C3 2 3 2 3.708 4.135 C3.86 5.002 4.011 5.869 4.168 6.762 C4.339 7.716 4.51 8.671 4.686 9.654 C4.851 10.655 5.017 11.656 5.188 12.688 C5.365 13.669 5.542 14.651 5.725 15.662 C6.625 20.847 7.213 25.739 7 31 C5.68 30.67 4.36 30.34 3 30 C2.323 26.481 1.66 22.96 1 19.438 C0.809 18.447 0.618 17.456 0.422 16.436 C-0.549 11.216 -1.35 6.313 -1 1 C-0.67 0.67 -0.34 0.34 0 0 Z " fill="#000000" transform="translate(440,401)"/>
<path d="M0 0 C1.011 0.681 2.021 1.361 3.062 2.062 C5.836 4.372 5.836 4.372 8.938 3.5 C12.411 2.933 14.317 3.41 17.266 5.348 C25.707 13.39 26.616 26.075 28 37 C31.96 37.66 35.92 38.32 40 39 C41.213 43.852 40.092 46.956 38.641 51.566 C38.38 52.421 38.12 53.276 37.852 54.157 C36.994 56.962 36.122 59.762 35.25 62.562 C34.655 64.497 34.061 66.433 33.468 68.368 C31.66 74.25 29.832 80.125 28 86 C27.444 87.786 26.888 89.572 26.333 91.357 C18.07 117.88 18.07 117.88 15.879 124.269 C15.025 126.921 14.806 128.985 14.75 131.75 C13.81 142.211 5.974 149.78 -1 157 C-1.462 157.483 -1.924 157.965 -2.4 158.462 C-9.196 165.533 -16.288 171.924 -24 178 C-24.786 178.654 -25.573 179.307 -26.383 179.98 C-36.242 188.131 -46.854 195.033 -58.125 201.062 C-58.835 201.445 -59.546 201.827 -60.278 202.22 C-63.835 204.075 -66.965 205.49 -71 206 C-71 205.01 -71 204.02 -71 203 C-70.412 202.689 -69.824 202.378 -69.219 202.057 C-42.972 188.109 -3.997 167.029 8.438 137.977 C10.639 130.241 8.875 124.268 5.098 117.348 C-5.285 99.782 -5.285 99.782 -20.691 88.215 C-21.453 88.144 -22.215 88.073 -23 88 C-24.421 89.21 -24.421 89.21 -24.375 92.75 C-24.228 104.354 -16.991 115.485 -11.098 125.105 C-5.138 134.916 -5.138 134.916 -5 141 C-5.99 141.33 -6.98 141.66 -8 142 C-8.294 141 -8.294 141 -8.594 139.98 C-13.928 123.541 -30.468 103.629 -45 94 C-47.668 93.749 -47.668 93.749 -50 94 C-51.206 95.747 -51.206 95.747 -52 98 C-49.925 106.049 -43.514 112.795 -38.447 119.171 C-21.87 140.116 -21.87 140.116 -20 147 C-20.395 149.77 -20.395 149.77 -21 152 C-21.99 151.67 -22.98 151.34 -24 151 C-24.887 148.883 -24.887 148.883 -25.688 146.125 C-28.873 136.74 -35.013 129.813 -42 123 C-42 122.34 -42 121.68 -42 121 C-42.516 120.773 -43.031 120.546 -43.562 120.312 C-45.764 119.127 -47.482 117.85 -49.438 116.312 C-51.983 114.452 -52.617 113.992 -55.875 114.062 C-58.168 114.804 -58.168 114.804 -59 117 C-59 129.507 -50.342 139.247 -43.177 148.861 C-39.455 153.958 -35.628 159.433 -36.312 166 C-36.653 166.99 -36.653 166.99 -37 168 C-37.99 168 -38.98 168 -40 168 C-40.098 167.443 -40.196 166.886 -40.297 166.312 C-42.277 156.205 -46.264 150.38 -53.324 142.891 C-56.799 139.137 -59.984 135.202 -63.188 131.215 C-64.961 128.972 -64.961 128.972 -67 127 C-69.584 126.833 -69.584 126.833 -72 127 C-73.618 137.399 -64.005 146.41 -58.25 154.312 C-57.683 155.077 -57.116 155.842 -56.532 156.63 C-50.529 164.796 -50.529 164.796 -49 169 C-49.648 171.078 -49.648 171.078 -51 173 C-51.425 173.779 -51.851 174.557 -52.289 175.359 C-52.73 176.148 -53.171 176.937 -53.625 177.75 C-54.294 178.949 -54.294 178.949 -54.977 180.172 C-55.314 180.775 -55.652 181.378 -56 182 C-56.99 181.67 -57.98 181.34 -59 181 C-58.01 178.36 -57.02 175.72 -56 173 C-56.63 172.945 -57.26 172.889 -57.908 172.832 C-60.793 172.578 -63.678 172.32 -66.562 172.062 C-68.048 171.932 -68.048 171.932 -69.564 171.799 C-72.378 171.546 -75.189 171.276 -78 171 C-78.728 170.939 -79.456 170.879 -80.207 170.816 C-82.09 170.621 -82.09 170.621 -85 170 C-87.247 166.63 -87.118 165.383 -86.516 161.51 C-85.418 156.169 -83.91 150.935 -82.438 145.688 C-81.787 143.359 -81.14 141.03 -80.496 138.699 C-80.209 137.677 -79.922 136.654 -79.627 135.6 C-78.883 132.96 -78.883 132.96 -79 130 C-88.705 142.978 -94.389 154.607 -94.125 170.938 C-94.111 172.536 -94.111 172.536 -94.098 174.166 C-94.074 176.778 -94.041 179.389 -94 182 C-95.32 182.33 -96.64 182.66 -98 183 C-100.789 165.674 -98.581 152.594 -89.75 137.312 C-89.249 136.44 -89.249 136.44 -88.739 135.55 C-86.377 131.678 -83.707 128.696 -80.492 125.492 C-74.908 119.375 -73.266 112.636 -71.375 104.812 C-70.983 103.292 -70.588 101.772 -70.19 100.253 C-69.295 96.829 -68.415 93.402 -67.542 89.973 C-64.81 79.31 -61.869 68.702 -58.966 58.085 C-57.943 54.332 -56.927 50.577 -55.914 46.822 C-55.285 44.502 -54.656 42.183 -54.027 39.863 C-53.736 38.78 -53.445 37.696 -53.145 36.579 C-52.742 35.1 -52.742 35.1 -52.332 33.591 C-52.098 32.725 -51.864 31.859 -51.622 30.966 C-51 29 -51 29 -50 28 C-47.768 28.065 -45.539 28.203 -43.312 28.375 C-42.092 28.465 -40.871 28.555 -39.613 28.648 C-36.393 28.962 -33.192 29.468 -30 30 C-30.66 33.96 -31.32 37.92 -32 42 C-31.34 42.33 -30.68 42.66 -30 43 C-29.34 42.67 -28.68 42.34 -28 42 C-28.184 41.274 -28.369 40.549 -28.559 39.801 C-30.218 29.271 -22.007 15.646 -16.062 7.27 C-11.297 1.631 -7.652 -0.792 0 0 Z M-11 7 C-16.953 13.448 -22.251 22.356 -24 31 C-21.36 31.33 -18.72 31.66 -16 32 C-15.527 31.105 -15.054 30.211 -14.566 29.289 C-10.607 21.994 -6.596 15.942 -0.59 10.086 C1.28 8.131 1.28 8.131 0.746 5.727 C0.5 5.157 0.254 4.587 0 4 C-4.978 2.243 -7.073 3.715 -11 7 Z M7 8 C7.41 9.051 7.82 10.101 8.242 11.184 C17.559 35.324 17.559 35.324 14 46 C14.66 46.66 15.32 47.32 16 48 C17.98 47.505 17.98 47.505 20 47 C19.67 43.7 19.34 40.4 19 37 C20.32 37 21.64 37 23 37 C22.681 26.964 21.182 18.597 16.188 9.812 C13.143 7.29 10.847 7.87 7 8 Z M2 11 C-3.352 16.363 -11 25.064 -11 33 C0.385 34.485 0.385 34.485 12 36 C11.303 27.608 11.303 27.608 9.062 20.125 C8.723 19.241 8.384 18.356 8.035 17.445 C7.104 15.245 6.099 13.12 5 11 C4.01 11 3.02 11 2 11 Z " fill="#000000" transform="translate(697,422)"/>
<path d="M0 0 C4.677 1.477 4.677 1.477 6.312 4.125 C6.539 4.744 6.766 5.362 7 6 C5.68 6 4.36 6 3 6 C0.75 3.5 0.75 3.5 -1 1 C-0.67 0.67 -0.34 0.34 0 0 Z " fill="#000000" transform="translate(641,539)"/>
<path d="M0 0 C2.041 1.616 4.041 3.286 6 5 C6 5.66 6 6.32 6 7 C4.125 6.688 4.125 6.688 2 6 C0 3 0 3 0 0 Z " fill="#000000" transform="translate(627,552)"/>
<path d="M0 0 C4.976 0.452 8.34 2.773 12 6 C14.618 9.462 15 10.559 15 15 C12.603 14.622 11.344 14.413 9.762 12.512 C9.23 11.609 9.23 11.609 8.688 10.688 C6.051 6.683 3.27 5.093 -1 3 C-0.67 2.01 -0.34 1.02 0 0 Z " fill="#000000" transform="translate(441,560)"/>
<path d="M0 0 C1.32 0 2.64 0 4 0 C4.211 0.523 4.422 1.046 4.639 1.585 C9.896 14.826 9.896 14.826 17.066 27.09 C18 29 18 29 17.652 31.254 C17.437 31.83 17.222 32.406 17 33 C13.802 31.661 12.387 30.54 10.781 27.473 C10.408 26.768 10.035 26.063 9.65 25.336 C9.271 24.586 8.891 23.836 8.5 23.062 C8.106 22.299 7.711 21.536 7.305 20.75 C0 6.364 0 6.364 0 0 Z " fill="#000000" transform="translate(315,599)"/>
<path d="M0 0 C0.99 0.33 1.98 0.66 3 1 C4.027 3.809 4.027 3.809 4.938 7.438 C10.162 26.842 21.106 45.428 38.562 56.312 C39.367 56.869 40.171 57.426 41 58 C41 58.99 41 59.98 41 61 C35.571 61.446 33.423 59.453 29.387 56.098 C28.599 55.405 27.811 54.713 27 54 C26.264 53.359 25.528 52.719 24.77 52.059 C12.38 40.503 -0.226 20.927 -1.188 3.625 C-1 1 -1 1 0 0 Z " fill="#000000" transform="translate(578,609)"/>
<path d="M0 0 C2.493 0.997 3.775 1.651 5.25 3.938 C6 6 6 6 6 9 C2.665 7.62 0.814 6.15 -1 3 C-0.67 2.01 -0.34 1.02 0 0 Z " fill="#000000" transform="translate(605,611)"/>
</svg>
