<?xml version="1.0" encoding="UTF-8"?>
<!-- Generator: visioncortex VTracer 0.6.0 -->
<svg version="1.1" xmlns="http://www.w3.org/2000/svg" width="350" height="350">
<path d="M0 0 C6.471 4.799 10.386 10.006 12 18 C12.039 20.333 12.045 22.667 12 25 C12.99 25 13.98 25 15 25 C15.041 24.319 15.082 23.639 15.125 22.938 C16.353 18.814 18.763 15.82 22 13 C24.199 12.297 24.199 12.297 26 12 C25 15 25 15 22.625 16.75 C20.108 18.907 19.496 19.723 18.336 22.641 C17.675 24.304 17.675 24.304 17 26 C17.99 25.518 18.98 25.036 20 24.539 C21.333 23.901 22.666 23.263 24 22.625 C24.648 22.308 25.297 21.991 25.965 21.664 C35.336 17.21 43.288 16.789 53.574 17.166 C54.473 17.185 55.371 17.203 56.297 17.223 C57.509 17.265 57.509 17.265 58.745 17.309 C61.553 16.924 62.821 15.755 65 14 C70.435 13.149 76.158 13.115 81.125 15.688 C84.063 18.05 85.097 19.387 86 23 C86.866 22.918 87.732 22.835 88.625 22.75 C93.84 23.136 96.654 25.69 100.312 29.25 C102.567 32.924 102.71 35.721 103 40 C103.743 40.083 104.485 40.165 105.25 40.25 C108.643 41.175 109.84 42.244 112 45 C114.16 49.628 114.304 53.063 113 58 C111.062 59.938 111.062 59.938 109 61 C108.34 61 107.68 61 107 61 C106.917 61.784 106.835 62.567 106.75 63.375 C106 66 106 66 103.953 67.164 C103.309 67.44 102.664 67.716 102 68 C102.205 68.724 102.41 69.449 102.621 70.195 C106.803 85.203 108.133 99.143 100.312 113.25 C94.143 122.815 84.946 128.81 73.875 131.312 C72.596 131.539 71.317 131.766 70 132 C69.67 133.98 69.34 135.96 69 138 C70.196 138.186 71.393 138.371 72.625 138.562 C82.189 140.711 93.236 145.787 99 154 C99 154.66 99 155.32 99 156 C99.66 156 100.32 156 101 156 C101 155.01 101 154.02 101 153 C102.812 153.062 102.812 153.062 105 154 C106.75 157.562 106.75 157.562 108 161 C109.65 157.7 111.3 154.4 113 151 C117.567 154.647 119.049 159.393 121.062 164.688 C121.57 165.978 121.57 165.978 122.088 167.295 C128 182.47 128 182.47 128 187 C134.27 187 140.54 187 147 187 C147.454 189.805 147.908 192.61 148.375 195.5 C148.603 196.898 148.603 196.898 148.836 198.324 C149.484 202.38 150.074 206.415 150.434 210.508 C151.094 217.864 151.928 223.412 156.66 229.301 C159.528 232.938 159.579 237.176 159.531 241.633 C157.778 252.748 150.351 263.752 142 271 C135.114 275.913 128.894 279.295 120.312 279.188 C119.174 279.181 118.036 279.175 116.863 279.168 C114 279 114 279 112 278 C111.812 286.7 112.397 295.327 113 304 C112.34 304 111.68 304 111 304 C109.518 301.035 109.524 297.908 109.246 294.648 C109.181 293.916 109.116 293.183 109.049 292.428 C108.911 290.873 108.776 289.318 108.643 287.762 C108.44 285.405 108.229 283.048 108.018 280.691 C107.885 279.177 107.753 277.663 107.621 276.148 C107.559 275.452 107.496 274.756 107.432 274.039 C107.375 273.365 107.318 272.692 107.26 271.998 C107.209 271.417 107.159 270.837 107.107 270.239 C106.944 266.83 107 263.413 107 260 C96.11 260 85.22 260 74 260 C72.548 257.095 73.092 254.795 73.33 251.562 C73.377 250.902 73.424 250.242 73.472 249.562 C73.629 247.374 73.795 245.187 73.961 243 C74.072 241.483 74.184 239.966 74.294 238.449 C74.528 235.268 74.765 232.087 75.006 228.906 C75.314 224.824 75.614 220.742 75.91 216.659 C76.139 213.526 76.371 210.393 76.605 207.26 C76.717 205.755 76.828 204.249 76.938 202.744 C77.092 200.641 77.251 198.539 77.412 196.438 C77.501 195.24 77.591 194.042 77.683 192.809 C78 190 78 190 79 188 C82.63 188 86.26 188 90 188 C90.264 186.707 90.529 185.414 90.801 184.082 C92.08 178.318 94.036 172.851 96.053 167.311 C96.318 166.552 96.583 165.793 96.855 165.012 C97.099 164.336 97.343 163.66 97.594 162.964 C98.228 159.898 97.523 157.8 95.836 155.219 C92.265 151.018 88.936 148.468 84 146 C83.629 147.33 83.629 147.33 83.25 148.688 C80.935 154.822 77.746 157.465 72 160.203 C61.974 164.198 48.927 162.86 38.988 159.32 C29.659 155.198 22.319 149.002 15 142 C-9.471 148.955 -28.016 177.184 -40 198 C-40.33 198.66 -40.66 199.32 -41 200 C-40.432 200.026 -39.863 200.052 -39.277 200.078 C-29.692 200.782 -24.944 204.614 -18.797 211.684 C-16.98 214.026 -15.47 216.428 -14 219 C-12.02 218.01 -10.04 217.02 -8 216 C-7.603 207.937 -8.894 200.778 -12.164 193.359 C-13 191 -13 191 -12 188 C-5.995 195.107 -4.387 204.959 -5 214 C-4.34 213.67 -3.68 213.34 -3 213 C-1.678 208.651 -1.885 204.189 -1.938 199.688 C-1.942 198.947 -1.947 198.206 -1.951 197.443 C-1.963 195.629 -1.981 193.814 -2 192 C-1.34 191.67 -0.68 191.34 0 191 C0.902 193.707 1.119 195.238 1.098 198.012 C1.093 199.148 1.093 199.148 1.088 200.307 C1.075 201.485 1.075 201.485 1.062 202.688 C1.058 203.485 1.053 204.282 1.049 205.104 C1.037 207.069 1.019 209.035 1 211 C8.589 208.643 8.589 208.643 14.093 203.226 C15.613 199.826 16.681 196.348 17.719 192.777 C19.506 187.509 21.898 184.28 26.812 181.688 C30.885 179.318 33.434 176.405 36.262 172.672 C38.47 170.548 39.984 170.304 43 170 C49.195 170.32 49.195 170.32 52 172.688 C53.347 175.802 52.762 177.744 52 181 C52 181.99 52 182.98 52 184 C51.74 190.103 49.432 194.563 46.609 199.934 C45.15 202.715 43.823 205.527 42.5 208.375 C40.3 212.818 37.704 215.727 34 219 C35.552 223.01 37.304 226.91 39.098 230.816 C42.57 239.219 41.695 247.958 38.32 256.242 C30.161 273.286 16.278 284.768 -1 292 C-12.95 296 -12.95 296 -18 296 C-18.144 296.949 -18.289 297.897 -18.438 298.875 C-19 302 -19 302 -20 304 C-20.66 304 -21.32 304 -22 304 C-20.556 296.781 -18.422 289.949 -16 283 C-16.496 283.266 -16.993 283.531 -17.504 283.805 C-26.469 288.466 -36.396 291.36 -46.441 288.242 C-48.42 287.289 -50.189 286.239 -52 285 C-52.866 284.464 -53.733 283.928 -54.625 283.375 C-61.985 276.015 -64.29 268.127 -64.319 258.032 C-64.133 246.566 -60.934 236.007 -55.855 225.746 C-53.807 219.17 -57.056 212.806 -59.598 206.785 C-59.951 205.929 -60.305 205.074 -60.67 204.192 C-61.793 201.479 -62.928 198.771 -64.062 196.062 C-64.83 194.216 -65.596 192.369 -66.361 190.521 C-68.232 186.011 -70.114 181.504 -72 177 C-69.151 173.952 -66.25 172.538 -62.438 170.812 C-61.281 170.283 -60.125 169.753 -58.934 169.207 C-56 168 -56 168 -54 168 C-54.438 167.158 -54.877 166.316 -55.328 165.449 C-59.981 156.395 -64.323 147.192 -68.562 137.938 C-69.386 136.19 -69.386 136.19 -70.226 134.407 C-75 123.849 -75 123.849 -73 118 C-70.629 112.418 -66.644 110.967 -61.387 108.645 C-60.116 108.063 -60.116 108.063 -58.82 107.47 C-56.115 106.237 -53.401 105.025 -50.688 103.812 C-48.872 102.986 -47.058 102.159 -45.244 101.33 C-30.961 94.841 -30.961 94.841 -25 93 C-21.185 101.894 -18.195 111.077 -15.144 120.252 C-14.243 122.957 -13.335 125.659 -12.426 128.361 C-11.851 130.083 -11.277 131.805 -10.703 133.527 C-10.431 134.334 -10.16 135.14 -9.879 135.97 C-8.849 139.086 -8 141.695 -8 145 C-6.35 144.34 -4.7 143.68 -3 143 C-2.67 144.32 -2.34 145.64 -2 147 C-1.093 146.484 -0.185 145.969 0.75 145.438 C1.388 145.077 2.026 144.716 2.684 144.344 C4.399 143.349 6.097 142.323 7.785 141.281 C16.742 135.826 24.416 132.412 35 133 C35.33 129.37 35.66 125.74 36 122 C34.721 121.588 33.442 121.175 32.125 120.75 C30.416 120.167 28.708 119.584 27 119 C26.219 118.756 25.438 118.513 24.633 118.262 C11.946 113.873 2.103 104.787 -4.047 92.992 C-9.473 81.168 -7.935 66.051 -4 54 C-2.485 50.25 -0.829 46.607 1 43 C-0.134 43.516 -1.269 44.031 -2.438 44.562 C-7.143 46.349 -11.14 46.089 -16 45 C-16.99 44.505 -16.99 44.505 -18 44 C-18 43.34 -18 42.68 -18 42 C-17.371 42.107 -16.742 42.214 -16.094 42.324 C-9.741 43.214 -5.751 42.926 0 40 C1.994 37.99 1.994 37.99 3 36 C2.196 36.495 1.391 36.99 0.562 37.5 C-4.911 39.805 -9.565 39.812 -15.188 37.938 C-19.292 35.11 -22.755 31.49 -25 27 C-25.557 21.043 -25.522 16.048 -22 11 C-16.433 5.537 -12.637 4.666 -4.992 4.703 C-0.853 5.114 0.902 6.309 4 9 C4.99 9.495 4.99 9.495 6 10 C3.69 7.36 1.38 4.72 -1 2 C-0.67 1.34 -0.34 0.68 0 0 Z M7 12 C8 14 8 14 8 14 Z M44 42 C44.046 42.967 44.093 43.934 44.141 44.93 C44.499 57.841 41.818 66.362 33 76 C25.394 83.577 25.394 83.577 21 84 C20.01 83.34 19.02 82.68 18 82 C13.788 81.532 11.714 81.534 8.125 83.875 C5.224 86.776 5.037 87.556 4.688 91.75 C4.755 97.061 7.206 100.078 10.75 103.875 C14.129 105.565 17.296 105.592 21 105 C23.46 103.662 23.46 103.662 25 102 C25.248 102.701 25.495 103.403 25.75 104.125 C28.378 110.17 32.189 114.607 37 119 C37.66 119 38.32 119 39 119 C37.515 130.88 37.515 130.88 36 143 C46.163 148.157 46.163 148.157 56.625 149.125 C57.772 149.128 58.92 149.13 60.102 149.133 C62.94 149.199 62.94 149.199 65 148 C65.468 145.414 65.468 145.414 65.625 142.438 C65.7 141.426 65.775 140.414 65.852 139.371 C65.901 138.589 65.95 137.806 66 137 C63.897 135.851 61.793 134.706 59.688 133.562 C58.795 133.074 58.795 133.074 57.885 132.576 C55.276 131.163 52.822 129.941 50 129 C50 128.34 50 127.68 50 127 C50.895 127.228 51.789 127.456 52.711 127.691 C65.454 130.721 76.005 130.445 87.484 123.496 C96.104 117.263 101.641 108.628 103.504 98.172 C104.953 85.782 101.659 74.061 98.5 62.188 C98.299 61.416 98.097 60.645 97.89 59.851 C96.832 56.057 95.931 53.623 93 51 C91.762 51.928 91.762 51.928 90.5 52.875 C82.798 57.95 73.321 57.9 64.5 56.375 C55.785 54.165 49.677 49.543 45 42 C44.67 42 44.34 42 44 42 Z M-31.791 97.621 C-32.569 97.975 -33.346 98.328 -34.147 98.693 C-34.987 99.081 -35.826 99.468 -36.691 99.867 C-37.552 100.262 -38.412 100.657 -39.299 101.064 C-41.12 101.901 -42.94 102.74 -44.759 103.581 C-47.551 104.87 -50.349 106.148 -53.146 107.426 C-54.912 108.239 -56.677 109.053 -58.441 109.867 C-59.283 110.251 -60.125 110.634 -60.992 111.029 C-61.766 111.389 -62.54 111.749 -63.338 112.121 C-64.023 112.436 -64.707 112.751 -65.413 113.076 C-67.185 113.914 -67.185 113.914 -68 116 C-67.148 118.605 -66.227 121.107 -65.211 123.648 C-64.911 124.416 -64.61 125.184 -64.301 125.975 C-63.333 128.445 -62.354 130.91 -61.375 133.375 C-60.738 134.998 -60.101 136.622 -59.465 138.246 C-56.077 146.874 -52.615 155.465 -49 164 C-45.05 163.316 -42.365 162.212 -39 160 C-40.861 157.932 -42.66 156.56 -45 155 C-49.658 151.895 -49.658 151.895 -51 150 C-50.566 147.906 -50.566 147.906 -50 146 C-43.902 145.779 -38.784 145.988 -33 148 C-33.637 146.013 -33.637 146.013 -35 144 C-37.42 142.792 -37.42 142.792 -40.25 142 C-47 139.732 -51.962 137.057 -56 131 C-56 130.01 -56 129.02 -56 128 C-50.015 128.343 -45.249 128.823 -40 132 C-40.54 128.525 -40.54 128.525 -42 125 C-44.672 123.607 -44.672 123.607 -48 123 C-49.425 122.523 -50.841 122.022 -52.25 121.5 C-52.915 121.263 -53.58 121.026 -54.266 120.781 C-56 120 -56 120 -58 118 C-57.67 116.68 -57.34 115.36 -57 114 C-53.7 114 -50.4 114 -47 114 C-47.66 111.69 -48.32 109.38 -49 107 C-48.34 107 -47.68 107 -47 107 C-46.01 109.97 -45.02 112.94 -44 116 C-40.64 114.32 -39.882 110.583 -38.414 107.25 C-37 105 -37 105 -34.836 104.188 C-34.23 104.126 -33.624 104.064 -33 104 C-32.658 111.853 -33.092 118.767 -35.246 126.344 C-35.495 127.22 -35.744 128.097 -36 129 C-36.237 129.829 -36.474 130.658 -36.719 131.512 C-37.074 134.653 -36.328 136.437 -35.062 139.312 C-34.682 140.196 -34.302 141.079 -33.91 141.988 C-33.61 142.652 -33.309 143.316 -33 144 C-30.748 141.748 -30.237 140.165 -29.188 137.188 C-27.425 132.661 -25.896 129.922 -22 127 C-20.68 127 -19.36 127 -18 127 C-17.736 135.28 -18.45 142.86 -20 151 C-16.7 149.35 -13.4 147.7 -10 146 C-11.328 139.524 -13.087 133.391 -15.258 127.152 C-15.566 126.255 -15.874 125.358 -16.191 124.433 C-17.164 121.6 -18.145 118.769 -19.125 115.938 C-19.791 114.003 -20.456 112.069 -21.121 110.135 C-22.742 105.421 -24.37 100.71 -26 96 C-28.373 96 -29.636 96.634 -31.791 97.621 Z M-36 106 C-36.959 107.64 -36.959 107.64 -37.938 109.312 C-38.477 110.235 -38.477 110.235 -39.027 111.176 C-41.249 115.342 -41.386 119.384 -41 124 C-40.118 126.882 -40.118 126.882 -39 129 C-36.737 128.159 -36.737 128.159 -36.148 125.559 C-34.665 119.574 -33.429 114.171 -34 108 C-34.66 107.34 -35.32 106.68 -36 106 Z M19 110 C19 111.32 19 112.64 19 114 C19.99 113.67 20.98 113.34 22 113 C21.01 112.01 20.02 111.02 19 110 Z M-56 115 C-56 115.99 -56 116.98 -56 118 C-54.755 118.677 -53.504 119.341 -52.25 120 C-51.554 120.371 -50.858 120.743 -50.141 121.125 C-47.768 122.252 -47.768 122.252 -44 122 C-45.138 118.35 -45.138 118.35 -47.75 115.688 C-50.571 114.825 -53.068 114.867 -56 115 Z M-70 118 C-70.33 118.99 -70.66 119.98 -71 121 C-70.34 121 -69.68 121 -69 121 C-69.33 120.01 -69.66 119.02 -70 118 Z M-71 123 C-70.426 127.595 -69.179 131.217 -67.199 135.395 C-66.922 135.986 -66.644 136.578 -66.358 137.187 C-65.475 139.066 -64.581 140.939 -63.688 142.812 C-62.809 144.671 -61.932 146.531 -61.055 148.391 C-60.216 150.171 -59.374 151.95 -58.533 153.729 C-56.628 157.794 -54.801 161.888 -53 166 C-52.34 166 -51.68 166 -51 166 C-51.606 161.372 -52.859 157.45 -54.617 153.133 C-54.875 152.494 -55.133 151.856 -55.398 151.198 C-56.218 149.171 -57.046 147.148 -57.875 145.125 C-58.693 143.112 -59.51 141.099 -60.326 139.085 C-60.848 137.796 -61.371 136.507 -61.895 135.219 C-63.673 130.839 -65.376 126.44 -67 122 C-69.075 121.851 -69.075 121.851 -71 123 Z M-22 129 C-26.845 133.98 -29.305 139.26 -31 146 C-30.935 149.627 -30.735 151.118 -28.438 153.875 C-27.963 154.246 -27.489 154.618 -27 155 C-24.996 154.503 -24.996 154.503 -23 153 C-22.034 150.56 -21.345 148.403 -20.75 145.875 C-20.58 145.2 -20.41 144.525 -20.235 143.83 C-19.098 139.077 -18.604 134.853 -19 130 C-19.99 129.67 -20.98 129.34 -22 129 Z M-54 130 C-51.641 136.006 -46.334 138.5 -40.867 141.266 C-38.869 142.183 -38.869 142.183 -36 142 C-36.559 138.643 -37.364 136.551 -39.961 134.301 C-46.515 129.493 -46.515 129.493 -54 130 Z M17 139 C22.653 149.422 34.761 155.923 45.812 159.375 C55.889 161.39 66.917 161.109 76 156 C80.197 152.665 81.289 149.209 82 144 C80.043 143.33 78.084 142.664 76.125 142 C75.034 141.629 73.944 141.257 72.82 140.875 C70.174 139.901 70.174 139.901 68 140 C68 141.65 68 143.3 68 145 C69.32 144.34 70.64 143.68 72 143 C71.812 144.875 71.812 144.875 71 147 C68.562 148.188 68.562 148.188 66 149 C65.34 149.33 64.68 149.66 64 150 C50.811 151.181 40.41 148.517 30 140 C30 139.67 30 139.34 30 139 C31.65 138.67 33.3 138.34 35 138 C35 137.01 35 136.02 35 135 C28.096 134.489 23.252 136.13 17 139 Z M-49 147 C-49.331 149.967 -49.331 149.967 -47.645 151.535 C-42.813 155.649 -42.813 155.649 -37 158 C-34.266 157.705 -34.266 157.705 -32 157 C-31.136 155.219 -31.136 155.219 -31 153 C-33.722 149.298 -36.589 148.018 -41 147 C-43.693 146.854 -46.299 146.907 -49 147 Z M113 155 C112.462 156.368 111.945 157.745 111.438 159.125 C111.147 159.891 110.857 160.656 110.559 161.445 C109.255 167.407 111.957 173.242 113.938 178.812 C114.202 179.588 114.467 180.363 114.74 181.162 C115.914 185.33 115.914 185.33 119 188 C121.34 187.718 123.675 187.387 126 187 C124.354 179.524 121.749 172.475 118.938 165.375 C118.585 164.474 118.232 163.572 117.869 162.644 C117.36 161.378 117.36 161.378 116.84 160.086 C116.534 159.323 116.229 158.561 115.914 157.775 C115.127 155.817 115.127 155.817 113 155 Z M102 156 C102.468 160.776 103.243 164.045 106 168 C106.883 165.533 107.131 164.361 106.223 161.859 C105.648 160.815 105.648 160.815 105.062 159.75 C104.682 159.044 104.302 158.337 103.91 157.609 C103.61 157.078 103.309 156.547 103 156 C102.67 156 102.34 156 102 156 Z M100 163 C98.662 166.79 97.33 170.582 96 174.375 C95.618 175.455 95.237 176.535 94.844 177.648 C94.483 178.68 94.122 179.711 93.75 180.773 C93.247 182.203 93.247 182.203 92.734 183.662 C91.9 185.91 91.9 185.91 92 188 C95.3 188 98.6 188 102 188 C105.315 176.21 105.315 176.21 102.938 164.5 C102.628 164.005 102.319 163.51 102 163 C101.34 163 100.68 163 100 163 Z M108 170 C108.688 176.192 110.28 182.02 112 188 C112.99 188 113.98 188 115 188 C113.838 181.533 111.875 175.904 109 170 C108.67 170 108.34 170 108 170 Z M38 179 C35.543 181.914 33.238 184.915 31 188 C31.33 187.237 31.66 186.474 32 185.688 C33.174 183.009 33.174 183.009 33 180 C28.384 185.368 25.118 190.306 22.824 197.031 C22 199 22 199 20 200 C20.228 199.457 20.456 198.915 20.691 198.355 C20.979 197.64 21.266 196.925 21.562 196.188 C21.853 195.48 22.143 194.772 22.441 194.043 C23.251 191.826 23.251 191.826 22 189 C19.14 194.339 17.269 199.079 16 205 C16.603 205.242 17.207 205.485 17.828 205.734 C23.999 208.322 28.262 210.611 31 217 C42.065 212.119 45.866 196.437 50 186 C46.276 188.37 42.904 190.65 40 194 C40 194.66 40 195.32 40 196 C39.34 196 38.68 196 38 196 C39.444 192.634 41.264 190.604 43.938 188.125 C47.154 184.996 49.378 182.258 51 178 C51 177.34 51 176.68 51 176 C46.933 177.58 44.707 180.32 41.875 183.562 C37.194 188.903 37.194 188.903 35 190 C36.228 188.458 37.458 186.916 38.688 185.375 C39.413 184.465 40.139 183.555 40.887 182.617 C42.559 180.546 44.261 178.515 46 176.5 C48.208 174.273 48.208 174.273 48 172 C43.938 172 40.742 176.282 38 179 Z M39 173 C37.35 174.65 35.7 176.3 34 178 C34.33 178.66 34.66 179.32 35 180 C36.65 178.35 38.3 176.7 40 175 C39.67 174.34 39.34 173.68 39 173 Z M106 177 C104.807 180.877 104 183.916 104 188 C105.98 188 107.96 188 110 188 C109.719 186.352 109.425 184.707 109.125 183.062 C108.881 181.688 108.881 181.688 108.633 180.285 C108.424 179.531 108.215 178.777 108 178 C107.34 177.67 106.68 177.34 106 177 Z M80 191 C79.547 193.242 79.547 193.242 79.406 195.988 C79.326 197.053 79.246 198.119 79.164 199.217 C79.086 200.38 79.009 201.544 78.93 202.742 C78.844 203.935 78.758 205.129 78.669 206.358 C78.488 208.895 78.312 211.432 78.14 213.97 C77.878 217.824 77.603 221.678 77.324 225.531 C77.15 227.997 76.977 230.463 76.805 232.93 C76.683 234.644 76.683 234.644 76.559 236.394 C76.097 243.275 75.9 250.104 76 257 C79.62 257.743 83.04 258.058 86.723 258.031 C87.927 258.024 87.927 258.024 89.156 258.018 C89.765 258.012 90.373 258.006 91 258 C91.129 235.308 90.88 212.676 90 190 C88.082 189.969 88.082 189.969 86.125 189.938 C85.406 189.926 84.686 189.914 83.945 189.902 C81.918 189.874 81.918 189.874 80 191 Z M117.672 189.219 C116.873 189.264 116.073 189.309 115.25 189.355 C114.425 189.403 113.6 189.451 112.75 189.5 C111.91 189.548 111.069 189.595 110.203 189.645 C108.135 189.762 106.068 189.881 104 190 C102.702 192.224 102.702 192.224 103 196 C102.34 194.02 101.68 192.04 101 190 C98.03 190 95.06 190 92 190 C92 198.25 92 206.5 92 215 C92.66 215 93.32 215 94 215 C94.66 212.69 95.32 210.38 96 208 C99.188 207.188 99.188 207.188 103 207 C105.688 209.438 105.688 209.438 108 212 C111.771 212.306 111.771 212.306 113.938 211 C116.478 209.768 118.209 209.706 121 210 C123 212 123 212 124 216 C131.92 215.67 139.84 215.34 148 215 C147.511 206.12 146.793 197.727 145 189 C139.72 189 134.44 189 129 189 C128.67 190.32 128.34 191.64 128 193 C127.34 191.68 126.68 190.36 126 189 C123.197 189 120.465 189.059 117.672 189.219 Z M-43 203 C-60.376 234.93 -60.376 234.93 -61.121 269.926 C-57.923 276.88 -53.304 282.03 -46.75 285.938 C-35.38 289.159 -25.201 285.883 -15.016 280.391 C-12.258 278.692 -9.623 276.9 -7 275 C-5.807 274.141 -5.807 274.141 -4.59 273.266 C7.91 263.754 18.354 252.723 26 239 C26.837 237.529 26.837 237.529 27.691 236.027 C30.912 229.788 31.922 224.838 30 218 C28.583 214.331 26.762 211.657 23.75 209.062 C18.623 207.082 13.871 207.404 8.887 209.504 C7.478 210.172 6.078 210.859 4.688 211.562 C3.946 211.927 3.205 212.291 2.441 212.666 C-16.352 222.062 -30.207 233.747 -37 254 C-36.629 245.845 -32.458 238.686 -28 232 C-31.665 233.599 -34.444 235.881 -37.5 238.438 C-40.617 241.036 -43.727 243.6 -47 246 C-47 245.34 -47 244.68 -47 244 C-45.038 242.289 -43.068 240.7 -41 239.125 C-40.384 238.648 -39.767 238.172 -39.132 237.68 C-31.815 232.042 -24.411 226.515 -17 221 C-19.111 213.536 -23.618 208.427 -29.875 203.938 C-34.276 202.617 -38.441 202.757 -43 203 Z M100 210 C99.34 210.66 98.68 211.32 98 212 C98 212.99 98 213.98 98 215 C100.97 215 103.94 215 107 215 C105.201 212.439 105.201 212.439 103 210 C102.01 210 101.02 210 100 210 Z M115 213 C114.34 213.66 113.68 214.32 113 215 C114.98 215 116.96 215 119 215 C119 214.34 119 213.68 119 213 C117.68 213 116.36 213 115 213 Z M93 218 C92.975 223.214 92.957 228.429 92.945 233.643 C92.94 235.417 92.933 237.191 92.925 238.966 C92.912 241.515 92.907 244.064 92.902 246.613 C92.897 247.407 92.892 248.201 92.887 249.019 C92.886 252.277 92.962 254.887 94 258 C105.88 258 117.76 258 130 258 C127.412 255.412 126.271 254.508 123.125 253.125 C119.358 251.318 116.719 249.229 114 246 C114 245.34 114 244.68 114 244 C115.65 244 117.3 244 119 244 C118.34 243.092 117.68 242.185 117 241.25 C115 238 115 238 115 234 C116.32 233.67 117.64 233.34 119 233 C118.67 231.35 118.34 229.7 118 228 C119.361 228.031 119.361 228.031 120.75 228.062 C123.832 228.155 123.832 228.155 126 227.375 C128 227 128 227 130.812 228.25 C133.828 229.334 133.828 229.334 135.66 228.094 C136.824 227.181 137.978 226.255 139.121 225.316 C142.196 223.162 145.346 222.705 149 222 C149 220.35 149 218.7 149 217 C141.668 216.975 134.335 216.957 127.003 216.945 C124.508 216.94 122.013 216.933 119.519 216.925 C115.934 216.912 112.35 216.907 108.766 216.902 C107.649 216.897 106.532 216.892 105.381 216.887 C104.341 216.887 103.3 216.887 102.228 216.886 C101.313 216.884 100.398 216.882 99.455 216.88 C97.159 216.992 95.199 217.352 93 218 Z M138 228 C137.01 229.485 137.01 229.485 136 231 C140.485 230.344 144.669 229.299 149 228 C149 228.99 149 229.98 149 231 C148.402 230.773 147.804 230.546 147.188 230.312 C146.466 230.209 145.744 230.106 145 230 C143.417 231.417 143.417 231.417 142 233 C137.929 233 134.972 231.389 131.277 229.777 C130.526 229.521 129.774 229.264 129 229 C128.01 229.495 128.01 229.495 127 230 C128.065 230.94 128.065 230.94 129.152 231.898 C130.071 232.716 130.991 233.533 131.938 234.375 C133.312 235.593 133.312 235.593 134.715 236.836 C137 239 137 239 138 241 C137.264 240.385 136.528 239.77 135.77 239.137 C134.794 238.328 133.818 237.52 132.812 236.688 C131.85 235.887 130.887 235.086 129.895 234.262 C127.319 232.249 124.932 230.444 122 229 C121.01 229.33 120.02 229.66 119 230 C123.236 235.189 127.306 239.427 133 243 C133.66 243 134.32 243 135 243 C135 243.66 135 244.32 135 245 C134.047 244.518 133.095 244.036 132.113 243.539 C130.846 242.901 129.579 242.263 128.312 241.625 C127.687 241.308 127.061 240.991 126.416 240.664 C122.996 238.945 119.58 237.355 116 236 C118.872 242.518 124.622 246.2 131 249 C130.67 249.33 130.34 249.66 130 250 C129.385 249.772 128.77 249.544 128.137 249.309 C126.924 248.877 126.924 248.877 125.688 248.438 C124.487 248.002 124.487 248.002 123.262 247.559 C120.857 246.751 120.857 246.751 118 248 C126.406 254.056 126.406 254.056 136.375 256.062 C142.707 254.206 147.37 249.434 151 244 C151 243.34 151 242.68 151 242 C151.66 242 152.32 242 153 242 C149.433 249.283 144.715 254.748 136.984 257.66 C131.363 259.417 125.789 259.558 119.938 259.688 C118.881 259.722 117.825 259.756 116.736 259.791 C114.158 259.873 111.579 259.942 109 260 C109.033 262.271 109.102 264.542 109.188 266.812 C109.222 268.077 109.257 269.342 109.293 270.645 C109.667 274.108 109.667 274.108 112.234 275.914 C117.971 278.167 123.355 277.958 129.137 275.863 C143.065 269.205 151.578 258.336 157 244 C158.031 238.364 156.998 233.625 154.211 228.664 C152.479 226.284 150.706 225.11 148 224 C144.016 224 141.166 225.719 138 228 Z " fill="#000000" transform="translate(133,30)"/>
<path d="M0 0 C3.96 0 7.92 0 12 0 C12 33.33 12 66.66 12 101 C11.67 101 11.34 101 11 101 C11 68.33 11 35.66 11 2 C7.7 2 4.4 2 1 2 C0.67 1.34 0.34 0.68 0 0 Z " fill="#000000" transform="translate(255,68)"/>
<path d="M0 0 C0.66 0 1.32 0 2 0 C2.902 2.707 3.119 4.238 3.098 7.012 C3.093 8.148 3.093 8.148 3.088 9.307 C3.08 10.092 3.071 10.878 3.062 11.688 C3.058 12.485 3.053 13.282 3.049 14.104 C3.037 16.069 3.019 18.035 3 20 C2.01 20 1.02 20 0 20 C0 13.4 0 6.8 0 0 Z " fill="#000000" transform="translate(90,84)"/>
<path d="M0 0 C0.66 0.66 1.32 1.32 2 2 C1.67 3.32 1.34 4.64 1 6 C-2.3 5.34 -5.6 4.68 -9 4 C-9 2.68 -9 1.36 -9 0 C-5.881 -1.559 -3.337 -0.655 0 0 Z " fill="#000000" transform="translate(226,91)"/>
<path d="M0 0 C-0.33 0.99 -0.66 1.98 -1 3 C-5.29 3.66 -9.58 4.32 -14 5 C-14.33 4.34 -14.66 3.68 -15 3 C-12.993 0.696 -11.518 -0.809 -8.625 -1.875 C-5.37 -2.03 -3.009 -1.189 0 0 Z " fill="#000000" transform="translate(197,94)"/>
<path d="M0 0 C3.3 0 6.6 0 10 0 C10 0.66 10 1.32 10 2 C6.7 2 3.4 2 0 2 C0 1.34 0 0.68 0 0 Z " fill="#000000" transform="translate(72,94)"/>
<path d="M0 0 C0.99 0 1.98 0 3 0 C3.103 5.126 3.036 9.95 2 15 C2.619 15.124 3.238 15.248 3.875 15.375 C6 16 6 16 8 18 C8.25 20.5 8.25 20.5 8 23 C7.34 23.66 6.68 24.32 6 25 C5.01 25 4.02 25 3 25 C3 24.34 3 23.68 3 23 C3.66 22.67 4.32 22.34 5 22 C4.67 20.68 4.34 19.36 4 18 C2.68 17.67 1.36 17.34 0 17 C0 11.39 0 5.78 0 0 Z " fill="#000000" transform="translate(208,100)"/>
<path d="M0 0 C2.475 0.99 2.475 0.99 5 2 C4.67 3.65 4.34 5.3 4 7 C2.35 7 0.7 7 -1 7 C-1.625 4.625 -1.625 4.625 -2 2 C-1.34 1.34 -0.68 0.68 0 0 Z " fill="#000000" transform="translate(222,102)"/>
<path d="M0 0 C1.65 0 3.3 0 5 0 C5.688 1.812 5.688 1.812 6 4 C4.562 5.75 4.562 5.75 3 7 C1.68 6.34 0.36 5.68 -1 5 C-0.67 3.35 -0.34 1.7 0 0 Z " fill="#000000" transform="translate(189,106)"/>
<path d="M0 0 C3.3 0.99 6.6 1.98 10 3 C10 3.99 10 4.98 10 6 C8.68 6.33 7.36 6.66 6 7 C6 7.66 6 8.32 6 9 C6.99 9.33 7.98 9.66 9 10 C8.67 10.66 8.34 11.32 8 12 C6.062 11.688 6.062 11.688 4 11 C3.67 10.01 3.34 9.02 3 8 C3.66 7.01 4.32 6.02 5 5 C3.762 4.319 3.762 4.319 2.5 3.625 C1.675 3.089 0.85 2.552 0 2 C0 1.34 0 0.68 0 0 Z " fill="#000000" transform="translate(144,120)"/>
<path d="M0 0 C0.66 0 1.32 0 2 0 C1.417 3.934 -0.207 6.207 -3 9 C-7.925 11.968 -12.756 12.479 -18.391 11.727 C-23.104 10.414 -27.014 7.773 -31 5 C-30.67 4.01 -30.34 3.02 -30 2 C-29.126 2.65 -29.126 2.65 -28.234 3.312 C-21.622 7.804 -15.979 9.456 -8 8 C-3.832 5.928 -2.277 4.011 0 0 Z " fill="#000000" transform="translate(221,129)"/>
<path d="M0 0 C2 2 2 2 2.195 3.945 C2.13 5.964 2.065 7.982 2 10 C4.31 10 6.62 10 9 10 C9 10.66 9 11.32 9 12 C6.69 12 4.38 12 2 12 C2 15.3 2 18.6 2 22 C1.01 22 0.02 22 -1 22 C-1 18.7 -1 15.4 -1 12 C-3.31 12 -5.62 12 -8 12 C-8 11.34 -8 10.68 -8 10 C-5.69 10 -3.38 10 -1 10 C-1.017 9.043 -1.017 9.043 -1.035 8.066 C-1.044 7.24 -1.053 6.414 -1.062 5.562 C-1.074 4.739 -1.086 3.915 -1.098 3.066 C-1 1 -1 1 0 0 Z " fill="#000000" transform="translate(283,145)"/>
<path d="M0 0 C2.062 0.438 2.062 0.438 4 1 C3.67 2.65 3.34 4.3 3 6 C1.35 5.67 -0.3 5.34 -2 5 C-1.125 1.125 -1.125 1.125 0 0 Z " fill="#000000" transform="translate(296,182)"/>
</svg>
