<?xml version="1.0" encoding="UTF-8"?>
<!-- Generator: visioncortex VTracer 0.6.0 -->
<svg version="1.1" xmlns="http://www.w3.org/2000/svg" width="847" height="847">
<path d="M0 0 C0.99 0.66 1.98 1.32 3 2 C1.697 6.359 0.011 9.937 -2.387 13.797 C-3.07 14.907 -3.753 16.017 -4.458 17.161 C-4.821 17.745 -5.184 18.329 -5.558 18.931 C-7.502 22.062 -9.425 25.207 -11.348 28.352 C-11.74 28.993 -12.133 29.635 -12.538 30.296 C-16.334 36.515 -19.999 42.806 -23.625 49.125 C-24.228 50.177 -24.832 51.228 -25.454 52.312 C-26.676 54.444 -27.897 56.578 -29.118 58.712 C-32.421 64.482 -35.742 70.241 -39.062 76 C-39.67 77.056 -40.277 78.112 -40.903 79.2 C-44.536 85.507 -48.231 91.773 -52 98 C-53.65 97.67 -55.3 97.34 -57 97 C-56.316 93.451 -54.868 90.693 -53.113 87.547 C-52.512 86.465 -51.91 85.383 -51.291 84.268 C-50.631 83.095 -49.972 81.923 -49.312 80.75 C-48.632 79.534 -47.952 78.317 -47.272 77.101 C-41.211 66.284 -34.992 55.56 -28.695 44.879 C-27.01 42.016 -25.332 39.149 -23.656 36.281 C-18.324 27.177 -12.911 18.13 -7.312 9.188 C-6.807 8.374 -6.302 7.561 -5.781 6.723 C-5.313 5.983 -4.845 5.243 -4.363 4.48 C-3.954 3.83 -3.544 3.179 -3.122 2.509 C-2 1 -2 1 0 0 Z " fill="#000000" transform="translate(526,178)"/>
<path d="M0 0 C1.207 0.031 1.207 0.031 2.438 0.062 C2.438 1.713 2.438 3.363 2.438 5.062 C0.788 5.393 -0.862 5.722 -2.562 6.062 C-2.945 4.406 -3.276 2.738 -3.562 1.062 C-2.562 0.062 -2.562 0.062 0 0 Z " fill="#000000" transform="translate(561.5625,188.9375)"/>
<path d="M0 0 C0.99 0.33 1.98 0.66 3 1 C3.125 3.375 3.125 3.375 3 6 C2.34 6.66 1.68 7.32 1 8 C-1.125 7.625 -1.125 7.625 -3 7 C-2.25 2.25 -2.25 2.25 0 0 Z " fill="#000000" transform="translate(383,192)"/>
<path d="M0 0 C2.43 0.355 3.65 0.535 5.16 2.539 C8.716 10.759 11 20.024 11 29 C11.959 29.055 12.918 29.111 13.906 29.168 C17.458 29.374 21.01 29.586 24.562 29.8 C26.1 29.891 27.639 29.981 29.177 30.07 C31.387 30.198 33.596 30.331 35.805 30.465 C36.494 30.503 37.184 30.542 37.895 30.582 C42.772 30.886 42.772 30.886 45 32 C45 33.65 45 35.3 45 37 C36.787 40.691 28.555 44.267 20.125 47.438 C19.442 47.696 18.759 47.955 18.055 48.221 C13.256 50 13.256 50 11 50 C11.091 50.604 11.182 51.207 11.275 51.829 C14.57 73.989 14.57 73.989 14 84 C12.02 84.495 12.02 84.495 10 85 C5.304 79.194 3.765 72.398 1.75 65.312 C1.386 64.077 1.023 62.841 0.648 61.568 C-2 52.443 -2 52.443 -2 49 C-3.02 49.016 -3.02 49.016 -4.06 49.032 C-7.186 49.074 -10.312 49.099 -13.438 49.125 C-14.507 49.142 -15.576 49.159 -16.678 49.176 C-23.115 49.215 -28.804 48.803 -35 47 C-35.66 46.34 -36.32 45.68 -37 45 C-36.625 42.375 -36.625 42.375 -36 40 C-25.052 37.321 -14.204 36.015 -3 35 C-2.98 34.046 -2.96 33.093 -2.94 32.11 C-2.864 28.571 -2.775 25.032 -2.683 21.493 C-2.644 19.961 -2.609 18.43 -2.578 16.898 C-2.532 14.696 -2.474 12.495 -2.414 10.293 C-2.397 9.266 -2.397 9.266 -2.379 8.219 C-2.267 4.615 -2.056 3.084 0 0 Z M2 13 C2 21.58 2 30.16 2 39 C0.086 39.193 -1.829 39.387 -3.801 39.586 C-6.305 39.849 -8.809 40.112 -11.312 40.375 C-12.575 40.501 -13.838 40.628 -15.139 40.758 C-16.347 40.887 -17.556 41.016 -18.801 41.148 C-19.916 41.264 -21.032 41.379 -22.181 41.498 C-25.195 41.841 -25.195 41.841 -28 44 C-22.083 45.218 -16.142 45.336 -10.125 45.562 C-9.055 45.606 -7.985 45.649 -6.883 45.693 C-4.255 45.799 -1.628 45.9 1 46 C2.98 52.93 4.96 59.86 7 67 C7.33 67 7.66 67 8 67 C7.67 60.4 7.34 53.8 7 47 C8.865 46.301 10.731 45.603 12.652 44.883 C14.453 44.202 16.253 43.52 18.053 42.837 C19.924 42.13 21.797 41.43 23.67 40.73 C24.84 40.286 26.01 39.841 27.215 39.383 C28.299 38.974 29.383 38.566 30.5 38.145 C33.134 37.255 33.134 37.255 34 35 C25.09 34.34 16.18 33.68 7 33 C6.062 25.812 6.062 25.812 5.774 23.577 C5.304 20.02 4.756 16.508 4 13 C3.34 13 2.68 13 2 13 Z " fill="#000000" transform="translate(337,198)"/>
<path d="M0 0 C1.65 0.33 3.3 0.66 5 1 C3.506 11.045 1.364 20.932 -0.793 30.85 C-1.444 33.843 -2.091 36.836 -2.738 39.83 C-4.114 46.2 -5.494 52.569 -6.875 58.938 C-8.471 66.298 -10.065 73.66 -11.655 81.022 C-12.284 83.931 -12.916 86.84 -13.549 89.749 C-16.23 102.131 -18.686 114.544 -21 127 C-20.06 126.051 -20.06 126.051 -19.1 125.084 C-16.549 122.511 -13.993 119.943 -11.438 117.375 C-10.542 116.471 -9.647 115.568 -8.725 114.637 C-3.981 109.876 0.725 105.173 6 101 C6.66 101 7.32 101 8 101 C8 100.01 8 99.02 8 98 C10.688 97.688 10.688 97.688 14 98 C17.139 100.628 19.755 103.573 22 107 C22 107.66 22 108.32 22 109 C26.114 105.054 29.69 100.822 33.25 96.375 C34.409 94.939 35.568 93.503 36.727 92.066 C37.288 91.369 37.849 90.672 38.427 89.954 C45.017 81.77 51.738 73.703 58.55 65.705 C60.018 63.979 61.482 62.249 62.945 60.52 C69.292 53.042 75.817 45.766 82.513 38.6 C83.984 37.017 85.441 35.423 86.895 33.824 C97.867 21.772 109.039 9.943 122 0 C123.98 0.99 123.98 0.99 126 2 C124.626 5.114 123.074 7.135 120.594 9.453 C119.932 10.072 119.271 10.691 118.59 11.328 C117.555 12.279 117.555 12.279 116.5 13.25 C115.466 14.225 115.466 14.225 114.41 15.219 C109.257 20 109.257 20 107 20 C106.612 20.878 106.612 20.878 106.216 21.774 C104.908 24.169 103.503 25.711 101.551 27.609 C100.525 28.619 100.525 28.619 99.479 29.648 C98.406 30.689 98.406 30.689 97.312 31.75 C92.534 36.409 87.923 41.116 83.57 46.178 C81.476 48.607 79.301 50.957 77.125 53.312 C72.978 57.855 69.068 62.541 65.207 67.328 C63.084 69.899 60.882 72.359 58.625 74.812 C54.673 79.153 51.048 83.678 47.456 88.313 C42.978 94.075 38.342 99.7 33.683 105.315 C33.117 105.997 32.552 106.68 31.969 107.383 C31.468 107.985 30.967 108.587 30.451 109.208 C29.733 110.095 29.733 110.095 29 111 C28.162 111.993 28.162 111.993 27.307 113.005 C25.568 115.66 25.961 117.591 26.48 120.637 C27.507 125.305 28.762 129.901 30.062 134.5 C30.344 135.513 30.626 136.526 30.916 137.57 C31.606 140.048 32.3 142.525 33 145 C40.88 136.558 40.88 136.558 48.562 127.938 C54.923 120.598 61.473 113.415 68.414 106.621 C70.079 104.919 71.595 103.137 73.125 101.312 C77.394 96.342 82.264 92.031 87.109 87.637 C89.128 85.796 91.1 83.96 93 82 C96.113 83.343 97.797 84.655 99.777 87.395 C100.285 88.093 100.793 88.792 101.316 89.512 C102.118 90.651 102.118 90.651 102.938 91.812 C103.497 92.595 104.056 93.377 104.632 94.183 C111.2 103.504 117.128 113.231 123 123 C120.081 126.195 117.276 128.12 113.426 130.074 C112.3 130.651 111.173 131.228 110.013 131.822 C108.78 132.444 107.546 133.066 106.312 133.688 C105.027 134.342 103.742 134.998 102.458 135.655 C99.729 137.049 96.998 138.439 94.266 139.827 C89.96 142.017 85.666 144.23 81.375 146.449 C67.297 153.727 53.211 160.984 39 168 C39.238 170.057 39.477 172.113 39.717 174.17 C39.913 176.131 40.058 178.097 40.162 180.064 C40.659 188.437 41.538 196.733 46 204 C52.885 209.666 61.626 212.24 69.999 214.963 C76.721 217.157 82.985 220.102 89.312 223.25 C90.336 223.749 91.36 224.247 92.415 224.761 C95.283 226.161 98.143 227.576 101 229 C101.818 229.407 102.636 229.814 103.479 230.233 C137.822 247.466 137.822 247.466 141 257 C138.117 259.019 135.217 261.012 132.312 263 C131.496 263.572 130.679 264.145 129.838 264.734 C129.042 265.276 128.246 265.817 127.426 266.375 C126.334 267.129 126.334 267.129 125.22 267.898 C122.61 269.194 120.879 269.069 118 269 C115.357 270.289 112.896 271.628 110.375 273.125 C102.606 277.592 94.723 281.782 86.75 285.875 C74.728 292.063 62.833 298.46 51 305 C55.158 308.429 59.515 311.491 63.938 314.562 C75.578 322.723 86.531 331.376 97 341 C98.329 342.171 99.662 343.338 101 344.5 C108.724 351.249 116.199 358.143 123.406 365.441 C125.582 367.588 127.79 369.594 130.125 371.562 C134.876 375.628 138.876 380.315 143 385 C144.847 387.048 146.704 389.087 148.562 391.125 C149.409 392.056 150.256 392.986 151.129 393.945 C151.746 394.623 152.364 395.301 153 396 C152.34 397.32 151.68 398.64 151 400 C147.776 398.585 145.643 396.886 143.188 394.375 C142.562 393.743 141.937 393.112 141.293 392.461 C139.429 390.46 137.641 388.428 135.859 386.355 C131.482 381.328 126.785 376.639 122.062 371.938 C121.207 371.078 120.352 370.219 119.471 369.334 C115.048 364.918 110.562 360.648 105.821 356.575 C103.038 354.168 100.371 351.642 97.688 349.125 C91.985 343.827 86.083 338.858 80 334 C78.835 333.044 77.671 332.087 76.508 331.129 C68.013 324.174 59.229 317.94 50 312 C49.01 311.34 48.02 310.68 47 310 C43.875 309.833 43.875 309.833 41 310 C41.024 311.063 41.049 312.127 41.074 313.222 C41.298 323.284 41.462 333.345 41.57 343.408 C41.627 348.581 41.705 353.752 41.83 358.924 C41.95 363.924 42.015 368.921 42.044 373.922 C42.064 375.821 42.103 377.721 42.163 379.619 C42.658 396.026 42.658 396.026 37.215 402.489 C29.69 410.326 19.62 417.871 8.625 419.5 C-14.86 416.261 -36.618 395.775 -54 381 C-54.694 380.41 -55.389 379.82 -56.104 379.212 C-60.084 375.824 -64.048 372.42 -68 369 C-71.217 370.371 -72.883 371.777 -74.918 374.605 C-75.446 375.334 -75.973 376.062 -76.517 376.813 C-77.068 377.597 -77.619 378.38 -78.188 379.188 C-78.763 379.997 -79.339 380.806 -79.933 381.64 C-84.616 388.297 -88.923 395.109 -92.953 402.179 C-93.989 403.98 -95.055 405.76 -96.129 407.539 C-106.998 425.833 -115.127 445.898 -122 466 C-122.222 466.646 -122.443 467.293 -122.671 467.959 C-123.809 471.297 -124.921 474.643 -126 478 C-127.32 477.67 -128.64 477.34 -130 477 C-129.422 470.912 -128.136 465.477 -126.188 459.688 C-125.886 458.792 -125.585 457.896 -125.274 456.973 C-113.744 423.815 -96.638 392.999 -74.961 365.453 C-73.816 364.012 -73.816 364.012 -74 362 C-74.804 361.691 -74.804 361.691 -75.625 361.375 C-79.002 359.42 -81.305 356.818 -84 354 C-90.229 355.987 -96.276 358.258 -102.309 360.773 C-104.11 361.518 -105.912 362.262 -107.713 363.006 C-109.115 363.586 -109.115 363.586 -110.545 364.178 C-124.965 370.143 -139.407 376.053 -153.967 381.667 C-155.388 382.216 -156.808 382.767 -158.226 383.32 C-171.765 388.598 -182.957 392.233 -197 387 C-196.498 380.09 -195.001 374.378 -192.5 367.938 C-191.924 366.428 -191.924 366.428 -191.337 364.889 C-185.675 350.29 -179.399 335.934 -173.227 321.546 C-169.317 312.424 -165.484 303.27 -161.66 294.112 C-160.888 292.265 -160.116 290.418 -159.344 288.57 C-158.913 287.537 -158.481 286.503 -158.037 285.438 C-157.4 283.94 -156.728 282.456 -156 281 C-157.075 281.608 -158.15 282.217 -159.258 282.844 C-184.029 296.496 -210.788 306.334 -236.979 316.886 C-246.046 320.541 -255.083 324.237 -264 328.25 C-264.77 328.597 -265.541 328.943 -266.334 329.301 C-269.254 330.64 -272.031 332.019 -274.75 333.734 C-277 335 -277 335 -281 335 C-280.48 330.417 -280.48 330.417 -278.387 328.597 C-277.685 328.233 -276.982 327.868 -276.258 327.492 C-275.454 327.069 -274.65 326.646 -273.821 326.209 C-272.487 325.549 -272.487 325.549 -271.125 324.875 C-270.19 324.4 -269.254 323.925 -268.29 323.435 C-257.692 318.167 -246.729 313.813 -235.726 309.474 C-229.05 306.839 -222.4 304.137 -215.75 301.438 C-214.734 301.026 -214.734 301.026 -213.698 300.605 C-195.827 293.348 -178.155 285.838 -161 277 C-159.938 276.57 -159.938 276.57 -158.855 276.132 C-154.893 274.451 -153.338 273.652 -151.293 269.711 C-150.935 265.177 -152.132 262.455 -154.312 258.625 C-154.674 257.949 -155.036 257.273 -155.408 256.576 C-156.182 255.133 -156.965 253.696 -157.756 252.263 C-159.476 249.134 -161.128 245.971 -162.786 242.81 C-164.509 239.532 -166.254 236.266 -168 233 C-169.165 233.496 -170.331 233.993 -171.531 234.504 C-181.109 238.502 -190.725 242.015 -200.688 244.938 C-201.678 245.231 -202.668 245.525 -203.688 245.828 C-209.473 247.48 -214.988 248.616 -221 249 C-226.808 243.192 -224.242 223.27 -224.25 215.438 C-224.246 204.83 -223.897 194.452 -222 184 C-213.799 184.562 -206.299 186.734 -198.438 189.062 C-197.13 189.444 -195.822 189.825 -194.514 190.205 C-191.34 191.13 -188.169 192.062 -185 193 C-185.48 191.863 -185.48 191.863 -185.969 190.703 C-187 188 -187 188 -187.5 184.75 C-187.665 183.842 -187.83 182.935 -188 182 C-188.66 181.67 -189.32 181.34 -190 181 C-189.481 177.141 -188.687 175.191 -185.902 172.477 C-185.27 171.852 -184.637 171.227 -183.986 170.583 C-182.972 169.614 -182.972 169.614 -181.938 168.625 C-181.249 167.953 -180.561 167.281 -179.852 166.589 C-176.008 162.857 -172.142 159.159 -167.996 155.762 C-165.815 153.895 -165.815 153.895 -163.348 151.145 C-162.857 150.637 -162.367 150.129 -161.862 149.606 C-160.455 148.146 -159.082 146.654 -157.711 145.16 C-152.703 141.307 -145.943 142.649 -140 143 C-138.92 143.042 -137.84 143.084 -136.728 143.127 C-112.678 144.152 -88.958 147.794 -65.71 154.032 C-63.94 154.507 -62.166 154.966 -60.388 155.406 C-58.886 155.78 -57.393 156.192 -55.917 156.658 C-52.773 157.44 -50.511 157.257 -47.635 155.809 C-34.582 146.707 -28.317 135.841 -25.562 120.562 C-24.828 116.371 -24.144 112.171 -23.49 107.966 C-21.602 96.007 -18.939 84.203 -16.368 72.377 C-15.503 68.395 -14.651 64.41 -13.802 60.425 C-10.667 45.71 -7.502 31.002 -4.25 16.312 C-4.085 15.565 -3.92 14.817 -3.751 14.046 C-3.3 12.005 -2.846 9.965 -2.391 7.926 C-2.143 6.816 -1.896 5.707 -1.642 4.564 C-1 2 -1 2 0 0 Z M6 108 C4.35 109.65 2.7 111.3 1 113 C2.261 116.402 3.737 119.241 5.75 122.25 C14.616 136.949 18.174 155.272 23.005 171.636 C24.324 176.095 25.659 180.548 27 185 C27.33 185 27.66 185 28 185 C27.477 178.135 26.434 171.611 24.75 164.938 C24.505 163.96 24.26 162.982 24.007 161.974 C21.127 150.914 17.687 140.022 14.25 129.125 C13.958 128.195 13.666 127.264 13.366 126.305 C12.527 123.641 11.68 120.98 10.828 118.32 C10.573 117.51 10.318 116.7 10.055 115.865 C8.708 111.544 8.708 111.544 6 108 Z M-4 118 C-5.205 119.8 -5.205 119.8 -6 122 C-4.889 123.839 -3.76 125.669 -2.562 127.453 C10.012 147.949 11.294 175.143 14.766 198.398 C14.931 199.499 14.931 199.499 15.1 200.622 C15.204 201.328 15.308 202.035 15.415 202.763 C15.517 203.452 15.619 204.141 15.724 204.851 C15.919 206.373 16.072 207.901 16.193 209.43 C16.258 210.229 16.323 211.027 16.39 211.85 C16.437 212.573 16.483 213.296 16.532 214.041 C17.125 216.523 18.021 217.421 20 219 C22.35 219.985 24.659 220.859 27.062 221.688 C55.239 231.87 82.493 246.372 106 265 C107.33 266.004 108.663 267.005 110 268 C110.99 267.34 111.98 266.68 113 266 C111.668 262.948 110.348 261.184 107.719 259.152 C106.718 258.377 106.718 258.377 105.697 257.586 C104.972 257.042 104.247 256.498 103.5 255.938 C102.739 255.364 101.978 254.79 101.193 254.199 C77.401 236.555 50.653 224.222 23 214 C22.905 213.318 22.81 212.636 22.712 211.934 C17.7 162.565 17.7 162.565 -2 118 C-2.66 118 -3.32 118 -4 118 Z M-15 147 C-16.673 148.619 -18.338 150.245 -20 151.875 C-20.928 152.78 -21.856 153.685 -22.812 154.617 C-25.225 156.706 -25.225 156.706 -25 159 C-25.99 159.33 -26.98 159.66 -28 160 C-29.528 161.502 -29.528 161.502 -31.031 163.398 C-35.577 168.754 -40.525 173.671 -45.5 178.625 C-46.411 179.54 -47.323 180.455 -48.262 181.398 C-50.035 183.17 -51.824 184.926 -53.629 186.665 C-55.952 188.876 -55.952 188.876 -57.652 190.983 C-60.394 194.019 -62.242 194.906 -66.356 195.417 C-70.604 195.485 -74.766 195.318 -79 195 C-79.709 194.949 -80.418 194.898 -81.148 194.845 C-86.424 194.443 -91.679 193.889 -96.938 193.312 C-98.614 193.135 -100.29 192.959 -101.967 192.782 C-116.565 191.228 -131.137 189.446 -145.697 187.575 C-146.529 187.47 -147.36 187.365 -148.217 187.257 C-149.758 187.062 -151.299 186.864 -152.839 186.66 C-157.595 186.063 -162.205 185.918 -167 186 C-164.754 192.829 -162.384 199.605 -159.945 206.367 C-159.556 207.449 -159.166 208.531 -158.765 209.645 C-155.876 217.641 -152.915 225.609 -149.93 233.57 C-148.668 236.953 -147.408 240.335 -146.148 243.718 C-145.287 246.024 -144.42 248.327 -143.548 250.628 C-142.265 254.02 -141.002 257.419 -139.742 260.82 C-139.35 261.843 -138.957 262.866 -138.553 263.92 C-135.748 271.581 -135.731 276.714 -139.066 284.277 C-139.469 285.202 -139.872 286.127 -140.287 287.08 C-140.708 288.023 -141.129 288.966 -141.562 289.938 C-141.987 290.908 -142.412 291.878 -142.85 292.877 C-143.892 295.255 -144.942 297.629 -146 300 C-134.688 297.786 -123.04 293.38 -114 286 C-111.15 287.161 -109.853 288.173 -107.812 290.562 C-104.037 293.835 -100.861 293.884 -96 294 C-96 290.432 -96.64 289.949 -98.875 287.312 C-106.716 277.068 -104.56 263.183 -103 251.062 C-102.682 248.706 -102.346 246.353 -102 244 C-98.328 246.021 -95.705 248.173 -92.875 251.25 C-85.556 258.714 -76.129 265.617 -65.348 266.125 C-56.937 265.748 -49.914 262.679 -43.562 257.188 C-41 255 -41 255 -38 255 C-38.502 266.049 -45.504 276.27 -53 284 C-60.585 290.85 -69.748 296.018 -80.223 295.992 C-83.391 296.001 -84.634 296.89 -87.125 298.738 C-89.52 300.35 -92.029 301.552 -94.625 302.812 C-98.987 304.942 -103.157 307.242 -107.312 309.75 C-115.222 314.403 -115.222 314.403 -120 315 C-121.338 314.006 -122.671 313.005 -124 312 C-126.557 311.058 -126.557 311.058 -129.352 310.395 C-130.367 310.133 -131.383 309.872 -132.43 309.604 C-133.484 309.342 -134.539 309.081 -135.625 308.812 C-136.687 308.54 -137.749 308.267 -138.844 307.986 C-143.861 306.567 -143.861 306.567 -149 306 C-155.301 319.934 -161.469 333.905 -167.25 348.062 C-167.966 349.809 -167.966 349.809 -168.697 351.591 C-169.349 353.203 -169.349 353.203 -170.016 354.848 C-170.4 355.796 -170.785 356.745 -171.181 357.723 C-172.113 359.91 -172.113 359.91 -172 362 C-164.398 359.886 -157.131 357.185 -149.812 354.25 C-147.353 353.273 -144.894 352.298 -142.434 351.324 C-141.778 351.065 -141.123 350.805 -140.448 350.538 C-130.603 346.646 -120.711 342.874 -110.825 339.085 C-109.181 338.455 -107.536 337.824 -105.892 337.193 C-104.334 336.596 -102.776 336 -101.218 335.407 C-96.429 333.576 -91.7 331.645 -87.03 329.529 C-84.35 328.831 -82.633 329.192 -80 330 C-77.754 331.797 -75.737 333.566 -73.688 335.562 C-73.114 336.106 -72.541 336.65 -71.95 337.21 C-68.171 340.81 -64.477 344.493 -60.816 348.215 C-58.349 350.64 -55.726 352.861 -53.098 355.109 C-50.799 357.181 -48.697 359.385 -46.562 361.625 C-34.202 374.042 -16.711 388.43 0 394 C0.153 385.957 -0.306 378.076 -1.059 370.07 C-1.222 368.28 -1.222 368.28 -1.388 366.454 C-1.617 363.951 -1.848 361.449 -2.081 358.946 C-2.438 355.116 -2.787 351.285 -3.135 347.453 C-3.359 345.013 -3.583 342.573 -3.809 340.133 C-3.965 338.419 -3.965 338.419 -4.124 336.67 C-4.224 335.605 -4.324 334.539 -4.427 333.442 C-4.557 332.043 -4.557 332.043 -4.69 330.615 C-4.962 327.969 -4.962 327.969 -5.584 325.282 C-6.093 322.49 -5.611 321.632 -4.062 319.312 C-1.824 316.367 -1.824 316.367 -2 314 C-0.933 313.605 -0.933 313.605 0.156 313.202 C3.134 311.943 5.751 310.45 8.508 308.762 C9.568 308.113 10.628 307.464 11.72 306.796 C12.855 306.094 13.99 305.391 15.125 304.688 C15.702 304.331 16.279 303.974 16.874 303.607 C35.181 292.283 52.825 280.25 69 266 C67.597 261.791 64.648 260.81 60.938 258.812 C60.211 258.414 59.484 258.015 58.735 257.604 C45.261 250.271 31.377 243.739 17.554 237.099 C16.366 236.527 15.177 235.956 13.953 235.367 C12.378 234.611 12.378 234.611 10.771 233.839 C10.212 233.555 9.654 233.27 9.079 232.977 C6.874 231.904 6.874 231.904 3.98 230.887 C-4.249 227.539 -4.249 227.539 -6.265 223.408 C-6.939 220.141 -7.231 217.015 -7.414 213.684 C-7.526 212.477 -7.637 211.27 -7.752 210.026 C-8.096 206.166 -8.362 202.304 -8.625 198.438 C-8.837 195.896 -9.055 193.355 -9.277 190.814 C-9.804 184.691 -10.279 178.564 -10.739 172.435 C-11.137 167.195 -11.563 161.958 -12.023 156.723 C-12.093 155.843 -12.163 154.963 -12.234 154.056 C-12.417 152.03 -12.698 150.012 -13 148 C-13.99 147.505 -13.99 147.505 -15 147 Z M-170.391 164.434 C-171.937 166.23 -173.036 167.841 -174 170 C-171.25 170.753 -168.656 171.18 -165.814 171.379 C-151.354 172.493 -137.124 174.516 -122.811 176.831 C-119.044 177.44 -115.275 178.038 -111.506 178.635 C-89.465 182.146 -89.465 182.146 -78.685 184.602 C-75.184 185.121 -73.115 184.557 -70 183 C-70 182.01 -70 181.02 -70 180 C-94.117 173.245 -118.969 168.023 -143.938 165.718 C-147.917 165.35 -151.829 164.887 -155.766 164.188 C-163.297 162.542 -163.297 162.542 -170.391 164.434 Z M28 185 C27.973 187.792 27.953 190.583 27.938 193.375 C27.929 194.15 27.921 194.924 27.912 195.723 C27.888 201.538 28.324 207.226 29 213 C30.07 213.378 31.14 213.755 32.242 214.145 C59.064 223.745 87.382 233.891 109 253 C109.545 253.48 110.089 253.96 110.65 254.454 C113.811 257.257 116.923 260.105 120 263 C121.32 262.34 122.64 261.68 124 261 C119.561 250.524 106.316 243.822 97 238 C95.996 237.371 95.996 237.371 94.971 236.729 C79.219 226.96 62.639 219.447 45.391 212.727 C44.646 212.423 43.902 212.12 43.135 211.807 C41.045 210.965 41.045 210.965 38.972 210.519 C37.105 210.004 37.105 210.004 34 208 C32.4 204.215 31.74 200.352 31.062 196.312 C30.856 195.229 30.649 194.146 30.436 193.029 C29.929 190.357 29.452 187.682 29 185 C28.67 185 28.34 185 28 185 Z M-123.375 296.875 C-127.515 299.163 -131.546 301.366 -136 303 C-133.494 305.506 -131.68 305.748 -128.25 306.562 C-127.224 306.811 -126.198 307.06 -125.141 307.316 C-124.104 307.542 -123.068 307.768 -122 308 C-121.042 308.273 -120.084 308.547 -119.098 308.828 C-114.675 309.074 -111.948 307.356 -108.188 305.188 C-107.508 304.818 -106.828 304.449 -106.127 304.068 C-102.442 302.183 -102.442 302.183 -100 299 C-100.771 298.734 -101.542 298.469 -102.336 298.195 C-103.339 297.842 -104.342 297.489 -105.375 297.125 C-106.373 296.777 -107.37 296.429 -108.398 296.07 C-111 295 -111 295 -113 293 C-117.098 293 -119.888 294.93 -123.375 296.875 Z M28 317 C28.01 317.856 28.021 318.712 28.032 319.594 C28.235 339.034 27.865 358.353 26.711 377.762 C26.195 386.527 25.86 395.216 26 404 C29.524 401.454 29.524 401.454 32 398 C32.114 396.428 32.167 394.852 32.189 393.276 C32.206 392.288 32.223 391.3 32.24 390.281 C32.254 389.202 32.267 388.123 32.281 387.012 C32.299 385.893 32.317 384.774 32.336 383.621 C32.375 381.221 32.411 378.82 32.446 376.42 C32.536 370.239 32.64 364.059 32.746 357.879 C32.767 356.67 32.787 355.46 32.808 354.214 C33.037 341.136 33.45 328.069 34 315 C31.537 315 30.148 315.855 28 317 Z M17 323 C16.498 325.382 16.498 325.382 16.508 328.202 C16.474 329.292 16.441 330.382 16.406 331.505 C16.384 332.695 16.362 333.884 16.34 335.109 C16.287 336.958 16.287 336.958 16.233 338.844 C16.139 342.143 16.058 345.442 15.983 348.742 C15.85 354.573 15.692 360.404 15.527 366.234 C15.492 367.495 15.457 368.757 15.421 370.056 C15.151 378.718 14.585 387.309 13.664 395.926 C13.092 401.32 12.918 406.575 13 412 C15.97 411.01 15.97 411.01 19 410 C19.817 406.343 20.202 402.831 20.389 399.09 C20.449 397.92 20.509 396.75 20.571 395.545 C20.631 394.284 20.692 393.022 20.754 391.723 C20.819 390.406 20.884 389.089 20.951 387.732 C21.089 384.935 21.224 382.139 21.357 379.342 C21.492 376.519 21.63 373.697 21.773 370.874 C22.615 354.243 23.228 337.657 23 321 C19.815 320.723 19.815 320.723 17 323 Z " fill="#000000" transform="translate(465,198)"/>
<path d="M0 0 C-0.33 1.65 -0.66 3.3 -1 5 C-2.98 5 -4.96 5 -7 5 C-6.625 2.562 -6.625 2.562 -6 0 C-3.509 -1.245 -2.589 -0.777 0 0 Z " fill="#000000" transform="translate(488,208)"/>
<path d="M0 0 C1.32 0 2.64 0 4 0 C4.33 0.99 4.66 1.98 5 3 C3.664 5.493 3.664 5.493 1.625 8.445 C0.517 10.062 0.517 10.062 -0.613 11.711 C-1.409 12.849 -2.204 13.987 -3 15.125 C-3.765 16.239 -4.53 17.354 -5.293 18.469 C-9.667 24.807 -14.184 30.99 -19 37 C-20.938 36.625 -20.938 36.625 -23 36 C-23.33 35.34 -23.66 34.68 -24 34 C-23.623 33.462 -23.246 32.924 -22.858 32.37 C-21.092 29.851 -19.327 27.332 -17.562 24.812 C-16.927 23.906 -16.292 22.999 -15.638 22.065 C-11.257 15.807 -6.901 9.533 -2.574 3.238 C-1 1 -1 1 0 0 Z " fill="#000000" transform="translate(527,217)"/>
<path d="M0 0 C1.32 0.66 2.64 1.32 4 2 C3.67 3.65 3.34 5.3 3 7 C1.35 7.33 -0.3 7.66 -2 8 C-2.125 5.125 -2.125 5.125 -2 2 C-1.34 1.34 -0.68 0.68 0 0 Z " fill="#000000" transform="translate(408,234)"/>
<path d="M0 0 C1.32 0.66 2.64 1.32 4 2 C3.67 5.96 3.34 9.92 3 14 C4.32 14 5.64 14 7 14 C7 15.65 7 17.3 7 19 C4.525 19.495 4.525 19.495 2 20 C2 20.66 2 21.32 2 22 C3.134 22.289 4.269 22.577 5.438 22.875 C6.613 23.246 7.789 23.618 9 24 C9.495 24.99 9.495 24.99 10 26 C8.875 27.562 8.875 27.562 7 29 C3.812 28.688 3.812 28.688 1 28 C0.01 31.3 -0.98 34.6 -2 38 C-3.32 38 -4.64 38 -6 38 C-7.513 33.796 -6.72 32.042 -6 27 C-11.61 25.35 -17.22 23.7 -23 22 C-23 20.35 -23 18.7 -23 17 C-19.309 15.155 -14.844 15.206 -10.766 14.75 C-6.757 14.345 -6.757 14.345 -3 13 C-2.607 10.743 -2.607 10.743 -2.5 8.125 C-2.284 4.42 -2.127 3.191 0 0 Z " fill="#000000" transform="translate(615,239)"/>
<path d="M0 0 C1.207 0.031 1.207 0.031 2.438 0.062 C2.438 1.713 2.438 3.363 2.438 5.062 C0.788 5.393 -0.863 5.722 -2.562 6.062 C-2.945 4.406 -3.276 2.738 -3.562 1.062 C-2.562 0.062 -2.562 0.062 0 0 Z " fill="#000000" transform="translate(423.5625,249.9375)"/>
<path d="M0 0 C1.32 0.66 2.64 1.32 4 2 C4 5.96 4 9.92 4 14 C5.98 14 7.96 14 10 14 C10 11.69 10 9.38 10 7 C11.65 6.67 13.3 6.34 15 6 C15.66 7.98 16.32 9.96 17 12 C17.675 11.965 18.351 11.93 19.047 11.895 C20.385 11.854 20.385 11.854 21.75 11.812 C22.632 11.778 23.513 11.743 24.422 11.707 C27.447 12.051 28.756 13.002 31 15 C30.875 17.312 30.875 17.312 30 20 C26.461 22.252 23.136 23.392 19 24 C19.429 30.68 20.605 36.809 22.477 43.238 C23.035 46.184 22.784 48.13 22 51 C19.57 50.645 18.35 50.465 16.84 48.461 C13.704 41.211 12.346 33.742 11 26 C9.35 26 7.7 26 6 26 C6.351 27.217 6.701 28.434 7.062 29.688 C7.935 33.121 8.077 35.553 7 39 C5.188 38.875 5.188 38.875 3 38 C1.045 34.741 -0.146 31.678 -1 28 C-1.915 27.951 -2.83 27.902 -3.773 27.852 C-5.556 27.739 -5.556 27.739 -7.375 27.625 C-8.558 27.555 -9.742 27.486 -10.961 27.414 C-14 27 -14 27 -16 25 C-16 22.562 -16 22.562 -15 20 C-10.843 17.229 -6.922 16.492 -2 16 C-2.023 15.013 -2.046 14.025 -2.07 13.008 C-2.088 11.726 -2.106 10.445 -2.125 9.125 C-2.16 7.211 -2.16 7.211 -2.195 5.258 C-2 2 -2 2 0 0 Z M17 17 C17 17.66 17 18.32 17 19 C18.65 18.67 20.3 18.34 22 18 C22 17.67 22 17.34 22 17 C20.35 17 18.7 17 17 17 Z M5 19 C5 19.66 5 20.32 5 21 C6.65 20.67 8.3 20.34 10 20 C10 19.67 10 19.34 10 19 C8.35 19 6.7 19 5 19 Z M-6 21 C-6.66 21.66 -7.32 22.32 -8 23 C-6.02 22.67 -4.04 22.34 -2 22 C-3.892 21.319 -3.892 21.319 -6 21 Z " fill="#000000" transform="translate(244,285)"/>
<path d="M0 0 C1.32 0.66 2.64 1.32 4 2 C3.67 3.65 3.34 5.3 3 7 C1.062 7.562 1.062 7.562 -1 8 C-2 7 -2 7 -2.188 4.562 C-2 2 -2 2 0 0 Z " fill="#000000" transform="translate(387,285)"/>
<path d="M0 0 C1.65 0 3.3 0 5 0 C5.625 1.875 5.625 1.875 6 4 C5.34 4.66 4.68 5.32 4 6 C1.375 5.625 1.375 5.625 -1 5 C-0.67 3.35 -0.34 1.7 0 0 Z " fill="#000000" transform="translate(582,287)"/>
<path d="M0 0 C1.32 0.33 2.64 0.66 4 1 C4 2.65 4 4.3 4 6 C2.35 6.33 0.7 6.66 -1 7 C-1.625 5.188 -1.625 5.188 -2 3 C-1.34 2.01 -0.68 1.02 0 0 Z " fill="#000000" transform="translate(314,292)"/>
<path d="M0 0 C-0.262 1.878 -0.262 1.878 -1 4 C-2.638 5.101 -2.638 5.101 -4.801 5.957 C-5.615 6.287 -6.429 6.616 -7.268 6.956 C-8.17 7.3 -9.071 7.645 -10 8 C-10.954 8.377 -11.909 8.754 -12.892 9.142 C-15.982 10.349 -19.082 11.522 -22.188 12.688 C-23.241 13.09 -24.295 13.493 -25.381 13.908 C-26.404 14.293 -27.427 14.678 -28.48 15.074 C-29.397 15.421 -30.314 15.767 -31.259 16.124 C-34.16 17.051 -36.988 17.569 -40 18 C-40.495 15.525 -40.495 15.525 -41 13 C-31.221 9.009 -21.425 5.055 -11.5 1.438 C-10.801 1.174 -10.103 0.911 -9.383 0.64 C-3.464 -1.476 -3.464 -1.476 0 0 Z " fill="#000000" transform="translate(654,305)"/>
<path d="M0 0 C0.495 1.98 0.495 1.98 1 4 C-3.754 6.145 -8.689 7.199 -13.75 8.355 C-14.709 8.578 -15.668 8.801 -16.655 9.03 C-19.769 9.753 -22.885 10.471 -26 11.188 C-30.267 12.174 -34.534 13.163 -38.801 14.152 C-39.853 14.396 -40.904 14.64 -41.988 14.891 C-48.143 16.321 -54.286 17.789 -60.418 19.316 C-61.443 19.571 -61.443 19.571 -62.489 19.83 C-65.569 20.594 -68.647 21.368 -71.721 22.157 C-72.776 22.42 -73.831 22.682 -74.918 22.953 C-75.813 23.182 -76.708 23.41 -77.63 23.646 C-80.101 24.015 -81.651 23.79 -84 23 C-84 21.68 -84 20.36 -84 19 C-76.7 16.724 -69.35 14.781 -61.922 12.969 C-60.793 12.692 -59.664 12.414 -58.501 12.129 C-56.124 11.546 -53.748 10.965 -51.371 10.384 C-47.774 9.506 -44.178 8.622 -40.582 7.738 C-8.3 -0.181 -8.3 -0.181 0 0 Z " fill="#000000" transform="translate(652,332)"/>
<path d="M0 0 C1.65 0.33 3.3 0.66 5 1 C5 2.65 5 4.3 5 6 C3.68 6.33 2.36 6.66 1 7 C-0.062 4.625 -0.062 4.625 -1 2 C-0.67 1.34 -0.34 0.68 0 0 Z " fill="#000000" transform="translate(229,351)"/>
<path d="M0 0 C2.062 0.438 2.062 0.438 4 1 C4.33 2.98 4.66 4.96 5 7 C4.01 7.66 3.02 8.32 2 9 C0.5 7.812 0.5 7.812 -1 6 C-1.25 3.375 -1.25 3.375 -1 1 C-0.67 0.67 -0.34 0.34 0 0 Z " fill="#000000" transform="translate(667,357)"/>
<path d="M0 0 C2 0.25 2 0.25 4 1 C4.33 1.99 4.66 2.98 5 4 C3.75 5.562 3.75 5.562 2 7 C-0.188 6.688 -0.188 6.688 -2 6 C-1.125 1.125 -1.125 1.125 0 0 Z " fill="#000000" transform="translate(604,363)"/>
<path d="M0 0 C3.913 1.304 6.373 2.789 9 6 C9 6.99 9 7.98 9 9 C6.75 9.312 6.75 9.312 4 9 C1.688 6.75 1.688 6.75 0 4 C0 2.68 0 1.36 0 0 Z " fill="#000000" transform="translate(438,365)"/>
<path d="M0 0 C4.665 2.332 8.133 5.666 11 10 C11 10.99 11 11.98 11 13 C10.423 12.835 9.845 12.67 9.25 12.5 C6.733 11.855 6.733 11.855 3 12 C0.818 13.732 0.818 13.732 -1.25 16.062 C-7.178 22.225 -7.178 22.225 -10.312 25.125 C-11.235 25.995 -11.235 25.995 -12.176 26.883 C-14 28 -14 28 -16.23 27.68 C-17.106 27.343 -17.106 27.343 -18 27 C-17.555 22.303 -15.937 20.606 -12.375 17.625 C-11.479 16.849 -10.583 16.073 -9.66 15.273 C-8.343 14.148 -8.343 14.148 -7 13 C-3.223 9.761 -3.223 9.761 0 6 C0.041 3.186 0.041 3.186 -1 1 C-0.67 0.67 -0.34 0.34 0 0 Z " fill="#000000" transform="translate(434,374)"/>
<path d="M0 0 C-0.33 1.65 -0.66 3.3 -1 5 C-1.858 5.086 -1.858 5.086 -2.733 5.174 C-35.088 8.429 -67.368 12.045 -99.62 16.193 C-101.645 16.453 -103.67 16.713 -105.696 16.971 C-108.175 17.289 -110.654 17.61 -113.132 17.934 C-114.231 18.075 -115.33 18.216 -116.462 18.361 C-117.416 18.485 -118.37 18.609 -119.353 18.737 C-121.922 18.992 -124.42 19.048 -127 19 C-127.33 17.68 -127.66 16.36 -128 15 C-124.928 12.952 -123.569 12.609 -120.012 12.134 C-118.982 11.993 -117.953 11.852 -116.892 11.707 C-115.764 11.561 -114.635 11.416 -113.473 11.266 C-112.284 11.107 -111.096 10.948 -109.872 10.785 C-106.615 10.353 -103.358 9.93 -100.1 9.512 C-98.065 9.25 -96.031 8.986 -93.998 8.721 C-72.844 5.974 -51.661 3.576 -30.438 1.438 C-28.472 1.237 -28.472 1.237 -26.467 1.032 C-22.769 0.657 -19.071 0.293 -15.371 -0.066 C-14.273 -0.177 -13.175 -0.288 -12.043 -0.403 C-11.037 -0.497 -10.031 -0.592 -8.994 -0.69 C-8.121 -0.774 -7.248 -0.859 -6.348 -0.946 C-4.021 -1 -2.215 -0.682 0 0 Z " fill="#000000" transform="translate(678,377)"/>
<path d="M0 0 C1.65 0.33 3.3 0.66 5 1 C5 2.65 5 4.3 5 6 C3.68 6.33 2.36 6.66 1 7 C-0.062 4.625 -0.062 4.625 -1 2 C-0.67 1.34 -0.34 0.68 0 0 Z " fill="#000000" transform="translate(199,395)"/>
<path d="M0 0 C2.31 0 4.62 0 7 0 C7 1.65 7 3.3 7 5 C1.25 6.125 1.25 6.125 -1 5 C-0.67 3.35 -0.34 1.7 0 0 Z " fill="#000000" transform="translate(598,401)"/>
<path d="M0 0 C7.59 0.33 15.18 0.66 23 1 C23.33 1.99 23.66 2.98 24 4 C23.67 4.66 23.34 5.32 23 6 C20.125 6.027 17.25 6.047 14.375 6.062 C13.163 6.075 13.163 6.075 11.926 6.088 C7.497 6.106 3.361 5.896 -1 5 C-0.67 3.35 -0.34 1.7 0 0 Z " fill="#000000" transform="translate(328,403)"/>
<path d="M0 0 C1.675 0.286 3.344 0.618 5 1 C6 4 6 4 5.062 6.125 C3.58 10.137 3.387 13.771 4 18 C5.901 21.509 7.061 22.666 10.812 24 C14.975 24 17.392 23.071 21 21 C24.575 16.941 25.675 13.048 26.605 7.855 C27 6 27 6 28 5 C30.5 4.875 30.5 4.875 33 5 C33.495 5.495 33.495 5.495 34 6 C33.937 14.372 31.836 20.84 26 27 C21.197 30.325 16.924 32.271 11 32 C4.773 30.801 1.561 28.132 -2 23 C-4.677 18.445 -4.524 14.159 -4 9 C-2.174 2.174 -2.174 2.174 0 0 Z " fill="#000000" transform="translate(380,407)"/>
<path d="M0 0 C1.855 0.184 1.855 0.184 4 1 C5.238 3.16 5.238 3.16 6.312 6.062 C6.738 7.153 7.163 8.244 7.602 9.367 C8.063 10.566 8.525 11.765 9 13 C14.555 26.869 21.622 39.635 30 52 C29.34 53.32 28.68 54.64 28 56 C17.975 52.381 10.593 32.551 6.125 23.427 C4.324 19.541 2.763 15.591 1.312 11.562 C0.928 10.507 0.928 10.507 0.536 9.43 C-0.629 5.988 -1.455 3.447 0 0 Z " fill="#000000" transform="translate(313,410)"/>
<path d="M0 0 C0.99 0.33 1.98 0.66 3 1 C3.33 2.98 3.66 4.96 4 7 C2.02 7.99 2.02 7.99 0 9 C-2 7 -2 7 -2.25 4.5 C-2 2 -2 2 0 0 Z " fill="#000000" transform="translate(206,427)"/>
<path d="M0 0 C0.99 0.33 1.98 0.66 3 1 C3.369 7.523 3.369 7.523 1.5 9.938 C1.005 10.288 0.51 10.639 0 11 C-0.66 10.67 -1.32 10.34 -2 10 C-2.851 6.443 -3.169 4.507 -2 1 C-1.34 0.67 -0.68 0.34 0 0 Z " fill="#000000" transform="translate(648,430)"/>
<path d="M0 0 C1.828 0.172 1.828 0.172 4 1 C5.484 3.328 5.484 3.328 6.75 6.25 C7.178 7.204 7.606 8.158 8.047 9.141 C8.989 11.968 9.194 14.047 9 17 C6.68 16.828 6.68 16.828 4 16 C2.383 13.672 2.383 13.672 1.125 10.75 C0.694 9.796 0.264 8.842 -0.18 7.859 C-1.069 4.758 -0.904 3.058 0 0 Z " fill="#000000" transform="translate(470,435)"/>
<path d="M0 0 C1.32 0 2.64 0 4 0 C9.29 16.509 2.732 37.404 -4.527 52.09 C-12.435 66.547 -24.912 79.066 -41 84 C-43.32 83.625 -43.32 83.625 -45 83 C-45 81.68 -45 80.36 -45 79 C-43.984 78.55 -42.968 78.1 -41.922 77.637 C-23.452 69.143 -12.455 57.063 -4.961 37.824 C-1.151 26.625 -0.756 14.537 -1.062 2.793 C-1 1 -1 1 0 0 Z " fill="#000000" transform="translate(441,438)"/>
<path d="M0 0 C3.297 1.06 4.088 2.142 5.957 5.152 C6.588 6.408 7.206 7.67 7.812 8.938 C8.137 9.571 8.461 10.205 8.795 10.857 C11.129 15.612 11.129 15.612 10 19 C9.01 19.33 8.02 19.66 7 20 C4.399 15.991 1.868 11.937 -0.438 7.75 C-0.787 7.126 -1.136 6.502 -1.496 5.859 C-2 4 -2 4 -1.098 1.766 C-0.735 1.183 -0.373 0.6 0 0 Z " fill="#000000" transform="translate(485,440)"/>
<path d="M0 0 C2.293 0.199 2.293 0.199 5 1 C6.801 3.145 6.801 3.145 8.312 5.812 C8.824 6.685 9.336 7.558 9.863 8.457 C11 11 11 11 11 15 C10.01 15.33 9.02 15.66 8 16 C6.874 14.564 5.749 13.126 4.625 11.688 C3.999 10.887 3.372 10.086 2.727 9.262 C1.422 7.553 0.192 5.788 -1 4 C-0.625 1.812 -0.625 1.812 0 0 Z " fill="#000000" transform="translate(498,449)"/>
<path d="M0 0 C0.99 0.33 1.98 0.66 3 1 C3.495 2.485 3.495 2.485 4 4 C-2.631 10.89 -9.464 17.108 -17 23 C-17.795 23.634 -17.795 23.634 -18.606 24.282 C-20.229 25.575 -21.862 26.852 -23.5 28.125 C-24.48 28.891 -25.459 29.656 -26.469 30.445 C-27.304 30.958 -28.139 31.471 -29 32 C-29.99 31.67 -30.98 31.34 -32 31 C-31.775 27.365 -31.223 26.203 -28.48 23.711 C-27.391 22.921 -26.293 22.143 -25.188 21.375 C-19.332 17.107 -14.026 12.507 -8.754 7.543 C-7.845 6.704 -6.936 5.865 -6 5 C-5.48 4.515 -4.961 4.03 -4.425 3.53 C-2.84 2.113 -2.84 2.113 0 0 Z " fill="#000000" transform="translate(494,467)"/>
<path d="M0 0 C-0.059 1.758 -0.059 1.758 -1 4 C-3.357 5.498 -5.55 6.699 -8.062 7.875 C-8.785 8.222 -9.507 8.568 -10.252 8.925 C-23.821 15.317 -37.662 19.514 -52.214 23.073 C-55.045 23.766 -57.873 24.466 -60.7 25.173 C-65.011 26.25 -69.325 27.311 -73.643 28.362 C-75.378 28.787 -77.113 29.215 -78.846 29.648 C-81.296 30.257 -83.749 30.849 -86.203 31.438 C-86.946 31.626 -87.689 31.814 -88.454 32.008 C-90.536 32.496 -90.536 32.496 -94 33 C-94.99 32.34 -95.98 31.68 -97 31 C-96.454 29.134 -96.454 29.134 -95 27 C-92.524 26.073 -90.298 25.423 -87.738 24.852 C-87.004 24.674 -86.27 24.496 -85.514 24.313 C-83.937 23.933 -82.358 23.561 -80.778 23.195 C-78.299 22.622 -75.826 22.029 -73.354 21.43 C-70.073 20.637 -66.791 19.851 -63.507 19.072 C-43.81 14.396 -24.67 9.221 -6.566 -0.031 C-3.804 -1.074 -2.701 -1.073 0 0 Z " fill="#000000" transform="translate(280,473)"/>
<path d="M0 0 C0.33 0.66 0.66 1.32 1 2 C-1.626 5.398 -4.237 5.634 -8.375 6.188 C-10.057 6.425 -10.057 6.425 -11.773 6.668 C-14.55 6.954 -17.213 7.068 -20 7 C-20.495 4.525 -20.495 4.525 -21 2 C-18.439 1.467 -15.877 0.949 -13.312 0.438 C-12.231 0.21 -12.231 0.21 -11.127 -0.021 C-7.174 -0.798 -3.914 -1.369 0 0 Z " fill="#000000" transform="translate(227,476)"/>
<path d="M0 0 C4.125 0.55 6.557 1.837 9.875 4.312 C12.867 6.5 15.787 8.515 19.062 10.25 C22 12 22 12 23 15 C21.359 16.188 21.359 16.188 19 17 C16.266 15.875 16.266 15.875 13.25 14 C12.198 13.349 11.146 12.698 10.062 12.027 C6.249 9.503 2.566 6.864 -1 4 C-0.67 2.68 -0.34 1.36 0 0 Z " fill="#000000" transform="translate(589,497)"/>
<path d="M0 0 C0.99 0.66 1.98 1.32 3 2 C1.971 5.122 0.995 6.003 -1.852 7.754 C-3.103 8.37 -4.361 8.972 -5.625 9.562 C-6.649 10.055 -6.649 10.055 -7.694 10.558 C-9.239 11.297 -10.787 12.028 -12.338 12.754 C-14.248 13.648 -16.153 14.55 -18.056 15.457 C-21.303 17.005 -24.556 18.536 -27.812 20.062 C-29.396 20.815 -29.396 20.815 -31.012 21.582 C-32.005 22.041 -32.997 22.5 -34.02 22.973 C-34.907 23.388 -35.795 23.803 -36.71 24.231 C-39 25 -39 25 -42 24 C-41.892 21.711 -41.892 21.711 -41 19 C-38.307 17.227 -38.307 17.227 -34.727 15.625 C-34.088 15.333 -33.45 15.041 -32.792 14.741 C-30.744 13.809 -28.685 12.904 -26.625 12 C-25.277 11.392 -23.929 10.783 -22.582 10.172 C-19.958 8.984 -17.328 7.812 -14.692 6.652 C-12.325 5.605 -10.004 4.514 -7.675 3.379 C-6.697 2.903 -5.719 2.428 -4.711 1.938 C-3.866 1.513 -3.021 1.089 -2.15 0.652 C-1.44 0.437 -0.731 0.222 0 0 Z " fill="#000000" transform="translate(365,518)"/>
<path d="M0 0 C2.062 0.438 2.062 0.438 4 1 C6.187 17.691 8.278 34.132 8 51 C5.562 50.625 5.562 50.625 3 50 C1.342 46.684 1.508 42.954 1.246 39.301 C1.181 38.432 1.116 37.564 1.049 36.669 C0.911 34.828 0.776 32.986 0.643 31.144 C0.44 28.341 0.229 25.539 0.018 22.736 C-0.115 20.945 -0.247 19.154 -0.379 17.363 C-0.473 16.114 -0.473 16.114 -0.568 14.84 C-0.899 10.215 -1.158 5.637 -1 1 C-0.67 0.67 -0.34 0.34 0 0 Z " fill="#000000" transform="translate(448,521)"/>
<path d="M0 0 C3.817 1.555 6.192 4.036 9 7 C8.34 8.32 7.68 9.64 7 11 C3.183 9.445 0.808 6.964 -2 4 C-1.34 2.68 -0.68 1.36 0 0 Z " fill="#000000" transform="translate(629,521)"/>
<path d="M0 0 C0 1.32 0 2.64 0 4 C-0.963 4.464 -1.926 4.927 -2.918 5.405 C-6.518 7.14 -10.117 8.877 -13.715 10.616 C-15.267 11.366 -16.82 12.115 -18.373 12.862 C-20.616 13.942 -22.857 15.026 -25.098 16.109 C-25.783 16.439 -26.469 16.768 -27.176 17.107 C-30.47 18.704 -33.661 20.368 -36.806 22.243 C-40 24 -40 24 -43 24 C-43.33 22.68 -43.66 21.36 -44 20 C-36.954 14.959 -29.515 11.063 -21.75 7.25 C-20.592 6.674 -19.435 6.098 -18.242 5.504 C-4.081 -1.511 -4.081 -1.511 0 0 Z " fill="#000000" transform="translate(261,523)"/>
<path d="M0 0 C5.714 0.467 9.519 2.764 14.25 5.75 C15.034 6.237 15.819 6.725 16.627 7.227 C23.806 11.752 30.674 16.67 37.5 21.707 C40.591 23.986 43.714 26.206 46.875 28.387 C47.661 28.931 48.447 29.475 49.258 30.035 C50.762 31.073 52.271 32.105 53.783 33.131 C54.454 33.595 55.125 34.06 55.816 34.539 C56.409 34.943 57.001 35.348 57.612 35.764 C59 37 59 37 60 40 C59.505 40.99 59.505 40.99 59 42 C54.848 41.386 51.761 39.063 48.375 36.75 C47.723 36.311 47.072 35.872 46.4 35.42 C40.428 31.365 34.614 27.099 28.789 22.837 C23.141 18.74 17.355 14.95 11.389 11.334 C7.11 8.738 3.045 5.95 -1 3 C-0.67 2.01 -0.34 1.02 0 0 Z " fill="#000000" transform="translate(566,523)"/>
<path d="M0 0 C0.99 0.33 1.98 0.66 3 1 C3.529 3.624 4.048 6.248 4.562 8.875 C4.714 9.621 4.865 10.368 5.021 11.137 C6.113 16.773 6.113 16.773 5 19 C3.68 18.67 2.36 18.34 1 18 C-0.502 12.207 -1.321 6.993 -1 1 C-0.67 0.67 -0.34 0.34 0 0 Z " fill="#000000" transform="translate(315,525)"/>
<path d="M0 0 C0.99 0 1.98 0 3 0 C6.429 8.429 6.429 8.429 6 13 C4.125 12.812 4.125 12.812 2 12 C-0.302 8.086 -0.175 4.453 0 0 Z " fill="#000000" transform="translate(306,534)"/>
<path d="M0 0 C4.133 0.517 5.965 2.658 8.781 5.594 C9.235 6.059 9.69 6.525 10.158 7.005 C12.089 8.984 14.002 10.98 15.915 12.977 C17.322 14.439 18.736 15.894 20.156 17.344 C20.624 17.823 21.092 18.302 21.574 18.796 C25.908 23.122 30.693 26.556 35.779 29.947 C38 32 38 32 38.33 34.756 C38.221 35.496 38.112 36.237 38 37 C26.523 35.398 15.729 22.265 8.598 13.785 C7.059 12.066 5.48 10.635 3.688 9.188 C1 7 1 7 -1 4 C-0.625 1.812 -0.625 1.812 0 0 Z " fill="#000000" transform="translate(404,535)"/>
<path d="M0 0 C3.841 1.491 5.306 3.506 7.5 6.938 C8.54 8.556 8.54 8.556 9.602 10.207 C9.982 10.81 10.363 11.413 10.755 12.034 C12.102 14.16 13.468 16.274 14.836 18.387 C21.31 28.448 27.326 38.689 33.007 49.217 C33.882 50.788 34.834 52.314 35.797 53.832 C37 56 37 56 36.688 58.812 C36.461 59.534 36.234 60.256 36 61 C35.01 61 34.02 61 33 61 C31.565 59.114 31.565 59.114 30.066 56.453 C29.506 55.473 28.945 54.492 28.368 53.482 C27.772 52.415 27.176 51.349 26.562 50.25 C25.3 48.04 24.037 45.83 22.773 43.621 C22.14 42.507 21.507 41.393 20.854 40.246 C13.75 27.811 6.391 15.612 -2 4 C-1.34 2.68 -0.68 1.36 0 0 Z " fill="#000000" transform="translate(537,584)"/>
<path d="M0 0 C7.531 3.38 12.732 10.854 18 17 C18.95 18.075 19.901 19.149 20.852 20.223 C21.86 21.377 22.868 22.532 23.875 23.688 C24.608 24.508 24.608 24.508 25.356 25.344 C28.067 28.483 29.644 30.823 30 35 C29.01 35.66 28.02 36.32 27 37 C20.087 29.681 13.311 22.348 7.012 14.488 C4.111 10.901 1.069 7.444 -2 4 C-1.34 2.68 -0.68 1.36 0 0 Z " fill="#000000" transform="translate(570,588)"/>
<path d="M0 0 C0.99 0.33 1.98 0.66 3 1 C2.64 6.324 -0.302 9.016 -3.75 12.75 C-10.432 20.212 -16.504 28.032 -22.517 36.037 C-23.859 37.813 -25.214 39.576 -26.582 41.332 C-34.352 51.312 -41.982 61.474 -49 72 C-50.65 71.67 -52.3 71.34 -54 71 C-53.411 66.89 -51.087 64.002 -48.688 60.75 C-48.245 60.142 -47.803 59.533 -47.347 58.906 C-45.907 56.931 -44.455 54.965 -43 53 C-42.515 52.343 -42.03 51.686 -41.53 51.01 C-34.523 41.54 -27.347 32.209 -20 23 C-19.241 22.045 -18.481 21.09 -17.699 20.105 C-12.083 13.132 -6.107 6.541 0 0 Z " fill="#000000" transform="translate(346,593)"/>
<path d="M0 0 C1.32 0.66 2.64 1.32 4 2 C2.427 7.279 0.127 12.004 -2.352 16.898 C-2.77 17.733 -3.189 18.568 -3.621 19.429 C-4.952 22.079 -6.288 24.727 -7.625 27.375 C-8.532 29.178 -9.438 30.982 -10.344 32.785 C-12.558 37.192 -14.778 41.597 -17 46 C-18.937 45.625 -18.937 45.625 -21 45 C-21.33 44.34 -21.66 43.68 -22 43 C-21.262 40.963 -21.262 40.963 -20.043 38.441 C-19.594 37.506 -19.145 36.571 -18.683 35.608 C-18.19 34.603 -17.696 33.598 -17.188 32.562 C-16.691 31.539 -16.195 30.516 -15.684 29.462 C-2.543 2.543 -2.543 2.543 0 0 Z " fill="#000000" transform="translate(384,601)"/>
<path d="M0 0 C0.99 0 1.98 0 3 0 C4.395 2.407 5.766 4.823 7.125 7.25 C7.523 7.932 7.922 8.614 8.332 9.316 C9.445 11.328 9.445 11.328 11 15 C10.242 17.484 10.242 17.484 9 19 C6 18 6 18 4.925 16.418 C4.606 15.753 4.286 15.088 3.957 14.402 C3.606 13.684 3.254 12.965 2.893 12.225 C2.536 11.47 2.18 10.715 1.812 9.938 C1.444 9.179 1.076 8.42 0.697 7.639 C-0.211 5.763 -1.107 3.882 -2 2 C-1.34 1.34 -0.68 0.68 0 0 Z " fill="#000000" transform="translate(543,651)"/>
</svg>
