<?xml version="1.0" encoding="UTF-8"?>
<!-- Generator: visioncortex VTracer 0.6.0 -->
<svg version="1.1" xmlns="http://www.w3.org/2000/svg" width="847" height="847">
<path d="M0 0 C5.076 4.357 7.603 9.508 10.562 15.438 C11.621 17.51 12.681 19.582 13.742 21.652 C14.55 23.234 14.55 23.234 15.374 24.847 C17.912 29.768 20.538 34.639 23.188 39.5 C23.927 40.86 23.927 40.86 24.681 42.247 C28.087 48.464 31.651 54.568 35.499 60.523 C36.408 61.971 37.214 63.482 38 65 C37.505 66.485 37.505 66.485 37 68 C32.663 66.554 31.411 63.262 29.188 59.5 C28.712 58.709 28.237 57.918 27.748 57.103 C21.863 47.221 16.283 37.162 10.718 27.098 C9.044 24.08 7.356 21.07 5.664 18.062 C4.651 16.25 3.638 14.438 2.625 12.625 C2.154 11.793 1.684 10.961 1.199 10.104 C0.775 9.34 0.351 8.576 -0.086 7.789 C-0.458 7.126 -0.829 6.463 -1.212 5.78 C-2 4 -2 4 -2 1 C-1.34 0.67 -0.68 0.34 0 0 Z " fill="#000000" transform="translate(314,151)"/>
<path d="M0 0 C0.66 0 1.32 0 2 0 C1.617 5.106 -1.207 7.994 -4.5 11.625 C-5.593 12.866 -6.686 14.109 -7.777 15.352 C-8.593 16.272 -8.593 16.272 -9.425 17.212 C-11.681 19.774 -13.88 22.375 -16.062 25 C-17.101 26.238 -17.101 26.238 -18.16 27.5 C-20.15 30.204 -21.583 32.962 -23 36 C-23.66 36 -24.32 36 -25 36 C-23.704 26.309 -14.495 18.061 -8.214 10.948 C-5.851 8.255 -3.686 5.61 -1.766 2.582 C-1.183 1.73 -0.6 0.878 0 0 Z " fill="#000000" transform="translate(568,153)"/>
<path d="M0 0 C0.99 0.33 1.98 0.66 3 1 C3.73 2.848 3.73 2.848 4.188 5.062 C4.346 5.796 4.505 6.529 4.668 7.285 C4.778 7.851 4.887 8.417 5 9 C6.65 9.33 8.3 9.66 10 10 C10 10.99 10 11.98 10 13 C8.02 13.99 8.02 13.99 6 15 C6 16.65 6 18.3 6 20 C5.01 20 4.02 20 3 20 C2.67 18.02 2.34 16.04 2 14 C0.02 14.33 -1.96 14.66 -4 15 C-4.33 14.01 -4.66 13.02 -5 12 C-3.02 11.67 -1.04 11.34 1 11 C0.844 10.29 0.688 9.579 0.527 8.848 C0.333 7.929 0.138 7.009 -0.062 6.062 C-0.26 5.146 -0.457 4.229 -0.66 3.285 C-0.772 2.531 -0.884 1.777 -1 1 C-0.67 0.67 -0.34 0.34 0 0 Z " fill="#000000" transform="translate(526,157)"/>
<path d="M0 0 C0.33 0.99 0.66 1.98 1 3 C-0.461 5.231 -1.934 7.203 -3.625 9.25 C-4.113 9.855 -4.6 10.461 -5.103 11.084 C-10.889 18.208 -16.934 25.115 -23 32 C-23.33 31.34 -23.66 30.68 -24 30 C-18.541 23.139 -13.026 16.327 -7.482 9.535 C-4.927 6.399 -2.387 3.267 0 0 Z " fill="#000000" transform="translate(590,170)"/>
<path d="M0 0 C0.66 0.66 1.32 1.32 2 2 C0.987 2.797 0.987 2.797 -0.047 3.609 C-1.385 4.669 -1.385 4.669 -2.75 5.75 C-3.632 6.446 -4.513 7.142 -5.422 7.859 C-8.016 9.936 -8.016 9.936 -10.203 12.266 C-12 14 -12 14 -14 14 C-11.228 7.788 -6.004 3.093 0 0 Z " fill="#000000" transform="translate(574,178)"/>
<path d="M0 0 C0.715 0.148 1.431 0.296 2.168 0.449 C9.032 2.69 14.749 6.448 20.438 10.812 C21.124 11.334 21.811 11.855 22.518 12.392 C32.287 19.883 41.481 28.039 50.594 36.309 C52.606 38.126 54.639 39.912 56.688 41.688 C59.597 44.22 62.454 46.804 65.29 49.418 C66.341 50.384 67.396 51.346 68.454 52.305 C70.651 54.296 72.793 56.292 74.82 58.457 C76.619 60.441 76.619 60.441 79.812 62.312 C82.956 61.473 85.795 60.5 88.812 59.312 C89.837 58.915 90.861 58.518 91.917 58.109 C94.9 56.943 97.878 55.765 100.855 54.585 C112.923 49.821 125.075 45.376 137.375 41.25 C138.05 41.021 138.726 40.791 139.422 40.555 C170.218 30.133 170.218 30.133 180.312 35 C183.535 37.981 184.679 40.486 185 44.871 C183.54 67.284 174.203 89.744 165.32 110.109 C164.748 111.423 164.748 111.423 164.164 112.763 C163.45 114.376 162.72 115.981 161.973 117.579 C160.189 121.394 160.189 121.394 160.238 125.492 C162.51 128.119 165.066 130.315 167.75 132.5 C168.33 132.982 168.911 133.464 169.509 133.96 C173.152 136.978 176.829 139.954 180.5 142.938 C184.956 146.564 189.245 150.339 193.492 154.207 C195.514 156.042 197.559 157.84 199.625 159.625 C232.041 187.932 232.041 187.932 234.562 198.438 C233.362 203.039 230.809 204.901 226.812 207.312 C195.735 222.805 155.31 220.568 122.812 212.312 C122.43 213.547 122.047 214.782 121.652 216.055 C119.65 222.045 117.039 227.717 114.375 233.438 C113.849 234.57 113.322 235.702 112.78 236.868 C106.027 251.265 99.128 265.691 90.375 279 C89.986 279.594 89.597 280.188 89.197 280.8 C86.797 284.302 84.191 286.768 80.812 289.312 C80.812 289.642 80.812 289.973 80.812 290.312 C82.006 290.059 83.2 289.805 84.43 289.543 C96.281 287.148 108.091 285.653 120.125 284.625 C121.177 284.534 121.177 284.534 122.251 284.442 C137.358 283.159 152.458 282.134 167.625 282.125 C168.736 282.113 169.846 282.101 170.99 282.088 C181.034 282.07 192.332 282.234 200.812 288.312 C203.454 291.202 204.044 293.691 204.312 297.5 C203.687 311.064 191.394 321.163 182.125 329.812 C171.467 339.126 159.894 347.408 148.258 355.443 C147.587 355.908 146.917 356.373 146.227 356.852 C145.638 357.256 145.05 357.66 144.444 358.077 C142.742 359.366 141.286 360.771 139.812 362.312 C146.496 373.214 153.483 383.836 160.812 394.312 C161.941 395.931 163.07 397.549 164.199 399.168 C169.232 406.375 174.282 413.57 179.355 420.749 C180.325 422.123 181.295 423.497 182.264 424.872 C184.962 428.698 187.67 432.515 190.391 436.324 C211.52 466.036 211.52 466.036 209.812 477.312 C206.563 481.983 202.242 484.062 196.812 485.312 C194.086 485.526 191.554 485.459 188.812 485.312 C188.73 486.034 188.648 486.756 188.562 487.5 C187.637 490.972 186.311 492.744 183.812 495.312 C169.633 502.541 147.736 494.984 133.667 490.576 C119.132 485.831 106.092 479.511 93.07 471.562 C90.951 470.151 90.951 470.151 88.812 470.312 C87.667 471.762 87.667 471.762 86.598 473.688 C85.948 474.783 85.948 474.783 85.285 475.9 C84.819 476.696 84.354 477.492 83.875 478.312 C75.971 491.538 67.258 504.139 57.812 516.312 C57.119 517.212 56.425 518.112 55.711 519.039 C44.896 532.685 33.322 545.011 16.32 550.391 C13.726 551.246 13.726 551.246 11.305 552.891 C7.241 555.209 3.355 555.083 -1.188 554.312 C-6.419 550.862 -7.881 546.172 -9.188 540.312 C-11.356 526.103 -11.742 511.771 -12.193 497.426 C-12.313 493.621 -12.443 489.818 -12.574 486.014 C-12.976 474.111 -13.348 462.222 -13.188 450.312 C-13.869 450.474 -14.551 450.636 -15.254 450.802 C-18.59 451.383 -21.735 451.46 -25.121 451.48 C-25.787 451.485 -26.453 451.489 -27.139 451.493 C-29.301 451.503 -31.463 451.503 -33.625 451.5 C-34.733 451.5 -34.733 451.5 -35.862 451.499 C-86.514 451.413 -86.514 451.413 -103.188 438.312 C-106.73 434.062 -106.53 430.622 -106.188 425.312 C-105.857 424.322 -105.528 423.332 -105.188 422.312 C-105.375 420.973 -105.609 419.639 -105.875 418.312 C-107.004 408.882 -101.935 401.217 -96.395 394.012 C-91.122 387.563 -85.705 381.513 -79.328 376.141 C-76.84 374.016 -74.459 371.791 -72.062 369.562 C-62.034 360.422 -51.065 352.404 -40.188 344.312 C-49.097 341.673 -58.007 339.033 -67.188 336.312 C-69.075 338.664 -69.075 338.664 -71 341.062 C-75.295 346.318 -79.789 351.328 -84.414 356.293 C-86.497 358.536 -88.508 360.831 -90.508 363.148 C-94.318 367.519 -98.336 371.653 -102.438 375.75 C-103.182 376.494 -103.926 377.237 -104.693 378.003 C-110.256 383.504 -115.952 388.577 -122.188 393.312 C-123.276 394.167 -123.276 394.167 -124.387 395.039 C-130.457 399.733 -136.202 404.165 -144.188 404.312 C-146.563 403.312 -146.563 403.312 -149.188 401.312 C-149.891 400.801 -150.595 400.289 -151.32 399.762 C-160.392 393.01 -164.192 387.465 -166.188 376.312 C-166.593 371.429 -166.615 366.586 -166.562 361.688 C-166.558 360.688 -166.558 360.688 -166.552 359.669 C-166.308 317.554 -166.308 317.554 -160.188 305.312 C-161.026 305.184 -161.026 305.184 -161.881 305.053 C-169.688 303.689 -176.867 301.083 -184.25 298.25 C-184.888 298.006 -185.525 297.763 -186.182 297.512 C-204.553 290.463 -222.927 282.512 -234.062 265.438 C-235.58 261.222 -236.234 257.723 -235.188 253.312 C-233.246 250.2 -230.872 247.795 -228.188 245.312 C-227.686 244.828 -227.185 244.343 -226.668 243.844 C-220.819 238.559 -213.421 235.827 -206.031 233.43 C-205.263 233.177 -204.495 232.925 -203.704 232.665 C-195.027 229.864 -186.236 227.488 -177.422 225.16 C-174.633 224.423 -171.846 223.677 -169.059 222.93 C-167.279 222.455 -165.499 221.981 -163.719 221.508 C-162.474 221.175 -162.474 221.175 -161.203 220.836 C-155.42 219.312 -155.42 219.312 -153.188 219.312 C-153.429 217.902 -153.429 217.902 -153.675 216.463 C-154.362 211.619 -154.369 206.795 -154.391 201.91 C-154.396 200.915 -154.402 199.919 -154.408 198.894 C-154.417 196.79 -154.424 194.686 -154.428 192.583 C-154.437 189.416 -154.468 186.25 -154.5 183.084 C-154.576 168.483 -154.516 153.414 -147.188 140.312 C-146.651 139.302 -146.115 138.291 -145.562 137.25 C-141.314 131.995 -135.788 128.046 -130.188 124.312 C-120.918 123.981 -114.888 129.928 -108.355 135.902 C-103.005 141.118 -98.14 146.607 -93.488 152.449 C-91.457 154.977 -89.372 157.444 -87.254 159.899 C-82.14 165.838 -77.36 171.968 -72.695 178.264 C-67.662 185.055 -62.442 191.692 -57.188 198.312 C-56.223 198.096 -55.259 197.879 -54.266 197.656 C-52.371 197.239 -52.371 197.239 -50.438 196.812 C-49.185 196.534 -47.932 196.256 -46.641 195.969 C-43.188 195.312 -43.188 195.312 -39.188 195.312 C-39.188 194.653 -39.188 193.993 -39.188 193.312 C-39.854 193.213 -40.52 193.114 -41.207 193.012 C-54.141 189.977 -69.708 182.554 -77.188 171.312 C-78.444 168.139 -78.631 166.543 -77.477 163.34 C-72.431 152.542 -62.952 145.758 -53.75 138.625 C-52.97 138.02 -52.19 137.415 -51.386 136.791 C-44.238 131.285 -36.914 126.06 -29.5 120.919 C-26.922 119.128 -24.351 117.326 -21.781 115.523 C-18.275 113.063 -14.768 110.604 -11.258 108.148 C-10.544 107.649 -9.83 107.149 -9.094 106.634 C-7.471 105.509 -5.831 104.408 -4.188 103.312 C-5.669 97.171 -7.245 91.067 -8.985 84.993 C-11.047 77.77 -12.887 70.539 -14.438 63.188 C-14.6 62.418 -14.763 61.649 -14.931 60.857 C-18.078 45.509 -19.084 29.36 -14.188 14.312 C-13.948 13.387 -13.708 12.461 -13.461 11.508 C-11.285 3.257 -11.285 3.257 -7.188 0.312 C-4.054 -0.732 -3.106 -0.687 0 0 Z M-8.188 6.312 C-15.452 28.106 -1.799 66.467 7.812 86.312 C9.663 89.436 11.631 92.412 13.812 95.312 C15.071 91.537 14.353 90.105 13.152 86.344 C12.774 85.142 12.395 83.941 12.005 82.703 C11.587 81.406 11.168 80.109 10.75 78.812 C10.33 77.485 9.91 76.157 9.491 74.828 C7.706 69.178 5.89 63.539 4.051 57.906 C-1.234 41.66 -5.897 25.499 -6.188 8.312 C8.289 9.228 19.253 19.234 29.812 28.312 C30.936 29.262 32.059 30.212 33.184 31.16 C39.981 36.917 46.618 42.822 53.156 48.871 C55.306 50.847 57.477 52.781 59.688 54.688 C65.885 60.054 71.822 65.718 77.812 71.312 C84.945 69.041 91.834 66.338 98.736 63.449 C104.478 61.101 110.306 59.168 116.233 57.353 C121.764 55.656 127.253 53.853 132.738 52.016 C134.459 51.444 136.18 50.872 137.9 50.301 C140.526 49.429 143.151 48.554 145.772 47.667 C165.874 40.88 165.874 40.88 173.812 41.312 C174.812 42.312 174.812 42.312 175.02 45.832 C174.95 50.499 173.894 54.569 172.5 59 C172.24 59.848 171.98 60.696 171.712 61.57 C168.881 70.538 165.469 79.285 162.078 88.052 C157.223 100.666 152.965 113.451 148.812 126.312 C153.493 130.506 158.166 134.684 163.062 138.625 C168.802 143.287 174.453 148.046 180.082 152.84 C181.886 154.375 183.695 155.904 185.504 157.434 C190.937 162.041 196.311 166.613 201.254 171.754 C202.966 173.466 204.773 175.004 206.625 176.562 C213.667 182.658 221.033 189.673 224.812 198.312 C224.482 199.303 224.153 200.293 223.812 201.312 C214.366 205.361 203.755 204.51 193.688 204.5 C192.446 204.501 192.446 204.501 191.179 204.501 C173.389 204.491 155.679 203.6 137.931 202.449 C134.202 202.209 130.472 201.978 126.742 201.746 C125.398 201.662 124.054 201.578 122.71 201.494 C121.754 201.434 120.798 201.374 119.812 201.312 C119.35 202.329 118.887 203.345 118.411 204.392 C91.007 264.532 91.007 264.532 74.812 281.312 C62.329 276.036 55.602 256.216 50.75 244.688 C50.233 243.473 49.717 242.258 49.185 241.007 C45.23 231.588 41.762 222.091 38.812 212.312 C41.501 213.247 44.188 214.185 46.875 215.125 C47.627 215.386 48.379 215.647 49.154 215.916 C52.726 217.168 56.228 218.465 59.684 220.012 C62.709 221.504 62.709 221.504 65.812 221.312 C65.812 220.653 65.812 219.993 65.812 219.312 C62.109 217.655 58.399 216.014 54.688 214.375 C53.641 213.906 52.594 213.438 51.516 212.955 C50.497 212.507 49.479 212.059 48.43 211.598 C47.498 211.184 46.565 210.77 45.605 210.344 C42.674 209.261 39.903 208.729 36.812 208.312 C36.332 206.73 35.853 205.146 35.375 203.562 C35.108 202.681 34.841 201.799 34.566 200.891 C33.929 198.713 33.363 196.514 32.812 194.312 C36.113 195.303 39.413 196.293 42.812 197.312 C42.812 196.322 42.812 195.332 42.812 194.312 C40.524 193.449 38.232 192.597 35.938 191.75 C35.287 191.503 34.636 191.256 33.965 191.002 C32.268 190.381 30.541 189.841 28.812 189.312 C28.153 189.643 27.493 189.972 26.812 190.312 C27.142 190.972 27.472 191.632 27.812 192.312 C27.909 193.727 27.942 195.145 27.938 196.562 C27.941 197.684 27.941 197.684 27.945 198.828 C27.812 201.312 27.812 201.312 27.207 204.12 C26.772 207.64 27.206 209.558 28.367 212.883 C28.73 213.934 29.093 214.985 29.466 216.068 C29.869 217.18 30.272 218.292 30.688 219.438 C31.306 221.171 31.306 221.171 31.936 222.939 C45.055 260.111 45.055 260.111 71.812 287.312 C75.494 287.849 77.13 287.779 80.223 285.664 C83.041 283.105 85.17 280.407 87.25 277.25 C87.672 276.61 88.094 275.97 88.529 275.31 C101.752 254.625 111.566 231.575 121.812 209.312 C126.089 209.781 130.254 210.366 134.457 211.285 C155.844 215.879 177.402 215.734 198.812 211.312 C200.179 211.031 200.179 211.031 201.573 210.744 C204.409 210.145 207.237 209.518 210.062 208.875 C210.92 208.682 211.778 208.489 212.662 208.29 C219.491 206.641 225.93 204.566 230.812 199.312 C228.845 192.351 224.755 188.378 219.812 183.312 C219.231 182.716 218.65 182.12 218.052 181.506 C211.199 174.507 204.31 167.623 196.812 161.312 C195.081 159.816 193.355 158.314 191.628 156.812 C188.362 153.972 185.087 151.142 181.812 148.312 C180.886 147.512 180.886 147.512 179.94 146.695 C178.149 145.149 176.356 143.605 174.562 142.062 C173.991 141.571 173.42 141.079 172.831 140.572 C168.252 136.648 163.57 132.873 158.824 129.152 C156.812 127.312 156.812 127.312 155.812 124.312 C156.566 121.89 156.566 121.89 157.805 118.992 C158.485 117.372 158.485 117.372 159.179 115.719 C159.677 114.554 160.175 113.388 160.688 112.188 C161.712 109.727 162.734 107.265 163.75 104.801 C164.009 104.175 164.267 103.548 164.534 102.903 C178.4 73.063 178.4 73.063 180.812 41.312 C178.821 38.684 177.576 37.499 174.352 36.711 C146.102 36.484 112.964 51.959 87.736 63.911 C84.708 65.31 82.366 66.329 78.996 66.23 C76.542 65.199 75.28 64.157 73.5 62.188 C71.13 59.676 68.745 57.313 66.125 55.062 C62.747 52.152 59.459 49.154 56.188 46.125 C51.164 41.487 46.02 37.009 40.81 32.583 C37.63 29.881 34.509 27.138 31.438 24.312 C16.49 10.328 16.49 10.328 -1.816 3.121 C-4.814 3.363 -6.042 4.243 -8.188 6.312 Z M-13.188 25.312 C-19.403 48.621 -8.013 79.518 -0.188 101.312 C0.142 102.303 0.472 103.293 0.812 104.312 C0.189 104.745 -0.434 105.177 -1.077 105.623 C-43.001 130.207 -43.001 130.207 -74.188 164.312 C-74.112 168.451 -73.771 170.61 -71.102 173.82 C-67.836 176.613 -64.582 178.213 -60.625 179.75 C-59.898 180.041 -59.17 180.333 -58.421 180.633 C-38.764 188.302 -20.995 193.113 -0.188 187.312 C0.472 186.653 1.132 185.993 1.812 185.312 C0.844 185.137 -0.125 184.962 -1.124 184.781 C-24.667 180.502 -48.21 176.1 -71.188 169.312 C-71.027 162.873 -67.586 159.57 -63.188 155.312 C-59.641 152.156 -55.948 149.207 -52.188 146.312 C-51.598 145.859 -51.008 145.405 -50.401 144.937 C-35.712 133.687 -20.506 123.168 -5.242 112.72 C-1.554 110.193 2.129 107.659 5.812 105.125 C7.167 104.194 8.521 103.263 9.875 102.332 C10.844 101.666 11.814 100.999 12.812 100.312 C12.305 99.488 11.797 98.663 11.273 97.812 C-1.954 75.846 -7.349 50.255 -12.188 25.312 C-12.517 25.312 -12.847 25.312 -13.188 25.312 Z M17.812 54.312 C15.832 57.282 15.832 57.282 13.812 60.312 C16.186 60.647 16.186 60.647 18.812 60.312 C20.656 58.412 20.656 58.412 21.812 56.312 C20.493 55.653 19.173 54.993 17.812 54.312 Z M152.812 63.312 C151.261 66.968 150.143 70.585 149.188 74.438 C148.927 75.471 148.667 76.505 148.398 77.57 C147.708 80.334 147.708 80.334 147.812 83.312 C148.473 83.312 149.132 83.312 149.812 83.312 C150.487 80.919 151.152 78.523 151.812 76.125 C152.003 75.451 152.194 74.778 152.391 74.084 C153.395 70.407 154.05 67.127 153.812 63.312 C153.483 63.312 153.152 63.312 152.812 63.312 Z M139.812 66.312 C136.934 72.89 134.282 79.527 131.938 86.312 C131.507 87.55 131.076 88.788 130.633 90.062 C129.864 93.108 129.657 94.459 130.812 97.312 C133.548 90.703 136.073 84.017 138.562 77.312 C138.88 76.463 139.198 75.614 139.526 74.739 C139.821 73.938 140.117 73.138 140.422 72.312 C140.69 71.591 140.957 70.869 141.233 70.125 C141.914 68.312 141.914 68.312 141.812 66.312 C141.152 66.312 140.493 66.312 139.812 66.312 Z M32.812 84.312 C32.812 84.972 32.812 85.632 32.812 86.312 C33.473 85.983 34.132 85.653 34.812 85.312 C34.152 84.983 33.493 84.653 32.812 84.312 Z M50.812 87.312 C49.804 90.533 49.837 93.02 50.25 96.356 C50.37 97.357 50.49 98.358 50.614 99.389 C50.75 100.462 50.887 101.535 51.027 102.641 C51.162 103.745 51.297 104.849 51.435 105.987 C51.867 109.513 52.308 113.038 52.75 116.562 C53.044 118.953 53.338 121.344 53.631 123.734 C54.35 129.595 55.078 135.454 55.812 141.312 C54.802 141.709 53.792 142.106 52.751 142.515 C51.402 143.049 50.052 143.583 48.703 144.117 C48.04 144.377 47.377 144.637 46.694 144.905 C35.338 149.176 35.338 149.176 26.812 157.312 C32.794 159.688 38.749 161.427 45 162.938 C45.876 163.154 46.752 163.371 47.654 163.594 C51.692 164.586 55.723 165.551 59.812 166.312 C59.873 167.375 59.934 168.437 59.996 169.531 C60.081 170.958 60.165 172.385 60.25 173.812 C60.289 174.509 60.329 175.205 60.369 175.922 C60.577 179.369 60.87 182.731 61.344 186.156 C62.009 191.201 61.921 196.233 61.875 201.312 C61.87 202.278 61.866 203.244 61.861 204.238 C61.85 206.596 61.833 208.954 61.812 211.312 C71.948 208.19 76.005 202.062 80.879 193.016 C83.61 187.824 86.259 182.594 88.812 177.312 C95.19 177.83 100.624 179.02 106.625 181.188 C120.383 186.17 120.383 186.17 134.812 187.312 C134.224 184.288 133.586 181.295 132.812 178.312 C134.793 176.827 134.793 176.827 136.812 175.312 C136.483 174.322 136.153 173.332 135.812 172.312 C135.214 172.952 134.616 173.591 134 174.25 C131.812 176.312 131.812 176.312 128.812 177.312 C128.543 176.718 128.274 176.123 127.996 175.51 C126.816 173.319 125.637 171.893 123.879 170.148 C123.029 169.302 123.029 169.302 122.162 168.438 C121.572 167.86 120.983 167.283 120.375 166.688 C119.789 166.102 119.203 165.517 118.6 164.914 C116.073 162.413 113.788 160.296 110.812 158.312 C111.803 153.033 112.793 147.752 113.812 142.312 C113.153 141.983 112.493 141.653 111.812 141.312 C111.306 142.894 110.807 144.478 110.312 146.062 C110.034 146.944 109.756 147.826 109.469 148.734 C108.648 151.515 108.648 151.515 108.812 155.312 C106.812 154.312 106.812 154.312 105.625 152.125 C104.119 146.912 105.843 142.671 108.375 138.062 C111.199 133.04 114.536 128.683 118.273 124.309 C120.016 122.469 120.016 122.469 119.812 120.312 C108.688 119.175 99.293 122.478 89.488 127.504 C87.812 128.312 87.812 128.312 85.5 128.375 C73.054 123.454 63.08 104.009 55.964 93.358 C55.437 92.572 54.91 91.786 54.367 90.977 C53.898 90.27 53.428 89.563 52.945 88.834 C52.571 88.332 52.197 87.83 51.812 87.312 C51.483 87.312 51.152 87.312 50.812 87.312 Z M93.812 115.312 C93.812 116.962 93.812 118.613 93.812 120.312 C94.803 120.808 94.803 120.808 95.812 121.312 C95.812 119.332 95.812 117.353 95.812 115.312 C95.152 115.312 94.493 115.312 93.812 115.312 Z M121.812 127.312 C121.472 130.478 121.142 133.645 120.812 136.812 C120.717 137.699 120.622 138.586 120.523 139.5 C119.977 144.805 119.713 149.98 119.812 155.312 C122.812 152.313 122.543 148.733 122.938 144.688 C123.024 143.905 123.11 143.123 123.199 142.316 C123.724 137.289 123.893 132.366 123.812 127.312 C123.152 127.312 122.493 127.312 121.812 127.312 Z M-132.812 130.438 C-145.066 147.545 -144.377 179.497 -144.312 199.625 C-144.316 200.848 -144.32 202.07 -144.324 203.33 C-144.318 209.091 -144.243 214.642 -143.188 220.312 C-145.065 220.647 -145.065 220.647 -146.98 220.988 C-155.594 222.715 -164.037 225.161 -172.5 227.5 C-173.391 227.745 -174.282 227.991 -175.2 228.244 C-185.418 231.066 -195.624 233.907 -205.688 237.25 C-206.466 237.507 -207.245 237.765 -208.048 238.03 C-217.503 241.227 -217.503 241.227 -225.188 247.312 C-226.206 251.244 -225.792 254.911 -224.191 258.621 C-209.053 283.366 -168.021 293.128 -142.188 300.312 C-142.323 301.28 -142.459 302.248 -142.599 303.245 C-145.113 321.275 -147.451 339.297 -149 357.438 C-149.094 358.515 -149.094 358.515 -149.191 359.615 C-150.709 375.493 -150.709 375.493 -149.375 391.312 C-149.224 392.179 -149.073 393.045 -148.918 393.938 C-148.095 396.613 -147.077 398.256 -145.188 400.312 C-140.903 401.358 -138.168 399.965 -134.5 397.875 C-120.501 388.912 -108.546 376.739 -96.812 365.062 C-96.159 364.413 -95.505 363.764 -94.831 363.095 C-90.415 358.664 -86.265 354.056 -82.188 349.312 C-81.097 348.066 -80.006 346.82 -78.914 345.574 C-77.88 344.383 -76.846 343.192 -75.812 342 C-75.014 341.09 -75.014 341.09 -74.199 340.162 C-71.956 337.568 -70.283 335.599 -69.188 332.312 C-68.451 332.53 -67.715 332.747 -66.956 332.971 C-63.619 333.949 -60.279 334.912 -56.938 335.875 C-55.779 336.217 -54.62 336.559 -53.426 336.912 C-52.311 337.231 -51.196 337.55 -50.047 337.879 C-49.02 338.177 -47.994 338.476 -46.937 338.783 C-44.216 339.307 -42.76 339.241 -40.188 338.312 C-41.418 334.431 -42.606 331.141 -46.344 329.184 C-48.968 328.402 -51.56 327.821 -54.25 327.312 C-55.161 327.11 -56.071 326.908 -57.01 326.699 C-60.474 325.949 -63.636 325.312 -67.188 325.312 C-68.847 326.808 -68.847 326.808 -70.418 328.82 C-73.984 333.074 -77.698 337.144 -81.5 341.188 C-82.478 342.231 -82.478 342.231 -83.477 343.295 C-87.921 348.016 -92.459 352.617 -97.078 357.168 C-98.968 359.09 -100.709 361.059 -102.438 363.125 C-112.5 374.793 -124.562 385.081 -138.396 391.938 C-139.294 392.384 -140.192 392.83 -141.117 393.289 C-141.8 393.627 -142.484 393.965 -143.188 394.312 C-143.127 393.707 -143.067 393.101 -143.004 392.477 C-142.369 386.101 -141.737 379.724 -141.106 373.347 C-140.871 370.976 -140.636 368.605 -140.399 366.234 C-138.52 347.393 -137.021 328.816 -137.125 309.875 C-137.13 308.257 -137.135 306.639 -137.139 305.021 C-137.15 301.118 -137.167 297.215 -137.188 293.312 C-138.105 293.065 -138.105 293.065 -139.042 292.813 C-154.257 288.664 -168.755 283.664 -183.188 277.312 C-183.967 276.976 -184.747 276.64 -185.551 276.293 C-197.809 270.979 -211.32 264.596 -220.188 254.312 C-221.06 251.549 -221.038 249.246 -221.188 246.312 C-219.889 245.881 -219.889 245.881 -218.564 245.442 C-215.425 244.392 -212.294 243.322 -209.164 242.246 C-195.14 237.469 -181.088 233.055 -166.8 229.135 C-146.534 223.973 -146.534 223.973 -127.188 216.312 C-127.126 210.349 -127.322 204.509 -127.844 198.57 C-127.981 196.909 -128.117 195.247 -128.254 193.586 C-128.468 191.028 -128.685 188.471 -128.906 185.914 C-129.703 176.625 -130.323 167.386 -130.34 158.059 C-130.342 157.298 -130.344 156.537 -130.346 155.753 C-130.238 139.413 -130.238 139.413 -127.188 133.312 C-121.073 134.688 -117.578 138.101 -113.188 142.312 C-112.39 143.07 -111.592 143.828 -110.77 144.609 C-104.741 150.479 -99.424 156.737 -94.188 163.312 C-92.772 165.022 -91.355 166.73 -89.938 168.438 C-79.609 181.065 -69.955 194.25 -60.188 207.312 C-52.928 205.332 -45.668 203.353 -38.188 201.312 C-38.188 202.303 -38.188 203.293 -38.188 204.312 C-37.672 204.024 -37.156 203.735 -36.625 203.438 C-31.328 200.993 -25.601 199.927 -19.898 198.84 C-19.232 198.712 -18.566 198.584 -17.879 198.452 C-15.774 198.048 -13.668 197.649 -11.562 197.25 C-10.143 196.979 -8.724 196.707 -7.305 196.436 C-4.7 195.937 -2.095 195.44 0.51 194.945 C2.534 194.557 4.556 194.158 6.573 193.737 C9.268 193.226 11.821 193.18 14.562 193.188 C16.009 193.184 16.009 193.184 17.484 193.18 C19.812 193.312 19.812 193.312 20.812 194.312 C20.867 200.778 19.046 205.872 15.938 211.438 C15.548 212.157 15.158 212.876 14.756 213.617 C10.451 221.335 5.233 228.351 -0.188 235.312 C0.143 235.972 0.472 236.632 0.812 237.312 C5.093 235.791 7.094 232.597 9.562 229 C9.996 228.379 10.429 227.758 10.875 227.119 C22.638 211.6 22.638 211.6 25.812 193.312 C23.143 190.553 21.444 189.418 17.633 188.781 C-2.724 188.953 -22.507 194.156 -42.238 198.727 C-47.869 200.028 -53.511 201.229 -59.188 202.312 C-59.544 201.821 -59.9 201.329 -60.266 200.822 C-67.626 190.682 -75.14 180.739 -83.113 171.074 C-85.556 168.108 -87.912 165.087 -90.244 162.033 C-94.838 156.038 -99.719 150.395 -104.875 144.875 C-105.481 144.225 -106.086 143.574 -106.71 142.904 C-115.502 133.07 -115.502 133.07 -127.125 127.812 C-130.341 128.078 -130.341 128.078 -132.812 130.438 Z M139.812 133.312 C138.264 137.594 137.331 141.683 136.688 146.188 C136.52 147.34 136.352 148.492 136.18 149.68 C136.059 150.549 135.937 151.417 135.812 152.312 C136.473 152.312 137.132 152.312 137.812 152.312 C138.319 150.085 138.817 147.855 139.312 145.625 C139.591 144.384 139.869 143.142 140.156 141.863 C140.706 138.889 140.95 136.319 140.812 133.312 C140.483 133.312 140.152 133.312 139.812 133.312 Z M-10.188 134.312 C-10.847 135.962 -11.507 137.613 -12.188 139.312 C-11.197 138.322 -10.207 137.332 -9.188 136.312 C-9.518 135.653 -9.847 134.993 -10.188 134.312 Z M-141.188 137.312 C-151.87 151.852 -151.377 170.415 -151.312 187.688 C-151.311 188.952 -151.309 190.217 -151.307 191.52 C-151.267 200.154 -151.019 208.717 -150.188 217.312 C-149.197 217.642 -148.207 217.972 -147.188 218.312 C-147.173 217.257 -147.158 216.201 -147.143 215.113 C-146.424 166.714 -146.424 166.714 -140.641 143.922 C-140.185 141.301 -140.312 139.796 -141.188 137.312 Z M4.812 141.312 C4.812 144.312 4.812 144.312 4.812 144.312 Z M151.812 141.312 C151.152 142.962 150.493 144.613 149.812 146.312 C150.803 145.322 151.793 144.332 152.812 143.312 C152.483 142.653 152.152 141.993 151.812 141.312 Z M-5.188 155.312 C-6.813 158.146 -6.813 158.146 -8.188 161.312 C-7.857 162.303 -7.528 163.293 -7.188 164.312 C-5.562 161.479 -5.562 161.479 -4.188 158.312 C-4.518 157.322 -4.847 156.332 -5.188 155.312 Z M-23.188 158.312 C-23.868 159.426 -24.549 160.54 -25.25 161.688 C-25.633 162.314 -26.016 162.94 -26.41 163.586 C-26.667 164.156 -26.923 164.725 -27.188 165.312 C-26.857 165.972 -26.528 166.632 -26.188 167.312 C-25.507 166.199 -24.826 165.085 -24.125 163.938 C-23.742 163.311 -23.359 162.685 -22.965 162.039 C-22.708 161.469 -22.452 160.9 -22.188 160.312 C-22.518 159.653 -22.847 158.993 -23.188 158.312 Z M-28.188 167.312 C-27.188 169.312 -27.188 169.312 -27.188 169.312 Z M-29.188 169.312 C-28.188 171.312 -28.188 171.312 -28.188 171.312 Z M160.812 169.312 C160.152 170.632 159.493 171.952 158.812 173.312 C161.934 172.004 161.934 172.004 163.812 169.312 C162.822 169.312 161.832 169.312 160.812 169.312 Z M177.812 177.312 C174.762 180.349 174.762 180.349 173.812 184.312 C177.642 182.86 178.933 180.884 180.812 177.312 C179.822 177.312 178.832 177.312 177.812 177.312 Z M104.812 185.312 C103.225 189.42 102.711 190.905 103.812 195.312 C104.473 192.012 105.132 188.712 105.812 185.312 C105.483 185.312 105.152 185.312 104.812 185.312 Z M152.188 188.188 C151.24 188.988 151.24 188.988 150.273 189.805 C148.581 191.202 148.581 191.202 148.812 193.312 C152.731 192.006 155.139 190.481 157.812 187.312 C157.812 186.653 157.812 185.993 157.812 185.312 C155.072 185.312 154.242 186.421 152.188 188.188 Z M189.688 190.312 C189.069 190.972 188.45 191.632 187.812 192.312 C188.142 192.972 188.473 193.632 188.812 194.312 C190.52 193.032 192.186 191.695 193.812 190.312 C193.812 189.653 193.812 188.993 193.812 188.312 C191.569 188.084 191.569 188.084 189.688 190.312 Z M-71.188 199.312 C-72.255 201.277 -73.253 203.281 -74.188 205.312 C-73.857 205.972 -73.528 206.632 -73.188 207.312 C-71.56 204.989 -71.56 204.989 -70.188 202.312 C-70.518 201.322 -70.847 200.332 -71.188 199.312 Z M-16.188 205.312 C-18.586 207.949 -18.586 207.949 -19.188 211.312 C-17.171 210.597 -17.171 210.597 -15.188 209.312 C-14.382 207.262 -14.382 207.262 -14.188 205.312 C-14.847 205.312 -15.507 205.312 -16.188 205.312 Z M-35.188 212.312 C-37.586 214.949 -37.586 214.949 -38.188 218.312 C-37.197 217.982 -36.207 217.653 -35.188 217.312 C-33.969 214.808 -33.969 214.808 -33.188 212.312 C-33.847 212.312 -34.507 212.312 -35.188 212.312 Z M23.812 212.312 C29.485 238.215 37.595 267.591 54.812 288.312 C55.288 289.063 55.764 289.813 56.254 290.586 C57.667 292.688 58.63 294.021 60.812 295.312 C66.238 295.408 71.075 293.881 75.812 291.312 C74.658 290.962 73.502 290.611 72.312 290.25 C54.847 283.577 44.439 259.572 37.125 243.562 C32.588 233.412 29.105 222.922 25.812 212.312 C25.152 212.312 24.493 212.312 23.812 212.312 Z M-8.188 217.312 C-10.586 219.949 -10.586 219.949 -11.188 223.312 C-10.197 222.982 -9.207 222.653 -8.188 222.312 C-6.969 219.808 -6.969 219.808 -6.188 217.312 C-6.847 217.312 -7.507 217.312 -8.188 217.312 Z M18.812 220.312 C17.084 222.531 15.466 224.749 13.875 227.062 C12.991 228.328 12.107 229.594 11.223 230.859 C10.808 231.457 10.393 232.054 9.965 232.67 C8.623 234.583 7.233 236.456 5.812 238.312 C7.305 242.031 9.336 243.727 12.5 246.125 C18.381 250.776 23.574 255.95 28.772 261.347 C29.384 261.975 29.995 262.603 30.625 263.25 C31.168 263.816 31.71 264.382 32.27 264.965 C33.886 266.551 33.886 266.551 36.812 267.312 C34.01 257.457 30.542 247.843 27.125 238.188 C26.512 236.451 25.9 234.714 25.287 232.977 C23.798 228.754 22.306 224.533 20.812 220.312 C20.153 220.312 19.493 220.312 18.812 220.312 Z M-85.02 223.992 C-89.232 226.535 -91.719 228.804 -94.25 233.062 C-96.222 236.197 -96.877 237.164 -100.312 238.812 C-105.486 238.145 -108.966 235.862 -113.32 233.074 C-115.904 231.487 -118.344 230.339 -121.188 229.312 C-120.571 237.028 -118.664 243.785 -116.271 251.115 C-112.902 261.778 -112.902 261.778 -115.43 266.762 C-115.969 267.5 -116.507 268.239 -117.062 269 C-117.863 270.12 -117.863 270.12 -118.68 271.262 C-119.177 271.938 -119.675 272.615 -120.188 273.312 C-122.494 276.028 -122.494 276.028 -121.812 278.5 C-121.606 279.098 -121.4 279.696 -121.188 280.312 C-119.486 280.251 -119.486 280.251 -117.75 280.188 C-113.061 280.236 -108.507 280.328 -104.188 282.312 C-100.389 286.214 -98.597 291.453 -96.829 296.515 C-96.107 298.539 -95.211 300.424 -94.188 302.312 C-93.197 302.312 -92.207 302.312 -91.188 302.312 C-88.587 294.372 -86.446 286.578 -85.188 278.312 C-83.969 278.324 -82.751 278.336 -81.496 278.348 C-79.872 278.357 -78.249 278.366 -76.625 278.375 C-75.425 278.388 -75.425 278.388 -74.201 278.4 C-69.416 278.42 -64.906 278.117 -60.188 277.312 C-59.863 274.307 -59.863 274.307 -61.691 272.551 C-62.371 271.915 -63.05 271.28 -63.75 270.625 C-79.993 254.986 -79.993 254.986 -80.301 247.585 C-80.296 246.512 -80.291 245.438 -80.285 244.332 C-80.282 243.169 -80.279 242.005 -80.275 240.807 C-80.267 239.592 -80.259 238.377 -80.25 237.125 C-80.245 235.898 -80.241 234.672 -80.236 233.408 C-80.225 230.376 -80.208 227.344 -80.188 224.312 C-83.002 223.026 -83.002 223.026 -85.02 223.992 Z M-56.875 224.688 C-58.397 226.224 -58.397 226.224 -58.188 228.312 C-56.238 228.118 -56.238 228.118 -54.188 227.312 C-52.903 225.329 -52.903 225.329 -52.188 223.312 C-55.163 222.997 -55.163 222.997 -56.875 224.688 Z M-47.062 240.125 C-53.802 250.234 -51.958 263.981 -49.75 275.375 C-45.524 295.673 -39.024 315.767 -32.188 335.312 C-29.307 334.714 -27.216 333.839 -24.75 332.25 C-21.767 330.469 -19.722 329.884 -16.188 330.312 C-16.57 332.651 -16.834 333.977 -18.579 335.634 C-19.168 336.016 -19.757 336.399 -20.363 336.793 C-21.02 337.23 -21.677 337.667 -22.354 338.117 C-23.416 338.802 -23.416 338.802 -24.5 339.5 C-25.974 340.481 -27.447 341.464 -28.918 342.449 C-29.647 342.934 -30.376 343.42 -31.126 343.919 C-35.959 347.186 -40.569 350.752 -45.188 354.312 C-46.003 354.938 -46.003 354.938 -46.834 355.577 C-80.982 379.67 -80.982 379.67 -102.188 413.312 C-102.188 417.817 -101.759 419.668 -98.75 423.062 C-90.846 428.759 -81.29 428.761 -71.938 428.625 C-70.022 428.612 -70.022 428.612 -68.068 428.6 C-55.53 428.475 -43.01 427.789 -30.497 427.025 C-21.042 426.454 -11.661 426.187 -2.188 426.312 C-1.41 429.076 -1.056 431.55 -1.03 434.418 C-1.019 435.224 -1.009 436.03 -0.998 436.86 C-0.988 438.167 -0.988 438.167 -0.977 439.5 C-0.951 441.398 -0.924 443.296 -0.897 445.193 C-0.884 446.191 -0.871 447.189 -0.857 448.218 C-3.162 498.471 -3.162 498.471 11.812 543.312 C23.876 543.312 33.105 533.921 41.18 526.012 C51.689 515.44 60.251 503.476 68.812 491.312 C69.36 490.54 69.908 489.768 70.472 488.972 C75.863 481.333 80.994 473.528 86.115 465.707 C87.131 464.17 87.131 464.17 88.168 462.602 C88.773 461.681 89.378 460.76 90.001 459.811 C91.761 457.384 93.634 455.365 95.812 453.312 C96.428 453.599 97.044 453.885 97.679 454.179 C146.664 477.313 146.664 477.313 199.434 479.59 C202.418 478.276 204.428 476.985 206.062 474.125 C205.401 466.687 200.565 460.01 196.438 454 C195.919 453.234 195.401 452.469 194.867 451.68 C188.619 442.486 182.224 433.393 175.812 424.312 C175.297 423.582 174.781 422.851 174.25 422.098 C173.258 420.693 172.266 419.287 171.273 417.882 C170.299 416.501 169.325 415.121 168.352 413.739 C165.706 409.987 163.049 406.244 160.375 402.512 C152.69 391.729 145.608 380.722 138.959 369.27 C137.993 367.621 136.991 365.993 135.98 364.371 C134.812 362.312 134.812 362.312 134.812 360.312 C136.458 358.851 136.458 358.851 138.766 357.152 C140.027 356.216 140.027 356.216 141.315 355.26 C142.221 354.597 143.128 353.933 144.062 353.25 C144.979 352.571 145.895 351.892 146.84 351.193 C149.493 349.228 152.152 347.269 154.812 345.312 C182.834 326.682 182.834 326.682 200.188 299.375 C200.217 296.066 199.793 295.283 197.875 292.375 C187.688 285.514 172.533 287.156 160.812 287.312 C161.835 300.464 163.238 313.37 165.812 326.312 C168.084 324.041 168.175 323.311 168.629 320.234 C168.753 319.409 168.877 318.584 169.004 317.734 C169.188 316.411 169.188 316.411 169.375 315.062 C169.506 314.167 169.637 313.272 169.771 312.35 C170.692 305.824 171.251 299.358 171.504 292.77 C171.606 291.959 171.708 291.148 171.812 290.312 C172.473 289.983 173.132 289.653 173.812 289.312 C173.43 293.724 173.039 298.135 172.641 302.545 C172.507 304.042 172.375 305.54 172.245 307.037 C172.057 309.202 171.862 311.367 171.664 313.531 C171.549 314.83 171.434 316.129 171.315 317.467 C170.78 321.558 169.885 325.333 168.812 329.312 C167.163 328.983 165.513 328.653 163.812 328.312 C161.478 320.375 160.247 312.589 159.547 304.37 C159.202 300.624 158.937 298.5 156.812 295.312 C156.525 296.527 156.238 297.742 155.942 298.993 C154.865 303.547 153.785 308.1 152.705 312.653 C152.24 314.614 151.775 316.576 151.311 318.538 C146.364 339.462 146.364 339.462 143.812 348.312 C143.153 348.312 142.493 348.312 141.812 348.312 C142.232 339.278 144.237 330.82 146.562 322.125 C146.925 320.745 147.287 319.364 147.648 317.984 C149.872 309.554 152.256 301.194 155 292.918 C155.912 290.449 155.912 290.449 155.812 288.312 C150.862 288.312 145.913 288.312 140.812 288.312 C140.666 289.492 140.519 290.671 140.367 291.887 C138.939 302.811 137.054 313.588 134.812 324.375 C134.564 325.574 134.315 326.773 134.058 328.009 C132.648 334.679 131.102 341.292 129.363 347.885 C128.702 350.385 128.702 350.385 128.812 353.312 C128.153 352.983 127.493 352.653 126.812 352.312 C129.4 339.24 132.068 326.185 134.793 313.14 C135.164 311.357 135.164 311.357 135.543 309.539 C135.764 308.483 135.984 307.427 136.212 306.338 C137.139 301.667 137.947 297.208 137.875 292.438 C137.844 290.396 137.844 290.396 137.812 288.312 C132.862 288.642 127.913 288.972 122.812 289.312 C119.78 296.552 118.22 303.957 116.625 311.625 C116.352 312.899 116.08 314.173 115.799 315.486 C114.351 321.847 114.351 321.847 113.812 328.312 C113.153 328.312 112.493 328.312 111.812 328.312 C112.767 323.703 113.727 319.095 114.693 314.488 C115.021 312.922 115.347 311.356 115.671 309.789 C116.138 307.531 116.612 305.275 117.086 303.02 C117.229 302.324 117.372 301.627 117.519 300.91 C118.304 297.204 119.28 293.779 120.812 290.312 C103.53 290.381 85.91 295.859 69.738 301.571 C62.614 304.004 62.614 304.004 58.812 302.312 C56.898 300.389 55.282 298.56 53.625 296.438 C52.658 295.249 51.689 294.061 50.719 292.875 C49.992 291.978 49.992 291.978 49.25 291.062 C43.343 283.872 37.016 277.209 29.812 271.312 C28.993 270.64 28.173 269.967 27.328 269.273 C25.484 267.765 23.638 266.26 21.789 264.758 C19.208 262.637 16.657 260.488 14.118 258.318 C11.363 255.967 8.591 253.636 5.812 251.312 C4.947 250.588 4.947 250.588 4.064 249.848 C-9.569 238.516 -31.524 223.374 -47.062 240.125 Z M74.812 242.312 C74.812 243.303 74.812 244.293 74.812 245.312 C76.462 244.982 78.113 244.653 79.812 244.312 C79.483 242.993 79.152 241.673 78.812 240.312 C77.35 240.22 77.35 240.22 74.812 242.312 Z M-178.188 246.312 C-178.847 246.972 -179.507 247.632 -180.188 248.312 C-179.869 250.421 -179.869 250.421 -179.188 252.312 C-177.868 252.312 -176.548 252.312 -175.188 252.312 C-174.528 251.322 -173.868 250.332 -173.188 249.312 C-174.562 247.771 -174.562 247.771 -176.188 246.312 C-176.847 246.312 -177.507 246.312 -178.188 246.312 Z M-230.188 252.312 C-230.847 252.972 -231.507 253.632 -232.188 254.312 C-232.188 263.126 -227.681 269.094 -221.625 275.188 C-206.784 287.629 -175.952 303.312 -156.188 303.312 C-156.369 303.972 -156.551 304.632 -156.738 305.312 C-162.73 328.91 -169.813 366.027 -158.48 388.594 C-156.826 390.941 -156.826 390.941 -152.188 394.312 C-152.188 381.112 -152.188 367.913 -152.188 354.312 C-154.409 356.534 -155.113 358.397 -156.188 361.312 C-157.178 361.312 -158.168 361.312 -159.188 361.312 C-158.942 359.396 -158.942 359.396 -158.691 357.441 C-158.127 352.363 -158.074 347.355 -158.125 342.25 C-158.13 341.384 -158.134 340.519 -158.139 339.627 C-158.15 337.522 -158.168 335.417 -158.188 333.312 C-157.197 333.312 -156.207 333.312 -155.188 333.312 C-155.188 337.933 -155.188 342.553 -155.188 347.312 C-148.473 338.919 -148.987 330.778 -149.188 320.312 C-150.178 322.293 -150.178 322.293 -151.188 324.312 C-152.507 324.312 -153.827 324.312 -155.188 324.312 C-154.528 316.392 -153.868 308.472 -153.188 300.312 C-158.7 298.245 -158.7 298.245 -164.213 296.181 C-201.225 282.296 -201.225 282.296 -216.188 271.312 C-216.811 270.873 -217.435 270.433 -218.078 269.98 C-223.917 265.571 -227.276 259.265 -229.188 252.312 C-229.518 252.312 -229.847 252.312 -230.188 252.312 Z M-150.188 301.312 C-150.517 304.613 -150.847 307.913 -151.188 311.312 C-148.621 308.746 -147.682 307.402 -146.188 304.312 C-145.528 303.652 -144.868 302.993 -144.188 302.312 C-147.157 301.817 -147.157 301.817 -150.188 301.312 Z M-118.188 305.312 C-118.517 305.973 -118.847 306.632 -119.188 307.312 C-118.197 306.983 -117.207 306.652 -116.188 306.312 C-116.847 305.983 -117.507 305.652 -118.188 305.312 Z M-49.188 320.312 C-49.188 321.962 -49.188 323.613 -49.188 325.312 C-48.857 325.312 -48.528 325.312 -48.188 325.312 C-48.188 323.663 -48.188 322.012 -48.188 320.312 C-48.518 320.312 -48.847 320.312 -49.188 320.312 Z M-128.188 327.312 C-128.517 328.303 -128.847 329.293 -129.188 330.312 C-127.868 329.983 -126.548 329.652 -125.188 329.312 C-125.188 328.652 -125.188 327.993 -125.188 327.312 C-126.178 327.312 -127.168 327.312 -128.188 327.312 Z M-113.188 333.312 C-113.683 335.293 -113.683 335.293 -114.188 337.312 C-113.528 337.312 -112.868 337.312 -112.188 337.312 C-111.858 335.993 -111.528 334.673 -111.188 333.312 C-111.847 333.312 -112.507 333.312 -113.188 333.312 Z M-124.188 344.312 C-126.586 346.949 -126.586 346.949 -127.188 350.312 C-126.197 349.983 -125.207 349.652 -124.188 349.312 C-122.969 346.808 -122.969 346.808 -122.188 344.312 C-122.847 344.312 -123.507 344.312 -124.188 344.312 Z M-109.188 351.312 C-110.837 353.293 -112.488 355.273 -114.188 357.312 C-113.197 357.312 -112.207 357.312 -111.188 357.312 C-109.482 355.372 -109.482 355.372 -108.188 353.312 C-108.517 352.652 -108.847 351.993 -109.188 351.312 Z M-128.188 365.312 C-130.586 367.949 -130.586 367.949 -131.188 371.312 C-129.171 370.597 -129.171 370.597 -127.188 369.312 C-126.382 367.262 -126.382 367.262 -126.188 365.312 C-126.847 365.312 -127.507 365.312 -128.188 365.312 Z M-102.188 426.312 C-102.487 430.98 -102.487 430.98 -100.188 434.938 C-87.101 445.298 -70.749 444.487 -54.875 444.438 C-54.067 444.437 -53.258 444.436 -52.425 444.435 C-37.329 444.415 -22.268 444.011 -7.188 443.312 C-7.515 444.043 -7.843 444.773 -8.18 445.525 C-9.178 448.286 -9.405 450.014 -9.305 452.914 C-9.274 453.854 -9.243 454.794 -9.211 455.762 C-9.162 456.81 -9.113 457.858 -9.062 458.938 C-8.992 460.628 -8.992 460.628 -8.92 462.353 C-8.299 475.378 -7.264 488.377 -6.25 501.375 C-6.165 502.471 -6.08 503.566 -5.992 504.695 C-5.427 511.904 -4.825 519.109 -4.188 526.312 C-4.109 527.216 -4.031 528.119 -3.95 529.049 C-3.73 531.533 -3.492 534.014 -3.246 536.496 C-3.184 537.209 -3.122 537.921 -3.057 538.655 C-2.589 543.101 -1.4 546.438 0.812 550.312 C4.229 550.479 4.229 550.479 7.812 550.312 C8.472 549.653 9.132 548.993 9.812 548.312 C9.07 547.364 8.327 546.415 7.562 545.438 C-4.981 524.768 -3.244 490.169 -4.438 466.562 C-4.499 465.35 -4.499 465.35 -4.562 464.113 C-5.07 453.839 -5.29 443.599 -5.188 433.312 C-9.202 431.894 -13.187 432.442 -17.348 432.738 C-28.34 433.415 -39.313 433.499 -50.324 433.498 C-53.645 433.5 -56.966 433.518 -60.287 433.537 C-62.44 433.54 -64.593 433.542 -66.746 433.543 C-67.718 433.55 -68.69 433.557 -69.692 433.565 C-79.067 433.534 -88.335 432.579 -96.938 428.688 C-97.943 428.241 -98.948 427.795 -99.984 427.336 C-100.711 426.998 -101.438 426.66 -102.188 426.312 Z M94.812 460.312 C94.152 460.973 93.493 461.632 92.812 462.312 C92.812 463.303 92.812 464.293 92.812 465.312 C113.954 475.849 135.863 482.882 158.812 488.312 C159.611 488.506 160.409 488.7 161.231 488.899 C170.921 491.275 170.921 491.275 180.812 491.312 C182.822 489.979 182.822 489.979 183.812 488.312 C183.317 486.827 183.317 486.827 182.812 485.312 C181.103 485.075 181.103 485.075 179.359 484.832 C160.722 482.137 143.211 477.256 125.375 471.312 C124.603 471.055 123.831 470.798 123.036 470.533 C113.533 467.356 104.13 464.007 94.812 460.312 Z " fill="#000000" transform="translate(382.1875,171.6875)"/>
<path d="M0 0 C0 0.66 0 1.32 0 2 C-0.969 2.461 -1.939 2.923 -2.938 3.398 C-11.266 7.431 -19.171 11.77 -26.857 16.937 C-28.526 18.031 -30.259 19.025 -32 20 C-32.99 19.67 -33.98 19.34 -35 19 C-31.48 13.626 -26.61 11.029 -21.188 7.875 C-20.31 7.35 -19.433 6.826 -18.529 6.285 C-4.524 -1.99 -4.524 -1.99 0 0 Z " fill="#000000" transform="translate(629,201)"/>
<path d="M0 0 C2.494 1.204 4.681 2.454 7 4 C9.646 3.688 9.646 3.688 12 3 C13.125 4.625 13.125 4.625 14 7 C13.125 10.25 13.125 10.25 12 13 C12.99 13.33 13.98 13.66 15 14 C15.382 15.656 15.714 17.325 16 19 C15.67 19.33 15.34 19.66 15 20 C13.721 19.917 12.442 19.835 11.125 19.75 C8.977 19.641 8.977 19.641 7 20 C4.918 22.355 4.918 22.355 4 25 C2.35 24.67 0.7 24.34 -1 24 C-1.093 22.113 -1.093 22.113 -1.188 20.188 C-1.383 17.983 -1.383 17.983 -2 16 C-4.498 14.301 -4.498 14.301 -7 13 C-7.312 10.312 -7.312 10.312 -7 8 C-5.35 8 -3.7 8 -2 8 C-1.856 6.866 -1.711 5.731 -1.562 4.562 C-1 1 -1 1 0 0 Z " fill="#000000" transform="translate(308,202)"/>
<path d="M0 0 C4.28 0.477 6.677 3.203 9.625 6.062 C14.002 10.189 18.455 14.079 23.195 17.789 C25.356 19.492 27.492 21.215 29.617 22.961 C39.955 31.452 50.489 39.647 61.379 47.422 C62.368 48.128 63.356 48.835 64.375 49.562 C65.228 50.162 66.082 50.761 66.961 51.379 C69 53 69 53 71 56 C69.32 56.695 69.32 56.695 67 57 C64.617 55.805 64.617 55.805 61.875 53.875 C60.813 53.132 59.751 52.39 58.656 51.625 C57.437 50.75 56.218 49.875 55 49 C53.615 48.02 52.229 47.041 50.844 46.062 C36.059 35.555 21.685 24.549 8.016 12.621 C5.043 10.037 2.034 7.511 -1 5 C-0.67 3.35 -0.34 1.7 0 0 Z " fill="#000000" transform="translate(266,222)"/>
<path d="M0 0 C0.66 0.33 1.32 0.66 2 1 C-3.19 13.211 -23.247 24.811 -35 30 C-35.66 30 -36.32 30 -37 30 C-37 29.01 -37 28.02 -37 27 C-34.633 25.344 -32.304 23.882 -29.812 22.438 C-19.047 15.96 -9.291 8.477 0 0 Z " fill="#000000" transform="translate(627,223)"/>
<path d="M0 0 C-2.077 2.283 -3.83 3.553 -6.695 4.684 C-7.407 4.97 -8.119 5.256 -8.853 5.551 C-9.603 5.843 -10.353 6.136 -11.125 6.438 C-12.662 7.051 -14.198 7.666 -15.734 8.281 C-16.471 8.575 -17.208 8.869 -17.967 9.172 C-20.469 10.191 -22.924 11.301 -25.375 12.438 C-29 14 -29 14 -32 14 C-32 13.01 -32 12.02 -32 11 C-28.461 9.37 -24.918 7.747 -21.375 6.125 C-20.376 5.665 -19.377 5.205 -18.348 4.73 C-4.341 -1.67 -4.341 -1.67 0 0 Z " fill="#000000" transform="translate(643,252)"/>
<path d="M0 0 C0 0.66 0 1.32 0 2 C-6.747 3.802 -13.519 5.371 -20.375 6.688 C-21.373 6.884 -21.373 6.884 -22.391 7.085 C-26.312 7.819 -30.014 8.13 -34 8 C-34 7.34 -34 6.68 -34 6 C-27.87 3.876 -21.686 2.458 -15.312 1.312 C-14.6 1.181 -13.888 1.05 -13.155 0.915 C-8.704 0.145 -4.516 -0.124 0 0 Z " fill="#000000" transform="translate(647,264)"/>
<path d="M0 0 C10.631 0.586 21.129 1.65 31.688 3 C46.547 4.885 61.276 6.136 76.25 6.562 C77.689 6.606 79.128 6.649 80.566 6.693 C84.044 6.799 87.522 6.901 91 7 C91 7.99 91 8.98 91 10 C64.419 17.766 26.722 8.184 0 4 C0 2.68 0 1.36 0 0 Z " fill="#000000" transform="translate(567,293)"/>
<path d="M0 0 C1.32 0 2.64 0 4 0 C3.385 5.538 3.385 5.538 1.438 7.875 C0.726 8.432 0.726 8.432 0 9 C-1.32 8.34 -2.64 7.68 -4 7 C-2.68 4.69 -1.36 2.38 0 0 Z " fill="#000000" transform="translate(474,337)"/>
<path d="M0 0 C1 1 1 1 1.062 4.562 C1.042 5.697 1.021 6.831 1 8 C-0.75 8.688 -0.75 8.688 -3 9 C-5.25 7.938 -5.25 7.938 -7 6 C-7.25 2.812 -7.25 2.812 -7 0 C-4.316 -1.342 -2.847 -0.73 0 0 Z " fill="#000000" transform="translate(350,425)"/>
<path d="M0 0 C0.367 5.5 0.367 5.5 -1.375 7.875 C-3 9 -3 9 -5 9 C-5.33 6.03 -5.66 3.06 -6 0 C-3.509 -1.245 -2.589 -0.777 0 0 Z " fill="#000000" transform="translate(353,447)"/>
<path d="M0 0 C1.454 0.031 1.454 0.031 2.938 0.062 C3.688 2.312 3.688 2.312 3.938 5.062 C2.188 7.375 2.188 7.375 -0.062 9.062 C-1.053 9.062 -2.043 9.062 -3.062 9.062 C-4.429 6.33 -4.191 4.081 -4.062 1.062 C-3.062 0.062 -3.062 0.062 0 0 Z " fill="#000000" transform="translate(353.0625,466.9375)"/>
<path d="M0 0 C0 0.99 0 1.98 0 3 C-4.924 3.986 -9.85 4.964 -14.777 5.936 C-16.448 6.266 -18.119 6.599 -19.789 6.934 C-28.835 8.745 -37.765 10.506 -47 11 C-47 10.34 -47 9.68 -47 9 C-37.178 6.344 -27.3 4.188 -17.312 2.25 C-16.178 2.027 -15.044 1.805 -13.875 1.575 C-12.799 1.37 -11.722 1.165 -10.613 0.953 C-9.171 0.677 -9.171 0.677 -7.7 0.396 C-5.089 0.013 -2.635 -0.073 0 0 Z " fill="#000000" transform="translate(654,478)"/>
<path d="M0 0 C0.835 0.34 0.835 0.34 1.688 0.688 C2.017 2.007 2.348 3.327 2.688 4.688 C-1.62 7.764 -1.62 7.764 -5.125 7.375 C-5.847 7.148 -6.569 6.921 -7.312 6.688 C-7.312 5.368 -7.312 4.048 -7.312 2.688 C-4.752 0.625 -3.325 -0.449 0 0 Z " fill="#000000" transform="translate(359.3125,488.3125)"/>
<path d="M0 0 C3.758 1.879 5.15 3.025 7.75 6.125 C8.364 6.849 8.977 7.574 9.609 8.32 C10.298 9.152 10.298 9.152 11 10 C18.221 8.495 25.245 6.539 32.312 4.438 C34.433 3.811 36.554 3.184 38.676 2.559 C39.603 2.283 40.53 2.008 41.486 1.724 C46.193 0.368 50.048 -0.095 55 0 C54.67 0.99 54.34 1.98 54 3 C51.598 3.92 51.598 3.92 48.418 4.684 C47.257 4.972 46.096 5.26 44.9 5.557 C43.675 5.847 42.45 6.138 41.188 6.438 C33.099 8.399 25.176 10.483 17.322 13.25 C15 14 15 14 13 14 C13.639 14.928 14.279 15.856 14.938 16.812 C17 20 17 20 18 23 C19.221 22.783 20.441 22.567 21.699 22.344 C31.247 20.709 40.289 19.529 50 20 C50 23 50 23 48.094 25.27 C42.99 30.273 37.897 34.948 32 39 C33.787 44.185 36.79 48.366 39.898 52.828 C42.255 56.348 43.567 58.724 43 63 C40 64 40 64 37.406 62.855 C36.447 62.305 35.488 61.755 34.5 61.188 C33.541 60.645 32.582 60.102 31.594 59.543 C29.697 58.415 27.836 57.224 26 56 C18.982 54.872 15.275 57.251 9.516 61.176 C7.035 62.923 7.035 62.923 4.984 64.73 C3 66 3 66 -2 66 C-2 60.06 -2 54.12 -2 48 C-4.269 47.402 -6.538 46.804 -8.875 46.188 C-14.954 44.576 -20.993 42.866 -27 41 C-27 40.01 -27 39.02 -27 38 C-22.921 36.322 -18.836 34.66 -14.75 33 C-13.591 32.523 -12.432 32.046 -11.238 31.555 C-10.123 31.104 -9.008 30.652 -7.859 30.188 C-6.833 29.769 -5.807 29.35 -4.749 28.918 C-2 28 -2 28 2 28 C1.505 23.545 1.505 23.545 1 19 C-2.791 20.713 -6.577 22.436 -10.359 24.17 C-11.64 24.755 -12.923 25.338 -14.207 25.918 C-28.497 31.353 -28.497 31.353 -39 41 C-39.99 40.67 -40.98 40.34 -42 40 C-39.82 34.502 -34.878 31.961 -30 29 C-26.375 27.562 -26.375 27.562 -24 27 C-23.908 26.183 -23.817 25.365 -23.723 24.523 C-22.844 20.238 -21.247 16.589 -19.438 12.625 C-19.108 11.889 -18.779 11.153 -18.439 10.395 C-17.633 8.594 -16.817 6.796 -16 5 C-15.34 5 -14.68 5 -14 5 C-14.648 9.031 -15.933 12.451 -17.562 16.188 C-19.366 19.967 -19.366 19.967 -20 24 C-16.52 23.242 -13.849 22.161 -11 20 C-9.005 16.416 -7.571 12.868 -6.191 9.02 C-5 6 -5 6 -3 5 C-3.72 9.609 -5.313 13.672 -7 18 C-4.69 17.34 -2.38 16.68 0 16 C0 10.72 0 5.44 0 0 Z " fill="#000000" transform="translate(424,496)"/>
<path d="M0 0 C0 1.32 0 2.64 0 4 C-20.472 5.131 -40.939 6.126 -61.438 6.625 C-62.657 6.656 -62.657 6.656 -63.902 6.687 C-74.936 6.958 -85.963 7.047 -97 7 C-97.495 4.525 -97.495 4.525 -98 2 C-92.956 1.18 -88.041 0.836 -82.928 0.795 C-81.766 0.78 -81.766 0.78 -80.58 0.765 C-78.036 0.733 -75.493 0.708 -72.949 0.684 C-71.167 0.663 -69.385 0.642 -67.603 0.621 C-62.92 0.566 -58.237 0.516 -53.554 0.468 C-49.75 0.428 -45.946 0.384 -42.142 0.339 C-10.316 -0.031 -10.316 -0.031 0 0 Z " fill="#000000" transform="translate(664,515)"/>
<path d="M0 0 C2.5 1.25 2.5 1.25 5 3 C5 4.32 5 5.64 5 7 C1.142 9.153 -1.551 10.393 -6 10 C-7 7 -7 7 -6.375 5 C-4.636 2.471 -2.689 1.415 0 0 Z " fill="#000000" transform="translate(357,520)"/>
<path d="M0 0 C1.98 0 3.96 0 6 0 C6 4 6 4 4 6.25 C3.01 7.116 3.01 7.116 2 8 C0.438 6.25 0.438 6.25 -1 4 C-0.688 1.75 -0.688 1.75 0 0 Z " fill="#000000" transform="translate(339,533)"/>
<path d="M0 0 C8.455 0.325 16.671 1.504 25 2.938 C26.504 3.192 26.504 3.192 28.039 3.452 C28.996 3.621 29.952 3.791 30.938 3.965 C31.792 4.116 32.647 4.266 33.527 4.422 C36.155 5.036 38.523 5.939 41 7 C41 7.66 41 8.32 41 9 C32.579 8.336 24.316 6.954 16 5.5 C14.665 5.272 13.331 5.044 11.996 4.816 C2.256 3.128 2.256 3.128 0 2 C0 1.34 0 0.68 0 0 Z " fill="#000000" transform="translate(617,537)"/>
<path d="M0 0 C1.32 0.33 2.64 0.66 4 1 C4.33 3.97 4.66 6.94 5 10 C-1.75 9.25 -1.75 9.25 -4 7 C-3.762 4.542 -3.136 3.188 -1.688 1.188 C-1.131 0.796 -0.574 0.404 0 0 Z " fill="#000000" transform="translate(329,541)"/>
<path d="M0 0 C0.771 0.116 1.542 0.232 2.336 0.351 C5.869 0.882 9.403 1.41 12.938 1.938 C14.15 2.12 15.362 2.302 16.611 2.49 C23.066 3.452 29.508 4.335 36 5 C36.495 6.485 36.495 6.485 37 8 C28.111 7.644 19.412 6.896 10.625 5.5 C9.386 5.304 9.386 5.304 8.122 5.104 C2.277 4.138 2.277 4.138 0 3 C0 2.01 0 1.02 0 0 Z " fill="#000000" transform="translate(620,551)"/>
<path d="M0 0 C1.145 0.34 1.145 0.34 2.312 0.688 C2.5 3.562 2.5 3.562 2.312 6.688 C-0.688 8.688 -0.688 8.688 -3.375 8.312 C-4.138 8.106 -4.901 7.9 -5.688 7.688 C-5.915 4.884 -6.028 3.226 -4.5 0.812 C-2.688 -0.312 -2.688 -0.312 0 0 Z " fill="#000000" transform="translate(319.6875,554.3125)"/>
<path d="M0 0 C4.965 0.617 9.324 2.14 13.926 4.02 C14.673 4.319 15.42 4.619 16.189 4.928 C17.765 5.562 19.339 6.198 20.912 6.837 C23.292 7.804 25.676 8.763 28.061 9.721 C35.432 12.689 42.77 15.697 50 19 C49.505 20.485 49.505 20.485 49 22 C37.782 17.836 26.627 13.528 15.5 9.125 C13.983 8.526 12.466 7.927 10.949 7.328 C7.299 5.887 3.649 4.444 0 3 C0 2.01 0 1.02 0 0 Z " fill="#000000" transform="translate(568,563)"/>
<path d="M0 0 C0.222 2.741 0.348 4.44 -1.125 6.812 C-3.775 8.491 -5.932 8.205 -9 8 C-9.312 5.188 -9.312 5.188 -9 2 C-5.89 -0.678 -3.873 -1.578 0 0 Z " fill="#000000" transform="translate(311,571)"/>
<path d="M0 0 C0.66 0 1.32 0 2 0 C1.448 4.546 -0.545 7.77 -2.938 11.562 C-6.753 17.858 -8.457 23.593 -9 31 C-9.99 30.67 -10.98 30.34 -12 30 C-13.251 19.633 -7.865 10.988 -2.188 2.625 C-1.466 1.759 -0.744 0.893 0 0 Z " fill="#000000" transform="translate(217,595)"/>
<path d="M0 0 C0 0.99 0 1.98 0 3 C-1.977 4.691 -1.977 4.691 -4.625 6.562 C-10.392 11.036 -15.336 16.126 -16.359 23.637 C-16.419 26.361 -16.419 26.361 -16 30 C-17.32 29.67 -18.64 29.34 -20 29 C-20.553 22.359 -20.007 17.443 -16 12 C-5.095 0 -5.095 0 0 0 Z " fill="#000000" transform="translate(206,596)"/>
<path d="M0 0 C0.66 0 1.32 0 2 0 C2.146 8.08 1.682 16.015 1 24.062 C0.144 34.74 -0.252 45.294 0 56 C0.66 56 1.32 56 2 56 C2.288 55.134 2.577 54.268 2.874 53.376 C4.678 47.969 6.508 42.573 8.375 37.188 C8.762 36.031 9.148 34.874 9.547 33.682 C9.931 32.584 10.315 31.486 10.711 30.355 C11.054 29.352 11.398 28.348 11.751 27.313 C13 25 13 25 15.143 24.165 C15.756 24.111 16.369 24.056 17 24 C19.983 30.842 21.191 37.741 22.363 45.091 C22.688 47.129 23.028 49.164 23.369 51.199 C24.295 56.864 25.138 62.247 25 68 C24.01 68 23.02 68 22 68 C21.823 67.016 21.647 66.032 21.465 65.018 C20.809 61.367 20.151 57.716 19.491 54.066 C19.206 52.486 18.922 50.906 18.639 49.325 C18.231 47.054 17.821 44.783 17.41 42.512 C17.284 41.805 17.158 41.099 17.028 40.371 C16.505 37.492 15.927 34.781 15 32 C14.814 32.564 14.628 33.128 14.437 33.709 C13.573 36.31 12.693 38.905 11.812 41.5 C11.521 42.387 11.229 43.274 10.928 44.188 C9.003 49.816 6.892 55.406 3 60 C1.515 60.495 1.515 60.495 0 61 C-3.111 58.295 -3.831 56.078 -4.161 52.018 C-4.405 39.654 -3.765 27.484 -2.562 15.188 C-2.495 14.489 -2.428 13.79 -2.358 13.071 C-1.196 1.196 -1.196 1.196 0 0 Z " fill="#000000" transform="translate(518,575)"/>
<path d="M0 0 C0.99 0 1.98 0 3 0 C2.858 2.709 2.712 5.417 2.562 8.125 C2.504 9.266 2.504 9.266 2.443 10.43 C2.205 14.685 1.798 18.804 1 23 C0.34 23 -0.32 23 -1 23 C-1.137 15.272 -0.752 7.691 0 0 Z " fill="#000000" transform="translate(502,605)"/>
<path d="M0 0 C0.66 0.33 1.32 0.66 2 1 C2 12.88 2 24.76 2 37 C1.01 37 0.02 37 -1 37 C-1.206 11.03 -1.206 11.03 0 0 Z " fill="#000000" transform="translate(555,606)"/>
<path d="M0 0 C0.66 0 1.32 0 2 0 C0.692 6.315 -0.98 12.337 -3.047 18.441 C-3.649 20.249 -4.25 22.057 -4.851 23.865 C-5.162 24.797 -5.473 25.729 -5.793 26.689 C-12.317 46.222 -12.317 46.222 -17.812 66.062 C-18.036 66.956 -18.259 67.849 -18.489 68.77 C-19.835 74.481 -20.549 80.152 -21 86 C-13.536 71.987 -6.418 57.851 0.366 43.499 C0.927 42.32 1.488 41.141 2.066 39.926 C2.561 38.878 3.055 37.831 3.565 36.751 C4.859 34.271 6.246 32.171 8 30 C8.99 30.33 9.98 30.66 11 31 C10.678 32.125 10.357 33.249 10.025 34.408 C1.806 63.208 1.806 63.208 -5.5 92.25 C-5.662 92.939 -5.824 93.629 -5.991 94.339 C-8.307 104.283 -10.283 114.269 -11.723 124.38 C-11.852 125.234 -11.98 126.089 -12.113 126.969 C-12.214 127.705 -12.315 128.442 -12.419 129.201 C-13 131 -13 131 -16 133 C-17.272 129.185 -16.491 126.336 -15.699 122.512 C-15.547 121.753 -15.395 120.993 -15.239 120.211 C-14.731 117.701 -14.21 115.194 -13.688 112.688 C-13.512 111.832 -13.336 110.977 -13.155 110.096 C-10.006 94.826 -6.238 79.755 -2.151 64.712 C-1.941 63.938 -1.731 63.163 -1.514 62.366 C-1.119 60.918 -0.721 59.47 -0.32 58.024 C0.666 54.563 0.666 54.563 1 51 C0.518 52.071 0.518 52.071 0.025 53.165 C-16.558 89.875 -16.558 89.875 -21.094 91.965 C-21.723 91.976 -22.352 91.988 -23 92 C-25.517 89.483 -25.287 88.61 -25.289 85.125 C-25.161 78.832 -23.954 73.074 -22.375 67 C-22.079 65.84 -21.784 64.679 -21.479 63.483 C-18.344 51.611 -14.599 39.928 -10.812 28.25 C-10.507 27.304 -10.202 26.359 -9.887 25.384 C-9.002 22.654 -8.107 19.928 -7.207 17.203 C-6.812 15.987 -6.812 15.987 -6.409 14.747 C-4.679 9.569 -2.54 4.834 0 0 Z M2 47 C3 49 3 49 3 49 Z " fill="#000000" transform="translate(410,577)"/>
<path d="M0 0 C1.875 0.312 1.875 0.312 4 1 C4.66 1.99 5.32 2.98 6 4 C5.01 5.485 5.01 5.485 4 7 C1.525 6.01 1.525 6.01 -1 5 C-0.67 3.35 -0.34 1.7 0 0 Z " fill="#000000" transform="translate(227,613)"/>
<path d="M0 0 C0.66 0.33 1.32 0.66 2 1 C2.33 7.93 2.66 14.86 3 22 C2.01 22.33 1.02 22.66 0 23 C-0.196 19.355 -0.38 15.709 -0.562 12.062 C-0.619 11.022 -0.675 9.981 -0.732 8.908 C-0.781 7.919 -0.829 6.929 -0.879 5.91 C-0.926 4.994 -0.973 4.077 -1.022 3.133 C-1 1 -1 1 0 0 Z " fill="#000000" transform="translate(568,620)"/>
<path d="M0 0 C0.66 0.33 1.32 0.66 2 1 C-0.434 9.968 -2.906 18.926 -5.389 27.881 C-5.84 29.511 -6.291 31.141 -6.741 32.771 C-7.4 35.156 -8.061 37.541 -8.723 39.926 C-8.922 40.648 -9.121 41.37 -9.326 42.114 C-10.439 46.118 -11.649 50.069 -13 54 C-13.66 54 -14.32 54 -15 54 C-14.384 47.546 -12.918 41.622 -11.094 35.41 C-10.667 33.932 -10.667 33.932 -10.231 32.425 C-9.632 30.358 -9.03 28.291 -8.425 26.225 C-7.496 23.05 -6.578 19.872 -5.66 16.693 C-5.076 14.682 -4.491 12.671 -3.906 10.66 C-3.492 9.229 -3.492 9.229 -3.07 7.769 C-2.813 6.894 -2.556 6.019 -2.291 5.117 C-2.065 4.344 -1.84 3.571 -1.607 2.775 C-1 1 -1 1 0 0 Z " fill="#000000" transform="translate(425,650)"/>
<path d="M0 0 C0.66 0.66 1.32 1.32 2 2 C1.609 5.004 1.609 5.004 0.75 8.562 C0.477 9.739 0.203 10.916 -0.078 12.129 C-0.382 13.076 -0.687 14.024 -1 15 C-1.99 15.495 -1.99 15.495 -3 16 C-2.579 10.395 -2.084 5.279 0 0 Z " fill="#000000" transform="translate(424,681)"/>
</svg>
