<?xml version="1.0" encoding="UTF-8"?>
<!-- Generator: visioncortex VTracer 0.6.0 -->
<svg version="1.1" xmlns="http://www.w3.org/2000/svg" width="847" height="847">
<path d="M0 0 C0.66 0 1.32 0 2 0 C2.968 3.105 2.981 5.351 2.441 8.547 C2.303 9.391 2.164 10.236 2.021 11.105 C1.87 11.978 1.719 12.851 1.562 13.75 C1.415 14.638 1.267 15.526 1.115 16.441 C0.751 18.629 0.379 20.815 0 23 C-0.99 23.33 -1.98 23.66 -3 24 C-5.893 18.214 -4.016 9.848 -2.633 3.777 C-2 2 -2 2 0 0 Z " fill="#000000" transform="translate(266,41)"/>
<path d="M0 0 C0.99 0.33 1.98 0.66 3 1 C2.489 5.292 -0.04 7.644 -2.875 10.75 C-3.322 11.257 -3.77 11.763 -4.23 12.285 C-5.42 13.587 -6.706 14.801 -8 16 C-8.99 16 -9.98 16 -11 16 C-10.583 11.143 -8.2 8.549 -4.938 5.188 C-4.465 4.685 -3.993 4.183 -3.506 3.666 C-2.346 2.436 -1.174 1.217 0 0 Z " fill="#000000" transform="translate(303,55)"/>
<path d="M0 0 C4.598 1.452 4.598 1.452 6.375 3.875 C7.098 6.333 6.852 7.615 6 10 C5.01 10 4.02 10 3 10 C2.303 8.713 1.618 7.421 0.938 6.125 C0.363 5.046 0.363 5.046 -0.223 3.945 C-0.479 3.303 -0.736 2.661 -1 2 C-0.67 1.34 -0.34 0.68 0 0 Z " fill="#000000" transform="translate(231,65)"/>
<path d="M0 0 C6.087 -0.025 12.174 -0.043 18.262 -0.055 C20.334 -0.06 22.406 -0.067 24.478 -0.075 C27.451 -0.088 30.425 -0.093 33.398 -0.098 C34.329 -0.103 35.259 -0.108 36.217 -0.113 C37.078 -0.113 37.939 -0.113 38.826 -0.114 C39.585 -0.116 40.345 -0.118 41.127 -0.12 C43 0 43 0 45 1 C45 16.84 45 32.68 45 49 C36.368 48.783 36.368 48.783 27.562 48.562 C25.765 48.519 23.967 48.476 22.115 48.432 C20.662 48.394 19.208 48.355 17.754 48.316 C17.023 48.3 16.291 48.283 15.538 48.266 C10.312 48.122 5.19 47.631 0 47 C-0.95 44.15 -1.097 42.558 -1.022 39.62 C-1.002 38.74 -0.982 37.859 -0.961 36.952 C-0.934 36.005 -0.907 35.058 -0.879 34.082 C-0.855 33.11 -0.832 32.137 -0.807 31.135 C-0.731 28.028 -0.647 24.92 -0.562 21.812 C-0.509 19.706 -0.457 17.6 -0.404 15.494 C-0.275 10.329 -0.139 5.165 0 0 Z M33 3 C34.553 6.106 36.002 8.516 38.062 11.25 C38.59 11.956 39.117 12.663 39.66 13.391 C40.323 14.187 40.323 14.187 41 15 C41.33 15 41.66 15 42 15 C42.33 11.7 42.66 8.4 43 5 C39.7 4.34 36.4 3.68 33 3 Z M3 3 C2.687 7.415 2.432 11.831 2.188 16.25 C2.098 17.504 2.008 18.759 1.916 20.051 C1.855 21.256 1.794 22.461 1.73 23.703 C1.662 24.813 1.594 25.924 1.524 27.067 C1.727 30.204 1.727 30.204 4.406 32.262 C5.262 32.836 6.118 33.409 7 34 C8.155 35.371 9.282 36.767 10.375 38.188 C12.757 41.009 14.228 42.498 17.938 43 C18.948 43 19.959 43 21 43 C21 42.34 21 41.68 21 41 C21.99 41.66 22.98 42.32 24 43 C26.625 43.167 26.625 43.167 29 43 C28.59 42.529 28.18 42.059 27.758 41.574 C27.219 40.952 26.68 40.329 26.125 39.688 C25.591 39.073 25.058 38.458 24.508 37.824 C23 36 23 36 21 33 C21.666 33.71 22.333 34.421 23.02 35.152 C28.673 40.79 32.641 44.109 40.98 44.133 C41.647 44.089 42.313 44.045 43 44 C43.054 42.542 43.093 41.084 43.125 39.625 C43.148 38.813 43.171 38.001 43.195 37.164 C43.214 34.787 43.214 34.787 41 33 C41.66 33 42.32 33 43 33 C42.928 32.443 42.856 31.886 42.781 31.312 C42.688 30.549 42.596 29.786 42.5 29 C42.347 27.764 42.347 27.764 42.191 26.504 C42.015 24.2 42.179 22.222 42.438 19.938 C41.863 14.771 39.8 13.194 36.027 9.832 C34 8 34 8 31.812 5 C30.142 2.727 30.142 2.727 27.312 2.625 C25.043 2.762 25.043 2.762 24 4 C21.647 4.073 19.292 4.084 16.938 4.062 C15.647 4.053 14.357 4.044 13.027 4.035 C12.028 4.024 11.029 4.012 10 4 C10 4.66 10 5.32 10 6 C9.67 5.34 9.34 4.68 9 4 C5.971 3.342 5.971 3.342 3 3 Z M2 32 C1.67 35.3 1.34 38.6 1 42 C4.63 42.33 8.26 42.66 12 43 C12.233 40.686 12.233 40.686 9.688 38.625 C8.801 37.759 7.914 36.892 7 36 C6.443 35.237 5.886 34.474 5.312 33.688 C4.879 33.131 4.446 32.574 4 32 C3.34 32 2.68 32 2 32 Z " fill="#000000" transform="translate(243,76)"/>
<path d="M0 0 C4.88 3.942 9.058 8.12 13 13 C12.34 13.66 11.68 14.32 11 15 C9.161 12.88 7.328 10.754 5.5 8.625 C4.713 7.72 4.713 7.72 3.91 6.797 C0 2.227 0 2.227 0 0 Z " fill="#000000" transform="translate(268,81)"/>
<path d="M0 0 C0.66 0 1.32 0 2 0 C3.516 1.723 3.516 1.723 5.25 4.062 C8.36 8.184 11.606 12.11 15 16 C14.67 16.66 14.34 17.32 14 18 C8.462 12.917 4.01 7.363 0 1 C0 0.67 0 0.34 0 0 Z " fill="#000000" transform="translate(260,85)"/>
<path d="M0 0 C0.66 0.66 1.32 1.32 2 2 C1.625 4.625 1.625 4.625 1 7 C-1.725 7.868 -4.454 8.72 -7.188 9.562 C-7.956 9.809 -8.725 10.056 -9.518 10.311 C-13.687 11.581 -16.709 12.436 -21 11 C-20.812 8.688 -20.812 8.688 -20 6 C-14.954 1.768 -6.542 -0.586 0 0 Z " fill="#000000" transform="translate(324,87)"/>
<path d="M0 0 C5.571 4.179 10.127 9.2 14 15 C14 15.99 14 16.98 14 18 C11.036 15.192 8.555 12.817 7 9 C6.34 9 5.68 9 5 9 C3.711 7.539 3.711 7.539 2.375 5.625 C1.929 4.999 1.483 4.372 1.023 3.727 C0 2 0 2 0 0 Z " fill="#000000" transform="translate(253,89)"/>
<path d="M0 0 C0 1.32 0 2.64 0 4 C-2.767 5.032 -5.538 6.051 -8.312 7.062 C-9.491 7.504 -9.491 7.504 -10.693 7.955 C-11.451 8.229 -12.208 8.503 -12.988 8.785 C-13.685 9.042 -14.381 9.298 -15.099 9.563 C-17 10 -17 10 -20 9 C-19.938 7.188 -19.938 7.188 -19 5 C-13.36 1.88 -6.479 0 0 0 Z " fill="#000000" transform="translate(224,103)"/>
<path d="M0 0 C4.136 3.381 7.813 6.666 11 11 C10.67 11.66 10.34 12.32 10 13 C8.327 11.214 6.662 9.421 5 7.625 C4.285 6.863 4.285 6.863 3.555 6.086 C0 2.227 0 2.227 0 0 Z " fill="#000000" transform="translate(272,106)"/>
<path d="M0 0 C0.99 0 1.98 0 3 0 C1.434 4.308 -0.683 8.062 -3 12 C-3.66 12 -4.32 12 -5 12 C-4.527 7.028 -3.149 3.89 0 0 Z " fill="#000000" transform="translate(240,128)"/>
<path d="M0 0 C0.66 0 1.32 0 2 0 C1.206 8.693 0.106 17.343 -1 26 C-1.99 26 -2.98 26 -4 26 C-4.382 17.225 -3.787 9.376 -1 1 C-0.67 0.67 -0.34 0.34 0 0 Z " fill="#000000" transform="translate(262,137)"/>
<path d="M0 0 C4.1 0.485 5.349 2.875 7.848 5.95 C10.632 9.692 13.114 13.576 15.539 17.558 C16.592 19.251 17.645 20.944 18.699 22.636 C19.201 23.445 19.703 24.254 20.219 25.087 C25.999 34.371 32.37 43.167 38.943 51.899 C39.53 52.685 40.118 53.471 40.723 54.28 C41.253 54.984 41.784 55.688 42.33 56.413 C43.602 58.308 43.602 58.308 44.602 61.308 C43.612 61.308 42.622 61.308 41.602 61.308 C39.797 59.28 39.797 59.28 37.727 56.37 C36.921 55.25 36.114 54.132 35.305 53.015 C34.87 52.411 34.435 51.807 33.987 51.185 C32.58 49.278 31.126 47.421 29.649 45.569 C22.22 36.207 15.745 26.458 9.539 16.242 C8.938 15.256 8.338 14.269 7.719 13.253 C7.189 12.371 6.659 11.49 6.113 10.582 C3.866 7.201 2.493 5.605 -1.398 4.308 C-1.238 12.458 2.594 18.405 6.602 25.308 C7.292 26.517 7.981 27.727 8.668 28.938 C10.023 31.32 11.384 33.698 12.75 36.073 C14.309 38.796 15.842 41.53 17.352 44.28 C21.022 50.959 24.803 57.345 29.485 63.39 C29.853 64.023 30.222 64.656 30.602 65.308 C30.107 66.793 30.107 66.793 29.602 68.308 C23.082 61.597 18.276 54.37 13.602 46.308 C13.024 45.318 12.446 44.328 11.85 43.309 C9.845 39.874 7.847 36.436 5.852 32.995 C5.201 31.874 4.551 30.752 3.881 29.597 C-6.289 11.945 -6.289 11.945 -5.398 4.308 C-3.951 1.262 -3.367 0.432 0 0 Z " fill="#000000" transform="translate(107.398193359375,146.6923828125)"/>
<path d="M0 0 C4.439 3.635 6.162 8.236 8.371 13.375 C8.977 14.755 8.977 14.755 9.596 16.164 C10.885 19.105 12.161 22.053 13.438 25 C14.291 26.952 15.146 28.904 16.002 30.855 C18.008 35.437 19.995 40.026 21.972 44.62 C22.889 46.743 23.816 48.863 24.747 50.98 C25.213 52.059 25.68 53.138 26.16 54.25 C26.55 55.142 26.939 56.034 27.34 56.953 C28 59 28 59 27 61 C22.356 53.612 18.427 46.005 14.688 38.125 C14.128 36.951 13.568 35.776 12.992 34.566 C11.321 31.047 9.66 27.524 8 24 C7.263 22.449 7.263 22.449 6.511 20.867 C5.202 18.105 3.91 15.336 2.625 12.562 C2.238 11.747 1.851 10.932 1.452 10.092 C1.109 9.341 0.767 8.59 0.414 7.816 C-0.035 6.849 -0.035 6.849 -0.494 5.862 C-1.113 3.583 -0.739 2.212 0 0 Z " fill="#000000" transform="translate(140,147)"/>
<path d="M0 0 C2.884 1.293 4.872 2.659 7 5 C5.707 7.884 4.341 9.872 2 12 C-0.884 10.707 -2.872 9.341 -5 7 C-3.707 4.116 -2.341 2.128 0 0 Z " fill="#000000" transform="translate(554,153)"/>
<path d="M0 0 C1.354 0.006 1.354 0.006 2.735 0.013 C9.037 0.116 15.205 0.627 21.438 1.562 C22.195 1.672 22.952 1.781 23.732 1.893 C30 2.957 35.759 5.012 40.375 9.5 C54.967 32.952 51.521 67.754 51.125 94.312 C59.048 93.341 66.813 92.023 74.609 90.332 C75.442 90.154 76.275 89.976 77.133 89.792 C80.574 89.056 84.014 88.319 87.446 87.545 C99.728 84.791 110.619 83.839 123.125 85.312 C123.943 85.405 124.761 85.498 125.604 85.594 C130.876 86.208 136.131 86.915 141.384 87.677 C144.055 88.061 146.729 88.426 149.404 88.789 C158.261 90.03 166.936 91.586 175.594 93.848 C176.372 94.051 177.15 94.254 177.952 94.463 C189.834 97.722 199.553 104.917 206.086 115.484 C210.125 123.259 210.125 123.259 210.125 128.312 C215.965 125.26 221.042 121.451 226.258 117.434 C228.809 115.546 231.375 113.889 234.125 112.312 C234.754 112.953 235.383 113.594 236.031 114.254 C240.082 118.347 244.117 122.387 248.5 126.125 C252.929 129.946 256.643 133.207 257.125 139.312 C255.892 141.28 255.892 141.28 253.966 143.185 C253.251 143.905 252.537 144.626 251.801 145.368 C251.014 146.129 250.228 146.891 249.418 147.676 C248.622 148.468 247.827 149.26 247.007 150.076 C245.321 151.748 243.629 153.412 241.929 155.071 C239.319 157.618 236.731 160.187 234.146 162.76 C232.509 164.379 230.87 165.997 229.23 167.613 C228.45 168.385 227.67 169.157 226.866 169.952 C226.142 170.657 225.418 171.361 224.673 172.087 C224.034 172.712 223.396 173.336 222.739 173.979 C221.125 175.312 221.125 175.312 219.125 175.312 C219.356 176.504 219.586 177.695 219.824 178.922 C220.728 183.609 221.617 188.3 222.5 192.991 C222.928 195.266 223.358 197.54 223.789 199.813 C232.139 244.049 232.139 244.049 222.848 259.824 C219.993 263.948 216.676 268.037 212.125 270.312 C213.365 280.652 214.769 290.954 216.343 301.248 C216.703 303.6 217.059 305.952 217.416 308.304 C218.171 313.286 218.929 318.268 219.688 323.25 C220.572 329.057 221.454 334.865 222.334 340.672 C222.683 342.973 223.034 345.273 223.386 347.573 C228.366 380.316 228.366 380.316 220.062 392.125 C214.321 399.912 203.054 402.555 194.246 405.324 C193.106 405.69 191.966 406.055 190.791 406.432 C187.696 407.423 184.599 408.406 181.5 409.386 C178.213 410.428 174.928 411.479 171.644 412.528 C164.139 414.924 156.629 417.305 149.118 419.682 C147.173 420.297 145.227 420.913 143.282 421.53 C132.427 424.967 121.571 428.399 110.711 431.819 C96.918 436.162 83.136 440.541 69.366 444.956 C52.089 450.495 34.778 455.914 17.438 461.25 C-3.908 467.819 -25.217 474.498 -46.511 481.233 C-48.938 482 -51.365 482.768 -53.792 483.535 C-61.926 486.106 -70.06 488.678 -78.193 491.25 C-78.996 491.504 -79.799 491.758 -80.627 492.02 C-84.629 493.286 -88.632 494.552 -92.635 495.818 C-156.055 515.878 -156.055 515.878 -185.438 524.625 C-186.423 524.919 -187.409 525.213 -188.424 525.515 C-191.137 526.322 -193.851 527.125 -196.566 527.926 C-197.346 528.157 -198.126 528.388 -198.929 528.626 C-216.147 533.668 -226.042 529.004 -241.562 520.875 C-242.435 520.42 -242.435 520.42 -243.326 519.956 C-256.828 512.918 -270.054 505.408 -283.238 497.793 C-283.884 497.421 -284.53 497.049 -285.196 496.666 C-286.844 495.715 -288.489 494.758 -290.133 493.801 C-295.835 490.685 -295.835 490.685 -302.125 490.875 C-308.46 491.762 -313.288 489.775 -318.75 486.688 C-325.206 479.472 -324.938 467.906 -325.812 458.688 C-325.935 457.441 -325.935 457.441 -326.06 456.17 C-329.482 421.356 -331.694 386.427 -333.562 351.5 C-333.623 350.366 -333.684 349.231 -333.747 348.062 C-334.149 340.48 -334.519 332.897 -334.875 325.312 C-334.924 324.298 -334.974 323.284 -335.025 322.24 C-335.9 304.019 -336.063 285.816 -336.06 267.578 C-336.06 264.387 -336.067 261.195 -336.081 258.004 C-336.299 205.614 -336.299 205.614 -327.156 195.391 C-322.088 191.195 -316.074 189.254 -309.875 187.312 C-308.454 186.861 -307.034 186.409 -305.613 185.957 C-301.708 184.718 -297.792 183.515 -293.875 182.312 C-294.24 181.354 -294.605 180.396 -294.981 179.408 C-298.752 169.456 -302.313 159.446 -305.75 149.375 C-306.007 148.625 -306.264 147.874 -306.529 147.101 C-310.615 135.158 -314.557 123.176 -318.352 111.137 C-318.623 110.29 -318.894 109.444 -319.173 108.572 C-319.756 106.694 -320.274 104.796 -320.773 102.895 C-322.857 98.01 -327.475 95.873 -331.875 93.25 C-341.896 86.928 -350.432 78.943 -358.705 70.517 C-361.954 67.209 -365.289 64.093 -368.816 61.086 C-372.342 58.048 -375.754 54.884 -379.18 51.734 C-381.564 49.592 -384.011 47.579 -386.5 45.562 C-389.207 43.227 -389.82 42.489 -390.938 38.938 C-390.875 36.312 -390.875 36.312 -389.875 35.312 C-378.759 34.32 -370.808 40.382 -361.875 46.312 C-360.354 47.306 -358.834 48.3 -357.312 49.293 C-355.687 50.361 -354.062 51.43 -352.438 52.5 C-351.656 53.011 -350.874 53.522 -350.069 54.049 C-346.313 56.54 -342.903 58.929 -339.875 62.312 C-340.865 62.808 -340.865 62.808 -341.875 63.312 C-344.521 61.784 -347.029 60.2 -349.562 58.5 C-350.323 58.001 -351.084 57.502 -351.868 56.988 C-355.566 54.555 -359.227 52.079 -362.844 49.527 C-370.901 43.888 -378.396 40.088 -387.875 37.312 C-384.875 45.753 -377.485 50.53 -370.699 55.992 C-368.017 58.196 -365.439 60.473 -362.875 62.812 C-358.544 66.759 -354.058 70.468 -349.496 74.145 C-347.199 76.045 -345.041 78.017 -342.875 80.062 C-336.089 86.212 -328.195 91.068 -320.59 96.133 C-318.875 97.312 -318.875 97.312 -317.875 98.312 C-311.263 98.257 -304.969 96.701 -298.637 94.934 C-295.937 94.326 -293.628 94.267 -290.875 94.312 C-291.006 93.728 -291.136 93.143 -291.271 92.541 C-295.366 73.905 -297.824 55.256 -299.875 36.312 C-299.995 35.217 -300.115 34.122 -300.239 32.993 C-300.542 30.204 -300.837 27.415 -301.125 24.625 C-301.205 23.849 -301.285 23.072 -301.368 22.272 C-301.758 18.27 -301.951 14.333 -301.875 10.312 C-300.885 10.312 -299.895 10.312 -298.875 10.312 C-296.371 25.2 -294.498 40.132 -292.75 55.125 C-292.354 58.502 -291.956 61.879 -291.557 65.256 C-291.312 67.336 -291.068 69.416 -290.826 71.497 C-290.282 76.127 -289.666 80.717 -288.875 85.312 C-288.763 87.991 -288.829 90.63 -288.875 93.312 C-287.555 93.312 -286.235 93.312 -284.875 93.312 C-278.129 112.985 -271.392 132.66 -264.793 152.382 C-264.265 153.96 -263.736 155.537 -263.205 157.113 C-262.47 159.302 -261.738 161.493 -261.008 163.684 C-260.387 165.539 -260.387 165.539 -259.754 167.431 C-258.875 170.312 -258.875 170.312 -258.875 172.312 C-258.149 172.114 -257.423 171.916 -256.676 171.712 C-249.82 169.84 -242.965 167.971 -236.108 166.106 C-232.583 165.147 -229.059 164.187 -225.535 163.224 C-222.132 162.294 -218.728 161.367 -215.323 160.442 C-213.398 159.919 -211.474 159.392 -209.55 158.865 C-208.369 158.545 -207.189 158.225 -205.972 157.895 C-204.937 157.613 -203.903 157.331 -202.836 157.04 C-199.862 156.309 -196.901 155.776 -193.875 155.312 C-193.776 154.694 -193.676 154.075 -193.574 153.438 C-192.875 151.312 -192.875 151.312 -189.688 149.312 C-180.965 145.352 -172.403 143.197 -162.875 143.312 C-163.861 138.479 -164.849 133.646 -165.838 128.813 C-166.196 127.064 -166.553 125.315 -166.91 123.566 C-168.952 113.559 -171.024 103.56 -173.188 93.578 C-173.558 91.858 -173.929 90.138 -174.299 88.418 C-174.831 85.947 -175.366 83.477 -175.912 81.009 C-180.76 59.076 -180.76 59.076 -176.172 51.156 C-168.169 39.779 -151.021 37.669 -138.348 34.266 C-136.974 33.893 -135.6 33.521 -134.226 33.148 C-130.557 32.153 -126.888 31.164 -123.217 30.176 C-120.146 29.349 -117.075 28.519 -114.004 27.689 C-92.399 21.849 -70.781 16.061 -49.153 10.306 C-47.073 9.753 -44.992 9.199 -42.912 8.644 C-39.04 7.613 -35.166 6.586 -31.293 5.559 C-30.162 5.257 -29.03 4.956 -27.865 4.646 C-18.461 2.159 -9.761 -0.063 0 0 Z M-127.875 37.312 C-137.705 44.053 -144.681 51.538 -147.625 63.312 C-148.242 70.714 -147.727 77.795 -146.625 85.125 C-146.494 86.019 -146.364 86.913 -146.229 87.835 C-144.788 97.395 -142.876 106.856 -140.875 116.312 C-140.545 116.312 -140.215 116.312 -139.875 116.312 C-139.704 109.377 -140.388 102.856 -141.375 96 C-145.989 61.335 -145.989 61.335 -136.625 48.562 C-133.38 44.667 -129.836 41.465 -125.875 38.312 C-126.535 37.983 -127.195 37.653 -127.875 37.312 Z M-65.875 41.312 C-66.205 41.972 -66.535 42.632 -66.875 43.312 C-65.885 44.632 -64.895 45.952 -63.875 47.312 C-63.215 46.983 -62.555 46.653 -61.875 46.312 C-62.844 44.628 -63.845 42.961 -64.875 41.312 C-65.205 41.312 -65.535 41.312 -65.875 41.312 Z M-58.875 41.312 C-58.084 43.312 -58.084 43.312 -56.875 45.312 C-55.885 45.642 -54.895 45.972 -53.875 46.312 C-54.535 44.662 -55.195 43.012 -55.875 41.312 C-56.865 41.312 -57.855 41.312 -58.875 41.312 Z M27.125 41.312 C26.702 50.329 28.324 58.664 30.125 67.438 C30.415 68.885 30.704 70.333 30.992 71.781 C31.693 75.294 32.406 78.804 33.125 82.312 C33.455 82.312 33.785 82.312 34.125 82.312 C34.302 75.35 33.835 68.697 32.812 61.812 C32.636 60.503 32.636 60.503 32.455 59.168 C31.566 53.013 30.064 47.219 28.125 41.312 C27.795 41.312 27.465 41.312 27.125 41.312 Z M-28.754 50.875 C-29.907 51.142 -31.06 51.409 -32.248 51.684 C-35.98 52.552 -39.709 53.431 -43.438 54.312 C-45.992 54.911 -48.547 55.51 -51.102 56.109 C-64.333 59.223 -77.55 62.384 -90.688 65.875 C-91.808 66.172 -92.928 66.469 -94.082 66.775 C-100.021 68.397 -105.771 70.292 -111.513 72.516 C-113.875 73.312 -113.875 73.312 -117.812 73.75 C-121.002 74.073 -121.002 74.073 -123.312 76.375 C-126.984 83.278 -124.185 91.401 -122.469 98.594 C-122.225 99.648 -121.98 100.702 -121.729 101.788 C-120.952 105.131 -120.164 108.472 -119.375 111.812 C-118.844 114.088 -118.314 116.364 -117.785 118.641 C-116.491 124.2 -115.187 129.757 -113.875 135.312 C-106.31 134.664 -99.21 132.637 -91.918 130.602 C-90.566 130.229 -89.214 129.856 -87.861 129.484 C-84.315 128.507 -80.77 127.523 -77.226 126.538 C-73.649 125.545 -70.069 124.558 -66.49 123.57 C-60.06 121.796 -53.631 120.019 -47.206 118.226 C-45 117.621 -42.789 117.035 -40.573 116.469 C-39.572 116.212 -38.572 115.954 -37.54 115.689 C-36.66 115.47 -35.781 115.25 -34.874 115.024 C-32.682 114.504 -32.682 114.504 -31.875 112.312 C-33.36 111.322 -33.36 111.322 -34.875 110.312 C-34.637 108.469 -34.637 108.469 -33.875 106.312 C-24.795 99.507 -11.912 97.319 -0.875 96.312 C-1.122 85.721 -1.97 75.39 -3.75 64.938 C-3.911 63.958 -4.073 62.978 -4.239 61.969 C-5.166 56.799 -6.011 52.176 -9.875 48.312 C-16.42 47.796 -22.413 49.374 -28.754 50.875 Z M95.746 88.773 C95.101 88.924 94.455 89.075 93.79 89.23 C92.417 89.551 91.044 89.872 89.672 90.193 C87.596 90.68 85.52 91.164 83.443 91.648 C76.992 93.156 70.545 94.676 64.125 96.312 C66.47 98.956 68.809 100.271 72 101.75 C79.344 105.353 79.344 105.353 82.125 108.312 C82.938 111.563 82.938 111.563 83.125 114.312 C79.22 117.841 75.296 119.589 70.359 121.188 C69.608 121.439 68.856 121.69 68.082 121.949 C66.49 122.478 64.896 123.002 63.301 123.521 C60.92 124.298 58.546 125.093 56.172 125.891 C48.457 128.454 40.724 130.789 32.816 132.684 C31.782 132.934 31.782 132.934 30.727 133.19 C14.481 136.91 0.671 127.839 -13.139 120.246 C-14.138 119.724 -15.138 119.202 -16.168 118.664 C-17.05 118.188 -17.932 117.712 -18.841 117.221 C-27.048 114.763 -36.19 118.565 -44.133 120.77 C-45.394 121.114 -46.655 121.458 -47.955 121.813 C-51.294 122.724 -54.632 123.644 -57.969 124.565 C-61.319 125.489 -64.671 126.405 -68.023 127.322 C-73.1 128.712 -78.176 130.104 -83.251 131.499 C-90.449 133.474 -97.656 135.413 -104.875 137.312 C-101.831 139.342 -99.195 140.307 -95.75 141.5 C-88.473 144.27 -81.352 147.733 -77.625 154.938 C-76.875 158.312 -76.875 158.312 -77.562 160.938 C-85.604 169.196 -99.573 171.672 -110.25 175.062 C-112.098 175.657 -113.946 176.252 -115.793 176.848 C-119.163 177.931 -122.534 179.013 -125.908 180.085 C-126.579 180.299 -127.251 180.512 -127.943 180.732 C-144.366 185.663 -158.614 179.883 -173.046 172.249 C-178.509 169.251 -183.264 166.03 -187.867 161.809 C-190.398 159.923 -191.706 159.603 -194.875 159.312 C-197.97 159.812 -200.955 160.654 -203.973 161.496 C-204.891 161.743 -205.81 161.99 -206.756 162.244 C-209.819 163.069 -212.878 163.91 -215.938 164.75 C-218.087 165.332 -220.236 165.912 -222.386 166.491 C-227.034 167.745 -231.681 169.004 -236.327 170.267 C-247.729 173.362 -259.146 176.403 -270.563 179.446 C-274.586 180.518 -278.608 181.593 -282.63 182.67 C-285.747 183.505 -288.866 184.338 -291.984 185.172 C-293.116 185.475 -294.247 185.779 -295.412 186.092 C-296.457 186.371 -297.501 186.649 -298.577 186.937 C-299.484 187.179 -300.391 187.422 -301.326 187.672 C-303.83 188.301 -306.339 188.828 -308.875 189.312 C-308.545 189.972 -308.215 190.632 -307.875 191.312 C-305.427 191.921 -303.044 192.405 -300.562 192.828 C-299.81 192.964 -299.057 193.1 -298.282 193.241 C-296.66 193.534 -295.037 193.825 -293.413 194.112 C-289.166 194.866 -284.924 195.657 -280.684 196.449 C-279.839 196.607 -278.995 196.765 -278.125 196.927 C-233.251 205.373 -233.251 205.373 -223.875 217.312 C-219.398 224.269 -217.444 231.458 -215.996 239.488 C-215.829 240.391 -215.662 241.293 -215.489 242.222 C-213.664 252.213 -212.05 262.24 -210.424 272.265 C-206.938 293.759 -203.313 315.216 -199 336.562 C-198.729 337.933 -198.729 337.933 -198.452 339.332 C-197.942 341.896 -197.416 344.456 -196.883 347.016 C-196.666 348.112 -196.666 348.112 -196.445 349.23 C-194.608 357.784 -191.228 364.38 -183.875 369.312 C-174.729 374.305 -165.407 373.96 -155.527 371.816 C-154.311 371.555 -154.311 371.555 -153.07 371.288 C-141.33 368.644 -129.901 364.878 -118.438 361.25 C-115.921 360.461 -113.405 359.672 -110.889 358.885 C-103.569 356.591 -96.254 354.28 -88.94 351.966 C-86.157 351.085 -83.373 350.206 -80.59 349.326 C-69.106 345.698 -57.624 342.068 -46.147 338.42 C-44.929 338.033 -43.71 337.646 -42.455 337.247 C-40.195 336.529 -37.935 335.809 -35.675 335.09 C-29.425 333.103 -23.162 331.174 -16.875 329.312 C-15.871 324.94 -16.208 321.759 -16.875 317.312 C-17.369 311.12 -16.707 306.859 -13.875 301.312 C-14.035 301.893 -14.195 302.474 -14.36 303.072 C-17.263 315.703 -14.267 329.386 -11.431 341.73 C-10.851 344.426 -10.379 347.124 -9.93 349.844 C-9.695 351.201 -9.695 351.201 -9.456 352.586 C-9.16 354.314 -8.881 356.045 -8.622 357.779 C-7.885 361.875 -7.14 364.555 -3.984 367.391 C-0.934 369.682 -0.934 369.682 3 369.125 C4.547 368.723 4.547 368.723 6.125 368.312 C6.125 367.983 6.125 367.652 6.125 367.312 C4.867 367.127 3.609 366.941 2.312 366.75 C0.168 366.434 0.168 366.434 -1.875 365.312 C-5.386 359.288 -5.941 352.63 -6.875 345.812 C-7.941 338.407 -9.047 331.065 -10.625 323.75 C-11.717 318.475 -12.397 313.682 -11.875 308.312 C-11.817 307.435 -11.759 306.557 -11.699 305.652 C-11.592 304.756 -11.485 303.861 -11.375 302.938 C-11.282 302.125 -11.189 301.313 -11.094 300.477 C-8.192 295.324 2.703 293.835 8.215 292.176 C9.159 291.891 10.103 291.607 11.075 291.314 C13.061 290.718 15.047 290.124 17.033 289.532 C19.052 288.927 21.07 288.317 23.087 287.702 C26.022 286.806 28.961 285.927 31.902 285.051 C32.793 284.776 33.684 284.501 34.602 284.218 C41.178 282.289 47.338 281.346 54.062 283.062 C56.636 284.622 56.999 285.526 58.125 288.312 C58.725 290.899 59.267 293.456 59.75 296.062 C59.884 296.76 60.018 297.457 60.156 298.176 C60.484 299.887 60.805 301.6 61.125 303.312 C65.701 302.735 69.994 301.893 74.416 300.585 C75.627 300.23 76.838 299.874 78.085 299.507 C79.401 299.116 80.716 298.724 82.031 298.332 C83.418 297.923 84.805 297.514 86.192 297.105 C89.904 296.011 93.613 294.91 97.322 293.808 C101.174 292.665 105.027 291.527 108.88 290.388 C115.811 288.339 122.74 286.284 129.669 284.228 C135.482 282.502 141.297 280.783 147.112 279.066 C151.355 277.813 155.597 276.557 159.839 275.3 C161.746 274.735 163.653 274.171 165.56 273.608 C171.425 271.874 177.281 270.114 183.125 268.312 C183.957 268.057 184.788 267.802 185.645 267.539 C188.112 266.774 190.572 265.992 193.031 265.203 C193.762 264.977 194.494 264.751 195.247 264.518 C203.239 261.904 209.209 257.104 213.218 249.663 C215.243 245.514 215.72 241.751 215.585 237.167 C215.572 236.396 215.56 235.624 215.547 234.829 C215.244 224.97 213.486 215.323 211.766 205.633 C211.415 203.602 211.066 201.572 210.718 199.541 C209.991 195.319 209.254 191.099 208.509 186.88 C207.56 181.504 206.632 176.124 205.712 170.743 C204.995 166.561 204.269 162.382 203.539 158.203 C203.194 156.221 202.851 154.238 202.511 152.254 C198.039 126.013 198.039 126.013 181.125 106.312 C174.676 102.517 168.319 100.291 161.02 98.801 C159.608 98.496 159.608 98.496 158.167 98.186 C155.157 97.544 152.142 96.925 149.125 96.312 C148.124 96.108 147.122 95.904 146.09 95.693 C140.022 94.46 133.947 93.265 127.867 92.09 C124.741 91.486 121.615 90.877 118.49 90.268 C116.497 89.88 114.505 89.493 112.512 89.105 C111.58 88.924 110.648 88.743 109.687 88.556 C108.838 88.392 107.988 88.228 107.112 88.059 C105.989 87.842 105.989 87.842 104.844 87.621 C101.626 87.044 98.928 88.03 95.746 88.773 Z M-296.609 96.844 C-297.247 96.999 -297.885 97.154 -298.543 97.315 C-300.571 97.81 -302.598 98.311 -304.625 98.812 C-306.004 99.15 -307.383 99.487 -308.762 99.824 C-312.134 100.649 -315.505 101.479 -318.875 102.312 C-316.706 109.823 -314.234 117.202 -311.637 124.574 C-311.233 125.723 -310.83 126.872 -310.415 128.056 C-309.565 130.476 -308.713 132.895 -307.861 135.314 C-306.573 138.97 -305.291 142.629 -304.01 146.287 C-299.872 158.065 -295.698 169.795 -290.875 181.312 C-286.085 180.788 -281.676 180.125 -277.062 178.684 C-276.051 178.371 -275.039 178.058 -273.996 177.736 C-272.966 177.411 -271.936 177.085 -270.875 176.75 C-269.814 176.421 -268.753 176.091 -267.66 175.752 C-265.063 174.945 -262.468 174.132 -259.875 173.312 C-260.176 172.41 -260.476 171.508 -260.786 170.579 C-269.149 145.49 -277.512 120.401 -285.875 95.312 C-289.807 95.312 -292.806 95.91 -296.609 96.844 Z M49.125 97.312 C49.125 97.972 49.125 98.632 49.125 99.312 C36.069 104.665 24.05 105.233 10.125 103.312 C14.817 108.004 23.277 108.831 29.684 109.312 C36.584 109.312 43.392 107.176 49.125 103.312 C51.402 100.497 51.402 100.497 51.125 97.312 C50.465 97.312 49.805 97.312 49.125 97.312 Z M227.062 119.938 C222.4 124.309 217.552 127.95 212.125 131.312 C212.635 140.582 213.91 149.518 215.688 158.625 C215.921 159.854 216.155 161.083 216.396 162.35 C216.966 165.339 217.543 168.326 218.125 171.312 C221.569 169.692 223.732 167.887 226.375 165.125 C229.131 162.307 231.887 159.571 234.875 157 C238.632 153.76 242.33 150.462 246 147.125 C246.572 146.613 247.144 146.102 247.733 145.575 C250.505 143.042 252.784 140.868 254.125 137.312 C253.268 136.478 252.411 135.644 251.527 134.785 C245.712 129.077 240.126 123.496 235.395 116.824 C234.766 116.076 234.766 116.076 234.125 115.312 C230.847 115.312 229.371 117.736 227.062 119.938 Z M-113.875 143.312 C-115.001 144.472 -116.124 145.634 -117.234 146.809 C-119.912 149.263 -123 151.075 -126.082 152.98 C-126.674 153.42 -127.265 153.86 -127.875 154.312 C-127.875 154.972 -127.875 155.632 -127.875 156.312 C-122.265 155.611 -116.885 153.322 -112.875 149.312 C-111.577 147.089 -111.577 147.089 -111.875 143.312 C-112.535 143.312 -113.195 143.312 -113.875 143.312 Z M-122.875 166.312 C-123.927 168.89 -123.927 168.89 -123.875 171.312 C-122.741 170.694 -121.606 170.075 -120.438 169.438 C-116.047 167.222 -111.697 166.161 -106.875 165.312 C-108.783 162.981 -108.783 162.981 -112.062 163 C-116.546 163.368 -118.992 164.06 -122.875 166.312 Z M-310.5 204.375 C-312.265 206.421 -312.265 206.421 -311.562 210 C-311.336 211.093 -311.109 212.186 -310.875 213.312 C-309.885 213.643 -308.895 213.972 -307.875 214.312 C-307.875 210.683 -307.875 207.053 -307.875 203.312 C-309.059 203.221 -309.059 203.221 -310.5 204.375 Z M-317.875 212.312 C-318.856 215.256 -319.013 217.192 -319.036 220.262 C-319.046 221.287 -319.055 222.313 -319.065 223.369 C-319.069 224.496 -319.074 225.624 -319.078 226.785 C-319.085 227.976 -319.092 229.168 -319.099 230.395 C-319.117 234.388 -319.124 238.382 -319.125 242.375 C-319.125 243.067 -319.126 243.759 -319.126 244.471 C-319.15 315.367 -315.046 386.509 -308.188 457.062 C-308.034 458.658 -308.034 458.658 -307.877 460.286 C-307.59 463.228 -307.292 466.169 -306.988 469.109 C-306.905 469.95 -306.822 470.791 -306.736 471.658 C-306.225 476.414 -305.326 480.752 -303.875 485.312 C-303.215 485.312 -302.555 485.312 -301.875 485.312 C-302 484.15 -302.126 482.987 -302.255 481.789 C-310.821 401.533 -314.383 320.979 -316.875 212.312 C-317.205 212.312 -317.535 212.312 -317.875 212.312 Z M-245.875 216.312 C-247.532 217.971 -247.532 217.971 -249 220.125 C-249.518 220.833 -250.036 221.54 -250.57 222.27 C-253.12 226.262 -252.962 229.691 -252.875 234.312 C-252.215 234.312 -251.555 234.312 -250.875 234.312 C-249.537 231.69 -248.204 229.065 -246.875 226.438 C-246.493 225.691 -246.112 224.945 -245.719 224.176 C-245.358 223.46 -244.997 222.745 -244.625 222.008 C-244.29 221.348 -243.955 220.688 -243.609 220.008 C-242.743 218.315 -242.743 218.315 -242.875 216.312 C-243.865 216.312 -244.855 216.312 -245.875 216.312 Z M-311.875 219.312 C-313.134 221.831 -312.948 223.433 -312.868 226.249 C-312.841 227.3 -312.814 228.35 -312.785 229.432 C-312.749 230.595 -312.713 231.759 -312.676 232.957 C-312.641 234.186 -312.606 235.415 -312.571 236.682 C-312.471 240.105 -312.366 243.528 -312.257 246.95 C-312.187 249.137 -312.119 251.323 -312.051 253.509 C-310.369 307.149 -307.748 360.756 -304.312 414.312 C-304.262 415.102 -304.212 415.891 -304.16 416.704 C-303.514 426.845 -303.514 426.845 -302.804 436.983 C-302.697 438.435 -302.59 439.887 -302.484 441.34 C-302.431 442.06 -302.378 442.779 -302.324 443.521 C-301.982 448.333 -301.742 453.142 -301.551 457.963 C-301.408 461.381 -301.223 464.796 -301.033 468.212 C-300.952 469.844 -300.89 471.476 -300.847 473.11 C-300.715 478.066 -300.456 482.589 -298.875 487.312 C-295.55 490.454 -292.142 491.816 -287.875 493.312 C-286.096 494.216 -284.328 495.142 -282.578 496.102 C-280.761 497.048 -278.943 497.993 -277.125 498.938 C-276.147 499.447 -275.169 499.956 -274.162 500.481 C-270.016 502.64 -265.869 504.796 -261.722 506.952 C-258.647 508.55 -255.574 510.15 -252.5 511.75 C-251.568 512.234 -250.637 512.717 -249.677 513.215 C-248.786 513.679 -247.895 514.143 -246.977 514.621 C-246.125 515.064 -245.273 515.508 -244.396 515.964 C-241.101 517.726 -237.877 519.604 -234.666 521.512 C-234.075 521.776 -233.484 522.04 -232.875 522.312 C-232.215 521.983 -231.555 521.652 -230.875 521.312 C-231.006 520.658 -231.137 520.004 -231.271 519.329 C-234.539 502.898 -237.392 486.452 -239.812 469.875 C-239.981 468.73 -240.15 467.584 -240.323 466.404 C-246.076 427.193 -250.533 387.802 -253.875 348.312 C-253.936 347.611 -253.996 346.91 -254.059 346.188 C-255.606 328.235 -256.052 310.385 -256.062 292.375 C-256.064 291.4 -256.065 290.426 -256.066 289.421 C-256.064 277.35 -255.743 265.354 -254.875 253.312 C-265.352 247.385 -265.352 247.385 -275.898 241.582 C-288.37 234.82 -300.443 227.751 -311.875 219.312 Z M-232.875 233.312 C-233.515 235.622 -234.137 237.934 -234.75 240.25 C-234.924 240.871 -235.098 241.491 -235.277 242.131 C-239.346 257.729 -239.278 273.936 -239.25 289.938 C-239.25 291.054 -239.25 292.17 -239.249 293.32 C-239.2 320.094 -237.265 346.66 -234.875 373.312 C-234.697 375.342 -234.518 377.372 -234.34 379.402 C-232.057 405.066 -228.91 430.615 -225.55 456.156 C-225.351 457.668 -225.153 459.181 -224.955 460.693 C-224.388 465.021 -223.815 469.347 -223.232 473.673 C-222.972 475.614 -222.716 477.555 -222.459 479.496 C-220.685 498.696 -220.685 498.696 -211.375 514.688 C-202.514 520.447 -187.662 517.452 -177.926 515.473 C-167.107 513.08 -156.462 509.942 -145.819 506.873 C-143.943 506.332 -142.067 505.794 -140.19 505.255 C-130.065 502.342 -119.967 499.337 -109.875 496.312 C-108.891 496.018 -107.906 495.723 -106.892 495.42 C-72.56 485.142 -38.417 474.359 -4.342 463.265 C-2.091 462.532 0.159 461.799 2.41 461.066 C3.151 460.825 3.892 460.584 4.656 460.335 C20.687 455.117 36.743 449.975 52.812 444.875 C53.463 444.668 54.114 444.462 54.784 444.249 C74.126 438.109 93.504 432.092 112.911 426.159 C131.992 420.322 151.003 414.279 169.995 408.157 C171.031 407.824 172.066 407.49 173.134 407.146 C175.167 406.49 177.198 405.83 179.229 405.168 C184.223 403.544 189.224 401.977 194.267 400.508 C195.258 400.213 196.25 399.917 197.272 399.612 C199.128 399.062 200.988 398.527 202.854 398.012 C210.032 395.856 215.579 392.132 219.781 385.828 C224.541 373.048 221.161 360.164 218.879 347.164 C218.544 345.219 218.21 343.274 217.877 341.328 C217.003 336.236 216.118 331.145 215.23 326.055 C214.328 320.87 213.437 315.683 212.545 310.496 C211.241 302.924 209.933 295.353 208.615 287.784 C208.479 286.996 208.342 286.208 208.201 285.397 C207.555 281.692 206.885 277.996 206.125 274.312 C199.081 275.748 192.364 277.753 185.539 280 C173.252 283.986 160.9 287.695 148.5 291.312 C146.336 291.947 144.172 292.581 142.008 293.215 C130.545 296.574 119.075 299.91 107.604 303.24 C105.676 303.8 103.747 304.36 101.819 304.92 C95.637 306.716 89.454 308.509 83.269 310.297 C81.032 310.945 78.795 311.594 76.559 312.242 C75.012 312.688 75.012 312.688 73.435 313.143 C72.027 313.551 72.027 313.551 70.592 313.968 C69.773 314.205 68.954 314.442 68.11 314.686 C66.08 315.27 66.08 315.27 64.125 316.312 C64.613 328.804 66.969 341.024 69.125 353.312 C68.587 353.401 68.049 353.49 67.495 353.582 C59.217 355.083 51.286 357.595 43.273 360.102 C41.763 360.57 40.253 361.038 38.743 361.505 C34.799 362.727 30.857 363.955 26.916 365.185 C22.881 366.442 18.845 367.693 14.809 368.945 C6.912 371.395 -0.982 373.852 -8.875 376.312 C-8.939 375.512 -9.004 374.712 -9.07 373.888 C-9.156 372.825 -9.243 371.763 -9.332 370.668 C-9.417 369.621 -9.502 368.573 -9.589 367.494 C-10.019 362.703 -10.642 357.949 -11.312 353.188 C-11.434 352.257 -11.556 351.326 -11.682 350.367 C-11.806 349.48 -11.93 348.593 -12.059 347.68 C-12.167 346.887 -12.276 346.094 -12.388 345.277 C-12.75 343.093 -12.75 343.093 -14.875 341.312 C-15.447 341.494 -16.019 341.675 -16.608 341.861 C-32.887 347.015 -49.17 352.155 -65.456 357.288 C-70.482 358.873 -75.508 360.46 -80.534 362.047 C-86.994 364.088 -93.455 366.123 -99.918 368.154 C-103.367 369.237 -106.815 370.323 -110.261 371.413 C-170.751 390.547 -170.751 390.547 -189.875 381.312 C-201.291 374.528 -206.196 364.444 -209.403 351.841 C-209.852 349.87 -210.284 347.895 -210.703 345.918 C-210.948 344.79 -211.192 343.663 -211.444 342.501 C-215.26 324.337 -218.111 305.977 -221.124 287.668 C-222.453 279.599 -223.793 271.531 -225.136 263.464 C-225.599 260.675 -226.057 257.886 -226.515 255.096 C-226.799 253.385 -227.082 251.673 -227.366 249.962 C-227.49 249.201 -227.613 248.44 -227.741 247.656 C-228.551 242.8 -229.628 238.076 -230.875 233.312 C-231.535 233.312 -232.195 233.312 -232.875 233.312 Z M14.375 326.312 C10.302 331.743 9.577 335.541 9.668 342.32 C10.36 346.852 12.502 349.589 16.125 352.312 C22.125 354.312 29.786 354.615 35.719 352.301 C39.901 349.702 43.539 347.071 45.125 342.312 C45.923 335.896 45.344 331.312 41.559 326.004 C38.309 322.17 35.16 319.665 30.074 319.074 C22.974 318.841 19.064 320.942 14.375 326.312 Z " fill="#000000" transform="translate(472.875,166.6875)"/>
<path d="M0 0 C3.262 1.087 3.675 1.543 5.566 4.219 C6.047 4.896 6.528 5.573 7.023 6.27 C7.531 7.006 8.039 7.742 8.562 8.5 C9.09 9.255 9.618 10.009 10.162 10.786 C14.294 16.776 18.061 22.94 21.614 29.289 C24.052 33.604 26.719 37.279 30 41 C28.515 41.495 28.515 41.495 27 42 C21.313 37.16 18.113 31.972 14.639 25.49 C11.332 19.391 7.523 13.755 3.454 8.141 C0 3.304 0 3.304 0 0 Z " fill="#000000" transform="translate(94,174)"/>
<path d="M0 0 C0.66 0 1.32 0 2 0 C2.077 4.516 2.102 8.591 1 13 C0.34 13 -0.32 13 -1 13 C-0.67 8.71 -0.34 4.42 0 0 Z " fill="#000000" transform="translate(152,212)"/>
<path d="M0 0 C3.367 1.393 4.986 2.979 7 6 C3.535 8.97 3.535 8.97 0 12 C-1.65 10.35 -3.3 8.7 -5 7 C-3.707 4.116 -2.341 2.128 0 0 Z " fill="#000000" transform="translate(222,219)"/>
<path d="M0 0 C0.66 0 1.32 0 2 0 C1.503 5.661 0.455 9.877 -2 15 C-2.99 14.67 -3.98 14.34 -5 14 C-4.55 12.04 -4.09 10.082 -3.625 8.125 C-3.37 7.034 -3.115 5.944 -2.852 4.82 C-2 2 -2 2 0 0 Z " fill="#000000" transform="translate(161,222)"/>
<path d="M0 0 C3.08 1.459 4.709 2.445 6.312 5.5 C8.055 14.373 6.741 22.307 4.656 31.031 C3.892 33.981 3.892 33.981 4 37 C4.495 36.175 4.99 35.35 5.5 34.5 C9.848 27.993 16.023 22.86 21.922 17.797 C24.94 15.187 27.879 12.489 30.824 9.797 C33.121 7.9 35.354 6.37 38 5 C40.812 5.312 40.812 5.312 43 6 C44.137 10.047 43.863 12.231 42.188 16.062 C41.83 16.899 41.473 17.736 41.105 18.598 C40.112 20.756 39.08 22.884 38 25 C38.471 24.639 38.941 24.278 39.426 23.906 C40.048 23.442 40.671 22.978 41.312 22.5 C41.927 22.036 42.542 21.572 43.176 21.094 C45 20 45 20 48 20 C48.746 25.717 47.402 29.216 44.312 34.035 C38.535 41.443 30.721 51.092 22 55 C21.01 54.67 20.02 54.34 19 54 C20.318 50.086 21.87 47.812 24.875 45 C27.848 42.145 30.455 39.247 33 36 C34.667 34.333 36.333 32.667 38 31 C39.015 29.678 40.018 28.347 41 27 C38.895 28.644 36.791 30.29 34.688 31.938 C34.057 32.431 33.426 32.924 32.776 33.433 C27.806 37.335 22.937 41.34 18.109 45.418 C16 47 16 47 14 47 C15.394 43.805 17.009 41.853 19.562 39.5 C28.402 30.821 34.318 21.385 39 10 C33.439 12.721 29.739 16.117 25.465 20.566 C22.876 23.122 20.161 25.364 17.312 27.625 C13.514 30.665 10.256 33.702 7.215 37.492 C5.617 39.475 3.834 41.237 2 43 C0.26 41.26 0.828 38.927 0.812 36.562 C0.841 31.659 1.456 27.294 2.555 22.535 C3.343 18.047 3.155 13.54 3 9 C2.159 10.065 2.159 10.065 1.301 11.152 C-0.212 13.025 -1.756 14.872 -3.332 16.691 C-14.395 29.497 -21.833 42.783 -23 60 C-25.398 57.602 -25.321 56.978 -25.375 53.688 C-24.979 37.458 -15.514 23.466 -6 11 C-2.114 5.94 -2.114 5.94 0 0 Z " fill="#000000" transform="translate(733,219)"/>
<path d="M0 0 C1.675 0.286 3.344 0.618 5 1 C5 2.65 5 4.3 5 6 C3.344 6.382 1.675 6.714 0 7 C-1 6 -1 6 -1.125 3.5 C-1 1 -1 1 0 0 Z " fill="#000000" transform="translate(182,267)"/>
<path d="M0 0 C0.749 5.867 -0.661 9.008 -4.129 13.75 C-13.083 24.518 -29.575 36.664 -43.84 38.332 C-49.229 38.527 -53.468 38.22 -58 35 C-58.495 33.515 -58.495 33.515 -59 32 C-58.175 32.33 -57.35 32.66 -56.5 33 C-49.047 35.129 -43.933 34.12 -37.312 30.562 C-36.625 30.205 -35.937 29.847 -35.229 29.479 C-23.02 22.973 -10.704 15.351 -4 3 C-4.967 3.543 -5.934 4.085 -6.93 4.645 C-24.341 14.271 -24.341 14.271 -34 14 C-34 13.34 -34 12.68 -34 12 C-33.335 11.713 -32.669 11.426 -31.984 11.13 C-28.947 9.817 -25.911 8.502 -22.875 7.188 C-21.828 6.736 -20.782 6.284 -19.703 5.818 C-13.494 3.147 -13.494 3.147 -7.438 0.156 C-4.499 -1.238 -3.046 -0.986 0 0 Z " fill="#000000" transform="translate(789,268)"/>
<path d="M0 0 C2.858 2.48 4.199 5.136 5.75 8.562 C6.199 9.533 6.647 10.504 7.109 11.504 C7.403 12.328 7.697 13.151 8 14 C7.67 14.66 7.34 15.32 7 16 C5.826 13.9 4.66 11.795 3.5 9.688 C3.166 9.093 2.832 8.498 2.488 7.885 C0.932 5.042 0 3.293 0 0 Z " fill="#000000" transform="translate(738,269)"/>
<path d="M0 0 C0.972 3.065 0.993 4.976 0.135 8.062 C-0.078 8.85 -0.292 9.638 -0.513 10.449 C-0.752 11.291 -0.992 12.133 -1.238 13 C-1.479 13.873 -1.72 14.745 -1.968 15.645 C-2.479 17.488 -2.994 19.331 -3.514 21.172 C-4.309 23.987 -5.088 26.805 -5.865 29.625 C-6.364 31.417 -6.863 33.209 -7.363 35 C-7.597 35.842 -7.83 36.684 -8.071 37.551 C-8.294 38.338 -8.517 39.126 -8.747 39.938 C-8.941 40.627 -9.135 41.317 -9.335 42.027 C-10.045 44.135 -10.963 46.036 -12 48 C-12.66 47.67 -13.32 47.34 -14 47 C-12.921 37.151 -10.829 28.361 -7.562 19 C-7.167 17.826 -6.772 16.651 -6.365 15.441 C-4.538 10.084 -2.613 5.032 0 0 Z " fill="#000000" transform="translate(264,278)"/>
<path d="M0 0 C0.66 0.33 1.32 0.66 2 1 C0.778 2.589 -0.453 4.171 -1.688 5.75 C-2.714 7.073 -2.714 7.073 -3.762 8.422 C-6.009 11.01 -8.182 13.052 -11 15 C-11.99 15 -12.98 15 -14 15 C-14.33 14.01 -14.66 13.02 -15 12 C-10 8 -5 4 0 0 Z " fill="#000000" transform="translate(792,285)"/>
<path d="M0 0 C0.66 0.33 1.32 0.66 2 1 C2.233 6.215 1.549 10.151 -0.188 15.062 C-0.409 15.699 -0.631 16.336 -0.86 16.992 C-1.563 18.999 -2.28 21 -3 23 C-3.482 24.362 -3.964 25.724 -4.445 27.086 C-5.618 30.395 -6.805 33.699 -8 37 C-9.32 37 -10.64 37 -12 37 C-11.54 30.098 -9.429 24.753 -6.562 18.5 C-3.781 12.375 -1.409 6.592 0 0 Z " fill="#000000" transform="translate(252,289)"/>
<path d="M0 0 C1.65 0.33 3.3 0.66 5 1 C5.688 2.812 5.688 2.812 6 5 C4.875 6.812 4.875 6.812 3 8 C0.312 7.688 0.312 7.688 -2 7 C-2.33 6.01 -2.66 5.02 -3 4 C-1.562 1.812 -1.562 1.812 0 0 Z " fill="#000000" transform="translate(717,303)"/>
<path d="M0 0 C0.66 0.33 1.32 0.66 2 1 C-3.748 6.471 -9.7 11.702 -17 15 C-17.66 14.67 -18.32 14.34 -19 14 C-16.397 12.04 -13.792 10.083 -11.188 8.125 C-10.45 7.569 -9.712 7.014 -8.951 6.441 C-8.239 5.906 -7.527 5.371 -6.793 4.82 C-6.138 4.328 -5.484 3.836 -4.809 3.329 C-3.238 2.175 -1.622 1.081 0 0 Z " fill="#000000" transform="translate(636,325)"/>
<path d="M0 0 C0 3.779 -0.997 4.461 -3.5 7.188 C-4.475 8.261 -4.475 8.261 -5.469 9.355 C-5.974 9.898 -6.479 10.441 -7 11 C-7 7.221 -6.003 6.539 -3.5 3.812 C-2.85 3.097 -2.201 2.382 -1.531 1.645 C-1.026 1.102 -0.521 0.559 0 0 Z " fill="#000000" transform="translate(565,327)"/>
<path d="M0 0 C2.684 2.684 3.562 5.79 4.828 9.289 C5.235 10.393 5.235 10.393 5.651 11.52 C6.522 13.886 7.386 16.255 8.25 18.625 C9.098 20.935 9.947 23.244 10.796 25.553 C11.359 27.085 11.92 28.617 12.48 30.15 C13.881 33.981 15.3 37.803 16.76 41.612 C17.039 42.345 17.319 43.077 17.607 43.832 C18.137 45.217 18.671 46.6 19.21 47.982 C20.294 50.819 21 52.932 21 56 C15.681 58.696 10.345 61.356 5 64 C3.886 64.551 2.772 65.103 1.625 65.671 C-1.423 67.177 -4.476 68.672 -7.531 70.161 C-8.762 70.763 -9.992 71.367 -11.22 71.975 C-12.963 72.836 -14.712 73.686 -16.461 74.535 C-17.48 75.034 -18.499 75.533 -19.548 76.047 C-20.762 76.519 -20.762 76.519 -22 77 C-22.66 76.67 -23.32 76.34 -24 76 C12.556 55 12.556 55 19 55 C18.762 54.355 18.524 53.71 18.279 53.046 C15.807 46.349 13.343 39.649 10.882 32.948 C9.963 30.446 9.041 27.944 8.118 25.443 C6.793 21.853 5.474 18.261 4.156 14.668 C3.741 13.546 3.325 12.424 2.897 11.268 C2.516 10.227 2.136 9.186 1.744 8.114 C1.407 7.197 1.069 6.28 0.721 5.335 C0 3 0 3 0 0 Z " fill="#000000" transform="translate(644,332)"/>
<path d="M0 0 C3 1 3 1 4.331 3.17 C4.774 4.117 5.216 5.064 5.672 6.039 C6.169 7.088 6.665 8.137 7.177 9.218 C7.696 10.342 8.215 11.467 8.75 12.625 C9.281 13.758 9.813 14.891 10.36 16.059 C11.422 18.326 12.48 20.595 13.535 22.865 C14.791 25.554 16.073 28.226 17.379 30.891 C17.879 31.922 17.879 31.922 18.39 32.974 C19.253 34.752 20.12 36.529 20.988 38.305 C22 41 22 41 21 44 C13.866 30.879 7.435 17.641 1.765 3.822 C1.222 2.528 0.628 1.255 0 0 Z " fill="#000000" transform="translate(618,343)"/>
<path d="M0 0 C0.66 0.33 1.32 0.66 2 1 C1.408 1.568 0.817 2.137 0.207 2.723 C-4.403 7.228 -8.45 11.618 -12 17 C-12.66 16.67 -13.32 16.34 -14 16 C-9.845 10.083 -5.227 4.989 0 0 Z " fill="#000000" transform="translate(558,344)"/>
<path d="M0 0 C0.66 0.33 1.32 0.66 2 1 C-11.943 14.022 -11.943 14.022 -17.957 19.203 C-20.093 21.082 -22.181 23.008 -24.266 24.942 C-32.767 32.819 -41.639 40.16 -51 47 C-51.66 46.67 -52.32 46.34 -53 46 C-42.538 36.442 -42.538 36.442 -38.062 32.562 C-35.235 30.11 -32.473 27.597 -29.728 25.052 C-23.677 19.447 -17.432 14.166 -11 9 C-8.934 7.317 -6.874 5.627 -4.812 3.938 C-3.208 2.625 -1.604 1.312 0 0 Z " fill="#000000" transform="translate(616,344)"/>
<path d="M0 0 C2.475 0.99 2.475 0.99 5 2 C5 2.66 5 3.32 5 4 C4.258 4.268 3.515 4.536 2.75 4.812 C0.134 5.942 -1.802 7.209 -4 9 C-4.812 7.312 -4.812 7.312 -5 5 C-2.562 2.25 -2.562 2.25 0 0 Z " fill="#000000" transform="translate(632,347)"/>
<path d="M0 0 C1.98 0.66 3.96 1.32 6 2 C6 2.66 6 3.32 6 4 C3.03 3.505 3.03 3.505 0 3 C0 2.01 0 1.02 0 0 Z " fill="#000000" transform="translate(195,357)"/>
<path d="M0 0 C2.884 1.293 4.872 2.659 7 5 C5.707 7.884 4.341 9.872 2 12 C-0.884 10.707 -2.872 9.341 -5 7 C-3.707 4.116 -2.341 2.128 0 0 Z " fill="#000000" transform="translate(741,365)"/>
<path d="M0 0 C1.072 0.248 2.145 0.495 3.25 0.75 C3.58 3.06 3.91 5.37 4.25 7.75 C2.625 9.312 2.625 9.312 0.25 10.75 C-3 10.438 -3 10.438 -5.75 9.75 C-6.41 7.77 -7.07 5.79 -7.75 3.75 C-5.152 0.32 -4.431 -0.295 0 0 Z " fill="#000000" transform="translate(614.75,377.25)"/>
<path d="M0 0 C2.633 1.993 3.775 3.439 5 6.5 C5 9 5 9 3.312 11.188 C-1.61 15.046 -4.796 15.4 -11 15 C-13.393 12.607 -13.321 11.906 -13.375 8.625 C-13.305 5.291 -13.2 4.276 -11.188 1.5 C-7.206 -1.23 -4.572 -1.213 0 0 Z " fill="#000000" transform="translate(605,384)"/>
<path d="M0 0 C7.732 11.597 12.751 25.158 18 38 C21.55 38 21.738 37.605 24.188 35.25 C28.065 31.732 32.119 28.563 36.312 25.438 C36.987 24.934 37.662 24.431 38.358 23.913 C42.245 21.025 46.147 18.156 50.051 15.289 C50.895 14.668 51.74 14.048 52.61 13.408 C54.248 12.206 55.887 11.006 57.529 9.808 C61.812 6.669 65.963 3.45 70 0 C70.99 0.495 70.99 0.495 72 1 C67.597 5.665 62.943 9.779 57.891 13.727 C55.834 15.344 53.809 16.977 51.797 18.648 C41.044 27.518 29.595 35.278 18 43 C15.695 40.9 14.388 39.068 13.175 36.203 C12.69 35.072 12.69 35.072 12.195 33.918 C11.857 33.108 11.52 32.299 11.172 31.465 C10.642 30.213 10.642 30.213 10.101 28.936 C9.358 27.175 8.619 25.412 7.883 23.648 C6.751 20.94 5.603 18.238 4.453 15.537 C3.733 13.826 3.015 12.114 2.297 10.402 C1.951 9.591 1.605 8.779 1.249 7.943 C0.439 5.986 -0.289 3.995 -1 2 C-0.67 1.34 -0.34 0.68 0 0 Z " fill="#000000" transform="translate(562,391)"/>
<path d="M0 0 C0 3.19 -0.425 4.113 -1.969 6.793 C-2.375 7.505 -2.781 8.217 -3.199 8.951 C-3.628 9.689 -4.058 10.427 -4.5 11.188 C-5.144 12.312 -5.144 12.312 -5.801 13.459 C-6.861 15.309 -7.93 17.155 -9 19 C-9.33 19 -9.66 19 -10 19 C-9.606 12.834 -7.617 8.031 -4 3 C-1.832 1.234 -1.832 1.234 0 0 Z " fill="#000000" transform="translate(300,399)"/>
<path d="M0 0 C0.66 0.33 1.32 0.66 2 1 C-2.333 5.333 -6.667 9.667 -11 14 C-10.526 9.683 -7.966 7.664 -4.938 4.75 C-4.018 3.858 -3.099 2.966 -2.152 2.047 C-1.087 1.034 -1.087 1.034 0 0 Z " fill="#000000" transform="translate(509,404)"/>
<path d="M0 0 C0.875 2.562 0.875 2.562 1 6 C-0.276 7.973 -1.741 9.556 -3.363 11.254 C-5.603 13.644 -7.249 16.239 -9 19 C-10.32 18.34 -11.64 17.68 -13 17 C-13.453 12.405 -12.139 10.047 -9.625 6.25 C-8.999 5.286 -8.372 4.322 -7.727 3.328 C-5.146 -0.152 -4.469 0 0 0 Z " fill="#000000" transform="translate(324,416)"/>
<path d="M0 0 C0 3.68 -0.738 4.138 -3.188 6.75 C-6.45 10.331 -9.257 14.01 -12 18 C-12.66 17.67 -13.32 17.34 -14 17 C-10.026 10.497 -5.574 5.192 0 0 Z " fill="#000000" transform="translate(487,418)"/>
<path d="M0 0 C6.073 3.429 9.503 8.63 11.68 15.16 C12.606 22.313 11.949 27.532 7.516 33.34 C4.579 36.252 1.771 37.605 -2.32 38.16 C-5.117 38.089 -7.557 37.703 -10.32 37.16 C-10.32 36.83 -10.32 36.5 -10.32 36.16 C-9.645 36.085 -8.969 36.011 -8.273 35.934 C-3.776 35.271 -1.052 34.857 2.305 31.66 C4.543 25.962 4.752 21.127 2.656 15.328 C1.458 12.789 0.316 10.442 -1.32 8.16 C-2.31 7.83 -3.3 7.5 -4.32 7.16 C-3.702 7.861 -3.083 8.563 -2.445 9.285 C0.642 13.462 1.737 16.513 1.555 21.723 C0.595 25.494 -0.629 27.388 -3.32 30.16 C-6.536 31.768 -9.833 31.623 -13.32 31.16 C-17.511 28.925 -19.342 26.087 -20.812 21.574 C-22.042 15.731 -22.844 8.815 -19.57 3.535 C-14.386 -1.938 -6.993 -2.531 0 0 Z " fill="#000000" transform="translate(195.3203125,428.83984375)"/>
<path d="M0 0 C1.65 0 3.3 0 5 0 C5 0.99 5 1.98 5 3 C3.35 3 1.7 3 0 3 C0 2.01 0 1.02 0 0 Z " fill="#000000" transform="translate(636,432)"/>
<path d="M0 0 C1.65 0 3.3 0 5 0 C5.33 0.66 5.66 1.32 6 2 C3.69 2.33 1.38 2.66 -1 3 C-0.67 2.01 -0.34 1.02 0 0 Z " fill="#000000" transform="translate(622,437)"/>
<path d="M0 0 C1.32 0.66 2.64 1.32 4 2 C3.075 3.508 2.135 5.006 1.188 6.5 C0.665 7.335 0.143 8.171 -0.395 9.031 C-0.924 9.681 -1.454 10.331 -2 11 C-2.99 11 -3.98 11 -5 11 C-4.549 9.539 -4.089 8.082 -3.625 6.625 C-3.242 5.407 -3.242 5.407 -2.852 4.164 C-2 2 -2 2 0 0 Z " fill="#000000" transform="translate(307,438)"/>
<path d="M0 0 C0.99 0.33 1.98 0.66 3 1 C3.33 2.65 3.66 4.3 4 6 C3.01 6 2.02 6 1 6 C0.67 4.02 0.34 2.04 0 0 Z " fill="#000000" transform="translate(270,440)"/>
<path d="M0 0 C0.66 0.33 1.32 0.66 2 1 C2.625 4.062 2.625 4.062 3 7 C2.01 6.67 1.02 6.34 0 6 C-0.382 4.344 -0.714 2.675 -1 1 C-0.67 0.67 -0.34 0.34 0 0 Z " fill="#000000" transform="translate(277,469)"/>
<path d="M0 0 C0.66 0.33 1.32 0.66 2 1 C-0.97 3.97 -3.94 6.94 -7 10 C-7 7 -7 7 -5.469 5.176 C-4.819 4.561 -4.169 3.946 -3.5 3.312 C-2.85 2.69 -2.201 2.067 -1.531 1.426 C-0.773 0.72 -0.773 0.72 0 0 Z " fill="#000000" transform="translate(383,471)"/>
<path d="M0 0 C0.66 0.33 1.32 0.66 2 1 C1.203 1.773 0.407 2.547 -0.414 3.344 C-6.121 8.935 -11.435 14.406 -16 21 C-16.33 20.01 -16.66 19.02 -17 18 C-15.105 15.936 -13.209 13.874 -11.312 11.812 C-10.782 11.234 -10.252 10.656 -9.705 10.061 C-6.543 6.627 -3.325 3.276 0 0 Z " fill="#000000" transform="translate(579,475)"/>
<path d="M0 0 C0.66 0.33 1.32 0.66 2 1 C-0.64 3.64 -3.28 6.28 -6 9 C-6 6 -6 6 -4.688 4.395 C-4.131 3.872 -3.574 3.35 -3 2.812 C-2.443 2.283 -1.886 1.753 -1.312 1.207 C-0.663 0.61 -0.663 0.61 0 0 Z " fill="#000000" transform="translate(651,477)"/>
<path d="M0 0 C0 4.095 -1.969 6.768 -4 10.188 C-4.572 11.169 -4.572 11.169 -5.156 12.17 C-6.098 13.783 -7.048 15.392 -8 17 C-9 14 -9 14 -7.637 11.152 C-6.672 9.561 -6.672 9.561 -5.688 7.938 C-4.734 6.342 -4.734 6.342 -3.762 4.715 C-2 2 -2 2 0 0 Z " fill="#000000" transform="translate(370,486)"/>
<path d="M0 0 C0.66 0 1.32 0 2 0 C2.33 2.64 2.66 5.28 3 8 C2.34 7.67 1.68 7.34 1 7 C0.593 4.678 0.256 2.343 0 0 Z " fill="#000000" transform="translate(280,487)"/>
<path d="M0 0 C2.438 1.625 2.438 1.625 4 4 C3.936 7.156 3.499 9.168 1.875 11.875 C-1.159 13.695 -3.56 13.43 -7 13 C-9 11.375 -9 11.375 -10 9 C-9.872 5.859 -9.5 3.789 -7.812 1.125 C-5.057 -0.586 -3.174 -0.453 0 0 Z " fill="#000000" transform="translate(503,492)"/>
<path d="M0 0 C0.66 0.33 1.32 0.66 2 1 C1.348 1.69 0.695 2.379 0.023 3.09 C-4.812 8.289 -9.161 13.305 -12.844 19.418 C-13.225 19.94 -13.607 20.462 -14 21 C-14.66 21 -15.32 21 -16 21 C-13.067 12.605 -6.348 6.031 0 0 Z " fill="#000000" transform="translate(572,496)"/>
<path d="M0 0 C0.66 0.33 1.32 0.66 2 1 C0.585 2.585 -0.832 4.168 -2.25 5.75 C-3.039 6.632 -3.828 7.513 -4.641 8.422 C-6.706 10.679 -8.817 12.857 -11 15 C-9.583 10.68 -7.462 7.995 -4.375 4.688 C-3.558 3.804 -2.74 2.921 -1.898 2.012 C-1.272 1.348 -0.645 0.684 0 0 Z " fill="#000000" transform="translate(641,502)"/>
<path d="M0 0 C0 4.115 -1.689 5.387 -4.312 8.5 C-5.513 9.939 -5.513 9.939 -6.738 11.406 C-8.437 13.355 -10.135 15.214 -12 17 C-10.673 13.263 -9.034 10.469 -6.562 7.375 C-5.966 6.62 -5.369 5.864 -4.754 5.086 C-3.242 3.288 -1.693 1.625 0 0 Z " fill="#000000" transform="translate(621,508)"/>
<path d="M0 0 C2.375 0.562 2.375 0.562 4.188 2.562 C4.579 3.222 4.971 3.883 5.375 4.562 C1.765 7.854 -0.751 9.109 -5.625 9.562 C-6.285 8.242 -6.945 6.923 -7.625 5.562 C-3.394 0.727 -3.394 0.727 0 0 Z " fill="#000000" transform="translate(504.625,509.4375)"/>
<path d="M0 0 C2.375 0.25 2.375 0.25 5 1 C6.312 3.062 6.312 3.062 7 5 C4.038 4.387 2.619 3.746 0 2 C0 1.34 0 0.68 0 0 Z " fill="#000000" transform="translate(299,530)"/>
<path d="M0 0 C1.65 0 3.3 0 5 0 C5.33 1.32 5.66 2.64 6 4 C1.125 2.25 1.125 2.25 0 0 Z " fill="#000000" transform="translate(316,531)"/>
<path d="M0 0 C0.66 0.33 1.32 0.66 2 1 C1.299 1.666 0.597 2.333 -0.125 3.02 C-6.561 9.237 -11.977 15.559 -17 23 C-17.33 22.34 -17.66 21.68 -18 21 C-14.234 13.296 -7.872 3.936 0 0 Z " fill="#000000" transform="translate(616,531)"/>
<path d="M0 0 C0 4.247 -2.466 6.029 -5.25 8.938 C-5.987 9.725 -5.987 9.725 -6.738 10.529 C-9.439 13.407 -12.192 16.226 -15 19 C-13.493 13.745 -10.07 10.521 -6.375 6.688 C-5.458 5.72 -5.458 5.72 -4.523 4.732 C-3.022 3.149 -1.514 1.572 0 0 Z " fill="#000000" transform="translate(644,542)"/>
<path d="M0 0 C0.33 0 0.66 0 1 0 C3.929 21.616 6.692 43.252 9.335 64.905 C9.652 67.502 9.972 70.099 10.293 72.696 C10.749 76.386 11.198 80.078 11.645 83.77 C11.782 84.871 11.919 85.973 12.06 87.108 C12.779 93.124 13.137 98.942 13 105 C12.67 105 12.34 105 12 105 C8.869 86.662 6.339 68.306 4.312 49.812 C4.159 48.418 4.159 48.418 4.003 46.995 C3.311 40.665 2.646 34.334 2 28 C1.903 27.05 1.806 26.1 1.706 25.121 C1.418 22.272 1.135 19.423 0.855 16.574 C0.769 15.715 0.682 14.857 0.593 13.972 C0.142 9.288 -0.087 4.705 0 0 Z " fill="#000000" transform="translate(242,548)"/>
<path d="M0 0 C0.66 0 1.32 0 2 0 C2 5.28 2 10.56 2 16 C7.28 16.33 12.56 16.66 18 17 C18 17.99 18 18.98 18 20 C12.72 20 7.44 20 2 20 C1.67 24.29 1.34 28.58 1 33 C0.67 33 0.34 33 0 33 C-0.33 28.38 -0.66 23.76 -1 19 C-5.95 19 -10.9 19 -16 19 C-12.473 16.649 -10.971 16.786 -6.812 16.875 C-5.726 16.893 -4.639 16.911 -3.52 16.93 C-2.272 16.964 -2.272 16.964 -1 17 C-1.012 15.857 -1.023 14.713 -1.035 13.535 C-1.045 12.044 -1.054 10.553 -1.062 9.062 C-1.071 8.308 -1.079 7.553 -1.088 6.775 C-1.097 4.85 -1.052 2.925 -1 1 C-0.67 0.67 -0.34 0.34 0 0 Z " fill="#000000" transform="translate(781,553)"/>
<path d="M0 0 C0 4.06 -1.559 5.147 -4.188 8.188 C-7.053 11.575 -9.674 14.87 -11.938 18.688 C-12.618 19.781 -13.299 20.874 -14 22 C-14.66 22 -15.32 22 -16 22 C-14.709 18.403 -13.195 15.67 -10.812 12.688 C-10.199 11.919 -9.585 11.151 -8.953 10.359 C-6.041 6.841 -3.048 3.4 0 0 Z " fill="#000000" transform="translate(638,556)"/>
<path d="M0 0 C0.66 0.33 1.32 0.66 2 1 C1.492 1.485 0.984 1.969 0.461 2.469 C-4.201 7.009 -8.261 11.675 -12 17 C-12.33 16.34 -12.66 15.68 -13 15 C-9.095 9.493 -4.903 4.642 0 0 Z " fill="#000000" transform="translate(291,570)"/>
<path d="M0 0 C0.33 0.66 0.66 1.32 1 2 C0.004 3.945 0.004 3.945 -1.438 6.125 C-1.911 6.849 -2.384 7.574 -2.871 8.32 C-3.244 8.875 -3.616 9.429 -4 10 C-4.33 9.34 -4.66 8.68 -5 8 C-4.004 6.055 -4.004 6.055 -2.562 3.875 C-2.089 3.151 -1.616 2.426 -1.129 1.68 C-0.756 1.125 -0.384 0.571 0 0 Z " fill="#000000" transform="translate(188,579)"/>
<path d="M0 0 C0 3.589 -0.664 4.109 -3 6.688 C-3.557 7.31 -4.114 7.933 -4.688 8.574 C-5.121 9.045 -5.554 9.515 -6 10 C-6 6.411 -5.336 5.891 -3 3.312 C-2.443 2.69 -1.886 2.067 -1.312 1.426 C-0.879 0.955 -0.446 0.485 0 0 Z " fill="#000000" transform="translate(394,590)"/>
<path d="M0 0 C4.388 2.551 4.388 2.551 5.848 4.074 C5.848 5.394 5.848 6.714 5.848 8.074 C6.658 8.123 7.469 8.172 8.305 8.223 C9.966 8.335 9.966 8.335 11.66 8.449 C12.739 8.519 13.818 8.588 14.93 8.66 C18.206 9.006 21.357 9.5 24.593 10.1 C25.578 10.282 26.564 10.464 27.579 10.651 C28.328 10.791 29.076 10.93 29.848 11.074 C27.654 29.889 24.878 48.598 22.006 67.317 C21.42 71.14 20.838 74.962 20.256 78.785 C19.123 86.215 17.987 93.645 16.848 101.074 C-7.354 110.085 -31.589 118.996 -55.902 127.699 C-57.013 128.097 -58.123 128.495 -59.267 128.905 C-70.777 133.027 -82.292 137.129 -93.824 141.188 C-112.634 147.817 -131.18 154.735 -149.538 162.544 C-155.637 165.126 -161.759 167.652 -167.889 170.16 C-169.877 170.976 -171.862 171.799 -173.846 172.624 C-202.373 184.377 -202.373 184.377 -214.84 179.273 C-216.617 178.451 -218.388 177.612 -220.152 176.762 C-221.157 176.29 -222.162 175.817 -223.198 175.331 C-226.859 173.599 -230.507 171.84 -234.152 170.074 C-234.89 169.717 -235.628 169.36 -236.389 168.992 C-246.768 163.966 -257.128 158.904 -267.483 153.83 C-275.637 149.835 -283.797 145.853 -291.965 141.887 C-292.616 141.57 -293.268 141.254 -293.939 140.928 C-301.945 137.041 -309.973 133.203 -318.023 129.41 C-319.263 128.826 -319.263 128.826 -320.528 128.23 C-324.547 126.338 -328.569 124.449 -332.593 122.568 C-334.045 121.886 -335.497 121.205 -336.949 120.523 C-337.606 120.218 -338.263 119.912 -338.939 119.598 C-348.827 114.951 -348.827 114.951 -349.965 111.887 C-350.027 111.289 -350.089 110.69 -350.152 110.074 C-345.649 108.156 -342.42 107.007 -337.527 107.137 C-330.124 106.572 -325.182 100.547 -320.001 95.751 C-294.279 72.414 -247.997 34.248 -211.557 34.751 C-205.011 35.63 -198.753 38.619 -192.619 40.963 C-184.561 44.009 -184.561 44.009 -176.152 43.074 C-175.51 42.892 -174.868 42.71 -174.206 42.522 C-172.131 41.914 -170.08 41.253 -168.027 40.574 C-155.149 36.362 -147.429 36.487 -134.852 41.535 C-133.031 42.246 -131.21 42.957 -129.39 43.668 C-126.841 44.667 -124.298 45.678 -121.754 46.69 C-116.168 48.906 -110.571 51.091 -104.977 53.285 C-103.15 54.004 -103.15 54.004 -101.287 54.737 C-88.643 59.701 -75.911 64.412 -63.152 69.074 C-63.036 67.862 -62.92 66.649 -62.8 65.4 C-61.67 55.271 -59.502 45.267 -57.597 35.262 C-56.962 31.921 -56.345 28.577 -55.732 25.232 C-55.139 22.025 -54.525 18.821 -53.914 15.617 C-53.697 14.419 -53.48 13.221 -53.257 11.987 C-52.932 10.319 -52.932 10.319 -52.6 8.618 C-52.417 7.641 -52.233 6.665 -52.044 5.659 C-50.983 2.585 -49.647 1.125 -47.152 -0.926 C-45.185 -1.212 -45.185 -1.212 -43.148 -0.914 C-42.408 -0.815 -41.667 -0.717 -40.904 -0.615 C-40.141 -0.491 -39.377 -0.366 -38.59 -0.238 C-37.822 -0.133 -37.055 -0.028 -36.264 0.08 C-33.114 0.528 -30.175 1.067 -27.152 2.074 C-27.152 1.414 -27.152 0.754 -27.152 0.074 C-18.092 -4.107 -9.01 -4.66 0 0 Z M-46.152 3.074 C-47.594 6.448 -48.581 9.639 -49.266 13.241 C-49.459 14.246 -49.653 15.251 -49.852 16.287 C-50.054 17.364 -50.257 18.441 -50.465 19.551 C-50.679 20.672 -50.894 21.793 -51.115 22.948 C-51.798 26.531 -52.475 30.115 -53.152 33.699 C-53.608 36.089 -54.063 38.478 -54.52 40.867 C-56.437 50.929 -58.334 60.994 -60.152 71.074 C-53.067 74.076 -45.947 76.968 -38.777 79.762 C-37.637 80.208 -37.637 80.208 -36.473 80.662 C-30.075 83.145 -24.221 85.196 -17.34 85.887 C-6.536 87.221 3.551 90.633 13.848 94.074 C17.01 79.052 19.617 63.961 22.05 48.804 C22.669 44.957 23.3 41.113 23.932 37.268 C24.328 34.817 24.723 32.365 25.117 29.914 C25.307 28.767 25.496 27.621 25.691 26.439 C25.859 25.383 26.026 24.326 26.198 23.238 C26.349 22.31 26.499 21.382 26.653 20.426 C27.015 17.922 27.015 17.922 25.848 15.074 C18.793 13.87 12.013 12.793 4.848 13.074 C4.518 14.724 4.188 16.374 3.848 18.074 C3.147 17.928 2.446 17.782 1.724 17.631 C-1.464 16.966 -4.652 16.301 -7.84 15.637 C-8.943 15.407 -10.045 15.177 -11.182 14.939 C-12.782 14.606 -12.782 14.606 -14.414 14.266 C-15.393 14.061 -16.373 13.857 -17.382 13.647 C-19.97 13.112 -22.56 12.589 -25.152 12.074 C-25.297 11.125 -25.441 10.177 -25.59 9.199 C-26.768 6.022 -26.768 6.022 -28.938 5.266 C-31.343 4.718 -33.702 4.358 -36.152 4.074 C-37.082 3.965 -38.011 3.855 -38.969 3.742 C-41.362 3.487 -43.753 3.265 -46.152 3.074 Z M-298.152 84.074 C-299.229 84.894 -300.306 85.713 -301.383 86.531 C-308.429 91.899 -315.34 97.41 -322.152 103.074 C-322.891 103.676 -323.63 104.278 -324.391 104.898 C-326.017 106.244 -327.592 107.652 -329.152 109.074 C-329.152 109.734 -329.152 110.394 -329.152 111.074 C-328.15 111.55 -327.148 112.026 -326.115 112.517 C-325.442 112.837 -324.769 113.156 -324.075 113.486 C-322.533 114.219 -320.99 114.951 -319.448 115.684 C-315.036 117.779 -310.624 119.875 -306.212 121.971 C-297.855 125.941 -289.497 129.911 -281.138 133.877 C-276.872 135.9 -272.606 137.925 -268.34 139.949 C-267.504 140.346 -266.668 140.742 -265.807 141.151 C-255.32 146.128 -244.851 151.141 -234.402 156.199 C-223.74 161.359 -212.989 166.292 -202.152 171.074 C-201.307 170.217 -200.461 169.36 -199.59 168.477 C-188.945 157.73 -188.945 157.73 -183.297 152.938 C-180.99 150.934 -178.76 148.861 -176.528 146.776 C-171.17 141.771 -165.719 136.983 -159.996 132.395 C-157.981 130.751 -156.011 129.093 -154.059 127.379 C-141.246 116.13 -127.631 105.933 -113.465 96.449 C-112.759 95.977 -112.054 95.504 -111.327 95.018 C-106.405 91.777 -101.337 88.872 -96.152 86.074 C-100.42 81.113 -105.271 78.693 -111.152 75.949 C-112.154 75.477 -113.156 75.005 -114.188 74.518 C-132.075 66.259 -150.73 59.839 -169.365 53.503 C-177.84 50.595 -186.193 47.421 -194.527 44.137 C-195.729 43.664 -196.93 43.191 -198.168 42.703 C-206.627 39.343 -206.627 39.343 -209.357 37.947 C-230.982 27.433 -282.666 72.144 -298.152 84.074 Z M-159.34 40.824 C-160.435 41.079 -160.435 41.079 -161.553 41.34 C-166.591 42.554 -171.331 44.174 -176.152 46.074 C-173.839 48.726 -171.833 49.763 -168.516 50.879 C-167.562 51.208 -166.608 51.537 -165.626 51.876 C-164.583 52.23 -163.54 52.584 -162.465 52.949 C-96.419 76.123 -96.419 76.123 -87.152 91.074 C-86.809 91.626 -86.466 92.177 -86.113 92.746 C-82.688 98.322 -79.442 103.923 -77.152 110.074 C-73.065 108.48 -70.525 105.51 -67.59 102.387 C-59.915 94.481 -51.394 89.146 -41.152 85.074 C-41.152 84.414 -41.152 83.754 -41.152 83.074 C-71.361 70.707 -101.598 58.429 -131.984 46.501 C-136.776 44.62 -141.559 42.719 -146.331 40.788 C-151.207 38.878 -154.394 39.599 -159.34 40.824 Z M-105.152 134.074 C-104.822 134.734 -104.492 135.394 -104.152 136.074 C-103.463 135.532 -102.773 134.989 -102.062 134.43 C-90.891 125.924 -84.141 124.423 -70.152 126.074 C-71.142 128.054 -72.132 130.034 -73.152 132.074 C-68.525 130.462 -68.525 130.462 -65.152 127.074 C-65.545 124.991 -65.545 124.991 -66.152 123.074 C-82.208 118.823 -93.583 121.954 -105.152 134.074 Z " fill="#000000" transform="translate(731.15234375,602.92578125)"/>
<path d="M0 0 C0 1.32 0 2.64 0 4 C-0.66 4 -1.32 4 -2 4 C-2.99 7.63 -3.98 11.26 -5 15 C-9 11 -9 11 -9.277 8.965 C-8.775 5.967 -8.376 3.602 -6.75 1 C-4.415 -0.334 -2.642 -0.214 0 0 Z " fill="#000000" transform="translate(361,601)"/>
<path d="M0 0 C3.915 2.043 4.831 3.584 6.5 7.688 C7.45 12.582 6.384 16.67 4 21 C1.002 24.348 -2.228 26.799 -6.75 27.312 C-11.063 26.898 -12.853 26.004 -16 23 C-18.003 18.141 -18.348 14.248 -16.938 9.188 C-12.587 2.03 -8.457 -1.12 0 0 Z M-9 6 C-12.27 9.27 -12.569 12.513 -13 17 C-12.01 17.495 -12.01 17.495 -11 18 C-10.711 16.763 -10.423 15.525 -10.125 14.25 C-9.387 11.276 -8.555 8.666 -7 6 C-7.66 6 -8.32 6 -9 6 Z " fill="#000000" transform="translate(379,601)"/>
<path d="M0 0 C0.66 0.33 1.32 0.66 2 1 C1.576 1.389 1.152 1.779 0.715 2.18 C-3.733 6.422 -7.166 10.91 -10.52 16.059 C-11.252 17.02 -11.252 17.02 -12 18 C-12.66 18 -13.32 18 -14 18 C-13.4 14.189 -11.654 11.964 -9.25 9 C-8.575 8.154 -7.899 7.309 -7.203 6.438 C-4.978 3.976 -2.644 1.997 0 0 Z " fill="#000000" transform="translate(459,606)"/>
<path d="M0 0 C9.405 1.485 9.405 1.485 19 3 C19 3.66 19 4.32 19 5 C11.965 5.237 5.817 4.788 -1 3 C-0.67 2.01 -0.34 1.02 0 0 Z " fill="#000000" transform="translate(707,627)"/>
<path d="M0 0 C1.32 0.33 2.64 0.66 4 1 C4.66 3.31 5.32 5.62 6 8 C9.63 7.67 13.26 7.34 17 7 C17.33 8.32 17.66 9.64 18 11 C11.375 13.875 11.375 13.875 8 15 C8.33 18.63 8.66 22.26 9 26 C7.68 26 6.36 26 5 26 C4.01 23.03 3.02 20.06 2 17 C-0.191 17.822 -0.191 17.822 -0.852 20.066 C-1.107 20.89 -1.362 21.714 -1.625 22.562 C-1.885 23.389 -2.146 24.215 -2.414 25.066 C-2.607 25.704 -2.801 26.343 -3 27 C-4.32 27 -5.64 27 -7 27 C-6.67 24.03 -6.34 21.06 -6 18 C-8.31 18 -10.62 18 -13 18 C-13 16.68 -13 15.36 -13 14 C-11.175 13.876 -11.175 13.876 -9.312 13.75 C-7.04 13.341 -7.04 13.341 -5 12 C-2.763 8.184 -1.338 4.206 0 0 Z " fill="#000000" transform="translate(77,642)"/>
<path d="M0 0 C0.66 0.33 1.32 0.66 2 1 C-7.237 8.071 -16.608 14.868 -26.239 21.394 C-32.255 25.473 -38.167 29.662 -44 34 C-44.66 33.67 -45.32 33.34 -46 33 C-39.132 27.238 -31.946 22.131 -24.539 17.098 C-19.324 13.552 -14.162 9.933 -9 6.312 C-8.109 5.688 -7.218 5.063 -6.299 4.419 C-4.199 2.947 -2.099 1.474 0 0 Z " fill="#000000" transform="translate(512,671)"/>
<path d="M0 0 C0.66 0.33 1.32 0.66 2 1 C-7.056 8.056 -16.243 14.92 -25.508 21.699 C-28.21 23.677 -30.896 25.671 -33.555 27.707 C-34.527 28.443 -35.499 29.179 -36.5 29.938 C-37.315 30.565 -38.129 31.193 -38.969 31.84 C-39.639 32.223 -40.309 32.606 -41 33 C-41.99 32.67 -42.98 32.34 -44 32 C-29.419 21.214 -14.765 10.533 0 0 Z " fill="#000000" transform="translate(529,682)"/>
<path d="M0 0 C0.66 0.33 1.32 0.66 2 1 C-9.464 10.021 -21.073 18.809 -32.849 27.418 C-36.251 29.92 -39.627 32.458 -43 35 C-43.66 34.67 -44.32 34.34 -45 34 C-39.962 29.275 -34.571 25.171 -28.932 21.201 C-23.526 17.393 -18.194 13.491 -12.875 9.562 C-12.057 8.959 -11.24 8.356 -10.397 7.734 C-6.923 5.168 -3.454 2.595 0 0 Z " fill="#000000" transform="translate(548,689)"/>
<path d="M0 0 C0.66 0.33 1.32 0.66 2 1 C-5.585 7.42 -13.462 13.393 -21.431 19.324 C-27.182 23.61 -32.862 27.969 -38.423 32.5 C-42.102 35.452 -45.874 37.748 -50 40 C-48.931 36.794 -48.497 36.344 -45.922 34.426 C-45.266 33.931 -44.61 33.436 -43.934 32.927 C-43.213 32.394 -42.493 31.861 -41.75 31.312 C-40.2 30.149 -38.651 28.985 -37.102 27.82 C-35.863 26.895 -35.863 26.895 -34.599 25.95 C-30.998 23.248 -27.424 20.509 -23.849 17.772 C-15.973 11.745 -8.08 5.753 0 0 Z " fill="#000000" transform="translate(573,695)"/>
<path d="M0 0 C1.164 0.254 2.327 0.507 3.526 0.769 C6.743 1.473 9.956 2.189 13.168 2.909 C16.635 3.684 20.106 4.443 23.576 5.203 C29.811 6.571 36.044 7.948 42.275 9.329 C56.221 12.419 70.176 15.465 84.131 18.515 C85.73 18.864 85.73 18.864 87.361 19.221 C89.515 19.692 91.67 20.162 93.824 20.633 C100.169 22.02 106.514 23.41 112.859 24.803 C116.878 25.685 120.898 26.566 124.918 27.447 C126.845 27.87 128.773 28.294 130.7 28.718 C139.437 30.639 148.171 32.555 156.945 34.3 C158.088 34.529 159.23 34.757 160.408 34.992 C162.405 35.386 164.404 35.77 166.406 36.141 C167.242 36.305 168.079 36.469 168.941 36.638 C169.642 36.769 170.342 36.899 171.064 37.034 C173.283 37.815 174.316 38.955 175.887 40.676 C177.695 41.709 177.695 41.709 179.688 42.543 C180.418 42.872 181.148 43.2 181.9 43.539 C183.42 44.208 184.941 44.875 186.463 45.539 C191.276 47.711 195.111 49.948 198.887 53.676 C199.262 56.988 199.262 56.988 198.887 59.676 C193.239 61.314 188.547 61.936 182.699 61.488 C181.951 61.437 181.204 61.386 180.433 61.333 C175.115 60.911 170.129 59.935 164.965 58.581 C160.849 57.6 156.695 57.028 152.508 56.437 C136.695 54.19 121.245 50.793 105.699 47.176 C100.933 46.077 96.165 44.988 91.397 43.897 C89.321 43.422 87.245 42.946 85.169 42.469 C72.391 39.542 59.583 36.758 46.769 33.995 C15.742 27.299 15.742 27.299 1.137 23.676 C0.103 23.421 -0.93 23.167 -1.995 22.905 C-8.531 21.235 -14.815 19.086 -21.113 16.676 C-21.443 17.336 -21.773 17.996 -22.113 18.676 C-27.66 19.529 -30.773 17.447 -35.113 14.324 C-37.573 12.297 -39.096 10.727 -40.113 7.676 C-39.487 4.006 -38.283 2.818 -35.426 0.426 C-24.997 -5.084 -11.03 -2.517 0 0 Z M-34.113 3.676 C-35 6.267 -35 6.267 -35.113 8.676 C-31.09 12.145 -31.09 12.145 -26.113 13.676 C-26.782 10.562 -26.782 10.562 -29.176 9.488 C-29.815 9.22 -30.455 8.952 -31.113 8.676 C-31.113 7.686 -31.113 6.696 -31.113 5.676 C-22.763 6.026 -22.763 6.026 -20.051 8.738 C-19.741 9.378 -19.432 10.017 -19.113 10.676 C-18.123 7.706 -17.133 4.736 -16.113 1.676 C-17.899 -0.11 -20.45 0.461 -22.863 0.426 C-23.91 0.4 -24.957 0.374 -26.035 0.348 C-29.51 0.718 -31.352 1.564 -34.113 3.676 Z M-13.113 0.676 C-13.812 2.442 -14.497 4.214 -15.176 5.988 C-15.559 6.974 -15.941 7.961 -16.336 8.977 C-17.407 11.738 -17.407 11.738 -16.113 14.676 C-13.225 16.023 -13.225 16.023 -9.62 17.097 C-8.949 17.311 -8.278 17.525 -7.587 17.745 C0.181 20.168 8.072 22.067 15.988 23.934 C17.617 24.322 19.245 24.711 20.874 25.101 C25.193 26.132 29.515 27.153 33.838 28.171 C36.527 28.804 39.215 29.44 41.902 30.076 C64.197 35.351 86.511 40.484 108.949 45.113 C109.978 45.326 111.007 45.539 112.067 45.758 C122.793 47.964 133.543 50.026 144.32 51.961 C145.262 52.134 146.204 52.308 147.174 52.486 C152.501 53.421 157.479 53.849 162.887 53.676 C163.727 51.741 164.558 49.803 165.387 47.863 C165.851 46.784 166.315 45.705 166.793 44.594 C168.062 41.727 168.062 41.727 167.887 38.676 C153.346 35.485 138.804 32.298 124.262 29.113 C123.18 28.876 122.098 28.64 120.984 28.395 C88.24 21.225 55.484 14.117 22.703 7.121 C22.015 6.974 21.327 6.827 20.618 6.676 C17.455 6.001 14.291 5.326 11.127 4.653 C9.486 4.303 9.486 4.303 7.811 3.947 C6.288 3.623 6.288 3.623 4.735 3.292 C1.4 2.571 -1.925 1.81 -5.247 1.029 C-7.884 0.53 -10.441 0.539 -13.113 0.676 Z M170.887 42.676 C167.554 48.876 167.554 48.876 165.887 55.676 C170.847 56.999 175.798 56.765 180.887 56.676 C181.547 53.706 182.207 50.736 182.887 47.676 C181.264 46.838 179.639 46.005 178.012 45.176 C177.107 44.712 176.202 44.248 175.27 43.77 C173.021 42.537 173.021 42.537 170.887 42.676 Z M184.887 49.676 C184.557 51.986 184.227 54.296 183.887 56.676 C187.517 56.676 191.147 56.676 194.887 56.676 C193.411 52.249 190.986 51.761 186.887 49.676 C186.227 49.676 185.567 49.676 184.887 49.676 Z " fill="#000000" transform="translate(133.11328125,730.32421875)"/>
<path d="M0 0 C0.66 0.33 1.32 0.66 2 1 C2 6.28 2 11.56 2 17 C7.28 17 12.56 17 18 17 C17.505 18.485 17.505 18.485 17 20 C12.05 20.33 7.1 20.66 2 21 C1.67 24.96 1.34 28.92 1 33 C0.67 33 0.34 33 0 33 C-1.102 28.591 -1.077 24.516 -1 20 C-5.95 19.67 -10.9 19.34 -16 19 C-16 18.67 -16 18.34 -16 18 C-11.039 16.677 -6.089 16.911 -1 17 C-1.012 15.857 -1.023 14.713 -1.035 13.535 C-1.045 12.044 -1.054 10.553 -1.062 9.062 C-1.071 8.308 -1.079 7.553 -1.088 6.775 C-1.097 4.85 -1.052 2.925 -1 1 C-0.67 0.67 -0.34 0.34 0 0 Z " fill="#000000" transform="translate(409,772)"/>
<path d="M0 0 C0.66 0 1.32 0 2 0 C2 1.65 2 3.3 2 5 C1.01 5.33 0.02 5.66 -1 6 C-1.043 4.334 -1.041 2.666 -1 1 C-0.67 0.67 -0.34 0.34 0 0 Z " fill="#000000" transform="translate(282,773)"/>
</svg>
