<?xml version="1.0" encoding="UTF-8"?>
<!-- Generator: visioncortex VTracer 0.6.0 -->
<svg version="1.1" xmlns="http://www.w3.org/2000/svg" width="847" height="847">
<path d="M0 0 C2.97 0 5.94 0 9 0 C9 0.99 9 1.98 9 3 C6.03 3 3.06 3 0 3 C0 2.01 0 1.02 0 0 Z " fill="#000000" transform="translate(255,56)"/>
<path d="M0 0 C11.571 3.414 20.945 9.065 30 17 C30.688 17.593 31.377 18.186 32.086 18.797 C47.043 32.631 55.746 54.041 57.231 74.123 C57.536 82.427 57.788 90.85 56 99 C55.67 99 55.34 99 55 99 C54.966 98.353 54.931 97.705 54.896 97.038 C53.244 67.989 48.463 40.22 26.609 19.195 C18.356 12.251 8.973 7.05 -1 3 C-0.67 2.01 -0.34 1.02 0 0 Z " fill="#000000" transform="translate(279,59)"/>
<path d="M0 0 C0.66 0.33 1.32 0.66 2 1 C2 2.98 2 4.96 2 7 C3.65 7 5.3 7 7 7 C7 7.66 7 8.32 7 9 C5.02 9 3.04 9 1 9 C1 10.65 1 12.3 1 14 C0.01 14 -0.98 14 -2 14 C-1.67 12.02 -1.34 10.04 -1 8 C-2.98 8 -4.96 8 -7 8 C-7 7.67 -7 7.34 -7 7 C-5.02 7 -3.04 7 -1 7 C-0.67 4.69 -0.34 2.38 0 0 Z " fill="#000000" transform="translate(589,59)"/>
<path d="M0 0 C0 0.66 0 1.32 0 2 C-1.65 2.33 -3.3 2.66 -5 3 C-5.33 2.01 -5.66 1.02 -6 0 C-3 -1 -3 -1 0 0 Z " fill="#000000" transform="translate(642,60)"/>
<path d="M0 0 C0 0.66 0 1.32 0 2 C-0.664 2.206 -1.328 2.411 -2.013 2.623 C-17.984 7.619 -31.142 12.42 -43.941 23.496 C-46 25 -46 25 -49 25 C-39.483 14.598 -15.064 -5.021 0 0 Z " fill="#000000" transform="translate(213,62)"/>
<path d="M0 0 C2.438 1 2.438 1 3.75 3.562 C4.09 4.769 4.09 4.769 4.438 6 C2.75 8.062 2.75 8.062 0.438 10 C-3.862 9.7 -3.862 9.7 -5.562 8 C-5.861 5.166 -5.919 3.562 -4.375 1.125 C-2.562 0 -2.562 0 0 0 Z M-2.562 4 C-2.232 4.99 -1.903 5.98 -1.562 7 C-0.572 6.34 0.418 5.68 1.438 5 C0.117 4.67 -1.202 4.34 -2.562 4 Z " fill="#000000" transform="translate(637.5625,70)"/>
<path d="M0 0 C3.056 0.885 4.64 1.49 6.5 4.125 C7.231 8.326 6.034 11.388 4 15 C1.823 17.827 -0.516 20.441 -3 23 C-1.682 26.557 0.508 28.43 3.395 30.805 C11.737 37.721 11.737 37.721 12.625 42.625 C12.527 48.086 9.188 51.841 6 56 C2.956 60.182 2.468 63.889 2.27 68.926 C2.229 69.673 2.189 70.421 2.148 71.191 C2.023 73.565 1.918 75.938 1.812 78.312 C1.731 79.928 1.648 81.543 1.564 83.158 C1.362 87.105 1.176 91.052 1 95 C-12.64 93.67 -26.139 91.674 -39.665 89.486 C-43.115 88.929 -46.566 88.381 -50.018 87.834 C-52.211 87.482 -54.404 87.13 -56.598 86.777 C-57.63 86.614 -58.662 86.45 -59.725 86.282 C-60.668 86.128 -61.611 85.974 -62.582 85.816 C-63.414 85.682 -64.246 85.548 -65.103 85.411 C-67 85 -67 85 -68 84 C-68.094 82.22 -68.117 80.436 -68.114 78.654 C-68.113 77.513 -68.113 76.372 -68.113 75.196 C-68.108 73.955 -68.103 72.713 -68.098 71.434 C-68.096 70.17 -68.095 68.906 -68.093 67.604 C-68.089 64.239 -68.08 60.874 -68.069 57.508 C-68.058 54.077 -68.054 50.645 -68.049 47.213 C-68.038 40.475 -68.021 33.738 -68 27 C-63.02 26.862 -58.582 27.327 -53.711 28.348 C-52.344 28.626 -50.977 28.904 -49.609 29.182 C-47.485 29.622 -45.361 30.066 -43.237 30.512 C-41.168 30.945 -39.096 31.365 -37.023 31.785 C-35.795 32.042 -34.567 32.298 -33.302 32.563 C-30.112 32.985 -28.04 32.999 -25 32 C-22.765 29.672 -22.765 29.672 -20.875 26.75 C-20.212 25.796 -19.55 24.842 -18.867 23.859 C-17.179 21.274 -15.564 18.662 -14 16 C-12.68 16.33 -11.36 16.66 -10 17 C-9.781 16.192 -9.562 15.384 -9.336 14.551 C-7.354 7.872 -5.958 3.792 0 0 Z M-2.562 3.938 C-6.375 8.727 -8.584 13.771 -8 20 C-4.894 20.348 -4.894 20.348 -2.992 18.059 C2.526 11.308 2.526 11.308 4 3 C0.895 1.505 0.245 1.815 -2.562 3.938 Z M-19 29 C-20.714 30.959 -22.384 32.959 -24 35 C-22.437 39.016 -19.6 41.417 -16.438 44.188 C-15.357 45.155 -14.277 46.123 -13.199 47.094 C-12.394 47.819 -12.394 47.819 -11.572 48.559 C-7.92 51.907 -4.463 55.458 -1 59 C2.768 57.744 3.212 56.49 5.188 53.125 C5.717 52.241 6.247 51.356 6.793 50.445 C8.221 48.006 8.221 48.006 8 45 C7.01 45.33 6.02 45.66 5 46 C5 46.66 5 47.32 5 48 C0.907 48.336 -1.399 48.354 -4.984 46.242 C-5.897 45.461 -6.81 44.68 -7.75 43.875 C-8.673 43.109 -9.596 42.344 -10.547 41.555 C-14.045 37.912 -16.047 33.957 -17 29 C-17.66 29 -18.32 29 -19 29 Z M-64 30 C-64 47.16 -64 64.32 -64 82 C-40.082 86.053 -40.082 86.053 -16.125 89.875 C-15.362 89.995 -14.599 90.114 -13.813 90.238 C-9.841 90.832 -6.016 91.113 -2 91 C-1.656 87.019 -1.367 83.038 -1.129 79.049 C-1.044 77.697 -0.948 76.345 -0.84 74.994 C0.075 65.88 0.075 65.88 -3.625 57.938 C-5.066 56.606 -6.528 55.297 -8 54 C-9.12 52.859 -10.232 51.708 -11.336 50.551 C-12.556 49.283 -13.778 48.016 -15 46.75 C-15.581 46.147 -16.162 45.543 -16.76 44.922 C-17.334 44.344 -17.908 43.767 -18.5 43.172 C-19.005 42.657 -19.511 42.143 -20.031 41.612 C-25.248 37.34 -30.23 35.372 -36.832 34.297 C-37.55 34.169 -38.268 34.042 -39.007 33.91 C-41.274 33.511 -43.543 33.13 -45.812 32.75 C-47.354 32.48 -48.895 32.21 -50.436 31.938 C-57.182 30.58 -57.182 30.58 -64 30 Z " fill="#000000" transform="translate(656,76)"/>
<path d="M0 0 C0.66 0 1.32 0 2 0 C1.315 5.806 -0.032 11.301 -1.562 16.938 C-1.796 17.812 -2.03 18.687 -2.271 19.588 C-2.844 21.726 -3.42 23.864 -4 26 C-4.99 25.67 -5.98 25.34 -7 25 C-2.893 2.893 -2.893 2.893 0 0 Z " fill="#000000" transform="translate(236,85)"/>
<path d="M0 0 C0 0.99 0 1.98 0 3 C-0.641 2.965 -1.281 2.93 -1.941 2.895 C-9.228 2.666 -13.348 3.826 -19.625 7.562 C-24.72 12.791 -27.293 18.705 -27.688 26 C-27.389 32.442 -25.178 37.131 -21 42 C-16.919 45.513 -12.347 46.908 -7 47 C-0.912 45.719 4.616 43.629 8.152 38.246 C11.985 31.277 12.754 24.887 10.805 17.184 C9.312 13.132 6.957 8.978 3 7 C3.375 4.563 3.375 4.563 4 2 C4.66 1.67 5.32 1.34 6 1 C7.5 2.313 7.5 2.313 9 4 C9 4.99 9 5.98 9 7 C10.057 9.184 10.057 9.184 11.438 11.438 C15.226 17.816 15.718 23.639 15 31 C12.932 38.216 8.975 44.491 2.438 48.375 C-3.478 51.037 -10.134 51.093 -16.336 49.34 C-22.689 46.528 -26.378 41.704 -29.875 35.875 C-32.523 28.776 -32.091 20.466 -29 13.625 C-22.325 2.028 -12.909 -1.938 0 0 Z " fill="#000000" transform="translate(518,90)"/>
<path d="M0 0 C3 1 3 1 4.203 3.18 C4.549 4.069 4.894 4.959 5.25 5.875 C5.606 6.759 5.962 7.644 6.328 8.555 C7 11 7 11 6 14 C5.34 14 4.68 14 4 14 C3.325 12.42 2.66 10.836 2 9.25 C1.629 8.368 1.257 7.487 0.875 6.578 C0 4 0 4 0 0 Z " fill="#000000" transform="translate(197,99)"/>
<path d="M0 0 C1.32 0 2.64 0 4 0 C3.01 2.97 2.02 5.94 1 9 C-0.32 8.67 -1.64 8.34 -3 8 C-2.01 5.36 -1.02 2.72 0 0 Z " fill="#000000" transform="translate(519,99)"/>
<path d="M0 0 C0.99 0 1.98 0 3 0 C2.363 4.103 0.992 7.429 -0.75 11.188 C-11.137 34.388 -13.634 59.14 -4.832 83.191 C-0.187 94.961 6.044 105.175 14 115 C14.565 115.705 15.129 116.41 15.711 117.137 C20.455 122.47 26.377 124.64 33 127 C33 127.33 33 127.66 33 128 C22.158 127.656 15.608 122.321 8.258 114.664 C-7.646 95.899 -16.412 71.576 -15 47 C-13.292 30.448 -8.037 14.534 0 0 Z " fill="#000000" transform="translate(147,109)"/>
<path d="M0 0 C0.66 0.33 1.32 0.66 2 1 C0.476 4.755 -1.773 6.808 -4.812 9.438 C-8.335 12.527 -11.743 15.634 -15 19 C-15.66 18.67 -16.32 18.34 -17 18 C-15.546 12.836 -12.382 10.185 -8.5 6.75 C-7.906 6.209 -7.311 5.667 -6.699 5.109 C-2.332 1.166 -2.332 1.166 0 0 Z " fill="#000000" transform="translate(276,113)"/>
<path d="M0 0 C12.34 7.435 21.26 19.102 25.094 32.926 C27.124 43.408 24.996 53.798 19.465 62.824 C12.013 73.424 1.596 80.394 -11.219 82.676 C-14.495 82.985 -17.742 83.057 -21.031 83.051 C-21.909 83.049 -22.787 83.048 -23.691 83.046 C-31.411 82.9 -38.67 82.006 -44.5 76.535 C-45.067 75.922 -45.634 75.308 -46.219 74.676 C-42.617 73.475 -42.069 73.943 -38.781 75.551 C-29.383 80.099 -16.712 80.3 -6.656 77.488 C5.039 73.201 13.026 66.77 18.781 55.676 C22.535 47.373 22.584 38.279 19.781 29.676 C14.886 17.445 7.786 8.415 -4.219 2.676 C-9.426 0.469 -14.043 0.436 -19.594 0.551 C-20.841 0.564 -20.841 0.564 -22.113 0.578 C-24.149 0.602 -26.184 0.637 -28.219 0.676 C-27.889 -0.314 -27.559 -1.304 -27.219 -2.324 C-18.376 -5.272 -8.269 -3.946 0 0 Z " fill="#000000" transform="translate(238.21875,121.32421875)"/>
<path d="M0 0 C0.66 0 1.32 0 2 0 C0.004 6.18 -2.199 12.245 -4.582 18.285 C-4.919 19.145 -5.255 20.004 -5.602 20.889 C-6.67 23.615 -7.741 26.339 -8.812 29.062 C-10.216 32.636 -11.619 36.21 -13.02 39.785 C-13.358 40.649 -13.696 41.512 -14.045 42.402 C-17.109 50.239 -20.075 58.111 -23 66 C-23.66 66 -24.32 66 -25 66 C-24.395 61.703 -23.373 57.873 -21.883 53.801 C-21.446 52.604 -21.009 51.407 -20.558 50.173 C-20.081 48.886 -19.603 47.599 -19.125 46.312 C-18.884 45.66 -18.643 45.007 -18.395 44.334 C-14.737 34.428 -10.912 24.596 -6.938 14.812 C-6.241 13.095 -6.241 13.095 -5.53 11.343 C-2.26 3.391 -2.26 3.391 0 0 Z " fill="#000000" transform="translate(206,119)"/>
<path d="M0 0 C4.036 1.527 5.79 4.038 8.25 7.5 C8.956 8.48 9.663 9.459 10.391 10.469 C12 13 12 13 12 15 C12.496 14.553 12.993 14.105 13.504 13.645 C17.826 9.799 22.065 6.037 27 3 C29.203 3.375 29.203 3.375 31 4 C31.129 12.725 30.796 21.31 30 30 C19.569 30.513 7.959 29.32 -2 26 C-5.443 19.113 -2.639 8.152 -1 1 C-0.67 0.67 -0.34 0.34 0 0 Z M2 6 C0.813 9.56 0.903 12.438 0.938 16.188 C0.947 17.46 0.956 18.732 0.965 20.043 C0.976 21.019 0.988 21.995 1 23 C3.665 23.509 6.332 24.007 9 24.5 C10.116 24.715 10.116 24.715 11.254 24.934 C16.25 25.846 20.919 26.227 26 26 C27.444 24.786 27.444 24.786 27.098 21.184 C27.091 19.602 27.079 18.019 27.062 16.438 C27.058 15.631 27.053 14.825 27.049 13.994 C27.037 11.996 27.019 9.998 27 8 C25.77 8.916 24.541 9.833 23.312 10.75 C22.583 11.294 21.853 11.838 21.102 12.398 C19.426 13.676 17.797 15.016 16.188 16.375 C14 18 14 18 11 18 C9.246 15.883 9.246 15.883 7.438 13.125 C4.961 9.366 4.961 9.366 2 6 Z " fill="#000000" transform="translate(602,124)"/>
<path d="M0 0 C4.972 1.492 9.418 3.605 14 6 C13.67 6.99 13.34 7.98 13 9 C8.71 7.02 4.42 5.04 0 3 C0 2.01 0 1.02 0 0 Z " fill="#000000" transform="translate(169,129)"/>
<path d="M0 0 C0.66 0 1.32 0 2 0 C3.626 3.253 3.185 6.805 3.188 10.375 C3.2 11.143 3.212 11.912 3.225 12.703 C3.243 19.685 3.243 19.685 1 23 C0.01 22.67 -0.98 22.34 -2 22 C-1.835 21.345 -1.67 20.69 -1.5 20.016 C-0.875 16.245 -0.932 12.557 -1 8.75 C-1.046 6.16 -1.047 3.591 -1 1 C-0.67 0.67 -0.34 0.34 0 0 Z " fill="#000000" transform="translate(228,130)"/>
<path d="M0 0 C-1 3 -1 3 -2.718 3.907 C-3.813 4.27 -3.813 4.27 -4.93 4.641 C-5.725 4.906 -6.52 5.172 -7.34 5.445 C-8.595 5.844 -8.595 5.844 -9.875 6.25 C-11.118 6.672 -11.118 6.672 -12.387 7.102 C-18.606 9.131 -18.606 9.131 -22 8 C-22 7.34 -22 6.68 -22 6 C-19.463 4.987 -16.921 3.99 -14.375 3 C-13.662 2.714 -12.949 2.428 -12.215 2.133 C-7.98 0.501 -4.617 -0.35 0 0 Z " fill="#000000" transform="translate(294,138)"/>
<path d="M0 0 C-0.33 0.99 -0.66 1.98 -1 3 C-5.438 4.405 -9.321 5.292 -14 5 C-14 4.34 -14 3.68 -14 3 C-12.231 2.495 -10.459 1.996 -8.688 1.5 C-7.701 1.222 -6.715 0.943 -5.699 0.656 C-3 0 -3 0 0 0 Z " fill="#000000" transform="translate(174,163)"/>
<path d="M0 0 C-1.445 3.567 -3.197 5.185 -6.375 7.312 C-7.146 7.845 -7.917 8.377 -8.711 8.926 C-11 10 -11 10 -13.289 9.668 C-13.854 9.448 -14.418 9.227 -15 9 C-15 8.34 -15 7.68 -15 7 C-14.385 6.662 -13.77 6.325 -13.137 5.977 C-12.328 5.531 -11.52 5.085 -10.688 4.625 C-9.887 4.184 -9.086 3.743 -8.262 3.289 C-2.491 0 -2.491 0 0 0 Z " fill="#000000" transform="translate(222,166)"/>
<path d="M0 0 C4.29 1.32 8.58 2.64 13 4 C13 5.32 13 6.64 13 8 C10.851 7.384 8.706 6.757 6.562 6.125 C5.368 5.777 4.173 5.429 2.941 5.07 C0 4 0 4 -1 2 C-0.67 1.34 -0.34 0.68 0 0 Z " fill="#000000" transform="translate(273,168)"/>
<path d="M0 0 C12.183 9.85 12.93 32.666 15.798 47.045 C17.102 53.58 18.422 60.113 19.742 66.645 C19.875 67.303 20.008 67.961 20.145 68.64 C22.904 82.299 25.773 95.935 28.688 109.562 C29.015 111.094 29.015 111.094 29.349 112.656 C30.541 118.23 31.737 123.803 32.938 129.375 C44.947 126.562 56.644 123.049 68.375 119.25 C70.885 118.439 73.395 117.629 75.906 116.824 C77.45 116.33 78.993 115.831 80.535 115.329 C94.483 110.856 111.808 107.86 125.652 114.113 C140.742 122.445 147.333 133.668 152.103 150.144 C154.985 160.741 156.915 171.588 158.938 182.375 C163.902 180.745 168.864 179.109 173.824 177.468 C175.508 176.911 177.193 176.357 178.878 175.804 C196.185 171.076 196.185 171.076 209.375 159.938 C210.319 158.664 211.263 157.391 212.207 156.117 C212.668 155.481 213.129 154.846 213.604 154.19 C215.515 151.588 217.549 149.086 219.562 146.562 C225.405 138.989 230.673 131.01 235.961 123.044 C236.661 121.998 237.361 120.952 238.082 119.875 C238.704 118.937 239.327 117.998 239.968 117.031 C242.07 114.196 244.387 111.809 246.938 109.375 C248.258 110.695 249.577 112.015 250.938 113.375 C253.808 106.369 255.507 99.231 257.25 91.875 C264.777 61.207 264.777 61.207 272.203 56.098 C275.185 54.855 277.001 55.174 279.938 56.375 C282.753 59.093 283.423 61.563 283.938 65.375 C283.598 68.27 283.598 68.27 283 71.188 C282.805 72.163 282.611 73.139 282.41 74.145 C282.254 74.881 282.098 75.617 281.938 76.375 C283.102 75.159 283.102 75.159 284.289 73.918 C290.022 68.009 295.855 62.368 302.312 57.25 C302.87 56.802 303.428 56.353 304.002 55.891 C308.912 52.091 313.416 49.292 319.75 49.5 C322.938 50.375 322.938 50.375 324.938 53.375 C325.062 56.875 325.062 56.875 324.938 60.375 C324.938 61.365 324.938 62.355 324.938 63.375 C325.928 62.88 326.918 62.385 327.938 61.875 C332.132 60.076 335.4 59.997 339.938 60.375 C342.938 62.375 342.938 62.375 343.812 65.125 C344.007 70.189 341.674 73.27 338.938 77.375 C340.031 77.293 341.124 77.21 342.25 77.125 C345.938 77.375 345.938 77.375 347.938 78.875 C349.394 82.515 349.033 85.702 347.938 89.375 C346.127 92.062 344.218 94.094 341.938 96.375 C342.866 96.653 342.866 96.653 343.812 96.938 C345.938 98.375 345.938 98.375 347.438 101.562 C347.954 105.501 347.671 107.391 345.441 110.688 C338.472 118.507 327.29 122.059 317.723 125.547 C307.048 129.558 300.012 136.625 292.938 145.375 C295.247 146.365 297.558 147.355 299.938 148.375 C295.093 164.397 281.291 179.35 270.938 192.375 C270.498 192.931 270.058 193.487 269.605 194.06 C252.165 215.955 230.149 223.709 204.317 232.079 C200.171 233.425 196.031 234.788 191.89 236.149 C188.675 237.205 185.46 238.258 182.242 239.304 C181.092 239.679 179.943 240.053 178.759 240.439 C177.753 240.766 176.746 241.092 175.709 241.429 C173.078 242.327 170.508 243.317 167.938 244.375 C168.903 252.159 169.92 259.936 170.971 267.709 C171.326 270.354 171.663 273.001 171.991 275.65 C172.465 279.455 172.98 283.252 173.504 287.051 C173.643 288.238 173.782 289.426 173.925 290.649 C174.37 293.724 174.828 296.473 175.938 299.375 C179.148 301.719 179.148 301.719 182.938 302.375 C183.813 302.708 184.689 303.04 185.592 303.383 C198.675 307.985 211.726 311.91 225.193 315.174 C245.28 320.055 264.731 326.452 284.294 333.105 C302.189 339.183 320.175 344.842 338.303 350.187 C339.216 350.458 340.129 350.729 341.069 351.009 C342.762 351.512 344.456 352.009 346.153 352.499 C351.713 354.151 351.713 354.151 353.938 356.375 C353.607 357.035 353.278 357.695 352.938 358.375 C343.246 356.704 333.96 353.843 324.562 351 C323.251 350.605 323.251 350.605 321.913 350.203 C305.606 345.29 289.452 339.971 273.318 334.524 C265.892 332.018 258.454 329.548 251 327.125 C250.366 326.919 249.733 326.713 249.08 326.5 C238.703 323.138 228.238 320.233 217.698 317.431 C205.291 314.061 193.3 309.691 181.275 305.166 C179.033 304.268 179.033 304.268 176.938 304.375 C177.025 304.945 177.113 305.514 177.203 306.101 C178.114 312.022 179.022 317.942 179.928 323.864 C180.267 326.074 180.606 328.285 180.947 330.495 C181.435 333.67 181.921 336.845 182.406 340.02 C182.636 341.506 182.636 341.506 182.87 343.022 C183.01 343.942 183.151 344.863 183.295 345.812 C183.481 347.028 183.481 347.028 183.672 348.268 C183.938 350.375 183.938 350.375 183.938 353.375 C196.575 354.071 209.219 354.527 221.875 354.688 C223.052 354.717 224.229 354.747 225.442 354.777 C232.448 354.826 236.958 354.095 242.938 350.375 C243.664 343.694 241.547 338.967 237.938 333.375 C235.759 330.846 233.454 328.565 230.938 326.375 C231.268 325.385 231.597 324.395 231.938 323.375 C239.947 329.623 245.949 337.192 247.938 347.375 C248.062 351.25 248.062 351.25 246.938 354.375 C243.75 356.188 243.75 356.188 239.938 357.375 C239.003 357.724 238.068 358.073 237.104 358.433 C233.728 359.437 230.973 359.633 227.457 359.641 C226.218 359.644 224.98 359.648 223.704 359.652 C222.399 359.643 221.094 359.634 219.75 359.625 C218.753 359.622 218.753 359.622 217.736 359.62 C206.703 359.585 195.862 358.916 184.938 357.375 C185.028 358.105 185.119 358.835 185.213 359.587 C185.628 362.953 186.033 366.32 186.438 369.688 C186.652 371.409 186.652 371.409 186.871 373.166 C189.411 394.515 189.411 394.515 183.938 404.375 C182.622 405.726 181.296 407.067 179.938 408.375 C180.556 416.104 190.828 423.66 196.379 428.441 C209.953 438.7 232.362 451.09 249.559 450.844 C256.123 449.55 259.938 446.795 264.188 441.75 C267.849 437.578 271.571 433.661 275.75 430 C277.028 428.875 277.028 428.875 278.332 427.727 C280.938 426.375 280.938 426.375 283.645 426.859 C284.731 427.36 285.818 427.86 286.938 428.375 C287.659 428.701 288.38 429.027 289.123 429.363 C291.702 430.544 294.258 431.767 296.812 433 C297.742 433.446 298.672 433.892 299.63 434.351 C306.476 437.645 313.29 441.002 320.07 444.43 C322.805 445.812 325.55 447.167 328.305 448.508 C329.027 448.862 329.75 449.216 330.495 449.582 C331.869 450.255 333.245 450.923 334.624 451.586 C338.458 453.474 341.705 455.581 344.938 458.375 C344.339 459.447 343.741 460.52 343.125 461.625 C341.271 465.199 340.572 468.351 339.938 472.312 C338.399 479.199 334.284 481.967 328.75 485.73 C325.938 487.375 325.938 487.375 322.938 488.375 C323.082 489.386 323.226 490.396 323.375 491.438 C322.769 496.893 320.071 499.021 315.938 502.375 C312.938 504.375 312.938 504.375 310.066 505.07 C305.897 506.809 304.209 509.567 301.875 513.25 C301.419 513.941 300.963 514.632 300.493 515.344 C298.958 517.677 297.448 520.026 295.938 522.375 C294.738 524.212 293.538 526.048 292.336 527.883 C289.185 532.702 286.055 537.534 282.938 542.375 C278.874 540.967 275.938 539.023 272.562 536.375 C259.205 526.137 245.898 518.008 229.938 512.375 C230.268 511.158 230.597 509.941 230.938 508.688 C231.741 505.503 232.144 502.678 231.938 499.375 C228.967 498.055 225.997 496.735 222.938 495.375 C224.594 490.101 227.888 486.02 231.125 481.625 C231.709 480.819 232.294 480.014 232.896 479.184 C235.876 475.095 238.931 471.125 242.188 467.25 C245.31 463.356 245.847 460.328 245.938 455.375 C244.925 455.122 244.925 455.122 243.892 454.864 C237.243 453.136 230.985 450.985 224.688 448.25 C223.78 447.856 222.872 447.462 221.938 447.056 C203.717 438.966 189.051 428.286 176.938 412.375 C176.009 412.86 175.081 413.345 174.125 413.844 C163.449 419.345 152.537 423.949 141.375 428.363 C139.51 429.107 137.645 429.851 135.78 430.596 C130.849 432.564 125.916 434.522 120.982 436.479 C115.871 438.508 110.763 440.544 105.655 442.58 C94.92 446.857 84.181 451.122 73.439 455.383 C71.127 456.3 68.815 457.217 66.503 458.135 C56.214 462.218 45.923 466.297 35.625 470.357 C17.48 477.513 -0.619 484.783 -18.717 492.058 C-25.391 494.741 -32.067 497.421 -38.743 500.099 C-43 501.807 -47.258 503.517 -51.513 505.231 C-82.746 517.805 -114.206 529.704 -145.831 541.251 C-155.551 544.801 -165.24 548.431 -174.926 552.071 C-182.303 554.844 -189.682 557.611 -197.062 560.375 C-197.708 560.617 -198.354 560.859 -199.02 561.109 C-202.676 562.478 -206.337 563.837 -210 565.188 C-211.23 565.648 -211.23 565.648 -212.484 566.118 C-222.091 569.634 -231.712 572.279 -241.672 568.586 C-250.753 563.986 -255.688 556.399 -260.273 547.707 C-262.036 544.424 -263.952 541.439 -266.062 538.375 C-265.403 537.055 -264.743 535.735 -264.062 534.375 C-263.732 535.035 -263.403 535.695 -263.062 536.375 C-260.092 536.375 -257.123 536.375 -254.062 536.375 C-254.488 535.167 -254.914 533.958 -255.352 532.713 C-260.344 518.284 -264.247 503.683 -267.938 488.875 C-268.523 486.556 -269.109 484.237 -269.695 481.918 C-270.757 477.71 -271.817 473.502 -272.867 469.291 C-273.074 468.459 -273.282 467.628 -273.496 466.771 C-274.077 464.315 -274.582 461.852 -275.062 459.375 C-280.169 462.402 -280.169 462.402 -283.062 467.375 C-283.062 466.715 -283.062 466.055 -283.062 465.375 C-283.861 465.978 -283.861 465.978 -284.676 466.593 C-290.791 471.206 -296.923 475.795 -303.062 480.375 C-303.765 480.901 -304.467 481.428 -305.19 481.97 C-319.132 492.388 -332.101 499.979 -350.062 498.375 C-360.33 495.865 -370.234 489.221 -376.062 480.375 C-380.986 470.002 -379.863 458.81 -376.512 448.145 C-371.847 435.38 -364.225 424.128 -356.062 413.375 C-369.783 419.809 -382.691 427.398 -395.051 436.18 C-395.95 436.818 -395.95 436.818 -396.866 437.469 C-398.452 438.608 -400.023 439.766 -401.594 440.926 C-402.408 441.404 -403.223 441.882 -404.062 442.375 C-405.053 442.045 -406.043 441.715 -407.062 441.375 C-405.545 437.236 -402.619 435.237 -399.125 432.812 C-398.515 432.383 -397.904 431.954 -397.275 431.512 C-389.186 425.94 -380.635 421.153 -372.062 416.375 C-371.327 415.958 -370.591 415.542 -369.833 415.113 C-367.791 413.959 -365.741 412.82 -363.688 411.688 C-362.788 411.179 -362.788 411.179 -361.869 410.66 C-357.558 408.33 -357.558 408.33 -354.527 408.605 C-351.489 408.321 -351.119 407.68 -349.152 405.438 C-348.085 404.096 -347.036 402.741 -346 401.375 C-345.436 400.655 -344.871 399.936 -344.29 399.194 C-342.528 396.935 -340.792 394.659 -339.062 392.375 C-338.531 391.676 -338 390.977 -337.452 390.256 C-334.928 386.927 -332.425 383.584 -329.938 380.227 C-328.029 377.656 -326.093 375.111 -324.125 372.586 C-323.661 371.991 -323.197 371.395 -322.719 370.782 C-321.458 369.169 -320.192 367.559 -318.926 365.949 C-316.921 363.451 -316.921 363.451 -316.062 360.375 C-314.434 358.988 -314.434 358.988 -312.5 357.688 C-311.859 357.251 -311.219 356.814 -310.559 356.363 C-310.065 356.037 -309.571 355.711 -309.062 355.375 C-309.66 350.101 -310.499 345.014 -311.664 339.828 C-311.99 338.349 -312.316 336.87 -312.64 335.391 C-312.811 334.616 -312.982 333.84 -313.158 333.042 C-316.614 317.269 -319.505 301.452 -322 285.5 C-322.149 284.548 -322.298 283.597 -322.452 282.616 C-326.207 258.529 -326.207 258.529 -326.188 251.062 C-326.191 249.552 -326.191 249.552 -326.195 248.012 C-326.062 245.375 -326.062 245.375 -325.062 242.375 C-326.011 243.159 -326.96 243.942 -327.938 244.75 C-328.471 245.191 -329.005 245.632 -329.555 246.086 C-330.773 247.128 -331.929 248.242 -333.062 249.375 C-332.886 245.589 -332.437 243.786 -329.857 240.953 C-324.829 237.005 -318.501 235.629 -312.473 233.82 C-311.106 233.399 -309.739 232.975 -308.373 232.551 C-305.469 231.652 -302.562 230.761 -299.653 229.878 C-295.105 228.496 -290.563 227.095 -286.022 225.69 C-281.439 224.273 -276.855 222.856 -272.27 221.447 C-259.761 217.601 -247.277 213.685 -234.811 209.706 C-231.872 208.769 -228.932 207.838 -225.992 206.907 C-224.219 206.342 -222.445 205.777 -220.672 205.211 C-219.893 204.965 -219.113 204.719 -218.31 204.466 C-214.997 203.403 -211.844 202.279 -208.653 200.876 C-204.188 199.01 -199.67 197.771 -195 196.527 C-194.05 196.27 -193.1 196.013 -192.121 195.747 C-189.103 194.931 -186.083 194.122 -183.062 193.312 C-180.043 192.498 -177.023 191.683 -174.004 190.867 C-172.131 190.361 -170.258 189.857 -168.385 189.354 C-163.598 188.069 -158.824 186.752 -154.062 185.375 C-154.685 177.077 -155.834 168.925 -157.172 160.715 C-157.489 158.737 -157.807 156.758 -158.124 154.78 C-158.457 152.706 -158.792 150.632 -159.128 148.558 C-159.818 144.282 -160.502 140.006 -161.183 135.729 C-161.296 135.022 -161.408 134.315 -161.524 133.587 C-161.75 132.168 -161.976 130.749 -162.202 129.33 C-162.538 127.223 -162.873 125.116 -163.209 123.01 C-163.828 119.132 -164.445 115.253 -165.062 111.375 C-165.312 109.808 -165.312 109.808 -165.567 108.21 C-166.351 103.277 -167.126 98.343 -167.877 93.404 C-168.174 91.464 -168.483 89.525 -168.792 87.586 C-172.514 62.768 -172.514 62.768 -167.062 54.375 C-160.175 45.292 -152.81 39.106 -141.754 36.203 C-138.743 35.277 -136.079 34.012 -133.25 32.625 C-113.834 23.475 -92.308 18.621 -71.699 12.856 C-68.512 11.963 -65.327 11.064 -62.142 10.164 C-59.017 9.282 -55.89 8.403 -52.763 7.526 C-51.297 7.114 -49.832 6.701 -48.367 6.288 C-40.604 4.099 -32.822 2.014 -24.979 0.124 C-24.292 -0.045 -23.604 -0.215 -22.896 -0.389 C-15.505 -2.132 -7.057 -3.551 0 0 Z M-44.375 12.312 C-46.594 12.895 -48.813 13.477 -51.032 14.058 C-69.716 18.969 -88.367 24.009 -106.967 29.231 C-109.719 30.004 -112.476 30.758 -115.236 31.5 C-116.527 31.852 -117.818 32.205 -119.109 32.559 C-120.801 33.014 -120.801 33.014 -122.526 33.478 C-125.213 34.098 -125.213 34.098 -126.062 36.375 C-118.975 35.19 -112.092 33.694 -105.184 31.723 C-103.812 31.339 -103.812 31.339 -102.413 30.947 C-100.456 30.398 -98.499 29.848 -96.542 29.296 C-91.324 27.824 -86.099 26.37 -80.875 24.918 C-79.278 24.474 -79.278 24.474 -77.649 24.021 C-66.789 21.008 -55.901 18.108 -45 15.25 C-44.138 15.023 -43.275 14.795 -42.386 14.561 C-13.134 6.854 -13.134 6.854 -3.062 7.375 C-3.062 6.715 -3.062 6.055 -3.062 5.375 C-15.915 2.197 -31.973 9.032 -44.375 12.312 Z M-133.062 35.375 C-132.733 36.365 -132.402 37.355 -132.062 38.375 C-131.402 37.715 -130.743 37.055 -130.062 36.375 C-131.053 36.045 -132.043 35.715 -133.062 35.375 Z M-129.062 36.375 C-128.733 37.365 -128.402 38.355 -128.062 39.375 C-127.733 38.385 -127.402 37.395 -127.062 36.375 C-127.723 36.375 -128.382 36.375 -129.062 36.375 Z M-8.062 38.375 C-8.062 39.035 -8.062 39.695 -8.062 40.375 C-7.072 40.375 -6.082 40.375 -5.062 40.375 C-4.964 41.08 -4.865 41.786 -4.763 42.513 C-3.24 52.899 -1.2 63.165 0.852 73.457 C1.23 75.367 1.608 77.276 1.986 79.186 C2.974 84.169 3.964 89.152 4.955 94.134 C5.97 99.235 6.981 104.337 7.992 109.439 C9.971 119.419 11.953 129.397 13.938 139.375 C14.928 139.375 15.918 139.375 16.938 139.375 C14.498 127.109 12.056 114.843 9.609 102.578 C8.473 96.883 7.338 91.187 6.206 85.491 C5.113 79.993 4.017 74.494 2.919 68.996 C2.501 66.901 2.084 64.805 1.668 62.709 C1.084 59.769 0.497 56.829 -0.091 53.89 C-0.262 53.027 -0.432 52.164 -0.608 51.275 C-1.555 46.563 -2.674 41.976 -4.062 37.375 C-6.137 37.226 -6.137 37.226 -8.062 38.375 Z M-127.062 40.375 C-127.723 41.035 -128.382 41.695 -129.062 42.375 C-128.072 42.705 -127.082 43.035 -126.062 43.375 C-126.392 42.385 -126.723 41.395 -127.062 40.375 Z M-154.5 48.5 C-160.179 58.95 -158.132 71.485 -156.875 82.816 C-156.743 84.021 -156.612 85.226 -156.476 86.467 C-154.793 101.378 -152.595 116.217 -150.396 131.059 C-149.838 134.829 -149.286 138.599 -148.734 142.369 C-148.094 146.742 -147.452 151.115 -146.808 155.488 C-145.194 166.446 -143.614 177.408 -142.062 188.375 C-141.072 187.385 -141.072 187.385 -140.062 186.375 C-140.11 183.506 -140.11 183.506 -140.645 180.082 C-140.779 179.078 -140.779 179.078 -140.915 178.053 C-141.224 175.763 -141.55 173.475 -141.875 171.188 C-142.099 169.551 -142.323 167.914 -142.546 166.276 C-143.365 160.306 -144.212 154.341 -145.062 148.375 C-145.241 147.122 -145.419 145.869 -145.603 144.577 C-146.192 140.446 -146.781 136.315 -147.371 132.184 C-147.471 131.483 -147.571 130.782 -147.674 130.061 C-148.687 122.973 -149.701 115.886 -150.727 108.801 C-151.022 106.763 -151.317 104.724 -151.611 102.685 C-151.974 100.17 -152.338 97.656 -152.705 95.142 C-154.092 85.515 -155.245 75.984 -155.312 66.25 C-155.343 65.13 -155.343 65.13 -155.375 63.988 C-155.411 58.761 -154.865 53.904 -152.062 49.375 C-149.469 47.789 -149.469 47.789 -146.562 47 C-143.19 46.03 -141.019 45.346 -138.062 43.375 C-144.033 42.797 -149.999 44.576 -154.5 48.5 Z M-125.062 45.375 C-124.907 46.053 -124.751 46.731 -124.59 47.43 C-122.839 55.8 -123.123 63.062 -125.062 71.375 C-124.402 71.375 -123.743 71.375 -123.062 71.375 C-120.303 64.064 -119.395 55.417 -122.562 48.062 C-123.058 47.176 -123.553 46.289 -124.062 45.375 C-124.392 45.375 -124.723 45.375 -125.062 45.375 Z M-22.744 47.622 C-23.729 47.897 -24.714 48.173 -25.728 48.457 C-26.809 48.762 -27.89 49.068 -29.004 49.383 C-30.134 49.7 -31.265 50.018 -32.429 50.345 C-36.162 51.394 -39.893 52.447 -43.625 53.5 C-45.553 54.042 -47.482 54.585 -49.41 55.127 C-62.714 58.868 -76.009 62.637 -89.293 66.449 C-90.405 66.768 -91.516 67.087 -92.661 67.415 C-97.904 68.92 -103.146 70.428 -108.385 71.944 C-117.896 74.686 -127.373 77.33 -137.062 79.375 C-137.443 88.273 -136.012 96.901 -134.727 105.676 C-134.484 107.36 -134.242 109.045 -134.001 110.73 C-133.366 115.15 -132.724 119.569 -132.08 123.988 C-131.559 127.57 -131.044 131.154 -130.529 134.737 C-129.91 139.05 -129.287 143.363 -128.664 147.676 C-128.548 148.483 -128.431 149.29 -128.311 150.121 C-126.995 159.224 -125.629 168.311 -124.062 177.375 C-118.68 176.803 -113.725 175.868 -108.504 174.371 C-107.805 174.172 -107.107 173.973 -106.387 173.768 C-104.131 173.123 -101.878 172.469 -99.625 171.812 C-98.471 171.479 -98.471 171.479 -97.293 171.139 C-87.02 168.169 -76.767 165.134 -66.562 161.938 C-65.532 161.62 -64.501 161.303 -63.44 160.976 C-62.501 160.676 -61.561 160.376 -60.594 160.066 C-59.38 159.683 -59.38 159.683 -58.143 159.291 C-56.016 158.524 -56.016 158.524 -54.746 156.911 C-52.136 154.529 -48.94 153.975 -45.598 153.105 C-44.856 152.904 -44.114 152.702 -43.35 152.494 C-40.944 151.841 -38.535 151.202 -36.125 150.562 C-33.663 149.897 -31.203 149.228 -28.742 148.559 C-27.118 148.117 -25.493 147.676 -23.869 147.236 C-17.487 145.505 -11.139 143.675 -4.812 141.75 C-3.999 141.503 -3.186 141.255 -2.348 141.001 C-0.585 140.462 1.176 139.919 2.938 139.375 C1.443 129.773 -0.474 120.276 -2.469 110.77 C-2.798 109.194 -3.126 107.618 -3.455 106.043 C-4.139 102.762 -4.825 99.482 -5.512 96.202 C-6.388 92.02 -7.262 87.838 -8.135 83.655 C-8.974 79.631 -9.815 75.606 -10.656 71.582 C-10.814 70.827 -10.972 70.072 -11.134 69.294 C-12.733 61.644 -14.342 53.998 -16.062 46.375 C-18.487 46.375 -20.405 46.964 -22.744 47.622 Z M304.508 61.113 C296.809 67.097 290.097 74.095 283.311 81.075 C282.516 81.887 281.721 82.699 280.902 83.535 C280.187 84.274 279.471 85.013 278.734 85.774 C276.938 87.375 276.938 87.375 274.938 87.375 C275.993 82.423 277.163 77.598 278.625 72.75 C279.919 68.15 280.068 64.998 278.938 60.375 C277.156 59.511 277.156 59.511 274.938 59.375 C265.286 67.531 263.515 83.937 260.635 95.575 C259.997 98.136 259.338 100.69 258.668 103.242 C258.299 104.661 257.931 106.081 257.562 107.5 C257.245 108.719 256.928 109.939 256.602 111.195 C255.398 116.304 255.398 116.304 257.012 121.043 C265.177 128.734 275.429 138.098 285.938 142.375 C290.608 141.714 292.782 138.574 295.812 135.25 C303.655 127.061 312.233 123.172 322.754 119.121 C323.392 118.875 324.03 118.629 324.688 118.375 C325.626 118.014 325.626 118.014 326.584 117.645 C332.892 115.139 339.944 112.009 343.324 105.848 C343.527 105.032 343.729 104.216 343.938 103.375 C343.278 102.385 342.618 101.395 341.938 100.375 C335.795 99.782 330.757 101.009 324.938 102.875 C324.163 103.113 323.388 103.352 322.59 103.598 C320.703 104.18 318.82 104.776 316.938 105.375 C316.938 104.055 316.938 102.735 316.938 101.375 C317.52 101.228 318.103 101.081 318.703 100.93 C328.264 98.314 337.638 94.85 344.145 87.086 C345.188 84.835 344.751 83.661 343.938 81.375 C338.415 79.505 333.964 81.948 328.938 84.375 C325.073 86.675 321.324 89.144 317.601 91.665 C316.896 92.142 316.191 92.618 315.465 93.109 C314.833 93.545 314.201 93.98 313.551 94.429 C311.938 95.375 311.938 95.375 309.938 95.375 C309.938 94.385 309.938 93.395 309.938 92.375 C311.539 90.968 311.539 90.968 313.777 89.52 C314.59 88.983 315.402 88.447 316.239 87.895 C317.109 87.331 317.979 86.768 318.875 86.188 C331.037 78.793 331.037 78.793 339.5 67.875 C339.644 67.05 339.789 66.225 339.938 65.375 C339.442 64.88 339.442 64.88 338.938 64.375 C325.592 64.375 315.642 74.636 306.008 82.883 C305.036 83.705 304.064 84.528 303.062 85.375 C302.178 86.138 301.294 86.901 300.383 87.688 C297.938 89.375 297.938 89.375 293.938 89.375 C298.19 83.973 302.892 79.868 308.246 75.57 C314.121 70.778 318.624 66.724 320.938 59.375 C321.191 56.582 321.191 56.582 320.938 54.375 C314.705 52.018 309.384 57.625 304.508 61.113 Z M-127.062 72.375 C-127.062 73.035 -127.062 73.695 -127.062 74.375 C-126.402 74.045 -125.743 73.715 -125.062 73.375 C-125.723 73.045 -126.382 72.715 -127.062 72.375 Z M67.938 122.375 C67.938 123.035 67.938 123.695 67.938 124.375 C68.986 124.466 68.986 124.466 70.055 124.559 C70.965 124.642 71.875 124.726 72.812 124.812 C73.717 124.894 74.622 124.975 75.555 125.059 C77.938 125.375 77.938 125.375 79.938 126.375 C80.312 128.563 80.312 128.563 79.938 131.375 C75.965 135.213 72.646 137.172 67.32 138.848 C66.683 139.052 66.046 139.257 65.389 139.467 C63.284 140.138 61.174 140.788 59.062 141.438 C57.565 141.909 56.067 142.381 54.569 142.854 C49.699 144.385 44.819 145.883 39.938 147.375 C39.09 147.635 38.243 147.894 37.371 148.162 C25.62 151.763 13.85 155.297 2.056 158.754 C0.112 159.324 -1.831 159.896 -3.773 160.468 C-34.351 169.41 -34.351 169.41 -48.625 162.125 C-49.266 161.749 -49.906 161.372 -50.566 160.984 C-57.357 159.327 -65.677 163.409 -72.125 165.5 C-72.991 165.777 -73.856 166.054 -74.748 166.34 C-76.854 167.015 -78.959 167.693 -81.062 168.375 C-81.062 168.705 -81.062 169.035 -81.062 169.375 C-77.433 170.035 -73.803 170.695 -70.062 171.375 C-69.732 173.025 -69.403 174.675 -69.062 176.375 C-72.221 180.472 -75.22 182.161 -80.109 183.629 C-81.326 184.002 -82.542 184.375 -83.795 184.76 C-85.134 185.153 -86.473 185.545 -87.812 185.938 C-89.224 186.363 -90.636 186.79 -92.047 187.219 C-95.896 188.381 -99.751 189.521 -103.609 190.654 C-106.1 191.386 -108.591 192.122 -111.081 192.859 C-120.573 195.667 -130.074 198.446 -139.582 201.203 C-144.426 202.608 -149.268 204.02 -154.107 205.442 C-156.984 206.287 -159.862 207.13 -162.739 207.973 C-164.062 208.361 -165.385 208.75 -166.708 209.14 C-168.516 209.674 -170.327 210.202 -172.137 210.73 C-173.143 211.026 -174.149 211.321 -175.186 211.626 C-186.739 214.635 -197.063 214.092 -208.062 209.375 C-209.548 208.385 -209.548 208.385 -211.062 207.375 C-220.092 207.488 -228.597 210.869 -237.094 213.652 C-238.737 214.185 -240.381 214.717 -242.025 215.248 C-245.453 216.358 -248.879 217.474 -252.303 218.594 C-256.699 220.033 -261.099 221.456 -265.501 222.875 C-268.888 223.968 -272.273 225.069 -275.657 226.172 C-277.279 226.7 -278.903 227.226 -280.527 227.749 C-282.787 228.479 -285.043 229.219 -287.299 229.961 C-287.973 230.176 -288.647 230.392 -289.342 230.614 C-290.935 231.144 -292.503 231.753 -294.062 232.375 C-294.558 233.365 -294.558 233.365 -295.062 234.375 C-294.096 234.606 -293.129 234.836 -292.133 235.074 C-278.125 238.53 -266.065 243.392 -257.75 255.938 C-254.176 262.332 -252.743 269.31 -251.062 276.375 C-250.029 280.303 -249.063 283.84 -246.938 287.312 C-246.009 288.828 -246.009 288.828 -245.062 290.375 C-244.155 289.736 -243.248 289.096 -242.312 288.438 C-237.674 285.494 -232.561 284.204 -227.062 285.375 C-224.828 286.723 -224.828 286.723 -223.062 289.375 C-222.57 292.97 -222.687 296.505 -222.812 300.125 C-222.831 301.109 -222.849 302.092 -222.867 303.105 C-222.914 305.53 -222.98 307.952 -223.062 310.375 C-222.049 310.232 -222.049 310.232 -221.016 310.086 C-220.124 309.975 -219.232 309.864 -218.312 309.75 C-217.431 309.634 -216.549 309.518 -215.641 309.398 C-212.792 309.373 -211.425 309.826 -209.062 311.375 C-206.852 314.691 -207.005 317.113 -207.75 320.875 C-208.665 324.469 -209.995 327.274 -212.062 330.375 C-212.062 331.035 -212.062 331.695 -212.062 332.375 C-211.011 332.313 -209.959 332.251 -208.875 332.188 C-204.879 332.384 -203.194 332.981 -200.062 335.375 C-198.261 338.978 -199.028 342.585 -200.062 346.375 C-203.044 351.855 -206.514 355.155 -212 358 C-220.393 363.321 -222.809 376.213 -225.062 385.375 C-225.062 386.365 -225.062 387.355 -225.062 388.375 C-220.189 388.555 -216.378 388.102 -211.766 386.539 C-210.575 386.14 -209.385 385.741 -208.159 385.33 C-206.877 384.887 -205.595 384.444 -204.312 384 C-202.955 383.538 -201.597 383.076 -200.239 382.615 C-190.973 379.452 -181.777 376.11 -172.609 372.675 C-160.918 368.297 -149.182 364.045 -137.438 359.812 C-136.373 359.429 -135.309 359.045 -134.213 358.65 C-117.891 352.772 -101.523 347.036 -85.125 341.375 C-65.3 334.528 -65.3 334.528 -45.562 327.438 C-44.471 327.042 -43.379 326.647 -42.254 326.24 C-41.294 325.884 -40.333 325.527 -39.344 325.16 C-38.53 324.86 -37.716 324.56 -36.877 324.25 C-34.877 323.513 -34.877 323.513 -34.062 321.375 C-34.155 319.55 -34.155 319.55 -34.25 317.688 C-34.32 312.875 -32.802 310.289 -30.062 306.375 C-28.577 305.385 -28.577 305.385 -27.062 304.375 C-28.053 299.095 -29.043 293.815 -30.062 288.375 C-35.523 288.983 -35.523 288.983 -38.062 290.375 C-40.062 290.415 -42.063 290.418 -44.062 290.375 C-51.914 271.308 -51.914 271.308 -49.062 262.375 C-45.613 257.774 -40.825 256.531 -35.59 254.738 C-34.67 254.413 -33.751 254.088 -32.804 253.754 C-29.873 252.721 -26.937 251.704 -24 250.688 C-22.02 249.993 -20.04 249.297 -18.061 248.6 C1.065 241.877 1.065 241.877 6.938 242.375 C14.408 246.398 16.73 251.493 19.195 259.328 C20.254 263.675 20.313 266.095 18.938 270.375 C15.11 273.747 10.631 275.498 5.938 277.375 C6.598 281.995 7.257 286.615 7.938 291.375 C12.217 293.584 15.34 295.132 20.146 293.732 C24.976 291.837 29.617 289.553 34.217 287.157 C35.938 286.375 35.938 286.375 37.938 286.375 C38.267 287.365 38.598 288.355 38.938 289.375 C38.415 289.545 37.893 289.715 37.355 289.891 C31.169 291.927 25.049 294.125 18.938 296.375 C19.593 299.985 19.593 299.985 20.938 303.375 C28.063 301.327 35.03 298.974 41.988 296.418 C43.549 295.848 43.549 295.848 45.141 295.268 C48.512 294.036 51.881 292.8 55.25 291.562 C56.404 291.14 57.557 290.717 58.746 290.281 C118.085 274.024 118.085 274.024 163.938 239.375 C164.344 232.567 163.262 226.11 162.145 219.406 C161.863 217.677 161.863 217.677 161.575 215.914 C161.175 213.472 160.773 211.032 160.367 208.591 C159.761 204.944 159.168 201.294 158.576 197.645 C156.685 186.091 154.663 174.578 152.285 163.113 C152.085 162.148 151.885 161.183 151.679 160.189 C148.359 144.569 143.768 128.855 129.938 119.375 C110.263 107.659 87.751 115.641 67.938 122.375 Z M-29.062 155.375 C-28.733 156.035 -28.402 156.695 -28.062 157.375 C-27.402 157.375 -26.743 157.375 -26.062 157.375 C-25.733 158.695 -25.402 160.015 -25.062 161.375 C-24.072 161.375 -23.082 161.375 -22.062 161.375 C-22.688 158.851 -22.688 158.851 -24.062 156.375 C-26.61 155.481 -26.61 155.481 -29.062 155.375 Z M-187.062 202.375 C-187.062 203.035 -187.062 203.695 -187.062 204.375 C-185.103 206.089 -183.104 207.759 -181.062 209.375 C-180.663 205.544 -180.663 205.544 -182.375 203.625 C-184.114 202.077 -184.114 202.077 -187.062 202.375 Z M-319.062 240.375 C-325.618 251.363 -321.453 266.425 -319.5 278.438 C-319.23 280.143 -318.96 281.849 -318.69 283.554 C-315.198 305.38 -311.306 327.199 -306.375 348.75 C-306.197 349.551 -306.019 350.353 -305.836 351.178 C-304.636 356.158 -302.785 360.031 -300.062 364.375 C-298.413 363.423 -296.768 362.463 -295.125 361.5 C-294.208 360.966 -293.292 360.433 -292.348 359.883 C-289.955 358.578 -289.955 358.578 -289.062 356.375 C-288.976 354.879 -288.952 353.379 -288.961 351.881 C-288.967 350.484 -288.967 350.484 -288.973 349.059 C-289.021 344.809 -289.071 340.559 -289.14 336.308 C-289.172 334.063 -289.193 331.818 -289.203 329.572 C-289.218 326.34 -289.266 323.11 -289.32 319.879 C-289.32 318.873 -289.319 317.866 -289.318 316.829 C-289.381 314.245 -289.469 311.892 -290.062 309.375 C-292.39 307.244 -292.39 307.244 -295.062 306.375 C-300.336 296.959 -300.577 281.873 -299.645 271.414 C-299.062 269.375 -299.062 269.375 -296.062 267.375 C-293.23 267.179 -290.518 267.096 -287.688 267.125 C-286.554 267.113 -286.554 267.113 -285.398 267.102 C-281.224 267.116 -277.791 267.28 -274.062 269.375 C-272.162 272.225 -271.738 273.285 -271.281 276.508 C-271.161 277.315 -271.041 278.122 -270.918 278.953 C-270.801 279.794 -270.683 280.634 -270.562 281.5 C-269.648 287.871 -268.526 294.105 -267.062 300.375 C-266.61 299.468 -266.61 299.468 -266.148 298.543 C-264.851 295.953 -263.534 293.377 -262.188 290.812 C-261.695 289.862 -261.203 288.912 -260.695 287.934 C-259.055 285.364 -257.605 284.009 -255.062 282.375 C-256.138 269.843 -259.442 258.083 -269.062 249.375 C-278.756 241.442 -307.967 231.615 -319.062 240.375 Z M-7.852 247.387 C-8.477 247.597 -9.102 247.807 -9.746 248.023 C-11.73 248.693 -13.709 249.378 -15.688 250.062 C-16.991 250.503 -18.294 250.942 -19.598 251.381 C-25.875 253.505 -32.12 255.72 -38.336 258.02 C-39.885 258.592 -39.885 258.592 -41.466 259.175 C-43.982 260.338 -45.433 261.15 -47.062 263.375 C-47.468 268.973 -46.814 274.246 -45.812 279.75 C-45.703 280.46 -45.593 281.171 -45.48 281.902 C-44.779 285.954 -44.779 285.954 -42.121 288.922 C-39.912 289.615 -39.912 289.615 -37.375 288.25 C-35.031 286.633 -35.031 286.633 -34.297 284.703 C-33.95 281.262 -34.981 278.536 -36 275.25 C-38.062 268.524 -38.062 268.524 -38.062 266.375 C-37.124 266.128 -37.124 266.128 -36.166 265.877 C-28.229 263.756 -20.398 261.341 -12.562 258.875 C-4.101 256.213 4.357 253.628 12.938 251.375 C8.638 246.652 8.638 246.652 2.737 245.187 C-1.178 245.381 -4.151 246.127 -7.852 247.387 Z M161.875 249.062 C159.657 251.192 159.657 251.192 160 253.875 C159.938 256.375 159.938 256.375 158.019 258.269 C154.07 260.968 149.983 262.738 145.578 264.566 C144.193 265.15 144.193 265.15 142.78 265.745 C132.175 270.174 121.441 274.26 110.688 278.312 C108.53 279.13 106.372 279.947 104.214 280.764 C86.482 287.468 68.694 294.022 50.878 300.5 C41.473 303.925 32.111 307.362 22.938 311.375 C23.741 320.063 25.47 328.502 27.209 337.045 C27.541 338.715 27.541 338.715 27.879 340.418 C28.082 341.419 28.285 342.419 28.494 343.45 C29.13 347.645 29.463 351.116 27.812 355.07 C25.442 357.984 23.421 358.862 19.938 360.25 C19.036 360.613 19.036 360.613 18.117 360.983 C16.064 361.8 14.002 362.588 11.938 363.375 C11.15 363.683 10.363 363.991 9.552 364.308 C7.06 365.281 4.563 366.238 2.062 367.188 C1.279 367.49 0.495 367.792 -0.312 368.103 C-6.3 370.322 -13.023 372.701 -19.312 370.375 C-19.936 370.169 -20.56 369.962 -21.203 369.75 C-27.911 364.79 -28.444 355.735 -29.75 348.125 C-30.169 345.786 -30.59 343.448 -31.012 341.109 C-31.19 340.08 -31.369 339.051 -31.553 337.991 C-32.023 335.279 -32.023 335.279 -33.062 332.375 C-37.132 332.972 -40.881 333.858 -44.777 335.169 C-45.874 335.537 -46.972 335.904 -48.102 336.283 C-49.271 336.68 -50.44 337.078 -51.645 337.488 C-52.854 337.899 -54.064 338.31 -55.311 338.733 C-57.861 339.602 -60.41 340.474 -62.959 341.348 C-66.227 342.469 -69.502 343.57 -72.778 344.666 C-75.905 345.718 -79.024 346.792 -82.145 347.863 C-83.324 348.255 -84.503 348.647 -85.717 349.051 C-86.799 349.427 -87.881 349.804 -88.995 350.193 C-89.952 350.518 -90.909 350.844 -91.895 351.179 C-94.219 352.17 -94.219 352.17 -94.907 354.374 C-95.101 356.871 -94.612 358.568 -93.805 360.938 C-93.512 361.811 -93.219 362.685 -92.917 363.586 C-92.594 364.506 -92.27 365.427 -91.938 366.375 C-91.61 367.316 -91.282 368.257 -90.945 369.227 C-90.288 371.097 -89.626 372.966 -88.958 374.832 C-88.208 376.962 -87.508 379.096 -86.832 381.25 C-84.901 386.964 -84.901 386.964 -80.637 390.992 C-78.883 391.81 -77.109 392.587 -75.316 393.316 C-73.062 394.375 -73.062 394.375 -70.875 397.188 C-69.581 402.266 -69.747 406.082 -72.336 410.594 C-74.912 414.202 -76.929 416.6 -81.062 418.375 C-80.103 417.168 -80.103 417.168 -79.125 415.938 C-76.518 411.984 -75.742 408.083 -76.062 403.375 C-77.223 399.801 -77.223 399.801 -80.062 397.375 C-84.369 395.657 -88.216 395.29 -92.812 395.75 C-93.885 395.626 -94.957 395.503 -96.062 395.375 C-97.59 393.432 -98.705 391.406 -99.887 389.238 C-100.979 387.156 -100.979 387.156 -103.5 386.125 C-107.21 386.487 -109.109 388.13 -112.062 390.375 C-113.291 391.262 -114.523 392.145 -115.758 393.023 C-116.379 393.466 -117.001 393.909 -117.641 394.365 C-118.11 394.698 -118.579 395.032 -119.062 395.375 C-119.355 394.502 -119.647 393.628 -119.949 392.729 C-121.035 389.497 -122.128 386.268 -123.225 383.04 C-123.699 381.641 -124.17 380.241 -124.639 378.841 C-125.312 376.83 -125.995 374.823 -126.68 372.816 C-127.088 371.607 -127.497 370.397 -127.917 369.151 C-128.757 366.254 -128.757 366.254 -131.062 365.375 C-133.375 365.964 -133.375 365.964 -136.021 366.986 C-137.057 367.364 -138.094 367.742 -139.162 368.131 C-140.292 368.552 -141.422 368.973 -142.586 369.406 C-143.756 369.835 -144.927 370.264 -146.133 370.705 C-149.267 371.855 -152.399 373.01 -155.53 374.17 C-161.066 376.217 -166.608 378.247 -172.148 380.281 C-173.342 380.72 -174.536 381.159 -175.766 381.611 C-182.967 384.254 -190.177 386.865 -197.414 389.406 C-198.199 389.683 -198.984 389.96 -199.793 390.245 C-212.42 394.646 -212.42 394.646 -217.902 394.57 C-219.154 394.561 -219.154 394.561 -220.432 394.551 C-221.703 394.526 -221.703 394.526 -223 394.5 C-223.875 394.491 -224.749 394.482 -225.65 394.473 C-227.788 394.449 -229.925 394.413 -232.062 394.375 C-237.292 401.696 -234.52 410.843 -233.167 419.16 C-232.548 422.802 -231.87 426.432 -231.188 430.062 C-231.039 430.86 -230.891 431.657 -230.738 432.479 C-225.022 463.126 -218.41 493.717 -210.348 523.837 C-208.006 532.761 -207.394 539.449 -209.438 548.562 C-209.82 550.316 -209.82 550.316 -210.211 552.105 C-211.062 555.375 -211.062 555.375 -212.227 558.113 C-213.372 560.488 -213.372 560.488 -212.062 563.375 C-211.429 562.046 -210.806 560.711 -210.188 559.375 C-209.665 558.261 -209.665 558.261 -209.133 557.125 C-206.453 550.241 -205.783 544.182 -205.938 536.875 C-205.947 536.053 -205.956 535.23 -205.965 534.383 C-205.988 532.38 -206.024 530.377 -206.062 528.375 C-205.109 528.275 -204.156 528.175 -203.175 528.072 C-198.347 527.375 -193.87 525.806 -189.27 524.227 C-188.312 523.903 -187.355 523.579 -186.369 523.246 C-183.202 522.171 -180.038 521.087 -176.875 520 C-175.219 519.434 -175.219 519.434 -173.53 518.856 C-127.518 503.115 -82.042 485.848 -36.544 468.688 C-33.376 467.493 -30.208 466.3 -27.04 465.106 C12.357 450.253 51.539 434.823 90.602 419.115 C96.147 416.888 101.697 414.673 107.246 412.457 C109.49 411.561 111.733 410.664 113.977 409.768 C117.321 408.432 120.664 407.097 124.008 405.762 C136.681 400.703 149.335 395.606 161.938 390.375 C161.067 384.408 161.067 384.408 157.938 379.375 C154.338 378.479 154.338 378.479 150.938 378.375 C148.969 373.627 148.577 370.364 149.938 365.375 C151.947 362.512 153.375 360.735 156.871 359.93 C160.555 359.721 162.608 360.193 165.875 362 C168.429 364.94 168.938 366.488 168.938 370.375 C167.244 375.078 164.998 377.522 160.938 380.375 C162.918 383.84 162.918 383.84 164.938 387.375 C169.779 386.787 173.898 385.298 178.312 383.312 C178.953 383.031 179.594 382.749 180.254 382.459 C181.818 381.77 183.378 381.074 184.938 380.375 C182.077 356.823 178.619 333.373 174.938 309.938 C174.78 308.933 174.78 308.933 174.619 307.908 C171.449 287.721 168.203 267.547 164.938 247.375 C163.622 247.269 163.622 247.269 161.875 249.062 Z M-11.694 281.683 C-13.619 282.248 -15.547 282.802 -17.475 283.355 C-18.681 283.71 -19.886 284.064 -21.129 284.43 C-22.242 284.754 -23.355 285.079 -24.502 285.414 C-27.208 286.098 -27.208 286.098 -28.062 288.375 C-27.653 290.763 -27.162 293.137 -26.625 295.5 C-26.338 296.781 -26.05 298.063 -25.754 299.383 C-25.526 300.37 -25.298 301.358 -25.062 302.375 C-15.188 299.623 -5.652 295.974 3.938 292.375 C3.797 290.416 3.65 288.458 3.5 286.5 C3.419 285.409 3.338 284.319 3.254 283.195 C3.107 280.428 3.107 280.428 1.938 278.375 C-2.665 278.375 -7.307 280.39 -11.694 281.683 Z M-253.062 286.375 C-267.071 300.939 -268.333 325.468 -270.062 344.375 C-271.548 344.87 -271.548 344.87 -273.062 345.375 C-273.722 345.045 -274.382 344.715 -275.062 344.375 C-275.346 335.934 -273.976 328.076 -272.484 319.789 C-270.949 310.84 -269.813 302.009 -272.562 293.188 C-272.841 292.266 -273.119 291.344 -273.406 290.395 C-273.623 289.728 -273.839 289.062 -274.062 288.375 C-275.382 288.375 -276.702 288.375 -278.062 288.375 C-285.36 303.043 -285.399 316.703 -285.125 332.75 C-284.588 367.548 -284.588 367.548 -290.688 378.5 C-291.207 379.488 -291.207 379.488 -291.736 380.497 C-294.664 385.949 -298.017 391.068 -301.594 396.117 C-303.244 398.205 -303.244 398.205 -303.062 400.375 C-301.482 401.601 -299.845 402.755 -298.188 403.875 C-290.311 409.465 -282.945 415.941 -278.062 424.375 C-277.134 423.529 -276.206 422.684 -275.25 421.812 C-268.12 415.747 -260.195 411.374 -251.812 407.312 C-242.076 402.881 -242.076 402.881 -235.875 394.605 C-233.968 388.807 -232.752 382.917 -231.562 376.938 C-229.178 365.638 -222.486 361.12 -213.551 354.52 C-209.163 351.234 -205.529 348.415 -203.062 343.375 C-202.727 340.123 -202.727 340.123 -203.062 337.375 C-207.613 336.116 -210.166 336.066 -214.375 338.312 C-222.025 343.009 -228.793 348.948 -235.273 355.125 C-237.062 356.375 -237.062 356.375 -241.062 356.375 C-237.442 347.56 -231.59 342.391 -223.438 337.625 C-217.232 333.651 -213.555 327.045 -211.34 320.113 C-210.907 318.094 -210.907 318.094 -211.062 315.375 C-212.96 313.016 -212.96 313.016 -216.188 313.312 C-221.323 314.218 -224.493 317.818 -228.062 321.375 C-228.58 321.868 -229.097 322.361 -229.629 322.869 C-234.217 327.31 -238.113 332.083 -241.938 337.188 C-242.808 338.331 -242.808 338.331 -243.695 339.498 C-246.629 343.278 -246.629 343.278 -249.062 347.375 C-250.053 347.045 -251.042 346.715 -252.062 346.375 C-238.712 324.162 -238.712 324.162 -230.914 317.555 C-228.38 314.572 -227.908 311.507 -227.312 307.75 C-227.19 307.042 -227.067 306.335 -226.94 305.605 C-226.054 300.179 -225.706 294.872 -226.062 289.375 C-231.274 289.588 -234.408 290.602 -238.238 294.191 C-248.629 306.629 -253.483 323.191 -258.707 338.227 C-259.099 339.353 -259.099 339.353 -259.499 340.502 C-260.159 342.368 -260.159 342.368 -260.062 344.375 C-261.053 344.375 -262.043 344.375 -263.062 344.375 C-260.57 331.865 -256.639 320.301 -251.847 308.487 C-250.17 303.973 -249.927 300.08 -249.938 295.25 C-249.935 294.01 -249.932 292.77 -249.93 291.492 C-249.846 288.468 -249.846 288.468 -251.062 286.375 C-251.722 286.375 -252.382 286.375 -253.062 286.375 Z M-2.195 298.273 C-3.331 298.67 -4.467 299.067 -5.637 299.477 C-6.808 299.897 -7.98 300.317 -9.188 300.75 C-10.367 301.163 -11.546 301.575 -12.762 302 C-20.926 304.232 -20.926 304.232 -27.292 309.179 C-30.514 318.362 -27.19 329.666 -25.292 338.904 C-24.81 341.264 -24.355 343.627 -23.902 345.992 C-23.598 347.513 -23.292 349.034 -22.984 350.555 C-22.852 351.252 -22.719 351.949 -22.583 352.667 C-21.456 357.999 -19.671 362.575 -15.061 365.756 C-7.439 368.116 1.275 363.67 8.25 360.938 C9.321 360.53 10.391 360.122 11.494 359.701 C19.295 357.405 19.295 357.405 24.938 352.375 C25.218 346.356 24.485 340.907 23.293 335.02 C23.123 334.155 22.952 333.29 22.776 332.399 C22.416 330.584 22.052 328.77 21.684 326.956 C21.125 324.187 20.584 321.415 20.045 318.643 C19.691 316.872 19.336 315.102 18.98 313.332 C18.821 312.508 18.661 311.684 18.497 310.835 C17.406 305.55 16.037 301.474 12.125 297.562 C7.383 294.988 2.623 296.573 -2.195 298.273 Z M-105.148 356.055 C-106.162 356.407 -107.175 356.759 -108.219 357.121 C-109.281 357.494 -110.343 357.866 -111.438 358.25 C-112.492 358.615 -113.546 358.98 -114.633 359.355 C-118.93 360.855 -122.983 362.335 -127.062 364.375 C-124.092 373.285 -121.123 382.195 -118.062 391.375 C-114.562 389.625 -112.063 387.822 -109.062 385.375 C-105.995 383.841 -104.471 383.719 -101.062 384.375 C-98.672 387.154 -96.849 390.182 -95.062 393.375 C-92.092 392.385 -89.123 391.395 -86.062 390.375 C-87.571 382.339 -90.291 374.944 -93.188 367.312 C-93.661 366.053 -94.133 364.793 -94.605 363.533 C-95.752 360.478 -96.905 357.426 -98.062 354.375 C-100.688 354.375 -102.665 355.192 -105.148 356.055 Z M154.938 365.375 C155.256 367.483 155.256 367.483 155.938 369.375 C156.268 368.055 156.597 366.735 156.938 365.375 C159.577 365.375 162.217 365.375 164.938 365.375 C164.607 364.715 164.278 364.055 163.938 363.375 C158.917 362.872 158.917 362.872 154.938 365.375 Z M-262.562 417.602 C-268.438 423.758 -268.438 423.758 -271 431.336 C-269.705 434.153 -267.951 436.419 -266.062 438.875 C-261.626 444.643 -261.626 444.643 -261.062 448.375 C-261.936 448.773 -261.936 448.773 -262.828 449.18 C-265.124 450.408 -266.866 451.778 -268.812 453.5 C-269.426 454.039 -270.04 454.578 -270.672 455.133 C-271.131 455.543 -271.59 455.953 -272.062 456.375 C-270.093 464.594 -268.112 472.81 -266.115 481.023 C-265.188 484.838 -264.265 488.654 -263.351 492.472 C-262.466 496.171 -261.57 499.866 -260.667 503.56 C-260.327 504.956 -259.992 506.353 -259.66 507.751 C-257.295 517.71 -254.087 526.976 -250.062 536.375 C-245.615 536.399 -241.168 536.418 -236.72 536.43 C-235.209 536.435 -233.698 536.442 -232.187 536.45 C-230.007 536.463 -227.828 536.468 -225.648 536.473 C-224.339 536.478 -223.03 536.483 -221.681 536.489 C-218.372 536.385 -215.307 536.009 -212.062 535.375 C-212.292 534.48 -212.521 533.586 -212.757 532.664 C-215.773 520.801 -218.506 508.88 -221.188 496.938 C-221.423 495.892 -221.658 494.846 -221.901 493.768 C-226.737 472.233 -231.178 450.623 -235.522 428.984 C-236.974 421.767 -238.49 414.566 -240.062 407.375 C-247.171 407.375 -257.559 412.676 -262.562 417.602 Z M285.938 452.375 C283.628 454.685 281.317 456.995 278.938 459.375 C281.732 462.169 283.639 463.387 287.125 465.062 C288.026 465.499 288.927 465.936 289.855 466.387 C290.543 466.713 291.23 467.039 291.938 467.375 C294.521 465.125 294.521 465.125 296.938 462.375 C296.938 461.055 296.938 459.735 296.938 458.375 C293.308 456.395 289.678 454.415 285.938 452.375 Z M330.688 469 C330.114 469.522 329.54 470.044 328.949 470.582 C325.283 473.964 322.051 477.477 318.938 481.375 C319.597 483.025 320.258 484.675 320.938 486.375 C323.31 485.09 325.62 483.753 327.938 482.375 C328.656 481.997 329.374 481.62 330.113 481.23 C333.901 478.938 335.626 477.452 336.887 473.098 C337.384 469.85 337.743 466.654 337.938 463.375 C335.469 463.375 332.525 467.299 330.688 469 Z M268.938 470.375 C267.173 472.145 267.173 472.145 265.938 474.375 C267.143 477.991 268.009 478.322 271.25 480.125 C272.03 480.574 272.81 481.022 273.613 481.484 C275.86 482.513 275.86 482.513 278.105 482.328 C280.208 481.465 280.208 481.465 281.188 478.812 C281.559 477.606 281.559 477.606 281.938 476.375 C280.149 475.37 278.356 474.371 276.562 473.375 C275.565 472.818 274.567 472.261 273.539 471.688 C271.126 470.225 271.126 470.225 268.938 470.375 Z M304.938 493.375 C303.95 494.786 302.971 496.205 302.048 497.659 C300.276 500.396 298.251 502.928 296.25 505.5 C295.373 506.634 294.497 507.768 293.621 508.902 C293.179 509.475 292.736 510.047 292.281 510.636 C290.116 513.438 287.957 516.245 285.812 519.062 C284.695 520.522 284.695 520.522 283.555 522.012 C281.749 524.173 281.749 524.173 281.938 526.375 C278.328 524.389 274.721 522.399 271.116 520.406 C269.896 519.732 268.675 519.059 267.454 518.387 C259.769 514.16 252.246 509.779 244.864 505.039 C241.94 503.376 239.157 502.323 235.938 501.375 C235.278 504.345 234.617 507.315 233.938 510.375 C235.089 510.813 236.24 511.252 237.426 511.703 C253.258 517.934 267.946 526.296 280.938 537.375 C284.092 533.566 286.86 529.572 289.562 525.438 C293.084 520.106 296.671 514.831 300.375 509.625 C300.994 508.749 300.994 508.749 301.625 507.856 C303.215 505.636 304.728 503.568 306.742 501.715 C307.137 501.273 307.531 500.831 307.938 500.375 C307.703 496.73 307.703 496.73 306.938 493.375 C306.278 493.375 305.618 493.375 304.938 493.375 Z " fill="#000000" transform="translate(445.0625,183.625)"/>
<path d="M0 0 C0.99 0.33 1.98 0.66 3 1 C4.688 4.562 4.688 4.562 6 8 C5.01 8.33 4.02 8.66 3 9 C1.68 6.36 0.36 3.72 -1 1 C-0.67 0.67 -0.34 0.34 0 0 Z " fill="#000000" transform="translate(253,199)"/>
<path d="M0 0 C0.66 0.33 1.32 0.66 2 1 C1.746 2.482 1.471 3.961 1.188 5.438 C1.037 6.261 0.886 7.085 0.73 7.934 C0.489 8.616 0.248 9.297 0 10 C-0.99 10.33 -1.98 10.66 -3 11 C-2.691 9.541 -2.378 8.083 -2.062 6.625 C-1.888 5.813 -1.714 5.001 -1.535 4.164 C-1 2 -1 2 0 0 Z " fill="#000000" transform="translate(208,210)"/>
<path d="M0 0 C0.66 0 1.32 0 2 0 C2 1.32 2 2.64 2 4 C3.65 3.67 5.3 3.34 7 3 C7 3.66 7 4.32 7 5 C3.688 6.125 3.688 6.125 0 7 C-0.99 6.34 -1.98 5.68 -3 5 C-2.34 4.67 -1.68 4.34 -1 4 C-0.348 1.975 -0.348 1.975 0 0 Z " fill="#000000" transform="translate(498,264)"/>
<path d="M0 0 C0.66 0 1.32 0 2 0 C2 1.32 2 2.64 2 4 C3.32 4.33 4.64 4.66 6 5 C5.381 5.124 4.763 5.248 4.125 5.375 C1.809 5.872 1.809 5.872 0 8 C0 7.01 0 6.02 0 5 C-0.66 4.67 -1.32 4.34 -2 4 C-1.34 4 -0.68 4 0 4 C0 2.68 0 1.36 0 0 Z " fill="#000000" transform="translate(625,290)"/>
<path d="M0 0 C12.512 4.868 21.368 12.581 27.625 24.504 C29.188 28.129 29.188 28.129 29.188 31.129 C26.188 30.129 26.188 30.129 25.23 28.344 C24.807 27.216 24.807 27.216 24.375 26.066 C19.659 15.01 11.331 8.089 0.617 2.879 C-2.093 2.042 -4.296 1.928 -7.125 2.004 C-8.008 2.022 -8.891 2.04 -9.801 2.059 C-10.797 2.093 -10.797 2.093 -11.812 2.129 C-11.812 1.469 -11.812 0.809 -11.812 0.129 C-7.774 -1.89 -4.166 -1.29 0 0 Z " fill="#000000" transform="translate(555.8125,302.87109375)"/>
<path d="M0 0 C0.66 0 1.32 0 2 0 C2.66 0.99 3.32 1.98 4 3 C4.99 3.33 5.98 3.66 7 4 C5.68 4.33 4.36 4.66 3 5 C3.33 6.32 3.66 7.64 4 9 C3.34 9 2.68 9 2 9 C2 8.01 2 7.02 2 6 C0.35 6 -1.3 6 -3 6 C-2.505 5.567 -2.01 5.134 -1.5 4.688 C0.332 3.003 0.332 3.003 0 0 Z " fill="#000000" transform="translate(256,334)"/>
<path d="M0 0 C3.224 2.54 5.138 5.092 6.082 9.059 C6.755 15.006 5.375 19.188 2.082 24.059 C-2.767 28.561 -5.907 29.409 -12.375 29.344 C-16.931 28.833 -19.497 26.381 -22.73 23.371 C-24.946 19.057 -25.617 14.544 -24.293 9.836 C-22.153 5.066 -19.607 2.553 -14.918 0.059 C-10.189 -1.518 -4.615 -2.265 0 0 Z M-20.355 7.184 C-22.676 11.453 -22.813 15.31 -21.918 20.059 C-20.015 23.676 -17.858 25.745 -13.918 27.059 C-8.566 27.404 -5.248 27.547 -0.918 24.059 C3.492 19.036 4.423 16.117 4.375 9.543 C3.967 6.087 2.619 4.372 0.082 2.059 C-7.507 -1.736 -14.586 2.154 -20.355 7.184 Z " fill="#000000" transform="translate(151.91796875,344.94140625)"/>
<path d="M0 0 C0.99 0.33 1.98 0.66 3 1 C7.627 12.463 6.305 25.915 6 38 C5.67 38 5.34 38 5 38 C4.955 37.432 4.91 36.864 4.864 36.279 C4.044 26.172 3.22 16.315 0.586 6.496 C0 4 0 4 0 0 Z " fill="#000000" transform="translate(587,350)"/>
<path d="M0 0 C2.294 2.294 2.545 3.472 3.289 6.578 C3.508 7.492 3.727 8.406 3.953 9.348 C4.175 10.305 4.397 11.263 4.625 12.25 C4.969 13.663 4.969 13.663 5.32 15.105 C7.503 24.37 7.503 24.37 7 29 C6.34 29.99 5.68 30.98 5 32 C4.01 31.67 3.02 31.34 2 31 C2.227 29.989 2.454 28.979 2.688 27.938 C3.447 22.231 1.93 16.831 0.691 11.293 C0 8 0 8 0 5 C-0.989 5.303 -1.978 5.606 -2.998 5.918 C-6.661 7.039 -10.325 8.156 -13.989 9.272 C-15.576 9.756 -17.163 10.242 -18.75 10.728 C-21.028 11.425 -23.307 12.119 -25.586 12.812 C-26.297 13.031 -27.009 13.25 -27.742 13.475 C-32.772 15 -32.772 15 -35 15 C-34.807 15.883 -34.613 16.766 -34.414 17.676 C-32.804 25.096 -31.298 32.519 -30 40 C-28.411 39.459 -28.411 39.459 -26.789 38.906 C-25.401 38.437 -24.013 37.969 -22.625 37.5 C-21.926 37.262 -21.228 37.023 -20.508 36.777 C-15.227 35 -15.227 35 -13 35 C-12.67 35.99 -12.34 36.98 -12 38 C-18.232 40.469 -24.513 42.319 -31 44 C-34.269 39.375 -35.417 34.478 -36.75 29.062 C-36.983 28.181 -37.217 27.3 -37.457 26.393 C-39.817 16.959 -39.817 16.959 -38 13 C-31.199 8.248 -21.821 6.635 -13.938 4.25 C-12.581 3.835 -11.225 3.42 -9.869 3.004 C-6.581 1.997 -3.291 0.996 0 0 Z " fill="#000000" transform="translate(532,354)"/>
<path d="M0 0 C0 0.99 0 1.98 0 3 C-5.016 4.41 -10.033 5.816 -15.051 7.218 C-16.757 7.695 -18.462 8.173 -20.167 8.652 C-22.623 9.343 -25.081 10.029 -27.539 10.715 C-28.296 10.928 -29.052 11.142 -29.831 11.362 C-33.87 12.484 -37.842 13.399 -42 14 C-39.18 11.18 -35.78 10.403 -32.07 9.18 C-31.284 8.916 -30.497 8.653 -29.686 8.381 C-28.021 7.825 -26.355 7.272 -24.688 6.722 C-22.139 5.88 -19.595 5.025 -17.051 4.168 C-15.433 3.629 -13.814 3.092 -12.195 2.555 C-11.435 2.298 -10.674 2.042 -9.891 1.778 C-6.389 0.632 -3.724 0 0 0 Z " fill="#000000" transform="translate(238,399)"/>
<path d="M0 0 C6.542 10.73 0.605 29.695 -2 41 C-5.85 56.584 -10.755 71.838 -16 87 C-16.99 86.67 -17.98 86.34 -19 86 C-18.663 84.919 -18.325 83.838 -17.978 82.725 C-5.681 44.098 -5.681 44.098 -1 4 C-17.995 19 -22.07 55.523 -25 77 C-25.99 77 -26.98 77 -28 77 C-27.603 60.199 -22.785 43.656 -17.562 27.812 C-17.203 26.715 -16.844 25.618 -16.475 24.488 C-8.138 0 -8.138 0 0 0 Z " fill="#000000" transform="translate(711,412)"/>
<path d="M0 0 C0.99 0 1.98 0 3 0 C2.34 3.96 1.68 7.92 1 12 C0.01 12 -0.98 12 -2 12 C-1.34 8.04 -0.68 4.08 0 0 Z " fill="#000000" transform="translate(593,415)"/>
<path d="M0 0 C6.947 0.331 12.401 1.676 18 6 C18.33 6.99 18.66 7.98 19 9 C17.024 8.019 15.056 7.03 13.105 6 C8.796 3.753 4.716 2.179 0 1 C0 0.67 0 0.34 0 0 Z " fill="#000000" transform="translate(172,419)"/>
<path d="M0 0 C-0.33 0.99 -0.66 1.98 -1 3 C-3.557 4.027 -3.557 4.027 -6.941 4.938 C-8.165 5.275 -9.389 5.613 -10.65 5.961 C-11.954 6.308 -13.258 6.654 -14.562 7 C-17.085 7.684 -19.608 8.372 -22.129 9.062 C-23.323 9.389 -24.517 9.715 -25.747 10.051 C-28.451 10.84 -31.036 11.716 -33.652 12.75 C-37 14 -37 14 -41 14 C-41 13.01 -41 12.02 -41 11 C-31.227 7.485 -21.439 4.018 -11.5 1 C-10.801 0.781 -10.103 0.561 -9.383 0.335 C-5.949 -0.681 -3.399 -1.387 0 0 Z " fill="#000000" transform="translate(301,429)"/>
<path d="M0 0 C3 1 3 1 4.106 2.522 C6.672 7.703 7.941 12.542 8.75 18.25 C8.875 19.039 9 19.828 9.129 20.641 C9.673 24.178 10 27.401 10 31 C9.01 30.67 8.02 30.34 7 30 C6.887 29.154 6.887 29.154 6.772 28.291 C6.42 25.693 6.054 23.096 5.688 20.5 C5.57 19.613 5.452 18.726 5.33 17.812 C4.413 11.416 2.907 5.814 0 0 Z " fill="#000000" transform="translate(191,430)"/>
<path d="M0 0 C0.557 0.248 1.114 0.495 1.688 0.75 C4.031 9.645 -1.022 19.165 -4.438 27.312 C-4.85 28.303 -5.262 29.293 -5.687 30.312 C-12.155 45.465 -19.812 60.09 -27.312 74.75 C-28.303 74.75 -29.293 74.75 -30.312 74.75 C-29.697 70.383 -28.02 66.862 -26 63 C-25.274 61.576 -24.55 60.152 -23.828 58.727 C-23.429 57.941 -23.03 57.155 -22.619 56.345 C-9.699 30.765 -9.699 30.765 -0.312 3.75 C-11.439 11.799 -17.545 25.717 -24.25 37.418 C-27.799 43.611 -31.4 49.774 -35 55.938 C-35.625 57.008 -36.25 58.078 -36.893 59.181 C-38.366 61.704 -39.839 64.227 -41.312 66.75 C-42.303 66.42 -43.293 66.09 -44.312 65.75 C-39.111 54.705 -32.997 44.16 -26.93 33.575 C-25.455 30.999 -23.991 28.418 -22.527 25.836 C-7.31 -0.79 -7.31 -0.79 0 0 Z " fill="#000000" transform="translate(752.3125,433.25)"/>
<path d="M0 0 C0.66 0 1.32 0 2 0 C2.66 0.66 3.32 1.32 4 2 C4.99 1.67 5.98 1.34 7 1 C7 1.66 7 2.32 7 3 C6.01 3.495 6.01 3.495 5 4 C3.866 6.017 3.866 6.017 3 8 C2.67 7.01 2.34 6.02 2 5 C1.01 4.67 0.02 4.34 -1 4 C-0.67 2.68 -0.34 1.36 0 0 Z " fill="#000000" transform="translate(71,434)"/>
<path d="M0 0 C0 0.66 0 1.32 0 2 C-2.97 2.66 -5.94 3.32 -9 4 C-9 3.01 -9 2.02 -9 1 C-3.375 -1.125 -3.375 -1.125 0 0 Z " fill="#000000" transform="translate(579,436)"/>
<path d="M0 0 C6.223 3.098 8.672 8.584 10.867 14.887 C14.081 25.84 16.362 37.57 16 49 C15.01 49 14.02 49 13 49 C12.895 48.171 12.895 48.171 12.788 47.326 C10.743 25.04 10.743 25.04 1.66 5.188 C-0.629 3.55 -2.253 3.71 -5 4 C-6.371 5.154 -6.371 5.154 -6.242 8.289 C-6.166 14.169 -4.578 19.71 -3.125 25.375 C-2.584 27.528 -2.045 29.682 -1.508 31.836 C-1.25 32.867 -0.993 33.898 -0.728 34.96 C0.307 39.283 1.179 43.632 2 48 C1.01 48 0.02 48 -1 48 C-2.132 43.647 -3.253 39.291 -4.363 34.932 C-4.741 33.455 -5.122 31.978 -5.507 30.502 C-11.282 8.297 -11.282 8.297 -9.133 2.768 C-6.871 -0.762 -3.883 -0.513 0 0 Z " fill="#000000" transform="translate(655,439)"/>
<path d="M0 0 C-1.506 3.012 -3.643 3.102 -6.785 4.164 C-8.54 4.763 -8.54 4.763 -10.33 5.375 C-12.178 5.994 -12.178 5.994 -14.062 6.625 C-15.916 7.255 -15.916 7.255 -17.807 7.898 C-20.869 8.939 -23.933 9.972 -27 11 C-27 10.34 -27 9.68 -27 9 C-23.258 7.294 -19.505 5.613 -15.75 3.938 C-14.155 3.21 -14.155 3.21 -12.527 2.467 C-11.503 2.012 -10.478 1.558 -9.422 1.09 C-8.479 0.666 -7.537 0.241 -6.565 -0.196 C-3.839 -1.051 -2.632 -0.999 0 0 Z " fill="#000000" transform="translate(305,442)"/>
<path d="M0 0 C0 0.99 0 1.98 0 3 C-10.965 7.902 -22.059 12.211 -33.438 16.062 C-34.616 16.468 -35.795 16.874 -37.009 17.293 C-38.119 17.661 -39.228 18.03 -40.371 18.41 C-41.36 18.742 -42.35 19.073 -43.369 19.414 C-46.055 20.012 -47.446 19.929 -50 19 C-48.93 18.616 -48.93 18.616 -47.839 18.225 C-34.678 13.483 -21.657 8.688 -9.007 2.694 C-8.252 2.338 -7.497 1.983 -6.719 1.617 C-6.068 1.304 -5.418 0.99 -4.748 0.667 C-3 0 -3 0 0 0 Z " fill="#000000" transform="translate(555,443)"/>
<path d="M0 0 C0.99 0.99 1.98 1.98 3 3 C0.586 5.274 -1.831 7.544 -4.25 9.812 C-4.932 10.455 -5.614 11.098 -6.316 11.76 C-6.98 12.382 -7.644 13.004 -8.328 13.645 C-8.936 14.215 -9.543 14.786 -10.169 15.374 C-13.886 18.674 -13.886 18.674 -16 20 C-16.99 19.67 -17.98 19.34 -19 19 C-17.729 15.186 -16.028 14.207 -12.875 11.75 C-8.272 8.083 -4.033 4.281 0 0 Z " fill="#000000" transform="translate(758,491)"/>
<path d="M0 0 C0.495 1.485 0.495 1.485 1 3 C-9.308 7.893 -22.405 14 -34 14 C-34 13.34 -34 12.68 -34 12 C-33.452 11.814 -32.903 11.628 -32.339 11.437 C-18.424 6.751 -18.424 6.751 -4.996 0.848 C-3 0 -3 0 0 0 Z " fill="#000000" transform="translate(399,500)"/>
<path d="M0 0 C0.33 0.33 0.66 0.66 1 1 C0.764 5.093 0.488 7.397 -2.125 10.625 C-4.299 12.811 -4.299 12.811 -3.75 15.375 C-3.502 16.241 -3.255 17.107 -3 18 C-2.962 20.333 -2.954 22.667 -3 25 C-4.32 25.33 -5.64 25.66 -7 26 C-7.504 24.543 -8.003 23.084 -8.5 21.625 C-8.778 20.813 -9.057 20.001 -9.344 19.164 C-10 17 -10 17 -10 15 C-10.784 14.732 -11.567 14.464 -12.375 14.188 C-15 13 -15 13 -17 10 C-17 6.562 -17 6.562 -16 3 C-10.276 -1.833 -6.892 -2.757 0 0 Z " fill="#000000" transform="translate(454,511)"/>
<path d="M0 0 C-0.188 1.859 -0.188 1.859 -1 4 C-3.158 5.233 -3.158 5.233 -5.996 6.254 C-7.031 6.634 -8.065 7.013 -9.131 7.404 C-10.222 7.787 -11.313 8.169 -12.438 8.562 C-13.494 8.949 -14.55 9.335 -15.639 9.732 C-18.748 10.857 -21.868 11.939 -25 13 C-25.949 13.323 -26.898 13.647 -27.875 13.98 C-28.753 14.264 -29.631 14.547 -30.535 14.84 C-31.304 15.09 -32.072 15.34 -32.864 15.597 C-35.245 16.046 -36.721 15.758 -39 15 C-38.442 14.794 -37.885 14.589 -37.31 14.377 C-26.597 10.407 -16.082 6.316 -5.836 1.25 C-3 0 -3 0 0 0 Z " fill="#000000" transform="translate(348,519)"/>
<path d="M0 0 C0.495 1.485 0.495 1.485 1 3 C-13.592 10.93 -29.09 17.932 -46 18 C-45.67 17.34 -45.34 16.68 -45 16 C-42.212 15.216 -39.444 14.528 -36.625 13.875 C-29.359 12.087 -22.507 9.813 -15.625 6.875 C-14.836 6.538 -14.046 6.202 -13.233 5.855 C-9.194 4.087 -4.264 0 0 0 Z " fill="#000000" transform="translate(278,540)"/>
<path d="M0 0 C3.996 0.65 6.892 2.626 10.25 4.812 C11.866 5.843 11.866 5.843 13.516 6.895 C14.335 7.589 15.155 8.284 16 9 C16 10.32 16 11.64 16 13 C11.783 11.514 8.375 9.388 4.688 6.875 C3.619 6.151 2.55 5.426 1.449 4.68 C0.237 3.848 0.237 3.848 -1 3 C-0.67 2.01 -0.34 1.02 0 0 Z " fill="#000000" transform="translate(720,542)"/>
<path d="M0 0 C3.74 1.247 4.512 2.685 6.75 5.875 C7.701 7.201 7.701 7.201 8.672 8.555 C9.11 9.362 9.548 10.169 10 11 C9.67 11.99 9.34 12.98 9 14 C8.613 13.481 8.227 12.961 7.828 12.426 C4.946 8.566 2.039 4.74 -1 1 C-0.67 0.67 -0.34 0.34 0 0 Z " fill="#000000" transform="translate(753,569)"/>
<path d="M0 0 C0.66 0.33 1.32 0.66 2 1 C0.481 5.939 -2.434 9.109 -5.812 12.875 C-8.995 16.455 -12.05 19.99 -14.762 23.945 C-15.5 24.953 -16.239 25.961 -17 27 C-17.66 27 -18.32 27 -19 27 C-17.397 21.956 -14.367 18.203 -11.188 14.062 C-10.666 13.372 -10.145 12.682 -9.607 11.971 C-6.508 7.888 -3.312 3.912 0 0 Z " fill="#000000" transform="translate(309,590)"/>
<path d="M0 0 C0.66 0.33 1.32 0.66 2 1 C1.475 5.302 -1.231 8.138 -3.875 11.375 C-4.871 12.616 -5.868 13.857 -6.863 15.098 C-7.378 15.736 -7.894 16.374 -8.424 17.032 C-10.004 19.005 -11.559 20.996 -13.105 22.996 C-13.601 23.636 -14.097 24.275 -14.608 24.934 C-15.564 26.169 -16.518 27.406 -17.47 28.644 C-20.776 32.888 -20.776 32.888 -23 34 C-21.737 30.594 -20.292 27.703 -18.242 24.707 C-17.702 23.916 -17.162 23.125 -16.606 22.31 C-16.035 21.486 -15.464 20.662 -14.875 19.812 C-14.294 18.968 -13.713 18.124 -13.115 17.255 C-8.98 11.295 -4.703 5.527 0 0 Z " fill="#000000" transform="translate(317,598)"/>
<path d="M0 0 C0.66 0 1.32 0 2 0 C4.035 7.231 5.504 14.462 6.688 21.875 C6.819 22.683 6.95 23.491 7.085 24.323 C7.745 28.594 8.146 32.664 8 37 C7.67 37 7.34 37 7 37 C6.207 32.896 5.416 28.792 4.625 24.688 C4.403 23.54 4.182 22.392 3.953 21.209 C2.593 14.147 1.269 7.079 0 0 Z " fill="#000000" transform="translate(218,617)"/>
<path d="M0 0 C0.99 0 1.98 0 3 0 C3 5.94 3 11.88 3 18 C2.67 18 2.34 18 2 18 C1.662 15.938 1.33 13.876 1 11.812 C0.814 10.664 0.629 9.515 0.438 8.332 C0.065 5.496 -0.086 2.853 0 0 Z " fill="#000000" transform="translate(196,645)"/>
<path d="M0 0 C9.192 1.568 18.304 3.496 27.418 5.459 C29.955 6.004 32.494 6.541 35.033 7.078 C36.656 7.427 38.279 7.776 39.902 8.125 C40.657 8.283 41.411 8.442 42.188 8.605 C45.706 9.371 48.883 10.158 52 12 C44.702 23.522 44.702 23.522 41 29 C41.617 29.098 42.235 29.196 42.871 29.297 C48.946 30.369 54.63 31.869 60 35 C60.33 35.66 60.66 36.32 61 37 C60.154 37.66 59.309 38.32 58.438 39 C55.206 41.687 52.566 44.715 49.836 47.898 C45.268 53.127 40.381 57.756 34.938 62.062 C29.991 66.031 25.481 70.327 21 74.812 C20.029 75.782 20.029 75.782 19.039 76.772 C16.12 79.724 13.445 82.635 11 86 C6.699 85.421 3.091 84.375 -0.895 82.672 C-2.007 82.204 -3.119 81.736 -4.265 81.254 C-5.436 80.757 -6.606 80.261 -7.812 79.75 C-22.752 73.555 -36.852 68.715 -53 67 C-53 65.68 -53 64.36 -53 63 C-52.381 62.753 -51.763 62.505 -51.125 62.25 C-48.55 60.735 -48.273 59.658 -47 57 C-45.979 55.403 -44.937 53.82 -43.875 52.25 C-43.336 51.451 -42.797 50.652 -42.242 49.828 C-41.832 49.225 -41.422 48.622 -41 48 C-42.949 47.814 -42.949 47.814 -44.938 47.625 C-49.718 47.101 -54.331 46.137 -59 45 C-59 43.68 -59 42.36 -59 41 C-58.123 40.585 -57.247 40.17 -56.344 39.742 C-23.094 25.287 -23.094 25.287 0 0 Z M-3 10 C-8.043 14.836 -13.673 18.51 -19.625 22.125 C-20.977 22.956 -20.977 22.956 -22.356 23.804 C-29.973 28.453 -37.706 32.892 -45.51 37.217 C-46.766 37.92 -46.766 37.92 -48.047 38.637 C-48.788 39.046 -49.529 39.456 -50.292 39.878 C-52.159 40.9 -52.159 40.9 -53 43 C-52.413 43.12 -51.826 43.24 -51.222 43.364 C-38.407 46.009 -25.816 49.036 -13.273 52.766 C-5.299 55.115 2.058 56.679 9.875 53.062 C15.845 49.781 20.923 45.508 26 41 C26.665 40.43 27.33 39.86 28.016 39.273 C35.568 32.324 41.149 23.37 47 15 C46.505 14.01 46.505 14.01 46 13 C43.347 12.25 40.748 11.622 38.055 11.055 C37.251 10.88 36.448 10.705 35.621 10.525 C33.915 10.156 32.208 9.792 30.501 9.431 C27.904 8.881 25.311 8.315 22.719 7.746 C21.06 7.39 19.401 7.034 17.742 6.68 C16.972 6.511 16.202 6.342 15.409 6.168 C7.557 4.531 2.627 3.529 -3 10 Z M39 31 C35.908 34.092 33.183 36.933 30.438 40.25 C23.37 48.253 13.158 57.451 2.078 58.301 C-4.211 58.195 -10.056 56.354 -16.062 54.625 C-18.324 53.992 -20.586 53.359 -22.848 52.727 C-23.838 52.444 -24.828 52.161 -25.848 51.87 C-29.548 50.849 -33.276 49.931 -37 49 C-40.63 53.62 -44.26 58.24 -48 63 C-45.048 64.476 -43.015 65.361 -39.93 66.121 C-28.033 69.207 -16.942 73.307 -5.708 78.304 C-4.138 78.999 -4.138 78.999 -2.535 79.707 C-1.611 80.124 -0.687 80.542 0.265 80.972 C3.199 82.075 5.884 82.678 9 83 C11.399 81.365 12.353 79.47 14 77 C14 76.34 14 75.68 14 75 C14.545 74.774 15.091 74.549 15.652 74.316 C18.698 72.609 21.053 70.329 23.562 67.938 C27.437 64.31 31.358 60.825 35.5 57.5 C41.585 52.598 47.318 47.361 53 42 C53.775 41.274 54.549 40.549 55.348 39.801 C57.225 38.162 57.225 38.162 57 36 C51.06 34.35 45.12 32.7 39 31 Z " fill="#000000" transform="translate(589,657)"/>
<path d="M0 0 C0.495 1.98 0.495 1.98 1 4 C0.336 4.246 -0.328 4.493 -1.013 4.747 C-18.131 11.058 -18.131 11.058 -35 18 C-35.33 17.34 -35.66 16.68 -36 16 C-24.293 9.852 -12.341 4.738 0 0 Z " fill="#000000" transform="translate(296,667)"/>
<path d="M0 0 C4.766 1.402 7.959 4.154 11 8 C11 8.66 11 9.32 11 10 C12.32 10.66 13.64 11.32 15 12 C15 12.66 15 13.32 15 14 C15.601 14.269 16.201 14.539 16.82 14.816 C19.015 16.008 20.213 17.101 21.875 18.938 C25.846 23.046 30.274 26.441 34.783 29.927 C39.34 33.456 43.736 37.12 48 41 C47.67 41.99 47.34 42.98 47 44 C46.25 43.299 45.5 42.597 44.727 41.875 C39.935 37.424 35.156 33.031 30 29 C21.378 22.221 13.52 14.6 5.75 6.875 C5.177 6.306 4.603 5.738 4.012 5.152 C0 1.123 0 1.123 0 0 Z " fill="#000000" transform="translate(129,674)"/>
<path d="M0 0 C0.99 0 1.98 0 3 0 C9.557 23.015 9.557 23.015 9 35 C8.67 35 8.34 35 8 35 C7.864 34.295 7.728 33.59 7.589 32.864 C6.96 29.616 6.324 26.371 5.688 23.125 C5.474 22.016 5.261 20.908 5.041 19.766 C3.716 13.042 2.121 6.517 0 0 Z " fill="#000000" transform="translate(230,676)"/>
<path d="M0 0 C0.99 0 1.98 0 3 0 C3.993 5.707 4.105 11.214 4 17 C3.67 17 3.34 17 3 17 C2.496 14.73 1.997 12.459 1.5 10.188 C1.082 8.291 1.082 8.291 0.656 6.355 C0 3 0 3 0 0 Z " fill="#000000" transform="translate(210,693)"/>
<path d="M0 0 C0.99 0.33 1.98 0.66 3 1 C-0.577 4.879 -3.974 7.37 -8.688 9.875 C-9.826 10.491 -10.964 11.107 -12.137 11.742 C-13.082 12.157 -14.026 12.572 -15 13 C-15.66 12.67 -16.32 12.34 -17 12 C-16.108 11.385 -15.216 10.77 -14.297 10.137 C-13.115 9.32 -11.932 8.504 -10.75 7.688 C-9.87 7.081 -9.87 7.081 -8.973 6.463 C-6.503 4.756 -4.077 3.064 -1.766 1.145 C-1.183 0.767 -0.6 0.389 0 0 Z " fill="#000000" transform="translate(475,699)"/>
<path d="M0 0 C0 0.99 0 1.98 0 3 C-3.431 5.01 -6.871 7.007 -10.312 9 C-11.289 9.572 -12.265 10.145 -13.271 10.734 C-14.209 11.276 -15.147 11.817 -16.113 12.375 C-16.977 12.878 -17.841 13.38 -18.732 13.898 C-21 15 -21 15 -24 15 C-24 14.34 -24 13.68 -24 13 C-23.308 12.642 -22.617 12.283 -21.905 11.914 C-18.79 10.299 -15.676 8.681 -12.562 7.062 C-11.474 6.499 -10.385 5.935 -9.264 5.354 C-8.229 4.815 -7.195 4.277 -6.129 3.723 C-4.691 2.976 -4.691 2.976 -3.225 2.215 C-1.092 1.186 -1.092 1.186 0 0 Z " fill="#000000" transform="translate(144,700)"/>
<path d="M0 0 C0.66 0.66 1.32 1.32 2 2 C-0.574 4.157 -3.161 6.299 -5.75 8.438 C-6.48 9.049 -7.209 9.661 -7.961 10.291 C-8.67 10.874 -9.379 11.458 -10.109 12.059 C-10.759 12.598 -11.408 13.137 -12.077 13.693 C-14.073 15.05 -15.641 15.576 -18 16 C-12.916 9.363 -6.756 4.821 0 0 Z " fill="#000000" transform="translate(109,726)"/>
<path d="M0 0 C0.33 0.99 0.66 1.98 1 3 C-2.016 4.467 -5.039 5.922 -8.062 7.375 C-8.91 7.788 -9.758 8.2 -10.631 8.625 C-15.37 10.894 -19.896 12.74 -25 14 C-22.604 11.299 -20.123 9.887 -16.895 8.301 C-15.912 7.814 -14.929 7.328 -13.916 6.826 C-12.892 6.327 -11.868 5.827 -10.812 5.312 C-9.259 4.546 -9.259 4.546 -7.674 3.764 C-5.119 2.504 -2.561 1.249 0 0 Z " fill="#000000" transform="translate(412,732)"/>
<path d="M0 0 C2.972 1.125 5.334 2.223 8 4 C8 4.99 8 5.98 8 7 C4.225 5.909 1.53 5.092 -1 2 C-0.67 1.34 -0.34 0.68 0 0 Z " fill="#000000" transform="translate(713,746)"/>
<path d="M0 0 C0.99 0.33 1.98 0.66 3 1 C3 1.66 3 2.32 3 3 C0.902 4.033 -1.204 5.051 -3.312 6.062 C-4.484 6.631 -5.656 7.199 -6.863 7.785 C-10 9 -10 9 -13 8 C-10.903 6.633 -8.799 5.282 -6.688 3.938 C-6.093 3.548 -5.498 3.158 -4.885 2.756 C-3.304 1.758 -1.654 0.871 0 0 Z " fill="#000000" transform="translate(333,764)"/>
</svg>
