<?xml version="1.0" encoding="UTF-8"?>
<!-- Generator: visioncortex VTracer 0.6.0 -->
<svg version="1.1" xmlns="http://www.w3.org/2000/svg" width="847" height="847">
<path d="M0 0 C0.526 0.266 1.052 0.531 1.594 0.805 C-5.081 7.151 -12.143 12.779 -19.515 18.286 C-23.053 20.941 -26.39 23.544 -29.406 26.805 C-28.917 27.913 -28.917 27.913 -28.418 29.043 C-24.341 38.507 -20.816 47.382 -21.406 57.805 C-23.312 57.207 -23.312 57.207 -25.406 55.805 C-26.312 52.934 -26.312 52.934 -26.906 49.367 C-27.982 43.597 -29.483 38.366 -31.637 32.914 C-32.406 30.805 -32.406 30.805 -32.406 28.805 C-33.024 29.215 -33.641 29.625 -34.277 30.047 C-39.678 33.483 -44.85 36.636 -51.406 36.805 C-55.198 35.321 -57.379 33.306 -59.406 29.805 C-61.595 24.731 -63.376 20.223 -61.406 14.805 C-59.38 11.892 -57.887 10.155 -54.355 9.32 C-48.188 8.937 -44.105 10.962 -39.406 14.805 C-36.969 17.048 -34.652 19.37 -32.406 21.805 C-28.931 20.23 -26.068 18.168 -23.031 15.867 C-21.982 15.077 -20.933 14.287 -19.852 13.473 C-17.411 11.604 -15.022 9.683 -12.648 7.73 C-12.025 7.223 -11.402 6.716 -10.759 6.193 C-9.54 5.197 -8.329 4.19 -7.127 3.172 C-2.937 -0.238 -2.937 -0.238 0 0 Z M-58.031 14.742 C-59.6 18.236 -59.412 18.871 -58.281 22.367 C-57.696 23.862 -57.071 25.343 -56.406 26.805 C-56.161 27.515 -55.916 28.225 -55.664 28.957 C-54.447 31.056 -54.447 31.056 -51.68 32.234 C-47.462 32.969 -45.734 31.987 -42.031 29.93 C-40.972 29.355 -39.912 28.78 -38.82 28.188 C-38.024 27.731 -37.227 27.275 -36.406 26.805 C-36.406 22.514 -37.06 21.368 -39.855 18.266 C-43.512 14.82 -47.052 13.011 -52.094 12.242 C-55.492 12.563 -55.492 12.563 -58.031 14.742 Z " fill="#000000" transform="translate(578.40625,71.1953125)"/>
<path d="M0 0 C-2.491 3.736 -3.657 3.707 -7.934 4.719 C-9.141 5.011 -10.348 5.304 -11.592 5.605 C-12.861 5.901 -14.13 6.196 -15.438 6.5 C-17.916 7.093 -20.393 7.686 -22.871 8.281 C-24.068 8.566 -25.266 8.851 -26.5 9.145 C-31.36 10.332 -36.183 11.644 -41 13 C-41 12.34 -41 11.68 -41 11 C-34.436 7.602 -27.793 5.206 -20.688 3.25 C-19.923 3.04 -19.159 2.829 -18.372 2.613 C-12.212 0.967 -6.411 -0.153 0 0 Z " fill="#000000" transform="translate(483,89)"/>
<path d="M0 0 C7.642 -0.259 14.585 1.219 21.938 3.211 C21.938 3.541 21.938 3.871 21.938 4.211 C21.113 4.19 20.288 4.169 19.438 4.147 C-8.521 3.027 -8.521 3.027 -34.062 13.211 C-36.664 15.873 -37.912 17.506 -38.242 21.242 C-37.945 26.865 -35.814 31.27 -33.121 36.145 C-32.062 38.211 -32.062 38.211 -32.062 40.211 C-34.387 40.09 -34.387 40.09 -37.062 39.211 C-40.885 32.783 -42.888 25.642 -42.062 18.211 C-41.733 17.221 -41.402 16.231 -41.062 15.211 C-42.743 16.095 -42.743 16.095 -44.457 16.996 C-45.929 17.756 -47.402 18.515 -48.875 19.273 C-49.982 19.858 -49.982 19.858 -51.111 20.455 C-51.824 20.819 -52.536 21.183 -53.27 21.559 C-53.924 21.899 -54.579 22.239 -55.253 22.59 C-57.062 23.211 -57.062 23.211 -60.062 22.211 C-46.358 7.509 -19.243 1.325 0 0 Z " fill="#000000" transform="translate(468.0625,157.7890625)"/>
<path d="M0 0 C13.243 0.255 23.163 10.112 32 19 C35.595 22.824 38.877 26.784 42 31 C45.498 29.461 48.265 27.309 51.219 24.926 C53 24 53 24 55.219 24.355 C55.807 24.568 56.394 24.781 57 25 C55.779 26.133 54.548 27.256 53.312 28.375 C52.628 29.001 51.944 29.628 51.238 30.273 C48.906 32.072 46.77 33.039 44 34 C44.568 35.128 45.137 36.256 45.723 37.418 C53.312 52.767 58.713 68.42 62.938 85 C63.255 86.246 63.255 86.246 63.579 87.517 C64.528 91.418 65.269 94.952 65 99 C63.68 99.33 62.36 99.66 61 100 C60.89 99.399 60.781 98.797 60.668 98.178 C56.863 77.714 51.586 57.592 42 39 C36.847 40.789 33.093 43.816 28.816 47.125 C25.928 49.048 23.325 50.06 20 51 C21.541 46.669 24.875 44.499 28.438 41.875 C29.023 41.433 29.609 40.991 30.213 40.535 C32.766 38.617 35.342 36.772 38 35 C35.869 28.719 31.541 24.685 27 20 C26.306 19.281 25.613 18.561 24.898 17.82 C17.525 10.723 8.471 6.667 -1 3 C-0.67 2.01 -0.34 1.02 0 0 Z " fill="#000000" transform="translate(643,183)"/>
<path d="M0 0 C0.66 0 1.32 0 2 0 C2.371 0.887 2.743 1.774 3.125 2.688 C5.269 6.475 7.586 8.337 11 11 C12.679 12.654 14.344 14.323 16 16 C17.103 17.087 18.208 18.171 19.314 19.254 C19.923 19.849 20.531 20.445 21.158 21.058 C22.134 22.013 22.134 22.013 23.129 22.987 C30.245 29.955 37.338 36.947 44.418 43.952 C48.696 48.183 52.982 52.405 57.287 56.608 C61.462 60.685 65.615 64.784 69.753 68.899 C71.328 70.457 72.911 72.008 74.502 73.55 C90.365 88.946 90.365 88.946 91 100 C91.085 100.726 91.169 101.453 91.256 102.201 C91.452 104.103 91.524 106.016 91.59 107.926 C91.653 109.313 91.716 110.701 91.779 112.088 C91.862 114.212 91.938 116.335 92.009 118.459 C92.422 130.182 93.906 136.098 102.188 144.75 C106.565 149.397 110.68 154.178 114.688 159.152 C117.249 162.306 119.867 165.406 122.5 168.5 C125.855 172.446 129.172 176.416 132.438 180.438 C136.007 184.819 139.641 189.141 143.312 193.438 C143.816 194.029 144.32 194.621 144.84 195.23 C147.453 198.277 150.111 201.207 153 204 C153.438 203.441 153.877 202.881 154.328 202.305 C183.752 165.106 219.689 134.084 268.345 127.967 C301.87 124.266 335.637 132.7 362.301 153.762 C363.192 154.5 364.082 155.239 365 156 C365.86 156.708 366.72 157.415 367.605 158.145 C390.719 178.033 403.095 207.056 405.719 237.145 C409.829 298.65 387.739 356.555 348.109 403.227 C330.805 422.974 311.104 440.284 288 453 C287.34 453 286.68 453 286 453 C287.471 459.613 288.947 466.225 290.425 472.836 C290.925 475.076 291.425 477.316 291.923 479.556 C295.084 493.758 298.387 507.906 302 522 C302.792 522.122 303.585 522.245 304.401 522.371 C306.544 522.703 308.686 523.038 310.828 523.375 C313.834 523.837 316.843 524.242 319.859 524.625 C344.233 527.817 344.233 527.817 349.983 534.202 C358.599 546.155 361.384 563.181 365.25 577.125 C365.91 579.482 366.57 581.838 367.231 584.194 C371.567 599.683 375.821 615.195 379.942 630.743 C382.156 639.075 382.156 639.075 384.754 647.293 C385.836 650.513 386.323 652.658 386 656 C383.458 655.032 382.249 654.504 381.021 652.02 C380.796 651.206 380.571 650.391 380.34 649.552 C380.075 648.623 379.811 647.693 379.538 646.735 C379.266 645.716 378.995 644.698 378.715 643.648 C378.418 642.583 378.121 641.517 377.815 640.419 C376.856 636.951 375.924 633.477 375 630 C374.696 628.861 374.391 627.722 374.078 626.548 C371.548 617.043 369.081 607.521 366.628 597.996 C363.243 584.879 359.757 571.806 355.84 558.836 C355.529 557.79 355.219 556.744 354.899 555.667 C351.339 542.999 351.339 542.999 342.5 534.062 C330.052 528.868 316.259 527.765 303 526 C304.485 531.94 304.485 531.94 306 538 C307.689 538.242 309.377 538.485 311.117 538.734 C313.37 539.072 315.622 539.411 317.875 539.75 C318.984 539.907 320.092 540.065 321.234 540.227 C338.853 542.921 338.853 542.921 344.379 549.395 C348.03 554.958 349.384 561.293 350.938 567.688 C351.27 568.999 351.604 570.311 351.939 571.622 C352.809 575.043 353.653 578.47 354.488 581.899 C355.003 584.011 355.521 586.122 356.04 588.232 C358.064 596.479 360.05 604.735 362 613 C361.01 613.66 360.02 614.32 359 615 C358.27 617.563 358.27 617.563 358 620 C358.66 620 359.32 620 360 620 C360.66 618.35 361.32 616.7 362 615 C362.33 615 362.66 615 363 615 C368.445 637.275 368.445 637.275 374 660 C379.672 660.124 385.344 660.247 391.188 660.375 C441.471 661.657 441.471 661.657 450 669 C449.797 670.82 449.797 670.82 449 673 C392.843 715.228 263.364 703.677 197 706 C196.162 706.03 195.324 706.061 194.461 706.092 C166.944 707.083 139.417 707.102 111.885 707.122 C109.041 707.125 106.196 707.129 103.352 707.133 C30.451 707.225 30.451 707.225 22 703 C22 702.34 22 701.68 22 701 C22.562 700.902 23.124 700.804 23.703 700.703 C26.805 700.151 29.902 699.576 33 699 C33.74 698.866 34.48 698.732 35.242 698.593 C45.472 696.725 55.203 694.563 64.934 690.855 C68.139 689.961 69.854 690.042 73 691 C73.113 690.334 73.227 689.668 73.344 688.982 C74.148 685.329 75.307 681.831 76.504 678.293 C76.747 677.568 76.989 676.842 77.239 676.095 C78.011 673.791 78.787 671.489 79.562 669.188 C80.088 667.621 80.614 666.053 81.139 664.486 C82.423 660.656 83.71 656.828 85 653 C85.99 653 86.98 653 88 653 C87.773 652.134 87.546 651.268 87.312 650.375 C86.937 646.317 87.947 644.448 90 641 C92 644 92 644 92 646 C92.66 646 93.32 646 94 646 C93.658 643.029 93.658 643.029 93 640 C92.34 639.67 91.68 639.34 91 639 C91.59 634.822 92.552 631.13 94.047 627.188 C94.474 626.047 94.9 624.907 95.34 623.731 C95.805 622.5 96.271 621.269 96.75 620 C100.152 610.928 103.433 601.827 106.516 592.641 C106.807 591.775 107.098 590.91 107.398 590.019 C108.836 585.739 110.261 581.456 111.671 577.168 C112.197 575.596 112.723 574.025 113.25 572.453 C113.484 571.727 113.718 571.002 113.959 570.254 C115.198 566.592 115.684 565.211 119 563 C119.433 562.216 119.866 561.433 120.312 560.625 C126.341 551.247 142.703 547.936 152.891 545.543 C192.291 536.979 232.865 536.577 273 537 C272.67 533.37 272.34 529.74 272 526 C265.36 525.939 258.722 525.944 252.082 525.983 C249.264 525.998 246.447 525.997 243.629 525.985 C222.484 525.922 201.876 527.274 180.938 530.312 C179.904 530.461 178.871 530.61 177.807 530.763 C155.119 533.942 155.119 533.942 133.562 541.375 C132.905 541.674 132.247 541.973 131.57 542.281 C122.232 546.274 122.232 546.274 115.766 553.535 C114.862 555.939 114.862 555.939 115.125 558.312 C114.994 561.126 114.498 562.194 113.188 564.617 C110.983 568.9 109.389 573.248 107.871 577.812 C107.595 578.626 107.32 579.439 107.035 580.277 C106.164 582.849 105.3 585.424 104.438 588 C103.569 590.575 102.7 593.149 101.829 595.723 C101.29 597.317 100.754 598.911 100.219 600.505 C98.58 605.378 96.829 610.195 95 615 C92.754 611.632 92.223 608.71 91.562 604.812 C91.308 603.371 91.053 601.93 90.797 600.488 C90.667 599.748 90.538 599.007 90.404 598.245 C90.008 596.047 89.581 593.857 89.141 591.668 C89.002 590.969 88.863 590.27 88.72 589.55 C88.333 587.605 87.942 585.662 87.551 583.719 C86.528 576.811 86.956 571.171 88.715 564.43 C88.89 563.745 89.065 563.06 89.246 562.355 C89.801 560.192 90.368 558.034 90.938 555.875 C91.5 553.709 92.061 551.542 92.619 549.374 C93.125 547.412 93.638 545.452 94.152 543.492 C94.919 540.335 95.515 537.21 96 534 C95.34 534 94.68 534 94 534 C91.326 541.482 89.516 549.048 87.807 556.799 C87.601 557.699 87.395 558.6 87.184 559.527 C87.004 560.339 86.824 561.151 86.638 561.988 C86 564 86 564 84 566 C83.663 564.73 83.325 563.46 82.978 562.151 C81.71 557.385 80.43 552.622 79.148 547.86 C78.597 545.809 78.049 543.757 77.504 541.704 C73.24 525.51 73.24 525.51 67 510 C67.548 517.644 69.467 524.454 71.75 531.75 C75.31 543.409 78.348 555.104 81 567 C80.34 567 79.68 567 79 567 C77.293 565.156 77.293 565.156 75.188 562.5 C74.384 561.497 73.581 560.494 72.754 559.461 C72.313 558.906 71.873 558.352 71.418 557.78 C64.691 549.337 57.864 540.968 50.938 532.688 C50.276 531.888 50.276 531.888 49.602 531.073 C47.282 528.319 44.986 526.021 42 524 C42.52 518.465 43.558 513.66 45.688 508.5 C45.953 507.849 46.218 507.199 46.492 506.528 C49.435 499.587 53.376 492.943 60 489 C66.045 487.514 70.513 487.871 76 491 C95.668 504.368 110.465 520.724 121 542 C125.995 540.418 130.772 538.686 135.562 536.562 C150.077 530.49 165.839 528.494 181.312 526.312 C182.394 526.159 183.475 526.005 184.589 525.846 C200.179 523.666 215.635 522.286 231.375 522 C232.231 521.984 233.087 521.968 233.969 521.951 C246.342 521.756 258.651 522.267 271 523 C270.864 522.191 270.728 521.381 270.589 520.548 C269.376 513.312 268.169 506.076 266.969 498.839 C266.318 494.911 265.661 490.985 265 487.059 C264.729 485.414 264.458 483.77 264.188 482.125 C264.064 481.403 263.94 480.682 263.813 479.938 C263.049 475.221 262.899 470.76 263 466 C261.875 466.348 261.875 466.348 260.728 466.703 C257.259 467.769 253.786 468.822 250.312 469.875 C248.544 470.422 248.544 470.422 246.74 470.98 C235.819 474.272 225.058 476.391 213.625 476.25 C212.791 476.243 211.957 476.236 211.098 476.229 C178.243 475.707 149.599 469.467 124.938 446.312 C109.539 430.386 101.774 410.065 98.75 388.438 C98.577 387.309 98.405 386.18 98.227 385.018 C96.018 369.776 96.018 369.776 97 363 C98.413 361.349 98.413 361.349 100 360 C103.333 354.198 104.468 347.606 103 341 C100.579 339.092 100.579 339.092 98 338 C98.681 309.222 110.052 277.898 122 252 C121.074 251.901 120.147 251.801 119.193 251.698 C113.954 250.944 108.967 249.348 103.91 247.824 C102.829 247.503 101.748 247.181 100.634 246.85 C97.109 245.801 93.586 244.744 90.062 243.688 C87.624 242.959 85.186 242.232 82.747 241.504 C77.833 240.038 72.92 238.568 68.007 237.096 C62.65 235.492 57.29 233.897 51.928 232.308 C48.342 231.246 44.757 230.18 41.172 229.113 C39.547 228.631 37.922 228.149 36.296 227.669 C34.034 226.999 31.772 226.325 29.512 225.648 C28.807 225.438 28.101 225.228 27.375 225.011 C23.636 223.876 19.962 222.638 16.303 221.263 C15.533 220.976 14.763 220.689 13.969 220.393 C12.501 219.839 11.039 219.27 9.583 218.684 C6.429 217.491 4.495 216.871 1.184 217.731 C-1.461 219.268 -3.967 220.972 -6.5 222.688 C-13.289 226.736 -18.423 226.417 -26 225 C-27.116 224.814 -28.233 224.629 -29.383 224.438 C-30.246 224.293 -31.11 224.149 -32 224 C-30.648 220.848 -29.309 219.186 -26.523 217.203 C-25.853 216.72 -25.183 216.236 -24.492 215.738 C-23.794 215.247 -23.095 214.756 -22.375 214.25 C-21.669 213.743 -20.962 213.237 -20.234 212.715 C-18.495 211.469 -16.748 210.234 -15 209 C-15.66 208.67 -16.32 208.34 -17 208 C-23.393 212.038 -29.647 216.647 -35 222 C-41.811 221.784 -48.399 220.411 -55.062 219.062 C-55.92 218.893 -56.778 218.723 -57.662 218.548 C-58.466 218.379 -59.269 218.21 -60.098 218.035 C-60.825 217.884 -61.552 217.734 -62.301 217.578 C-64 217 -64 217 -65 215 C-64.276 214.408 -63.551 213.817 -62.805 213.207 C-57.852 209.159 -52.903 205.108 -48 201 C-51.866 201 -52.808 202.185 -55.75 204.625 C-56.642 205.348 -57.534 206.071 -58.453 206.816 C-60.946 208.889 -60.946 208.889 -62.859 210.902 C-65.16 213.23 -66.812 214.841 -70.125 215.285 C-77.855 214.764 -85.578 212.128 -93 210 C-93 209.01 -93 208.02 -93 207 C-90.91 205.02 -90.91 205.02 -88.062 202.812 C-82.873 198.712 -77.9 194.441 -73 190 C-73.366 189.426 -73.732 188.853 -74.109 188.262 C-75.29 186.41 -76.468 184.557 -77.645 182.703 C-79.467 179.833 -81.301 176.971 -83.137 174.109 C-84.237 172.386 -85.337 170.662 -86.438 168.938 C-86.982 168.092 -87.526 167.247 -88.087 166.376 C-88.593 165.58 -89.099 164.785 -89.621 163.965 C-90.079 163.249 -90.537 162.534 -91.01 161.797 C-92 160 -92 160 -92 158 C-76.006 161.127 -60.501 165.577 -45.216 171.19 C-36.065 174.533 -26.881 177.467 -17.364 179.569 C-10.902 181.059 -7.585 182.857 -3.922 188.379 C-2.853 190.1 -1.796 191.828 -0.75 193.562 C-0.209 194.438 0.333 195.314 0.891 196.217 C4.706 202.412 4.706 202.412 6 205 C8.213 205.498 8.213 205.498 10.953 205.785 C18.64 206.96 25.818 209.258 33.204 211.623 C37.742 213.075 42.291 214.493 46.84 215.914 C47.842 216.228 48.845 216.541 49.878 216.864 C63.204 221.018 76.575 225.023 89.952 229.011 C92.857 229.877 95.761 230.747 98.664 231.62 C102.121 232.66 105.579 233.693 109.039 234.72 C110.944 235.288 112.846 235.861 114.749 236.435 C115.895 236.774 117.042 237.113 118.224 237.462 C119.223 237.76 120.222 238.059 121.252 238.366 C123.969 238.993 126.224 239.239 129 239 C130.624 237.476 130.624 237.476 131.754 235.309 C132.216 234.528 132.678 233.748 133.154 232.943 C133.619 232.116 134.084 231.289 134.562 230.438 C135.265 229.238 135.265 229.238 135.982 228.014 C137.341 225.686 138.674 223.346 140 221 C140.779 219.636 141.559 218.273 142.34 216.91 C143.162 215.47 143.162 215.47 144 214 C143.455 213.334 142.909 212.667 142.348 211.98 C138.398 207.154 134.449 202.327 130.5 197.5 C129.755 196.59 129.01 195.68 128.242 194.742 C126.766 192.937 125.292 191.13 123.82 189.32 C119.304 183.775 114.724 178.291 110.091 172.843 C106.481 168.59 102.951 164.278 99.461 159.926 C98.649 158.96 97.837 157.995 97 157 C96.466 156.212 95.933 155.424 95.383 154.612 C88.449 145.375 79.997 144.242 69.25 142.188 C65.918 141.51 62.591 140.811 59.266 140.105 C58.465 139.937 57.664 139.769 56.838 139.596 C41.12 136.181 31.17 128.961 19.535 118.143 C15.387 114.298 11.054 110.727 6.648 107.18 C4.027 105.022 1.508 102.787 -1 100.5 C-4.396 97.404 -7.862 94.448 -11.438 91.562 C-16.201 87.71 -20.714 83.645 -25.219 79.496 C-28.933 76.163 -32.793 73.029 -36.688 69.91 C-38.577 68.35 -40.312 66.771 -42 65 C-41.505 63.515 -41.505 63.515 -41 62 C-38.909 61.004 -38.909 61.004 -36.137 60.133 C-35.114 59.807 -34.09 59.481 -33.036 59.145 C-31.931 58.808 -30.826 58.472 -29.688 58.125 C-28.565 57.776 -27.442 57.426 -26.286 57.066 C-19.17 54.883 -12.025 52.839 -4.812 51 C-4.007 50.793 -3.202 50.585 -2.372 50.372 C1.845 49.342 5.623 48.777 10 49 C9.844 48.418 9.689 47.837 9.529 47.238 C6.567 36.13 3.684 25.006 1.062 13.812 C0.728 12.425 0.728 12.425 0.386 11.009 C0.188 10.146 -0.011 9.284 -0.215 8.395 C-0.391 7.64 -0.568 6.886 -0.75 6.109 C-1.024 3.802 -0.7 2.199 0 0 Z M10 16 C8.254 21.237 7.631 25.47 8 31 C8.99 32.485 8.99 32.485 10 34 C10.504 31.563 11.003 29.126 11.5 26.688 C11.715 25.652 11.715 25.652 11.934 24.596 C12.526 21.675 13 18.989 13 16 C12.01 16 11.02 16 10 16 Z M19 25 C18.131 28.413 17.282 31.831 16.438 35.25 C16.067 36.702 16.067 36.702 15.689 38.184 C15.461 39.118 15.232 40.053 14.996 41.016 C14.781 41.874 14.567 42.733 14.345 43.618 C13.987 46.092 14.217 47.648 15 50 C17.236 47.764 17.624 46.49 18.508 43.5 C18.904 42.17 18.904 42.17 19.309 40.812 C19.713 39.42 19.713 39.42 20.125 38 C20.541 36.608 20.541 36.608 20.965 35.188 C22.434 30.667 22.434 30.667 23 26 C21.68 25.67 20.36 25.34 19 25 Z M26 32 C26.33 33.32 26.66 34.64 27 36 C27.99 36 28.98 36 30 36 C29.34 34.68 28.68 33.36 28 32 C27.34 32 26.68 32 26 32 Z M31 36 C30.324 38.852 29.659 41.706 29 44.562 C28.714 45.762 28.714 45.762 28.422 46.986 C27.325 51.783 26.789 56.08 27 61 C27.66 61 28.32 61 29 61 C29.87 57.754 30.718 54.503 31.562 51.25 C31.809 50.33 32.056 49.409 32.311 48.461 C32.539 47.571 32.768 46.682 33.004 45.766 C33.326 44.54 33.326 44.54 33.655 43.29 C34.027 40.822 33.903 39.318 33 37 C32.34 36.67 31.68 36.34 31 36 Z M11 37 C11.33 38.98 11.66 40.96 12 43 C12.33 43 12.66 43 13 43 C13 41.02 13 39.04 13 37 C12.34 37 11.68 37 11 37 Z M36 41 C34.966 44.767 33.95 48.539 32.938 52.312 C32.643 53.384 32.348 54.456 32.045 55.561 C31.771 56.589 31.497 57.617 31.215 58.676 C30.958 59.624 30.702 60.572 30.437 61.548 C29.776 64.125 29.776 64.125 31 67 C34.133 63.867 34.588 59.9 35.688 55.688 C35.925 54.832 36.163 53.977 36.408 53.096 C38.02 47.078 38.02 47.078 37 41 C36.67 41 36.34 41 36 41 Z M44 49 C43.161 52.269 42.33 55.541 41.5 58.812 C41.262 59.741 41.023 60.67 40.777 61.627 C40.552 62.52 40.326 63.412 40.094 64.332 C39.884 65.154 39.675 65.976 39.459 66.823 C38.897 69.119 38.897 69.119 39 72 C39.66 72 40.32 72 41 72 C42.041 69.486 43.058 66.966 44.062 64.438 C44.357 63.733 44.652 63.029 44.955 62.303 C46.889 57.366 47.191 54.181 46 49 C45.34 49 44.68 49 44 49 Z M-36 63 C-36 63.33 -36 63.66 -36 64 C-34.082 63.78 -34.082 63.78 -32.125 63.555 C-28.794 63.184 -25.464 62.855 -22.125 62.57 C-13.492 61.828 -4.917 60.977 3.625 59.5 C4.329 59.382 5.033 59.263 5.758 59.141 C9.105 58.529 11.122 57.919 14 56 C14 55.01 14 54.02 14 53 C-2.498 53 -20.211 58.43 -36 63 Z M50 55 C48.661 58.123 47.33 61.248 46 64.375 C45.428 65.709 45.428 65.709 44.844 67.07 C44.483 67.921 44.122 68.772 43.75 69.648 C43.415 70.434 43.08 71.219 42.734 72.029 C41.884 73.962 41.884 73.962 42 76 C42.66 76 43.32 76 44 76 C44.706 74.285 44.706 74.285 45.426 72.535 C46.054 71.044 46.683 69.553 47.312 68.062 C47.621 67.308 47.93 66.553 48.248 65.775 C48.554 65.057 48.86 64.338 49.176 63.598 C49.453 62.933 49.731 62.268 50.017 61.582 C51 60 51 60 54 59 C53.34 57.68 52.68 56.36 52 55 C51.34 55 50.68 55 50 55 Z M56 61 C51.98 72.354 51.98 72.354 49 84 C49.33 84.66 49.66 85.32 50 86 C50.66 86 51.32 86 52 86 C53.233 82.592 54.432 79.172 55.625 75.75 C55.976 74.782 56.326 73.814 56.688 72.816 C57.01 71.882 57.332 70.947 57.664 69.984 C57.968 69.126 58.272 68.267 58.584 67.382 C59.082 64.527 58.539 63.398 57 61 C56.67 61 56.34 61 56 61 Z M6.812 62.438 C5.461 62.869 5.461 62.869 4.082 63.309 C3.051 63.651 3.051 63.651 2 64 C5.429 65.188 7.378 64.802 10.75 63.562 C11.549 63.275 12.348 62.988 13.172 62.691 C13.775 62.463 14.378 62.235 15 62 C11.448 60.816 10.302 61.305 6.812 62.438 Z M-17.812 64.375 C-18.607 64.501 -19.402 64.628 -20.221 64.758 C-24.649 65.49 -28.773 66.434 -33 68 C-32.67 68.99 -32.34 69.98 -32 71 C-26.319 69.804 -20.684 68.452 -15.062 67 C-14.069 66.751 -14.069 66.751 -13.054 66.497 C-9.141 65.475 -9.141 65.475 -6 63 C-10.026 63 -13.848 63.716 -17.812 64.375 Z M25 64 C26.374 67.972 28.176 70.729 30.875 73.938 C31.682 74.899 32.489 75.861 33.32 76.852 C34.214 77.901 35.107 78.951 36 80 C36.935 81.112 37.87 82.224 38.805 83.336 C43.953 89.429 49.226 95.373 54.688 101.188 C60.065 106.921 65.129 112.826 70 119 C70.457 119.578 70.914 120.157 71.384 120.753 C73.769 123.775 76.148 126.803 78.52 129.836 C83.07 136.157 83.07 136.157 89 141 C91.208 140.783 91.208 140.783 93 140 C91.576 136.794 89.831 134.553 87.438 132 C84.248 128.494 81.366 124.884 78.562 121.062 C74.358 115.377 69.81 110.176 65 105 C63.271 103.104 61.541 101.209 59.812 99.312 C56.65 95.857 53.464 92.423 50.258 89.008 C49.624 88.332 48.99 87.656 48.337 86.96 C47.091 85.634 45.844 84.31 44.595 82.988 C44.026 82.382 43.457 81.776 42.871 81.152 C42.112 80.348 42.112 80.348 41.338 79.527 C40 78 40 78 38 75 C37.34 75 36.68 75 36 75 C36 74.34 36 73.68 36 73 C34.318 71.259 34.318 71.259 32.188 69.5 C31.48 68.892 30.772 68.283 30.043 67.656 C27.898 65.865 27.898 65.865 25 64 Z M64 69 C61.615 73.415 60.052 77.784 58.812 82.625 C58.635 83.28 58.458 83.935 58.275 84.609 C57.414 87.894 57 90.574 57 94 C57.66 94 58.32 94 59 94 C60.177 90.587 61.339 87.169 62.5 83.75 C63.001 82.298 63.001 82.298 63.512 80.816 C63.828 79.882 64.143 78.947 64.469 77.984 C64.762 77.126 65.055 76.267 65.357 75.382 C66.174 72.768 66.174 72.768 66 69 C65.34 69 64.68 69 64 69 Z M-19.812 72 C-21.555 72.557 -21.555 72.557 -23.332 73.125 C-24.212 73.414 -25.093 73.702 -26 74 C-26 74.66 -26 75.32 -26 76 C-22.075 77.512 -19.231 76.461 -15.312 75.25 C-14.154 74.905 -12.995 74.559 -11.801 74.203 C-10.414 73.608 -10.414 73.608 -9 73 C-8.67 72.01 -8.34 71.02 -8 70 C-12.311 69.74 -15.721 70.677 -19.812 72 Z M7.562 72.75 C6.341 73.003 5.12 73.255 3.861 73.516 C-3.964 75.181 -11.472 77.29 -19 80 C-19 80.66 -19 81.32 -19 82 C-12.415 81.401 -6.22 80.231 0.188 78.625 C2.028 78.175 3.869 77.725 5.711 77.277 C6.605 77.059 7.5 76.841 8.421 76.617 C13.923 75.301 19.46 74.145 25 73 C24.505 71.515 24.505 71.515 24 70 C18.432 70 12.99 71.592 7.562 72.75 Z M68 74 C66.302 78.878 64.728 83.782 63.312 88.75 C62.935 90.073 62.935 90.073 62.551 91.422 C61.994 94.028 61.9 96.344 62 99 C62.66 99 63.32 99 64 99 C64.17 98.417 64.34 97.835 64.516 97.234 C66.277 91.275 68.224 85.414 70.328 79.566 C71.273 76.91 71.273 76.91 70 74 C69.34 74 68.68 74 68 74 Z M11.375 77.75 C10.25 78.003 9.124 78.255 7.965 78.516 C0.755 80.183 -6.113 82.294 -13 85 C-13 85.66 -13 86.32 -13 87 C-7.758 86.347 -2.766 85.275 2.34 83.934 C3.107 83.735 3.874 83.537 4.664 83.333 C7.089 82.704 9.513 82.071 11.938 81.438 C13.592 81.008 15.246 80.579 16.9 80.15 C20.935 79.104 24.968 78.053 29 77 C29 76.34 29 75.68 29 75 C22.902 74.791 17.279 76.372 11.375 77.75 Z M73 78 C71.381 80.572 70.956 81.677 71.375 84.75 C71.581 85.493 71.788 86.235 72 87 C72.99 86.67 73.98 86.34 75 86 C76.219 83.496 76.219 83.496 77 81 C75.68 80.01 74.36 79.02 73 78 Z M14.188 82.75 C13.158 83.003 12.129 83.255 11.068 83.516 C4.472 85.184 -1.755 87.299 -8 90 C-8 90.66 -8 91.32 -8 92 C-1.336 91.351 4.915 89.858 11.375 88.125 C12.352 87.868 13.329 87.612 14.336 87.348 C20.597 85.691 26.809 83.902 33 82 C33 81.34 33 80.68 33 80 C26.403 79.589 20.551 81.111 14.188 82.75 Z M79 85 C77.959 88.536 76.946 92.079 75.938 95.625 C75.643 96.624 75.348 97.623 75.045 98.652 C73.021 105.752 73.021 105.752 74 113 C74.99 113 75.98 113 77 113 C77.871 109.274 78.719 105.544 79.562 101.812 C79.809 100.757 80.056 99.702 80.311 98.615 C80.539 97.594 80.768 96.572 81.004 95.52 C81.219 94.582 81.433 93.645 81.655 92.679 C82.021 89.841 81.718 87.754 81 85 C80.34 85 79.68 85 79 85 Z M28.676 86.094 C27.134 86.432 27.134 86.432 25.561 86.777 C23.953 87.135 23.953 87.135 22.312 87.5 C21.229 87.738 20.146 87.977 19.029 88.223 C16.352 88.812 13.676 89.405 11 90 C11.33 90.99 11.66 91.98 12 93 C15.939 92.387 19.876 91.758 23.812 91.125 C24.932 90.951 26.052 90.777 27.205 90.598 C28.278 90.424 29.351 90.25 30.457 90.07 C31.447 89.913 32.437 89.756 33.456 89.594 C36.223 89.105 36.223 89.105 39 87 C38.34 86.34 37.68 85.68 37 85 C34.009 85 31.59 85.45 28.676 86.094 Z M6 101 C6.33 101.99 6.66 102.98 7 104 C7.923 103.685 8.846 103.371 9.797 103.047 C20.711 99.432 31.7 97.072 43 95 C43.33 94.01 43.66 93.02 44 92 C30.873 91.045 17.747 95.477 6 101 Z M9 105 C9.33 105.66 9.66 106.32 10 107 C18.4 105.48 26.794 103.931 35.188 102.375 C36.426 102.146 37.664 101.916 38.939 101.68 C41.96 101.12 44.98 100.56 48 100 C47.505 98.515 47.505 98.515 47 97 C34.17 97 21.088 101.084 9 105 Z M35.188 103.75 C34.254 103.92 33.32 104.09 32.357 104.266 C26.099 105.447 20.061 107.05 14 109 C14 109.66 14 110.32 14 111 C22.779 109.844 31.518 108.465 40.25 107 C41.274 106.834 42.298 106.668 43.354 106.497 C44.315 106.333 45.276 106.169 46.266 106 C47.13 105.856 47.994 105.711 48.884 105.562 C51.198 105.137 51.198 105.137 53 103 C46.715 101.644 41.448 102.521 35.188 103.75 Z M42.438 107.688 C40.866 107.93 40.866 107.93 39.264 108.178 C32.414 109.314 26.324 111.132 20 114 C20.33 114.66 20.66 115.32 21 116 C25.562 115.638 29.651 115.249 33.938 113.625 C41.303 110.945 49.283 110.174 57 109 C57 108.34 57 107.68 57 107 C52.12 105.373 47.433 106.845 42.438 107.688 Z M86 107 C82.668 113.2 82.668 113.2 81 120 C82.65 118.35 84.3 116.7 86 115 C85.881 115.748 85.763 116.495 85.641 117.266 C85.512 118.25 85.383 119.235 85.25 120.25 C85.041 121.712 85.041 121.712 84.828 123.203 C84.728 126.611 84.728 126.611 89 130 C88.67 122.41 88.34 114.82 88 107 C87.34 107 86.68 107 86 107 Z M25 119 C25 119.33 25 119.66 25 120 C29.833 120.083 34.237 119.953 39 119 C39 118.67 39 118.34 39 118 C33.118 116.073 30.457 115.453 25 119 Z M39 117 C43 118 43 118 43 118 Z M49.75 118.875 C48.91 118.964 48.071 119.053 47.206 119.144 C41.385 119.785 35.712 120.689 30 122 C30.33 122.99 30.66 123.98 31 125 C42.852 124.526 54.32 123.019 66 121 C65.505 119.515 65.505 119.515 65 118 C59.857 117.884 54.855 118.327 49.75 118.875 Z M35 127 C35.33 127.66 35.66 128.32 36 129 C42.069 129.253 47.162 128.698 53 127 C52.67 126.34 52.34 125.68 52 125 C45.902 124.779 40.784 124.988 35 127 Z M42 130 C42 130.66 42 131.32 42 132 C47.577 133.068 52.394 132.826 58 132 C58 131.01 58 130.02 58 129 C52.539 128.902 47.407 129.228 42 130 Z M289 134 C289.33 134.66 289.66 135.32 290 136 C291.196 135.773 292.392 135.546 293.625 135.312 C309.562 133.589 325.127 142.076 338.085 150.342 C338.824 150.813 339.563 151.284 340.324 151.77 C340.985 152.199 341.646 152.628 342.327 153.07 C343.972 154.162 343.972 154.162 346 154 C346.379 154.835 346.379 154.835 346.766 155.688 C348.19 158.356 349.908 160.601 351.75 163 C374.277 193.837 372.442 235.039 367 271 C363.606 292.467 357.842 314.508 347.215 333.594 C345.775 335.997 345.775 335.997 346 339 C349.759 337.775 351.075 335.636 352.841 332.204 C353.161 331.539 353.482 330.873 353.812 330.188 C354.156 329.484 354.499 328.78 354.853 328.055 C366.801 302.716 374.052 271.852 374.203 243.82 C374.209 242.968 374.215 242.116 374.22 241.238 C374.23 239.441 374.236 237.644 374.24 235.848 C374.25 233.166 374.281 230.486 374.312 227.805 C374.475 201.37 369.359 172.906 350.428 153.048 C335.549 138.469 315.516 131.824 295.004 131.734 C291.82 131.774 291.82 131.774 289 134 Z M52 134 C55.281 136.187 57.331 136.544 61.188 137.125 C62.818 137.376 62.818 137.376 64.48 137.633 C65.728 137.815 65.728 137.815 67 138 C67.33 136.68 67.66 135.36 68 134 C62.72 134 57.44 134 52 134 Z M208.557 172.595 C207.044 173.96 205.517 175.306 203.984 176.648 C199.343 180.77 194.986 184.936 190.996 189.691 C188.861 192.161 186.633 194.522 184.387 196.891 C179.403 202.16 174.623 207.508 170.188 213.25 C169.761 213.799 169.335 214.347 168.895 214.913 C166.656 217.651 166.656 217.651 166 221 C170.379 219.419 172.824 215.978 175.688 212.5 C176.759 211.223 177.832 209.947 178.906 208.672 C179.432 208.045 179.958 207.418 180.5 206.771 C183.216 203.564 186.042 200.459 188.871 197.352 C190.296 195.778 191.705 194.189 193.098 192.586 C208.971 174.436 226.246 161.647 249.25 154 C250.778 153.49 250.778 153.49 252.336 152.969 C263.046 149.495 273.952 147.12 285 145 C284.505 143.515 284.505 143.515 284 142 C258.108 142 227.486 155.498 208.557 172.595 Z M98 146 C98.66 147.32 99.32 148.64 100 150 C100 149.01 100 148.02 100 147 C99.34 146.67 98.68 146.34 98 146 Z M320 150 C316.959 153.362 314.835 156.897 312.812 160.938 C312.303 161.937 311.794 162.936 311.27 163.965 C309.995 167.013 309.404 169.732 309 173 C312.455 171.848 312.613 171.428 314.227 168.359 C314.618 167.618 315.01 166.877 315.414 166.113 C315.814 165.333 316.213 164.554 316.625 163.75 C317.032 162.986 317.44 162.221 317.859 161.434 C319.829 157.658 321.502 154.291 322 150 C321.34 150 320.68 150 320 150 Z M104 153 C105.309 156.122 105.309 156.122 108 158 C106.691 154.878 106.691 154.878 104 153 Z M299 156 C294.66 161.803 291.183 167.064 289 174 C289.99 174 290.98 174 292 174 C293.506 171.936 294.792 169.952 296.062 167.75 C296.414 167.163 296.765 166.577 297.127 165.973 C298.871 163.038 300.528 160.081 302 157 C301.01 156.67 300.02 156.34 299 156 Z M109 159 C110.37 162.161 110.989 162.993 114 165 C112.63 161.839 112.011 161.007 109 159 Z M-84 163 C-82.407 167.454 -80.145 171.299 -77.688 175.312 C-77.282 175.976 -76.877 176.64 -76.46 177.323 C-75.661 178.63 -74.862 179.937 -74.062 181.243 C-73.183 182.697 -72.341 184.172 -71.508 185.652 C-68.586 190.779 -65.773 192.867 -60.124 194.564 C-57.999 195.102 -55.868 195.585 -53.727 196.051 C-52.933 196.23 -52.14 196.41 -51.323 196.595 C-48.758 197.174 -46.192 197.743 -43.625 198.312 C-40.101 199.106 -36.578 199.904 -33.055 200.703 C-32.188 200.899 -31.321 201.095 -30.428 201.297 C-22.189 203.167 -13.997 205.2 -5.819 207.323 C-4.945 207.548 -4.072 207.773 -3.172 208.004 C-2.43 208.198 -1.689 208.392 -0.925 208.592 C1.161 209.104 1.161 209.104 4 209 C3.512 203.678 0.689 199.76 -2.125 195.375 C-2.817 194.23 -2.817 194.23 -3.523 193.062 C-7.459 186.899 -10.624 185.205 -17.652 183.27 C-18.406 183.119 -19.161 182.968 -19.938 182.812 C-21.278 182.544 -22.619 182.276 -24 182 C-22.35 184.97 -20.7 187.94 -19 191 C-21.375 188.795 -22.971 187.059 -24.414 184.125 C-27.585 179.291 -33.383 178.272 -38.625 176.625 C-39.687 176.271 -40.749 175.916 -41.844 175.551 C-46.821 173.725 -46.821 173.725 -52 173 C-50.726 177.631 -48.752 181.211 -46.121 185.168 C-45 187 -45 187 -44 190 C-47.243 187.22 -48.608 184.621 -50.232 180.719 C-53.24 174.084 -56.427 170.853 -63.336 168.238 C-73.471 164.601 -73.471 164.601 -84 163 Z M254 163 C252.797 165.405 252.899 166.95 252.938 169.625 C252.947 170.442 252.956 171.26 252.965 172.102 C252.976 172.728 252.988 173.355 253 174 C256.37 172.257 256.37 172.257 256.75 168.5 C257.288 165.151 257.288 165.151 256 163 C255.34 163 254.68 163 254 163 Z M114 165 C115.347 167.917 116.884 170.259 118.941 172.723 C119.52 173.42 120.099 174.118 120.696 174.836 C121.312 175.571 121.928 176.306 122.562 177.062 C123.843 178.603 125.122 180.143 126.402 181.684 C127.024 182.429 127.645 183.173 128.285 183.941 C133.89 190.67 139.4 197.477 144.875 204.312 C145.384 204.948 145.894 205.584 146.418 206.238 C148.901 209.344 151.365 212.461 153.789 215.613 C158.81 222.128 164.01 228.311 169.645 234.304 C175.462 240.506 181.039 246.928 185.688 254.062 C188.285 257.362 189.945 258.151 194 259 C192.666 256.119 191.157 253.787 189.129 251.348 C188.56 250.66 187.991 249.972 187.405 249.264 C186.797 248.537 186.189 247.811 185.562 247.062 C184.936 246.308 184.309 245.554 183.663 244.777 C181.78 242.514 179.891 240.256 178 238 C177.476 237.372 176.951 236.744 176.411 236.098 C171.123 229.77 165.728 223.563 160.18 217.461 C157.089 213.971 154.181 210.342 151.25 206.719 C148.355 203.221 145.304 199.882 142.246 196.527 C139.938 193.93 137.744 191.266 135.562 188.562 C131.645 183.72 127.524 179.108 123.305 174.527 C121.298 172.326 119.354 170.092 117.438 167.812 C116.633 166.884 115.829 165.956 115 165 C114.67 165 114.34 165 114 165 Z M191 210 C190.228 210.731 189.456 211.462 188.66 212.215 C183.281 217.447 178.562 223.046 174 229 C175.735 233.172 178.605 236.346 181.5 239.75 C181.999 240.352 182.498 240.954 183.012 241.574 C184.294 243.09 185.643 244.55 187 246 C187.66 246 188.32 246 189 246 C190.29 244.552 191.508 243.039 192.688 241.5 C203.53 227.652 203.53 227.652 209 225 C208.001 226.146 207 227.292 206 228.438 C205.364 229.166 204.729 229.894 204.074 230.645 C202.692 232.214 201.299 233.774 199.895 235.324 C196.224 239.38 192.869 243.338 190 248 C192.709 253.817 196.333 259.693 202.188 262.562 C205.184 263.102 205.184 263.102 209 263 C210.944 260.87 210.944 260.87 212.688 258.062 C222.05 244.606 234.154 235.144 250.34 231.469 C258.487 230.209 266.386 231.752 273.188 236.469 C280.705 242.82 284.522 251.984 285.75 261.625 C285.855 263.082 285.939 264.541 286 266 C286.04 266.682 286.08 267.364 286.121 268.066 C286.744 287.972 279.378 310.878 267.191 326.707 C264.792 329.626 264.792 329.626 265.059 332.05 C266.394 334.816 268.101 335.243 270.867 336.492 C274.057 338.3 275.68 339.338 277.29 342.665 C278.101 345.814 278.662 348.907 279.125 352.125 C279.318 353.209 279.512 354.293 279.711 355.41 C280.45 359.68 281 363.658 281 368 C274.852 368.264 269.206 367.263 263.188 366.062 C262.234 365.88 261.281 365.698 260.299 365.51 C253.286 364.143 253.286 364.143 251 363 C251 362.01 251 361.02 251 360 C252.048 359.951 253.096 359.902 254.176 359.852 C255.555 359.777 256.934 359.701 258.312 359.625 C259.348 359.579 259.348 359.579 260.404 359.531 C264.07 359.319 265.879 359.081 269 357 C268.38 354.27 267.754 351.541 267.125 348.812 C266.951 348.044 266.777 347.275 266.598 346.482 C265.675 342.499 264.669 338.752 263 335 C262.031 335.825 261.061 336.65 260.062 337.5 C259.415 338.048 258.768 338.596 258.102 339.16 C256.708 340.38 255.347 341.638 254.023 342.934 C244.542 352.042 233.319 357.41 220.105 357.281 C212.912 356.63 207.007 353.121 202 348 C199.953 345.145 198.438 342.202 197 339 C196.604 338.121 196.209 337.242 195.801 336.336 C189.639 319.948 192.378 302.067 197.44 285.809 C198.992 281.43 198.992 281.43 198.137 277.086 C193.855 272.031 189.51 270.083 183 269 C181.334 268.961 179.666 268.95 178 269 C171.685 282.523 165.354 296.847 165 312 C164.961 312.824 164.923 313.647 164.883 314.496 C164.703 321.554 165.312 328.539 165.938 335.562 C166.068 337.028 166.068 337.028 166.2 338.522 C166.688 343.842 166.688 343.842 168 349 C166 348 166 348 165.391 346.287 C164.157 340.496 163.547 334.85 163.312 328.938 C163.257 327.562 163.257 327.562 163.201 326.159 C162.469 304.626 167.514 287.541 176 268 C169.447 265.51 169.447 265.51 162.812 263.25 C162.015 262.987 161.217 262.724 160.395 262.453 C157.306 261.869 155.894 261.652 153 263 C151.221 265.826 150.138 268.871 149 272 C148.658 272.905 148.315 273.81 147.962 274.742 C137.296 303.408 132.222 333.835 141.438 363.688 C141.623 364.781 141.809 365.874 142 367 C140.125 369.625 140.125 369.625 138 372 C137.53 375.355 137.346 377.109 139.375 379.875 C140.945 381.19 140.945 381.19 143 381 C142.881 380.397 142.763 379.793 142.641 379.172 C141.599 372.715 141.599 372.715 143.438 369.438 C147.128 367.367 149.803 367.72 154 368 C155.15 373.22 155.15 373.22 155 376 C152.5 378.75 152.5 378.75 150 381 C150.672 388.21 157.619 393.892 162.838 398.256 C177.711 410.171 195.58 416.374 214.731 414.602 C223.864 413.576 232.345 411.015 241 408 C240.423 408.976 239.845 409.952 239.25 410.957 C238.5 412.242 237.75 413.527 237 414.812 C236.618 415.455 236.237 416.098 235.844 416.76 C233.568 420.621 233.568 420.621 233 425 C236.438 423.585 237.987 422.04 240 418.938 C240.789 417.731 240.789 417.731 241.594 416.5 C242.917 414.147 243.683 411.996 244.5 409.438 C246.624 404.344 250.662 402.519 255.308 400.081 C271.324 391.673 285.067 378.222 296 364 C297.005 362.755 298.011 361.512 299.02 360.27 C322.754 330.642 341.703 289.612 337.773 250.755 C335.571 231.172 330.992 210.998 315 198 C271.988 166.196 229.139 173.872 191 210 Z M350 179 C349.618 185.218 351.041 190.32 352.812 196.25 C363.281 233.304 359.254 268.01 346.562 304 C344.984 308.54 344.632 312.213 345 317 C348.313 314.348 349.099 311.316 350.34 307.34 C350.547 306.682 350.754 306.025 350.968 305.348 C351.635 303.214 352.288 301.077 352.938 298.938 C353.161 298.21 353.384 297.482 353.615 296.732 C365.77 257.096 367.904 218.241 352 179 C351.34 179 350.68 179 350 179 Z M331 184 C329.132 189.487 328.764 194.222 329 200 C329.66 200 330.32 200 331 200 C331.506 198.085 332.004 196.168 332.5 194.25 C332.918 192.649 332.918 192.649 333.344 191.016 C334.142 187.863 334.142 187.863 334 184 C333.01 184 332.02 184 331 184 Z M13 210 C12.67 210.99 12.34 211.98 12 213 C28.281 218.704 44.75 223.629 61.312 228.435 C63.101 228.954 64.89 229.473 66.68 229.992 C67.561 230.248 68.441 230.503 69.349 230.767 C77.439 233.118 85.504 235.545 93.562 238 C94.89 238.404 96.218 238.807 97.546 239.21 C103.269 240.95 108.991 242.692 114.712 244.438 C136.588 251.106 158.515 257.465 180.63 263.293 C184.396 264.289 188.148 265.321 191.892 266.395 C193.111 266.743 193.111 266.743 194.354 267.097 C195.915 267.544 197.475 267.996 199.032 268.454 C202.776 269.523 206.098 270.272 210 270 C210 269.01 210 268.02 210 267 C200.842 263.6 191.69 260.658 182.25 258.125 C180.989 257.781 179.728 257.437 178.429 257.083 C172.542 255.479 166.647 253.903 160.746 252.352 C147.96 248.98 135.281 245.328 122.625 241.5 C107.568 236.948 92.489 232.479 77.38 228.104 C75.169 227.464 72.959 226.822 70.749 226.178 C58.198 222.523 45.626 219.059 32.92 215.979 C26.142 214.33 19.543 212.439 13 210 Z M388 228 C387.352 229.27 386.706 230.541 386.062 231.812 C385.703 232.52 385.343 233.228 384.973 233.957 C382.996 238.109 382.914 241.446 383 246 C383.66 246 384.32 246 385 246 C385.841 243.753 386.673 241.503 387.5 239.25 C387.738 238.616 387.977 237.982 388.223 237.328 C389.448 233.967 390 231.631 390 228 C389.34 228 388.68 228 388 228 Z M157 231 C155.548 232.881 154.186 234.831 152.875 236.812 C152.151 237.891 151.426 238.97 150.68 240.082 C148.751 242.872 148.751 242.872 149 246 C152.887 244.704 153.854 242.908 156.25 239.625 C156.977 238.648 157.704 237.671 158.453 236.664 C158.964 235.785 159.474 234.906 160 234 C159.67 233.01 159.34 232.02 159 231 C158.34 231 157.68 231 157 231 Z M166 240 C165.158 241.098 164.327 242.203 163.5 243.312 C163.036 243.927 162.572 244.542 162.094 245.176 C160.743 247.074 160.743 247.074 161 250 C163.622 250.863 166.247 251.716 168.875 252.562 C169.621 252.809 170.368 253.056 171.137 253.311 C175.091 254.863 175.091 254.863 179 254 C174.788 249.202 170.587 244.444 166 240 Z M224 265 C221.104 268.801 220.668 271.244 221 276 C221.66 276 222.32 276 223 276 C223.937 274.517 224.799 272.986 225.625 271.438 C230.014 263.906 236.503 257.631 245 255 C249.87 254.209 253.558 254.05 257.75 256.812 C260.931 261.32 263.497 266.089 266 271 C266.66 270.67 267.32 270.34 268 270 C267.519 263.747 264.823 257.434 260.02 253.293 C247.283 245.139 232.23 255.079 224 265 Z M139 258 C117.906 299.694 106.883 351.239 120.5 396.938 C120.701 397.619 120.903 398.3 121.11 399.002 C122.268 402.618 122.736 403.824 126 406 C125.574 400.777 124.498 396.044 123.062 391 C111.636 349.862 122.298 301.473 140.247 263.805 C141.044 261.895 141.547 260.017 142 258 C141.01 258 140.02 258 139 258 Z M236 272 C233.243 274.828 231.583 277.062 231 281 C233.837 279.886 235.061 278.924 237 276.5 C238.99 274.012 240.024 272.992 243 272 C245.75 271.875 245.75 271.875 248 272 C251.598 277.546 251.748 282.611 251 289 C249.257 296.636 246.028 302.898 240 308 C237.663 309.346 235.581 310.157 233 311 C233 311.66 233 312.32 233 313 C239.434 312.387 243.157 309.887 247.625 305.312 C253.733 297.372 255.304 288.936 255 279 C254.251 274.961 252.969 272.001 250.062 269 C244.848 266.472 240.43 269.189 236 272 Z M117 275 C115.993 276.934 114.994 278.872 114 280.812 C113.443 281.891 112.886 282.97 112.312 284.082 C110.795 286.923 110.795 286.923 111 290 C114.217 289.287 114.217 289.287 115.605 286.348 C116.389 284.722 116.389 284.722 117.188 283.062 C117.717 281.981 118.247 280.899 118.793 279.785 C120.133 277.2 120.133 277.2 120 275 C119.01 275 118.02 275 117 275 Z M203 275 C214.463 291.637 214.463 291.637 230 304 C228.768 299.483 226.343 297.213 223.066 294.094 C219.846 290.831 217.058 287.236 214.211 283.648 C209.641 277.694 209.641 277.694 203 275 Z M265 279 C265 280.65 265 282.3 265 284 C265.99 283.67 266.98 283.34 268 283 C268 281.68 268 280.36 268 279 C267.01 279 266.02 279 265 279 Z M384 315 C382.619 316.675 381.319 318.417 380.062 320.188 C379.373 321.15 378.683 322.113 377.973 323.105 C374.262 327.809 374.262 327.809 373.312 333.312 C373.539 333.869 373.766 334.426 374 335 C379.09 330.527 382.892 325.01 386 319 C386 317.68 386 316.36 386 315 C385.34 315 384.68 315 384 315 Z M252 320 C251.34 321.32 250.68 322.64 250 324 C250.99 324 251.98 324 253 324 C252.67 322.68 252.34 321.36 252 320 Z M219 322 C218.67 322.66 218.34 323.32 218 324 C220.694 329.388 223.668 331.405 229.316 333.453 C233.532 334.312 237.007 333.428 241 332 C241 331.01 241 330.02 241 329 C240.264 329.035 239.528 329.07 238.77 329.105 C228.98 329.377 228.98 329.377 225 326 C223.667 324.667 222.333 323.333 221 322 C220.34 322 219.68 322 219 322 Z M267 337 C267.677 342.819 268.996 348.419 270.379 354.109 C271 357 271 357 271 360 C264.565 360.495 264.565 360.495 258 361 C258.33 361.66 258.66 362.32 259 363 C262.059 363.924 262.059 363.924 265.688 364.625 C266.908 364.885 268.129 365.146 269.387 365.414 C272.675 365.947 275.678 366.112 279 366 C278.386 361.99 277.705 357.995 277 354 C276.708 352.242 276.708 352.242 276.41 350.449 C275.454 344.437 275.454 344.437 272.508 339.293 C269.971 337.57 269.971 337.57 267 337 Z M341 348 C339.531 349.767 339.531 349.767 338.312 352 C337.876 352.743 337.439 353.485 336.988 354.25 C336.662 354.827 336.336 355.405 336 356 C336.99 356.33 337.98 356.66 339 357 C342.47 352.977 342.47 352.977 344 348 C343.01 348 342.02 348 341 348 Z M307.963 363.764 C307.46 364.275 306.956 364.786 306.438 365.312 C305.93 365.812 305.423 366.312 304.9 366.826 C302.543 369.196 301.071 370.786 300 374 C303.852 374.405 303.852 374.405 305.816 372.609 C306.393 371.996 306.969 371.382 307.562 370.75 C308.163 370.111 308.764 369.471 309.383 368.812 C313.069 364.983 313.069 364.983 314 360 C311.049 360 309.956 361.781 307.963 363.764 Z M325.875 361.812 C323.675 363.899 323.675 363.899 324 367 C326.468 365.848 328.048 364.952 330 363 C330 362.01 330 361.02 330 360 C327.788 359.784 327.788 359.784 325.875 361.812 Z M325.312 369.5 C324.879 369.995 324.446 370.49 324 371 C324.33 371.99 324.66 372.98 325 374 C326.707 372.719 328.374 371.382 330 370 C330 369.34 330 368.68 330 368 C326.997 367.668 326.997 367.668 325.312 369.5 Z M149 369 C147.35 370.65 145.7 372.3 144 374 C144.66 375.65 145.32 377.3 146 379 C148.49 378.439 148.49 378.439 151 377 C152.372 373.97 152.372 373.97 153 371 C151.68 370.34 150.36 369.68 149 369 Z M320 376 C316.364 379.48 316.364 379.48 315 384 C317.755 383.62 318.82 383.193 320.75 381.125 C322.254 378.98 322.254 378.98 322 376 C321.34 376 320.68 376 320 376 Z M341.16 381.609 C340.122 382.669 340.122 382.669 339.062 383.75 C338.373 384.446 337.683 385.142 336.973 385.859 C335.149 387.839 333.474 389.747 332 392 C332.217 394.208 332.217 394.208 333 396 C337.939 392.558 341.77 388.055 345 383 C345 382.01 345 381.02 345 380 C342.843 379.781 342.843 379.781 341.16 381.609 Z M100 381 C102.576 397.588 106.081 412.847 117 426 C117.801 427.074 118.595 428.154 119.383 429.238 C134.374 449.757 154.431 460.388 179 466 C185.726 466.997 192.267 466.81 199 466 C199.674 465.922 200.348 465.843 201.043 465.763 C225.07 462.633 247.063 449.399 266 435 C266.584 434.557 267.168 434.113 267.769 433.657 C274.529 428.79 274.529 428.79 279 422 C275.866 422.599 273.965 423.561 271.488 425.555 C270.822 426.082 270.155 426.609 269.469 427.152 C268.757 427.72 268.046 428.289 267.312 428.875 C241.765 448.8 213.405 465.037 180 462 C160.322 458.571 139.256 448.635 127.414 432.098 C126.947 431.405 126.481 430.713 126 430 C125.128 428.748 124.253 427.498 123.375 426.25 C122.981 425.684 122.586 425.118 122.18 424.535 C120.891 422.769 120.891 422.769 118.5 420.688 C111.005 412.631 108.762 401.145 105.863 390.842 C105.535 389.717 105.206 388.592 104.867 387.434 C104.436 385.903 104.436 385.903 103.996 384.342 C103.667 383.569 103.339 382.796 103 382 C102.01 381.67 101.02 381.34 100 381 Z M149 392 C147.825 393.43 146.66 394.87 145.5 396.312 C144.85 397.113 144.201 397.914 143.531 398.738 C141.72 400.959 141.72 400.959 142 404 C145.471 402.591 146.881 401.094 148.75 397.875 C149.178 397.151 149.606 396.426 150.047 395.68 C150.361 395.125 150.676 394.571 151 394 C150.34 393.34 149.68 392.68 149 392 Z M289.312 410.312 C287.693 412.038 287.693 412.038 288 415 C290.622 413.951 291.794 413.351 293.25 410.875 C293.497 410.256 293.745 409.637 294 409 C291.038 408.693 291.038 408.693 289.312 410.312 Z M273 412 C271.519 414.058 270.185 416.088 268.875 418.25 C268.502 418.837 268.13 419.423 267.746 420.027 C265.685 423.387 265 424.955 265 429 C269.184 427.605 269.663 425.471 271.688 421.625 C272.621 419.881 272.621 419.881 273.574 418.102 C275.209 415.115 275.209 415.115 275 412 C274.34 412 273.68 412 273 412 Z M136 415 C136 416.32 136 417.64 136 419 C138.061 420.815 138.061 420.815 140.75 422.25 C141.632 422.771 142.513 423.292 143.422 423.828 C146.135 425.276 146.135 425.276 150 425 C150 424.34 150 423.68 150 423 C147.888 421.472 147.888 421.472 145.25 420 C144.368 419.484 143.487 418.969 142.578 418.438 C140.41 417.228 138.232 416.085 136 415 Z M215 433 C211.484 436.759 208.33 440.712 208 446 C211.604 444.799 212.147 443.739 214.188 440.625 C214.717 439.834 215.247 439.042 215.793 438.227 C217.238 435.983 217.238 435.983 217 433 C216.34 433 215.68 433 215 433 Z M183 438 C178.821 442.578 178.821 442.578 176 448 C176.292 449.343 176.622 450.679 177 452 C178.203 450.428 179.387 448.842 180.562 447.25 C181.554 445.927 181.554 445.927 182.566 444.578 C184.25 442.146 184.25 442.146 183.715 439.672 C183.479 439.12 183.243 438.568 183 438 Z M279.375 457 C278.261 457.66 277.148 458.32 276 459 C278.987 481.25 282.273 503.414 286.312 525.5 C286.489 526.469 286.665 527.439 286.847 528.438 C287.348 531.178 287.854 533.917 288.363 536.656 C288.514 537.475 288.665 538.294 288.82 539.138 C289.538 543.185 289.538 543.185 291 547 C289.02 547.495 289.02 547.495 287 548 C286.67 549.32 286.34 550.64 286 552 C287.32 552 288.64 552 290 552 C290 551.34 290 550.68 290 550 C290.66 550 291.32 550 292 550 C291.979 551.072 291.959 552.145 291.938 553.25 C291.849 556.728 291.849 556.728 292.5 558.938 C293.309 562.273 293.057 565.577 293 569 C296.123 570.018 297.925 570.016 301 568.875 C301.66 568.646 302.32 568.416 303 568.18 C305.97 566.428 307.314 565.048 309 562 C308.956 558.69 308.188 555.635 307.375 552.438 C307.183 551.587 306.991 550.737 306.793 549.861 C305.882 545.962 304.898 542.546 303 539 C302.01 539 301.02 539 300 539 C300.351 538.505 300.701 538.01 301.062 537.5 C303.148 531.94 300.62 524.938 299.18 519.355 C298.808 517.875 298.437 516.394 298.066 514.913 C297.872 514.142 297.677 513.372 297.477 512.578 C292.675 493.504 288.677 474.319 285 455 C282.537 455 281.479 455.753 279.375 457 Z M251 547 C250.34 547.66 249.68 548.32 249 549 C257.747 553.351 267.121 556.674 277 556 C274.876 553.618 273.262 552.52 270.199 551.648 C269.469 551.437 268.739 551.226 267.986 551.008 C267.228 550.799 266.469 550.59 265.688 550.375 C264.567 550.05 264.567 550.05 263.424 549.719 C257.29 547.964 257.29 547.964 251 547 Z M217 552 C222.528 554.106 227.07 555.379 233 555 C232.67 554.01 232.34 553.02 232 552 C227.241 549.847 221.022 547.978 217 552 Z M182 554 C188.945 556.894 195.953 558.387 203.312 559.875 C212.729 561.826 222.056 563.919 231.314 566.527 C234.719 567.473 237.43 568 241 568 C240.505 566.515 240.505 566.515 240 565 C237.151 564.049 234.421 563.299 231.504 562.625 C230.641 562.414 229.778 562.204 228.89 561.987 C226.117 561.312 223.34 560.656 220.562 560 C217.818 559.341 215.075 558.678 212.332 558.013 C210.624 557.6 208.916 557.192 207.206 556.788 C202.134 555.576 197.16 554.178 192.189 552.603 C188.074 551.469 185.102 550.898 182 554 Z M151 555 C151.699 558.251 151.699 558.251 154.777 559.461 C160.236 561.598 165.917 563.073 171.562 564.625 C172.673 564.937 173.784 565.249 174.928 565.57 C179.944 566.963 184.849 568.209 190 569 C190 568.01 190 567.02 190 566 C184.679 563.965 179.347 561.966 174 560 C173.307 559.744 172.613 559.489 171.899 559.225 C161.724 555.455 161.724 555.455 151 555 Z M242 555 C242 555.99 242 556.98 242 558 C245.049 559.011 245.049 559.011 248 558 C248 557.34 248 556.68 248 556 C245.03 555.505 245.03 555.505 242 555 Z M286 558 C283.412 561.056 283.412 561.056 283 565 C285.622 563.951 286.794 563.351 288.25 560.875 C288.497 560.256 288.745 559.638 289 559 C288.01 558.67 287.02 558.34 286 558 Z M291 565 C290.505 566.98 290.505 566.98 290 569 C290.66 568.67 291.32 568.34 292 568 C291.67 567.01 291.34 566.02 291 565 Z M203 568 C203 569.32 203 570.64 203 572 C204.65 571.67 206.3 571.34 208 571 C208.33 570.01 208.66 569.02 209 568 C207.02 568 205.04 568 203 568 Z M144 569 C138.493 575.547 135.584 583.471 136 592 C136.66 592 137.32 592 138 592 C138.387 590.987 138.773 589.974 139.172 588.93 C139.698 587.578 140.224 586.226 140.75 584.875 C141.003 584.21 141.255 583.545 141.516 582.859 C142.816 579.543 144.177 576.572 146.203 573.633 C148.188 571.256 148.188 571.256 148 569 C146.68 569 145.36 569 144 569 Z M215 570 C214.67 570.99 214.34 571.98 214 573 C215.456 573.363 216.915 573.715 218.375 574.062 C219.593 574.358 219.593 574.358 220.836 574.66 C223.042 575.221 223.042 575.221 225 574 C225 573.34 225 572.68 225 572 C221.598 569.906 218.947 569.821 215 570 Z M153 574 C150.325 576.345 149.118 578.583 147.812 581.875 C147.468 582.718 147.124 583.561 146.77 584.43 C145.972 587.092 145.856 589.238 146 592 C149.684 588.82 151.113 585.798 152.75 581.25 C153.178 580.08 153.606 578.909 154.047 577.703 C154.361 576.811 154.676 575.919 155 575 C154.34 574.67 153.68 574.34 153 574 Z M171 606 C167.842 612.4 166.578 618.956 165.25 625.938 C165.017 627.079 164.783 628.22 164.543 629.396 C163.351 635.575 162.545 640.829 164 647 C164.66 647.33 165.32 647.66 166 648 C166.141 647.295 166.282 646.59 166.427 645.864 C167.522 640.391 168.616 634.918 169.711 629.445 C169.927 628.359 170.144 627.272 170.367 626.153 C170.773 624.132 171.185 622.112 171.606 620.093 C171.878 618.779 171.878 618.779 172.156 617.438 C172.317 616.676 172.477 615.914 172.643 615.129 C173.161 612.04 173.136 609.125 173 606 C172.34 606 171.68 606 171 606 Z M255 612 C251.006 615.994 251.787 622.092 251.75 627.438 C251.729 628.175 251.709 628.913 251.688 629.674 C251.653 634.542 252.425 637.725 255 642 C255.33 642 255.66 642 256 642 C256 632.1 256 622.2 256 612 C255.67 612 255.34 612 255 612 Z M130 620 C127.704 622.296 127.677 623.008 127.375 626.125 C127.251 627.404 127.127 628.683 127 630 C127.66 630 128.32 630 129 630 C129.99 627.03 130.98 624.06 132 621 C131.34 620.67 130.68 620.34 130 620 Z M355 626 C354.67 627.65 354.34 629.3 354 631 C354.99 630.67 355.98 630.34 357 630 C357 628.68 357 627.36 357 626 C356.34 626 355.68 626 355 626 Z M96 628 C96.281 629.481 96.575 630.96 96.875 632.438 C97.037 633.261 97.2 634.085 97.367 634.934 C97.576 635.616 97.785 636.297 98 637 C98.66 637.33 99.32 637.66 100 638 C100.33 635.69 100.66 633.38 101 631 C99.35 630.01 97.7 629.02 96 628 Z M262 633 C261.946 635.291 261.907 637.583 261.875 639.875 C261.852 641.151 261.829 642.427 261.805 643.742 C261.644 647.086 261.644 647.086 264 649 C266.493 645.26 266.06 643.709 265.625 639.312 C265.514 638.133 265.403 636.954 265.289 635.738 C265.194 634.835 265.098 633.931 265 633 C264.01 633 263.02 633 262 633 Z M122 636 C120.396 637.185 120.396 637.185 119 639 C118.749 641.626 118.749 641.626 119 644 C119.99 644.495 119.99 644.495 121 645 C121.99 642.36 122.98 639.72 124 637 C123.34 636.67 122.68 636.34 122 636 Z M175 639 C172.4 645.806 172.4 645.806 172 653 C172.66 653 173.32 653 174 653 C176.434 648.03 177.346 644.654 177 639 C176.34 639 175.68 639 175 639 Z M311 642 C309.085 647.744 309.056 654.481 311.375 660.125 C312.691 663.078 312.691 663.078 315 664 C314.861 660.708 314.713 657.416 314.562 654.125 C314.523 653.188 314.484 652.251 314.443 651.285 C314.381 649.941 314.381 649.941 314.316 648.57 C314.28 647.743 314.243 646.915 314.205 646.063 C314.118 643.938 314.118 643.938 313 642 C312.34 642 311.68 642 311 642 Z M100 646 C99.67 646.99 99.34 647.98 99 649 C99.99 648.67 100.98 648.34 102 648 C101.34 647.34 100.68 646.68 100 646 Z M208 647 C206.282 650.436 206.88 654.384 206.902 658.164 C206.904 659.071 206.905 659.978 206.907 660.913 C206.912 663.817 206.925 666.721 206.938 669.625 C206.943 671.591 206.947 673.557 206.951 675.523 C206.962 680.349 206.979 685.174 207 690 C207.99 690 208.98 690 210 690 C211.198 686.238 211.162 682.508 211.168 678.602 C211.173 677.533 211.173 677.533 211.178 676.442 C211.183 674.938 211.185 673.433 211.185 671.929 C211.187 669.64 211.206 667.351 211.225 665.062 C211.228 663.596 211.23 662.13 211.23 660.664 C211.238 659.986 211.245 659.307 211.252 658.609 C211.232 654.369 210.542 650.943 209 647 C208.67 647 208.34 647 208 647 Z M111 648 C110.34 649.98 109.68 651.96 109 654 C109.99 654 110.98 654 112 654 C112.33 652.35 112.66 650.7 113 649 C112.34 648.67 111.68 648.34 111 648 Z M321 653 C320.856 658.255 321.345 663.089 322.312 668.25 C322.43 668.956 322.548 669.663 322.67 670.391 C323.585 675.429 323.585 675.429 327 679 C327.33 679 327.66 679 328 679 C327.562 670.611 326.884 661.95 324 654 C323.01 653.67 322.02 653.34 321 653 Z M99 656 C97.704 657.066 97.704 657.066 97.938 659.562 C97.958 660.367 97.979 661.171 98 662 C98.66 662 99.32 662 100 662 C100.33 660.02 100.66 658.04 101 656 C100.34 656 99.68 656 99 656 Z M89 657 C88.67 658.98 88.34 660.96 88 663 C88.99 662.67 89.98 662.34 91 662 C91 660.35 91 658.7 91 657 C90.34 657 89.68 657 89 657 Z M333 659 C334.032 667.554 334.032 667.554 338 675 C338.66 675 339.32 675 340 675 C339.745 668.552 339.315 663.968 335 659 C334.34 659 333.68 659 333 659 Z M199 660 C195.717 665.69 195.89 671.624 196 678 C196.66 678 197.32 678 198 678 C198.505 675.751 199.004 673.501 199.5 671.25 C199.778 669.997 200.057 668.744 200.344 667.453 C201.124 663.931 201.124 663.931 201 660 C200.34 660 199.68 660 199 660 Z M121 663 C119.396 666.508 118.78 669.144 119 673 C122.288 670.274 122.288 670.274 123.25 666.25 C123.168 665.508 123.085 664.765 123 664 C122.34 663.67 121.68 663.34 121 663 Z M218 677 C218 681.95 218 686.9 218 692 C218.99 692.495 218.99 692.495 220 693 C221.29 690.42 221.204 688.443 221.25 685.562 C221.289 684.11 221.289 684.11 221.328 682.629 C221.225 679.611 221.225 679.611 218 677 Z M105 678 C104.158 680.08 103.327 682.164 102.5 684.25 C102.036 685.41 101.572 686.57 101.094 687.766 C99.786 691.062 99.786 691.062 100 695 C103.306 694.281 103.306 694.281 104.641 690.91 C105.188 689.632 105.724 688.35 106.25 687.062 C106.672 686.093 106.672 686.093 107.102 685.104 C107.804 683.43 108.409 681.716 109 680 C108.67 679.34 108.34 678.68 108 678 C107.01 678 106.02 678 105 678 Z M115 681 C111.478 687.106 111.478 687.106 111 694 C114.15 693.334 114.15 693.334 115.168 690.785 C115.673 689.437 115.673 689.437 116.188 688.062 C116.532 687.167 116.876 686.271 117.23 685.348 C118.104 683.095 118.104 683.095 118 681 C117.01 681 116.02 681 115 681 Z " fill="#000000" transform="translate(247,70)"/>
<path d="M0 0 C0.66 0.33 1.32 0.66 2 1 C1.882 6.642 1.758 12.283 1.628 17.925 C1.584 19.845 1.543 21.764 1.503 23.684 C1.445 26.442 1.381 29.199 1.316 31.957 C1.3 32.816 1.283 33.676 1.266 34.561 C1.246 35.362 1.226 36.163 1.205 36.988 C1.19 37.691 1.174 38.395 1.158 39.121 C1 41 1 41 0 44 C-0.66 44 -1.32 44 -2 44 C-2.05 38.698 -2.086 33.396 -2.11 28.094 C-2.12 26.292 -2.134 24.49 -2.151 22.688 C-2.175 20.091 -2.187 17.495 -2.195 14.898 C-2.206 14.098 -2.216 13.298 -2.227 12.473 C-2.227 7.914 -1.736 4.295 0 0 Z " fill="#000000" transform="translate(496,256)"/>
<path d="M0 0 C3.288 2.283 3.943 3.789 5 7.688 C5.387 12.742 3.736 16.806 1 21 C-2.199 23.915 -4.197 24.854 -8.438 25.625 C-13.246 24.781 -16.119 22.959 -19 19 C-19.899 14.711 -19.862 12.711 -17.918 8.852 C-14.063 3.138 -7.302 -3.245 0 0 Z M-13.812 7.75 C-16.394 11.586 -16.77 13.467 -16 18 C-14.5 20.167 -14.5 20.167 -12 21 C-8.947 21.158 -8.947 21.158 -6 20 C-2.426 16.233 -0.854 13.638 -0.812 8.5 C-0.791 7.309 -0.791 7.309 -0.77 6.094 C-0.803 3.78 -0.803 3.78 -3 2 C-7.932 2 -10.364 4.378 -13.812 7.75 Z " fill="#000000" transform="translate(483,270)"/>
<path d="M0 0 C12.484 0.521 22.634 5.869 32 14 C42.659 27.673 45.396 43.195 45.312 60.125 C45.305 61.906 45.305 61.906 45.298 63.722 C45.173 73.134 44.269 81.877 42 91 C41.839 91.66 41.678 92.32 41.512 93 C38.56 104.816 33.971 115.952 29.211 127.138 C27.974 130.061 26.765 132.994 25.559 135.93 C24.769 137.828 23.979 139.727 23.188 141.625 C22.647 142.949 22.647 142.949 22.095 144.3 C20.27 148.619 18.73 151.966 15 155 C15.568 150.821 16.533 147.323 18.223 143.465 C18.675 142.419 19.127 141.373 19.593 140.295 C20.078 139.187 20.563 138.079 21.062 136.938 C34.948 104.563 49.972 67.499 38 32 C32.35 18.452 25.439 11.358 11.812 5.75 C7.924 4.275 4.023 3.05 0 2 C0 1.34 0 0.68 0 0 Z " fill="#000000" transform="translate(513,269)"/>
<path d="M0 0 C-1.333 0.667 -2.667 1.333 -4 2 C-5.547 2.804 -5.547 2.804 -7.125 3.625 C-10 5 -10 5 -12 5 C-14.446 17.255 -9.416 25.977 -2.973 36.094 C-0.816 39.271 1.411 42.169 4 45 C8.95 43.115 12.127 38.936 15.666 35.168 C17.058 33.726 18.525 32.357 20 31 C20.99 31 21.98 31 23 31 C21.335 35.286 18.209 38.086 15 41.25 C14.18 42.081 14.18 42.081 13.344 42.93 C9.253 47 9.253 47 7 47 C9.329 51.339 12.339 54.687 15.812 58.125 C16.381 58.69 16.95 59.256 17.537 59.839 C23.613 65.765 30.188 70.952 37 76 C37.556 76.412 38.112 76.824 38.686 77.249 C41.772 79.526 44.876 81.775 48 84 C47.67 84.66 47.34 85.32 47 86 C43.071 86.286 41.256 85.902 38.25 83.359 C37.565 82.789 36.881 82.219 36.176 81.631 C35.458 81.011 34.74 80.39 34 79.75 C33.252 79.118 32.504 78.485 31.733 77.833 C22.102 69.634 12.825 61.065 4 52 C3.492 52.387 2.984 52.773 2.461 53.172 C-9.208 62 -9.208 62 -13 62 C-12.801 60.195 -12.801 60.195 -12 58 C-9.855 56.367 -9.855 56.367 -7.188 54.875 C-6.315 54.377 -5.442 53.88 -4.543 53.367 C-2.379 52.204 -0.206 51.08 2 50 C1.287 49.08 0.574 48.159 -0.16 47.211 C-17.474 24.469 -17.474 24.469 -17.352 10.512 C-16.686 5.759 -13.937 3.47 -10.188 0.625 C-6.77 -0.351 -3.544 -0.118 0 0 Z " fill="#000000" transform="translate(221,354)"/>
<path d="M0 0 C3.448 2.768 4.624 7.186 5.684 11.352 C5.684 12.672 5.684 13.992 5.684 15.352 C9.314 15.352 12.944 15.352 16.684 15.352 C16.684 16.342 16.684 17.332 16.684 18.352 C13.054 18.682 9.424 19.012 5.684 19.352 C6.014 21.992 6.344 24.632 6.684 27.352 C5.364 27.352 4.044 27.352 2.684 27.352 C2.684 24.712 2.684 22.072 2.684 19.352 C2.024 19.682 1.364 20.012 0.684 20.352 C-1.989 20.486 -4.639 20.395 -7.316 20.352 C-6.986 19.362 -6.656 18.372 -6.316 17.352 C-3.346 17.022 -0.376 16.692 2.684 16.352 C2.257 14.765 1.817 13.183 1.371 11.602 C1.127 10.72 0.884 9.838 0.633 8.93 C-0.338 6.294 -1.526 4.497 -3.316 2.352 C-5.296 2.682 -7.276 3.012 -9.316 3.352 C-9.316 2.032 -9.316 0.712 -9.316 -0.648 C-5.973 -2.12 -3.269 -1.505 0 0 Z " fill="#000000" transform="translate(718.31640625,369.6484375)"/>
<path d="M0 0 C0.66 0.33 1.32 0.66 2 1 C1.808 1.732 1.616 2.464 1.418 3.219 C0.519 9.204 3.815 14.296 7.145 19.082 C9.688 22.448 12.342 25.724 15 29 C16.868 31.323 18.719 33.658 20.562 36 C20.992 36.528 21.421 37.055 21.864 37.599 C24.292 40.68 25.589 43.079 26 47 C25.01 47 24.02 47 23 47 C21.598 45.121 21.598 45.121 20.062 42.438 C17.045 37.443 13.667 33.043 9.938 28.562 C-2.922 12.889 -2.922 12.889 -2 3 C-1.34 2.01 -0.68 1.02 0 0 Z " fill="#000000" transform="translate(174,403)"/>
<path d="M0 0 C3.209 1.648 4.482 3.049 6.312 6.188 C8.093 12.077 7.388 16.728 4.613 22.164 C2.499 25.453 0.697 27.157 -2.688 29.188 C-7.565 29.287 -10.203 27.473 -13.688 24.188 C-15.317 20.929 -15.227 17.708 -14.688 14.188 C-12.223 8.263 -6.859 0.479 0 0 Z M-3.688 4.188 C-7.763 7.052 -9.91 9.511 -11.688 14.188 C-12.271 17.273 -12.271 17.273 -11.688 20.188 C-9.812 22.565 -9.812 22.565 -7.688 24.188 C-3.499 22.445 -2.311 20.426 -0.438 16.43 C0.744 12.897 0.577 9.885 0.312 6.188 C-1.007 5.527 -2.327 4.868 -3.688 4.188 Z " fill="#000000" transform="translate(340.6875,406.8125)"/>
<path d="M0 0 C2.65 0.357 3.726 0.656 5.422 2.785 C5.86 3.537 6.298 4.288 6.75 5.062 C13.993 16.375 24.307 23.577 37.5 26.5 C53.985 28.669 69.411 23.569 84.099 16.642 C84.824 16.301 85.549 15.961 86.297 15.609 C86.94 15.3 87.583 14.99 88.245 14.671 C90 14 90 14 93 14 C92 17 92 17 89.586 18.43 C70.164 27.172 49.028 34.733 27.957 27.25 C15.702 22.07 5.37 13.407 0 1 C0 0.67 0 0.34 0 0 Z " fill="#000000" transform="translate(420,429)"/>
<path d="M0 0 C2 1 2 1 2.754 2.941 C3.021 3.806 3.288 4.671 3.562 5.562 C5.39 10.804 7.741 15.543 10.438 20.375 C10.809 21.052 11.18 21.73 11.563 22.428 C13.931 26.592 16.592 29.598 20 33 C20 33.99 20 34.98 20 36 C16.703 35.438 15.304 34.68 13.312 32 C10.268 27.702 7.75 23.128 5.25 18.5 C4.861 17.788 4.472 17.077 4.072 16.344 C1.59 11.629 -0.019 7.249 -1 2 C-0.67 1.34 -0.34 0.68 0 0 Z " fill="#000000" transform="translate(320,454)"/>
<path d="M0 0 C0.99 0 1.98 0 3 0 C0.913 4.785 -2.432 8.803 -5.543 12.955 C-8.324 16.588 -8.324 16.588 -9 21 C-7.236 22.688 -7.236 22.688 -5 24.188 C-3.886 24.982 -3.886 24.982 -2.75 25.793 C-2.173 26.191 -1.595 26.59 -1 27 C-1.66 27.66 -2.32 28.32 -3 29 C-3.554 28.639 -4.109 28.278 -4.68 27.906 C-5.404 27.442 -6.129 26.978 -6.875 26.5 C-7.594 26.036 -8.314 25.572 -9.055 25.094 C-10.919 23.837 -10.919 23.837 -13 24 C-14.275 25.565 -14.275 25.565 -15.496 27.613 C-15.972 28.367 -16.449 29.12 -16.939 29.896 C-17.434 30.694 -17.928 31.491 -18.438 32.312 C-19.412 33.873 -20.39 35.432 -21.371 36.988 C-21.803 37.685 -22.236 38.381 -22.681 39.099 C-23.972 40.96 -25.349 42.456 -27 44 C-27.99 43.67 -28.98 43.34 -30 43 C-27.081 37.542 -23.64 32.529 -19.998 27.532 C-17.52 24.12 -17.52 24.12 -17 20 C-17.681 19.617 -18.362 19.233 -19.064 18.838 C-22.147 17.102 -25.23 15.363 -28.312 13.625 C-29.384 13.022 -30.456 12.418 -31.561 11.797 C-32.589 11.217 -33.617 10.637 -34.676 10.039 C-35.624 9.505 -36.572 8.971 -37.548 8.42 C-39.404 7.345 -41.215 6.19 -43 5 C-43 4.34 -43 3.68 -43 3 C-37.942 3.591 -33.965 5.922 -29.562 8.312 C-28.825 8.704 -28.087 9.095 -27.326 9.498 C-23.964 11.3 -20.752 13.13 -17.652 15.355 C-16.339 16.17 -16.339 16.17 -15 17 C-10.984 15.661 -9.969 13.591 -7.5 10.188 C-6.727 9.129 -5.953 8.071 -5.156 6.98 C-3.877 5.212 -2.618 3.428 -1.406 1.613 C-0.942 1.081 -0.478 0.549 0 0 Z " fill="#000000" transform="translate(690,514)"/>
<path d="M0 0 C2.5 1.375 2.5 1.375 5 3 C5 3.66 5 4.32 5 5 C5.66 5 6.32 5 7 5 C8.396 6.528 9.716 8.127 11 9.75 C11.806 10.758 12.611 11.766 13.441 12.805 C14.074 13.599 14.074 13.599 14.719 14.409 C16.751 16.932 18.848 19.4 20.938 21.875 C25.365 27.172 29.594 32.596 33.773 38.09 C37.368 42.989 37.368 42.989 41.546 47.364 C43.344 49.388 43.659 50.846 44.168 53.492 C44.339 54.362 44.51 55.232 44.686 56.129 C44.851 57.035 45.017 57.941 45.188 58.875 C45.365 59.773 45.542 60.672 45.725 61.598 C46.53 65.809 47.094 69.699 47 74 C40.991 68.991 35.523 63.591 30.049 58.01 C25.54 53.449 20.873 49.168 16 45 C14.8 43.956 13.601 42.912 12.402 41.867 C11.248 40.869 10.093 39.872 8.938 38.875 C8.365 38.376 7.792 37.877 7.201 37.363 C4.258 34.827 1.348 32.564 -1.926 30.469 C-5 28 -5 28 -5.57 25.414 C-5.423 24.494 -5.276 23.573 -5.125 22.625 C-4.897 21.072 -4.897 21.072 -4.664 19.488 C-4.335 17.762 -4.335 17.762 -4 16 C-3.758 14.639 -3.516 13.279 -3.273 11.918 C-1.305 1.305 -1.305 1.305 0 0 Z " fill="#000000" transform="translate(288,598)"/>
<path d="M0 0 C0.66 0.33 1.32 0.66 2 1 C1.67 2.98 1.34 4.96 1 7 C0.01 7 -0.98 7 -2 7 C-1.125 1.125 -1.125 1.125 0 0 Z " fill="#000000" transform="translate(546,615)"/>
<path d="M0 0 C0.66 0.66 1.32 1.32 2 2 C1.34 2 0.68 2 0 2 C0.28 3.521 0.28 3.521 0.567 5.073 C1.258 8.835 1.94 12.598 2.618 16.362 C2.914 17.991 3.211 19.619 3.512 21.247 C3.943 23.587 4.365 25.928 4.785 28.27 C4.99 29.362 4.99 29.362 5.199 30.476 C5.783 33.786 6.081 35.758 5 39 C4.14 38.322 3.28 37.644 2.395 36.945 C-0.081 34.994 -2.561 33.049 -5.043 31.105 C-7.577 29.121 -10.1 27.124 -12.613 25.113 C-13.742 24.221 -14.871 23.329 -16 22.438 C-17.011 21.632 -18.021 20.826 -19.062 19.996 C-22.007 17.995 -24.583 16.941 -28 16 C-24.033 21.263 -19.537 24.818 -14.188 28.625 C-12.487 29.856 -10.786 31.088 -9.086 32.32 C-7.809 33.241 -7.809 33.241 -6.507 34.181 C-2.744 36.912 0.974 39.702 4.688 42.5 C5.309 42.967 5.931 43.435 6.572 43.917 C7.763 44.813 8.955 45.709 10.146 46.605 C13.428 49.074 16.714 51.537 20 54 C17.195 55.403 15.714 54.629 12.688 53.891 C11.073 53.5 11.073 53.5 9.426 53.102 C8.295 52.821 7.165 52.54 6 52.25 C4.9 51.984 3.801 51.719 2.668 51.445 C-3.25 49.999 -9.086 48.43 -14.879 46.542 C-17.281 45.835 -17.281 45.835 -21 46 C-21.33 46.66 -21.66 47.32 -22 48 C-21.098 48.208 -20.195 48.415 -19.266 48.629 C-9.637 50.86 -0.033 53.194 9.562 55.562 C10.763 55.855 11.963 56.148 13.2 56.449 C19.31 57.967 25.167 59.628 31 62 C31 62.66 31 63.32 31 64 C31.73 64.264 32.459 64.529 33.211 64.801 C36.011 66.005 38.169 67.393 40.625 69.188 C44.248 71.785 47.913 74.252 51.688 76.625 C55.907 79.28 59.981 82.053 64 85 C60.075 86.308 58.116 85.444 54.125 84.375 C52.689 84 51.253 83.627 49.816 83.254 C49.044 83.052 48.272 82.849 47.477 82.641 C43.016 81.487 38.541 80.396 34.062 79.312 C32.768 78.991 32.768 78.991 31.448 78.664 C25.966 77.34 20.617 76.516 15 76 C15.33 76.66 15.66 77.32 16 78 C18.572 78.702 21.089 79.282 23.699 79.805 C24.486 79.97 25.272 80.135 26.083 80.305 C28.616 80.837 31.152 81.357 33.688 81.875 C44.932 84.189 56.016 86.636 67 90 C66.352 94.842 65.426 99.28 63.938 103.938 C63.575 105.081 63.213 106.224 62.84 107.402 C62.424 108.688 62.424 108.688 62 110 C54.149 109.607 48.069 107.284 41 104 C40.192 103.631 39.384 103.262 38.552 102.881 C4.617 87.318 -33.227 68.159 -48.055 31.727 C-50.822 23.745 -51.173 15.076 -48.168 7.105 C-45.098 1.571 -39.464 -2.69 -33.434 -4.559 C-21.566 -6.711 -10.979 -4.467 0 0 Z " fill="#000000" transform="translate(261,632)"/>
<path d="M0 0 C0.66 0.33 1.32 0.66 2 1 C1.67 2.65 1.34 4.3 1 6 C0.01 5.67 -0.98 5.34 -2 5 C-1.34 3.35 -0.68 1.7 0 0 Z " fill="#000000" transform="translate(550,627)"/>
<path d="M0 0 C4.97 1.525 8.198 4.487 12 7.875 C13.208 8.936 14.416 9.996 15.625 11.055 C16.196 11.56 16.767 12.065 17.355 12.585 C18.839 13.862 20.386 15.065 21.938 16.258 C22.618 16.833 23.299 17.408 24 18 C24 18.66 24 19.32 24 20 C24.565 20.239 25.131 20.479 25.713 20.725 C28.486 22.271 30.36 24.135 32.59 26.395 C33.457 27.268 34.324 28.141 35.217 29.041 C36.115 29.956 37.012 30.87 37.938 31.812 C38.831 32.715 39.725 33.618 40.646 34.549 C42.32 36.24 43.991 37.933 45.66 39.628 C47.314 41.305 48.992 42.959 50.686 44.596 C55.101 49.182 56.52 54.653 57.082 60.844 C56.96 64.06 55.711 66.331 54 69 C48.049 64.628 42.281 60.052 36.545 55.403 C29.318 49.249 29.318 49.249 21 45 C24.995 49.173 29.301 52.773 33.812 56.375 C47.406 67.322 47.406 67.322 53 73 C52.795 73.675 52.59 74.351 52.379 75.047 C52.109 75.939 51.84 76.831 51.562 77.75 C51.296 78.632 51.029 79.513 50.754 80.422 C50.115 82.606 49.532 84.788 49 87 C43.275 84.347 38.128 80.567 32.9 77.061 C31.594 76.188 30.284 75.321 28.969 74.46 C27.063 73.211 25.169 71.943 23.277 70.672 C22.401 70.104 22.401 70.104 21.506 69.525 C16.839 66.341 14.834 63.005 13.34 57.622 C13.207 56.877 13.074 56.131 12.938 55.363 C12.78 54.539 12.623 53.715 12.461 52.865 C12.152 51.152 11.844 49.439 11.539 47.725 C11.382 46.904 11.225 46.084 11.062 45.238 C10.863 44.125 10.863 44.125 10.66 42.99 C9.888 40.664 8.838 39.583 7 38 C7.217 39.085 7.433 40.171 7.656 41.289 C7.938 42.734 8.219 44.18 8.5 45.625 C8.643 46.338 8.786 47.051 8.934 47.785 C9.73 51.921 10.16 55.764 10 60 C7.893 58.627 5.801 57.237 3.723 55.82 C1.866 54.579 -0.024 53.388 -1.941 52.242 C-2.909 51.626 -3.878 51.01 -4.875 50.375 C-6.232 49.551 -6.232 49.551 -7.617 48.711 C-11.385 44.424 -11.932 39.505 -13 34 C-13.337 32.344 -13.337 32.344 -13.68 30.654 C-14.353 27.273 -14.994 23.888 -15.625 20.5 C-16.054 18.219 -16.483 15.937 -16.914 13.656 C-17.099 12.664 -17.284 11.672 -17.475 10.65 C-17.919 8.41 -18.42 6.208 -19 4 C-14.462 5.349 -10.681 7.192 -6.625 9.625 C-5.565 10.257 -4.506 10.888 -3.414 11.539 C-2.617 12.021 -1.821 12.503 -1 13 C-1.012 12.313 -1.023 11.626 -1.035 10.918 C-1.044 10.017 -1.053 9.116 -1.062 8.188 C-1.074 7.294 -1.086 6.401 -1.098 5.48 C-1 3 -1 3 0 0 Z " fill="#000000" transform="translate(282,630)"/>
</svg>
