<?xml version="1.0" encoding="UTF-8"?>
<!-- Generator: visioncortex VTracer 0.6.0 -->
<svg version="1.1" xmlns="http://www.w3.org/2000/svg" width="847" height="847">
<path d="M0 0 C0.66 0 1.32 0 2 0 C3.205 5.635 3.113 11.145 3.062 16.875 C3.058 17.85 3.053 18.824 3.049 19.828 C3.037 22.219 3.021 24.609 3 27 C2.34 27 1.68 27 1 27 C0.67 18.09 0.34 9.18 0 0 Z " fill="#000000" transform="translate(473,173)"/>
<path d="M0 0 C0.66 0 1.32 0 2 0 C4.361 6.479 4.231 12.598 4.125 19.438 C4.116 20.551 4.107 21.664 4.098 22.811 C4.074 25.541 4.041 28.27 4 31 C3.34 31.33 2.68 31.66 2 32 C1.659 28.542 1.329 25.084 1 21.625 C0.857 20.177 0.857 20.177 0.711 18.699 C0.123 12.444 -0.124 6.281 0 0 Z " fill="#000000" transform="translate(582,173)"/>
<path d="M0 0 C4.287 2.858 4.312 5.941 5.438 10.801 C6.172 14.976 6.211 18.773 6 23 C5.34 23 4.68 23 4 23 C3.34 23.66 2.68 24.32 2 25 C1.027 22.08 0.807 19.946 0.684 16.895 C0.642 15.912 0.6 14.929 0.557 13.916 C0.517 12.892 0.478 11.868 0.438 10.812 C0.394 9.777 0.351 8.741 0.307 7.674 C0.201 5.116 0.098 2.558 0 0 Z M2 12 C2 13.98 2 15.96 2 18 C2.33 18 2.66 18 3 18 C3 16.02 3 14.04 3 12 C2.67 12 2.34 12 2 12 Z " fill="#000000" transform="translate(458,175)"/>
<path d="M0 0 C0.66 0 1.32 0 2 0 C2 9.57 2 19.14 2 29 C1.67 29 1.34 29 1 29 C0.635 24.918 0.285 20.834 -0.062 16.75 C-0.166 15.591 -0.27 14.432 -0.377 13.238 C-0.47 12.123 -0.564 11.008 -0.66 9.859 C-0.749 8.833 -0.838 7.807 -0.93 6.749 C-0.994 4.237 -0.758 2.377 0 0 Z " fill="#000000" transform="translate(567,177)"/>
<path d="M0 0 C1.938 0.812 1.938 0.812 4 2 C5.492 6.475 5.184 10.876 5.188 15.562 C5.2 16.534 5.212 17.505 5.225 18.506 C5.227 19.433 5.228 20.361 5.23 21.316 C5.235 22.167 5.239 23.017 5.243 23.893 C5 26 5 26 3 28 C2.493 24.459 1.996 20.917 1.5 17.375 C1.285 15.876 1.285 15.876 1.066 14.348 C0.396 9.531 -0.2 4.878 0 0 Z " fill="#000000" transform="translate(303,189)"/>
<path d="M0 0 C2.375 -0.125 2.375 -0.125 5 0 C7.55 2.55 7.261 4.235 7.273 7.717 C7.266 8.45 7.258 9.182 7.25 9.938 C7.258 10.666 7.265 11.395 7.273 12.146 C7.259 15.958 7.161 17.758 5 21 C4.34 20.67 3.68 20.34 3 20 C2.356 17.384 1.829 14.837 1.375 12.188 C1.174 11.1 1.174 11.1 0.969 9.99 C0.359 6.588 0 3.468 0 0 Z M4 6 C5 9 5 9 5 9 Z " fill="#000000" transform="translate(329,202)"/>
<path d="M0 0 C1.1 0.541 1.1 0.541 2.223 1.094 C4.438 2.196 6.624 3.345 8.812 4.5 C10.171 5.18 11.53 5.857 12.891 6.531 C21.437 10.844 29.998 15.685 36.812 22.5 C37.13 25.011 37.325 27.419 37.431 29.941 C37.469 30.697 37.507 31.454 37.546 32.233 C37.942 40.967 37.938 49.7 37.91 58.441 C37.908 60.188 37.907 61.935 37.906 63.682 C37.902 68.218 37.892 72.753 37.881 77.289 C37.871 81.942 37.866 86.595 37.861 91.248 C37.851 100.332 37.834 109.416 37.812 118.5 C38.472 118.17 39.133 117.84 39.812 117.5 C48.404 116.897 54.905 118.594 61.625 124.125 C65.791 128.065 68.095 132.061 69.812 137.5 C70.002 138.089 70.191 138.678 70.387 139.285 C72.513 150.344 70.572 161.391 67.688 172.086 C66.688 175.397 66.688 175.397 66.812 178.5 C67.598 178.768 68.383 179.036 69.191 179.312 C77.407 182.377 82.456 185.832 86.941 193.406 C90.513 201.991 88.884 212.054 85.812 220.5 C81.532 229.909 76.383 239.01 70.773 247.688 C69.578 249.6 69.578 249.6 69.812 252.5 C67.832 252.5 65.852 252.5 63.812 252.5 C65.359 246.875 68.14 242.323 71.125 237.375 C78.54 224.834 84.181 213.459 82.812 198.5 C81.026 192.023 77.817 186.828 71.891 183.383 C68.283 181.525 64.587 179.987 60.812 178.5 C61.09 177.447 61.367 176.394 61.652 175.309 C65.356 160.768 68.541 145.788 61.688 131.688 C58.427 126.204 53.757 123.482 47.812 121.5 C42.735 120.9 37.87 120.956 33.445 123.848 C24.763 132.634 23.422 145.888 23.438 157.562 C23.436 158.567 23.435 159.571 23.434 160.606 C23.54 168.177 24.679 174.822 26.938 182.027 C27.969 186.122 28.098 189.29 27.812 193.5 C25.812 195.5 25.812 195.5 22.5 196.812 C16.732 199.265 13.886 202.761 11.5 208.5 C6.2 224.637 12.672 238.783 19.814 253.141 C20.393 254.313 20.393 254.313 20.984 255.508 C21.336 256.205 21.688 256.903 22.05 257.622 C22.812 259.5 22.812 259.5 22.812 262.5 C21.855 262.807 21.855 262.807 20.879 263.121 C20.053 263.391 19.226 263.66 18.375 263.938 C17.139 264.338 17.139 264.338 15.879 264.746 C13.85 265.322 13.85 265.322 12.812 266.5 C11.406 274.992 14.3 281.437 18.812 288.5 C24.607 296.408 31.5 301.465 39.812 306.5 C37.242 301.792 34.612 297.139 31.812 292.562 C29.736 289.11 27.747 285.631 25.875 282.062 C25.453 281.259 25.032 280.456 24.598 279.629 C23.812 277.5 23.812 277.5 24.812 274.5 C26.319 276.704 27.819 278.912 29.312 281.125 C29.764 281.794 30.216 282.463 30.682 283.153 C34.499 288.877 37.823 294.78 41.023 300.867 C42.544 303.635 42.544 303.635 45.039 304.383 C45.624 304.421 46.21 304.46 46.812 304.5 C46.659 303.58 46.506 302.659 46.348 301.711 C45.612 296.537 45.451 291.342 45.25 286.125 C45.208 285.073 45.165 284.021 45.121 282.938 C44.788 274.121 44.705 265.321 44.812 256.5 C43.163 256.83 41.513 257.16 39.812 257.5 C35.598 251.317 31.642 245.027 27.875 238.562 C27.116 237.289 27.116 237.289 26.342 235.99 C25.869 235.18 25.397 234.37 24.91 233.535 C24.268 232.443 24.268 232.443 23.614 231.328 C23.217 230.423 23.217 230.423 22.812 229.5 C23.143 228.84 23.472 228.18 23.812 227.5 C29.552 233.279 33.794 239.895 38.079 246.771 C38.534 247.495 38.989 248.219 39.457 248.965 C40.066 249.949 40.066 249.949 40.687 250.953 C41.747 252.659 41.747 252.659 43.812 253.5 C43.705 252.356 43.705 252.356 43.596 251.189 C42.676 240.16 42.699 229.185 42.75 218.125 C42.755 216.214 42.76 214.302 42.764 212.391 C42.775 207.76 42.792 203.13 42.812 198.5 C43.803 198.17 44.793 197.84 45.812 197.5 C45.85 198.791 45.85 198.791 45.888 200.108 C45.985 203.379 46.084 206.65 46.185 209.921 C46.227 211.322 46.269 212.723 46.31 214.124 C45.671 230.306 45.671 230.306 48.812 245.5 C53.645 233.895 58.298 222.232 62.812 210.5 C63.143 210.5 63.472 210.5 63.812 210.5 C63.434 222.042 59.269 243.28 50.684 251.551 C47.758 256.162 48.611 260.502 49 265.812 C49.128 268.047 49.256 270.281 49.383 272.516 C49.492 274.236 49.492 274.236 49.603 275.99 C49.943 281.678 50.154 287.369 50.375 293.062 C50.459 295.085 50.543 297.107 50.629 299.129 C50.664 299.975 50.7 300.822 50.737 301.694 C50.774 302.588 50.774 302.588 50.812 303.5 C55.607 300.218 57.962 296.447 60.75 291.5 C61.185 290.748 61.619 289.995 62.067 289.22 C65.112 283.895 67.898 278.493 70.461 272.918 C71.925 270.298 73.605 268.515 75.812 266.5 C74.558 273.034 72.673 278.665 69.875 284.688 C69.528 285.455 69.18 286.223 68.822 287.014 C66.907 291.222 64.909 295.379 62.812 299.5 C79.873 292.087 79.873 292.087 90.961 277.949 C92.431 273.72 92.651 270.681 91.031 266.469 C87.198 259.131 80.625 256.881 73.188 254.188 C72.404 253.961 71.62 253.734 70.812 253.5 C76.337 251.47 81.664 254.364 86.812 256.5 C91.265 258.905 95.022 261.654 96.812 266.5 C97.721 272.983 97.398 278.234 93.477 283.602 C82.141 296.534 67.633 302.055 51.812 307.5 C51.79 309.087 51.775 310.674 51.762 312.262 C51.752 313.146 51.743 314.03 51.733 314.94 C51.909 320.618 53.915 324.759 56.812 329.5 C56.812 330.49 56.812 331.48 56.812 332.5 C57.472 332.5 58.133 332.5 58.812 332.5 C58.851 331.609 58.851 331.609 58.891 330.699 C59.408 323.135 60.72 315.068 65.82 309.184 C67.812 307.5 67.812 307.5 69.875 307.438 C72.609 308.937 73.489 310.72 74.812 313.5 C74.812 314.49 74.812 315.48 74.812 316.5 C75.472 316.5 76.133 316.5 76.812 316.5 C77.143 315.18 77.472 313.86 77.812 312.5 C80.125 312.25 80.125 312.25 82.812 312.5 C86.052 315.5 86.767 319.319 87.812 323.5 C88.078 322.874 88.344 322.247 88.617 321.602 C88.97 320.784 89.324 319.967 89.688 319.125 C90.036 318.313 90.384 317.501 90.742 316.664 C91.812 314.5 91.812 314.5 93.812 312.5 C95.133 312.5 96.452 312.5 97.812 312.5 C99.133 315.47 100.452 318.44 101.812 321.5 C102.472 320.84 103.133 320.18 103.812 319.5 C106.437 319.375 106.437 319.375 108.812 319.5 C110.375 322.313 110.375 322.313 111.812 325.5 C111.482 326.49 111.153 327.48 110.812 328.5 C109.327 325.53 109.327 325.53 107.812 322.5 C107.153 322.5 106.492 322.5 105.812 322.5 C103.832 326.46 101.852 330.42 99.812 334.5 C99.153 334.5 98.492 334.5 97.812 334.5 C97.482 328.56 97.153 322.62 96.812 316.5 C96.153 316.5 95.492 316.5 94.812 316.5 C92.156 325.394 90.427 334.374 88.812 343.5 C87.822 343.17 86.832 342.84 85.812 342.5 C85.727 341.849 85.641 341.199 85.553 340.528 C85.163 337.581 84.769 334.634 84.375 331.688 C84.24 330.663 84.106 329.639 83.967 328.584 C83.835 327.601 83.703 326.618 83.566 325.605 C83.386 324.247 83.386 324.247 83.201 322.86 C82.853 320.358 82.853 320.358 81.812 317.5 C79.375 322.862 77.494 328.323 75.68 333.926 C74.812 336.5 74.812 336.5 73.812 338.5 C73.153 338.5 72.492 338.5 71.812 338.5 C70.855 335.629 70.707 333.91 70.75 330.938 C70.758 330.058 70.765 329.179 70.773 328.273 C70.799 326.424 70.826 324.576 70.852 322.727 C70.859 321.847 70.867 320.968 70.875 320.062 C70.892 318.858 70.892 318.858 70.91 317.629 C70.901 315.31 70.901 315.31 69.812 312.5 C66.41 317.098 64.682 321.317 63.188 326.812 C62.974 327.561 62.76 328.31 62.54 329.082 C61.428 333.032 60.466 336.97 59.688 341 C59.399 342.155 59.11 343.31 58.812 344.5 C57.822 344.83 56.832 345.16 55.812 345.5 C55.865 344.665 55.865 344.665 55.918 343.812 C55.945 343.049 55.972 342.286 56 341.5 C56.052 340.386 56.052 340.386 56.105 339.25 C55.823 335.516 55.823 335.516 52.812 328.5 C52.812 336.42 52.812 344.34 52.812 352.5 C54.133 353.16 55.452 353.82 56.812 354.5 C56.812 355.16 56.812 355.82 56.812 356.5 C49.062 355.75 49.062 355.75 46.812 353.5 C46.572 351.551 46.572 351.551 46.585 349.142 C46.586 348.241 46.586 347.341 46.586 346.412 C46.596 345.438 46.607 344.464 46.617 343.461 C46.621 341.967 46.621 341.967 46.626 340.443 C46.637 337.253 46.662 334.064 46.688 330.875 C46.698 328.716 46.707 326.557 46.715 324.398 C46.737 319.099 46.77 313.799 46.812 308.5 C44.503 308.5 42.192 308.5 39.812 308.5 C39.975 309.259 40.137 310.019 40.305 310.801 C40.988 315.778 40.96 320.67 40.938 325.688 C40.936 326.741 40.934 327.794 40.932 328.88 C40.886 337.236 40.552 345.555 40.031 353.895 C39.568 358.707 39.568 358.707 41.312 363 C43.704 368.579 43.782 373.956 42.18 379.812 C40.284 383.754 38.518 385.21 34.434 386.891 C31.932 387.745 29.46 388.43 26.895 389.102 C23.587 390.202 23.587 390.202 22.496 393.281 C22.158 394.875 22.158 394.875 21.812 396.5 C18.401 408.132 14.269 415.976 3.812 422.5 C-3.785 426.522 -11.354 428.804 -19.75 430.5 C-20.959 430.749 -22.168 430.999 -23.414 431.255 C-48.159 436.21 -73.048 439.095 -98.186 441.157 C-99.528 441.271 -99.528 441.271 -100.897 441.387 C-102.575 441.528 -104.254 441.664 -105.933 441.791 C-112.812 442.377 -116.782 444.158 -122.188 448.5 C-142.143 460.064 -167.104 466.998 -190.086 461.191 C-196.654 459.031 -201.63 456.792 -206.188 451.5 C-205.62 451.787 -205.053 452.075 -204.469 452.371 C-202.226 453.481 -199.969 454.535 -197.688 455.562 C-196.935 455.904 -196.182 456.246 -195.406 456.598 C-185.519 460.619 -174.015 458.928 -164.188 455.5 C-154.484 451.388 -145.687 444.142 -141.188 434.5 C-138.451 427.614 -136.177 420.632 -134.188 413.5 C-136.168 413.17 -138.147 412.84 -140.188 412.5 C-140.213 413.083 -140.239 413.665 -140.266 414.266 C-141.187 427.583 -145.749 437.596 -155.438 446.75 C-164.526 454.021 -176.21 457.043 -187.75 456.5 C-197.795 454.912 -207.392 448.543 -213.645 440.664 C-215.585 437.791 -217.011 435.205 -217.859 431.82 C-219.331 425.996 -219.331 425.996 -223.561 422.022 C-226.76 420.932 -229.913 420.176 -233.223 419.488 C-234.457 419.192 -235.691 418.895 -236.963 418.589 C-240.343 417.778 -243.733 417.025 -247.129 416.283 C-250.69 415.493 -254.239 414.652 -257.79 413.815 C-263.022 412.586 -268.258 411.376 -273.499 410.186 C-282.972 408.033 -292.412 405.76 -301.843 403.43 C-306.466 402.288 -311.091 401.156 -315.716 400.023 C-319.445 399.11 -323.173 398.194 -326.899 397.272 C-330.407 396.406 -333.918 395.555 -337.432 394.714 C-339.342 394.254 -341.248 393.779 -343.154 393.304 C-344.291 393.035 -345.427 392.765 -346.599 392.488 C-347.587 392.247 -348.575 392.007 -349.594 391.759 C-352.585 391.46 -353.683 391.919 -356.188 393.5 C-369.243 400.505 -382.868 406.793 -398.062 406.562 C-398.844 406.553 -399.625 406.544 -400.43 406.535 C-401.3 406.518 -401.3 406.518 -402.188 406.5 C-399.332 405 -396.477 403.882 -393.438 402.812 C-384.241 399.093 -379.476 393.526 -375.387 384.562 C-372.077 376.202 -372.077 376.202 -373.66 367.707 C-374.164 366.649 -374.668 365.59 -375.188 364.5 C-375.3 366.024 -375.3 366.024 -375.414 367.578 C-376.398 378.628 -378.59 388.453 -386.875 396.5 C-394.129 402.13 -402.236 404.236 -411.336 403.883 C-415.827 403.28 -419.314 401.802 -423.188 399.5 C-423.887 399.111 -424.587 398.721 -425.309 398.32 C-431.694 394.24 -434.679 388.52 -437.188 381.5 C-437.67 379.271 -438.067 377.035 -438.464 374.789 C-439.434 367.859 -439.434 367.859 -443.703 362.703 C-446.599 361.704 -446.599 361.704 -449.551 361.113 C-453.423 360.213 -454.805 358.597 -457.188 355.5 C-459.378 348.928 -458.069 343.646 -455.956 337.304 C-455.158 334.391 -454.824 331.684 -454.59 328.676 C-454.511 327.702 -454.432 326.728 -454.351 325.724 C-454.297 324.99 -454.243 324.256 -454.188 323.5 C-458.759 323.475 -463.331 323.457 -467.902 323.445 C-469.455 323.44 -471.008 323.433 -472.56 323.425 C-474.802 323.412 -477.043 323.407 -479.285 323.402 C-479.971 323.397 -480.657 323.392 -481.363 323.387 C-485.729 323.386 -489.873 323.875 -494.188 324.5 C-497.625 324.062 -497.625 324.062 -500.188 323.5 C-500.517 324.82 -500.847 326.14 -501.188 327.5 C-502.178 327.17 -503.168 326.84 -504.188 326.5 C-504.188 325.18 -504.188 323.86 -504.188 322.5 C-505.837 322.83 -507.488 323.16 -509.188 323.5 C-509.683 325.48 -509.683 325.48 -510.188 327.5 C-510.847 327.5 -511.507 327.5 -512.188 327.5 C-512.518 324.53 -512.847 321.56 -513.188 318.5 C-512.094 318.397 -511.001 318.294 -509.875 318.188 C-506.332 317.527 -505.255 317.297 -503.188 314.5 C-502.197 314.83 -501.207 315.16 -500.188 315.5 C-500.188 316.49 -500.188 317.48 -500.188 318.5 C-496.663 316.51 -496.663 316.51 -493.625 313.875 C-491.86 312.187 -490.59 311.81 -488.188 311.5 C-487.528 311.83 -486.868 312.16 -486.188 312.5 C-486.188 314.15 -486.188 315.8 -486.188 317.5 C-479.055 319.22 -472.382 319.758 -465.062 319.625 C-461.804 319.584 -458.545 319.543 -455.188 319.5 C-455.683 309.105 -455.683 309.105 -456.188 298.5 C-486.382 298.005 -486.382 298.005 -517.188 297.5 C-517.188 296.84 -517.188 296.18 -517.188 295.5 C-512.87 294.316 -508.578 294.136 -504.125 293.938 C-503.2 293.895 -502.275 293.853 -501.322 293.809 C-486.289 293.211 -471.229 293.417 -456.188 293.5 C-456.188 290.86 -456.188 288.22 -456.188 285.5 C-457.201 285.004 -458.214 284.507 -459.258 283.996 C-473.494 276.848 -473.494 276.848 -477.188 270.5 C-477.25 266.688 -477.25 266.688 -476.188 263.5 C-472.464 261.018 -469.502 260.957 -465.188 261.5 C-462.697 262.31 -460.541 263.323 -458.188 264.5 C-458.188 265.16 -458.188 265.82 -458.188 266.5 C-462.477 266.17 -466.767 265.84 -471.188 265.5 C-471.517 266.82 -471.847 268.14 -472.188 269.5 C-467.995 274.811 -461.596 279.364 -455.188 281.5 C-454.968 280.741 -454.749 279.981 -454.523 279.199 C-451.872 270.889 -451.872 270.889 -448 268.688 C-447.072 268.296 -446.144 267.904 -445.188 267.5 C-444.135 264.89 -444.135 264.89 -444.188 261.5 C-444.062 260.305 -444.062 260.305 -443.934 259.086 C-443.452 251.981 -445.277 247.366 -448.777 241.227 C-450.142 238.587 -450.768 236.424 -451.188 233.5 C-446.796 234.964 -446.308 237.478 -444.188 241.5 C-442.362 236.024 -442.54 230.171 -442.25 224.438 C-442.157 223.152 -442.063 221.866 -441.967 220.541 C-441.594 212.698 -442.217 207.79 -446.873 201.358 C-448.188 199.5 -448.188 199.5 -448.188 197.5 C-445.226 198.113 -443.807 198.754 -441.188 200.5 C-440.197 194.065 -440.197 194.065 -439.188 187.5 C-438.197 187.17 -437.207 186.84 -436.188 186.5 C-435.123 189.693 -435.15 191.704 -435.309 195.043 C-435.357 196.116 -435.405 197.189 -435.455 198.295 C-435.511 199.414 -435.567 200.534 -435.625 201.688 C-435.677 202.819 -435.729 203.95 -435.783 205.115 C-435.913 207.91 -436.048 210.705 -436.188 213.5 C-435.633 212.562 -435.079 211.623 -434.508 210.656 C-433.776 209.437 -433.045 208.219 -432.312 207 C-431.948 206.38 -431.583 205.76 -431.207 205.121 C-430.255 203.546 -429.226 202.019 -428.188 200.5 C-427.528 200.5 -426.868 200.5 -426.188 200.5 C-427.527 205.199 -429.523 208.597 -432.25 212.625 C-437.39 220.801 -437.291 229.238 -437.109 238.659 C-437.188 240.5 -437.188 240.5 -438.188 242.5 C-437.528 242.5 -436.868 242.5 -436.188 242.5 C-435.919 241.778 -435.651 241.056 -435.375 240.312 C-434.198 237.524 -432.796 235.059 -431.188 232.5 C-430.188 235.5 -430.188 235.5 -431.586 238.512 C-432.244 239.737 -432.903 240.963 -433.562 242.188 C-437.657 250.232 -438.27 257.584 -438.188 266.5 C-435.374 266.193 -432.562 265.879 -429.75 265.562 C-428.948 265.475 -428.145 265.388 -427.318 265.299 C-423.432 265.195 -423.432 265.195 -420.188 263.5 C-420.188 261.52 -420.188 259.54 -420.188 257.5 C-426.623 256.015 -426.623 256.015 -433.188 254.5 C-430.897 250.835 -428.472 247.639 -425.562 244.438 C-422.117 240.549 -420.375 237.755 -419.938 232.5 C-420.199 229.359 -420.657 227.255 -422.188 224.5 C-424.205 223.156 -424.205 223.156 -426.188 222.5 C-421.786 223.003 -419.434 224.524 -416.188 227.5 C-415.858 228.16 -415.528 228.82 -415.188 229.5 C-415.098 228.81 -415.009 228.121 -414.917 227.411 C-414.057 220.767 -413.191 214.124 -412.317 207.482 C-411.869 204.071 -411.423 200.659 -410.983 197.247 C-408.664 179.322 -405.944 161.556 -402.578 143.794 C-402.132 141.559 -402.132 141.559 -402.188 139.5 C-402.847 140.49 -403.507 141.48 -404.188 142.5 C-403.558 125.593 -398.916 106.614 -386.312 94.438 C-376.631 86.735 -361.715 79.484 -349.188 80.5 C-349.126 79.737 -349.064 78.974 -349 78.188 C-348.188 75.5 -348.188 75.5 -345.965 73.91 C-335.226 68.457 -319.826 69.719 -308.438 72.812 C-304.754 74.105 -301.9 75.613 -299.188 78.5 C-298.418 80.395 -298.418 80.395 -298.188 82.5 C-301.707 89.784 -309.323 96.711 -316.562 100.062 C-324.736 101.049 -332.28 100.224 -339.188 95.5 C-339.961 94.69 -339.961 94.69 -340.75 93.863 C-342.16 92.205 -342.16 92.205 -344.688 92.562 C-347.188 92.5 -347.188 92.5 -349 90.75 C-350.188 88.5 -350.188 88.5 -350.188 84.5 C-362.362 87.31 -375.669 93.149 -384.188 102.5 C-384.725 103.068 -385.263 103.637 -385.816 104.223 C-404.688 126.5 -404.808 172.615 -405.478 200.227 C-406.024 222.194 -408.702 243.823 -412.188 265.5 C-408.99 265.684 -406.238 265.523 -403.188 264.5 C-400.666 261.818 -399.287 258.695 -397.75 255.375 C-396.824 253.544 -395.893 251.716 -394.957 249.891 C-394.268 248.525 -394.268 248.525 -393.565 247.131 C-388.909 238.238 -383.429 229.413 -375.188 223.5 C-376.541 228.093 -378.412 231.826 -380.926 235.895 C-381.288 236.486 -381.651 237.078 -382.025 237.687 C-383.177 239.566 -384.338 241.439 -385.5 243.312 C-387.02 245.776 -388.536 248.241 -390.051 250.707 C-390.597 251.593 -390.597 251.593 -391.154 252.497 C-393.634 256.537 -395.97 260.632 -398.173 264.829 C-399.782 267.479 -401.279 268.485 -404.188 269.5 C-405.576 269.563 -406.966 269.58 -408.355 269.559 C-409.62 269.539 -410.885 269.52 -412.188 269.5 C-413.414 286.495 -413.29 303.473 -413.188 320.5 C-412.277 320.183 -411.367 319.866 -410.43 319.539 C-407.014 318.445 -403.742 317.927 -400.188 317.5 C-400.603 316.595 -400.603 316.595 -401.027 315.672 C-401.39 314.873 -401.752 314.073 -402.125 313.25 C-402.485 312.461 -402.844 311.672 -403.215 310.859 C-407.074 301.499 -404.512 293.688 -401.188 284.5 C-399.626 280.779 -397.96 277.125 -396.188 273.5 C-395.528 273.5 -394.868 273.5 -394.188 273.5 C-393.953 272.819 -393.718 272.139 -393.477 271.438 C-391.897 267.837 -389.783 264.724 -387.562 261.5 C-384.24 256.595 -380.989 251.666 -377.875 246.625 C-377.227 245.577 -376.578 244.529 -375.91 243.449 C-374.377 240.825 -373.099 238.186 -371.812 235.438 C-369.45 231.221 -366.931 229.818 -362.391 228.336 C-326.992 219.098 -326.992 219.098 -318.188 223.5 C-319.05 229.392 -320.074 235.185 -321.556 240.955 C-324.165 251.172 -325.548 261.518 -326.88 271.963 C-327.037 273.182 -327.194 274.4 -327.355 275.656 C-327.492 276.758 -327.629 277.859 -327.77 278.994 C-328.188 281.5 -328.188 281.5 -329.188 282.5 C-335.406 283.08 -341.106 282.041 -347.125 280.625 C-359.348 277.958 -371.713 277.114 -384.188 276.5 C-384.994 276.447 -385.801 276.393 -386.632 276.339 C-390.555 276.108 -390.555 276.108 -393.922 277.863 C-394.425 278.828 -394.425 278.828 -394.938 279.812 C-395.508 280.905 -395.508 280.905 -396.09 282.02 C-400.907 292.906 -402.781 300.529 -398.695 311.93 C-393.456 324.335 -386.428 336.002 -379.661 347.62 C-377.116 352.013 -374.689 356.423 -372.449 360.98 C-372.014 361.856 -371.579 362.731 -371.131 363.633 C-370.316 365.291 -369.52 366.958 -368.748 368.637 C-368.381 369.379 -368.015 370.122 -367.637 370.887 C-367.178 371.865 -367.178 371.865 -366.71 372.862 C-362.508 377.384 -353.593 377.258 -347.797 378.016 C-345.722 378.297 -343.647 378.578 -341.572 378.859 C-340.489 379.004 -339.407 379.149 -338.291 379.299 C-307.107 383.494 -276.336 388.444 -245.708 395.673 C-240.229 396.96 -234.739 398.197 -229.25 399.438 C-227.47 399.842 -225.69 400.247 -223.91 400.652 C-222.682 400.932 -221.453 401.212 -220.188 401.5 C-218.868 398.2 -217.548 394.9 -216.188 391.5 C-217.435 391.425 -218.683 391.35 -219.969 391.273 C-235.175 390.251 -250.257 388.469 -265.375 386.562 C-266.89 386.372 -266.89 386.372 -268.435 386.177 C-274.393 385.424 -280.349 384.656 -286.303 383.875 C-289.113 383.51 -291.924 383.155 -294.736 382.801 C-308.276 381.064 -321.618 378.623 -335 375.938 C-337.04 375.534 -339.079 375.131 -341.119 374.729 C-349.496 373.07 -357.857 371.378 -366.188 369.5 C-366.188 368.84 -366.188 368.18 -366.188 367.5 C-356.672 368.466 -347.199 369.573 -337.75 371.062 C-336.94 371.189 -336.13 371.316 -335.296 371.447 C-332.16 371.953 -329.206 372.494 -326.188 373.5 C-326.273 372.871 -326.359 372.243 -326.447 371.595 C-329.836 346.578 -329.836 346.578 -330.188 337.5 C-330.215 336.799 -330.242 336.099 -330.27 335.377 C-330.601 325.433 -330.196 315.741 -328.875 305.875 C-328.757 304.988 -328.64 304.1 -328.519 303.186 C-326.22 287.532 -326.22 287.532 -322.188 283.5 C-321.692 280.659 -321.692 280.659 -321.477 277.305 C-321.368 276.039 -321.26 274.773 -321.149 273.469 C-321.094 272.8 -321.04 272.131 -320.984 271.441 C-317.623 230.936 -317.623 230.936 -309.188 222.5 C-293.449 220.312 -275.093 220.931 -261.75 230.438 C-255.254 235.474 -252.957 241.163 -250.625 248.812 C-250.322 249.794 -250.019 250.776 -249.707 251.788 C-244.267 269.84 -240.164 288.067 -249.188 305.5 C-250.093 307.433 -250.99 309.37 -251.875 311.312 C-252.271 312.144 -252.666 312.975 -253.074 313.832 C-255.845 320.472 -256.508 326.281 -256.438 333.375 C-256.435 334.322 -256.433 335.268 -256.43 336.244 C-256.34 344.795 -255.56 353.248 -254.763 361.757 C-254.111 369.4 -254.427 376.007 -256.188 383.5 C-243.192 385.205 -230.196 386.895 -217.188 388.5 C-217.039 387.429 -217.039 387.429 -216.887 386.336 C-214.671 377.349 -206.91 367.743 -199.188 362.688 C-192.985 359.123 -187.325 357.577 -180.188 358.5 C-167.259 362.028 -157.637 374.29 -151.188 385.5 C-150.551 387.712 -150.551 387.712 -150.188 389.5 C-149.114 389.084 -149.114 389.084 -148.02 388.66 C-133.768 383.479 -119.145 384.362 -104.188 384.5 C-104.257 379.377 -104.345 374.254 -104.45 369.131 C-104.483 367.392 -104.511 365.652 -104.534 363.912 C-104.568 361.399 -104.62 358.887 -104.676 356.375 C-104.685 355.223 -104.685 355.223 -104.695 354.048 C-104.84 348.619 -105.964 344.47 -108.188 339.5 C-110.605 337.485 -111.685 337.476 -114.812 337.625 C-117.237 338.269 -117.237 338.269 -118.31 340.038 C-119.57 343.572 -119.546 347.056 -119.602 350.766 C-119.621 351.559 -119.64 352.352 -119.66 353.17 C-119.72 355.696 -119.766 358.223 -119.812 360.75 C-119.851 362.466 -119.89 364.182 -119.93 365.898 C-120.026 370.099 -120.11 374.299 -120.188 378.5 C-120.517 378.5 -120.848 378.5 -121.188 378.5 C-122.569 369.085 -123.413 359.772 -123.5 350.25 C-123.517 349.358 -123.535 348.465 -123.553 347.546 C-123.549 342.701 -123.35 339.424 -120.188 335.5 C-117.938 333.562 -117.938 333.562 -115.188 332.5 C-109.638 333.293 -106.744 335.232 -103.188 339.5 C-99.561 344.939 -100.042 352.093 -100.09 358.402 C-100.092 359.486 -100.092 359.486 -100.094 360.592 C-100.1 362.874 -100.112 365.156 -100.125 367.438 C-100.13 368.995 -100.135 370.553 -100.139 372.111 C-100.15 375.908 -100.167 379.704 -100.188 383.5 C-61.967 381.609 -25.855 375.226 10.779 364.047 C12.812 363.5 12.812 363.5 14.812 363.5 C14.743 358.358 14.655 353.217 14.55 348.076 C14.517 346.33 14.489 344.583 14.466 342.836 C14.432 340.316 14.38 337.797 14.324 335.277 C14.318 334.504 14.311 333.731 14.305 332.934 C14.167 327.774 13.271 324.069 10.812 319.5 C7.585 317.348 6.528 317.299 2.812 317.5 C-0.156 322.498 -0.652 326.318 -0.699 331.961 C-0.717 332.752 -0.735 333.542 -0.754 334.357 C-0.807 336.863 -0.842 339.369 -0.875 341.875 C-0.908 343.582 -0.943 345.289 -0.979 346.996 C-1.063 351.164 -1.13 355.332 -1.188 359.5 C-1.518 359.5 -1.847 359.5 -2.188 359.5 C-4.182 350.701 -4.435 341.988 -4.5 333 C-4.517 331.854 -4.535 330.708 -4.553 329.528 C-4.552 328.436 -4.551 327.344 -4.551 326.219 C-4.555 324.748 -4.555 324.748 -4.56 323.248 C-3.977 318.945 -2.213 316.332 1.125 313.625 C4.581 312.178 6.252 312.387 9.812 313.5 C14.49 316.061 16.108 319.471 17.957 324.257 C19.752 331.061 19.5 338.128 19.562 345.125 C19.591 346.717 19.621 348.31 19.652 349.902 C19.726 353.768 19.776 357.634 19.812 361.5 C21.793 361.17 23.773 360.84 25.812 360.5 C25.94 353.475 26.027 346.45 26.087 339.425 C26.112 337.04 26.146 334.655 26.19 332.27 C26.919 313.698 26.919 313.698 20.812 296.5 C20.427 295.786 20.042 295.073 19.645 294.338 C16.863 291.548 13.551 290.902 9.832 289.992 C9.002 289.782 8.172 289.573 7.317 289.356 C-3.263 286.821 -14.039 285.497 -24.816 284.103 C-44.856 281.504 -64.774 278.577 -84.603 274.67 C-98.276 271.982 -111.42 271.26 -125.312 271.25 C-126.153 271.249 -126.994 271.249 -127.861 271.248 C-142.161 271.266 -156.064 272.131 -170.188 274.5 C-171.265 274.677 -172.342 274.854 -173.452 275.036 C-190.672 277.917 -207.638 281.769 -224.546 286.105 C-226.506 286.607 -228.472 287.086 -230.438 287.562 C-231.453 287.822 -232.469 288.081 -233.516 288.348 C-237.091 288.552 -238.419 287.746 -241.188 285.5 C-241.939 282.412 -241.939 282.412 -242.113 278.629 C-242.151 277.951 -242.188 277.274 -242.226 276.576 C-242.34 274.405 -242.42 272.235 -242.5 270.062 C-242.571 268.636 -242.645 267.21 -242.721 265.783 C-242.928 261.69 -243.066 257.597 -243.188 253.5 C-243.229 252.324 -243.271 251.148 -243.314 249.936 C-243.337 248.877 -243.359 247.818 -243.383 246.727 C-243.405 245.811 -243.427 244.895 -243.45 243.952 C-243.044 240.157 -241.49 238.023 -238.781 235.422 C-208.101 212.689 -168.089 207.531 -131.188 210.5 C-143.806 204.114 -156.618 199.338 -170.852 198.746 C-175.529 198.401 -180.049 197.479 -184.633 196.515 C-191.758 194.835 -191.758 194.835 -198.391 196.935 C-201.783 198.833 -204.977 199.335 -208.77 199.816 C-209.867 199.969 -209.867 199.969 -210.987 200.125 C-213.324 200.448 -215.662 200.756 -218 201.062 C-219.528 201.272 -221.056 201.482 -222.584 201.693 C-226.391 202.217 -230.2 202.719 -234.01 203.214 C-236.053 203.482 -238.093 203.762 -240.134 204.042 C-251.311 205.533 -262.501 206.337 -273.75 207.062 C-274.726 207.127 -275.701 207.191 -276.706 207.258 C-293.86 208.387 -311 209.144 -328.188 209.5 C-328.518 208.84 -328.847 208.18 -329.188 207.5 C-333.296 208.725 -337.403 209.952 -341.51 211.18 C-342.904 211.597 -344.297 212.013 -345.691 212.428 C-347.71 213.03 -349.728 213.634 -351.746 214.238 C-352.399 214.433 -353.052 214.628 -353.724 214.828 C-357.343 215.915 -360.914 217.088 -364.473 218.355 C-368.188 219.5 -368.188 219.5 -371.188 218.5 C-366.473 215.066 -361.789 212.964 -356.312 211 C-355.486 210.7 -354.66 210.399 -353.809 210.09 C-335.256 203.5 -335.256 203.5 -327.188 203.5 C-327.338 202.903 -327.489 202.306 -327.645 201.691 C-328.513 195.271 -326.93 191.511 -323.145 186.506 C-320.797 183.575 -318.414 180.675 -316.019 177.783 C-312.459 173.344 -309.287 168.627 -306.06 163.945 C-305.594 163.275 -305.128 162.605 -304.648 161.914 C-304.244 161.326 -303.84 160.737 -303.423 160.131 C-300.856 156.743 -299.851 155.624 -295.5 154.812 C-294.407 154.709 -293.314 154.606 -292.188 154.5 C-291.528 152.19 -290.868 149.88 -290.188 147.5 C-289.857 147.5 -289.528 147.5 -289.188 147.5 C-289.188 149.48 -289.188 151.46 -289.188 153.5 C-286.712 152.51 -286.712 152.51 -284.188 151.5 C-284.133 148.979 -284.094 146.459 -284.062 143.938 C-284.037 142.881 -284.037 142.881 -284.012 141.803 C-283.946 134.684 -285.068 128.771 -290.188 123.5 C-296.478 119.563 -304.999 121.077 -311.914 122.566 C-313.884 123.05 -315.85 123.55 -317.812 124.062 C-319.415 124.464 -319.415 124.464 -321.05 124.873 C-329.959 127.124 -338.83 129.526 -347.693 131.954 C-355.563 134.101 -363.463 136.053 -371.429 137.815 C-376.308 138.924 -380.648 140.385 -385.188 142.5 C-385.044 146.583 -384.897 150.667 -384.75 154.75 C-384.706 155.993 -384.661 157.237 -384.615 158.518 C-384.393 164.577 -384.137 170.627 -383.759 176.677 C-383.153 186.631 -383.052 196.586 -383.011 206.556 C-383.004 208.264 -382.993 209.973 -382.979 211.681 C-382.961 214.092 -382.957 216.503 -382.957 218.914 C-382.95 219.65 -382.943 220.385 -382.935 221.143 C-382.958 226.271 -382.958 226.271 -385.188 228.5 C-388.817 167.82 -388.817 167.82 -388.188 139.5 C-377.699 134.052 -377.699 134.052 -372.375 132.688 C-371.502 132.454 -370.63 132.221 -369.73 131.98 C-367.154 131.494 -364.803 131.411 -362.188 131.5 C-362.188 130.84 -362.188 130.18 -362.188 129.5 C-363.394 129.314 -363.394 129.314 -364.625 129.125 C-365.471 128.919 -366.316 128.712 -367.188 128.5 C-368.777 125.321 -368.603 123.004 -368.188 119.5 C-365.556 116.328 -363.985 114.86 -359.961 114.055 C-355.952 113.854 -353.699 114.201 -350.188 116.25 C-348.188 118.5 -348.188 118.5 -347.062 120.375 C-347.275 123.992 -349.775 125.911 -352.188 128.5 C-347.451 127.014 -345.153 125.982 -342.75 121.562 C-342.442 120.893 -342.134 120.224 -341.816 119.535 C-336.01 112.281 -323.779 111.147 -315.303 109.057 C-314.175 108.769 -313.048 108.48 -311.887 108.184 C-310.864 107.932 -309.841 107.679 -308.788 107.42 C-306.093 106.467 -305.09 105.543 -303.188 103.5 C-300.111 102.872 -297.079 102.573 -293.952 102.317 C-288.881 101.872 -284.022 101.115 -279.061 99.988 C-264.126 96.611 -248.408 94.563 -234.711 103.031 C-229.568 106.738 -229.568 106.738 -228.188 109.5 C-227.686 113.464 -227.433 117.454 -227.125 121.438 C-226.989 123.074 -226.989 123.074 -226.85 124.744 C-226.43 130.043 -226.186 135.179 -226.41 140.492 C-226.446 144.27 -226.348 145.252 -224.219 148.543 C-222.966 149.605 -222.966 149.605 -221.688 150.688 C-220.435 151.792 -220.435 151.792 -219.156 152.918 C-218.507 153.44 -217.857 153.962 -217.188 154.5 C-216.136 153.861 -215.084 153.221 -214 152.562 C-208.514 149.228 -202.622 149.257 -196.375 148.938 C-195.587 148.894 -194.798 148.851 -193.986 148.807 C-192.054 148.701 -190.121 148.6 -188.188 148.5 C-188.029 147.859 -187.87 147.219 -187.707 146.559 C-185.449 138.187 -182.881 132.959 -175.438 128.25 C-168.621 124.452 -161.926 122.323 -154.188 121.5 C-154.105 120.902 -154.022 120.304 -153.938 119.688 C-152.927 116.739 -151.892 116.045 -149.188 114.5 C-145.734 114.207 -145.734 114.207 -141.938 114.312 C-140.674 114.34 -139.411 114.367 -138.109 114.395 C-137.145 114.429 -136.181 114.464 -135.188 114.5 C-135.19 113.628 -135.192 112.755 -135.194 111.856 C-135.214 103.548 -135.23 95.239 -135.239 86.93 C-135.244 82.661 -135.251 78.392 -135.263 74.122 C-135.348 41.47 -135.348 41.47 -134.934 29.895 C-134.92 29.166 -134.906 28.438 -134.892 27.688 C-134.73 24.411 -134.368 22.727 -132.304 20.127 C-110.816 3.614 -70.968 1.277 -44.938 -1.75 C-44.19 -1.839 -43.442 -1.929 -42.671 -2.021 C-10.712 -5.786 -10.712 -5.786 0 0 Z M-96.306 12.027 C-99.739 13.023 -102.794 13.596 -106.348 13.508 C-110.118 13.5 -112.287 13.989 -115.688 15.5 C-116.971 16.057 -116.971 16.057 -118.281 16.625 C-118.91 16.914 -119.539 17.202 -120.188 17.5 C-120.188 18.16 -120.188 18.82 -120.188 19.5 C-120.93 19.624 -121.673 19.748 -122.438 19.875 C-125.002 20.458 -126.879 21.287 -129.188 22.5 C-130.371 40.734 -130.502 58.985 -130.72 77.25 C-130.771 81.461 -130.826 85.672 -130.881 89.883 C-130.987 98.088 -131.089 106.294 -131.188 114.5 C-128.548 115.49 -125.908 116.48 -123.188 117.5 C-123.605 122.367 -125.642 124.292 -129.188 127.5 C-129.806 127.954 -130.425 128.408 -131.062 128.875 C-132.566 130.679 -132.566 130.679 -131.875 134.188 C-131.648 135.281 -131.421 136.374 -131.188 137.5 C-130.524 137.61 -129.86 137.719 -129.176 137.832 C-119.731 139.528 -119.731 139.528 -116.188 142.5 C-115.566 144.602 -115.566 144.602 -115.188 146.5 C-115.681 146.887 -116.175 147.273 -116.684 147.672 C-117.324 148.193 -117.965 148.713 -118.625 149.25 C-119.263 149.76 -119.901 150.271 -120.559 150.797 C-122.567 152.616 -122.567 152.616 -123.188 156.5 C-120.548 157.16 -117.908 157.82 -115.188 158.5 C-114.267 163.907 -114.103 169.013 -114.188 174.5 C-122.603 175.49 -122.603 175.49 -131.188 176.5 C-131.326 180.702 -131.445 184.895 -131.517 189.098 C-131.547 190.526 -131.588 191.953 -131.64 193.381 C-131.713 195.437 -131.747 197.49 -131.773 199.547 C-131.821 201.401 -131.821 201.401 -131.869 203.292 C-131.499 206.763 -131.499 206.763 -128.286 208.683 C-127.264 209.283 -126.241 209.882 -125.188 210.5 C-121.135 216.386 -119.721 224.255 -117.875 231.062 C-115.099 240.976 -111.668 250.24 -107.188 259.5 C-105.051 258.71 -105.051 258.71 -104.512 256.793 C-104.302 256.098 -104.091 255.403 -103.875 254.688 C-102.435 250.703 -101.067 248.528 -97.188 246.5 C-93.562 246.438 -93.562 246.438 -90.188 247.5 C-87.181 250.507 -86.986 253.357 -86.875 257.438 C-86.989 261.44 -87.62 264.778 -89.188 268.5 C-83.695 270.104 -78.189 271.604 -72.625 272.938 C-71.801 273.161 -70.976 273.385 -70.127 273.615 C-65.638 274.758 -65.638 274.758 -61.357 273.525 C-59.535 272.026 -59.535 272.026 -57.188 269.5 C-51.825 267.006 -46.014 266.894 -40.188 266.5 C-41.4 263.099 -42.63 260.728 -45.125 258.125 C-48.62 254.194 -51.252 250.278 -51.125 244.812 C-51.214 241.533 -52.885 240.734 -55.188 238.5 C-57.803 232.069 -57.518 225.903 -57.5 219.062 C-57.516 217.86 -57.532 216.658 -57.549 215.42 C-57.552 209.062 -57.464 204.04 -54.188 198.5 C-51.378 197.095 -49.299 197.251 -46.188 197.5 C-43.827 198.898 -42.466 199.809 -41.43 202.383 C-41.309 203.123 -41.187 203.863 -41.062 204.625 C-40.918 205.491 -40.774 206.357 -40.625 207.25 C-39.718 213.99 -38.925 220.74 -38.188 227.5 C-37.227 227.347 -36.267 227.193 -35.277 227.035 C-30.781 226.393 -26.283 226.16 -21.75 225.938 C-20.923 225.894 -20.096 225.851 -19.244 225.807 C-17.225 225.702 -15.206 225.6 -13.188 225.5 C-13.174 224.915 -13.16 224.329 -13.146 223.726 C-12.809 209.222 -12.466 194.718 -12.118 180.215 C-11.949 173.2 -11.783 166.185 -11.62 159.17 C-11.431 151.039 -11.238 142.908 -11.039 134.777 C-11.023 134.109 -11.006 133.441 -10.99 132.752 C-10.49 112.424 -9.815 92.109 -8.838 71.798 C-6.295 41.341 -6.295 41.341 -10.188 11.5 C-10.45 9.339 -10.664 7.172 -10.812 5 C-10.925 3.438 -10.925 3.438 -11.039 1.844 C-11.088 1.07 -11.137 0.297 -11.188 -0.5 C-39.288 -1.752 -69.425 3.994 -96.306 12.027 Z M-132.188 26.5 C-132.188 31.45 -132.188 36.4 -132.188 41.5 C-131.858 41.5 -131.527 41.5 -131.188 41.5 C-131.188 36.55 -131.188 31.6 -131.188 26.5 C-131.517 26.5 -131.848 26.5 -132.188 26.5 Z M-133.188 60.5 C-133.188 66.77 -133.188 73.04 -133.188 79.5 C-132.858 79.5 -132.527 79.5 -132.188 79.5 C-132.188 73.23 -132.188 66.96 -132.188 60.5 C-132.517 60.5 -132.848 60.5 -133.188 60.5 Z M-344.188 78.5 C-346.465 81.315 -346.465 81.315 -346.188 84.5 C-341.565 83.04 -337.12 81.273 -332.652 79.402 C-327.794 77.624 -323.018 77.274 -317.875 76.938 C-315.994 76.812 -315.994 76.812 -314.074 76.684 C-313.122 76.623 -312.169 76.562 -311.188 76.5 C-311.188 75.84 -311.188 75.18 -311.188 74.5 C-321.444 72.449 -335.25 72.461 -344.188 78.5 Z M-322.23 87.984 C-325.167 91.759 -328.509 93.634 -333.188 94.5 C-333.188 95.16 -333.188 95.82 -333.188 96.5 C-325.612 97.192 -320.273 97.002 -314.102 92.301 C-311.254 89.621 -309.247 86.821 -307.188 83.5 C-308.117 81.061 -308.117 81.061 -311.75 80.25 C-317.388 79.603 -319.344 83.73 -322.23 87.984 Z M-327.98 82.812 C-328.693 83.083 -329.405 83.354 -330.139 83.633 C-331.246 84.062 -331.246 84.062 -332.375 84.5 C-333.125 84.786 -333.874 85.072 -334.646 85.367 C-336.495 86.074 -338.342 86.786 -340.188 87.5 C-339.857 88.82 -339.528 90.14 -339.188 91.5 C-332.823 91.159 -328.074 89.756 -323.188 85.5 C-321.959 83.426 -321.959 83.426 -321.188 81.5 C-324.026 81.5 -325.401 81.822 -327.98 82.812 Z M-275.938 103 C-277.123 103.238 -278.309 103.477 -279.531 103.723 C-282.419 104.305 -285.304 104.897 -288.188 105.5 C-288.188 107.48 -288.126 109.461 -288 111.438 C-288.209 114.844 -288.913 116.036 -291.188 118.5 C-290.482 119.028 -290.482 119.028 -289.762 119.566 C-289.139 120.06 -288.516 120.554 -287.875 121.062 C-287.26 121.538 -286.645 122.014 -286.012 122.504 C-280.705 128.31 -280.791 134.482 -281 141.938 C-281.014 142.86 -281.027 143.782 -281.041 144.732 C-281.076 146.989 -281.125 149.244 -281.188 151.5 C-280.197 151.5 -279.207 151.5 -278.188 151.5 C-277.528 146.55 -276.868 141.6 -276.188 136.5 C-276.188 141.12 -276.188 145.74 -276.188 150.5 C-274.868 150.5 -273.548 150.5 -272.188 150.5 C-271.858 146.54 -271.528 142.58 -271.188 138.5 C-270.528 138.5 -269.868 138.5 -269.188 138.5 C-269.188 142.13 -269.188 145.76 -269.188 149.5 C-266.712 149.005 -266.712 149.005 -264.188 148.5 C-264.188 146.52 -264.188 144.54 -264.188 142.5 C-263.197 142.5 -262.207 142.5 -261.188 142.5 C-261.188 144.15 -261.188 145.8 -261.188 147.5 C-254.255 146.819 -247.47 145.72 -240.625 144.438 C-239.616 144.251 -238.608 144.065 -237.568 143.873 C-235.108 143.418 -232.647 142.96 -230.188 142.5 C-230.158 139.021 -230.141 135.542 -230.125 132.062 C-230.112 130.602 -230.112 130.602 -230.1 129.111 C-229.483 118.639 -229.483 118.639 -232.902 109.23 C-247.366 99.19 -259.01 99.457 -275.938 103 Z M-304.188 109.5 C-302.322 113.128 -302.322 113.128 -299.188 115.5 C-296.855 115.54 -294.52 115.543 -292.188 115.5 C-291.528 114.18 -290.868 112.86 -290.188 111.5 C-292.215 109.172 -293.721 107.68 -296.625 106.562 C-299.935 106.482 -301.536 107.606 -304.188 109.5 Z M-321.562 114.25 C-322.483 114.503 -323.403 114.755 -324.352 115.016 C-329.799 116.572 -334.496 118.288 -339.188 121.5 C-339.518 122.49 -339.847 123.48 -340.188 124.5 C-334.614 123.893 -329.311 122.917 -323.875 121.562 C-317.346 119.977 -310.821 118.589 -304.188 117.5 C-304.847 115.52 -305.507 113.54 -306.188 111.5 C-311.675 111.317 -316.331 112.739 -321.562 114.25 Z M-149.188 118.5 C-149.188 118.83 -149.188 119.16 -149.188 119.5 C-147.437 119.385 -145.687 119.258 -143.938 119.125 C-142.476 119.021 -142.476 119.021 -140.984 118.914 C-138.291 118.515 -136.518 117.865 -134.188 116.5 C-141.931 116.11 -141.931 116.11 -149.188 118.5 Z M-363.562 119.188 C-365.495 121.407 -365.495 121.407 -364.938 124.25 C-364.69 124.993 -364.442 125.735 -364.188 126.5 C-361.814 126.834 -361.814 126.834 -359.188 126.5 C-356.784 124.263 -356.224 123.037 -356 119.75 C-356.062 119.007 -356.124 118.265 -356.188 117.5 C-359.477 117.134 -360.818 117.238 -363.562 119.188 Z M-133.188 119.5 C-135.073 121.889 -136.188 123.419 -136.188 126.5 C-136.848 126.5 -137.507 126.5 -138.188 126.5 C-138.188 127.16 -138.188 127.82 -138.188 128.5 C-133.353 128.086 -131.292 126.122 -128.188 122.5 C-127.858 121.51 -127.527 120.52 -127.188 119.5 C-130.061 119.083 -130.061 119.083 -133.188 119.5 Z M-176.945 133.617 C-181.824 138.676 -183.607 143.545 -184.188 150.5 C-180.362 152.671 -176.719 153.978 -172.457 155.105 C-170.976 155.5 -170.976 155.5 -169.464 155.903 C-168.713 156.1 -167.962 156.297 -167.188 156.5 C-167.193 157.118 -167.198 157.736 -167.203 158.373 C-167.292 170.463 -167.253 182.45 -166.188 194.5 C-165.573 194.666 -164.959 194.832 -164.327 195.003 C-161.488 195.772 -158.65 196.542 -155.812 197.312 C-154.364 197.704 -154.364 197.704 -152.887 198.104 C-151.446 198.495 -151.446 198.495 -149.977 198.895 C-149.107 199.13 -148.238 199.366 -147.342 199.609 C-142.942 200.852 -138.567 202.186 -134.188 203.5 C-134.188 194.92 -134.188 186.34 -134.188 177.5 C-135.837 177.17 -137.488 176.84 -139.188 176.5 C-140.147 176.222 -140.147 176.222 -141.125 175.938 C-143.834 175.363 -146.427 175.437 -149.188 175.5 C-149.683 173.52 -149.683 173.52 -150.188 171.5 C-151.507 171.17 -152.827 170.84 -154.188 170.5 C-155.362 163.162 -155.281 155.918 -155.188 148.5 C-153.538 148.17 -151.887 147.84 -150.188 147.5 C-149.528 143.54 -148.868 139.58 -148.188 135.5 C-144.887 134.51 -141.587 133.52 -138.188 132.5 C-138.188 131.84 -138.188 131.18 -138.188 130.5 C-139.091 130.234 -139.995 129.969 -140.926 129.695 C-142.105 129.342 -143.285 128.989 -144.5 128.625 C-145.672 128.277 -146.844 127.929 -148.051 127.57 C-151.188 126.5 -151.188 126.5 -154.188 124.5 C-162.077 124.5 -170.718 128.836 -176.945 133.617 Z M-149.188 124.5 C-149.188 125.16 -149.188 125.82 -149.188 126.5 C-147.212 126.152 -147.212 126.152 -145.188 125.5 C-144.858 124.84 -144.527 124.18 -144.188 123.5 C-146.398 123.395 -146.398 123.395 -149.188 124.5 Z M-136.188 131.5 C-136.188 134.5 -136.188 134.5 -136.188 134.5 Z M-147.188 137.5 C-147.188 137.83 -147.188 138.16 -147.188 138.5 C-144.217 138.5 -141.248 138.5 -138.188 138.5 C-137.858 137.84 -137.527 137.18 -137.188 136.5 C-137.517 135.84 -137.848 135.18 -138.188 134.5 C-142.457 134.5 -143.785 135.137 -147.188 137.5 Z M-148.188 142.5 C-148.188 143.82 -148.188 145.14 -148.188 146.5 C-145.217 146.995 -145.217 146.995 -142.188 147.5 C-141.858 154.76 -141.527 162.02 -141.188 169.5 C-143.168 169.83 -145.147 170.16 -147.188 170.5 C-147.188 171.16 -147.188 171.82 -147.188 172.5 C-142.897 172.5 -138.608 172.5 -134.188 172.5 C-132.814 169.753 -133.175 167.683 -133.309 164.617 C-133.357 163.451 -133.405 162.284 -133.455 161.082 C-133.539 159.247 -133.539 159.247 -133.625 157.375 C-133.677 156.144 -133.729 154.913 -133.783 153.645 C-133.913 150.596 -134.048 147.548 -134.188 144.5 C-133.858 144.5 -133.527 144.5 -133.188 144.5 C-132.858 146.15 -132.527 147.8 -132.188 149.5 C-131.527 149.5 -130.868 149.5 -130.188 149.5 C-128.835 147.513 -127.502 145.513 -126.188 143.5 C-125.527 143.17 -124.868 142.84 -124.188 142.5 C-124.188 141.84 -124.188 141.18 -124.188 140.5 C-132.153 137.845 -140.721 138.986 -148.188 142.5 Z M-124.672 144.812 C-125.09 145.369 -125.507 145.926 -125.938 146.5 C-126.68 147.49 -127.423 148.48 -128.188 149.5 C-127.197 149.83 -126.207 150.16 -125.188 150.5 C-121.95 148.26 -121.95 148.26 -119.188 145.5 C-119.188 144.84 -119.188 144.18 -119.188 143.5 C-123.018 143.058 -123.018 143.058 -124.672 144.812 Z M-231.188 145.5 C-231.479 146.048 -231.77 146.597 -232.07 147.161 C-237.556 157.437 -243.005 167.302 -250.188 176.5 C-252.422 179.851 -252.426 180.918 -252.383 184.824 C-252.376 185.852 -252.37 186.88 -252.363 187.939 C-252.347 189.011 -252.33 190.083 -252.312 191.188 C-252.303 192.271 -252.294 193.354 -252.285 194.471 C-252.262 197.147 -252.229 199.824 -252.188 202.5 C-250.776 202.289 -250.776 202.289 -249.336 202.073 C-245.756 201.537 -242.176 201.005 -238.595 200.474 C-237.062 200.246 -235.529 200.017 -233.996 199.787 C-223.081 198.151 -212.157 196.728 -201.188 195.5 C-201.265 193.629 -201.342 191.758 -201.421 189.887 C-201.479 188.458 -201.529 187.029 -201.575 185.599 C-201.917 179.078 -203.631 173.699 -208.188 168.812 C-208.796 168.15 -209.404 167.487 -210.031 166.805 C-210.743 166.044 -211.454 165.284 -212.188 164.5 C-213.543 163.005 -214.899 161.509 -216.254 160.013 C-220.772 155.046 -225.334 150.142 -230.188 145.5 C-230.517 145.5 -230.848 145.5 -231.188 145.5 Z M-241.277 146.566 C-242.355 146.801 -243.433 147.035 -244.544 147.276 C-246.972 147.809 -249.399 148.345 -251.825 148.884 C-258.266 150.294 -264.696 151.62 -271.2 152.706 C-274.362 153.235 -277.519 153.794 -280.677 154.353 C-282.214 154.616 -283.754 154.864 -285.296 155.096 C-294.129 156.261 -294.129 156.261 -301.583 160.723 C-303.358 163.24 -304.792 165.758 -306.188 168.5 C-307.004 169.729 -307.839 170.946 -308.699 172.145 C-310.158 174.269 -311.617 176.394 -313.074 178.52 C-315.022 181.266 -317.055 183.896 -319.188 186.5 C-318.857 187.16 -318.528 187.82 -318.188 188.5 C-311.041 187.102 -303.895 185.702 -296.749 184.301 C-293.43 183.65 -290.111 183 -286.792 182.351 C-282.967 181.602 -279.142 180.852 -275.316 180.102 C-274.138 179.871 -272.959 179.641 -271.745 179.404 C-268.558 178.778 -265.372 178.141 -262.188 177.5 C-260.837 177.235 -260.837 177.235 -259.46 176.964 C-252.069 175.443 -249.588 172.431 -245.399 166.344 C-238.018 156.473 -238.018 156.473 -234.188 145.5 C-236.675 145.5 -238.845 146.031 -241.277 146.566 Z M-153.188 150.5 C-153.188 156.11 -153.188 161.72 -153.188 167.5 C-150.217 167.5 -147.248 167.5 -144.188 167.5 C-144.188 161.23 -144.188 154.96 -144.188 148.5 C-147.767 148.342 -147.767 148.342 -153.188 150.5 Z M-132.188 151.5 C-132.335 158.891 -131.895 166.144 -131.188 173.5 C-132.837 173.83 -134.488 174.16 -136.188 174.5 C-136.188 174.83 -136.188 175.16 -136.188 175.5 C-133.416 175.359 -130.646 175.213 -127.875 175.062 C-127.089 175.023 -126.304 174.984 -125.494 174.943 C-124.737 174.901 -123.979 174.86 -123.199 174.816 C-122.154 174.761 -122.154 174.761 -121.089 174.705 C-118.966 174.544 -118.966 174.544 -116.188 173.5 C-116.188 169.21 -116.188 164.92 -116.188 160.5 C-116.848 160.17 -117.507 159.84 -118.188 159.5 C-119.178 161.81 -120.168 164.12 -121.188 166.5 C-124.158 166.005 -124.158 166.005 -127.188 165.5 C-128.541 159.1 -128.541 159.1 -126.75 156.062 C-126.234 155.547 -125.719 155.031 -125.188 154.5 C-128.441 152.241 -128.441 152.241 -132.188 151.5 Z M-214.188 156.5 C-212.821 159.597 -211.283 161.577 -208.812 163.875 C-201.856 170.628 -200.043 176.49 -199.67 186.051 C-199.48 189.689 -199.257 191.396 -197.188 194.5 C-195.538 193.84 -193.887 193.18 -192.188 192.5 C-192.163 187.286 -192.145 182.071 -192.133 176.857 C-192.128 175.083 -192.121 173.309 -192.112 171.534 C-192.1 168.985 -192.094 166.436 -192.09 163.887 C-192.085 163.093 -192.08 162.299 -192.074 161.481 C-192.074 158.223 -192.15 155.613 -193.188 152.5 C-200.704 152.136 -207.385 153.099 -214.188 156.5 Z M-125.188 158.5 C-125.848 159.16 -126.507 159.82 -127.188 160.5 C-126.869 162.608 -126.869 162.608 -126.188 164.5 C-124.868 164.5 -123.548 164.5 -122.188 164.5 C-121.858 162.85 -121.527 161.2 -121.188 159.5 C-123.079 158.819 -123.079 158.819 -125.188 158.5 Z M-266.699 180.462 C-267.754 180.673 -268.808 180.883 -269.895 181.1 C-271.02 181.331 -272.145 181.563 -273.305 181.801 C-274.476 182.038 -275.647 182.275 -276.854 182.519 C-279.327 183.021 -281.8 183.527 -284.272 184.035 C-288.04 184.808 -291.811 185.568 -295.582 186.326 C-297.99 186.817 -300.397 187.308 -302.805 187.801 C-304.486 188.138 -304.486 188.138 -306.202 188.483 C-312.105 189.707 -317.664 191.054 -323.188 193.5 C-324.51 196.145 -324.284 198.178 -324.25 201.125 C-324.241 202.128 -324.232 203.131 -324.223 204.164 C-324.211 204.935 -324.199 205.706 -324.188 206.5 C-321.294 207.947 -319.03 207.402 -315.81 207.155 C-314.829 207.082 -314.829 207.082 -313.829 207.007 C-311.664 206.845 -309.5 206.674 -307.336 206.504 C-305.837 206.39 -304.337 206.276 -302.838 206.163 C-298.889 205.864 -294.94 205.558 -290.992 205.251 C-286.963 204.939 -282.935 204.633 -278.906 204.326 C-271 203.724 -263.093 203.114 -255.188 202.5 C-255.188 194.91 -255.188 187.32 -255.188 179.5 C-259.493 179.5 -262.613 179.636 -266.699 180.462 Z M-211.188 225.438 C-212.213 225.844 -213.239 226.251 -214.296 226.67 C-228.825 232.014 -228.825 232.014 -239.188 242.5 C-239.665 246.674 -239.523 250.759 -239.307 254.949 C-239.166 257.955 -239.091 260.96 -239.016 263.969 C-238.949 266.25 -238.882 268.531 -238.812 270.812 C-238.782 271.929 -238.752 273.045 -238.72 274.195 C-238.681 275.24 -238.642 276.286 -238.602 277.363 C-238.57 278.305 -238.539 279.246 -238.506 280.216 C-238.394 282.695 -238.394 282.695 -236.188 284.5 C-229.077 283.484 -222.198 281.455 -215.268 279.604 C-182.509 270.929 -149.44 264.516 -115.375 267 C-114.671 267.048 -113.966 267.095 -113.24 267.145 C-111.556 267.259 -109.872 267.379 -108.188 267.5 C-108.857 262.7 -110.787 258.689 -112.75 254.312 C-116.796 245.089 -119.744 235.643 -122.485 225.958 C-122.795 224.888 -123.106 223.818 -123.426 222.715 C-123.694 221.757 -123.963 220.799 -124.24 219.812 C-125.069 217.175 -125.069 217.175 -128.188 215.5 C-155.337 208.121 -185.824 215.372 -211.188 225.438 Z M-46.188 233.5 C-49.175 236.786 -50.075 238.887 -50.875 243.25 C-50.525 250.268 -44.669 255.846 -40.25 260.875 C-38.188 263.5 -38.188 263.5 -38.188 267.5 C-40.813 268.813 -43.008 268.722 -45.938 268.875 C-50.643 269.237 -54.232 269.72 -58.188 272.5 C-58.517 273.49 -58.848 274.48 -59.188 275.5 C-48.856 277.344 -38.683 278.962 -28.188 279.5 C-27.177 265.728 -27.177 265.728 -32.785 253.492 C-34.59 250.928 -35.024 248.604 -35.188 245.5 C-34.838 246.077 -34.489 246.655 -34.129 247.25 C-33.446 248.364 -33.446 248.364 -32.75 249.5 C-32.298 250.243 -31.845 250.985 -31.379 251.75 C-30.986 252.327 -30.593 252.905 -30.188 253.5 C-29.858 253.5 -29.527 253.5 -29.188 253.5 C-29.188 248.55 -29.188 243.6 -29.188 238.5 C-28.197 238.5 -27.207 238.5 -26.188 238.5 C-26.199 239.132 -26.211 239.763 -26.223 240.414 C-26.301 248.15 -25.818 255.792 -25.188 263.5 C-22.151 260.901 -20.726 257.879 -19 254.312 C-18.47 253.226 -17.94 252.139 -17.395 251.02 C-16.996 250.188 -16.598 249.357 -16.188 248.5 C-16.188 252.07 -16.32 253.299 -17.684 256.355 C-17.995 257.06 -18.306 257.764 -18.627 258.49 C-18.956 259.215 -19.286 259.94 -19.625 260.688 C-19.95 261.424 -20.276 262.161 -20.611 262.92 C-23.031 268.344 -23.031 268.344 -24.188 269.5 C-24.26 271.186 -24.271 272.875 -24.25 274.562 C-24.241 275.482 -24.232 276.401 -24.223 277.348 C-24.211 278.058 -24.199 278.768 -24.188 279.5 C-22.672 279.995 -22.672 279.995 -21.125 280.5 C-20.272 280.778 -20.272 280.778 -19.402 281.062 C-16.325 281.67 -13.317 281.525 -10.188 281.5 C-10.448 274.131 -10.715 266.762 -10.987 259.393 C-11.079 256.885 -11.169 254.376 -11.258 251.868 C-11.385 248.268 -11.518 244.669 -11.652 241.07 C-11.691 239.943 -11.73 238.816 -11.769 237.655 C-11.809 236.614 -11.849 235.573 -11.89 234.5 C-11.924 233.581 -11.957 232.662 -11.991 231.715 C-12.055 229.46 -12.055 229.46 -13.188 227.5 C-30.509 226.942 -30.509 226.942 -46.188 233.5 Z M-416.188 239.5 C-417.7 241.243 -419.172 243.02 -420.625 244.812 C-421.428 245.799 -422.231 246.785 -423.059 247.801 C-425.242 250.495 -425.242 250.495 -427.188 253.5 C-421.248 254.985 -421.248 254.985 -415.188 256.5 C-415.188 250.89 -415.188 245.28 -415.188 239.5 C-415.517 239.5 -415.847 239.5 -416.188 239.5 Z M-360.188 240.5 C-361.178 241.16 -362.168 241.82 -363.188 242.5 C-361.207 242.17 -359.227 241.84 -357.188 241.5 C-358.178 241.17 -359.168 240.84 -360.188 240.5 Z M-276.277 254.254 C-277.222 255.189 -277.222 255.189 -278.186 256.143 C-279.502 257.449 -280.816 258.757 -282.126 260.068 C-284.134 262.071 -286.157 264.058 -288.182 266.045 C-289.465 267.322 -290.746 268.6 -292.027 269.879 C-292.631 270.469 -293.236 271.058 -293.858 271.666 C-296.947 274.79 -298.934 276.896 -299.188 281.5 C-293.789 281.123 -290.988 279.107 -287.25 275.438 C-286.701 274.914 -286.152 274.39 -285.586 273.851 C-281.018 269.438 -276.614 264.863 -272.25 260.25 C-271.636 259.602 -271.022 258.953 -270.389 258.285 C-262.666 250.861 -262.666 250.861 -259.188 241.5 C-265.327 241.5 -272.142 250.135 -276.277 254.254 Z M-365.188 242.5 C-365.432 243.152 -365.677 243.805 -365.93 244.477 C-368.746 251.06 -371.545 254.003 -377.98 257.148 C-380.63 258.503 -380.63 258.503 -382.188 262.5 C-379.217 261.18 -376.248 259.86 -373.188 258.5 C-373.662 259.511 -374.136 260.521 -374.625 261.562 C-376.181 265.159 -376.789 268.593 -377.188 272.5 C-376.197 272.83 -375.207 273.16 -374.188 273.5 C-373.183 271.043 -372.184 268.585 -371.188 266.125 C-370.901 265.426 -370.615 264.728 -370.32 264.008 C-368.742 260.371 -368.742 260.371 -368.188 256.5 C-364.887 256.17 -361.587 255.84 -358.188 255.5 C-357.858 254.18 -357.528 252.86 -357.188 251.5 C-360.116 250.524 -362.144 250.418 -365.188 250.5 C-364.858 249.737 -364.528 248.974 -364.188 248.188 C-363.013 245.509 -363.013 245.509 -363.188 242.5 C-363.847 242.5 -364.507 242.5 -365.188 242.5 Z M-96.75 250 C-97.224 250.495 -97.699 250.99 -98.188 251.5 C-95.878 251.5 -93.567 251.5 -91.188 251.5 C-92.166 250.479 -93.167 249.479 -94.188 248.5 C-95.428 248.385 -95.428 248.385 -96.75 250 Z M-99.188 251.5 C-99.188 254.5 -99.188 254.5 -99.188 254.5 Z M-101.188 254.5 C-100.188 257.5 -100.188 257.5 -100.188 257.5 Z M-102.188 257.5 C-102.188 259.15 -102.188 260.8 -102.188 262.5 C-101.858 262.5 -101.527 262.5 -101.188 262.5 C-101.188 260.85 -101.188 259.2 -101.188 257.5 C-101.517 257.5 -101.848 257.5 -102.188 257.5 Z M-369.188 262.5 C-369.188 262.83 -369.188 263.16 -369.188 263.5 C-367.538 263.5 -365.887 263.5 -364.188 263.5 C-364.188 263.17 -364.188 262.84 -364.188 262.5 C-365.837 262.5 -367.488 262.5 -369.188 262.5 Z M-261.375 268.688 C-265.529 271.823 -269.617 274.881 -274.125 277.5 C-275.136 278.16 -276.146 278.82 -277.188 279.5 C-277.188 280.49 -277.188 281.48 -277.188 282.5 C-274.3 283.808 -274.3 283.808 -271.91 282.672 C-266.189 279.614 -261.29 276.152 -256.5 271.812 C-255.971 271.337 -255.442 270.862 -254.897 270.372 C-253.595 269.147 -252.383 267.829 -251.188 266.5 C-251.188 265.51 -251.188 264.52 -251.188 263.5 C-255.565 263.5 -258.036 266.127 -261.375 268.688 Z M-447.188 271.5 C-451.168 275.666 -452.167 279.771 -452.209 285.428 C-452.162 286.496 -452.115 287.564 -452.066 288.664 C-452.018 289.86 -451.969 291.056 -451.919 292.288 C-451.864 293.554 -451.808 294.82 -451.75 296.125 C-450.5 328.094 -450.5 328.094 -452.188 341.5 C-446.645 345.046 -441.653 348.094 -435.188 349.5 C-434.908 348.738 -434.628 347.976 -434.34 347.191 C-431.456 339.765 -428.052 331.044 -420.616 327.155 C-416.62 322.787 -417.461 317.788 -417.48 312.078 C-417.465 310.863 -417.45 309.648 -417.435 308.396 C-417.392 304.514 -417.383 300.632 -417.375 296.75 C-417.352 294.118 -417.327 291.487 -417.299 288.855 C-417.236 282.404 -417.201 275.952 -417.188 269.5 C-420.044 269.483 -422.901 269.471 -425.758 269.461 C-426.559 269.456 -427.36 269.45 -428.185 269.445 C-437.839 269.375 -437.839 269.375 -447.188 271.5 Z M-321.188 286.5 C-330.355 309.047 -328.92 336.601 -325.375 360.188 C-325.21 361.286 -325.045 362.385 -324.875 363.516 C-324.006 369.774 -324.006 369.774 -320.188 374.5 C-317.322 375.073 -314.603 375.479 -311.707 375.781 C-310.861 375.881 -310.016 375.98 -309.144 376.083 C-306.431 376.401 -303.716 376.702 -301 377 C-297.464 377.399 -293.929 377.806 -290.395 378.219 C-289.098 378.368 -289.098 378.368 -287.775 378.52 C-280.913 379.338 -274.197 380.572 -267.444 382.029 C-264.304 382.483 -262.216 382.352 -259.188 381.5 C-257.183 371.028 -257.968 360.395 -259.188 349.875 C-261.289 331.459 -259.21 318.059 -251.237 301.353 C-250.845 300.525 -250.454 299.697 -250.051 298.844 C-249.514 297.733 -249.514 297.733 -248.966 296.6 C-247.956 294.248 -247.956 294.248 -248.188 290.5 C-252.58 289.804 -256.972 289.11 -261.365 288.419 C-262.856 288.184 -264.346 287.948 -265.837 287.712 C-281.494 285.177 -281.494 285.177 -297.312 284.312 C-298.032 284.312 -298.751 284.311 -299.492 284.311 C-306.826 284.381 -313.954 285.321 -321.188 286.5 Z M-491.188 315.5 C-491.517 316.49 -491.847 317.48 -492.188 318.5 C-491.197 318.5 -490.207 318.5 -489.188 318.5 C-489.188 317.51 -489.188 316.52 -489.188 315.5 C-489.847 315.5 -490.507 315.5 -491.188 315.5 Z M-423.938 342.25 C-427.925 348.01 -429.619 352.458 -429.188 359.5 C-427.874 358.522 -426.562 357.542 -425.25 356.562 C-424.154 355.745 -424.154 355.745 -423.035 354.91 C-421.274 353.631 -421.274 353.631 -420.188 352.5 C-414.933 351.929 -414.933 351.929 -412.312 353.938 C-410.598 357.842 -411 361.258 -411.188 365.5 C-414.817 365.83 -418.447 366.16 -422.188 366.5 C-418.951 368.658 -418.352 368.754 -414.688 368.375 C-413.527 368.278 -413.527 368.278 -412.344 368.18 C-409.428 367.261 -408.641 366.165 -407.188 363.5 C-406.356 358.474 -406.513 353.934 -408.688 349.312 C-411.549 347.238 -413.681 346.794 -417.215 346.992 C-420.478 347.832 -422.144 349.945 -424.188 352.5 C-422.914 347.521 -421.269 344.675 -417.188 341.5 C-413.472 340.438 -411.237 340.15 -407.562 341.375 C-402.428 345.969 -399.558 352.357 -398.949 359.164 C-398.759 366.741 -399.435 374.305 -404.711 380.203 C-407.394 382.559 -409.508 383.411 -413.062 383.875 C-417.189 383.38 -419.05 382.228 -422.188 379.5 C-424.835 375.474 -426.587 371.306 -427.188 366.5 C-428.178 366.83 -429.168 367.16 -430.188 367.5 C-429.668 374.901 -428.273 379.773 -422.5 384.875 C-417.675 387.242 -413.256 388.371 -407.973 386.871 C-402.401 384.391 -399.626 381.051 -397.32 375.359 C-393.609 364.969 -394.357 356.722 -398.188 346.5 C-401 341.515 -404.132 338.421 -409.688 336.812 C-415.771 335.954 -419.646 337.959 -423.938 342.25 Z M-455.188 344.5 C-455.371 347.499 -455.444 348.833 -454.188 351.5 C-450.755 354.261 -447.055 356.404 -443.188 358.5 C-443.951 358.149 -444.714 357.799 -445.5 357.438 C-448.235 356.176 -448.235 356.176 -451.188 357.5 C-449.296 358.487 -447.399 359.464 -445.5 360.438 C-444.444 360.983 -443.389 361.528 -442.301 362.09 C-438.972 363.739 -438.972 363.739 -434.188 364.5 C-434.188 360.21 -434.188 355.92 -434.188 351.5 C-435.707 350.993 -435.707 350.993 -437.258 350.477 C-443.234 348.484 -449.211 346.492 -455.188 344.5 Z M-420.188 356.5 C-422.864 357.872 -422.864 357.872 -425.188 359.5 C-424.197 359.83 -423.207 360.16 -422.188 360.5 C-419.511 359.128 -419.511 359.128 -417.188 357.5 C-418.178 357.17 -419.168 356.84 -420.188 356.5 Z M25.824 364.004 C24.655 364.329 23.486 364.654 22.281 364.989 C20.409 365.521 20.409 365.521 18.5 366.062 C17.196 366.427 15.891 366.792 14.586 367.155 C7.427 369.159 0.291 371.237 -6.833 373.364 C-36.036 382.049 -66.289 385.96 -96.727 386.965 C-98.875 387.043 -101.023 387.122 -103.172 387.201 C-106.5 387.321 -109.829 387.438 -113.157 387.55 C-116.41 387.66 -119.662 387.78 -122.914 387.902 C-123.897 387.933 -124.879 387.963 -125.892 387.994 C-137.08 388.326 -137.08 388.326 -147.188 392.5 C-146.858 393.49 -146.527 394.48 -146.188 395.5 C-139.382 397.839 -132.324 398.126 -125.188 398.625 C-124.031 398.711 -122.875 398.798 -121.684 398.887 C-118.852 399.097 -116.02 399.302 -113.188 399.5 C-124.328 400.33 -135.054 400.567 -146.188 399.5 C-145.301 403.841 -143.711 405.71 -140.188 408.5 C-111.629 418.495 -70.3 405.127 -41.661 400.126 C-35.178 398.999 -28.69 397.925 -22.184 396.941 C-21.079 396.774 -21.079 396.774 -19.952 396.603 C-16.7 396.113 -13.447 395.635 -10.19 395.172 C2.201 393.335 14.153 389.899 26.062 386.062 C27.426 385.652 27.426 385.652 28.816 385.232 C33.967 383.602 33.967 383.602 37.867 380.02 C39.825 374.802 40.569 370.637 38.375 365.5 C37.602 364.015 37.602 364.015 36.812 362.5 C32.861 362.325 29.625 362.938 25.824 364.004 Z M-419.188 370.5 C-418.858 371.16 -418.528 371.82 -418.188 372.5 C-415.715 372.156 -415.715 372.156 -413.188 371.5 C-412.858 370.84 -412.528 370.18 -412.188 369.5 C-414.615 369.5 -416.817 370.001 -419.188 370.5 Z M-202.438 382.312 C-207.397 389.506 -208.737 395.903 -209.188 404.5 C-208.527 404.5 -207.868 404.5 -207.188 404.5 C-206.94 403.881 -206.692 403.263 -206.438 402.625 C-204.927 400.058 -203.827 399.782 -201.188 398.5 C-200.383 397.654 -199.579 396.809 -198.75 395.938 C-196.024 393.345 -194.916 392.5 -191.188 392.5 C-188.111 393.788 -186.596 394.819 -184.875 397.688 C-183.967 401.401 -184.058 404.68 -184.188 408.5 C-186.756 409.784 -188.953 409.83 -191.812 410.062 C-192.815 410.146 -193.818 410.23 -194.852 410.316 C-196.008 410.407 -196.008 410.407 -197.188 410.5 C-192.721 413.119 -189.103 412.702 -184.188 411.5 C-181.501 410.231 -181.501 410.231 -180.188 407.5 C-178.735 401.76 -178.73 396.569 -181.184 391.133 C-182.838 388.442 -184.194 387.498 -187.188 386.5 C-192.26 386.5 -194.174 386.641 -198.062 389.938 C-198.764 390.783 -199.465 391.629 -200.188 392.5 C-200.848 393.16 -201.507 393.82 -202.188 394.5 C-200.349 387.639 -198.309 383.385 -192.312 379.188 C-188.197 377.856 -184.56 377.83 -180.66 379.734 C-173.923 384.545 -170.766 393.634 -169.188 401.5 C-168.191 410.183 -171.351 418.137 -174.688 426.062 C-178.784 430.056 -183.597 431.583 -189.188 432.5 C-193.662 432.038 -196.315 430.349 -199.5 427.25 C-202.605 422.19 -204.468 417.4 -205.188 411.5 C-206.507 411.5 -207.827 411.5 -209.188 411.5 C-208.71 419.835 -207.692 425.379 -201.375 431.25 C-196.638 435.143 -192.921 436.771 -186.75 436.375 C-180.283 435.429 -175.388 432.612 -171.316 427.344 C-165.076 417.152 -163.724 406.346 -166.265 394.774 C-168.069 387.481 -170.451 382.383 -176.188 377.5 C-176.93 376.84 -177.673 376.18 -178.438 375.5 C-188.072 371.997 -196.255 374.528 -202.438 382.312 Z M-423.188 394.5 C-423.188 395.16 -423.188 395.82 -423.188 396.5 C-422.197 396.17 -421.207 395.84 -420.188 395.5 C-421.178 395.17 -422.168 394.84 -423.188 394.5 Z M-5.188 397.5 C-6.672 399.827 -7.781 401.877 -8.875 404.375 C-12.111 411.385 -12.111 411.385 -14.188 414.5 C-10.728 413.251 -8.041 411.825 -5.188 409.5 C-9.077 414.647 -12.346 417.711 -18.906 419.059 C-29.13 420.434 -38.708 419.855 -48.613 417.059 C-51.286 416.249 -51.286 416.249 -54.188 417.5 C-37.514 424.699 -37.514 424.699 -19.629 423.848 C-9.712 419.843 -2.838 411.975 1.812 402.5 C2.529 399.288 2.529 399.288 2.812 396.5 C-1.279 396.474 -1.279 396.474 -5.188 397.5 Z M-202.188 401.5 C-202.848 402.49 -203.507 403.48 -204.188 404.5 C-202.77 404.046 -201.353 403.586 -199.938 403.125 C-199.149 402.87 -198.36 402.615 -197.547 402.352 C-195.321 401.548 -193.278 400.603 -191.188 399.5 C-191.188 399.17 -191.188 398.84 -191.188 398.5 C-195.639 398.107 -198.38 399.215 -202.188 401.5 Z M-17.188 399.5 C-19.315 402.385 -21.102 405.419 -22.957 408.484 C-25.476 411.891 -27.579 413.379 -31.188 415.5 C-30.197 415.83 -29.207 416.16 -28.188 416.5 C-22.296 413.498 -17.409 408.223 -14.188 402.5 C-14.188 401.51 -14.188 400.52 -14.188 399.5 C-15.178 399.5 -16.168 399.5 -17.188 399.5 Z M-11.188 399.5 C-10.188 401.5 -10.188 401.5 -10.188 401.5 Z M-12.188 401.5 C-12.188 404.5 -12.188 404.5 -12.188 404.5 Z M-223.188 403.5 C-222.188 405.5 -222.188 405.5 -222.188 405.5 Z M-25.188 403.5 C-25.848 404.82 -26.507 406.14 -27.188 407.5 C-26.197 406.84 -25.207 406.18 -24.188 405.5 C-24.517 404.84 -24.848 404.18 -25.188 403.5 Z M-14.188 404.5 C-14.188 407.5 -14.188 407.5 -14.188 407.5 Z M-28.188 407.5 C-28.188 410.5 -28.188 410.5 -28.188 410.5 Z M-186.188 413.5 C-189.488 414.16 -192.788 414.82 -196.188 415.5 C-195.527 416.16 -194.868 416.82 -194.188 417.5 C-189.531 417.09 -189.531 417.09 -185.188 415.5 C-185.517 414.84 -185.848 414.18 -186.188 413.5 Z M-181.188 441.5 C-181.848 442.16 -182.507 442.82 -183.188 443.5 C-181.868 443.17 -180.548 442.84 -179.188 442.5 C-179.848 442.17 -180.507 441.84 -181.188 441.5 Z M-197.188 446.5 C-196.858 447.16 -196.527 447.82 -196.188 448.5 C-195.197 448.17 -194.207 447.84 -193.188 447.5 C-194.507 447.17 -195.827 446.84 -197.188 446.5 Z " fill="#000000" transform="translate(622.1875,208.5)"/>
<path d="M0 0 C2.438 0.812 2.438 0.812 5 2 C5.922 4.766 6.118 6.383 6.098 9.23 C6.094 10.033 6.091 10.835 6.088 11.662 C6.08 12.495 6.071 13.329 6.062 14.188 C6.058 15.032 6.053 15.877 6.049 16.748 C6.037 18.832 6.019 20.916 6 23 C4.68 22.67 3.36 22.34 2 22 C1.47 18.522 0.953 15.043 0.438 11.562 C0.286 10.569 0.135 9.576 -0.021 8.553 C-0.16 7.608 -0.299 6.664 -0.441 5.691 C-0.572 4.817 -0.703 3.942 -0.838 3.041 C-0.892 2.368 -0.945 1.694 -1 1 C-0.67 0.67 -0.34 0.34 0 0 Z " fill="#000000" transform="translate(357,211)"/>
<path d="M0 0 C1.666 -0.043 3.334 -0.041 5 0 C6.693 1.693 6.13 3.829 6.133 6.145 C6.134 7.215 6.135 8.286 6.137 9.389 C6.133 10.519 6.129 11.648 6.125 12.812 C6.129 13.9 6.133 14.987 6.137 16.107 C6.112 36.888 6.112 36.888 3 40 C2.945 39.144 2.889 38.287 2.832 37.405 C2.623 34.18 2.412 30.956 2.2 27.732 C2.11 26.345 2.019 24.959 1.93 23.572 C1.421 15.7 0.868 7.842 0 0 Z " fill="#000000" transform="translate(378,212)"/>
<path d="M0 0 C0.66 0 1.32 0 2 0 C2.46 2.25 2.911 4.501 3.355 6.754 C3.825 9.118 4.309 11.48 4.801 13.84 C6.383 21.609 7.456 29.036 7 37 C4.924 37.553 3.156 38 1 38 C0.13 29.394 -0.126 20.896 -0.062 12.25 C-0.058 11.064 -0.053 9.878 -0.049 8.656 C-0.037 5.771 -0.021 2.885 0 0 Z " fill="#000000" transform="translate(449,234)"/>
<path d="M0 0 C3.5 0.938 3.5 0.938 5.145 2.445 C7.131 6.097 7.337 9.648 7.688 13.75 C7.764 14.589 7.84 15.427 7.918 16.291 C8.134 18.839 8.322 21.387 8.5 23.938 C8.559 24.693 8.618 25.449 8.678 26.228 C8.824 28.274 8.914 30.325 9 32.375 C9.077 34.137 9.077 34.137 9.156 35.934 C8.5 38.938 8.5 38.938 5.66 41.316 C2.137 43.124 0.391 43.6 -3.5 42.938 C-7.031 40.931 -8.261 39.595 -9.652 35.762 C-11.894 25.65 -9.944 12.637 -6.5 2.938 C-4.276 -0.054 -3.922 -0.07 0 0 Z " fill="#000000" transform="translate(527.5,252.0625)"/>
<path d="M0 0 C3.393 2.159 4.732 3.979 5.754 7.871 C7.37 17.465 8.647 28.699 5 38 C2.312 40.25 2.312 40.25 -1 41 C-5.156 40.427 -7.297 39.684 -10.312 36.75 C-15.793 27.819 -14.715 17.314 -12.703 7.355 C-11.77 4.23 -10.37 2.222 -8 0 C-4.991 -1.505 -3.206 -0.88 0 0 Z " fill="#000000" transform="translate(576,253)"/>
<path d="M0 0 C0.99 0 1.98 0 3 0 C3.051 6.923 3.086 13.847 3.11 20.77 C3.12 23.126 3.134 25.483 3.151 27.839 C3.175 31.222 3.186 34.605 3.195 37.988 C3.206 39.045 3.216 40.101 3.227 41.189 C3.227 42.17 3.227 43.151 3.227 44.161 C3.231 45.025 3.236 45.889 3.241 46.779 C3 49 3 49 1 52 C0.67 34.84 0.34 17.68 0 0 Z " fill="#000000" transform="translate(683,253)"/>
<path d="M0 0 C3.758 1.465 3.758 1.465 4.821 3.818 C5.91 9.546 6.266 15.022 6.195 20.848 C6.192 21.745 6.19 22.642 6.187 23.567 C6.176 26.399 6.151 29.231 6.125 32.062 C6.115 33.997 6.106 35.931 6.098 37.865 C6.076 42.577 6.041 47.288 6 52 C5.01 52.495 5.01 52.495 4 53 C3.951 51.889 3.902 50.778 3.852 49.633 C3.776 48.13 3.701 46.628 3.625 45.125 C3.594 44.398 3.563 43.671 3.531 42.922 C3.321 38.934 2.873 35.18 2 31.281 C0.666 25.017 0.546 18.76 0.375 12.375 C0.336 11.18 0.298 9.985 0.258 8.754 C0.164 5.836 0.079 2.918 0 0 Z " fill="#000000" transform="translate(671,254)"/>
<path d="M0 0 C3.398 2.955 3.867 5.261 4.203 9.656 C4.219 10.595 4.234 11.533 4.25 12.5 C4.276 13.438 4.302 14.377 4.328 15.344 C3.95 18.402 3.031 19.734 1 22 C0.203 14.64 -0.129 7.402 0 0 Z " fill="#000000" transform="translate(696,260)"/>
<path d="M0 0 C0 1.32 0 2.64 0 4 C-1.108 4.22 -1.108 4.22 -2.238 4.445 C-10.006 6.163 -16.181 8.974 -23 13 C-24.327 13.679 -25.658 14.351 -27 15 C-24.028 10.846 -20.987 8.441 -16.625 5.812 C-15.524 5.138 -14.423 4.464 -13.289 3.77 C-8.703 1.302 -5.226 0 0 0 Z " fill="#000000" transform="translate(265,269)"/>
<path d="M0 0 C0 0.99 0 1.98 0 3 C-1.303 3.454 -1.303 3.454 -2.633 3.918 C-10.151 6.651 -15.211 9.075 -20.75 14.812 C-22 16 -22 16 -24 16 C-21.959 9.621 -17.417 6.611 -12 3 C-3.099 -1.549 -3.099 -1.549 0 0 Z " fill="#000000" transform="translate(264,277)"/>
<path d="M0 0 C1.32 0 2.64 0 4 0 C7.442 7.573 7.131 15.281 7.062 23.438 C7.058 24.455 7.053 25.473 7.049 26.521 C7.037 29.014 7.021 31.507 7 34 C6.34 33.67 5.68 33.34 5 33 C4.375 30.438 4.375 30.438 4 28 C3.67 30.97 3.34 33.94 3 37 C2.67 37 2.34 37 2 37 C1.01 18.685 1.01 18.685 0 0 Z M2 3 C2 4.65 2 6.3 2 8 C2.33 8 2.66 8 3 8 C3 6.35 3 4.7 3 3 C2.67 3 2.34 3 2 3 Z " fill="#000000" transform="translate(404,281)"/>
<path d="M0 0 C3 1 3 1 4 3 C4.386 6.133 4.514 9.286 4.688 12.438 C4.747 13.31 4.807 14.182 4.869 15.08 C4.916 15.919 4.963 16.757 5.012 17.621 C5.058 18.389 5.104 19.156 5.151 19.947 C5 22 5 22 3 25 C-0.175 16.957 -0.138 8.531 0 0 Z " fill="#000000" transform="translate(418,285)"/>
<path d="M0 0 C0.33 0 0.66 0 1 0 C1 10.23 1 20.46 1 31 C0.34 30.67 -0.32 30.34 -1 30 C-1.029 26.125 -1.047 22.25 -1.062 18.375 C-1.071 17.281 -1.079 16.186 -1.088 15.059 C-1.091 13.995 -1.094 12.932 -1.098 11.836 C-1.103 10.862 -1.108 9.888 -1.114 8.884 C-0.994 5.851 -0.559 2.981 0 0 Z " fill="#000000" transform="translate(371,312)"/>
<path d="M0 0 C0.66 0.33 1.32 0.66 2 1 C2 1.66 2 2.32 2 3 C0.546 3.697 -0.913 4.382 -2.375 5.062 C-3.187 5.445 -3.999 5.828 -4.836 6.223 C-5.55 6.479 -6.264 6.736 -7 7 C-7.66 6.67 -8.32 6.34 -9 6 C-3.375 1.125 -3.375 1.125 0 0 Z " fill="#000000" transform="translate(460,318)"/>
<path d="M0 0 C4.762 3.772 4.96 7.502 5.684 13.273 C7.19 31.02 7.19 31.02 3 38 C0.394 40.141 -1.022 40 -4.438 39.938 C-8.687 38.819 -10.297 37.418 -13 34 C-16.255 25.039 -14.771 10.486 -11 2 C-7.308 -1.57 -4.909 -1.315 0 0 Z " fill="#000000" transform="translate(573,329)"/>
<path d="M0 0 C3.625 0.438 3.625 0.438 5.773 2.371 C8.282 6.526 8.534 10.16 8.875 14.938 C8.948 15.824 9.021 16.71 9.096 17.623 C9.298 20.227 9.468 22.831 9.625 25.438 C9.672 26.143 9.718 26.848 9.767 27.574 C10.366 37.502 10.366 37.502 7.816 40.723 C4.751 43.121 2.484 43.37 -1.375 43.438 C-5.159 42.148 -6.193 40.741 -8.25 37.312 C-11.584 27.025 -8.7 12.379 -5.375 2.438 C-3.375 0.438 -3.375 0.438 0 0 Z " fill="#000000" transform="translate(525.375,328.5625)"/>
<path d="M0 0 C2.254 3.381 2.36 4.989 2.633 8.98 C2.717 10.144 2.8 11.307 2.887 12.506 C2.965 13.721 3.044 14.936 3.125 16.188 C3.211 17.414 3.298 18.641 3.387 19.904 C3.599 22.936 3.803 25.968 4 29 C3.01 29.33 2.02 29.66 1 30 C-0.099 26.703 -0.114 24.27 -0.098 20.801 C-0.094 19.592 -0.091 18.384 -0.088 17.139 C-0.08 15.876 -0.071 14.613 -0.062 13.312 C-0.056 11.401 -0.056 11.401 -0.049 9.451 C-0.037 6.301 -0.021 3.15 0 0 Z " fill="#000000" transform="translate(320,333)"/>
<path d="M0 0 C1.32 0.66 2.64 1.32 4 2 C3.487 16.396 2.509 30.674 1 45 C0.67 45 0.34 45 0 45 C-1.095 29.921 -0.822 15.091 0 0 Z " fill="#000000" transform="translate(287,352)"/>
<path d="M0 0 C1.32 0.33 2.64 0.66 4 1 C3.86 5.292 3.712 9.583 3.562 13.875 C3.523 15.079 3.484 16.283 3.443 17.523 C3.201 24.385 2.803 31.18 2 38 C1.67 38 1.34 38 1 38 C-0.248 25.342 -0.102 12.705 0 0 Z " fill="#000000" transform="translate(292,356)"/>
<path d="M0 0 C4.918 8.897 3.103 21.117 3 31 C2.67 31 2.34 31 2 31 C1.664 26.771 1.331 22.542 1 18.312 C0.905 17.114 0.809 15.916 0.711 14.682 C0.621 13.525 0.53 12.368 0.438 11.176 C0.312 9.581 0.312 9.581 0.184 7.954 C0.018 5.292 -0.034 2.666 0 0 Z " fill="#000000" transform="translate(277,361)"/>
<path d="M0 0 C0.99 0 1.98 0 3 0 C3.995 7.387 4.118 14.616 4.062 22.062 C4.058 23.214 4.053 24.366 4.049 25.553 C4.037 28.369 4.021 31.184 4 34 C-1.35 28.65 -0.284 17.07 -0.688 9.812 C-0.76 8.537 -0.76 8.537 -0.834 7.237 C-0.934 5.159 -0.972 3.079 -1 1 C-0.67 0.67 -0.34 0.34 0 0 Z " fill="#000000" transform="translate(268,362)"/>
<path d="M0 0 C1.744 -0.017 1.744 -0.017 3.523 -0.035 C14.155 0.001 14.155 0.001 19 3.375 C22.91 7.393 24.91 11.188 25.07 16.852 C24.599 26.698 20.594 34.216 14 41.375 C12.35 41.045 10.7 40.715 9 40.375 C9.495 39.385 9.495 39.385 10 38.375 C10.66 38.375 11.32 38.375 12 38.375 C16.617 29.412 20.341 20.061 17.27 9.977 C15.888 6.854 14.681 4.856 11.875 2.875 C7.545 2.122 3.381 2.19 -1 2.375 C-1.866 2.381 -2.733 2.388 -3.625 2.395 C-9.297 2.628 -12.467 3.819 -16.625 7.707 C-19.819 11.582 -20.562 15.019 -20.441 19.953 C-19.609 24.518 -16.78 27.771 -14 31.375 C-12.676 33.158 -11.364 34.95 -10.062 36.75 C-9.455 37.562 -8.848 38.374 -8.223 39.211 C-7.819 39.925 -7.416 40.639 -7 41.375 C-7.33 42.365 -7.66 43.355 -8 44.375 C-9.247 44.557 -9.247 44.557 -10.52 44.742 C-12.15 44.994 -12.15 44.994 -13.812 45.25 C-14.891 45.412 -15.97 45.575 -17.082 45.742 C-20.173 46.226 -20.173 46.226 -23 48.375 C-24.071 55.738 -21.297 60.915 -18 67.375 C-17.523 68.341 -17.046 69.306 -16.555 70.301 C-15.384 72.666 -14.199 75.023 -13 77.375 C-13.99 77.87 -13.99 77.87 -15 78.375 C-18.61 77.172 -18.764 76.496 -20.445 73.227 C-21.101 71.966 -21.101 71.966 -21.77 70.68 C-22.217 69.795 -22.664 68.911 -23.125 68 C-23.58 67.123 -24.035 66.247 -24.504 65.344 C-27.501 59.527 -29.697 55.111 -29 48.375 C-26.117 44.885 -23.949 42.612 -19.398 42.059 C-18.401 41.977 -17.403 41.896 -16.375 41.812 C-15.372 41.729 -14.369 41.645 -13.336 41.559 C-12.565 41.498 -11.794 41.437 -11 41.375 C-11.424 40.997 -11.848 40.62 -12.285 40.23 C-18.823 34.095 -25.277 26.615 -26 17.375 C-25.056 12.004 -22.934 7.196 -19 3.375 C-13.138 -0.684 -6.845 -0.068 0 0 Z " fill="#000000" transform="translate(181,389.625)"/>
<path d="M0 0 C4.635 4.885 5.125 8.492 5.098 15.074 C5.096 15.758 5.095 16.442 5.093 17.146 C5.088 19.327 5.075 21.507 5.062 23.688 C5.057 25.167 5.053 26.647 5.049 28.127 C5.038 31.751 5.021 35.376 5 39 C3.748 39.509 2.492 40.009 1.234 40.504 C0.535 40.783 -0.164 41.062 -0.884 41.35 C-4.226 42.377 -6.684 41.957 -10 41 C-14.01 38.182 -15.131 34.657 -16 30 C-16.278 26.329 -16.28 22.68 -16.25 19 C-16.258 18.041 -16.265 17.082 -16.273 16.094 C-16.259 10.716 -16.072 6.001 -14 1 C-9.724 -2.477 -4.747 -2.589 0 0 Z " fill="#000000" transform="translate(536,408)"/>
<path d="M0 0 C0.791 0 1.583 0 2.398 0 C9.035 0.065 16.269 0.166 22.312 3.188 C22.64 5.344 22.871 7.515 23.062 9.688 C24.341 21.286 28.255 32.698 34.43 42.621 C35.312 44.188 35.312 44.188 35.312 46.188 C34.182 46.172 34.182 46.172 33.028 46.156 C10.16 45.881 -10.384 47.852 -32.606 52.887 C-33.314 53.045 -34.021 53.202 -34.75 53.365 C-36.703 53.801 -38.653 54.245 -40.603 54.69 C-43.688 55.188 -43.688 55.188 -46.688 54.188 C-45.543 52.374 -44.397 50.562 -43.25 48.75 C-42.612 47.741 -41.974 46.731 -41.316 45.691 C-39.688 43.188 -39.688 43.188 -38.688 42.188 C-36.476 41.746 -34.253 41.359 -32.027 40.996 C-31.363 40.887 -30.698 40.777 -30.014 40.664 C-27.885 40.314 -25.755 39.969 -23.625 39.625 C-22.184 39.389 -20.743 39.153 -19.303 38.916 C-15.765 38.336 -12.226 37.76 -8.688 37.188 C-8.688 36.528 -8.688 35.868 -8.688 35.188 C-9.955 35.392 -11.222 35.597 -12.527 35.809 C-14.227 36.081 -15.926 36.353 -17.625 36.625 C-18.456 36.76 -19.287 36.894 -20.143 37.033 C-25.647 37.911 -31.143 38.611 -36.688 39.188 C-35.979 37.553 -35.245 35.93 -34.5 34.312 C-34.094 33.408 -33.688 32.503 -33.27 31.57 C-31.379 28.723 -29.915 28.131 -26.688 27.188 C-27.678 26.858 -28.668 26.527 -29.688 26.188 C-27.564 22.583 -25.438 18.979 -23.312 15.375 C-22.709 14.351 -22.106 13.327 -21.484 12.271 C-20.904 11.289 -20.324 10.306 -19.727 9.293 C-19.192 8.387 -18.658 7.481 -18.108 6.548 C-14.918 1.248 -14.918 1.248 -12.105 0.512 C-8.057 0.128 -4.065 -0.004 0 0 Z " fill="#000000" transform="translate(472.6875,424.8125)"/>
<path d="M0 0 C-1.435 3.209 -2.874 6.417 -4.312 9.625 C-4.717 10.529 -5.121 11.432 -5.537 12.363 C-6.682 14.913 -7.838 17.458 -9 20 C-9.536 21.176 -10.072 22.351 -10.625 23.562 C-12 26 -12 26 -14.688 27.375 C-15.832 27.684 -15.832 27.684 -17 28 C-15.68 28.33 -14.36 28.66 -13 29 C-14.217 32.438 -15.558 35.268 -18 38 C-21.967 39.377 -25.819 39.793 -30 40 C-30 40.66 -30 41.32 -30 42 C-29.34 41.67 -28.68 41.34 -28 41 C-25.328 40.866 -22.677 40.957 -20 41 C-20.657 42.782 -21.352 44.551 -22.062 46.312 C-22.445 47.299 -22.828 48.285 -23.223 49.301 C-25.556 52.844 -28.11 53.771 -32 55 C-33.207 55.39 -33.207 55.39 -34.438 55.788 C-37.136 56.627 -39.845 57.413 -42.562 58.188 C-43.482 58.46 -44.402 58.733 -45.35 59.014 C-50.012 60.351 -54.096 61.367 -59 61 C-61.937 52.971 -62.205 45.337 -62.25 36.875 C-62.271 35.899 -62.291 34.923 -62.312 33.918 C-62.346 27.717 -61.891 24.032 -57.484 19.41 C-43.947 8.891 -17.095 -0.203 0 0 Z M-26 29 C-22 30 -22 30 -22 30 Z " fill="#000000" transform="translate(447,428)"/>
<path d="M0 0 C2.475 0.495 2.475 0.495 5 1 C6.943 6.584 7.127 11.079 6.625 16.938 C6.568 17.717 6.512 18.496 6.453 19.299 C6.313 21.2 6.158 23.1 6 25 C3.456 23.242 2.167 21.742 1.482 18.701 C1.157 15.885 0.931 13.08 0.75 10.25 C0.673 9.266 0.595 8.283 0.516 7.27 C0.327 4.847 0.156 2.425 0 0 Z " fill="#000000" transform="translate(123,447)"/>
<path d="M0 0 C15.745 -0.369 15.745 -0.369 23 2 C23 2.99 23 3.98 23 5 C17.498 5.231 12.861 4.435 7.562 3 C6.831 2.809 6.099 2.618 5.346 2.422 C3.562 1.955 1.781 1.479 0 1 C0 0.67 0 0.34 0 0 Z " fill="#000000" transform="translate(489,484)"/>
<path d="M0 0 C3.914 3.914 4.125 10.215 4.125 15.562 C4.084 16.697 4.042 17.831 4 19 C3.01 19.33 2.02 19.66 1 20 C0.67 13.4 0.34 6.8 0 0 Z " fill="#000000" transform="translate(178,488)"/>
<path d="M0 0 C0.66 0.33 1.32 0.66 2 1 C3.377 7.706 2.991 14.282 2 21 C1.34 21 0.68 21 0 21 C-0.873 14.34 -1.408 7.721 -1 1 C-0.67 0.67 -0.34 0.34 0 0 Z " fill="#000000" transform="translate(188,488)"/>
<path d="M0 0 C2.062 -0.027 4.125 -0.046 6.188 -0.062 C7.336 -0.074 8.485 -0.086 9.668 -0.098 C12.593 -0.012 15.163 0.322 18 1 C17.67 2.32 17.34 3.64 17 5 C10.805 4.584 5.733 3.397 0 1 C0 0.67 0 0.34 0 0 Z " fill="#000000" transform="translate(479,489)"/>
<path d="M0 0 C4.1 0.387 6.114 1.783 9.312 4.312 C9.643 4.973 9.972 5.632 10.312 6.312 C9.322 6.973 8.333 7.632 7.312 8.312 C7.312 8.642 7.312 8.973 7.312 9.312 C2.29 9.608 -0.583 9.298 -4.688 6.312 C-3.63 0.422 -3.63 0.422 0 0 Z M-1.688 3.312 C-1.357 3.973 -1.028 4.632 -0.688 5.312 C1.292 5.312 3.273 5.312 5.312 5.312 C2.359 2.943 2.359 2.943 -1.688 3.312 Z " fill="#000000" transform="translate(236.6875,493.6875)"/>
<path d="M0 0 C2.153 0.305 4.307 0.608 6.461 0.91 C17.223 2.435 27.963 4.092 38.688 5.859 C39.661 6.019 40.634 6.178 41.637 6.343 C65.163 10.288 65.163 10.288 72.625 17.75 C72.625 18.74 72.625 19.73 72.625 20.75 C69.378 20.068 66.678 18.856 63.688 17.438 C58.341 15.205 53.181 13.903 47.488 12.875 C46.587 12.708 45.686 12.541 44.757 12.37 C33.375 10.294 21.954 8.451 10.524 6.658 C8.011 6.261 5.498 5.859 2.987 5.451 C-11.628 3.076 -25.968 1.245 -40.782 0.915 C-44.393 0.828 -47.825 0.471 -51.375 -0.25 C-51.375 -0.91 -51.375 -1.57 -51.375 -2.25 C-35.382 -6.748 -16.044 -2.369 0 0 Z " fill="#000000" transform="translate(438.375,500.25)"/>
<path d="M0 0 C0.773 0.076 1.547 0.152 2.344 0.23 C4.847 0.906 5.852 1.852 7.5 3.812 C7.17 4.803 6.84 5.793 6.5 6.812 C3.877 8.124 1.863 7.945 -1.062 7.938 C-2.054 7.94 -3.045 7.943 -4.066 7.945 C-6.5 7.812 -6.5 7.812 -7.5 6.812 C-7.75 4.375 -7.75 4.375 -7.5 1.812 C-4.241 -0.36 -3.679 -0.423 0 0 Z M-3.5 3.812 C-3.5 4.142 -3.5 4.473 -3.5 4.812 C-1.85 4.812 -0.2 4.812 1.5 4.812 C1.5 4.483 1.5 4.152 1.5 3.812 C-0.15 3.812 -1.8 3.812 -3.5 3.812 Z " fill="#000000" transform="translate(310.5,500.1875)"/>
<path d="M0 0 C6.712 0.709 13.384 1.591 20.062 2.562 C21.023 2.701 21.984 2.84 22.975 2.982 C25.317 3.32 27.658 3.66 30 4 C31.223 7.67 30.88 10.34 30.562 14.188 C30.461 15.46 30.359 16.732 30.254 18.043 C30.17 19.019 30.086 19.995 30 21 C23.958 22.566 18.739 21.022 12.75 19.75 C11.636 19.532 10.523 19.314 9.375 19.09 C8.318 18.869 7.261 18.649 6.172 18.422 C4.719 18.122 4.719 18.122 3.237 17.815 C2.499 17.546 1.761 17.277 1 17 C-0.187 13.44 -0.097 10.562 -0.062 6.812 C-0.053 5.54 -0.044 4.268 -0.035 2.957 C-0.024 1.981 -0.012 1.005 0 0 Z M4 4 C4 7.3 4 10.6 4 14 C6.894 14.673 9.79 15.339 12.688 16 C13.504 16.191 14.321 16.382 15.162 16.578 C15.958 16.759 16.754 16.939 17.574 17.125 C18.666 17.376 18.666 17.376 19.78 17.633 C22.447 18.136 22.447 18.136 27 18 C27 14.37 27 10.74 27 7 C19.362 5.025 11.867 4.425 4 4 Z " fill="#000000" transform="translate(240,512)"/>
<path d="M0 0 C4.853 4.159 6.321 8.205 6.938 14.375 C6.357 21.571 4.12 27.312 -1.25 32.25 C-5.908 35.894 -9.324 37.283 -15.312 37.188 C-19.843 36.424 -23.235 34.615 -26.375 31.25 C-29.578 25.833 -30.261 20.164 -28.871 14.023 C-27.132 8.08 -24.751 3.418 -19.367 -0.039 C-12.497 -3.558 -6.839 -3.546 0 0 Z M-19.375 4.25 C-20.035 6.23 -20.695 8.21 -21.375 10.25 C-21.045 10.58 -20.715 10.91 -20.375 11.25 C-18.725 11.25 -17.075 11.25 -15.375 11.25 C-15.375 17.52 -15.375 23.79 -15.375 30.25 C-13.395 30.25 -11.415 30.25 -9.375 30.25 C-9.375 24.31 -9.375 18.37 -9.375 12.25 C-6.735 12.58 -4.095 12.91 -1.375 13.25 C-0.019 12.125 -0.019 12.125 -0.312 9.188 C-0.333 8.218 -0.354 7.249 -0.375 6.25 C-2.416 5.911 -4.458 5.579 -6.5 5.25 C-7.637 5.064 -8.774 4.879 -9.945 4.688 C-13.136 4.28 -16.163 4.172 -19.375 4.25 Z " fill="#000000" transform="translate(336.375,514.75)"/>
<path d="M0 0 C4.706 0.706 4.706 0.706 6 2 C6.57 9.186 5.321 14.588 2 21 C1.34 21.66 0.68 22.32 0 23 C-3.297 22.67 -4.623 22.377 -7 20 C-6.881 13.466 -4.77 4.77 0 0 Z M1 3 C2 5 2 5 2 5 Z " fill="#000000" transform="translate(402,515)"/>
<path d="M0 0 C0.66 0 1.32 0 2 0 C1.67 1.98 1.34 3.96 1 6 C-0.32 6.33 -1.64 6.66 -3 7 C-2.387 4.038 -1.746 2.619 0 0 Z " fill="#000000" transform="translate(251,518)"/>
<path d="M0 0 C2.375 2.188 2.375 2.188 2.84 4.301 C3.074 10.319 2.018 16.252 -1.625 21.188 C-3.617 22.02 -3.617 22.02 -5.625 22.188 C-8 20.812 -8 20.812 -9.625 18.188 C-9.48 15.035 -8.573 12.184 -7.625 9.188 C-7.256 7.925 -7.256 7.925 -6.879 6.637 C-5.491 2.126 -5.491 2.126 -4.625 0.188 C-2.625 -0.812 -2.625 -0.812 0 0 Z M-2.625 3.188 C-1.625 6.188 -1.625 6.188 -1.625 6.188 Z " fill="#000000" transform="translate(422.625,517.8125)"/>
<path d="M0 0 C2.562 0.25 2.562 0.25 5 1 C7.184 5.369 6.683 11.681 5.328 16.281 C4.629 17.89 3.825 19.452 3 21 C0.273 21.221 -1.464 21.304 -3.875 19.938 C-5.688 16.816 -4.727 14.466 -4 11 C-3.85 10.212 -3.701 9.425 -3.547 8.613 C-2.283 2.283 -2.283 2.283 0 0 Z M1 3 C2 6 2 6 2 6 Z " fill="#000000" transform="translate(437,520)"/>
<path d="M0 0 C0.99 0 1.98 0 3 0 C2.67 1.65 2.34 3.3 2 5 C0.68 5 -0.64 5 -2 5 C-1.34 3.35 -0.68 1.7 0 0 Z " fill="#000000" transform="translate(259,521)"/>
<path d="M0 0 C2.5 0.125 2.5 0.125 5 1 C6.692 3.408 7.014 4.732 6.863 7.691 C6.682 8.639 6.5 9.586 6.312 10.562 C6.144 11.513 5.975 12.463 5.801 13.441 C4.962 16.122 4.145 17.245 2 19 C-2.608 17.545 -2.608 17.545 -4.242 15.273 C-5.264 12.209 -4.661 10.448 -3.75 7.375 C-3.34 5.933 -3.34 5.933 -2.922 4.461 C-2 2 -2 2 0 0 Z M1 4 C2 6 2 6 2 6 Z " fill="#000000" transform="translate(454,524)"/>
<path d="M0 0 C4.875 1.75 4.875 1.75 6 4 C5.984 6.242 5.984 6.242 5.75 8.875 C5.683 9.739 5.616 10.602 5.547 11.492 C4.929 14.324 3.879 15.828 2 18 C-1.261 17.438 -3.018 16.695 -5 14 C-4.961 11.406 -4.961 11.406 -4.375 8.5 C-4.197 7.541 -4.019 6.582 -3.836 5.594 C-2.97 2.907 -2.156 1.763 0 0 Z M0 4 C1 6 1 6 1 6 Z " fill="#000000" transform="translate(471,527)"/>
<path d="M0 0 C-0.33 1.32 -0.66 2.64 -1 4 C-18.713 8.188 -36.542 11.379 -54.5 14.312 C-55.571 14.489 -56.642 14.665 -57.746 14.847 C-80.035 18.506 -80.035 18.506 -90 19 C-86.412 15.12 -83.409 13.992 -78.312 13 C-77.543 12.84 -76.774 12.68 -75.981 12.514 C-63.534 10 -50.879 7.755 -38.238 6.508 C-34.093 6.072 -30.275 5.151 -26.25 4.062 C-17.652 1.812 -8.936 -0.196 0 0 Z " fill="#000000" transform="translate(614,528)"/>
<path d="M0 0 C0 0.33 0 0.66 0 1 C-0.634 1.094 -1.269 1.187 -1.922 1.284 C-8.624 2.272 -15.326 3.262 -22.028 4.253 C-24.517 4.621 -27.006 4.989 -29.495 5.356 C-33.108 5.889 -36.72 6.423 -40.332 6.957 C-42.101 7.218 -42.101 7.218 -43.906 7.484 C-49.172 8.264 -54.433 9.06 -59.685 9.931 C-60.542 10.072 -61.399 10.214 -62.281 10.359 C-63.818 10.615 -65.354 10.877 -66.888 11.146 C-71.977 11.994 -76.84 12.1 -82 12 C-80.633 8.825 -80.108 8.065 -77 6.188 C-76.01 5.796 -75.02 5.404 -74 5 C-73.34 5.33 -72.68 5.66 -72 6 C-72.99 7.32 -73.98 8.64 -75 10 C-74.395 9.844 -73.789 9.689 -73.165 9.529 C-14.258 -5.461 -14.258 -5.461 0 0 Z " fill="#000000" transform="translate(611,545)"/>
<path d="M0 0 C0.99 1.485 0.99 1.485 2 3 C-0.332 3.465 -2.665 3.922 -5 4.375 C-5.629 4.501 -6.258 4.628 -6.906 4.758 C-11.745 5.688 -16.587 6.329 -21.48 6.91 C-30.901 8.038 -40.196 9.747 -49.523 11.471 C-57.993 13.03 -66.391 14.454 -75 15 C-64.666 6.464 -47.752 6.183 -35 4.312 C-31.929 3.852 -28.858 3.389 -25.787 2.926 C-23.89 2.641 -21.992 2.358 -20.094 2.078 C-4.203 -0.276 -4.203 -0.276 0 0 Z " fill="#000000" transform="translate(603,553)"/>
<path d="M0 0 C2.188 0 2.188 0 5 1 C6.962 3.508 8.499 6.196 10 9 C10.433 8.216 10.866 7.433 11.312 6.625 C13 4 13 4 16 2 C19.736 2.079 21.446 2.478 24.188 5.062 C26.382 8.62 27.659 12.043 29 16 C30.32 14.02 31.64 12.04 33 10 C35.475 10.495 35.475 10.495 38 11 C39.193 14.877 40 17.916 40 22 C40.742 21.505 41.485 21.01 42.25 20.5 C45 19 45 19 49 19 C49.981 21.942 50.165 23.991 50.188 27.062 C50.202 27.94 50.216 28.818 50.23 29.723 C50 32 50 32 48 34 C47.34 30.37 46.68 26.74 46 23 C43.69 25.64 41.38 28.28 39 31 C38.34 30.67 37.68 30.34 37 30 C36.688 27.286 36.487 24.661 36.375 21.938 C36.317 20.8 36.317 20.8 36.258 19.639 C36.163 17.76 36.081 15.88 36 14 C35.34 14 34.68 14 34 14 C32.548 17.578 31.188 21.181 29.875 24.812 C29.522 25.788 29.169 26.764 28.805 27.77 C28.539 28.506 28.274 29.242 28 30 C27.01 29.67 26.02 29.34 25 29 C25.035 28.227 25.07 27.453 25.105 26.656 C25.279 19.972 24.912 15.048 22 9 C21.34 8.34 20.68 7.68 20 7 C16.836 7.105 15.951 8.052 13.75 10.375 C11.723 12.89 11.723 12.89 12 16 C11.34 16 10.68 16 10 16 C9.67 18.97 9.34 21.94 9 25 C8.01 24.67 7.02 24.34 6 24 C6.035 23.383 6.07 22.765 6.105 22.129 C6.307 15.815 5.372 10.846 3 5 C2.34 5 1.68 5 1 5 C-0.32 9.29 -1.64 13.58 -3 18 C-3.66 18 -4.32 18 -5 18 C-4.59 5.33 -4.59 5.33 0 0 Z " fill="#000000" transform="translate(686,560)"/>
<path d="M0 0 C-2.453 2.453 -3.348 2.332 -6.738 2.605 C-8.278 2.745 -8.278 2.745 -9.849 2.887 C-10.992 2.986 -12.135 3.085 -13.312 3.188 C-28.972 4.681 -44.452 7.153 -59.976 9.663 C-61.41 9.893 -61.41 9.893 -62.873 10.128 C-64.679 10.418 -66.484 10.711 -68.288 11.009 C-72.232 11.644 -75.989 12.187 -80 12 C-80 11.01 -80 10.02 -80 9 C-77.688 7.25 -77.688 7.25 -75 6 C-74.01 6.33 -73.02 6.66 -72 7 C-72.66 7.66 -73.32 8.32 -74 9 C-68.486 8.613 -63.536 7.653 -58.219 6.129 C-50.626 4.036 -43.009 2.646 -35.221 1.507 C-33.064 1.188 -30.912 0.842 -28.76 0.494 C-18.981 -1.004 -9.835 -1.003 0 0 Z " fill="#000000" transform="translate(608,569)"/>
<path d="M0 0 C-0.562 2.312 -0.562 2.312 -2 5 C-6.003 7.322 -7.931 8.045 -12.613 7.848 C-17.897 7.774 -22.22 9.685 -27.062 11.625 C-51.938 21.079 -78.002 25.487 -104.25 29.312 C-106.008 29.57 -106.008 29.57 -107.802 29.833 C-113.251 30.597 -118.496 31.215 -124 31 C-121.39 28.39 -119.497 28.3 -115.887 27.578 C-114.621 27.321 -113.356 27.064 -112.052 26.799 C-110.702 26.532 -109.351 26.266 -108 26 C-106.045 25.607 -104.09 25.215 -102.134 24.822 C-100.795 24.553 -99.455 24.284 -98.116 24.016 C-76.287 19.65 -54.599 14.776 -33.438 7.777 C-29.099 6.395 -25.638 5.934 -21.029 6.097 C-17.167 5.912 -13.695 4.39 -10.125 3 C-2.179 0 -2.179 0 0 0 Z " fill="#000000" transform="translate(657,579)"/>
<path d="M0 0 C7.02 -0.378 13.742 0.109 20.66 1.23 C21.481 1.362 22.302 1.494 23.148 1.63 C31.845 3.071 40.437 4.941 49.029 6.907 C51.657 7.507 54.287 8.096 56.918 8.684 C58.625 9.07 60.332 9.456 62.039 9.844 C62.808 10.016 63.577 10.188 64.369 10.365 C68.265 11.263 72.112 12.274 75.935 13.447 C77.032 13.784 77.032 13.784 78.151 14.127 C80 15 80 15 82 18 C78.301 19.317 75.662 18.685 71.893 17.784 C70.657 17.493 69.421 17.203 68.148 16.903 C66.799 16.576 65.45 16.249 64.102 15.922 C62.706 15.59 61.31 15.26 59.915 14.93 C56.232 14.058 52.553 13.175 48.873 12.29 C44.452 11.228 40.027 10.177 35.603 9.126 C32.148 8.305 28.694 7.482 25.241 6.653 C16.851 4.644 8.444 2.769 0 1 C0 0.67 0 0.34 0 0 Z " fill="#000000" transform="translate(669,596)"/>
<path d="M0 0 C7.468 1.619 14.882 3.426 22.297 5.273 C23.595 5.596 24.894 5.919 26.192 6.242 C30.379 7.284 34.564 8.329 38.75 9.375 C39.466 9.554 40.183 9.733 40.921 9.917 C59.46 14.548 77.982 19.232 96.438 24.188 C97.32 24.424 98.202 24.661 99.111 24.905 C103.562 26.102 108.012 27.302 112.461 28.504 C153.6 39.62 194.694 50.062 236.461 58.552 C267.256 64.825 267.256 64.825 274.5 68.75 C289.742 76.836 307.083 80.642 323.698 84.909 C340.87 89.33 357.906 94.201 374.938 99.125 C375.64 99.328 376.343 99.531 377.067 99.741 C385.609 102.21 394.149 104.688 402.688 107.168 C408.874 108.965 415.062 110.753 421.25 112.539 C426.342 114.009 431.433 115.483 436.523 116.957 C438.903 117.646 441.283 118.334 443.664 119.022 C446.946 119.97 450.227 120.922 453.508 121.875 C454.46 122.149 455.412 122.423 456.393 122.706 C461.698 124.252 466.852 125.992 472 128 C468.163 129.279 465.756 128.254 462.055 127.078 C461.35 126.863 460.645 126.647 459.919 126.425 C458.382 125.955 456.845 125.481 455.309 125.004 C451.11 123.703 446.901 122.434 442.691 121.168 C441.372 120.771 441.372 120.771 440.025 120.366 C430.672 117.572 421.25 115.054 411.812 112.562 C397.542 108.785 383.316 104.878 369.125 100.812 C368.239 100.559 367.353 100.305 366.441 100.044 C354.66 96.666 342.911 93.194 331.175 89.662 C323.914 87.502 316.611 85.604 309.25 83.812 C298.512 81.196 287.852 78.575 278 73.438 C272.085 70.683 266.13 69.812 259.741 68.787 C199.811 59.111 141.255 42.841 82.873 26.515 C72.307 23.563 61.737 20.641 51.129 17.848 C50.2 17.602 49.271 17.357 48.313 17.104 C44.046 15.978 39.776 14.862 35.501 13.763 C27.38 11.649 19.437 9.23 11.543 6.375 C10.732 6.086 9.922 5.796 9.087 5.498 C8.334 5.218 7.581 4.937 6.805 4.648 C6.142 4.403 5.478 4.157 4.794 3.904 C2.776 2.887 1.507 1.668 0 0 Z " fill="#000000" transform="translate(104,621)"/>
<path d="M0 0 C7.673 -0.507 14.486 1.378 21.875 3.312 C23.091 3.621 24.306 3.93 25.559 4.248 C32.423 6.007 39.234 7.893 46 10 C46 9.34 46 8.68 46 8 C57.22 8.438 67.985 9.832 79 12 C79.268 11.366 79.536 10.732 79.812 10.078 C81 8 81 8 84 6.75 C97.474 3.738 113.973 7.658 126 14 C126.99 14.495 126.99 14.495 128 15 C127.625 17.438 127.625 17.438 127 20 C124.202 21.399 121.911 21.094 118.785 21.062 C117.542 21.055 116.299 21.047 115.018 21.039 C112.385 21.013 109.752 20.987 107.119 20.961 C105.875 20.953 104.63 20.945 103.348 20.938 C102.203 20.926 101.058 20.914 99.879 20.902 C96.929 20.866 96.929 20.866 94 22 C62.24 23.289 29.851 10.6 0 1 C0 0.67 0 0.34 0 0 Z M84 9 C84.654 12.097 84.654 12.097 86.941 13.062 C97.493 16.837 110.717 20.769 122 19 C122.99 18.34 123.98 17.68 125 17 C116.186 11.749 93.995 4.003 84 9 Z M49 10 C51.503 12.503 53.2 12.693 56.637 13.473 C57.772 13.732 58.907 13.992 60.076 14.26 C61.864 14.657 61.864 14.657 63.688 15.062 C65.446 15.466 65.446 15.466 67.24 15.877 C77.978 18.344 77.978 18.344 88.938 19.062 C90.096 19.049 90.096 19.049 91.277 19.035 C91.846 19.024 92.414 19.012 93 19 C89.161 16.68 84.966 16.07 80.621 15.273 C79.813 15.121 79.004 14.968 78.171 14.811 C76.466 14.491 74.761 14.173 73.055 13.858 C70.442 13.376 67.831 12.884 65.221 12.391 C63.563 12.08 61.904 11.77 60.246 11.461 C59.465 11.314 58.683 11.167 57.879 11.016 C54.874 10.464 52.062 10 49 10 Z " fill="#000000" transform="translate(215,640)"/>
<path d="M0 0 C1.938 0.375 1.938 0.375 4 1 C5.478 3.957 5.06 6.742 5 10 C4.01 9.67 3.02 9.34 2 9 C2 7.68 2 6.36 2 5 C-0.475 6.485 -0.475 6.485 -3 8 C-3.66 6.35 -4.32 4.7 -5 3 C-4.01 3.33 -3.02 3.66 -2 4 C-1.34 2.68 -0.68 1.36 0 0 Z " fill="#000000" transform="translate(106,642)"/>
<path d="M0 0 C3.059 3.059 3.19 5.988 3.25 10.125 C3.195 13.121 2.958 15.127 2 18 C1.34 18 0.68 18 0 18 C0.023 17.325 0.046 16.649 0.07 15.953 C0.088 15.061 0.106 14.169 0.125 13.25 C0.148 12.368 0.171 11.487 0.195 10.578 C-0.009 7.886 -0.634 6.301 -2 4 C-6.119 5.454 -9.389 7.567 -13 10 C-13.99 10.33 -14.98 10.66 -16 11 C-15.25 4.25 -15.25 4.25 -13 2 C-12.67 3.65 -12.34 5.3 -12 7 C-11.752 6.402 -11.505 5.804 -11.25 5.188 C-8.563 0.486 -5.353 -0.911 0 0 Z " fill="#000000" transform="translate(170,656)"/>
<path d="M0 0 C4.261 3.971 5.763 7.376 7 13 C7.598 12.237 8.196 11.474 8.812 10.688 C9.534 9.801 10.256 8.914 11 8 C11.474 7.402 11.949 6.804 12.438 6.188 C14 5 14 5 16.312 4.375 C21.488 5.579 24.184 10.777 27 15 C27.846 14.154 28.691 13.309 29.562 12.438 C32.274 10.188 32.874 10.004 36.625 9.875 C40.568 11.189 41.859 12.489 44 16 C44 16.66 44 17.32 44 18 C45.031 17.753 46.062 17.505 47.125 17.25 C51 17 51 17 54.25 18.5 C57.599 21.544 58.536 23.771 60 28 C57 27 57 27 55.062 24.438 C54.382 23.633 53.701 22.829 53 22 C51.68 22 50.36 22 49 22 C48.752 23.279 48.505 24.558 48.25 25.875 C47.295 29.792 47.295 29.792 44.875 31.5 C43.947 31.747 43.947 31.747 43 32 C41.362 28.256 39.853 24.566 38.562 20.688 C37.566 17.947 37.288 17.197 34.812 15.5 C34.214 15.335 33.616 15.17 33 15 C31.493 19.723 30.663 24.141 30.246 29.082 C30 31 30 31 29 33 C27.68 32.67 26.36 32.34 25 32 C24.746 30.915 24.492 29.829 24.23 28.711 C23.883 27.266 23.536 25.82 23.188 24.375 C23.022 23.662 22.856 22.949 22.686 22.215 C21.613 17.803 20.207 14.009 18 10 C16.006 10.505 16.006 10.505 14 12 C12.784 14.994 11.875 17.925 11.021 21.033 C10.441 22.91 10.441 22.91 9 26 C6.34 26.934 6.34 26.934 4 27 C3.89 25.998 3.781 24.997 3.668 23.965 C2.684 14.088 2.684 14.088 -1 5 C-1.99 4.67 -2.98 4.34 -4 4 C-4.248 4.66 -4.495 5.32 -4.75 6 C-6.318 9.764 -8.145 13.371 -10 17 C-10.99 17 -11.98 17 -13 17 C-12.71 10.605 -11.648 6.307 -8 1 C-5.074 -0.463 -3.244 -0.445 0 0 Z " fill="#000000" transform="translate(206,671)"/>
<path d="M0 0 C-4.529 1.425 -9.018 0.977 -13.711 0.84 C-17.148 1.007 -19.802 1.768 -23 3 C-21.418 3.649 -19.834 4.294 -18.25 4.938 C-17.368 5.297 -16.487 5.657 -15.578 6.027 C-10.951 7.773 -7.228 8.112 -2.25 8.062 C-1.08 8.053 0.091 8.044 1.297 8.035 C2.189 8.024 3.081 8.012 4 8 C3.67 8.66 3.34 9.32 3 10 C-5.578 12.859 -15.68 11.045 -24 8 C-26.344 6.395 -26.344 6.395 -28 5 C-27.75 3.125 -27.75 3.125 -27 1 C-20.702 -3.602 -6.474 -3.909 0 0 Z " fill="#000000" transform="translate(660,682)"/>
<path d="M0 0 C0.66 0 1.32 0 2 0 C2.33 1.65 2.66 3.3 3 5 C5.31 5.66 7.62 6.32 10 7 C8.35 5.02 6.7 3.04 5 1 C10.75 1.75 10.75 1.75 13 4 C12.625 6.125 12.625 6.125 12 8 C6.606 8.274 3.481 8.361 -1 5 C-0.67 3.35 -0.34 1.7 0 0 Z " fill="#000000" transform="translate(668,682)"/>
<path d="M0 0 C1.09 0.151 1.09 0.151 2.201 0.306 C7.179 1.183 9.652 2.981 12.875 6.812 C9.288 8.107 7.502 7.495 4.062 6 C-8.216 1.3 -21.178 1.527 -34.125 1.812 C-31.469 5.051 -28.349 6.129 -24.5 7.625 C-23.844 7.882 -23.188 8.139 -22.512 8.404 C-18.242 10.059 -13.935 11.585 -9.603 13.069 C14.315 21.277 14.315 21.277 20.75 30.5 C21.875 32.812 21.875 32.812 21.875 34.812 C5.193 43.154 -25.213 35.005 -42.493 31.49 C-44.088 31.166 -44.088 31.166 -45.715 30.836 C-46.662 30.639 -47.61 30.442 -48.586 30.24 C-51.353 29.702 -51.353 29.702 -55.125 29.812 C-54.597 29.998 -54.068 30.184 -53.524 30.376 C-31.064 38.324 -31.064 38.324 -27.125 41.812 C-26.344 43.852 -26.344 43.852 -26.125 45.812 C-27.634 48.076 -28.728 48.711 -31.361 49.382 C-59.562 53.776 -99.16 48.67 -123.781 33.137 C-130.01 28.542 -130.01 28.542 -130.5 25.438 C-130.125 22.812 -130.125 22.812 -127.938 21.062 C-115.576 15.569 -99.117 19.349 -86.125 20.812 C-85.928 19.854 -85.928 19.854 -85.727 18.876 C-85.125 16.812 -85.125 16.812 -83.488 15.801 C-82.812 15.578 -82.135 15.355 -81.438 15.125 C-80.774 14.894 -80.11 14.664 -79.426 14.426 C-69.084 11.669 -59.024 12.351 -48.688 14.625 C-47.552 14.873 -47.552 14.873 -46.394 15.126 C-38.686 16.942 -33.903 19.489 -29.125 25.812 C-30.115 26.803 -31.105 27.793 -32.125 28.812 C-16.3 33.618 0.477 33.351 16.875 33.812 C11.071 23.763 -0.649 20.86 -10.98 16.832 C-15.709 14.987 -20.4 13.068 -25.062 11.062 C-26.028 10.658 -26.028 10.658 -27.012 10.246 C-30.875 8.57 -33.955 6.579 -37.125 3.812 C-36.812 1.875 -36.812 1.875 -36.125 -0.188 C-25.492 -3.732 -10.936 -1.68 0 0 Z M-82.125 17.812 C-81.284 20.035 -81.284 20.035 -78.852 20.777 C-56.248 27.982 -56.248 27.982 -33.777 26.824 C-33.232 26.49 -32.687 26.156 -32.125 25.812 C-44.321 15.649 -59.874 14.87 -75.095 15.583 C-77.672 15.874 -79.82 16.639 -82.125 17.812 Z M-126.125 22.812 C-108.424 41.775 -71.654 45.778 -46.998 46.91 C-41.245 47.077 -35.75 47.11 -30.125 45.812 C-30.125 45.153 -30.125 44.492 -30.125 43.812 C-53.771 30.055 -99.032 14.931 -126.125 22.812 Z M-84.125 43.812 C-80.125 44.812 -80.125 44.812 -80.125 44.812 Z M-79.125 44.812 C-75.125 45.812 -75.125 45.812 -75.125 45.812 Z " fill="#000000" transform="translate(600.125,676.1875)"/>
<path d="M0 0 C2.844 3.669 3.167 6.409 2.688 10.875 C2.476 12.253 2.253 13.629 2 15 C1.67 15 1.34 15 1 15 C0.867 14.397 0.734 13.793 0.598 13.172 C0.421 12.373 0.244 11.573 0.062 10.75 C-0.112 9.961 -0.286 9.172 -0.465 8.359 C-0.948 6.231 -1.462 4.115 -2 2 C-3.32 2 -4.64 2 -6 2 C-6.464 3.176 -6.464 3.176 -6.938 4.375 C-8 7 -8 7 -9 9 C-9.66 9 -10.32 9 -11 9 C-11.33 9.99 -11.66 10.98 -12 12 C-12.503 6.714 -11.269 4.134 -8 0 C-4.972 -1.514 -3.189 -0.976 0 0 Z " fill="#000000" transform="translate(336,705)"/>
<path d="M0 0 C0.66 0.33 1.32 0.66 2 1 C1.34 2.98 0.68 4.96 0 7 C-0.99 7 -1.98 7 -3 7 C-2.25 2.25 -2.25 2.25 0 0 Z " fill="#000000" transform="translate(383,723)"/>
<path d="M0 0 C0.66 0 1.32 0 2 0 C1.125 4.75 1.125 4.75 0 7 C-1.32 6.67 -2.64 6.34 -4 6 C-2.726 3.962 -1.389 1.961 0 0 Z " fill="#000000" transform="translate(389,725)"/>
</svg>
