<?xml version="1.0" encoding="UTF-8"?>
<!-- Generator: visioncortex VTracer 0.6.0 -->
<svg version="1.1" xmlns="http://www.w3.org/2000/svg" width="847" height="847">
<path d="M0 0 C7.086 0.446 14.411 1.202 21 4 C21.33 4.99 21.66 5.98 22 7 C21.01 8.485 21.01 8.485 20 10 C1.984 8.571 1.984 8.571 -2 4 C-1.34 2.68 -0.68 1.36 0 0 Z " fill="#000000" transform="translate(352,142)"/>
<path d="M0 0 C0 0.66 0 1.32 0 2 C-1.906 3.48 -1.906 3.48 -4.5 5.188 C-16.083 12.737 -16.083 12.737 -22.457 24.375 C-22.716 26.587 -22.901 28.776 -23 31 C-17.753 32.737 -13.257 33.284 -7.75 33.188 C-7.063 33.187 -6.376 33.186 -5.668 33.186 C-1.721 33.153 2.155 32.906 6.082 32.504 C12.523 31.885 18.947 31.779 25.415 31.76 C27.432 31.75 29.447 31.719 31.463 31.688 C46.327 31.629 61.899 34.932 73.125 45.438 C78.567 51.539 81.373 58.619 81.207 66.801 C80.497 74.346 77.047 79.812 72.523 85.738 C71.045 87.934 70.216 89.367 70 92 C72.228 94.479 72.228 94.479 75 97 C79.063 102.34 81.784 108.144 81 115 C80.34 115.66 79.68 116.32 79 117 C77 116.98 77 116.98 75 116 C73.875 113.488 73.875 113.488 73 110.312 C70.285 101.488 66.503 97.135 59 92 C60.417 87.49 62.654 85.27 66 82 C70.887 76.105 74.587 71.172 74.301 63.176 C73.416 56.773 70.799 52.268 65.812 48.188 C53.877 39.763 41.872 38.672 27.562 38.812 C26.317 38.813 25.071 38.814 23.787 38.814 C17.324 38.845 10.973 39.111 4.544 39.766 C0.467 40.141 -3.595 40.223 -7.688 40.25 C-8.477 40.271 -9.267 40.291 -10.08 40.312 C-16.644 40.356 -22.387 39.345 -27.438 34.812 C-30.276 29.703 -30.371 25.739 -29.188 20.188 C-26.679 14.202 -21.472 9.564 -17 5 C-46.314 3.963 -76.692 9.341 -99.105 29.883 C-101 31 -101 31 -103.738 30.68 C-104.485 30.455 -105.231 30.231 -106 30 C-106 26 -106 26 -104.742 24.359 C-77.424 0.813 -34.815 -7.115 0 0 Z " fill="#000000" transform="translate(329,158)"/>
<path d="M0 0 C0.99 0 1.98 0 3 0 C5.839 8.517 3.949 19.159 3.188 28 C3.117 28.896 3.047 29.791 2.975 30.714 C2.499 35.769 1.666 39.558 -1 44 C-1.66 44 -2.32 44 -3 44 C-6.921 35.177 -5 24.89 -4.125 15.562 C-4.047 14.698 -3.968 13.834 -3.888 12.943 C-2.86 2.86 -2.86 2.86 0 0 Z " fill="#000000" transform="translate(483,167)"/>
<path d="M0 0 C0.33 0 0.66 0 1 0 C0.643 10.712 -4.566 18.694 -10.001 27.605 C-31.9 60.383 -31.9 60.383 -43 97 C-42.042 96.201 -41.084 95.402 -40.098 94.578 C-23.283 80.662 -5.437 67.352 14.25 57.75 C14.87 57.438 15.49 57.125 16.129 56.803 C18.802 55.561 20.447 54.864 23.359 55.578 C25.408 57.353 25.625 58.342 26 61 C25.469 62.878 25.469 62.878 24.5 64.895 C24.124 65.684 23.747 66.474 23.359 67.288 C22.686 68.63 22.686 68.63 22 70 C21.49 71.02 20.979 72.04 20.453 73.091 C18.656 76.634 16.833 80.163 15 83.688 C14.671 84.322 14.342 84.956 14.004 85.61 C8.274 96.661 2.356 107.602 -3.638 118.512 C-5.865 122.579 -8.065 126.66 -10.25 130.75 C-10.633 131.46 -11.017 132.17 -11.412 132.901 C-13.347 136.264 -13.347 136.264 -14 140 C-13.35 139.674 -12.699 139.349 -12.029 139.013 C11.429 127.33 35.373 117.083 60.188 108.625 C61.31 108.237 62.432 107.85 63.588 107.45 C64.625 107.108 65.662 106.766 66.73 106.414 C67.632 106.115 68.533 105.815 69.462 105.506 C72.35 104.93 74.198 105.129 77 106 C79 108 79 108 79.273 110.809 C78.388 121.148 69.297 130.207 63 138 C62.479 138.647 61.958 139.294 61.422 139.96 C56.738 145.772 52.011 151.549 47.277 157.32 C46.088 158.771 46.088 158.771 44.875 160.25 C44.192 161.08 43.509 161.91 42.805 162.766 C41.153 164.81 39.561 166.886 38 169 C42.778 168.421 46.526 167.035 50.867 164.98 C51.825 164.531 51.825 164.531 52.802 164.072 C54.83 163.117 56.852 162.153 58.875 161.188 C60.225 160.551 61.575 159.915 62.926 159.279 C64.24 158.659 65.554 158.039 66.867 157.418 C67.819 156.968 67.819 156.968 68.79 156.51 C72.14 154.917 75.429 153.247 78.695 151.488 C82.155 149.93 82.645 149.891 86 151 C86.392 156.134 85.095 159.796 82.895 164.332 C82.573 165.009 82.252 165.686 81.922 166.384 C81.242 167.806 80.557 169.226 79.866 170.642 C78.812 172.813 77.791 174.998 76.771 177.186 C76.106 178.569 75.439 179.951 74.77 181.332 C74.467 181.986 74.165 182.64 73.853 183.314 C72.323 186.383 71.591 187.802 68.264 188.917 C67.517 188.944 66.77 188.972 66 189 C64.803 184.851 65.159 182.817 67.09 178.988 C67.544 178.066 67.999 177.144 68.467 176.193 C68.952 175.243 69.437 174.292 69.938 173.312 C70.887 171.414 71.834 169.515 72.777 167.613 C73.203 166.776 73.628 165.938 74.066 165.075 C75.137 163.075 75.137 163.075 75 161 C73.837 161.568 72.675 162.137 71.477 162.723 C63.171 166.744 54.839 170.619 46.25 174 C45.525 174.29 44.8 174.58 44.053 174.879 C39.726 176.545 35.668 177.669 31 178 C28.562 176.562 28.562 176.562 27 175 C27.443 170.072 29.958 167.06 33 163.375 C33.498 162.757 33.997 162.138 34.51 161.501 C35.998 159.66 37.498 157.829 39 156 C39.75 155.077 40.5 154.154 41.273 153.203 C44.006 149.851 46.749 146.509 49.509 143.18 C62.006 128.444 62.006 128.444 72 112 C41.429 123.02 10.835 134.797 -17.874 150.12 C-20.842 151.348 -23.005 151.025 -26 150 C-25.436 145.343 -24.149 141.806 -22.043 137.625 C-21.744 137.028 -21.446 136.43 -21.138 135.815 C-20.163 133.872 -19.176 131.936 -18.188 130 C-17.5 128.641 -16.814 127.282 -16.127 125.922 C-11.309 116.418 -6.3 107.027 -1.141 97.703 C2.725 90.714 6.485 83.668 10.25 76.625 C10.926 75.362 11.602 74.099 12.277 72.835 C13.852 69.891 15.427 66.946 17 64 C-3.807 75.255 -22.468 89.739 -40.71 104.711 C-41.355 105.24 -42 105.768 -42.664 106.312 C-43.236 106.783 -43.808 107.254 -44.397 107.738 C-45.875 108.901 -47.435 109.957 -49 111 C-51.688 110.625 -51.688 110.625 -54 110 C-55.37 105.889 -53.985 103.061 -52.625 99.125 C-52.355 98.332 -52.084 97.539 -51.806 96.722 C-42.043 68.782 -28.381 41.835 -12.75 16.75 C-12.279 15.988 -11.808 15.226 -11.323 14.441 C-8.013 9.228 -4.351 4.399 0 0 Z " fill="#000000" transform="translate(566,126)"/>
<path d="M0 0 C2.438 1.562 2.438 1.562 4 4 C4.563 7.94 4.604 10.058 2.438 13.438 C-0.942 15.604 -3.06 15.563 -7 15 C-9.438 13.438 -9.438 13.438 -11 11 C-11.563 7.06 -11.604 4.942 -9.438 1.562 C-6.058 -0.604 -3.94 -0.563 0 0 Z " fill="#000000" transform="translate(267,193)"/>
<path d="M0 0 C0.33 1.32 0.66 2.64 1 4 C-7.312 9.225 -7.312 9.225 -11.812 8.625 C-12.534 8.419 -13.256 8.213 -14 8 C-14.33 7.01 -14.66 6.02 -15 5 C-11.229 0.341 -5.747 -1.916 0 0 Z " fill="#000000" transform="translate(665,200)"/>
<path d="M0 0 C1.32 0 2.64 0 4 0 C10.587 14.552 16.568 29.31 22.375 44.188 C22.723 45.076 23.071 45.965 23.429 46.88 C27.196 56.513 30.894 66.13 34 76 C33.01 76.99 32.02 77.98 31 79 C28.418 78.014 27.221 77.383 25.818 74.954 C25.497 74.108 25.175 73.262 24.844 72.391 C24.279 70.939 24.279 70.939 23.702 69.459 C23.306 68.4 22.909 67.341 22.5 66.25 C21.619 63.974 20.738 61.698 19.855 59.422 C19.393 58.216 18.931 57.01 18.455 55.768 C16.224 49.967 13.902 44.202 11.587 38.434 C10.816 36.508 10.048 34.581 9.281 32.654 C7.121 27.234 4.946 21.824 2.648 16.461 C2.311 15.669 1.973 14.877 1.626 14.061 C1.024 12.659 0.413 11.261 -0.21 9.869 C-1.315 7.292 -2.052 5.455 -1.73 2.633 C-1 1 -1 1 0 0 Z " fill="#000000" transform="translate(187,216)"/>
<path d="M0 0 C4.714 0.143 6.87 2.357 9.934 5.605 C13.455 9.686 16.755 13.934 20.047 18.199 C21.985 20.708 23.951 23.188 25.953 25.645 C32.855 34.116 39.257 42.842 45.482 51.821 C47.538 54.773 49.622 57.704 51.706 60.636 C53.693 63.437 55.666 66.247 57.637 69.059 C58.521 70.318 59.409 71.574 60.301 72.828 C61.462 74.461 62.606 76.105 63.75 77.75 C64.384 78.652 65.018 79.555 65.672 80.484 C67.133 83.252 67.288 84.918 67 88 C65.25 88.75 65.25 88.75 63 89 C59.417 85.981 57.015 82.214 54.5 78.312 C41.21 58.065 26.915 38.43 11.468 19.776 C10.056 18.068 8.655 16.353 7.258 14.633 C3.292 9.671 3.292 9.671 -1 5 C-0.625 2.375 -0.625 2.375 0 0 Z " fill="#000000" transform="translate(129,227)"/>
<path d="M0 0 C5.222 0.301 8.367 1.153 12 5 C12.938 7.562 12.938 7.562 13 10 C12.01 11.485 12.01 11.485 11 13 C9.68 12.34 8.36 11.68 7 11 C7 10.34 7 9.68 7 9 C6.072 8.711 5.144 8.423 4.188 8.125 C1 7 1 7 -2 5 C-1.125 1.125 -1.125 1.125 0 0 Z " fill="#000000" transform="translate(360,227)"/>
<path d="M0 0 C3.577 0.421 4.992 1.736 7.199 4.492 C7.768 5.197 8.337 5.902 8.924 6.629 C9.797 7.741 9.797 7.741 10.688 8.875 C11.281 9.608 11.875 10.342 12.486 11.098 C16.856 16.569 16.856 16.569 18 20 C14.737 20.4 12.107 20.644 9.188 18.945 C4.822 15.34 0.706 11 -2 6 C-1.913 1.913 -1.913 1.913 0 0 Z " fill="#000000" transform="translate(483,238)"/>
<path d="M0 0 C-0.33 1.32 -0.66 2.64 -1 4 C-1.928 3.918 -2.856 3.835 -3.812 3.75 C-25.485 4.094 -48.107 28.173 -63.836 41.23 C-65.852 42.879 -67.912 44.444 -70 46 C-69.073 45.818 -69.073 45.818 -68.127 45.633 C-36.835 39.592 -36.835 39.592 -29.168 43.41 C-27 45 -27 45 -25.938 46.875 C-26.039 50.329 -27.608 51.509 -30 54 C-33.385 56.302 -36.945 58.287 -40.5 60.312 C-51.759 66.894 -62.662 73.937 -73.5 81.188 C-74.245 81.684 -74.989 82.181 -75.756 82.693 C-83.953 88.165 -92.088 93.721 -100.145 99.398 C-101.169 100.12 -101.169 100.12 -102.214 100.856 C-109.769 106.209 -117.219 111.742 -124.238 117.785 C-127 120 -127 120 -129 120 C-129 120.66 -129 121.32 -129 122 C-128.044 121.688 -127.087 121.377 -126.102 121.056 C-116.823 118.071 -107.506 115.509 -98.023 113.26 C-95.84 112.742 -93.658 112.215 -91.477 111.688 C-75.465 107.841 -75.465 107.841 -69.125 107.938 C-68.344 107.947 -67.563 107.956 -66.758 107.965 C-66.178 107.976 -65.598 107.988 -65 108 C-65 108.66 -65 109.32 -65 110 C-79.463 115.204 -94.074 119.495 -108.938 123.375 C-110.179 123.7 -110.179 123.7 -111.446 124.031 C-113.847 124.657 -116.25 125.279 -118.652 125.898 C-119.361 126.081 -120.07 126.265 -120.8 126.453 C-124.446 127.384 -128.101 128.275 -131.768 129.124 C-132.481 129.289 -133.194 129.454 -133.928 129.624 C-137 130.181 -139.886 130.132 -143 130 C-143.75 128.312 -143.75 128.312 -144 126 C-141.446 122.371 -138.579 119.636 -135.125 116.875 C-133.661 115.703 -133.661 115.703 -132.168 114.508 C-131.65 114.098 -131.133 113.689 -130.599 113.267 C-128.994 111.995 -127.397 110.713 -125.801 109.43 C-99.914 88.725 -71.862 70.091 -43.24 53.39 C-42.331 52.856 -41.421 52.323 -40.484 51.773 C-39.651 51.291 -38.818 50.808 -37.96 50.31 C-35.866 49.144 -35.866 49.144 -35 47 C-47.045 48.387 -58.776 50.13 -70.476 53.374 C-74.777 54.548 -78.49 55.267 -83 55 C-83.75 52.812 -83.75 52.812 -84 50 C-81.497 46.402 -78.667 43.716 -75.25 41 C-74.277 40.221 -73.304 39.443 -72.301 38.641 C-71.77 38.218 -71.24 37.796 -70.694 37.361 C-68.9 35.919 -67.126 34.455 -65.355 32.984 C-14.385 -9.206 -14.385 -9.206 0 0 Z " fill="#000000" transform="translate(757,256)"/>
<path d="M0 0 C10.612 7.316 20.441 15.426 30.215 23.816 C30.178 23.192 30.142 22.567 30.104 21.924 C29.957 19.055 29.867 16.187 29.777 13.316 C29.689 11.843 29.689 11.843 29.6 10.34 C29.471 4.849 29.838 1.551 33.5 -2.688 C34.704 -3.888 35.943 -5.055 37.215 -6.184 C38.226 -7.099 38.226 -7.099 39.258 -8.032 C43.159 -11.416 46.835 -13.297 52.043 -13.539 C56.177 -12.862 58.751 -10.45 61.215 -7.184 C61.442 -6.54 61.669 -5.897 61.902 -5.235 C62.78 -2.857 63.58 -1.13 65.215 0.816 C68.931 2.181 72.66 2.295 76.59 2.504 C78.86 2.7 81.13 2.906 83.398 3.121 C84.542 3.226 85.685 3.332 86.863 3.44 C114.993 6.596 147.411 17.85 167.215 38.816 C169.491 42.539 169.682 45.459 169.215 49.816 C168.514 50.435 167.812 51.054 167.09 51.691 C166.471 52.393 165.852 53.094 165.215 53.816 C166.435 61.058 168.743 67.996 170.902 75.004 C173.942 85.012 176.501 95.047 178.777 105.254 C185.451 134.744 198.273 176.045 225.215 193.082 C228.319 194.877 231.41 196.349 234.711 197.73 C259.896 208.653 288.642 229.242 299.387 255.461 C301.16 260.504 301.264 265.066 301.176 270.336 C301.218 272.994 301.516 275.553 301.84 278.191 C303.041 290.678 298.617 302.533 291.246 312.496 C279.838 325.527 261.571 328.786 245.092 329.969 C216.816 331.337 189.557 323.124 163.215 313.816 C163.283 314.381 163.352 314.945 163.423 315.527 C165.409 333.314 165.86 351.685 160.215 368.816 C159.914 369.772 159.614 370.727 159.305 371.711 C154.982 383.892 146.783 393.258 135.277 399.004 C98.227 415.061 54.425 404.809 18.422 390.879 C-28.069 372.429 -65.64 342.996 -100.785 307.941 C-101.375 307.354 -101.966 306.766 -102.574 306.161 C-108.869 299.888 -115.021 293.587 -120.785 286.816 C-122.405 285.041 -124.029 283.269 -125.66 281.504 C-128.969 277.881 -132.145 274.199 -135.223 270.379 C-138.445 266.384 -141.792 262.571 -145.285 258.816 C-149.516 254.264 -153.508 249.57 -157.406 244.73 C-160.144 241.377 -162.957 238.095 -165.785 234.816 C-170.146 229.754 -174.433 224.641 -178.645 219.453 C-180.085 217.679 -181.533 215.911 -182.988 214.148 C-213.395 177.309 -213.395 177.309 -213.14 163.365 C-212.448 158.392 -210.103 154.126 -207.848 149.691 C-207.348 148.682 -206.848 147.673 -206.333 146.634 C-198.938 131.902 -190.633 119.228 -179.41 107.066 C-153.094 77.891 -131.299 37.231 -122.785 -1.184 C-122.597 -1.935 -122.409 -2.687 -122.215 -3.461 C-121.416 -8.52 -121.46 -13.677 -121.355 -18.791 C-121.171 -23.932 -120.761 -27.798 -117.785 -32.184 C-115.883 -33.609 -115.883 -33.609 -113.848 -34.496 C-112.844 -34.954 -112.844 -34.954 -111.82 -35.422 C-77.142 -48.401 -27.451 -18.509 0 0 Z M-112.785 -28.184 C-115.323 -24.377 -115.305 -22.71 -114.785 -18.184 C-113.423 -15.288 -111.872 -12.618 -109.785 -10.184 C-109.125 -10.184 -108.465 -10.184 -107.785 -10.184 C-107.519 -9.593 -107.253 -9.002 -106.978 -8.393 C-105.758 -6.134 -104.501 -4.641 -102.695 -2.828 C-102.082 -2.21 -101.468 -1.592 -100.835 -0.956 C-99.851 0.014 -99.851 0.014 -98.848 1.004 C-98.171 1.674 -97.494 2.345 -96.797 3.036 C-91.396 8.332 -85.774 13.192 -79.785 17.816 C-78.887 18.543 -77.988 19.27 -77.062 20.02 C-62.972 31.233 -47.709 41.132 -32.16 50.191 C-31.398 50.637 -30.635 51.083 -29.849 51.543 C-16.871 58.942 -2.317 59.025 12.215 56.816 C12.545 56.486 12.875 56.156 13.215 55.816 C16.675 55.569 20.135 55.432 23.602 55.293 C28.369 54.664 31.804 53.227 35.215 49.816 C36.064 42.743 33.715 38.117 29.555 32.625 C24.416 26.558 18.484 21.67 12.215 16.816 C11.323 16.109 10.431 15.401 9.512 14.672 C0.522 7.704 -9.06 1.697 -18.785 -4.184 C-19.52 -4.629 -20.255 -5.074 -21.012 -5.533 C-43.414 -18.937 -86.501 -41.574 -112.785 -28.184 Z M-115.785 -7.184 C-117.425 -5.543 -117.317 -3.427 -117.684 -1.222 C-124.9 41.961 -150.797 88.106 -181.785 118.816 C-182.775 119.311 -182.775 119.311 -183.785 119.816 C-182.337 124.907 -180.099 128.958 -177.285 133.379 C-176.843 134.079 -176.401 134.78 -175.945 135.501 C-171.975 141.694 -167.61 147.498 -163.026 153.244 C-161.782 154.821 -160.565 156.416 -159.355 158.02 C-153.618 165.622 -147.55 172.878 -141.3 180.063 C-139.826 181.77 -138.369 183.489 -136.918 185.215 C-127.136 196.823 -116.818 207.974 -105.946 218.571 C-104.055 220.536 -102.27 222.546 -100.487 224.609 C-97.008 228.61 -93.356 232.391 -89.602 236.133 C-88.613 237.123 -88.613 237.123 -87.604 238.133 C-86.221 239.517 -84.837 240.899 -83.452 242.28 C-81.353 244.374 -79.259 246.473 -77.166 248.572 C-75.812 249.926 -74.457 251.28 -73.102 252.633 C-72.487 253.25 -71.872 253.867 -71.238 254.502 C-66.915 258.803 -62.408 262.84 -57.785 266.816 C-56.809 267.674 -55.834 268.531 -54.828 269.414 C-34.675 286.81 -12.25 301.598 10.215 315.816 C10.918 316.266 11.62 316.716 12.344 317.18 C14.397 318.489 16.46 319.78 18.527 321.066 C19.144 321.462 19.76 321.857 20.396 322.265 C23.648 324.254 23.648 324.254 27.348 324.832 C29.99 323.395 31.723 321.51 33.777 319.316 C38.932 314.011 44.388 309.364 50.215 304.816 C51.584 303.739 51.584 303.739 52.98 302.641 C75.275 285.494 99.216 272.806 126.215 264.816 C125.362 260.6 123.192 258.102 120.402 254.941 C119.915 254.378 119.427 253.814 118.924 253.233 C117.888 252.036 116.849 250.84 115.807 249.647 C114.237 247.842 112.683 246.025 111.133 244.203 C105.267 237.308 99.317 230.504 93.215 223.816 C95.525 224.476 97.835 225.136 100.215 225.816 C99.258 224.045 98.3 222.274 97.34 220.504 C96.806 219.518 96.272 218.532 95.723 217.516 C94.208 214.721 94.208 214.721 92.215 211.816 C91.555 211.816 90.895 211.816 90.215 211.816 C88.386 214.791 87.352 217.304 87.215 220.816 C89.563 225.07 92.846 228.346 96.215 231.816 C97.909 233.665 99.597 235.519 101.277 237.379 C102.031 238.185 102.786 238.99 103.562 239.82 C105.215 241.816 105.215 241.816 105.215 243.816 C103.998 243.466 102.781 243.115 101.527 242.754 C84.985 239.229 67.629 246.773 53.934 255.651 C45.284 261.515 37.501 268.154 30.301 275.723 C27.094 278.941 25.299 280.681 20.715 281.254 C17.215 280.816 17.215 280.816 14.777 279.191 C12.69 276.019 12.554 274.562 13.215 270.816 C14.395 268.86 15.682 267.107 17.121 265.332 C18.41 263.858 18.41 263.858 18.215 261.816 C22.347 259.813 25.64 259.326 30.215 259.816 C33.152 261.816 33.152 261.816 35.215 263.816 C35.618 263.427 36.022 263.038 36.438 262.637 C43.102 256.495 50.63 251.725 58.215 246.816 C57.093 243.45 56.122 242.622 53.465 240.379 C52.789 239.803 52.114 239.226 51.418 238.633 C50.691 238.033 49.964 237.434 49.215 236.816 C48.483 236.061 47.75 235.306 46.996 234.527 C42.92 232.02 39.995 232.92 35.465 233.879 C34.662 234.035 33.858 234.192 33.031 234.353 C30.751 234.811 28.483 235.306 26.215 235.816 C25.224 236.027 24.232 236.237 23.211 236.453 C18.146 237.799 16.172 239.691 13.449 244.102 C10.555 248.123 6.276 249.542 1.59 250.754 C-2.304 250.826 -3.874 250.385 -6.785 247.816 C-7.832 244.768 -7.963 243.287 -6.816 240.246 C-2.168 232.492 -2.168 232.492 1.652 230.629 C5.662 229.714 8.245 229.768 12.215 230.816 C12.84 231.344 13.465 231.871 14.109 232.414 C16.123 234.049 16.123 234.049 18.59 233.742 C19.456 233.54 20.322 233.337 21.215 233.129 C26.386 231.994 31.543 231.142 36.781 230.379 C39.38 230.005 39.38 230.005 41.215 227.816 C40.444 226.768 39.673 225.72 38.879 224.641 C37.866 223.262 36.853 221.883 35.84 220.504 C35.332 219.814 34.824 219.123 34.301 218.412 C33.811 217.745 33.321 217.078 32.816 216.391 C32.366 215.778 31.916 215.165 31.452 214.534 C30.337 212.986 29.273 211.403 28.215 209.816 C23.726 208.781 19.115 208.601 14.527 208.254 C13.26 208.122 11.992 207.99 10.686 207.854 C4.04 207.18 4.04 207.18 -2.17 209.094 C-3.88 210.575 -5.316 212.104 -6.785 213.816 C-9.981 215.414 -13.309 215.181 -16.785 214.816 C-19.285 213.754 -19.285 213.754 -20.785 211.816 C-21.394 207.709 -21.245 205.584 -19.098 202.004 C-16.001 199.075 -13.913 197.881 -9.605 197.75 C-5.095 197.994 -5.095 197.994 -2.785 198.816 C-2.021 200.058 -2.021 200.058 -1.242 201.324 C2.205 204.82 4.975 204.476 9.742 204.611 C10.806 204.617 11.869 204.623 12.965 204.629 C14.044 204.654 15.123 204.679 16.234 204.705 C18.895 204.764 21.554 204.8 24.215 204.816 C22.812 201.242 21.475 197.946 19.215 194.816 C17.13 193.938 17.13 193.938 15.215 193.816 C15.37 192.362 15.37 192.362 15.527 190.879 C15.458 186.632 14.327 183.28 12.152 179.641 C8.096 175.821 2.468 176.7 -2.785 176.816 C-3.74 176.748 -4.696 176.68 -5.68 176.609 C-10.222 176.317 -12.045 176.205 -15.66 179.191 C-16.361 180.058 -17.063 180.924 -17.785 181.816 C-20.849 183.753 -23.252 184.088 -26.848 184.066 C-27.705 184.072 -28.562 184.077 -29.445 184.082 C-31.785 183.816 -31.785 183.816 -34.785 181.816 C-35.723 178.441 -35.723 178.441 -35.785 174.816 C-33.973 172.629 -33.973 172.629 -31.785 170.816 C-31.103 169.491 -30.433 168.159 -29.785 166.816 C-26.072 164.96 -21.828 165.228 -17.785 165.816 C-14.973 168.191 -14.973 168.191 -12.785 170.816 C-8.659 172.977 -4.545 173.231 0.027 173.441 C1.067 173.499 1.067 173.499 2.127 173.559 C3.823 173.652 5.519 173.735 7.215 173.816 C8.463 171.83 8.463 171.83 7.754 169.504 C6.791 166.674 5.877 164.308 4.215 161.816 C1.775 160.731 -0.205 160.399 -2.859 160.195 C-3.495 160.07 -4.13 159.945 -4.785 159.816 C-5.115 158.826 -5.445 157.836 -5.785 156.816 C-3.475 156.816 -1.165 156.816 1.215 156.816 C0.572 150.903 -0.975 145.474 -2.785 139.816 C-9.282 139.66 -15.266 140.223 -21.66 141.316 C-36.884 143.751 -36.884 143.751 -42.785 142.816 C-44.785 140.816 -44.785 140.816 -45.223 137.441 C-44.785 133.816 -44.785 133.816 -42.535 131.754 C-41.628 131.115 -40.72 130.475 -39.785 129.816 C-39.125 128.826 -38.465 127.836 -37.785 126.816 C-34.823 122.373 -32.482 120.203 -27.223 119.004 C-21.911 118.714 -21.911 118.714 -19.785 119.816 C-18.535 122.379 -18.535 122.379 -17.785 124.816 C-14.485 124.486 -11.185 124.156 -7.785 123.816 C-8.256 121.161 -8.729 118.507 -9.223 115.855 C-9.574 113.958 -9.91 112.057 -10.223 110.152 C-10.439 108.965 -10.439 108.965 -10.66 107.754 C-10.781 107.041 -10.903 106.328 -11.027 105.594 C-12.091 103.1 -13.305 102.852 -15.785 101.816 C-17.632 101.378 -19.494 101 -21.363 100.668 C-22.442 100.467 -23.521 100.266 -24.633 100.059 C-26.885 99.65 -29.137 99.246 -31.391 98.848 C-45.383 96.219 -45.383 96.219 -49.785 91.816 C-50.223 89.004 -50.223 89.004 -49.785 85.816 C-47.098 83.816 -47.098 83.816 -43.785 81.816 C-42.359 80.291 -42.359 80.291 -41.098 78.629 C-38.785 75.816 -38.785 75.816 -35.785 74.816 C-34.143 74.674 -32.495 74.596 -30.848 74.566 C-29.993 74.541 -29.138 74.515 -28.258 74.488 C-25.244 74.888 -23.952 75.708 -21.785 77.816 C-20.535 81.504 -20.535 81.504 -19.785 84.816 C-18.135 84.816 -16.485 84.816 -14.785 84.816 C-15.775 72.936 -15.775 72.936 -16.785 60.816 C-18.93 60.156 -21.075 59.496 -23.285 58.816 C-48.703 50.49 -70.634 33.633 -91.086 16.867 C-91.709 16.356 -92.333 15.845 -92.975 15.319 C-94.169 14.328 -95.354 13.325 -96.529 12.31 C-99.262 9.655 -99.262 9.655 -102.785 8.816 C-103.022 8.262 -103.26 7.708 -103.504 7.137 C-105.09 4.265 -107.066 2.105 -109.285 -0.309 C-110.079 -1.177 -110.873 -2.046 -111.691 -2.941 C-113.033 -4.378 -114.396 -5.794 -115.785 -7.184 Z M44.215 -2.184 C44.532 -1.708 44.849 -1.232 45.176 -0.742 C45.876 0.308 45.876 0.308 46.59 1.379 C47.129 2.183 47.668 2.988 48.223 3.816 C49.753 6.12 51.266 8.433 52.77 10.754 C53.668 12.129 54.566 13.504 55.465 14.879 C55.901 15.558 56.337 16.238 56.787 16.938 C57.877 18.599 59.04 20.213 60.215 21.816 C60.875 21.816 61.535 21.816 62.215 21.816 C63.601 17.22 62.713 13.458 61.527 8.941 C61.366 8.259 61.204 7.578 61.037 6.875 C59.792 1.98 57.98 -1.946 55.215 -6.184 C50.225 -8.81 47.79 -5.593 44.215 -2.184 Z M38.215 6.816 C38.299 9.685 38.802 11.373 40.77 13.484 C44.048 16.691 44.048 16.691 48.215 17.816 C46.812 14.63 45.137 12.494 42.652 10.066 C42.032 9.453 41.412 8.839 40.773 8.207 C39.439 6.705 39.439 6.705 38.215 6.816 Z M67.215 7.816 C67.261 8.613 67.308 9.41 67.355 10.23 C67.585 16.98 67.41 20.539 63.215 25.816 C63.545 26.806 63.875 27.796 64.215 28.816 C66.733 30.096 66.733 30.096 69.875 31.121 C71.644 31.746 71.644 31.746 73.448 32.383 C74.725 32.819 76.001 33.256 77.277 33.691 C78.565 34.14 79.852 34.589 81.139 35.039 C120.867 50.136 120.867 50.136 162.215 49.816 C163.041 47.531 163.041 47.531 163.215 44.816 C150.991 25.839 120.036 16.772 99.397 12.191 C88.742 9.983 78.103 8.227 67.215 7.816 Z M35.215 17.816 C33.003 28.132 35.681 34.26 41.215 42.816 C43.858 40.174 44.934 37.088 46.34 33.691 C46.617 33.033 46.894 32.374 47.18 31.695 C47.862 30.071 48.539 28.444 49.215 26.816 C47.448 25.499 45.676 24.188 43.902 22.879 C42.916 22.148 41.93 21.417 40.914 20.664 C38.297 18.691 38.297 18.691 35.215 17.816 Z M58.215 31.816 C54.221 43.107 53.806 54.759 53.84 66.629 C53.84 67.346 53.841 68.063 53.841 68.802 C53.994 112.841 71.898 152.147 92.552 190.129 C92.912 190.794 93.272 191.459 93.642 192.144 C94.625 193.958 95.613 195.768 96.602 197.579 C98.116 200.617 99.234 203.571 100.215 206.816 C98.235 205.166 96.255 203.516 94.215 201.816 C96.194 208.662 100.044 214.099 103.982 219.938 C105.146 221.712 106.225 223.515 107.293 225.348 C113.818 236.047 123.198 241.925 133.769 248.332 C135.89 249.619 137.982 250.94 140.066 252.285 C145.039 255.733 145.039 255.733 150.77 256.672 C153.498 255.717 155.139 254.557 157.34 252.691 C160.772 249.864 164.237 247.596 168.09 245.379 C172.504 242.636 174.247 240.829 175.562 235.855 C176.823 231.915 179.569 228.929 182.215 225.816 C182.917 224.971 182.917 224.971 183.633 224.109 C192.073 214.845 203.928 208.631 215.111 203.328 C217.858 202.026 220.047 200.985 222.215 198.816 C208.532 187.077 208.532 187.077 191.402 183.941 C176.138 185.972 163.951 194.264 153.215 204.816 C152.336 205.679 151.457 206.541 150.551 207.43 C148.797 209.221 147.232 210.959 145.715 212.941 C142.193 216.992 139.971 218.635 134.59 219.191 C131.215 218.816 131.215 218.816 129.215 217.754 C127.574 214.575 128.419 212.228 129.215 208.816 C130.477 205.029 131.4 202.538 134.402 199.879 C138.342 198.391 140.997 198.415 145.215 198.816 C147.461 200.34 147.461 200.34 149.215 201.816 C149.737 201.32 150.259 200.824 150.797 200.312 C155.909 195.594 161.099 191.84 167.125 188.359 C168.159 187.596 168.159 187.596 169.215 186.816 C169.215 185.826 169.215 184.836 169.215 183.816 C167.895 183.816 166.575 183.816 165.215 183.816 C164.555 184.476 163.895 185.136 163.215 185.816 C164.205 182.846 164.205 182.846 165.215 179.816 C164.555 179.486 163.895 179.156 163.215 178.816 C163.112 178.26 163.009 177.703 162.902 177.129 C161.861 173.626 159.628 171.539 157.215 168.816 C153.429 169.357 151.661 170.934 149.215 173.816 C149.215 174.476 149.215 175.136 149.215 175.816 C148.225 175.816 147.235 175.816 146.215 175.816 C146.215 175.156 146.215 174.496 146.215 173.816 C142.623 175.104 139.927 176.607 136.965 179.004 C136.19 179.619 135.415 180.234 134.617 180.867 C133.017 182.166 131.426 183.476 129.844 184.797 C122.194 191.054 122.194 191.054 117.215 190.816 C115.34 189.754 115.34 189.754 114.215 187.816 C113.769 184.324 113.742 182.526 115.715 179.566 C116.21 178.989 116.705 178.411 117.215 177.816 C117.215 177.156 117.215 176.496 117.215 175.816 C117.999 175.507 118.782 175.198 119.59 174.879 C122.138 173.888 122.138 173.888 124.215 172.816 C128.266 172.558 129.758 172.512 133.215 174.816 C136.202 174.439 138.514 173.234 141.105 171.75 C141.814 171.347 142.523 170.944 143.254 170.529 C143.984 170.108 144.713 169.688 145.465 169.254 C146.21 168.829 146.955 168.404 147.723 167.967 C149.556 166.921 151.386 165.869 153.215 164.816 C152.885 163.826 152.555 162.836 152.215 161.816 C149.852 161.587 149.852 161.587 147.59 164.316 C146.806 165.141 146.022 165.966 145.215 166.816 C145.895 165.765 146.576 164.713 147.277 163.629 C148.752 161.05 149.228 160.107 149.09 157.066 C148.22 154.591 148.22 154.591 146.215 151.816 C128.912 153.419 128.912 153.419 114.902 161.941 C114.441 162.625 113.979 163.308 113.504 164.012 C111.328 167.058 108.722 167.832 105.215 168.816 C102.492 169.023 99.953 168.961 97.215 168.816 C96.687 162.905 97.307 159.419 100.727 154.516 C103.767 151.044 106.858 149.979 111.34 149.441 C114.215 149.816 114.215 149.816 116.027 151.379 C119.641 153.753 123.195 152.632 127.215 151.816 C132.575 150.589 137.898 149.219 143.215 147.816 C141.895 144.846 140.575 141.876 139.215 138.816 C138.555 138.816 137.895 138.816 137.215 138.816 C135.613 140.526 134.202 142.349 132.75 144.188 C131.215 145.816 131.215 145.816 128.215 146.816 C132.67 141.371 132.67 141.371 137.215 135.816 C135.895 132.846 134.575 129.876 133.215 126.816 C131.235 127.476 129.255 128.136 127.215 128.816 C127.215 128.156 127.215 127.496 127.215 126.816 C124.652 126.762 122.09 126.723 119.527 126.691 C118.806 126.675 118.085 126.658 117.342 126.641 C113.197 126.603 109.862 126.756 106.215 128.816 C105.181 130.799 104.182 132.801 103.215 134.816 C98.7 138.993 95.333 140.096 89.156 140.051 C86.522 139.733 85.067 138.669 83.215 136.816 C83.67 131.921 84.675 129.266 88.215 125.816 C92.739 122.855 96.715 121.083 102.215 121.816 C102.92 122.167 103.625 122.518 104.352 122.879 C108.353 124.189 111.712 123.706 115.84 123.191 C116.603 123.121 117.366 123.05 118.152 122.977 C121.653 122.565 123.736 122.31 126.238 119.73 C126.561 119.099 126.883 118.467 127.215 117.816 C126.885 117.156 126.555 116.496 126.215 115.816 C124.235 116.806 122.255 117.796 120.215 118.816 C121.215 115.816 121.215 115.816 124.277 114.129 C125.247 113.696 126.216 113.263 127.215 112.816 C126.225 109.846 125.235 106.876 124.215 103.816 C120.835 103.816 118.38 104.691 115.215 105.816 C114.885 104.826 114.555 103.836 114.215 102.816 C116.69 102.321 116.69 102.321 119.215 101.816 C117.73 100.826 117.73 100.826 116.215 99.816 C116.05 98.682 115.885 97.548 115.715 96.379 C114.605 92.714 114.605 92.714 111.855 91.516 C108.883 90.54 106.343 89.927 103.215 89.816 C99.818 91.883 99.818 91.883 97.215 94.816 C92.176 97.221 86.717 97.46 81.215 96.816 C80.225 96.156 79.235 95.496 78.215 94.816 C77.754 91.934 77.754 91.934 78.215 88.816 C81.486 85.044 85.835 82.411 90.684 81.199 C96.982 80.852 102.05 83.127 107.648 85.82 C110.271 87.152 110.271 87.152 113.215 85.816 C112.908 85.256 112.601 84.695 112.285 84.117 C109.466 78.058 109.091 71.406 109.215 64.816 C108.936 62.991 108.936 62.991 108.652 61.129 C108.264 58.189 108.23 56.553 109.215 53.816 C108.225 53.816 107.235 53.816 106.215 53.816 C106.194 52.67 106.194 52.67 106.173 51.5 C105.441 48.479 105.441 48.479 102.079 47.227 C100.687 46.756 99.288 46.308 97.883 45.879 C97.136 45.631 96.389 45.384 95.619 45.129 C93.22 44.338 90.812 43.576 88.402 42.816 C85.268 41.803 82.138 40.779 79.008 39.754 C78.251 39.508 77.494 39.263 76.714 39.01 C70.397 36.937 64.293 34.519 58.215 31.816 Z M49.215 38.816 C32.888 82.803 49.635 134.356 68.164 175.115 C68.721 176.328 69.28 177.541 69.84 178.754 C70.354 179.872 70.867 180.99 71.397 182.141 C75.1 189.968 79.136 197.78 84.215 204.816 C84.875 204.816 85.535 204.816 86.215 204.816 C88.125 199.035 89.348 193.617 86.625 187.953 C84.717 184.499 82.598 181.176 80.474 177.852 C60.806 146.065 48.98 106.458 49.084 69.215 C49.09 66.953 49.085 64.692 49.078 62.43 C49.075 54.514 49.28 46.687 50.215 38.816 C49.885 38.816 49.555 38.816 49.215 38.816 Z M110.215 51.816 C110.668 55.275 111.128 58.733 111.59 62.191 C111.716 63.157 111.842 64.122 111.973 65.117 C112.721 70.693 113.629 76.185 114.822 81.684 C115.325 84.417 115.361 87.047 115.215 89.816 C116.205 90.146 117.195 90.476 118.215 90.816 C118.463 84.096 117.514 77.912 116.277 71.316 C115.086 64.826 113.957 58.375 113.215 51.816 C112.225 51.816 111.235 51.816 110.215 51.816 Z M116.215 52.816 C116.215 54.136 116.215 55.456 116.215 56.816 C116.875 56.816 117.535 56.816 118.215 56.816 C118.545 55.496 118.875 54.176 119.215 52.816 C118.225 52.816 117.235 52.816 116.215 52.816 Z M121.215 53.816 C118.506 59.549 118.506 59.549 118.215 65.816 C119.535 65.156 120.855 64.496 122.215 63.816 C121.751 64.93 121.751 64.93 121.277 66.066 C120.403 68.329 119.772 70.466 119.215 72.816 C125.155 68.014 130.332 62.696 135.215 56.816 C135.215 56.486 135.215 56.156 135.215 55.816 C133.633 55.478 132.049 55.146 130.465 54.816 C129.583 54.631 128.701 54.445 127.793 54.254 C124.993 53.705 124.993 53.705 121.215 53.816 Z M32.215 58.816 C26.419 85.349 40.253 120.494 48.527 145.441 C48.746 146.103 48.965 146.765 49.19 147.447 C51.21 154.703 51.21 154.703 55.215 160.816 C53.74 153.579 51.65 146.66 49.402 139.629 C40.645 111.569 36.712 85.219 39.215 55.816 C36.115 55.816 34.619 56.911 32.215 58.816 Z M150.402 55.824 C149.006 55.861 147.611 55.9 146.215 55.941 C145.167 55.938 145.167 55.938 144.098 55.934 C139.847 56.094 138.432 56.587 135.469 59.723 C134.725 60.744 133.981 61.765 133.215 62.816 C131.117 64.215 131.117 64.215 129.152 65.191 C124.63 67.811 123.071 71.066 121.215 75.816 C120.885 76.476 120.555 77.136 120.215 77.816 C120.572 79.853 121.023 81.874 121.527 83.879 C121.792 84.963 122.056 86.047 122.328 87.164 C122.916 89.961 122.916 89.961 125.215 90.816 C126.535 89.496 127.855 88.176 129.215 86.816 C129.875 87.476 130.535 88.136 131.215 88.816 C141.847 81.407 151.939 73.892 161.215 64.816 C160.555 61.846 159.895 58.876 159.215 55.816 C156.277 55.805 153.34 55.818 150.402 55.824 Z M2.652 61.816 C0.71 61.959 0.71 61.959 -1.271 62.105 C-4.443 62.34 -7.614 62.577 -10.785 62.816 C-10.67 65.505 -10.544 68.192 -10.41 70.879 C-10.379 71.631 -10.348 72.383 -10.316 73.158 C-10.065 78.006 -9.293 82.199 -7.785 86.816 C-4.201 86.397 -4.201 86.397 -1.354 84.374 C0.386 82.647 1.716 82.036 4.008 81.211 C5.076 80.819 5.076 80.819 6.166 80.42 C7.273 80.028 7.273 80.028 8.402 79.629 C9.152 79.356 9.902 79.084 10.674 78.803 C12.518 78.133 14.366 77.474 16.215 76.816 C13.427 79.691 10.754 82.306 7.402 84.504 C5.825 85.649 5.825 85.649 4.215 86.816 C4.215 87.476 4.215 88.136 4.215 88.816 C6.944 89.463 9.673 90.109 12.402 90.754 C13.171 90.936 13.94 91.119 14.732 91.307 C18.549 92.208 22.361 93.083 26.215 93.816 C26.215 95.136 26.215 96.456 26.215 97.816 C22.673 97.163 19.221 96.293 15.744 95.356 C7.899 93.269 0.36 92.095 -7.785 91.816 C-7.455 94.126 -7.125 96.436 -6.785 98.816 C-6.136 98.977 -5.486 99.138 -4.817 99.304 C-1.825 100.049 1.164 100.808 4.152 101.566 C5.685 101.945 5.685 101.945 7.248 102.332 C13.557 103.945 19.37 105.938 25.215 108.816 C24.63 111.982 24.474 112.619 21.781 114.668 C20.79 115.253 19.799 115.838 18.777 116.441 C14.748 118.81 14.748 118.81 11.215 121.816 C12.347 121.914 13.478 122.012 14.645 122.113 C16.126 122.263 17.608 122.414 19.09 122.566 C20.209 122.659 20.209 122.659 21.352 122.754 C23.52 122.988 23.52 122.988 27.215 123.816 C28.723 125.895 28.723 125.895 29.215 127.816 C28.551 127.654 27.887 127.492 27.203 127.324 C23.588 126.71 20.056 126.667 16.402 126.691 C15.34 126.694 15.34 126.694 14.256 126.697 C9.489 126.737 4.912 127.034 0.215 127.816 C0.49 131.635 0.49 131.635 2.215 134.816 C4.093 134.962 5.976 135.044 7.859 135.098 C9.011 135.135 10.163 135.172 11.35 135.211 C13.17 135.263 13.17 135.263 15.027 135.316 C17.409 135.385 19.79 135.458 22.172 135.535 C23.234 135.565 24.296 135.596 25.39 135.627 C27.814 135.79 29.895 136.127 32.215 136.816 C32.141 139.924 31.846 142.092 29.766 144.48 C25.617 148.135 21.913 150.816 16.215 150.816 C17.371 150.128 17.371 150.128 18.551 149.426 C19.554 148.812 20.557 148.199 21.59 147.566 C22.588 146.963 23.585 146.36 24.613 145.738 C27.166 143.853 28.14 142.744 29.215 139.816 C26.215 138.816 24.241 138.701 21.109 138.719 C19.635 138.724 19.635 138.724 18.131 138.729 C16.595 138.741 16.595 138.741 15.027 138.754 C13.992 138.758 12.956 138.763 11.889 138.768 C9.331 138.779 6.773 138.796 4.215 138.816 C2.872 142.846 4.186 145.536 5.527 149.379 C5.867 150.407 5.867 150.407 6.213 151.455 C7.231 154.444 7.954 156.555 10.215 158.816 C12.174 159.336 12.174 159.336 14.426 159.598 C15.259 159.718 16.091 159.837 16.949 159.961 C17.821 160.078 18.692 160.196 19.59 160.316 C21.307 160.55 23.023 160.789 24.738 161.035 C25.501 161.138 26.263 161.24 27.048 161.346 C29.388 161.854 31.167 162.58 33.215 163.816 C33.545 164.476 33.875 165.136 34.215 165.816 C32.604 165.6 32.604 165.6 30.961 165.379 C29.525 165.191 28.089 165.004 26.652 164.816 C25.948 164.721 25.243 164.626 24.518 164.527 C20.041 163.95 15.728 163.722 11.215 163.816 C11.831 165.465 12.458 167.111 13.09 168.754 C13.612 170.129 13.612 170.129 14.145 171.531 C14.997 173.966 14.997 173.966 17.215 174.816 C18.966 175.082 20.724 175.303 22.484 175.5 C23.538 175.623 24.592 175.746 25.678 175.873 C27.899 176.126 30.12 176.376 32.342 176.623 C33.399 176.747 34.457 176.872 35.547 177 C36.513 177.109 37.48 177.218 38.476 177.33 C41.272 177.827 43.624 178.67 46.215 179.816 C45.652 181.629 45.652 181.629 44.215 183.816 C40.705 185.603 38.174 186.816 34.215 186.816 C36.525 185.496 38.835 184.176 41.215 182.816 C41.215 182.156 41.215 181.496 41.215 180.816 C33.488 179.585 26.046 178.546 18.215 178.816 C18.838 180.83 19.515 182.828 20.215 184.816 C20.569 185.841 20.924 186.866 21.289 187.922 C23.017 191.181 23.017 191.181 26.902 191.953 C28.336 192.163 29.774 192.346 31.215 192.504 C38.862 193.463 38.862 193.463 42.215 196.816 C37.265 196.486 32.315 196.156 27.215 195.816 C27.875 197.466 28.535 199.116 29.215 200.816 C29.526 201.711 29.836 202.606 30.156 203.527 C33.6 207.356 38.215 207.011 43.152 207.441 C45.142 207.631 47.13 207.831 49.117 208.043 C49.999 208.121 50.88 208.199 51.789 208.28 C54.607 208.903 56.087 209.892 58.215 211.816 C58.545 212.476 58.875 213.136 59.215 213.816 C60.205 214.146 61.195 214.476 62.215 214.816 C65.215 215.816 65.215 215.816 66.215 217.816 C65.06 217.651 63.905 217.486 62.715 217.316 C55.576 216.503 48.387 216.737 41.215 216.816 C43.411 221.528 46.138 225.537 50.215 228.816 C52.496 229.363 54.264 229.261 56.594 229.031 C59.877 228.762 62.997 229.035 66.277 229.316 C67.403 229.409 68.528 229.502 69.688 229.598 C70.522 229.67 71.356 229.742 72.215 229.816 C72.215 230.806 72.215 231.796 72.215 232.816 C67.76 233.806 67.76 233.806 63.215 234.816 C63.545 234.156 63.875 233.496 64.215 232.816 C62.936 232.61 61.657 232.404 60.34 232.191 C59.621 232.075 58.901 231.959 58.16 231.84 C57.518 231.832 56.876 231.824 56.215 231.816 C55.555 232.476 54.895 233.136 54.215 233.816 C58.877 238.725 58.877 238.725 64.215 242.816 C68.362 242.406 72.055 241.279 75.965 239.879 C81.327 238.036 86.628 236.756 92.215 235.816 C91.885 234.826 91.555 233.836 91.215 232.816 C90.555 232.816 89.895 232.816 89.215 232.816 C88.969 232.256 88.722 231.695 88.469 231.117 C86.991 228.405 85.181 226.333 83.152 224.004 C77.675 217.388 73.416 210.29 69.215 202.816 C68.854 202.186 68.494 201.555 68.122 200.905 C44.249 158.897 29.166 109.053 26.215 60.816 C18.319 60.679 10.523 61.221 2.652 61.816 Z M159.234 71.75 C153.592 75.594 148.899 79.864 144.215 84.816 C143.328 85.683 142.441 86.549 141.527 87.441 C138.919 90.12 136.574 92.918 134.215 95.816 C137.536 97.576 140.436 98.666 144.215 98.816 C148.256 96.528 151.078 93.198 154.215 89.816 C155.242 88.869 156.279 87.932 157.324 87.004 C158.351 86.067 159.377 85.129 160.402 84.191 C161.345 83.333 162.287 82.474 163.258 81.59 C165.613 78.858 165.613 78.858 165.016 74.98 C164.751 73.936 164.487 72.892 164.215 71.816 C161.345 70.476 161.345 70.476 159.234 71.75 Z M-35.785 81.816 C-34.202 83.399 -32.405 83.164 -30.223 83.379 C-29.396 83.463 -28.57 83.546 -27.719 83.633 C-27.081 83.693 -26.443 83.754 -25.785 83.816 C-26.445 82.496 -27.105 81.176 -27.785 79.816 C-32.278 79.391 -32.278 79.391 -35.785 81.816 Z M162.902 84.004 C160.506 86.512 158.332 89.072 156.215 91.816 C160.808 90.33 163.651 87.966 167.215 84.816 C166.885 83.826 166.555 82.836 166.215 81.816 C164.805 81.702 164.805 81.702 162.902 84.004 Z M-43.785 86.816 C-43.455 88.136 -43.125 89.456 -42.785 90.816 C-28.437 94.969 -28.437 94.969 -13.785 97.816 C-12.452 95.15 -13.114 93.65 -13.785 90.816 C-28.612 87.239 -28.612 87.239 -43.785 86.816 Z M84.215 90.816 C84.215 91.146 84.215 91.476 84.215 91.816 C89.18 92.172 89.18 92.172 93.652 90.316 C94.168 89.821 94.684 89.326 95.215 88.816 C90.996 88.62 88.045 89.014 84.215 90.816 Z M153.379 97.395 C152.284 98.496 151.24 99.649 150.215 100.816 C153.376 101.975 155.884 102.457 159.215 101.816 C162.845 98.589 165.639 94.926 168.215 90.816 C168.215 90.156 168.215 89.496 168.215 88.816 C163.139 88.816 157.123 94.177 153.379 97.395 Z M167.586 96.312 C166.948 96.953 166.31 97.594 165.652 98.254 C165.012 98.892 164.371 99.53 163.711 100.188 C162.102 101.571 162.102 101.571 162.215 102.816 C167.005 103.051 167.005 103.051 171.215 100.816 C170.885 98.836 170.555 96.856 170.215 94.816 C168.969 94.704 168.969 94.704 167.586 96.312 Z M120.215 97.816 C121.215 99.816 121.215 99.816 121.215 99.816 Z M128.215 98.816 C128.711 103.285 128.905 104.506 132.215 107.816 C134.525 106.166 136.835 104.516 139.215 102.816 C136.522 101.021 135.069 100.389 132.027 99.691 C130.769 99.403 129.511 99.114 128.215 98.816 Z M-5.785 104.816 C-4.465 110.756 -3.145 116.696 -1.785 122.816 C5.335 121.234 8.504 120.48 14.215 116.816 C15.329 116.115 16.442 115.414 17.59 114.691 C20.278 113.081 20.278 113.081 21.215 110.816 C7.966 106.394 7.966 106.394 -5.785 104.816 Z M142.105 106.496 C140.691 107.947 139.304 109.426 137.949 110.934 C136.215 112.816 136.215 112.816 134.215 113.816 C133.892 117.371 133.759 119.192 135.902 122.129 C138.53 124.047 139.992 124.517 143.215 124.816 C144.286 124.952 145.357 125.087 146.461 125.227 C151.677 124.657 153.557 122.276 156.965 118.504 C157.528 117.909 158.091 117.314 158.672 116.701 C159.72 115.592 160.761 114.476 161.792 113.35 C163.23 111.8 164.711 110.303 166.215 108.816 C164.422 108.876 162.631 108.965 160.84 109.066 C159.842 109.113 158.844 109.159 157.816 109.207 C155.073 109.527 155.073 109.527 153.98 111.793 C153.728 112.461 153.475 113.128 153.215 113.816 C151.34 114.941 151.34 114.941 149.215 115.816 C148.472 116.188 147.73 116.559 146.965 116.941 C146.099 117.375 146.099 117.375 145.215 117.816 C146.205 115.836 147.195 113.856 148.215 111.816 C147.575 111.693 146.936 111.569 146.277 111.441 C145.597 111.235 144.916 111.029 144.215 110.816 C143.885 110.156 143.555 109.496 143.215 108.816 C144.184 108.693 145.154 108.569 146.152 108.441 C147.668 108.132 147.668 108.132 149.215 107.816 C149.545 107.156 149.875 106.496 150.215 105.816 C146.814 104.456 145.04 104.159 142.105 106.496 Z M169.684 114.336 C168.688 115.429 167.699 116.526 166.715 117.629 C166.216 118.176 165.717 118.723 165.203 119.287 C163.008 121.714 161.033 124.089 159.215 126.816 C165.588 128.878 165.588 128.878 172.215 128.816 C175.524 127.258 175.524 127.258 177.215 123.816 C176.716 119.646 175.563 115.785 174.215 111.816 C171.856 111.581 171.856 111.581 169.684 114.336 Z M160.215 117.816 C158.876 118.934 157.544 120.061 156.215 121.191 C155.472 121.818 154.73 122.444 153.965 123.09 C153.387 123.66 152.81 124.229 152.215 124.816 C152.215 125.476 152.215 126.136 152.215 126.816 C156.032 125.261 158.407 122.78 161.215 119.816 C160.885 119.156 160.555 118.496 160.215 117.816 Z M128.215 118.816 C127.225 120.301 127.225 120.301 126.215 121.816 C127.865 121.816 129.515 121.816 131.215 121.816 C130.885 120.826 130.555 119.836 130.215 118.816 C129.555 118.816 128.895 118.816 128.215 118.816 Z M-32.785 125.816 C-32.455 126.476 -32.125 127.136 -31.785 127.816 C-29.145 127.156 -26.505 126.496 -23.785 125.816 C-23.785 125.156 -23.785 124.496 -23.785 123.816 C-28.575 123.582 -28.575 123.582 -32.785 125.816 Z M-189.785 125.816 C-191.051 127.968 -192.27 130.13 -193.473 132.316 C-193.832 132.917 -194.191 133.518 -194.561 134.137 C-196.574 137.885 -196.898 139.334 -195.891 143.633 C-193.531 148.766 -190.472 153.518 -187.41 158.254 C-186.793 159.215 -186.176 160.177 -185.54 161.167 C-179.743 170.084 -173.443 178.529 -166.785 186.816 C-165.985 187.818 -165.184 188.82 -164.359 189.852 C-159.947 195.298 -155.409 200.639 -150.871 205.981 C-147.225 210.278 -143.655 214.633 -140.098 219.004 C-137.06 222.698 -133.964 226.341 -130.867 229.985 C-128.007 233.355 -125.193 236.757 -122.41 240.191 C-113.866 250.68 -104.876 260.8 -95.785 270.816 C-94.284 272.482 -92.784 274.149 -91.285 275.816 C-90.158 277.066 -90.158 277.066 -89.008 278.34 C-87.59 279.92 -86.18 281.508 -84.781 283.105 C-79.82 288.736 -74.627 294.11 -69.348 299.441 C-68.281 300.527 -68.281 300.527 -67.193 301.635 C-66.524 302.306 -65.854 302.977 -65.164 303.668 C-64.562 304.275 -63.959 304.881 -63.338 305.506 C-61.869 307.031 -61.869 307.031 -59.785 306.816 C-59.455 307.806 -59.125 308.796 -58.785 309.816 C-56.737 311.595 -54.694 313.246 -52.535 314.879 C-51.906 315.363 -51.277 315.847 -50.629 316.345 C-49.322 317.35 -48.013 318.352 -46.702 319.351 C-44.932 320.704 -43.175 322.071 -41.422 323.445 C-23.453 337.505 -4.35 348.984 16.215 358.816 C17.187 359.287 18.159 359.757 19.16 360.242 C26.331 363.619 33.711 366.279 41.215 368.816 C42.219 369.167 43.223 369.518 44.258 369.879 C78.651 381.269 114.582 380.892 147.32 364.799 C151.883 362.432 156.015 360.169 158.395 355.504 C159.304 352.524 159.415 350.112 159.34 347.004 C159.322 346.028 159.304 345.052 159.285 344.047 C159.262 343.311 159.239 342.575 159.215 341.816 C154.618 341.816 152.835 342.891 148.84 345.066 C122.239 358.822 92.123 356.025 64.34 347.566 C23.057 334.384 -12.755 309.326 -45.785 281.816 C-46.29 281.398 -46.795 280.979 -47.315 280.548 C-54.089 274.924 -60.696 269.16 -67.121 263.139 C-69.937 260.502 -72.792 257.923 -75.703 255.391 C-87.402 245.198 -98.43 234.271 -109.41 223.316 C-109.925 222.804 -110.44 222.292 -110.97 221.764 C-116.228 216.527 -121.4 211.258 -126.229 205.618 C-128.782 202.662 -131.481 199.845 -134.16 197.004 C-138.834 192.009 -143.288 186.908 -147.562 181.562 C-149.533 179.128 -151.559 176.754 -153.613 174.39 C-164.198 162.142 -173.695 148.994 -182.234 135.247 C-184.465 131.687 -186.633 128.656 -189.785 125.816 Z M91.215 127.816 C94.68 127.321 94.68 127.321 98.215 126.816 C94.729 125.614 94.535 125.603 91.215 127.816 Z M139.215 128.816 C139.215 129.806 139.215 130.796 139.215 131.816 C140.205 131.486 141.195 131.156 142.215 130.816 C142.215 130.156 142.215 129.496 142.215 128.816 C141.225 128.816 140.235 128.816 139.215 128.816 Z M-20.535 130.629 C-21.608 130.795 -22.68 130.96 -23.785 131.131 C-29.554 132.072 -34.545 133.204 -39.785 135.816 C-39.785 136.476 -39.785 137.136 -39.785 137.816 C-32.155 138.012 -24.791 137.246 -17.223 136.316 C-16.023 136.173 -14.824 136.03 -13.588 135.883 C-10.653 135.532 -7.719 135.176 -4.785 134.816 C-5.28 131.846 -5.28 131.846 -5.785 128.816 C-10.767 128.816 -15.626 129.829 -20.535 130.629 Z M143.965 131.504 C141.813 133.865 141.813 133.865 142.215 137.816 C146.01 136.325 147.825 134.059 150.215 130.816 C147.264 129.552 146.608 129.521 143.965 131.504 Z M93.09 132.316 C92.003 132.734 92.003 132.734 90.895 133.16 C90.34 133.377 89.786 133.593 89.215 133.816 C89.215 134.476 89.215 135.136 89.215 135.816 C94.25 135.582 94.25 135.582 98.152 132.754 C98.503 132.115 98.854 131.475 99.215 130.816 C96.849 130.816 95.292 131.464 93.09 132.316 Z M175.707 132.059 C174.907 132.867 174.907 132.867 174.09 133.691 C173.282 134.492 173.282 134.492 172.457 135.309 C171.003 136.748 171.003 136.748 171.215 138.816 C173.638 138.868 173.638 138.868 176.215 137.816 C178.085 134.343 178.085 134.343 179.215 130.816 C177.147 130.604 177.147 130.604 175.707 132.059 Z M151.715 133.691 C150.023 135.655 150.023 135.655 150.215 137.816 C151.656 137.39 153.093 136.95 154.527 136.504 C155.728 136.138 155.728 136.138 156.953 135.766 C159.314 134.775 160.554 133.736 162.215 131.816 C156.549 131.25 156.549 131.25 151.715 133.691 Z M158.965 136.191 C154.444 138.377 150.031 140.336 145.215 141.816 C145.545 142.806 145.875 143.796 146.215 144.816 C153.087 144.073 161.3 142.118 166.402 137.191 C168.417 135.049 168.417 135.049 168.215 132.816 C164.837 132.816 161.959 134.743 158.965 136.191 Z M180.215 135.816 C173.483 143.469 167.387 151.711 161.215 159.816 C165.467 161.234 168.58 159.711 172.652 158.316 C173.416 158.084 174.18 157.852 174.967 157.613 C179.048 156.221 181.508 155.034 183.754 151.254 C185.627 146.846 185.187 145.232 183.465 140.953 C182.746 139.228 181.983 137.52 181.215 135.816 C180.885 135.816 180.555 135.816 180.215 135.816 Z M165.215 143.816 C163.238 145.887 161.59 147.844 159.902 150.129 C159.435 150.724 158.968 151.319 158.486 151.932 C156.986 153.86 156.986 153.86 155.215 156.816 C155.545 157.806 155.875 158.796 156.215 159.816 C160.096 158.523 161.53 156.123 163.84 152.941 C164.247 152.399 164.655 151.856 165.074 151.297 C166.908 148.813 168.232 146.765 169.215 143.816 C167.895 143.816 166.575 143.816 165.215 143.816 Z M150.215 148.816 C150.545 150.466 150.875 152.116 151.215 153.816 C152.205 153.816 153.195 153.816 154.215 153.816 C155.676 152.281 155.676 152.281 156.902 150.316 C157.339 149.667 157.776 149.017 158.227 148.348 C158.553 147.842 158.879 147.337 159.215 146.816 C155.835 146.816 153.38 147.691 150.215 148.816 Z M-200.785 149.816 C-201.996 151.824 -203.178 153.848 -204.348 155.879 C-205.009 157.004 -205.67 158.13 -206.352 159.289 C-208.047 163.461 -207.915 165.497 -206.785 169.816 C-199.934 185.403 -186.96 199.025 -176.241 212.044 C-174.95 213.616 -173.668 215.194 -172.387 216.773 C-167.764 222.473 -163.024 228.06 -158.233 233.617 C-155.13 237.222 -152.09 240.869 -149.098 244.566 C-145.542 248.949 -141.818 253.136 -138.016 257.305 C-135.79 259.811 -133.69 262.386 -131.598 265.004 C-127.243 270.392 -122.563 275.426 -117.811 280.464 C-114.239 284.25 -110.765 288.092 -107.375 292.043 C-104.869 294.838 -102.18 297.444 -99.484 300.055 C-97.785 301.816 -97.785 301.816 -95.785 304.816 C-95.125 304.816 -94.465 304.816 -93.785 304.816 C-93.476 305.621 -93.476 305.621 -93.16 306.441 C-91.253 309.736 -88.737 312.41 -85.785 314.816 C-85.125 314.816 -84.465 314.816 -83.785 314.816 C-83.785 315.476 -83.785 316.136 -83.785 316.816 C-82.406 318.251 -82.406 318.251 -80.535 319.754 C-76.981 322.766 -73.56 325.881 -70.16 329.066 C-26.642 369.264 36.479 402.317 96.887 401 C114.03 400.054 131.541 398.194 144.465 385.629 C149.223 378.175 149.223 378.175 151.215 369.816 C146.915 371.174 142.88 372.826 138.777 374.691 C114.609 385.349 85.745 385.614 60.215 379.816 C59.463 379.65 58.711 379.484 57.937 379.312 C39.569 375.143 21.746 368.734 5.144 359.837 C3.174 358.795 1.187 357.797 -0.809 356.805 C-17.157 348.574 -32.431 338.15 -46.785 326.816 C-47.69 326.104 -48.595 325.391 -49.527 324.656 C-57.54 318.221 -65.236 311.386 -72.488 304.102 C-74.709 301.793 -74.709 301.793 -77.16 300.004 C-80.12 297.538 -82.469 294.814 -84.965 291.891 C-86.671 289.946 -88.438 288.126 -90.285 286.316 C-93.321 283.328 -96.13 280.199 -98.91 276.973 C-100.959 274.617 -103.057 272.311 -105.16 270.004 C-109.129 265.611 -112.878 261.07 -116.602 256.469 C-118.61 254.03 -120.672 251.664 -122.785 249.316 C-126.432 245.26 -129.874 241.061 -133.309 236.824 C-136.042 233.505 -138.846 230.254 -141.66 227.004 C-146.09 221.874 -150.342 216.638 -154.495 211.282 C-158.209 206.508 -162.046 201.845 -165.91 197.191 C-179.393 180.917 -179.393 180.917 -183.398 174.051 C-184.59 171.696 -184.59 171.696 -186.785 170.816 C-187.766 169.158 -188.74 167.495 -189.67 165.808 C-191.475 162.583 -193.476 159.487 -195.473 156.379 C-195.875 155.743 -196.278 155.107 -196.693 154.451 C-197.696 152.888 -198.737 151.349 -199.785 149.816 C-200.115 149.816 -200.445 149.816 -200.785 149.816 Z M186.215 150.816 C185.885 151.806 185.555 152.796 185.215 153.816 C186.205 153.486 187.195 153.156 188.215 152.816 C188.215 152.156 188.215 151.496 188.215 150.816 C187.555 150.816 186.895 150.816 186.215 150.816 Z M108.215 153.816 C107.555 154.476 106.895 155.136 106.215 155.816 C108.195 155.486 110.175 155.156 112.215 154.816 C110.323 154.135 110.323 154.135 108.215 153.816 Z M190.215 158.816 C188.098 160.999 186.023 163.203 183.965 165.441 C183.391 166.059 182.818 166.676 182.227 167.312 C175.537 173.512 175.537 173.512 172.277 181.129 C173.108 182.998 173.108 182.998 175.215 183.816 C181.909 182.132 187.276 179.622 192.215 174.816 C192.215 175.476 192.215 176.136 192.215 176.816 C191.555 177.476 190.895 178.136 190.215 178.816 C192.859 180.139 194.892 179.913 197.84 179.879 C198.843 179.87 199.846 179.861 200.879 179.852 C202.035 179.834 202.035 179.834 203.215 179.816 C197.546 169.122 197.546 169.122 191.215 158.816 C190.885 158.816 190.555 158.816 190.215 158.816 Z M55.215 160.816 C55.798 166.454 57.87 171.043 60.215 176.129 C60.812 177.436 60.812 177.436 61.421 178.77 C64.155 184.688 67.014 190.535 70.027 196.316 C70.388 197.015 70.748 197.715 71.119 198.435 C73.082 202.117 75.077 205.052 78.215 207.816 C76.842 204.215 75.243 200.852 73.422 197.457 C72.877 196.431 72.332 195.405 71.77 194.347 C71.195 193.265 70.62 192.182 70.027 191.066 C64.821 181.182 60.166 171.263 56.215 160.816 C55.885 160.816 55.555 160.816 55.215 160.816 Z M102.215 162.816 C102.215 163.476 102.215 164.136 102.215 164.816 C104.235 164.215 106.236 163.543 108.215 162.816 C108.545 162.156 108.875 161.496 109.215 160.816 C106.109 160.816 104.862 161.356 102.215 162.816 Z M167.09 163.316 C166.431 163.555 165.772 163.793 165.094 164.039 C163.466 164.629 161.84 165.222 160.215 165.816 C163.094 170.394 163.094 170.394 167.215 173.816 C170.803 170.428 173.672 167.055 176.215 162.816 C176.215 162.156 176.215 161.496 176.215 160.816 C172.983 160.816 170.094 162.216 167.09 163.316 Z M-25.785 169.816 C-26.115 170.476 -26.445 171.136 -26.785 171.816 C-24.145 171.816 -21.505 171.816 -18.785 171.816 C-20.624 169.529 -20.624 169.529 -23.41 169.691 C-24.586 169.753 -24.586 169.753 -25.785 169.816 Z M171.09 173.816 C170.471 174.476 169.852 175.136 169.215 175.816 C169.545 176.476 169.875 177.136 170.215 177.816 C171.865 175.836 173.515 173.856 175.215 171.816 C172.971 171.588 172.971 171.588 171.09 173.816 Z M-28.785 176.816 C-28.455 177.806 -28.125 178.796 -27.785 179.816 C-24.32 179.321 -24.32 179.321 -20.785 178.816 C-20.785 178.156 -20.785 177.496 -20.785 176.816 C-23.425 176.816 -26.065 176.816 -28.785 176.816 Z M119.215 182.816 C119.215 183.476 119.215 184.136 119.215 184.816 C121.165 184.622 121.165 184.622 123.215 183.816 C124.499 181.833 124.499 181.833 125.215 179.816 C122.416 179.816 121.288 181.02 119.215 182.816 Z M-10.785 201.816 C-11.445 202.476 -12.105 203.136 -12.785 203.816 C-10.475 203.816 -8.165 203.816 -5.785 203.816 C-6.115 203.156 -6.445 202.496 -6.785 201.816 C-8.105 201.816 -9.425 201.816 -10.785 201.816 Z M139.215 201.816 C137.443 203.171 137.443 203.171 136.215 204.816 C138.525 204.156 140.835 203.496 143.215 202.816 C141.378 202.044 141.378 202.044 139.215 201.816 Z M207.215 213.816 C206.182 214.476 205.15 215.136 204.086 215.816 C194.36 222.247 182.693 230.763 177.965 241.711 C175.52 246.049 172.124 248.503 168.215 251.504 C166.776 252.631 165.339 253.76 163.902 254.891 C162.949 255.627 162.949 255.627 161.977 256.378 C160.274 257.768 158.739 259.235 157.215 260.816 C177.614 269.262 197.794 275.802 219.59 279.504 C220.29 279.623 220.991 279.743 221.712 279.866 C232.578 281.621 243.406 282.057 254.402 282.066 C255.427 282.067 255.427 282.067 256.473 282.068 C278.068 282.274 278.068 282.274 296.215 271.816 C297.466 262.163 293.064 253.98 287.387 246.439 C274.728 230.323 253.74 209.384 233.215 203.816 C223.725 203.081 214.848 208.795 207.215 213.816 Z M78.215 207.816 C78.545 208.806 78.875 209.796 79.215 210.816 C79.215 209.826 79.215 208.836 79.215 207.816 C78.885 207.816 78.555 207.816 78.215 207.816 Z M-13.785 208.816 C-13.785 209.476 -13.785 210.136 -13.785 210.816 C-13.125 210.486 -12.465 210.156 -11.785 209.816 C-12.445 209.486 -13.105 209.156 -13.785 208.816 Z M36.215 209.816 C36.545 210.806 36.875 211.796 37.215 212.816 C41.835 212.816 46.455 212.816 51.215 212.816 C51.215 212.156 51.215 211.496 51.215 210.816 C46.265 210.486 41.315 210.156 36.215 209.816 Z M141.215 208.816 C137.75 210.301 137.75 210.301 134.215 211.816 C134.215 212.806 134.215 213.796 134.215 214.816 C137.902 214.318 139.82 213.716 142.215 210.816 C141.885 210.156 141.555 209.496 141.215 208.816 Z M80.215 210.816 C80.545 211.806 80.875 212.796 81.215 213.816 C81.215 212.826 81.215 211.836 81.215 210.816 C80.885 210.816 80.555 210.816 80.215 210.816 Z M83.215 214.816 C84.524 217.938 84.524 217.938 87.215 219.816 C85.906 216.694 85.906 216.694 83.215 214.816 Z M0.215 236.816 C3.415 238.417 5.938 236.848 9.215 235.816 C9.215 235.156 9.215 234.496 9.215 233.816 C4.938 233.816 3.656 234.523 0.215 236.816 Z M2.59 242.316 C1.364 242.734 1.364 242.734 0.113 243.16 C-0.513 243.377 -1.14 243.593 -1.785 243.816 C-1.455 244.476 -1.125 245.136 -0.785 245.816 C3.967 245.384 6.135 244.489 9.215 240.816 C6.749 240.816 4.921 241.517 2.59 242.316 Z M126.215 250.816 C127.515 253.569 128.954 255.964 130.789 258.391 C131.288 259.054 131.787 259.717 132.302 260.401 C132.83 261.095 133.358 261.789 133.902 262.504 C134.445 263.219 134.989 263.933 135.548 264.669 C136.624 266.084 137.7 267.498 138.777 268.911 C139.957 270.475 141.106 272.063 142.246 273.656 C155.466 291.895 183.248 297.843 204.215 301.816 C206.001 302.159 206.001 302.159 207.824 302.508 C227.349 305.556 247.846 304.411 267.465 302.566 C269.291 302.403 269.291 302.403 271.155 302.236 C279.515 301.35 288.083 299.987 294.902 294.754 C296.936 290.202 296.524 285.724 296.215 280.816 C295.69 280.998 295.166 281.18 294.625 281.367 C268.753 289.762 239.724 288.625 213.215 283.816 C212.222 283.639 211.228 283.463 210.205 283.28 C180.314 277.828 152.128 266.755 126.215 250.816 Z M23.215 263.816 C20.946 266.235 20.946 266.235 19.215 268.816 C22.559 268.259 25.248 267.465 28.215 265.816 C27.885 265.156 27.555 264.496 27.215 263.816 C25.895 263.816 24.575 263.816 23.215 263.816 Z M122.039 271.504 C121.054 271.869 120.069 272.233 119.055 272.609 C118.014 273.008 116.974 273.406 115.902 273.816 C114.827 274.226 113.752 274.635 112.645 275.057 C83.021 286.532 56.147 304.84 34.215 327.816 C35.651 332.126 38.824 333.142 42.652 335.129 C43.791 335.723 43.791 335.723 44.953 336.329 C50.268 339.015 55.637 341.282 61.277 343.191 C61.935 343.417 62.592 343.643 63.269 343.876 C75.977 347.926 88.706 349.337 101.979 349.262 C104.28 349.254 106.579 349.283 108.881 349.314 C124.61 349.39 137.462 345.519 151.215 337.816 C152.017 337.417 152.818 337.017 153.645 336.605 C156.177 335.171 157.923 333.761 158.801 330.918 C160.181 311.656 147.503 291.944 137.402 276.629 C136.959 275.939 136.515 275.249 136.058 274.539 C134.654 272.41 134.654 272.41 132.215 269.816 C128.443 269.36 125.562 270.195 122.039 271.504 Z M20.215 273.816 C20.215 274.806 20.215 275.796 20.215 276.816 C23.101 276.418 24.037 276.026 25.965 273.754 C26.377 273.115 26.79 272.475 27.215 271.816 C24.568 271.816 22.634 272.798 20.215 273.816 Z M153.215 291.816 C154.792 297.552 157.039 303.758 162.22 307.116 C164.644 308.207 167.069 309.099 169.59 309.941 C170.506 310.268 171.422 310.594 172.366 310.93 C182.803 314.547 193.46 317.329 204.215 319.816 C205.318 320.077 205.318 320.077 206.444 320.344 C228.53 325.46 257.486 327.329 277.777 315.297 C279.71 313.894 281.47 312.444 283.215 310.816 C284.04 310.074 284.865 309.331 285.715 308.566 C287.432 306.947 287.432 306.947 287.215 304.816 C286.523 304.938 285.83 305.059 285.117 305.184 C241.519 312.651 195.48 312.408 155.215 291.816 C154.555 291.816 153.895 291.816 153.215 291.816 Z " fill="#000000" transform="translate(389.78515625,293.18359375)"/>
<path d="M0 0 C3.469 1.672 6.543 3.764 9.68 5.977 C10.362 6.452 11.044 6.927 11.746 7.416 C13.266 8.475 14.784 9.536 16.3 10.599 C18.986 12.478 21.678 14.347 24.371 16.215 C35.281 23.783 46.175 31.374 56.995 39.07 C58.731 40.299 60.475 41.514 62.223 42.727 C63.717 43.778 63.717 43.778 65.242 44.852 C66.087 45.439 66.931 46.027 67.801 46.633 C69.879 48.415 70.794 49.832 71.805 52.352 C70.815 53.342 69.825 54.332 68.805 55.352 C63.541 52.854 58.872 50.153 54.242 46.602 C47.774 41.754 41.196 37.085 34.555 32.477 C33.577 31.798 32.599 31.119 31.591 30.419 C24.451 25.473 17.288 20.558 10.095 15.688 C8.683 14.729 7.277 13.762 5.875 12.788 C4.428 11.784 2.967 10.799 1.496 9.829 C0.761 9.323 0.026 8.818 -0.73 8.297 C-1.396 7.851 -2.061 7.405 -2.746 6.946 C-4.195 5.352 -4.195 5.352 -4.412 2.667 C-4.34 1.903 -4.269 1.139 -4.195 0.352 C-2.195 -0.648 -2.195 -0.648 0 0 Z " fill="#000000" transform="translate(97.1953125,275.6484375)"/>
<path d="M0 0 C1.32 0.66 2.64 1.32 4 2 C3.521 6.219 2.834 8.797 0 12 C-1.32 11.67 -2.64 11.34 -4 11 C-3.385 3.492 -3.385 3.492 -1.438 1 C-0.963 0.67 -0.489 0.34 0 0 Z " fill="#000000" transform="translate(278,312)"/>
<path d="M0 0 C3.248 1.299 3.999 2.918 5.5 6 C4.51 7.485 4.51 7.485 3.5 9 C0.86 8.67 -1.78 8.34 -4.5 8 C-5.188 5.688 -5.188 5.688 -5.5 3 C-3.909 0.348 -3.097 0 0 0 Z " fill="#000000" transform="translate(477.5,319)"/>
<path d="M0 0 C1.071 0.29 1.071 0.29 2.164 0.587 C3.658 0.993 5.151 1.403 6.643 1.815 C8.927 2.444 11.214 3.061 13.502 3.678 C14.96 4.076 16.418 4.475 17.875 4.875 C18.556 5.058 19.238 5.242 19.939 5.431 C23.096 6.31 25.348 7.166 28.105 9.004 C27.775 10.654 27.445 12.304 27.105 14.004 C22.335 14.141 18.235 13.752 13.613 12.578 C12.413 12.276 11.213 11.974 9.977 11.662 C8.74 11.342 7.504 11.021 6.23 10.691 C5.002 10.383 3.774 10.074 2.508 9.756 C-16.242 4.983 -16.242 4.983 -18.895 1.004 C-18.565 0.014 -18.235 -0.976 -17.895 -1.996 C-12.903 -4.492 -5.127 -1.416 0 0 Z " fill="#000000" transform="translate(505.89453125,326.99609375)"/>
<path d="M0 0 C1.32 0 2.64 0 4 0 C4.369 5.415 4.369 5.415 2.5 8.375 C2.005 8.911 1.51 9.447 1 10 C-0.32 9.67 -1.64 9.34 -3 9 C-2.502 5.265 -2.125 3.188 0 0 Z " fill="#000000" transform="translate(271,327)"/>
<path d="M0 0 C1.32 0 2.64 0 4 0 C3.25 6.625 3.25 6.625 1 10 C-0.32 9.67 -1.64 9.34 -3 9 C-2.502 5.265 -2.125 3.188 0 0 Z " fill="#000000" transform="translate(265,340)"/>
<path d="M0 0 C0.557 0.248 1.114 0.495 1.688 0.75 C-4.593 8.443 -11.915 15.369 -20.312 20.75 C-20.972 20.75 -21.633 20.75 -22.312 20.75 C-21.02 17.907 -19.663 15.852 -17.449 13.656 C-16.892 13.101 -16.334 12.545 -15.76 11.973 C-15.179 11.404 -14.598 10.836 -14 10.25 C-13.431 9.682 -12.862 9.113 -12.275 8.527 C-3.299 -0.357 -3.299 -0.357 0 0 Z " fill="#000000" transform="translate(539.3125,352.25)"/>
<path d="M0 0 C0.99 0.33 1.98 0.66 3 1 C2.385 4.995 0.345 7.775 -2 11 C-2.33 11 -2.66 11 -3 11 C-2.886 9.541 -2.758 8.083 -2.625 6.625 C-2.555 5.813 -2.486 5.001 -2.414 4.164 C-2 2 -2 2 0 0 Z " fill="#000000" transform="translate(260,353)"/>
<path d="M0 0 C3.062 0.312 3.062 0.312 4.938 1.438 C6.628 4.255 6.598 6.1 6.062 9.312 C3.875 11.312 3.875 11.312 1.062 12.312 C-2.791 11.416 -3.705 10.661 -5.938 7.312 C-5.501 2.841 -4.811 0.512 0 0 Z " fill="#000000" transform="translate(687.9375,408.6875)"/>
<path d="M0 0 C0 0.99 0 1.98 0 3 C-9.27 11.767 -24.786 16.367 -37.312 16.07 C-37.869 16.047 -38.426 16.024 -39 16 C-30.778 6.016 -12.677 -0.552 0 0 Z " fill="#000000" transform="translate(646,418)"/>
<path d="M0 0 C2.125 0.375 2.125 0.375 4 1 C3.76 2.015 3.76 2.015 3.516 3.051 C0.812 18.517 4.879 30.908 13 44 C19.558 53.302 27.816 61.138 36.742 68.156 C39.274 70.223 40.633 72.038 42 75 C41.505 76.485 41.505 76.485 41 78 C22.005 69.354 7.4 55.012 -0.574 35.273 C-4.013 25.912 -7.659 14.758 -3.625 5 C-2 2 -2 2 0 0 Z " fill="#000000" transform="translate(152,430)"/>
<path d="M0 0 C2.475 0.495 2.475 0.495 5 1 C5.039 2.419 5.039 2.419 5.078 3.867 C6.142 31.649 16.263 56.484 36.829 75.71 C40.009 78.545 43.256 81.297 46.516 84.039 C50.55 87.436 54.645 90.916 58 95 C58 95.66 58 96.32 58 97 C46.716 93.773 37.322 84.959 29 77 C28.241 76.316 27.481 75.631 26.699 74.926 C20.102 68.761 15.519 61.74 11 54 C10.147 52.565 10.147 52.565 9.277 51.102 C0.369 34.835 -0.798 18.196 0 0 Z " fill="#000000" transform="translate(128,447)"/>
<path d="M0 0 C3 1 3 1 4.25 3.438 C5 6 5 6 4 8 C1.03 7.505 1.03 7.505 -2 7 C-2.495 4.525 -2.495 4.525 -3 2 C-2.01 1.34 -1.02 0.68 0 0 Z " fill="#000000" transform="translate(658,528)"/>
<path d="M0 0 C3.575 0.097 5.033 1.026 7.875 3.25 C10 6 10 6 9.812 8.812 C9.544 9.534 9.276 10.256 9 11 C5.526 10.684 3.466 10.365 0.688 8.188 C-0.993 6.009 -1.818 4.737 -2 2 C-1.34 1.34 -0.68 0.68 0 0 Z " fill="#000000" transform="translate(665,537)"/>
<path d="M0 0 C2.875 0.312 2.875 0.312 6 1 C8.463 4.695 8.39 6.633 8 11 C6.5 12.938 6.5 12.938 5 14 C1.839 12.63 1.007 12.011 -1 9 C-1.333 2.667 -1.333 2.667 0 0 Z " fill="#000000" transform="translate(672,551)"/>
<path d="M0 0 C0.928 0.742 0.928 0.742 1.875 1.5 C1.545 2.82 1.215 4.14 0.875 5.5 C0.223 5.393 -0.43 5.286 -1.102 5.176 C-6.69 4.409 -10.36 4.035 -15.125 7.5 C-21.763 13.681 -24.235 19.879 -24.562 28.875 C-24.308 38.451 -20.795 46.6 -14.125 53.5 C-2.823 63.187 10.533 66.399 24.75 69.125 C26.963 69.554 29.175 69.986 31.385 70.43 C33.373 70.828 35.364 71.212 37.355 71.596 C40.859 72.496 43.715 73.761 46.875 75.5 C46.5 80.838 43.474 83.707 40.188 87.625 C31.801 98.031 26.142 109.78 20.294 121.724 C18.922 124.407 17.563 127.001 15.875 129.5 C15.215 129.5 14.555 129.5 13.875 129.5 C12.608 113.34 22.23 97.547 32.375 85.625 C33.21 84.679 34.046 83.733 34.906 82.758 C36.897 80.666 36.897 80.666 37.875 78.5 C37.157 78.402 36.439 78.304 35.699 78.203 C13.293 74.966 -9.068 71.33 -24.402 52.973 C-30.565 44.128 -33.142 34.111 -31.715 23.43 C-29.906 14.957 -26.583 6.725 -19.438 1.438 C-13.353 -2.121 -6.486 -3.113 0 0 Z " fill="#000000" transform="translate(233.125,572.5)"/>
<path d="M0 0 C1.875 0.812 1.875 0.812 2.875 2.812 C4.291 14.465 -0.319 25.54 -7.125 34.812 C-15.119 44.618 -25.495 50.469 -38.125 51.812 C-41.75 51.938 -41.75 51.938 -44.125 51.812 C-44.785 50.492 -45.445 49.173 -46.125 47.812 C-44.125 44.812 -44.125 44.812 -41.219 44.039 C-39.44 43.741 -39.44 43.741 -37.625 43.438 C-26.382 41.184 -18.802 37.345 -12.125 27.812 C-7.843 20.741 -6.422 13.965 -5.68 5.781 C-5 2.143 -4.032 -0.356 0 0 Z " fill="#000000" transform="translate(707.125,583.1875)"/>
<path d="M0 0 C2.125 0.938 2.125 0.938 4 2 C3.336 7.228 -0.536 9.228 -4.449 12.309 C-5.63 13.209 -6.814 14.106 -8 15 C-8.674 15.508 -9.347 16.016 -10.042 16.54 C-24.255 27.176 -38.821 37.767 -56 43 C-56.66 42.67 -57.32 42.34 -58 42 C-50.998 35.248 -43.86 29.57 -35.656 24.293 C-32.695 22.388 -29.754 20.451 -26.812 18.516 C-26.23 18.134 -25.648 17.752 -25.049 17.358 C-18.269 12.891 -11.722 8.119 -5.184 3.309 C-2 1 -2 1 0 0 Z " fill="#000000" transform="translate(155,590)"/>
<path d="M0 0 C4.837 0.45 7.586 1.489 11 5 C11.812 7.75 11.812 7.75 12 10 C9 12 9 12 6.125 11.875 C2.553 10.875 0.649 9.573 -2 7 C-2.33 6.01 -2.66 5.02 -3 4 C-1.562 1.812 -1.562 1.812 0 0 Z " fill="#000000" transform="translate(448,615)"/>
<path d="M0 0 C1.562 1.062 1.562 1.062 3 3 C3.136 6.595 2.858 8.949 0.539 11.789 C-2.27 14.378 -4.092 15.884 -7.938 16.375 C-8.618 16.251 -9.299 16.128 -10 16 C-10.66 14.68 -11.32 13.36 -12 12 C-10.127 9.919 -8.405 8.628 -6 7.125 C-2.951 4.966 -1.65 3.299 0 0 Z " fill="#000000" transform="translate(713,616)"/>
<path d="M0 0 C3.514 0.162 5.515 0.89 8.062 3.438 C7.75 5.312 7.75 5.312 7.062 7.438 C4.062 9.438 4.062 9.438 0.625 9.312 C-3.185 8.377 -4.517 7.439 -6.938 4.438 C-5.085 0.732 -4.232 0.47 0 0 Z " fill="#000000" transform="translate(467.9375,623.5625)"/>
<path d="M0 0 C2.312 0.188 2.312 0.188 4 1 C4.661 2.77 4.661 2.77 5 5 C4 6.828 4 6.828 2.43 8.68 C1.863 9.362 1.295 10.044 0.711 10.746 C0.105 11.449 -0.501 12.151 -1.125 12.875 C-1.708 13.57 -2.29 14.265 -2.891 14.98 C-4.039 16.348 -5.193 17.711 -6.353 19.069 C-8.592 21.694 -10.796 24.346 -13 27 C-14.32 26.67 -15.64 26.34 -17 26 C-17.661 24.246 -17.661 24.246 -18 22 C-17 20.065 -17 20.065 -15.43 18.066 C-14.863 17.335 -14.295 16.603 -13.711 15.85 C-13.105 15.095 -12.499 14.34 -11.875 13.562 C-11.292 12.812 -10.71 12.061 -10.109 11.287 C-6.965 7.279 -3.827 3.375 0 0 Z " fill="#000000" transform="translate(184,626)"/>
<path d="M0 0 C2.438 1.5 2.438 1.5 4 3 C2.25 6.875 2.25 6.875 0 8 C-3.67 8.272 -6.159 8.453 -9.438 6.688 C-11 5 -11 5 -11 2 C-7.352 -0.335 -4.258 -0.38 0 0 Z " fill="#000000" transform="translate(491,626)"/>
<path d="M0 0 C1.454 0.031 1.454 0.031 2.938 0.062 C3.267 1.712 3.598 3.362 3.938 5.062 C1.627 5.393 -0.683 5.722 -3.062 6.062 C-3.445 4.406 -3.776 2.738 -4.062 1.062 C-3.062 0.062 -3.062 0.062 0 0 Z " fill="#000000" transform="translate(503.0625,627.9375)"/>
<path d="M0 0 C1.32 0 2.64 0 4 0 C7.56 7.119 5.152 19.88 3.031 27.137 C-4.61 48.352 -20.336 61.838 -40.07 71.504 C-49.805 75.852 -60.288 78.643 -71 78 C-71 76.68 -71 75.36 -71 74 C-69.221 73.598 -69.221 73.598 -67.406 73.188 C-56.039 70.487 -46.148 66.771 -36 61 C-34.49 60.167 -34.49 60.167 -32.949 59.316 C-19.812 51.568 -9.725 40.161 -4.879 25.641 C-3.301 19.328 -2.599 13.052 -2.309 6.559 C-1.993 3.944 -1.322 2.257 0 0 Z " fill="#000000" transform="translate(572,660)"/>
<path d="M0 0 C2.755 0.77 5.238 1.621 7.875 2.688 C8.583 2.958 9.29 3.228 10.02 3.506 C13.917 5.027 17.476 6.713 21 9 C20.625 11.438 20.625 11.438 20 14 C18 15 18 15 15.953 14.458 C13.273 13.451 10.602 12.424 7.938 11.375 C7.001 11.031 6.064 10.687 5.1 10.332 C4.21 9.983 3.319 9.633 2.402 9.273 C1.582 8.958 0.762 8.643 -0.082 8.318 C-2 7 -2 7 -2.775 4.358 C-2.849 3.58 -2.924 2.802 -3 2 C-2.01 1.34 -1.02 0.68 0 0 Z " fill="#000000" transform="translate(308,669)"/>
<path d="M0 0 C-0.482 5.467 -3.616 8.959 -7.641 12.405 C-9.398 13.756 -11.185 15.042 -13 16.312 C-13.603 16.754 -14.207 17.196 -14.828 17.65 C-18.168 20.021 -20.893 21.588 -25 22 C-25.66 20.02 -26.32 18.04 -27 16 C-24.346 13.879 -21.675 11.782 -19 9.688 C-18.256 9.093 -17.512 8.498 -16.746 7.885 C-11.862 4.084 -6.485 0 0 0 Z " fill="#000000" transform="translate(173,671)"/>
</svg>
