<?xml version="1.0" encoding="UTF-8"?>
<!-- Generator: visioncortex VTracer 0.6.0 -->
<svg version="1.1" xmlns="http://www.w3.org/2000/svg" width="847" height="847">
<path d="M0 0 C12.396 10.448 20.167 25.831 22.312 41.875 C25.445 81.679 12.337 120.562 -9.856 153.184 C-24.656 172.543 -24.656 172.543 -29.688 194.875 C-25.846 197.436 -24.054 197.034 -19.613 196.469 C4.18 191.64 25.543 173.916 42.961 158.008 C44.964 156.191 47 154.434 49.062 152.688 C52.991 149.263 56.683 145.613 60.375 141.938 C60.953 141.364 61.531 140.791 62.126 140.2 C65.068 137.248 67.894 134.241 70.613 131.082 C81.751 118.218 94.112 105.348 108.312 95.875 C108.881 95.495 109.449 95.115 110.034 94.723 C128.693 82.421 151.317 73.164 174.027 77.379 C178.398 78.803 180.902 81.019 183.312 84.875 C185.402 91.144 184.313 96.345 181.77 102.258 C176.884 111.033 168.504 117.935 160.59 123.941 C159.673 124.641 158.757 125.341 157.812 126.062 C156.957 126.695 156.101 127.328 155.219 127.98 C154.59 128.606 153.961 129.231 153.312 129.875 C153.312 131.195 153.312 132.515 153.312 133.875 C164.483 134.559 175.126 133.072 186.147 131.298 C211.475 127.326 211.475 127.326 220.938 134.062 C223.312 136.875 223.312 136.875 223.938 140.375 C223.1 145.064 221.525 147.28 217.659 150.067 C212.533 153.359 207.351 155.64 201.625 157.688 C200.797 157.999 199.969 158.31 199.115 158.631 C195.088 160.098 191.669 161.328 187.312 160.875 C187.312 159.885 187.312 158.895 187.312 157.875 C188.484 157.511 189.656 157.148 190.863 156.773 C207.077 152.362 207.077 152.362 219.312 141.875 C219.633 139.738 219.633 139.738 218.312 137.875 C212.962 135.058 208.622 134.364 202.625 134.438 C201.364 134.442 201.364 134.442 200.077 134.447 C189.75 134.662 179.6 136.382 169.418 138 C161.664 139.183 156.41 139.424 149.312 135.875 C148.312 134.875 148.312 134.875 147.938 132.125 C148.635 126.084 154.633 122.686 159.125 119 C160.185 118.12 161.245 117.24 162.305 116.359 C164.094 114.881 165.889 113.41 167.695 111.953 C173.124 107.454 177.062 102.628 179.312 95.875 C179.405 94.377 179.443 92.876 179.438 91.375 C179.441 90.215 179.441 90.215 179.445 89.031 C179.394 86.691 179.394 86.691 178.312 83.875 C162.341 77.898 144.066 83.263 129.169 89.995 C111.121 98.547 96.656 111.483 82.625 125.438 C81.912 126.146 81.199 126.854 80.464 127.584 C77.194 130.864 74.012 134.171 70.996 137.688 C66.743 142.615 62.162 147.211 57.562 151.811 C56.074 153.301 54.593 154.8 53.113 156.299 C46.844 162.605 40.329 168.393 33.312 173.875 C32.654 174.392 31.996 174.91 31.318 175.443 C15.615 187.605 -6.584 204.31 -27.688 201.875 C-31.273 200.238 -32.481 199.185 -34.688 195.875 C-37.356 185.137 -29.598 174.681 -24.316 165.887 C-20.963 160.415 -17.462 155.04 -13.922 149.688 C6.552 118.672 23.42 76.84 16.125 38.875 C12.812 24.883 6.589 11.162 -5.688 2.875 C-18.221 -3.498 -30.407 -3.068 -43.593 1.109 C-55.49 5.46 -64.945 13.984 -73.688 22.875 C-74.475 23.664 -75.263 24.453 -76.074 25.266 C-100.066 50.592 -115.49 84.266 -129.962 115.572 C-142.501 142.693 -156.393 171.282 -185.688 182.875 C-192.052 185.169 -198.534 187.145 -205.001 189.128 C-207.184 189.801 -209.359 190.495 -211.535 191.191 C-212.526 191.485 -212.526 191.485 -213.536 191.785 C-217.959 193.219 -220.202 194.953 -222.688 198.875 C-223.517 205.23 -221.33 211.707 -217.688 216.875 C-211.599 224.042 -202.838 226.694 -193.75 227.812 C-179.937 228.509 -169.758 222.446 -159.625 213.625 C-150.853 205.421 -143.343 196.341 -136.123 186.773 C-127.747 175.694 -119.304 164.909 -109.688 154.875 C-109.039 154.14 -108.391 153.405 -107.723 152.648 C-101.08 145.373 -90.9 138.397 -80.883 137.672 C-70.286 137.51 -70.286 137.51 -65.688 140.875 C-61.904 144.659 -59.803 147.788 -59.5 153.25 C-59.677 156.663 -60.213 158.833 -61.688 161.875 C-62.347 161.545 -63.007 161.215 -63.688 160.875 C-63.653 160.223 -63.618 159.57 -63.582 158.898 C-63.415 153.493 -63.37 149.408 -66.688 144.875 C-71.647 141.246 -76.776 141.107 -82.688 141.875 C-90.249 143.82 -95.829 147.87 -101.688 152.875 C-102.305 153.371 -102.922 153.868 -103.559 154.379 C-114.876 163.63 -123.696 176.452 -132.375 188.125 C-162.144 228.102 -162.144 228.102 -185.688 231.875 C-197.073 232.901 -208.769 230.238 -217.688 222.875 C-223.956 215.828 -227.307 208.527 -226.984 199.012 C-226.471 195.316 -225.257 193.567 -222.688 190.875 C-214.388 185.731 -204.878 183.152 -195.635 180.25 C-167.598 171.401 -154.625 151.852 -141.205 126.819 C-136.326 117.353 -132.038 107.592 -127.688 97.875 C-119.59 79.793 -110.313 61.963 -98.688 45.875 C-98.241 45.256 -97.794 44.637 -97.333 43.999 C-91.771 36.334 -86.108 28.901 -79.625 21.988 C-77.585 19.825 -77.585 19.825 -75.562 17.105 C-74.634 16.001 -74.634 16.001 -73.688 14.875 C-73.028 14.875 -72.368 14.875 -71.688 14.875 C-71.688 14.215 -71.688 13.555 -71.688 12.875 C-69.645 11.026 -67.606 9.315 -65.438 7.625 C-64.804 7.131 -64.17 6.636 -63.517 6.127 C-57.924 1.873 -52.188 -1.425 -45.688 -4.125 C-44.566 -4.632 -44.566 -4.632 -43.422 -5.148 C-29.582 -10.423 -11.92 -8.517 0 0 Z " fill="#000000" transform="translate(424.6875,92.125)"/>
<path d="M0 0 C11.695 10.858 20.804 23.998 27.621 38.434 C27.621 39.094 27.621 39.754 27.621 40.434 C34.742 37.767 41.405 34.608 48.059 30.934 C49.006 30.413 49.953 29.893 50.929 29.356 C64.36 21.894 77.404 13.768 89.621 4.434 C90.281 4.764 90.941 5.094 91.621 5.434 C90.104 9.923 86.512 11.932 82.746 14.434 C82.038 14.91 81.331 15.386 80.602 15.877 C64.561 26.554 47.79 35.714 30.621 44.434 C31.044 45.662 31.467 46.891 31.902 48.156 C37.238 64.193 41.49 80.66 43.621 97.434 C43.723 98.155 43.824 98.877 43.929 99.621 C45.704 112.507 45.804 125.387 45.809 138.371 C45.81 139.643 45.81 139.643 45.812 140.94 C45.811 143.384 45.802 145.829 45.789 148.273 C45.788 149.007 45.787 149.741 45.785 150.497 C45.748 154.575 45.408 158.431 44.621 162.434 C45.4 162.508 46.178 162.583 46.98 162.66 C70.481 165.422 92.568 175.107 113.621 185.434 C113.621 186.424 113.621 187.414 113.621 188.434 C108.553 187.794 104.364 185.537 99.809 183.371 C83.813 175.991 67.186 170.561 49.91 167.125 C46.621 166.434 46.621 166.434 44.621 165.434 C44.492 167.329 44.492 167.329 44.359 169.262 C41.355 209.046 32.953 262.492 1.188 290.586 C-11.154 299.926 -24.472 300.69 -39.379 299.434 C-42.711 298.952 -45.972 298.266 -49.254 297.52 C-50.215 297.306 -51.177 297.092 -52.167 296.871 C-68.912 293.041 -85.459 288.337 -102.03 283.825 C-123.049 278.103 -144.003 272.683 -165.379 268.434 C-166.402 268.229 -167.426 268.024 -168.48 267.812 C-179.41 265.628 -190.305 263.726 -201.379 262.434 C-201.197 266.282 -200.389 267.423 -197.605 270.195 C-196.414 271.182 -195.213 272.157 -194.004 273.121 C-192.721 274.18 -191.44 275.239 -190.16 276.301 C-189.521 276.826 -188.881 277.352 -188.223 277.894 C-184.734 280.808 -181.417 283.905 -178.074 286.984 C-175.91 288.951 -173.725 290.882 -171.52 292.801 C-154.836 307.363 -137.792 322.755 -124.379 340.434 C-123.59 341.417 -122.801 342.401 -121.988 343.414 C-116.268 350.694 -110.376 358.549 -111.004 368.316 C-113.922 384.79 -126.194 397.201 -139.344 406.576 C-153.608 416.242 -170.066 422.227 -186.379 427.434 C-187.459 427.795 -188.539 428.155 -189.652 428.527 C-197.266 430.883 -205.967 432.302 -213.504 428.996 C-259.448 401.581 -286.07 321.166 -304.364 273.08 C-304.699 272.206 -305.034 271.333 -305.379 270.434 C-305.652 269.523 -305.926 268.612 -306.208 267.674 C-307.174 265.253 -307.174 265.253 -309.539 264.502 C-310.426 264.357 -311.313 264.212 -312.227 264.062 C-313.216 263.884 -314.206 263.706 -315.225 263.522 C-316.287 263.348 -317.348 263.175 -318.441 262.996 C-339.372 259.097 -359.953 251.86 -375.379 236.434 C-377.687 235.993 -380.001 235.582 -382.316 235.184 C-393.04 233.142 -400.948 229.623 -407.379 220.434 C-410.306 215.404 -410.927 209.742 -409.98 204.027 C-409.063 200.876 -408.312 198.357 -405.925 195.996 C-402.412 192.514 -400.974 190.238 -400.898 185.211 C-400.971 183.263 -401.07 181.316 -401.191 179.371 C-401.888 156.533 -394.172 135.227 -378.379 118.434 C-363.22 104.211 -344.502 94.677 -324.879 88.309 C-324.233 88.096 -323.587 87.884 -322.922 87.665 C-311.224 83.831 -299.468 80.762 -287.379 78.434 C-286.591 78.273 -285.804 78.112 -284.992 77.946 C-253.374 71.525 -253.374 71.525 -241.379 79.434 C-240.302 80.503 -239.257 81.607 -238.254 82.746 C-237.305 83.633 -236.356 84.52 -235.379 85.434 C-229.307 85.184 -223.944 83.535 -218.254 81.496 C-217.39 81.187 -216.526 80.879 -215.636 80.561 C-190.43 71.339 -167.04 58.239 -145.379 42.434 C-144.731 41.962 -144.082 41.491 -143.414 41.006 C-130.568 31.628 -118.217 21.652 -106.191 11.246 C-74.151 -16.366 -36.602 -31.502 0 0 Z M-102.027 12.848 C-107.743 17.797 -113.666 22.451 -119.642 27.079 C-121.363 28.421 -123.07 29.78 -124.773 31.145 C-156.913 56.846 -192.904 78.903 -233.066 89.121 C-247.524 92.803 -258.781 97.52 -269.379 108.434 C-270.203 109.226 -270.203 109.226 -271.043 110.035 C-286.811 126.477 -290.783 152.547 -290.75 174.259 C-290.214 199.221 -281.13 223.013 -263.141 240.625 C-258.348 244.741 -253.15 247.848 -247.566 250.746 C-246.951 251.072 -246.336 251.398 -245.703 251.733 C-235.332 256.841 -223.958 257.859 -212.585 258.655 C-165.07 262.062 -118.928 275.379 -73.164 287.945 C-39.444 298.137 -39.444 298.137 -6.191 290.809 C3.788 284.278 9.882 275.741 15.621 265.434 C16.195 264.445 16.768 263.456 17.359 262.438 C29.729 239.66 35.192 213.097 38.934 187.684 C39.105 186.517 39.277 185.351 39.454 184.149 C40.371 177.508 40.791 171.137 40.621 164.434 C36.991 163.774 33.361 163.114 29.621 162.434 C29.621 162.104 29.621 161.774 29.621 161.434 C33.581 161.434 37.541 161.434 41.621 161.434 C44.783 125.47 43.966 80.598 27.621 47.434 C24.242 46.307 23.892 46.47 20.828 47.867 C19.76 48.346 19.76 48.346 18.67 48.834 C17.563 49.347 17.563 49.347 16.434 49.871 C15.684 50.209 14.934 50.548 14.162 50.896 C12.311 51.734 10.466 52.582 8.621 53.434 C9.188 58.338 10.253 62.611 11.934 67.246 C16.425 80.265 18.755 93.589 20.809 107.184 C20.976 108.283 21.143 109.383 21.315 110.517 C23.587 126.213 23.861 141.791 23.871 157.621 C23.872 158.686 23.873 159.75 23.874 160.847 C23.864 177.227 23.333 193.244 20.621 209.434 C20.396 210.814 20.396 210.814 20.167 212.223 C17.221 229.783 12.743 252.692 -1.355 265.004 C-9.932 271.064 -17.797 274.193 -28.379 272.434 C-52.581 264.528 -68.867 237.659 -79.961 216.402 C-92.681 190.359 -97.031 162.087 -98.379 133.434 C-97.083 133.307 -95.788 133.18 -94.453 133.049 C-89.625 132.511 -84.933 131.613 -80.188 130.586 C-79.357 130.41 -78.526 130.234 -77.67 130.052 C-75.051 129.496 -72.434 128.934 -69.816 128.371 C-68.027 127.99 -66.237 127.609 -64.447 127.229 C-60.09 126.301 -55.734 125.369 -51.379 124.434 C-51.662 125.521 -51.945 126.609 -52.236 127.729 C-52.607 129.176 -52.977 130.623 -53.348 132.07 C-53.628 133.142 -53.628 133.142 -53.913 134.235 C-56.474 144.305 -56.332 153.067 -51.379 162.434 C-46.75 168.865 -41.598 174.249 -33.816 176.434 C-25.348 177.099 -16.018 173.16 -9.254 168.273 C-2.702 161.844 -1.242 153.293 -1.129 144.496 C-1.137 131.979 -3.128 120.685 -12.191 111.621 C-18.895 107.021 -25.252 105.364 -33.379 106.434 C-39.158 107.807 -43.031 109.6 -46.566 114.434 C-49.632 118.303 -52.241 119.283 -56.996 120.449 C-57.649 120.612 -58.302 120.774 -58.974 120.942 C-67.039 122.911 -75.179 124.55 -83.316 126.184 C-84.886 126.502 -86.456 126.821 -88.025 127.141 C-91.809 127.91 -95.594 128.673 -99.379 129.434 C-99.049 128.444 -98.719 127.454 -98.379 126.434 C-98.277 125.074 -98.224 123.711 -98.203 122.348 C-97.36 88.679 -93.543 42.15 -69.055 15.945 C-61.298 8.948 -51.499 2.365 -40.816 1.809 C-29.121 2.457 -20.846 10.476 -13.289 18.711 C-5.392 28.109 1.032 39.061 5.621 50.434 C12.788 50.108 18.39 46.779 24.621 43.434 C24.139 37.764 21.888 33.873 18.996 29.121 C18.545 28.369 18.095 27.616 17.63 26.841 C14.317 21.388 10.743 16.309 6.621 11.434 C5.879 10.444 5.136 9.454 4.371 8.434 C-5.805 -3.411 -22.742 -13.457 -38.485 -14.738 C-64.63 -16.274 -82.912 -3.748 -102.027 12.848 Z M-368.379 116.434 C-369.218 117.07 -370.057 117.707 -370.922 118.363 C-383.116 128.639 -392.412 147.781 -394.379 163.434 C-395.891 182.88 -393.237 200.493 -380.609 215.961 C-374.333 223.202 -367.323 229.072 -359.379 234.434 C-358.629 234.962 -357.878 235.491 -357.105 236.035 C-328.77 254.627 -288.507 260.728 -255.254 260.496 C-254.011 260.492 -252.769 260.487 -251.488 260.482 C-248.452 260.471 -245.415 260.454 -242.379 260.434 C-242.379 259.444 -242.379 258.454 -242.379 257.434 C-245.167 256.504 -246.97 256.286 -249.859 256.223 C-250.764 256.197 -251.668 256.17 -252.6 256.144 C-253.579 256.116 -254.558 256.087 -255.566 256.059 C-295.268 254.568 -344.946 247.089 -373.645 216.551 C-386.187 201.24 -390.984 184.892 -389.379 165.434 C-386.601 147.71 -376.857 128.228 -362.309 117.395 C-333.5 98.112 -298.091 89.593 -264.379 83.434 C-264.379 82.114 -264.379 80.794 -264.379 79.434 C-297.2 79.434 -343.292 95.225 -368.379 116.434 Z M-324.379 146.434 C-324.605 153.575 -324.015 160.282 -322.754 167.309 C-322.576 168.304 -322.399 169.299 -322.216 170.324 C-319.252 186.16 -314.246 200.886 -307.379 215.434 C-306.059 215.434 -304.739 215.434 -303.379 215.434 C-304.846 210.931 -306.35 206.453 -308.027 202.023 C-314.627 184.393 -318.371 166.134 -320.379 147.434 C-321.699 147.104 -323.019 146.774 -324.379 146.434 Z M-337.379 157.434 C-338.775 158.607 -338.775 158.607 -338.574 161.898 C-338.507 166.787 -337.48 171.282 -336.254 175.996 C-336.031 176.868 -335.808 177.74 -335.578 178.638 C-330.766 198.226 -330.766 198.226 -319.379 213.434 C-318.046 209.796 -318.708 207.96 -320.293 204.496 C-320.722 203.528 -321.151 202.56 -321.594 201.562 C-322.059 200.53 -322.524 199.497 -323.004 198.434 C-327.412 188.304 -330.59 178.368 -332.906 167.582 C-333.655 164.18 -334.52 160.809 -335.379 157.434 C-336.039 157.434 -336.699 157.434 -337.379 157.434 Z M-400.379 198.434 C-403.383 204.08 -404.001 208.196 -402.379 214.434 C-399.579 220.643 -394.299 223.521 -388.379 226.434 C-386.185 227.104 -386.185 227.104 -384.379 227.434 C-385.655 224.008 -387.151 221.064 -389.129 217.996 C-392.95 211.775 -395.636 205.184 -398.379 198.434 C-399.039 198.434 -399.699 198.434 -400.379 198.434 Z M-296.379 276.434 C-295.882 282.395 -294.041 286.801 -291.328 292.094 C-290.918 292.912 -290.508 293.731 -290.086 294.575 C-288.756 297.221 -287.412 299.859 -286.066 302.496 C-285.144 304.319 -284.222 306.142 -283.301 307.966 C-276.904 320.588 -270.431 333.162 -263.379 345.434 C-262.901 346.266 -262.423 347.099 -261.93 347.957 C-248.952 370.392 -234.407 391.745 -216.379 410.434 C-215.669 411.216 -214.958 411.999 -214.227 412.805 C-213.576 413.466 -212.925 414.127 -212.254 414.809 C-211.715 415.373 -211.176 415.938 -210.621 416.52 C-204.333 419.083 -195.326 414.118 -189.379 411.809 C-188.466 411.455 -187.553 411.102 -186.613 410.738 C-162.377 401.222 -136.357 388.393 -124.945 363.512 C-124.288 361.102 -124.575 359.768 -125.379 357.434 C-126.369 357.434 -127.359 357.434 -128.379 357.434 C-128.563 358.112 -128.748 358.79 -128.938 359.488 C-131.453 367.56 -135.372 372.584 -141.379 378.434 C-142.023 379.099 -142.668 379.764 -143.332 380.449 C-158.435 395.077 -184.549 408.621 -205.375 411.906 C-209.633 411.236 -211.745 408.841 -214.566 405.809 C-215.417 404.921 -215.417 404.921 -216.284 404.015 C-247.64 370.727 -268.214 327.069 -288.379 286.434 C-289.378 284.433 -290.378 282.433 -291.379 280.434 C-292.046 279.1 -292.712 277.767 -293.379 276.434 C-294.369 276.434 -295.359 276.434 -296.379 276.434 Z M-265.379 308.434 C-266.795 311.56 -266.795 311.56 -264.824 314.953 C-264.063 316.391 -263.289 317.821 -262.504 319.246 C-262.093 320.005 -261.681 320.764 -261.258 321.546 C-249.037 343.8 -233.563 364.715 -215.379 382.434 C-214.389 382.104 -213.399 381.774 -212.379 381.434 C-213.942 377.703 -216.262 375.318 -219.066 372.434 C-234.328 356.231 -246.846 337.108 -257.476 317.608 C-260.084 312.788 -260.084 312.788 -263.379 308.434 C-264.039 308.434 -264.699 308.434 -265.379 308.434 Z M-241.379 322.434 C-240.927 327.608 -239.068 330.884 -236.004 334.934 C-235.559 335.537 -235.114 336.14 -234.656 336.761 C-233.244 338.663 -231.814 340.55 -230.379 342.434 C-229.926 343.033 -229.474 343.633 -229.007 344.251 C-222.574 352.746 -215.71 360.704 -208.379 368.434 C-207.447 369.462 -207.447 369.462 -206.496 370.512 C-204.84 372.349 -204.84 372.349 -202.379 374.434 C-201.059 374.434 -199.739 374.434 -198.379 374.434 C-199.232 369.852 -201.965 367.637 -205.254 364.559 C-212.019 358.006 -217.77 350.983 -223.379 343.434 C-223.867 342.78 -224.355 342.126 -224.858 341.452 C-233.551 329.781 -233.551 329.781 -236.508 324.996 C-237.125 324.15 -237.743 323.305 -238.379 322.434 C-239.369 322.434 -240.359 322.434 -241.379 322.434 Z M-119.379 366.434 C-119.829 367.449 -120.279 368.465 -120.742 369.512 C-131.544 392.998 -151.154 405.39 -174.768 414.328 C-181.352 416.759 -187.904 419.079 -194.762 420.633 C-196.608 421.314 -196.608 421.314 -197.121 423.516 C-197.206 424.149 -197.291 424.781 -197.379 425.434 C-191.284 424.871 -185.948 423.548 -180.191 421.496 C-179.334 421.191 -178.476 420.886 -177.592 420.572 C-162.722 415.129 -148.485 408.784 -136.379 398.434 C-135.563 397.789 -134.747 397.145 -133.906 396.48 C-125.346 389.45 -119.564 380.038 -116.379 369.434 C-116.379 368.444 -116.379 367.454 -116.379 366.434 C-117.369 366.434 -118.359 366.434 -119.379 366.434 Z " fill="#000000" transform="translate(590.37890625,278.56640625)"/>
<path d="M0 0 C9.494 1.361 18.877 3.107 28.27 5.039 C29.686 5.328 31.102 5.617 32.518 5.905 C36.2 6.655 39.88 7.409 43.561 8.164 C47.335 8.937 51.11 9.707 54.885 10.477 C62.257 11.981 69.629 13.489 77 15 C77.495 16.98 77.495 16.98 78 19 C69.195 18.449 60.697 16.901 52.066 15.129 C50.657 14.843 49.247 14.558 47.838 14.273 C44.906 13.679 41.976 13.081 39.046 12.48 C35.296 11.711 31.545 10.953 27.792 10.197 C24.891 9.612 21.991 9.022 19.091 8.429 C17.707 8.147 16.323 7.867 14.939 7.588 C13.01 7.199 11.082 6.802 9.155 6.405 C7.512 6.069 7.512 6.069 5.837 5.727 C3.298 5.076 1.272 4.283 -1 3 C-0.67 2.01 -0.34 1.02 0 0 Z " fill="#000000" transform="translate(118,329)"/>
<path d="M0 0 C0 0.99 0 1.98 0 3 C-11.74 4.648 -23.506 6.001 -35.291 7.287 C-38.391 7.627 -41.49 7.973 -44.59 8.32 C-46.588 8.539 -48.587 8.758 -50.586 8.977 C-51.499 9.08 -52.411 9.183 -53.352 9.289 C-58.937 9.889 -64.383 10.093 -70 10 C-70 9.01 -70 8.02 -70 7 C-56.044 5.145 -42.069 3.536 -28.065 2.085 C-26.32 1.904 -24.575 1.722 -22.83 1.539 C-20.344 1.278 -17.858 1.023 -15.371 0.77 C-14.63 0.692 -13.889 0.614 -13.126 0.533 C-8.725 0.092 -4.423 -0.071 0 0 Z " fill="#000000" transform="translate(711,376)"/>
<path d="M0 0 C0 0.99 0 1.98 0 3 C-3.894 4.962 -7.791 6.919 -11.688 8.875 C-12.79 9.431 -13.893 9.986 -15.029 10.559 C-16.629 11.361 -16.629 11.361 -18.262 12.18 C-19.241 12.672 -20.22 13.164 -21.229 13.671 C-28.171 17 -28.171 17 -32 17 C-31.866 15.202 -31.866 15.202 -31 13 C-28.471 11.353 -28.471 11.353 -25.137 9.766 C-24.548 9.483 -23.96 9.2 -23.354 8.908 C-22.109 8.313 -20.86 7.726 -19.609 7.144 C-17.697 6.255 -15.799 5.342 -13.9 4.426 C-4.58 0 -4.58 0 0 0 Z " fill="#000000" transform="translate(155,389)"/>
<path d="M0 0 C3.013 0.303 3.917 0.904 5.938 3.23 C6.618 4.206 7.299 5.182 8 6.188 C27.959 33.849 52.804 55.262 83 71 C83 71.66 83 72.32 83 73 C65.969 70.969 50.52 55.886 38 45 C36.563 43.812 35.126 42.624 33.688 41.438 C32.801 40.633 31.914 39.829 31 39 C31 38.34 31 37.68 31 37 C29.515 36.505 29.515 36.505 28 36 C26.492 34.504 26.492 34.504 24.875 32.562 C22.21 29.412 19.487 26.344 16.688 23.312 C13.151 19.388 9.808 15.353 6.562 11.188 C6.137 10.648 5.712 10.109 5.274 9.554 C2.932 6.503 1.234 3.647 0 0 Z " fill="#000000" transform="translate(331,389)"/>
<path d="M0 0 C0.99 0 1.98 0 3 0 C3.095 0.874 3.19 1.748 3.288 2.648 C7.699 42.61 15.203 83.313 38.234 117.297 C40 120 40 120 40 122 C38.258 121.891 38.258 121.891 36 121 C34.426 118.929 33.154 116.995 31.875 114.75 C31.49 114.085 31.104 113.419 30.707 112.733 C11.623 79.121 -0.906 38.97 0 0 Z " fill="#000000" transform="translate(477,417)"/>
<path d="M0 0 C3.622 1.551 6.125 3.769 9 6.438 C12.529 9.704 12.529 9.704 16.312 12.66 C16.869 13.102 17.426 13.544 18 14 C18 14.66 18 15.32 18 16 C19.32 16.66 20.64 17.32 22 18 C22 18.66 22 19.32 22 20 C22.99 20.33 23.98 20.66 25 21 C26.473 22.461 26.473 22.461 28.062 24.375 C31.823 28.815 35.731 33.103 39.668 37.387 C40.822 38.68 40.822 38.68 42 40 C43.17 41.309 43.17 41.309 44.363 42.645 C44.903 43.422 45.444 44.199 46 45 C45.67 45.99 45.34 46.98 45 48 C40.722 44.632 37.273 41.224 33.902 36.941 C29.106 31.013 23.912 25.615 18.5 20.25 C17.614 19.357 16.729 18.463 15.816 17.543 C10.506 12.248 5.053 7.431 -1 3 C-0.67 2.01 -0.34 1.02 0 0 Z " fill="#000000" transform="translate(624,520)"/>
<path d="M0 0 C3.405 1.707 6.062 3.994 8.883 6.508 C13.982 10.964 19.186 14.941 24.809 18.727 C25.452 19.273 26.095 19.82 26.758 20.383 C26.758 21.373 26.758 22.363 26.758 23.383 C12.539 30.432 -3.402 33.012 -18.992 35.195 C-19.872 35.319 -20.751 35.443 -21.658 35.571 C-27.544 36.331 -33.31 36.518 -39.242 36.383 C-39.242 32.383 -39.242 32.383 -37.441 30.34 C-36.613 29.632 -35.784 28.924 -34.93 28.195 C-34.011 27.401 -33.091 26.607 -32.145 25.789 C-29.452 23.557 -26.728 21.374 -23.992 19.195 C-18.56 14.82 -13.698 9.98 -8.837 4.991 C-7.984 4.118 -7.984 4.118 -7.113 3.227 C-6.607 2.703 -6.101 2.179 -5.58 1.639 C-3.519 -0.296 -2.789 -0.768 0 0 Z M-11.055 23.32 C-12.173 23.598 -13.291 23.876 -14.443 24.162 C-17.379 24.893 -20.311 25.636 -23.242 26.383 C-23.996 26.515 -24.75 26.647 -25.526 26.783 C-26.092 26.981 -26.659 27.179 -27.242 27.383 C-27.572 28.373 -27.902 29.363 -28.242 30.383 C-27.236 31.623 -27.236 31.623 -25.188 31.402 C-18.49 30.911 -11.998 29.86 -5.43 28.508 C-4.63 28.346 -3.83 28.185 -3.006 28.019 C1.894 26.968 6.216 25.505 10.758 23.383 C10.758 22.393 10.758 21.403 10.758 20.383 C3.054 20 -3.612 21.413 -11.055 23.32 Z " fill="#000000" transform="translate(184.2421875,576.6171875)"/>
<path d="M0 0 C6.342 2.375 9.5 9.532 13 15 C13.39 15.607 13.779 16.215 14.181 16.84 C20.185 26.332 25.236 36.276 30.125 46.375 C30.419 46.979 30.713 47.583 31.016 48.205 C31.854 49.933 32.681 51.666 33.508 53.398 C33.989 54.406 34.47 55.413 34.965 56.451 C36 59 36 59 36 62 C33 61 33 61 31.533 58.494 C31.026 57.393 30.519 56.291 29.996 55.156 C29.717 54.56 29.437 53.963 29.149 53.348 C28.55 52.068 27.954 50.785 27.362 49.501 C25.816 46.155 24.23 42.829 22.641 39.504 C22.327 38.849 22.014 38.193 21.691 37.518 C16.129 25.96 9.658 15.309 1.617 5.32 C0 3 0 3 0 0 Z " fill="#000000" transform="translate(562,661)"/>
<path d="M0 0 C2.929 2.741 5.022 5.403 7.016 8.879 C7.544 9.8 8.073 10.721 8.617 11.67 C9.156 12.624 9.695 13.579 10.25 14.562 C10.804 15.521 11.359 16.479 11.93 17.467 C12.453 18.387 12.976 19.306 13.516 20.254 C14.232 21.512 14.232 21.512 14.962 22.795 C16 25 16 25 16 28 C12.301 26.767 12.022 25.806 10.152 22.484 C9.63 21.563 9.107 20.641 8.568 19.691 C8.03 18.721 7.492 17.75 6.938 16.75 C6.395 15.795 5.853 14.84 5.295 13.855 C2.921 9.636 0.723 5.533 -1 1 C-0.67 0.67 -0.34 0.34 0 0 Z " fill="#000000" transform="translate(545,664)"/>
<path d="M0 0 C3.092 1.333 4.743 2.596 6.664 5.352 C7.141 6.03 7.618 6.708 8.11 7.406 C8.61 8.138 9.11 8.871 9.625 9.625 C10.153 10.386 10.681 11.146 11.224 11.93 C15.505 18.151 19.536 24.512 23.488 30.945 C26.17 35.303 28.956 39.589 31.75 43.875 C35.633 49.841 39.417 55.848 43 62 C42.34 62.66 41.68 63.32 41 64 C37.001 58.491 33.253 52.861 29.688 47.062 C23.448 36.942 16.787 27.099 10.172 17.223 C9.107 15.632 9.107 15.632 8.021 14.008 C6.729 12.085 5.429 10.166 4.119 8.253 C3.569 7.447 3.02 6.64 2.453 5.809 C1.975 5.114 1.497 4.42 1.005 3.705 C0 2 0 2 0 0 Z " fill="#000000" transform="translate(516,665)"/>
<path d="M0 0 C3.778 1.467 5.169 3.351 7.188 6.812 C7.951 8.091 7.951 8.091 8.73 9.395 C9.984 11.967 10.58 14.181 11 17 C8 16 8 16 7.008 14.398 C6.716 13.731 6.425 13.063 6.125 12.375 C4.172 8.182 1.773 4.697 -1 1 C-0.67 0.67 -0.34 0.34 0 0 Z " fill="#000000" transform="translate(624,673)"/>
<path d="M0 0 C5.267 4.146 9.332 8.667 13.5 13.906 C15.676 16.6 17.913 19.205 20.199 21.803 C50 55.784 50 55.784 50 64 C46.101 62.507 44.726 60.441 42.562 56.938 C37.189 48.591 31.105 40.821 25 33 C23.915 31.606 23.915 31.606 22.809 30.184 C17.563 23.536 12.025 17.137 6.491 10.729 C3.987 7.825 1.494 4.913 -1 2 C-0.67 1.34 -0.34 0.68 0 0 Z " fill="#000000" transform="translate(317,683)"/>
<path d="M0 0 C3.388 3.085 5.506 6.286 7.75 10.27 C8.09 10.869 8.43 11.468 8.78 12.085 C9.86 13.991 10.93 15.902 12 17.812 C12.718 19.084 13.437 20.356 14.156 21.627 C15.488 23.982 16.816 26.339 18.141 28.698 C19.117 30.432 20.098 32.162 21.123 33.867 C24 38.689 24 38.689 24 42 C20.662 40.972 19.903 39.839 18.062 36.789 C17.365 35.406 16.678 34.018 16 32.625 C11.982 24.654 7.496 17.057 2.723 9.514 C2.224 8.708 1.725 7.901 1.211 7.07 C0.76 6.356 0.31 5.642 -0.155 4.907 C-1 3 -1 3 0 0 Z " fill="#000000" transform="translate(505,684)"/>
<path d="M0 0 C4.692 4.36 7.288 9.483 10.312 15.062 C10.875 16.069 11.438 17.075 12.018 18.111 C12.544 19.076 13.071 20.041 13.613 21.035 C14.096 21.916 14.578 22.796 15.075 23.703 C16 26 16 26 15 29 C10.153 24.538 7.673 19.168 4.688 13.375 C4.125 12.313 3.562 11.251 2.982 10.156 C2.456 9.143 1.929 8.13 1.387 7.086 C0.904 6.158 0.422 5.231 -0.075 4.275 C-0.381 3.524 -0.686 2.773 -1 2 C-0.67 1.34 -0.34 0.68 0 0 Z " fill="#000000" transform="translate(602,684)"/>
<path d="M0 0 C8.204 7.435 13.954 17.321 20 26.5 C20.588 27.385 21.177 28.27 21.783 29.182 C22.329 30.019 22.875 30.856 23.438 31.719 C23.931 32.471 24.425 33.223 24.934 33.998 C26 36 26 36 26 39 C21.996 37.665 20.906 35.125 18.812 31.688 C18.01 30.404 17.207 29.122 16.402 27.84 C16 27.194 15.598 26.548 15.183 25.882 C10.066 17.741 4.555 9.847 -1 2 C-0.67 1.34 -0.34 0.68 0 0 Z " fill="#000000" transform="translate(478,689)"/>
<path d="M0 0 C4.269 3.995 7.574 8.355 10.938 13.125 C12.092 14.74 13.247 16.355 14.402 17.969 C14.995 18.799 15.588 19.629 16.199 20.484 C25.4 33.334 34.932 45.82 45 58 C46.611 59.953 48.214 61.912 49.812 63.875 C50.438 64.636 51.063 65.396 51.707 66.18 C53 68 53 68 53 70 C52.01 70 51.02 70 50 70 C48.23 68.227 48.23 68.227 46.188 65.625 C45.392 64.618 44.597 63.611 43.777 62.574 C43.336 62.006 42.895 61.438 42.441 60.853 C40.89 58.858 39.322 56.876 37.754 54.895 C30.126 45.216 22.814 35.342 15.657 25.312 C13.906 22.868 12.138 20.437 10.367 18.008 C9.475 16.782 9.475 16.782 8.565 15.531 C7.424 13.965 6.281 12.4 5.136 10.836 C4.624 10.13 4.111 9.423 3.582 8.695 C3.131 8.077 2.679 7.458 2.214 6.821 C0.963 4.945 -0.035 3.036 -1 1 C-0.67 0.67 -0.34 0.34 0 0 Z " fill="#000000" transform="translate(356,693)"/>
<path d="M0 0 C0.99 0 1.98 0 3 0 C4.745 2.413 6.258 4.75 7.75 7.312 C8.174 8.003 8.598 8.693 9.035 9.404 C10.112 11.22 11.065 13.107 12 15 C11.67 15.99 11.34 16.98 11 18 C7.732 15.216 5.875 11.568 3.812 7.875 C3.444 7.229 3.076 6.583 2.697 5.918 C0 1.144 0 1.144 0 0 Z " fill="#000000" transform="translate(414,704)"/>
<path d="M0 0 C3.306 3.035 5.502 6.186 7.75 10.062 C8.67 11.627 8.67 11.627 9.609 13.223 C11 16 11 16 11 19 C7.595 17.865 7.38 17.447 5.703 14.473 C5.302 13.763 4.901 13.053 4.488 12.322 C4.08 11.577 3.671 10.831 3.25 10.062 C2.826 9.321 2.402 8.579 1.965 7.814 C-0.331 3.691 -0.331 3.691 -1 2 C-0.67 1.34 -0.34 0.68 0 0 Z " fill="#000000" transform="translate(438,706)"/>
<path d="M0 0 C3.433 1.144 3.803 1.78 5.699 4.711 C6.186 5.461 6.672 6.211 7.174 6.984 C7.673 7.773 8.173 8.562 8.688 9.375 C9.199 10.156 9.71 10.937 10.236 11.742 C14 17.611 14 17.611 14 21 C13.34 21 12.68 21 12 21 C10.434 18.777 8.983 16.563 7.562 14.25 C6.774 12.984 5.983 11.718 5.191 10.453 C4.818 9.852 4.444 9.25 4.059 8.631 C2.939 6.851 2.939 6.851 1.215 4.734 C0 3 0 3 0 0 Z " fill="#000000" transform="translate(393,710)"/>
</svg>
